<svg width="242" height="208" viewBox="0 0 242 208" fill="none" xmlns="http://www.w3.org/2000/svg">
<rect width="242" height="208" fill="black"/>
<path d="M8.62 164.22H15.07V166.08H10.825V168.345H14.44V170.205H10.825V174H8.62V164.22ZM16.9091 171.93C16.9091 171.51 16.9991 171.145 17.1791 170.835C17.3591 170.515 17.6441 170.245 18.0341 170.025C18.4341 169.805 18.9441 169.63 19.5641 169.5C20.1841 169.36 20.9341 169.265 21.8141 169.215C21.7741 168.875 21.6241 168.61 21.3641 168.42C21.1141 168.23 20.7341 168.135 20.2241 168.135C19.8641 168.135 19.4991 168.2 19.1291 168.33C18.7691 168.45 18.3791 168.615 17.9591 168.825L17.1791 167.385C17.6891 167.095 18.2341 166.855 18.8141 166.665C19.4041 166.475 20.0191 166.38 20.6591 166.38C21.6991 166.38 22.5191 166.655 23.1191 167.205C23.7191 167.755 24.0191 168.6 24.0191 169.74V174H22.2191L22.0541 173.16H21.9941C21.6141 173.45 21.1991 173.695 20.7491 173.895C20.2991 174.085 19.8341 174.18 19.3541 174.18C18.9741 174.18 18.6341 174.12 18.3341 174C18.0341 173.89 17.7791 173.735 17.5691 173.535C17.3591 173.325 17.1941 173.085 17.0741 172.815C16.9641 172.545 16.9091 172.25 16.9091 171.93ZM19.0241 171.765C19.0241 172.005 19.1141 172.185 19.2941 172.305C19.4841 172.415 19.7391 172.47 20.0591 172.47C20.3891 172.47 20.6991 172.405 20.9891 172.275C21.2791 172.135 21.5541 171.965 21.8141 171.765V170.535C21.2641 170.565 20.8091 170.615 20.4491 170.685C20.0891 170.755 19.8041 170.845 19.5941 170.955C19.3841 171.055 19.2341 171.175 19.1441 171.315C19.0641 171.455 19.0241 171.605 19.0241 171.765ZM25.9933 170.28C25.9933 169.66 26.1083 169.11 26.3383 168.63C26.5783 168.14 26.8933 167.73 27.2833 167.4C27.6833 167.07 28.1433 166.82 28.6633 166.65C29.1833 166.47 29.7283 166.38 30.2983 166.38C30.8883 166.38 31.4183 166.475 31.8883 166.665C32.3683 166.855 32.7683 167.095 33.0883 167.385L32.0683 168.75C31.5183 168.36 30.9683 168.165 30.4183 168.165C29.7783 168.165 29.2583 168.355 28.8583 168.735C28.4583 169.115 28.2583 169.63 28.2583 170.28C28.2583 170.93 28.4483 171.445 28.8283 171.825C29.2183 172.205 29.7233 172.395 30.3433 172.395C30.7333 172.395 31.0933 172.325 31.4233 172.185C31.7533 172.045 32.0483 171.88 32.3083 171.69L33.2083 173.085C32.7583 173.465 32.2583 173.745 31.7083 173.925C31.1683 174.095 30.6433 174.18 30.1333 174.18C29.5433 174.18 28.9983 174.095 28.4983 173.925C27.9983 173.745 27.5583 173.49 27.1783 173.16C26.8083 172.83 26.5183 172.425 26.3083 171.945C26.0983 171.455 25.9933 170.9 25.9933 170.28ZM34.8074 170.28C34.8074 169.67 34.9124 169.125 35.1224 168.645C35.3424 168.165 35.6324 167.76 35.9924 167.43C36.3524 167.09 36.7624 166.83 37.2224 166.65C37.6924 166.47 38.1774 166.38 38.6774 166.38C39.2474 166.38 39.7524 166.47 40.1924 166.65C40.6324 166.83 40.9974 167.08 41.2874 167.4C41.5774 167.72 41.7974 168.1 41.9474 168.54C42.0974 168.97 42.1724 169.44 42.1724 169.95C42.1724 170.15 42.1624 170.34 42.1424 170.52C42.1224 170.7 42.1024 170.835 42.0824 170.925H37.0724C37.1524 171.485 37.3924 171.89 37.7924 172.14C38.2024 172.38 38.6824 172.5 39.2324 172.5C39.5724 172.5 39.8924 172.46 40.1924 172.38C40.5024 172.29 40.8224 172.16 41.1524 171.99L41.8724 173.31C41.4524 173.58 40.9824 173.795 40.4624 173.955C39.9424 174.105 39.4324 174.18 38.9324 174.18C38.3524 174.18 37.8124 174.095 37.3124 173.925C36.8124 173.745 36.3774 173.49 36.0074 173.16C35.6374 172.82 35.3424 172.41 35.1224 171.93C34.9124 171.45 34.8074 170.9 34.8074 170.28ZM40.1774 169.47C40.1774 169.05 40.0624 168.71 39.8324 168.45C39.6024 168.19 39.2324 168.06 38.7224 168.06C38.3224 168.06 37.9674 168.175 37.6574 168.405C37.3474 168.635 37.1424 168.99 37.0424 169.47H40.1774ZM44.0566 163.485H46.2616V166.065L46.2016 167.235C46.4916 166.965 46.8166 166.755 47.1766 166.605C47.5466 166.455 47.9116 166.38 48.2716 166.38C48.7316 166.38 49.1466 166.47 49.5166 166.65C49.8966 166.83 50.2116 167.085 50.4616 167.415C50.7216 167.735 50.9216 168.13 51.0616 168.6C51.2016 169.06 51.2716 169.575 51.2716 170.145C51.2716 170.785 51.1816 171.355 51.0016 171.855C50.8216 172.355 50.5816 172.78 50.2816 173.13C49.9816 173.47 49.6366 173.73 49.2466 173.91C48.8666 174.09 48.4666 174.18 48.0466 174.18C47.6966 174.18 47.3466 174.095 46.9966 173.925C46.6566 173.755 46.3316 173.51 46.0216 173.19H45.9616L45.7816 174H44.0566V163.485ZM46.2616 171.885C46.4716 172.065 46.6866 172.195 46.9066 172.275C47.1366 172.345 47.3516 172.38 47.5516 172.38C47.9616 172.38 48.3066 172.21 48.5866 171.87C48.8666 171.52 49.0066 170.96 49.0066 170.19C49.0066 168.85 48.5516 168.18 47.6416 168.18C47.1716 168.18 46.7116 168.41 46.2616 168.87V171.885ZM52.6757 170.28C52.6757 169.66 52.7807 169.11 52.9907 168.63C53.2007 168.14 53.4807 167.73 53.8307 167.4C54.1907 167.07 54.5957 166.82 55.0457 166.65C55.5057 166.47 55.9807 166.38 56.4707 166.38C56.9607 166.38 57.4307 166.47 57.8807 166.65C58.3407 166.82 58.7457 167.07 59.0957 167.4C59.4557 167.73 59.7407 168.14 59.9507 168.63C60.1607 169.11 60.2657 169.66 60.2657 170.28C60.2657 170.9 60.1607 171.455 59.9507 171.945C59.7407 172.425 59.4557 172.83 59.0957 173.16C58.7457 173.49 58.3407 173.745 57.8807 173.925C57.4307 174.095 56.9607 174.18 56.4707 174.18C55.9807 174.18 55.5057 174.095 55.0457 173.925C54.5957 173.745 54.1907 173.49 53.8307 173.16C53.4807 172.83 53.2007 172.425 52.9907 171.945C52.7807 171.455 52.6757 170.9 52.6757 170.28ZM54.9407 170.28C54.9407 170.93 55.0657 171.445 55.3157 171.825C55.5757 172.205 55.9607 172.395 56.4707 172.395C56.9807 172.395 57.3607 172.205 57.6107 171.825C57.8707 171.445 58.0007 170.93 58.0007 170.28C58.0007 169.63 57.8707 169.115 57.6107 168.735C57.3607 168.355 56.9807 168.165 56.4707 168.165C55.9607 168.165 55.5757 168.355 55.3157 168.735C55.0657 169.115 54.9407 169.63 54.9407 170.28ZM61.6698 170.28C61.6698 169.66 61.7748 169.11 61.9848 168.63C62.1948 168.14 62.4748 167.73 62.8248 167.4C63.1848 167.07 63.5898 166.82 64.0398 166.65C64.4998 166.47 64.9748 166.38 65.4648 166.38C65.9548 166.38 66.4248 166.47 66.8748 166.65C67.3348 166.82 67.7398 167.07 68.0898 167.4C68.4498 167.73 68.7348 168.14 68.9448 168.63C69.1548 169.11 69.2598 169.66 69.2598 170.28C69.2598 170.9 69.1548 171.455 68.9448 171.945C68.7348 172.425 68.4498 172.83 68.0898 173.16C67.7398 173.49 67.3348 173.745 66.8748 173.925C66.4248 174.095 65.9548 174.18 65.4648 174.18C64.9748 174.18 64.4998 174.095 64.0398 173.925C63.5898 173.745 63.1848 173.49 62.8248 173.16C62.4748 172.83 62.1948 172.425 61.9848 171.945C61.7748 171.455 61.6698 170.9 61.6698 170.28ZM63.9348 170.28C63.9348 170.93 64.0598 171.445 64.3098 171.825C64.5698 172.205 64.9548 172.395 65.4648 172.395C65.9748 172.395 66.3548 172.205 66.6048 171.825C66.8648 171.445 66.9948 170.93 66.9948 170.28C66.9948 169.63 66.8648 169.115 66.6048 168.735C66.3548 168.355 65.9748 168.165 65.4648 168.165C64.9548 168.165 64.5698 168.355 64.3098 168.735C64.0598 169.115 63.9348 169.63 63.9348 170.28ZM71.099 163.485H73.304V169.56H73.364L76.094 166.56H78.509L75.689 169.62L78.734 174H76.349L74.399 170.97L73.304 172.125V174H71.099V163.485ZM8.62 183.22H15.07V185.08H10.825V187.345H14.44V189.205H10.825V193H8.62V183.22ZM16.9091 190.93C16.9091 190.51 16.9991 190.145 17.1791 189.835C17.3591 189.515 17.6441 189.245 18.0341 189.025C18.4341 188.805 18.9441 188.63 19.5641 188.5C20.1841 188.36 20.9341 188.265 21.8141 188.215C21.7741 187.875 21.6241 187.61 21.3641 187.42C21.1141 187.23 20.7341 187.135 20.2241 187.135C19.8641 187.135 19.4991 187.2 19.1291 187.33C18.7691 187.45 18.3791 187.615 17.9591 187.825L17.1791 186.385C17.6891 186.095 18.2341 185.855 18.8141 185.665C19.4041 185.475 20.0191 185.38 20.6591 185.38C21.6991 185.38 22.5191 185.655 23.1191 186.205C23.7191 186.755 24.0191 187.6 24.0191 188.74V193H22.2191L22.0541 192.16H21.9941C21.6141 192.45 21.1991 192.695 20.7491 192.895C20.2991 193.085 19.8341 193.18 19.3541 193.18C18.9741 193.18 18.6341 193.12 18.3341 193C18.0341 192.89 17.7791 192.735 17.5691 192.535C17.3591 192.325 17.1941 192.085 17.0741 191.815C16.9641 191.545 16.9091 191.25 16.9091 190.93ZM19.0241 190.765C19.0241 191.005 19.1141 191.185 19.2941 191.305C19.4841 191.415 19.7391 191.47 20.0591 191.47C20.3891 191.47 20.6991 191.405 20.9891 191.275C21.2791 191.135 21.5541 190.965 21.8141 190.765V189.535C21.2641 189.565 20.8091 189.615 20.4491 189.685C20.0891 189.755 19.8041 189.845 19.5941 189.955C19.3841 190.055 19.2341 190.175 19.1441 190.315C19.0641 190.455 19.0241 190.605 19.0241 190.765ZM25.9933 189.28C25.9933 188.66 26.1083 188.11 26.3383 187.63C26.5783 187.14 26.8933 186.73 27.2833 186.4C27.6833 186.07 28.1433 185.82 28.6633 185.65C29.1833 185.47 29.7283 185.38 30.2983 185.38C30.8883 185.38 31.4183 185.475 31.8883 185.665C32.3683 185.855 32.7683 186.095 33.0883 186.385L32.0683 187.75C31.5183 187.36 30.9683 187.165 30.4183 187.165C29.7783 187.165 29.2583 187.355 28.8583 187.735C28.4583 188.115 28.2583 188.63 28.2583 189.28C28.2583 189.93 28.4483 190.445 28.8283 190.825C29.2183 191.205 29.7233 191.395 30.3433 191.395C30.7333 191.395 31.0933 191.325 31.4233 191.185C31.7533 191.045 32.0483 190.88 32.3083 190.69L33.2083 192.085C32.7583 192.465 32.2583 192.745 31.7083 192.925C31.1683 193.095 30.6433 193.18 30.1333 193.18C29.5433 193.18 28.9983 193.095 28.4983 192.925C27.9983 192.745 27.5583 192.49 27.1783 192.16C26.8083 191.83 26.5183 191.425 26.3083 190.945C26.0983 190.455 25.9933 189.9 25.9933 189.28ZM34.8074 189.28C34.8074 188.67 34.9124 188.125 35.1224 187.645C35.3424 187.165 35.6324 186.76 35.9924 186.43C36.3524 186.09 36.7624 185.83 37.2224 185.65C37.6924 185.47 38.1774 185.38 38.6774 185.38C39.2474 185.38 39.7524 185.47 40.1924 185.65C40.6324 185.83 40.9974 186.08 41.2874 186.4C41.5774 186.72 41.7974 187.1 41.9474 187.54C42.0974 187.97 42.1724 188.44 42.1724 188.95C42.1724 189.15 42.1624 189.34 42.1424 189.52C42.1224 189.7 42.1024 189.835 42.0824 189.925H37.0724C37.1524 190.485 37.3924 190.89 37.7924 191.14C38.2024 191.38 38.6824 191.5 39.2324 191.5C39.5724 191.5 39.8924 191.46 40.1924 191.38C40.5024 191.29 40.8224 191.16 41.1524 190.99L41.8724 192.31C41.4524 192.58 40.9824 192.795 40.4624 192.955C39.9424 193.105 39.4324 193.18 38.9324 193.18C38.3524 193.18 37.8124 193.095 37.3124 192.925C36.8124 192.745 36.3774 192.49 36.0074 192.16C35.6374 191.82 35.3424 191.41 35.1224 190.93C34.9124 190.45 34.8074 189.9 34.8074 189.28ZM40.1774 188.47C40.1774 188.05 40.0624 187.71 39.8324 187.45C39.6024 187.19 39.2324 187.06 38.7224 187.06C38.3224 187.06 37.9674 187.175 37.6574 187.405C37.3474 187.635 37.1424 187.99 37.0424 188.47H40.1774ZM44.0566 182.485H46.2616V185.065L46.2016 186.235C46.4916 185.965 46.8166 185.755 47.1766 185.605C47.5466 185.455 47.9116 185.38 48.2716 185.38C48.7316 185.38 49.1466 185.47 49.5166 185.65C49.8966 185.83 50.2116 186.085 50.4616 186.415C50.7216 186.735 50.9216 187.13 51.0616 187.6C51.2016 188.06 51.2716 188.575 51.2716 189.145C51.2716 189.785 51.1816 190.355 51.0016 190.855C50.8216 191.355 50.5816 191.78 50.2816 192.13C49.9816 192.47 49.6366 192.73 49.2466 192.91C48.8666 193.09 48.4666 193.18 48.0466 193.18C47.6966 193.18 47.3466 193.095 46.9966 192.925C46.6566 192.755 46.3316 192.51 46.0216 192.19H45.9616L45.7816 193H44.0566V182.485ZM46.2616 190.885C46.4716 191.065 46.6866 191.195 46.9066 191.275C47.1366 191.345 47.3516 191.38 47.5516 191.38C47.9616 191.38 48.3066 191.21 48.5866 190.87C48.8666 190.52 49.0066 189.96 49.0066 189.19C49.0066 187.85 48.5516 187.18 47.6416 187.18C47.1716 187.18 46.7116 187.41 46.2616 187.87V190.885ZM52.6757 189.28C52.6757 188.66 52.7807 188.11 52.9907 187.63C53.2007 187.14 53.4807 186.73 53.8307 186.4C54.1907 186.07 54.5957 185.82 55.0457 185.65C55.5057 185.47 55.9807 185.38 56.4707 185.38C56.9607 185.38 57.4307 185.47 57.8807 185.65C58.3407 185.82 58.7457 186.07 59.0957 186.4C59.4557 186.73 59.7407 187.14 59.9507 187.63C60.1607 188.11 60.2657 188.66 60.2657 189.28C60.2657 189.9 60.1607 190.455 59.9507 190.945C59.7407 191.425 59.4557 191.83 59.0957 192.16C58.7457 192.49 58.3407 192.745 57.8807 192.925C57.4307 193.095 56.9607 193.18 56.4707 193.18C55.9807 193.18 55.5057 193.095 55.0457 192.925C54.5957 192.745 54.1907 192.49 53.8307 192.16C53.4807 191.83 53.2007 191.425 52.9907 190.945C52.7807 190.455 52.6757 189.9 52.6757 189.28ZM54.9407 189.28C54.9407 189.93 55.0657 190.445 55.3157 190.825C55.5757 191.205 55.9607 191.395 56.4707 191.395C56.9807 191.395 57.3607 191.205 57.6107 190.825C57.8707 190.445 58.0007 189.93 58.0007 189.28C58.0007 188.63 57.8707 188.115 57.6107 187.735C57.3607 187.355 56.9807 187.165 56.4707 187.165C55.9607 187.165 55.5757 187.355 55.3157 187.735C55.0657 188.115 54.9407 188.63 54.9407 189.28ZM61.6698 189.28C61.6698 188.66 61.7748 188.11 61.9848 187.63C62.1948 187.14 62.4748 186.73 62.8248 186.4C63.1848 186.07 63.5898 185.82 64.0398 185.65C64.4998 185.47 64.9748 185.38 65.4648 185.38C65.9548 185.38 66.4248 185.47 66.8748 185.65C67.3348 185.82 67.7398 186.07 68.0898 186.4C68.4498 186.73 68.7348 187.14 68.9448 187.63C69.1548 188.11 69.2598 188.66 69.2598 189.28C69.2598 189.9 69.1548 190.455 68.9448 190.945C68.7348 191.425 68.4498 191.83 68.0898 192.16C67.7398 192.49 67.3348 192.745 66.8748 192.925C66.4248 193.095 65.9548 193.18 65.4648 193.18C64.9748 193.18 64.4998 193.095 64.0398 192.925C63.5898 192.745 63.1848 192.49 62.8248 192.16C62.4748 191.83 62.1948 191.425 61.9848 190.945C61.7748 190.455 61.6698 189.9 61.6698 189.28ZM63.9348 189.28C63.9348 189.93 64.0598 190.445 64.3098 190.825C64.5698 191.205 64.9548 191.395 65.4648 191.395C65.9748 191.395 66.3548 191.205 66.6048 190.825C66.8648 190.445 66.9948 189.93 66.9948 189.28C66.9948 188.63 66.8648 188.115 66.6048 187.735C66.3548 187.355 65.9748 187.165 65.4648 187.165C64.9548 187.165 64.5698 187.355 64.3098 187.735C64.0598 188.115 63.9348 188.63 63.9348 189.28ZM71.099 182.485H73.304V188.56H73.364L76.094 185.56H78.509L75.689 188.62L78.734 193H76.349L74.399 189.97L73.304 191.125V193H71.099V182.485Z" fill="white"/>
<path d="M11.5 155.18C10.92 155.18 10.385 155.065 9.895 154.835C9.415 154.595 9 154.255 8.65 153.815C8.31 153.375 8.045 152.84 7.855 152.21C7.665 151.58 7.57 150.865 7.57 150.065C7.57 149.265 7.665 148.555 7.855 147.935C8.045 147.305 8.31 146.78 8.65 146.36C9 145.93 9.415 145.605 9.895 145.385C10.385 145.155 10.92 145.04 11.5 145.04C12.08 145.04 12.61 145.155 13.09 145.385C13.58 145.605 13.995 145.93 14.335 146.36C14.685 146.79 14.955 147.32 15.145 147.95C15.335 148.57 15.43 149.275 15.43 150.065C15.43 150.865 15.335 151.58 15.145 152.21C14.955 152.84 14.685 153.375 14.335 153.815C13.995 154.255 13.58 154.595 13.09 154.835C12.61 155.065 12.08 155.18 11.5 155.18ZM11.5 153.275C12.01 153.275 12.415 152.99 12.715 152.42C13.015 151.84 13.165 151.055 13.165 150.065C13.165 149.085 13.015 148.32 12.715 147.77C12.415 147.22 12.01 146.945 11.5 146.945C10.99 146.945 10.585 147.22 10.285 147.77C9.985 148.32 9.835 149.085 9.835 150.065C9.835 151.055 9.985 151.84 10.285 152.42C10.585 152.99 10.99 153.275 11.5 153.275ZM23.8691 155H22.0691L21.9041 153.935H21.8441C21.5141 154.315 21.1491 154.62 20.7491 154.85C20.3491 155.07 19.8791 155.18 19.3391 155.18C18.4891 155.18 17.8741 154.91 17.4941 154.37C17.1141 153.83 16.9241 153.09 16.9241 152.15V147.56H19.1291V151.865C19.1291 152.365 19.2041 152.73 19.3541 152.96C19.5041 153.19 19.7891 153.305 20.2091 153.305C20.4891 153.305 20.7341 153.245 20.9441 153.125C21.1641 153.005 21.4041 152.78 21.6641 152.45V147.56H23.8691V155ZM27.5983 149.285H25.7233V147.65L27.7033 147.56L27.9883 145.58H29.8033V147.56H32.9533V149.285H29.8033V151.895C29.8033 152.465 29.9283 152.87 30.1783 153.11C30.4283 153.34 30.8233 153.455 31.3633 153.455C31.6533 153.455 31.9183 153.43 32.1583 153.38C32.3983 153.33 32.6283 153.265 32.8483 153.185L33.2383 154.775C32.9083 154.875 32.5383 154.965 32.1283 155.045C31.7283 155.135 31.2883 155.18 30.8083 155.18C30.2183 155.18 29.7183 155.1 29.3083 154.94C28.8983 154.78 28.5633 154.56 28.3033 154.28C28.0533 153.99 27.8733 153.645 27.7633 153.245C27.6533 152.845 27.5983 152.4 27.5983 151.91V149.285ZM37.2674 155.585V157.76H35.0624V147.56H36.8624L37.0274 148.31H37.0724C37.3724 148.04 37.7174 147.82 38.1074 147.65C38.4974 147.47 38.8924 147.38 39.2924 147.38C39.7524 147.38 40.1674 147.47 40.5374 147.65C40.9074 147.83 41.2224 148.085 41.4824 148.415C41.7424 148.745 41.9374 149.145 42.0674 149.615C42.2074 150.075 42.2774 150.59 42.2774 151.16C42.2774 151.8 42.1874 152.37 42.0074 152.87C41.8274 153.36 41.5874 153.78 41.2874 154.13C40.9874 154.47 40.6424 154.73 40.2524 154.91C39.8724 155.09 39.4724 155.18 39.0524 155.18C38.3724 155.18 37.7524 154.91 37.1924 154.37L37.2674 155.585ZM37.2674 152.885C37.4774 153.065 37.6924 153.195 37.9124 153.275C38.1424 153.345 38.3524 153.38 38.5424 153.38C38.9624 153.38 39.3124 153.21 39.5924 152.87C39.8724 152.52 40.0124 151.96 40.0124 151.19C40.0124 149.85 39.5574 149.18 38.6474 149.18C38.1774 149.18 37.7174 149.41 37.2674 149.87V152.885ZM50.8516 155H49.0516L48.8866 153.935H48.8266C48.4966 154.315 48.1316 154.62 47.7316 154.85C47.3316 155.07 46.8616 155.18 46.3216 155.18C45.4716 155.18 44.8566 154.91 44.4766 154.37C44.0966 153.83 43.9066 153.09 43.9066 152.15V147.56H46.1116V151.865C46.1116 152.365 46.1866 152.73 46.3366 152.96C46.4866 153.19 46.7716 153.305 47.1916 153.305C47.4716 153.305 47.7166 153.245 47.9266 153.125C48.1466 153.005 48.3866 152.78 48.6466 152.45V147.56H50.8516V155ZM54.5807 149.285H52.7057V147.65L54.6857 147.56L54.9707 145.58H56.7857V147.56H59.9357V149.285H56.7857V151.895C56.7857 152.465 56.9107 152.87 57.1607 153.11C57.4107 153.34 57.8057 153.455 58.3457 153.455C58.6357 153.455 58.9007 153.43 59.1407 153.38C59.3807 153.33 59.6107 153.265 59.8307 153.185L60.2207 154.775C59.8907 154.875 59.5207 154.965 59.1107 155.045C58.7107 155.135 58.2707 155.18 57.7907 155.18C57.2007 155.18 56.7007 155.1 56.2907 154.94C55.8807 154.78 55.5457 154.56 55.2857 154.28C55.0357 153.99 54.8557 153.645 54.7457 153.245C54.6357 152.845 54.5807 152.4 54.5807 151.91V149.285Z" fill="white"/>
<rect x="96.75" width="145.25" height="30.6018" fill="#333333"/>
<rect x="96.75" width="145.25" height="30.6018" fill="#333333"/>
<rect width="97.1974" height="30.6018" fill="#090808"/>
<path d="M18.105 17.8101C18.105 17.5513 17.9756 17.3486 17.7168 17.2021C17.4629 17.0508 17.0527 16.9165 16.4863 16.7993C14.6016 16.4038 13.6592 15.603 13.6592 14.397C13.6592 13.6938 13.9497 13.1079 14.5308 12.6392C15.1167 12.1655 15.8809 11.9287 16.8232 11.9287C17.8291 11.9287 18.6323 12.1655 19.2329 12.6392C19.8384 13.1128 20.1411 13.728 20.1411 14.4849H18.0244C18.0244 14.1821 17.9268 13.9331 17.7314 13.7378C17.5361 13.5376 17.231 13.4375 16.8159 13.4375C16.4595 13.4375 16.1836 13.5181 15.9883 13.6792C15.793 13.8403 15.6953 14.0454 15.6953 14.2944C15.6953 14.5288 15.8052 14.7192 16.0249 14.8657C16.2495 15.0073 16.6255 15.1318 17.1528 15.2393C17.6802 15.3418 18.1245 15.459 18.4858 15.5908C19.604 16.001 20.1631 16.7114 20.1631 17.7222C20.1631 18.4448 19.853 19.0308 19.2329 19.48C18.6128 19.9243 17.812 20.1465 16.8306 20.1465C16.1665 20.1465 15.5757 20.0293 15.0581 19.7949C14.5454 19.5557 14.1426 19.231 13.8496 18.8208C13.5566 18.4058 13.4102 17.959 13.4102 17.4805H15.417C15.4365 17.8564 15.5757 18.1445 15.8345 18.3447C16.0933 18.5449 16.4399 18.645 16.8745 18.645C17.2798 18.645 17.585 18.5693 17.79 18.418C18 18.2617 18.105 18.0591 18.105 17.8101ZM24.8286 18.4399C25.2192 18.4399 25.5366 18.3325 25.7808 18.1177C26.0249 17.9028 26.1519 17.6172 26.1616 17.2607H28.1465C28.1416 17.7979 27.9951 18.291 27.707 18.7402C27.4189 19.1846 27.0234 19.5312 26.5205 19.7803C26.0225 20.0244 25.4707 20.1465 24.8652 20.1465C23.7324 20.1465 22.8389 19.7876 22.1846 19.0698C21.5303 18.3472 21.2031 17.3511 21.2031 16.0815V15.9424C21.2031 14.7217 21.5278 13.7476 22.1772 13.02C22.8267 12.2925 23.7178 11.9287 24.8506 11.9287C25.8418 11.9287 26.6353 12.2119 27.231 12.7783C27.8315 13.3398 28.1367 14.0894 28.1465 15.0269H26.1616C26.1519 14.6167 26.0249 14.2847 25.7808 14.0308C25.5366 13.772 25.2144 13.6426 24.814 13.6426C24.3208 13.6426 23.9473 13.8232 23.6934 14.1846C23.4443 14.541 23.3198 15.1221 23.3198 15.9277V16.1475C23.3198 16.9629 23.4443 17.5488 23.6934 17.9053C23.9424 18.2617 24.3208 18.4399 24.8286 18.4399ZM33.8081 14.0601C33.52 14.021 33.2661 14.0015 33.0464 14.0015C32.2456 14.0015 31.7207 14.2725 31.4717 14.8145V20H29.355V12.0752H31.3545L31.4131 13.02C31.8379 12.2925 32.4263 11.9287 33.1782 11.9287C33.4126 11.9287 33.6323 11.9604 33.8374 12.0239L33.8081 14.0601ZM37.0674 20H34.9434V12.0752H37.0674V20ZM34.8188 10.0244C34.8188 9.70703 34.9238 9.4458 35.1338 9.24072C35.3486 9.03564 35.6392 8.93311 36.0054 8.93311C36.3667 8.93311 36.6548 9.03564 36.8696 9.24072C37.0845 9.4458 37.1919 9.70703 37.1919 10.0244C37.1919 10.3467 37.082 10.6104 36.8623 10.8154C36.6475 11.0205 36.3618 11.123 36.0054 11.123C35.6489 11.123 35.3608 11.0205 35.1411 10.8154C34.9263 10.6104 34.8188 10.3467 34.8188 10.0244ZM45.9517 16.1108C45.9517 17.3315 45.6733 18.3105 45.1167 19.0479C44.5649 19.7803 43.8179 20.1465 42.8755 20.1465C42.0747 20.1465 41.4277 19.8682 40.9346 19.3115V23.0469H38.8179V12.0752H40.7808L40.854 12.8516C41.3667 12.2363 42.0356 11.9287 42.8608 11.9287C43.8374 11.9287 44.5967 12.29 45.1387 13.0127C45.6807 13.7354 45.9517 14.7314 45.9517 16.001V16.1108ZM43.835 15.957C43.835 15.2197 43.7031 14.6509 43.4395 14.2505C43.1807 13.8501 42.8022 13.6499 42.3042 13.6499C41.6401 13.6499 41.1836 13.9038 40.9346 14.4116V17.6562C41.1934 18.1787 41.6548 18.4399 42.3188 18.4399C43.3296 18.4399 43.835 17.6123 43.835 15.957ZM49.8042 10.127V12.0752H51.1592V13.6279H49.8042V17.583C49.8042 17.876 49.8604 18.0859 49.9727 18.2129C50.085 18.3398 50.2998 18.4033 50.6172 18.4033C50.8516 18.4033 51.0591 18.3862 51.2397 18.3521V19.9561C50.8247 20.083 50.3975 20.1465 49.958 20.1465C48.4736 20.1465 47.7168 19.397 47.6875 17.8979V13.6279H46.5303V12.0752H47.6875V10.127H49.8042ZM52.4482 18.96C52.4482 18.623 52.5605 18.3496 52.7852 18.1396C53.0146 17.9297 53.3003 17.8247 53.6421 17.8247C53.9888 17.8247 54.2744 17.9297 54.499 18.1396C54.7285 18.3496 54.8433 18.623 54.8433 18.96C54.8433 19.292 54.731 19.563 54.5063 19.7729C54.2817 19.978 53.9937 20.0806 53.6421 20.0806C53.2954 20.0806 53.0098 19.978 52.7852 19.7729C52.5605 19.563 52.4482 19.292 52.4482 18.96ZM63.8374 16.1108C63.8374 17.3315 63.5591 18.3105 63.0024 19.0479C62.4507 19.7803 61.7036 20.1465 60.7612 20.1465C59.9604 20.1465 59.3135 19.8682 58.8203 19.3115V23.0469H56.7036V12.0752H58.6665L58.7397 12.8516C59.2524 12.2363 59.9214 11.9287 60.7466 11.9287C61.7231 11.9287 62.4824 12.29 63.0244 13.0127C63.5664 13.7354 63.8374 14.7314 63.8374 16.001V16.1108ZM61.7207 15.957C61.7207 15.2197 61.5889 14.6509 61.3252 14.2505C61.0664 13.8501 60.688 13.6499 60.1899 13.6499C59.5259 13.6499 59.0693 13.9038 58.8203 14.4116V17.6562C59.0791 18.1787 59.5405 18.4399 60.2046 18.4399C61.2153 18.4399 61.7207 17.6123 61.7207 15.957ZM68.0269 17.0044L69.4917 12.0752H71.7622L68.5762 21.2305L68.4004 21.6479C67.9268 22.6831 67.1455 23.2007 66.0566 23.2007C65.749 23.2007 65.4365 23.1543 65.1191 23.0615V21.4575L65.4414 21.4648C65.8418 21.4648 66.1396 21.4038 66.335 21.2817C66.5352 21.1597 66.6914 20.957 66.8037 20.6738L67.0527 20.022L64.2769 12.0752H66.5547L68.0269 17.0044Z" fill="white"/>
<line x1="0.000164568" y1="134.5" x2="242" y2="134.58" stroke="white"/>
<path d="M15.355 42.33C14.865 42.14 14.345 42.045 13.795 42.045C13.315 42.045 12.96 42.15 12.73 42.36C12.51 42.57 12.4 42.9 12.4 43.35V43.56H14.965V45.285H12.4V51H10.195V45.285H8.23V43.65L10.195 43.56V43.365C10.195 42.935 10.26 42.535 10.39 42.165C10.52 41.795 10.72 41.475 10.99 41.205C11.26 40.925 11.605 40.705 12.025 40.545C12.445 40.385 12.945 40.305 13.525 40.305C13.955 40.305 14.355 40.345 14.725 40.425C15.105 40.505 15.455 40.6 15.775 40.71L15.355 42.33ZM17.0741 40.485H19.2791V43.065L19.2191 44.235C19.5091 43.965 19.8341 43.755 20.1941 43.605C20.5641 43.455 20.9291 43.38 21.2891 43.38C21.7491 43.38 22.1641 43.47 22.5341 43.65C22.9141 43.83 23.2291 44.085 23.4791 44.415C23.7391 44.735 23.9391 45.13 24.0791 45.6C24.2191 46.06 24.2891 46.575 24.2891 47.145C24.2891 47.785 24.1991 48.355 24.0191 48.855C23.8391 49.355 23.5991 49.78 23.2991 50.13C22.9991 50.47 22.6541 50.73 22.2641 50.91C21.8841 51.09 21.4841 51.18 21.0641 51.18C20.7141 51.18 20.3641 51.095 20.0141 50.925C19.6741 50.755 19.3491 50.51 19.0391 50.19H18.9791L18.7991 51H17.0741V40.485ZM19.2791 48.885C19.4891 49.065 19.7041 49.195 19.9241 49.275C20.1541 49.345 20.3691 49.38 20.5691 49.38C20.9791 49.38 21.3241 49.21 21.6041 48.87C21.8841 48.52 22.0241 47.96 22.0241 47.19C22.0241 45.85 21.5691 45.18 20.6591 45.18C20.1891 45.18 19.7291 45.41 19.2791 45.87V48.885ZM33.0883 51.81V53.46H25.8883V51.81H33.0883ZM42.0374 49.215V51H35.2124V49.215H37.6724V43.71H35.7074V42.345C36.2674 42.245 36.7424 42.125 37.1324 41.985C37.5324 41.845 37.9074 41.675 38.2574 41.475H39.8774V49.215H42.0374ZM15.355 61.33C14.865 61.14 14.345 61.045 13.795 61.045C13.315 61.045 12.96 61.15 12.73 61.36C12.51 61.57 12.4 61.9 12.4 62.35V62.56H14.965V64.285H12.4V70H10.195V64.285H8.23V62.65L10.195 62.56V62.365C10.195 61.935 10.26 61.535 10.39 61.165C10.52 60.795 10.72 60.475 10.99 60.205C11.26 59.925 11.605 59.705 12.025 59.545C12.445 59.385 12.945 59.305 13.525 59.305C13.955 59.305 14.355 59.345 14.725 59.425C15.105 59.505 15.455 59.6 15.775 59.71L15.355 61.33ZM17.0741 59.485H19.2791V62.065L19.2191 63.235C19.5091 62.965 19.8341 62.755 20.1941 62.605C20.5641 62.455 20.9291 62.38 21.2891 62.38C21.7491 62.38 22.1641 62.47 22.5341 62.65C22.9141 62.83 23.2291 63.085 23.4791 63.415C23.7391 63.735 23.9391 64.13 24.0791 64.6C24.2191 65.06 24.2891 65.575 24.2891 66.145C24.2891 66.785 24.1991 67.355 24.0191 67.855C23.8391 68.355 23.5991 68.78 23.2991 69.13C22.9991 69.47 22.6541 69.73 22.2641 69.91C21.8841 70.09 21.4841 70.18 21.0641 70.18C20.7141 70.18 20.3641 70.095 20.0141 69.925C19.6741 69.755 19.3491 69.51 19.0391 69.19H18.9791L18.7991 70H17.0741V59.485ZM19.2791 67.885C19.4891 68.065 19.7041 68.195 19.9241 68.275C20.1541 68.345 20.3691 68.38 20.5691 68.38C20.9791 68.38 21.3241 68.21 21.6041 67.87C21.8841 67.52 22.0241 66.96 22.0241 66.19C22.0241 64.85 21.5691 64.18 20.6591 64.18C20.1891 64.18 19.7291 64.41 19.2791 64.87V67.885ZM33.0883 70.81V72.46H25.8883V70.81H33.0883ZM34.8524 68.74C35.5324 68.17 36.1524 67.64 36.7124 67.15C37.2724 66.65 37.7524 66.185 38.1524 65.755C38.5524 65.325 38.8624 64.92 39.0824 64.54C39.3024 64.16 39.4124 63.8 39.4124 63.46C39.4124 62.99 39.2774 62.635 39.0074 62.395C38.7374 62.145 38.3524 62.02 37.8524 62.02C37.4724 62.02 37.1224 62.12 36.8024 62.32C36.4924 62.51 36.2024 62.735 35.9324 62.995L34.7474 61.81C34.9974 61.56 35.2424 61.34 35.4824 61.15C35.7324 60.96 35.9924 60.805 36.2624 60.685C36.5424 60.555 36.8324 60.46 37.1324 60.4C37.4424 60.33 37.7824 60.295 38.1524 60.295C38.6524 60.295 39.1074 60.37 39.5174 60.52C39.9274 60.66 40.2774 60.865 40.5674 61.135C40.8674 61.395 41.0974 61.71 41.2574 62.08C41.4274 62.45 41.5124 62.865 41.5124 63.325C41.5124 63.725 41.4174 64.135 41.2274 64.555C41.0374 64.965 40.7774 65.38 40.4474 65.8C40.1274 66.21 39.7574 66.625 39.3374 67.045C38.9174 67.455 38.4774 67.86 38.0174 68.26C38.2874 68.23 38.5774 68.205 38.8874 68.185C39.2074 68.155 39.4924 68.14 39.7424 68.14H42.0074V70H34.8524V68.74ZM57.8507 109.685C56.8707 108.815 56.0957 107.81 55.5257 106.67C54.9657 105.53 54.6857 104.25 54.6857 102.83C54.6857 101.41 54.9657 100.13 55.5257 98.99C56.0957 97.85 56.8707 96.845 57.8507 95.975L59.0807 96.95C58.1907 97.82 57.5407 98.725 57.1307 99.665C56.7307 100.595 56.5307 101.65 56.5307 102.83C56.5307 103.42 56.5807 103.98 56.6807 104.51C56.7807 105.03 56.9307 105.53 57.1307 106.01C57.3407 106.49 57.6057 106.95 57.9257 107.39C58.2457 107.84 58.6307 108.28 59.0807 108.71L57.8507 109.685ZM69.3198 98.33C68.8298 98.14 68.3098 98.045 67.7598 98.045C67.2798 98.045 66.9248 98.15 66.6948 98.36C66.4748 98.57 66.3648 98.9 66.3648 99.35V99.56H68.9298V101.285H66.3648V107H64.1598V101.285H62.1948V99.65L64.1598 99.56V99.365C64.1598 98.935 64.2248 98.535 64.3548 98.165C64.4848 97.795 64.6848 97.475 64.9548 97.205C65.2248 96.925 65.5698 96.705 65.9898 96.545C66.4098 96.385 66.9098 96.305 67.4898 96.305C67.9198 96.305 68.3198 96.345 68.6898 96.425C69.0698 96.505 69.4198 96.6 69.7398 96.71L69.3198 98.33ZM71.039 96.485H73.244V99.065L73.184 100.235C73.474 99.965 73.799 99.755 74.159 99.605C74.529 99.455 74.894 99.38 75.254 99.38C75.714 99.38 76.129 99.47 76.499 99.65C76.879 99.83 77.194 100.085 77.444 100.415C77.704 100.735 77.904 101.13 78.044 101.6C78.184 102.06 78.254 102.575 78.254 103.145C78.254 103.785 78.164 104.355 77.984 104.855C77.804 105.355 77.564 105.78 77.264 106.13C76.964 106.47 76.619 106.73 76.229 106.91C75.849 107.09 75.449 107.18 75.029 107.18C74.679 107.18 74.329 107.095 73.979 106.925C73.639 106.755 73.314 106.51 73.004 106.19H72.944L72.764 107H71.039V96.485ZM73.244 104.885C73.454 105.065 73.669 105.195 73.889 105.275C74.119 105.345 74.334 105.38 74.534 105.38C74.944 105.38 75.289 105.21 75.569 104.87C75.849 104.52 75.989 103.96 75.989 103.19C75.989 101.85 75.534 101.18 74.624 101.18C74.154 101.18 73.694 101.41 73.244 101.87V104.885ZM87.0531 107.81V109.46H79.8531V107.81H87.0531ZM96.0023 105.215V107H89.1773V105.215H91.6373V99.71H89.6723V98.345C90.2323 98.245 90.7073 98.125 91.0973 97.985C91.4973 97.845 91.8723 97.675 92.2223 97.475H93.8423V105.215H96.0023ZM98.8314 108.71C99.2814 108.28 99.6664 107.84 99.9864 107.39C100.306 106.95 100.566 106.49 100.766 106.01C100.976 105.53 101.131 105.03 101.231 104.51C101.331 103.98 101.381 103.42 101.381 102.83C101.381 101.65 101.176 100.595 100.766 99.665C100.366 98.725 99.7214 97.82 98.8314 96.95L100.061 95.975C101.041 96.845 101.811 97.85 102.371 98.99C102.941 100.13 103.226 101.41 103.226 102.83C103.226 104.25 102.941 105.53 102.371 106.67C101.811 107.81 101.041 108.815 100.061 109.685L98.8314 108.71ZM57.8507 128.685C56.8707 127.815 56.0957 126.81 55.5257 125.67C54.9657 124.53 54.6857 123.25 54.6857 121.83C54.6857 120.41 54.9657 119.13 55.5257 117.99C56.0957 116.85 56.8707 115.845 57.8507 114.975L59.0807 115.95C58.1907 116.82 57.5407 117.725 57.1307 118.665C56.7307 119.595 56.5307 120.65 56.5307 121.83C56.5307 122.42 56.5807 122.98 56.6807 123.51C56.7807 124.03 56.9307 124.53 57.1307 125.01C57.3407 125.49 57.6057 125.95 57.9257 126.39C58.2457 126.84 58.6307 127.28 59.0807 127.71L57.8507 128.685ZM69.3198 117.33C68.8298 117.14 68.3098 117.045 67.7598 117.045C67.2798 117.045 66.9248 117.15 66.6948 117.36C66.4748 117.57 66.3648 117.9 66.3648 118.35V118.56H68.9298V120.285H66.3648V126H64.1598V120.285H62.1948V118.65L64.1598 118.56V118.365C64.1598 117.935 64.2248 117.535 64.3548 117.165C64.4848 116.795 64.6848 116.475 64.9548 116.205C65.2248 115.925 65.5698 115.705 65.9898 115.545C66.4098 115.385 66.9098 115.305 67.4898 115.305C67.9198 115.305 68.3198 115.345 68.6898 115.425C69.0698 115.505 69.4198 115.6 69.7398 115.71L69.3198 117.33ZM71.039 115.485H73.244V118.065L73.184 119.235C73.474 118.965 73.799 118.755 74.159 118.605C74.529 118.455 74.894 118.38 75.254 118.38C75.714 118.38 76.129 118.47 76.499 118.65C76.879 118.83 77.194 119.085 77.444 119.415C77.704 119.735 77.904 120.13 78.044 120.6C78.184 121.06 78.254 121.575 78.254 122.145C78.254 122.785 78.164 123.355 77.984 123.855C77.804 124.355 77.564 124.78 77.264 125.13C76.964 125.47 76.619 125.73 76.229 125.91C75.849 126.09 75.449 126.18 75.029 126.18C74.679 126.18 74.329 126.095 73.979 125.925C73.639 125.755 73.314 125.51 73.004 125.19H72.944L72.764 126H71.039V115.485ZM73.244 123.885C73.454 124.065 73.669 124.195 73.889 124.275C74.119 124.345 74.334 124.38 74.534 124.38C74.944 124.38 75.289 124.21 75.569 123.87C75.849 123.52 75.989 122.96 75.989 122.19C75.989 120.85 75.534 120.18 74.624 120.18C74.154 120.18 73.694 120.41 73.244 120.87V123.885ZM87.0531 126.81V128.46H79.8531V126.81H87.0531ZM88.8173 124.74C89.4973 124.17 90.1173 123.64 90.6773 123.15C91.2373 122.65 91.7173 122.185 92.1173 121.755C92.5173 121.325 92.8273 120.92 93.0473 120.54C93.2673 120.16 93.3773 119.8 93.3773 119.46C93.3773 118.99 93.2423 118.635 92.9723 118.395C92.7023 118.145 92.3173 118.02 91.8173 118.02C91.4373 118.02 91.0873 118.12 90.7673 118.32C90.4573 118.51 90.1673 118.735 89.8973 118.995L88.7123 117.81C88.9623 117.56 89.2073 117.34 89.4473 117.15C89.6973 116.96 89.9573 116.805 90.2273 116.685C90.5073 116.555 90.7973 116.46 91.0973 116.4C91.4073 116.33 91.7473 116.295 92.1173 116.295C92.6173 116.295 93.0723 116.37 93.4823 116.52C93.8923 116.66 94.2423 116.865 94.5323 117.135C94.8323 117.395 95.0623 117.71 95.2223 118.08C95.3923 118.45 95.4773 118.865 95.4773 119.325C95.4773 119.725 95.3823 120.135 95.1923 120.555C95.0023 120.965 94.7423 121.38 94.4123 121.8C94.0923 122.21 93.7223 122.625 93.3023 123.045C92.8823 123.455 92.4423 123.86 91.9823 124.26C92.2523 124.23 92.5423 124.205 92.8523 124.185C93.1723 124.155 93.4573 124.14 93.7073 124.14H95.9723V126H88.8173V124.74ZM98.8314 127.71C99.2814 127.28 99.6664 126.84 99.9864 126.39C100.306 125.95 100.566 125.49 100.766 125.01C100.976 124.53 101.131 124.03 101.231 123.51C101.331 122.98 101.381 122.42 101.381 121.83C101.381 120.65 101.176 119.595 100.766 118.665C100.366 117.725 99.7214 116.82 98.8314 115.95L100.061 114.975C101.041 115.845 101.811 116.85 102.371 117.99C102.941 119.13 103.226 120.41 103.226 121.83C103.226 123.25 102.941 124.53 102.371 125.67C101.811 126.81 101.041 127.815 100.061 128.685L98.8314 127.71Z" fill="white"/>
<path d="M53.0207 43.53H59.9207V45.09H53.0207V43.53ZM53.0207 46.995H59.9207V48.555H53.0207V46.995ZM53.0207 62.53H59.9207V64.09H53.0207V62.53ZM53.0207 65.995H59.9207V67.555H53.0207V65.995Z" fill="#BDBDBD"/>
<path d="M71.279 42.9L71.204 40.725H73.754L73.679 42.9L73.154 46.455H71.804L71.279 42.9ZM75.254 42.9L75.179 40.725H77.729L77.654 42.9L77.129 46.455H75.779L75.254 42.9ZM80.5731 41.22H87.0231V43.08H82.7781V45.345H86.3931V47.205H82.7781V51H80.5731V41.22ZM88.8623 48.93C88.8623 48.51 88.9523 48.145 89.1323 47.835C89.3123 47.515 89.5973 47.245 89.9873 47.025C90.3873 46.805 90.8973 46.63 91.5173 46.5C92.1373 46.36 92.8873 46.265 93.7673 46.215C93.7273 45.875 93.5773 45.61 93.3173 45.42C93.0673 45.23 92.6873 45.135 92.1773 45.135C91.8173 45.135 91.4523 45.2 91.0823 45.33C90.7223 45.45 90.3323 45.615 89.9123 45.825L89.1323 44.385C89.6423 44.095 90.1873 43.855 90.7673 43.665C91.3573 43.475 91.9723 43.38 92.6123 43.38C93.6523 43.38 94.4723 43.655 95.0723 44.205C95.6723 44.755 95.9723 45.6 95.9723 46.74V51H94.1723L94.0073 50.16H93.9473C93.5673 50.45 93.1523 50.695 92.7023 50.895C92.2523 51.085 91.7873 51.18 91.3073 51.18C90.9273 51.18 90.5873 51.12 90.2873 51C89.9873 50.89 89.7323 50.735 89.5223 50.535C89.3123 50.325 89.1473 50.085 89.0273 49.815C88.9173 49.545 88.8623 49.25 88.8623 48.93ZM90.9773 48.765C90.9773 49.005 91.0673 49.185 91.2473 49.305C91.4373 49.415 91.6923 49.47 92.0123 49.47C92.3423 49.47 92.6523 49.405 92.9423 49.275C93.2323 49.135 93.5073 48.965 93.7673 48.765V47.535C93.2173 47.565 92.7623 47.615 92.4023 47.685C92.0423 47.755 91.7573 47.845 91.5473 47.955C91.3373 48.055 91.1873 48.175 91.0973 48.315C91.0173 48.455 90.9773 48.605 90.9773 48.765ZM97.9464 47.28C97.9464 46.66 98.0614 46.11 98.2914 45.63C98.5314 45.14 98.8464 44.73 99.2364 44.4C99.6364 44.07 100.096 43.82 100.616 43.65C101.136 43.47 101.681 43.38 102.251 43.38C102.841 43.38 103.371 43.475 103.841 43.665C104.321 43.855 104.721 44.095 105.041 44.385L104.021 45.75C103.471 45.36 102.921 45.165 102.371 45.165C101.731 45.165 101.211 45.355 100.811 45.735C100.411 46.115 100.211 46.63 100.211 47.28C100.211 47.93 100.401 48.445 100.781 48.825C101.171 49.205 101.676 49.395 102.296 49.395C102.686 49.395 103.046 49.325 103.376 49.185C103.706 49.045 104.001 48.88 104.261 48.69L105.161 50.085C104.711 50.465 104.211 50.745 103.661 50.925C103.121 51.095 102.596 51.18 102.086 51.18C101.496 51.18 100.951 51.095 100.451 50.925C99.9514 50.745 99.5114 50.49 99.1314 50.16C98.7614 49.83 98.4714 49.425 98.2614 48.945C98.0514 48.455 97.9464 47.9 97.9464 47.28ZM106.761 47.28C106.761 46.67 106.866 46.125 107.076 45.645C107.296 45.165 107.586 44.76 107.946 44.43C108.306 44.09 108.716 43.83 109.176 43.65C109.646 43.47 110.131 43.38 110.631 43.38C111.201 43.38 111.706 43.47 112.146 43.65C112.586 43.83 112.951 44.08 113.241 44.4C113.531 44.72 113.751 45.1 113.901 45.54C114.051 45.97 114.126 46.44 114.126 46.95C114.126 47.15 114.116 47.34 114.096 47.52C114.076 47.7 114.056 47.835 114.036 47.925H109.026C109.106 48.485 109.346 48.89 109.746 49.14C110.156 49.38 110.636 49.5 111.186 49.5C111.526 49.5 111.846 49.46 112.146 49.38C112.456 49.29 112.776 49.16 113.106 48.99L113.826 50.31C113.406 50.58 112.936 50.795 112.416 50.955C111.896 51.105 111.386 51.18 110.886 51.18C110.306 51.18 109.766 51.095 109.266 50.925C108.766 50.745 108.331 50.49 107.961 50.16C107.591 49.82 107.296 49.41 107.076 48.93C106.866 48.45 106.761 47.9 106.761 47.28ZM112.131 46.47C112.131 46.05 112.016 45.71 111.786 45.45C111.556 45.19 111.186 45.06 110.676 45.06C110.276 45.06 109.921 45.175 109.611 45.405C109.301 45.635 109.096 45.99 108.996 46.47H112.131ZM116.01 40.485H118.215V43.065L118.155 44.235C118.445 43.965 118.77 43.755 119.13 43.605C119.5 43.455 119.865 43.38 120.225 43.38C120.685 43.38 121.1 43.47 121.47 43.65C121.85 43.83 122.165 44.085 122.415 44.415C122.675 44.735 122.875 45.13 123.015 45.6C123.155 46.06 123.225 46.575 123.225 47.145C123.225 47.785 123.135 48.355 122.955 48.855C122.775 49.355 122.535 49.78 122.235 50.13C121.935 50.47 121.59 50.73 121.2 50.91C120.82 51.09 120.42 51.18 120 51.18C119.65 51.18 119.3 51.095 118.95 50.925C118.61 50.755 118.285 50.51 117.975 50.19H117.915L117.735 51H116.01V40.485ZM118.215 48.885C118.425 49.065 118.64 49.195 118.86 49.275C119.09 49.345 119.305 49.38 119.505 49.38C119.915 49.38 120.26 49.21 120.54 48.87C120.82 48.52 120.96 47.96 120.96 47.19C120.96 45.85 120.505 45.18 119.595 45.18C119.125 45.18 118.665 45.41 118.215 45.87V48.885ZM124.629 47.28C124.629 46.66 124.734 46.11 124.944 45.63C125.154 45.14 125.434 44.73 125.784 44.4C126.144 44.07 126.549 43.82 126.999 43.65C127.459 43.47 127.934 43.38 128.424 43.38C128.914 43.38 129.384 43.47 129.834 43.65C130.294 43.82 130.699 44.07 131.049 44.4C131.409 44.73 131.694 45.14 131.904 45.63C132.114 46.11 132.219 46.66 132.219 47.28C132.219 47.9 132.114 48.455 131.904 48.945C131.694 49.425 131.409 49.83 131.049 50.16C130.699 50.49 130.294 50.745 129.834 50.925C129.384 51.095 128.914 51.18 128.424 51.18C127.934 51.18 127.459 51.095 126.999 50.925C126.549 50.745 126.144 50.49 125.784 50.16C125.434 49.83 125.154 49.425 124.944 48.945C124.734 48.455 124.629 47.9 124.629 47.28ZM126.894 47.28C126.894 47.93 127.019 48.445 127.269 48.825C127.529 49.205 127.914 49.395 128.424 49.395C128.934 49.395 129.314 49.205 129.564 48.825C129.824 48.445 129.954 47.93 129.954 47.28C129.954 46.63 129.824 46.115 129.564 45.735C129.314 45.355 128.934 45.165 128.424 45.165C127.914 45.165 127.529 45.355 127.269 45.735C127.019 46.115 126.894 46.63 126.894 47.28ZM133.623 47.28C133.623 46.66 133.728 46.11 133.938 45.63C134.148 45.14 134.428 44.73 134.778 44.4C135.138 44.07 135.543 43.82 135.993 43.65C136.453 43.47 136.928 43.38 137.418 43.38C137.908 43.38 138.378 43.47 138.828 43.65C139.288 43.82 139.693 44.07 140.043 44.4C140.403 44.73 140.688 45.14 140.898 45.63C141.108 46.11 141.213 46.66 141.213 47.28C141.213 47.9 141.108 48.455 140.898 48.945C140.688 49.425 140.403 49.83 140.043 50.16C139.693 50.49 139.288 50.745 138.828 50.925C138.378 51.095 137.908 51.18 137.418 51.18C136.928 51.18 136.453 51.095 135.993 50.925C135.543 50.745 135.138 50.49 134.778 50.16C134.428 49.83 134.148 49.425 133.938 48.945C133.728 48.455 133.623 47.9 133.623 47.28ZM135.888 47.28C135.888 47.93 136.013 48.445 136.263 48.825C136.523 49.205 136.908 49.395 137.418 49.395C137.928 49.395 138.308 49.205 138.558 48.825C138.818 48.445 138.948 47.93 138.948 47.28C138.948 46.63 138.818 46.115 138.558 45.735C138.308 45.355 137.928 45.165 137.418 45.165C136.908 45.165 136.523 45.355 136.263 45.735C136.013 46.115 135.888 46.63 135.888 47.28ZM143.052 40.485H145.257V46.56H145.317L148.047 43.56H150.462L147.642 46.62L150.687 51H148.302L146.352 47.97L145.257 49.125V51H143.052V40.485ZM152.226 42.9L152.151 40.725H154.701L154.626 42.9L154.101 46.455H152.751L152.226 42.9ZM156.201 42.9L156.126 40.725H158.676L158.601 42.9L158.076 46.455H156.726L156.201 42.9ZM73.259 61.9L73.184 59.725H75.734L75.659 61.9L75.134 65.455H73.784L73.259 61.9ZM80.5731 60.22H87.0231V62.08H82.7781V64.345H86.3931V66.205H82.7781V70H80.5731V60.22ZM88.8623 67.93C88.8623 67.51 88.9523 67.145 89.1323 66.835C89.3123 66.515 89.5973 66.245 89.9873 66.025C90.3873 65.805 90.8973 65.63 91.5173 65.5C92.1373 65.36 92.8873 65.265 93.7673 65.215C93.7273 64.875 93.5773 64.61 93.3173 64.42C93.0673 64.23 92.6873 64.135 92.1773 64.135C91.8173 64.135 91.4523 64.2 91.0823 64.33C90.7223 64.45 90.3323 64.615 89.9123 64.825L89.1323 63.385C89.6423 63.095 90.1873 62.855 90.7673 62.665C91.3573 62.475 91.9723 62.38 92.6123 62.38C93.6523 62.38 94.4723 62.655 95.0723 63.205C95.6723 63.755 95.9723 64.6 95.9723 65.74V70H94.1723L94.0073 69.16H93.9473C93.5673 69.45 93.1523 69.695 92.7023 69.895C92.2523 70.085 91.7873 70.18 91.3073 70.18C90.9273 70.18 90.5873 70.12 90.2873 70C89.9873 69.89 89.7323 69.735 89.5223 69.535C89.3123 69.325 89.1473 69.085 89.0273 68.815C88.9173 68.545 88.8623 68.25 88.8623 67.93ZM90.9773 67.765C90.9773 68.005 91.0673 68.185 91.2473 68.305C91.4373 68.415 91.6923 68.47 92.0123 68.47C92.3423 68.47 92.6523 68.405 92.9423 68.275C93.2323 68.135 93.5073 67.965 93.7673 67.765V66.535C93.2173 66.565 92.7623 66.615 92.4023 66.685C92.0423 66.755 91.7573 66.845 91.5473 66.955C91.3373 67.055 91.1873 67.175 91.0973 67.315C91.0173 67.455 90.9773 67.605 90.9773 67.765ZM97.9464 66.28C97.9464 65.66 98.0614 65.11 98.2914 64.63C98.5314 64.14 98.8464 63.73 99.2364 63.4C99.6364 63.07 100.096 62.82 100.616 62.65C101.136 62.47 101.681 62.38 102.251 62.38C102.841 62.38 103.371 62.475 103.841 62.665C104.321 62.855 104.721 63.095 105.041 63.385L104.021 64.75C103.471 64.36 102.921 64.165 102.371 64.165C101.731 64.165 101.211 64.355 100.811 64.735C100.411 65.115 100.211 65.63 100.211 66.28C100.211 66.93 100.401 67.445 100.781 67.825C101.171 68.205 101.676 68.395 102.296 68.395C102.686 68.395 103.046 68.325 103.376 68.185C103.706 68.045 104.001 67.88 104.261 67.69L105.161 69.085C104.711 69.465 104.211 69.745 103.661 69.925C103.121 70.095 102.596 70.18 102.086 70.18C101.496 70.18 100.951 70.095 100.451 69.925C99.9514 69.745 99.5114 69.49 99.1314 69.16C98.7614 68.83 98.4714 68.425 98.2614 67.945C98.0514 67.455 97.9464 66.9 97.9464 66.28ZM106.761 66.28C106.761 65.67 106.866 65.125 107.076 64.645C107.296 64.165 107.586 63.76 107.946 63.43C108.306 63.09 108.716 62.83 109.176 62.65C109.646 62.47 110.131 62.38 110.631 62.38C111.201 62.38 111.706 62.47 112.146 62.65C112.586 62.83 112.951 63.08 113.241 63.4C113.531 63.72 113.751 64.1 113.901 64.54C114.051 64.97 114.126 65.44 114.126 65.95C114.126 66.15 114.116 66.34 114.096 66.52C114.076 66.7 114.056 66.835 114.036 66.925H109.026C109.106 67.485 109.346 67.89 109.746 68.14C110.156 68.38 110.636 68.5 111.186 68.5C111.526 68.5 111.846 68.46 112.146 68.38C112.456 68.29 112.776 68.16 113.106 67.99L113.826 69.31C113.406 69.58 112.936 69.795 112.416 69.955C111.896 70.105 111.386 70.18 110.886 70.18C110.306 70.18 109.766 70.095 109.266 69.925C108.766 69.745 108.331 69.49 107.961 69.16C107.591 68.82 107.296 68.41 107.076 67.93C106.866 67.45 106.761 66.9 106.761 66.28ZM112.131 65.47C112.131 65.05 112.016 64.71 111.786 64.45C111.556 64.19 111.186 64.06 110.676 64.06C110.276 64.06 109.921 64.175 109.611 64.405C109.301 64.635 109.096 64.99 108.996 65.47H112.131ZM116.01 59.485H118.215V62.065L118.155 63.235C118.445 62.965 118.77 62.755 119.13 62.605C119.5 62.455 119.865 62.38 120.225 62.38C120.685 62.38 121.1 62.47 121.47 62.65C121.85 62.83 122.165 63.085 122.415 63.415C122.675 63.735 122.875 64.13 123.015 64.6C123.155 65.06 123.225 65.575 123.225 66.145C123.225 66.785 123.135 67.355 122.955 67.855C122.775 68.355 122.535 68.78 122.235 69.13C121.935 69.47 121.59 69.73 121.2 69.91C120.82 70.09 120.42 70.18 120 70.18C119.65 70.18 119.3 70.095 118.95 69.925C118.61 69.755 118.285 69.51 117.975 69.19H117.915L117.735 70H116.01V59.485ZM118.215 67.885C118.425 68.065 118.64 68.195 118.86 68.275C119.09 68.345 119.305 68.38 119.505 68.38C119.915 68.38 120.26 68.21 120.54 67.87C120.82 67.52 120.96 66.96 120.96 66.19C120.96 64.85 120.505 64.18 119.595 64.18C119.125 64.18 118.665 64.41 118.215 64.87V67.885ZM124.629 66.28C124.629 65.66 124.734 65.11 124.944 64.63C125.154 64.14 125.434 63.73 125.784 63.4C126.144 63.07 126.549 62.82 126.999 62.65C127.459 62.47 127.934 62.38 128.424 62.38C128.914 62.38 129.384 62.47 129.834 62.65C130.294 62.82 130.699 63.07 131.049 63.4C131.409 63.73 131.694 64.14 131.904 64.63C132.114 65.11 132.219 65.66 132.219 66.28C132.219 66.9 132.114 67.455 131.904 67.945C131.694 68.425 131.409 68.83 131.049 69.16C130.699 69.49 130.294 69.745 129.834 69.925C129.384 70.095 128.914 70.18 128.424 70.18C127.934 70.18 127.459 70.095 126.999 69.925C126.549 69.745 126.144 69.49 125.784 69.16C125.434 68.83 125.154 68.425 124.944 67.945C124.734 67.455 124.629 66.9 124.629 66.28ZM126.894 66.28C126.894 66.93 127.019 67.445 127.269 67.825C127.529 68.205 127.914 68.395 128.424 68.395C128.934 68.395 129.314 68.205 129.564 67.825C129.824 67.445 129.954 66.93 129.954 66.28C129.954 65.63 129.824 65.115 129.564 64.735C129.314 64.355 128.934 64.165 128.424 64.165C127.914 64.165 127.529 64.355 127.269 64.735C127.019 65.115 126.894 65.63 126.894 66.28ZM133.623 66.28C133.623 65.66 133.728 65.11 133.938 64.63C134.148 64.14 134.428 63.73 134.778 63.4C135.138 63.07 135.543 62.82 135.993 62.65C136.453 62.47 136.928 62.38 137.418 62.38C137.908 62.38 138.378 62.47 138.828 62.65C139.288 62.82 139.693 63.07 140.043 63.4C140.403 63.73 140.688 64.14 140.898 64.63C141.108 65.11 141.213 65.66 141.213 66.28C141.213 66.9 141.108 67.455 140.898 67.945C140.688 68.425 140.403 68.83 140.043 69.16C139.693 69.49 139.288 69.745 138.828 69.925C138.378 70.095 137.908 70.18 137.418 70.18C136.928 70.18 136.453 70.095 135.993 69.925C135.543 69.745 135.138 69.49 134.778 69.16C134.428 68.83 134.148 68.425 133.938 67.945C133.728 67.455 133.623 66.9 133.623 66.28ZM135.888 66.28C135.888 66.93 136.013 67.445 136.263 67.825C136.523 68.205 136.908 68.395 137.418 68.395C137.928 68.395 138.308 68.205 138.558 67.825C138.818 67.445 138.948 66.93 138.948 66.28C138.948 65.63 138.818 65.115 138.558 64.735C138.308 64.355 137.928 64.165 137.418 64.165C136.908 64.165 136.523 64.355 136.263 64.735C136.013 65.115 135.888 65.63 135.888 66.28ZM143.052 59.485H145.257V65.56H145.317L148.047 62.56H150.462L147.642 65.62L150.687 70H148.302L146.352 66.97L145.257 68.125V70H143.052V59.485ZM154.206 61.9L154.131 59.725H156.681L156.606 61.9L156.081 65.455H154.731L154.206 61.9Z" fill="#009E73"/>
<path d="M10.285 107.585V109.76H8.08V99.56H9.88L10.045 100.31H10.09C10.39 100.04 10.735 99.82 11.125 99.65C11.515 99.47 11.91 99.38 12.31 99.38C12.77 99.38 13.185 99.47 13.555 99.65C13.925 99.83 14.24 100.085 14.5 100.415C14.76 100.745 14.955 101.145 15.085 101.615C15.225 102.075 15.295 102.59 15.295 103.16C15.295 103.8 15.205 104.37 15.025 104.87C14.845 105.36 14.605 105.78 14.305 106.13C14.005 106.47 13.66 106.73 13.27 106.91C12.89 107.09 12.49 107.18 12.07 107.18C11.39 107.18 10.77 106.91 10.21 106.37L10.285 107.585ZM10.285 104.885C10.495 105.065 10.71 105.195 10.93 105.275C11.16 105.345 11.37 105.38 11.56 105.38C11.98 105.38 12.33 105.21 12.61 104.87C12.89 104.52 13.03 103.96 13.03 103.19C13.03 101.85 12.575 101.18 11.665 101.18C11.195 101.18 10.735 101.41 10.285 101.87V104.885ZM17.7341 99.56H19.5341L19.7141 101.18H19.7591C20.1291 100.57 20.5741 100.12 21.0941 99.83C21.6141 99.53 22.1741 99.38 22.7741 99.38C23.1041 99.38 23.3691 99.405 23.5691 99.455C23.7791 99.505 23.9941 99.58 24.2141 99.68L23.7641 101.525C23.5341 101.455 23.3241 101.405 23.1341 101.375C22.9541 101.335 22.7241 101.315 22.4441 101.315C21.9841 101.315 21.5291 101.45 21.0791 101.72C20.6391 101.99 20.2591 102.46 19.9391 103.13V107H17.7341V99.56ZM26.1733 99.56H31.3633V107H29.1583V101.285H26.1733V99.56ZM30.1633 98.465C29.7333 98.465 29.3783 98.345 29.0983 98.105C28.8283 97.865 28.6933 97.54 28.6933 97.13C28.6933 96.72 28.8283 96.39 29.0983 96.14C29.3783 95.88 29.7333 95.75 30.1633 95.75C30.5933 95.75 30.9433 95.88 31.2133 96.14C31.4933 96.39 31.6333 96.72 31.6333 97.13C31.6333 97.54 31.4933 97.865 31.2133 98.105C30.9433 98.345 30.5933 98.465 30.1633 98.465ZM35.0624 99.56H36.8624L37.0274 100.55H37.0874C37.4074 100.23 37.7724 99.955 38.1824 99.725C38.6024 99.495 39.0924 99.38 39.6524 99.38C40.4924 99.38 41.1074 99.65 41.4974 100.19C41.8874 100.73 42.0824 101.47 42.0824 102.41V107H39.8774V102.695C39.8774 102.195 39.7974 101.83 39.6374 101.6C39.4774 101.37 39.1924 101.255 38.7824 101.255C38.4824 101.255 38.2174 101.32 37.9874 101.45C37.7674 101.58 37.5274 101.775 37.2674 102.035V107H35.0624V99.56ZM45.5866 101.285H43.7116V99.65L45.6916 99.56L45.9766 97.58H47.7916V99.56H50.9416V101.285H47.7916V103.895C47.7916 104.465 47.9166 104.87 48.1666 105.11C48.4166 105.34 48.8116 105.455 49.3516 105.455C49.6416 105.455 49.9066 105.43 50.1466 105.38C50.3866 105.33 50.6166 105.265 50.8366 105.185L51.2266 106.775C50.8966 106.875 50.5266 106.965 50.1166 107.045C49.7166 107.135 49.2766 107.18 48.7966 107.18C48.2066 107.18 47.7066 107.1 47.2966 106.94C46.8866 106.78 46.5516 106.56 46.2916 106.28C46.0416 105.99 45.8616 105.645 45.7516 105.245C45.6416 104.845 45.5866 104.4 45.5866 103.91V101.285ZM10.285 126.585V128.76H8.08V118.56H9.88L10.045 119.31H10.09C10.39 119.04 10.735 118.82 11.125 118.65C11.515 118.47 11.91 118.38 12.31 118.38C12.77 118.38 13.185 118.47 13.555 118.65C13.925 118.83 14.24 119.085 14.5 119.415C14.76 119.745 14.955 120.145 15.085 120.615C15.225 121.075 15.295 121.59 15.295 122.16C15.295 122.8 15.205 123.37 15.025 123.87C14.845 124.36 14.605 124.78 14.305 125.13C14.005 125.47 13.66 125.73 13.27 125.91C12.89 126.09 12.49 126.18 12.07 126.18C11.39 126.18 10.77 125.91 10.21 125.37L10.285 126.585ZM10.285 123.885C10.495 124.065 10.71 124.195 10.93 124.275C11.16 124.345 11.37 124.38 11.56 124.38C11.98 124.38 12.33 124.21 12.61 123.87C12.89 123.52 13.03 122.96 13.03 122.19C13.03 120.85 12.575 120.18 11.665 120.18C11.195 120.18 10.735 120.41 10.285 120.87V123.885ZM17.7341 118.56H19.5341L19.7141 120.18H19.7591C20.1291 119.57 20.5741 119.12 21.0941 118.83C21.6141 118.53 22.1741 118.38 22.7741 118.38C23.1041 118.38 23.3691 118.405 23.5691 118.455C23.7791 118.505 23.9941 118.58 24.2141 118.68L23.7641 120.525C23.5341 120.455 23.3241 120.405 23.1341 120.375C22.9541 120.335 22.7241 120.315 22.4441 120.315C21.9841 120.315 21.5291 120.45 21.0791 120.72C20.6391 120.99 20.2591 121.46 19.9391 122.13V126H17.7341V118.56ZM26.1733 118.56H31.3633V126H29.1583V120.285H26.1733V118.56ZM30.1633 117.465C29.7333 117.465 29.3783 117.345 29.0983 117.105C28.8283 116.865 28.6933 116.54 28.6933 116.13C28.6933 115.72 28.8283 115.39 29.0983 115.14C29.3783 114.88 29.7333 114.75 30.1633 114.75C30.5933 114.75 30.9433 114.88 31.2133 115.14C31.4933 115.39 31.6333 115.72 31.6333 116.13C31.6333 116.54 31.4933 116.865 31.2133 117.105C30.9433 117.345 30.5933 117.465 30.1633 117.465ZM35.0624 118.56H36.8624L37.0274 119.55H37.0874C37.4074 119.23 37.7724 118.955 38.1824 118.725C38.6024 118.495 39.0924 118.38 39.6524 118.38C40.4924 118.38 41.1074 118.65 41.4974 119.19C41.8874 119.73 42.0824 120.47 42.0824 121.41V126H39.8774V121.695C39.8774 121.195 39.7974 120.83 39.6374 120.6C39.4774 120.37 39.1924 120.255 38.7824 120.255C38.4824 120.255 38.2174 120.32 37.9874 120.45C37.7674 120.58 37.5274 120.775 37.2674 121.035V126H35.0624V118.56ZM45.5866 120.285H43.7116V118.65L45.6916 118.56L45.9766 116.58H47.7916V118.56H50.9416V120.285H47.7916V122.895C47.7916 123.465 47.9166 123.87 48.1666 124.11C48.4166 124.34 48.8116 124.455 49.3516 124.455C49.6416 124.455 49.9066 124.43 50.1466 124.38C50.3866 124.33 50.6166 124.265 50.8366 124.185L51.2266 125.775C50.8966 125.875 50.5266 125.965 50.1166 126.045C49.7166 126.135 49.2766 126.18 48.7966 126.18C48.2066 126.18 47.7066 126.1 47.2966 125.94C46.8866 125.78 46.5516 125.56 46.2916 125.28C46.0416 124.99 45.8616 124.645 45.7516 124.245C45.6416 123.845 45.5866 123.4 45.5866 122.91V120.285Z" fill="#56B4E9"/>
</svg>
