<svg width="219" height="196" viewBox="0 0 219 196" fill="none" xmlns="http://www.w3.org/2000/svg">
<rect width="219" height="196" fill="black"/>
<line y1="111.5" x2="219" y2="111.5" stroke="white"/>
<path d="M11.5004 132.68C10.9204 132.68 10.3854 132.565 9.8954 132.335C9.4154 132.095 9.0004 131.755 8.6504 131.315C8.3104 130.875 8.0454 130.34 7.8554 129.71C7.6654 129.08 7.5704 128.365 7.5704 127.565C7.5704 126.765 7.6654 126.055 7.8554 125.435C8.0454 124.805 8.3104 124.28 8.6504 123.86C9.0004 123.43 9.4154 123.105 9.8954 122.885C10.3854 122.655 10.9204 122.54 11.5004 122.54C12.0804 122.54 12.6104 122.655 13.0904 122.885C13.5804 123.105 13.9954 123.43 14.3354 123.86C14.6854 124.29 14.9554 124.82 15.1454 125.45C15.3354 126.07 15.4304 126.775 15.4304 127.565C15.4304 128.365 15.3354 129.08 15.1454 129.71C14.9554 130.34 14.6854 130.875 14.3354 131.315C13.9954 131.755 13.5804 132.095 13.0904 132.335C12.6104 132.565 12.0804 132.68 11.5004 132.68ZM11.5004 130.775C12.0104 130.775 12.4154 130.49 12.7154 129.92C13.0154 129.34 13.1654 128.555 13.1654 127.565C13.1654 126.585 13.0154 125.82 12.7154 125.27C12.4154 124.72 12.0104 124.445 11.5004 124.445C10.9904 124.445 10.5854 124.72 10.2854 125.27C9.9854 125.82 9.8354 126.585 9.8354 127.565C9.8354 128.555 9.9854 129.34 10.2854 129.92C10.5854 130.49 10.9904 130.775 11.5004 130.775ZM23.8695 132.5H22.0695L21.9045 131.435H21.8445C21.5145 131.815 21.1495 132.12 20.7495 132.35C20.3495 132.57 19.8795 132.68 19.3395 132.68C18.4895 132.68 17.8745 132.41 17.4945 131.87C17.1145 131.33 16.9245 130.59 16.9245 129.65V125.06H19.1295V129.365C19.1295 129.865 19.2045 130.23 19.3545 130.46C19.5045 130.69 19.7895 130.805 20.2095 130.805C20.4895 130.805 20.7345 130.745 20.9445 130.625C21.1645 130.505 21.4045 130.28 21.6645 129.95V125.06H23.8695V132.5ZM27.5987 126.785H25.7237V125.15L27.7037 125.06L27.9887 123.08H29.8037V125.06H32.9537V126.785H29.8037V129.395C29.8037 129.965 29.9287 130.37 30.1787 130.61C30.4287 130.84 30.8237 130.955 31.3637 130.955C31.6537 130.955 31.9187 130.93 32.1587 130.88C32.3987 130.83 32.6287 130.765 32.8487 130.685L33.2387 132.275C32.9087 132.375 32.5387 132.465 32.1287 132.545C31.7287 132.635 31.2887 132.68 30.8087 132.68C30.2187 132.68 29.7187 132.6 29.3087 132.44C28.8987 132.28 28.5637 132.06 28.3037 131.78C28.0537 131.49 27.8737 131.145 27.7637 130.745C27.6537 130.345 27.5987 129.9 27.5987 129.41V126.785ZM37.2678 133.085V135.26H35.0628V125.06H36.8628L37.0278 125.81H37.0728C37.3728 125.54 37.7178 125.32 38.1078 125.15C38.4978 124.97 38.8928 124.88 39.2928 124.88C39.7528 124.88 40.1678 124.97 40.5378 125.15C40.9078 125.33 41.2228 125.585 41.4828 125.915C41.7428 126.245 41.9378 126.645 42.0678 127.115C42.2078 127.575 42.2778 128.09 42.2778 128.66C42.2778 129.3 42.1878 129.87 42.0078 130.37C41.8278 130.86 41.5878 131.28 41.2878 131.63C40.9878 131.97 40.6428 132.23 40.2528 132.41C39.8728 132.59 39.4728 132.68 39.0528 132.68C38.3728 132.68 37.7528 132.41 37.1928 131.87L37.2678 133.085ZM37.2678 130.385C37.4778 130.565 37.6928 130.695 37.9128 130.775C38.1428 130.845 38.3528 130.88 38.5428 130.88C38.9628 130.88 39.3128 130.71 39.5928 130.37C39.8728 130.02 40.0128 129.46 40.0128 128.69C40.0128 127.35 39.5578 126.68 38.6478 126.68C38.1778 126.68 37.7178 126.91 37.2678 127.37V130.385ZM50.852 132.5H49.052L48.887 131.435H48.827C48.497 131.815 48.132 132.12 47.732 132.35C47.332 132.57 46.862 132.68 46.322 132.68C45.472 132.68 44.857 132.41 44.477 131.87C44.097 131.33 43.907 130.59 43.907 129.65V125.06H46.112V129.365C46.112 129.865 46.187 130.23 46.337 130.46C46.487 130.69 46.772 130.805 47.192 130.805C47.472 130.805 47.717 130.745 47.927 130.625C48.147 130.505 48.387 130.28 48.647 129.95V125.06H50.852V132.5ZM54.5811 126.785H52.7061V125.15L54.6861 125.06L54.9711 123.08H56.7861V125.06H59.9361V126.785H56.7861V129.395C56.7861 129.965 56.9111 130.37 57.1611 130.61C57.4111 130.84 57.8061 130.955 58.3461 130.955C58.6361 130.955 58.9011 130.93 59.1411 130.88C59.3811 130.83 59.6111 130.765 59.8311 130.685L60.2211 132.275C59.8911 132.375 59.5211 132.465 59.1111 132.545C58.7111 132.635 58.2711 132.68 57.7911 132.68C57.2011 132.68 56.7011 132.6 56.2911 132.44C55.8811 132.28 55.5461 132.06 55.2861 131.78C55.0361 131.49 54.8561 131.145 54.7461 130.745C54.6361 130.345 54.5811 129.9 54.5811 129.41V126.785Z" fill="white"/>
<path d="M10.39 149.08H7.465V147.22H15.535V149.08H12.61V157H10.39V149.08ZM17.3891 158.08C17.5791 158.14 17.7741 158.17 17.9741 158.17C18.4041 158.17 18.7391 158.08 18.9791 157.9C19.2291 157.72 19.4141 157.485 19.5341 157.195L19.6841 156.805L16.4591 149.56H18.6491L19.8941 152.755C20.0341 153.105 20.1641 153.47 20.2841 153.85C20.4041 154.22 20.5241 154.6 20.6441 154.99H20.7041C20.8041 154.62 20.9141 154.25 21.0341 153.88C21.1541 153.5 21.2691 153.125 21.3791 152.755L22.4741 149.56H24.5591L21.6191 157.075C21.4391 157.545 21.2441 157.955 21.0341 158.305C20.8241 158.665 20.5841 158.96 20.3141 159.19C20.0441 159.43 19.7291 159.61 19.3691 159.73C19.0191 159.85 18.6091 159.91 18.1391 159.91C17.9191 159.91 17.7141 159.895 17.5241 159.865C17.3341 159.845 17.1591 159.81 16.9991 159.76L17.3891 158.08ZM28.2733 157.585V159.76H26.0683V149.56H27.8683L28.0333 150.31H28.0783C28.3783 150.04 28.7233 149.82 29.1133 149.65C29.5033 149.47 29.8983 149.38 30.2983 149.38C30.7583 149.38 31.1733 149.47 31.5433 149.65C31.9133 149.83 32.2283 150.085 32.4883 150.415C32.7483 150.745 32.9433 151.145 33.0733 151.615C33.2133 152.075 33.2833 152.59 33.2833 153.16C33.2833 153.8 33.1933 154.37 33.0133 154.87C32.8333 155.36 32.5933 155.78 32.2933 156.13C31.9933 156.47 31.6483 156.73 31.2583 156.91C30.8783 157.09 30.4783 157.18 30.0583 157.18C29.3783 157.18 28.7583 156.91 28.1983 156.37L28.2733 157.585ZM28.2733 154.885C28.4833 155.065 28.6983 155.195 28.9183 155.275C29.1483 155.345 29.3583 155.38 29.5483 155.38C29.9683 155.38 30.3183 155.21 30.5983 154.87C30.8783 154.52 31.0183 153.96 31.0183 153.19C31.0183 151.85 30.5633 151.18 29.6533 151.18C29.1833 151.18 28.7233 151.41 28.2733 151.87V154.885ZM34.8074 153.28C34.8074 152.67 34.9124 152.125 35.1224 151.645C35.3424 151.165 35.6324 150.76 35.9924 150.43C36.3524 150.09 36.7624 149.83 37.2224 149.65C37.6924 149.47 38.1774 149.38 38.6774 149.38C39.2474 149.38 39.7524 149.47 40.1924 149.65C40.6324 149.83 40.9974 150.08 41.2874 150.4C41.5774 150.72 41.7974 151.1 41.9474 151.54C42.0974 151.97 42.1724 152.44 42.1724 152.95C42.1724 153.15 42.1624 153.34 42.1424 153.52C42.1224 153.7 42.1024 153.835 42.0824 153.925H37.0724C37.1524 154.485 37.3924 154.89 37.7924 155.14C38.2024 155.38 38.6824 155.5 39.2324 155.5C39.5724 155.5 39.8924 155.46 40.1924 155.38C40.5024 155.29 40.8224 155.16 41.1524 154.99L41.8724 156.31C41.4524 156.58 40.9824 156.795 40.4624 156.955C39.9424 157.105 39.4324 157.18 38.9324 157.18C38.3524 157.18 37.8124 157.095 37.3124 156.925C36.8124 156.745 36.3774 156.49 36.0074 156.16C35.6374 155.82 35.3424 155.41 35.1224 154.93C34.9124 154.45 34.8074 153.9 34.8074 153.28ZM40.1774 152.47C40.1774 152.05 40.0624 151.71 39.8324 151.45C39.6024 151.19 39.2324 151.06 38.7224 151.06C38.3224 151.06 37.9674 151.175 37.6574 151.405C37.3474 151.635 37.1424 151.99 37.0424 152.47H40.1774ZM44.3866 147.22H50.8366V149.08H46.5916V151.045H50.1916V152.89H46.5916V155.14H50.9866V157H44.3866V147.22ZM53.7107 149.56H55.5107L55.6907 151.18H55.7357C56.1057 150.57 56.5507 150.12 57.0707 149.83C57.5907 149.53 58.1507 149.38 58.7507 149.38C59.0807 149.38 59.3457 149.405 59.5457 149.455C59.7557 149.505 59.9707 149.58 60.1907 149.68L59.7407 151.525C59.5107 151.455 59.3007 151.405 59.1107 151.375C58.9307 151.335 58.7007 151.315 58.4207 151.315C57.9607 151.315 57.5057 151.45 57.0557 151.72C56.6157 151.99 56.2357 152.46 55.9157 153.13V157H53.7107V149.56ZM62.7048 149.56H64.5048L64.6848 151.18H64.7298C65.0998 150.57 65.5448 150.12 66.0648 149.83C66.5848 149.53 67.1448 149.38 67.7448 149.38C68.0748 149.38 68.3398 149.405 68.5398 149.455C68.7498 149.505 68.9648 149.58 69.1848 149.68L68.7348 151.525C68.5048 151.455 68.2948 151.405 68.1048 151.375C67.9248 151.335 67.6948 151.315 67.4148 151.315C66.9548 151.315 66.4998 151.45 66.0498 151.72C65.6098 151.99 65.2298 152.46 64.9098 153.13V157H62.7048V149.56ZM70.664 153.28C70.664 152.66 70.769 152.11 70.979 151.63C71.189 151.14 71.469 150.73 71.819 150.4C72.179 150.07 72.584 149.82 73.034 149.65C73.494 149.47 73.969 149.38 74.459 149.38C74.949 149.38 75.419 149.47 75.869 149.65C76.329 149.82 76.734 150.07 77.084 150.4C77.444 150.73 77.729 151.14 77.939 151.63C78.149 152.11 78.254 152.66 78.254 153.28C78.254 153.9 78.149 154.455 77.939 154.945C77.729 155.425 77.444 155.83 77.084 156.16C76.734 156.49 76.329 156.745 75.869 156.925C75.419 157.095 74.949 157.18 74.459 157.18C73.969 157.18 73.494 157.095 73.034 156.925C72.584 156.745 72.179 156.49 71.819 156.16C71.469 155.83 71.189 155.425 70.979 154.945C70.769 154.455 70.664 153.9 70.664 153.28ZM72.929 153.28C72.929 153.93 73.054 154.445 73.304 154.825C73.564 155.205 73.949 155.395 74.459 155.395C74.969 155.395 75.349 155.205 75.599 154.825C75.859 154.445 75.989 153.93 75.989 153.28C75.989 152.63 75.859 152.115 75.599 151.735C75.349 151.355 74.969 151.165 74.459 151.165C73.949 151.165 73.564 151.355 73.304 151.735C73.054 152.115 72.929 152.63 72.929 153.28ZM80.6931 149.56H82.4931L82.6731 151.18H82.7181C83.0881 150.57 83.5331 150.12 84.0531 149.83C84.5731 149.53 85.1331 149.38 85.7331 149.38C86.0631 149.38 86.3281 149.405 86.5281 149.455C86.7381 149.505 86.9531 149.58 87.1731 149.68L86.7231 151.525C86.4931 151.455 86.2831 151.405 86.0931 151.375C85.9131 151.335 85.6831 151.315 85.4031 151.315C84.9431 151.315 84.4881 151.45 84.0381 151.72C83.5981 151.99 83.2181 152.46 82.8981 153.13V157H80.6931V149.56ZM90.7073 150.58C90.7073 150.33 90.7473 150.1 90.8273 149.89C90.9173 149.67 91.0373 149.48 91.1873 149.32C91.3373 149.16 91.5173 149.035 91.7273 148.945C91.9473 148.855 92.1873 148.81 92.4473 148.81C92.7073 148.81 92.9423 148.855 93.1523 148.945C93.3723 149.035 93.5573 149.16 93.7073 149.32C93.8573 149.48 93.9723 149.67 94.0523 149.89C94.1423 150.1 94.1873 150.33 94.1873 150.58C94.1873 151.08 94.0273 151.5 93.7073 151.84C93.3873 152.17 92.9673 152.335 92.4473 152.335C91.9273 152.335 91.5073 152.17 91.1873 151.84C90.8673 151.5 90.7073 151.08 90.7073 150.58ZM90.7073 155.425C90.7073 155.175 90.7473 154.945 90.8273 154.735C90.9173 154.515 91.0373 154.325 91.1873 154.165C91.3373 154.005 91.5173 153.88 91.7273 153.79C91.9473 153.7 92.1873 153.655 92.4473 153.655C92.7073 153.655 92.9423 153.7 93.1523 153.79C93.3723 153.88 93.5573 154.005 93.7073 154.165C93.8573 154.325 93.9723 154.515 94.0523 154.735C94.1423 154.945 94.1873 155.175 94.1873 155.425C94.1873 155.925 94.0273 156.345 93.7073 156.685C93.3873 157.015 92.9673 157.18 92.4473 157.18C91.9273 157.18 91.5073 157.015 91.1873 156.685C90.8673 156.345 90.7073 155.925 90.7073 155.425ZM109.236 148.9L109.161 146.725H111.711L111.636 148.9L111.111 152.455H109.761L109.236 148.9ZM116.115 149.56H121.305V157H119.1V151.285H116.115V149.56ZM120.105 148.465C119.675 148.465 119.32 148.345 119.04 148.105C118.77 147.865 118.635 147.54 118.635 147.13C118.635 146.72 118.77 146.39 119.04 146.14C119.32 145.88 119.675 145.75 120.105 145.75C120.535 145.75 120.885 145.88 121.155 146.14C121.435 146.39 121.575 146.72 121.575 147.13C121.575 147.54 121.435 147.865 121.155 148.105C120.885 148.345 120.535 148.465 120.105 148.465ZM125.004 149.56H126.804L126.969 150.55H127.029C127.349 150.23 127.714 149.955 128.124 149.725C128.544 149.495 129.034 149.38 129.594 149.38C130.434 149.38 131.049 149.65 131.439 150.19C131.829 150.73 132.024 151.47 132.024 152.41V157H129.819V152.695C129.819 152.195 129.739 151.83 129.579 151.6C129.419 151.37 129.134 151.255 128.724 151.255C128.424 151.255 128.159 151.32 127.929 151.45C127.709 151.58 127.469 151.775 127.209 152.035V157H125.004V149.56ZM135.528 151.285H133.653V149.65L135.633 149.56L135.918 147.58H137.733V149.56H140.883V151.285H137.733V153.895C137.733 154.465 137.858 154.87 138.108 155.11C138.358 155.34 138.753 155.455 139.293 155.455C139.583 155.455 139.848 155.43 140.088 155.38C140.328 155.33 140.558 155.265 140.778 155.185L141.168 156.775C140.838 156.875 140.468 156.965 140.058 157.045C139.658 157.135 139.218 157.18 138.738 157.18C138.148 157.18 137.648 157.1 137.238 156.94C136.828 156.78 136.493 156.56 136.233 156.28C135.983 155.99 135.803 155.645 135.693 155.245C135.583 154.845 135.528 154.4 135.528 153.91V151.285ZM145.212 148.9L145.137 146.725H147.687L147.612 148.9L147.087 152.455H145.737L145.212 148.9ZM160.605 153.28C160.605 152.66 160.71 152.11 160.92 151.63C161.13 151.14 161.41 150.73 161.76 150.4C162.12 150.07 162.525 149.82 162.975 149.65C163.435 149.47 163.91 149.38 164.4 149.38C164.89 149.38 165.36 149.47 165.81 149.65C166.27 149.82 166.675 150.07 167.025 150.4C167.385 150.73 167.67 151.14 167.88 151.63C168.09 152.11 168.195 152.66 168.195 153.28C168.195 153.9 168.09 154.455 167.88 154.945C167.67 155.425 167.385 155.83 167.025 156.16C166.675 156.49 166.27 156.745 165.81 156.925C165.36 157.095 164.89 157.18 164.4 157.18C163.91 157.18 163.435 157.095 162.975 156.925C162.525 156.745 162.12 156.49 161.76 156.16C161.41 155.83 161.13 155.425 160.92 154.945C160.71 154.455 160.605 153.9 160.605 153.28ZM162.87 153.28C162.87 153.93 162.995 154.445 163.245 154.825C163.505 155.205 163.89 155.395 164.4 155.395C164.91 155.395 165.29 155.205 165.54 154.825C165.8 154.445 165.93 153.93 165.93 153.28C165.93 152.63 165.8 152.115 165.54 151.735C165.29 151.355 164.91 151.165 164.4 151.165C163.89 151.165 163.505 151.355 163.245 151.735C162.995 152.115 162.87 152.63 162.87 153.28ZM169.975 146.485H172.18V149.065L172.12 150.235C172.41 149.965 172.735 149.755 173.095 149.605C173.465 149.455 173.83 149.38 174.19 149.38C174.65 149.38 175.065 149.47 175.435 149.65C175.815 149.83 176.13 150.085 176.38 150.415C176.64 150.735 176.84 151.13 176.98 151.6C177.12 152.06 177.19 152.575 177.19 153.145C177.19 153.785 177.1 154.355 176.92 154.855C176.74 155.355 176.5 155.78 176.2 156.13C175.9 156.47 175.555 156.73 175.165 156.91C174.785 157.09 174.385 157.18 173.965 157.18C173.615 157.18 173.265 157.095 172.915 156.925C172.575 156.755 172.25 156.51 171.94 156.19H171.88L171.7 157H169.975V146.485ZM172.18 154.885C172.39 155.065 172.605 155.195 172.825 155.275C173.055 155.345 173.27 155.38 173.47 155.38C173.88 155.38 174.225 155.21 174.505 154.87C174.785 154.52 174.925 153.96 174.925 153.19C174.925 151.85 174.47 151.18 173.56 151.18C173.09 151.18 172.63 151.41 172.18 151.87V154.885ZM179.074 149.56H184.264V156.55C184.264 157 184.209 157.43 184.099 157.84C183.999 158.25 183.814 158.61 183.544 158.92C183.284 159.23 182.929 159.475 182.479 159.655C182.039 159.845 181.484 159.94 180.814 159.94C180.354 159.94 179.934 159.89 179.554 159.79C179.184 159.7 178.839 159.58 178.519 159.43L179.164 157.855C179.464 157.995 179.734 158.09 179.974 158.14C180.224 158.19 180.459 158.215 180.679 158.215C181.209 158.215 181.569 158.085 181.759 157.825C181.959 157.575 182.059 157.18 182.059 156.64V151.285H179.074V149.56ZM183.064 148.465C182.634 148.465 182.279 148.345 181.999 148.105C181.729 147.865 181.594 147.54 181.594 147.13C181.594 146.72 181.729 146.39 181.999 146.14C182.279 145.88 182.634 145.75 183.064 145.75C183.494 145.75 183.844 145.88 184.114 146.14C184.394 146.39 184.534 146.72 184.534 147.13C184.534 147.54 184.394 147.865 184.114 148.105C183.844 148.345 183.494 148.465 183.064 148.465ZM187.708 153.28C187.708 152.67 187.813 152.125 188.023 151.645C188.243 151.165 188.533 150.76 188.893 150.43C189.253 150.09 189.663 149.83 190.123 149.65C190.593 149.47 191.078 149.38 191.578 149.38C192.148 149.38 192.653 149.47 193.093 149.65C193.533 149.83 193.898 150.08 194.188 150.4C194.478 150.72 194.698 151.1 194.848 151.54C194.998 151.97 195.073 152.44 195.073 152.95C195.073 153.15 195.063 153.34 195.043 153.52C195.023 153.7 195.003 153.835 194.983 153.925H189.973C190.053 154.485 190.293 154.89 190.693 155.14C191.103 155.38 191.583 155.5 192.133 155.5C192.473 155.5 192.793 155.46 193.093 155.38C193.403 155.29 193.723 155.16 194.053 154.99L194.773 156.31C194.353 156.58 193.883 156.795 193.363 156.955C192.843 157.105 192.333 157.18 191.833 157.18C191.253 157.18 190.713 157.095 190.213 156.925C189.713 156.745 189.278 156.49 188.908 156.16C188.538 155.82 188.243 155.41 188.023 154.93C187.813 154.45 187.708 153.9 187.708 153.28ZM193.078 152.47C193.078 152.05 192.963 151.71 192.733 151.45C192.503 151.19 192.133 151.06 191.623 151.06C191.223 151.06 190.868 151.175 190.558 151.405C190.248 151.635 190.043 151.99 189.943 152.47H193.078ZM196.882 153.28C196.882 152.66 196.997 152.11 197.227 151.63C197.467 151.14 197.782 150.73 198.172 150.4C198.572 150.07 199.032 149.82 199.552 149.65C200.072 149.47 200.617 149.38 201.187 149.38C201.777 149.38 202.307 149.475 202.777 149.665C203.257 149.855 203.657 150.095 203.977 150.385L202.957 151.75C202.407 151.36 201.857 151.165 201.307 151.165C200.667 151.165 200.147 151.355 199.747 151.735C199.347 152.115 199.147 152.63 199.147 153.28C199.147 153.93 199.337 154.445 199.717 154.825C200.107 155.205 200.612 155.395 201.232 155.395C201.622 155.395 201.982 155.325 202.312 155.185C202.642 155.045 202.937 154.88 203.197 154.69L204.097 156.085C203.647 156.465 203.147 156.745 202.597 156.925C202.057 157.095 201.532 157.18 201.022 157.18C200.432 157.18 199.887 157.095 199.387 156.925C198.887 156.745 198.447 156.49 198.067 156.16C197.697 155.83 197.407 155.425 197.197 154.945C196.987 154.455 196.882 153.9 196.882 153.28ZM207.481 151.285H205.606V149.65L207.586 149.56L207.871 147.58H209.686V149.56H212.836V151.285H209.686V153.895C209.686 154.465 209.811 154.87 210.061 155.11C210.311 155.34 210.706 155.455 211.246 155.455C211.536 155.455 211.801 155.43 212.041 155.38C212.281 155.33 212.511 155.265 212.731 155.185L213.121 156.775C212.791 156.875 212.421 156.965 212.011 157.045C211.611 157.135 211.171 157.18 210.691 157.18C210.101 157.18 209.601 157.1 209.191 156.94C208.781 156.78 208.446 156.56 208.186 156.28C207.936 155.99 207.756 155.645 207.646 155.245C207.536 154.845 207.481 154.4 207.481 153.91V151.285ZM8.185 168.56H13.375V176H11.17V170.285H8.185V168.56ZM12.175 167.465C11.745 167.465 11.39 167.345 11.11 167.105C10.84 166.865 10.705 166.54 10.705 166.13C10.705 165.72 10.84 165.39 11.11 165.14C11.39 164.88 11.745 164.75 12.175 164.75C12.605 164.75 12.955 164.88 13.225 165.14C13.505 165.39 13.645 165.72 13.645 166.13C13.645 166.54 13.505 166.865 13.225 167.105C12.955 167.345 12.605 167.465 12.175 167.465ZM17.7791 173.66C18.2091 173.93 18.6391 174.145 19.0691 174.305C19.5091 174.465 19.9791 174.545 20.4791 174.545C20.9891 174.545 21.3541 174.49 21.5741 174.38C21.7941 174.27 21.9041 174.115 21.9041 173.915C21.9041 173.685 21.7191 173.5 21.3491 173.36C20.9891 173.21 20.5091 173.05 19.9091 172.88C19.5791 172.79 19.2541 172.685 18.9341 172.565C18.6241 172.435 18.3441 172.285 18.0941 172.115C17.8441 171.935 17.6391 171.73 17.4791 171.5C17.3291 171.27 17.2541 171.005 17.2541 170.705C17.2541 170.365 17.3341 170.05 17.4941 169.76C17.6541 169.47 17.8791 169.225 18.1691 169.025C18.4691 168.825 18.8291 168.67 19.2491 168.56C19.6791 168.44 20.1591 168.38 20.6891 168.38C21.3491 168.38 21.9491 168.49 22.4891 168.71C23.0391 168.92 23.5091 169.15 23.8991 169.4L22.9091 170.72C22.5691 170.52 22.2191 170.355 21.8591 170.225C21.4991 170.085 21.1241 170.015 20.7341 170.015C20.2641 170.015 19.9291 170.065 19.7291 170.165C19.5391 170.265 19.4441 170.41 19.4441 170.6C19.4441 170.71 19.4941 170.81 19.5941 170.9C19.6941 170.99 19.8291 171.07 19.9991 171.14C20.1691 171.21 20.3691 171.28 20.5991 171.35C20.8391 171.41 21.0891 171.475 21.3491 171.545C21.7191 171.645 22.0691 171.76 22.3991 171.89C22.7291 172.01 23.0191 172.155 23.2691 172.325C23.5191 172.495 23.7191 172.7 23.8691 172.94C24.0191 173.18 24.0941 173.46 24.0941 173.78C24.0941 174.12 24.0141 174.435 23.8541 174.725C23.6941 175.015 23.4591 175.27 23.1491 175.49C22.8491 175.7 22.4691 175.87 22.0091 176C21.5591 176.12 21.0341 176.18 20.4341 176.18C19.7641 176.18 19.1091 176.07 18.4691 175.85C17.8291 175.63 17.2691 175.36 16.7891 175.04L17.7791 173.66ZM35.0624 168.56H36.8624L37.0274 169.55H37.0874C37.4074 169.23 37.7724 168.955 38.1824 168.725C38.6024 168.495 39.0924 168.38 39.6524 168.38C40.4924 168.38 41.1074 168.65 41.4974 169.19C41.8874 169.73 42.0824 170.47 42.0824 171.41V176H39.8774V171.695C39.8774 171.195 39.7974 170.83 39.6374 170.6C39.4774 170.37 39.1924 170.255 38.7824 170.255C38.4824 170.255 38.2174 170.32 37.9874 170.45C37.7674 170.58 37.5274 170.775 37.2674 171.035V176H35.0624V168.56ZM43.6816 172.28C43.6816 171.66 43.7866 171.11 43.9966 170.63C44.2066 170.14 44.4866 169.73 44.8366 169.4C45.1966 169.07 45.6016 168.82 46.0516 168.65C46.5116 168.47 46.9866 168.38 47.4766 168.38C47.9666 168.38 48.4366 168.47 48.8866 168.65C49.3466 168.82 49.7516 169.07 50.1016 169.4C50.4616 169.73 50.7466 170.14 50.9566 170.63C51.1666 171.11 51.2716 171.66 51.2716 172.28C51.2716 172.9 51.1666 173.455 50.9566 173.945C50.7466 174.425 50.4616 174.83 50.1016 175.16C49.7516 175.49 49.3466 175.745 48.8866 175.925C48.4366 176.095 47.9666 176.18 47.4766 176.18C46.9866 176.18 46.5116 176.095 46.0516 175.925C45.6016 175.745 45.1966 175.49 44.8366 175.16C44.4866 174.83 44.2066 174.425 43.9966 173.945C43.7866 173.455 43.6816 172.9 43.6816 172.28ZM45.9466 172.28C45.9466 172.93 46.0716 173.445 46.3216 173.825C46.5816 174.205 46.9666 174.395 47.4766 174.395C47.9866 174.395 48.3666 174.205 48.6166 173.825C48.8766 173.445 49.0066 172.93 49.0066 172.28C49.0066 171.63 48.8766 171.115 48.6166 170.735C48.3666 170.355 47.9866 170.165 47.4766 170.165C46.9666 170.165 46.5816 170.355 46.3216 170.735C46.0716 171.115 45.9466 171.63 45.9466 172.28ZM54.5807 170.285H52.7057V168.65L54.6857 168.56L54.9707 166.58H56.7857V168.56H59.9357V170.285H56.7857V172.895C56.7857 173.465 56.9107 173.87 57.1607 174.11C57.4107 174.34 57.8057 174.455 58.3457 174.455C58.6357 174.455 58.9007 174.43 59.1407 174.38C59.3807 174.33 59.6107 174.265 59.8307 174.185L60.2207 175.775C59.8907 175.875 59.5207 175.965 59.1107 176.045C58.7107 176.135 58.2707 176.18 57.7907 176.18C57.2007 176.18 56.7007 176.1 56.2907 175.94C55.8807 175.78 55.5457 175.56 55.2857 175.28C55.0357 174.99 54.8557 174.645 54.7457 174.245C54.6357 173.845 54.5807 173.4 54.5807 172.91V170.285ZM70.964 172.28C70.964 171.66 71.079 171.11 71.309 170.63C71.549 170.14 71.864 169.73 72.254 169.4C72.654 169.07 73.114 168.82 73.634 168.65C74.154 168.47 74.699 168.38 75.269 168.38C75.859 168.38 76.389 168.475 76.859 168.665C77.339 168.855 77.739 169.095 78.059 169.385L77.039 170.75C76.489 170.36 75.939 170.165 75.389 170.165C74.749 170.165 74.229 170.355 73.829 170.735C73.429 171.115 73.229 171.63 73.229 172.28C73.229 172.93 73.419 173.445 73.799 173.825C74.189 174.205 74.694 174.395 75.314 174.395C75.704 174.395 76.064 174.325 76.394 174.185C76.724 174.045 77.019 173.88 77.279 173.69L78.179 175.085C77.729 175.465 77.229 175.745 76.679 175.925C76.139 176.095 75.614 176.18 75.104 176.18C74.514 176.18 73.969 176.095 73.469 175.925C72.969 175.745 72.529 175.49 72.149 175.16C71.779 174.83 71.489 174.425 71.279 173.945C71.069 173.455 70.964 172.9 70.964 172.28ZM79.8681 173.93C79.8681 173.51 79.9581 173.145 80.1381 172.835C80.3181 172.515 80.6031 172.245 80.9931 172.025C81.3931 171.805 81.9031 171.63 82.5231 171.5C83.1431 171.36 83.8931 171.265 84.7731 171.215C84.7331 170.875 84.5831 170.61 84.3231 170.42C84.0731 170.23 83.6931 170.135 83.1831 170.135C82.8231 170.135 82.4581 170.2 82.0881 170.33C81.7281 170.45 81.3381 170.615 80.9181 170.825L80.1381 169.385C80.6481 169.095 81.1931 168.855 81.7731 168.665C82.3631 168.475 82.9781 168.38 83.6181 168.38C84.6581 168.38 85.4781 168.655 86.0781 169.205C86.6781 169.755 86.9781 170.6 86.9781 171.74V176H85.1781L85.0131 175.16H84.9531C84.5731 175.45 84.1581 175.695 83.7081 175.895C83.2581 176.085 82.7931 176.18 82.3131 176.18C81.9331 176.18 81.5931 176.12 81.2931 176C80.9931 175.89 80.7381 175.735 80.5281 175.535C80.3181 175.325 80.1531 175.085 80.0331 174.815C79.9231 174.545 79.8681 174.25 79.8681 173.93ZM81.9831 173.765C81.9831 174.005 82.0731 174.185 82.2531 174.305C82.4431 174.415 82.6981 174.47 83.0181 174.47C83.3481 174.47 83.6581 174.405 83.9481 174.275C84.2381 174.135 84.5131 173.965 84.7731 173.765V172.535C84.2231 172.565 83.7681 172.615 83.4081 172.685C83.0481 172.755 82.7631 172.845 82.5531 172.955C82.3431 173.055 82.1931 173.175 82.1031 173.315C82.0231 173.455 81.9831 173.605 81.9831 173.765ZM88.8773 165.485H93.2423V173.18C93.2423 173.41 93.2723 173.605 93.3323 173.765C93.4023 173.915 93.4923 174.04 93.6023 174.14C93.7223 174.23 93.8523 174.295 93.9923 174.335C94.1423 174.375 94.2923 174.395 94.4423 174.395C94.6123 174.395 94.7923 174.38 94.9823 174.35C95.1723 174.31 95.3823 174.245 95.6123 174.155L96.1073 175.775C95.9073 175.835 95.7223 175.89 95.5523 175.94C95.3823 175.99 95.2123 176.03 95.0423 176.06C94.8723 176.1 94.6923 176.13 94.5023 176.15C94.3123 176.17 94.1023 176.18 93.8723 176.18C92.9323 176.18 92.2223 175.905 91.7423 175.355C91.2723 174.795 91.0373 174.04 91.0373 173.09V167.225H88.8773V165.485ZM97.8714 165.485H102.236V173.18C102.236 173.41 102.266 173.605 102.326 173.765C102.396 173.915 102.486 174.04 102.596 174.14C102.716 174.23 102.846 174.295 102.986 174.335C103.136 174.375 103.286 174.395 103.436 174.395C103.606 174.395 103.786 174.38 103.976 174.35C104.166 174.31 104.376 174.245 104.606 174.155L105.101 175.775C104.901 175.835 104.716 175.89 104.546 175.94C104.376 175.99 104.206 176.03 104.036 176.06C103.866 176.1 103.686 176.13 103.496 176.15C103.306 176.17 103.096 176.18 102.866 176.18C101.926 176.18 101.216 175.905 100.736 175.355C100.266 174.795 100.031 174.04 100.031 173.09V167.225H97.8714V165.485ZM106.851 173.93C106.851 173.51 106.941 173.145 107.121 172.835C107.301 172.515 107.586 172.245 107.976 172.025C108.376 171.805 108.886 171.63 109.506 171.5C110.126 171.36 110.876 171.265 111.756 171.215C111.716 170.875 111.566 170.61 111.306 170.42C111.056 170.23 110.676 170.135 110.166 170.135C109.806 170.135 109.441 170.2 109.071 170.33C108.711 170.45 108.321 170.615 107.901 170.825L107.121 169.385C107.631 169.095 108.176 168.855 108.756 168.665C109.346 168.475 109.961 168.38 110.601 168.38C111.641 168.38 112.461 168.655 113.061 169.205C113.661 169.755 113.961 170.6 113.961 171.74V176H112.161L111.996 175.16H111.936C111.556 175.45 111.141 175.695 110.691 175.895C110.241 176.085 109.776 176.18 109.296 176.18C108.916 176.18 108.576 176.12 108.276 176C107.976 175.89 107.721 175.735 107.511 175.535C107.301 175.325 107.136 175.085 107.016 174.815C106.906 174.545 106.851 174.25 106.851 173.93ZM108.966 173.765C108.966 174.005 109.056 174.185 109.236 174.305C109.426 174.415 109.681 174.47 110.001 174.47C110.331 174.47 110.641 174.405 110.931 174.275C111.221 174.135 111.496 173.965 111.756 173.765V172.535C111.206 172.565 110.751 172.615 110.391 172.685C110.031 172.755 109.746 172.845 109.536 172.955C109.326 173.055 109.176 173.175 109.086 173.315C109.006 173.455 108.966 173.605 108.966 173.765ZM116.01 165.485H118.215V168.065L118.155 169.235C118.445 168.965 118.77 168.755 119.13 168.605C119.5 168.455 119.865 168.38 120.225 168.38C120.685 168.38 121.1 168.47 121.47 168.65C121.85 168.83 122.165 169.085 122.415 169.415C122.675 169.735 122.875 170.13 123.015 170.6C123.155 171.06 123.225 171.575 123.225 172.145C123.225 172.785 123.135 173.355 122.955 173.855C122.775 174.355 122.535 174.78 122.235 175.13C121.935 175.47 121.59 175.73 121.2 175.91C120.82 176.09 120.42 176.18 120 176.18C119.65 176.18 119.3 176.095 118.95 175.925C118.61 175.755 118.285 175.51 117.975 175.19H117.915L117.735 176H116.01V165.485ZM118.215 173.885C118.425 174.065 118.64 174.195 118.86 174.275C119.09 174.345 119.305 174.38 119.505 174.38C119.915 174.38 120.26 174.21 120.54 173.87C120.82 173.52 120.96 172.96 120.96 172.19C120.96 170.85 120.505 170.18 119.595 170.18C119.125 170.18 118.665 170.41 118.215 170.87V173.885ZM124.854 165.485H129.219V173.18C129.219 173.41 129.249 173.605 129.309 173.765C129.379 173.915 129.469 174.04 129.579 174.14C129.699 174.23 129.829 174.295 129.969 174.335C130.119 174.375 130.269 174.395 130.419 174.395C130.589 174.395 130.769 174.38 130.959 174.35C131.149 174.31 131.359 174.245 131.589 174.155L132.084 175.775C131.884 175.835 131.699 175.89 131.529 175.94C131.359 175.99 131.189 176.03 131.019 176.06C130.849 176.1 130.669 176.13 130.479 176.15C130.289 176.17 130.079 176.18 129.849 176.18C128.909 176.18 128.199 175.905 127.719 175.355C127.249 174.795 127.014 174.04 127.014 173.09V167.225H124.854V165.485ZM133.743 172.28C133.743 171.67 133.848 171.125 134.058 170.645C134.278 170.165 134.568 169.76 134.928 169.43C135.288 169.09 135.698 168.83 136.158 168.65C136.628 168.47 137.113 168.38 137.613 168.38C138.183 168.38 138.688 168.47 139.128 168.65C139.568 168.83 139.933 169.08 140.223 169.4C140.513 169.72 140.733 170.1 140.883 170.54C141.033 170.97 141.108 171.44 141.108 171.95C141.108 172.15 141.098 172.34 141.078 172.52C141.058 172.7 141.038 172.835 141.018 172.925H136.008C136.088 173.485 136.328 173.89 136.728 174.14C137.138 174.38 137.618 174.5 138.168 174.5C138.508 174.5 138.828 174.46 139.128 174.38C139.438 174.29 139.758 174.16 140.088 173.99L140.808 175.31C140.388 175.58 139.918 175.795 139.398 175.955C138.878 176.105 138.368 176.18 137.868 176.18C137.288 176.18 136.748 176.095 136.248 175.925C135.748 175.745 135.313 175.49 134.943 175.16C134.573 174.82 134.278 174.41 134.058 173.93C133.848 173.45 133.743 172.9 133.743 172.28ZM139.113 171.47C139.113 171.05 138.998 170.71 138.768 170.45C138.538 170.19 138.168 170.06 137.658 170.06C137.258 170.06 136.903 170.175 136.593 170.405C136.283 170.635 136.078 170.99 135.978 171.47H139.113Z" fill="#D55E00"/>
<rect x="79" width="140" height="31" fill="#333333"/>
<rect x="79" width="140" height="31" fill="#333333"/>
<rect width="79" height="31" fill="#090808"/>
<path d="M12.105 17.8101C12.105 17.5513 11.9756 17.3486 11.7168 17.2021C11.4629 17.0508 11.0527 16.9165 10.4863 16.7993C8.60156 16.4038 7.65918 15.603 7.65918 14.397C7.65918 13.6938 7.94971 13.1079 8.53076 12.6392C9.1167 12.1655 9.88086 11.9287 10.8232 11.9287C11.8291 11.9287 12.6323 12.1655 13.2329 12.6392C13.8384 13.1128 14.1411 13.728 14.1411 14.4849H12.0244C12.0244 14.1821 11.9268 13.9331 11.7314 13.7378C11.5361 13.5376 11.231 13.4375 10.8159 13.4375C10.4595 13.4375 10.1836 13.5181 9.98828 13.6792C9.79297 13.8403 9.69531 14.0454 9.69531 14.2944C9.69531 14.5288 9.80518 14.7192 10.0249 14.8657C10.2495 15.0073 10.6255 15.1318 11.1528 15.2393C11.6802 15.3418 12.1245 15.459 12.4858 15.5908C13.604 16.001 14.1631 16.7114 14.1631 17.7222C14.1631 18.4448 13.853 19.0308 13.2329 19.48C12.6128 19.9243 11.812 20.1465 10.8306 20.1465C10.1665 20.1465 9.57568 20.0293 9.05811 19.7949C8.54541 19.5557 8.14258 19.231 7.84961 18.8208C7.55664 18.4058 7.41016 17.959 7.41016 17.4805H9.41699C9.43652 17.8564 9.57568 18.1445 9.83447 18.3447C10.0933 18.5449 10.4399 18.645 10.8745 18.645C11.2798 18.645 11.585 18.5693 11.79 18.418C12 18.2617 12.105 18.0591 12.105 17.8101ZM18.8286 18.4399C19.2192 18.4399 19.5366 18.3325 19.7808 18.1177C20.0249 17.9028 20.1519 17.6172 20.1616 17.2607H22.1465C22.1416 17.7979 21.9951 18.291 21.707 18.7402C21.4189 19.1846 21.0234 19.5312 20.5205 19.7803C20.0225 20.0244 19.4707 20.1465 18.8652 20.1465C17.7324 20.1465 16.8389 19.7876 16.1846 19.0698C15.5303 18.3472 15.2031 17.3511 15.2031 16.0815V15.9424C15.2031 14.7217 15.5278 13.7476 16.1772 13.02C16.8267 12.2925 17.7178 11.9287 18.8506 11.9287C19.8418 11.9287 20.6353 12.2119 21.231 12.7783C21.8315 13.3398 22.1367 14.0894 22.1465 15.0269H20.1616C20.1519 14.6167 20.0249 14.2847 19.7808 14.0308C19.5366 13.772 19.2144 13.6426 18.814 13.6426C18.3208 13.6426 17.9473 13.8232 17.6934 14.1846C17.4443 14.541 17.3198 15.1221 17.3198 15.9277V16.1475C17.3198 16.9629 17.4443 17.5488 17.6934 17.9053C17.9424 18.2617 18.3208 18.4399 18.8286 18.4399ZM27.8081 14.0601C27.52 14.021 27.2661 14.0015 27.0464 14.0015C26.2456 14.0015 25.7207 14.2725 25.4717 14.8145V20H23.355V12.0752H25.3545L25.4131 13.02C25.8379 12.2925 26.4263 11.9287 27.1782 11.9287C27.4126 11.9287 27.6323 11.9604 27.8374 12.0239L27.8081 14.0601ZM31.0674 20H28.9434V12.0752H31.0674V20ZM28.8188 10.0244C28.8188 9.70703 28.9238 9.4458 29.1338 9.24072C29.3486 9.03564 29.6392 8.93311 30.0054 8.93311C30.3667 8.93311 30.6548 9.03564 30.8696 9.24072C31.0845 9.4458 31.1919 9.70703 31.1919 10.0244C31.1919 10.3467 31.082 10.6104 30.8623 10.8154C30.6475 11.0205 30.3618 11.123 30.0054 11.123C29.6489 11.123 29.3608 11.0205 29.1411 10.8154C28.9263 10.6104 28.8188 10.3467 28.8188 10.0244ZM39.9517 16.1108C39.9517 17.3315 39.6733 18.3105 39.1167 19.0479C38.5649 19.7803 37.8179 20.1465 36.8755 20.1465C36.0747 20.1465 35.4277 19.8682 34.9346 19.3115V23.0469H32.8179V12.0752H34.7808L34.854 12.8516C35.3667 12.2363 36.0356 11.9287 36.8608 11.9287C37.8374 11.9287 38.5967 12.29 39.1387 13.0127C39.6807 13.7354 39.9517 14.7314 39.9517 16.001V16.1108ZM37.835 15.957C37.835 15.2197 37.7031 14.6509 37.4395 14.2505C37.1807 13.8501 36.8022 13.6499 36.3042 13.6499C35.6401 13.6499 35.1836 13.9038 34.9346 14.4116V17.6562C35.1934 18.1787 35.6548 18.4399 36.3188 18.4399C37.3296 18.4399 37.835 17.6123 37.835 15.957ZM43.8042 10.127V12.0752H45.1592V13.6279H43.8042V17.583C43.8042 17.876 43.8604 18.0859 43.9727 18.2129C44.085 18.3398 44.2998 18.4033 44.6172 18.4033C44.8516 18.4033 45.0591 18.3862 45.2397 18.3521V19.9561C44.8247 20.083 44.3975 20.1465 43.958 20.1465C42.4736 20.1465 41.7168 19.397 41.6875 17.8979V13.6279H40.5303V12.0752H41.6875V10.127H43.8042ZM46.4482 18.96C46.4482 18.623 46.5605 18.3496 46.7852 18.1396C47.0146 17.9297 47.3003 17.8247 47.6421 17.8247C47.9888 17.8247 48.2744 17.9297 48.499 18.1396C48.7285 18.3496 48.8433 18.623 48.8433 18.96C48.8433 19.292 48.731 19.563 48.5063 19.7729C48.2817 19.978 47.9937 20.0806 47.6421 20.0806C47.2954 20.0806 47.0098 19.978 46.7852 19.7729C46.5605 19.563 46.4482 19.292 46.4482 18.96ZM57.8374 16.1108C57.8374 17.3315 57.5591 18.3105 57.0024 19.0479C56.4507 19.7803 55.7036 20.1465 54.7612 20.1465C53.9604 20.1465 53.3135 19.8682 52.8203 19.3115V23.0469H50.7036V12.0752H52.6665L52.7397 12.8516C53.2524 12.2363 53.9214 11.9287 54.7466 11.9287C55.7231 11.9287 56.4824 12.29 57.0244 13.0127C57.5664 13.7354 57.8374 14.7314 57.8374 16.001V16.1108ZM55.7207 15.957C55.7207 15.2197 55.5889 14.6509 55.3252 14.2505C55.0664 13.8501 54.688 13.6499 54.1899 13.6499C53.5259 13.6499 53.0693 13.9038 52.8203 14.4116V17.6562C53.0791 18.1787 53.5405 18.4399 54.2046 18.4399C55.2153 18.4399 55.7207 17.6123 55.7207 15.957ZM62.0269 17.0044L63.4917 12.0752H65.7622L62.5762 21.2305L62.4004 21.6479C61.9268 22.6831 61.1455 23.2007 60.0566 23.2007C59.749 23.2007 59.4365 23.1543 59.1191 23.0615V21.4575L59.4414 21.4648C59.8418 21.4648 60.1396 21.4038 60.335 21.2817C60.5352 21.1597 60.6914 20.957 60.8037 20.6738L61.0527 20.022L58.2769 12.0752H60.5547L62.0269 17.0044Z" fill="white"/>
<path d="M7.93 40.485H12.295V48.18C12.295 48.41 12.325 48.605 12.385 48.765C12.455 48.915 12.545 49.04 12.655 49.14C12.775 49.23 12.905 49.295 13.045 49.335C13.195 49.375 13.345 49.395 13.495 49.395C13.665 49.395 13.845 49.38 14.035 49.35C14.225 49.31 14.435 49.245 14.665 49.155L15.16 50.775C14.96 50.835 14.775 50.89 14.605 50.94C14.435 50.99 14.265 51.03 14.095 51.06C13.925 51.1 13.745 51.13 13.555 51.15C13.365 51.17 13.155 51.18 12.925 51.18C11.985 51.18 11.275 50.905 10.795 50.355C10.325 49.795 10.09 49.04 10.09 48.09V42.225H7.93V40.485ZM17.1791 43.56H22.3691V51H20.1641V45.285H17.1791V43.56ZM21.1691 42.465C20.7391 42.465 20.3841 42.345 20.1041 42.105C19.8341 41.865 19.6991 41.54 19.6991 41.13C19.6991 40.72 19.8341 40.39 20.1041 40.14C20.3841 39.88 20.7391 39.75 21.1691 39.75C21.5991 39.75 21.9491 39.88 22.2191 40.14C22.4991 40.39 22.6391 40.72 22.6391 41.13C22.6391 41.54 22.4991 41.865 22.2191 42.105C21.9491 42.345 21.5991 42.465 21.1691 42.465ZM26.7733 48.66C27.2033 48.93 27.6333 49.145 28.0633 49.305C28.5033 49.465 28.9733 49.545 29.4733 49.545C29.9833 49.545 30.3483 49.49 30.5683 49.38C30.7883 49.27 30.8983 49.115 30.8983 48.915C30.8983 48.685 30.7133 48.5 30.3433 48.36C29.9833 48.21 29.5033 48.05 28.9033 47.88C28.5733 47.79 28.2483 47.685 27.9283 47.565C27.6183 47.435 27.3383 47.285 27.0883 47.115C26.8383 46.935 26.6333 46.73 26.4733 46.5C26.3233 46.27 26.2483 46.005 26.2483 45.705C26.2483 45.365 26.3283 45.05 26.4883 44.76C26.6483 44.47 26.8733 44.225 27.1633 44.025C27.4633 43.825 27.8233 43.67 28.2433 43.56C28.6733 43.44 29.1533 43.38 29.6833 43.38C30.3433 43.38 30.9433 43.49 31.4833 43.71C32.0333 43.92 32.5033 44.15 32.8933 44.4L31.9033 45.72C31.5633 45.52 31.2133 45.355 30.8533 45.225C30.4933 45.085 30.1183 45.015 29.7283 45.015C29.2583 45.015 28.9233 45.065 28.7233 45.165C28.5333 45.265 28.4383 45.41 28.4383 45.6C28.4383 45.71 28.4883 45.81 28.5883 45.9C28.6883 45.99 28.8233 46.07 28.9933 46.14C29.1633 46.21 29.3633 46.28 29.5933 46.35C29.8333 46.41 30.0833 46.475 30.3433 46.545C30.7133 46.645 31.0633 46.76 31.3933 46.89C31.7233 47.01 32.0133 47.155 32.2633 47.325C32.5133 47.495 32.7133 47.7 32.8633 47.94C33.0133 48.18 33.0883 48.46 33.0883 48.78C33.0883 49.12 33.0083 49.435 32.8483 49.725C32.6883 50.015 32.4533 50.27 32.1433 50.49C31.8433 50.7 31.4633 50.87 31.0033 51C30.5533 51.12 30.0283 51.18 29.4283 51.18C28.7583 51.18 28.1033 51.07 27.4633 50.85C26.8233 50.63 26.2633 50.36 25.7833 50.04L26.7733 48.66ZM36.5924 45.285H34.7174V43.65L36.6974 43.56L36.9824 41.58H38.7974V43.56H41.9474V45.285H38.7974V47.895C38.7974 48.465 38.9224 48.87 39.1724 49.11C39.4224 49.34 39.8174 49.455 40.3574 49.455C40.6474 49.455 40.9124 49.43 41.1524 49.38C41.3924 49.33 41.6224 49.265 41.8424 49.185L42.2324 50.775C41.9024 50.875 41.5324 50.965 41.1224 51.045C40.7224 51.135 40.2824 51.18 39.8024 51.18C39.2124 51.18 38.7124 51.1 38.3024 50.94C37.8924 50.78 37.5574 50.56 37.2974 50.28C37.0474 49.99 36.8674 49.645 36.7574 49.245C36.6474 48.845 36.5924 48.4 36.5924 47.91V45.285ZM51.0766 51.81V53.46H43.8766V51.81H51.0766ZM60.0257 49.215V51H53.2007V49.215H55.6607V43.71H53.6957V42.345C54.2557 42.245 54.7307 42.125 55.1207 41.985C55.5207 41.845 55.8957 41.675 56.2457 41.475H57.8657V49.215H60.0257ZM71.009 43.53H77.909V45.09H71.009V43.53ZM71.009 46.995H77.909V48.555H71.009V46.995ZM90.9623 40.38H95.3873V41.55H92.6423V52.11H95.3873V53.28H90.9623V40.38ZM108.666 52.965C109.966 52.515 110.616 51.805 110.616 50.835C110.576 50.845 110.521 50.85 110.451 50.85C110.241 50.85 110.036 50.82 109.836 50.76C109.646 50.69 109.476 50.59 109.326 50.46C109.176 50.33 109.056 50.17 108.966 49.98C108.876 49.79 108.831 49.57 108.831 49.32C108.831 48.85 108.991 48.475 109.311 48.195C109.641 47.915 110.041 47.775 110.511 47.775C111.131 47.775 111.596 48.005 111.906 48.465C112.216 48.915 112.371 49.545 112.371 50.355C112.371 51.315 112.106 52.125 111.576 52.785C111.046 53.445 110.261 53.935 109.221 54.255L108.666 52.965ZM144.642 52.965C145.942 52.515 146.592 51.805 146.592 50.835C146.552 50.845 146.497 50.85 146.427 50.85C146.217 50.85 146.012 50.82 145.812 50.76C145.622 50.69 145.452 50.59 145.302 50.46C145.152 50.33 145.032 50.17 144.942 49.98C144.852 49.79 144.807 49.57 144.807 49.32C144.807 48.85 144.967 48.475 145.287 48.195C145.617 47.915 146.017 47.775 146.487 47.775C147.107 47.775 147.572 48.005 147.882 48.465C148.192 48.915 148.347 49.545 148.347 50.355C148.347 51.315 148.082 52.125 147.552 52.785C147.022 53.445 146.237 53.935 145.197 54.255L144.642 52.965ZM182.194 52.11V41.55H179.464V40.38H183.889V53.28H179.464V52.11H182.194ZM30.8683 72.685C29.8883 71.815 29.1133 70.81 28.5433 69.67C27.9833 68.53 27.7033 67.25 27.7033 65.83C27.7033 64.41 27.9833 63.13 28.5433 61.99C29.1133 60.85 29.8883 59.845 30.8683 58.975L32.0983 59.95C31.2083 60.82 30.5583 61.725 30.1483 62.665C29.7483 63.595 29.5483 64.65 29.5483 65.83C29.5483 66.42 29.5983 66.98 29.6983 67.51C29.7983 68.03 29.9483 68.53 30.1483 69.01C30.3583 69.49 30.6233 69.95 30.9433 70.39C31.2633 70.84 31.6483 71.28 32.0983 71.71L30.8683 72.685ZM34.9124 59.485H39.2774V67.18C39.2774 67.41 39.3074 67.605 39.3674 67.765C39.4374 67.915 39.5274 68.04 39.6374 68.14C39.7574 68.23 39.8874 68.295 40.0274 68.335C40.1774 68.375 40.3274 68.395 40.4774 68.395C40.6474 68.395 40.8274 68.38 41.0174 68.35C41.2074 68.31 41.4174 68.245 41.6474 68.155L42.1424 69.775C41.9424 69.835 41.7574 69.89 41.5874 69.94C41.4174 69.99 41.2474 70.03 41.0774 70.06C40.9074 70.1 40.7274 70.13 40.5374 70.15C40.3474 70.17 40.1374 70.18 39.9074 70.18C38.9674 70.18 38.2574 69.905 37.7774 69.355C37.3074 68.795 37.0724 68.04 37.0724 67.09V61.225H34.9124V59.485ZM44.1616 62.56H49.3516V70H47.1466V64.285H44.1616V62.56ZM48.1516 61.465C47.7216 61.465 47.3666 61.345 47.0866 61.105C46.8166 60.865 46.6816 60.54 46.6816 60.13C46.6816 59.72 46.8166 59.39 47.0866 59.14C47.3666 58.88 47.7216 58.75 48.1516 58.75C48.5816 58.75 48.9316 58.88 49.2016 59.14C49.4816 59.39 49.6216 59.72 49.6216 60.13C49.6216 60.54 49.4816 60.865 49.2016 61.105C48.9316 61.345 48.5816 61.465 48.1516 61.465ZM53.7557 67.66C54.1857 67.93 54.6157 68.145 55.0457 68.305C55.4857 68.465 55.9557 68.545 56.4557 68.545C56.9657 68.545 57.3307 68.49 57.5507 68.38C57.7707 68.27 57.8807 68.115 57.8807 67.915C57.8807 67.685 57.6957 67.5 57.3257 67.36C56.9657 67.21 56.4857 67.05 55.8857 66.88C55.5557 66.79 55.2307 66.685 54.9107 66.565C54.6007 66.435 54.3207 66.285 54.0707 66.115C53.8207 65.935 53.6157 65.73 53.4557 65.5C53.3057 65.27 53.2307 65.005 53.2307 64.705C53.2307 64.365 53.3107 64.05 53.4707 63.76C53.6307 63.47 53.8557 63.225 54.1457 63.025C54.4457 62.825 54.8057 62.67 55.2257 62.56C55.6557 62.44 56.1357 62.38 56.6657 62.38C57.3257 62.38 57.9257 62.49 58.4657 62.71C59.0157 62.92 59.4857 63.15 59.8757 63.4L58.8857 64.72C58.5457 64.52 58.1957 64.355 57.8357 64.225C57.4757 64.085 57.1007 64.015 56.7107 64.015C56.2407 64.015 55.9057 64.065 55.7057 64.165C55.5157 64.265 55.4207 64.41 55.4207 64.6C55.4207 64.71 55.4707 64.81 55.5707 64.9C55.6707 64.99 55.8057 65.07 55.9757 65.14C56.1457 65.21 56.3457 65.28 56.5757 65.35C56.8157 65.41 57.0657 65.475 57.3257 65.545C57.6957 65.645 58.0457 65.76 58.3757 65.89C58.7057 66.01 58.9957 66.155 59.2457 66.325C59.4957 66.495 59.6957 66.7 59.8457 66.94C59.9957 67.18 60.0707 67.46 60.0707 67.78C60.0707 68.12 59.9907 68.435 59.8307 68.725C59.6707 69.015 59.4357 69.27 59.1257 69.49C58.8257 69.7 58.4457 69.87 57.9857 70C57.5357 70.12 57.0107 70.18 56.4107 70.18C55.7407 70.18 55.0857 70.07 54.4457 69.85C53.8057 69.63 53.2457 69.36 52.7657 69.04L53.7557 67.66ZM63.5748 64.285H61.6998V62.65L63.6798 62.56L63.9648 60.58H65.7798V62.56H68.9298V64.285H65.7798V66.895C65.7798 67.465 65.9048 67.87 66.1548 68.11C66.4048 68.34 66.7998 68.455 67.3398 68.455C67.6298 68.455 67.8948 68.43 68.1348 68.38C68.3748 68.33 68.6048 68.265 68.8248 68.185L69.2148 69.775C68.8848 69.875 68.5148 69.965 68.1048 70.045C67.7048 70.135 67.2648 70.18 66.7848 70.18C66.1948 70.18 65.6948 70.1 65.2848 69.94C64.8748 69.78 64.5398 69.56 64.2798 69.28C64.0298 68.99 63.8498 68.645 63.7398 68.245C63.6298 67.845 63.5748 67.4 63.5748 66.91V64.285ZM78.059 70.81V72.46H70.859V70.81H78.059ZM87.0081 68.215V70H80.1831V68.215H82.6431V62.71H80.6781V61.345C81.2381 61.245 81.7131 61.125 82.1031 60.985C82.5031 60.845 82.8781 60.675 83.2281 60.475H84.8481V68.215H87.0081ZM89.8373 71.71C90.2873 71.28 90.6723 70.84 90.9923 70.39C91.3123 69.95 91.5723 69.49 91.7723 69.01C91.9823 68.53 92.1373 68.03 92.2373 67.51C92.3373 66.98 92.3873 66.42 92.3873 65.83C92.3873 64.65 92.1823 63.595 91.7723 62.665C91.3723 61.725 90.7273 60.82 89.8373 59.95L91.0673 58.975C92.0473 59.845 92.8173 60.85 93.3773 61.99C93.9473 63.13 94.2323 64.41 94.2323 65.83C94.2323 67.25 93.9473 68.53 93.3773 69.67C92.8173 70.81 92.0473 71.815 91.0673 72.685L89.8373 71.71Z" fill="white"/>
<path d="M98.6214 48.45C98.9414 48.71 99.2814 48.935 99.6414 49.125C100.011 49.305 100.421 49.395 100.871 49.395C101.411 49.395 101.851 49.27 102.191 49.02C102.541 48.77 102.716 48.4 102.716 47.91C102.716 47.43 102.551 47.065 102.221 46.815C101.901 46.565 101.486 46.44 100.976 46.44C100.816 46.44 100.671 46.45 100.541 46.47C100.421 46.48 100.301 46.505 100.181 46.545C100.061 46.585 99.9364 46.635 99.8064 46.695C99.6764 46.755 99.5314 46.83 99.3714 46.92L98.3964 46.29L98.6514 41.475H104.486V43.335H100.556L100.391 45.12C100.611 45.04 100.816 44.985 101.006 44.955C101.196 44.915 101.411 44.895 101.651 44.895C102.091 44.895 102.506 44.955 102.896 45.075C103.296 45.195 103.646 45.375 103.946 45.615C104.246 45.855 104.481 46.16 104.651 46.53C104.831 46.9 104.921 47.34 104.921 47.85C104.921 48.38 104.816 48.85 104.606 49.26C104.406 49.67 104.131 50.02 103.781 50.31C103.441 50.59 103.046 50.805 102.596 50.955C102.146 51.105 101.676 51.18 101.186 51.18C100.356 51.18 99.6514 51.055 99.0714 50.805C98.5014 50.545 98.0214 50.225 97.6314 49.845L98.6214 48.45ZM131.979 49.215V51H125.154V49.215H127.614V43.71H125.649V42.345C126.209 42.245 126.684 42.125 127.074 41.985C127.474 41.845 127.849 41.675 128.199 41.475H129.819V49.215H131.979ZM137.418 51.18C136.868 51.18 136.368 51.075 135.918 50.865C135.468 50.645 135.083 50.325 134.763 49.905C134.443 49.485 134.193 48.965 134.013 48.345C133.843 47.725 133.758 47.01 133.758 46.2C133.758 45.39 133.843 44.68 134.013 44.07C134.193 43.46 134.443 42.95 134.763 42.54C135.083 42.12 135.468 41.81 135.918 41.61C136.368 41.4 136.868 41.295 137.418 41.295C137.968 41.295 138.468 41.4 138.918 41.61C139.368 41.81 139.753 42.12 140.073 42.54C140.393 42.95 140.638 43.46 140.808 44.07C140.988 44.68 141.078 45.39 141.078 46.2C141.078 47.01 140.988 47.725 140.808 48.345C140.638 48.965 140.393 49.485 140.073 49.905C139.753 50.325 139.368 50.645 138.918 50.865C138.468 51.075 137.968 51.18 137.418 51.18ZM137.418 43.005C137.178 43.005 136.953 43.055 136.743 43.155C136.543 43.255 136.368 43.43 136.218 43.68C136.068 43.92 135.948 44.245 135.858 44.655C135.768 45.065 135.723 45.58 135.723 46.2C135.723 46.82 135.768 47.34 135.858 47.76C135.948 48.17 136.068 48.505 136.218 48.765C136.368 49.015 136.543 49.195 136.743 49.305C136.953 49.415 137.178 49.47 137.418 49.47C137.658 49.47 137.878 49.415 138.078 49.305C138.288 49.195 138.468 49.015 138.618 48.765C138.768 48.505 138.888 48.17 138.978 47.76C139.068 47.34 139.113 46.82 139.113 46.2C139.113 45.58 139.068 45.065 138.978 44.655C138.888 44.245 138.768 43.92 138.618 43.68C138.468 43.43 138.288 43.255 138.078 43.155C137.878 43.055 137.658 43.005 137.418 43.005ZM137.418 47.31C137.098 47.31 136.828 47.21 136.608 47.01C136.398 46.8 136.293 46.52 136.293 46.17C136.293 45.82 136.398 45.545 136.608 45.345C136.828 45.135 137.098 45.03 137.418 45.03C137.738 45.03 138.003 45.135 138.213 45.345C138.433 45.545 138.543 45.82 138.543 46.17C138.543 46.52 138.433 46.8 138.213 47.01C138.003 47.21 137.738 47.31 137.418 47.31ZM167.955 49.215V51H161.13V49.215H163.59V43.71H161.625V42.345C162.185 42.245 162.66 42.125 163.05 41.985C163.45 41.845 163.825 41.675 164.175 41.475H165.795V49.215H167.955ZM170.575 48.45C170.895 48.71 171.235 48.935 171.595 49.125C171.965 49.305 172.375 49.395 172.825 49.395C173.365 49.395 173.805 49.27 174.145 49.02C174.495 48.77 174.67 48.4 174.67 47.91C174.67 47.43 174.505 47.065 174.175 46.815C173.855 46.565 173.44 46.44 172.93 46.44C172.77 46.44 172.625 46.45 172.495 46.47C172.375 46.48 172.255 46.505 172.135 46.545C172.015 46.585 171.89 46.635 171.76 46.695C171.63 46.755 171.485 46.83 171.325 46.92L170.35 46.29L170.605 41.475H176.44V43.335H172.51L172.345 45.12C172.565 45.04 172.77 44.985 172.96 44.955C173.15 44.915 173.365 44.895 173.605 44.895C174.045 44.895 174.46 44.955 174.85 45.075C175.25 45.195 175.6 45.375 175.9 45.615C176.2 45.855 176.435 46.16 176.605 46.53C176.785 46.9 176.875 47.34 176.875 47.85C176.875 48.38 176.77 48.85 176.56 49.26C176.36 49.67 176.085 50.02 175.735 50.31C175.395 50.59 175 50.805 174.55 50.955C174.1 51.105 173.63 51.18 173.14 51.18C172.31 51.18 171.605 51.055 171.025 50.805C170.455 50.545 169.975 50.225 169.585 49.845L170.575 48.45ZM15.055 68.215V70H8.23V68.215H10.69V62.71H8.725V61.345C9.285 61.245 9.76 61.125 10.15 60.985C10.55 60.845 10.925 60.675 11.275 60.475H12.895V68.215H15.055ZM18.8891 70C18.9291 69.21 19.0041 68.485 19.1141 67.825C19.2341 67.155 19.3991 66.52 19.6091 65.92C19.8291 65.31 20.1091 64.72 20.4491 64.15C20.7891 63.57 21.2091 62.965 21.7091 62.335H16.9241V60.475H24.0791V61.825C23.4791 62.495 22.9941 63.125 22.6241 63.715C22.2541 64.295 21.9641 64.9 21.7541 65.53C21.5441 66.15 21.3941 66.82 21.3041 67.54C21.2141 68.25 21.1491 69.07 21.1091 70H18.8891Z" fill="#F0E442"/>
</svg>
