<svg width="250" height="279" viewBox="0 0 250 279" fill="none" xmlns="http://www.w3.org/2000/svg">
<rect width="250" height="279" fill="black"/>
<line y1="186.5" x2="250" y2="186.5" stroke="white"/>
<path d="M11.5004 207.68C10.9204 207.68 10.3854 207.565 9.8954 207.335C9.4154 207.095 9.0004 206.755 8.6504 206.315C8.3104 205.875 8.0454 205.34 7.8554 204.71C7.6654 204.08 7.5704 203.365 7.5704 202.565C7.5704 201.765 7.6654 201.055 7.8554 200.435C8.0454 199.805 8.3104 199.28 8.6504 198.86C9.0004 198.43 9.4154 198.105 9.8954 197.885C10.3854 197.655 10.9204 197.54 11.5004 197.54C12.0804 197.54 12.6104 197.655 13.0904 197.885C13.5804 198.105 13.9954 198.43 14.3354 198.86C14.6854 199.29 14.9554 199.82 15.1454 200.45C15.3354 201.07 15.4304 201.775 15.4304 202.565C15.4304 203.365 15.3354 204.08 15.1454 204.71C14.9554 205.34 14.6854 205.875 14.3354 206.315C13.9954 206.755 13.5804 207.095 13.0904 207.335C12.6104 207.565 12.0804 207.68 11.5004 207.68ZM11.5004 205.775C12.0104 205.775 12.4154 205.49 12.7154 204.92C13.0154 204.34 13.1654 203.555 13.1654 202.565C13.1654 201.585 13.0154 200.82 12.7154 200.27C12.4154 199.72 12.0104 199.445 11.5004 199.445C10.9904 199.445 10.5854 199.72 10.2854 200.27C9.9854 200.82 9.8354 201.585 9.8354 202.565C9.8354 203.555 9.9854 204.34 10.2854 204.92C10.5854 205.49 10.9904 205.775 11.5004 205.775ZM23.8695 207.5H22.0695L21.9045 206.435H21.8445C21.5145 206.815 21.1495 207.12 20.7495 207.35C20.3495 207.57 19.8795 207.68 19.3395 207.68C18.4895 207.68 17.8745 207.41 17.4945 206.87C17.1145 206.33 16.9245 205.59 16.9245 204.65V200.06H19.1295V204.365C19.1295 204.865 19.2045 205.23 19.3545 205.46C19.5045 205.69 19.7895 205.805 20.2095 205.805C20.4895 205.805 20.7345 205.745 20.9445 205.625C21.1645 205.505 21.4045 205.28 21.6645 204.95V200.06H23.8695V207.5ZM27.5987 201.785H25.7237V200.15L27.7037 200.06L27.9887 198.08H29.8037V200.06H32.9537V201.785H29.8037V204.395C29.8037 204.965 29.9287 205.37 30.1787 205.61C30.4287 205.84 30.8237 205.955 31.3637 205.955C31.6537 205.955 31.9187 205.93 32.1587 205.88C32.3987 205.83 32.6287 205.765 32.8487 205.685L33.2387 207.275C32.9087 207.375 32.5387 207.465 32.1287 207.545C31.7287 207.635 31.2887 207.68 30.8087 207.68C30.2187 207.68 29.7187 207.6 29.3087 207.44C28.8987 207.28 28.5637 207.06 28.3037 206.78C28.0537 206.49 27.8737 206.145 27.7637 205.745C27.6537 205.345 27.5987 204.9 27.5987 204.41V201.785ZM37.2678 208.085V210.26H35.0628V200.06H36.8628L37.0278 200.81H37.0728C37.3728 200.54 37.7178 200.32 38.1078 200.15C38.4978 199.97 38.8928 199.88 39.2928 199.88C39.7528 199.88 40.1678 199.97 40.5378 200.15C40.9078 200.33 41.2228 200.585 41.4828 200.915C41.7428 201.245 41.9378 201.645 42.0678 202.115C42.2078 202.575 42.2778 203.09 42.2778 203.66C42.2778 204.3 42.1878 204.87 42.0078 205.37C41.8278 205.86 41.5878 206.28 41.2878 206.63C40.9878 206.97 40.6428 207.23 40.2528 207.41C39.8728 207.59 39.4728 207.68 39.0528 207.68C38.3728 207.68 37.7528 207.41 37.1928 206.87L37.2678 208.085ZM37.2678 205.385C37.4778 205.565 37.6928 205.695 37.9128 205.775C38.1428 205.845 38.3528 205.88 38.5428 205.88C38.9628 205.88 39.3128 205.71 39.5928 205.37C39.8728 205.02 40.0128 204.46 40.0128 203.69C40.0128 202.35 39.5578 201.68 38.6478 201.68C38.1778 201.68 37.7178 201.91 37.2678 202.37V205.385ZM50.852 207.5H49.052L48.887 206.435H48.827C48.497 206.815 48.132 207.12 47.732 207.35C47.332 207.57 46.862 207.68 46.322 207.68C45.472 207.68 44.857 207.41 44.477 206.87C44.097 206.33 43.907 205.59 43.907 204.65V200.06H46.112V204.365C46.112 204.865 46.187 205.23 46.337 205.46C46.487 205.69 46.772 205.805 47.192 205.805C47.472 205.805 47.717 205.745 47.927 205.625C48.147 205.505 48.387 205.28 48.647 204.95V200.06H50.852V207.5ZM54.5811 201.785H52.7061V200.15L54.6861 200.06L54.9711 198.08H56.7861V200.06H59.9361V201.785H56.7861V204.395C56.7861 204.965 56.9111 205.37 57.1611 205.61C57.4111 205.84 57.8061 205.955 58.3461 205.955C58.6361 205.955 58.9011 205.93 59.1411 205.88C59.3811 205.83 59.6111 205.765 59.8311 205.685L60.2211 207.275C59.8911 207.375 59.5211 207.465 59.1111 207.545C58.7111 207.635 58.2711 207.68 57.7911 207.68C57.2011 207.68 56.7011 207.6 56.2911 207.44C55.8811 207.28 55.5461 207.06 55.2861 206.78C55.0361 206.49 54.8561 206.145 54.7461 205.745C54.6361 205.345 54.5811 204.9 54.5811 204.41V201.785Z" fill="white"/>
<path d="M8.74 224.56H10.54L10.72 226.18H10.765C11.135 225.57 11.58 225.12 12.1 224.83C12.62 224.53 13.18 224.38 13.78 224.38C14.11 224.38 14.375 224.405 14.575 224.455C14.785 224.505 15 224.58 15.22 224.68L14.77 226.525C14.54 226.455 14.33 226.405 14.14 226.375C13.96 226.335 13.73 226.315 13.45 226.315C12.99 226.315 12.535 226.45 12.085 226.72C11.645 226.99 11.265 227.46 10.945 228.13V232H8.74V224.56ZM16.9091 229.93C16.9091 229.51 16.9991 229.145 17.1791 228.835C17.3591 228.515 17.6441 228.245 18.0341 228.025C18.4341 227.805 18.9441 227.63 19.5641 227.5C20.1841 227.36 20.9341 227.265 21.8141 227.215C21.7741 226.875 21.6241 226.61 21.3641 226.42C21.1141 226.23 20.7341 226.135 20.2241 226.135C19.8641 226.135 19.4991 226.2 19.1291 226.33C18.7691 226.45 18.3791 226.615 17.9591 226.825L17.1791 225.385C17.6891 225.095 18.2341 224.855 18.8141 224.665C19.4041 224.475 20.0191 224.38 20.6591 224.38C21.6991 224.38 22.5191 224.655 23.1191 225.205C23.7191 225.755 24.0191 226.6 24.0191 227.74V232H22.2191L22.0541 231.16H21.9941C21.6141 231.45 21.1991 231.695 20.7491 231.895C20.2991 232.085 19.8341 232.18 19.3541 232.18C18.9741 232.18 18.6341 232.12 18.3341 232C18.0341 231.89 17.7791 231.735 17.5691 231.535C17.3591 231.325 17.1941 231.085 17.0741 230.815C16.9641 230.545 16.9091 230.25 16.9091 229.93ZM19.0241 229.765C19.0241 230.005 19.1141 230.185 19.2941 230.305C19.4841 230.415 19.7391 230.47 20.0591 230.47C20.3891 230.47 20.6991 230.405 20.9891 230.275C21.2791 230.135 21.5541 229.965 21.8141 229.765V228.535C21.2641 228.565 20.8091 228.615 20.4491 228.685C20.0891 228.755 19.8041 228.845 19.5941 228.955C19.3841 229.055 19.2341 229.175 19.1441 229.315C19.0641 229.455 19.0241 229.605 19.0241 229.765ZM26.0683 224.56H27.8683L28.0333 225.55H28.0933C28.4133 225.23 28.7783 224.955 29.1883 224.725C29.6083 224.495 30.0983 224.38 30.6583 224.38C31.4983 224.38 32.1133 224.65 32.5033 225.19C32.8933 225.73 33.0883 226.47 33.0883 227.41V232H30.8833V227.695C30.8833 227.195 30.8033 226.83 30.6433 226.6C30.4833 226.37 30.1983 226.255 29.7883 226.255C29.4883 226.255 29.2233 226.32 28.9933 226.45C28.7733 226.58 28.5333 226.775 28.2733 227.035V232H26.0683V224.56ZM34.6874 228.28C34.6874 227.67 34.7774 227.125 34.9574 226.645C35.1374 226.165 35.3724 225.76 35.6624 225.43C35.9624 225.09 36.3024 224.83 36.6824 224.65C37.0624 224.47 37.4574 224.38 37.8674 224.38C38.2974 224.38 38.6574 224.455 38.9474 224.605C39.2374 224.745 39.5124 224.935 39.7724 225.175L39.6974 224.02V221.485H41.9024V232H40.1024L39.9374 231.235H39.8924C39.6124 231.505 39.2924 231.73 38.9324 231.91C38.5724 232.09 38.2024 232.18 37.8224 232.18C37.3524 232.18 36.9224 232.09 36.5324 231.91C36.1524 231.73 35.8224 231.475 35.5424 231.145C35.2724 230.805 35.0624 230.395 34.9124 229.915C34.7624 229.435 34.6874 228.89 34.6874 228.28ZM36.9524 228.25C36.9524 228.99 37.0774 229.53 37.3274 229.87C37.5774 230.21 37.9324 230.38 38.3924 230.38C38.6424 230.38 38.8724 230.33 39.0824 230.23C39.2924 230.12 39.4974 229.94 39.6974 229.69V226.675C39.4974 226.495 39.2924 226.37 39.0824 226.3C38.8824 226.22 38.6724 226.18 38.4524 226.18C38.0424 226.18 37.6874 226.35 37.3874 226.69C37.0974 227.03 36.9524 227.55 36.9524 228.25ZM43.6816 228.28C43.6816 227.66 43.7866 227.11 43.9966 226.63C44.2066 226.14 44.4866 225.73 44.8366 225.4C45.1966 225.07 45.6016 224.82 46.0516 224.65C46.5116 224.47 46.9866 224.38 47.4766 224.38C47.9666 224.38 48.4366 224.47 48.8866 224.65C49.3466 224.82 49.7516 225.07 50.1016 225.4C50.4616 225.73 50.7466 226.14 50.9566 226.63C51.1666 227.11 51.2716 227.66 51.2716 228.28C51.2716 228.9 51.1666 229.455 50.9566 229.945C50.7466 230.425 50.4616 230.83 50.1016 231.16C49.7516 231.49 49.3466 231.745 48.8866 231.925C48.4366 232.095 47.9666 232.18 47.4766 232.18C46.9866 232.18 46.5116 232.095 46.0516 231.925C45.6016 231.745 45.1966 231.49 44.8366 231.16C44.4866 230.83 44.2066 230.425 43.9966 229.945C43.7866 229.455 43.6816 228.9 43.6816 228.28ZM45.9466 228.28C45.9466 228.93 46.0716 229.445 46.3216 229.825C46.5816 230.205 46.9666 230.395 47.4766 230.395C47.9866 230.395 48.3666 230.205 48.6166 229.825C48.8766 229.445 49.0066 228.93 49.0066 228.28C49.0066 227.63 48.8766 227.115 48.6166 226.735C48.3666 226.355 47.9866 226.165 47.4766 226.165C46.9666 226.165 46.5816 226.355 46.3216 226.735C46.0716 227.115 45.9466 227.63 45.9466 228.28ZM52.5107 224.56H54.1607L54.3257 225.49H54.3857C54.5257 225.18 54.7157 224.92 54.9557 224.71C55.2057 224.49 55.5457 224.38 55.9757 224.38C56.3057 224.38 56.5807 224.485 56.8007 224.695C57.0307 224.895 57.1907 225.195 57.2807 225.595C57.4207 225.255 57.6207 224.97 57.8807 224.74C58.1507 224.5 58.4957 224.38 58.9157 224.38C59.4357 224.38 59.8407 224.595 60.1307 225.025C60.4207 225.445 60.5657 226.03 60.5657 226.78V232H58.4957V226.945C58.4957 226.485 58.3557 226.255 58.0757 226.255C57.8057 226.255 57.5757 226.495 57.3857 226.975V232H55.6907V226.945C55.6907 226.485 55.5457 226.255 55.2557 226.255C55.1157 226.255 54.9957 226.315 54.8957 226.435C54.7957 226.555 54.6907 226.735 54.5807 226.975V232H52.5107V224.56ZM70.964 228.28C70.964 227.66 71.079 227.11 71.309 226.63C71.549 226.14 71.864 225.73 72.254 225.4C72.654 225.07 73.114 224.82 73.634 224.65C74.154 224.47 74.699 224.38 75.269 224.38C75.859 224.38 76.389 224.475 76.859 224.665C77.339 224.855 77.739 225.095 78.059 225.385L77.039 226.75C76.489 226.36 75.939 226.165 75.389 226.165C74.749 226.165 74.229 226.355 73.829 226.735C73.429 227.115 73.229 227.63 73.229 228.28C73.229 228.93 73.419 229.445 73.799 229.825C74.189 230.205 74.694 230.395 75.314 230.395C75.704 230.395 76.064 230.325 76.394 230.185C76.724 230.045 77.019 229.88 77.279 229.69L78.179 231.085C77.729 231.465 77.229 231.745 76.679 231.925C76.139 232.095 75.614 232.18 75.104 232.18C74.514 232.18 73.969 232.095 73.469 231.925C72.969 231.745 72.529 231.49 72.149 231.16C71.779 230.83 71.489 230.425 71.279 229.945C71.069 229.455 70.964 228.9 70.964 228.28ZM79.6581 228.28C79.6581 227.66 79.7631 227.11 79.9731 226.63C80.1831 226.14 80.4631 225.73 80.8131 225.4C81.1731 225.07 81.5781 224.82 82.0281 224.65C82.4881 224.47 82.9631 224.38 83.4531 224.38C83.9431 224.38 84.4131 224.47 84.8631 224.65C85.3231 224.82 85.7281 225.07 86.0781 225.4C86.4381 225.73 86.7231 226.14 86.9331 226.63C87.1431 227.11 87.2481 227.66 87.2481 228.28C87.2481 228.9 87.1431 229.455 86.9331 229.945C86.7231 230.425 86.4381 230.83 86.0781 231.16C85.7281 231.49 85.3231 231.745 84.8631 231.925C84.4131 232.095 83.9431 232.18 83.4531 232.18C82.9631 232.18 82.4881 232.095 82.0281 231.925C81.5781 231.745 81.1731 231.49 80.8131 231.16C80.4631 230.83 80.1831 230.425 79.9731 229.945C79.7631 229.455 79.6581 228.9 79.6581 228.28ZM81.9231 228.28C81.9231 228.93 82.0481 229.445 82.2981 229.825C82.5581 230.205 82.9431 230.395 83.4531 230.395C83.9631 230.395 84.3431 230.205 84.5931 229.825C84.8531 229.445 84.9831 228.93 84.9831 228.28C84.9831 227.63 84.8531 227.115 84.5931 226.735C84.3431 226.355 83.9631 226.165 83.4531 226.165C82.9431 226.165 82.5581 226.355 82.2981 226.735C82.0481 227.115 81.9231 227.63 81.9231 228.28ZM88.6523 228.28C88.6523 227.67 88.7423 227.125 88.9223 226.645C89.1023 226.165 89.3373 225.76 89.6273 225.43C89.9273 225.09 90.2673 224.83 90.6473 224.65C91.0273 224.47 91.4223 224.38 91.8323 224.38C92.2623 224.38 92.6223 224.455 92.9123 224.605C93.2023 224.745 93.4773 224.935 93.7373 225.175L93.6623 224.02V221.485H95.8673V232H94.0673L93.9023 231.235H93.8573C93.5773 231.505 93.2573 231.73 92.8973 231.91C92.5373 232.09 92.1673 232.18 91.7873 232.18C91.3173 232.18 90.8873 232.09 90.4973 231.91C90.1173 231.73 89.7873 231.475 89.5073 231.145C89.2373 230.805 89.0273 230.395 88.8773 229.915C88.7273 229.435 88.6523 228.89 88.6523 228.28ZM90.9173 228.25C90.9173 228.99 91.0423 229.53 91.2923 229.87C91.5423 230.21 91.8973 230.38 92.3573 230.38C92.6073 230.38 92.8373 230.33 93.0473 230.23C93.2573 230.12 93.4623 229.94 93.6623 229.69V226.675C93.4623 226.495 93.2573 226.37 93.0473 226.3C92.8473 226.22 92.6373 226.18 92.4173 226.18C92.0073 226.18 91.6523 226.35 91.3523 226.69C91.0623 227.03 90.9173 227.55 90.9173 228.25ZM97.7664 228.28C97.7664 227.67 97.8714 227.125 98.0814 226.645C98.3014 226.165 98.5914 225.76 98.9514 225.43C99.3114 225.09 99.7214 224.83 100.181 224.65C100.651 224.47 101.136 224.38 101.636 224.38C102.206 224.38 102.711 224.47 103.151 224.65C103.591 224.83 103.956 225.08 104.246 225.4C104.536 225.72 104.756 226.1 104.906 226.54C105.056 226.97 105.131 227.44 105.131 227.95C105.131 228.15 105.121 228.34 105.101 228.52C105.081 228.7 105.061 228.835 105.041 228.925H100.031C100.111 229.485 100.351 229.89 100.751 230.14C101.161 230.38 101.641 230.5 102.191 230.5C102.531 230.5 102.851 230.46 103.151 230.38C103.461 230.29 103.781 230.16 104.111 229.99L104.831 231.31C104.411 231.58 103.941 231.795 103.421 231.955C102.901 232.105 102.391 232.18 101.891 232.18C101.311 232.18 100.771 232.095 100.271 231.925C99.7714 231.745 99.3364 231.49 98.9664 231.16C98.5964 230.82 98.3014 230.41 98.0814 229.93C97.8714 229.45 97.7664 228.9 97.7664 228.28ZM103.136 227.47C103.136 227.05 103.021 226.71 102.791 226.45C102.561 226.19 102.191 226.06 101.681 226.06C101.281 226.06 100.926 226.175 100.616 226.405C100.306 226.635 100.101 226.99 100.001 227.47H103.136ZM7.54 243.56H9.19L9.355 244.49H9.415C9.555 244.18 9.745 243.92 9.985 243.71C10.235 243.49 10.575 243.38 11.005 243.38C11.335 243.38 11.61 243.485 11.83 243.695C12.06 243.895 12.22 244.195 12.31 244.595C12.45 244.255 12.65 243.97 12.91 243.74C13.18 243.5 13.525 243.38 13.945 243.38C14.465 243.38 14.87 243.595 15.16 244.025C15.45 244.445 15.595 245.03 15.595 245.78V251H13.525V245.945C13.525 245.485 13.385 245.255 13.105 245.255C12.835 245.255 12.605 245.495 12.415 245.975V251H10.72V245.945C10.72 245.485 10.575 245.255 10.285 245.255C10.145 245.255 10.025 245.315 9.925 245.435C9.825 245.555 9.72 245.735 9.61 245.975V251H7.54V243.56ZM16.6991 247.28C16.6991 246.66 16.8041 246.11 17.0141 245.63C17.2241 245.14 17.5041 244.73 17.8541 244.4C18.2141 244.07 18.6191 243.82 19.0691 243.65C19.5291 243.47 20.0041 243.38 20.4941 243.38C20.9841 243.38 21.4541 243.47 21.9041 243.65C22.3641 243.82 22.7691 244.07 23.1191 244.4C23.4791 244.73 23.7641 245.14 23.9741 245.63C24.1841 246.11 24.2891 246.66 24.2891 247.28C24.2891 247.9 24.1841 248.455 23.9741 248.945C23.7641 249.425 23.4791 249.83 23.1191 250.16C22.7691 250.49 22.3641 250.745 21.9041 250.925C21.4541 251.095 20.9841 251.18 20.4941 251.18C20.0041 251.18 19.5291 251.095 19.0691 250.925C18.6191 250.745 18.2141 250.49 17.8541 250.16C17.5041 249.83 17.2241 249.425 17.0141 248.945C16.8041 248.455 16.6991 247.9 16.6991 247.28ZM18.9641 247.28C18.9641 247.93 19.0891 248.445 19.3391 248.825C19.5991 249.205 19.9841 249.395 20.4941 249.395C21.0041 249.395 21.3841 249.205 21.6341 248.825C21.8941 248.445 22.0241 247.93 22.0241 247.28C22.0241 246.63 21.8941 246.115 21.6341 245.735C21.3841 245.355 21.0041 245.165 20.4941 245.165C19.9841 245.165 19.5991 245.355 19.3391 245.735C19.0891 246.115 18.9641 246.63 18.9641 247.28ZM26.7283 243.56H28.5283L28.7083 245.18H28.7533C29.1233 244.57 29.5683 244.12 30.0883 243.83C30.6083 243.53 31.1683 243.38 31.7683 243.38C32.0983 243.38 32.3633 243.405 32.5633 243.455C32.7733 243.505 32.9883 243.58 33.2083 243.68L32.7583 245.525C32.5283 245.455 32.3183 245.405 32.1283 245.375C31.9483 245.335 31.7183 245.315 31.4383 245.315C30.9783 245.315 30.5233 245.45 30.0733 245.72C29.6333 245.99 29.2533 246.46 28.9333 247.13V251H26.7283V243.56ZM34.8074 247.28C34.8074 246.67 34.9124 246.125 35.1224 245.645C35.3424 245.165 35.6324 244.76 35.9924 244.43C36.3524 244.09 36.7624 243.83 37.2224 243.65C37.6924 243.47 38.1774 243.38 38.6774 243.38C39.2474 243.38 39.7524 243.47 40.1924 243.65C40.6324 243.83 40.9974 244.08 41.2874 244.4C41.5774 244.72 41.7974 245.1 41.9474 245.54C42.0974 245.97 42.1724 246.44 42.1724 246.95C42.1724 247.15 42.1624 247.34 42.1424 247.52C42.1224 247.7 42.1024 247.835 42.0824 247.925H37.0724C37.1524 248.485 37.3924 248.89 37.7924 249.14C38.2024 249.38 38.6824 249.5 39.2324 249.5C39.5724 249.5 39.8924 249.46 40.1924 249.38C40.5024 249.29 40.8224 249.16 41.1524 248.99L41.8724 250.31C41.4524 250.58 40.9824 250.795 40.4624 250.955C39.9424 251.105 39.4324 251.18 38.9324 251.18C38.3524 251.18 37.8124 251.095 37.3124 250.925C36.8124 250.745 36.3774 250.49 36.0074 250.16C35.6374 249.82 35.3424 249.41 35.1224 248.93C34.9124 248.45 34.8074 247.9 34.8074 247.28ZM40.1774 246.47C40.1774 246.05 40.0624 245.71 39.8324 245.45C39.6024 245.19 39.2324 245.06 38.7224 245.06C38.3224 245.06 37.9674 245.175 37.6574 245.405C37.3474 245.635 37.1424 245.99 37.0424 246.47H40.1774ZM53.7107 243.56H55.5107L55.6907 245.18H55.7357C56.1057 244.57 56.5507 244.12 57.0707 243.83C57.5907 243.53 58.1507 243.38 58.7507 243.38C59.0807 243.38 59.3457 243.405 59.5457 243.455C59.7557 243.505 59.9707 243.58 60.1907 243.68L59.7407 245.525C59.5107 245.455 59.3007 245.405 59.1107 245.375C58.9307 245.335 58.7007 245.315 58.4207 245.315C57.9607 245.315 57.5057 245.45 57.0557 245.72C56.6157 245.99 56.2357 246.46 55.9157 247.13V251H53.7107V243.56ZM61.8798 248.93C61.8798 248.51 61.9698 248.145 62.1498 247.835C62.3298 247.515 62.6148 247.245 63.0048 247.025C63.4048 246.805 63.9148 246.63 64.5348 246.5C65.1548 246.36 65.9048 246.265 66.7848 246.215C66.7448 245.875 66.5948 245.61 66.3348 245.42C66.0848 245.23 65.7048 245.135 65.1948 245.135C64.8348 245.135 64.4698 245.2 64.0998 245.33C63.7398 245.45 63.3498 245.615 62.9298 245.825L62.1498 244.385C62.6598 244.095 63.2048 243.855 63.7848 243.665C64.3748 243.475 64.9898 243.38 65.6298 243.38C66.6698 243.38 67.4898 243.655 68.0898 244.205C68.6898 244.755 68.9898 245.6 68.9898 246.74V251H67.1898L67.0248 250.16H66.9648C66.5848 250.45 66.1698 250.695 65.7198 250.895C65.2698 251.085 64.8048 251.18 64.3248 251.18C63.9448 251.18 63.6048 251.12 63.3048 251C63.0048 250.89 62.7498 250.735 62.5398 250.535C62.3298 250.325 62.1648 250.085 62.0448 249.815C61.9348 249.545 61.8798 249.25 61.8798 248.93ZM63.9948 248.765C63.9948 249.005 64.0848 249.185 64.2648 249.305C64.4548 249.415 64.7098 249.47 65.0298 249.47C65.3598 249.47 65.6698 249.405 65.9598 249.275C66.2498 249.135 66.5248 248.965 66.7848 248.765V247.535C66.2348 247.565 65.7798 247.615 65.4198 247.685C65.0598 247.755 64.7748 247.845 64.5648 247.955C64.3548 248.055 64.2048 248.175 64.1148 248.315C64.0348 248.455 63.9948 248.605 63.9948 248.765ZM71.039 243.56H72.839L73.004 244.55H73.064C73.384 244.23 73.749 243.955 74.159 243.725C74.579 243.495 75.069 243.38 75.629 243.38C76.469 243.38 77.084 243.65 77.474 244.19C77.864 244.73 78.059 245.47 78.059 246.41V251H75.854V246.695C75.854 246.195 75.774 245.83 75.614 245.6C75.454 245.37 75.169 245.255 74.759 245.255C74.459 245.255 74.194 245.32 73.964 245.45C73.744 245.58 73.504 245.775 73.244 246.035V251H71.039V243.56ZM79.6581 247.28C79.6581 246.67 79.7481 246.125 79.9281 245.645C80.1081 245.165 80.3431 244.76 80.6331 244.43C80.9331 244.09 81.2731 243.83 81.6531 243.65C82.0331 243.47 82.4281 243.38 82.8381 243.38C83.2681 243.38 83.6281 243.455 83.9181 243.605C84.2081 243.745 84.4831 243.935 84.7431 244.175L84.6681 243.02V240.485H86.8731V251H85.0731L84.9081 250.235H84.8631C84.5831 250.505 84.2631 250.73 83.9031 250.91C83.5431 251.09 83.1731 251.18 82.7931 251.18C82.3231 251.18 81.8931 251.09 81.5031 250.91C81.1231 250.73 80.7931 250.475 80.5131 250.145C80.2431 249.805 80.0331 249.395 79.8831 248.915C79.7331 248.435 79.6581 247.89 79.6581 247.28ZM81.9231 247.25C81.9231 247.99 82.0481 248.53 82.2981 248.87C82.5481 249.21 82.9031 249.38 83.3631 249.38C83.6131 249.38 83.8431 249.33 84.0531 249.23C84.2631 249.12 84.4681 248.94 84.6681 248.69V245.675C84.4681 245.495 84.2631 245.37 84.0531 245.3C83.8531 245.22 83.6431 245.18 83.4231 245.18C83.0131 245.18 82.6581 245.35 82.3581 245.69C82.0681 246.03 81.9231 246.55 81.9231 247.25ZM88.6523 247.28C88.6523 246.66 88.7573 246.11 88.9673 245.63C89.1773 245.14 89.4573 244.73 89.8073 244.4C90.1673 244.07 90.5723 243.82 91.0223 243.65C91.4823 243.47 91.9573 243.38 92.4473 243.38C92.9373 243.38 93.4073 243.47 93.8573 243.65C94.3173 243.82 94.7223 244.07 95.0723 244.4C95.4323 244.73 95.7173 245.14 95.9273 245.63C96.1373 246.11 96.2423 246.66 96.2423 247.28C96.2423 247.9 96.1373 248.455 95.9273 248.945C95.7173 249.425 95.4323 249.83 95.0723 250.16C94.7223 250.49 94.3173 250.745 93.8573 250.925C93.4073 251.095 92.9373 251.18 92.4473 251.18C91.9573 251.18 91.4823 251.095 91.0223 250.925C90.5723 250.745 90.1673 250.49 89.8073 250.16C89.4573 249.83 89.1773 249.425 88.9673 248.945C88.7573 248.455 88.6523 247.9 88.6523 247.28ZM90.9173 247.28C90.9173 247.93 91.0423 248.445 91.2923 248.825C91.5523 249.205 91.9373 249.395 92.4473 249.395C92.9573 249.395 93.3373 249.205 93.5873 248.825C93.8473 248.445 93.9773 247.93 93.9773 247.28C93.9773 246.63 93.8473 246.115 93.5873 245.735C93.3373 245.355 92.9573 245.165 92.4473 245.165C91.9373 245.165 91.5523 245.355 91.2923 245.735C91.0423 246.115 90.9173 246.63 90.9173 247.28ZM97.4814 243.56H99.1314L99.2964 244.49H99.3564C99.4964 244.18 99.6864 243.92 99.9264 243.71C100.176 243.49 100.516 243.38 100.946 243.38C101.276 243.38 101.551 243.485 101.771 243.695C102.001 243.895 102.161 244.195 102.251 244.595C102.391 244.255 102.591 243.97 102.851 243.74C103.121 243.5 103.466 243.38 103.886 243.38C104.406 243.38 104.811 243.595 105.101 244.025C105.391 244.445 105.536 245.03 105.536 245.78V251H103.466V245.945C103.466 245.485 103.326 245.255 103.046 245.255C102.776 245.255 102.546 245.495 102.356 245.975V251H100.661V245.945C100.661 245.485 100.516 245.255 100.226 245.255C100.086 245.255 99.9664 245.315 99.8664 245.435C99.7664 245.555 99.6614 245.735 99.5514 245.975V251H97.4814V243.56ZM115.935 247.28C115.935 246.66 116.05 246.11 116.28 245.63C116.52 245.14 116.835 244.73 117.225 244.4C117.625 244.07 118.085 243.82 118.605 243.65C119.125 243.47 119.67 243.38 120.24 243.38C120.83 243.38 121.36 243.475 121.83 243.665C122.31 243.855 122.71 244.095 123.03 244.385L122.01 245.75C121.46 245.36 120.91 245.165 120.36 245.165C119.72 245.165 119.2 245.355 118.8 245.735C118.4 246.115 118.2 246.63 118.2 247.28C118.2 247.93 118.39 248.445 118.77 248.825C119.16 249.205 119.665 249.395 120.285 249.395C120.675 249.395 121.035 249.325 121.365 249.185C121.695 249.045 121.99 248.88 122.25 248.69L123.15 250.085C122.7 250.465 122.2 250.745 121.65 250.925C121.11 251.095 120.585 251.18 120.075 251.18C119.485 251.18 118.94 251.095 118.44 250.925C117.94 250.745 117.5 250.49 117.12 250.16C116.75 249.83 116.46 249.425 116.25 248.945C116.04 248.455 115.935 247.9 115.935 247.28ZM124.629 247.28C124.629 246.66 124.734 246.11 124.944 245.63C125.154 245.14 125.434 244.73 125.784 244.4C126.144 244.07 126.549 243.82 126.999 243.65C127.459 243.47 127.934 243.38 128.424 243.38C128.914 243.38 129.384 243.47 129.834 243.65C130.294 243.82 130.699 244.07 131.049 244.4C131.409 244.73 131.694 245.14 131.904 245.63C132.114 246.11 132.219 246.66 132.219 247.28C132.219 247.9 132.114 248.455 131.904 248.945C131.694 249.425 131.409 249.83 131.049 250.16C130.699 250.49 130.294 250.745 129.834 250.925C129.384 251.095 128.914 251.18 128.424 251.18C127.934 251.18 127.459 251.095 126.999 250.925C126.549 250.745 126.144 250.49 125.784 250.16C125.434 249.83 125.154 249.425 124.944 248.945C124.734 248.455 124.629 247.9 124.629 247.28ZM126.894 247.28C126.894 247.93 127.019 248.445 127.269 248.825C127.529 249.205 127.914 249.395 128.424 249.395C128.934 249.395 129.314 249.205 129.564 248.825C129.824 248.445 129.954 247.93 129.954 247.28C129.954 246.63 129.824 246.115 129.564 245.735C129.314 245.355 128.934 245.165 128.424 245.165C127.914 245.165 127.529 245.355 127.269 245.735C127.019 246.115 126.894 246.63 126.894 247.28ZM133.623 247.28C133.623 246.67 133.713 246.125 133.893 245.645C134.073 245.165 134.308 244.76 134.598 244.43C134.898 244.09 135.238 243.83 135.618 243.65C135.998 243.47 136.393 243.38 136.803 243.38C137.233 243.38 137.593 243.455 137.883 243.605C138.173 243.745 138.448 243.935 138.708 244.175L138.633 243.02V240.485H140.838V251H139.038L138.873 250.235H138.828C138.548 250.505 138.228 250.73 137.868 250.91C137.508 251.09 137.138 251.18 136.758 251.18C136.288 251.18 135.858 251.09 135.468 250.91C135.088 250.73 134.758 250.475 134.478 250.145C134.208 249.805 133.998 249.395 133.848 248.915C133.698 248.435 133.623 247.89 133.623 247.28ZM135.888 247.25C135.888 247.99 136.013 248.53 136.263 248.87C136.513 249.21 136.868 249.38 137.328 249.38C137.578 249.38 137.808 249.33 138.018 249.23C138.228 249.12 138.433 248.94 138.633 248.69V245.675C138.433 245.495 138.228 245.37 138.018 245.3C137.818 245.22 137.608 245.18 137.388 245.18C136.978 245.18 136.623 245.35 136.323 245.69C136.033 246.03 135.888 246.55 135.888 247.25ZM142.737 247.28C142.737 246.67 142.842 246.125 143.052 245.645C143.272 245.165 143.562 244.76 143.922 244.43C144.282 244.09 144.692 243.83 145.152 243.65C145.622 243.47 146.107 243.38 146.607 243.38C147.177 243.38 147.682 243.47 148.122 243.65C148.562 243.83 148.927 244.08 149.217 244.4C149.507 244.72 149.727 245.1 149.877 245.54C150.027 245.97 150.102 246.44 150.102 246.95C150.102 247.15 150.092 247.34 150.072 247.52C150.052 247.7 150.032 247.835 150.012 247.925H145.002C145.082 248.485 145.322 248.89 145.722 249.14C146.132 249.38 146.612 249.5 147.162 249.5C147.502 249.5 147.822 249.46 148.122 249.38C148.432 249.29 148.752 249.16 149.082 248.99L149.802 250.31C149.382 250.58 148.912 250.795 148.392 250.955C147.872 251.105 147.362 251.18 146.862 251.18C146.282 251.18 145.742 251.095 145.242 250.925C144.742 250.745 144.307 250.49 143.937 250.16C143.567 249.82 143.272 249.41 143.052 248.93C142.842 248.45 142.737 247.9 142.737 247.28ZM148.107 246.47C148.107 246.05 147.992 245.71 147.762 245.45C147.532 245.19 147.162 245.06 146.652 245.06C146.252 245.06 145.897 245.175 145.587 245.405C145.277 245.635 145.072 245.99 144.972 246.47H148.107ZM8.65 266.435C8.97 266.715 9.325 266.945 9.715 267.125C10.115 267.305 10.535 267.395 10.975 267.395C11.495 267.395 11.92 267.3 12.25 267.11C12.59 266.91 12.76 266.63 12.76 266.27C12.76 266.06 12.715 265.87 12.625 265.7C12.535 265.53 12.38 265.39 12.16 265.28C11.94 265.16 11.645 265.07 11.275 265.01C10.905 264.94 10.44 264.905 9.88 264.905V263.345C10.82 263.345 11.48 263.23 11.86 263C12.25 262.76 12.445 262.45 12.445 262.07C12.445 261.74 12.32 261.485 12.07 261.305C11.82 261.115 11.475 261.02 11.035 261.02C10.655 261.02 10.305 261.095 9.985 261.245C9.665 261.395 9.34 261.6 9.01 261.86L7.9 260.51C8.37 260.13 8.87 259.835 9.4 259.625C9.94 259.405 10.52 259.295 11.14 259.295C11.66 259.295 12.135 259.355 12.565 259.475C12.995 259.585 13.365 259.755 13.675 259.985C13.985 260.205 14.225 260.475 14.395 260.795C14.565 261.115 14.65 261.485 14.65 261.905C14.65 262.405 14.49 262.83 14.17 263.18C13.85 263.52 13.405 263.8 12.835 264.02V264.08C13.435 264.24 13.94 264.515 14.35 264.905C14.76 265.285 14.965 265.785 14.965 266.405C14.965 266.845 14.86 267.24 14.65 267.59C14.45 267.93 14.175 268.22 13.825 268.46C13.485 268.69 13.085 268.87 12.625 269C12.165 269.12 11.685 269.18 11.185 269.18C10.365 269.18 9.66 269.06 9.07 268.82C8.48 268.57 8 268.24 7.63 267.83L8.65 266.435ZM18.7541 267.425C18.7541 267.175 18.7941 266.945 18.8741 266.735C18.9641 266.515 19.0841 266.325 19.2341 266.165C19.3841 266.005 19.5641 265.88 19.7741 265.79C19.9941 265.7 20.2341 265.655 20.4941 265.655C20.7541 265.655 20.9891 265.7 21.1991 265.79C21.4191 265.88 21.6041 266.005 21.7541 266.165C21.9041 266.325 22.0191 266.515 22.0991 266.735C22.1891 266.945 22.2341 267.175 22.2341 267.425C22.2341 267.925 22.0741 268.345 21.7541 268.685C21.4341 269.015 21.0141 269.18 20.4941 269.18C19.9741 269.18 19.5541 269.015 19.2341 268.685C18.9141 268.345 18.7541 267.925 18.7541 267.425ZM33.0433 267.215V269H26.2183V267.215H28.6783V261.71H26.7133V260.345C27.2733 260.245 27.7483 260.125 28.1383 259.985C28.5383 259.845 28.9133 259.675 29.2633 259.475H30.8833V267.215H33.0433ZM39.0974 265.04V263.435C39.0974 263.135 39.1024 262.79 39.1124 262.4C39.1324 262 39.1524 261.65 39.1724 261.35H39.1124C38.9524 261.62 38.7824 261.89 38.6024 262.16C38.4224 262.43 38.2474 262.7 38.0774 262.97L36.6374 265.04H39.0974ZM42.3524 266.72H41.1524V269H39.0974V266.72H34.5074V265.205L38.4824 259.475H41.1524V265.04H42.3524V266.72Z" fill="white"/>
<rect x="79" width="171" height="31" fill="#333333"/>
<rect x="79" width="171" height="31" fill="#333333"/>
<rect width="79" height="31" fill="#090808"/>
<path d="M12.105 17.8101C12.105 17.5513 11.9756 17.3486 11.7168 17.2021C11.4629 17.0508 11.0527 16.9165 10.4863 16.7993C8.60156 16.4038 7.65918 15.603 7.65918 14.397C7.65918 13.6938 7.94971 13.1079 8.53076 12.6392C9.1167 12.1655 9.88086 11.9287 10.8232 11.9287C11.8291 11.9287 12.6323 12.1655 13.2329 12.6392C13.8384 13.1128 14.1411 13.728 14.1411 14.4849H12.0244C12.0244 14.1821 11.9268 13.9331 11.7314 13.7378C11.5361 13.5376 11.231 13.4375 10.8159 13.4375C10.4595 13.4375 10.1836 13.5181 9.98828 13.6792C9.79297 13.8403 9.69531 14.0454 9.69531 14.2944C9.69531 14.5288 9.80518 14.7192 10.0249 14.8657C10.2495 15.0073 10.6255 15.1318 11.1528 15.2393C11.6802 15.3418 12.1245 15.459 12.4858 15.5908C13.604 16.001 14.1631 16.7114 14.1631 17.7222C14.1631 18.4448 13.853 19.0308 13.2329 19.48C12.6128 19.9243 11.812 20.1465 10.8306 20.1465C10.1665 20.1465 9.57568 20.0293 9.05811 19.7949C8.54541 19.5557 8.14258 19.231 7.84961 18.8208C7.55664 18.4058 7.41016 17.959 7.41016 17.4805H9.41699C9.43652 17.8564 9.57568 18.1445 9.83447 18.3447C10.0933 18.5449 10.4399 18.645 10.8745 18.645C11.2798 18.645 11.585 18.5693 11.79 18.418C12 18.2617 12.105 18.0591 12.105 17.8101ZM18.8286 18.4399C19.2192 18.4399 19.5366 18.3325 19.7808 18.1177C20.0249 17.9028 20.1519 17.6172 20.1616 17.2607H22.1465C22.1416 17.7979 21.9951 18.291 21.707 18.7402C21.4189 19.1846 21.0234 19.5312 20.5205 19.7803C20.0225 20.0244 19.4707 20.1465 18.8652 20.1465C17.7324 20.1465 16.8389 19.7876 16.1846 19.0698C15.5303 18.3472 15.2031 17.3511 15.2031 16.0815V15.9424C15.2031 14.7217 15.5278 13.7476 16.1772 13.02C16.8267 12.2925 17.7178 11.9287 18.8506 11.9287C19.8418 11.9287 20.6353 12.2119 21.231 12.7783C21.8315 13.3398 22.1367 14.0894 22.1465 15.0269H20.1616C20.1519 14.6167 20.0249 14.2847 19.7808 14.0308C19.5366 13.772 19.2144 13.6426 18.814 13.6426C18.3208 13.6426 17.9473 13.8232 17.6934 14.1846C17.4443 14.541 17.3198 15.1221 17.3198 15.9277V16.1475C17.3198 16.9629 17.4443 17.5488 17.6934 17.9053C17.9424 18.2617 18.3208 18.4399 18.8286 18.4399ZM27.8081 14.0601C27.52 14.021 27.2661 14.0015 27.0464 14.0015C26.2456 14.0015 25.7207 14.2725 25.4717 14.8145V20H23.355V12.0752H25.3545L25.4131 13.02C25.8379 12.2925 26.4263 11.9287 27.1782 11.9287C27.4126 11.9287 27.6323 11.9604 27.8374 12.0239L27.8081 14.0601ZM31.0674 20H28.9434V12.0752H31.0674V20ZM28.8188 10.0244C28.8188 9.70703 28.9238 9.4458 29.1338 9.24072C29.3486 9.03564 29.6392 8.93311 30.0054 8.93311C30.3667 8.93311 30.6548 9.03564 30.8696 9.24072C31.0845 9.4458 31.1919 9.70703 31.1919 10.0244C31.1919 10.3467 31.082 10.6104 30.8623 10.8154C30.6475 11.0205 30.3618 11.123 30.0054 11.123C29.6489 11.123 29.3608 11.0205 29.1411 10.8154C28.9263 10.6104 28.8188 10.3467 28.8188 10.0244ZM39.9517 16.1108C39.9517 17.3315 39.6733 18.3105 39.1167 19.0479C38.5649 19.7803 37.8179 20.1465 36.8755 20.1465C36.0747 20.1465 35.4277 19.8682 34.9346 19.3115V23.0469H32.8179V12.0752H34.7808L34.854 12.8516C35.3667 12.2363 36.0356 11.9287 36.8608 11.9287C37.8374 11.9287 38.5967 12.29 39.1387 13.0127C39.6807 13.7354 39.9517 14.7314 39.9517 16.001V16.1108ZM37.835 15.957C37.835 15.2197 37.7031 14.6509 37.4395 14.2505C37.1807 13.8501 36.8022 13.6499 36.3042 13.6499C35.6401 13.6499 35.1836 13.9038 34.9346 14.4116V17.6562C35.1934 18.1787 35.6548 18.4399 36.3188 18.4399C37.3296 18.4399 37.835 17.6123 37.835 15.957ZM43.8042 10.127V12.0752H45.1592V13.6279H43.8042V17.583C43.8042 17.876 43.8604 18.0859 43.9727 18.2129C44.085 18.3398 44.2998 18.4033 44.6172 18.4033C44.8516 18.4033 45.0591 18.3862 45.2397 18.3521V19.9561C44.8247 20.083 44.3975 20.1465 43.958 20.1465C42.4736 20.1465 41.7168 19.397 41.6875 17.8979V13.6279H40.5303V12.0752H41.6875V10.127H43.8042ZM46.4482 18.96C46.4482 18.623 46.5605 18.3496 46.7852 18.1396C47.0146 17.9297 47.3003 17.8247 47.6421 17.8247C47.9888 17.8247 48.2744 17.9297 48.499 18.1396C48.7285 18.3496 48.8433 18.623 48.8433 18.96C48.8433 19.292 48.731 19.563 48.5063 19.7729C48.2817 19.978 47.9937 20.0806 47.6421 20.0806C47.2954 20.0806 47.0098 19.978 46.7852 19.7729C46.5605 19.563 46.4482 19.292 46.4482 18.96ZM57.8374 16.1108C57.8374 17.3315 57.5591 18.3105 57.0024 19.0479C56.4507 19.7803 55.7036 20.1465 54.7612 20.1465C53.9604 20.1465 53.3135 19.8682 52.8203 19.3115V23.0469H50.7036V12.0752H52.6665L52.7397 12.8516C53.2524 12.2363 53.9214 11.9287 54.7466 11.9287C55.7231 11.9287 56.4824 12.29 57.0244 13.0127C57.5664 13.7354 57.8374 14.7314 57.8374 16.001V16.1108ZM55.7207 15.957C55.7207 15.2197 55.5889 14.6509 55.3252 14.2505C55.0664 13.8501 54.688 13.6499 54.1899 13.6499C53.5259 13.6499 53.0693 13.9038 52.8203 14.4116V17.6562C53.0791 18.1787 53.5405 18.4399 54.2046 18.4399C55.2153 18.4399 55.7207 17.6123 55.7207 15.957ZM62.0269 17.0044L63.4917 12.0752H65.7622L62.5762 21.2305L62.4004 21.6479C61.9268 22.6831 61.1455 23.2007 60.0566 23.2007C59.749 23.2007 59.4365 23.1543 59.1191 23.0615V21.4575L59.4414 21.4648C59.8418 21.4648 60.1396 21.4038 60.335 21.2817C60.5352 21.1597 60.6914 20.957 60.8037 20.6738L61.0527 20.022L58.2769 12.0752H60.5547L62.0269 17.0044Z" fill="white"/>
<path d="M10.135 47.13L7.72 43.56H10.09L10.855 44.76C10.965 44.97 11.09 45.185 11.23 45.405C11.37 45.615 11.505 45.825 11.635 46.035H11.695C11.795 45.825 11.895 45.61 11.995 45.39C12.105 45.17 12.21 44.96 12.31 44.76L12.97 43.56H15.28L12.85 47.385L15.43 51H13.06L12.205 49.77C12.065 49.56 11.92 49.345 11.77 49.125C11.63 48.905 11.49 48.69 11.35 48.48H11.29C11.18 48.69 11.065 48.905 10.945 49.125C10.825 49.335 10.71 49.55 10.6 49.77L9.865 51H7.555L10.135 47.13ZM26.0383 43.53H32.9383V45.09H26.0383V43.53ZM26.0383 46.995H32.9383V48.555H26.0383V46.995ZM54.7307 49.425C54.7307 49.175 54.7707 48.945 54.8507 48.735C54.9407 48.515 55.0607 48.325 55.2107 48.165C55.3607 48.005 55.5407 47.88 55.7507 47.79C55.9707 47.7 56.2107 47.655 56.4707 47.655C56.7307 47.655 56.9657 47.7 57.1757 47.79C57.3957 47.88 57.5807 48.005 57.7307 48.165C57.8807 48.325 57.9957 48.515 58.0757 48.735C58.1657 48.945 58.2107 49.175 58.2107 49.425C58.2107 49.925 58.0507 50.345 57.7307 50.685C57.4107 51.015 56.9907 51.18 56.4707 51.18C55.9507 51.18 55.5307 51.015 55.2107 50.685C54.8907 50.345 54.7307 49.925 54.7307 49.425ZM57.8507 90.685C56.8707 89.815 56.0957 88.81 55.5257 87.67C54.9657 86.53 54.6857 85.25 54.6857 83.83C54.6857 82.41 54.9657 81.13 55.5257 79.99C56.0957 78.85 56.8707 77.845 57.8507 76.975L59.0807 77.95C58.1907 78.82 57.5407 79.725 57.1307 80.665C56.7307 81.595 56.5307 82.65 56.5307 83.83C56.5307 84.42 56.5807 84.98 56.6807 85.51C56.7807 86.03 56.9307 86.53 57.1307 87.01C57.3407 87.49 57.6057 87.95 57.9257 88.39C58.2457 88.84 58.6307 89.28 59.0807 89.71L57.8507 90.685ZM179.779 89.71C180.229 89.28 180.614 88.84 180.934 88.39C181.254 87.95 181.514 87.49 181.714 87.01C181.924 86.53 182.079 86.03 182.179 85.51C182.279 84.98 182.329 84.42 182.329 83.83C182.329 82.65 182.124 81.595 181.714 80.665C181.314 79.725 180.669 78.82 179.779 77.95L181.009 76.975C181.989 77.845 182.759 78.85 183.319 79.99C183.889 81.13 184.174 82.41 184.174 83.83C184.174 85.25 183.889 86.53 183.319 87.67C182.759 88.81 181.989 89.815 181.009 90.685L179.779 89.71ZM57.8507 109.685C56.8707 108.815 56.0957 107.81 55.5257 106.67C54.9657 105.53 54.6857 104.25 54.6857 102.83C54.6857 101.41 54.9657 100.13 55.5257 98.99C56.0957 97.85 56.8707 96.845 57.8507 95.975L59.0807 96.95C58.1907 97.82 57.5407 98.725 57.1307 99.665C56.7307 100.595 56.5307 101.65 56.5307 102.83C56.5307 103.42 56.5807 103.98 56.6807 104.51C56.7807 105.03 56.9307 105.53 57.1307 106.01C57.3407 106.49 57.6057 106.95 57.9257 107.39C58.2457 107.84 58.6307 108.28 59.0807 108.71L57.8507 109.685ZM224.749 108.71C225.199 108.28 225.584 107.84 225.904 107.39C226.224 106.95 226.484 106.49 226.684 106.01C226.894 105.53 227.049 105.03 227.149 104.51C227.249 103.98 227.299 103.42 227.299 102.83C227.299 101.65 227.094 100.595 226.684 99.665C226.284 98.725 225.639 97.82 224.749 96.95L225.979 95.975C226.959 96.845 227.729 97.85 228.289 98.99C228.859 100.13 229.144 101.41 229.144 102.83C229.144 104.25 228.859 105.53 228.289 106.67C227.729 107.81 226.959 108.815 225.979 109.685L224.749 108.71ZM10.135 160.13L7.72 156.56H10.09L10.855 157.76C10.965 157.97 11.09 158.185 11.23 158.405C11.37 158.615 11.505 158.825 11.635 159.035H11.695C11.795 158.825 11.895 158.61 11.995 158.39C12.105 158.17 12.21 157.96 12.31 157.76L12.97 156.56H15.28L12.85 160.385L15.43 164H13.06L12.205 162.77C12.065 162.56 11.92 162.345 11.77 162.125C11.63 161.905 11.49 161.69 11.35 161.48H11.29C11.18 161.69 11.065 161.905 10.945 162.125C10.825 162.335 10.71 162.55 10.6 162.77L9.865 164H7.555L10.135 160.13Z" fill="white"/>
<path d="M44.6266 48.435C44.9466 48.715 45.3016 48.945 45.6916 49.125C46.0916 49.305 46.5116 49.395 46.9516 49.395C47.4716 49.395 47.8966 49.3 48.2266 49.11C48.5666 48.91 48.7366 48.63 48.7366 48.27C48.7366 48.06 48.6916 47.87 48.6016 47.7C48.5116 47.53 48.3566 47.39 48.1366 47.28C47.9166 47.16 47.6216 47.07 47.2516 47.01C46.8816 46.94 46.4166 46.905 45.8566 46.905V45.345C46.7966 45.345 47.4566 45.23 47.8366 45C48.2266 44.76 48.4216 44.45 48.4216 44.07C48.4216 43.74 48.2966 43.485 48.0466 43.305C47.7966 43.115 47.4516 43.02 47.0116 43.02C46.6316 43.02 46.2816 43.095 45.9616 43.245C45.6416 43.395 45.3166 43.6 44.9866 43.86L43.8766 42.51C44.3466 42.13 44.8466 41.835 45.3766 41.625C45.9166 41.405 46.4966 41.295 47.1166 41.295C47.6366 41.295 48.1116 41.355 48.5416 41.475C48.9716 41.585 49.3416 41.755 49.6516 41.985C49.9616 42.205 50.2016 42.475 50.3716 42.795C50.5416 43.115 50.6266 43.485 50.6266 43.905C50.6266 44.405 50.4666 44.83 50.1466 45.18C49.8266 45.52 49.3816 45.8 48.8116 46.02V46.08C49.4116 46.24 49.9166 46.515 50.3266 46.905C50.7366 47.285 50.9416 47.785 50.9416 48.405C50.9416 48.845 50.8366 49.24 50.6266 49.59C50.4266 49.93 50.1516 50.22 49.8016 50.46C49.4616 50.69 49.0616 50.87 48.6016 51C48.1416 51.12 47.6616 51.18 47.1616 51.18C46.3416 51.18 45.6366 51.06 45.0466 50.82C44.4566 50.57 43.9766 50.24 43.6066 49.83L44.6266 48.435ZM69.0198 49.215V51H62.1948V49.215H64.6548V43.71H62.6898V42.345C63.2498 42.245 63.7248 42.125 64.1148 41.985C64.5148 41.845 64.8898 41.675 65.2398 41.475H66.8598V49.215H69.0198ZM75.074 47.04V45.435C75.074 45.135 75.079 44.79 75.089 44.4C75.109 44 75.129 43.65 75.149 43.35H75.089C74.929 43.62 74.759 43.89 74.579 44.16C74.399 44.43 74.224 44.7 74.054 44.97L72.614 47.04H75.074ZM78.329 48.72H77.129V51H75.074V48.72H70.484V47.205L74.459 41.475H77.129V47.04H78.329V48.72Z" fill="#F0E442"/>
<path d="M10.285 88.585V90.76H8.08V80.56H9.88L10.045 81.31H10.09C10.39 81.04 10.735 80.82 11.125 80.65C11.515 80.47 11.91 80.38 12.31 80.38C12.77 80.38 13.185 80.47 13.555 80.65C13.925 80.83 14.24 81.085 14.5 81.415C14.76 81.745 14.955 82.145 15.085 82.615C15.225 83.075 15.295 83.59 15.295 84.16C15.295 84.8 15.205 85.37 15.025 85.87C14.845 86.36 14.605 86.78 14.305 87.13C14.005 87.47 13.66 87.73 13.27 87.91C12.89 88.09 12.49 88.18 12.07 88.18C11.39 88.18 10.77 87.91 10.21 87.37L10.285 88.585ZM10.285 85.885C10.495 86.065 10.71 86.195 10.93 86.275C11.16 86.345 11.37 86.38 11.56 86.38C11.98 86.38 12.33 86.21 12.61 85.87C12.89 85.52 13.03 84.96 13.03 84.19C13.03 82.85 12.575 82.18 11.665 82.18C11.195 82.18 10.735 82.41 10.285 82.87V85.885ZM17.7341 80.56H19.5341L19.7141 82.18H19.7591C20.1291 81.57 20.5741 81.12 21.0941 80.83C21.6141 80.53 22.1741 80.38 22.7741 80.38C23.1041 80.38 23.3691 80.405 23.5691 80.455C23.7791 80.505 23.9941 80.58 24.2141 80.68L23.7641 82.525C23.5341 82.455 23.3241 82.405 23.1341 82.375C22.9541 82.335 22.7241 82.315 22.4441 82.315C21.9841 82.315 21.5291 82.45 21.0791 82.72C20.6391 82.99 20.2591 83.46 19.9391 84.13V88H17.7341V80.56ZM26.1733 80.56H31.3633V88H29.1583V82.285H26.1733V80.56ZM30.1633 79.465C29.7333 79.465 29.3783 79.345 29.0983 79.105C28.8283 78.865 28.6933 78.54 28.6933 78.13C28.6933 77.72 28.8283 77.39 29.0983 77.14C29.3783 76.88 29.7333 76.75 30.1633 76.75C30.5933 76.75 30.9433 76.88 31.2133 77.14C31.4933 77.39 31.6333 77.72 31.6333 78.13C31.6333 78.54 31.4933 78.865 31.2133 79.105C30.9433 79.345 30.5933 79.465 30.1633 79.465ZM35.0624 80.56H36.8624L37.0274 81.55H37.0874C37.4074 81.23 37.7724 80.955 38.1824 80.725C38.6024 80.495 39.0924 80.38 39.6524 80.38C40.4924 80.38 41.1074 80.65 41.4974 81.19C41.8874 81.73 42.0824 82.47 42.0824 83.41V88H39.8774V83.695C39.8774 83.195 39.7974 82.83 39.6374 82.6C39.4774 82.37 39.1924 82.255 38.7824 82.255C38.4824 82.255 38.2174 82.32 37.9874 82.45C37.7674 82.58 37.5274 82.775 37.2674 83.035V88H35.0624V80.56ZM45.5866 82.285H43.7116V80.65L45.6916 80.56L45.9766 78.58H47.7916V80.56H50.9416V82.285H47.7916V84.895C47.7916 85.465 47.9166 85.87 48.1666 86.11C48.4166 86.34 48.8116 86.455 49.3516 86.455C49.6416 86.455 49.9066 86.43 50.1466 86.38C50.3866 86.33 50.6166 86.265 50.8366 86.185L51.2266 87.775C50.8966 87.875 50.5266 87.965 50.1166 88.045C49.7166 88.135 49.2766 88.18 48.7966 88.18C48.2066 88.18 47.7066 88.1 47.2966 87.94C46.8866 87.78 46.5516 87.56 46.2916 87.28C46.0416 86.99 45.8616 86.645 45.7516 86.245C45.6416 85.845 45.5866 85.4 45.5866 84.91V82.285ZM10.285 107.585V109.76H8.08V99.56H9.88L10.045 100.31H10.09C10.39 100.04 10.735 99.82 11.125 99.65C11.515 99.47 11.91 99.38 12.31 99.38C12.77 99.38 13.185 99.47 13.555 99.65C13.925 99.83 14.24 100.085 14.5 100.415C14.76 100.745 14.955 101.145 15.085 101.615C15.225 102.075 15.295 102.59 15.295 103.16C15.295 103.8 15.205 104.37 15.025 104.87C14.845 105.36 14.605 105.78 14.305 106.13C14.005 106.47 13.66 106.73 13.27 106.91C12.89 107.09 12.49 107.18 12.07 107.18C11.39 107.18 10.77 106.91 10.21 106.37L10.285 107.585ZM10.285 104.885C10.495 105.065 10.71 105.195 10.93 105.275C11.16 105.345 11.37 105.38 11.56 105.38C11.98 105.38 12.33 105.21 12.61 104.87C12.89 104.52 13.03 103.96 13.03 103.19C13.03 101.85 12.575 101.18 11.665 101.18C11.195 101.18 10.735 101.41 10.285 101.87V104.885ZM17.7341 99.56H19.5341L19.7141 101.18H19.7591C20.1291 100.57 20.5741 100.12 21.0941 99.83C21.6141 99.53 22.1741 99.38 22.7741 99.38C23.1041 99.38 23.3691 99.405 23.5691 99.455C23.7791 99.505 23.9941 99.58 24.2141 99.68L23.7641 101.525C23.5341 101.455 23.3241 101.405 23.1341 101.375C22.9541 101.335 22.7241 101.315 22.4441 101.315C21.9841 101.315 21.5291 101.45 21.0791 101.72C20.6391 101.99 20.2591 102.46 19.9391 103.13V107H17.7341V99.56ZM26.1733 99.56H31.3633V107H29.1583V101.285H26.1733V99.56ZM30.1633 98.465C29.7333 98.465 29.3783 98.345 29.0983 98.105C28.8283 97.865 28.6933 97.54 28.6933 97.13C28.6933 96.72 28.8283 96.39 29.0983 96.14C29.3783 95.88 29.7333 95.75 30.1633 95.75C30.5933 95.75 30.9433 95.88 31.2133 96.14C31.4933 96.39 31.6333 96.72 31.6333 97.13C31.6333 97.54 31.4933 97.865 31.2133 98.105C30.9433 98.345 30.5933 98.465 30.1633 98.465ZM35.0624 99.56H36.8624L37.0274 100.55H37.0874C37.4074 100.23 37.7724 99.955 38.1824 99.725C38.6024 99.495 39.0924 99.38 39.6524 99.38C40.4924 99.38 41.1074 99.65 41.4974 100.19C41.8874 100.73 42.0824 101.47 42.0824 102.41V107H39.8774V102.695C39.8774 102.195 39.7974 101.83 39.6374 101.6C39.4774 101.37 39.1924 101.255 38.7824 101.255C38.4824 101.255 38.2174 101.32 37.9874 101.45C37.7674 101.58 37.5274 101.775 37.2674 102.035V107H35.0624V99.56ZM45.5866 101.285H43.7116V99.65L45.6916 99.56L45.9766 97.58H47.7916V99.56H50.9416V101.285H47.7916V103.895C47.7916 104.465 47.9166 104.87 48.1666 105.11C48.4166 105.34 48.8116 105.455 49.3516 105.455C49.6416 105.455 49.9066 105.43 50.1466 105.38C50.3866 105.33 50.6166 105.265 50.8366 105.185L51.2266 106.775C50.8966 106.875 50.5266 106.965 50.1166 107.045C49.7166 107.135 49.2766 107.18 48.7966 107.18C48.2066 107.18 47.7066 107.1 47.2966 106.94C46.8866 106.78 46.5516 106.56 46.2916 106.28C46.0416 105.99 45.8616 105.645 45.7516 105.245C45.6416 104.845 45.5866 104.4 45.5866 103.91V101.285Z" fill="#56B4E9"/>
<path d="M64.2648 79.9L64.1898 77.725H66.7398L66.6648 79.9L66.1398 83.455H64.7898L64.2648 79.9ZM71.699 80.56H73.499L73.679 82.18H73.724C74.094 81.57 74.539 81.12 75.059 80.83C75.579 80.53 76.139 80.38 76.739 80.38C77.069 80.38 77.334 80.405 77.534 80.455C77.744 80.505 77.959 80.58 78.179 80.68L77.729 82.525C77.499 82.455 77.289 82.405 77.099 82.375C76.919 82.335 76.689 82.315 76.409 82.315C75.949 82.315 75.494 82.45 75.044 82.72C74.604 82.99 74.224 83.46 73.904 84.13V88H71.699V80.56ZM79.8681 85.93C79.8681 85.51 79.9581 85.145 80.1381 84.835C80.3181 84.515 80.6031 84.245 80.9931 84.025C81.3931 83.805 81.9031 83.63 82.5231 83.5C83.1431 83.36 83.8931 83.265 84.7731 83.215C84.7331 82.875 84.5831 82.61 84.3231 82.42C84.0731 82.23 83.6931 82.135 83.1831 82.135C82.8231 82.135 82.4581 82.2 82.0881 82.33C81.7281 82.45 81.3381 82.615 80.9181 82.825L80.1381 81.385C80.6481 81.095 81.1931 80.855 81.7731 80.665C82.3631 80.475 82.9781 80.38 83.6181 80.38C84.6581 80.38 85.4781 80.655 86.0781 81.205C86.6781 81.755 86.9781 82.6 86.9781 83.74V88H85.1781L85.0131 87.16H84.9531C84.5731 87.45 84.1581 87.695 83.7081 87.895C83.2581 88.085 82.7931 88.18 82.3131 88.18C81.9331 88.18 81.5931 88.12 81.2931 88C80.9931 87.89 80.7381 87.735 80.5281 87.535C80.3181 87.325 80.1531 87.085 80.0331 86.815C79.9231 86.545 79.8681 86.25 79.8681 85.93ZM81.9831 85.765C81.9831 86.005 82.0731 86.185 82.2531 86.305C82.4431 86.415 82.6981 86.47 83.0181 86.47C83.3481 86.47 83.6581 86.405 83.9481 86.275C84.2381 86.135 84.5131 85.965 84.7731 85.765V84.535C84.2231 84.565 83.7681 84.615 83.4081 84.685C83.0481 84.755 82.7631 84.845 82.5531 84.955C82.3431 85.055 82.1931 85.175 82.1031 85.315C82.0231 85.455 81.9831 85.605 81.9831 85.765ZM89.0273 80.56H90.8273L90.9923 81.55H91.0523C91.3723 81.23 91.7373 80.955 92.1473 80.725C92.5673 80.495 93.0573 80.38 93.6173 80.38C94.4573 80.38 95.0723 80.65 95.4623 81.19C95.8523 81.73 96.0473 82.47 96.0473 83.41V88H93.8423V83.695C93.8423 83.195 93.7623 82.83 93.6023 82.6C93.4423 82.37 93.1573 82.255 92.7473 82.255C92.4473 82.255 92.1823 82.32 91.9523 82.45C91.7323 82.58 91.4923 82.775 91.2323 83.035V88H89.0273V80.56ZM97.6464 84.28C97.6464 83.67 97.7364 83.125 97.9164 82.645C98.0964 82.165 98.3314 81.76 98.6214 81.43C98.9214 81.09 99.2614 80.83 99.6414 80.65C100.021 80.47 100.416 80.38 100.826 80.38C101.256 80.38 101.616 80.455 101.906 80.605C102.196 80.745 102.471 80.935 102.731 81.175L102.656 80.02V77.485H104.861V88H103.061L102.896 87.235H102.851C102.571 87.505 102.251 87.73 101.891 87.91C101.531 88.09 101.161 88.18 100.781 88.18C100.311 88.18 99.8814 88.09 99.4914 87.91C99.1114 87.73 98.7814 87.475 98.5014 87.145C98.2314 86.805 98.0214 86.395 97.8714 85.915C97.7214 85.435 97.6464 84.89 97.6464 84.28ZM99.9114 84.25C99.9114 84.99 100.036 85.53 100.286 85.87C100.536 86.21 100.891 86.38 101.351 86.38C101.601 86.38 101.831 86.33 102.041 86.23C102.251 86.12 102.456 85.94 102.656 85.69V82.675C102.456 82.495 102.251 82.37 102.041 82.3C101.841 82.22 101.631 82.18 101.411 82.18C101.001 82.18 100.646 82.35 100.346 82.69C100.056 83.03 99.9114 83.55 99.9114 84.25ZM106.641 84.28C106.641 83.66 106.746 83.11 106.956 82.63C107.166 82.14 107.446 81.73 107.796 81.4C108.156 81.07 108.561 80.82 109.011 80.65C109.471 80.47 109.946 80.38 110.436 80.38C110.926 80.38 111.396 80.47 111.846 80.65C112.306 80.82 112.711 81.07 113.061 81.4C113.421 81.73 113.706 82.14 113.916 82.63C114.126 83.11 114.231 83.66 114.231 84.28C114.231 84.9 114.126 85.455 113.916 85.945C113.706 86.425 113.421 86.83 113.061 87.16C112.711 87.49 112.306 87.745 111.846 87.925C111.396 88.095 110.926 88.18 110.436 88.18C109.946 88.18 109.471 88.095 109.011 87.925C108.561 87.745 108.156 87.49 107.796 87.16C107.446 86.83 107.166 86.425 106.956 85.945C106.746 85.455 106.641 84.9 106.641 84.28ZM108.906 84.28C108.906 84.93 109.031 85.445 109.281 85.825C109.541 86.205 109.926 86.395 110.436 86.395C110.946 86.395 111.326 86.205 111.576 85.825C111.836 85.445 111.966 84.93 111.966 84.28C111.966 83.63 111.836 83.115 111.576 82.735C111.326 82.355 110.946 82.165 110.436 82.165C109.926 82.165 109.541 82.355 109.281 82.735C109.031 83.115 108.906 83.63 108.906 84.28ZM115.47 80.56H117.12L117.285 81.49H117.345C117.485 81.18 117.675 80.92 117.915 80.71C118.165 80.49 118.505 80.38 118.935 80.38C119.265 80.38 119.54 80.485 119.76 80.695C119.99 80.895 120.15 81.195 120.24 81.595C120.38 81.255 120.58 80.97 120.84 80.74C121.11 80.5 121.455 80.38 121.875 80.38C122.395 80.38 122.8 80.595 123.09 81.025C123.38 81.445 123.525 82.03 123.525 82.78V88H121.455V82.945C121.455 82.485 121.315 82.255 121.035 82.255C120.765 82.255 120.535 82.495 120.345 82.975V88H118.65V82.945C118.65 82.485 118.505 82.255 118.215 82.255C118.075 82.255 117.955 82.315 117.855 82.435C117.755 82.555 117.65 82.735 117.54 82.975V88H115.47V80.56ZM133.923 84.28C133.923 83.66 134.038 83.11 134.268 82.63C134.508 82.14 134.823 81.73 135.213 81.4C135.613 81.07 136.073 80.82 136.593 80.65C137.113 80.47 137.658 80.38 138.228 80.38C138.818 80.38 139.348 80.475 139.818 80.665C140.298 80.855 140.698 81.095 141.018 81.385L139.998 82.75C139.448 82.36 138.898 82.165 138.348 82.165C137.708 82.165 137.188 82.355 136.788 82.735C136.388 83.115 136.188 83.63 136.188 84.28C136.188 84.93 136.378 85.445 136.758 85.825C137.148 86.205 137.653 86.395 138.273 86.395C138.663 86.395 139.023 86.325 139.353 86.185C139.683 86.045 139.978 85.88 140.238 85.69L141.138 87.085C140.688 87.465 140.188 87.745 139.638 87.925C139.098 88.095 138.573 88.18 138.063 88.18C137.473 88.18 136.928 88.095 136.428 87.925C135.928 87.745 135.488 87.49 135.108 87.16C134.738 86.83 134.448 86.425 134.238 85.945C134.028 85.455 133.923 84.9 133.923 84.28ZM142.617 84.28C142.617 83.66 142.722 83.11 142.932 82.63C143.142 82.14 143.422 81.73 143.772 81.4C144.132 81.07 144.537 80.82 144.987 80.65C145.447 80.47 145.922 80.38 146.412 80.38C146.902 80.38 147.372 80.47 147.822 80.65C148.282 80.82 148.687 81.07 149.037 81.4C149.397 81.73 149.682 82.14 149.892 82.63C150.102 83.11 150.207 83.66 150.207 84.28C150.207 84.9 150.102 85.455 149.892 85.945C149.682 86.425 149.397 86.83 149.037 87.16C148.687 87.49 148.282 87.745 147.822 87.925C147.372 88.095 146.902 88.18 146.412 88.18C145.922 88.18 145.447 88.095 144.987 87.925C144.537 87.745 144.132 87.49 143.772 87.16C143.422 86.83 143.142 86.425 142.932 85.945C142.722 85.455 142.617 84.9 142.617 84.28ZM144.882 84.28C144.882 84.93 145.007 85.445 145.257 85.825C145.517 86.205 145.902 86.395 146.412 86.395C146.922 86.395 147.302 86.205 147.552 85.825C147.812 85.445 147.942 84.93 147.942 84.28C147.942 83.63 147.812 83.115 147.552 82.735C147.302 82.355 146.922 82.165 146.412 82.165C145.902 82.165 145.517 82.355 145.257 82.735C145.007 83.115 144.882 83.63 144.882 84.28ZM151.611 84.28C151.611 83.67 151.701 83.125 151.881 82.645C152.061 82.165 152.296 81.76 152.586 81.43C152.886 81.09 153.226 80.83 153.606 80.65C153.986 80.47 154.381 80.38 154.791 80.38C155.221 80.38 155.581 80.455 155.871 80.605C156.161 80.745 156.436 80.935 156.696 81.175L156.621 80.02V77.485H158.826V88H157.026L156.861 87.235H156.816C156.536 87.505 156.216 87.73 155.856 87.91C155.496 88.09 155.126 88.18 154.746 88.18C154.276 88.18 153.846 88.09 153.456 87.91C153.076 87.73 152.746 87.475 152.466 87.145C152.196 86.805 151.986 86.395 151.836 85.915C151.686 85.435 151.611 84.89 151.611 84.28ZM153.876 84.25C153.876 84.99 154.001 85.53 154.251 85.87C154.501 86.21 154.856 86.38 155.316 86.38C155.566 86.38 155.796 86.33 156.006 86.23C156.216 86.12 156.421 85.94 156.621 85.69V82.675C156.421 82.495 156.216 82.37 156.006 82.3C155.806 82.22 155.596 82.18 155.376 82.18C154.966 82.18 154.611 82.35 154.311 82.69C154.021 83.03 153.876 83.55 153.876 84.25ZM160.725 84.28C160.725 83.67 160.83 83.125 161.04 82.645C161.26 82.165 161.55 81.76 161.91 81.43C162.27 81.09 162.68 80.83 163.14 80.65C163.61 80.47 164.095 80.38 164.595 80.38C165.165 80.38 165.67 80.47 166.11 80.65C166.55 80.83 166.915 81.08 167.205 81.4C167.495 81.72 167.715 82.1 167.865 82.54C168.015 82.97 168.09 83.44 168.09 83.95C168.09 84.15 168.08 84.34 168.06 84.52C168.04 84.7 168.02 84.835 168 84.925H162.99C163.07 85.485 163.31 85.89 163.71 86.14C164.12 86.38 164.6 86.5 165.15 86.5C165.49 86.5 165.81 86.46 166.11 86.38C166.42 86.29 166.74 86.16 167.07 85.99L167.79 87.31C167.37 87.58 166.9 87.795 166.38 87.955C165.86 88.105 165.35 88.18 164.85 88.18C164.27 88.18 163.73 88.095 163.23 87.925C162.73 87.745 162.295 87.49 161.925 87.16C161.555 86.82 161.26 86.41 161.04 85.93C160.83 85.45 160.725 84.9 160.725 84.28ZM166.095 83.47C166.095 83.05 165.98 82.71 165.75 82.45C165.52 82.19 165.15 82.06 164.64 82.06C164.24 82.06 163.885 82.175 163.575 82.405C163.265 82.635 163.06 82.99 162.96 83.47H166.095ZM172.195 79.9L172.12 77.725H174.67L174.595 79.9L174.07 83.455H172.72L172.195 79.9ZM64.2648 98.9L64.1898 96.725H66.7398L66.6648 98.9L66.1398 102.455H64.7898L64.2648 98.9ZM70.499 99.56H72.149L72.314 100.49H72.374C72.514 100.18 72.704 99.92 72.944 99.71C73.194 99.49 73.534 99.38 73.964 99.38C74.294 99.38 74.569 99.485 74.789 99.695C75.019 99.895 75.179 100.195 75.269 100.595C75.409 100.255 75.609 99.97 75.869 99.74C76.139 99.5 76.484 99.38 76.904 99.38C77.424 99.38 77.829 99.595 78.119 100.025C78.409 100.445 78.554 101.03 78.554 101.78V107H76.484V101.945C76.484 101.485 76.344 101.255 76.064 101.255C75.794 101.255 75.564 101.495 75.374 101.975V107H73.679V101.945C73.679 101.485 73.534 101.255 73.244 101.255C73.104 101.255 72.984 101.315 72.884 101.435C72.784 101.555 72.679 101.735 72.569 101.975V107H70.499V99.56ZM79.6581 103.28C79.6581 102.66 79.7631 102.11 79.9731 101.63C80.1831 101.14 80.4631 100.73 80.8131 100.4C81.1731 100.07 81.5781 99.82 82.0281 99.65C82.4881 99.47 82.9631 99.38 83.4531 99.38C83.9431 99.38 84.4131 99.47 84.8631 99.65C85.3231 99.82 85.7281 100.07 86.0781 100.4C86.4381 100.73 86.7231 101.14 86.9331 101.63C87.1431 102.11 87.2481 102.66 87.2481 103.28C87.2481 103.9 87.1431 104.455 86.9331 104.945C86.7231 105.425 86.4381 105.83 86.0781 106.16C85.7281 106.49 85.3231 106.745 84.8631 106.925C84.4131 107.095 83.9431 107.18 83.4531 107.18C82.9631 107.18 82.4881 107.095 82.0281 106.925C81.5781 106.745 81.1731 106.49 80.8131 106.16C80.4631 105.83 80.1831 105.425 79.9731 104.945C79.7631 104.455 79.6581 103.9 79.6581 103.28ZM81.9231 103.28C81.9231 103.93 82.0481 104.445 82.2981 104.825C82.5581 105.205 82.9431 105.395 83.4531 105.395C83.9631 105.395 84.3431 105.205 84.5931 104.825C84.8531 104.445 84.9831 103.93 84.9831 103.28C84.9831 102.63 84.8531 102.115 84.5931 101.735C84.3431 101.355 83.9631 101.165 83.4531 101.165C82.9431 101.165 82.5581 101.355 82.2981 101.735C82.0481 102.115 81.9231 102.63 81.9231 103.28ZM89.6873 99.56H91.4873L91.6673 101.18H91.7123C92.0823 100.57 92.5273 100.12 93.0473 99.83C93.5673 99.53 94.1273 99.38 94.7273 99.38C95.0573 99.38 95.3223 99.405 95.5223 99.455C95.7323 99.505 95.9473 99.58 96.1673 99.68L95.7173 101.525C95.4873 101.455 95.2773 101.405 95.0873 101.375C94.9073 101.335 94.6773 101.315 94.3973 101.315C93.9373 101.315 93.4823 101.45 93.0323 101.72C92.5923 101.99 92.2123 102.46 91.8923 103.13V107H89.6873V99.56ZM97.7664 103.28C97.7664 102.67 97.8714 102.125 98.0814 101.645C98.3014 101.165 98.5914 100.76 98.9514 100.43C99.3114 100.09 99.7214 99.83 100.181 99.65C100.651 99.47 101.136 99.38 101.636 99.38C102.206 99.38 102.711 99.47 103.151 99.65C103.591 99.83 103.956 100.08 104.246 100.4C104.536 100.72 104.756 101.1 104.906 101.54C105.056 101.97 105.131 102.44 105.131 102.95C105.131 103.15 105.121 103.34 105.101 103.52C105.081 103.7 105.061 103.835 105.041 103.925H100.031C100.111 104.485 100.351 104.89 100.751 105.14C101.161 105.38 101.641 105.5 102.191 105.5C102.531 105.5 102.851 105.46 103.151 105.38C103.461 105.29 103.781 105.16 104.111 104.99L104.831 106.31C104.411 106.58 103.941 106.795 103.421 106.955C102.901 107.105 102.391 107.18 101.891 107.18C101.311 107.18 100.771 107.095 100.271 106.925C99.7714 106.745 99.3364 106.49 98.9664 106.16C98.5964 105.82 98.3014 105.41 98.0814 104.93C97.8714 104.45 97.7664 103.9 97.7664 103.28ZM103.136 102.47C103.136 102.05 103.021 101.71 102.791 101.45C102.561 101.19 102.191 101.06 101.681 101.06C101.281 101.06 100.926 101.175 100.616 101.405C100.306 101.635 100.101 101.99 100.001 102.47H103.136ZM116.67 99.56H118.47L118.65 101.18H118.695C119.065 100.57 119.51 100.12 120.03 99.83C120.55 99.53 121.11 99.38 121.71 99.38C122.04 99.38 122.305 99.405 122.505 99.455C122.715 99.505 122.93 99.58 123.15 99.68L122.7 101.525C122.47 101.455 122.26 101.405 122.07 101.375C121.89 101.335 121.66 101.315 121.38 101.315C120.92 101.315 120.465 101.45 120.015 101.72C119.575 101.99 119.195 102.46 118.875 103.13V107H116.67V99.56ZM124.839 104.93C124.839 104.51 124.929 104.145 125.109 103.835C125.289 103.515 125.574 103.245 125.964 103.025C126.364 102.805 126.874 102.63 127.494 102.5C128.114 102.36 128.864 102.265 129.744 102.215C129.704 101.875 129.554 101.61 129.294 101.42C129.044 101.23 128.664 101.135 128.154 101.135C127.794 101.135 127.429 101.2 127.059 101.33C126.699 101.45 126.309 101.615 125.889 101.825L125.109 100.385C125.619 100.095 126.164 99.855 126.744 99.665C127.334 99.475 127.949 99.38 128.589 99.38C129.629 99.38 130.449 99.655 131.049 100.205C131.649 100.755 131.949 101.6 131.949 102.74V107H130.149L129.984 106.16H129.924C129.544 106.45 129.129 106.695 128.679 106.895C128.229 107.085 127.764 107.18 127.284 107.18C126.904 107.18 126.564 107.12 126.264 107C125.964 106.89 125.709 106.735 125.499 106.535C125.289 106.325 125.124 106.085 125.004 105.815C124.894 105.545 124.839 105.25 124.839 104.93ZM126.954 104.765C126.954 105.005 127.044 105.185 127.224 105.305C127.414 105.415 127.669 105.47 127.989 105.47C128.319 105.47 128.629 105.405 128.919 105.275C129.209 105.135 129.484 104.965 129.744 104.765V103.535C129.194 103.565 128.739 103.615 128.379 103.685C128.019 103.755 127.734 103.845 127.524 103.955C127.314 104.055 127.164 104.175 127.074 104.315C126.994 104.455 126.954 104.605 126.954 104.765ZM133.998 99.56H135.798L135.963 100.55H136.023C136.343 100.23 136.708 99.955 137.118 99.725C137.538 99.495 138.028 99.38 138.588 99.38C139.428 99.38 140.043 99.65 140.433 100.19C140.823 100.73 141.018 101.47 141.018 102.41V107H138.813V102.695C138.813 102.195 138.733 101.83 138.573 101.6C138.413 101.37 138.128 101.255 137.718 101.255C137.418 101.255 137.153 101.32 136.923 101.45C136.703 101.58 136.463 101.775 136.203 102.035V107H133.998V99.56ZM142.617 103.28C142.617 102.67 142.707 102.125 142.887 101.645C143.067 101.165 143.302 100.76 143.592 100.43C143.892 100.09 144.232 99.83 144.612 99.65C144.992 99.47 145.387 99.38 145.797 99.38C146.227 99.38 146.587 99.455 146.877 99.605C147.167 99.745 147.442 99.935 147.702 100.175L147.627 99.02V96.485H149.832V107H148.032L147.867 106.235H147.822C147.542 106.505 147.222 106.73 146.862 106.91C146.502 107.09 146.132 107.18 145.752 107.18C145.282 107.18 144.852 107.09 144.462 106.91C144.082 106.73 143.752 106.475 143.472 106.145C143.202 105.805 142.992 105.395 142.842 104.915C142.692 104.435 142.617 103.89 142.617 103.28ZM144.882 103.25C144.882 103.99 145.007 104.53 145.257 104.87C145.507 105.21 145.862 105.38 146.322 105.38C146.572 105.38 146.802 105.33 147.012 105.23C147.222 105.12 147.427 104.94 147.627 104.69V101.675C147.427 101.495 147.222 101.37 147.012 101.3C146.812 101.22 146.602 101.18 146.382 101.18C145.972 101.18 145.617 101.35 145.317 101.69C145.027 102.03 144.882 102.55 144.882 103.25ZM151.611 103.28C151.611 102.66 151.716 102.11 151.926 101.63C152.136 101.14 152.416 100.73 152.766 100.4C153.126 100.07 153.531 99.82 153.981 99.65C154.441 99.47 154.916 99.38 155.406 99.38C155.896 99.38 156.366 99.47 156.816 99.65C157.276 99.82 157.681 100.07 158.031 100.4C158.391 100.73 158.676 101.14 158.886 101.63C159.096 102.11 159.201 102.66 159.201 103.28C159.201 103.9 159.096 104.455 158.886 104.945C158.676 105.425 158.391 105.83 158.031 106.16C157.681 106.49 157.276 106.745 156.816 106.925C156.366 107.095 155.896 107.18 155.406 107.18C154.916 107.18 154.441 107.095 153.981 106.925C153.531 106.745 153.126 106.49 152.766 106.16C152.416 105.83 152.136 105.425 151.926 104.945C151.716 104.455 151.611 103.9 151.611 103.28ZM153.876 103.28C153.876 103.93 154.001 104.445 154.251 104.825C154.511 105.205 154.896 105.395 155.406 105.395C155.916 105.395 156.296 105.205 156.546 104.825C156.806 104.445 156.936 103.93 156.936 103.28C156.936 102.63 156.806 102.115 156.546 101.735C156.296 101.355 155.916 101.165 155.406 101.165C154.896 101.165 154.511 101.355 154.251 101.735C154.001 102.115 153.876 102.63 153.876 103.28ZM160.44 99.56H162.09L162.255 100.49H162.315C162.455 100.18 162.645 99.92 162.885 99.71C163.135 99.49 163.475 99.38 163.905 99.38C164.235 99.38 164.51 99.485 164.73 99.695C164.96 99.895 165.12 100.195 165.21 100.595C165.35 100.255 165.55 99.97 165.81 99.74C166.08 99.5 166.425 99.38 166.845 99.38C167.365 99.38 167.77 99.595 168.06 100.025C168.35 100.445 168.495 101.03 168.495 101.78V107H166.425V101.945C166.425 101.485 166.285 101.255 166.005 101.255C165.735 101.255 165.505 101.495 165.315 101.975V107H163.62V101.945C163.62 101.485 163.475 101.255 163.185 101.255C163.045 101.255 162.925 101.315 162.825 101.435C162.725 101.555 162.62 101.735 162.51 101.975V107H160.44V99.56ZM178.894 103.28C178.894 102.66 179.009 102.11 179.239 101.63C179.479 101.14 179.794 100.73 180.184 100.4C180.584 100.07 181.044 99.82 181.564 99.65C182.084 99.47 182.629 99.38 183.199 99.38C183.789 99.38 184.319 99.475 184.789 99.665C185.269 99.855 185.669 100.095 185.989 100.385L184.969 101.75C184.419 101.36 183.869 101.165 183.319 101.165C182.679 101.165 182.159 101.355 181.759 101.735C181.359 102.115 181.159 102.63 181.159 103.28C181.159 103.93 181.349 104.445 181.729 104.825C182.119 105.205 182.624 105.395 183.244 105.395C183.634 105.395 183.994 105.325 184.324 105.185C184.654 105.045 184.949 104.88 185.209 104.69L186.109 106.085C185.659 106.465 185.159 106.745 184.609 106.925C184.069 107.095 183.544 107.18 183.034 107.18C182.444 107.18 181.899 107.095 181.399 106.925C180.899 106.745 180.459 106.49 180.079 106.16C179.709 105.83 179.419 105.425 179.209 104.945C178.999 104.455 178.894 103.9 178.894 103.28ZM187.588 103.28C187.588 102.66 187.693 102.11 187.903 101.63C188.113 101.14 188.393 100.73 188.743 100.4C189.103 100.07 189.508 99.82 189.958 99.65C190.418 99.47 190.893 99.38 191.383 99.38C191.873 99.38 192.343 99.47 192.793 99.65C193.253 99.82 193.658 100.07 194.008 100.4C194.368 100.73 194.653 101.14 194.863 101.63C195.073 102.11 195.178 102.66 195.178 103.28C195.178 103.9 195.073 104.455 194.863 104.945C194.653 105.425 194.368 105.83 194.008 106.16C193.658 106.49 193.253 106.745 192.793 106.925C192.343 107.095 191.873 107.18 191.383 107.18C190.893 107.18 190.418 107.095 189.958 106.925C189.508 106.745 189.103 106.49 188.743 106.16C188.393 105.83 188.113 105.425 187.903 104.945C187.693 104.455 187.588 103.9 187.588 103.28ZM189.853 103.28C189.853 103.93 189.978 104.445 190.228 104.825C190.488 105.205 190.873 105.395 191.383 105.395C191.893 105.395 192.273 105.205 192.523 104.825C192.783 104.445 192.913 103.93 192.913 103.28C192.913 102.63 192.783 102.115 192.523 101.735C192.273 101.355 191.893 101.165 191.383 101.165C190.873 101.165 190.488 101.355 190.228 101.735C189.978 102.115 189.853 102.63 189.853 103.28ZM196.582 103.28C196.582 102.67 196.672 102.125 196.852 101.645C197.032 101.165 197.267 100.76 197.557 100.43C197.857 100.09 198.197 99.83 198.577 99.65C198.957 99.47 199.352 99.38 199.762 99.38C200.192 99.38 200.552 99.455 200.842 99.605C201.132 99.745 201.407 99.935 201.667 100.175L201.592 99.02V96.485H203.797V107H201.997L201.832 106.235H201.787C201.507 106.505 201.187 106.73 200.827 106.91C200.467 107.09 200.097 107.18 199.717 107.18C199.247 107.18 198.817 107.09 198.427 106.91C198.047 106.73 197.717 106.475 197.437 106.145C197.167 105.805 196.957 105.395 196.807 104.915C196.657 104.435 196.582 103.89 196.582 103.28ZM198.847 103.25C198.847 103.99 198.972 104.53 199.222 104.87C199.472 105.21 199.827 105.38 200.287 105.38C200.537 105.38 200.767 105.33 200.977 105.23C201.187 105.12 201.392 104.94 201.592 104.69V101.675C201.392 101.495 201.187 101.37 200.977 101.3C200.777 101.22 200.567 101.18 200.347 101.18C199.937 101.18 199.582 101.35 199.282 101.69C198.992 102.03 198.847 102.55 198.847 103.25ZM205.696 103.28C205.696 102.67 205.801 102.125 206.011 101.645C206.231 101.165 206.521 100.76 206.881 100.43C207.241 100.09 207.651 99.83 208.111 99.65C208.581 99.47 209.066 99.38 209.566 99.38C210.136 99.38 210.641 99.47 211.081 99.65C211.521 99.83 211.886 100.08 212.176 100.4C212.466 100.72 212.686 101.1 212.836 101.54C212.986 101.97 213.061 102.44 213.061 102.95C213.061 103.15 213.051 103.34 213.031 103.52C213.011 103.7 212.991 103.835 212.971 103.925H207.961C208.041 104.485 208.281 104.89 208.681 105.14C209.091 105.38 209.571 105.5 210.121 105.5C210.461 105.5 210.781 105.46 211.081 105.38C211.391 105.29 211.711 105.16 212.041 104.99L212.761 106.31C212.341 106.58 211.871 106.795 211.351 106.955C210.831 107.105 210.321 107.18 209.821 107.18C209.241 107.18 208.701 107.095 208.201 106.925C207.701 106.745 207.266 106.49 206.896 106.16C206.526 105.82 206.231 105.41 206.011 104.93C205.801 104.45 205.696 103.9 205.696 103.28ZM211.066 102.47C211.066 102.05 210.951 101.71 210.721 101.45C210.491 101.19 210.121 101.06 209.611 101.06C209.211 101.06 208.856 101.175 208.546 101.405C208.236 101.635 208.031 101.99 207.931 102.47H211.066ZM217.165 98.9L217.09 96.725H219.64L219.565 98.9L219.04 102.455H217.69L217.165 98.9Z" fill="#009E73"/>
<path d="M9.16 142.195H8.05V140.785H9.325L9.535 139.135H8.35V137.725H9.715L10.03 135.25H11.29L10.99 137.725H12.55L12.865 135.25H14.125L13.825 137.725H15.01V139.135H13.645L13.45 140.785H14.71V142.195H13.285L12.94 145H11.665L11.995 142.195H10.45L10.105 145H8.83L9.16 142.195ZM12.16 140.785L12.37 139.135H10.81L10.615 140.785H12.16ZM28.1233 141.13L25.7083 137.56H28.0783L28.8433 138.76C28.9533 138.97 29.0783 139.185 29.2183 139.405C29.3583 139.615 29.4933 139.825 29.6233 140.035H29.6833C29.7833 139.825 29.8833 139.61 29.9833 139.39C30.0933 139.17 30.1983 138.96 30.2983 138.76L30.9583 137.56H33.2683L30.8383 141.385L33.4183 145H31.0483L30.1933 143.77C30.0533 143.56 29.9083 143.345 29.7583 143.125C29.6183 142.905 29.4783 142.69 29.3383 142.48H29.2783C29.1683 142.69 29.0533 142.905 28.9333 143.125C28.8133 143.335 28.6983 143.55 28.5883 143.77L27.8533 145H25.5433L28.1233 141.13ZM44.1616 137.56H49.3516V145H47.1466V139.285H44.1616V137.56ZM48.1516 136.465C47.7216 136.465 47.3666 136.345 47.0866 136.105C46.8166 135.865 46.6816 135.54 46.6816 135.13C46.6816 134.72 46.8166 134.39 47.0866 134.14C47.3666 133.88 47.7216 133.75 48.1516 133.75C48.5816 133.75 48.9316 133.88 49.2016 134.14C49.4816 134.39 49.6216 134.72 49.6216 135.13C49.6216 135.54 49.4816 135.865 49.2016 136.105C48.9316 136.345 48.5816 136.465 48.1516 136.465ZM53.7557 142.66C54.1857 142.93 54.6157 143.145 55.0457 143.305C55.4857 143.465 55.9557 143.545 56.4557 143.545C56.9657 143.545 57.3307 143.49 57.5507 143.38C57.7707 143.27 57.8807 143.115 57.8807 142.915C57.8807 142.685 57.6957 142.5 57.3257 142.36C56.9657 142.21 56.4857 142.05 55.8857 141.88C55.5557 141.79 55.2307 141.685 54.9107 141.565C54.6007 141.435 54.3207 141.285 54.0707 141.115C53.8207 140.935 53.6157 140.73 53.4557 140.5C53.3057 140.27 53.2307 140.005 53.2307 139.705C53.2307 139.365 53.3107 139.05 53.4707 138.76C53.6307 138.47 53.8557 138.225 54.1457 138.025C54.4457 137.825 54.8057 137.67 55.2257 137.56C55.6557 137.44 56.1357 137.38 56.6657 137.38C57.3257 137.38 57.9257 137.49 58.4657 137.71C59.0157 137.92 59.4857 138.15 59.8757 138.4L58.8857 139.72C58.5457 139.52 58.1957 139.355 57.8357 139.225C57.4757 139.085 57.1007 139.015 56.7107 139.015C56.2407 139.015 55.9057 139.065 55.7057 139.165C55.5157 139.265 55.4207 139.41 55.4207 139.6C55.4207 139.71 55.4707 139.81 55.5707 139.9C55.6707 139.99 55.8057 140.07 55.9757 140.14C56.1457 140.21 56.3457 140.28 56.5757 140.35C56.8157 140.41 57.0657 140.475 57.3257 140.545C57.6957 140.645 58.0457 140.76 58.3757 140.89C58.7057 141.01 58.9957 141.155 59.2457 141.325C59.4957 141.495 59.6957 141.7 59.8457 141.94C59.9957 142.18 60.0707 142.46 60.0707 142.78C60.0707 143.12 59.9907 143.435 59.8307 143.725C59.6707 144.015 59.4357 144.27 59.1257 144.49C58.8257 144.7 58.4457 144.87 57.9857 145C57.5357 145.12 57.0107 145.18 56.4107 145.18C55.7407 145.18 55.0857 145.07 54.4457 144.85C53.8057 144.63 53.2457 144.36 52.7657 144.04L53.7557 142.66ZM71.744 142.66C72.174 142.93 72.604 143.145 73.034 143.305C73.474 143.465 73.944 143.545 74.444 143.545C74.954 143.545 75.319 143.49 75.539 143.38C75.759 143.27 75.869 143.115 75.869 142.915C75.869 142.685 75.684 142.5 75.314 142.36C74.954 142.21 74.474 142.05 73.874 141.88C73.544 141.79 73.219 141.685 72.899 141.565C72.589 141.435 72.309 141.285 72.059 141.115C71.809 140.935 71.604 140.73 71.444 140.5C71.294 140.27 71.219 140.005 71.219 139.705C71.219 139.365 71.299 139.05 71.459 138.76C71.619 138.47 71.844 138.225 72.134 138.025C72.434 137.825 72.794 137.67 73.214 137.56C73.644 137.44 74.124 137.38 74.654 137.38C75.314 137.38 75.914 137.49 76.454 137.71C77.004 137.92 77.474 138.15 77.864 138.4L76.874 139.72C76.534 139.52 76.184 139.355 75.824 139.225C75.464 139.085 75.089 139.015 74.699 139.015C74.229 139.015 73.894 139.065 73.694 139.165C73.504 139.265 73.409 139.41 73.409 139.6C73.409 139.71 73.459 139.81 73.559 139.9C73.659 139.99 73.794 140.07 73.964 140.14C74.134 140.21 74.334 140.28 74.564 140.35C74.804 140.41 75.054 140.475 75.314 140.545C75.684 140.645 76.034 140.76 76.364 140.89C76.694 141.01 76.984 141.155 77.234 141.325C77.484 141.495 77.684 141.7 77.834 141.94C77.984 142.18 78.059 142.46 78.059 142.78C78.059 143.12 77.979 143.435 77.819 143.725C77.659 144.015 77.424 144.27 77.114 144.49C76.814 144.7 76.434 144.87 75.974 145C75.524 145.12 74.999 145.18 74.399 145.18C73.729 145.18 73.074 145.07 72.434 144.85C71.794 144.63 71.234 144.36 70.754 144.04L71.744 142.66ZM81.5631 139.285H79.6881V137.65L81.6681 137.56L81.9531 135.58H83.7681V137.56H86.9181V139.285H83.7681V141.895C83.7681 142.465 83.8931 142.87 84.1431 143.11C84.3931 143.34 84.7881 143.455 85.3281 143.455C85.6181 143.455 85.8831 143.43 86.1231 143.38C86.3631 143.33 86.5931 143.265 86.8131 143.185L87.2031 144.775C86.8731 144.875 86.5031 144.965 86.0931 145.045C85.6931 145.135 85.2531 145.18 84.7731 145.18C84.1831 145.18 83.6831 145.1 83.2731 144.94C82.8631 144.78 82.5281 144.56 82.2681 144.28C82.0181 143.99 81.8381 143.645 81.7281 143.245C81.6181 142.845 81.5631 142.4 81.5631 141.91V139.285ZM89.1323 137.56H94.3223V145H92.1173V139.285H89.1323V137.56ZM93.1223 136.465C92.6923 136.465 92.3373 136.345 92.0573 136.105C91.7873 135.865 91.6523 135.54 91.6523 135.13C91.6523 134.72 91.7873 134.39 92.0573 134.14C92.3373 133.88 92.6923 133.75 93.1223 133.75C93.5523 133.75 93.9023 133.88 94.1723 134.14C94.4523 134.39 94.5923 134.72 94.5923 135.13C94.5923 135.54 94.4523 135.865 94.1723 136.105C93.9023 136.345 93.5523 136.465 93.1223 136.465ZM97.8714 134.485H102.236V142.18C102.236 142.41 102.266 142.605 102.326 142.765C102.396 142.915 102.486 143.04 102.596 143.14C102.716 143.23 102.846 143.295 102.986 143.335C103.136 143.375 103.286 143.395 103.436 143.395C103.606 143.395 103.786 143.38 103.976 143.35C104.166 143.31 104.376 143.245 104.606 143.155L105.101 144.775C104.901 144.835 104.716 144.89 104.546 144.94C104.376 144.99 104.206 145.03 104.036 145.06C103.866 145.1 103.686 145.13 103.496 145.15C103.306 145.17 103.096 145.18 102.866 145.18C101.926 145.18 101.216 144.905 100.736 144.355C100.266 143.795 100.031 143.04 100.031 142.09V136.225H97.8714V134.485ZM106.866 134.485H111.231V142.18C111.231 142.41 111.261 142.605 111.321 142.765C111.391 142.915 111.481 143.04 111.591 143.14C111.711 143.23 111.841 143.295 111.981 143.335C112.131 143.375 112.281 143.395 112.431 143.395C112.601 143.395 112.781 143.38 112.971 143.35C113.161 143.31 113.371 143.245 113.601 143.155L114.096 144.775C113.896 144.835 113.711 144.89 113.541 144.94C113.371 144.99 113.201 145.03 113.031 145.06C112.861 145.1 112.681 145.13 112.491 145.15C112.301 145.17 112.091 145.18 111.861 145.18C110.921 145.18 110.211 144.905 109.731 144.355C109.261 143.795 109.026 143.04 109.026 142.09V136.225H106.866V134.485ZM124.629 141.28C124.629 140.67 124.719 140.125 124.899 139.645C125.079 139.165 125.314 138.76 125.604 138.43C125.904 138.09 126.244 137.83 126.624 137.65C127.004 137.47 127.399 137.38 127.809 137.38C128.239 137.38 128.599 137.455 128.889 137.605C129.179 137.745 129.454 137.935 129.714 138.175L129.639 137.02V134.485H131.844V145H130.044L129.879 144.235H129.834C129.554 144.505 129.234 144.73 128.874 144.91C128.514 145.09 128.144 145.18 127.764 145.18C127.294 145.18 126.864 145.09 126.474 144.91C126.094 144.73 125.764 144.475 125.484 144.145C125.214 143.805 125.004 143.395 124.854 142.915C124.704 142.435 124.629 141.89 124.629 141.28ZM126.894 141.25C126.894 141.99 127.019 142.53 127.269 142.87C127.519 143.21 127.874 143.38 128.334 143.38C128.584 143.38 128.814 143.33 129.024 143.23C129.234 143.12 129.439 142.94 129.639 142.69V139.675C129.439 139.495 129.234 139.37 129.024 139.3C128.824 139.22 128.614 139.18 128.394 139.18C127.984 139.18 127.629 139.35 127.329 139.69C127.039 140.03 126.894 140.55 126.894 141.25ZM133.743 141.28C133.743 140.67 133.848 140.125 134.058 139.645C134.278 139.165 134.568 138.76 134.928 138.43C135.288 138.09 135.698 137.83 136.158 137.65C136.628 137.47 137.113 137.38 137.613 137.38C138.183 137.38 138.688 137.47 139.128 137.65C139.568 137.83 139.933 138.08 140.223 138.4C140.513 138.72 140.733 139.1 140.883 139.54C141.033 139.97 141.108 140.44 141.108 140.95C141.108 141.15 141.098 141.34 141.078 141.52C141.058 141.7 141.038 141.835 141.018 141.925H136.008C136.088 142.485 136.328 142.89 136.728 143.14C137.138 143.38 137.618 143.5 138.168 143.5C138.508 143.5 138.828 143.46 139.128 143.38C139.438 143.29 139.758 143.16 140.088 142.99L140.808 144.31C140.388 144.58 139.918 144.795 139.398 144.955C138.878 145.105 138.368 145.18 137.868 145.18C137.288 145.18 136.748 145.095 136.248 144.925C135.748 144.745 135.313 144.49 134.943 144.16C134.573 143.82 134.278 143.41 134.058 142.93C133.848 142.45 133.743 141.9 133.743 141.28ZM139.113 140.47C139.113 140.05 138.998 139.71 138.768 139.45C138.538 139.19 138.168 139.06 137.658 139.06C137.258 139.06 136.903 139.175 136.593 139.405C136.283 139.635 136.078 139.99 135.978 140.47H139.113ZM150.267 136.33C149.777 136.14 149.257 136.045 148.707 136.045C148.227 136.045 147.872 136.15 147.642 136.36C147.422 136.57 147.312 136.9 147.312 137.35V137.56H149.877V139.285H147.312V145H145.107V139.285H143.142V137.65L145.107 137.56V137.365C145.107 136.935 145.172 136.535 145.302 136.165C145.432 135.795 145.632 135.475 145.902 135.205C146.172 134.925 146.517 134.705 146.937 134.545C147.357 134.385 147.857 134.305 148.437 134.305C148.867 134.305 149.267 134.345 149.637 134.425C150.017 134.505 150.367 134.6 150.687 134.71L150.267 136.33ZM152.091 137.56H157.281V145H155.076V139.285H152.091V137.56ZM156.081 136.465C155.651 136.465 155.296 136.345 155.016 136.105C154.746 135.865 154.611 135.54 154.611 135.13C154.611 134.72 154.746 134.39 155.016 134.14C155.296 133.88 155.651 133.75 156.081 133.75C156.511 133.75 156.861 133.88 157.131 134.14C157.411 134.39 157.551 134.72 157.551 135.13C157.551 135.54 157.411 135.865 157.131 136.105C156.861 136.345 156.511 136.465 156.081 136.465ZM160.98 137.56H162.78L162.945 138.55H163.005C163.325 138.23 163.69 137.955 164.1 137.725C164.52 137.495 165.01 137.38 165.57 137.38C166.41 137.38 167.025 137.65 167.415 138.19C167.805 138.73 168 139.47 168 140.41V145H165.795V140.695C165.795 140.195 165.715 139.83 165.555 139.6C165.395 139.37 165.11 139.255 164.7 139.255C164.4 139.255 164.135 139.32 163.905 139.45C163.685 139.58 163.445 139.775 163.185 140.035V145H160.98V137.56ZM169.72 141.28C169.72 140.67 169.825 140.125 170.035 139.645C170.255 139.165 170.545 138.76 170.905 138.43C171.265 138.09 171.675 137.83 172.135 137.65C172.605 137.47 173.09 137.38 173.59 137.38C174.16 137.38 174.665 137.47 175.105 137.65C175.545 137.83 175.91 138.08 176.2 138.4C176.49 138.72 176.71 139.1 176.86 139.54C177.01 139.97 177.085 140.44 177.085 140.95C177.085 141.15 177.075 141.34 177.055 141.52C177.035 141.7 177.015 141.835 176.995 141.925H171.985C172.065 142.485 172.305 142.89 172.705 143.14C173.115 143.38 173.595 143.5 174.145 143.5C174.485 143.5 174.805 143.46 175.105 143.38C175.415 143.29 175.735 143.16 176.065 142.99L176.785 144.31C176.365 144.58 175.895 144.795 175.375 144.955C174.855 145.105 174.345 145.18 173.845 145.18C173.265 145.18 172.725 145.095 172.225 144.925C171.725 144.745 171.29 144.49 170.92 144.16C170.55 143.82 170.255 143.41 170.035 142.93C169.825 142.45 169.72 141.9 169.72 141.28ZM175.09 140.47C175.09 140.05 174.975 139.71 174.745 139.45C174.515 139.19 174.145 139.06 173.635 139.06C173.235 139.06 172.88 139.175 172.57 139.405C172.26 139.635 172.055 139.99 171.955 140.47H175.09ZM178.594 141.28C178.594 140.67 178.684 140.125 178.864 139.645C179.044 139.165 179.279 138.76 179.569 138.43C179.869 138.09 180.209 137.83 180.589 137.65C180.969 137.47 181.364 137.38 181.774 137.38C182.204 137.38 182.564 137.455 182.854 137.605C183.144 137.745 183.419 137.935 183.679 138.175L183.604 137.02V134.485H185.809V145H184.009L183.844 144.235H183.799C183.519 144.505 183.199 144.73 182.839 144.91C182.479 145.09 182.109 145.18 181.729 145.18C181.259 145.18 180.829 145.09 180.439 144.91C180.059 144.73 179.729 144.475 179.449 144.145C179.179 143.805 178.969 143.395 178.819 142.915C178.669 142.435 178.594 141.89 178.594 141.28ZM180.859 141.25C180.859 141.99 180.984 142.53 181.234 142.87C181.484 143.21 181.839 143.38 182.299 143.38C182.549 143.38 182.779 143.33 182.989 143.23C183.199 143.12 183.404 142.94 183.604 142.69V139.675C183.404 139.495 183.199 139.37 182.989 139.3C182.789 139.22 182.579 139.18 182.359 139.18C181.949 139.18 181.594 139.35 181.294 139.69C181.004 140.03 180.859 140.55 180.859 141.25Z" fill="#828282"/>
</svg>
