<svg width="336" height="160" viewBox="0 0 336 160" fill="none" xmlns="http://www.w3.org/2000/svg">
<rect x="184" width="152" height="160" fill="black"/>
<path d="M195.23 126.87C195.51 126.87 195.8 126.8 196.1 126.66C196.4 126.52 196.695 126.275 196.985 125.925C196.925 125.555 196.835 125.245 196.715 124.995C196.605 124.735 196.47 124.53 196.31 124.38C196.16 124.22 195.995 124.11 195.815 124.05C195.635 123.98 195.45 123.945 195.26 123.945C195.07 123.945 194.885 123.975 194.705 124.035C194.535 124.095 194.38 124.19 194.24 124.32C194.11 124.44 194.005 124.6 193.925 124.8C193.845 124.99 193.805 125.22 193.805 125.49C193.805 125.98 193.935 126.335 194.195 126.555C194.455 126.765 194.8 126.87 195.23 126.87ZM193.1 129.72C193.3 129.9 193.55 130.06 193.85 130.2C194.15 130.33 194.46 130.395 194.78 130.395C195.07 130.395 195.345 130.345 195.605 130.245C195.875 130.135 196.11 129.965 196.31 129.735C196.52 129.495 196.69 129.185 196.82 128.805C196.95 128.415 197.025 127.94 197.045 127.38C196.695 127.71 196.31 127.97 195.89 128.16C195.48 128.34 195.1 128.43 194.75 128.43C194.33 128.43 193.94 128.37 193.58 128.25C193.22 128.13 192.905 127.95 192.635 127.71C192.375 127.47 192.17 127.165 192.02 126.795C191.87 126.425 191.795 125.99 191.795 125.49C191.795 125 191.885 124.56 192.065 124.17C192.255 123.77 192.505 123.43 192.815 123.15C193.135 122.87 193.5 122.66 193.91 122.52C194.32 122.37 194.755 122.295 195.215 122.295C195.705 122.295 196.18 122.385 196.64 122.565C197.11 122.745 197.525 123.025 197.885 123.405C198.245 123.785 198.53 124.275 198.74 124.875C198.96 125.465 199.07 126.18 199.07 127.02C199.07 127.91 198.955 128.68 198.725 129.33C198.495 129.98 198.19 130.515 197.81 130.935C197.43 131.355 196.99 131.67 196.49 131.88C196 132.08 195.495 132.18 194.975 132.18C194.295 132.18 193.7 132.065 193.19 131.835C192.68 131.605 192.26 131.34 191.93 131.04L193.1 129.72Z" fill="white"/>
<path d="M195.5 112.18C194.92 112.18 194.385 112.065 193.895 111.835C193.415 111.595 193 111.255 192.65 110.815C192.31 110.375 192.045 109.84 191.855 109.21C191.665 108.58 191.57 107.865 191.57 107.065C191.57 106.265 191.665 105.555 191.855 104.935C192.045 104.305 192.31 103.78 192.65 103.36C193 102.93 193.415 102.605 193.895 102.385C194.385 102.155 194.92 102.04 195.5 102.04C196.08 102.04 196.61 102.155 197.09 102.385C197.58 102.605 197.995 102.93 198.335 103.36C198.685 103.79 198.955 104.32 199.145 104.95C199.335 105.57 199.43 106.275 199.43 107.065C199.43 107.865 199.335 108.58 199.145 109.21C198.955 109.84 198.685 110.375 198.335 110.815C197.995 111.255 197.58 111.595 197.09 111.835C196.61 112.065 196.08 112.18 195.5 112.18ZM195.5 110.275C196.01 110.275 196.415 109.99 196.715 109.42C197.015 108.84 197.165 108.055 197.165 107.065C197.165 106.085 197.015 105.32 196.715 104.77C196.415 104.22 196.01 103.945 195.5 103.945C194.99 103.945 194.585 104.22 194.285 104.77C193.985 105.32 193.835 106.085 193.835 107.065C193.835 108.055 193.985 108.84 194.285 109.42C194.585 109.99 194.99 110.275 195.5 110.275ZM207.869 112H206.069L205.904 110.935H205.844C205.514 111.315 205.149 111.62 204.749 111.85C204.349 112.07 203.879 112.18 203.339 112.18C202.489 112.18 201.874 111.91 201.494 111.37C201.114 110.83 200.924 110.09 200.924 109.15V104.56H203.129V108.865C203.129 109.365 203.204 109.73 203.354 109.96C203.504 110.19 203.789 110.305 204.209 110.305C204.489 110.305 204.734 110.245 204.944 110.125C205.164 110.005 205.404 109.78 205.664 109.45V104.56H207.869V112ZM211.598 106.285H209.723V104.65L211.703 104.56L211.988 102.58H213.803V104.56H216.953V106.285H213.803V108.895C213.803 109.465 213.928 109.87 214.178 110.11C214.428 110.34 214.823 110.455 215.363 110.455C215.653 110.455 215.918 110.43 216.158 110.38C216.398 110.33 216.628 110.265 216.848 110.185L217.238 111.775C216.908 111.875 216.538 111.965 216.128 112.045C215.728 112.135 215.288 112.18 214.808 112.18C214.218 112.18 213.718 112.1 213.308 111.94C212.898 111.78 212.563 111.56 212.303 111.28C212.053 110.99 211.873 110.645 211.763 110.245C211.653 109.845 211.598 109.4 211.598 108.91V106.285ZM221.267 112.585V114.76H219.062V104.56H220.862L221.027 105.31H221.072C221.372 105.04 221.717 104.82 222.107 104.65C222.497 104.47 222.892 104.38 223.292 104.38C223.752 104.38 224.167 104.47 224.537 104.65C224.907 104.83 225.222 105.085 225.482 105.415C225.742 105.745 225.937 106.145 226.067 106.615C226.207 107.075 226.277 107.59 226.277 108.16C226.277 108.8 226.187 109.37 226.007 109.87C225.827 110.36 225.587 110.78 225.287 111.13C224.987 111.47 224.642 111.73 224.252 111.91C223.872 112.09 223.472 112.18 223.052 112.18C222.372 112.18 221.752 111.91 221.192 111.37L221.267 112.585ZM221.267 109.885C221.477 110.065 221.692 110.195 221.912 110.275C222.142 110.345 222.352 110.38 222.542 110.38C222.962 110.38 223.312 110.21 223.592 109.87C223.872 109.52 224.012 108.96 224.012 108.19C224.012 106.85 223.557 106.18 222.647 106.18C222.177 106.18 221.717 106.41 221.267 106.87V109.885ZM234.852 112H233.052L232.887 110.935H232.827C232.497 111.315 232.132 111.62 231.732 111.85C231.332 112.07 230.862 112.18 230.322 112.18C229.472 112.18 228.857 111.91 228.477 111.37C228.097 110.83 227.907 110.09 227.907 109.15V104.56H230.112V108.865C230.112 109.365 230.187 109.73 230.337 109.96C230.487 110.19 230.772 110.305 231.192 110.305C231.472 110.305 231.717 110.245 231.927 110.125C232.147 110.005 232.387 109.78 232.647 109.45V104.56H234.852V112ZM238.581 106.285H236.706V104.65L238.686 104.56L238.971 102.58H240.786V104.56H243.936V106.285H240.786V108.895C240.786 109.465 240.911 109.87 241.161 110.11C241.411 110.34 241.806 110.455 242.346 110.455C242.636 110.455 242.901 110.43 243.141 110.38C243.381 110.33 243.611 110.265 243.831 110.185L244.221 111.775C243.891 111.875 243.521 111.965 243.111 112.045C242.711 112.135 242.271 112.18 241.791 112.18C241.201 112.18 240.701 112.1 240.291 111.94C239.881 111.78 239.546 111.56 239.286 111.28C239.036 110.99 238.856 110.645 238.746 110.245C238.636 109.845 238.581 109.4 238.581 108.91V106.285Z" fill="white"/>
<rect x="263" width="73" height="31" fill="#333333"/>
<rect x="263" width="73" height="31" fill="#333333"/>
<rect x="184" width="79" height="31" fill="#090808"/>
<path d="M196.105 17.8101C196.105 17.5513 195.976 17.3486 195.717 17.2021C195.463 17.0508 195.053 16.9165 194.486 16.7993C192.602 16.4038 191.659 15.603 191.659 14.397C191.659 13.6938 191.95 13.1079 192.531 12.6392C193.117 12.1655 193.881 11.9287 194.823 11.9287C195.829 11.9287 196.632 12.1655 197.233 12.6392C197.838 13.1128 198.141 13.728 198.141 14.4849H196.024C196.024 14.1821 195.927 13.9331 195.731 13.7378C195.536 13.5376 195.231 13.4375 194.816 13.4375C194.459 13.4375 194.184 13.5181 193.988 13.6792C193.793 13.8403 193.695 14.0454 193.695 14.2944C193.695 14.5288 193.805 14.7192 194.025 14.8657C194.25 15.0073 194.625 15.1318 195.153 15.2393C195.68 15.3418 196.125 15.459 196.486 15.5908C197.604 16.001 198.163 16.7114 198.163 17.7222C198.163 18.4448 197.853 19.0308 197.233 19.48C196.613 19.9243 195.812 20.1465 194.831 20.1465C194.167 20.1465 193.576 20.0293 193.058 19.7949C192.545 19.5557 192.143 19.231 191.85 18.8208C191.557 18.4058 191.41 17.959 191.41 17.4805H193.417C193.437 17.8564 193.576 18.1445 193.834 18.3447C194.093 18.5449 194.44 18.645 194.875 18.645C195.28 18.645 195.585 18.5693 195.79 18.418C196 18.2617 196.105 18.0591 196.105 17.8101ZM202.829 18.4399C203.219 18.4399 203.537 18.3325 203.781 18.1177C204.025 17.9028 204.152 17.6172 204.162 17.2607H206.146C206.142 17.7979 205.995 18.291 205.707 18.7402C205.419 19.1846 205.023 19.5312 204.521 19.7803C204.022 20.0244 203.471 20.1465 202.865 20.1465C201.732 20.1465 200.839 19.7876 200.185 19.0698C199.53 18.3472 199.203 17.3511 199.203 16.0815V15.9424C199.203 14.7217 199.528 13.7476 200.177 13.02C200.827 12.2925 201.718 11.9287 202.851 11.9287C203.842 11.9287 204.635 12.2119 205.231 12.7783C205.832 13.3398 206.137 14.0894 206.146 15.0269H204.162C204.152 14.6167 204.025 14.2847 203.781 14.0308C203.537 13.772 203.214 13.6426 202.814 13.6426C202.321 13.6426 201.947 13.8232 201.693 14.1846C201.444 14.541 201.32 15.1221 201.32 15.9277V16.1475C201.32 16.9629 201.444 17.5488 201.693 17.9053C201.942 18.2617 202.321 18.4399 202.829 18.4399ZM211.808 14.0601C211.52 14.021 211.266 14.0015 211.046 14.0015C210.246 14.0015 209.721 14.2725 209.472 14.8145V20H207.355V12.0752H209.354L209.413 13.02C209.838 12.2925 210.426 11.9287 211.178 11.9287C211.413 11.9287 211.632 11.9604 211.837 12.0239L211.808 14.0601ZM215.067 20H212.943V12.0752H215.067V20ZM212.819 10.0244C212.819 9.70703 212.924 9.4458 213.134 9.24072C213.349 9.03564 213.639 8.93311 214.005 8.93311C214.367 8.93311 214.655 9.03564 214.87 9.24072C215.084 9.4458 215.192 9.70703 215.192 10.0244C215.192 10.3467 215.082 10.6104 214.862 10.8154C214.647 11.0205 214.362 11.123 214.005 11.123C213.649 11.123 213.361 11.0205 213.141 10.8154C212.926 10.6104 212.819 10.3467 212.819 10.0244ZM223.952 16.1108C223.952 17.3315 223.673 18.3105 223.117 19.0479C222.565 19.7803 221.818 20.1465 220.875 20.1465C220.075 20.1465 219.428 19.8682 218.935 19.3115V23.0469H216.818V12.0752H218.781L218.854 12.8516C219.367 12.2363 220.036 11.9287 220.861 11.9287C221.837 11.9287 222.597 12.29 223.139 13.0127C223.681 13.7354 223.952 14.7314 223.952 16.001V16.1108ZM221.835 15.957C221.835 15.2197 221.703 14.6509 221.439 14.2505C221.181 13.8501 220.802 13.6499 220.304 13.6499C219.64 13.6499 219.184 13.9038 218.935 14.4116V17.6562C219.193 18.1787 219.655 18.4399 220.319 18.4399C221.33 18.4399 221.835 17.6123 221.835 15.957ZM227.804 10.127V12.0752H229.159V13.6279H227.804V17.583C227.804 17.876 227.86 18.0859 227.973 18.2129C228.085 18.3398 228.3 18.4033 228.617 18.4033C228.852 18.4033 229.059 18.3862 229.24 18.3521V19.9561C228.825 20.083 228.397 20.1465 227.958 20.1465C226.474 20.1465 225.717 19.397 225.688 17.8979V13.6279H224.53V12.0752H225.688V10.127H227.804ZM230.448 18.96C230.448 18.623 230.561 18.3496 230.785 18.1396C231.015 17.9297 231.3 17.8247 231.642 17.8247C231.989 17.8247 232.274 17.9297 232.499 18.1396C232.729 18.3496 232.843 18.623 232.843 18.96C232.843 19.292 232.731 19.563 232.506 19.7729C232.282 19.978 231.994 20.0806 231.642 20.0806C231.295 20.0806 231.01 19.978 230.785 19.7729C230.561 19.563 230.448 19.292 230.448 18.96ZM241.837 16.1108C241.837 17.3315 241.559 18.3105 241.002 19.0479C240.451 19.7803 239.704 20.1465 238.761 20.1465C237.96 20.1465 237.313 19.8682 236.82 19.3115V23.0469H234.704V12.0752H236.667L236.74 12.8516C237.252 12.2363 237.921 11.9287 238.747 11.9287C239.723 11.9287 240.482 12.29 241.024 13.0127C241.566 13.7354 241.837 14.7314 241.837 16.001V16.1108ZM239.721 15.957C239.721 15.2197 239.589 14.6509 239.325 14.2505C239.066 13.8501 238.688 13.6499 238.19 13.6499C237.526 13.6499 237.069 13.9038 236.82 14.4116V17.6562C237.079 18.1787 237.541 18.4399 238.205 18.4399C239.215 18.4399 239.721 17.6123 239.721 15.957ZM246.027 17.0044L247.492 12.0752H249.762L246.576 21.2305L246.4 21.6479C245.927 22.6831 245.146 23.2007 244.057 23.2007C243.749 23.2007 243.437 23.1543 243.119 23.0615V21.4575L243.441 21.4648C243.842 21.4648 244.14 21.4038 244.335 21.2817C244.535 21.1597 244.691 20.957 244.804 20.6738L245.053 20.022L242.277 12.0752H244.555L246.027 17.0044Z" fill="white"/>
<line x1="183.999" y1="96.2094" x2="336.001" y2="96.2094" stroke="white"/>
<path d="M191.87 49.74C192.55 49.17 193.17 48.64 193.73 48.15C194.29 47.65 194.77 47.185 195.17 46.755C195.57 46.325 195.88 45.92 196.1 45.54C196.32 45.16 196.43 44.8 196.43 44.46C196.43 43.99 196.295 43.635 196.025 43.395C195.755 43.145 195.37 43.02 194.87 43.02C194.49 43.02 194.14 43.12 193.82 43.32C193.51 43.51 193.22 43.735 192.95 43.995L191.765 42.81C192.015 42.56 192.26 42.34 192.5 42.15C192.75 41.96 193.01 41.805 193.28 41.685C193.56 41.555 193.85 41.46 194.15 41.4C194.46 41.33 194.8 41.295 195.17 41.295C195.67 41.295 196.125 41.37 196.535 41.52C196.945 41.66 197.295 41.865 197.585 42.135C197.885 42.395 198.115 42.71 198.275 43.08C198.445 43.45 198.53 43.865 198.53 44.325C198.53 44.725 198.435 45.135 198.245 45.555C198.055 45.965 197.795 46.38 197.465 46.8C197.145 47.21 196.775 47.625 196.355 48.045C195.935 48.455 195.495 48.86 195.035 49.26C195.305 49.23 195.595 49.205 195.905 49.185C196.225 49.155 196.51 49.14 196.76 49.14H199.025V51H191.87V49.74ZM228.627 48.435C228.947 48.715 229.302 48.945 229.692 49.125C230.092 49.305 230.512 49.395 230.952 49.395C231.472 49.395 231.897 49.3 232.227 49.11C232.567 48.91 232.737 48.63 232.737 48.27C232.737 48.06 232.692 47.87 232.602 47.7C232.512 47.53 232.357 47.39 232.137 47.28C231.917 47.16 231.622 47.07 231.252 47.01C230.882 46.94 230.417 46.905 229.857 46.905V45.345C230.797 45.345 231.457 45.23 231.837 45C232.227 44.76 232.422 44.45 232.422 44.07C232.422 43.74 232.297 43.485 232.047 43.305C231.797 43.115 231.452 43.02 231.012 43.02C230.632 43.02 230.282 43.095 229.962 43.245C229.642 43.395 229.317 43.6 228.987 43.86L227.877 42.51C228.347 42.13 228.847 41.835 229.377 41.625C229.917 41.405 230.497 41.295 231.117 41.295C231.637 41.295 232.112 41.355 232.542 41.475C232.972 41.585 233.342 41.755 233.652 41.985C233.962 42.205 234.202 42.475 234.372 42.795C234.542 43.115 234.627 43.485 234.627 43.905C234.627 44.405 234.467 44.83 234.147 45.18C233.827 45.52 233.382 45.8 232.812 46.02V46.08C233.412 46.24 233.917 46.515 234.327 46.905C234.737 47.285 234.942 47.785 234.942 48.405C234.942 48.845 234.837 49.24 234.627 49.59C234.427 49.93 234.152 50.22 233.802 50.46C233.462 50.69 233.062 50.87 232.602 51C232.142 51.12 231.662 51.18 231.162 51.18C230.342 51.18 229.637 51.06 229.047 50.82C228.457 50.57 227.977 50.24 227.607 49.83L228.627 48.435ZM246.645 67.45C246.965 67.71 247.305 67.935 247.665 68.125C248.035 68.305 248.445 68.395 248.895 68.395C249.435 68.395 249.875 68.27 250.215 68.02C250.565 67.77 250.74 67.4 250.74 66.91C250.74 66.43 250.575 66.065 250.245 65.815C249.925 65.565 249.51 65.44 249 65.44C248.84 65.44 248.695 65.45 248.565 65.47C248.445 65.48 248.325 65.505 248.205 65.545C248.085 65.585 247.96 65.635 247.83 65.695C247.7 65.755 247.555 65.83 247.395 65.92L246.42 65.29L246.675 60.475H252.51V62.335H248.58L248.415 64.12C248.635 64.04 248.84 63.985 249.03 63.955C249.22 63.915 249.435 63.895 249.675 63.895C250.115 63.895 250.53 63.955 250.92 64.075C251.32 64.195 251.67 64.375 251.97 64.615C252.27 64.855 252.505 65.16 252.675 65.53C252.855 65.9 252.945 66.34 252.945 66.85C252.945 67.38 252.84 67.85 252.63 68.26C252.43 68.67 252.155 69.02 251.805 69.31C251.465 69.59 251.07 69.805 250.62 69.955C250.17 70.105 249.7 70.18 249.21 70.18C248.38 70.18 247.675 70.055 247.095 69.805C246.525 69.545 246.045 69.225 245.655 68.845L246.645 67.45ZM286.056 66.04V64.435C286.056 64.135 286.061 63.79 286.071 63.4C286.091 63 286.111 62.65 286.131 62.35H286.071C285.911 62.62 285.741 62.89 285.561 63.16C285.381 63.43 285.206 63.7 285.036 63.97L283.596 66.04H286.056ZM289.311 67.72H288.111V70H286.056V67.72H281.466V66.205L285.441 60.475H288.111V66.04H289.311V67.72Z" fill="#F0E442"/>
<path d="M212.678 46.83H210.038V45.27H212.678V42.51H214.298V45.27H216.938V46.83H214.298V49.59H212.678V46.83ZM266.643 65.83H264.003V64.27H266.643V61.51H268.263V64.27H270.903V65.83H268.263V68.59H266.643V65.83Z" fill="#E0E0E0"/>
<path d="M194.285 70.585V72.76H192.08V62.56H193.88L194.045 63.31H194.09C194.39 63.04 194.735 62.82 195.125 62.65C195.515 62.47 195.91 62.38 196.31 62.38C196.77 62.38 197.185 62.47 197.555 62.65C197.925 62.83 198.24 63.085 198.5 63.415C198.76 63.745 198.955 64.145 199.085 64.615C199.225 65.075 199.295 65.59 199.295 66.16C199.295 66.8 199.205 67.37 199.025 67.87C198.845 68.36 198.605 68.78 198.305 69.13C198.005 69.47 197.66 69.73 197.27 69.91C196.89 70.09 196.49 70.18 196.07 70.18C195.39 70.18 194.77 69.91 194.21 69.37L194.285 70.585ZM194.285 67.885C194.495 68.065 194.71 68.195 194.93 68.275C195.16 68.345 195.37 68.38 195.56 68.38C195.98 68.38 196.33 68.21 196.61 67.87C196.89 67.52 197.03 66.96 197.03 66.19C197.03 64.85 196.575 64.18 195.665 64.18C195.195 64.18 194.735 64.41 194.285 64.87V67.885ZM201.734 62.56H203.534L203.714 64.18H203.759C204.129 63.57 204.574 63.12 205.094 62.83C205.614 62.53 206.174 62.38 206.774 62.38C207.104 62.38 207.369 62.405 207.569 62.455C207.779 62.505 207.994 62.58 208.214 62.68L207.764 64.525C207.534 64.455 207.324 64.405 207.134 64.375C206.954 64.335 206.724 64.315 206.444 64.315C205.984 64.315 205.529 64.45 205.079 64.72C204.639 64.99 204.259 65.46 203.939 66.13V70H201.734V62.56ZM210.173 62.56H215.363V70H213.158V64.285H210.173V62.56ZM214.163 61.465C213.733 61.465 213.378 61.345 213.098 61.105C212.828 60.865 212.693 60.54 212.693 60.13C212.693 59.72 212.828 59.39 213.098 59.14C213.378 58.88 213.733 58.75 214.163 58.75C214.593 58.75 214.943 58.88 215.213 59.14C215.493 59.39 215.633 59.72 215.633 60.13C215.633 60.54 215.493 60.865 215.213 61.105C214.943 61.345 214.593 61.465 214.163 61.465ZM219.062 62.56H220.862L221.027 63.55H221.087C221.407 63.23 221.772 62.955 222.182 62.725C222.602 62.495 223.092 62.38 223.652 62.38C224.492 62.38 225.107 62.65 225.497 63.19C225.887 63.73 226.082 64.47 226.082 65.41V70H223.877V65.695C223.877 65.195 223.797 64.83 223.637 64.6C223.477 64.37 223.192 64.255 222.782 64.255C222.482 64.255 222.217 64.32 221.987 64.45C221.767 64.58 221.527 64.775 221.267 65.035V70H219.062V62.56ZM229.587 64.285H227.712V62.65L229.692 62.56L229.977 60.58H231.792V62.56H234.942V64.285H231.792V66.895C231.792 67.465 231.917 67.87 232.167 68.11C232.417 68.34 232.812 68.455 233.352 68.455C233.642 68.455 233.907 68.43 234.147 68.38C234.387 68.33 234.617 68.265 234.837 68.185L235.227 69.775C234.897 69.875 234.527 69.965 234.117 70.045C233.717 70.135 233.277 70.18 232.797 70.18C232.207 70.18 231.707 70.1 231.297 69.94C230.887 69.78 230.552 69.56 230.292 69.28C230.042 68.99 229.862 68.645 229.752 68.245C229.642 67.845 229.587 67.4 229.587 66.91V64.285Z" fill="#56B4E9"/>
<path d="M241.851 72.685C240.871 71.815 240.096 70.81 239.526 69.67C238.966 68.53 238.686 67.25 238.686 65.83C238.686 64.41 238.966 63.13 239.526 61.99C240.096 60.85 240.871 59.845 241.851 58.975L243.081 59.95C242.191 60.82 241.541 61.725 241.131 62.665C240.731 63.595 240.531 64.65 240.531 65.83C240.531 66.42 240.581 66.98 240.681 67.51C240.781 68.03 240.931 68.53 241.131 69.01C241.341 69.49 241.606 69.95 241.926 70.39C242.246 70.84 242.631 71.28 243.081 71.71L241.851 72.685ZM291.826 71.71C292.276 71.28 292.661 70.84 292.981 70.39C293.301 69.95 293.561 69.49 293.761 69.01C293.971 68.53 294.126 68.03 294.226 67.51C294.326 66.98 294.376 66.42 294.376 65.83C294.376 64.65 294.171 63.595 293.761 62.665C293.361 61.725 292.716 60.82 291.826 59.95L293.056 58.975C294.036 59.845 294.806 60.85 295.366 61.99C295.936 63.13 296.221 64.41 296.221 65.83C296.221 67.25 295.936 68.53 295.366 69.67C294.806 70.81 294.036 71.815 293.056 72.685L291.826 71.71Z" fill="white"/>
<rect width="152" height="160" fill="black"/>
<path d="M11.2311 126.87C11.5111 126.87 11.8011 126.8 12.1011 126.66C12.4011 126.52 12.6961 126.275 12.9861 125.925C12.9261 125.555 12.8361 125.245 12.7161 124.995C12.6061 124.735 12.4711 124.53 12.3111 124.38C12.1611 124.22 11.9961 124.11 11.8161 124.05C11.6361 123.98 11.4511 123.945 11.2611 123.945C11.0711 123.945 10.8861 123.975 10.7061 124.035C10.5361 124.095 10.3811 124.19 10.2411 124.32C10.1111 124.44 10.0061 124.6 9.9261 124.8C9.8461 124.99 9.8061 125.22 9.8061 125.49C9.8061 125.98 9.9361 126.335 10.1961 126.555C10.4561 126.765 10.8011 126.87 11.2311 126.87ZM9.1011 129.72C9.3011 129.9 9.5511 130.06 9.8511 130.2C10.1511 130.33 10.4611 130.395 10.7811 130.395C11.0711 130.395 11.3461 130.345 11.6061 130.245C11.8761 130.135 12.1111 129.965 12.3111 129.735C12.5211 129.495 12.6911 129.185 12.8211 128.805C12.9511 128.415 13.0261 127.94 13.0461 127.38C12.6961 127.71 12.3111 127.97 11.8911 128.16C11.4811 128.34 11.1011 128.43 10.7511 128.43C10.3311 128.43 9.9411 128.37 9.5811 128.25C9.2211 128.13 8.9061 127.95 8.6361 127.71C8.3761 127.47 8.1711 127.165 8.0211 126.795C7.8711 126.425 7.7961 125.99 7.7961 125.49C7.7961 125 7.8861 124.56 8.0661 124.17C8.2561 123.77 8.5061 123.43 8.8161 123.15C9.1361 122.87 9.5011 122.66 9.9111 122.52C10.3211 122.37 10.7561 122.295 11.2161 122.295C11.7061 122.295 12.1811 122.385 12.6411 122.565C13.1111 122.745 13.5261 123.025 13.8861 123.405C14.2461 123.785 14.5311 124.275 14.7411 124.875C14.9611 125.465 15.0711 126.18 15.0711 127.02C15.0711 127.91 14.9561 128.68 14.7261 129.33C14.4961 129.98 14.1911 130.515 13.8111 130.935C13.4311 131.355 12.9911 131.67 12.4911 131.88C12.0011 132.08 11.4961 132.18 10.9761 132.18C10.2961 132.18 9.7011 132.065 9.1911 131.835C8.6811 131.605 8.2611 131.34 7.9311 131.04L9.1011 129.72ZM8.6811 148.45C9.0011 148.71 9.3411 148.935 9.7011 149.125C10.0711 149.305 10.4811 149.395 10.9311 149.395C11.4711 149.395 11.9111 149.27 12.2511 149.02C12.6011 148.77 12.7761 148.4 12.7761 147.91C12.7761 147.43 12.6111 147.065 12.2811 146.815C11.9611 146.565 11.5461 146.44 11.0361 146.44C10.8761 146.44 10.7311 146.45 10.6011 146.47C10.4811 146.48 10.3611 146.505 10.2411 146.545C10.1211 146.585 9.9961 146.635 9.8661 146.695C9.7361 146.755 9.5911 146.83 9.4311 146.92L8.4561 146.29L8.7111 141.475H14.5461V143.335H10.6161L10.4511 145.12C10.6711 145.04 10.8761 144.985 11.0661 144.955C11.2561 144.915 11.4711 144.895 11.7111 144.895C12.1511 144.895 12.5661 144.955 12.9561 145.075C13.3561 145.195 13.7061 145.375 14.0061 145.615C14.3061 145.855 14.5411 146.16 14.7111 146.53C14.8911 146.9 14.9811 147.34 14.9811 147.85C14.9811 148.38 14.8761 148.85 14.6661 149.26C14.4661 149.67 14.1911 150.02 13.8411 150.31C13.5011 150.59 13.1061 150.805 12.6561 150.955C12.2061 151.105 11.7361 151.18 11.2461 151.18C10.4161 151.18 9.7111 151.055 9.1311 150.805C8.5611 150.545 8.0811 150.225 7.6911 149.845L8.6811 148.45Z" fill="white"/>
<path d="M11.5011 112.18C10.9211 112.18 10.3861 112.065 9.8961 111.835C9.4161 111.595 9.0011 111.255 8.6511 110.815C8.3111 110.375 8.0461 109.84 7.8561 109.21C7.6661 108.58 7.5711 107.865 7.5711 107.065C7.5711 106.265 7.6661 105.555 7.8561 104.935C8.0461 104.305 8.3111 103.78 8.6511 103.36C9.0011 102.93 9.4161 102.605 9.8961 102.385C10.3861 102.155 10.9211 102.04 11.5011 102.04C12.0811 102.04 12.6111 102.155 13.0911 102.385C13.5811 102.605 13.9961 102.93 14.3361 103.36C14.6861 103.79 14.9561 104.32 15.1461 104.95C15.3361 105.57 15.4311 106.275 15.4311 107.065C15.4311 107.865 15.3361 108.58 15.1461 109.21C14.9561 109.84 14.6861 110.375 14.3361 110.815C13.9961 111.255 13.5811 111.595 13.0911 111.835C12.6111 112.065 12.0811 112.18 11.5011 112.18ZM11.5011 110.275C12.0111 110.275 12.4161 109.99 12.7161 109.42C13.0161 108.84 13.1661 108.055 13.1661 107.065C13.1661 106.085 13.0161 105.32 12.7161 104.77C12.4161 104.22 12.0111 103.945 11.5011 103.945C10.9911 103.945 10.5861 104.22 10.2861 104.77C9.9861 105.32 9.8361 106.085 9.8361 107.065C9.8361 108.055 9.9861 108.84 10.2861 109.42C10.5861 109.99 10.9911 110.275 11.5011 110.275ZM23.8702 112H22.0702L21.9052 110.935H21.8452C21.5152 111.315 21.1502 111.62 20.7502 111.85C20.3502 112.07 19.8802 112.18 19.3402 112.18C18.4902 112.18 17.8752 111.91 17.4952 111.37C17.1152 110.83 16.9252 110.09 16.9252 109.15V104.56H19.1302V108.865C19.1302 109.365 19.2052 109.73 19.3552 109.96C19.5052 110.19 19.7902 110.305 20.2102 110.305C20.4902 110.305 20.7352 110.245 20.9452 110.125C21.1652 110.005 21.4052 109.78 21.6652 109.45V104.56H23.8702V112ZM27.5994 106.285H25.7244V104.65L27.7044 104.56L27.9894 102.58H29.8044V104.56H32.9544V106.285H29.8044V108.895C29.8044 109.465 29.9294 109.87 30.1794 110.11C30.4294 110.34 30.8244 110.455 31.3644 110.455C31.6544 110.455 31.9194 110.43 32.1594 110.38C32.3994 110.33 32.6294 110.265 32.8494 110.185L33.2394 111.775C32.9094 111.875 32.5394 111.965 32.1294 112.045C31.7294 112.135 31.2894 112.18 30.8094 112.18C30.2194 112.18 29.7194 112.1 29.3094 111.94C28.8994 111.78 28.5644 111.56 28.3044 111.28C28.0544 110.99 27.8744 110.645 27.7644 110.245C27.6544 109.845 27.5994 109.4 27.5994 108.91V106.285ZM37.2685 112.585V114.76H35.0635V104.56H36.8635L37.0285 105.31H37.0735C37.3735 105.04 37.7185 104.82 38.1085 104.65C38.4985 104.47 38.8935 104.38 39.2935 104.38C39.7535 104.38 40.1685 104.47 40.5385 104.65C40.9085 104.83 41.2235 105.085 41.4835 105.415C41.7435 105.745 41.9385 106.145 42.0685 106.615C42.2085 107.075 42.2785 107.59 42.2785 108.16C42.2785 108.8 42.1885 109.37 42.0085 109.87C41.8285 110.36 41.5885 110.78 41.2885 111.13C40.9885 111.47 40.6435 111.73 40.2535 111.91C39.8735 112.09 39.4735 112.18 39.0535 112.18C38.3735 112.18 37.7535 111.91 37.1935 111.37L37.2685 112.585ZM37.2685 109.885C37.4785 110.065 37.6935 110.195 37.9135 110.275C38.1435 110.345 38.3535 110.38 38.5435 110.38C38.9635 110.38 39.3135 110.21 39.5935 109.87C39.8735 109.52 40.0135 108.96 40.0135 108.19C40.0135 106.85 39.5585 106.18 38.6485 106.18C38.1785 106.18 37.7185 106.41 37.2685 106.87V109.885ZM50.8527 112H49.0527L48.8877 110.935H48.8277C48.4977 111.315 48.1327 111.62 47.7327 111.85C47.3327 112.07 46.8627 112.18 46.3227 112.18C45.4727 112.18 44.8577 111.91 44.4777 111.37C44.0977 110.83 43.9077 110.09 43.9077 109.15V104.56H46.1127V108.865C46.1127 109.365 46.1877 109.73 46.3377 109.96C46.4877 110.19 46.7727 110.305 47.1927 110.305C47.4727 110.305 47.7177 110.245 47.9277 110.125C48.1477 110.005 48.3877 109.78 48.6477 109.45V104.56H50.8527V112ZM54.5818 106.285H52.7068V104.65L54.6868 104.56L54.9718 102.58H56.7868V104.56H59.9368V106.285H56.7868V108.895C56.7868 109.465 56.9118 109.87 57.1618 110.11C57.4118 110.34 57.8068 110.455 58.3468 110.455C58.6368 110.455 58.9018 110.43 59.1418 110.38C59.3818 110.33 59.6118 110.265 59.8318 110.185L60.2218 111.775C59.8918 111.875 59.5218 111.965 59.1118 112.045C58.7118 112.135 58.2718 112.18 57.7918 112.18C57.2018 112.18 56.7018 112.1 56.2918 111.94C55.8818 111.78 55.5468 111.56 55.2868 111.28C55.0368 110.99 54.8568 110.645 54.7468 110.245C54.6368 109.845 54.5818 109.4 54.5818 108.91V106.285Z" fill="white"/>
<rect x="79.0011" width="73" height="31" fill="#333333"/>
<rect x="79.0011" width="73" height="31" fill="#333333"/>
<rect x="0.00109863" width="79" height="31" fill="#090808"/>
<path d="M12.1061 17.8101C12.1061 17.5513 11.9767 17.3486 11.7179 17.2021C11.464 17.0508 11.0538 16.9165 10.4874 16.7993C8.60266 16.4038 7.66028 15.603 7.66028 14.397C7.66028 13.6938 7.95081 13.1079 8.53186 12.6392C9.1178 12.1655 9.88196 11.9287 10.8243 11.9287C11.8302 11.9287 12.6334 12.1655 13.234 12.6392C13.8395 13.1128 14.1422 13.728 14.1422 14.4849H12.0255C12.0255 14.1821 11.9279 13.9331 11.7325 13.7378C11.5372 13.5376 11.2321 13.4375 10.817 13.4375C10.4606 13.4375 10.1847 13.5181 9.98938 13.6792C9.79407 13.8403 9.69641 14.0454 9.69641 14.2944C9.69641 14.5288 9.80627 14.7192 10.026 14.8657C10.2506 15.0073 10.6266 15.1318 11.1539 15.2393C11.6813 15.3418 12.1256 15.459 12.4869 15.5908C13.6051 16.001 14.1642 16.7114 14.1642 17.7222C14.1642 18.4448 13.8541 19.0308 13.234 19.48C12.6139 19.9243 11.8131 20.1465 10.8317 20.1465C10.1676 20.1465 9.57678 20.0293 9.0592 19.7949C8.54651 19.5557 8.14368 19.231 7.85071 18.8208C7.55774 18.4058 7.41125 17.959 7.41125 17.4805H9.41809C9.43762 17.8564 9.57678 18.1445 9.83557 18.3447C10.0944 18.5449 10.441 18.645 10.8756 18.645C11.2809 18.645 11.5861 18.5693 11.7911 18.418C12.0011 18.2617 12.1061 18.0591 12.1061 17.8101ZM18.8297 18.4399C19.2203 18.4399 19.5377 18.3325 19.7819 18.1177C20.026 17.9028 20.153 17.6172 20.1627 17.2607H22.1476C22.1427 17.7979 21.9962 18.291 21.7081 18.7402C21.42 19.1846 21.0245 19.5312 20.5216 19.7803C20.0236 20.0244 19.4718 20.1465 18.8663 20.1465C17.7335 20.1465 16.84 19.7876 16.1857 19.0698C15.5314 18.3472 15.2042 17.3511 15.2042 16.0815V15.9424C15.2042 14.7217 15.5289 13.7476 16.1783 13.02C16.8278 12.2925 17.7189 11.9287 18.8517 11.9287C19.8429 11.9287 20.6364 12.2119 21.2321 12.7783C21.8326 13.3398 22.1378 14.0894 22.1476 15.0269H20.1627C20.153 14.6167 20.026 14.2847 19.7819 14.0308C19.5377 13.772 19.2155 13.6426 18.8151 13.6426C18.3219 13.6426 17.9484 13.8232 17.6945 14.1846C17.4454 14.541 17.3209 15.1221 17.3209 15.9277V16.1475C17.3209 16.9629 17.4454 17.5488 17.6945 17.9053C17.9435 18.2617 18.3219 18.4399 18.8297 18.4399ZM27.8092 14.0601C27.5211 14.021 27.2672 14.0015 27.0475 14.0015C26.2467 14.0015 25.7218 14.2725 25.4728 14.8145V20H23.3561V12.0752H25.3556L25.4142 13.02C25.839 12.2925 26.4274 11.9287 27.1793 11.9287C27.4137 11.9287 27.6334 11.9604 27.8385 12.0239L27.8092 14.0601ZM31.0685 20H28.9445V12.0752H31.0685V20ZM28.8199 10.0244C28.8199 9.70703 28.9249 9.4458 29.1349 9.24072C29.3497 9.03564 29.6403 8.93311 30.0065 8.93311C30.3678 8.93311 30.6559 9.03564 30.8707 9.24072C31.0856 9.4458 31.193 9.70703 31.193 10.0244C31.193 10.3467 31.0831 10.6104 30.8634 10.8154C30.6486 11.0205 30.3629 11.123 30.0065 11.123C29.65 11.123 29.3619 11.0205 29.1422 10.8154C28.9274 10.6104 28.8199 10.3467 28.8199 10.0244ZM39.9528 16.1108C39.9528 17.3315 39.6744 18.3105 39.1178 19.0479C38.566 19.7803 37.819 20.1465 36.8766 20.1465C36.0758 20.1465 35.4288 19.8682 34.9357 19.3115V23.0469H32.819V12.0752H34.7819L34.8551 12.8516C35.3678 12.2363 36.0367 11.9287 36.8619 11.9287C37.8385 11.9287 38.5978 12.29 39.1398 13.0127C39.6818 13.7354 39.9528 14.7314 39.9528 16.001V16.1108ZM37.8361 15.957C37.8361 15.2197 37.7042 14.6509 37.4406 14.2505C37.1818 13.8501 36.8033 13.6499 36.3053 13.6499C35.6412 13.6499 35.1847 13.9038 34.9357 14.4116V17.6562C35.1945 18.1787 35.6559 18.4399 36.3199 18.4399C37.3307 18.4399 37.8361 17.6123 37.8361 15.957ZM43.8053 10.127V12.0752H45.1603V13.6279H43.8053V17.583C43.8053 17.876 43.8615 18.0859 43.9738 18.2129C44.0861 18.3398 44.3009 18.4033 44.6183 18.4033C44.8527 18.4033 45.0602 18.3862 45.2408 18.3521V19.9561C44.8258 20.083 44.3986 20.1465 43.9591 20.1465C42.4747 20.1465 41.7179 19.397 41.6886 17.8979V13.6279H40.5314V12.0752H41.6886V10.127H43.8053ZM46.4493 18.96C46.4493 18.623 46.5616 18.3496 46.7863 18.1396C47.0157 17.9297 47.3014 17.8247 47.6432 17.8247C47.9899 17.8247 48.2755 17.9297 48.5001 18.1396C48.7296 18.3496 48.8444 18.623 48.8444 18.96C48.8444 19.292 48.7321 19.563 48.5074 19.7729C48.2828 19.978 47.9948 20.0806 47.6432 20.0806C47.2965 20.0806 47.0109 19.978 46.7863 19.7729C46.5616 19.563 46.4493 19.292 46.4493 18.96ZM57.8385 16.1108C57.8385 17.3315 57.5602 18.3105 57.0035 19.0479C56.4518 19.7803 55.7047 20.1465 54.7623 20.1465C53.9615 20.1465 53.3146 19.8682 52.8214 19.3115V23.0469H50.7047V12.0752H52.6676L52.7408 12.8516C53.2535 12.2363 53.9225 11.9287 54.7477 11.9287C55.7242 11.9287 56.4835 12.29 57.0255 13.0127C57.5675 13.7354 57.8385 14.7314 57.8385 16.001V16.1108ZM55.7218 15.957C55.7218 15.2197 55.59 14.6509 55.3263 14.2505C55.0675 13.8501 54.6891 13.6499 54.191 13.6499C53.527 13.6499 53.0704 13.9038 52.8214 14.4116V17.6562C53.0802 18.1787 53.5416 18.4399 54.2057 18.4399C55.2164 18.4399 55.7218 17.6123 55.7218 15.957ZM62.028 17.0044L63.4928 12.0752H65.7633L62.5773 21.2305L62.4015 21.6479C61.9279 22.6831 61.1466 23.2007 60.0577 23.2007C59.7501 23.2007 59.4376 23.1543 59.1202 23.0615V21.4575L59.4425 21.4648C59.8429 21.4648 60.1407 21.4038 60.3361 21.2817C60.5363 21.1597 60.6925 20.957 60.8048 20.6738L61.0538 20.022L58.278 12.0752H60.5558L62.028 17.0044Z" fill="white"/>
<line y1="96.2094" x2="152.002" y2="96.2094" stroke="white"/>
<path d="M10.2861 51.585V53.76H8.0811V43.56H9.8811L10.0461 44.31H10.0911C10.3911 44.04 10.7361 43.82 11.1261 43.65C11.5161 43.47 11.9111 43.38 12.3111 43.38C12.7711 43.38 13.1861 43.47 13.5561 43.65C13.9261 43.83 14.2411 44.085 14.5011 44.415C14.7611 44.745 14.9561 45.145 15.0861 45.615C15.2261 46.075 15.2961 46.59 15.2961 47.16C15.2961 47.8 15.2061 48.37 15.0261 48.87C14.8461 49.36 14.6061 49.78 14.3061 50.13C14.0061 50.47 13.6611 50.73 13.2711 50.91C12.8911 51.09 12.4911 51.18 12.0711 51.18C11.3911 51.18 10.7711 50.91 10.2111 50.37L10.2861 51.585ZM10.2861 48.885C10.4961 49.065 10.7111 49.195 10.9311 49.275C11.1611 49.345 11.3711 49.38 11.5611 49.38C11.9811 49.38 12.3311 49.21 12.6111 48.87C12.8911 48.52 13.0311 47.96 13.0311 47.19C13.0311 45.85 12.5761 45.18 11.6661 45.18C11.1961 45.18 10.7361 45.41 10.2861 45.87V48.885ZM17.7352 43.56H19.5352L19.7152 45.18H19.7602C20.1302 44.57 20.5752 44.12 21.0952 43.83C21.6152 43.53 22.1752 43.38 22.7752 43.38C23.1052 43.38 23.3702 43.405 23.5702 43.455C23.7802 43.505 23.9952 43.58 24.2152 43.68L23.7652 45.525C23.5352 45.455 23.3252 45.405 23.1352 45.375C22.9552 45.335 22.7252 45.315 22.4452 45.315C21.9852 45.315 21.5302 45.45 21.0802 45.72C20.6402 45.99 20.2602 46.46 19.9402 47.13V51H17.7352V43.56ZM26.1744 43.56H31.3644V51H29.1594V45.285H26.1744V43.56ZM30.1644 42.465C29.7344 42.465 29.3794 42.345 29.0994 42.105C28.8294 41.865 28.6944 41.54 28.6944 41.13C28.6944 40.72 28.8294 40.39 29.0994 40.14C29.3794 39.88 29.7344 39.75 30.1644 39.75C30.5944 39.75 30.9444 39.88 31.2144 40.14C31.4944 40.39 31.6344 40.72 31.6344 41.13C31.6344 41.54 31.4944 41.865 31.2144 42.105C30.9444 42.345 30.5944 42.465 30.1644 42.465ZM35.0635 43.56H36.8635L37.0285 44.55H37.0885C37.4085 44.23 37.7735 43.955 38.1835 43.725C38.6035 43.495 39.0935 43.38 39.6535 43.38C40.4935 43.38 41.1085 43.65 41.4985 44.19C41.8885 44.73 42.0835 45.47 42.0835 46.41V51H39.8785V46.695C39.8785 46.195 39.7985 45.83 39.6385 45.6C39.4785 45.37 39.1935 45.255 38.7835 45.255C38.4835 45.255 38.2185 45.32 37.9885 45.45C37.7685 45.58 37.5285 45.775 37.2685 46.035V51H35.0635V43.56ZM45.5877 45.285H43.7127V43.65L45.6927 43.56L45.9777 41.58H47.7927V43.56H50.9427V45.285H47.7927V47.895C47.7927 48.465 47.9177 48.87 48.1677 49.11C48.4177 49.34 48.8127 49.455 49.3527 49.455C49.6427 49.455 49.9077 49.43 50.1477 49.38C50.3877 49.33 50.6177 49.265 50.8377 49.185L51.2277 50.775C50.8977 50.875 50.5277 50.965 50.1177 51.045C49.7177 51.135 49.2777 51.18 48.7977 51.18C48.2077 51.18 47.7077 51.1 47.2977 50.94C46.8877 50.78 46.5527 50.56 46.2927 50.28C46.0427 49.99 45.8627 49.645 45.7527 49.245C45.6427 48.845 45.5877 48.4 45.5877 47.91V45.285Z" fill="#56B4E9"/>
<path d="M57.8518 53.685C56.8718 52.815 56.0968 51.81 55.5268 50.67C54.9668 49.53 54.6868 48.25 54.6868 46.83C54.6868 45.41 54.9668 44.13 55.5268 42.99C56.0968 41.85 56.8718 40.845 57.8518 39.975L59.0818 40.95C58.1918 41.82 57.5418 42.725 57.1318 43.665C56.7318 44.595 56.5318 45.65 56.5318 46.83C56.5318 47.42 56.5818 47.98 56.6818 48.51C56.7818 49.03 56.9318 49.53 57.1318 50.01C57.3418 50.49 57.6068 50.95 57.9268 51.39C58.2468 51.84 58.6318 52.28 59.0818 52.71L57.8518 53.685ZM107.827 52.71C108.277 52.28 108.662 51.84 108.982 51.39C109.302 50.95 109.562 50.49 109.762 50.01C109.972 49.53 110.127 49.03 110.227 48.51C110.327 47.98 110.377 47.42 110.377 46.83C110.377 45.65 110.172 44.595 109.762 43.665C109.362 42.725 108.717 41.82 107.827 40.95L109.057 39.975C110.037 40.845 110.807 41.85 111.367 42.99C111.937 44.13 112.222 45.41 112.222 46.83C112.222 48.25 111.937 49.53 111.367 50.67C110.807 51.81 110.037 52.815 109.057 53.685L107.827 52.71Z" fill="white"/>
<path d="M62.6459 48.45C62.9659 48.71 63.3059 48.935 63.6659 49.125C64.0359 49.305 64.4459 49.395 64.8959 49.395C65.4359 49.395 65.8759 49.27 66.2159 49.02C66.5659 48.77 66.7409 48.4 66.7409 47.91C66.7409 47.43 66.5759 47.065 66.2459 46.815C65.9259 46.565 65.5109 46.44 65.0009 46.44C64.8409 46.44 64.6959 46.45 64.5659 46.47C64.4459 46.48 64.3259 46.505 64.2059 46.545C64.0859 46.585 63.9609 46.635 63.8309 46.695C63.7009 46.755 63.5559 46.83 63.3959 46.92L62.4209 46.29L62.6759 41.475H68.5109V43.335H64.5809L64.4159 45.12C64.6359 45.04 64.8409 44.985 65.0309 44.955C65.2209 44.915 65.4359 44.895 65.6759 44.895C66.1159 44.895 66.5309 44.955 66.9209 45.075C67.3209 45.195 67.6709 45.375 67.9709 45.615C68.2709 45.855 68.5059 46.16 68.6759 46.53C68.8559 46.9 68.9459 47.34 68.9459 47.85C68.9459 48.38 68.8409 48.85 68.6309 49.26C68.4309 49.67 68.1559 50.02 67.8059 50.31C67.4659 50.59 67.0709 50.805 66.6209 50.955C66.1709 51.105 65.7009 51.18 65.2109 51.18C64.3809 51.18 63.6759 51.055 63.0959 50.805C62.5259 50.545 62.0459 50.225 61.6559 49.845L62.6459 48.45ZM102.058 47.04V45.435C102.058 45.135 102.063 44.79 102.073 44.4C102.093 44 102.113 43.65 102.133 43.35H102.073C101.913 43.62 101.743 43.89 101.563 44.16C101.383 44.43 101.208 44.7 101.038 44.97L99.5975 47.04H102.058ZM105.313 48.72H104.113V51H102.058V48.72H97.4675V47.205L101.443 41.475H104.113V47.04H105.313V48.72ZM7.8711 68.74C8.5511 68.17 9.1711 67.64 9.7311 67.15C10.2911 66.65 10.7711 66.185 11.1711 65.755C11.5711 65.325 11.8811 64.92 12.1011 64.54C12.3211 64.16 12.4311 63.8 12.4311 63.46C12.4311 62.99 12.2961 62.635 12.0261 62.395C11.7561 62.145 11.3711 62.02 10.8711 62.02C10.4911 62.02 10.1411 62.12 9.8211 62.32C9.5111 62.51 9.2211 62.735 8.9511 62.995L7.7661 61.81C8.0161 61.56 8.2611 61.34 8.5011 61.15C8.7511 60.96 9.0111 60.805 9.2811 60.685C9.5611 60.555 9.8511 60.46 10.1511 60.4C10.4611 60.33 10.8011 60.295 11.1711 60.295C11.6711 60.295 12.1261 60.37 12.5361 60.52C12.9461 60.66 13.2961 60.865 13.5861 61.135C13.8861 61.395 14.1161 61.71 14.2761 62.08C14.4461 62.45 14.5311 62.865 14.5311 63.325C14.5311 63.725 14.4361 64.135 14.2461 64.555C14.0561 64.965 13.7961 65.38 13.4661 65.8C13.1461 66.21 12.7761 66.625 12.3561 67.045C11.9361 67.455 11.4961 67.86 11.0361 68.26C11.3061 68.23 11.5961 68.205 11.9061 68.185C12.2261 68.155 12.5111 68.14 12.7611 68.14H15.0261V70H7.8711V68.74ZM44.6277 67.435C44.9477 67.715 45.3027 67.945 45.6927 68.125C46.0927 68.305 46.5127 68.395 46.9527 68.395C47.4727 68.395 47.8977 68.3 48.2277 68.11C48.5677 67.91 48.7377 67.63 48.7377 67.27C48.7377 67.06 48.6927 66.87 48.6027 66.7C48.5127 66.53 48.3577 66.39 48.1377 66.28C47.9177 66.16 47.6227 66.07 47.2527 66.01C46.8827 65.94 46.4177 65.905 45.8577 65.905V64.345C46.7977 64.345 47.4577 64.23 47.8377 64C48.2277 63.76 48.4227 63.45 48.4227 63.07C48.4227 62.74 48.2977 62.485 48.0477 62.305C47.7977 62.115 47.4527 62.02 47.0127 62.02C46.6327 62.02 46.2827 62.095 45.9627 62.245C45.6427 62.395 45.3177 62.6 44.9877 62.86L43.8777 61.51C44.3477 61.13 44.8477 60.835 45.3777 60.625C45.9177 60.405 46.4977 60.295 47.1177 60.295C47.6377 60.295 48.1127 60.355 48.5427 60.475C48.9727 60.585 49.3427 60.755 49.6527 60.985C49.9627 61.205 50.2027 61.475 50.3727 61.795C50.5427 62.115 50.6277 62.485 50.6277 62.905C50.6277 63.405 50.4677 63.83 50.1477 64.18C49.8277 64.52 49.3827 64.8 48.8127 65.02V65.08C49.4127 65.24 49.9177 65.515 50.3277 65.905C50.7377 66.285 50.9427 66.785 50.9427 67.405C50.9427 67.845 50.8377 68.24 50.6277 68.59C50.4277 68.93 50.1527 69.22 49.8027 69.46C49.4627 69.69 49.0627 69.87 48.6027 70C48.1427 70.12 47.6627 70.18 47.1627 70.18C46.3427 70.18 45.6377 70.06 45.0477 69.82C44.4577 69.57 43.9777 69.24 43.6077 68.83L44.6277 67.435Z" fill="#F0E442"/>
<path d="M82.6442 46.83H80.0042V45.27H82.6442V42.51H84.2642V45.27H86.9042V46.83H84.2642V49.59H82.6442V46.83ZM28.6794 65.83H26.0394V64.27H28.6794V61.51H30.2994V64.27H32.9394V65.83H30.2994V68.59H28.6794V65.83Z" fill="#E0E0E0"/>
</svg>
