<svg width="242" height="154" viewBox="0 0 242 154" fill="none" xmlns="http://www.w3.org/2000/svg">
<rect width="242" height="154" fill="white"/>
<rect width="242" height="154" fill="black"/>
<path d="M15.055 137.215V139H8.23V137.215H10.69V131.71H8.725V130.345C9.285 130.245 9.76 130.125 10.15 129.985C10.55 129.845 10.925 129.675 11.275 129.475H12.895V137.215H15.055ZM20.4941 139.18C19.9441 139.18 19.4441 139.075 18.9941 138.865C18.5441 138.645 18.1591 138.325 17.8391 137.905C17.5191 137.485 17.2691 136.965 17.0891 136.345C16.9191 135.725 16.8341 135.01 16.8341 134.2C16.8341 133.39 16.9191 132.68 17.0891 132.07C17.2691 131.46 17.5191 130.95 17.8391 130.54C18.1591 130.12 18.5441 129.81 18.9941 129.61C19.4441 129.4 19.9441 129.295 20.4941 129.295C21.0441 129.295 21.5441 129.4 21.9941 129.61C22.4441 129.81 22.8291 130.12 23.1491 130.54C23.4691 130.95 23.7141 131.46 23.8841 132.07C24.0641 132.68 24.1541 133.39 24.1541 134.2C24.1541 135.01 24.0641 135.725 23.8841 136.345C23.7141 136.965 23.4691 137.485 23.1491 137.905C22.8291 138.325 22.4441 138.645 21.9941 138.865C21.5441 139.075 21.0441 139.18 20.4941 139.18ZM20.4941 131.005C20.2541 131.005 20.0291 131.055 19.8191 131.155C19.6191 131.255 19.4441 131.43 19.2941 131.68C19.1441 131.92 19.0241 132.245 18.9341 132.655C18.8441 133.065 18.7991 133.58 18.7991 134.2C18.7991 134.82 18.8441 135.34 18.9341 135.76C19.0241 136.17 19.1441 136.505 19.2941 136.765C19.4441 137.015 19.6191 137.195 19.8191 137.305C20.0291 137.415 20.2541 137.47 20.4941 137.47C20.7341 137.47 20.9541 137.415 21.1541 137.305C21.3641 137.195 21.5441 137.015 21.6941 136.765C21.8441 136.505 21.9641 136.17 22.0541 135.76C22.1441 135.34 22.1891 134.82 22.1891 134.2C22.1891 133.58 22.1441 133.065 22.0541 132.655C21.9641 132.245 21.8441 131.92 21.6941 131.68C21.5441 131.43 21.3641 131.255 21.1541 131.155C20.9541 131.055 20.7341 131.005 20.4941 131.005ZM20.4941 135.31C20.1741 135.31 19.9041 135.21 19.6841 135.01C19.4741 134.8 19.3691 134.52 19.3691 134.17C19.3691 133.82 19.4741 133.545 19.6841 133.345C19.9041 133.135 20.1741 133.03 20.4941 133.03C20.8141 133.03 21.0791 133.135 21.2891 133.345C21.5091 133.545 21.6191 133.82 21.6191 134.17C21.6191 134.52 21.5091 134.8 21.2891 135.01C21.0791 135.21 20.8141 135.31 20.4941 135.31ZM29.4883 139.18C28.9383 139.18 28.4383 139.075 27.9883 138.865C27.5383 138.645 27.1533 138.325 26.8333 137.905C26.5133 137.485 26.2633 136.965 26.0833 136.345C25.9133 135.725 25.8283 135.01 25.8283 134.2C25.8283 133.39 25.9133 132.68 26.0833 132.07C26.2633 131.46 26.5133 130.95 26.8333 130.54C27.1533 130.12 27.5383 129.81 27.9883 129.61C28.4383 129.4 28.9383 129.295 29.4883 129.295C30.0383 129.295 30.5383 129.4 30.9883 129.61C31.4383 129.81 31.8233 130.12 32.1433 130.54C32.4633 130.95 32.7083 131.46 32.8783 132.07C33.0583 132.68 33.1483 133.39 33.1483 134.2C33.1483 135.01 33.0583 135.725 32.8783 136.345C32.7083 136.965 32.4633 137.485 32.1433 137.905C31.8233 138.325 31.4383 138.645 30.9883 138.865C30.5383 139.075 30.0383 139.18 29.4883 139.18ZM29.4883 131.005C29.2483 131.005 29.0233 131.055 28.8133 131.155C28.6133 131.255 28.4383 131.43 28.2883 131.68C28.1383 131.92 28.0183 132.245 27.9283 132.655C27.8383 133.065 27.7933 133.58 27.7933 134.2C27.7933 134.82 27.8383 135.34 27.9283 135.76C28.0183 136.17 28.1383 136.505 28.2883 136.765C28.4383 137.015 28.6133 137.195 28.8133 137.305C29.0233 137.415 29.2483 137.47 29.4883 137.47C29.7283 137.47 29.9483 137.415 30.1483 137.305C30.3583 137.195 30.5383 137.015 30.6883 136.765C30.8383 136.505 30.9583 136.17 31.0483 135.76C31.1383 135.34 31.1833 134.82 31.1833 134.2C31.1833 133.58 31.1383 133.065 31.0483 132.655C30.9583 132.245 30.8383 131.92 30.6883 131.68C30.5383 131.43 30.3583 131.255 30.1483 131.155C29.9483 131.055 29.7283 131.005 29.4883 131.005ZM29.4883 135.31C29.1683 135.31 28.8983 135.21 28.6783 135.01C28.4683 134.8 28.3633 134.52 28.3633 134.17C28.3633 133.82 28.4683 133.545 28.6783 133.345C28.8983 133.135 29.1683 133.03 29.4883 133.03C29.8083 133.03 30.0733 133.135 30.2833 133.345C30.5033 133.545 30.6133 133.82 30.6133 134.17C30.6133 134.52 30.5033 134.8 30.2833 135.01C30.0733 135.21 29.8083 135.31 29.4883 135.31Z" fill="white"/>
<path d="M11.5 120.18C10.92 120.18 10.385 120.065 9.895 119.835C9.415 119.595 9 119.255 8.65 118.815C8.31 118.375 8.045 117.84 7.855 117.21C7.665 116.58 7.57 115.865 7.57 115.065C7.57 114.265 7.665 113.555 7.855 112.935C8.045 112.305 8.31 111.78 8.65 111.36C9 110.93 9.415 110.605 9.895 110.385C10.385 110.155 10.92 110.04 11.5 110.04C12.08 110.04 12.61 110.155 13.09 110.385C13.58 110.605 13.995 110.93 14.335 111.36C14.685 111.79 14.955 112.32 15.145 112.95C15.335 113.57 15.43 114.275 15.43 115.065C15.43 115.865 15.335 116.58 15.145 117.21C14.955 117.84 14.685 118.375 14.335 118.815C13.995 119.255 13.58 119.595 13.09 119.835C12.61 120.065 12.08 120.18 11.5 120.18ZM11.5 118.275C12.01 118.275 12.415 117.99 12.715 117.42C13.015 116.84 13.165 116.055 13.165 115.065C13.165 114.085 13.015 113.32 12.715 112.77C12.415 112.22 12.01 111.945 11.5 111.945C10.99 111.945 10.585 112.22 10.285 112.77C9.985 113.32 9.835 114.085 9.835 115.065C9.835 116.055 9.985 116.84 10.285 117.42C10.585 117.99 10.99 118.275 11.5 118.275ZM23.8691 120H22.0691L21.9041 118.935H21.8441C21.5141 119.315 21.1491 119.62 20.7491 119.85C20.3491 120.07 19.8791 120.18 19.3391 120.18C18.4891 120.18 17.8741 119.91 17.4941 119.37C17.1141 118.83 16.9241 118.09 16.9241 117.15V112.56H19.1291V116.865C19.1291 117.365 19.2041 117.73 19.3541 117.96C19.5041 118.19 19.7891 118.305 20.2091 118.305C20.4891 118.305 20.7341 118.245 20.9441 118.125C21.1641 118.005 21.4041 117.78 21.6641 117.45V112.56H23.8691V120ZM27.5983 114.285H25.7233V112.65L27.7033 112.56L27.9883 110.58H29.8033V112.56H32.9533V114.285H29.8033V116.895C29.8033 117.465 29.9283 117.87 30.1783 118.11C30.4283 118.34 30.8233 118.455 31.3633 118.455C31.6533 118.455 31.9183 118.43 32.1583 118.38C32.3983 118.33 32.6283 118.265 32.8483 118.185L33.2383 119.775C32.9083 119.875 32.5383 119.965 32.1283 120.045C31.7283 120.135 31.2883 120.18 30.8083 120.18C30.2183 120.18 29.7183 120.1 29.3083 119.94C28.8983 119.78 28.5633 119.56 28.3033 119.28C28.0533 118.99 27.8733 118.645 27.7633 118.245C27.6533 117.845 27.5983 117.4 27.5983 116.91V114.285ZM37.2674 120.585V122.76H35.0624V112.56H36.8624L37.0274 113.31H37.0724C37.3724 113.04 37.7174 112.82 38.1074 112.65C38.4974 112.47 38.8924 112.38 39.2924 112.38C39.7524 112.38 40.1674 112.47 40.5374 112.65C40.9074 112.83 41.2224 113.085 41.4824 113.415C41.7424 113.745 41.9374 114.145 42.0674 114.615C42.2074 115.075 42.2774 115.59 42.2774 116.16C42.2774 116.8 42.1874 117.37 42.0074 117.87C41.8274 118.36 41.5874 118.78 41.2874 119.13C40.9874 119.47 40.6424 119.73 40.2524 119.91C39.8724 120.09 39.4724 120.18 39.0524 120.18C38.3724 120.18 37.7524 119.91 37.1924 119.37L37.2674 120.585ZM37.2674 117.885C37.4774 118.065 37.6924 118.195 37.9124 118.275C38.1424 118.345 38.3524 118.38 38.5424 118.38C38.9624 118.38 39.3124 118.21 39.5924 117.87C39.8724 117.52 40.0124 116.96 40.0124 116.19C40.0124 114.85 39.5574 114.18 38.6474 114.18C38.1774 114.18 37.7174 114.41 37.2674 114.87V117.885ZM50.8516 120H49.0516L48.8866 118.935H48.8266C48.4966 119.315 48.1316 119.62 47.7316 119.85C47.3316 120.07 46.8616 120.18 46.3216 120.18C45.4716 120.18 44.8566 119.91 44.4766 119.37C44.0966 118.83 43.9066 118.09 43.9066 117.15V112.56H46.1116V116.865C46.1116 117.365 46.1866 117.73 46.3366 117.96C46.4866 118.19 46.7716 118.305 47.1916 118.305C47.4716 118.305 47.7166 118.245 47.9266 118.125C48.1466 118.005 48.3866 117.78 48.6466 117.45V112.56H50.8516V120ZM54.5807 114.285H52.7057V112.65L54.6857 112.56L54.9707 110.58H56.7857V112.56H59.9357V114.285H56.7857V116.895C56.7857 117.465 56.9107 117.87 57.1607 118.11C57.4107 118.34 57.8057 118.455 58.3457 118.455C58.6357 118.455 58.9007 118.43 59.1407 118.38C59.3807 118.33 59.6107 118.265 59.8307 118.185L60.2207 119.775C59.8907 119.875 59.5207 119.965 59.1107 120.045C58.7107 120.135 58.2707 120.18 57.7907 120.18C57.2007 120.18 56.7007 120.1 56.2907 119.94C55.8807 119.78 55.5457 119.56 55.2857 119.28C55.0357 118.99 54.8557 118.645 54.7457 118.245C54.6357 117.845 54.5807 117.4 54.5807 116.91V114.285Z" fill="white"/>
<rect x="96.75" width="145.25" height="30.6018" fill="#333333"/>
<rect x="96.75" width="145.25" height="30.6018" fill="#333333"/>
<rect width="97.1974" height="30.6018" fill="#090808"/>
<path d="M18.105 17.8101C18.105 17.5513 17.9756 17.3486 17.7168 17.2021C17.4629 17.0508 17.0527 16.9165 16.4863 16.7993C14.6016 16.4038 13.6592 15.603 13.6592 14.397C13.6592 13.6938 13.9497 13.1079 14.5308 12.6392C15.1167 12.1655 15.8809 11.9287 16.8232 11.9287C17.8291 11.9287 18.6323 12.1655 19.2329 12.6392C19.8384 13.1128 20.1411 13.728 20.1411 14.4849H18.0244C18.0244 14.1821 17.9268 13.9331 17.7314 13.7378C17.5361 13.5376 17.231 13.4375 16.8159 13.4375C16.4595 13.4375 16.1836 13.5181 15.9883 13.6792C15.793 13.8403 15.6953 14.0454 15.6953 14.2944C15.6953 14.5288 15.8052 14.7192 16.0249 14.8657C16.2495 15.0073 16.6255 15.1318 17.1528 15.2393C17.6802 15.3418 18.1245 15.459 18.4858 15.5908C19.604 16.001 20.1631 16.7114 20.1631 17.7222C20.1631 18.4448 19.853 19.0308 19.2329 19.48C18.6128 19.9243 17.812 20.1465 16.8306 20.1465C16.1665 20.1465 15.5757 20.0293 15.0581 19.7949C14.5454 19.5557 14.1426 19.231 13.8496 18.8208C13.5566 18.4058 13.4102 17.959 13.4102 17.4805H15.417C15.4365 17.8564 15.5757 18.1445 15.8345 18.3447C16.0933 18.5449 16.4399 18.645 16.8745 18.645C17.2798 18.645 17.585 18.5693 17.79 18.418C18 18.2617 18.105 18.0591 18.105 17.8101ZM24.8286 18.4399C25.2192 18.4399 25.5366 18.3325 25.7808 18.1177C26.0249 17.9028 26.1519 17.6172 26.1616 17.2607H28.1465C28.1416 17.7979 27.9951 18.291 27.707 18.7402C27.4189 19.1846 27.0234 19.5312 26.5205 19.7803C26.0225 20.0244 25.4707 20.1465 24.8652 20.1465C23.7324 20.1465 22.8389 19.7876 22.1846 19.0698C21.5303 18.3472 21.2031 17.3511 21.2031 16.0815V15.9424C21.2031 14.7217 21.5278 13.7476 22.1772 13.02C22.8267 12.2925 23.7178 11.9287 24.8506 11.9287C25.8418 11.9287 26.6353 12.2119 27.231 12.7783C27.8315 13.3398 28.1367 14.0894 28.1465 15.0269H26.1616C26.1519 14.6167 26.0249 14.2847 25.7808 14.0308C25.5366 13.772 25.2144 13.6426 24.814 13.6426C24.3208 13.6426 23.9473 13.8232 23.6934 14.1846C23.4443 14.541 23.3198 15.1221 23.3198 15.9277V16.1475C23.3198 16.9629 23.4443 17.5488 23.6934 17.9053C23.9424 18.2617 24.3208 18.4399 24.8286 18.4399ZM33.8081 14.0601C33.52 14.021 33.2661 14.0015 33.0464 14.0015C32.2456 14.0015 31.7207 14.2725 31.4717 14.8145V20H29.355V12.0752H31.3545L31.4131 13.02C31.8379 12.2925 32.4263 11.9287 33.1782 11.9287C33.4126 11.9287 33.6323 11.9604 33.8374 12.0239L33.8081 14.0601ZM37.0674 20H34.9434V12.0752H37.0674V20ZM34.8188 10.0244C34.8188 9.70703 34.9238 9.4458 35.1338 9.24072C35.3486 9.03564 35.6392 8.93311 36.0054 8.93311C36.3667 8.93311 36.6548 9.03564 36.8696 9.24072C37.0845 9.4458 37.1919 9.70703 37.1919 10.0244C37.1919 10.3467 37.082 10.6104 36.8623 10.8154C36.6475 11.0205 36.3618 11.123 36.0054 11.123C35.6489 11.123 35.3608 11.0205 35.1411 10.8154C34.9263 10.6104 34.8188 10.3467 34.8188 10.0244ZM45.9517 16.1108C45.9517 17.3315 45.6733 18.3105 45.1167 19.0479C44.5649 19.7803 43.8179 20.1465 42.8755 20.1465C42.0747 20.1465 41.4277 19.8682 40.9346 19.3115V23.0469H38.8179V12.0752H40.7808L40.854 12.8516C41.3667 12.2363 42.0356 11.9287 42.8608 11.9287C43.8374 11.9287 44.5967 12.29 45.1387 13.0127C45.6807 13.7354 45.9517 14.7314 45.9517 16.001V16.1108ZM43.835 15.957C43.835 15.2197 43.7031 14.6509 43.4395 14.2505C43.1807 13.8501 42.8022 13.6499 42.3042 13.6499C41.6401 13.6499 41.1836 13.9038 40.9346 14.4116V17.6562C41.1934 18.1787 41.6548 18.4399 42.3188 18.4399C43.3296 18.4399 43.835 17.6123 43.835 15.957ZM49.8042 10.127V12.0752H51.1592V13.6279H49.8042V17.583C49.8042 17.876 49.8604 18.0859 49.9727 18.2129C50.085 18.3398 50.2998 18.4033 50.6172 18.4033C50.8516 18.4033 51.0591 18.3862 51.2397 18.3521V19.9561C50.8247 20.083 50.3975 20.1465 49.958 20.1465C48.4736 20.1465 47.7168 19.397 47.6875 17.8979V13.6279H46.5303V12.0752H47.6875V10.127H49.8042ZM52.4482 18.96C52.4482 18.623 52.5605 18.3496 52.7852 18.1396C53.0146 17.9297 53.3003 17.8247 53.6421 17.8247C53.9888 17.8247 54.2744 17.9297 54.499 18.1396C54.7285 18.3496 54.8433 18.623 54.8433 18.96C54.8433 19.292 54.731 19.563 54.5063 19.7729C54.2817 19.978 53.9937 20.0806 53.6421 20.0806C53.2954 20.0806 53.0098 19.978 52.7852 19.7729C52.5605 19.563 52.4482 19.292 52.4482 18.96ZM63.8374 16.1108C63.8374 17.3315 63.5591 18.3105 63.0024 19.0479C62.4507 19.7803 61.7036 20.1465 60.7612 20.1465C59.9604 20.1465 59.3135 19.8682 58.8203 19.3115V23.0469H56.7036V12.0752H58.6665L58.7397 12.8516C59.2524 12.2363 59.9214 11.9287 60.7466 11.9287C61.7231 11.9287 62.4824 12.29 63.0244 13.0127C63.5664 13.7354 63.8374 14.7314 63.8374 16.001V16.1108ZM61.7207 15.957C61.7207 15.2197 61.5889 14.6509 61.3252 14.2505C61.0664 13.8501 60.688 13.6499 60.1899 13.6499C59.5259 13.6499 59.0693 13.9038 58.8203 14.4116V17.6562C59.0791 18.1787 59.5405 18.4399 60.2046 18.4399C61.2153 18.4399 61.7207 17.6123 61.7207 15.957ZM68.0269 17.0044L69.4917 12.0752H71.7622L68.5762 21.2305L68.4004 21.6479C67.9268 22.6831 67.1455 23.2007 66.0566 23.2007C65.749 23.2007 65.4365 23.1543 65.1191 23.0615V21.4575L65.4414 21.4648C65.8418 21.4648 66.1396 21.4038 66.335 21.2817C66.5352 21.1597 66.6914 20.957 66.8037 20.6738L67.0527 20.022L64.2769 12.0752H66.5547L68.0269 17.0044Z" fill="white"/>
<line y1="99.5398" x2="242" y2="99.5398" stroke="white"/>
<path d="M10.135 47.13L7.72 43.56H10.09L10.855 44.76C10.965 44.97 11.09 45.185 11.23 45.405C11.37 45.615 11.505 45.825 11.635 46.035H11.695C11.795 45.825 11.895 45.61 11.995 45.39C12.105 45.17 12.21 44.96 12.31 44.76L12.97 43.56H15.28L12.85 47.385L15.43 51H13.06L12.205 49.77C12.065 49.56 11.92 49.345 11.77 49.125C11.63 48.905 11.49 48.69 11.35 48.48H11.29C11.18 48.69 11.065 48.905 10.945 49.125C10.825 49.335 10.71 49.55 10.6 49.77L9.865 51H7.555L10.135 47.13ZM10.135 66.13L7.72 62.56H10.09L10.855 63.76C10.965 63.97 11.09 64.185 11.23 64.405C11.37 64.615 11.505 64.825 11.635 65.035H11.695C11.795 64.825 11.895 64.61 11.995 64.39C12.105 64.17 12.21 63.96 12.31 63.76L12.97 62.56H15.28L12.85 66.385L15.43 70H13.06L12.205 68.77C12.065 68.56 11.92 68.345 11.77 68.125C11.63 67.905 11.49 67.69 11.35 67.48H11.29C11.18 67.69 11.065 67.905 10.945 68.125C10.825 68.335 10.71 68.55 10.6 68.77L9.865 70H7.555L10.135 66.13ZM57.8507 90.685C56.8707 89.815 56.0957 88.81 55.5257 87.67C54.9657 86.53 54.6857 85.25 54.6857 83.83C54.6857 82.41 54.9657 81.13 55.5257 79.99C56.0957 78.85 56.8707 77.845 57.8507 76.975L59.0807 77.95C58.1907 78.82 57.5407 79.725 57.1307 80.665C56.7307 81.595 56.5307 82.65 56.5307 83.83C56.5307 84.42 56.5807 84.98 56.6807 85.51C56.7807 86.03 56.9307 86.53 57.1307 87.01C57.3407 87.49 57.6057 87.95 57.9257 88.39C58.2457 88.84 58.6307 89.28 59.0807 89.71L57.8507 90.685ZM64.0998 84.13L61.6848 80.56H64.0548L64.8198 81.76C64.9298 81.97 65.0548 82.185 65.1948 82.405C65.3348 82.615 65.4698 82.825 65.5998 83.035H65.6598C65.7598 82.825 65.8598 82.61 65.9598 82.39C66.0698 82.17 66.1748 81.96 66.2748 81.76L66.9348 80.56H69.2448L66.8148 84.385L69.3948 88H67.0248L66.1698 86.77C66.0298 86.56 65.8848 86.345 65.7348 86.125C65.5948 85.905 65.4548 85.69 65.3148 85.48H65.2548C65.1448 85.69 65.0298 85.905 64.9098 86.125C64.7898 86.335 64.6748 86.55 64.5648 86.77L63.8298 88H61.5198L64.0998 84.13ZM71.849 89.71C72.299 89.28 72.684 88.84 73.004 88.39C73.324 87.95 73.584 87.49 73.784 87.01C73.994 86.53 74.149 86.03 74.249 85.51C74.349 84.98 74.399 84.42 74.399 83.83C74.399 82.65 74.194 81.595 73.784 80.665C73.384 79.725 72.739 78.82 71.849 77.95L73.079 76.975C74.059 77.845 74.829 78.85 75.389 79.99C75.959 81.13 76.244 82.41 76.244 83.83C76.244 85.25 75.959 86.53 75.389 87.67C74.829 88.81 74.059 89.815 73.079 90.685L71.849 89.71Z" fill="white"/>
<path d="M10.285 88.585V90.76H8.08V80.56H9.88L10.045 81.31H10.09C10.39 81.04 10.735 80.82 11.125 80.65C11.515 80.47 11.91 80.38 12.31 80.38C12.77 80.38 13.185 80.47 13.555 80.65C13.925 80.83 14.24 81.085 14.5 81.415C14.76 81.745 14.955 82.145 15.085 82.615C15.225 83.075 15.295 83.59 15.295 84.16C15.295 84.8 15.205 85.37 15.025 85.87C14.845 86.36 14.605 86.78 14.305 87.13C14.005 87.47 13.66 87.73 13.27 87.91C12.89 88.09 12.49 88.18 12.07 88.18C11.39 88.18 10.77 87.91 10.21 87.37L10.285 88.585ZM10.285 85.885C10.495 86.065 10.71 86.195 10.93 86.275C11.16 86.345 11.37 86.38 11.56 86.38C11.98 86.38 12.33 86.21 12.61 85.87C12.89 85.52 13.03 84.96 13.03 84.19C13.03 82.85 12.575 82.18 11.665 82.18C11.195 82.18 10.735 82.41 10.285 82.87V85.885ZM17.7341 80.56H19.5341L19.7141 82.18H19.7591C20.1291 81.57 20.5741 81.12 21.0941 80.83C21.6141 80.53 22.1741 80.38 22.7741 80.38C23.1041 80.38 23.3691 80.405 23.5691 80.455C23.7791 80.505 23.9941 80.58 24.2141 80.68L23.7641 82.525C23.5341 82.455 23.3241 82.405 23.1341 82.375C22.9541 82.335 22.7241 82.315 22.4441 82.315C21.9841 82.315 21.5291 82.45 21.0791 82.72C20.6391 82.99 20.2591 83.46 19.9391 84.13V88H17.7341V80.56ZM26.1733 80.56H31.3633V88H29.1583V82.285H26.1733V80.56ZM30.1633 79.465C29.7333 79.465 29.3783 79.345 29.0983 79.105C28.8283 78.865 28.6933 78.54 28.6933 78.13C28.6933 77.72 28.8283 77.39 29.0983 77.14C29.3783 76.88 29.7333 76.75 30.1633 76.75C30.5933 76.75 30.9433 76.88 31.2133 77.14C31.4933 77.39 31.6333 77.72 31.6333 78.13C31.6333 78.54 31.4933 78.865 31.2133 79.105C30.9433 79.345 30.5933 79.465 30.1633 79.465ZM35.0624 80.56H36.8624L37.0274 81.55H37.0874C37.4074 81.23 37.7724 80.955 38.1824 80.725C38.6024 80.495 39.0924 80.38 39.6524 80.38C40.4924 80.38 41.1074 80.65 41.4974 81.19C41.8874 81.73 42.0824 82.47 42.0824 83.41V88H39.8774V83.695C39.8774 83.195 39.7974 82.83 39.6374 82.6C39.4774 82.37 39.1924 82.255 38.7824 82.255C38.4824 82.255 38.2174 82.32 37.9874 82.45C37.7674 82.58 37.5274 82.775 37.2674 83.035V88H35.0624V80.56ZM45.5866 82.285H43.7116V80.65L45.6916 80.56L45.9766 78.58H47.7916V80.56H50.9416V82.285H47.7916V84.895C47.7916 85.465 47.9166 85.87 48.1666 86.11C48.4166 86.34 48.8116 86.455 49.3516 86.455C49.6416 86.455 49.9066 86.43 50.1466 86.38C50.3866 86.33 50.6166 86.265 50.8366 86.185L51.2266 87.775C50.8966 87.875 50.5266 87.965 50.1166 88.045C49.7166 88.135 49.2766 88.18 48.7966 88.18C48.2066 88.18 47.7066 88.1 47.2966 87.94C46.8866 87.78 46.5516 87.56 46.2916 87.28C46.0416 86.99 45.8616 86.645 45.7516 86.245C45.6416 85.845 45.5866 85.4 45.5866 84.91V82.285Z" fill="#56B4E9"/>
<path d="M26.0383 43.53H32.9383V45.09H26.0383V43.53ZM26.0383 46.995H32.9383V48.555H26.0383V46.995ZM28.6783 65.83H26.0383V64.27H28.6783V61.51H30.2983V64.27H32.9383V65.83H30.2983V68.59H28.6783V65.83ZM35.0324 62.53H41.9324V64.09H35.0324V62.53ZM35.0324 65.995H41.9324V67.555H35.0324V65.995Z" fill="#E0E0E0"/>
<path d="M44.6266 48.435C44.9466 48.715 45.3016 48.945 45.6916 49.125C46.0916 49.305 46.5116 49.395 46.9516 49.395C47.4716 49.395 47.8966 49.3 48.2266 49.11C48.5666 48.91 48.7366 48.63 48.7366 48.27C48.7366 48.06 48.6916 47.87 48.6016 47.7C48.5116 47.53 48.3566 47.39 48.1366 47.28C47.9166 47.16 47.6216 47.07 47.2516 47.01C46.8816 46.94 46.4166 46.905 45.8566 46.905V45.345C46.7966 45.345 47.4566 45.23 47.8366 45C48.2266 44.76 48.4216 44.45 48.4216 44.07C48.4216 43.74 48.2966 43.485 48.0466 43.305C47.7966 43.115 47.4516 43.02 47.0116 43.02C46.6316 43.02 46.2816 43.095 45.9616 43.245C45.6416 43.395 45.3166 43.6 44.9866 43.86L43.8766 42.51C44.3466 42.13 44.8466 41.835 45.3766 41.625C45.9166 41.405 46.4966 41.295 47.1166 41.295C47.6366 41.295 48.1116 41.355 48.5416 41.475C48.9716 41.585 49.3416 41.755 49.6516 41.985C49.9616 42.205 50.2016 42.475 50.3716 42.795C50.5416 43.115 50.6266 43.485 50.6266 43.905C50.6266 44.405 50.4666 44.83 50.1466 45.18C49.8266 45.52 49.3816 45.8 48.8116 46.02V46.08C49.4116 46.24 49.9166 46.515 50.3266 46.905C50.7366 47.285 50.9416 47.785 50.9416 48.405C50.9416 48.845 50.8366 49.24 50.6266 49.59C50.4266 49.93 50.1516 50.22 49.8016 50.46C49.4616 50.69 49.0616 50.87 48.6016 51C48.1416 51.12 47.6616 51.18 47.1616 51.18C46.3416 51.18 45.6366 51.06 45.0466 50.82C44.4566 50.57 43.9766 50.24 43.6066 49.83L44.6266 48.435ZM56.4707 51.18C55.9207 51.18 55.4207 51.075 54.9707 50.865C54.5207 50.645 54.1357 50.325 53.8157 49.905C53.4957 49.485 53.2457 48.965 53.0657 48.345C52.8957 47.725 52.8107 47.01 52.8107 46.2C52.8107 45.39 52.8957 44.68 53.0657 44.07C53.2457 43.46 53.4957 42.95 53.8157 42.54C54.1357 42.12 54.5207 41.81 54.9707 41.61C55.4207 41.4 55.9207 41.295 56.4707 41.295C57.0207 41.295 57.5207 41.4 57.9707 41.61C58.4207 41.81 58.8057 42.12 59.1257 42.54C59.4457 42.95 59.6907 43.46 59.8607 44.07C60.0407 44.68 60.1307 45.39 60.1307 46.2C60.1307 47.01 60.0407 47.725 59.8607 48.345C59.6907 48.965 59.4457 49.485 59.1257 49.905C58.8057 50.325 58.4207 50.645 57.9707 50.865C57.5207 51.075 57.0207 51.18 56.4707 51.18ZM56.4707 43.005C56.2307 43.005 56.0057 43.055 55.7957 43.155C55.5957 43.255 55.4207 43.43 55.2707 43.68C55.1207 43.92 55.0007 44.245 54.9107 44.655C54.8207 45.065 54.7757 45.58 54.7757 46.2C54.7757 46.82 54.8207 47.34 54.9107 47.76C55.0007 48.17 55.1207 48.505 55.2707 48.765C55.4207 49.015 55.5957 49.195 55.7957 49.305C56.0057 49.415 56.2307 49.47 56.4707 49.47C56.7107 49.47 56.9307 49.415 57.1307 49.305C57.3407 49.195 57.5207 49.015 57.6707 48.765C57.8207 48.505 57.9407 48.17 58.0307 47.76C58.1207 47.34 58.1657 46.82 58.1657 46.2C58.1657 45.58 58.1207 45.065 58.0307 44.655C57.9407 44.245 57.8207 43.92 57.6707 43.68C57.5207 43.43 57.3407 43.255 57.1307 43.155C56.9307 43.055 56.7107 43.005 56.4707 43.005ZM56.4707 47.31C56.1507 47.31 55.8807 47.21 55.6607 47.01C55.4507 46.8 55.3457 46.52 55.3457 46.17C55.3457 45.82 55.4507 45.545 55.6607 45.345C55.8807 45.135 56.1507 45.03 56.4707 45.03C56.7907 45.03 57.0557 45.135 57.2657 45.345C57.4857 45.545 57.5957 45.82 57.5957 46.17C57.5957 46.52 57.4857 46.8 57.2657 47.01C57.0557 47.21 56.7907 47.31 56.4707 47.31ZM54.8657 70C54.9057 69.21 54.9807 68.485 55.0907 67.825C55.2107 67.155 55.3757 66.52 55.5857 65.92C55.8057 65.31 56.0857 64.72 56.4257 64.15C56.7657 63.57 57.1857 62.965 57.6857 62.335H52.9007V60.475H60.0557V61.825C59.4557 62.495 58.9707 63.125 58.6007 63.715C58.2307 64.295 57.9407 64.9 57.7307 65.53C57.5207 66.15 57.3707 66.82 57.2807 67.54C57.1907 68.25 57.1257 69.07 57.0857 70H54.8657ZM65.4648 70.18C64.9148 70.18 64.4148 70.075 63.9648 69.865C63.5148 69.645 63.1298 69.325 62.8098 68.905C62.4898 68.485 62.2398 67.965 62.0598 67.345C61.8898 66.725 61.8048 66.01 61.8048 65.2C61.8048 64.39 61.8898 63.68 62.0598 63.07C62.2398 62.46 62.4898 61.95 62.8098 61.54C63.1298 61.12 63.5148 60.81 63.9648 60.61C64.4148 60.4 64.9148 60.295 65.4648 60.295C66.0148 60.295 66.5148 60.4 66.9648 60.61C67.4148 60.81 67.7998 61.12 68.1198 61.54C68.4398 61.95 68.6848 62.46 68.8548 63.07C69.0348 63.68 69.1248 64.39 69.1248 65.2C69.1248 66.01 69.0348 66.725 68.8548 67.345C68.6848 67.965 68.4398 68.485 68.1198 68.905C67.7998 69.325 67.4148 69.645 66.9648 69.865C66.5148 70.075 66.0148 70.18 65.4648 70.18ZM65.4648 62.005C65.2248 62.005 64.9998 62.055 64.7898 62.155C64.5898 62.255 64.4148 62.43 64.2648 62.68C64.1148 62.92 63.9948 63.245 63.9048 63.655C63.8148 64.065 63.7698 64.58 63.7698 65.2C63.7698 65.82 63.8148 66.34 63.9048 66.76C63.9948 67.17 64.1148 67.505 64.2648 67.765C64.4148 68.015 64.5898 68.195 64.7898 68.305C64.9998 68.415 65.2248 68.47 65.4648 68.47C65.7048 68.47 65.9248 68.415 66.1248 68.305C66.3348 68.195 66.5148 68.015 66.6648 67.765C66.8148 67.505 66.9348 67.17 67.0248 66.76C67.1148 66.34 67.1598 65.82 67.1598 65.2C67.1598 64.58 67.1148 64.065 67.0248 63.655C66.9348 63.245 66.8148 62.92 66.6648 62.68C66.5148 62.43 66.3348 62.255 66.1248 62.155C65.9248 62.055 65.7048 62.005 65.4648 62.005ZM65.4648 66.31C65.1448 66.31 64.8748 66.21 64.6548 66.01C64.4448 65.8 64.3398 65.52 64.3398 65.17C64.3398 64.82 64.4448 64.545 64.6548 64.345C64.8748 64.135 65.1448 64.03 65.4648 64.03C65.7848 64.03 66.0498 64.135 66.2598 64.345C66.4798 64.545 66.5898 64.82 66.5898 65.17C66.5898 65.52 66.4798 65.8 66.2598 66.01C66.0498 66.21 65.7848 66.31 65.4648 66.31Z" fill="#F0E442"/>
</svg>
