<svg width="204" height="172" viewBox="0 0 204 172" fill="none" xmlns="http://www.w3.org/2000/svg">
<rect width="204" height="172" fill="white"/>
<rect x="0.000198364" width="204" height="172" fill="black"/>
<path d="M11.71 137.53C11.9 137.53 12.08 137.5 12.25 137.44C12.43 137.38 12.585 137.29 12.715 137.17C12.855 137.04 12.965 136.88 13.045 136.69C13.125 136.49 13.165 136.255 13.165 135.985C13.165 135.495 13.035 135.145 12.775 134.935C12.515 134.715 12.175 134.605 11.755 134.605C11.475 134.605 11.185 134.675 10.885 134.815C10.585 134.955 10.29 135.195 10 135.535C10.06 135.915 10.145 136.235 10.255 136.495C10.375 136.745 10.51 136.95 10.66 137.11C10.81 137.26 10.975 137.37 11.155 137.44C11.335 137.5 11.52 137.53 11.71 137.53ZM13.885 131.755C13.685 131.575 13.435 131.42 13.135 131.29C12.835 131.15 12.525 131.08 12.205 131.08C11.915 131.08 11.635 131.135 11.365 131.245C11.105 131.345 10.87 131.515 10.66 131.755C10.46 131.985 10.295 132.29 10.165 132.67C10.035 133.05 9.96 133.52 9.94 134.08C10.28 133.75 10.655 133.495 11.065 133.315C11.485 133.135 11.875 133.045 12.235 133.045C12.655 133.045 13.04 133.105 13.39 133.225C13.75 133.345 14.06 133.525 14.32 133.765C14.59 134.005 14.8 134.31 14.95 134.68C15.1 135.05 15.175 135.485 15.175 135.985C15.175 136.485 15.08 136.93 14.89 137.32C14.71 137.71 14.46 138.045 14.14 138.325C13.83 138.605 13.47 138.82 13.06 138.97C12.65 139.11 12.215 139.18 11.755 139.18C11.265 139.18 10.79 139.09 10.33 138.91C9.87 138.73 9.46 138.45 9.1 138.07C8.74 137.69 8.45 137.205 8.23 136.615C8.01 136.015 7.9 135.295 7.9 134.455C7.9 133.565 8.015 132.795 8.245 132.145C8.475 131.495 8.78 130.96 9.16 130.54C9.55 130.12 9.99 129.81 10.48 129.61C10.97 129.4 11.48 129.295 12.01 129.295C12.69 129.295 13.285 129.41 13.795 129.64C14.305 129.86 14.72 130.125 15.04 130.435L13.885 131.755ZM15.055 156.215V158H8.23V156.215H10.69V150.71H8.725V149.345C9.285 149.245 9.76 149.125 10.15 148.985C10.55 148.845 10.925 148.675 11.275 148.475H12.895V156.215H15.055Z" fill="white"/>
<path d="M11.5124 119.18C10.9324 119.18 10.3974 119.065 9.90739 118.835C9.42739 118.595 9.01239 118.255 8.66239 117.815C8.32239 117.375 8.05739 116.84 7.86739 116.21C7.67739 115.58 7.58239 114.865 7.58239 114.065C7.58239 113.265 7.67739 112.555 7.86739 111.935C8.05739 111.305 8.32239 110.78 8.66239 110.36C9.01239 109.93 9.42739 109.605 9.90739 109.385C10.3974 109.155 10.9324 109.04 11.5124 109.04C12.0924 109.04 12.6224 109.155 13.1024 109.385C13.5924 109.605 14.0074 109.93 14.3474 110.36C14.6974 110.79 14.9674 111.32 15.1574 111.95C15.3474 112.57 15.4424 113.275 15.4424 114.065C15.4424 114.865 15.3474 115.58 15.1574 116.21C14.9674 116.84 14.6974 117.375 14.3474 117.815C14.0074 118.255 13.5924 118.595 13.1024 118.835C12.6224 119.065 12.0924 119.18 11.5124 119.18ZM11.5124 117.275C12.0224 117.275 12.4274 116.99 12.7274 116.42C13.0274 115.84 13.1774 115.055 13.1774 114.065C13.1774 113.085 13.0274 112.32 12.7274 111.77C12.4274 111.22 12.0224 110.945 11.5124 110.945C11.0024 110.945 10.5974 111.22 10.2974 111.77C9.99739 112.32 9.84739 113.085 9.84739 114.065C9.84739 115.055 9.99739 115.84 10.2974 116.42C10.5974 116.99 11.0024 117.275 11.5124 117.275ZM23.8815 119H22.0815L21.9165 117.935H21.8565C21.5265 118.315 21.1615 118.62 20.7615 118.85C20.3615 119.07 19.8915 119.18 19.3515 119.18C18.5015 119.18 17.8865 118.91 17.5065 118.37C17.1265 117.83 16.9365 117.09 16.9365 116.15V111.56H19.1415V115.865C19.1415 116.365 19.2165 116.73 19.3665 116.96C19.5165 117.19 19.8015 117.305 20.2215 117.305C20.5015 117.305 20.7465 117.245 20.9565 117.125C21.1765 117.005 21.4165 116.78 21.6765 116.45V111.56H23.8815V119ZM27.6107 113.285H25.7357V111.65L27.7157 111.56L28.0007 109.58H29.8157V111.56H32.9657V113.285H29.8157V115.895C29.8157 116.465 29.9407 116.87 30.1907 117.11C30.4407 117.34 30.8357 117.455 31.3757 117.455C31.6657 117.455 31.9307 117.43 32.1707 117.38C32.4107 117.33 32.6407 117.265 32.8607 117.185L33.2507 118.775C32.9207 118.875 32.5507 118.965 32.1407 119.045C31.7407 119.135 31.3007 119.18 30.8207 119.18C30.2307 119.18 29.7307 119.1 29.3207 118.94C28.9107 118.78 28.5757 118.56 28.3157 118.28C28.0657 117.99 27.8857 117.645 27.7757 117.245C27.6657 116.845 27.6107 116.4 27.6107 115.91V113.285ZM37.2798 119.585V121.76H35.0748V111.56H36.8748L37.0398 112.31H37.0848C37.3848 112.04 37.7298 111.82 38.1198 111.65C38.5098 111.47 38.9048 111.38 39.3048 111.38C39.7648 111.38 40.1798 111.47 40.5498 111.65C40.9198 111.83 41.2348 112.085 41.4948 112.415C41.7548 112.745 41.9498 113.145 42.0798 113.615C42.2198 114.075 42.2898 114.59 42.2898 115.16C42.2898 115.8 42.1998 116.37 42.0198 116.87C41.8398 117.36 41.5998 117.78 41.2998 118.13C40.9998 118.47 40.6548 118.73 40.2648 118.91C39.8848 119.09 39.4848 119.18 39.0648 119.18C38.3848 119.18 37.7648 118.91 37.2048 118.37L37.2798 119.585ZM37.2798 116.885C37.4898 117.065 37.7048 117.195 37.9248 117.275C38.1548 117.345 38.3648 117.38 38.5548 117.38C38.9748 117.38 39.3248 117.21 39.6048 116.87C39.8848 116.52 40.0248 115.96 40.0248 115.19C40.0248 113.85 39.5698 113.18 38.6598 113.18C38.1898 113.18 37.7298 113.41 37.2798 113.87V116.885ZM50.864 119H49.064L48.899 117.935H48.839C48.509 118.315 48.144 118.62 47.744 118.85C47.344 119.07 46.874 119.18 46.334 119.18C45.484 119.18 44.869 118.91 44.489 118.37C44.109 117.83 43.919 117.09 43.919 116.15V111.56H46.124V115.865C46.124 116.365 46.199 116.73 46.349 116.96C46.499 117.19 46.784 117.305 47.204 117.305C47.484 117.305 47.729 117.245 47.939 117.125C48.159 117.005 48.399 116.78 48.659 116.45V111.56H50.864V119ZM54.5931 113.285H52.7181V111.65L54.6981 111.56L54.9831 109.58H56.7981V111.56H59.9481V113.285H56.7981V115.895C56.7981 116.465 56.9231 116.87 57.1731 117.11C57.4231 117.34 57.8181 117.455 58.3581 117.455C58.6481 117.455 58.9131 117.43 59.1531 117.38C59.3931 117.33 59.6231 117.265 59.8431 117.185L60.2331 118.775C59.9031 118.875 59.5331 118.965 59.1231 119.045C58.7231 119.135 58.2831 119.18 57.8031 119.18C57.2131 119.18 56.7131 119.1 56.3031 118.94C55.8931 118.78 55.5581 118.56 55.2981 118.28C55.0481 117.99 54.8681 117.645 54.7581 117.245C54.6481 116.845 54.5931 116.4 54.5931 115.91V113.285Z" fill="white"/>
<rect x="79" width="125" height="31" fill="#333333"/>
<rect x="79" width="125" height="31" fill="#333333"/>
<rect x="0.00132751" width="79" height="31" fill="#090808"/>
<path d="M12.1063 17.8101C12.1063 17.5513 11.9769 17.3486 11.7181 17.2021C11.4642 17.0508 11.0541 16.9165 10.4877 16.7993C8.60289 16.4038 7.66051 15.603 7.66051 14.397C7.66051 13.6938 7.95103 13.1079 8.53209 12.6392C9.11803 12.1655 9.88219 11.9287 10.8246 11.9287C11.8304 11.9287 12.6337 12.1655 13.2342 12.6392C13.8397 13.1128 14.1424 13.728 14.1424 14.4849H12.0257C12.0257 14.1821 11.9281 13.9331 11.7328 13.7378C11.5375 13.5376 11.2323 13.4375 10.8172 13.4375C10.4608 13.4375 10.1849 13.5181 9.98961 13.6792C9.7943 13.8403 9.69664 14.0454 9.69664 14.2944C9.69664 14.5288 9.8065 14.7192 10.0262 14.8657C10.2508 15.0073 10.6268 15.1318 11.1542 15.2393C11.6815 15.3418 12.1258 15.459 12.4872 15.5908C13.6053 16.001 14.1644 16.7114 14.1644 17.7222C14.1644 18.4448 13.8544 19.0308 13.2342 19.48C12.6141 19.9243 11.8133 20.1465 10.8319 20.1465C10.1678 20.1465 9.57701 20.0293 9.05943 19.7949C8.54674 19.5557 8.14391 19.231 7.85094 18.8208C7.55797 18.4058 7.41148 17.959 7.41148 17.4805H9.41832C9.43785 17.8564 9.57701 18.1445 9.8358 18.3447C10.0946 18.5449 10.4413 18.645 10.8758 18.645C11.2811 18.645 11.5863 18.5693 11.7914 18.418C12.0013 18.2617 12.1063 18.0591 12.1063 17.8101ZM18.8299 18.4399C19.2206 18.4399 19.5379 18.3325 19.7821 18.1177C20.0262 17.9028 20.1532 17.6172 20.1629 17.2607H22.1478C22.1429 17.7979 21.9964 18.291 21.7084 18.7402C21.4203 19.1846 21.0248 19.5312 20.5218 19.7803C20.0238 20.0244 19.472 20.1465 18.8666 20.1465C17.7337 20.1465 16.8402 19.7876 16.1859 19.0698C15.5316 18.3472 15.2045 17.3511 15.2045 16.0815V15.9424C15.2045 14.7217 15.5292 13.7476 16.1786 13.02C16.828 12.2925 17.7191 11.9287 18.8519 11.9287C19.8431 11.9287 20.6366 12.2119 21.2323 12.7783C21.8329 13.3398 22.138 14.0894 22.1478 15.0269H20.1629C20.1532 14.6167 20.0262 14.2847 19.7821 14.0308C19.5379 13.772 19.2157 13.6426 18.8153 13.6426C18.3221 13.6426 17.9486 13.8232 17.6947 14.1846C17.4457 14.541 17.3212 15.1221 17.3212 15.9277V16.1475C17.3212 16.9629 17.4457 17.5488 17.6947 17.9053C17.9437 18.2617 18.3221 18.4399 18.8299 18.4399ZM27.8094 14.0601C27.5213 14.021 27.2674 14.0015 27.0477 14.0015C26.2469 14.0015 25.722 14.2725 25.473 14.8145V20H23.3563V12.0752H25.3558L25.4144 13.02C25.8392 12.2925 26.4276 11.9287 27.1796 11.9287C27.4139 11.9287 27.6337 11.9604 27.8387 12.0239L27.8094 14.0601ZM31.0687 20H28.9447V12.0752H31.0687V20ZM28.8202 10.0244C28.8202 9.70703 28.9252 9.4458 29.1351 9.24072C29.35 9.03564 29.6405 8.93311 30.0067 8.93311C30.368 8.93311 30.6561 9.03564 30.871 9.24072C31.0858 9.4458 31.1932 9.70703 31.1932 10.0244C31.1932 10.3467 31.0834 10.6104 30.8636 10.8154C30.6488 11.0205 30.3631 11.123 30.0067 11.123C29.6503 11.123 29.3622 11.0205 29.1424 10.8154C28.9276 10.6104 28.8202 10.3467 28.8202 10.0244ZM39.953 16.1108C39.953 17.3315 39.6747 18.3105 39.118 19.0479C38.5663 19.7803 37.8192 20.1465 36.8768 20.1465C36.076 20.1465 35.4291 19.8682 34.9359 19.3115V23.0469H32.8192V12.0752H34.7821L34.8553 12.8516C35.368 12.2363 36.037 11.9287 36.8622 11.9287C37.8387 11.9287 38.598 12.29 39.14 13.0127C39.682 13.7354 39.953 14.7314 39.953 16.001V16.1108ZM37.8363 15.957C37.8363 15.2197 37.7045 14.6509 37.4408 14.2505C37.182 13.8501 36.8036 13.6499 36.3055 13.6499C35.6415 13.6499 35.1849 13.9038 34.9359 14.4116V17.6562C35.1947 18.1787 35.6561 18.4399 36.3202 18.4399C37.3309 18.4399 37.8363 17.6123 37.8363 15.957ZM43.8055 10.127V12.0752H45.1605V13.6279H43.8055V17.583C43.8055 17.876 43.8617 18.0859 43.974 18.2129C44.0863 18.3398 44.3011 18.4033 44.6185 18.4033C44.8529 18.4033 45.0604 18.3862 45.2411 18.3521V19.9561C44.826 20.083 44.3988 20.1465 43.9593 20.1465C42.475 20.1465 41.7181 19.397 41.6888 17.8979V13.6279H40.5316V12.0752H41.6888V10.127H43.8055ZM46.4496 18.96C46.4496 18.623 46.5619 18.3496 46.7865 18.1396C47.016 17.9297 47.3016 17.8247 47.6434 17.8247C47.9901 17.8247 48.2757 17.9297 48.5004 18.1396C48.7298 18.3496 48.8446 18.623 48.8446 18.96C48.8446 19.292 48.7323 19.563 48.5077 19.7729C48.2831 19.978 47.995 20.0806 47.6434 20.0806C47.2967 20.0806 47.0111 19.978 46.7865 19.7729C46.5619 19.563 46.4496 19.292 46.4496 18.96ZM57.8387 16.1108C57.8387 17.3315 57.5604 18.3105 57.0038 19.0479C56.452 19.7803 55.7049 20.1465 54.7626 20.1465C53.9618 20.1465 53.3148 19.8682 52.8216 19.3115V23.0469H50.7049V12.0752H52.6678L52.7411 12.8516C53.2538 12.2363 53.9227 11.9287 54.7479 11.9287C55.7245 11.9287 56.4837 12.29 57.0257 13.0127C57.5677 13.7354 57.8387 14.7314 57.8387 16.001V16.1108ZM55.722 15.957C55.722 15.2197 55.5902 14.6509 55.3265 14.2505C55.0677 13.8501 54.6893 13.6499 54.1913 13.6499C53.5272 13.6499 53.0707 13.9038 52.8216 14.4116V17.6562C53.0804 18.1787 53.5419 18.4399 54.2059 18.4399C55.2167 18.4399 55.722 17.6123 55.722 15.957ZM62.0282 17.0044L63.493 12.0752H65.7635L62.5775 21.2305L62.4017 21.6479C61.9281 22.6831 61.1468 23.2007 60.058 23.2007C59.7504 23.2007 59.4379 23.1543 59.1205 23.0615V21.4575L59.4427 21.4648C59.8431 21.4648 60.141 21.4038 60.3363 21.2817C60.5365 21.1597 60.6927 20.957 60.805 20.6738L61.0541 20.022L58.2782 12.0752H60.556L62.0282 17.0044Z" fill="white"/>
<line y1="100.5" x2="204" y2="100.5" stroke="white"/>
<path d="M9.16133 48.195H8.05133V46.785H9.32633L9.53633 45.135H8.35133V43.725H9.71633L10.0313 41.25H11.2913L10.9913 43.725H12.5513L12.8663 41.25H14.1263L13.8263 43.725H15.0113V45.135H13.6463L13.4513 46.785H14.7113V48.195H13.2863L12.9413 51H11.6663L11.9963 48.195H10.4513L10.1063 51H8.83133L9.16133 48.195ZM12.1613 46.785L12.3713 45.135H10.8113L10.6163 46.785H12.1613ZM28.3796 43.08H25.4546V41.22H33.5246V43.08H30.5996V51H28.3796V43.08ZM34.8087 47.28C34.8087 46.67 34.9137 46.125 35.1237 45.645C35.3437 45.165 35.6337 44.76 35.9937 44.43C36.3537 44.09 36.7637 43.83 37.2237 43.65C37.6937 43.47 38.1787 43.38 38.6787 43.38C39.2487 43.38 39.7537 43.47 40.1937 43.65C40.6337 43.83 40.9987 44.08 41.2887 44.4C41.5787 44.72 41.7987 45.1 41.9487 45.54C42.0987 45.97 42.1737 46.44 42.1737 46.95C42.1737 47.15 42.1637 47.34 42.1437 47.52C42.1238 47.7 42.1038 47.835 42.0837 47.925H37.0737C37.1537 48.485 37.3937 48.89 37.7937 49.14C38.2037 49.38 38.6837 49.5 39.2337 49.5C39.5737 49.5 39.8937 49.46 40.1937 49.38C40.5037 49.29 40.8237 49.16 41.1537 48.99L41.8737 50.31C41.4537 50.58 40.9837 50.795 40.4637 50.955C39.9437 51.105 39.4337 51.18 38.9337 51.18C38.3537 51.18 37.8137 51.095 37.3137 50.925C36.8137 50.745 36.3787 50.49 36.0087 50.16C35.6387 49.82 35.3437 49.41 35.1237 48.93C34.9137 48.45 34.8087 47.9 34.8087 47.28ZM40.1787 46.47C40.1787 46.05 40.0637 45.71 39.8337 45.45C39.6037 45.19 39.2337 45.06 38.7237 45.06C38.3237 45.06 37.9687 45.175 37.6587 45.405C37.3487 45.635 37.1437 45.99 37.0437 46.47H40.1787ZM44.7629 48.66C45.1929 48.93 45.6229 49.145 46.0529 49.305C46.4929 49.465 46.9629 49.545 47.4629 49.545C47.9729 49.545 48.3379 49.49 48.5579 49.38C48.7779 49.27 48.8879 49.115 48.8879 48.915C48.8879 48.685 48.7029 48.5 48.3329 48.36C47.9729 48.21 47.4929 48.05 46.8929 47.88C46.5629 47.79 46.2379 47.685 45.9179 47.565C45.6079 47.435 45.3279 47.285 45.0779 47.115C44.8279 46.935 44.6229 46.73 44.4629 46.5C44.3129 46.27 44.2379 46.005 44.2379 45.705C44.2379 45.365 44.3179 45.05 44.4779 44.76C44.6379 44.47 44.8629 44.225 45.1529 44.025C45.4529 43.825 45.8129 43.67 46.2329 43.56C46.6629 43.44 47.1429 43.38 47.6729 43.38C48.3329 43.38 48.9329 43.49 49.4729 43.71C50.0229 43.92 50.4929 44.15 50.8829 44.4L49.8929 45.72C49.5529 45.52 49.2029 45.355 48.8429 45.225C48.4829 45.085 48.1079 45.015 47.7179 45.015C47.2479 45.015 46.9129 45.065 46.7129 45.165C46.5229 45.265 46.4279 45.41 46.4279 45.6C46.4279 45.71 46.4779 45.81 46.5779 45.9C46.6779 45.99 46.8129 46.07 46.9829 46.14C47.1529 46.21 47.3529 46.28 47.5829 46.35C47.8229 46.41 48.0729 46.475 48.3329 46.545C48.7029 46.645 49.0529 46.76 49.3829 46.89C49.7129 47.01 50.0029 47.155 50.2529 47.325C50.5029 47.495 50.7029 47.7 50.8529 47.94C51.0029 48.18 51.0779 48.46 51.0779 48.78C51.0779 49.12 50.9979 49.435 50.8379 49.725C50.6779 50.015 50.4429 50.27 50.1329 50.49C49.8329 50.7 49.4529 50.87 48.9929 51C48.5429 51.12 48.0179 51.18 47.4179 51.18C46.7479 51.18 46.0929 51.07 45.4529 50.85C44.8129 50.63 44.2529 50.36 43.7729 50.04L44.7629 48.66ZM54.582 45.285H52.707V43.65L54.687 43.56L54.972 41.58H56.787V43.56H59.937V45.285H56.787V47.895C56.787 48.465 56.912 48.87 57.162 49.11C57.412 49.34 57.807 49.455 58.347 49.455C58.637 49.455 58.902 49.43 59.142 49.38C59.382 49.33 59.612 49.265 59.832 49.185L60.222 50.775C59.892 50.875 59.522 50.965 59.112 51.045C58.712 51.135 58.272 51.18 57.792 51.18C57.202 51.18 56.702 51.1 56.292 50.94C55.882 50.78 55.547 50.56 55.287 50.28C55.037 49.99 54.857 49.645 54.747 49.245C54.637 48.845 54.582 48.4 54.582 47.91V45.285ZM73.2453 51.585V53.76H71.0403V43.56H72.8403L73.0053 44.31H73.0503C73.3503 44.04 73.6953 43.82 74.0853 43.65C74.4753 43.47 74.8703 43.38 75.2703 43.38C75.7303 43.38 76.1453 43.47 76.5153 43.65C76.8853 43.83 77.2003 44.085 77.4603 44.415C77.7203 44.745 77.9153 45.145 78.0453 45.615C78.1853 46.075 78.2553 46.59 78.2553 47.16C78.2553 47.8 78.1653 48.37 77.9853 48.87C77.8053 49.36 77.5653 49.78 77.2653 50.13C76.9653 50.47 76.6203 50.73 76.2303 50.91C75.8503 51.09 75.4503 51.18 75.0303 51.18C74.3503 51.18 73.7303 50.91 73.1703 50.37L73.2453 51.585ZM73.2453 48.885C73.4553 49.065 73.6703 49.195 73.8903 49.275C74.1203 49.345 74.3303 49.38 74.5203 49.38C74.9403 49.38 75.2903 49.21 75.5703 48.87C75.8503 48.52 75.9903 47.96 75.9903 47.19C75.9903 45.85 75.5353 45.18 74.6253 45.18C74.1553 45.18 73.6953 45.41 73.2453 45.87V48.885ZM80.6945 43.56H82.4945L82.6745 45.18H82.7195C83.0895 44.57 83.5345 44.12 84.0545 43.83C84.5745 43.53 85.1345 43.38 85.7345 43.38C86.0645 43.38 86.3295 43.405 86.5295 43.455C86.7395 43.505 86.9545 43.58 87.1745 43.68L86.7245 45.525C86.4945 45.455 86.2845 45.405 86.0945 45.375C85.9145 45.335 85.6845 45.315 85.4045 45.315C84.9445 45.315 84.4895 45.45 84.0395 45.72C83.5995 45.99 83.2195 46.46 82.8995 47.13V51H80.6945V43.56ZM88.6536 47.28C88.6536 46.66 88.7586 46.11 88.9686 45.63C89.1786 45.14 89.4586 44.73 89.8086 44.4C90.1686 44.07 90.5736 43.82 91.0236 43.65C91.4836 43.47 91.9586 43.38 92.4486 43.38C92.9386 43.38 93.4086 43.47 93.8586 43.65C94.3186 43.82 94.7236 44.07 95.0736 44.4C95.4336 44.73 95.7186 45.14 95.9286 45.63C96.1386 46.11 96.2436 46.66 96.2436 47.28C96.2436 47.9 96.1386 48.455 95.9286 48.945C95.7186 49.425 95.4336 49.83 95.0736 50.16C94.7236 50.49 94.3186 50.745 93.8586 50.925C93.4086 51.095 92.9386 51.18 92.4486 51.18C91.9586 51.18 91.4836 51.095 91.0236 50.925C90.5736 50.745 90.1686 50.49 89.8086 50.16C89.4586 49.83 89.1786 49.425 88.9686 48.945C88.7586 48.455 88.6536 47.9 88.6536 47.28ZM90.9186 47.28C90.9186 47.93 91.0436 48.445 91.2936 48.825C91.5536 49.205 91.9386 49.395 92.4486 49.395C92.9586 49.395 93.3386 49.205 93.5886 48.825C93.8486 48.445 93.9786 47.93 93.9786 47.28C93.9786 46.63 93.8486 46.115 93.5886 45.735C93.3386 45.355 92.9586 45.165 92.4486 45.165C91.9386 45.165 91.5536 45.355 91.2936 45.735C91.0436 46.115 90.9186 46.63 90.9186 47.28ZM99.5227 51.93C99.5227 52.21 99.6877 52.42 100.018 52.56C100.358 52.71 100.823 52.785 101.413 52.785C102.013 52.785 102.498 52.695 102.868 52.515C103.238 52.345 103.423 52.13 103.423 51.87C103.423 51.63 103.313 51.47 103.093 51.39C102.873 51.32 102.548 51.285 102.118 51.285H101.188C100.918 51.285 100.693 51.275 100.513 51.255C100.343 51.245 100.188 51.225 100.048 51.195C99.8577 51.315 99.7227 51.43 99.6427 51.54C99.5627 51.66 99.5227 51.79 99.5227 51.93ZM97.7227 52.26C97.7227 51.65 98.1077 51.155 98.8777 50.775V50.715C98.6777 50.585 98.5027 50.42 98.3527 50.22C98.2027 50.02 98.1277 49.76 98.1277 49.44C98.1277 49.19 98.2077 48.94 98.3677 48.69C98.5377 48.44 98.7527 48.225 99.0127 48.045V47.985C98.7427 47.805 98.5127 47.555 98.3227 47.235C98.1327 46.905 98.0377 46.52 98.0377 46.08C98.0377 45.63 98.1227 45.24 98.2927 44.91C98.4727 44.57 98.7077 44.29 98.9977 44.07C99.2877 43.84 99.6227 43.67 100.003 43.56C100.393 43.44 100.798 43.38 101.218 43.38C101.678 43.38 102.088 43.44 102.448 43.56H105.463V45.165H103.948C104.038 45.275 104.118 45.42 104.188 45.6C104.258 45.77 104.293 45.955 104.293 46.155C104.293 46.585 104.213 46.955 104.053 47.265C103.893 47.575 103.673 47.835 103.393 48.045C103.123 48.245 102.798 48.395 102.418 48.495C102.048 48.595 101.648 48.645 101.218 48.645C100.898 48.645 100.558 48.595 100.198 48.495C100.088 48.575 100.003 48.655 99.9427 48.735C99.8927 48.815 99.8677 48.915 99.8677 49.035C99.8677 49.235 99.9677 49.38 100.168 49.47C100.368 49.56 100.688 49.605 101.128 49.605H102.508C103.488 49.605 104.233 49.75 104.743 50.04C105.263 50.33 105.523 50.81 105.523 51.48C105.523 51.87 105.418 52.23 105.208 52.56C104.998 52.89 104.703 53.17 104.323 53.4C103.943 53.64 103.478 53.825 102.928 53.955C102.378 54.095 101.768 54.165 101.098 54.165C100.618 54.165 100.168 54.125 99.7477 54.045C99.3377 53.975 98.9827 53.86 98.6827 53.7C98.3827 53.55 98.1477 53.355 97.9777 53.115C97.8077 52.875 97.7227 52.59 97.7227 52.26ZM101.218 47.31C101.528 47.31 101.793 47.21 102.013 47.01C102.243 46.8 102.358 46.49 102.358 46.08C102.358 45.68 102.243 45.38 102.013 45.18C101.793 44.97 101.528 44.865 101.218 44.865C100.908 44.865 100.643 44.97 100.423 45.18C100.213 45.38 100.108 45.68 100.108 46.08C100.108 46.49 100.213 46.8 100.423 47.01C100.643 47.21 100.908 47.31 101.218 47.31ZM107.677 43.56H109.477L109.657 45.18H109.702C110.072 44.57 110.517 44.12 111.037 43.83C111.557 43.53 112.117 43.38 112.717 43.38C113.047 43.38 113.312 43.405 113.512 43.455C113.722 43.505 113.937 43.58 114.157 43.68L113.707 45.525C113.477 45.455 113.267 45.405 113.077 45.375C112.897 45.335 112.667 45.315 112.387 45.315C111.927 45.315 111.472 45.45 111.022 45.72C110.582 45.99 110.202 46.46 109.882 47.13V51H107.677V43.56ZM115.846 48.93C115.846 48.51 115.936 48.145 116.116 47.835C116.296 47.515 116.581 47.245 116.971 47.025C117.371 46.805 117.881 46.63 118.501 46.5C119.121 46.36 119.871 46.265 120.751 46.215C120.711 45.875 120.561 45.61 120.301 45.42C120.051 45.23 119.671 45.135 119.161 45.135C118.801 45.135 118.436 45.2 118.066 45.33C117.706 45.45 117.316 45.615 116.896 45.825L116.116 44.385C116.626 44.095 117.171 43.855 117.751 43.665C118.341 43.475 118.956 43.38 119.596 43.38C120.636 43.38 121.456 43.655 122.056 44.205C122.656 44.755 122.956 45.6 122.956 46.74V51H121.156L120.991 50.16H120.931C120.551 50.45 120.136 50.695 119.686 50.895C119.236 51.085 118.771 51.18 118.291 51.18C117.911 51.18 117.571 51.12 117.271 51C116.971 50.89 116.716 50.735 116.506 50.535C116.296 50.325 116.131 50.085 116.011 49.815C115.901 49.545 115.846 49.25 115.846 48.93ZM117.961 48.765C117.961 49.005 118.051 49.185 118.231 49.305C118.421 49.415 118.676 49.47 118.996 49.47C119.326 49.47 119.636 49.405 119.926 49.275C120.216 49.135 120.491 48.965 120.751 48.765V47.535C120.201 47.565 119.746 47.615 119.386 47.685C119.026 47.755 118.741 47.845 118.531 47.955C118.321 48.055 118.171 48.175 118.081 48.315C118.001 48.455 117.961 48.605 117.961 48.765ZM124.465 43.56H126.115L126.28 44.49H126.34C126.48 44.18 126.67 43.92 126.91 43.71C127.16 43.49 127.5 43.38 127.93 43.38C128.26 43.38 128.535 43.485 128.755 43.695C128.985 43.895 129.145 44.195 129.235 44.595C129.375 44.255 129.575 43.97 129.835 43.74C130.105 43.5 130.45 43.38 130.87 43.38C131.39 43.38 131.795 43.595 132.085 44.025C132.375 44.445 132.52 45.03 132.52 45.78V51H130.45V45.945C130.45 45.485 130.31 45.255 130.03 45.255C129.76 45.255 129.53 45.495 129.34 45.975V51H127.645V45.945C127.645 45.485 127.5 45.255 127.21 45.255C127.07 45.255 126.95 45.315 126.85 45.435C126.75 45.555 126.645 45.735 126.535 45.975V51H124.465V43.56Z" fill="#828282"/>
<path d="M10.2863 70.585V72.76H8.08133V62.56H9.88133L10.0463 63.31H10.0913C10.3913 63.04 10.7363 62.82 11.1263 62.65C11.5163 62.47 11.9113 62.38 12.3113 62.38C12.7713 62.38 13.1863 62.47 13.5563 62.65C13.9263 62.83 14.2413 63.085 14.5013 63.415C14.7613 63.745 14.9563 64.145 15.0863 64.615C15.2263 65.075 15.2963 65.59 15.2963 66.16C15.2963 66.8 15.2063 67.37 15.0263 67.87C14.8463 68.36 14.6063 68.78 14.3063 69.13C14.0063 69.47 13.6613 69.73 13.2713 69.91C12.8913 70.09 12.4913 70.18 12.0713 70.18C11.3913 70.18 10.7713 69.91 10.2113 69.37L10.2863 70.585ZM10.2863 67.885C10.4963 68.065 10.7113 68.195 10.9313 68.275C11.1613 68.345 11.3713 68.38 11.5613 68.38C11.9813 68.38 12.3313 68.21 12.6113 67.87C12.8913 67.52 13.0313 66.96 13.0313 66.19C13.0313 64.85 12.5763 64.18 11.6663 64.18C11.1963 64.18 10.7363 64.41 10.2863 64.87V67.885ZM17.7355 62.56H19.5355L19.7155 64.18H19.7605C20.1305 63.57 20.5755 63.12 21.0955 62.83C21.6155 62.53 22.1755 62.38 22.7755 62.38C23.1055 62.38 23.3705 62.405 23.5705 62.455C23.7805 62.505 23.9955 62.58 24.2155 62.68L23.7655 64.525C23.5355 64.455 23.3255 64.405 23.1355 64.375C22.9555 64.335 22.7255 64.315 22.4455 64.315C21.9855 64.315 21.5305 64.45 21.0805 64.72C20.6405 64.99 20.2605 65.46 19.9405 66.13V70H17.7355V62.56ZM26.1746 62.56H31.3646V70H29.1596V64.285H26.1746V62.56ZM30.1646 61.465C29.7346 61.465 29.3796 61.345 29.0996 61.105C28.8296 60.865 28.6946 60.54 28.6946 60.13C28.6946 59.72 28.8296 59.39 29.0996 59.14C29.3796 58.88 29.7346 58.75 30.1646 58.75C30.5946 58.75 30.9446 58.88 31.2146 59.14C31.4946 59.39 31.6346 59.72 31.6346 60.13C31.6346 60.54 31.4946 60.865 31.2146 61.105C30.9446 61.345 30.5946 61.465 30.1646 61.465ZM35.0637 62.56H36.8637L37.0287 63.55H37.0887C37.4087 63.23 37.7737 62.955 38.1837 62.725C38.6037 62.495 39.0937 62.38 39.6537 62.38C40.4937 62.38 41.1087 62.65 41.4988 63.19C41.8887 63.73 42.0837 64.47 42.0837 65.41V70H39.8787V65.695C39.8787 65.195 39.7987 64.83 39.6387 64.6C39.4787 64.37 39.1937 64.255 38.7837 64.255C38.4837 64.255 38.2187 64.32 37.9887 64.45C37.7687 64.58 37.5287 64.775 37.2687 65.035V70H35.0637V62.56ZM45.5879 64.285H43.7129V62.65L45.6929 62.56L45.9779 60.58H47.7929V62.56H50.9429V64.285H47.7929V66.895C47.7929 67.465 47.9179 67.87 48.1679 68.11C48.4179 68.34 48.8129 68.455 49.3529 68.455C49.6429 68.455 49.9079 68.43 50.1479 68.38C50.3879 68.33 50.6179 68.265 50.8379 68.185L51.2279 69.775C50.8979 69.875 50.5279 69.965 50.1179 70.045C49.7179 70.135 49.2779 70.18 48.7979 70.18C48.2079 70.18 47.7079 70.1 47.2979 69.94C46.8879 69.78 46.5529 69.56 46.2929 69.28C46.0429 68.99 45.8629 68.645 45.7529 68.245C45.6429 67.845 45.5879 67.4 45.5879 66.91V64.285ZM10.2863 88.585V90.76H8.08133V80.56H9.88133L10.0463 81.31H10.0913C10.3913 81.04 10.7363 80.82 11.1263 80.65C11.5163 80.47 11.9113 80.38 12.3113 80.38C12.7713 80.38 13.1863 80.47 13.5563 80.65C13.9263 80.83 14.2413 81.085 14.5013 81.415C14.7613 81.745 14.9563 82.145 15.0863 82.615C15.2263 83.075 15.2963 83.59 15.2963 84.16C15.2963 84.8 15.2063 85.37 15.0263 85.87C14.8463 86.36 14.6063 86.78 14.3063 87.13C14.0063 87.47 13.6613 87.73 13.2713 87.91C12.8913 88.09 12.4913 88.18 12.0713 88.18C11.3913 88.18 10.7713 87.91 10.2113 87.37L10.2863 88.585ZM10.2863 85.885C10.4963 86.065 10.7113 86.195 10.9313 86.275C11.1613 86.345 11.3713 86.38 11.5613 86.38C11.9813 86.38 12.3313 86.21 12.6113 85.87C12.8913 85.52 13.0313 84.96 13.0313 84.19C13.0313 82.85 12.5763 82.18 11.6663 82.18C11.1963 82.18 10.7363 82.41 10.2863 82.87V85.885ZM17.7355 80.56H19.5355L19.7155 82.18H19.7605C20.1305 81.57 20.5755 81.12 21.0955 80.83C21.6155 80.53 22.1755 80.38 22.7755 80.38C23.1055 80.38 23.3705 80.405 23.5705 80.455C23.7805 80.505 23.9955 80.58 24.2155 80.68L23.7655 82.525C23.5355 82.455 23.3255 82.405 23.1355 82.375C22.9555 82.335 22.7255 82.315 22.4455 82.315C21.9855 82.315 21.5305 82.45 21.0805 82.72C20.6405 82.99 20.2605 83.46 19.9405 84.13V88H17.7355V80.56ZM26.1746 80.56H31.3646V88H29.1596V82.285H26.1746V80.56ZM30.1646 79.465C29.7346 79.465 29.3796 79.345 29.0996 79.105C28.8296 78.865 28.6946 78.54 28.6946 78.13C28.6946 77.72 28.8296 77.39 29.0996 77.14C29.3796 76.88 29.7346 76.75 30.1646 76.75C30.5946 76.75 30.9446 76.88 31.2146 77.14C31.4946 77.39 31.6346 77.72 31.6346 78.13C31.6346 78.54 31.4946 78.865 31.2146 79.105C30.9446 79.345 30.5946 79.465 30.1646 79.465ZM35.0637 80.56H36.8637L37.0287 81.55H37.0887C37.4087 81.23 37.7737 80.955 38.1837 80.725C38.6037 80.495 39.0937 80.38 39.6537 80.38C40.4937 80.38 41.1087 80.65 41.4988 81.19C41.8887 81.73 42.0837 82.47 42.0837 83.41V88H39.8787V83.695C39.8787 83.195 39.7987 82.83 39.6387 82.6C39.4787 82.37 39.1937 82.255 38.7837 82.255C38.4837 82.255 38.2187 82.32 37.9887 82.45C37.7687 82.58 37.5287 82.775 37.2687 83.035V88H35.0637V80.56ZM45.5879 82.285H43.7129V80.65L45.6929 80.56L45.9779 78.58H47.7929V80.56H50.9429V82.285H47.7929V84.895C47.7929 85.465 47.9179 85.87 48.1679 86.11C48.4179 86.34 48.8129 86.455 49.3529 86.455C49.6429 86.455 49.9079 86.43 50.1479 86.38C50.3879 86.33 50.6179 86.265 50.8379 86.185L51.2279 87.775C50.8979 87.875 50.5279 87.965 50.1179 88.045C49.7179 88.135 49.2779 88.18 48.7979 88.18C48.2079 88.18 47.7079 88.1 47.2979 87.94C46.8879 87.78 46.5529 87.56 46.2929 87.28C46.0429 86.99 45.8629 86.645 45.7529 86.245C45.6429 85.845 45.5879 85.4 45.5879 84.91V82.285Z" fill="#56B4E9"/>
<path d="M57.852 72.685C56.872 71.815 56.097 70.81 55.527 69.67C54.967 68.53 54.687 67.25 54.687 65.83C54.687 64.41 54.967 63.13 55.527 61.99C56.097 60.85 56.872 59.845 57.852 58.975L59.082 59.95C58.192 60.82 57.542 61.725 57.132 62.665C56.732 63.595 56.532 64.65 56.532 65.83C56.532 66.42 56.582 66.98 56.682 67.51C56.782 68.03 56.932 68.53 57.132 69.01C57.342 69.49 57.607 69.95 57.927 70.39C58.247 70.84 58.632 71.28 59.082 71.71L57.852 72.685ZM107.827 71.71C108.277 71.28 108.662 70.84 108.982 70.39C109.302 69.95 109.562 69.49 109.762 69.01C109.972 68.53 110.127 68.03 110.227 67.51C110.327 66.98 110.377 66.42 110.377 65.83C110.377 64.65 110.172 63.595 109.762 62.665C109.362 61.725 108.717 60.82 107.827 59.95L109.057 58.975C110.037 59.845 110.807 60.85 111.367 61.99C111.937 63.13 112.222 64.41 112.222 65.83C112.222 67.25 111.937 68.53 111.367 69.67C110.807 70.81 110.037 71.815 109.057 72.685L107.827 71.71ZM57.852 90.685C56.872 89.815 56.097 88.81 55.527 87.67C54.967 86.53 54.687 85.25 54.687 83.83C54.687 82.41 54.967 81.13 55.527 79.99C56.097 78.85 56.872 77.845 57.852 76.975L59.082 77.95C58.192 78.82 57.542 79.725 57.132 80.665C56.732 81.595 56.532 82.65 56.532 83.83C56.532 84.42 56.582 84.98 56.682 85.51C56.782 86.03 56.932 86.53 57.132 87.01C57.342 87.49 57.607 87.95 57.927 88.39C58.247 88.84 58.632 89.28 59.082 89.71L57.852 90.685ZM107.827 89.71C108.277 89.28 108.662 88.84 108.982 88.39C109.302 87.95 109.562 87.49 109.762 87.01C109.972 86.53 110.127 86.03 110.227 85.51C110.327 84.98 110.377 84.42 110.377 83.83C110.377 82.65 110.172 81.595 109.762 80.665C109.362 79.725 108.717 78.82 107.827 77.95L109.057 76.975C110.037 77.845 110.807 78.85 111.367 79.99C111.937 81.13 112.222 82.41 112.222 83.83C112.222 85.25 111.937 86.53 111.367 87.67C110.807 88.81 110.037 89.815 109.057 90.685L107.827 89.71Z" fill="white"/>
<path d="M62.6462 67.45C62.9662 67.71 63.3062 67.935 63.6662 68.125C64.0362 68.305 64.4462 68.395 64.8962 68.395C65.4362 68.395 65.8762 68.27 66.2162 68.02C66.5662 67.77 66.7412 67.4 66.7412 66.91C66.7412 66.43 66.5762 66.065 66.2462 65.815C65.9262 65.565 65.5112 65.44 65.0012 65.44C64.8412 65.44 64.6962 65.45 64.5662 65.47C64.4462 65.48 64.3262 65.505 64.2062 65.545C64.0862 65.585 63.9612 65.635 63.8312 65.695C63.7012 65.755 63.5562 65.83 63.3962 65.92L62.4212 65.29L62.6762 60.475H68.5112V62.335H64.5812L64.4162 64.12C64.6362 64.04 64.8412 63.985 65.0312 63.955C65.2212 63.915 65.4362 63.895 65.6762 63.895C66.1162 63.895 66.5312 63.955 66.9212 64.075C67.3212 64.195 67.6712 64.375 67.9712 64.615C68.2712 64.855 68.5062 65.16 68.6762 65.53C68.8562 65.9 68.9462 66.34 68.9462 66.85C68.9462 67.38 68.8412 67.85 68.6312 68.26C68.4312 68.67 68.1562 69.02 67.8062 69.31C67.4662 69.59 67.0712 69.805 66.6212 69.955C66.1712 70.105 65.7012 70.18 65.2112 70.18C64.3812 70.18 63.6762 70.055 63.0962 69.805C62.5262 69.545 62.0462 69.225 61.6562 68.845L62.6462 67.45ZM104.998 68.215V70H98.1727V68.215H100.633V62.71H98.6677V61.345C99.2277 61.245 99.7027 61.125 100.093 60.985C100.493 60.845 100.868 60.675 101.218 60.475H102.838V68.215H104.998ZM63.7862 85.315C63.7862 85.735 63.9512 86.065 64.2812 86.305C64.6112 86.535 65.0212 86.65 65.5112 86.65C65.9612 86.65 66.3212 86.555 66.5912 86.365C66.8712 86.165 67.0112 85.865 67.0112 85.465C67.0112 85.245 66.9562 85.06 66.8462 84.91C66.7362 84.76 66.5762 84.625 66.3662 84.505C66.1662 84.375 65.9262 84.26 65.6462 84.16C65.3662 84.05 65.0562 83.93 64.7162 83.8C64.4462 84 64.2212 84.225 64.0412 84.475C63.8712 84.725 63.7862 85.005 63.7862 85.315ZM66.1112 82.45C66.5912 82.02 66.8312 81.555 66.8312 81.055C66.8312 80.685 66.7162 80.39 66.4862 80.17C66.2562 79.94 65.9212 79.825 65.4812 79.825C65.1312 79.825 64.8312 79.915 64.5812 80.095C64.3412 80.275 64.2212 80.55 64.2212 80.92C64.2212 81.31 64.3962 81.615 64.7462 81.835C65.0962 82.055 65.5512 82.26 66.1112 82.45ZM61.8812 85.57C61.8812 85.28 61.9262 85.02 62.0162 84.79C62.1162 84.55 62.2462 84.335 62.4062 84.145C62.5762 83.955 62.7662 83.785 62.9762 83.635C63.1962 83.485 63.4312 83.35 63.6812 83.23V83.17C63.2812 82.89 62.9462 82.575 62.6762 82.225C62.4162 81.865 62.2862 81.43 62.2862 80.92C62.2862 80.52 62.3662 80.16 62.5262 79.84C62.6862 79.51 62.9062 79.23 63.1862 79C63.4762 78.77 63.8212 78.595 64.2212 78.475C64.6212 78.355 65.0562 78.295 65.5262 78.295C66.0062 78.295 66.4362 78.36 66.8162 78.49C67.2062 78.61 67.5362 78.785 67.8062 79.015C68.0762 79.235 68.2812 79.51 68.4212 79.84C68.5712 80.16 68.6462 80.515 68.6462 80.905C68.6462 81.355 68.5112 81.755 68.2412 82.105C67.9812 82.455 67.6612 82.75 67.2812 82.99V83.05C67.5312 83.17 67.7662 83.31 67.9862 83.47C68.2062 83.62 68.3962 83.795 68.5562 83.995C68.7162 84.195 68.8412 84.425 68.9312 84.685C69.0212 84.935 69.0662 85.22 69.0662 85.54C69.0662 85.92 68.9862 86.27 68.8262 86.59C68.6662 86.91 68.4312 87.19 68.1212 87.43C67.8212 87.66 67.4462 87.845 66.9962 87.985C66.5462 88.115 66.0312 88.18 65.4512 88.18C64.9012 88.18 64.4062 88.12 63.9662 88C63.5262 87.87 63.1512 87.69 62.8412 87.46C62.5312 87.23 62.2912 86.955 62.1212 86.635C61.9612 86.315 61.8812 85.96 61.8812 85.57ZM99.8377 88C99.8777 87.21 99.9527 86.485 100.063 85.825C100.183 85.155 100.348 84.52 100.558 83.92C100.778 83.31 101.058 82.72 101.398 82.15C101.738 81.57 102.158 80.965 102.658 80.335H97.8727V78.475H105.028V79.825C104.428 80.495 103.943 81.125 103.573 81.715C103.203 82.295 102.913 82.9 102.703 83.53C102.493 84.15 102.343 84.82 102.253 85.54C102.163 86.25 102.098 87.07 102.058 88H99.8377Z" fill="#F0E442"/>
<path d="M82.6445 65.83H80.0045V64.27H82.6445V61.51H84.2645V64.27H86.9045V65.83H84.2645V68.59H82.6445V65.83ZM80.0045 82.27H86.9045V83.83H80.0045V82.27Z" fill="#BDBDBD"/>
</svg>
