<svg width="387" height="392" viewBox="0 0 387 392" fill="none" xmlns="http://www.w3.org/2000/svg">
<rect width="387" height="392" fill="white"/>
<rect width="387" height="168" fill="black"/>
<path d="M191.289 51H189.091V40.3359H191.289V51ZM195.727 41.127V43.0752H197.082V44.6279H195.727V48.583C195.727 48.876 195.783 49.0859 195.896 49.2129C196.008 49.3398 196.223 49.4033 196.54 49.4033C196.774 49.4033 196.982 49.3862 197.163 49.3521V50.9561C196.748 51.083 196.32 51.1465 195.881 51.1465C194.396 51.1465 193.64 50.397 193.61 48.8979V44.6279H192.453V43.0752H193.61V41.127H195.727ZM199.045 43.6099L198.049 43.0312C198.469 42.3721 198.686 41.6909 198.701 40.9878V39.75H200.385V40.8853C200.385 41.3247 200.263 41.8008 200.019 42.3135C199.775 42.8262 199.45 43.2583 199.045 43.6099ZM204.472 48.8101C204.472 48.5513 204.343 48.3486 204.084 48.2021C203.83 48.0508 203.42 47.9165 202.854 47.7993C200.969 47.4038 200.026 46.603 200.026 45.397C200.026 44.6938 200.317 44.1079 200.898 43.6392C201.484 43.1655 202.248 42.9287 203.19 42.9287C204.196 42.9287 205 43.1655 205.6 43.6392C206.206 44.1128 206.508 44.728 206.508 45.4849H204.392C204.392 45.1821 204.294 44.9331 204.099 44.7378C203.903 44.5376 203.598 44.4375 203.183 44.4375C202.827 44.4375 202.551 44.5181 202.355 44.6792C202.16 44.8403 202.062 45.0454 202.062 45.2944C202.062 45.5288 202.172 45.7192 202.392 45.8657C202.617 46.0073 202.993 46.1318 203.52 46.2393C204.047 46.3418 204.492 46.459 204.853 46.5908C205.971 47.001 206.53 47.7114 206.53 48.7222C206.53 49.4448 206.22 50.0308 205.6 50.48C204.98 50.9243 204.179 51.1465 203.198 51.1465C202.534 51.1465 201.943 51.0293 201.425 50.7949C200.913 50.5557 200.51 50.231 200.217 49.8208C199.924 49.4058 199.777 48.959 199.777 48.4805H201.784C201.804 48.8564 201.943 49.1445 202.202 49.3447C202.46 49.5449 202.807 49.645 203.242 49.645C203.647 49.645 203.952 49.5693 204.157 49.418C204.367 49.2617 204.472 49.0591 204.472 48.8101ZM214.169 41.127V43.0752H215.524V44.6279H214.169V48.583C214.169 48.876 214.226 49.0859 214.338 49.2129C214.45 49.3398 214.665 49.4033 214.982 49.4033C215.217 49.4033 215.424 49.3862 215.605 49.3521V50.9561C215.19 51.083 214.763 51.1465 214.323 51.1465C212.839 51.1465 212.082 50.397 212.053 48.8979V44.6279H210.896V43.0752H212.053V41.127H214.169ZM221.157 45.0601C220.869 45.021 220.615 45.0015 220.395 45.0015C219.594 45.0015 219.069 45.2725 218.82 45.8145V51H216.704V43.0752H218.703L218.762 44.02C219.187 43.2925 219.775 42.9287 220.527 42.9287C220.761 42.9287 220.981 42.9604 221.186 43.0239L221.157 45.0601ZM226.928 50.1943C226.406 50.8291 225.683 51.1465 224.76 51.1465C223.911 51.1465 223.261 50.9023 222.812 50.4141C222.368 49.9258 222.141 49.2104 222.131 48.2681V43.0752H224.248V48.1948C224.248 49.02 224.624 49.4326 225.375 49.4326C226.093 49.4326 226.586 49.1836 226.855 48.6855V43.0752H228.979V51H226.987L226.928 50.1943ZM234.223 51.1465C233.061 51.1465 232.114 50.79 231.381 50.0771C230.654 49.3643 230.29 48.4146 230.29 47.228V47.0229C230.29 46.2271 230.444 45.5166 230.751 44.8916C231.059 44.2617 231.494 43.7783 232.055 43.4414C232.622 43.0996 233.266 42.9287 233.989 42.9287C235.073 42.9287 235.925 43.2705 236.545 43.9541C237.17 44.6377 237.482 45.6069 237.482 46.8618V47.7261H232.436C232.504 48.2437 232.709 48.6587 233.051 48.9712C233.398 49.2837 233.835 49.4399 234.362 49.4399C235.178 49.4399 235.815 49.1445 236.274 48.5537L237.314 49.7183C236.997 50.1675 236.567 50.519 236.025 50.7729C235.483 51.022 234.882 51.1465 234.223 51.1465ZM233.981 44.6426C233.562 44.6426 233.22 44.7842 232.956 45.0674C232.697 45.3506 232.531 45.7559 232.458 46.2832H235.402V46.1147C235.393 45.646 235.266 45.2847 235.021 45.0308C234.777 44.772 234.431 44.6426 233.981 44.6426ZM244.96 41.127V43.0752H246.315V44.6279H244.96V48.583C244.96 48.876 245.017 49.0859 245.129 49.2129C245.241 49.3398 245.456 49.4033 245.773 49.4033C246.008 49.4033 246.215 49.3862 246.396 49.3521V50.9561C245.981 51.083 245.554 51.1465 245.114 51.1465C243.63 51.1465 242.873 50.397 242.844 48.8979V44.6279H241.687V43.0752H242.844V41.127H244.96ZM249.56 43.9395C250.122 43.2656 250.827 42.9287 251.677 42.9287C253.396 42.9287 254.267 43.9272 254.292 45.9243V51H252.175V45.9829C252.175 45.5288 252.077 45.1943 251.882 44.9795C251.687 44.7598 251.362 44.6499 250.908 44.6499C250.288 44.6499 249.838 44.8892 249.56 45.3677V51H247.443V39.75H249.56V43.9395ZM260.48 51C260.383 50.8096 260.312 50.5728 260.268 50.2896C259.755 50.8608 259.089 51.1465 258.269 51.1465C257.492 51.1465 256.848 50.9219 256.335 50.4727C255.827 50.0234 255.573 49.457 255.573 48.7734C255.573 47.9336 255.883 47.2891 256.503 46.8398C257.128 46.3906 258.029 46.1636 259.206 46.1587H260.18V45.7046C260.18 45.3384 260.085 45.0454 259.895 44.8257C259.709 44.606 259.414 44.4961 259.008 44.4961C258.652 44.4961 258.371 44.5815 258.166 44.7524C257.966 44.9233 257.866 45.1577 257.866 45.4556H255.749C255.749 44.9966 255.891 44.5718 256.174 44.1812C256.457 43.7905 256.857 43.4854 257.375 43.2656C257.893 43.041 258.474 42.9287 259.118 42.9287C260.095 42.9287 260.869 43.1753 261.44 43.6685C262.016 44.1567 262.304 44.8452 262.304 45.7339V49.1689C262.309 49.9209 262.414 50.4897 262.619 50.8755V51H260.48ZM258.73 49.5278C259.042 49.5278 259.331 49.4595 259.594 49.3228C259.858 49.1812 260.053 48.9932 260.18 48.7588V47.3965H259.389C258.33 47.3965 257.766 47.7627 257.697 48.4951L257.69 48.6196C257.69 48.8833 257.783 49.1006 257.968 49.2715C258.154 49.4424 258.408 49.5278 258.73 49.5278ZM266.464 41.127V43.0752H267.819V44.6279H266.464V48.583C266.464 48.876 266.521 49.0859 266.633 49.2129C266.745 49.3398 266.96 49.4033 267.277 49.4033C267.512 49.4033 267.719 49.3862 267.9 49.3521V50.9561C267.485 51.083 267.058 51.1465 266.618 51.1465C265.134 51.1465 264.377 50.397 264.348 48.8979V44.6279H263.19V43.0752H264.348V41.127H266.464ZM278.908 46.9863H280.117V48.6929H278.908V51H276.792V48.6929H272.419L272.324 47.3599L276.77 40.3359H278.908V46.9863ZM274.433 46.9863H276.792V43.2217L276.652 43.4634L274.433 46.9863ZM287.316 51H285.192V43.0752H287.316V51ZM285.068 41.0244C285.068 40.707 285.173 40.4458 285.383 40.2407C285.598 40.0356 285.888 39.9331 286.254 39.9331C286.616 39.9331 286.904 40.0356 287.119 40.2407C287.333 40.4458 287.441 40.707 287.441 41.0244C287.441 41.3467 287.331 41.6104 287.111 41.8154C286.896 42.0205 286.611 42.123 286.254 42.123C285.898 42.123 285.61 42.0205 285.39 41.8154C285.175 41.6104 285.068 41.3467 285.068 41.0244ZM293.359 48.8101C293.359 48.5513 293.229 48.3486 292.971 48.2021C292.717 48.0508 292.307 47.9165 291.74 47.7993C289.855 47.4038 288.913 46.603 288.913 45.397C288.913 44.6938 289.204 44.1079 289.785 43.6392C290.371 43.1655 291.135 42.9287 292.077 42.9287C293.083 42.9287 293.886 43.1655 294.487 43.6392C295.092 44.1128 295.395 44.728 295.395 45.4849H293.278C293.278 45.1821 293.181 44.9331 292.985 44.7378C292.79 44.5376 292.485 44.4375 292.07 44.4375C291.713 44.4375 291.438 44.5181 291.242 44.6792C291.047 44.8403 290.949 45.0454 290.949 45.2944C290.949 45.5288 291.059 45.7192 291.279 45.8657C291.503 46.0073 291.879 46.1318 292.407 46.2393C292.934 46.3418 293.378 46.459 293.74 46.5908C294.858 47.001 295.417 47.7114 295.417 48.7222C295.417 49.4448 295.107 50.0308 294.487 50.48C293.867 50.9243 293.066 51.1465 292.084 51.1465C291.42 51.1465 290.83 51.0293 290.312 50.7949C289.799 50.5557 289.396 50.231 289.104 49.8208C288.811 49.4058 288.664 48.959 288.664 48.4805H290.671C290.69 48.8564 290.83 49.1445 291.088 49.3447C291.347 49.5449 291.694 49.645 292.128 49.645C292.534 49.645 292.839 49.5693 293.044 49.418C293.254 49.2617 293.359 49.0591 293.359 48.8101ZM304.169 51.1465C303.007 51.1465 302.06 50.79 301.328 50.0771C300.6 49.3643 300.236 48.4146 300.236 47.228V47.0229C300.236 46.2271 300.39 45.5166 300.698 44.8916C301.005 44.2617 301.44 43.7783 302.001 43.4414C302.568 43.0996 303.212 42.9287 303.935 42.9287C305.019 42.9287 305.871 43.2705 306.491 43.9541C307.116 44.6377 307.429 45.6069 307.429 46.8618V47.7261H302.382C302.451 48.2437 302.656 48.6587 302.998 48.9712C303.344 49.2837 303.781 49.4399 304.309 49.4399C305.124 49.4399 305.761 49.1445 306.22 48.5537L307.26 49.7183C306.943 50.1675 306.513 50.519 305.971 50.7729C305.429 51.022 304.829 51.1465 304.169 51.1465ZM303.928 44.6426C303.508 44.6426 303.166 44.7842 302.902 45.0674C302.644 45.3506 302.478 45.7559 302.404 46.2832H305.349V46.1147C305.339 45.646 305.212 45.2847 304.968 45.0308C304.724 44.772 304.377 44.6426 303.928 44.6426ZM308.308 46.9644C308.308 45.7192 308.583 44.7354 309.135 44.0127C309.692 43.29 310.454 42.9287 311.42 42.9287C312.27 42.9287 312.946 43.2534 313.449 43.9028L313.588 43.0752H315.449V54.0469H313.325V50.3188C312.836 50.8706 312.197 51.1465 311.406 51.1465C310.463 51.1465 309.711 50.7803 309.15 50.0479C308.588 49.3154 308.308 48.2876 308.308 46.9644ZM310.424 47.1182C310.424 47.875 310.556 48.4512 310.82 48.8467C311.088 49.2422 311.464 49.4399 311.948 49.4399C312.597 49.4399 313.056 49.1812 313.325 48.6636V45.3896C313.061 44.8916 312.607 44.6426 311.962 44.6426C311.474 44.6426 311.096 44.8403 310.827 45.2358C310.559 45.6313 310.424 46.2588 310.424 47.1182ZM321.865 50.1943C321.342 50.8291 320.62 51.1465 319.697 51.1465C318.847 51.1465 318.198 50.9023 317.749 50.4141C317.304 49.9258 317.077 49.2104 317.067 48.2681V43.0752H319.184V48.1948C319.184 49.02 319.56 49.4326 320.312 49.4326C321.03 49.4326 321.523 49.1836 321.792 48.6855V43.0752H323.916V51H321.923L321.865 50.1943ZM330.104 51C330.007 50.8096 329.936 50.5728 329.892 50.2896C329.379 50.8608 328.713 51.1465 327.893 51.1465C327.116 51.1465 326.472 50.9219 325.959 50.4727C325.451 50.0234 325.197 49.457 325.197 48.7734C325.197 47.9336 325.507 47.2891 326.127 46.8398C326.752 46.3906 327.653 46.1636 328.83 46.1587H329.804V45.7046C329.804 45.3384 329.709 45.0454 329.519 44.8257C329.333 44.606 329.038 44.4961 328.632 44.4961C328.276 44.4961 327.995 44.5815 327.79 44.7524C327.59 44.9233 327.49 45.1577 327.49 45.4556H325.373C325.373 44.9966 325.515 44.5718 325.798 44.1812C326.081 43.7905 326.481 43.4854 326.999 43.2656C327.517 43.041 328.098 42.9287 328.742 42.9287C329.719 42.9287 330.493 43.1753 331.064 43.6685C331.64 44.1567 331.928 44.8452 331.928 45.7339V49.1689C331.933 49.9209 332.038 50.4897 332.243 50.8755V51H330.104ZM328.354 49.5278C328.667 49.5278 328.955 49.4595 329.218 49.3228C329.482 49.1812 329.677 48.9932 329.804 48.7588V47.3965H329.013C327.954 47.3965 327.39 47.7627 327.321 48.4951L327.314 48.6196C327.314 48.8833 327.407 49.1006 327.592 49.2715C327.778 49.4424 328.032 49.5278 328.354 49.5278ZM335.788 51H333.664V39.75H335.788V51ZM343.808 41.127V43.0752H345.163V44.6279H343.808V48.583C343.808 48.876 343.864 49.0859 343.977 49.2129C344.089 49.3398 344.304 49.4033 344.621 49.4033C344.855 49.4033 345.063 49.3862 345.244 49.3521V50.9561C344.829 51.083 344.401 51.1465 343.962 51.1465C342.478 51.1465 341.721 50.397 341.691 48.8979V44.6279H340.534V43.0752H341.691V41.127H343.808ZM345.793 46.9644C345.793 46.1782 345.944 45.4775 346.247 44.8623C346.55 44.2471 346.984 43.771 347.551 43.4341C348.122 43.0972 348.784 42.9287 349.536 42.9287C350.605 42.9287 351.477 43.2559 352.15 43.9102C352.829 44.5645 353.208 45.4531 353.286 46.5762L353.3 47.1182C353.3 48.334 352.961 49.3105 352.282 50.0479C351.604 50.7803 350.693 51.1465 349.55 51.1465C348.408 51.1465 347.495 50.7803 346.811 50.0479C346.132 49.3154 345.793 48.3193 345.793 47.0596V46.9644ZM347.91 47.1182C347.91 47.8701 348.051 48.4463 348.334 48.8467C348.618 49.2422 349.023 49.4399 349.55 49.4399C350.063 49.4399 350.463 49.2446 350.751 48.854C351.04 48.4585 351.184 47.8286 351.184 46.9644C351.184 46.2271 351.04 45.6558 350.751 45.2505C350.463 44.8452 350.058 44.6426 349.536 44.6426C349.018 44.6426 348.618 44.8452 348.334 45.2505C348.051 45.6509 347.91 46.2734 347.91 47.1182ZM364.514 46.9863H365.722V48.6929H364.514V51H362.397V48.6929H358.024L357.929 47.3599L362.375 40.3359H364.514V46.9863ZM360.039 46.9863H362.397V43.2217L362.258 43.4634L360.039 46.9863Z" fill="#F0E442"/>
<path d="M8.39 128.08H5.465V126.22H13.535V128.08H10.61V136H8.39V128.08ZM15.7341 128.56H17.5341L17.7141 130.18H17.7591C18.1291 129.57 18.5741 129.12 19.0941 128.83C19.6141 128.53 20.1741 128.38 20.7741 128.38C21.1041 128.38 21.3691 128.405 21.5691 128.455C21.7791 128.505 21.9941 128.58 22.2141 128.68L21.7641 130.525C21.5341 130.455 21.3241 130.405 21.1341 130.375C20.9541 130.335 20.7241 130.315 20.4441 130.315C19.9841 130.315 19.5291 130.45 19.0791 130.72C18.6391 130.99 18.2591 131.46 17.9391 132.13V136H15.7341V128.56ZM30.8633 136H29.0633L28.8983 134.935H28.8383C28.5083 135.315 28.1433 135.62 27.7433 135.85C27.3433 136.07 26.8733 136.18 26.3333 136.18C25.4833 136.18 24.8683 135.91 24.4883 135.37C24.1083 134.83 23.9183 134.09 23.9183 133.15V128.56H26.1233V132.865C26.1233 133.365 26.1983 133.73 26.3483 133.96C26.4983 134.19 26.7833 134.305 27.2033 134.305C27.4833 134.305 27.7283 134.245 27.9383 134.125C28.1583 134.005 28.3983 133.78 28.6583 133.45V128.56H30.8633V136ZM32.8074 132.28C32.8074 131.67 32.9124 131.125 33.1224 130.645C33.3424 130.165 33.6324 129.76 33.9924 129.43C34.3524 129.09 34.7624 128.83 35.2224 128.65C35.6924 128.47 36.1774 128.38 36.6774 128.38C37.2474 128.38 37.7524 128.47 38.1924 128.65C38.6324 128.83 38.9974 129.08 39.2874 129.4C39.5774 129.72 39.7974 130.1 39.9474 130.54C40.0974 130.97 40.1724 131.44 40.1724 131.95C40.1724 132.15 40.1624 132.34 40.1424 132.52C40.1224 132.7 40.1024 132.835 40.0824 132.925H35.0724C35.1524 133.485 35.3924 133.89 35.7924 134.14C36.2024 134.38 36.6824 134.5 37.2324 134.5C37.5724 134.5 37.8924 134.46 38.1924 134.38C38.5024 134.29 38.8224 134.16 39.1524 133.99L39.8724 135.31C39.4524 135.58 38.9824 135.795 38.4624 135.955C37.9424 136.105 37.4324 136.18 36.9324 136.18C36.3524 136.18 35.8124 136.095 35.3124 135.925C34.8124 135.745 34.3774 135.49 34.0074 135.16C33.6374 134.82 33.3424 134.41 33.1224 133.93C32.9124 133.45 32.8074 132.9 32.8074 132.28ZM38.1774 131.47C38.1774 131.05 38.0624 130.71 37.8324 130.45C37.6024 130.19 37.2324 130.06 36.7224 130.06C36.3224 130.06 35.9674 130.175 35.6574 130.405C35.3474 130.635 35.1424 130.99 35.0424 131.47H38.1774ZM6.62 145.22H13.07V147.08H8.825V149.345H12.44V151.205H8.825V155H6.62V145.22ZM14.9091 152.93C14.9091 152.51 14.9991 152.145 15.1791 151.835C15.3591 151.515 15.6441 151.245 16.0341 151.025C16.4341 150.805 16.9441 150.63 17.5641 150.5C18.1841 150.36 18.9341 150.265 19.8141 150.215C19.7741 149.875 19.6241 149.61 19.3641 149.42C19.1141 149.23 18.7341 149.135 18.2241 149.135C17.8641 149.135 17.4991 149.2 17.1291 149.33C16.7691 149.45 16.3791 149.615 15.9591 149.825L15.1791 148.385C15.6891 148.095 16.2341 147.855 16.8141 147.665C17.4041 147.475 18.0191 147.38 18.6591 147.38C19.6991 147.38 20.5191 147.655 21.1191 148.205C21.7191 148.755 22.0191 149.6 22.0191 150.74V155H20.2191L20.0541 154.16H19.9941C19.6141 154.45 19.1991 154.695 18.7491 154.895C18.2991 155.085 17.8341 155.18 17.3541 155.18C16.9741 155.18 16.6341 155.12 16.3341 155C16.0341 154.89 15.7791 154.735 15.5691 154.535C15.3591 154.325 15.1941 154.085 15.0741 153.815C14.9641 153.545 14.9091 153.25 14.9091 152.93ZM17.0241 152.765C17.0241 153.005 17.1141 153.185 17.2941 153.305C17.4841 153.415 17.7391 153.47 18.0591 153.47C18.3891 153.47 18.6991 153.405 18.9891 153.275C19.2791 153.135 19.5541 152.965 19.8141 152.765V151.535C19.2641 151.565 18.8091 151.615 18.4491 151.685C18.0891 151.755 17.8041 151.845 17.5941 151.955C17.3841 152.055 17.2341 152.175 17.1441 152.315C17.0641 152.455 17.0241 152.605 17.0241 152.765ZM23.9183 144.485H28.2833V152.18C28.2833 152.41 28.3133 152.605 28.3733 152.765C28.4433 152.915 28.5333 153.04 28.6433 153.14C28.7633 153.23 28.8933 153.295 29.0333 153.335C29.1833 153.375 29.3333 153.395 29.4833 153.395C29.6533 153.395 29.8333 153.38 30.0233 153.35C30.2133 153.31 30.4233 153.245 30.6533 153.155L31.1483 154.775C30.9483 154.835 30.7633 154.89 30.5933 154.94C30.4233 154.99 30.2533 155.03 30.0833 155.06C29.9133 155.1 29.7333 155.13 29.5433 155.15C29.3533 155.17 29.1433 155.18 28.9133 155.18C27.9733 155.18 27.2633 154.905 26.7833 154.355C26.3133 153.795 26.0783 153.04 26.0783 152.09V146.225H23.9183V144.485ZM33.7674 152.66C34.1974 152.93 34.6274 153.145 35.0574 153.305C35.4974 153.465 35.9674 153.545 36.4674 153.545C36.9774 153.545 37.3424 153.49 37.5624 153.38C37.7824 153.27 37.8924 153.115 37.8924 152.915C37.8924 152.685 37.7074 152.5 37.3374 152.36C36.9774 152.21 36.4974 152.05 35.8974 151.88C35.5674 151.79 35.2424 151.685 34.9224 151.565C34.6124 151.435 34.3324 151.285 34.0824 151.115C33.8324 150.935 33.6274 150.73 33.4674 150.5C33.3174 150.27 33.2424 150.005 33.2424 149.705C33.2424 149.365 33.3224 149.05 33.4824 148.76C33.6424 148.47 33.8674 148.225 34.1574 148.025C34.4574 147.825 34.8174 147.67 35.2374 147.56C35.6674 147.44 36.1474 147.38 36.6774 147.38C37.3374 147.38 37.9374 147.49 38.4774 147.71C39.0274 147.92 39.4974 148.15 39.8874 148.4L38.8974 149.72C38.5574 149.52 38.2074 149.355 37.8474 149.225C37.4874 149.085 37.1124 149.015 36.7224 149.015C36.2524 149.015 35.9174 149.065 35.7174 149.165C35.5274 149.265 35.4324 149.41 35.4324 149.6C35.4324 149.71 35.4824 149.81 35.5824 149.9C35.6824 149.99 35.8174 150.07 35.9874 150.14C36.1574 150.21 36.3574 150.28 36.5874 150.35C36.8274 150.41 37.0774 150.475 37.3374 150.545C37.7074 150.645 38.0574 150.76 38.3874 150.89C38.7174 151.01 39.0074 151.155 39.2574 151.325C39.5074 151.495 39.7074 151.7 39.8574 151.94C40.0074 152.18 40.0824 152.46 40.0824 152.78C40.0824 153.12 40.0024 153.435 39.8424 153.725C39.6824 154.015 39.4474 154.27 39.1374 154.49C38.8374 154.7 38.4574 154.87 37.9974 155C37.5474 155.12 37.0224 155.18 36.4224 155.18C35.7524 155.18 35.0974 155.07 34.4574 154.85C33.8174 154.63 33.2574 154.36 32.7774 154.04L33.7674 152.66ZM41.8016 151.28C41.8016 150.67 41.9066 150.125 42.1166 149.645C42.3366 149.165 42.6266 148.76 42.9866 148.43C43.3466 148.09 43.7566 147.83 44.2166 147.65C44.6866 147.47 45.1716 147.38 45.6716 147.38C46.2416 147.38 46.7466 147.47 47.1866 147.65C47.6266 147.83 47.9916 148.08 48.2816 148.4C48.5716 148.72 48.7916 149.1 48.9416 149.54C49.0916 149.97 49.1666 150.44 49.1666 150.95C49.1666 151.15 49.1566 151.34 49.1366 151.52C49.1166 151.7 49.0966 151.835 49.0766 151.925H44.0666C44.1466 152.485 44.3866 152.89 44.7866 153.14C45.1966 153.38 45.6766 153.5 46.2266 153.5C46.5666 153.5 46.8866 153.46 47.1866 153.38C47.4966 153.29 47.8166 153.16 48.1466 152.99L48.8666 154.31C48.4466 154.58 47.9766 154.795 47.4566 154.955C46.9366 155.105 46.4266 155.18 45.9266 155.18C45.3466 155.18 44.8066 155.095 44.3066 154.925C43.8066 154.745 43.3716 154.49 43.0016 154.16C42.6316 153.82 42.3366 153.41 42.1166 152.93C41.9066 152.45 41.8016 151.9 41.8016 151.28ZM47.1716 150.47C47.1716 150.05 47.0566 149.71 46.8266 149.45C46.5966 149.19 46.2266 149.06 45.7166 149.06C45.3166 149.06 44.9616 149.175 44.6516 149.405C44.3416 149.635 44.1366 149.99 44.0366 150.47H47.1716Z" fill="white"/>
<path d="M9.5 111.18C8.92 111.18 8.385 111.065 7.895 110.835C7.415 110.595 7 110.255 6.65 109.815C6.31 109.375 6.045 108.84 5.855 108.21C5.665 107.58 5.57 106.865 5.57 106.065C5.57 105.265 5.665 104.555 5.855 103.935C6.045 103.305 6.31 102.78 6.65 102.36C7 101.93 7.415 101.605 7.895 101.385C8.385 101.155 8.92 101.04 9.5 101.04C10.08 101.04 10.61 101.155 11.09 101.385C11.58 101.605 11.995 101.93 12.335 102.36C12.685 102.79 12.955 103.32 13.145 103.95C13.335 104.57 13.43 105.275 13.43 106.065C13.43 106.865 13.335 107.58 13.145 108.21C12.955 108.84 12.685 109.375 12.335 109.815C11.995 110.255 11.58 110.595 11.09 110.835C10.61 111.065 10.08 111.18 9.5 111.18ZM9.5 109.275C10.01 109.275 10.415 108.99 10.715 108.42C11.015 107.84 11.165 107.055 11.165 106.065C11.165 105.085 11.015 104.32 10.715 103.77C10.415 103.22 10.01 102.945 9.5 102.945C8.99 102.945 8.585 103.22 8.285 103.77C7.985 104.32 7.835 105.085 7.835 106.065C7.835 107.055 7.985 107.84 8.285 108.42C8.585 108.99 8.99 109.275 9.5 109.275ZM21.8691 111H20.0691L19.9041 109.935H19.8441C19.5141 110.315 19.1491 110.62 18.7491 110.85C18.3491 111.07 17.8791 111.18 17.3391 111.18C16.4891 111.18 15.8741 110.91 15.4941 110.37C15.1141 109.83 14.9241 109.09 14.9241 108.15V103.56H17.1291V107.865C17.1291 108.365 17.2041 108.73 17.3541 108.96C17.5041 109.19 17.7891 109.305 18.2091 109.305C18.4891 109.305 18.7341 109.245 18.9441 109.125C19.1641 109.005 19.4041 108.78 19.6641 108.45V103.56H21.8691V111ZM25.5983 105.285H23.7233V103.65L25.7033 103.56L25.9883 101.58H27.8033V103.56H30.9533V105.285H27.8033V107.895C27.8033 108.465 27.9283 108.87 28.1783 109.11C28.4283 109.34 28.8233 109.455 29.3633 109.455C29.6533 109.455 29.9183 109.43 30.1583 109.38C30.3983 109.33 30.6283 109.265 30.8483 109.185L31.2383 110.775C30.9083 110.875 30.5383 110.965 30.1283 111.045C29.7283 111.135 29.2883 111.18 28.8083 111.18C28.2183 111.18 27.7183 111.1 27.3083 110.94C26.8983 110.78 26.5633 110.56 26.3033 110.28C26.0533 109.99 25.8733 109.645 25.7633 109.245C25.6533 108.845 25.5983 108.4 25.5983 107.91V105.285ZM35.2674 111.585V113.76H33.0624V103.56H34.8624L35.0274 104.31H35.0724C35.3724 104.04 35.7174 103.82 36.1074 103.65C36.4974 103.47 36.8924 103.38 37.2924 103.38C37.7524 103.38 38.1674 103.47 38.5374 103.65C38.9074 103.83 39.2224 104.085 39.4824 104.415C39.7424 104.745 39.9374 105.145 40.0674 105.615C40.2074 106.075 40.2774 106.59 40.2774 107.16C40.2774 107.8 40.1874 108.37 40.0074 108.87C39.8274 109.36 39.5874 109.78 39.2874 110.13C38.9874 110.47 38.6424 110.73 38.2524 110.91C37.8724 111.09 37.4724 111.18 37.0524 111.18C36.3724 111.18 35.7524 110.91 35.1924 110.37L35.2674 111.585ZM35.2674 108.885C35.4774 109.065 35.6924 109.195 35.9124 109.275C36.1424 109.345 36.3524 109.38 36.5424 109.38C36.9624 109.38 37.3124 109.21 37.5924 108.87C37.8724 108.52 38.0124 107.96 38.0124 107.19C38.0124 105.85 37.5574 105.18 36.6474 105.18C36.1774 105.18 35.7174 105.41 35.2674 105.87V108.885ZM48.8516 111H47.0516L46.8866 109.935H46.8266C46.4966 110.315 46.1316 110.62 45.7316 110.85C45.3316 111.07 44.8616 111.18 44.3216 111.18C43.4716 111.18 42.8566 110.91 42.4766 110.37C42.0966 109.83 41.9066 109.09 41.9066 108.15V103.56H44.1116V107.865C44.1116 108.365 44.1866 108.73 44.3366 108.96C44.4866 109.19 44.7716 109.305 45.1916 109.305C45.4716 109.305 45.7166 109.245 45.9266 109.125C46.1466 109.005 46.3866 108.78 46.6466 108.45V103.56H48.8516V111ZM52.5807 105.285H50.7057V103.65L52.6857 103.56L52.9707 101.58H54.7857V103.56H57.9357V105.285H54.7857V107.895C54.7857 108.465 54.9107 108.87 55.1607 109.11C55.4107 109.34 55.8057 109.455 56.3457 109.455C56.6357 109.455 56.9007 109.43 57.1407 109.38C57.3807 109.33 57.6107 109.265 57.8307 109.185L58.2207 110.775C57.8907 110.875 57.5207 110.965 57.1107 111.045C56.7107 111.135 56.2707 111.18 55.7907 111.18C55.2007 111.18 54.7007 111.1 54.2907 110.94C53.8807 110.78 53.5457 110.56 53.2857 110.28C53.0357 109.99 52.8557 109.645 52.7457 109.245C52.6357 108.845 52.5807 108.4 52.5807 107.91V105.285Z" fill="white"/>
<rect x="79" width="308" height="31" fill="#333333"/>
<rect x="79" width="308" height="31" fill="#333333"/>
<rect width="79" height="31" fill="#090808"/>
<path d="M12.105 17.8101C12.105 17.5513 11.9756 17.3486 11.7168 17.2021C11.4629 17.0508 11.0527 16.9165 10.4863 16.7993C8.60156 16.4038 7.65918 15.603 7.65918 14.397C7.65918 13.6938 7.94971 13.1079 8.53076 12.6392C9.1167 12.1655 9.88086 11.9287 10.8232 11.9287C11.8291 11.9287 12.6323 12.1655 13.2329 12.6392C13.8384 13.1128 14.1411 13.728 14.1411 14.4849H12.0244C12.0244 14.1821 11.9268 13.9331 11.7314 13.7378C11.5361 13.5376 11.231 13.4375 10.8159 13.4375C10.4595 13.4375 10.1836 13.5181 9.98828 13.6792C9.79297 13.8403 9.69531 14.0454 9.69531 14.2944C9.69531 14.5288 9.80518 14.7192 10.0249 14.8657C10.2495 15.0073 10.6255 15.1318 11.1528 15.2393C11.6802 15.3418 12.1245 15.459 12.4858 15.5908C13.604 16.001 14.1631 16.7114 14.1631 17.7222C14.1631 18.4448 13.853 19.0308 13.2329 19.48C12.6128 19.9243 11.812 20.1465 10.8306 20.1465C10.1665 20.1465 9.57568 20.0293 9.05811 19.7949C8.54541 19.5557 8.14258 19.231 7.84961 18.8208C7.55664 18.4058 7.41016 17.959 7.41016 17.4805H9.41699C9.43652 17.8564 9.57568 18.1445 9.83447 18.3447C10.0933 18.5449 10.4399 18.645 10.8745 18.645C11.2798 18.645 11.585 18.5693 11.79 18.418C12 18.2617 12.105 18.0591 12.105 17.8101ZM18.8286 18.4399C19.2192 18.4399 19.5366 18.3325 19.7808 18.1177C20.0249 17.9028 20.1519 17.6172 20.1616 17.2607H22.1465C22.1416 17.7979 21.9951 18.291 21.707 18.7402C21.4189 19.1846 21.0234 19.5312 20.5205 19.7803C20.0225 20.0244 19.4707 20.1465 18.8652 20.1465C17.7324 20.1465 16.8389 19.7876 16.1846 19.0698C15.5303 18.3472 15.2031 17.3511 15.2031 16.0815V15.9424C15.2031 14.7217 15.5278 13.7476 16.1772 13.02C16.8267 12.2925 17.7178 11.9287 18.8506 11.9287C19.8418 11.9287 20.6353 12.2119 21.231 12.7783C21.8315 13.3398 22.1367 14.0894 22.1465 15.0269H20.1616C20.1519 14.6167 20.0249 14.2847 19.7808 14.0308C19.5366 13.772 19.2144 13.6426 18.814 13.6426C18.3208 13.6426 17.9473 13.8232 17.6934 14.1846C17.4443 14.541 17.3198 15.1221 17.3198 15.9277V16.1475C17.3198 16.9629 17.4443 17.5488 17.6934 17.9053C17.9424 18.2617 18.3208 18.4399 18.8286 18.4399ZM27.8081 14.0601C27.52 14.021 27.2661 14.0015 27.0464 14.0015C26.2456 14.0015 25.7207 14.2725 25.4717 14.8145V20H23.355V12.0752H25.3545L25.4131 13.02C25.8379 12.2925 26.4263 11.9287 27.1782 11.9287C27.4126 11.9287 27.6323 11.9604 27.8374 12.0239L27.8081 14.0601ZM31.0674 20H28.9434V12.0752H31.0674V20ZM28.8188 10.0244C28.8188 9.70703 28.9238 9.4458 29.1338 9.24072C29.3486 9.03564 29.6392 8.93311 30.0054 8.93311C30.3667 8.93311 30.6548 9.03564 30.8696 9.24072C31.0845 9.4458 31.1919 9.70703 31.1919 10.0244C31.1919 10.3467 31.082 10.6104 30.8623 10.8154C30.6475 11.0205 30.3618 11.123 30.0054 11.123C29.6489 11.123 29.3608 11.0205 29.1411 10.8154C28.9263 10.6104 28.8188 10.3467 28.8188 10.0244ZM39.9517 16.1108C39.9517 17.3315 39.6733 18.3105 39.1167 19.0479C38.5649 19.7803 37.8179 20.1465 36.8755 20.1465C36.0747 20.1465 35.4277 19.8682 34.9346 19.3115V23.0469H32.8179V12.0752H34.7808L34.854 12.8516C35.3667 12.2363 36.0356 11.9287 36.8608 11.9287C37.8374 11.9287 38.5967 12.29 39.1387 13.0127C39.6807 13.7354 39.9517 14.7314 39.9517 16.001V16.1108ZM37.835 15.957C37.835 15.2197 37.7031 14.6509 37.4395 14.2505C37.1807 13.8501 36.8022 13.6499 36.3042 13.6499C35.6401 13.6499 35.1836 13.9038 34.9346 14.4116V17.6562C35.1934 18.1787 35.6548 18.4399 36.3188 18.4399C37.3296 18.4399 37.835 17.6123 37.835 15.957ZM43.8042 10.127V12.0752H45.1592V13.6279H43.8042V17.583C43.8042 17.876 43.8604 18.0859 43.9727 18.2129C44.085 18.3398 44.2998 18.4033 44.6172 18.4033C44.8516 18.4033 45.0591 18.3862 45.2397 18.3521V19.9561C44.8247 20.083 44.3975 20.1465 43.958 20.1465C42.4736 20.1465 41.7168 19.397 41.6875 17.8979V13.6279H40.5303V12.0752H41.6875V10.127H43.8042ZM46.4482 18.96C46.4482 18.623 46.5605 18.3496 46.7852 18.1396C47.0146 17.9297 47.3003 17.8247 47.6421 17.8247C47.9888 17.8247 48.2744 17.9297 48.499 18.1396C48.7285 18.3496 48.8433 18.623 48.8433 18.96C48.8433 19.292 48.731 19.563 48.5063 19.7729C48.2817 19.978 47.9937 20.0806 47.6421 20.0806C47.2954 20.0806 47.0098 19.978 46.7852 19.7729C46.5605 19.563 46.4482 19.292 46.4482 18.96ZM57.8374 16.1108C57.8374 17.3315 57.5591 18.3105 57.0024 19.0479C56.4507 19.7803 55.7036 20.1465 54.7612 20.1465C53.9604 20.1465 53.3135 19.8682 52.8203 19.3115V23.0469H50.7036V12.0752H52.6665L52.7397 12.8516C53.2524 12.2363 53.9214 11.9287 54.7466 11.9287C55.7231 11.9287 56.4824 12.29 57.0244 13.0127C57.5664 13.7354 57.8374 14.7314 57.8374 16.001V16.1108ZM55.7207 15.957C55.7207 15.2197 55.5889 14.6509 55.3252 14.2505C55.0664 13.8501 54.688 13.6499 54.1899 13.6499C53.5259 13.6499 53.0693 13.9038 52.8203 14.4116V17.6562C53.0791 18.1787 53.5405 18.4399 54.2046 18.4399C55.2153 18.4399 55.7207 17.6123 55.7207 15.957ZM62.0269 17.0044L63.4917 12.0752H65.7622L62.5762 21.2305L62.4004 21.6479C61.9268 22.6831 61.1455 23.2007 60.0566 23.2007C59.749 23.2007 59.4365 23.1543 59.1191 23.0615V21.4575L59.4414 21.4648C59.8418 21.4648 60.1396 21.4038 60.335 21.2817C60.5352 21.1597 60.6914 20.957 60.8037 20.6738L61.0527 20.022L58.2769 12.0752H60.5547L62.0269 17.0044Z" fill="white"/>
<line y1="89.5" x2="387" y2="89.5" stroke="white"/>
<path d="M10.285 51.585V53.76H8.08V43.56H9.88L10.045 44.31H10.09C10.39 44.04 10.735 43.82 11.125 43.65C11.515 43.47 11.91 43.38 12.31 43.38C12.77 43.38 13.185 43.47 13.555 43.65C13.925 43.83 14.24 44.085 14.5 44.415C14.76 44.745 14.955 45.145 15.085 45.615C15.225 46.075 15.295 46.59 15.295 47.16C15.295 47.8 15.205 48.37 15.025 48.87C14.845 49.36 14.605 49.78 14.305 50.13C14.005 50.47 13.66 50.73 13.27 50.91C12.89 51.09 12.49 51.18 12.07 51.18C11.39 51.18 10.77 50.91 10.21 50.37L10.285 51.585ZM10.285 48.885C10.495 49.065 10.71 49.195 10.93 49.275C11.16 49.345 11.37 49.38 11.56 49.38C11.98 49.38 12.33 49.21 12.61 48.87C12.89 48.52 13.03 47.96 13.03 47.19C13.03 45.85 12.575 45.18 11.665 45.18C11.195 45.18 10.735 45.41 10.285 45.87V48.885ZM17.7341 43.56H19.5341L19.7141 45.18H19.7591C20.1291 44.57 20.5741 44.12 21.0941 43.83C21.6141 43.53 22.1741 43.38 22.7741 43.38C23.1041 43.38 23.3691 43.405 23.5691 43.455C23.7791 43.505 23.9941 43.58 24.2141 43.68L23.7641 45.525C23.5341 45.455 23.3241 45.405 23.1341 45.375C22.9541 45.335 22.7241 45.315 22.4441 45.315C21.9841 45.315 21.5291 45.45 21.0791 45.72C20.6391 45.99 20.2591 46.46 19.9391 47.13V51H17.7341V43.56ZM26.1733 43.56H31.3633V51H29.1583V45.285H26.1733V43.56ZM30.1633 42.465C29.7333 42.465 29.3783 42.345 29.0983 42.105C28.8283 41.865 28.6933 41.54 28.6933 41.13C28.6933 40.72 28.8283 40.39 29.0983 40.14C29.3783 39.88 29.7333 39.75 30.1633 39.75C30.5933 39.75 30.9433 39.88 31.2133 40.14C31.4933 40.39 31.6333 40.72 31.6333 41.13C31.6333 41.54 31.4933 41.865 31.2133 42.105C30.9433 42.345 30.5933 42.465 30.1633 42.465ZM35.0624 43.56H36.8624L37.0274 44.55H37.0874C37.4074 44.23 37.7724 43.955 38.1824 43.725C38.6024 43.495 39.0924 43.38 39.6524 43.38C40.4924 43.38 41.1074 43.65 41.4974 44.19C41.8874 44.73 42.0824 45.47 42.0824 46.41V51H39.8774V46.695C39.8774 46.195 39.7974 45.83 39.6374 45.6C39.4774 45.37 39.1924 45.255 38.7824 45.255C38.4824 45.255 38.2174 45.32 37.9874 45.45C37.7674 45.58 37.5274 45.775 37.2674 46.035V51H35.0624V43.56ZM45.5866 45.285H43.7116V43.65L45.6916 43.56L45.9766 41.58H47.7916V43.56H50.9416V45.285H47.7916V47.895C47.7916 48.465 47.9166 48.87 48.1666 49.11C48.4166 49.34 48.8116 49.455 49.3516 49.455C49.6416 49.455 49.9066 49.43 50.1466 49.38C50.3866 49.33 50.6166 49.265 50.8366 49.185L51.2266 50.775C50.8966 50.875 50.5266 50.965 50.1166 51.045C49.7166 51.135 49.2766 51.18 48.7966 51.18C48.2066 51.18 47.7066 51.1 47.2966 50.94C46.8866 50.78 46.5516 50.56 46.2916 50.28C46.0416 49.99 45.8616 49.645 45.7516 49.245C45.6416 48.845 45.5866 48.4 45.5866 47.91V45.285ZM10.285 70.585V72.76H8.08V62.56H9.88L10.045 63.31H10.09C10.39 63.04 10.735 62.82 11.125 62.65C11.515 62.47 11.91 62.38 12.31 62.38C12.77 62.38 13.185 62.47 13.555 62.65C13.925 62.83 14.24 63.085 14.5 63.415C14.76 63.745 14.955 64.145 15.085 64.615C15.225 65.075 15.295 65.59 15.295 66.16C15.295 66.8 15.205 67.37 15.025 67.87C14.845 68.36 14.605 68.78 14.305 69.13C14.005 69.47 13.66 69.73 13.27 69.91C12.89 70.09 12.49 70.18 12.07 70.18C11.39 70.18 10.77 69.91 10.21 69.37L10.285 70.585ZM10.285 67.885C10.495 68.065 10.71 68.195 10.93 68.275C11.16 68.345 11.37 68.38 11.56 68.38C11.98 68.38 12.33 68.21 12.61 67.87C12.89 67.52 13.03 66.96 13.03 66.19C13.03 64.85 12.575 64.18 11.665 64.18C11.195 64.18 10.735 64.41 10.285 64.87V67.885ZM17.7341 62.56H19.5341L19.7141 64.18H19.7591C20.1291 63.57 20.5741 63.12 21.0941 62.83C21.6141 62.53 22.1741 62.38 22.7741 62.38C23.1041 62.38 23.3691 62.405 23.5691 62.455C23.7791 62.505 23.9941 62.58 24.2141 62.68L23.7641 64.525C23.5341 64.455 23.3241 64.405 23.1341 64.375C22.9541 64.335 22.7241 64.315 22.4441 64.315C21.9841 64.315 21.5291 64.45 21.0791 64.72C20.6391 64.99 20.2591 65.46 19.9391 66.13V70H17.7341V62.56ZM26.1733 62.56H31.3633V70H29.1583V64.285H26.1733V62.56ZM30.1633 61.465C29.7333 61.465 29.3783 61.345 29.0983 61.105C28.8283 60.865 28.6933 60.54 28.6933 60.13C28.6933 59.72 28.8283 59.39 29.0983 59.14C29.3783 58.88 29.7333 58.75 30.1633 58.75C30.5933 58.75 30.9433 58.88 31.2133 59.14C31.4933 59.39 31.6333 59.72 31.6333 60.13C31.6333 60.54 31.4933 60.865 31.2133 61.105C30.9433 61.345 30.5933 61.465 30.1633 61.465ZM35.0624 62.56H36.8624L37.0274 63.55H37.0874C37.4074 63.23 37.7724 62.955 38.1824 62.725C38.6024 62.495 39.0924 62.38 39.6524 62.38C40.4924 62.38 41.1074 62.65 41.4974 63.19C41.8874 63.73 42.0824 64.47 42.0824 65.41V70H39.8774V65.695C39.8774 65.195 39.7974 64.83 39.6374 64.6C39.4774 64.37 39.1924 64.255 38.7824 64.255C38.4824 64.255 38.2174 64.32 37.9874 64.45C37.7674 64.58 37.5274 64.775 37.2674 65.035V70H35.0624V62.56ZM45.5866 64.285H43.7116V62.65L45.6916 62.56L45.9766 60.58H47.7916V62.56H50.9416V64.285H47.7916V66.895C47.7916 67.465 47.9166 67.87 48.1666 68.11C48.4166 68.34 48.8116 68.455 49.3516 68.455C49.6416 68.455 49.9066 68.43 50.1466 68.38C50.3866 68.33 50.6166 68.265 50.8366 68.185L51.2266 69.775C50.8966 69.875 50.5266 69.965 50.1166 70.045C49.7166 70.135 49.2766 70.18 48.7966 70.18C48.2066 70.18 47.7066 70.1 47.2966 69.94C46.8866 69.78 46.5516 69.56 46.2916 69.28C46.0416 68.99 45.8616 68.645 45.7516 68.245C45.6416 67.845 45.5866 67.4 45.5866 66.91V64.285Z" fill="#56B4E9"/>
<path d="M57.8507 53.685C56.8707 52.815 56.0957 51.81 55.5257 50.67C54.9657 49.53 54.6857 48.25 54.6857 46.83C54.6857 45.41 54.9657 44.13 55.5257 42.99C56.0957 41.85 56.8707 40.845 57.8507 39.975L59.0807 40.95C58.1907 41.82 57.5407 42.725 57.1307 43.665C56.7307 44.595 56.5307 45.65 56.5307 46.83C56.5307 47.42 56.5807 47.98 56.6807 48.51C56.7807 49.03 56.9307 49.53 57.1307 50.01C57.3407 50.49 57.6057 50.95 57.9257 51.39C58.2457 51.84 58.6307 52.28 59.0807 52.71L57.8507 53.685ZM80.0031 43.53H86.9031V45.09H80.0031V43.53ZM80.0031 46.995H86.9031V48.555H80.0031V46.995ZM88.9973 43.53H95.8973V45.09H88.9973V43.53ZM88.9973 46.995H95.8973V48.555H88.9973V46.995ZM116.82 52.71C117.27 52.28 117.655 51.84 117.975 51.39C118.295 50.95 118.555 50.49 118.755 50.01C118.965 49.53 119.12 49.03 119.22 48.51C119.32 47.98 119.37 47.42 119.37 46.83C119.37 45.65 119.165 44.595 118.755 43.665C118.355 42.725 117.71 41.82 116.82 40.95L118.05 39.975C119.03 40.845 119.8 41.85 120.36 42.99C120.93 44.13 121.215 45.41 121.215 46.83C121.215 48.25 120.93 49.53 120.36 50.67C119.8 51.81 119.03 52.815 118.05 53.685L116.82 52.71ZM57.8507 72.685C56.8707 71.815 56.0957 70.81 55.5257 69.67C54.9657 68.53 54.6857 67.25 54.6857 65.83C54.6857 64.41 54.9657 63.13 55.5257 61.99C56.0957 60.85 56.8707 59.845 57.8507 58.975L59.0807 59.95C58.1907 60.82 57.5407 61.725 57.1307 62.665C56.7307 63.595 56.5307 64.65 56.5307 65.83C56.5307 66.42 56.5807 66.98 56.6807 67.51C56.7807 68.03 56.9307 68.53 57.1307 69.01C57.3407 69.49 57.6057 69.95 57.9257 70.39C58.2457 70.84 58.6307 71.28 59.0807 71.71L57.8507 72.685ZM80.0031 62.53H86.9031V64.09H80.0031V62.53ZM80.0031 65.995H86.9031V67.555H80.0031V65.995ZM88.9973 62.53H95.8973V64.09H88.9973V62.53ZM88.9973 65.995H95.8973V67.555H88.9973V65.995ZM116.82 71.71C117.27 71.28 117.655 70.84 117.975 70.39C118.295 69.95 118.555 69.49 118.755 69.01C118.965 68.53 119.12 68.03 119.22 67.51C119.32 66.98 119.37 66.42 119.37 65.83C119.37 64.65 119.165 63.595 118.755 62.665C118.355 61.725 117.71 60.82 116.82 59.95L118.05 58.975C119.03 59.845 119.8 60.85 120.36 61.99C120.93 63.13 121.215 64.41 121.215 65.83C121.215 67.25 120.93 68.53 120.36 69.67C119.8 70.81 119.03 71.815 118.05 72.685L116.82 71.71Z" fill="white"/>
<path d="M66.0798 47.04V45.435C66.0798 45.135 66.0848 44.79 66.0948 44.4C66.1148 44 66.1348 43.65 66.1548 43.35H66.0948C65.9348 43.62 65.7648 43.89 65.5848 44.16C65.4048 44.43 65.2298 44.7 65.0598 44.97L63.6198 47.04H66.0798ZM69.3348 48.72H68.1348V51H66.0798V48.72H61.4898V47.205L65.4648 41.475H68.1348V47.04H69.3348V48.72ZM111.051 47.04V45.435C111.051 45.135 111.056 44.79 111.066 44.4C111.086 44 111.106 43.65 111.126 43.35H111.066C110.906 43.62 110.736 43.89 110.556 44.16C110.376 44.43 110.201 44.7 110.031 44.97L108.591 47.04H111.051ZM114.306 48.72H113.106V51H111.051V48.72H106.461V47.205L110.436 41.475H113.106V47.04H114.306V48.72ZM66.0798 66.04V64.435C66.0798 64.135 66.0848 63.79 66.0948 63.4C66.1148 63 66.1348 62.65 66.1548 62.35H66.0948C65.9348 62.62 65.7648 62.89 65.5848 63.16C65.4048 63.43 65.2298 63.7 65.0598 63.97L63.6198 66.04H66.0798ZM69.3348 67.72H68.1348V70H66.0798V67.72H61.4898V66.205L65.4648 60.475H68.1348V66.04H69.3348V67.72ZM108.831 70C108.871 69.21 108.946 68.485 109.056 67.825C109.176 67.155 109.341 66.52 109.551 65.92C109.771 65.31 110.051 64.72 110.391 64.15C110.731 63.57 111.151 62.965 111.651 62.335H106.866V60.475H114.021V61.825C113.421 62.495 112.936 63.125 112.566 63.715C112.196 64.295 111.906 64.9 111.696 65.53C111.486 66.15 111.336 66.82 111.246 67.54C111.156 68.25 111.091 69.07 111.051 70H108.831Z" fill="#F0E442"/>
<path d="M139.293 45.2929C138.902 45.6834 138.902 46.3166 139.293 46.7071L145.657 53.0711C146.047 53.4616 146.681 53.4616 147.071 53.0711C147.462 52.6805 147.462 52.0474 147.071 51.6569L141.414 46L147.071 40.3431C147.462 39.9526 147.462 39.3195 147.071 38.9289C146.681 38.5384 146.047 38.5384 145.657 38.9289L139.293 45.2929ZM176 45L140 45V47L176 47V45Z" fill="#F0E442"/>
<path d="M191.289 70H189.091V59.3359H191.289V70ZM195.727 60.127V62.0752H197.082V63.6279H195.727V67.583C195.727 67.876 195.783 68.0859 195.896 68.2129C196.008 68.3398 196.223 68.4033 196.54 68.4033C196.774 68.4033 196.982 68.3862 197.163 68.3521V69.9561C196.748 70.083 196.32 70.1465 195.881 70.1465C194.396 70.1465 193.64 69.397 193.61 67.8979V63.6279H192.453V62.0752H193.61V60.127H195.727ZM199.045 62.6099L198.049 62.0312C198.469 61.3721 198.686 60.6909 198.701 59.9878V58.75H200.385V59.8853C200.385 60.3247 200.263 60.8008 200.019 61.3135C199.775 61.8262 199.45 62.2583 199.045 62.6099ZM204.472 67.8101C204.472 67.5513 204.343 67.3486 204.084 67.2021C203.83 67.0508 203.42 66.9165 202.854 66.7993C200.969 66.4038 200.026 65.603 200.026 64.397C200.026 63.6938 200.317 63.1079 200.898 62.6392C201.484 62.1655 202.248 61.9287 203.19 61.9287C204.196 61.9287 205 62.1655 205.6 62.6392C206.206 63.1128 206.508 63.728 206.508 64.4849H204.392C204.392 64.1821 204.294 63.9331 204.099 63.7378C203.903 63.5376 203.598 63.4375 203.183 63.4375C202.827 63.4375 202.551 63.5181 202.355 63.6792C202.16 63.8403 202.062 64.0454 202.062 64.2944C202.062 64.5288 202.172 64.7192 202.392 64.8657C202.617 65.0073 202.993 65.1318 203.52 65.2393C204.047 65.3418 204.492 65.459 204.853 65.5908C205.971 66.001 206.53 66.7114 206.53 67.7222C206.53 68.4448 206.22 69.0308 205.6 69.48C204.98 69.9243 204.179 70.1465 203.198 70.1465C202.534 70.1465 201.943 70.0293 201.425 69.7949C200.913 69.5557 200.51 69.231 200.217 68.8208C199.924 68.4058 199.777 67.959 199.777 67.4805H201.784C201.804 67.8564 201.943 68.1445 202.202 68.3447C202.46 68.5449 202.807 68.645 203.242 68.645C203.647 68.645 203.952 68.5693 204.157 68.418C204.367 68.2617 204.472 68.0591 204.472 67.8101ZM212.214 70V63.6279H211.035V62.0752H212.214V61.4014C212.214 60.5127 212.468 59.8242 212.976 59.3359C213.488 58.8428 214.204 58.5962 215.122 58.5962C215.415 58.5962 215.773 58.645 216.198 58.7427L216.176 60.3833C216 60.3394 215.786 60.3174 215.532 60.3174C214.736 60.3174 214.338 60.6909 214.338 61.438V62.0752H215.913V63.6279H214.338V70H212.214ZM221.604 70C221.506 69.8096 221.435 69.5728 221.391 69.2896C220.878 69.8608 220.212 70.1465 219.392 70.1465C218.615 70.1465 217.971 69.9219 217.458 69.4727C216.95 69.0234 216.696 68.457 216.696 67.7734C216.696 66.9336 217.006 66.2891 217.626 65.8398C218.251 65.3906 219.152 65.1636 220.329 65.1587H221.303V64.7046C221.303 64.3384 221.208 64.0454 221.018 63.8257C220.832 63.606 220.537 63.4961 220.131 63.4961C219.775 63.4961 219.494 63.5815 219.289 63.7524C219.089 63.9233 218.989 64.1577 218.989 64.4556H216.872C216.872 63.9966 217.014 63.5718 217.297 63.1812C217.58 62.7905 217.98 62.4854 218.498 62.2656C219.016 62.041 219.597 61.9287 220.241 61.9287C221.218 61.9287 221.992 62.1753 222.563 62.6685C223.139 63.1567 223.427 63.8452 223.427 64.7339V68.1689C223.432 68.9209 223.537 69.4897 223.742 69.8755V70H221.604ZM219.853 68.5278C220.166 68.5278 220.454 68.4595 220.717 68.3228C220.981 68.1812 221.176 67.9932 221.303 67.7588V66.3965H220.512C219.453 66.3965 218.889 66.7627 218.82 67.4951L218.813 67.6196C218.813 67.8833 218.906 68.1006 219.091 68.2715C219.277 68.4424 219.531 68.5278 219.853 68.5278ZM227.287 70H225.163V58.75H227.287V70ZM233.33 67.8101C233.33 67.5513 233.2 67.3486 232.941 67.2021C232.688 67.0508 232.277 66.9165 231.711 66.7993C229.826 66.4038 228.884 65.603 228.884 64.397C228.884 63.6938 229.174 63.1079 229.755 62.6392C230.341 62.1655 231.105 61.9287 232.048 61.9287C233.054 61.9287 233.857 62.1655 234.458 62.6392C235.063 63.1128 235.366 63.728 235.366 64.4849H233.249C233.249 64.1821 233.151 63.9331 232.956 63.7378C232.761 63.5376 232.456 63.4375 232.041 63.4375C231.684 63.4375 231.408 63.5181 231.213 63.6792C231.018 63.8403 230.92 64.0454 230.92 64.2944C230.92 64.5288 231.03 64.7192 231.25 64.8657C231.474 65.0073 231.85 65.1318 232.377 65.2393C232.905 65.3418 233.349 65.459 233.71 65.5908C234.829 66.001 235.388 66.7114 235.388 67.7222C235.388 68.4448 235.078 69.0308 234.458 69.48C233.837 69.9243 233.037 70.1465 232.055 70.1465C231.391 70.1465 230.8 70.0293 230.283 69.7949C229.77 69.5557 229.367 69.231 229.074 68.8208C228.781 68.4058 228.635 67.959 228.635 67.4805H230.642C230.661 67.8564 230.8 68.1445 231.059 68.3447C231.318 68.5449 231.665 68.645 232.099 68.645C232.504 68.645 232.81 68.5693 233.015 68.418C233.225 68.2617 233.33 68.0591 233.33 67.8101ZM240.405 70.1465C239.243 70.1465 238.295 69.79 237.563 69.0771C236.835 68.3643 236.472 67.4146 236.472 66.228V66.0229C236.472 65.2271 236.625 64.5166 236.933 63.8916C237.241 63.2617 237.675 62.7783 238.237 62.4414C238.803 62.0996 239.448 61.9287 240.17 61.9287C241.254 61.9287 242.106 62.2705 242.727 62.9541C243.352 63.6377 243.664 64.6069 243.664 65.8618V66.7261H238.618C238.686 67.2437 238.891 67.6587 239.233 67.9712C239.58 68.2837 240.017 68.4399 240.544 68.4399C241.359 68.4399 241.997 68.1445 242.456 67.5537L243.496 68.7183C243.178 69.1675 242.749 69.519 242.207 69.7729C241.665 70.022 241.064 70.1465 240.405 70.1465ZM240.163 63.6426C239.743 63.6426 239.401 63.7842 239.138 64.0674C238.879 64.3506 238.713 64.7559 238.64 65.2832H241.584V65.1147C241.574 64.646 241.447 64.2847 241.203 64.0308C240.959 63.772 240.612 63.6426 240.163 63.6426ZM251.142 60.127V62.0752H252.497V63.6279H251.142V67.583C251.142 67.876 251.198 68.0859 251.311 68.2129C251.423 68.3398 251.638 68.4033 251.955 68.4033C252.189 68.4033 252.397 68.3862 252.578 68.3521V69.9561C252.163 70.083 251.735 70.1465 251.296 70.1465C249.812 70.1465 249.055 69.397 249.025 67.8979V63.6279H247.868V62.0752H249.025V60.127H251.142ZM255.742 62.9395C256.303 62.2656 257.009 61.9287 257.858 61.9287C259.577 61.9287 260.449 62.9272 260.473 64.9243V70H258.356V64.9829C258.356 64.5288 258.259 64.1943 258.063 63.9795C257.868 63.7598 257.543 63.6499 257.089 63.6499C256.469 63.6499 256.02 63.8892 255.742 64.3677V70H253.625V58.75H255.742V62.9395ZM266.662 70C266.564 69.8096 266.494 69.5728 266.45 69.2896C265.937 69.8608 265.271 70.1465 264.45 70.1465C263.674 70.1465 263.029 69.9219 262.517 69.4727C262.009 69.0234 261.755 68.457 261.755 67.7734C261.755 66.9336 262.065 66.2891 262.685 65.8398C263.31 65.3906 264.211 65.1636 265.388 65.1587H266.362V64.7046C266.362 64.3384 266.267 64.0454 266.076 63.8257C265.891 63.606 265.595 63.4961 265.19 63.4961C264.833 63.4961 264.553 63.5815 264.348 63.7524C264.147 63.9233 264.047 64.1577 264.047 64.4556H261.931C261.931 63.9966 262.072 63.5718 262.355 63.1812C262.639 62.7905 263.039 62.4854 263.557 62.2656C264.074 62.041 264.655 61.9287 265.3 61.9287C266.276 61.9287 267.05 62.1753 267.622 62.6685C268.198 63.1567 268.486 63.8452 268.486 64.7339V68.1689C268.491 68.9209 268.596 69.4897 268.801 69.8755V70H266.662ZM264.912 68.5278C265.224 68.5278 265.512 68.4595 265.776 68.3228C266.04 68.1812 266.235 67.9932 266.362 67.7588V66.3965H265.571C264.511 66.3965 263.947 66.7627 263.879 67.4951L263.872 67.6196C263.872 67.8833 263.964 68.1006 264.15 68.2715C264.335 68.4424 264.589 68.5278 264.912 68.5278ZM272.646 60.127V62.0752H274.001V63.6279H272.646V67.583C272.646 67.876 272.702 68.0859 272.814 68.2129C272.927 68.3398 273.142 68.4033 273.459 68.4033C273.693 68.4033 273.901 68.3862 274.082 68.3521V69.9561C273.667 70.083 273.239 70.1465 272.8 70.1465C271.315 70.1465 270.559 69.397 270.529 67.8979V63.6279H269.372V62.0752H270.529V60.127H272.646ZM285.09 65.9863H286.298V67.6929H285.09V70H282.973V67.6929H278.601L278.505 66.3599L282.951 59.3359H285.09V65.9863ZM280.615 65.9863H282.973V62.2217L282.834 62.4634L280.615 65.9863ZM293.498 70H291.374V62.0752H293.498V70ZM291.25 60.0244C291.25 59.707 291.354 59.4458 291.564 59.2407C291.779 59.0356 292.07 58.9331 292.436 58.9331C292.797 58.9331 293.085 59.0356 293.3 59.2407C293.515 59.4458 293.623 59.707 293.623 60.0244C293.623 60.3467 293.513 60.6104 293.293 60.8154C293.078 61.0205 292.792 61.123 292.436 61.123C292.08 61.123 291.792 61.0205 291.572 60.8154C291.357 60.6104 291.25 60.3467 291.25 60.0244ZM299.541 67.8101C299.541 67.5513 299.411 67.3486 299.152 67.2021C298.898 67.0508 298.488 66.9165 297.922 66.7993C296.037 66.4038 295.095 65.603 295.095 64.397C295.095 63.6938 295.385 63.1079 295.966 62.6392C296.552 62.1655 297.316 61.9287 298.259 61.9287C299.265 61.9287 300.068 62.1655 300.668 62.6392C301.274 63.1128 301.577 63.728 301.577 64.4849H299.46C299.46 64.1821 299.362 63.9331 299.167 63.7378C298.972 63.5376 298.667 63.4375 298.251 63.4375C297.895 63.4375 297.619 63.5181 297.424 63.6792C297.229 63.8403 297.131 64.0454 297.131 64.2944C297.131 64.5288 297.241 64.7192 297.46 64.8657C297.685 65.0073 298.061 65.1318 298.588 65.2393C299.116 65.3418 299.56 65.459 299.921 65.5908C301.04 66.001 301.599 66.7114 301.599 67.7222C301.599 68.4448 301.289 69.0308 300.668 69.48C300.048 69.9243 299.248 70.1465 298.266 70.1465C297.602 70.1465 297.011 70.0293 296.494 69.7949C295.981 69.5557 295.578 69.231 295.285 68.8208C294.992 68.4058 294.846 67.959 294.846 67.4805H296.853C296.872 67.8564 297.011 68.1445 297.27 68.3447C297.529 68.5449 297.875 68.645 298.31 68.645C298.715 68.645 299.021 68.5693 299.226 68.418C299.436 68.2617 299.541 68.0591 299.541 67.8101ZM310.351 70.1465C309.189 70.1465 308.242 69.79 307.509 69.0771C306.782 68.3643 306.418 67.4146 306.418 66.228V66.0229C306.418 65.2271 306.572 64.5166 306.879 63.8916C307.187 63.2617 307.622 62.7783 308.183 62.4414C308.75 62.0996 309.394 61.9287 310.117 61.9287C311.201 61.9287 312.053 62.2705 312.673 62.9541C313.298 63.6377 313.61 64.6069 313.61 65.8618V66.7261H308.564C308.632 67.2437 308.837 67.6587 309.179 67.9712C309.526 68.2837 309.963 68.4399 310.49 68.4399C311.306 68.4399 311.943 68.1445 312.402 67.5537L313.442 68.7183C313.125 69.1675 312.695 69.519 312.153 69.7729C311.611 70.022 311.01 70.1465 310.351 70.1465ZM310.109 63.6426C309.689 63.6426 309.348 63.7842 309.084 64.0674C308.825 64.3506 308.659 64.7559 308.586 65.2832H311.53V65.1147C311.521 64.646 311.394 64.2847 311.149 64.0308C310.905 63.772 310.559 63.6426 310.109 63.6426ZM314.489 65.9644C314.489 64.7192 314.765 63.7354 315.317 63.0127C315.874 62.29 316.635 61.9287 317.602 61.9287C318.452 61.9287 319.128 62.2534 319.631 62.9028L319.77 62.0752H321.63V73.0469H319.506V69.3188C319.018 69.8706 318.378 70.1465 317.587 70.1465C316.645 70.1465 315.893 69.7803 315.332 69.0479C314.77 68.3154 314.489 67.2876 314.489 65.9644ZM316.606 66.1182C316.606 66.875 316.738 67.4512 317.001 67.8467C317.27 68.2422 317.646 68.4399 318.129 68.4399C318.779 68.4399 319.238 68.1812 319.506 67.6636V64.3896C319.243 63.8916 318.789 63.6426 318.144 63.6426C317.656 63.6426 317.277 63.8403 317.009 64.2358C316.74 64.6313 316.606 65.2588 316.606 66.1182ZM328.046 69.1943C327.524 69.8291 326.801 70.1465 325.878 70.1465C325.029 70.1465 324.379 69.9023 323.93 69.4141C323.486 68.9258 323.259 68.2104 323.249 67.2681V62.0752H325.366V67.1948C325.366 68.02 325.742 68.4326 326.494 68.4326C327.211 68.4326 327.705 68.1836 327.973 67.6855V62.0752H330.097V70H328.105L328.046 69.1943ZM336.286 70C336.188 69.8096 336.118 69.5728 336.074 69.2896C335.561 69.8608 334.895 70.1465 334.074 70.1465C333.298 70.1465 332.653 69.9219 332.141 69.4727C331.633 69.0234 331.379 68.457 331.379 67.7734C331.379 66.9336 331.689 66.2891 332.309 65.8398C332.934 65.3906 333.835 65.1636 335.012 65.1587H335.986V64.7046C335.986 64.3384 335.891 64.0454 335.7 63.8257C335.515 63.606 335.219 63.4961 334.814 63.4961C334.458 63.4961 334.177 63.5815 333.972 63.7524C333.771 63.9233 333.671 64.1577 333.671 64.4556H331.555C331.555 63.9966 331.696 63.5718 331.979 63.1812C332.263 62.7905 332.663 62.4854 333.181 62.2656C333.698 62.041 334.279 61.9287 334.924 61.9287C335.9 61.9287 336.674 62.1753 337.246 62.6685C337.822 63.1567 338.11 63.8452 338.11 64.7339V68.1689C338.115 68.9209 338.22 69.4897 338.425 69.8755V70H336.286ZM334.536 68.5278C334.848 68.5278 335.136 68.4595 335.4 68.3228C335.664 68.1812 335.859 67.9932 335.986 67.7588V66.3965H335.195C334.135 66.3965 333.571 66.7627 333.503 67.4951L333.496 67.6196C333.496 67.8833 333.588 68.1006 333.774 68.2715C333.959 68.4424 334.213 68.5278 334.536 68.5278ZM341.97 70H339.846V58.75H341.97V70ZM349.99 60.127V62.0752H351.345V63.6279H349.99V67.583C349.99 67.876 350.046 68.0859 350.158 68.2129C350.271 68.3398 350.485 68.4033 350.803 68.4033C351.037 68.4033 351.245 68.3862 351.425 68.3521V69.9561C351.01 70.083 350.583 70.1465 350.144 70.1465C348.659 70.1465 347.902 69.397 347.873 67.8979V63.6279H346.716V62.0752H347.873V60.127H349.99ZM351.975 65.9644C351.975 65.1782 352.126 64.4775 352.429 63.8623C352.731 63.2471 353.166 62.771 353.732 62.4341C354.304 62.0972 354.965 61.9287 355.717 61.9287C356.787 61.9287 357.658 62.2559 358.332 62.9102C359.011 63.5645 359.389 64.4531 359.467 65.5762L359.482 66.1182C359.482 67.334 359.143 68.3105 358.464 69.0479C357.785 69.7803 356.875 70.1465 355.732 70.1465C354.589 70.1465 353.676 69.7803 352.993 69.0479C352.314 68.3154 351.975 67.3193 351.975 66.0596V65.9644ZM354.091 66.1182C354.091 66.8701 354.233 67.4463 354.516 67.8467C354.799 68.2422 355.205 68.4399 355.732 68.4399C356.245 68.4399 356.645 68.2446 356.933 67.854C357.221 67.4585 357.365 66.8286 357.365 65.9644C357.365 65.2271 357.221 64.6558 356.933 64.2505C356.645 63.8452 356.24 63.6426 355.717 63.6426C355.2 63.6426 354.799 63.8452 354.516 64.2505C354.233 64.6509 354.091 65.2734 354.091 66.1182ZM371.684 60.5225L367.561 70H365.327L369.458 61.0498H364.155V59.3359H371.684V60.5225Z" fill="#F0E442"/>
<path d="M139.293 64.2929C138.902 64.6834 138.902 65.3166 139.293 65.7071L145.657 72.0711C146.047 72.4616 146.681 72.4616 147.071 72.0711C147.462 71.6805 147.462 71.0474 147.071 70.6569L141.414 65L147.071 59.3431C147.462 58.9526 147.462 58.3195 147.071 57.9289C146.681 57.5384 146.047 57.5384 145.657 57.9289L139.293 64.2929ZM176 64H140V66H176V64Z" fill="#F0E442"/>
<rect x="86.0107" y="199" width="222" height="193" fill="black"/>
<path d="M96.4007 354.08H93.4757V352.22H101.546V354.08H98.6207V362H96.4007V354.08ZM103.745 354.56H105.545L105.725 356.18H105.77C106.14 355.57 106.585 355.12 107.105 354.83C107.625 354.53 108.185 354.38 108.785 354.38C109.115 354.38 109.38 354.405 109.58 354.455C109.79 354.505 110.005 354.58 110.225 354.68L109.775 356.525C109.545 356.455 109.335 356.405 109.145 356.375C108.965 356.335 108.735 356.315 108.455 356.315C107.995 356.315 107.54 356.45 107.09 356.72C106.65 356.99 106.27 357.46 105.95 358.13V362H103.745V354.56ZM118.874 362H117.074L116.909 360.935H116.849C116.519 361.315 116.154 361.62 115.754 361.85C115.354 362.07 114.884 362.18 114.344 362.18C113.494 362.18 112.879 361.91 112.499 361.37C112.119 360.83 111.929 360.09 111.929 359.15V354.56H114.134V358.865C114.134 359.365 114.209 359.73 114.359 359.96C114.509 360.19 114.794 360.305 115.214 360.305C115.494 360.305 115.739 360.245 115.949 360.125C116.169 360.005 116.409 359.78 116.669 359.45V354.56H118.874V362ZM120.818 358.28C120.818 357.67 120.923 357.125 121.133 356.645C121.353 356.165 121.643 355.76 122.003 355.43C122.363 355.09 122.773 354.83 123.233 354.65C123.703 354.47 124.188 354.38 124.688 354.38C125.258 354.38 125.763 354.47 126.203 354.65C126.643 354.83 127.008 355.08 127.298 355.4C127.588 355.72 127.808 356.1 127.958 356.54C128.108 356.97 128.183 357.44 128.183 357.95C128.183 358.15 128.173 358.34 128.153 358.52C128.133 358.7 128.113 358.835 128.093 358.925H123.083C123.163 359.485 123.403 359.89 123.803 360.14C124.213 360.38 124.693 360.5 125.243 360.5C125.583 360.5 125.903 360.46 126.203 360.38C126.513 360.29 126.833 360.16 127.163 359.99L127.883 361.31C127.463 361.58 126.993 361.795 126.473 361.955C125.953 362.105 125.443 362.18 124.943 362.18C124.363 362.18 123.823 362.095 123.323 361.925C122.823 361.745 122.388 361.49 122.018 361.16C121.648 360.82 121.353 360.41 121.133 359.93C120.923 359.45 120.818 358.9 120.818 358.28ZM126.188 357.47C126.188 357.05 126.073 356.71 125.843 356.45C125.613 356.19 125.243 356.06 124.733 356.06C124.333 356.06 123.978 356.175 123.668 356.405C123.358 356.635 123.153 356.99 123.053 357.47H126.188ZM94.6307 371.22H101.081V373.08H96.8357V375.345H100.451V377.205H96.8357V381H94.6307V371.22ZM102.92 378.93C102.92 378.51 103.01 378.145 103.19 377.835C103.37 377.515 103.655 377.245 104.045 377.025C104.445 376.805 104.955 376.63 105.575 376.5C106.195 376.36 106.945 376.265 107.825 376.215C107.785 375.875 107.635 375.61 107.375 375.42C107.125 375.23 106.745 375.135 106.235 375.135C105.875 375.135 105.51 375.2 105.14 375.33C104.78 375.45 104.39 375.615 103.97 375.825L103.19 374.385C103.7 374.095 104.245 373.855 104.825 373.665C105.415 373.475 106.03 373.38 106.67 373.38C107.71 373.38 108.53 373.655 109.13 374.205C109.73 374.755 110.03 375.6 110.03 376.74V381H108.23L108.065 380.16H108.005C107.625 380.45 107.21 380.695 106.76 380.895C106.31 381.085 105.845 381.18 105.365 381.18C104.985 381.18 104.645 381.12 104.345 381C104.045 380.89 103.79 380.735 103.58 380.535C103.37 380.325 103.205 380.085 103.085 379.815C102.975 379.545 102.92 379.25 102.92 378.93ZM105.035 378.765C105.035 379.005 105.125 379.185 105.305 379.305C105.495 379.415 105.75 379.47 106.07 379.47C106.4 379.47 106.71 379.405 107 379.275C107.29 379.135 107.565 378.965 107.825 378.765V377.535C107.275 377.565 106.82 377.615 106.46 377.685C106.1 377.755 105.815 377.845 105.605 377.955C105.395 378.055 105.245 378.175 105.155 378.315C105.075 378.455 105.035 378.605 105.035 378.765ZM111.929 370.485H116.294V378.18C116.294 378.41 116.324 378.605 116.384 378.765C116.454 378.915 116.544 379.04 116.654 379.14C116.774 379.23 116.904 379.295 117.044 379.335C117.194 379.375 117.344 379.395 117.494 379.395C117.664 379.395 117.844 379.38 118.034 379.35C118.224 379.31 118.434 379.245 118.664 379.155L119.159 380.775C118.959 380.835 118.774 380.89 118.604 380.94C118.434 380.99 118.264 381.03 118.094 381.06C117.924 381.1 117.744 381.13 117.554 381.15C117.364 381.17 117.154 381.18 116.924 381.18C115.984 381.18 115.274 380.905 114.794 380.355C114.324 379.795 114.089 379.04 114.089 378.09V372.225H111.929V370.485ZM121.778 378.66C122.208 378.93 122.638 379.145 123.068 379.305C123.508 379.465 123.978 379.545 124.478 379.545C124.988 379.545 125.353 379.49 125.573 379.38C125.793 379.27 125.903 379.115 125.903 378.915C125.903 378.685 125.718 378.5 125.348 378.36C124.988 378.21 124.508 378.05 123.908 377.88C123.578 377.79 123.253 377.685 122.933 377.565C122.623 377.435 122.343 377.285 122.093 377.115C121.843 376.935 121.638 376.73 121.478 376.5C121.328 376.27 121.253 376.005 121.253 375.705C121.253 375.365 121.333 375.05 121.493 374.76C121.653 374.47 121.878 374.225 122.168 374.025C122.468 373.825 122.828 373.67 123.248 373.56C123.678 373.44 124.158 373.38 124.688 373.38C125.348 373.38 125.948 373.49 126.488 373.71C127.038 373.92 127.508 374.15 127.898 374.4L126.908 375.72C126.568 375.52 126.218 375.355 125.858 375.225C125.498 375.085 125.123 375.015 124.733 375.015C124.263 375.015 123.928 375.065 123.728 375.165C123.538 375.265 123.443 375.41 123.443 375.6C123.443 375.71 123.493 375.81 123.593 375.9C123.693 375.99 123.828 376.07 123.998 376.14C124.168 376.21 124.368 376.28 124.598 376.35C124.838 376.41 125.088 376.475 125.348 376.545C125.718 376.645 126.068 376.76 126.398 376.89C126.728 377.01 127.018 377.155 127.268 377.325C127.518 377.495 127.718 377.7 127.868 377.94C128.018 378.18 128.093 378.46 128.093 378.78C128.093 379.12 128.013 379.435 127.853 379.725C127.693 380.015 127.458 380.27 127.148 380.49C126.848 380.7 126.468 380.87 126.008 381C125.558 381.12 125.033 381.18 124.433 381.18C123.763 381.18 123.108 381.07 122.468 380.85C121.828 380.63 121.268 380.36 120.788 380.04L121.778 378.66ZM129.812 377.28C129.812 376.67 129.917 376.125 130.127 375.645C130.347 375.165 130.637 374.76 130.997 374.43C131.357 374.09 131.767 373.83 132.227 373.65C132.697 373.47 133.182 373.38 133.682 373.38C134.252 373.38 134.757 373.47 135.197 373.65C135.637 373.83 136.002 374.08 136.292 374.4C136.582 374.72 136.802 375.1 136.952 375.54C137.102 375.97 137.177 376.44 137.177 376.95C137.177 377.15 137.167 377.34 137.147 377.52C137.127 377.7 137.107 377.835 137.087 377.925H132.077C132.157 378.485 132.397 378.89 132.797 379.14C133.207 379.38 133.687 379.5 134.237 379.5C134.577 379.5 134.897 379.46 135.197 379.38C135.507 379.29 135.827 379.16 136.157 378.99L136.877 380.31C136.457 380.58 135.987 380.795 135.467 380.955C134.947 381.105 134.437 381.18 133.937 381.18C133.357 381.18 132.817 381.095 132.317 380.925C131.817 380.745 131.382 380.49 131.012 380.16C130.642 379.82 130.347 379.41 130.127 378.93C129.917 378.45 129.812 377.9 129.812 377.28ZM135.182 376.47C135.182 376.05 135.067 375.71 134.837 375.45C134.607 375.19 134.237 375.06 133.727 375.06C133.327 375.06 132.972 375.175 132.662 375.405C132.352 375.635 132.147 375.99 132.047 376.47H135.182Z" fill="white"/>
<path d="M97.5107 340.18C96.9307 340.18 96.3957 340.065 95.9057 339.835C95.4257 339.595 95.0107 339.255 94.6607 338.815C94.3207 338.375 94.0557 337.84 93.8657 337.21C93.6757 336.58 93.5807 335.865 93.5807 335.065C93.5807 334.265 93.6757 333.555 93.8657 332.935C94.0557 332.305 94.3207 331.78 94.6607 331.36C95.0107 330.93 95.4257 330.605 95.9057 330.385C96.3957 330.155 96.9307 330.04 97.5107 330.04C98.0907 330.04 98.6207 330.155 99.1007 330.385C99.5907 330.605 100.006 330.93 100.346 331.36C100.696 331.79 100.966 332.32 101.156 332.95C101.346 333.57 101.441 334.275 101.441 335.065C101.441 335.865 101.346 336.58 101.156 337.21C100.966 337.84 100.696 338.375 100.346 338.815C100.006 339.255 99.5907 339.595 99.1007 339.835C98.6207 340.065 98.0907 340.18 97.5107 340.18ZM97.5107 338.275C98.0207 338.275 98.4257 337.99 98.7257 337.42C99.0257 336.84 99.1757 336.055 99.1757 335.065C99.1757 334.085 99.0257 333.32 98.7257 332.77C98.4257 332.22 98.0207 331.945 97.5107 331.945C97.0007 331.945 96.5957 332.22 96.2957 332.77C95.9957 333.32 95.8457 334.085 95.8457 335.065C95.8457 336.055 95.9957 336.84 96.2957 337.42C96.5957 337.99 97.0007 338.275 97.5107 338.275ZM109.88 340H108.08L107.915 338.935H107.855C107.525 339.315 107.16 339.62 106.76 339.85C106.36 340.07 105.89 340.18 105.35 340.18C104.5 340.18 103.885 339.91 103.505 339.37C103.125 338.83 102.935 338.09 102.935 337.15V332.56H105.14V336.865C105.14 337.365 105.215 337.73 105.365 337.96C105.515 338.19 105.8 338.305 106.22 338.305C106.5 338.305 106.745 338.245 106.955 338.125C107.175 338.005 107.415 337.78 107.675 337.45V332.56H109.88V340ZM113.609 334.285H111.734V332.65L113.714 332.56L113.999 330.58H115.814V332.56H118.964V334.285H115.814V336.895C115.814 337.465 115.939 337.87 116.189 338.11C116.439 338.34 116.834 338.455 117.374 338.455C117.664 338.455 117.929 338.43 118.169 338.38C118.409 338.33 118.639 338.265 118.859 338.185L119.249 339.775C118.919 339.875 118.549 339.965 118.139 340.045C117.739 340.135 117.299 340.18 116.819 340.18C116.229 340.18 115.729 340.1 115.319 339.94C114.909 339.78 114.574 339.56 114.314 339.28C114.064 338.99 113.884 338.645 113.774 338.245C113.664 337.845 113.609 337.4 113.609 336.91V334.285ZM123.278 340.585V342.76H121.073V332.56H122.873L123.038 333.31H123.083C123.383 333.04 123.728 332.82 124.118 332.65C124.508 332.47 124.903 332.38 125.303 332.38C125.763 332.38 126.178 332.47 126.548 332.65C126.918 332.83 127.233 333.085 127.493 333.415C127.753 333.745 127.948 334.145 128.078 334.615C128.218 335.075 128.288 335.59 128.288 336.16C128.288 336.8 128.198 337.37 128.018 337.87C127.838 338.36 127.598 338.78 127.298 339.13C126.998 339.47 126.653 339.73 126.263 339.91C125.883 340.09 125.483 340.18 125.063 340.18C124.383 340.18 123.763 339.91 123.203 339.37L123.278 340.585ZM123.278 337.885C123.488 338.065 123.703 338.195 123.923 338.275C124.153 338.345 124.363 338.38 124.553 338.38C124.973 338.38 125.323 338.21 125.603 337.87C125.883 337.52 126.023 336.96 126.023 336.19C126.023 334.85 125.568 334.18 124.658 334.18C124.188 334.18 123.728 334.41 123.278 334.87V337.885ZM136.862 340H135.062L134.897 338.935H134.837C134.507 339.315 134.142 339.62 133.742 339.85C133.342 340.07 132.872 340.18 132.332 340.18C131.482 340.18 130.867 339.91 130.487 339.37C130.107 338.83 129.917 338.09 129.917 337.15V332.56H132.122V336.865C132.122 337.365 132.197 337.73 132.347 337.96C132.497 338.19 132.782 338.305 133.202 338.305C133.482 338.305 133.727 338.245 133.937 338.125C134.157 338.005 134.397 337.78 134.657 337.45V332.56H136.862V340ZM140.591 334.285H138.716V332.65L140.696 332.56L140.981 330.58H142.796V332.56H145.946V334.285H142.796V336.895C142.796 337.465 142.921 337.87 143.171 338.11C143.421 338.34 143.816 338.455 144.356 338.455C144.646 338.455 144.911 338.43 145.151 338.38C145.391 338.33 145.621 338.265 145.841 338.185L146.231 339.775C145.901 339.875 145.531 339.965 145.121 340.045C144.721 340.135 144.281 340.18 143.801 340.18C143.211 340.18 142.711 340.1 142.301 339.94C141.891 339.78 141.556 339.56 141.296 339.28C141.046 338.99 140.866 338.645 140.756 338.245C140.646 337.845 140.591 337.4 140.591 336.91V334.285Z" fill="white"/>
<rect x="165.011" y="199" width="143" height="31" fill="#333333"/>
<rect x="165.011" y="199" width="143" height="31" fill="#333333"/>
<rect x="86.0107" y="199" width="79" height="31" fill="#090808"/>
<path d="M98.1157 216.81C98.1157 216.551 97.9863 216.349 97.7275 216.202C97.4736 216.051 97.0634 215.917 96.497 215.799C94.6123 215.404 93.6699 214.603 93.6699 213.397C93.6699 212.694 93.9604 212.108 94.5415 211.639C95.1274 211.166 95.8916 210.929 96.834 210.929C97.8398 210.929 98.643 211.166 99.2436 211.639C99.8491 212.113 100.152 212.728 100.152 213.485H98.0351C98.0351 213.182 97.9375 212.933 97.7422 212.738C97.5468 212.538 97.2417 212.438 96.8266 212.438C96.4702 212.438 96.1943 212.518 95.999 212.679C95.8037 212.84 95.706 213.045 95.706 213.294C95.706 213.529 95.8159 213.719 96.0356 213.866C96.2602 214.007 96.6362 214.132 97.1635 214.239C97.6909 214.342 98.1352 214.459 98.4966 214.591C99.6147 215.001 100.174 215.711 100.174 216.722C100.174 217.445 99.8637 218.031 99.2436 218.48C98.6235 218.924 97.8227 219.146 96.8413 219.146C96.1772 219.146 95.5864 219.029 95.0688 218.795C94.5561 218.556 94.1533 218.231 93.8603 217.821C93.5674 217.406 93.4209 216.959 93.4209 216.48H95.4277C95.4472 216.856 95.5864 217.145 95.8452 217.345C96.104 217.545 96.4507 217.645 96.8852 217.645C97.2905 217.645 97.5957 217.569 97.8008 217.418C98.0107 217.262 98.1157 217.059 98.1157 216.81ZM104.839 217.44C105.23 217.44 105.547 217.333 105.791 217.118C106.036 216.903 106.163 216.617 106.172 216.261H108.157C108.152 216.798 108.006 217.291 107.718 217.74C107.43 218.185 107.034 218.531 106.531 218.78C106.033 219.024 105.481 219.146 104.876 219.146C103.743 219.146 102.85 218.788 102.195 218.07C101.541 217.347 101.214 216.351 101.214 215.082V214.942C101.214 213.722 101.539 212.748 102.188 212.02C102.837 211.292 103.728 210.929 104.861 210.929C105.853 210.929 106.646 211.212 107.242 211.778C107.842 212.34 108.147 213.089 108.157 214.027H106.172C106.163 213.617 106.036 213.285 105.791 213.031C105.547 212.772 105.225 212.643 104.825 212.643C104.332 212.643 103.958 212.823 103.704 213.185C103.455 213.541 103.331 214.122 103.331 214.928V215.147C103.331 215.963 103.455 216.549 103.704 216.905C103.953 217.262 104.332 217.44 104.839 217.44ZM113.819 213.06C113.531 213.021 113.277 213.001 113.057 213.001C112.256 213.001 111.731 213.272 111.482 213.814V219H109.366V211.075H111.365L111.424 212.02C111.849 211.292 112.437 210.929 113.189 210.929C113.423 210.929 113.643 210.96 113.848 211.024L113.819 213.06ZM117.078 219H114.954V211.075H117.078V219ZM114.83 209.024C114.83 208.707 114.935 208.446 115.145 208.241C115.359 208.036 115.65 207.933 116.016 207.933C116.377 207.933 116.665 208.036 116.88 208.241C117.095 208.446 117.203 208.707 117.203 209.024C117.203 209.347 117.093 209.61 116.873 209.815C116.658 210.021 116.373 210.123 116.016 210.123C115.66 210.123 115.372 210.021 115.152 209.815C114.937 209.61 114.83 209.347 114.83 209.024ZM125.962 215.111C125.962 216.332 125.684 217.311 125.127 218.048C124.576 218.78 123.829 219.146 122.886 219.146C122.085 219.146 121.438 218.868 120.945 218.312V222.047H118.829V211.075H120.791L120.865 211.852C121.377 211.236 122.046 210.929 122.872 210.929C123.848 210.929 124.607 211.29 125.149 212.013C125.691 212.735 125.962 213.731 125.962 215.001V215.111ZM123.846 214.957C123.846 214.22 123.714 213.651 123.45 213.25C123.191 212.85 122.813 212.65 122.315 212.65C121.651 212.65 121.194 212.904 120.945 213.412V216.656C121.204 217.179 121.665 217.44 122.33 217.44C123.34 217.44 123.846 216.612 123.846 214.957ZM129.815 209.127V211.075H131.17V212.628H129.815V216.583C129.815 216.876 129.871 217.086 129.983 217.213C130.096 217.34 130.311 217.403 130.628 217.403C130.862 217.403 131.07 217.386 131.25 217.352V218.956C130.835 219.083 130.408 219.146 129.969 219.146C128.484 219.146 127.728 218.397 127.698 216.898V212.628H126.541V211.075H127.698V209.127H129.815ZM132.459 217.96C132.459 217.623 132.571 217.35 132.796 217.14C133.025 216.93 133.311 216.825 133.653 216.825C133.999 216.825 134.285 216.93 134.51 217.14C134.739 217.35 134.854 217.623 134.854 217.96C134.854 218.292 134.742 218.563 134.517 218.773C134.292 218.978 134.004 219.081 133.653 219.081C133.306 219.081 133.02 218.978 132.796 218.773C132.571 218.563 132.459 218.292 132.459 217.96ZM143.848 215.111C143.848 216.332 143.57 217.311 143.013 218.048C142.461 218.78 141.714 219.146 140.772 219.146C139.971 219.146 139.324 218.868 138.831 218.312V222.047H136.714V211.075H138.677L138.75 211.852C139.263 211.236 139.932 210.929 140.757 210.929C141.734 210.929 142.493 211.29 143.035 212.013C143.577 212.735 143.848 213.731 143.848 215.001V215.111ZM141.731 214.957C141.731 214.22 141.6 213.651 141.336 213.25C141.077 212.85 140.699 212.65 140.201 212.65C139.537 212.65 139.08 212.904 138.831 213.412V216.656C139.09 217.179 139.551 217.44 140.215 217.44C141.226 217.44 141.731 216.612 141.731 214.957ZM148.038 216.004L149.502 211.075H151.773L148.587 220.23L148.411 220.648C147.937 221.683 147.156 222.201 146.067 222.201C145.76 222.201 145.447 222.154 145.13 222.062V220.458L145.452 220.465C145.853 220.465 146.15 220.404 146.346 220.282C146.546 220.16 146.702 219.957 146.814 219.674L147.063 219.022L144.288 211.075H146.565L148.038 216.004Z" fill="white"/>
<line x1="86" y1="323.042" x2="308.02" y2="323.042" stroke="white"/>
<path d="M96.2957 250.585V252.76H94.0907V242.56H95.8907L96.0557 243.31H96.1007C96.4007 243.04 96.7457 242.82 97.1357 242.65C97.5257 242.47 97.9207 242.38 98.3207 242.38C98.7807 242.38 99.1957 242.47 99.5657 242.65C99.9357 242.83 100.251 243.085 100.511 243.415C100.771 243.745 100.966 244.145 101.096 244.615C101.236 245.075 101.306 245.59 101.306 246.16C101.306 246.8 101.216 247.37 101.036 247.87C100.856 248.36 100.616 248.78 100.316 249.13C100.016 249.47 99.6707 249.73 99.2807 249.91C98.9007 250.09 98.5007 250.18 98.0807 250.18C97.4007 250.18 96.7807 249.91 96.2207 249.37L96.2957 250.585ZM96.2957 247.885C96.5057 248.065 96.7207 248.195 96.9407 248.275C97.1707 248.345 97.3807 248.38 97.5707 248.38C97.9907 248.38 98.3407 248.21 98.6207 247.87C98.9007 247.52 99.0407 246.96 99.0407 246.19C99.0407 244.85 98.5857 244.18 97.6757 244.18C97.2057 244.18 96.7457 244.41 96.2957 244.87V247.885ZM103.745 242.56H105.545L105.725 244.18H105.77C106.14 243.57 106.585 243.12 107.105 242.83C107.625 242.53 108.185 242.38 108.785 242.38C109.115 242.38 109.38 242.405 109.58 242.455C109.79 242.505 110.005 242.58 110.225 242.68L109.775 244.525C109.545 244.455 109.335 244.405 109.145 244.375C108.965 244.335 108.735 244.315 108.455 244.315C107.995 244.315 107.54 244.45 107.09 244.72C106.65 244.99 106.27 245.46 105.95 246.13V250H103.745V242.56ZM112.184 242.56H117.374V250H115.169V244.285H112.184V242.56ZM116.174 241.465C115.744 241.465 115.389 241.345 115.109 241.105C114.839 240.865 114.704 240.54 114.704 240.13C114.704 239.72 114.839 239.39 115.109 239.14C115.389 238.88 115.744 238.75 116.174 238.75C116.604 238.75 116.954 238.88 117.224 239.14C117.504 239.39 117.644 239.72 117.644 240.13C117.644 240.54 117.504 240.865 117.224 241.105C116.954 241.345 116.604 241.465 116.174 241.465ZM120.998 246.28C120.998 245.66 121.113 245.11 121.343 244.63C121.583 244.14 121.898 243.73 122.288 243.4C122.688 243.07 123.148 242.82 123.668 242.65C124.188 242.47 124.733 242.38 125.303 242.38C125.893 242.38 126.423 242.475 126.893 242.665C127.373 242.855 127.773 243.095 128.093 243.385L127.073 244.75C126.523 244.36 125.973 244.165 125.423 244.165C124.783 244.165 124.263 244.355 123.863 244.735C123.463 245.115 123.263 245.63 123.263 246.28C123.263 246.93 123.453 247.445 123.833 247.825C124.223 248.205 124.728 248.395 125.348 248.395C125.738 248.395 126.098 248.325 126.428 248.185C126.758 248.045 127.053 247.88 127.313 247.69L128.213 249.085C127.763 249.465 127.263 249.745 126.713 249.925C126.173 250.095 125.648 250.18 125.138 250.18C124.548 250.18 124.003 250.095 123.503 249.925C123.003 249.745 122.563 249.49 122.183 249.16C121.813 248.83 121.523 248.425 121.313 247.945C121.103 247.455 120.998 246.9 120.998 246.28ZM129.812 246.28C129.812 245.67 129.917 245.125 130.127 244.645C130.347 244.165 130.637 243.76 130.997 243.43C131.357 243.09 131.767 242.83 132.227 242.65C132.697 242.47 133.182 242.38 133.682 242.38C134.252 242.38 134.757 242.47 135.197 242.65C135.637 242.83 136.002 243.08 136.292 243.4C136.582 243.72 136.802 244.1 136.952 244.54C137.102 244.97 137.177 245.44 137.177 245.95C137.177 246.15 137.167 246.34 137.147 246.52C137.127 246.7 137.107 246.835 137.087 246.925H132.077C132.157 247.485 132.397 247.89 132.797 248.14C133.207 248.38 133.687 248.5 134.237 248.5C134.577 248.5 134.897 248.46 135.197 248.38C135.507 248.29 135.827 248.16 136.157 247.99L136.877 249.31C136.457 249.58 135.987 249.795 135.467 249.955C134.947 250.105 134.437 250.18 133.937 250.18C133.357 250.18 132.817 250.095 132.317 249.925C131.817 249.745 131.382 249.49 131.012 249.16C130.642 248.82 130.347 248.41 130.127 247.93C129.917 247.45 129.812 246.9 129.812 246.28ZM135.182 245.47C135.182 245.05 135.067 244.71 134.837 244.45C134.607 244.19 134.237 244.06 133.727 244.06C133.327 244.06 132.972 244.175 132.662 244.405C132.352 244.635 132.147 244.99 132.047 245.47H135.182ZM148.026 242.53H154.926V244.09H148.026V242.53ZM148.026 245.995H154.926V247.555H148.026V245.995ZM143.861 289.685C142.881 288.815 142.106 287.81 141.536 286.67C140.976 285.53 140.696 284.25 140.696 282.83C140.696 281.41 140.976 280.13 141.536 278.99C142.106 277.85 142.881 276.845 143.861 275.975L145.091 276.95C144.201 277.82 143.551 278.725 143.141 279.665C142.741 280.595 142.541 281.65 142.541 282.83C142.541 283.42 142.591 283.98 142.691 284.51C142.791 285.03 142.941 285.53 143.141 286.01C143.351 286.49 143.616 286.95 143.936 287.39C144.256 287.84 144.641 288.28 145.091 288.71L143.861 289.685ZM150.261 287.585V289.76H148.056V279.56H149.856L150.021 280.31H150.066C150.366 280.04 150.711 279.82 151.101 279.65C151.491 279.47 151.886 279.38 152.286 279.38C152.746 279.38 153.161 279.47 153.531 279.65C153.901 279.83 154.216 280.085 154.476 280.415C154.736 280.745 154.931 281.145 155.061 281.615C155.201 282.075 155.271 282.59 155.271 283.16C155.271 283.8 155.181 284.37 155.001 284.87C154.821 285.36 154.581 285.78 154.281 286.13C153.981 286.47 153.636 286.73 153.246 286.91C152.866 287.09 152.466 287.18 152.046 287.18C151.366 287.18 150.746 286.91 150.186 286.37L150.261 287.585ZM150.261 284.885C150.471 285.065 150.686 285.195 150.906 285.275C151.136 285.345 151.346 285.38 151.536 285.38C151.956 285.38 152.306 285.21 152.586 284.87C152.866 284.52 153.006 283.96 153.006 283.19C153.006 281.85 152.551 281.18 151.641 281.18C151.171 281.18 150.711 281.41 150.261 281.87V284.885ZM157.71 279.56H159.51L159.69 281.18H159.735C160.105 280.57 160.55 280.12 161.07 279.83C161.59 279.53 162.15 279.38 162.75 279.38C163.08 279.38 163.345 279.405 163.545 279.455C163.755 279.505 163.97 279.58 164.19 279.68L163.74 281.525C163.51 281.455 163.3 281.405 163.11 281.375C162.93 281.335 162.7 281.315 162.42 281.315C161.96 281.315 161.505 281.45 161.055 281.72C160.615 281.99 160.235 282.46 159.915 283.13V287H157.71V279.56ZM166.149 279.56H171.339V287H169.134V281.285H166.149V279.56ZM170.139 278.465C169.709 278.465 169.354 278.345 169.074 278.105C168.804 277.865 168.669 277.54 168.669 277.13C168.669 276.72 168.804 276.39 169.074 276.14C169.354 275.88 169.709 275.75 170.139 275.75C170.569 275.75 170.919 275.88 171.189 276.14C171.469 276.39 171.609 276.72 171.609 277.13C171.609 277.54 171.469 277.865 171.189 278.105C170.919 278.345 170.569 278.465 170.139 278.465ZM174.963 283.28C174.963 282.66 175.078 282.11 175.308 281.63C175.548 281.14 175.863 280.73 176.253 280.4C176.653 280.07 177.113 279.82 177.633 279.65C178.153 279.47 178.698 279.38 179.268 279.38C179.858 279.38 180.388 279.475 180.858 279.665C181.338 279.855 181.738 280.095 182.058 280.385L181.038 281.75C180.488 281.36 179.938 281.165 179.388 281.165C178.748 281.165 178.228 281.355 177.828 281.735C177.428 282.115 177.228 282.63 177.228 283.28C177.228 283.93 177.418 284.445 177.798 284.825C178.188 285.205 178.693 285.395 179.313 285.395C179.703 285.395 180.063 285.325 180.393 285.185C180.723 285.045 181.018 284.88 181.278 284.69L182.178 286.085C181.728 286.465 181.228 286.745 180.678 286.925C180.138 287.095 179.613 287.18 179.103 287.18C178.513 287.18 177.968 287.095 177.468 286.925C176.968 286.745 176.528 286.49 176.148 286.16C175.778 285.83 175.488 285.425 175.278 284.945C175.068 284.455 174.963 283.9 174.963 283.28ZM183.777 283.28C183.777 282.67 183.882 282.125 184.092 281.645C184.312 281.165 184.602 280.76 184.962 280.43C185.322 280.09 185.732 279.83 186.192 279.65C186.662 279.47 187.147 279.38 187.647 279.38C188.217 279.38 188.722 279.47 189.162 279.65C189.602 279.83 189.967 280.08 190.257 280.4C190.547 280.72 190.767 281.1 190.917 281.54C191.067 281.97 191.142 282.44 191.142 282.95C191.142 283.15 191.132 283.34 191.112 283.52C191.092 283.7 191.072 283.835 191.052 283.925H186.042C186.122 284.485 186.362 284.89 186.762 285.14C187.172 285.38 187.652 285.5 188.202 285.5C188.542 285.5 188.862 285.46 189.162 285.38C189.472 285.29 189.792 285.16 190.122 284.99L190.842 286.31C190.422 286.58 189.952 286.795 189.432 286.955C188.912 287.105 188.402 287.18 187.902 287.18C187.322 287.18 186.782 287.095 186.282 286.925C185.782 286.745 185.347 286.49 184.977 286.16C184.607 285.82 184.312 285.41 184.092 284.93C183.882 284.45 183.777 283.9 183.777 283.28ZM189.147 282.47C189.147 282.05 189.032 281.71 188.802 281.45C188.572 281.19 188.202 281.06 187.692 281.06C187.292 281.06 186.937 281.175 186.627 281.405C186.317 281.635 186.112 281.99 186.012 282.47H189.147ZM201.99 279.53H208.89V281.09H201.99V279.53ZM201.99 282.995H208.89V284.555H201.99V282.995ZM210.985 279.53H217.885V281.09H210.985V279.53ZM210.985 282.995H217.885V284.555H210.985V282.995ZM238.807 288.71C239.257 288.28 239.642 287.84 239.962 287.39C240.282 286.95 240.542 286.49 240.742 286.01C240.952 285.53 241.107 285.03 241.207 284.51C241.307 283.98 241.357 283.42 241.357 282.83C241.357 281.65 241.152 280.595 240.742 279.665C240.342 278.725 239.697 277.82 238.807 276.95L240.037 275.975C241.017 276.845 241.787 277.85 242.347 278.99C242.917 280.13 243.202 281.41 243.202 282.83C243.202 284.25 242.917 285.53 242.347 286.67C241.787 287.81 241.017 288.815 240.037 289.685L238.807 288.71ZM143.861 308.685C142.881 307.815 142.106 306.81 141.536 305.67C140.976 304.53 140.696 303.25 140.696 301.83C140.696 300.41 140.976 299.13 141.536 297.99C142.106 296.85 142.881 295.845 143.861 294.975L145.091 295.95C144.201 296.82 143.551 297.725 143.141 298.665C142.741 299.595 142.541 300.65 142.541 301.83C142.541 302.42 142.591 302.98 142.691 303.51C142.791 304.03 142.941 304.53 143.141 305.01C143.351 305.49 143.616 305.95 143.936 306.39C144.256 306.84 144.641 307.28 145.091 307.71L143.861 308.685ZM150.261 306.585V308.76H148.056V298.56H149.856L150.021 299.31H150.066C150.366 299.04 150.711 298.82 151.101 298.65C151.491 298.47 151.886 298.38 152.286 298.38C152.746 298.38 153.161 298.47 153.531 298.65C153.901 298.83 154.216 299.085 154.476 299.415C154.736 299.745 154.931 300.145 155.061 300.615C155.201 301.075 155.271 301.59 155.271 302.16C155.271 302.8 155.181 303.37 155.001 303.87C154.821 304.36 154.581 304.78 154.281 305.13C153.981 305.47 153.636 305.73 153.246 305.91C152.866 306.09 152.466 306.18 152.046 306.18C151.366 306.18 150.746 305.91 150.186 305.37L150.261 306.585ZM150.261 303.885C150.471 304.065 150.686 304.195 150.906 304.275C151.136 304.345 151.346 304.38 151.536 304.38C151.956 304.38 152.306 304.21 152.586 303.87C152.866 303.52 153.006 302.96 153.006 302.19C153.006 300.85 152.551 300.18 151.641 300.18C151.171 300.18 150.711 300.41 150.261 300.87V303.885ZM157.71 298.56H159.51L159.69 300.18H159.735C160.105 299.57 160.55 299.12 161.07 298.83C161.59 298.53 162.15 298.38 162.75 298.38C163.08 298.38 163.345 298.405 163.545 298.455C163.755 298.505 163.97 298.58 164.19 298.68L163.74 300.525C163.51 300.455 163.3 300.405 163.11 300.375C162.93 300.335 162.7 300.315 162.42 300.315C161.96 300.315 161.505 300.45 161.055 300.72C160.615 300.99 160.235 301.46 159.915 302.13V306H157.71V298.56ZM166.149 298.56H171.339V306H169.134V300.285H166.149V298.56ZM170.139 297.465C169.709 297.465 169.354 297.345 169.074 297.105C168.804 296.865 168.669 296.54 168.669 296.13C168.669 295.72 168.804 295.39 169.074 295.14C169.354 294.88 169.709 294.75 170.139 294.75C170.569 294.75 170.919 294.88 171.189 295.14C171.469 295.39 171.609 295.72 171.609 296.13C171.609 296.54 171.469 296.865 171.189 297.105C170.919 297.345 170.569 297.465 170.139 297.465ZM174.963 302.28C174.963 301.66 175.078 301.11 175.308 300.63C175.548 300.14 175.863 299.73 176.253 299.4C176.653 299.07 177.113 298.82 177.633 298.65C178.153 298.47 178.698 298.38 179.268 298.38C179.858 298.38 180.388 298.475 180.858 298.665C181.338 298.855 181.738 299.095 182.058 299.385L181.038 300.75C180.488 300.36 179.938 300.165 179.388 300.165C178.748 300.165 178.228 300.355 177.828 300.735C177.428 301.115 177.228 301.63 177.228 302.28C177.228 302.93 177.418 303.445 177.798 303.825C178.188 304.205 178.693 304.395 179.313 304.395C179.703 304.395 180.063 304.325 180.393 304.185C180.723 304.045 181.018 303.88 181.278 303.69L182.178 305.085C181.728 305.465 181.228 305.745 180.678 305.925C180.138 306.095 179.613 306.18 179.103 306.18C178.513 306.18 177.968 306.095 177.468 305.925C176.968 305.745 176.528 305.49 176.148 305.16C175.778 304.83 175.488 304.425 175.278 303.945C175.068 303.455 174.963 302.9 174.963 302.28ZM183.777 302.28C183.777 301.67 183.882 301.125 184.092 300.645C184.312 300.165 184.602 299.76 184.962 299.43C185.322 299.09 185.732 298.83 186.192 298.65C186.662 298.47 187.147 298.38 187.647 298.38C188.217 298.38 188.722 298.47 189.162 298.65C189.602 298.83 189.967 299.08 190.257 299.4C190.547 299.72 190.767 300.1 190.917 300.54C191.067 300.97 191.142 301.44 191.142 301.95C191.142 302.15 191.132 302.34 191.112 302.52C191.092 302.7 191.072 302.835 191.052 302.925H186.042C186.122 303.485 186.362 303.89 186.762 304.14C187.172 304.38 187.652 304.5 188.202 304.5C188.542 304.5 188.862 304.46 189.162 304.38C189.472 304.29 189.792 304.16 190.122 303.99L190.842 305.31C190.422 305.58 189.952 305.795 189.432 305.955C188.912 306.105 188.402 306.18 187.902 306.18C187.322 306.18 186.782 306.095 186.282 305.925C185.782 305.745 185.347 305.49 184.977 305.16C184.607 304.82 184.312 304.41 184.092 303.93C183.882 303.45 183.777 302.9 183.777 302.28ZM189.147 301.47C189.147 301.05 189.032 300.71 188.802 300.45C188.572 300.19 188.202 300.06 187.692 300.06C187.292 300.06 186.937 300.175 186.627 300.405C186.317 300.635 186.112 300.99 186.012 301.47H189.147ZM201.99 298.53H208.89V300.09H201.99V298.53ZM201.99 301.995H208.89V303.555H201.99V301.995ZM210.985 298.53H217.885V300.09H210.985V298.53ZM210.985 301.995H217.885V303.555H210.985V301.995ZM238.807 307.71C239.257 307.28 239.642 306.84 239.962 306.39C240.282 305.95 240.542 305.49 240.742 305.01C240.952 304.53 241.107 304.03 241.207 303.51C241.307 302.98 241.357 302.42 241.357 301.83C241.357 300.65 241.152 299.595 240.742 298.665C240.342 297.725 239.697 296.82 238.807 295.95L240.037 294.975C241.017 295.845 241.787 296.85 242.347 297.99C242.917 299.13 243.202 300.41 243.202 301.83C243.202 303.25 242.917 304.53 242.347 305.67C241.787 306.81 241.017 307.815 240.037 308.685L238.807 307.71Z" fill="white"/>
<path d="M96.2957 287.585V289.76H94.0907V279.56H95.8907L96.0557 280.31H96.1007C96.4007 280.04 96.7457 279.82 97.1357 279.65C97.5257 279.47 97.9207 279.38 98.3207 279.38C98.7807 279.38 99.1957 279.47 99.5657 279.65C99.9357 279.83 100.251 280.085 100.511 280.415C100.771 280.745 100.966 281.145 101.096 281.615C101.236 282.075 101.306 282.59 101.306 283.16C101.306 283.8 101.216 284.37 101.036 284.87C100.856 285.36 100.616 285.78 100.316 286.13C100.016 286.47 99.6707 286.73 99.2807 286.91C98.9007 287.09 98.5007 287.18 98.0807 287.18C97.4007 287.18 96.7807 286.91 96.2207 286.37L96.2957 287.585ZM96.2957 284.885C96.5057 285.065 96.7207 285.195 96.9407 285.275C97.1707 285.345 97.3807 285.38 97.5707 285.38C97.9907 285.38 98.3407 285.21 98.6207 284.87C98.9007 284.52 99.0407 283.96 99.0407 283.19C99.0407 281.85 98.5857 281.18 97.6757 281.18C97.2057 281.18 96.7457 281.41 96.2957 281.87V284.885ZM103.745 279.56H105.545L105.725 281.18H105.77C106.14 280.57 106.585 280.12 107.105 279.83C107.625 279.53 108.185 279.38 108.785 279.38C109.115 279.38 109.38 279.405 109.58 279.455C109.79 279.505 110.005 279.58 110.225 279.68L109.775 281.525C109.545 281.455 109.335 281.405 109.145 281.375C108.965 281.335 108.735 281.315 108.455 281.315C107.995 281.315 107.54 281.45 107.09 281.72C106.65 281.99 106.27 282.46 105.95 283.13V287H103.745V279.56ZM112.184 279.56H117.374V287H115.169V281.285H112.184V279.56ZM116.174 278.465C115.744 278.465 115.389 278.345 115.109 278.105C114.839 277.865 114.704 277.54 114.704 277.13C114.704 276.72 114.839 276.39 115.109 276.14C115.389 275.88 115.744 275.75 116.174 275.75C116.604 275.75 116.954 275.88 117.224 276.14C117.504 276.39 117.644 276.72 117.644 277.13C117.644 277.54 117.504 277.865 117.224 278.105C116.954 278.345 116.604 278.465 116.174 278.465ZM121.073 279.56H122.873L123.038 280.55H123.098C123.418 280.23 123.783 279.955 124.193 279.725C124.613 279.495 125.103 279.38 125.663 279.38C126.503 279.38 127.118 279.65 127.508 280.19C127.898 280.73 128.093 281.47 128.093 282.41V287H125.888V282.695C125.888 282.195 125.808 281.83 125.648 281.6C125.488 281.37 125.203 281.255 124.793 281.255C124.493 281.255 124.228 281.32 123.998 281.45C123.778 281.58 123.538 281.775 123.278 282.035V287H121.073V279.56ZM131.597 281.285H129.722V279.65L131.702 279.56L131.987 277.58H133.802V279.56H136.952V281.285H133.802V283.895C133.802 284.465 133.927 284.87 134.177 285.11C134.427 285.34 134.822 285.455 135.362 285.455C135.652 285.455 135.917 285.43 136.157 285.38C136.397 285.33 136.627 285.265 136.847 285.185L137.237 286.775C136.907 286.875 136.537 286.965 136.127 287.045C135.727 287.135 135.287 287.18 134.807 287.18C134.217 287.18 133.717 287.1 133.307 286.94C132.897 286.78 132.562 286.56 132.302 286.28C132.052 285.99 131.872 285.645 131.762 285.245C131.652 284.845 131.597 284.4 131.597 283.91V281.285ZM96.2957 306.585V308.76H94.0907V298.56H95.8907L96.0557 299.31H96.1007C96.4007 299.04 96.7457 298.82 97.1357 298.65C97.5257 298.47 97.9207 298.38 98.3207 298.38C98.7807 298.38 99.1957 298.47 99.5657 298.65C99.9357 298.83 100.251 299.085 100.511 299.415C100.771 299.745 100.966 300.145 101.096 300.615C101.236 301.075 101.306 301.59 101.306 302.16C101.306 302.8 101.216 303.37 101.036 303.87C100.856 304.36 100.616 304.78 100.316 305.13C100.016 305.47 99.6707 305.73 99.2807 305.91C98.9007 306.09 98.5007 306.18 98.0807 306.18C97.4007 306.18 96.7807 305.91 96.2207 305.37L96.2957 306.585ZM96.2957 303.885C96.5057 304.065 96.7207 304.195 96.9407 304.275C97.1707 304.345 97.3807 304.38 97.5707 304.38C97.9907 304.38 98.3407 304.21 98.6207 303.87C98.9007 303.52 99.0407 302.96 99.0407 302.19C99.0407 300.85 98.5857 300.18 97.6757 300.18C97.2057 300.18 96.7457 300.41 96.2957 300.87V303.885ZM103.745 298.56H105.545L105.725 300.18H105.77C106.14 299.57 106.585 299.12 107.105 298.83C107.625 298.53 108.185 298.38 108.785 298.38C109.115 298.38 109.38 298.405 109.58 298.455C109.79 298.505 110.005 298.58 110.225 298.68L109.775 300.525C109.545 300.455 109.335 300.405 109.145 300.375C108.965 300.335 108.735 300.315 108.455 300.315C107.995 300.315 107.54 300.45 107.09 300.72C106.65 300.99 106.27 301.46 105.95 302.13V306H103.745V298.56ZM112.184 298.56H117.374V306H115.169V300.285H112.184V298.56ZM116.174 297.465C115.744 297.465 115.389 297.345 115.109 297.105C114.839 296.865 114.704 296.54 114.704 296.13C114.704 295.72 114.839 295.39 115.109 295.14C115.389 294.88 115.744 294.75 116.174 294.75C116.604 294.75 116.954 294.88 117.224 295.14C117.504 295.39 117.644 295.72 117.644 296.13C117.644 296.54 117.504 296.865 117.224 297.105C116.954 297.345 116.604 297.465 116.174 297.465ZM121.073 298.56H122.873L123.038 299.55H123.098C123.418 299.23 123.783 298.955 124.193 298.725C124.613 298.495 125.103 298.38 125.663 298.38C126.503 298.38 127.118 298.65 127.508 299.19C127.898 299.73 128.093 300.47 128.093 301.41V306H125.888V301.695C125.888 301.195 125.808 300.83 125.648 300.6C125.488 300.37 125.203 300.255 124.793 300.255C124.493 300.255 124.228 300.32 123.998 300.45C123.778 300.58 123.538 300.775 123.278 301.035V306H121.073V298.56ZM131.597 300.285H129.722V298.65L131.702 298.56L131.987 296.58H133.802V298.56H136.952V300.285H133.802V302.895C133.802 303.465 133.927 303.87 134.177 304.11C134.427 304.34 134.822 304.455 135.362 304.455C135.652 304.455 135.917 304.43 136.157 304.38C136.397 304.33 136.627 304.265 136.847 304.185L137.237 305.775C136.907 305.875 136.537 305.965 136.127 306.045C135.727 306.135 135.287 306.18 134.807 306.18C134.217 306.18 133.717 306.1 133.307 305.94C132.897 305.78 132.562 305.56 132.302 305.28C132.052 304.99 131.872 304.645 131.762 304.245C131.652 303.845 131.597 303.4 131.597 302.91V300.285Z" fill="#56B4E9"/>
<path d="M169.464 250.18C168.914 250.18 168.414 250.075 167.964 249.865C167.514 249.645 167.129 249.325 166.809 248.905C166.489 248.485 166.239 247.965 166.059 247.345C165.889 246.725 165.804 246.01 165.804 245.2C165.804 244.39 165.889 243.68 166.059 243.07C166.239 242.46 166.489 241.95 166.809 241.54C167.129 241.12 167.514 240.81 167.964 240.61C168.414 240.4 168.914 240.295 169.464 240.295C170.014 240.295 170.514 240.4 170.964 240.61C171.414 240.81 171.799 241.12 172.119 241.54C172.439 241.95 172.684 242.46 172.854 243.07C173.034 243.68 173.124 244.39 173.124 245.2C173.124 246.01 173.034 246.725 172.854 247.345C172.684 247.965 172.439 248.485 172.119 248.905C171.799 249.325 171.414 249.645 170.964 249.865C170.514 250.075 170.014 250.18 169.464 250.18ZM169.464 242.005C169.224 242.005 168.999 242.055 168.789 242.155C168.589 242.255 168.414 242.43 168.264 242.68C168.114 242.92 167.994 243.245 167.904 243.655C167.814 244.065 167.769 244.58 167.769 245.2C167.769 245.82 167.814 246.34 167.904 246.76C167.994 247.17 168.114 247.505 168.264 247.765C168.414 248.015 168.589 248.195 168.789 248.305C168.999 248.415 169.224 248.47 169.464 248.47C169.704 248.47 169.924 248.415 170.124 248.305C170.334 248.195 170.514 248.015 170.664 247.765C170.814 247.505 170.934 247.17 171.024 246.76C171.114 246.34 171.159 245.82 171.159 245.2C171.159 244.58 171.114 244.065 171.024 243.655C170.934 243.245 170.814 242.92 170.664 242.68C170.514 242.43 170.334 242.255 170.124 242.155C169.924 242.055 169.704 242.005 169.464 242.005ZM169.464 246.31C169.144 246.31 168.874 246.21 168.654 246.01C168.444 245.8 168.339 245.52 168.339 245.17C168.339 244.82 168.444 244.545 168.654 244.345C168.874 244.135 169.144 244.03 169.464 244.03C169.784 244.03 170.049 244.135 170.259 244.345C170.479 244.545 170.589 244.82 170.589 245.17C170.589 245.52 170.479 245.8 170.259 246.01C170.049 246.21 169.784 246.31 169.464 246.31ZM232.423 287.18C231.873 287.18 231.373 287.075 230.923 286.865C230.473 286.645 230.088 286.325 229.768 285.905C229.448 285.485 229.198 284.965 229.018 284.345C228.848 283.725 228.763 283.01 228.763 282.2C228.763 281.39 228.848 280.68 229.018 280.07C229.198 279.46 229.448 278.95 229.768 278.54C230.088 278.12 230.473 277.81 230.923 277.61C231.373 277.4 231.873 277.295 232.423 277.295C232.973 277.295 233.473 277.4 233.923 277.61C234.373 277.81 234.758 278.12 235.078 278.54C235.398 278.95 235.643 279.46 235.813 280.07C235.993 280.68 236.083 281.39 236.083 282.2C236.083 283.01 235.993 283.725 235.813 284.345C235.643 284.965 235.398 285.485 235.078 285.905C234.758 286.325 234.373 286.645 233.923 286.865C233.473 287.075 232.973 287.18 232.423 287.18ZM232.423 279.005C232.183 279.005 231.958 279.055 231.748 279.155C231.548 279.255 231.373 279.43 231.223 279.68C231.073 279.92 230.953 280.245 230.863 280.655C230.773 281.065 230.728 281.58 230.728 282.2C230.728 282.82 230.773 283.34 230.863 283.76C230.953 284.17 231.073 284.505 231.223 284.765C231.373 285.015 231.548 285.195 231.748 285.305C231.958 285.415 232.183 285.47 232.423 285.47C232.663 285.47 232.883 285.415 233.083 285.305C233.293 285.195 233.473 285.015 233.623 284.765C233.773 284.505 233.893 284.17 233.983 283.76C234.073 283.34 234.118 282.82 234.118 282.2C234.118 281.58 234.073 281.065 233.983 280.655C233.893 280.245 233.773 279.92 233.623 279.68C233.473 279.43 233.293 279.255 233.083 279.155C232.883 279.055 232.663 279.005 232.423 279.005ZM232.423 283.31C232.103 283.31 231.833 283.21 231.613 283.01C231.403 282.8 231.298 282.52 231.298 282.17C231.298 281.82 231.403 281.545 231.613 281.345C231.833 281.135 232.103 281.03 232.423 281.03C232.743 281.03 233.008 281.135 233.218 281.345C233.438 281.545 233.548 281.82 233.548 282.17C233.548 282.52 233.438 282.8 233.218 283.01C233.008 283.21 232.743 283.31 232.423 283.31ZM228.793 304.74C229.473 304.17 230.093 303.64 230.653 303.15C231.213 302.65 231.693 302.185 232.093 301.755C232.493 301.325 232.803 300.92 233.023 300.54C233.243 300.16 233.353 299.8 233.353 299.46C233.353 298.99 233.218 298.635 232.948 298.395C232.678 298.145 232.293 298.02 231.793 298.02C231.413 298.02 231.063 298.12 230.743 298.32C230.433 298.51 230.143 298.735 229.873 298.995L228.688 297.81C228.938 297.56 229.183 297.34 229.423 297.15C229.673 296.96 229.933 296.805 230.203 296.685C230.483 296.555 230.773 296.46 231.073 296.4C231.383 296.33 231.723 296.295 232.093 296.295C232.593 296.295 233.048 296.37 233.458 296.52C233.868 296.66 234.218 296.865 234.508 297.135C234.808 297.395 235.038 297.71 235.198 298.08C235.368 298.45 235.453 298.865 235.453 299.325C235.453 299.725 235.358 300.135 235.168 300.555C234.978 300.965 234.718 301.38 234.388 301.8C234.068 302.21 233.698 302.625 233.278 303.045C232.858 303.455 232.418 303.86 231.958 304.26C232.228 304.23 232.518 304.205 232.828 304.185C233.148 304.155 233.433 304.14 233.683 304.14H235.948V306H228.793V304.74Z" fill="#F0E442"/>
</svg>
