<svg width="372" height="265" viewBox="0 0 372 265" fill="none" xmlns="http://www.w3.org/2000/svg">
<rect width="372" height="265" fill="black"/>
<path d="M10.39 220.08H7.465V218.22H15.535V220.08H12.61V228H10.39V220.08ZM17.0741 217.485H19.2791V220.065L19.1591 221.49C19.3091 221.35 19.4691 221.215 19.6391 221.085C19.8191 220.945 20.0091 220.825 20.2091 220.725C20.4191 220.615 20.6441 220.53 20.8841 220.47C21.1341 220.41 21.3991 220.38 21.6791 220.38C22.5191 220.38 23.1291 220.65 23.5091 221.19C23.8991 221.73 24.0941 222.47 24.0941 223.41V228H21.8891V223.695C21.8891 223.195 21.8091 222.83 21.6491 222.6C21.4891 222.37 21.2041 222.255 20.7941 222.255C20.4941 222.255 20.2291 222.32 19.9991 222.45C19.7791 222.58 19.5391 222.775 19.2791 223.035V228H17.0741V217.485ZM26.1733 220.56H31.3633V228H29.1583V222.285H26.1733V220.56ZM30.1633 219.465C29.7333 219.465 29.3783 219.345 29.0983 219.105C28.8283 218.865 28.6933 218.54 28.6933 218.13C28.6933 217.72 28.8283 217.39 29.0983 217.14C29.3783 216.88 29.7333 216.75 30.1633 216.75C30.5933 216.75 30.9433 216.88 31.2133 217.14C31.4933 217.39 31.6333 217.72 31.6333 218.13C31.6333 218.54 31.4933 218.865 31.2133 219.105C30.9433 219.345 30.5933 219.465 30.1633 219.465ZM35.7674 225.66C36.1974 225.93 36.6274 226.145 37.0574 226.305C37.4974 226.465 37.9674 226.545 38.4674 226.545C38.9774 226.545 39.3424 226.49 39.5624 226.38C39.7824 226.27 39.8924 226.115 39.8924 225.915C39.8924 225.685 39.7074 225.5 39.3374 225.36C38.9774 225.21 38.4974 225.05 37.8974 224.88C37.5674 224.79 37.2424 224.685 36.9224 224.565C36.6124 224.435 36.3324 224.285 36.0824 224.115C35.8324 223.935 35.6274 223.73 35.4674 223.5C35.3174 223.27 35.2424 223.005 35.2424 222.705C35.2424 222.365 35.3224 222.05 35.4824 221.76C35.6424 221.47 35.8674 221.225 36.1574 221.025C36.4574 220.825 36.8174 220.67 37.2374 220.56C37.6674 220.44 38.1474 220.38 38.6774 220.38C39.3374 220.38 39.9374 220.49 40.4774 220.71C41.0274 220.92 41.4974 221.15 41.8874 221.4L40.8974 222.72C40.5574 222.52 40.2074 222.355 39.8474 222.225C39.4874 222.085 39.1124 222.015 38.7224 222.015C38.2524 222.015 37.9174 222.065 37.7174 222.165C37.5274 222.265 37.4324 222.41 37.4324 222.6C37.4324 222.71 37.4824 222.81 37.5824 222.9C37.6824 222.99 37.8174 223.07 37.9874 223.14C38.1574 223.21 38.3574 223.28 38.5874 223.35C38.8274 223.41 39.0774 223.475 39.3374 223.545C39.7074 223.645 40.0574 223.76 40.3874 223.89C40.7174 224.01 41.0074 224.155 41.2574 224.325C41.5074 224.495 41.7074 224.7 41.8574 224.94C42.0074 225.18 42.0824 225.46 42.0824 225.78C42.0824 226.12 42.0024 226.435 41.8424 226.725C41.6824 227.015 41.4474 227.27 41.1374 227.49C40.8374 227.7 40.4574 227.87 39.9974 228C39.5474 228.12 39.0224 228.18 38.4224 228.18C37.7524 228.18 37.0974 228.07 36.4574 227.85C35.8174 227.63 35.2574 227.36 34.7774 227.04L35.7674 225.66ZM52.8857 225.93C52.8857 225.51 52.9757 225.145 53.1557 224.835C53.3357 224.515 53.6207 224.245 54.0107 224.025C54.4107 223.805 54.9207 223.63 55.5407 223.5C56.1607 223.36 56.9107 223.265 57.7907 223.215C57.7507 222.875 57.6007 222.61 57.3407 222.42C57.0907 222.23 56.7107 222.135 56.2007 222.135C55.8407 222.135 55.4757 222.2 55.1057 222.33C54.7457 222.45 54.3557 222.615 53.9357 222.825L53.1557 221.385C53.6657 221.095 54.2107 220.855 54.7907 220.665C55.3807 220.475 55.9957 220.38 56.6357 220.38C57.6757 220.38 58.4957 220.655 59.0957 221.205C59.6957 221.755 59.9957 222.6 59.9957 223.74V228H58.1957L58.0307 227.16H57.9707C57.5907 227.45 57.1757 227.695 56.7257 227.895C56.2757 228.085 55.8107 228.18 55.3307 228.18C54.9507 228.18 54.6107 228.12 54.3107 228C54.0107 227.89 53.7557 227.735 53.5457 227.535C53.3357 227.325 53.1707 227.085 53.0507 226.815C52.9407 226.545 52.8857 226.25 52.8857 225.93ZM55.0007 225.765C55.0007 226.005 55.0907 226.185 55.2707 226.305C55.4607 226.415 55.7157 226.47 56.0357 226.47C56.3657 226.47 56.6757 226.405 56.9657 226.275C57.2557 226.135 57.5307 225.965 57.7907 225.765V224.535C57.2407 224.565 56.7857 224.615 56.4257 224.685C56.0657 224.755 55.7807 224.845 55.5707 224.955C55.3607 225.055 55.2107 225.175 55.1207 225.315C55.0407 225.455 55.0007 225.605 55.0007 225.765ZM64.2498 228.585V230.76H62.0448V220.56H63.8448L64.0098 221.31H64.0548C64.3548 221.04 64.6998 220.82 65.0898 220.65C65.4798 220.47 65.8748 220.38 66.2748 220.38C66.7348 220.38 67.1498 220.47 67.5198 220.65C67.8898 220.83 68.2048 221.085 68.4648 221.415C68.7248 221.745 68.9198 222.145 69.0498 222.615C69.1898 223.075 69.2598 223.59 69.2598 224.16C69.2598 224.8 69.1698 225.37 68.9898 225.87C68.8098 226.36 68.5698 226.78 68.2698 227.13C67.9698 227.47 67.6248 227.73 67.2348 227.91C66.8548 228.09 66.4548 228.18 66.0348 228.18C65.3548 228.18 64.7348 227.91 64.1748 227.37L64.2498 228.585ZM64.2498 225.885C64.4598 226.065 64.6748 226.195 64.8948 226.275C65.1248 226.345 65.3348 226.38 65.5248 226.38C65.9448 226.38 66.2948 226.21 66.5748 225.87C66.8548 225.52 66.9948 224.96 66.9948 224.19C66.9948 222.85 66.5398 222.18 65.6298 222.18C65.1598 222.18 64.6998 222.41 64.2498 222.87V225.885ZM73.244 228.585V230.76H71.039V220.56H72.839L73.004 221.31H73.049C73.349 221.04 73.694 220.82 74.084 220.65C74.474 220.47 74.869 220.38 75.269 220.38C75.729 220.38 76.144 220.47 76.514 220.65C76.884 220.83 77.199 221.085 77.459 221.415C77.719 221.745 77.914 222.145 78.044 222.615C78.184 223.075 78.254 223.59 78.254 224.16C78.254 224.8 78.164 225.37 77.984 225.87C77.804 226.36 77.564 226.78 77.264 227.13C76.964 227.47 76.619 227.73 76.229 227.91C75.849 228.09 75.449 228.18 75.029 228.18C74.349 228.18 73.729 227.91 73.169 227.37L73.244 228.585ZM73.244 225.885C73.454 226.065 73.669 226.195 73.889 226.275C74.119 226.345 74.329 226.38 74.519 226.38C74.939 226.38 75.289 226.21 75.569 225.87C75.849 225.52 75.989 224.96 75.989 224.19C75.989 222.85 75.534 222.18 74.624 222.18C74.154 222.18 73.694 222.41 73.244 222.87V225.885ZM89.1323 220.56H94.3223V228H92.1173V222.285H89.1323V220.56ZM93.1223 219.465C92.6923 219.465 92.3373 219.345 92.0573 219.105C91.7873 218.865 91.6523 218.54 91.6523 218.13C91.6523 217.72 91.7873 217.39 92.0573 217.14C92.3373 216.88 92.6923 216.75 93.1223 216.75C93.5523 216.75 93.9023 216.88 94.1723 217.14C94.4523 217.39 94.5923 217.72 94.5923 218.13C94.5923 218.54 94.4523 218.865 94.1723 219.105C93.9023 219.345 93.5523 219.465 93.1223 219.465ZM98.7264 225.66C99.1564 225.93 99.5864 226.145 100.016 226.305C100.456 226.465 100.926 226.545 101.426 226.545C101.936 226.545 102.301 226.49 102.521 226.38C102.741 226.27 102.851 226.115 102.851 225.915C102.851 225.685 102.666 225.5 102.296 225.36C101.936 225.21 101.456 225.05 100.856 224.88C100.526 224.79 100.201 224.685 99.8814 224.565C99.5714 224.435 99.2914 224.285 99.0414 224.115C98.7914 223.935 98.5864 223.73 98.4264 223.5C98.2764 223.27 98.2014 223.005 98.2014 222.705C98.2014 222.365 98.2814 222.05 98.4414 221.76C98.6014 221.47 98.8264 221.225 99.1164 221.025C99.4164 220.825 99.7764 220.67 100.196 220.56C100.626 220.44 101.106 220.38 101.636 220.38C102.296 220.38 102.896 220.49 103.436 220.71C103.986 220.92 104.456 221.15 104.846 221.4L103.856 222.72C103.516 222.52 103.166 222.355 102.806 222.225C102.446 222.085 102.071 222.015 101.681 222.015C101.211 222.015 100.876 222.065 100.676 222.165C100.486 222.265 100.391 222.41 100.391 222.6C100.391 222.71 100.441 222.81 100.541 222.9C100.641 222.99 100.776 223.07 100.946 223.14C101.116 223.21 101.316 223.28 101.546 223.35C101.786 223.41 102.036 223.475 102.296 223.545C102.666 223.645 103.016 223.76 103.346 223.89C103.676 224.01 103.966 224.155 104.216 224.325C104.466 224.495 104.666 224.7 104.816 224.94C104.966 225.18 105.041 225.46 105.041 225.78C105.041 226.12 104.961 226.435 104.801 226.725C104.641 227.015 104.406 227.27 104.096 227.49C103.796 227.7 103.416 227.87 102.956 228C102.506 228.12 101.981 228.18 101.381 228.18C100.711 228.18 100.056 228.07 99.4164 227.85C98.7764 227.63 98.2164 227.36 97.7364 227.04L98.7264 225.66ZM115.755 224.28C115.755 223.67 115.86 223.125 116.07 222.645C116.29 222.165 116.58 221.76 116.94 221.43C117.3 221.09 117.71 220.83 118.17 220.65C118.64 220.47 119.125 220.38 119.625 220.38C120.195 220.38 120.7 220.47 121.14 220.65C121.58 220.83 121.945 221.08 122.235 221.4C122.525 221.72 122.745 222.1 122.895 222.54C123.045 222.97 123.12 223.44 123.12 223.95C123.12 224.15 123.11 224.34 123.09 224.52C123.07 224.7 123.05 224.835 123.03 224.925H118.02C118.1 225.485 118.34 225.89 118.74 226.14C119.15 226.38 119.63 226.5 120.18 226.5C120.52 226.5 120.84 226.46 121.14 226.38C121.45 226.29 121.77 226.16 122.1 225.99L122.82 227.31C122.4 227.58 121.93 227.795 121.41 227.955C120.89 228.105 120.38 228.18 119.88 228.18C119.3 228.18 118.76 228.095 118.26 227.925C117.76 227.745 117.325 227.49 116.955 227.16C116.585 226.82 116.29 226.41 116.07 225.93C115.86 225.45 115.755 224.9 115.755 224.28ZM121.125 223.47C121.125 223.05 121.01 222.71 120.78 222.45C120.55 222.19 120.18 222.06 119.67 222.06C119.27 222.06 118.915 222.175 118.605 222.405C118.295 222.635 118.09 222.99 117.99 223.47H121.125ZM127.059 224.13L124.644 220.56H127.014L127.779 221.76C127.889 221.97 128.014 222.185 128.154 222.405C128.294 222.615 128.429 222.825 128.559 223.035H128.619C128.719 222.825 128.819 222.61 128.919 222.39C129.029 222.17 129.134 221.96 129.234 221.76L129.894 220.56H132.204L129.774 224.385L132.354 228H129.984L129.129 226.77C128.989 226.56 128.844 226.345 128.694 226.125C128.554 225.905 128.414 225.69 128.274 225.48H128.214C128.104 225.69 127.989 225.905 127.869 226.125C127.749 226.335 127.634 226.55 127.524 226.77L126.789 228H124.479L127.059 224.13ZM136.203 228.585V230.76H133.998V220.56H135.798L135.963 221.31H136.008C136.308 221.04 136.653 220.82 137.043 220.65C137.433 220.47 137.828 220.38 138.228 220.38C138.688 220.38 139.103 220.47 139.473 220.65C139.843 220.83 140.158 221.085 140.418 221.415C140.678 221.745 140.873 222.145 141.003 222.615C141.143 223.075 141.213 223.59 141.213 224.16C141.213 224.8 141.123 225.37 140.943 225.87C140.763 226.36 140.523 226.78 140.223 227.13C139.923 227.47 139.578 227.73 139.188 227.91C138.808 228.09 138.408 228.18 137.988 228.18C137.308 228.18 136.688 227.91 136.128 227.37L136.203 228.585ZM136.203 225.885C136.413 226.065 136.628 226.195 136.848 226.275C137.078 226.345 137.288 226.38 137.478 226.38C137.898 226.38 138.248 226.21 138.528 225.87C138.808 225.52 138.948 224.96 138.948 224.19C138.948 222.85 138.493 222.18 137.583 222.18C137.113 222.18 136.653 222.41 136.203 222.87V225.885ZM142.737 224.28C142.737 223.67 142.842 223.125 143.052 222.645C143.272 222.165 143.562 221.76 143.922 221.43C144.282 221.09 144.692 220.83 145.152 220.65C145.622 220.47 146.107 220.38 146.607 220.38C147.177 220.38 147.682 220.47 148.122 220.65C148.562 220.83 148.927 221.08 149.217 221.4C149.507 221.72 149.727 222.1 149.877 222.54C150.027 222.97 150.102 223.44 150.102 223.95C150.102 224.15 150.092 224.34 150.072 224.52C150.052 224.7 150.032 224.835 150.012 224.925H145.002C145.082 225.485 145.322 225.89 145.722 226.14C146.132 226.38 146.612 226.5 147.162 226.5C147.502 226.5 147.822 226.46 148.122 226.38C148.432 226.29 148.752 226.16 149.082 225.99L149.802 227.31C149.382 227.58 148.912 227.795 148.392 227.955C147.872 228.105 147.362 228.18 146.862 228.18C146.282 228.18 145.742 228.095 145.242 227.925C144.742 227.745 144.307 227.49 143.937 227.16C143.567 226.82 143.272 226.41 143.052 225.93C142.842 225.45 142.737 224.9 142.737 224.28ZM148.107 223.47C148.107 223.05 147.992 222.71 147.762 222.45C147.532 222.19 147.162 222.06 146.652 222.06C146.252 222.06 145.897 222.175 145.587 222.405C145.277 222.635 145.072 222.99 144.972 223.47H148.107ZM151.986 220.56H153.786L153.951 221.55H154.011C154.331 221.23 154.696 220.955 155.106 220.725C155.526 220.495 156.016 220.38 156.576 220.38C157.416 220.38 158.031 220.65 158.421 221.19C158.811 221.73 159.006 222.47 159.006 223.41V228H156.801V223.695C156.801 223.195 156.721 222.83 156.561 222.6C156.401 222.37 156.116 222.255 155.706 222.255C155.406 222.255 155.141 222.32 154.911 222.45C154.691 222.58 154.451 222.775 154.191 223.035V228H151.986V220.56ZM161.685 225.66C162.115 225.93 162.545 226.145 162.975 226.305C163.415 226.465 163.885 226.545 164.385 226.545C164.895 226.545 165.26 226.49 165.48 226.38C165.7 226.27 165.81 226.115 165.81 225.915C165.81 225.685 165.625 225.5 165.255 225.36C164.895 225.21 164.415 225.05 163.815 224.88C163.485 224.79 163.16 224.685 162.84 224.565C162.53 224.435 162.25 224.285 162 224.115C161.75 223.935 161.545 223.73 161.385 223.5C161.235 223.27 161.16 223.005 161.16 222.705C161.16 222.365 161.24 222.05 161.4 221.76C161.56 221.47 161.785 221.225 162.075 221.025C162.375 220.825 162.735 220.67 163.155 220.56C163.585 220.44 164.065 220.38 164.595 220.38C165.255 220.38 165.855 220.49 166.395 220.71C166.945 220.92 167.415 221.15 167.805 221.4L166.815 222.72C166.475 222.52 166.125 222.355 165.765 222.225C165.405 222.085 165.03 222.015 164.64 222.015C164.17 222.015 163.835 222.065 163.635 222.165C163.445 222.265 163.35 222.41 163.35 222.6C163.35 222.71 163.4 222.81 163.5 222.9C163.6 222.99 163.735 223.07 163.905 223.14C164.075 223.21 164.275 223.28 164.505 223.35C164.745 223.41 164.995 223.475 165.255 223.545C165.625 223.645 165.975 223.76 166.305 223.89C166.635 224.01 166.925 224.155 167.175 224.325C167.425 224.495 167.625 224.7 167.775 224.94C167.925 225.18 168 225.46 168 225.78C168 226.12 167.92 226.435 167.76 226.725C167.6 227.015 167.365 227.27 167.055 227.49C166.755 227.7 166.375 227.87 165.915 228C165.465 228.12 164.94 228.18 164.34 228.18C163.67 228.18 163.015 228.07 162.375 227.85C161.735 227.63 161.175 227.36 160.695 227.04L161.685 225.66ZM170.08 220.56H175.27V228H173.065V222.285H170.08V220.56ZM174.07 219.465C173.64 219.465 173.285 219.345 173.005 219.105C172.735 218.865 172.6 218.54 172.6 218.13C172.6 217.72 172.735 217.39 173.005 217.14C173.285 216.88 173.64 216.75 174.07 216.75C174.5 216.75 174.85 216.88 175.12 217.14C175.4 217.39 175.54 217.72 175.54 218.13C175.54 218.54 175.4 218.865 175.12 219.105C174.85 219.345 174.5 219.465 174.07 219.465ZM178.354 220.56H180.574L181.744 224.07C181.864 224.45 181.979 224.83 182.089 225.21C182.199 225.59 182.309 225.975 182.419 226.365H182.479C182.589 225.975 182.694 225.59 182.794 225.21C182.904 224.83 183.019 224.45 183.139 224.07L184.309 220.56H186.424L183.694 228H181.159L178.354 220.56ZM187.708 224.28C187.708 223.67 187.813 223.125 188.023 222.645C188.243 222.165 188.533 221.76 188.893 221.43C189.253 221.09 189.663 220.83 190.123 220.65C190.593 220.47 191.078 220.38 191.578 220.38C192.148 220.38 192.653 220.47 193.093 220.65C193.533 220.83 193.898 221.08 194.188 221.4C194.478 221.72 194.698 222.1 194.848 222.54C194.998 222.97 195.073 223.44 195.073 223.95C195.073 224.15 195.063 224.34 195.043 224.52C195.023 224.7 195.003 224.835 194.983 224.925H189.973C190.053 225.485 190.293 225.89 190.693 226.14C191.103 226.38 191.583 226.5 192.133 226.5C192.473 226.5 192.793 226.46 193.093 226.38C193.403 226.29 193.723 226.16 194.053 225.99L194.773 227.31C194.353 227.58 193.883 227.795 193.363 227.955C192.843 228.105 192.333 228.18 191.833 228.18C191.253 228.18 190.713 228.095 190.213 227.925C189.713 227.745 189.278 227.49 188.908 227.16C188.538 226.82 188.243 226.41 188.023 225.93C187.813 225.45 187.708 224.9 187.708 224.28ZM193.078 223.47C193.078 223.05 192.963 222.71 192.733 222.45C192.503 222.19 192.133 222.06 191.623 222.06C191.223 222.06 190.868 222.175 190.558 222.405C190.248 222.635 190.043 222.99 189.943 223.47H193.078ZM199.357 219.945L199.282 217.95H201.472L201.397 219.945L201.097 224.175H199.657L199.357 219.945ZM198.877 226.65C198.877 226.2 199.017 225.84 199.297 225.57C199.587 225.29 199.947 225.15 200.377 225.15C200.807 225.15 201.162 225.29 201.442 225.57C201.732 225.84 201.877 226.2 201.877 226.65C201.877 227.1 201.732 227.47 201.442 227.76C201.162 228.04 200.807 228.18 200.377 228.18C199.947 228.18 199.587 228.04 199.297 227.76C199.017 227.47 198.877 227.1 198.877 226.65ZM10.39 239.08H7.465V237.22H15.535V239.08H12.61V247H10.39V239.08ZM17.7341 239.56H19.5341L19.7141 241.18H19.7591C20.1291 240.57 20.5741 240.12 21.0941 239.83C21.6141 239.53 22.1741 239.38 22.7741 239.38C23.1041 239.38 23.3691 239.405 23.5691 239.455C23.7791 239.505 23.9941 239.58 24.2141 239.68L23.7641 241.525C23.5341 241.455 23.3241 241.405 23.1341 241.375C22.9541 241.335 22.7241 241.315 22.4441 241.315C21.9841 241.315 21.5291 241.45 21.0791 241.72C20.6391 241.99 20.2591 242.46 19.9391 243.13V247H17.7341V239.56ZM32.8633 247H31.0633L30.8983 245.935H30.8383C30.5083 246.315 30.1433 246.62 29.7433 246.85C29.3433 247.07 28.8733 247.18 28.3333 247.18C27.4833 247.18 26.8683 246.91 26.4883 246.37C26.1083 245.83 25.9183 245.09 25.9183 244.15V239.56H28.1233V243.865C28.1233 244.365 28.1983 244.73 28.3483 244.96C28.4983 245.19 28.7833 245.305 29.2033 245.305C29.4833 245.305 29.7283 245.245 29.9383 245.125C30.1583 245.005 30.3983 244.78 30.6583 244.45V239.56H32.8633V247ZM34.8074 243.28C34.8074 242.67 34.9124 242.125 35.1224 241.645C35.3424 241.165 35.6324 240.76 35.9924 240.43C36.3524 240.09 36.7624 239.83 37.2224 239.65C37.6924 239.47 38.1774 239.38 38.6774 239.38C39.2474 239.38 39.7524 239.47 40.1924 239.65C40.6324 239.83 40.9974 240.08 41.2874 240.4C41.5774 240.72 41.7974 241.1 41.9474 241.54C42.0974 241.97 42.1724 242.44 42.1724 242.95C42.1724 243.15 42.1624 243.34 42.1424 243.52C42.1224 243.7 42.1024 243.835 42.0824 243.925H37.0724C37.1524 244.485 37.3924 244.89 37.7924 245.14C38.2024 245.38 38.6824 245.5 39.2324 245.5C39.5724 245.5 39.8924 245.46 40.1924 245.38C40.5024 245.29 40.8224 245.16 41.1524 244.99L41.8724 246.31C41.4524 246.58 40.9824 246.795 40.4624 246.955C39.9424 247.105 39.4324 247.18 38.9324 247.18C38.3524 247.18 37.8124 247.095 37.3124 246.925C36.8124 246.745 36.3774 246.49 36.0074 246.16C35.6374 245.82 35.3424 245.41 35.1224 244.93C34.9124 244.45 34.8074 243.9 34.8074 243.28ZM40.1774 242.47C40.1774 242.05 40.0624 241.71 39.8324 241.45C39.6024 241.19 39.2324 241.06 38.7224 241.06C38.3224 241.06 37.9674 241.175 37.6574 241.405C37.3474 241.635 37.1424 241.99 37.0424 242.47H40.1774Z" fill="white"/>
<path d="M11.5 204.18C10.92 204.18 10.385 204.065 9.895 203.835C9.415 203.595 9 203.255 8.65 202.815C8.31 202.375 8.045 201.84 7.855 201.21C7.665 200.58 7.57 199.865 7.57 199.065C7.57 198.265 7.665 197.555 7.855 196.935C8.045 196.305 8.31 195.78 8.65 195.36C9 194.93 9.415 194.605 9.895 194.385C10.385 194.155 10.92 194.04 11.5 194.04C12.08 194.04 12.61 194.155 13.09 194.385C13.58 194.605 13.995 194.93 14.335 195.36C14.685 195.79 14.955 196.32 15.145 196.95C15.335 197.57 15.43 198.275 15.43 199.065C15.43 199.865 15.335 200.58 15.145 201.21C14.955 201.84 14.685 202.375 14.335 202.815C13.995 203.255 13.58 203.595 13.09 203.835C12.61 204.065 12.08 204.18 11.5 204.18ZM11.5 202.275C12.01 202.275 12.415 201.99 12.715 201.42C13.015 200.84 13.165 200.055 13.165 199.065C13.165 198.085 13.015 197.32 12.715 196.77C12.415 196.22 12.01 195.945 11.5 195.945C10.99 195.945 10.585 196.22 10.285 196.77C9.985 197.32 9.835 198.085 9.835 199.065C9.835 200.055 9.985 200.84 10.285 201.42C10.585 201.99 10.99 202.275 11.5 202.275ZM23.8691 204H22.0691L21.9041 202.935H21.8441C21.5141 203.315 21.1491 203.62 20.7491 203.85C20.3491 204.07 19.8791 204.18 19.3391 204.18C18.4891 204.18 17.8741 203.91 17.4941 203.37C17.1141 202.83 16.9241 202.09 16.9241 201.15V196.56H19.1291V200.865C19.1291 201.365 19.2041 201.73 19.3541 201.96C19.5041 202.19 19.7891 202.305 20.2091 202.305C20.4891 202.305 20.7341 202.245 20.9441 202.125C21.1641 202.005 21.4041 201.78 21.6641 201.45V196.56H23.8691V204ZM27.5983 198.285H25.7233V196.65L27.7033 196.56L27.9883 194.58H29.8033V196.56H32.9533V198.285H29.8033V200.895C29.8033 201.465 29.9283 201.87 30.1783 202.11C30.4283 202.34 30.8233 202.455 31.3633 202.455C31.6533 202.455 31.9183 202.43 32.1583 202.38C32.3983 202.33 32.6283 202.265 32.8483 202.185L33.2383 203.775C32.9083 203.875 32.5383 203.965 32.1283 204.045C31.7283 204.135 31.2883 204.18 30.8083 204.18C30.2183 204.18 29.7183 204.1 29.3083 203.94C28.8983 203.78 28.5633 203.56 28.3033 203.28C28.0533 202.99 27.8733 202.645 27.7633 202.245C27.6533 201.845 27.5983 201.4 27.5983 200.91V198.285ZM37.2674 204.585V206.76H35.0624V196.56H36.8624L37.0274 197.31H37.0724C37.3724 197.04 37.7174 196.82 38.1074 196.65C38.4974 196.47 38.8924 196.38 39.2924 196.38C39.7524 196.38 40.1674 196.47 40.5374 196.65C40.9074 196.83 41.2224 197.085 41.4824 197.415C41.7424 197.745 41.9374 198.145 42.0674 198.615C42.2074 199.075 42.2774 199.59 42.2774 200.16C42.2774 200.8 42.1874 201.37 42.0074 201.87C41.8274 202.36 41.5874 202.78 41.2874 203.13C40.9874 203.47 40.6424 203.73 40.2524 203.91C39.8724 204.09 39.4724 204.18 39.0524 204.18C38.3724 204.18 37.7524 203.91 37.1924 203.37L37.2674 204.585ZM37.2674 201.885C37.4774 202.065 37.6924 202.195 37.9124 202.275C38.1424 202.345 38.3524 202.38 38.5424 202.38C38.9624 202.38 39.3124 202.21 39.5924 201.87C39.8724 201.52 40.0124 200.96 40.0124 200.19C40.0124 198.85 39.5574 198.18 38.6474 198.18C38.1774 198.18 37.7174 198.41 37.2674 198.87V201.885ZM50.8516 204H49.0516L48.8866 202.935H48.8266C48.4966 203.315 48.1316 203.62 47.7316 203.85C47.3316 204.07 46.8616 204.18 46.3216 204.18C45.4716 204.18 44.8566 203.91 44.4766 203.37C44.0966 202.83 43.9066 202.09 43.9066 201.15V196.56H46.1116V200.865C46.1116 201.365 46.1866 201.73 46.3366 201.96C46.4866 202.19 46.7716 202.305 47.1916 202.305C47.4716 202.305 47.7166 202.245 47.9266 202.125C48.1466 202.005 48.3866 201.78 48.6466 201.45V196.56H50.8516V204ZM54.5807 198.285H52.7057V196.65L54.6857 196.56L54.9707 194.58H56.7857V196.56H59.9357V198.285H56.7857V200.895C56.7857 201.465 56.9107 201.87 57.1607 202.11C57.4107 202.34 57.8057 202.455 58.3457 202.455C58.6357 202.455 58.9007 202.43 59.1407 202.38C59.3807 202.33 59.6107 202.265 59.8307 202.185L60.2207 203.775C59.8907 203.875 59.5207 203.965 59.1107 204.045C58.7107 204.135 58.2707 204.18 57.7907 204.18C57.2007 204.18 56.7007 204.1 56.2907 203.94C55.8807 203.78 55.5457 203.56 55.2857 203.28C55.0357 202.99 54.8557 202.645 54.7457 202.245C54.6357 201.845 54.5807 201.4 54.5807 200.91V198.285Z" fill="white"/>
<rect x="79" width="293" height="31" fill="#333333"/>
<rect x="79" width="293" height="31" fill="#333333"/>
<rect x="0.0107117" width="79" height="31" fill="#090808"/>
<path d="M12.1157 17.8101C12.1157 17.5513 11.9863 17.3486 11.7275 17.2021C11.4736 17.0508 11.0634 16.9165 10.497 16.7993C8.61227 16.4038 7.66989 15.603 7.66989 14.397C7.66989 13.6938 7.96042 13.1079 8.54147 12.6392C9.12741 12.1655 9.89157 11.9287 10.834 11.9287C11.8398 11.9287 12.643 12.1655 13.2436 12.6392C13.8491 13.1128 14.1518 13.728 14.1518 14.4849H12.0351C12.0351 14.1821 11.9375 13.9331 11.7422 13.7378C11.5468 13.5376 11.2417 13.4375 10.8266 13.4375C10.4702 13.4375 10.1943 13.5181 9.99899 13.6792C9.80368 13.8403 9.70602 14.0454 9.70602 14.2944C9.70602 14.5288 9.81589 14.7192 10.0356 14.8657C10.2602 15.0073 10.6362 15.1318 11.1635 15.2393C11.6909 15.3418 12.1352 15.459 12.4966 15.5908C13.6147 16.001 14.1738 16.7114 14.1738 17.7222C14.1738 18.4448 13.8637 19.0308 13.2436 19.48C12.6235 19.9243 11.8227 20.1465 10.8413 20.1465C10.1772 20.1465 9.5864 20.0293 9.06882 19.7949C8.55612 19.5557 8.15329 19.231 7.86032 18.8208C7.56735 18.4058 7.42087 17.959 7.42087 17.4805H9.4277C9.44724 17.8564 9.5864 18.1445 9.84518 18.3447C10.104 18.5449 10.4507 18.645 10.8852 18.645C11.2905 18.645 11.5957 18.5693 11.8008 18.418C12.0107 18.2617 12.1157 18.0591 12.1157 17.8101ZM18.8393 18.4399C19.2299 18.4399 19.5473 18.3325 19.7915 18.1177C20.0356 17.9028 20.1626 17.6172 20.1723 17.2607H22.1572C22.1523 17.7979 22.0058 18.291 21.7177 18.7402C21.4297 19.1846 21.0341 19.5312 20.5312 19.7803C20.0332 20.0244 19.4814 20.1465 18.8759 20.1465C17.7431 20.1465 16.8496 19.7876 16.1953 19.0698C15.541 18.3472 15.2138 17.3511 15.2138 16.0815V15.9424C15.2138 14.7217 15.5385 13.7476 16.188 13.02C16.8374 12.2925 17.7285 11.9287 18.8613 11.9287C19.8525 11.9287 20.646 12.2119 21.2417 12.7783C21.8423 13.3398 22.1474 14.0894 22.1572 15.0269H20.1723C20.1626 14.6167 20.0356 14.2847 19.7915 14.0308C19.5473 13.772 19.2251 13.6426 18.8247 13.6426C18.3315 13.6426 17.958 13.8232 17.7041 14.1846C17.455 14.541 17.3305 15.1221 17.3305 15.9277V16.1475C17.3305 16.9629 17.455 17.5488 17.7041 17.9053C17.9531 18.2617 18.3315 18.4399 18.8393 18.4399ZM27.8188 14.0601C27.5307 14.021 27.2768 14.0015 27.0571 14.0015C26.2563 14.0015 25.7314 14.2725 25.4824 14.8145V20H23.3657V12.0752H25.3652L25.4238 13.02C25.8486 12.2925 26.437 11.9287 27.1889 11.9287C27.4233 11.9287 27.643 11.9604 27.8481 12.0239L27.8188 14.0601ZM31.0781 20H28.9541V12.0752H31.0781V20ZM28.8296 10.0244C28.8296 9.70703 28.9345 9.4458 29.1445 9.24072C29.3593 9.03564 29.6499 8.93311 30.0161 8.93311C30.3774 8.93311 30.6655 9.03564 30.8803 9.24072C31.0952 9.4458 31.2026 9.70703 31.2026 10.0244C31.2026 10.3467 31.0927 10.6104 30.873 10.8154C30.6582 11.0205 30.3725 11.123 30.0161 11.123C29.6596 11.123 29.3716 11.0205 29.1518 10.8154C28.937 10.6104 28.8296 10.3467 28.8296 10.0244ZM39.9624 16.1108C39.9624 17.3315 39.6841 18.3105 39.1274 19.0479C38.5757 19.7803 37.8286 20.1465 36.8862 20.1465C36.0854 20.1465 35.4384 19.8682 34.9453 19.3115V23.0469H32.8286V12.0752H34.7915L34.8647 12.8516C35.3774 12.2363 36.0464 11.9287 36.8716 11.9287C37.8481 11.9287 38.6074 12.29 39.1494 13.0127C39.6914 13.7354 39.9624 14.7314 39.9624 16.001V16.1108ZM37.8457 15.957C37.8457 15.2197 37.7138 14.6509 37.4502 14.2505C37.1914 13.8501 36.813 13.6499 36.3149 13.6499C35.6508 13.6499 35.1943 13.9038 34.9453 14.4116V17.6562C35.2041 18.1787 35.6655 18.4399 36.3296 18.4399C37.3403 18.4399 37.8457 17.6123 37.8457 15.957ZM43.8149 10.127V12.0752H45.1699V13.6279H43.8149V17.583C43.8149 17.876 43.8711 18.0859 43.9834 18.2129C44.0957 18.3398 44.3105 18.4033 44.6279 18.4033C44.8623 18.4033 45.0698 18.3862 45.2505 18.3521V19.9561C44.8354 20.083 44.4082 20.1465 43.9687 20.1465C42.4843 20.1465 41.7275 19.397 41.6982 17.8979V13.6279H40.541V12.0752H41.6982V10.127H43.8149ZM46.459 18.96C46.459 18.623 46.5713 18.3496 46.7959 18.1396C47.0254 17.9297 47.311 17.8247 47.6528 17.8247C47.9995 17.8247 48.2851 17.9297 48.5097 18.1396C48.7392 18.3496 48.854 18.623 48.854 18.96C48.854 19.292 48.7417 19.563 48.5171 19.7729C48.2924 19.978 48.0044 20.0806 47.6528 20.0806C47.3061 20.0806 47.0205 19.978 46.7959 19.7729C46.5713 19.563 46.459 19.292 46.459 18.96ZM57.8481 16.1108C57.8481 17.3315 57.5698 18.3105 57.0132 19.0479C56.4614 19.7803 55.7143 20.1465 54.7719 20.1465C53.9712 20.1465 53.3242 19.8682 52.831 19.3115V23.0469H50.7143V12.0752H52.6772L52.7505 12.8516C53.2632 12.2363 53.9321 11.9287 54.7573 11.9287C55.7339 11.9287 56.4931 12.29 57.0351 13.0127C57.5771 13.7354 57.8481 14.7314 57.8481 16.001V16.1108ZM55.7314 15.957C55.7314 15.2197 55.5996 14.6509 55.3359 14.2505C55.0771 13.8501 54.6987 13.6499 54.2007 13.6499C53.5366 13.6499 53.08 13.9038 52.831 14.4116V17.6562C53.0898 18.1787 53.5512 18.4399 54.2153 18.4399C55.226 18.4399 55.7314 17.6123 55.7314 15.957ZM62.0376 17.0044L63.5024 12.0752H65.7729L62.5869 21.2305L62.4111 21.6479C61.9375 22.6831 61.1562 23.2007 60.0674 23.2007C59.7597 23.2007 59.4472 23.1543 59.1299 23.0615V21.4575L59.4521 21.4648C59.8525 21.4648 60.1504 21.4038 60.3457 21.2817C60.5459 21.1597 60.7021 20.957 60.8144 20.6738L61.0634 20.022L58.2876 12.0752H60.5654L62.0376 17.0044Z" fill="white"/>
<line y1="188.5" x2="372" y2="188.5" stroke="white"/>
<path d="M7.92571 48.93C7.92571 48.51 8.01571 48.145 8.19571 47.835C8.37571 47.515 8.66071 47.245 9.05071 47.025C9.45071 46.805 9.96071 46.63 10.5807 46.5C11.2007 46.36 11.9507 46.265 12.8307 46.215C12.7907 45.875 12.6407 45.61 12.3807 45.42C12.1307 45.23 11.7507 45.135 11.2407 45.135C10.8807 45.135 10.5157 45.2 10.1457 45.33C9.78571 45.45 9.39571 45.615 8.97571 45.825L8.19571 44.385C8.70571 44.095 9.25071 43.855 9.83071 43.665C10.4207 43.475 11.0357 43.38 11.6757 43.38C12.7157 43.38 13.5357 43.655 14.1357 44.205C14.7357 44.755 15.0357 45.6 15.0357 46.74V51H13.2357L13.0707 50.16H13.0107C12.6307 50.45 12.2157 50.695 11.7657 50.895C11.3157 51.085 10.8507 51.18 10.3707 51.18C9.99071 51.18 9.65071 51.12 9.35071 51C9.05071 50.89 8.79571 50.735 8.58571 50.535C8.37571 50.325 8.21071 50.085 8.09071 49.815C7.98071 49.545 7.92571 49.25 7.92571 48.93ZM10.0407 48.765C10.0407 49.005 10.1307 49.185 10.3107 49.305C10.5007 49.415 10.7557 49.47 11.0757 49.47C11.4057 49.47 11.7157 49.405 12.0057 49.275C12.2957 49.135 12.5707 48.965 12.8307 48.765V47.535C12.2807 47.565 11.8257 47.615 11.4657 47.685C11.1057 47.755 10.8207 47.845 10.6107 47.955C10.4007 48.055 10.2507 48.175 10.1607 48.315C10.0807 48.455 10.0407 48.605 10.0407 48.765ZM19.2899 51.585V53.76H17.0849V43.56H18.8849L19.0499 44.31H19.0949C19.3949 44.04 19.7399 43.82 20.1299 43.65C20.5199 43.47 20.9149 43.38 21.3149 43.38C21.7749 43.38 22.1899 43.47 22.5599 43.65C22.9299 43.83 23.2449 44.085 23.5049 44.415C23.7649 44.745 23.9599 45.145 24.0899 45.615C24.2299 46.075 24.2999 46.59 24.2999 47.16C24.2999 47.8 24.2099 48.37 24.0299 48.87C23.8499 49.36 23.6099 49.78 23.3099 50.13C23.0099 50.47 22.6649 50.73 22.2749 50.91C21.8949 51.09 21.4949 51.18 21.0749 51.18C20.3949 51.18 19.7749 50.91 19.2149 50.37L19.2899 51.585ZM19.2899 48.885C19.4999 49.065 19.7149 49.195 19.9349 49.275C20.1649 49.345 20.3749 49.38 20.5649 49.38C20.9849 49.38 21.3349 49.21 21.6149 48.87C21.8949 48.52 22.0349 47.96 22.0349 47.19C22.0349 45.85 21.5799 45.18 20.6699 45.18C20.1999 45.18 19.7399 45.41 19.2899 45.87V48.885ZM28.284 51.585V53.76H26.079V43.56H27.879L28.044 44.31H28.089C28.389 44.04 28.734 43.82 29.124 43.65C29.514 43.47 29.909 43.38 30.309 43.38C30.769 43.38 31.184 43.47 31.554 43.65C31.924 43.83 32.239 44.085 32.499 44.415C32.759 44.745 32.954 45.145 33.084 45.615C33.224 46.075 33.294 46.59 33.294 47.16C33.294 47.8 33.204 48.37 33.024 48.87C32.844 49.36 32.604 49.78 32.304 50.13C32.004 50.47 31.659 50.73 31.269 50.91C30.889 51.09 30.489 51.18 30.069 51.18C29.389 51.18 28.769 50.91 28.209 50.37L28.284 51.585ZM28.284 48.885C28.494 49.065 28.709 49.195 28.929 49.275C29.159 49.345 29.369 49.38 29.559 49.38C29.979 49.38 30.329 49.21 30.609 48.87C30.889 48.52 31.029 47.96 31.029 47.19C31.029 45.85 30.574 45.18 29.664 45.18C29.194 45.18 28.734 45.41 28.284 45.87V48.885ZM42.0931 51.81V53.46H34.8931V51.81H42.0931ZM44.0673 43.56H45.8673L46.0323 44.55H46.0923C46.4123 44.23 46.7773 43.955 47.1873 43.725C47.6073 43.495 48.0973 43.38 48.6573 43.38C49.4973 43.38 50.1123 43.65 50.5023 44.19C50.8923 44.73 51.0873 45.47 51.0873 46.41V51H48.8823V46.695C48.8823 46.195 48.8023 45.83 48.6423 45.6C48.4823 45.37 48.1973 45.255 47.7873 45.255C47.4873 45.255 47.2223 45.32 46.9923 45.45C46.7723 45.58 46.5323 45.775 46.2723 46.035V51H44.0673V43.56ZM52.8964 48.93C52.8964 48.51 52.9864 48.145 53.1664 47.835C53.3464 47.515 53.6314 47.245 54.0214 47.025C54.4214 46.805 54.9314 46.63 55.5514 46.5C56.1714 46.36 56.9214 46.265 57.8014 46.215C57.7614 45.875 57.6114 45.61 57.3514 45.42C57.1014 45.23 56.7214 45.135 56.2114 45.135C55.8514 45.135 55.4864 45.2 55.1164 45.33C54.7564 45.45 54.3664 45.615 53.9464 45.825L53.1664 44.385C53.6764 44.095 54.2214 43.855 54.8014 43.665C55.3914 43.475 56.0064 43.38 56.6464 43.38C57.6864 43.38 58.5064 43.655 59.1064 44.205C59.7064 44.755 60.0064 45.6 60.0064 46.74V51H58.2064L58.0414 50.16H57.9814C57.6014 50.45 57.1864 50.695 56.7364 50.895C56.2864 51.085 55.8214 51.18 55.3414 51.18C54.9614 51.18 54.6214 51.12 54.3214 51C54.0214 50.89 53.7664 50.735 53.5564 50.535C53.3464 50.325 53.1814 50.085 53.0614 49.815C52.9514 49.545 52.8964 49.25 52.8964 48.93ZM55.0114 48.765C55.0114 49.005 55.1014 49.185 55.2814 49.305C55.4714 49.415 55.7264 49.47 56.0464 49.47C56.3764 49.47 56.6864 49.405 56.9764 49.275C57.2664 49.135 57.5414 48.965 57.8014 48.765V47.535C57.2514 47.565 56.7964 47.615 56.4364 47.685C56.0764 47.755 55.7914 47.845 55.5814 47.955C55.3714 48.055 55.2214 48.175 55.1314 48.315C55.0514 48.455 55.0114 48.605 55.0114 48.765ZM61.5156 43.56H63.1656L63.3306 44.49H63.3906C63.5306 44.18 63.7206 43.92 63.9606 43.71C64.2106 43.49 64.5506 43.38 64.9806 43.38C65.3106 43.38 65.5856 43.485 65.8056 43.695C66.0356 43.895 66.1956 44.195 66.2856 44.595C66.4256 44.255 66.6256 43.97 66.8856 43.74C67.1556 43.5 67.5006 43.38 67.9206 43.38C68.4406 43.38 68.8456 43.595 69.1356 44.025C69.4256 44.445 69.5706 45.03 69.5706 45.78V51H67.5006V45.945C67.5006 45.485 67.3606 45.255 67.0806 45.255C66.8106 45.255 66.5806 45.495 66.3906 45.975V51H64.6956V45.945C64.6956 45.485 64.5506 45.255 64.2606 45.255C64.1206 45.255 64.0006 45.315 63.9006 45.435C63.8006 45.555 63.6956 45.735 63.5856 45.975V51H61.5156V43.56ZM70.7947 47.28C70.7947 46.67 70.8997 46.125 71.1097 45.645C71.3297 45.165 71.6197 44.76 71.9797 44.43C72.3397 44.09 72.7497 43.83 73.2097 43.65C73.6797 43.47 74.1647 43.38 74.6647 43.38C75.2347 43.38 75.7397 43.47 76.1797 43.65C76.6197 43.83 76.9847 44.08 77.2747 44.4C77.5647 44.72 77.7847 45.1 77.9347 45.54C78.0847 45.97 78.1597 46.44 78.1597 46.95C78.1597 47.15 78.1497 47.34 78.1297 47.52C78.1097 47.7 78.0897 47.835 78.0697 47.925H73.0597C73.1397 48.485 73.3797 48.89 73.7797 49.14C74.1897 49.38 74.6697 49.5 75.2197 49.5C75.5597 49.5 75.8797 49.46 76.1797 49.38C76.4897 49.29 76.8097 49.16 77.1397 48.99L77.8597 50.31C77.4397 50.58 76.9697 50.795 76.4497 50.955C75.9297 51.105 75.4197 51.18 74.9197 51.18C74.3397 51.18 73.7997 51.095 73.2997 50.925C72.7997 50.745 72.3647 50.49 71.9947 50.16C71.6247 49.82 71.3297 49.41 71.1097 48.93C70.8997 48.45 70.7947 47.9 70.7947 47.28ZM76.1647 46.47C76.1647 46.05 76.0497 45.71 75.8197 45.45C75.5897 45.19 75.2197 45.06 74.7097 45.06C74.3097 45.06 73.9547 45.175 73.6447 45.405C73.3347 45.635 73.1297 45.99 73.0297 46.47H76.1647ZM89.008 43.53H95.908V45.09H89.008V43.53ZM89.008 46.995H95.908V48.555H89.008V46.995ZM7.92571 67.93C7.92571 67.51 8.01571 67.145 8.19571 66.835C8.37571 66.515 8.66071 66.245 9.05071 66.025C9.45071 65.805 9.96071 65.63 10.5807 65.5C11.2007 65.36 11.9507 65.265 12.8307 65.215C12.7907 64.875 12.6407 64.61 12.3807 64.42C12.1307 64.23 11.7507 64.135 11.2407 64.135C10.8807 64.135 10.5157 64.2 10.1457 64.33C9.78571 64.45 9.39571 64.615 8.97571 64.825L8.19571 63.385C8.70571 63.095 9.25071 62.855 9.83071 62.665C10.4207 62.475 11.0357 62.38 11.6757 62.38C12.7157 62.38 13.5357 62.655 14.1357 63.205C14.7357 63.755 15.0357 64.6 15.0357 65.74V70H13.2357L13.0707 69.16H13.0107C12.6307 69.45 12.2157 69.695 11.7657 69.895C11.3157 70.085 10.8507 70.18 10.3707 70.18C9.99071 70.18 9.65071 70.12 9.35071 70C9.05071 69.89 8.79571 69.735 8.58571 69.535C8.37571 69.325 8.21071 69.085 8.09071 68.815C7.98071 68.545 7.92571 68.25 7.92571 67.93ZM10.0407 67.765C10.0407 68.005 10.1307 68.185 10.3107 68.305C10.5007 68.415 10.7557 68.47 11.0757 68.47C11.4057 68.47 11.7157 68.405 12.0057 68.275C12.2957 68.135 12.5707 67.965 12.8307 67.765V66.535C12.2807 66.565 11.8257 66.615 11.4657 66.685C11.1057 66.755 10.8207 66.845 10.6107 66.955C10.4007 67.055 10.2507 67.175 10.1607 67.315C10.0807 67.455 10.0407 67.605 10.0407 67.765ZM19.2899 70.585V72.76H17.0849V62.56H18.8849L19.0499 63.31H19.0949C19.3949 63.04 19.7399 62.82 20.1299 62.65C20.5199 62.47 20.9149 62.38 21.3149 62.38C21.7749 62.38 22.1899 62.47 22.5599 62.65C22.9299 62.83 23.2449 63.085 23.5049 63.415C23.7649 63.745 23.9599 64.145 24.0899 64.615C24.2299 65.075 24.2999 65.59 24.2999 66.16C24.2999 66.8 24.2099 67.37 24.0299 67.87C23.8499 68.36 23.6099 68.78 23.3099 69.13C23.0099 69.47 22.6649 69.73 22.2749 69.91C21.8949 70.09 21.4949 70.18 21.0749 70.18C20.3949 70.18 19.7749 69.91 19.2149 69.37L19.2899 70.585ZM19.2899 67.885C19.4999 68.065 19.7149 68.195 19.9349 68.275C20.1649 68.345 20.3749 68.38 20.5649 68.38C20.9849 68.38 21.3349 68.21 21.6149 67.87C21.8949 67.52 22.0349 66.96 22.0349 66.19C22.0349 64.85 21.5799 64.18 20.6699 64.18C20.1999 64.18 19.7399 64.41 19.2899 64.87V67.885ZM28.284 70.585V72.76H26.079V62.56H27.879L28.044 63.31H28.089C28.389 63.04 28.734 62.82 29.124 62.65C29.514 62.47 29.909 62.38 30.309 62.38C30.769 62.38 31.184 62.47 31.554 62.65C31.924 62.83 32.239 63.085 32.499 63.415C32.759 63.745 32.954 64.145 33.084 64.615C33.224 65.075 33.294 65.59 33.294 66.16C33.294 66.8 33.204 67.37 33.024 67.87C32.844 68.36 32.604 68.78 32.304 69.13C32.004 69.47 31.659 69.73 31.269 69.91C30.889 70.09 30.489 70.18 30.069 70.18C29.389 70.18 28.769 69.91 28.209 69.37L28.284 70.585ZM28.284 67.885C28.494 68.065 28.709 68.195 28.929 68.275C29.159 68.345 29.369 68.38 29.559 68.38C29.979 68.38 30.329 68.21 30.609 67.87C30.889 67.52 31.029 66.96 31.029 66.19C31.029 64.85 30.574 64.18 29.664 64.18C29.194 64.18 28.734 64.41 28.284 64.87V67.885ZM42.0931 70.81V72.46H34.8931V70.81H42.0931ZM46.2723 70.585V72.76H44.0673V62.56H45.8673L46.0323 63.31H46.0773C46.3773 63.04 46.7223 62.82 47.1123 62.65C47.5023 62.47 47.8973 62.38 48.2973 62.38C48.7573 62.38 49.1723 62.47 49.5423 62.65C49.9123 62.83 50.2273 63.085 50.4873 63.415C50.7473 63.745 50.9423 64.145 51.0723 64.615C51.2123 65.075 51.2823 65.59 51.2823 66.16C51.2823 66.8 51.1923 67.37 51.0123 67.87C50.8323 68.36 50.5923 68.78 50.2923 69.13C49.9923 69.47 49.6473 69.73 49.2573 69.91C48.8773 70.09 48.4773 70.18 48.0573 70.18C47.3773 70.18 46.7573 69.91 46.1973 69.37L46.2723 70.585ZM46.2723 67.885C46.4823 68.065 46.6973 68.195 46.9173 68.275C47.1473 68.345 47.3573 68.38 47.5473 68.38C47.9673 68.38 48.3173 68.21 48.5973 67.87C48.8773 67.52 49.0173 66.96 49.0173 66.19C49.0173 64.85 48.5623 64.18 47.6523 64.18C47.1823 64.18 46.7223 64.41 46.2723 64.87V67.885ZM53.7214 62.56H55.5214L55.7014 64.18H55.7464C56.1164 63.57 56.5614 63.12 57.0814 62.83C57.6014 62.53 58.1614 62.38 58.7614 62.38C59.0914 62.38 59.3564 62.405 59.5564 62.455C59.7664 62.505 59.9814 62.58 60.2014 62.68L59.7514 64.525C59.5214 64.455 59.3114 64.405 59.1214 64.375C58.9414 64.335 58.7114 64.315 58.4314 64.315C57.9714 64.315 57.5164 64.45 57.0664 64.72C56.6264 64.99 56.2464 65.46 55.9264 66.13V70H53.7214V62.56ZM62.1606 62.56H67.3506V70H65.1456V64.285H62.1606V62.56ZM66.1506 61.465C65.7206 61.465 65.3656 61.345 65.0856 61.105C64.8156 60.865 64.6806 60.54 64.6806 60.13C64.6806 59.72 64.8156 59.39 65.0856 59.14C65.3656 58.88 65.7206 58.75 66.1506 58.75C66.5806 58.75 66.9306 58.88 67.2006 59.14C67.4806 59.39 67.6206 59.72 67.6206 60.13C67.6206 60.54 67.4806 60.865 67.2006 61.105C66.9306 61.345 66.5806 61.465 66.1506 61.465ZM70.9747 66.28C70.9747 65.66 71.0897 65.11 71.3197 64.63C71.5597 64.14 71.8747 63.73 72.2647 63.4C72.6647 63.07 73.1247 62.82 73.6447 62.65C74.1647 62.47 74.7097 62.38 75.2797 62.38C75.8697 62.38 76.3997 62.475 76.8697 62.665C77.3497 62.855 77.7497 63.095 78.0697 63.385L77.0497 64.75C76.4997 64.36 75.9497 64.165 75.3997 64.165C74.7597 64.165 74.2397 64.355 73.8397 64.735C73.4397 65.115 73.2397 65.63 73.2397 66.28C73.2397 66.93 73.4297 67.445 73.8097 67.825C74.1997 68.205 74.7047 68.395 75.3247 68.395C75.7147 68.395 76.0747 68.325 76.4047 68.185C76.7347 68.045 77.0297 67.88 77.2897 67.69L78.1897 69.085C77.7397 69.465 77.2397 69.745 76.6897 69.925C76.1497 70.095 75.6247 70.18 75.1147 70.18C74.5247 70.18 73.9797 70.095 73.4797 69.925C72.9797 69.745 72.5397 69.49 72.1597 69.16C71.7897 68.83 71.4997 68.425 71.2897 67.945C71.0797 67.455 70.9747 66.9 70.9747 66.28ZM79.7888 66.28C79.7888 65.67 79.8938 65.125 80.1038 64.645C80.3238 64.165 80.6138 63.76 80.9738 63.43C81.3338 63.09 81.7438 62.83 82.2038 62.65C82.6738 62.47 83.1588 62.38 83.6588 62.38C84.2288 62.38 84.7338 62.47 85.1738 62.65C85.6138 62.83 85.9788 63.08 86.2688 63.4C86.5588 63.72 86.7788 64.1 86.9288 64.54C87.0788 64.97 87.1538 65.44 87.1538 65.95C87.1538 66.15 87.1438 66.34 87.1238 66.52C87.1038 66.7 87.0838 66.835 87.0638 66.925H82.0538C82.1338 67.485 82.3738 67.89 82.7738 68.14C83.1838 68.38 83.6638 68.5 84.2138 68.5C84.5538 68.5 84.8738 68.46 85.1738 68.38C85.4838 68.29 85.8038 68.16 86.1338 67.99L86.8538 69.31C86.4338 69.58 85.9638 69.795 85.4438 69.955C84.9238 70.105 84.4138 70.18 83.9138 70.18C83.3338 70.18 82.7938 70.095 82.2938 69.925C81.7938 69.745 81.3588 69.49 80.9888 69.16C80.6188 68.82 80.3238 68.41 80.1038 67.93C79.8938 67.45 79.7888 66.9 79.7888 66.28ZM85.1588 65.47C85.1588 65.05 85.0438 64.71 84.8138 64.45C84.5838 64.19 84.2138 64.06 83.7038 64.06C83.3038 64.06 82.9488 64.175 82.6388 64.405C82.3288 64.635 82.1238 64.99 82.0238 65.47H85.1588ZM98.0021 62.53H104.902V64.09H98.0021V62.53ZM98.0021 65.995H104.902V67.555H98.0021V65.995ZM34.9081 104.93C34.9081 104.51 34.9981 104.145 35.1781 103.835C35.3581 103.515 35.6431 103.245 36.0331 103.025C36.4331 102.805 36.9431 102.63 37.5631 102.5C38.1831 102.36 38.9331 102.265 39.8131 102.215C39.7731 101.875 39.6231 101.61 39.3631 101.42C39.1131 101.23 38.7331 101.135 38.2231 101.135C37.8631 101.135 37.4981 101.2 37.1281 101.33C36.7681 101.45 36.3781 101.615 35.9581 101.825L35.1781 100.385C35.6881 100.095 36.2331 99.855 36.8131 99.665C37.4031 99.475 38.0181 99.38 38.6581 99.38C39.6981 99.38 40.5181 99.655 41.1181 100.205C41.7181 100.755 42.0181 101.6 42.0181 102.74V107H40.2181L40.0531 106.16H39.9931C39.6131 106.45 39.1981 106.695 38.7481 106.895C38.2981 107.085 37.8331 107.18 37.3531 107.18C36.9731 107.18 36.6331 107.12 36.3331 107C36.0331 106.89 35.7781 106.735 35.5681 106.535C35.3581 106.325 35.1931 106.085 35.0731 105.815C34.9631 105.545 34.9081 105.25 34.9081 104.93ZM37.0231 104.765C37.0231 105.005 37.1131 105.185 37.2931 105.305C37.4831 105.415 37.7381 105.47 38.0581 105.47C38.3881 105.47 38.6981 105.405 38.9881 105.275C39.2781 105.135 39.5531 104.965 39.8131 104.765V103.535C39.2631 103.565 38.8081 103.615 38.4481 103.685C38.0881 103.755 37.8031 103.845 37.5931 103.955C37.3831 104.055 37.2331 104.175 37.1431 104.315C37.0631 104.455 37.0231 104.605 37.0231 104.765ZM46.2723 107.585V109.76H44.0673V99.56H45.8673L46.0323 100.31H46.0773C46.3773 100.04 46.7223 99.82 47.1123 99.65C47.5023 99.47 47.8973 99.38 48.2973 99.38C48.7573 99.38 49.1723 99.47 49.5423 99.65C49.9123 99.83 50.2273 100.085 50.4873 100.415C50.7473 100.745 50.9423 101.145 51.0723 101.615C51.2123 102.075 51.2823 102.59 51.2823 103.16C51.2823 103.8 51.1923 104.37 51.0123 104.87C50.8323 105.36 50.5923 105.78 50.2923 106.13C49.9923 106.47 49.6473 106.73 49.2573 106.91C48.8773 107.09 48.4773 107.18 48.0573 107.18C47.3773 107.18 46.7573 106.91 46.1973 106.37L46.2723 107.585ZM46.2723 104.885C46.4823 105.065 46.6973 105.195 46.9173 105.275C47.1473 105.345 47.3573 105.38 47.5473 105.38C47.9673 105.38 48.3173 105.21 48.5973 104.87C48.8773 104.52 49.0173 103.96 49.0173 103.19C49.0173 101.85 48.5623 101.18 47.6523 101.18C47.1823 101.18 46.7223 101.41 46.2723 101.87V104.885ZM55.2664 107.585V109.76H53.0614V99.56H54.8614L55.0264 100.31H55.0714C55.3714 100.04 55.7164 99.82 56.1064 99.65C56.4964 99.47 56.8914 99.38 57.2914 99.38C57.7514 99.38 58.1664 99.47 58.5364 99.65C58.9064 99.83 59.2214 100.085 59.4814 100.415C59.7414 100.745 59.9364 101.145 60.0664 101.615C60.2064 102.075 60.2764 102.59 60.2764 103.16C60.2764 103.8 60.1864 104.37 60.0064 104.87C59.8264 105.36 59.5864 105.78 59.2864 106.13C58.9864 106.47 58.6414 106.73 58.2514 106.91C57.8714 107.09 57.4714 107.18 57.0514 107.18C56.3714 107.18 55.7514 106.91 55.1914 106.37L55.2664 107.585ZM55.2664 104.885C55.4764 105.065 55.6914 105.195 55.9114 105.275C56.1414 105.345 56.3514 105.38 56.5414 105.38C56.9614 105.38 57.3114 105.21 57.5914 104.87C57.8714 104.52 58.0114 103.96 58.0114 103.19C58.0114 101.85 57.5564 101.18 56.6464 101.18C56.1764 101.18 55.7164 101.41 55.2664 101.87V104.885ZM69.0756 107.81V109.46H61.8756V107.81H69.0756ZM73.2547 107.585V109.76H71.0497V99.56H72.8497L73.0147 100.31H73.0597C73.3597 100.04 73.7047 99.82 74.0947 99.65C74.4847 99.47 74.8797 99.38 75.2797 99.38C75.7397 99.38 76.1547 99.47 76.5247 99.65C76.8947 99.83 77.2097 100.085 77.4697 100.415C77.7297 100.745 77.9247 101.145 78.0547 101.615C78.1947 102.075 78.2647 102.59 78.2647 103.16C78.2647 103.8 78.1747 104.37 77.9947 104.87C77.8147 105.36 77.5747 105.78 77.2747 106.13C76.9747 106.47 76.6297 106.73 76.2397 106.91C75.8597 107.09 75.4597 107.18 75.0397 107.18C74.3597 107.18 73.7397 106.91 73.1797 106.37L73.2547 107.585ZM73.2547 104.885C73.4647 105.065 73.6797 105.195 73.8997 105.275C74.1297 105.345 74.3397 105.38 74.5297 105.38C74.9497 105.38 75.2997 105.21 75.5797 104.87C75.8597 104.52 75.9997 103.96 75.9997 103.19C75.9997 101.85 75.5447 101.18 74.6347 101.18C74.1647 101.18 73.7047 101.41 73.2547 101.87V104.885ZM80.7038 99.56H82.5038L82.6838 101.18H82.7288C83.0988 100.57 83.5438 100.12 84.0638 99.83C84.5838 99.53 85.1438 99.38 85.7438 99.38C86.0738 99.38 86.3388 99.405 86.5388 99.455C86.7488 99.505 86.9638 99.58 87.1838 99.68L86.7338 101.525C86.5038 101.455 86.2938 101.405 86.1038 101.375C85.9238 101.335 85.6938 101.315 85.4138 101.315C84.9538 101.315 84.4988 101.45 84.0488 101.72C83.6088 101.99 83.2288 102.46 82.9088 103.13V107H80.7038V99.56ZM89.143 99.56H94.333V107H92.128V101.285H89.143V99.56ZM93.133 98.465C92.703 98.465 92.348 98.345 92.068 98.105C91.798 97.865 91.663 97.54 91.663 97.13C91.663 96.72 91.798 96.39 92.068 96.14C92.348 95.88 92.703 95.75 93.133 95.75C93.563 95.75 93.913 95.88 94.183 96.14C94.463 96.39 94.603 96.72 94.603 97.13C94.603 97.54 94.463 97.865 94.183 98.105C93.913 98.345 93.563 98.465 93.133 98.465ZM97.9571 103.28C97.9571 102.66 98.0721 102.11 98.3021 101.63C98.5421 101.14 98.8571 100.73 99.2471 100.4C99.6471 100.07 100.107 99.82 100.627 99.65C101.147 99.47 101.692 99.38 102.262 99.38C102.852 99.38 103.382 99.475 103.852 99.665C104.332 99.855 104.732 100.095 105.052 100.385L104.032 101.75C103.482 101.36 102.932 101.165 102.382 101.165C101.742 101.165 101.222 101.355 100.822 101.735C100.422 102.115 100.222 102.63 100.222 103.28C100.222 103.93 100.412 104.445 100.792 104.825C101.182 105.205 101.687 105.395 102.307 105.395C102.697 105.395 103.057 105.325 103.387 105.185C103.717 105.045 104.012 104.88 104.272 104.69L105.172 106.085C104.722 106.465 104.222 106.745 103.672 106.925C103.132 107.095 102.607 107.18 102.097 107.18C101.507 107.18 100.962 107.095 100.462 106.925C99.9621 106.745 99.5221 106.49 99.1421 106.16C98.7721 105.83 98.4821 105.425 98.2721 104.945C98.0621 104.455 97.9571 103.9 97.9571 103.28ZM106.771 103.28C106.771 102.67 106.876 102.125 107.086 101.645C107.306 101.165 107.596 100.76 107.956 100.43C108.316 100.09 108.726 99.83 109.186 99.65C109.656 99.47 110.141 99.38 110.641 99.38C111.211 99.38 111.716 99.47 112.156 99.65C112.596 99.83 112.961 100.08 113.251 100.4C113.541 100.72 113.761 101.1 113.911 101.54C114.061 101.97 114.136 102.44 114.136 102.95C114.136 103.15 114.126 103.34 114.106 103.52C114.086 103.7 114.066 103.835 114.046 103.925H109.036C109.116 104.485 109.356 104.89 109.756 105.14C110.166 105.38 110.646 105.5 111.196 105.5C111.536 105.5 111.856 105.46 112.156 105.38C112.466 105.29 112.786 105.16 113.116 104.99L113.836 106.31C113.416 106.58 112.946 106.795 112.426 106.955C111.906 107.105 111.396 107.18 110.896 107.18C110.316 107.18 109.776 107.095 109.276 106.925C108.776 106.745 108.341 106.49 107.971 106.16C107.601 105.82 107.306 105.41 107.086 104.93C106.876 104.45 106.771 103.9 106.771 103.28ZM112.141 102.47C112.141 102.05 112.026 101.71 111.796 101.45C111.566 101.19 111.196 101.06 110.686 101.06C110.286 101.06 109.931 101.175 109.621 101.405C109.311 101.635 109.106 101.99 109.006 102.47H112.141ZM131.195 102.785L125.405 106.535V104.54L129.38 102.05V101.99L125.405 99.5V97.505L131.195 101.255V102.785ZM162.671 100.58C162.671 100.33 162.711 100.1 162.791 99.89C162.881 99.67 163.001 99.48 163.151 99.32C163.301 99.16 163.481 99.035 163.691 98.945C163.911 98.855 164.151 98.81 164.411 98.81C164.671 98.81 164.906 98.855 165.116 98.945C165.336 99.035 165.521 99.16 165.671 99.32C165.821 99.48 165.936 99.67 166.016 99.89C166.106 100.1 166.151 100.33 166.151 100.58C166.151 101.08 165.991 101.5 165.671 101.84C165.351 102.17 164.931 102.335 164.411 102.335C163.891 102.335 163.471 102.17 163.151 101.84C162.831 101.5 162.671 101.08 162.671 100.58ZM162.671 105.425C162.671 105.175 162.711 104.945 162.791 104.735C162.881 104.515 163.001 104.325 163.151 104.165C163.301 104.005 163.481 103.88 163.691 103.79C163.911 103.7 164.151 103.655 164.411 103.655C164.671 103.655 164.906 103.7 165.116 103.79C165.336 103.88 165.521 104.005 165.671 104.165C165.821 104.325 165.936 104.515 166.016 104.735C166.106 104.945 166.151 105.175 166.151 105.425C166.151 105.925 165.991 106.345 165.671 106.685C165.351 107.015 164.931 107.18 164.411 107.18C163.891 107.18 163.471 107.015 163.151 106.685C162.831 106.345 162.671 105.925 162.671 105.425ZM93.838 128.685C92.858 127.815 92.083 126.81 91.513 125.67C90.953 124.53 90.673 123.25 90.673 121.83C90.673 120.41 90.953 119.13 91.513 117.99C92.083 116.85 92.858 115.845 93.838 114.975L95.068 115.95C94.178 116.82 93.528 117.725 93.118 118.665C92.718 119.595 92.518 120.65 92.518 121.83C92.518 122.42 92.568 122.98 92.668 123.51C92.768 124.03 92.918 124.53 93.118 125.01C93.328 125.49 93.593 125.95 93.913 126.39C94.233 126.84 94.618 127.28 95.068 127.71L93.838 128.685ZM314.701 127.71C315.151 127.28 315.536 126.84 315.856 126.39C316.176 125.95 316.436 125.49 316.636 125.01C316.846 124.53 317.001 124.03 317.101 123.51C317.201 122.98 317.251 122.42 317.251 121.83C317.251 120.65 317.046 119.595 316.636 118.665C316.236 117.725 315.591 116.82 314.701 115.95L315.931 114.975C316.911 115.845 317.681 116.85 318.241 117.99C318.811 119.13 319.096 120.41 319.096 121.83C319.096 123.25 318.811 124.53 318.241 125.67C317.681 126.81 316.911 127.815 315.931 128.685L314.701 127.71ZM57.8614 166.685C56.8814 165.815 56.1064 164.81 55.5364 163.67C54.9764 162.53 54.6964 161.25 54.6964 159.83C54.6964 158.41 54.9764 157.13 55.5364 155.99C56.1064 154.85 56.8814 153.845 57.8614 152.975L59.0914 153.95C58.2014 154.82 57.5514 155.725 57.1414 156.665C56.7414 157.595 56.5414 158.65 56.5414 159.83C56.5414 160.42 56.5914 160.98 56.6914 161.51C56.7914 162.03 56.9414 162.53 57.1414 163.01C57.3514 163.49 57.6164 163.95 57.9364 164.39C58.2564 164.84 58.6414 165.28 59.0914 165.71L57.8614 166.685ZM61.8906 161.93C61.8906 161.51 61.9806 161.145 62.1606 160.835C62.3406 160.515 62.6256 160.245 63.0156 160.025C63.4156 159.805 63.9256 159.63 64.5456 159.5C65.1656 159.36 65.9156 159.265 66.7956 159.215C66.7556 158.875 66.6056 158.61 66.3456 158.42C66.0956 158.23 65.7156 158.135 65.2056 158.135C64.8456 158.135 64.4806 158.2 64.1106 158.33C63.7506 158.45 63.3606 158.615 62.9406 158.825L62.1606 157.385C62.6706 157.095 63.2156 156.855 63.7956 156.665C64.3856 156.475 65.0006 156.38 65.6406 156.38C66.6806 156.38 67.5006 156.655 68.1006 157.205C68.7006 157.755 69.0006 158.6 69.0006 159.74V164H67.2006L67.0356 163.16H66.9756C66.5956 163.45 66.1806 163.695 65.7306 163.895C65.2806 164.085 64.8156 164.18 64.3356 164.18C63.9556 164.18 63.6156 164.12 63.3156 164C63.0156 163.89 62.7606 163.735 62.5506 163.535C62.3406 163.325 62.1756 163.085 62.0556 162.815C61.9456 162.545 61.8906 162.25 61.8906 161.93ZM64.0056 161.765C64.0056 162.005 64.0956 162.185 64.2756 162.305C64.4656 162.415 64.7206 162.47 65.0406 162.47C65.3706 162.47 65.6806 162.405 65.9706 162.275C66.2606 162.135 66.5356 161.965 66.7956 161.765V160.535C66.2456 160.565 65.7906 160.615 65.4306 160.685C65.0706 160.755 64.7856 160.845 64.5756 160.955C64.3656 161.055 64.2156 161.175 64.1256 161.315C64.0456 161.455 64.0056 161.605 64.0056 161.765ZM73.2547 164.585V166.76H71.0497V156.56H72.8497L73.0147 157.31H73.0597C73.3597 157.04 73.7047 156.82 74.0947 156.65C74.4847 156.47 74.8797 156.38 75.2797 156.38C75.7397 156.38 76.1547 156.47 76.5247 156.65C76.8947 156.83 77.2097 157.085 77.4697 157.415C77.7297 157.745 77.9247 158.145 78.0547 158.615C78.1947 159.075 78.2647 159.59 78.2647 160.16C78.2647 160.8 78.1747 161.37 77.9947 161.87C77.8147 162.36 77.5747 162.78 77.2747 163.13C76.9747 163.47 76.6297 163.73 76.2397 163.91C75.8597 164.09 75.4597 164.18 75.0397 164.18C74.3597 164.18 73.7397 163.91 73.1797 163.37L73.2547 164.585ZM73.2547 161.885C73.4647 162.065 73.6797 162.195 73.8997 162.275C74.1297 162.345 74.3397 162.38 74.5297 162.38C74.9497 162.38 75.2997 162.21 75.5797 161.87C75.8597 161.52 75.9997 160.96 75.9997 160.19C75.9997 158.85 75.5447 158.18 74.6347 158.18C74.1647 158.18 73.7047 158.41 73.2547 158.87V161.885ZM82.2488 164.585V166.76H80.0438V156.56H81.8438L82.0088 157.31H82.0538C82.3538 157.04 82.6988 156.82 83.0888 156.65C83.4788 156.47 83.8738 156.38 84.2738 156.38C84.7338 156.38 85.1488 156.47 85.5188 156.65C85.8888 156.83 86.2038 157.085 86.4638 157.415C86.7238 157.745 86.9188 158.145 87.0488 158.615C87.1888 159.075 87.2588 159.59 87.2588 160.16C87.2588 160.8 87.1688 161.37 86.9888 161.87C86.8088 162.36 86.5688 162.78 86.2688 163.13C85.9688 163.47 85.6238 163.73 85.2338 163.91C84.8538 164.09 84.4538 164.18 84.0338 164.18C83.3538 164.18 82.7338 163.91 82.1738 163.37L82.2488 164.585ZM82.2488 161.885C82.4588 162.065 82.6738 162.195 82.8938 162.275C83.1238 162.345 83.3338 162.38 83.5238 162.38C83.9438 162.38 84.2938 162.21 84.5738 161.87C84.8538 161.52 84.9938 160.96 84.9938 160.19C84.9938 158.85 84.5388 158.18 83.6288 158.18C83.1588 158.18 82.6988 158.41 82.2488 158.87V161.885ZM96.058 164.81V166.46H88.858V164.81H96.058ZM100.237 164.585V166.76H98.0321V156.56H99.8321L99.9971 157.31H100.042C100.342 157.04 100.687 156.82 101.077 156.65C101.467 156.47 101.862 156.38 102.262 156.38C102.722 156.38 103.137 156.47 103.507 156.65C103.877 156.83 104.192 157.085 104.452 157.415C104.712 157.745 104.907 158.145 105.037 158.615C105.177 159.075 105.247 159.59 105.247 160.16C105.247 160.8 105.157 161.37 104.977 161.87C104.797 162.36 104.557 162.78 104.257 163.13C103.957 163.47 103.612 163.73 103.222 163.91C102.842 164.09 102.442 164.18 102.022 164.18C101.342 164.18 100.722 163.91 100.162 163.37L100.237 164.585ZM100.237 161.885C100.447 162.065 100.662 162.195 100.882 162.275C101.112 162.345 101.322 162.38 101.512 162.38C101.932 162.38 102.282 162.21 102.562 161.87C102.842 161.52 102.982 160.96 102.982 160.19C102.982 158.85 102.527 158.18 101.617 158.18C101.147 158.18 100.687 158.41 100.237 158.87V161.885ZM107.686 156.56H109.486L109.666 158.18H109.711C110.081 157.57 110.526 157.12 111.046 156.83C111.566 156.53 112.126 156.38 112.726 156.38C113.056 156.38 113.321 156.405 113.521 156.455C113.731 156.505 113.946 156.58 114.166 156.68L113.716 158.525C113.486 158.455 113.276 158.405 113.086 158.375C112.906 158.335 112.676 158.315 112.396 158.315C111.936 158.315 111.481 158.45 111.031 158.72C110.591 158.99 110.211 159.46 109.891 160.13V164H107.686V156.56ZM116.125 156.56H121.315V164H119.11V158.285H116.125V156.56ZM120.115 155.465C119.685 155.465 119.33 155.345 119.05 155.105C118.78 154.865 118.645 154.54 118.645 154.13C118.645 153.72 118.78 153.39 119.05 153.14C119.33 152.88 119.685 152.75 120.115 152.75C120.545 152.75 120.895 152.88 121.165 153.14C121.445 153.39 121.585 153.72 121.585 154.13C121.585 154.54 121.445 154.865 121.165 155.105C120.895 155.345 120.545 155.465 120.115 155.465ZM124.94 160.28C124.94 159.66 125.055 159.11 125.285 158.63C125.525 158.14 125.84 157.73 126.23 157.4C126.63 157.07 127.09 156.82 127.61 156.65C128.13 156.47 128.675 156.38 129.245 156.38C129.835 156.38 130.365 156.475 130.835 156.665C131.315 156.855 131.715 157.095 132.035 157.385L131.015 158.75C130.465 158.36 129.915 158.165 129.365 158.165C128.725 158.165 128.205 158.355 127.805 158.735C127.405 159.115 127.205 159.63 127.205 160.28C127.205 160.93 127.395 161.445 127.775 161.825C128.165 162.205 128.67 162.395 129.29 162.395C129.68 162.395 130.04 162.325 130.37 162.185C130.7 162.045 130.995 161.88 131.255 161.69L132.155 163.085C131.705 163.465 131.205 163.745 130.655 163.925C130.115 164.095 129.59 164.18 129.08 164.18C128.49 164.18 127.945 164.095 127.445 163.925C126.945 163.745 126.505 163.49 126.125 163.16C125.755 162.83 125.465 162.425 125.255 161.945C125.045 161.455 124.94 160.9 124.94 160.28ZM133.754 160.28C133.754 159.67 133.859 159.125 134.069 158.645C134.289 158.165 134.579 157.76 134.939 157.43C135.299 157.09 135.709 156.83 136.169 156.65C136.639 156.47 137.124 156.38 137.624 156.38C138.194 156.38 138.699 156.47 139.139 156.65C139.579 156.83 139.944 157.08 140.234 157.4C140.524 157.72 140.744 158.1 140.894 158.54C141.044 158.97 141.119 159.44 141.119 159.95C141.119 160.15 141.109 160.34 141.089 160.52C141.069 160.7 141.049 160.835 141.029 160.925H136.019C136.099 161.485 136.339 161.89 136.739 162.14C137.149 162.38 137.629 162.5 138.179 162.5C138.519 162.5 138.839 162.46 139.139 162.38C139.449 162.29 139.769 162.16 140.099 161.99L140.819 163.31C140.399 163.58 139.929 163.795 139.409 163.955C138.889 164.105 138.379 164.18 137.879 164.18C137.299 164.18 136.759 164.095 136.259 163.925C135.759 163.745 135.324 163.49 134.954 163.16C134.584 162.82 134.289 162.41 134.069 161.93C133.859 161.45 133.754 160.9 133.754 160.28ZM139.124 159.47C139.124 159.05 139.009 158.71 138.779 158.45C138.549 158.19 138.179 158.06 137.669 158.06C137.269 158.06 136.914 158.175 136.604 158.405C136.294 158.635 136.089 158.99 135.989 159.47H139.124ZM158.177 159.785L152.387 163.535V161.54L156.362 159.05V158.99L152.387 156.5V154.505L158.177 158.255V159.785ZM188.784 165.71C189.234 165.28 189.619 164.84 189.939 164.39C190.259 163.95 190.519 163.49 190.719 163.01C190.929 162.53 191.084 162.03 191.184 161.51C191.284 160.98 191.334 160.42 191.334 159.83C191.334 158.65 191.129 157.595 190.719 156.665C190.319 155.725 189.674 154.82 188.784 153.95L190.014 152.975C190.994 153.845 191.764 154.85 192.324 155.99C192.894 157.13 193.179 158.41 193.179 159.83C193.179 161.25 192.894 162.53 192.324 163.67C191.764 164.81 190.994 165.815 190.014 166.685L188.784 165.71Z" fill="white"/>
<path d="M109.246 42.9L109.171 40.725H111.721L111.646 42.9L111.121 46.455H109.771L109.246 42.9ZM115.9 41.22H118.105V47.46C118.105 48.05 118.215 48.5 118.435 48.81C118.655 49.12 119 49.275 119.47 49.275C119.94 49.275 120.285 49.12 120.505 48.81C120.735 48.5 120.85 48.05 120.85 47.46V41.22H122.98V47.235C122.98 48.515 122.69 49.495 122.11 50.175C121.54 50.845 120.66 51.18 119.47 51.18C118.27 51.18 117.375 50.845 116.785 50.175C116.195 49.495 115.9 48.515 115.9 47.235V41.22ZM124.865 40.485H129.23V48.18C129.23 48.41 129.26 48.605 129.32 48.765C129.39 48.915 129.48 49.04 129.59 49.14C129.71 49.23 129.84 49.295 129.98 49.335C130.13 49.375 130.28 49.395 130.43 49.395C130.6 49.395 130.78 49.38 130.97 49.35C131.16 49.31 131.37 49.245 131.6 49.155L132.095 50.775C131.895 50.835 131.71 50.89 131.54 50.94C131.37 50.99 131.2 51.03 131.03 51.06C130.86 51.1 130.68 51.13 130.49 51.15C130.3 51.17 130.09 51.18 129.86 51.18C128.92 51.18 128.21 50.905 127.73 50.355C127.26 49.795 127.025 49.04 127.025 48.09V42.225H124.865V40.485ZM134.324 52.08C134.514 52.14 134.709 52.17 134.909 52.17C135.339 52.17 135.674 52.08 135.914 51.9C136.164 51.72 136.349 51.485 136.469 51.195L136.619 50.805L133.394 43.56H135.584L136.829 46.755C136.969 47.105 137.099 47.47 137.219 47.85C137.339 48.22 137.459 48.6 137.579 48.99H137.639C137.739 48.62 137.849 48.25 137.969 47.88C138.089 47.5 138.204 47.125 138.314 46.755L139.409 43.56H141.494L138.554 51.075C138.374 51.545 138.179 51.955 137.969 52.305C137.759 52.665 137.519 52.96 137.249 53.19C136.979 53.43 136.664 53.61 136.304 53.73C135.954 53.85 135.544 53.91 135.074 53.91C134.854 53.91 134.649 53.895 134.459 53.865C134.269 53.845 134.094 53.81 133.934 53.76L134.324 52.08ZM143.708 48.66C144.138 48.93 144.568 49.145 144.998 49.305C145.438 49.465 145.908 49.545 146.408 49.545C146.918 49.545 147.283 49.49 147.503 49.38C147.723 49.27 147.833 49.115 147.833 48.915C147.833 48.685 147.648 48.5 147.278 48.36C146.918 48.21 146.438 48.05 145.838 47.88C145.508 47.79 145.183 47.685 144.863 47.565C144.553 47.435 144.273 47.285 144.023 47.115C143.773 46.935 143.568 46.73 143.408 46.5C143.258 46.27 143.183 46.005 143.183 45.705C143.183 45.365 143.263 45.05 143.423 44.76C143.583 44.47 143.808 44.225 144.098 44.025C144.398 43.825 144.758 43.67 145.178 43.56C145.608 43.44 146.088 43.38 146.618 43.38C147.278 43.38 147.878 43.49 148.418 43.71C148.968 43.92 149.438 44.15 149.828 44.4L148.838 45.72C148.498 45.52 148.148 45.355 147.788 45.225C147.428 45.085 147.053 45.015 146.663 45.015C146.193 45.015 145.858 45.065 145.658 45.165C145.468 45.265 145.373 45.41 145.373 45.6C145.373 45.71 145.423 45.81 145.523 45.9C145.623 45.99 145.758 46.07 145.928 46.14C146.098 46.21 146.298 46.28 146.528 46.35C146.768 46.41 147.018 46.475 147.278 46.545C147.648 46.645 147.998 46.76 148.328 46.89C148.658 47.01 148.948 47.155 149.198 47.325C149.448 47.495 149.648 47.7 149.798 47.94C149.948 48.18 150.023 48.46 150.023 48.78C150.023 49.12 149.943 49.435 149.783 49.725C149.623 50.015 149.388 50.27 149.078 50.49C148.778 50.7 148.398 50.87 147.938 51C147.488 51.12 146.963 51.18 146.363 51.18C145.693 51.18 145.038 51.07 144.398 50.85C143.758 50.63 143.198 50.36 142.718 50.04L143.708 48.66ZM152.702 48.66C153.132 48.93 153.562 49.145 153.992 49.305C154.432 49.465 154.902 49.545 155.402 49.545C155.912 49.545 156.277 49.49 156.497 49.38C156.717 49.27 156.827 49.115 156.827 48.915C156.827 48.685 156.642 48.5 156.272 48.36C155.912 48.21 155.432 48.05 154.832 47.88C154.502 47.79 154.177 47.685 153.857 47.565C153.547 47.435 153.267 47.285 153.017 47.115C152.767 46.935 152.562 46.73 152.402 46.5C152.252 46.27 152.177 46.005 152.177 45.705C152.177 45.365 152.257 45.05 152.417 44.76C152.577 44.47 152.802 44.225 153.092 44.025C153.392 43.825 153.752 43.67 154.172 43.56C154.602 43.44 155.082 43.38 155.612 43.38C156.272 43.38 156.872 43.49 157.412 43.71C157.962 43.92 158.432 44.15 158.822 44.4L157.832 45.72C157.492 45.52 157.142 45.355 156.782 45.225C156.422 45.085 156.047 45.015 155.657 45.015C155.187 45.015 154.852 45.065 154.652 45.165C154.462 45.265 154.367 45.41 154.367 45.6C154.367 45.71 154.417 45.81 154.517 45.9C154.617 45.99 154.752 46.07 154.922 46.14C155.092 46.21 155.292 46.28 155.522 46.35C155.762 46.41 156.012 46.475 156.272 46.545C156.642 46.645 156.992 46.76 157.322 46.89C157.652 47.01 157.942 47.155 158.192 47.325C158.442 47.495 158.642 47.7 158.792 47.94C158.942 48.18 159.017 48.46 159.017 48.78C159.017 49.12 158.937 49.435 158.777 49.725C158.617 50.015 158.382 50.27 158.072 50.49C157.772 50.7 157.392 50.87 156.932 51C156.482 51.12 155.957 51.18 155.357 51.18C154.687 51.18 154.032 51.07 153.392 50.85C152.752 50.63 152.192 50.36 151.712 50.04L152.702 48.66ZM160.736 47.28C160.736 46.67 160.841 46.125 161.051 45.645C161.271 45.165 161.561 44.76 161.921 44.43C162.281 44.09 162.691 43.83 163.151 43.65C163.621 43.47 164.106 43.38 164.606 43.38C165.176 43.38 165.681 43.47 166.121 43.65C166.561 43.83 166.926 44.08 167.216 44.4C167.506 44.72 167.726 45.1 167.876 45.54C168.026 45.97 168.101 46.44 168.101 46.95C168.101 47.15 168.091 47.34 168.071 47.52C168.051 47.7 168.031 47.835 168.011 47.925H163.001C163.081 48.485 163.321 48.89 163.721 49.14C164.131 49.38 164.611 49.5 165.161 49.5C165.501 49.5 165.821 49.46 166.121 49.38C166.431 49.29 166.751 49.16 167.081 48.99L167.801 50.31C167.381 50.58 166.911 50.795 166.391 50.955C165.871 51.105 165.361 51.18 164.861 51.18C164.281 51.18 163.741 51.095 163.241 50.925C162.741 50.745 162.306 50.49 161.936 50.16C161.566 49.82 161.271 49.41 161.051 48.93C160.841 48.45 160.736 47.9 160.736 47.28ZM166.106 46.47C166.106 46.05 165.991 45.71 165.761 45.45C165.531 45.19 165.161 45.06 164.651 45.06C164.251 45.06 163.896 45.175 163.586 45.405C163.276 45.635 163.071 45.99 162.971 46.47H166.106ZM170.69 48.66C171.12 48.93 171.55 49.145 171.98 49.305C172.42 49.465 172.89 49.545 173.39 49.545C173.9 49.545 174.265 49.49 174.485 49.38C174.705 49.27 174.815 49.115 174.815 48.915C174.815 48.685 174.63 48.5 174.26 48.36C173.9 48.21 173.42 48.05 172.82 47.88C172.49 47.79 172.165 47.685 171.845 47.565C171.535 47.435 171.255 47.285 171.005 47.115C170.755 46.935 170.55 46.73 170.39 46.5C170.24 46.27 170.165 46.005 170.165 45.705C170.165 45.365 170.245 45.05 170.405 44.76C170.565 44.47 170.79 44.225 171.08 44.025C171.38 43.825 171.74 43.67 172.16 43.56C172.59 43.44 173.07 43.38 173.6 43.38C174.26 43.38 174.86 43.49 175.4 43.71C175.95 43.92 176.42 44.15 176.81 44.4L175.82 45.72C175.48 45.52 175.13 45.355 174.77 45.225C174.41 45.085 174.035 45.015 173.645 45.015C173.175 45.015 172.84 45.065 172.64 45.165C172.45 45.265 172.355 45.41 172.355 45.6C172.355 45.71 172.405 45.81 172.505 45.9C172.605 45.99 172.74 46.07 172.91 46.14C173.08 46.21 173.28 46.28 173.51 46.35C173.75 46.41 174 46.475 174.26 46.545C174.63 46.645 174.98 46.76 175.31 46.89C175.64 47.01 175.93 47.155 176.18 47.325C176.43 47.495 176.63 47.7 176.78 47.94C176.93 48.18 177.005 48.46 177.005 48.78C177.005 49.12 176.925 49.435 176.765 49.725C176.605 50.015 176.37 50.27 176.06 50.49C175.76 50.7 175.38 50.87 174.92 51C174.47 51.12 173.945 51.18 173.345 51.18C172.675 51.18 172.02 51.07 171.38 50.85C170.74 50.63 170.18 50.36 169.7 50.04L170.69 48.66ZM181.199 42.9L181.124 40.725H183.674L183.599 42.9L183.074 46.455H181.724L181.199 42.9ZM100.252 117.9L100.177 115.725H102.727L102.652 117.9L102.127 121.455H100.777L100.252 117.9ZM109.336 118.08H106.411V116.22H114.481V118.08H111.556V126H109.336V118.08ZM116.02 115.485H118.225V118.065L118.105 119.49C118.255 119.35 118.415 119.215 118.585 119.085C118.765 118.945 118.955 118.825 119.155 118.725C119.365 118.615 119.59 118.53 119.83 118.47C120.08 118.41 120.345 118.38 120.625 118.38C121.465 118.38 122.075 118.65 122.455 119.19C122.845 119.73 123.04 120.47 123.04 121.41V126H120.835V121.695C120.835 121.195 120.755 120.83 120.595 120.6C120.435 120.37 120.15 120.255 119.74 120.255C119.44 120.255 119.175 120.32 118.945 120.45C118.725 120.58 118.485 120.775 118.225 121.035V126H116.02V115.485ZM125.12 118.56H130.31V126H128.105V120.285H125.12V118.56ZM129.11 117.465C128.68 117.465 128.325 117.345 128.045 117.105C127.775 116.865 127.64 116.54 127.64 116.13C127.64 115.72 127.775 115.39 128.045 115.14C128.325 114.88 128.68 114.75 129.11 114.75C129.54 114.75 129.89 114.88 130.16 115.14C130.44 115.39 130.58 115.72 130.58 116.13C130.58 116.54 130.44 116.865 130.16 117.105C129.89 117.345 129.54 117.465 129.11 117.465ZM134.714 123.66C135.144 123.93 135.574 124.145 136.004 124.305C136.444 124.465 136.914 124.545 137.414 124.545C137.924 124.545 138.289 124.49 138.509 124.38C138.729 124.27 138.839 124.115 138.839 123.915C138.839 123.685 138.654 123.5 138.284 123.36C137.924 123.21 137.444 123.05 136.844 122.88C136.514 122.79 136.189 122.685 135.869 122.565C135.559 122.435 135.279 122.285 135.029 122.115C134.779 121.935 134.574 121.73 134.414 121.5C134.264 121.27 134.189 121.005 134.189 120.705C134.189 120.365 134.269 120.05 134.429 119.76C134.589 119.47 134.814 119.225 135.104 119.025C135.404 118.825 135.764 118.67 136.184 118.56C136.614 118.44 137.094 118.38 137.624 118.38C138.284 118.38 138.884 118.49 139.424 118.71C139.974 118.92 140.444 119.15 140.834 119.4L139.844 120.72C139.504 120.52 139.154 120.355 138.794 120.225C138.434 120.085 138.059 120.015 137.669 120.015C137.199 120.015 136.864 120.065 136.664 120.165C136.474 120.265 136.379 120.41 136.379 120.6C136.379 120.71 136.429 120.81 136.529 120.9C136.629 120.99 136.764 121.07 136.934 121.14C137.104 121.21 137.304 121.28 137.534 121.35C137.774 121.41 138.024 121.475 138.284 121.545C138.654 121.645 139.004 121.76 139.334 121.89C139.664 122.01 139.954 122.155 140.204 122.325C140.454 122.495 140.654 122.7 140.804 122.94C140.954 123.18 141.029 123.46 141.029 123.78C141.029 124.12 140.949 124.435 140.789 124.725C140.629 125.015 140.394 125.27 140.084 125.49C139.784 125.7 139.404 125.87 138.944 126C138.494 126.12 137.969 126.18 137.369 126.18C136.699 126.18 136.044 126.07 135.404 125.85C134.764 125.63 134.204 125.36 133.724 125.04L134.714 123.66ZM151.832 123.93C151.832 123.51 151.922 123.145 152.102 122.835C152.282 122.515 152.567 122.245 152.957 122.025C153.357 121.805 153.867 121.63 154.487 121.5C155.107 121.36 155.857 121.265 156.737 121.215C156.697 120.875 156.547 120.61 156.287 120.42C156.037 120.23 155.657 120.135 155.147 120.135C154.787 120.135 154.422 120.2 154.052 120.33C153.692 120.45 153.302 120.615 152.882 120.825L152.102 119.385C152.612 119.095 153.157 118.855 153.737 118.665C154.327 118.475 154.942 118.38 155.582 118.38C156.622 118.38 157.442 118.655 158.042 119.205C158.642 119.755 158.942 120.6 158.942 121.74V126H157.142L156.977 125.16H156.917C156.537 125.45 156.122 125.695 155.672 125.895C155.222 126.085 154.757 126.18 154.277 126.18C153.897 126.18 153.557 126.12 153.257 126C152.957 125.89 152.702 125.735 152.492 125.535C152.282 125.325 152.117 125.085 151.997 124.815C151.887 124.545 151.832 124.25 151.832 123.93ZM153.947 123.765C153.947 124.005 154.037 124.185 154.217 124.305C154.407 124.415 154.662 124.47 154.982 124.47C155.312 124.47 155.622 124.405 155.912 124.275C156.202 124.135 156.477 123.965 156.737 123.765V122.535C156.187 122.565 155.732 122.615 155.372 122.685C155.012 122.755 154.727 122.845 154.517 122.955C154.307 123.055 154.157 123.175 154.067 123.315C153.987 123.455 153.947 123.605 153.947 123.765ZM163.196 126.585V128.76H160.991V118.56H162.791L162.956 119.31H163.001C163.301 119.04 163.646 118.82 164.036 118.65C164.426 118.47 164.821 118.38 165.221 118.38C165.681 118.38 166.096 118.47 166.466 118.65C166.836 118.83 167.151 119.085 167.411 119.415C167.671 119.745 167.866 120.145 167.996 120.615C168.136 121.075 168.206 121.59 168.206 122.16C168.206 122.8 168.116 123.37 167.936 123.87C167.756 124.36 167.516 124.78 167.216 125.13C166.916 125.47 166.571 125.73 166.181 125.91C165.801 126.09 165.401 126.18 164.981 126.18C164.301 126.18 163.681 125.91 163.121 125.37L163.196 126.585ZM163.196 123.885C163.406 124.065 163.621 124.195 163.841 124.275C164.071 124.345 164.281 124.38 164.471 124.38C164.891 124.38 165.241 124.21 165.521 123.87C165.801 123.52 165.941 122.96 165.941 122.19C165.941 120.85 165.486 120.18 164.576 120.18C164.106 120.18 163.646 120.41 163.196 120.87V123.885ZM172.19 126.585V128.76H169.985V118.56H171.785L171.95 119.31H171.995C172.295 119.04 172.64 118.82 173.03 118.65C173.42 118.47 173.815 118.38 174.215 118.38C174.675 118.38 175.09 118.47 175.46 118.65C175.83 118.83 176.145 119.085 176.405 119.415C176.665 119.745 176.86 120.145 176.99 120.615C177.13 121.075 177.2 121.59 177.2 122.16C177.2 122.8 177.11 123.37 176.93 123.87C176.75 124.36 176.51 124.78 176.21 125.13C175.91 125.47 175.565 125.73 175.175 125.91C174.795 126.09 174.395 126.18 173.975 126.18C173.295 126.18 172.675 125.91 172.115 125.37L172.19 126.585ZM172.19 123.885C172.4 124.065 172.615 124.195 172.835 124.275C173.065 124.345 173.275 124.38 173.465 124.38C173.885 124.38 174.235 124.21 174.515 123.87C174.795 123.52 174.935 122.96 174.935 122.19C174.935 120.85 174.48 120.18 173.57 120.18C173.1 120.18 172.64 120.41 172.19 120.87V123.885ZM188.079 118.56H193.269V126H191.064V120.285H188.079V118.56ZM192.069 117.465C191.639 117.465 191.284 117.345 191.004 117.105C190.734 116.865 190.599 116.54 190.599 116.13C190.599 115.72 190.734 115.39 191.004 115.14C191.284 114.88 191.639 114.75 192.069 114.75C192.499 114.75 192.849 114.88 193.119 115.14C193.399 115.39 193.539 115.72 193.539 116.13C193.539 116.54 193.399 116.865 193.119 117.105C192.849 117.345 192.499 117.465 192.069 117.465ZM197.673 123.66C198.103 123.93 198.533 124.145 198.963 124.305C199.403 124.465 199.873 124.545 200.373 124.545C200.883 124.545 201.248 124.49 201.468 124.38C201.688 124.27 201.798 124.115 201.798 123.915C201.798 123.685 201.613 123.5 201.243 123.36C200.883 123.21 200.403 123.05 199.803 122.88C199.473 122.79 199.148 122.685 198.828 122.565C198.518 122.435 198.238 122.285 197.988 122.115C197.738 121.935 197.533 121.73 197.373 121.5C197.223 121.27 197.148 121.005 197.148 120.705C197.148 120.365 197.228 120.05 197.388 119.76C197.548 119.47 197.773 119.225 198.063 119.025C198.363 118.825 198.723 118.67 199.143 118.56C199.573 118.44 200.053 118.38 200.583 118.38C201.243 118.38 201.843 118.49 202.383 118.71C202.933 118.92 203.403 119.15 203.793 119.4L202.803 120.72C202.463 120.52 202.113 120.355 201.753 120.225C201.393 120.085 201.018 120.015 200.628 120.015C200.158 120.015 199.823 120.065 199.623 120.165C199.433 120.265 199.338 120.41 199.338 120.6C199.338 120.71 199.388 120.81 199.488 120.9C199.588 120.99 199.723 121.07 199.893 121.14C200.063 121.21 200.263 121.28 200.493 121.35C200.733 121.41 200.983 121.475 201.243 121.545C201.613 121.645 201.963 121.76 202.293 121.89C202.623 122.01 202.913 122.155 203.163 122.325C203.413 122.495 203.613 122.7 203.763 122.94C203.913 123.18 203.988 123.46 203.988 123.78C203.988 124.12 203.908 124.435 203.748 124.725C203.588 125.015 203.353 125.27 203.043 125.49C202.743 125.7 202.363 125.87 201.903 126C201.453 126.12 200.928 126.18 200.328 126.18C199.658 126.18 199.003 126.07 198.363 125.85C197.723 125.63 197.163 125.36 196.683 125.04L197.673 123.66ZM214.701 122.28C214.701 121.67 214.806 121.125 215.016 120.645C215.236 120.165 215.526 119.76 215.886 119.43C216.246 119.09 216.656 118.83 217.116 118.65C217.586 118.47 218.071 118.38 218.571 118.38C219.141 118.38 219.646 118.47 220.086 118.65C220.526 118.83 220.891 119.08 221.181 119.4C221.471 119.72 221.691 120.1 221.841 120.54C221.991 120.97 222.066 121.44 222.066 121.95C222.066 122.15 222.056 122.34 222.036 122.52C222.016 122.7 221.996 122.835 221.976 122.925H216.966C217.046 123.485 217.286 123.89 217.686 124.14C218.096 124.38 218.576 124.5 219.126 124.5C219.466 124.5 219.786 124.46 220.086 124.38C220.396 124.29 220.716 124.16 221.046 123.99L221.766 125.31C221.346 125.58 220.876 125.795 220.356 125.955C219.836 126.105 219.326 126.18 218.826 126.18C218.246 126.18 217.706 126.095 217.206 125.925C216.706 125.745 216.271 125.49 215.901 125.16C215.531 124.82 215.236 124.41 215.016 123.93C214.806 123.45 214.701 122.9 214.701 122.28ZM220.071 121.47C220.071 121.05 219.956 120.71 219.726 120.45C219.496 120.19 219.126 120.06 218.616 120.06C218.216 120.06 217.861 120.175 217.551 120.405C217.241 120.635 217.036 120.99 216.936 121.47H220.071ZM226.005 122.13L223.59 118.56H225.96L226.725 119.76C226.835 119.97 226.96 120.185 227.1 120.405C227.24 120.615 227.375 120.825 227.505 121.035H227.565C227.665 120.825 227.765 120.61 227.865 120.39C227.975 120.17 228.08 119.96 228.18 119.76L228.84 118.56H231.15L228.72 122.385L231.3 126H228.93L228.075 124.77C227.935 124.56 227.79 124.345 227.64 124.125C227.5 123.905 227.36 123.69 227.22 123.48H227.16C227.05 123.69 226.935 123.905 226.815 124.125C226.695 124.335 226.58 124.55 226.47 124.77L225.735 126H223.425L226.005 122.13ZM235.149 126.585V128.76H232.944V118.56H234.744L234.909 119.31H234.954C235.254 119.04 235.599 118.82 235.989 118.65C236.379 118.47 236.774 118.38 237.174 118.38C237.634 118.38 238.049 118.47 238.419 118.65C238.789 118.83 239.104 119.085 239.364 119.415C239.624 119.745 239.819 120.145 239.949 120.615C240.089 121.075 240.159 121.59 240.159 122.16C240.159 122.8 240.069 123.37 239.889 123.87C239.709 124.36 239.469 124.78 239.169 125.13C238.869 125.47 238.524 125.73 238.134 125.91C237.754 126.09 237.354 126.18 236.934 126.18C236.254 126.18 235.634 125.91 235.074 125.37L235.149 126.585ZM235.149 123.885C235.359 124.065 235.574 124.195 235.794 124.275C236.024 124.345 236.234 124.38 236.424 124.38C236.844 124.38 237.194 124.21 237.474 123.87C237.754 123.52 237.894 122.96 237.894 122.19C237.894 120.85 237.439 120.18 236.529 120.18C236.059 120.18 235.599 120.41 235.149 120.87V123.885ZM241.683 122.28C241.683 121.67 241.788 121.125 241.998 120.645C242.218 120.165 242.508 119.76 242.868 119.43C243.228 119.09 243.638 118.83 244.098 118.65C244.568 118.47 245.053 118.38 245.553 118.38C246.123 118.38 246.628 118.47 247.068 118.65C247.508 118.83 247.873 119.08 248.163 119.4C248.453 119.72 248.673 120.1 248.823 120.54C248.973 120.97 249.048 121.44 249.048 121.95C249.048 122.15 249.038 122.34 249.018 122.52C248.998 122.7 248.978 122.835 248.958 122.925H243.948C244.028 123.485 244.268 123.89 244.668 124.14C245.078 124.38 245.558 124.5 246.108 124.5C246.448 124.5 246.768 124.46 247.068 124.38C247.378 124.29 247.698 124.16 248.028 123.99L248.748 125.31C248.328 125.58 247.858 125.795 247.338 125.955C246.818 126.105 246.308 126.18 245.808 126.18C245.228 126.18 244.688 126.095 244.188 125.925C243.688 125.745 243.253 125.49 242.883 125.16C242.513 124.82 242.218 124.41 241.998 123.93C241.788 123.45 241.683 122.9 241.683 122.28ZM247.053 121.47C247.053 121.05 246.938 120.71 246.708 120.45C246.478 120.19 246.108 120.06 245.598 120.06C245.198 120.06 244.843 120.175 244.533 120.405C244.223 120.635 244.018 120.99 243.918 121.47H247.053ZM250.933 118.56H252.733L252.898 119.55H252.958C253.278 119.23 253.643 118.955 254.053 118.725C254.473 118.495 254.963 118.38 255.523 118.38C256.363 118.38 256.978 118.65 257.368 119.19C257.758 119.73 257.953 120.47 257.953 121.41V126H255.748V121.695C255.748 121.195 255.668 120.83 255.508 120.6C255.348 120.37 255.063 120.255 254.653 120.255C254.353 120.255 254.088 120.32 253.858 120.45C253.638 120.58 253.398 120.775 253.138 121.035V126H250.933V118.56ZM260.632 123.66C261.062 123.93 261.492 124.145 261.922 124.305C262.362 124.465 262.832 124.545 263.332 124.545C263.842 124.545 264.207 124.49 264.427 124.38C264.647 124.27 264.757 124.115 264.757 123.915C264.757 123.685 264.572 123.5 264.202 123.36C263.842 123.21 263.362 123.05 262.762 122.88C262.432 122.79 262.107 122.685 261.787 122.565C261.477 122.435 261.197 122.285 260.947 122.115C260.697 121.935 260.492 121.73 260.332 121.5C260.182 121.27 260.107 121.005 260.107 120.705C260.107 120.365 260.187 120.05 260.347 119.76C260.507 119.47 260.732 119.225 261.022 119.025C261.322 118.825 261.682 118.67 262.102 118.56C262.532 118.44 263.012 118.38 263.542 118.38C264.202 118.38 264.802 118.49 265.342 118.71C265.892 118.92 266.362 119.15 266.752 119.4L265.762 120.72C265.422 120.52 265.072 120.355 264.712 120.225C264.352 120.085 263.977 120.015 263.587 120.015C263.117 120.015 262.782 120.065 262.582 120.165C262.392 120.265 262.297 120.41 262.297 120.6C262.297 120.71 262.347 120.81 262.447 120.9C262.547 120.99 262.682 121.07 262.852 121.14C263.022 121.21 263.222 121.28 263.452 121.35C263.692 121.41 263.942 121.475 264.202 121.545C264.572 121.645 264.922 121.76 265.252 121.89C265.582 122.01 265.872 122.155 266.122 122.325C266.372 122.495 266.572 122.7 266.722 122.94C266.872 123.18 266.947 123.46 266.947 123.78C266.947 124.12 266.867 124.435 266.707 124.725C266.547 125.015 266.312 125.27 266.002 125.49C265.702 125.7 265.322 125.87 264.862 126C264.412 126.12 263.887 126.18 263.287 126.18C262.617 126.18 261.962 126.07 261.322 125.85C260.682 125.63 260.122 125.36 259.642 125.04L260.632 123.66ZM269.026 118.56H274.216V126H272.011V120.285H269.026V118.56ZM273.016 117.465C272.586 117.465 272.231 117.345 271.951 117.105C271.681 116.865 271.546 116.54 271.546 116.13C271.546 115.72 271.681 115.39 271.951 115.14C272.231 114.88 272.586 114.75 273.016 114.75C273.446 114.75 273.796 114.88 274.066 115.14C274.346 115.39 274.486 115.72 274.486 116.13C274.486 116.54 274.346 116.865 274.066 117.105C273.796 117.345 273.446 117.465 273.016 117.465ZM277.3 118.56H279.52L280.69 122.07C280.81 122.45 280.925 122.83 281.035 123.21C281.145 123.59 281.255 123.975 281.365 124.365H281.425C281.535 123.975 281.64 123.59 281.74 123.21C281.85 122.83 281.965 122.45 282.085 122.07L283.255 118.56H285.37L282.64 126H280.105L277.3 118.56ZM286.654 122.28C286.654 121.67 286.759 121.125 286.969 120.645C287.189 120.165 287.479 119.76 287.839 119.43C288.199 119.09 288.609 118.83 289.069 118.65C289.539 118.47 290.024 118.38 290.524 118.38C291.094 118.38 291.599 118.47 292.039 118.65C292.479 118.83 292.844 119.08 293.134 119.4C293.424 119.72 293.644 120.1 293.794 120.54C293.944 120.97 294.019 121.44 294.019 121.95C294.019 122.15 294.009 122.34 293.989 122.52C293.969 122.7 293.949 122.835 293.929 122.925H288.919C288.999 123.485 289.239 123.89 289.639 124.14C290.049 124.38 290.529 124.5 291.079 124.5C291.419 124.5 291.739 124.46 292.039 124.38C292.349 124.29 292.669 124.16 292.999 123.99L293.719 125.31C293.299 125.58 292.829 125.795 292.309 125.955C291.789 126.105 291.279 126.18 290.779 126.18C290.199 126.18 289.659 126.095 289.159 125.925C288.659 125.745 288.224 125.49 287.854 125.16C287.484 124.82 287.189 124.41 286.969 123.93C286.759 123.45 286.654 122.9 286.654 122.28ZM292.024 121.47C292.024 121.05 291.909 120.71 291.679 120.45C291.449 120.19 291.079 120.06 290.569 120.06C290.169 120.06 289.814 120.175 289.504 120.405C289.194 120.635 288.989 120.99 288.889 121.47H292.024ZM298.303 117.945L298.228 115.95H300.418L300.343 117.945L300.043 122.175H298.603L298.303 117.945ZM297.823 124.65C297.823 124.2 297.963 123.84 298.243 123.57C298.533 123.29 298.893 123.15 299.323 123.15C299.753 123.15 300.108 123.29 300.388 123.57C300.678 123.84 300.823 124.2 300.823 124.65C300.823 125.1 300.678 125.47 300.388 125.76C300.108 126.04 299.753 126.18 299.323 126.18C298.893 126.18 298.533 126.04 298.243 125.76C297.963 125.47 297.823 125.1 297.823 124.65ZM307.117 117.9L307.042 115.725H309.592L309.517 117.9L308.992 121.455H307.642L307.117 117.9Z" fill="#009E73"/>
<path d="M115.81 68.74C116.49 68.17 117.11 67.64 117.67 67.15C118.23 66.65 118.71 66.185 119.11 65.755C119.51 65.325 119.82 64.92 120.04 64.54C120.26 64.16 120.37 63.8 120.37 63.46C120.37 62.99 120.235 62.635 119.965 62.395C119.695 62.145 119.31 62.02 118.81 62.02C118.43 62.02 118.08 62.12 117.76 62.32C117.45 62.51 117.16 62.735 116.89 62.995L115.705 61.81C115.955 61.56 116.2 61.34 116.44 61.15C116.69 60.96 116.95 60.805 117.22 60.685C117.5 60.555 117.79 60.46 118.09 60.4C118.4 60.33 118.74 60.295 119.11 60.295C119.61 60.295 120.065 60.37 120.475 60.52C120.885 60.66 121.235 60.865 121.525 61.135C121.825 61.395 122.055 61.71 122.215 62.08C122.385 62.45 122.47 62.865 122.47 63.325C122.47 63.725 122.375 64.135 122.185 64.555C121.995 64.965 121.735 65.38 121.405 65.8C121.085 66.21 120.715 66.625 120.295 67.045C119.875 67.455 119.435 67.86 118.975 68.26C119.245 68.23 119.535 68.205 119.845 68.185C120.165 68.155 120.45 68.14 120.7 68.14H122.965V70H115.81V68.74ZM129.05 66.04V64.435C129.05 64.135 129.055 63.79 129.065 63.4C129.085 63 129.105 62.65 129.125 62.35H129.065C128.905 62.62 128.735 62.89 128.555 63.16C128.375 63.43 128.2 63.7 128.03 63.97L126.59 66.04H129.05ZM132.305 67.72H131.105V70H129.05V67.72H124.46V66.205L128.435 60.475H131.105V66.04H132.305V67.72ZM135.689 68.425C135.689 68.175 135.729 67.945 135.809 67.735C135.899 67.515 136.019 67.325 136.169 67.165C136.319 67.005 136.499 66.88 136.709 66.79C136.929 66.7 137.169 66.655 137.429 66.655C137.689 66.655 137.924 66.7 138.134 66.79C138.354 66.88 138.539 67.005 138.689 67.165C138.839 67.325 138.954 67.515 139.034 67.735C139.124 67.945 139.169 68.175 139.169 68.425C139.169 68.925 139.009 69.345 138.689 69.685C138.369 70.015 137.949 70.18 137.429 70.18C136.909 70.18 136.489 70.015 136.169 69.685C135.849 69.345 135.689 68.925 135.689 68.425ZM146.153 64.87C146.433 64.87 146.723 64.8 147.023 64.66C147.323 64.52 147.618 64.275 147.908 63.925C147.848 63.555 147.758 63.245 147.638 62.995C147.528 62.735 147.393 62.53 147.233 62.38C147.083 62.22 146.918 62.11 146.738 62.05C146.558 61.98 146.373 61.945 146.183 61.945C145.993 61.945 145.808 61.975 145.628 62.035C145.458 62.095 145.303 62.19 145.163 62.32C145.033 62.44 144.928 62.6 144.848 62.8C144.768 62.99 144.728 63.22 144.728 63.49C144.728 63.98 144.858 64.335 145.118 64.555C145.378 64.765 145.723 64.87 146.153 64.87ZM144.023 67.72C144.223 67.9 144.473 68.06 144.773 68.2C145.073 68.33 145.383 68.395 145.703 68.395C145.993 68.395 146.268 68.345 146.528 68.245C146.798 68.135 147.033 67.965 147.233 67.735C147.443 67.495 147.613 67.185 147.743 66.805C147.873 66.415 147.948 65.94 147.968 65.38C147.618 65.71 147.233 65.97 146.813 66.16C146.403 66.34 146.023 66.43 145.673 66.43C145.253 66.43 144.863 66.37 144.503 66.25C144.143 66.13 143.828 65.95 143.558 65.71C143.298 65.47 143.093 65.165 142.943 64.795C142.793 64.425 142.718 63.99 142.718 63.49C142.718 63 142.808 62.56 142.988 62.17C143.178 61.77 143.428 61.43 143.738 61.15C144.058 60.87 144.423 60.66 144.833 60.52C145.243 60.37 145.678 60.295 146.138 60.295C146.628 60.295 147.103 60.385 147.563 60.565C148.033 60.745 148.448 61.025 148.808 61.405C149.168 61.785 149.453 62.275 149.663 62.875C149.883 63.465 149.993 64.18 149.993 65.02C149.993 65.91 149.878 66.68 149.648 67.33C149.418 67.98 149.113 68.515 148.733 68.935C148.353 69.355 147.913 69.67 147.413 69.88C146.923 70.08 146.418 70.18 145.898 70.18C145.218 70.18 144.623 70.065 144.113 69.835C143.603 69.605 143.183 69.34 142.853 69.04L144.023 67.72ZM155.147 64.87C155.427 64.87 155.717 64.8 156.017 64.66C156.317 64.52 156.612 64.275 156.902 63.925C156.842 63.555 156.752 63.245 156.632 62.995C156.522 62.735 156.387 62.53 156.227 62.38C156.077 62.22 155.912 62.11 155.732 62.05C155.552 61.98 155.367 61.945 155.177 61.945C154.987 61.945 154.802 61.975 154.622 62.035C154.452 62.095 154.297 62.19 154.157 62.32C154.027 62.44 153.922 62.6 153.842 62.8C153.762 62.99 153.722 63.22 153.722 63.49C153.722 63.98 153.852 64.335 154.112 64.555C154.372 64.765 154.717 64.87 155.147 64.87ZM153.017 67.72C153.217 67.9 153.467 68.06 153.767 68.2C154.067 68.33 154.377 68.395 154.697 68.395C154.987 68.395 155.262 68.345 155.522 68.245C155.792 68.135 156.027 67.965 156.227 67.735C156.437 67.495 156.607 67.185 156.737 66.805C156.867 66.415 156.942 65.94 156.962 65.38C156.612 65.71 156.227 65.97 155.807 66.16C155.397 66.34 155.017 66.43 154.667 66.43C154.247 66.43 153.857 66.37 153.497 66.25C153.137 66.13 152.822 65.95 152.552 65.71C152.292 65.47 152.087 65.165 151.937 64.795C151.787 64.425 151.712 63.99 151.712 63.49C151.712 63 151.802 62.56 151.982 62.17C152.172 61.77 152.422 61.43 152.732 61.15C153.052 60.87 153.417 60.66 153.827 60.52C154.237 60.37 154.672 60.295 155.132 60.295C155.622 60.295 156.097 60.385 156.557 60.565C157.027 60.745 157.442 61.025 157.802 61.405C158.162 61.785 158.447 62.275 158.657 62.875C158.877 63.465 158.987 64.18 158.987 65.02C158.987 65.91 158.872 66.68 158.642 67.33C158.412 67.98 158.107 68.515 157.727 68.935C157.347 69.355 156.907 69.67 156.407 69.88C155.917 70.08 155.412 70.18 154.892 70.18C154.212 70.18 153.617 70.065 153.107 69.835C152.597 69.605 152.177 69.34 151.847 69.04L153.017 67.72ZM142.793 105.74C143.473 105.17 144.093 104.64 144.653 104.15C145.213 103.65 145.693 103.185 146.093 102.755C146.493 102.325 146.803 101.92 147.023 101.54C147.243 101.16 147.353 100.8 147.353 100.46C147.353 99.99 147.218 99.635 146.948 99.395C146.678 99.145 146.293 99.02 145.793 99.02C145.413 99.02 145.063 99.12 144.743 99.32C144.433 99.51 144.143 99.735 143.873 99.995L142.688 98.81C142.938 98.56 143.183 98.34 143.423 98.15C143.673 97.96 143.933 97.805 144.203 97.685C144.483 97.555 144.773 97.46 145.073 97.4C145.383 97.33 145.723 97.295 146.093 97.295C146.593 97.295 147.048 97.37 147.458 97.52C147.868 97.66 148.218 97.865 148.508 98.135C148.808 98.395 149.038 98.71 149.198 99.08C149.368 99.45 149.453 99.865 149.453 100.325C149.453 100.725 149.358 101.135 149.168 101.555C148.978 101.965 148.718 102.38 148.388 102.8C148.068 103.21 147.698 103.625 147.278 104.045C146.858 104.455 146.418 104.86 145.958 105.26C146.228 105.23 146.518 105.205 146.828 105.185C147.148 105.155 147.433 105.14 147.683 105.14H149.948V107H142.793V105.74ZM155.417 107.18C154.867 107.18 154.367 107.075 153.917 106.865C153.467 106.645 153.082 106.325 152.762 105.905C152.442 105.485 152.192 104.965 152.012 104.345C151.842 103.725 151.757 103.01 151.757 102.2C151.757 101.39 151.842 100.68 152.012 100.07C152.192 99.46 152.442 98.95 152.762 98.54C153.082 98.12 153.467 97.81 153.917 97.61C154.367 97.4 154.867 97.295 155.417 97.295C155.967 97.295 156.467 97.4 156.917 97.61C157.367 97.81 157.752 98.12 158.072 98.54C158.392 98.95 158.637 99.46 158.807 100.07C158.987 100.68 159.077 101.39 159.077 102.2C159.077 103.01 158.987 103.725 158.807 104.345C158.637 104.965 158.392 105.485 158.072 105.905C157.752 106.325 157.367 106.645 156.917 106.865C156.467 107.075 155.967 107.18 155.417 107.18ZM155.417 99.005C155.177 99.005 154.952 99.055 154.742 99.155C154.542 99.255 154.367 99.43 154.217 99.68C154.067 99.92 153.947 100.245 153.857 100.655C153.767 101.065 153.722 101.58 153.722 102.2C153.722 102.82 153.767 103.34 153.857 103.76C153.947 104.17 154.067 104.505 154.217 104.765C154.367 105.015 154.542 105.195 154.742 105.305C154.952 105.415 155.177 105.47 155.417 105.47C155.657 105.47 155.877 105.415 156.077 105.305C156.287 105.195 156.467 105.015 156.617 104.765C156.767 104.505 156.887 104.17 156.977 103.76C157.067 103.34 157.112 102.82 157.112 102.2C157.112 101.58 157.067 101.065 156.977 100.655C156.887 100.245 156.767 99.92 156.617 99.68C156.467 99.43 156.287 99.255 156.077 99.155C155.877 99.055 155.657 99.005 155.417 99.005ZM155.417 103.31C155.097 103.31 154.827 103.21 154.607 103.01C154.397 102.8 154.292 102.52 154.292 102.17C154.292 101.82 154.397 101.545 154.607 101.345C154.827 101.135 155.097 101.03 155.417 101.03C155.737 101.03 156.002 101.135 156.212 101.345C156.432 101.545 156.542 101.82 156.542 102.17C156.542 102.52 156.432 102.8 156.212 103.01C156.002 103.21 155.737 103.31 155.417 103.31ZM169.775 162.74C170.455 162.17 171.075 161.64 171.635 161.15C172.195 160.65 172.675 160.185 173.075 159.755C173.475 159.325 173.785 158.92 174.005 158.54C174.225 158.16 174.335 157.8 174.335 157.46C174.335 156.99 174.2 156.635 173.93 156.395C173.66 156.145 173.275 156.02 172.775 156.02C172.395 156.02 172.045 156.12 171.725 156.32C171.415 156.51 171.125 156.735 170.855 156.995L169.67 155.81C169.92 155.56 170.165 155.34 170.405 155.15C170.655 154.96 170.915 154.805 171.185 154.685C171.465 154.555 171.755 154.46 172.055 154.4C172.365 154.33 172.705 154.295 173.075 154.295C173.575 154.295 174.03 154.37 174.44 154.52C174.85 154.66 175.2 154.865 175.49 155.135C175.79 155.395 176.02 155.71 176.18 156.08C176.35 156.45 176.435 156.865 176.435 157.325C176.435 157.725 176.34 158.135 176.15 158.555C175.96 158.965 175.7 159.38 175.37 159.8C175.05 160.21 174.68 160.625 174.26 161.045C173.84 161.455 173.4 161.86 172.94 162.26C173.21 162.23 173.5 162.205 173.81 162.185C174.13 162.155 174.415 162.14 174.665 162.14H176.93V164H169.775V162.74ZM182.399 164.18C181.849 164.18 181.349 164.075 180.899 163.865C180.449 163.645 180.064 163.325 179.744 162.905C179.424 162.485 179.174 161.965 178.994 161.345C178.824 160.725 178.739 160.01 178.739 159.2C178.739 158.39 178.824 157.68 178.994 157.07C179.174 156.46 179.424 155.95 179.744 155.54C180.064 155.12 180.449 154.81 180.899 154.61C181.349 154.4 181.849 154.295 182.399 154.295C182.949 154.295 183.449 154.4 183.899 154.61C184.349 154.81 184.734 155.12 185.054 155.54C185.374 155.95 185.619 156.46 185.789 157.07C185.969 157.68 186.059 158.39 186.059 159.2C186.059 160.01 185.969 160.725 185.789 161.345C185.619 161.965 185.374 162.485 185.054 162.905C184.734 163.325 184.349 163.645 183.899 163.865C183.449 164.075 182.949 164.18 182.399 164.18ZM182.399 156.005C182.159 156.005 181.934 156.055 181.724 156.155C181.524 156.255 181.349 156.43 181.199 156.68C181.049 156.92 180.929 157.245 180.839 157.655C180.749 158.065 180.704 158.58 180.704 159.2C180.704 159.82 180.749 160.34 180.839 160.76C180.929 161.17 181.049 161.505 181.199 161.765C181.349 162.015 181.524 162.195 181.724 162.305C181.934 162.415 182.159 162.47 182.399 162.47C182.639 162.47 182.859 162.415 183.059 162.305C183.269 162.195 183.449 162.015 183.599 161.765C183.749 161.505 183.869 161.17 183.959 160.76C184.049 160.34 184.094 159.82 184.094 159.2C184.094 158.58 184.049 158.065 183.959 157.655C183.869 157.245 183.749 156.92 183.599 156.68C183.449 156.43 183.269 156.255 183.059 156.155C182.859 156.055 182.639 156.005 182.399 156.005ZM182.399 160.31C182.079 160.31 181.809 160.21 181.589 160.01C181.379 159.8 181.274 159.52 181.274 159.17C181.274 158.82 181.379 158.545 181.589 158.345C181.809 158.135 182.079 158.03 182.399 158.03C182.719 158.03 182.984 158.135 183.194 158.345C183.414 158.545 183.524 158.82 183.524 159.17C183.524 159.52 183.414 159.8 183.194 160.01C182.984 160.21 182.719 160.31 182.399 160.31Z" fill="#F0E442"/>
<path d="M8.19571 99.56H13.3857V107H11.1807V101.285H8.19571V99.56ZM12.1857 98.465C11.7557 98.465 11.4007 98.345 11.1207 98.105C10.8507 97.865 10.7157 97.54 10.7157 97.13C10.7157 96.72 10.8507 96.39 11.1207 96.14C11.4007 95.88 11.7557 95.75 12.1857 95.75C12.6157 95.75 12.9657 95.88 13.2357 96.14C13.5157 96.39 13.6557 96.72 13.6557 97.13C13.6557 97.54 13.5157 97.865 13.2357 98.105C12.9657 98.345 12.6157 98.465 12.1857 98.465ZM24.3599 98.33C23.8699 98.14 23.3499 98.045 22.7999 98.045C22.3199 98.045 21.9649 98.15 21.7349 98.36C21.5149 98.57 21.4049 98.9 21.4049 99.35V99.56H23.9699V101.285H21.4049V107H19.1999V101.285H17.2349V99.65L19.1999 99.56V99.365C19.1999 98.935 19.2649 98.535 19.3949 98.165C19.5249 97.795 19.7249 97.475 19.9949 97.205C20.2649 96.925 20.6099 96.705 21.0299 96.545C21.4499 96.385 21.9499 96.305 22.5299 96.305C22.9599 96.305 23.3599 96.345 23.7299 96.425C24.1099 96.505 24.4599 96.6 24.7799 96.71L24.3599 98.33Z" fill="#E69F00"/>
<path d="M46.2723 126.585V128.76H44.0673V118.56H45.8673L46.0323 119.31H46.0773C46.3773 119.04 46.7223 118.82 47.1123 118.65C47.5023 118.47 47.8973 118.38 48.2973 118.38C48.7573 118.38 49.1723 118.47 49.5423 118.65C49.9123 118.83 50.2273 119.085 50.4873 119.415C50.7473 119.745 50.9423 120.145 51.0723 120.615C51.2123 121.075 51.2823 121.59 51.2823 122.16C51.2823 122.8 51.1923 123.37 51.0123 123.87C50.8323 124.36 50.5923 124.78 50.2923 125.13C49.9923 125.47 49.6473 125.73 49.2573 125.91C48.8773 126.09 48.4773 126.18 48.0573 126.18C47.3773 126.18 46.7573 125.91 46.1973 125.37L46.2723 126.585ZM46.2723 123.885C46.4823 124.065 46.6973 124.195 46.9173 124.275C47.1473 124.345 47.3573 124.38 47.5473 124.38C47.9673 124.38 48.3173 124.21 48.5973 123.87C48.8773 123.52 49.0173 122.96 49.0173 122.19C49.0173 120.85 48.5623 120.18 47.6523 120.18C47.1823 120.18 46.7223 120.41 46.2723 120.87V123.885ZM53.7214 118.56H55.5214L55.7014 120.18H55.7464C56.1164 119.57 56.5614 119.12 57.0814 118.83C57.6014 118.53 58.1614 118.38 58.7614 118.38C59.0914 118.38 59.3564 118.405 59.5564 118.455C59.7664 118.505 59.9814 118.58 60.2014 118.68L59.7514 120.525C59.5214 120.455 59.3114 120.405 59.1214 120.375C58.9414 120.335 58.7114 120.315 58.4314 120.315C57.9714 120.315 57.5164 120.45 57.0664 120.72C56.6264 120.99 56.2464 121.46 55.9264 122.13V126H53.7214V118.56ZM62.1606 118.56H67.3506V126H65.1456V120.285H62.1606V118.56ZM66.1506 117.465C65.7206 117.465 65.3656 117.345 65.0856 117.105C64.8156 116.865 64.6806 116.54 64.6806 116.13C64.6806 115.72 64.8156 115.39 65.0856 115.14C65.3656 114.88 65.7206 114.75 66.1506 114.75C66.5806 114.75 66.9306 114.88 67.2006 115.14C67.4806 115.39 67.6206 115.72 67.6206 116.13C67.6206 116.54 67.4806 116.865 67.2006 117.105C66.9306 117.345 66.5806 117.465 66.1506 117.465ZM71.0497 118.56H72.8497L73.0147 119.55H73.0747C73.3947 119.23 73.7597 118.955 74.1697 118.725C74.5897 118.495 75.0797 118.38 75.6397 118.38C76.4797 118.38 77.0947 118.65 77.4847 119.19C77.8747 119.73 78.0697 120.47 78.0697 121.41V126H75.8647V121.695C75.8647 121.195 75.7847 120.83 75.6247 120.6C75.4647 120.37 75.1797 120.255 74.7697 120.255C74.4697 120.255 74.2047 120.32 73.9747 120.45C73.7547 120.58 73.5147 120.775 73.2547 121.035V126H71.0497V118.56ZM81.5738 120.285H79.6988V118.65L81.6788 118.56L81.9638 116.58H83.7788V118.56H86.9288V120.285H83.7788V122.895C83.7788 123.465 83.9038 123.87 84.1538 124.11C84.4038 124.34 84.7988 124.455 85.3388 124.455C85.6288 124.455 85.8938 124.43 86.1338 124.38C86.3738 124.33 86.6038 124.265 86.8238 124.185L87.2138 125.775C86.8838 125.875 86.5138 125.965 86.1038 126.045C85.7038 126.135 85.2638 126.18 84.7838 126.18C84.1938 126.18 83.6938 126.1 83.2838 125.94C82.8738 125.78 82.5388 125.56 82.2788 125.28C82.0288 124.99 81.8488 124.645 81.7388 124.245C81.6288 123.845 81.5738 123.4 81.5738 122.91V120.285ZM10.2957 164.585V166.76H8.09071V156.56H9.89071L10.0557 157.31H10.1007C10.4007 157.04 10.7457 156.82 11.1357 156.65C11.5257 156.47 11.9207 156.38 12.3207 156.38C12.7807 156.38 13.1957 156.47 13.5657 156.65C13.9357 156.83 14.2507 157.085 14.5107 157.415C14.7707 157.745 14.9657 158.145 15.0957 158.615C15.2357 159.075 15.3057 159.59 15.3057 160.16C15.3057 160.8 15.2157 161.37 15.0357 161.87C14.8557 162.36 14.6157 162.78 14.3157 163.13C14.0157 163.47 13.6707 163.73 13.2807 163.91C12.9007 164.09 12.5007 164.18 12.0807 164.18C11.4007 164.18 10.7807 163.91 10.2207 163.37L10.2957 164.585ZM10.2957 161.885C10.5057 162.065 10.7207 162.195 10.9407 162.275C11.1707 162.345 11.3807 162.38 11.5707 162.38C11.9907 162.38 12.3407 162.21 12.6207 161.87C12.9007 161.52 13.0407 160.96 13.0407 160.19C13.0407 158.85 12.5857 158.18 11.6757 158.18C11.2057 158.18 10.7457 158.41 10.2957 158.87V161.885ZM17.7449 156.56H19.5449L19.7249 158.18H19.7699C20.1399 157.57 20.5849 157.12 21.1049 156.83C21.6249 156.53 22.1849 156.38 22.7849 156.38C23.1149 156.38 23.3799 156.405 23.5799 156.455C23.7899 156.505 24.0049 156.58 24.2249 156.68L23.7749 158.525C23.5449 158.455 23.3349 158.405 23.1449 158.375C22.9649 158.335 22.7349 158.315 22.4549 158.315C21.9949 158.315 21.5399 158.45 21.0899 158.72C20.6499 158.99 20.2699 159.46 19.9499 160.13V164H17.7449V156.56ZM26.184 156.56H31.374V164H29.169V158.285H26.184V156.56ZM30.174 155.465C29.744 155.465 29.389 155.345 29.109 155.105C28.839 154.865 28.704 154.54 28.704 154.13C28.704 153.72 28.839 153.39 29.109 153.14C29.389 152.88 29.744 152.75 30.174 152.75C30.604 152.75 30.954 152.88 31.224 153.14C31.504 153.39 31.644 153.72 31.644 154.13C31.644 154.54 31.504 154.865 31.224 155.105C30.954 155.345 30.604 155.465 30.174 155.465ZM35.0731 156.56H36.8731L37.0381 157.55H37.0981C37.4181 157.23 37.7831 156.955 38.1931 156.725C38.6131 156.495 39.1031 156.38 39.6631 156.38C40.5031 156.38 41.1181 156.65 41.5081 157.19C41.8981 157.73 42.0931 158.47 42.0931 159.41V164H39.8881V159.695C39.8881 159.195 39.8081 158.83 39.6481 158.6C39.4881 158.37 39.2031 158.255 38.7931 158.255C38.4931 158.255 38.2281 158.32 37.9981 158.45C37.7781 158.58 37.5381 158.775 37.2781 159.035V164H35.0731V156.56ZM45.5973 158.285H43.7223V156.65L45.7023 156.56L45.9873 154.58H47.8023V156.56H50.9523V158.285H47.8023V160.895C47.8023 161.465 47.9273 161.87 48.1773 162.11C48.4273 162.34 48.8223 162.455 49.3623 162.455C49.6523 162.455 49.9173 162.43 50.1573 162.38C50.3973 162.33 50.6273 162.265 50.8473 162.185L51.2373 163.775C50.9073 163.875 50.5373 163.965 50.1273 164.045C49.7273 164.135 49.2873 164.18 48.8073 164.18C48.2173 164.18 47.7173 164.1 47.3073 163.94C46.8973 163.78 46.5623 163.56 46.3023 163.28C46.0523 162.99 45.8723 162.645 45.7623 162.245C45.6523 161.845 45.5973 161.4 45.5973 160.91V158.285Z" fill="#56B4E9"/>
</svg>
