<svg width="352" height="179" viewBox="0 0 352 179" fill="none" xmlns="http://www.w3.org/2000/svg">
<rect width="352" height="179" fill="black"/>
<path d="M10.39 115.08H7.465V113.22H15.535V115.08H12.61V123H10.39V115.08ZM17.7341 115.56H19.5341L19.7141 117.18H19.7591C20.1291 116.57 20.5741 116.12 21.0941 115.83C21.6141 115.53 22.1741 115.38 22.7741 115.38C23.1041 115.38 23.3691 115.405 23.5691 115.455C23.7791 115.505 23.9941 115.58 24.2141 115.68L23.7641 117.525C23.5341 117.455 23.3241 117.405 23.1341 117.375C22.9541 117.335 22.7241 117.315 22.4441 117.315C21.9841 117.315 21.5291 117.45 21.0791 117.72C20.6391 117.99 20.2591 118.46 19.9391 119.13V123H17.7341V115.56ZM32.8633 123H31.0633L30.8983 121.935H30.8383C30.5083 122.315 30.1433 122.62 29.7433 122.85C29.3433 123.07 28.8733 123.18 28.3333 123.18C27.4833 123.18 26.8683 122.91 26.4883 122.37C26.1083 121.83 25.9183 121.09 25.9183 120.15V115.56H28.1233V119.865C28.1233 120.365 28.1983 120.73 28.3483 120.96C28.4983 121.19 28.7833 121.305 29.2033 121.305C29.4833 121.305 29.7283 121.245 29.9383 121.125C30.1583 121.005 30.3983 120.78 30.6583 120.45V115.56H32.8633V123ZM34.8074 119.28C34.8074 118.67 34.9124 118.125 35.1224 117.645C35.3424 117.165 35.6324 116.76 35.9924 116.43C36.3524 116.09 36.7624 115.83 37.2224 115.65C37.6924 115.47 38.1774 115.38 38.6774 115.38C39.2474 115.38 39.7524 115.47 40.1924 115.65C40.6324 115.83 40.9974 116.08 41.2874 116.4C41.5774 116.72 41.7974 117.1 41.9474 117.54C42.0974 117.97 42.1724 118.44 42.1724 118.95C42.1724 119.15 42.1624 119.34 42.1424 119.52C42.1224 119.7 42.1024 119.835 42.0824 119.925H37.0724C37.1524 120.485 37.3924 120.89 37.7924 121.14C38.2024 121.38 38.6824 121.5 39.2324 121.5C39.5724 121.5 39.8924 121.46 40.1924 121.38C40.5024 121.29 40.8224 121.16 41.1524 120.99L41.8724 122.31C41.4524 122.58 40.9824 122.795 40.4624 122.955C39.9424 123.105 39.4324 123.18 38.9324 123.18C38.3524 123.18 37.8124 123.095 37.3124 122.925C36.8124 122.745 36.3774 122.49 36.0074 122.16C35.6374 121.82 35.3424 121.41 35.1224 120.93C34.9124 120.45 34.8074 119.9 34.8074 119.28ZM40.1774 118.47C40.1774 118.05 40.0624 117.71 39.8324 117.45C39.6024 117.19 39.2324 117.06 38.7224 117.06C38.3224 117.06 37.9674 117.175 37.6574 117.405C37.3474 117.635 37.1424 117.99 37.0424 118.47H40.1774ZM8.62 132.22H15.07V134.08H10.825V136.345H14.44V138.205H10.825V142H8.62V132.22ZM16.9091 139.93C16.9091 139.51 16.9991 139.145 17.1791 138.835C17.3591 138.515 17.6441 138.245 18.0341 138.025C18.4341 137.805 18.9441 137.63 19.5641 137.5C20.1841 137.36 20.9341 137.265 21.8141 137.215C21.7741 136.875 21.6241 136.61 21.3641 136.42C21.1141 136.23 20.7341 136.135 20.2241 136.135C19.8641 136.135 19.4991 136.2 19.1291 136.33C18.7691 136.45 18.3791 136.615 17.9591 136.825L17.1791 135.385C17.6891 135.095 18.2341 134.855 18.8141 134.665C19.4041 134.475 20.0191 134.38 20.6591 134.38C21.6991 134.38 22.5191 134.655 23.1191 135.205C23.7191 135.755 24.0191 136.6 24.0191 137.74V142H22.2191L22.0541 141.16H21.9941C21.6141 141.45 21.1991 141.695 20.7491 141.895C20.2991 142.085 19.8341 142.18 19.3541 142.18C18.9741 142.18 18.6341 142.12 18.3341 142C18.0341 141.89 17.7791 141.735 17.5691 141.535C17.3591 141.325 17.1941 141.085 17.0741 140.815C16.9641 140.545 16.9091 140.25 16.9091 139.93ZM19.0241 139.765C19.0241 140.005 19.1141 140.185 19.2941 140.305C19.4841 140.415 19.7391 140.47 20.0591 140.47C20.3891 140.47 20.6991 140.405 20.9891 140.275C21.2791 140.135 21.5541 139.965 21.8141 139.765V138.535C21.2641 138.565 20.8091 138.615 20.4491 138.685C20.0891 138.755 19.8041 138.845 19.5941 138.955C19.3841 139.055 19.2341 139.175 19.1441 139.315C19.0641 139.455 19.0241 139.605 19.0241 139.765ZM25.9183 131.485H30.2833V139.18C30.2833 139.41 30.3133 139.605 30.3733 139.765C30.4433 139.915 30.5333 140.04 30.6433 140.14C30.7633 140.23 30.8933 140.295 31.0333 140.335C31.1833 140.375 31.3333 140.395 31.4833 140.395C31.6533 140.395 31.8333 140.38 32.0233 140.35C32.2133 140.31 32.4233 140.245 32.6533 140.155L33.1483 141.775C32.9483 141.835 32.7633 141.89 32.5933 141.94C32.4233 141.99 32.2533 142.03 32.0833 142.06C31.9133 142.1 31.7333 142.13 31.5433 142.15C31.3533 142.17 31.1433 142.18 30.9133 142.18C29.9733 142.18 29.2633 141.905 28.7833 141.355C28.3133 140.795 28.0783 140.04 28.0783 139.09V133.225H25.9183V131.485ZM35.7674 139.66C36.1974 139.93 36.6274 140.145 37.0574 140.305C37.4974 140.465 37.9674 140.545 38.4674 140.545C38.9774 140.545 39.3424 140.49 39.5624 140.38C39.7824 140.27 39.8924 140.115 39.8924 139.915C39.8924 139.685 39.7074 139.5 39.3374 139.36C38.9774 139.21 38.4974 139.05 37.8974 138.88C37.5674 138.79 37.2424 138.685 36.9224 138.565C36.6124 138.435 36.3324 138.285 36.0824 138.115C35.8324 137.935 35.6274 137.73 35.4674 137.5C35.3174 137.27 35.2424 137.005 35.2424 136.705C35.2424 136.365 35.3224 136.05 35.4824 135.76C35.6424 135.47 35.8674 135.225 36.1574 135.025C36.4574 134.825 36.8174 134.67 37.2374 134.56C37.6674 134.44 38.1474 134.38 38.6774 134.38C39.3374 134.38 39.9374 134.49 40.4774 134.71C41.0274 134.92 41.4974 135.15 41.8874 135.4L40.8974 136.72C40.5574 136.52 40.2074 136.355 39.8474 136.225C39.4874 136.085 39.1124 136.015 38.7224 136.015C38.2524 136.015 37.9174 136.065 37.7174 136.165C37.5274 136.265 37.4324 136.41 37.4324 136.6C37.4324 136.71 37.4824 136.81 37.5824 136.9C37.6824 136.99 37.8174 137.07 37.9874 137.14C38.1574 137.21 38.3574 137.28 38.5874 137.35C38.8274 137.41 39.0774 137.475 39.3374 137.545C39.7074 137.645 40.0574 137.76 40.3874 137.89C40.7174 138.01 41.0074 138.155 41.2574 138.325C41.5074 138.495 41.7074 138.7 41.8574 138.94C42.0074 139.18 42.0824 139.46 42.0824 139.78C42.0824 140.12 42.0024 140.435 41.8424 140.725C41.6824 141.015 41.4474 141.27 41.1374 141.49C40.8374 141.7 40.4574 141.87 39.9974 142C39.5474 142.12 39.0224 142.18 38.4224 142.18C37.7524 142.18 37.0974 142.07 36.4574 141.85C35.8174 141.63 35.2574 141.36 34.7774 141.04L35.7674 139.66ZM43.8016 138.28C43.8016 137.67 43.9066 137.125 44.1166 136.645C44.3366 136.165 44.6266 135.76 44.9866 135.43C45.3466 135.09 45.7566 134.83 46.2166 134.65C46.6866 134.47 47.1716 134.38 47.6716 134.38C48.2416 134.38 48.7466 134.47 49.1866 134.65C49.6266 134.83 49.9916 135.08 50.2816 135.4C50.5716 135.72 50.7916 136.1 50.9416 136.54C51.0916 136.97 51.1666 137.44 51.1666 137.95C51.1666 138.15 51.1566 138.34 51.1366 138.52C51.1166 138.7 51.0966 138.835 51.0766 138.925H46.0666C46.1466 139.485 46.3866 139.89 46.7866 140.14C47.1966 140.38 47.6766 140.5 48.2266 140.5C48.5666 140.5 48.8866 140.46 49.1866 140.38C49.4966 140.29 49.8166 140.16 50.1466 139.99L50.8666 141.31C50.4466 141.58 49.9766 141.795 49.4566 141.955C48.9366 142.105 48.4266 142.18 47.9266 142.18C47.3466 142.18 46.8066 142.095 46.3066 141.925C45.8066 141.745 45.3716 141.49 45.0016 141.16C44.6316 140.82 44.3366 140.41 44.1166 139.93C43.9066 139.45 43.8016 138.9 43.8016 138.28ZM49.1716 137.47C49.1716 137.05 49.0566 136.71 48.8266 136.45C48.5966 136.19 48.2266 136.06 47.7166 136.06C47.3166 136.06 46.9616 136.175 46.6516 136.405C46.3416 136.635 46.1366 136.99 46.0366 137.47H49.1716Z" fill="white"/>
<path d="M11.5 99.18C10.92 99.18 10.385 99.065 9.895 98.835C9.415 98.595 9 98.255 8.65 97.815C8.31 97.375 8.045 96.84 7.855 96.21C7.665 95.58 7.57 94.865 7.57 94.065C7.57 93.265 7.665 92.555 7.855 91.935C8.045 91.305 8.31 90.78 8.65 90.36C9 89.93 9.415 89.605 9.895 89.385C10.385 89.155 10.92 89.04 11.5 89.04C12.08 89.04 12.61 89.155 13.09 89.385C13.58 89.605 13.995 89.93 14.335 90.36C14.685 90.79 14.955 91.32 15.145 91.95C15.335 92.57 15.43 93.275 15.43 94.065C15.43 94.865 15.335 95.58 15.145 96.21C14.955 96.84 14.685 97.375 14.335 97.815C13.995 98.255 13.58 98.595 13.09 98.835C12.61 99.065 12.08 99.18 11.5 99.18ZM11.5 97.275C12.01 97.275 12.415 96.99 12.715 96.42C13.015 95.84 13.165 95.055 13.165 94.065C13.165 93.085 13.015 92.32 12.715 91.77C12.415 91.22 12.01 90.945 11.5 90.945C10.99 90.945 10.585 91.22 10.285 91.77C9.985 92.32 9.835 93.085 9.835 94.065C9.835 95.055 9.985 95.84 10.285 96.42C10.585 96.99 10.99 97.275 11.5 97.275ZM23.8691 99H22.0691L21.9041 97.935H21.8441C21.5141 98.315 21.1491 98.62 20.7491 98.85C20.3491 99.07 19.8791 99.18 19.3391 99.18C18.4891 99.18 17.8741 98.91 17.4941 98.37C17.1141 97.83 16.9241 97.09 16.9241 96.15V91.56H19.1291V95.865C19.1291 96.365 19.2041 96.73 19.3541 96.96C19.5041 97.19 19.7891 97.305 20.2091 97.305C20.4891 97.305 20.7341 97.245 20.9441 97.125C21.1641 97.005 21.4041 96.78 21.6641 96.45V91.56H23.8691V99ZM27.5983 93.285H25.7233V91.65L27.7033 91.56L27.9883 89.58H29.8033V91.56H32.9533V93.285H29.8033V95.895C29.8033 96.465 29.9283 96.87 30.1783 97.11C30.4283 97.34 30.8233 97.455 31.3633 97.455C31.6533 97.455 31.9183 97.43 32.1583 97.38C32.3983 97.33 32.6283 97.265 32.8483 97.185L33.2383 98.775C32.9083 98.875 32.5383 98.965 32.1283 99.045C31.7283 99.135 31.2883 99.18 30.8083 99.18C30.2183 99.18 29.7183 99.1 29.3083 98.94C28.8983 98.78 28.5633 98.56 28.3033 98.28C28.0533 97.99 27.8733 97.645 27.7633 97.245C27.6533 96.845 27.5983 96.4 27.5983 95.91V93.285ZM37.2674 99.585V101.76H35.0624V91.56H36.8624L37.0274 92.31H37.0724C37.3724 92.04 37.7174 91.82 38.1074 91.65C38.4974 91.47 38.8924 91.38 39.2924 91.38C39.7524 91.38 40.1674 91.47 40.5374 91.65C40.9074 91.83 41.2224 92.085 41.4824 92.415C41.7424 92.745 41.9374 93.145 42.0674 93.615C42.2074 94.075 42.2774 94.59 42.2774 95.16C42.2774 95.8 42.1874 96.37 42.0074 96.87C41.8274 97.36 41.5874 97.78 41.2874 98.13C40.9874 98.47 40.6424 98.73 40.2524 98.91C39.8724 99.09 39.4724 99.18 39.0524 99.18C38.3724 99.18 37.7524 98.91 37.1924 98.37L37.2674 99.585ZM37.2674 96.885C37.4774 97.065 37.6924 97.195 37.9124 97.275C38.1424 97.345 38.3524 97.38 38.5424 97.38C38.9624 97.38 39.3124 97.21 39.5924 96.87C39.8724 96.52 40.0124 95.96 40.0124 95.19C40.0124 93.85 39.5574 93.18 38.6474 93.18C38.1774 93.18 37.7174 93.41 37.2674 93.87V96.885ZM50.8516 99H49.0516L48.8866 97.935H48.8266C48.4966 98.315 48.1316 98.62 47.7316 98.85C47.3316 99.07 46.8616 99.18 46.3216 99.18C45.4716 99.18 44.8566 98.91 44.4766 98.37C44.0966 97.83 43.9066 97.09 43.9066 96.15V91.56H46.1116V95.865C46.1116 96.365 46.1866 96.73 46.3366 96.96C46.4866 97.19 46.7716 97.305 47.1916 97.305C47.4716 97.305 47.7166 97.245 47.9266 97.125C48.1466 97.005 48.3866 96.78 48.6466 96.45V91.56H50.8516V99ZM54.5807 93.285H52.7057V91.65L54.6857 91.56L54.9707 89.58H56.7857V91.56H59.9357V93.285H56.7857V95.895C56.7857 96.465 56.9107 96.87 57.1607 97.11C57.4107 97.34 57.8057 97.455 58.3457 97.455C58.6357 97.455 58.9007 97.43 59.1407 97.38C59.3807 97.33 59.6107 97.265 59.8307 97.185L60.2207 98.775C59.8907 98.875 59.5207 98.965 59.1107 99.045C58.7107 99.135 58.2707 99.18 57.7907 99.18C57.2007 99.18 56.7007 99.1 56.2907 98.94C55.8807 98.78 55.5457 98.56 55.2857 98.28C55.0357 97.99 54.8557 97.645 54.7457 97.245C54.6357 96.845 54.5807 96.4 54.5807 95.91V93.285Z" fill="white"/>
<rect x="79" width="273" height="31" fill="#333333"/>
<rect x="79" width="273" height="31" fill="#333333"/>
<rect x="0.0107117" width="79" height="31" fill="#090808"/>
<path d="M12.1157 17.8101C12.1157 17.5513 11.9863 17.3486 11.7275 17.2021C11.4736 17.0508 11.0634 16.9165 10.497 16.7993C8.61227 16.4038 7.66989 15.603 7.66989 14.397C7.66989 13.6938 7.96042 13.1079 8.54147 12.6392C9.12741 12.1655 9.89157 11.9287 10.834 11.9287C11.8398 11.9287 12.643 12.1655 13.2436 12.6392C13.8491 13.1128 14.1518 13.728 14.1518 14.4849H12.0351C12.0351 14.1821 11.9375 13.9331 11.7422 13.7378C11.5468 13.5376 11.2417 13.4375 10.8266 13.4375C10.4702 13.4375 10.1943 13.5181 9.99899 13.6792C9.80368 13.8403 9.70602 14.0454 9.70602 14.2944C9.70602 14.5288 9.81589 14.7192 10.0356 14.8657C10.2602 15.0073 10.6362 15.1318 11.1635 15.2393C11.6909 15.3418 12.1352 15.459 12.4966 15.5908C13.6147 16.001 14.1738 16.7114 14.1738 17.7222C14.1738 18.4448 13.8637 19.0308 13.2436 19.48C12.6235 19.9243 11.8227 20.1465 10.8413 20.1465C10.1772 20.1465 9.5864 20.0293 9.06882 19.7949C8.55612 19.5557 8.15329 19.231 7.86032 18.8208C7.56735 18.4058 7.42087 17.959 7.42087 17.4805H9.4277C9.44724 17.8564 9.5864 18.1445 9.84518 18.3447C10.104 18.5449 10.4507 18.645 10.8852 18.645C11.2905 18.645 11.5957 18.5693 11.8008 18.418C12.0107 18.2617 12.1157 18.0591 12.1157 17.8101ZM18.8393 18.4399C19.2299 18.4399 19.5473 18.3325 19.7915 18.1177C20.0356 17.9028 20.1626 17.6172 20.1723 17.2607H22.1572C22.1523 17.7979 22.0058 18.291 21.7177 18.7402C21.4297 19.1846 21.0341 19.5312 20.5312 19.7803C20.0332 20.0244 19.4814 20.1465 18.8759 20.1465C17.7431 20.1465 16.8496 19.7876 16.1953 19.0698C15.541 18.3472 15.2138 17.3511 15.2138 16.0815V15.9424C15.2138 14.7217 15.5385 13.7476 16.188 13.02C16.8374 12.2925 17.7285 11.9287 18.8613 11.9287C19.8525 11.9287 20.646 12.2119 21.2417 12.7783C21.8423 13.3398 22.1474 14.0894 22.1572 15.0269H20.1723C20.1626 14.6167 20.0356 14.2847 19.7915 14.0308C19.5473 13.772 19.2251 13.6426 18.8247 13.6426C18.3315 13.6426 17.958 13.8232 17.7041 14.1846C17.455 14.541 17.3305 15.1221 17.3305 15.9277V16.1475C17.3305 16.9629 17.455 17.5488 17.7041 17.9053C17.9531 18.2617 18.3315 18.4399 18.8393 18.4399ZM27.8188 14.0601C27.5307 14.021 27.2768 14.0015 27.0571 14.0015C26.2563 14.0015 25.7314 14.2725 25.4824 14.8145V20H23.3657V12.0752H25.3652L25.4238 13.02C25.8486 12.2925 26.437 11.9287 27.1889 11.9287C27.4233 11.9287 27.643 11.9604 27.8481 12.0239L27.8188 14.0601ZM31.0781 20H28.9541V12.0752H31.0781V20ZM28.8296 10.0244C28.8296 9.70703 28.9345 9.4458 29.1445 9.24072C29.3593 9.03564 29.6499 8.93311 30.0161 8.93311C30.3774 8.93311 30.6655 9.03564 30.8803 9.24072C31.0952 9.4458 31.2026 9.70703 31.2026 10.0244C31.2026 10.3467 31.0927 10.6104 30.873 10.8154C30.6582 11.0205 30.3725 11.123 30.0161 11.123C29.6596 11.123 29.3716 11.0205 29.1518 10.8154C28.937 10.6104 28.8296 10.3467 28.8296 10.0244ZM39.9624 16.1108C39.9624 17.3315 39.6841 18.3105 39.1274 19.0479C38.5757 19.7803 37.8286 20.1465 36.8862 20.1465C36.0854 20.1465 35.4384 19.8682 34.9453 19.3115V23.0469H32.8286V12.0752H34.7915L34.8647 12.8516C35.3774 12.2363 36.0464 11.9287 36.8716 11.9287C37.8481 11.9287 38.6074 12.29 39.1494 13.0127C39.6914 13.7354 39.9624 14.7314 39.9624 16.001V16.1108ZM37.8457 15.957C37.8457 15.2197 37.7138 14.6509 37.4502 14.2505C37.1914 13.8501 36.813 13.6499 36.3149 13.6499C35.6508 13.6499 35.1943 13.9038 34.9453 14.4116V17.6562C35.2041 18.1787 35.6655 18.4399 36.3296 18.4399C37.3403 18.4399 37.8457 17.6123 37.8457 15.957ZM43.8149 10.127V12.0752H45.1699V13.6279H43.8149V17.583C43.8149 17.876 43.8711 18.0859 43.9834 18.2129C44.0957 18.3398 44.3105 18.4033 44.6279 18.4033C44.8623 18.4033 45.0698 18.3862 45.2505 18.3521V19.9561C44.8354 20.083 44.4082 20.1465 43.9687 20.1465C42.4843 20.1465 41.7275 19.397 41.6982 17.8979V13.6279H40.541V12.0752H41.6982V10.127H43.8149ZM46.459 18.96C46.459 18.623 46.5713 18.3496 46.7959 18.1396C47.0254 17.9297 47.311 17.8247 47.6528 17.8247C47.9995 17.8247 48.2851 17.9297 48.5097 18.1396C48.7392 18.3496 48.854 18.623 48.854 18.96C48.854 19.292 48.7417 19.563 48.5171 19.7729C48.2924 19.978 48.0044 20.0806 47.6528 20.0806C47.3061 20.0806 47.0205 19.978 46.7959 19.7729C46.5713 19.563 46.459 19.292 46.459 18.96ZM57.8481 16.1108C57.8481 17.3315 57.5698 18.3105 57.0132 19.0479C56.4614 19.7803 55.7143 20.1465 54.7719 20.1465C53.9712 20.1465 53.3242 19.8682 52.831 19.3115V23.0469H50.7143V12.0752H52.6772L52.7505 12.8516C53.2632 12.2363 53.9321 11.9287 54.7573 11.9287C55.7339 11.9287 56.4931 12.29 57.0351 13.0127C57.5771 13.7354 57.8481 14.7314 57.8481 16.001V16.1108ZM55.7314 15.957C55.7314 15.2197 55.5996 14.6509 55.3359 14.2505C55.0771 13.8501 54.6987 13.6499 54.2007 13.6499C53.5366 13.6499 53.08 13.9038 52.831 14.4116V17.6562C53.0898 18.1787 53.5512 18.4399 54.2153 18.4399C55.226 18.4399 55.7314 17.6123 55.7314 15.957ZM62.0376 17.0044L63.5024 12.0752H65.7729L62.5869 21.2305L62.4111 21.6479C61.9375 22.6831 61.1562 23.2007 60.0674 23.2007C59.7597 23.2007 59.4472 23.1543 59.1299 23.0615V21.4575L59.4521 21.4648C59.8525 21.4648 60.1504 21.4038 60.3457 21.2817C60.5459 21.1597 60.7021 20.957 60.8144 20.6738L61.0634 20.022L58.2876 12.0752H60.5654L62.0376 17.0044Z" fill="white"/>
<line y1="83.5" x2="352" y2="83.5" stroke="white"/>
<path d="M10.2957 51.585V53.76H8.09071V43.56H9.89071L10.0557 44.31H10.1007C10.4007 44.04 10.7457 43.82 11.1357 43.65C11.5257 43.47 11.9207 43.38 12.3207 43.38C12.7807 43.38 13.1957 43.47 13.5657 43.65C13.9357 43.83 14.2507 44.085 14.5107 44.415C14.7707 44.745 14.9657 45.145 15.0957 45.615C15.2357 46.075 15.3057 46.59 15.3057 47.16C15.3057 47.8 15.2157 48.37 15.0357 48.87C14.8557 49.36 14.6157 49.78 14.3157 50.13C14.0157 50.47 13.6707 50.73 13.2807 50.91C12.9007 51.09 12.5007 51.18 12.0807 51.18C11.4007 51.18 10.7807 50.91 10.2207 50.37L10.2957 51.585ZM10.2957 48.885C10.5057 49.065 10.7207 49.195 10.9407 49.275C11.1707 49.345 11.3807 49.38 11.5707 49.38C11.9907 49.38 12.3407 49.21 12.6207 48.87C12.9007 48.52 13.0407 47.96 13.0407 47.19C13.0407 45.85 12.5857 45.18 11.6757 45.18C11.2057 45.18 10.7457 45.41 10.2957 45.87V48.885ZM17.7449 43.56H19.5449L19.7249 45.18H19.7699C20.1399 44.57 20.5849 44.12 21.1049 43.83C21.6249 43.53 22.1849 43.38 22.7849 43.38C23.1149 43.38 23.3799 43.405 23.5799 43.455C23.7899 43.505 24.0049 43.58 24.2249 43.68L23.7749 45.525C23.5449 45.455 23.3349 45.405 23.1449 45.375C22.9649 45.335 22.7349 45.315 22.4549 45.315C21.9949 45.315 21.5399 45.45 21.0899 45.72C20.6499 45.99 20.2699 46.46 19.9499 47.13V51H17.7449V43.56ZM26.184 43.56H31.374V51H29.169V45.285H26.184V43.56ZM30.174 42.465C29.744 42.465 29.389 42.345 29.109 42.105C28.839 41.865 28.704 41.54 28.704 41.13C28.704 40.72 28.839 40.39 29.109 40.14C29.389 39.88 29.744 39.75 30.174 39.75C30.604 39.75 30.954 39.88 31.224 40.14C31.504 40.39 31.644 40.72 31.644 41.13C31.644 41.54 31.504 41.865 31.224 42.105C30.954 42.345 30.604 42.465 30.174 42.465ZM35.0731 43.56H36.8731L37.0381 44.55H37.0981C37.4181 44.23 37.7831 43.955 38.1931 43.725C38.6131 43.495 39.1031 43.38 39.6631 43.38C40.5031 43.38 41.1181 43.65 41.5081 44.19C41.8981 44.73 42.0931 45.47 42.0931 46.41V51H39.8881V46.695C39.8881 46.195 39.8081 45.83 39.6481 45.6C39.4881 45.37 39.2031 45.255 38.7931 45.255C38.4931 45.255 38.2281 45.32 37.9981 45.45C37.7781 45.58 37.5381 45.775 37.2781 46.035V51H35.0731V43.56ZM45.5973 45.285H43.7223V43.65L45.7023 43.56L45.9873 41.58H47.8023V43.56H50.9523V45.285H47.8023V47.895C47.8023 48.465 47.9273 48.87 48.1773 49.11C48.4273 49.34 48.8223 49.455 49.3623 49.455C49.6523 49.455 49.9173 49.43 50.1573 49.38C50.3973 49.33 50.6273 49.265 50.8473 49.185L51.2373 50.775C50.9073 50.875 50.5373 50.965 50.1273 51.045C49.7273 51.135 49.2873 51.18 48.8073 51.18C48.2173 51.18 47.7173 51.1 47.3073 50.94C46.8973 50.78 46.5623 50.56 46.3023 50.28C46.0523 49.99 45.8723 49.645 45.7623 49.245C45.6523 48.845 45.5973 48.4 45.5973 47.91V45.285ZM10.2957 70.585V72.76H8.09071V62.56H9.89071L10.0557 63.31H10.1007C10.4007 63.04 10.7457 62.82 11.1357 62.65C11.5257 62.47 11.9207 62.38 12.3207 62.38C12.7807 62.38 13.1957 62.47 13.5657 62.65C13.9357 62.83 14.2507 63.085 14.5107 63.415C14.7707 63.745 14.9657 64.145 15.0957 64.615C15.2357 65.075 15.3057 65.59 15.3057 66.16C15.3057 66.8 15.2157 67.37 15.0357 67.87C14.8557 68.36 14.6157 68.78 14.3157 69.13C14.0157 69.47 13.6707 69.73 13.2807 69.91C12.9007 70.09 12.5007 70.18 12.0807 70.18C11.4007 70.18 10.7807 69.91 10.2207 69.37L10.2957 70.585ZM10.2957 67.885C10.5057 68.065 10.7207 68.195 10.9407 68.275C11.1707 68.345 11.3807 68.38 11.5707 68.38C11.9907 68.38 12.3407 68.21 12.6207 67.87C12.9007 67.52 13.0407 66.96 13.0407 66.19C13.0407 64.85 12.5857 64.18 11.6757 64.18C11.2057 64.18 10.7457 64.41 10.2957 64.87V67.885ZM17.7449 62.56H19.5449L19.7249 64.18H19.7699C20.1399 63.57 20.5849 63.12 21.1049 62.83C21.6249 62.53 22.1849 62.38 22.7849 62.38C23.1149 62.38 23.3799 62.405 23.5799 62.455C23.7899 62.505 24.0049 62.58 24.2249 62.68L23.7749 64.525C23.5449 64.455 23.3349 64.405 23.1449 64.375C22.9649 64.335 22.7349 64.315 22.4549 64.315C21.9949 64.315 21.5399 64.45 21.0899 64.72C20.6499 64.99 20.2699 65.46 19.9499 66.13V70H17.7449V62.56ZM26.184 62.56H31.374V70H29.169V64.285H26.184V62.56ZM30.174 61.465C29.744 61.465 29.389 61.345 29.109 61.105C28.839 60.865 28.704 60.54 28.704 60.13C28.704 59.72 28.839 59.39 29.109 59.14C29.389 58.88 29.744 58.75 30.174 58.75C30.604 58.75 30.954 58.88 31.224 59.14C31.504 59.39 31.644 59.72 31.644 60.13C31.644 60.54 31.504 60.865 31.224 61.105C30.954 61.345 30.604 61.465 30.174 61.465ZM35.0731 62.56H36.8731L37.0381 63.55H37.0981C37.4181 63.23 37.7831 62.955 38.1931 62.725C38.6131 62.495 39.1031 62.38 39.6631 62.38C40.5031 62.38 41.1181 62.65 41.5081 63.19C41.8981 63.73 42.0931 64.47 42.0931 65.41V70H39.8881V65.695C39.8881 65.195 39.8081 64.83 39.6481 64.6C39.4881 64.37 39.2031 64.255 38.7931 64.255C38.4931 64.255 38.2281 64.32 37.9981 64.45C37.7781 64.58 37.5381 64.775 37.2781 65.035V70H35.0731V62.56ZM45.5973 64.285H43.7223V62.65L45.7023 62.56L45.9873 60.58H47.8023V62.56H50.9523V64.285H47.8023V66.895C47.8023 67.465 47.9273 67.87 48.1773 68.11C48.4273 68.34 48.8223 68.455 49.3623 68.455C49.6523 68.455 49.9173 68.43 50.1573 68.38C50.3973 68.33 50.6273 68.265 50.8473 68.185L51.2373 69.775C50.9073 69.875 50.5373 69.965 50.1273 70.045C49.7273 70.135 49.2873 70.18 48.8073 70.18C48.2173 70.18 47.7173 70.1 47.3073 69.94C46.8973 69.78 46.5623 69.56 46.3023 69.28C46.0523 68.99 45.8723 68.645 45.7623 68.245C45.6523 67.845 45.5973 67.4 45.5973 66.91V64.285Z" fill="#56B4E9"/>
<path d="M57.8614 53.685C56.8814 52.815 56.1064 51.81 55.5364 50.67C54.9764 49.53 54.6964 48.25 54.6964 46.83C54.6964 45.41 54.9764 44.13 55.5364 42.99C56.1064 41.85 56.8814 40.845 57.8614 39.975L59.0914 40.95C58.2014 41.82 57.5514 42.725 57.1414 43.665C56.7414 44.595 56.5414 45.65 56.5414 46.83C56.5414 47.42 56.5914 47.98 56.6914 48.51C56.7914 49.03 56.9414 49.53 57.1414 50.01C57.3514 50.49 57.6164 50.95 57.9364 51.39C58.2564 51.84 58.6414 52.28 59.0914 52.71L57.8614 53.685ZM82.4438 42.945L82.3688 40.95H84.5588L84.4838 42.945L84.1838 47.175H82.7438L82.4438 42.945ZM81.9638 49.65C81.9638 49.2 82.1038 48.84 82.3838 48.57C82.6738 48.29 83.0338 48.15 83.4638 48.15C83.8938 48.15 84.2488 48.29 84.5288 48.57C84.8188 48.84 84.9638 49.2 84.9638 49.65C84.9638 50.1 84.8188 50.47 84.5288 50.76C84.2488 51.04 83.8938 51.18 83.4638 51.18C83.0338 51.18 82.6738 51.04 82.3838 50.76C82.1038 50.47 81.9638 50.1 81.9638 49.65ZM89.008 43.53H95.908V45.09H89.008V43.53ZM89.008 46.995H95.908V48.555H89.008V46.995ZM116.83 52.71C117.28 52.28 117.665 51.84 117.985 51.39C118.305 50.95 118.565 50.49 118.765 50.01C118.975 49.53 119.13 49.03 119.23 48.51C119.33 47.98 119.38 47.42 119.38 46.83C119.38 45.65 119.175 44.595 118.765 43.665C118.365 42.725 117.72 41.82 116.83 40.95L118.06 39.975C119.04 40.845 119.81 41.85 120.37 42.99C120.94 44.13 121.225 45.41 121.225 46.83C121.225 48.25 120.94 49.53 120.37 50.67C119.81 51.81 119.04 52.815 118.06 53.685L116.83 52.71ZM57.8614 72.685C56.8814 71.815 56.1064 70.81 55.5364 69.67C54.9764 68.53 54.6964 67.25 54.6964 65.83C54.6964 64.41 54.9764 63.13 55.5364 61.99C56.1064 60.85 56.8814 59.845 57.8614 58.975L59.0914 59.95C58.2014 60.82 57.5514 61.725 57.1414 62.665C56.7414 63.595 56.5414 64.65 56.5414 65.83C56.5414 66.42 56.5914 66.98 56.6914 67.51C56.7914 68.03 56.9414 68.53 57.1414 69.01C57.3514 69.49 57.6164 69.95 57.9364 70.39C58.2564 70.84 58.6414 71.28 59.0914 71.71L57.8614 72.685ZM82.4438 61.945L82.3688 59.95H84.5588L84.4838 61.945L84.1838 66.175H82.7438L82.4438 61.945ZM81.9638 68.65C81.9638 68.2 82.1038 67.84 82.3838 67.57C82.6738 67.29 83.0338 67.15 83.4638 67.15C83.8938 67.15 84.2488 67.29 84.5288 67.57C84.8188 67.84 84.9638 68.2 84.9638 68.65C84.9638 69.1 84.8188 69.47 84.5288 69.76C84.2488 70.04 83.8938 70.18 83.4638 70.18C83.0338 70.18 82.6738 70.04 82.3838 69.76C82.1038 69.47 81.9638 69.1 81.9638 68.65ZM89.008 62.53H95.908V64.09H89.008V62.53ZM89.008 65.995H95.908V67.555H89.008V65.995ZM116.83 71.71C117.28 71.28 117.665 70.84 117.985 70.39C118.305 69.95 118.565 69.49 118.765 69.01C118.975 68.53 119.13 68.03 119.23 67.51C119.33 66.98 119.38 66.42 119.38 65.83C119.38 64.65 119.175 63.595 118.765 62.665C118.365 61.725 117.72 60.82 116.83 59.95L118.06 58.975C119.04 59.845 119.81 60.85 120.37 61.99C120.94 63.13 121.225 64.41 121.225 65.83C121.225 67.25 120.94 68.53 120.37 69.67C119.81 70.81 119.04 71.815 118.06 72.685L116.83 71.71Z" fill="white"/>
<path d="M61.8456 49.74C62.5256 49.17 63.1456 48.64 63.7056 48.15C64.2656 47.65 64.7456 47.185 65.1456 46.755C65.5456 46.325 65.8556 45.92 66.0756 45.54C66.2956 45.16 66.4056 44.8 66.4056 44.46C66.4056 43.99 66.2706 43.635 66.0006 43.395C65.7306 43.145 65.3456 43.02 64.8456 43.02C64.4656 43.02 64.1156 43.12 63.7956 43.32C63.4856 43.51 63.1956 43.735 62.9256 43.995L61.7406 42.81C61.9906 42.56 62.2356 42.34 62.4756 42.15C62.7256 41.96 62.9856 41.805 63.2556 41.685C63.5356 41.555 63.8256 41.46 64.1256 41.4C64.4356 41.33 64.7756 41.295 65.1456 41.295C65.6456 41.295 66.1006 41.37 66.5106 41.52C66.9206 41.66 67.2706 41.865 67.5606 42.135C67.8606 42.395 68.0906 42.71 68.2506 43.08C68.4206 43.45 68.5056 43.865 68.5056 44.325C68.5056 44.725 68.4106 45.135 68.2206 45.555C68.0306 45.965 67.7706 46.38 67.4406 46.8C67.1206 47.21 66.7506 47.625 66.3306 48.045C65.9106 48.455 65.4706 48.86 65.0106 49.26C65.2806 49.23 65.5706 49.205 65.8806 49.185C66.2006 49.155 66.4856 49.14 66.7356 49.14H69.0006V51H61.8456V49.74ZM110.446 51.18C109.896 51.18 109.396 51.075 108.946 50.865C108.496 50.645 108.111 50.325 107.791 49.905C107.471 49.485 107.221 48.965 107.041 48.345C106.871 47.725 106.786 47.01 106.786 46.2C106.786 45.39 106.871 44.68 107.041 44.07C107.221 43.46 107.471 42.95 107.791 42.54C108.111 42.12 108.496 41.81 108.946 41.61C109.396 41.4 109.896 41.295 110.446 41.295C110.996 41.295 111.496 41.4 111.946 41.61C112.396 41.81 112.781 42.12 113.101 42.54C113.421 42.95 113.666 43.46 113.836 44.07C114.016 44.68 114.106 45.39 114.106 46.2C114.106 47.01 114.016 47.725 113.836 48.345C113.666 48.965 113.421 49.485 113.101 49.905C112.781 50.325 112.396 50.645 111.946 50.865C111.496 51.075 110.996 51.18 110.446 51.18ZM110.446 43.005C110.206 43.005 109.981 43.055 109.771 43.155C109.571 43.255 109.396 43.43 109.246 43.68C109.096 43.92 108.976 44.245 108.886 44.655C108.796 45.065 108.751 45.58 108.751 46.2C108.751 46.82 108.796 47.34 108.886 47.76C108.976 48.17 109.096 48.505 109.246 48.765C109.396 49.015 109.571 49.195 109.771 49.305C109.981 49.415 110.206 49.47 110.446 49.47C110.686 49.47 110.906 49.415 111.106 49.305C111.316 49.195 111.496 49.015 111.646 48.765C111.796 48.505 111.916 48.17 112.006 47.76C112.096 47.34 112.141 46.82 112.141 46.2C112.141 45.58 112.096 45.065 112.006 44.655C111.916 44.245 111.796 43.92 111.646 43.68C111.496 43.43 111.316 43.255 111.106 43.155C110.906 43.055 110.686 43.005 110.446 43.005ZM110.446 47.31C110.126 47.31 109.856 47.21 109.636 47.01C109.426 46.8 109.321 46.52 109.321 46.17C109.321 45.82 109.426 45.545 109.636 45.345C109.856 45.135 110.126 45.03 110.446 45.03C110.766 45.03 111.031 45.135 111.241 45.345C111.461 45.545 111.571 45.82 111.571 46.17C111.571 46.52 111.461 46.8 111.241 47.01C111.031 47.21 110.766 47.31 110.446 47.31ZM61.8456 68.74C62.5256 68.17 63.1456 67.64 63.7056 67.15C64.2656 66.65 64.7456 66.185 65.1456 65.755C65.5456 65.325 65.8556 64.92 66.0756 64.54C66.2956 64.16 66.4056 63.8 66.4056 63.46C66.4056 62.99 66.2706 62.635 66.0006 62.395C65.7306 62.145 65.3456 62.02 64.8456 62.02C64.4656 62.02 64.1156 62.12 63.7956 62.32C63.4856 62.51 63.1956 62.735 62.9256 62.995L61.7406 61.81C61.9906 61.56 62.2356 61.34 62.4756 61.15C62.7256 60.96 62.9856 60.805 63.2556 60.685C63.5356 60.555 63.8256 60.46 64.1256 60.4C64.4356 60.33 64.7756 60.295 65.1456 60.295C65.6456 60.295 66.1006 60.37 66.5106 60.52C66.9206 60.66 67.2706 60.865 67.5606 61.135C67.8606 61.395 68.0906 61.71 68.2506 62.08C68.4206 62.45 68.5056 62.865 68.5056 63.325C68.5056 63.725 68.4106 64.135 68.2206 64.555C68.0306 64.965 67.7706 65.38 67.4406 65.8C67.1206 66.21 66.7506 66.625 66.3306 67.045C65.9106 67.455 65.4706 67.86 65.0106 68.26C65.2806 68.23 65.5706 68.205 65.8806 68.185C66.2006 68.155 66.4856 68.14 66.7356 68.14H69.0006V70H61.8456V68.74ZM106.816 68.74C107.496 68.17 108.116 67.64 108.676 67.15C109.236 66.65 109.716 66.185 110.116 65.755C110.516 65.325 110.826 64.92 111.046 64.54C111.266 64.16 111.376 63.8 111.376 63.46C111.376 62.99 111.241 62.635 110.971 62.395C110.701 62.145 110.316 62.02 109.816 62.02C109.436 62.02 109.086 62.12 108.766 62.32C108.456 62.51 108.166 62.735 107.896 62.995L106.711 61.81C106.961 61.56 107.206 61.34 107.446 61.15C107.696 60.96 107.956 60.805 108.226 60.685C108.506 60.555 108.796 60.46 109.096 60.4C109.406 60.33 109.746 60.295 110.116 60.295C110.616 60.295 111.071 60.37 111.481 60.52C111.891 60.66 112.241 60.865 112.531 61.135C112.831 61.395 113.061 61.71 113.221 62.08C113.391 62.45 113.476 62.865 113.476 63.325C113.476 63.725 113.381 64.135 113.191 64.555C113.001 64.965 112.741 65.38 112.411 65.8C112.091 66.21 111.721 66.625 111.301 67.045C110.881 67.455 110.441 67.86 109.981 68.26C110.251 68.23 110.541 68.205 110.851 68.185C111.171 68.155 111.456 68.14 111.706 68.14H113.971V70H106.816V68.74Z" fill="#F0E442"/>
<path d="M65.2929 137.293C64.9024 137.683 64.9024 138.317 65.2929 138.707L71.6569 145.071C72.0474 145.462 72.6805 145.462 73.0711 145.071C73.4616 144.681 73.4616 144.047 73.0711 143.657L67.4142 138L73.0711 132.343C73.4616 131.953 73.4616 131.319 73.0711 130.929C72.6805 130.538 72.0474 130.538 71.6569 130.929L65.2929 137.293ZM102 137H66V139H102V137Z" fill="#F0E442"/>
<path d="M110.747 143H109.34V132.336H110.747V143ZM114.951 133.156V135.075H116.43V136.123H114.951V141.037C114.951 141.354 115.017 141.594 115.148 141.755C115.28 141.911 115.505 141.989 115.822 141.989C115.979 141.989 116.193 141.96 116.467 141.901V143C116.11 143.098 115.764 143.146 115.427 143.146C114.821 143.146 114.365 142.963 114.057 142.597C113.75 142.231 113.596 141.711 113.596 141.037V136.123H112.153V135.075H113.596V133.156H114.951ZM118.115 135.339L117.346 134.812C117.8 134.177 118.034 133.508 118.049 132.805V131.75H119.389V132.702C119.384 133.19 119.262 133.679 119.023 134.167C118.789 134.65 118.486 135.041 118.115 135.339ZM124.816 140.898C124.816 140.532 124.677 140.249 124.399 140.048C124.125 139.843 123.645 139.667 122.956 139.521C122.272 139.375 121.728 139.199 121.323 138.994C120.922 138.789 120.625 138.544 120.429 138.261C120.239 137.978 120.144 137.641 120.144 137.25C120.144 136.601 120.417 136.052 120.964 135.603C121.516 135.153 122.219 134.929 123.073 134.929C123.972 134.929 124.699 135.161 125.256 135.625C125.817 136.088 126.098 136.682 126.098 137.404H124.736C124.736 137.033 124.577 136.713 124.26 136.445C123.947 136.176 123.552 136.042 123.073 136.042C122.58 136.042 122.194 136.149 121.916 136.364C121.638 136.579 121.499 136.86 121.499 137.207C121.499 137.534 121.628 137.78 121.887 137.946C122.146 138.112 122.612 138.271 123.286 138.422C123.964 138.574 124.514 138.754 124.934 138.964C125.354 139.174 125.664 139.428 125.864 139.726C126.069 140.019 126.171 140.378 126.171 140.803C126.171 141.511 125.888 142.08 125.322 142.509C124.755 142.934 124.021 143.146 123.117 143.146C122.482 143.146 121.921 143.034 121.433 142.81C120.944 142.585 120.561 142.272 120.283 141.872C120.009 141.467 119.873 141.03 119.873 140.561H121.228C121.252 141.015 121.433 141.376 121.77 141.645C122.111 141.909 122.561 142.041 123.117 142.041C123.63 142.041 124.04 141.938 124.348 141.733C124.66 141.523 124.816 141.245 124.816 140.898ZM132.023 143V136.628H130.844V135.075H132.023V134.401C132.023 133.513 132.277 132.824 132.785 132.336C133.298 131.843 134.013 131.596 134.931 131.596C135.224 131.596 135.583 131.645 136.008 131.743L135.986 133.383C135.81 133.339 135.595 133.317 135.341 133.317C134.545 133.317 134.147 133.691 134.147 134.438V135.075H135.722V136.628H134.147V143H132.023ZM141.413 143C141.315 142.81 141.245 142.573 141.201 142.29C140.688 142.861 140.021 143.146 139.201 143.146C138.425 143.146 137.78 142.922 137.268 142.473C136.76 142.023 136.506 141.457 136.506 140.773C136.506 139.934 136.816 139.289 137.436 138.84C138.061 138.391 138.962 138.164 140.139 138.159H141.113V137.705C141.113 137.338 141.018 137.045 140.827 136.826C140.642 136.606 140.346 136.496 139.941 136.496C139.584 136.496 139.304 136.582 139.099 136.752C138.898 136.923 138.798 137.158 138.798 137.456H136.682C136.682 136.997 136.823 136.572 137.106 136.181C137.39 135.791 137.79 135.485 138.308 135.266C138.825 135.041 139.406 134.929 140.051 134.929C141.027 134.929 141.801 135.175 142.373 135.668C142.949 136.157 143.237 136.845 143.237 137.734V141.169C143.242 141.921 143.347 142.49 143.552 142.875V143H141.413ZM139.663 141.528C139.975 141.528 140.263 141.459 140.527 141.323C140.791 141.181 140.986 140.993 141.113 140.759V139.396H140.322C139.262 139.396 138.698 139.763 138.63 140.495L138.623 140.62C138.623 140.883 138.715 141.101 138.901 141.271C139.086 141.442 139.34 141.528 139.663 141.528ZM147.097 143H144.973V131.75H147.097V143ZM153.139 140.81C153.139 140.551 153.01 140.349 152.751 140.202C152.497 140.051 152.087 139.917 151.521 139.799C149.636 139.404 148.693 138.603 148.693 137.397C148.693 136.694 148.984 136.108 149.565 135.639C150.151 135.166 150.915 134.929 151.857 134.929C152.863 134.929 153.667 135.166 154.267 135.639C154.873 136.113 155.175 136.728 155.175 137.485H153.059C153.059 137.182 152.961 136.933 152.766 136.738C152.57 136.538 152.265 136.438 151.85 136.438C151.494 136.438 151.218 136.518 151.022 136.679C150.827 136.84 150.729 137.045 150.729 137.294C150.729 137.529 150.839 137.719 151.059 137.866C151.284 138.007 151.66 138.132 152.187 138.239C152.714 138.342 153.159 138.459 153.52 138.591C154.638 139.001 155.197 139.711 155.197 140.722C155.197 141.445 154.887 142.031 154.267 142.48C153.647 142.924 152.846 143.146 151.865 143.146C151.201 143.146 150.61 143.029 150.092 142.795C149.58 142.556 149.177 142.231 148.884 141.821C148.591 141.406 148.444 140.959 148.444 140.48H150.451C150.471 140.856 150.61 141.145 150.869 141.345C151.127 141.545 151.474 141.645 151.909 141.645C152.314 141.645 152.619 141.569 152.824 141.418C153.034 141.262 153.139 141.059 153.139 140.81ZM160.214 143.146C159.052 143.146 158.105 142.79 157.373 142.077C156.645 141.364 156.281 140.415 156.281 139.228V139.023C156.281 138.227 156.435 137.517 156.743 136.892C157.05 136.262 157.485 135.778 158.046 135.441C158.613 135.1 159.257 134.929 159.98 134.929C161.064 134.929 161.916 135.271 162.536 135.954C163.161 136.638 163.474 137.607 163.474 138.862V139.726H158.427C158.496 140.244 158.701 140.659 159.042 140.971C159.389 141.284 159.826 141.44 160.354 141.44C161.169 141.44 161.806 141.145 162.265 140.554L163.305 141.718C162.988 142.167 162.558 142.519 162.016 142.773C161.474 143.022 160.874 143.146 160.214 143.146ZM159.973 136.643C159.553 136.643 159.211 136.784 158.947 137.067C158.688 137.351 158.522 137.756 158.449 138.283H161.394V138.115C161.384 137.646 161.257 137.285 161.013 137.031C160.769 136.772 160.422 136.643 159.973 136.643ZM170.454 133.156V135.075H171.933V136.123H170.454V141.037C170.454 141.354 170.52 141.594 170.651 141.755C170.783 141.911 171.008 141.989 171.325 141.989C171.481 141.989 171.696 141.96 171.97 141.901V143C171.613 143.098 171.267 143.146 170.93 143.146C170.324 143.146 169.868 142.963 169.56 142.597C169.252 142.231 169.099 141.711 169.099 141.037V136.123H167.656V135.075H169.099V133.156H170.454ZM174.877 136.035C175.478 135.297 176.259 134.929 177.221 134.929C178.896 134.929 179.741 135.874 179.755 137.763V143H178.4V137.756C178.396 137.185 178.264 136.762 178.005 136.489C177.751 136.215 177.353 136.079 176.811 136.079C176.372 136.079 175.986 136.196 175.654 136.43C175.322 136.665 175.063 136.972 174.877 137.353V143H173.522V131.75H174.877V136.035ZM186.677 143C186.599 142.844 186.535 142.565 186.486 142.165C185.856 142.819 185.104 143.146 184.23 143.146C183.449 143.146 182.807 142.927 182.304 142.487C181.806 142.043 181.557 141.481 181.557 140.803C181.557 139.978 181.87 139.338 182.495 138.884C183.125 138.425 184.008 138.195 185.146 138.195H186.464V137.573C186.464 137.099 186.323 136.723 186.04 136.445C185.756 136.162 185.339 136.02 184.787 136.02C184.304 136.02 183.898 136.142 183.571 136.386C183.244 136.63 183.081 136.926 183.081 137.272H181.718C181.718 136.877 181.857 136.496 182.136 136.13C182.419 135.759 182.8 135.466 183.278 135.251C183.762 135.036 184.292 134.929 184.868 134.929C185.781 134.929 186.496 135.158 187.014 135.617C187.531 136.071 187.8 136.699 187.819 137.5V141.147C187.819 141.875 187.912 142.453 188.098 142.883V143H186.677ZM184.428 141.967C184.853 141.967 185.256 141.857 185.637 141.638C186.018 141.418 186.293 141.132 186.464 140.781V139.155H185.402C183.742 139.155 182.912 139.641 182.912 140.612C182.912 141.037 183.054 141.369 183.337 141.608C183.62 141.848 183.984 141.967 184.428 141.967ZM191.782 133.156V135.075H193.261V136.123H191.782V141.037C191.782 141.354 191.848 141.594 191.979 141.755C192.111 141.911 192.336 141.989 192.653 141.989C192.81 141.989 193.024 141.96 193.298 141.901V143C192.941 143.098 192.595 143.146 192.258 143.146C191.652 143.146 191.196 142.963 190.888 142.597C190.581 142.231 190.427 141.711 190.427 141.037V136.123H188.984V135.075H190.427V133.156H191.782ZM205.419 143H198.432V142.026L202.124 137.924C202.67 137.304 203.046 136.801 203.251 136.416C203.461 136.025 203.566 135.622 203.566 135.207C203.566 134.65 203.398 134.194 203.061 133.837C202.724 133.481 202.275 133.303 201.713 133.303C201.04 133.303 200.515 133.496 200.139 133.881C199.768 134.262 199.582 134.794 199.582 135.478H198.227C198.227 134.497 198.542 133.703 199.172 133.098C199.807 132.492 200.654 132.189 201.713 132.189C202.705 132.189 203.488 132.451 204.064 132.973C204.641 133.491 204.929 134.182 204.929 135.046C204.929 136.096 204.26 137.346 202.922 138.796L200.065 141.894H205.419V143ZM212.736 143H210.612V135.075H212.736V143ZM210.488 133.024C210.488 132.707 210.593 132.446 210.803 132.241C211.018 132.036 211.308 131.933 211.674 131.933C212.036 131.933 212.324 132.036 212.539 132.241C212.753 132.446 212.861 132.707 212.861 133.024C212.861 133.347 212.751 133.61 212.531 133.815C212.316 134.021 212.031 134.123 211.674 134.123C211.318 134.123 211.03 134.021 210.81 133.815C210.595 133.61 210.488 133.347 210.488 133.024ZM218.779 140.81C218.779 140.551 218.649 140.349 218.391 140.202C218.137 140.051 217.727 139.917 217.16 139.799C215.275 139.404 214.333 138.603 214.333 137.397C214.333 136.694 214.624 136.108 215.205 135.639C215.791 135.166 216.555 134.929 217.497 134.929C218.503 134.929 219.306 135.166 219.907 135.639C220.512 136.113 220.815 136.728 220.815 137.485H218.698C218.698 137.182 218.601 136.933 218.405 136.738C218.21 136.538 217.905 136.438 217.49 136.438C217.133 136.438 216.857 136.518 216.662 136.679C216.467 136.84 216.369 137.045 216.369 137.294C216.369 137.529 216.479 137.719 216.699 137.866C216.923 138.007 217.299 138.132 217.827 138.239C218.354 138.342 218.798 138.459 219.16 138.591C220.278 139.001 220.837 139.711 220.837 140.722C220.837 141.445 220.527 142.031 219.907 142.48C219.287 142.924 218.486 143.146 217.504 143.146C216.84 143.146 216.25 143.029 215.732 142.795C215.219 142.556 214.816 142.231 214.523 141.821C214.23 141.406 214.084 140.959 214.084 140.48H216.091C216.11 140.856 216.25 141.145 216.508 141.345C216.767 141.545 217.114 141.645 217.548 141.645C217.954 141.645 218.259 141.569 218.464 141.418C218.674 141.262 218.779 141.059 218.779 140.81ZM227.89 135.075L227.956 135.991C228.522 135.283 229.282 134.929 230.234 134.929C231.074 134.929 231.699 135.175 232.109 135.668C232.519 136.162 232.729 136.899 232.739 137.88V143H230.622V137.932C230.622 137.482 230.524 137.158 230.329 136.958C230.134 136.752 229.809 136.65 229.355 136.65C228.759 136.65 228.312 136.904 228.015 137.412V143H225.898V135.075H227.89ZM234.021 138.964C234.021 138.178 234.172 137.478 234.475 136.862C234.777 136.247 235.212 135.771 235.778 135.434C236.35 135.097 237.011 134.929 237.763 134.929C238.833 134.929 239.704 135.256 240.378 135.91C241.057 136.564 241.435 137.453 241.513 138.576L241.528 139.118C241.528 140.334 241.188 141.311 240.51 142.048C239.831 142.78 238.92 143.146 237.778 143.146C236.635 143.146 235.722 142.78 235.039 142.048C234.36 141.315 234.021 140.319 234.021 139.06V138.964ZM236.137 139.118C236.137 139.87 236.279 140.446 236.562 140.847C236.845 141.242 237.25 141.44 237.778 141.44C238.291 141.44 238.691 141.245 238.979 140.854C239.267 140.458 239.411 139.829 239.411 138.964C239.411 138.227 239.267 137.656 238.979 137.25C238.691 136.845 238.286 136.643 237.763 136.643C237.246 136.643 236.845 136.845 236.562 137.25C236.279 137.651 236.137 138.273 236.137 139.118ZM245.366 133.127V135.075H246.721V136.628H245.366V140.583C245.366 140.876 245.422 141.086 245.534 141.213C245.646 141.34 245.861 141.403 246.179 141.403C246.413 141.403 246.621 141.386 246.801 141.352V142.956C246.386 143.083 245.959 143.146 245.52 143.146C244.035 143.146 243.278 142.397 243.249 140.898V136.628H242.092V135.075H243.249V133.127H245.366ZM255.122 143.146C254.047 143.146 253.173 142.795 252.5 142.092C251.826 141.384 251.489 140.439 251.489 139.257V139.008C251.489 138.222 251.638 137.521 251.936 136.906C252.238 136.286 252.658 135.803 253.195 135.456C253.737 135.104 254.323 134.929 254.953 134.929C255.983 134.929 256.784 135.268 257.355 135.947C257.927 136.625 258.212 137.597 258.212 138.862V139.426H252.844C252.863 140.207 253.09 140.839 253.525 141.323C253.964 141.801 254.521 142.041 255.195 142.041C255.673 142.041 256.079 141.943 256.411 141.748C256.743 141.552 257.033 141.293 257.282 140.971L258.11 141.616C257.446 142.636 256.45 143.146 255.122 143.146ZM254.953 136.042C254.406 136.042 253.947 136.242 253.576 136.643C253.205 137.038 252.976 137.595 252.888 138.312H256.857V138.21C256.818 137.521 256.633 136.989 256.301 136.613C255.969 136.232 255.52 136.042 254.953 136.042ZM259.458 138.972C259.458 137.727 259.743 136.743 260.314 136.02C260.886 135.292 261.652 134.929 262.614 134.929C263.552 134.929 264.292 135.244 264.833 135.874L264.892 135.075H266.137V146.047H264.782V142.268C264.235 142.854 263.508 143.146 262.6 143.146C261.643 143.146 260.878 142.775 260.307 142.033C259.741 141.286 259.458 140.297 259.458 139.067V138.972ZM260.812 139.125C260.812 140.034 261.003 140.747 261.384 141.264C261.77 141.782 262.287 142.041 262.937 142.041C263.742 142.041 264.357 141.684 264.782 140.971V137.089C264.353 136.391 263.742 136.042 262.951 136.042C262.297 136.042 261.777 136.303 261.391 136.826C261.005 137.343 260.812 138.11 260.812 139.125ZM273.205 142.216C272.678 142.836 271.904 143.146 270.883 143.146C270.039 143.146 269.394 142.902 268.95 142.414C268.51 141.921 268.288 141.193 268.283 140.231V135.075H269.638V140.195C269.638 141.396 270.126 141.997 271.103 141.997C272.138 141.997 272.827 141.611 273.168 140.839V135.075H274.523V143H273.234L273.205 142.216ZM281.481 143C281.403 142.844 281.34 142.565 281.291 142.165C280.661 142.819 279.909 143.146 279.035 143.146C278.254 143.146 277.612 142.927 277.109 142.487C276.611 142.043 276.362 141.481 276.362 140.803C276.362 139.978 276.674 139.338 277.299 138.884C277.929 138.425 278.813 138.195 279.951 138.195H281.269V137.573C281.269 137.099 281.127 136.723 280.844 136.445C280.561 136.162 280.144 136.02 279.592 136.02C279.108 136.02 278.703 136.142 278.376 136.386C278.049 136.63 277.885 136.926 277.885 137.272H276.523C276.523 136.877 276.662 136.496 276.94 136.13C277.224 135.759 277.604 135.466 278.083 135.251C278.566 135.036 279.096 134.929 279.672 134.929C280.585 134.929 281.301 135.158 281.818 135.617C282.336 136.071 282.604 136.699 282.624 137.5V141.147C282.624 141.875 282.717 142.453 282.902 142.883V143H281.481ZM279.233 141.967C279.658 141.967 280.061 141.857 280.441 141.638C280.822 141.418 281.098 141.132 281.269 140.781V139.155H280.207C278.547 139.155 277.717 139.641 277.717 140.612C277.717 141.037 277.858 141.369 278.142 141.608C278.425 141.848 278.789 141.967 279.233 141.967ZM286.22 143H284.865V131.75H286.22V143ZM293.955 133.156V135.075H295.434V136.123H293.955V141.037C293.955 141.354 294.021 141.594 294.152 141.755C294.284 141.911 294.509 141.989 294.826 141.989C294.982 141.989 295.197 141.96 295.471 141.901V143C295.114 143.098 294.768 143.146 294.431 143.146C293.825 143.146 293.369 142.963 293.061 142.597C292.753 142.231 292.6 141.711 292.6 141.037V136.123H291.157V135.075H292.6V133.156H293.955ZM296.518 138.964C296.518 138.188 296.669 137.49 296.972 136.87C297.28 136.25 297.705 135.771 298.247 135.434C298.793 135.097 299.416 134.929 300.114 134.929C301.193 134.929 302.065 135.302 302.729 136.049C303.398 136.796 303.732 137.79 303.732 139.03V139.125C303.732 139.897 303.583 140.59 303.286 141.206C302.993 141.816 302.57 142.292 302.019 142.634C301.472 142.976 300.842 143.146 300.129 143.146C299.055 143.146 298.183 142.773 297.514 142.026C296.85 141.279 296.518 140.29 296.518 139.06V138.964ZM297.88 139.125C297.88 140.004 298.083 140.71 298.488 141.242C298.898 141.774 299.445 142.041 300.129 142.041C300.817 142.041 301.364 141.772 301.77 141.235C302.175 140.693 302.377 139.936 302.377 138.964C302.377 138.095 302.17 137.392 301.755 136.855C301.345 136.313 300.798 136.042 300.114 136.042C299.445 136.042 298.906 136.308 298.496 136.84C298.085 137.373 297.88 138.134 297.88 139.125ZM316 143H309.013V142.026L312.705 137.924C313.251 137.304 313.627 136.801 313.833 136.416C314.042 136.025 314.147 135.622 314.147 135.207C314.147 134.65 313.979 134.194 313.642 133.837C313.305 133.481 312.856 133.303 312.294 133.303C311.621 133.303 311.096 133.496 310.72 133.881C310.349 134.262 310.163 134.794 310.163 135.478H308.808C308.808 134.497 309.123 133.703 309.753 133.098C310.388 132.492 311.235 132.189 312.294 132.189C313.286 132.189 314.069 132.451 314.646 132.973C315.222 133.491 315.51 134.182 315.51 135.046C315.51 136.096 314.841 137.346 313.503 138.796L310.646 141.894H316V143ZM108.974 155.671C108.974 154.568 109.121 153.508 109.414 152.493C109.711 151.477 110.153 150.554 110.739 149.724C111.325 148.894 111.933 148.308 112.563 147.966L112.841 148.86C112.128 149.407 111.542 150.242 111.083 151.365C110.629 152.488 110.38 153.745 110.336 155.137L110.329 155.759C110.329 157.644 110.673 159.28 111.362 160.667C111.777 161.497 112.27 162.146 112.841 162.615L112.563 163.442C111.914 163.081 111.293 162.476 110.703 161.626C109.55 159.966 108.974 157.981 108.974 155.671ZM120.861 156.125C120.861 157.336 120.583 158.311 120.026 159.048C119.47 159.78 118.723 160.146 117.785 160.146C116.784 160.146 116.01 159.792 115.463 159.084L115.397 160H114.152V148.75H115.507V152.947C116.054 152.268 116.809 151.929 117.771 151.929C118.732 151.929 119.487 152.292 120.034 153.02C120.585 153.748 120.861 154.744 120.861 156.008V156.125ZM119.506 155.972C119.506 155.049 119.328 154.336 118.972 153.833C118.615 153.33 118.103 153.079 117.434 153.079C116.54 153.079 115.898 153.494 115.507 154.324V157.751C115.922 158.582 116.569 158.997 117.448 158.997C118.098 158.997 118.603 158.745 118.964 158.242C119.326 157.739 119.506 156.982 119.506 155.972ZM125.864 160.146C124.79 160.146 123.916 159.795 123.242 159.092C122.568 158.384 122.231 157.439 122.231 156.257V156.008C122.231 155.222 122.38 154.521 122.678 153.906C122.98 153.286 123.4 152.803 123.938 152.456C124.479 152.104 125.065 151.929 125.695 151.929C126.726 151.929 127.526 152.268 128.098 152.947C128.669 153.625 128.955 154.597 128.955 155.862V156.426H123.586C123.605 157.207 123.833 157.839 124.267 158.323C124.707 158.801 125.263 159.041 125.937 159.041C126.416 159.041 126.821 158.943 127.153 158.748C127.485 158.552 127.775 158.293 128.024 157.971L128.852 158.616C128.188 159.636 127.192 160.146 125.864 160.146ZM125.695 153.042C125.148 153.042 124.689 153.242 124.318 153.643C123.947 154.038 123.718 154.595 123.63 155.312H127.6V155.21C127.561 154.521 127.375 153.989 127.043 153.613C126.711 153.232 126.262 153.042 125.695 153.042ZM133.708 159.041C134.191 159.041 134.614 158.894 134.975 158.601C135.336 158.308 135.537 157.942 135.576 157.502H136.857C136.833 157.957 136.677 158.389 136.389 158.799C136.101 159.209 135.715 159.536 135.231 159.78C134.753 160.024 134.245 160.146 133.708 160.146C132.629 160.146 131.77 159.788 131.13 159.07C130.495 158.347 130.178 157.361 130.178 156.111V155.884C130.178 155.112 130.319 154.426 130.603 153.826C130.886 153.225 131.291 152.759 131.818 152.427C132.351 152.095 132.978 151.929 133.701 151.929C134.589 151.929 135.327 152.195 135.913 152.727C136.503 153.259 136.818 153.95 136.857 154.8H135.576C135.537 154.287 135.341 153.867 134.99 153.54C134.643 153.208 134.213 153.042 133.701 153.042C133.012 153.042 132.478 153.291 132.097 153.789C131.721 154.282 131.533 154.998 131.533 155.935V156.191C131.533 157.104 131.721 157.808 132.097 158.301C132.473 158.794 133.01 159.041 133.708 159.041ZM143.273 160C143.195 159.844 143.132 159.565 143.083 159.165C142.453 159.819 141.701 160.146 140.827 160.146C140.046 160.146 139.404 159.927 138.901 159.487C138.403 159.043 138.154 158.481 138.154 157.803C138.154 156.978 138.466 156.338 139.091 155.884C139.721 155.425 140.605 155.195 141.743 155.195H143.061V154.573C143.061 154.099 142.919 153.723 142.636 153.445C142.353 153.162 141.936 153.02 141.384 153.02C140.9 153.02 140.495 153.142 140.168 153.386C139.841 153.63 139.677 153.926 139.677 154.272H138.315C138.315 153.877 138.454 153.496 138.732 153.13C139.016 152.759 139.396 152.466 139.875 152.251C140.358 152.036 140.888 151.929 141.464 151.929C142.377 151.929 143.093 152.158 143.61 152.617C144.128 153.071 144.396 153.699 144.416 154.5V158.147C144.416 158.875 144.509 159.453 144.694 159.883V160H143.273ZM141.025 158.967C141.45 158.967 141.853 158.857 142.233 158.638C142.614 158.418 142.89 158.132 143.061 157.781V156.155H141.999C140.339 156.155 139.509 156.641 139.509 157.612C139.509 158.037 139.65 158.369 139.934 158.608C140.217 158.848 140.581 158.967 141.025 158.967ZM151.433 159.216C150.905 159.836 150.131 160.146 149.111 160.146C148.266 160.146 147.622 159.902 147.177 159.414C146.738 158.921 146.516 158.193 146.511 157.231V152.075H147.866V157.195C147.866 158.396 148.354 158.997 149.331 158.997C150.366 158.997 151.054 158.611 151.396 157.839V152.075H152.751V160H151.462L151.433 159.216ZM159.431 157.898C159.431 157.532 159.292 157.249 159.013 157.048C158.74 156.843 158.259 156.667 157.57 156.521C156.887 156.375 156.342 156.199 155.937 155.994C155.537 155.789 155.239 155.544 155.043 155.261C154.853 154.978 154.758 154.641 154.758 154.25C154.758 153.601 155.031 153.052 155.578 152.603C156.13 152.153 156.833 151.929 157.688 151.929C158.586 151.929 159.313 152.161 159.87 152.625C160.432 153.088 160.712 153.682 160.712 154.404H159.35C159.35 154.033 159.191 153.713 158.874 153.445C158.562 153.176 158.166 153.042 157.688 153.042C157.194 153.042 156.809 153.149 156.53 153.364C156.252 153.579 156.113 153.86 156.113 154.207C156.113 154.534 156.242 154.78 156.501 154.946C156.76 155.112 157.226 155.271 157.9 155.422C158.579 155.574 159.128 155.754 159.548 155.964C159.968 156.174 160.278 156.428 160.478 156.726C160.683 157.019 160.786 157.378 160.786 157.803C160.786 158.511 160.502 159.08 159.936 159.509C159.37 159.934 158.635 160.146 157.731 160.146C157.097 160.146 156.535 160.034 156.047 159.81C155.559 159.585 155.175 159.272 154.897 158.872C154.624 158.467 154.487 158.03 154.487 157.561H155.842C155.866 158.015 156.047 158.376 156.384 158.645C156.726 158.909 157.175 159.041 157.731 159.041C158.244 159.041 158.654 158.938 158.962 158.733C159.274 158.523 159.431 158.245 159.431 157.898ZM165.839 160.146C164.765 160.146 163.891 159.795 163.217 159.092C162.543 158.384 162.207 157.439 162.207 156.257V156.008C162.207 155.222 162.355 154.521 162.653 153.906C162.956 153.286 163.376 152.803 163.913 152.456C164.455 152.104 165.041 151.929 165.671 151.929C166.701 151.929 167.502 152.268 168.073 152.947C168.645 153.625 168.93 154.597 168.93 155.862V156.426H163.562C163.581 157.207 163.808 157.839 164.243 158.323C164.682 158.801 165.239 159.041 165.913 159.041C166.391 159.041 166.796 158.943 167.128 158.748C167.46 158.552 167.751 158.293 168 157.971L168.828 158.616C168.164 159.636 167.167 160.146 165.839 160.146ZM165.671 153.042C165.124 153.042 164.665 153.242 164.294 153.643C163.923 154.038 163.693 154.595 163.605 155.312H167.575V155.21C167.536 154.521 167.351 153.989 167.019 153.613C166.687 153.232 166.237 153.042 165.671 153.042ZM181.074 160H174.086V159.026L177.778 154.924C178.325 154.304 178.701 153.801 178.906 153.416C179.116 153.025 179.221 152.622 179.221 152.207C179.221 151.65 179.052 151.194 178.715 150.837C178.378 150.481 177.929 150.303 177.368 150.303C176.694 150.303 176.169 150.496 175.793 150.881C175.422 151.262 175.236 151.794 175.236 152.478H173.881C173.881 151.497 174.196 150.703 174.826 150.098C175.461 149.492 176.308 149.189 177.368 149.189C178.359 149.189 179.143 149.451 179.719 149.973C180.295 150.491 180.583 151.182 180.583 152.046C180.583 153.096 179.914 154.346 178.576 155.796L175.72 158.894H181.074V160ZM188.391 160H186.267V152.075H188.391V160ZM186.142 150.024C186.142 149.707 186.247 149.446 186.457 149.241C186.672 149.036 186.962 148.933 187.329 148.933C187.69 148.933 187.978 149.036 188.193 149.241C188.408 149.446 188.515 149.707 188.515 150.024C188.515 150.347 188.405 150.61 188.186 150.815C187.971 151.021 187.685 151.123 187.329 151.123C186.972 151.123 186.684 151.021 186.464 150.815C186.25 150.61 186.142 150.347 186.142 150.024ZM194.433 157.81C194.433 157.551 194.304 157.349 194.045 157.202C193.791 157.051 193.381 156.917 192.814 156.799C190.93 156.404 189.987 155.603 189.987 154.397C189.987 153.694 190.278 153.108 190.859 152.639C191.445 152.166 192.209 151.929 193.151 151.929C194.157 151.929 194.96 152.166 195.561 152.639C196.167 153.113 196.469 153.728 196.469 154.485H194.353C194.353 154.182 194.255 153.933 194.06 153.738C193.864 153.538 193.559 153.438 193.144 153.438C192.788 153.438 192.512 153.518 192.316 153.679C192.121 153.84 192.023 154.045 192.023 154.294C192.023 154.529 192.133 154.719 192.353 154.866C192.578 155.007 192.954 155.132 193.481 155.239C194.008 155.342 194.453 155.459 194.814 155.591C195.932 156.001 196.491 156.711 196.491 157.722C196.491 158.445 196.181 159.031 195.561 159.48C194.941 159.924 194.14 160.146 193.159 160.146C192.495 160.146 191.904 160.029 191.386 159.795C190.874 159.556 190.471 159.231 190.178 158.821C189.885 158.406 189.738 157.959 189.738 157.48H191.745C191.765 157.856 191.904 158.145 192.163 158.345C192.421 158.545 192.768 158.645 193.203 158.645C193.608 158.645 193.913 158.569 194.118 158.418C194.328 158.262 194.433 158.059 194.433 157.81ZM205.083 160.146C204.008 160.146 203.134 159.795 202.46 159.092C201.787 158.384 201.45 157.439 201.45 156.257V156.008C201.45 155.222 201.599 154.521 201.896 153.906C202.199 153.286 202.619 152.803 203.156 152.456C203.698 152.104 204.284 151.929 204.914 151.929C205.944 151.929 206.745 152.268 207.316 152.947C207.888 153.625 208.173 154.597 208.173 155.862V156.426H202.805C202.824 157.207 203.051 157.839 203.486 158.323C203.925 158.801 204.482 159.041 205.156 159.041C205.634 159.041 206.04 158.943 206.372 158.748C206.704 158.552 206.994 158.293 207.243 157.971L208.071 158.616C207.407 159.636 206.411 160.146 205.083 160.146ZM204.914 153.042C204.367 153.042 203.908 153.242 203.537 153.643C203.166 154.038 202.937 154.595 202.849 155.312H206.818V155.21C206.779 154.521 206.594 153.989 206.262 153.613C205.93 153.232 205.48 153.042 204.914 153.042ZM209.418 155.972C209.418 154.727 209.704 153.743 210.275 153.02C210.847 152.292 211.613 151.929 212.575 151.929C213.513 151.929 214.252 152.244 214.794 152.874L214.853 152.075H216.098V163.047H214.743V159.268C214.196 159.854 213.469 160.146 212.561 160.146C211.604 160.146 210.839 159.775 210.268 159.033C209.702 158.286 209.418 157.297 209.418 156.067V155.972ZM210.773 156.125C210.773 157.034 210.964 157.747 211.345 158.264C211.73 158.782 212.248 159.041 212.897 159.041C213.703 159.041 214.318 158.684 214.743 157.971V154.089C214.313 153.391 213.703 153.042 212.912 153.042C212.258 153.042 211.738 153.303 211.352 153.826C210.966 154.343 210.773 155.11 210.773 156.125ZM223.166 159.216C222.639 159.836 221.865 160.146 220.844 160.146C220 160.146 219.355 159.902 218.911 159.414C218.471 158.921 218.249 158.193 218.244 157.231V152.075H219.599V157.195C219.599 158.396 220.087 158.997 221.064 158.997C222.099 158.997 222.788 158.611 223.129 157.839V152.075H224.484V160H223.195L223.166 159.216ZM231.442 160C231.364 159.844 231.301 159.565 231.252 159.165C230.622 159.819 229.87 160.146 228.996 160.146C228.215 160.146 227.573 159.927 227.07 159.487C226.572 159.043 226.323 158.481 226.323 157.803C226.323 156.978 226.635 156.338 227.26 155.884C227.89 155.425 228.774 155.195 229.912 155.195H231.23V154.573C231.23 154.099 231.088 153.723 230.805 153.445C230.522 153.162 230.104 153.02 229.553 153.02C229.069 153.02 228.664 153.142 228.337 153.386C228.01 153.63 227.846 153.926 227.846 154.272H226.484C226.484 153.877 226.623 153.496 226.901 153.13C227.185 152.759 227.565 152.466 228.044 152.251C228.527 152.036 229.057 151.929 229.633 151.929C230.546 151.929 231.262 152.158 231.779 152.617C232.297 153.071 232.565 153.699 232.585 154.5V158.147C232.585 158.875 232.678 159.453 232.863 159.883V160H231.442ZM229.194 158.967C229.619 158.967 230.021 158.857 230.402 158.638C230.783 158.418 231.059 158.132 231.23 157.781V156.155H230.168C228.508 156.155 227.678 156.641 227.678 157.612C227.678 158.037 227.819 158.369 228.103 158.608C228.386 158.848 228.75 158.967 229.194 158.967ZM236.181 160H234.826V148.75H236.181V160ZM243.916 150.156V152.075H245.395V153.123H243.916V158.037C243.916 158.354 243.981 158.594 244.113 158.755C244.245 158.911 244.47 158.989 244.787 158.989C244.943 158.989 245.158 158.96 245.432 158.901V160C245.075 160.098 244.729 160.146 244.392 160.146C243.786 160.146 243.33 159.963 243.022 159.597C242.714 159.231 242.561 158.711 242.561 158.037V153.123H241.118V152.075H242.561V150.156H243.916ZM246.479 155.964C246.479 155.188 246.63 154.49 246.933 153.87C247.241 153.25 247.666 152.771 248.208 152.434C248.754 152.097 249.377 151.929 250.075 151.929C251.154 151.929 252.026 152.302 252.69 153.049C253.359 153.796 253.693 154.79 253.693 156.03V156.125C253.693 156.897 253.544 157.59 253.247 158.206C252.954 158.816 252.531 159.292 251.979 159.634C251.433 159.976 250.803 160.146 250.09 160.146C249.016 160.146 248.144 159.773 247.475 159.026C246.811 158.279 246.479 157.29 246.479 156.06V155.964ZM247.841 156.125C247.841 157.004 248.044 157.71 248.449 158.242C248.859 158.774 249.406 159.041 250.09 159.041C250.778 159.041 251.325 158.772 251.73 158.235C252.136 157.693 252.338 156.936 252.338 155.964C252.338 155.095 252.131 154.392 251.716 153.855C251.306 153.313 250.759 153.042 250.075 153.042C249.406 153.042 248.867 153.308 248.457 153.84C248.046 154.373 247.841 155.134 247.841 156.125ZM265.961 160H258.974V159.026L262.666 154.924C263.212 154.304 263.588 153.801 263.793 153.416C264.003 153.025 264.108 152.622 264.108 152.207C264.108 151.65 263.94 151.194 263.603 150.837C263.266 150.481 262.817 150.303 262.255 150.303C261.582 150.303 261.057 150.496 260.681 150.881C260.31 151.262 260.124 151.794 260.124 152.478H258.769C258.769 151.497 259.084 150.703 259.714 150.098C260.349 149.492 261.196 149.189 262.255 149.189C263.247 149.189 264.03 149.451 264.606 149.973C265.183 150.491 265.471 151.182 265.471 152.046C265.471 153.096 264.802 154.346 263.464 155.796L260.607 158.894H265.961V160ZM270.664 155.745C270.664 156.833 270.52 157.878 270.231 158.879C269.948 159.875 269.511 160.796 268.92 161.641C268.334 162.485 267.719 163.086 267.075 163.442L266.789 162.615C267.541 162.039 268.144 161.145 268.598 159.934C269.057 158.718 269.292 157.371 269.301 155.891V155.657C269.301 154.631 269.194 153.679 268.979 152.8C268.764 151.917 268.464 151.125 268.078 150.427C267.697 149.729 267.268 149.185 266.789 148.794L267.075 147.966C267.719 148.323 268.332 148.918 268.913 149.753C269.499 150.588 269.936 151.509 270.224 152.515C270.517 153.521 270.664 154.597 270.664 155.745ZM272.78 159.29C272.78 159.055 272.849 158.86 272.985 158.704C273.127 158.547 273.337 158.469 273.615 158.469C273.894 158.469 274.104 158.547 274.245 158.704C274.392 158.86 274.465 159.055 274.465 159.29C274.465 159.514 274.392 159.702 274.245 159.854C274.104 160.005 273.894 160.081 273.615 160.081C273.337 160.081 273.127 160.005 272.985 159.854C272.849 159.702 272.78 159.514 272.78 159.29Z" fill="#F0E442"/>
<path d="M110.747 124H109.34V113.336H110.747V124ZM114.951 114.156V116.075H116.43V117.123H114.951V122.037C114.951 122.354 115.017 122.594 115.148 122.755C115.28 122.911 115.505 122.989 115.822 122.989C115.979 122.989 116.193 122.96 116.467 122.901V124C116.11 124.098 115.764 124.146 115.427 124.146C114.821 124.146 114.365 123.963 114.057 123.597C113.75 123.231 113.596 122.711 113.596 122.037V117.123H112.153V116.075H113.596V114.156H114.951ZM118.115 116.339L117.346 115.812C117.8 115.177 118.034 114.508 118.049 113.805V112.75H119.389V113.702C119.384 114.19 119.262 114.679 119.023 115.167C118.789 115.65 118.486 116.041 118.115 116.339ZM124.816 121.898C124.816 121.532 124.677 121.249 124.399 121.048C124.125 120.843 123.645 120.667 122.956 120.521C122.272 120.375 121.728 120.199 121.323 119.994C120.922 119.789 120.625 119.544 120.429 119.261C120.239 118.978 120.144 118.641 120.144 118.25C120.144 117.601 120.417 117.052 120.964 116.603C121.516 116.153 122.219 115.929 123.073 115.929C123.972 115.929 124.699 116.161 125.256 116.625C125.817 117.088 126.098 117.682 126.098 118.404H124.736C124.736 118.033 124.577 117.713 124.26 117.445C123.947 117.176 123.552 117.042 123.073 117.042C122.58 117.042 122.194 117.149 121.916 117.364C121.638 117.579 121.499 117.86 121.499 118.207C121.499 118.534 121.628 118.78 121.887 118.946C122.146 119.112 122.612 119.271 123.286 119.422C123.964 119.574 124.514 119.754 124.934 119.964C125.354 120.174 125.664 120.428 125.864 120.726C126.069 121.019 126.171 121.378 126.171 121.803C126.171 122.511 125.888 123.08 125.322 123.509C124.755 123.934 124.021 124.146 123.117 124.146C122.482 124.146 121.921 124.034 121.433 123.81C120.944 123.585 120.561 123.272 120.283 122.872C120.009 122.467 119.873 122.03 119.873 121.561H121.228C121.252 122.015 121.433 122.376 121.77 122.645C122.111 122.909 122.561 123.041 123.117 123.041C123.63 123.041 124.04 122.938 124.348 122.733C124.66 122.523 124.816 122.245 124.816 121.898ZM133.496 114.156V116.075H134.975V117.123H133.496V122.037C133.496 122.354 133.562 122.594 133.693 122.755C133.825 122.911 134.05 122.989 134.367 122.989C134.523 122.989 134.738 122.96 135.012 122.901V124C134.655 124.098 134.309 124.146 133.972 124.146C133.366 124.146 132.91 123.963 132.602 123.597C132.294 123.231 132.141 122.711 132.141 122.037V117.123H130.698V116.075H132.141V114.156H133.496ZM140.395 117.291C140.19 117.257 139.968 117.24 139.729 117.24C138.84 117.24 138.237 117.618 137.919 118.375V124H136.564V116.075H137.883L137.905 116.991C138.349 116.283 138.979 115.929 139.794 115.929C140.058 115.929 140.258 115.963 140.395 116.031V117.291ZM146.54 123.216C146.013 123.836 145.239 124.146 144.218 124.146C143.374 124.146 142.729 123.902 142.285 123.414C141.845 122.921 141.623 122.193 141.618 121.231V116.075H142.973V121.195C142.973 122.396 143.461 122.997 144.438 122.997C145.473 122.997 146.162 122.611 146.503 121.839V116.075H147.858V124H146.569L146.54 123.216ZM153.212 124.146C152.138 124.146 151.264 123.795 150.59 123.092C149.917 122.384 149.58 121.439 149.58 120.257V120.008C149.58 119.222 149.729 118.521 150.026 117.906C150.329 117.286 150.749 116.803 151.286 116.456C151.828 116.104 152.414 115.929 153.044 115.929C154.074 115.929 154.875 116.268 155.446 116.947C156.018 117.625 156.303 118.597 156.303 119.862V120.426H150.935C150.954 121.207 151.181 121.839 151.616 122.323C152.055 122.801 152.612 123.041 153.286 123.041C153.764 123.041 154.169 122.943 154.501 122.748C154.833 122.552 155.124 122.293 155.373 121.971L156.201 122.616C155.537 123.636 154.541 124.146 153.212 124.146ZM153.044 117.042C152.497 117.042 152.038 117.242 151.667 117.643C151.296 118.038 151.066 118.595 150.979 119.312H154.948V119.21C154.909 118.521 154.724 117.989 154.392 117.613C154.06 117.232 153.61 117.042 153.044 117.042ZM163.437 114.156V116.075H164.917V117.123H163.437V122.037C163.437 122.354 163.503 122.594 163.635 122.755C163.767 122.911 163.991 122.989 164.309 122.989C164.465 122.989 164.68 122.96 164.953 122.901V124C164.597 124.098 164.25 124.146 163.913 124.146C163.308 124.146 162.851 123.963 162.543 123.597C162.236 123.231 162.082 122.711 162.082 122.037V117.123H160.639V116.075H162.082V114.156H163.437ZM167.861 117.035C168.461 116.297 169.243 115.929 170.205 115.929C171.879 115.929 172.724 116.874 172.739 118.763V124H171.384V118.756C171.379 118.185 171.247 117.762 170.988 117.489C170.734 117.215 170.336 117.079 169.794 117.079C169.355 117.079 168.969 117.196 168.637 117.43C168.305 117.665 168.046 117.972 167.861 118.353V124H166.506V112.75H167.861V117.035ZM179.66 124C179.582 123.844 179.519 123.565 179.47 123.165C178.84 123.819 178.088 124.146 177.214 124.146C176.433 124.146 175.791 123.927 175.288 123.487C174.79 123.043 174.541 122.481 174.541 121.803C174.541 120.978 174.853 120.338 175.478 119.884C176.108 119.425 176.992 119.195 178.129 119.195H179.448V118.573C179.448 118.099 179.306 117.723 179.023 117.445C178.74 117.162 178.322 117.02 177.771 117.02C177.287 117.02 176.882 117.142 176.555 117.386C176.228 117.63 176.064 117.926 176.064 118.272H174.702C174.702 117.877 174.841 117.496 175.119 117.13C175.402 116.759 175.783 116.466 176.262 116.251C176.745 116.036 177.275 115.929 177.851 115.929C178.764 115.929 179.479 116.158 179.997 116.617C180.515 117.071 180.783 117.699 180.803 118.5V122.147C180.803 122.875 180.896 123.453 181.081 123.883V124H179.66ZM177.412 122.967C177.836 122.967 178.239 122.857 178.62 122.638C179.001 122.418 179.277 122.132 179.448 121.781V120.155H178.386C176.726 120.155 175.896 120.641 175.896 121.612C175.896 122.037 176.037 122.369 176.32 122.608C176.604 122.848 176.967 122.967 177.412 122.967ZM184.765 114.156V116.075H186.245V117.123H184.765V122.037C184.765 122.354 184.831 122.594 184.963 122.755C185.095 122.911 185.319 122.989 185.637 122.989C185.793 122.989 186.008 122.96 186.281 122.901V124C185.925 124.098 185.578 124.146 185.241 124.146C184.636 124.146 184.179 123.963 183.872 123.597C183.564 123.231 183.41 122.711 183.41 122.037V117.123H181.967V116.075H183.41V114.156H184.765ZM198.403 124H191.416V123.026L195.107 118.924C195.654 118.304 196.03 117.801 196.235 117.416C196.445 117.025 196.55 116.622 196.55 116.207C196.55 115.65 196.381 115.194 196.044 114.837C195.708 114.481 195.258 114.303 194.697 114.303C194.023 114.303 193.498 114.496 193.122 114.881C192.751 115.262 192.565 115.794 192.565 116.478H191.21C191.21 115.497 191.525 114.703 192.155 114.098C192.79 113.492 193.637 113.189 194.697 113.189C195.688 113.189 196.472 113.451 197.048 113.973C197.624 114.491 197.912 115.182 197.912 116.046C197.912 117.096 197.243 118.346 195.905 119.796L193.049 122.894H198.403V124ZM205.72 124H203.596V116.075H205.72V124ZM203.471 114.024C203.471 113.707 203.576 113.446 203.786 113.241C204.001 113.036 204.292 112.933 204.658 112.933C205.019 112.933 205.307 113.036 205.522 113.241C205.737 113.446 205.844 113.707 205.844 114.024C205.844 114.347 205.734 114.61 205.515 114.815C205.3 115.021 205.014 115.123 204.658 115.123C204.301 115.123 204.013 115.021 203.793 114.815C203.579 114.61 203.471 114.347 203.471 114.024ZM211.762 121.81C211.762 121.551 211.633 121.349 211.374 121.202C211.12 121.051 210.71 120.917 210.144 120.799C208.259 120.404 207.316 119.603 207.316 118.397C207.316 117.694 207.607 117.108 208.188 116.639C208.774 116.166 209.538 115.929 210.48 115.929C211.486 115.929 212.29 116.166 212.89 116.639C213.496 117.113 213.798 117.728 213.798 118.485H211.682C211.682 118.182 211.584 117.933 211.389 117.738C211.193 117.538 210.888 117.438 210.473 117.438C210.117 117.438 209.841 117.518 209.646 117.679C209.45 117.84 209.353 118.045 209.353 118.294C209.353 118.529 209.462 118.719 209.682 118.866C209.907 119.007 210.283 119.132 210.81 119.239C211.337 119.342 211.782 119.459 212.143 119.591C213.261 120.001 213.82 120.711 213.82 121.722C213.82 122.445 213.51 123.031 212.89 123.48C212.27 123.924 211.469 124.146 210.488 124.146C209.824 124.146 209.233 124.029 208.715 123.795C208.203 123.556 207.8 123.231 207.507 122.821C207.214 122.406 207.067 121.959 207.067 121.48H209.074C209.094 121.856 209.233 122.145 209.492 122.345C209.75 122.545 210.097 122.645 210.532 122.645C210.937 122.645 211.242 122.569 211.447 122.418C211.657 122.262 211.762 122.059 211.762 121.81ZM220.874 116.075L220.939 116.991C221.506 116.283 222.265 115.929 223.217 115.929C224.057 115.929 224.682 116.175 225.092 116.668C225.502 117.162 225.712 117.899 225.722 118.88V124H223.605V118.932C223.605 118.482 223.508 118.158 223.312 117.958C223.117 117.752 222.792 117.65 222.338 117.65C221.743 117.65 221.296 117.904 220.998 118.412V124H218.881V116.075H220.874ZM227.004 119.964C227.004 119.178 227.155 118.478 227.458 117.862C227.761 117.247 228.195 116.771 228.762 116.434C229.333 116.097 229.995 115.929 230.747 115.929C231.816 115.929 232.688 116.256 233.361 116.91C234.04 117.564 234.418 118.453 234.497 119.576L234.511 120.118C234.511 121.334 234.172 122.311 233.493 123.048C232.814 123.78 231.904 124.146 230.761 124.146C229.619 124.146 228.706 123.78 228.022 123.048C227.343 122.315 227.004 121.319 227.004 120.06V119.964ZM229.121 120.118C229.121 120.87 229.262 121.446 229.545 121.847C229.829 122.242 230.234 122.44 230.761 122.44C231.274 122.44 231.674 122.245 231.962 121.854C232.25 121.458 232.395 120.829 232.395 119.964C232.395 119.227 232.25 118.656 231.962 118.25C231.674 117.845 231.269 117.643 230.747 117.643C230.229 117.643 229.829 117.845 229.545 118.25C229.262 118.651 229.121 119.273 229.121 120.118ZM238.349 114.127V116.075H239.704V117.628H238.349V121.583C238.349 121.876 238.405 122.086 238.518 122.213C238.63 122.34 238.845 122.403 239.162 122.403C239.396 122.403 239.604 122.386 239.785 122.352V123.956C239.37 124.083 238.942 124.146 238.503 124.146C237.019 124.146 236.262 123.397 236.232 121.898V117.628H235.075V116.075H236.232V114.127H238.349ZM248.105 124.146C247.031 124.146 246.157 123.795 245.483 123.092C244.809 122.384 244.472 121.439 244.472 120.257V120.008C244.472 119.222 244.621 118.521 244.919 117.906C245.222 117.286 245.642 116.803 246.179 116.456C246.721 116.104 247.307 115.929 247.937 115.929C248.967 115.929 249.768 116.268 250.339 116.947C250.91 117.625 251.196 118.597 251.196 119.862V120.426H245.827C245.847 121.207 246.074 121.839 246.508 122.323C246.948 122.801 247.504 123.041 248.178 123.041C248.657 123.041 249.062 122.943 249.394 122.748C249.726 122.552 250.017 122.293 250.266 121.971L251.093 122.616C250.429 123.636 249.433 124.146 248.105 124.146ZM247.937 117.042C247.39 117.042 246.931 117.242 246.56 117.643C246.188 118.038 245.959 118.595 245.871 119.312H249.841V119.21C249.802 118.521 249.616 117.989 249.284 117.613C248.952 117.232 248.503 117.042 247.937 117.042ZM252.441 119.972C252.441 118.727 252.727 117.743 253.298 117.02C253.869 116.292 254.636 115.929 255.598 115.929C256.535 115.929 257.275 116.244 257.817 116.874L257.875 116.075H259.121V127.047H257.766V123.268C257.219 123.854 256.491 124.146 255.583 124.146C254.626 124.146 253.862 123.775 253.291 123.033C252.724 122.286 252.441 121.297 252.441 120.067V119.972ZM253.796 120.125C253.796 121.034 253.986 121.747 254.367 122.264C254.753 122.782 255.271 123.041 255.92 123.041C256.726 123.041 257.341 122.684 257.766 121.971V118.089C257.336 117.391 256.726 117.042 255.935 117.042C255.28 117.042 254.76 117.303 254.375 117.826C253.989 118.343 253.796 119.11 253.796 120.125ZM266.188 123.216C265.661 123.836 264.887 124.146 263.867 124.146C263.022 124.146 262.377 123.902 261.933 123.414C261.494 122.921 261.271 122.193 261.267 121.231V116.075H262.622V121.195C262.622 122.396 263.11 122.997 264.086 122.997C265.122 122.997 265.81 122.611 266.152 121.839V116.075H267.507V124H266.218L266.188 123.216ZM274.465 124C274.387 123.844 274.323 123.565 274.274 123.165C273.645 123.819 272.893 124.146 272.019 124.146C271.237 124.146 270.595 123.927 270.092 123.487C269.594 123.043 269.345 122.481 269.345 121.803C269.345 120.978 269.658 120.338 270.283 119.884C270.913 119.425 271.796 119.195 272.934 119.195H274.252V118.573C274.252 118.099 274.111 117.723 273.828 117.445C273.544 117.162 273.127 117.02 272.575 117.02C272.092 117.02 271.687 117.142 271.359 117.386C271.032 117.63 270.869 117.926 270.869 118.272H269.506C269.506 117.877 269.646 117.496 269.924 117.13C270.207 116.759 270.588 116.466 271.066 116.251C271.55 116.036 272.08 115.929 272.656 115.929C273.569 115.929 274.284 116.158 274.802 116.617C275.319 117.071 275.588 117.699 275.607 118.5V122.147C275.607 122.875 275.7 123.453 275.886 123.883V124H274.465ZM272.216 122.967C272.641 122.967 273.044 122.857 273.425 122.638C273.806 122.418 274.082 122.132 274.252 121.781V120.155H273.19C271.53 120.155 270.7 120.641 270.7 121.612C270.7 122.037 270.842 122.369 271.125 122.608C271.408 122.848 271.772 122.967 272.216 122.967ZM279.204 124H277.849V112.75H279.204V124ZM286.938 114.156V116.075H288.417V117.123H286.938V122.037C286.938 122.354 287.004 122.594 287.136 122.755C287.268 122.911 287.492 122.989 287.81 122.989C287.966 122.989 288.181 122.96 288.454 122.901V124C288.098 124.098 287.751 124.146 287.414 124.146C286.809 124.146 286.352 123.963 286.044 123.597C285.737 123.231 285.583 122.711 285.583 122.037V117.123H284.14V116.075H285.583V114.156H286.938ZM289.501 119.964C289.501 119.188 289.653 118.49 289.956 117.87C290.263 117.25 290.688 116.771 291.23 116.434C291.777 116.097 292.399 115.929 293.098 115.929C294.177 115.929 295.048 116.302 295.712 117.049C296.381 117.796 296.716 118.79 296.716 120.03V120.125C296.716 120.897 296.567 121.59 296.269 122.206C295.976 122.816 295.554 123.292 295.002 123.634C294.455 123.976 293.825 124.146 293.112 124.146C292.038 124.146 291.167 123.773 290.498 123.026C289.833 122.279 289.501 121.29 289.501 120.06V119.964ZM290.864 120.125C290.864 121.004 291.066 121.71 291.472 122.242C291.882 122.774 292.429 123.041 293.112 123.041C293.801 123.041 294.348 122.772 294.753 122.235C295.158 121.693 295.361 120.936 295.361 119.964C295.361 119.095 295.153 118.392 294.738 117.855C294.328 117.313 293.781 117.042 293.098 117.042C292.429 117.042 291.889 117.308 291.479 117.84C291.069 118.373 290.864 119.134 290.864 120.125ZM308.684 119.452C308.684 121.039 308.413 122.218 307.871 122.989C307.329 123.761 306.481 124.146 305.329 124.146C304.191 124.146 303.349 123.771 302.802 123.019C302.255 122.262 301.972 121.134 301.953 119.635V117.826C301.953 116.258 302.224 115.094 302.766 114.332C303.308 113.57 304.157 113.189 305.314 113.189C306.462 113.189 307.307 113.558 307.849 114.295C308.391 115.028 308.669 116.161 308.684 117.694V119.452ZM307.329 117.599C307.329 116.451 307.167 115.616 306.845 115.094C306.523 114.566 306.013 114.303 305.314 114.303C304.621 114.303 304.116 114.564 303.798 115.086C303.481 115.609 303.317 116.412 303.308 117.496V119.664C303.308 120.816 303.474 121.668 303.806 122.22C304.143 122.767 304.65 123.041 305.329 123.041C305.998 123.041 306.494 122.782 306.816 122.264C307.143 121.747 307.314 120.931 307.329 119.818V117.599ZM310.588 123.29C310.588 123.055 310.656 122.86 310.793 122.704C310.935 122.547 311.145 122.469 311.423 122.469C311.701 122.469 311.911 122.547 312.053 122.704C312.199 122.86 312.272 123.055 312.272 123.29C312.272 123.514 312.199 123.702 312.053 123.854C311.911 124.005 311.701 124.081 311.423 124.081C311.145 124.081 310.935 124.005 310.793 123.854C310.656 123.702 310.588 123.514 310.588 123.29Z" fill="#F0E442"/>
<path d="M65.2929 118.293C64.9024 118.683 64.9024 119.317 65.2929 119.707L71.6569 126.071C72.0474 126.462 72.6805 126.462 73.0711 126.071C73.4616 125.681 73.4616 125.047 73.0711 124.657L67.4142 119L73.0711 113.343C73.4616 112.953 73.4616 112.319 73.0711 111.929C72.6805 111.538 72.0474 111.538 71.6569 111.929L65.2929 118.293ZM102 118H66V120H102V118Z" fill="#F0E442"/>
</svg>
