<svg width="222" height="126" viewBox="0 0 222 126" fill="none" xmlns="http://www.w3.org/2000/svg">
<rect width="222" height="126" fill="white"/>
<rect width="222" height="126" fill="black"/>
<path d="M7.65 44.435C7.97 44.715 8.325 44.945 8.715 45.125C9.115 45.305 9.535 45.395 9.975 45.395C10.495 45.395 10.92 45.3 11.25 45.11C11.59 44.91 11.76 44.63 11.76 44.27C11.76 44.06 11.715 43.87 11.625 43.7C11.535 43.53 11.38 43.39 11.16 43.28C10.94 43.16 10.645 43.07 10.275 43.01C9.905 42.94 9.44 42.905 8.88 42.905V41.345C9.82 41.345 10.48 41.23 10.86 41C11.25 40.76 11.445 40.45 11.445 40.07C11.445 39.74 11.32 39.485 11.07 39.305C10.82 39.115 10.475 39.02 10.035 39.02C9.655 39.02 9.305 39.095 8.985 39.245C8.665 39.395 8.34 39.6 8.01 39.86L6.9 38.51C7.37 38.13 7.87 37.835 8.4 37.625C8.94 37.405 9.52 37.295 10.14 37.295C10.66 37.295 11.135 37.355 11.565 37.475C11.995 37.585 12.365 37.755 12.675 37.985C12.985 38.205 13.225 38.475 13.395 38.795C13.565 39.115 13.65 39.485 13.65 39.905C13.65 40.405 13.49 40.83 13.17 41.18C12.85 41.52 12.405 41.8 11.835 42.02V42.08C12.435 42.24 12.94 42.515 13.35 42.905C13.76 43.285 13.965 43.785 13.965 44.405C13.965 44.845 13.86 45.24 13.65 45.59C13.45 45.93 13.175 46.22 12.825 46.46C12.485 46.69 12.085 46.87 11.625 47C11.165 47.12 10.685 47.18 10.185 47.18C9.365 47.18 8.66 47.06 8.07 46.82C7.48 46.57 7 46.24 6.63 45.83L7.65 44.435ZM42.8466 45.74C43.5266 45.17 44.1466 44.64 44.7066 44.15C45.2666 43.65 45.7466 43.185 46.1466 42.755C46.5466 42.325 46.8566 41.92 47.0766 41.54C47.2966 41.16 47.4066 40.8 47.4066 40.46C47.4066 39.99 47.2716 39.635 47.0016 39.395C46.7316 39.145 46.3466 39.02 45.8466 39.02C45.4666 39.02 45.1166 39.12 44.7966 39.32C44.4866 39.51 44.1966 39.735 43.9266 39.995L42.7416 38.81C42.9916 38.56 43.2366 38.34 43.4766 38.15C43.7266 37.96 43.9866 37.805 44.2566 37.685C44.5366 37.555 44.8266 37.46 45.1266 37.4C45.4366 37.33 45.7766 37.295 46.1466 37.295C46.6466 37.295 47.1016 37.37 47.5116 37.52C47.9216 37.66 48.2716 37.865 48.5616 38.135C48.8616 38.395 49.0916 38.71 49.2516 39.08C49.4216 39.45 49.5066 39.865 49.5066 40.325C49.5066 40.725 49.4116 41.135 49.2216 41.555C49.0316 41.965 48.7716 42.38 48.4416 42.8C48.1216 43.21 47.7516 43.625 47.3316 44.045C46.9116 44.455 46.4716 44.86 46.0116 45.26C46.2816 45.23 46.5716 45.205 46.8816 45.185C47.2016 45.155 47.4866 45.14 47.7366 45.14H50.0016V47H42.8466V45.74Z" fill="#F0E442"/>
<path d="M26.9433 49.4H25.0983L30.0333 36.35H31.8783L26.9433 49.4Z" fill="#E0E0E0"/>
<path d="M14.055 107.215V109H7.23V107.215H9.69V101.71H7.725V100.345C8.285 100.245 8.76 100.125 9.15 99.985C9.55 99.845 9.925 99.675 10.275 99.475H11.895V107.215H14.055ZM17.7541 107.425C17.7541 107.175 17.7941 106.945 17.8741 106.735C17.9641 106.515 18.0841 106.325 18.2341 106.165C18.3841 106.005 18.5641 105.88 18.7741 105.79C18.9941 105.7 19.2341 105.655 19.4941 105.655C19.7541 105.655 19.9891 105.7 20.1991 105.79C20.4191 105.88 20.6041 106.005 20.7541 106.165C20.9041 106.325 21.0191 106.515 21.0991 106.735C21.1891 106.945 21.2341 107.175 21.2341 107.425C21.2341 107.925 21.0741 108.345 20.7541 108.685C20.4341 109.015 20.0141 109.18 19.4941 109.18C18.9741 109.18 18.5541 109.015 18.2341 108.685C17.9141 108.345 17.7541 107.925 17.7541 107.425ZM25.6683 106.45C25.9883 106.71 26.3283 106.935 26.6883 107.125C27.0583 107.305 27.4683 107.395 27.9183 107.395C28.4583 107.395 28.8983 107.27 29.2383 107.02C29.5883 106.77 29.7633 106.4 29.7633 105.91C29.7633 105.43 29.5983 105.065 29.2683 104.815C28.9483 104.565 28.5333 104.44 28.0233 104.44C27.8633 104.44 27.7183 104.45 27.5883 104.47C27.4683 104.48 27.3483 104.505 27.2283 104.545C27.1083 104.585 26.9833 104.635 26.8533 104.695C26.7233 104.755 26.5783 104.83 26.4183 104.92L25.4433 104.29L25.6983 99.475H31.5333V101.335H27.6033L27.4383 103.12C27.6583 103.04 27.8633 102.985 28.0533 102.955C28.2433 102.915 28.4583 102.895 28.6983 102.895C29.1383 102.895 29.5533 102.955 29.9433 103.075C30.3433 103.195 30.6933 103.375 30.9933 103.615C31.2933 103.855 31.5283 104.16 31.6983 104.53C31.8783 104.9 31.9683 105.34 31.9683 105.85C31.9683 106.38 31.8633 106.85 31.6533 107.26C31.4533 107.67 31.1783 108.02 30.8283 108.31C30.4883 108.59 30.0933 108.805 29.6433 108.955C29.1933 109.105 28.7233 109.18 28.2333 109.18C27.4033 109.18 26.6983 109.055 26.1183 108.805C25.5483 108.545 25.0683 108.225 24.6783 107.845L25.6683 106.45Z" fill="white"/>
<path d="M10.5 91.18C9.92 91.18 9.385 91.065 8.895 90.835C8.415 90.595 8 90.255 7.65 89.815C7.31 89.375 7.045 88.84 6.855 88.21C6.665 87.58 6.57 86.865 6.57 86.065C6.57 85.265 6.665 84.555 6.855 83.935C7.045 83.305 7.31 82.78 7.65 82.36C8 81.93 8.415 81.605 8.895 81.385C9.385 81.155 9.92 81.04 10.5 81.04C11.08 81.04 11.61 81.155 12.09 81.385C12.58 81.605 12.995 81.93 13.335 82.36C13.685 82.79 13.955 83.32 14.145 83.95C14.335 84.57 14.43 85.275 14.43 86.065C14.43 86.865 14.335 87.58 14.145 88.21C13.955 88.84 13.685 89.375 13.335 89.815C12.995 90.255 12.58 90.595 12.09 90.835C11.61 91.065 11.08 91.18 10.5 91.18ZM10.5 89.275C11.01 89.275 11.415 88.99 11.715 88.42C12.015 87.84 12.165 87.055 12.165 86.065C12.165 85.085 12.015 84.32 11.715 83.77C11.415 83.22 11.01 82.945 10.5 82.945C9.99 82.945 9.585 83.22 9.285 83.77C8.985 84.32 8.835 85.085 8.835 86.065C8.835 87.055 8.985 87.84 9.285 88.42C9.585 88.99 9.99 89.275 10.5 89.275ZM22.8691 91H21.0691L20.9041 89.935H20.8441C20.5141 90.315 20.1491 90.62 19.7491 90.85C19.3491 91.07 18.8791 91.18 18.3391 91.18C17.4891 91.18 16.8741 90.91 16.4941 90.37C16.1141 89.83 15.9241 89.09 15.9241 88.15V83.56H18.1291V87.865C18.1291 88.365 18.2041 88.73 18.3541 88.96C18.5041 89.19 18.7891 89.305 19.2091 89.305C19.4891 89.305 19.7341 89.245 19.9441 89.125C20.1641 89.005 20.4041 88.78 20.6641 88.45V83.56H22.8691V91ZM26.5983 85.285H24.7233V83.65L26.7033 83.56L26.9883 81.58H28.8033V83.56H31.9533V85.285H28.8033V87.895C28.8033 88.465 28.9283 88.87 29.1783 89.11C29.4283 89.34 29.8233 89.455 30.3633 89.455C30.6533 89.455 30.9183 89.43 31.1583 89.38C31.3983 89.33 31.6283 89.265 31.8483 89.185L32.2383 90.775C31.9083 90.875 31.5383 90.965 31.1283 91.045C30.7283 91.135 30.2883 91.18 29.8083 91.18C29.2183 91.18 28.7183 91.1 28.3083 90.94C27.8983 90.78 27.5633 90.56 27.3033 90.28C27.0533 89.99 26.8733 89.645 26.7633 89.245C26.6533 88.845 26.5983 88.4 26.5983 87.91V85.285ZM36.2674 91.585V93.76H34.0624V83.56H35.8624L36.0274 84.31H36.0724C36.3724 84.04 36.7174 83.82 37.1074 83.65C37.4974 83.47 37.8924 83.38 38.2924 83.38C38.7524 83.38 39.1674 83.47 39.5374 83.65C39.9074 83.83 40.2224 84.085 40.4824 84.415C40.7424 84.745 40.9374 85.145 41.0674 85.615C41.2074 86.075 41.2774 86.59 41.2774 87.16C41.2774 87.8 41.1874 88.37 41.0074 88.87C40.8274 89.36 40.5874 89.78 40.2874 90.13C39.9874 90.47 39.6424 90.73 39.2524 90.91C38.8724 91.09 38.4724 91.18 38.0524 91.18C37.3724 91.18 36.7524 90.91 36.1924 90.37L36.2674 91.585ZM36.2674 88.885C36.4774 89.065 36.6924 89.195 36.9124 89.275C37.1424 89.345 37.3524 89.38 37.5424 89.38C37.9624 89.38 38.3124 89.21 38.5924 88.87C38.8724 88.52 39.0124 87.96 39.0124 87.19C39.0124 85.85 38.5574 85.18 37.6474 85.18C37.1774 85.18 36.7174 85.41 36.2674 85.87V88.885ZM49.8516 91H48.0516L47.8866 89.935H47.8266C47.4966 90.315 47.1316 90.62 46.7316 90.85C46.3316 91.07 45.8616 91.18 45.3216 91.18C44.4716 91.18 43.8566 90.91 43.4766 90.37C43.0966 89.83 42.9066 89.09 42.9066 88.15V83.56H45.1116V87.865C45.1116 88.365 45.1866 88.73 45.3366 88.96C45.4866 89.19 45.7716 89.305 46.1916 89.305C46.4716 89.305 46.7166 89.245 46.9266 89.125C47.1466 89.005 47.3866 88.78 47.6466 88.45V83.56H49.8516V91ZM53.5807 85.285H51.7057V83.65L53.6857 83.56L53.9707 81.58H55.7857V83.56H58.9357V85.285H55.7857V87.895C55.7857 88.465 55.9107 88.87 56.1607 89.11C56.4107 89.34 56.8057 89.455 57.3457 89.455C57.6357 89.455 57.9007 89.43 58.1407 89.38C58.3807 89.33 58.6107 89.265 58.8307 89.185L59.2207 90.775C58.8907 90.875 58.5207 90.965 58.1107 91.045C57.7107 91.135 57.2707 91.18 56.7907 91.18C56.2007 91.18 55.7007 91.1 55.2907 90.94C54.8807 90.78 54.5457 90.56 54.2857 90.28C54.0357 89.99 53.8557 89.645 53.7457 89.245C53.6357 88.845 53.5807 88.4 53.5807 87.91V85.285Z" fill="white"/>
<rect x="77" width="145" height="26" fill="#333333"/>
<rect x="77" width="145" height="26" fill="#333333"/>
<rect width="77" height="26" fill="#090808"/>
<path d="M11.105 15.8101C11.105 15.5513 10.9756 15.3486 10.7168 15.2021C10.4629 15.0508 10.0527 14.9165 9.48633 14.7993C7.60156 14.4038 6.65918 13.603 6.65918 12.397C6.65918 11.6938 6.94971 11.1079 7.53076 10.6392C8.1167 10.1655 8.88086 9.92871 9.82324 9.92871C10.8291 9.92871 11.6323 10.1655 12.2329 10.6392C12.8384 11.1128 13.1411 11.728 13.1411 12.4849H11.0244C11.0244 12.1821 10.9268 11.9331 10.7314 11.7378C10.5361 11.5376 10.231 11.4375 9.81592 11.4375C9.45947 11.4375 9.18359 11.5181 8.98828 11.6792C8.79297 11.8403 8.69531 12.0454 8.69531 12.2944C8.69531 12.5288 8.80518 12.7192 9.0249 12.8657C9.24951 13.0073 9.62549 13.1318 10.1528 13.2393C10.6802 13.3418 11.1245 13.459 11.4858 13.5908C12.604 14.001 13.1631 14.7114 13.1631 15.7222C13.1631 16.4448 12.853 17.0308 12.2329 17.48C11.6128 17.9243 10.812 18.1465 9.83057 18.1465C9.1665 18.1465 8.57568 18.0293 8.05811 17.7949C7.54541 17.5557 7.14258 17.231 6.84961 16.8208C6.55664 16.4058 6.41016 15.959 6.41016 15.4805H8.41699C8.43652 15.8564 8.57568 16.1445 8.83447 16.3447C9.09326 16.5449 9.43994 16.645 9.87451 16.645C10.2798 16.645 10.585 16.5693 10.79 16.418C11 16.2617 11.105 16.0591 11.105 15.8101ZM17.8286 16.4399C18.2192 16.4399 18.5366 16.3325 18.7808 16.1177C19.0249 15.9028 19.1519 15.6172 19.1616 15.2607H21.1465C21.1416 15.7979 20.9951 16.291 20.707 16.7402C20.4189 17.1846 20.0234 17.5312 19.5205 17.7803C19.0225 18.0244 18.4707 18.1465 17.8652 18.1465C16.7324 18.1465 15.8389 17.7876 15.1846 17.0698C14.5303 16.3472 14.2031 15.3511 14.2031 14.0815V13.9424C14.2031 12.7217 14.5278 11.7476 15.1772 11.02C15.8267 10.2925 16.7178 9.92871 17.8506 9.92871C18.8418 9.92871 19.6353 10.2119 20.231 10.7783C20.8315 11.3398 21.1367 12.0894 21.1465 13.0269H19.1616C19.1519 12.6167 19.0249 12.2847 18.7808 12.0308C18.5366 11.772 18.2144 11.6426 17.814 11.6426C17.3208 11.6426 16.9473 11.8232 16.6934 12.1846C16.4443 12.541 16.3198 13.1221 16.3198 13.9277V14.1475C16.3198 14.9629 16.4443 15.5488 16.6934 15.9053C16.9424 16.2617 17.3208 16.4399 17.8286 16.4399ZM26.8081 12.0601C26.52 12.021 26.2661 12.0015 26.0464 12.0015C25.2456 12.0015 24.7207 12.2725 24.4717 12.8145V18H22.355V10.0752H24.3545L24.4131 11.02C24.8379 10.2925 25.4263 9.92871 26.1782 9.92871C26.4126 9.92871 26.6323 9.96045 26.8374 10.0239L26.8081 12.0601ZM30.0674 18H27.9434V10.0752H30.0674V18ZM27.8188 8.02441C27.8188 7.70703 27.9238 7.4458 28.1338 7.24072C28.3486 7.03564 28.6392 6.93311 29.0054 6.93311C29.3667 6.93311 29.6548 7.03564 29.8696 7.24072C30.0845 7.4458 30.1919 7.70703 30.1919 8.02441C30.1919 8.34668 30.082 8.61035 29.8623 8.81543C29.6475 9.02051 29.3618 9.12305 29.0054 9.12305C28.6489 9.12305 28.3608 9.02051 28.1411 8.81543C27.9263 8.61035 27.8188 8.34668 27.8188 8.02441ZM38.9517 14.1108C38.9517 15.3315 38.6733 16.3105 38.1167 17.0479C37.5649 17.7803 36.8179 18.1465 35.8755 18.1465C35.0747 18.1465 34.4277 17.8682 33.9346 17.3115V21.0469H31.8179V10.0752H33.7808L33.854 10.8516C34.3667 10.2363 35.0356 9.92871 35.8608 9.92871C36.8374 9.92871 37.5967 10.29 38.1387 11.0127C38.6807 11.7354 38.9517 12.7314 38.9517 14.001V14.1108ZM36.835 13.957C36.835 13.2197 36.7031 12.6509 36.4395 12.2505C36.1807 11.8501 35.8022 11.6499 35.3042 11.6499C34.6401 11.6499 34.1836 11.9038 33.9346 12.4116V15.6562C34.1934 16.1787 34.6548 16.4399 35.3188 16.4399C36.3296 16.4399 36.835 15.6123 36.835 13.957ZM42.8042 8.12695V10.0752H44.1592V11.6279H42.8042V15.583C42.8042 15.876 42.8604 16.0859 42.9727 16.2129C43.085 16.3398 43.2998 16.4033 43.6172 16.4033C43.8516 16.4033 44.0591 16.3862 44.2397 16.3521V17.9561C43.8247 18.083 43.3975 18.1465 42.958 18.1465C41.4736 18.1465 40.7168 17.397 40.6875 15.8979V11.6279H39.5303V10.0752H40.6875V8.12695H42.8042ZM45.4482 16.96C45.4482 16.623 45.5605 16.3496 45.7852 16.1396C46.0146 15.9297 46.3003 15.8247 46.6421 15.8247C46.9888 15.8247 47.2744 15.9297 47.499 16.1396C47.7285 16.3496 47.8433 16.623 47.8433 16.96C47.8433 17.292 47.731 17.563 47.5063 17.7729C47.2817 17.978 46.9937 18.0806 46.6421 18.0806C46.2954 18.0806 46.0098 17.978 45.7852 17.7729C45.5605 17.563 45.4482 17.292 45.4482 16.96ZM56.8374 14.1108C56.8374 15.3315 56.5591 16.3105 56.0024 17.0479C55.4507 17.7803 54.7036 18.1465 53.7612 18.1465C52.9604 18.1465 52.3135 17.8682 51.8203 17.3115V21.0469H49.7036V10.0752H51.6665L51.7397 10.8516C52.2524 10.2363 52.9214 9.92871 53.7466 9.92871C54.7231 9.92871 55.4824 10.29 56.0244 11.0127C56.5664 11.7354 56.8374 12.7314 56.8374 14.001V14.1108ZM54.7207 13.957C54.7207 13.2197 54.5889 12.6509 54.3252 12.2505C54.0664 11.8501 53.688 11.6499 53.1899 11.6499C52.5259 11.6499 52.0693 11.9038 51.8203 12.4116V15.6562C52.0791 16.1787 52.5405 16.4399 53.2046 16.4399C54.2153 16.4399 54.7207 15.6123 54.7207 13.957ZM61.0269 15.0044L62.4917 10.0752H64.7622L61.5762 19.2305L61.4004 19.6479C60.9268 20.6831 60.1455 21.2007 59.0566 21.2007C58.749 21.2007 58.4365 21.1543 58.1191 21.0615V19.4575L58.4414 19.4648C58.8418 19.4648 59.1396 19.4038 59.335 19.2817C59.5352 19.1597 59.6914 18.957 59.8037 18.6738L60.0527 18.022L57.2769 10.0752H59.5547L61.0269 15.0044Z" fill="white"/>
<line y1="72.5" x2="222" y2="72.5" stroke="white"/>
</svg>
