<svg width="242" height="78" viewBox="0 0 242 78" fill="none" xmlns="http://www.w3.org/2000/svg">
<rect width="242" height="78" fill="white"/>
<rect width="242" height="78" fill="black"/>
<path d="M1.74 7.56H3.54L3.72 9.18H3.765C4.135 8.57 4.58 8.12 5.1 7.83C5.62 7.53 6.18 7.38 6.78 7.38C7.11 7.38 7.375 7.405 7.575 7.455C7.785 7.505 8 7.58 8.22 7.68L7.77 9.525C7.54 9.455 7.33 9.405 7.14 9.375C6.96 9.335 6.73 9.315 6.45 9.315C5.99 9.315 5.535 9.45 5.085 9.72C4.645 9.99 4.265 10.46 3.945 11.13V15H1.74V7.56ZM9.81914 11.28C9.81914 10.67 9.92414 10.125 10.1341 9.645C10.3541 9.165 10.6441 8.76 11.0041 8.43C11.3641 8.09 11.7741 7.83 12.2341 7.65C12.7041 7.47 13.1891 7.38 13.6891 7.38C14.2591 7.38 14.7641 7.47 15.2041 7.65C15.6441 7.83 16.0091 8.08 16.2991 8.4C16.5891 8.72 16.8091 9.1 16.9591 9.54C17.1091 9.97 17.1841 10.44 17.1841 10.95C17.1841 11.15 17.1741 11.34 17.1541 11.52C17.1341 11.7 17.1141 11.835 17.0941 11.925H12.0841C12.1641 12.485 12.4041 12.89 12.8041 13.14C13.2141 13.38 13.6941 13.5 14.2441 13.5C14.5841 13.5 14.9041 13.46 15.2041 13.38C15.5141 13.29 15.8341 13.16 16.1641 12.99L16.8841 14.31C16.4641 14.58 15.9941 14.795 15.4741 14.955C14.9541 15.105 14.4441 15.18 13.9441 15.18C13.3641 15.18 12.8241 15.095 12.3241 14.925C11.8241 14.745 11.3891 14.49 11.0191 14.16C10.6491 13.82 10.3541 13.41 10.1341 12.93C9.92414 12.45 9.81914 11.9 9.81914 11.28ZM15.1891 10.47C15.1891 10.05 15.0741 9.71 14.8441 9.45C14.6141 9.19 14.2441 9.06 13.7341 9.06C13.3341 9.06 12.9791 9.175 12.6691 9.405C12.3591 9.635 12.1541 9.99 12.0541 10.47H15.1891ZM19.7733 12.66C20.2033 12.93 20.6333 13.145 21.0633 13.305C21.5033 13.465 21.9733 13.545 22.4733 13.545C22.9833 13.545 23.3483 13.49 23.5683 13.38C23.7883 13.27 23.8983 13.115 23.8983 12.915C23.8983 12.685 23.7133 12.5 23.3433 12.36C22.9833 12.21 22.5033 12.05 21.9033 11.88C21.5733 11.79 21.2483 11.685 20.9283 11.565C20.6183 11.435 20.3383 11.285 20.0883 11.115C19.8383 10.935 19.6333 10.73 19.4733 10.5C19.3233 10.27 19.2483 10.005 19.2483 9.705C19.2483 9.365 19.3283 9.05 19.4883 8.76C19.6483 8.47 19.8733 8.225 20.1633 8.025C20.4633 7.825 20.8233 7.67 21.2433 7.56C21.6733 7.44 22.1533 7.38 22.6833 7.38C23.3433 7.38 23.9433 7.49 24.4833 7.71C25.0333 7.92 25.5033 8.15 25.8933 8.4L24.9033 9.72C24.5633 9.52 24.2133 9.355 23.8533 9.225C23.4933 9.085 23.1183 9.015 22.7283 9.015C22.2583 9.015 21.9233 9.065 21.7233 9.165C21.5333 9.265 21.4383 9.41 21.4383 9.6C21.4383 9.71 21.4883 9.81 21.5883 9.9C21.6883 9.99 21.8233 10.07 21.9933 10.14C22.1633 10.21 22.3633 10.28 22.5933 10.35C22.8333 10.41 23.0833 10.475 23.3433 10.545C23.7133 10.645 24.0633 10.76 24.3933 10.89C24.7233 11.01 25.0133 11.155 25.2633 11.325C25.5133 11.495 25.7133 11.7 25.8633 11.94C26.0133 12.18 26.0883 12.46 26.0883 12.78C26.0883 13.12 26.0083 13.435 25.8483 13.725C25.6883 14.015 25.4533 14.27 25.1433 14.49C24.8433 14.7 24.4633 14.87 24.0033 15C23.5533 15.12 23.0283 15.18 22.4283 15.18C21.7583 15.18 21.1033 15.07 20.4633 14.85C19.8233 14.63 19.2633 14.36 18.7833 14.04L19.7733 12.66ZM34.8574 15H33.0574L32.8924 13.935H32.8324C32.5024 14.315 32.1374 14.62 31.7374 14.85C31.3374 15.07 30.8674 15.18 30.3274 15.18C29.4774 15.18 28.8624 14.91 28.4824 14.37C28.1024 13.83 27.9124 13.09 27.9124 12.15V7.56H30.1174V11.865C30.1174 12.365 30.1924 12.73 30.3424 12.96C30.4924 13.19 30.7774 13.305 31.1974 13.305C31.4774 13.305 31.7224 13.245 31.9324 13.125C32.1524 13.005 32.3924 12.78 32.6524 12.45V7.56H34.8574V15ZM36.9066 4.485H41.2716V12.18C41.2716 12.41 41.3016 12.605 41.3616 12.765C41.4316 12.915 41.5216 13.04 41.6316 13.14C41.7516 13.23 41.8816 13.295 42.0216 13.335C42.1716 13.375 42.3216 13.395 42.4716 13.395C42.6416 13.395 42.8216 13.38 43.0116 13.35C43.2016 13.31 43.4116 13.245 43.6416 13.155L44.1366 14.775C43.9366 14.835 43.7516 14.89 43.5816 14.94C43.4116 14.99 43.2416 15.03 43.0716 15.06C42.9016 15.1 42.7216 15.13 42.5316 15.15C42.3416 15.17 42.1316 15.18 41.9016 15.18C40.9616 15.18 40.2516 14.905 39.7716 14.355C39.3016 13.795 39.0666 13.04 39.0666 12.09V6.225H36.9066V4.485ZM47.5807 9.285H45.7057V7.65L47.6857 7.56L47.9707 5.58H49.7857V7.56H52.9357V9.285H49.7857V11.895C49.7857 12.465 49.9107 12.87 50.1607 13.11C50.4107 13.34 50.8057 13.455 51.3457 13.455C51.6357 13.455 51.9007 13.43 52.1407 13.38C52.3807 13.33 52.6107 13.265 52.8307 13.185L53.2207 14.775C52.8907 14.875 52.5207 14.965 52.1107 15.045C51.7107 15.135 51.2707 15.18 50.7907 15.18C50.2007 15.18 49.7007 15.1 49.2907 14.94C48.8807 14.78 48.5457 14.56 48.2857 14.28C48.0357 13.99 47.8557 13.645 47.7457 13.245C47.6357 12.845 47.5807 12.4 47.5807 11.91V9.285Z" transform="translate(6 35)" fill="white"/>
<path d="M64.009 7.53H70.909V9.09H64.009V7.53ZM64.009 10.995H70.909V12.555H64.009V10.995Z" transform="translate(6 35)" fill="#E0E0E0"/>
<path d="M81.8173 13.74C82.4973 13.17 83.1173 12.64 83.6773 12.15C84.2373 11.65 84.7173 11.185 85.1173 10.755C85.5173 10.325 85.8273 9.92 86.0473 9.54C86.2673 9.16 86.3773 8.8 86.3773 8.46C86.3773 7.99 86.2423 7.635 85.9723 7.395C85.7023 7.145 85.3173 7.02 84.8173 7.02C84.4373 7.02 84.0873 7.12 83.7673 7.32C83.4573 7.51 83.1673 7.735 82.8973 7.995L81.7123 6.81C81.9623 6.56 82.2073 6.34 82.4473 6.15C82.6973 5.96 82.9573 5.805 83.2273 5.685C83.5073 5.555 83.7973 5.46 84.0973 5.4C84.4073 5.33 84.7473 5.295 85.1173 5.295C85.6173 5.295 86.0723 5.37 86.4823 5.52C86.8923 5.66 87.2423 5.865 87.5323 6.135C87.8323 6.395 88.0623 6.71 88.2223 7.08C88.3923 7.45 88.4773 7.865 88.4773 8.325C88.4773 8.725 88.3823 9.135 88.1923 9.555C88.0023 9.965 87.7423 10.38 87.4123 10.8C87.0923 11.21 86.7223 11.625 86.3023 12.045C85.8823 12.455 85.4423 12.86 84.9823 13.26C85.2523 13.23 85.5423 13.205 85.8523 13.185C86.1723 13.155 86.4573 13.14 86.7073 13.14H88.9723V15H81.8173V13.74ZM94.4414 15.18C93.8914 15.18 93.3914 15.075 92.9414 14.865C92.4914 14.645 92.1064 14.325 91.7864 13.905C91.4664 13.485 91.2164 12.965 91.0364 12.345C90.8664 11.725 90.7814 11.01 90.7814 10.2C90.7814 9.39 90.8664 8.68 91.0364 8.07C91.2164 7.46 91.4664 6.95 91.7864 6.54C92.1064 6.12 92.4914 5.81 92.9414 5.61C93.3914 5.4 93.8914 5.295 94.4414 5.295C94.9914 5.295 95.4914 5.4 95.9414 5.61C96.3914 5.81 96.7764 6.12 97.0964 6.54C97.4164 6.95 97.6614 7.46 97.8314 8.07C98.0114 8.68 98.1014 9.39 98.1014 10.2C98.1014 11.01 98.0114 11.725 97.8314 12.345C97.6614 12.965 97.4164 13.485 97.0964 13.905C96.7764 14.325 96.3914 14.645 95.9414 14.865C95.4914 15.075 94.9914 15.18 94.4414 15.18ZM94.4414 7.005C94.2014 7.005 93.9764 7.055 93.7664 7.155C93.5664 7.255 93.3914 7.43 93.2414 7.68C93.0914 7.92 92.9714 8.245 92.8814 8.655C92.7914 9.065 92.7464 9.58 92.7464 10.2C92.7464 10.82 92.7914 11.34 92.8814 11.76C92.9714 12.17 93.0914 12.505 93.2414 12.765C93.3914 13.015 93.5664 13.195 93.7664 13.305C93.9764 13.415 94.2014 13.47 94.4414 13.47C94.6814 13.47 94.9014 13.415 95.1014 13.305C95.3114 13.195 95.4914 13.015 95.6414 12.765C95.7914 12.505 95.9114 12.17 96.0014 11.76C96.0914 11.34 96.1364 10.82 96.1364 10.2C96.1364 9.58 96.0914 9.065 96.0014 8.655C95.9114 8.245 95.7914 7.92 95.6414 7.68C95.4914 7.43 95.3114 7.255 95.1014 7.155C94.9014 7.055 94.6814 7.005 94.4414 7.005ZM94.4414 11.31C94.1214 11.31 93.8514 11.21 93.6314 11.01C93.4214 10.8 93.3164 10.52 93.3164 10.17C93.3164 9.82 93.4214 9.545 93.6314 9.345C93.8514 9.135 94.1214 9.03 94.4414 9.03C94.7614 9.03 95.0264 9.135 95.2364 9.345C95.4564 9.545 95.5664 9.82 95.5664 10.17C95.5664 10.52 95.4564 10.8 95.2364 11.01C95.0264 11.21 94.7614 11.31 94.4414 11.31Z" transform="translate(6 35)" fill="#F0E442"/>
<rect width="145.25" height="30.6018" transform="translate(96.75)" fill="#333333"/>
<rect width="145.25" height="30.6018" transform="translate(96.75)" fill="#333333"/>
<rect width="97" height="31" fill="#090808"/>
<path d="M5.10498 11.8101C5.10498 11.5513 4.97559 11.3486 4.7168 11.2021C4.46289 11.0508 4.05273 10.9165 3.48633 10.7993C1.60156 10.4038 0.65918 9.60303 0.65918 8.39697C0.65918 7.69385 0.949707 7.10791 1.53076 6.63916C2.1167 6.16553 2.88086 5.92871 3.82324 5.92871C4.8291 5.92871 5.63232 6.16553 6.23291 6.63916C6.83838 7.11279 7.14111 7.72803 7.14111 8.48486H5.02441C5.02441 8.18213 4.92676 7.93311 4.73145 7.73779C4.53613 7.5376 4.23096 7.4375 3.81592 7.4375C3.45947 7.4375 3.18359 7.51807 2.98828 7.6792C2.79297 7.84033 2.69531 8.04541 2.69531 8.29443C2.69531 8.52881 2.80518 8.71924 3.0249 8.86572C3.24951 9.00732 3.62549 9.13184 4.15283 9.23926C4.68018 9.3418 5.12451 9.45898 5.48584 9.59082C6.604 10.001 7.16309 10.7114 7.16309 11.7222C7.16309 12.4448 6.85303 13.0308 6.23291 13.48C5.61279 13.9243 4.81201 14.1465 3.83057 14.1465C3.1665 14.1465 2.57568 14.0293 2.05811 13.7949C1.54541 13.5557 1.14258 13.231 0.849609 12.8208C0.556641 12.4058 0.410156 11.959 0.410156 11.4805H2.41699C2.43652 11.8564 2.57568 12.1445 2.83447 12.3447C3.09326 12.5449 3.43994 12.645 3.87451 12.645C4.27979 12.645 4.58496 12.5693 4.79004 12.418C5 12.2617 5.10498 12.0591 5.10498 11.8101ZM11.8286 12.4399C12.2192 12.4399 12.5366 12.3325 12.7808 12.1177C13.0249 11.9028 13.1519 11.6172 13.1616 11.2607H15.1465C15.1416 11.7979 14.9951 12.291 14.707 12.7402C14.4189 13.1846 14.0234 13.5312 13.5205 13.7803C13.0225 14.0244 12.4707 14.1465 11.8652 14.1465C10.7324 14.1465 9.83887 13.7876 9.18457 13.0698C8.53027 12.3472 8.20312 11.3511 8.20312 10.0815V9.94238C8.20312 8.72168 8.52783 7.74756 9.17725 7.02002C9.82666 6.29248 10.7178 5.92871 11.8506 5.92871C12.8418 5.92871 13.6353 6.21191 14.231 6.77832C14.8315 7.33984 15.1367 8.08936 15.1465 9.02686H13.1616C13.1519 8.6167 13.0249 8.28467 12.7808 8.03076C12.5366 7.77197 12.2144 7.64258 11.814 7.64258C11.3208 7.64258 10.9473 7.82324 10.6934 8.18457C10.4443 8.54102 10.3198 9.12207 10.3198 9.92773V10.1475C10.3198 10.9629 10.4443 11.5488 10.6934 11.9053C10.9424 12.2617 11.3208 12.4399 11.8286 12.4399ZM20.8081 8.06006C20.52 8.021 20.2661 8.00146 20.0464 8.00146C19.2456 8.00146 18.7207 8.27246 18.4717 8.81445V14H16.355V6.0752H18.3545L18.4131 7.02002C18.8379 6.29248 19.4263 5.92871 20.1782 5.92871C20.4126 5.92871 20.6323 5.96045 20.8374 6.02393L20.8081 8.06006ZM24.0674 14H21.9434V6.0752H24.0674V14ZM21.8188 4.02441C21.8188 3.70703 21.9238 3.4458 22.1338 3.24072C22.3486 3.03564 22.6392 2.93311 23.0054 2.93311C23.3667 2.93311 23.6548 3.03564 23.8696 3.24072C24.0845 3.4458 24.1919 3.70703 24.1919 4.02441C24.1919 4.34668 24.082 4.61035 23.8623 4.81543C23.6475 5.02051 23.3618 5.12305 23.0054 5.12305C22.6489 5.12305 22.3608 5.02051 22.1411 4.81543C21.9263 4.61035 21.8188 4.34668 21.8188 4.02441ZM32.9517 10.1108C32.9517 11.3315 32.6733 12.3105 32.1167 13.0479C31.5649 13.7803 30.8179 14.1465 29.8755 14.1465C29.0747 14.1465 28.4277 13.8682 27.9346 13.3115V17.0469H25.8179V6.0752H27.7808L27.854 6.85156C28.3667 6.23633 29.0356 5.92871 29.8608 5.92871C30.8374 5.92871 31.5967 6.29004 32.1387 7.0127C32.6807 7.73535 32.9517 8.73145 32.9517 10.001V10.1108ZM30.835 9.95703C30.835 9.21973 30.7031 8.65088 30.4395 8.25049C30.1807 7.8501 29.8022 7.6499 29.3042 7.6499C28.6401 7.6499 28.1836 7.90381 27.9346 8.41162V11.6562C28.1934 12.1787 28.6548 12.4399 29.3188 12.4399C30.3296 12.4399 30.835 11.6123 30.835 9.95703ZM36.8042 4.12695V6.0752H38.1592V7.62793H36.8042V11.583C36.8042 11.876 36.8604 12.0859 36.9727 12.2129C37.085 12.3398 37.2998 12.4033 37.6172 12.4033C37.8516 12.4033 38.0591 12.3862 38.2397 12.3521V13.9561C37.8247 14.083 37.3975 14.1465 36.958 14.1465C35.4736 14.1465 34.7168 13.397 34.6875 11.8979V7.62793H33.5303V6.0752H34.6875V4.12695H36.8042ZM39.4482 12.96C39.4482 12.623 39.5605 12.3496 39.7852 12.1396C40.0146 11.9297 40.3003 11.8247 40.6421 11.8247C40.9888 11.8247 41.2744 11.9297 41.499 12.1396C41.7285 12.3496 41.8433 12.623 41.8433 12.96C41.8433 13.292 41.731 13.563 41.5063 13.7729C41.2817 13.978 40.9937 14.0806 40.6421 14.0806C40.2954 14.0806 40.0098 13.978 39.7852 13.7729C39.5605 13.563 39.4482 13.292 39.4482 12.96ZM50.8374 10.1108C50.8374 11.3315 50.5591 12.3105 50.0024 13.0479C49.4507 13.7803 48.7036 14.1465 47.7612 14.1465C46.9604 14.1465 46.3135 13.8682 45.8203 13.3115V17.0469H43.7036V6.0752H45.6665L45.7397 6.85156C46.2524 6.23633 46.9214 5.92871 47.7466 5.92871C48.7231 5.92871 49.4824 6.29004 50.0244 7.0127C50.5664 7.73535 50.8374 8.73145 50.8374 10.001V10.1108ZM48.7207 9.95703C48.7207 9.21973 48.5889 8.65088 48.3252 8.25049C48.0664 7.8501 47.688 7.6499 47.1899 7.6499C46.5259 7.6499 46.0693 7.90381 45.8203 8.41162V11.6562C46.0791 12.1787 46.5405 12.4399 47.2046 12.4399C48.2153 12.4399 48.7207 11.6123 48.7207 9.95703ZM55.0269 11.0044L56.4917 6.0752H58.7622L55.5762 15.2305L55.4004 15.6479C54.9268 16.6831 54.1455 17.2007 53.0566 17.2007C52.749 17.2007 52.4365 17.1543 52.1191 17.0615V15.4575L52.4414 15.4648C52.8418 15.4648 53.1396 15.4038 53.335 15.2817C53.5352 15.1597 53.6914 14.957 53.8037 14.6738L54.0527 14.022L51.2769 6.0752H53.5547L55.0269 11.0044Z" transform="translate(13 6)" fill="white"/>
</svg>
