<svg width="354" height="356" viewBox="0 0 354 356" fill="none" xmlns="http://www.w3.org/2000/svg">
<rect width="354" height="356" fill="white"/>
<rect y="188" width="354" height="168" fill="black"/>
<path d="M6.11 321.14H8.39V315.08H6.11V313.22H12.89V315.08H10.61V321.14H12.89V323H6.11V321.14ZM15.0741 315.56H16.8741L17.0391 316.55H17.0991C17.4191 316.23 17.7841 315.955 18.1941 315.725C18.6141 315.495 19.1041 315.38 19.6641 315.38C20.5041 315.38 21.1191 315.65 21.5091 316.19C21.8991 316.73 22.0941 317.47 22.0941 318.41V323H19.8891V318.695C19.8891 318.195 19.8091 317.83 19.6491 317.6C19.4891 317.37 19.2041 317.255 18.7941 317.255C18.4941 317.255 18.2291 317.32 17.9991 317.45C17.7791 317.58 17.5391 317.775 17.2791 318.035V323H15.0741V315.56ZM23.6933 319.28C23.6933 318.67 23.7833 318.125 23.9633 317.645C24.1433 317.165 24.3783 316.76 24.6683 316.43C24.9683 316.09 25.3083 315.83 25.6883 315.65C26.0683 315.47 26.4633 315.38 26.8733 315.38C27.3033 315.38 27.6633 315.455 27.9533 315.605C28.2433 315.745 28.5183 315.935 28.7783 316.175L28.7033 315.02V312.485H30.9083V323H29.1083L28.9433 322.235H28.8983C28.6183 322.505 28.2983 322.73 27.9383 322.91C27.5783 323.09 27.2083 323.18 26.8283 323.18C26.3583 323.18 25.9283 323.09 25.5383 322.91C25.1583 322.73 24.8283 322.475 24.5483 322.145C24.2783 321.805 24.0683 321.395 23.9183 320.915C23.7683 320.435 23.6933 319.89 23.6933 319.28ZM25.9583 319.25C25.9583 319.99 26.0833 320.53 26.3333 320.87C26.5833 321.21 26.9383 321.38 27.3983 321.38C27.6483 321.38 27.8783 321.33 28.0883 321.23C28.2983 321.12 28.5033 320.94 28.7033 320.69V317.675C28.5033 317.495 28.2983 317.37 28.0883 317.3C27.8883 317.22 27.6783 317.18 27.4583 317.18C27.0483 317.18 26.6933 317.35 26.3933 317.69C26.1033 318.03 25.9583 318.55 25.9583 319.25ZM32.8074 319.28C32.8074 318.67 32.9124 318.125 33.1224 317.645C33.3424 317.165 33.6324 316.76 33.9924 316.43C34.3524 316.09 34.7624 315.83 35.2224 315.65C35.6924 315.47 36.1774 315.38 36.6774 315.38C37.2474 315.38 37.7524 315.47 38.1924 315.65C38.6324 315.83 38.9974 316.08 39.2874 316.4C39.5774 316.72 39.7974 317.1 39.9474 317.54C40.0974 317.97 40.1724 318.44 40.1724 318.95C40.1724 319.15 40.1624 319.34 40.1424 319.52C40.1224 319.7 40.1024 319.835 40.0824 319.925H35.0724C35.1524 320.485 35.3924 320.89 35.7924 321.14C36.2024 321.38 36.6824 321.5 37.2324 321.5C37.5724 321.5 37.8924 321.46 38.1924 321.38C38.5024 321.29 38.8224 321.16 39.1524 320.99L39.8724 322.31C39.4524 322.58 38.9824 322.795 38.4624 322.955C37.9424 323.105 37.4324 323.18 36.9324 323.18C36.3524 323.18 35.8124 323.095 35.3124 322.925C34.8124 322.745 34.3774 322.49 34.0074 322.16C33.6374 321.82 33.3424 321.41 33.1224 320.93C32.9124 320.45 32.8074 319.9 32.8074 319.28ZM38.1774 318.47C38.1774 318.05 38.0624 317.71 37.8324 317.45C37.6024 317.19 37.2324 317.06 36.7224 317.06C36.3224 317.06 35.9674 317.175 35.6574 317.405C35.3474 317.635 35.1424 317.99 35.0424 318.47H38.1774ZM42.0566 315.56H43.8566L44.0216 316.55H44.0816C44.4016 316.23 44.7666 315.955 45.1766 315.725C45.5966 315.495 46.0866 315.38 46.6466 315.38C47.4866 315.38 48.1016 315.65 48.4916 316.19C48.8816 316.73 49.0766 317.47 49.0766 318.41V323H46.8716V318.695C46.8716 318.195 46.7916 317.83 46.6316 317.6C46.4716 317.37 46.1866 317.255 45.7766 317.255C45.4766 317.255 45.2116 317.32 44.9816 317.45C44.7616 317.58 44.5216 317.775 44.2616 318.035V323H42.0566V315.56ZM52.5807 317.285H50.7057V315.65L52.6857 315.56L52.9707 313.58H54.7857V315.56H57.9357V317.285H54.7857V319.895C54.7857 320.465 54.9107 320.87 55.1607 321.11C55.4107 321.34 55.8057 321.455 56.3457 321.455C56.6357 321.455 56.9007 321.43 57.1407 321.38C57.3807 321.33 57.6107 321.265 57.8307 321.185L58.2207 322.775C57.8907 322.875 57.5207 322.965 57.1107 323.045C56.7107 323.135 56.2707 323.18 55.7907 323.18C55.2007 323.18 54.7007 323.1 54.2907 322.94C53.8807 322.78 53.5457 322.56 53.2857 322.28C53.0357 321.99 52.8557 321.645 52.7457 321.245C52.6357 320.845 52.5807 320.4 52.5807 319.91V317.285ZM59.8798 320.93C59.8798 320.51 59.9698 320.145 60.1498 319.835C60.3298 319.515 60.6148 319.245 61.0048 319.025C61.4048 318.805 61.9148 318.63 62.5348 318.5C63.1548 318.36 63.9048 318.265 64.7848 318.215C64.7448 317.875 64.5948 317.61 64.3348 317.42C64.0848 317.23 63.7048 317.135 63.1948 317.135C62.8348 317.135 62.4698 317.2 62.0998 317.33C61.7398 317.45 61.3498 317.615 60.9298 317.825L60.1498 316.385C60.6598 316.095 61.2048 315.855 61.7848 315.665C62.3748 315.475 62.9898 315.38 63.6298 315.38C64.6698 315.38 65.4898 315.655 66.0898 316.205C66.6898 316.755 66.9898 317.6 66.9898 318.74V323H65.1898L65.0248 322.16H64.9648C64.5848 322.45 64.1698 322.695 63.7198 322.895C63.2698 323.085 62.8048 323.18 62.3248 323.18C61.9448 323.18 61.6048 323.12 61.3048 323C61.0048 322.89 60.7498 322.735 60.5398 322.535C60.3298 322.325 60.1648 322.085 60.0448 321.815C59.9348 321.545 59.8798 321.25 59.8798 320.93ZM61.9948 320.765C61.9948 321.005 62.0848 321.185 62.2648 321.305C62.4548 321.415 62.7098 321.47 63.0298 321.47C63.3598 321.47 63.6698 321.405 63.9598 321.275C64.2498 321.135 64.5248 320.965 64.7848 320.765V319.535C64.2348 319.565 63.7798 319.615 63.4198 319.685C63.0598 319.755 62.7748 319.845 62.5648 319.955C62.3548 320.055 62.2048 320.175 62.1148 320.315C62.0348 320.455 61.9948 320.605 61.9948 320.765ZM70.569 317.285H68.694V315.65L70.674 315.56L70.959 313.58H72.774V315.56H75.924V317.285H72.774V319.895C72.774 320.465 72.899 320.87 73.149 321.11C73.399 321.34 73.794 321.455 74.334 321.455C74.624 321.455 74.889 321.43 75.129 321.38C75.369 321.33 75.599 321.265 75.819 321.185L76.209 322.775C75.879 322.875 75.509 322.965 75.099 323.045C74.699 323.135 74.259 323.18 73.779 323.18C73.189 323.18 72.689 323.1 72.279 322.94C71.869 322.78 71.534 322.56 71.274 322.28C71.024 321.99 70.844 321.645 70.734 321.245C70.624 320.845 70.569 320.4 70.569 319.91V317.285ZM78.1381 315.56H83.3281V323H81.1231V317.285H78.1381V315.56ZM82.1281 314.465C81.6981 314.465 81.3431 314.345 81.0631 314.105C80.7931 313.865 80.6581 313.54 80.6581 313.13C80.6581 312.72 80.7931 312.39 81.0631 312.14C81.3431 311.88 81.6981 311.75 82.1281 311.75C82.5581 311.75 82.9081 311.88 83.1781 312.14C83.4581 312.39 83.5981 312.72 83.5981 313.13C83.5981 313.54 83.4581 313.865 83.1781 314.105C82.9081 314.345 82.5581 314.465 82.1281 314.465ZM86.6523 319.28C86.6523 318.66 86.7573 318.11 86.9673 317.63C87.1773 317.14 87.4573 316.73 87.8073 316.4C88.1673 316.07 88.5723 315.82 89.0223 315.65C89.4823 315.47 89.9573 315.38 90.4473 315.38C90.9373 315.38 91.4073 315.47 91.8573 315.65C92.3173 315.82 92.7223 316.07 93.0723 316.4C93.4323 316.73 93.7173 317.14 93.9273 317.63C94.1373 318.11 94.2423 318.66 94.2423 319.28C94.2423 319.9 94.1373 320.455 93.9273 320.945C93.7173 321.425 93.4323 321.83 93.0723 322.16C92.7223 322.49 92.3173 322.745 91.8573 322.925C91.4073 323.095 90.9373 323.18 90.4473 323.18C89.9573 323.18 89.4823 323.095 89.0223 322.925C88.5723 322.745 88.1673 322.49 87.8073 322.16C87.4573 321.83 87.1773 321.425 86.9673 320.945C86.7573 320.455 86.6523 319.9 86.6523 319.28ZM88.9173 319.28C88.9173 319.93 89.0423 320.445 89.2923 320.825C89.5523 321.205 89.9373 321.395 90.4473 321.395C90.9573 321.395 91.3373 321.205 91.5873 320.825C91.8473 320.445 91.9773 319.93 91.9773 319.28C91.9773 318.63 91.8473 318.115 91.5873 317.735C91.3373 317.355 90.9573 317.165 90.4473 317.165C89.9373 317.165 89.5523 317.355 89.2923 317.735C89.0423 318.115 88.9173 318.63 88.9173 319.28ZM96.0214 315.56H97.8214L97.9864 316.55H98.0464C98.3664 316.23 98.7314 315.955 99.1414 315.725C99.5614 315.495 100.051 315.38 100.611 315.38C101.451 315.38 102.066 315.65 102.456 316.19C102.846 316.73 103.041 317.47 103.041 318.41V323H100.836V318.695C100.836 318.195 100.756 317.83 100.596 317.6C100.436 317.37 100.151 317.255 99.7414 317.255C99.4414 317.255 99.1764 317.32 98.9464 317.45C98.7264 317.58 98.4864 317.775 98.2264 318.035V323H96.0214V315.56ZM105.346 313.22H111.796V315.08H107.551V317.045H111.151V318.89H107.551V321.14H111.946V323H105.346V313.22ZM114.67 315.56H116.47L116.65 317.18H116.695C117.065 316.57 117.51 316.12 118.03 315.83C118.55 315.53 119.11 315.38 119.71 315.38C120.04 315.38 120.305 315.405 120.505 315.455C120.715 315.505 120.93 315.58 121.15 315.68L120.7 317.525C120.47 317.455 120.26 317.405 120.07 317.375C119.89 317.335 119.66 317.315 119.38 317.315C118.92 317.315 118.465 317.45 118.015 317.72C117.575 317.99 117.195 318.46 116.875 319.13V323H114.67V315.56ZM123.664 315.56H125.464L125.644 317.18H125.689C126.059 316.57 126.504 316.12 127.024 315.83C127.544 315.53 128.104 315.38 128.704 315.38C129.034 315.38 129.299 315.405 129.499 315.455C129.709 315.505 129.924 315.58 130.144 315.68L129.694 317.525C129.464 317.455 129.254 317.405 129.064 317.375C128.884 317.335 128.654 317.315 128.374 317.315C127.914 317.315 127.459 317.45 127.009 317.72C126.569 317.99 126.189 318.46 125.869 319.13V323H123.664V315.56ZM131.623 319.28C131.623 318.66 131.728 318.11 131.938 317.63C132.148 317.14 132.428 316.73 132.778 316.4C133.138 316.07 133.543 315.82 133.993 315.65C134.453 315.47 134.928 315.38 135.418 315.38C135.908 315.38 136.378 315.47 136.828 315.65C137.288 315.82 137.693 316.07 138.043 316.4C138.403 316.73 138.688 317.14 138.898 317.63C139.108 318.11 139.213 318.66 139.213 319.28C139.213 319.9 139.108 320.455 138.898 320.945C138.688 321.425 138.403 321.83 138.043 322.16C137.693 322.49 137.288 322.745 136.828 322.925C136.378 323.095 135.908 323.18 135.418 323.18C134.928 323.18 134.453 323.095 133.993 322.925C133.543 322.745 133.138 322.49 132.778 322.16C132.428 321.83 132.148 321.425 131.938 320.945C131.728 320.455 131.623 319.9 131.623 319.28ZM133.888 319.28C133.888 319.93 134.013 320.445 134.263 320.825C134.523 321.205 134.908 321.395 135.418 321.395C135.928 321.395 136.308 321.205 136.558 320.825C136.818 320.445 136.948 319.93 136.948 319.28C136.948 318.63 136.818 318.115 136.558 317.735C136.308 317.355 135.928 317.165 135.418 317.165C134.908 317.165 134.523 317.355 134.263 317.735C134.013 318.115 133.888 318.63 133.888 319.28ZM141.652 315.56H143.452L143.632 317.18H143.677C144.047 316.57 144.492 316.12 145.012 315.83C145.532 315.53 146.092 315.38 146.692 315.38C147.022 315.38 147.287 315.405 147.487 315.455C147.697 315.505 147.912 315.58 148.132 315.68L147.682 317.525C147.452 317.455 147.242 317.405 147.052 317.375C146.872 317.335 146.642 317.315 146.362 317.315C145.902 317.315 145.447 317.45 144.997 317.72C144.557 317.99 144.177 318.46 143.857 319.13V323H141.652V315.56ZM151.666 316.58C151.666 316.33 151.706 316.1 151.786 315.89C151.876 315.67 151.996 315.48 152.146 315.32C152.296 315.16 152.476 315.035 152.686 314.945C152.906 314.855 153.146 314.81 153.406 314.81C153.666 314.81 153.901 314.855 154.111 314.945C154.331 315.035 154.516 315.16 154.666 315.32C154.816 315.48 154.931 315.67 155.011 315.89C155.101 316.1 155.146 316.33 155.146 316.58C155.146 317.08 154.986 317.5 154.666 317.84C154.346 318.17 153.926 318.335 153.406 318.335C152.886 318.335 152.466 318.17 152.146 317.84C151.826 317.5 151.666 317.08 151.666 316.58ZM151.666 321.425C151.666 321.175 151.706 320.945 151.786 320.735C151.876 320.515 151.996 320.325 152.146 320.165C152.296 320.005 152.476 319.88 152.686 319.79C152.906 319.7 153.146 319.655 153.406 319.655C153.666 319.655 153.901 319.7 154.111 319.79C154.331 319.88 154.516 320.005 154.666 320.165C154.816 320.325 154.931 320.515 155.011 320.735C155.101 320.945 155.146 321.175 155.146 321.425C155.146 321.925 154.986 322.345 154.666 322.685C154.346 323.015 153.926 323.18 153.406 323.18C152.886 323.18 152.466 323.015 152.146 322.685C151.826 322.345 151.666 321.925 151.666 321.425ZM167.72 319.28C167.72 318.67 167.825 318.125 168.035 317.645C168.255 317.165 168.545 316.76 168.905 316.43C169.265 316.09 169.675 315.83 170.135 315.65C170.605 315.47 171.09 315.38 171.59 315.38C172.16 315.38 172.665 315.47 173.105 315.65C173.545 315.83 173.91 316.08 174.2 316.4C174.49 316.72 174.71 317.1 174.86 317.54C175.01 317.97 175.085 318.44 175.085 318.95C175.085 319.15 175.075 319.34 175.055 319.52C175.035 319.7 175.015 319.835 174.995 319.925H169.985C170.065 320.485 170.305 320.89 170.705 321.14C171.115 321.38 171.595 321.5 172.145 321.5C172.485 321.5 172.805 321.46 173.105 321.38C173.415 321.29 173.735 321.16 174.065 320.99L174.785 322.31C174.365 322.58 173.895 322.795 173.375 322.955C172.855 323.105 172.345 323.18 171.845 323.18C171.265 323.18 170.725 323.095 170.225 322.925C169.725 322.745 169.29 322.49 168.92 322.16C168.55 321.82 168.255 321.41 168.035 320.93C167.825 320.45 167.72 319.9 167.72 319.28ZM173.09 318.47C173.09 318.05 172.975 317.71 172.745 317.45C172.515 317.19 172.145 317.06 171.635 317.06C171.235 317.06 170.88 317.175 170.57 317.405C170.26 317.635 170.055 317.99 169.955 318.47H173.09ZM179.024 319.13L176.609 315.56H178.979L179.744 316.76C179.854 316.97 179.979 317.185 180.119 317.405C180.259 317.615 180.394 317.825 180.524 318.035H180.584C180.684 317.825 180.784 317.61 180.884 317.39C180.994 317.17 181.099 316.96 181.199 316.76L181.859 315.56H184.169L181.739 319.385L184.319 323H181.949L181.094 321.77C180.954 321.56 180.809 321.345 180.659 321.125C180.519 320.905 180.379 320.69 180.239 320.48H180.179C180.069 320.69 179.954 320.905 179.834 321.125C179.714 321.335 179.599 321.55 179.489 321.77L178.754 323H176.444L179.024 319.13ZM188.168 323.585V325.76H185.963V315.56H187.763L187.928 316.31H187.973C188.273 316.04 188.618 315.82 189.008 315.65C189.398 315.47 189.793 315.38 190.193 315.38C190.653 315.38 191.068 315.47 191.438 315.65C191.808 315.83 192.123 316.085 192.383 316.415C192.643 316.745 192.838 317.145 192.968 317.615C193.108 318.075 193.178 318.59 193.178 319.16C193.178 319.8 193.088 320.37 192.908 320.87C192.728 321.36 192.488 321.78 192.188 322.13C191.888 322.47 191.543 322.73 191.153 322.91C190.773 323.09 190.373 323.18 189.953 323.18C189.273 323.18 188.653 322.91 188.093 322.37L188.168 323.585ZM188.168 320.885C188.378 321.065 188.593 321.195 188.813 321.275C189.043 321.345 189.253 321.38 189.443 321.38C189.863 321.38 190.213 321.21 190.493 320.87C190.773 320.52 190.913 319.96 190.913 319.19C190.913 317.85 190.458 317.18 189.548 317.18C189.078 317.18 188.618 317.41 188.168 317.87V320.885ZM194.702 319.28C194.702 318.67 194.807 318.125 195.017 317.645C195.237 317.165 195.527 316.76 195.887 316.43C196.247 316.09 196.657 315.83 197.117 315.65C197.587 315.47 198.072 315.38 198.572 315.38C199.142 315.38 199.647 315.47 200.087 315.65C200.527 315.83 200.892 316.08 201.182 316.4C201.472 316.72 201.692 317.1 201.842 317.54C201.992 317.97 202.067 318.44 202.067 318.95C202.067 319.15 202.057 319.34 202.037 319.52C202.017 319.7 201.997 319.835 201.977 319.925H196.967C197.047 320.485 197.287 320.89 197.687 321.14C198.097 321.38 198.577 321.5 199.127 321.5C199.467 321.5 199.787 321.46 200.087 321.38C200.397 321.29 200.717 321.16 201.047 320.99L201.767 322.31C201.347 322.58 200.877 322.795 200.357 322.955C199.837 323.105 199.327 323.18 198.827 323.18C198.247 323.18 197.707 323.095 197.207 322.925C196.707 322.745 196.272 322.49 195.902 322.16C195.532 321.82 195.237 321.41 195.017 320.93C194.807 320.45 194.702 319.9 194.702 319.28ZM200.072 318.47C200.072 318.05 199.957 317.71 199.727 317.45C199.497 317.19 199.127 317.06 198.617 317.06C198.217 317.06 197.862 317.175 197.552 317.405C197.242 317.635 197.037 317.99 196.937 318.47H200.072ZM203.876 319.28C203.876 318.66 203.991 318.11 204.221 317.63C204.461 317.14 204.776 316.73 205.166 316.4C205.566 316.07 206.026 315.82 206.546 315.65C207.066 315.47 207.611 315.38 208.181 315.38C208.771 315.38 209.301 315.475 209.771 315.665C210.251 315.855 210.651 316.095 210.971 316.385L209.951 317.75C209.401 317.36 208.851 317.165 208.301 317.165C207.661 317.165 207.141 317.355 206.741 317.735C206.341 318.115 206.141 318.63 206.141 319.28C206.141 319.93 206.331 320.445 206.711 320.825C207.101 321.205 207.606 321.395 208.226 321.395C208.616 321.395 208.976 321.325 209.306 321.185C209.636 321.045 209.931 320.88 210.191 320.69L211.091 322.085C210.641 322.465 210.141 322.745 209.591 322.925C209.051 323.095 208.526 323.18 208.016 323.18C207.426 323.18 206.881 323.095 206.381 322.925C205.881 322.745 205.441 322.49 205.061 322.16C204.691 321.83 204.401 321.425 204.191 320.945C203.981 320.455 203.876 319.9 203.876 319.28ZM214.475 317.285H212.6V315.65L214.58 315.56L214.865 313.58H216.68V315.56H219.83V317.285H216.68V319.895C216.68 320.465 216.805 320.87 217.055 321.11C217.305 321.34 217.7 321.455 218.24 321.455C218.53 321.455 218.795 321.43 219.035 321.38C219.275 321.33 219.505 321.265 219.725 321.185L220.115 322.775C219.785 322.875 219.415 322.965 219.005 323.045C218.605 323.135 218.165 323.18 217.685 323.18C217.095 323.18 216.595 323.1 216.185 322.94C215.775 322.78 215.44 322.56 215.18 322.28C214.93 321.99 214.75 321.645 214.64 321.245C214.53 320.845 214.475 320.4 214.475 319.91V317.285ZM221.684 319.28C221.684 318.67 221.789 318.125 221.999 317.645C222.219 317.165 222.509 316.76 222.869 316.43C223.229 316.09 223.639 315.83 224.099 315.65C224.569 315.47 225.054 315.38 225.554 315.38C226.124 315.38 226.629 315.47 227.069 315.65C227.509 315.83 227.874 316.08 228.164 316.4C228.454 316.72 228.674 317.1 228.824 317.54C228.974 317.97 229.049 318.44 229.049 318.95C229.049 319.15 229.039 319.34 229.019 319.52C228.999 319.7 228.979 319.835 228.959 319.925H223.949C224.029 320.485 224.269 320.89 224.669 321.14C225.079 321.38 225.559 321.5 226.109 321.5C226.449 321.5 226.769 321.46 227.069 321.38C227.379 321.29 227.699 321.16 228.029 320.99L228.749 322.31C228.329 322.58 227.859 322.795 227.339 322.955C226.819 323.105 226.309 323.18 225.809 323.18C225.229 323.18 224.689 323.095 224.189 322.925C223.689 322.745 223.254 322.49 222.884 322.16C222.514 321.82 222.219 321.41 221.999 320.93C221.789 320.45 221.684 319.9 221.684 319.28ZM227.054 318.47C227.054 318.05 226.939 317.71 226.709 317.45C226.479 317.19 226.109 317.06 225.599 317.06C225.199 317.06 224.844 317.175 224.534 317.405C224.224 317.635 224.019 317.99 223.919 318.47H227.054ZM230.559 319.28C230.559 318.67 230.649 318.125 230.829 317.645C231.009 317.165 231.244 316.76 231.534 316.43C231.834 316.09 232.174 315.83 232.554 315.65C232.934 315.47 233.329 315.38 233.739 315.38C234.169 315.38 234.529 315.455 234.819 315.605C235.109 315.745 235.384 315.935 235.644 316.175L235.569 315.02V312.485H237.774V323H235.974L235.809 322.235H235.764C235.484 322.505 235.164 322.73 234.804 322.91C234.444 323.09 234.074 323.18 233.694 323.18C233.224 323.18 232.794 323.09 232.404 322.91C232.024 322.73 231.694 322.475 231.414 322.145C231.144 321.805 230.934 321.395 230.784 320.915C230.634 320.435 230.559 319.89 230.559 319.28ZM232.824 319.25C232.824 319.99 232.949 320.53 233.199 320.87C233.449 321.21 233.804 321.38 234.264 321.38C234.514 321.38 234.744 321.33 234.954 321.23C235.164 321.12 235.369 320.94 235.569 320.69V317.675C235.369 317.495 235.164 317.37 234.954 317.3C234.754 317.22 234.544 317.18 234.324 317.18C233.914 317.18 233.559 317.35 233.259 317.69C232.969 318.03 232.824 318.55 232.824 319.25ZM248.757 320.93C248.757 320.51 248.847 320.145 249.027 319.835C249.207 319.515 249.492 319.245 249.882 319.025C250.282 318.805 250.792 318.63 251.412 318.5C252.032 318.36 252.782 318.265 253.662 318.215C253.622 317.875 253.472 317.61 253.212 317.42C252.962 317.23 252.582 317.135 252.072 317.135C251.712 317.135 251.347 317.2 250.977 317.33C250.617 317.45 250.227 317.615 249.807 317.825L249.027 316.385C249.537 316.095 250.082 315.855 250.662 315.665C251.252 315.475 251.867 315.38 252.507 315.38C253.547 315.38 254.367 315.655 254.967 316.205C255.567 316.755 255.867 317.6 255.867 318.74V323H254.067L253.902 322.16H253.842C253.462 322.45 253.047 322.695 252.597 322.895C252.147 323.085 251.682 323.18 251.202 323.18C250.822 323.18 250.482 323.12 250.182 323C249.882 322.89 249.627 322.735 249.417 322.535C249.207 322.325 249.042 322.085 248.922 321.815C248.812 321.545 248.757 321.25 248.757 320.93ZM250.872 320.765C250.872 321.005 250.962 321.185 251.142 321.305C251.332 321.415 251.587 321.47 251.907 321.47C252.237 321.47 252.547 321.405 252.837 321.275C253.127 321.135 253.402 320.965 253.662 320.765V319.535C253.112 319.565 252.657 319.615 252.297 319.685C251.937 319.755 251.652 319.845 251.442 319.955C251.232 320.055 251.082 320.175 250.992 320.315C250.912 320.455 250.872 320.605 250.872 320.765ZM257.916 315.56H259.716L259.881 316.55H259.941C260.261 316.23 260.626 315.955 261.036 315.725C261.456 315.495 261.946 315.38 262.506 315.38C263.346 315.38 263.961 315.65 264.351 316.19C264.741 316.73 264.936 317.47 264.936 318.41V323H262.731V318.695C262.731 318.195 262.651 317.83 262.491 317.6C262.331 317.37 262.046 317.255 261.636 317.255C261.336 317.255 261.071 317.32 260.841 317.45C260.621 317.58 260.381 317.775 260.121 318.035V323H257.916V315.56ZM276.009 315.56H281.199V323H278.994V317.285H276.009V315.56ZM279.999 314.465C279.569 314.465 279.214 314.345 278.934 314.105C278.664 313.865 278.529 313.54 278.529 313.13C278.529 312.72 278.664 312.39 278.934 312.14C279.214 311.88 279.569 311.75 279.999 311.75C280.429 311.75 280.779 311.88 281.049 312.14C281.329 312.39 281.469 312.72 281.469 313.13C281.469 313.54 281.329 313.865 281.049 314.105C280.779 314.345 280.429 314.465 279.999 314.465ZM284.898 315.56H286.698L286.863 316.55H286.923C287.243 316.23 287.608 315.955 288.018 315.725C288.438 315.495 288.928 315.38 289.488 315.38C290.328 315.38 290.943 315.65 291.333 316.19C291.723 316.73 291.918 317.47 291.918 318.41V323H289.713V318.695C289.713 318.195 289.633 317.83 289.473 317.6C289.313 317.37 289.028 317.255 288.618 317.255C288.318 317.255 288.053 317.32 287.823 317.45C287.603 317.58 287.363 317.775 287.103 318.035V323H284.898V315.56ZM293.518 319.28C293.518 318.67 293.608 318.125 293.788 317.645C293.968 317.165 294.203 316.76 294.493 316.43C294.793 316.09 295.133 315.83 295.513 315.65C295.893 315.47 296.288 315.38 296.698 315.38C297.128 315.38 297.488 315.455 297.778 315.605C298.068 315.745 298.343 315.935 298.603 316.175L298.528 315.02V312.485H300.732V323H298.933L298.768 322.235H298.723C298.443 322.505 298.123 322.73 297.763 322.91C297.403 323.09 297.033 323.18 296.653 323.18C296.183 323.18 295.753 323.09 295.363 322.91C294.983 322.73 294.653 322.475 294.373 322.145C294.103 321.805 293.893 321.395 293.743 320.915C293.593 320.435 293.518 319.89 293.518 319.28ZM295.783 319.25C295.783 319.99 295.908 320.53 296.158 320.87C296.408 321.21 296.763 321.38 297.222 321.38C297.473 321.38 297.703 321.33 297.913 321.23C298.123 321.12 298.328 320.94 298.528 320.69V317.675C298.328 317.495 298.123 317.37 297.913 317.3C297.713 317.22 297.503 317.18 297.283 317.18C296.873 317.18 296.518 317.35 296.218 317.69C295.928 318.03 295.783 318.55 295.783 319.25ZM302.632 319.28C302.632 318.67 302.737 318.125 302.947 317.645C303.167 317.165 303.457 316.76 303.817 316.43C304.177 316.09 304.587 315.83 305.047 315.65C305.517 315.47 306.002 315.38 306.502 315.38C307.072 315.38 307.577 315.47 308.017 315.65C308.457 315.83 308.822 316.08 309.112 316.4C309.402 316.72 309.622 317.1 309.772 317.54C309.922 317.97 309.997 318.44 309.997 318.95C309.997 319.15 309.987 319.34 309.967 319.52C309.947 319.7 309.927 319.835 309.907 319.925H304.897C304.977 320.485 305.217 320.89 305.617 321.14C306.027 321.38 306.507 321.5 307.057 321.5C307.397 321.5 307.717 321.46 308.017 321.38C308.327 321.29 308.647 321.16 308.977 320.99L309.697 322.31C309.277 322.58 308.807 322.795 308.287 322.955C307.767 323.105 307.257 323.18 306.757 323.18C306.177 323.18 305.637 323.095 305.137 322.925C304.637 322.745 304.202 322.49 303.832 322.16C303.462 321.82 303.167 321.41 302.947 320.93C302.737 320.45 302.632 319.9 302.632 319.28ZM308.002 318.47C308.002 318.05 307.887 317.71 307.657 317.45C307.427 317.19 307.057 317.06 306.547 317.06C306.147 317.06 305.792 317.175 305.482 317.405C305.172 317.635 304.967 317.99 304.867 318.47H308.002ZM311.881 315.56H313.681L313.846 316.55H313.906C314.226 316.23 314.591 315.955 315.001 315.725C315.421 315.495 315.911 315.38 316.471 315.38C317.311 315.38 317.926 315.65 318.316 316.19C318.706 316.73 318.901 317.47 318.901 318.41V323H316.696V318.695C316.696 318.195 316.616 317.83 316.456 317.6C316.296 317.37 316.011 317.255 315.601 317.255C315.301 317.255 315.036 317.32 314.806 317.45C314.586 317.58 314.346 317.775 314.086 318.035V323H311.881V315.56ZM322.405 317.285H320.53V315.65L322.51 315.56L322.795 313.58H324.61V315.56H327.76V317.285H324.61V319.895C324.61 320.465 324.735 320.87 324.985 321.11C325.235 321.34 325.63 321.455 326.17 321.455C326.46 321.455 326.725 321.43 326.965 321.38C327.205 321.33 327.435 321.265 327.655 321.185L328.045 322.775C327.715 322.875 327.345 322.965 326.935 323.045C326.535 323.135 326.095 323.18 325.615 323.18C325.025 323.18 324.525 323.1 324.115 322.94C323.705 322.78 323.37 322.56 323.11 322.28C322.86 321.99 322.68 321.645 322.57 321.245C322.46 320.845 322.405 320.4 322.405 319.91V317.285ZM329.614 319.28C329.614 318.67 329.719 318.125 329.929 317.645C330.149 317.165 330.439 316.76 330.799 316.43C331.159 316.09 331.569 315.83 332.029 315.65C332.499 315.47 332.984 315.38 333.484 315.38C334.054 315.38 334.559 315.47 334.999 315.65C335.439 315.83 335.804 316.08 336.094 316.4C336.384 316.72 336.604 317.1 336.754 317.54C336.904 317.97 336.979 318.44 336.979 318.95C336.979 319.15 336.969 319.34 336.949 319.52C336.929 319.7 336.909 319.835 336.889 319.925H331.879C331.959 320.485 332.199 320.89 332.599 321.14C333.009 321.38 333.489 321.5 334.039 321.5C334.379 321.5 334.699 321.46 334.999 321.38C335.309 321.29 335.629 321.16 335.959 320.99L336.679 322.31C336.259 322.58 335.789 322.795 335.269 322.955C334.749 323.105 334.239 323.18 333.739 323.18C333.159 323.18 332.619 323.095 332.119 322.925C331.619 322.745 331.184 322.49 330.814 322.16C330.444 321.82 330.149 321.41 329.929 320.93C329.719 320.45 329.614 319.9 329.614 319.28ZM334.984 318.47C334.984 318.05 334.869 317.71 334.639 317.45C334.409 317.19 334.039 317.06 333.529 317.06C333.129 317.06 332.774 317.175 332.464 317.405C332.154 317.635 331.949 317.99 331.849 318.47H334.984ZM338.488 319.28C338.488 318.67 338.578 318.125 338.758 317.645C338.938 317.165 339.173 316.76 339.463 316.43C339.763 316.09 340.103 315.83 340.483 315.65C340.863 315.47 341.258 315.38 341.668 315.38C342.098 315.38 342.458 315.455 342.748 315.605C343.038 315.745 343.313 315.935 343.573 316.175L343.498 315.02V312.485H345.703V323H343.903L343.738 322.235H343.693C343.413 322.505 343.093 322.73 342.733 322.91C342.373 323.09 342.003 323.18 341.623 323.18C341.153 323.18 340.723 323.09 340.333 322.91C339.953 322.73 339.623 322.475 339.343 322.145C339.073 321.805 338.863 321.395 338.713 320.915C338.563 320.435 338.488 319.89 338.488 319.28ZM340.753 319.25C340.753 319.99 340.878 320.53 341.128 320.87C341.378 321.21 341.733 321.38 342.193 321.38C342.443 321.38 342.673 321.33 342.883 321.23C343.093 321.12 343.298 320.94 343.498 320.69V317.675C343.298 317.495 343.093 317.37 342.883 317.3C342.683 317.22 342.473 317.18 342.253 317.18C341.843 317.18 341.488 317.35 341.188 317.69C340.898 318.03 340.753 318.55 340.753 319.25ZM6.08 331.485H8.285V334.065L8.225 335.235C8.515 334.965 8.84 334.755 9.2 334.605C9.57 334.455 9.935 334.38 10.295 334.38C10.755 334.38 11.17 334.47 11.54 334.65C11.92 334.83 12.235 335.085 12.485 335.415C12.745 335.735 12.945 336.13 13.085 336.6C13.225 337.06 13.295 337.575 13.295 338.145C13.295 338.785 13.205 339.355 13.025 339.855C12.845 340.355 12.605 340.78 12.305 341.13C12.005 341.47 11.66 341.73 11.27 341.91C10.89 342.09 10.49 342.18 10.07 342.18C9.72 342.18 9.37 342.095 9.02 341.925C8.68 341.755 8.355 341.51 8.045 341.19H7.985L7.805 342H6.08V331.485ZM8.285 339.885C8.495 340.065 8.71 340.195 8.93 340.275C9.16 340.345 9.375 340.38 9.575 340.38C9.985 340.38 10.33 340.21 10.61 339.87C10.89 339.52 11.03 338.96 11.03 338.19C11.03 336.85 10.575 336.18 9.665 336.18C9.195 336.18 8.735 336.41 8.285 336.87V339.885ZM14.9241 331.485H19.2891V339.18C19.2891 339.41 19.3191 339.605 19.3791 339.765C19.4491 339.915 19.5391 340.04 19.6491 340.14C19.7691 340.23 19.8991 340.295 20.0391 340.335C20.1891 340.375 20.3391 340.395 20.4891 340.395C20.6591 340.395 20.8391 340.38 21.0291 340.35C21.2191 340.31 21.4291 340.245 21.6591 340.155L22.1541 341.775C21.9541 341.835 21.7691 341.89 21.5991 341.94C21.4291 341.99 21.2591 342.03 21.0891 342.06C20.9191 342.1 20.7391 342.13 20.5491 342.15C20.3591 342.17 20.1491 342.18 19.9191 342.18C18.9791 342.18 18.2691 341.905 17.7891 341.355C17.3191 340.795 17.0841 340.04 17.0841 339.09V333.225H14.9241V331.485ZM23.6933 338.28C23.6933 337.66 23.7983 337.11 24.0083 336.63C24.2183 336.14 24.4983 335.73 24.8483 335.4C25.2083 335.07 25.6133 334.82 26.0633 334.65C26.5233 334.47 26.9983 334.38 27.4883 334.38C27.9783 334.38 28.4483 334.47 28.8983 334.65C29.3583 334.82 29.7633 335.07 30.1133 335.4C30.4733 335.73 30.7583 336.14 30.9683 336.63C31.1783 337.11 31.2833 337.66 31.2833 338.28C31.2833 338.9 31.1783 339.455 30.9683 339.945C30.7583 340.425 30.4733 340.83 30.1133 341.16C29.7633 341.49 29.3583 341.745 28.8983 341.925C28.4483 342.095 27.9783 342.18 27.4883 342.18C26.9983 342.18 26.5233 342.095 26.0633 341.925C25.6133 341.745 25.2083 341.49 24.8483 341.16C24.4983 340.83 24.2183 340.425 24.0083 339.945C23.7983 339.455 23.6933 338.9 23.6933 338.28ZM25.9583 338.28C25.9583 338.93 26.0833 339.445 26.3333 339.825C26.5933 340.205 26.9783 340.395 27.4883 340.395C27.9983 340.395 28.3783 340.205 28.6283 339.825C28.8883 339.445 29.0183 338.93 29.0183 338.28C29.0183 337.63 28.8883 337.115 28.6283 336.735C28.3783 336.355 27.9983 336.165 27.4883 336.165C26.9783 336.165 26.5933 336.355 26.3333 336.735C26.0833 337.115 25.9583 337.63 25.9583 338.28ZM32.9874 338.28C32.9874 337.66 33.1024 337.11 33.3324 336.63C33.5724 336.14 33.8874 335.73 34.2774 335.4C34.6774 335.07 35.1374 334.82 35.6574 334.65C36.1774 334.47 36.7224 334.38 37.2924 334.38C37.8824 334.38 38.4124 334.475 38.8824 334.665C39.3624 334.855 39.7624 335.095 40.0824 335.385L39.0624 336.75C38.5124 336.36 37.9624 336.165 37.4124 336.165C36.7724 336.165 36.2524 336.355 35.8524 336.735C35.4524 337.115 35.2524 337.63 35.2524 338.28C35.2524 338.93 35.4424 339.445 35.8224 339.825C36.2124 340.205 36.7174 340.395 37.3374 340.395C37.7274 340.395 38.0874 340.325 38.4174 340.185C38.7474 340.045 39.0424 339.88 39.3024 339.69L40.2024 341.085C39.7524 341.465 39.2524 341.745 38.7024 341.925C38.1624 342.095 37.6374 342.18 37.1274 342.18C36.5374 342.18 35.9924 342.095 35.4924 341.925C34.9924 341.745 34.5524 341.49 34.1724 341.16C33.8024 340.83 33.5124 340.425 33.3024 339.945C33.0924 339.455 32.9874 338.9 32.9874 338.28ZM42.1166 331.485H44.3216V337.56H44.3816L47.1116 334.56H49.5266L46.7066 337.62L49.7516 342H47.3666L45.4166 338.97L44.3216 340.125V342H42.1166V331.485Z" fill="#D55E00"/>
<path d="M8.185 226.56H13.375V234H11.17V228.285H8.185V226.56ZM12.175 225.465C11.745 225.465 11.39 225.345 11.11 225.105C10.84 224.865 10.705 224.54 10.705 224.13C10.705 223.72 10.84 223.39 11.11 223.14C11.39 222.88 11.745 222.75 12.175 222.75C12.605 222.75 12.955 222.88 13.225 223.14C13.505 223.39 13.645 223.72 13.645 224.13C13.645 224.54 13.505 224.865 13.225 225.105C12.955 225.345 12.605 225.465 12.175 225.465ZM24.3491 225.33C23.8591 225.14 23.3391 225.045 22.7891 225.045C22.3091 225.045 21.9541 225.15 21.7241 225.36C21.5041 225.57 21.3941 225.9 21.3941 226.35V226.56H23.9591V228.285H21.3941V234H19.1891V228.285H17.2241V226.65L19.1891 226.56V226.365C19.1891 225.935 19.2541 225.535 19.3841 225.165C19.5141 224.795 19.7141 224.475 19.9841 224.205C20.2541 223.925 20.5991 223.705 21.0191 223.545C21.4391 223.385 21.9391 223.305 22.5191 223.305C22.9491 223.305 23.3491 223.345 23.7191 223.425C24.0991 223.505 24.4491 223.6 24.7691 223.71L24.3491 225.33ZM37.3724 226.08H34.4474V224.22H42.5174V226.08H39.5924V234H37.3724V226.08ZM44.7166 226.56H46.5166L46.6966 228.18H46.7416C47.1116 227.57 47.5566 227.12 48.0766 226.83C48.5966 226.53 49.1566 226.38 49.7566 226.38C50.0866 226.38 50.3516 226.405 50.5516 226.455C50.7616 226.505 50.9766 226.58 51.1966 226.68L50.7466 228.525C50.5166 228.455 50.3066 228.405 50.1166 228.375C49.9366 228.335 49.7066 228.315 49.4266 228.315C48.9666 228.315 48.5116 228.45 48.0616 228.72C47.6216 228.99 47.2416 229.46 46.9216 230.13V234H44.7166V226.56ZM59.8457 234H58.0457L57.8807 232.935H57.8207C57.4907 233.315 57.1257 233.62 56.7257 233.85C56.3257 234.07 55.8557 234.18 55.3157 234.18C54.4657 234.18 53.8507 233.91 53.4707 233.37C53.0907 232.83 52.9007 232.09 52.9007 231.15V226.56H55.1057V230.865C55.1057 231.365 55.1807 231.73 55.3307 231.96C55.4807 232.19 55.7657 232.305 56.1857 232.305C56.4657 232.305 56.7107 232.245 56.9207 232.125C57.1407 232.005 57.3807 231.78 57.6407 231.45V226.56H59.8457V234ZM61.7898 230.28C61.7898 229.67 61.8948 229.125 62.1048 228.645C62.3248 228.165 62.6148 227.76 62.9748 227.43C63.3348 227.09 63.7448 226.83 64.2048 226.65C64.6748 226.47 65.1598 226.38 65.6598 226.38C66.2298 226.38 66.7348 226.47 67.1748 226.65C67.6148 226.83 67.9798 227.08 68.2698 227.4C68.5598 227.72 68.7798 228.1 68.9298 228.54C69.0798 228.97 69.1548 229.44 69.1548 229.95C69.1548 230.15 69.1448 230.34 69.1248 230.52C69.1048 230.7 69.0848 230.835 69.0648 230.925H64.0548C64.1348 231.485 64.3748 231.89 64.7748 232.14C65.1848 232.38 65.6648 232.5 66.2148 232.5C66.5548 232.5 66.8748 232.46 67.1748 232.38C67.4848 232.29 67.8048 232.16 68.1348 231.99L68.8548 233.31C68.4348 233.58 67.9648 233.795 67.4448 233.955C66.9248 234.105 66.4148 234.18 65.9148 234.18C65.3348 234.18 64.7948 234.095 64.2948 233.925C63.7948 233.745 63.3598 233.49 62.9898 233.16C62.6198 232.82 62.3248 232.41 62.1048 231.93C61.8948 231.45 61.7898 230.9 61.7898 230.28ZM67.1598 229.47C67.1598 229.05 67.0448 228.71 66.8148 228.45C66.5848 228.19 66.2148 228.06 65.7048 228.06C65.3048 228.06 64.9498 228.175 64.6398 228.405C64.3298 228.635 64.1248 228.99 64.0248 229.47H67.1598Z" fill="#E69F00"/>
<path d="M72.719 227.58C72.719 227.33 72.759 227.1 72.839 226.89C72.929 226.67 73.049 226.48 73.199 226.32C73.349 226.16 73.529 226.035 73.739 225.945C73.959 225.855 74.199 225.81 74.459 225.81C74.719 225.81 74.954 225.855 75.164 225.945C75.384 226.035 75.569 226.16 75.719 226.32C75.869 226.48 75.984 226.67 76.064 226.89C76.154 227.1 76.199 227.33 76.199 227.58C76.199 228.08 76.039 228.5 75.719 228.84C75.399 229.17 74.979 229.335 74.459 229.335C73.939 229.335 73.519 229.17 73.199 228.84C72.879 228.5 72.719 228.08 72.719 227.58ZM72.719 232.425C72.719 232.175 72.759 231.945 72.839 231.735C72.929 231.515 73.049 231.325 73.199 231.165C73.349 231.005 73.529 230.88 73.739 230.79C73.959 230.7 74.199 230.655 74.459 230.655C74.719 230.655 74.954 230.7 75.164 230.79C75.384 230.88 75.569 231.005 75.719 231.165C75.869 231.325 75.984 231.515 76.064 231.735C76.154 231.945 76.199 232.175 76.199 232.425C76.199 232.925 76.039 233.345 75.719 233.685C75.399 234.015 74.979 234.18 74.459 234.18C73.939 234.18 73.519 234.015 73.199 233.685C72.879 233.345 72.719 232.925 72.719 232.425ZM57.8507 255.685C56.8707 254.815 56.0957 253.81 55.5257 252.67C54.9657 251.53 54.6857 250.25 54.6857 248.83C54.6857 247.41 54.9657 246.13 55.5257 244.99C56.0957 243.85 56.8707 242.845 57.8507 241.975L59.0807 242.95C58.1907 243.82 57.5407 244.725 57.1307 245.665C56.7307 246.595 56.5307 247.65 56.5307 248.83C56.5307 249.42 56.5807 249.98 56.6807 250.51C56.7807 251.03 56.9307 251.53 57.1307 252.01C57.3407 252.49 57.6057 252.95 57.9257 253.39C58.2457 253.84 58.6307 254.28 59.0807 254.71L57.8507 255.685ZM71.849 254.71C72.299 254.28 72.684 253.84 73.004 253.39C73.324 252.95 73.584 252.49 73.784 252.01C73.994 251.53 74.149 251.03 74.249 250.51C74.349 249.98 74.399 249.42 74.399 248.83C74.399 247.65 74.194 246.595 73.784 245.665C73.384 244.725 72.739 243.82 71.849 242.95L73.079 241.975C74.059 242.845 74.829 243.85 75.389 244.99C75.959 246.13 76.244 247.41 76.244 248.83C76.244 250.25 75.959 251.53 75.389 252.67C74.829 253.81 74.059 254.815 73.079 255.685L71.849 254.71Z" fill="white"/>
<path d="M10.285 253.585V255.76H8.08V245.56H9.88L10.045 246.31H10.09C10.39 246.04 10.735 245.82 11.125 245.65C11.515 245.47 11.91 245.38 12.31 245.38C12.77 245.38 13.185 245.47 13.555 245.65C13.925 245.83 14.24 246.085 14.5 246.415C14.76 246.745 14.955 247.145 15.085 247.615C15.225 248.075 15.295 248.59 15.295 249.16C15.295 249.8 15.205 250.37 15.025 250.87C14.845 251.36 14.605 251.78 14.305 252.13C14.005 252.47 13.66 252.73 13.27 252.91C12.89 253.09 12.49 253.18 12.07 253.18C11.39 253.18 10.77 252.91 10.21 252.37L10.285 253.585ZM10.285 250.885C10.495 251.065 10.71 251.195 10.93 251.275C11.16 251.345 11.37 251.38 11.56 251.38C11.98 251.38 12.33 251.21 12.61 250.87C12.89 250.52 13.03 249.96 13.03 249.19C13.03 247.85 12.575 247.18 11.665 247.18C11.195 247.18 10.735 247.41 10.285 247.87V250.885ZM17.7341 245.56H19.5341L19.7141 247.18H19.7591C20.1291 246.57 20.5741 246.12 21.0941 245.83C21.6141 245.53 22.1741 245.38 22.7741 245.38C23.1041 245.38 23.3691 245.405 23.5691 245.455C23.7791 245.505 23.9941 245.58 24.2141 245.68L23.7641 247.525C23.5341 247.455 23.3241 247.405 23.1341 247.375C22.9541 247.335 22.7241 247.315 22.4441 247.315C21.9841 247.315 21.5291 247.45 21.0791 247.72C20.6391 247.99 20.2591 248.46 19.9391 249.13V253H17.7341V245.56ZM26.1733 245.56H31.3633V253H29.1583V247.285H26.1733V245.56ZM30.1633 244.465C29.7333 244.465 29.3783 244.345 29.0983 244.105C28.8283 243.865 28.6933 243.54 28.6933 243.13C28.6933 242.72 28.8283 242.39 29.0983 242.14C29.3783 241.88 29.7333 241.75 30.1633 241.75C30.5933 241.75 30.9433 241.88 31.2133 242.14C31.4933 242.39 31.6333 242.72 31.6333 243.13C31.6333 243.54 31.4933 243.865 31.2133 244.105C30.9433 244.345 30.5933 244.465 30.1633 244.465ZM35.0624 245.56H36.8624L37.0274 246.55H37.0874C37.4074 246.23 37.7724 245.955 38.1824 245.725C38.6024 245.495 39.0924 245.38 39.6524 245.38C40.4924 245.38 41.1074 245.65 41.4974 246.19C41.8874 246.73 42.0824 247.47 42.0824 248.41V253H39.8774V248.695C39.8774 248.195 39.7974 247.83 39.6374 247.6C39.4774 247.37 39.1924 247.255 38.7824 247.255C38.4824 247.255 38.2174 247.32 37.9874 247.45C37.7674 247.58 37.5274 247.775 37.2674 248.035V253H35.0624V245.56ZM45.5866 247.285H43.7116V245.65L45.6916 245.56L45.9766 243.58H47.7916V245.56H50.9416V247.285H47.7916V249.895C47.7916 250.465 47.9166 250.87 48.1666 251.11C48.4166 251.34 48.8116 251.455 49.3516 251.455C49.6416 251.455 49.9066 251.43 50.1466 251.38C50.3866 251.33 50.6166 251.265 50.8366 251.185L51.2266 252.775C50.8966 252.875 50.5266 252.965 50.1166 253.045C49.7166 253.135 49.2766 253.18 48.7966 253.18C48.2066 253.18 47.7066 253.1 47.2966 252.94C46.8866 252.78 46.5516 252.56 46.2916 252.28C46.0416 251.99 45.8616 251.645 45.7516 251.245C45.6416 250.845 45.5866 250.4 45.5866 249.91V247.285Z" fill="#56B4E9"/>
<path d="M69.0198 251.215V253H62.1948V251.215H64.6548V245.71H62.6898V244.345C63.2498 244.245 63.7248 244.125 64.1148 243.985C64.5148 243.845 64.8898 243.675 65.2398 243.475H66.8598V251.215H69.0198Z" fill="#F0E442"/>
<path d="M9.5 299.18C8.92 299.18 8.385 299.065 7.895 298.835C7.415 298.595 7 298.255 6.65 297.815C6.31 297.375 6.045 296.84 5.855 296.21C5.665 295.58 5.57 294.865 5.57 294.065C5.57 293.265 5.665 292.555 5.855 291.935C6.045 291.305 6.31 290.78 6.65 290.36C7 289.93 7.415 289.605 7.895 289.385C8.385 289.155 8.92 289.04 9.5 289.04C10.08 289.04 10.61 289.155 11.09 289.385C11.58 289.605 11.995 289.93 12.335 290.36C12.685 290.79 12.955 291.32 13.145 291.95C13.335 292.57 13.43 293.275 13.43 294.065C13.43 294.865 13.335 295.58 13.145 296.21C12.955 296.84 12.685 297.375 12.335 297.815C11.995 298.255 11.58 298.595 11.09 298.835C10.61 299.065 10.08 299.18 9.5 299.18ZM9.5 297.275C10.01 297.275 10.415 296.99 10.715 296.42C11.015 295.84 11.165 295.055 11.165 294.065C11.165 293.085 11.015 292.32 10.715 291.77C10.415 291.22 10.01 290.945 9.5 290.945C8.99 290.945 8.585 291.22 8.285 291.77C7.985 292.32 7.835 293.085 7.835 294.065C7.835 295.055 7.985 295.84 8.285 296.42C8.585 296.99 8.99 297.275 9.5 297.275ZM21.8691 299H20.0691L19.9041 297.935H19.8441C19.5141 298.315 19.1491 298.62 18.7491 298.85C18.3491 299.07 17.8791 299.18 17.3391 299.18C16.4891 299.18 15.8741 298.91 15.4941 298.37C15.1141 297.83 14.9241 297.09 14.9241 296.15V291.56H17.1291V295.865C17.1291 296.365 17.2041 296.73 17.3541 296.96C17.5041 297.19 17.7891 297.305 18.2091 297.305C18.4891 297.305 18.7341 297.245 18.9441 297.125C19.1641 297.005 19.4041 296.78 19.6641 296.45V291.56H21.8691V299ZM25.5983 293.285H23.7233V291.65L25.7033 291.56L25.9883 289.58H27.8033V291.56H30.9533V293.285H27.8033V295.895C27.8033 296.465 27.9283 296.87 28.1783 297.11C28.4283 297.34 28.8233 297.455 29.3633 297.455C29.6533 297.455 29.9183 297.43 30.1583 297.38C30.3983 297.33 30.6283 297.265 30.8483 297.185L31.2383 298.775C30.9083 298.875 30.5383 298.965 30.1283 299.045C29.7283 299.135 29.2883 299.18 28.8083 299.18C28.2183 299.18 27.7183 299.1 27.3083 298.94C26.8983 298.78 26.5633 298.56 26.3033 298.28C26.0533 297.99 25.8733 297.645 25.7633 297.245C25.6533 296.845 25.5983 296.4 25.5983 295.91V293.285ZM35.2674 299.585V301.76H33.0624V291.56H34.8624L35.0274 292.31H35.0724C35.3724 292.04 35.7174 291.82 36.1074 291.65C36.4974 291.47 36.8924 291.38 37.2924 291.38C37.7524 291.38 38.1674 291.47 38.5374 291.65C38.9074 291.83 39.2224 292.085 39.4824 292.415C39.7424 292.745 39.9374 293.145 40.0674 293.615C40.2074 294.075 40.2774 294.59 40.2774 295.16C40.2774 295.8 40.1874 296.37 40.0074 296.87C39.8274 297.36 39.5874 297.78 39.2874 298.13C38.9874 298.47 38.6424 298.73 38.2524 298.91C37.8724 299.09 37.4724 299.18 37.0524 299.18C36.3724 299.18 35.7524 298.91 35.1924 298.37L35.2674 299.585ZM35.2674 296.885C35.4774 297.065 35.6924 297.195 35.9124 297.275C36.1424 297.345 36.3524 297.38 36.5424 297.38C36.9624 297.38 37.3124 297.21 37.5924 296.87C37.8724 296.52 38.0124 295.96 38.0124 295.19C38.0124 293.85 37.5574 293.18 36.6474 293.18C36.1774 293.18 35.7174 293.41 35.2674 293.87V296.885ZM48.8516 299H47.0516L46.8866 297.935H46.8266C46.4966 298.315 46.1316 298.62 45.7316 298.85C45.3316 299.07 44.8616 299.18 44.3216 299.18C43.4716 299.18 42.8566 298.91 42.4766 298.37C42.0966 297.83 41.9066 297.09 41.9066 296.15V291.56H44.1116V295.865C44.1116 296.365 44.1866 296.73 44.3366 296.96C44.4866 297.19 44.7716 297.305 45.1916 297.305C45.4716 297.305 45.7166 297.245 45.9266 297.125C46.1466 297.005 46.3866 296.78 46.6466 296.45V291.56H48.8516V299ZM52.5807 293.285H50.7057V291.65L52.6857 291.56L52.9707 289.58H54.7857V291.56H57.9357V293.285H54.7857V295.895C54.7857 296.465 54.9107 296.87 55.1607 297.11C55.4107 297.34 55.8057 297.455 56.3457 297.455C56.6357 297.455 56.9007 297.43 57.1407 297.38C57.3807 297.33 57.6107 297.265 57.8307 297.185L58.2207 298.775C57.8907 298.875 57.5207 298.965 57.1107 299.045C56.7107 299.135 56.2707 299.18 55.7907 299.18C55.2007 299.18 54.7007 299.1 54.2907 298.94C53.8807 298.78 53.5457 298.56 53.2857 298.28C53.0357 297.99 52.8557 297.645 52.7457 297.245C52.6357 296.845 52.5807 296.4 52.5807 295.91V293.285Z" fill="white"/>
<rect x="79" y="188" width="275" height="31" fill="#333333"/>
<rect x="79" y="188" width="275" height="31" fill="#333333"/>
<rect y="188" width="79" height="31" fill="#090808"/>
<path d="M12.105 205.81C12.105 205.551 11.9756 205.349 11.7168 205.202C11.4629 205.051 11.0527 204.917 10.4863 204.799C8.60156 204.404 7.65918 203.603 7.65918 202.397C7.65918 201.694 7.94971 201.108 8.53076 200.639C9.1167 200.166 9.88086 199.929 10.8232 199.929C11.8291 199.929 12.6323 200.166 13.2329 200.639C13.8384 201.113 14.1411 201.728 14.1411 202.485H12.0244C12.0244 202.182 11.9268 201.933 11.7314 201.738C11.5361 201.538 11.231 201.438 10.8159 201.438C10.4595 201.438 10.1836 201.518 9.98828 201.679C9.79297 201.84 9.69531 202.045 9.69531 202.294C9.69531 202.529 9.80518 202.719 10.0249 202.866C10.2495 203.007 10.6255 203.132 11.1528 203.239C11.6802 203.342 12.1245 203.459 12.4858 203.591C13.604 204.001 14.1631 204.711 14.1631 205.722C14.1631 206.445 13.853 207.031 13.2329 207.48C12.6128 207.924 11.812 208.146 10.8306 208.146C10.1665 208.146 9.57568 208.029 9.05811 207.795C8.54541 207.556 8.14258 207.231 7.84961 206.821C7.55664 206.406 7.41016 205.959 7.41016 205.48H9.41699C9.43652 205.856 9.57568 206.145 9.83447 206.345C10.0933 206.545 10.4399 206.645 10.8745 206.645C11.2798 206.645 11.585 206.569 11.79 206.418C12 206.262 12.105 206.059 12.105 205.81ZM18.8286 206.44C19.2192 206.44 19.5366 206.333 19.7808 206.118C20.0249 205.903 20.1519 205.617 20.1616 205.261H22.1465C22.1416 205.798 21.9951 206.291 21.707 206.74C21.4189 207.185 21.0234 207.531 20.5205 207.78C20.0225 208.024 19.4707 208.146 18.8652 208.146C17.7324 208.146 16.8389 207.788 16.1846 207.07C15.5303 206.347 15.2031 205.351 15.2031 204.082V203.942C15.2031 202.722 15.5278 201.748 16.1772 201.02C16.8267 200.292 17.7178 199.929 18.8506 199.929C19.8418 199.929 20.6353 200.212 21.231 200.778C21.8315 201.34 22.1367 202.089 22.1465 203.027H20.1616C20.1519 202.617 20.0249 202.285 19.7808 202.031C19.5366 201.772 19.2144 201.643 18.814 201.643C18.3208 201.643 17.9473 201.823 17.6934 202.185C17.4443 202.541 17.3198 203.122 17.3198 203.928V204.147C17.3198 204.963 17.4443 205.549 17.6934 205.905C17.9424 206.262 18.3208 206.44 18.8286 206.44ZM27.8081 202.06C27.52 202.021 27.2661 202.001 27.0464 202.001C26.2456 202.001 25.7207 202.272 25.4717 202.814V208H23.355V200.075H25.3545L25.4131 201.02C25.8379 200.292 26.4263 199.929 27.1782 199.929C27.4126 199.929 27.6323 199.96 27.8374 200.024L27.8081 202.06ZM31.0674 208H28.9434V200.075H31.0674V208ZM28.8188 198.024C28.8188 197.707 28.9238 197.446 29.1338 197.241C29.3486 197.036 29.6392 196.933 30.0054 196.933C30.3667 196.933 30.6548 197.036 30.8696 197.241C31.0845 197.446 31.1919 197.707 31.1919 198.024C31.1919 198.347 31.082 198.61 30.8623 198.815C30.6475 199.021 30.3618 199.123 30.0054 199.123C29.6489 199.123 29.3608 199.021 29.1411 198.815C28.9263 198.61 28.8188 198.347 28.8188 198.024ZM39.9517 204.111C39.9517 205.332 39.6733 206.311 39.1167 207.048C38.5649 207.78 37.8179 208.146 36.8755 208.146C36.0747 208.146 35.4277 207.868 34.9346 207.312V211.047H32.8179V200.075H34.7808L34.854 200.852C35.3667 200.236 36.0356 199.929 36.8608 199.929C37.8374 199.929 38.5967 200.29 39.1387 201.013C39.6807 201.735 39.9517 202.731 39.9517 204.001V204.111ZM37.835 203.957C37.835 203.22 37.7031 202.651 37.4395 202.25C37.1807 201.85 36.8022 201.65 36.3042 201.65C35.6401 201.65 35.1836 201.904 34.9346 202.412V205.656C35.1934 206.179 35.6548 206.44 36.3188 206.44C37.3296 206.44 37.835 205.612 37.835 203.957ZM43.8042 198.127V200.075H45.1592V201.628H43.8042V205.583C43.8042 205.876 43.8604 206.086 43.9727 206.213C44.085 206.34 44.2998 206.403 44.6172 206.403C44.8516 206.403 45.0591 206.386 45.2397 206.352V207.956C44.8247 208.083 44.3975 208.146 43.958 208.146C42.4736 208.146 41.7168 207.397 41.6875 205.898V201.628H40.5303V200.075H41.6875V198.127H43.8042ZM46.4482 206.96C46.4482 206.623 46.5605 206.35 46.7852 206.14C47.0146 205.93 47.3003 205.825 47.6421 205.825C47.9888 205.825 48.2744 205.93 48.499 206.14C48.7285 206.35 48.8433 206.623 48.8433 206.96C48.8433 207.292 48.731 207.563 48.5063 207.773C48.2817 207.978 47.9937 208.081 47.6421 208.081C47.2954 208.081 47.0098 207.978 46.7852 207.773C46.5605 207.563 46.4482 207.292 46.4482 206.96ZM57.8374 204.111C57.8374 205.332 57.5591 206.311 57.0024 207.048C56.4507 207.78 55.7036 208.146 54.7612 208.146C53.9604 208.146 53.3135 207.868 52.8203 207.312V211.047H50.7036V200.075H52.6665L52.7397 200.852C53.2524 200.236 53.9214 199.929 54.7466 199.929C55.7231 199.929 56.4824 200.29 57.0244 201.013C57.5664 201.735 57.8374 202.731 57.8374 204.001V204.111ZM55.7207 203.957C55.7207 203.22 55.5889 202.651 55.3252 202.25C55.0664 201.85 54.688 201.65 54.1899 201.65C53.5259 201.65 53.0693 201.904 52.8203 202.412V205.656C53.0791 206.179 53.5405 206.44 54.2046 206.44C55.2153 206.44 55.7207 205.612 55.7207 203.957ZM62.0269 205.004L63.4917 200.075H65.7622L62.5762 209.23L62.4004 209.648C61.9268 210.683 61.1455 211.201 60.0566 211.201C59.749 211.201 59.4365 211.154 59.1191 211.062V209.458L59.4414 209.465C59.8418 209.465 60.1396 209.404 60.335 209.282C60.5352 209.16 60.6914 208.957 60.8037 208.674L61.0527 208.022L58.2769 200.075H60.5547L62.0269 205.004Z" fill="white"/>
<line y1="277.5" x2="354" y2="277.5" stroke="white"/>
<rect x="66" width="222" height="147" fill="black"/>
<path d="M229.954 67.1108C229.954 68.3804 229.683 69.3716 229.141 70.0845C228.599 70.7925 227.842 71.1465 226.871 71.1465C226.011 71.1465 225.325 70.8169 224.812 70.1577L224.717 71H222.813V59.75H224.93V63.7856C225.418 63.2144 226.06 62.9287 226.856 62.9287C227.823 62.9287 228.58 63.2852 229.126 63.998C229.678 64.7061 229.954 65.7046 229.954 66.9937V67.1108ZM227.837 66.957C227.837 66.1562 227.71 65.5728 227.457 65.2065C227.203 64.8354 226.824 64.6499 226.321 64.6499C225.647 64.6499 225.184 64.9258 224.93 65.4775V68.605C225.188 69.1616 225.657 69.4399 226.336 69.4399C227.02 69.4399 227.469 69.103 227.684 68.4292C227.786 68.1069 227.837 67.6162 227.837 66.957ZM230.936 66.9644C230.936 66.1782 231.087 65.4775 231.39 64.8623C231.692 64.2471 232.127 63.771 232.693 63.4341C233.265 63.0972 233.926 62.9287 234.678 62.9287C235.748 62.9287 236.619 63.2559 237.293 63.9102C237.972 64.5645 238.35 65.4531 238.428 66.5762L238.443 67.1182C238.443 68.334 238.104 69.3105 237.425 70.0479C236.746 70.7803 235.835 71.1465 234.693 71.1465C233.55 71.1465 232.637 70.7803 231.954 70.0479C231.275 69.3154 230.936 68.3193 230.936 67.0596V66.9644ZM233.052 67.1182C233.052 67.8701 233.194 68.4463 233.477 68.8467C233.76 69.2422 234.166 69.4399 234.693 69.4399C235.206 69.4399 235.606 69.2446 235.894 68.854C236.182 68.4585 236.326 67.8286 236.326 66.9644C236.326 66.2271 236.182 65.6558 235.894 65.2505C235.606 64.8452 235.201 64.6426 234.678 64.6426C234.161 64.6426 233.76 64.8452 233.477 65.2505C233.194 65.6509 233.052 66.2734 233.052 67.1182ZM239.417 66.979C239.417 65.7437 239.693 64.7598 240.245 64.0273C240.801 63.2949 241.561 62.9287 242.522 62.9287C243.294 62.9287 243.931 63.2168 244.434 63.793V59.75H246.558V71H244.646L244.544 70.1577C244.017 70.8169 243.338 71.1465 242.508 71.1465C241.575 71.1465 240.826 70.7803 240.259 70.0479C239.698 69.3105 239.417 68.2876 239.417 66.979ZM241.534 67.1328C241.534 67.875 241.663 68.4438 241.922 68.8394C242.181 69.2349 242.557 69.4326 243.05 69.4326C243.704 69.4326 244.166 69.1567 244.434 68.605V65.4775C244.17 64.9258 243.714 64.6499 243.064 64.6499C242.044 64.6499 241.534 65.4775 241.534 67.1328ZM251.158 68.0044L252.623 63.0752H254.893L251.707 72.2305L251.531 72.6479C251.058 73.6831 250.276 74.2007 249.188 74.2007C248.88 74.2007 248.567 74.1543 248.25 74.0615V72.4575L248.572 72.4648C248.973 72.4648 249.271 72.4038 249.466 72.2817C249.666 72.1597 249.822 71.957 249.935 71.6738L250.184 71.022L247.408 63.0752H249.686L251.158 68.0044Z" fill="#F0E442"/>
<path d="M81.055 132.215V134H74.23V132.215H76.69V126.71H74.725V125.345C75.285 125.245 75.76 125.125 76.15 124.985C76.55 124.845 76.925 124.675 77.275 124.475H78.895V132.215H81.055Z" fill="white"/>
<path d="M77.5 112.18C76.92 112.18 76.385 112.065 75.895 111.835C75.415 111.595 75 111.255 74.65 110.815C74.31 110.375 74.045 109.84 73.855 109.21C73.665 108.58 73.57 107.865 73.57 107.065C73.57 106.265 73.665 105.555 73.855 104.935C74.045 104.305 74.31 103.78 74.65 103.36C75 102.93 75.415 102.605 75.895 102.385C76.385 102.155 76.92 102.04 77.5 102.04C78.08 102.04 78.61 102.155 79.09 102.385C79.58 102.605 79.995 102.93 80.335 103.36C80.685 103.79 80.955 104.32 81.145 104.95C81.335 105.57 81.43 106.275 81.43 107.065C81.43 107.865 81.335 108.58 81.145 109.21C80.955 109.84 80.685 110.375 80.335 110.815C79.995 111.255 79.58 111.595 79.09 111.835C78.61 112.065 78.08 112.18 77.5 112.18ZM77.5 110.275C78.01 110.275 78.415 109.99 78.715 109.42C79.015 108.84 79.165 108.055 79.165 107.065C79.165 106.085 79.015 105.32 78.715 104.77C78.415 104.22 78.01 103.945 77.5 103.945C76.99 103.945 76.585 104.22 76.285 104.77C75.985 105.32 75.835 106.085 75.835 107.065C75.835 108.055 75.985 108.84 76.285 109.42C76.585 109.99 76.99 110.275 77.5 110.275ZM89.8691 112H88.0691L87.9041 110.935H87.8441C87.5141 111.315 87.1491 111.62 86.7491 111.85C86.3491 112.07 85.8791 112.18 85.3391 112.18C84.4891 112.18 83.8741 111.91 83.4941 111.37C83.1141 110.83 82.9241 110.09 82.9241 109.15V104.56H85.1291V108.865C85.1291 109.365 85.2041 109.73 85.3541 109.96C85.5041 110.19 85.7891 110.305 86.2091 110.305C86.4891 110.305 86.7341 110.245 86.9441 110.125C87.1641 110.005 87.4041 109.78 87.6641 109.45V104.56H89.8691V112ZM93.5983 106.285H91.7233V104.65L93.7033 104.56L93.9883 102.58H95.8033V104.56H98.9533V106.285H95.8033V108.895C95.8033 109.465 95.9283 109.87 96.1783 110.11C96.4283 110.34 96.8233 110.455 97.3633 110.455C97.6533 110.455 97.9183 110.43 98.1583 110.38C98.3983 110.33 98.6283 110.265 98.8483 110.185L99.2383 111.775C98.9083 111.875 98.5383 111.965 98.1283 112.045C97.7283 112.135 97.2883 112.18 96.8083 112.18C96.2183 112.18 95.7183 112.1 95.3083 111.94C94.8983 111.78 94.5633 111.56 94.3033 111.28C94.0533 110.99 93.8733 110.645 93.7633 110.245C93.6533 109.845 93.5983 109.4 93.5983 108.91V106.285ZM103.267 112.585V114.76H101.062V104.56H102.862L103.027 105.31H103.072C103.372 105.04 103.717 104.82 104.107 104.65C104.497 104.47 104.892 104.38 105.292 104.38C105.752 104.38 106.167 104.47 106.537 104.65C106.907 104.83 107.222 105.085 107.482 105.415C107.742 105.745 107.937 106.145 108.067 106.615C108.207 107.075 108.277 107.59 108.277 108.16C108.277 108.8 108.187 109.37 108.007 109.87C107.827 110.36 107.587 110.78 107.287 111.13C106.987 111.47 106.642 111.73 106.252 111.91C105.872 112.09 105.472 112.18 105.052 112.18C104.372 112.18 103.752 111.91 103.192 111.37L103.267 112.585ZM103.267 109.885C103.477 110.065 103.692 110.195 103.912 110.275C104.142 110.345 104.352 110.38 104.542 110.38C104.962 110.38 105.312 110.21 105.592 109.87C105.872 109.52 106.012 108.96 106.012 108.19C106.012 106.85 105.557 106.18 104.647 106.18C104.177 106.18 103.717 106.41 103.267 106.87V109.885ZM116.852 112H115.052L114.887 110.935H114.827C114.497 111.315 114.132 111.62 113.732 111.85C113.332 112.07 112.862 112.18 112.322 112.18C111.472 112.18 110.857 111.91 110.477 111.37C110.097 110.83 109.907 110.09 109.907 109.15V104.56H112.112V108.865C112.112 109.365 112.187 109.73 112.337 109.96C112.487 110.19 112.772 110.305 113.192 110.305C113.472 110.305 113.717 110.245 113.927 110.125C114.147 110.005 114.387 109.78 114.647 109.45V104.56H116.852V112ZM120.581 106.285H118.706V104.65L120.686 104.56L120.971 102.58H122.786V104.56H125.936V106.285H122.786V108.895C122.786 109.465 122.911 109.87 123.161 110.11C123.411 110.34 123.806 110.455 124.346 110.455C124.636 110.455 124.901 110.43 125.141 110.38C125.381 110.33 125.611 110.265 125.831 110.185L126.221 111.775C125.891 111.875 125.521 111.965 125.111 112.045C124.711 112.135 124.271 112.18 123.791 112.18C123.201 112.18 122.701 112.1 122.291 111.94C121.881 111.78 121.546 111.56 121.286 111.28C121.036 110.99 120.856 110.645 120.746 110.245C120.636 109.845 120.581 109.4 120.581 108.91V106.285Z" fill="white"/>
<rect x="145.011" width="143" height="31" fill="#333333"/>
<rect x="145.011" width="143" height="31" fill="#333333"/>
<rect x="66.0107" width="79" height="31" fill="#090808"/>
<path d="M78.1157 17.8101C78.1157 17.5513 77.9863 17.3486 77.7275 17.2021C77.4736 17.0508 77.0634 16.9165 76.497 16.7993C74.6123 16.4038 73.6699 15.603 73.6699 14.397C73.6699 13.6938 73.9604 13.1079 74.5415 12.6392C75.1274 12.1655 75.8916 11.9287 76.834 11.9287C77.8398 11.9287 78.643 12.1655 79.2436 12.6392C79.8491 13.1128 80.1518 13.728 80.1518 14.4849H78.0351C78.0351 14.1821 77.9375 13.9331 77.7422 13.7378C77.5468 13.5376 77.2417 13.4375 76.8266 13.4375C76.4702 13.4375 76.1943 13.5181 75.999 13.6792C75.8037 13.8403 75.706 14.0454 75.706 14.2944C75.706 14.5288 75.8159 14.7192 76.0356 14.8657C76.2602 15.0073 76.6362 15.1318 77.1635 15.2393C77.6909 15.3418 78.1352 15.459 78.4966 15.5908C79.6147 16.001 80.1738 16.7114 80.1738 17.7222C80.1738 18.4448 79.8637 19.0308 79.2436 19.48C78.6235 19.9243 77.8227 20.1465 76.8413 20.1465C76.1772 20.1465 75.5864 20.0293 75.0688 19.7949C74.5561 19.5557 74.1533 19.231 73.8603 18.8208C73.5674 18.4058 73.4209 17.959 73.4209 17.4805H75.4277C75.4472 17.8564 75.5864 18.1445 75.8452 18.3447C76.104 18.5449 76.4507 18.645 76.8852 18.645C77.2905 18.645 77.5957 18.5693 77.8008 18.418C78.0107 18.2617 78.1157 18.0591 78.1157 17.8101ZM84.8393 18.4399C85.2299 18.4399 85.5473 18.3325 85.7915 18.1177C86.0356 17.9028 86.1626 17.6172 86.1723 17.2607H88.1572C88.1523 17.7979 88.0058 18.291 87.7177 18.7402C87.4297 19.1846 87.0341 19.5312 86.5312 19.7803C86.0332 20.0244 85.4814 20.1465 84.8759 20.1465C83.7431 20.1465 82.8496 19.7876 82.1953 19.0698C81.541 18.3472 81.2138 17.3511 81.2138 16.0815V15.9424C81.2138 14.7217 81.5385 13.7476 82.188 13.02C82.8374 12.2925 83.7285 11.9287 84.8613 11.9287C85.8525 11.9287 86.646 12.2119 87.2417 12.7783C87.8423 13.3398 88.1474 14.0894 88.1572 15.0269H86.1723C86.1626 14.6167 86.0356 14.2847 85.7915 14.0308C85.5473 13.772 85.2251 13.6426 84.8247 13.6426C84.3315 13.6426 83.958 13.8232 83.7041 14.1846C83.455 14.541 83.3305 15.1221 83.3305 15.9277V16.1475C83.3305 16.9629 83.455 17.5488 83.7041 17.9053C83.9531 18.2617 84.3315 18.4399 84.8393 18.4399ZM93.8188 14.0601C93.5307 14.021 93.2768 14.0015 93.0571 14.0015C92.2563 14.0015 91.7314 14.2725 91.4824 14.8145V20H89.3657V12.0752H91.3652L91.4238 13.02C91.8486 12.2925 92.437 11.9287 93.1889 11.9287C93.4233 11.9287 93.643 11.9604 93.8481 12.0239L93.8188 14.0601ZM97.0781 20H94.9541V12.0752H97.0781V20ZM94.8296 10.0244C94.8296 9.70703 94.9345 9.4458 95.1445 9.24072C95.3593 9.03564 95.6499 8.93311 96.0161 8.93311C96.3774 8.93311 96.6655 9.03564 96.8803 9.24072C97.0952 9.4458 97.2026 9.70703 97.2026 10.0244C97.2026 10.3467 97.0927 10.6104 96.873 10.8154C96.6582 11.0205 96.3725 11.123 96.0161 11.123C95.6596 11.123 95.3716 11.0205 95.1518 10.8154C94.937 10.6104 94.8296 10.3467 94.8296 10.0244ZM105.962 16.1108C105.962 17.3315 105.684 18.3105 105.127 19.0479C104.576 19.7803 103.829 20.1465 102.886 20.1465C102.085 20.1465 101.438 19.8682 100.945 19.3115V23.0469H98.8286V12.0752H100.791L100.865 12.8516C101.377 12.2363 102.046 11.9287 102.872 11.9287C103.848 11.9287 104.607 12.29 105.149 13.0127C105.691 13.7354 105.962 14.7314 105.962 16.001V16.1108ZM103.846 15.957C103.846 15.2197 103.714 14.6509 103.45 14.2505C103.191 13.8501 102.813 13.6499 102.315 13.6499C101.651 13.6499 101.194 13.9038 100.945 14.4116V17.6562C101.204 18.1787 101.665 18.4399 102.33 18.4399C103.34 18.4399 103.846 17.6123 103.846 15.957ZM109.815 10.127V12.0752H111.17V13.6279H109.815V17.583C109.815 17.876 109.871 18.0859 109.983 18.2129C110.096 18.3398 110.311 18.4033 110.628 18.4033C110.862 18.4033 111.07 18.3862 111.25 18.3521V19.9561C110.835 20.083 110.408 20.1465 109.969 20.1465C108.484 20.1465 107.728 19.397 107.698 17.8979V13.6279H106.541V12.0752H107.698V10.127H109.815ZM112.459 18.96C112.459 18.623 112.571 18.3496 112.796 18.1396C113.025 17.9297 113.311 17.8247 113.653 17.8247C113.999 17.8247 114.285 17.9297 114.51 18.1396C114.739 18.3496 114.854 18.623 114.854 18.96C114.854 19.292 114.742 19.563 114.517 19.7729C114.292 19.978 114.004 20.0806 113.653 20.0806C113.306 20.0806 113.02 19.978 112.796 19.7729C112.571 19.563 112.459 19.292 112.459 18.96ZM123.848 16.1108C123.848 17.3315 123.57 18.3105 123.013 19.0479C122.461 19.7803 121.714 20.1465 120.772 20.1465C119.971 20.1465 119.324 19.8682 118.831 19.3115V23.0469H116.714V12.0752H118.677L118.75 12.8516C119.263 12.2363 119.932 11.9287 120.757 11.9287C121.734 11.9287 122.493 12.29 123.035 13.0127C123.577 13.7354 123.848 14.7314 123.848 16.001V16.1108ZM121.731 15.957C121.731 15.2197 121.6 14.6509 121.336 14.2505C121.077 13.8501 120.699 13.6499 120.201 13.6499C119.537 13.6499 119.08 13.9038 118.831 14.4116V17.6562C119.09 18.1787 119.551 18.4399 120.215 18.4399C121.226 18.4399 121.731 17.6123 121.731 15.957ZM128.038 17.0044L129.502 12.0752H131.773L128.587 21.2305L128.411 21.6479C127.937 22.6831 127.156 23.2007 126.067 23.2007C125.76 23.2007 125.447 23.1543 125.13 23.0615V21.4575L125.452 21.4648C125.853 21.4648 126.15 21.4038 126.346 21.2817C126.546 21.1597 126.702 20.957 126.814 20.6738L127.063 20.022L124.288 12.0752H126.565L128.038 17.0044Z" fill="white"/>
<line x1="66" y1="88.5" x2="288.02" y2="88.5" stroke="white"/>
<path d="M74.1957 43.56H79.3857V51H77.1807V45.285H74.1957V43.56ZM78.1857 42.465C77.7557 42.465 77.4007 42.345 77.1207 42.105C76.8507 41.865 76.7157 41.54 76.7157 41.13C76.7157 40.72 76.8507 40.39 77.1207 40.14C77.4007 39.88 77.7557 39.75 78.1857 39.75C78.6157 39.75 78.9657 39.88 79.2357 40.14C79.5157 40.39 79.6557 40.72 79.6557 41.13C79.6557 41.54 79.5157 41.865 79.2357 42.105C78.9657 42.345 78.6157 42.465 78.1857 42.465ZM90.3599 42.33C89.8699 42.14 89.3499 42.045 88.7999 42.045C88.3199 42.045 87.9649 42.15 87.7349 42.36C87.5149 42.57 87.4049 42.9 87.4049 43.35V43.56H89.9699V45.285H87.4049V51H85.1999V45.285H83.2349V43.65L85.1999 43.56V43.365C85.1999 42.935 85.2649 42.535 85.3949 42.165C85.5249 41.795 85.7249 41.475 85.9949 41.205C86.2649 40.925 86.6099 40.705 87.0299 40.545C87.4499 40.385 87.9499 40.305 88.5299 40.305C88.9599 40.305 89.3599 40.345 89.7299 40.425C90.1099 40.505 90.4599 40.6 90.7799 40.71L90.3599 42.33ZM103.383 43.08H100.458V41.22H108.528V43.08H105.603V51H103.383V43.08ZM110.727 43.56H112.527L112.707 45.18H112.752C113.122 44.57 113.567 44.12 114.087 43.83C114.607 43.53 115.167 43.38 115.767 43.38C116.097 43.38 116.362 43.405 116.562 43.455C116.772 43.505 116.987 43.58 117.207 43.68L116.757 45.525C116.527 45.455 116.317 45.405 116.127 45.375C115.947 45.335 115.717 45.315 115.437 45.315C114.977 45.315 114.522 45.45 114.072 45.72C113.632 45.99 113.252 46.46 112.932 47.13V51H110.727V43.56ZM125.856 51H124.056L123.891 49.935H123.831C123.501 50.315 123.136 50.62 122.736 50.85C122.336 51.07 121.866 51.18 121.326 51.18C120.476 51.18 119.861 50.91 119.481 50.37C119.101 49.83 118.911 49.09 118.911 48.15V43.56H121.116V47.865C121.116 48.365 121.191 48.73 121.341 48.96C121.491 49.19 121.776 49.305 122.196 49.305C122.476 49.305 122.721 49.245 122.931 49.125C123.151 49.005 123.391 48.78 123.651 48.45V43.56H125.856V51ZM127.801 47.28C127.801 46.67 127.906 46.125 128.116 45.645C128.336 45.165 128.626 44.76 128.986 44.43C129.346 44.09 129.756 43.83 130.216 43.65C130.686 43.47 131.171 43.38 131.671 43.38C132.241 43.38 132.746 43.47 133.186 43.65C133.626 43.83 133.991 44.08 134.281 44.4C134.571 44.72 134.791 45.1 134.941 45.54C135.091 45.97 135.166 46.44 135.166 46.95C135.166 47.15 135.156 47.34 135.136 47.52C135.116 47.7 135.096 47.835 135.076 47.925H130.066C130.146 48.485 130.386 48.89 130.786 49.14C131.196 49.38 131.676 49.5 132.226 49.5C132.566 49.5 132.886 49.46 133.186 49.38C133.496 49.29 133.816 49.16 134.146 48.99L134.866 50.31C134.446 50.58 133.976 50.795 133.456 50.955C132.936 51.105 132.426 51.18 131.926 51.18C131.346 51.18 130.806 51.095 130.306 50.925C129.806 50.745 129.371 50.49 129.001 50.16C128.631 49.82 128.336 49.41 128.116 48.93C127.906 48.45 127.801 47.9 127.801 47.28ZM133.171 46.47C133.171 46.05 133.056 45.71 132.826 45.45C132.596 45.19 132.226 45.06 131.716 45.06C131.316 45.06 130.961 45.175 130.651 45.405C130.341 45.635 130.136 45.99 130.036 46.47H133.171Z" fill="#E69F00"/>
<path d="M138.73 44.58C138.73 44.33 138.77 44.1 138.85 43.89C138.94 43.67 139.06 43.48 139.21 43.32C139.36 43.16 139.54 43.035 139.75 42.945C139.97 42.855 140.21 42.81 140.47 42.81C140.73 42.81 140.965 42.855 141.175 42.945C141.395 43.035 141.58 43.16 141.73 43.32C141.88 43.48 141.995 43.67 142.075 43.89C142.165 44.1 142.21 44.33 142.21 44.58C142.21 45.08 142.05 45.5 141.73 45.84C141.41 46.17 140.99 46.335 140.47 46.335C139.95 46.335 139.53 46.17 139.21 45.84C138.89 45.5 138.73 45.08 138.73 44.58ZM138.73 49.425C138.73 49.175 138.77 48.945 138.85 48.735C138.94 48.515 139.06 48.325 139.21 48.165C139.36 48.005 139.54 47.88 139.75 47.79C139.97 47.7 140.21 47.655 140.47 47.655C140.73 47.655 140.965 47.7 141.175 47.79C141.395 47.88 141.58 48.005 141.73 48.165C141.88 48.325 141.995 48.515 142.075 48.735C142.165 48.945 142.21 49.175 142.21 49.425C142.21 49.925 142.05 50.345 141.73 50.685C141.41 51.015 140.99 51.18 140.47 51.18C139.95 51.18 139.53 51.015 139.21 50.685C138.89 50.345 138.73 49.925 138.73 49.425ZM159.838 72.685C158.858 71.815 158.083 70.81 157.513 69.67C156.953 68.53 156.673 67.25 156.673 65.83C156.673 64.41 156.953 63.13 157.513 61.99C158.083 60.85 158.858 59.845 159.838 58.975L161.068 59.95C160.178 60.82 159.528 61.725 159.118 62.665C158.718 63.595 158.518 64.65 158.518 65.83C158.518 66.42 158.568 66.98 158.668 67.51C158.768 68.03 158.918 68.53 159.118 69.01C159.328 69.49 159.593 69.95 159.913 70.39C160.233 70.84 160.618 71.28 161.068 71.71L159.838 72.685ZM173.836 71.71C174.286 71.28 174.671 70.84 174.991 70.39C175.311 69.95 175.571 69.49 175.771 69.01C175.981 68.53 176.136 68.03 176.236 67.51C176.336 66.98 176.386 66.42 176.386 65.83C176.386 64.65 176.181 63.595 175.771 62.665C175.371 61.725 174.726 60.82 173.836 59.95L175.066 58.975C176.046 59.845 176.816 60.85 177.376 61.99C177.946 63.13 178.231 64.41 178.231 65.83C178.231 67.25 177.946 68.53 177.376 69.67C176.816 70.81 176.046 71.815 175.066 72.685L173.836 71.71Z" fill="white"/>
<path d="M112.272 70.585V72.76H110.067V62.56H111.867L112.032 63.31H112.077C112.377 63.04 112.722 62.82 113.112 62.65C113.502 62.47 113.897 62.38 114.297 62.38C114.757 62.38 115.172 62.47 115.542 62.65C115.912 62.83 116.227 63.085 116.487 63.415C116.747 63.745 116.942 64.145 117.072 64.615C117.212 65.075 117.282 65.59 117.282 66.16C117.282 66.8 117.192 67.37 117.012 67.87C116.832 68.36 116.592 68.78 116.292 69.13C115.992 69.47 115.647 69.73 115.257 69.91C114.877 70.09 114.477 70.18 114.057 70.18C113.377 70.18 112.757 69.91 112.197 69.37L112.272 70.585ZM112.272 67.885C112.482 68.065 112.697 68.195 112.917 68.275C113.147 68.345 113.357 68.38 113.547 68.38C113.967 68.38 114.317 68.21 114.597 67.87C114.877 67.52 115.017 66.96 115.017 66.19C115.017 64.85 114.562 64.18 113.652 64.18C113.182 64.18 112.722 64.41 112.272 64.87V67.885ZM119.721 62.56H121.521L121.701 64.18H121.746C122.116 63.57 122.561 63.12 123.081 62.83C123.601 62.53 124.161 62.38 124.761 62.38C125.091 62.38 125.356 62.405 125.556 62.455C125.766 62.505 125.981 62.58 126.201 62.68L125.751 64.525C125.521 64.455 125.311 64.405 125.121 64.375C124.941 64.335 124.711 64.315 124.431 64.315C123.971 64.315 123.516 64.45 123.066 64.72C122.626 64.99 122.246 65.46 121.926 66.13V70H119.721V62.56ZM128.161 62.56H133.351V70H131.146V64.285H128.161V62.56ZM132.151 61.465C131.721 61.465 131.366 61.345 131.086 61.105C130.816 60.865 130.681 60.54 130.681 60.13C130.681 59.72 130.816 59.39 131.086 59.14C131.366 58.88 131.721 58.75 132.151 58.75C132.581 58.75 132.931 58.88 133.201 59.14C133.481 59.39 133.621 59.72 133.621 60.13C133.621 60.54 133.481 60.865 133.201 61.105C132.931 61.345 132.581 61.465 132.151 61.465ZM137.05 62.56H138.85L139.015 63.55H139.075C139.395 63.23 139.76 62.955 140.17 62.725C140.59 62.495 141.08 62.38 141.64 62.38C142.48 62.38 143.095 62.65 143.485 63.19C143.875 63.73 144.07 64.47 144.07 65.41V70H141.865V65.695C141.865 65.195 141.785 64.83 141.625 64.6C141.465 64.37 141.18 64.255 140.77 64.255C140.47 64.255 140.205 64.32 139.975 64.45C139.755 64.58 139.515 64.775 139.255 65.035V70H137.05V62.56ZM147.574 64.285H145.699V62.65L147.679 62.56L147.964 60.58H149.779V62.56H152.929V64.285H149.779V66.895C149.779 67.465 149.904 67.87 150.154 68.11C150.404 68.34 150.799 68.455 151.339 68.455C151.629 68.455 151.894 68.43 152.134 68.38C152.374 68.33 152.604 68.265 152.824 68.185L153.214 69.775C152.884 69.875 152.514 69.965 152.104 70.045C151.704 70.135 151.264 70.18 150.784 70.18C150.194 70.18 149.694 70.1 149.284 69.94C148.874 69.78 148.539 69.56 148.279 69.28C148.029 68.99 147.849 68.645 147.739 68.245C147.629 67.845 147.574 67.4 147.574 66.91V64.285Z" fill="#56B4E9"/>
<path d="M171.007 68.215V70H164.182V68.215H166.642V62.71H164.677V61.345C165.237 61.245 165.712 61.125 166.102 60.985C166.502 60.845 166.877 60.675 167.227 60.475H168.847V68.215H171.007Z" fill="#F0E442"/>
<line x1="188" y1="56" x2="188" y2="75" stroke="#F0E442" stroke-width="2"/>
<path d="M195.47 65.4697C195.177 65.7626 195.177 66.2374 195.47 66.5303L200.243 71.3033C200.536 71.5962 201.01 71.5962 201.303 71.3033C201.596 71.0104 201.596 70.5355 201.303 70.2426L197.061 66L201.303 61.7574C201.596 61.4645 201.596 60.9896 201.303 60.6967C201.01 60.4038 200.536 60.4038 200.243 60.6967L195.47 65.4697ZM216 65.25H196V66.75H216V65.25Z" fill="#F0E442"/>
</svg>
