<svg width="341" height="143" viewBox="0 0 341 143" fill="none" xmlns="http://www.w3.org/2000/svg">
<rect width="341" height="143" fill="black"/>
<line x1="-0.000732422" y1="87" x2="341.001" y2="87" stroke="white"/>
<path d="M11.5004 107.68C10.9204 107.68 10.3854 107.565 9.8954 107.335C9.4154 107.095 9.0004 106.755 8.6504 106.315C8.3104 105.875 8.0454 105.34 7.8554 104.71C7.6654 104.08 7.5704 103.365 7.5704 102.565C7.5704 101.765 7.6654 101.055 7.8554 100.435C8.0454 99.805 8.3104 99.28 8.6504 98.86C9.0004 98.43 9.4154 98.105 9.8954 97.885C10.3854 97.655 10.9204 97.54 11.5004 97.54C12.0804 97.54 12.6104 97.655 13.0904 97.885C13.5804 98.105 13.9954 98.43 14.3354 98.86C14.6854 99.29 14.9554 99.82 15.1454 100.45C15.3354 101.07 15.4304 101.775 15.4304 102.565C15.4304 103.365 15.3354 104.08 15.1454 104.71C14.9554 105.34 14.6854 105.875 14.3354 106.315C13.9954 106.755 13.5804 107.095 13.0904 107.335C12.6104 107.565 12.0804 107.68 11.5004 107.68ZM11.5004 105.775C12.0104 105.775 12.4154 105.49 12.7154 104.92C13.0154 104.34 13.1654 103.555 13.1654 102.565C13.1654 101.585 13.0154 100.82 12.7154 100.27C12.4154 99.72 12.0104 99.445 11.5004 99.445C10.9904 99.445 10.5854 99.72 10.2854 100.27C9.9854 100.82 9.8354 101.585 9.8354 102.565C9.8354 103.555 9.9854 104.34 10.2854 104.92C10.5854 105.49 10.9904 105.775 11.5004 105.775ZM23.8695 107.5H22.0695L21.9045 106.435H21.8445C21.5145 106.815 21.1495 107.12 20.7495 107.35C20.3495 107.57 19.8795 107.68 19.3395 107.68C18.4895 107.68 17.8745 107.41 17.4945 106.87C17.1145 106.33 16.9245 105.59 16.9245 104.65V100.06H19.1295V104.365C19.1295 104.865 19.2045 105.23 19.3545 105.46C19.5045 105.69 19.7895 105.805 20.2095 105.805C20.4895 105.805 20.7345 105.745 20.9445 105.625C21.1645 105.505 21.4045 105.28 21.6645 104.95V100.06H23.8695V107.5ZM27.5987 101.785H25.7237V100.15L27.7037 100.06L27.9887 98.08H29.8037V100.06H32.9537V101.785H29.8037V104.395C29.8037 104.965 29.9287 105.37 30.1787 105.61C30.4287 105.84 30.8237 105.955 31.3637 105.955C31.6537 105.955 31.9187 105.93 32.1587 105.88C32.3987 105.83 32.6287 105.765 32.8487 105.685L33.2387 107.275C32.9087 107.375 32.5387 107.465 32.1287 107.545C31.7287 107.635 31.2887 107.68 30.8087 107.68C30.2187 107.68 29.7187 107.6 29.3087 107.44C28.8987 107.28 28.5637 107.06 28.3037 106.78C28.0537 106.49 27.8737 106.145 27.7637 105.745C27.6537 105.345 27.5987 104.9 27.5987 104.41V101.785ZM37.2678 108.085V110.26H35.0628V100.06H36.8628L37.0278 100.81H37.0728C37.3728 100.54 37.7178 100.32 38.1078 100.15C38.4978 99.97 38.8928 99.88 39.2928 99.88C39.7528 99.88 40.1678 99.97 40.5378 100.15C40.9078 100.33 41.2228 100.585 41.4828 100.915C41.7428 101.245 41.9378 101.645 42.0678 102.115C42.2078 102.575 42.2778 103.09 42.2778 103.66C42.2778 104.3 42.1878 104.87 42.0078 105.37C41.8278 105.86 41.5878 106.28 41.2878 106.63C40.9878 106.97 40.6428 107.23 40.2528 107.41C39.8728 107.59 39.4728 107.68 39.0528 107.68C38.3728 107.68 37.7528 107.41 37.1928 106.87L37.2678 108.085ZM37.2678 105.385C37.4778 105.565 37.6928 105.695 37.9128 105.775C38.1428 105.845 38.3528 105.88 38.5428 105.88C38.9628 105.88 39.3128 105.71 39.5928 105.37C39.8728 105.02 40.0128 104.46 40.0128 103.69C40.0128 102.35 39.5578 101.68 38.6478 101.68C38.1778 101.68 37.7178 101.91 37.2678 102.37V105.385ZM50.852 107.5H49.052L48.887 106.435H48.827C48.497 106.815 48.132 107.12 47.732 107.35C47.332 107.57 46.862 107.68 46.322 107.68C45.472 107.68 44.857 107.41 44.477 106.87C44.097 106.33 43.907 105.59 43.907 104.65V100.06H46.112V104.365C46.112 104.865 46.187 105.23 46.337 105.46C46.487 105.69 46.772 105.805 47.192 105.805C47.472 105.805 47.717 105.745 47.927 105.625C48.147 105.505 48.387 105.28 48.647 104.95V100.06H50.852V107.5ZM54.5811 101.785H52.7061V100.15L54.6861 100.06L54.9711 98.08H56.7861V100.06H59.9361V101.785H56.7861V104.395C56.7861 104.965 56.9111 105.37 57.1611 105.61C57.4111 105.84 57.8061 105.955 58.3461 105.955C58.6361 105.955 58.9011 105.93 59.1411 105.88C59.3811 105.83 59.6111 105.765 59.8311 105.685L60.2211 107.275C59.8911 107.375 59.5211 107.465 59.1111 107.545C58.7111 107.635 58.2711 107.68 57.7911 107.68C57.2011 107.68 56.7011 107.6 56.2911 107.44C55.8811 107.28 55.5461 107.06 55.2861 106.78C55.0361 106.49 54.8561 106.145 54.7461 105.745C54.6361 105.345 54.5811 104.9 54.5811 104.41V101.785Z" fill="white"/>
<path d="M9.61 121.285H7.735V119.65L9.715 119.56L10 117.58H11.815V119.56H14.965V121.285H11.815V123.895C11.815 124.465 11.94 124.87 12.19 125.11C12.44 125.34 12.835 125.455 13.375 125.455C13.665 125.455 13.93 125.43 14.17 125.38C14.41 125.33 14.64 125.265 14.86 125.185L15.25 126.775C14.92 126.875 14.55 126.965 14.14 127.045C13.74 127.135 13.3 127.18 12.82 127.18C12.23 127.18 11.73 127.1 11.32 126.94C10.91 126.78 10.575 126.56 10.315 126.28C10.065 125.99 9.885 125.645 9.775 125.245C9.665 124.845 9.61 124.4 9.61 123.91V121.285ZM23.8691 127H22.0691L21.9041 125.935H21.8441C21.5141 126.315 21.1491 126.62 20.7491 126.85C20.3491 127.07 19.8791 127.18 19.3391 127.18C18.4891 127.18 17.8741 126.91 17.4941 126.37C17.1141 125.83 16.9241 125.09 16.9241 124.15V119.56H19.1291V123.865C19.1291 124.365 19.2041 124.73 19.3541 124.96C19.5041 125.19 19.7891 125.305 20.2091 125.305C20.4891 125.305 20.7341 125.245 20.9441 125.125C21.1641 125.005 21.4041 124.78 21.6641 124.45V119.56H23.8691V127ZM28.2733 127.585V129.76H26.0683V119.56H27.8683L28.0333 120.31H28.0783C28.3783 120.04 28.7233 119.82 29.1133 119.65C29.5033 119.47 29.8983 119.38 30.2983 119.38C30.7583 119.38 31.1733 119.47 31.5433 119.65C31.9133 119.83 32.2283 120.085 32.4883 120.415C32.7483 120.745 32.9433 121.145 33.0733 121.615C33.2133 122.075 33.2833 122.59 33.2833 123.16C33.2833 123.8 33.1933 124.37 33.0133 124.87C32.8333 125.36 32.5933 125.78 32.2933 126.13C31.9933 126.47 31.6483 126.73 31.2583 126.91C30.8783 127.09 30.4783 127.18 30.0583 127.18C29.3783 127.18 28.7583 126.91 28.1983 126.37L28.2733 127.585ZM28.2733 124.885C28.4833 125.065 28.6983 125.195 28.9183 125.275C29.1483 125.345 29.3583 125.38 29.5483 125.38C29.9683 125.38 30.3183 125.21 30.5983 124.87C30.8783 124.52 31.0183 123.96 31.0183 123.19C31.0183 121.85 30.5633 121.18 29.6533 121.18C29.1833 121.18 28.7233 121.41 28.2733 121.87V124.885ZM34.9124 116.485H39.2774V124.18C39.2774 124.41 39.3074 124.605 39.3674 124.765C39.4374 124.915 39.5274 125.04 39.6374 125.14C39.7574 125.23 39.8874 125.295 40.0274 125.335C40.1774 125.375 40.3274 125.395 40.4774 125.395C40.6474 125.395 40.8274 125.38 41.0174 125.35C41.2074 125.31 41.4174 125.245 41.6474 125.155L42.1424 126.775C41.9424 126.835 41.7574 126.89 41.5874 126.94C41.4174 126.99 41.2474 127.03 41.0774 127.06C40.9074 127.1 40.7274 127.13 40.5374 127.15C40.3474 127.17 40.1374 127.18 39.9074 127.18C38.9674 127.18 38.2574 126.905 37.7774 126.355C37.3074 125.795 37.0724 125.04 37.0724 124.09V118.225H34.9124V116.485ZM43.8016 123.28C43.8016 122.67 43.9066 122.125 44.1166 121.645C44.3366 121.165 44.6266 120.76 44.9866 120.43C45.3466 120.09 45.7566 119.83 46.2166 119.65C46.6866 119.47 47.1716 119.38 47.6716 119.38C48.2416 119.38 48.7466 119.47 49.1866 119.65C49.6266 119.83 49.9916 120.08 50.2816 120.4C50.5716 120.72 50.7916 121.1 50.9416 121.54C51.0916 121.97 51.1666 122.44 51.1666 122.95C51.1666 123.15 51.1566 123.34 51.1366 123.52C51.1166 123.7 51.0966 123.835 51.0766 123.925H46.0666C46.1466 124.485 46.3866 124.89 46.7866 125.14C47.1966 125.38 47.6766 125.5 48.2266 125.5C48.5666 125.5 48.8866 125.46 49.1866 125.38C49.4966 125.29 49.8166 125.16 50.1466 124.99L50.8666 126.31C50.4466 126.58 49.9766 126.795 49.4566 126.955C48.9366 127.105 48.4266 127.18 47.9266 127.18C47.3466 127.18 46.8066 127.095 46.3066 126.925C45.8066 126.745 45.3716 126.49 45.0016 126.16C44.6316 125.82 44.3366 125.41 44.1166 124.93C43.9066 124.45 43.8016 123.9 43.8016 123.28ZM49.1716 122.47C49.1716 122.05 49.0566 121.71 48.8266 121.45C48.5966 121.19 48.2266 121.06 47.7166 121.06C47.3166 121.06 46.9616 121.175 46.6516 121.405C46.3416 121.635 46.1366 121.99 46.0366 122.47H49.1716Z" fill="white"/>
<rect x="79" width="262" height="31" fill="#333333"/>
<rect x="79" width="262" height="31" fill="#333333"/>
<rect width="79" height="31" fill="#090808"/>
<path d="M12.105 17.8101C12.105 17.5513 11.9756 17.3486 11.7168 17.2021C11.4629 17.0508 11.0527 16.9165 10.4863 16.7993C8.60156 16.4038 7.65918 15.603 7.65918 14.397C7.65918 13.6938 7.94971 13.1079 8.53076 12.6392C9.1167 12.1655 9.88086 11.9287 10.8232 11.9287C11.8291 11.9287 12.6323 12.1655 13.2329 12.6392C13.8384 13.1128 14.1411 13.728 14.1411 14.4849H12.0244C12.0244 14.1821 11.9268 13.9331 11.7314 13.7378C11.5361 13.5376 11.231 13.4375 10.8159 13.4375C10.4595 13.4375 10.1836 13.5181 9.98828 13.6792C9.79297 13.8403 9.69531 14.0454 9.69531 14.2944C9.69531 14.5288 9.80518 14.7192 10.0249 14.8657C10.2495 15.0073 10.6255 15.1318 11.1528 15.2393C11.6802 15.3418 12.1245 15.459 12.4858 15.5908C13.604 16.001 14.1631 16.7114 14.1631 17.7222C14.1631 18.4448 13.853 19.0308 13.2329 19.48C12.6128 19.9243 11.812 20.1465 10.8306 20.1465C10.1665 20.1465 9.57568 20.0293 9.05811 19.7949C8.54541 19.5557 8.14258 19.231 7.84961 18.8208C7.55664 18.4058 7.41016 17.959 7.41016 17.4805H9.41699C9.43652 17.8564 9.57568 18.1445 9.83447 18.3447C10.0933 18.5449 10.4399 18.645 10.8745 18.645C11.2798 18.645 11.585 18.5693 11.79 18.418C12 18.2617 12.105 18.0591 12.105 17.8101ZM18.8286 18.4399C19.2192 18.4399 19.5366 18.3325 19.7808 18.1177C20.0249 17.9028 20.1519 17.6172 20.1616 17.2607H22.1465C22.1416 17.7979 21.9951 18.291 21.707 18.7402C21.4189 19.1846 21.0234 19.5312 20.5205 19.7803C20.0225 20.0244 19.4707 20.1465 18.8652 20.1465C17.7324 20.1465 16.8389 19.7876 16.1846 19.0698C15.5303 18.3472 15.2031 17.3511 15.2031 16.0815V15.9424C15.2031 14.7217 15.5278 13.7476 16.1772 13.02C16.8267 12.2925 17.7178 11.9287 18.8506 11.9287C19.8418 11.9287 20.6353 12.2119 21.231 12.7783C21.8315 13.3398 22.1367 14.0894 22.1465 15.0269H20.1616C20.1519 14.6167 20.0249 14.2847 19.7808 14.0308C19.5366 13.772 19.2144 13.6426 18.814 13.6426C18.3208 13.6426 17.9473 13.8232 17.6934 14.1846C17.4443 14.541 17.3198 15.1221 17.3198 15.9277V16.1475C17.3198 16.9629 17.4443 17.5488 17.6934 17.9053C17.9424 18.2617 18.3208 18.4399 18.8286 18.4399ZM27.8081 14.0601C27.52 14.021 27.2661 14.0015 27.0464 14.0015C26.2456 14.0015 25.7207 14.2725 25.4717 14.8145V20H23.355V12.0752H25.3545L25.4131 13.02C25.8379 12.2925 26.4263 11.9287 27.1782 11.9287C27.4126 11.9287 27.6323 11.9604 27.8374 12.0239L27.8081 14.0601ZM31.0674 20H28.9434V12.0752H31.0674V20ZM28.8188 10.0244C28.8188 9.70703 28.9238 9.4458 29.1338 9.24072C29.3486 9.03564 29.6392 8.93311 30.0054 8.93311C30.3667 8.93311 30.6548 9.03564 30.8696 9.24072C31.0845 9.4458 31.1919 9.70703 31.1919 10.0244C31.1919 10.3467 31.082 10.6104 30.8623 10.8154C30.6475 11.0205 30.3618 11.123 30.0054 11.123C29.6489 11.123 29.3608 11.0205 29.1411 10.8154C28.9263 10.6104 28.8188 10.3467 28.8188 10.0244ZM39.9517 16.1108C39.9517 17.3315 39.6733 18.3105 39.1167 19.0479C38.5649 19.7803 37.8179 20.1465 36.8755 20.1465C36.0747 20.1465 35.4277 19.8682 34.9346 19.3115V23.0469H32.8179V12.0752H34.7808L34.854 12.8516C35.3667 12.2363 36.0356 11.9287 36.8608 11.9287C37.8374 11.9287 38.5967 12.29 39.1387 13.0127C39.6807 13.7354 39.9517 14.7314 39.9517 16.001V16.1108ZM37.835 15.957C37.835 15.2197 37.7031 14.6509 37.4395 14.2505C37.1807 13.8501 36.8022 13.6499 36.3042 13.6499C35.6401 13.6499 35.1836 13.9038 34.9346 14.4116V17.6562C35.1934 18.1787 35.6548 18.4399 36.3188 18.4399C37.3296 18.4399 37.835 17.6123 37.835 15.957ZM43.8042 10.127V12.0752H45.1592V13.6279H43.8042V17.583C43.8042 17.876 43.8604 18.0859 43.9727 18.2129C44.085 18.3398 44.2998 18.4033 44.6172 18.4033C44.8516 18.4033 45.0591 18.3862 45.2397 18.3521V19.9561C44.8247 20.083 44.3975 20.1465 43.958 20.1465C42.4736 20.1465 41.7168 19.397 41.6875 17.8979V13.6279H40.5303V12.0752H41.6875V10.127H43.8042ZM46.4482 18.96C46.4482 18.623 46.5605 18.3496 46.7852 18.1396C47.0146 17.9297 47.3003 17.8247 47.6421 17.8247C47.9888 17.8247 48.2744 17.9297 48.499 18.1396C48.7285 18.3496 48.8433 18.623 48.8433 18.96C48.8433 19.292 48.731 19.563 48.5063 19.7729C48.2817 19.978 47.9937 20.0806 47.6421 20.0806C47.2954 20.0806 47.0098 19.978 46.7852 19.7729C46.5605 19.563 46.4482 19.292 46.4482 18.96ZM57.8374 16.1108C57.8374 17.3315 57.5591 18.3105 57.0024 19.0479C56.4507 19.7803 55.7036 20.1465 54.7612 20.1465C53.9604 20.1465 53.3135 19.8682 52.8203 19.3115V23.0469H50.7036V12.0752H52.6665L52.7397 12.8516C53.2524 12.2363 53.9214 11.9287 54.7466 11.9287C55.7231 11.9287 56.4824 12.29 57.0244 13.0127C57.5664 13.7354 57.8374 14.7314 57.8374 16.001V16.1108ZM55.7207 15.957C55.7207 15.2197 55.5889 14.6509 55.3252 14.2505C55.0664 13.8501 54.688 13.6499 54.1899 13.6499C53.5259 13.6499 53.0693 13.9038 52.8203 14.4116V17.6562C53.0791 18.1787 53.5405 18.4399 54.2046 18.4399C55.2153 18.4399 55.7207 17.6123 55.7207 15.957ZM62.0269 17.0044L63.4917 12.0752H65.7622L62.5762 21.2305L62.4004 21.6479C61.9268 22.6831 61.1455 23.2007 60.0566 23.2007C59.749 23.2007 59.4365 23.1543 59.1191 23.0615V21.4575L59.4414 21.4648C59.8418 21.4648 60.1396 21.4038 60.335 21.2817C60.5352 21.1597 60.6914 20.957 60.8037 20.6738L61.0527 20.022L58.2769 12.0752H60.5547L62.0269 17.0044Z" fill="white"/>
<path d="M8.785 48.66C9.215 48.93 9.645 49.145 10.075 49.305C10.515 49.465 10.985 49.545 11.485 49.545C11.995 49.545 12.36 49.49 12.58 49.38C12.8 49.27 12.91 49.115 12.91 48.915C12.91 48.685 12.725 48.5 12.355 48.36C11.995 48.21 11.515 48.05 10.915 47.88C10.585 47.79 10.26 47.685 9.94 47.565C9.63 47.435 9.35 47.285 9.1 47.115C8.85 46.935 8.645 46.73 8.485 46.5C8.335 46.27 8.26 46.005 8.26 45.705C8.26 45.365 8.34 45.05 8.5 44.76C8.66 44.47 8.885 44.225 9.175 44.025C9.475 43.825 9.835 43.67 10.255 43.56C10.685 43.44 11.165 43.38 11.695 43.38C12.355 43.38 12.955 43.49 13.495 43.71C14.045 43.92 14.515 44.15 14.905 44.4L13.915 45.72C13.575 45.52 13.225 45.355 12.865 45.225C12.505 45.085 12.13 45.015 11.74 45.015C11.27 45.015 10.935 45.065 10.735 45.165C10.545 45.265 10.45 45.41 10.45 45.6C10.45 45.71 10.5 45.81 10.6 45.9C10.7 45.99 10.835 46.07 11.005 46.14C11.175 46.21 11.375 46.28 11.605 46.35C11.845 46.41 12.095 46.475 12.355 46.545C12.725 46.645 13.075 46.76 13.405 46.89C13.735 47.01 14.025 47.155 14.275 47.325C14.525 47.495 14.725 47.7 14.875 47.94C15.025 48.18 15.1 48.46 15.1 48.78C15.1 49.12 15.02 49.435 14.86 49.725C14.7 50.015 14.465 50.27 14.155 50.49C13.855 50.7 13.475 50.87 13.015 51C12.565 51.12 12.04 51.18 11.44 51.18C10.77 51.18 10.115 51.07 9.475 50.85C8.835 50.63 8.275 50.36 7.795 50.04L8.785 48.66ZM23.8691 51H22.0691L21.9041 49.935H21.8441C21.5141 50.315 21.1491 50.62 20.7491 50.85C20.3491 51.07 19.8791 51.18 19.3391 51.18C18.4891 51.18 17.8741 50.91 17.4941 50.37C17.1141 49.83 16.9241 49.09 16.9241 48.15V43.56H19.1291V47.865C19.1291 48.365 19.2041 48.73 19.3541 48.96C19.5041 49.19 19.7891 49.305 20.2091 49.305C20.4891 49.305 20.7341 49.245 20.9441 49.125C21.1641 49.005 21.4041 48.78 21.6641 48.45V43.56H23.8691V51ZM25.5283 43.56H27.1783L27.3433 44.49H27.4033C27.5433 44.18 27.7333 43.92 27.9733 43.71C28.2233 43.49 28.5633 43.38 28.9933 43.38C29.3233 43.38 29.5983 43.485 29.8183 43.695C30.0483 43.895 30.2083 44.195 30.2983 44.595C30.4383 44.255 30.6383 43.97 30.8983 43.74C31.1683 43.5 31.5133 43.38 31.9333 43.38C32.4533 43.38 32.8583 43.595 33.1483 44.025C33.4383 44.445 33.5833 45.03 33.5833 45.78V51H31.5133V45.945C31.5133 45.485 31.3733 45.255 31.0933 45.255C30.8233 45.255 30.5933 45.495 30.4033 45.975V51H28.7083V45.945C28.7083 45.485 28.5633 45.255 28.2733 45.255C28.1333 45.255 28.0133 45.315 27.9133 45.435C27.8133 45.555 27.7083 45.735 27.5983 45.975V51H25.5283V43.56ZM42.0824 51.81V53.46H34.8824V51.81H42.0824ZM43.6816 47.28C43.6816 46.67 43.7716 46.125 43.9516 45.645C44.1316 45.165 44.3666 44.76 44.6566 44.43C44.9566 44.09 45.2966 43.83 45.6766 43.65C46.0566 43.47 46.4516 43.38 46.8616 43.38C47.2916 43.38 47.6516 43.455 47.9416 43.605C48.2316 43.745 48.5066 43.935 48.7666 44.175L48.6916 43.02V40.485H50.8966V51H49.0966L48.9316 50.235H48.8866C48.6066 50.505 48.2866 50.73 47.9266 50.91C47.5666 51.09 47.1966 51.18 46.8166 51.18C46.3466 51.18 45.9166 51.09 45.5266 50.91C45.1466 50.73 44.8166 50.475 44.5366 50.145C44.2666 49.805 44.0566 49.395 43.9066 48.915C43.7566 48.435 43.6816 47.89 43.6816 47.28ZM45.9466 47.25C45.9466 47.99 46.0716 48.53 46.3216 48.87C46.5716 49.21 46.9266 49.38 47.3866 49.38C47.6366 49.38 47.8666 49.33 48.0766 49.23C48.2866 49.12 48.4916 48.94 48.6916 48.69V45.675C48.4916 45.495 48.2866 45.37 48.0766 45.3C47.8766 45.22 47.6666 45.18 47.4466 45.18C47.0366 45.18 46.6816 45.35 46.3816 45.69C46.0916 46.03 45.9466 46.55 45.9466 47.25ZM53.1557 43.56H58.3457V51H56.1407V45.285H53.1557V43.56ZM57.1457 42.465C56.7157 42.465 56.3607 42.345 56.0807 42.105C55.8107 41.865 55.6757 41.54 55.6757 41.13C55.6757 40.72 55.8107 40.39 56.0807 40.14C56.3607 39.88 56.7157 39.75 57.1457 39.75C57.5757 39.75 57.9257 39.88 58.1957 40.14C58.4757 40.39 58.6157 40.72 58.6157 41.13C58.6157 41.54 58.4757 41.865 58.1957 42.105C57.9257 42.345 57.5757 42.465 57.1457 42.465ZM69.3198 42.33C68.8298 42.14 68.3098 42.045 67.7598 42.045C67.2798 42.045 66.9248 42.15 66.6948 42.36C66.4748 42.57 66.3648 42.9 66.3648 43.35V43.56H68.9298V45.285H66.3648V51H64.1598V45.285H62.1948V43.65L64.1598 43.56V43.365C64.1598 42.935 64.2248 42.535 64.3548 42.165C64.4848 41.795 64.6848 41.475 64.9548 41.205C65.2248 40.925 65.5698 40.705 65.9898 40.545C66.4098 40.385 66.9098 40.305 67.4898 40.305C67.9198 40.305 68.3198 40.345 68.6898 40.425C69.0698 40.505 69.4198 40.6 69.7398 40.71L69.3198 42.33ZM78.314 42.33C77.824 42.14 77.304 42.045 76.754 42.045C76.274 42.045 75.919 42.15 75.689 42.36C75.469 42.57 75.359 42.9 75.359 43.35V43.56H77.924V45.285H75.359V51H73.154V45.285H71.189V43.65L73.154 43.56V43.365C73.154 42.935 73.219 42.535 73.349 42.165C73.479 41.795 73.679 41.475 73.949 41.205C74.219 40.925 74.564 40.705 74.984 40.545C75.404 40.385 75.904 40.305 76.484 40.305C76.914 40.305 77.314 40.345 77.684 40.425C78.064 40.505 78.414 40.6 78.734 40.71L78.314 42.33ZM88.9973 43.53H95.8973V45.09H88.9973V43.53ZM88.9973 46.995H95.8973V48.555H88.9973V46.995ZM107.721 48.66C108.151 48.93 108.581 49.145 109.011 49.305C109.451 49.465 109.921 49.545 110.421 49.545C110.931 49.545 111.296 49.49 111.516 49.38C111.736 49.27 111.846 49.115 111.846 48.915C111.846 48.685 111.661 48.5 111.291 48.36C110.931 48.21 110.451 48.05 109.851 47.88C109.521 47.79 109.196 47.685 108.876 47.565C108.566 47.435 108.286 47.285 108.036 47.115C107.786 46.935 107.581 46.73 107.421 46.5C107.271 46.27 107.196 46.005 107.196 45.705C107.196 45.365 107.276 45.05 107.436 44.76C107.596 44.47 107.821 44.225 108.111 44.025C108.411 43.825 108.771 43.67 109.191 43.56C109.621 43.44 110.101 43.38 110.631 43.38C111.291 43.38 111.891 43.49 112.431 43.71C112.981 43.92 113.451 44.15 113.841 44.4L112.851 45.72C112.511 45.52 112.161 45.355 111.801 45.225C111.441 45.085 111.066 45.015 110.676 45.015C110.206 45.015 109.871 45.065 109.671 45.165C109.481 45.265 109.386 45.41 109.386 45.6C109.386 45.71 109.436 45.81 109.536 45.9C109.636 45.99 109.771 46.07 109.941 46.14C110.111 46.21 110.311 46.28 110.541 46.35C110.781 46.41 111.031 46.475 111.291 46.545C111.661 46.645 112.011 46.76 112.341 46.89C112.671 47.01 112.961 47.155 113.211 47.325C113.461 47.495 113.661 47.7 113.811 47.94C113.961 48.18 114.036 48.46 114.036 48.78C114.036 49.12 113.956 49.435 113.796 49.725C113.636 50.015 113.401 50.27 113.091 50.49C112.791 50.7 112.411 50.87 111.951 51C111.501 51.12 110.976 51.18 110.376 51.18C109.706 51.18 109.051 51.07 108.411 50.85C107.771 50.63 107.211 50.36 106.731 50.04L107.721 48.66ZM122.805 51H121.005L120.84 49.935H120.78C120.45 50.315 120.085 50.62 119.685 50.85C119.285 51.07 118.815 51.18 118.275 51.18C117.425 51.18 116.81 50.91 116.43 50.37C116.05 49.83 115.86 49.09 115.86 48.15V43.56H118.065V47.865C118.065 48.365 118.14 48.73 118.29 48.96C118.44 49.19 118.725 49.305 119.145 49.305C119.425 49.305 119.67 49.245 119.88 49.125C120.1 49.005 120.34 48.78 120.6 48.45V43.56H122.805V51ZM124.464 43.56H126.114L126.279 44.49H126.339C126.479 44.18 126.669 43.92 126.909 43.71C127.159 43.49 127.499 43.38 127.929 43.38C128.259 43.38 128.534 43.485 128.754 43.695C128.984 43.895 129.144 44.195 129.234 44.595C129.374 44.255 129.574 43.97 129.834 43.74C130.104 43.5 130.449 43.38 130.869 43.38C131.389 43.38 131.794 43.595 132.084 44.025C132.374 44.445 132.519 45.03 132.519 45.78V51H130.449V45.945C130.449 45.485 130.309 45.255 130.029 45.255C129.759 45.255 129.529 45.495 129.339 45.975V51H127.644V45.945C127.644 45.485 127.499 45.255 127.209 45.255C127.069 45.255 126.949 45.315 126.849 45.435C126.749 45.555 126.644 45.735 126.534 45.975V51H124.464V43.56ZM141.018 51.81V53.46H133.818V51.81H141.018ZM142.827 48.93C142.827 48.51 142.917 48.145 143.097 47.835C143.277 47.515 143.562 47.245 143.952 47.025C144.352 46.805 144.862 46.63 145.482 46.5C146.102 46.36 146.852 46.265 147.732 46.215C147.692 45.875 147.542 45.61 147.282 45.42C147.032 45.23 146.652 45.135 146.142 45.135C145.782 45.135 145.417 45.2 145.047 45.33C144.687 45.45 144.297 45.615 143.877 45.825L143.097 44.385C143.607 44.095 144.152 43.855 144.732 43.665C145.322 43.475 145.937 43.38 146.577 43.38C147.617 43.38 148.437 43.655 149.037 44.205C149.637 44.755 149.937 45.6 149.937 46.74V51H148.137L147.972 50.16H147.912C147.532 50.45 147.117 50.695 146.667 50.895C146.217 51.085 145.752 51.18 145.272 51.18C144.892 51.18 144.552 51.12 144.252 51C143.952 50.89 143.697 50.735 143.487 50.535C143.277 50.325 143.112 50.085 142.992 49.815C142.882 49.545 142.827 49.25 142.827 48.93ZM144.942 48.765C144.942 49.005 145.032 49.185 145.212 49.305C145.402 49.415 145.657 49.47 145.977 49.47C146.307 49.47 146.617 49.405 146.907 49.275C147.197 49.135 147.472 48.965 147.732 48.765V47.535C147.182 47.565 146.727 47.615 146.367 47.685C146.007 47.755 145.722 47.845 145.512 47.955C145.302 48.055 145.152 48.175 145.062 48.315C144.982 48.455 144.942 48.605 144.942 48.765ZM151.986 43.56H153.786L153.951 44.55H154.011C154.331 44.23 154.696 43.955 155.106 43.725C155.526 43.495 156.016 43.38 156.576 43.38C157.416 43.38 158.031 43.65 158.421 44.19C158.811 44.73 159.006 45.47 159.006 46.41V51H156.801V46.695C156.801 46.195 156.721 45.83 156.561 45.6C156.401 45.37 156.116 45.255 155.706 45.255C155.406 45.255 155.141 45.32 154.911 45.45C154.691 45.58 154.451 45.775 154.191 46.035V51H151.986V43.56ZM160.605 47.28C160.605 46.67 160.695 46.125 160.875 45.645C161.055 45.165 161.29 44.76 161.58 44.43C161.88 44.09 162.22 43.83 162.6 43.65C162.98 43.47 163.375 43.38 163.785 43.38C164.215 43.38 164.575 43.455 164.865 43.605C165.155 43.745 165.43 43.935 165.69 44.175L165.615 43.02V40.485H167.82V51H166.02L165.855 50.235H165.81C165.53 50.505 165.21 50.73 164.85 50.91C164.49 51.09 164.12 51.18 163.74 51.18C163.27 51.18 162.84 51.09 162.45 50.91C162.07 50.73 161.74 50.475 161.46 50.145C161.19 49.805 160.98 49.395 160.83 48.915C160.68 48.435 160.605 47.89 160.605 47.28ZM162.87 47.25C162.87 47.99 162.995 48.53 163.245 48.87C163.495 49.21 163.85 49.38 164.31 49.38C164.56 49.38 164.79 49.33 165 49.23C165.21 49.12 165.415 48.94 165.615 48.69V45.675C165.415 45.495 165.21 45.37 165 45.3C164.8 45.22 164.59 45.18 164.37 45.18C163.96 45.18 163.605 45.35 163.305 45.69C163.015 46.03 162.87 46.55 162.87 47.25ZM176.995 51.81V53.46H169.795V51.81H176.995ZM178.594 47.28C178.594 46.67 178.684 46.125 178.864 45.645C179.044 45.165 179.279 44.76 179.569 44.43C179.869 44.09 180.209 43.83 180.589 43.65C180.969 43.47 181.364 43.38 181.774 43.38C182.204 43.38 182.564 43.455 182.854 43.605C183.144 43.745 183.419 43.935 183.679 44.175L183.604 43.02V40.485H185.809V51H184.009L183.844 50.235H183.799C183.519 50.505 183.199 50.73 182.839 50.91C182.479 51.09 182.109 51.18 181.729 51.18C181.259 51.18 180.829 51.09 180.439 50.91C180.059 50.73 179.729 50.475 179.449 50.145C179.179 49.805 178.969 49.395 178.819 48.915C178.669 48.435 178.594 47.89 178.594 47.28ZM180.859 47.25C180.859 47.99 180.984 48.53 181.234 48.87C181.484 49.21 181.839 49.38 182.299 49.38C182.549 49.38 182.779 49.33 182.989 49.23C183.199 49.12 183.404 48.94 183.604 48.69V45.675C183.404 45.495 183.199 45.37 182.989 45.3C182.789 45.22 182.579 45.18 182.359 45.18C181.949 45.18 181.594 45.35 181.294 45.69C181.004 46.03 180.859 46.55 180.859 47.25ZM188.068 43.56H193.258V51H191.053V45.285H188.068V43.56ZM192.058 42.465C191.628 42.465 191.273 42.345 190.993 42.105C190.723 41.865 190.588 41.54 190.588 41.13C190.588 40.72 190.723 40.39 190.993 40.14C191.273 39.88 191.628 39.75 192.058 39.75C192.488 39.75 192.838 39.88 193.108 40.14C193.388 40.39 193.528 40.72 193.528 41.13C193.528 41.54 193.388 41.865 193.108 42.105C192.838 42.345 192.488 42.465 192.058 42.465ZM204.232 42.33C203.742 42.14 203.222 42.045 202.672 42.045C202.192 42.045 201.837 42.15 201.607 42.36C201.387 42.57 201.277 42.9 201.277 43.35V43.56H203.842V45.285H201.277V51H199.072V45.285H197.107V43.65L199.072 43.56V43.365C199.072 42.935 199.137 42.535 199.267 42.165C199.397 41.795 199.597 41.475 199.867 41.205C200.137 40.925 200.482 40.705 200.902 40.545C201.322 40.385 201.822 40.305 202.402 40.305C202.832 40.305 203.232 40.345 203.602 40.425C203.982 40.505 204.332 40.6 204.652 40.71L204.232 42.33ZM213.226 42.33C212.736 42.14 212.216 42.045 211.666 42.045C211.186 42.045 210.831 42.15 210.601 42.36C210.381 42.57 210.271 42.9 210.271 43.35V43.56H212.836V45.285H210.271V51H208.066V45.285H206.101V43.65L208.066 43.56V43.365C208.066 42.935 208.131 42.535 208.261 42.165C208.391 41.795 208.591 41.475 208.861 41.205C209.131 40.925 209.476 40.705 209.896 40.545C210.316 40.385 210.816 40.305 211.396 40.305C211.826 40.305 212.226 40.345 212.596 40.425C212.976 40.505 213.326 40.6 213.646 40.71L213.226 42.33ZM214.69 47.28C214.69 46.67 214.795 46.125 215.005 45.645C215.225 45.165 215.515 44.76 215.875 44.43C216.235 44.09 216.645 43.83 217.105 43.65C217.575 43.47 218.06 43.38 218.56 43.38C219.13 43.38 219.635 43.47 220.075 43.65C220.515 43.83 220.88 44.08 221.17 44.4C221.46 44.72 221.68 45.1 221.83 45.54C221.98 45.97 222.055 46.44 222.055 46.95C222.055 47.15 222.045 47.34 222.025 47.52C222.005 47.7 221.985 47.835 221.965 47.925H216.955C217.035 48.485 217.275 48.89 217.675 49.14C218.085 49.38 218.565 49.5 219.115 49.5C219.455 49.5 219.775 49.46 220.075 49.38C220.385 49.29 220.705 49.16 221.035 48.99L221.755 50.31C221.335 50.58 220.865 50.795 220.345 50.955C219.825 51.105 219.315 51.18 218.815 51.18C218.235 51.18 217.695 51.095 217.195 50.925C216.695 50.745 216.26 50.49 215.89 50.16C215.52 49.82 215.225 49.41 215.005 48.93C214.795 48.45 214.69 47.9 214.69 47.28ZM220.06 46.47C220.06 46.05 219.945 45.71 219.715 45.45C219.485 45.19 219.115 45.06 218.605 45.06C218.205 45.06 217.85 45.175 217.54 45.405C217.23 45.635 217.025 45.99 216.925 46.47H220.06ZM224.599 43.56H226.399L226.579 45.18H226.624C226.994 44.57 227.439 44.12 227.959 43.83C228.479 43.53 229.039 43.38 229.639 43.38C229.969 43.38 230.234 43.405 230.434 43.455C230.644 43.505 230.859 43.58 231.079 43.68L230.629 45.525C230.399 45.455 230.189 45.405 229.999 45.375C229.819 45.335 229.589 45.315 229.309 45.315C228.849 45.315 228.394 45.45 227.944 45.72C227.504 45.99 227.124 46.46 226.804 47.13V51H224.599V43.56ZM232.679 47.28C232.679 46.67 232.784 46.125 232.994 45.645C233.214 45.165 233.504 44.76 233.864 44.43C234.224 44.09 234.634 43.83 235.094 43.65C235.564 43.47 236.049 43.38 236.549 43.38C237.119 43.38 237.624 43.47 238.064 43.65C238.504 43.83 238.869 44.08 239.159 44.4C239.449 44.72 239.669 45.1 239.819 45.54C239.969 45.97 240.044 46.44 240.044 46.95C240.044 47.15 240.034 47.34 240.014 47.52C239.994 47.7 239.974 47.835 239.954 47.925H234.944C235.024 48.485 235.264 48.89 235.664 49.14C236.074 49.38 236.554 49.5 237.104 49.5C237.444 49.5 237.764 49.46 238.064 49.38C238.374 49.29 238.694 49.16 239.024 48.99L239.744 50.31C239.324 50.58 238.854 50.795 238.334 50.955C237.814 51.105 237.304 51.18 236.804 51.18C236.224 51.18 235.684 51.095 235.184 50.925C234.684 50.745 234.249 50.49 233.879 50.16C233.509 49.82 233.214 49.41 232.994 48.93C232.784 48.45 232.679 47.9 232.679 47.28ZM238.049 46.47C238.049 46.05 237.934 45.71 237.704 45.45C237.474 45.19 237.104 45.06 236.594 45.06C236.194 45.06 235.839 45.175 235.529 45.405C235.219 45.635 235.014 45.99 234.914 46.47H238.049ZM241.928 43.56H243.728L243.893 44.55H243.953C244.273 44.23 244.638 43.955 245.048 43.725C245.468 43.495 245.958 43.38 246.518 43.38C247.358 43.38 247.973 43.65 248.363 44.19C248.753 44.73 248.948 45.47 248.948 46.41V51H246.743V46.695C246.743 46.195 246.663 45.83 246.503 45.6C246.343 45.37 246.058 45.255 245.648 45.255C245.348 45.255 245.083 45.32 244.853 45.45C244.633 45.58 244.393 45.775 244.133 46.035V51H241.928V43.56ZM250.847 47.28C250.847 46.66 250.962 46.11 251.192 45.63C251.432 45.14 251.747 44.73 252.137 44.4C252.537 44.07 252.997 43.82 253.517 43.65C254.037 43.47 254.582 43.38 255.152 43.38C255.742 43.38 256.272 43.475 256.742 43.665C257.222 43.855 257.622 44.095 257.942 44.385L256.922 45.75C256.372 45.36 255.822 45.165 255.272 45.165C254.632 45.165 254.112 45.355 253.712 45.735C253.312 46.115 253.112 46.63 253.112 47.28C253.112 47.93 253.302 48.445 253.682 48.825C254.072 49.205 254.577 49.395 255.197 49.395C255.587 49.395 255.947 49.325 256.277 49.185C256.607 49.045 256.902 48.88 257.162 48.69L258.062 50.085C257.612 50.465 257.112 50.745 256.562 50.925C256.022 51.095 255.497 51.18 254.987 51.18C254.397 51.18 253.852 51.095 253.352 50.925C252.852 50.745 252.412 50.49 252.032 50.16C251.662 49.83 251.372 49.425 251.162 48.945C250.952 48.455 250.847 47.9 250.847 47.28ZM259.661 47.28C259.661 46.67 259.766 46.125 259.976 45.645C260.196 45.165 260.486 44.76 260.846 44.43C261.206 44.09 261.616 43.83 262.076 43.65C262.546 43.47 263.031 43.38 263.531 43.38C264.101 43.38 264.606 43.47 265.046 43.65C265.486 43.83 265.851 44.08 266.141 44.4C266.431 44.72 266.651 45.1 266.801 45.54C266.951 45.97 267.026 46.44 267.026 46.95C267.026 47.15 267.016 47.34 266.996 47.52C266.976 47.7 266.956 47.835 266.936 47.925H261.926C262.006 48.485 262.246 48.89 262.646 49.14C263.056 49.38 263.536 49.5 264.086 49.5C264.426 49.5 264.746 49.46 265.046 49.38C265.356 49.29 265.676 49.16 266.006 48.99L266.726 50.31C266.306 50.58 265.836 50.795 265.316 50.955C264.796 51.105 264.286 51.18 263.786 51.18C263.206 51.18 262.666 51.095 262.166 50.925C261.666 50.745 261.231 50.49 260.861 50.16C260.491 49.82 260.196 49.41 259.976 48.93C259.766 48.45 259.661 47.9 259.661 47.28ZM265.031 46.47C265.031 46.05 264.916 45.71 264.686 45.45C264.456 45.19 264.086 45.06 263.576 45.06C263.176 45.06 262.821 45.175 262.511 45.405C262.201 45.635 261.996 45.99 261.896 46.47H265.031ZM273.71 53.685C272.73 52.815 271.955 51.81 271.385 50.67C270.825 49.53 270.545 48.25 270.545 46.83C270.545 45.41 270.825 44.13 271.385 42.99C271.955 41.85 272.73 40.845 273.71 39.975L274.94 40.95C274.05 41.82 273.4 42.725 272.99 43.665C272.59 44.595 272.39 45.65 272.39 46.83C272.39 47.42 272.44 47.98 272.54 48.51C272.64 49.03 272.79 49.53 272.99 50.01C273.2 50.49 273.465 50.95 273.785 51.39C274.105 51.84 274.49 52.28 274.94 52.71L273.71 53.685ZM297.543 52.965C298.843 52.515 299.493 51.805 299.493 50.835C299.453 50.845 299.398 50.85 299.328 50.85C299.118 50.85 298.913 50.82 298.713 50.76C298.523 50.69 298.353 50.59 298.203 50.46C298.053 50.33 297.933 50.17 297.843 49.98C297.753 49.79 297.708 49.57 297.708 49.32C297.708 48.85 297.868 48.475 298.188 48.195C298.518 47.915 298.918 47.775 299.388 47.775C300.008 47.775 300.473 48.005 300.783 48.465C301.093 48.915 301.248 49.545 301.248 50.355C301.248 51.315 300.983 52.125 300.453 52.785C299.923 53.445 299.138 53.935 298.098 54.255L297.543 52.965ZM323.685 52.71C324.135 52.28 324.52 51.84 324.84 51.39C325.16 50.95 325.42 50.49 325.62 50.01C325.83 49.53 325.985 49.03 326.085 48.51C326.185 47.98 326.235 47.42 326.235 46.83C326.235 45.65 326.03 44.595 325.62 43.665C325.22 42.725 324.575 41.82 323.685 40.95L324.915 39.975C325.895 40.845 326.665 41.85 327.225 42.99C327.795 44.13 328.08 45.41 328.08 46.83C328.08 48.25 327.795 49.53 327.225 50.67C326.665 51.81 325.895 52.815 324.915 53.685L323.685 52.71ZM48.8566 72.685C47.8766 71.815 47.1016 70.81 46.5316 69.67C45.9716 68.53 45.6916 67.25 45.6916 65.83C45.6916 64.41 45.9716 63.13 46.5316 61.99C47.1016 60.85 47.8766 59.845 48.8566 58.975L50.0866 59.95C49.1966 60.82 48.5466 61.725 48.1366 62.665C47.7366 63.595 47.5366 64.65 47.5366 65.83C47.5366 66.42 47.5866 66.98 47.6866 67.51C47.7866 68.03 47.9366 68.53 48.1366 69.01C48.3466 69.49 48.6116 69.95 48.9316 70.39C49.2516 70.84 49.6366 71.28 50.0866 71.71L48.8566 72.685ZM53.7557 67.66C54.1857 67.93 54.6157 68.145 55.0457 68.305C55.4857 68.465 55.9557 68.545 56.4557 68.545C56.9657 68.545 57.3307 68.49 57.5507 68.38C57.7707 68.27 57.8807 68.115 57.8807 67.915C57.8807 67.685 57.6957 67.5 57.3257 67.36C56.9657 67.21 56.4857 67.05 55.8857 66.88C55.5557 66.79 55.2307 66.685 54.9107 66.565C54.6007 66.435 54.3207 66.285 54.0707 66.115C53.8207 65.935 53.6157 65.73 53.4557 65.5C53.3057 65.27 53.2307 65.005 53.2307 64.705C53.2307 64.365 53.3107 64.05 53.4707 63.76C53.6307 63.47 53.8557 63.225 54.1457 63.025C54.4457 62.825 54.8057 62.67 55.2257 62.56C55.6557 62.44 56.1357 62.38 56.6657 62.38C57.3257 62.38 57.9257 62.49 58.4657 62.71C59.0157 62.92 59.4857 63.15 59.8757 63.4L58.8857 64.72C58.5457 64.52 58.1957 64.355 57.8357 64.225C57.4757 64.085 57.1007 64.015 56.7107 64.015C56.2407 64.015 55.9057 64.065 55.7057 64.165C55.5157 64.265 55.4207 64.41 55.4207 64.6C55.4207 64.71 55.4707 64.81 55.5707 64.9C55.6707 64.99 55.8057 65.07 55.9757 65.14C56.1457 65.21 56.3457 65.28 56.5757 65.35C56.8157 65.41 57.0657 65.475 57.3257 65.545C57.6957 65.645 58.0457 65.76 58.3757 65.89C58.7057 66.01 58.9957 66.155 59.2457 66.325C59.4957 66.495 59.6957 66.7 59.8457 66.94C59.9957 67.18 60.0707 67.46 60.0707 67.78C60.0707 68.12 59.9907 68.435 59.8307 68.725C59.6707 69.015 59.4357 69.27 59.1257 69.49C58.8257 69.7 58.4457 69.87 57.9857 70C57.5357 70.12 57.0107 70.18 56.4107 70.18C55.7407 70.18 55.0857 70.07 54.4457 69.85C53.8057 69.63 53.2457 69.36 52.7657 69.04L53.7557 67.66ZM68.8398 70H67.0398L66.8748 68.935H66.8148C66.4848 69.315 66.1198 69.62 65.7198 69.85C65.3198 70.07 64.8498 70.18 64.3098 70.18C63.4598 70.18 62.8448 69.91 62.4648 69.37C62.0848 68.83 61.8948 68.09 61.8948 67.15V62.56H64.0998V66.865C64.0998 67.365 64.1748 67.73 64.3248 67.96C64.4748 68.19 64.7598 68.305 65.1798 68.305C65.4598 68.305 65.7048 68.245 65.9148 68.125C66.1348 68.005 66.3748 67.78 66.6348 67.45V62.56H68.8398V70ZM70.499 62.56H72.149L72.314 63.49H72.374C72.514 63.18 72.704 62.92 72.944 62.71C73.194 62.49 73.534 62.38 73.964 62.38C74.294 62.38 74.569 62.485 74.789 62.695C75.019 62.895 75.179 63.195 75.269 63.595C75.409 63.255 75.609 62.97 75.869 62.74C76.139 62.5 76.484 62.38 76.904 62.38C77.424 62.38 77.829 62.595 78.119 63.025C78.409 63.445 78.554 64.03 78.554 64.78V70H76.484V64.945C76.484 64.485 76.344 64.255 76.064 64.255C75.794 64.255 75.564 64.495 75.374 64.975V70H73.679V64.945C73.679 64.485 73.534 64.255 73.244 64.255C73.104 64.255 72.984 64.315 72.884 64.435C72.784 64.555 72.679 64.735 72.569 64.975V70H70.499V62.56ZM87.0531 70.81V72.46H79.8531V70.81H87.0531ZM88.6523 66.28C88.6523 65.67 88.7423 65.125 88.9223 64.645C89.1023 64.165 89.3373 63.76 89.6273 63.43C89.9273 63.09 90.2673 62.83 90.6473 62.65C91.0273 62.47 91.4223 62.38 91.8323 62.38C92.2623 62.38 92.6223 62.455 92.9123 62.605C93.2023 62.745 93.4773 62.935 93.7373 63.175L93.6623 62.02V59.485H95.8673V70H94.0673L93.9023 69.235H93.8573C93.5773 69.505 93.2573 69.73 92.8973 69.91C92.5373 70.09 92.1673 70.18 91.7873 70.18C91.3173 70.18 90.8873 70.09 90.4973 69.91C90.1173 69.73 89.7873 69.475 89.5073 69.145C89.2373 68.805 89.0273 68.395 88.8773 67.915C88.7273 67.435 88.6523 66.89 88.6523 66.28ZM90.9173 66.25C90.9173 66.99 91.0423 67.53 91.2923 67.87C91.5423 68.21 91.8973 68.38 92.3573 68.38C92.6073 68.38 92.8373 68.33 93.0473 68.23C93.2573 68.12 93.4623 67.94 93.6623 67.69V64.675C93.4623 64.495 93.2573 64.37 93.0473 64.3C92.8473 64.22 92.6373 64.18 92.4173 64.18C92.0073 64.18 91.6523 64.35 91.3523 64.69C91.0623 65.03 90.9173 65.55 90.9173 66.25ZM98.1264 62.56H103.316V70H101.111V64.285H98.1264V62.56ZM102.116 61.465C101.686 61.465 101.331 61.345 101.051 61.105C100.781 60.865 100.646 60.54 100.646 60.13C100.646 59.72 100.781 59.39 101.051 59.14C101.331 58.88 101.686 58.75 102.116 58.75C102.546 58.75 102.896 58.88 103.166 59.14C103.446 59.39 103.586 59.72 103.586 60.13C103.586 60.54 103.446 60.865 103.166 61.105C102.896 61.345 102.546 61.465 102.116 61.465ZM114.291 61.33C113.801 61.14 113.281 61.045 112.731 61.045C112.251 61.045 111.896 61.15 111.666 61.36C111.446 61.57 111.336 61.9 111.336 62.35V62.56H113.901V64.285H111.336V70H109.131V64.285H107.166V62.65L109.131 62.56V62.365C109.131 61.935 109.196 61.535 109.326 61.165C109.456 60.795 109.656 60.475 109.926 60.205C110.196 59.925 110.541 59.705 110.961 59.545C111.381 59.385 111.881 59.305 112.461 59.305C112.891 59.305 113.291 59.345 113.661 59.425C114.041 59.505 114.391 59.6 114.711 59.71L114.291 61.33ZM123.285 61.33C122.795 61.14 122.275 61.045 121.725 61.045C121.245 61.045 120.89 61.15 120.66 61.36C120.44 61.57 120.33 61.9 120.33 62.35V62.56H122.895V64.285H120.33V70H118.125V64.285H116.16V62.65L118.125 62.56V62.365C118.125 61.935 118.19 61.535 118.32 61.165C118.45 60.795 118.65 60.475 118.92 60.205C119.19 59.925 119.535 59.705 119.955 59.545C120.375 59.385 120.875 59.305 121.455 59.305C121.885 59.305 122.285 59.345 122.655 59.425C123.035 59.505 123.385 59.6 123.705 59.71L123.285 61.33ZM125.814 71.71C126.264 71.28 126.649 70.84 126.969 70.39C127.289 69.95 127.549 69.49 127.749 69.01C127.959 68.53 128.114 68.03 128.214 67.51C128.314 66.98 128.364 66.42 128.364 65.83C128.364 64.65 128.159 63.595 127.749 62.665C127.349 61.725 126.704 60.82 125.814 59.95L127.044 58.975C128.024 59.845 128.794 60.85 129.354 61.99C129.924 63.13 130.209 64.41 130.209 65.83C130.209 67.25 129.924 68.53 129.354 69.67C128.794 70.81 128.024 71.815 127.044 72.685L125.814 71.71Z" fill="white"/>
<path d="M284.879 49.215V51H278.054V49.215H280.514V43.71H278.549V42.345C279.109 42.245 279.584 42.125 279.974 41.985C280.374 41.845 280.749 41.675 281.099 41.475H282.719V49.215H284.879ZM287.498 48.45C287.818 48.71 288.158 48.935 288.518 49.125C288.888 49.305 289.298 49.395 289.748 49.395C290.288 49.395 290.728 49.27 291.068 49.02C291.418 48.77 291.593 48.4 291.593 47.91C291.593 47.43 291.428 47.065 291.098 46.815C290.778 46.565 290.363 46.44 289.853 46.44C289.693 46.44 289.548 46.45 289.418 46.47C289.298 46.48 289.178 46.505 289.058 46.545C288.938 46.585 288.813 46.635 288.683 46.695C288.553 46.755 288.408 46.83 288.248 46.92L287.273 46.29L287.528 41.475H293.363V43.335H289.433L289.268 45.12C289.488 45.04 289.693 44.985 289.883 44.955C290.073 44.915 290.288 44.895 290.528 44.895C290.968 44.895 291.383 44.955 291.773 45.075C292.173 45.195 292.523 45.375 292.823 45.615C293.123 45.855 293.358 46.16 293.528 46.53C293.708 46.9 293.798 47.34 293.798 47.85C293.798 48.38 293.693 48.85 293.483 49.26C293.283 49.67 293.008 50.02 292.658 50.31C292.318 50.59 291.923 50.805 291.473 50.955C291.023 51.105 290.553 51.18 290.063 51.18C289.233 51.18 288.528 51.055 287.948 50.805C287.378 50.545 286.898 50.225 286.508 49.845L287.498 48.45ZM314.481 48.45C314.801 48.71 315.141 48.935 315.501 49.125C315.871 49.305 316.281 49.395 316.731 49.395C317.271 49.395 317.711 49.27 318.051 49.02C318.401 48.77 318.576 48.4 318.576 47.91C318.576 47.43 318.411 47.065 318.081 46.815C317.761 46.565 317.346 46.44 316.836 46.44C316.676 46.44 316.531 46.45 316.401 46.47C316.281 46.48 316.161 46.505 316.041 46.545C315.921 46.585 315.796 46.635 315.666 46.695C315.536 46.755 315.391 46.83 315.231 46.92L314.256 46.29L314.511 41.475H320.346V43.335H316.416L316.251 45.12C316.471 45.04 316.676 44.985 316.866 44.955C317.056 44.915 317.271 44.895 317.511 44.895C317.951 44.895 318.366 44.955 318.756 45.075C319.156 45.195 319.506 45.375 319.806 45.615C320.106 45.855 320.341 46.16 320.511 46.53C320.691 46.9 320.781 47.34 320.781 47.85C320.781 48.38 320.676 48.85 320.466 49.26C320.266 49.67 319.991 50.02 319.641 50.31C319.301 50.59 318.906 50.805 318.456 50.955C318.006 51.105 317.536 51.18 317.046 51.18C316.216 51.18 315.511 51.055 314.931 50.805C314.361 50.545 313.881 50.225 313.491 49.845L314.481 48.45Z" fill="#F0E442"/>
<path d="M9.61 64.285H7.735V62.65L9.715 62.56L10 60.58H11.815V62.56H14.965V64.285H11.815V66.895C11.815 67.465 11.94 67.87 12.19 68.11C12.44 68.34 12.835 68.455 13.375 68.455C13.665 68.455 13.93 68.43 14.17 68.38C14.41 68.33 14.64 68.265 14.86 68.185L15.25 69.775C14.92 69.875 14.55 69.965 14.14 70.045C13.74 70.135 13.3 70.18 12.82 70.18C12.23 70.18 11.73 70.1 11.32 69.94C10.91 69.78 10.575 69.56 10.315 69.28C10.065 68.99 9.885 68.645 9.775 68.245C9.665 67.845 9.61 67.4 9.61 66.91V64.285ZM17.3891 71.08C17.5791 71.14 17.7741 71.17 17.9741 71.17C18.4041 71.17 18.7391 71.08 18.9791 70.9C19.2291 70.72 19.4141 70.485 19.5341 70.195L19.6841 69.805L16.4591 62.56H18.6491L19.8941 65.755C20.0341 66.105 20.1641 66.47 20.2841 66.85C20.4041 67.22 20.5241 67.6 20.6441 67.99H20.7041C20.8041 67.62 20.9141 67.25 21.0341 66.88C21.1541 66.5 21.2691 66.125 21.3791 65.755L22.4741 62.56H24.5591L21.6191 70.075C21.4391 70.545 21.2441 70.955 21.0341 71.305C20.8241 71.665 20.5841 71.96 20.3141 72.19C20.0441 72.43 19.7291 72.61 19.3691 72.73C19.0191 72.85 18.6091 72.91 18.1391 72.91C17.9191 72.91 17.7141 72.895 17.5241 72.865C17.3341 72.845 17.1591 72.81 16.9991 72.76L17.3891 71.08ZM28.2733 70.585V72.76H26.0683V62.56H27.8683L28.0333 63.31H28.0783C28.3783 63.04 28.7233 62.82 29.1133 62.65C29.5033 62.47 29.8983 62.38 30.2983 62.38C30.7583 62.38 31.1733 62.47 31.5433 62.65C31.9133 62.83 32.2283 63.085 32.4883 63.415C32.7483 63.745 32.9433 64.145 33.0733 64.615C33.2133 65.075 33.2833 65.59 33.2833 66.16C33.2833 66.8 33.1933 67.37 33.0133 67.87C32.8333 68.36 32.5933 68.78 32.2933 69.13C31.9933 69.47 31.6483 69.73 31.2583 69.91C30.8783 70.09 30.4783 70.18 30.0583 70.18C29.3783 70.18 28.7583 69.91 28.1983 69.37L28.2733 70.585ZM28.2733 67.885C28.4833 68.065 28.6983 68.195 28.9183 68.275C29.1483 68.345 29.3583 68.38 29.5483 68.38C29.9683 68.38 30.3183 68.21 30.5983 67.87C30.8783 67.52 31.0183 66.96 31.0183 66.19C31.0183 64.85 30.5633 64.18 29.6533 64.18C29.1833 64.18 28.7233 64.41 28.2733 64.87V67.885ZM34.8074 66.28C34.8074 65.67 34.9124 65.125 35.1224 64.645C35.3424 64.165 35.6324 63.76 35.9924 63.43C36.3524 63.09 36.7624 62.83 37.2224 62.65C37.6924 62.47 38.1774 62.38 38.6774 62.38C39.2474 62.38 39.7524 62.47 40.1924 62.65C40.6324 62.83 40.9974 63.08 41.2874 63.4C41.5774 63.72 41.7974 64.1 41.9474 64.54C42.0974 64.97 42.1724 65.44 42.1724 65.95C42.1724 66.15 42.1624 66.34 42.1424 66.52C42.1224 66.7 42.1024 66.835 42.0824 66.925H37.0724C37.1524 67.485 37.3924 67.89 37.7924 68.14C38.2024 68.38 38.6824 68.5 39.2324 68.5C39.5724 68.5 39.8924 68.46 40.1924 68.38C40.5024 68.29 40.8224 68.16 41.1524 67.99L41.8724 69.31C41.4524 69.58 40.9824 69.795 40.4624 69.955C39.9424 70.105 39.4324 70.18 38.9324 70.18C38.3524 70.18 37.8124 70.095 37.3124 69.925C36.8124 69.745 36.3774 69.49 36.0074 69.16C35.6374 68.82 35.3424 68.41 35.1224 67.93C34.9124 67.45 34.8074 66.9 34.8074 66.28ZM40.1774 65.47C40.1774 65.05 40.0624 64.71 39.8324 64.45C39.6024 64.19 39.2324 64.06 38.7224 64.06C38.3224 64.06 37.9674 64.175 37.6574 64.405C37.3474 64.635 37.1424 64.99 37.0424 65.47H40.1774Z" fill="#56B4E9"/>
</svg>
