<svg width="610" height="176" viewBox="0 0 610 176" fill="none" xmlns="http://www.w3.org/2000/svg">
<rect width="610" height="176" fill="black"/>
<rect x="79" width="531" height="31" fill="#333333"/>
<rect x="79" width="531" height="31" fill="#333333"/>
<rect width="79" height="31" fill="#090808"/>
<path d="M12.105 17.8101C12.105 17.5513 11.9756 17.3486 11.7168 17.2021C11.4629 17.0508 11.0527 16.9165 10.4863 16.7993C8.60156 16.4038 7.65918 15.603 7.65918 14.397C7.65918 13.6938 7.94971 13.1079 8.53076 12.6392C9.1167 12.1655 9.88086 11.9287 10.8232 11.9287C11.8291 11.9287 12.6323 12.1655 13.2329 12.6392C13.8384 13.1128 14.1411 13.728 14.1411 14.4849H12.0244C12.0244 14.1821 11.9268 13.9331 11.7314 13.7378C11.5361 13.5376 11.231 13.4375 10.8159 13.4375C10.4595 13.4375 10.1836 13.5181 9.98828 13.6792C9.79297 13.8403 9.69531 14.0454 9.69531 14.2944C9.69531 14.5288 9.80518 14.7192 10.0249 14.8657C10.2495 15.0073 10.6255 15.1318 11.1528 15.2393C11.6802 15.3418 12.1245 15.459 12.4858 15.5908C13.604 16.001 14.1631 16.7114 14.1631 17.7222C14.1631 18.4448 13.853 19.0308 13.2329 19.48C12.6128 19.9243 11.812 20.1465 10.8306 20.1465C10.1665 20.1465 9.57568 20.0293 9.05811 19.7949C8.54541 19.5557 8.14258 19.231 7.84961 18.8208C7.55664 18.4058 7.41016 17.959 7.41016 17.4805H9.41699C9.43652 17.8564 9.57568 18.1445 9.83447 18.3447C10.0933 18.5449 10.4399 18.645 10.8745 18.645C11.2798 18.645 11.585 18.5693 11.79 18.418C12 18.2617 12.105 18.0591 12.105 17.8101ZM18.8286 18.4399C19.2192 18.4399 19.5366 18.3325 19.7808 18.1177C20.0249 17.9028 20.1519 17.6172 20.1616 17.2607H22.1465C22.1416 17.7979 21.9951 18.291 21.707 18.7402C21.4189 19.1846 21.0234 19.5312 20.5205 19.7803C20.0225 20.0244 19.4707 20.1465 18.8652 20.1465C17.7324 20.1465 16.8389 19.7876 16.1846 19.0698C15.5303 18.3472 15.2031 17.3511 15.2031 16.0815V15.9424C15.2031 14.7217 15.5278 13.7476 16.1772 13.02C16.8267 12.2925 17.7178 11.9287 18.8506 11.9287C19.8418 11.9287 20.6353 12.2119 21.231 12.7783C21.8315 13.3398 22.1367 14.0894 22.1465 15.0269H20.1616C20.1519 14.6167 20.0249 14.2847 19.7808 14.0308C19.5366 13.772 19.2144 13.6426 18.814 13.6426C18.3208 13.6426 17.9473 13.8232 17.6934 14.1846C17.4443 14.541 17.3198 15.1221 17.3198 15.9277V16.1475C17.3198 16.9629 17.4443 17.5488 17.6934 17.9053C17.9424 18.2617 18.3208 18.4399 18.8286 18.4399ZM27.8081 14.0601C27.52 14.021 27.2661 14.0015 27.0464 14.0015C26.2456 14.0015 25.7207 14.2725 25.4717 14.8145V20H23.355V12.0752H25.3545L25.4131 13.02C25.8379 12.2925 26.4263 11.9287 27.1782 11.9287C27.4126 11.9287 27.6323 11.9604 27.8374 12.0239L27.8081 14.0601ZM31.0674 20H28.9434V12.0752H31.0674V20ZM28.8188 10.0244C28.8188 9.70703 28.9238 9.4458 29.1338 9.24072C29.3486 9.03564 29.6392 8.93311 30.0054 8.93311C30.3667 8.93311 30.6548 9.03564 30.8696 9.24072C31.0845 9.4458 31.1919 9.70703 31.1919 10.0244C31.1919 10.3467 31.082 10.6104 30.8623 10.8154C30.6475 11.0205 30.3618 11.123 30.0054 11.123C29.6489 11.123 29.3608 11.0205 29.1411 10.8154C28.9263 10.6104 28.8188 10.3467 28.8188 10.0244ZM39.9517 16.1108C39.9517 17.3315 39.6733 18.3105 39.1167 19.0479C38.5649 19.7803 37.8179 20.1465 36.8755 20.1465C36.0747 20.1465 35.4277 19.8682 34.9346 19.3115V23.0469H32.8179V12.0752H34.7808L34.854 12.8516C35.3667 12.2363 36.0356 11.9287 36.8608 11.9287C37.8374 11.9287 38.5967 12.29 39.1387 13.0127C39.6807 13.7354 39.9517 14.7314 39.9517 16.001V16.1108ZM37.835 15.957C37.835 15.2197 37.7031 14.6509 37.4395 14.2505C37.1807 13.8501 36.8022 13.6499 36.3042 13.6499C35.6401 13.6499 35.1836 13.9038 34.9346 14.4116V17.6562C35.1934 18.1787 35.6548 18.4399 36.3188 18.4399C37.3296 18.4399 37.835 17.6123 37.835 15.957ZM43.8042 10.127V12.0752H45.1592V13.6279H43.8042V17.583C43.8042 17.876 43.8604 18.0859 43.9727 18.2129C44.085 18.3398 44.2998 18.4033 44.6172 18.4033C44.8516 18.4033 45.0591 18.3862 45.2397 18.3521V19.9561C44.8247 20.083 44.3975 20.1465 43.958 20.1465C42.4736 20.1465 41.7168 19.397 41.6875 17.8979V13.6279H40.5303V12.0752H41.6875V10.127H43.8042ZM46.4482 18.96C46.4482 18.623 46.5605 18.3496 46.7852 18.1396C47.0146 17.9297 47.3003 17.8247 47.6421 17.8247C47.9888 17.8247 48.2744 17.9297 48.499 18.1396C48.7285 18.3496 48.8433 18.623 48.8433 18.96C48.8433 19.292 48.731 19.563 48.5063 19.7729C48.2817 19.978 47.9937 20.0806 47.6421 20.0806C47.2954 20.0806 47.0098 19.978 46.7852 19.7729C46.5605 19.563 46.4482 19.292 46.4482 18.96ZM57.8374 16.1108C57.8374 17.3315 57.5591 18.3105 57.0024 19.0479C56.4507 19.7803 55.7036 20.1465 54.7612 20.1465C53.9604 20.1465 53.3135 19.8682 52.8203 19.3115V23.0469H50.7036V12.0752H52.6665L52.7397 12.8516C53.2524 12.2363 53.9214 11.9287 54.7466 11.9287C55.7231 11.9287 56.4824 12.29 57.0244 13.0127C57.5664 13.7354 57.8374 14.7314 57.8374 16.001V16.1108ZM55.7207 15.957C55.7207 15.2197 55.5889 14.6509 55.3252 14.2505C55.0664 13.8501 54.688 13.6499 54.1899 13.6499C53.5259 13.6499 53.0693 13.9038 52.8203 14.4116V17.6562C53.0791 18.1787 53.5405 18.4399 54.2046 18.4399C55.2153 18.4399 55.7207 17.6123 55.7207 15.957ZM62.0269 17.0044L63.4917 12.0752H65.7622L62.5762 21.2305L62.4004 21.6479C61.9268 22.6831 61.1455 23.2007 60.0566 23.2007C59.749 23.2007 59.4365 23.1543 59.1191 23.0615V21.4575L59.4414 21.4648C59.8418 21.4648 60.1396 21.4038 60.335 21.2817C60.5352 21.1597 60.6914 20.957 60.8037 20.6738L61.0527 20.022L58.2769 12.0752H60.5547L62.0269 17.0044Z" fill="white"/>
<path d="M8.005 47.28C8.005 46.66 8.12 46.11 8.35 45.63C8.59 45.14 8.905 44.73 9.295 44.4C9.695 44.07 10.155 43.82 10.675 43.65C11.195 43.47 11.74 43.38 12.31 43.38C12.9 43.38 13.43 43.475 13.9 43.665C14.38 43.855 14.78 44.095 15.1 44.385L14.08 45.75C13.53 45.36 12.98 45.165 12.43 45.165C11.79 45.165 11.27 45.355 10.87 45.735C10.47 46.115 10.27 46.63 10.27 47.28C10.27 47.93 10.46 48.445 10.84 48.825C11.23 49.205 11.735 49.395 12.355 49.395C12.745 49.395 13.105 49.325 13.435 49.185C13.765 49.045 14.06 48.88 14.32 48.69L15.22 50.085C14.77 50.465 14.27 50.745 13.72 50.925C13.18 51.095 12.655 51.18 12.145 51.18C11.555 51.18 11.01 51.095 10.51 50.925C10.01 50.745 9.57 50.49 9.19 50.16C8.82 49.83 8.53 49.425 8.32 48.945C8.11 48.455 8.005 47.9 8.005 47.28ZM16.6991 47.28C16.6991 46.66 16.8041 46.11 17.0141 45.63C17.2241 45.14 17.5041 44.73 17.8541 44.4C18.2141 44.07 18.6191 43.82 19.0691 43.65C19.5291 43.47 20.0041 43.38 20.4941 43.38C20.9841 43.38 21.4541 43.47 21.9041 43.65C22.3641 43.82 22.7691 44.07 23.1191 44.4C23.4791 44.73 23.7641 45.14 23.9741 45.63C24.1841 46.11 24.2891 46.66 24.2891 47.28C24.2891 47.9 24.1841 48.455 23.9741 48.945C23.7641 49.425 23.4791 49.83 23.1191 50.16C22.7691 50.49 22.3641 50.745 21.9041 50.925C21.4541 51.095 20.9841 51.18 20.4941 51.18C20.0041 51.18 19.5291 51.095 19.0691 50.925C18.6191 50.745 18.2141 50.49 17.8541 50.16C17.5041 49.83 17.2241 49.425 17.0141 48.945C16.8041 48.455 16.6991 47.9 16.6991 47.28ZM18.9641 47.28C18.9641 47.93 19.0891 48.445 19.3391 48.825C19.5991 49.205 19.9841 49.395 20.4941 49.395C21.0041 49.395 21.3841 49.205 21.6341 48.825C21.8941 48.445 22.0241 47.93 22.0241 47.28C22.0241 46.63 21.8941 46.115 21.6341 45.735C21.3841 45.355 21.0041 45.165 20.4941 45.165C19.9841 45.165 19.5991 45.355 19.3391 45.735C19.0891 46.115 18.9641 46.63 18.9641 47.28ZM26.0683 43.56H27.8683L28.0333 44.55H28.0933C28.4133 44.23 28.7783 43.955 29.1883 43.725C29.6083 43.495 30.0983 43.38 30.6583 43.38C31.4983 43.38 32.1133 43.65 32.5033 44.19C32.8933 44.73 33.0883 45.47 33.0883 46.41V51H30.8833V46.695C30.8833 46.195 30.8033 45.83 30.6433 45.6C30.4833 45.37 30.1983 45.255 29.7883 45.255C29.4883 45.255 29.2233 45.32 28.9933 45.45C28.7733 45.58 28.5333 45.775 28.2733 46.035V51H26.0683V43.56ZM36.5924 45.285H34.7174V43.65L36.6974 43.56L36.9824 41.58H38.7974V43.56H41.9474V45.285H38.7974V47.895C38.7974 48.465 38.9224 48.87 39.1724 49.11C39.4224 49.34 39.8174 49.455 40.3574 49.455C40.6474 49.455 40.9124 49.43 41.1524 49.38C41.3924 49.33 41.6224 49.265 41.8424 49.185L42.2324 50.775C41.9024 50.875 41.5324 50.965 41.1224 51.045C40.7224 51.135 40.2824 51.18 39.8024 51.18C39.2124 51.18 38.7124 51.1 38.3024 50.94C37.8924 50.78 37.5574 50.56 37.2974 50.28C37.0474 49.99 36.8674 49.645 36.7574 49.245C36.6474 48.845 36.5924 48.4 36.5924 47.91V45.285ZM43.8016 47.28C43.8016 46.67 43.9066 46.125 44.1166 45.645C44.3366 45.165 44.6266 44.76 44.9866 44.43C45.3466 44.09 45.7566 43.83 46.2166 43.65C46.6866 43.47 47.1716 43.38 47.6716 43.38C48.2416 43.38 48.7466 43.47 49.1866 43.65C49.6266 43.83 49.9916 44.08 50.2816 44.4C50.5716 44.72 50.7916 45.1 50.9416 45.54C51.0916 45.97 51.1666 46.44 51.1666 46.95C51.1666 47.15 51.1566 47.34 51.1366 47.52C51.1166 47.7 51.0966 47.835 51.0766 47.925H46.0666C46.1466 48.485 46.3866 48.89 46.7866 49.14C47.1966 49.38 47.6766 49.5 48.2266 49.5C48.5666 49.5 48.8866 49.46 49.1866 49.38C49.4966 49.29 49.8166 49.16 50.1466 48.99L50.8666 50.31C50.4466 50.58 49.9766 50.795 49.4566 50.955C48.9366 51.105 48.4266 51.18 47.9266 51.18C47.3466 51.18 46.8066 51.095 46.3066 50.925C45.8066 50.745 45.3716 50.49 45.0016 50.16C44.6316 49.82 44.3366 49.41 44.1166 48.93C43.9066 48.45 43.8016 47.9 43.8016 47.28ZM49.1716 46.47C49.1716 46.05 49.0566 45.71 48.8266 45.45C48.5966 45.19 48.2266 45.06 47.7166 45.06C47.3166 45.06 46.9616 45.175 46.6516 45.405C46.3416 45.635 46.1366 45.99 46.0366 46.47H49.1716ZM53.0507 43.56H54.8507L55.0157 44.55H55.0757C55.3957 44.23 55.7607 43.955 56.1707 43.725C56.5907 43.495 57.0807 43.38 57.6407 43.38C58.4807 43.38 59.0957 43.65 59.4857 44.19C59.8757 44.73 60.0707 45.47 60.0707 46.41V51H57.8657V46.695C57.8657 46.195 57.7857 45.83 57.6257 45.6C57.4657 45.37 57.1807 45.255 56.7707 45.255C56.4707 45.255 56.2057 45.32 55.9757 45.45C55.7557 45.58 55.5157 45.775 55.2557 46.035V51H53.0507V43.56ZM63.5748 45.285H61.6998V43.65L63.6798 43.56L63.9648 41.58H65.7798V43.56H68.9298V45.285H65.7798V47.895C65.7798 48.465 65.9048 48.87 66.1548 49.11C66.4048 49.34 66.7998 49.455 67.3398 49.455C67.6298 49.455 67.8948 49.43 68.1348 49.38C68.3748 49.33 68.6048 49.265 68.8248 49.185L69.2148 50.775C68.8848 50.875 68.5148 50.965 68.1048 51.045C67.7048 51.135 67.2648 51.18 66.7848 51.18C66.1948 51.18 65.6948 51.1 65.2848 50.94C64.8748 50.78 64.5398 50.56 64.2798 50.28C64.0298 49.99 63.8498 49.645 63.7398 49.245C63.6298 48.845 63.5748 48.4 63.5748 47.91V45.285ZM78.059 51.81V53.46H70.859V51.81H78.059ZM80.6931 43.56H82.4931L82.6731 45.18H82.7181C83.0881 44.57 83.5331 44.12 84.0531 43.83C84.5731 43.53 85.1331 43.38 85.7331 43.38C86.0631 43.38 86.3281 43.405 86.5281 43.455C86.7381 43.505 86.9531 43.58 87.1731 43.68L86.7231 45.525C86.4931 45.455 86.2831 45.405 86.0931 45.375C85.9131 45.335 85.6831 45.315 85.4031 45.315C84.9431 45.315 84.4881 45.45 84.0381 45.72C83.5981 45.99 83.2181 46.46 82.8981 47.13V51H80.6931V43.56ZM88.8623 48.93C88.8623 48.51 88.9523 48.145 89.1323 47.835C89.3123 47.515 89.5973 47.245 89.9873 47.025C90.3873 46.805 90.8973 46.63 91.5173 46.5C92.1373 46.36 92.8873 46.265 93.7673 46.215C93.7273 45.875 93.5773 45.61 93.3173 45.42C93.0673 45.23 92.6873 45.135 92.1773 45.135C91.8173 45.135 91.4523 45.2 91.0823 45.33C90.7223 45.45 90.3323 45.615 89.9123 45.825L89.1323 44.385C89.6423 44.095 90.1873 43.855 90.7673 43.665C91.3573 43.475 91.9723 43.38 92.6123 43.38C93.6523 43.38 94.4723 43.655 95.0723 44.205C95.6723 44.755 95.9723 45.6 95.9723 46.74V51H94.1723L94.0073 50.16H93.9473C93.5673 50.45 93.1523 50.695 92.7023 50.895C92.2523 51.085 91.7873 51.18 91.3073 51.18C90.9273 51.18 90.5873 51.12 90.2873 51C89.9873 50.89 89.7323 50.735 89.5223 50.535C89.3123 50.325 89.1473 50.085 89.0273 49.815C88.9173 49.545 88.8623 49.25 88.8623 48.93ZM90.9773 48.765C90.9773 49.005 91.0673 49.185 91.2473 49.305C91.4373 49.415 91.6923 49.47 92.0123 49.47C92.3423 49.47 92.6523 49.405 92.9423 49.275C93.2323 49.135 93.5073 48.965 93.7673 48.765V47.535C93.2173 47.565 92.7623 47.615 92.4023 47.685C92.0423 47.755 91.7573 47.845 91.5473 47.955C91.3373 48.055 91.1873 48.175 91.0973 48.315C91.0173 48.455 90.9773 48.605 90.9773 48.765ZM99.5514 45.285H97.6764V43.65L99.6564 43.56L99.9414 41.58H101.756V43.56H104.906V45.285H101.756V47.895C101.756 48.465 101.881 48.87 102.131 49.11C102.381 49.34 102.776 49.455 103.316 49.455C103.606 49.455 103.871 49.43 104.111 49.38C104.351 49.33 104.581 49.265 104.801 49.185L105.191 50.775C104.861 50.875 104.491 50.965 104.081 51.045C103.681 51.135 103.241 51.18 102.761 51.18C102.171 51.18 101.671 51.1 101.261 50.94C100.851 50.78 100.516 50.56 100.256 50.28C100.006 49.99 99.8264 49.645 99.7164 49.245C99.6064 48.845 99.5514 48.4 99.5514 47.91V45.285ZM107.121 43.56H112.311V51H110.106V45.285H107.121V43.56ZM111.111 42.465C110.681 42.465 110.326 42.345 110.046 42.105C109.776 41.865 109.641 41.54 109.641 41.13C109.641 40.72 109.776 40.39 110.046 40.14C110.326 39.88 110.681 39.75 111.111 39.75C111.541 39.75 111.891 39.88 112.161 40.14C112.441 40.39 112.581 40.72 112.581 41.13C112.581 41.54 112.441 41.865 112.161 42.105C111.891 42.345 111.541 42.465 111.111 42.465ZM116.01 43.56H117.81L117.975 44.55H118.035C118.355 44.23 118.72 43.955 119.13 43.725C119.55 43.495 120.04 43.38 120.6 43.38C121.44 43.38 122.055 43.65 122.445 44.19C122.835 44.73 123.03 45.47 123.03 46.41V51H120.825V46.695C120.825 46.195 120.745 45.83 120.585 45.6C120.425 45.37 120.14 45.255 119.73 45.255C119.43 45.255 119.165 45.32 118.935 45.45C118.715 45.58 118.475 45.775 118.215 46.035V51H116.01V43.56ZM126.504 51.93C126.504 52.21 126.669 52.42 126.999 52.56C127.339 52.71 127.804 52.785 128.394 52.785C128.994 52.785 129.479 52.695 129.849 52.515C130.219 52.345 130.404 52.13 130.404 51.87C130.404 51.63 130.294 51.47 130.074 51.39C129.854 51.32 129.529 51.285 129.099 51.285H128.169C127.899 51.285 127.674 51.275 127.494 51.255C127.324 51.245 127.169 51.225 127.029 51.195C126.839 51.315 126.704 51.43 126.624 51.54C126.544 51.66 126.504 51.79 126.504 51.93ZM124.704 52.26C124.704 51.65 125.089 51.155 125.859 50.775V50.715C125.659 50.585 125.484 50.42 125.334 50.22C125.184 50.02 125.109 49.76 125.109 49.44C125.109 49.19 125.189 48.94 125.349 48.69C125.519 48.44 125.734 48.225 125.994 48.045V47.985C125.724 47.805 125.494 47.555 125.304 47.235C125.114 46.905 125.019 46.52 125.019 46.08C125.019 45.63 125.104 45.24 125.274 44.91C125.454 44.57 125.689 44.29 125.979 44.07C126.269 43.84 126.604 43.67 126.984 43.56C127.374 43.44 127.779 43.38 128.199 43.38C128.659 43.38 129.069 43.44 129.429 43.56H132.444V45.165H130.929C131.019 45.275 131.099 45.42 131.169 45.6C131.239 45.77 131.274 45.955 131.274 46.155C131.274 46.585 131.194 46.955 131.034 47.265C130.874 47.575 130.654 47.835 130.374 48.045C130.104 48.245 129.779 48.395 129.399 48.495C129.029 48.595 128.629 48.645 128.199 48.645C127.879 48.645 127.539 48.595 127.179 48.495C127.069 48.575 126.984 48.655 126.924 48.735C126.874 48.815 126.849 48.915 126.849 49.035C126.849 49.235 126.949 49.38 127.149 49.47C127.349 49.56 127.669 49.605 128.109 49.605H129.489C130.469 49.605 131.214 49.75 131.724 50.04C132.244 50.33 132.504 50.81 132.504 51.48C132.504 51.87 132.399 52.23 132.189 52.56C131.979 52.89 131.684 53.17 131.304 53.4C130.924 53.64 130.459 53.825 129.909 53.955C129.359 54.095 128.749 54.165 128.079 54.165C127.599 54.165 127.149 54.125 126.729 54.045C126.319 53.975 125.964 53.86 125.664 53.7C125.364 53.55 125.129 53.355 124.959 53.115C124.789 52.875 124.704 52.59 124.704 52.26ZM128.199 47.31C128.509 47.31 128.774 47.21 128.994 47.01C129.224 46.8 129.339 46.49 129.339 46.08C129.339 45.68 129.224 45.38 128.994 45.18C128.774 44.97 128.509 44.865 128.199 44.865C127.889 44.865 127.624 44.97 127.404 45.18C127.194 45.38 127.089 45.68 127.089 46.08C127.089 46.49 127.194 46.8 127.404 47.01C127.624 47.21 127.889 47.31 128.199 47.31ZM134.703 48.66C135.133 48.93 135.563 49.145 135.993 49.305C136.433 49.465 136.903 49.545 137.403 49.545C137.913 49.545 138.278 49.49 138.498 49.38C138.718 49.27 138.828 49.115 138.828 48.915C138.828 48.685 138.643 48.5 138.273 48.36C137.913 48.21 137.433 48.05 136.833 47.88C136.503 47.79 136.178 47.685 135.858 47.565C135.548 47.435 135.268 47.285 135.018 47.115C134.768 46.935 134.563 46.73 134.403 46.5C134.253 46.27 134.178 46.005 134.178 45.705C134.178 45.365 134.258 45.05 134.418 44.76C134.578 44.47 134.803 44.225 135.093 44.025C135.393 43.825 135.753 43.67 136.173 43.56C136.603 43.44 137.083 43.38 137.613 43.38C138.273 43.38 138.873 43.49 139.413 43.71C139.963 43.92 140.433 44.15 140.823 44.4L139.833 45.72C139.493 45.52 139.143 45.355 138.783 45.225C138.423 45.085 138.048 45.015 137.658 45.015C137.188 45.015 136.853 45.065 136.653 45.165C136.463 45.265 136.368 45.41 136.368 45.6C136.368 45.71 136.418 45.81 136.518 45.9C136.618 45.99 136.753 46.07 136.923 46.14C137.093 46.21 137.293 46.28 137.523 46.35C137.763 46.41 138.013 46.475 138.273 46.545C138.643 46.645 138.993 46.76 139.323 46.89C139.653 47.01 139.943 47.155 140.193 47.325C140.443 47.495 140.643 47.7 140.793 47.94C140.943 48.18 141.018 48.46 141.018 48.78C141.018 49.12 140.938 49.435 140.778 49.725C140.618 50.015 140.383 50.27 140.073 50.49C139.773 50.7 139.393 50.87 138.933 51C138.483 51.12 137.958 51.18 137.358 51.18C136.688 51.18 136.033 51.07 135.393 50.85C134.753 50.63 134.193 50.36 133.713 50.04L134.703 48.66ZM151.956 43.53H158.856V45.09H151.956V43.53ZM151.956 46.995H158.856V48.555H151.956V46.995ZM172.39 51.15C172.39 50.88 172.395 50.64 172.405 50.43C172.425 50.22 172.445 50.02 172.465 49.83C172.485 49.63 172.5 49.435 172.51 49.245C172.53 49.045 172.54 48.825 172.54 48.585C172.54 48.455 172.51 48.325 172.45 48.195C172.39 48.065 172.28 47.95 172.12 47.85C171.96 47.74 171.745 47.655 171.475 47.595C171.215 47.525 170.885 47.485 170.485 47.475V46.185C170.885 46.175 171.215 46.14 171.475 46.08C171.745 46.01 171.96 45.925 172.12 45.825C172.28 45.715 172.39 45.595 172.45 45.465C172.51 45.335 172.54 45.205 172.54 45.075C172.54 44.845 172.53 44.63 172.51 44.43C172.5 44.23 172.485 44.035 172.465 43.845C172.445 43.645 172.425 43.44 172.405 43.23C172.395 43.01 172.39 42.77 172.39 42.51C172.39 41.7 172.615 41.145 173.065 40.845C173.515 40.535 174.22 40.38 175.18 40.38H176.335V41.55H175.72C175.41 41.55 175.155 41.565 174.955 41.595C174.755 41.625 174.6 41.68 174.49 41.76C174.38 41.84 174.3 41.95 174.25 42.09C174.21 42.22 174.19 42.39 174.19 42.6C174.19 43 174.2 43.395 174.22 43.785C174.25 44.175 174.265 44.595 174.265 45.045C174.265 45.615 174.15 46.03 173.92 46.29C173.69 46.54 173.305 46.71 172.765 46.8V46.86C173.305 46.95 173.69 47.125 173.92 47.385C174.15 47.635 174.265 48.045 174.265 48.615C174.265 49.075 174.25 49.495 174.22 49.875C174.2 50.255 174.19 50.65 174.19 51.06C174.19 51.27 174.21 51.44 174.25 51.57C174.3 51.71 174.38 51.82 174.49 51.9C174.6 51.98 174.755 52.035 174.955 52.065C175.155 52.095 175.41 52.11 175.72 52.11H176.335V53.28H175.18C174.22 53.28 173.515 53.125 173.065 52.815C172.615 52.515 172.39 51.96 172.39 51.15ZM216.625 44.58C216.625 44.33 216.665 44.1 216.745 43.89C216.835 43.67 216.955 43.48 217.105 43.32C217.255 43.16 217.435 43.035 217.645 42.945C217.865 42.855 218.105 42.81 218.365 42.81C218.625 42.81 218.86 42.855 219.07 42.945C219.29 43.035 219.475 43.16 219.625 43.32C219.775 43.48 219.89 43.67 219.97 43.89C220.06 44.1 220.105 44.33 220.105 44.58C220.105 45.08 219.945 45.5 219.625 45.84C219.305 46.17 218.885 46.335 218.365 46.335C217.845 46.335 217.425 46.17 217.105 45.84C216.785 45.5 216.625 45.08 216.625 44.58ZM216.625 49.425C216.625 49.175 216.665 48.945 216.745 48.735C216.835 48.515 216.955 48.325 217.105 48.165C217.255 48.005 217.435 47.88 217.645 47.79C217.865 47.7 218.105 47.655 218.365 47.655C218.625 47.655 218.86 47.7 219.07 47.79C219.29 47.88 219.475 48.005 219.625 48.165C219.775 48.325 219.89 48.515 219.97 48.735C220.06 48.945 220.105 49.175 220.105 49.425C220.105 49.925 219.945 50.345 219.625 50.685C219.305 51.015 218.885 51.18 218.365 51.18C217.845 51.18 217.425 51.015 217.105 50.685C216.785 50.345 216.625 49.925 216.625 49.425ZM270.56 52.965C271.86 52.515 272.51 51.805 272.51 50.835C272.47 50.845 272.415 50.85 272.345 50.85C272.135 50.85 271.93 50.82 271.73 50.76C271.54 50.69 271.37 50.59 271.22 50.46C271.07 50.33 270.95 50.17 270.86 49.98C270.77 49.79 270.725 49.57 270.725 49.32C270.725 48.85 270.885 48.475 271.205 48.195C271.535 47.915 271.935 47.775 272.405 47.775C273.025 47.775 273.49 48.005 273.8 48.465C274.11 48.915 274.265 49.545 274.265 50.355C274.265 51.315 274 52.125 273.47 52.785C272.94 53.445 272.155 53.935 271.115 54.255L270.56 52.965ZM324.555 44.58C324.555 44.33 324.595 44.1 324.675 43.89C324.765 43.67 324.885 43.48 325.035 43.32C325.185 43.16 325.365 43.035 325.575 42.945C325.795 42.855 326.035 42.81 326.295 42.81C326.555 42.81 326.79 42.855 327 42.945C327.22 43.035 327.405 43.16 327.555 43.32C327.705 43.48 327.82 43.67 327.9 43.89C327.99 44.1 328.035 44.33 328.035 44.58C328.035 45.08 327.875 45.5 327.555 45.84C327.235 46.17 326.815 46.335 326.295 46.335C325.775 46.335 325.355 46.17 325.035 45.84C324.715 45.5 324.555 45.08 324.555 44.58ZM324.555 49.425C324.555 49.175 324.595 48.945 324.675 48.735C324.765 48.515 324.885 48.325 325.035 48.165C325.185 48.005 325.365 47.88 325.575 47.79C325.795 47.7 326.035 47.655 326.295 47.655C326.555 47.655 326.79 47.7 327 47.79C327.22 47.88 327.405 48.005 327.555 48.165C327.705 48.325 327.82 48.515 327.9 48.735C327.99 48.945 328.035 49.175 328.035 49.425C328.035 49.925 327.875 50.345 327.555 50.685C327.235 51.015 326.815 51.18 326.295 51.18C325.775 51.18 325.355 51.015 325.035 50.685C324.715 50.345 324.555 49.925 324.555 49.425ZM369.496 52.965C370.796 52.515 371.446 51.805 371.446 50.835C371.406 50.845 371.351 50.85 371.281 50.85C371.071 50.85 370.866 50.82 370.666 50.76C370.476 50.69 370.306 50.59 370.156 50.46C370.006 50.33 369.886 50.17 369.796 49.98C369.706 49.79 369.661 49.57 369.661 49.32C369.661 48.85 369.821 48.475 370.141 48.195C370.471 47.915 370.871 47.775 371.341 47.775C371.961 47.775 372.426 48.005 372.736 48.465C373.046 48.915 373.201 49.545 373.201 50.355C373.201 51.315 372.936 52.125 372.406 52.785C371.876 53.445 371.091 53.935 370.051 54.255L369.496 52.965ZM432.485 44.58C432.485 44.33 432.525 44.1 432.605 43.89C432.695 43.67 432.815 43.48 432.965 43.32C433.115 43.16 433.295 43.035 433.505 42.945C433.725 42.855 433.965 42.81 434.225 42.81C434.485 42.81 434.72 42.855 434.93 42.945C435.15 43.035 435.335 43.16 435.485 43.32C435.635 43.48 435.75 43.67 435.83 43.89C435.92 44.1 435.965 44.33 435.965 44.58C435.965 45.08 435.805 45.5 435.485 45.84C435.165 46.17 434.745 46.335 434.225 46.335C433.705 46.335 433.285 46.17 432.965 45.84C432.645 45.5 432.485 45.08 432.485 44.58ZM432.485 49.425C432.485 49.175 432.525 48.945 432.605 48.735C432.695 48.515 432.815 48.325 432.965 48.165C433.115 48.005 433.295 47.88 433.505 47.79C433.725 47.7 433.965 47.655 434.225 47.655C434.485 47.655 434.72 47.7 434.93 47.79C435.15 47.88 435.335 48.005 435.485 48.165C435.635 48.325 435.75 48.515 435.83 48.735C435.92 48.945 435.965 49.175 435.965 49.425C435.965 49.925 435.805 50.345 435.485 50.685C435.165 51.015 434.745 51.18 434.225 51.18C433.705 51.18 433.285 51.015 432.965 50.685C432.645 50.345 432.485 49.925 432.485 49.425ZM486.419 52.965C487.719 52.515 488.369 51.805 488.369 50.835C488.329 50.845 488.274 50.85 488.204 50.85C487.994 50.85 487.789 50.82 487.589 50.76C487.399 50.69 487.229 50.59 487.079 50.46C486.929 50.33 486.809 50.17 486.719 49.98C486.629 49.79 486.584 49.57 486.584 49.32C486.584 48.85 486.744 48.475 487.064 48.195C487.394 47.915 487.794 47.775 488.264 47.775C488.884 47.775 489.349 48.005 489.659 48.465C489.969 48.915 490.124 49.545 490.124 50.355C490.124 51.315 489.859 52.125 489.329 52.785C488.799 53.445 488.014 53.935 486.974 54.255L486.419 52.965ZM549.408 44.58C549.408 44.33 549.448 44.1 549.528 43.89C549.618 43.67 549.738 43.48 549.888 43.32C550.038 43.16 550.218 43.035 550.428 42.945C550.648 42.855 550.888 42.81 551.148 42.81C551.408 42.81 551.643 42.855 551.853 42.945C552.073 43.035 552.258 43.16 552.408 43.32C552.558 43.48 552.673 43.67 552.753 43.89C552.843 44.1 552.888 44.33 552.888 44.58C552.888 45.08 552.728 45.5 552.408 45.84C552.088 46.17 551.668 46.335 551.148 46.335C550.628 46.335 550.208 46.17 549.888 45.84C549.568 45.5 549.408 45.08 549.408 44.58ZM549.408 49.425C549.408 49.175 549.448 48.945 549.528 48.735C549.618 48.515 549.738 48.325 549.888 48.165C550.038 48.005 550.218 47.88 550.428 47.79C550.648 47.7 550.888 47.655 551.148 47.655C551.408 47.655 551.643 47.7 551.853 47.79C552.073 47.88 552.258 48.005 552.408 48.165C552.558 48.325 552.673 48.515 552.753 48.735C552.843 48.945 552.888 49.175 552.888 49.425C552.888 49.925 552.728 50.345 552.408 50.685C552.088 51.015 551.668 51.18 551.148 51.18C550.628 51.18 550.208 51.015 549.888 50.685C549.568 50.345 549.408 49.925 549.408 49.425ZM593.809 52.11C594.119 52.11 594.369 52.095 594.559 52.065C594.759 52.035 594.914 51.98 595.024 51.9C595.134 51.82 595.209 51.71 595.249 51.57C595.299 51.44 595.324 51.27 595.324 51.06C595.324 50.65 595.314 50.255 595.294 49.875C595.274 49.495 595.264 49.075 595.264 48.615C595.264 48.045 595.379 47.635 595.609 47.385C595.839 47.125 596.224 46.95 596.764 46.86V46.8C596.224 46.71 595.839 46.54 595.609 46.29C595.379 46.03 595.264 45.615 595.264 45.045C595.264 44.595 595.274 44.175 595.294 43.785C595.314 43.395 595.324 43 595.324 42.6C595.324 42.39 595.299 42.22 595.249 42.09C595.209 41.95 595.134 41.84 595.024 41.76C594.914 41.68 594.759 41.625 594.559 41.595C594.369 41.565 594.119 41.55 593.809 41.55H593.194V40.38H594.349C595.309 40.38 596.014 40.535 596.464 40.845C596.914 41.145 597.139 41.7 597.139 42.51C597.139 42.77 597.129 43.01 597.109 43.23C597.099 43.44 597.079 43.645 597.049 43.845C597.029 44.035 597.009 44.23 596.989 44.43C596.979 44.63 596.974 44.845 596.974 45.075C596.974 45.205 597.004 45.335 597.064 45.465C597.124 45.595 597.234 45.715 597.394 45.825C597.554 45.925 597.764 46.01 598.024 46.08C598.294 46.14 598.634 46.175 599.044 46.185V47.475C598.634 47.485 598.294 47.525 598.024 47.595C597.764 47.655 597.554 47.74 597.394 47.85C597.234 47.95 597.124 48.065 597.064 48.195C597.004 48.325 596.974 48.455 596.974 48.585C596.974 48.825 596.979 49.045 596.989 49.245C597.009 49.435 597.029 49.63 597.049 49.83C597.079 50.02 597.099 50.22 597.109 50.43C597.129 50.64 597.139 50.88 597.139 51.15C597.139 51.96 596.914 52.515 596.464 52.815C596.014 53.125 595.309 53.28 594.349 53.28H593.194V52.11H593.809ZM88.9523 103.28C88.9523 102.66 89.0673 102.11 89.2973 101.63C89.5373 101.14 89.8523 100.73 90.2423 100.4C90.6423 100.07 91.1023 99.82 91.6223 99.65C92.1423 99.47 92.6873 99.38 93.2573 99.38C93.8473 99.38 94.3773 99.475 94.8473 99.665C95.3273 99.855 95.7273 100.095 96.0473 100.385L95.0273 101.75C94.4773 101.36 93.9273 101.165 93.3773 101.165C92.7373 101.165 92.2173 101.355 91.8173 101.735C91.4173 102.115 91.2173 102.63 91.2173 103.28C91.2173 103.93 91.4073 104.445 91.7873 104.825C92.1773 105.205 92.6823 105.395 93.3023 105.395C93.6923 105.395 94.0523 105.325 94.3823 105.185C94.7123 105.045 95.0073 104.88 95.2673 104.69L96.1673 106.085C95.7173 106.465 95.2173 106.745 94.6673 106.925C94.1273 107.095 93.6023 107.18 93.0923 107.18C92.5023 107.18 91.9573 107.095 91.4573 106.925C90.9573 106.745 90.5173 106.49 90.1373 106.16C89.7673 105.83 89.4773 105.425 89.2673 104.945C89.0573 104.455 88.9523 103.9 88.9523 103.28ZM97.6464 103.28C97.6464 102.66 97.7514 102.11 97.9614 101.63C98.1714 101.14 98.4514 100.73 98.8014 100.4C99.1614 100.07 99.5664 99.82 100.016 99.65C100.476 99.47 100.951 99.38 101.441 99.38C101.931 99.38 102.401 99.47 102.851 99.65C103.311 99.82 103.716 100.07 104.066 100.4C104.426 100.73 104.711 101.14 104.921 101.63C105.131 102.11 105.236 102.66 105.236 103.28C105.236 103.9 105.131 104.455 104.921 104.945C104.711 105.425 104.426 105.83 104.066 106.16C103.716 106.49 103.311 106.745 102.851 106.925C102.401 107.095 101.931 107.18 101.441 107.18C100.951 107.18 100.476 107.095 100.016 106.925C99.5664 106.745 99.1614 106.49 98.8014 106.16C98.4514 105.83 98.1714 105.425 97.9614 104.945C97.7514 104.455 97.6464 103.9 97.6464 103.28ZM99.9114 103.28C99.9114 103.93 100.036 104.445 100.286 104.825C100.546 105.205 100.931 105.395 101.441 105.395C101.951 105.395 102.331 105.205 102.581 104.825C102.841 104.445 102.971 103.93 102.971 103.28C102.971 102.63 102.841 102.115 102.581 101.735C102.331 101.355 101.951 101.165 101.441 101.165C100.931 101.165 100.546 101.355 100.286 101.735C100.036 102.115 99.9114 102.63 99.9114 103.28ZM107.016 99.56H108.816L108.981 100.55H109.041C109.361 100.23 109.726 99.955 110.136 99.725C110.556 99.495 111.046 99.38 111.606 99.38C112.446 99.38 113.061 99.65 113.451 100.19C113.841 100.73 114.036 101.47 114.036 102.41V107H111.831V102.695C111.831 102.195 111.751 101.83 111.591 101.6C111.431 101.37 111.146 101.255 110.736 101.255C110.436 101.255 110.171 101.32 109.941 101.45C109.721 101.58 109.481 101.775 109.221 102.035V107H107.016V99.56ZM117.54 101.285H115.665V99.65L117.645 99.56L117.93 97.58H119.745V99.56H122.895V101.285H119.745V103.895C119.745 104.465 119.87 104.87 120.12 105.11C120.37 105.34 120.765 105.455 121.305 105.455C121.595 105.455 121.86 105.43 122.1 105.38C122.34 105.33 122.57 105.265 122.79 105.185L123.18 106.775C122.85 106.875 122.48 106.965 122.07 107.045C121.67 107.135 121.23 107.18 120.75 107.18C120.16 107.18 119.66 107.1 119.25 106.94C118.84 106.78 118.505 106.56 118.245 106.28C117.995 105.99 117.815 105.645 117.705 105.245C117.595 104.845 117.54 104.4 117.54 103.91V101.285ZM124.749 103.28C124.749 102.67 124.854 102.125 125.064 101.645C125.284 101.165 125.574 100.76 125.934 100.43C126.294 100.09 126.704 99.83 127.164 99.65C127.634 99.47 128.119 99.38 128.619 99.38C129.189 99.38 129.694 99.47 130.134 99.65C130.574 99.83 130.939 100.08 131.229 100.4C131.519 100.72 131.739 101.1 131.889 101.54C132.039 101.97 132.114 102.44 132.114 102.95C132.114 103.15 132.104 103.34 132.084 103.52C132.064 103.7 132.044 103.835 132.024 103.925H127.014C127.094 104.485 127.334 104.89 127.734 105.14C128.144 105.38 128.624 105.5 129.174 105.5C129.514 105.5 129.834 105.46 130.134 105.38C130.444 105.29 130.764 105.16 131.094 104.99L131.814 106.31C131.394 106.58 130.924 106.795 130.404 106.955C129.884 107.105 129.374 107.18 128.874 107.18C128.294 107.18 127.754 107.095 127.254 106.925C126.754 106.745 126.319 106.49 125.949 106.16C125.579 105.82 125.284 105.41 125.064 104.93C124.854 104.45 124.749 103.9 124.749 103.28ZM130.119 102.47C130.119 102.05 130.004 101.71 129.774 101.45C129.544 101.19 129.174 101.06 128.664 101.06C128.264 101.06 127.909 101.175 127.599 101.405C127.289 101.635 127.084 101.99 126.984 102.47H130.119ZM133.998 99.56H135.798L135.963 100.55H136.023C136.343 100.23 136.708 99.955 137.118 99.725C137.538 99.495 138.028 99.38 138.588 99.38C139.428 99.38 140.043 99.65 140.433 100.19C140.823 100.73 141.018 101.47 141.018 102.41V107H138.813V102.695C138.813 102.195 138.733 101.83 138.573 101.6C138.413 101.37 138.128 101.255 137.718 101.255C137.418 101.255 137.153 101.32 136.923 101.45C136.703 101.58 136.463 101.775 136.203 102.035V107H133.998V99.56ZM144.522 101.285H142.647V99.65L144.627 99.56L144.912 97.58H146.727V99.56H149.877V101.285H146.727V103.895C146.727 104.465 146.852 104.87 147.102 105.11C147.352 105.34 147.747 105.455 148.287 105.455C148.577 105.455 148.842 105.43 149.082 105.38C149.322 105.33 149.552 105.265 149.772 105.185L150.162 106.775C149.832 106.875 149.462 106.965 149.052 107.045C148.652 107.135 148.212 107.18 147.732 107.18C147.142 107.18 146.642 107.1 146.232 106.94C145.822 106.78 145.487 106.56 145.227 106.28C144.977 105.99 144.797 105.645 144.687 105.245C144.577 104.845 144.522 104.4 144.522 103.91V101.285ZM159.006 107.81V109.46H151.806V107.81H159.006ZM161.64 99.56H163.44L163.62 101.18H163.665C164.035 100.57 164.48 100.12 165 99.83C165.52 99.53 166.08 99.38 166.68 99.38C167.01 99.38 167.275 99.405 167.475 99.455C167.685 99.505 167.9 99.58 168.12 99.68L167.67 101.525C167.44 101.455 167.23 101.405 167.04 101.375C166.86 101.335 166.63 101.315 166.35 101.315C165.89 101.315 165.435 101.45 164.985 101.72C164.545 101.99 164.165 102.46 163.845 103.13V107H161.64V99.56ZM169.81 104.93C169.81 104.51 169.9 104.145 170.08 103.835C170.26 103.515 170.545 103.245 170.935 103.025C171.335 102.805 171.845 102.63 172.465 102.5C173.085 102.36 173.835 102.265 174.715 102.215C174.675 101.875 174.525 101.61 174.265 101.42C174.015 101.23 173.635 101.135 173.125 101.135C172.765 101.135 172.4 101.2 172.03 101.33C171.67 101.45 171.28 101.615 170.86 101.825L170.08 100.385C170.59 100.095 171.135 99.855 171.715 99.665C172.305 99.475 172.92 99.38 173.56 99.38C174.6 99.38 175.42 99.655 176.02 100.205C176.62 100.755 176.92 101.6 176.92 102.74V107H175.12L174.955 106.16H174.895C174.515 106.45 174.1 106.695 173.65 106.895C173.2 107.085 172.735 107.18 172.255 107.18C171.875 107.18 171.535 107.12 171.235 107C170.935 106.89 170.68 106.735 170.47 106.535C170.26 106.325 170.095 106.085 169.975 105.815C169.865 105.545 169.81 105.25 169.81 104.93ZM171.925 104.765C171.925 105.005 172.015 105.185 172.195 105.305C172.385 105.415 172.64 105.47 172.96 105.47C173.29 105.47 173.6 105.405 173.89 105.275C174.18 105.135 174.455 104.965 174.715 104.765V103.535C174.165 103.565 173.71 103.615 173.35 103.685C172.99 103.755 172.705 103.845 172.495 103.955C172.285 104.055 172.135 104.175 172.045 104.315C171.965 104.455 171.925 104.605 171.925 104.765ZM180.499 101.285H178.624V99.65L180.604 99.56L180.889 97.58H182.704V99.56H185.854V101.285H182.704V103.895C182.704 104.465 182.829 104.87 183.079 105.11C183.329 105.34 183.724 105.455 184.264 105.455C184.554 105.455 184.819 105.43 185.059 105.38C185.299 105.33 185.529 105.265 185.749 105.185L186.139 106.775C185.809 106.875 185.439 106.965 185.029 107.045C184.629 107.135 184.189 107.18 183.709 107.18C183.119 107.18 182.619 107.1 182.209 106.94C181.799 106.78 181.464 106.56 181.204 106.28C180.954 105.99 180.774 105.645 180.664 105.245C180.554 104.845 180.499 104.4 180.499 103.91V101.285ZM188.068 99.56H193.258V107H191.053V101.285H188.068V99.56ZM192.058 98.465C191.628 98.465 191.273 98.345 190.993 98.105C190.723 97.865 190.588 97.54 190.588 97.13C190.588 96.72 190.723 96.39 190.993 96.14C191.273 95.88 191.628 95.75 192.058 95.75C192.488 95.75 192.838 95.88 193.108 96.14C193.388 96.39 193.528 96.72 193.528 97.13C193.528 97.54 193.388 97.865 193.108 98.105C192.838 98.345 192.488 98.465 192.058 98.465ZM196.957 99.56H198.757L198.922 100.55H198.982C199.302 100.23 199.667 99.955 200.077 99.725C200.497 99.495 200.987 99.38 201.547 99.38C202.387 99.38 203.002 99.65 203.392 100.19C203.782 100.73 203.977 101.47 203.977 102.41V107H201.772V102.695C201.772 102.195 201.692 101.83 201.532 101.6C201.372 101.37 201.087 101.255 200.677 101.255C200.377 101.255 200.112 101.32 199.882 101.45C199.662 101.58 199.422 101.775 199.162 102.035V107H196.957V99.56ZM207.451 107.93C207.451 108.21 207.616 108.42 207.946 108.56C208.286 108.71 208.751 108.785 209.341 108.785C209.941 108.785 210.426 108.695 210.796 108.515C211.166 108.345 211.351 108.13 211.351 107.87C211.351 107.63 211.241 107.47 211.021 107.39C210.801 107.32 210.476 107.285 210.046 107.285H209.116C208.846 107.285 208.621 107.275 208.441 107.255C208.271 107.245 208.116 107.225 207.976 107.195C207.786 107.315 207.651 107.43 207.571 107.54C207.491 107.66 207.451 107.79 207.451 107.93ZM205.651 108.26C205.651 107.65 206.036 107.155 206.806 106.775V106.715C206.606 106.585 206.431 106.42 206.281 106.22C206.131 106.02 206.056 105.76 206.056 105.44C206.056 105.19 206.136 104.94 206.296 104.69C206.466 104.44 206.681 104.225 206.941 104.045V103.985C206.671 103.805 206.441 103.555 206.251 103.235C206.061 102.905 205.966 102.52 205.966 102.08C205.966 101.63 206.051 101.24 206.221 100.91C206.401 100.57 206.636 100.29 206.926 100.07C207.216 99.84 207.551 99.67 207.931 99.56C208.321 99.44 208.726 99.38 209.146 99.38C209.606 99.38 210.016 99.44 210.376 99.56H213.391V101.165H211.876C211.966 101.275 212.046 101.42 212.116 101.6C212.186 101.77 212.221 101.955 212.221 102.155C212.221 102.585 212.141 102.955 211.981 103.265C211.821 103.575 211.601 103.835 211.321 104.045C211.051 104.245 210.726 104.395 210.346 104.495C209.976 104.595 209.576 104.645 209.146 104.645C208.826 104.645 208.486 104.595 208.126 104.495C208.016 104.575 207.931 104.655 207.871 104.735C207.821 104.815 207.796 104.915 207.796 105.035C207.796 105.235 207.896 105.38 208.096 105.47C208.296 105.56 208.616 105.605 209.056 105.605H210.436C211.416 105.605 212.161 105.75 212.671 106.04C213.191 106.33 213.451 106.81 213.451 107.48C213.451 107.87 213.346 108.23 213.136 108.56C212.926 108.89 212.631 109.17 212.251 109.4C211.871 109.64 211.406 109.825 210.856 109.955C210.306 110.095 209.696 110.165 209.026 110.165C208.546 110.165 208.096 110.125 207.676 110.045C207.266 109.975 206.911 109.86 206.611 109.7C206.311 109.55 206.076 109.355 205.906 109.115C205.736 108.875 205.651 108.59 205.651 108.26ZM209.146 103.31C209.456 103.31 209.721 103.21 209.941 103.01C210.171 102.8 210.286 102.49 210.286 102.08C210.286 101.68 210.171 101.38 209.941 101.18C209.721 100.97 209.456 100.865 209.146 100.865C208.836 100.865 208.571 100.97 208.351 101.18C208.141 101.38 208.036 101.68 208.036 102.08C208.036 102.49 208.141 102.8 208.351 103.01C208.571 103.21 208.836 103.31 209.146 103.31ZM215.65 104.66C216.08 104.93 216.51 105.145 216.94 105.305C217.38 105.465 217.85 105.545 218.35 105.545C218.86 105.545 219.225 105.49 219.445 105.38C219.665 105.27 219.775 105.115 219.775 104.915C219.775 104.685 219.59 104.5 219.22 104.36C218.86 104.21 218.38 104.05 217.78 103.88C217.45 103.79 217.125 103.685 216.805 103.565C216.495 103.435 216.215 103.285 215.965 103.115C215.715 102.935 215.51 102.73 215.35 102.5C215.2 102.27 215.125 102.005 215.125 101.705C215.125 101.365 215.205 101.05 215.365 100.76C215.525 100.47 215.75 100.225 216.04 100.025C216.34 99.825 216.7 99.67 217.12 99.56C217.55 99.44 218.03 99.38 218.56 99.38C219.22 99.38 219.82 99.49 220.36 99.71C220.91 99.92 221.38 100.15 221.77 100.4L220.78 101.72C220.44 101.52 220.09 101.355 219.73 101.225C219.37 101.085 218.995 101.015 218.605 101.015C218.135 101.015 217.8 101.065 217.6 101.165C217.41 101.265 217.315 101.41 217.315 101.6C217.315 101.71 217.365 101.81 217.465 101.9C217.565 101.99 217.7 102.07 217.87 102.14C218.04 102.21 218.24 102.28 218.47 102.35C218.71 102.41 218.96 102.475 219.22 102.545C219.59 102.645 219.94 102.76 220.27 102.89C220.6 103.01 220.89 103.155 221.14 103.325C221.39 103.495 221.59 103.7 221.74 103.94C221.89 104.18 221.965 104.46 221.965 104.78C221.965 105.12 221.885 105.435 221.725 105.725C221.565 106.015 221.33 106.27 221.02 106.49C220.72 106.7 220.34 106.87 219.88 107C219.43 107.12 218.905 107.18 218.305 107.18C217.635 107.18 216.98 107.07 216.34 106.85C215.7 106.63 215.14 106.36 214.66 106.04L215.65 104.66Z" fill="white"/>
<path d="M181.189 42.9L181.114 40.725H183.664L183.589 42.9L183.064 46.455H181.714L181.189 42.9ZM191.998 47.04V45.435C191.998 45.135 192.003 44.79 192.013 44.4C192.033 44 192.053 43.65 192.073 43.35H192.013C191.853 43.62 191.683 43.89 191.503 44.16C191.323 44.43 191.148 44.7 190.978 44.97L189.538 47.04H191.998ZM195.253 48.72H194.053V51H191.998V48.72H187.408V47.205L191.383 41.475H194.053V47.04H195.253V48.72ZM199.567 46.83H196.927V45.27H199.567V42.51H201.187V45.27H203.827V46.83H201.187V49.59H199.567V46.83ZM208.171 42.9L208.096 40.725H210.646L210.571 42.9L210.046 46.455H208.696L208.171 42.9ZM289.118 42.9L289.043 40.725H291.593L291.518 42.9L290.993 46.455H289.643L289.118 42.9ZM299.043 45.87C299.323 45.87 299.613 45.8 299.913 45.66C300.213 45.52 300.508 45.275 300.798 44.925C300.738 44.555 300.648 44.245 300.528 43.995C300.418 43.735 300.283 43.53 300.123 43.38C299.973 43.22 299.808 43.11 299.628 43.05C299.448 42.98 299.263 42.945 299.073 42.945C298.883 42.945 298.698 42.975 298.518 43.035C298.348 43.095 298.193 43.19 298.053 43.32C297.923 43.44 297.818 43.6 297.738 43.8C297.658 43.99 297.618 44.22 297.618 44.49C297.618 44.98 297.748 45.335 298.008 45.555C298.268 45.765 298.613 45.87 299.043 45.87ZM296.913 48.72C297.113 48.9 297.363 49.06 297.663 49.2C297.963 49.33 298.273 49.395 298.593 49.395C298.883 49.395 299.158 49.345 299.418 49.245C299.688 49.135 299.923 48.965 300.123 48.735C300.333 48.495 300.503 48.185 300.633 47.805C300.763 47.415 300.838 46.94 300.858 46.38C300.508 46.71 300.123 46.97 299.703 47.16C299.293 47.34 298.913 47.43 298.562 47.43C298.143 47.43 297.753 47.37 297.393 47.25C297.033 47.13 296.718 46.95 296.448 46.71C296.188 46.47 295.983 46.165 295.833 45.795C295.683 45.425 295.608 44.99 295.608 44.49C295.608 44 295.698 43.56 295.878 43.17C296.068 42.77 296.318 42.43 296.628 42.15C296.948 41.87 297.313 41.66 297.723 41.52C298.133 41.37 298.568 41.295 299.028 41.295C299.518 41.295 299.993 41.385 300.453 41.565C300.923 41.745 301.338 42.025 301.698 42.405C302.058 42.785 302.343 43.275 302.553 43.875C302.773 44.465 302.883 45.18 302.883 46.02C302.883 46.91 302.768 47.68 302.538 48.33C302.308 48.98 302.003 49.515 301.623 49.935C301.243 50.355 300.803 50.67 300.303 50.88C299.813 51.08 299.308 51.18 298.788 51.18C298.108 51.18 297.513 51.065 297.003 50.835C296.493 50.605 296.073 50.34 295.743 50.04L296.913 48.72ZM307.497 46.83H304.857V45.27H307.497V42.51H309.117V45.27H311.757V46.83H309.117V49.59H307.497V46.83ZM316.101 42.9L316.026 40.725H318.576L318.501 42.9L317.976 46.455H316.626L316.101 42.9ZM388.054 42.9L387.979 40.725H390.529L390.454 42.9L389.929 46.455H388.579L388.054 42.9ZM401.803 49.215V51H394.978V49.215H397.438V43.71H395.473V42.345C396.033 42.245 396.508 42.125 396.898 41.985C397.298 41.845 397.673 41.675 398.023 41.475H399.643V49.215H401.803ZM403.612 49.74C404.292 49.17 404.912 48.64 405.472 48.15C406.032 47.65 406.512 47.185 406.912 46.755C407.312 46.325 407.622 45.92 407.842 45.54C408.062 45.16 408.172 44.8 408.172 44.46C408.172 43.99 408.037 43.635 407.767 43.395C407.497 43.145 407.112 43.02 406.612 43.02C406.232 43.02 405.882 43.12 405.562 43.32C405.252 43.51 404.962 43.735 404.692 43.995L403.507 42.81C403.757 42.56 404.002 42.34 404.242 42.15C404.492 41.96 404.752 41.805 405.022 41.685C405.302 41.555 405.592 41.46 405.892 41.4C406.202 41.33 406.542 41.295 406.912 41.295C407.412 41.295 407.867 41.37 408.277 41.52C408.687 41.66 409.037 41.865 409.327 42.135C409.627 42.395 409.857 42.71 410.017 43.08C410.187 43.45 410.272 43.865 410.272 44.325C410.272 44.725 410.177 45.135 409.987 45.555C409.797 45.965 409.537 46.38 409.207 46.8C408.887 47.21 408.517 47.625 408.097 48.045C407.677 48.455 407.237 48.86 406.777 49.26C407.047 49.23 407.337 49.205 407.647 49.185C407.967 49.155 408.252 49.14 408.502 49.14H410.767V51H403.612V49.74ZM415.426 46.83H412.786V45.27H415.426V42.51H417.046V45.27H419.686V46.83H417.046V49.59H415.426V46.83ZM424.03 42.9L423.955 40.725H426.505L426.43 42.9L425.905 46.455H424.555L424.03 42.9ZM504.978 42.9L504.903 40.725H507.453L507.378 42.9L506.853 46.455H505.503L504.978 42.9ZM518.727 49.215V51H511.902V49.215H514.362V43.71H512.397V42.345C512.957 42.245 513.432 42.125 513.822 41.985C514.222 41.845 514.597 41.675 514.947 41.475H516.567V49.215H518.727ZM522.561 51C522.601 50.21 522.676 49.485 522.786 48.825C522.906 48.155 523.071 47.52 523.281 46.92C523.501 46.31 523.781 45.72 524.121 45.15C524.461 44.57 524.881 43.965 525.381 43.335H520.596V41.475H527.751V42.825C527.151 43.495 526.666 44.125 526.296 44.715C525.926 45.295 525.636 45.9 525.426 46.53C525.216 47.15 525.066 47.82 524.976 48.54C524.886 49.25 524.821 50.07 524.781 51H522.561ZM532.35 46.83H529.71V45.27H532.35V42.51H533.97V45.27H536.61V46.83H533.97V49.59H532.35V46.83ZM540.954 42.9L540.879 40.725H543.429L543.354 42.9L542.829 46.455H541.479L540.954 42.9ZM10.3 98.9L10.225 96.725H12.775L12.7 98.9L12.175 102.455H10.825L10.3 98.9ZM24.0491 105.215V107H17.2241V105.215H19.6841V99.71H17.7191V98.345C18.2791 98.245 18.7541 98.125 19.1441 97.985C19.5441 97.845 19.9191 97.675 20.2691 97.475H21.8891V105.215H24.0491ZM25.8583 105.74C26.5383 105.17 27.1583 104.64 27.7183 104.15C28.2783 103.65 28.7583 103.185 29.1583 102.755C29.5583 102.325 29.8683 101.92 30.0883 101.54C30.3083 101.16 30.4183 100.8 30.4183 100.46C30.4183 99.99 30.2833 99.635 30.0133 99.395C29.7433 99.145 29.3583 99.02 28.8583 99.02C28.4783 99.02 28.1283 99.12 27.8083 99.32C27.4983 99.51 27.2083 99.735 26.9383 99.995L25.7533 98.81C26.0033 98.56 26.2483 98.34 26.4883 98.15C26.7383 97.96 26.9983 97.805 27.2683 97.685C27.5483 97.555 27.8383 97.46 28.1383 97.4C28.4483 97.33 28.7883 97.295 29.1583 97.295C29.6583 97.295 30.1133 97.37 30.5233 97.52C30.9333 97.66 31.2833 97.865 31.5733 98.135C31.8733 98.395 32.1033 98.71 32.2633 99.08C32.4333 99.45 32.5183 99.865 32.5183 100.325C32.5183 100.725 32.4233 101.135 32.2333 101.555C32.0433 101.965 31.7833 102.38 31.4533 102.8C31.1333 103.21 30.7633 103.625 30.3433 104.045C29.9233 104.455 29.4833 104.86 29.0233 105.26C29.2933 105.23 29.5833 105.205 29.8933 105.185C30.2133 105.155 30.4983 105.14 30.7483 105.14H33.0133V107H25.8583V105.74ZM37.6724 102.83H35.0324V101.27H37.6724V98.51H39.2924V101.27H41.9324V102.83H39.2924V105.59H37.6724V102.83ZM46.2766 98.9L46.2016 96.725H48.7516L48.6766 98.9L48.1516 102.455H46.8016L46.2766 98.9Z" fill="#009E73"/>
<path d="M236.969 47.04V45.435C236.969 45.135 236.974 44.79 236.984 44.4C237.004 44 237.024 43.65 237.044 43.35H236.984C236.824 43.62 236.654 43.89 236.474 44.16C236.294 44.43 236.119 44.7 235.949 44.97L234.509 47.04H236.969ZM240.224 48.72H239.024V51H236.969V48.72H232.379V47.205L236.354 41.475H239.024V47.04H240.224V48.72ZM245.963 47.04V45.435C245.963 45.135 245.968 44.79 245.978 44.4C245.998 44 246.018 43.65 246.038 43.35H245.978C245.818 43.62 245.648 43.89 245.468 44.16C245.288 44.43 245.113 44.7 244.943 44.97L243.503 47.04H245.963ZM249.218 48.72H248.018V51H245.963V48.72H241.373V47.205L245.348 41.475H248.018V47.04H249.218V48.72ZM251.492 48.435C251.812 48.715 252.167 48.945 252.557 49.125C252.957 49.305 253.377 49.395 253.817 49.395C254.337 49.395 254.762 49.3 255.092 49.11C255.432 48.91 255.602 48.63 255.602 48.27C255.602 48.06 255.557 47.87 255.467 47.7C255.377 47.53 255.222 47.39 255.002 47.28C254.782 47.16 254.487 47.07 254.117 47.01C253.747 46.94 253.282 46.905 252.722 46.905V45.345C253.662 45.345 254.322 45.23 254.702 45C255.092 44.76 255.287 44.45 255.287 44.07C255.287 43.74 255.162 43.485 254.912 43.305C254.662 43.115 254.317 43.02 253.877 43.02C253.497 43.02 253.147 43.095 252.827 43.245C252.507 43.395 252.182 43.6 251.852 43.86L250.742 42.51C251.212 42.13 251.712 41.835 252.242 41.625C252.782 41.405 253.362 41.295 253.982 41.295C254.502 41.295 254.977 41.355 255.407 41.475C255.837 41.585 256.207 41.755 256.517 41.985C256.827 42.205 257.067 42.475 257.237 42.795C257.407 43.115 257.492 43.485 257.492 43.905C257.492 44.405 257.332 44.83 257.012 45.18C256.692 45.52 256.247 45.8 255.677 46.02V46.08C256.277 46.24 256.782 46.515 257.192 46.905C257.602 47.285 257.807 47.785 257.807 48.405C257.807 48.845 257.702 49.24 257.492 49.59C257.292 49.93 257.017 50.22 256.667 50.46C256.327 50.69 255.927 50.87 255.467 51C255.007 51.12 254.527 51.18 254.027 51.18C253.207 51.18 252.502 51.06 251.912 50.82C251.322 50.57 250.842 50.24 250.472 49.83L251.492 48.435ZM260.486 48.435C260.806 48.715 261.161 48.945 261.551 49.125C261.951 49.305 262.371 49.395 262.811 49.395C263.331 49.395 263.756 49.3 264.086 49.11C264.426 48.91 264.596 48.63 264.596 48.27C264.596 48.06 264.551 47.87 264.461 47.7C264.371 47.53 264.216 47.39 263.996 47.28C263.776 47.16 263.481 47.07 263.111 47.01C262.741 46.94 262.276 46.905 261.716 46.905V45.345C262.656 45.345 263.316 45.23 263.696 45C264.086 44.76 264.281 44.45 264.281 44.07C264.281 43.74 264.156 43.485 263.906 43.305C263.656 43.115 263.311 43.02 262.871 43.02C262.491 43.02 262.141 43.095 261.821 43.245C261.501 43.395 261.176 43.6 260.846 43.86L259.736 42.51C260.206 42.13 260.706 41.835 261.236 41.625C261.776 41.405 262.356 41.295 262.976 41.295C263.496 41.295 263.971 41.355 264.401 41.475C264.831 41.585 265.201 41.755 265.511 41.985C265.821 42.205 266.061 42.475 266.231 42.795C266.401 43.115 266.486 43.485 266.486 43.905C266.486 44.405 266.326 44.83 266.006 45.18C265.686 45.52 265.241 45.8 264.671 46.02V46.08C265.271 46.24 265.776 46.515 266.186 46.905C266.596 47.285 266.801 47.785 266.801 48.405C266.801 48.845 266.696 49.24 266.486 49.59C266.286 49.93 266.011 50.22 265.661 50.46C265.321 50.69 264.921 50.87 264.461 51C264.001 51.12 263.521 51.18 263.021 51.18C262.201 51.18 261.496 51.06 260.906 50.82C260.316 50.57 259.836 50.24 259.466 49.83L260.486 48.435ZM344.013 45.87C344.293 45.87 344.583 45.8 344.883 45.66C345.183 45.52 345.478 45.275 345.768 44.925C345.708 44.555 345.618 44.245 345.498 43.995C345.388 43.735 345.253 43.53 345.093 43.38C344.943 43.22 344.778 43.11 344.598 43.05C344.418 42.98 344.233 42.945 344.043 42.945C343.853 42.945 343.668 42.975 343.488 43.035C343.318 43.095 343.163 43.19 343.023 43.32C342.893 43.44 342.788 43.6 342.708 43.8C342.628 43.99 342.588 44.22 342.588 44.49C342.588 44.98 342.718 45.335 342.978 45.555C343.238 45.765 343.583 45.87 344.013 45.87ZM341.883 48.72C342.083 48.9 342.333 49.06 342.633 49.2C342.933 49.33 343.243 49.395 343.563 49.395C343.853 49.395 344.128 49.345 344.388 49.245C344.658 49.135 344.893 48.965 345.093 48.735C345.303 48.495 345.473 48.185 345.603 47.805C345.733 47.415 345.808 46.94 345.828 46.38C345.478 46.71 345.093 46.97 344.673 47.16C344.263 47.34 343.883 47.43 343.533 47.43C343.113 47.43 342.723 47.37 342.363 47.25C342.003 47.13 341.688 46.95 341.418 46.71C341.158 46.47 340.953 46.165 340.803 45.795C340.653 45.425 340.578 44.99 340.578 44.49C340.578 44 340.668 43.56 340.848 43.17C341.038 42.77 341.288 42.43 341.598 42.15C341.918 41.87 342.283 41.66 342.693 41.52C343.103 41.37 343.538 41.295 343.998 41.295C344.488 41.295 344.963 41.385 345.423 41.565C345.893 41.745 346.308 42.025 346.668 42.405C347.028 42.785 347.313 43.275 347.523 43.875C347.743 44.465 347.853 45.18 347.853 46.02C347.853 46.91 347.738 47.68 347.508 48.33C347.278 48.98 346.973 49.515 346.593 49.935C346.213 50.355 345.773 50.67 345.273 50.88C344.783 51.08 344.278 51.18 343.758 51.18C343.078 51.18 342.483 51.065 341.973 50.835C341.463 50.605 341.043 50.34 340.713 50.04L341.883 48.72ZM351.597 48.315C351.597 48.735 351.762 49.065 352.092 49.305C352.422 49.535 352.832 49.65 353.322 49.65C353.772 49.65 354.132 49.555 354.402 49.365C354.682 49.165 354.822 48.865 354.822 48.465C354.822 48.245 354.767 48.06 354.657 47.91C354.547 47.76 354.387 47.625 354.177 47.505C353.977 47.375 353.737 47.26 353.457 47.16C353.177 47.05 352.867 46.93 352.527 46.8C352.257 47 352.032 47.225 351.852 47.475C351.682 47.725 351.597 48.005 351.597 48.315ZM353.922 45.45C354.402 45.02 354.642 44.555 354.642 44.055C354.642 43.685 354.527 43.39 354.297 43.17C354.067 42.94 353.732 42.825 353.292 42.825C352.942 42.825 352.642 42.915 352.392 43.095C352.152 43.275 352.032 43.55 352.032 43.92C352.032 44.31 352.207 44.615 352.557 44.835C352.907 45.055 353.362 45.26 353.922 45.45ZM349.692 48.57C349.692 48.28 349.737 48.02 349.827 47.79C349.927 47.55 350.057 47.335 350.217 47.145C350.387 46.955 350.577 46.785 350.787 46.635C351.007 46.485 351.242 46.35 351.492 46.23V46.17C351.092 45.89 350.757 45.575 350.487 45.225C350.227 44.865 350.097 44.43 350.097 43.92C350.097 43.52 350.177 43.16 350.337 42.84C350.497 42.51 350.717 42.23 350.997 42C351.287 41.77 351.632 41.595 352.032 41.475C352.432 41.355 352.867 41.295 353.337 41.295C353.817 41.295 354.247 41.36 354.627 41.49C355.017 41.61 355.347 41.785 355.617 42.015C355.887 42.235 356.092 42.51 356.232 42.84C356.382 43.16 356.457 43.515 356.457 43.905C356.457 44.355 356.322 44.755 356.052 45.105C355.792 45.455 355.472 45.75 355.092 45.99V46.05C355.342 46.17 355.577 46.31 355.797 46.47C356.017 46.62 356.207 46.795 356.367 46.995C356.527 47.195 356.652 47.425 356.742 47.685C356.832 47.935 356.877 48.22 356.877 48.54C356.877 48.92 356.797 49.27 356.637 49.59C356.477 49.91 356.242 50.19 355.932 50.43C355.632 50.66 355.257 50.845 354.807 50.985C354.357 51.115 353.842 51.18 353.262 51.18C352.712 51.18 352.217 51.12 351.777 51C351.337 50.87 350.962 50.69 350.652 50.46C350.342 50.23 350.102 49.955 349.932 49.635C349.772 49.315 349.692 48.96 349.692 48.57ZM360.666 51C360.706 50.21 360.781 49.485 360.891 48.825C361.011 48.155 361.176 47.52 361.386 46.92C361.606 46.31 361.886 45.72 362.226 45.15C362.566 44.57 362.986 43.965 363.486 43.335H358.701V41.475H365.856V42.825C365.256 43.495 364.771 44.125 364.401 44.715C364.031 45.295 363.741 45.9 363.531 46.53C363.321 47.15 363.171 47.82 363.081 48.54C362.991 49.25 362.926 50.07 362.886 51H360.666ZM455.768 49.215V51H448.943V49.215H451.403V43.71H449.438V42.345C449.998 42.245 450.473 42.125 450.863 41.985C451.263 41.845 451.638 41.675 451.988 41.475H453.608V49.215H455.768ZM464.762 49.215V51H457.937V49.215H460.397V43.71H458.432V42.345C458.992 42.245 459.467 42.125 459.857 41.985C460.257 41.845 460.632 41.675 460.982 41.475H462.602V49.215H464.762ZM467.381 48.45C467.701 48.71 468.041 48.935 468.401 49.125C468.771 49.305 469.181 49.395 469.631 49.395C470.171 49.395 470.611 49.27 470.951 49.02C471.301 48.77 471.476 48.4 471.476 47.91C471.476 47.43 471.311 47.065 470.981 46.815C470.661 46.565 470.246 46.44 469.736 46.44C469.576 46.44 469.431 46.45 469.301 46.47C469.181 46.48 469.061 46.505 468.941 46.545C468.821 46.585 468.696 46.635 468.566 46.695C468.436 46.755 468.291 46.83 468.131 46.92L467.156 46.29L467.411 41.475H473.246V43.335H469.316L469.151 45.12C469.371 45.04 469.576 44.985 469.766 44.955C469.956 44.915 470.171 44.895 470.411 44.895C470.851 44.895 471.266 44.955 471.656 45.075C472.056 45.195 472.406 45.375 472.706 45.615C473.006 45.855 473.241 46.16 473.411 46.53C473.591 46.9 473.681 47.34 473.681 47.85C473.681 48.38 473.576 48.85 473.366 49.26C473.166 49.67 472.891 50.02 472.541 50.31C472.201 50.59 471.806 50.805 471.356 50.955C470.906 51.105 470.436 51.18 469.946 51.18C469.116 51.18 468.411 51.055 467.831 50.805C467.261 50.545 466.781 50.225 466.391 49.845L467.381 48.45ZM476.375 48.45C476.695 48.71 477.035 48.935 477.395 49.125C477.765 49.305 478.175 49.395 478.625 49.395C479.165 49.395 479.605 49.27 479.945 49.02C480.295 48.77 480.47 48.4 480.47 47.91C480.47 47.43 480.305 47.065 479.975 46.815C479.655 46.565 479.24 46.44 478.73 46.44C478.57 46.44 478.425 46.45 478.295 46.47C478.175 46.48 478.055 46.505 477.935 46.545C477.815 46.585 477.69 46.635 477.56 46.695C477.43 46.755 477.285 46.83 477.125 46.92L476.15 46.29L476.405 41.475H482.24V43.335H478.31L478.145 45.12C478.365 45.04 478.57 44.985 478.76 44.955C478.95 44.915 479.165 44.895 479.405 44.895C479.845 44.895 480.26 44.955 480.65 45.075C481.05 45.195 481.4 45.375 481.7 45.615C482 45.855 482.235 46.16 482.405 46.53C482.585 46.9 482.675 47.34 482.675 47.85C482.675 48.38 482.57 48.85 482.36 49.26C482.16 49.67 481.885 50.02 481.535 50.31C481.195 50.59 480.8 50.805 480.35 50.955C479.9 51.105 479.43 51.18 478.94 51.18C478.11 51.18 477.405 51.055 476.825 50.805C476.255 50.545 475.775 50.225 475.385 49.845L476.375 48.45ZM569.347 49.53C569.537 49.53 569.717 49.5 569.887 49.44C570.067 49.38 570.222 49.29 570.352 49.17C570.492 49.04 570.602 48.88 570.682 48.69C570.762 48.49 570.802 48.255 570.802 47.985C570.802 47.495 570.672 47.145 570.412 46.935C570.152 46.715 569.812 46.605 569.392 46.605C569.112 46.605 568.822 46.675 568.522 46.815C568.222 46.955 567.927 47.195 567.637 47.535C567.697 47.915 567.782 48.235 567.892 48.495C568.012 48.745 568.147 48.95 568.297 49.11C568.447 49.26 568.612 49.37 568.792 49.44C568.972 49.5 569.157 49.53 569.347 49.53ZM571.522 43.755C571.322 43.575 571.072 43.42 570.772 43.29C570.472 43.15 570.162 43.08 569.842 43.08C569.552 43.08 569.272 43.135 569.002 43.245C568.742 43.345 568.507 43.515 568.297 43.755C568.097 43.985 567.932 44.29 567.802 44.67C567.672 45.05 567.597 45.52 567.577 46.08C567.917 45.75 568.292 45.495 568.702 45.315C569.122 45.135 569.512 45.045 569.872 45.045C570.292 45.045 570.677 45.105 571.027 45.225C571.387 45.345 571.697 45.525 571.957 45.765C572.227 46.005 572.437 46.31 572.587 46.68C572.737 47.05 572.812 47.485 572.812 47.985C572.812 48.485 572.717 48.93 572.527 49.32C572.347 49.71 572.097 50.045 571.777 50.325C571.467 50.605 571.107 50.82 570.697 50.97C570.287 51.11 569.852 51.18 569.392 51.18C568.902 51.18 568.427 51.09 567.967 50.91C567.507 50.73 567.097 50.45 566.737 50.07C566.377 49.69 566.087 49.205 565.867 48.615C565.647 48.015 565.537 47.295 565.537 46.455C565.537 45.565 565.652 44.795 565.882 44.145C566.112 43.495 566.417 42.96 566.797 42.54C567.187 42.12 567.627 41.81 568.117 41.61C568.607 41.4 569.117 41.295 569.647 41.295C570.327 41.295 570.922 41.41 571.432 41.64C571.942 41.86 572.357 42.125 572.677 42.435L571.522 43.755ZM574.501 49.74C575.181 49.17 575.801 48.64 576.361 48.15C576.921 47.65 577.401 47.185 577.801 46.755C578.201 46.325 578.511 45.92 578.731 45.54C578.951 45.16 579.061 44.8 579.061 44.46C579.061 43.99 578.926 43.635 578.656 43.395C578.386 43.145 578.001 43.02 577.501 43.02C577.121 43.02 576.771 43.12 576.451 43.32C576.141 43.51 575.851 43.735 575.581 43.995L574.396 42.81C574.646 42.56 574.891 42.34 575.131 42.15C575.381 41.96 575.641 41.805 575.911 41.685C576.191 41.555 576.481 41.46 576.781 41.4C577.091 41.33 577.431 41.295 577.801 41.295C578.301 41.295 578.756 41.37 579.166 41.52C579.576 41.66 579.926 41.865 580.216 42.135C580.516 42.395 580.746 42.71 580.906 43.08C581.076 43.45 581.161 43.865 581.161 44.325C581.161 44.725 581.066 45.135 580.876 45.555C580.686 45.965 580.426 46.38 580.096 46.8C579.776 47.21 579.406 47.625 578.986 48.045C578.566 48.455 578.126 48.86 577.666 49.26C577.936 49.23 578.226 49.205 578.536 49.185C578.856 49.155 579.141 49.14 579.391 49.14H581.656V51H574.501V49.74ZM583.495 49.74C584.175 49.17 584.795 48.64 585.355 48.15C585.915 47.65 586.395 47.185 586.795 46.755C587.195 46.325 587.505 45.92 587.725 45.54C587.945 45.16 588.055 44.8 588.055 44.46C588.055 43.99 587.92 43.635 587.65 43.395C587.38 43.145 586.995 43.02 586.495 43.02C586.115 43.02 585.765 43.12 585.445 43.32C585.135 43.51 584.845 43.735 584.575 43.995L583.39 42.81C583.64 42.56 583.885 42.34 584.125 42.15C584.375 41.96 584.635 41.805 584.905 41.685C585.185 41.555 585.475 41.46 585.775 41.4C586.085 41.33 586.425 41.295 586.795 41.295C587.295 41.295 587.75 41.37 588.16 41.52C588.57 41.66 588.92 41.865 589.21 42.135C589.51 42.395 589.74 42.71 589.9 43.08C590.07 43.45 590.155 43.865 590.155 44.325C590.155 44.725 590.06 45.135 589.87 45.555C589.68 45.965 589.42 46.38 589.09 46.8C588.77 47.21 588.4 47.625 587.98 48.045C587.56 48.455 587.12 48.86 586.66 49.26C586.93 49.23 587.22 49.205 587.53 49.185C587.85 49.155 588.135 49.14 588.385 49.14H590.65V51H583.495V49.74Z" fill="#F0E442"/>
<path d="M62.1498 99.56H67.3398V107H65.1348V101.285H62.1498V99.56ZM66.1398 98.465C65.7098 98.465 65.3548 98.345 65.0748 98.105C64.8048 97.865 64.6698 97.54 64.6698 97.13C64.6698 96.72 64.8048 96.39 65.0748 96.14C65.3548 95.88 65.7098 95.75 66.1398 95.75C66.5698 95.75 66.9198 95.88 67.1898 96.14C67.4698 96.39 67.6098 96.72 67.6098 97.13C67.6098 97.54 67.4698 97.865 67.1898 98.105C66.9198 98.345 66.5698 98.465 66.1398 98.465ZM71.039 99.56H72.839L73.004 100.55H73.064C73.384 100.23 73.749 99.955 74.159 99.725C74.579 99.495 75.069 99.38 75.629 99.38C76.469 99.38 77.084 99.65 77.474 100.19C77.864 100.73 78.059 101.47 78.059 102.41V107H75.854V102.695C75.854 102.195 75.774 101.83 75.614 101.6C75.454 101.37 75.169 101.255 74.759 101.255C74.459 101.255 74.194 101.32 73.964 101.45C73.744 101.58 73.504 101.775 73.244 102.035V107H71.039V99.56Z" fill="#E69F00"/>
<line y1="120.5" x2="610.001" y2="120.5" stroke="white"/>
<path d="M11.5004 141.68C10.9204 141.68 10.3854 141.565 9.8954 141.335C9.4154 141.095 9.0004 140.755 8.6504 140.315C8.3104 139.875 8.0454 139.34 7.8554 138.71C7.6654 138.08 7.5704 137.365 7.5704 136.565C7.5704 135.765 7.6654 135.055 7.8554 134.435C8.0454 133.805 8.3104 133.28 8.6504 132.86C9.0004 132.43 9.4154 132.105 9.8954 131.885C10.3854 131.655 10.9204 131.54 11.5004 131.54C12.0804 131.54 12.6104 131.655 13.0904 131.885C13.5804 132.105 13.9954 132.43 14.3354 132.86C14.6854 133.29 14.9554 133.82 15.1454 134.45C15.3354 135.07 15.4304 135.775 15.4304 136.565C15.4304 137.365 15.3354 138.08 15.1454 138.71C14.9554 139.34 14.6854 139.875 14.3354 140.315C13.9954 140.755 13.5804 141.095 13.0904 141.335C12.6104 141.565 12.0804 141.68 11.5004 141.68ZM11.5004 139.775C12.0104 139.775 12.4154 139.49 12.7154 138.92C13.0154 138.34 13.1654 137.555 13.1654 136.565C13.1654 135.585 13.0154 134.82 12.7154 134.27C12.4154 133.72 12.0104 133.445 11.5004 133.445C10.9904 133.445 10.5854 133.72 10.2854 134.27C9.9854 134.82 9.8354 135.585 9.8354 136.565C9.8354 137.555 9.9854 138.34 10.2854 138.92C10.5854 139.49 10.9904 139.775 11.5004 139.775ZM23.8695 141.5H22.0695L21.9045 140.435H21.8445C21.5145 140.815 21.1495 141.12 20.7495 141.35C20.3495 141.57 19.8795 141.68 19.3395 141.68C18.4895 141.68 17.8745 141.41 17.4945 140.87C17.1145 140.33 16.9245 139.59 16.9245 138.65V134.06H19.1295V138.365C19.1295 138.865 19.2045 139.23 19.3545 139.46C19.5045 139.69 19.7895 139.805 20.2095 139.805C20.4895 139.805 20.7345 139.745 20.9445 139.625C21.1645 139.505 21.4045 139.28 21.6645 138.95V134.06H23.8695V141.5ZM27.5987 135.785H25.7237V134.15L27.7037 134.06L27.9887 132.08H29.8037V134.06H32.9537V135.785H29.8037V138.395C29.8037 138.965 29.9287 139.37 30.1787 139.61C30.4287 139.84 30.8237 139.955 31.3637 139.955C31.6537 139.955 31.9187 139.93 32.1587 139.88C32.3987 139.83 32.6287 139.765 32.8487 139.685L33.2387 141.275C32.9087 141.375 32.5387 141.465 32.1287 141.545C31.7287 141.635 31.2887 141.68 30.8087 141.68C30.2187 141.68 29.7187 141.6 29.3087 141.44C28.8987 141.28 28.5637 141.06 28.3037 140.78C28.0537 140.49 27.8737 140.145 27.7637 139.745C27.6537 139.345 27.5987 138.9 27.5987 138.41V135.785ZM37.2678 142.085V144.26H35.0628V134.06H36.8628L37.0278 134.81H37.0728C37.3728 134.54 37.7178 134.32 38.1078 134.15C38.4978 133.97 38.8928 133.88 39.2928 133.88C39.7528 133.88 40.1678 133.97 40.5378 134.15C40.9078 134.33 41.2228 134.585 41.4828 134.915C41.7428 135.245 41.9378 135.645 42.0678 136.115C42.2078 136.575 42.2778 137.09 42.2778 137.66C42.2778 138.3 42.1878 138.87 42.0078 139.37C41.8278 139.86 41.5878 140.28 41.2878 140.63C40.9878 140.97 40.6428 141.23 40.2528 141.41C39.8728 141.59 39.4728 141.68 39.0528 141.68C38.3728 141.68 37.7528 141.41 37.1928 140.87L37.2678 142.085ZM37.2678 139.385C37.4778 139.565 37.6928 139.695 37.9128 139.775C38.1428 139.845 38.3528 139.88 38.5428 139.88C38.9628 139.88 39.3128 139.71 39.5928 139.37C39.8728 139.02 40.0128 138.46 40.0128 137.69C40.0128 136.35 39.5578 135.68 38.6478 135.68C38.1778 135.68 37.7178 135.91 37.2678 136.37V139.385ZM50.852 141.5H49.052L48.887 140.435H48.827C48.497 140.815 48.132 141.12 47.732 141.35C47.332 141.57 46.862 141.68 46.322 141.68C45.472 141.68 44.857 141.41 44.477 140.87C44.097 140.33 43.907 139.59 43.907 138.65V134.06H46.112V138.365C46.112 138.865 46.187 139.23 46.337 139.46C46.487 139.69 46.772 139.805 47.192 139.805C47.472 139.805 47.717 139.745 47.927 139.625C48.147 139.505 48.387 139.28 48.647 138.95V134.06H50.852V141.5ZM54.5811 135.785H52.7061V134.15L54.6861 134.06L54.9711 132.08H56.7861V134.06H59.9361V135.785H56.7861V138.395C56.7861 138.965 56.9111 139.37 57.1611 139.61C57.4111 139.84 57.8061 139.955 58.3461 139.955C58.6361 139.955 58.9011 139.93 59.1411 139.88C59.3811 139.83 59.6111 139.765 59.8311 139.685L60.2211 141.275C59.8911 141.375 59.5211 141.465 59.1111 141.545C58.7111 141.635 58.2711 141.68 57.7911 141.68C57.2011 141.68 56.7011 141.6 56.2911 141.44C55.8811 141.28 55.5461 141.06 55.2861 140.78C55.0361 140.49 54.8561 140.145 54.7461 139.745C54.6361 139.345 54.5811 138.9 54.5811 138.41V135.785Z" fill="white"/>
<path d="M10.3904 157.58H7.4654V155.72H15.5354V157.58H12.6104V165.5H10.3904V157.58ZM17.7345 158.06H19.5345L19.7145 159.68H19.7595C20.1295 159.07 20.5745 158.62 21.0945 158.33C21.6145 158.03 22.1745 157.88 22.7745 157.88C23.1045 157.88 23.3695 157.905 23.5695 157.955C23.7795 158.005 23.9945 158.08 24.2145 158.18L23.7645 160.025C23.5345 159.955 23.3245 159.905 23.1345 159.875C22.9545 159.835 22.7245 159.815 22.4445 159.815C21.9845 159.815 21.5295 159.95 21.0795 160.22C20.6395 160.49 20.2595 160.96 19.9395 161.63V165.5H17.7345V158.06ZM32.8637 165.5H31.0637L30.8987 164.435H30.8387C30.5087 164.815 30.1437 165.12 29.7437 165.35C29.3437 165.57 28.8737 165.68 28.3337 165.68C27.4837 165.68 26.8687 165.41 26.4887 164.87C26.1087 164.33 25.9187 163.59 25.9187 162.65V158.06H28.1237V162.365C28.1237 162.865 28.1987 163.23 28.3487 163.46C28.4987 163.69 28.7837 163.805 29.2037 163.805C29.4837 163.805 29.7287 163.745 29.9387 163.625C30.1587 163.505 30.3987 163.28 30.6587 162.95V158.06H32.8637V165.5ZM34.8078 161.78C34.8078 161.17 34.9128 160.625 35.1228 160.145C35.3428 159.665 35.6328 159.26 35.9928 158.93C36.3528 158.59 36.7628 158.33 37.2228 158.15C37.6928 157.97 38.1778 157.88 38.6778 157.88C39.2478 157.88 39.7528 157.97 40.1928 158.15C40.6328 158.33 40.9978 158.58 41.2878 158.9C41.5778 159.22 41.7978 159.6 41.9478 160.04C42.0978 160.47 42.1728 160.94 42.1728 161.45C42.1728 161.65 42.1628 161.84 42.1428 162.02C42.1228 162.2 42.1028 162.335 42.0828 162.425H37.0728C37.1528 162.985 37.3928 163.39 37.7928 163.64C38.2028 163.88 38.6828 164 39.2328 164C39.5728 164 39.8928 163.96 40.1928 163.88C40.5028 163.79 40.8228 163.66 41.1528 163.49L41.8728 164.81C41.4528 165.08 40.9828 165.295 40.4628 165.455C39.9428 165.605 39.4328 165.68 38.9328 165.68C38.3528 165.68 37.8128 165.595 37.3128 165.425C36.8128 165.245 36.3778 164.99 36.0078 164.66C35.6378 164.32 35.3428 163.91 35.1228 163.43C34.9128 162.95 34.8078 162.4 34.8078 161.78ZM40.1778 160.97C40.1778 160.55 40.0628 160.21 39.8328 159.95C39.6028 159.69 39.2328 159.56 38.7228 159.56C38.3228 159.56 37.9678 159.675 37.6578 159.905C37.3478 160.135 37.1428 160.49 37.0428 160.97H40.1778Z" fill="white"/>
<path d="M70.2929 94.7071C70.6834 95.0976 71.3166 95.0976 71.7071 94.7071L78.0711 88.3431C78.4616 87.9526 78.4616 87.3195 78.0711 86.9289C77.6805 86.5384 77.0474 86.5384 76.6569 86.9289L71 92.5858L65.3431 86.9289C64.9526 86.5384 64.3195 86.5384 63.9289 86.9289C63.5384 87.3195 63.5384 87.9526 63.9289 88.3431L70.2929 94.7071ZM70 74V94H72V74H70Z" fill="#F0E442"/>
<line x1="71" y1="75" x2="102" y2="75" stroke="#F0E442" stroke-width="2"/>
<path d="M119.177 68.9312H115.475V79H112.984V68.9312H109.332V66.9141H119.177V68.9312ZM122.788 70.998C123.424 70.2344 124.224 69.8525 125.187 69.8525C127.134 69.8525 128.122 70.9842 128.15 73.2476V79H125.751V73.314C125.751 72.7993 125.64 72.4202 125.419 72.1768C125.198 71.9277 124.83 71.8032 124.315 71.8032C123.612 71.8032 123.103 72.0744 122.788 72.6167V79H120.389V66.25H122.788V70.998ZM134.093 79.166C132.776 79.166 131.703 78.762 130.873 77.9541C130.048 77.1462 129.636 76.0698 129.636 74.7251V74.4927C129.636 73.5907 129.81 72.7855 130.159 72.0771C130.507 71.3633 131 70.8154 131.636 70.4336C132.278 70.0462 133.009 69.8525 133.828 69.8525C135.056 69.8525 136.022 70.2399 136.725 71.0146C137.433 71.7894 137.787 72.8879 137.787 74.3101V75.2896H132.068C132.145 75.8761 132.378 76.3465 132.765 76.7007C133.158 77.0549 133.653 77.2319 134.251 77.2319C135.175 77.2319 135.897 76.8971 136.417 76.2275L137.596 77.5474C137.236 78.0565 136.75 78.4549 136.135 78.7427C135.521 79.0249 134.84 79.166 134.093 79.166ZM133.819 71.7949C133.343 71.7949 132.956 71.9554 132.657 72.2764C132.364 72.5973 132.176 73.0566 132.093 73.6543H135.43V73.4634C135.419 72.9321 135.275 72.5226 134.998 72.2349C134.721 71.9416 134.328 71.7949 133.819 71.7949ZM167.637 74.4263C167.637 73.5353 167.808 72.7412 168.151 72.0439C168.494 71.3467 168.987 70.8071 169.629 70.4253C170.276 70.0435 171.026 69.8525 171.878 69.8525C173.09 69.8525 174.078 70.2233 174.842 70.9648C175.611 71.7064 176.04 72.7135 176.128 73.9863L176.145 74.6006C176.145 75.9785 175.76 77.0853 174.991 77.9209C174.222 78.751 173.19 79.166 171.895 79.166C170.6 79.166 169.565 78.751 168.791 77.9209C168.021 77.0908 167.637 75.9619 167.637 74.5342V74.4263ZM170.036 74.6006C170.036 75.4528 170.196 76.1058 170.517 76.5596C170.838 77.0078 171.297 77.2319 171.895 77.2319C172.476 77.2319 172.93 77.0106 173.256 76.5679C173.583 76.1196 173.746 75.4058 173.746 74.4263C173.746 73.5907 173.583 72.9432 173.256 72.4839C172.93 72.0246 172.471 71.7949 171.878 71.7949C171.292 71.7949 170.838 72.0246 170.517 72.4839C170.196 72.9377 170.036 73.6432 170.036 74.6006ZM185.708 74.5923C185.708 75.9757 185.392 77.0853 184.761 77.9209C184.136 78.751 183.289 79.166 182.221 79.166C181.314 79.166 180.58 78.8506 180.021 78.2197V82.4531H177.623V70.0186H179.847L179.93 70.8984C180.511 70.2012 181.269 69.8525 182.205 69.8525C183.311 69.8525 184.172 70.262 184.786 71.0811C185.4 71.9001 185.708 73.029 185.708 74.4678V74.5923ZM183.309 74.418C183.309 73.5824 183.159 72.9377 182.86 72.4839C182.567 72.0301 182.138 71.8032 181.574 71.8032C180.821 71.8032 180.304 72.091 180.021 72.6665V76.3438C180.315 76.9359 180.838 77.2319 181.59 77.2319C182.736 77.2319 183.309 76.2939 183.309 74.418ZM191.335 79.166C190.018 79.166 188.945 78.762 188.115 77.9541C187.29 77.1462 186.878 76.0698 186.878 74.7251V74.4927C186.878 73.5907 187.052 72.7855 187.401 72.0771C187.75 71.3633 188.242 70.8154 188.878 70.4336C189.52 70.0462 190.251 69.8525 191.07 69.8525C192.298 69.8525 193.264 70.2399 193.967 71.0146C194.675 71.7894 195.029 72.8879 195.029 74.3101V75.2896H189.31C189.388 75.8761 189.62 76.3465 190.007 76.7007C190.4 77.0549 190.896 77.2319 191.493 77.2319C192.417 77.2319 193.139 76.8971 193.66 76.2275L194.838 77.5474C194.479 78.0565 193.992 78.4549 193.377 78.7427C192.763 79.0249 192.083 79.166 191.335 79.166ZM191.062 71.7949C190.586 71.7949 190.198 71.9554 189.899 72.2764C189.606 72.5973 189.418 73.0566 189.335 73.6543H192.672V73.4634C192.661 72.9321 192.517 72.5226 192.24 72.2349C191.964 71.9416 191.571 71.7949 191.062 71.7949ZM201.446 72.2681C201.119 72.2238 200.832 72.2017 200.583 72.2017C199.675 72.2017 199.08 72.5088 198.798 73.123V79H196.399V70.0186H198.665L198.731 71.0894C199.213 70.2648 199.88 69.8525 200.732 69.8525C200.998 69.8525 201.247 69.8885 201.479 69.9604L201.446 72.2681ZM207.563 79C207.453 78.7842 207.373 78.5158 207.323 78.1948C206.742 78.8423 205.986 79.166 205.057 79.166C204.177 79.166 203.446 78.9115 202.865 78.4023C202.29 77.8932 202.002 77.2513 202.002 76.4766C202.002 75.5247 202.353 74.7943 203.056 74.2852C203.764 73.776 204.785 73.5187 206.119 73.5132H207.223V72.9985C207.223 72.5835 207.115 72.2515 206.899 72.0024C206.689 71.7534 206.354 71.6289 205.895 71.6289C205.491 71.6289 205.173 71.7257 204.94 71.9194C204.714 72.1131 204.6 72.3787 204.6 72.7163H202.201C202.201 72.1961 202.362 71.7147 202.683 71.272C203.004 70.8293 203.457 70.4834 204.044 70.2344C204.631 69.9798 205.289 69.8525 206.02 69.8525C207.126 69.8525 208.003 70.132 208.651 70.6909C209.304 71.2443 209.63 72.0246 209.63 73.0317V76.9248C209.636 77.777 209.755 78.4217 209.987 78.8589V79H207.563ZM205.58 77.3315C205.934 77.3315 206.26 77.2541 206.559 77.0991C206.858 76.9386 207.079 76.7256 207.223 76.46V74.916H206.327C205.126 74.916 204.487 75.3311 204.409 76.1611L204.401 76.3022C204.401 76.6011 204.506 76.8473 204.716 77.041C204.927 77.2347 205.214 77.3315 205.58 77.3315ZM214.345 67.8105V70.0186H215.881V71.7783H214.345V76.2607C214.345 76.5928 214.409 76.8307 214.536 76.9746C214.663 77.1185 214.907 77.1904 215.267 77.1904C215.532 77.1904 215.767 77.1711 215.972 77.1323V78.9502C215.502 79.0941 215.018 79.166 214.52 79.166C212.837 79.166 211.979 78.3166 211.946 76.6177V71.7783H210.635V70.0186H211.946V67.8105H214.345ZM216.595 74.4263C216.595 73.5353 216.766 72.7412 217.109 72.0439C217.452 71.3467 217.945 70.8071 218.587 70.4253C219.234 70.0435 219.984 69.8525 220.836 69.8525C222.048 69.8525 223.036 70.2233 223.8 70.9648C224.569 71.7064 224.998 72.7135 225.086 73.9863L225.103 74.6006C225.103 75.9785 224.718 77.0853 223.949 77.9209C223.18 78.751 222.148 79.166 220.853 79.166C219.558 79.166 218.523 78.751 217.749 77.9209C216.979 77.0908 216.595 75.9619 216.595 74.5342V74.4263ZM218.994 74.6006C218.994 75.4528 219.154 76.1058 219.475 76.5596C219.796 77.0078 220.255 77.2319 220.853 77.2319C221.434 77.2319 221.888 77.0106 222.214 76.5679C222.541 76.1196 222.704 75.4058 222.704 74.4263C222.704 73.5907 222.541 72.9432 222.214 72.4839C221.888 72.0246 221.429 71.7949 220.836 71.7949C220.25 71.7949 219.796 72.0246 219.475 72.4839C219.154 72.9377 218.994 73.6432 218.994 74.6006ZM231.627 72.2681C231.301 72.2238 231.013 72.2017 230.764 72.2017C229.857 72.2017 229.262 72.5088 228.979 73.123V79H226.581V70.0186H228.847L228.913 71.0894C229.395 70.2648 230.061 69.8525 230.914 69.8525C231.179 69.8525 231.428 69.8885 231.661 69.9604L231.627 72.2681Z" fill="#F0E442"/>
<path d="M143.812 70.568H149.694V79H147.195V72.523H143.812V70.568ZM148.334 69.327C147.846 69.327 147.444 69.191 147.127 68.919C146.821 68.647 146.668 68.2787 146.668 67.814C146.668 67.3493 146.821 66.9753 147.127 66.692C147.444 66.3973 147.846 66.25 148.334 66.25C148.821 66.25 149.218 66.3973 149.524 66.692C149.841 66.9753 150 67.3493 150 67.814C150 68.2787 149.841 68.647 149.524 68.919C149.218 69.191 148.821 69.327 148.334 69.327ZM153.886 70.568H155.926L156.113 71.69H156.181C156.544 71.3273 156.957 71.0157 157.422 70.755C157.898 70.4943 158.453 70.364 159.088 70.364C160.04 70.364 160.737 70.67 161.179 71.282C161.621 71.894 161.842 72.7327 161.842 73.798V79H159.343V74.121C159.343 73.5543 159.252 73.1407 159.071 72.88C158.89 72.6193 158.567 72.489 158.102 72.489C157.762 72.489 157.462 72.5627 157.201 72.71C156.952 72.8573 156.68 73.0783 156.385 73.373V79H153.886V70.568Z" fill="#E69F00"/>
</svg>
