<svg width="636" height="270" viewBox="0 0 636 270" fill="none" xmlns="http://www.w3.org/2000/svg">
<rect width="636" height="270" fill="white"/>
<rect width="228" height="270" fill="black"/>
<line y1="191.5" x2="228" y2="191.5" stroke="white"/>
<path d="M11.5004 212.68C10.9204 212.68 10.3854 212.565 9.8954 212.335C9.4154 212.095 9.0004 211.755 8.6504 211.315C8.3104 210.875 8.0454 210.34 7.8554 209.71C7.6654 209.08 7.5704 208.365 7.5704 207.565C7.5704 206.765 7.6654 206.055 7.8554 205.435C8.0454 204.805 8.3104 204.28 8.6504 203.86C9.0004 203.43 9.4154 203.105 9.8954 202.885C10.3854 202.655 10.9204 202.54 11.5004 202.54C12.0804 202.54 12.6104 202.655 13.0904 202.885C13.5804 203.105 13.9954 203.43 14.3354 203.86C14.6854 204.29 14.9554 204.82 15.1454 205.45C15.3354 206.07 15.4304 206.775 15.4304 207.565C15.4304 208.365 15.3354 209.08 15.1454 209.71C14.9554 210.34 14.6854 210.875 14.3354 211.315C13.9954 211.755 13.5804 212.095 13.0904 212.335C12.6104 212.565 12.0804 212.68 11.5004 212.68ZM11.5004 210.775C12.0104 210.775 12.4154 210.49 12.7154 209.92C13.0154 209.34 13.1654 208.555 13.1654 207.565C13.1654 206.585 13.0154 205.82 12.7154 205.27C12.4154 204.72 12.0104 204.445 11.5004 204.445C10.9904 204.445 10.5854 204.72 10.2854 205.27C9.9854 205.82 9.8354 206.585 9.8354 207.565C9.8354 208.555 9.9854 209.34 10.2854 209.92C10.5854 210.49 10.9904 210.775 11.5004 210.775ZM23.8695 212.5H22.0695L21.9045 211.435H21.8445C21.5145 211.815 21.1495 212.12 20.7495 212.35C20.3495 212.57 19.8795 212.68 19.3395 212.68C18.4895 212.68 17.8745 212.41 17.4945 211.87C17.1145 211.33 16.9245 210.59 16.9245 209.65V205.06H19.1295V209.365C19.1295 209.865 19.2045 210.23 19.3545 210.46C19.5045 210.69 19.7895 210.805 20.2095 210.805C20.4895 210.805 20.7345 210.745 20.9445 210.625C21.1645 210.505 21.4045 210.28 21.6645 209.95V205.06H23.8695V212.5ZM27.5987 206.785H25.7237V205.15L27.7037 205.06L27.9887 203.08H29.8037V205.06H32.9537V206.785H29.8037V209.395C29.8037 209.965 29.9287 210.37 30.1787 210.61C30.4287 210.84 30.8237 210.955 31.3637 210.955C31.6537 210.955 31.9187 210.93 32.1587 210.88C32.3987 210.83 32.6287 210.765 32.8487 210.685L33.2387 212.275C32.9087 212.375 32.5387 212.465 32.1287 212.545C31.7287 212.635 31.2887 212.68 30.8087 212.68C30.2187 212.68 29.7187 212.6 29.3087 212.44C28.8987 212.28 28.5637 212.06 28.3037 211.78C28.0537 211.49 27.8737 211.145 27.7637 210.745C27.6537 210.345 27.5987 209.9 27.5987 209.41V206.785ZM37.2678 213.085V215.26H35.0628V205.06H36.8628L37.0278 205.81H37.0728C37.3728 205.54 37.7178 205.32 38.1078 205.15C38.4978 204.97 38.8928 204.88 39.2928 204.88C39.7528 204.88 40.1678 204.97 40.5378 205.15C40.9078 205.33 41.2228 205.585 41.4828 205.915C41.7428 206.245 41.9378 206.645 42.0678 207.115C42.2078 207.575 42.2778 208.09 42.2778 208.66C42.2778 209.3 42.1878 209.87 42.0078 210.37C41.8278 210.86 41.5878 211.28 41.2878 211.63C40.9878 211.97 40.6428 212.23 40.2528 212.41C39.8728 212.59 39.4728 212.68 39.0528 212.68C38.3728 212.68 37.7528 212.41 37.1928 211.87L37.2678 213.085ZM37.2678 210.385C37.4778 210.565 37.6928 210.695 37.9128 210.775C38.1428 210.845 38.3528 210.88 38.5428 210.88C38.9628 210.88 39.3128 210.71 39.5928 210.37C39.8728 210.02 40.0128 209.46 40.0128 208.69C40.0128 207.35 39.5578 206.68 38.6478 206.68C38.1778 206.68 37.7178 206.91 37.2678 207.37V210.385ZM50.852 212.5H49.052L48.887 211.435H48.827C48.497 211.815 48.132 212.12 47.732 212.35C47.332 212.57 46.862 212.68 46.322 212.68C45.472 212.68 44.857 212.41 44.477 211.87C44.097 211.33 43.907 210.59 43.907 209.65V205.06H46.112V209.365C46.112 209.865 46.187 210.23 46.337 210.46C46.487 210.69 46.772 210.805 47.192 210.805C47.472 210.805 47.717 210.745 47.927 210.625C48.147 210.505 48.387 210.28 48.647 209.95V205.06H50.852V212.5ZM54.5811 206.785H52.7061V205.15L54.6861 205.06L54.9711 203.08H56.7861V205.06H59.9361V206.785H56.7861V209.395C56.7861 209.965 56.9111 210.37 57.1611 210.61C57.4111 210.84 57.8061 210.955 58.3461 210.955C58.6361 210.955 58.9011 210.93 59.1411 210.88C59.3811 210.83 59.6111 210.765 59.8311 210.685L60.2211 212.275C59.8911 212.375 59.5211 212.465 59.1111 212.545C58.7111 212.635 58.2711 212.68 57.7911 212.68C57.2011 212.68 56.7011 212.6 56.2911 212.44C55.8811 212.28 55.5461 212.06 55.2861 211.78C55.0361 211.49 54.8561 211.145 54.7461 210.745C54.6361 210.345 54.5811 209.9 54.5811 209.41V206.785Z" fill="white"/>
<path d="M8.65 234.435C8.97 234.715 9.325 234.945 9.715 235.125C10.115 235.305 10.535 235.395 10.975 235.395C11.495 235.395 11.92 235.3 12.25 235.11C12.59 234.91 12.76 234.63 12.76 234.27C12.76 234.06 12.715 233.87 12.625 233.7C12.535 233.53 12.38 233.39 12.16 233.28C11.94 233.16 11.645 233.07 11.275 233.01C10.905 232.94 10.44 232.905 9.88 232.905V231.345C10.82 231.345 11.48 231.23 11.86 231C12.25 230.76 12.445 230.45 12.445 230.07C12.445 229.74 12.32 229.485 12.07 229.305C11.82 229.115 11.475 229.02 11.035 229.02C10.655 229.02 10.305 229.095 9.985 229.245C9.665 229.395 9.34 229.6 9.01 229.86L7.9 228.51C8.37 228.13 8.87 227.835 9.4 227.625C9.94 227.405 10.52 227.295 11.14 227.295C11.66 227.295 12.135 227.355 12.565 227.475C12.995 227.585 13.365 227.755 13.675 227.985C13.985 228.205 14.225 228.475 14.395 228.795C14.565 229.115 14.65 229.485 14.65 229.905C14.65 230.405 14.49 230.83 14.17 231.18C13.85 231.52 13.405 231.8 12.835 232.02V232.08C13.435 232.24 13.94 232.515 14.35 232.905C14.76 233.285 14.965 233.785 14.965 234.405C14.965 234.845 14.86 235.24 14.65 235.59C14.45 235.93 14.175 236.22 13.825 236.46C13.485 236.69 13.085 236.87 12.625 237C12.165 237.12 11.685 237.18 11.185 237.18C10.365 237.18 9.66 237.06 9.07 236.82C8.48 236.57 8 236.24 7.63 235.83L8.65 234.435ZM18.7541 235.425C18.7541 235.175 18.7941 234.945 18.8741 234.735C18.9641 234.515 19.0841 234.325 19.2341 234.165C19.3841 234.005 19.5641 233.88 19.7741 233.79C19.9941 233.7 20.2341 233.655 20.4941 233.655C20.7541 233.655 20.9891 233.7 21.1991 233.79C21.4191 233.88 21.6041 234.005 21.7541 234.165C21.9041 234.325 22.0191 234.515 22.0991 234.735C22.1891 234.945 22.2341 235.175 22.2341 235.425C22.2341 235.925 22.0741 236.345 21.7541 236.685C21.4341 237.015 21.0141 237.18 20.4941 237.18C19.9741 237.18 19.5541 237.015 19.2341 236.685C18.9141 236.345 18.7541 235.925 18.7541 235.425ZM33.0433 235.215V237H26.2183V235.215H28.6783V229.71H26.7133V228.345C27.2733 228.245 27.7483 228.125 28.1383 227.985C28.5383 227.845 28.9133 227.675 29.2633 227.475H30.8833V235.215H33.0433ZM39.0974 233.04V231.435C39.0974 231.135 39.1024 230.79 39.1124 230.4C39.1324 230 39.1524 229.65 39.1724 229.35H39.1124C38.9524 229.62 38.7824 229.89 38.6024 230.16C38.4224 230.43 38.2474 230.7 38.0774 230.97L36.6374 233.04H39.0974ZM42.3524 234.72H41.1524V237H39.0974V234.72H34.5074V233.205L38.4824 227.475H41.1524V233.04H42.3524V234.72ZM15.055 254.215V256H8.23V254.215H10.69V248.71H8.725V247.345C9.285 247.245 9.76 247.125 10.15 246.985C10.55 246.845 10.925 246.675 11.275 246.475H12.895V254.215H15.055ZM20.4941 256.18C19.9441 256.18 19.4441 256.075 18.9941 255.865C18.5441 255.645 18.1591 255.325 17.8391 254.905C17.5191 254.485 17.2691 253.965 17.0891 253.345C16.9191 252.725 16.8341 252.01 16.8341 251.2C16.8341 250.39 16.9191 249.68 17.0891 249.07C17.2691 248.46 17.5191 247.95 17.8391 247.54C18.1591 247.12 18.5441 246.81 18.9941 246.61C19.4441 246.4 19.9441 246.295 20.4941 246.295C21.0441 246.295 21.5441 246.4 21.9941 246.61C22.4441 246.81 22.8291 247.12 23.1491 247.54C23.4691 247.95 23.7141 248.46 23.8841 249.07C24.0641 249.68 24.1541 250.39 24.1541 251.2C24.1541 252.01 24.0641 252.725 23.8841 253.345C23.7141 253.965 23.4691 254.485 23.1491 254.905C22.8291 255.325 22.4441 255.645 21.9941 255.865C21.5441 256.075 21.0441 256.18 20.4941 256.18ZM20.4941 248.005C20.2541 248.005 20.0291 248.055 19.8191 248.155C19.6191 248.255 19.4441 248.43 19.2941 248.68C19.1441 248.92 19.0241 249.245 18.9341 249.655C18.8441 250.065 18.7991 250.58 18.7991 251.2C18.7991 251.82 18.8441 252.34 18.9341 252.76C19.0241 253.17 19.1441 253.505 19.2941 253.765C19.4441 254.015 19.6191 254.195 19.8191 254.305C20.0291 254.415 20.2541 254.47 20.4941 254.47C20.7341 254.47 20.9541 254.415 21.1541 254.305C21.3641 254.195 21.5441 254.015 21.6941 253.765C21.8441 253.505 21.9641 253.17 22.0541 252.76C22.1441 252.34 22.1891 251.82 22.1891 251.2C22.1891 250.58 22.1441 250.065 22.0541 249.655C21.9641 249.245 21.8441 248.92 21.6941 248.68C21.5441 248.43 21.3641 248.255 21.1541 248.155C20.9541 248.055 20.7341 248.005 20.4941 248.005ZM20.4941 252.31C20.1741 252.31 19.9041 252.21 19.6841 252.01C19.4741 251.8 19.3691 251.52 19.3691 251.17C19.3691 250.82 19.4741 250.545 19.6841 250.345C19.9041 250.135 20.1741 250.03 20.4941 250.03C20.8141 250.03 21.0791 250.135 21.2891 250.345C21.5091 250.545 21.6191 250.82 21.6191 251.17C21.6191 251.52 21.5091 251.8 21.2891 252.01C21.0791 252.21 20.8141 252.31 20.4941 252.31Z" fill="white"/>
<rect x="79" width="149" height="31" fill="#333333"/>
<rect x="79" width="149" height="31" fill="#333333"/>
<rect width="79" height="31" fill="#090808"/>
<path d="M12.105 17.8101C12.105 17.5513 11.9756 17.3486 11.7168 17.2021C11.4629 17.0508 11.0527 16.9165 10.4863 16.7993C8.60156 16.4038 7.65918 15.603 7.65918 14.397C7.65918 13.6938 7.94971 13.1079 8.53076 12.6392C9.1167 12.1655 9.88086 11.9287 10.8232 11.9287C11.8291 11.9287 12.6323 12.1655 13.2329 12.6392C13.8384 13.1128 14.1411 13.728 14.1411 14.4849H12.0244C12.0244 14.1821 11.9268 13.9331 11.7314 13.7378C11.5361 13.5376 11.231 13.4375 10.8159 13.4375C10.4595 13.4375 10.1836 13.5181 9.98828 13.6792C9.79297 13.8403 9.69531 14.0454 9.69531 14.2944C9.69531 14.5288 9.80518 14.7192 10.0249 14.8657C10.2495 15.0073 10.6255 15.1318 11.1528 15.2393C11.6802 15.3418 12.1245 15.459 12.4858 15.5908C13.604 16.001 14.1631 16.7114 14.1631 17.7222C14.1631 18.4448 13.853 19.0308 13.2329 19.48C12.6128 19.9243 11.812 20.1465 10.8306 20.1465C10.1665 20.1465 9.57568 20.0293 9.05811 19.7949C8.54541 19.5557 8.14258 19.231 7.84961 18.8208C7.55664 18.4058 7.41016 17.959 7.41016 17.4805H9.41699C9.43652 17.8564 9.57568 18.1445 9.83447 18.3447C10.0933 18.5449 10.4399 18.645 10.8745 18.645C11.2798 18.645 11.585 18.5693 11.79 18.418C12 18.2617 12.105 18.0591 12.105 17.8101ZM18.8286 18.4399C19.2192 18.4399 19.5366 18.3325 19.7808 18.1177C20.0249 17.9028 20.1519 17.6172 20.1616 17.2607H22.1465C22.1416 17.7979 21.9951 18.291 21.707 18.7402C21.4189 19.1846 21.0234 19.5312 20.5205 19.7803C20.0225 20.0244 19.4707 20.1465 18.8652 20.1465C17.7324 20.1465 16.8389 19.7876 16.1846 19.0698C15.5303 18.3472 15.2031 17.3511 15.2031 16.0815V15.9424C15.2031 14.7217 15.5278 13.7476 16.1772 13.02C16.8267 12.2925 17.7178 11.9287 18.8506 11.9287C19.8418 11.9287 20.6353 12.2119 21.231 12.7783C21.8315 13.3398 22.1367 14.0894 22.1465 15.0269H20.1616C20.1519 14.6167 20.0249 14.2847 19.7808 14.0308C19.5366 13.772 19.2144 13.6426 18.814 13.6426C18.3208 13.6426 17.9473 13.8232 17.6934 14.1846C17.4443 14.541 17.3198 15.1221 17.3198 15.9277V16.1475C17.3198 16.9629 17.4443 17.5488 17.6934 17.9053C17.9424 18.2617 18.3208 18.4399 18.8286 18.4399ZM27.8081 14.0601C27.52 14.021 27.2661 14.0015 27.0464 14.0015C26.2456 14.0015 25.7207 14.2725 25.4717 14.8145V20H23.355V12.0752H25.3545L25.4131 13.02C25.8379 12.2925 26.4263 11.9287 27.1782 11.9287C27.4126 11.9287 27.6323 11.9604 27.8374 12.0239L27.8081 14.0601ZM31.0674 20H28.9434V12.0752H31.0674V20ZM28.8188 10.0244C28.8188 9.70703 28.9238 9.4458 29.1338 9.24072C29.3486 9.03564 29.6392 8.93311 30.0054 8.93311C30.3667 8.93311 30.6548 9.03564 30.8696 9.24072C31.0845 9.4458 31.1919 9.70703 31.1919 10.0244C31.1919 10.3467 31.082 10.6104 30.8623 10.8154C30.6475 11.0205 30.3618 11.123 30.0054 11.123C29.6489 11.123 29.3608 11.0205 29.1411 10.8154C28.9263 10.6104 28.8188 10.3467 28.8188 10.0244ZM39.9517 16.1108C39.9517 17.3315 39.6733 18.3105 39.1167 19.0479C38.5649 19.7803 37.8179 20.1465 36.8755 20.1465C36.0747 20.1465 35.4277 19.8682 34.9346 19.3115V23.0469H32.8179V12.0752H34.7808L34.854 12.8516C35.3667 12.2363 36.0356 11.9287 36.8608 11.9287C37.8374 11.9287 38.5967 12.29 39.1387 13.0127C39.6807 13.7354 39.9517 14.7314 39.9517 16.001V16.1108ZM37.835 15.957C37.835 15.2197 37.7031 14.6509 37.4395 14.2505C37.1807 13.8501 36.8022 13.6499 36.3042 13.6499C35.6401 13.6499 35.1836 13.9038 34.9346 14.4116V17.6562C35.1934 18.1787 35.6548 18.4399 36.3188 18.4399C37.3296 18.4399 37.835 17.6123 37.835 15.957ZM43.8042 10.127V12.0752H45.1592V13.6279H43.8042V17.583C43.8042 17.876 43.8604 18.0859 43.9727 18.2129C44.085 18.3398 44.2998 18.4033 44.6172 18.4033C44.8516 18.4033 45.0591 18.3862 45.2397 18.3521V19.9561C44.8247 20.083 44.3975 20.1465 43.958 20.1465C42.4736 20.1465 41.7168 19.397 41.6875 17.8979V13.6279H40.5303V12.0752H41.6875V10.127H43.8042ZM46.4482 18.96C46.4482 18.623 46.5605 18.3496 46.7852 18.1396C47.0146 17.9297 47.3003 17.8247 47.6421 17.8247C47.9888 17.8247 48.2744 17.9297 48.499 18.1396C48.7285 18.3496 48.8433 18.623 48.8433 18.96C48.8433 19.292 48.731 19.563 48.5063 19.7729C48.2817 19.978 47.9937 20.0806 47.6421 20.0806C47.2954 20.0806 47.0098 19.978 46.7852 19.7729C46.5605 19.563 46.4482 19.292 46.4482 18.96ZM57.8374 16.1108C57.8374 17.3315 57.5591 18.3105 57.0024 19.0479C56.4507 19.7803 55.7036 20.1465 54.7612 20.1465C53.9604 20.1465 53.3135 19.8682 52.8203 19.3115V23.0469H50.7036V12.0752H52.6665L52.7397 12.8516C53.2524 12.2363 53.9214 11.9287 54.7466 11.9287C55.7231 11.9287 56.4824 12.29 57.0244 13.0127C57.5664 13.7354 57.8374 14.7314 57.8374 16.001V16.1108ZM55.7207 15.957C55.7207 15.2197 55.5889 14.6509 55.3252 14.2505C55.0664 13.8501 54.688 13.6499 54.1899 13.6499C53.5259 13.6499 53.0693 13.9038 52.8203 14.4116V17.6562C53.0791 18.1787 53.5405 18.4399 54.2046 18.4399C55.2153 18.4399 55.7207 17.6123 55.7207 15.957ZM62.0269 17.0044L63.4917 12.0752H65.7622L62.5762 21.2305L62.4004 21.6479C61.9268 22.6831 61.1455 23.2007 60.0566 23.2007C59.749 23.2007 59.4365 23.1543 59.1191 23.0615V21.4575L59.4414 21.4648C59.8418 21.4648 60.1396 21.4038 60.335 21.2817C60.5352 21.1597 60.6914 20.957 60.8037 20.6738L61.0527 20.022L58.2769 12.0752H60.5547L62.0269 17.0044Z" fill="white"/>
<path d="M10.135 47.13L7.72 43.56H10.09L10.855 44.76C10.965 44.97 11.09 45.185 11.23 45.405C11.37 45.615 11.505 45.825 11.635 46.035H11.695C11.795 45.825 11.895 45.61 11.995 45.39C12.105 45.17 12.21 44.96 12.31 44.76L12.97 43.56H15.28L12.85 47.385L15.43 51H13.06L12.205 49.77C12.065 49.56 11.92 49.345 11.77 49.125C11.63 48.905 11.49 48.69 11.35 48.48H11.29C11.18 48.69 11.065 48.905 10.945 49.125C10.825 49.335 10.71 49.55 10.6 49.77L9.865 51H7.555L10.135 47.13ZM26.0383 43.53H32.9383V45.09H26.0383V43.53ZM26.0383 46.995H32.9383V48.555H26.0383V46.995ZM174.775 90.685C173.795 89.815 173.02 88.81 172.45 87.67C171.89 86.53 171.61 85.25 171.61 83.83C171.61 82.41 171.89 81.13 172.45 79.99C173.02 78.85 173.795 77.845 174.775 76.975L176.005 77.95C175.115 78.82 174.465 79.725 174.055 80.665C173.655 81.595 173.455 82.65 173.455 83.83C173.455 84.42 173.505 84.98 173.605 85.51C173.705 86.03 173.855 86.53 174.055 87.01C174.265 87.49 174.53 87.95 174.85 88.39C175.17 88.84 175.555 89.28 176.005 89.71L174.775 90.685ZM179.779 89.71C180.229 89.28 180.614 88.84 180.934 88.39C181.254 87.95 181.514 87.49 181.714 87.01C181.924 86.53 182.079 86.03 182.179 85.51C182.279 84.98 182.329 84.42 182.329 83.83C182.329 82.65 182.124 81.595 181.714 80.665C181.314 79.725 180.669 78.82 179.779 77.95L181.009 76.975C181.989 77.845 182.759 78.85 183.319 79.99C183.889 81.13 184.174 82.41 184.174 83.83C184.174 85.25 183.889 86.53 183.319 87.67C182.759 88.81 181.989 89.815 181.009 90.685L179.779 89.71ZM189.643 81.58C189.643 81.33 189.683 81.1 189.763 80.89C189.853 80.67 189.973 80.48 190.123 80.32C190.273 80.16 190.453 80.035 190.663 79.945C190.883 79.855 191.123 79.81 191.383 79.81C191.643 79.81 191.878 79.855 192.088 79.945C192.308 80.035 192.493 80.16 192.643 80.32C192.793 80.48 192.908 80.67 192.988 80.89C193.078 81.1 193.123 81.33 193.123 81.58C193.123 82.08 192.963 82.5 192.643 82.84C192.323 83.17 191.903 83.335 191.383 83.335C190.863 83.335 190.443 83.17 190.123 82.84C189.803 82.5 189.643 82.08 189.643 81.58ZM189.643 86.425C189.643 86.175 189.683 85.945 189.763 85.735C189.853 85.515 189.973 85.325 190.123 85.165C190.273 85.005 190.453 84.88 190.663 84.79C190.883 84.7 191.123 84.655 191.383 84.655C191.643 84.655 191.878 84.7 192.088 84.79C192.308 84.88 192.493 85.005 192.643 85.165C192.793 85.325 192.908 85.515 192.988 85.735C193.078 85.945 193.123 86.175 193.123 86.425C193.123 86.925 192.963 87.345 192.643 87.685C192.323 88.015 191.903 88.18 191.383 88.18C190.863 88.18 190.443 88.015 190.123 87.685C189.803 87.345 189.643 86.925 189.643 86.425ZM46.1116 103.13L43.6966 99.56H46.0666L46.8316 100.76C46.9416 100.97 47.0666 101.185 47.2066 101.405C47.3466 101.615 47.4816 101.825 47.6116 102.035H47.6716C47.7716 101.825 47.8716 101.61 47.9716 101.39C48.0816 101.17 48.1866 100.96 48.2866 100.76L48.9466 99.56H51.2566L48.8266 103.385L51.4066 107H49.0366L48.1816 105.77C48.0416 105.56 47.8966 105.345 47.7466 105.125C47.6066 104.905 47.4666 104.69 47.3266 104.48H47.2666C47.1566 104.69 47.0416 104.905 46.9216 105.125C46.8016 105.335 46.6866 105.55 46.5766 105.77L45.8416 107H43.5316L46.1116 103.13ZM62.0148 99.53H68.9148V101.09H62.0148V99.53ZM62.0148 102.995H68.9148V104.555H62.0148V102.995ZM90.7073 105.425C90.7073 105.175 90.7473 104.945 90.8273 104.735C90.9173 104.515 91.0373 104.325 91.1873 104.165C91.3373 104.005 91.5173 103.88 91.7273 103.79C91.9473 103.7 92.1873 103.655 92.4473 103.655C92.7073 103.655 92.9423 103.7 93.1523 103.79C93.3723 103.88 93.5573 104.005 93.7073 104.165C93.8573 104.325 93.9723 104.515 94.0523 104.735C94.1423 104.945 94.1873 105.175 94.1873 105.425C94.1873 105.925 94.0273 106.345 93.7073 106.685C93.3873 107.015 92.9673 107.18 92.4473 107.18C91.9273 107.18 91.5073 107.015 91.1873 106.685C90.8673 106.345 90.7073 105.925 90.7073 105.425ZM93.8273 128.685C92.8473 127.815 92.0723 126.81 91.5023 125.67C90.9423 124.53 90.6623 123.25 90.6623 121.83C90.6623 120.41 90.9423 119.13 91.5023 117.99C92.0723 116.85 92.8473 115.845 93.8273 114.975L95.0573 115.95C94.1673 116.82 93.5173 117.725 93.1073 118.665C92.7073 119.595 92.5073 120.65 92.5073 121.83C92.5073 122.42 92.5573 122.98 92.6573 123.51C92.7573 124.03 92.9073 124.53 93.1073 125.01C93.3173 125.49 93.5823 125.95 93.9023 126.39C94.2223 126.84 94.6073 127.28 95.0573 127.71L93.8273 128.685ZM100.076 122.13L97.6614 118.56H100.031L100.796 119.76C100.906 119.97 101.031 120.185 101.171 120.405C101.311 120.615 101.446 120.825 101.576 121.035H101.636C101.736 120.825 101.836 120.61 101.936 120.39C102.046 120.17 102.151 119.96 102.251 119.76L102.911 118.56H105.221L102.791 122.385L105.371 126H103.001L102.146 124.77C102.006 124.56 101.861 124.345 101.711 124.125C101.571 123.905 101.431 123.69 101.291 123.48H101.231C101.121 123.69 101.006 123.905 100.886 124.125C100.766 124.335 100.651 124.55 100.541 124.77L99.8064 126H97.4964L100.076 122.13ZM107.826 127.71C108.276 127.28 108.661 126.84 108.981 126.39C109.301 125.95 109.561 125.49 109.761 125.01C109.971 124.53 110.126 124.03 110.226 123.51C110.326 122.98 110.376 122.42 110.376 121.83C110.376 120.65 110.171 119.595 109.761 118.665C109.361 117.725 108.716 116.82 107.826 115.95L109.056 114.975C110.036 115.845 110.806 116.85 111.366 117.99C111.936 119.13 112.221 120.41 112.221 121.83C112.221 123.25 111.936 124.53 111.366 125.67C110.806 126.81 110.036 127.815 109.056 128.685L107.826 127.71ZM10.285 164.585V166.76H8.08V156.56H9.88L10.045 157.31H10.09C10.39 157.04 10.735 156.82 11.125 156.65C11.515 156.47 11.91 156.38 12.31 156.38C12.77 156.38 13.185 156.47 13.555 156.65C13.925 156.83 14.24 157.085 14.5 157.415C14.76 157.745 14.955 158.145 15.085 158.615C15.225 159.075 15.295 159.59 15.295 160.16C15.295 160.8 15.205 161.37 15.025 161.87C14.845 162.36 14.605 162.78 14.305 163.13C14.005 163.47 13.66 163.73 13.27 163.91C12.89 164.09 12.49 164.18 12.07 164.18C11.39 164.18 10.77 163.91 10.21 163.37L10.285 164.585ZM10.285 161.885C10.495 162.065 10.71 162.195 10.93 162.275C11.16 162.345 11.37 162.38 11.56 162.38C11.98 162.38 12.33 162.21 12.61 161.87C12.89 161.52 13.03 160.96 13.03 160.19C13.03 158.85 12.575 158.18 11.665 158.18C11.195 158.18 10.735 158.41 10.285 158.87V161.885ZM17.7341 156.56H19.5341L19.7141 158.18H19.7591C20.1291 157.57 20.5741 157.12 21.0941 156.83C21.6141 156.53 22.1741 156.38 22.7741 156.38C23.1041 156.38 23.3691 156.405 23.5691 156.455C23.7791 156.505 23.9941 156.58 24.2141 156.68L23.7641 158.525C23.5341 158.455 23.3241 158.405 23.1341 158.375C22.9541 158.335 22.7241 158.315 22.4441 158.315C21.9841 158.315 21.5291 158.45 21.0791 158.72C20.6391 158.99 20.2591 159.46 19.9391 160.13V164H17.7341V156.56ZM26.1733 156.56H31.3633V164H29.1583V158.285H26.1733V156.56ZM30.1633 155.465C29.7333 155.465 29.3783 155.345 29.0983 155.105C28.8283 154.865 28.6933 154.54 28.6933 154.13C28.6933 153.72 28.8283 153.39 29.0983 153.14C29.3783 152.88 29.7333 152.75 30.1633 152.75C30.5933 152.75 30.9433 152.88 31.2133 153.14C31.4933 153.39 31.6333 153.72 31.6333 154.13C31.6333 154.54 31.4933 154.865 31.2133 155.105C30.9433 155.345 30.5933 155.465 30.1633 155.465ZM35.0624 156.56H36.8624L37.0274 157.55H37.0874C37.4074 157.23 37.7724 156.955 38.1824 156.725C38.6024 156.495 39.0924 156.38 39.6524 156.38C40.4924 156.38 41.1074 156.65 41.4974 157.19C41.8874 157.73 42.0824 158.47 42.0824 159.41V164H39.8774V159.695C39.8774 159.195 39.7974 158.83 39.6374 158.6C39.4774 158.37 39.1924 158.255 38.7824 158.255C38.4824 158.255 38.2174 158.32 37.9874 158.45C37.7674 158.58 37.5274 158.775 37.2674 159.035V164H35.0624V156.56ZM45.5866 158.285H43.7116V156.65L45.6916 156.56L45.9766 154.58H47.7916V156.56H50.9416V158.285H47.7916V160.895C47.7916 161.465 47.9166 161.87 48.1666 162.11C48.4166 162.34 48.8116 162.455 49.3516 162.455C49.6416 162.455 49.9066 162.43 50.1466 162.38C50.3866 162.33 50.6166 162.265 50.8366 162.185L51.2266 163.775C50.8966 163.875 50.5266 163.965 50.1166 164.045C49.7166 164.135 49.2766 164.18 48.7966 164.18C48.2066 164.18 47.7066 164.1 47.2966 163.94C46.8866 163.78 46.5516 163.56 46.2916 163.28C46.0416 162.99 45.8616 162.645 45.7516 162.245C45.6416 161.845 45.5866 161.4 45.5866 160.91V158.285ZM60.0707 164.81V166.46H52.8707V164.81H60.0707ZM61.9698 160.28C61.9698 159.66 62.0848 159.11 62.3148 158.63C62.5548 158.14 62.8698 157.73 63.2598 157.4C63.6598 157.07 64.1198 156.82 64.6398 156.65C65.1598 156.47 65.7048 156.38 66.2748 156.38C66.8648 156.38 67.3948 156.475 67.8648 156.665C68.3448 156.855 68.7448 157.095 69.0648 157.385L68.0448 158.75C67.4948 158.36 66.9448 158.165 66.3948 158.165C65.7548 158.165 65.2348 158.355 64.8348 158.735C64.4348 159.115 64.2348 159.63 64.2348 160.28C64.2348 160.93 64.4248 161.445 64.8048 161.825C65.1948 162.205 65.6998 162.395 66.3198 162.395C66.7098 162.395 67.0698 162.325 67.3998 162.185C67.7298 162.045 68.0248 161.88 68.2848 161.69L69.1848 163.085C68.7348 163.465 68.2348 163.745 67.6848 163.925C67.1448 164.095 66.6198 164.18 66.1098 164.18C65.5198 164.18 64.9748 164.095 64.4748 163.925C63.9748 163.745 63.5348 163.49 63.1548 163.16C62.7848 162.83 62.4948 162.425 62.2848 161.945C62.0748 161.455 61.9698 160.9 61.9698 160.28ZM70.664 160.28C70.664 159.66 70.769 159.11 70.979 158.63C71.189 158.14 71.469 157.73 71.819 157.4C72.179 157.07 72.584 156.82 73.034 156.65C73.494 156.47 73.969 156.38 74.459 156.38C74.949 156.38 75.419 156.47 75.869 156.65C76.329 156.82 76.734 157.07 77.084 157.4C77.444 157.73 77.729 158.14 77.939 158.63C78.149 159.11 78.254 159.66 78.254 160.28C78.254 160.9 78.149 161.455 77.939 161.945C77.729 162.425 77.444 162.83 77.084 163.16C76.734 163.49 76.329 163.745 75.869 163.925C75.419 164.095 74.949 164.18 74.459 164.18C73.969 164.18 73.494 164.095 73.034 163.925C72.584 163.745 72.179 163.49 71.819 163.16C71.469 162.83 71.189 162.425 70.979 161.945C70.769 161.455 70.664 160.9 70.664 160.28ZM72.929 160.28C72.929 160.93 73.054 161.445 73.304 161.825C73.564 162.205 73.949 162.395 74.459 162.395C74.969 162.395 75.349 162.205 75.599 161.825C75.859 161.445 75.989 160.93 75.989 160.28C75.989 159.63 75.859 159.115 75.599 158.735C75.349 158.355 74.969 158.165 74.459 158.165C73.949 158.165 73.564 158.355 73.304 158.735C73.054 159.115 72.929 159.63 72.929 160.28ZM80.0331 156.56H81.8331L81.9981 157.55H82.0581C82.3781 157.23 82.7431 156.955 83.1531 156.725C83.5731 156.495 84.0631 156.38 84.6231 156.38C85.4631 156.38 86.0781 156.65 86.4681 157.19C86.8581 157.73 87.0531 158.47 87.0531 159.41V164H84.8481V159.695C84.8481 159.195 84.7681 158.83 84.6081 158.6C84.4481 158.37 84.1631 158.255 83.7531 158.255C83.4531 158.255 83.1881 158.32 82.9581 158.45C82.7381 158.58 82.4981 158.775 82.2381 159.035V164H80.0331V156.56ZM89.7323 161.66C90.1623 161.93 90.5923 162.145 91.0223 162.305C91.4623 162.465 91.9323 162.545 92.4323 162.545C92.9423 162.545 93.3073 162.49 93.5273 162.38C93.7473 162.27 93.8573 162.115 93.8573 161.915C93.8573 161.685 93.6723 161.5 93.3023 161.36C92.9423 161.21 92.4623 161.05 91.8623 160.88C91.5323 160.79 91.2073 160.685 90.8873 160.565C90.5773 160.435 90.2973 160.285 90.0473 160.115C89.7973 159.935 89.5923 159.73 89.4323 159.5C89.2823 159.27 89.2073 159.005 89.2073 158.705C89.2073 158.365 89.2873 158.05 89.4473 157.76C89.6073 157.47 89.8323 157.225 90.1223 157.025C90.4223 156.825 90.7823 156.67 91.2023 156.56C91.6323 156.44 92.1123 156.38 92.6423 156.38C93.3023 156.38 93.9023 156.49 94.4423 156.71C94.9923 156.92 95.4623 157.15 95.8523 157.4L94.8623 158.72C94.5223 158.52 94.1723 158.355 93.8123 158.225C93.4523 158.085 93.0773 158.015 92.6873 158.015C92.2173 158.015 91.8823 158.065 91.6823 158.165C91.4923 158.265 91.3973 158.41 91.3973 158.6C91.3973 158.71 91.4473 158.81 91.5473 158.9C91.6473 158.99 91.7823 159.07 91.9523 159.14C92.1223 159.21 92.3223 159.28 92.5523 159.35C92.7923 159.41 93.0423 159.475 93.3023 159.545C93.6723 159.645 94.0223 159.76 94.3523 159.89C94.6823 160.01 94.9723 160.155 95.2223 160.325C95.4723 160.495 95.6723 160.7 95.8223 160.94C95.9723 161.18 96.0473 161.46 96.0473 161.78C96.0473 162.12 95.9673 162.435 95.8073 162.725C95.6473 163.015 95.4123 163.27 95.1023 163.49C94.8023 163.7 94.4223 163.87 93.9623 164C93.5123 164.12 92.9873 164.18 92.3873 164.18C91.7173 164.18 91.0623 164.07 90.4223 163.85C89.7823 163.63 89.2223 163.36 88.7423 163.04L89.7323 161.66ZM99.5514 158.285H97.6764V156.65L99.6564 156.56L99.9414 154.58H101.756V156.56H104.906V158.285H101.756V160.895C101.756 161.465 101.881 161.87 102.131 162.11C102.381 162.34 102.776 162.455 103.316 162.455C103.606 162.455 103.871 162.43 104.111 162.38C104.351 162.33 104.581 162.265 104.801 162.185L105.191 163.775C104.861 163.875 104.491 163.965 104.081 164.045C103.681 164.135 103.241 164.18 102.761 164.18C102.171 164.18 101.671 164.1 101.261 163.94C100.851 163.78 100.516 163.56 100.256 163.28C100.006 162.99 99.8264 162.645 99.7164 162.245C99.6064 161.845 99.5514 161.4 99.5514 160.91V158.285ZM106.851 161.93C106.851 161.51 106.941 161.145 107.121 160.835C107.301 160.515 107.586 160.245 107.976 160.025C108.376 159.805 108.886 159.63 109.506 159.5C110.126 159.36 110.876 159.265 111.756 159.215C111.716 158.875 111.566 158.61 111.306 158.42C111.056 158.23 110.676 158.135 110.166 158.135C109.806 158.135 109.441 158.2 109.071 158.33C108.711 158.45 108.321 158.615 107.901 158.825L107.121 157.385C107.631 157.095 108.176 156.855 108.756 156.665C109.346 156.475 109.961 156.38 110.601 156.38C111.641 156.38 112.461 156.655 113.061 157.205C113.661 157.755 113.961 158.6 113.961 159.74V164H112.161L111.996 163.16H111.936C111.556 163.45 111.141 163.695 110.691 163.895C110.241 164.085 109.776 164.18 109.296 164.18C108.916 164.18 108.576 164.12 108.276 164C107.976 163.89 107.721 163.735 107.511 163.535C107.301 163.325 107.136 163.085 107.016 162.815C106.906 162.545 106.851 162.25 106.851 161.93ZM108.966 161.765C108.966 162.005 109.056 162.185 109.236 162.305C109.426 162.415 109.681 162.47 110.001 162.47C110.331 162.47 110.641 162.405 110.931 162.275C111.221 162.135 111.496 161.965 111.756 161.765V160.535C111.206 160.565 110.751 160.615 110.391 160.685C110.031 160.755 109.746 160.845 109.536 160.955C109.326 161.055 109.176 161.175 109.086 161.315C109.006 161.455 108.966 161.605 108.966 161.765ZM116.01 156.56H117.81L117.975 157.55H118.035C118.355 157.23 118.72 156.955 119.13 156.725C119.55 156.495 120.04 156.38 120.6 156.38C121.44 156.38 122.055 156.65 122.445 157.19C122.835 157.73 123.03 158.47 123.03 159.41V164H120.825V159.695C120.825 159.195 120.745 158.83 120.585 158.6C120.425 158.37 120.14 158.255 119.73 158.255C119.43 158.255 119.165 158.32 118.935 158.45C118.715 158.58 118.475 158.775 118.215 159.035V164H116.01V156.56ZM126.534 158.285H124.659V156.65L126.639 156.56L126.924 154.58H128.739V156.56H131.889V158.285H128.739V160.895C128.739 161.465 128.864 161.87 129.114 162.11C129.364 162.34 129.759 162.455 130.299 162.455C130.589 162.455 130.854 162.43 131.094 162.38C131.334 162.33 131.564 162.265 131.784 162.185L132.174 163.775C131.844 163.875 131.474 163.965 131.064 164.045C130.664 164.135 130.224 164.18 129.744 164.18C129.154 164.18 128.654 164.1 128.244 163.94C127.834 163.78 127.499 163.56 127.239 163.28C126.989 162.99 126.809 162.645 126.699 162.245C126.589 161.845 126.534 161.4 126.534 160.91V158.285ZM138.798 166.685C137.818 165.815 137.043 164.81 136.473 163.67C135.913 162.53 135.633 161.25 135.633 159.83C135.633 158.41 135.913 157.13 136.473 155.99C137.043 154.85 137.818 153.845 138.798 152.975L140.028 153.95C139.138 154.82 138.488 155.725 138.078 156.665C137.678 157.595 137.478 158.65 137.478 159.83C137.478 160.42 137.528 160.98 137.628 161.51C137.728 162.03 137.878 162.53 138.078 163.01C138.288 163.49 138.553 163.95 138.873 164.39C139.193 164.84 139.578 165.28 140.028 165.71L138.798 166.685ZM143.802 165.71C144.252 165.28 144.637 164.84 144.957 164.39C145.277 163.95 145.537 163.49 145.737 163.01C145.947 162.53 146.102 162.03 146.202 161.51C146.302 160.98 146.352 160.42 146.352 159.83C146.352 158.65 146.147 157.595 145.737 156.665C145.337 155.725 144.692 154.82 143.802 153.95L145.032 152.975C146.012 153.845 146.782 154.85 147.342 155.99C147.912 157.13 148.197 158.41 148.197 159.83C148.197 161.25 147.912 162.53 147.342 163.67C146.782 164.81 146.012 165.815 145.032 166.685L143.802 165.71ZM10.135 179.13L7.72 175.56H10.09L10.855 176.76C10.965 176.97 11.09 177.185 11.23 177.405C11.37 177.615 11.505 177.825 11.635 178.035H11.695C11.795 177.825 11.895 177.61 11.995 177.39C12.105 177.17 12.21 176.96 12.31 176.76L12.97 175.56H15.28L12.85 179.385L15.43 183H13.06L12.205 181.77C12.065 181.56 11.92 181.345 11.77 181.125C11.63 180.905 11.49 180.69 11.35 180.48H11.29C11.18 180.69 11.065 180.905 10.945 181.125C10.825 181.335 10.71 181.55 10.6 181.77L9.865 183H7.555L10.135 179.13Z" fill="white"/>
<path d="M51.0316 49.215V51H44.2066V49.215H46.6666V43.71H44.7016V42.345C45.2616 42.245 45.7366 42.125 46.1266 41.985C46.5266 41.845 46.9016 41.675 47.2516 41.475H48.8716V49.215H51.0316ZM56.4707 51.18C55.9207 51.18 55.4207 51.075 54.9707 50.865C54.5207 50.645 54.1357 50.325 53.8157 49.905C53.4957 49.485 53.2457 48.965 53.0657 48.345C52.8957 47.725 52.8107 47.01 52.8107 46.2C52.8107 45.39 52.8957 44.68 53.0657 44.07C53.2457 43.46 53.4957 42.95 53.8157 42.54C54.1357 42.12 54.5207 41.81 54.9707 41.61C55.4207 41.4 55.9207 41.295 56.4707 41.295C57.0207 41.295 57.5207 41.4 57.9707 41.61C58.4207 41.81 58.8057 42.12 59.1257 42.54C59.4457 42.95 59.6907 43.46 59.8607 44.07C60.0407 44.68 60.1307 45.39 60.1307 46.2C60.1307 47.01 60.0407 47.725 59.8607 48.345C59.6907 48.965 59.4457 49.485 59.1257 49.905C58.8057 50.325 58.4207 50.645 57.9707 50.865C57.5207 51.075 57.0207 51.18 56.4707 51.18ZM56.4707 43.005C56.2307 43.005 56.0057 43.055 55.7957 43.155C55.5957 43.255 55.4207 43.43 55.2707 43.68C55.1207 43.92 55.0007 44.245 54.9107 44.655C54.8207 45.065 54.7757 45.58 54.7757 46.2C54.7757 46.82 54.8207 47.34 54.9107 47.76C55.0007 48.17 55.1207 48.505 55.2707 48.765C55.4207 49.015 55.5957 49.195 55.7957 49.305C56.0057 49.415 56.2307 49.47 56.4707 49.47C56.7107 49.47 56.9307 49.415 57.1307 49.305C57.3407 49.195 57.5207 49.015 57.6707 48.765C57.8207 48.505 57.9407 48.17 58.0307 47.76C58.1207 47.34 58.1657 46.82 58.1657 46.2C58.1657 45.58 58.1207 45.065 58.0307 44.655C57.9407 44.245 57.8207 43.92 57.6707 43.68C57.5207 43.43 57.3407 43.255 57.1307 43.155C56.9307 43.055 56.7107 43.005 56.4707 43.005ZM56.4707 47.31C56.1507 47.31 55.8807 47.21 55.6607 47.01C55.4507 46.8 55.3457 46.52 55.3457 46.17C55.3457 45.82 55.4507 45.545 55.6607 45.345C55.8807 45.135 56.1507 45.03 56.4707 45.03C56.7907 45.03 57.0557 45.135 57.2657 45.345C57.4857 45.545 57.5957 45.82 57.5957 46.17C57.5957 46.52 57.4857 46.8 57.2657 47.01C57.0557 47.21 56.7907 47.31 56.4707 47.31ZM80.6031 104.435C80.9231 104.715 81.2781 104.945 81.6681 105.125C82.0681 105.305 82.4881 105.395 82.9281 105.395C83.4481 105.395 83.8731 105.3 84.2031 105.11C84.5431 104.91 84.7131 104.63 84.7131 104.27C84.7131 104.06 84.6681 103.87 84.5781 103.7C84.4881 103.53 84.3331 103.39 84.1131 103.28C83.8931 103.16 83.5981 103.07 83.2281 103.01C82.8581 102.94 82.3931 102.905 81.8331 102.905V101.345C82.7731 101.345 83.4331 101.23 83.8131 101C84.2031 100.76 84.3981 100.45 84.3981 100.07C84.3981 99.74 84.2731 99.485 84.0231 99.305C83.7731 99.115 83.4281 99.02 82.9881 99.02C82.6081 99.02 82.2581 99.095 81.9381 99.245C81.6181 99.395 81.2931 99.6 80.9631 99.86L79.8531 98.51C80.3231 98.13 80.8231 97.835 81.3531 97.625C81.8931 97.405 82.4731 97.295 83.0931 97.295C83.6131 97.295 84.0881 97.355 84.5181 97.475C84.9481 97.585 85.3181 97.755 85.6281 97.985C85.9381 98.205 86.1781 98.475 86.3481 98.795C86.5181 99.115 86.6031 99.485 86.6031 99.905C86.6031 100.405 86.4431 100.83 86.1231 101.18C85.8031 101.52 85.3581 101.8 84.7881 102.02V102.08C85.3881 102.24 85.8931 102.515 86.3031 102.905C86.7131 103.285 86.9181 103.785 86.9181 104.405C86.9181 104.845 86.8131 105.24 86.6031 105.59C86.4031 105.93 86.1281 106.22 85.7781 106.46C85.4381 106.69 85.0381 106.87 84.5781 107C84.1181 107.12 83.6381 107.18 83.1381 107.18C82.3181 107.18 81.6131 107.06 81.0231 106.82C80.4331 106.57 79.9531 106.24 79.5831 105.83L80.6031 104.435ZM104.996 105.215V107H98.1714V105.215H100.631V99.71H98.6664V98.345C99.2264 98.245 99.7014 98.125 100.091 97.985C100.491 97.845 100.866 97.675 101.216 97.475H102.836V105.215H104.996ZM111.051 103.04V101.435C111.051 101.135 111.056 100.79 111.066 100.4C111.086 100 111.106 99.65 111.126 99.35H111.066C110.906 99.62 110.736 99.89 110.556 100.16C110.376 100.43 110.201 100.7 110.031 100.97L108.591 103.04H111.051ZM114.306 104.72H113.106V107H111.051V104.72H106.461V103.205L110.436 97.475H113.106V103.04H114.306V104.72Z" fill="#F0E442"/>
<path d="M7.705 84.28C7.705 83.67 7.795 83.125 7.975 82.645C8.155 82.165 8.39 81.76 8.68 81.43C8.98 81.09 9.32 80.83 9.7 80.65C10.08 80.47 10.475 80.38 10.885 80.38C11.315 80.38 11.675 80.455 11.965 80.605C12.255 80.745 12.53 80.935 12.79 81.175L12.715 80.02V77.485H14.92V88H13.12L12.955 87.235H12.91C12.63 87.505 12.31 87.73 11.95 87.91C11.59 88.09 11.22 88.18 10.84 88.18C10.37 88.18 9.94 88.09 9.55 87.91C9.17 87.73 8.84 87.475 8.56 87.145C8.29 86.805 8.08 86.395 7.93 85.915C7.78 85.435 7.705 84.89 7.705 84.28ZM9.97 84.25C9.97 84.99 10.095 85.53 10.345 85.87C10.595 86.21 10.95 86.38 11.41 86.38C11.66 86.38 11.89 86.33 12.1 86.23C12.31 86.12 12.515 85.94 12.715 85.69V82.675C12.515 82.495 12.31 82.37 12.1 82.3C11.9 82.22 11.69 82.18 11.47 82.18C11.06 82.18 10.705 82.35 10.405 82.69C10.115 83.03 9.97 83.55 9.97 84.25ZM16.8191 84.28C16.8191 83.67 16.9241 83.125 17.1341 82.645C17.3541 82.165 17.6441 81.76 18.0041 81.43C18.3641 81.09 18.7741 80.83 19.2341 80.65C19.7041 80.47 20.1891 80.38 20.6891 80.38C21.2591 80.38 21.7641 80.47 22.2041 80.65C22.6441 80.83 23.0091 81.08 23.2991 81.4C23.5891 81.72 23.8091 82.1 23.9591 82.54C24.1091 82.97 24.1841 83.44 24.1841 83.95C24.1841 84.15 24.1741 84.34 24.1541 84.52C24.1341 84.7 24.1141 84.835 24.0941 84.925H19.0841C19.1641 85.485 19.4041 85.89 19.8041 86.14C20.2141 86.38 20.6941 86.5 21.2441 86.5C21.5841 86.5 21.9041 86.46 22.2041 86.38C22.5141 86.29 22.8341 86.16 23.1641 85.99L23.8841 87.31C23.4641 87.58 22.9941 87.795 22.4741 87.955C21.9541 88.105 21.4441 88.18 20.9441 88.18C20.3641 88.18 19.8241 88.095 19.3241 87.925C18.8241 87.745 18.3891 87.49 18.0191 87.16C17.6491 86.82 17.3541 86.41 17.1341 85.93C16.9241 85.45 16.8191 84.9 16.8191 84.28ZM22.1891 83.47C22.1891 83.05 22.0741 82.71 21.8441 82.45C21.6141 82.19 21.2441 82.06 20.7341 82.06C20.3341 82.06 19.9791 82.175 19.6691 82.405C19.3591 82.635 19.1541 82.99 19.0541 83.47H22.1891ZM33.3433 79.33C32.8533 79.14 32.3333 79.045 31.7833 79.045C31.3033 79.045 30.9483 79.15 30.7183 79.36C30.4983 79.57 30.3883 79.9 30.3883 80.35V80.56H32.9533V82.285H30.3883V88H28.1833V82.285H26.2183V80.65L28.1833 80.56V80.365C28.1833 79.935 28.2483 79.535 28.3783 79.165C28.5083 78.795 28.7083 78.475 28.9783 78.205C29.2483 77.925 29.5933 77.705 30.0133 77.545C30.4333 77.385 30.9333 77.305 31.5133 77.305C31.9433 77.305 32.3433 77.345 32.7133 77.425C33.0933 77.505 33.4433 77.6 33.7633 77.71L33.3433 79.33Z" fill="#E69F00"/>
<path d="M46.2616 88.585V90.76H44.0566V80.56H45.8566L46.0216 81.31H46.0666C46.3666 81.04 46.7116 80.82 47.1016 80.65C47.4916 80.47 47.8866 80.38 48.2866 80.38C48.7466 80.38 49.1616 80.47 49.5316 80.65C49.9016 80.83 50.2166 81.085 50.4766 81.415C50.7366 81.745 50.9316 82.145 51.0616 82.615C51.2016 83.075 51.2716 83.59 51.2716 84.16C51.2716 84.8 51.1816 85.37 51.0016 85.87C50.8216 86.36 50.5816 86.78 50.2816 87.13C49.9816 87.47 49.6366 87.73 49.2466 87.91C48.8666 88.09 48.4666 88.18 48.0466 88.18C47.3666 88.18 46.7466 87.91 46.1866 87.37L46.2616 88.585ZM46.2616 85.885C46.4716 86.065 46.6866 86.195 46.9066 86.275C47.1366 86.345 47.3466 86.38 47.5366 86.38C47.9566 86.38 48.3066 86.21 48.5866 85.87C48.8666 85.52 49.0066 84.96 49.0066 84.19C49.0066 82.85 48.5516 82.18 47.6416 82.18C47.1716 82.18 46.7116 82.41 46.2616 82.87V85.885ZM53.7107 80.56H55.5107L55.6907 82.18H55.7357C56.1057 81.57 56.5507 81.12 57.0707 80.83C57.5907 80.53 58.1507 80.38 58.7507 80.38C59.0807 80.38 59.3457 80.405 59.5457 80.455C59.7557 80.505 59.9707 80.58 60.1907 80.68L59.7407 82.525C59.5107 82.455 59.3007 82.405 59.1107 82.375C58.9307 82.335 58.7007 82.315 58.4207 82.315C57.9607 82.315 57.5057 82.45 57.0557 82.72C56.6157 82.99 56.2357 83.46 55.9157 84.13V88H53.7107V80.56ZM62.1498 80.56H67.3398V88H65.1348V82.285H62.1498V80.56ZM66.1398 79.465C65.7098 79.465 65.3548 79.345 65.0748 79.105C64.8048 78.865 64.6698 78.54 64.6698 78.13C64.6698 77.72 64.8048 77.39 65.0748 77.14C65.3548 76.88 65.7098 76.75 66.1398 76.75C66.5698 76.75 66.9198 76.88 67.1898 77.14C67.4698 77.39 67.6098 77.72 67.6098 78.13C67.6098 78.54 67.4698 78.865 67.1898 79.105C66.9198 79.345 66.5698 79.465 66.1398 79.465ZM71.039 80.56H72.839L73.004 81.55H73.064C73.384 81.23 73.749 80.955 74.159 80.725C74.579 80.495 75.069 80.38 75.629 80.38C76.469 80.38 77.084 80.65 77.474 81.19C77.864 81.73 78.059 82.47 78.059 83.41V88H75.854V83.695C75.854 83.195 75.774 82.83 75.614 82.6C75.454 82.37 75.169 82.255 74.759 82.255C74.459 82.255 74.194 82.32 73.964 82.45C73.744 82.58 73.504 82.775 73.244 83.035V88H71.039V80.56ZM81.5631 82.285H79.6881V80.65L81.6681 80.56L81.9531 78.58H83.7681V80.56H86.9181V82.285H83.7681V84.895C83.7681 85.465 83.8931 85.87 84.1431 86.11C84.3931 86.34 84.7881 86.455 85.3281 86.455C85.6181 86.455 85.8831 86.43 86.1231 86.38C86.3631 86.33 86.5931 86.265 86.8131 86.185L87.2031 87.775C86.8731 87.875 86.5031 87.965 86.0931 88.045C85.6931 88.135 85.2531 88.18 84.7731 88.18C84.1831 88.18 83.6831 88.1 83.2731 87.94C82.8631 87.78 82.5281 87.56 82.2681 87.28C82.0181 86.99 81.8381 86.645 81.7281 86.245C81.6181 85.845 81.5631 85.4 81.5631 84.91V82.285ZM96.0473 88.81V90.46H88.8473V88.81H96.0473ZM97.9464 84.28C97.9464 83.66 98.0614 83.11 98.2914 82.63C98.5314 82.14 98.8464 81.73 99.2364 81.4C99.6364 81.07 100.096 80.82 100.616 80.65C101.136 80.47 101.681 80.38 102.251 80.38C102.841 80.38 103.371 80.475 103.841 80.665C104.321 80.855 104.721 81.095 105.041 81.385L104.021 82.75C103.471 82.36 102.921 82.165 102.371 82.165C101.731 82.165 101.211 82.355 100.811 82.735C100.411 83.115 100.211 83.63 100.211 84.28C100.211 84.93 100.401 85.445 100.781 85.825C101.171 86.205 101.676 86.395 102.296 86.395C102.686 86.395 103.046 86.325 103.376 86.185C103.706 86.045 104.001 85.88 104.261 85.69L105.161 87.085C104.711 87.465 104.211 87.745 103.661 87.925C103.121 88.095 102.596 88.18 102.086 88.18C101.496 88.18 100.951 88.095 100.451 87.925C99.9514 87.745 99.5114 87.49 99.1314 87.16C98.7614 86.83 98.4714 86.425 98.2614 85.945C98.0514 85.455 97.9464 84.9 97.9464 84.28ZM106.641 84.28C106.641 83.66 106.746 83.11 106.956 82.63C107.166 82.14 107.446 81.73 107.796 81.4C108.156 81.07 108.561 80.82 109.011 80.65C109.471 80.47 109.946 80.38 110.436 80.38C110.926 80.38 111.396 80.47 111.846 80.65C112.306 80.82 112.711 81.07 113.061 81.4C113.421 81.73 113.706 82.14 113.916 82.63C114.126 83.11 114.231 83.66 114.231 84.28C114.231 84.9 114.126 85.455 113.916 85.945C113.706 86.425 113.421 86.83 113.061 87.16C112.711 87.49 112.306 87.745 111.846 87.925C111.396 88.095 110.926 88.18 110.436 88.18C109.946 88.18 109.471 88.095 109.011 87.925C108.561 87.745 108.156 87.49 107.796 87.16C107.446 86.83 107.166 86.425 106.956 85.945C106.746 85.455 106.641 84.9 106.641 84.28ZM108.906 84.28C108.906 84.93 109.031 85.445 109.281 85.825C109.541 86.205 109.926 86.395 110.436 86.395C110.946 86.395 111.326 86.205 111.576 85.825C111.836 85.445 111.966 84.93 111.966 84.28C111.966 83.63 111.836 83.115 111.576 82.735C111.326 82.355 110.946 82.165 110.436 82.165C109.926 82.165 109.541 82.355 109.281 82.735C109.031 83.115 108.906 83.63 108.906 84.28ZM116.01 80.56H117.81L117.975 81.55H118.035C118.355 81.23 118.72 80.955 119.13 80.725C119.55 80.495 120.04 80.38 120.6 80.38C121.44 80.38 122.055 80.65 122.445 81.19C122.835 81.73 123.03 82.47 123.03 83.41V88H120.825V83.695C120.825 83.195 120.745 82.83 120.585 82.6C120.425 82.37 120.14 82.255 119.73 82.255C119.43 82.255 119.165 82.32 118.935 82.45C118.715 82.58 118.475 82.775 118.215 83.035V88H116.01V80.56ZM125.709 85.66C126.139 85.93 126.569 86.145 126.999 86.305C127.439 86.465 127.909 86.545 128.409 86.545C128.919 86.545 129.284 86.49 129.504 86.38C129.724 86.27 129.834 86.115 129.834 85.915C129.834 85.685 129.649 85.5 129.279 85.36C128.919 85.21 128.439 85.05 127.839 84.88C127.509 84.79 127.184 84.685 126.864 84.565C126.554 84.435 126.274 84.285 126.024 84.115C125.774 83.935 125.569 83.73 125.409 83.5C125.259 83.27 125.184 83.005 125.184 82.705C125.184 82.365 125.264 82.05 125.424 81.76C125.584 81.47 125.809 81.225 126.099 81.025C126.399 80.825 126.759 80.67 127.179 80.56C127.609 80.44 128.089 80.38 128.619 80.38C129.279 80.38 129.879 80.49 130.419 80.71C130.969 80.92 131.439 81.15 131.829 81.4L130.839 82.72C130.499 82.52 130.149 82.355 129.789 82.225C129.429 82.085 129.054 82.015 128.664 82.015C128.194 82.015 127.859 82.065 127.659 82.165C127.469 82.265 127.374 82.41 127.374 82.6C127.374 82.71 127.424 82.81 127.524 82.9C127.624 82.99 127.759 83.07 127.929 83.14C128.099 83.21 128.299 83.28 128.529 83.35C128.769 83.41 129.019 83.475 129.279 83.545C129.649 83.645 129.999 83.76 130.329 83.89C130.659 84.01 130.949 84.155 131.199 84.325C131.449 84.495 131.649 84.7 131.799 84.94C131.949 85.18 132.024 85.46 132.024 85.78C132.024 86.12 131.944 86.435 131.784 86.725C131.624 87.015 131.389 87.27 131.079 87.49C130.779 87.7 130.399 87.87 129.939 88C129.489 88.12 128.964 88.18 128.364 88.18C127.694 88.18 127.039 88.07 126.399 87.85C125.759 87.63 125.199 87.36 124.719 87.04L125.709 85.66ZM135.528 82.285H133.653V80.65L135.633 80.56L135.918 78.58H137.733V80.56H140.883V82.285H137.733V84.895C137.733 85.465 137.858 85.87 138.108 86.11C138.358 86.34 138.753 86.455 139.293 86.455C139.583 86.455 139.848 86.43 140.088 86.38C140.328 86.33 140.558 86.265 140.778 86.185L141.168 87.775C140.838 87.875 140.468 87.965 140.058 88.045C139.658 88.135 139.218 88.18 138.738 88.18C138.148 88.18 137.648 88.1 137.238 87.94C136.828 87.78 136.493 87.56 136.233 87.28C135.983 86.99 135.803 86.645 135.693 86.245C135.583 85.845 135.528 85.4 135.528 84.91V82.285ZM142.827 85.93C142.827 85.51 142.917 85.145 143.097 84.835C143.277 84.515 143.562 84.245 143.952 84.025C144.352 83.805 144.862 83.63 145.482 83.5C146.102 83.36 146.852 83.265 147.732 83.215C147.692 82.875 147.542 82.61 147.282 82.42C147.032 82.23 146.652 82.135 146.142 82.135C145.782 82.135 145.417 82.2 145.047 82.33C144.687 82.45 144.297 82.615 143.877 82.825L143.097 81.385C143.607 81.095 144.152 80.855 144.732 80.665C145.322 80.475 145.937 80.38 146.577 80.38C147.617 80.38 148.437 80.655 149.037 81.205C149.637 81.755 149.937 82.6 149.937 83.74V88H148.137L147.972 87.16H147.912C147.532 87.45 147.117 87.695 146.667 87.895C146.217 88.085 145.752 88.18 145.272 88.18C144.892 88.18 144.552 88.12 144.252 88C143.952 87.89 143.697 87.735 143.487 87.535C143.277 87.325 143.112 87.085 142.992 86.815C142.882 86.545 142.827 86.25 142.827 85.93ZM144.942 85.765C144.942 86.005 145.032 86.185 145.212 86.305C145.402 86.415 145.657 86.47 145.977 86.47C146.307 86.47 146.617 86.405 146.907 86.275C147.197 86.135 147.472 85.965 147.732 85.765V84.535C147.182 84.565 146.727 84.615 146.367 84.685C146.007 84.755 145.722 84.845 145.512 84.955C145.302 85.055 145.152 85.175 145.062 85.315C144.982 85.455 144.942 85.605 144.942 85.765ZM151.986 80.56H153.786L153.951 81.55H154.011C154.331 81.23 154.696 80.955 155.106 80.725C155.526 80.495 156.016 80.38 156.576 80.38C157.416 80.38 158.031 80.65 158.421 81.19C158.811 81.73 159.006 82.47 159.006 83.41V88H156.801V83.695C156.801 83.195 156.721 82.83 156.561 82.6C156.401 82.37 156.116 82.255 155.706 82.255C155.406 82.255 155.141 82.32 154.911 82.45C154.691 82.58 154.451 82.775 154.191 83.035V88H151.986V80.56ZM162.51 82.285H160.635V80.65L162.615 80.56L162.9 78.58H164.715V80.56H167.865V82.285H164.715V84.895C164.715 85.465 164.84 85.87 165.09 86.11C165.34 86.34 165.735 86.455 166.275 86.455C166.565 86.455 166.83 86.43 167.07 86.38C167.31 86.33 167.54 86.265 167.76 86.185L168.15 87.775C167.82 87.875 167.45 87.965 167.04 88.045C166.64 88.135 166.2 88.18 165.72 88.18C165.13 88.18 164.63 88.1 164.22 87.94C163.81 87.78 163.475 87.56 163.215 87.28C162.965 86.99 162.785 86.645 162.675 86.245C162.565 85.845 162.51 85.4 162.51 84.91V82.285ZM46.2616 126.585V128.76H44.0566V118.56H45.8566L46.0216 119.31H46.0666C46.3666 119.04 46.7116 118.82 47.1016 118.65C47.4916 118.47 47.8866 118.38 48.2866 118.38C48.7466 118.38 49.1616 118.47 49.5316 118.65C49.9016 118.83 50.2166 119.085 50.4766 119.415C50.7366 119.745 50.9316 120.145 51.0616 120.615C51.2016 121.075 51.2716 121.59 51.2716 122.16C51.2716 122.8 51.1816 123.37 51.0016 123.87C50.8216 124.36 50.5816 124.78 50.2816 125.13C49.9816 125.47 49.6366 125.73 49.2466 125.91C48.8666 126.09 48.4666 126.18 48.0466 126.18C47.3666 126.18 46.7466 125.91 46.1866 125.37L46.2616 126.585ZM46.2616 123.885C46.4716 124.065 46.6866 124.195 46.9066 124.275C47.1366 124.345 47.3466 124.38 47.5366 124.38C47.9566 124.38 48.3066 124.21 48.5866 123.87C48.8666 123.52 49.0066 122.96 49.0066 122.19C49.0066 120.85 48.5516 120.18 47.6416 120.18C47.1716 120.18 46.7116 120.41 46.2616 120.87V123.885ZM53.7107 118.56H55.5107L55.6907 120.18H55.7357C56.1057 119.57 56.5507 119.12 57.0707 118.83C57.5907 118.53 58.1507 118.38 58.7507 118.38C59.0807 118.38 59.3457 118.405 59.5457 118.455C59.7557 118.505 59.9707 118.58 60.1907 118.68L59.7407 120.525C59.5107 120.455 59.3007 120.405 59.1107 120.375C58.9307 120.335 58.7007 120.315 58.4207 120.315C57.9607 120.315 57.5057 120.45 57.0557 120.72C56.6157 120.99 56.2357 121.46 55.9157 122.13V126H53.7107V118.56ZM62.1498 118.56H67.3398V126H65.1348V120.285H62.1498V118.56ZM66.1398 117.465C65.7098 117.465 65.3548 117.345 65.0748 117.105C64.8048 116.865 64.6698 116.54 64.6698 116.13C64.6698 115.72 64.8048 115.39 65.0748 115.14C65.3548 114.88 65.7098 114.75 66.1398 114.75C66.5698 114.75 66.9198 114.88 67.1898 115.14C67.4698 115.39 67.6098 115.72 67.6098 116.13C67.6098 116.54 67.4698 116.865 67.1898 117.105C66.9198 117.345 66.5698 117.465 66.1398 117.465ZM71.039 118.56H72.839L73.004 119.55H73.064C73.384 119.23 73.749 118.955 74.159 118.725C74.579 118.495 75.069 118.38 75.629 118.38C76.469 118.38 77.084 118.65 77.474 119.19C77.864 119.73 78.059 120.47 78.059 121.41V126H75.854V121.695C75.854 121.195 75.774 120.83 75.614 120.6C75.454 120.37 75.169 120.255 74.759 120.255C74.459 120.255 74.194 120.32 73.964 120.45C73.744 120.58 73.504 120.775 73.244 121.035V126H71.039V118.56ZM81.5631 120.285H79.6881V118.65L81.6681 118.56L81.9531 116.58H83.7681V118.56H86.9181V120.285H83.7681V122.895C83.7681 123.465 83.8931 123.87 84.1431 124.11C84.3931 124.34 84.7881 124.455 85.3281 124.455C85.6181 124.455 85.8831 124.43 86.1231 124.38C86.3631 124.33 86.5931 124.265 86.8131 124.185L87.2031 125.775C86.8731 125.875 86.5031 125.965 86.0931 126.045C85.6931 126.135 85.2531 126.18 84.7731 126.18C84.1831 126.18 83.6831 126.1 83.2731 125.94C82.8631 125.78 82.5281 125.56 82.2681 125.28C82.0181 124.99 81.8381 124.645 81.7281 124.245C81.6181 123.845 81.5631 123.4 81.5631 122.91V120.285Z" fill="#56B4E9"/>
<line x1="484" y1="55" x2="484" y2="213" stroke="#D55E00" stroke-width="10" stroke-linecap="round"/>
<path d="M316.713 55.2031L318.286 64.458L323.059 55.2031H326.486L324.263 68H321.679L322.312 64.3525L323.56 58.6572L318.655 68H316.889L315.175 58.332L314.349 64.6338L313.76 68H311.185L313.408 55.2031H316.713ZM331.909 68C331.833 67.7598 331.801 67.4727 331.812 67.1387C331.098 67.8535 330.289 68.1992 329.387 68.1758C328.555 68.1641 327.863 67.8945 327.312 67.3672C326.768 66.834 326.513 66.1777 326.548 65.3984C326.589 64.3613 327.022 63.5674 327.849 63.0166C328.681 62.46 329.794 62.1816 331.188 62.1816L332.349 62.1992L332.472 61.6279C332.507 61.4346 332.516 61.25 332.498 61.0742C332.469 60.7988 332.363 60.585 332.182 60.4326C332.006 60.2744 331.771 60.1924 331.479 60.1865C331.092 60.1748 330.764 60.2715 330.494 60.4766C330.225 60.6758 330.052 60.9658 329.976 61.3467L327.488 61.3555C327.529 60.4473 327.945 59.7119 328.736 59.1494C329.533 58.5811 330.515 58.3027 331.681 58.3145C332.759 58.3379 333.603 58.6602 334.212 59.2812C334.821 59.8965 335.076 60.6904 334.977 61.6631L334.247 66.2158L334.203 66.7783C334.191 67.1943 334.241 67.5459 334.353 67.833L334.344 68H331.909ZM330.002 66.251C330.717 66.2744 331.341 65.9639 331.874 65.3193L332.182 63.6758L331.32 63.667C330.406 63.6904 329.747 63.9688 329.343 64.502C329.196 64.6953 329.105 64.9326 329.07 65.2139C329.023 65.5303 329.088 65.7822 329.264 65.9697C329.445 66.1514 329.691 66.2451 330.002 66.251ZM338.483 68H335.987L337.64 58.4902H340.136L338.483 68ZM337.93 56.0732C337.918 55.6807 338.047 55.3555 338.316 55.0977C338.586 54.8398 338.911 54.7109 339.292 54.7109C339.667 54.6992 339.992 54.8135 340.268 55.0537C340.543 55.2939 340.687 55.6045 340.698 55.9854C340.71 56.3486 340.587 56.665 340.329 56.9346C340.077 57.2041 339.746 57.3447 339.336 57.3564C338.967 57.3682 338.642 57.2568 338.36 57.0225C338.085 56.7881 337.941 56.4717 337.93 56.0732ZM344.513 58.4814L344.302 59.6064C345.063 58.7217 345.986 58.291 347.07 58.3145C347.967 58.332 348.629 58.6602 349.057 59.2988C349.484 59.9375 349.64 60.8223 349.522 61.9531L348.521 68H346.042L347.062 61.9268C347.091 61.6982 347.097 61.4902 347.079 61.3027C347.003 60.7051 346.628 60.3975 345.954 60.3799C345.304 60.3564 344.721 60.6582 344.205 61.2852L343.019 68H340.54L342.192 58.4902L344.513 58.4814ZM364.051 63.2715C363.928 64.2676 363.667 65.1523 363.269 65.9258C362.87 66.6992 362.375 67.2734 361.783 67.6484C361.191 68.0234 360.535 68.2021 359.814 68.1846C358.895 68.1611 358.168 67.8184 357.635 67.1562L356.765 71.6562H354.286L356.562 58.4902L358.848 58.4814L358.681 59.4395C359.366 58.666 360.175 58.291 361.106 58.3145C362.038 58.3379 362.762 58.6777 363.277 59.334C363.793 59.9844 364.068 60.8691 364.104 61.9883C364.115 62.3516 364.098 62.7793 364.051 63.2715ZM361.59 63.0869L361.643 62.2432C361.654 61.6748 361.549 61.2236 361.326 60.8896C361.109 60.5557 360.79 60.3828 360.368 60.3711C359.647 60.3477 359.053 60.6523 358.584 61.2852L357.872 65.2051C358.089 65.7969 358.555 66.1045 359.27 66.1279C359.867 66.1455 360.365 65.9141 360.764 65.4336C361.162 64.9531 361.438 64.1709 361.59 63.0869ZM371.346 60.8721C371.006 60.8135 370.728 60.7842 370.511 60.7842C369.626 60.7607 368.926 61.0918 368.41 61.7773L367.312 68H364.833L366.485 58.4902L368.814 58.4814L368.586 59.6416C369.184 58.7451 369.922 58.2969 370.801 58.2969C371.047 58.2969 371.334 58.3379 371.662 58.4199L371.346 60.8721ZM376.426 58.3145C377.264 58.3262 377.984 58.543 378.588 58.9648C379.197 59.3809 379.643 59.958 379.924 60.6963C380.211 61.4287 380.313 62.2432 380.231 63.1396C380.097 64.6514 379.569 65.876 378.649 66.8135C377.735 67.7451 376.604 68.1992 375.257 68.1758C374.431 68.1641 373.716 67.9531 373.112 67.543C372.509 67.127 372.063 66.5527 371.776 65.8203C371.489 65.0879 371.387 64.2793 371.469 63.3945C371.621 61.8242 372.154 60.5762 373.068 59.6504C373.982 58.7246 375.102 58.2793 376.426 58.3145ZM373.921 64.2998C373.933 64.8623 374.064 65.3076 374.316 65.6357C374.568 65.958 374.923 66.125 375.38 66.1367C376.142 66.1602 376.739 65.8115 377.173 65.0908C377.606 64.3643 377.809 63.4121 377.779 62.2344C377.756 61.6719 377.618 61.2236 377.366 60.8896C377.12 60.5498 376.766 60.374 376.303 60.3623C375.564 60.3389 374.973 60.6875 374.527 61.4082C374.088 62.123 373.886 63.0869 373.921 64.2998ZM381.427 63.2363C381.603 61.7656 382.08 60.5732 382.859 59.6592C383.645 58.7393 384.632 58.2881 385.821 58.3057C386.835 58.3291 387.591 58.6953 388.089 59.4043L388.414 58.4814L390.69 58.4902L389.135 67.6748C388.965 68.9404 388.426 69.9424 387.518 70.6807C386.609 71.4189 385.484 71.7764 384.143 71.7529C383.486 71.7412 382.859 71.5977 382.262 71.3223C381.664 71.0527 381.172 70.6807 380.785 70.2061L382.016 68.6943C382.566 69.3916 383.258 69.752 384.09 69.7754C384.734 69.7988 385.285 69.6289 385.742 69.2656C386.199 68.9082 386.51 68.4014 386.674 67.7451L386.814 67.1738C386.123 67.8652 385.347 68.1992 384.485 68.1758C383.56 68.1641 382.824 67.8213 382.279 67.1475C381.734 66.4678 381.436 65.5859 381.383 64.502C381.365 64.1445 381.38 63.7227 381.427 63.2363ZM383.861 64.2734C383.861 64.8242 383.976 65.2666 384.204 65.6006C384.438 65.9287 384.775 66.1016 385.215 66.1191C385.889 66.1426 386.486 65.8555 387.008 65.2578L387.746 61.2324C387.494 60.6816 387.028 60.3945 386.349 60.3711C385.716 60.3535 385.18 60.6084 384.74 61.1357C384.301 61.6631 384.025 62.3633 383.914 63.2363C383.873 63.6641 383.855 64.0098 383.861 64.2734ZM397.52 60.8721C397.18 60.8135 396.901 60.7842 396.685 60.7842C395.8 60.7607 395.1 61.0918 394.584 61.7773L393.485 68H391.007L392.659 58.4902L394.988 58.4814L394.76 59.6416C395.357 58.7451 396.096 58.2969 396.975 58.2969C397.221 58.2969 397.508 58.3379 397.836 58.4199L397.52 60.8721ZM402.714 68C402.638 67.7598 402.605 67.4727 402.617 67.1387C401.902 67.8535 401.094 68.1992 400.191 68.1758C399.359 68.1641 398.668 67.8945 398.117 67.3672C397.572 66.834 397.317 66.1777 397.353 65.3984C397.394 64.3613 397.827 63.5674 398.653 63.0166C399.485 62.46 400.599 62.1816 401.993 62.1816L403.153 62.1992L403.276 61.6279C403.312 61.4346 403.32 61.25 403.303 61.0742C403.273 60.7988 403.168 60.585 402.986 60.4326C402.811 60.2744 402.576 60.1924 402.283 60.1865C401.896 60.1748 401.568 60.2715 401.299 60.4766C401.029 60.6758 400.856 60.9658 400.78 61.3467L398.293 61.3555C398.334 60.4473 398.75 59.7119 399.541 59.1494C400.338 58.5811 401.319 58.3027 402.485 58.3145C403.563 58.3379 404.407 58.6602 405.017 59.2812C405.626 59.8965 405.881 60.6904 405.781 61.6631L405.052 66.2158L405.008 66.7783C404.996 67.1943 405.046 67.5459 405.157 67.833L405.148 68H402.714ZM400.807 66.251C401.521 66.2744 402.146 65.9639 402.679 65.3193L402.986 63.6758L402.125 63.667C401.211 63.6904 400.552 63.9688 400.147 64.502C400.001 64.6953 399.91 64.9326 399.875 65.2139C399.828 65.5303 399.893 65.7822 400.068 65.9697C400.25 66.1514 400.496 66.2451 400.807 66.251ZM410.624 58.4814L410.422 59.5625C411.189 58.707 412.118 58.291 413.208 58.3145C413.794 58.3262 414.28 58.4609 414.667 58.7188C415.054 58.9766 415.314 59.3252 415.449 59.7646C416.287 58.7744 417.271 58.291 418.402 58.3145C419.275 58.332 419.932 58.6309 420.371 59.2109C420.816 59.791 421.004 60.6289 420.934 61.7246L420.916 61.9443L419.905 68H417.418L418.429 61.9268C418.452 61.71 418.461 61.5078 418.455 61.3203C418.414 60.7051 418.062 60.3887 417.4 60.3711C416.721 60.3711 416.138 60.7344 415.651 61.4609L415.625 61.6631L414.518 68H412.039L413.05 61.9443C413.073 61.7275 413.082 61.5254 413.076 61.3379C413.035 60.7168 412.687 60.3975 412.03 60.3799C411.403 60.3623 410.838 60.6582 410.334 61.2676L409.147 68H406.669L408.312 58.4902L410.624 58.4814Z" fill="black"/>
<line x1="289" y1="75.5" x2="443" y2="75.5" stroke="black"/>
<path d="M553.578 62.7705H548.674L547.76 68H545.185L547.408 55.2031H555.512L555.134 57.3389H549.614L549.034 60.6436H553.956L553.578 62.7705ZM560.372 67.0156C559.669 67.8066 558.796 68.1934 557.753 68.1758C556.839 68.1641 556.147 67.8359 555.679 67.1914C555.21 66.5469 555.028 65.6973 555.134 64.6426L556.162 58.4902H558.641L557.595 64.6689C557.571 64.8623 557.568 65.0439 557.586 65.2139C557.645 65.7998 557.97 66.1016 558.562 66.1191C559.329 66.1426 559.965 65.8467 560.469 65.2314L561.655 58.4902H564.151L562.499 68H560.188L560.372 67.0156ZM568.265 58.4814L568.054 59.6064C568.815 58.7217 569.738 58.291 570.822 58.3145C571.719 58.332 572.381 58.6602 572.809 59.2988C573.236 59.9375 573.392 60.8223 573.274 61.9531L572.272 68H569.794L570.813 61.9268C570.843 61.6982 570.849 61.4902 570.831 61.3027C570.755 60.7051 570.38 60.3975 569.706 60.3799C569.056 60.3564 568.473 60.6582 567.957 61.2852L566.771 68H564.292L565.944 58.4902L568.265 58.4814ZM578.39 66.1367C578.847 66.1484 579.228 66.0254 579.532 65.7676C579.837 65.5039 580.036 65.1553 580.13 64.7217L582.459 64.7129C582.418 65.3809 582.207 65.9814 581.826 66.5146C581.451 67.0479 580.947 67.4639 580.314 67.7627C579.688 68.0615 579.025 68.2021 578.328 68.1846C577.174 68.167 576.26 67.7686 575.586 66.9893C574.912 66.21 574.587 65.1729 574.61 63.8779L574.637 63.3945L574.646 63.2979C574.804 61.751 575.325 60.5264 576.21 59.624C577.095 58.7158 578.188 58.2793 579.488 58.3145C580.561 58.3379 581.41 58.6895 582.037 59.3691C582.67 60.043 582.98 60.9336 582.969 62.041H580.657C580.657 61.5312 580.546 61.1299 580.323 60.8369C580.101 60.5439 579.767 60.3857 579.321 60.3623C578.138 60.3271 577.42 61.1914 577.168 62.9551C577.08 63.5938 577.048 64.1328 577.071 64.5723C577.13 65.5977 577.569 66.1191 578.39 66.1367ZM588.444 56.1523L588.031 58.4902H589.613L589.288 60.3535H587.706L586.897 65.1172C586.862 65.416 586.886 65.6445 586.968 65.8027C587.05 65.9609 587.249 66.0459 587.565 66.0576C587.659 66.0635 587.911 66.0488 588.321 66.0137L588.146 67.9561C587.706 68.1025 587.231 68.1699 586.722 68.1582C585.907 68.1465 585.301 67.8916 584.902 67.3936C584.504 66.8955 584.34 66.2217 584.41 65.3721L585.228 60.3535H583.883L584.208 58.4902H585.553L585.957 56.1523H588.444ZM592.03 68H589.534L591.187 58.4902H593.683L592.03 68ZM591.477 56.0732C591.465 55.6807 591.594 55.3555 591.863 55.0977C592.133 54.8398 592.458 54.7109 592.839 54.7109C593.214 54.6992 593.539 54.8135 593.814 55.0537C594.09 55.2939 594.233 55.6045 594.245 55.9854C594.257 56.3486 594.134 56.665 593.876 56.9346C593.624 57.2041 593.293 57.3447 592.883 57.3564C592.514 57.3682 592.188 57.2568 591.907 57.0225C591.632 56.7881 591.488 56.4717 591.477 56.0732ZM599.58 58.3145C600.418 58.3262 601.139 58.543 601.742 58.9648C602.352 59.3809 602.797 59.958 603.078 60.6963C603.365 61.4287 603.468 62.2432 603.386 63.1396C603.251 64.6514 602.724 65.876 601.804 66.8135C600.89 67.7451 599.759 68.1992 598.411 68.1758C597.585 68.1641 596.87 67.9531 596.267 67.543C595.663 67.127 595.218 66.5527 594.931 65.8203C594.644 65.0879 594.541 64.2793 594.623 63.3945C594.775 61.8242 595.309 60.5762 596.223 59.6504C597.137 58.7246 598.256 58.2793 599.58 58.3145ZM597.075 64.2998C597.087 64.8623 597.219 65.3076 597.471 65.6357C597.723 65.958 598.077 66.125 598.534 66.1367C599.296 66.1602 599.894 65.8115 600.327 65.0908C600.761 64.3643 600.963 63.4121 600.934 62.2344C600.91 61.6719 600.772 61.2236 600.521 60.8896C600.274 60.5498 599.92 60.374 599.457 60.3623C598.719 60.3389 598.127 60.6875 597.682 61.4082C597.242 62.123 597.04 63.0869 597.075 64.2998ZM608.026 58.4814L607.815 59.6064C608.577 58.7217 609.5 58.291 610.584 58.3145C611.48 58.332 612.143 58.6602 612.57 59.2988C612.998 59.9375 613.153 60.8223 613.036 61.9531L612.034 68H609.556L610.575 61.9268C610.604 61.6982 610.61 61.4902 610.593 61.3027C610.517 60.7051 610.142 60.3975 609.468 60.3799C608.817 60.3564 608.234 60.6582 607.719 61.2852L606.532 68H604.054L605.706 58.4902L608.026 58.4814Z" fill="black"/>
<line x1="521" y1="75.5" x2="636" y2="75.5" stroke="black"/>
<path d="M334.135 99.13L331.72 95.56H334.09L334.855 96.76C334.965 96.97 335.09 97.185 335.23 97.405C335.37 97.615 335.505 97.825 335.635 98.035H335.695C335.795 97.825 335.895 97.61 335.995 97.39C336.105 97.17 336.21 96.96 336.31 96.76L336.97 95.56H339.28L336.85 99.385L339.43 103H337.06L336.205 101.77C336.065 101.56 335.92 101.345 335.77 101.125C335.63 100.905 335.49 100.69 335.35 100.48H335.29C335.18 100.69 335.065 100.905 334.945 101.125C334.825 101.335 334.71 101.55 334.6 101.77L333.865 103H331.555L334.135 99.13ZM350.038 95.53H356.938V97.09H350.038V95.53ZM350.038 98.995H356.938V100.555H350.038V98.995ZM375.032 101.215V103H368.207V101.215H370.667V95.71H368.702V94.345C369.262 94.245 369.737 94.125 370.127 93.985C370.527 93.845 370.902 93.675 371.252 93.475H372.872V101.215H375.032ZM380.471 103.18C379.921 103.18 379.421 103.075 378.971 102.865C378.521 102.645 378.136 102.325 377.816 101.905C377.496 101.485 377.246 100.965 377.066 100.345C376.896 99.725 376.811 99.01 376.811 98.2C376.811 97.39 376.896 96.68 377.066 96.07C377.246 95.46 377.496 94.95 377.816 94.54C378.136 94.12 378.521 93.81 378.971 93.61C379.421 93.4 379.921 93.295 380.471 93.295C381.021 93.295 381.521 93.4 381.971 93.61C382.421 93.81 382.806 94.12 383.126 94.54C383.446 94.95 383.691 95.46 383.861 96.07C384.041 96.68 384.131 97.39 384.131 98.2C384.131 99.01 384.041 99.725 383.861 100.345C383.691 100.965 383.446 101.485 383.126 101.905C382.806 102.325 382.421 102.645 381.971 102.865C381.521 103.075 381.021 103.18 380.471 103.18ZM380.471 95.005C380.231 95.005 380.006 95.055 379.796 95.155C379.596 95.255 379.421 95.43 379.271 95.68C379.121 95.92 379.001 96.245 378.911 96.655C378.821 97.065 378.776 97.58 378.776 98.2C378.776 98.82 378.821 99.34 378.911 99.76C379.001 100.17 379.121 100.505 379.271 100.765C379.421 101.015 379.596 101.195 379.796 101.305C380.006 101.415 380.231 101.47 380.471 101.47C380.711 101.47 380.931 101.415 381.131 101.305C381.341 101.195 381.521 101.015 381.671 100.765C381.821 100.505 381.941 100.17 382.031 99.76C382.121 99.34 382.166 98.82 382.166 98.2C382.166 97.58 382.121 97.065 382.031 96.655C381.941 96.245 381.821 95.92 381.671 95.68C381.521 95.43 381.341 95.255 381.131 95.155C380.931 95.055 380.711 95.005 380.471 95.005ZM380.471 99.31C380.151 99.31 379.881 99.21 379.661 99.01C379.451 98.8 379.346 98.52 379.346 98.17C379.346 97.82 379.451 97.545 379.661 97.345C379.881 97.135 380.151 97.03 380.471 97.03C380.791 97.03 381.056 97.135 381.266 97.345C381.486 97.545 381.596 97.82 381.596 98.17C381.596 98.52 381.486 98.8 381.266 99.01C381.056 99.21 380.791 99.31 380.471 99.31Z" fill="black"/>
<path d="M547.135 99.13L544.72 95.56H547.09L547.855 96.76C547.965 96.97 548.09 97.185 548.23 97.405C548.37 97.615 548.505 97.825 548.635 98.035H548.695C548.795 97.825 548.895 97.61 548.995 97.39C549.105 97.17 549.21 96.96 549.31 96.76L549.97 95.56H552.28L549.85 99.385L552.43 103H550.06L549.205 101.77C549.065 101.56 548.92 101.345 548.77 101.125C548.63 100.905 548.49 100.69 548.35 100.48H548.29C548.18 100.69 548.065 100.905 547.945 101.125C547.825 101.335 547.71 101.55 547.6 101.77L546.865 103H544.555L547.135 99.13ZM563.038 95.53H569.938V97.09H563.038V95.53ZM563.038 98.995H569.938V100.555H563.038V98.995ZM581.627 100.435C581.947 100.715 582.302 100.945 582.692 101.125C583.092 101.305 583.512 101.395 583.952 101.395C584.472 101.395 584.897 101.3 585.227 101.11C585.567 100.91 585.737 100.63 585.737 100.27C585.737 100.06 585.692 99.87 585.602 99.7C585.512 99.53 585.357 99.39 585.137 99.28C584.917 99.16 584.622 99.07 584.252 99.01C583.882 98.94 583.417 98.905 582.857 98.905V97.345C583.797 97.345 584.457 97.23 584.837 97C585.227 96.76 585.422 96.45 585.422 96.07C585.422 95.74 585.297 95.485 585.047 95.305C584.797 95.115 584.452 95.02 584.012 95.02C583.632 95.02 583.282 95.095 582.962 95.245C582.642 95.395 582.317 95.6 581.987 95.86L580.877 94.51C581.347 94.13 581.847 93.835 582.377 93.625C582.917 93.405 583.497 93.295 584.117 93.295C584.637 93.295 585.112 93.355 585.542 93.475C585.972 93.585 586.342 93.755 586.652 93.985C586.962 94.205 587.202 94.475 587.372 94.795C587.542 95.115 587.627 95.485 587.627 95.905C587.627 96.405 587.467 96.83 587.147 97.18C586.827 97.52 586.382 97.8 585.812 98.02V98.08C586.412 98.24 586.917 98.515 587.327 98.905C587.737 99.285 587.942 99.785 587.942 100.405C587.942 100.845 587.837 101.24 587.627 101.59C587.427 101.93 587.152 102.22 586.802 102.46C586.462 102.69 586.062 102.87 585.602 103C585.142 103.12 584.662 103.18 584.162 103.18C583.342 103.18 582.637 103.06 582.047 102.82C581.457 102.57 580.977 102.24 580.607 101.83L581.627 100.435ZM591.731 101.425C591.731 101.175 591.771 100.945 591.851 100.735C591.941 100.515 592.061 100.325 592.211 100.165C592.361 100.005 592.541 99.88 592.751 99.79C592.971 99.7 593.211 99.655 593.471 99.655C593.731 99.655 593.966 99.7 594.176 99.79C594.396 99.88 594.581 100.005 594.731 100.165C594.881 100.325 594.996 100.515 595.076 100.735C595.166 100.945 595.211 101.175 595.211 101.425C595.211 101.925 595.051 102.345 594.731 102.685C594.411 103.015 593.991 103.18 593.471 103.18C592.951 103.18 592.531 103.015 592.211 102.685C591.891 102.345 591.731 101.925 591.731 101.425ZM606.02 101.215V103H599.195V101.215H601.655V95.71H599.69V94.345C600.25 94.245 600.725 94.125 601.115 93.985C601.515 93.845 601.89 93.675 602.24 93.475H603.86V101.215H606.02ZM612.074 99.04V97.435C612.074 97.135 612.079 96.79 612.089 96.4C612.109 96 612.129 95.65 612.149 95.35H612.089C611.929 95.62 611.759 95.89 611.579 96.16C611.399 96.43 611.224 96.7 611.054 96.97L609.614 99.04H612.074ZM615.329 100.72H614.129V103H612.074V100.72H607.484V99.205L611.459 93.475H614.129V99.04H615.329V100.72Z" fill="black"/>
<path d="M453.066 4.20312L456.354 13.4844L459.623 4.20312H463.086V17H460.44V13.502L460.704 7.46387L457.25 17H455.439L451.994 7.47266L452.258 13.502V17H449.621V4.20312H453.066ZM469.599 17.1758C468.204 17.1758 467.067 16.748 466.188 15.8926C465.315 15.0371 464.879 13.8975 464.879 12.4736V12.2275C464.879 11.2725 465.063 10.4199 465.433 9.66992C465.802 8.91406 466.323 8.33398 466.997 7.92969C467.677 7.51953 468.45 7.31445 469.317 7.31445C470.618 7.31445 471.641 7.72461 472.385 8.54492C473.135 9.36523 473.51 10.5283 473.51 12.0342V13.0713H467.454C467.536 13.6924 467.782 14.1904 468.192 14.5654C468.608 14.9404 469.133 15.1279 469.766 15.1279C470.744 15.1279 471.509 14.7734 472.06 14.0645L473.308 15.4619C472.927 16.001 472.411 16.4229 471.761 16.7275C471.11 17.0264 470.39 17.1758 469.599 17.1758ZM469.309 9.37109C468.805 9.37109 468.395 9.54102 468.078 9.88086C467.768 10.2207 467.568 10.707 467.48 11.3398H471.014V11.1377C471.002 10.5752 470.85 10.1416 470.557 9.83691C470.264 9.52637 469.848 9.37109 469.309 9.37109ZM477.342 7.49023L477.421 8.55371C478.095 7.72754 479.006 7.31445 480.154 7.31445C481.379 7.31445 482.22 7.79785 482.677 8.76465C483.345 7.79785 484.297 7.31445 485.533 7.31445C486.564 7.31445 487.332 7.61621 487.836 8.21973C488.34 8.81738 488.592 9.71973 488.592 10.9268V17H486.043V10.9355C486.043 10.3965 485.938 10.0039 485.727 9.75781C485.516 9.50586 485.144 9.37988 484.61 9.37988C483.849 9.37988 483.321 9.74316 483.028 10.4697L483.037 17H480.497V10.9443C480.497 10.3936 480.389 9.99512 480.172 9.74902C479.955 9.50293 479.586 9.37988 479.064 9.37988C478.344 9.37988 477.822 9.67871 477.5 10.2764V17H474.96V7.49023H477.342ZM490.156 12.1572C490.156 11.2139 490.338 10.373 490.701 9.63477C491.064 8.89648 491.586 8.3252 492.266 7.9209C492.951 7.5166 493.745 7.31445 494.647 7.31445C495.931 7.31445 496.977 7.70703 497.785 8.49219C498.6 9.27734 499.054 10.3438 499.147 11.6914L499.165 12.3418C499.165 13.8008 498.758 14.9727 497.943 15.8574C497.129 16.7363 496.036 17.1758 494.665 17.1758C493.294 17.1758 492.198 16.7363 491.378 15.8574C490.563 14.9785 490.156 13.7832 490.156 12.2715V12.1572ZM492.696 12.3418C492.696 13.2441 492.866 13.9355 493.206 14.416C493.546 14.8906 494.032 15.1279 494.665 15.1279C495.28 15.1279 495.761 14.8936 496.106 14.4248C496.452 13.9502 496.625 13.1943 496.625 12.1572C496.625 11.2725 496.452 10.5869 496.106 10.1006C495.761 9.61426 495.274 9.37109 494.647 9.37109C494.026 9.37109 493.546 9.61426 493.206 10.1006C492.866 10.5811 492.696 11.3281 492.696 12.3418ZM506.073 9.87207C505.728 9.8252 505.423 9.80176 505.159 9.80176C504.198 9.80176 503.568 10.127 503.27 10.7773V17H500.729V7.49023H503.129L503.199 8.62402C503.709 7.75098 504.415 7.31445 505.317 7.31445C505.599 7.31445 505.862 7.35254 506.108 7.42871L506.073 9.87207ZM511.013 13.4053L512.771 7.49023H515.495L511.672 18.4766L511.461 18.9775C510.893 20.2197 509.955 20.8408 508.648 20.8408C508.279 20.8408 507.904 20.7852 507.523 20.6738V18.749L507.91 18.7578C508.391 18.7578 508.748 18.6846 508.982 18.5381C509.223 18.3916 509.41 18.1484 509.545 17.8086L509.844 17.0264L506.513 7.49023H509.246L511.013 13.4053ZM450.764 38H448.215V28.4902H450.764V38ZM448.065 26.0293C448.065 25.6484 448.191 25.335 448.443 25.0889C448.701 24.8428 449.05 24.7197 449.489 24.7197C449.923 24.7197 450.269 24.8428 450.526 25.0889C450.784 25.335 450.913 25.6484 450.913 26.0293C450.913 26.416 450.781 26.7324 450.518 26.9785C450.26 27.2246 449.917 27.3477 449.489 27.3477C449.062 27.3477 448.716 27.2246 448.452 26.9785C448.194 26.7324 448.065 26.416 448.065 26.0293ZM458.015 35.3721C458.015 35.0615 457.859 34.8184 457.549 34.6426C457.244 34.4609 456.752 34.2998 456.072 34.1592C453.811 33.6846 452.68 32.7236 452.68 31.2764C452.68 30.4326 453.028 29.7295 453.726 29.167C454.429 28.5986 455.346 28.3145 456.477 28.3145C457.684 28.3145 458.647 28.5986 459.368 29.167C460.095 29.7354 460.458 30.4736 460.458 31.3818H457.918C457.918 31.0186 457.801 30.7197 457.566 30.4854C457.332 30.2451 456.966 30.125 456.468 30.125C456.04 30.125 455.709 30.2217 455.475 30.415C455.24 30.6084 455.123 30.8545 455.123 31.1533C455.123 31.4346 455.255 31.6631 455.519 31.8389C455.788 32.0088 456.239 32.1582 456.872 32.2871C457.505 32.4102 458.038 32.5508 458.472 32.709C459.813 33.2012 460.484 34.0537 460.484 35.2666C460.484 36.1338 460.112 36.8369 459.368 37.376C458.624 37.9092 457.663 38.1758 456.485 38.1758C455.688 38.1758 454.979 38.0352 454.358 37.7539C453.743 37.4668 453.26 37.0771 452.908 36.585C452.557 36.0869 452.381 35.5508 452.381 34.9766H454.789C454.812 35.4277 454.979 35.7734 455.29 36.0137C455.601 36.2539 456.017 36.374 456.538 36.374C457.024 36.374 457.391 36.2832 457.637 36.1016C457.889 35.9141 458.015 35.6709 458.015 35.3721ZM461.732 33.1572C461.732 32.2139 461.914 31.373 462.277 30.6348C462.641 29.8965 463.162 29.3252 463.842 28.9209C464.527 28.5166 465.321 28.3145 466.224 28.3145C467.507 28.3145 468.553 28.707 469.361 29.4922C470.176 30.2773 470.63 31.3438 470.724 32.6914L470.741 33.3418C470.741 34.8008 470.334 35.9727 469.52 36.8574C468.705 37.7363 467.612 38.1758 466.241 38.1758C464.87 38.1758 463.774 37.7363 462.954 36.8574C462.14 35.9785 461.732 34.7832 461.732 33.2715V33.1572ZM464.272 33.3418C464.272 34.2441 464.442 34.9355 464.782 35.416C465.122 35.8906 465.608 36.1279 466.241 36.1279C466.856 36.1279 467.337 35.8936 467.683 35.4248C468.028 34.9502 468.201 34.1943 468.201 33.1572C468.201 32.2725 468.028 31.5869 467.683 31.1006C467.337 30.6143 466.851 30.3711 466.224 30.3711C465.603 30.3711 465.122 30.6143 464.782 31.1006C464.442 31.5811 464.272 32.3281 464.272 33.3418ZM474.986 38H472.438V24.5H474.986V38ZM482.598 38C482.48 37.7715 482.396 37.4873 482.343 37.1475C481.728 37.833 480.928 38.1758 479.943 38.1758C479.012 38.1758 478.238 37.9062 477.623 37.3672C477.014 36.8281 476.709 36.1484 476.709 35.3281C476.709 34.3203 477.081 33.5469 477.825 33.0078C478.575 32.4688 479.656 32.1963 481.068 32.1904H482.237V31.6455C482.237 31.2061 482.123 30.8545 481.895 30.5908C481.672 30.3271 481.317 30.1953 480.831 30.1953C480.403 30.1953 480.066 30.2979 479.82 30.5029C479.58 30.708 479.46 30.9893 479.46 31.3467H476.92C476.92 30.7959 477.09 30.2861 477.43 29.8174C477.77 29.3486 478.25 28.9824 478.871 28.7188C479.492 28.4492 480.189 28.3145 480.963 28.3145C482.135 28.3145 483.063 28.6104 483.749 29.2021C484.44 29.7881 484.786 30.6143 484.786 31.6807V35.8027C484.792 36.7051 484.918 37.3877 485.164 37.8506V38H482.598ZM480.497 36.2334C480.872 36.2334 481.218 36.1514 481.534 35.9873C481.851 35.8174 482.085 35.5918 482.237 35.3105V33.6758H481.288C480.017 33.6758 479.34 34.1152 479.258 34.9941L479.249 35.1436C479.249 35.46 479.36 35.7207 479.583 35.9258C479.806 36.1309 480.11 36.2334 480.497 36.2334ZM489.778 26.1523V28.4902H491.404V30.3535H489.778V35.0996C489.778 35.4512 489.846 35.7031 489.98 35.8555C490.115 36.0078 490.373 36.084 490.754 36.084C491.035 36.084 491.284 36.0635 491.501 36.0225V37.9473C491.003 38.0996 490.49 38.1758 489.963 38.1758C488.182 38.1758 487.273 37.2764 487.238 35.4775V30.3535H485.85V28.4902H487.238V26.1523H489.778ZM495.5 38H492.951V28.4902H495.5V38ZM492.802 26.0293C492.802 25.6484 492.928 25.335 493.18 25.0889C493.438 24.8428 493.786 24.7197 494.226 24.7197C494.659 24.7197 495.005 24.8428 495.263 25.0889C495.521 25.335 495.649 25.6484 495.649 26.0293C495.649 26.416 495.518 26.7324 495.254 26.9785C494.996 27.2246 494.653 27.3477 494.226 27.3477C493.798 27.3477 493.452 27.2246 493.188 26.9785C492.931 26.7324 492.802 26.416 492.802 26.0293ZM497.205 33.1572C497.205 32.2139 497.387 31.373 497.75 30.6348C498.113 29.8965 498.635 29.3252 499.314 28.9209C500 28.5166 500.794 28.3145 501.696 28.3145C502.979 28.3145 504.025 28.707 504.834 29.4922C505.648 30.2773 506.103 31.3438 506.196 32.6914L506.214 33.3418C506.214 34.8008 505.807 35.9727 504.992 36.8574C504.178 37.7363 503.085 38.1758 501.714 38.1758C500.343 38.1758 499.247 37.7363 498.427 36.8574C497.612 35.9785 497.205 34.7832 497.205 33.2715V33.1572ZM499.745 33.3418C499.745 34.2441 499.915 34.9355 500.255 35.416C500.595 35.8906 501.081 36.1279 501.714 36.1279C502.329 36.1279 502.81 35.8936 503.155 35.4248C503.501 34.9502 503.674 34.1943 503.674 33.1572C503.674 32.2725 503.501 31.5869 503.155 31.1006C502.81 30.6143 502.323 30.3711 501.696 30.3711C501.075 30.3711 500.595 30.6143 500.255 31.1006C499.915 31.5811 499.745 32.3281 499.745 33.3418ZM510.116 28.4902L510.195 29.5889C510.875 28.7393 511.786 28.3145 512.929 28.3145C513.937 28.3145 514.687 28.6104 515.179 29.2021C515.671 29.7939 515.923 30.6787 515.935 31.8564V38H513.395V31.918C513.395 31.3789 513.277 30.9893 513.043 30.749C512.809 30.5029 512.419 30.3799 511.874 30.3799C511.159 30.3799 510.623 30.6846 510.266 31.2939V38H507.726V28.4902H510.116Z" fill="#D55E00"/>
</svg>
