<svg width="246" height="283" viewBox="0 0 246 283" fill="none" xmlns="http://www.w3.org/2000/svg">
<rect width="246" height="283" fill="black"/>
<line y1="178.5" x2="246" y2="178.5" stroke="white"/>
<path d="M11.5011 199.18C10.9211 199.18 10.3861 199.065 9.89613 198.835C9.41613 198.595 9.00113 198.255 8.65113 197.815C8.31113 197.375 8.04613 196.84 7.85613 196.21C7.66613 195.58 7.57113 194.865 7.57113 194.065C7.57113 193.265 7.66613 192.555 7.85613 191.935C8.04613 191.305 8.31113 190.78 8.65113 190.36C9.00113 189.93 9.41613 189.605 9.89613 189.385C10.3861 189.155 10.9211 189.04 11.5011 189.04C12.0811 189.04 12.6111 189.155 13.0911 189.385C13.5811 189.605 13.9961 189.93 14.3361 190.36C14.6861 190.79 14.9561 191.32 15.1461 191.95C15.3361 192.57 15.4311 193.275 15.4311 194.065C15.4311 194.865 15.3361 195.58 15.1461 196.21C14.9561 196.84 14.6861 197.375 14.3361 197.815C13.9961 198.255 13.5811 198.595 13.0911 198.835C12.6111 199.065 12.0811 199.18 11.5011 199.18ZM11.5011 197.275C12.0111 197.275 12.4161 196.99 12.7161 196.42C13.0161 195.84 13.1661 195.055 13.1661 194.065C13.1661 193.085 13.0161 192.32 12.7161 191.77C12.4161 191.22 12.0111 190.945 11.5011 190.945C10.9911 190.945 10.5861 191.22 10.2861 191.77C9.98613 192.32 9.83613 193.085 9.83613 194.065C9.83613 195.055 9.98613 195.84 10.2861 196.42C10.5861 196.99 10.9911 197.275 11.5011 197.275ZM23.8703 199H22.0703L21.9053 197.935H21.8453C21.5153 198.315 21.1503 198.62 20.7503 198.85C20.3503 199.07 19.8803 199.18 19.3403 199.18C18.4903 199.18 17.8753 198.91 17.4953 198.37C17.1153 197.83 16.9253 197.09 16.9253 196.15V191.56H19.1303V195.865C19.1303 196.365 19.2053 196.73 19.3553 196.96C19.5053 197.19 19.7903 197.305 20.2103 197.305C20.4903 197.305 20.7353 197.245 20.9453 197.125C21.1653 197.005 21.4053 196.78 21.6653 196.45V191.56H23.8703V199ZM27.5994 193.285H25.7244V191.65L27.7044 191.56L27.9894 189.58H29.8044V191.56H32.9544V193.285H29.8044V195.895C29.8044 196.465 29.9294 196.87 30.1794 197.11C30.4294 197.34 30.8244 197.455 31.3644 197.455C31.6544 197.455 31.9194 197.43 32.1594 197.38C32.3994 197.33 32.6294 197.265 32.8494 197.185L33.2394 198.775C32.9094 198.875 32.5394 198.965 32.1294 199.045C31.7294 199.135 31.2894 199.18 30.8094 199.18C30.2194 199.18 29.7194 199.1 29.3094 198.94C28.8994 198.78 28.5644 198.56 28.3044 198.28C28.0544 197.99 27.8744 197.645 27.7644 197.245C27.6544 196.845 27.5994 196.4 27.5994 195.91V193.285ZM37.2686 199.585V201.76H35.0636V191.56H36.8636L37.0286 192.31H37.0736C37.3736 192.04 37.7186 191.82 38.1086 191.65C38.4986 191.47 38.8936 191.38 39.2936 191.38C39.7536 191.38 40.1686 191.47 40.5386 191.65C40.9086 191.83 41.2236 192.085 41.4836 192.415C41.7436 192.745 41.9386 193.145 42.0686 193.615C42.2086 194.075 42.2786 194.59 42.2786 195.16C42.2786 195.8 42.1886 196.37 42.0086 196.87C41.8286 197.36 41.5886 197.78 41.2886 198.13C40.9886 198.47 40.6436 198.73 40.2536 198.91C39.8736 199.09 39.4736 199.18 39.0536 199.18C38.3736 199.18 37.7536 198.91 37.1936 198.37L37.2686 199.585ZM37.2686 196.885C37.4786 197.065 37.6936 197.195 37.9136 197.275C38.1436 197.345 38.3536 197.38 38.5436 197.38C38.9636 197.38 39.3136 197.21 39.5936 196.87C39.8736 196.52 40.0136 195.96 40.0136 195.19C40.0136 193.85 39.5586 193.18 38.6486 193.18C38.1786 193.18 37.7186 193.41 37.2686 193.87V196.885ZM50.8527 199H49.0527L48.8877 197.935H48.8277C48.4977 198.315 48.1327 198.62 47.7327 198.85C47.3327 199.07 46.8627 199.18 46.3227 199.18C45.4727 199.18 44.8577 198.91 44.4777 198.37C44.0977 197.83 43.9077 197.09 43.9077 196.15V191.56H46.1127V195.865C46.1127 196.365 46.1877 196.73 46.3377 196.96C46.4877 197.19 46.7727 197.305 47.1927 197.305C47.4727 197.305 47.7177 197.245 47.9277 197.125C48.1477 197.005 48.3877 196.78 48.6477 196.45V191.56H50.8527V199ZM54.5818 193.285H52.7068V191.65L54.6868 191.56L54.9718 189.58H56.7868V191.56H59.9368V193.285H56.7868V195.895C56.7868 196.465 56.9118 196.87 57.1618 197.11C57.4118 197.34 57.8068 197.455 58.3468 197.455C58.6368 197.455 58.9018 197.43 59.1418 197.38C59.3818 197.33 59.6118 197.265 59.8318 197.185L60.2218 198.775C59.8918 198.875 59.5218 198.965 59.1118 199.045C58.7118 199.135 58.2718 199.18 57.7918 199.18C57.2018 199.18 56.7018 199.1 56.2918 198.94C55.8818 198.78 55.5468 198.56 55.2868 198.28C55.0368 197.99 54.8568 197.645 54.7468 197.245C54.6368 196.845 54.5818 196.4 54.5818 195.91V193.285Z" fill="white"/>
<path d="M15.055 217.215V219H8.23V217.215H10.69V211.71H8.725V210.345C9.285 210.245 9.76 210.125 10.15 209.985C10.55 209.845 10.925 209.675 11.275 209.475H12.895V217.215H15.055ZM15.055 236.215V238H8.23V236.215H10.69V230.71H8.725V229.345C9.285 229.245 9.76 229.125 10.15 228.985C10.55 228.845 10.925 228.675 11.275 228.475H12.895V236.215H15.055ZM15.055 254.215V256H8.23V254.215H10.69V248.71H8.725V247.345C9.285 247.245 9.76 247.125 10.15 246.985C10.55 246.845 10.925 246.675 11.275 246.475H12.895V254.215H15.055ZM20.4941 256.18C19.9441 256.18 19.4441 256.075 18.9941 255.865C18.5441 255.645 18.1591 255.325 17.8391 254.905C17.5191 254.485 17.2691 253.965 17.0891 253.345C16.9191 252.725 16.8341 252.01 16.8341 251.2C16.8341 250.39 16.9191 249.68 17.0891 249.07C17.2691 248.46 17.5191 247.95 17.8391 247.54C18.1591 247.12 18.5441 246.81 18.9941 246.61C19.4441 246.4 19.9441 246.295 20.4941 246.295C21.0441 246.295 21.5441 246.4 21.9941 246.61C22.4441 246.81 22.8291 247.12 23.1491 247.54C23.4691 247.95 23.7141 248.46 23.8841 249.07C24.0641 249.68 24.1541 250.39 24.1541 251.2C24.1541 252.01 24.0641 252.725 23.8841 253.345C23.7141 253.965 23.4691 254.485 23.1491 254.905C22.8291 255.325 22.4441 255.645 21.9941 255.865C21.5441 256.075 21.0441 256.18 20.4941 256.18ZM20.4941 248.005C20.2541 248.005 20.0291 248.055 19.8191 248.155C19.6191 248.255 19.4441 248.43 19.2941 248.68C19.1441 248.92 19.0241 249.245 18.9341 249.655C18.8441 250.065 18.7991 250.58 18.7991 251.2C18.7991 251.82 18.8441 252.34 18.9341 252.76C19.0241 253.17 19.1441 253.505 19.2941 253.765C19.4441 254.015 19.6191 254.195 19.8191 254.305C20.0291 254.415 20.2541 254.47 20.4941 254.47C20.7341 254.47 20.9541 254.415 21.1541 254.305C21.3641 254.195 21.5441 254.015 21.6941 253.765C21.8441 253.505 21.9641 253.17 22.0541 252.76C22.1441 252.34 22.1891 251.82 22.1891 251.2C22.1891 250.58 22.1441 250.065 22.0541 249.655C21.9641 249.245 21.8441 248.92 21.6941 248.68C21.5441 248.43 21.3641 248.255 21.1541 248.155C20.9541 248.055 20.7341 248.005 20.4941 248.005ZM20.4941 252.31C20.1741 252.31 19.9041 252.21 19.6841 252.01C19.4741 251.8 19.3691 251.52 19.3691 251.17C19.3691 250.82 19.4741 250.545 19.6841 250.345C19.9041 250.135 20.1741 250.03 20.4941 250.03C20.8141 250.03 21.0791 250.135 21.2891 250.345C21.5091 250.545 21.6191 250.82 21.6191 251.17C21.6191 251.52 21.5091 251.8 21.2891 252.01C21.0791 252.21 20.8141 252.31 20.4941 252.31ZM27.7483 254.425C27.7483 254.175 27.7883 253.945 27.8683 253.735C27.9583 253.515 28.0783 253.325 28.2283 253.165C28.3783 253.005 28.5583 252.88 28.7683 252.79C28.9883 252.7 29.2283 252.655 29.4883 252.655C29.7483 252.655 29.9833 252.7 30.1933 252.79C30.4133 252.88 30.5983 253.005 30.7483 253.165C30.8983 253.325 31.0133 253.515 31.0933 253.735C31.1833 253.945 31.2283 254.175 31.2283 254.425C31.2283 254.925 31.0683 255.345 30.7483 255.685C30.4283 256.015 30.0083 256.18 29.4883 256.18C28.9683 256.18 28.5483 256.015 28.2283 255.685C27.9083 255.345 27.7483 254.925 27.7483 254.425ZM35.6624 253.45C35.9824 253.71 36.3224 253.935 36.6824 254.125C37.0524 254.305 37.4624 254.395 37.9124 254.395C38.4524 254.395 38.8924 254.27 39.2324 254.02C39.5824 253.77 39.7574 253.4 39.7574 252.91C39.7574 252.43 39.5924 252.065 39.2624 251.815C38.9424 251.565 38.5274 251.44 38.0174 251.44C37.8574 251.44 37.7124 251.45 37.5824 251.47C37.4624 251.48 37.3424 251.505 37.2224 251.545C37.1024 251.585 36.9774 251.635 36.8474 251.695C36.7174 251.755 36.5724 251.83 36.4124 251.92L35.4374 251.29L35.6924 246.475H41.5274V248.335H37.5974L37.4324 250.12C37.6524 250.04 37.8574 249.985 38.0474 249.955C38.2374 249.915 38.4524 249.895 38.6924 249.895C39.1324 249.895 39.5474 249.955 39.9374 250.075C40.3374 250.195 40.6874 250.375 40.9874 250.615C41.2874 250.855 41.5224 251.16 41.6924 251.53C41.8724 251.9 41.9624 252.34 41.9624 252.85C41.9624 253.38 41.8574 253.85 41.6474 254.26C41.4474 254.67 41.1724 255.02 40.8224 255.31C40.4824 255.59 40.0874 255.805 39.6374 255.955C39.1874 256.105 38.7174 256.18 38.2274 256.18C37.3974 256.18 36.6924 256.055 36.1124 255.805C35.5424 255.545 35.0624 255.225 34.6724 254.845L35.6624 253.45ZM15.055 273.215V275H8.23V273.215H10.69V267.71H8.725V266.345C9.285 266.245 9.76 266.125 10.15 265.985C10.55 265.845 10.925 265.675 11.275 265.475H12.895V273.215H15.055ZM20.4941 275.18C19.9441 275.18 19.4441 275.075 18.9941 274.865C18.5441 274.645 18.1591 274.325 17.8391 273.905C17.5191 273.485 17.2691 272.965 17.0891 272.345C16.9191 271.725 16.8341 271.01 16.8341 270.2C16.8341 269.39 16.9191 268.68 17.0891 268.07C17.2691 267.46 17.5191 266.95 17.8391 266.54C18.1591 266.12 18.5441 265.81 18.9941 265.61C19.4441 265.4 19.9441 265.295 20.4941 265.295C21.0441 265.295 21.5441 265.4 21.9941 265.61C22.4441 265.81 22.8291 266.12 23.1491 266.54C23.4691 266.95 23.7141 267.46 23.8841 268.07C24.0641 268.68 24.1541 269.39 24.1541 270.2C24.1541 271.01 24.0641 271.725 23.8841 272.345C23.7141 272.965 23.4691 273.485 23.1491 273.905C22.8291 274.325 22.4441 274.645 21.9941 274.865C21.5441 275.075 21.0441 275.18 20.4941 275.18ZM20.4941 267.005C20.2541 267.005 20.0291 267.055 19.8191 267.155C19.6191 267.255 19.4441 267.43 19.2941 267.68C19.1441 267.92 19.0241 268.245 18.9341 268.655C18.8441 269.065 18.7991 269.58 18.7991 270.2C18.7991 270.82 18.8441 271.34 18.9341 271.76C19.0241 272.17 19.1441 272.505 19.2941 272.765C19.4441 273.015 19.6191 273.195 19.8191 273.305C20.0291 273.415 20.2541 273.47 20.4941 273.47C20.7341 273.47 20.9541 273.415 21.1541 273.305C21.3641 273.195 21.5441 273.015 21.6941 272.765C21.8441 272.505 21.9641 272.17 22.0541 271.76C22.1441 271.34 22.1891 270.82 22.1891 270.2C22.1891 269.58 22.1441 269.065 22.0541 268.655C21.9641 268.245 21.8441 267.92 21.6941 267.68C21.5441 267.43 21.3641 267.255 21.1541 267.155C20.9541 267.055 20.7341 267.005 20.4941 267.005ZM20.4941 271.31C20.1741 271.31 19.9041 271.21 19.6841 271.01C19.4741 270.8 19.3691 270.52 19.3691 270.17C19.3691 269.82 19.4741 269.545 19.6841 269.345C19.9041 269.135 20.1741 269.03 20.4941 269.03C20.8141 269.03 21.0791 269.135 21.2891 269.345C21.5091 269.545 21.6191 269.82 21.6191 270.17C21.6191 270.52 21.5091 270.8 21.2891 271.01C21.0791 271.21 20.8141 271.31 20.4941 271.31ZM27.7483 273.425C27.7483 273.175 27.7883 272.945 27.8683 272.735C27.9583 272.515 28.0783 272.325 28.2283 272.165C28.3783 272.005 28.5583 271.88 28.7683 271.79C28.9883 271.7 29.2283 271.655 29.4883 271.655C29.7483 271.655 29.9833 271.7 30.1933 271.79C30.4133 271.88 30.5983 272.005 30.7483 272.165C30.8983 272.325 31.0133 272.515 31.0933 272.735C31.1833 272.945 31.2283 273.175 31.2283 273.425C31.2283 273.925 31.0683 274.345 30.7483 274.685C30.4283 275.015 30.0083 275.18 29.4883 275.18C28.9683 275.18 28.5483 275.015 28.2283 274.685C27.9083 274.345 27.7483 273.925 27.7483 273.425ZM35.6624 272.45C35.9824 272.71 36.3224 272.935 36.6824 273.125C37.0524 273.305 37.4624 273.395 37.9124 273.395C38.4524 273.395 38.8924 273.27 39.2324 273.02C39.5824 272.77 39.7574 272.4 39.7574 271.91C39.7574 271.43 39.5924 271.065 39.2624 270.815C38.9424 270.565 38.5274 270.44 38.0174 270.44C37.8574 270.44 37.7124 270.45 37.5824 270.47C37.4624 270.48 37.3424 270.505 37.2224 270.545C37.1024 270.585 36.9774 270.635 36.8474 270.695C36.7174 270.755 36.5724 270.83 36.4124 270.92L35.4374 270.29L35.6924 265.475H41.5274V267.335H37.5974L37.4324 269.12C37.6524 269.04 37.8574 268.985 38.0474 268.955C38.2374 268.915 38.4524 268.895 38.6924 268.895C39.1324 268.895 39.5474 268.955 39.9374 269.075C40.3374 269.195 40.6874 269.375 40.9874 269.615C41.2874 269.855 41.5224 270.16 41.6924 270.53C41.8724 270.9 41.9624 271.34 41.9624 271.85C41.9624 272.38 41.8574 272.85 41.6474 273.26C41.4474 273.67 41.1724 274.02 40.8224 274.31C40.4824 274.59 40.0874 274.805 39.6374 274.955C39.1874 275.105 38.7174 275.18 38.2274 275.18C37.3974 275.18 36.6924 275.055 36.1124 274.805C35.5424 274.545 35.0624 274.225 34.6724 273.845L35.6624 272.45Z" fill="white"/>
<rect x="79" width="167" height="31" fill="#333333"/>
<rect x="79" width="167" height="31" fill="#333333"/>
<rect width="79" height="31" fill="#090808"/>
<path d="M12.105 17.8101C12.105 17.5513 11.9756 17.3486 11.7168 17.2021C11.4629 17.0508 11.0527 16.9165 10.4863 16.7993C8.60156 16.4038 7.65918 15.603 7.65918 14.397C7.65918 13.6938 7.94971 13.1079 8.53076 12.6392C9.1167 12.1655 9.88086 11.9287 10.8232 11.9287C11.8291 11.9287 12.6323 12.1655 13.2329 12.6392C13.8384 13.1128 14.1411 13.728 14.1411 14.4849H12.0244C12.0244 14.1821 11.9268 13.9331 11.7314 13.7378C11.5361 13.5376 11.231 13.4375 10.8159 13.4375C10.4595 13.4375 10.1836 13.5181 9.98828 13.6792C9.79297 13.8403 9.69531 14.0454 9.69531 14.2944C9.69531 14.5288 9.80518 14.7192 10.0249 14.8657C10.2495 15.0073 10.6255 15.1318 11.1528 15.2393C11.6802 15.3418 12.1245 15.459 12.4858 15.5908C13.604 16.001 14.1631 16.7114 14.1631 17.7222C14.1631 18.4448 13.853 19.0308 13.2329 19.48C12.6128 19.9243 11.812 20.1465 10.8306 20.1465C10.1665 20.1465 9.57568 20.0293 9.05811 19.7949C8.54541 19.5557 8.14258 19.231 7.84961 18.8208C7.55664 18.4058 7.41016 17.959 7.41016 17.4805H9.41699C9.43652 17.8564 9.57568 18.1445 9.83447 18.3447C10.0933 18.5449 10.4399 18.645 10.8745 18.645C11.2798 18.645 11.585 18.5693 11.79 18.418C12 18.2617 12.105 18.0591 12.105 17.8101ZM18.8286 18.4399C19.2192 18.4399 19.5366 18.3325 19.7808 18.1177C20.0249 17.9028 20.1519 17.6172 20.1616 17.2607H22.1465C22.1416 17.7979 21.9951 18.291 21.707 18.7402C21.4189 19.1846 21.0234 19.5312 20.5205 19.7803C20.0225 20.0244 19.4707 20.1465 18.8652 20.1465C17.7324 20.1465 16.8389 19.7876 16.1846 19.0698C15.5303 18.3472 15.2031 17.3511 15.2031 16.0815V15.9424C15.2031 14.7217 15.5278 13.7476 16.1772 13.02C16.8267 12.2925 17.7178 11.9287 18.8506 11.9287C19.8418 11.9287 20.6353 12.2119 21.231 12.7783C21.8315 13.3398 22.1367 14.0894 22.1465 15.0269H20.1616C20.1519 14.6167 20.0249 14.2847 19.7808 14.0308C19.5366 13.772 19.2144 13.6426 18.814 13.6426C18.3208 13.6426 17.9473 13.8232 17.6934 14.1846C17.4443 14.541 17.3198 15.1221 17.3198 15.9277V16.1475C17.3198 16.9629 17.4443 17.5488 17.6934 17.9053C17.9424 18.2617 18.3208 18.4399 18.8286 18.4399ZM27.8081 14.0601C27.52 14.021 27.2661 14.0015 27.0464 14.0015C26.2456 14.0015 25.7207 14.2725 25.4717 14.8145V20H23.355V12.0752H25.3545L25.4131 13.02C25.8379 12.2925 26.4263 11.9287 27.1782 11.9287C27.4126 11.9287 27.6323 11.9604 27.8374 12.0239L27.8081 14.0601ZM31.0674 20H28.9434V12.0752H31.0674V20ZM28.8188 10.0244C28.8188 9.70703 28.9238 9.4458 29.1338 9.24072C29.3486 9.03564 29.6392 8.93311 30.0054 8.93311C30.3667 8.93311 30.6548 9.03564 30.8696 9.24072C31.0845 9.4458 31.1919 9.70703 31.1919 10.0244C31.1919 10.3467 31.082 10.6104 30.8623 10.8154C30.6475 11.0205 30.3618 11.123 30.0054 11.123C29.6489 11.123 29.3608 11.0205 29.1411 10.8154C28.9263 10.6104 28.8188 10.3467 28.8188 10.0244ZM39.9517 16.1108C39.9517 17.3315 39.6733 18.3105 39.1167 19.0479C38.5649 19.7803 37.8179 20.1465 36.8755 20.1465C36.0747 20.1465 35.4277 19.8682 34.9346 19.3115V23.0469H32.8179V12.0752H34.7808L34.854 12.8516C35.3667 12.2363 36.0356 11.9287 36.8608 11.9287C37.8374 11.9287 38.5967 12.29 39.1387 13.0127C39.6807 13.7354 39.9517 14.7314 39.9517 16.001V16.1108ZM37.835 15.957C37.835 15.2197 37.7031 14.6509 37.4395 14.2505C37.1807 13.8501 36.8022 13.6499 36.3042 13.6499C35.6401 13.6499 35.1836 13.9038 34.9346 14.4116V17.6562C35.1934 18.1787 35.6548 18.4399 36.3188 18.4399C37.3296 18.4399 37.835 17.6123 37.835 15.957ZM43.8042 10.127V12.0752H45.1592V13.6279H43.8042V17.583C43.8042 17.876 43.8604 18.0859 43.9727 18.2129C44.085 18.3398 44.2998 18.4033 44.6172 18.4033C44.8516 18.4033 45.0591 18.3862 45.2397 18.3521V19.9561C44.8247 20.083 44.3975 20.1465 43.958 20.1465C42.4736 20.1465 41.7168 19.397 41.6875 17.8979V13.6279H40.5303V12.0752H41.6875V10.127H43.8042ZM46.4482 18.96C46.4482 18.623 46.5605 18.3496 46.7852 18.1396C47.0146 17.9297 47.3003 17.8247 47.6421 17.8247C47.9888 17.8247 48.2744 17.9297 48.499 18.1396C48.7285 18.3496 48.8433 18.623 48.8433 18.96C48.8433 19.292 48.731 19.563 48.5063 19.7729C48.2817 19.978 47.9937 20.0806 47.6421 20.0806C47.2954 20.0806 47.0098 19.978 46.7852 19.7729C46.5605 19.563 46.4482 19.292 46.4482 18.96ZM57.8374 16.1108C57.8374 17.3315 57.5591 18.3105 57.0024 19.0479C56.4507 19.7803 55.7036 20.1465 54.7612 20.1465C53.9604 20.1465 53.3135 19.8682 52.8203 19.3115V23.0469H50.7036V12.0752H52.6665L52.7397 12.8516C53.2524 12.2363 53.9214 11.9287 54.7466 11.9287C55.7231 11.9287 56.4824 12.29 57.0244 13.0127C57.5664 13.7354 57.8374 14.7314 57.8374 16.001V16.1108ZM55.7207 15.957C55.7207 15.2197 55.5889 14.6509 55.3252 14.2505C55.0664 13.8501 54.688 13.6499 54.1899 13.6499C53.5259 13.6499 53.0693 13.9038 52.8203 14.4116V17.6562C53.0791 18.1787 53.5405 18.4399 54.2046 18.4399C55.2153 18.4399 55.7207 17.6123 55.7207 15.957ZM62.0269 17.0044L63.4917 12.0752H65.7622L62.5762 21.2305L62.4004 21.6479C61.9268 22.6831 61.1455 23.2007 60.0566 23.2007C59.749 23.2007 59.4365 23.1543 59.1191 23.0615V21.4575L59.4414 21.4648C59.8418 21.4648 60.1396 21.4038 60.335 21.2817C60.5352 21.1597 60.6914 20.957 60.8037 20.6738L61.0527 20.022L58.2769 12.0752H60.5547L62.0269 17.0044Z" fill="white"/>
<path d="M7.915 48.93C7.915 48.51 8.005 48.145 8.185 47.835C8.365 47.515 8.65 47.245 9.04 47.025C9.44 46.805 9.95 46.63 10.57 46.5C11.19 46.36 11.94 46.265 12.82 46.215C12.78 45.875 12.63 45.61 12.37 45.42C12.12 45.23 11.74 45.135 11.23 45.135C10.87 45.135 10.505 45.2 10.135 45.33C9.775 45.45 9.385 45.615 8.965 45.825L8.185 44.385C8.695 44.095 9.24 43.855 9.82 43.665C10.41 43.475 11.025 43.38 11.665 43.38C12.705 43.38 13.525 43.655 14.125 44.205C14.725 44.755 15.025 45.6 15.025 46.74V51H13.225L13.06 50.16H13C12.62 50.45 12.205 50.695 11.755 50.895C11.305 51.085 10.84 51.18 10.36 51.18C9.98 51.18 9.64 51.12 9.34 51C9.04 50.89 8.785 50.735 8.575 50.535C8.365 50.325 8.2 50.085 8.08 49.815C7.97 49.545 7.915 49.25 7.915 48.93ZM10.03 48.765C10.03 49.005 10.12 49.185 10.3 49.305C10.49 49.415 10.745 49.47 11.065 49.47C11.395 49.47 11.705 49.405 11.995 49.275C12.285 49.135 12.56 48.965 12.82 48.765V47.535C12.27 47.565 11.815 47.615 11.455 47.685C11.095 47.755 10.81 47.845 10.6 47.955C10.39 48.055 10.24 48.175 10.15 48.315C10.07 48.455 10.03 48.605 10.03 48.765ZM24.0941 51.81V53.46H16.8941V51.81H24.0941ZM25.9183 40.485H30.2833V48.18C30.2833 48.41 30.3133 48.605 30.3733 48.765C30.4433 48.915 30.5333 49.04 30.6433 49.14C30.7633 49.23 30.8933 49.295 31.0333 49.335C31.1833 49.375 31.3333 49.395 31.4833 49.395C31.6533 49.395 31.8333 49.38 32.0233 49.35C32.2133 49.31 32.4233 49.245 32.6533 49.155L33.1483 50.775C32.9483 50.835 32.7633 50.89 32.5933 50.94C32.4233 50.99 32.2533 51.03 32.0833 51.06C31.9133 51.1 31.7333 51.13 31.5433 51.15C31.3533 51.17 31.1433 51.18 30.9133 51.18C29.9733 51.18 29.2633 50.905 28.7833 50.355C28.3133 49.795 28.0783 49.04 28.0783 48.09V42.225H25.9183V40.485ZM35.1674 43.56H40.3574V51H38.1524V45.285H35.1674V43.56ZM39.1574 42.465C38.7274 42.465 38.3724 42.345 38.0924 42.105C37.8224 41.865 37.6874 41.54 37.6874 41.13C37.6874 40.72 37.8224 40.39 38.0924 40.14C38.3724 39.88 38.7274 39.75 39.1574 39.75C39.5874 39.75 39.9374 39.88 40.2074 40.14C40.4874 40.39 40.6274 40.72 40.6274 41.13C40.6274 41.54 40.4874 41.865 40.2074 42.105C39.9374 42.345 39.5874 42.465 39.1574 42.465ZM44.7616 48.66C45.1916 48.93 45.6216 49.145 46.0516 49.305C46.4916 49.465 46.9616 49.545 47.4616 49.545C47.9716 49.545 48.3366 49.49 48.5566 49.38C48.7766 49.27 48.8866 49.115 48.8866 48.915C48.8866 48.685 48.7016 48.5 48.3316 48.36C47.9716 48.21 47.4916 48.05 46.8916 47.88C46.5616 47.79 46.2366 47.685 45.9166 47.565C45.6066 47.435 45.3266 47.285 45.0766 47.115C44.8266 46.935 44.6216 46.73 44.4616 46.5C44.3116 46.27 44.2366 46.005 44.2366 45.705C44.2366 45.365 44.3166 45.05 44.4766 44.76C44.6366 44.47 44.8616 44.225 45.1516 44.025C45.4516 43.825 45.8116 43.67 46.2316 43.56C46.6616 43.44 47.1416 43.38 47.6716 43.38C48.3316 43.38 48.9316 43.49 49.4716 43.71C50.0216 43.92 50.4916 44.15 50.8816 44.4L49.8916 45.72C49.5516 45.52 49.2016 45.355 48.8416 45.225C48.4816 45.085 48.1066 45.015 47.7166 45.015C47.2466 45.015 46.9116 45.065 46.7116 45.165C46.5216 45.265 46.4266 45.41 46.4266 45.6C46.4266 45.71 46.4766 45.81 46.5766 45.9C46.6766 45.99 46.8116 46.07 46.9816 46.14C47.1516 46.21 47.3516 46.28 47.5816 46.35C47.8216 46.41 48.0716 46.475 48.3316 46.545C48.7016 46.645 49.0516 46.76 49.3816 46.89C49.7116 47.01 50.0016 47.155 50.2516 47.325C50.5016 47.495 50.7016 47.7 50.8516 47.94C51.0016 48.18 51.0766 48.46 51.0766 48.78C51.0766 49.12 50.9966 49.435 50.8366 49.725C50.6766 50.015 50.4416 50.27 50.1316 50.49C49.8316 50.7 49.4516 50.87 48.9916 51C48.5416 51.12 48.0166 51.18 47.4166 51.18C46.7466 51.18 46.0916 51.07 45.4516 50.85C44.8116 50.63 44.2516 50.36 43.7716 50.04L44.7616 48.66ZM54.5807 45.285H52.7057V43.65L54.6857 43.56L54.9707 41.58H56.7857V43.56H59.9357V45.285H56.7857V47.895C56.7857 48.465 56.9107 48.87 57.1607 49.11C57.4107 49.34 57.8057 49.455 58.3457 49.455C58.6357 49.455 58.9007 49.43 59.1407 49.38C59.3807 49.33 59.6107 49.265 59.8307 49.185L60.2207 50.775C59.8907 50.875 59.5207 50.965 59.1107 51.045C58.7107 51.135 58.2707 51.18 57.7907 51.18C57.2007 51.18 56.7007 51.1 56.2907 50.94C55.8807 50.78 55.5457 50.56 55.2857 50.28C55.0357 49.99 54.8557 49.645 54.7457 49.245C54.6357 48.845 54.5807 48.4 54.5807 47.91V45.285ZM71.009 43.53H77.909V45.09H71.009V43.53ZM71.009 46.995H77.909V48.555H71.009V46.995ZM90.9623 40.38H95.3873V41.55H92.6423V52.11H95.3873V53.28H90.9623V40.38ZM108.666 52.965C109.966 52.515 110.616 51.805 110.616 50.835C110.576 50.845 110.521 50.85 110.451 50.85C110.241 50.85 110.036 50.82 109.836 50.76C109.646 50.69 109.476 50.59 109.326 50.46C109.176 50.33 109.056 50.17 108.966 49.98C108.876 49.79 108.831 49.57 108.831 49.32C108.831 48.85 108.991 48.475 109.311 48.195C109.641 47.915 110.041 47.775 110.511 47.775C111.131 47.775 111.596 48.005 111.906 48.465C112.216 48.915 112.371 49.545 112.371 50.355C112.371 51.315 112.106 52.125 111.576 52.785C111.046 53.445 110.261 53.935 109.221 54.255L108.666 52.965ZM153.636 52.965C154.936 52.515 155.586 51.805 155.586 50.835C155.546 50.845 155.491 50.85 155.421 50.85C155.211 50.85 155.006 50.82 154.806 50.76C154.616 50.69 154.446 50.59 154.296 50.46C154.146 50.33 154.026 50.17 153.936 49.98C153.846 49.79 153.801 49.57 153.801 49.32C153.801 48.85 153.961 48.475 154.281 48.195C154.611 47.915 155.011 47.775 155.481 47.775C156.101 47.775 156.566 48.005 156.876 48.465C157.186 48.915 157.341 49.545 157.341 50.355C157.341 51.315 157.076 52.125 156.546 52.785C156.016 53.445 155.231 53.935 154.191 54.255L153.636 52.965ZM209.176 52.11V41.55H206.446V40.38H210.871V53.28H206.446V52.11H209.176ZM7.915 67.93C7.915 67.51 8.005 67.145 8.185 66.835C8.365 66.515 8.65 66.245 9.04 66.025C9.44 65.805 9.95 65.63 10.57 65.5C11.19 65.36 11.94 65.265 12.82 65.215C12.78 64.875 12.63 64.61 12.37 64.42C12.12 64.23 11.74 64.135 11.23 64.135C10.87 64.135 10.505 64.2 10.135 64.33C9.775 64.45 9.385 64.615 8.965 64.825L8.185 63.385C8.695 63.095 9.24 62.855 9.82 62.665C10.41 62.475 11.025 62.38 11.665 62.38C12.705 62.38 13.525 62.655 14.125 63.205C14.725 63.755 15.025 64.6 15.025 65.74V70H13.225L13.06 69.16H13C12.62 69.45 12.205 69.695 11.755 69.895C11.305 70.085 10.84 70.18 10.36 70.18C9.98 70.18 9.64 70.12 9.34 70C9.04 69.89 8.785 69.735 8.575 69.535C8.365 69.325 8.2 69.085 8.08 68.815C7.97 68.545 7.915 68.25 7.915 67.93ZM10.03 67.765C10.03 68.005 10.12 68.185 10.3 68.305C10.49 68.415 10.745 68.47 11.065 68.47C11.395 68.47 11.705 68.405 11.995 68.275C12.285 68.135 12.56 67.965 12.82 67.765V66.535C12.27 66.565 11.815 66.615 11.455 66.685C11.095 66.755 10.81 66.845 10.6 66.955C10.39 67.055 10.24 67.175 10.15 67.315C10.07 67.455 10.03 67.605 10.03 67.765ZM24.0941 70.81V72.46H16.8941V70.81H24.0941ZM27.5983 64.285H25.7233V62.65L27.7033 62.56L27.9883 60.58H29.8033V62.56H32.9533V64.285H29.8033V66.895C29.8033 67.465 29.9283 67.87 30.1783 68.11C30.4283 68.34 30.8233 68.455 31.3633 68.455C31.6533 68.455 31.9183 68.43 32.1583 68.38C32.3983 68.33 32.6283 68.265 32.8483 68.185L33.2383 69.775C32.9083 69.875 32.5383 69.965 32.1283 70.045C31.7283 70.135 31.2883 70.18 30.8083 70.18C30.2183 70.18 29.7183 70.1 29.3083 69.94C28.8983 69.78 28.5633 69.56 28.3033 69.28C28.0533 68.99 27.8733 68.645 27.7633 68.245C27.6533 67.845 27.5983 67.4 27.5983 66.91V64.285ZM41.8574 70H40.0574L39.8924 68.935H39.8324C39.5024 69.315 39.1374 69.62 38.7374 69.85C38.3374 70.07 37.8674 70.18 37.3274 70.18C36.4774 70.18 35.8624 69.91 35.4824 69.37C35.1024 68.83 34.9124 68.09 34.9124 67.15V62.56H37.1174V66.865C37.1174 67.365 37.1924 67.73 37.3424 67.96C37.4924 68.19 37.7774 68.305 38.1974 68.305C38.4774 68.305 38.7224 68.245 38.9324 68.125C39.1524 68.005 39.3924 67.78 39.6524 67.45V62.56H41.8574V70ZM46.2616 70.585V72.76H44.0566V62.56H45.8566L46.0216 63.31H46.0666C46.3666 63.04 46.7116 62.82 47.1016 62.65C47.4916 62.47 47.8866 62.38 48.2866 62.38C48.7466 62.38 49.1616 62.47 49.5316 62.65C49.9016 62.83 50.2166 63.085 50.4766 63.415C50.7366 63.745 50.9316 64.145 51.0616 64.615C51.2016 65.075 51.2716 65.59 51.2716 66.16C51.2716 66.8 51.1816 67.37 51.0016 67.87C50.8216 68.36 50.5816 68.78 50.2816 69.13C49.9816 69.47 49.6366 69.73 49.2466 69.91C48.8666 70.09 48.4666 70.18 48.0466 70.18C47.3666 70.18 46.7466 69.91 46.1866 69.37L46.2616 70.585ZM46.2616 67.885C46.4716 68.065 46.6866 68.195 46.9066 68.275C47.1366 68.345 47.3466 68.38 47.5366 68.38C47.9566 68.38 48.3066 68.21 48.5866 67.87C48.8666 67.52 49.0066 66.96 49.0066 66.19C49.0066 64.85 48.5516 64.18 47.6416 64.18C47.1716 64.18 46.7116 64.41 46.2616 64.87V67.885ZM52.9007 59.485H57.2657V67.18C57.2657 67.41 57.2957 67.605 57.3557 67.765C57.4257 67.915 57.5157 68.04 57.6257 68.14C57.7457 68.23 57.8757 68.295 58.0157 68.335C58.1657 68.375 58.3157 68.395 58.4657 68.395C58.6357 68.395 58.8157 68.38 59.0057 68.35C59.1957 68.31 59.4057 68.245 59.6357 68.155L60.1307 69.775C59.9307 69.835 59.7457 69.89 59.5757 69.94C59.4057 69.99 59.2357 70.03 59.0657 70.06C58.8957 70.1 58.7157 70.13 58.5257 70.15C58.3357 70.17 58.1257 70.18 57.8957 70.18C56.9557 70.18 56.2457 69.905 55.7657 69.355C55.2957 68.795 55.0607 68.04 55.0607 67.09V61.225H52.9007V59.485ZM61.7898 66.28C61.7898 65.67 61.8948 65.125 62.1048 64.645C62.3248 64.165 62.6148 63.76 62.9748 63.43C63.3348 63.09 63.7448 62.83 64.2048 62.65C64.6748 62.47 65.1598 62.38 65.6598 62.38C66.2298 62.38 66.7348 62.47 67.1748 62.65C67.6148 62.83 67.9798 63.08 68.2698 63.4C68.5598 63.72 68.7798 64.1 68.9298 64.54C69.0798 64.97 69.1548 65.44 69.1548 65.95C69.1548 66.15 69.1448 66.34 69.1248 66.52C69.1048 66.7 69.0848 66.835 69.0648 66.925H64.0548C64.1348 67.485 64.3748 67.89 64.7748 68.14C65.1848 68.38 65.6648 68.5 66.2148 68.5C66.5548 68.5 66.8748 68.46 67.1748 68.38C67.4848 68.29 67.8048 68.16 68.1348 67.99L68.8548 69.31C68.4348 69.58 67.9648 69.795 67.4448 69.955C66.9248 70.105 66.4148 70.18 65.9148 70.18C65.3348 70.18 64.7948 70.095 64.2948 69.925C63.7948 69.745 63.3598 69.49 62.9898 69.16C62.6198 68.82 62.3248 68.41 62.1048 67.93C61.8948 67.45 61.7898 66.9 61.7898 66.28ZM67.1598 65.47C67.1598 65.05 67.0448 64.71 66.8148 64.45C66.5848 64.19 66.2148 64.06 65.7048 64.06C65.3048 64.06 64.9498 64.175 64.6398 64.405C64.3298 64.635 64.1248 64.99 64.0248 65.47H67.1598ZM80.0031 62.53H86.9031V64.09H80.0031V62.53ZM80.0031 65.995H86.9031V67.555H80.0031V65.995ZM102.821 72.685C101.841 71.815 101.066 70.81 100.496 69.67C99.9364 68.53 99.6564 67.25 99.6564 65.83C99.6564 64.41 99.9364 63.13 100.496 61.99C101.066 60.85 101.841 59.845 102.821 58.975L104.051 59.95C103.161 60.82 102.511 61.725 102.101 62.665C101.701 63.595 101.501 64.65 101.501 65.83C101.501 66.42 101.551 66.98 101.651 67.51C101.751 68.03 101.901 68.53 102.101 69.01C102.311 69.49 102.576 69.95 102.896 70.39C103.216 70.84 103.601 71.28 104.051 71.71L102.821 72.685ZM117.66 71.965C118.96 71.515 119.61 70.805 119.61 69.835C119.57 69.845 119.515 69.85 119.445 69.85C119.235 69.85 119.03 69.82 118.83 69.76C118.64 69.69 118.47 69.59 118.32 69.46C118.17 69.33 118.05 69.17 117.96 68.98C117.87 68.79 117.825 68.57 117.825 68.32C117.825 67.85 117.985 67.475 118.305 67.195C118.635 66.915 119.035 66.775 119.505 66.775C120.125 66.775 120.59 67.005 120.9 67.465C121.21 67.915 121.365 68.545 121.365 69.355C121.365 70.315 121.1 71.125 120.57 71.785C120.04 72.445 119.255 72.935 118.215 73.255L117.66 71.965ZM162.63 71.965C163.93 71.515 164.58 70.805 164.58 69.835C164.54 69.845 164.485 69.85 164.415 69.85C164.205 69.85 164 69.82 163.8 69.76C163.61 69.69 163.44 69.59 163.29 69.46C163.14 69.33 163.02 69.17 162.93 68.98C162.84 68.79 162.795 68.57 162.795 68.32C162.795 67.85 162.955 67.475 163.275 67.195C163.605 66.915 164.005 66.775 164.475 66.775C165.095 66.775 165.56 67.005 165.87 67.465C166.18 67.915 166.335 68.545 166.335 69.355C166.335 70.315 166.07 71.125 165.54 71.785C165.01 72.445 164.225 72.935 163.185 73.255L162.63 71.965ZM215.755 71.71C216.205 71.28 216.59 70.84 216.91 70.39C217.23 69.95 217.49 69.49 217.69 69.01C217.9 68.53 218.055 68.03 218.155 67.51C218.255 66.98 218.305 66.42 218.305 65.83C218.305 64.65 218.1 63.595 217.69 62.665C217.29 61.725 216.645 60.82 215.755 59.95L216.985 58.975C217.965 59.845 218.735 60.85 219.295 61.99C219.865 63.13 220.15 64.41 220.15 65.83C220.15 67.25 219.865 68.53 219.295 69.67C218.735 70.81 217.965 71.815 216.985 72.685L215.755 71.71ZM57.8507 109.685C56.8707 108.815 56.0957 107.81 55.5257 106.67C54.9657 105.53 54.6857 104.25 54.6857 102.83C54.6857 101.41 54.9657 100.13 55.5257 98.99C56.0957 97.85 56.8707 96.845 57.8507 95.975L59.0807 96.95C58.1907 97.82 57.5407 98.725 57.1307 99.665C56.7307 100.595 56.5307 101.65 56.5307 102.83C56.5307 103.42 56.5807 103.98 56.6807 104.51C56.7807 105.03 56.9307 105.53 57.1307 106.01C57.3407 106.49 57.6057 106.95 57.9257 107.39C58.2457 107.84 58.6307 108.28 59.0807 108.71L57.8507 109.685ZM61.8798 104.93C61.8798 104.51 61.9698 104.145 62.1498 103.835C62.3298 103.515 62.6148 103.245 63.0048 103.025C63.4048 102.805 63.9148 102.63 64.5348 102.5C65.1548 102.36 65.9048 102.265 66.7848 102.215C66.7448 101.875 66.5948 101.61 66.3348 101.42C66.0848 101.23 65.7048 101.135 65.1948 101.135C64.8348 101.135 64.4698 101.2 64.0998 101.33C63.7398 101.45 63.3498 101.615 62.9298 101.825L62.1498 100.385C62.6598 100.095 63.2048 99.855 63.7848 99.665C64.3748 99.475 64.9898 99.38 65.6298 99.38C66.6698 99.38 67.4898 99.655 68.0898 100.205C68.6898 100.755 68.9898 101.6 68.9898 102.74V107H67.1898L67.0248 106.16H66.9648C66.5848 106.45 66.1698 106.695 65.7198 106.895C65.2698 107.085 64.8048 107.18 64.3248 107.18C63.9448 107.18 63.6048 107.12 63.3048 107C63.0048 106.89 62.7498 106.735 62.5398 106.535C62.3298 106.325 62.1648 106.085 62.0448 105.815C61.9348 105.545 61.8798 105.25 61.8798 104.93ZM63.9948 104.765C63.9948 105.005 64.0848 105.185 64.2648 105.305C64.4548 105.415 64.7098 105.47 65.0298 105.47C65.3598 105.47 65.6698 105.405 65.9598 105.275C66.2498 105.135 66.5248 104.965 66.7848 104.765V103.535C66.2348 103.565 65.7798 103.615 65.4198 103.685C65.0598 103.755 64.7748 103.845 64.5648 103.955C64.3548 104.055 64.2048 104.175 64.1148 104.315C64.0348 104.455 63.9948 104.605 63.9948 104.765ZM78.059 107.81V109.46H70.859V107.81H78.059ZM81.5631 101.285H79.6881V99.65L81.6681 99.56L81.9531 97.58H83.7681V99.56H86.9181V101.285H83.7681V103.895C83.7681 104.465 83.8931 104.87 84.1431 105.11C84.3931 105.34 84.7881 105.455 85.3281 105.455C85.6181 105.455 85.8831 105.43 86.1231 105.38C86.3631 105.33 86.5931 105.265 86.8131 105.185L87.2031 106.775C86.8731 106.875 86.5031 106.965 86.0931 107.045C85.6931 107.135 85.2531 107.18 84.7731 107.18C84.1831 107.18 83.6831 107.1 83.2731 106.94C82.8631 106.78 82.5281 106.56 82.2681 106.28C82.0181 105.99 81.8381 105.645 81.7281 105.245C81.6181 104.845 81.5631 104.4 81.5631 103.91V101.285ZM95.8223 107H94.0223L93.8573 105.935H93.7973C93.4673 106.315 93.1023 106.62 92.7023 106.85C92.3023 107.07 91.8323 107.18 91.2923 107.18C90.4423 107.18 89.8273 106.91 89.4473 106.37C89.0673 105.83 88.8773 105.09 88.8773 104.15V99.56H91.0823V103.865C91.0823 104.365 91.1573 104.73 91.3073 104.96C91.4573 105.19 91.7423 105.305 92.1623 105.305C92.4423 105.305 92.6873 105.245 92.8973 105.125C93.1173 105.005 93.3573 104.78 93.6173 104.45V99.56H95.8223V107ZM100.226 107.585V109.76H98.0214V99.56H99.8214L99.9864 100.31H100.031C100.331 100.04 100.676 99.82 101.066 99.65C101.456 99.47 101.851 99.38 102.251 99.38C102.711 99.38 103.126 99.47 103.496 99.65C103.866 99.83 104.181 100.085 104.441 100.415C104.701 100.745 104.896 101.145 105.026 101.615C105.166 102.075 105.236 102.59 105.236 103.16C105.236 103.8 105.146 104.37 104.966 104.87C104.786 105.36 104.546 105.78 104.246 106.13C103.946 106.47 103.601 106.73 103.211 106.91C102.831 107.09 102.431 107.18 102.011 107.18C101.331 107.18 100.711 106.91 100.151 106.37L100.226 107.585ZM100.226 104.885C100.436 105.065 100.651 105.195 100.871 105.275C101.101 105.345 101.311 105.38 101.501 105.38C101.921 105.38 102.271 105.21 102.551 104.87C102.831 104.52 102.971 103.96 102.971 103.19C102.971 101.85 102.516 101.18 101.606 101.18C101.136 101.18 100.676 101.41 100.226 101.87V104.885ZM106.866 96.485H111.231V104.18C111.231 104.41 111.261 104.605 111.321 104.765C111.391 104.915 111.481 105.04 111.591 105.14C111.711 105.23 111.841 105.295 111.981 105.335C112.131 105.375 112.281 105.395 112.431 105.395C112.601 105.395 112.781 105.38 112.971 105.35C113.161 105.31 113.371 105.245 113.601 105.155L114.096 106.775C113.896 106.835 113.711 106.89 113.541 106.94C113.371 106.99 113.201 107.03 113.031 107.06C112.861 107.1 112.681 107.13 112.491 107.15C112.301 107.17 112.091 107.18 111.861 107.18C110.921 107.18 110.211 106.905 109.731 106.355C109.261 105.795 109.026 105.04 109.026 104.09V98.225H106.866V96.485ZM115.755 103.28C115.755 102.67 115.86 102.125 116.07 101.645C116.29 101.165 116.58 100.76 116.94 100.43C117.3 100.09 117.71 99.83 118.17 99.65C118.64 99.47 119.125 99.38 119.625 99.38C120.195 99.38 120.7 99.47 121.14 99.65C121.58 99.83 121.945 100.08 122.235 100.4C122.525 100.72 122.745 101.1 122.895 101.54C123.045 101.97 123.12 102.44 123.12 102.95C123.12 103.15 123.11 103.34 123.09 103.52C123.07 103.7 123.05 103.835 123.03 103.925H118.02C118.1 104.485 118.34 104.89 118.74 105.14C119.15 105.38 119.63 105.5 120.18 105.5C120.52 105.5 120.84 105.46 121.14 105.38C121.45 105.29 121.77 105.16 122.1 104.99L122.82 106.31C122.4 106.58 121.93 106.795 121.41 106.955C120.89 107.105 120.38 107.18 119.88 107.18C119.3 107.18 118.76 107.095 118.26 106.925C117.76 106.745 117.325 106.49 116.955 106.16C116.585 105.82 116.29 105.41 116.07 104.93C115.86 104.45 115.755 103.9 115.755 103.28ZM121.125 102.47C121.125 102.05 121.01 101.71 120.78 101.45C120.55 101.19 120.18 101.06 119.67 101.06C119.27 101.06 118.915 101.175 118.605 101.405C118.295 101.635 118.09 101.99 117.99 102.47H121.125ZM126.939 96.38H131.364V97.55H128.619V108.11H131.364V109.28H126.939V96.38ZM146.217 108.11V97.55H143.487V96.38H147.912V109.28H143.487V108.11H146.217ZM152.796 108.71C153.246 108.28 153.631 107.84 153.951 107.39C154.271 106.95 154.531 106.49 154.731 106.01C154.941 105.53 155.096 105.03 155.196 104.51C155.296 103.98 155.346 103.42 155.346 102.83C155.346 101.65 155.141 100.595 154.731 99.665C154.331 98.725 153.686 97.82 152.796 96.95L154.026 95.975C155.006 96.845 155.776 97.85 156.336 98.99C156.906 100.13 157.191 101.41 157.191 102.83C157.191 104.25 156.906 105.53 156.336 106.67C155.776 107.81 155.006 108.815 154.026 109.685L152.796 108.71ZM57.8507 128.685C56.8707 127.815 56.0957 126.81 55.5257 125.67C54.9657 124.53 54.6857 123.25 54.6857 121.83C54.6857 120.41 54.9657 119.13 55.5257 117.99C56.0957 116.85 56.8707 115.845 57.8507 114.975L59.0807 115.95C58.1907 116.82 57.5407 117.725 57.1307 118.665C56.7307 119.595 56.5307 120.65 56.5307 121.83C56.5307 122.42 56.5807 122.98 56.6807 123.51C56.7807 124.03 56.9307 124.53 57.1307 125.01C57.3407 125.49 57.6057 125.95 57.9257 126.39C58.2457 126.84 58.6307 127.28 59.0807 127.71L57.8507 128.685ZM61.8798 123.93C61.8798 123.51 61.9698 123.145 62.1498 122.835C62.3298 122.515 62.6148 122.245 63.0048 122.025C63.4048 121.805 63.9148 121.63 64.5348 121.5C65.1548 121.36 65.9048 121.265 66.7848 121.215C66.7448 120.875 66.5948 120.61 66.3348 120.42C66.0848 120.23 65.7048 120.135 65.1948 120.135C64.8348 120.135 64.4698 120.2 64.0998 120.33C63.7398 120.45 63.3498 120.615 62.9298 120.825L62.1498 119.385C62.6598 119.095 63.2048 118.855 63.7848 118.665C64.3748 118.475 64.9898 118.38 65.6298 118.38C66.6698 118.38 67.4898 118.655 68.0898 119.205C68.6898 119.755 68.9898 120.6 68.9898 121.74V126H67.1898L67.0248 125.16H66.9648C66.5848 125.45 66.1698 125.695 65.7198 125.895C65.2698 126.085 64.8048 126.18 64.3248 126.18C63.9448 126.18 63.6048 126.12 63.3048 126C63.0048 125.89 62.7498 125.735 62.5398 125.535C62.3298 125.325 62.1648 125.085 62.0448 124.815C61.9348 124.545 61.8798 124.25 61.8798 123.93ZM63.9948 123.765C63.9948 124.005 64.0848 124.185 64.2648 124.305C64.4548 124.415 64.7098 124.47 65.0298 124.47C65.3598 124.47 65.6698 124.405 65.9598 124.275C66.2498 124.135 66.5248 123.965 66.7848 123.765V122.535C66.2348 122.565 65.7798 122.615 65.4198 122.685C65.0598 122.755 64.7748 122.845 64.5648 122.955C64.3548 123.055 64.2048 123.175 64.1148 123.315C64.0348 123.455 63.9948 123.605 63.9948 123.765ZM78.059 126.81V128.46H70.859V126.81H78.059ZM79.8831 115.485H84.2481V123.18C84.2481 123.41 84.2781 123.605 84.3381 123.765C84.4081 123.915 84.4981 124.04 84.6081 124.14C84.7281 124.23 84.8581 124.295 84.9981 124.335C85.1481 124.375 85.2981 124.395 85.4481 124.395C85.6181 124.395 85.7981 124.38 85.9881 124.35C86.1781 124.31 86.3881 124.245 86.6181 124.155L87.1131 125.775C86.9131 125.835 86.7281 125.89 86.5581 125.94C86.3881 125.99 86.2181 126.03 86.0481 126.06C85.8781 126.1 85.6981 126.13 85.5081 126.15C85.3181 126.17 85.1081 126.18 84.8781 126.18C83.9381 126.18 83.2281 125.905 82.7481 125.355C82.2781 124.795 82.0431 124.04 82.0431 123.09V117.225H79.8831V115.485ZM89.1323 118.56H94.3223V126H92.1173V120.285H89.1323V118.56ZM93.1223 117.465C92.6923 117.465 92.3373 117.345 92.0573 117.105C91.7873 116.865 91.6523 116.54 91.6523 116.13C91.6523 115.72 91.7873 115.39 92.0573 115.14C92.3373 114.88 92.6923 114.75 93.1223 114.75C93.5523 114.75 93.9023 114.88 94.1723 115.14C94.4523 115.39 94.5923 115.72 94.5923 116.13C94.5923 116.54 94.4523 116.865 94.1723 117.105C93.9023 117.345 93.5523 117.465 93.1223 117.465ZM98.7264 123.66C99.1564 123.93 99.5864 124.145 100.016 124.305C100.456 124.465 100.926 124.545 101.426 124.545C101.936 124.545 102.301 124.49 102.521 124.38C102.741 124.27 102.851 124.115 102.851 123.915C102.851 123.685 102.666 123.5 102.296 123.36C101.936 123.21 101.456 123.05 100.856 122.88C100.526 122.79 100.201 122.685 99.8814 122.565C99.5714 122.435 99.2914 122.285 99.0414 122.115C98.7914 121.935 98.5864 121.73 98.4264 121.5C98.2764 121.27 98.2014 121.005 98.2014 120.705C98.2014 120.365 98.2814 120.05 98.4414 119.76C98.6014 119.47 98.8264 119.225 99.1164 119.025C99.4164 118.825 99.7764 118.67 100.196 118.56C100.626 118.44 101.106 118.38 101.636 118.38C102.296 118.38 102.896 118.49 103.436 118.71C103.986 118.92 104.456 119.15 104.846 119.4L103.856 120.72C103.516 120.52 103.166 120.355 102.806 120.225C102.446 120.085 102.071 120.015 101.681 120.015C101.211 120.015 100.876 120.065 100.676 120.165C100.486 120.265 100.391 120.41 100.391 120.6C100.391 120.71 100.441 120.81 100.541 120.9C100.641 120.99 100.776 121.07 100.946 121.14C101.116 121.21 101.316 121.28 101.546 121.35C101.786 121.41 102.036 121.475 102.296 121.545C102.666 121.645 103.016 121.76 103.346 121.89C103.676 122.01 103.966 122.155 104.216 122.325C104.466 122.495 104.666 122.7 104.816 122.94C104.966 123.18 105.041 123.46 105.041 123.78C105.041 124.12 104.961 124.435 104.801 124.725C104.641 125.015 104.406 125.27 104.096 125.49C103.796 125.7 103.416 125.87 102.956 126C102.506 126.12 101.981 126.18 101.381 126.18C100.711 126.18 100.056 126.07 99.4164 125.85C98.7764 125.63 98.2164 125.36 97.7364 125.04L98.7264 123.66ZM108.546 120.285H106.671V118.65L108.651 118.56L108.936 116.58H110.751V118.56H113.901V120.285H110.751V122.895C110.751 123.465 110.876 123.87 111.126 124.11C111.376 124.34 111.771 124.455 112.311 124.455C112.601 124.455 112.866 124.43 113.106 124.38C113.346 124.33 113.576 124.265 113.796 124.185L114.186 125.775C113.856 125.875 113.486 125.965 113.076 126.045C112.676 126.135 112.236 126.18 111.756 126.18C111.166 126.18 110.666 126.1 110.256 125.94C109.846 125.78 109.511 125.56 109.251 125.28C109.001 124.99 108.821 124.645 108.711 124.245C108.601 123.845 108.546 123.4 108.546 122.91V120.285ZM117.945 115.38H122.37V116.55H119.625V127.11H122.37V128.28H117.945V115.38ZM137.223 127.11V116.55H134.493V115.38H138.918V128.28H134.493V127.11H137.223ZM143.802 127.71C144.252 127.28 144.637 126.84 144.957 126.39C145.277 125.95 145.537 125.49 145.737 125.01C145.947 124.53 146.102 124.03 146.202 123.51C146.302 122.98 146.352 122.42 146.352 121.83C146.352 120.65 146.147 119.595 145.737 118.665C145.337 117.725 144.692 116.82 143.802 115.95L145.032 114.975C146.012 115.845 146.782 116.85 147.342 117.99C147.912 119.13 148.197 120.41 148.197 121.83C148.197 123.25 147.912 124.53 147.342 125.67C146.782 126.81 146.012 127.815 145.032 128.685L143.802 127.71ZM57.8507 147.685C56.8707 146.815 56.0957 145.81 55.5257 144.67C54.9657 143.53 54.6857 142.25 54.6857 140.83C54.6857 139.41 54.9657 138.13 55.5257 136.99C56.0957 135.85 56.8707 134.845 57.8507 133.975L59.0807 134.95C58.1907 135.82 57.5407 136.725 57.1307 137.665C56.7307 138.595 56.5307 139.65 56.5307 140.83C56.5307 141.42 56.5807 141.98 56.6807 142.51C56.7807 143.03 56.9307 143.53 57.1307 144.01C57.3407 144.49 57.6057 144.95 57.9257 145.39C58.2457 145.84 58.6307 146.28 59.0807 146.71L57.8507 147.685ZM61.8798 142.93C61.8798 142.51 61.9698 142.145 62.1498 141.835C62.3298 141.515 62.6148 141.245 63.0048 141.025C63.4048 140.805 63.9148 140.63 64.5348 140.5C65.1548 140.36 65.9048 140.265 66.7848 140.215C66.7448 139.875 66.5948 139.61 66.3348 139.42C66.0848 139.23 65.7048 139.135 65.1948 139.135C64.8348 139.135 64.4698 139.2 64.0998 139.33C63.7398 139.45 63.3498 139.615 62.9298 139.825L62.1498 138.385C62.6598 138.095 63.2048 137.855 63.7848 137.665C64.3748 137.475 64.9898 137.38 65.6298 137.38C66.6698 137.38 67.4898 137.655 68.0898 138.205C68.6898 138.755 68.9898 139.6 68.9898 140.74V145H67.1898L67.0248 144.16H66.9648C66.5848 144.45 66.1698 144.695 65.7198 144.895C65.2698 145.085 64.8048 145.18 64.3248 145.18C63.9448 145.18 63.6048 145.12 63.3048 145C63.0048 144.89 62.7498 144.735 62.5398 144.535C62.3298 144.325 62.1648 144.085 62.0448 143.815C61.9348 143.545 61.8798 143.25 61.8798 142.93ZM63.9948 142.765C63.9948 143.005 64.0848 143.185 64.2648 143.305C64.4548 143.415 64.7098 143.47 65.0298 143.47C65.3598 143.47 65.6698 143.405 65.9598 143.275C66.2498 143.135 66.5248 142.965 66.7848 142.765V141.535C66.2348 141.565 65.7798 141.615 65.4198 141.685C65.0598 141.755 64.7748 141.845 64.5648 141.955C64.3548 142.055 64.2048 142.175 64.1148 142.315C64.0348 142.455 63.9948 142.605 63.9948 142.765ZM78.059 145.81V147.46H70.859V145.81H78.059ZM81.5631 139.285H79.6881V137.65L81.6681 137.56L81.9531 135.58H83.7681V137.56H86.9181V139.285H83.7681V141.895C83.7681 142.465 83.8931 142.87 84.1431 143.11C84.3931 143.34 84.7881 143.455 85.3281 143.455C85.6181 143.455 85.8831 143.43 86.1231 143.38C86.3631 143.33 86.5931 143.265 86.8131 143.185L87.2031 144.775C86.8731 144.875 86.5031 144.965 86.0931 145.045C85.6931 145.135 85.2531 145.18 84.7731 145.18C84.1831 145.18 83.6831 145.1 83.2731 144.94C82.8631 144.78 82.5281 144.56 82.2681 144.28C82.0181 143.99 81.8381 143.645 81.7281 143.245C81.6181 142.845 81.5631 142.4 81.5631 141.91V139.285ZM95.8223 145H94.0223L93.8573 143.935H93.7973C93.4673 144.315 93.1023 144.62 92.7023 144.85C92.3023 145.07 91.8323 145.18 91.2923 145.18C90.4423 145.18 89.8273 144.91 89.4473 144.37C89.0673 143.83 88.8773 143.09 88.8773 142.15V137.56H91.0823V141.865C91.0823 142.365 91.1573 142.73 91.3073 142.96C91.4573 143.19 91.7423 143.305 92.1623 143.305C92.4423 143.305 92.6873 143.245 92.8973 143.125C93.1173 143.005 93.3573 142.78 93.6173 142.45V137.56H95.8223V145ZM100.226 145.585V147.76H98.0214V137.56H99.8214L99.9864 138.31H100.031C100.331 138.04 100.676 137.82 101.066 137.65C101.456 137.47 101.851 137.38 102.251 137.38C102.711 137.38 103.126 137.47 103.496 137.65C103.866 137.83 104.181 138.085 104.441 138.415C104.701 138.745 104.896 139.145 105.026 139.615C105.166 140.075 105.236 140.59 105.236 141.16C105.236 141.8 105.146 142.37 104.966 142.87C104.786 143.36 104.546 143.78 104.246 144.13C103.946 144.47 103.601 144.73 103.211 144.91C102.831 145.09 102.431 145.18 102.011 145.18C101.331 145.18 100.711 144.91 100.151 144.37L100.226 145.585ZM100.226 142.885C100.436 143.065 100.651 143.195 100.871 143.275C101.101 143.345 101.311 143.38 101.501 143.38C101.921 143.38 102.271 143.21 102.551 142.87C102.831 142.52 102.971 141.96 102.971 141.19C102.971 139.85 102.516 139.18 101.606 139.18C101.136 139.18 100.676 139.41 100.226 139.87V142.885ZM106.866 134.485H111.231V142.18C111.231 142.41 111.261 142.605 111.321 142.765C111.391 142.915 111.481 143.04 111.591 143.14C111.711 143.23 111.841 143.295 111.981 143.335C112.131 143.375 112.281 143.395 112.431 143.395C112.601 143.395 112.781 143.38 112.971 143.35C113.161 143.31 113.371 143.245 113.601 143.155L114.096 144.775C113.896 144.835 113.711 144.89 113.541 144.94C113.371 144.99 113.201 145.03 113.031 145.06C112.861 145.1 112.681 145.13 112.491 145.15C112.301 145.17 112.091 145.18 111.861 145.18C110.921 145.18 110.211 144.905 109.731 144.355C109.261 143.795 109.026 143.04 109.026 142.09V136.225H106.866V134.485ZM115.755 141.28C115.755 140.67 115.86 140.125 116.07 139.645C116.29 139.165 116.58 138.76 116.94 138.43C117.3 138.09 117.71 137.83 118.17 137.65C118.64 137.47 119.125 137.38 119.625 137.38C120.195 137.38 120.7 137.47 121.14 137.65C121.58 137.83 121.945 138.08 122.235 138.4C122.525 138.72 122.745 139.1 122.895 139.54C123.045 139.97 123.12 140.44 123.12 140.95C123.12 141.15 123.11 141.34 123.09 141.52C123.07 141.7 123.05 141.835 123.03 141.925H118.02C118.1 142.485 118.34 142.89 118.74 143.14C119.15 143.38 119.63 143.5 120.18 143.5C120.52 143.5 120.84 143.46 121.14 143.38C121.45 143.29 121.77 143.16 122.1 142.99L122.82 144.31C122.4 144.58 121.93 144.795 121.41 144.955C120.89 145.105 120.38 145.18 119.88 145.18C119.3 145.18 118.76 145.095 118.26 144.925C117.76 144.745 117.325 144.49 116.955 144.16C116.585 143.82 116.29 143.41 116.07 142.93C115.86 142.45 115.755 141.9 115.755 141.28ZM121.125 140.47C121.125 140.05 121.01 139.71 120.78 139.45C120.55 139.19 120.18 139.06 119.67 139.06C119.27 139.06 118.915 139.175 118.605 139.405C118.295 139.635 118.09 139.99 117.99 140.47H121.125ZM126.939 134.38H131.364V135.55H128.619V146.11H131.364V147.28H126.939V134.38ZM133.968 139.27H140.868V140.83H133.968V139.27ZM155.211 146.11V135.55H152.481V134.38H156.906V147.28H152.481V146.11H155.211ZM161.79 146.71C162.24 146.28 162.625 145.84 162.945 145.39C163.265 144.95 163.525 144.49 163.725 144.01C163.935 143.53 164.09 143.03 164.19 142.51C164.29 141.98 164.34 141.42 164.34 140.83C164.34 139.65 164.135 138.595 163.725 137.665C163.325 136.725 162.68 135.82 161.79 134.95L163.02 133.975C164 134.845 164.77 135.85 165.33 136.99C165.9 138.13 166.185 139.41 166.185 140.83C166.185 142.25 165.9 143.53 165.33 144.67C164.77 145.81 164 146.815 163.02 147.685L161.79 146.71ZM57.8507 166.685C56.8707 165.815 56.0957 164.81 55.5257 163.67C54.9657 162.53 54.6857 161.25 54.6857 159.83C54.6857 158.41 54.9657 157.13 55.5257 155.99C56.0957 154.85 56.8707 153.845 57.8507 152.975L59.0807 153.95C58.1907 154.82 57.5407 155.725 57.1307 156.665C56.7307 157.595 56.5307 158.65 56.5307 159.83C56.5307 160.42 56.5807 160.98 56.6807 161.51C56.7807 162.03 56.9307 162.53 57.1307 163.01C57.3407 163.49 57.6057 163.95 57.9257 164.39C58.2457 164.84 58.6307 165.28 59.0807 165.71L57.8507 166.685ZM61.8798 161.93C61.8798 161.51 61.9698 161.145 62.1498 160.835C62.3298 160.515 62.6148 160.245 63.0048 160.025C63.4048 159.805 63.9148 159.63 64.5348 159.5C65.1548 159.36 65.9048 159.265 66.7848 159.215C66.7448 158.875 66.5948 158.61 66.3348 158.42C66.0848 158.23 65.7048 158.135 65.1948 158.135C64.8348 158.135 64.4698 158.2 64.0998 158.33C63.7398 158.45 63.3498 158.615 62.9298 158.825L62.1498 157.385C62.6598 157.095 63.2048 156.855 63.7848 156.665C64.3748 156.475 64.9898 156.38 65.6298 156.38C66.6698 156.38 67.4898 156.655 68.0898 157.205C68.6898 157.755 68.9898 158.6 68.9898 159.74V164H67.1898L67.0248 163.16H66.9648C66.5848 163.45 66.1698 163.695 65.7198 163.895C65.2698 164.085 64.8048 164.18 64.3248 164.18C63.9448 164.18 63.6048 164.12 63.3048 164C63.0048 163.89 62.7498 163.735 62.5398 163.535C62.3298 163.325 62.1648 163.085 62.0448 162.815C61.9348 162.545 61.8798 162.25 61.8798 161.93ZM63.9948 161.765C63.9948 162.005 64.0848 162.185 64.2648 162.305C64.4548 162.415 64.7098 162.47 65.0298 162.47C65.3598 162.47 65.6698 162.405 65.9598 162.275C66.2498 162.135 66.5248 161.965 66.7848 161.765V160.535C66.2348 160.565 65.7798 160.615 65.4198 160.685C65.0598 160.755 64.7748 160.845 64.5648 160.955C64.3548 161.055 64.2048 161.175 64.1148 161.315C64.0348 161.455 63.9948 161.605 63.9948 161.765ZM78.059 164.81V166.46H70.859V164.81H78.059ZM79.8831 153.485H84.2481V161.18C84.2481 161.41 84.2781 161.605 84.3381 161.765C84.4081 161.915 84.4981 162.04 84.6081 162.14C84.7281 162.23 84.8581 162.295 84.9981 162.335C85.1481 162.375 85.2981 162.395 85.4481 162.395C85.6181 162.395 85.7981 162.38 85.9881 162.35C86.1781 162.31 86.3881 162.245 86.6181 162.155L87.1131 163.775C86.9131 163.835 86.7281 163.89 86.5581 163.94C86.3881 163.99 86.2181 164.03 86.0481 164.06C85.8781 164.1 85.6981 164.13 85.5081 164.15C85.3181 164.17 85.1081 164.18 84.8781 164.18C83.9381 164.18 83.2281 163.905 82.7481 163.355C82.2781 162.795 82.0431 162.04 82.0431 161.09V155.225H79.8831V153.485ZM89.1323 156.56H94.3223V164H92.1173V158.285H89.1323V156.56ZM93.1223 155.465C92.6923 155.465 92.3373 155.345 92.0573 155.105C91.7873 154.865 91.6523 154.54 91.6523 154.13C91.6523 153.72 91.7873 153.39 92.0573 153.14C92.3373 152.88 92.6923 152.75 93.1223 152.75C93.5523 152.75 93.9023 152.88 94.1723 153.14C94.4523 153.39 94.5923 153.72 94.5923 154.13C94.5923 154.54 94.4523 154.865 94.1723 155.105C93.9023 155.345 93.5523 155.465 93.1223 155.465ZM98.7264 161.66C99.1564 161.93 99.5864 162.145 100.016 162.305C100.456 162.465 100.926 162.545 101.426 162.545C101.936 162.545 102.301 162.49 102.521 162.38C102.741 162.27 102.851 162.115 102.851 161.915C102.851 161.685 102.666 161.5 102.296 161.36C101.936 161.21 101.456 161.05 100.856 160.88C100.526 160.79 100.201 160.685 99.8814 160.565C99.5714 160.435 99.2914 160.285 99.0414 160.115C98.7914 159.935 98.5864 159.73 98.4264 159.5C98.2764 159.27 98.2014 159.005 98.2014 158.705C98.2014 158.365 98.2814 158.05 98.4414 157.76C98.6014 157.47 98.8264 157.225 99.1164 157.025C99.4164 156.825 99.7764 156.67 100.196 156.56C100.626 156.44 101.106 156.38 101.636 156.38C102.296 156.38 102.896 156.49 103.436 156.71C103.986 156.92 104.456 157.15 104.846 157.4L103.856 158.72C103.516 158.52 103.166 158.355 102.806 158.225C102.446 158.085 102.071 158.015 101.681 158.015C101.211 158.015 100.876 158.065 100.676 158.165C100.486 158.265 100.391 158.41 100.391 158.6C100.391 158.71 100.441 158.81 100.541 158.9C100.641 158.99 100.776 159.07 100.946 159.14C101.116 159.21 101.316 159.28 101.546 159.35C101.786 159.41 102.036 159.475 102.296 159.545C102.666 159.645 103.016 159.76 103.346 159.89C103.676 160.01 103.966 160.155 104.216 160.325C104.466 160.495 104.666 160.7 104.816 160.94C104.966 161.18 105.041 161.46 105.041 161.78C105.041 162.12 104.961 162.435 104.801 162.725C104.641 163.015 104.406 163.27 104.096 163.49C103.796 163.7 103.416 163.87 102.956 164C102.506 164.12 101.981 164.18 101.381 164.18C100.711 164.18 100.056 164.07 99.4164 163.85C98.7764 163.63 98.2164 163.36 97.7364 163.04L98.7264 161.66ZM108.546 158.285H106.671V156.65L108.651 156.56L108.936 154.58H110.751V156.56H113.901V158.285H110.751V160.895C110.751 161.465 110.876 161.87 111.126 162.11C111.376 162.34 111.771 162.455 112.311 162.455C112.601 162.455 112.866 162.43 113.106 162.38C113.346 162.33 113.576 162.265 113.796 162.185L114.186 163.775C113.856 163.875 113.486 163.965 113.076 164.045C112.676 164.135 112.236 164.18 111.756 164.18C111.166 164.18 110.666 164.1 110.256 163.94C109.846 163.78 109.511 163.56 109.251 163.28C109.001 162.99 108.821 162.645 108.711 162.245C108.601 161.845 108.546 161.4 108.546 160.91V158.285ZM117.945 153.38H122.37V154.55H119.625V165.11H122.37V166.28H117.945V153.38ZM124.974 158.27H131.874V159.83H124.974V158.27ZM146.217 165.11V154.55H143.487V153.38H147.912V166.28H143.487V165.11H146.217ZM152.796 165.71C153.246 165.28 153.631 164.84 153.951 164.39C154.271 163.95 154.531 163.49 154.731 163.01C154.941 162.53 155.096 162.03 155.196 161.51C155.296 160.98 155.346 160.42 155.346 159.83C155.346 158.65 155.141 157.595 154.731 156.665C154.331 155.725 153.686 154.82 152.796 153.95L154.026 152.975C155.006 153.845 155.776 154.85 156.336 155.99C156.906 157.13 157.191 158.41 157.191 159.83C157.191 161.25 156.906 162.53 156.336 163.67C155.776 164.81 155.006 165.815 154.026 166.685L152.796 165.71Z" fill="white"/>
<path d="M104.996 49.215V51H98.1714V49.215H100.631V43.71H98.6664V42.345C99.2264 42.245 99.7014 42.125 100.091 41.985C100.491 41.845 100.866 41.675 101.216 41.475H102.836V49.215H104.996ZM176.95 49.215V51H170.125V49.215H172.585V43.71H170.62V42.345C171.18 42.245 171.655 42.125 172.045 41.985C172.445 41.845 172.82 41.675 173.17 41.475H174.79V49.215H176.95ZM182.389 51.18C181.839 51.18 181.339 51.075 180.889 50.865C180.439 50.645 180.054 50.325 179.734 49.905C179.414 49.485 179.164 48.965 178.984 48.345C178.814 47.725 178.729 47.01 178.729 46.2C178.729 45.39 178.814 44.68 178.984 44.07C179.164 43.46 179.414 42.95 179.734 42.54C180.054 42.12 180.439 41.81 180.889 41.61C181.339 41.4 181.839 41.295 182.389 41.295C182.939 41.295 183.439 41.4 183.889 41.61C184.339 41.81 184.724 42.12 185.044 42.54C185.364 42.95 185.609 43.46 185.779 44.07C185.959 44.68 186.049 45.39 186.049 46.2C186.049 47.01 185.959 47.725 185.779 48.345C185.609 48.965 185.364 49.485 185.044 49.905C184.724 50.325 184.339 50.645 183.889 50.865C183.439 51.075 182.939 51.18 182.389 51.18ZM182.389 43.005C182.149 43.005 181.924 43.055 181.714 43.155C181.514 43.255 181.339 43.43 181.189 43.68C181.039 43.92 180.919 44.245 180.829 44.655C180.739 45.065 180.694 45.58 180.694 46.2C180.694 46.82 180.739 47.34 180.829 47.76C180.919 48.17 181.039 48.505 181.189 48.765C181.339 49.015 181.514 49.195 181.714 49.305C181.924 49.415 182.149 49.47 182.389 49.47C182.629 49.47 182.849 49.415 183.049 49.305C183.259 49.195 183.439 49.015 183.589 48.765C183.739 48.505 183.859 48.17 183.949 47.76C184.039 47.34 184.084 46.82 184.084 46.2C184.084 45.58 184.039 45.065 183.949 44.655C183.859 44.245 183.739 43.92 183.589 43.68C183.439 43.43 183.259 43.255 183.049 43.155C182.849 43.055 182.629 43.005 182.389 43.005ZM182.389 47.31C182.069 47.31 181.799 47.21 181.579 47.01C181.369 46.8 181.264 46.52 181.264 46.17C181.264 45.82 181.369 45.545 181.579 45.345C181.799 45.135 182.069 45.03 182.389 45.03C182.709 45.03 182.974 45.135 183.184 45.345C183.404 45.545 183.514 45.82 183.514 46.17C183.514 46.52 183.404 46.8 183.184 47.01C182.974 47.21 182.709 47.31 182.389 47.31ZM189.643 49.425C189.643 49.175 189.683 48.945 189.763 48.735C189.853 48.515 189.973 48.325 190.123 48.165C190.273 48.005 190.453 47.88 190.663 47.79C190.883 47.7 191.123 47.655 191.383 47.655C191.643 47.655 191.878 47.7 192.088 47.79C192.308 47.88 192.493 48.005 192.643 48.165C192.793 48.325 192.908 48.515 192.988 48.735C193.078 48.945 193.123 49.175 193.123 49.425C193.123 49.925 192.963 50.345 192.643 50.685C192.323 51.015 191.903 51.18 191.383 51.18C190.863 51.18 190.443 51.015 190.123 50.685C189.803 50.345 189.643 49.925 189.643 49.425ZM197.557 48.45C197.877 48.71 198.217 48.935 198.577 49.125C198.947 49.305 199.357 49.395 199.807 49.395C200.347 49.395 200.787 49.27 201.127 49.02C201.477 48.77 201.652 48.4 201.652 47.91C201.652 47.43 201.487 47.065 201.157 46.815C200.837 46.565 200.422 46.44 199.912 46.44C199.752 46.44 199.607 46.45 199.477 46.47C199.357 46.48 199.237 46.505 199.117 46.545C198.997 46.585 198.872 46.635 198.742 46.695C198.612 46.755 198.467 46.83 198.307 46.92L197.332 46.29L197.587 41.475H203.422V43.335H199.492L199.327 45.12C199.547 45.04 199.752 44.985 199.942 44.955C200.132 44.915 200.347 44.895 200.587 44.895C201.027 44.895 201.442 44.955 201.832 45.075C202.232 45.195 202.582 45.375 202.882 45.615C203.182 45.855 203.417 46.16 203.587 46.53C203.767 46.9 203.857 47.34 203.857 47.85C203.857 48.38 203.752 48.85 203.542 49.26C203.342 49.67 203.067 50.02 202.717 50.31C202.377 50.59 201.982 50.805 201.532 50.955C201.082 51.105 200.612 51.18 200.122 51.18C199.292 51.18 198.587 51.055 198.007 50.805C197.437 50.545 196.957 50.225 196.567 49.845L197.557 48.45ZM113.991 68.215V70H107.166V68.215H109.626V62.71H107.661V61.345C108.221 61.245 108.696 61.125 109.086 60.985C109.486 60.845 109.861 60.675 110.211 60.475H111.831V68.215H113.991ZM185.944 68.215V70H179.119V68.215H181.579V62.71H179.614V61.345C180.174 61.245 180.649 61.125 181.039 60.985C181.439 60.845 181.814 60.675 182.164 60.475H183.784V68.215H185.944ZM191.383 70.18C190.833 70.18 190.333 70.075 189.883 69.865C189.433 69.645 189.048 69.325 188.728 68.905C188.408 68.485 188.158 67.965 187.978 67.345C187.808 66.725 187.723 66.01 187.723 65.2C187.723 64.39 187.808 63.68 187.978 63.07C188.158 62.46 188.408 61.95 188.728 61.54C189.048 61.12 189.433 60.81 189.883 60.61C190.333 60.4 190.833 60.295 191.383 60.295C191.933 60.295 192.433 60.4 192.883 60.61C193.333 60.81 193.718 61.12 194.038 61.54C194.358 61.95 194.603 62.46 194.773 63.07C194.953 63.68 195.043 64.39 195.043 65.2C195.043 66.01 194.953 66.725 194.773 67.345C194.603 67.965 194.358 68.485 194.038 68.905C193.718 69.325 193.333 69.645 192.883 69.865C192.433 70.075 191.933 70.18 191.383 70.18ZM191.383 62.005C191.143 62.005 190.918 62.055 190.708 62.155C190.508 62.255 190.333 62.43 190.183 62.68C190.033 62.92 189.913 63.245 189.823 63.655C189.733 64.065 189.688 64.58 189.688 65.2C189.688 65.82 189.733 66.34 189.823 66.76C189.913 67.17 190.033 67.505 190.183 67.765C190.333 68.015 190.508 68.195 190.708 68.305C190.918 68.415 191.143 68.47 191.383 68.47C191.623 68.47 191.843 68.415 192.043 68.305C192.253 68.195 192.433 68.015 192.583 67.765C192.733 67.505 192.853 67.17 192.943 66.76C193.033 66.34 193.078 65.82 193.078 65.2C193.078 64.58 193.033 64.065 192.943 63.655C192.853 63.245 192.733 62.92 192.583 62.68C192.433 62.43 192.253 62.255 192.043 62.155C191.843 62.055 191.623 62.005 191.383 62.005ZM191.383 66.31C191.063 66.31 190.793 66.21 190.573 66.01C190.363 65.8 190.258 65.52 190.258 65.17C190.258 64.82 190.363 64.545 190.573 64.345C190.793 64.135 191.063 64.03 191.383 64.03C191.703 64.03 191.968 64.135 192.178 64.345C192.398 64.545 192.508 64.82 192.508 65.17C192.508 65.52 192.398 65.8 192.178 66.01C191.968 66.21 191.703 66.31 191.383 66.31ZM198.637 68.425C198.637 68.175 198.677 67.945 198.757 67.735C198.847 67.515 198.967 67.325 199.117 67.165C199.267 67.005 199.447 66.88 199.657 66.79C199.877 66.7 200.117 66.655 200.377 66.655C200.637 66.655 200.872 66.7 201.082 66.79C201.302 66.88 201.487 67.005 201.637 67.165C201.787 67.325 201.902 67.515 201.982 67.735C202.072 67.945 202.117 68.175 202.117 68.425C202.117 68.925 201.957 69.345 201.637 69.685C201.317 70.015 200.897 70.18 200.377 70.18C199.857 70.18 199.437 70.015 199.117 69.685C198.797 69.345 198.637 68.925 198.637 68.425ZM206.551 67.45C206.871 67.71 207.211 67.935 207.571 68.125C207.941 68.305 208.351 68.395 208.801 68.395C209.341 68.395 209.781 68.27 210.121 68.02C210.471 67.77 210.646 67.4 210.646 66.91C210.646 66.43 210.481 66.065 210.151 65.815C209.831 65.565 209.416 65.44 208.906 65.44C208.746 65.44 208.601 65.45 208.471 65.47C208.351 65.48 208.231 65.505 208.111 65.545C207.991 65.585 207.866 65.635 207.736 65.695C207.606 65.755 207.461 65.83 207.301 65.92L206.326 65.29L206.581 60.475H212.416V62.335H208.486L208.321 64.12C208.541 64.04 208.746 63.985 208.936 63.955C209.126 63.915 209.341 63.895 209.581 63.895C210.021 63.895 210.436 63.955 210.826 64.075C211.226 64.195 211.576 64.375 211.876 64.615C212.176 64.855 212.411 65.16 212.581 65.53C212.761 65.9 212.851 66.34 212.851 66.85C212.851 67.38 212.746 67.85 212.536 68.26C212.336 68.67 212.061 69.02 211.711 69.31C211.371 69.59 210.976 69.805 210.526 69.955C210.076 70.105 209.606 70.18 209.116 70.18C208.286 70.18 207.581 70.055 207.001 69.805C206.431 69.545 205.951 69.225 205.561 68.845L206.551 67.45ZM137.418 107.18C136.868 107.18 136.368 107.075 135.918 106.865C135.468 106.645 135.083 106.325 134.763 105.905C134.443 105.485 134.193 104.965 134.013 104.345C133.843 103.725 133.758 103.01 133.758 102.2C133.758 101.39 133.843 100.68 134.013 100.07C134.193 99.46 134.443 98.95 134.763 98.54C135.083 98.12 135.468 97.81 135.918 97.61C136.368 97.4 136.868 97.295 137.418 97.295C137.968 97.295 138.468 97.4 138.918 97.61C139.368 97.81 139.753 98.12 140.073 98.54C140.393 98.95 140.638 99.46 140.808 100.07C140.988 100.68 141.078 101.39 141.078 102.2C141.078 103.01 140.988 103.725 140.808 104.345C140.638 104.965 140.393 105.485 140.073 105.905C139.753 106.325 139.368 106.645 138.918 106.865C138.468 107.075 137.968 107.18 137.418 107.18ZM137.418 99.005C137.178 99.005 136.953 99.055 136.743 99.155C136.543 99.255 136.368 99.43 136.218 99.68C136.068 99.92 135.948 100.245 135.858 100.655C135.768 101.065 135.723 101.58 135.723 102.2C135.723 102.82 135.768 103.34 135.858 103.76C135.948 104.17 136.068 104.505 136.218 104.765C136.368 105.015 136.543 105.195 136.743 105.305C136.953 105.415 137.178 105.47 137.418 105.47C137.658 105.47 137.878 105.415 138.078 105.305C138.288 105.195 138.468 105.015 138.618 104.765C138.768 104.505 138.888 104.17 138.978 103.76C139.068 103.34 139.113 102.82 139.113 102.2C139.113 101.58 139.068 101.065 138.978 100.655C138.888 100.245 138.768 99.92 138.618 99.68C138.468 99.43 138.288 99.255 138.078 99.155C137.878 99.055 137.658 99.005 137.418 99.005ZM137.418 103.31C137.098 103.31 136.828 103.21 136.608 103.01C136.398 102.8 136.293 102.52 136.293 102.17C136.293 101.82 136.398 101.545 136.608 101.345C136.828 101.135 137.098 101.03 137.418 101.03C137.738 101.03 138.003 101.135 138.213 101.345C138.433 101.545 138.543 101.82 138.543 102.17C138.543 102.52 138.433 102.8 138.213 103.01C138.003 103.21 137.738 103.31 137.418 103.31ZM128.424 126.18C127.874 126.18 127.374 126.075 126.924 125.865C126.474 125.645 126.089 125.325 125.769 124.905C125.449 124.485 125.199 123.965 125.019 123.345C124.849 122.725 124.764 122.01 124.764 121.2C124.764 120.39 124.849 119.68 125.019 119.07C125.199 118.46 125.449 117.95 125.769 117.54C126.089 117.12 126.474 116.81 126.924 116.61C127.374 116.4 127.874 116.295 128.424 116.295C128.974 116.295 129.474 116.4 129.924 116.61C130.374 116.81 130.759 117.12 131.079 117.54C131.399 117.95 131.644 118.46 131.814 119.07C131.994 119.68 132.084 120.39 132.084 121.2C132.084 122.01 131.994 122.725 131.814 123.345C131.644 123.965 131.399 124.485 131.079 124.905C130.759 125.325 130.374 125.645 129.924 125.865C129.474 126.075 128.974 126.18 128.424 126.18ZM128.424 118.005C128.184 118.005 127.959 118.055 127.749 118.155C127.549 118.255 127.374 118.43 127.224 118.68C127.074 118.92 126.954 119.245 126.864 119.655C126.774 120.065 126.729 120.58 126.729 121.2C126.729 121.82 126.774 122.34 126.864 122.76C126.954 123.17 127.074 123.505 127.224 123.765C127.374 124.015 127.549 124.195 127.749 124.305C127.959 124.415 128.184 124.47 128.424 124.47C128.664 124.47 128.884 124.415 129.084 124.305C129.294 124.195 129.474 124.015 129.624 123.765C129.774 123.505 129.894 123.17 129.984 122.76C130.074 122.34 130.119 121.82 130.119 121.2C130.119 120.58 130.074 120.065 129.984 119.655C129.894 119.245 129.774 118.92 129.624 118.68C129.474 118.43 129.294 118.255 129.084 118.155C128.884 118.055 128.664 118.005 128.424 118.005ZM128.424 122.31C128.104 122.31 127.834 122.21 127.614 122.01C127.404 121.8 127.299 121.52 127.299 121.17C127.299 120.82 127.404 120.545 127.614 120.345C127.834 120.135 128.104 120.03 128.424 120.03C128.744 120.03 129.009 120.135 129.219 120.345C129.439 120.545 129.549 120.82 129.549 121.17C129.549 121.52 129.439 121.8 129.219 122.01C129.009 122.21 128.744 122.31 128.424 122.31ZM149.967 143.215V145H143.142V143.215H145.602V137.71H143.637V136.345C144.197 136.245 144.672 136.125 145.062 135.985C145.462 135.845 145.837 135.675 146.187 135.475H147.807V143.215H149.967ZM140.973 162.215V164H134.148V162.215H136.608V156.71H134.643V155.345C135.203 155.245 135.678 155.125 136.068 154.985C136.468 154.845 136.843 154.675 137.193 154.475H138.813V162.215H140.973Z" fill="#F0E442"/>
<path d="M127.224 42.9L127.149 40.725H129.699L129.624 42.9L129.099 46.455H127.749L127.224 42.9ZM133.833 48.93C133.833 48.51 133.923 48.145 134.103 47.835C134.283 47.515 134.568 47.245 134.958 47.025C135.358 46.805 135.868 46.63 136.488 46.5C137.108 46.36 137.858 46.265 138.738 46.215C138.698 45.875 138.548 45.61 138.288 45.42C138.038 45.23 137.658 45.135 137.148 45.135C136.788 45.135 136.423 45.2 136.053 45.33C135.693 45.45 135.303 45.615 134.883 45.825L134.103 44.385C134.613 44.095 135.158 43.855 135.738 43.665C136.328 43.475 136.943 43.38 137.583 43.38C138.623 43.38 139.443 43.655 140.043 44.205C140.643 44.755 140.943 45.6 140.943 46.74V51H139.143L138.978 50.16H138.918C138.538 50.45 138.123 50.695 137.673 50.895C137.223 51.085 136.758 51.18 136.278 51.18C135.898 51.18 135.558 51.12 135.258 51C134.958 50.89 134.703 50.735 134.493 50.535C134.283 50.325 134.118 50.085 133.998 49.815C133.888 49.545 133.833 49.25 133.833 48.93ZM135.948 48.765C135.948 49.005 136.038 49.185 136.218 49.305C136.408 49.415 136.663 49.47 136.983 49.47C137.313 49.47 137.623 49.405 137.913 49.275C138.203 49.135 138.478 48.965 138.738 48.765V47.535C138.188 47.565 137.733 47.615 137.373 47.685C137.013 47.755 136.728 47.845 136.518 47.955C136.308 48.055 136.158 48.175 136.068 48.315C135.988 48.455 135.948 48.605 135.948 48.765ZM145.212 42.9L145.137 40.725H147.687L147.612 42.9L147.087 46.455H145.737L145.212 42.9ZM136.218 61.9L136.143 59.725H138.693L138.618 61.9L138.093 65.455H136.743L136.218 61.9ZM142.827 67.93C142.827 67.51 142.917 67.145 143.097 66.835C143.277 66.515 143.562 66.245 143.952 66.025C144.352 65.805 144.862 65.63 145.482 65.5C146.102 65.36 146.852 65.265 147.732 65.215C147.692 64.875 147.542 64.61 147.282 64.42C147.032 64.23 146.652 64.135 146.142 64.135C145.782 64.135 145.417 64.2 145.047 64.33C144.687 64.45 144.297 64.615 143.877 64.825L143.097 63.385C143.607 63.095 144.152 62.855 144.732 62.665C145.322 62.475 145.937 62.38 146.577 62.38C147.617 62.38 148.437 62.655 149.037 63.205C149.637 63.755 149.937 64.6 149.937 65.74V70H148.137L147.972 69.16H147.912C147.532 69.45 147.117 69.695 146.667 69.895C146.217 70.085 145.752 70.18 145.272 70.18C144.892 70.18 144.552 70.12 144.252 70C143.952 69.89 143.697 69.735 143.487 69.535C143.277 69.325 143.112 69.085 142.992 68.815C142.882 68.545 142.827 68.25 142.827 67.93ZM144.942 67.765C144.942 68.005 145.032 68.185 145.212 68.305C145.402 68.415 145.657 68.47 145.977 68.47C146.307 68.47 146.617 68.405 146.907 68.275C147.197 68.135 147.472 67.965 147.732 67.765V66.535C147.182 66.565 146.727 66.615 146.367 66.685C146.007 66.755 145.722 66.845 145.512 66.955C145.302 67.055 145.152 67.175 145.062 67.315C144.982 67.455 144.942 67.605 144.942 67.765ZM154.206 61.9L154.131 59.725H156.681L156.606 61.9L156.081 65.455H154.731L154.206 61.9Z" fill="#009E73"/>
<path d="M10.285 107.585V109.76H8.08V99.56H9.88L10.045 100.31H10.09C10.39 100.04 10.735 99.82 11.125 99.65C11.515 99.47 11.91 99.38 12.31 99.38C12.77 99.38 13.185 99.47 13.555 99.65C13.925 99.83 14.24 100.085 14.5 100.415C14.76 100.745 14.955 101.145 15.085 101.615C15.225 102.075 15.295 102.59 15.295 103.16C15.295 103.8 15.205 104.37 15.025 104.87C14.845 105.36 14.605 105.78 14.305 106.13C14.005 106.47 13.66 106.73 13.27 106.91C12.89 107.09 12.49 107.18 12.07 107.18C11.39 107.18 10.77 106.91 10.21 106.37L10.285 107.585ZM10.285 104.885C10.495 105.065 10.71 105.195 10.93 105.275C11.16 105.345 11.37 105.38 11.56 105.38C11.98 105.38 12.33 105.21 12.61 104.87C12.89 104.52 13.03 103.96 13.03 103.19C13.03 101.85 12.575 101.18 11.665 101.18C11.195 101.18 10.735 101.41 10.285 101.87V104.885ZM17.7341 99.56H19.5341L19.7141 101.18H19.7591C20.1291 100.57 20.5741 100.12 21.0941 99.83C21.6141 99.53 22.1741 99.38 22.7741 99.38C23.1041 99.38 23.3691 99.405 23.5691 99.455C23.7791 99.505 23.9941 99.58 24.2141 99.68L23.7641 101.525C23.5341 101.455 23.3241 101.405 23.1341 101.375C22.9541 101.335 22.7241 101.315 22.4441 101.315C21.9841 101.315 21.5291 101.45 21.0791 101.72C20.6391 101.99 20.2591 102.46 19.9391 103.13V107H17.7341V99.56ZM26.1733 99.56H31.3633V107H29.1583V101.285H26.1733V99.56ZM30.1633 98.465C29.7333 98.465 29.3783 98.345 29.0983 98.105C28.8283 97.865 28.6933 97.54 28.6933 97.13C28.6933 96.72 28.8283 96.39 29.0983 96.14C29.3783 95.88 29.7333 95.75 30.1633 95.75C30.5933 95.75 30.9433 95.88 31.2133 96.14C31.4933 96.39 31.6333 96.72 31.6333 97.13C31.6333 97.54 31.4933 97.865 31.2133 98.105C30.9433 98.345 30.5933 98.465 30.1633 98.465ZM35.0624 99.56H36.8624L37.0274 100.55H37.0874C37.4074 100.23 37.7724 99.955 38.1824 99.725C38.6024 99.495 39.0924 99.38 39.6524 99.38C40.4924 99.38 41.1074 99.65 41.4974 100.19C41.8874 100.73 42.0824 101.47 42.0824 102.41V107H39.8774V102.695C39.8774 102.195 39.7974 101.83 39.6374 101.6C39.4774 101.37 39.1924 101.255 38.7824 101.255C38.4824 101.255 38.2174 101.32 37.9874 101.45C37.7674 101.58 37.5274 101.775 37.2674 102.035V107H35.0624V99.56ZM45.5866 101.285H43.7116V99.65L45.6916 99.56L45.9766 97.58H47.7916V99.56H50.9416V101.285H47.7916V103.895C47.7916 104.465 47.9166 104.87 48.1666 105.11C48.4166 105.34 48.8116 105.455 49.3516 105.455C49.6416 105.455 49.9066 105.43 50.1466 105.38C50.3866 105.33 50.6166 105.265 50.8366 105.185L51.2266 106.775C50.8966 106.875 50.5266 106.965 50.1166 107.045C49.7166 107.135 49.2766 107.18 48.7966 107.18C48.2066 107.18 47.7066 107.1 47.2966 106.94C46.8866 106.78 46.5516 106.56 46.2916 106.28C46.0416 105.99 45.8616 105.645 45.7516 105.245C45.6416 104.845 45.5866 104.4 45.5866 103.91V101.285ZM10.285 126.585V128.76H8.08V118.56H9.88L10.045 119.31H10.09C10.39 119.04 10.735 118.82 11.125 118.65C11.515 118.47 11.91 118.38 12.31 118.38C12.77 118.38 13.185 118.47 13.555 118.65C13.925 118.83 14.24 119.085 14.5 119.415C14.76 119.745 14.955 120.145 15.085 120.615C15.225 121.075 15.295 121.59 15.295 122.16C15.295 122.8 15.205 123.37 15.025 123.87C14.845 124.36 14.605 124.78 14.305 125.13C14.005 125.47 13.66 125.73 13.27 125.91C12.89 126.09 12.49 126.18 12.07 126.18C11.39 126.18 10.77 125.91 10.21 125.37L10.285 126.585ZM10.285 123.885C10.495 124.065 10.71 124.195 10.93 124.275C11.16 124.345 11.37 124.38 11.56 124.38C11.98 124.38 12.33 124.21 12.61 123.87C12.89 123.52 13.03 122.96 13.03 122.19C13.03 120.85 12.575 120.18 11.665 120.18C11.195 120.18 10.735 120.41 10.285 120.87V123.885ZM17.7341 118.56H19.5341L19.7141 120.18H19.7591C20.1291 119.57 20.5741 119.12 21.0941 118.83C21.6141 118.53 22.1741 118.38 22.7741 118.38C23.1041 118.38 23.3691 118.405 23.5691 118.455C23.7791 118.505 23.9941 118.58 24.2141 118.68L23.7641 120.525C23.5341 120.455 23.3241 120.405 23.1341 120.375C22.9541 120.335 22.7241 120.315 22.4441 120.315C21.9841 120.315 21.5291 120.45 21.0791 120.72C20.6391 120.99 20.2591 121.46 19.9391 122.13V126H17.7341V118.56ZM26.1733 118.56H31.3633V126H29.1583V120.285H26.1733V118.56ZM30.1633 117.465C29.7333 117.465 29.3783 117.345 29.0983 117.105C28.8283 116.865 28.6933 116.54 28.6933 116.13C28.6933 115.72 28.8283 115.39 29.0983 115.14C29.3783 114.88 29.7333 114.75 30.1633 114.75C30.5933 114.75 30.9433 114.88 31.2133 115.14C31.4933 115.39 31.6333 115.72 31.6333 116.13C31.6333 116.54 31.4933 116.865 31.2133 117.105C30.9433 117.345 30.5933 117.465 30.1633 117.465ZM35.0624 118.56H36.8624L37.0274 119.55H37.0874C37.4074 119.23 37.7724 118.955 38.1824 118.725C38.6024 118.495 39.0924 118.38 39.6524 118.38C40.4924 118.38 41.1074 118.65 41.4974 119.19C41.8874 119.73 42.0824 120.47 42.0824 121.41V126H39.8774V121.695C39.8774 121.195 39.7974 120.83 39.6374 120.6C39.4774 120.37 39.1924 120.255 38.7824 120.255C38.4824 120.255 38.2174 120.32 37.9874 120.45C37.7674 120.58 37.5274 120.775 37.2674 121.035V126H35.0624V118.56ZM45.5866 120.285H43.7116V118.65L45.6916 118.56L45.9766 116.58H47.7916V118.56H50.9416V120.285H47.7916V122.895C47.7916 123.465 47.9166 123.87 48.1666 124.11C48.4166 124.34 48.8116 124.455 49.3516 124.455C49.6416 124.455 49.9066 124.43 50.1466 124.38C50.3866 124.33 50.6166 124.265 50.8366 124.185L51.2266 125.775C50.8966 125.875 50.5266 125.965 50.1166 126.045C49.7166 126.135 49.2766 126.18 48.7966 126.18C48.2066 126.18 47.7066 126.1 47.2966 125.94C46.8866 125.78 46.5516 125.56 46.2916 125.28C46.0416 124.99 45.8616 124.645 45.7516 124.245C45.6416 123.845 45.5866 123.4 45.5866 122.91V120.285ZM10.285 145.585V147.76H8.08V137.56H9.88L10.045 138.31H10.09C10.39 138.04 10.735 137.82 11.125 137.65C11.515 137.47 11.91 137.38 12.31 137.38C12.77 137.38 13.185 137.47 13.555 137.65C13.925 137.83 14.24 138.085 14.5 138.415C14.76 138.745 14.955 139.145 15.085 139.615C15.225 140.075 15.295 140.59 15.295 141.16C15.295 141.8 15.205 142.37 15.025 142.87C14.845 143.36 14.605 143.78 14.305 144.13C14.005 144.47 13.66 144.73 13.27 144.91C12.89 145.09 12.49 145.18 12.07 145.18C11.39 145.18 10.77 144.91 10.21 144.37L10.285 145.585ZM10.285 142.885C10.495 143.065 10.71 143.195 10.93 143.275C11.16 143.345 11.37 143.38 11.56 143.38C11.98 143.38 12.33 143.21 12.61 142.87C12.89 142.52 13.03 141.96 13.03 141.19C13.03 139.85 12.575 139.18 11.665 139.18C11.195 139.18 10.735 139.41 10.285 139.87V142.885ZM17.7341 137.56H19.5341L19.7141 139.18H19.7591C20.1291 138.57 20.5741 138.12 21.0941 137.83C21.6141 137.53 22.1741 137.38 22.7741 137.38C23.1041 137.38 23.3691 137.405 23.5691 137.455C23.7791 137.505 23.9941 137.58 24.2141 137.68L23.7641 139.525C23.5341 139.455 23.3241 139.405 23.1341 139.375C22.9541 139.335 22.7241 139.315 22.4441 139.315C21.9841 139.315 21.5291 139.45 21.0791 139.72C20.6391 139.99 20.2591 140.46 19.9391 141.13V145H17.7341V137.56ZM26.1733 137.56H31.3633V145H29.1583V139.285H26.1733V137.56ZM30.1633 136.465C29.7333 136.465 29.3783 136.345 29.0983 136.105C28.8283 135.865 28.6933 135.54 28.6933 135.13C28.6933 134.72 28.8283 134.39 29.0983 134.14C29.3783 133.88 29.7333 133.75 30.1633 133.75C30.5933 133.75 30.9433 133.88 31.2133 134.14C31.4933 134.39 31.6333 134.72 31.6333 135.13C31.6333 135.54 31.4933 135.865 31.2133 136.105C30.9433 136.345 30.5933 136.465 30.1633 136.465ZM35.0624 137.56H36.8624L37.0274 138.55H37.0874C37.4074 138.23 37.7724 137.955 38.1824 137.725C38.6024 137.495 39.0924 137.38 39.6524 137.38C40.4924 137.38 41.1074 137.65 41.4974 138.19C41.8874 138.73 42.0824 139.47 42.0824 140.41V145H39.8774V140.695C39.8774 140.195 39.7974 139.83 39.6374 139.6C39.4774 139.37 39.1924 139.255 38.7824 139.255C38.4824 139.255 38.2174 139.32 37.9874 139.45C37.7674 139.58 37.5274 139.775 37.2674 140.035V145H35.0624V137.56ZM45.5866 139.285H43.7116V137.65L45.6916 137.56L45.9766 135.58H47.7916V137.56H50.9416V139.285H47.7916V141.895C47.7916 142.465 47.9166 142.87 48.1666 143.11C48.4166 143.34 48.8116 143.455 49.3516 143.455C49.6416 143.455 49.9066 143.43 50.1466 143.38C50.3866 143.33 50.6166 143.265 50.8366 143.185L51.2266 144.775C50.8966 144.875 50.5266 144.965 50.1166 145.045C49.7166 145.135 49.2766 145.18 48.7966 145.18C48.2066 145.18 47.7066 145.1 47.2966 144.94C46.8866 144.78 46.5516 144.56 46.2916 144.28C46.0416 143.99 45.8616 143.645 45.7516 143.245C45.6416 142.845 45.5866 142.4 45.5866 141.91V139.285ZM10.285 164.585V166.76H8.08V156.56H9.88L10.045 157.31H10.09C10.39 157.04 10.735 156.82 11.125 156.65C11.515 156.47 11.91 156.38 12.31 156.38C12.77 156.38 13.185 156.47 13.555 156.65C13.925 156.83 14.24 157.085 14.5 157.415C14.76 157.745 14.955 158.145 15.085 158.615C15.225 159.075 15.295 159.59 15.295 160.16C15.295 160.8 15.205 161.37 15.025 161.87C14.845 162.36 14.605 162.78 14.305 163.13C14.005 163.47 13.66 163.73 13.27 163.91C12.89 164.09 12.49 164.18 12.07 164.18C11.39 164.18 10.77 163.91 10.21 163.37L10.285 164.585ZM10.285 161.885C10.495 162.065 10.71 162.195 10.93 162.275C11.16 162.345 11.37 162.38 11.56 162.38C11.98 162.38 12.33 162.21 12.61 161.87C12.89 161.52 13.03 160.96 13.03 160.19C13.03 158.85 12.575 158.18 11.665 158.18C11.195 158.18 10.735 158.41 10.285 158.87V161.885ZM17.7341 156.56H19.5341L19.7141 158.18H19.7591C20.1291 157.57 20.5741 157.12 21.0941 156.83C21.6141 156.53 22.1741 156.38 22.7741 156.38C23.1041 156.38 23.3691 156.405 23.5691 156.455C23.7791 156.505 23.9941 156.58 24.2141 156.68L23.7641 158.525C23.5341 158.455 23.3241 158.405 23.1341 158.375C22.9541 158.335 22.7241 158.315 22.4441 158.315C21.9841 158.315 21.5291 158.45 21.0791 158.72C20.6391 158.99 20.2591 159.46 19.9391 160.13V164H17.7341V156.56ZM26.1733 156.56H31.3633V164H29.1583V158.285H26.1733V156.56ZM30.1633 155.465C29.7333 155.465 29.3783 155.345 29.0983 155.105C28.8283 154.865 28.6933 154.54 28.6933 154.13C28.6933 153.72 28.8283 153.39 29.0983 153.14C29.3783 152.88 29.7333 152.75 30.1633 152.75C30.5933 152.75 30.9433 152.88 31.2133 153.14C31.4933 153.39 31.6333 153.72 31.6333 154.13C31.6333 154.54 31.4933 154.865 31.2133 155.105C30.9433 155.345 30.5933 155.465 30.1633 155.465ZM35.0624 156.56H36.8624L37.0274 157.55H37.0874C37.4074 157.23 37.7724 156.955 38.1824 156.725C38.6024 156.495 39.0924 156.38 39.6524 156.38C40.4924 156.38 41.1074 156.65 41.4974 157.19C41.8874 157.73 42.0824 158.47 42.0824 159.41V164H39.8774V159.695C39.8774 159.195 39.7974 158.83 39.6374 158.6C39.4774 158.37 39.1924 158.255 38.7824 158.255C38.4824 158.255 38.2174 158.32 37.9874 158.45C37.7674 158.58 37.5274 158.775 37.2674 159.035V164H35.0624V156.56ZM45.5866 158.285H43.7116V156.65L45.6916 156.56L45.9766 154.58H47.7916V156.56H50.9416V158.285H47.7916V160.895C47.7916 161.465 47.9166 161.87 48.1666 162.11C48.4166 162.34 48.8116 162.455 49.3516 162.455C49.6416 162.455 49.9066 162.43 50.1466 162.38C50.3866 162.33 50.6166 162.265 50.8366 162.185L51.2266 163.775C50.8966 163.875 50.5266 163.965 50.1166 164.045C49.7166 164.135 49.2766 164.18 48.7966 164.18C48.2066 164.18 47.7066 164.1 47.2966 163.94C46.8866 163.78 46.5516 163.56 46.2916 163.28C46.0416 162.99 45.8616 162.645 45.7516 162.245C45.6416 161.845 45.5866 161.4 45.5866 160.91V158.285Z" fill="#56B4E9"/>
</svg>
