<svg width="244" height="233" viewBox="0 0 244 233" fill="none" xmlns="http://www.w3.org/2000/svg">
<rect width="244" height="233" fill="white"/>
<rect x="1" width="243" height="233" fill="black"/>
<path d="M13.5 144.18C12.92 144.18 12.385 144.065 11.895 143.835C11.415 143.595 11 143.255 10.65 142.815C10.31 142.375 10.045 141.84 9.855 141.21C9.665 140.58 9.57 139.865 9.57 139.065C9.57 138.265 9.665 137.555 9.855 136.935C10.045 136.305 10.31 135.78 10.65 135.36C11 134.93 11.415 134.605 11.895 134.385C12.385 134.155 12.92 134.04 13.5 134.04C14.08 134.04 14.61 134.155 15.09 134.385C15.58 134.605 15.995 134.93 16.335 135.36C16.685 135.79 16.955 136.32 17.145 136.95C17.335 137.57 17.43 138.275 17.43 139.065C17.43 139.865 17.335 140.58 17.145 141.21C16.955 141.84 16.685 142.375 16.335 142.815C15.995 143.255 15.58 143.595 15.09 143.835C14.61 144.065 14.08 144.18 13.5 144.18ZM13.5 142.275C14.01 142.275 14.415 141.99 14.715 141.42C15.015 140.84 15.165 140.055 15.165 139.065C15.165 138.085 15.015 137.32 14.715 136.77C14.415 136.22 14.01 135.945 13.5 135.945C12.99 135.945 12.585 136.22 12.285 136.77C11.985 137.32 11.835 138.085 11.835 139.065C11.835 140.055 11.985 140.84 12.285 141.42C12.585 141.99 12.99 142.275 13.5 142.275ZM25.8691 144H24.0691L23.9041 142.935H23.8441C23.5141 143.315 23.1491 143.62 22.7491 143.85C22.3491 144.07 21.8791 144.18 21.3391 144.18C20.4891 144.18 19.8741 143.91 19.4941 143.37C19.1141 142.83 18.9241 142.09 18.9241 141.15V136.56H21.1291V140.865C21.1291 141.365 21.2041 141.73 21.3541 141.96C21.5041 142.19 21.7891 142.305 22.2091 142.305C22.4891 142.305 22.7341 142.245 22.9441 142.125C23.1641 142.005 23.4041 141.78 23.6641 141.45V136.56H25.8691V144ZM29.5983 138.285H27.7233V136.65L29.7033 136.56L29.9883 134.58H31.8033V136.56H34.9533V138.285H31.8033V140.895C31.8033 141.465 31.9283 141.87 32.1783 142.11C32.4283 142.34 32.8233 142.455 33.3633 142.455C33.6533 142.455 33.9183 142.43 34.1583 142.38C34.3983 142.33 34.6283 142.265 34.8483 142.185L35.2383 143.775C34.9083 143.875 34.5383 143.965 34.1283 144.045C33.7283 144.135 33.2883 144.18 32.8083 144.18C32.2183 144.18 31.7183 144.1 31.3083 143.94C30.8983 143.78 30.5633 143.56 30.3033 143.28C30.0533 142.99 29.8733 142.645 29.7633 142.245C29.6533 141.845 29.5983 141.4 29.5983 140.91V138.285ZM39.2674 144.585V146.76H37.0624V136.56H38.8624L39.0274 137.31H39.0724C39.3724 137.04 39.7174 136.82 40.1074 136.65C40.4974 136.47 40.8924 136.38 41.2924 136.38C41.7524 136.38 42.1674 136.47 42.5374 136.65C42.9074 136.83 43.2224 137.085 43.4824 137.415C43.7424 137.745 43.9374 138.145 44.0674 138.615C44.2074 139.075 44.2774 139.59 44.2774 140.16C44.2774 140.8 44.1874 141.37 44.0074 141.87C43.8274 142.36 43.5874 142.78 43.2874 143.13C42.9874 143.47 42.6424 143.73 42.2524 143.91C41.8724 144.09 41.4724 144.18 41.0524 144.18C40.3724 144.18 39.7524 143.91 39.1924 143.37L39.2674 144.585ZM39.2674 141.885C39.4774 142.065 39.6924 142.195 39.9124 142.275C40.1424 142.345 40.3524 142.38 40.5424 142.38C40.9624 142.38 41.3124 142.21 41.5924 141.87C41.8724 141.52 42.0124 140.96 42.0124 140.19C42.0124 138.85 41.5574 138.18 40.6474 138.18C40.1774 138.18 39.7174 138.41 39.2674 138.87V141.885ZM52.8516 144H51.0516L50.8866 142.935H50.8266C50.4966 143.315 50.1316 143.62 49.7316 143.85C49.3316 144.07 48.8616 144.18 48.3216 144.18C47.4716 144.18 46.8566 143.91 46.4766 143.37C46.0966 142.83 45.9066 142.09 45.9066 141.15V136.56H48.1116V140.865C48.1116 141.365 48.1866 141.73 48.3366 141.96C48.4866 142.19 48.7716 142.305 49.1916 142.305C49.4716 142.305 49.7166 142.245 49.9266 142.125C50.1466 142.005 50.3866 141.78 50.6466 141.45V136.56H52.8516V144ZM56.5807 138.285H54.7057V136.65L56.6857 136.56L56.9707 134.58H58.7857V136.56H61.9357V138.285H58.7857V140.895C58.7857 141.465 58.9107 141.87 59.1607 142.11C59.4107 142.34 59.8057 142.455 60.3457 142.455C60.6357 142.455 60.9007 142.43 61.1407 142.38C61.3807 142.33 61.6107 142.265 61.8307 142.185L62.2207 143.775C61.8907 143.875 61.5207 143.965 61.1107 144.045C60.7107 144.135 60.2707 144.18 59.7907 144.18C59.2007 144.18 58.7007 144.1 58.2907 143.94C57.8807 143.78 57.5457 143.56 57.2857 143.28C57.0357 142.99 56.8557 142.645 56.7457 142.245C56.6357 141.845 56.5807 141.4 56.5807 140.91V138.285ZM14.115 159.04V157.435C14.115 157.135 14.12 156.79 14.13 156.4C14.15 156 14.17 155.65 14.19 155.35H14.13C13.97 155.62 13.8 155.89 13.62 156.16C13.44 156.43 13.265 156.7 13.095 156.97L11.655 159.04H14.115ZM17.37 160.72H16.17V163H14.115V160.72H9.525V159.205L13.5 153.475H16.17V159.04H17.37V160.72ZM10.05 175.27H16.95V176.83H10.05V175.27ZM18.8641 179.74C19.5441 179.17 20.1641 178.64 20.7241 178.15C21.2841 177.65 21.7641 177.185 22.1641 176.755C22.5641 176.325 22.8741 175.92 23.0941 175.54C23.3141 175.16 23.4241 174.8 23.4241 174.46C23.4241 173.99 23.2891 173.635 23.0191 173.395C22.7491 173.145 22.3641 173.02 21.8641 173.02C21.4841 173.02 21.1341 173.12 20.8141 173.32C20.5041 173.51 20.2141 173.735 19.9441 173.995L18.7591 172.81C19.0091 172.56 19.2541 172.34 19.4941 172.15C19.7441 171.96 20.0041 171.805 20.2741 171.685C20.5541 171.555 20.8441 171.46 21.1441 171.4C21.4541 171.33 21.7941 171.295 22.1641 171.295C22.6641 171.295 23.1191 171.37 23.5291 171.52C23.9391 171.66 24.2891 171.865 24.5791 172.135C24.8791 172.395 25.1091 172.71 25.2691 173.08C25.4391 173.45 25.5241 173.865 25.5241 174.325C25.5241 174.725 25.4291 175.135 25.2391 175.555C25.0491 175.965 24.7891 176.38 24.4591 176.8C24.1391 177.21 23.7691 177.625 23.3491 178.045C22.9291 178.455 22.4891 178.86 22.0291 179.26C22.2991 179.23 22.5891 179.205 22.8991 179.185C23.2191 179.155 23.5041 179.14 23.7541 179.14H26.0191V181H18.8641V179.74ZM28.6683 178.45C28.9883 178.71 29.3283 178.935 29.6883 179.125C30.0583 179.305 30.4683 179.395 30.9183 179.395C31.4583 179.395 31.8983 179.27 32.2383 179.02C32.5883 178.77 32.7633 178.4 32.7633 177.91C32.7633 177.43 32.5983 177.065 32.2683 176.815C31.9483 176.565 31.5333 176.44 31.0233 176.44C30.8633 176.44 30.7183 176.45 30.5883 176.47C30.4683 176.48 30.3483 176.505 30.2283 176.545C30.1083 176.585 29.9833 176.635 29.8533 176.695C29.7233 176.755 29.5783 176.83 29.4183 176.92L28.4433 176.29L28.6983 171.475H34.5333V173.335H30.6033L30.4383 175.12C30.6583 175.04 30.8633 174.985 31.0533 174.955C31.2433 174.915 31.4583 174.895 31.6983 174.895C32.1383 174.895 32.5533 174.955 32.9433 175.075C33.3433 175.195 33.6933 175.375 33.9933 175.615C34.2933 175.855 34.5283 176.16 34.6983 176.53C34.8783 176.9 34.9683 177.34 34.9683 177.85C34.9683 178.38 34.8633 178.85 34.6533 179.26C34.4533 179.67 34.1783 180.02 33.8283 180.31C33.4883 180.59 33.0933 180.805 32.6433 180.955C32.1933 181.105 31.7233 181.18 31.2333 181.18C30.4033 181.18 29.6983 181.055 29.1183 180.805C28.5483 180.545 28.0683 180.225 27.6783 179.845L28.6683 178.45ZM44.0374 179.215V181H37.2124V179.215H39.6724V173.71H37.7074V172.345C38.2674 172.245 38.7424 172.125 39.1324 171.985C39.5324 171.845 39.9074 171.675 40.2574 171.475H41.8774V179.215H44.0374ZM46.6266 178.435C46.9466 178.715 47.3016 178.945 47.6916 179.125C48.0916 179.305 48.5116 179.395 48.9516 179.395C49.4716 179.395 49.8966 179.3 50.2266 179.11C50.5666 178.91 50.7366 178.63 50.7366 178.27C50.7366 178.06 50.6916 177.87 50.6016 177.7C50.5116 177.53 50.3566 177.39 50.1366 177.28C49.9166 177.16 49.6216 177.07 49.2516 177.01C48.8816 176.94 48.4166 176.905 47.8566 176.905V175.345C48.7966 175.345 49.4566 175.23 49.8366 175C50.2266 174.76 50.4216 174.45 50.4216 174.07C50.4216 173.74 50.2966 173.485 50.0466 173.305C49.7966 173.115 49.4516 173.02 49.0116 173.02C48.6316 173.02 48.2816 173.095 47.9616 173.245C47.6416 173.395 47.3166 173.6 46.9866 173.86L45.8766 172.51C46.3466 172.13 46.8466 171.835 47.3766 171.625C47.9166 171.405 48.4966 171.295 49.1166 171.295C49.6366 171.295 50.1116 171.355 50.5416 171.475C50.9716 171.585 51.3416 171.755 51.6516 171.985C51.9616 172.205 52.2016 172.475 52.3716 172.795C52.5416 173.115 52.6266 173.485 52.6266 173.905C52.6266 174.405 52.4666 174.83 52.1466 175.18C51.8266 175.52 51.3816 175.8 50.8116 176.02V176.08C51.4116 176.24 51.9166 176.515 52.3266 176.905C52.7366 177.285 52.9416 177.785 52.9416 178.405C52.9416 178.845 52.8366 179.24 52.6266 179.59C52.4266 179.93 52.1516 180.22 51.8016 180.46C51.4616 180.69 51.0616 180.87 50.6016 181C50.1416 181.12 49.6616 181.18 49.1616 181.18C48.3416 181.18 47.6366 181.06 47.0466 180.82C46.4566 180.57 45.9766 180.24 45.6066 179.83L46.6266 178.435ZM56.8657 181C56.9057 180.21 56.9807 179.485 57.0907 178.825C57.2107 178.155 57.3757 177.52 57.5857 176.92C57.8057 176.31 58.0857 175.72 58.4257 175.15C58.7657 174.57 59.1857 173.965 59.6857 173.335H54.9007V171.475H62.0557V172.825C61.4557 173.495 60.9707 174.125 60.6007 174.715C60.2307 175.295 59.9407 175.9 59.7307 176.53C59.5207 177.15 59.3707 177.82 59.2807 178.54C59.1907 179.25 59.1257 180.07 59.0857 181H56.8657ZM63.8348 179.74C64.5148 179.17 65.1348 178.64 65.6948 178.15C66.2548 177.65 66.7348 177.185 67.1348 176.755C67.5348 176.325 67.8448 175.92 68.0648 175.54C68.2848 175.16 68.3948 174.8 68.3948 174.46C68.3948 173.99 68.2598 173.635 67.9898 173.395C67.7198 173.145 67.3348 173.02 66.8348 173.02C66.4548 173.02 66.1048 173.12 65.7848 173.32C65.4748 173.51 65.1848 173.735 64.9148 173.995L63.7298 172.81C63.9798 172.56 64.2248 172.34 64.4648 172.15C64.7148 171.96 64.9748 171.805 65.2448 171.685C65.5248 171.555 65.8148 171.46 66.1148 171.4C66.4248 171.33 66.7648 171.295 67.1348 171.295C67.6348 171.295 68.0898 171.37 68.4998 171.52C68.9098 171.66 69.2598 171.865 69.5498 172.135C69.8498 172.395 70.0798 172.71 70.2398 173.08C70.4098 173.45 70.4948 173.865 70.4948 174.325C70.4948 174.725 70.3998 175.135 70.2098 175.555C70.0198 175.965 69.7598 176.38 69.4298 176.8C69.1098 177.21 68.7398 177.625 68.3198 178.045C67.8998 178.455 67.4598 178.86 66.9998 179.26C67.2698 179.23 67.5598 179.205 67.8698 179.185C68.1898 179.155 68.4748 179.14 68.7248 179.14H70.9898V181H63.8348V179.74ZM76.459 181.18C75.909 181.18 75.409 181.075 74.959 180.865C74.509 180.645 74.124 180.325 73.804 179.905C73.484 179.485 73.234 178.965 73.054 178.345C72.884 177.725 72.799 177.01 72.799 176.2C72.799 175.39 72.884 174.68 73.054 174.07C73.234 173.46 73.484 172.95 73.804 172.54C74.124 172.12 74.509 171.81 74.959 171.61C75.409 171.4 75.909 171.295 76.459 171.295C77.009 171.295 77.509 171.4 77.959 171.61C78.409 171.81 78.794 172.12 79.114 172.54C79.434 172.95 79.679 173.46 79.849 174.07C80.029 174.68 80.119 175.39 80.119 176.2C80.119 177.01 80.029 177.725 79.849 178.345C79.679 178.965 79.434 179.485 79.114 179.905C78.794 180.325 78.409 180.645 77.959 180.865C77.509 181.075 77.009 181.18 76.459 181.18ZM76.459 173.005C76.219 173.005 75.994 173.055 75.784 173.155C75.584 173.255 75.409 173.43 75.259 173.68C75.109 173.92 74.989 174.245 74.899 174.655C74.809 175.065 74.764 175.58 74.764 176.2C74.764 176.82 74.809 177.34 74.899 177.76C74.989 178.17 75.109 178.505 75.259 178.765C75.409 179.015 75.584 179.195 75.784 179.305C75.994 179.415 76.219 179.47 76.459 179.47C76.699 179.47 76.919 179.415 77.119 179.305C77.329 179.195 77.509 179.015 77.659 178.765C77.809 178.505 77.929 178.17 78.019 177.76C78.109 177.34 78.154 176.82 78.154 176.2C78.154 175.58 78.109 175.065 78.019 174.655C77.929 174.245 77.809 173.92 77.659 173.68C77.509 173.43 77.329 173.255 77.119 173.155C76.919 173.055 76.699 173.005 76.459 173.005ZM76.459 177.31C76.139 177.31 75.869 177.21 75.649 177.01C75.439 176.8 75.334 176.52 75.334 176.17C75.334 175.82 75.439 175.545 75.649 175.345C75.869 175.135 76.139 175.03 76.459 175.03C76.779 175.03 77.044 175.135 77.254 175.345C77.474 175.545 77.584 175.82 77.584 176.17C77.584 176.52 77.474 176.8 77.254 177.01C77.044 177.21 76.779 177.31 76.459 177.31ZM81.8231 179.74C82.5031 179.17 83.1231 178.64 83.6831 178.15C84.2431 177.65 84.7231 177.185 85.1231 176.755C85.5231 176.325 85.8331 175.92 86.0531 175.54C86.2731 175.16 86.3831 174.8 86.3831 174.46C86.3831 173.99 86.2481 173.635 85.9781 173.395C85.7081 173.145 85.3231 173.02 84.8231 173.02C84.4431 173.02 84.0931 173.12 83.7731 173.32C83.4631 173.51 83.1731 173.735 82.9031 173.995L81.7181 172.81C81.9681 172.56 82.2131 172.34 82.4531 172.15C82.7031 171.96 82.9631 171.805 83.2331 171.685C83.5131 171.555 83.8031 171.46 84.1031 171.4C84.4131 171.33 84.7531 171.295 85.1231 171.295C85.6231 171.295 86.0781 171.37 86.4881 171.52C86.8981 171.66 87.2481 171.865 87.5381 172.135C87.8381 172.395 88.0681 172.71 88.2281 173.08C88.3981 173.45 88.4831 173.865 88.4831 174.325C88.4831 174.725 88.3881 175.135 88.1981 175.555C88.0081 175.965 87.7481 176.38 87.4181 176.8C87.0981 177.21 86.7281 177.625 86.3081 178.045C85.8881 178.455 85.4481 178.86 84.9881 179.26C85.2581 179.23 85.5481 179.205 85.8581 179.185C86.1781 179.155 86.4631 179.14 86.7131 179.14H88.9781V181H81.8231V179.74ZM91.5973 178.435C91.9173 178.715 92.2723 178.945 92.6623 179.125C93.0623 179.305 93.4823 179.395 93.9223 179.395C94.4423 179.395 94.8673 179.3 95.1973 179.11C95.5373 178.91 95.7073 178.63 95.7073 178.27C95.7073 178.06 95.6623 177.87 95.5723 177.7C95.4823 177.53 95.3273 177.39 95.1073 177.28C94.8873 177.16 94.5923 177.07 94.2223 177.01C93.8523 176.94 93.3873 176.905 92.8273 176.905V175.345C93.7673 175.345 94.4273 175.23 94.8073 175C95.1973 174.76 95.3923 174.45 95.3923 174.07C95.3923 173.74 95.2673 173.485 95.0173 173.305C94.7673 173.115 94.4223 173.02 93.9823 173.02C93.6023 173.02 93.2523 173.095 92.9323 173.245C92.6123 173.395 92.2873 173.6 91.9573 173.86L90.8473 172.51C91.3173 172.13 91.8173 171.835 92.3473 171.625C92.8873 171.405 93.4673 171.295 94.0873 171.295C94.6073 171.295 95.0823 171.355 95.5123 171.475C95.9423 171.585 96.3123 171.755 96.6223 171.985C96.9323 172.205 97.1723 172.475 97.3423 172.795C97.5123 173.115 97.5973 173.485 97.5973 173.905C97.5973 174.405 97.4373 174.83 97.1173 175.18C96.7973 175.52 96.3523 175.8 95.7823 176.02V176.08C96.3823 176.24 96.8873 176.515 97.2973 176.905C97.7073 177.285 97.9123 177.785 97.9123 178.405C97.9123 178.845 97.8073 179.24 97.5973 179.59C97.3973 179.93 97.1223 180.22 96.7723 180.46C96.4323 180.69 96.0323 180.87 95.5723 181C95.1123 181.12 94.6323 181.18 94.1323 181.18C93.3123 181.18 92.6073 181.06 92.0173 180.82C91.4273 180.57 90.9473 180.24 90.5773 179.83L91.5973 178.435ZM106.996 179.215V181H100.171V179.215H102.631V173.71H100.666V172.345C101.226 172.245 101.701 172.125 102.091 171.985C102.491 171.845 102.866 171.675 103.216 171.475H104.836V179.215H106.996ZM112.166 175.87C112.446 175.87 112.736 175.8 113.036 175.66C113.336 175.52 113.631 175.275 113.921 174.925C113.861 174.555 113.771 174.245 113.651 173.995C113.541 173.735 113.406 173.53 113.246 173.38C113.096 173.22 112.931 173.11 112.751 173.05C112.571 172.98 112.386 172.945 112.196 172.945C112.006 172.945 111.821 172.975 111.641 173.035C111.471 173.095 111.316 173.19 111.176 173.32C111.046 173.44 110.941 173.6 110.861 173.8C110.781 173.99 110.741 174.22 110.741 174.49C110.741 174.98 110.871 175.335 111.131 175.555C111.391 175.765 111.736 175.87 112.166 175.87ZM110.036 178.72C110.236 178.9 110.486 179.06 110.786 179.2C111.086 179.33 111.396 179.395 111.716 179.395C112.006 179.395 112.281 179.345 112.541 179.245C112.811 179.135 113.046 178.965 113.246 178.735C113.456 178.495 113.626 178.185 113.756 177.805C113.886 177.415 113.961 176.94 113.981 176.38C113.631 176.71 113.246 176.97 112.826 177.16C112.416 177.34 112.036 177.43 111.686 177.43C111.266 177.43 110.876 177.37 110.516 177.25C110.156 177.13 109.841 176.95 109.571 176.71C109.311 176.47 109.106 176.165 108.956 175.795C108.806 175.425 108.731 174.99 108.731 174.49C108.731 174 108.821 173.56 109.001 173.17C109.191 172.77 109.441 172.43 109.751 172.15C110.071 171.87 110.436 171.66 110.846 171.52C111.256 171.37 111.691 171.295 112.151 171.295C112.641 171.295 113.116 171.385 113.576 171.565C114.046 171.745 114.461 172.025 114.821 172.405C115.181 172.785 115.466 173.275 115.676 173.875C115.896 174.465 116.006 175.18 116.006 176.02C116.006 176.91 115.891 177.68 115.661 178.33C115.431 178.98 115.126 179.515 114.746 179.935C114.366 180.355 113.926 180.67 113.426 180.88C112.936 181.08 112.431 181.18 111.911 181.18C111.231 181.18 110.636 181.065 110.126 180.835C109.616 180.605 109.196 180.34 108.866 180.04L110.036 178.72ZM124.985 179.215V181H118.16V179.215H120.62V173.71H118.655V172.345C119.215 172.245 119.69 172.125 120.08 171.985C120.48 171.845 120.855 171.675 121.205 171.475H122.825V179.215H124.985ZM130.424 181.18C129.874 181.18 129.374 181.075 128.924 180.865C128.474 180.645 128.089 180.325 127.769 179.905C127.449 179.485 127.199 178.965 127.019 178.345C126.849 177.725 126.764 177.01 126.764 176.2C126.764 175.39 126.849 174.68 127.019 174.07C127.199 173.46 127.449 172.95 127.769 172.54C128.089 172.12 128.474 171.81 128.924 171.61C129.374 171.4 129.874 171.295 130.424 171.295C130.974 171.295 131.474 171.4 131.924 171.61C132.374 171.81 132.759 172.12 133.079 172.54C133.399 172.95 133.644 173.46 133.814 174.07C133.994 174.68 134.084 175.39 134.084 176.2C134.084 177.01 133.994 177.725 133.814 178.345C133.644 178.965 133.399 179.485 133.079 179.905C132.759 180.325 132.374 180.645 131.924 180.865C131.474 181.075 130.974 181.18 130.424 181.18ZM130.424 173.005C130.184 173.005 129.959 173.055 129.749 173.155C129.549 173.255 129.374 173.43 129.224 173.68C129.074 173.92 128.954 174.245 128.864 174.655C128.774 175.065 128.729 175.58 128.729 176.2C128.729 176.82 128.774 177.34 128.864 177.76C128.954 178.17 129.074 178.505 129.224 178.765C129.374 179.015 129.549 179.195 129.749 179.305C129.959 179.415 130.184 179.47 130.424 179.47C130.664 179.47 130.884 179.415 131.084 179.305C131.294 179.195 131.474 179.015 131.624 178.765C131.774 178.505 131.894 178.17 131.984 177.76C132.074 177.34 132.119 176.82 132.119 176.2C132.119 175.58 132.074 175.065 131.984 174.655C131.894 174.245 131.774 173.92 131.624 173.68C131.474 173.43 131.294 173.255 131.084 173.155C130.884 173.055 130.664 173.005 130.424 173.005ZM130.424 177.31C130.104 177.31 129.834 177.21 129.614 177.01C129.404 176.8 129.299 176.52 129.299 176.17C129.299 175.82 129.404 175.545 129.614 175.345C129.834 175.135 130.104 175.03 130.424 175.03C130.744 175.03 131.009 175.135 131.219 175.345C131.439 175.545 131.549 175.82 131.549 176.17C131.549 176.52 131.439 176.8 131.219 177.01C131.009 177.21 130.744 177.31 130.424 177.31ZM137.813 181C137.853 180.21 137.928 179.485 138.038 178.825C138.158 178.155 138.323 177.52 138.533 176.92C138.753 176.31 139.033 175.72 139.373 175.15C139.713 174.57 140.133 173.965 140.633 173.335H135.848V171.475H143.003V172.825C142.403 173.495 141.918 174.125 141.548 174.715C141.178 175.295 140.888 175.9 140.678 176.53C140.468 177.15 140.318 177.82 140.228 178.54C140.138 179.25 140.073 180.07 140.033 181H137.813ZM148.622 179.53C148.812 179.53 148.992 179.5 149.162 179.44C149.342 179.38 149.497 179.29 149.627 179.17C149.767 179.04 149.877 178.88 149.957 178.69C150.037 178.49 150.077 178.255 150.077 177.985C150.077 177.495 149.947 177.145 149.687 176.935C149.427 176.715 149.087 176.605 148.667 176.605C148.387 176.605 148.097 176.675 147.797 176.815C147.497 176.955 147.202 177.195 146.912 177.535C146.972 177.915 147.057 178.235 147.167 178.495C147.287 178.745 147.422 178.95 147.572 179.11C147.722 179.26 147.887 179.37 148.067 179.44C148.247 179.5 148.432 179.53 148.622 179.53ZM150.797 173.755C150.597 173.575 150.347 173.42 150.047 173.29C149.747 173.15 149.437 173.08 149.117 173.08C148.827 173.08 148.547 173.135 148.277 173.245C148.017 173.345 147.782 173.515 147.572 173.755C147.372 173.985 147.207 174.29 147.077 174.67C146.947 175.05 146.872 175.52 146.852 176.08C147.192 175.75 147.567 175.495 147.977 175.315C148.397 175.135 148.787 175.045 149.147 175.045C149.567 175.045 149.952 175.105 150.302 175.225C150.662 175.345 150.972 175.525 151.232 175.765C151.502 176.005 151.712 176.31 151.862 176.68C152.012 177.05 152.087 177.485 152.087 177.985C152.087 178.485 151.992 178.93 151.802 179.32C151.622 179.71 151.372 180.045 151.052 180.325C150.742 180.605 150.382 180.82 149.972 180.97C149.562 181.11 149.127 181.18 148.667 181.18C148.177 181.18 147.702 181.09 147.242 180.91C146.782 180.73 146.372 180.45 146.012 180.07C145.652 179.69 145.362 179.205 145.142 178.615C144.922 178.015 144.812 177.295 144.812 176.455C144.812 175.565 144.927 174.795 145.157 174.145C145.387 173.495 145.692 172.96 146.072 172.54C146.462 172.12 146.902 171.81 147.392 171.61C147.882 171.4 148.392 171.295 148.922 171.295C149.602 171.295 150.197 171.41 150.707 171.64C151.217 171.86 151.632 172.125 151.952 172.435L150.797 173.755ZM154.586 178.45C154.906 178.71 155.246 178.935 155.606 179.125C155.976 179.305 156.386 179.395 156.836 179.395C157.376 179.395 157.816 179.27 158.156 179.02C158.506 178.77 158.681 178.4 158.681 177.91C158.681 177.43 158.516 177.065 158.186 176.815C157.866 176.565 157.451 176.44 156.941 176.44C156.781 176.44 156.636 176.45 156.506 176.47C156.386 176.48 156.266 176.505 156.146 176.545C156.026 176.585 155.901 176.635 155.771 176.695C155.641 176.755 155.496 176.83 155.336 176.92L154.361 176.29L154.616 171.475H160.451V173.335H156.521L156.356 175.12C156.576 175.04 156.781 174.985 156.971 174.955C157.161 174.915 157.376 174.895 157.616 174.895C158.056 174.895 158.471 174.955 158.861 175.075C159.261 175.195 159.611 175.375 159.911 175.615C160.211 175.855 160.446 176.16 160.616 176.53C160.796 176.9 160.886 177.34 160.886 177.85C160.886 178.38 160.781 178.85 160.571 179.26C160.371 179.67 160.096 180.02 159.746 180.31C159.406 180.59 159.011 180.805 158.561 180.955C158.111 181.105 157.641 181.18 157.151 181.18C156.321 181.18 155.616 181.055 155.036 180.805C154.466 180.545 153.986 180.225 153.596 179.845L154.586 178.45ZM169.955 179.215V181H163.13V179.215H165.59V173.71H163.625V172.345C164.185 172.245 164.66 172.125 165.05 171.985C165.45 171.845 165.825 171.675 166.175 171.475H167.795V179.215H169.955ZM173.715 178.315C173.715 178.735 173.88 179.065 174.21 179.305C174.54 179.535 174.95 179.65 175.44 179.65C175.89 179.65 176.25 179.555 176.52 179.365C176.8 179.165 176.94 178.865 176.94 178.465C176.94 178.245 176.885 178.06 176.775 177.91C176.665 177.76 176.505 177.625 176.295 177.505C176.095 177.375 175.855 177.26 175.575 177.16C175.295 177.05 174.985 176.93 174.645 176.8C174.375 177 174.15 177.225 173.97 177.475C173.8 177.725 173.715 178.005 173.715 178.315ZM176.04 175.45C176.52 175.02 176.76 174.555 176.76 174.055C176.76 173.685 176.645 173.39 176.415 173.17C176.185 172.94 175.85 172.825 175.41 172.825C175.06 172.825 174.76 172.915 174.51 173.095C174.27 173.275 174.15 173.55 174.15 173.92C174.15 174.31 174.325 174.615 174.675 174.835C175.025 175.055 175.48 175.26 176.04 175.45ZM171.81 178.57C171.81 178.28 171.855 178.02 171.945 177.79C172.045 177.55 172.175 177.335 172.335 177.145C172.505 176.955 172.695 176.785 172.905 176.635C173.125 176.485 173.36 176.35 173.61 176.23V176.17C173.21 175.89 172.875 175.575 172.605 175.225C172.345 174.865 172.215 174.43 172.215 173.92C172.215 173.52 172.295 173.16 172.455 172.84C172.615 172.51 172.835 172.23 173.115 172C173.405 171.77 173.75 171.595 174.15 171.475C174.55 171.355 174.985 171.295 175.455 171.295C175.935 171.295 176.365 171.36 176.745 171.49C177.135 171.61 177.465 171.785 177.735 172.015C178.005 172.235 178.21 172.51 178.35 172.84C178.5 173.16 178.575 173.515 178.575 173.905C178.575 174.355 178.44 174.755 178.17 175.105C177.91 175.455 177.59 175.75 177.21 175.99V176.05C177.46 176.17 177.695 176.31 177.915 176.47C178.135 176.62 178.325 176.795 178.485 176.995C178.645 177.195 178.77 177.425 178.86 177.685C178.95 177.935 178.995 178.22 178.995 178.54C178.995 178.92 178.915 179.27 178.755 179.59C178.595 179.91 178.36 180.19 178.05 180.43C177.75 180.66 177.375 180.845 176.925 180.985C176.475 181.115 175.96 181.18 175.38 181.18C174.83 181.18 174.335 181.12 173.895 181C173.455 180.87 173.08 180.69 172.77 180.46C172.46 180.23 172.22 179.955 172.05 179.635C171.89 179.315 171.81 178.96 171.81 178.57ZM181.569 178.45C181.889 178.71 182.229 178.935 182.589 179.125C182.959 179.305 183.369 179.395 183.819 179.395C184.359 179.395 184.799 179.27 185.139 179.02C185.489 178.77 185.664 178.4 185.664 177.91C185.664 177.43 185.499 177.065 185.169 176.815C184.849 176.565 184.434 176.44 183.924 176.44C183.764 176.44 183.619 176.45 183.489 176.47C183.369 176.48 183.249 176.505 183.129 176.545C183.009 176.585 182.884 176.635 182.754 176.695C182.624 176.755 182.479 176.83 182.319 176.92L181.344 176.29L181.599 171.475H187.434V173.335H183.504L183.339 175.12C183.559 175.04 183.764 174.985 183.954 174.955C184.144 174.915 184.359 174.895 184.599 174.895C185.039 174.895 185.454 174.955 185.844 175.075C186.244 175.195 186.594 175.375 186.894 175.615C187.194 175.855 187.429 176.16 187.599 176.53C187.779 176.9 187.869 177.34 187.869 177.85C187.869 178.38 187.764 178.85 187.554 179.26C187.354 179.67 187.079 180.02 186.729 180.31C186.389 180.59 185.994 180.805 185.544 180.955C185.094 181.105 184.624 181.18 184.134 181.18C183.304 181.18 182.599 181.055 182.019 180.805C181.449 180.545 180.969 180.225 180.579 179.845L181.569 178.45ZM11.895 200C11.935 199.21 12.01 198.485 12.12 197.825C12.24 197.155 12.405 196.52 12.615 195.92C12.835 195.31 13.115 194.72 13.455 194.15C13.795 193.57 14.215 192.965 14.715 192.335H9.93V190.475H17.085V191.825C16.485 192.495 16 193.125 15.63 193.715C15.26 194.295 14.97 194.9 14.76 195.53C14.55 196.15 14.4 196.82 14.31 197.54C14.22 198.25 14.155 199.07 14.115 200H11.895ZM19.6441 197.435C19.9641 197.715 20.3191 197.945 20.7091 198.125C21.1091 198.305 21.5291 198.395 21.9691 198.395C22.4891 198.395 22.9141 198.3 23.2441 198.11C23.5841 197.91 23.7541 197.63 23.7541 197.27C23.7541 197.06 23.7091 196.87 23.6191 196.7C23.5291 196.53 23.3741 196.39 23.1541 196.28C22.9341 196.16 22.6391 196.07 22.2691 196.01C21.8991 195.94 21.4341 195.905 20.8741 195.905V194.345C21.8141 194.345 22.4741 194.23 22.8541 194C23.2441 193.76 23.4391 193.45 23.4391 193.07C23.4391 192.74 23.3141 192.485 23.0641 192.305C22.8141 192.115 22.4691 192.02 22.0291 192.02C21.6491 192.02 21.2991 192.095 20.9791 192.245C20.6591 192.395 20.3341 192.6 20.0041 192.86L18.8941 191.51C19.3641 191.13 19.8641 190.835 20.3941 190.625C20.9341 190.405 21.5141 190.295 22.1341 190.295C22.6541 190.295 23.1291 190.355 23.5591 190.475C23.9891 190.585 24.3591 190.755 24.6691 190.985C24.9791 191.205 25.2191 191.475 25.3891 191.795C25.5591 192.115 25.6441 192.485 25.6441 192.905C25.6441 193.405 25.4841 193.83 25.1641 194.18C24.8441 194.52 24.3991 194.8 23.8291 195.02V195.08C24.4291 195.24 24.9341 195.515 25.3441 195.905C25.7541 196.285 25.9591 196.785 25.9591 197.405C25.9591 197.845 25.8541 198.24 25.6441 198.59C25.4441 198.93 25.1691 199.22 24.8191 199.46C24.4791 199.69 24.0791 199.87 23.6191 200C23.1591 200.12 22.6791 200.18 22.1791 200.18C21.3591 200.18 20.6541 200.06 20.0641 199.82C19.4741 199.57 18.9941 199.24 18.6241 198.83L19.6441 197.435ZM29.8833 200C29.9233 199.21 29.9983 198.485 30.1083 197.825C30.2283 197.155 30.3933 196.52 30.6033 195.92C30.8233 195.31 31.1033 194.72 31.4433 194.15C31.7833 193.57 32.2033 192.965 32.7033 192.335H27.9183V190.475H35.0733V191.825C34.4733 192.495 33.9883 193.125 33.6183 193.715C33.2483 194.295 32.9583 194.9 32.7483 195.53C32.5383 196.15 32.3883 196.82 32.2983 197.54C32.2083 198.25 32.1433 199.07 32.1033 200H29.8833ZM38.8024 197.315C38.8024 197.735 38.9674 198.065 39.2974 198.305C39.6274 198.535 40.0374 198.65 40.5274 198.65C40.9774 198.65 41.3374 198.555 41.6074 198.365C41.8874 198.165 42.0274 197.865 42.0274 197.465C42.0274 197.245 41.9724 197.06 41.8624 196.91C41.7524 196.76 41.5924 196.625 41.3824 196.505C41.1824 196.375 40.9424 196.26 40.6624 196.16C40.3824 196.05 40.0724 195.93 39.7324 195.8C39.4624 196 39.2374 196.225 39.0574 196.475C38.8874 196.725 38.8024 197.005 38.8024 197.315ZM41.1274 194.45C41.6074 194.02 41.8474 193.555 41.8474 193.055C41.8474 192.685 41.7324 192.39 41.5024 192.17C41.2724 191.94 40.9374 191.825 40.4974 191.825C40.1474 191.825 39.8474 191.915 39.5974 192.095C39.3574 192.275 39.2374 192.55 39.2374 192.92C39.2374 193.31 39.4124 193.615 39.7624 193.835C40.1124 194.055 40.5674 194.26 41.1274 194.45ZM36.8974 197.57C36.8974 197.28 36.9424 197.02 37.0324 196.79C37.1324 196.55 37.2624 196.335 37.4224 196.145C37.5924 195.955 37.7824 195.785 37.9924 195.635C38.2124 195.485 38.4474 195.35 38.6974 195.23V195.17C38.2974 194.89 37.9624 194.575 37.6924 194.225C37.4324 193.865 37.3024 193.43 37.3024 192.92C37.3024 192.52 37.3824 192.16 37.5424 191.84C37.7024 191.51 37.9224 191.23 38.2024 191C38.4924 190.77 38.8374 190.595 39.2374 190.475C39.6374 190.355 40.0724 190.295 40.5424 190.295C41.0224 190.295 41.4524 190.36 41.8324 190.49C42.2224 190.61 42.5524 190.785 42.8224 191.015C43.0924 191.235 43.2974 191.51 43.4374 191.84C43.5874 192.16 43.6624 192.515 43.6624 192.905C43.6624 193.355 43.5274 193.755 43.2574 194.105C42.9974 194.455 42.6774 194.75 42.2974 194.99V195.05C42.5474 195.17 42.7824 195.31 43.0024 195.47C43.2224 195.62 43.4124 195.795 43.5724 195.995C43.7324 196.195 43.8574 196.425 43.9474 196.685C44.0374 196.935 44.0824 197.22 44.0824 197.54C44.0824 197.92 44.0024 198.27 43.8424 198.59C43.6824 198.91 43.4474 199.19 43.1374 199.43C42.8374 199.66 42.4624 199.845 42.0124 199.985C41.5624 200.115 41.0474 200.18 40.4674 200.18C39.9174 200.18 39.4224 200.12 38.9824 200C38.5424 199.87 38.1674 199.69 37.8574 199.46C37.5474 199.23 37.3074 198.955 37.1374 198.635C36.9774 198.315 36.8974 197.96 36.8974 197.57ZM49.6866 198.53C49.8766 198.53 50.0566 198.5 50.2266 198.44C50.4066 198.38 50.5616 198.29 50.6916 198.17C50.8316 198.04 50.9416 197.88 51.0216 197.69C51.1016 197.49 51.1416 197.255 51.1416 196.985C51.1416 196.495 51.0116 196.145 50.7516 195.935C50.4916 195.715 50.1516 195.605 49.7316 195.605C49.4516 195.605 49.1616 195.675 48.8616 195.815C48.5616 195.955 48.2666 196.195 47.9766 196.535C48.0366 196.915 48.1216 197.235 48.2316 197.495C48.3516 197.745 48.4866 197.95 48.6366 198.11C48.7866 198.26 48.9516 198.37 49.1316 198.44C49.3116 198.5 49.4966 198.53 49.6866 198.53ZM51.8616 192.755C51.6616 192.575 51.4116 192.42 51.1116 192.29C50.8116 192.15 50.5016 192.08 50.1816 192.08C49.8916 192.08 49.6116 192.135 49.3416 192.245C49.0816 192.345 48.8466 192.515 48.6366 192.755C48.4366 192.985 48.2716 193.29 48.1416 193.67C48.0116 194.05 47.9366 194.52 47.9166 195.08C48.2566 194.75 48.6316 194.495 49.0416 194.315C49.4616 194.135 49.8516 194.045 50.2116 194.045C50.6316 194.045 51.0166 194.105 51.3666 194.225C51.7266 194.345 52.0366 194.525 52.2966 194.765C52.5666 195.005 52.7766 195.31 52.9266 195.68C53.0766 196.05 53.1516 196.485 53.1516 196.985C53.1516 197.485 53.0566 197.93 52.8666 198.32C52.6866 198.71 52.4366 199.045 52.1166 199.325C51.8066 199.605 51.4466 199.82 51.0366 199.97C50.6266 200.11 50.1916 200.18 49.7316 200.18C49.2416 200.18 48.7666 200.09 48.3066 199.91C47.8466 199.73 47.4366 199.45 47.0766 199.07C46.7166 198.69 46.4266 198.205 46.2066 197.615C45.9866 197.015 45.8766 196.295 45.8766 195.455C45.8766 194.565 45.9916 193.795 46.2216 193.145C46.4516 192.495 46.7566 191.96 47.1366 191.54C47.5266 191.12 47.9666 190.81 48.4566 190.61C48.9466 190.4 49.4566 190.295 49.9866 190.295C50.6666 190.295 51.2616 190.41 51.7716 190.64C52.2816 190.86 52.6966 191.125 53.0166 191.435L51.8616 192.755ZM58.2007 194.87C58.4807 194.87 58.7707 194.8 59.0707 194.66C59.3707 194.52 59.6657 194.275 59.9557 193.925C59.8957 193.555 59.8057 193.245 59.6857 192.995C59.5757 192.735 59.4407 192.53 59.2807 192.38C59.1307 192.22 58.9657 192.11 58.7857 192.05C58.6057 191.98 58.4207 191.945 58.2307 191.945C58.0407 191.945 57.8557 191.975 57.6757 192.035C57.5057 192.095 57.3507 192.19 57.2107 192.32C57.0807 192.44 56.9757 192.6 56.8957 192.8C56.8157 192.99 56.7757 193.22 56.7757 193.49C56.7757 193.98 56.9057 194.335 57.1657 194.555C57.4257 194.765 57.7707 194.87 58.2007 194.87ZM56.0707 197.72C56.2707 197.9 56.5207 198.06 56.8207 198.2C57.1207 198.33 57.4307 198.395 57.7507 198.395C58.0407 198.395 58.3157 198.345 58.5757 198.245C58.8457 198.135 59.0807 197.965 59.2807 197.735C59.4907 197.495 59.6607 197.185 59.7907 196.805C59.9207 196.415 59.9957 195.94 60.0157 195.38C59.6657 195.71 59.2807 195.97 58.8607 196.16C58.4507 196.34 58.0707 196.43 57.7207 196.43C57.3007 196.43 56.9107 196.37 56.5507 196.25C56.1907 196.13 55.8757 195.95 55.6057 195.71C55.3457 195.47 55.1407 195.165 54.9907 194.795C54.8407 194.425 54.7657 193.99 54.7657 193.49C54.7657 193 54.8557 192.56 55.0357 192.17C55.2257 191.77 55.4757 191.43 55.7857 191.15C56.1057 190.87 56.4707 190.66 56.8807 190.52C57.2907 190.37 57.7257 190.295 58.1857 190.295C58.6757 190.295 59.1507 190.385 59.6107 190.565C60.0807 190.745 60.4957 191.025 60.8557 191.405C61.2157 191.785 61.5007 192.275 61.7107 192.875C61.9307 193.465 62.0407 194.18 62.0407 195.02C62.0407 195.91 61.9257 196.68 61.6957 197.33C61.4657 197.98 61.1607 198.515 60.7807 198.935C60.4007 199.355 59.9607 199.67 59.4607 199.88C58.9707 200.08 58.4657 200.18 57.9457 200.18C57.2657 200.18 56.6707 200.065 56.1607 199.835C55.6507 199.605 55.2307 199.34 54.9007 199.04L56.0707 197.72ZM65.8598 200C65.8998 199.21 65.9748 198.485 66.0848 197.825C66.2048 197.155 66.3698 196.52 66.5798 195.92C66.7998 195.31 67.0798 194.72 67.4198 194.15C67.7598 193.57 68.1798 192.965 68.6798 192.335H63.8948V190.475H71.0498V191.825C70.4498 192.495 69.9648 193.125 69.5948 193.715C69.2248 194.295 68.9348 194.9 68.7248 195.53C68.5148 196.15 68.3648 196.82 68.2748 197.54C68.1848 198.25 68.1198 199.07 68.0798 200H65.8598ZM76.669 198.53C76.859 198.53 77.039 198.5 77.209 198.44C77.389 198.38 77.544 198.29 77.674 198.17C77.814 198.04 77.924 197.88 78.004 197.69C78.084 197.49 78.124 197.255 78.124 196.985C78.124 196.495 77.994 196.145 77.734 195.935C77.474 195.715 77.134 195.605 76.714 195.605C76.434 195.605 76.144 195.675 75.844 195.815C75.544 195.955 75.249 196.195 74.959 196.535C75.019 196.915 75.104 197.235 75.214 197.495C75.334 197.745 75.469 197.95 75.619 198.11C75.769 198.26 75.934 198.37 76.114 198.44C76.294 198.5 76.479 198.53 76.669 198.53ZM78.844 192.755C78.644 192.575 78.394 192.42 78.094 192.29C77.794 192.15 77.484 192.08 77.164 192.08C76.874 192.08 76.594 192.135 76.324 192.245C76.064 192.345 75.829 192.515 75.619 192.755C75.419 192.985 75.254 193.29 75.124 193.67C74.994 194.05 74.919 194.52 74.899 195.08C75.239 194.75 75.614 194.495 76.024 194.315C76.444 194.135 76.834 194.045 77.194 194.045C77.614 194.045 77.999 194.105 78.349 194.225C78.709 194.345 79.019 194.525 79.279 194.765C79.549 195.005 79.759 195.31 79.909 195.68C80.059 196.05 80.134 196.485 80.134 196.985C80.134 197.485 80.039 197.93 79.849 198.32C79.669 198.71 79.419 199.045 79.099 199.325C78.789 199.605 78.429 199.82 78.019 199.97C77.609 200.11 77.174 200.18 76.714 200.18C76.224 200.18 75.749 200.09 75.289 199.91C74.829 199.73 74.419 199.45 74.059 199.07C73.699 198.69 73.409 198.205 73.189 197.615C72.969 197.015 72.859 196.295 72.859 195.455C72.859 194.565 72.974 193.795 73.204 193.145C73.434 192.495 73.739 191.96 74.119 191.54C74.509 191.12 74.949 190.81 75.439 190.61C75.929 190.4 76.439 190.295 76.969 190.295C77.649 190.295 78.244 190.41 78.754 190.64C79.264 190.86 79.679 191.125 79.999 191.435L78.844 192.755ZM81.8231 198.74C82.5031 198.17 83.1231 197.64 83.6831 197.15C84.2431 196.65 84.7231 196.185 85.1231 195.755C85.5231 195.325 85.8331 194.92 86.0531 194.54C86.2731 194.16 86.3831 193.8 86.3831 193.46C86.3831 192.99 86.2481 192.635 85.9781 192.395C85.7081 192.145 85.3231 192.02 84.8231 192.02C84.4431 192.02 84.0931 192.12 83.7731 192.32C83.4631 192.51 83.1731 192.735 82.9031 192.995L81.7181 191.81C81.9681 191.56 82.2131 191.34 82.4531 191.15C82.7031 190.96 82.9631 190.805 83.2331 190.685C83.5131 190.555 83.8031 190.46 84.1031 190.4C84.4131 190.33 84.7531 190.295 85.1231 190.295C85.6231 190.295 86.0781 190.37 86.4881 190.52C86.8981 190.66 87.2481 190.865 87.5381 191.135C87.8381 191.395 88.0681 191.71 88.2281 192.08C88.3981 192.45 88.4831 192.865 88.4831 193.325C88.4831 193.725 88.3881 194.135 88.1981 194.555C88.0081 194.965 87.7481 195.38 87.4181 195.8C87.0981 196.21 86.7281 196.625 86.3081 197.045C85.8881 197.455 85.4481 197.86 84.9881 198.26C85.2581 198.23 85.5481 198.205 85.8581 198.185C86.1781 198.155 86.4631 198.14 86.7131 198.14H88.9781V200H81.8231V198.74ZM94.1773 194.87C94.4573 194.87 94.7473 194.8 95.0473 194.66C95.3473 194.52 95.6423 194.275 95.9323 193.925C95.8723 193.555 95.7823 193.245 95.6623 192.995C95.5523 192.735 95.4173 192.53 95.2573 192.38C95.1073 192.22 94.9423 192.11 94.7623 192.05C94.5823 191.98 94.3973 191.945 94.2073 191.945C94.0173 191.945 93.8323 191.975 93.6523 192.035C93.4823 192.095 93.3273 192.19 93.1873 192.32C93.0573 192.44 92.9523 192.6 92.8723 192.8C92.7923 192.99 92.7523 193.22 92.7523 193.49C92.7523 193.98 92.8823 194.335 93.1423 194.555C93.4023 194.765 93.7473 194.87 94.1773 194.87ZM92.0473 197.72C92.2473 197.9 92.4973 198.06 92.7973 198.2C93.0973 198.33 93.4073 198.395 93.7273 198.395C94.0173 198.395 94.2923 198.345 94.5523 198.245C94.8223 198.135 95.0573 197.965 95.2573 197.735C95.4673 197.495 95.6373 197.185 95.7673 196.805C95.8973 196.415 95.9723 195.94 95.9923 195.38C95.6423 195.71 95.2573 195.97 94.8373 196.16C94.4273 196.34 94.0473 196.43 93.6973 196.43C93.2773 196.43 92.8873 196.37 92.5273 196.25C92.1673 196.13 91.8523 195.95 91.5823 195.71C91.3223 195.47 91.1173 195.165 90.9673 194.795C90.8173 194.425 90.7423 193.99 90.7423 193.49C90.7423 193 90.8323 192.56 91.0123 192.17C91.2023 191.77 91.4523 191.43 91.7623 191.15C92.0823 190.87 92.4473 190.66 92.8573 190.52C93.2673 190.37 93.7023 190.295 94.1623 190.295C94.6523 190.295 95.1273 190.385 95.5873 190.565C96.0573 190.745 96.4723 191.025 96.8323 191.405C97.1923 191.785 97.4773 192.275 97.6873 192.875C97.9073 193.465 98.0173 194.18 98.0173 195.02C98.0173 195.91 97.9023 196.68 97.6723 197.33C97.4423 197.98 97.1373 198.515 96.7573 198.935C96.3773 199.355 95.9373 199.67 95.4373 199.88C94.9473 200.08 94.4423 200.18 93.9223 200.18C93.2423 200.18 92.6473 200.065 92.1373 199.835C91.6273 199.605 91.2073 199.34 90.8773 199.04L92.0473 197.72ZM104.056 196.04V194.435C104.056 194.135 104.061 193.79 104.071 193.4C104.091 193 104.111 192.65 104.131 192.35H104.071C103.911 192.62 103.741 192.89 103.561 193.16C103.381 193.43 103.206 193.7 103.036 193.97L101.596 196.04H104.056ZM107.311 197.72H106.111V200H104.056V197.72H99.4664V196.205L103.441 190.475H106.111V196.04H107.311V197.72ZM110.756 197.315C110.756 197.735 110.921 198.065 111.251 198.305C111.581 198.535 111.991 198.65 112.481 198.65C112.931 198.65 113.291 198.555 113.561 198.365C113.841 198.165 113.981 197.865 113.981 197.465C113.981 197.245 113.926 197.06 113.816 196.91C113.706 196.76 113.546 196.625 113.336 196.505C113.136 196.375 112.896 196.26 112.616 196.16C112.336 196.05 112.026 195.93 111.686 195.8C111.416 196 111.191 196.225 111.011 196.475C110.841 196.725 110.756 197.005 110.756 197.315ZM113.081 194.45C113.561 194.02 113.801 193.555 113.801 193.055C113.801 192.685 113.686 192.39 113.456 192.17C113.226 191.94 112.891 191.825 112.451 191.825C112.101 191.825 111.801 191.915 111.551 192.095C111.311 192.275 111.191 192.55 111.191 192.92C111.191 193.31 111.366 193.615 111.716 193.835C112.066 194.055 112.521 194.26 113.081 194.45ZM108.851 197.57C108.851 197.28 108.896 197.02 108.986 196.79C109.086 196.55 109.216 196.335 109.376 196.145C109.546 195.955 109.736 195.785 109.946 195.635C110.166 195.485 110.401 195.35 110.651 195.23V195.17C110.251 194.89 109.916 194.575 109.646 194.225C109.386 193.865 109.256 193.43 109.256 192.92C109.256 192.52 109.336 192.16 109.496 191.84C109.656 191.51 109.876 191.23 110.156 191C110.446 190.77 110.791 190.595 111.191 190.475C111.591 190.355 112.026 190.295 112.496 190.295C112.976 190.295 113.406 190.36 113.786 190.49C114.176 190.61 114.506 190.785 114.776 191.015C115.046 191.235 115.251 191.51 115.391 191.84C115.541 192.16 115.616 192.515 115.616 192.905C115.616 193.355 115.481 193.755 115.211 194.105C114.951 194.455 114.631 194.75 114.251 194.99V195.05C114.501 195.17 114.736 195.31 114.956 195.47C115.176 195.62 115.366 195.795 115.526 195.995C115.686 196.195 115.811 196.425 115.901 196.685C115.991 196.935 116.036 197.22 116.036 197.54C116.036 197.92 115.956 198.27 115.796 198.59C115.636 198.91 115.401 199.19 115.091 199.43C114.791 199.66 114.416 199.845 113.966 199.985C113.516 200.115 113.001 200.18 112.421 200.18C111.871 200.18 111.376 200.12 110.936 200C110.496 199.87 110.121 199.69 109.811 199.46C109.501 199.23 109.261 198.955 109.091 198.635C108.931 198.315 108.851 197.96 108.851 197.57ZM118.58 197.435C118.9 197.715 119.255 197.945 119.645 198.125C120.045 198.305 120.465 198.395 120.905 198.395C121.425 198.395 121.85 198.3 122.18 198.11C122.52 197.91 122.69 197.63 122.69 197.27C122.69 197.06 122.645 196.87 122.555 196.7C122.465 196.53 122.31 196.39 122.09 196.28C121.87 196.16 121.575 196.07 121.205 196.01C120.835 195.94 120.37 195.905 119.81 195.905V194.345C120.75 194.345 121.41 194.23 121.79 194C122.18 193.76 122.375 193.45 122.375 193.07C122.375 192.74 122.25 192.485 122 192.305C121.75 192.115 121.405 192.02 120.965 192.02C120.585 192.02 120.235 192.095 119.915 192.245C119.595 192.395 119.27 192.6 118.94 192.86L117.83 191.51C118.3 191.13 118.8 190.835 119.33 190.625C119.87 190.405 120.45 190.295 121.07 190.295C121.59 190.295 122.065 190.355 122.495 190.475C122.925 190.585 123.295 190.755 123.605 190.985C123.915 191.205 124.155 191.475 124.325 191.795C124.495 192.115 124.58 192.485 124.58 192.905C124.58 193.405 124.42 193.83 124.1 194.18C123.78 194.52 123.335 194.8 122.765 195.02V195.08C123.365 195.24 123.87 195.515 124.28 195.905C124.69 196.285 124.895 196.785 124.895 197.405C124.895 197.845 124.79 198.24 124.58 198.59C124.38 198.93 124.105 199.22 123.755 199.46C123.415 199.69 123.015 199.87 122.555 200C122.095 200.12 121.615 200.18 121.115 200.18C120.295 200.18 119.59 200.06 119 199.82C118.41 199.57 117.93 199.24 117.56 198.83L118.58 197.435ZM128.744 197.315C128.744 197.735 128.909 198.065 129.239 198.305C129.569 198.535 129.979 198.65 130.469 198.65C130.919 198.65 131.279 198.555 131.549 198.365C131.829 198.165 131.969 197.865 131.969 197.465C131.969 197.245 131.914 197.06 131.804 196.91C131.694 196.76 131.534 196.625 131.324 196.505C131.124 196.375 130.884 196.26 130.604 196.16C130.324 196.05 130.014 195.93 129.674 195.8C129.404 196 129.179 196.225 128.999 196.475C128.829 196.725 128.744 197.005 128.744 197.315ZM131.069 194.45C131.549 194.02 131.789 193.555 131.789 193.055C131.789 192.685 131.674 192.39 131.444 192.17C131.214 191.94 130.879 191.825 130.439 191.825C130.089 191.825 129.789 191.915 129.539 192.095C129.299 192.275 129.179 192.55 129.179 192.92C129.179 193.31 129.354 193.615 129.704 193.835C130.054 194.055 130.509 194.26 131.069 194.45ZM126.839 197.57C126.839 197.28 126.884 197.02 126.974 196.79C127.074 196.55 127.204 196.335 127.364 196.145C127.534 195.955 127.724 195.785 127.934 195.635C128.154 195.485 128.389 195.35 128.639 195.23V195.17C128.239 194.89 127.904 194.575 127.634 194.225C127.374 193.865 127.244 193.43 127.244 192.92C127.244 192.52 127.324 192.16 127.484 191.84C127.644 191.51 127.864 191.23 128.144 191C128.434 190.77 128.779 190.595 129.179 190.475C129.579 190.355 130.014 190.295 130.484 190.295C130.964 190.295 131.394 190.36 131.774 190.49C132.164 190.61 132.494 190.785 132.764 191.015C133.034 191.235 133.239 191.51 133.379 191.84C133.529 192.16 133.604 192.515 133.604 192.905C133.604 193.355 133.469 193.755 133.199 194.105C132.939 194.455 132.619 194.75 132.239 194.99V195.05C132.489 195.17 132.724 195.31 132.944 195.47C133.164 195.62 133.354 195.795 133.514 195.995C133.674 196.195 133.799 196.425 133.889 196.685C133.979 196.935 134.024 197.22 134.024 197.54C134.024 197.92 133.944 198.27 133.784 198.59C133.624 198.91 133.389 199.19 133.079 199.43C132.779 199.66 132.404 199.845 131.954 199.985C131.504 200.115 130.989 200.18 130.409 200.18C129.859 200.18 129.364 200.12 128.924 200C128.484 199.87 128.109 199.69 127.799 199.46C127.489 199.23 127.249 198.955 127.079 198.635C126.919 198.315 126.839 197.96 126.839 197.57ZM142.973 198.215V200H136.148V198.215H138.608V192.71H136.643V191.345C137.203 191.245 137.678 191.125 138.068 190.985C138.468 190.845 138.843 190.675 139.193 190.475H140.813V198.215H142.973ZM148.622 198.53C148.812 198.53 148.992 198.5 149.162 198.44C149.342 198.38 149.497 198.29 149.627 198.17C149.767 198.04 149.877 197.88 149.957 197.69C150.037 197.49 150.077 197.255 150.077 196.985C150.077 196.495 149.947 196.145 149.687 195.935C149.427 195.715 149.087 195.605 148.667 195.605C148.387 195.605 148.097 195.675 147.797 195.815C147.497 195.955 147.202 196.195 146.912 196.535C146.972 196.915 147.057 197.235 147.167 197.495C147.287 197.745 147.422 197.95 147.572 198.11C147.722 198.26 147.887 198.37 148.067 198.44C148.247 198.5 148.432 198.53 148.622 198.53ZM150.797 192.755C150.597 192.575 150.347 192.42 150.047 192.29C149.747 192.15 149.437 192.08 149.117 192.08C148.827 192.08 148.547 192.135 148.277 192.245C148.017 192.345 147.782 192.515 147.572 192.755C147.372 192.985 147.207 193.29 147.077 193.67C146.947 194.05 146.872 194.52 146.852 195.08C147.192 194.75 147.567 194.495 147.977 194.315C148.397 194.135 148.787 194.045 149.147 194.045C149.567 194.045 149.952 194.105 150.302 194.225C150.662 194.345 150.972 194.525 151.232 194.765C151.502 195.005 151.712 195.31 151.862 195.68C152.012 196.05 152.087 196.485 152.087 196.985C152.087 197.485 151.992 197.93 151.802 198.32C151.622 198.71 151.372 199.045 151.052 199.325C150.742 199.605 150.382 199.82 149.972 199.97C149.562 200.11 149.127 200.18 148.667 200.18C148.177 200.18 147.702 200.09 147.242 199.91C146.782 199.73 146.372 199.45 146.012 199.07C145.652 198.69 145.362 198.205 145.142 197.615C144.922 197.015 144.812 196.295 144.812 195.455C144.812 194.565 144.927 193.795 145.157 193.145C145.387 192.495 145.692 191.96 146.072 191.54C146.462 191.12 146.902 190.81 147.392 190.61C147.882 190.4 148.392 190.295 148.922 190.295C149.602 190.295 150.197 190.41 150.707 190.64C151.217 190.86 151.632 191.125 151.952 191.435L150.797 192.755ZM157.136 194.87C157.416 194.87 157.706 194.8 158.006 194.66C158.306 194.52 158.601 194.275 158.891 193.925C158.831 193.555 158.741 193.245 158.621 192.995C158.511 192.735 158.376 192.53 158.216 192.38C158.066 192.22 157.901 192.11 157.721 192.05C157.541 191.98 157.356 191.945 157.166 191.945C156.976 191.945 156.791 191.975 156.611 192.035C156.441 192.095 156.286 192.19 156.146 192.32C156.016 192.44 155.911 192.6 155.831 192.8C155.751 192.99 155.711 193.22 155.711 193.49C155.711 193.98 155.841 194.335 156.101 194.555C156.361 194.765 156.706 194.87 157.136 194.87ZM155.006 197.72C155.206 197.9 155.456 198.06 155.756 198.2C156.056 198.33 156.366 198.395 156.686 198.395C156.976 198.395 157.251 198.345 157.511 198.245C157.781 198.135 158.016 197.965 158.216 197.735C158.426 197.495 158.596 197.185 158.726 196.805C158.856 196.415 158.931 195.94 158.951 195.38C158.601 195.71 158.216 195.97 157.796 196.16C157.386 196.34 157.006 196.43 156.656 196.43C156.236 196.43 155.846 196.37 155.486 196.25C155.126 196.13 154.811 195.95 154.541 195.71C154.281 195.47 154.076 195.165 153.926 194.795C153.776 194.425 153.701 193.99 153.701 193.49C153.701 193 153.791 192.56 153.971 192.17C154.161 191.77 154.411 191.43 154.721 191.15C155.041 190.87 155.406 190.66 155.816 190.52C156.226 190.37 156.661 190.295 157.121 190.295C157.611 190.295 158.086 190.385 158.546 190.565C159.016 190.745 159.431 191.025 159.791 191.405C160.151 191.785 160.436 192.275 160.646 192.875C160.866 193.465 160.976 194.18 160.976 195.02C160.976 195.91 160.861 196.68 160.631 197.33C160.401 197.98 160.096 198.515 159.716 198.935C159.336 199.355 158.896 199.67 158.396 199.88C157.906 200.08 157.401 200.18 156.881 200.18C156.201 200.18 155.606 200.065 155.096 199.835C154.586 199.605 154.166 199.34 153.836 199.04L155.006 197.72ZM166.13 194.87C166.41 194.87 166.7 194.8 167 194.66C167.3 194.52 167.595 194.275 167.885 193.925C167.825 193.555 167.735 193.245 167.615 192.995C167.505 192.735 167.37 192.53 167.21 192.38C167.06 192.22 166.895 192.11 166.715 192.05C166.535 191.98 166.35 191.945 166.16 191.945C165.97 191.945 165.785 191.975 165.605 192.035C165.435 192.095 165.28 192.19 165.14 192.32C165.01 192.44 164.905 192.6 164.825 192.8C164.745 192.99 164.705 193.22 164.705 193.49C164.705 193.98 164.835 194.335 165.095 194.555C165.355 194.765 165.7 194.87 166.13 194.87ZM164 197.72C164.2 197.9 164.45 198.06 164.75 198.2C165.05 198.33 165.36 198.395 165.68 198.395C165.97 198.395 166.245 198.345 166.505 198.245C166.775 198.135 167.01 197.965 167.21 197.735C167.42 197.495 167.59 197.185 167.72 196.805C167.85 196.415 167.925 195.94 167.945 195.38C167.595 195.71 167.21 195.97 166.79 196.16C166.38 196.34 166 196.43 165.65 196.43C165.23 196.43 164.84 196.37 164.48 196.25C164.12 196.13 163.805 195.95 163.535 195.71C163.275 195.47 163.07 195.165 162.92 194.795C162.77 194.425 162.695 193.99 162.695 193.49C162.695 193 162.785 192.56 162.965 192.17C163.155 191.77 163.405 191.43 163.715 191.15C164.035 190.87 164.4 190.66 164.81 190.52C165.22 190.37 165.655 190.295 166.115 190.295C166.605 190.295 167.08 190.385 167.54 190.565C168.01 190.745 168.425 191.025 168.785 191.405C169.145 191.785 169.43 192.275 169.64 192.875C169.86 193.465 169.97 194.18 169.97 195.02C169.97 195.91 169.855 196.68 169.625 197.33C169.395 197.98 169.09 198.515 168.71 198.935C168.33 199.355 167.89 199.67 167.39 199.88C166.9 200.08 166.395 200.18 165.875 200.18C165.195 200.18 164.6 200.065 164.09 199.835C163.58 199.605 163.16 199.34 162.83 199.04L164 197.72ZM17.055 217.215V219H10.23V217.215H12.69V211.71H10.725V210.345C11.285 210.245 11.76 210.125 12.15 209.985C12.55 209.845 12.925 209.675 13.275 209.475H14.895V217.215H17.055Z" fill="white"/>
<rect x="80" width="164" height="31" fill="#333333"/>
<rect x="80" width="164" height="31" fill="#333333"/>
<rect x="1" width="79" height="31" fill="#090808"/>
<path d="M13.105 17.8101C13.105 17.5513 12.9756 17.3486 12.7168 17.2021C12.4629 17.0508 12.0527 16.9165 11.4863 16.7993C9.60156 16.4038 8.65918 15.603 8.65918 14.397C8.65918 13.6938 8.94971 13.1079 9.53076 12.6392C10.1167 12.1655 10.8809 11.9287 11.8232 11.9287C12.8291 11.9287 13.6323 12.1655 14.2329 12.6392C14.8384 13.1128 15.1411 13.728 15.1411 14.4849H13.0244C13.0244 14.1821 12.9268 13.9331 12.7314 13.7378C12.5361 13.5376 12.231 13.4375 11.8159 13.4375C11.4595 13.4375 11.1836 13.5181 10.9883 13.6792C10.793 13.8403 10.6953 14.0454 10.6953 14.2944C10.6953 14.5288 10.8052 14.7192 11.0249 14.8657C11.2495 15.0073 11.6255 15.1318 12.1528 15.2393C12.6802 15.3418 13.1245 15.459 13.4858 15.5908C14.604 16.001 15.1631 16.7114 15.1631 17.7222C15.1631 18.4448 14.853 19.0308 14.2329 19.48C13.6128 19.9243 12.812 20.1465 11.8306 20.1465C11.1665 20.1465 10.5757 20.0293 10.0581 19.7949C9.54541 19.5557 9.14258 19.231 8.84961 18.8208C8.55664 18.4058 8.41016 17.959 8.41016 17.4805H10.417C10.4365 17.8564 10.5757 18.1445 10.8345 18.3447C11.0933 18.5449 11.4399 18.645 11.8745 18.645C12.2798 18.645 12.585 18.5693 12.79 18.418C13 18.2617 13.105 18.0591 13.105 17.8101ZM19.8286 18.4399C20.2192 18.4399 20.5366 18.3325 20.7808 18.1177C21.0249 17.9028 21.1519 17.6172 21.1616 17.2607H23.1465C23.1416 17.7979 22.9951 18.291 22.707 18.7402C22.4189 19.1846 22.0234 19.5312 21.5205 19.7803C21.0225 20.0244 20.4707 20.1465 19.8652 20.1465C18.7324 20.1465 17.8389 19.7876 17.1846 19.0698C16.5303 18.3472 16.2031 17.3511 16.2031 16.0815V15.9424C16.2031 14.7217 16.5278 13.7476 17.1772 13.02C17.8267 12.2925 18.7178 11.9287 19.8506 11.9287C20.8418 11.9287 21.6353 12.2119 22.231 12.7783C22.8315 13.3398 23.1367 14.0894 23.1465 15.0269H21.1616C21.1519 14.6167 21.0249 14.2847 20.7808 14.0308C20.5366 13.772 20.2144 13.6426 19.814 13.6426C19.3208 13.6426 18.9473 13.8232 18.6934 14.1846C18.4443 14.541 18.3198 15.1221 18.3198 15.9277V16.1475C18.3198 16.9629 18.4443 17.5488 18.6934 17.9053C18.9424 18.2617 19.3208 18.4399 19.8286 18.4399ZM28.8081 14.0601C28.52 14.021 28.2661 14.0015 28.0464 14.0015C27.2456 14.0015 26.7207 14.2725 26.4717 14.8145V20H24.355V12.0752H26.3545L26.4131 13.02C26.8379 12.2925 27.4263 11.9287 28.1782 11.9287C28.4126 11.9287 28.6323 11.9604 28.8374 12.0239L28.8081 14.0601ZM32.0674 20H29.9434V12.0752H32.0674V20ZM29.8188 10.0244C29.8188 9.70703 29.9238 9.4458 30.1338 9.24072C30.3486 9.03564 30.6392 8.93311 31.0054 8.93311C31.3667 8.93311 31.6548 9.03564 31.8696 9.24072C32.0845 9.4458 32.1919 9.70703 32.1919 10.0244C32.1919 10.3467 32.082 10.6104 31.8623 10.8154C31.6475 11.0205 31.3618 11.123 31.0054 11.123C30.6489 11.123 30.3608 11.0205 30.1411 10.8154C29.9263 10.6104 29.8188 10.3467 29.8188 10.0244ZM40.9517 16.1108C40.9517 17.3315 40.6733 18.3105 40.1167 19.0479C39.5649 19.7803 38.8179 20.1465 37.8755 20.1465C37.0747 20.1465 36.4277 19.8682 35.9346 19.3115V23.0469H33.8179V12.0752H35.7808L35.854 12.8516C36.3667 12.2363 37.0356 11.9287 37.8608 11.9287C38.8374 11.9287 39.5967 12.29 40.1387 13.0127C40.6807 13.7354 40.9517 14.7314 40.9517 16.001V16.1108ZM38.835 15.957C38.835 15.2197 38.7031 14.6509 38.4395 14.2505C38.1807 13.8501 37.8022 13.6499 37.3042 13.6499C36.6401 13.6499 36.1836 13.9038 35.9346 14.4116V17.6562C36.1934 18.1787 36.6548 18.4399 37.3188 18.4399C38.3296 18.4399 38.835 17.6123 38.835 15.957ZM44.8042 10.127V12.0752H46.1592V13.6279H44.8042V17.583C44.8042 17.876 44.8604 18.0859 44.9727 18.2129C45.085 18.3398 45.2998 18.4033 45.6172 18.4033C45.8516 18.4033 46.0591 18.3862 46.2397 18.3521V19.9561C45.8247 20.083 45.3975 20.1465 44.958 20.1465C43.4736 20.1465 42.7168 19.397 42.6875 17.8979V13.6279H41.5303V12.0752H42.6875V10.127H44.8042ZM47.4482 18.96C47.4482 18.623 47.5605 18.3496 47.7852 18.1396C48.0146 17.9297 48.3003 17.8247 48.6421 17.8247C48.9888 17.8247 49.2744 17.9297 49.499 18.1396C49.7285 18.3496 49.8433 18.623 49.8433 18.96C49.8433 19.292 49.731 19.563 49.5063 19.7729C49.2817 19.978 48.9937 20.0806 48.6421 20.0806C48.2954 20.0806 48.0098 19.978 47.7852 19.7729C47.5605 19.563 47.4482 19.292 47.4482 18.96ZM58.8374 16.1108C58.8374 17.3315 58.5591 18.3105 58.0024 19.0479C57.4507 19.7803 56.7036 20.1465 55.7612 20.1465C54.9604 20.1465 54.3135 19.8682 53.8203 19.3115V23.0469H51.7036V12.0752H53.6665L53.7397 12.8516C54.2524 12.2363 54.9214 11.9287 55.7466 11.9287C56.7231 11.9287 57.4824 12.29 58.0244 13.0127C58.5664 13.7354 58.8374 14.7314 58.8374 16.001V16.1108ZM56.7207 15.957C56.7207 15.2197 56.5889 14.6509 56.3252 14.2505C56.0664 13.8501 55.688 13.6499 55.1899 13.6499C54.5259 13.6499 54.0693 13.9038 53.8203 14.4116V17.6562C54.0791 18.1787 54.5405 18.4399 55.2046 18.4399C56.2153 18.4399 56.7207 17.6123 56.7207 15.957ZM63.0269 17.0044L64.4917 12.0752H66.7622L63.5762 21.2305L63.4004 21.6479C62.9268 22.6831 62.1455 23.2007 61.0566 23.2007C60.749 23.2007 60.4365 23.1543 60.1191 23.0615V21.4575L60.4414 21.4648C60.8418 21.4648 61.1396 21.4038 61.335 21.2817C61.5352 21.1597 61.6914 20.957 61.8037 20.6738L62.0527 20.022L59.2769 12.0752H61.5547L63.0269 17.0044Z" fill="white"/>
<line x1="0.0010288" y1="122.5" x2="243.002" y2="123" stroke="white"/>
<path d="M11.285 51.585V53.76H9.08V43.56H10.88L11.045 44.31H11.09C11.39 44.04 11.735 43.82 12.125 43.65C12.515 43.47 12.91 43.38 13.31 43.38C13.77 43.38 14.185 43.47 14.555 43.65C14.925 43.83 15.24 44.085 15.5 44.415C15.76 44.745 15.955 45.145 16.085 45.615C16.225 46.075 16.295 46.59 16.295 47.16C16.295 47.8 16.205 48.37 16.025 48.87C15.845 49.36 15.605 49.78 15.305 50.13C15.005 50.47 14.66 50.73 14.27 50.91C13.89 51.09 13.49 51.18 13.07 51.18C12.39 51.18 11.77 50.91 11.21 50.37L11.285 51.585ZM11.285 48.885C11.495 49.065 11.71 49.195 11.93 49.275C12.16 49.345 12.37 49.38 12.56 49.38C12.98 49.38 13.33 49.21 13.61 48.87C13.89 48.52 14.03 47.96 14.03 47.19C14.03 45.85 13.575 45.18 12.665 45.18C12.195 45.18 11.735 45.41 11.285 45.87V48.885ZM18.7341 43.56H20.5341L20.7141 45.18H20.7591C21.1291 44.57 21.5741 44.12 22.0941 43.83C22.6141 43.53 23.1741 43.38 23.7741 43.38C24.1041 43.38 24.3691 43.405 24.5691 43.455C24.7791 43.505 24.9941 43.58 25.2141 43.68L24.7641 45.525C24.5341 45.455 24.3241 45.405 24.1341 45.375C23.9541 45.335 23.7241 45.315 23.4441 45.315C22.9841 45.315 22.5291 45.45 22.0791 45.72C21.6391 45.99 21.2591 46.46 20.9391 47.13V51H18.7341V43.56ZM27.1733 43.56H32.3633V51H30.1583V45.285H27.1733V43.56ZM31.1633 42.465C30.7333 42.465 30.3783 42.345 30.0983 42.105C29.8283 41.865 29.6933 41.54 29.6933 41.13C29.6933 40.72 29.8283 40.39 30.0983 40.14C30.3783 39.88 30.7333 39.75 31.1633 39.75C31.5933 39.75 31.9433 39.88 32.2133 40.14C32.4933 40.39 32.6333 40.72 32.6333 41.13C32.6333 41.54 32.4933 41.865 32.2133 42.105C31.9433 42.345 31.5933 42.465 31.1633 42.465ZM36.0624 43.56H37.8624L38.0274 44.55H38.0874C38.4074 44.23 38.7724 43.955 39.1824 43.725C39.6024 43.495 40.0924 43.38 40.6524 43.38C41.4924 43.38 42.1074 43.65 42.4974 44.19C42.8874 44.73 43.0824 45.47 43.0824 46.41V51H40.8774V46.695C40.8774 46.195 40.7974 45.83 40.6374 45.6C40.4774 45.37 40.1924 45.255 39.7824 45.255C39.4824 45.255 39.2174 45.32 38.9874 45.45C38.7674 45.58 38.5274 45.775 38.2674 46.035V51H36.0624V43.56ZM46.5866 45.285H44.7116V43.65L46.6916 43.56L46.9766 41.58H48.7916V43.56H51.9416V45.285H48.7916V47.895C48.7916 48.465 48.9166 48.87 49.1666 49.11C49.4166 49.34 49.8116 49.455 50.3516 49.455C50.6416 49.455 50.9066 49.43 51.1466 49.38C51.3866 49.33 51.6166 49.265 51.8366 49.185L52.2266 50.775C51.8966 50.875 51.5266 50.965 51.1166 51.045C50.7166 51.135 50.2766 51.18 49.7966 51.18C49.2066 51.18 48.7066 51.1 48.2966 50.94C47.8866 50.78 47.5516 50.56 47.2916 50.28C47.0416 49.99 46.8616 49.645 46.7516 49.245C46.6416 48.845 46.5866 48.4 46.5866 47.91V45.285ZM63.0448 40.485H65.2498V43.065L65.1298 44.49C65.2798 44.35 65.4398 44.215 65.6098 44.085C65.7898 43.945 65.9798 43.825 66.1798 43.725C66.3898 43.615 66.6148 43.53 66.8548 43.47C67.1048 43.41 67.3698 43.38 67.6498 43.38C68.4898 43.38 69.0998 43.65 69.4798 44.19C69.8698 44.73 70.0648 45.47 70.0648 46.41V51H67.8598V46.695C67.8598 46.195 67.7798 45.83 67.6198 45.6C67.4598 45.37 67.1748 45.255 66.7648 45.255C66.4648 45.255 66.1998 45.32 65.9698 45.45C65.7498 45.58 65.5098 45.775 65.2498 46.035V51H63.0448V40.485ZM71.874 48.93C71.874 48.51 71.964 48.145 72.144 47.835C72.324 47.515 72.609 47.245 72.999 47.025C73.399 46.805 73.909 46.63 74.529 46.5C75.149 46.36 75.899 46.265 76.779 46.215C76.739 45.875 76.589 45.61 76.329 45.42C76.079 45.23 75.699 45.135 75.189 45.135C74.829 45.135 74.464 45.2 74.094 45.33C73.734 45.45 73.344 45.615 72.924 45.825L72.144 44.385C72.654 44.095 73.199 43.855 73.779 43.665C74.369 43.475 74.984 43.38 75.624 43.38C76.664 43.38 77.484 43.655 78.084 44.205C78.684 44.755 78.984 45.6 78.984 46.74V51H77.184L77.019 50.16H76.959C76.579 50.45 76.164 50.695 75.714 50.895C75.264 51.085 74.799 51.18 74.319 51.18C73.939 51.18 73.599 51.12 73.299 51C72.999 50.89 72.744 50.735 72.534 50.535C72.324 50.325 72.159 50.085 72.039 49.815C71.929 49.545 71.874 49.25 71.874 48.93ZM73.989 48.765C73.989 49.005 74.079 49.185 74.259 49.305C74.449 49.415 74.704 49.47 75.024 49.47C75.354 49.47 75.664 49.405 75.954 49.275C76.244 49.135 76.519 48.965 76.779 48.765V47.535C76.229 47.565 75.774 47.615 75.414 47.685C75.054 47.755 74.769 47.845 74.559 47.955C74.349 48.055 74.199 48.175 74.109 48.315C74.029 48.455 73.989 48.605 73.989 48.765ZM81.7381 48.66C82.1681 48.93 82.5981 49.145 83.0281 49.305C83.4681 49.465 83.9381 49.545 84.4381 49.545C84.9481 49.545 85.3131 49.49 85.5331 49.38C85.7531 49.27 85.8631 49.115 85.8631 48.915C85.8631 48.685 85.6781 48.5 85.3081 48.36C84.9481 48.21 84.4681 48.05 83.8681 47.88C83.5381 47.79 83.2131 47.685 82.8931 47.565C82.5831 47.435 82.3031 47.285 82.0531 47.115C81.8031 46.935 81.5981 46.73 81.4381 46.5C81.2881 46.27 81.2131 46.005 81.2131 45.705C81.2131 45.365 81.2931 45.05 81.4531 44.76C81.6131 44.47 81.8381 44.225 82.1281 44.025C82.4281 43.825 82.7881 43.67 83.2081 43.56C83.6381 43.44 84.1181 43.38 84.6481 43.38C85.3081 43.38 85.9081 43.49 86.4481 43.71C86.9981 43.92 87.4681 44.15 87.8581 44.4L86.8681 45.72C86.5281 45.52 86.1781 45.355 85.8181 45.225C85.4581 45.085 85.0831 45.015 84.6931 45.015C84.2231 45.015 83.8881 45.065 83.6881 45.165C83.4981 45.265 83.4031 45.41 83.4031 45.6C83.4031 45.71 83.4531 45.81 83.5531 45.9C83.6531 45.99 83.7881 46.07 83.9581 46.14C84.1281 46.21 84.3281 46.28 84.5581 46.35C84.7981 46.41 85.0481 46.475 85.3081 46.545C85.6781 46.645 86.0281 46.76 86.3581 46.89C86.6881 47.01 86.9781 47.155 87.2281 47.325C87.4781 47.495 87.6781 47.7 87.8281 47.94C87.9781 48.18 88.0531 48.46 88.0531 48.78C88.0531 49.12 87.9731 49.435 87.8131 49.725C87.6531 50.015 87.4181 50.27 87.1081 50.49C86.8081 50.7 86.4281 50.87 85.9681 51C85.5181 51.12 84.9931 51.18 84.3931 51.18C83.7231 51.18 83.0681 51.07 82.4281 50.85C81.7881 50.63 81.2281 50.36 80.7481 50.04L81.7381 48.66ZM90.0273 40.485H92.2323V43.065L92.1123 44.49C92.2623 44.35 92.4223 44.215 92.5923 44.085C92.7723 43.945 92.9623 43.825 93.1623 43.725C93.3723 43.615 93.5973 43.53 93.8373 43.47C94.0873 43.41 94.3523 43.38 94.6323 43.38C95.4723 43.38 96.0823 43.65 96.4623 44.19C96.8523 44.73 97.0473 45.47 97.0473 46.41V51H94.8423V46.695C94.8423 46.195 94.7623 45.83 94.6023 45.6C94.4423 45.37 94.1573 45.255 93.7473 45.255C93.4473 45.255 93.1823 45.32 92.9523 45.45C92.7323 45.58 92.4923 45.775 92.2323 46.035V51H90.0273V40.485ZM11.285 70.585V72.76H9.08V62.56H10.88L11.045 63.31H11.09C11.39 63.04 11.735 62.82 12.125 62.65C12.515 62.47 12.91 62.38 13.31 62.38C13.77 62.38 14.185 62.47 14.555 62.65C14.925 62.83 15.24 63.085 15.5 63.415C15.76 63.745 15.955 64.145 16.085 64.615C16.225 65.075 16.295 65.59 16.295 66.16C16.295 66.8 16.205 67.37 16.025 67.87C15.845 68.36 15.605 68.78 15.305 69.13C15.005 69.47 14.66 69.73 14.27 69.91C13.89 70.09 13.49 70.18 13.07 70.18C12.39 70.18 11.77 69.91 11.21 69.37L11.285 70.585ZM11.285 67.885C11.495 68.065 11.71 68.195 11.93 68.275C12.16 68.345 12.37 68.38 12.56 68.38C12.98 68.38 13.33 68.21 13.61 67.87C13.89 67.52 14.03 66.96 14.03 66.19C14.03 64.85 13.575 64.18 12.665 64.18C12.195 64.18 11.735 64.41 11.285 64.87V67.885ZM18.7341 62.56H20.5341L20.7141 64.18H20.7591C21.1291 63.57 21.5741 63.12 22.0941 62.83C22.6141 62.53 23.1741 62.38 23.7741 62.38C24.1041 62.38 24.3691 62.405 24.5691 62.455C24.7791 62.505 24.9941 62.58 25.2141 62.68L24.7641 64.525C24.5341 64.455 24.3241 64.405 24.1341 64.375C23.9541 64.335 23.7241 64.315 23.4441 64.315C22.9841 64.315 22.5291 64.45 22.0791 64.72C21.6391 64.99 21.2591 65.46 20.9391 66.13V70H18.7341V62.56ZM27.1733 62.56H32.3633V70H30.1583V64.285H27.1733V62.56ZM31.1633 61.465C30.7333 61.465 30.3783 61.345 30.0983 61.105C29.8283 60.865 29.6933 60.54 29.6933 60.13C29.6933 59.72 29.8283 59.39 30.0983 59.14C30.3783 58.88 30.7333 58.75 31.1633 58.75C31.5933 58.75 31.9433 58.88 32.2133 59.14C32.4933 59.39 32.6333 59.72 32.6333 60.13C32.6333 60.54 32.4933 60.865 32.2133 61.105C31.9433 61.345 31.5933 61.465 31.1633 61.465ZM36.0624 62.56H37.8624L38.0274 63.55H38.0874C38.4074 63.23 38.7724 62.955 39.1824 62.725C39.6024 62.495 40.0924 62.38 40.6524 62.38C41.4924 62.38 42.1074 62.65 42.4974 63.19C42.8874 63.73 43.0824 64.47 43.0824 65.41V70H40.8774V65.695C40.8774 65.195 40.7974 64.83 40.6374 64.6C40.4774 64.37 40.1924 64.255 39.7824 64.255C39.4824 64.255 39.2174 64.32 38.9874 64.45C38.7674 64.58 38.5274 64.775 38.2674 65.035V70H36.0624V62.56ZM46.5866 64.285H44.7116V62.65L46.6916 62.56L46.9766 60.58H48.7916V62.56H51.9416V64.285H48.7916V66.895C48.7916 67.465 48.9166 67.87 49.1666 68.11C49.4166 68.34 49.8116 68.455 50.3516 68.455C50.6416 68.455 50.9066 68.43 51.1466 68.38C51.3866 68.33 51.6166 68.265 51.8366 68.185L52.2266 69.775C51.8966 69.875 51.5266 69.965 51.1166 70.045C50.7166 70.135 50.2766 70.18 49.7966 70.18C49.2066 70.18 48.7066 70.1 48.2966 69.94C47.8866 69.78 47.5516 69.56 47.2916 69.28C47.0416 68.99 46.8616 68.645 46.7516 68.245C46.6416 67.845 46.5866 67.4 46.5866 66.91V64.285ZM63.0448 59.485H65.2498V62.065L65.1298 63.49C65.2798 63.35 65.4398 63.215 65.6098 63.085C65.7898 62.945 65.9798 62.825 66.1798 62.725C66.3898 62.615 66.6148 62.53 66.8548 62.47C67.1048 62.41 67.3698 62.38 67.6498 62.38C68.4898 62.38 69.0998 62.65 69.4798 63.19C69.8698 63.73 70.0648 64.47 70.0648 65.41V70H67.8598V65.695C67.8598 65.195 67.7798 64.83 67.6198 64.6C67.4598 64.37 67.1748 64.255 66.7648 64.255C66.4648 64.255 66.1998 64.32 65.9698 64.45C65.7498 64.58 65.5098 64.775 65.2498 65.035V70H63.0448V59.485ZM71.874 67.93C71.874 67.51 71.964 67.145 72.144 66.835C72.324 66.515 72.609 66.245 72.999 66.025C73.399 65.805 73.909 65.63 74.529 65.5C75.149 65.36 75.899 65.265 76.779 65.215C76.739 64.875 76.589 64.61 76.329 64.42C76.079 64.23 75.699 64.135 75.189 64.135C74.829 64.135 74.464 64.2 74.094 64.33C73.734 64.45 73.344 64.615 72.924 64.825L72.144 63.385C72.654 63.095 73.199 62.855 73.779 62.665C74.369 62.475 74.984 62.38 75.624 62.38C76.664 62.38 77.484 62.655 78.084 63.205C78.684 63.755 78.984 64.6 78.984 65.74V70H77.184L77.019 69.16H76.959C76.579 69.45 76.164 69.695 75.714 69.895C75.264 70.085 74.799 70.18 74.319 70.18C73.939 70.18 73.599 70.12 73.299 70C72.999 69.89 72.744 69.735 72.534 69.535C72.324 69.325 72.159 69.085 72.039 68.815C71.929 68.545 71.874 68.25 71.874 67.93ZM73.989 67.765C73.989 68.005 74.079 68.185 74.259 68.305C74.449 68.415 74.704 68.47 75.024 68.47C75.354 68.47 75.664 68.405 75.954 68.275C76.244 68.135 76.519 67.965 76.779 67.765V66.535C76.229 66.565 75.774 66.615 75.414 66.685C75.054 66.755 74.769 66.845 74.559 66.955C74.349 67.055 74.199 67.175 74.109 67.315C74.029 67.455 73.989 67.605 73.989 67.765ZM81.7381 67.66C82.1681 67.93 82.5981 68.145 83.0281 68.305C83.4681 68.465 83.9381 68.545 84.4381 68.545C84.9481 68.545 85.3131 68.49 85.5331 68.38C85.7531 68.27 85.8631 68.115 85.8631 67.915C85.8631 67.685 85.6781 67.5 85.3081 67.36C84.9481 67.21 84.4681 67.05 83.8681 66.88C83.5381 66.79 83.2131 66.685 82.8931 66.565C82.5831 66.435 82.3031 66.285 82.0531 66.115C81.8031 65.935 81.5981 65.73 81.4381 65.5C81.2881 65.27 81.2131 65.005 81.2131 64.705C81.2131 64.365 81.2931 64.05 81.4531 63.76C81.6131 63.47 81.8381 63.225 82.1281 63.025C82.4281 62.825 82.7881 62.67 83.2081 62.56C83.6381 62.44 84.1181 62.38 84.6481 62.38C85.3081 62.38 85.9081 62.49 86.4481 62.71C86.9981 62.92 87.4681 63.15 87.8581 63.4L86.8681 64.72C86.5281 64.52 86.1781 64.355 85.8181 64.225C85.4581 64.085 85.0831 64.015 84.6931 64.015C84.2231 64.015 83.8881 64.065 83.6881 64.165C83.4981 64.265 83.4031 64.41 83.4031 64.6C83.4031 64.71 83.4531 64.81 83.5531 64.9C83.6531 64.99 83.7881 65.07 83.9581 65.14C84.1281 65.21 84.3281 65.28 84.5581 65.35C84.7981 65.41 85.0481 65.475 85.3081 65.545C85.6781 65.645 86.0281 65.76 86.3581 65.89C86.6881 66.01 86.9781 66.155 87.2281 66.325C87.4781 66.495 87.6781 66.7 87.8281 66.94C87.9781 67.18 88.0531 67.46 88.0531 67.78C88.0531 68.12 87.9731 68.435 87.8131 68.725C87.6531 69.015 87.4181 69.27 87.1081 69.49C86.8081 69.7 86.4281 69.87 85.9681 70C85.5181 70.12 84.9931 70.18 84.3931 70.18C83.7231 70.18 83.0681 70.07 82.4281 69.85C81.7881 69.63 81.2281 69.36 80.7481 69.04L81.7381 67.66ZM90.0273 59.485H92.2323V62.065L92.1123 63.49C92.2623 63.35 92.4223 63.215 92.5923 63.085C92.7723 62.945 92.9623 62.825 93.1623 62.725C93.3723 62.615 93.5973 62.53 93.8373 62.47C94.0873 62.41 94.3523 62.38 94.6323 62.38C95.4723 62.38 96.0823 62.65 96.4623 63.19C96.8523 63.73 97.0473 64.47 97.0473 65.41V70H94.8423V65.695C94.8423 65.195 94.7623 64.83 94.6023 64.6C94.4423 64.37 94.1573 64.255 93.7473 64.255C93.4473 64.255 93.1823 64.32 92.9523 64.45C92.7323 64.58 92.4923 64.775 92.2323 65.035V70H90.0273V59.485ZM11.285 88.585V90.76H9.08V80.56H10.88L11.045 81.31H11.09C11.39 81.04 11.735 80.82 12.125 80.65C12.515 80.47 12.91 80.38 13.31 80.38C13.77 80.38 14.185 80.47 14.555 80.65C14.925 80.83 15.24 81.085 15.5 81.415C15.76 81.745 15.955 82.145 16.085 82.615C16.225 83.075 16.295 83.59 16.295 84.16C16.295 84.8 16.205 85.37 16.025 85.87C15.845 86.36 15.605 86.78 15.305 87.13C15.005 87.47 14.66 87.73 14.27 87.91C13.89 88.09 13.49 88.18 13.07 88.18C12.39 88.18 11.77 87.91 11.21 87.37L11.285 88.585ZM11.285 85.885C11.495 86.065 11.71 86.195 11.93 86.275C12.16 86.345 12.37 86.38 12.56 86.38C12.98 86.38 13.33 86.21 13.61 85.87C13.89 85.52 14.03 84.96 14.03 84.19C14.03 82.85 13.575 82.18 12.665 82.18C12.195 82.18 11.735 82.41 11.285 82.87V85.885ZM18.7341 80.56H20.5341L20.7141 82.18H20.7591C21.1291 81.57 21.5741 81.12 22.0941 80.83C22.6141 80.53 23.1741 80.38 23.7741 80.38C24.1041 80.38 24.3691 80.405 24.5691 80.455C24.7791 80.505 24.9941 80.58 25.2141 80.68L24.7641 82.525C24.5341 82.455 24.3241 82.405 24.1341 82.375C23.9541 82.335 23.7241 82.315 23.4441 82.315C22.9841 82.315 22.5291 82.45 22.0791 82.72C21.6391 82.99 21.2591 83.46 20.9391 84.13V88H18.7341V80.56ZM27.1733 80.56H32.3633V88H30.1583V82.285H27.1733V80.56ZM31.1633 79.465C30.7333 79.465 30.3783 79.345 30.0983 79.105C29.8283 78.865 29.6933 78.54 29.6933 78.13C29.6933 77.72 29.8283 77.39 30.0983 77.14C30.3783 76.88 30.7333 76.75 31.1633 76.75C31.5933 76.75 31.9433 76.88 32.2133 77.14C32.4933 77.39 32.6333 77.72 32.6333 78.13C32.6333 78.54 32.4933 78.865 32.2133 79.105C31.9433 79.345 31.5933 79.465 31.1633 79.465ZM36.0624 80.56H37.8624L38.0274 81.55H38.0874C38.4074 81.23 38.7724 80.955 39.1824 80.725C39.6024 80.495 40.0924 80.38 40.6524 80.38C41.4924 80.38 42.1074 80.65 42.4974 81.19C42.8874 81.73 43.0824 82.47 43.0824 83.41V88H40.8774V83.695C40.8774 83.195 40.7974 82.83 40.6374 82.6C40.4774 82.37 40.1924 82.255 39.7824 82.255C39.4824 82.255 39.2174 82.32 38.9874 82.45C38.7674 82.58 38.5274 82.775 38.2674 83.035V88H36.0624V80.56ZM46.5866 82.285H44.7116V80.65L46.6916 80.56L46.9766 78.58H48.7916V80.56H51.9416V82.285H48.7916V84.895C48.7916 85.465 48.9166 85.87 49.1666 86.11C49.4166 86.34 49.8116 86.455 50.3516 86.455C50.6416 86.455 50.9066 86.43 51.1466 86.38C51.3866 86.33 51.6166 86.265 51.8366 86.185L52.2266 87.775C51.8966 87.875 51.5266 87.965 51.1166 88.045C50.7166 88.135 50.2766 88.18 49.7966 88.18C49.2066 88.18 48.7066 88.1 48.2966 87.94C47.8866 87.78 47.5516 87.56 47.2916 87.28C47.0416 86.99 46.8616 86.645 46.7516 86.245C46.6416 85.845 46.5866 85.4 46.5866 84.91V82.285ZM63.0448 77.485H65.2498V80.065L65.1298 81.49C65.2798 81.35 65.4398 81.215 65.6098 81.085C65.7898 80.945 65.9798 80.825 66.1798 80.725C66.3898 80.615 66.6148 80.53 66.8548 80.47C67.1048 80.41 67.3698 80.38 67.6498 80.38C68.4898 80.38 69.0998 80.65 69.4798 81.19C69.8698 81.73 70.0648 82.47 70.0648 83.41V88H67.8598V83.695C67.8598 83.195 67.7798 82.83 67.6198 82.6C67.4598 82.37 67.1748 82.255 66.7648 82.255C66.4648 82.255 66.1998 82.32 65.9698 82.45C65.7498 82.58 65.5098 82.775 65.2498 83.035V88H63.0448V77.485ZM71.874 85.93C71.874 85.51 71.964 85.145 72.144 84.835C72.324 84.515 72.609 84.245 72.999 84.025C73.399 83.805 73.909 83.63 74.529 83.5C75.149 83.36 75.899 83.265 76.779 83.215C76.739 82.875 76.589 82.61 76.329 82.42C76.079 82.23 75.699 82.135 75.189 82.135C74.829 82.135 74.464 82.2 74.094 82.33C73.734 82.45 73.344 82.615 72.924 82.825L72.144 81.385C72.654 81.095 73.199 80.855 73.779 80.665C74.369 80.475 74.984 80.38 75.624 80.38C76.664 80.38 77.484 80.655 78.084 81.205C78.684 81.755 78.984 82.6 78.984 83.74V88H77.184L77.019 87.16H76.959C76.579 87.45 76.164 87.695 75.714 87.895C75.264 88.085 74.799 88.18 74.319 88.18C73.939 88.18 73.599 88.12 73.299 88C72.999 87.89 72.744 87.735 72.534 87.535C72.324 87.325 72.159 87.085 72.039 86.815C71.929 86.545 71.874 86.25 71.874 85.93ZM73.989 85.765C73.989 86.005 74.079 86.185 74.259 86.305C74.449 86.415 74.704 86.47 75.024 86.47C75.354 86.47 75.664 86.405 75.954 86.275C76.244 86.135 76.519 85.965 76.779 85.765V84.535C76.229 84.565 75.774 84.615 75.414 84.685C75.054 84.755 74.769 84.845 74.559 84.955C74.349 85.055 74.199 85.175 74.109 85.315C74.029 85.455 73.989 85.605 73.989 85.765ZM81.7381 85.66C82.1681 85.93 82.5981 86.145 83.0281 86.305C83.4681 86.465 83.9381 86.545 84.4381 86.545C84.9481 86.545 85.3131 86.49 85.5331 86.38C85.7531 86.27 85.8631 86.115 85.8631 85.915C85.8631 85.685 85.6781 85.5 85.3081 85.36C84.9481 85.21 84.4681 85.05 83.8681 84.88C83.5381 84.79 83.2131 84.685 82.8931 84.565C82.5831 84.435 82.3031 84.285 82.0531 84.115C81.8031 83.935 81.5981 83.73 81.4381 83.5C81.2881 83.27 81.2131 83.005 81.2131 82.705C81.2131 82.365 81.2931 82.05 81.4531 81.76C81.6131 81.47 81.8381 81.225 82.1281 81.025C82.4281 80.825 82.7881 80.67 83.2081 80.56C83.6381 80.44 84.1181 80.38 84.6481 80.38C85.3081 80.38 85.9081 80.49 86.4481 80.71C86.9981 80.92 87.4681 81.15 87.8581 81.4L86.8681 82.72C86.5281 82.52 86.1781 82.355 85.8181 82.225C85.4581 82.085 85.0831 82.015 84.6931 82.015C84.2231 82.015 83.8881 82.065 83.6881 82.165C83.4981 82.265 83.4031 82.41 83.4031 82.6C83.4031 82.71 83.4531 82.81 83.5531 82.9C83.6531 82.99 83.7881 83.07 83.9581 83.14C84.1281 83.21 84.3281 83.28 84.5581 83.35C84.7981 83.41 85.0481 83.475 85.3081 83.545C85.6781 83.645 86.0281 83.76 86.3581 83.89C86.6881 84.01 86.9781 84.155 87.2281 84.325C87.4781 84.495 87.6781 84.7 87.8281 84.94C87.9781 85.18 88.0531 85.46 88.0531 85.78C88.0531 86.12 87.9731 86.435 87.8131 86.725C87.6531 87.015 87.4181 87.27 87.1081 87.49C86.8081 87.7 86.4281 87.87 85.9681 88C85.5181 88.12 84.9931 88.18 84.3931 88.18C83.7231 88.18 83.0681 88.07 82.4281 87.85C81.7881 87.63 81.2281 87.36 80.7481 87.04L81.7381 85.66ZM90.0273 77.485H92.2323V80.065L92.1123 81.49C92.2623 81.35 92.4223 81.215 92.5923 81.085C92.7723 80.945 92.9623 80.825 93.1623 80.725C93.3723 80.615 93.5973 80.53 93.8373 80.47C94.0873 80.41 94.3523 80.38 94.6323 80.38C95.4723 80.38 96.0823 80.65 96.4623 81.19C96.8523 81.73 97.0473 82.47 97.0473 83.41V88H94.8423V83.695C94.8423 83.195 94.7623 82.83 94.6023 82.6C94.4423 82.37 94.1573 82.255 93.7473 82.255C93.4473 82.255 93.1823 82.32 92.9523 82.45C92.7323 82.58 92.4923 82.775 92.2323 83.035V88H90.0273V77.485ZM11.285 107.585V109.76H9.08V99.56H10.88L11.045 100.31H11.09C11.39 100.04 11.735 99.82 12.125 99.65C12.515 99.47 12.91 99.38 13.31 99.38C13.77 99.38 14.185 99.47 14.555 99.65C14.925 99.83 15.24 100.085 15.5 100.415C15.76 100.745 15.955 101.145 16.085 101.615C16.225 102.075 16.295 102.59 16.295 103.16C16.295 103.8 16.205 104.37 16.025 104.87C15.845 105.36 15.605 105.78 15.305 106.13C15.005 106.47 14.66 106.73 14.27 106.91C13.89 107.09 13.49 107.18 13.07 107.18C12.39 107.18 11.77 106.91 11.21 106.37L11.285 107.585ZM11.285 104.885C11.495 105.065 11.71 105.195 11.93 105.275C12.16 105.345 12.37 105.38 12.56 105.38C12.98 105.38 13.33 105.21 13.61 104.87C13.89 104.52 14.03 103.96 14.03 103.19C14.03 101.85 13.575 101.18 12.665 101.18C12.195 101.18 11.735 101.41 11.285 101.87V104.885ZM18.7341 99.56H20.5341L20.7141 101.18H20.7591C21.1291 100.57 21.5741 100.12 22.0941 99.83C22.6141 99.53 23.1741 99.38 23.7741 99.38C24.1041 99.38 24.3691 99.405 24.5691 99.455C24.7791 99.505 24.9941 99.58 25.2141 99.68L24.7641 101.525C24.5341 101.455 24.3241 101.405 24.1341 101.375C23.9541 101.335 23.7241 101.315 23.4441 101.315C22.9841 101.315 22.5291 101.45 22.0791 101.72C21.6391 101.99 21.2591 102.46 20.9391 103.13V107H18.7341V99.56ZM27.1733 99.56H32.3633V107H30.1583V101.285H27.1733V99.56ZM31.1633 98.465C30.7333 98.465 30.3783 98.345 30.0983 98.105C29.8283 97.865 29.6933 97.54 29.6933 97.13C29.6933 96.72 29.8283 96.39 30.0983 96.14C30.3783 95.88 30.7333 95.75 31.1633 95.75C31.5933 95.75 31.9433 95.88 32.2133 96.14C32.4933 96.39 32.6333 96.72 32.6333 97.13C32.6333 97.54 32.4933 97.865 32.2133 98.105C31.9433 98.345 31.5933 98.465 31.1633 98.465ZM36.0624 99.56H37.8624L38.0274 100.55H38.0874C38.4074 100.23 38.7724 99.955 39.1824 99.725C39.6024 99.495 40.0924 99.38 40.6524 99.38C41.4924 99.38 42.1074 99.65 42.4974 100.19C42.8874 100.73 43.0824 101.47 43.0824 102.41V107H40.8774V102.695C40.8774 102.195 40.7974 101.83 40.6374 101.6C40.4774 101.37 40.1924 101.255 39.7824 101.255C39.4824 101.255 39.2174 101.32 38.9874 101.45C38.7674 101.58 38.5274 101.775 38.2674 102.035V107H36.0624V99.56ZM46.5866 101.285H44.7116V99.65L46.6916 99.56L46.9766 97.58H48.7916V99.56H51.9416V101.285H48.7916V103.895C48.7916 104.465 48.9166 104.87 49.1666 105.11C49.4166 105.34 49.8116 105.455 50.3516 105.455C50.6416 105.455 50.9066 105.43 51.1466 105.38C51.3866 105.33 51.6166 105.265 51.8366 105.185L52.2266 106.775C51.8966 106.875 51.5266 106.965 51.1166 107.045C50.7166 107.135 50.2766 107.18 49.7966 107.18C49.2066 107.18 48.7066 107.1 48.2966 106.94C47.8866 106.78 47.5516 106.56 47.2916 106.28C47.0416 105.99 46.8616 105.645 46.7516 105.245C46.6416 104.845 46.5866 104.4 46.5866 103.91V101.285ZM63.0448 96.485H65.2498V99.065L65.1298 100.49C65.2798 100.35 65.4398 100.215 65.6098 100.085C65.7898 99.945 65.9798 99.825 66.1798 99.725C66.3898 99.615 66.6148 99.53 66.8548 99.47C67.1048 99.41 67.3698 99.38 67.6498 99.38C68.4898 99.38 69.0998 99.65 69.4798 100.19C69.8698 100.73 70.0648 101.47 70.0648 102.41V107H67.8598V102.695C67.8598 102.195 67.7798 101.83 67.6198 101.6C67.4598 101.37 67.1748 101.255 66.7648 101.255C66.4648 101.255 66.1998 101.32 65.9698 101.45C65.7498 101.58 65.5098 101.775 65.2498 102.035V107H63.0448V96.485ZM71.874 104.93C71.874 104.51 71.964 104.145 72.144 103.835C72.324 103.515 72.609 103.245 72.999 103.025C73.399 102.805 73.909 102.63 74.529 102.5C75.149 102.36 75.899 102.265 76.779 102.215C76.739 101.875 76.589 101.61 76.329 101.42C76.079 101.23 75.699 101.135 75.189 101.135C74.829 101.135 74.464 101.2 74.094 101.33C73.734 101.45 73.344 101.615 72.924 101.825L72.144 100.385C72.654 100.095 73.199 99.855 73.779 99.665C74.369 99.475 74.984 99.38 75.624 99.38C76.664 99.38 77.484 99.655 78.084 100.205C78.684 100.755 78.984 101.6 78.984 102.74V107H77.184L77.019 106.16H76.959C76.579 106.45 76.164 106.695 75.714 106.895C75.264 107.085 74.799 107.18 74.319 107.18C73.939 107.18 73.599 107.12 73.299 107C72.999 106.89 72.744 106.735 72.534 106.535C72.324 106.325 72.159 106.085 72.039 105.815C71.929 105.545 71.874 105.25 71.874 104.93ZM73.989 104.765C73.989 105.005 74.079 105.185 74.259 105.305C74.449 105.415 74.704 105.47 75.024 105.47C75.354 105.47 75.664 105.405 75.954 105.275C76.244 105.135 76.519 104.965 76.779 104.765V103.535C76.229 103.565 75.774 103.615 75.414 103.685C75.054 103.755 74.769 103.845 74.559 103.955C74.349 104.055 74.199 104.175 74.109 104.315C74.029 104.455 73.989 104.605 73.989 104.765ZM81.7381 104.66C82.1681 104.93 82.5981 105.145 83.0281 105.305C83.4681 105.465 83.9381 105.545 84.4381 105.545C84.9481 105.545 85.3131 105.49 85.5331 105.38C85.7531 105.27 85.8631 105.115 85.8631 104.915C85.8631 104.685 85.6781 104.5 85.3081 104.36C84.9481 104.21 84.4681 104.05 83.8681 103.88C83.5381 103.79 83.2131 103.685 82.8931 103.565C82.5831 103.435 82.3031 103.285 82.0531 103.115C81.8031 102.935 81.5981 102.73 81.4381 102.5C81.2881 102.27 81.2131 102.005 81.2131 101.705C81.2131 101.365 81.2931 101.05 81.4531 100.76C81.6131 100.47 81.8381 100.225 82.1281 100.025C82.4281 99.825 82.7881 99.67 83.2081 99.56C83.6381 99.44 84.1181 99.38 84.6481 99.38C85.3081 99.38 85.9081 99.49 86.4481 99.71C86.9981 99.92 87.4681 100.15 87.8581 100.4L86.8681 101.72C86.5281 101.52 86.1781 101.355 85.8181 101.225C85.4581 101.085 85.0831 101.015 84.6931 101.015C84.2231 101.015 83.8881 101.065 83.6881 101.165C83.4981 101.265 83.4031 101.41 83.4031 101.6C83.4031 101.71 83.4531 101.81 83.5531 101.9C83.6531 101.99 83.7881 102.07 83.9581 102.14C84.1281 102.21 84.3281 102.28 84.5581 102.35C84.7981 102.41 85.0481 102.475 85.3081 102.545C85.6781 102.645 86.0281 102.76 86.3581 102.89C86.6881 103.01 86.9781 103.155 87.2281 103.325C87.4781 103.495 87.6781 103.7 87.8281 103.94C87.9781 104.18 88.0531 104.46 88.0531 104.78C88.0531 105.12 87.9731 105.435 87.8131 105.725C87.6531 106.015 87.4181 106.27 87.1081 106.49C86.8081 106.7 86.4281 106.87 85.9681 107C85.5181 107.12 84.9931 107.18 84.3931 107.18C83.7231 107.18 83.0681 107.07 82.4281 106.85C81.7881 106.63 81.2281 106.36 80.7481 106.04L81.7381 104.66ZM90.0273 96.485H92.2323V99.065L92.1123 100.49C92.2623 100.35 92.4223 100.215 92.5923 100.085C92.7723 99.945 92.9623 99.825 93.1623 99.725C93.3723 99.615 93.5973 99.53 93.8373 99.47C94.0873 99.41 94.3523 99.38 94.6323 99.38C95.4723 99.38 96.0823 99.65 96.4623 100.19C96.8523 100.73 97.0473 101.47 97.0473 102.41V107H94.8423V102.695C94.8423 102.195 94.7623 101.83 94.6023 101.6C94.4423 101.37 94.1573 101.255 93.7473 101.255C93.4473 101.255 93.1823 101.32 92.9523 101.45C92.7323 101.58 92.4923 101.775 92.2323 102.035V107H90.0273V96.485Z" fill="#56B4E9"/>
<path d="M58.8507 53.685C57.8707 52.815 57.0957 51.81 56.5257 50.67C55.9657 49.53 55.6857 48.25 55.6857 46.83C55.6857 45.41 55.9657 44.13 56.5257 42.99C57.0957 41.85 57.8707 40.845 58.8507 39.975L60.0807 40.95C59.1907 41.82 58.5407 42.725 58.1307 43.665C57.7307 44.595 57.5307 45.65 57.5307 46.83C57.5307 47.42 57.5807 47.98 57.6807 48.51C57.7807 49.03 57.9307 49.53 58.1307 50.01C58.3407 50.49 58.6057 50.95 58.9257 51.39C59.2457 51.84 59.6307 52.28 60.0807 52.71L58.8507 53.685ZM103.821 53.685C102.841 52.815 102.066 51.81 101.496 50.67C100.936 49.53 100.656 48.25 100.656 46.83C100.656 45.41 100.936 44.13 101.496 42.99C102.066 41.85 102.841 40.845 103.821 39.975L105.051 40.95C104.161 41.82 103.511 42.725 103.101 43.665C102.701 44.595 102.501 45.65 102.501 46.83C102.501 47.42 102.551 47.98 102.651 48.51C102.751 49.03 102.901 49.53 103.101 50.01C103.311 50.49 103.576 50.95 103.896 51.39C104.216 51.84 104.601 52.28 105.051 52.71L103.821 53.685ZM117.82 52.71C118.27 52.28 118.655 51.84 118.975 51.39C119.295 50.95 119.555 50.49 119.755 50.01C119.965 49.53 120.12 49.03 120.22 48.51C120.32 47.98 120.37 47.42 120.37 46.83C120.37 45.65 120.165 44.595 119.755 43.665C119.355 42.725 118.71 41.82 117.82 40.95L119.05 39.975C120.03 40.845 120.8 41.85 121.36 42.99C121.93 44.13 122.215 45.41 122.215 46.83C122.215 48.25 121.93 49.53 121.36 50.67C120.8 51.81 120.03 52.815 119.05 53.685L117.82 52.71ZM126.814 52.71C127.264 52.28 127.649 51.84 127.969 51.39C128.289 50.95 128.549 50.49 128.749 50.01C128.959 49.53 129.114 49.03 129.214 48.51C129.314 47.98 129.364 47.42 129.364 46.83C129.364 45.65 129.159 44.595 128.749 43.665C128.349 42.725 127.704 41.82 126.814 40.95L128.044 39.975C129.024 40.845 129.794 41.85 130.354 42.99C130.924 44.13 131.209 45.41 131.209 46.83C131.209 48.25 130.924 49.53 130.354 50.67C129.794 51.81 129.024 52.815 128.044 53.685L126.814 52.71ZM58.8507 72.685C57.8707 71.815 57.0957 70.81 56.5257 69.67C55.9657 68.53 55.6857 67.25 55.6857 65.83C55.6857 64.41 55.9657 63.13 56.5257 61.99C57.0957 60.85 57.8707 59.845 58.8507 58.975L60.0807 59.95C59.1907 60.82 58.5407 61.725 58.1307 62.665C57.7307 63.595 57.5307 64.65 57.5307 65.83C57.5307 66.42 57.5807 66.98 57.6807 67.51C57.7807 68.03 57.9307 68.53 58.1307 69.01C58.3407 69.49 58.6057 69.95 58.9257 70.39C59.2457 70.84 59.6307 71.28 60.0807 71.71L58.8507 72.685ZM103.821 72.685C102.841 71.815 102.066 70.81 101.496 69.67C100.936 68.53 100.656 67.25 100.656 65.83C100.656 64.41 100.936 63.13 101.496 61.99C102.066 60.85 102.841 59.845 103.821 58.975L105.051 59.95C104.161 60.82 103.511 61.725 103.101 62.665C102.701 63.595 102.501 64.65 102.501 65.83C102.501 66.42 102.551 66.98 102.651 67.51C102.751 68.03 102.901 68.53 103.101 69.01C103.311 69.49 103.576 69.95 103.896 70.39C104.216 70.84 104.601 71.28 105.051 71.71L103.821 72.685ZM162.79 71.71C163.24 71.28 163.625 70.84 163.945 70.39C164.265 69.95 164.525 69.49 164.725 69.01C164.935 68.53 165.09 68.03 165.19 67.51C165.29 66.98 165.34 66.42 165.34 65.83C165.34 64.65 165.135 63.595 164.725 62.665C164.325 61.725 163.68 60.82 162.79 59.95L164.02 58.975C165 59.845 165.77 60.85 166.33 61.99C166.9 63.13 167.185 64.41 167.185 65.83C167.185 67.25 166.9 68.53 166.33 69.67C165.77 70.81 165 71.815 164.02 72.685L162.79 71.71ZM171.785 71.71C172.235 71.28 172.62 70.84 172.94 70.39C173.26 69.95 173.52 69.49 173.72 69.01C173.93 68.53 174.085 68.03 174.185 67.51C174.285 66.98 174.335 66.42 174.335 65.83C174.335 64.65 174.13 63.595 173.72 62.665C173.32 61.725 172.675 60.82 171.785 59.95L173.015 58.975C173.995 59.845 174.765 60.85 175.325 61.99C175.895 63.13 176.18 64.41 176.18 65.83C176.18 67.25 175.895 68.53 175.325 69.67C174.765 70.81 173.995 71.815 173.015 72.685L171.785 71.71ZM58.8507 90.685C57.8707 89.815 57.0957 88.81 56.5257 87.67C55.9657 86.53 55.6857 85.25 55.6857 83.83C55.6857 82.41 55.9657 81.13 56.5257 79.99C57.0957 78.85 57.8707 77.845 58.8507 76.975L60.0807 77.95C59.1907 78.82 58.5407 79.725 58.1307 80.665C57.7307 81.595 57.5307 82.65 57.5307 83.83C57.5307 84.42 57.5807 84.98 57.6807 85.51C57.7807 86.03 57.9307 86.53 58.1307 87.01C58.3407 87.49 58.6057 87.95 58.9257 88.39C59.2457 88.84 59.6307 89.28 60.0807 89.71L58.8507 90.685ZM103.821 90.685C102.841 89.815 102.066 88.81 101.496 87.67C100.936 86.53 100.656 85.25 100.656 83.83C100.656 82.41 100.936 81.13 101.496 79.99C102.066 78.85 102.841 77.845 103.821 76.975L105.051 77.95C104.161 78.82 103.511 79.725 103.101 80.665C102.701 81.595 102.501 82.65 102.501 83.83C102.501 84.42 102.551 84.98 102.651 85.51C102.751 86.03 102.901 86.53 103.101 87.01C103.311 87.49 103.576 87.95 103.896 88.39C104.216 88.84 104.601 89.28 105.051 89.71L103.821 90.685ZM144.802 89.71C145.252 89.28 145.637 88.84 145.957 88.39C146.277 87.95 146.537 87.49 146.737 87.01C146.947 86.53 147.102 86.03 147.202 85.51C147.302 84.98 147.352 84.42 147.352 83.83C147.352 82.65 147.147 81.595 146.737 80.665C146.337 79.725 145.692 78.82 144.802 77.95L146.032 76.975C147.012 77.845 147.782 78.85 148.342 79.99C148.912 81.13 149.197 82.41 149.197 83.83C149.197 85.25 148.912 86.53 148.342 87.67C147.782 88.81 147.012 89.815 146.032 90.685L144.802 89.71ZM153.796 89.71C154.246 89.28 154.631 88.84 154.951 88.39C155.271 87.95 155.531 87.49 155.731 87.01C155.941 86.53 156.096 86.03 156.196 85.51C156.296 84.98 156.346 84.42 156.346 83.83C156.346 82.65 156.141 81.595 155.731 80.665C155.331 79.725 154.686 78.82 153.796 77.95L155.026 76.975C156.006 77.845 156.776 78.85 157.336 79.99C157.906 81.13 158.191 82.41 158.191 83.83C158.191 85.25 157.906 86.53 157.336 87.67C156.776 88.81 156.006 89.815 155.026 90.685L153.796 89.71ZM58.8507 109.685C57.8707 108.815 57.0957 107.81 56.5257 106.67C55.9657 105.53 55.6857 104.25 55.6857 102.83C55.6857 101.41 55.9657 100.13 56.5257 98.99C57.0957 97.85 57.8707 96.845 58.8507 95.975L60.0807 96.95C59.1907 97.82 58.5407 98.725 58.1307 99.665C57.7307 100.595 57.5307 101.65 57.5307 102.83C57.5307 103.42 57.5807 103.98 57.6807 104.51C57.7807 105.03 57.9307 105.53 58.1307 106.01C58.3407 106.49 58.6057 106.95 58.9257 107.39C59.2457 107.84 59.6307 108.28 60.0807 108.71L58.8507 109.685ZM103.821 109.685C102.841 108.815 102.066 107.81 101.496 106.67C100.936 105.53 100.656 104.25 100.656 102.83C100.656 101.41 100.936 100.13 101.496 98.99C102.066 97.85 102.841 96.845 103.821 95.975L105.051 96.95C104.161 97.82 103.511 98.725 103.101 99.665C102.701 100.595 102.501 101.65 102.501 102.83C102.501 103.42 102.551 103.98 102.651 104.51C102.751 105.03 102.901 105.53 103.101 106.01C103.311 106.49 103.576 106.95 103.896 107.39C104.216 107.84 104.601 108.28 105.051 108.71L103.821 109.685ZM144.802 108.71C145.252 108.28 145.637 107.84 145.957 107.39C146.277 106.95 146.537 106.49 146.737 106.01C146.947 105.53 147.102 105.03 147.202 104.51C147.302 103.98 147.352 103.42 147.352 102.83C147.352 101.65 147.147 100.595 146.737 99.665C146.337 98.725 145.692 97.82 144.802 96.95L146.032 95.975C147.012 96.845 147.782 97.85 148.342 98.99C148.912 100.13 149.197 101.41 149.197 102.83C149.197 104.25 148.912 105.53 148.342 106.67C147.782 107.81 147.012 108.815 146.032 109.685L144.802 108.71ZM153.796 108.71C154.246 108.28 154.631 107.84 154.951 107.39C155.271 106.95 155.531 106.49 155.731 106.01C155.941 105.53 156.096 105.03 156.196 104.51C156.296 103.98 156.346 103.42 156.346 102.83C156.346 101.65 156.141 100.595 155.731 99.665C155.331 98.725 154.686 97.82 153.796 96.95L155.026 95.975C156.006 96.845 156.776 97.85 157.336 98.99C157.906 100.13 158.191 101.41 158.191 102.83C158.191 104.25 157.906 105.53 157.336 106.67C156.776 107.81 156.006 108.815 155.026 109.685L153.796 108.71Z" fill="white"/>
<path d="M112.051 47.04V45.435C112.051 45.135 112.056 44.79 112.066 44.4C112.086 44 112.106 43.65 112.126 43.35H112.066C111.906 43.62 111.736 43.89 111.556 44.16C111.376 44.43 111.201 44.7 111.031 44.97L109.591 47.04H112.051ZM115.306 48.72H114.106V51H112.051V48.72H107.461V47.205L111.436 41.475H114.106V47.04H115.306V48.72ZM108.586 85.435C108.906 85.715 109.261 85.945 109.651 86.125C110.051 86.305 110.471 86.395 110.911 86.395C111.431 86.395 111.856 86.3 112.186 86.11C112.526 85.91 112.696 85.63 112.696 85.27C112.696 85.06 112.651 84.87 112.561 84.7C112.471 84.53 112.316 84.39 112.096 84.28C111.876 84.16 111.581 84.07 111.211 84.01C110.841 83.94 110.376 83.905 109.816 83.905V82.345C110.756 82.345 111.416 82.23 111.796 82C112.186 81.76 112.381 81.45 112.381 81.07C112.381 80.74 112.256 80.485 112.006 80.305C111.756 80.115 111.411 80.02 110.971 80.02C110.591 80.02 110.241 80.095 109.921 80.245C109.601 80.395 109.276 80.6 108.946 80.86L107.836 79.51C108.306 79.13 108.806 78.835 109.336 78.625C109.876 78.405 110.456 78.295 111.076 78.295C111.596 78.295 112.071 78.355 112.501 78.475C112.931 78.585 113.301 78.755 113.611 78.985C113.921 79.205 114.161 79.475 114.331 79.795C114.501 80.115 114.586 80.485 114.586 80.905C114.586 81.405 114.426 81.83 114.106 82.18C113.786 82.52 113.341 82.8 112.771 83.02V83.08C113.371 83.24 113.876 83.515 114.286 83.905C114.696 84.285 114.901 84.785 114.901 85.405C114.901 85.845 114.796 86.24 114.586 86.59C114.386 86.93 114.111 87.22 113.761 87.46C113.421 87.69 113.021 87.87 112.561 88C112.101 88.12 111.621 88.18 111.121 88.18C110.301 88.18 109.596 88.06 109.006 87.82C108.416 87.57 107.936 87.24 107.566 86.83L108.586 85.435ZM118.69 86.425C118.69 86.175 118.73 85.945 118.81 85.735C118.9 85.515 119.02 85.325 119.17 85.165C119.32 85.005 119.5 84.88 119.71 84.79C119.93 84.7 120.17 84.655 120.43 84.655C120.69 84.655 120.925 84.7 121.135 84.79C121.355 84.88 121.54 85.005 121.69 85.165C121.84 85.325 121.955 85.515 122.035 85.735C122.125 85.945 122.17 86.175 122.17 86.425C122.17 86.925 122.01 87.345 121.69 87.685C121.37 88.015 120.95 88.18 120.43 88.18C119.91 88.18 119.49 88.015 119.17 87.685C118.85 87.345 118.69 86.925 118.69 86.425ZM126.574 85.435C126.894 85.715 127.249 85.945 127.639 86.125C128.039 86.305 128.459 86.395 128.899 86.395C129.419 86.395 129.844 86.3 130.174 86.11C130.514 85.91 130.684 85.63 130.684 85.27C130.684 85.06 130.639 84.87 130.549 84.7C130.459 84.53 130.304 84.39 130.084 84.28C129.864 84.16 129.569 84.07 129.199 84.01C128.829 83.94 128.364 83.905 127.804 83.905V82.345C128.744 82.345 129.404 82.23 129.784 82C130.174 81.76 130.369 81.45 130.369 81.07C130.369 80.74 130.244 80.485 129.994 80.305C129.744 80.115 129.399 80.02 128.959 80.02C128.579 80.02 128.229 80.095 127.909 80.245C127.589 80.395 127.264 80.6 126.934 80.86L125.824 79.51C126.294 79.13 126.794 78.835 127.324 78.625C127.864 78.405 128.444 78.295 129.064 78.295C129.584 78.295 130.059 78.355 130.489 78.475C130.919 78.585 131.289 78.755 131.599 78.985C131.909 79.205 132.149 79.475 132.319 79.795C132.489 80.115 132.574 80.485 132.574 80.905C132.574 81.405 132.414 81.83 132.094 82.18C131.774 82.52 131.329 82.8 130.759 83.02V83.08C131.359 83.24 131.864 83.515 132.274 83.905C132.684 84.285 132.889 84.785 132.889 85.405C132.889 85.845 132.784 86.24 132.574 86.59C132.374 86.93 132.099 87.22 131.749 87.46C131.409 87.69 131.009 87.87 130.549 88C130.089 88.12 129.609 88.18 129.109 88.18C128.289 88.18 127.584 88.06 126.994 87.82C126.404 87.57 125.924 87.24 125.554 86.83L126.574 85.435ZM134.788 86.74C135.468 86.17 136.088 85.64 136.648 85.15C137.208 84.65 137.688 84.185 138.088 83.755C138.488 83.325 138.798 82.92 139.018 82.54C139.238 82.16 139.348 81.8 139.348 81.46C139.348 80.99 139.213 80.635 138.943 80.395C138.673 80.145 138.288 80.02 137.788 80.02C137.408 80.02 137.058 80.12 136.738 80.32C136.428 80.51 136.138 80.735 135.868 80.995L134.683 79.81C134.933 79.56 135.178 79.34 135.418 79.15C135.668 78.96 135.928 78.805 136.198 78.685C136.478 78.555 136.768 78.46 137.068 78.4C137.378 78.33 137.718 78.295 138.088 78.295C138.588 78.295 139.043 78.37 139.453 78.52C139.863 78.66 140.213 78.865 140.503 79.135C140.803 79.395 141.033 79.71 141.193 80.08C141.363 80.45 141.448 80.865 141.448 81.325C141.448 81.725 141.353 82.135 141.163 82.555C140.973 82.965 140.713 83.38 140.383 83.8C140.063 84.21 139.693 84.625 139.273 85.045C138.853 85.455 138.413 85.86 137.953 86.26C138.223 86.23 138.513 86.205 138.823 86.185C139.143 86.155 139.428 86.14 139.678 86.14H141.943V88H134.788V86.74Z" fill="#F0E442"/>
<path d="M110.236 61.9L110.161 59.725H112.711L112.636 61.9L112.111 65.455H110.761L110.236 61.9ZM124.285 61.33C123.795 61.14 123.275 61.045 122.725 61.045C122.245 61.045 121.89 61.15 121.66 61.36C121.44 61.57 121.33 61.9 121.33 62.35V62.56H123.895V64.285H121.33V70H119.125V64.285H117.16V62.65L119.125 62.56V62.365C119.125 61.935 119.19 61.535 119.32 61.165C119.45 60.795 119.65 60.475 119.92 60.205C120.19 59.925 120.535 59.705 120.955 59.545C121.375 59.385 121.875 59.305 122.455 59.305C122.885 59.305 123.285 59.345 123.655 59.425C124.035 59.505 124.385 59.6 124.705 59.71L124.285 61.33ZM125.629 66.28C125.629 65.66 125.734 65.11 125.944 64.63C126.154 64.14 126.434 63.73 126.784 63.4C127.144 63.07 127.549 62.82 127.999 62.65C128.459 62.47 128.934 62.38 129.424 62.38C129.914 62.38 130.384 62.47 130.834 62.65C131.294 62.82 131.699 63.07 132.049 63.4C132.409 63.73 132.694 64.14 132.904 64.63C133.114 65.11 133.219 65.66 133.219 66.28C133.219 66.9 133.114 67.455 132.904 67.945C132.694 68.425 132.409 68.83 132.049 69.16C131.699 69.49 131.294 69.745 130.834 69.925C130.384 70.095 129.914 70.18 129.424 70.18C128.934 70.18 128.459 70.095 127.999 69.925C127.549 69.745 127.144 69.49 126.784 69.16C126.434 68.83 126.154 68.425 125.944 67.945C125.734 67.455 125.629 66.9 125.629 66.28ZM127.894 66.28C127.894 66.93 128.019 67.445 128.269 67.825C128.529 68.205 128.914 68.395 129.424 68.395C129.934 68.395 130.314 68.205 130.564 67.825C130.824 67.445 130.954 66.93 130.954 66.28C130.954 65.63 130.824 65.115 130.564 64.735C130.314 64.355 129.934 64.165 129.424 64.165C128.914 64.165 128.529 64.355 128.269 64.735C128.019 65.115 127.894 65.63 127.894 66.28ZM141.793 70H139.993L139.828 68.935H139.768C139.438 69.315 139.073 69.62 138.673 69.85C138.273 70.07 137.803 70.18 137.263 70.18C136.413 70.18 135.798 69.91 135.418 69.37C135.038 68.83 134.848 68.09 134.848 67.15V62.56H137.053V66.865C137.053 67.365 137.128 67.73 137.278 67.96C137.428 68.19 137.713 68.305 138.133 68.305C138.413 68.305 138.658 68.245 138.868 68.125C139.088 68.005 139.328 67.78 139.588 67.45V62.56H141.793V70ZM144.652 62.56H146.452L146.632 64.18H146.677C147.047 63.57 147.492 63.12 148.012 62.83C148.532 62.53 149.092 62.38 149.692 62.38C150.022 62.38 150.287 62.405 150.487 62.455C150.697 62.505 150.912 62.58 151.132 62.68L150.682 64.525C150.452 64.455 150.242 64.405 150.052 64.375C149.872 64.335 149.642 64.315 149.362 64.315C148.902 64.315 148.447 64.45 147.997 64.72C147.557 64.99 147.177 65.46 146.857 66.13V70H144.652V62.56ZM155.206 61.9L155.131 59.725H157.681L157.606 61.9L157.081 65.455H155.731L155.206 61.9Z" fill="#009E73"/>
<path d="M110.326 99.08H107.401V97.22H115.471V99.08H112.546V107H110.326V99.08ZM117.67 99.56H119.47L119.65 101.18H119.695C120.065 100.57 120.51 100.12 121.03 99.83C121.55 99.53 122.11 99.38 122.71 99.38C123.04 99.38 123.305 99.405 123.505 99.455C123.715 99.505 123.93 99.58 124.15 99.68L123.7 101.525C123.47 101.455 123.26 101.405 123.07 101.375C122.89 101.335 122.66 101.315 122.38 101.315C121.92 101.315 121.465 101.45 121.015 101.72C120.575 101.99 120.195 102.46 119.875 103.13V107H117.67V99.56ZM132.799 107H130.999L130.834 105.935H130.774C130.444 106.315 130.079 106.62 129.679 106.85C129.279 107.07 128.809 107.18 128.269 107.18C127.419 107.18 126.804 106.91 126.424 106.37C126.044 105.83 125.854 105.09 125.854 104.15V99.56H128.059V103.865C128.059 104.365 128.134 104.73 128.284 104.96C128.434 105.19 128.719 105.305 129.139 105.305C129.419 105.305 129.664 105.245 129.874 105.125C130.094 105.005 130.334 104.78 130.594 104.45V99.56H132.799V107ZM134.743 103.28C134.743 102.67 134.848 102.125 135.058 101.645C135.278 101.165 135.568 100.76 135.928 100.43C136.288 100.09 136.698 99.83 137.158 99.65C137.628 99.47 138.113 99.38 138.613 99.38C139.183 99.38 139.688 99.47 140.128 99.65C140.568 99.83 140.933 100.08 141.223 100.4C141.513 100.72 141.733 101.1 141.883 101.54C142.033 101.97 142.108 102.44 142.108 102.95C142.108 103.15 142.098 103.34 142.078 103.52C142.058 103.7 142.038 103.835 142.018 103.925H137.008C137.088 104.485 137.328 104.89 137.728 105.14C138.138 105.38 138.618 105.5 139.168 105.5C139.508 105.5 139.828 105.46 140.128 105.38C140.438 105.29 140.758 105.16 141.088 104.99L141.808 106.31C141.388 106.58 140.918 106.795 140.398 106.955C139.878 107.105 139.368 107.18 138.868 107.18C138.288 107.18 137.748 107.095 137.248 106.925C136.748 106.745 136.313 106.49 135.943 106.16C135.573 105.82 135.278 105.41 135.058 104.93C134.848 104.45 134.743 103.9 134.743 103.28ZM140.113 102.47C140.113 102.05 139.998 101.71 139.768 101.45C139.538 101.19 139.168 101.06 138.658 101.06C138.258 101.06 137.903 101.175 137.593 101.405C137.283 101.635 137.078 101.99 136.978 102.47H140.113Z" fill="#E69F00"/>
</svg>
