<svg width="278" height="312" viewBox="0 0 278 312" fill="none" xmlns="http://www.w3.org/2000/svg">
<rect width="278" height="312" fill="black"/>
<path d="M15.055 262.215V264H8.23V262.215H10.69V256.71H8.725V255.345C9.285 255.245 9.76 255.125 10.15 254.985C10.55 254.845 10.925 254.675 11.275 254.475H12.895V262.215H15.055ZM7.87 281.74C8.55 281.17 9.17 280.64 9.73 280.15C10.29 279.65 10.77 279.185 11.17 278.755C11.57 278.325 11.88 277.92 12.1 277.54C12.32 277.16 12.43 276.8 12.43 276.46C12.43 275.99 12.295 275.635 12.025 275.395C11.755 275.145 11.37 275.02 10.87 275.02C10.49 275.02 10.14 275.12 9.82 275.32C9.51 275.51 9.22 275.735 8.95 275.995L7.765 274.81C8.015 274.56 8.26 274.34 8.5 274.15C8.75 273.96 9.01 273.805 9.28 273.685C9.56 273.555 9.85 273.46 10.15 273.4C10.46 273.33 10.8 273.295 11.17 273.295C11.67 273.295 12.125 273.37 12.535 273.52C12.945 273.66 13.295 273.865 13.585 274.135C13.885 274.395 14.115 274.71 14.275 275.08C14.445 275.45 14.53 275.865 14.53 276.325C14.53 276.725 14.435 277.135 14.245 277.555C14.055 277.965 13.795 278.38 13.465 278.8C13.145 279.21 12.775 279.625 12.355 280.045C11.935 280.455 11.495 280.86 11.035 281.26C11.305 281.23 11.595 281.205 11.905 281.185C12.225 281.155 12.51 281.14 12.76 281.14H15.025V283H7.87V281.74ZM8.65 298.435C8.97 298.715 9.325 298.945 9.715 299.125C10.115 299.305 10.535 299.395 10.975 299.395C11.495 299.395 11.92 299.3 12.25 299.11C12.59 298.91 12.76 298.63 12.76 298.27C12.76 298.06 12.715 297.87 12.625 297.7C12.535 297.53 12.38 297.39 12.16 297.28C11.94 297.16 11.645 297.07 11.275 297.01C10.905 296.94 10.44 296.905 9.88 296.905V295.345C10.82 295.345 11.48 295.23 11.86 295C12.25 294.76 12.445 294.45 12.445 294.07C12.445 293.74 12.32 293.485 12.07 293.305C11.82 293.115 11.475 293.02 11.035 293.02C10.655 293.02 10.305 293.095 9.985 293.245C9.665 293.395 9.34 293.6 9.01 293.86L7.9 292.51C8.37 292.13 8.87 291.835 9.4 291.625C9.94 291.405 10.52 291.295 11.14 291.295C11.66 291.295 12.135 291.355 12.565 291.475C12.995 291.585 13.365 291.755 13.675 291.985C13.985 292.205 14.225 292.475 14.395 292.795C14.565 293.115 14.65 293.485 14.65 293.905C14.65 294.405 14.49 294.83 14.17 295.18C13.85 295.52 13.405 295.8 12.835 296.02V296.08C13.435 296.24 13.94 296.515 14.35 296.905C14.76 297.285 14.965 297.785 14.965 298.405C14.965 298.845 14.86 299.24 14.65 299.59C14.45 299.93 14.175 300.22 13.825 300.46C13.485 300.69 13.085 300.87 12.625 301C12.165 301.12 11.685 301.18 11.185 301.18C10.365 301.18 9.66 301.06 9.07 300.82C8.48 300.57 8 300.24 7.63 299.83L8.65 298.435Z" fill="white"/>
<path d="M11.5 246.18C10.92 246.18 10.385 246.065 9.895 245.835C9.415 245.595 9 245.255 8.65 244.815C8.31 244.375 8.045 243.84 7.855 243.21C7.665 242.58 7.57 241.865 7.57 241.065C7.57 240.265 7.665 239.555 7.855 238.935C8.045 238.305 8.31 237.78 8.65 237.36C9 236.93 9.415 236.605 9.895 236.385C10.385 236.155 10.92 236.04 11.5 236.04C12.08 236.04 12.61 236.155 13.09 236.385C13.58 236.605 13.995 236.93 14.335 237.36C14.685 237.79 14.955 238.32 15.145 238.95C15.335 239.57 15.43 240.275 15.43 241.065C15.43 241.865 15.335 242.58 15.145 243.21C14.955 243.84 14.685 244.375 14.335 244.815C13.995 245.255 13.58 245.595 13.09 245.835C12.61 246.065 12.08 246.18 11.5 246.18ZM11.5 244.275C12.01 244.275 12.415 243.99 12.715 243.42C13.015 242.84 13.165 242.055 13.165 241.065C13.165 240.085 13.015 239.32 12.715 238.77C12.415 238.22 12.01 237.945 11.5 237.945C10.99 237.945 10.585 238.22 10.285 238.77C9.985 239.32 9.835 240.085 9.835 241.065C9.835 242.055 9.985 242.84 10.285 243.42C10.585 243.99 10.99 244.275 11.5 244.275ZM23.8691 246H22.0691L21.9041 244.935H21.8441C21.5141 245.315 21.1491 245.62 20.7491 245.85C20.3491 246.07 19.8791 246.18 19.3391 246.18C18.4891 246.18 17.8741 245.91 17.4941 245.37C17.1141 244.83 16.9241 244.09 16.9241 243.15V238.56H19.1291V242.865C19.1291 243.365 19.2041 243.73 19.3541 243.96C19.5041 244.19 19.7891 244.305 20.2091 244.305C20.4891 244.305 20.7341 244.245 20.9441 244.125C21.1641 244.005 21.4041 243.78 21.6641 243.45V238.56H23.8691V246ZM27.5983 240.285H25.7233V238.65L27.7033 238.56L27.9883 236.58H29.8033V238.56H32.9533V240.285H29.8033V242.895C29.8033 243.465 29.9283 243.87 30.1783 244.11C30.4283 244.34 30.8233 244.455 31.3633 244.455C31.6533 244.455 31.9183 244.43 32.1583 244.38C32.3983 244.33 32.6283 244.265 32.8483 244.185L33.2383 245.775C32.9083 245.875 32.5383 245.965 32.1283 246.045C31.7283 246.135 31.2883 246.18 30.8083 246.18C30.2183 246.18 29.7183 246.1 29.3083 245.94C28.8983 245.78 28.5633 245.56 28.3033 245.28C28.0533 244.99 27.8733 244.645 27.7633 244.245C27.6533 243.845 27.5983 243.4 27.5983 242.91V240.285ZM37.2674 246.585V248.76H35.0624V238.56H36.8624L37.0274 239.31H37.0724C37.3724 239.04 37.7174 238.82 38.1074 238.65C38.4974 238.47 38.8924 238.38 39.2924 238.38C39.7524 238.38 40.1674 238.47 40.5374 238.65C40.9074 238.83 41.2224 239.085 41.4824 239.415C41.7424 239.745 41.9374 240.145 42.0674 240.615C42.2074 241.075 42.2774 241.59 42.2774 242.16C42.2774 242.8 42.1874 243.37 42.0074 243.87C41.8274 244.36 41.5874 244.78 41.2874 245.13C40.9874 245.47 40.6424 245.73 40.2524 245.91C39.8724 246.09 39.4724 246.18 39.0524 246.18C38.3724 246.18 37.7524 245.91 37.1924 245.37L37.2674 246.585ZM37.2674 243.885C37.4774 244.065 37.6924 244.195 37.9124 244.275C38.1424 244.345 38.3524 244.38 38.5424 244.38C38.9624 244.38 39.3124 244.21 39.5924 243.87C39.8724 243.52 40.0124 242.96 40.0124 242.19C40.0124 240.85 39.5574 240.18 38.6474 240.18C38.1774 240.18 37.7174 240.41 37.2674 240.87V243.885ZM50.8516 246H49.0516L48.8866 244.935H48.8266C48.4966 245.315 48.1316 245.62 47.7316 245.85C47.3316 246.07 46.8616 246.18 46.3216 246.18C45.4716 246.18 44.8566 245.91 44.4766 245.37C44.0966 244.83 43.9066 244.09 43.9066 243.15V238.56H46.1116V242.865C46.1116 243.365 46.1866 243.73 46.3366 243.96C46.4866 244.19 46.7716 244.305 47.1916 244.305C47.4716 244.305 47.7166 244.245 47.9266 244.125C48.1466 244.005 48.3866 243.78 48.6466 243.45V238.56H50.8516V246ZM54.5807 240.285H52.7057V238.65L54.6857 238.56L54.9707 236.58H56.7857V238.56H59.9357V240.285H56.7857V242.895C56.7857 243.465 56.9107 243.87 57.1607 244.11C57.4107 244.34 57.8057 244.455 58.3457 244.455C58.6357 244.455 58.9007 244.43 59.1407 244.38C59.3807 244.33 59.6107 244.265 59.8307 244.185L60.2207 245.775C59.8907 245.875 59.5207 245.965 59.1107 246.045C58.7107 246.135 58.2707 246.18 57.7907 246.18C57.2007 246.18 56.7007 246.1 56.2907 245.94C55.8807 245.78 55.5457 245.56 55.2857 245.28C55.0357 244.99 54.8557 244.645 54.7457 244.245C54.6357 243.845 54.5807 243.4 54.5807 242.91V240.285Z" fill="white"/>
<rect x="79" width="199" height="31" fill="#333333"/>
<rect x="79" width="199" height="31" fill="#333333"/>
<rect x="0.0107117" width="79" height="31" fill="#090808"/>
<path d="M12.1157 17.8101C12.1157 17.5513 11.9863 17.3486 11.7275 17.2021C11.4736 17.0508 11.0634 16.9165 10.497 16.7993C8.61227 16.4038 7.66989 15.603 7.66989 14.397C7.66989 13.6938 7.96042 13.1079 8.54147 12.6392C9.12741 12.1655 9.89157 11.9287 10.834 11.9287C11.8398 11.9287 12.643 12.1655 13.2436 12.6392C13.8491 13.1128 14.1518 13.728 14.1518 14.4849H12.0351C12.0351 14.1821 11.9375 13.9331 11.7422 13.7378C11.5468 13.5376 11.2417 13.4375 10.8266 13.4375C10.4702 13.4375 10.1943 13.5181 9.99899 13.6792C9.80368 13.8403 9.70602 14.0454 9.70602 14.2944C9.70602 14.5288 9.81589 14.7192 10.0356 14.8657C10.2602 15.0073 10.6362 15.1318 11.1635 15.2393C11.6909 15.3418 12.1352 15.459 12.4966 15.5908C13.6147 16.001 14.1738 16.7114 14.1738 17.7222C14.1738 18.4448 13.8637 19.0308 13.2436 19.48C12.6235 19.9243 11.8227 20.1465 10.8413 20.1465C10.1772 20.1465 9.5864 20.0293 9.06882 19.7949C8.55612 19.5557 8.15329 19.231 7.86032 18.8208C7.56735 18.4058 7.42087 17.959 7.42087 17.4805H9.4277C9.44724 17.8564 9.5864 18.1445 9.84518 18.3447C10.104 18.5449 10.4507 18.645 10.8852 18.645C11.2905 18.645 11.5957 18.5693 11.8008 18.418C12.0107 18.2617 12.1157 18.0591 12.1157 17.8101ZM18.8393 18.4399C19.2299 18.4399 19.5473 18.3325 19.7915 18.1177C20.0356 17.9028 20.1626 17.6172 20.1723 17.2607H22.1572C22.1523 17.7979 22.0058 18.291 21.7177 18.7402C21.4297 19.1846 21.0341 19.5312 20.5312 19.7803C20.0332 20.0244 19.4814 20.1465 18.8759 20.1465C17.7431 20.1465 16.8496 19.7876 16.1953 19.0698C15.541 18.3472 15.2138 17.3511 15.2138 16.0815V15.9424C15.2138 14.7217 15.5385 13.7476 16.188 13.02C16.8374 12.2925 17.7285 11.9287 18.8613 11.9287C19.8525 11.9287 20.646 12.2119 21.2417 12.7783C21.8423 13.3398 22.1474 14.0894 22.1572 15.0269H20.1723C20.1626 14.6167 20.0356 14.2847 19.7915 14.0308C19.5473 13.772 19.2251 13.6426 18.8247 13.6426C18.3315 13.6426 17.958 13.8232 17.7041 14.1846C17.455 14.541 17.3305 15.1221 17.3305 15.9277V16.1475C17.3305 16.9629 17.455 17.5488 17.7041 17.9053C17.9531 18.2617 18.3315 18.4399 18.8393 18.4399ZM27.8188 14.0601C27.5307 14.021 27.2768 14.0015 27.0571 14.0015C26.2563 14.0015 25.7314 14.2725 25.4824 14.8145V20H23.3657V12.0752H25.3652L25.4238 13.02C25.8486 12.2925 26.437 11.9287 27.1889 11.9287C27.4233 11.9287 27.643 11.9604 27.8481 12.0239L27.8188 14.0601ZM31.0781 20H28.9541V12.0752H31.0781V20ZM28.8296 10.0244C28.8296 9.70703 28.9345 9.4458 29.1445 9.24072C29.3593 9.03564 29.6499 8.93311 30.0161 8.93311C30.3774 8.93311 30.6655 9.03564 30.8803 9.24072C31.0952 9.4458 31.2026 9.70703 31.2026 10.0244C31.2026 10.3467 31.0927 10.6104 30.873 10.8154C30.6582 11.0205 30.3725 11.123 30.0161 11.123C29.6596 11.123 29.3716 11.0205 29.1518 10.8154C28.937 10.6104 28.8296 10.3467 28.8296 10.0244ZM39.9624 16.1108C39.9624 17.3315 39.6841 18.3105 39.1274 19.0479C38.5757 19.7803 37.8286 20.1465 36.8862 20.1465C36.0854 20.1465 35.4384 19.8682 34.9453 19.3115V23.0469H32.8286V12.0752H34.7915L34.8647 12.8516C35.3774 12.2363 36.0464 11.9287 36.8716 11.9287C37.8481 11.9287 38.6074 12.29 39.1494 13.0127C39.6914 13.7354 39.9624 14.7314 39.9624 16.001V16.1108ZM37.8457 15.957C37.8457 15.2197 37.7138 14.6509 37.4502 14.2505C37.1914 13.8501 36.813 13.6499 36.3149 13.6499C35.6508 13.6499 35.1943 13.9038 34.9453 14.4116V17.6562C35.2041 18.1787 35.6655 18.4399 36.3296 18.4399C37.3403 18.4399 37.8457 17.6123 37.8457 15.957ZM43.8149 10.127V12.0752H45.1699V13.6279H43.8149V17.583C43.8149 17.876 43.8711 18.0859 43.9834 18.2129C44.0957 18.3398 44.3105 18.4033 44.6279 18.4033C44.8623 18.4033 45.0698 18.3862 45.2505 18.3521V19.9561C44.8354 20.083 44.4082 20.1465 43.9687 20.1465C42.4843 20.1465 41.7275 19.397 41.6982 17.8979V13.6279H40.541V12.0752H41.6982V10.127H43.8149ZM46.459 18.96C46.459 18.623 46.5713 18.3496 46.7959 18.1396C47.0254 17.9297 47.311 17.8247 47.6528 17.8247C47.9995 17.8247 48.2851 17.9297 48.5097 18.1396C48.7392 18.3496 48.854 18.623 48.854 18.96C48.854 19.292 48.7417 19.563 48.5171 19.7729C48.2924 19.978 48.0044 20.0806 47.6528 20.0806C47.3061 20.0806 47.0205 19.978 46.7959 19.7729C46.5713 19.563 46.459 19.292 46.459 18.96ZM57.8481 16.1108C57.8481 17.3315 57.5698 18.3105 57.0132 19.0479C56.4614 19.7803 55.7143 20.1465 54.7719 20.1465C53.9712 20.1465 53.3242 19.8682 52.831 19.3115V23.0469H50.7143V12.0752H52.6772L52.7505 12.8516C53.2632 12.2363 53.9321 11.9287 54.7573 11.9287C55.7339 11.9287 56.4931 12.29 57.0351 13.0127C57.5771 13.7354 57.8481 14.7314 57.8481 16.001V16.1108ZM55.7314 15.957C55.7314 15.2197 55.5996 14.6509 55.3359 14.2505C55.0771 13.8501 54.6987 13.6499 54.2007 13.6499C53.5366 13.6499 53.08 13.9038 52.831 14.4116V17.6562C53.0898 18.1787 53.5512 18.4399 54.2153 18.4399C55.226 18.4399 55.7314 17.6123 55.7314 15.957ZM62.0376 17.0044L63.5024 12.0752H65.7729L62.5869 21.2305L62.4111 21.6479C61.9375 22.6831 61.1562 23.2007 60.0674 23.2007C59.7597 23.2007 59.4472 23.1543 59.1299 23.0615V21.4575L59.4521 21.4648C59.8525 21.4648 60.1504 21.4038 60.3457 21.2817C60.5459 21.1597 60.7021 20.957 60.8144 20.6738L61.0634 20.022L58.2876 12.0752H60.5654L62.0376 17.0044Z" fill="white"/>
<line y1="225.5" x2="278" y2="225.5" stroke="white"/>
<path d="M8.19571 43.56H13.3857V51H11.1807V45.285H8.19571V43.56ZM12.1857 42.465C11.7557 42.465 11.4007 42.345 11.1207 42.105C10.8507 41.865 10.7157 41.54 10.7157 41.13C10.7157 40.72 10.8507 40.39 11.1207 40.14C11.4007 39.88 11.7557 39.75 12.1857 39.75C12.6157 39.75 12.9657 39.88 13.2357 40.14C13.5157 40.39 13.6557 40.72 13.6557 41.13C13.6557 41.54 13.5157 41.865 13.2357 42.105C12.9657 42.345 12.6157 42.465 12.1857 42.465ZM24.3599 42.33C23.8699 42.14 23.3499 42.045 22.7999 42.045C22.3199 42.045 21.9649 42.15 21.7349 42.36C21.5149 42.57 21.4049 42.9 21.4049 43.35V43.56H23.9699V45.285H21.4049V51H19.1999V45.285H17.2349V43.65L19.1999 43.56V43.365C19.1999 42.935 19.2649 42.535 19.3949 42.165C19.5249 41.795 19.7249 41.475 19.9949 41.205C20.2649 40.925 20.6099 40.705 21.0299 40.545C21.4499 40.385 21.9499 40.305 22.5299 40.305C22.9599 40.305 23.3599 40.345 23.7299 40.425C24.1099 40.505 24.4599 40.6 24.7799 40.71L24.3599 42.33ZM37.3831 43.08H34.4581V41.22H42.5281V43.08H39.6031V51H37.3831V43.08ZM44.7273 43.56H46.5273L46.7073 45.18H46.7523C47.1223 44.57 47.5673 44.12 48.0873 43.83C48.6073 43.53 49.1673 43.38 49.7673 43.38C50.0973 43.38 50.3623 43.405 50.5623 43.455C50.7723 43.505 50.9873 43.58 51.2073 43.68L50.7573 45.525C50.5273 45.455 50.3173 45.405 50.1273 45.375C49.9473 45.335 49.7173 45.315 49.4373 45.315C48.9773 45.315 48.5223 45.45 48.0723 45.72C47.6323 45.99 47.2523 46.46 46.9323 47.13V51H44.7273V43.56ZM59.8564 51H58.0564L57.8914 49.935H57.8314C57.5014 50.315 57.1364 50.62 56.7364 50.85C56.3364 51.07 55.8664 51.18 55.3264 51.18C54.4764 51.18 53.8614 50.91 53.4814 50.37C53.1014 49.83 52.9114 49.09 52.9114 48.15V43.56H55.1164V47.865C55.1164 48.365 55.1914 48.73 55.3414 48.96C55.4914 49.19 55.7764 49.305 56.1964 49.305C56.4764 49.305 56.7214 49.245 56.9314 49.125C57.1514 49.005 57.3914 48.78 57.6514 48.45V43.56H59.8564V51ZM61.8006 47.28C61.8006 46.67 61.9056 46.125 62.1156 45.645C62.3356 45.165 62.6256 44.76 62.9856 44.43C63.3456 44.09 63.7556 43.83 64.2156 43.65C64.6856 43.47 65.1706 43.38 65.6706 43.38C66.2406 43.38 66.7456 43.47 67.1856 43.65C67.6256 43.83 67.9906 44.08 68.2806 44.4C68.5706 44.72 68.7906 45.1 68.9406 45.54C69.0906 45.97 69.1656 46.44 69.1656 46.95C69.1656 47.15 69.1556 47.34 69.1356 47.52C69.1156 47.7 69.0956 47.835 69.0756 47.925H64.0656C64.1456 48.485 64.3856 48.89 64.7856 49.14C65.1956 49.38 65.6756 49.5 66.2256 49.5C66.5656 49.5 66.8856 49.46 67.1856 49.38C67.4956 49.29 67.8156 49.16 68.1456 48.99L68.8656 50.31C68.4456 50.58 67.9756 50.795 67.4556 50.955C66.9356 51.105 66.4256 51.18 65.9256 51.18C65.3456 51.18 64.8056 51.095 64.3056 50.925C63.8056 50.745 63.3706 50.49 63.0006 50.16C62.6306 49.82 62.3356 49.41 62.1156 48.93C61.9056 48.45 61.8006 47.9 61.8006 47.28ZM67.1706 46.47C67.1706 46.05 67.0556 45.71 66.8256 45.45C66.5956 45.19 66.2256 45.06 65.7156 45.06C65.3156 45.06 64.9606 45.175 64.6506 45.405C64.3406 45.635 64.1356 45.99 64.0356 46.47H67.1706ZM72.7297 44.58C72.7297 44.33 72.7697 44.1 72.8497 43.89C72.9397 43.67 73.0597 43.48 73.2097 43.32C73.3597 43.16 73.5397 43.035 73.7497 42.945C73.9697 42.855 74.2097 42.81 74.4697 42.81C74.7297 42.81 74.9647 42.855 75.1747 42.945C75.3947 43.035 75.5797 43.16 75.7297 43.32C75.8797 43.48 75.9947 43.67 76.0747 43.89C76.1647 44.1 76.2097 44.33 76.2097 44.58C76.2097 45.08 76.0497 45.5 75.7297 45.84C75.4097 46.17 74.9897 46.335 74.4697 46.335C73.9497 46.335 73.5297 46.17 73.2097 45.84C72.8897 45.5 72.7297 45.08 72.7297 44.58ZM72.7297 49.425C72.7297 49.175 72.7697 48.945 72.8497 48.735C72.9397 48.515 73.0597 48.325 73.2097 48.165C73.3597 48.005 73.5397 47.88 73.7497 47.79C73.9697 47.7 74.2097 47.655 74.4697 47.655C74.7297 47.655 74.9647 47.7 75.1747 47.79C75.3947 47.88 75.5797 48.005 75.7297 48.165C75.8797 48.325 75.9947 48.515 76.0747 48.735C76.1647 48.945 76.2097 49.175 76.2097 49.425C76.2097 49.925 76.0497 50.345 75.7297 50.685C75.4097 51.015 74.9897 51.18 74.4697 51.18C73.9497 51.18 73.5297 51.015 73.2097 50.685C72.8897 50.345 72.7297 49.925 72.7297 49.425ZM8.19571 137.56H13.3857V145H11.1807V139.285H8.19571V137.56ZM12.1857 136.465C11.7557 136.465 11.4007 136.345 11.1207 136.105C10.8507 135.865 10.7157 135.54 10.7157 135.13C10.7157 134.72 10.8507 134.39 11.1207 134.14C11.4007 133.88 11.7557 133.75 12.1857 133.75C12.6157 133.75 12.9657 133.88 13.2357 134.14C13.5157 134.39 13.6557 134.72 13.6557 135.13C13.6557 135.54 13.5157 135.865 13.2357 136.105C12.9657 136.345 12.6157 136.465 12.1857 136.465ZM24.3599 136.33C23.8699 136.14 23.3499 136.045 22.7999 136.045C22.3199 136.045 21.9649 136.15 21.7349 136.36C21.5149 136.57 21.4049 136.9 21.4049 137.35V137.56H23.9699V139.285H21.4049V145H19.1999V139.285H17.2349V137.65L19.1999 137.56V137.365C19.1999 136.935 19.2649 136.535 19.3949 136.165C19.5249 135.795 19.7249 135.475 19.9949 135.205C20.2649 134.925 20.6099 134.705 21.0299 134.545C21.4499 134.385 21.9499 134.305 22.5299 134.305C22.9599 134.305 23.3599 134.345 23.7299 134.425C24.1099 134.505 24.4599 134.6 24.7799 134.71L24.3599 136.33ZM35.6131 135.22H42.0631V137.08H37.8181V139.345H41.4331V141.205H37.8181V145H35.6131V135.22ZM43.9023 142.93C43.9023 142.51 43.9923 142.145 44.1723 141.835C44.3523 141.515 44.6373 141.245 45.0273 141.025C45.4273 140.805 45.9373 140.63 46.5573 140.5C47.1773 140.36 47.9273 140.265 48.8073 140.215C48.7673 139.875 48.6173 139.61 48.3573 139.42C48.1073 139.23 47.7273 139.135 47.2173 139.135C46.8573 139.135 46.4923 139.2 46.1223 139.33C45.7623 139.45 45.3723 139.615 44.9523 139.825L44.1723 138.385C44.6823 138.095 45.2273 137.855 45.8073 137.665C46.3973 137.475 47.0123 137.38 47.6523 137.38C48.6923 137.38 49.5123 137.655 50.1123 138.205C50.7123 138.755 51.0123 139.6 51.0123 140.74V145H49.2123L49.0473 144.16H48.9873C48.6073 144.45 48.1923 144.695 47.7423 144.895C47.2923 145.085 46.8273 145.18 46.3473 145.18C45.9673 145.18 45.6273 145.12 45.3273 145C45.0273 144.89 44.7723 144.735 44.5623 144.535C44.3523 144.325 44.1873 144.085 44.0673 143.815C43.9573 143.545 43.9023 143.25 43.9023 142.93ZM46.0173 142.765C46.0173 143.005 46.1073 143.185 46.2873 143.305C46.4773 143.415 46.7323 143.47 47.0523 143.47C47.3823 143.47 47.6923 143.405 47.9823 143.275C48.2723 143.135 48.5473 142.965 48.8073 142.765V141.535C48.2573 141.565 47.8023 141.615 47.4423 141.685C47.0823 141.755 46.7973 141.845 46.5873 141.955C46.3773 142.055 46.2273 142.175 46.1373 142.315C46.0573 142.455 46.0173 142.605 46.0173 142.765ZM52.9114 134.485H57.2764V142.18C57.2764 142.41 57.3064 142.605 57.3664 142.765C57.4364 142.915 57.5264 143.04 57.6364 143.14C57.7564 143.23 57.8864 143.295 58.0264 143.335C58.1764 143.375 58.3264 143.395 58.4764 143.395C58.6464 143.395 58.8264 143.38 59.0164 143.35C59.2064 143.31 59.4164 143.245 59.6464 143.155L60.1414 144.775C59.9414 144.835 59.7564 144.89 59.5864 144.94C59.4164 144.99 59.2464 145.03 59.0764 145.06C58.9064 145.1 58.7264 145.13 58.5364 145.15C58.3464 145.17 58.1364 145.18 57.9064 145.18C56.9664 145.18 56.2564 144.905 55.7764 144.355C55.3064 143.795 55.0714 143.04 55.0714 142.09V136.225H52.9114V134.485ZM62.7606 142.66C63.1906 142.93 63.6206 143.145 64.0506 143.305C64.4906 143.465 64.9606 143.545 65.4606 143.545C65.9706 143.545 66.3356 143.49 66.5556 143.38C66.7756 143.27 66.8856 143.115 66.8856 142.915C66.8856 142.685 66.7006 142.5 66.3306 142.36C65.9706 142.21 65.4906 142.05 64.8906 141.88C64.5606 141.79 64.2356 141.685 63.9156 141.565C63.6056 141.435 63.3256 141.285 63.0756 141.115C62.8256 140.935 62.6206 140.73 62.4606 140.5C62.3106 140.27 62.2356 140.005 62.2356 139.705C62.2356 139.365 62.3156 139.05 62.4756 138.76C62.6356 138.47 62.8606 138.225 63.1506 138.025C63.4506 137.825 63.8106 137.67 64.2306 137.56C64.6606 137.44 65.1406 137.38 65.6706 137.38C66.3306 137.38 66.9306 137.49 67.4706 137.71C68.0206 137.92 68.4906 138.15 68.8806 138.4L67.8906 139.72C67.5506 139.52 67.2006 139.355 66.8406 139.225C66.4806 139.085 66.1056 139.015 65.7156 139.015C65.2456 139.015 64.9106 139.065 64.7106 139.165C64.5206 139.265 64.4256 139.41 64.4256 139.6C64.4256 139.71 64.4756 139.81 64.5756 139.9C64.6756 139.99 64.8106 140.07 64.9806 140.14C65.1506 140.21 65.3506 140.28 65.5806 140.35C65.8206 140.41 66.0706 140.475 66.3306 140.545C66.7006 140.645 67.0506 140.76 67.3806 140.89C67.7106 141.01 68.0006 141.155 68.2506 141.325C68.5006 141.495 68.7006 141.7 68.8506 141.94C69.0006 142.18 69.0756 142.46 69.0756 142.78C69.0756 143.12 68.9956 143.435 68.8356 143.725C68.6756 144.015 68.4406 144.27 68.1306 144.49C67.8306 144.7 67.4506 144.87 66.9906 145C66.5406 145.12 66.0156 145.18 65.4156 145.18C64.7456 145.18 64.0906 145.07 63.4506 144.85C62.8106 144.63 62.2506 144.36 61.7706 144.04L62.7606 142.66ZM70.7947 141.28C70.7947 140.67 70.8997 140.125 71.1097 139.645C71.3297 139.165 71.6197 138.76 71.9797 138.43C72.3397 138.09 72.7497 137.83 73.2097 137.65C73.6797 137.47 74.1647 137.38 74.6647 137.38C75.2347 137.38 75.7397 137.47 76.1797 137.65C76.6197 137.83 76.9847 138.08 77.2747 138.4C77.5647 138.72 77.7847 139.1 77.9347 139.54C78.0847 139.97 78.1597 140.44 78.1597 140.95C78.1597 141.15 78.1497 141.34 78.1297 141.52C78.1097 141.7 78.0897 141.835 78.0697 141.925H73.0597C73.1397 142.485 73.3797 142.89 73.7797 143.14C74.1897 143.38 74.6697 143.5 75.2197 143.5C75.5597 143.5 75.8797 143.46 76.1797 143.38C76.4897 143.29 76.8097 143.16 77.1397 142.99L77.8597 144.31C77.4397 144.58 76.9697 144.795 76.4497 144.955C75.9297 145.105 75.4197 145.18 74.9197 145.18C74.3397 145.18 73.7997 145.095 73.2997 144.925C72.7997 144.745 72.3647 144.49 71.9947 144.16C71.6247 143.82 71.3297 143.41 71.1097 142.93C70.8997 142.45 70.7947 141.9 70.7947 141.28ZM76.1647 140.47C76.1647 140.05 76.0497 139.71 75.8197 139.45C75.5897 139.19 75.2197 139.06 74.7097 139.06C74.3097 139.06 73.9547 139.175 73.6447 139.405C73.3347 139.635 73.1297 139.99 73.0297 140.47H76.1647ZM81.7238 138.58C81.7238 138.33 81.7638 138.1 81.8438 137.89C81.9338 137.67 82.0538 137.48 82.2038 137.32C82.3538 137.16 82.5338 137.035 82.7438 136.945C82.9638 136.855 83.2038 136.81 83.4638 136.81C83.7238 136.81 83.9588 136.855 84.1688 136.945C84.3888 137.035 84.5738 137.16 84.7238 137.32C84.8738 137.48 84.9888 137.67 85.0688 137.89C85.1588 138.1 85.2038 138.33 85.2038 138.58C85.2038 139.08 85.0438 139.5 84.7238 139.84C84.4038 140.17 83.9838 140.335 83.4638 140.335C82.9438 140.335 82.5238 140.17 82.2038 139.84C81.8838 139.5 81.7238 139.08 81.7238 138.58ZM81.7238 143.425C81.7238 143.175 81.7638 142.945 81.8438 142.735C81.9338 142.515 82.0538 142.325 82.2038 142.165C82.3538 142.005 82.5338 141.88 82.7438 141.79C82.9638 141.7 83.2038 141.655 83.4638 141.655C83.7238 141.655 83.9588 141.7 84.1688 141.79C84.3888 141.88 84.5738 142.005 84.7238 142.165C84.8738 142.325 84.9888 142.515 85.0688 142.735C85.1588 142.945 85.2038 143.175 85.2038 143.425C85.2038 143.925 85.0438 144.345 84.7238 144.685C84.4038 145.015 83.9838 145.18 83.4638 145.18C82.9438 145.18 82.5238 145.015 82.2038 144.685C81.8838 144.345 81.7238 143.925 81.7238 143.425Z" fill="#E69F00"/>
<path d="M46.2723 70.585V72.76H44.0673V62.56H45.8673L46.0323 63.31H46.0773C46.3773 63.04 46.7223 62.82 47.1123 62.65C47.5023 62.47 47.8973 62.38 48.2973 62.38C48.7573 62.38 49.1723 62.47 49.5423 62.65C49.9123 62.83 50.2273 63.085 50.4873 63.415C50.7473 63.745 50.9423 64.145 51.0723 64.615C51.2123 65.075 51.2823 65.59 51.2823 66.16C51.2823 66.8 51.1923 67.37 51.0123 67.87C50.8323 68.36 50.5923 68.78 50.2923 69.13C49.9923 69.47 49.6473 69.73 49.2573 69.91C48.8773 70.09 48.4773 70.18 48.0573 70.18C47.3773 70.18 46.7573 69.91 46.1973 69.37L46.2723 70.585ZM46.2723 67.885C46.4823 68.065 46.6973 68.195 46.9173 68.275C47.1473 68.345 47.3573 68.38 47.5473 68.38C47.9673 68.38 48.3173 68.21 48.5973 67.87C48.8773 67.52 49.0173 66.96 49.0173 66.19C49.0173 64.85 48.5623 64.18 47.6523 64.18C47.1823 64.18 46.7223 64.41 46.2723 64.87V67.885ZM53.7214 62.56H55.5214L55.7014 64.18H55.7464C56.1164 63.57 56.5614 63.12 57.0814 62.83C57.6014 62.53 58.1614 62.38 58.7614 62.38C59.0914 62.38 59.3564 62.405 59.5564 62.455C59.7664 62.505 59.9814 62.58 60.2014 62.68L59.7514 64.525C59.5214 64.455 59.3114 64.405 59.1214 64.375C58.9414 64.335 58.7114 64.315 58.4314 64.315C57.9714 64.315 57.5164 64.45 57.0664 64.72C56.6264 64.99 56.2464 65.46 55.9264 66.13V70H53.7214V62.56ZM62.1606 62.56H67.3506V70H65.1456V64.285H62.1606V62.56ZM66.1506 61.465C65.7206 61.465 65.3656 61.345 65.0856 61.105C64.8156 60.865 64.6806 60.54 64.6806 60.13C64.6806 59.72 64.8156 59.39 65.0856 59.14C65.3656 58.88 65.7206 58.75 66.1506 58.75C66.5806 58.75 66.9306 58.88 67.2006 59.14C67.4806 59.39 67.6206 59.72 67.6206 60.13C67.6206 60.54 67.4806 60.865 67.2006 61.105C66.9306 61.345 66.5806 61.465 66.1506 61.465ZM71.0497 62.56H72.8497L73.0147 63.55H73.0747C73.3947 63.23 73.7597 62.955 74.1697 62.725C74.5897 62.495 75.0797 62.38 75.6397 62.38C76.4797 62.38 77.0947 62.65 77.4847 63.19C77.8747 63.73 78.0697 64.47 78.0697 65.41V70H75.8647V65.695C75.8647 65.195 75.7847 64.83 75.6247 64.6C75.4647 64.37 75.1797 64.255 74.7697 64.255C74.4697 64.255 74.2047 64.32 73.9747 64.45C73.7547 64.58 73.5147 64.775 73.2547 65.035V70H71.0497V62.56ZM81.5738 64.285H79.6988V62.65L81.6788 62.56L81.9638 60.58H83.7788V62.56H86.9288V64.285H83.7788V66.895C83.7788 67.465 83.9038 67.87 84.1538 68.11C84.4038 68.34 84.7988 68.455 85.3388 68.455C85.6288 68.455 85.8938 68.43 86.1338 68.38C86.3738 68.33 86.6038 68.265 86.8238 68.185L87.2138 69.775C86.8838 69.875 86.5138 69.965 86.1038 70.045C85.7038 70.135 85.2638 70.18 84.7838 70.18C84.1938 70.18 83.6938 70.1 83.2838 69.94C82.8738 69.78 82.5388 69.56 82.2788 69.28C82.0288 68.99 81.8488 68.645 81.7388 68.245C81.6288 67.845 81.5738 67.4 81.5738 66.91V64.285ZM46.2723 88.585V90.76H44.0673V80.56H45.8673L46.0323 81.31H46.0773C46.3773 81.04 46.7223 80.82 47.1123 80.65C47.5023 80.47 47.8973 80.38 48.2973 80.38C48.7573 80.38 49.1723 80.47 49.5423 80.65C49.9123 80.83 50.2273 81.085 50.4873 81.415C50.7473 81.745 50.9423 82.145 51.0723 82.615C51.2123 83.075 51.2823 83.59 51.2823 84.16C51.2823 84.8 51.1923 85.37 51.0123 85.87C50.8323 86.36 50.5923 86.78 50.2923 87.13C49.9923 87.47 49.6473 87.73 49.2573 87.91C48.8773 88.09 48.4773 88.18 48.0573 88.18C47.3773 88.18 46.7573 87.91 46.1973 87.37L46.2723 88.585ZM46.2723 85.885C46.4823 86.065 46.6973 86.195 46.9173 86.275C47.1473 86.345 47.3573 86.38 47.5473 86.38C47.9673 86.38 48.3173 86.21 48.5973 85.87C48.8773 85.52 49.0173 84.96 49.0173 84.19C49.0173 82.85 48.5623 82.18 47.6523 82.18C47.1823 82.18 46.7223 82.41 46.2723 82.87V85.885ZM53.7214 80.56H55.5214L55.7014 82.18H55.7464C56.1164 81.57 56.5614 81.12 57.0814 80.83C57.6014 80.53 58.1614 80.38 58.7614 80.38C59.0914 80.38 59.3564 80.405 59.5564 80.455C59.7664 80.505 59.9814 80.58 60.2014 80.68L59.7514 82.525C59.5214 82.455 59.3114 82.405 59.1214 82.375C58.9414 82.335 58.7114 82.315 58.4314 82.315C57.9714 82.315 57.5164 82.45 57.0664 82.72C56.6264 82.99 56.2464 83.46 55.9264 84.13V88H53.7214V80.56ZM62.1606 80.56H67.3506V88H65.1456V82.285H62.1606V80.56ZM66.1506 79.465C65.7206 79.465 65.3656 79.345 65.0856 79.105C64.8156 78.865 64.6806 78.54 64.6806 78.13C64.6806 77.72 64.8156 77.39 65.0856 77.14C65.3656 76.88 65.7206 76.75 66.1506 76.75C66.5806 76.75 66.9306 76.88 67.2006 77.14C67.4806 77.39 67.6206 77.72 67.6206 78.13C67.6206 78.54 67.4806 78.865 67.2006 79.105C66.9306 79.345 66.5806 79.465 66.1506 79.465ZM71.0497 80.56H72.8497L73.0147 81.55H73.0747C73.3947 81.23 73.7597 80.955 74.1697 80.725C74.5897 80.495 75.0797 80.38 75.6397 80.38C76.4797 80.38 77.0947 80.65 77.4847 81.19C77.8747 81.73 78.0697 82.47 78.0697 83.41V88H75.8647V83.695C75.8647 83.195 75.7847 82.83 75.6247 82.6C75.4647 82.37 75.1797 82.255 74.7697 82.255C74.4697 82.255 74.2047 82.32 73.9747 82.45C73.7547 82.58 73.5147 82.775 73.2547 83.035V88H71.0497V80.56ZM81.5738 82.285H79.6988V80.65L81.6788 80.56L81.9638 78.58H83.7788V80.56H86.9288V82.285H83.7788V84.895C83.7788 85.465 83.9038 85.87 84.1538 86.11C84.4038 86.34 84.7988 86.455 85.3388 86.455C85.6288 86.455 85.8938 86.43 86.1338 86.38C86.3738 86.33 86.6038 86.265 86.8238 86.185L87.2138 87.775C86.8838 87.875 86.5138 87.965 86.1038 88.045C85.7038 88.135 85.2638 88.18 84.7838 88.18C84.1938 88.18 83.6938 88.1 83.2838 87.94C82.8738 87.78 82.5388 87.56 82.2788 87.28C82.0288 86.99 81.8488 86.645 81.7388 86.245C81.6288 85.845 81.5738 85.4 81.5738 84.91V82.285ZM46.2723 107.585V109.76H44.0673V99.56H45.8673L46.0323 100.31H46.0773C46.3773 100.04 46.7223 99.82 47.1123 99.65C47.5023 99.47 47.8973 99.38 48.2973 99.38C48.7573 99.38 49.1723 99.47 49.5423 99.65C49.9123 99.83 50.2273 100.085 50.4873 100.415C50.7473 100.745 50.9423 101.145 51.0723 101.615C51.2123 102.075 51.2823 102.59 51.2823 103.16C51.2823 103.8 51.1923 104.37 51.0123 104.87C50.8323 105.36 50.5923 105.78 50.2923 106.13C49.9923 106.47 49.6473 106.73 49.2573 106.91C48.8773 107.09 48.4773 107.18 48.0573 107.18C47.3773 107.18 46.7573 106.91 46.1973 106.37L46.2723 107.585ZM46.2723 104.885C46.4823 105.065 46.6973 105.195 46.9173 105.275C47.1473 105.345 47.3573 105.38 47.5473 105.38C47.9673 105.38 48.3173 105.21 48.5973 104.87C48.8773 104.52 49.0173 103.96 49.0173 103.19C49.0173 101.85 48.5623 101.18 47.6523 101.18C47.1823 101.18 46.7223 101.41 46.2723 101.87V104.885ZM53.7214 99.56H55.5214L55.7014 101.18H55.7464C56.1164 100.57 56.5614 100.12 57.0814 99.83C57.6014 99.53 58.1614 99.38 58.7614 99.38C59.0914 99.38 59.3564 99.405 59.5564 99.455C59.7664 99.505 59.9814 99.58 60.2014 99.68L59.7514 101.525C59.5214 101.455 59.3114 101.405 59.1214 101.375C58.9414 101.335 58.7114 101.315 58.4314 101.315C57.9714 101.315 57.5164 101.45 57.0664 101.72C56.6264 101.99 56.2464 102.46 55.9264 103.13V107H53.7214V99.56ZM62.1606 99.56H67.3506V107H65.1456V101.285H62.1606V99.56ZM66.1506 98.465C65.7206 98.465 65.3656 98.345 65.0856 98.105C64.8156 97.865 64.6806 97.54 64.6806 97.13C64.6806 96.72 64.8156 96.39 65.0856 96.14C65.3656 95.88 65.7206 95.75 66.1506 95.75C66.5806 95.75 66.9306 95.88 67.2006 96.14C67.4806 96.39 67.6206 96.72 67.6206 97.13C67.6206 97.54 67.4806 97.865 67.2006 98.105C66.9306 98.345 66.5806 98.465 66.1506 98.465ZM71.0497 99.56H72.8497L73.0147 100.55H73.0747C73.3947 100.23 73.7597 99.955 74.1697 99.725C74.5897 99.495 75.0797 99.38 75.6397 99.38C76.4797 99.38 77.0947 99.65 77.4847 100.19C77.8747 100.73 78.0697 101.47 78.0697 102.41V107H75.8647V102.695C75.8647 102.195 75.7847 101.83 75.6247 101.6C75.4647 101.37 75.1797 101.255 74.7697 101.255C74.4697 101.255 74.2047 101.32 73.9747 101.45C73.7547 101.58 73.5147 101.775 73.2547 102.035V107H71.0497V99.56ZM81.5738 101.285H79.6988V99.65L81.6788 99.56L81.9638 97.58H83.7788V99.56H86.9288V101.285H83.7788V103.895C83.7788 104.465 83.9038 104.87 84.1538 105.11C84.4038 105.34 84.7988 105.455 85.3388 105.455C85.6288 105.455 85.8938 105.43 86.1338 105.38C86.3738 105.33 86.6038 105.265 86.8238 105.185L87.2138 106.775C86.8838 106.875 86.5138 106.965 86.1038 107.045C85.7038 107.135 85.2638 107.18 84.7838 107.18C84.1938 107.18 83.6938 107.1 83.2838 106.94C82.8738 106.78 82.5388 106.56 82.2788 106.28C82.0288 105.99 81.8488 105.645 81.7388 105.245C81.6288 104.845 81.5738 104.4 81.5738 103.91V101.285ZM46.2723 164.585V166.76H44.0673V156.56H45.8673L46.0323 157.31H46.0773C46.3773 157.04 46.7223 156.82 47.1123 156.65C47.5023 156.47 47.8973 156.38 48.2973 156.38C48.7573 156.38 49.1723 156.47 49.5423 156.65C49.9123 156.83 50.2273 157.085 50.4873 157.415C50.7473 157.745 50.9423 158.145 51.0723 158.615C51.2123 159.075 51.2823 159.59 51.2823 160.16C51.2823 160.8 51.1923 161.37 51.0123 161.87C50.8323 162.36 50.5923 162.78 50.2923 163.13C49.9923 163.47 49.6473 163.73 49.2573 163.91C48.8773 164.09 48.4773 164.18 48.0573 164.18C47.3773 164.18 46.7573 163.91 46.1973 163.37L46.2723 164.585ZM46.2723 161.885C46.4823 162.065 46.6973 162.195 46.9173 162.275C47.1473 162.345 47.3573 162.38 47.5473 162.38C47.9673 162.38 48.3173 162.21 48.5973 161.87C48.8773 161.52 49.0173 160.96 49.0173 160.19C49.0173 158.85 48.5623 158.18 47.6523 158.18C47.1823 158.18 46.7223 158.41 46.2723 158.87V161.885ZM53.7214 156.56H55.5214L55.7014 158.18H55.7464C56.1164 157.57 56.5614 157.12 57.0814 156.83C57.6014 156.53 58.1614 156.38 58.7614 156.38C59.0914 156.38 59.3564 156.405 59.5564 156.455C59.7664 156.505 59.9814 156.58 60.2014 156.68L59.7514 158.525C59.5214 158.455 59.3114 158.405 59.1214 158.375C58.9414 158.335 58.7114 158.315 58.4314 158.315C57.9714 158.315 57.5164 158.45 57.0664 158.72C56.6264 158.99 56.2464 159.46 55.9264 160.13V164H53.7214V156.56ZM62.1606 156.56H67.3506V164H65.1456V158.285H62.1606V156.56ZM66.1506 155.465C65.7206 155.465 65.3656 155.345 65.0856 155.105C64.8156 154.865 64.6806 154.54 64.6806 154.13C64.6806 153.72 64.8156 153.39 65.0856 153.14C65.3656 152.88 65.7206 152.75 66.1506 152.75C66.5806 152.75 66.9306 152.88 67.2006 153.14C67.4806 153.39 67.6206 153.72 67.6206 154.13C67.6206 154.54 67.4806 154.865 67.2006 155.105C66.9306 155.345 66.5806 155.465 66.1506 155.465ZM71.0497 156.56H72.8497L73.0147 157.55H73.0747C73.3947 157.23 73.7597 156.955 74.1697 156.725C74.5897 156.495 75.0797 156.38 75.6397 156.38C76.4797 156.38 77.0947 156.65 77.4847 157.19C77.8747 157.73 78.0697 158.47 78.0697 159.41V164H75.8647V159.695C75.8647 159.195 75.7847 158.83 75.6247 158.6C75.4647 158.37 75.1797 158.255 74.7697 158.255C74.4697 158.255 74.2047 158.32 73.9747 158.45C73.7547 158.58 73.5147 158.775 73.2547 159.035V164H71.0497V156.56ZM81.5738 158.285H79.6988V156.65L81.6788 156.56L81.9638 154.58H83.7788V156.56H86.9288V158.285H83.7788V160.895C83.7788 161.465 83.9038 161.87 84.1538 162.11C84.4038 162.34 84.7988 162.455 85.3388 162.455C85.6288 162.455 85.8938 162.43 86.1338 162.38C86.3738 162.33 86.6038 162.265 86.8238 162.185L87.2138 163.775C86.8838 163.875 86.5138 163.965 86.1038 164.045C85.7038 164.135 85.2638 164.18 84.7838 164.18C84.1938 164.18 83.6938 164.1 83.2838 163.94C82.8738 163.78 82.5388 163.56 82.2788 163.28C82.0288 162.99 81.8488 162.645 81.7388 162.245C81.6288 161.845 81.5738 161.4 81.5738 160.91V158.285ZM46.2723 183.585V185.76H44.0673V175.56H45.8673L46.0323 176.31H46.0773C46.3773 176.04 46.7223 175.82 47.1123 175.65C47.5023 175.47 47.8973 175.38 48.2973 175.38C48.7573 175.38 49.1723 175.47 49.5423 175.65C49.9123 175.83 50.2273 176.085 50.4873 176.415C50.7473 176.745 50.9423 177.145 51.0723 177.615C51.2123 178.075 51.2823 178.59 51.2823 179.16C51.2823 179.8 51.1923 180.37 51.0123 180.87C50.8323 181.36 50.5923 181.78 50.2923 182.13C49.9923 182.47 49.6473 182.73 49.2573 182.91C48.8773 183.09 48.4773 183.18 48.0573 183.18C47.3773 183.18 46.7573 182.91 46.1973 182.37L46.2723 183.585ZM46.2723 180.885C46.4823 181.065 46.6973 181.195 46.9173 181.275C47.1473 181.345 47.3573 181.38 47.5473 181.38C47.9673 181.38 48.3173 181.21 48.5973 180.87C48.8773 180.52 49.0173 179.96 49.0173 179.19C49.0173 177.85 48.5623 177.18 47.6523 177.18C47.1823 177.18 46.7223 177.41 46.2723 177.87V180.885ZM53.7214 175.56H55.5214L55.7014 177.18H55.7464C56.1164 176.57 56.5614 176.12 57.0814 175.83C57.6014 175.53 58.1614 175.38 58.7614 175.38C59.0914 175.38 59.3564 175.405 59.5564 175.455C59.7664 175.505 59.9814 175.58 60.2014 175.68L59.7514 177.525C59.5214 177.455 59.3114 177.405 59.1214 177.375C58.9414 177.335 58.7114 177.315 58.4314 177.315C57.9714 177.315 57.5164 177.45 57.0664 177.72C56.6264 177.99 56.2464 178.46 55.9264 179.13V183H53.7214V175.56ZM62.1606 175.56H67.3506V183H65.1456V177.285H62.1606V175.56ZM66.1506 174.465C65.7206 174.465 65.3656 174.345 65.0856 174.105C64.8156 173.865 64.6806 173.54 64.6806 173.13C64.6806 172.72 64.8156 172.39 65.0856 172.14C65.3656 171.88 65.7206 171.75 66.1506 171.75C66.5806 171.75 66.9306 171.88 67.2006 172.14C67.4806 172.39 67.6206 172.72 67.6206 173.13C67.6206 173.54 67.4806 173.865 67.2006 174.105C66.9306 174.345 66.5806 174.465 66.1506 174.465ZM71.0497 175.56H72.8497L73.0147 176.55H73.0747C73.3947 176.23 73.7597 175.955 74.1697 175.725C74.5897 175.495 75.0797 175.38 75.6397 175.38C76.4797 175.38 77.0947 175.65 77.4847 176.19C77.8747 176.73 78.0697 177.47 78.0697 178.41V183H75.8647V178.695C75.8647 178.195 75.7847 177.83 75.6247 177.6C75.4647 177.37 75.1797 177.255 74.7697 177.255C74.4697 177.255 74.2047 177.32 73.9747 177.45C73.7547 177.58 73.5147 177.775 73.2547 178.035V183H71.0497V175.56ZM81.5738 177.285H79.6988V175.65L81.6788 175.56L81.9638 173.58H83.7788V175.56H86.9288V177.285H83.7788V179.895C83.7788 180.465 83.9038 180.87 84.1538 181.11C84.4038 181.34 84.7988 181.455 85.3388 181.455C85.6288 181.455 85.8938 181.43 86.1338 181.38C86.3738 181.33 86.6038 181.265 86.8238 181.185L87.2138 182.775C86.8838 182.875 86.5138 182.965 86.1038 183.045C85.7038 183.135 85.2638 183.18 84.7838 183.18C84.1938 183.18 83.6938 183.1 83.2838 182.94C82.8738 182.78 82.5388 182.56 82.2788 182.28C82.0288 181.99 81.8488 181.645 81.7388 181.245C81.6288 180.845 81.5738 180.4 81.5738 179.91V177.285ZM46.2723 202.585V204.76H44.0673V194.56H45.8673L46.0323 195.31H46.0773C46.3773 195.04 46.7223 194.82 47.1123 194.65C47.5023 194.47 47.8973 194.38 48.2973 194.38C48.7573 194.38 49.1723 194.47 49.5423 194.65C49.9123 194.83 50.2273 195.085 50.4873 195.415C50.7473 195.745 50.9423 196.145 51.0723 196.615C51.2123 197.075 51.2823 197.59 51.2823 198.16C51.2823 198.8 51.1923 199.37 51.0123 199.87C50.8323 200.36 50.5923 200.78 50.2923 201.13C49.9923 201.47 49.6473 201.73 49.2573 201.91C48.8773 202.09 48.4773 202.18 48.0573 202.18C47.3773 202.18 46.7573 201.91 46.1973 201.37L46.2723 202.585ZM46.2723 199.885C46.4823 200.065 46.6973 200.195 46.9173 200.275C47.1473 200.345 47.3573 200.38 47.5473 200.38C47.9673 200.38 48.3173 200.21 48.5973 199.87C48.8773 199.52 49.0173 198.96 49.0173 198.19C49.0173 196.85 48.5623 196.18 47.6523 196.18C47.1823 196.18 46.7223 196.41 46.2723 196.87V199.885ZM53.7214 194.56H55.5214L55.7014 196.18H55.7464C56.1164 195.57 56.5614 195.12 57.0814 194.83C57.6014 194.53 58.1614 194.38 58.7614 194.38C59.0914 194.38 59.3564 194.405 59.5564 194.455C59.7664 194.505 59.9814 194.58 60.2014 194.68L59.7514 196.525C59.5214 196.455 59.3114 196.405 59.1214 196.375C58.9414 196.335 58.7114 196.315 58.4314 196.315C57.9714 196.315 57.5164 196.45 57.0664 196.72C56.6264 196.99 56.2464 197.46 55.9264 198.13V202H53.7214V194.56ZM62.1606 194.56H67.3506V202H65.1456V196.285H62.1606V194.56ZM66.1506 193.465C65.7206 193.465 65.3656 193.345 65.0856 193.105C64.8156 192.865 64.6806 192.54 64.6806 192.13C64.6806 191.72 64.8156 191.39 65.0856 191.14C65.3656 190.88 65.7206 190.75 66.1506 190.75C66.5806 190.75 66.9306 190.88 67.2006 191.14C67.4806 191.39 67.6206 191.72 67.6206 192.13C67.6206 192.54 67.4806 192.865 67.2006 193.105C66.9306 193.345 66.5806 193.465 66.1506 193.465ZM71.0497 194.56H72.8497L73.0147 195.55H73.0747C73.3947 195.23 73.7597 194.955 74.1697 194.725C74.5897 194.495 75.0797 194.38 75.6397 194.38C76.4797 194.38 77.0947 194.65 77.4847 195.19C77.8747 195.73 78.0697 196.47 78.0697 197.41V202H75.8647V197.695C75.8647 197.195 75.7847 196.83 75.6247 196.6C75.4647 196.37 75.1797 196.255 74.7697 196.255C74.4697 196.255 74.2047 196.32 73.9747 196.45C73.7547 196.58 73.5147 196.775 73.2547 197.035V202H71.0497V194.56ZM81.5738 196.285H79.6988V194.65L81.6788 194.56L81.9638 192.58H83.7788V194.56H86.9288V196.285H83.7788V198.895C83.7788 199.465 83.9038 199.87 84.1538 200.11C84.4038 200.34 84.7988 200.455 85.3388 200.455C85.6288 200.455 85.8938 200.43 86.1338 200.38C86.3738 200.33 86.6038 200.265 86.8238 200.185L87.2138 201.775C86.8838 201.875 86.5138 201.965 86.1038 202.045C85.7038 202.135 85.2638 202.18 84.7838 202.18C84.1938 202.18 83.6938 202.1 83.2838 201.94C82.8738 201.78 82.5388 201.56 82.2788 201.28C82.0288 200.99 81.8488 200.645 81.7388 200.245C81.6288 199.845 81.5738 199.4 81.5738 198.91V196.285Z" fill="#56B4E9"/>
<path d="M93.838 72.685C92.858 71.815 92.083 70.81 91.513 69.67C90.953 68.53 90.673 67.25 90.673 65.83C90.673 64.41 90.953 63.13 91.513 61.99C92.083 60.85 92.858 59.845 93.838 58.975L95.068 59.95C94.178 60.82 93.528 61.725 93.118 62.665C92.718 63.595 92.518 64.65 92.518 65.83C92.518 66.42 92.568 66.98 92.668 67.51C92.768 68.03 92.918 68.53 93.118 69.01C93.328 69.49 93.593 69.95 93.913 70.39C94.233 70.84 94.618 71.28 95.068 71.71L93.838 72.685ZM107.836 71.71C108.286 71.28 108.671 70.84 108.991 70.39C109.311 69.95 109.571 69.49 109.771 69.01C109.981 68.53 110.136 68.03 110.236 67.51C110.336 66.98 110.386 66.42 110.386 65.83C110.386 64.65 110.181 63.595 109.771 62.665C109.371 61.725 108.726 60.82 107.836 59.95L109.066 58.975C110.046 59.845 110.816 60.85 111.376 61.99C111.946 63.13 112.231 64.41 112.231 65.83C112.231 67.25 111.946 68.53 111.376 69.67C110.816 70.81 110.046 71.815 109.066 72.685L107.836 71.71ZM93.838 90.685C92.858 89.815 92.083 88.81 91.513 87.67C90.953 86.53 90.673 85.25 90.673 83.83C90.673 82.41 90.953 81.13 91.513 79.99C92.083 78.85 92.858 77.845 93.838 76.975L95.068 77.95C94.178 78.82 93.528 79.725 93.118 80.665C92.718 81.595 92.518 82.65 92.518 83.83C92.518 84.42 92.568 84.98 92.668 85.51C92.768 86.03 92.918 86.53 93.118 87.01C93.328 87.49 93.593 87.95 93.913 88.39C94.233 88.84 94.618 89.28 95.068 89.71L93.838 90.685ZM107.836 89.71C108.286 89.28 108.671 88.84 108.991 88.39C109.311 87.95 109.571 87.49 109.771 87.01C109.981 86.53 110.136 86.03 110.236 85.51C110.336 84.98 110.386 84.42 110.386 83.83C110.386 82.65 110.181 81.595 109.771 80.665C109.371 79.725 108.726 78.82 107.836 77.95L109.066 76.975C110.046 77.845 110.816 78.85 111.376 79.99C111.946 81.13 112.231 82.41 112.231 83.83C112.231 85.25 111.946 86.53 111.376 87.67C110.816 88.81 110.046 89.815 109.066 90.685L107.836 89.71ZM93.838 109.685C92.858 108.815 92.083 107.81 91.513 106.67C90.953 105.53 90.673 104.25 90.673 102.83C90.673 101.41 90.953 100.13 91.513 98.99C92.083 97.85 92.858 96.845 93.838 95.975L95.068 96.95C94.178 97.82 93.528 98.725 93.118 99.665C92.718 100.595 92.518 101.65 92.518 102.83C92.518 103.42 92.568 103.98 92.668 104.51C92.768 105.03 92.918 105.53 93.118 106.01C93.328 106.49 93.593 106.95 93.913 107.39C94.233 107.84 94.618 108.28 95.068 108.71L93.838 109.685ZM107.836 108.71C108.286 108.28 108.671 107.84 108.991 107.39C109.311 106.95 109.571 106.49 109.771 106.01C109.981 105.53 110.136 105.03 110.236 104.51C110.336 103.98 110.386 103.42 110.386 102.83C110.386 101.65 110.181 100.595 109.771 99.665C109.371 98.725 108.726 97.82 107.836 96.95L109.066 95.975C110.046 96.845 110.816 97.85 111.376 98.99C111.946 100.13 112.231 101.41 112.231 102.83C112.231 104.25 111.946 105.53 111.376 106.67C110.816 107.81 110.046 108.815 109.066 109.685L107.836 108.71ZM93.838 166.685C92.858 165.815 92.083 164.81 91.513 163.67C90.953 162.53 90.673 161.25 90.673 159.83C90.673 158.41 90.953 157.13 91.513 155.99C92.083 154.85 92.858 153.845 93.838 152.975L95.068 153.95C94.178 154.82 93.528 155.725 93.118 156.665C92.718 157.595 92.518 158.65 92.518 159.83C92.518 160.42 92.568 160.98 92.668 161.51C92.768 162.03 92.918 162.53 93.118 163.01C93.328 163.49 93.593 163.95 93.913 164.39C94.233 164.84 94.618 165.28 95.068 165.71L93.838 166.685ZM125.825 165.71C126.275 165.28 126.66 164.84 126.98 164.39C127.3 163.95 127.56 163.49 127.76 163.01C127.97 162.53 128.125 162.03 128.225 161.51C128.325 160.98 128.375 160.42 128.375 159.83C128.375 158.65 128.17 157.595 127.76 156.665C127.36 155.725 126.715 154.82 125.825 153.95L127.055 152.975C128.035 153.845 128.805 154.85 129.365 155.99C129.935 157.13 130.22 158.41 130.22 159.83C130.22 161.25 129.935 162.53 129.365 163.67C128.805 164.81 128.035 165.815 127.055 166.685L125.825 165.71ZM93.838 185.685C92.858 184.815 92.083 183.81 91.513 182.67C90.953 181.53 90.673 180.25 90.673 178.83C90.673 177.41 90.953 176.13 91.513 174.99C92.083 173.85 92.858 172.845 93.838 171.975L95.068 172.95C94.178 173.82 93.528 174.725 93.118 175.665C92.718 176.595 92.518 177.65 92.518 178.83C92.518 179.42 92.568 179.98 92.668 180.51C92.768 181.03 92.918 181.53 93.118 182.01C93.328 182.49 93.593 182.95 93.913 183.39C94.233 183.84 94.618 184.28 95.068 184.71L93.838 185.685ZM125.825 184.71C126.275 184.28 126.66 183.84 126.98 183.39C127.3 182.95 127.56 182.49 127.76 182.01C127.97 181.53 128.125 181.03 128.225 180.51C128.325 179.98 128.375 179.42 128.375 178.83C128.375 177.65 128.17 176.595 127.76 175.665C127.36 174.725 126.715 173.82 125.825 172.95L127.055 171.975C128.035 172.845 128.805 173.85 129.365 174.99C129.935 176.13 130.22 177.41 130.22 178.83C130.22 180.25 129.935 181.53 129.365 182.67C128.805 183.81 128.035 184.815 127.055 185.685L125.825 184.71ZM93.838 204.685C92.858 203.815 92.083 202.81 91.513 201.67C90.953 200.53 90.673 199.25 90.673 197.83C90.673 196.41 90.953 195.13 91.513 193.99C92.083 192.85 92.858 191.845 93.838 190.975L95.068 191.95C94.178 192.82 93.528 193.725 93.118 194.665C92.718 195.595 92.518 196.65 92.518 197.83C92.518 198.42 92.568 198.98 92.668 199.51C92.768 200.03 92.918 200.53 93.118 201.01C93.328 201.49 93.593 201.95 93.913 202.39C94.233 202.84 94.618 203.28 95.068 203.71L93.838 204.685ZM125.825 203.71C126.275 203.28 126.66 202.84 126.98 202.39C127.3 201.95 127.56 201.49 127.76 201.01C127.97 200.53 128.125 200.03 128.225 199.51C128.325 198.98 128.375 198.42 128.375 197.83C128.375 196.65 128.17 195.595 127.76 194.665C127.36 193.725 126.715 192.82 125.825 191.95L127.055 190.975C128.035 191.845 128.805 192.85 129.365 193.99C129.935 195.13 130.22 196.41 130.22 197.83C130.22 199.25 129.935 200.53 129.365 201.67C128.805 202.81 128.035 203.815 127.055 204.685L125.825 203.71Z" fill="white"/>
<path d="M105.007 68.215V70H98.1821V68.215H100.642V62.71H98.6771V61.345C99.2371 61.245 99.7121 61.125 100.102 60.985C100.502 60.845 100.877 60.675 101.227 60.475H102.847V68.215H105.007ZM97.8221 86.74C98.5021 86.17 99.1221 85.64 99.6821 85.15C100.242 84.65 100.722 84.185 101.122 83.755C101.522 83.325 101.832 82.92 102.052 82.54C102.272 82.16 102.382 81.8 102.382 81.46C102.382 80.99 102.247 80.635 101.977 80.395C101.707 80.145 101.322 80.02 100.822 80.02C100.442 80.02 100.092 80.12 99.7721 80.32C99.4621 80.51 99.1721 80.735 98.9021 80.995L97.7171 79.81C97.9671 79.56 98.2121 79.34 98.4521 79.15C98.7021 78.96 98.9621 78.805 99.2321 78.685C99.5121 78.555 99.8021 78.46 100.102 78.4C100.412 78.33 100.752 78.295 101.122 78.295C101.622 78.295 102.077 78.37 102.487 78.52C102.897 78.66 103.247 78.865 103.537 79.135C103.837 79.395 104.067 79.71 104.227 80.08C104.397 80.45 104.482 80.865 104.482 81.325C104.482 81.725 104.387 82.135 104.197 82.555C104.007 82.965 103.747 83.38 103.417 83.8C103.097 84.21 102.727 84.625 102.307 85.045C101.887 85.455 101.447 85.86 100.987 86.26C101.257 86.23 101.547 86.205 101.857 86.185C102.177 86.155 102.462 86.14 102.712 86.14H104.977V88H97.8221V86.74ZM98.6021 104.435C98.9221 104.715 99.2771 104.945 99.6671 105.125C100.067 105.305 100.487 105.395 100.927 105.395C101.447 105.395 101.872 105.3 102.202 105.11C102.542 104.91 102.712 104.63 102.712 104.27C102.712 104.06 102.667 103.87 102.577 103.7C102.487 103.53 102.332 103.39 102.112 103.28C101.892 103.16 101.597 103.07 101.227 103.01C100.857 102.94 100.392 102.905 99.8321 102.905V101.345C100.772 101.345 101.432 101.23 101.812 101C102.202 100.76 102.397 100.45 102.397 100.07C102.397 99.74 102.272 99.485 102.022 99.305C101.772 99.115 101.427 99.02 100.987 99.02C100.607 99.02 100.257 99.095 99.9371 99.245C99.6171 99.395 99.2921 99.6 98.9621 99.86L97.8521 98.51C98.3221 98.13 98.8221 97.835 99.3521 97.625C99.8921 97.405 100.472 97.295 101.092 97.295C101.612 97.295 102.087 97.355 102.517 97.475C102.947 97.585 103.317 97.755 103.627 97.985C103.937 98.205 104.177 98.475 104.347 98.795C104.517 99.115 104.602 99.485 104.602 99.905C104.602 100.405 104.442 100.83 104.122 101.18C103.802 101.52 103.357 101.8 102.787 102.02V102.08C103.387 102.24 103.892 102.515 104.302 102.905C104.712 103.285 104.917 103.785 104.917 104.405C104.917 104.845 104.812 105.24 104.602 105.59C104.402 105.93 104.127 106.22 103.777 106.46C103.437 106.69 103.037 106.87 102.577 107C102.117 107.12 101.637 107.18 101.137 107.18C100.317 107.18 99.6121 107.06 99.0221 106.82C98.4321 106.57 97.9521 106.24 97.5821 105.83L98.6021 104.435Z" fill="#F0E442"/>
<path d="M100.252 155.9L100.177 153.725H102.727L102.652 155.9L102.127 159.455H100.777L100.252 155.9ZM111.436 159.95L111.211 159.05C111.081 158.56 110.951 158.04 110.821 157.49C110.691 156.94 110.561 156.41 110.431 155.9H110.371C110.251 156.42 110.126 156.955 109.996 157.505C109.866 158.045 109.736 158.56 109.606 159.05L109.381 159.95H111.436ZM111.886 161.675H108.931L108.331 164H106.081L109.126 154.22H111.766L114.811 164H112.471L111.886 161.675ZM118.24 155.9L118.165 153.725H120.715L120.64 155.9L120.115 159.455H118.765L118.24 155.9ZM100.252 174.9L100.177 172.725H102.727L102.652 174.9L102.127 178.455H100.777L100.252 174.9ZM107.206 173.22H110.266C110.776 173.22 111.246 173.26 111.676 173.34C112.116 173.41 112.496 173.54 112.816 173.73C113.136 173.92 113.386 174.17 113.566 174.48C113.756 174.79 113.851 175.18 113.851 175.65C113.851 175.87 113.816 176.09 113.746 176.31C113.686 176.53 113.586 176.735 113.446 176.925C113.306 177.115 113.131 177.285 112.921 177.435C112.711 177.585 112.461 177.695 112.171 177.765V177.825C112.871 177.955 113.401 178.205 113.761 178.575C114.121 178.945 114.301 179.46 114.301 180.12C114.301 180.62 114.206 181.05 114.016 181.41C113.826 181.77 113.561 182.07 113.221 182.31C112.881 182.54 112.481 182.715 112.021 182.835C111.571 182.945 111.081 183 110.551 183H107.206V173.22ZM110.161 177.165C110.701 177.165 111.091 177.06 111.331 176.85C111.571 176.63 111.691 176.335 111.691 175.965C111.691 175.595 111.566 175.33 111.316 175.17C111.076 175.01 110.696 174.93 110.176 174.93H109.411V177.165H110.161ZM110.371 181.29C111.551 181.29 112.141 180.845 112.141 179.955C112.141 179.525 111.996 179.215 111.706 179.025C111.426 178.825 110.981 178.725 110.371 178.725H109.411V181.29H110.371ZM118.24 174.9L118.165 172.725H120.715L120.64 174.9L120.115 178.455H118.765L118.24 174.9ZM100.252 193.9L100.177 191.725H102.727L102.652 193.9L102.127 197.455H100.777L100.252 193.9ZM106.771 197.17C106.771 196.36 106.891 195.64 107.131 195.01C107.371 194.37 107.701 193.83 108.121 193.39C108.541 192.95 109.036 192.615 109.606 192.385C110.176 192.155 110.786 192.04 111.436 192.04C112.066 192.04 112.621 192.17 113.101 192.43C113.591 192.68 114.001 192.965 114.331 193.285L113.116 194.65C112.886 194.44 112.636 194.27 112.366 194.14C112.096 194.01 111.786 193.945 111.436 193.945C111.086 193.945 110.766 194.02 110.476 194.17C110.186 194.31 109.931 194.515 109.711 194.785C109.501 195.055 109.336 195.385 109.216 195.775C109.096 196.165 109.036 196.605 109.036 197.095C109.036 198.105 109.266 198.89 109.726 199.45C110.186 200 110.786 200.275 111.526 200.275C111.876 200.275 112.191 200.195 112.471 200.035C112.761 199.875 113.026 199.665 113.266 199.405L114.481 200.74C113.661 201.7 112.631 202.18 111.391 202.18C110.761 202.18 110.166 202.075 109.606 201.865C109.046 201.645 108.556 201.325 108.136 200.905C107.716 200.485 107.381 199.965 107.131 199.345C106.891 198.715 106.771 197.99 106.771 197.17ZM118.24 193.9L118.165 191.725H120.715L120.64 193.9L120.115 197.455H118.765L118.24 193.9Z" fill="#009E73"/>
</svg>
