<svg width="183" height="146" viewBox="0 0 183 146" fill="none" xmlns="http://www.w3.org/2000/svg">
<rect width="183" height="146" fill="white"/>
<rect x="1" y="6" width="181" height="140" fill="black"/>
<path d="M16.055 125.215V127H9.23V125.215H11.69V119.71H9.725V118.345C10.285 118.245 10.76 118.125 11.15 117.985C11.55 117.845 11.925 117.675 12.275 117.475H13.895V125.215H16.055Z" fill="white"/>
<path d="M12.5124 107.18C11.9324 107.18 11.3974 107.065 10.9074 106.835C10.4274 106.595 10.0124 106.255 9.66239 105.815C9.32239 105.375 9.05739 104.84 8.86739 104.21C8.67739 103.58 8.58239 102.865 8.58239 102.065C8.58239 101.265 8.67739 100.555 8.86739 99.935C9.05739 99.305 9.32239 98.78 9.66239 98.36C10.0124 97.93 10.4274 97.605 10.9074 97.385C11.3974 97.155 11.9324 97.04 12.5124 97.04C13.0924 97.04 13.6224 97.155 14.1024 97.385C14.5924 97.605 15.0074 97.93 15.3474 98.36C15.6974 98.79 15.9674 99.32 16.1574 99.95C16.3474 100.57 16.4424 101.275 16.4424 102.065C16.4424 102.865 16.3474 103.58 16.1574 104.21C15.9674 104.84 15.6974 105.375 15.3474 105.815C15.0074 106.255 14.5924 106.595 14.1024 106.835C13.6224 107.065 13.0924 107.18 12.5124 107.18ZM12.5124 105.275C13.0224 105.275 13.4274 104.99 13.7274 104.42C14.0274 103.84 14.1774 103.055 14.1774 102.065C14.1774 101.085 14.0274 100.32 13.7274 99.77C13.4274 99.22 13.0224 98.945 12.5124 98.945C12.0024 98.945 11.5974 99.22 11.2974 99.77C10.9974 100.32 10.8474 101.085 10.8474 102.065C10.8474 103.055 10.9974 103.84 11.2974 104.42C11.5974 104.99 12.0024 105.275 12.5124 105.275ZM24.8815 107H23.0815L22.9165 105.935H22.8565C22.5265 106.315 22.1615 106.62 21.7615 106.85C21.3615 107.07 20.8915 107.18 20.3515 107.18C19.5015 107.18 18.8865 106.91 18.5065 106.37C18.1265 105.83 17.9365 105.09 17.9365 104.15V99.56H20.1415V103.865C20.1415 104.365 20.2165 104.73 20.3665 104.96C20.5165 105.19 20.8015 105.305 21.2215 105.305C21.5015 105.305 21.7465 105.245 21.9565 105.125C22.1765 105.005 22.4165 104.78 22.6765 104.45V99.56H24.8815V107ZM28.6107 101.285H26.7357V99.65L28.7157 99.56L29.0007 97.58H30.8157V99.56H33.9657V101.285H30.8157V103.895C30.8157 104.465 30.9407 104.87 31.1907 105.11C31.4407 105.34 31.8357 105.455 32.3757 105.455C32.6657 105.455 32.9307 105.43 33.1707 105.38C33.4107 105.33 33.6407 105.265 33.8607 105.185L34.2507 106.775C33.9207 106.875 33.5507 106.965 33.1407 107.045C32.7407 107.135 32.3007 107.18 31.8207 107.18C31.2307 107.18 30.7307 107.1 30.3207 106.94C29.9107 106.78 29.5757 106.56 29.3157 106.28C29.0657 105.99 28.8857 105.645 28.7757 105.245C28.6657 104.845 28.6107 104.4 28.6107 103.91V101.285ZM38.2798 107.585V109.76H36.0748V99.56H37.8748L38.0398 100.31H38.0848C38.3848 100.04 38.7298 99.82 39.1198 99.65C39.5098 99.47 39.9048 99.38 40.3048 99.38C40.7648 99.38 41.1798 99.47 41.5498 99.65C41.9198 99.83 42.2348 100.085 42.4948 100.415C42.7548 100.745 42.9498 101.145 43.0798 101.615C43.2198 102.075 43.2898 102.59 43.2898 103.16C43.2898 103.8 43.1998 104.37 43.0198 104.87C42.8398 105.36 42.5998 105.78 42.2998 106.13C41.9998 106.47 41.6548 106.73 41.2648 106.91C40.8848 107.09 40.4848 107.18 40.0648 107.18C39.3848 107.18 38.7648 106.91 38.2048 106.37L38.2798 107.585ZM38.2798 104.885C38.4898 105.065 38.7048 105.195 38.9248 105.275C39.1548 105.345 39.3648 105.38 39.5548 105.38C39.9748 105.38 40.3248 105.21 40.6048 104.87C40.8848 104.52 41.0248 103.96 41.0248 103.19C41.0248 101.85 40.5698 101.18 39.6598 101.18C39.1898 101.18 38.7298 101.41 38.2798 101.87V104.885ZM51.864 107H50.064L49.899 105.935H49.839C49.509 106.315 49.144 106.62 48.744 106.85C48.344 107.07 47.874 107.18 47.334 107.18C46.484 107.18 45.869 106.91 45.489 106.37C45.109 105.83 44.919 105.09 44.919 104.15V99.56H47.124V103.865C47.124 104.365 47.199 104.73 47.349 104.96C47.499 105.19 47.784 105.305 48.204 105.305C48.484 105.305 48.729 105.245 48.939 105.125C49.159 105.005 49.399 104.78 49.659 104.45V99.56H51.864V107ZM55.5931 101.285H53.7181V99.65L55.6981 99.56L55.9831 97.58H57.7981V99.56H60.9481V101.285H57.7981V103.895C57.7981 104.465 57.9231 104.87 58.1731 105.11C58.4231 105.34 58.8181 105.455 59.3581 105.455C59.6481 105.455 59.9131 105.43 60.1531 105.38C60.3931 105.33 60.6231 105.265 60.8431 105.185L61.2331 106.775C60.9031 106.875 60.5331 106.965 60.1231 107.045C59.7231 107.135 59.2831 107.18 58.8031 107.18C58.2131 107.18 57.7131 107.1 57.3031 106.94C56.8931 106.78 56.5581 106.56 56.2981 106.28C56.0481 105.99 55.8681 105.645 55.7581 105.245C55.6481 104.845 55.5931 104.4 55.5931 103.91V101.285Z" fill="white"/>
<rect x="80" width="102" height="31" fill="#333333"/>
<rect x="80" width="102" height="31" fill="#333333"/>
<rect x="1.00113" width="79" height="31" fill="#090808"/>
<path d="M13.1061 17.8101C13.1061 17.5513 12.9767 17.3486 12.7179 17.2021C12.464 17.0508 12.0539 16.9165 11.4875 16.7993C9.60269 16.4038 8.66031 15.603 8.66031 14.397C8.66031 13.6938 8.95084 13.1079 9.53189 12.6392C10.1178 12.1655 10.882 11.9287 11.8244 11.9287C12.8302 11.9287 13.6335 12.1655 14.234 12.6392C14.8395 13.1128 15.1422 13.728 15.1422 14.4849H13.0255C13.0255 14.1821 12.9279 13.9331 12.7326 13.7378C12.5373 13.5376 12.2321 13.4375 11.817 13.4375C11.4606 13.4375 11.1847 13.5181 10.9894 13.6792C10.7941 13.8403 10.6964 14.0454 10.6964 14.2944C10.6964 14.5288 10.8063 14.7192 11.026 14.8657C11.2506 15.0073 11.6266 15.1318 12.154 15.2393C12.6813 15.3418 13.1256 15.459 13.487 15.5908C14.6051 16.001 15.1642 16.7114 15.1642 17.7222C15.1642 18.4448 14.8542 19.0308 14.234 19.48C13.6139 19.9243 12.8131 20.1465 11.8317 20.1465C11.1676 20.1465 10.5768 20.0293 10.0592 19.7949C9.54654 19.5557 9.14371 19.231 8.85074 18.8208C8.55777 18.4058 8.41129 17.959 8.41129 17.4805H10.4181C10.4377 17.8564 10.5768 18.1445 10.8356 18.3447C11.0944 18.5449 11.4411 18.645 11.8756 18.645C12.2809 18.645 12.5861 18.5693 12.7912 18.418C13.0011 18.2617 13.1061 18.0591 13.1061 17.8101ZM19.8297 18.4399C20.2204 18.4399 20.5378 18.3325 20.7819 18.1177C21.026 17.9028 21.153 17.6172 21.1628 17.2607H23.1476C23.1427 17.7979 22.9962 18.291 22.7082 18.7402C22.4201 19.1846 22.0246 19.5312 21.5216 19.7803C21.0236 20.0244 20.4718 20.1465 19.8664 20.1465C18.7336 20.1465 17.84 19.7876 17.1857 19.0698C16.5314 18.3472 16.2043 17.3511 16.2043 16.0815V15.9424C16.2043 14.7217 16.529 13.7476 17.1784 13.02C17.8278 12.2925 18.7189 11.9287 19.8517 11.9287C20.8429 11.9287 21.6364 12.2119 22.2321 12.7783C22.8327 13.3398 23.1378 14.0894 23.1476 15.0269H21.1628C21.153 14.6167 21.026 14.2847 20.7819 14.0308C20.5378 13.772 20.2155 13.6426 19.8151 13.6426C19.3219 13.6426 18.9484 13.8232 18.6945 14.1846C18.4455 14.541 18.321 15.1221 18.321 15.9277V16.1475C18.321 16.9629 18.4455 17.5488 18.6945 17.9053C18.9435 18.2617 19.3219 18.4399 19.8297 18.4399ZM28.8092 14.0601C28.5211 14.021 28.2672 14.0015 28.0475 14.0015C27.2467 14.0015 26.7218 14.2725 26.4728 14.8145V20H24.3561V12.0752H26.3556L26.4142 13.02C26.839 12.2925 27.4274 11.9287 28.1794 11.9287C28.4137 11.9287 28.6335 11.9604 28.8385 12.0239L28.8092 14.0601ZM32.0685 20H29.9445V12.0752H32.0685V20ZM29.82 10.0244C29.82 9.70703 29.925 9.4458 30.1349 9.24072C30.3498 9.03564 30.6403 8.93311 31.0065 8.93311C31.3678 8.93311 31.6559 9.03564 31.8708 9.24072C32.0856 9.4458 32.193 9.70703 32.193 10.0244C32.193 10.3467 32.0832 10.6104 31.8634 10.8154C31.6486 11.0205 31.3629 11.123 31.0065 11.123C30.6501 11.123 30.362 11.0205 30.1422 10.8154C29.9274 10.6104 29.82 10.3467 29.82 10.0244ZM40.9528 16.1108C40.9528 17.3315 40.6745 18.3105 40.1178 19.0479C39.5661 19.7803 38.819 20.1465 37.8766 20.1465C37.0758 20.1465 36.4289 19.8682 35.9357 19.3115V23.0469H33.819V12.0752H35.7819L35.8551 12.8516C36.3678 12.2363 37.0368 11.9287 37.862 11.9287C38.8385 11.9287 39.5978 12.29 40.1398 13.0127C40.6818 13.7354 40.9528 14.7314 40.9528 16.001V16.1108ZM38.8361 15.957C38.8361 15.2197 38.7043 14.6509 38.4406 14.2505C38.1818 13.8501 37.8034 13.6499 37.3053 13.6499C36.6413 13.6499 36.1847 13.9038 35.9357 14.4116V17.6562C36.1945 18.1787 36.6559 18.4399 37.32 18.4399C38.3307 18.4399 38.8361 17.6123 38.8361 15.957ZM44.8053 10.127V12.0752H46.1603V13.6279H44.8053V17.583C44.8053 17.876 44.8615 18.0859 44.9738 18.2129C45.0861 18.3398 45.3009 18.4033 45.6183 18.4033C45.8527 18.4033 46.0602 18.3862 46.2409 18.3521V19.9561C45.8258 20.083 45.3986 20.1465 44.9591 20.1465C43.4748 20.1465 42.7179 19.397 42.6886 17.8979V13.6279H41.5314V12.0752H42.6886V10.127H44.8053ZM47.4494 18.96C47.4494 18.623 47.5617 18.3496 47.7863 18.1396C48.0158 17.9297 48.3014 17.8247 48.6432 17.8247C48.9899 17.8247 49.2755 17.9297 49.5002 18.1396C49.7296 18.3496 49.8444 18.623 49.8444 18.96C49.8444 19.292 49.7321 19.563 49.5075 19.7729C49.2829 19.978 48.9948 20.0806 48.6432 20.0806C48.2965 20.0806 48.0109 19.978 47.7863 19.7729C47.5617 19.563 47.4494 19.292 47.4494 18.96ZM58.8385 16.1108C58.8385 17.3315 58.5602 18.3105 58.0036 19.0479C57.4518 19.7803 56.7047 20.1465 55.7624 20.1465C54.9616 20.1465 54.3146 19.8682 53.8214 19.3115V23.0469H51.7047V12.0752H53.6676L53.7409 12.8516C54.2536 12.2363 54.9225 11.9287 55.7477 11.9287C56.7243 11.9287 57.4836 12.29 58.0255 13.0127C58.5675 13.7354 58.8385 14.7314 58.8385 16.001V16.1108ZM56.7218 15.957C56.7218 15.2197 56.59 14.6509 56.3263 14.2505C56.0675 13.8501 55.6891 13.6499 55.1911 13.6499C54.527 13.6499 54.0705 13.9038 53.8214 14.4116V17.6562C54.0802 18.1787 54.5417 18.4399 55.2057 18.4399C56.2165 18.4399 56.7218 17.6123 56.7218 15.957ZM63.028 17.0044L64.4928 12.0752H66.7633L63.5773 21.2305L63.4015 21.6479C62.9279 22.6831 62.1466 23.2007 61.0578 23.2007C60.7502 23.2007 60.4377 23.1543 60.1203 23.0615V21.4575L60.4425 21.4648C60.8429 21.4648 61.1408 21.4038 61.3361 21.2817C61.5363 21.1597 61.6925 20.957 61.8048 20.6738L62.0539 20.022L59.278 12.0752H61.5558L63.028 17.0044Z" fill="white"/>
<line x1="0.998619" y1="85" x2="182.001" y2="85" stroke="white"/>
<path d="M10.1611 48.195H9.05113V46.785H10.3261L10.5361 45.135H9.35113V43.725H10.7161L11.0311 41.25H12.2911L11.9911 43.725H13.5511L13.8661 41.25H15.1261L14.8261 43.725H16.0111V45.135H14.6461L14.4511 46.785H15.7111V48.195H14.2861L13.9411 51H12.6661L12.9961 48.195H11.4511L11.1061 51H9.83113L10.1611 48.195ZM13.1611 46.785L13.3711 45.135H11.8111L11.6161 46.785H13.1611ZM20.2803 51.585V53.76H18.0753V43.56H19.8753L20.0403 44.31H20.0853C20.3853 44.04 20.7303 43.82 21.1203 43.65C21.5103 43.47 21.9053 43.38 22.3053 43.38C22.7653 43.38 23.1803 43.47 23.5503 43.65C23.9203 43.83 24.2353 44.085 24.4953 44.415C24.7553 44.745 24.9503 45.145 25.0803 45.615C25.2203 46.075 25.2903 46.59 25.2903 47.16C25.2903 47.8 25.2003 48.37 25.0203 48.87C24.8403 49.36 24.6003 49.78 24.3003 50.13C24.0003 50.47 23.6553 50.73 23.2653 50.91C22.8853 51.09 22.4853 51.18 22.0653 51.18C21.3853 51.18 20.7653 50.91 20.2053 50.37L20.2803 51.585ZM20.2803 48.885C20.4903 49.065 20.7053 49.195 20.9253 49.275C21.1553 49.345 21.3653 49.38 21.5553 49.38C21.9753 49.38 22.3253 49.21 22.6053 48.87C22.8853 48.52 23.0253 47.96 23.0253 47.19C23.0253 45.85 22.5703 45.18 21.6603 45.18C21.1903 45.18 20.7303 45.41 20.2803 45.87V48.885ZM27.7294 43.56H29.5294L29.7094 45.18H29.7544C30.1244 44.57 30.5694 44.12 31.0894 43.83C31.6094 43.53 32.1694 43.38 32.7694 43.38C33.0994 43.38 33.3644 43.405 33.5644 43.455C33.7744 43.505 33.9894 43.58 34.2094 43.68L33.7594 45.525C33.5294 45.455 33.3194 45.405 33.1294 45.375C32.9494 45.335 32.7194 45.315 32.4394 45.315C31.9794 45.315 31.5244 45.45 31.0744 45.72C30.6344 45.99 30.2544 46.46 29.9344 47.13V51H27.7294V43.56ZM36.1686 43.56H41.3586V51H39.1536V45.285H36.1686V43.56ZM40.1586 42.465C39.7286 42.465 39.3736 42.345 39.0936 42.105C38.8236 41.865 38.6886 41.54 38.6886 41.13C38.6886 40.72 38.8236 40.39 39.0936 40.14C39.3736 39.88 39.7286 39.75 40.1586 39.75C40.5886 39.75 40.9386 39.88 41.2086 40.14C41.4886 40.39 41.6286 40.72 41.6286 41.13C41.6286 41.54 41.4886 41.865 41.2086 42.105C40.9386 42.345 40.5886 42.465 40.1586 42.465ZM45.0577 43.56H46.8577L47.0227 44.55H47.0827C47.4027 44.23 47.7677 43.955 48.1777 43.725C48.5977 43.495 49.0877 43.38 49.6477 43.38C50.4877 43.38 51.1027 43.65 51.4927 44.19C51.8827 44.73 52.0777 45.47 52.0777 46.41V51H49.8727V46.695C49.8727 46.195 49.7927 45.83 49.6327 45.6C49.4727 45.37 49.1877 45.255 48.7777 45.255C48.4777 45.255 48.2127 45.32 47.9827 45.45C47.7627 45.58 47.5227 45.775 47.2627 46.035V51H45.0577V43.56ZM55.5818 45.285H53.7068V43.65L55.6868 43.56L55.9718 41.58H57.7868V43.56H60.9368V45.285H57.7868V47.895C57.7868 48.465 57.9118 48.87 58.1618 49.11C58.4118 49.34 58.8068 49.455 59.3468 49.455C59.6368 49.455 59.9018 49.43 60.1418 49.38C60.3818 49.33 60.6118 49.265 60.8318 49.185L61.2218 50.775C60.8918 50.875 60.5218 50.965 60.1118 51.045C59.7118 51.135 59.2718 51.18 58.7918 51.18C58.2018 51.18 57.7018 51.1 57.2918 50.94C56.8818 50.78 56.5468 50.56 56.2868 50.28C56.0368 49.99 55.8568 49.645 55.7468 49.245C55.6368 48.845 55.5818 48.4 55.5818 47.91V45.285ZM67.846 53.685C66.866 52.815 66.091 51.81 65.521 50.67C64.961 49.53 64.681 48.25 64.681 46.83C64.681 45.41 64.961 44.13 65.521 42.99C66.091 41.85 66.866 40.845 67.846 39.975L69.076 40.95C68.186 41.82 67.536 42.725 67.126 43.665C66.726 44.595 66.526 45.65 66.526 46.83C66.526 47.42 66.576 47.98 66.676 48.51C66.776 49.03 66.926 49.53 67.126 50.01C67.336 50.49 67.601 50.95 67.921 51.39C68.241 51.84 68.626 52.28 69.076 52.71L67.846 53.685ZM72.6401 48.45C72.9601 48.71 73.3001 48.935 73.6601 49.125C74.0301 49.305 74.4401 49.395 74.8901 49.395C75.4301 49.395 75.8701 49.27 76.2101 49.02C76.5601 48.77 76.7351 48.4 76.7351 47.91C76.7351 47.43 76.5701 47.065 76.2401 46.815C75.9201 46.565 75.5051 46.44 74.9951 46.44C74.8351 46.44 74.6901 46.45 74.5601 46.47C74.4401 46.48 74.3201 46.505 74.2001 46.545C74.0801 46.585 73.9551 46.635 73.8251 46.695C73.6951 46.755 73.5501 46.83 73.3901 46.92L72.4151 46.29L72.6701 41.475H78.5051V43.335H74.5751L74.4101 45.12C74.6301 45.04 74.8351 44.985 75.0251 44.955C75.2151 44.915 75.4301 44.895 75.6701 44.895C76.1101 44.895 76.5251 44.955 76.9151 45.075C77.3151 45.195 77.6651 45.375 77.9651 45.615C78.2651 45.855 78.5001 46.16 78.6701 46.53C78.8501 46.9 78.9401 47.34 78.9401 47.85C78.9401 48.38 78.8351 48.85 78.6251 49.26C78.4251 49.67 78.1501 50.02 77.8001 50.31C77.4601 50.59 77.0651 50.805 76.6151 50.955C76.1651 51.105 75.6951 51.18 75.2051 51.18C74.3751 51.18 73.6701 51.055 73.0901 50.805C72.5201 50.545 72.0401 50.225 71.6501 49.845L72.6401 48.45ZM92.6384 46.83H89.9984V45.27H92.6384V42.51H94.2584V45.27H96.8984V46.83H94.2584V49.59H92.6384V46.83ZM114.992 49.215V51H108.167V49.215H110.627V43.71H108.662V42.345C109.222 42.245 109.697 42.125 110.087 41.985C110.487 41.845 110.862 41.675 111.212 41.475H112.832V49.215H114.992ZM117.821 52.71C118.271 52.28 118.656 51.84 118.976 51.39C119.296 50.95 119.556 50.49 119.756 50.01C119.966 49.53 120.121 49.03 120.221 48.51C120.321 47.98 120.371 47.42 120.371 46.83C120.371 45.65 120.166 44.595 119.756 43.665C119.356 42.725 118.711 41.82 117.821 40.95L119.051 39.975C120.031 40.845 120.801 41.85 121.361 42.99C121.931 44.13 122.216 45.41 122.216 46.83C122.216 48.25 121.931 49.53 121.361 50.67C120.801 51.81 120.031 52.815 119.051 53.685L117.821 52.71Z" fill="#828282"/>
<path d="M11.2861 70.585V72.76H9.08113V62.56H10.8811L11.0461 63.31H11.0911C11.3911 63.04 11.7361 62.82 12.1261 62.65C12.5161 62.47 12.9111 62.38 13.3111 62.38C13.7711 62.38 14.1861 62.47 14.5561 62.65C14.9261 62.83 15.2411 63.085 15.5011 63.415C15.7611 63.745 15.9561 64.145 16.0861 64.615C16.2261 65.075 16.2961 65.59 16.2961 66.16C16.2961 66.8 16.2061 67.37 16.0261 67.87C15.8461 68.36 15.6061 68.78 15.3061 69.13C15.0061 69.47 14.6611 69.73 14.2711 69.91C13.8911 70.09 13.4911 70.18 13.0711 70.18C12.3911 70.18 11.7711 69.91 11.2111 69.37L11.2861 70.585ZM11.2861 67.885C11.4961 68.065 11.7111 68.195 11.9311 68.275C12.1611 68.345 12.3711 68.38 12.5611 68.38C12.9811 68.38 13.3311 68.21 13.6111 67.87C13.8911 67.52 14.0311 66.96 14.0311 66.19C14.0311 64.85 13.5761 64.18 12.6661 64.18C12.1961 64.18 11.7361 64.41 11.2861 64.87V67.885ZM18.7353 62.56H20.5353L20.7153 64.18H20.7603C21.1303 63.57 21.5753 63.12 22.0953 62.83C22.6153 62.53 23.1753 62.38 23.7753 62.38C24.1053 62.38 24.3703 62.405 24.5703 62.455C24.7803 62.505 24.9953 62.58 25.2153 62.68L24.7653 64.525C24.5353 64.455 24.3253 64.405 24.1353 64.375C23.9553 64.335 23.7253 64.315 23.4453 64.315C22.9853 64.315 22.5303 64.45 22.0803 64.72C21.6403 64.99 21.2603 65.46 20.9403 66.13V70H18.7353V62.56ZM27.1744 62.56H32.3644V70H30.1594V64.285H27.1744V62.56ZM31.1644 61.465C30.7344 61.465 30.3794 61.345 30.0994 61.105C29.8294 60.865 29.6944 60.54 29.6944 60.13C29.6944 59.72 29.8294 59.39 30.0994 59.14C30.3794 58.88 30.7344 58.75 31.1644 58.75C31.5944 58.75 31.9444 58.88 32.2144 59.14C32.4944 59.39 32.6344 59.72 32.6344 60.13C32.6344 60.54 32.4944 60.865 32.2144 61.105C31.9444 61.345 31.5944 61.465 31.1644 61.465ZM36.0636 62.56H37.8636L38.0286 63.55H38.0886C38.4086 63.23 38.7736 62.955 39.1836 62.725C39.6036 62.495 40.0936 62.38 40.6536 62.38C41.4936 62.38 42.1086 62.65 42.4986 63.19C42.8886 63.73 43.0836 64.47 43.0836 65.41V70H40.8786V65.695C40.8786 65.195 40.7986 64.83 40.6386 64.6C40.4786 64.37 40.1936 64.255 39.7836 64.255C39.4836 64.255 39.2186 64.32 38.9886 64.45C38.7686 64.58 38.5286 64.775 38.2686 65.035V70H36.0636V62.56ZM46.5877 64.285H44.7127V62.65L46.6927 62.56L46.9777 60.58H48.7927V62.56H51.9427V64.285H48.7927V66.895C48.7927 67.465 48.9177 67.87 49.1677 68.11C49.4177 68.34 49.8127 68.455 50.3527 68.455C50.6427 68.455 50.9077 68.43 51.1477 68.38C51.3877 68.33 51.6177 68.265 51.8377 68.185L52.2277 69.775C51.8977 69.875 51.5277 69.965 51.1177 70.045C50.7177 70.135 50.2777 70.18 49.7977 70.18C49.2077 70.18 48.7077 70.1 48.2977 69.94C47.8877 69.78 47.5527 69.56 47.2927 69.28C47.0427 68.99 46.8627 68.645 46.7527 68.245C46.6427 67.845 46.5877 67.4 46.5877 66.91V64.285Z" fill="#56B4E9"/>
<path d="M58.8518 72.685C57.8718 71.815 57.0968 70.81 56.5268 69.67C55.9668 68.53 55.6868 67.25 55.6868 65.83C55.6868 64.41 55.9668 63.13 56.5268 61.99C57.0968 60.85 57.8718 59.845 58.8518 58.975L60.0818 59.95C59.1918 60.82 58.5418 61.725 58.1318 62.665C57.7318 63.595 57.5318 64.65 57.5318 65.83C57.5318 66.42 57.5818 66.98 57.6818 67.51C57.7818 68.03 57.9318 68.53 58.1318 69.01C58.3418 69.49 58.6068 69.95 58.9268 70.39C59.2468 70.84 59.6318 71.28 60.0818 71.71L58.8518 72.685ZM108.827 71.71C109.277 71.28 109.662 70.84 109.982 70.39C110.302 69.95 110.562 69.49 110.762 69.01C110.972 68.53 111.127 68.03 111.227 67.51C111.327 66.98 111.377 66.42 111.377 65.83C111.377 64.65 111.172 63.595 110.762 62.665C110.362 61.725 109.717 60.82 108.827 59.95L110.057 58.975C111.037 59.845 111.807 60.85 112.367 61.99C112.937 63.13 113.222 64.41 113.222 65.83C113.222 67.25 112.937 68.53 112.367 69.67C111.807 70.81 111.037 71.815 110.057 72.685L108.827 71.71Z" fill="white"/>
<path d="M64.786 67.315C64.786 67.735 64.951 68.065 65.281 68.305C65.611 68.535 66.021 68.65 66.511 68.65C66.961 68.65 67.321 68.555 67.591 68.365C67.871 68.165 68.011 67.865 68.011 67.465C68.011 67.245 67.956 67.06 67.846 66.91C67.736 66.76 67.576 66.625 67.366 66.505C67.166 66.375 66.926 66.26 66.646 66.16C66.366 66.05 66.056 65.93 65.716 65.8C65.446 66 65.221 66.225 65.041 66.475C64.871 66.725 64.786 67.005 64.786 67.315ZM67.111 64.45C67.591 64.02 67.831 63.555 67.831 63.055C67.831 62.685 67.716 62.39 67.486 62.17C67.256 61.94 66.921 61.825 66.481 61.825C66.131 61.825 65.831 61.915 65.581 62.095C65.341 62.275 65.221 62.55 65.221 62.92C65.221 63.31 65.396 63.615 65.746 63.835C66.096 64.055 66.551 64.26 67.111 64.45ZM62.881 67.57C62.881 67.28 62.926 67.02 63.016 66.79C63.116 66.55 63.246 66.335 63.406 66.145C63.576 65.955 63.766 65.785 63.976 65.635C64.196 65.485 64.431 65.35 64.681 65.23V65.17C64.281 64.89 63.946 64.575 63.676 64.225C63.416 63.865 63.286 63.43 63.286 62.92C63.286 62.52 63.366 62.16 63.526 61.84C63.686 61.51 63.906 61.23 64.186 61C64.476 60.77 64.821 60.595 65.221 60.475C65.621 60.355 66.056 60.295 66.526 60.295C67.006 60.295 67.436 60.36 67.816 60.49C68.206 60.61 68.536 60.785 68.806 61.015C69.076 61.235 69.281 61.51 69.421 61.84C69.571 62.16 69.646 62.515 69.646 62.905C69.646 63.355 69.511 63.755 69.241 64.105C68.981 64.455 68.661 64.75 68.281 64.99V65.05C68.531 65.17 68.766 65.31 68.986 65.47C69.206 65.62 69.396 65.795 69.556 65.995C69.716 66.195 69.841 66.425 69.931 66.685C70.021 66.935 70.066 67.22 70.066 67.54C70.066 67.92 69.986 68.27 69.826 68.59C69.666 68.91 69.431 69.19 69.121 69.43C68.821 69.66 68.446 69.845 67.996 69.985C67.546 70.115 67.031 70.18 66.451 70.18C65.901 70.18 65.406 70.12 64.966 70C64.526 69.87 64.151 69.69 63.841 69.46C63.531 69.23 63.291 68.955 63.121 68.635C62.961 68.315 62.881 67.96 62.881 67.57ZM100.838 70C100.878 69.21 100.953 68.485 101.063 67.825C101.183 67.155 101.348 66.52 101.558 65.92C101.778 65.31 102.058 64.72 102.398 64.15C102.738 63.57 103.158 62.965 103.658 62.335H98.8725V60.475H106.028V61.825C105.428 62.495 104.943 63.125 104.573 63.715C104.203 64.295 103.913 64.9 103.703 65.53C103.493 66.15 103.343 66.82 103.253 67.54C103.163 68.25 103.098 69.07 103.058 70H100.838Z" fill="#F0E442"/>
<path d="M81.0043 64.27H87.9043V65.83H81.0043V64.27Z" fill="#BDBDBD"/>
</svg>
