<svg width="511" height="152" viewBox="0 0 511 152" fill="none" xmlns="http://www.w3.org/2000/svg">
<rect width="511" height="152" fill="white"/>
<rect width="243" height="152" fill="black"/>
<path d="M12.5 94.5359C11.92 94.5359 11.385 94.4209 10.895 94.1909C10.415 93.9509 9.99997 93.6109 9.64997 93.1709C9.30997 92.7309 9.04497 92.1959 8.85497 91.5659C8.66497 90.9359 8.56997 90.2209 8.56997 89.4209C8.56997 88.6209 8.66497 87.9109 8.85497 87.2909C9.04497 86.6609 9.30997 86.1359 9.64997 85.7159C9.99997 85.2859 10.415 84.9609 10.895 84.7409C11.385 84.5109 11.92 84.3959 12.5 84.3959C13.08 84.3959 13.61 84.5109 14.09 84.7409C14.58 84.9609 14.995 85.2859 15.335 85.7159C15.685 86.1459 15.955 86.6759 16.145 87.3059C16.335 87.9259 16.43 88.6309 16.43 89.4209C16.43 90.2209 16.335 90.9359 16.145 91.5659C15.955 92.1959 15.685 92.7309 15.335 93.1709C14.995 93.6109 14.58 93.9509 14.09 94.1909C13.61 94.4209 13.08 94.5359 12.5 94.5359ZM12.5 92.6309C13.01 92.6309 13.415 92.3459 13.715 91.7759C14.015 91.1959 14.165 90.4109 14.165 89.4209C14.165 88.4409 14.015 87.6759 13.715 87.1259C13.415 86.5759 13.01 86.3009 12.5 86.3009C11.99 86.3009 11.585 86.5759 11.285 87.1259C10.985 87.6759 10.835 88.4409 10.835 89.4209C10.835 90.4109 10.985 91.1959 11.285 91.7759C11.585 92.3459 11.99 92.6309 12.5 92.6309ZM24.8691 94.3559H23.0691L22.9041 93.2909H22.8441C22.5141 93.6709 22.1491 93.9759 21.7491 94.2059C21.3491 94.4259 20.8791 94.5359 20.3391 94.5359C19.4891 94.5359 18.8741 94.2659 18.4941 93.7259C18.1141 93.1859 17.9241 92.4459 17.9241 91.5059V86.9159H20.1291V91.2209C20.1291 91.7209 20.2041 92.0859 20.3541 92.3159C20.5041 92.5459 20.7891 92.6609 21.2091 92.6609C21.4891 92.6609 21.7341 92.6009 21.9441 92.4809C22.1641 92.3609 22.4041 92.1359 22.6641 91.8059V86.9159H24.8691V94.3559ZM28.5983 88.6409H26.7233V87.0059L28.7033 86.9159L28.9883 84.9359H30.8033V86.9159H33.9533V88.6409H30.8033V91.2509C30.8033 91.8209 30.9283 92.2259 31.1783 92.4659C31.4283 92.6959 31.8233 92.8109 32.3633 92.8109C32.6533 92.8109 32.9183 92.7859 33.1583 92.7359C33.3983 92.6859 33.6283 92.6209 33.8483 92.5409L34.2383 94.1309C33.9083 94.2309 33.5383 94.3209 33.1283 94.4009C32.7283 94.4909 32.2883 94.5359 31.8083 94.5359C31.2183 94.5359 30.7183 94.4559 30.3083 94.2959C29.8983 94.1359 29.5633 93.9159 29.3033 93.6359C29.0533 93.3459 28.8733 93.0009 28.7633 92.6009C28.6533 92.2009 28.5983 91.7559 28.5983 91.2659V88.6409ZM38.2674 94.9409V97.1159H36.0624V86.9159H37.8624L38.0274 87.6659H38.0724C38.3724 87.3959 38.7174 87.1759 39.1074 87.0059C39.4974 86.8259 39.8924 86.7359 40.2924 86.7359C40.7524 86.7359 41.1674 86.8259 41.5374 87.0059C41.9074 87.1859 42.2224 87.4409 42.4824 87.7709C42.7424 88.1009 42.9374 88.5009 43.0674 88.9709C43.2074 89.4309 43.2774 89.9459 43.2774 90.5159C43.2774 91.1559 43.1874 91.7259 43.0074 92.2259C42.8274 92.7159 42.5874 93.1359 42.2874 93.4859C41.9874 93.8259 41.6424 94.0859 41.2524 94.2659C40.8724 94.4459 40.4724 94.5359 40.0524 94.5359C39.3724 94.5359 38.7524 94.2659 38.1924 93.7259L38.2674 94.9409ZM38.2674 92.2409C38.4774 92.4209 38.6924 92.5509 38.9124 92.6309C39.1424 92.7009 39.3524 92.7359 39.5424 92.7359C39.9624 92.7359 40.3124 92.5659 40.5924 92.2259C40.8724 91.8759 41.0124 91.3159 41.0124 90.5459C41.0124 89.2059 40.5574 88.5359 39.6474 88.5359C39.1774 88.5359 38.7174 88.7659 38.2674 89.2259V92.2409ZM51.8515 94.3559H50.0515L49.8865 93.2909H49.8265C49.4965 93.6709 49.1315 93.9759 48.7315 94.2059C48.3315 94.4259 47.8615 94.5359 47.3215 94.5359C46.4715 94.5359 45.8565 94.2659 45.4765 93.7259C45.0965 93.1859 44.9065 92.4459 44.9065 91.5059V86.9159H47.1115V91.2209C47.1115 91.7209 47.1865 92.0859 47.3365 92.3159C47.4865 92.5459 47.7715 92.6609 48.1915 92.6609C48.4715 92.6609 48.7165 92.6009 48.9265 92.4809C49.1465 92.3609 49.3865 92.1359 49.6465 91.8059V86.9159H51.8515V94.3559ZM55.5807 88.6409H53.7057V87.0059L55.6857 86.9159L55.9707 84.9359H57.7857V86.9159H60.9357V88.6409H57.7857V91.2509C57.7857 91.8209 57.9107 92.2259 58.1607 92.4659C58.4107 92.6959 58.8057 92.8109 59.3457 92.8109C59.6357 92.8109 59.9007 92.7859 60.1407 92.7359C60.3807 92.6859 60.6107 92.6209 60.8307 92.5409L61.2207 94.1309C60.8907 94.2309 60.5207 94.3209 60.1107 94.4009C59.7107 94.4909 59.2707 94.5359 58.7907 94.5359C58.2007 94.5359 57.7007 94.4559 57.2907 94.2959C56.8807 94.1359 56.5457 93.9159 56.2857 93.6359C56.0357 93.3459 55.8557 93.0009 55.7457 92.6009C55.6357 92.2009 55.5807 91.7559 55.5807 91.2659V88.6409Z" fill="white"/>
<path d="M11.39 105.436H8.46497V103.576H16.535V105.436H13.61V113.356H11.39V105.436ZM18.3891 114.436C18.5791 114.496 18.7741 114.526 18.9741 114.526C19.4041 114.526 19.7391 114.436 19.9791 114.256C20.2291 114.076 20.4141 113.841 20.5341 113.551L20.6841 113.161L17.4591 105.916H19.6491L20.8941 109.111C21.0341 109.461 21.1641 109.826 21.2841 110.206C21.4041 110.576 21.5241 110.956 21.6441 111.346H21.7041C21.8041 110.976 21.9141 110.606 22.0341 110.236C22.1541 109.856 22.2691 109.481 22.3791 109.111L23.4741 105.916H25.5591L22.6191 113.431C22.4391 113.901 22.2441 114.311 22.0341 114.661C21.8241 115.021 21.5841 115.316 21.3141 115.546C21.0441 115.786 20.7291 115.966 20.3691 116.086C20.0191 116.206 19.6091 116.266 19.1391 116.266C18.9191 116.266 18.7141 116.251 18.5241 116.221C18.3341 116.201 18.1591 116.166 17.9991 116.116L18.3891 114.436ZM29.2733 113.941V116.116H27.0683V105.916H28.8683L29.0333 106.666H29.0783C29.3783 106.396 29.7233 106.176 30.1133 106.006C30.5033 105.826 30.8983 105.736 31.2983 105.736C31.7583 105.736 32.1733 105.826 32.5433 106.006C32.9133 106.186 33.2283 106.441 33.4883 106.771C33.7483 107.101 33.9433 107.501 34.0733 107.971C34.2133 108.431 34.2833 108.946 34.2833 109.516C34.2833 110.156 34.1933 110.726 34.0133 111.226C33.8333 111.716 33.5933 112.136 33.2933 112.486C32.9933 112.826 32.6483 113.086 32.2583 113.266C31.8783 113.446 31.4783 113.536 31.0583 113.536C30.3783 113.536 29.7583 113.266 29.1983 112.726L29.2733 113.941ZM29.2733 111.241C29.4833 111.421 29.6983 111.551 29.9183 111.631C30.1483 111.701 30.3583 111.736 30.5483 111.736C30.9683 111.736 31.3183 111.566 31.5983 111.226C31.8783 110.876 32.0183 110.316 32.0183 109.546C32.0183 108.206 31.5633 107.536 30.6533 107.536C30.1833 107.536 29.7233 107.766 29.2733 108.226V111.241ZM35.8074 109.636C35.8074 109.026 35.9124 108.481 36.1224 108.001C36.3424 107.521 36.6324 107.116 36.9924 106.786C37.3524 106.446 37.7624 106.186 38.2224 106.006C38.6924 105.826 39.1774 105.736 39.6774 105.736C40.2474 105.736 40.7524 105.826 41.1924 106.006C41.6324 106.186 41.9974 106.436 42.2874 106.756C42.5774 107.076 42.7974 107.456 42.9474 107.896C43.0974 108.326 43.1724 108.796 43.1724 109.306C43.1724 109.506 43.1624 109.696 43.1424 109.876C43.1224 110.056 43.1024 110.191 43.0824 110.281H38.0724C38.1524 110.841 38.3924 111.246 38.7924 111.496C39.2024 111.736 39.6824 111.856 40.2324 111.856C40.5724 111.856 40.8924 111.816 41.1924 111.736C41.5024 111.646 41.8224 111.516 42.1524 111.346L42.8724 112.666C42.4524 112.936 41.9824 113.151 41.4624 113.311C40.9424 113.461 40.4324 113.536 39.9324 113.536C39.3524 113.536 38.8124 113.451 38.3124 113.281C37.8124 113.101 37.3774 112.846 37.0074 112.516C36.6374 112.176 36.3424 111.766 36.1224 111.286C35.9124 110.806 35.8074 110.256 35.8074 109.636ZM41.1774 108.826C41.1774 108.406 41.0624 108.066 40.8324 107.806C40.6024 107.546 40.2324 107.416 39.7224 107.416C39.3224 107.416 38.9674 107.531 38.6574 107.761C38.3474 107.991 38.1424 108.346 38.0424 108.826H41.1774ZM45.3865 103.576H51.8365V105.436H47.5915V107.401H51.1915V109.246H47.5915V111.496H51.9865V113.356H45.3865V103.576ZM54.7107 105.916H56.5107L56.6907 107.536H56.7357C57.1057 106.926 57.5507 106.476 58.0707 106.186C58.5907 105.886 59.1507 105.736 59.7507 105.736C60.0807 105.736 60.3457 105.761 60.5457 105.811C60.7557 105.861 60.9707 105.936 61.1907 106.036L60.7407 107.881C60.5107 107.811 60.3007 107.761 60.1107 107.731C59.9307 107.691 59.7007 107.671 59.4207 107.671C58.9607 107.671 58.5057 107.806 58.0557 108.076C57.6157 108.346 57.2357 108.816 56.9157 109.486V113.356H54.7107V105.916ZM63.7048 105.916H65.5048L65.6848 107.536H65.7298C66.0998 106.926 66.5448 106.476 67.0648 106.186C67.5848 105.886 68.1448 105.736 68.7448 105.736C69.0748 105.736 69.3398 105.761 69.5398 105.811C69.7498 105.861 69.9648 105.936 70.1848 106.036L69.7348 107.881C69.5048 107.811 69.2948 107.761 69.1048 107.731C68.9248 107.691 68.6948 107.671 68.4148 107.671C67.9548 107.671 67.4998 107.806 67.0498 108.076C66.6098 108.346 66.2298 108.816 65.9098 109.486V113.356H63.7048V105.916ZM71.664 109.636C71.664 109.016 71.769 108.466 71.979 107.986C72.189 107.496 72.469 107.086 72.819 106.756C73.179 106.426 73.584 106.176 74.034 106.006C74.494 105.826 74.969 105.736 75.459 105.736C75.949 105.736 76.419 105.826 76.869 106.006C77.329 106.176 77.734 106.426 78.084 106.756C78.444 107.086 78.729 107.496 78.939 107.986C79.149 108.466 79.254 109.016 79.254 109.636C79.254 110.256 79.149 110.811 78.939 111.301C78.729 111.781 78.444 112.186 78.084 112.516C77.734 112.846 77.329 113.101 76.869 113.281C76.419 113.451 75.949 113.536 75.459 113.536C74.969 113.536 74.494 113.451 74.034 113.281C73.584 113.101 73.179 112.846 72.819 112.516C72.469 112.186 72.189 111.781 71.979 111.301C71.769 110.811 71.664 110.256 71.664 109.636ZM73.929 109.636C73.929 110.286 74.054 110.801 74.304 111.181C74.564 111.561 74.949 111.751 75.459 111.751C75.969 111.751 76.349 111.561 76.599 111.181C76.859 110.801 76.989 110.286 76.989 109.636C76.989 108.986 76.859 108.471 76.599 108.091C76.349 107.711 75.969 107.521 75.459 107.521C74.949 107.521 74.564 107.711 74.304 108.091C74.054 108.471 73.929 108.986 73.929 109.636ZM81.6931 105.916H83.4931L83.6731 107.536H83.7181C84.0881 106.926 84.5331 106.476 85.0531 106.186C85.5731 105.886 86.1331 105.736 86.7331 105.736C87.0631 105.736 87.3281 105.761 87.5281 105.811C87.7381 105.861 87.9531 105.936 88.1731 106.036L87.7231 107.881C87.4931 107.811 87.2831 107.761 87.0931 107.731C86.9131 107.691 86.6831 107.671 86.4031 107.671C85.9431 107.671 85.4881 107.806 85.0381 108.076C84.5981 108.346 84.2181 108.816 83.8981 109.486V113.356H81.6931V105.916ZM91.7072 106.936C91.7072 106.686 91.7472 106.456 91.8272 106.246C91.9172 106.026 92.0372 105.836 92.1872 105.676C92.3372 105.516 92.5172 105.391 92.7272 105.301C92.9472 105.211 93.1872 105.166 93.4472 105.166C93.7072 105.166 93.9422 105.211 94.1522 105.301C94.3722 105.391 94.5572 105.516 94.7072 105.676C94.8572 105.836 94.9722 106.026 95.0522 106.246C95.1422 106.456 95.1872 106.686 95.1872 106.936C95.1872 107.436 95.0272 107.856 94.7072 108.196C94.3872 108.526 93.9672 108.691 93.4472 108.691C92.9272 108.691 92.5072 108.526 92.1872 108.196C91.8672 107.856 91.7072 107.436 91.7072 106.936ZM91.7072 111.781C91.7072 111.531 91.7472 111.301 91.8272 111.091C91.9172 110.871 92.0372 110.681 92.1872 110.521C92.3372 110.361 92.5172 110.236 92.7272 110.146C92.9472 110.056 93.1872 110.011 93.4472 110.011C93.7072 110.011 93.9422 110.056 94.1522 110.146C94.3722 110.236 94.5572 110.361 94.7072 110.521C94.8572 110.681 94.9722 110.871 95.0522 111.091C95.1422 111.301 95.1872 111.531 95.1872 111.781C95.1872 112.281 95.0272 112.701 94.7072 113.041C94.3872 113.371 93.9672 113.536 93.4472 113.536C92.9272 113.536 92.5072 113.371 92.1872 113.041C91.8672 112.701 91.7072 112.281 91.7072 111.781ZM114.811 113.356H113.011L112.846 112.291H112.786C112.456 112.671 112.091 112.976 111.691 113.206C111.291 113.426 110.821 113.536 110.281 113.536C109.431 113.536 108.816 113.266 108.436 112.726C108.056 112.186 107.866 111.446 107.866 110.506V105.916H110.071V110.221C110.071 110.721 110.146 111.086 110.296 111.316C110.446 111.546 110.731 111.661 111.151 111.661C111.431 111.661 111.676 111.601 111.886 111.481C112.106 111.361 112.346 111.136 112.606 110.806V105.916H114.811V113.356ZM117.01 105.916H118.81L118.975 106.906H119.035C119.355 106.586 119.72 106.311 120.13 106.081C120.55 105.851 121.04 105.736 121.6 105.736C122.44 105.736 123.055 106.006 123.445 106.546C123.835 107.086 124.03 107.826 124.03 108.766V113.356H121.825V109.051C121.825 108.551 121.745 108.186 121.585 107.956C121.425 107.726 121.14 107.611 120.73 107.611C120.43 107.611 120.165 107.676 119.935 107.806C119.715 107.936 119.475 108.131 119.215 108.391V113.356H117.01V105.916ZM126.004 102.841H128.209V105.421L128.089 106.846C128.239 106.706 128.399 106.571 128.569 106.441C128.749 106.301 128.939 106.181 129.139 106.081C129.349 105.971 129.574 105.886 129.814 105.826C130.064 105.766 130.329 105.736 130.609 105.736C131.449 105.736 132.059 106.006 132.439 106.546C132.829 107.086 133.024 107.826 133.024 108.766V113.356H130.819V109.051C130.819 108.551 130.739 108.186 130.579 107.956C130.419 107.726 130.134 107.611 129.724 107.611C129.424 107.611 129.159 107.676 128.929 107.806C128.709 107.936 128.469 108.131 128.209 108.391V113.356H126.004V102.841ZM134.833 111.286C134.833 110.866 134.923 110.501 135.103 110.191C135.283 109.871 135.568 109.601 135.958 109.381C136.358 109.161 136.868 108.986 137.488 108.856C138.108 108.716 138.858 108.621 139.738 108.571C139.698 108.231 139.548 107.966 139.288 107.776C139.038 107.586 138.658 107.491 138.148 107.491C137.788 107.491 137.423 107.556 137.053 107.686C136.693 107.806 136.303 107.971 135.883 108.181L135.103 106.741C135.613 106.451 136.158 106.211 136.738 106.021C137.328 105.831 137.943 105.736 138.583 105.736C139.623 105.736 140.443 106.011 141.043 106.561C141.643 107.111 141.943 107.956 141.943 109.096V113.356H140.143L139.978 112.516H139.918C139.538 112.806 139.123 113.051 138.673 113.251C138.223 113.441 137.758 113.536 137.278 113.536C136.898 113.536 136.558 113.476 136.258 113.356C135.958 113.246 135.703 113.091 135.493 112.891C135.283 112.681 135.118 112.441 134.998 112.171C134.888 111.901 134.833 111.606 134.833 111.286ZM136.948 111.121C136.948 111.361 137.038 111.541 137.218 111.661C137.408 111.771 137.663 111.826 137.983 111.826C138.313 111.826 138.623 111.761 138.913 111.631C139.203 111.491 139.478 111.321 139.738 111.121V109.891C139.188 109.921 138.733 109.971 138.373 110.041C138.013 110.111 137.728 110.201 137.518 110.311C137.308 110.411 137.158 110.531 137.068 110.671C136.988 110.811 136.948 110.961 136.948 111.121ZM144.697 111.016C145.127 111.286 145.557 111.501 145.987 111.661C146.427 111.821 146.897 111.901 147.397 111.901C147.907 111.901 148.272 111.846 148.492 111.736C148.712 111.626 148.822 111.471 148.822 111.271C148.822 111.041 148.637 110.856 148.267 110.716C147.907 110.566 147.427 110.406 146.827 110.236C146.497 110.146 146.172 110.041 145.852 109.921C145.542 109.791 145.262 109.641 145.012 109.471C144.762 109.291 144.557 109.086 144.397 108.856C144.247 108.626 144.172 108.361 144.172 108.061C144.172 107.721 144.252 107.406 144.412 107.116C144.572 106.826 144.797 106.581 145.087 106.381C145.387 106.181 145.747 106.026 146.167 105.916C146.597 105.796 147.077 105.736 147.607 105.736C148.267 105.736 148.867 105.846 149.407 106.066C149.957 106.276 150.427 106.506 150.817 106.756L149.827 108.076C149.487 107.876 149.137 107.711 148.777 107.581C148.417 107.441 148.042 107.371 147.652 107.371C147.182 107.371 146.847 107.421 146.647 107.521C146.457 107.621 146.362 107.766 146.362 107.956C146.362 108.066 146.412 108.166 146.512 108.256C146.612 108.346 146.747 108.426 146.917 108.496C147.087 108.566 147.287 108.636 147.517 108.706C147.757 108.766 148.007 108.831 148.267 108.901C148.637 109.001 148.987 109.116 149.317 109.246C149.647 109.366 149.937 109.511 150.187 109.681C150.437 109.851 150.637 110.056 150.787 110.296C150.937 110.536 151.012 110.816 151.012 111.136C151.012 111.476 150.932 111.791 150.772 112.081C150.612 112.371 150.377 112.626 150.067 112.846C149.767 113.056 149.387 113.226 148.927 113.356C148.477 113.476 147.952 113.536 147.352 113.536C146.682 113.536 146.027 113.426 145.387 113.206C144.747 112.986 144.187 112.716 143.707 112.396L144.697 111.016ZM152.986 102.841H155.191V105.421L155.071 106.846C155.221 106.706 155.381 106.571 155.551 106.441C155.731 106.301 155.921 106.181 156.121 106.081C156.331 105.971 156.556 105.886 156.796 105.826C157.046 105.766 157.311 105.736 157.591 105.736C158.431 105.736 159.041 106.006 159.421 106.546C159.811 107.086 160.006 107.826 160.006 108.766V113.356H157.801V109.051C157.801 108.551 157.721 108.186 157.561 107.956C157.401 107.726 157.116 107.611 156.706 107.611C156.406 107.611 156.141 107.676 155.911 107.806C155.691 107.936 155.451 108.131 155.191 108.391V113.356H152.986V102.841ZM161.815 111.286C161.815 110.866 161.905 110.501 162.085 110.191C162.265 109.871 162.55 109.601 162.94 109.381C163.34 109.161 163.85 108.986 164.47 108.856C165.09 108.716 165.84 108.621 166.72 108.571C166.68 108.231 166.53 107.966 166.27 107.776C166.02 107.586 165.64 107.491 165.13 107.491C164.77 107.491 164.405 107.556 164.035 107.686C163.675 107.806 163.285 107.971 162.865 108.181L162.085 106.741C162.595 106.451 163.14 106.211 163.72 106.021C164.31 105.831 164.925 105.736 165.565 105.736C166.605 105.736 167.425 106.011 168.025 106.561C168.625 107.111 168.925 107.956 168.925 109.096V113.356H167.125L166.96 112.516H166.9C166.52 112.806 166.105 113.051 165.655 113.251C165.205 113.441 164.74 113.536 164.26 113.536C163.88 113.536 163.54 113.476 163.24 113.356C162.94 113.246 162.685 113.091 162.475 112.891C162.265 112.681 162.1 112.441 161.98 112.171C161.87 111.901 161.815 111.606 161.815 111.286ZM163.93 111.121C163.93 111.361 164.02 111.541 164.2 111.661C164.39 111.771 164.645 111.826 164.965 111.826C165.295 111.826 165.605 111.761 165.895 111.631C166.185 111.491 166.46 111.321 166.72 111.121V109.891C166.17 109.921 165.715 109.971 165.355 110.041C164.995 110.111 164.71 110.201 164.5 110.311C164.29 110.411 164.14 110.531 164.05 110.671C163.97 110.811 163.93 110.961 163.93 111.121ZM170.975 102.841H173.18V105.421L173.12 106.591C173.41 106.321 173.735 106.111 174.095 105.961C174.465 105.811 174.83 105.736 175.19 105.736C175.65 105.736 176.065 105.826 176.435 106.006C176.815 106.186 177.13 106.441 177.38 106.771C177.64 107.091 177.84 107.486 177.98 107.956C178.12 108.416 178.19 108.931 178.19 109.501C178.19 110.141 178.1 110.711 177.92 111.211C177.74 111.711 177.5 112.136 177.2 112.486C176.9 112.826 176.555 113.086 176.165 113.266C175.785 113.446 175.385 113.536 174.965 113.536C174.615 113.536 174.265 113.451 173.915 113.281C173.575 113.111 173.25 112.866 172.94 112.546H172.88L172.7 113.356H170.975V102.841ZM173.18 111.241C173.39 111.421 173.605 111.551 173.825 111.631C174.055 111.701 174.27 111.736 174.47 111.736C174.88 111.736 175.225 111.566 175.505 111.226C175.785 110.876 175.925 110.316 175.925 109.546C175.925 108.206 175.47 107.536 174.56 107.536C174.09 107.536 173.63 107.766 173.18 108.226V111.241ZM179.819 102.841H184.184V110.536C184.184 110.766 184.214 110.961 184.274 111.121C184.344 111.271 184.434 111.396 184.544 111.496C184.664 111.586 184.794 111.651 184.934 111.691C185.084 111.731 185.234 111.751 185.384 111.751C185.554 111.751 185.734 111.736 185.924 111.706C186.114 111.666 186.324 111.601 186.554 111.511L187.049 113.131C186.849 113.191 186.664 113.246 186.494 113.296C186.324 113.346 186.154 113.386 185.984 113.416C185.814 113.456 185.634 113.486 185.444 113.506C185.254 113.526 185.044 113.536 184.814 113.536C183.874 113.536 183.164 113.261 182.684 112.711C182.214 112.151 181.979 111.396 181.979 110.446V104.581H179.819V102.841ZM188.708 109.636C188.708 109.026 188.813 108.481 189.023 108.001C189.243 107.521 189.533 107.116 189.893 106.786C190.253 106.446 190.663 106.186 191.123 106.006C191.593 105.826 192.078 105.736 192.578 105.736C193.148 105.736 193.653 105.826 194.093 106.006C194.533 106.186 194.898 106.436 195.188 106.756C195.478 107.076 195.698 107.456 195.848 107.896C195.998 108.326 196.073 108.796 196.073 109.306C196.073 109.506 196.063 109.696 196.043 109.876C196.023 110.056 196.003 110.191 195.983 110.281H190.973C191.053 110.841 191.293 111.246 191.693 111.496C192.103 111.736 192.583 111.856 193.133 111.856C193.473 111.856 193.793 111.816 194.093 111.736C194.403 111.646 194.723 111.516 195.053 111.346L195.773 112.666C195.353 112.936 194.883 113.151 194.363 113.311C193.843 113.461 193.333 113.536 192.833 113.536C192.253 113.536 191.713 113.451 191.213 113.281C190.713 113.101 190.278 112.846 189.908 112.516C189.538 112.176 189.243 111.766 189.023 111.286C188.813 110.806 188.708 110.256 188.708 109.636ZM194.078 108.826C194.078 108.406 193.963 108.066 193.733 107.806C193.503 107.546 193.133 107.416 192.623 107.416C192.223 107.416 191.868 107.531 191.558 107.761C191.248 107.991 191.043 108.346 190.943 108.826H194.078ZM10.61 125.641H8.73497V124.006L10.715 123.916L11 121.936H12.815V123.916H15.965V125.641H12.815V128.251C12.815 128.821 12.94 129.226 13.19 129.466C13.44 129.696 13.835 129.811 14.375 129.811C14.665 129.811 14.93 129.786 15.17 129.736C15.41 129.686 15.64 129.621 15.86 129.541L16.25 131.131C15.92 131.231 15.55 131.321 15.14 131.401C14.74 131.491 14.3 131.536 13.82 131.536C13.23 131.536 12.73 131.456 12.32 131.296C11.91 131.136 11.575 130.916 11.315 130.636C11.065 130.346 10.885 130.001 10.775 129.601C10.665 129.201 10.61 128.756 10.61 128.266V125.641ZM18.3891 132.436C18.5791 132.496 18.7741 132.526 18.9741 132.526C19.4041 132.526 19.7391 132.436 19.9791 132.256C20.2291 132.076 20.4141 131.841 20.5341 131.551L20.6841 131.161L17.4591 123.916H19.6491L20.8941 127.111C21.0341 127.461 21.1641 127.826 21.2841 128.206C21.4041 128.576 21.5241 128.956 21.6441 129.346H21.7041C21.8041 128.976 21.9141 128.606 22.0341 128.236C22.1541 127.856 22.2691 127.481 22.3791 127.111L23.4741 123.916H25.5591L22.6191 131.431C22.4391 131.901 22.2441 132.311 22.0341 132.661C21.8241 133.021 21.5841 133.316 21.3141 133.546C21.0441 133.786 20.7291 133.966 20.3691 134.086C20.0191 134.206 19.6091 134.266 19.1391 134.266C18.9191 134.266 18.7141 134.251 18.5241 134.221C18.3341 134.201 18.1591 134.166 17.9991 134.116L18.3891 132.436ZM29.2733 131.941V134.116H27.0683V123.916H28.8683L29.0333 124.666H29.0783C29.3783 124.396 29.7233 124.176 30.1133 124.006C30.5033 123.826 30.8983 123.736 31.2983 123.736C31.7583 123.736 32.1733 123.826 32.5433 124.006C32.9133 124.186 33.2283 124.441 33.4883 124.771C33.7483 125.101 33.9433 125.501 34.0733 125.971C34.2133 126.431 34.2833 126.946 34.2833 127.516C34.2833 128.156 34.1933 128.726 34.0133 129.226C33.8333 129.716 33.5933 130.136 33.2933 130.486C32.9933 130.826 32.6483 131.086 32.2583 131.266C31.8783 131.446 31.4783 131.536 31.0583 131.536C30.3783 131.536 29.7583 131.266 29.1983 130.726L29.2733 131.941ZM29.2733 129.241C29.4833 129.421 29.6983 129.551 29.9183 129.631C30.1483 129.701 30.3583 129.736 30.5483 129.736C30.9683 129.736 31.3183 129.566 31.5983 129.226C31.8783 128.876 32.0183 128.316 32.0183 127.546C32.0183 126.206 31.5633 125.536 30.6533 125.536C30.1833 125.536 29.7233 125.766 29.2733 126.226V129.241ZM35.8074 127.636C35.8074 127.026 35.9124 126.481 36.1224 126.001C36.3424 125.521 36.6324 125.116 36.9924 124.786C37.3524 124.446 37.7624 124.186 38.2224 124.006C38.6924 123.826 39.1774 123.736 39.6774 123.736C40.2474 123.736 40.7524 123.826 41.1924 124.006C41.6324 124.186 41.9974 124.436 42.2874 124.756C42.5774 125.076 42.7974 125.456 42.9474 125.896C43.0974 126.326 43.1724 126.796 43.1724 127.306C43.1724 127.506 43.1624 127.696 43.1424 127.876C43.1224 128.056 43.1024 128.191 43.0824 128.281H38.0724C38.1524 128.841 38.3924 129.246 38.7924 129.496C39.2024 129.736 39.6824 129.856 40.2324 129.856C40.5724 129.856 40.8924 129.816 41.1924 129.736C41.5024 129.646 41.8224 129.516 42.1524 129.346L42.8724 130.666C42.4524 130.936 41.9824 131.151 41.4624 131.311C40.9424 131.461 40.4324 131.536 39.9324 131.536C39.3524 131.536 38.8124 131.451 38.3124 131.281C37.8124 131.101 37.3774 130.846 37.0074 130.516C36.6374 130.176 36.3424 129.766 36.1224 129.286C35.9124 128.806 35.8074 128.256 35.8074 127.636ZM41.1774 126.826C41.1774 126.406 41.0624 126.066 40.8324 125.806C40.6024 125.546 40.2324 125.416 39.7224 125.416C39.3224 125.416 38.9674 125.531 38.6574 125.761C38.3474 125.991 38.1424 126.346 38.0424 126.826H41.1774ZM46.7365 124.936C46.7365 124.686 46.7765 124.456 46.8565 124.246C46.9465 124.026 47.0665 123.836 47.2165 123.676C47.3665 123.516 47.5465 123.391 47.7565 123.301C47.9765 123.211 48.2165 123.166 48.4765 123.166C48.7365 123.166 48.9715 123.211 49.1815 123.301C49.4015 123.391 49.5865 123.516 49.7365 123.676C49.8865 123.836 50.0015 124.026 50.0815 124.246C50.1715 124.456 50.2165 124.686 50.2165 124.936C50.2165 125.436 50.0565 125.856 49.7365 126.196C49.4165 126.526 48.9965 126.691 48.4765 126.691C47.9565 126.691 47.5365 126.526 47.2165 126.196C46.8965 125.856 46.7365 125.436 46.7365 124.936ZM46.7365 129.781C46.7365 129.531 46.7765 129.301 46.8565 129.091C46.9465 128.871 47.0665 128.681 47.2165 128.521C47.3665 128.361 47.5465 128.236 47.7565 128.146C47.9765 128.056 48.2165 128.011 48.4765 128.011C48.7365 128.011 48.9715 128.056 49.1815 128.146C49.4015 128.236 49.5865 128.361 49.7365 128.521C49.8865 128.681 50.0015 128.871 50.0815 129.091C50.1715 129.301 50.2165 129.531 50.2165 129.781C50.2165 130.281 50.0565 130.701 49.7365 131.041C49.4165 131.371 48.9965 131.536 48.4765 131.536C47.9565 131.536 47.5365 131.371 47.2165 131.041C46.8965 130.701 46.7365 130.281 46.7365 129.781ZM65.2648 123.256L65.1898 121.081H67.7398L67.6648 123.256L67.1398 126.811H65.7898L65.2648 123.256ZM71.889 120.841H76.254V128.536C76.254 128.766 76.284 128.961 76.344 129.121C76.414 129.271 76.504 129.396 76.614 129.496C76.734 129.586 76.864 129.651 77.004 129.691C77.154 129.731 77.304 129.751 77.454 129.751C77.624 129.751 77.804 129.736 77.994 129.706C78.184 129.666 78.394 129.601 78.624 129.511L79.119 131.131C78.919 131.191 78.734 131.246 78.564 131.296C78.394 131.346 78.224 131.386 78.054 131.416C77.884 131.456 77.704 131.486 77.514 131.506C77.324 131.526 77.114 131.536 76.884 131.536C75.944 131.536 75.234 131.261 74.754 130.711C74.284 130.151 74.049 129.396 74.049 128.446V122.581H71.889V120.841ZM81.1381 123.916H86.3281V131.356H84.1231V125.641H81.1381V123.916ZM85.1281 122.821C84.6981 122.821 84.3431 122.701 84.0631 122.461C83.7931 122.221 83.6581 121.896 83.6581 121.486C83.6581 121.076 83.7931 120.746 84.0631 120.496C84.3431 120.236 84.6981 120.106 85.1281 120.106C85.5581 120.106 85.9081 120.236 86.1781 120.496C86.4581 120.746 86.5981 121.076 86.5981 121.486C86.5981 121.896 86.4581 122.221 86.1781 122.461C85.9081 122.701 85.5581 122.821 85.1281 122.821ZM90.7322 129.016C91.1622 129.286 91.5922 129.501 92.0222 129.661C92.4622 129.821 92.9322 129.901 93.4322 129.901C93.9422 129.901 94.3072 129.846 94.5272 129.736C94.7472 129.626 94.8572 129.471 94.8572 129.271C94.8572 129.041 94.6722 128.856 94.3022 128.716C93.9422 128.566 93.4622 128.406 92.8622 128.236C92.5322 128.146 92.2072 128.041 91.8872 127.921C91.5772 127.791 91.2972 127.641 91.0472 127.471C90.7972 127.291 90.5922 127.086 90.4322 126.856C90.2822 126.626 90.2072 126.361 90.2072 126.061C90.2072 125.721 90.2872 125.406 90.4472 125.116C90.6072 124.826 90.8322 124.581 91.1222 124.381C91.4222 124.181 91.7822 124.026 92.2022 123.916C92.6322 123.796 93.1122 123.736 93.6422 123.736C94.3022 123.736 94.9022 123.846 95.4422 124.066C95.9922 124.276 96.4622 124.506 96.8522 124.756L95.8622 126.076C95.5222 125.876 95.1722 125.711 94.8122 125.581C94.4522 125.441 94.0772 125.371 93.6872 125.371C93.2172 125.371 92.8822 125.421 92.6822 125.521C92.4922 125.621 92.3972 125.766 92.3972 125.956C92.3972 126.066 92.4472 126.166 92.5472 126.256C92.6472 126.346 92.7822 126.426 92.9522 126.496C93.1222 126.566 93.3222 126.636 93.5522 126.706C93.7922 126.766 94.0422 126.831 94.3022 126.901C94.6722 127.001 95.0222 127.116 95.3522 127.246C95.6822 127.366 95.9722 127.511 96.2222 127.681C96.4722 127.851 96.6722 128.056 96.8222 128.296C96.9722 128.536 97.0472 128.816 97.0472 129.136C97.0472 129.476 96.9672 129.791 96.8072 130.081C96.6472 130.371 96.4122 130.626 96.1022 130.846C95.8022 131.056 95.4222 131.226 94.9622 131.356C94.5122 131.476 93.9872 131.536 93.3872 131.536C92.7172 131.536 92.0622 131.426 91.4222 131.206C90.7822 130.986 90.2222 130.716 89.7422 130.396L90.7322 129.016ZM100.551 125.641H98.6764V124.006L100.656 123.916L100.941 121.936H102.756V123.916H105.906V125.641H102.756V128.251C102.756 128.821 102.881 129.226 103.131 129.466C103.381 129.696 103.776 129.811 104.316 129.811C104.606 129.811 104.871 129.786 105.111 129.736C105.351 129.686 105.581 129.621 105.801 129.541L106.191 131.131C105.861 131.231 105.491 131.321 105.081 131.401C104.681 131.491 104.241 131.536 103.761 131.536C103.171 131.536 102.671 131.456 102.261 131.296C101.851 131.136 101.516 130.916 101.256 130.636C101.006 130.346 100.826 130.001 100.716 129.601C100.606 129.201 100.551 128.756 100.551 128.266V125.641ZM110.236 123.256L110.161 121.081H112.711L112.636 123.256L112.111 126.811H110.761L110.236 123.256Z" fill="#D55E00"/>
<rect x="79" width="164" height="31" fill="#333333"/>
<rect x="79" width="164" height="31" fill="#333333"/>
<rect width="79" height="31" fill="#090808"/>
<path d="M12.105 17.8101C12.105 17.5513 11.9756 17.3486 11.7168 17.2021C11.4629 17.0508 11.0527 16.9165 10.4863 16.7993C8.60156 16.4038 7.65918 15.603 7.65918 14.397C7.65918 13.6938 7.94971 13.1079 8.53076 12.6392C9.1167 12.1655 9.88086 11.9287 10.8232 11.9287C11.8291 11.9287 12.6323 12.1655 13.2329 12.6392C13.8384 13.1128 14.1411 13.728 14.1411 14.4849H12.0244C12.0244 14.1821 11.9268 13.9331 11.7314 13.7378C11.5361 13.5376 11.231 13.4375 10.8159 13.4375C10.4595 13.4375 10.1836 13.5181 9.98828 13.6792C9.79297 13.8403 9.69531 14.0454 9.69531 14.2944C9.69531 14.5288 9.80518 14.7192 10.0249 14.8657C10.2495 15.0073 10.6255 15.1318 11.1528 15.2393C11.6802 15.3418 12.1245 15.459 12.4858 15.5908C13.604 16.001 14.1631 16.7114 14.1631 17.7222C14.1631 18.4448 13.853 19.0308 13.2329 19.48C12.6128 19.9243 11.812 20.1465 10.8306 20.1465C10.1665 20.1465 9.57568 20.0293 9.05811 19.7949C8.54541 19.5557 8.14258 19.231 7.84961 18.8208C7.55664 18.4058 7.41016 17.959 7.41016 17.4805H9.41699C9.43652 17.8564 9.57568 18.1445 9.83447 18.3447C10.0933 18.5449 10.4399 18.645 10.8745 18.645C11.2798 18.645 11.585 18.5693 11.79 18.418C12 18.2617 12.105 18.0591 12.105 17.8101ZM18.8286 18.4399C19.2192 18.4399 19.5366 18.3325 19.7808 18.1177C20.0249 17.9028 20.1519 17.6172 20.1616 17.2607H22.1465C22.1416 17.7979 21.9951 18.291 21.707 18.7402C21.4189 19.1846 21.0234 19.5312 20.5205 19.7803C20.0225 20.0244 19.4707 20.1465 18.8652 20.1465C17.7324 20.1465 16.8389 19.7876 16.1846 19.0698C15.5303 18.3472 15.2031 17.3511 15.2031 16.0815V15.9424C15.2031 14.7217 15.5278 13.7476 16.1772 13.02C16.8267 12.2925 17.7178 11.9287 18.8506 11.9287C19.8418 11.9287 20.6353 12.2119 21.231 12.7783C21.8315 13.3398 22.1367 14.0894 22.1465 15.0269H20.1616C20.1519 14.6167 20.0249 14.2847 19.7808 14.0308C19.5366 13.772 19.2144 13.6426 18.814 13.6426C18.3208 13.6426 17.9473 13.8232 17.6934 14.1846C17.4443 14.541 17.3198 15.1221 17.3198 15.9277V16.1475C17.3198 16.9629 17.4443 17.5488 17.6934 17.9053C17.9424 18.2617 18.3208 18.4399 18.8286 18.4399ZM27.8081 14.0601C27.52 14.021 27.2661 14.0015 27.0464 14.0015C26.2456 14.0015 25.7207 14.2725 25.4717 14.8145V20H23.355V12.0752H25.3545L25.4131 13.02C25.8379 12.2925 26.4263 11.9287 27.1782 11.9287C27.4126 11.9287 27.6323 11.9604 27.8374 12.0239L27.8081 14.0601ZM31.0674 20H28.9434V12.0752H31.0674V20ZM28.8188 10.0244C28.8188 9.70703 28.9238 9.4458 29.1338 9.24072C29.3486 9.03564 29.6392 8.93311 30.0054 8.93311C30.3667 8.93311 30.6548 9.03564 30.8696 9.24072C31.0845 9.4458 31.1919 9.70703 31.1919 10.0244C31.1919 10.3467 31.082 10.6104 30.8623 10.8154C30.6475 11.0205 30.3618 11.123 30.0054 11.123C29.6489 11.123 29.3608 11.0205 29.1411 10.8154C28.9263 10.6104 28.8188 10.3467 28.8188 10.0244ZM39.9517 16.1108C39.9517 17.3315 39.6733 18.3105 39.1167 19.0479C38.5649 19.7803 37.8179 20.1465 36.8755 20.1465C36.0747 20.1465 35.4277 19.8682 34.9346 19.3115V23.0469H32.8179V12.0752H34.7808L34.854 12.8516C35.3667 12.2363 36.0356 11.9287 36.8608 11.9287C37.8374 11.9287 38.5967 12.29 39.1387 13.0127C39.6807 13.7354 39.9517 14.7314 39.9517 16.001V16.1108ZM37.835 15.957C37.835 15.2197 37.7031 14.6509 37.4395 14.2505C37.1807 13.8501 36.8022 13.6499 36.3042 13.6499C35.6401 13.6499 35.1836 13.9038 34.9346 14.4116V17.6562C35.1934 18.1787 35.6548 18.4399 36.3188 18.4399C37.3296 18.4399 37.835 17.6123 37.835 15.957ZM43.8042 10.127V12.0752H45.1592V13.6279H43.8042V17.583C43.8042 17.876 43.8604 18.0859 43.9727 18.2129C44.085 18.3398 44.2998 18.4033 44.6172 18.4033C44.8516 18.4033 45.0591 18.3862 45.2397 18.3521V19.9561C44.8247 20.083 44.3975 20.1465 43.958 20.1465C42.4736 20.1465 41.7168 19.397 41.6875 17.8979V13.6279H40.5303V12.0752H41.6875V10.127H43.8042ZM46.4482 18.96C46.4482 18.623 46.5605 18.3496 46.7852 18.1396C47.0146 17.9297 47.3003 17.8247 47.6421 17.8247C47.9888 17.8247 48.2744 17.9297 48.499 18.1396C48.7285 18.3496 48.8433 18.623 48.8433 18.96C48.8433 19.292 48.731 19.563 48.5063 19.7729C48.2817 19.978 47.9937 20.0806 47.6421 20.0806C47.2954 20.0806 47.0098 19.978 46.7852 19.7729C46.5605 19.563 46.4482 19.292 46.4482 18.96ZM57.8374 16.1108C57.8374 17.3315 57.5591 18.3105 57.0024 19.0479C56.4507 19.7803 55.7036 20.1465 54.7612 20.1465C53.9604 20.1465 53.3135 19.8682 52.8203 19.3115V23.0469H50.7036V12.0752H52.6665L52.7397 12.8516C53.2524 12.2363 53.9214 11.9287 54.7466 11.9287C55.7231 11.9287 56.4824 12.29 57.0244 13.0127C57.5664 13.7354 57.8374 14.7314 57.8374 16.001V16.1108ZM55.7207 15.957C55.7207 15.2197 55.5889 14.6509 55.3252 14.2505C55.0664 13.8501 54.688 13.6499 54.1899 13.6499C53.5259 13.6499 53.0693 13.9038 52.8203 14.4116V17.6562C53.0791 18.1787 53.5405 18.4399 54.2046 18.4399C55.2153 18.4399 55.7207 17.6123 55.7207 15.957ZM62.0269 17.0044L63.4917 12.0752H65.7622L62.5762 21.2305L62.4004 21.6479C61.9268 22.6831 61.1455 23.2007 60.0566 23.2007C59.749 23.2007 59.4365 23.1543 59.1191 23.0615V21.4575L59.4414 21.4648C59.8418 21.4648 60.1396 21.4038 60.335 21.2817C60.5352 21.1597 60.6914 20.957 60.8037 20.6738L61.0527 20.022L58.2769 12.0752H60.5547L62.0269 17.0044Z" fill="white"/>
<line y1="-0.5" x2="243" y2="-0.5" transform="matrix(0.999999 0.00129037 -0.00328101 0.999995 0 76)" stroke="white"/>
<path d="M8.08 40.485H10.285V43.065L10.165 44.49C10.315 44.35 10.475 44.215 10.645 44.085C10.825 43.945 11.015 43.825 11.215 43.725C11.425 43.615 11.65 43.53 11.89 43.47C12.14 43.41 12.405 43.38 12.685 43.38C13.525 43.38 14.135 43.65 14.515 44.19C14.905 44.73 15.1 45.47 15.1 46.41V51H12.895V46.695C12.895 46.195 12.815 45.83 12.655 45.6C12.495 45.37 12.21 45.255 11.8 45.255C11.5 45.255 11.235 45.32 11.005 45.45C10.785 45.58 10.545 45.775 10.285 46.035V51H8.08V40.485ZM16.9091 48.93C16.9091 48.51 16.9991 48.145 17.1791 47.835C17.3591 47.515 17.6441 47.245 18.0341 47.025C18.4341 46.805 18.9441 46.63 19.5641 46.5C20.1841 46.36 20.9341 46.265 21.8141 46.215C21.7741 45.875 21.6241 45.61 21.3641 45.42C21.1141 45.23 20.7341 45.135 20.2241 45.135C19.8641 45.135 19.4991 45.2 19.1291 45.33C18.7691 45.45 18.3791 45.615 17.9591 45.825L17.1791 44.385C17.6891 44.095 18.2341 43.855 18.8141 43.665C19.4041 43.475 20.0191 43.38 20.6591 43.38C21.6991 43.38 22.5191 43.655 23.1191 44.205C23.7191 44.755 24.0191 45.6 24.0191 46.74V51H22.2191L22.0541 50.16H21.9941C21.6141 50.45 21.1991 50.695 20.7491 50.895C20.2991 51.085 19.8341 51.18 19.3541 51.18C18.9741 51.18 18.6341 51.12 18.3341 51C18.0341 50.89 17.7791 50.735 17.5691 50.535C17.3591 50.325 17.1941 50.085 17.0741 49.815C16.9641 49.545 16.9091 49.25 16.9091 48.93ZM19.0241 48.765C19.0241 49.005 19.1141 49.185 19.2941 49.305C19.4841 49.415 19.7391 49.47 20.0591 49.47C20.3891 49.47 20.6991 49.405 20.9891 49.275C21.2791 49.135 21.5541 48.965 21.8141 48.765V47.535C21.2641 47.565 20.8091 47.615 20.4491 47.685C20.0891 47.755 19.8041 47.845 19.5941 47.955C19.3841 48.055 19.2341 48.175 19.1441 48.315C19.0641 48.455 19.0241 48.605 19.0241 48.765ZM26.7733 48.66C27.2033 48.93 27.6333 49.145 28.0633 49.305C28.5033 49.465 28.9733 49.545 29.4733 49.545C29.9833 49.545 30.3483 49.49 30.5683 49.38C30.7883 49.27 30.8983 49.115 30.8983 48.915C30.8983 48.685 30.7133 48.5 30.3433 48.36C29.9833 48.21 29.5033 48.05 28.9033 47.88C28.5733 47.79 28.2483 47.685 27.9283 47.565C27.6183 47.435 27.3383 47.285 27.0883 47.115C26.8383 46.935 26.6333 46.73 26.4733 46.5C26.3233 46.27 26.2483 46.005 26.2483 45.705C26.2483 45.365 26.3283 45.05 26.4883 44.76C26.6483 44.47 26.8733 44.225 27.1633 44.025C27.4633 43.825 27.8233 43.67 28.2433 43.56C28.6733 43.44 29.1533 43.38 29.6833 43.38C30.3433 43.38 30.9433 43.49 31.4833 43.71C32.0333 43.92 32.5033 44.15 32.8933 44.4L31.9033 45.72C31.5633 45.52 31.2133 45.355 30.8533 45.225C30.4933 45.085 30.1183 45.015 29.7283 45.015C29.2583 45.015 28.9233 45.065 28.7233 45.165C28.5333 45.265 28.4383 45.41 28.4383 45.6C28.4383 45.71 28.4883 45.81 28.5883 45.9C28.6883 45.99 28.8233 46.07 28.9933 46.14C29.1633 46.21 29.3633 46.28 29.5933 46.35C29.8333 46.41 30.0833 46.475 30.3433 46.545C30.7133 46.645 31.0633 46.76 31.3933 46.89C31.7233 47.01 32.0133 47.155 32.2633 47.325C32.5133 47.495 32.7133 47.7 32.8633 47.94C33.0133 48.18 33.0883 48.46 33.0883 48.78C33.0883 49.12 33.0083 49.435 32.8483 49.725C32.6883 50.015 32.4533 50.27 32.1433 50.49C31.8433 50.7 31.4633 50.87 31.0033 51C30.5533 51.12 30.0283 51.18 29.4283 51.18C28.7583 51.18 28.1033 51.07 27.4633 50.85C26.8233 50.63 26.2633 50.36 25.7833 50.04L26.7733 48.66ZM35.0624 40.485H37.2674V43.065L37.1474 44.49C37.2974 44.35 37.4574 44.215 37.6274 44.085C37.8074 43.945 37.9974 43.825 38.1974 43.725C38.4074 43.615 38.6324 43.53 38.8724 43.47C39.1224 43.41 39.3874 43.38 39.6674 43.38C40.5074 43.38 41.1174 43.65 41.4974 44.19C41.8874 44.73 42.0824 45.47 42.0824 46.41V51H39.8774V46.695C39.8774 46.195 39.7974 45.83 39.6374 45.6C39.4774 45.37 39.1924 45.255 38.7824 45.255C38.4824 45.255 38.2174 45.32 37.9874 45.45C37.7674 45.58 37.5274 45.775 37.2674 46.035V51H35.0624V40.485Z" fill="#56B4E9"/>
<path d="M48.8566 53.685C47.8766 52.815 47.1016 51.81 46.5316 50.67C45.9716 49.53 45.6916 48.25 45.6916 46.83C45.6916 45.41 45.9716 44.13 46.5316 42.99C47.1016 41.85 47.8766 40.845 48.8566 39.975L50.0866 40.95C49.1966 41.82 48.5466 42.725 48.1366 43.665C47.7366 44.595 47.5366 45.65 47.5366 46.83C47.5366 47.42 47.5866 47.98 47.6866 48.51C47.7866 49.03 47.9366 49.53 48.1366 50.01C48.3466 50.49 48.6116 50.95 48.9316 51.39C49.2516 51.84 49.6366 52.28 50.0866 52.71L48.8566 53.685ZM54.9857 40.38H59.4107V41.55H56.6657V52.11H59.4107V53.28H54.9857V40.38ZM72.689 52.965C73.989 52.515 74.639 51.805 74.639 50.835C74.599 50.845 74.544 50.85 74.474 50.85C74.264 50.85 74.059 50.82 73.859 50.76C73.669 50.69 73.499 50.59 73.349 50.46C73.199 50.33 73.079 50.17 72.989 49.98C72.899 49.79 72.854 49.57 72.854 49.32C72.854 48.85 73.014 48.475 73.334 48.195C73.664 47.915 74.064 47.775 74.534 47.775C75.154 47.775 75.619 48.005 75.929 48.465C76.239 48.915 76.394 49.545 76.394 50.355C76.394 51.315 76.129 52.125 75.599 52.785C75.069 53.445 74.284 53.935 73.244 54.255L72.689 52.965ZM90.6773 52.965C91.9773 52.515 92.6273 51.805 92.6273 50.835C92.5873 50.845 92.5323 50.85 92.4623 50.85C92.2523 50.85 92.0473 50.82 91.8473 50.76C91.6573 50.69 91.4873 50.59 91.3373 50.46C91.1873 50.33 91.0673 50.17 90.9773 49.98C90.8873 49.79 90.8423 49.57 90.8423 49.32C90.8423 48.85 91.0023 48.475 91.3223 48.195C91.6523 47.915 92.0523 47.775 92.5223 47.775C93.1423 47.775 93.6073 48.005 93.9173 48.465C94.2273 48.915 94.3823 49.545 94.3823 50.355C94.3823 51.315 94.1173 52.125 93.5873 52.785C93.0573 53.445 92.2723 53.935 91.2323 54.255L90.6773 52.965ZM110.241 52.11V41.55H107.511V40.38H111.936V53.28H107.511V52.11H110.241ZM116.82 52.71C117.27 52.28 117.655 51.84 117.975 51.39C118.295 50.95 118.555 50.49 118.755 50.01C118.965 49.53 119.12 49.03 119.22 48.51C119.32 47.98 119.37 47.42 119.37 46.83C119.37 45.65 119.165 44.595 118.755 43.665C118.355 42.725 117.71 41.82 116.82 40.95L118.05 39.975C119.03 40.845 119.8 41.85 120.36 42.99C120.93 44.13 121.215 45.41 121.215 46.83C121.215 48.25 120.93 49.53 120.36 50.67C119.8 51.81 119.03 52.815 118.05 53.685L116.82 52.71Z" fill="white"/>
<path d="M69.0198 49.215V51H62.1948V49.215H64.6548V43.71H62.6898V42.345C63.2498 42.245 63.7248 42.125 64.1148 41.985C64.5148 41.845 64.8898 41.675 65.2398 41.475H66.8598V49.215H69.0198ZM79.8231 49.74C80.5031 49.17 81.1231 48.64 81.6831 48.15C82.2431 47.65 82.7231 47.185 83.1231 46.755C83.5231 46.325 83.8331 45.92 84.0531 45.54C84.2731 45.16 84.3831 44.8 84.3831 44.46C84.3831 43.99 84.2481 43.635 83.9781 43.395C83.7081 43.145 83.3231 43.02 82.8231 43.02C82.4431 43.02 82.0931 43.12 81.7731 43.32C81.4631 43.51 81.1731 43.735 80.9031 43.995L79.7181 42.81C79.9681 42.56 80.2131 42.34 80.4531 42.15C80.7031 41.96 80.9631 41.805 81.2331 41.685C81.5131 41.555 81.8031 41.46 82.1031 41.4C82.4131 41.33 82.7531 41.295 83.1231 41.295C83.6231 41.295 84.0781 41.37 84.4881 41.52C84.8981 41.66 85.2481 41.865 85.5381 42.135C85.8381 42.395 86.0681 42.71 86.2281 43.08C86.3981 43.45 86.4831 43.865 86.4831 44.325C86.4831 44.725 86.3881 45.135 86.1981 45.555C86.0081 45.965 85.7481 46.38 85.4181 46.8C85.0981 47.21 84.7281 47.625 84.3081 48.045C83.8881 48.455 83.4481 48.86 82.9881 49.26C83.2581 49.23 83.5481 49.205 83.8581 49.185C84.1781 49.155 84.4631 49.14 84.7131 49.14H86.9781V51H79.8231V49.74ZM98.5914 48.435C98.9114 48.715 99.2664 48.945 99.6564 49.125C100.056 49.305 100.476 49.395 100.916 49.395C101.436 49.395 101.861 49.3 102.191 49.11C102.531 48.91 102.701 48.63 102.701 48.27C102.701 48.06 102.656 47.87 102.566 47.7C102.476 47.53 102.321 47.39 102.101 47.28C101.881 47.16 101.586 47.07 101.216 47.01C100.846 46.94 100.381 46.905 99.8214 46.905V45.345C100.761 45.345 101.421 45.23 101.801 45C102.191 44.76 102.386 44.45 102.386 44.07C102.386 43.74 102.261 43.485 102.011 43.305C101.761 43.115 101.416 43.02 100.976 43.02C100.596 43.02 100.246 43.095 99.9264 43.245C99.6064 43.395 99.2814 43.6 98.9514 43.86L97.8414 42.51C98.3114 42.13 98.8114 41.835 99.3414 41.625C99.8814 41.405 100.461 41.295 101.081 41.295C101.601 41.295 102.076 41.355 102.506 41.475C102.936 41.585 103.306 41.755 103.616 41.985C103.926 42.205 104.166 42.475 104.336 42.795C104.506 43.115 104.591 43.485 104.591 43.905C104.591 44.405 104.431 44.83 104.111 45.18C103.791 45.52 103.346 45.8 102.776 46.02V46.08C103.376 46.24 103.881 46.515 104.291 46.905C104.701 47.285 104.906 47.785 104.906 48.405C104.906 48.845 104.801 49.24 104.591 49.59C104.391 49.93 104.116 50.22 103.766 50.46C103.426 50.69 103.026 50.87 102.566 51C102.106 51.12 101.626 51.18 101.126 51.18C100.306 51.18 99.6014 51.06 99.0114 50.82C98.4214 50.57 97.9414 50.24 97.5714 49.83L98.5914 48.435Z" fill="#F0E442"/>
<rect x="267" width="243" height="152" fill="black"/>
<path d="M279.5 94.5359C278.92 94.5359 278.385 94.4209 277.895 94.1909C277.415 93.9509 277 93.6109 276.65 93.1709C276.31 92.7309 276.045 92.1959 275.855 91.5659C275.665 90.9359 275.57 90.2209 275.57 89.4209C275.57 88.6209 275.665 87.9109 275.855 87.2909C276.045 86.6609 276.31 86.1359 276.65 85.7159C277 85.2859 277.415 84.9609 277.895 84.7409C278.385 84.5109 278.92 84.3959 279.5 84.3959C280.08 84.3959 280.61 84.5109 281.09 84.7409C281.58 84.9609 281.995 85.2859 282.335 85.7159C282.685 86.1459 282.955 86.6759 283.145 87.3059C283.335 87.9259 283.43 88.6309 283.43 89.4209C283.43 90.2209 283.335 90.9359 283.145 91.5659C282.955 92.1959 282.685 92.7309 282.335 93.1709C281.995 93.6109 281.58 93.9509 281.09 94.1909C280.61 94.4209 280.08 94.5359 279.5 94.5359ZM279.5 92.6309C280.01 92.6309 280.415 92.3459 280.715 91.7759C281.015 91.1959 281.165 90.4109 281.165 89.4209C281.165 88.4409 281.015 87.6759 280.715 87.1259C280.415 86.5759 280.01 86.3009 279.5 86.3009C278.99 86.3009 278.585 86.5759 278.285 87.1259C277.985 87.6759 277.835 88.4409 277.835 89.4209C277.835 90.4109 277.985 91.1959 278.285 91.7759C278.585 92.3459 278.99 92.6309 279.5 92.6309ZM291.869 94.3559H290.069L289.904 93.2909H289.844C289.514 93.6709 289.149 93.9759 288.749 94.2059C288.349 94.4259 287.879 94.5359 287.339 94.5359C286.489 94.5359 285.874 94.2659 285.494 93.7259C285.114 93.1859 284.924 92.4459 284.924 91.5059V86.9159H287.129V91.2209C287.129 91.7209 287.204 92.0859 287.354 92.3159C287.504 92.5459 287.789 92.6609 288.209 92.6609C288.489 92.6609 288.734 92.6009 288.944 92.4809C289.164 92.3609 289.404 92.1359 289.664 91.8059V86.9159H291.869V94.3559ZM295.598 88.6409H293.723V87.0059L295.703 86.9159L295.988 84.9359H297.803V86.9159H300.953V88.6409H297.803V91.2509C297.803 91.8209 297.928 92.2259 298.178 92.4659C298.428 92.6959 298.823 92.8109 299.363 92.8109C299.653 92.8109 299.918 92.7859 300.158 92.7359C300.398 92.6859 300.628 92.6209 300.848 92.5409L301.238 94.1309C300.908 94.2309 300.538 94.3209 300.128 94.4009C299.728 94.4909 299.288 94.5359 298.808 94.5359C298.218 94.5359 297.718 94.4559 297.308 94.2959C296.898 94.1359 296.563 93.9159 296.303 93.6359C296.053 93.3459 295.873 93.0009 295.763 92.6009C295.653 92.2009 295.598 91.7559 295.598 91.2659V88.6409ZM305.267 94.9409V97.1159H303.062V86.9159H304.862L305.027 87.6659H305.072C305.372 87.3959 305.717 87.1759 306.107 87.0059C306.497 86.8259 306.892 86.7359 307.292 86.7359C307.752 86.7359 308.167 86.8259 308.537 87.0059C308.907 87.1859 309.222 87.4409 309.482 87.7709C309.742 88.1009 309.937 88.5009 310.067 88.9709C310.207 89.4309 310.277 89.9459 310.277 90.5159C310.277 91.1559 310.187 91.7259 310.007 92.2259C309.827 92.7159 309.587 93.1359 309.287 93.4859C308.987 93.8259 308.642 94.0859 308.252 94.2659C307.872 94.4459 307.472 94.5359 307.052 94.5359C306.372 94.5359 305.752 94.2659 305.192 93.7259L305.267 94.9409ZM305.267 92.2409C305.477 92.4209 305.692 92.5509 305.912 92.6309C306.142 92.7009 306.352 92.7359 306.542 92.7359C306.962 92.7359 307.312 92.5659 307.592 92.2259C307.872 91.8759 308.012 91.3159 308.012 90.5459C308.012 89.2059 307.557 88.5359 306.647 88.5359C306.177 88.5359 305.717 88.7659 305.267 89.2259V92.2409ZM318.852 94.3559H317.052L316.887 93.2909H316.827C316.497 93.6709 316.132 93.9759 315.732 94.2059C315.332 94.4259 314.862 94.5359 314.322 94.5359C313.472 94.5359 312.857 94.2659 312.477 93.7259C312.097 93.1859 311.907 92.4459 311.907 91.5059V86.9159H314.112V91.2209C314.112 91.7209 314.187 92.0859 314.337 92.3159C314.487 92.5459 314.772 92.6609 315.192 92.6609C315.472 92.6609 315.717 92.6009 315.927 92.4809C316.147 92.3609 316.387 92.1359 316.647 91.8059V86.9159H318.852V94.3559ZM322.581 88.6409H320.706V87.0059L322.686 86.9159L322.971 84.9359H324.786V86.9159H327.936V88.6409H324.786V91.2509C324.786 91.8209 324.911 92.2259 325.161 92.4659C325.411 92.6959 325.806 92.8109 326.346 92.8109C326.636 92.8109 326.901 92.7859 327.141 92.7359C327.381 92.6859 327.611 92.6209 327.831 92.5409L328.221 94.1309C327.891 94.2309 327.521 94.3209 327.111 94.4009C326.711 94.4909 326.271 94.5359 325.791 94.5359C325.201 94.5359 324.701 94.4559 324.291 94.2959C323.881 94.1359 323.546 93.9159 323.286 93.6359C323.036 93.3459 322.856 93.0009 322.746 92.6009C322.636 92.2009 322.581 91.7559 322.581 91.2659V88.6409Z" fill="white"/>
<path d="M278.39 105.436H275.465V103.576H283.535V105.436H280.61V113.356H278.39V105.436ZM285.389 114.436C285.579 114.496 285.774 114.526 285.974 114.526C286.404 114.526 286.739 114.436 286.979 114.256C287.229 114.076 287.414 113.841 287.534 113.551L287.684 113.161L284.459 105.916H286.649L287.894 109.111C288.034 109.461 288.164 109.826 288.284 110.206C288.404 110.576 288.524 110.956 288.644 111.346H288.704C288.804 110.976 288.914 110.606 289.034 110.236C289.154 109.856 289.269 109.481 289.379 109.111L290.474 105.916H292.559L289.619 113.431C289.439 113.901 289.244 114.311 289.034 114.661C288.824 115.021 288.584 115.316 288.314 115.546C288.044 115.786 287.729 115.966 287.369 116.086C287.019 116.206 286.609 116.266 286.139 116.266C285.919 116.266 285.714 116.251 285.524 116.221C285.334 116.201 285.159 116.166 284.999 116.116L285.389 114.436ZM296.273 113.941V116.116H294.068V105.916H295.868L296.033 106.666H296.078C296.378 106.396 296.723 106.176 297.113 106.006C297.503 105.826 297.898 105.736 298.298 105.736C298.758 105.736 299.173 105.826 299.543 106.006C299.913 106.186 300.228 106.441 300.488 106.771C300.748 107.101 300.943 107.501 301.073 107.971C301.213 108.431 301.283 108.946 301.283 109.516C301.283 110.156 301.193 110.726 301.013 111.226C300.833 111.716 300.593 112.136 300.293 112.486C299.993 112.826 299.648 113.086 299.258 113.266C298.878 113.446 298.478 113.536 298.058 113.536C297.378 113.536 296.758 113.266 296.198 112.726L296.273 113.941ZM296.273 111.241C296.483 111.421 296.698 111.551 296.918 111.631C297.148 111.701 297.358 111.736 297.548 111.736C297.968 111.736 298.318 111.566 298.598 111.226C298.878 110.876 299.018 110.316 299.018 109.546C299.018 108.206 298.563 107.536 297.653 107.536C297.183 107.536 296.723 107.766 296.273 108.226V111.241ZM302.807 109.636C302.807 109.026 302.912 108.481 303.122 108.001C303.342 107.521 303.632 107.116 303.992 106.786C304.352 106.446 304.762 106.186 305.222 106.006C305.692 105.826 306.177 105.736 306.677 105.736C307.247 105.736 307.752 105.826 308.192 106.006C308.632 106.186 308.997 106.436 309.287 106.756C309.577 107.076 309.797 107.456 309.947 107.896C310.097 108.326 310.172 108.796 310.172 109.306C310.172 109.506 310.162 109.696 310.142 109.876C310.122 110.056 310.102 110.191 310.082 110.281H305.072C305.152 110.841 305.392 111.246 305.792 111.496C306.202 111.736 306.682 111.856 307.232 111.856C307.572 111.856 307.892 111.816 308.192 111.736C308.502 111.646 308.822 111.516 309.152 111.346L309.872 112.666C309.452 112.936 308.982 113.151 308.462 113.311C307.942 113.461 307.432 113.536 306.932 113.536C306.352 113.536 305.812 113.451 305.312 113.281C304.812 113.101 304.377 112.846 304.007 112.516C303.637 112.176 303.342 111.766 303.122 111.286C302.912 110.806 302.807 110.256 302.807 109.636ZM308.177 108.826C308.177 108.406 308.062 108.066 307.832 107.806C307.602 107.546 307.232 107.416 306.722 107.416C306.322 107.416 305.967 107.531 305.657 107.761C305.347 107.991 305.142 108.346 305.042 108.826H308.177ZM312.387 103.576H318.837V105.436H314.592V107.401H318.192V109.246H314.592V111.496H318.987V113.356H312.387V103.576ZM321.711 105.916H323.511L323.691 107.536H323.736C324.106 106.926 324.551 106.476 325.071 106.186C325.591 105.886 326.151 105.736 326.751 105.736C327.081 105.736 327.346 105.761 327.546 105.811C327.756 105.861 327.971 105.936 328.191 106.036L327.741 107.881C327.511 107.811 327.301 107.761 327.111 107.731C326.931 107.691 326.701 107.671 326.421 107.671C325.961 107.671 325.506 107.806 325.056 108.076C324.616 108.346 324.236 108.816 323.916 109.486V113.356H321.711V105.916ZM330.705 105.916H332.505L332.685 107.536H332.73C333.1 106.926 333.545 106.476 334.065 106.186C334.585 105.886 335.145 105.736 335.745 105.736C336.075 105.736 336.34 105.761 336.54 105.811C336.75 105.861 336.965 105.936 337.185 106.036L336.735 107.881C336.505 107.811 336.295 107.761 336.105 107.731C335.925 107.691 335.695 107.671 335.415 107.671C334.955 107.671 334.5 107.806 334.05 108.076C333.61 108.346 333.23 108.816 332.91 109.486V113.356H330.705V105.916ZM338.664 109.636C338.664 109.016 338.769 108.466 338.979 107.986C339.189 107.496 339.469 107.086 339.819 106.756C340.179 106.426 340.584 106.176 341.034 106.006C341.494 105.826 341.969 105.736 342.459 105.736C342.949 105.736 343.419 105.826 343.869 106.006C344.329 106.176 344.734 106.426 345.084 106.756C345.444 107.086 345.729 107.496 345.939 107.986C346.149 108.466 346.254 109.016 346.254 109.636C346.254 110.256 346.149 110.811 345.939 111.301C345.729 111.781 345.444 112.186 345.084 112.516C344.734 112.846 344.329 113.101 343.869 113.281C343.419 113.451 342.949 113.536 342.459 113.536C341.969 113.536 341.494 113.451 341.034 113.281C340.584 113.101 340.179 112.846 339.819 112.516C339.469 112.186 339.189 111.781 338.979 111.301C338.769 110.811 338.664 110.256 338.664 109.636ZM340.929 109.636C340.929 110.286 341.054 110.801 341.304 111.181C341.564 111.561 341.949 111.751 342.459 111.751C342.969 111.751 343.349 111.561 343.599 111.181C343.859 110.801 343.989 110.286 343.989 109.636C343.989 108.986 343.859 108.471 343.599 108.091C343.349 107.711 342.969 107.521 342.459 107.521C341.949 107.521 341.564 107.711 341.304 108.091C341.054 108.471 340.929 108.986 340.929 109.636ZM348.693 105.916H350.493L350.673 107.536H350.718C351.088 106.926 351.533 106.476 352.053 106.186C352.573 105.886 353.133 105.736 353.733 105.736C354.063 105.736 354.328 105.761 354.528 105.811C354.738 105.861 354.953 105.936 355.173 106.036L354.723 107.881C354.493 107.811 354.283 107.761 354.093 107.731C353.913 107.691 353.683 107.671 353.403 107.671C352.943 107.671 352.488 107.806 352.038 108.076C351.598 108.346 351.218 108.816 350.898 109.486V113.356H348.693V105.916ZM358.707 106.936C358.707 106.686 358.747 106.456 358.827 106.246C358.917 106.026 359.037 105.836 359.187 105.676C359.337 105.516 359.517 105.391 359.727 105.301C359.947 105.211 360.187 105.166 360.447 105.166C360.707 105.166 360.942 105.211 361.152 105.301C361.372 105.391 361.557 105.516 361.707 105.676C361.857 105.836 361.972 106.026 362.052 106.246C362.142 106.456 362.187 106.686 362.187 106.936C362.187 107.436 362.027 107.856 361.707 108.196C361.387 108.526 360.967 108.691 360.447 108.691C359.927 108.691 359.507 108.526 359.187 108.196C358.867 107.856 358.707 107.436 358.707 106.936ZM358.707 111.781C358.707 111.531 358.747 111.301 358.827 111.091C358.917 110.871 359.037 110.681 359.187 110.521C359.337 110.361 359.517 110.236 359.727 110.146C359.947 110.056 360.187 110.011 360.447 110.011C360.707 110.011 360.942 110.056 361.152 110.146C361.372 110.236 361.557 110.361 361.707 110.521C361.857 110.681 361.972 110.871 362.052 111.091C362.142 111.301 362.187 111.531 362.187 111.781C362.187 112.281 362.027 112.701 361.707 113.041C361.387 113.371 360.967 113.536 360.447 113.536C359.927 113.536 359.507 113.371 359.187 113.041C358.867 112.701 358.707 112.281 358.707 111.781ZM381.811 113.356H380.011L379.846 112.291H379.786C379.456 112.671 379.091 112.976 378.691 113.206C378.291 113.426 377.821 113.536 377.281 113.536C376.431 113.536 375.816 113.266 375.436 112.726C375.056 112.186 374.866 111.446 374.866 110.506V105.916H377.071V110.221C377.071 110.721 377.146 111.086 377.296 111.316C377.446 111.546 377.731 111.661 378.151 111.661C378.431 111.661 378.676 111.601 378.886 111.481C379.106 111.361 379.346 111.136 379.606 110.806V105.916H381.811V113.356ZM384.01 105.916H385.81L385.975 106.906H386.035C386.355 106.586 386.72 106.311 387.13 106.081C387.55 105.851 388.04 105.736 388.6 105.736C389.44 105.736 390.055 106.006 390.445 106.546C390.835 107.086 391.03 107.826 391.03 108.766V113.356H388.825V109.051C388.825 108.551 388.745 108.186 388.585 107.956C388.425 107.726 388.14 107.611 387.73 107.611C387.43 107.611 387.165 107.676 386.935 107.806C386.715 107.936 386.475 108.131 386.215 108.391V113.356H384.01V105.916ZM393.004 102.841H395.209V105.421L395.089 106.846C395.239 106.706 395.399 106.571 395.569 106.441C395.749 106.301 395.939 106.181 396.139 106.081C396.349 105.971 396.574 105.886 396.814 105.826C397.064 105.766 397.329 105.736 397.609 105.736C398.449 105.736 399.059 106.006 399.439 106.546C399.829 107.086 400.024 107.826 400.024 108.766V113.356H397.819V109.051C397.819 108.551 397.739 108.186 397.579 107.956C397.419 107.726 397.134 107.611 396.724 107.611C396.424 107.611 396.159 107.676 395.929 107.806C395.709 107.936 395.469 108.131 395.209 108.391V113.356H393.004V102.841ZM401.833 111.286C401.833 110.866 401.923 110.501 402.103 110.191C402.283 109.871 402.568 109.601 402.958 109.381C403.358 109.161 403.868 108.986 404.488 108.856C405.108 108.716 405.858 108.621 406.738 108.571C406.698 108.231 406.548 107.966 406.288 107.776C406.038 107.586 405.658 107.491 405.148 107.491C404.788 107.491 404.423 107.556 404.053 107.686C403.693 107.806 403.303 107.971 402.883 108.181L402.103 106.741C402.613 106.451 403.158 106.211 403.738 106.021C404.328 105.831 404.943 105.736 405.583 105.736C406.623 105.736 407.443 106.011 408.043 106.561C408.643 107.111 408.943 107.956 408.943 109.096V113.356H407.143L406.978 112.516H406.918C406.538 112.806 406.123 113.051 405.673 113.251C405.223 113.441 404.758 113.536 404.278 113.536C403.898 113.536 403.558 113.476 403.258 113.356C402.958 113.246 402.703 113.091 402.493 112.891C402.283 112.681 402.118 112.441 401.998 112.171C401.888 111.901 401.833 111.606 401.833 111.286ZM403.948 111.121C403.948 111.361 404.038 111.541 404.218 111.661C404.408 111.771 404.663 111.826 404.983 111.826C405.313 111.826 405.623 111.761 405.913 111.631C406.203 111.491 406.478 111.321 406.738 111.121V109.891C406.188 109.921 405.733 109.971 405.373 110.041C405.013 110.111 404.728 110.201 404.518 110.311C404.308 110.411 404.158 110.531 404.068 110.671C403.988 110.811 403.948 110.961 403.948 111.121ZM411.697 111.016C412.127 111.286 412.557 111.501 412.987 111.661C413.427 111.821 413.897 111.901 414.397 111.901C414.907 111.901 415.272 111.846 415.492 111.736C415.712 111.626 415.822 111.471 415.822 111.271C415.822 111.041 415.637 110.856 415.267 110.716C414.907 110.566 414.427 110.406 413.827 110.236C413.497 110.146 413.172 110.041 412.852 109.921C412.542 109.791 412.262 109.641 412.012 109.471C411.762 109.291 411.557 109.086 411.397 108.856C411.247 108.626 411.172 108.361 411.172 108.061C411.172 107.721 411.252 107.406 411.412 107.116C411.572 106.826 411.797 106.581 412.087 106.381C412.387 106.181 412.747 106.026 413.167 105.916C413.597 105.796 414.077 105.736 414.607 105.736C415.267 105.736 415.867 105.846 416.407 106.066C416.957 106.276 417.427 106.506 417.817 106.756L416.827 108.076C416.487 107.876 416.137 107.711 415.777 107.581C415.417 107.441 415.042 107.371 414.652 107.371C414.182 107.371 413.847 107.421 413.647 107.521C413.457 107.621 413.362 107.766 413.362 107.956C413.362 108.066 413.412 108.166 413.512 108.256C413.612 108.346 413.747 108.426 413.917 108.496C414.087 108.566 414.287 108.636 414.517 108.706C414.757 108.766 415.007 108.831 415.267 108.901C415.637 109.001 415.987 109.116 416.317 109.246C416.647 109.366 416.937 109.511 417.187 109.681C417.437 109.851 417.637 110.056 417.787 110.296C417.937 110.536 418.012 110.816 418.012 111.136C418.012 111.476 417.932 111.791 417.772 112.081C417.612 112.371 417.377 112.626 417.067 112.846C416.767 113.056 416.387 113.226 415.927 113.356C415.477 113.476 414.952 113.536 414.352 113.536C413.682 113.536 413.027 113.426 412.387 113.206C411.747 112.986 411.187 112.716 410.707 112.396L411.697 111.016ZM419.986 102.841H422.191V105.421L422.071 106.846C422.221 106.706 422.381 106.571 422.551 106.441C422.731 106.301 422.921 106.181 423.121 106.081C423.331 105.971 423.556 105.886 423.796 105.826C424.046 105.766 424.311 105.736 424.591 105.736C425.431 105.736 426.041 106.006 426.421 106.546C426.811 107.086 427.006 107.826 427.006 108.766V113.356H424.801V109.051C424.801 108.551 424.721 108.186 424.561 107.956C424.401 107.726 424.116 107.611 423.706 107.611C423.406 107.611 423.141 107.676 422.911 107.806C422.691 107.936 422.451 108.131 422.191 108.391V113.356H419.986V102.841ZM428.815 111.286C428.815 110.866 428.905 110.501 429.085 110.191C429.265 109.871 429.55 109.601 429.94 109.381C430.34 109.161 430.85 108.986 431.47 108.856C432.09 108.716 432.84 108.621 433.72 108.571C433.68 108.231 433.53 107.966 433.27 107.776C433.02 107.586 432.64 107.491 432.13 107.491C431.77 107.491 431.405 107.556 431.035 107.686C430.675 107.806 430.285 107.971 429.865 108.181L429.085 106.741C429.595 106.451 430.14 106.211 430.72 106.021C431.31 105.831 431.925 105.736 432.565 105.736C433.605 105.736 434.425 106.011 435.025 106.561C435.625 107.111 435.925 107.956 435.925 109.096V113.356H434.125L433.96 112.516H433.9C433.52 112.806 433.105 113.051 432.655 113.251C432.205 113.441 431.74 113.536 431.26 113.536C430.88 113.536 430.54 113.476 430.24 113.356C429.94 113.246 429.685 113.091 429.475 112.891C429.265 112.681 429.1 112.441 428.98 112.171C428.87 111.901 428.815 111.606 428.815 111.286ZM430.93 111.121C430.93 111.361 431.02 111.541 431.2 111.661C431.39 111.771 431.645 111.826 431.965 111.826C432.295 111.826 432.605 111.761 432.895 111.631C433.185 111.491 433.46 111.321 433.72 111.121V109.891C433.17 109.921 432.715 109.971 432.355 110.041C431.995 110.111 431.71 110.201 431.5 110.311C431.29 110.411 431.14 110.531 431.05 110.671C430.97 110.811 430.93 110.961 430.93 111.121ZM437.975 102.841H440.18V105.421L440.12 106.591C440.41 106.321 440.735 106.111 441.095 105.961C441.465 105.811 441.83 105.736 442.19 105.736C442.65 105.736 443.065 105.826 443.435 106.006C443.815 106.186 444.13 106.441 444.38 106.771C444.64 107.091 444.84 107.486 444.98 107.956C445.12 108.416 445.19 108.931 445.19 109.501C445.19 110.141 445.1 110.711 444.92 111.211C444.74 111.711 444.5 112.136 444.2 112.486C443.9 112.826 443.555 113.086 443.165 113.266C442.785 113.446 442.385 113.536 441.965 113.536C441.615 113.536 441.265 113.451 440.915 113.281C440.575 113.111 440.25 112.866 439.94 112.546H439.88L439.7 113.356H437.975V102.841ZM440.18 111.241C440.39 111.421 440.605 111.551 440.825 111.631C441.055 111.701 441.27 111.736 441.47 111.736C441.88 111.736 442.225 111.566 442.505 111.226C442.785 110.876 442.925 110.316 442.925 109.546C442.925 108.206 442.47 107.536 441.56 107.536C441.09 107.536 440.63 107.766 440.18 108.226V111.241ZM446.819 102.841H451.184V110.536C451.184 110.766 451.214 110.961 451.274 111.121C451.344 111.271 451.434 111.396 451.544 111.496C451.664 111.586 451.794 111.651 451.934 111.691C452.084 111.731 452.234 111.751 452.384 111.751C452.554 111.751 452.734 111.736 452.924 111.706C453.114 111.666 453.324 111.601 453.554 111.511L454.049 113.131C453.849 113.191 453.664 113.246 453.494 113.296C453.324 113.346 453.154 113.386 452.984 113.416C452.814 113.456 452.634 113.486 452.444 113.506C452.254 113.526 452.044 113.536 451.814 113.536C450.874 113.536 450.164 113.261 449.684 112.711C449.214 112.151 448.979 111.396 448.979 110.446V104.581H446.819V102.841ZM455.708 109.636C455.708 109.026 455.813 108.481 456.023 108.001C456.243 107.521 456.533 107.116 456.893 106.786C457.253 106.446 457.663 106.186 458.123 106.006C458.593 105.826 459.078 105.736 459.578 105.736C460.148 105.736 460.653 105.826 461.093 106.006C461.533 106.186 461.898 106.436 462.188 106.756C462.478 107.076 462.698 107.456 462.848 107.896C462.998 108.326 463.073 108.796 463.073 109.306C463.073 109.506 463.063 109.696 463.043 109.876C463.023 110.056 463.003 110.191 462.983 110.281H457.973C458.053 110.841 458.293 111.246 458.693 111.496C459.103 111.736 459.583 111.856 460.133 111.856C460.473 111.856 460.793 111.816 461.093 111.736C461.403 111.646 461.723 111.516 462.053 111.346L462.773 112.666C462.353 112.936 461.883 113.151 461.363 113.311C460.843 113.461 460.333 113.536 459.833 113.536C459.253 113.536 458.713 113.451 458.213 113.281C457.713 113.101 457.278 112.846 456.908 112.516C456.538 112.176 456.243 111.766 456.023 111.286C455.813 110.806 455.708 110.256 455.708 109.636ZM461.078 108.826C461.078 108.406 460.963 108.066 460.733 107.806C460.503 107.546 460.133 107.416 459.623 107.416C459.223 107.416 458.868 107.531 458.558 107.761C458.248 107.991 458.043 108.346 457.943 108.826H461.078ZM277.61 125.641H275.735V124.006L277.715 123.916L278 121.936H279.815V123.916H282.965V125.641H279.815V128.251C279.815 128.821 279.94 129.226 280.19 129.466C280.44 129.696 280.835 129.811 281.375 129.811C281.665 129.811 281.93 129.786 282.17 129.736C282.41 129.686 282.64 129.621 282.86 129.541L283.25 131.131C282.92 131.231 282.55 131.321 282.14 131.401C281.74 131.491 281.3 131.536 280.82 131.536C280.23 131.536 279.73 131.456 279.32 131.296C278.91 131.136 278.575 130.916 278.315 130.636C278.065 130.346 277.885 130.001 277.775 129.601C277.665 129.201 277.61 128.756 277.61 128.266V125.641ZM285.389 132.436C285.579 132.496 285.774 132.526 285.974 132.526C286.404 132.526 286.739 132.436 286.979 132.256C287.229 132.076 287.414 131.841 287.534 131.551L287.684 131.161L284.459 123.916H286.649L287.894 127.111C288.034 127.461 288.164 127.826 288.284 128.206C288.404 128.576 288.524 128.956 288.644 129.346H288.704C288.804 128.976 288.914 128.606 289.034 128.236C289.154 127.856 289.269 127.481 289.379 127.111L290.474 123.916H292.559L289.619 131.431C289.439 131.901 289.244 132.311 289.034 132.661C288.824 133.021 288.584 133.316 288.314 133.546C288.044 133.786 287.729 133.966 287.369 134.086C287.019 134.206 286.609 134.266 286.139 134.266C285.919 134.266 285.714 134.251 285.524 134.221C285.334 134.201 285.159 134.166 284.999 134.116L285.389 132.436ZM296.273 131.941V134.116H294.068V123.916H295.868L296.033 124.666H296.078C296.378 124.396 296.723 124.176 297.113 124.006C297.503 123.826 297.898 123.736 298.298 123.736C298.758 123.736 299.173 123.826 299.543 124.006C299.913 124.186 300.228 124.441 300.488 124.771C300.748 125.101 300.943 125.501 301.073 125.971C301.213 126.431 301.283 126.946 301.283 127.516C301.283 128.156 301.193 128.726 301.013 129.226C300.833 129.716 300.593 130.136 300.293 130.486C299.993 130.826 299.648 131.086 299.258 131.266C298.878 131.446 298.478 131.536 298.058 131.536C297.378 131.536 296.758 131.266 296.198 130.726L296.273 131.941ZM296.273 129.241C296.483 129.421 296.698 129.551 296.918 129.631C297.148 129.701 297.358 129.736 297.548 129.736C297.968 129.736 298.318 129.566 298.598 129.226C298.878 128.876 299.018 128.316 299.018 127.546C299.018 126.206 298.563 125.536 297.653 125.536C297.183 125.536 296.723 125.766 296.273 126.226V129.241ZM302.807 127.636C302.807 127.026 302.912 126.481 303.122 126.001C303.342 125.521 303.632 125.116 303.992 124.786C304.352 124.446 304.762 124.186 305.222 124.006C305.692 123.826 306.177 123.736 306.677 123.736C307.247 123.736 307.752 123.826 308.192 124.006C308.632 124.186 308.997 124.436 309.287 124.756C309.577 125.076 309.797 125.456 309.947 125.896C310.097 126.326 310.172 126.796 310.172 127.306C310.172 127.506 310.162 127.696 310.142 127.876C310.122 128.056 310.102 128.191 310.082 128.281H305.072C305.152 128.841 305.392 129.246 305.792 129.496C306.202 129.736 306.682 129.856 307.232 129.856C307.572 129.856 307.892 129.816 308.192 129.736C308.502 129.646 308.822 129.516 309.152 129.346L309.872 130.666C309.452 130.936 308.982 131.151 308.462 131.311C307.942 131.461 307.432 131.536 306.932 131.536C306.352 131.536 305.812 131.451 305.312 131.281C304.812 131.101 304.377 130.846 304.007 130.516C303.637 130.176 303.342 129.766 303.122 129.286C302.912 128.806 302.807 128.256 302.807 127.636ZM308.177 126.826C308.177 126.406 308.062 126.066 307.832 125.806C307.602 125.546 307.232 125.416 306.722 125.416C306.322 125.416 305.967 125.531 305.657 125.761C305.347 125.991 305.142 126.346 305.042 126.826H308.177ZM313.737 124.936C313.737 124.686 313.777 124.456 313.857 124.246C313.947 124.026 314.067 123.836 314.217 123.676C314.367 123.516 314.547 123.391 314.757 123.301C314.977 123.211 315.217 123.166 315.477 123.166C315.737 123.166 315.972 123.211 316.182 123.301C316.402 123.391 316.587 123.516 316.737 123.676C316.887 123.836 317.002 124.026 317.082 124.246C317.172 124.456 317.217 124.686 317.217 124.936C317.217 125.436 317.057 125.856 316.737 126.196C316.417 126.526 315.997 126.691 315.477 126.691C314.957 126.691 314.537 126.526 314.217 126.196C313.897 125.856 313.737 125.436 313.737 124.936ZM313.737 129.781C313.737 129.531 313.777 129.301 313.857 129.091C313.947 128.871 314.067 128.681 314.217 128.521C314.367 128.361 314.547 128.236 314.757 128.146C314.977 128.056 315.217 128.011 315.477 128.011C315.737 128.011 315.972 128.056 316.182 128.146C316.402 128.236 316.587 128.361 316.737 128.521C316.887 128.681 317.002 128.871 317.082 129.091C317.172 129.301 317.217 129.531 317.217 129.781C317.217 130.281 317.057 130.701 316.737 131.041C316.417 131.371 315.997 131.536 315.477 131.536C314.957 131.536 314.537 131.371 314.217 131.041C313.897 130.701 313.737 130.281 313.737 129.781ZM332.265 123.256L332.19 121.081H334.74L334.665 123.256L334.14 126.811H332.79L332.265 123.256ZM338.664 127.636C338.664 127.026 338.754 126.481 338.934 126.001C339.114 125.521 339.349 125.116 339.639 124.786C339.939 124.446 340.279 124.186 340.659 124.006C341.039 123.826 341.434 123.736 341.844 123.736C342.274 123.736 342.634 123.811 342.924 123.961C343.214 124.101 343.489 124.291 343.749 124.531L343.674 123.376V120.841H345.879V131.356H344.079L343.914 130.591H343.869C343.589 130.861 343.269 131.086 342.909 131.266C342.549 131.446 342.179 131.536 341.799 131.536C341.329 131.536 340.899 131.446 340.509 131.266C340.129 131.086 339.799 130.831 339.519 130.501C339.249 130.161 339.039 129.751 338.889 129.271C338.739 128.791 338.664 128.246 338.664 127.636ZM340.929 127.606C340.929 128.346 341.054 128.886 341.304 129.226C341.554 129.566 341.909 129.736 342.369 129.736C342.619 129.736 342.849 129.686 343.059 129.586C343.269 129.476 343.474 129.296 343.674 129.046V126.031C343.474 125.851 343.269 125.726 343.059 125.656C342.859 125.576 342.649 125.536 342.429 125.536C342.019 125.536 341.664 125.706 341.364 126.046C341.074 126.386 340.929 126.906 340.929 127.606ZM348.138 123.916H353.328V131.356H351.123V125.641H348.138V123.916ZM352.128 122.821C351.698 122.821 351.343 122.701 351.063 122.461C350.793 122.221 350.658 121.896 350.658 121.486C350.658 121.076 350.793 120.746 351.063 120.496C351.343 120.236 351.698 120.106 352.128 120.106C352.558 120.106 352.908 120.236 353.178 120.496C353.458 120.746 353.598 121.076 353.598 121.486C353.598 121.896 353.458 122.221 353.178 122.461C352.908 122.701 352.558 122.821 352.128 122.821ZM356.952 127.636C356.952 127.016 357.067 126.466 357.297 125.986C357.537 125.496 357.852 125.086 358.242 124.756C358.642 124.426 359.102 124.176 359.622 124.006C360.142 123.826 360.687 123.736 361.257 123.736C361.847 123.736 362.377 123.831 362.847 124.021C363.327 124.211 363.727 124.451 364.047 124.741L363.027 126.106C362.477 125.716 361.927 125.521 361.377 125.521C360.737 125.521 360.217 125.711 359.817 126.091C359.417 126.471 359.217 126.986 359.217 127.636C359.217 128.286 359.407 128.801 359.787 129.181C360.177 129.561 360.682 129.751 361.302 129.751C361.692 129.751 362.052 129.681 362.382 129.541C362.712 129.401 363.007 129.236 363.267 129.046L364.167 130.441C363.717 130.821 363.217 131.101 362.667 131.281C362.127 131.451 361.602 131.536 361.092 131.536C360.502 131.536 359.957 131.451 359.457 131.281C358.957 131.101 358.517 130.846 358.137 130.516C357.767 130.186 357.477 129.781 357.267 129.301C357.057 128.811 356.952 128.256 356.952 127.636ZM367.551 125.641H365.676V124.006L367.656 123.916L367.941 121.936H369.756V123.916H372.906V125.641H369.756V128.251C369.756 128.821 369.881 129.226 370.131 129.466C370.381 129.696 370.776 129.811 371.316 129.811C371.606 129.811 371.871 129.786 372.111 129.736C372.351 129.686 372.581 129.621 372.801 129.541L373.191 131.131C372.861 131.231 372.491 131.321 372.081 131.401C371.681 131.491 371.241 131.536 370.761 131.536C370.171 131.536 369.671 131.456 369.261 131.296C368.851 131.136 368.516 130.916 368.256 130.636C368.006 130.346 367.826 130.001 367.716 129.601C367.606 129.201 367.551 128.756 367.551 128.266V125.641ZM377.236 123.256L377.161 121.081H379.711L379.636 123.256L379.111 126.811H377.761L377.236 123.256Z" fill="#D55E00"/>
<rect x="346" width="164" height="31" fill="#333333"/>
<rect x="346" width="164" height="31" fill="#333333"/>
<rect x="267" width="79" height="31" fill="#090808"/>
<path d="M279.105 17.8101C279.105 17.5513 278.976 17.3486 278.717 17.2021C278.463 17.0508 278.053 16.9165 277.486 16.7993C275.602 16.4038 274.659 15.603 274.659 14.397C274.659 13.6938 274.95 13.1079 275.531 12.6392C276.117 12.1655 276.881 11.9287 277.823 11.9287C278.829 11.9287 279.632 12.1655 280.233 12.6392C280.838 13.1128 281.141 13.728 281.141 14.4849H279.024C279.024 14.1821 278.927 13.9331 278.731 13.7378C278.536 13.5376 278.231 13.4375 277.816 13.4375C277.459 13.4375 277.184 13.5181 276.988 13.6792C276.793 13.8403 276.695 14.0454 276.695 14.2944C276.695 14.5288 276.805 14.7192 277.025 14.8657C277.25 15.0073 277.625 15.1318 278.153 15.2393C278.68 15.3418 279.125 15.459 279.486 15.5908C280.604 16.001 281.163 16.7114 281.163 17.7222C281.163 18.4448 280.853 19.0308 280.233 19.48C279.613 19.9243 278.812 20.1465 277.831 20.1465C277.167 20.1465 276.576 20.0293 276.058 19.7949C275.545 19.5557 275.143 19.231 274.85 18.8208C274.557 18.4058 274.41 17.959 274.41 17.4805H276.417C276.437 17.8564 276.576 18.1445 276.834 18.3447C277.093 18.5449 277.44 18.645 277.875 18.645C278.28 18.645 278.585 18.5693 278.79 18.418C279 18.2617 279.105 18.0591 279.105 17.8101ZM285.829 18.4399C286.219 18.4399 286.537 18.3325 286.781 18.1177C287.025 17.9028 287.152 17.6172 287.162 17.2607H289.146C289.142 17.7979 288.995 18.291 288.707 18.7402C288.419 19.1846 288.023 19.5312 287.521 19.7803C287.022 20.0244 286.471 20.1465 285.865 20.1465C284.732 20.1465 283.839 19.7876 283.185 19.0698C282.53 18.3472 282.203 17.3511 282.203 16.0815V15.9424C282.203 14.7217 282.528 13.7476 283.177 13.02C283.827 12.2925 284.718 11.9287 285.851 11.9287C286.842 11.9287 287.635 12.2119 288.231 12.7783C288.832 13.3398 289.137 14.0894 289.146 15.0269H287.162C287.152 14.6167 287.025 14.2847 286.781 14.0308C286.537 13.772 286.214 13.6426 285.814 13.6426C285.321 13.6426 284.947 13.8232 284.693 14.1846C284.444 14.541 284.32 15.1221 284.32 15.9277V16.1475C284.32 16.9629 284.444 17.5488 284.693 17.9053C284.942 18.2617 285.321 18.4399 285.829 18.4399ZM294.808 14.0601C294.52 14.021 294.266 14.0015 294.046 14.0015C293.246 14.0015 292.721 14.2725 292.472 14.8145V20H290.355V12.0752H292.354L292.413 13.02C292.838 12.2925 293.426 11.9287 294.178 11.9287C294.413 11.9287 294.632 11.9604 294.837 12.0239L294.808 14.0601ZM298.067 20H295.943V12.0752H298.067V20ZM295.819 10.0244C295.819 9.70703 295.924 9.4458 296.134 9.24072C296.349 9.03564 296.639 8.93311 297.005 8.93311C297.367 8.93311 297.655 9.03564 297.87 9.24072C298.084 9.4458 298.192 9.70703 298.192 10.0244C298.192 10.3467 298.082 10.6104 297.862 10.8154C297.647 11.0205 297.362 11.123 297.005 11.123C296.649 11.123 296.361 11.0205 296.141 10.8154C295.926 10.6104 295.819 10.3467 295.819 10.0244ZM306.952 16.1108C306.952 17.3315 306.673 18.3105 306.117 19.0479C305.565 19.7803 304.818 20.1465 303.875 20.1465C303.075 20.1465 302.428 19.8682 301.935 19.3115V23.0469H299.818V12.0752H301.781L301.854 12.8516C302.367 12.2363 303.036 11.9287 303.861 11.9287C304.837 11.9287 305.597 12.29 306.139 13.0127C306.681 13.7354 306.952 14.7314 306.952 16.001V16.1108ZM304.835 15.957C304.835 15.2197 304.703 14.6509 304.439 14.2505C304.181 13.8501 303.802 13.6499 303.304 13.6499C302.64 13.6499 302.184 13.9038 301.935 14.4116V17.6562C302.193 18.1787 302.655 18.4399 303.319 18.4399C304.33 18.4399 304.835 17.6123 304.835 15.957ZM310.804 10.127V12.0752H312.159V13.6279H310.804V17.583C310.804 17.876 310.86 18.0859 310.973 18.2129C311.085 18.3398 311.3 18.4033 311.617 18.4033C311.852 18.4033 312.059 18.3862 312.24 18.3521V19.9561C311.825 20.083 311.397 20.1465 310.958 20.1465C309.474 20.1465 308.717 19.397 308.688 17.8979V13.6279H307.53V12.0752H308.688V10.127H310.804ZM313.448 18.96C313.448 18.623 313.561 18.3496 313.785 18.1396C314.015 17.9297 314.3 17.8247 314.642 17.8247C314.989 17.8247 315.274 17.9297 315.499 18.1396C315.729 18.3496 315.843 18.623 315.843 18.96C315.843 19.292 315.731 19.563 315.506 19.7729C315.282 19.978 314.994 20.0806 314.642 20.0806C314.295 20.0806 314.01 19.978 313.785 19.7729C313.561 19.563 313.448 19.292 313.448 18.96ZM324.837 16.1108C324.837 17.3315 324.559 18.3105 324.002 19.0479C323.451 19.7803 322.704 20.1465 321.761 20.1465C320.96 20.1465 320.313 19.8682 319.82 19.3115V23.0469H317.704V12.0752H319.667L319.74 12.8516C320.252 12.2363 320.921 11.9287 321.747 11.9287C322.723 11.9287 323.482 12.29 324.024 13.0127C324.566 13.7354 324.837 14.7314 324.837 16.001V16.1108ZM322.721 15.957C322.721 15.2197 322.589 14.6509 322.325 14.2505C322.066 13.8501 321.688 13.6499 321.19 13.6499C320.526 13.6499 320.069 13.9038 319.82 14.4116V17.6562C320.079 18.1787 320.541 18.4399 321.205 18.4399C322.215 18.4399 322.721 17.6123 322.721 15.957ZM329.027 17.0044L330.492 12.0752H332.762L329.576 21.2305L329.4 21.6479C328.927 22.6831 328.146 23.2007 327.057 23.2007C326.749 23.2007 326.437 23.1543 326.119 23.0615V21.4575L326.441 21.4648C326.842 21.4648 327.14 21.4038 327.335 21.2817C327.535 21.1597 327.691 20.957 327.804 20.6738L328.053 20.022L325.277 12.0752H327.555L329.027 17.0044Z" fill="white"/>
<line y1="-0.5" x2="243" y2="-0.5" transform="matrix(0.999999 0.00129037 -0.00328101 0.999995 267 76)" stroke="white"/>
<path d="M275.08 40.485H277.285V43.065L277.165 44.49C277.315 44.35 277.475 44.215 277.645 44.085C277.825 43.945 278.015 43.825 278.215 43.725C278.425 43.615 278.65 43.53 278.89 43.47C279.14 43.41 279.405 43.38 279.685 43.38C280.525 43.38 281.135 43.65 281.515 44.19C281.905 44.73 282.1 45.47 282.1 46.41V51H279.895V46.695C279.895 46.195 279.815 45.83 279.655 45.6C279.495 45.37 279.21 45.255 278.8 45.255C278.5 45.255 278.235 45.32 278.005 45.45C277.785 45.58 277.545 45.775 277.285 46.035V51H275.08V40.485ZM283.909 48.93C283.909 48.51 283.999 48.145 284.179 47.835C284.359 47.515 284.644 47.245 285.034 47.025C285.434 46.805 285.944 46.63 286.564 46.5C287.184 46.36 287.934 46.265 288.814 46.215C288.774 45.875 288.624 45.61 288.364 45.42C288.114 45.23 287.734 45.135 287.224 45.135C286.864 45.135 286.499 45.2 286.129 45.33C285.769 45.45 285.379 45.615 284.959 45.825L284.179 44.385C284.689 44.095 285.234 43.855 285.814 43.665C286.404 43.475 287.019 43.38 287.659 43.38C288.699 43.38 289.519 43.655 290.119 44.205C290.719 44.755 291.019 45.6 291.019 46.74V51H289.219L289.054 50.16H288.994C288.614 50.45 288.199 50.695 287.749 50.895C287.299 51.085 286.834 51.18 286.354 51.18C285.974 51.18 285.634 51.12 285.334 51C285.034 50.89 284.779 50.735 284.569 50.535C284.359 50.325 284.194 50.085 284.074 49.815C283.964 49.545 283.909 49.25 283.909 48.93ZM286.024 48.765C286.024 49.005 286.114 49.185 286.294 49.305C286.484 49.415 286.739 49.47 287.059 49.47C287.389 49.47 287.699 49.405 287.989 49.275C288.279 49.135 288.554 48.965 288.814 48.765V47.535C288.264 47.565 287.809 47.615 287.449 47.685C287.089 47.755 286.804 47.845 286.594 47.955C286.384 48.055 286.234 48.175 286.144 48.315C286.064 48.455 286.024 48.605 286.024 48.765ZM293.773 48.66C294.203 48.93 294.633 49.145 295.063 49.305C295.503 49.465 295.973 49.545 296.473 49.545C296.983 49.545 297.348 49.49 297.568 49.38C297.788 49.27 297.898 49.115 297.898 48.915C297.898 48.685 297.713 48.5 297.343 48.36C296.983 48.21 296.503 48.05 295.903 47.88C295.573 47.79 295.248 47.685 294.928 47.565C294.618 47.435 294.338 47.285 294.088 47.115C293.838 46.935 293.633 46.73 293.473 46.5C293.323 46.27 293.248 46.005 293.248 45.705C293.248 45.365 293.328 45.05 293.488 44.76C293.648 44.47 293.873 44.225 294.163 44.025C294.463 43.825 294.823 43.67 295.243 43.56C295.673 43.44 296.153 43.38 296.683 43.38C297.343 43.38 297.943 43.49 298.483 43.71C299.033 43.92 299.503 44.15 299.893 44.4L298.903 45.72C298.563 45.52 298.213 45.355 297.853 45.225C297.493 45.085 297.118 45.015 296.728 45.015C296.258 45.015 295.923 45.065 295.723 45.165C295.533 45.265 295.438 45.41 295.438 45.6C295.438 45.71 295.488 45.81 295.588 45.9C295.688 45.99 295.823 46.07 295.993 46.14C296.163 46.21 296.363 46.28 296.593 46.35C296.833 46.41 297.083 46.475 297.343 46.545C297.713 46.645 298.063 46.76 298.393 46.89C298.723 47.01 299.013 47.155 299.263 47.325C299.513 47.495 299.713 47.7 299.863 47.94C300.013 48.18 300.088 48.46 300.088 48.78C300.088 49.12 300.008 49.435 299.848 49.725C299.688 50.015 299.453 50.27 299.143 50.49C298.843 50.7 298.463 50.87 298.003 51C297.553 51.12 297.028 51.18 296.428 51.18C295.758 51.18 295.103 51.07 294.463 50.85C293.823 50.63 293.263 50.36 292.783 50.04L293.773 48.66ZM302.062 40.485H304.267V43.065L304.147 44.49C304.297 44.35 304.457 44.215 304.627 44.085C304.807 43.945 304.997 43.825 305.197 43.725C305.407 43.615 305.632 43.53 305.872 43.47C306.122 43.41 306.387 43.38 306.667 43.38C307.507 43.38 308.117 43.65 308.497 44.19C308.887 44.73 309.082 45.47 309.082 46.41V51H306.877V46.695C306.877 46.195 306.797 45.83 306.637 45.6C306.477 45.37 306.192 45.255 305.782 45.255C305.482 45.255 305.217 45.32 304.987 45.45C304.767 45.58 304.527 45.775 304.267 46.035V51H302.062V40.485Z" fill="#56B4E9"/>
<path d="M315.857 53.685C314.877 52.815 314.102 51.81 313.532 50.67C312.972 49.53 312.692 48.25 312.692 46.83C312.692 45.41 312.972 44.13 313.532 42.99C314.102 41.85 314.877 40.845 315.857 39.975L317.087 40.95C316.197 41.82 315.547 42.725 315.137 43.665C314.737 44.595 314.537 45.65 314.537 46.83C314.537 47.42 314.587 47.98 314.687 48.51C314.787 49.03 314.937 49.53 315.137 50.01C315.347 50.49 315.612 50.95 315.932 51.39C316.252 51.84 316.637 52.28 317.087 52.71L315.857 53.685ZM322.466 51.15C322.466 50.88 322.471 50.64 322.481 50.43C322.501 50.22 322.521 50.02 322.541 49.83C322.561 49.63 322.576 49.435 322.586 49.245C322.606 49.045 322.616 48.825 322.616 48.585C322.616 48.455 322.586 48.325 322.526 48.195C322.466 48.065 322.356 47.95 322.196 47.85C322.036 47.74 321.821 47.655 321.551 47.595C321.291 47.525 320.961 47.485 320.561 47.475V46.185C320.961 46.175 321.291 46.14 321.551 46.08C321.821 46.01 322.036 45.925 322.196 45.825C322.356 45.715 322.466 45.595 322.526 45.465C322.586 45.335 322.616 45.205 322.616 45.075C322.616 44.845 322.606 44.63 322.586 44.43C322.576 44.23 322.561 44.035 322.541 43.845C322.521 43.645 322.501 43.44 322.481 43.23C322.471 43.01 322.466 42.77 322.466 42.51C322.466 41.7 322.691 41.145 323.141 40.845C323.591 40.535 324.296 40.38 325.256 40.38H326.411V41.55H325.796C325.486 41.55 325.231 41.565 325.031 41.595C324.831 41.625 324.676 41.68 324.566 41.76C324.456 41.84 324.376 41.95 324.326 42.09C324.286 42.22 324.266 42.39 324.266 42.6C324.266 43 324.276 43.395 324.296 43.785C324.326 44.175 324.341 44.595 324.341 45.045C324.341 45.615 324.226 46.03 323.996 46.29C323.766 46.54 323.381 46.71 322.841 46.8V46.86C323.381 46.95 323.766 47.125 323.996 47.385C324.226 47.635 324.341 48.045 324.341 48.615C324.341 49.075 324.326 49.495 324.296 49.875C324.276 50.255 324.266 50.65 324.266 51.06C324.266 51.27 324.286 51.44 324.326 51.57C324.376 51.71 324.456 51.82 324.566 51.9C324.676 51.98 324.831 52.035 325.031 52.065C325.231 52.095 325.486 52.11 325.796 52.11H326.411V53.28H325.256C324.296 53.28 323.591 53.125 323.141 52.815C322.691 52.515 322.466 51.96 322.466 51.15ZM375.696 44.58C375.696 44.33 375.736 44.1 375.816 43.89C375.906 43.67 376.026 43.48 376.176 43.32C376.326 43.16 376.506 43.035 376.716 42.945C376.936 42.855 377.176 42.81 377.436 42.81C377.696 42.81 377.931 42.855 378.141 42.945C378.361 43.035 378.546 43.16 378.696 43.32C378.846 43.48 378.961 43.67 379.041 43.89C379.131 44.1 379.176 44.33 379.176 44.58C379.176 45.08 379.016 45.5 378.696 45.84C378.376 46.17 377.956 46.335 377.436 46.335C376.916 46.335 376.496 46.17 376.176 45.84C375.856 45.5 375.696 45.08 375.696 44.58ZM375.696 49.425C375.696 49.175 375.736 48.945 375.816 48.735C375.906 48.515 376.026 48.325 376.176 48.165C376.326 48.005 376.506 47.88 376.716 47.79C376.936 47.7 377.176 47.655 377.436 47.655C377.696 47.655 377.931 47.7 378.141 47.79C378.361 47.88 378.546 48.005 378.696 48.165C378.846 48.325 378.961 48.515 379.041 48.735C379.131 48.945 379.176 49.175 379.176 49.425C379.176 49.925 379.016 50.345 378.696 50.685C378.376 51.015 377.956 51.18 377.436 51.18C376.916 51.18 376.496 51.015 376.176 50.685C375.856 50.345 375.696 49.925 375.696 49.425ZM456.073 52.11C456.383 52.11 456.633 52.095 456.823 52.065C457.023 52.035 457.178 51.98 457.288 51.9C457.398 51.82 457.473 51.71 457.513 51.57C457.563 51.44 457.588 51.27 457.588 51.06C457.588 50.65 457.578 50.255 457.558 49.875C457.538 49.495 457.528 49.075 457.528 48.615C457.528 48.045 457.643 47.635 457.873 47.385C458.103 47.125 458.488 46.95 459.028 46.86V46.8C458.488 46.71 458.103 46.54 457.873 46.29C457.643 46.03 457.528 45.615 457.528 45.045C457.528 44.595 457.538 44.175 457.558 43.785C457.578 43.395 457.588 43 457.588 42.6C457.588 42.39 457.563 42.22 457.513 42.09C457.473 41.95 457.398 41.84 457.288 41.76C457.178 41.68 457.023 41.625 456.823 41.595C456.633 41.565 456.383 41.55 456.073 41.55H455.458V40.38H456.613C457.573 40.38 458.278 40.535 458.728 40.845C459.178 41.145 459.403 41.7 459.403 42.51C459.403 42.77 459.393 43.01 459.373 43.23C459.363 43.44 459.343 43.645 459.313 43.845C459.293 44.035 459.273 44.23 459.253 44.43C459.243 44.63 459.238 44.845 459.238 45.075C459.238 45.205 459.268 45.335 459.328 45.465C459.388 45.595 459.498 45.715 459.658 45.825C459.818 45.925 460.028 46.01 460.288 46.08C460.558 46.14 460.898 46.175 461.308 46.185V47.475C460.898 47.485 460.558 47.525 460.288 47.595C460.028 47.655 459.818 47.74 459.658 47.85C459.498 47.95 459.388 48.065 459.328 48.195C459.268 48.325 459.238 48.455 459.238 48.585C459.238 48.825 459.243 49.045 459.253 49.245C459.273 49.435 459.293 49.63 459.313 49.83C459.343 50.02 459.363 50.22 459.373 50.43C459.393 50.64 459.403 50.88 459.403 51.15C459.403 51.96 459.178 52.515 458.728 52.815C458.278 53.125 457.573 53.28 456.613 53.28H455.458V52.11H456.073ZM464.767 52.71C465.217 52.28 465.602 51.84 465.922 51.39C466.242 50.95 466.502 50.49 466.702 50.01C466.912 49.53 467.067 49.03 467.167 48.51C467.267 47.98 467.317 47.42 467.317 46.83C467.317 45.65 467.112 44.595 466.702 43.665C466.302 42.725 465.657 41.82 464.767 40.95L465.997 39.975C466.977 40.845 467.747 41.85 468.307 42.99C468.877 44.13 469.162 45.41 469.162 46.83C469.162 48.25 468.877 49.53 468.307 50.67C467.747 51.81 466.977 52.815 465.997 53.685L464.767 52.71Z" fill="white"/>
<path d="M331.265 42.9L331.19 40.725H333.74L333.665 42.9L333.14 46.455H331.79L331.265 42.9ZM338.099 40.485H340.304V46.56H340.364L343.094 43.56H345.509L342.689 46.62L345.734 51H343.349L341.399 47.97L340.304 49.125V51H338.099V40.485ZM346.778 47.28C346.778 46.67 346.883 46.125 347.093 45.645C347.313 45.165 347.603 44.76 347.963 44.43C348.323 44.09 348.733 43.83 349.193 43.65C349.663 43.47 350.148 43.38 350.648 43.38C351.218 43.38 351.723 43.47 352.163 43.65C352.603 43.83 352.968 44.08 353.258 44.4C353.548 44.72 353.768 45.1 353.918 45.54C354.068 45.97 354.143 46.44 354.143 46.95C354.143 47.15 354.133 47.34 354.113 47.52C354.093 47.7 354.073 47.835 354.053 47.925H349.043C349.123 48.485 349.363 48.89 349.763 49.14C350.173 49.38 350.653 49.5 351.203 49.5C351.543 49.5 351.863 49.46 352.163 49.38C352.473 49.29 352.793 49.16 353.123 48.99L353.843 50.31C353.423 50.58 352.953 50.795 352.433 50.955C351.913 51.105 351.403 51.18 350.903 51.18C350.323 51.18 349.783 51.095 349.283 50.925C348.783 50.745 348.348 50.49 347.978 50.16C347.608 49.82 347.313 49.41 347.093 48.93C346.883 48.45 346.778 47.9 346.778 47.28ZM352.148 46.47C352.148 46.05 352.033 45.71 351.803 45.45C351.573 45.19 351.203 45.06 350.693 45.06C350.293 45.06 349.938 45.175 349.628 45.405C349.318 45.635 349.113 45.99 349.013 46.47H352.148ZM356.342 52.08C356.532 52.14 356.727 52.17 356.927 52.17C357.357 52.17 357.692 52.08 357.932 51.9C358.182 51.72 358.367 51.485 358.487 51.195L358.637 50.805L355.412 43.56H357.602L358.847 46.755C358.987 47.105 359.117 47.47 359.237 47.85C359.357 48.22 359.477 48.6 359.597 48.99H359.657C359.757 48.62 359.867 48.25 359.987 47.88C360.107 47.5 360.222 47.125 360.332 46.755L361.427 43.56H363.512L360.572 51.075C360.392 51.545 360.197 51.955 359.987 52.305C359.777 52.665 359.537 52.96 359.267 53.19C358.997 53.43 358.682 53.61 358.322 53.73C357.972 53.85 357.562 53.91 357.092 53.91C356.872 53.91 356.667 53.895 356.477 53.865C356.287 53.845 356.112 53.81 355.952 53.76L356.342 52.08ZM367.241 42.9L367.166 40.725H369.716L369.641 42.9L369.116 46.455H367.766L367.241 42.9ZM394.224 42.9L394.149 40.725H396.699L396.624 42.9L396.099 46.455H394.749L394.224 42.9ZM400.383 43.56H402.603L403.773 47.07C403.893 47.45 404.008 47.83 404.118 48.21C404.228 48.59 404.338 48.975 404.448 49.365H404.508C404.618 48.975 404.723 48.59 404.823 48.21C404.933 47.83 405.048 47.45 405.168 47.07L406.338 43.56H408.453L405.723 51H403.188L400.383 43.56ZM409.827 48.93C409.827 48.51 409.917 48.145 410.097 47.835C410.277 47.515 410.562 47.245 410.952 47.025C411.352 46.805 411.862 46.63 412.482 46.5C413.102 46.36 413.852 46.265 414.732 46.215C414.692 45.875 414.542 45.61 414.282 45.42C414.032 45.23 413.652 45.135 413.142 45.135C412.782 45.135 412.417 45.2 412.047 45.33C411.687 45.45 411.297 45.615 410.877 45.825L410.097 44.385C410.607 44.095 411.152 43.855 411.732 43.665C412.322 43.475 412.937 43.38 413.577 43.38C414.617 43.38 415.437 43.655 416.037 44.205C416.637 44.755 416.937 45.6 416.937 46.74V51H415.137L414.972 50.16H414.912C414.532 50.45 414.117 50.695 413.667 50.895C413.217 51.085 412.752 51.18 412.272 51.18C411.892 51.18 411.552 51.12 411.252 51C410.952 50.89 410.697 50.735 410.487 50.535C410.277 50.325 410.112 50.085 409.992 49.815C409.882 49.545 409.827 49.25 409.827 48.93ZM411.942 48.765C411.942 49.005 412.032 49.185 412.212 49.305C412.402 49.415 412.657 49.47 412.977 49.47C413.307 49.47 413.617 49.405 413.907 49.275C414.197 49.135 414.472 48.965 414.732 48.765V47.535C414.182 47.565 413.727 47.615 413.367 47.685C413.007 47.755 412.722 47.845 412.512 47.955C412.302 48.055 412.152 48.175 412.062 48.315C411.982 48.455 411.942 48.605 411.942 48.765ZM418.836 40.485H423.201V48.18C423.201 48.41 423.231 48.605 423.291 48.765C423.361 48.915 423.451 49.04 423.561 49.14C423.681 49.23 423.811 49.295 423.951 49.335C424.101 49.375 424.251 49.395 424.401 49.395C424.571 49.395 424.751 49.38 424.941 49.35C425.131 49.31 425.341 49.245 425.571 49.155L426.066 50.775C425.866 50.835 425.681 50.89 425.511 50.94C425.341 50.99 425.171 51.03 425.001 51.06C424.831 51.1 424.651 51.13 424.461 51.15C424.271 51.17 424.061 51.18 423.831 51.18C422.891 51.18 422.181 50.905 421.701 50.355C421.231 49.795 420.996 49.04 420.996 48.09V42.225H418.836V40.485ZM434.775 51H432.975L432.81 49.935H432.75C432.42 50.315 432.055 50.62 431.655 50.85C431.255 51.07 430.785 51.18 430.245 51.18C429.395 51.18 428.78 50.91 428.4 50.37C428.02 49.83 427.83 49.09 427.83 48.15V43.56H430.035V47.865C430.035 48.365 430.11 48.73 430.26 48.96C430.41 49.19 430.695 49.305 431.115 49.305C431.395 49.305 431.64 49.245 431.85 49.125C432.07 49.005 432.31 48.78 432.57 48.45V43.56H434.775V51ZM436.72 47.28C436.72 46.67 436.825 46.125 437.035 45.645C437.255 45.165 437.545 44.76 437.905 44.43C438.265 44.09 438.675 43.83 439.135 43.65C439.605 43.47 440.09 43.38 440.59 43.38C441.16 43.38 441.665 43.47 442.105 43.65C442.545 43.83 442.91 44.08 443.2 44.4C443.49 44.72 443.71 45.1 443.86 45.54C444.01 45.97 444.085 46.44 444.085 46.95C444.085 47.15 444.075 47.34 444.055 47.52C444.035 47.7 444.015 47.835 443.995 47.925H438.985C439.065 48.485 439.305 48.89 439.705 49.14C440.115 49.38 440.595 49.5 441.145 49.5C441.485 49.5 441.805 49.46 442.105 49.38C442.415 49.29 442.735 49.16 443.065 48.99L443.785 50.31C443.365 50.58 442.895 50.795 442.375 50.955C441.855 51.105 441.345 51.18 440.845 51.18C440.265 51.18 439.725 51.095 439.225 50.925C438.725 50.745 438.29 50.49 437.92 50.16C437.55 49.82 437.255 49.41 437.035 48.93C436.825 48.45 436.72 47.9 436.72 47.28ZM442.09 46.47C442.09 46.05 441.975 45.71 441.745 45.45C441.515 45.19 441.145 45.06 440.635 45.06C440.235 45.06 439.88 45.175 439.57 45.405C439.26 45.635 439.055 45.99 438.955 46.47H442.09ZM448.189 42.9L448.114 40.725H450.664L450.589 42.9L450.064 46.455H448.714L448.189 42.9Z" fill="#009E73"/>
</svg>
