<svg width="222" height="203" viewBox="0 0 222 203" fill="none" xmlns="http://www.w3.org/2000/svg">
<rect width="222" height="203" fill="white"/>
<rect width="222" height="203" fill="black"/>
<path d="M9.285 47.585V49.76H7.08V39.56H8.88L9.045 40.31H9.09C9.39 40.04 9.735 39.82 10.125 39.65C10.515 39.47 10.91 39.38 11.31 39.38C11.77 39.38 12.185 39.47 12.555 39.65C12.925 39.83 13.24 40.085 13.5 40.415C13.76 40.745 13.955 41.145 14.085 41.615C14.225 42.075 14.295 42.59 14.295 43.16C14.295 43.8 14.205 44.37 14.025 44.87C13.845 45.36 13.605 45.78 13.305 46.13C13.005 46.47 12.66 46.73 12.27 46.91C11.89 47.09 11.49 47.18 11.07 47.18C10.39 47.18 9.77 46.91 9.21 46.37L9.285 47.585ZM9.285 44.885C9.495 45.065 9.71 45.195 9.93 45.275C10.16 45.345 10.37 45.38 10.56 45.38C10.98 45.38 11.33 45.21 11.61 44.87C11.89 44.52 12.03 43.96 12.03 43.19C12.03 41.85 11.575 41.18 10.665 41.18C10.195 41.18 9.735 41.41 9.285 41.87V44.885ZM16.7341 39.56H18.5341L18.7141 41.18H18.7591C19.1291 40.57 19.5741 40.12 20.0941 39.83C20.6141 39.53 21.1741 39.38 21.7741 39.38C22.1041 39.38 22.3691 39.405 22.5691 39.455C22.7791 39.505 22.9941 39.58 23.2141 39.68L22.7641 41.525C22.5341 41.455 22.3241 41.405 22.1341 41.375C21.9541 41.335 21.7241 41.315 21.4441 41.315C20.9841 41.315 20.5291 41.45 20.0791 41.72C19.6391 41.99 19.2591 42.46 18.9391 43.13V47H16.7341V39.56ZM25.1733 39.56H30.3633V47H28.1583V41.285H25.1733V39.56ZM29.1633 38.465C28.7333 38.465 28.3783 38.345 28.0983 38.105C27.8283 37.865 27.6933 37.54 27.6933 37.13C27.6933 36.72 27.8283 36.39 28.0983 36.14C28.3783 35.88 28.7333 35.75 29.1633 35.75C29.5933 35.75 29.9433 35.88 30.2133 36.14C30.4933 36.39 30.6333 36.72 30.6333 37.13C30.6333 37.54 30.4933 37.865 30.2133 38.105C29.9433 38.345 29.5933 38.465 29.1633 38.465ZM34.0624 39.56H35.8624L36.0274 40.55H36.0874C36.4074 40.23 36.7724 39.955 37.1824 39.725C37.6024 39.495 38.0924 39.38 38.6524 39.38C39.4924 39.38 40.1074 39.65 40.4974 40.19C40.8874 40.73 41.0824 41.47 41.0824 42.41V47H38.8774V42.695C38.8774 42.195 38.7974 41.83 38.6374 41.6C38.4774 41.37 38.1924 41.255 37.7824 41.255C37.4824 41.255 37.2174 41.32 36.9874 41.45C36.7674 41.58 36.5274 41.775 36.2674 42.035V47H34.0624V39.56ZM44.5866 41.285H42.7116V39.65L44.6916 39.56L44.9766 37.58H46.7916V39.56H49.9416V41.285H46.7916V43.895C46.7916 44.465 46.9166 44.87 47.1666 45.11C47.4166 45.34 47.8116 45.455 48.3516 45.455C48.6416 45.455 48.9066 45.43 49.1466 45.38C49.3866 45.33 49.6166 45.265 49.8366 45.185L50.2266 46.775C49.8966 46.875 49.5266 46.965 49.1166 47.045C48.7166 47.135 48.2766 47.18 47.7966 47.18C47.2066 47.18 46.7066 47.1 46.2966 46.94C45.8866 46.78 45.5516 46.56 45.2916 46.28C45.0416 45.99 44.8616 45.645 44.7516 45.245C44.6416 44.845 44.5866 44.4 44.5866 43.91V41.285ZM9.285 66.585V68.76H7.08V58.56H8.88L9.045 59.31H9.09C9.39 59.04 9.735 58.82 10.125 58.65C10.515 58.47 10.91 58.38 11.31 58.38C11.77 58.38 12.185 58.47 12.555 58.65C12.925 58.83 13.24 59.085 13.5 59.415C13.76 59.745 13.955 60.145 14.085 60.615C14.225 61.075 14.295 61.59 14.295 62.16C14.295 62.8 14.205 63.37 14.025 63.87C13.845 64.36 13.605 64.78 13.305 65.13C13.005 65.47 12.66 65.73 12.27 65.91C11.89 66.09 11.49 66.18 11.07 66.18C10.39 66.18 9.77 65.91 9.21 65.37L9.285 66.585ZM9.285 63.885C9.495 64.065 9.71 64.195 9.93 64.275C10.16 64.345 10.37 64.38 10.56 64.38C10.98 64.38 11.33 64.21 11.61 63.87C11.89 63.52 12.03 62.96 12.03 62.19C12.03 60.85 11.575 60.18 10.665 60.18C10.195 60.18 9.735 60.41 9.285 60.87V63.885ZM16.7341 58.56H18.5341L18.7141 60.18H18.7591C19.1291 59.57 19.5741 59.12 20.0941 58.83C20.6141 58.53 21.1741 58.38 21.7741 58.38C22.1041 58.38 22.3691 58.405 22.5691 58.455C22.7791 58.505 22.9941 58.58 23.2141 58.68L22.7641 60.525C22.5341 60.455 22.3241 60.405 22.1341 60.375C21.9541 60.335 21.7241 60.315 21.4441 60.315C20.9841 60.315 20.5291 60.45 20.0791 60.72C19.6391 60.99 19.2591 61.46 18.9391 62.13V66H16.7341V58.56ZM25.1733 58.56H30.3633V66H28.1583V60.285H25.1733V58.56ZM29.1633 57.465C28.7333 57.465 28.3783 57.345 28.0983 57.105C27.8283 56.865 27.6933 56.54 27.6933 56.13C27.6933 55.72 27.8283 55.39 28.0983 55.14C28.3783 54.88 28.7333 54.75 29.1633 54.75C29.5933 54.75 29.9433 54.88 30.2133 55.14C30.4933 55.39 30.6333 55.72 30.6333 56.13C30.6333 56.54 30.4933 56.865 30.2133 57.105C29.9433 57.345 29.5933 57.465 29.1633 57.465ZM34.0624 58.56H35.8624L36.0274 59.55H36.0874C36.4074 59.23 36.7724 58.955 37.1824 58.725C37.6024 58.495 38.0924 58.38 38.6524 58.38C39.4924 58.38 40.1074 58.65 40.4974 59.19C40.8874 59.73 41.0824 60.47 41.0824 61.41V66H38.8774V61.695C38.8774 61.195 38.7974 60.83 38.6374 60.6C38.4774 60.37 38.1924 60.255 37.7824 60.255C37.4824 60.255 37.2174 60.32 36.9874 60.45C36.7674 60.58 36.5274 60.775 36.2674 61.035V66H34.0624V58.56ZM44.5866 60.285H42.7116V58.65L44.6916 58.56L44.9766 56.58H46.7916V58.56H49.9416V60.285H46.7916V62.895C46.7916 63.465 46.9166 63.87 47.1666 64.11C47.4166 64.34 47.8116 64.455 48.3516 64.455C48.6416 64.455 48.9066 64.43 49.1466 64.38C49.3866 64.33 49.6166 64.265 49.8366 64.185L50.2266 65.775C49.8966 65.875 49.5266 65.965 49.1166 66.045C48.7166 66.135 48.2766 66.18 47.7966 66.18C47.2066 66.18 46.7066 66.1 46.2966 65.94C45.8866 65.78 45.5516 65.56 45.2916 65.28C45.0416 64.99 44.8616 64.645 44.7516 64.245C44.6416 63.845 44.5866 63.4 44.5866 62.91V60.285ZM9.285 84.585V86.76H7.08V76.56H8.88L9.045 77.31H9.09C9.39 77.04 9.735 76.82 10.125 76.65C10.515 76.47 10.91 76.38 11.31 76.38C11.77 76.38 12.185 76.47 12.555 76.65C12.925 76.83 13.24 77.085 13.5 77.415C13.76 77.745 13.955 78.145 14.085 78.615C14.225 79.075 14.295 79.59 14.295 80.16C14.295 80.8 14.205 81.37 14.025 81.87C13.845 82.36 13.605 82.78 13.305 83.13C13.005 83.47 12.66 83.73 12.27 83.91C11.89 84.09 11.49 84.18 11.07 84.18C10.39 84.18 9.77 83.91 9.21 83.37L9.285 84.585ZM9.285 81.885C9.495 82.065 9.71 82.195 9.93 82.275C10.16 82.345 10.37 82.38 10.56 82.38C10.98 82.38 11.33 82.21 11.61 81.87C11.89 81.52 12.03 80.96 12.03 80.19C12.03 78.85 11.575 78.18 10.665 78.18C10.195 78.18 9.735 78.41 9.285 78.87V81.885ZM16.7341 76.56H18.5341L18.7141 78.18H18.7591C19.1291 77.57 19.5741 77.12 20.0941 76.83C20.6141 76.53 21.1741 76.38 21.7741 76.38C22.1041 76.38 22.3691 76.405 22.5691 76.455C22.7791 76.505 22.9941 76.58 23.2141 76.68L22.7641 78.525C22.5341 78.455 22.3241 78.405 22.1341 78.375C21.9541 78.335 21.7241 78.315 21.4441 78.315C20.9841 78.315 20.5291 78.45 20.0791 78.72C19.6391 78.99 19.2591 79.46 18.9391 80.13V84H16.7341V76.56ZM25.1733 76.56H30.3633V84H28.1583V78.285H25.1733V76.56ZM29.1633 75.465C28.7333 75.465 28.3783 75.345 28.0983 75.105C27.8283 74.865 27.6933 74.54 27.6933 74.13C27.6933 73.72 27.8283 73.39 28.0983 73.14C28.3783 72.88 28.7333 72.75 29.1633 72.75C29.5933 72.75 29.9433 72.88 30.2133 73.14C30.4933 73.39 30.6333 73.72 30.6333 74.13C30.6333 74.54 30.4933 74.865 30.2133 75.105C29.9433 75.345 29.5933 75.465 29.1633 75.465ZM34.0624 76.56H35.8624L36.0274 77.55H36.0874C36.4074 77.23 36.7724 76.955 37.1824 76.725C37.6024 76.495 38.0924 76.38 38.6524 76.38C39.4924 76.38 40.1074 76.65 40.4974 77.19C40.8874 77.73 41.0824 78.47 41.0824 79.41V84H38.8774V79.695C38.8774 79.195 38.7974 78.83 38.6374 78.6C38.4774 78.37 38.1924 78.255 37.7824 78.255C37.4824 78.255 37.2174 78.32 36.9874 78.45C36.7674 78.58 36.5274 78.775 36.2674 79.035V84H34.0624V76.56ZM44.5866 78.285H42.7116V76.65L44.6916 76.56L44.9766 74.58H46.7916V76.56H49.9416V78.285H46.7916V80.895C46.7916 81.465 46.9166 81.87 47.1666 82.11C47.4166 82.34 47.8116 82.455 48.3516 82.455C48.6416 82.455 48.9066 82.43 49.1466 82.38C49.3866 82.33 49.6166 82.265 49.8366 82.185L50.2266 83.775C49.8966 83.875 49.5266 83.965 49.1166 84.045C48.7166 84.135 48.2766 84.18 47.7966 84.18C47.2066 84.18 46.7066 84.1 46.2966 83.94C45.8866 83.78 45.5516 83.56 45.2916 83.28C45.0416 82.99 44.8616 82.645 44.7516 82.245C44.6416 81.845 44.5866 81.4 44.5866 80.91V78.285Z" fill="#56B4E9"/>
<path d="M56.8507 49.685C55.8707 48.815 55.0957 47.81 54.5257 46.67C53.9657 45.53 53.6857 44.25 53.6857 42.83C53.6857 41.41 53.9657 40.13 54.5257 38.99C55.0957 37.85 55.8707 36.845 56.8507 35.975L58.0807 36.95C57.1907 37.82 56.5407 38.725 56.1307 39.665C55.7307 40.595 55.5307 41.65 55.5307 42.83C55.5307 43.42 55.5807 43.98 55.6807 44.51C55.7807 45.03 55.9307 45.53 56.1307 46.01C56.3407 46.49 56.6057 46.95 56.9257 47.39C57.2457 47.84 57.6307 48.28 58.0807 48.71L56.8507 49.685ZM115.82 48.71C116.27 48.28 116.655 47.84 116.975 47.39C117.295 46.95 117.555 46.49 117.755 46.01C117.965 45.53 118.12 45.03 118.22 44.51C118.32 43.98 118.37 43.42 118.37 42.83C118.37 41.65 118.165 40.595 117.755 39.665C117.355 38.725 116.71 37.82 115.82 36.95L117.05 35.975C118.03 36.845 118.8 37.85 119.36 38.99C119.93 40.13 120.215 41.41 120.215 42.83C120.215 44.25 119.93 45.53 119.36 46.67C118.8 47.81 118.03 48.815 117.05 49.685L115.82 48.71ZM56.8507 68.685C55.8707 67.815 55.0957 66.81 54.5257 65.67C53.9657 64.53 53.6857 63.25 53.6857 61.83C53.6857 60.41 53.9657 59.13 54.5257 57.99C55.0957 56.85 55.8707 55.845 56.8507 54.975L58.0807 55.95C57.1907 56.82 56.5407 57.725 56.1307 58.665C55.7307 59.595 55.5307 60.65 55.5307 61.83C55.5307 62.42 55.5807 62.98 55.6807 63.51C55.7807 64.03 55.9307 64.53 56.1307 65.01C56.3407 65.49 56.6057 65.95 56.9257 66.39C57.2457 66.84 57.6307 67.28 58.0807 67.71L56.8507 68.685ZM115.82 67.71C116.27 67.28 116.655 66.84 116.975 66.39C117.295 65.95 117.555 65.49 117.755 65.01C117.965 64.53 118.12 64.03 118.22 63.51C118.32 62.98 118.37 62.42 118.37 61.83C118.37 60.65 118.165 59.595 117.755 58.665C117.355 57.725 116.71 56.82 115.82 55.95L117.05 54.975C118.03 55.845 118.8 56.85 119.36 57.99C119.93 59.13 120.215 60.41 120.215 61.83C120.215 63.25 119.93 64.53 119.36 65.67C118.8 66.81 118.03 67.815 117.05 68.685L115.82 67.71ZM56.8507 86.685C55.8707 85.815 55.0957 84.81 54.5257 83.67C53.9657 82.53 53.6857 81.25 53.6857 79.83C53.6857 78.41 53.9657 77.13 54.5257 75.99C55.0957 74.85 55.8707 73.845 56.8507 72.975L58.0807 73.95C57.1907 74.82 56.5407 75.725 56.1307 76.665C55.7307 77.595 55.5307 78.65 55.5307 79.83C55.5307 80.42 55.5807 80.98 55.6807 81.51C55.7807 82.03 55.9307 82.53 56.1307 83.01C56.3407 83.49 56.6057 83.95 56.9257 84.39C57.2457 84.84 57.6307 85.28 58.0807 85.71L56.8507 86.685ZM124.814 85.71C125.264 85.28 125.649 84.84 125.969 84.39C126.289 83.95 126.549 83.49 126.749 83.01C126.959 82.53 127.114 82.03 127.214 81.51C127.314 80.98 127.364 80.42 127.364 79.83C127.364 78.65 127.159 77.595 126.749 76.665C126.349 75.725 125.704 74.82 124.814 73.95L126.044 72.975C127.024 73.845 127.794 74.85 128.354 75.99C128.924 77.13 129.209 78.41 129.209 79.83C129.209 81.25 128.924 82.53 128.354 83.67C127.794 84.81 127.024 85.815 126.044 86.685L124.814 85.71Z" fill="white"/>
<path d="M60.8348 45.74C61.5148 45.17 62.1348 44.64 62.6948 44.15C63.2548 43.65 63.7348 43.185 64.1348 42.755C64.5348 42.325 64.8448 41.92 65.0648 41.54C65.2848 41.16 65.3948 40.8 65.3948 40.46C65.3948 39.99 65.2598 39.635 64.9898 39.395C64.7198 39.145 64.3348 39.02 63.8348 39.02C63.4548 39.02 63.1048 39.12 62.7848 39.32C62.4748 39.51 62.1848 39.735 61.9148 39.995L60.7298 38.81C60.9798 38.56 61.2248 38.34 61.4648 38.15C61.7148 37.96 61.9748 37.805 62.2448 37.685C62.5248 37.555 62.8148 37.46 63.1148 37.4C63.4248 37.33 63.7648 37.295 64.1348 37.295C64.6348 37.295 65.0898 37.37 65.4998 37.52C65.9098 37.66 66.2598 37.865 66.5498 38.135C66.8498 38.395 67.0798 38.71 67.2398 39.08C67.4098 39.45 67.4948 39.865 67.4948 40.325C67.4948 40.725 67.3998 41.135 67.2098 41.555C67.0198 41.965 66.7598 42.38 66.4298 42.8C66.1098 43.21 65.7398 43.625 65.3198 44.045C64.8998 44.455 64.4598 44.86 63.9998 45.26C64.2698 45.23 64.5598 45.205 64.8698 45.185C65.1898 45.155 65.4748 45.14 65.7248 45.14H67.9898V47H60.8348V45.74ZM70.609 44.435C70.929 44.715 71.284 44.945 71.674 45.125C72.074 45.305 72.494 45.395 72.934 45.395C73.454 45.395 73.879 45.3 74.209 45.11C74.549 44.91 74.719 44.63 74.719 44.27C74.719 44.06 74.674 43.87 74.584 43.7C74.494 43.53 74.339 43.39 74.119 43.28C73.899 43.16 73.604 43.07 73.234 43.01C72.864 42.94 72.399 42.905 71.839 42.905V41.345C72.779 41.345 73.439 41.23 73.819 41C74.209 40.76 74.404 40.45 74.404 40.07C74.404 39.74 74.279 39.485 74.029 39.305C73.779 39.115 73.434 39.02 72.994 39.02C72.614 39.02 72.264 39.095 71.944 39.245C71.624 39.395 71.299 39.6 70.969 39.86L69.859 38.51C70.329 38.13 70.829 37.835 71.359 37.625C71.899 37.405 72.479 37.295 73.099 37.295C73.619 37.295 74.094 37.355 74.524 37.475C74.954 37.585 75.324 37.755 75.634 37.985C75.944 38.205 76.184 38.475 76.354 38.795C76.524 39.115 76.609 39.485 76.609 39.905C76.609 40.405 76.449 40.83 76.129 41.18C75.809 41.52 75.364 41.8 74.794 42.02V42.08C75.394 42.24 75.899 42.515 76.309 42.905C76.719 43.285 76.924 43.785 76.924 44.405C76.924 44.845 76.819 45.24 76.609 45.59C76.409 45.93 76.134 46.22 75.784 46.46C75.444 46.69 75.044 46.87 74.584 47C74.124 47.12 73.644 47.18 73.144 47.18C72.324 47.18 71.619 47.06 71.029 46.82C70.439 46.57 69.959 46.24 69.589 45.83L70.609 44.435ZM107.831 47C107.871 46.21 107.946 45.485 108.056 44.825C108.176 44.155 108.341 43.52 108.551 42.92C108.771 42.31 109.051 41.72 109.391 41.15C109.731 40.57 110.151 39.965 110.651 39.335H105.866V37.475H113.021V38.825C112.421 39.495 111.936 40.125 111.566 40.715C111.196 41.295 110.906 41.9 110.696 42.53C110.486 43.15 110.336 43.82 110.246 44.54C110.156 45.25 110.091 46.07 110.051 47H107.831ZM68.0198 64.215V66H61.1948V64.215H63.6548V58.71H61.6898V57.345C62.2498 57.245 62.7248 57.125 63.1148 56.985C63.5148 56.845 63.8898 56.675 64.2398 56.475H65.8598V64.215H68.0198ZM73.459 66.18C72.909 66.18 72.409 66.075 71.959 65.865C71.509 65.645 71.124 65.325 70.804 64.905C70.484 64.485 70.234 63.965 70.054 63.345C69.884 62.725 69.799 62.01 69.799 61.2C69.799 60.39 69.884 59.68 70.054 59.07C70.234 58.46 70.484 57.95 70.804 57.54C71.124 57.12 71.509 56.81 71.959 56.61C72.409 56.4 72.909 56.295 73.459 56.295C74.009 56.295 74.509 56.4 74.959 56.61C75.409 56.81 75.794 57.12 76.114 57.54C76.434 57.95 76.679 58.46 76.849 59.07C77.029 59.68 77.119 60.39 77.119 61.2C77.119 62.01 77.029 62.725 76.849 63.345C76.679 63.965 76.434 64.485 76.114 64.905C75.794 65.325 75.409 65.645 74.959 65.865C74.509 66.075 74.009 66.18 73.459 66.18ZM73.459 58.005C73.219 58.005 72.994 58.055 72.784 58.155C72.584 58.255 72.409 58.43 72.259 58.68C72.109 58.92 71.989 59.245 71.899 59.655C71.809 60.065 71.764 60.58 71.764 61.2C71.764 61.82 71.809 62.34 71.899 62.76C71.989 63.17 72.109 63.505 72.259 63.765C72.409 64.015 72.584 64.195 72.784 64.305C72.994 64.415 73.219 64.47 73.459 64.47C73.699 64.47 73.919 64.415 74.119 64.305C74.329 64.195 74.509 64.015 74.659 63.765C74.809 63.505 74.929 63.17 75.019 62.76C75.109 62.34 75.154 61.82 75.154 61.2C75.154 60.58 75.109 60.065 75.019 59.655C74.929 59.245 74.809 58.92 74.659 58.68C74.509 58.43 74.329 58.255 74.119 58.155C73.919 58.055 73.699 58.005 73.459 58.005ZM73.459 62.31C73.139 62.31 72.869 62.21 72.649 62.01C72.439 61.8 72.334 61.52 72.334 61.17C72.334 60.82 72.439 60.545 72.649 60.345C72.869 60.135 73.139 60.03 73.459 60.03C73.779 60.03 74.044 60.135 74.254 60.345C74.474 60.545 74.584 60.82 74.584 61.17C74.584 61.52 74.474 61.8 74.254 62.01C74.044 62.21 73.779 62.31 73.459 62.31ZM109.646 64.53C109.836 64.53 110.016 64.5 110.186 64.44C110.366 64.38 110.521 64.29 110.651 64.17C110.791 64.04 110.901 63.88 110.981 63.69C111.061 63.49 111.101 63.255 111.101 62.985C111.101 62.495 110.971 62.145 110.711 61.935C110.451 61.715 110.111 61.605 109.691 61.605C109.411 61.605 109.121 61.675 108.821 61.815C108.521 61.955 108.226 62.195 107.936 62.535C107.996 62.915 108.081 63.235 108.191 63.495C108.311 63.745 108.446 63.95 108.596 64.11C108.746 64.26 108.911 64.37 109.091 64.44C109.271 64.5 109.456 64.53 109.646 64.53ZM111.821 58.755C111.621 58.575 111.371 58.42 111.071 58.29C110.771 58.15 110.461 58.08 110.141 58.08C109.851 58.08 109.571 58.135 109.301 58.245C109.041 58.345 108.806 58.515 108.596 58.755C108.396 58.985 108.231 59.29 108.101 59.67C107.971 60.05 107.896 60.52 107.876 61.08C108.216 60.75 108.591 60.495 109.001 60.315C109.421 60.135 109.811 60.045 110.171 60.045C110.591 60.045 110.976 60.105 111.326 60.225C111.686 60.345 111.996 60.525 112.256 60.765C112.526 61.005 112.736 61.31 112.886 61.68C113.036 62.05 113.111 62.485 113.111 62.985C113.111 63.485 113.016 63.93 112.826 64.32C112.646 64.71 112.396 65.045 112.076 65.325C111.766 65.605 111.406 65.82 110.996 65.97C110.586 66.11 110.151 66.18 109.691 66.18C109.201 66.18 108.726 66.09 108.266 65.91C107.806 65.73 107.396 65.45 107.036 65.07C106.676 64.69 106.386 64.205 106.166 63.615C105.946 63.015 105.836 62.295 105.836 61.455C105.836 60.565 105.951 59.795 106.181 59.145C106.411 58.495 106.716 57.96 107.096 57.54C107.486 57.12 107.926 56.81 108.416 56.61C108.906 56.4 109.416 56.295 109.946 56.295C110.626 56.295 111.221 56.41 111.731 56.64C112.241 56.86 112.656 57.125 112.976 57.435L111.821 58.755ZM68.0198 82.215V84H61.1948V82.215H63.6548V76.71H61.6898V75.345C62.2498 75.245 62.7248 75.125 63.1148 74.985C63.5148 74.845 63.8898 74.675 64.2398 74.475H65.8598V82.215H68.0198ZM69.829 82.74C70.509 82.17 71.129 81.64 71.689 81.15C72.249 80.65 72.729 80.185 73.129 79.755C73.529 79.325 73.839 78.92 74.059 78.54C74.279 78.16 74.389 77.8 74.389 77.46C74.389 76.99 74.254 76.635 73.984 76.395C73.714 76.145 73.329 76.02 72.829 76.02C72.449 76.02 72.099 76.12 71.779 76.32C71.469 76.51 71.179 76.735 70.909 76.995L69.724 75.81C69.974 75.56 70.219 75.34 70.459 75.15C70.709 74.96 70.969 74.805 71.239 74.685C71.519 74.555 71.809 74.46 72.109 74.4C72.419 74.33 72.759 74.295 73.129 74.295C73.629 74.295 74.084 74.37 74.494 74.52C74.904 74.66 75.254 74.865 75.544 75.135C75.844 75.395 76.074 75.71 76.234 76.08C76.404 76.45 76.489 76.865 76.489 77.325C76.489 77.725 76.394 78.135 76.204 78.555C76.014 78.965 75.754 79.38 75.424 79.8C75.104 80.21 74.734 80.625 74.314 81.045C73.894 81.455 73.454 81.86 72.994 82.26C73.264 82.23 73.554 82.205 73.864 82.185C74.184 82.155 74.469 82.14 74.719 82.14H76.984V84H69.829V82.74ZM106.586 81.435C106.906 81.715 107.261 81.945 107.651 82.125C108.051 82.305 108.471 82.395 108.911 82.395C109.431 82.395 109.856 82.3 110.186 82.11C110.526 81.91 110.696 81.63 110.696 81.27C110.696 81.06 110.651 80.87 110.561 80.7C110.471 80.53 110.316 80.39 110.096 80.28C109.876 80.16 109.581 80.07 109.211 80.01C108.841 79.94 108.376 79.905 107.816 79.905V78.345C108.756 78.345 109.416 78.23 109.796 78C110.186 77.76 110.381 77.45 110.381 77.07C110.381 76.74 110.256 76.485 110.006 76.305C109.756 76.115 109.411 76.02 108.971 76.02C108.591 76.02 108.241 76.095 107.921 76.245C107.601 76.395 107.276 76.6 106.946 76.86L105.836 75.51C106.306 75.13 106.806 74.835 107.336 74.625C107.876 74.405 108.456 74.295 109.076 74.295C109.596 74.295 110.071 74.355 110.501 74.475C110.931 74.585 111.301 74.755 111.611 74.985C111.921 75.205 112.161 75.475 112.331 75.795C112.501 76.115 112.586 76.485 112.586 76.905C112.586 77.405 112.426 77.83 112.106 78.18C111.786 78.52 111.341 78.8 110.771 79.02V79.08C111.371 79.24 111.876 79.515 112.286 79.905C112.696 80.285 112.901 80.785 112.901 81.405C112.901 81.845 112.796 82.24 112.586 82.59C112.386 82.93 112.111 83.22 111.761 83.46C111.421 83.69 111.021 83.87 110.561 84C110.101 84.12 109.621 84.18 109.121 84.18C108.301 84.18 107.596 84.06 107.006 83.82C106.416 83.57 105.936 83.24 105.566 82.83L106.586 81.435ZM116.75 81.315C116.75 81.735 116.915 82.065 117.245 82.305C117.575 82.535 117.985 82.65 118.475 82.65C118.925 82.65 119.285 82.555 119.555 82.365C119.835 82.165 119.975 81.865 119.975 81.465C119.975 81.245 119.92 81.06 119.81 80.91C119.7 80.76 119.54 80.625 119.33 80.505C119.13 80.375 118.89 80.26 118.61 80.16C118.33 80.05 118.02 79.93 117.68 79.8C117.41 80 117.185 80.225 117.005 80.475C116.835 80.725 116.75 81.005 116.75 81.315ZM119.075 78.45C119.555 78.02 119.795 77.555 119.795 77.055C119.795 76.685 119.68 76.39 119.45 76.17C119.22 75.94 118.885 75.825 118.445 75.825C118.095 75.825 117.795 75.915 117.545 76.095C117.305 76.275 117.185 76.55 117.185 76.92C117.185 77.31 117.36 77.615 117.71 77.835C118.06 78.055 118.515 78.26 119.075 78.45ZM114.845 81.57C114.845 81.28 114.89 81.02 114.98 80.79C115.08 80.55 115.21 80.335 115.37 80.145C115.54 79.955 115.73 79.785 115.94 79.635C116.16 79.485 116.395 79.35 116.645 79.23V79.17C116.245 78.89 115.91 78.575 115.64 78.225C115.38 77.865 115.25 77.43 115.25 76.92C115.25 76.52 115.33 76.16 115.49 75.84C115.65 75.51 115.87 75.23 116.15 75C116.44 74.77 116.785 74.595 117.185 74.475C117.585 74.355 118.02 74.295 118.49 74.295C118.97 74.295 119.4 74.36 119.78 74.49C120.17 74.61 120.5 74.785 120.77 75.015C121.04 75.235 121.245 75.51 121.385 75.84C121.535 76.16 121.61 76.515 121.61 76.905C121.61 77.355 121.475 77.755 121.205 78.105C120.945 78.455 120.625 78.75 120.245 78.99V79.05C120.495 79.17 120.73 79.31 120.95 79.47C121.17 79.62 121.36 79.795 121.52 79.995C121.68 80.195 121.805 80.425 121.895 80.685C121.985 80.935 122.03 81.22 122.03 81.54C122.03 81.92 121.95 82.27 121.79 82.59C121.63 82.91 121.395 83.19 121.085 83.43C120.785 83.66 120.41 83.845 119.96 83.985C119.51 84.115 118.995 84.18 118.415 84.18C117.865 84.18 117.37 84.12 116.93 84C116.49 83.87 116.115 83.69 115.805 83.46C115.495 83.23 115.255 82.955 115.085 82.635C114.925 82.315 114.845 81.96 114.845 81.57Z" fill="#F0E442"/>
<path d="M90.6373 42.83H87.9973V41.27H90.6373V38.51H92.2573V41.27H94.8973V42.83H92.2573V45.59H90.6373V42.83ZM87.9973 60.27H94.8973V61.83H87.9973V60.27ZM90.6373 79.83H87.9973V78.27H90.6373V75.51H92.2573V78.27H94.8973V79.83H92.2573V82.59H90.6373V79.83Z" fill="#E0E0E0"/>
<path d="M5.65 148.435C5.97 148.715 6.325 148.945 6.715 149.125C7.115 149.305 7.535 149.395 7.975 149.395C8.495 149.395 8.92 149.3 9.25 149.11C9.59 148.91 9.76 148.63 9.76 148.27C9.76 148.06 9.715 147.87 9.625 147.7C9.535 147.53 9.38 147.39 9.16 147.28C8.94 147.16 8.645 147.07 8.275 147.01C7.905 146.94 7.44 146.905 6.88 146.905V145.345C7.82 145.345 8.48 145.23 8.86 145C9.25 144.76 9.445 144.45 9.445 144.07C9.445 143.74 9.32 143.485 9.07 143.305C8.82 143.115 8.475 143.02 8.035 143.02C7.655 143.02 7.305 143.095 6.985 143.245C6.665 143.395 6.34 143.6 6.01 143.86L4.9 142.51C5.37 142.13 5.87 141.835 6.4 141.625C6.94 141.405 7.52 141.295 8.14 141.295C8.66 141.295 9.135 141.355 9.565 141.475C9.995 141.585 10.365 141.755 10.675 141.985C10.985 142.205 11.225 142.475 11.395 142.795C11.565 143.115 11.65 143.485 11.65 143.905C11.65 144.405 11.49 144.83 11.17 145.18C10.85 145.52 10.405 145.8 9.835 146.02V146.08C10.435 146.24 10.94 146.515 11.35 146.905C11.76 147.285 11.965 147.785 11.965 148.405C11.965 148.845 11.86 149.24 11.65 149.59C11.45 149.93 11.175 150.22 10.825 150.46C10.485 150.69 10.085 150.87 9.625 151C9.165 151.12 8.685 151.18 8.185 151.18C7.365 151.18 6.66 151.06 6.07 150.82C5.48 150.57 5 150.24 4.63 149.83L5.65 148.435ZM17.4941 151.18C16.9441 151.18 16.4441 151.075 15.9941 150.865C15.5441 150.645 15.1591 150.325 14.8391 149.905C14.5191 149.485 14.2691 148.965 14.0891 148.345C13.9191 147.725 13.8341 147.01 13.8341 146.2C13.8341 145.39 13.9191 144.68 14.0891 144.07C14.2691 143.46 14.5191 142.95 14.8391 142.54C15.1591 142.12 15.5441 141.81 15.9941 141.61C16.4441 141.4 16.9441 141.295 17.4941 141.295C18.0441 141.295 18.5441 141.4 18.9941 141.61C19.4441 141.81 19.8291 142.12 20.1491 142.54C20.4691 142.95 20.7141 143.46 20.8841 144.07C21.0641 144.68 21.1541 145.39 21.1541 146.2C21.1541 147.01 21.0641 147.725 20.8841 148.345C20.7141 148.965 20.4691 149.485 20.1491 149.905C19.8291 150.325 19.4441 150.645 18.9941 150.865C18.5441 151.075 18.0441 151.18 17.4941 151.18ZM17.4941 143.005C17.2541 143.005 17.0291 143.055 16.8191 143.155C16.6191 143.255 16.4441 143.43 16.2941 143.68C16.1441 143.92 16.0241 144.245 15.9341 144.655C15.8441 145.065 15.7991 145.58 15.7991 146.2C15.7991 146.82 15.8441 147.34 15.9341 147.76C16.0241 148.17 16.1441 148.505 16.2941 148.765C16.4441 149.015 16.6191 149.195 16.8191 149.305C17.0291 149.415 17.2541 149.47 17.4941 149.47C17.7341 149.47 17.9541 149.415 18.1541 149.305C18.3641 149.195 18.5441 149.015 18.6941 148.765C18.8441 148.505 18.9641 148.17 19.0541 147.76C19.1441 147.34 19.1891 146.82 19.1891 146.2C19.1891 145.58 19.1441 145.065 19.0541 144.655C18.9641 144.245 18.8441 143.92 18.6941 143.68C18.5441 143.43 18.3641 143.255 18.1541 143.155C17.9541 143.055 17.7341 143.005 17.4941 143.005ZM17.4941 147.31C17.1741 147.31 16.9041 147.21 16.6841 147.01C16.4741 146.8 16.3691 146.52 16.3691 146.17C16.3691 145.82 16.4741 145.545 16.6841 145.345C16.9041 145.135 17.1741 145.03 17.4941 145.03C17.8141 145.03 18.0791 145.135 18.2891 145.345C18.5091 145.545 18.6191 145.82 18.6191 146.17C18.6191 146.52 18.5091 146.8 18.2891 147.01C18.0791 147.21 17.8141 147.31 17.4941 147.31ZM9.115 166.04V164.435C9.115 164.135 9.12 163.79 9.13 163.4C9.15 163 9.17 162.65 9.19 162.35H9.13C8.97 162.62 8.8 162.89 8.62 163.16C8.44 163.43 8.265 163.7 8.095 163.97L6.655 166.04H9.115ZM12.37 167.72H11.17V170H9.115V167.72H4.525V166.205L8.5 160.475H11.17V166.04H12.37V167.72ZM5.68 185.45C6 185.71 6.34 185.935 6.7 186.125C7.07 186.305 7.48 186.395 7.93 186.395C8.47 186.395 8.91 186.27 9.25 186.02C9.6 185.77 9.775 185.4 9.775 184.91C9.775 184.43 9.61 184.065 9.28 183.815C8.96 183.565 8.545 183.44 8.035 183.44C7.875 183.44 7.73 183.45 7.6 183.47C7.48 183.48 7.36 183.505 7.24 183.545C7.12 183.585 6.995 183.635 6.865 183.695C6.735 183.755 6.59 183.83 6.43 183.92L5.455 183.29L5.71 178.475H11.545V180.335H7.615L7.45 182.12C7.67 182.04 7.875 181.985 8.065 181.955C8.255 181.915 8.47 181.895 8.71 181.895C9.15 181.895 9.565 181.955 9.955 182.075C10.355 182.195 10.705 182.375 11.005 182.615C11.305 182.855 11.54 183.16 11.71 183.53C11.89 183.9 11.98 184.34 11.98 184.85C11.98 185.38 11.875 185.85 11.665 186.26C11.465 186.67 11.19 187.02 10.84 187.31C10.5 187.59 10.105 187.805 9.655 187.955C9.205 188.105 8.735 188.18 8.245 188.18C7.415 188.18 6.71 188.055 6.13 187.805C5.56 187.545 5.08 187.225 4.69 186.845L5.68 185.45ZM17.4941 188.18C16.9441 188.18 16.4441 188.075 15.9941 187.865C15.5441 187.645 15.1591 187.325 14.8391 186.905C14.5191 186.485 14.2691 185.965 14.0891 185.345C13.9191 184.725 13.8341 184.01 13.8341 183.2C13.8341 182.39 13.9191 181.68 14.0891 181.07C14.2691 180.46 14.5191 179.95 14.8391 179.54C15.1591 179.12 15.5441 178.81 15.9941 178.61C16.4441 178.4 16.9441 178.295 17.4941 178.295C18.0441 178.295 18.5441 178.4 18.9941 178.61C19.4441 178.81 19.8291 179.12 20.1491 179.54C20.4691 179.95 20.7141 180.46 20.8841 181.07C21.0641 181.68 21.1541 182.39 21.1541 183.2C21.1541 184.01 21.0641 184.725 20.8841 185.345C20.7141 185.965 20.4691 186.485 20.1491 186.905C19.8291 187.325 19.4441 187.645 18.9941 187.865C18.5441 188.075 18.0441 188.18 17.4941 188.18ZM17.4941 180.005C17.2541 180.005 17.0291 180.055 16.8191 180.155C16.6191 180.255 16.4441 180.43 16.2941 180.68C16.1441 180.92 16.0241 181.245 15.9341 181.655C15.8441 182.065 15.7991 182.58 15.7991 183.2C15.7991 183.82 15.8441 184.34 15.9341 184.76C16.0241 185.17 16.1441 185.505 16.2941 185.765C16.4441 186.015 16.6191 186.195 16.8191 186.305C17.0291 186.415 17.2541 186.47 17.4941 186.47C17.7341 186.47 17.9541 186.415 18.1541 186.305C18.3641 186.195 18.5441 186.015 18.6941 185.765C18.8441 185.505 18.9641 185.17 19.0541 184.76C19.1441 184.34 19.1891 183.82 19.1891 183.2C19.1891 182.58 19.1441 182.065 19.0541 181.655C18.9641 181.245 18.8441 180.92 18.6941 180.68C18.5441 180.43 18.3641 180.255 18.1541 180.155C17.9541 180.055 17.7341 180.005 17.4941 180.005ZM17.4941 184.31C17.1741 184.31 16.9041 184.21 16.6841 184.01C16.4741 183.8 16.3691 183.52 16.3691 183.17C16.3691 182.82 16.4741 182.545 16.6841 182.345C16.9041 182.135 17.1741 182.03 17.4941 182.03C17.8141 182.03 18.0791 182.135 18.2891 182.345C18.5091 182.545 18.6191 182.82 18.6191 183.17C18.6191 183.52 18.5091 183.8 18.2891 184.01C18.0791 184.21 17.8141 184.31 17.4941 184.31Z" fill="white"/>
<path d="M8.5 133.18C7.92 133.18 7.385 133.065 6.895 132.835C6.415 132.595 6 132.255 5.65 131.815C5.31 131.375 5.045 130.84 4.855 130.21C4.665 129.58 4.57 128.865 4.57 128.065C4.57 127.265 4.665 126.555 4.855 125.935C5.045 125.305 5.31 124.78 5.65 124.36C6 123.93 6.415 123.605 6.895 123.385C7.385 123.155 7.92 123.04 8.5 123.04C9.08 123.04 9.61 123.155 10.09 123.385C10.58 123.605 10.995 123.93 11.335 124.36C11.685 124.79 11.955 125.32 12.145 125.95C12.335 126.57 12.43 127.275 12.43 128.065C12.43 128.865 12.335 129.58 12.145 130.21C11.955 130.84 11.685 131.375 11.335 131.815C10.995 132.255 10.58 132.595 10.09 132.835C9.61 133.065 9.08 133.18 8.5 133.18ZM8.5 131.275C9.01 131.275 9.415 130.99 9.715 130.42C10.015 129.84 10.165 129.055 10.165 128.065C10.165 127.085 10.015 126.32 9.715 125.77C9.415 125.22 9.01 124.945 8.5 124.945C7.99 124.945 7.585 125.22 7.285 125.77C6.985 126.32 6.835 127.085 6.835 128.065C6.835 129.055 6.985 129.84 7.285 130.42C7.585 130.99 7.99 131.275 8.5 131.275ZM20.8691 133H19.0691L18.9041 131.935H18.8441C18.5141 132.315 18.1491 132.62 17.7491 132.85C17.3491 133.07 16.8791 133.18 16.3391 133.18C15.4891 133.18 14.8741 132.91 14.4941 132.37C14.1141 131.83 13.9241 131.09 13.9241 130.15V125.56H16.1291V129.865C16.1291 130.365 16.2041 130.73 16.3541 130.96C16.5041 131.19 16.7891 131.305 17.2091 131.305C17.4891 131.305 17.7341 131.245 17.9441 131.125C18.1641 131.005 18.4041 130.78 18.6641 130.45V125.56H20.8691V133ZM24.5983 127.285H22.7233V125.65L24.7033 125.56L24.9883 123.58H26.8033V125.56H29.9533V127.285H26.8033V129.895C26.8033 130.465 26.9283 130.87 27.1783 131.11C27.4283 131.34 27.8233 131.455 28.3633 131.455C28.6533 131.455 28.9183 131.43 29.1583 131.38C29.3983 131.33 29.6283 131.265 29.8483 131.185L30.2383 132.775C29.9083 132.875 29.5383 132.965 29.1283 133.045C28.7283 133.135 28.2883 133.18 27.8083 133.18C27.2183 133.18 26.7183 133.1 26.3083 132.94C25.8983 132.78 25.5633 132.56 25.3033 132.28C25.0533 131.99 24.8733 131.645 24.7633 131.245C24.6533 130.845 24.5983 130.4 24.5983 129.91V127.285ZM34.2674 133.585V135.76H32.0624V125.56H33.8624L34.0274 126.31H34.0724C34.3724 126.04 34.7174 125.82 35.1074 125.65C35.4974 125.47 35.8924 125.38 36.2924 125.38C36.7524 125.38 37.1674 125.47 37.5374 125.65C37.9074 125.83 38.2224 126.085 38.4824 126.415C38.7424 126.745 38.9374 127.145 39.0674 127.615C39.2074 128.075 39.2774 128.59 39.2774 129.16C39.2774 129.8 39.1874 130.37 39.0074 130.87C38.8274 131.36 38.5874 131.78 38.2874 132.13C37.9874 132.47 37.6424 132.73 37.2524 132.91C36.8724 133.09 36.4724 133.18 36.0524 133.18C35.3724 133.18 34.7524 132.91 34.1924 132.37L34.2674 133.585ZM34.2674 130.885C34.4774 131.065 34.6924 131.195 34.9124 131.275C35.1424 131.345 35.3524 131.38 35.5424 131.38C35.9624 131.38 36.3124 131.21 36.5924 130.87C36.8724 130.52 37.0124 129.96 37.0124 129.19C37.0124 127.85 36.5574 127.18 35.6474 127.18C35.1774 127.18 34.7174 127.41 34.2674 127.87V130.885ZM47.8516 133H46.0516L45.8866 131.935H45.8266C45.4966 132.315 45.1316 132.62 44.7316 132.85C44.3316 133.07 43.8616 133.18 43.3216 133.18C42.4716 133.18 41.8566 132.91 41.4766 132.37C41.0966 131.83 40.9066 131.09 40.9066 130.15V125.56H43.1116V129.865C43.1116 130.365 43.1866 130.73 43.3366 130.96C43.4866 131.19 43.7716 131.305 44.1916 131.305C44.4716 131.305 44.7166 131.245 44.9266 131.125C45.1466 131.005 45.3866 130.78 45.6466 130.45V125.56H47.8516V133ZM51.5807 127.285H49.7057V125.65L51.6857 125.56L51.9707 123.58H53.7857V125.56H56.9357V127.285H53.7857V129.895C53.7857 130.465 53.9107 130.87 54.1607 131.11C54.4107 131.34 54.8057 131.455 55.3457 131.455C55.6357 131.455 55.9007 131.43 56.1407 131.38C56.3807 131.33 56.6107 131.265 56.8307 131.185L57.2207 132.775C56.8907 132.875 56.5207 132.965 56.1107 133.045C55.7107 133.135 55.2707 133.18 54.7907 133.18C54.2007 133.18 53.7007 133.1 53.2907 132.94C52.8807 132.78 52.5457 132.56 52.2857 132.28C52.0357 131.99 51.8557 131.645 51.7457 131.245C51.6357 130.845 51.5807 130.4 51.5807 129.91V127.285Z" fill="white"/>
<rect x="89" width="133" height="26" fill="#333333"/>
<rect x="89" width="133" height="26" fill="#333333"/>
<rect width="89" height="26" fill="#090808"/>
<path d="M17.105 16.8101C17.105 16.5513 16.9756 16.3486 16.7168 16.2021C16.4629 16.0508 16.0527 15.9165 15.4863 15.7993C13.6016 15.4038 12.6592 14.603 12.6592 13.397C12.6592 12.6938 12.9497 12.1079 13.5308 11.6392C14.1167 11.1655 14.8809 10.9287 15.8232 10.9287C16.8291 10.9287 17.6323 11.1655 18.2329 11.6392C18.8384 12.1128 19.1411 12.728 19.1411 13.4849H17.0244C17.0244 13.1821 16.9268 12.9331 16.7314 12.7378C16.5361 12.5376 16.231 12.4375 15.8159 12.4375C15.4595 12.4375 15.1836 12.5181 14.9883 12.6792C14.793 12.8403 14.6953 13.0454 14.6953 13.2944C14.6953 13.5288 14.8052 13.7192 15.0249 13.8657C15.2495 14.0073 15.6255 14.1318 16.1528 14.2393C16.6802 14.3418 17.1245 14.459 17.4858 14.5908C18.604 15.001 19.1631 15.7114 19.1631 16.7222C19.1631 17.4448 18.853 18.0308 18.2329 18.48C17.6128 18.9243 16.812 19.1465 15.8306 19.1465C15.1665 19.1465 14.5757 19.0293 14.0581 18.7949C13.5454 18.5557 13.1426 18.231 12.8496 17.8208C12.5566 17.4058 12.4102 16.959 12.4102 16.4805H14.417C14.4365 16.8564 14.5757 17.1445 14.8345 17.3447C15.0933 17.5449 15.4399 17.645 15.8745 17.645C16.2798 17.645 16.585 17.5693 16.79 17.418C17 17.2617 17.105 17.0591 17.105 16.8101ZM23.8286 17.4399C24.2192 17.4399 24.5366 17.3325 24.7808 17.1177C25.0249 16.9028 25.1519 16.6172 25.1616 16.2607H27.1465C27.1416 16.7979 26.9951 17.291 26.707 17.7402C26.4189 18.1846 26.0234 18.5312 25.5205 18.7803C25.0225 19.0244 24.4707 19.1465 23.8652 19.1465C22.7324 19.1465 21.8389 18.7876 21.1846 18.0698C20.5303 17.3472 20.2031 16.3511 20.2031 15.0815V14.9424C20.2031 13.7217 20.5278 12.7476 21.1772 12.02C21.8267 11.2925 22.7178 10.9287 23.8506 10.9287C24.8418 10.9287 25.6353 11.2119 26.231 11.7783C26.8315 12.3398 27.1367 13.0894 27.1465 14.0269H25.1616C25.1519 13.6167 25.0249 13.2847 24.7808 13.0308C24.5366 12.772 24.2144 12.6426 23.814 12.6426C23.3208 12.6426 22.9473 12.8232 22.6934 13.1846C22.4443 13.541 22.3198 14.1221 22.3198 14.9277V15.1475C22.3198 15.9629 22.4443 16.5488 22.6934 16.9053C22.9424 17.2617 23.3208 17.4399 23.8286 17.4399ZM32.8081 13.0601C32.52 13.021 32.2661 13.0015 32.0464 13.0015C31.2456 13.0015 30.7207 13.2725 30.4717 13.8145V19H28.355V11.0752H30.3545L30.4131 12.02C30.8379 11.2925 31.4263 10.9287 32.1782 10.9287C32.4126 10.9287 32.6323 10.9604 32.8374 11.0239L32.8081 13.0601ZM36.0674 19H33.9434V11.0752H36.0674V19ZM33.8188 9.02441C33.8188 8.70703 33.9238 8.4458 34.1338 8.24072C34.3486 8.03564 34.6392 7.93311 35.0054 7.93311C35.3667 7.93311 35.6548 8.03564 35.8696 8.24072C36.0845 8.4458 36.1919 8.70703 36.1919 9.02441C36.1919 9.34668 36.082 9.61035 35.8623 9.81543C35.6475 10.0205 35.3618 10.123 35.0054 10.123C34.6489 10.123 34.3608 10.0205 34.1411 9.81543C33.9263 9.61035 33.8188 9.34668 33.8188 9.02441ZM44.9517 15.1108C44.9517 16.3315 44.6733 17.3105 44.1167 18.0479C43.5649 18.7803 42.8179 19.1465 41.8755 19.1465C41.0747 19.1465 40.4277 18.8682 39.9346 18.3115V22.0469H37.8179V11.0752H39.7808L39.854 11.8516C40.3667 11.2363 41.0356 10.9287 41.8608 10.9287C42.8374 10.9287 43.5967 11.29 44.1387 12.0127C44.6807 12.7354 44.9517 13.7314 44.9517 15.001V15.1108ZM42.835 14.957C42.835 14.2197 42.7031 13.6509 42.4395 13.2505C42.1807 12.8501 41.8022 12.6499 41.3042 12.6499C40.6401 12.6499 40.1836 12.9038 39.9346 13.4116V16.6562C40.1934 17.1787 40.6548 17.4399 41.3188 17.4399C42.3296 17.4399 42.835 16.6123 42.835 14.957ZM48.8042 9.12695V11.0752H50.1592V12.6279H48.8042V16.583C48.8042 16.876 48.8604 17.0859 48.9727 17.2129C49.085 17.3398 49.2998 17.4033 49.6172 17.4033C49.8516 17.4033 50.0591 17.3862 50.2397 17.3521V18.9561C49.8247 19.083 49.3975 19.1465 48.958 19.1465C47.4736 19.1465 46.7168 18.397 46.6875 16.8979V12.6279H45.5303V11.0752H46.6875V9.12695H48.8042ZM51.4482 17.96C51.4482 17.623 51.5605 17.3496 51.7852 17.1396C52.0146 16.9297 52.3003 16.8247 52.6421 16.8247C52.9888 16.8247 53.2744 16.9297 53.499 17.1396C53.7285 17.3496 53.8433 17.623 53.8433 17.96C53.8433 18.292 53.731 18.563 53.5063 18.7729C53.2817 18.978 52.9937 19.0806 52.6421 19.0806C52.2954 19.0806 52.0098 18.978 51.7852 18.7729C51.5605 18.563 51.4482 18.292 51.4482 17.96ZM62.8374 15.1108C62.8374 16.3315 62.5591 17.3105 62.0024 18.0479C61.4507 18.7803 60.7036 19.1465 59.7612 19.1465C58.9604 19.1465 58.3135 18.8682 57.8203 18.3115V22.0469H55.7036V11.0752H57.6665L57.7397 11.8516C58.2524 11.2363 58.9214 10.9287 59.7466 10.9287C60.7231 10.9287 61.4824 11.29 62.0244 12.0127C62.5664 12.7354 62.8374 13.7314 62.8374 15.001V15.1108ZM60.7207 14.957C60.7207 14.2197 60.5889 13.6509 60.3252 13.2505C60.0664 12.8501 59.688 12.6499 59.1899 12.6499C58.5259 12.6499 58.0693 12.9038 57.8203 13.4116V16.6562C58.0791 17.1787 58.5405 17.4399 59.2046 17.4399C60.2153 17.4399 60.7207 16.6123 60.7207 14.957ZM67.0269 16.0044L68.4917 11.0752H70.7622L67.5762 20.2305L67.4004 20.6479C66.9268 21.6831 66.1455 22.2007 65.0566 22.2007C64.749 22.2007 64.4365 22.1543 64.1191 22.0615V20.4575L64.4414 20.4648C64.8418 20.4648 65.1396 20.4038 65.335 20.2817C65.5352 20.1597 65.6914 19.957 65.8037 19.6738L66.0527 19.022L63.2769 11.0752H65.5547L67.0269 16.0044Z" fill="white"/>
<line y1="113.5" x2="222" y2="113.5" stroke="white"/>
</svg>
