<svg width="278" height="239" viewBox="0 0 278 239" fill="none" xmlns="http://www.w3.org/2000/svg">
<rect width="278" height="239" fill="black"/>
<path d="M3.39 7.08H0.465V5.22H8.535V7.08H5.61V15H3.39V7.08ZM10.7341 7.56H12.5341L12.7141 9.18H12.7591C13.1291 8.57 13.5741 8.12 14.0941 7.83C14.6141 7.53 15.1741 7.38 15.7741 7.38C16.1041 7.38 16.3691 7.405 16.5691 7.455C16.7791 7.505 16.9941 7.58 17.2141 7.68L16.7641 9.525C16.5341 9.455 16.3241 9.405 16.1341 9.375C15.9541 9.335 15.7241 9.315 15.4441 9.315C14.9841 9.315 14.5291 9.45 14.0791 9.72C13.6391 9.99 13.2591 10.46 12.9391 11.13V15H10.7341V7.56ZM25.8633 15H24.0633L23.8983 13.935H23.8383C23.5083 14.315 23.1433 14.62 22.7433 14.85C22.3433 15.07 21.8733 15.18 21.3333 15.18C20.4833 15.18 19.8683 14.91 19.4883 14.37C19.1083 13.83 18.9183 13.09 18.9183 12.15V7.56H21.1233V11.865C21.1233 12.365 21.1983 12.73 21.3483 12.96C21.4983 13.19 21.7833 13.305 22.2033 13.305C22.4833 13.305 22.7283 13.245 22.9383 13.125C23.1583 13.005 23.3983 12.78 23.6583 12.45V7.56H25.8633V15ZM27.8074 11.28C27.8074 10.67 27.9124 10.125 28.1224 9.645C28.3424 9.165 28.6324 8.76 28.9924 8.43C29.3524 8.09 29.7624 7.83 30.2224 7.65C30.6924 7.47 31.1774 7.38 31.6774 7.38C32.2474 7.38 32.7524 7.47 33.1924 7.65C33.6324 7.83 33.9974 8.08 34.2874 8.4C34.5774 8.72 34.7974 9.1 34.9474 9.54C35.0974 9.97 35.1724 10.44 35.1724 10.95C35.1724 11.15 35.1624 11.34 35.1424 11.52C35.1224 11.7 35.1024 11.835 35.0824 11.925H30.0724C30.1524 12.485 30.3924 12.89 30.7924 13.14C31.2024 13.38 31.6824 13.5 32.2324 13.5C32.5724 13.5 32.8924 13.46 33.1924 13.38C33.5024 13.29 33.8224 13.16 34.1524 12.99L34.8724 14.31C34.4524 14.58 33.9824 14.795 33.4624 14.955C32.9424 15.105 32.4324 15.18 31.9324 15.18C31.3524 15.18 30.8124 15.095 30.3124 14.925C29.8124 14.745 29.3774 14.49 29.0074 14.16C28.6374 13.82 28.3424 13.41 28.1224 12.93C27.9124 12.45 27.8074 11.9 27.8074 11.28ZM33.1774 10.47C33.1774 10.05 33.0624 9.71 32.8324 9.45C32.6024 9.19 32.2324 9.06 31.7224 9.06C31.3224 9.06 30.9674 9.175 30.6574 9.405C30.3474 9.635 30.1424 9.99 30.0424 10.47H33.1774ZM1.62 24.22H8.07V26.08H3.825V28.345H7.44V30.205H3.825V34H1.62V24.22ZM9.90914 31.93C9.90914 31.51 9.99914 31.145 10.1791 30.835C10.3591 30.515 10.6441 30.245 11.0341 30.025C11.4341 29.805 11.9441 29.63 12.5641 29.5C13.1841 29.36 13.9341 29.265 14.8141 29.215C14.7741 28.875 14.6241 28.61 14.3641 28.42C14.1141 28.23 13.7341 28.135 13.2241 28.135C12.8641 28.135 12.4991 28.2 12.1291 28.33C11.7691 28.45 11.3791 28.615 10.9591 28.825L10.1791 27.385C10.6891 27.095 11.2341 26.855 11.8141 26.665C12.4041 26.475 13.0191 26.38 13.6591 26.38C14.6991 26.38 15.5191 26.655 16.1191 27.205C16.7191 27.755 17.0191 28.6 17.0191 29.74V34H15.2191L15.0541 33.16H14.9941C14.6141 33.45 14.1991 33.695 13.7491 33.895C13.2991 34.085 12.8341 34.18 12.3541 34.18C11.9741 34.18 11.6341 34.12 11.3341 34C11.0341 33.89 10.7791 33.735 10.5691 33.535C10.3591 33.325 10.1941 33.085 10.0741 32.815C9.96414 32.545 9.90914 32.25 9.90914 31.93ZM12.0241 31.765C12.0241 32.005 12.1141 32.185 12.2941 32.305C12.4841 32.415 12.7391 32.47 13.0591 32.47C13.3891 32.47 13.6991 32.405 13.9891 32.275C14.2791 32.135 14.5541 31.965 14.8141 31.765V30.535C14.2641 30.565 13.8091 30.615 13.4491 30.685C13.0891 30.755 12.8041 30.845 12.5941 30.955C12.3841 31.055 12.2341 31.175 12.1441 31.315C12.0641 31.455 12.0241 31.605 12.0241 31.765ZM18.9183 23.485H23.2833V31.18C23.2833 31.41 23.3133 31.605 23.3733 31.765C23.4433 31.915 23.5333 32.04 23.6433 32.14C23.7633 32.23 23.8933 32.295 24.0333 32.335C24.1833 32.375 24.3333 32.395 24.4833 32.395C24.6533 32.395 24.8333 32.38 25.0233 32.35C25.2133 32.31 25.4233 32.245 25.6533 32.155L26.1483 33.775C25.9483 33.835 25.7633 33.89 25.5933 33.94C25.4233 33.99 25.2533 34.03 25.0833 34.06C24.9133 34.1 24.7333 34.13 24.5433 34.15C24.3533 34.17 24.1433 34.18 23.9133 34.18C22.9733 34.18 22.2633 33.905 21.7833 33.355C21.3133 32.795 21.0783 32.04 21.0783 31.09V25.225H18.9183V23.485ZM28.7674 31.66C29.1974 31.93 29.6274 32.145 30.0574 32.305C30.4974 32.465 30.9674 32.545 31.4674 32.545C31.9774 32.545 32.3424 32.49 32.5624 32.38C32.7824 32.27 32.8924 32.115 32.8924 31.915C32.8924 31.685 32.7074 31.5 32.3374 31.36C31.9774 31.21 31.4974 31.05 30.8974 30.88C30.5674 30.79 30.2424 30.685 29.9224 30.565C29.6124 30.435 29.3324 30.285 29.0824 30.115C28.8324 29.935 28.6274 29.73 28.4674 29.5C28.3174 29.27 28.2424 29.005 28.2424 28.705C28.2424 28.365 28.3224 28.05 28.4824 27.76C28.6424 27.47 28.8674 27.225 29.1574 27.025C29.4574 26.825 29.8174 26.67 30.2374 26.56C30.6674 26.44 31.1474 26.38 31.6774 26.38C32.3374 26.38 32.9374 26.49 33.4774 26.71C34.0274 26.92 34.4974 27.15 34.8874 27.4L33.8974 28.72C33.5574 28.52 33.2074 28.355 32.8474 28.225C32.4874 28.085 32.1124 28.015 31.7224 28.015C31.2524 28.015 30.9174 28.065 30.7174 28.165C30.5274 28.265 30.4324 28.41 30.4324 28.6C30.4324 28.71 30.4824 28.81 30.5824 28.9C30.6824 28.99 30.8174 29.07 30.9874 29.14C31.1574 29.21 31.3574 29.28 31.5874 29.35C31.8274 29.41 32.0774 29.475 32.3374 29.545C32.7074 29.645 33.0574 29.76 33.3874 29.89C33.7174 30.01 34.0074 30.155 34.2574 30.325C34.5074 30.495 34.7074 30.7 34.8574 30.94C35.0074 31.18 35.0824 31.46 35.0824 31.78C35.0824 32.12 35.0024 32.435 34.8424 32.725C34.6824 33.015 34.4474 33.27 34.1374 33.49C33.8374 33.7 33.4574 33.87 32.9974 34C32.5474 34.12 32.0224 34.18 31.4224 34.18C30.7524 34.18 30.0974 34.07 29.4574 33.85C28.8174 33.63 28.2574 33.36 27.7774 33.04L28.7674 31.66ZM36.8016 30.28C36.8016 29.67 36.9066 29.125 37.1166 28.645C37.3366 28.165 37.6266 27.76 37.9866 27.43C38.3466 27.09 38.7566 26.83 39.2166 26.65C39.6866 26.47 40.1716 26.38 40.6716 26.38C41.2416 26.38 41.7466 26.47 42.1866 26.65C42.6266 26.83 42.9916 27.08 43.2816 27.4C43.5716 27.72 43.7916 28.1 43.9416 28.54C44.0916 28.97 44.1666 29.44 44.1666 29.95C44.1666 30.15 44.1566 30.34 44.1366 30.52C44.1166 30.7 44.0966 30.835 44.0766 30.925H39.0666C39.1466 31.485 39.3866 31.89 39.7866 32.14C40.1966 32.38 40.6766 32.5 41.2266 32.5C41.5666 32.5 41.8866 32.46 42.1866 32.38C42.4966 32.29 42.8166 32.16 43.1466 31.99L43.8666 33.31C43.4466 33.58 42.9766 33.795 42.4566 33.955C41.9366 34.105 41.4266 34.18 40.9266 34.18C40.3466 34.18 39.8066 34.095 39.3066 33.925C38.8066 33.745 38.3716 33.49 38.0016 33.16C37.6316 32.82 37.3366 32.41 37.1166 31.93C36.9066 31.45 36.8016 30.9 36.8016 30.28ZM42.1716 29.47C42.1716 29.05 42.0566 28.71 41.8266 28.45C41.5966 28.19 41.2266 28.06 40.7166 28.06C40.3166 28.06 39.9616 28.175 39.6516 28.405C39.3416 28.635 39.1366 28.99 39.0366 29.47H42.1716ZM1.62 42.22H8.07V44.08H3.825V46.345H7.44V48.205H3.825V52H1.62V42.22ZM9.90914 49.93C9.90914 49.51 9.99914 49.145 10.1791 48.835C10.3591 48.515 10.6441 48.245 11.0341 48.025C11.4341 47.805 11.9441 47.63 12.5641 47.5C13.1841 47.36 13.9341 47.265 14.8141 47.215C14.7741 46.875 14.6241 46.61 14.3641 46.42C14.1141 46.23 13.7341 46.135 13.2241 46.135C12.8641 46.135 12.4991 46.2 12.1291 46.33C11.7691 46.45 11.3791 46.615 10.9591 46.825L10.1791 45.385C10.6891 45.095 11.2341 44.855 11.8141 44.665C12.4041 44.475 13.0191 44.38 13.6591 44.38C14.6991 44.38 15.5191 44.655 16.1191 45.205C16.7191 45.755 17.0191 46.6 17.0191 47.74V52H15.2191L15.0541 51.16H14.9941C14.6141 51.45 14.1991 51.695 13.7491 51.895C13.2991 52.085 12.8341 52.18 12.3541 52.18C11.9741 52.18 11.6341 52.12 11.3341 52C11.0341 51.89 10.7791 51.735 10.5691 51.535C10.3591 51.325 10.1941 51.085 10.0741 50.815C9.96414 50.545 9.90914 50.25 9.90914 49.93ZM12.0241 49.765C12.0241 50.005 12.1141 50.185 12.2941 50.305C12.4841 50.415 12.7391 50.47 13.0591 50.47C13.3891 50.47 13.6991 50.405 13.9891 50.275C14.2791 50.135 14.5541 49.965 14.8141 49.765V48.535C14.2641 48.565 13.8091 48.615 13.4491 48.685C13.0891 48.755 12.8041 48.845 12.5941 48.955C12.3841 49.055 12.2341 49.175 12.1441 49.315C12.0641 49.455 12.0241 49.605 12.0241 49.765ZM18.9183 41.485H23.2833V49.18C23.2833 49.41 23.3133 49.605 23.3733 49.765C23.4433 49.915 23.5333 50.04 23.6433 50.14C23.7633 50.23 23.8933 50.295 24.0333 50.335C24.1833 50.375 24.3333 50.395 24.4833 50.395C24.6533 50.395 24.8333 50.38 25.0233 50.35C25.2133 50.31 25.4233 50.245 25.6533 50.155L26.1483 51.775C25.9483 51.835 25.7633 51.89 25.5933 51.94C25.4233 51.99 25.2533 52.03 25.0833 52.06C24.9133 52.1 24.7333 52.13 24.5433 52.15C24.3533 52.17 24.1433 52.18 23.9133 52.18C22.9733 52.18 22.2633 51.905 21.7833 51.355C21.3133 50.795 21.0783 50.04 21.0783 49.09V43.225H18.9183V41.485ZM28.7674 49.66C29.1974 49.93 29.6274 50.145 30.0574 50.305C30.4974 50.465 30.9674 50.545 31.4674 50.545C31.9774 50.545 32.3424 50.49 32.5624 50.38C32.7824 50.27 32.8924 50.115 32.8924 49.915C32.8924 49.685 32.7074 49.5 32.3374 49.36C31.9774 49.21 31.4974 49.05 30.8974 48.88C30.5674 48.79 30.2424 48.685 29.9224 48.565C29.6124 48.435 29.3324 48.285 29.0824 48.115C28.8324 47.935 28.6274 47.73 28.4674 47.5C28.3174 47.27 28.2424 47.005 28.2424 46.705C28.2424 46.365 28.3224 46.05 28.4824 45.76C28.6424 45.47 28.8674 45.225 29.1574 45.025C29.4574 44.825 29.8174 44.67 30.2374 44.56C30.6674 44.44 31.1474 44.38 31.6774 44.38C32.3374 44.38 32.9374 44.49 33.4774 44.71C34.0274 44.92 34.4974 45.15 34.8874 45.4L33.8974 46.72C33.5574 46.52 33.2074 46.355 32.8474 46.225C32.4874 46.085 32.1124 46.015 31.7224 46.015C31.2524 46.015 30.9174 46.065 30.7174 46.165C30.5274 46.265 30.4324 46.41 30.4324 46.6C30.4324 46.71 30.4824 46.81 30.5824 46.9C30.6824 46.99 30.8174 47.07 30.9874 47.14C31.1574 47.21 31.3574 47.28 31.5874 47.35C31.8274 47.41 32.0774 47.475 32.3374 47.545C32.7074 47.645 33.0574 47.76 33.3874 47.89C33.7174 48.01 34.0074 48.155 34.2574 48.325C34.5074 48.495 34.7074 48.7 34.8574 48.94C35.0074 49.18 35.0824 49.46 35.0824 49.78C35.0824 50.12 35.0024 50.435 34.8424 50.725C34.6824 51.015 34.4474 51.27 34.1374 51.49C33.8374 51.7 33.4574 51.87 32.9974 52C32.5474 52.12 32.0224 52.18 31.4224 52.18C30.7524 52.18 30.0974 52.07 29.4574 51.85C28.8174 51.63 28.2574 51.36 27.7774 51.04L28.7674 49.66ZM36.8016 48.28C36.8016 47.67 36.9066 47.125 37.1166 46.645C37.3366 46.165 37.6266 45.76 37.9866 45.43C38.3466 45.09 38.7566 44.83 39.2166 44.65C39.6866 44.47 40.1716 44.38 40.6716 44.38C41.2416 44.38 41.7466 44.47 42.1866 44.65C42.6266 44.83 42.9916 45.08 43.2816 45.4C43.5716 45.72 43.7916 46.1 43.9416 46.54C44.0916 46.97 44.1666 47.44 44.1666 47.95C44.1666 48.15 44.1566 48.34 44.1366 48.52C44.1166 48.7 44.0966 48.835 44.0766 48.925H39.0666C39.1466 49.485 39.3866 49.89 39.7866 50.14C40.1966 50.38 40.6766 50.5 41.2266 50.5C41.5666 50.5 41.8866 50.46 42.1866 50.38C42.4966 50.29 42.8166 50.16 43.1466 49.99L43.8666 51.31C43.4466 51.58 42.9766 51.795 42.4566 51.955C41.9366 52.105 41.4266 52.18 40.9266 52.18C40.3466 52.18 39.8066 52.095 39.3066 51.925C38.8066 51.745 38.3716 51.49 38.0016 51.16C37.6316 50.82 37.3366 50.41 37.1166 49.93C36.9066 49.45 36.8016 48.9 36.8016 48.28ZM42.1716 47.47C42.1716 47.05 42.0566 46.71 41.8266 46.45C41.5966 46.19 41.2266 46.06 40.7166 46.06C40.3166 46.06 39.9616 46.175 39.6516 46.405C39.3416 46.635 39.1366 46.99 39.0366 47.47H42.1716ZM1.62 61.22H8.07V63.08H3.825V65.345H7.44V67.205H3.825V71H1.62V61.22ZM9.90914 68.93C9.90914 68.51 9.99914 68.145 10.1791 67.835C10.3591 67.515 10.6441 67.245 11.0341 67.025C11.4341 66.805 11.9441 66.63 12.5641 66.5C13.1841 66.36 13.9341 66.265 14.8141 66.215C14.7741 65.875 14.6241 65.61 14.3641 65.42C14.1141 65.23 13.7341 65.135 13.2241 65.135C12.8641 65.135 12.4991 65.2 12.1291 65.33C11.7691 65.45 11.3791 65.615 10.9591 65.825L10.1791 64.385C10.6891 64.095 11.2341 63.855 11.8141 63.665C12.4041 63.475 13.0191 63.38 13.6591 63.38C14.6991 63.38 15.5191 63.655 16.1191 64.205C16.7191 64.755 17.0191 65.6 17.0191 66.74V71H15.2191L15.0541 70.16H14.9941C14.6141 70.45 14.1991 70.695 13.7491 70.895C13.2991 71.085 12.8341 71.18 12.3541 71.18C11.9741 71.18 11.6341 71.12 11.3341 71C11.0341 70.89 10.7791 70.735 10.5691 70.535C10.3591 70.325 10.1941 70.085 10.0741 69.815C9.96414 69.545 9.90914 69.25 9.90914 68.93ZM12.0241 68.765C12.0241 69.005 12.1141 69.185 12.2941 69.305C12.4841 69.415 12.7391 69.47 13.0591 69.47C13.3891 69.47 13.6991 69.405 13.9891 69.275C14.2791 69.135 14.5541 68.965 14.8141 68.765V67.535C14.2641 67.565 13.8091 67.615 13.4491 67.685C13.0891 67.755 12.8041 67.845 12.5941 67.955C12.3841 68.055 12.2341 68.175 12.1441 68.315C12.0641 68.455 12.0241 68.605 12.0241 68.765ZM18.9183 60.485H23.2833V68.18C23.2833 68.41 23.3133 68.605 23.3733 68.765C23.4433 68.915 23.5333 69.04 23.6433 69.14C23.7633 69.23 23.8933 69.295 24.0333 69.335C24.1833 69.375 24.3333 69.395 24.4833 69.395C24.6533 69.395 24.8333 69.38 25.0233 69.35C25.2133 69.31 25.4233 69.245 25.6533 69.155L26.1483 70.775C25.9483 70.835 25.7633 70.89 25.5933 70.94C25.4233 70.99 25.2533 71.03 25.0833 71.06C24.9133 71.1 24.7333 71.13 24.5433 71.15C24.3533 71.17 24.1433 71.18 23.9133 71.18C22.9733 71.18 22.2633 70.905 21.7833 70.355C21.3133 69.795 21.0783 69.04 21.0783 68.09V62.225H18.9183V60.485ZM28.7674 68.66C29.1974 68.93 29.6274 69.145 30.0574 69.305C30.4974 69.465 30.9674 69.545 31.4674 69.545C31.9774 69.545 32.3424 69.49 32.5624 69.38C32.7824 69.27 32.8924 69.115 32.8924 68.915C32.8924 68.685 32.7074 68.5 32.3374 68.36C31.9774 68.21 31.4974 68.05 30.8974 67.88C30.5674 67.79 30.2424 67.685 29.9224 67.565C29.6124 67.435 29.3324 67.285 29.0824 67.115C28.8324 66.935 28.6274 66.73 28.4674 66.5C28.3174 66.27 28.2424 66.005 28.2424 65.705C28.2424 65.365 28.3224 65.05 28.4824 64.76C28.6424 64.47 28.8674 64.225 29.1574 64.025C29.4574 63.825 29.8174 63.67 30.2374 63.56C30.6674 63.44 31.1474 63.38 31.6774 63.38C32.3374 63.38 32.9374 63.49 33.4774 63.71C34.0274 63.92 34.4974 64.15 34.8874 64.4L33.8974 65.72C33.5574 65.52 33.2074 65.355 32.8474 65.225C32.4874 65.085 32.1124 65.015 31.7224 65.015C31.2524 65.015 30.9174 65.065 30.7174 65.165C30.5274 65.265 30.4324 65.41 30.4324 65.6C30.4324 65.71 30.4824 65.81 30.5824 65.9C30.6824 65.99 30.8174 66.07 30.9874 66.14C31.1574 66.21 31.3574 66.28 31.5874 66.35C31.8274 66.41 32.0774 66.475 32.3374 66.545C32.7074 66.645 33.0574 66.76 33.3874 66.89C33.7174 67.01 34.0074 67.155 34.2574 67.325C34.5074 67.495 34.7074 67.7 34.8574 67.94C35.0074 68.18 35.0824 68.46 35.0824 68.78C35.0824 69.12 35.0024 69.435 34.8424 69.725C34.6824 70.015 34.4474 70.27 34.1374 70.49C33.8374 70.7 33.4574 70.87 32.9974 71C32.5474 71.12 32.0224 71.18 31.4224 71.18C30.7524 71.18 30.0974 71.07 29.4574 70.85C28.8174 70.63 28.2574 70.36 27.7774 70.04L28.7674 68.66ZM36.8016 67.28C36.8016 66.67 36.9066 66.125 37.1166 65.645C37.3366 65.165 37.6266 64.76 37.9866 64.43C38.3466 64.09 38.7566 63.83 39.2166 63.65C39.6866 63.47 40.1716 63.38 40.6716 63.38C41.2416 63.38 41.7466 63.47 42.1866 63.65C42.6266 63.83 42.9916 64.08 43.2816 64.4C43.5716 64.72 43.7916 65.1 43.9416 65.54C44.0916 65.97 44.1666 66.44 44.1666 66.95C44.1666 67.15 44.1566 67.34 44.1366 67.52C44.1166 67.7 44.0966 67.835 44.0766 67.925H39.0666C39.1466 68.485 39.3866 68.89 39.7866 69.14C40.1966 69.38 40.6766 69.5 41.2266 69.5C41.5666 69.5 41.8866 69.46 42.1866 69.38C42.4966 69.29 42.8166 69.16 43.1466 68.99L43.8666 70.31C43.4466 70.58 42.9766 70.795 42.4566 70.955C41.9366 71.105 41.4266 71.18 40.9266 71.18C40.3466 71.18 39.8066 71.095 39.3066 70.925C38.8066 70.745 38.3716 70.49 38.0016 70.16C37.6316 69.82 37.3366 69.41 37.1166 68.93C36.9066 68.45 36.8016 67.9 36.8016 67.28ZM42.1716 66.47C42.1716 66.05 42.0566 65.71 41.8266 65.45C41.5966 65.19 41.2266 65.06 40.7166 65.06C40.3166 65.06 39.9616 65.175 39.6516 65.405C39.3416 65.635 39.1366 65.99 39.0366 66.47H42.1716Z" transform="translate(7 152)" fill="white"/>
<path d="M4.5 15.18C3.92 15.18 3.385 15.065 2.895 14.835C2.415 14.595 2 14.255 1.65 13.815C1.31 13.375 1.045 12.84 0.855 12.21C0.665 11.58 0.57 10.865 0.57 10.065C0.57 9.265 0.665 8.555 0.855 7.935C1.045 7.305 1.31 6.78 1.65 6.36C2 5.93 2.415 5.605 2.895 5.385C3.385 5.155 3.92 5.04 4.5 5.04C5.08 5.04 5.61 5.155 6.09 5.385C6.58 5.605 6.995 5.93 7.335 6.36C7.685 6.79 7.955 7.32 8.145 7.95C8.335 8.57 8.43 9.275 8.43 10.065C8.43 10.865 8.335 11.58 8.145 12.21C7.955 12.84 7.685 13.375 7.335 13.815C6.995 14.255 6.58 14.595 6.09 14.835C5.61 15.065 5.08 15.18 4.5 15.18ZM4.5 13.275C5.01 13.275 5.415 12.99 5.715 12.42C6.015 11.84 6.165 11.055 6.165 10.065C6.165 9.085 6.015 8.32 5.715 7.77C5.415 7.22 5.01 6.945 4.5 6.945C3.99 6.945 3.585 7.22 3.285 7.77C2.985 8.32 2.835 9.085 2.835 10.065C2.835 11.055 2.985 11.84 3.285 12.42C3.585 12.99 3.99 13.275 4.5 13.275ZM16.8691 15H15.0691L14.9041 13.935H14.8441C14.5141 14.315 14.1491 14.62 13.7491 14.85C13.3491 15.07 12.8791 15.18 12.3391 15.18C11.4891 15.18 10.8741 14.91 10.4941 14.37C10.1141 13.83 9.92414 13.09 9.92414 12.15V7.56H12.1291V11.865C12.1291 12.365 12.2041 12.73 12.3541 12.96C12.5041 13.19 12.7891 13.305 13.2091 13.305C13.4891 13.305 13.7341 13.245 13.9441 13.125C14.1641 13.005 14.4041 12.78 14.6641 12.45V7.56H16.8691V15ZM20.5983 9.285H18.7233V7.65L20.7033 7.56L20.9883 5.58H22.8033V7.56H25.9533V9.285H22.8033V11.895C22.8033 12.465 22.9283 12.87 23.1783 13.11C23.4283 13.34 23.8233 13.455 24.3633 13.455C24.6533 13.455 24.9183 13.43 25.1583 13.38C25.3983 13.33 25.6283 13.265 25.8483 13.185L26.2383 14.775C25.9083 14.875 25.5383 14.965 25.1283 15.045C24.7283 15.135 24.2883 15.18 23.8083 15.18C23.2183 15.18 22.7183 15.1 22.3083 14.94C21.8983 14.78 21.5633 14.56 21.3033 14.28C21.0533 13.99 20.8733 13.645 20.7633 13.245C20.6533 12.845 20.5983 12.4 20.5983 11.91V9.285ZM30.2674 15.585V17.76H28.0624V7.56H29.8624L30.0274 8.31H30.0724C30.3724 8.04 30.7174 7.82 31.1074 7.65C31.4974 7.47 31.8924 7.38 32.2924 7.38C32.7524 7.38 33.1674 7.47 33.5374 7.65C33.9074 7.83 34.2224 8.085 34.4824 8.415C34.7424 8.745 34.9374 9.145 35.0674 9.615C35.2074 10.075 35.2774 10.59 35.2774 11.16C35.2774 11.8 35.1874 12.37 35.0074 12.87C34.8274 13.36 34.5874 13.78 34.2874 14.13C33.9874 14.47 33.6424 14.73 33.2524 14.91C32.8724 15.09 32.4724 15.18 32.0524 15.18C31.3724 15.18 30.7524 14.91 30.1924 14.37L30.2674 15.585ZM30.2674 12.885C30.4774 13.065 30.6924 13.195 30.9124 13.275C31.1424 13.345 31.3524 13.38 31.5424 13.38C31.9624 13.38 32.3124 13.21 32.5924 12.87C32.8724 12.52 33.0124 11.96 33.0124 11.19C33.0124 9.85 32.5574 9.18 31.6474 9.18C31.1774 9.18 30.7174 9.41 30.2674 9.87V12.885ZM43.8516 15H42.0516L41.8866 13.935H41.8266C41.4966 14.315 41.1316 14.62 40.7316 14.85C40.3316 15.07 39.8616 15.18 39.3216 15.18C38.4716 15.18 37.8566 14.91 37.4766 14.37C37.0966 13.83 36.9066 13.09 36.9066 12.15V7.56H39.1116V11.865C39.1116 12.365 39.1866 12.73 39.3366 12.96C39.4866 13.19 39.7716 13.305 40.1916 13.305C40.4716 13.305 40.7166 13.245 40.9266 13.125C41.1466 13.005 41.3866 12.78 41.6466 12.45V7.56H43.8516V15ZM47.5807 9.285H45.7057V7.65L47.6857 7.56L47.9707 5.58H49.7857V7.56H52.9357V9.285H49.7857V11.895C49.7857 12.465 49.9107 12.87 50.1607 13.11C50.4107 13.34 50.8057 13.455 51.3457 13.455C51.6357 13.455 51.9007 13.43 52.1407 13.38C52.3807 13.33 52.6107 13.265 52.8307 13.185L53.2207 14.775C52.8907 14.875 52.5207 14.965 52.1107 15.045C51.7107 15.135 51.2707 15.18 50.7907 15.18C50.2007 15.18 49.7007 15.1 49.2907 14.94C48.8807 14.78 48.5457 14.56 48.2857 14.28C48.0357 13.99 47.8557 13.645 47.7457 13.245C47.6357 12.845 47.5807 12.4 47.5807 11.91V9.285Z" transform="translate(7 128)" fill="white"/>
<rect width="199" height="31" transform="translate(79)" fill="#333333"/>
<rect width="199" height="31" transform="translate(79)" fill="#333333"/>
<rect width="79" height="31" transform="translate(0.0107117)" fill="#090808"/>
<path d="M5.10498 11.8101C5.10498 11.5513 4.97559 11.3486 4.7168 11.2021C4.46289 11.0508 4.05273 10.9165 3.48633 10.7993C1.60156 10.4038 0.65918 9.60303 0.65918 8.39697C0.65918 7.69385 0.949707 7.10791 1.53076 6.63916C2.1167 6.16553 2.88086 5.92871 3.82324 5.92871C4.8291 5.92871 5.63232 6.16553 6.23291 6.63916C6.83838 7.11279 7.14111 7.72803 7.14111 8.48486H5.02441C5.02441 8.18213 4.92676 7.93311 4.73145 7.73779C4.53613 7.5376 4.23096 7.4375 3.81592 7.4375C3.45947 7.4375 3.18359 7.51807 2.98828 7.6792C2.79297 7.84033 2.69531 8.04541 2.69531 8.29443C2.69531 8.52881 2.80518 8.71924 3.0249 8.86572C3.24951 9.00732 3.62549 9.13184 4.15283 9.23926C4.68018 9.3418 5.12451 9.45898 5.48584 9.59082C6.604 10.001 7.16309 10.7114 7.16309 11.7222C7.16309 12.4448 6.85303 13.0308 6.23291 13.48C5.61279 13.9243 4.81201 14.1465 3.83057 14.1465C3.1665 14.1465 2.57568 14.0293 2.05811 13.7949C1.54541 13.5557 1.14258 13.231 0.849609 12.8208C0.556641 12.4058 0.410156 11.959 0.410156 11.4805H2.41699C2.43652 11.8564 2.57568 12.1445 2.83447 12.3447C3.09326 12.5449 3.43994 12.645 3.87451 12.645C4.27979 12.645 4.58496 12.5693 4.79004 12.418C5 12.2617 5.10498 12.0591 5.10498 11.8101ZM11.8286 12.4399C12.2192 12.4399 12.5366 12.3325 12.7808 12.1177C13.0249 11.9028 13.1519 11.6172 13.1616 11.2607H15.1465C15.1416 11.7979 14.9951 12.291 14.707 12.7402C14.4189 13.1846 14.0234 13.5312 13.5205 13.7803C13.0225 14.0244 12.4707 14.1465 11.8652 14.1465C10.7324 14.1465 9.83887 13.7876 9.18457 13.0698C8.53027 12.3472 8.20312 11.3511 8.20312 10.0815V9.94238C8.20312 8.72168 8.52783 7.74756 9.17725 7.02002C9.82666 6.29248 10.7178 5.92871 11.8506 5.92871C12.8418 5.92871 13.6353 6.21191 14.231 6.77832C14.8315 7.33984 15.1367 8.08936 15.1465 9.02686H13.1616C13.1519 8.6167 13.0249 8.28467 12.7808 8.03076C12.5366 7.77197 12.2144 7.64258 11.814 7.64258C11.3208 7.64258 10.9473 7.82324 10.6934 8.18457C10.4443 8.54102 10.3198 9.12207 10.3198 9.92773V10.1475C10.3198 10.9629 10.4443 11.5488 10.6934 11.9053C10.9424 12.2617 11.3208 12.4399 11.8286 12.4399ZM20.8081 8.06006C20.52 8.021 20.2661 8.00146 20.0464 8.00146C19.2456 8.00146 18.7207 8.27246 18.4717 8.81445V14H16.355V6.0752H18.3545L18.4131 7.02002C18.8379 6.29248 19.4263 5.92871 20.1782 5.92871C20.4126 5.92871 20.6323 5.96045 20.8374 6.02393L20.8081 8.06006ZM24.0674 14H21.9434V6.0752H24.0674V14ZM21.8188 4.02441C21.8188 3.70703 21.9238 3.4458 22.1338 3.24072C22.3486 3.03564 22.6392 2.93311 23.0054 2.93311C23.3667 2.93311 23.6548 3.03564 23.8696 3.24072C24.0845 3.4458 24.1919 3.70703 24.1919 4.02441C24.1919 4.34668 24.082 4.61035 23.8623 4.81543C23.6475 5.02051 23.3618 5.12305 23.0054 5.12305C22.6489 5.12305 22.3608 5.02051 22.1411 4.81543C21.9263 4.61035 21.8188 4.34668 21.8188 4.02441ZM32.9517 10.1108C32.9517 11.3315 32.6733 12.3105 32.1167 13.0479C31.5649 13.7803 30.8179 14.1465 29.8755 14.1465C29.0747 14.1465 28.4277 13.8682 27.9346 13.3115V17.0469H25.8179V6.0752H27.7808L27.854 6.85156C28.3667 6.23633 29.0356 5.92871 29.8608 5.92871C30.8374 5.92871 31.5967 6.29004 32.1387 7.0127C32.6807 7.73535 32.9517 8.73145 32.9517 10.001V10.1108ZM30.835 9.95703C30.835 9.21973 30.7031 8.65088 30.4395 8.25049C30.1807 7.8501 29.8022 7.6499 29.3042 7.6499C28.6401 7.6499 28.1836 7.90381 27.9346 8.41162V11.6562C28.1934 12.1787 28.6548 12.4399 29.3188 12.4399C30.3296 12.4399 30.835 11.6123 30.835 9.95703ZM36.8042 4.12695V6.0752H38.1592V7.62793H36.8042V11.583C36.8042 11.876 36.8604 12.0859 36.9727 12.2129C37.085 12.3398 37.2998 12.4033 37.6172 12.4033C37.8516 12.4033 38.0591 12.3862 38.2397 12.3521V13.9561C37.8247 14.083 37.3975 14.1465 36.958 14.1465C35.4736 14.1465 34.7168 13.397 34.6875 11.8979V7.62793H33.5303V6.0752H34.6875V4.12695H36.8042ZM39.4482 12.96C39.4482 12.623 39.5605 12.3496 39.7852 12.1396C40.0146 11.9297 40.3003 11.8247 40.6421 11.8247C40.9888 11.8247 41.2744 11.9297 41.499 12.1396C41.7285 12.3496 41.8433 12.623 41.8433 12.96C41.8433 13.292 41.731 13.563 41.5063 13.7729C41.2817 13.978 40.9937 14.0806 40.6421 14.0806C40.2954 14.0806 40.0098 13.978 39.7852 13.7729C39.5605 13.563 39.4482 13.292 39.4482 12.96ZM50.8374 10.1108C50.8374 11.3315 50.5591 12.3105 50.0024 13.0479C49.4507 13.7803 48.7036 14.1465 47.7612 14.1465C46.9604 14.1465 46.3135 13.8682 45.8203 13.3115V17.0469H43.7036V6.0752H45.6665L45.7397 6.85156C46.2524 6.23633 46.9214 5.92871 47.7466 5.92871C48.7231 5.92871 49.4824 6.29004 50.0244 7.0127C50.5664 7.73535 50.8374 8.73145 50.8374 10.001V10.1108ZM48.7207 9.95703C48.7207 9.21973 48.5889 8.65088 48.3252 8.25049C48.0664 7.8501 47.688 7.6499 47.1899 7.6499C46.5259 7.6499 46.0693 7.90381 45.8203 8.41162V11.6562C46.0791 12.1787 46.5405 12.4399 47.2046 12.4399C48.2153 12.4399 48.7207 11.6123 48.7207 9.95703ZM55.0269 11.0044L56.4917 6.0752H58.7622L55.5762 15.2305L55.4004 15.6479C54.9268 16.6831 54.1455 17.2007 53.0566 17.2007C52.749 17.2007 52.4365 17.1543 52.1191 17.0615V15.4575L52.4414 15.4648C52.8418 15.4648 53.1396 15.4038 53.335 15.2817C53.5352 15.1597 53.6914 14.957 53.8037 14.6738L54.0527 14.022L51.2769 6.0752H53.5547L55.0269 11.0044Z" transform="translate(7.01071 6)" fill="white"/>
<line y1="-0.5" x2="278" y2="-0.5" transform="translate(0 123)" stroke="white"/>
<path d="M3.285 15.585V17.76H1.08V7.56H2.88L3.045 8.31H3.09C3.39 8.04 3.735 7.82 4.125 7.65C4.515 7.47 4.91 7.38 5.31 7.38C5.77 7.38 6.185 7.47 6.555 7.65C6.925 7.83 7.24 8.085 7.5 8.415C7.76 8.745 7.955 9.145 8.085 9.615C8.225 10.075 8.295 10.59 8.295 11.16C8.295 11.8 8.205 12.37 8.025 12.87C7.845 13.36 7.605 13.78 7.305 14.13C7.005 14.47 6.66 14.73 6.27 14.91C5.89 15.09 5.49 15.18 5.07 15.18C4.39 15.18 3.77 14.91 3.21 14.37L3.285 15.585ZM3.285 12.885C3.495 13.065 3.71 13.195 3.93 13.275C4.16 13.345 4.37 13.38 4.56 13.38C4.98 13.38 5.33 13.21 5.61 12.87C5.89 12.52 6.03 11.96 6.03 11.19C6.03 9.85 5.575 9.18 4.665 9.18C4.195 9.18 3.735 9.41 3.285 9.87V12.885ZM10.7341 7.56H12.5341L12.7141 9.18H12.7591C13.1291 8.57 13.5741 8.12 14.0941 7.83C14.6141 7.53 15.1741 7.38 15.7741 7.38C16.1041 7.38 16.3691 7.405 16.5691 7.455C16.7791 7.505 16.9941 7.58 17.2141 7.68L16.7641 9.525C16.5341 9.455 16.3241 9.405 16.1341 9.375C15.9541 9.335 15.7241 9.315 15.4441 9.315C14.9841 9.315 14.5291 9.45 14.0791 9.72C13.6391 9.99 13.2591 10.46 12.9391 11.13V15H10.7341V7.56ZM19.1733 7.56H24.3633V15H22.1583V9.285H19.1733V7.56ZM23.1633 6.465C22.7333 6.465 22.3783 6.345 22.0983 6.105C21.8283 5.865 21.6933 5.54 21.6933 5.13C21.6933 4.72 21.8283 4.39 22.0983 4.14C22.3783 3.88 22.7333 3.75 23.1633 3.75C23.5933 3.75 23.9433 3.88 24.2133 4.14C24.4933 4.39 24.6333 4.72 24.6333 5.13C24.6333 5.54 24.4933 5.865 24.2133 6.105C23.9433 6.345 23.5933 6.465 23.1633 6.465ZM28.0624 7.56H29.8624L30.0274 8.55H30.0874C30.4074 8.23 30.7724 7.955 31.1824 7.725C31.6024 7.495 32.0924 7.38 32.6524 7.38C33.4924 7.38 34.1074 7.65 34.4974 8.19C34.8874 8.73 35.0824 9.47 35.0824 10.41V15H32.8774V10.695C32.8774 10.195 32.7974 9.83 32.6374 9.6C32.4774 9.37 32.1924 9.255 31.7824 9.255C31.4824 9.255 31.2174 9.32 30.9874 9.45C30.7674 9.58 30.5274 9.775 30.2674 10.035V15H28.0624V7.56ZM38.5866 9.285H36.7116V7.65L38.6916 7.56L38.9766 5.58H40.7916V7.56H43.9416V9.285H40.7916V11.895C40.7916 12.465 40.9166 12.87 41.1666 13.11C41.4166 13.34 41.8116 13.455 42.3516 13.455C42.6416 13.455 42.9066 13.43 43.1466 13.38C43.3866 13.33 43.6166 13.265 43.8366 13.185L44.2266 14.775C43.8966 14.875 43.5266 14.965 43.1166 15.045C42.7166 15.135 42.2766 15.18 41.7966 15.18C41.2066 15.18 40.7066 15.1 40.2966 14.94C39.8866 14.78 39.5516 14.56 39.2916 14.28C39.0416 13.99 38.8616 13.645 38.7516 13.245C38.6416 12.845 38.5866 12.4 38.5866 11.91V9.285ZM3.285 34.585V36.76H1.08V26.56H2.88L3.045 27.31H3.09C3.39 27.04 3.735 26.82 4.125 26.65C4.515 26.47 4.91 26.38 5.31 26.38C5.77 26.38 6.185 26.47 6.555 26.65C6.925 26.83 7.24 27.085 7.5 27.415C7.76 27.745 7.955 28.145 8.085 28.615C8.225 29.075 8.295 29.59 8.295 30.16C8.295 30.8 8.205 31.37 8.025 31.87C7.845 32.36 7.605 32.78 7.305 33.13C7.005 33.47 6.66 33.73 6.27 33.91C5.89 34.09 5.49 34.18 5.07 34.18C4.39 34.18 3.77 33.91 3.21 33.37L3.285 34.585ZM3.285 31.885C3.495 32.065 3.71 32.195 3.93 32.275C4.16 32.345 4.37 32.38 4.56 32.38C4.98 32.38 5.33 32.21 5.61 31.87C5.89 31.52 6.03 30.96 6.03 30.19C6.03 28.85 5.575 28.18 4.665 28.18C4.195 28.18 3.735 28.41 3.285 28.87V31.885ZM10.7341 26.56H12.5341L12.7141 28.18H12.7591C13.1291 27.57 13.5741 27.12 14.0941 26.83C14.6141 26.53 15.1741 26.38 15.7741 26.38C16.1041 26.38 16.3691 26.405 16.5691 26.455C16.7791 26.505 16.9941 26.58 17.2141 26.68L16.7641 28.525C16.5341 28.455 16.3241 28.405 16.1341 28.375C15.9541 28.335 15.7241 28.315 15.4441 28.315C14.9841 28.315 14.5291 28.45 14.0791 28.72C13.6391 28.99 13.2591 29.46 12.9391 30.13V34H10.7341V26.56ZM19.1733 26.56H24.3633V34H22.1583V28.285H19.1733V26.56ZM23.1633 25.465C22.7333 25.465 22.3783 25.345 22.0983 25.105C21.8283 24.865 21.6933 24.54 21.6933 24.13C21.6933 23.72 21.8283 23.39 22.0983 23.14C22.3783 22.88 22.7333 22.75 23.1633 22.75C23.5933 22.75 23.9433 22.88 24.2133 23.14C24.4933 23.39 24.6333 23.72 24.6333 24.13C24.6333 24.54 24.4933 24.865 24.2133 25.105C23.9433 25.345 23.5933 25.465 23.1633 25.465ZM28.0624 26.56H29.8624L30.0274 27.55H30.0874C30.4074 27.23 30.7724 26.955 31.1824 26.725C31.6024 26.495 32.0924 26.38 32.6524 26.38C33.4924 26.38 34.1074 26.65 34.4974 27.19C34.8874 27.73 35.0824 28.47 35.0824 29.41V34H32.8774V29.695C32.8774 29.195 32.7974 28.83 32.6374 28.6C32.4774 28.37 32.1924 28.255 31.7824 28.255C31.4824 28.255 31.2174 28.32 30.9874 28.45C30.7674 28.58 30.5274 28.775 30.2674 29.035V34H28.0624V26.56ZM38.5866 28.285H36.7116V26.65L38.6916 26.56L38.9766 24.58H40.7916V26.56H43.9416V28.285H40.7916V30.895C40.7916 31.465 40.9166 31.87 41.1666 32.11C41.4166 32.34 41.8116 32.455 42.3516 32.455C42.6416 32.455 42.9066 32.43 43.1466 32.38C43.3866 32.33 43.6166 32.265 43.8366 32.185L44.2266 33.775C43.8966 33.875 43.5266 33.965 43.1166 34.045C42.7166 34.135 42.2766 34.18 41.7966 34.18C41.2066 34.18 40.7066 34.1 40.2966 33.94C39.8866 33.78 39.5516 33.56 39.2916 33.28C39.0416 32.99 38.8616 32.645 38.7516 32.245C38.6416 31.845 38.5866 31.4 38.5866 30.91V28.285ZM3.285 52.585V54.76H1.08V44.56H2.88L3.045 45.31H3.09C3.39 45.04 3.735 44.82 4.125 44.65C4.515 44.47 4.91 44.38 5.31 44.38C5.77 44.38 6.185 44.47 6.555 44.65C6.925 44.83 7.24 45.085 7.5 45.415C7.76 45.745 7.955 46.145 8.085 46.615C8.225 47.075 8.295 47.59 8.295 48.16C8.295 48.8 8.205 49.37 8.025 49.87C7.845 50.36 7.605 50.78 7.305 51.13C7.005 51.47 6.66 51.73 6.27 51.91C5.89 52.09 5.49 52.18 5.07 52.18C4.39 52.18 3.77 51.91 3.21 51.37L3.285 52.585ZM3.285 49.885C3.495 50.065 3.71 50.195 3.93 50.275C4.16 50.345 4.37 50.38 4.56 50.38C4.98 50.38 5.33 50.21 5.61 49.87C5.89 49.52 6.03 48.96 6.03 48.19C6.03 46.85 5.575 46.18 4.665 46.18C4.195 46.18 3.735 46.41 3.285 46.87V49.885ZM10.7341 44.56H12.5341L12.7141 46.18H12.7591C13.1291 45.57 13.5741 45.12 14.0941 44.83C14.6141 44.53 15.1741 44.38 15.7741 44.38C16.1041 44.38 16.3691 44.405 16.5691 44.455C16.7791 44.505 16.9941 44.58 17.2141 44.68L16.7641 46.525C16.5341 46.455 16.3241 46.405 16.1341 46.375C15.9541 46.335 15.7241 46.315 15.4441 46.315C14.9841 46.315 14.5291 46.45 14.0791 46.72C13.6391 46.99 13.2591 47.46 12.9391 48.13V52H10.7341V44.56ZM19.1733 44.56H24.3633V52H22.1583V46.285H19.1733V44.56ZM23.1633 43.465C22.7333 43.465 22.3783 43.345 22.0983 43.105C21.8283 42.865 21.6933 42.54 21.6933 42.13C21.6933 41.72 21.8283 41.39 22.0983 41.14C22.3783 40.88 22.7333 40.75 23.1633 40.75C23.5933 40.75 23.9433 40.88 24.2133 41.14C24.4933 41.39 24.6333 41.72 24.6333 42.13C24.6333 42.54 24.4933 42.865 24.2133 43.105C23.9433 43.345 23.5933 43.465 23.1633 43.465ZM28.0624 44.56H29.8624L30.0274 45.55H30.0874C30.4074 45.23 30.7724 44.955 31.1824 44.725C31.6024 44.495 32.0924 44.38 32.6524 44.38C33.4924 44.38 34.1074 44.65 34.4974 45.19C34.8874 45.73 35.0824 46.47 35.0824 47.41V52H32.8774V47.695C32.8774 47.195 32.7974 46.83 32.6374 46.6C32.4774 46.37 32.1924 46.255 31.7824 46.255C31.4824 46.255 31.2174 46.32 30.9874 46.45C30.7674 46.58 30.5274 46.775 30.2674 47.035V52H28.0624V44.56ZM38.5866 46.285H36.7116V44.65L38.6916 44.56L38.9766 42.58H40.7916V44.56H43.9416V46.285H40.7916V48.895C40.7916 49.465 40.9166 49.87 41.1666 50.11C41.4166 50.34 41.8116 50.455 42.3516 50.455C42.6416 50.455 42.9066 50.43 43.1466 50.38C43.3866 50.33 43.6166 50.265 43.8366 50.185L44.2266 51.775C43.8966 51.875 43.5266 51.965 43.1166 52.045C42.7166 52.135 42.2766 52.18 41.7966 52.18C41.2066 52.18 40.7066 52.1 40.2966 51.94C39.8866 51.78 39.5516 51.56 39.2916 51.28C39.0416 50.99 38.8616 50.645 38.7516 50.245C38.6416 49.845 38.5866 49.4 38.5866 48.91V46.285ZM3.285 71.585V73.76H1.08V63.56H2.88L3.045 64.31H3.09C3.39 64.04 3.735 63.82 4.125 63.65C4.515 63.47 4.91 63.38 5.31 63.38C5.77 63.38 6.185 63.47 6.555 63.65C6.925 63.83 7.24 64.085 7.5 64.415C7.76 64.745 7.955 65.145 8.085 65.615C8.225 66.075 8.295 66.59 8.295 67.16C8.295 67.8 8.205 68.37 8.025 68.87C7.845 69.36 7.605 69.78 7.305 70.13C7.005 70.47 6.66 70.73 6.27 70.91C5.89 71.09 5.49 71.18 5.07 71.18C4.39 71.18 3.77 70.91 3.21 70.37L3.285 71.585ZM3.285 68.885C3.495 69.065 3.71 69.195 3.93 69.275C4.16 69.345 4.37 69.38 4.56 69.38C4.98 69.38 5.33 69.21 5.61 68.87C5.89 68.52 6.03 67.96 6.03 67.19C6.03 65.85 5.575 65.18 4.665 65.18C4.195 65.18 3.735 65.41 3.285 65.87V68.885ZM10.7341 63.56H12.5341L12.7141 65.18H12.7591C13.1291 64.57 13.5741 64.12 14.0941 63.83C14.6141 63.53 15.1741 63.38 15.7741 63.38C16.1041 63.38 16.3691 63.405 16.5691 63.455C16.7791 63.505 16.9941 63.58 17.2141 63.68L16.7641 65.525C16.5341 65.455 16.3241 65.405 16.1341 65.375C15.9541 65.335 15.7241 65.315 15.4441 65.315C14.9841 65.315 14.5291 65.45 14.0791 65.72C13.6391 65.99 13.2591 66.46 12.9391 67.13V71H10.7341V63.56ZM19.1733 63.56H24.3633V71H22.1583V65.285H19.1733V63.56ZM23.1633 62.465C22.7333 62.465 22.3783 62.345 22.0983 62.105C21.8283 61.865 21.6933 61.54 21.6933 61.13C21.6933 60.72 21.8283 60.39 22.0983 60.14C22.3783 59.88 22.7333 59.75 23.1633 59.75C23.5933 59.75 23.9433 59.88 24.2133 60.14C24.4933 60.39 24.6333 60.72 24.6333 61.13C24.6333 61.54 24.4933 61.865 24.2133 62.105C23.9433 62.345 23.5933 62.465 23.1633 62.465ZM28.0624 63.56H29.8624L30.0274 64.55H30.0874C30.4074 64.23 30.7724 63.955 31.1824 63.725C31.6024 63.495 32.0924 63.38 32.6524 63.38C33.4924 63.38 34.1074 63.65 34.4974 64.19C34.8874 64.73 35.0824 65.47 35.0824 66.41V71H32.8774V66.695C32.8774 66.195 32.7974 65.83 32.6374 65.6C32.4774 65.37 32.1924 65.255 31.7824 65.255C31.4824 65.255 31.2174 65.32 30.9874 65.45C30.7674 65.58 30.5274 65.775 30.2674 66.035V71H28.0624V63.56ZM38.5866 65.285H36.7116V63.65L38.6916 63.56L38.9766 61.58H40.7916V63.56H43.9416V65.285H40.7916V67.895C40.7916 68.465 40.9166 68.87 41.1666 69.11C41.4166 69.34 41.8116 69.455 42.3516 69.455C42.6416 69.455 42.9066 69.43 43.1466 69.38C43.3866 69.33 43.6166 69.265 43.8366 69.185L44.2266 70.775C43.8966 70.875 43.5266 70.965 43.1166 71.045C42.7166 71.135 42.2766 71.18 41.7966 71.18C41.2066 71.18 40.7066 71.1 40.2966 70.94C39.8866 70.78 39.5516 70.56 39.2916 70.28C39.0416 69.99 38.8616 69.645 38.7516 69.245C38.6416 68.845 38.5866 68.4 38.5866 67.91V65.285Z" transform="translate(7.01071 36)" fill="#56B4E9"/>
<path d="M50.8507 17.685C49.8707 16.815 49.0957 15.81 48.5257 14.67C47.9657 13.53 47.6857 12.25 47.6857 10.83C47.6857 9.41 47.9657 8.13 48.5257 6.99C49.0957 5.85 49.8707 4.845 50.8507 3.975L52.0807 4.95C51.1907 5.82 50.5407 6.725 50.1307 7.665C49.7307 8.595 49.5307 9.65 49.5307 10.83C49.5307 11.42 49.5807 11.98 49.6807 12.51C49.7807 13.03 49.9307 13.53 50.1307 14.01C50.3407 14.49 50.6057 14.95 50.9257 15.39C51.2457 15.84 51.6307 16.28 52.0807 16.71L50.8507 17.685ZM172.779 16.71C173.229 16.28 173.614 15.84 173.934 15.39C174.254 14.95 174.514 14.49 174.714 14.01C174.924 13.53 175.079 13.03 175.179 12.51C175.279 11.98 175.329 11.42 175.329 10.83C175.329 9.65 175.124 8.595 174.714 7.665C174.314 6.725 173.669 5.82 172.779 4.95L174.009 3.975C174.989 4.845 175.759 5.85 176.319 6.99C176.889 8.13 177.174 9.41 177.174 10.83C177.174 12.25 176.889 13.53 176.319 14.67C175.759 15.81 174.989 16.815 174.009 17.685L172.779 16.71ZM50.8507 36.685C49.8707 35.815 49.0957 34.81 48.5257 33.67C47.9657 32.53 47.6857 31.25 47.6857 29.83C47.6857 28.41 47.9657 27.13 48.5257 25.99C49.0957 24.85 49.8707 23.845 50.8507 22.975L52.0807 23.95C51.1907 24.82 50.5407 25.725 50.1307 26.665C49.7307 27.595 49.5307 28.65 49.5307 29.83C49.5307 30.42 49.5807 30.98 49.6807 31.51C49.7807 32.03 49.9307 32.53 50.1307 33.01C50.3407 33.49 50.6057 33.95 50.9257 34.39C51.2457 34.84 51.6307 35.28 52.0807 35.71L50.8507 36.685ZM181.773 35.71C182.223 35.28 182.608 34.84 182.928 34.39C183.248 33.95 183.508 33.49 183.708 33.01C183.918 32.53 184.073 32.03 184.173 31.51C184.273 30.98 184.323 30.42 184.323 29.83C184.323 28.65 184.118 27.595 183.708 26.665C183.308 25.725 182.663 24.82 181.773 23.95L183.003 22.975C183.983 23.845 184.753 24.85 185.313 25.99C185.883 27.13 186.168 28.41 186.168 29.83C186.168 31.25 185.883 32.53 185.313 33.67C184.753 34.81 183.983 35.815 183.003 36.685L181.773 35.71ZM50.8507 54.685C49.8707 53.815 49.0957 52.81 48.5257 51.67C47.9657 50.53 47.6857 49.25 47.6857 47.83C47.6857 46.41 47.9657 45.13 48.5257 43.99C49.0957 42.85 49.8707 41.845 50.8507 40.975L52.0807 41.95C51.1907 42.82 50.5407 43.725 50.1307 44.665C49.7307 45.595 49.5307 46.65 49.5307 47.83C49.5307 48.42 49.5807 48.98 49.6807 49.51C49.7807 50.03 49.9307 50.53 50.1307 51.01C50.3407 51.49 50.6057 51.95 50.9257 52.39C51.2457 52.84 51.6307 53.28 52.0807 53.71L50.8507 54.685ZM181.773 53.71C182.223 53.28 182.608 52.84 182.928 52.39C183.248 51.95 183.508 51.49 183.708 51.01C183.918 50.53 184.073 50.03 184.173 49.51C184.273 48.98 184.323 48.42 184.323 47.83C184.323 46.65 184.118 45.595 183.708 44.665C183.308 43.725 182.663 42.82 181.773 41.95L183.003 40.975C183.983 41.845 184.753 42.85 185.313 43.99C185.883 45.13 186.168 46.41 186.168 47.83C186.168 49.25 185.883 50.53 185.313 51.67C184.753 52.81 183.983 53.815 183.003 54.685L181.773 53.71ZM50.8507 73.685C49.8707 72.815 49.0957 71.81 48.5257 70.67C47.9657 69.53 47.6857 68.25 47.6857 66.83C47.6857 65.41 47.9657 64.13 48.5257 62.99C49.0957 61.85 49.8707 60.845 50.8507 59.975L52.0807 60.95C51.1907 61.82 50.5407 62.725 50.1307 63.665C49.7307 64.595 49.5307 65.65 49.5307 66.83C49.5307 67.42 49.5807 67.98 49.6807 68.51C49.7807 69.03 49.9307 69.53 50.1307 70.01C50.3407 70.49 50.6057 70.95 50.9257 71.39C51.2457 71.84 51.6307 72.28 52.0807 72.71L50.8507 73.685ZM190.767 72.71C191.217 72.28 191.602 71.84 191.922 71.39C192.242 70.95 192.502 70.49 192.702 70.01C192.912 69.53 193.067 69.03 193.167 68.51C193.267 67.98 193.317 67.42 193.317 66.83C193.317 65.65 193.112 64.595 192.702 63.665C192.302 62.725 191.657 61.82 190.767 60.95L191.997 59.975C192.977 60.845 193.747 61.85 194.307 62.99C194.877 64.13 195.162 65.41 195.162 66.83C195.162 68.25 194.877 69.53 194.307 70.67C193.747 71.81 192.977 72.815 191.997 73.685L190.767 72.71Z" transform="translate(7.01071 36)" fill="white"/>
<path d="M57.3548 7.08H54.4298V5.22H62.4998V7.08H59.5748V15H57.3548V7.08ZM64.699 7.56H66.499L66.679 9.18H66.724C67.094 8.57 67.539 8.12 68.059 7.83C68.579 7.53 69.139 7.38 69.739 7.38C70.069 7.38 70.334 7.405 70.534 7.455C70.744 7.505 70.959 7.58 71.179 7.68L70.729 9.525C70.499 9.455 70.289 9.405 70.099 9.375C69.919 9.335 69.689 9.315 69.409 9.315C68.949 9.315 68.494 9.45 68.044 9.72C67.604 9.99 67.224 10.46 66.904 11.13V15H64.699V7.56ZM79.8281 15H78.0281L77.8631 13.935H77.8031C77.4731 14.315 77.1081 14.62 76.7081 14.85C76.3081 15.07 75.8381 15.18 75.2981 15.18C74.4481 15.18 73.8331 14.91 73.4531 14.37C73.0731 13.83 72.8831 13.09 72.8831 12.15V7.56H75.0881V11.865C75.0881 12.365 75.1631 12.73 75.3131 12.96C75.4631 13.19 75.7481 13.305 76.1681 13.305C76.4481 13.305 76.6931 13.245 76.9031 13.125C77.1231 13.005 77.3631 12.78 77.6231 12.45V7.56H79.8281V15ZM81.7723 11.28C81.7723 10.67 81.8773 10.125 82.0873 9.645C82.3073 9.165 82.5973 8.76 82.9573 8.43C83.3173 8.09 83.7273 7.83 84.1873 7.65C84.6573 7.47 85.1423 7.38 85.6423 7.38C86.2123 7.38 86.7173 7.47 87.1573 7.65C87.5973 7.83 87.9623 8.08 88.2523 8.4C88.5423 8.72 88.7623 9.1 88.9123 9.54C89.0623 9.97 89.1373 10.44 89.1373 10.95C89.1373 11.15 89.1273 11.34 89.1073 11.52C89.0873 11.7 89.0673 11.835 89.0473 11.925H84.0373C84.1173 12.485 84.3573 12.89 84.7573 13.14C85.1673 13.38 85.6473 13.5 86.1973 13.5C86.5373 13.5 86.8573 13.46 87.1573 13.38C87.4673 13.29 87.7873 13.16 88.1173 12.99L88.8373 14.31C88.4173 14.58 87.9473 14.795 87.4273 14.955C86.9073 15.105 86.3973 15.18 85.8973 15.18C85.3173 15.18 84.7773 15.095 84.2773 14.925C83.7773 14.745 83.3423 14.49 82.9723 14.16C82.6023 13.82 82.3073 13.41 82.0873 12.93C81.8773 12.45 81.7723 11.9 81.7723 11.28ZM87.1423 10.47C87.1423 10.05 87.0273 9.71 86.7973 9.45C86.5673 9.19 86.1973 9.06 85.6873 9.06C85.2873 9.06 84.9323 9.175 84.6223 9.405C84.3123 9.635 84.1073 9.99 84.0073 10.47H87.1423ZM99.8505 12.93C99.8505 12.51 99.9405 12.145 100.121 11.835C100.301 11.515 100.586 11.245 100.976 11.025C101.376 10.805 101.886 10.63 102.506 10.5C103.126 10.36 103.876 10.265 104.756 10.215C104.716 9.875 104.566 9.61 104.306 9.42C104.056 9.23 103.676 9.135 103.166 9.135C102.806 9.135 102.441 9.2 102.071 9.33C101.711 9.45 101.321 9.615 100.901 9.825L100.121 8.385C100.631 8.095 101.176 7.855 101.756 7.665C102.346 7.475 102.961 7.38 103.601 7.38C104.641 7.38 105.461 7.655 106.061 8.205C106.661 8.755 106.961 9.6 106.961 10.74V15H105.161L104.996 14.16H104.936C104.556 14.45 104.141 14.695 103.691 14.895C103.241 15.085 102.776 15.18 102.296 15.18C101.916 15.18 101.576 15.12 101.276 15C100.976 14.89 100.721 14.735 100.511 14.535C100.301 14.325 100.136 14.085 100.016 13.815C99.9055 13.545 99.8505 13.25 99.8505 12.93ZM101.966 12.765C101.966 13.005 102.056 13.185 102.236 13.305C102.426 13.415 102.681 13.47 103.001 13.47C103.331 13.47 103.641 13.405 103.931 13.275C104.221 13.135 104.496 12.965 104.756 12.765V11.535C104.206 11.565 103.751 11.615 103.391 11.685C103.031 11.755 102.746 11.845 102.536 11.955C102.326 12.055 102.176 12.175 102.086 12.315C102.006 12.455 101.966 12.605 101.966 12.765ZM109.01 7.56H110.81L110.975 8.55H111.035C111.355 8.23 111.72 7.955 112.13 7.725C112.55 7.495 113.04 7.38 113.6 7.38C114.44 7.38 115.055 7.65 115.445 8.19C115.835 8.73 116.03 9.47 116.03 10.41V15H113.825V10.695C113.825 10.195 113.745 9.83 113.585 9.6C113.425 9.37 113.14 9.255 112.73 9.255C112.43 9.255 112.165 9.32 111.935 9.45C111.715 9.58 111.475 9.775 111.215 10.035V15H109.01V7.56ZM117.629 11.28C117.629 10.67 117.719 10.125 117.899 9.645C118.079 9.165 118.314 8.76 118.604 8.43C118.904 8.09 119.244 7.83 119.624 7.65C120.004 7.47 120.399 7.38 120.809 7.38C121.239 7.38 121.599 7.455 121.889 7.605C122.179 7.745 122.454 7.935 122.714 8.175L122.639 7.02V4.485H124.844V15H123.044L122.879 14.235H122.834C122.554 14.505 122.234 14.73 121.874 14.91C121.514 15.09 121.144 15.18 120.764 15.18C120.294 15.18 119.864 15.09 119.474 14.91C119.094 14.73 118.764 14.475 118.484 14.145C118.214 13.805 118.004 13.395 117.854 12.915C117.704 12.435 117.629 11.89 117.629 11.28ZM119.894 11.25C119.894 11.99 120.019 12.53 120.269 12.87C120.519 13.21 120.874 13.38 121.334 13.38C121.584 13.38 121.814 13.33 122.024 13.23C122.234 13.12 122.439 12.94 122.639 12.69V9.675C122.439 9.495 122.234 9.37 122.024 9.3C121.824 9.22 121.614 9.18 121.394 9.18C120.984 9.18 120.629 9.35 120.329 9.69C120.039 10.03 119.894 10.55 119.894 11.25ZM138.302 7.08H135.377V5.22H143.447V7.08H140.522V15H138.302V7.08ZM145.646 7.56H147.446L147.626 9.18H147.671C148.041 8.57 148.486 8.12 149.006 7.83C149.526 7.53 150.086 7.38 150.686 7.38C151.016 7.38 151.281 7.405 151.481 7.455C151.691 7.505 151.906 7.58 152.126 7.68L151.676 9.525C151.446 9.455 151.236 9.405 151.046 9.375C150.866 9.335 150.636 9.315 150.356 9.315C149.896 9.315 149.441 9.45 148.991 9.72C148.551 9.99 148.171 10.46 147.851 11.13V15H145.646V7.56ZM160.775 15H158.975L158.81 13.935H158.75C158.42 14.315 158.055 14.62 157.655 14.85C157.255 15.07 156.785 15.18 156.245 15.18C155.395 15.18 154.78 14.91 154.4 14.37C154.02 13.83 153.83 13.09 153.83 12.15V7.56H156.035V11.865C156.035 12.365 156.11 12.73 156.26 12.96C156.41 13.19 156.695 13.305 157.115 13.305C157.395 13.305 157.64 13.245 157.85 13.125C158.07 13.005 158.31 12.78 158.57 12.45V7.56H160.775V15ZM162.72 11.28C162.72 10.67 162.825 10.125 163.035 9.645C163.255 9.165 163.545 8.76 163.905 8.43C164.265 8.09 164.675 7.83 165.135 7.65C165.605 7.47 166.09 7.38 166.59 7.38C167.16 7.38 167.665 7.47 168.105 7.65C168.545 7.83 168.91 8.08 169.2 8.4C169.49 8.72 169.71 9.1 169.86 9.54C170.01 9.97 170.085 10.44 170.085 10.95C170.085 11.15 170.075 11.34 170.055 11.52C170.035 11.7 170.015 11.835 169.995 11.925H164.985C165.065 12.485 165.305 12.89 165.705 13.14C166.115 13.38 166.595 13.5 167.145 13.5C167.485 13.5 167.805 13.46 168.105 13.38C168.415 13.29 168.735 13.16 169.065 12.99L169.785 14.31C169.365 14.58 168.895 14.795 168.375 14.955C167.855 15.105 167.345 15.18 166.845 15.18C166.265 15.18 165.725 15.095 165.225 14.925C164.725 14.745 164.29 14.49 163.92 14.16C163.55 13.82 163.255 13.41 163.035 12.93C162.825 12.45 162.72 11.9 162.72 11.28ZM168.09 10.47C168.09 10.05 167.975 9.71 167.745 9.45C167.515 9.19 167.145 9.06 166.635 9.06C166.235 9.06 165.88 9.175 165.57 9.405C165.26 9.635 165.055 9.99 164.955 10.47H168.09ZM57.3548 26.08H54.4298V24.22H62.4998V26.08H59.5748V34H57.3548V26.08ZM64.699 26.56H66.499L66.679 28.18H66.724C67.094 27.57 67.539 27.12 68.059 26.83C68.579 26.53 69.139 26.38 69.739 26.38C70.069 26.38 70.334 26.405 70.534 26.455C70.744 26.505 70.959 26.58 71.179 26.68L70.729 28.525C70.499 28.455 70.289 28.405 70.099 28.375C69.919 28.335 69.689 28.315 69.409 28.315C68.949 28.315 68.494 28.45 68.044 28.72C67.604 28.99 67.224 29.46 66.904 30.13V34H64.699V26.56ZM79.8281 34H78.0281L77.8631 32.935H77.8031C77.4731 33.315 77.1081 33.62 76.7081 33.85C76.3081 34.07 75.8381 34.18 75.2981 34.18C74.4481 34.18 73.8331 33.91 73.4531 33.37C73.0731 32.83 72.8831 32.09 72.8831 31.15V26.56H75.0881V30.865C75.0881 31.365 75.1631 31.73 75.3131 31.96C75.4631 32.19 75.7481 32.305 76.1681 32.305C76.4481 32.305 76.6931 32.245 76.9031 32.125C77.1231 32.005 77.3631 31.78 77.6231 31.45V26.56H79.8281V34ZM81.7723 30.28C81.7723 29.67 81.8773 29.125 82.0873 28.645C82.3073 28.165 82.5973 27.76 82.9573 27.43C83.3173 27.09 83.7273 26.83 84.1873 26.65C84.6573 26.47 85.1423 26.38 85.6423 26.38C86.2123 26.38 86.7173 26.47 87.1573 26.65C87.5973 26.83 87.9623 27.08 88.2523 27.4C88.5423 27.72 88.7623 28.1 88.9123 28.54C89.0623 28.97 89.1373 29.44 89.1373 29.95C89.1373 30.15 89.1273 30.34 89.1073 30.52C89.0873 30.7 89.0673 30.835 89.0473 30.925H84.0373C84.1173 31.485 84.3573 31.89 84.7573 32.14C85.1673 32.38 85.6473 32.5 86.1973 32.5C86.5373 32.5 86.8573 32.46 87.1573 32.38C87.4673 32.29 87.7873 32.16 88.1173 31.99L88.8373 33.31C88.4173 33.58 87.9473 33.795 87.4273 33.955C86.9073 34.105 86.3973 34.18 85.8973 34.18C85.3173 34.18 84.7773 34.095 84.2773 33.925C83.7773 33.745 83.3423 33.49 82.9723 33.16C82.6023 32.82 82.3073 32.41 82.0873 31.93C81.8773 31.45 81.7723 30.9 81.7723 30.28ZM87.1423 29.47C87.1423 29.05 87.0273 28.71 86.7973 28.45C86.5673 28.19 86.1973 28.06 85.6873 28.06C85.2873 28.06 84.9323 28.175 84.6223 28.405C84.3123 28.635 84.1073 28.99 84.0073 29.47H87.1423ZM99.8505 31.93C99.8505 31.51 99.9405 31.145 100.121 30.835C100.301 30.515 100.586 30.245 100.976 30.025C101.376 29.805 101.886 29.63 102.506 29.5C103.126 29.36 103.876 29.265 104.756 29.215C104.716 28.875 104.566 28.61 104.306 28.42C104.056 28.23 103.676 28.135 103.166 28.135C102.806 28.135 102.441 28.2 102.071 28.33C101.711 28.45 101.321 28.615 100.901 28.825L100.121 27.385C100.631 27.095 101.176 26.855 101.756 26.665C102.346 26.475 102.961 26.38 103.601 26.38C104.641 26.38 105.461 26.655 106.061 27.205C106.661 27.755 106.961 28.6 106.961 29.74V34H105.161L104.996 33.16H104.936C104.556 33.45 104.141 33.695 103.691 33.895C103.241 34.085 102.776 34.18 102.296 34.18C101.916 34.18 101.576 34.12 101.276 34C100.976 33.89 100.721 33.735 100.511 33.535C100.301 33.325 100.136 33.085 100.016 32.815C99.9055 32.545 99.8505 32.25 99.8505 31.93ZM101.966 31.765C101.966 32.005 102.056 32.185 102.236 32.305C102.426 32.415 102.681 32.47 103.001 32.47C103.331 32.47 103.641 32.405 103.931 32.275C104.221 32.135 104.496 31.965 104.756 31.765V30.535C104.206 30.565 103.751 30.615 103.391 30.685C103.031 30.755 102.746 30.845 102.536 30.955C102.326 31.055 102.176 31.175 102.086 31.315C102.006 31.455 101.966 31.605 101.966 31.765ZM109.01 26.56H110.81L110.975 27.55H111.035C111.355 27.23 111.72 26.955 112.13 26.725C112.55 26.495 113.04 26.38 113.6 26.38C114.44 26.38 115.055 26.65 115.445 27.19C115.835 27.73 116.03 28.47 116.03 29.41V34H113.825V29.695C113.825 29.195 113.745 28.83 113.585 28.6C113.425 28.37 113.14 28.255 112.73 28.255C112.43 28.255 112.165 28.32 111.935 28.45C111.715 28.58 111.475 28.775 111.215 29.035V34H109.01V26.56ZM117.629 30.28C117.629 29.67 117.719 29.125 117.899 28.645C118.079 28.165 118.314 27.76 118.604 27.43C118.904 27.09 119.244 26.83 119.624 26.65C120.004 26.47 120.399 26.38 120.809 26.38C121.239 26.38 121.599 26.455 121.889 26.605C122.179 26.745 122.454 26.935 122.714 27.175L122.639 26.02V23.485H124.844V34H123.044L122.879 33.235H122.834C122.554 33.505 122.234 33.73 121.874 33.91C121.514 34.09 121.144 34.18 120.764 34.18C120.294 34.18 119.864 34.09 119.474 33.91C119.094 33.73 118.764 33.475 118.484 33.145C118.214 32.805 118.004 32.395 117.854 31.915C117.704 31.435 117.629 30.89 117.629 30.28ZM119.894 30.25C119.894 30.99 120.019 31.53 120.269 31.87C120.519 32.21 120.874 32.38 121.334 32.38C121.584 32.38 121.814 32.33 122.024 32.23C122.234 32.12 122.439 31.94 122.639 31.69V28.675C122.439 28.495 122.234 28.37 122.024 28.3C121.824 28.22 121.614 28.18 121.394 28.18C120.984 28.18 120.629 28.35 120.329 28.69C120.039 29.03 119.894 29.55 119.894 30.25ZM136.532 24.22H142.982V26.08H138.737V28.345H142.352V30.205H138.737V34H136.532V24.22ZM144.821 31.93C144.821 31.51 144.911 31.145 145.091 30.835C145.271 30.515 145.556 30.245 145.946 30.025C146.346 29.805 146.856 29.63 147.476 29.5C148.096 29.36 148.846 29.265 149.726 29.215C149.686 28.875 149.536 28.61 149.276 28.42C149.026 28.23 148.646 28.135 148.136 28.135C147.776 28.135 147.411 28.2 147.041 28.33C146.681 28.45 146.291 28.615 145.871 28.825L145.091 27.385C145.601 27.095 146.146 26.855 146.726 26.665C147.316 26.475 147.931 26.38 148.571 26.38C149.611 26.38 150.431 26.655 151.031 27.205C151.631 27.755 151.931 28.6 151.931 29.74V34H150.131L149.966 33.16H149.906C149.526 33.45 149.111 33.695 148.661 33.895C148.211 34.085 147.746 34.18 147.266 34.18C146.886 34.18 146.546 34.12 146.246 34C145.946 33.89 145.691 33.735 145.481 33.535C145.271 33.325 145.106 33.085 144.986 32.815C144.876 32.545 144.821 32.25 144.821 31.93ZM146.936 31.765C146.936 32.005 147.026 32.185 147.206 32.305C147.396 32.415 147.651 32.47 147.971 32.47C148.301 32.47 148.611 32.405 148.901 32.275C149.191 32.135 149.466 31.965 149.726 31.765V30.535C149.176 30.565 148.721 30.615 148.361 30.685C148.001 30.755 147.716 30.845 147.506 30.955C147.296 31.055 147.146 31.175 147.056 31.315C146.976 31.455 146.936 31.605 146.936 31.765ZM153.83 23.485H158.195V31.18C158.195 31.41 158.225 31.605 158.285 31.765C158.355 31.915 158.445 32.04 158.555 32.14C158.675 32.23 158.805 32.295 158.945 32.335C159.095 32.375 159.245 32.395 159.395 32.395C159.565 32.395 159.745 32.38 159.935 32.35C160.125 32.31 160.335 32.245 160.565 32.155L161.06 33.775C160.86 33.835 160.675 33.89 160.505 33.94C160.335 33.99 160.165 34.03 159.995 34.06C159.825 34.1 159.645 34.13 159.455 34.15C159.265 34.17 159.055 34.18 158.825 34.18C157.885 34.18 157.175 33.905 156.695 33.355C156.225 32.795 155.99 32.04 155.99 31.09V25.225H153.83V23.485ZM163.68 31.66C164.11 31.93 164.54 32.145 164.97 32.305C165.41 32.465 165.88 32.545 166.38 32.545C166.89 32.545 167.255 32.49 167.475 32.38C167.695 32.27 167.805 32.115 167.805 31.915C167.805 31.685 167.62 31.5 167.25 31.36C166.89 31.21 166.41 31.05 165.81 30.88C165.48 30.79 165.155 30.685 164.835 30.565C164.525 30.435 164.245 30.285 163.995 30.115C163.745 29.935 163.54 29.73 163.38 29.5C163.23 29.27 163.155 29.005 163.155 28.705C163.155 28.365 163.235 28.05 163.395 27.76C163.555 27.47 163.78 27.225 164.07 27.025C164.37 26.825 164.73 26.67 165.15 26.56C165.58 26.44 166.06 26.38 166.59 26.38C167.25 26.38 167.85 26.49 168.39 26.71C168.94 26.92 169.41 27.15 169.8 27.4L168.81 28.72C168.47 28.52 168.12 28.355 167.76 28.225C167.4 28.085 167.025 28.015 166.635 28.015C166.165 28.015 165.83 28.065 165.63 28.165C165.44 28.265 165.345 28.41 165.345 28.6C165.345 28.71 165.395 28.81 165.495 28.9C165.595 28.99 165.73 29.07 165.9 29.14C166.07 29.21 166.27 29.28 166.5 29.35C166.74 29.41 166.99 29.475 167.25 29.545C167.62 29.645 167.97 29.76 168.3 29.89C168.63 30.01 168.92 30.155 169.17 30.325C169.42 30.495 169.62 30.7 169.77 30.94C169.92 31.18 169.995 31.46 169.995 31.78C169.995 32.12 169.915 32.435 169.755 32.725C169.595 33.015 169.36 33.27 169.05 33.49C168.75 33.7 168.37 33.87 167.91 34C167.46 34.12 166.935 34.18 166.335 34.18C165.665 34.18 165.01 34.07 164.37 33.85C163.73 33.63 163.17 33.36 162.69 33.04L163.68 31.66ZM171.714 30.28C171.714 29.67 171.819 29.125 172.029 28.645C172.249 28.165 172.539 27.76 172.899 27.43C173.259 27.09 173.669 26.83 174.129 26.65C174.599 26.47 175.084 26.38 175.584 26.38C176.154 26.38 176.659 26.47 177.099 26.65C177.539 26.83 177.904 27.08 178.194 27.4C178.484 27.72 178.704 28.1 178.854 28.54C179.004 28.97 179.079 29.44 179.079 29.95C179.079 30.15 179.069 30.34 179.049 30.52C179.029 30.7 179.009 30.835 178.989 30.925H173.979C174.059 31.485 174.299 31.89 174.699 32.14C175.109 32.38 175.589 32.5 176.139 32.5C176.479 32.5 176.799 32.46 177.099 32.38C177.409 32.29 177.729 32.16 178.059 31.99L178.779 33.31C178.359 33.58 177.889 33.795 177.369 33.955C176.849 34.105 176.339 34.18 175.839 34.18C175.259 34.18 174.719 34.095 174.219 33.925C173.719 33.745 173.284 33.49 172.914 33.16C172.544 32.82 172.249 32.41 172.029 31.93C171.819 31.45 171.714 30.9 171.714 30.28ZM177.084 29.47C177.084 29.05 176.969 28.71 176.739 28.45C176.509 28.19 176.139 28.06 175.629 28.06C175.229 28.06 174.874 28.175 174.564 28.405C174.254 28.635 174.049 28.99 173.949 29.47H177.084ZM55.5848 42.22H62.0348V44.08H57.7898V46.345H61.4048V48.205H57.7898V52H55.5848V42.22ZM63.874 49.93C63.874 49.51 63.964 49.145 64.144 48.835C64.324 48.515 64.609 48.245 64.999 48.025C65.399 47.805 65.909 47.63 66.529 47.5C67.149 47.36 67.899 47.265 68.779 47.215C68.739 46.875 68.589 46.61 68.329 46.42C68.079 46.23 67.699 46.135 67.189 46.135C66.829 46.135 66.464 46.2 66.094 46.33C65.734 46.45 65.344 46.615 64.924 46.825L64.144 45.385C64.654 45.095 65.199 44.855 65.779 44.665C66.369 44.475 66.984 44.38 67.624 44.38C68.664 44.38 69.484 44.655 70.084 45.205C70.684 45.755 70.984 46.6 70.984 47.74V52H69.184L69.019 51.16H68.959C68.579 51.45 68.164 51.695 67.714 51.895C67.264 52.085 66.799 52.18 66.319 52.18C65.939 52.18 65.599 52.12 65.299 52C64.999 51.89 64.744 51.735 64.534 51.535C64.324 51.325 64.159 51.085 64.039 50.815C63.929 50.545 63.874 50.25 63.874 49.93ZM65.989 49.765C65.989 50.005 66.079 50.185 66.259 50.305C66.449 50.415 66.704 50.47 67.024 50.47C67.354 50.47 67.664 50.405 67.954 50.275C68.244 50.135 68.519 49.965 68.779 49.765V48.535C68.229 48.565 67.774 48.615 67.414 48.685C67.054 48.755 66.769 48.845 66.559 48.955C66.349 49.055 66.199 49.175 66.109 49.315C66.029 49.455 65.989 49.605 65.989 49.765ZM72.8831 41.485H77.2481V49.18C77.2481 49.41 77.2781 49.605 77.3381 49.765C77.4081 49.915 77.4981 50.04 77.6081 50.14C77.7281 50.23 77.8581 50.295 77.9981 50.335C78.1481 50.375 78.2981 50.395 78.4481 50.395C78.6181 50.395 78.7981 50.38 78.9881 50.35C79.1781 50.31 79.3881 50.245 79.6181 50.155L80.1131 51.775C79.9131 51.835 79.7281 51.89 79.5581 51.94C79.3881 51.99 79.2181 52.03 79.0481 52.06C78.8781 52.1 78.6981 52.13 78.5081 52.15C78.3181 52.17 78.1081 52.18 77.8781 52.18C76.9381 52.18 76.2281 51.905 75.7481 51.355C75.2781 50.795 75.0431 50.04 75.0431 49.09V43.225H72.8831V41.485ZM82.7323 49.66C83.1623 49.93 83.5923 50.145 84.0223 50.305C84.4623 50.465 84.9323 50.545 85.4323 50.545C85.9423 50.545 86.3073 50.49 86.5273 50.38C86.7473 50.27 86.8573 50.115 86.8573 49.915C86.8573 49.685 86.6723 49.5 86.3023 49.36C85.9423 49.21 85.4623 49.05 84.8623 48.88C84.5323 48.79 84.2073 48.685 83.8873 48.565C83.5773 48.435 83.2973 48.285 83.0473 48.115C82.7973 47.935 82.5923 47.73 82.4323 47.5C82.2823 47.27 82.2073 47.005 82.2073 46.705C82.2073 46.365 82.2873 46.05 82.4473 45.76C82.6073 45.47 82.8323 45.225 83.1223 45.025C83.4223 44.825 83.7823 44.67 84.2023 44.56C84.6323 44.44 85.1123 44.38 85.6423 44.38C86.3023 44.38 86.9023 44.49 87.4423 44.71C87.9923 44.92 88.4623 45.15 88.8523 45.4L87.8623 46.72C87.5223 46.52 87.1723 46.355 86.8123 46.225C86.4523 46.085 86.0773 46.015 85.6873 46.015C85.2173 46.015 84.8823 46.065 84.6823 46.165C84.4923 46.265 84.3973 46.41 84.3973 46.6C84.3973 46.71 84.4473 46.81 84.5473 46.9C84.6473 46.99 84.7823 47.07 84.9523 47.14C85.1223 47.21 85.3223 47.28 85.5523 47.35C85.7923 47.41 86.0423 47.475 86.3023 47.545C86.6723 47.645 87.0223 47.76 87.3523 47.89C87.6823 48.01 87.9723 48.155 88.2223 48.325C88.4723 48.495 88.6723 48.7 88.8223 48.94C88.9723 49.18 89.0473 49.46 89.0473 49.78C89.0473 50.12 88.9673 50.435 88.8073 50.725C88.6473 51.015 88.4123 51.27 88.1023 51.49C87.8023 51.7 87.4223 51.87 86.9623 52C86.5123 52.12 85.9873 52.18 85.3873 52.18C84.7173 52.18 84.0623 52.07 83.4223 51.85C82.7823 51.63 82.2223 51.36 81.7423 51.04L82.7323 49.66ZM90.7664 48.28C90.7664 47.67 90.8714 47.125 91.0814 46.645C91.3014 46.165 91.5914 45.76 91.9514 45.43C92.3114 45.09 92.7214 44.83 93.1814 44.65C93.6514 44.47 94.1364 44.38 94.6364 44.38C95.2064 44.38 95.7114 44.47 96.1514 44.65C96.5914 44.83 96.9564 45.08 97.2464 45.4C97.5364 45.72 97.7564 46.1 97.9064 46.54C98.0564 46.97 98.1314 47.44 98.1314 47.95C98.1314 48.15 98.1214 48.34 98.1014 48.52C98.0814 48.7 98.0614 48.835 98.0414 48.925H93.0314C93.1114 49.485 93.3514 49.89 93.7514 50.14C94.1614 50.38 94.6414 50.5 95.1914 50.5C95.5314 50.5 95.8514 50.46 96.1514 50.38C96.4614 50.29 96.7814 50.16 97.1114 49.99L97.8314 51.31C97.4114 51.58 96.9414 51.795 96.4214 51.955C95.9014 52.105 95.3914 52.18 94.8914 52.18C94.3114 52.18 93.7714 52.095 93.2714 51.925C92.7714 51.745 92.3364 51.49 91.9664 51.16C91.5964 50.82 91.3014 50.41 91.0814 49.93C90.8714 49.45 90.7664 48.9 90.7664 48.28ZM96.1364 47.47C96.1364 47.05 96.0214 46.71 95.7914 46.45C95.5614 46.19 95.1914 46.06 94.6814 46.06C94.2814 46.06 93.9264 46.175 93.6164 46.405C93.3064 46.635 93.1014 46.99 93.0014 47.47H96.1364ZM108.845 49.93C108.845 49.51 108.935 49.145 109.115 48.835C109.295 48.515 109.58 48.245 109.97 48.025C110.37 47.805 110.88 47.63 111.5 47.5C112.12 47.36 112.87 47.265 113.75 47.215C113.71 46.875 113.56 46.61 113.3 46.42C113.05 46.23 112.67 46.135 112.16 46.135C111.8 46.135 111.435 46.2 111.065 46.33C110.705 46.45 110.315 46.615 109.895 46.825L109.115 45.385C109.625 45.095 110.17 44.855 110.75 44.665C111.34 44.475 111.955 44.38 112.595 44.38C113.635 44.38 114.455 44.655 115.055 45.205C115.655 45.755 115.955 46.6 115.955 47.74V52H114.155L113.99 51.16H113.93C113.55 51.45 113.135 51.695 112.685 51.895C112.235 52.085 111.77 52.18 111.29 52.18C110.91 52.18 110.57 52.12 110.27 52C109.97 51.89 109.715 51.735 109.505 51.535C109.295 51.325 109.13 51.085 109.01 50.815C108.9 50.545 108.845 50.25 108.845 49.93ZM110.96 49.765C110.96 50.005 111.05 50.185 111.23 50.305C111.42 50.415 111.675 50.47 111.995 50.47C112.325 50.47 112.635 50.405 112.925 50.275C113.215 50.135 113.49 49.965 113.75 49.765V48.535C113.2 48.565 112.745 48.615 112.385 48.685C112.025 48.755 111.74 48.845 111.53 48.955C111.32 49.055 111.17 49.175 111.08 49.315C111 49.455 110.96 49.605 110.96 49.765ZM118.004 44.56H119.804L119.969 45.55H120.029C120.349 45.23 120.714 44.955 121.124 44.725C121.544 44.495 122.034 44.38 122.594 44.38C123.434 44.38 124.049 44.65 124.439 45.19C124.829 45.73 125.024 46.47 125.024 47.41V52H122.819V47.695C122.819 47.195 122.739 46.83 122.579 46.6C122.419 46.37 122.134 46.255 121.724 46.255C121.424 46.255 121.159 46.32 120.929 46.45C120.709 46.58 120.469 46.775 120.209 47.035V52H118.004V44.56ZM126.623 48.28C126.623 47.67 126.713 47.125 126.893 46.645C127.073 46.165 127.308 45.76 127.598 45.43C127.898 45.09 128.238 44.83 128.618 44.65C128.998 44.47 129.393 44.38 129.803 44.38C130.233 44.38 130.593 44.455 130.883 44.605C131.173 44.745 131.448 44.935 131.708 45.175L131.633 44.02V41.485H133.838V52H132.038L131.873 51.235H131.828C131.548 51.505 131.228 51.73 130.868 51.91C130.508 52.09 130.138 52.18 129.758 52.18C129.288 52.18 128.858 52.09 128.468 51.91C128.088 51.73 127.758 51.475 127.478 51.145C127.208 50.805 126.998 50.395 126.848 49.915C126.698 49.435 126.623 48.89 126.623 48.28ZM128.888 48.25C128.888 48.99 129.013 49.53 129.263 49.87C129.513 50.21 129.868 50.38 130.328 50.38C130.578 50.38 130.808 50.33 131.018 50.23C131.228 50.12 131.433 49.94 131.633 49.69V46.675C131.433 46.495 131.228 46.37 131.018 46.3C130.818 46.22 130.608 46.18 130.388 46.18C129.978 46.18 129.623 46.35 129.323 46.69C129.033 47.03 128.888 47.55 128.888 48.25ZM147.296 44.08H144.371V42.22H152.441V44.08H149.516V52H147.296V44.08ZM154.64 44.56H156.44L156.62 46.18H156.665C157.035 45.57 157.48 45.12 158 44.83C158.52 44.53 159.08 44.38 159.68 44.38C160.01 44.38 160.275 44.405 160.475 44.455C160.685 44.505 160.9 44.58 161.12 44.68L160.67 46.525C160.44 46.455 160.23 46.405 160.04 46.375C159.86 46.335 159.63 46.315 159.35 46.315C158.89 46.315 158.435 46.45 157.985 46.72C157.545 46.99 157.165 47.46 156.845 48.13V52H154.64V44.56ZM169.77 52H167.97L167.805 50.935H167.745C167.415 51.315 167.05 51.62 166.65 51.85C166.25 52.07 165.78 52.18 165.24 52.18C164.39 52.18 163.775 51.91 163.395 51.37C163.015 50.83 162.825 50.09 162.825 49.15V44.56H165.03V48.865C165.03 49.365 165.105 49.73 165.255 49.96C165.405 50.19 165.69 50.305 166.11 50.305C166.39 50.305 166.635 50.245 166.845 50.125C167.065 50.005 167.305 49.78 167.565 49.45V44.56H169.77V52ZM171.714 48.28C171.714 47.67 171.819 47.125 172.029 46.645C172.249 46.165 172.539 45.76 172.899 45.43C173.259 45.09 173.669 44.83 174.129 44.65C174.599 44.47 175.084 44.38 175.584 44.38C176.154 44.38 176.659 44.47 177.099 44.65C177.539 44.83 177.904 45.08 178.194 45.4C178.484 45.72 178.704 46.1 178.854 46.54C179.004 46.97 179.079 47.44 179.079 47.95C179.079 48.15 179.069 48.34 179.049 48.52C179.029 48.7 179.009 48.835 178.989 48.925H173.979C174.059 49.485 174.299 49.89 174.699 50.14C175.109 50.38 175.589 50.5 176.139 50.5C176.479 50.5 176.799 50.46 177.099 50.38C177.409 50.29 177.729 50.16 178.059 49.99L178.779 51.31C178.359 51.58 177.889 51.795 177.369 51.955C176.849 52.105 176.339 52.18 175.839 52.18C175.259 52.18 174.719 52.095 174.219 51.925C173.719 51.745 173.284 51.49 172.914 51.16C172.544 50.82 172.249 50.41 172.029 49.93C171.819 49.45 171.714 48.9 171.714 48.28ZM177.084 47.47C177.084 47.05 176.969 46.71 176.739 46.45C176.509 46.19 176.139 46.06 175.629 46.06C175.229 46.06 174.874 46.175 174.564 46.405C174.254 46.635 174.049 46.99 173.949 47.47H177.084ZM55.5848 61.22H62.0348V63.08H57.7898V65.345H61.4048V67.205H57.7898V71H55.5848V61.22ZM63.874 68.93C63.874 68.51 63.964 68.145 64.144 67.835C64.324 67.515 64.609 67.245 64.999 67.025C65.399 66.805 65.909 66.63 66.529 66.5C67.149 66.36 67.899 66.265 68.779 66.215C68.739 65.875 68.589 65.61 68.329 65.42C68.079 65.23 67.699 65.135 67.189 65.135C66.829 65.135 66.464 65.2 66.094 65.33C65.734 65.45 65.344 65.615 64.924 65.825L64.144 64.385C64.654 64.095 65.199 63.855 65.779 63.665C66.369 63.475 66.984 63.38 67.624 63.38C68.664 63.38 69.484 63.655 70.084 64.205C70.684 64.755 70.984 65.6 70.984 66.74V71H69.184L69.019 70.16H68.959C68.579 70.45 68.164 70.695 67.714 70.895C67.264 71.085 66.799 71.18 66.319 71.18C65.939 71.18 65.599 71.12 65.299 71C64.999 70.89 64.744 70.735 64.534 70.535C64.324 70.325 64.159 70.085 64.039 69.815C63.929 69.545 63.874 69.25 63.874 68.93ZM65.989 68.765C65.989 69.005 66.079 69.185 66.259 69.305C66.449 69.415 66.704 69.47 67.024 69.47C67.354 69.47 67.664 69.405 67.954 69.275C68.244 69.135 68.519 68.965 68.779 68.765V67.535C68.229 67.565 67.774 67.615 67.414 67.685C67.054 67.755 66.769 67.845 66.559 67.955C66.349 68.055 66.199 68.175 66.109 68.315C66.029 68.455 65.989 68.605 65.989 68.765ZM72.8831 60.485H77.2481V68.18C77.2481 68.41 77.2781 68.605 77.3381 68.765C77.4081 68.915 77.4981 69.04 77.6081 69.14C77.7281 69.23 77.8581 69.295 77.9981 69.335C78.1481 69.375 78.2981 69.395 78.4481 69.395C78.6181 69.395 78.7981 69.38 78.9881 69.35C79.1781 69.31 79.3881 69.245 79.6181 69.155L80.1131 70.775C79.9131 70.835 79.7281 70.89 79.5581 70.94C79.3881 70.99 79.2181 71.03 79.0481 71.06C78.8781 71.1 78.6981 71.13 78.5081 71.15C78.3181 71.17 78.1081 71.18 77.8781 71.18C76.9381 71.18 76.2281 70.905 75.7481 70.355C75.2781 69.795 75.0431 69.04 75.0431 68.09V62.225H72.8831V60.485ZM82.7323 68.66C83.1623 68.93 83.5923 69.145 84.0223 69.305C84.4623 69.465 84.9323 69.545 85.4323 69.545C85.9423 69.545 86.3073 69.49 86.5273 69.38C86.7473 69.27 86.8573 69.115 86.8573 68.915C86.8573 68.685 86.6723 68.5 86.3023 68.36C85.9423 68.21 85.4623 68.05 84.8623 67.88C84.5323 67.79 84.2073 67.685 83.8873 67.565C83.5773 67.435 83.2973 67.285 83.0473 67.115C82.7973 66.935 82.5923 66.73 82.4323 66.5C82.2823 66.27 82.2073 66.005 82.2073 65.705C82.2073 65.365 82.2873 65.05 82.4473 64.76C82.6073 64.47 82.8323 64.225 83.1223 64.025C83.4223 63.825 83.7823 63.67 84.2023 63.56C84.6323 63.44 85.1123 63.38 85.6423 63.38C86.3023 63.38 86.9023 63.49 87.4423 63.71C87.9923 63.92 88.4623 64.15 88.8523 64.4L87.8623 65.72C87.5223 65.52 87.1723 65.355 86.8123 65.225C86.4523 65.085 86.0773 65.015 85.6873 65.015C85.2173 65.015 84.8823 65.065 84.6823 65.165C84.4923 65.265 84.3973 65.41 84.3973 65.6C84.3973 65.71 84.4473 65.81 84.5473 65.9C84.6473 65.99 84.7823 66.07 84.9523 66.14C85.1223 66.21 85.3223 66.28 85.5523 66.35C85.7923 66.41 86.0423 66.475 86.3023 66.545C86.6723 66.645 87.0223 66.76 87.3523 66.89C87.6823 67.01 87.9723 67.155 88.2223 67.325C88.4723 67.495 88.6723 67.7 88.8223 67.94C88.9723 68.18 89.0473 68.46 89.0473 68.78C89.0473 69.12 88.9673 69.435 88.8073 69.725C88.6473 70.015 88.4123 70.27 88.1023 70.49C87.8023 70.7 87.4223 70.87 86.9623 71C86.5123 71.12 85.9873 71.18 85.3873 71.18C84.7173 71.18 84.0623 71.07 83.4223 70.85C82.7823 70.63 82.2223 70.36 81.7423 70.04L82.7323 68.66ZM90.7664 67.28C90.7664 66.67 90.8714 66.125 91.0814 65.645C91.3014 65.165 91.5914 64.76 91.9514 64.43C92.3114 64.09 92.7214 63.83 93.1814 63.65C93.6514 63.47 94.1364 63.38 94.6364 63.38C95.2064 63.38 95.7114 63.47 96.1514 63.65C96.5914 63.83 96.9564 64.08 97.2464 64.4C97.5364 64.72 97.7564 65.1 97.9064 65.54C98.0564 65.97 98.1314 66.44 98.1314 66.95C98.1314 67.15 98.1214 67.34 98.1014 67.52C98.0814 67.7 98.0614 67.835 98.0414 67.925H93.0314C93.1114 68.485 93.3514 68.89 93.7514 69.14C94.1614 69.38 94.6414 69.5 95.1914 69.5C95.5314 69.5 95.8514 69.46 96.1514 69.38C96.4614 69.29 96.7814 69.16 97.1114 68.99L97.8314 70.31C97.4114 70.58 96.9414 70.795 96.4214 70.955C95.9014 71.105 95.3914 71.18 94.8914 71.18C94.3114 71.18 93.7714 71.095 93.2714 70.925C92.7714 70.745 92.3364 70.49 91.9664 70.16C91.5964 69.82 91.3014 69.41 91.0814 68.93C90.8714 68.45 90.7664 67.9 90.7664 67.28ZM96.1364 66.47C96.1364 66.05 96.0214 65.71 95.7914 65.45C95.5614 65.19 95.1914 65.06 94.6814 65.06C94.2814 65.06 93.9264 65.175 93.6164 65.405C93.3064 65.635 93.1014 65.99 93.0014 66.47H96.1364ZM108.845 68.93C108.845 68.51 108.935 68.145 109.115 67.835C109.295 67.515 109.58 67.245 109.97 67.025C110.37 66.805 110.88 66.63 111.5 66.5C112.12 66.36 112.87 66.265 113.75 66.215C113.71 65.875 113.56 65.61 113.3 65.42C113.05 65.23 112.67 65.135 112.16 65.135C111.8 65.135 111.435 65.2 111.065 65.33C110.705 65.45 110.315 65.615 109.895 65.825L109.115 64.385C109.625 64.095 110.17 63.855 110.75 63.665C111.34 63.475 111.955 63.38 112.595 63.38C113.635 63.38 114.455 63.655 115.055 64.205C115.655 64.755 115.955 65.6 115.955 66.74V71H114.155L113.99 70.16H113.93C113.55 70.45 113.135 70.695 112.685 70.895C112.235 71.085 111.77 71.18 111.29 71.18C110.91 71.18 110.57 71.12 110.27 71C109.97 70.89 109.715 70.735 109.505 70.535C109.295 70.325 109.13 70.085 109.01 69.815C108.9 69.545 108.845 69.25 108.845 68.93ZM110.96 68.765C110.96 69.005 111.05 69.185 111.23 69.305C111.42 69.415 111.675 69.47 111.995 69.47C112.325 69.47 112.635 69.405 112.925 69.275C113.215 69.135 113.49 68.965 113.75 68.765V67.535C113.2 67.565 112.745 67.615 112.385 67.685C112.025 67.755 111.74 67.845 111.53 67.955C111.32 68.055 111.17 68.175 111.08 68.315C111 68.455 110.96 68.605 110.96 68.765ZM118.004 63.56H119.804L119.969 64.55H120.029C120.349 64.23 120.714 63.955 121.124 63.725C121.544 63.495 122.034 63.38 122.594 63.38C123.434 63.38 124.049 63.65 124.439 64.19C124.829 64.73 125.024 65.47 125.024 66.41V71H122.819V66.695C122.819 66.195 122.739 65.83 122.579 65.6C122.419 65.37 122.134 65.255 121.724 65.255C121.424 65.255 121.159 65.32 120.929 65.45C120.709 65.58 120.469 65.775 120.209 66.035V71H118.004V63.56ZM126.623 67.28C126.623 66.67 126.713 66.125 126.893 65.645C127.073 65.165 127.308 64.76 127.598 64.43C127.898 64.09 128.238 63.83 128.618 63.65C128.998 63.47 129.393 63.38 129.803 63.38C130.233 63.38 130.593 63.455 130.883 63.605C131.173 63.745 131.448 63.935 131.708 64.175L131.633 63.02V60.485H133.838V71H132.038L131.873 70.235H131.828C131.548 70.505 131.228 70.73 130.868 70.91C130.508 71.09 130.138 71.18 129.758 71.18C129.288 71.18 128.858 71.09 128.468 70.91C128.088 70.73 127.758 70.475 127.478 70.145C127.208 69.805 126.998 69.395 126.848 68.915C126.698 68.435 126.623 67.89 126.623 67.28ZM128.888 67.25C128.888 67.99 129.013 68.53 129.263 68.87C129.513 69.21 129.868 69.38 130.328 69.38C130.578 69.38 130.808 69.33 131.018 69.23C131.228 69.12 131.433 68.94 131.633 68.69V65.675C131.433 65.495 131.228 65.37 131.018 65.3C130.818 65.22 130.608 65.18 130.388 65.18C129.978 65.18 129.623 65.35 129.323 65.69C129.033 66.03 128.888 66.55 128.888 67.25ZM145.526 61.22H151.976V63.08H147.731V65.345H151.346V67.205H147.731V71H145.526V61.22ZM153.815 68.93C153.815 68.51 153.905 68.145 154.085 67.835C154.265 67.515 154.55 67.245 154.94 67.025C155.34 66.805 155.85 66.63 156.47 66.5C157.09 66.36 157.84 66.265 158.72 66.215C158.68 65.875 158.53 65.61 158.27 65.42C158.02 65.23 157.64 65.135 157.13 65.135C156.77 65.135 156.405 65.2 156.035 65.33C155.675 65.45 155.285 65.615 154.865 65.825L154.085 64.385C154.595 64.095 155.14 63.855 155.72 63.665C156.31 63.475 156.925 63.38 157.565 63.38C158.605 63.38 159.425 63.655 160.025 64.205C160.625 64.755 160.925 65.6 160.925 66.74V71H159.125L158.96 70.16H158.9C158.52 70.45 158.105 70.695 157.655 70.895C157.205 71.085 156.74 71.18 156.26 71.18C155.88 71.18 155.54 71.12 155.24 71C154.94 70.89 154.685 70.735 154.475 70.535C154.265 70.325 154.1 70.085 153.98 69.815C153.87 69.545 153.815 69.25 153.815 68.93ZM155.93 68.765C155.93 69.005 156.02 69.185 156.2 69.305C156.39 69.415 156.645 69.47 156.965 69.47C157.295 69.47 157.605 69.405 157.895 69.275C158.185 69.135 158.46 68.965 158.72 68.765V67.535C158.17 67.565 157.715 67.615 157.355 67.685C156.995 67.755 156.71 67.845 156.5 67.955C156.29 68.055 156.14 68.175 156.05 68.315C155.97 68.455 155.93 68.605 155.93 68.765ZM162.825 60.485H167.19V68.18C167.19 68.41 167.22 68.605 167.28 68.765C167.35 68.915 167.44 69.04 167.55 69.14C167.67 69.23 167.8 69.295 167.94 69.335C168.09 69.375 168.24 69.395 168.39 69.395C168.56 69.395 168.74 69.38 168.93 69.35C169.12 69.31 169.33 69.245 169.56 69.155L170.055 70.775C169.855 70.835 169.67 70.89 169.5 70.94C169.33 70.99 169.16 71.03 168.99 71.06C168.82 71.1 168.64 71.13 168.45 71.15C168.26 71.17 168.05 71.18 167.82 71.18C166.88 71.18 166.17 70.905 165.69 70.355C165.22 69.795 164.985 69.04 164.985 68.09V62.225H162.825V60.485ZM172.674 68.66C173.104 68.93 173.534 69.145 173.964 69.305C174.404 69.465 174.874 69.545 175.374 69.545C175.884 69.545 176.249 69.49 176.469 69.38C176.689 69.27 176.799 69.115 176.799 68.915C176.799 68.685 176.614 68.5 176.244 68.36C175.884 68.21 175.404 68.05 174.804 67.88C174.474 67.79 174.149 67.685 173.829 67.565C173.519 67.435 173.239 67.285 172.989 67.115C172.739 66.935 172.534 66.73 172.374 66.5C172.224 66.27 172.149 66.005 172.149 65.705C172.149 65.365 172.229 65.05 172.389 64.76C172.549 64.47 172.774 64.225 173.064 64.025C173.364 63.825 173.724 63.67 174.144 63.56C174.574 63.44 175.054 63.38 175.584 63.38C176.244 63.38 176.844 63.49 177.384 63.71C177.934 63.92 178.404 64.15 178.794 64.4L177.804 65.72C177.464 65.52 177.114 65.355 176.754 65.225C176.394 65.085 176.019 65.015 175.629 65.015C175.159 65.015 174.824 65.065 174.624 65.165C174.434 65.265 174.339 65.41 174.339 65.6C174.339 65.71 174.389 65.81 174.489 65.9C174.589 65.99 174.724 66.07 174.894 66.14C175.064 66.21 175.264 66.28 175.494 66.35C175.734 66.41 175.984 66.475 176.244 66.545C176.614 66.645 176.964 66.76 177.294 66.89C177.624 67.01 177.914 67.155 178.164 67.325C178.414 67.495 178.614 67.7 178.764 67.94C178.914 68.18 178.989 68.46 178.989 68.78C178.989 69.12 178.909 69.435 178.749 69.725C178.589 70.015 178.354 70.27 178.044 70.49C177.744 70.7 177.364 70.87 176.904 71C176.454 71.12 175.929 71.18 175.329 71.18C174.659 71.18 174.004 71.07 173.364 70.85C172.724 70.63 172.164 70.36 171.684 70.04L172.674 68.66ZM180.708 67.28C180.708 66.67 180.813 66.125 181.023 65.645C181.243 65.165 181.533 64.76 181.893 64.43C182.253 64.09 182.663 63.83 183.123 63.65C183.593 63.47 184.078 63.38 184.578 63.38C185.148 63.38 185.653 63.47 186.093 63.65C186.533 63.83 186.898 64.08 187.188 64.4C187.478 64.72 187.698 65.1 187.848 65.54C187.998 65.97 188.073 66.44 188.073 66.95C188.073 67.15 188.063 67.34 188.043 67.52C188.023 67.7 188.003 67.835 187.983 67.925H182.973C183.053 68.485 183.293 68.89 183.693 69.14C184.103 69.38 184.583 69.5 185.133 69.5C185.473 69.5 185.793 69.46 186.093 69.38C186.403 69.29 186.723 69.16 187.053 68.99L187.773 70.31C187.353 70.58 186.883 70.795 186.363 70.955C185.843 71.105 185.333 71.18 184.833 71.18C184.253 71.18 183.713 71.095 183.213 70.925C182.713 70.745 182.278 70.49 181.908 70.16C181.538 69.82 181.243 69.41 181.023 68.93C180.813 68.45 180.708 67.9 180.708 67.28ZM186.078 66.47C186.078 66.05 185.963 65.71 185.733 65.45C185.503 65.19 185.133 65.06 184.623 65.06C184.223 65.06 183.868 65.175 183.558 65.405C183.248 65.635 183.043 65.99 182.943 66.47H186.078Z" transform="translate(7.01071 36)" fill="#E69F00"/>
</svg>
