<svg width="364" height="166" viewBox="0 0 364 166" fill="none" xmlns="http://www.w3.org/2000/svg">
<rect x="1" width="363" height="166" fill="black"/>
<path d="M9.62 123.22H16.07V125.08H11.825V127.345H15.44V129.205H11.825V133H9.62V123.22ZM17.9091 130.93C17.9091 130.51 17.9991 130.145 18.1791 129.835C18.3591 129.515 18.6441 129.245 19.0341 129.025C19.4341 128.805 19.9441 128.63 20.5641 128.5C21.1841 128.36 21.9341 128.265 22.8141 128.215C22.7741 127.875 22.6241 127.61 22.3641 127.42C22.1141 127.23 21.7341 127.135 21.2241 127.135C20.8641 127.135 20.4991 127.2 20.1291 127.33C19.7691 127.45 19.3791 127.615 18.9591 127.825L18.1791 126.385C18.6891 126.095 19.2341 125.855 19.8141 125.665C20.4041 125.475 21.0191 125.38 21.6591 125.38C22.6991 125.38 23.5191 125.655 24.1191 126.205C24.7191 126.755 25.0191 127.6 25.0191 128.74V133H23.2191L23.0541 132.16H22.9941C22.6141 132.45 22.1991 132.695 21.7491 132.895C21.2991 133.085 20.8341 133.18 20.3541 133.18C19.9741 133.18 19.6341 133.12 19.3341 133C19.0341 132.89 18.7791 132.735 18.5691 132.535C18.3591 132.325 18.1941 132.085 18.0741 131.815C17.9641 131.545 17.9091 131.25 17.9091 130.93ZM20.0241 130.765C20.0241 131.005 20.1141 131.185 20.2941 131.305C20.4841 131.415 20.7391 131.47 21.0591 131.47C21.3891 131.47 21.6991 131.405 21.9891 131.275C22.2791 131.135 22.5541 130.965 22.8141 130.765V129.535C22.2641 129.565 21.8091 129.615 21.4491 129.685C21.0891 129.755 20.8041 129.845 20.5941 129.955C20.3841 130.055 20.2341 130.175 20.1441 130.315C20.0641 130.455 20.0241 130.605 20.0241 130.765ZM26.9183 122.485H31.2833V130.18C31.2833 130.41 31.3133 130.605 31.3733 130.765C31.4433 130.915 31.5333 131.04 31.6433 131.14C31.7633 131.23 31.8933 131.295 32.0333 131.335C32.1833 131.375 32.3333 131.395 32.4833 131.395C32.6533 131.395 32.8333 131.38 33.0233 131.35C33.2133 131.31 33.4233 131.245 33.6533 131.155L34.1483 132.775C33.9483 132.835 33.7633 132.89 33.5933 132.94C33.4233 132.99 33.2533 133.03 33.0833 133.06C32.9133 133.1 32.7333 133.13 32.5433 133.15C32.3533 133.17 32.1433 133.18 31.9133 133.18C30.9733 133.18 30.2633 132.905 29.7833 132.355C29.3133 131.795 29.0783 131.04 29.0783 130.09V124.225H26.9183V122.485ZM36.7674 130.66C37.1974 130.93 37.6274 131.145 38.0574 131.305C38.4974 131.465 38.9674 131.545 39.4674 131.545C39.9774 131.545 40.3424 131.49 40.5624 131.38C40.7824 131.27 40.8924 131.115 40.8924 130.915C40.8924 130.685 40.7074 130.5 40.3374 130.36C39.9774 130.21 39.4974 130.05 38.8974 129.88C38.5674 129.79 38.2424 129.685 37.9224 129.565C37.6124 129.435 37.3324 129.285 37.0824 129.115C36.8324 128.935 36.6274 128.73 36.4674 128.5C36.3174 128.27 36.2424 128.005 36.2424 127.705C36.2424 127.365 36.3224 127.05 36.4824 126.76C36.6424 126.47 36.8674 126.225 37.1574 126.025C37.4574 125.825 37.8174 125.67 38.2374 125.56C38.6674 125.44 39.1474 125.38 39.6774 125.38C40.3374 125.38 40.9374 125.49 41.4774 125.71C42.0274 125.92 42.4974 126.15 42.8874 126.4L41.8974 127.72C41.5574 127.52 41.2074 127.355 40.8474 127.225C40.4874 127.085 40.1124 127.015 39.7224 127.015C39.2524 127.015 38.9174 127.065 38.7174 127.165C38.5274 127.265 38.4324 127.41 38.4324 127.6C38.4324 127.71 38.4824 127.81 38.5824 127.9C38.6824 127.99 38.8174 128.07 38.9874 128.14C39.1574 128.21 39.3574 128.28 39.5874 128.35C39.8274 128.41 40.0774 128.475 40.3374 128.545C40.7074 128.645 41.0574 128.76 41.3874 128.89C41.7174 129.01 42.0074 129.155 42.2574 129.325C42.5074 129.495 42.7074 129.7 42.8574 129.94C43.0074 130.18 43.0824 130.46 43.0824 130.78C43.0824 131.12 43.0024 131.435 42.8424 131.725C42.6824 132.015 42.4474 132.27 42.1374 132.49C41.8374 132.7 41.4574 132.87 40.9974 133C40.5474 133.12 40.0224 133.18 39.4224 133.18C38.7524 133.18 38.0974 133.07 37.4574 132.85C36.8174 132.63 36.2574 132.36 35.7774 132.04L36.7674 130.66ZM44.8016 129.28C44.8016 128.67 44.9066 128.125 45.1166 127.645C45.3366 127.165 45.6266 126.76 45.9866 126.43C46.3466 126.09 46.7566 125.83 47.2166 125.65C47.6866 125.47 48.1716 125.38 48.6716 125.38C49.2416 125.38 49.7466 125.47 50.1866 125.65C50.6266 125.83 50.9916 126.08 51.2816 126.4C51.5716 126.72 51.7916 127.1 51.9416 127.54C52.0916 127.97 52.1666 128.44 52.1666 128.95C52.1666 129.15 52.1566 129.34 52.1366 129.52C52.1166 129.7 52.0966 129.835 52.0766 129.925H47.0666C47.1466 130.485 47.3866 130.89 47.7866 131.14C48.1966 131.38 48.6766 131.5 49.2266 131.5C49.5666 131.5 49.8866 131.46 50.1866 131.38C50.4966 131.29 50.8166 131.16 51.1466 130.99L51.8666 132.31C51.4466 132.58 50.9766 132.795 50.4566 132.955C49.9366 133.105 49.4266 133.18 48.9266 133.18C48.3466 133.18 47.8066 133.095 47.3066 132.925C46.8066 132.745 46.3716 132.49 46.0016 132.16C45.6316 131.82 45.3366 131.41 45.1166 130.93C44.9066 130.45 44.8016 129.9 44.8016 129.28ZM50.1716 128.47C50.1716 128.05 50.0566 127.71 49.8266 127.45C49.5966 127.19 49.2266 127.06 48.7166 127.06C48.3166 127.06 47.9616 127.175 47.6516 127.405C47.3416 127.635 47.1366 127.99 47.0366 128.47H50.1716ZM11.39 144.08H8.465V142.22H16.535V144.08H13.61V152H11.39V144.08ZM18.7341 144.56H20.5341L20.7141 146.18H20.7591C21.1291 145.57 21.5741 145.12 22.0941 144.83C22.6141 144.53 23.1741 144.38 23.7741 144.38C24.1041 144.38 24.3691 144.405 24.5691 144.455C24.7791 144.505 24.9941 144.58 25.2141 144.68L24.7641 146.525C24.5341 146.455 24.3241 146.405 24.1341 146.375C23.9541 146.335 23.7241 146.315 23.4441 146.315C22.9841 146.315 22.5291 146.45 22.0791 146.72C21.6391 146.99 21.2591 147.46 20.9391 148.13V152H18.7341V144.56ZM33.8633 152H32.0633L31.8983 150.935H31.8383C31.5083 151.315 31.1433 151.62 30.7433 151.85C30.3433 152.07 29.8733 152.18 29.3333 152.18C28.4833 152.18 27.8683 151.91 27.4883 151.37C27.1083 150.83 26.9183 150.09 26.9183 149.15V144.56H29.1233V148.865C29.1233 149.365 29.1983 149.73 29.3483 149.96C29.4983 150.19 29.7833 150.305 30.2033 150.305C30.4833 150.305 30.7283 150.245 30.9383 150.125C31.1583 150.005 31.3983 149.78 31.6583 149.45V144.56H33.8633V152ZM35.8074 148.28C35.8074 147.67 35.9124 147.125 36.1224 146.645C36.3424 146.165 36.6324 145.76 36.9924 145.43C37.3524 145.09 37.7624 144.83 38.2224 144.65C38.6924 144.47 39.1774 144.38 39.6774 144.38C40.2474 144.38 40.7524 144.47 41.1924 144.65C41.6324 144.83 41.9974 145.08 42.2874 145.4C42.5774 145.72 42.7974 146.1 42.9474 146.54C43.0974 146.97 43.1724 147.44 43.1724 147.95C43.1724 148.15 43.1624 148.34 43.1424 148.52C43.1224 148.7 43.1024 148.835 43.0824 148.925H38.0724C38.1524 149.485 38.3924 149.89 38.7924 150.14C39.2024 150.38 39.6824 150.5 40.2324 150.5C40.5724 150.5 40.8924 150.46 41.1924 150.38C41.5024 150.29 41.8224 150.16 42.1524 149.99L42.8724 151.31C42.4524 151.58 41.9824 151.795 41.4624 151.955C40.9424 152.105 40.4324 152.18 39.9324 152.18C39.3524 152.18 38.8124 152.095 38.3124 151.925C37.8124 151.745 37.3774 151.49 37.0074 151.16C36.6374 150.82 36.3424 150.41 36.1224 149.93C35.9124 149.45 35.8074 148.9 35.8074 148.28ZM41.1774 147.47C41.1774 147.05 41.0624 146.71 40.8324 146.45C40.6024 146.19 40.2324 146.06 39.7224 146.06C39.3224 146.06 38.9674 146.175 38.6574 146.405C38.3474 146.635 38.1424 146.99 38.0424 147.47H41.1774Z" fill="white"/>
<path d="M12.5 109.18C11.92 109.18 11.385 109.065 10.895 108.835C10.415 108.595 10 108.255 9.65 107.815C9.31 107.375 9.045 106.84 8.855 106.21C8.665 105.58 8.57 104.865 8.57 104.065C8.57 103.265 8.665 102.555 8.855 101.935C9.045 101.305 9.31 100.78 9.65 100.36C10 99.93 10.415 99.605 10.895 99.385C11.385 99.155 11.92 99.04 12.5 99.04C13.08 99.04 13.61 99.155 14.09 99.385C14.58 99.605 14.995 99.93 15.335 100.36C15.685 100.79 15.955 101.32 16.145 101.95C16.335 102.57 16.43 103.275 16.43 104.065C16.43 104.865 16.335 105.58 16.145 106.21C15.955 106.84 15.685 107.375 15.335 107.815C14.995 108.255 14.58 108.595 14.09 108.835C13.61 109.065 13.08 109.18 12.5 109.18ZM12.5 107.275C13.01 107.275 13.415 106.99 13.715 106.42C14.015 105.84 14.165 105.055 14.165 104.065C14.165 103.085 14.015 102.32 13.715 101.77C13.415 101.22 13.01 100.945 12.5 100.945C11.99 100.945 11.585 101.22 11.285 101.77C10.985 102.32 10.835 103.085 10.835 104.065C10.835 105.055 10.985 105.84 11.285 106.42C11.585 106.99 11.99 107.275 12.5 107.275ZM24.8691 109H23.0691L22.9041 107.935H22.8441C22.5141 108.315 22.1491 108.62 21.7491 108.85C21.3491 109.07 20.8791 109.18 20.3391 109.18C19.4891 109.18 18.8741 108.91 18.4941 108.37C18.1141 107.83 17.9241 107.09 17.9241 106.15V101.56H20.1291V105.865C20.1291 106.365 20.2041 106.73 20.3541 106.96C20.5041 107.19 20.7891 107.305 21.2091 107.305C21.4891 107.305 21.7341 107.245 21.9441 107.125C22.1641 107.005 22.4041 106.78 22.6641 106.45V101.56H24.8691V109ZM28.5983 103.285H26.7233V101.65L28.7033 101.56L28.9883 99.58H30.8033V101.56H33.9533V103.285H30.8033V105.895C30.8033 106.465 30.9283 106.87 31.1783 107.11C31.4283 107.34 31.8233 107.455 32.3633 107.455C32.6533 107.455 32.9183 107.43 33.1583 107.38C33.3983 107.33 33.6283 107.265 33.8483 107.185L34.2383 108.775C33.9083 108.875 33.5383 108.965 33.1283 109.045C32.7283 109.135 32.2883 109.18 31.8083 109.18C31.2183 109.18 30.7183 109.1 30.3083 108.94C29.8983 108.78 29.5633 108.56 29.3033 108.28C29.0533 107.99 28.8733 107.645 28.7633 107.245C28.6533 106.845 28.5983 106.4 28.5983 105.91V103.285ZM38.2674 109.585V111.76H36.0624V101.56H37.8624L38.0274 102.31H38.0724C38.3724 102.04 38.7174 101.82 39.1074 101.65C39.4974 101.47 39.8924 101.38 40.2924 101.38C40.7524 101.38 41.1674 101.47 41.5374 101.65C41.9074 101.83 42.2224 102.085 42.4824 102.415C42.7424 102.745 42.9374 103.145 43.0674 103.615C43.2074 104.075 43.2774 104.59 43.2774 105.16C43.2774 105.8 43.1874 106.37 43.0074 106.87C42.8274 107.36 42.5874 107.78 42.2874 108.13C41.9874 108.47 41.6424 108.73 41.2524 108.91C40.8724 109.09 40.4724 109.18 40.0524 109.18C39.3724 109.18 38.7524 108.91 38.1924 108.37L38.2674 109.585ZM38.2674 106.885C38.4774 107.065 38.6924 107.195 38.9124 107.275C39.1424 107.345 39.3524 107.38 39.5424 107.38C39.9624 107.38 40.3124 107.21 40.5924 106.87C40.8724 106.52 41.0124 105.96 41.0124 105.19C41.0124 103.85 40.5574 103.18 39.6474 103.18C39.1774 103.18 38.7174 103.41 38.2674 103.87V106.885ZM51.8516 109H50.0516L49.8866 107.935H49.8266C49.4966 108.315 49.1316 108.62 48.7316 108.85C48.3316 109.07 47.8616 109.18 47.3216 109.18C46.4716 109.18 45.8566 108.91 45.4766 108.37C45.0966 107.83 44.9066 107.09 44.9066 106.15V101.56H47.1116V105.865C47.1116 106.365 47.1866 106.73 47.3366 106.96C47.4866 107.19 47.7716 107.305 48.1916 107.305C48.4716 107.305 48.7166 107.245 48.9266 107.125C49.1466 107.005 49.3866 106.78 49.6466 106.45V101.56H51.8516V109ZM55.5807 103.285H53.7057V101.65L55.6857 101.56L55.9707 99.58H57.7857V101.56H60.9357V103.285H57.7857V105.895C57.7857 106.465 57.9107 106.87 58.1607 107.11C58.4107 107.34 58.8057 107.455 59.3457 107.455C59.6357 107.455 59.9007 107.43 60.1407 107.38C60.3807 107.33 60.6107 107.265 60.8307 107.185L61.2207 108.775C60.8907 108.875 60.5207 108.965 60.1107 109.045C59.7107 109.135 59.2707 109.18 58.7907 109.18C58.2007 109.18 57.7007 109.1 57.2907 108.94C56.8807 108.78 56.5457 108.56 56.2857 108.28C56.0357 107.99 55.8557 107.645 55.7457 107.245C55.6357 106.845 55.5807 106.4 55.5807 105.91V103.285Z" fill="white"/>
<rect x="80" width="284" height="31" fill="#333333"/>
<rect x="80" width="284" height="31" fill="#333333"/>
<rect x="1.01071" width="79" height="31" fill="#090808"/>
<path d="M13.1157 17.8101C13.1157 17.5513 12.9863 17.3486 12.7275 17.2021C12.4736 17.0508 12.0634 16.9165 11.497 16.7993C9.61227 16.4038 8.66989 15.603 8.66989 14.397C8.66989 13.6938 8.96042 13.1079 9.54147 12.6392C10.1274 12.1655 10.8916 11.9287 11.834 11.9287C12.8398 11.9287 13.643 12.1655 14.2436 12.6392C14.8491 13.1128 15.1518 13.728 15.1518 14.4849H13.0351C13.0351 14.1821 12.9375 13.9331 12.7422 13.7378C12.5468 13.5376 12.2417 13.4375 11.8266 13.4375C11.4702 13.4375 11.1943 13.5181 10.999 13.6792C10.8037 13.8403 10.706 14.0454 10.706 14.2944C10.706 14.5288 10.8159 14.7192 11.0356 14.8657C11.2602 15.0073 11.6362 15.1318 12.1635 15.2393C12.6909 15.3418 13.1352 15.459 13.4966 15.5908C14.6147 16.001 15.1738 16.7114 15.1738 17.7222C15.1738 18.4448 14.8637 19.0308 14.2436 19.48C13.6235 19.9243 12.8227 20.1465 11.8413 20.1465C11.1772 20.1465 10.5864 20.0293 10.0688 19.7949C9.55612 19.5557 9.15329 19.231 8.86032 18.8208C8.56735 18.4058 8.42087 17.959 8.42087 17.4805H10.4277C10.4472 17.8564 10.5864 18.1445 10.8452 18.3447C11.104 18.5449 11.4507 18.645 11.8852 18.645C12.2905 18.645 12.5957 18.5693 12.8008 18.418C13.0107 18.2617 13.1157 18.0591 13.1157 17.8101ZM19.8393 18.4399C20.2299 18.4399 20.5473 18.3325 20.7915 18.1177C21.0356 17.9028 21.1626 17.6172 21.1723 17.2607H23.1572C23.1523 17.7979 23.0058 18.291 22.7177 18.7402C22.4297 19.1846 22.0341 19.5312 21.5312 19.7803C21.0332 20.0244 20.4814 20.1465 19.8759 20.1465C18.7431 20.1465 17.8496 19.7876 17.1953 19.0698C16.541 18.3472 16.2138 17.3511 16.2138 16.0815V15.9424C16.2138 14.7217 16.5385 13.7476 17.188 13.02C17.8374 12.2925 18.7285 11.9287 19.8613 11.9287C20.8525 11.9287 21.646 12.2119 22.2417 12.7783C22.8423 13.3398 23.1474 14.0894 23.1572 15.0269H21.1723C21.1626 14.6167 21.0356 14.2847 20.7915 14.0308C20.5473 13.772 20.2251 13.6426 19.8247 13.6426C19.3315 13.6426 18.958 13.8232 18.7041 14.1846C18.455 14.541 18.3305 15.1221 18.3305 15.9277V16.1475C18.3305 16.9629 18.455 17.5488 18.7041 17.9053C18.9531 18.2617 19.3315 18.4399 19.8393 18.4399ZM28.8188 14.0601C28.5307 14.021 28.2768 14.0015 28.0571 14.0015C27.2563 14.0015 26.7314 14.2725 26.4824 14.8145V20H24.3657V12.0752H26.3652L26.4238 13.02C26.8486 12.2925 27.437 11.9287 28.1889 11.9287C28.4233 11.9287 28.643 11.9604 28.8481 12.0239L28.8188 14.0601ZM32.0781 20H29.9541V12.0752H32.0781V20ZM29.8296 10.0244C29.8296 9.70703 29.9345 9.4458 30.1445 9.24072C30.3593 9.03564 30.6499 8.93311 31.0161 8.93311C31.3774 8.93311 31.6655 9.03564 31.8803 9.24072C32.0952 9.4458 32.2026 9.70703 32.2026 10.0244C32.2026 10.3467 32.0927 10.6104 31.873 10.8154C31.6582 11.0205 31.3725 11.123 31.0161 11.123C30.6596 11.123 30.3716 11.0205 30.1518 10.8154C29.937 10.6104 29.8296 10.3467 29.8296 10.0244ZM40.9624 16.1108C40.9624 17.3315 40.6841 18.3105 40.1274 19.0479C39.5757 19.7803 38.8286 20.1465 37.8862 20.1465C37.0854 20.1465 36.4384 19.8682 35.9453 19.3115V23.0469H33.8286V12.0752H35.7915L35.8647 12.8516C36.3774 12.2363 37.0464 11.9287 37.8716 11.9287C38.8481 11.9287 39.6074 12.29 40.1494 13.0127C40.6914 13.7354 40.9624 14.7314 40.9624 16.001V16.1108ZM38.8457 15.957C38.8457 15.2197 38.7138 14.6509 38.4502 14.2505C38.1914 13.8501 37.813 13.6499 37.3149 13.6499C36.6508 13.6499 36.1943 13.9038 35.9453 14.4116V17.6562C36.2041 18.1787 36.6655 18.4399 37.3296 18.4399C38.3403 18.4399 38.8457 17.6123 38.8457 15.957ZM44.8149 10.127V12.0752H46.1699V13.6279H44.8149V17.583C44.8149 17.876 44.8711 18.0859 44.9834 18.2129C45.0957 18.3398 45.3105 18.4033 45.6279 18.4033C45.8623 18.4033 46.0698 18.3862 46.2505 18.3521V19.9561C45.8354 20.083 45.4082 20.1465 44.9687 20.1465C43.4843 20.1465 42.7275 19.397 42.6982 17.8979V13.6279H41.541V12.0752H42.6982V10.127H44.8149ZM47.459 18.96C47.459 18.623 47.5713 18.3496 47.7959 18.1396C48.0254 17.9297 48.311 17.8247 48.6528 17.8247C48.9995 17.8247 49.2851 17.9297 49.5097 18.1396C49.7392 18.3496 49.854 18.623 49.854 18.96C49.854 19.292 49.7417 19.563 49.5171 19.7729C49.2924 19.978 49.0044 20.0806 48.6528 20.0806C48.3061 20.0806 48.0205 19.978 47.7959 19.7729C47.5713 19.563 47.459 19.292 47.459 18.96ZM58.8481 16.1108C58.8481 17.3315 58.5698 18.3105 58.0132 19.0479C57.4614 19.7803 56.7143 20.1465 55.7719 20.1465C54.9712 20.1465 54.3242 19.8682 53.831 19.3115V23.0469H51.7143V12.0752H53.6772L53.7505 12.8516C54.2632 12.2363 54.9321 11.9287 55.7573 11.9287C56.7339 11.9287 57.4931 12.29 58.0351 13.0127C58.5771 13.7354 58.8481 14.7314 58.8481 16.001V16.1108ZM56.7314 15.957C56.7314 15.2197 56.5996 14.6509 56.3359 14.2505C56.0771 13.8501 55.6987 13.6499 55.2007 13.6499C54.5366 13.6499 54.08 13.9038 53.831 14.4116V17.6562C54.0898 18.1787 54.5512 18.4399 55.2153 18.4399C56.226 18.4399 56.7314 17.6123 56.7314 15.957ZM63.0376 17.0044L64.5024 12.0752H66.7729L63.5869 21.2305L63.4111 21.6479C62.9375 22.6831 62.1562 23.2007 61.0674 23.2007C60.7597 23.2007 60.4472 23.1543 60.1299 23.0615V21.4575L60.4521 21.4648C60.8525 21.4648 61.1504 21.4038 61.3457 21.2817C61.5459 21.1597 61.7021 20.957 61.8144 20.6738L62.0634 20.022L59.2876 12.0752H61.5654L63.0376 17.0044Z" fill="white"/>
<line x1="0.99411" y1="87.25" x2="364" y2="87.25" stroke="white"/>
<path d="M11.2957 51.585V53.76H9.09071V43.56H10.8907L11.0557 44.31H11.1007C11.4007 44.04 11.7457 43.82 12.1357 43.65C12.5257 43.47 12.9207 43.38 13.3207 43.38C13.7807 43.38 14.1957 43.47 14.5657 43.65C14.9357 43.83 15.2507 44.085 15.5107 44.415C15.7707 44.745 15.9657 45.145 16.0957 45.615C16.2357 46.075 16.3057 46.59 16.3057 47.16C16.3057 47.8 16.2157 48.37 16.0357 48.87C15.8557 49.36 15.6157 49.78 15.3157 50.13C15.0157 50.47 14.6707 50.73 14.2807 50.91C13.9007 51.09 13.5007 51.18 13.0807 51.18C12.4007 51.18 11.7807 50.91 11.2207 50.37L11.2957 51.585ZM11.2957 48.885C11.5057 49.065 11.7207 49.195 11.9407 49.275C12.1707 49.345 12.3807 49.38 12.5707 49.38C12.9907 49.38 13.3407 49.21 13.6207 48.87C13.9007 48.52 14.0407 47.96 14.0407 47.19C14.0407 45.85 13.5857 45.18 12.6757 45.18C12.2057 45.18 11.7457 45.41 11.2957 45.87V48.885ZM18.7449 43.56H20.5449L20.7249 45.18H20.7699C21.1399 44.57 21.5849 44.12 22.1049 43.83C22.6249 43.53 23.1849 43.38 23.7849 43.38C24.1149 43.38 24.3799 43.405 24.5799 43.455C24.7899 43.505 25.0049 43.58 25.2249 43.68L24.7749 45.525C24.5449 45.455 24.3349 45.405 24.1449 45.375C23.9649 45.335 23.7349 45.315 23.4549 45.315C22.9949 45.315 22.5399 45.45 22.0899 45.72C21.6499 45.99 21.2699 46.46 20.9499 47.13V51H18.7449V43.56ZM27.184 43.56H32.374V51H30.169V45.285H27.184V43.56ZM31.174 42.465C30.744 42.465 30.389 42.345 30.109 42.105C29.839 41.865 29.704 41.54 29.704 41.13C29.704 40.72 29.839 40.39 30.109 40.14C30.389 39.88 30.744 39.75 31.174 39.75C31.604 39.75 31.954 39.88 32.224 40.14C32.504 40.39 32.644 40.72 32.644 41.13C32.644 41.54 32.504 41.865 32.224 42.105C31.954 42.345 31.604 42.465 31.174 42.465ZM36.0731 43.56H37.8731L38.0381 44.55H38.0981C38.4181 44.23 38.7831 43.955 39.1931 43.725C39.6131 43.495 40.1031 43.38 40.6631 43.38C41.5031 43.38 42.1181 43.65 42.5081 44.19C42.8981 44.73 43.0931 45.47 43.0931 46.41V51H40.8881V46.695C40.8881 46.195 40.8081 45.83 40.6481 45.6C40.4881 45.37 40.2031 45.255 39.7931 45.255C39.4931 45.255 39.2281 45.32 38.9981 45.45C38.7781 45.58 38.5381 45.775 38.2781 46.035V51H36.0731V43.56ZM46.5973 45.285H44.7223V43.65L46.7023 43.56L46.9873 41.58H48.8023V43.56H51.9523V45.285H48.8023V47.895C48.8023 48.465 48.9273 48.87 49.1773 49.11C49.4273 49.34 49.8223 49.455 50.3623 49.455C50.6523 49.455 50.9173 49.43 51.1573 49.38C51.3973 49.33 51.6273 49.265 51.8473 49.185L52.2373 50.775C51.9073 50.875 51.5373 50.965 51.1273 51.045C50.7273 51.135 50.2873 51.18 49.8073 51.18C49.2173 51.18 48.7173 51.1 48.3073 50.94C47.8973 50.78 47.5623 50.56 47.3023 50.28C47.0523 49.99 46.8723 49.645 46.7623 49.245C46.6523 48.845 46.5973 48.4 46.5973 47.91V45.285ZM11.2957 70.585V72.76H9.09071V62.56H10.8907L11.0557 63.31H11.1007C11.4007 63.04 11.7457 62.82 12.1357 62.65C12.5257 62.47 12.9207 62.38 13.3207 62.38C13.7807 62.38 14.1957 62.47 14.5657 62.65C14.9357 62.83 15.2507 63.085 15.5107 63.415C15.7707 63.745 15.9657 64.145 16.0957 64.615C16.2357 65.075 16.3057 65.59 16.3057 66.16C16.3057 66.8 16.2157 67.37 16.0357 67.87C15.8557 68.36 15.6157 68.78 15.3157 69.13C15.0157 69.47 14.6707 69.73 14.2807 69.91C13.9007 70.09 13.5007 70.18 13.0807 70.18C12.4007 70.18 11.7807 69.91 11.2207 69.37L11.2957 70.585ZM11.2957 67.885C11.5057 68.065 11.7207 68.195 11.9407 68.275C12.1707 68.345 12.3807 68.38 12.5707 68.38C12.9907 68.38 13.3407 68.21 13.6207 67.87C13.9007 67.52 14.0407 66.96 14.0407 66.19C14.0407 64.85 13.5857 64.18 12.6757 64.18C12.2057 64.18 11.7457 64.41 11.2957 64.87V67.885ZM18.7449 62.56H20.5449L20.7249 64.18H20.7699C21.1399 63.57 21.5849 63.12 22.1049 62.83C22.6249 62.53 23.1849 62.38 23.7849 62.38C24.1149 62.38 24.3799 62.405 24.5799 62.455C24.7899 62.505 25.0049 62.58 25.2249 62.68L24.7749 64.525C24.5449 64.455 24.3349 64.405 24.1449 64.375C23.9649 64.335 23.7349 64.315 23.4549 64.315C22.9949 64.315 22.5399 64.45 22.0899 64.72C21.6499 64.99 21.2699 65.46 20.9499 66.13V70H18.7449V62.56ZM27.184 62.56H32.374V70H30.169V64.285H27.184V62.56ZM31.174 61.465C30.744 61.465 30.389 61.345 30.109 61.105C29.839 60.865 29.704 60.54 29.704 60.13C29.704 59.72 29.839 59.39 30.109 59.14C30.389 58.88 30.744 58.75 31.174 58.75C31.604 58.75 31.954 58.88 32.224 59.14C32.504 59.39 32.644 59.72 32.644 60.13C32.644 60.54 32.504 60.865 32.224 61.105C31.954 61.345 31.604 61.465 31.174 61.465ZM36.0731 62.56H37.8731L38.0381 63.55H38.0981C38.4181 63.23 38.7831 62.955 39.1931 62.725C39.6131 62.495 40.1031 62.38 40.6631 62.38C41.5031 62.38 42.1181 62.65 42.5081 63.19C42.8981 63.73 43.0931 64.47 43.0931 65.41V70H40.8881V65.695C40.8881 65.195 40.8081 64.83 40.6481 64.6C40.4881 64.37 40.2031 64.255 39.7931 64.255C39.4931 64.255 39.2281 64.32 38.9981 64.45C38.7781 64.58 38.5381 64.775 38.2781 65.035V70H36.0731V62.56ZM46.5973 64.285H44.7223V62.65L46.7023 62.56L46.9873 60.58H48.8023V62.56H51.9523V64.285H48.8023V66.895C48.8023 67.465 48.9273 67.87 49.1773 68.11C49.4273 68.34 49.8223 68.455 50.3623 68.455C50.6523 68.455 50.9173 68.43 51.1573 68.38C51.3973 68.33 51.6273 68.265 51.8473 68.185L52.2373 69.775C51.9073 69.875 51.5373 69.965 51.1273 70.045C50.7273 70.135 50.2873 70.18 49.8073 70.18C49.2173 70.18 48.7173 70.1 48.3073 69.94C47.8973 69.78 47.5623 69.56 47.3023 69.28C47.0523 68.99 46.8723 68.645 46.7623 68.245C46.6523 67.845 46.5973 67.4 46.5973 66.91V64.285Z" fill="#56B4E9"/>
<path d="M58.8614 53.685C57.8814 52.815 57.1064 51.81 56.5364 50.67C55.9764 49.53 55.6964 48.25 55.6964 46.83C55.6964 45.41 55.9764 44.13 56.5364 42.99C57.1064 41.85 57.8814 40.845 58.8614 39.975L60.0914 40.95C59.2014 41.82 58.5514 42.725 58.1414 43.665C57.7414 44.595 57.5414 45.65 57.5414 46.83C57.5414 47.42 57.5914 47.98 57.6914 48.51C57.7914 49.03 57.9414 49.53 58.1414 50.01C58.3514 50.49 58.6164 50.95 58.9364 51.39C59.2564 51.84 59.6414 52.28 60.0914 52.71L58.8614 53.685ZM270.731 52.71C271.181 52.28 271.566 51.84 271.886 51.39C272.206 50.95 272.466 50.49 272.666 50.01C272.876 49.53 273.031 49.03 273.131 48.51C273.231 47.98 273.281 47.42 273.281 46.83C273.281 45.65 273.076 44.595 272.666 43.665C272.266 42.725 271.621 41.82 270.731 40.95L271.961 39.975C272.941 40.845 273.711 41.85 274.271 42.99C274.841 44.13 275.126 45.41 275.126 46.83C275.126 48.25 274.841 49.53 274.271 50.67C273.711 51.81 272.941 52.815 271.961 53.685L270.731 52.71ZM58.8614 72.685C57.8814 71.815 57.1064 70.81 56.5364 69.67C55.9764 68.53 55.6964 67.25 55.6964 65.83C55.6964 64.41 55.9764 63.13 56.5364 61.99C57.1064 60.85 57.8814 59.845 58.8614 58.975L60.0914 59.95C59.2014 60.82 58.5514 61.725 58.1414 62.665C57.7414 63.595 57.5414 64.65 57.5414 65.83C57.5414 66.42 57.5914 66.98 57.6914 67.51C57.7914 68.03 57.9414 68.53 58.1414 69.01C58.3514 69.49 58.6164 69.95 58.9364 70.39C59.2564 70.84 59.6414 71.28 60.0914 71.71L58.8614 72.685ZM342.684 71.71C343.134 71.28 343.519 70.84 343.839 70.39C344.159 69.95 344.419 69.49 344.619 69.01C344.829 68.53 344.984 68.03 345.084 67.51C345.184 66.98 345.234 66.42 345.234 65.83C345.234 64.65 345.029 63.595 344.619 62.665C344.219 61.725 343.574 60.82 342.684 59.95L343.914 58.975C344.894 59.845 345.664 60.85 346.224 61.99C346.794 63.13 347.079 64.41 347.079 65.83C347.079 67.25 346.794 68.53 346.224 69.67C345.664 70.81 344.894 71.815 343.914 72.685L342.684 71.71Z" fill="white"/>
<path d="M63.5956 41.22H70.0456V43.08H65.8006V45.345H69.4156V47.205H65.8006V51H63.5956V41.22ZM71.8847 48.93C71.8847 48.51 71.9747 48.145 72.1547 47.835C72.3347 47.515 72.6197 47.245 73.0097 47.025C73.4097 46.805 73.9197 46.63 74.5397 46.5C75.1597 46.36 75.9097 46.265 76.7897 46.215C76.7497 45.875 76.5997 45.61 76.3397 45.42C76.0897 45.23 75.7097 45.135 75.1997 45.135C74.8397 45.135 74.4747 45.2 74.1047 45.33C73.7447 45.45 73.3547 45.615 72.9347 45.825L72.1547 44.385C72.6647 44.095 73.2097 43.855 73.7897 43.665C74.3797 43.475 74.9947 43.38 75.6347 43.38C76.6747 43.38 77.4947 43.655 78.0947 44.205C78.6947 44.755 78.9947 45.6 78.9947 46.74V51H77.1947L77.0297 50.16H76.9697C76.5897 50.45 76.1747 50.695 75.7247 50.895C75.2747 51.085 74.8097 51.18 74.3297 51.18C73.9497 51.18 73.6097 51.12 73.3097 51C73.0097 50.89 72.7547 50.735 72.5447 50.535C72.3347 50.325 72.1697 50.085 72.0497 49.815C71.9397 49.545 71.8847 49.25 71.8847 48.93ZM73.9997 48.765C73.9997 49.005 74.0897 49.185 74.2697 49.305C74.4597 49.415 74.7147 49.47 75.0347 49.47C75.3647 49.47 75.6747 49.405 75.9647 49.275C76.2547 49.135 76.5297 48.965 76.7897 48.765V47.535C76.2397 47.565 75.7847 47.615 75.4247 47.685C75.0647 47.755 74.7797 47.845 74.5697 47.955C74.3597 48.055 74.2097 48.175 74.1197 48.315C74.0397 48.455 73.9997 48.605 73.9997 48.765ZM80.8938 40.485H85.2588V48.18C85.2588 48.41 85.2888 48.605 85.3488 48.765C85.4188 48.915 85.5088 49.04 85.6188 49.14C85.7388 49.23 85.8688 49.295 86.0088 49.335C86.1588 49.375 86.3088 49.395 86.4588 49.395C86.6288 49.395 86.8088 49.38 86.9988 49.35C87.1888 49.31 87.3988 49.245 87.6288 49.155L88.1238 50.775C87.9238 50.835 87.7388 50.89 87.5688 50.94C87.3988 50.99 87.2288 51.03 87.0588 51.06C86.8888 51.1 86.7088 51.13 86.5188 51.15C86.3288 51.17 86.1188 51.18 85.8888 51.18C84.9488 51.18 84.2388 50.905 83.7588 50.355C83.2888 49.795 83.0538 49.04 83.0538 48.09V42.225H80.8938V40.485ZM90.743 48.66C91.173 48.93 91.603 49.145 92.033 49.305C92.473 49.465 92.943 49.545 93.443 49.545C93.953 49.545 94.318 49.49 94.538 49.38C94.758 49.27 94.868 49.115 94.868 48.915C94.868 48.685 94.683 48.5 94.313 48.36C93.953 48.21 93.473 48.05 92.873 47.88C92.543 47.79 92.218 47.685 91.898 47.565C91.588 47.435 91.308 47.285 91.058 47.115C90.808 46.935 90.603 46.73 90.443 46.5C90.293 46.27 90.218 46.005 90.218 45.705C90.218 45.365 90.298 45.05 90.458 44.76C90.618 44.47 90.843 44.225 91.133 44.025C91.433 43.825 91.793 43.67 92.213 43.56C92.643 43.44 93.123 43.38 93.653 43.38C94.313 43.38 94.913 43.49 95.453 43.71C96.003 43.92 96.473 44.15 96.863 44.4L95.873 45.72C95.533 45.52 95.183 45.355 94.823 45.225C94.463 45.085 94.088 45.015 93.698 45.015C93.228 45.015 92.893 45.065 92.693 45.165C92.503 45.265 92.408 45.41 92.408 45.6C92.408 45.71 92.458 45.81 92.558 45.9C92.658 45.99 92.793 46.07 92.963 46.14C93.133 46.21 93.333 46.28 93.563 46.35C93.803 46.41 94.053 46.475 94.313 46.545C94.683 46.645 95.033 46.76 95.363 46.89C95.693 47.01 95.983 47.155 96.233 47.325C96.483 47.495 96.683 47.7 96.833 47.94C96.983 48.18 97.058 48.46 97.058 48.78C97.058 49.12 96.978 49.435 96.818 49.725C96.658 50.015 96.423 50.27 96.113 50.49C95.813 50.7 95.433 50.87 94.973 51C94.523 51.12 93.998 51.18 93.398 51.18C92.728 51.18 92.073 51.07 91.433 50.85C90.793 50.63 90.233 50.36 89.753 50.04L90.743 48.66ZM98.7771 47.28C98.7771 46.67 98.8821 46.125 99.0921 45.645C99.3121 45.165 99.6021 44.76 99.9621 44.43C100.322 44.09 100.732 43.83 101.192 43.65C101.662 43.47 102.147 43.38 102.647 43.38C103.217 43.38 103.722 43.47 104.162 43.65C104.602 43.83 104.967 44.08 105.257 44.4C105.547 44.72 105.767 45.1 105.917 45.54C106.067 45.97 106.142 46.44 106.142 46.95C106.142 47.15 106.132 47.34 106.112 47.52C106.092 47.7 106.072 47.835 106.052 47.925H101.042C101.122 48.485 101.362 48.89 101.762 49.14C102.172 49.38 102.652 49.5 103.202 49.5C103.542 49.5 103.862 49.46 104.162 49.38C104.472 49.29 104.792 49.16 105.122 48.99L105.842 50.31C105.422 50.58 104.952 50.795 104.432 50.955C103.912 51.105 103.402 51.18 102.902 51.18C102.322 51.18 101.782 51.095 101.282 50.925C100.782 50.745 100.347 50.49 99.9771 50.16C99.6071 49.82 99.3121 49.41 99.0921 48.93C98.8821 48.45 98.7771 47.9 98.7771 47.28ZM104.147 46.47C104.147 46.05 104.032 45.71 103.802 45.45C103.572 45.19 103.202 45.06 102.692 45.06C102.292 45.06 101.937 45.175 101.627 45.405C101.317 45.635 101.112 45.99 101.012 46.47H104.147ZM116.645 47.28C116.645 46.66 116.75 46.11 116.96 45.63C117.17 45.14 117.45 44.73 117.8 44.4C118.16 44.07 118.565 43.82 119.015 43.65C119.475 43.47 119.95 43.38 120.44 43.38C120.93 43.38 121.4 43.47 121.85 43.65C122.31 43.82 122.715 44.07 123.065 44.4C123.425 44.73 123.71 45.14 123.92 45.63C124.13 46.11 124.235 46.66 124.235 47.28C124.235 47.9 124.13 48.455 123.92 48.945C123.71 49.425 123.425 49.83 123.065 50.16C122.715 50.49 122.31 50.745 121.85 50.925C121.4 51.095 120.93 51.18 120.44 51.18C119.95 51.18 119.475 51.095 119.015 50.925C118.565 50.745 118.16 50.49 117.8 50.16C117.45 49.83 117.17 49.425 116.96 48.945C116.75 48.455 116.645 47.9 116.645 47.28ZM118.91 47.28C118.91 47.93 119.035 48.445 119.285 48.825C119.545 49.205 119.93 49.395 120.44 49.395C120.95 49.395 121.33 49.205 121.58 48.825C121.84 48.445 121.97 47.93 121.97 47.28C121.97 46.63 121.84 46.115 121.58 45.735C121.33 45.355 120.95 45.165 120.44 45.165C119.93 45.165 119.545 45.355 119.285 45.735C119.035 46.115 118.91 46.63 118.91 47.28ZM126.675 43.56H128.475L128.655 45.18H128.7C129.07 44.57 129.515 44.12 130.035 43.83C130.555 43.53 131.115 43.38 131.715 43.38C132.045 43.38 132.31 43.405 132.51 43.455C132.72 43.505 132.935 43.58 133.155 43.68L132.705 45.525C132.475 45.455 132.265 45.405 132.075 45.375C131.895 45.335 131.665 45.315 131.385 45.315C130.925 45.315 130.47 45.45 130.02 45.72C129.58 45.99 129.2 46.46 128.88 47.13V51H126.675V43.56ZM144.543 41.22H150.993V43.08H146.748V45.345H150.363V47.205H146.748V51H144.543V41.22ZM152.832 48.93C152.832 48.51 152.922 48.145 153.102 47.835C153.282 47.515 153.567 47.245 153.957 47.025C154.357 46.805 154.867 46.63 155.487 46.5C156.107 46.36 156.857 46.265 157.737 46.215C157.697 45.875 157.547 45.61 157.287 45.42C157.037 45.23 156.657 45.135 156.147 45.135C155.787 45.135 155.422 45.2 155.052 45.33C154.692 45.45 154.302 45.615 153.882 45.825L153.102 44.385C153.612 44.095 154.157 43.855 154.737 43.665C155.327 43.475 155.942 43.38 156.582 43.38C157.622 43.38 158.442 43.655 159.042 44.205C159.642 44.755 159.942 45.6 159.942 46.74V51H158.142L157.977 50.16H157.917C157.537 50.45 157.122 50.695 156.672 50.895C156.222 51.085 155.757 51.18 155.277 51.18C154.897 51.18 154.557 51.12 154.257 51C153.957 50.89 153.702 50.735 153.492 50.535C153.282 50.325 153.117 50.085 152.997 49.815C152.887 49.545 152.832 49.25 152.832 48.93ZM154.947 48.765C154.947 49.005 155.037 49.185 155.217 49.305C155.407 49.415 155.662 49.47 155.982 49.47C156.312 49.47 156.622 49.405 156.912 49.275C157.202 49.135 157.477 48.965 157.737 48.765V47.535C157.187 47.565 156.732 47.615 156.372 47.685C156.012 47.755 155.727 47.845 155.517 47.955C155.307 48.055 155.157 48.175 155.067 48.315C154.987 48.455 154.947 48.605 154.947 48.765ZM161.841 40.485H166.206V48.18C166.206 48.41 166.236 48.605 166.296 48.765C166.366 48.915 166.456 49.04 166.566 49.14C166.686 49.23 166.816 49.295 166.956 49.335C167.106 49.375 167.256 49.395 167.406 49.395C167.576 49.395 167.756 49.38 167.946 49.35C168.136 49.31 168.346 49.245 168.576 49.155L169.071 50.775C168.871 50.835 168.686 50.89 168.516 50.94C168.346 50.99 168.176 51.03 168.006 51.06C167.836 51.1 167.656 51.13 167.466 51.15C167.276 51.17 167.066 51.18 166.836 51.18C165.896 51.18 165.186 50.905 164.706 50.355C164.236 49.795 164.001 49.04 164.001 48.09V42.225H161.841V40.485ZM171.69 48.66C172.12 48.93 172.55 49.145 172.98 49.305C173.42 49.465 173.89 49.545 174.39 49.545C174.9 49.545 175.265 49.49 175.485 49.38C175.705 49.27 175.815 49.115 175.815 48.915C175.815 48.685 175.63 48.5 175.26 48.36C174.9 48.21 174.42 48.05 173.82 47.88C173.49 47.79 173.165 47.685 172.845 47.565C172.535 47.435 172.255 47.285 172.005 47.115C171.755 46.935 171.55 46.73 171.39 46.5C171.24 46.27 171.165 46.005 171.165 45.705C171.165 45.365 171.245 45.05 171.405 44.76C171.565 44.47 171.79 44.225 172.08 44.025C172.38 43.825 172.74 43.67 173.16 43.56C173.59 43.44 174.07 43.38 174.6 43.38C175.26 43.38 175.86 43.49 176.4 43.71C176.95 43.92 177.42 44.15 177.81 44.4L176.82 45.72C176.48 45.52 176.13 45.355 175.77 45.225C175.41 45.085 175.035 45.015 174.645 45.015C174.175 45.015 173.84 45.065 173.64 45.165C173.45 45.265 173.355 45.41 173.355 45.6C173.355 45.71 173.405 45.81 173.505 45.9C173.605 45.99 173.74 46.07 173.91 46.14C174.08 46.21 174.28 46.28 174.51 46.35C174.75 46.41 175 46.475 175.26 46.545C175.63 46.645 175.98 46.76 176.31 46.89C176.64 47.01 176.93 47.155 177.18 47.325C177.43 47.495 177.63 47.7 177.78 47.94C177.93 48.18 178.005 48.46 178.005 48.78C178.005 49.12 177.925 49.435 177.765 49.725C177.605 50.015 177.37 50.27 177.06 50.49C176.76 50.7 176.38 50.87 175.92 51C175.47 51.12 174.945 51.18 174.345 51.18C173.675 51.18 173.02 51.07 172.38 50.85C171.74 50.63 171.18 50.36 170.7 50.04L171.69 48.66ZM179.724 47.28C179.724 46.67 179.829 46.125 180.039 45.645C180.259 45.165 180.549 44.76 180.909 44.43C181.269 44.09 181.679 43.83 182.139 43.65C182.609 43.47 183.094 43.38 183.594 43.38C184.164 43.38 184.669 43.47 185.109 43.65C185.549 43.83 185.914 44.08 186.204 44.4C186.494 44.72 186.714 45.1 186.864 45.54C187.014 45.97 187.089 46.44 187.089 46.95C187.089 47.15 187.079 47.34 187.059 47.52C187.039 47.7 187.019 47.835 186.999 47.925H181.989C182.069 48.485 182.309 48.89 182.709 49.14C183.119 49.38 183.599 49.5 184.149 49.5C184.489 49.5 184.809 49.46 185.109 49.38C185.419 49.29 185.739 49.16 186.069 48.99L186.789 50.31C186.369 50.58 185.899 50.795 185.379 50.955C184.859 51.105 184.349 51.18 183.849 51.18C183.269 51.18 182.729 51.095 182.229 50.925C181.729 50.745 181.294 50.49 180.924 50.16C180.554 49.82 180.259 49.41 180.039 48.93C179.829 48.45 179.724 47.9 179.724 47.28ZM185.094 46.47C185.094 46.05 184.979 45.71 184.749 45.45C184.519 45.19 184.149 45.06 183.639 45.06C183.239 45.06 182.884 45.175 182.574 45.405C182.264 45.635 182.059 45.99 181.959 46.47H185.094ZM197.593 47.28C197.593 46.66 197.698 46.11 197.908 45.63C198.118 45.14 198.398 44.73 198.748 44.4C199.108 44.07 199.513 43.82 199.963 43.65C200.423 43.47 200.898 43.38 201.388 43.38C201.878 43.38 202.348 43.47 202.798 43.65C203.258 43.82 203.663 44.07 204.013 44.4C204.373 44.73 204.658 45.14 204.868 45.63C205.078 46.11 205.183 46.66 205.183 47.28C205.183 47.9 205.078 48.455 204.868 48.945C204.658 49.425 204.373 49.83 204.013 50.16C203.663 50.49 203.258 50.745 202.798 50.925C202.348 51.095 201.878 51.18 201.388 51.18C200.898 51.18 200.423 51.095 199.963 50.925C199.513 50.745 199.108 50.49 198.748 50.16C198.398 49.83 198.118 49.425 197.908 48.945C197.698 48.455 197.593 47.9 197.593 47.28ZM199.858 47.28C199.858 47.93 199.983 48.445 200.233 48.825C200.493 49.205 200.878 49.395 201.388 49.395C201.898 49.395 202.278 49.205 202.528 48.825C202.788 48.445 202.918 47.93 202.918 47.28C202.918 46.63 202.788 46.115 202.528 45.735C202.278 45.355 201.898 45.165 201.388 45.165C200.878 45.165 200.493 45.355 200.233 45.735C199.983 46.115 199.858 46.63 199.858 47.28ZM207.622 43.56H209.422L209.602 45.18H209.647C210.017 44.57 210.462 44.12 210.982 43.83C211.502 43.53 212.062 43.38 212.662 43.38C212.992 43.38 213.257 43.405 213.457 43.455C213.667 43.505 213.882 43.58 214.102 43.68L213.652 45.525C213.422 45.455 213.212 45.405 213.022 45.375C212.842 45.335 212.612 45.315 212.332 45.315C211.872 45.315 211.417 45.45 210.967 45.72C210.527 45.99 210.147 46.46 209.827 47.13V51H207.622V43.56ZM225.49 41.22H231.94V43.08H227.695V45.345H231.31V47.205H227.695V51H225.49V41.22ZM233.779 48.93C233.779 48.51 233.869 48.145 234.049 47.835C234.229 47.515 234.514 47.245 234.904 47.025C235.304 46.805 235.814 46.63 236.434 46.5C237.054 46.36 237.804 46.265 238.684 46.215C238.644 45.875 238.494 45.61 238.234 45.42C237.984 45.23 237.604 45.135 237.094 45.135C236.734 45.135 236.369 45.2 235.999 45.33C235.639 45.45 235.249 45.615 234.829 45.825L234.049 44.385C234.559 44.095 235.104 43.855 235.684 43.665C236.274 43.475 236.889 43.38 237.529 43.38C238.569 43.38 239.389 43.655 239.989 44.205C240.589 44.755 240.889 45.6 240.889 46.74V51H239.089L238.924 50.16H238.864C238.484 50.45 238.069 50.695 237.619 50.895C237.169 51.085 236.704 51.18 236.224 51.18C235.844 51.18 235.504 51.12 235.204 51C234.904 50.89 234.649 50.735 234.439 50.535C234.229 50.325 234.064 50.085 233.944 49.815C233.834 49.545 233.779 49.25 233.779 48.93ZM235.894 48.765C235.894 49.005 235.984 49.185 236.164 49.305C236.354 49.415 236.609 49.47 236.929 49.47C237.259 49.47 237.569 49.405 237.859 49.275C238.149 49.135 238.424 48.965 238.684 48.765V47.535C238.134 47.565 237.679 47.615 237.319 47.685C236.959 47.755 236.674 47.845 236.464 47.955C236.254 48.055 236.104 48.175 236.014 48.315C235.934 48.455 235.894 48.605 235.894 48.765ZM242.788 40.485H247.153V48.18C247.153 48.41 247.183 48.605 247.243 48.765C247.313 48.915 247.403 49.04 247.513 49.14C247.633 49.23 247.763 49.295 247.903 49.335C248.053 49.375 248.203 49.395 248.353 49.395C248.523 49.395 248.703 49.38 248.893 49.35C249.083 49.31 249.293 49.245 249.523 49.155L250.018 50.775C249.818 50.835 249.633 50.89 249.463 50.94C249.293 50.99 249.123 51.03 248.953 51.06C248.783 51.1 248.603 51.13 248.413 51.15C248.223 51.17 248.013 51.18 247.783 51.18C246.843 51.18 246.133 50.905 245.653 50.355C245.183 49.795 244.948 49.04 244.948 48.09V42.225H242.788V40.485ZM252.638 48.66C253.068 48.93 253.498 49.145 253.928 49.305C254.368 49.465 254.838 49.545 255.338 49.545C255.848 49.545 256.213 49.49 256.433 49.38C256.653 49.27 256.763 49.115 256.763 48.915C256.763 48.685 256.578 48.5 256.208 48.36C255.848 48.21 255.368 48.05 254.768 47.88C254.438 47.79 254.113 47.685 253.793 47.565C253.483 47.435 253.203 47.285 252.953 47.115C252.703 46.935 252.498 46.73 252.338 46.5C252.188 46.27 252.113 46.005 252.113 45.705C252.113 45.365 252.193 45.05 252.353 44.76C252.513 44.47 252.738 44.225 253.028 44.025C253.328 43.825 253.688 43.67 254.108 43.56C254.538 43.44 255.018 43.38 255.548 43.38C256.208 43.38 256.808 43.49 257.348 43.71C257.898 43.92 258.368 44.15 258.758 44.4L257.768 45.72C257.428 45.52 257.078 45.355 256.718 45.225C256.358 45.085 255.983 45.015 255.593 45.015C255.123 45.015 254.788 45.065 254.588 45.165C254.398 45.265 254.303 45.41 254.303 45.6C254.303 45.71 254.353 45.81 254.453 45.9C254.553 45.99 254.688 46.07 254.858 46.14C255.028 46.21 255.228 46.28 255.458 46.35C255.698 46.41 255.948 46.475 256.208 46.545C256.578 46.645 256.928 46.76 257.258 46.89C257.588 47.01 257.878 47.155 258.128 47.325C258.378 47.495 258.578 47.7 258.728 47.94C258.878 48.18 258.953 48.46 258.953 48.78C258.953 49.12 258.873 49.435 258.713 49.725C258.553 50.015 258.318 50.27 258.008 50.49C257.708 50.7 257.328 50.87 256.868 51C256.418 51.12 255.893 51.18 255.293 51.18C254.623 51.18 253.968 51.07 253.328 50.85C252.688 50.63 252.128 50.36 251.648 50.04L252.638 48.66ZM260.672 47.28C260.672 46.67 260.777 46.125 260.987 45.645C261.207 45.165 261.497 44.76 261.857 44.43C262.217 44.09 262.627 43.83 263.087 43.65C263.557 43.47 264.042 43.38 264.542 43.38C265.112 43.38 265.617 43.47 266.057 43.65C266.497 43.83 266.862 44.08 267.152 44.4C267.442 44.72 267.662 45.1 267.812 45.54C267.962 45.97 268.037 46.44 268.037 46.95C268.037 47.15 268.027 47.34 268.007 47.52C267.987 47.7 267.967 47.835 267.947 47.925H262.937C263.017 48.485 263.257 48.89 263.657 49.14C264.067 49.38 264.547 49.5 265.097 49.5C265.437 49.5 265.757 49.46 266.057 49.38C266.367 49.29 266.687 49.16 267.017 48.99L267.737 50.31C267.317 50.58 266.847 50.795 266.327 50.955C265.807 51.105 265.297 51.18 264.797 51.18C264.217 51.18 263.677 51.095 263.177 50.925C262.677 50.745 262.242 50.49 261.872 50.16C261.502 49.82 261.207 49.41 260.987 48.93C260.777 48.45 260.672 47.9 260.672 47.28ZM266.042 46.47C266.042 46.05 265.927 45.71 265.697 45.45C265.467 45.19 265.097 45.06 264.587 45.06C264.187 45.06 263.832 45.175 263.522 45.405C263.212 45.635 263.007 45.99 262.907 46.47H266.042ZM63.5956 60.22H70.0456V62.08H65.8006V64.345H69.4156V66.205H65.8006V70H63.5956V60.22ZM71.8847 67.93C71.8847 67.51 71.9747 67.145 72.1547 66.835C72.3347 66.515 72.6197 66.245 73.0097 66.025C73.4097 65.805 73.9197 65.63 74.5397 65.5C75.1597 65.36 75.9097 65.265 76.7897 65.215C76.7497 64.875 76.5997 64.61 76.3397 64.42C76.0897 64.23 75.7097 64.135 75.1997 64.135C74.8397 64.135 74.4747 64.2 74.1047 64.33C73.7447 64.45 73.3547 64.615 72.9347 64.825L72.1547 63.385C72.6647 63.095 73.2097 62.855 73.7897 62.665C74.3797 62.475 74.9947 62.38 75.6347 62.38C76.6747 62.38 77.4947 62.655 78.0947 63.205C78.6947 63.755 78.9947 64.6 78.9947 65.74V70H77.1947L77.0297 69.16H76.9697C76.5897 69.45 76.1747 69.695 75.7247 69.895C75.2747 70.085 74.8097 70.18 74.3297 70.18C73.9497 70.18 73.6097 70.12 73.3097 70C73.0097 69.89 72.7547 69.735 72.5447 69.535C72.3347 69.325 72.1697 69.085 72.0497 68.815C71.9397 68.545 71.8847 68.25 71.8847 67.93ZM73.9997 67.765C73.9997 68.005 74.0897 68.185 74.2697 68.305C74.4597 68.415 74.7147 68.47 75.0347 68.47C75.3647 68.47 75.6747 68.405 75.9647 68.275C76.2547 68.135 76.5297 67.965 76.7897 67.765V66.535C76.2397 66.565 75.7847 66.615 75.4247 66.685C75.0647 66.755 74.7797 66.845 74.5697 66.955C74.3597 67.055 74.2097 67.175 74.1197 67.315C74.0397 67.455 73.9997 67.605 73.9997 67.765ZM80.8938 59.485H85.2588V67.18C85.2588 67.41 85.2888 67.605 85.3488 67.765C85.4188 67.915 85.5088 68.04 85.6188 68.14C85.7388 68.23 85.8688 68.295 86.0088 68.335C86.1588 68.375 86.3088 68.395 86.4588 68.395C86.6288 68.395 86.8088 68.38 86.9988 68.35C87.1888 68.31 87.3988 68.245 87.6288 68.155L88.1238 69.775C87.9238 69.835 87.7388 69.89 87.5688 69.94C87.3988 69.99 87.2288 70.03 87.0588 70.06C86.8888 70.1 86.7088 70.13 86.5188 70.15C86.3288 70.17 86.1188 70.18 85.8888 70.18C84.9488 70.18 84.2388 69.905 83.7588 69.355C83.2888 68.795 83.0538 68.04 83.0538 67.09V61.225H80.8938V59.485ZM90.743 67.66C91.173 67.93 91.603 68.145 92.033 68.305C92.473 68.465 92.943 68.545 93.443 68.545C93.953 68.545 94.318 68.49 94.538 68.38C94.758 68.27 94.868 68.115 94.868 67.915C94.868 67.685 94.683 67.5 94.313 67.36C93.953 67.21 93.473 67.05 92.873 66.88C92.543 66.79 92.218 66.685 91.898 66.565C91.588 66.435 91.308 66.285 91.058 66.115C90.808 65.935 90.603 65.73 90.443 65.5C90.293 65.27 90.218 65.005 90.218 64.705C90.218 64.365 90.298 64.05 90.458 63.76C90.618 63.47 90.843 63.225 91.133 63.025C91.433 62.825 91.793 62.67 92.213 62.56C92.643 62.44 93.123 62.38 93.653 62.38C94.313 62.38 94.913 62.49 95.453 62.71C96.003 62.92 96.473 63.15 96.863 63.4L95.873 64.72C95.533 64.52 95.183 64.355 94.823 64.225C94.463 64.085 94.088 64.015 93.698 64.015C93.228 64.015 92.893 64.065 92.693 64.165C92.503 64.265 92.408 64.41 92.408 64.6C92.408 64.71 92.458 64.81 92.558 64.9C92.658 64.99 92.793 65.07 92.963 65.14C93.133 65.21 93.333 65.28 93.563 65.35C93.803 65.41 94.053 65.475 94.313 65.545C94.683 65.645 95.033 65.76 95.363 65.89C95.693 66.01 95.983 66.155 96.233 66.325C96.483 66.495 96.683 66.7 96.833 66.94C96.983 67.18 97.058 67.46 97.058 67.78C97.058 68.12 96.978 68.435 96.818 68.725C96.658 69.015 96.423 69.27 96.113 69.49C95.813 69.7 95.433 69.87 94.973 70C94.523 70.12 93.998 70.18 93.398 70.18C92.728 70.18 92.073 70.07 91.433 69.85C90.793 69.63 90.233 69.36 89.753 69.04L90.743 67.66ZM98.7771 66.28C98.7771 65.67 98.8821 65.125 99.0921 64.645C99.3121 64.165 99.6021 63.76 99.9621 63.43C100.322 63.09 100.732 62.83 101.192 62.65C101.662 62.47 102.147 62.38 102.647 62.38C103.217 62.38 103.722 62.47 104.162 62.65C104.602 62.83 104.967 63.08 105.257 63.4C105.547 63.72 105.767 64.1 105.917 64.54C106.067 64.97 106.142 65.44 106.142 65.95C106.142 66.15 106.132 66.34 106.112 66.52C106.092 66.7 106.072 66.835 106.052 66.925H101.042C101.122 67.485 101.362 67.89 101.762 68.14C102.172 68.38 102.652 68.5 103.202 68.5C103.542 68.5 103.862 68.46 104.162 68.38C104.472 68.29 104.792 68.16 105.122 67.99L105.842 69.31C105.422 69.58 104.952 69.795 104.432 69.955C103.912 70.105 103.402 70.18 102.902 70.18C102.322 70.18 101.782 70.095 101.282 69.925C100.782 69.745 100.347 69.49 99.9771 69.16C99.6071 68.82 99.3121 68.41 99.0921 67.93C98.8821 67.45 98.7771 66.9 98.7771 66.28ZM104.147 65.47C104.147 65.05 104.032 64.71 103.802 64.45C103.572 64.19 103.202 64.06 102.692 64.06C102.292 64.06 101.937 64.175 101.627 64.405C101.317 64.635 101.112 64.99 101.012 65.47H104.147ZM116.645 66.28C116.645 65.66 116.75 65.11 116.96 64.63C117.17 64.14 117.45 63.73 117.8 63.4C118.16 63.07 118.565 62.82 119.015 62.65C119.475 62.47 119.95 62.38 120.44 62.38C120.93 62.38 121.4 62.47 121.85 62.65C122.31 62.82 122.715 63.07 123.065 63.4C123.425 63.73 123.71 64.14 123.92 64.63C124.13 65.11 124.235 65.66 124.235 66.28C124.235 66.9 124.13 67.455 123.92 67.945C123.71 68.425 123.425 68.83 123.065 69.16C122.715 69.49 122.31 69.745 121.85 69.925C121.4 70.095 120.93 70.18 120.44 70.18C119.95 70.18 119.475 70.095 119.015 69.925C118.565 69.745 118.16 69.49 117.8 69.16C117.45 68.83 117.17 68.425 116.96 67.945C116.75 67.455 116.645 66.9 116.645 66.28ZM118.91 66.28C118.91 66.93 119.035 67.445 119.285 67.825C119.545 68.205 119.93 68.395 120.44 68.395C120.95 68.395 121.33 68.205 121.58 67.825C121.84 67.445 121.97 66.93 121.97 66.28C121.97 65.63 121.84 65.115 121.58 64.735C121.33 64.355 120.95 64.165 120.44 64.165C119.93 64.165 119.545 64.355 119.285 64.735C119.035 65.115 118.91 65.63 118.91 66.28ZM126.675 62.56H128.475L128.655 64.18H128.7C129.07 63.57 129.515 63.12 130.035 62.83C130.555 62.53 131.115 62.38 131.715 62.38C132.045 62.38 132.31 62.405 132.51 62.455C132.72 62.505 132.935 62.58 133.155 62.68L132.705 64.525C132.475 64.455 132.265 64.405 132.075 64.375C131.895 64.335 131.665 64.315 131.385 64.315C130.925 64.315 130.47 64.45 130.02 64.72C129.58 64.99 129.2 65.46 128.88 66.13V70H126.675V62.56ZM144.543 60.22H150.993V62.08H146.748V64.345H150.363V66.205H146.748V70H144.543V60.22ZM152.832 67.93C152.832 67.51 152.922 67.145 153.102 66.835C153.282 66.515 153.567 66.245 153.957 66.025C154.357 65.805 154.867 65.63 155.487 65.5C156.107 65.36 156.857 65.265 157.737 65.215C157.697 64.875 157.547 64.61 157.287 64.42C157.037 64.23 156.657 64.135 156.147 64.135C155.787 64.135 155.422 64.2 155.052 64.33C154.692 64.45 154.302 64.615 153.882 64.825L153.102 63.385C153.612 63.095 154.157 62.855 154.737 62.665C155.327 62.475 155.942 62.38 156.582 62.38C157.622 62.38 158.442 62.655 159.042 63.205C159.642 63.755 159.942 64.6 159.942 65.74V70H158.142L157.977 69.16H157.917C157.537 69.45 157.122 69.695 156.672 69.895C156.222 70.085 155.757 70.18 155.277 70.18C154.897 70.18 154.557 70.12 154.257 70C153.957 69.89 153.702 69.735 153.492 69.535C153.282 69.325 153.117 69.085 152.997 68.815C152.887 68.545 152.832 68.25 152.832 67.93ZM154.947 67.765C154.947 68.005 155.037 68.185 155.217 68.305C155.407 68.415 155.662 68.47 155.982 68.47C156.312 68.47 156.622 68.405 156.912 68.275C157.202 68.135 157.477 67.965 157.737 67.765V66.535C157.187 66.565 156.732 66.615 156.372 66.685C156.012 66.755 155.727 66.845 155.517 66.955C155.307 67.055 155.157 67.175 155.067 67.315C154.987 67.455 154.947 67.605 154.947 67.765ZM161.841 59.485H166.206V67.18C166.206 67.41 166.236 67.605 166.296 67.765C166.366 67.915 166.456 68.04 166.566 68.14C166.686 68.23 166.816 68.295 166.956 68.335C167.106 68.375 167.256 68.395 167.406 68.395C167.576 68.395 167.756 68.38 167.946 68.35C168.136 68.31 168.346 68.245 168.576 68.155L169.071 69.775C168.871 69.835 168.686 69.89 168.516 69.94C168.346 69.99 168.176 70.03 168.006 70.06C167.836 70.1 167.656 70.13 167.466 70.15C167.276 70.17 167.066 70.18 166.836 70.18C165.896 70.18 165.186 69.905 164.706 69.355C164.236 68.795 164.001 68.04 164.001 67.09V61.225H161.841V59.485ZM171.69 67.66C172.12 67.93 172.55 68.145 172.98 68.305C173.42 68.465 173.89 68.545 174.39 68.545C174.9 68.545 175.265 68.49 175.485 68.38C175.705 68.27 175.815 68.115 175.815 67.915C175.815 67.685 175.63 67.5 175.26 67.36C174.9 67.21 174.42 67.05 173.82 66.88C173.49 66.79 173.165 66.685 172.845 66.565C172.535 66.435 172.255 66.285 172.005 66.115C171.755 65.935 171.55 65.73 171.39 65.5C171.24 65.27 171.165 65.005 171.165 64.705C171.165 64.365 171.245 64.05 171.405 63.76C171.565 63.47 171.79 63.225 172.08 63.025C172.38 62.825 172.74 62.67 173.16 62.56C173.59 62.44 174.07 62.38 174.6 62.38C175.26 62.38 175.86 62.49 176.4 62.71C176.95 62.92 177.42 63.15 177.81 63.4L176.82 64.72C176.48 64.52 176.13 64.355 175.77 64.225C175.41 64.085 175.035 64.015 174.645 64.015C174.175 64.015 173.84 64.065 173.64 64.165C173.45 64.265 173.355 64.41 173.355 64.6C173.355 64.71 173.405 64.81 173.505 64.9C173.605 64.99 173.74 65.07 173.91 65.14C174.08 65.21 174.28 65.28 174.51 65.35C174.75 65.41 175 65.475 175.26 65.545C175.63 65.645 175.98 65.76 176.31 65.89C176.64 66.01 176.93 66.155 177.18 66.325C177.43 66.495 177.63 66.7 177.78 66.94C177.93 67.18 178.005 67.46 178.005 67.78C178.005 68.12 177.925 68.435 177.765 68.725C177.605 69.015 177.37 69.27 177.06 69.49C176.76 69.7 176.38 69.87 175.92 70C175.47 70.12 174.945 70.18 174.345 70.18C173.675 70.18 173.02 70.07 172.38 69.85C171.74 69.63 171.18 69.36 170.7 69.04L171.69 67.66ZM179.724 66.28C179.724 65.67 179.829 65.125 180.039 64.645C180.259 64.165 180.549 63.76 180.909 63.43C181.269 63.09 181.679 62.83 182.139 62.65C182.609 62.47 183.094 62.38 183.594 62.38C184.164 62.38 184.669 62.47 185.109 62.65C185.549 62.83 185.914 63.08 186.204 63.4C186.494 63.72 186.714 64.1 186.864 64.54C187.014 64.97 187.089 65.44 187.089 65.95C187.089 66.15 187.079 66.34 187.059 66.52C187.039 66.7 187.019 66.835 186.999 66.925H181.989C182.069 67.485 182.309 67.89 182.709 68.14C183.119 68.38 183.599 68.5 184.149 68.5C184.489 68.5 184.809 68.46 185.109 68.38C185.419 68.29 185.739 68.16 186.069 67.99L186.789 69.31C186.369 69.58 185.899 69.795 185.379 69.955C184.859 70.105 184.349 70.18 183.849 70.18C183.269 70.18 182.729 70.095 182.229 69.925C181.729 69.745 181.294 69.49 180.924 69.16C180.554 68.82 180.259 68.41 180.039 67.93C179.829 67.45 179.724 66.9 179.724 66.28ZM185.094 65.47C185.094 65.05 184.979 64.71 184.749 64.45C184.519 64.19 184.149 64.06 183.639 64.06C183.239 64.06 182.884 64.175 182.574 64.405C182.264 64.635 182.059 64.99 181.959 65.47H185.094ZM197.593 66.28C197.593 65.66 197.698 65.11 197.908 64.63C198.118 64.14 198.398 63.73 198.748 63.4C199.108 63.07 199.513 62.82 199.963 62.65C200.423 62.47 200.898 62.38 201.388 62.38C201.878 62.38 202.348 62.47 202.798 62.65C203.258 62.82 203.663 63.07 204.013 63.4C204.373 63.73 204.658 64.14 204.868 64.63C205.078 65.11 205.183 65.66 205.183 66.28C205.183 66.9 205.078 67.455 204.868 67.945C204.658 68.425 204.373 68.83 204.013 69.16C203.663 69.49 203.258 69.745 202.798 69.925C202.348 70.095 201.878 70.18 201.388 70.18C200.898 70.18 200.423 70.095 199.963 69.925C199.513 69.745 199.108 69.49 198.748 69.16C198.398 68.83 198.118 68.425 197.908 67.945C197.698 67.455 197.593 66.9 197.593 66.28ZM199.858 66.28C199.858 66.93 199.983 67.445 200.233 67.825C200.493 68.205 200.878 68.395 201.388 68.395C201.898 68.395 202.278 68.205 202.528 67.825C202.788 67.445 202.918 66.93 202.918 66.28C202.918 65.63 202.788 65.115 202.528 64.735C202.278 64.355 201.898 64.165 201.388 64.165C200.878 64.165 200.493 64.355 200.233 64.735C199.983 65.115 199.858 65.63 199.858 66.28ZM207.622 62.56H209.422L209.602 64.18H209.647C210.017 63.57 210.462 63.12 210.982 62.83C211.502 62.53 212.062 62.38 212.662 62.38C212.992 62.38 213.257 62.405 213.457 62.455C213.667 62.505 213.882 62.58 214.102 62.68L213.652 64.525C213.422 64.455 213.212 64.405 213.022 64.375C212.842 64.335 212.612 64.315 212.332 64.315C211.872 64.315 211.417 64.45 210.967 64.72C210.527 64.99 210.147 65.46 209.827 66.13V70H207.622V62.56ZM225.49 60.22H231.94V62.08H227.695V64.345H231.31V66.205H227.695V70H225.49V60.22ZM233.779 67.93C233.779 67.51 233.869 67.145 234.049 66.835C234.229 66.515 234.514 66.245 234.904 66.025C235.304 65.805 235.814 65.63 236.434 65.5C237.054 65.36 237.804 65.265 238.684 65.215C238.644 64.875 238.494 64.61 238.234 64.42C237.984 64.23 237.604 64.135 237.094 64.135C236.734 64.135 236.369 64.2 235.999 64.33C235.639 64.45 235.249 64.615 234.829 64.825L234.049 63.385C234.559 63.095 235.104 62.855 235.684 62.665C236.274 62.475 236.889 62.38 237.529 62.38C238.569 62.38 239.389 62.655 239.989 63.205C240.589 63.755 240.889 64.6 240.889 65.74V70H239.089L238.924 69.16H238.864C238.484 69.45 238.069 69.695 237.619 69.895C237.169 70.085 236.704 70.18 236.224 70.18C235.844 70.18 235.504 70.12 235.204 70C234.904 69.89 234.649 69.735 234.439 69.535C234.229 69.325 234.064 69.085 233.944 68.815C233.834 68.545 233.779 68.25 233.779 67.93ZM235.894 67.765C235.894 68.005 235.984 68.185 236.164 68.305C236.354 68.415 236.609 68.47 236.929 68.47C237.259 68.47 237.569 68.405 237.859 68.275C238.149 68.135 238.424 67.965 238.684 67.765V66.535C238.134 66.565 237.679 66.615 237.319 66.685C236.959 66.755 236.674 66.845 236.464 66.955C236.254 67.055 236.104 67.175 236.014 67.315C235.934 67.455 235.894 67.605 235.894 67.765ZM242.788 59.485H247.153V67.18C247.153 67.41 247.183 67.605 247.243 67.765C247.313 67.915 247.403 68.04 247.513 68.14C247.633 68.23 247.763 68.295 247.903 68.335C248.053 68.375 248.203 68.395 248.353 68.395C248.523 68.395 248.703 68.38 248.893 68.35C249.083 68.31 249.293 68.245 249.523 68.155L250.018 69.775C249.818 69.835 249.633 69.89 249.463 69.94C249.293 69.99 249.123 70.03 248.953 70.06C248.783 70.1 248.603 70.13 248.413 70.15C248.223 70.17 248.013 70.18 247.783 70.18C246.843 70.18 246.133 69.905 245.653 69.355C245.183 68.795 244.948 68.04 244.948 67.09V61.225H242.788V59.485ZM252.638 67.66C253.068 67.93 253.498 68.145 253.928 68.305C254.368 68.465 254.838 68.545 255.338 68.545C255.848 68.545 256.213 68.49 256.433 68.38C256.653 68.27 256.763 68.115 256.763 67.915C256.763 67.685 256.578 67.5 256.208 67.36C255.848 67.21 255.368 67.05 254.768 66.88C254.438 66.79 254.113 66.685 253.793 66.565C253.483 66.435 253.203 66.285 252.953 66.115C252.703 65.935 252.498 65.73 252.338 65.5C252.188 65.27 252.113 65.005 252.113 64.705C252.113 64.365 252.193 64.05 252.353 63.76C252.513 63.47 252.738 63.225 253.028 63.025C253.328 62.825 253.688 62.67 254.108 62.56C254.538 62.44 255.018 62.38 255.548 62.38C256.208 62.38 256.808 62.49 257.348 62.71C257.898 62.92 258.368 63.15 258.758 63.4L257.768 64.72C257.428 64.52 257.078 64.355 256.718 64.225C256.358 64.085 255.983 64.015 255.593 64.015C255.123 64.015 254.788 64.065 254.588 64.165C254.398 64.265 254.303 64.41 254.303 64.6C254.303 64.71 254.353 64.81 254.453 64.9C254.553 64.99 254.688 65.07 254.858 65.14C255.028 65.21 255.228 65.28 255.458 65.35C255.698 65.41 255.948 65.475 256.208 65.545C256.578 65.645 256.928 65.76 257.258 65.89C257.588 66.01 257.878 66.155 258.128 66.325C258.378 66.495 258.578 66.7 258.728 66.94C258.878 67.18 258.953 67.46 258.953 67.78C258.953 68.12 258.873 68.435 258.713 68.725C258.553 69.015 258.318 69.27 258.008 69.49C257.708 69.7 257.328 69.87 256.868 70C256.418 70.12 255.893 70.18 255.293 70.18C254.623 70.18 253.968 70.07 253.328 69.85C252.688 69.63 252.128 69.36 251.648 69.04L252.638 67.66ZM260.672 66.28C260.672 65.67 260.777 65.125 260.987 64.645C261.207 64.165 261.497 63.76 261.857 63.43C262.217 63.09 262.627 62.83 263.087 62.65C263.557 62.47 264.042 62.38 264.542 62.38C265.112 62.38 265.617 62.47 266.057 62.65C266.497 62.83 266.862 63.08 267.152 63.4C267.442 63.72 267.662 64.1 267.812 64.54C267.962 64.97 268.037 65.44 268.037 65.95C268.037 66.15 268.027 66.34 268.007 66.52C267.987 66.7 267.967 66.835 267.947 66.925H262.937C263.017 67.485 263.257 67.89 263.657 68.14C264.067 68.38 264.547 68.5 265.097 68.5C265.437 68.5 265.757 68.46 266.057 68.38C266.367 68.29 266.687 68.16 267.017 67.99L267.737 69.31C267.317 69.58 266.847 69.795 266.327 69.955C265.807 70.105 265.297 70.18 264.797 70.18C264.217 70.18 263.677 70.095 263.177 69.925C262.677 69.745 262.242 69.49 261.872 69.16C261.502 68.82 261.207 68.41 260.987 67.93C260.777 67.45 260.672 66.9 260.672 66.28ZM266.042 65.47C266.042 65.05 265.927 64.71 265.697 64.45C265.467 64.19 265.097 64.06 264.587 64.06C264.187 64.06 263.832 64.175 263.522 64.405C263.212 64.635 263.007 64.99 262.907 65.47H266.042ZM278.54 66.28C278.54 65.66 278.645 65.11 278.855 64.63C279.065 64.14 279.345 63.73 279.695 63.4C280.055 63.07 280.46 62.82 280.91 62.65C281.37 62.47 281.845 62.38 282.335 62.38C282.825 62.38 283.295 62.47 283.745 62.65C284.205 62.82 284.61 63.07 284.96 63.4C285.32 63.73 285.605 64.14 285.815 64.63C286.025 65.11 286.13 65.66 286.13 66.28C286.13 66.9 286.025 67.455 285.815 67.945C285.605 68.425 285.32 68.83 284.96 69.16C284.61 69.49 284.205 69.745 283.745 69.925C283.295 70.095 282.825 70.18 282.335 70.18C281.845 70.18 281.37 70.095 280.91 69.925C280.46 69.745 280.055 69.49 279.695 69.16C279.345 68.83 279.065 68.425 278.855 67.945C278.645 67.455 278.54 66.9 278.54 66.28ZM280.805 66.28C280.805 66.93 280.93 67.445 281.18 67.825C281.44 68.205 281.825 68.395 282.335 68.395C282.845 68.395 283.225 68.205 283.475 67.825C283.735 67.445 283.865 66.93 283.865 66.28C283.865 65.63 283.735 65.115 283.475 64.735C283.225 64.355 282.845 64.165 282.335 64.165C281.825 64.165 281.44 64.355 281.18 64.735C280.93 65.115 280.805 65.63 280.805 66.28ZM288.569 62.56H290.369L290.549 64.18H290.594C290.964 63.57 291.409 63.12 291.929 62.83C292.449 62.53 293.009 62.38 293.609 62.38C293.939 62.38 294.204 62.405 294.404 62.455C294.614 62.505 294.829 62.58 295.049 62.68L294.599 64.525C294.369 64.455 294.159 64.405 293.969 64.375C293.789 64.335 293.559 64.315 293.279 64.315C292.819 64.315 292.364 64.45 291.914 64.72C291.474 64.99 291.094 65.46 290.774 66.13V70H288.569V62.56ZM308.207 62.08H305.282V60.22H313.352V62.08H310.427V70H308.207V62.08ZM315.551 62.56H317.351L317.531 64.18H317.576C317.946 63.57 318.391 63.12 318.911 62.83C319.431 62.53 319.991 62.38 320.591 62.38C320.921 62.38 321.186 62.405 321.386 62.455C321.596 62.505 321.811 62.58 322.031 62.68L321.581 64.525C321.351 64.455 321.141 64.405 320.951 64.375C320.771 64.335 320.541 64.315 320.261 64.315C319.801 64.315 319.346 64.45 318.896 64.72C318.456 64.99 318.076 65.46 317.756 66.13V70H315.551V62.56ZM330.681 70H328.881L328.716 68.935H328.656C328.326 69.315 327.961 69.62 327.561 69.85C327.161 70.07 326.691 70.18 326.151 70.18C325.301 70.18 324.686 69.91 324.306 69.37C323.926 68.83 323.736 68.09 323.736 67.15V62.56H325.941V66.865C325.941 67.365 326.016 67.73 326.166 67.96C326.316 68.19 326.601 68.305 327.021 68.305C327.301 68.305 327.546 68.245 327.756 68.125C327.976 68.005 328.216 67.78 328.476 67.45V62.56H330.681V70ZM332.625 66.28C332.625 65.67 332.73 65.125 332.94 64.645C333.16 64.165 333.45 63.76 333.81 63.43C334.17 63.09 334.58 62.83 335.04 62.65C335.51 62.47 335.995 62.38 336.495 62.38C337.065 62.38 337.57 62.47 338.01 62.65C338.45 62.83 338.815 63.08 339.105 63.4C339.395 63.72 339.615 64.1 339.765 64.54C339.915 64.97 339.99 65.44 339.99 65.95C339.99 66.15 339.98 66.34 339.96 66.52C339.94 66.7 339.92 66.835 339.9 66.925H334.89C334.97 67.485 335.21 67.89 335.61 68.14C336.02 68.38 336.5 68.5 337.05 68.5C337.39 68.5 337.71 68.46 338.01 68.38C338.32 68.29 338.64 68.16 338.97 67.99L339.69 69.31C339.27 69.58 338.8 69.795 338.28 69.955C337.76 70.105 337.25 70.18 336.75 70.18C336.17 70.18 335.63 70.095 335.13 69.925C334.63 69.745 334.195 69.49 333.825 69.16C333.455 68.82 333.16 68.41 332.94 67.93C332.73 67.45 332.625 66.9 332.625 66.28ZM337.995 65.47C337.995 65.05 337.88 64.71 337.65 64.45C337.42 64.19 337.05 64.06 336.54 64.06C336.14 64.06 335.785 64.175 335.475 64.405C335.165 64.635 334.96 64.99 334.86 65.47H337.995Z" fill="#E69F00"/>
</svg>
