<svg width="331" height="183" viewBox="0 0 331 183" fill="none" xmlns="http://www.w3.org/2000/svg">
<rect width="331" height="183" fill="white"/>
<rect width="331" height="183" fill="black"/>
<rect width="252" height="31" transform="translate(79)" fill="#333333"/>
<rect width="252" height="31" transform="translate(79)" fill="#333333"/>
<rect width="79" height="31" fill="#090808"/>
<path d="M5.10498 11.8101C5.10498 11.5513 4.97559 11.3486 4.7168 11.2021C4.46289 11.0508 4.05273 10.9165 3.48633 10.7993C1.60156 10.4038 0.65918 9.60303 0.65918 8.39697C0.65918 7.69385 0.949707 7.10791 1.53076 6.63916C2.1167 6.16553 2.88086 5.92871 3.82324 5.92871C4.8291 5.92871 5.63232 6.16553 6.23291 6.63916C6.83838 7.11279 7.14111 7.72803 7.14111 8.48486H5.02441C5.02441 8.18213 4.92676 7.93311 4.73145 7.73779C4.53613 7.5376 4.23096 7.4375 3.81592 7.4375C3.45947 7.4375 3.18359 7.51807 2.98828 7.6792C2.79297 7.84033 2.69531 8.04541 2.69531 8.29443C2.69531 8.52881 2.80518 8.71924 3.0249 8.86572C3.24951 9.00732 3.62549 9.13184 4.15283 9.23926C4.68018 9.3418 5.12451 9.45898 5.48584 9.59082C6.604 10.001 7.16309 10.7114 7.16309 11.7222C7.16309 12.4448 6.85303 13.0308 6.23291 13.48C5.61279 13.9243 4.81201 14.1465 3.83057 14.1465C3.1665 14.1465 2.57568 14.0293 2.05811 13.7949C1.54541 13.5557 1.14258 13.231 0.849609 12.8208C0.556641 12.4058 0.410156 11.959 0.410156 11.4805H2.41699C2.43652 11.8564 2.57568 12.1445 2.83447 12.3447C3.09326 12.5449 3.43994 12.645 3.87451 12.645C4.27979 12.645 4.58496 12.5693 4.79004 12.418C5 12.2617 5.10498 12.0591 5.10498 11.8101ZM11.8286 12.4399C12.2192 12.4399 12.5366 12.3325 12.7808 12.1177C13.0249 11.9028 13.1519 11.6172 13.1616 11.2607H15.1465C15.1416 11.7979 14.9951 12.291 14.707 12.7402C14.4189 13.1846 14.0234 13.5312 13.5205 13.7803C13.0225 14.0244 12.4707 14.1465 11.8652 14.1465C10.7324 14.1465 9.83887 13.7876 9.18457 13.0698C8.53027 12.3472 8.20312 11.3511 8.20312 10.0815V9.94238C8.20312 8.72168 8.52783 7.74756 9.17725 7.02002C9.82666 6.29248 10.7178 5.92871 11.8506 5.92871C12.8418 5.92871 13.6353 6.21191 14.231 6.77832C14.8315 7.33984 15.1367 8.08936 15.1465 9.02686H13.1616C13.1519 8.6167 13.0249 8.28467 12.7808 8.03076C12.5366 7.77197 12.2144 7.64258 11.814 7.64258C11.3208 7.64258 10.9473 7.82324 10.6934 8.18457C10.4443 8.54102 10.3198 9.12207 10.3198 9.92773V10.1475C10.3198 10.9629 10.4443 11.5488 10.6934 11.9053C10.9424 12.2617 11.3208 12.4399 11.8286 12.4399ZM20.8081 8.06006C20.52 8.021 20.2661 8.00146 20.0464 8.00146C19.2456 8.00146 18.7207 8.27246 18.4717 8.81445V14H16.355V6.0752H18.3545L18.4131 7.02002C18.8379 6.29248 19.4263 5.92871 20.1782 5.92871C20.4126 5.92871 20.6323 5.96045 20.8374 6.02393L20.8081 8.06006ZM24.0674 14H21.9434V6.0752H24.0674V14ZM21.8188 4.02441C21.8188 3.70703 21.9238 3.4458 22.1338 3.24072C22.3486 3.03564 22.6392 2.93311 23.0054 2.93311C23.3667 2.93311 23.6548 3.03564 23.8696 3.24072C24.0845 3.4458 24.1919 3.70703 24.1919 4.02441C24.1919 4.34668 24.082 4.61035 23.8623 4.81543C23.6475 5.02051 23.3618 5.12305 23.0054 5.12305C22.6489 5.12305 22.3608 5.02051 22.1411 4.81543C21.9263 4.61035 21.8188 4.34668 21.8188 4.02441ZM32.9517 10.1108C32.9517 11.3315 32.6733 12.3105 32.1167 13.0479C31.5649 13.7803 30.8179 14.1465 29.8755 14.1465C29.0747 14.1465 28.4277 13.8682 27.9346 13.3115V17.0469H25.8179V6.0752H27.7808L27.854 6.85156C28.3667 6.23633 29.0356 5.92871 29.8608 5.92871C30.8374 5.92871 31.5967 6.29004 32.1387 7.0127C32.6807 7.73535 32.9517 8.73145 32.9517 10.001V10.1108ZM30.835 9.95703C30.835 9.21973 30.7031 8.65088 30.4395 8.25049C30.1807 7.8501 29.8022 7.6499 29.3042 7.6499C28.6401 7.6499 28.1836 7.90381 27.9346 8.41162V11.6562C28.1934 12.1787 28.6548 12.4399 29.3188 12.4399C30.3296 12.4399 30.835 11.6123 30.835 9.95703ZM36.8042 4.12695V6.0752H38.1592V7.62793H36.8042V11.583C36.8042 11.876 36.8604 12.0859 36.9727 12.2129C37.085 12.3398 37.2998 12.4033 37.6172 12.4033C37.8516 12.4033 38.0591 12.3862 38.2397 12.3521V13.9561C37.8247 14.083 37.3975 14.1465 36.958 14.1465C35.4736 14.1465 34.7168 13.397 34.6875 11.8979V7.62793H33.5303V6.0752H34.6875V4.12695H36.8042ZM39.4482 12.96C39.4482 12.623 39.5605 12.3496 39.7852 12.1396C40.0146 11.9297 40.3003 11.8247 40.6421 11.8247C40.9888 11.8247 41.2744 11.9297 41.499 12.1396C41.7285 12.3496 41.8433 12.623 41.8433 12.96C41.8433 13.292 41.731 13.563 41.5063 13.7729C41.2817 13.978 40.9937 14.0806 40.6421 14.0806C40.2954 14.0806 40.0098 13.978 39.7852 13.7729C39.5605 13.563 39.4482 13.292 39.4482 12.96ZM50.8374 10.1108C50.8374 11.3315 50.5591 12.3105 50.0024 13.0479C49.4507 13.7803 48.7036 14.1465 47.7612 14.1465C46.9604 14.1465 46.3135 13.8682 45.8203 13.3115V17.0469H43.7036V6.0752H45.6665L45.7397 6.85156C46.2524 6.23633 46.9214 5.92871 47.7466 5.92871C48.7231 5.92871 49.4824 6.29004 50.0244 7.0127C50.5664 7.73535 50.8374 8.73145 50.8374 10.001V10.1108ZM48.7207 9.95703C48.7207 9.21973 48.5889 8.65088 48.3252 8.25049C48.0664 7.8501 47.688 7.6499 47.1899 7.6499C46.5259 7.6499 46.0693 7.90381 45.8203 8.41162V11.6562C46.0791 12.1787 46.5405 12.4399 47.2046 12.4399C48.2153 12.4399 48.7207 11.6123 48.7207 9.95703ZM55.0269 11.0044L56.4917 6.0752H58.7622L55.5762 15.2305L55.4004 15.6479C54.9268 16.6831 54.1455 17.2007 53.0566 17.2007C52.749 17.2007 52.4365 17.1543 52.1191 17.0615V15.4575L52.4414 15.4648C52.8418 15.4648 53.1396 15.4038 53.335 15.2817C53.5352 15.1597 53.6914 14.957 53.8037 14.6738L54.0527 14.022L51.2769 6.0752H53.5547L55.0269 11.0044Z" transform="translate(7 6)" fill="white"/>
<path d="M1.74 7.56H3.54L3.72 9.18H3.765C4.135 8.57 4.58 8.12 5.1 7.83C5.62 7.53 6.18 7.38 6.78 7.38C7.11 7.38 7.375 7.405 7.575 7.455C7.785 7.505 8 7.58 8.22 7.68L7.77 9.525C7.54 9.455 7.33 9.405 7.14 9.375C6.96 9.335 6.73 9.315 6.45 9.315C5.99 9.315 5.535 9.45 5.085 9.72C4.645 9.99 4.265 10.46 3.945 11.13V15H1.74V7.56ZM9.90914 12.93C9.90914 12.51 9.99914 12.145 10.1791 11.835C10.3591 11.515 10.6441 11.245 11.0341 11.025C11.4341 10.805 11.9441 10.63 12.5641 10.5C13.1841 10.36 13.9341 10.265 14.8141 10.215C14.7741 9.875 14.6241 9.61 14.3641 9.42C14.1141 9.23 13.7341 9.135 13.2241 9.135C12.8641 9.135 12.4991 9.2 12.1291 9.33C11.7691 9.45 11.3791 9.615 10.9591 9.825L10.1791 8.385C10.6891 8.095 11.2341 7.855 11.8141 7.665C12.4041 7.475 13.0191 7.38 13.6591 7.38C14.6991 7.38 15.5191 7.655 16.1191 8.205C16.7191 8.755 17.0191 9.6 17.0191 10.74V15H15.2191L15.0541 14.16H14.9941C14.6141 14.45 14.1991 14.695 13.7491 14.895C13.2991 15.085 12.8341 15.18 12.3541 15.18C11.9741 15.18 11.6341 15.12 11.3341 15C11.0341 14.89 10.7791 14.735 10.5691 14.535C10.3591 14.325 10.1941 14.085 10.0741 13.815C9.96414 13.545 9.90914 13.25 9.90914 12.93ZM12.0241 12.765C12.0241 13.005 12.1141 13.185 12.2941 13.305C12.4841 13.415 12.7391 13.47 13.0591 13.47C13.3891 13.47 13.6991 13.405 13.9891 13.275C14.2791 13.135 14.5541 12.965 14.8141 12.765V11.535C14.2641 11.565 13.8091 11.615 13.4491 11.685C13.0891 11.755 12.8041 11.845 12.5941 11.955C12.3841 12.055 12.2341 12.175 12.1441 12.315C12.0641 12.455 12.0241 12.605 12.0241 12.765ZM20.5983 9.285H18.7233V7.65L20.7033 7.56L20.9883 5.58H22.8033V7.56H25.9533V9.285H22.8033V11.895C22.8033 12.465 22.9283 12.87 23.1783 13.11C23.4283 13.34 23.8233 13.455 24.3633 13.455C24.6533 13.455 24.9183 13.43 25.1583 13.38C25.3983 13.33 25.6283 13.265 25.8483 13.185L26.2383 14.775C25.9083 14.875 25.5383 14.965 25.1283 15.045C24.7283 15.135 24.2883 15.18 23.8083 15.18C23.2183 15.18 22.7183 15.1 22.3083 14.94C21.8983 14.78 21.5633 14.56 21.3033 14.28C21.0533 13.99 20.8733 13.645 20.7633 13.245C20.6533 12.845 20.5983 12.4 20.5983 11.91V9.285ZM28.1674 7.56H33.3574V15H31.1524V9.285H28.1674V7.56ZM32.1574 6.465C31.7274 6.465 31.3724 6.345 31.0924 6.105C30.8224 5.865 30.6874 5.54 30.6874 5.13C30.6874 4.72 30.8224 4.39 31.0924 4.14C31.3724 3.88 31.7274 3.75 32.1574 3.75C32.5874 3.75 32.9374 3.88 33.2074 4.14C33.4874 4.39 33.6274 4.72 33.6274 5.13C33.6274 5.54 33.4874 5.865 33.2074 6.105C32.9374 6.345 32.5874 6.465 32.1574 6.465ZM37.0566 7.56H38.8566L39.0216 8.55H39.0816C39.4016 8.23 39.7666 7.955 40.1766 7.725C40.5966 7.495 41.0866 7.38 41.6466 7.38C42.4866 7.38 43.1016 7.65 43.4916 8.19C43.8816 8.73 44.0766 9.47 44.0766 10.41V15H41.8716V10.695C41.8716 10.195 41.7916 9.83 41.6316 9.6C41.4716 9.37 41.1866 9.255 40.7766 9.255C40.4766 9.255 40.2116 9.32 39.9816 9.45C39.7616 9.58 39.5216 9.775 39.2616 10.035V15H37.0566V7.56ZM47.5507 15.93C47.5507 16.21 47.7157 16.42 48.0457 16.56C48.3857 16.71 48.8507 16.785 49.4407 16.785C50.0407 16.785 50.5257 16.695 50.8957 16.515C51.2657 16.345 51.4507 16.13 51.4507 15.87C51.4507 15.63 51.3407 15.47 51.1207 15.39C50.9007 15.32 50.5757 15.285 50.1457 15.285H49.2157C48.9457 15.285 48.7207 15.275 48.5407 15.255C48.3707 15.245 48.2157 15.225 48.0757 15.195C47.8857 15.315 47.7507 15.43 47.6707 15.54C47.5907 15.66 47.5507 15.79 47.5507 15.93ZM45.7507 16.26C45.7507 15.65 46.1357 15.155 46.9057 14.775V14.715C46.7057 14.585 46.5307 14.42 46.3807 14.22C46.2307 14.02 46.1557 13.76 46.1557 13.44C46.1557 13.19 46.2357 12.94 46.3957 12.69C46.5657 12.44 46.7807 12.225 47.0407 12.045V11.985C46.7707 11.805 46.5407 11.555 46.3507 11.235C46.1607 10.905 46.0657 10.52 46.0657 10.08C46.0657 9.63 46.1507 9.24 46.3207 8.91C46.5007 8.57 46.7357 8.29 47.0257 8.07C47.3157 7.84 47.6507 7.67 48.0307 7.56C48.4207 7.44 48.8257 7.38 49.2457 7.38C49.7057 7.38 50.1157 7.44 50.4757 7.56H53.4907V9.165H51.9757C52.0657 9.275 52.1457 9.42 52.2157 9.6C52.2857 9.77 52.3207 9.955 52.3207 10.155C52.3207 10.585 52.2407 10.955 52.0807 11.265C51.9207 11.575 51.7007 11.835 51.4207 12.045C51.1507 12.245 50.8257 12.395 50.4457 12.495C50.0757 12.595 49.6757 12.645 49.2457 12.645C48.9257 12.645 48.5857 12.595 48.2257 12.495C48.1157 12.575 48.0307 12.655 47.9707 12.735C47.9207 12.815 47.8957 12.915 47.8957 13.035C47.8957 13.235 47.9957 13.38 48.1957 13.47C48.3957 13.56 48.7157 13.605 49.1557 13.605H50.5357C51.5157 13.605 52.2607 13.75 52.7707 14.04C53.2907 14.33 53.5507 14.81 53.5507 15.48C53.5507 15.87 53.4457 16.23 53.2357 16.56C53.0257 16.89 52.7307 17.17 52.3507 17.4C51.9707 17.64 51.5057 17.825 50.9557 17.955C50.4057 18.095 49.7957 18.165 49.1257 18.165C48.6457 18.165 48.1957 18.125 47.7757 18.045C47.3657 17.975 47.0107 17.86 46.7107 17.7C46.4107 17.55 46.1757 17.355 46.0057 17.115C45.8357 16.875 45.7507 16.59 45.7507 16.26ZM49.2457 11.31C49.5557 11.31 49.8207 11.21 50.0407 11.01C50.2707 10.8 50.3857 10.49 50.3857 10.08C50.3857 9.68 50.2707 9.38 50.0407 9.18C49.8207 8.97 49.5557 8.865 49.2457 8.865C48.9357 8.865 48.6707 8.97 48.4507 9.18C48.2407 9.38 48.1357 9.68 48.1357 10.08C48.1357 10.49 48.2407 10.8 48.4507 11.01C48.6707 11.21 48.9357 11.31 49.2457 11.31ZM55.7498 12.66C56.1798 12.93 56.6098 13.145 57.0398 13.305C57.4798 13.465 57.9498 13.545 58.4498 13.545C58.9598 13.545 59.3248 13.49 59.5448 13.38C59.7648 13.27 59.8748 13.115 59.8748 12.915C59.8748 12.685 59.6898 12.5 59.3198 12.36C58.9598 12.21 58.4798 12.05 57.8798 11.88C57.5498 11.79 57.2248 11.685 56.9048 11.565C56.5948 11.435 56.3148 11.285 56.0648 11.115C55.8148 10.935 55.6098 10.73 55.4498 10.5C55.2998 10.27 55.2248 10.005 55.2248 9.705C55.2248 9.365 55.3048 9.05 55.4648 8.76C55.6248 8.47 55.8498 8.225 56.1398 8.025C56.4398 7.825 56.7998 7.67 57.2198 7.56C57.6498 7.44 58.1298 7.38 58.6598 7.38C59.3198 7.38 59.9198 7.49 60.4598 7.71C61.0098 7.92 61.4798 8.15 61.8698 8.4L60.8798 9.72C60.5398 9.52 60.1898 9.355 59.8298 9.225C59.4698 9.085 59.0948 9.015 58.7048 9.015C58.2348 9.015 57.8998 9.065 57.6998 9.165C57.5098 9.265 57.4148 9.41 57.4148 9.6C57.4148 9.71 57.4648 9.81 57.5648 9.9C57.6648 9.99 57.7998 10.07 57.9698 10.14C58.1398 10.21 58.3398 10.28 58.5698 10.35C58.8098 10.41 59.0598 10.475 59.3198 10.545C59.6898 10.645 60.0398 10.76 60.3698 10.89C60.6998 11.01 60.9898 11.155 61.2398 11.325C61.4898 11.495 61.6898 11.7 61.8398 11.94C61.9898 12.18 62.0648 12.46 62.0648 12.78C62.0648 13.12 61.9848 13.435 61.8248 13.725C61.6648 14.015 61.4298 14.27 61.1198 14.49C60.8198 14.7 60.4398 14.87 59.9798 15C59.5298 15.12 59.0048 15.18 58.4048 15.18C57.7348 15.18 57.0798 15.07 56.4398 14.85C55.7998 14.63 55.2398 14.36 54.7598 14.04L55.7498 12.66ZM73.0031 7.53H79.9031V9.09H73.0031V7.53ZM73.0031 10.995H79.9031V12.555H73.0031V10.995ZM92.9564 4.38H97.3814V5.55H94.6364V16.11H97.3814V17.28H92.9564V4.38ZM103.241 16.11V5.55H100.511V4.38H104.936V17.28H100.511V16.11H103.241ZM37.7166 26.56H39.5166L39.6966 28.18H39.7416C40.1116 27.57 40.5566 27.12 41.0766 26.83C41.5966 26.53 42.1566 26.38 42.7566 26.38C43.0866 26.38 43.3516 26.405 43.5516 26.455C43.7616 26.505 43.9766 26.58 44.1966 26.68L43.7466 28.525C43.5166 28.455 43.3066 28.405 43.1166 28.375C42.9366 28.335 42.7066 28.315 42.4266 28.315C41.9666 28.315 41.5116 28.45 41.0616 28.72C40.6216 28.99 40.2416 29.46 39.9216 30.13V34H37.7166V26.56ZM45.6757 30.28C45.6757 29.66 45.7807 29.11 45.9907 28.63C46.2007 28.14 46.4807 27.73 46.8307 27.4C47.1907 27.07 47.5957 26.82 48.0457 26.65C48.5057 26.47 48.9807 26.38 49.4707 26.38C49.9607 26.38 50.4307 26.47 50.8807 26.65C51.3407 26.82 51.7457 27.07 52.0957 27.4C52.4557 27.73 52.7407 28.14 52.9507 28.63C53.1607 29.11 53.2657 29.66 53.2657 30.28C53.2657 30.9 53.1607 31.455 52.9507 31.945C52.7407 32.425 52.4557 32.83 52.0957 33.16C51.7457 33.49 51.3407 33.745 50.8807 33.925C50.4307 34.095 49.9607 34.18 49.4707 34.18C48.9807 34.18 48.5057 34.095 48.0457 33.925C47.5957 33.745 47.1907 33.49 46.8307 33.16C46.4807 32.83 46.2007 32.425 45.9907 31.945C45.7807 31.455 45.6757 30.9 45.6757 30.28ZM47.9407 30.28C47.9407 30.93 48.0657 31.445 48.3157 31.825C48.5757 32.205 48.9607 32.395 49.4707 32.395C49.9807 32.395 50.3607 32.205 50.6107 31.825C50.8707 31.445 51.0007 30.93 51.0007 30.28C51.0007 29.63 50.8707 29.115 50.6107 28.735C50.3607 28.355 49.9807 28.165 49.4707 28.165C48.9607 28.165 48.5757 28.355 48.3157 28.735C48.0657 29.115 47.9407 29.63 47.9407 30.28ZM54.0248 26.56H56.1848L56.6348 30.01C56.6848 30.38 56.7248 30.745 56.7548 31.105C56.7948 31.465 56.8398 31.835 56.8898 32.215H56.9348C56.9848 31.835 57.0348 31.46 57.0848 31.09C57.1348 30.72 57.1998 30.36 57.2798 30.01L57.7448 27.55H59.2898L59.7848 30.01C59.8548 30.38 59.9198 30.745 59.9798 31.105C60.0398 31.465 60.0948 31.835 60.1448 32.215H60.2048C60.2548 31.835 60.2948 31.465 60.3248 31.105C60.3548 30.745 60.3948 30.38 60.4448 30.01L60.8948 26.56H62.9048L61.7498 34H59.1998L58.7798 31.525C58.7298 31.175 58.6798 30.825 58.6298 30.475C58.5898 30.115 58.5448 29.735 58.4948 29.335H58.4348C58.4048 29.605 58.3698 29.91 58.3298 30.25C58.2998 30.59 58.2448 31.015 58.1648 31.525L57.7598 34H55.2548L54.0248 26.56ZM99.8505 31.93C99.8505 31.51 99.9405 31.145 100.121 30.835C100.301 30.515 100.586 30.245 100.976 30.025C101.376 29.805 101.886 29.63 102.506 29.5C103.126 29.36 103.876 29.265 104.756 29.215C104.716 28.875 104.566 28.61 104.306 28.42C104.056 28.23 103.676 28.135 103.166 28.135C102.806 28.135 102.441 28.2 102.071 28.33C101.711 28.45 101.321 28.615 100.901 28.825L100.121 27.385C100.631 27.095 101.176 26.855 101.756 26.665C102.346 26.475 102.961 26.38 103.601 26.38C104.641 26.38 105.461 26.655 106.061 27.205C106.661 27.755 106.961 28.6 106.961 29.74V34H105.161L104.996 33.16H104.936C104.556 33.45 104.141 33.695 103.691 33.895C103.241 34.085 102.776 34.18 102.296 34.18C101.916 34.18 101.576 34.12 101.276 34C100.976 33.89 100.721 33.735 100.511 33.535C100.301 33.325 100.136 33.085 100.016 32.815C99.9055 32.545 99.8505 32.25 99.8505 31.93ZM101.966 31.765C101.966 32.005 102.056 32.185 102.236 32.305C102.426 32.415 102.681 32.47 103.001 32.47C103.331 32.47 103.641 32.405 103.931 32.275C104.221 32.135 104.496 31.965 104.756 31.765V30.535C104.206 30.565 103.751 30.615 103.391 30.685C103.031 30.755 102.746 30.845 102.536 30.955C102.326 31.055 102.176 31.175 102.086 31.315C102.006 31.455 101.966 31.605 101.966 31.765ZM111.215 34.585V36.76H109.01V26.56H110.81L110.975 27.31H111.02C111.32 27.04 111.665 26.82 112.055 26.65C112.445 26.47 112.84 26.38 113.24 26.38C113.7 26.38 114.115 26.47 114.485 26.65C114.855 26.83 115.17 27.085 115.43 27.415C115.69 27.745 115.885 28.145 116.015 28.615C116.155 29.075 116.225 29.59 116.225 30.16C116.225 30.8 116.135 31.37 115.955 31.87C115.775 32.36 115.535 32.78 115.235 33.13C114.935 33.47 114.59 33.73 114.2 33.91C113.82 34.09 113.42 34.18 113 34.18C112.32 34.18 111.7 33.91 111.14 33.37L111.215 34.585ZM111.215 31.885C111.425 32.065 111.64 32.195 111.86 32.275C112.09 32.345 112.3 32.38 112.49 32.38C112.91 32.38 113.26 32.21 113.54 31.87C113.82 31.52 113.96 30.96 113.96 30.19C113.96 28.85 113.505 28.18 112.595 28.18C112.125 28.18 111.665 28.41 111.215 28.87V31.885ZM120.209 34.585V36.76H118.004V26.56H119.804L119.969 27.31H120.014C120.314 27.04 120.659 26.82 121.049 26.65C121.439 26.47 121.834 26.38 122.234 26.38C122.694 26.38 123.109 26.47 123.479 26.65C123.849 26.83 124.164 27.085 124.424 27.415C124.684 27.745 124.879 28.145 125.009 28.615C125.149 29.075 125.219 29.59 125.219 30.16C125.219 30.8 125.129 31.37 124.949 31.87C124.769 32.36 124.529 32.78 124.229 33.13C123.929 33.47 123.584 33.73 123.194 33.91C122.814 34.09 122.414 34.18 121.994 34.18C121.314 34.18 120.694 33.91 120.134 33.37L120.209 34.585ZM120.209 31.885C120.419 32.065 120.634 32.195 120.854 32.275C121.084 32.345 121.294 32.38 121.484 32.38C121.904 32.38 122.254 32.21 122.534 31.87C122.814 31.52 122.954 30.96 122.954 30.19C122.954 28.85 122.499 28.18 121.589 28.18C121.119 28.18 120.659 28.41 120.209 28.87V31.885ZM127.703 31.66C128.133 31.93 128.563 32.145 128.993 32.305C129.433 32.465 129.903 32.545 130.403 32.545C130.913 32.545 131.278 32.49 131.498 32.38C131.718 32.27 131.828 32.115 131.828 31.915C131.828 31.685 131.643 31.5 131.273 31.36C130.913 31.21 130.433 31.05 129.833 30.88C129.503 30.79 129.178 30.685 128.858 30.565C128.548 30.435 128.268 30.285 128.018 30.115C127.768 29.935 127.563 29.73 127.403 29.5C127.253 29.27 127.178 29.005 127.178 28.705C127.178 28.365 127.258 28.05 127.418 27.76C127.578 27.47 127.803 27.225 128.093 27.025C128.393 26.825 128.753 26.67 129.173 26.56C129.603 26.44 130.083 26.38 130.613 26.38C131.273 26.38 131.873 26.49 132.413 26.71C132.963 26.92 133.433 27.15 133.823 27.4L132.833 28.72C132.493 28.52 132.143 28.355 131.783 28.225C131.423 28.085 131.048 28.015 130.658 28.015C130.188 28.015 129.853 28.065 129.653 28.165C129.463 28.265 129.368 28.41 129.368 28.6C129.368 28.71 129.418 28.81 129.518 28.9C129.618 28.99 129.753 29.07 129.923 29.14C130.093 29.21 130.293 29.28 130.523 29.35C130.763 29.41 131.013 29.475 131.273 29.545C131.643 29.645 131.993 29.76 132.323 29.89C132.653 30.01 132.943 30.155 133.193 30.325C133.443 30.495 133.643 30.7 133.793 30.94C133.943 31.18 134.018 31.46 134.018 31.78C134.018 32.12 133.938 32.435 133.778 32.725C133.618 33.015 133.383 33.27 133.073 33.49C132.773 33.7 132.393 33.87 131.933 34C131.483 34.12 130.958 34.18 130.358 34.18C129.688 34.18 129.033 34.07 128.393 33.85C127.753 33.63 127.193 33.36 126.713 33.04L127.703 31.66ZM143.012 34.81V36.46H135.812V34.81H143.012ZM144.611 30.28C144.611 29.67 144.701 29.125 144.881 28.645C145.061 28.165 145.296 27.76 145.586 27.43C145.886 27.09 146.226 26.83 146.606 26.65C146.986 26.47 147.381 26.38 147.791 26.38C148.221 26.38 148.581 26.455 148.871 26.605C149.161 26.745 149.436 26.935 149.696 27.175L149.621 26.02V23.485H151.826V34H150.026L149.861 33.235H149.816C149.536 33.505 149.216 33.73 148.856 33.91C148.496 34.09 148.126 34.18 147.746 34.18C147.276 34.18 146.846 34.09 146.456 33.91C146.076 33.73 145.746 33.475 145.466 33.145C145.196 32.805 144.986 32.395 144.836 31.915C144.686 31.435 144.611 30.89 144.611 30.28ZM146.876 30.25C146.876 30.99 147.001 31.53 147.251 31.87C147.501 32.21 147.856 32.38 148.316 32.38C148.566 32.38 148.796 32.33 149.006 32.23C149.216 32.12 149.421 31.94 149.621 31.69V28.675C149.421 28.495 149.216 28.37 149.006 28.3C148.806 28.22 148.596 28.18 148.376 28.18C147.966 28.18 147.611 28.35 147.311 28.69C147.021 29.03 146.876 29.55 146.876 30.25ZM153.815 31.93C153.815 31.51 153.905 31.145 154.085 30.835C154.265 30.515 154.55 30.245 154.94 30.025C155.34 29.805 155.85 29.63 156.47 29.5C157.09 29.36 157.84 29.265 158.72 29.215C158.68 28.875 158.53 28.61 158.27 28.42C158.02 28.23 157.64 28.135 157.13 28.135C156.77 28.135 156.405 28.2 156.035 28.33C155.675 28.45 155.285 28.615 154.865 28.825L154.085 27.385C154.595 27.095 155.14 26.855 155.72 26.665C156.31 26.475 156.925 26.38 157.565 26.38C158.605 26.38 159.425 26.655 160.025 27.205C160.625 27.755 160.925 28.6 160.925 29.74V34H159.125L158.96 33.16H158.9C158.52 33.45 158.105 33.695 157.655 33.895C157.205 34.085 156.74 34.18 156.26 34.18C155.88 34.18 155.54 34.12 155.24 34C154.94 33.89 154.685 33.735 154.475 33.535C154.265 33.325 154.1 33.085 153.98 32.815C153.87 32.545 153.815 32.25 153.815 31.93ZM155.93 31.765C155.93 32.005 156.02 32.185 156.2 32.305C156.39 32.415 156.645 32.47 156.965 32.47C157.295 32.47 157.605 32.405 157.895 32.275C158.185 32.135 158.46 31.965 158.72 31.765V30.535C158.17 30.565 157.715 30.615 157.355 30.685C156.995 30.755 156.71 30.845 156.5 30.955C156.29 31.055 156.14 31.175 156.05 31.315C155.97 31.455 155.93 31.605 155.93 31.765ZM164.505 28.285H162.63V26.65L164.61 26.56L164.895 24.58H166.71V26.56H169.86V28.285H166.71V30.895C166.71 31.465 166.835 31.87 167.085 32.11C167.335 32.34 167.73 32.455 168.27 32.455C168.56 32.455 168.825 32.43 169.065 32.38C169.305 32.33 169.535 32.265 169.755 32.185L170.145 33.775C169.815 33.875 169.445 33.965 169.035 34.045C168.635 34.135 168.195 34.18 167.715 34.18C167.125 34.18 166.625 34.1 166.215 33.94C165.805 33.78 165.47 33.56 165.21 33.28C164.96 32.99 164.78 32.645 164.67 32.245C164.56 31.845 164.505 31.4 164.505 30.91V28.285ZM171.804 31.93C171.804 31.51 171.894 31.145 172.074 30.835C172.254 30.515 172.539 30.245 172.929 30.025C173.329 29.805 173.839 29.63 174.459 29.5C175.079 29.36 175.829 29.265 176.709 29.215C176.669 28.875 176.519 28.61 176.259 28.42C176.009 28.23 175.629 28.135 175.119 28.135C174.759 28.135 174.394 28.2 174.024 28.33C173.664 28.45 173.274 28.615 172.854 28.825L172.074 27.385C172.584 27.095 173.129 26.855 173.709 26.665C174.299 26.475 174.914 26.38 175.554 26.38C176.594 26.38 177.414 26.655 178.014 27.205C178.614 27.755 178.914 28.6 178.914 29.74V34H177.114L176.949 33.16H176.889C176.509 33.45 176.094 33.695 175.644 33.895C175.194 34.085 174.729 34.18 174.249 34.18C173.869 34.18 173.529 34.12 173.229 34C172.929 33.89 172.674 33.735 172.464 33.535C172.254 33.325 172.089 33.085 171.969 32.815C171.859 32.545 171.804 32.25 171.804 31.93ZM173.919 31.765C173.919 32.005 174.009 32.185 174.189 32.305C174.379 32.415 174.634 32.47 174.954 32.47C175.284 32.47 175.594 32.405 175.884 32.275C176.174 32.135 176.449 31.965 176.709 31.765V30.535C176.159 30.565 175.704 30.615 175.344 30.685C174.984 30.755 174.699 30.845 174.489 30.955C174.279 31.055 174.129 31.175 174.039 31.315C173.959 31.455 173.919 31.605 173.919 31.765ZM182.898 23.38H187.323V24.55H184.578V35.11H187.323V36.28H182.898V23.38ZM200.631 27.58C200.631 27.33 200.671 27.1 200.751 26.89C200.841 26.67 200.961 26.48 201.111 26.32C201.261 26.16 201.441 26.035 201.651 25.945C201.871 25.855 202.111 25.81 202.371 25.81C202.631 25.81 202.866 25.855 203.076 25.945C203.296 26.035 203.481 26.16 203.631 26.32C203.781 26.48 203.896 26.67 203.976 26.89C204.066 27.1 204.111 27.33 204.111 27.58C204.111 28.08 203.951 28.5 203.631 28.84C203.311 29.17 202.891 29.335 202.371 29.335C201.851 29.335 201.431 29.17 201.111 28.84C200.791 28.5 200.631 28.08 200.631 27.58ZM200.631 32.425C200.631 32.175 200.671 31.945 200.751 31.735C200.841 31.515 200.961 31.325 201.111 31.165C201.261 31.005 201.441 30.88 201.651 30.79C201.871 30.7 202.111 30.655 202.371 30.655C202.631 30.655 202.866 30.7 203.076 30.79C203.296 30.88 203.481 31.005 203.631 31.165C203.781 31.325 203.896 31.515 203.976 31.735C204.066 31.945 204.111 32.175 204.111 32.425C204.111 32.925 203.951 33.345 203.631 33.685C203.311 34.015 202.891 34.18 202.371 34.18C201.851 34.18 201.431 34.015 201.111 33.685C200.791 33.345 200.631 32.925 200.631 32.425ZM211.17 35.11V24.55H208.44V23.38H212.865V36.28H208.44V35.11H211.17ZM218.619 27.58C218.619 27.33 218.659 27.1 218.739 26.89C218.829 26.67 218.949 26.48 219.099 26.32C219.249 26.16 219.429 26.035 219.639 25.945C219.859 25.855 220.099 25.81 220.359 25.81C220.619 25.81 220.854 25.855 221.064 25.945C221.284 26.035 221.469 26.16 221.619 26.32C221.769 26.48 221.884 26.67 221.964 26.89C222.054 27.1 222.099 27.33 222.099 27.58C222.099 28.08 221.939 28.5 221.619 28.84C221.299 29.17 220.879 29.335 220.359 29.335C219.839 29.335 219.419 29.17 219.099 28.84C218.779 28.5 218.619 28.08 218.619 27.58ZM218.619 32.425C218.619 32.175 218.659 31.945 218.739 31.735C218.829 31.515 218.949 31.325 219.099 31.165C219.249 31.005 219.429 30.88 219.639 30.79C219.859 30.7 220.099 30.655 220.359 30.655C220.619 30.655 220.854 30.7 221.064 30.79C221.284 30.88 221.469 31.005 221.619 31.165C221.769 31.325 221.884 31.515 221.964 31.735C222.054 31.945 222.099 32.175 222.099 32.425C222.099 32.925 221.939 33.345 221.619 33.685C221.299 34.015 220.879 34.18 220.359 34.18C219.839 34.18 219.419 34.015 219.099 33.685C218.779 33.345 218.619 32.925 218.619 32.425ZM37.7166 44.56H39.5166L39.6966 46.18H39.7416C40.1116 45.57 40.5566 45.12 41.0766 44.83C41.5966 44.53 42.1566 44.38 42.7566 44.38C43.0866 44.38 43.3516 44.405 43.5516 44.455C43.7616 44.505 43.9766 44.58 44.1966 44.68L43.7466 46.525C43.5166 46.455 43.3066 46.405 43.1166 46.375C42.9366 46.335 42.7066 46.315 42.4266 46.315C41.9666 46.315 41.5116 46.45 41.0616 46.72C40.6216 46.99 40.2416 47.46 39.9216 48.13V52H37.7166V44.56ZM45.8857 49.93C45.8857 49.51 45.9757 49.145 46.1557 48.835C46.3357 48.515 46.6207 48.245 47.0107 48.025C47.4107 47.805 47.9207 47.63 48.5407 47.5C49.1607 47.36 49.9107 47.265 50.7907 47.215C50.7507 46.875 50.6007 46.61 50.3407 46.42C50.0907 46.23 49.7107 46.135 49.2007 46.135C48.8407 46.135 48.4757 46.2 48.1057 46.33C47.7457 46.45 47.3557 46.615 46.9357 46.825L46.1557 45.385C46.6657 45.095 47.2107 44.855 47.7907 44.665C48.3807 44.475 48.9957 44.38 49.6357 44.38C50.6757 44.38 51.4957 44.655 52.0957 45.205C52.6957 45.755 52.9957 46.6 52.9957 47.74V52H51.1957L51.0307 51.16H50.9707C50.5907 51.45 50.1757 51.695 49.7257 51.895C49.2757 52.085 48.8107 52.18 48.3307 52.18C47.9507 52.18 47.6107 52.12 47.3107 52C47.0107 51.89 46.7557 51.735 46.5457 51.535C46.3357 51.325 46.1707 51.085 46.0507 50.815C45.9407 50.545 45.8857 50.25 45.8857 49.93ZM48.0007 49.765C48.0007 50.005 48.0907 50.185 48.2707 50.305C48.4607 50.415 48.7157 50.47 49.0357 50.47C49.3657 50.47 49.6757 50.405 49.9657 50.275C50.2557 50.135 50.5307 49.965 50.7907 49.765V48.535C50.2407 48.565 49.7857 48.615 49.4257 48.685C49.0657 48.755 48.7807 48.845 48.5707 48.955C48.3607 49.055 48.2107 49.175 48.1207 49.315C48.0407 49.455 48.0007 49.605 48.0007 49.765ZM56.5748 46.285H54.6998V44.65L56.6798 44.56L56.9648 42.58H58.7798V44.56H61.9298V46.285H58.7798V48.895C58.7798 49.465 58.9048 49.87 59.1548 50.11C59.4048 50.34 59.7998 50.455 60.3398 50.455C60.6298 50.455 60.8948 50.43 61.1348 50.38C61.3748 50.33 61.6048 50.265 61.8248 50.185L62.2148 51.775C61.8848 51.875 61.5148 51.965 61.1048 52.045C60.7048 52.135 60.2648 52.18 59.7848 52.18C59.1948 52.18 58.6948 52.1 58.2848 51.94C57.8748 51.78 57.5398 51.56 57.2798 51.28C57.0298 50.99 56.8498 50.645 56.7398 50.245C56.6298 49.845 56.5748 49.4 56.5748 48.91V46.285ZM64.144 44.56H69.334V52H67.129V46.285H64.144V44.56ZM68.134 43.465C67.704 43.465 67.349 43.345 67.069 43.105C66.799 42.865 66.664 42.54 66.664 42.13C66.664 41.72 66.799 41.39 67.069 41.14C67.349 40.88 67.704 40.75 68.134 40.75C68.564 40.75 68.914 40.88 69.184 41.14C69.464 41.39 69.604 41.72 69.604 42.13C69.604 42.54 69.464 42.865 69.184 43.105C68.914 43.345 68.564 43.465 68.134 43.465ZM73.0331 44.56H74.8331L74.9981 45.55H75.0581C75.3781 45.23 75.7431 44.955 76.1531 44.725C76.5731 44.495 77.0631 44.38 77.6231 44.38C78.4631 44.38 79.0781 44.65 79.4681 45.19C79.8581 45.73 80.0531 46.47 80.0531 47.41V52H77.8481V47.695C77.8481 47.195 77.7681 46.83 77.6081 46.6C77.4481 46.37 77.1631 46.255 76.7531 46.255C76.4531 46.255 76.1881 46.32 75.9581 46.45C75.7381 46.58 75.4981 46.775 75.2381 47.035V52H73.0331V44.56ZM83.5273 52.93C83.5273 53.21 83.6923 53.42 84.0223 53.56C84.3623 53.71 84.8273 53.785 85.4173 53.785C86.0173 53.785 86.5023 53.695 86.8723 53.515C87.2423 53.345 87.4273 53.13 87.4273 52.87C87.4273 52.63 87.3173 52.47 87.0973 52.39C86.8773 52.32 86.5523 52.285 86.1223 52.285H85.1923C84.9223 52.285 84.6973 52.275 84.5173 52.255C84.3473 52.245 84.1923 52.225 84.0523 52.195C83.8623 52.315 83.7273 52.43 83.6473 52.54C83.5673 52.66 83.5273 52.79 83.5273 52.93ZM81.7273 53.26C81.7273 52.65 82.1123 52.155 82.8823 51.775V51.715C82.6823 51.585 82.5073 51.42 82.3573 51.22C82.2073 51.02 82.1323 50.76 82.1323 50.44C82.1323 50.19 82.2123 49.94 82.3723 49.69C82.5423 49.44 82.7573 49.225 83.0173 49.045V48.985C82.7473 48.805 82.5173 48.555 82.3273 48.235C82.1373 47.905 82.0423 47.52 82.0423 47.08C82.0423 46.63 82.1273 46.24 82.2973 45.91C82.4773 45.57 82.7123 45.29 83.0023 45.07C83.2923 44.84 83.6273 44.67 84.0073 44.56C84.3973 44.44 84.8023 44.38 85.2223 44.38C85.6823 44.38 86.0923 44.44 86.4523 44.56H89.4673V46.165H87.9523C88.0423 46.275 88.1223 46.42 88.1923 46.6C88.2623 46.77 88.2973 46.955 88.2973 47.155C88.2973 47.585 88.2173 47.955 88.0573 48.265C87.8973 48.575 87.6773 48.835 87.3973 49.045C87.1273 49.245 86.8023 49.395 86.4223 49.495C86.0523 49.595 85.6523 49.645 85.2223 49.645C84.9023 49.645 84.5623 49.595 84.2023 49.495C84.0923 49.575 84.0073 49.655 83.9473 49.735C83.8973 49.815 83.8723 49.915 83.8723 50.035C83.8723 50.235 83.9723 50.38 84.1723 50.47C84.3723 50.56 84.6923 50.605 85.1323 50.605H86.5123C87.4923 50.605 88.2373 50.75 88.7473 51.04C89.2673 51.33 89.5273 51.81 89.5273 52.48C89.5273 52.87 89.4223 53.23 89.2123 53.56C89.0023 53.89 88.7073 54.17 88.3273 54.4C87.9473 54.64 87.4823 54.825 86.9323 54.955C86.3823 55.095 85.7723 55.165 85.1023 55.165C84.6223 55.165 84.1723 55.125 83.7523 55.045C83.3423 54.975 82.9873 54.86 82.6873 54.7C82.3873 54.55 82.1523 54.355 81.9823 54.115C81.8123 53.875 81.7273 53.59 81.7273 53.26ZM85.2223 48.31C85.5323 48.31 85.7973 48.21 86.0173 48.01C86.2473 47.8 86.3623 47.49 86.3623 47.08C86.3623 46.68 86.2473 46.38 86.0173 46.18C85.7973 45.97 85.5323 45.865 85.2223 45.865C84.9123 45.865 84.6473 45.97 84.4273 46.18C84.2173 46.38 84.1123 46.68 84.1123 47.08C84.1123 47.49 84.2173 47.8 84.4273 48.01C84.6473 48.21 84.9123 48.31 85.2223 48.31ZM99.9855 44.53H106.886V46.09H99.9855V44.53ZM99.9855 47.995H106.886V49.555H99.9855V47.995ZM167.775 54.685C166.795 53.815 166.02 52.81 165.45 51.67C164.89 50.53 164.61 49.25 164.61 47.83C164.61 46.41 164.89 45.13 165.45 43.99C166.02 42.85 166.795 41.845 167.775 40.975L169.005 41.95C168.115 42.82 167.465 43.725 167.055 44.665C166.655 45.595 166.455 46.65 166.455 47.83C166.455 48.42 166.505 48.98 166.605 49.51C166.705 50.03 166.855 50.53 167.055 51.01C167.265 51.49 167.53 51.95 167.85 52.39C168.17 52.84 168.555 53.28 169.005 53.71L167.775 54.685ZM172.629 44.56H174.429L174.609 46.18H174.654C175.024 45.57 175.469 45.12 175.989 44.83C176.509 44.53 177.069 44.38 177.669 44.38C177.999 44.38 178.264 44.405 178.464 44.455C178.674 44.505 178.889 44.58 179.109 44.68L178.659 46.525C178.429 46.455 178.219 46.405 178.029 46.375C177.849 46.335 177.619 46.315 177.339 46.315C176.879 46.315 176.424 46.45 175.974 46.72C175.534 46.99 175.154 47.46 174.834 48.13V52H172.629V44.56ZM180.588 48.28C180.588 47.66 180.693 47.11 180.903 46.63C181.113 46.14 181.393 45.73 181.743 45.4C182.103 45.07 182.508 44.82 182.958 44.65C183.418 44.47 183.893 44.38 184.383 44.38C184.873 44.38 185.343 44.47 185.793 44.65C186.253 44.82 186.658 45.07 187.008 45.4C187.368 45.73 187.653 46.14 187.863 46.63C188.073 47.11 188.178 47.66 188.178 48.28C188.178 48.9 188.073 49.455 187.863 49.945C187.653 50.425 187.368 50.83 187.008 51.16C186.658 51.49 186.253 51.745 185.793 51.925C185.343 52.095 184.873 52.18 184.383 52.18C183.893 52.18 183.418 52.095 182.958 51.925C182.508 51.745 182.103 51.49 181.743 51.16C181.393 50.83 181.113 50.425 180.903 49.945C180.693 49.455 180.588 48.9 180.588 48.28ZM182.853 48.28C182.853 48.93 182.978 49.445 183.228 49.825C183.488 50.205 183.873 50.395 184.383 50.395C184.893 50.395 185.273 50.205 185.523 49.825C185.783 49.445 185.913 48.93 185.913 48.28C185.913 47.63 185.783 47.115 185.523 46.735C185.273 46.355 184.893 46.165 184.383 46.165C183.873 46.165 183.488 46.355 183.228 46.735C182.978 47.115 182.853 47.63 182.853 48.28ZM188.937 44.56H191.097L191.547 48.01C191.597 48.38 191.637 48.745 191.667 49.105C191.707 49.465 191.752 49.835 191.802 50.215H191.847C191.897 49.835 191.947 49.46 191.997 49.09C192.047 48.72 192.112 48.36 192.192 48.01L192.657 45.55H194.202L194.697 48.01C194.767 48.38 194.832 48.745 194.892 49.105C194.952 49.465 195.007 49.835 195.057 50.215H195.117C195.167 49.835 195.207 49.465 195.237 49.105C195.267 48.745 195.307 48.38 195.357 48.01L195.807 44.56H197.817L196.662 52H194.112L193.692 49.525C193.642 49.175 193.592 48.825 193.542 48.475C193.502 48.115 193.457 47.735 193.407 47.335H193.347C193.317 47.605 193.282 47.91 193.242 48.25C193.212 48.59 193.157 49.015 193.077 49.525L192.672 52H190.167L188.937 44.56ZM200.886 41.38H205.311V42.55H202.566V53.11H205.311V54.28H200.886V41.38ZM220.164 53.11V42.55H217.434V41.38H221.859V54.28H217.434V53.11H220.164ZM226.744 53.71C227.194 53.28 227.579 52.84 227.899 52.39C228.219 51.95 228.479 51.49 228.679 51.01C228.889 50.53 229.044 50.03 229.144 49.51C229.244 48.98 229.294 48.42 229.294 47.83C229.294 46.65 229.089 45.595 228.679 44.665C228.279 43.725 227.634 42.82 226.744 41.95L227.974 40.975C228.954 41.845 229.724 42.85 230.284 43.99C230.854 45.13 231.139 46.41 231.139 47.83C231.139 49.25 230.854 50.53 230.284 51.67C229.724 52.81 228.954 53.815 227.974 54.685L226.744 53.71ZM39.2616 71.585V73.76H37.0566V63.56H38.8566L39.0216 64.31H39.0666C39.3666 64.04 39.7116 63.82 40.1016 63.65C40.4916 63.47 40.8866 63.38 41.2866 63.38C41.7466 63.38 42.1616 63.47 42.5316 63.65C42.9016 63.83 43.2166 64.085 43.4766 64.415C43.7366 64.745 43.9316 65.145 44.0616 65.615C44.2016 66.075 44.2716 66.59 44.2716 67.16C44.2716 67.8 44.1816 68.37 44.0016 68.87C43.8216 69.36 43.5816 69.78 43.2816 70.13C42.9816 70.47 42.6366 70.73 42.2466 70.91C41.8666 71.09 41.4666 71.18 41.0466 71.18C40.3666 71.18 39.7466 70.91 39.1866 70.37L39.2616 71.585ZM39.2616 68.885C39.4716 69.065 39.6866 69.195 39.9066 69.275C40.1366 69.345 40.3466 69.38 40.5366 69.38C40.9566 69.38 41.3066 69.21 41.5866 68.87C41.8666 68.52 42.0066 67.96 42.0066 67.19C42.0066 65.85 41.5516 65.18 40.6416 65.18C40.1716 65.18 39.7116 65.41 39.2616 65.87V68.885ZM46.7107 63.56H48.5107L48.6907 65.18H48.7357C49.1057 64.57 49.5507 64.12 50.0707 63.83C50.5907 63.53 51.1507 63.38 51.7507 63.38C52.0807 63.38 52.3457 63.405 52.5457 63.455C52.7557 63.505 52.9707 63.58 53.1907 63.68L52.7407 65.525C52.5107 65.455 52.3007 65.405 52.1107 65.375C51.9307 65.335 51.7007 65.315 51.4207 65.315C50.9607 65.315 50.5057 65.45 50.0557 65.72C49.6157 65.99 49.2357 66.46 48.9157 67.13V71H46.7107V63.56ZM55.1498 63.56H60.3398V71H58.1348V65.285H55.1498V63.56ZM59.1398 62.465C58.7098 62.465 58.3548 62.345 58.0748 62.105C57.8048 61.865 57.6698 61.54 57.6698 61.13C57.6698 60.72 57.8048 60.39 58.0748 60.14C58.3548 59.88 58.7098 59.75 59.1398 59.75C59.5698 59.75 59.9198 59.88 60.1898 60.14C60.4698 60.39 60.6098 60.72 60.6098 61.13C60.6098 61.54 60.4698 61.865 60.1898 62.105C59.9198 62.345 59.5698 62.465 59.1398 62.465ZM63.964 67.28C63.964 66.66 64.079 66.11 64.309 65.63C64.549 65.14 64.864 64.73 65.254 64.4C65.654 64.07 66.114 63.82 66.634 63.65C67.154 63.47 67.699 63.38 68.269 63.38C68.859 63.38 69.389 63.475 69.859 63.665C70.339 63.855 70.739 64.095 71.059 64.385L70.039 65.75C69.489 65.36 68.939 65.165 68.389 65.165C67.749 65.165 67.229 65.355 66.829 65.735C66.429 66.115 66.229 66.63 66.229 67.28C66.229 67.93 66.419 68.445 66.799 68.825C67.189 69.205 67.694 69.395 68.314 69.395C68.704 69.395 69.064 69.325 69.394 69.185C69.724 69.045 70.019 68.88 70.279 68.69L71.179 70.085C70.729 70.465 70.229 70.745 69.679 70.925C69.139 71.095 68.614 71.18 68.104 71.18C67.514 71.18 66.969 71.095 66.469 70.925C65.969 70.745 65.529 70.49 65.149 70.16C64.779 69.83 64.489 69.425 64.279 68.945C64.069 68.455 63.964 67.9 63.964 67.28ZM72.7781 67.28C72.7781 66.67 72.8831 66.125 73.0931 65.645C73.3131 65.165 73.6031 64.76 73.9631 64.43C74.3231 64.09 74.7331 63.83 75.1931 63.65C75.6631 63.47 76.1481 63.38 76.6481 63.38C77.2181 63.38 77.7231 63.47 78.1631 63.65C78.6031 63.83 78.9681 64.08 79.2581 64.4C79.5481 64.72 79.7681 65.1 79.9181 65.54C80.0681 65.97 80.1431 66.44 80.1431 66.95C80.1431 67.15 80.1331 67.34 80.1131 67.52C80.0931 67.7 80.0731 67.835 80.0531 67.925H75.0431C75.1231 68.485 75.3631 68.89 75.7631 69.14C76.1731 69.38 76.6531 69.5 77.2031 69.5C77.5431 69.5 77.8631 69.46 78.1631 69.38C78.4731 69.29 78.7931 69.16 79.1231 68.99L79.8431 70.31C79.4231 70.58 78.9531 70.795 78.4331 70.955C77.9131 71.105 77.4031 71.18 76.9031 71.18C76.3231 71.18 75.7831 71.095 75.2831 70.925C74.7831 70.745 74.3481 70.49 73.9781 70.16C73.6081 69.82 73.3131 69.41 73.0931 68.93C72.8831 68.45 72.7781 67.9 72.7781 67.28ZM78.1481 66.47C78.1481 66.05 78.0331 65.71 77.8031 65.45C77.5731 65.19 77.2031 65.06 76.6931 65.06C76.2931 65.06 75.9381 65.175 75.6281 65.405C75.3181 65.635 75.1131 65.99 75.0131 66.47H78.1481ZM90.9914 63.53H97.8914V65.09H90.9914V63.53ZM90.9914 66.995H97.8914V68.555H90.9914V66.995ZM158.78 73.685C157.8 72.815 157.025 71.81 156.455 70.67C155.895 69.53 155.615 68.25 155.615 66.83C155.615 65.41 155.895 64.13 156.455 62.99C157.025 61.85 157.8 60.845 158.78 59.975L160.01 60.95C159.12 61.82 158.47 62.725 158.06 63.665C157.66 64.595 157.46 65.65 157.46 66.83C157.46 67.42 157.51 67.98 157.61 68.51C157.71 69.03 157.86 69.53 158.06 70.01C158.27 70.49 158.535 70.95 158.855 71.39C159.175 71.84 159.56 72.28 160.01 72.71L158.78 73.685ZM163.635 63.56H165.435L165.615 65.18H165.66C166.03 64.57 166.475 64.12 166.995 63.83C167.515 63.53 168.075 63.38 168.675 63.38C169.005 63.38 169.27 63.405 169.47 63.455C169.68 63.505 169.895 63.58 170.115 63.68L169.665 65.525C169.435 65.455 169.225 65.405 169.035 65.375C168.855 65.335 168.625 65.315 168.345 65.315C167.885 65.315 167.43 65.45 166.98 65.72C166.54 65.99 166.16 66.46 165.84 67.13V71H163.635V63.56ZM171.594 67.28C171.594 66.66 171.699 66.11 171.909 65.63C172.119 65.14 172.399 64.73 172.749 64.4C173.109 64.07 173.514 63.82 173.964 63.65C174.424 63.47 174.899 63.38 175.389 63.38C175.879 63.38 176.349 63.47 176.799 63.65C177.259 63.82 177.664 64.07 178.014 64.4C178.374 64.73 178.659 65.14 178.869 65.63C179.079 66.11 179.184 66.66 179.184 67.28C179.184 67.9 179.079 68.455 178.869 68.945C178.659 69.425 178.374 69.83 178.014 70.16C177.664 70.49 177.259 70.745 176.799 70.925C176.349 71.095 175.879 71.18 175.389 71.18C174.899 71.18 174.424 71.095 173.964 70.925C173.514 70.745 173.109 70.49 172.749 70.16C172.399 69.83 172.119 69.425 171.909 68.945C171.699 68.455 171.594 67.9 171.594 67.28ZM173.859 67.28C173.859 67.93 173.984 68.445 174.234 68.825C174.494 69.205 174.879 69.395 175.389 69.395C175.899 69.395 176.279 69.205 176.529 68.825C176.789 68.445 176.919 67.93 176.919 67.28C176.919 66.63 176.789 66.115 176.529 65.735C176.279 65.355 175.899 65.165 175.389 65.165C174.879 65.165 174.494 65.355 174.234 65.735C173.984 66.115 173.859 66.63 173.859 67.28ZM179.943 63.56H182.103L182.553 67.01C182.603 67.38 182.643 67.745 182.673 68.105C182.713 68.465 182.758 68.835 182.808 69.215H182.853C182.903 68.835 182.953 68.46 183.003 68.09C183.053 67.72 183.118 67.36 183.198 67.01L183.663 64.55H185.208L185.703 67.01C185.773 67.38 185.838 67.745 185.898 68.105C185.958 68.465 186.013 68.835 186.063 69.215H186.123C186.173 68.835 186.213 68.465 186.243 68.105C186.273 67.745 186.313 67.38 186.363 67.01L186.813 63.56H188.823L187.668 71H185.118L184.698 68.525C184.648 68.175 184.598 67.825 184.548 67.475C184.508 67.115 184.463 66.735 184.413 66.335H184.353C184.323 66.605 184.288 66.91 184.248 67.25C184.218 67.59 184.163 68.015 184.083 68.525L183.678 71H181.173L179.943 63.56ZM191.892 60.38H196.317V61.55H193.572V72.11H196.317V73.28H191.892V60.38ZM202.986 67.04V65.435C202.986 65.135 202.991 64.79 203.001 64.4C203.021 64 203.041 63.65 203.061 63.35H203.001C202.841 63.62 202.671 63.89 202.491 64.16C202.311 64.43 202.136 64.7 201.966 64.97L200.526 67.04H202.986ZM206.241 68.72H205.041V71H202.986V68.72H198.396V67.205L202.371 61.475H205.041V67.04H206.241V68.72ZM211.17 72.11V61.55H208.44V60.38H212.865V73.28H208.44V72.11H211.17ZM217.749 72.71C218.199 72.28 218.584 71.84 218.904 71.39C219.224 70.95 219.484 70.49 219.684 70.01C219.894 69.53 220.049 69.03 220.149 68.51C220.249 67.98 220.299 67.42 220.299 66.83C220.299 65.65 220.094 64.595 219.684 63.665C219.284 62.725 218.639 61.82 217.749 60.95L218.979 59.975C219.959 60.845 220.729 61.85 221.289 62.99C221.859 64.13 222.144 65.41 222.144 66.83C222.144 68.25 221.859 69.53 221.289 70.67C220.729 71.81 219.959 72.815 218.979 73.685L217.749 72.71ZM66.244 109.585V111.76H64.039V101.56H65.839L66.004 102.31H66.049C66.349 102.04 66.694 101.82 67.084 101.65C67.474 101.47 67.869 101.38 68.269 101.38C68.729 101.38 69.144 101.47 69.514 101.65C69.884 101.83 70.199 102.085 70.459 102.415C70.719 102.745 70.914 103.145 71.044 103.615C71.184 104.075 71.254 104.59 71.254 105.16C71.254 105.8 71.164 106.37 70.984 106.87C70.804 107.36 70.564 107.78 70.264 108.13C69.964 108.47 69.619 108.73 69.229 108.91C68.849 109.09 68.449 109.18 68.029 109.18C67.349 109.18 66.729 108.91 66.169 108.37L66.244 109.585ZM66.244 106.885C66.454 107.065 66.669 107.195 66.889 107.275C67.119 107.345 67.329 107.38 67.519 107.38C67.939 107.38 68.289 107.21 68.569 106.87C68.849 106.52 68.989 105.96 68.989 105.19C68.989 103.85 68.534 103.18 67.624 103.18C67.154 103.18 66.694 103.41 66.244 103.87V106.885ZM73.6931 101.56H75.4931L75.6731 103.18H75.7181C76.0881 102.57 76.5331 102.12 77.0531 101.83C77.5731 101.53 78.1331 101.38 78.7331 101.38C79.0631 101.38 79.3281 101.405 79.5281 101.455C79.7381 101.505 79.9531 101.58 80.1731 101.68L79.7231 103.525C79.4931 103.455 79.2831 103.405 79.0931 103.375C78.9131 103.335 78.6831 103.315 78.4031 103.315C77.9431 103.315 77.4881 103.45 77.0381 103.72C76.5981 103.99 76.2181 104.46 75.8981 105.13V109H73.6931V101.56ZM82.1323 101.56H87.3223V109H85.1173V103.285H82.1323V101.56ZM86.1223 100.465C85.6923 100.465 85.3373 100.345 85.0573 100.105C84.7873 99.865 84.6523 99.54 84.6523 99.13C84.6523 98.72 84.7873 98.39 85.0573 98.14C85.3373 97.88 85.6923 97.75 86.1223 97.75C86.5523 97.75 86.9023 97.88 87.1723 98.14C87.4523 98.39 87.5923 98.72 87.5923 99.13C87.5923 99.54 87.4523 99.865 87.1723 100.105C86.9023 100.345 86.5523 100.465 86.1223 100.465ZM90.9464 105.28C90.9464 104.66 91.0614 104.11 91.2914 103.63C91.5314 103.14 91.8464 102.73 92.2364 102.4C92.6364 102.07 93.0964 101.82 93.6164 101.65C94.1364 101.47 94.6814 101.38 95.2514 101.38C95.8414 101.38 96.3714 101.475 96.8414 101.665C97.3214 101.855 97.7214 102.095 98.0414 102.385L97.0214 103.75C96.4714 103.36 95.9214 103.165 95.3714 103.165C94.7314 103.165 94.2114 103.355 93.8114 103.735C93.4114 104.115 93.2114 104.63 93.2114 105.28C93.2114 105.93 93.4014 106.445 93.7814 106.825C94.1714 107.205 94.6764 107.395 95.2964 107.395C95.6864 107.395 96.0464 107.325 96.3764 107.185C96.7064 107.045 97.0014 106.88 97.2614 106.69L98.1614 108.085C97.7114 108.465 97.2114 108.745 96.6614 108.925C96.1214 109.095 95.5964 109.18 95.0864 109.18C94.4964 109.18 93.9514 109.095 93.4514 108.925C92.9514 108.745 92.5114 108.49 92.1314 108.16C91.7614 107.83 91.4714 107.425 91.2614 106.945C91.0514 106.455 90.9464 105.9 90.9464 105.28ZM99.7605 105.28C99.7605 104.67 99.8655 104.125 100.076 103.645C100.296 103.165 100.586 102.76 100.946 102.43C101.306 102.09 101.716 101.83 102.176 101.65C102.646 101.47 103.131 101.38 103.631 101.38C104.201 101.38 104.706 101.47 105.146 101.65C105.586 101.83 105.951 102.08 106.241 102.4C106.531 102.72 106.751 103.1 106.901 103.54C107.051 103.97 107.126 104.44 107.126 104.95C107.126 105.15 107.116 105.34 107.096 105.52C107.076 105.7 107.056 105.835 107.036 105.925H102.026C102.106 106.485 102.346 106.89 102.746 107.14C103.156 107.38 103.636 107.5 104.186 107.5C104.526 107.5 104.846 107.46 105.146 107.38C105.456 107.29 105.776 107.16 106.106 106.99L106.826 108.31C106.406 108.58 105.936 108.795 105.416 108.955C104.896 109.105 104.386 109.18 103.886 109.18C103.306 109.18 102.766 109.095 102.266 108.925C101.766 108.745 101.331 108.49 100.961 108.16C100.591 107.82 100.296 107.41 100.076 106.93C99.8655 106.45 99.7605 105.9 99.7605 105.28ZM105.131 104.47C105.131 104.05 105.016 103.71 104.786 103.45C104.556 103.19 104.186 103.06 103.676 103.06C103.276 103.06 102.921 103.175 102.611 103.405C102.301 103.635 102.096 103.99 101.996 104.47H105.131ZM117.974 101.53H124.874V103.09H117.974V101.53ZM117.974 104.995H124.874V106.555H117.974V104.995ZM126.968 101.53H133.868V103.09H126.968V101.53ZM126.968 104.995H133.868V106.555H126.968V104.995ZM155.66 107.425C155.66 107.175 155.7 106.945 155.78 106.735C155.87 106.515 155.99 106.325 156.14 106.165C156.29 106.005 156.47 105.88 156.68 105.79C156.9 105.7 157.14 105.655 157.4 105.655C157.66 105.655 157.895 105.7 158.105 105.79C158.325 105.88 158.51 106.005 158.66 106.165C158.81 106.325 158.925 106.515 159.005 106.735C159.095 106.945 159.14 107.175 159.14 107.425C159.14 107.925 158.98 108.345 158.66 108.685C158.34 109.015 157.92 109.18 157.4 109.18C156.88 109.18 156.46 109.015 156.14 108.685C155.82 108.345 155.66 107.925 155.66 107.425ZM173.649 102.58C173.649 102.33 173.689 102.1 173.769 101.89C173.859 101.67 173.979 101.48 174.129 101.32C174.279 101.16 174.459 101.035 174.669 100.945C174.889 100.855 175.129 100.81 175.389 100.81C175.649 100.81 175.884 100.855 176.094 100.945C176.314 101.035 176.499 101.16 176.649 101.32C176.799 101.48 176.914 101.67 176.994 101.89C177.084 102.1 177.129 102.33 177.129 102.58C177.129 103.08 176.969 103.5 176.649 103.84C176.329 104.17 175.909 104.335 175.389 104.335C174.869 104.335 174.449 104.17 174.129 103.84C173.809 103.5 173.649 103.08 173.649 102.58ZM173.649 107.425C173.649 107.175 173.689 106.945 173.769 106.735C173.859 106.515 173.979 106.325 174.129 106.165C174.279 106.005 174.459 105.88 174.669 105.79C174.889 105.7 175.129 105.655 175.389 105.655C175.649 105.655 175.884 105.7 176.094 105.79C176.314 105.88 176.499 106.005 176.649 106.165C176.799 106.325 176.914 106.515 176.994 106.735C177.084 106.945 177.129 107.175 177.129 107.425C177.129 107.925 176.969 108.345 176.649 108.685C176.329 109.015 175.909 109.18 175.389 109.18C174.869 109.18 174.449 109.015 174.129 108.685C173.809 108.345 173.649 107.925 173.649 107.425ZM73.6931 120.56H75.4931L75.6731 122.18H75.7181C76.0881 121.57 76.5331 121.12 77.0531 120.83C77.5731 120.53 78.1331 120.38 78.7331 120.38C79.0631 120.38 79.3281 120.405 79.5281 120.455C79.7381 120.505 79.9531 120.58 80.1731 120.68L79.7231 122.525C79.4931 122.455 79.2831 122.405 79.0931 122.375C78.9131 122.335 78.6831 122.315 78.4031 122.315C77.9431 122.315 77.4881 122.45 77.0381 122.72C76.5981 122.99 76.2181 123.46 75.8981 124.13V128H73.6931V120.56ZM81.8623 125.93C81.8623 125.51 81.9523 125.145 82.1323 124.835C82.3123 124.515 82.5973 124.245 82.9873 124.025C83.3873 123.805 83.8973 123.63 84.5173 123.5C85.1373 123.36 85.8873 123.265 86.7673 123.215C86.7273 122.875 86.5773 122.61 86.3173 122.42C86.0673 122.23 85.6873 122.135 85.1773 122.135C84.8173 122.135 84.4523 122.2 84.0823 122.33C83.7223 122.45 83.3323 122.615 82.9123 122.825L82.1323 121.385C82.6423 121.095 83.1873 120.855 83.7673 120.665C84.3573 120.475 84.9723 120.38 85.6123 120.38C86.6523 120.38 87.4723 120.655 88.0723 121.205C88.6723 121.755 88.9723 122.6 88.9723 123.74V128H87.1723L87.0073 127.16H86.9473C86.5673 127.45 86.1523 127.695 85.7023 127.895C85.2523 128.085 84.7873 128.18 84.3073 128.18C83.9273 128.18 83.5873 128.12 83.2873 128C82.9873 127.89 82.7323 127.735 82.5223 127.535C82.3123 127.325 82.1473 127.085 82.0273 126.815C81.9173 126.545 81.8623 126.25 81.8623 125.93ZM83.9773 125.765C83.9773 126.005 84.0673 126.185 84.2473 126.305C84.4373 126.415 84.6923 126.47 85.0123 126.47C85.3423 126.47 85.6523 126.405 85.9423 126.275C86.2323 126.135 86.5073 125.965 86.7673 125.765V124.535C86.2173 124.565 85.7623 124.615 85.4023 124.685C85.0423 124.755 84.7573 124.845 84.5473 124.955C84.3373 125.055 84.1873 125.175 84.0973 125.315C84.0173 125.455 83.9773 125.605 83.9773 125.765ZM92.5514 122.285H90.6764V120.65L92.6564 120.56L92.9414 118.58H94.7564V120.56H97.9064V122.285H94.7564V124.895C94.7564 125.465 94.8814 125.87 95.1314 126.11C95.3814 126.34 95.7764 126.455 96.3164 126.455C96.6064 126.455 96.8714 126.43 97.1114 126.38C97.3514 126.33 97.5814 126.265 97.8014 126.185L98.1914 127.775C97.8614 127.875 97.4914 127.965 97.0814 128.045C96.6814 128.135 96.2414 128.18 95.7614 128.18C95.1714 128.18 94.6714 128.1 94.2614 127.94C93.8514 127.78 93.5164 127.56 93.2564 127.28C93.0064 126.99 92.8264 126.645 92.7164 126.245C92.6064 125.845 92.5514 125.4 92.5514 124.91V122.285ZM100.121 120.56H105.311V128H103.106V122.285H100.121V120.56ZM104.111 119.465C103.681 119.465 103.326 119.345 103.046 119.105C102.776 118.865 102.641 118.54 102.641 118.13C102.641 117.72 102.776 117.39 103.046 117.14C103.326 116.88 103.681 116.75 104.111 116.75C104.541 116.75 104.891 116.88 105.161 117.14C105.441 117.39 105.581 117.72 105.581 118.13C105.581 118.54 105.441 118.865 105.161 119.105C104.891 119.345 104.541 119.465 104.111 119.465ZM109.01 120.56H110.81L110.975 121.55H111.035C111.355 121.23 111.72 120.955 112.13 120.725C112.55 120.495 113.04 120.38 113.6 120.38C114.44 120.38 115.055 120.65 115.445 121.19C115.835 121.73 116.03 122.47 116.03 123.41V128H113.825V123.695C113.825 123.195 113.745 122.83 113.585 122.6C113.425 122.37 113.14 122.255 112.73 122.255C112.43 122.255 112.165 122.32 111.935 122.45C111.715 122.58 111.475 122.775 111.215 123.035V128H109.01V120.56ZM119.504 128.93C119.504 129.21 119.669 129.42 119.999 129.56C120.339 129.71 120.804 129.785 121.394 129.785C121.994 129.785 122.479 129.695 122.849 129.515C123.219 129.345 123.404 129.13 123.404 128.87C123.404 128.63 123.294 128.47 123.074 128.39C122.854 128.32 122.529 128.285 122.099 128.285H121.169C120.899 128.285 120.674 128.275 120.494 128.255C120.324 128.245 120.169 128.225 120.029 128.195C119.839 128.315 119.704 128.43 119.624 128.54C119.544 128.66 119.504 128.79 119.504 128.93ZM117.704 129.26C117.704 128.65 118.089 128.155 118.859 127.775V127.715C118.659 127.585 118.484 127.42 118.334 127.22C118.184 127.02 118.109 126.76 118.109 126.44C118.109 126.19 118.189 125.94 118.349 125.69C118.519 125.44 118.734 125.225 118.994 125.045V124.985C118.724 124.805 118.494 124.555 118.304 124.235C118.114 123.905 118.019 123.52 118.019 123.08C118.019 122.63 118.104 122.24 118.274 121.91C118.454 121.57 118.689 121.29 118.979 121.07C119.269 120.84 119.604 120.67 119.984 120.56C120.374 120.44 120.779 120.38 121.199 120.38C121.659 120.38 122.069 120.44 122.429 120.56H125.444V122.165H123.929C124.019 122.275 124.099 122.42 124.169 122.6C124.239 122.77 124.274 122.955 124.274 123.155C124.274 123.585 124.194 123.955 124.034 124.265C123.874 124.575 123.654 124.835 123.374 125.045C123.104 125.245 122.779 125.395 122.399 125.495C122.029 125.595 121.629 125.645 121.199 125.645C120.879 125.645 120.539 125.595 120.179 125.495C120.069 125.575 119.984 125.655 119.924 125.735C119.874 125.815 119.849 125.915 119.849 126.035C119.849 126.235 119.949 126.38 120.149 126.47C120.349 126.56 120.669 126.605 121.109 126.605H122.489C123.469 126.605 124.214 126.75 124.724 127.04C125.244 127.33 125.504 127.81 125.504 128.48C125.504 128.87 125.399 129.23 125.189 129.56C124.979 129.89 124.684 130.17 124.304 130.4C123.924 130.64 123.459 130.825 122.909 130.955C122.359 131.095 121.749 131.165 121.079 131.165C120.599 131.165 120.149 131.125 119.729 131.045C119.319 130.975 118.964 130.86 118.664 130.7C118.364 130.55 118.129 130.355 117.959 130.115C117.789 129.875 117.704 129.59 117.704 129.26ZM121.199 124.31C121.509 124.31 121.774 124.21 121.994 124.01C122.224 123.8 122.339 123.49 122.339 123.08C122.339 122.68 122.224 122.38 121.994 122.18C121.774 121.97 121.509 121.865 121.199 121.865C120.889 121.865 120.624 121.97 120.404 122.18C120.194 122.38 120.089 122.68 120.089 123.08C120.089 123.49 120.194 123.8 120.404 124.01C120.624 124.21 120.889 124.31 121.199 124.31ZM127.703 125.66C128.133 125.93 128.563 126.145 128.993 126.305C129.433 126.465 129.903 126.545 130.403 126.545C130.913 126.545 131.278 126.49 131.498 126.38C131.718 126.27 131.828 126.115 131.828 125.915C131.828 125.685 131.643 125.5 131.273 125.36C130.913 125.21 130.433 125.05 129.833 124.88C129.503 124.79 129.178 124.685 128.858 124.565C128.548 124.435 128.268 124.285 128.018 124.115C127.768 123.935 127.563 123.73 127.403 123.5C127.253 123.27 127.178 123.005 127.178 122.705C127.178 122.365 127.258 122.05 127.418 121.76C127.578 121.47 127.803 121.225 128.093 121.025C128.393 120.825 128.753 120.67 129.173 120.56C129.603 120.44 130.083 120.38 130.613 120.38C131.273 120.38 131.873 120.49 132.413 120.71C132.963 120.92 133.433 121.15 133.823 121.4L132.833 122.72C132.493 122.52 132.143 122.355 131.783 122.225C131.423 122.085 131.048 122.015 130.658 122.015C130.188 122.015 129.853 122.065 129.653 122.165C129.463 122.265 129.368 122.41 129.368 122.6C129.368 122.71 129.418 122.81 129.518 122.9C129.618 122.99 129.753 123.07 129.923 123.14C130.093 123.21 130.293 123.28 130.523 123.35C130.763 123.41 131.013 123.475 131.273 123.545C131.643 123.645 131.993 123.76 132.323 123.89C132.653 124.01 132.943 124.155 133.193 124.325C133.443 124.495 133.643 124.7 133.793 124.94C133.943 125.18 134.018 125.46 134.018 125.78C134.018 126.12 133.938 126.435 133.778 126.725C133.618 127.015 133.383 127.27 133.073 127.49C132.773 127.7 132.393 127.87 131.933 128C131.483 128.12 130.958 128.18 130.358 128.18C129.688 128.18 129.033 128.07 128.393 127.85C127.753 127.63 127.193 127.36 126.713 127.04L127.703 125.66ZM137.672 126.425C137.672 126.175 137.712 125.945 137.792 125.735C137.882 125.515 138.002 125.325 138.152 125.165C138.302 125.005 138.482 124.88 138.692 124.79C138.912 124.7 139.152 124.655 139.412 124.655C139.672 124.655 139.907 124.7 140.117 124.79C140.337 124.88 140.522 125.005 140.672 125.165C140.822 125.325 140.937 125.515 141.017 125.735C141.107 125.945 141.152 126.175 141.152 126.425C141.152 126.925 140.992 127.345 140.672 127.685C140.352 128.015 139.932 128.18 139.412 128.18C138.892 128.18 138.472 128.015 138.152 127.685C137.832 127.345 137.672 126.925 137.672 126.425ZM144.821 125.93C144.821 125.51 144.911 125.145 145.091 124.835C145.271 124.515 145.556 124.245 145.946 124.025C146.346 123.805 146.856 123.63 147.476 123.5C148.096 123.36 148.846 123.265 149.726 123.215C149.686 122.875 149.536 122.61 149.276 122.42C149.026 122.23 148.646 122.135 148.136 122.135C147.776 122.135 147.411 122.2 147.041 122.33C146.681 122.45 146.291 122.615 145.871 122.825L145.091 121.385C145.601 121.095 146.146 120.855 146.726 120.665C147.316 120.475 147.931 120.38 148.571 120.38C149.611 120.38 150.431 120.655 151.031 121.205C151.631 121.755 151.931 122.6 151.931 123.74V128H150.131L149.966 127.16H149.906C149.526 127.45 149.111 127.695 148.661 127.895C148.211 128.085 147.746 128.18 147.266 128.18C146.886 128.18 146.546 128.12 146.246 128C145.946 127.89 145.691 127.735 145.481 127.535C145.271 127.325 145.106 127.085 144.986 126.815C144.876 126.545 144.821 126.25 144.821 125.93ZM146.936 125.765C146.936 126.005 147.026 126.185 147.206 126.305C147.396 126.415 147.651 126.47 147.971 126.47C148.301 126.47 148.611 126.405 148.901 126.275C149.191 126.135 149.466 125.965 149.726 125.765V124.535C149.176 124.565 148.721 124.615 148.361 124.685C148.001 124.755 147.716 124.845 147.506 124.955C147.296 125.055 147.146 125.175 147.056 125.315C146.976 125.455 146.936 125.605 146.936 125.765ZM156.185 128.585V130.76H153.98V120.56H155.78L155.945 121.31H155.99C156.29 121.04 156.635 120.82 157.025 120.65C157.415 120.47 157.81 120.38 158.21 120.38C158.67 120.38 159.085 120.47 159.455 120.65C159.825 120.83 160.14 121.085 160.4 121.415C160.66 121.745 160.855 122.145 160.985 122.615C161.125 123.075 161.195 123.59 161.195 124.16C161.195 124.8 161.105 125.37 160.925 125.87C160.745 126.36 160.505 126.78 160.205 127.13C159.905 127.47 159.56 127.73 159.17 127.91C158.79 128.09 158.39 128.18 157.97 128.18C157.29 128.18 156.67 127.91 156.11 127.37L156.185 128.585ZM156.185 125.885C156.395 126.065 156.61 126.195 156.83 126.275C157.06 126.345 157.27 126.38 157.46 126.38C157.88 126.38 158.23 126.21 158.51 125.87C158.79 125.52 158.93 124.96 158.93 124.19C158.93 122.85 158.475 122.18 157.565 122.18C157.095 122.18 156.635 122.41 156.185 122.87V125.885ZM165.18 128.585V130.76H162.975V120.56H164.775L164.94 121.31H164.985C165.285 121.04 165.63 120.82 166.02 120.65C166.41 120.47 166.805 120.38 167.205 120.38C167.665 120.38 168.08 120.47 168.45 120.65C168.82 120.83 169.135 121.085 169.395 121.415C169.655 121.745 169.85 122.145 169.98 122.615C170.12 123.075 170.19 123.59 170.19 124.16C170.19 124.8 170.1 125.37 169.92 125.87C169.74 126.36 169.5 126.78 169.2 127.13C168.9 127.47 168.555 127.73 168.165 127.91C167.785 128.09 167.385 128.18 166.965 128.18C166.285 128.18 165.665 127.91 165.105 127.37L165.18 128.585ZM165.18 125.885C165.39 126.065 165.605 126.195 165.825 126.275C166.055 126.345 166.265 126.38 166.455 126.38C166.875 126.38 167.225 126.21 167.505 125.87C167.785 125.52 167.925 124.96 167.925 124.19C167.925 122.85 167.47 122.18 166.56 122.18C166.09 122.18 165.63 122.41 165.18 122.87V125.885ZM171.714 124.28C171.714 123.67 171.819 123.125 172.029 122.645C172.249 122.165 172.539 121.76 172.899 121.43C173.259 121.09 173.669 120.83 174.129 120.65C174.599 120.47 175.084 120.38 175.584 120.38C176.154 120.38 176.659 120.47 177.099 120.65C177.539 120.83 177.904 121.08 178.194 121.4C178.484 121.72 178.704 122.1 178.854 122.54C179.004 122.97 179.079 123.44 179.079 123.95C179.079 124.15 179.069 124.34 179.049 124.52C179.029 124.7 179.009 124.835 178.989 124.925H173.979C174.059 125.485 174.299 125.89 174.699 126.14C175.109 126.38 175.589 126.5 176.139 126.5C176.479 126.5 176.799 126.46 177.099 126.38C177.409 126.29 177.729 126.16 178.059 125.99L178.779 127.31C178.359 127.58 177.889 127.795 177.369 127.955C176.849 128.105 176.339 128.18 175.839 128.18C175.259 128.18 174.719 128.095 174.219 127.925C173.719 127.745 173.284 127.49 172.914 127.16C172.544 126.82 172.249 126.41 172.029 125.93C171.819 125.45 171.714 124.9 171.714 124.28ZM177.084 123.47C177.084 123.05 176.969 122.71 176.739 122.45C176.509 122.19 176.139 122.06 175.629 122.06C175.229 122.06 174.874 122.175 174.564 122.405C174.254 122.635 174.049 122.99 173.949 123.47H177.084ZM180.963 120.56H182.763L182.928 121.55H182.988C183.308 121.23 183.673 120.955 184.083 120.725C184.503 120.495 184.993 120.38 185.553 120.38C186.393 120.38 187.008 120.65 187.398 121.19C187.788 121.73 187.983 122.47 187.983 123.41V128H185.778V123.695C185.778 123.195 185.698 122.83 185.538 122.6C185.378 122.37 185.093 122.255 184.683 122.255C184.383 122.255 184.118 122.32 183.888 122.45C183.668 122.58 183.428 122.775 183.168 123.035V128H180.963V120.56ZM189.582 124.28C189.582 123.67 189.672 123.125 189.852 122.645C190.032 122.165 190.267 121.76 190.557 121.43C190.857 121.09 191.197 120.83 191.577 120.65C191.957 120.47 192.352 120.38 192.762 120.38C193.192 120.38 193.552 120.455 193.842 120.605C194.132 120.745 194.407 120.935 194.667 121.175L194.592 120.02V117.485H196.797V128H194.997L194.832 127.235H194.787C194.507 127.505 194.187 127.73 193.827 127.91C193.467 128.09 193.097 128.18 192.717 128.18C192.247 128.18 191.817 128.09 191.427 127.91C191.047 127.73 190.717 127.475 190.437 127.145C190.167 126.805 189.957 126.395 189.807 125.915C189.657 125.435 189.582 124.89 189.582 124.28ZM191.847 124.25C191.847 124.99 191.972 125.53 192.222 125.87C192.472 126.21 192.827 126.38 193.287 126.38C193.537 126.38 193.767 126.33 193.977 126.23C194.187 126.12 194.392 125.94 194.592 125.69V122.675C194.392 122.495 194.187 122.37 193.977 122.3C193.777 122.22 193.567 122.18 193.347 122.18C192.937 122.18 192.582 122.35 192.282 122.69C191.992 123.03 191.847 123.55 191.847 124.25ZM203.751 130.685C202.771 129.815 201.996 128.81 201.426 127.67C200.866 126.53 200.586 125.25 200.586 123.83C200.586 122.41 200.866 121.13 201.426 119.99C201.996 118.85 202.771 117.845 203.751 116.975L204.981 117.95C204.091 118.82 203.441 119.725 203.031 120.665C202.631 121.595 202.431 122.65 202.431 123.83C202.431 124.42 202.481 124.98 202.581 125.51C202.681 126.03 202.831 126.53 203.031 127.01C203.241 127.49 203.506 127.95 203.826 128.39C204.146 128.84 204.531 129.28 204.981 129.71L203.751 130.685ZM208.605 120.56H210.405L210.585 122.18H210.63C211 121.57 211.445 121.12 211.965 120.83C212.485 120.53 213.045 120.38 213.645 120.38C213.975 120.38 214.24 120.405 214.44 120.455C214.65 120.505 214.865 120.58 215.085 120.68L214.635 122.525C214.405 122.455 214.195 122.405 214.005 122.375C213.825 122.335 213.595 122.315 213.315 122.315C212.855 122.315 212.4 122.45 211.95 122.72C211.51 122.99 211.13 123.46 210.81 124.13V128H208.605V120.56ZM216.774 125.93C216.774 125.51 216.864 125.145 217.044 124.835C217.224 124.515 217.509 124.245 217.899 124.025C218.299 123.805 218.809 123.63 219.429 123.5C220.049 123.36 220.799 123.265 221.679 123.215C221.639 122.875 221.489 122.61 221.229 122.42C220.979 122.23 220.599 122.135 220.089 122.135C219.729 122.135 219.364 122.2 218.994 122.33C218.634 122.45 218.244 122.615 217.824 122.825L217.044 121.385C217.554 121.095 218.099 120.855 218.679 120.665C219.269 120.475 219.884 120.38 220.524 120.38C221.564 120.38 222.384 120.655 222.984 121.205C223.584 121.755 223.884 122.6 223.884 123.74V128H222.084L221.919 127.16H221.859C221.479 127.45 221.064 127.695 220.614 127.895C220.164 128.085 219.699 128.18 219.219 128.18C218.839 128.18 218.499 128.12 218.199 128C217.899 127.89 217.644 127.735 217.434 127.535C217.224 127.325 217.059 127.085 216.939 126.815C216.829 126.545 216.774 126.25 216.774 125.93ZM218.889 125.765C218.889 126.005 218.979 126.185 219.159 126.305C219.349 126.415 219.604 126.47 219.924 126.47C220.254 126.47 220.564 126.405 220.854 126.275C221.144 126.135 221.419 125.965 221.679 125.765V124.535C221.129 124.565 220.674 124.615 220.314 124.685C219.954 124.755 219.669 124.845 219.459 124.955C219.249 125.055 219.099 125.175 219.009 125.315C218.929 125.455 218.889 125.605 218.889 125.765ZM227.464 122.285H225.589V120.65L227.569 120.56L227.854 118.58H229.669V120.56H232.819V122.285H229.669V124.895C229.669 125.465 229.794 125.87 230.044 126.11C230.294 126.34 230.689 126.455 231.229 126.455C231.519 126.455 231.784 126.43 232.024 126.38C232.264 126.33 232.494 126.265 232.714 126.185L233.104 127.775C232.774 127.875 232.404 127.965 231.994 128.045C231.594 128.135 231.154 128.18 230.674 128.18C230.084 128.18 229.584 128.1 229.174 127.94C228.764 127.78 228.429 127.56 228.169 127.28C227.919 126.99 227.739 126.645 227.629 126.245C227.519 125.845 227.464 125.4 227.464 124.91V122.285ZM235.033 120.56H240.223V128H238.018V122.285H235.033V120.56ZM239.023 119.465C238.593 119.465 238.238 119.345 237.958 119.105C237.688 118.865 237.553 118.54 237.553 118.13C237.553 117.72 237.688 117.39 237.958 117.14C238.238 116.88 238.593 116.75 239.023 116.75C239.453 116.75 239.803 116.88 240.073 117.14C240.353 117.39 240.493 117.72 240.493 118.13C240.493 118.54 240.353 118.865 240.073 119.105C239.803 119.345 239.453 119.465 239.023 119.465ZM243.922 120.56H245.722L245.887 121.55H245.947C246.267 121.23 246.632 120.955 247.042 120.725C247.462 120.495 247.952 120.38 248.512 120.38C249.352 120.38 249.967 120.65 250.357 121.19C250.747 121.73 250.942 122.47 250.942 123.41V128H248.737V123.695C248.737 123.195 248.657 122.83 248.497 122.6C248.337 122.37 248.052 122.255 247.642 122.255C247.342 122.255 247.077 122.32 246.847 122.45C246.627 122.58 246.387 122.775 246.127 123.035V128H243.922V120.56ZM254.416 128.93C254.416 129.21 254.581 129.42 254.911 129.56C255.251 129.71 255.716 129.785 256.306 129.785C256.906 129.785 257.391 129.695 257.761 129.515C258.131 129.345 258.316 129.13 258.316 128.87C258.316 128.63 258.206 128.47 257.986 128.39C257.766 128.32 257.441 128.285 257.011 128.285H256.081C255.811 128.285 255.586 128.275 255.406 128.255C255.236 128.245 255.081 128.225 254.941 128.195C254.751 128.315 254.616 128.43 254.536 128.54C254.456 128.66 254.416 128.79 254.416 128.93ZM252.616 129.26C252.616 128.65 253.001 128.155 253.771 127.775V127.715C253.571 127.585 253.396 127.42 253.246 127.22C253.096 127.02 253.021 126.76 253.021 126.44C253.021 126.19 253.101 125.94 253.261 125.69C253.431 125.44 253.646 125.225 253.906 125.045V124.985C253.636 124.805 253.406 124.555 253.216 124.235C253.026 123.905 252.931 123.52 252.931 123.08C252.931 122.63 253.016 122.24 253.186 121.91C253.366 121.57 253.601 121.29 253.891 121.07C254.181 120.84 254.516 120.67 254.896 120.56C255.286 120.44 255.691 120.38 256.111 120.38C256.571 120.38 256.981 120.44 257.341 120.56H260.356V122.165H258.841C258.931 122.275 259.011 122.42 259.081 122.6C259.151 122.77 259.186 122.955 259.186 123.155C259.186 123.585 259.106 123.955 258.946 124.265C258.786 124.575 258.566 124.835 258.286 125.045C258.016 125.245 257.691 125.395 257.311 125.495C256.941 125.595 256.541 125.645 256.111 125.645C255.791 125.645 255.451 125.595 255.091 125.495C254.981 125.575 254.896 125.655 254.836 125.735C254.786 125.815 254.761 125.915 254.761 126.035C254.761 126.235 254.861 126.38 255.061 126.47C255.261 126.56 255.581 126.605 256.021 126.605H257.401C258.381 126.605 259.126 126.75 259.636 127.04C260.156 127.33 260.416 127.81 260.416 128.48C260.416 128.87 260.311 129.23 260.101 129.56C259.891 129.89 259.596 130.17 259.216 130.4C258.836 130.64 258.371 130.825 257.821 130.955C257.271 131.095 256.661 131.165 255.991 131.165C255.511 131.165 255.061 131.125 254.641 131.045C254.231 130.975 253.876 130.86 253.576 130.7C253.276 130.55 253.041 130.355 252.871 130.115C252.701 129.875 252.616 129.59 252.616 129.26ZM256.111 124.31C256.421 124.31 256.686 124.21 256.906 124.01C257.136 123.8 257.251 123.49 257.251 123.08C257.251 122.68 257.136 122.38 256.906 122.18C256.686 121.97 256.421 121.865 256.111 121.865C255.801 121.865 255.536 121.97 255.316 122.18C255.106 122.38 255.001 122.68 255.001 123.08C255.001 123.49 255.106 123.8 255.316 124.01C255.536 124.21 255.801 124.31 256.111 124.31ZM262.72 129.71C263.17 129.28 263.555 128.84 263.875 128.39C264.195 127.95 264.455 127.49 264.655 127.01C264.865 126.53 265.02 126.03 265.12 125.51C265.22 124.98 265.27 124.42 265.27 123.83C265.27 122.65 265.065 121.595 264.655 120.665C264.255 119.725 263.61 118.82 262.72 117.95L263.95 116.975C264.93 117.845 265.7 118.85 266.26 119.99C266.83 121.13 267.115 122.41 267.115 123.83C267.115 125.25 266.83 126.53 266.26 127.67C265.7 128.81 264.93 129.815 263.95 130.685L262.72 129.71Z" transform="translate(7 36)" fill="white"/>
<path d="M8.355 25.33C7.865 25.14 7.345 25.045 6.795 25.045C6.315 25.045 5.96 25.15 5.73 25.36C5.51 25.57 5.4 25.9 5.4 26.35V26.56H7.965V28.285H5.4V34H3.195V28.285H1.23V26.65L3.195 26.56V26.365C3.195 25.935 3.26 25.535 3.39 25.165C3.52 24.795 3.72 24.475 3.99 24.205C4.26 23.925 4.605 23.705 5.025 23.545C5.445 23.385 5.945 23.305 6.525 23.305C6.955 23.305 7.355 23.345 7.725 23.425C8.105 23.505 8.455 23.6 8.775 23.71L8.355 25.33ZM9.69914 30.28C9.69914 29.66 9.80414 29.11 10.0141 28.63C10.2241 28.14 10.5041 27.73 10.8541 27.4C11.2141 27.07 11.6191 26.82 12.0691 26.65C12.5291 26.47 13.0041 26.38 13.4941 26.38C13.9841 26.38 14.4541 26.47 14.9041 26.65C15.3641 26.82 15.7691 27.07 16.1191 27.4C16.4791 27.73 16.7641 28.14 16.9741 28.63C17.1841 29.11 17.2891 29.66 17.2891 30.28C17.2891 30.9 17.1841 31.455 16.9741 31.945C16.7641 32.425 16.4791 32.83 16.1191 33.16C15.7691 33.49 15.3641 33.745 14.9041 33.925C14.4541 34.095 13.9841 34.18 13.4941 34.18C13.0041 34.18 12.5291 34.095 12.0691 33.925C11.6191 33.745 11.2141 33.49 10.8541 33.16C10.5041 32.83 10.2241 32.425 10.0141 31.945C9.80414 31.455 9.69914 30.9 9.69914 30.28ZM11.9641 30.28C11.9641 30.93 12.0891 31.445 12.3391 31.825C12.5991 32.205 12.9841 32.395 13.4941 32.395C14.0041 32.395 14.3841 32.205 14.6341 31.825C14.8941 31.445 15.0241 30.93 15.0241 30.28C15.0241 29.63 14.8941 29.115 14.6341 28.735C14.3841 28.355 14.0041 28.165 13.4941 28.165C12.9841 28.165 12.5991 28.355 12.3391 28.735C12.0891 29.115 11.9641 29.63 11.9641 30.28ZM19.7283 26.56H21.5283L21.7083 28.18H21.7533C22.1233 27.57 22.5683 27.12 23.0883 26.83C23.6083 26.53 24.1683 26.38 24.7683 26.38C25.0983 26.38 25.3633 26.405 25.5633 26.455C25.7733 26.505 25.9883 26.58 26.2083 26.68L25.7583 28.525C25.5283 28.455 25.3183 28.405 25.1283 28.375C24.9483 28.335 24.7183 28.315 24.4383 28.315C23.9783 28.315 23.5233 28.45 23.0733 28.72C22.6333 28.99 22.2533 29.46 21.9333 30.13V34H19.7283V26.56ZM73.1381 26.56H78.3281V34H76.1231V28.285H73.1381V26.56ZM77.1281 25.465C76.6981 25.465 76.3431 25.345 76.0631 25.105C75.7931 24.865 75.6581 24.54 75.6581 24.13C75.6581 23.72 75.7931 23.39 76.0631 23.14C76.3431 22.88 76.6981 22.75 77.1281 22.75C77.5581 22.75 77.9081 22.88 78.1781 23.14C78.4581 23.39 78.5981 23.72 78.5981 24.13C78.5981 24.54 78.4581 24.865 78.1781 25.105C77.9081 25.345 77.5581 25.465 77.1281 25.465ZM82.0273 26.56H83.8273L83.9923 27.55H84.0523C84.3723 27.23 84.7373 26.955 85.1473 26.725C85.5673 26.495 86.0573 26.38 86.6173 26.38C87.4573 26.38 88.0723 26.65 88.4623 27.19C88.8523 27.73 89.0473 28.47 89.0473 29.41V34H86.8423V29.695C86.8423 29.195 86.7623 28.83 86.6023 28.6C86.4423 28.37 86.1573 28.255 85.7473 28.255C85.4473 28.255 85.1823 28.32 84.9523 28.45C84.7323 28.58 84.4923 28.775 84.2323 29.035V34H82.0273V26.56ZM37.1616 101.56H42.3516V109H40.1466V103.285H37.1616V101.56ZM41.1516 100.465C40.7216 100.465 40.3666 100.345 40.0866 100.105C39.8166 99.865 39.6816 99.54 39.6816 99.13C39.6816 98.72 39.8166 98.39 40.0866 98.14C40.3666 97.88 40.7216 97.75 41.1516 97.75C41.5816 97.75 41.9316 97.88 42.2016 98.14C42.4816 98.39 42.6216 98.72 42.6216 99.13C42.6216 99.54 42.4816 99.865 42.2016 100.105C41.9316 100.345 41.5816 100.465 41.1516 100.465ZM53.3257 100.33C52.8357 100.14 52.3157 100.045 51.7657 100.045C51.2857 100.045 50.9307 100.15 50.7007 100.36C50.4807 100.57 50.3707 100.9 50.3707 101.35V101.56H52.9357V103.285H50.3707V109H48.1657V103.285H46.2007V101.65L48.1657 101.56V101.365C48.1657 100.935 48.2307 100.535 48.3607 100.165C48.4907 99.795 48.6907 99.475 48.9607 99.205C49.2307 98.925 49.5757 98.705 49.9957 98.545C50.4157 98.385 50.9157 98.305 51.4957 98.305C51.9257 98.305 52.3257 98.345 52.6957 98.425C53.0757 98.505 53.4257 98.6 53.7457 98.71L53.3257 100.33Z" transform="translate(7 36)" fill="#E69F00"/>
<path d="M196.932 32.215V34H190.107V32.215H192.567V26.71H190.602V25.345C191.162 25.245 191.637 25.125 192.027 24.985C192.427 24.845 192.802 24.675 193.152 24.475H194.772V32.215H196.932ZM209.76 52C209.8 51.21 209.875 50.485 209.985 49.825C210.105 49.155 210.27 48.52 210.48 47.92C210.7 47.31 210.98 46.72 211.32 46.15C211.66 45.57 212.08 44.965 212.58 44.335H207.795V42.475H214.95V43.825C214.35 44.495 213.865 45.125 213.495 45.715C213.125 46.295 212.835 46.9 212.625 47.53C212.415 48.15 212.265 48.82 212.175 49.54C212.085 50.25 212.02 51.07 211.98 52H209.76ZM148.406 109.18C147.856 109.18 147.356 109.075 146.906 108.865C146.456 108.645 146.071 108.325 145.751 107.905C145.431 107.485 145.181 106.965 145.001 106.345C144.831 105.725 144.746 105.01 144.746 104.2C144.746 103.39 144.831 102.68 145.001 102.07C145.181 101.46 145.431 100.95 145.751 100.54C146.071 100.12 146.456 99.81 146.906 99.61C147.356 99.4 147.856 99.295 148.406 99.295C148.956 99.295 149.456 99.4 149.906 99.61C150.356 99.81 150.741 100.12 151.061 100.54C151.381 100.95 151.626 101.46 151.796 102.07C151.976 102.68 152.066 103.39 152.066 104.2C152.066 105.01 151.976 105.725 151.796 106.345C151.626 106.965 151.381 107.485 151.061 107.905C150.741 108.325 150.356 108.645 149.906 108.865C149.456 109.075 148.956 109.18 148.406 109.18ZM148.406 101.005C148.166 101.005 147.941 101.055 147.731 101.155C147.531 101.255 147.356 101.43 147.206 101.68C147.056 101.92 146.936 102.245 146.846 102.655C146.756 103.065 146.711 103.58 146.711 104.2C146.711 104.82 146.756 105.34 146.846 105.76C146.936 106.17 147.056 106.505 147.206 106.765C147.356 107.015 147.531 107.195 147.731 107.305C147.941 107.415 148.166 107.47 148.406 107.47C148.646 107.47 148.866 107.415 149.066 107.305C149.276 107.195 149.456 107.015 149.606 106.765C149.756 106.505 149.876 106.17 149.966 105.76C150.056 105.34 150.101 104.82 150.101 104.2C150.101 103.58 150.056 103.065 149.966 102.655C149.876 102.245 149.756 101.92 149.606 101.68C149.456 101.43 149.276 101.255 149.066 101.155C148.866 101.055 148.646 101.005 148.406 101.005ZM148.406 105.31C148.086 105.31 147.816 105.21 147.596 105.01C147.386 104.8 147.281 104.52 147.281 104.17C147.281 103.82 147.386 103.545 147.596 103.345C147.816 103.135 148.086 103.03 148.406 103.03C148.726 103.03 148.991 103.135 149.201 103.345C149.421 103.545 149.531 103.82 149.531 104.17C149.531 104.52 149.421 104.8 149.201 105.01C148.991 105.21 148.726 105.31 148.406 105.31ZM166.395 109.18C165.845 109.18 165.345 109.075 164.895 108.865C164.445 108.645 164.06 108.325 163.74 107.905C163.42 107.485 163.17 106.965 162.99 106.345C162.82 105.725 162.735 105.01 162.735 104.2C162.735 103.39 162.82 102.68 162.99 102.07C163.17 101.46 163.42 100.95 163.74 100.54C164.06 100.12 164.445 99.81 164.895 99.61C165.345 99.4 165.845 99.295 166.395 99.295C166.945 99.295 167.445 99.4 167.895 99.61C168.345 99.81 168.73 100.12 169.05 100.54C169.37 100.95 169.615 101.46 169.785 102.07C169.965 102.68 170.055 103.39 170.055 104.2C170.055 105.01 169.965 105.725 169.785 106.345C169.615 106.965 169.37 107.485 169.05 107.905C168.73 108.325 168.345 108.645 167.895 108.865C167.445 109.075 166.945 109.18 166.395 109.18ZM166.395 101.005C166.155 101.005 165.93 101.055 165.72 101.155C165.52 101.255 165.345 101.43 165.195 101.68C165.045 101.92 164.925 102.245 164.835 102.655C164.745 103.065 164.7 103.58 164.7 104.2C164.7 104.82 164.745 105.34 164.835 105.76C164.925 106.17 165.045 106.505 165.195 106.765C165.345 107.015 165.52 107.195 165.72 107.305C165.93 107.415 166.155 107.47 166.395 107.47C166.635 107.47 166.855 107.415 167.055 107.305C167.265 107.195 167.445 107.015 167.595 106.765C167.745 106.505 167.865 106.17 167.955 105.76C168.045 105.34 168.09 104.82 168.09 104.2C168.09 103.58 168.045 103.065 167.955 102.655C167.865 102.245 167.745 101.92 167.595 101.68C167.445 101.43 167.265 101.255 167.055 101.155C166.855 101.055 166.635 101.005 166.395 101.005ZM166.395 105.31C166.075 105.31 165.805 105.21 165.585 105.01C165.375 104.8 165.27 104.52 165.27 104.17C165.27 103.82 165.375 103.545 165.585 103.345C165.805 103.135 166.075 103.03 166.395 103.03C166.715 103.03 166.98 103.135 167.19 103.345C167.41 103.545 167.52 103.82 167.52 104.17C167.52 104.52 167.41 104.8 167.19 105.01C166.98 105.21 166.715 105.31 166.395 105.31Z" transform="translate(7 36)" fill="#F0E442"/>
<path d="M125.279 43.33C124.789 43.14 124.269 43.045 123.719 43.045C123.239 43.045 122.884 43.15 122.654 43.36C122.434 43.57 122.324 43.9 122.324 44.35V44.56H124.889V46.285H122.324V52H120.119V46.285H118.154V44.65L120.119 44.56V44.365C120.119 43.935 120.184 43.535 120.314 43.165C120.444 42.795 120.644 42.475 120.914 42.205C121.184 41.925 121.529 41.705 121.949 41.545C122.369 41.385 122.869 41.305 123.449 41.305C123.879 41.305 124.279 41.345 124.649 41.425C125.029 41.505 125.379 41.6 125.699 41.71L125.279 43.33ZM126.848 41.485H131.213V49.18C131.213 49.41 131.243 49.605 131.303 49.765C131.373 49.915 131.463 50.04 131.573 50.14C131.693 50.23 131.823 50.295 131.963 50.335C132.113 50.375 132.263 50.395 132.413 50.395C132.583 50.395 132.763 50.38 132.953 50.35C133.143 50.31 133.353 50.245 133.583 50.155L134.078 51.775C133.878 51.835 133.693 51.89 133.523 51.94C133.353 51.99 133.183 52.03 133.013 52.06C132.843 52.1 132.663 52.13 132.473 52.15C132.283 52.17 132.073 52.18 131.843 52.18C130.903 52.18 130.193 51.905 129.713 51.355C129.243 50.795 129.008 50.04 129.008 49.09V43.225H126.848V41.485ZM135.617 48.28C135.617 47.66 135.722 47.11 135.932 46.63C136.142 46.14 136.422 45.73 136.772 45.4C137.132 45.07 137.537 44.82 137.987 44.65C138.447 44.47 138.922 44.38 139.412 44.38C139.902 44.38 140.372 44.47 140.822 44.65C141.282 44.82 141.687 45.07 142.037 45.4C142.397 45.73 142.682 46.14 142.892 46.63C143.102 47.11 143.207 47.66 143.207 48.28C143.207 48.9 143.102 49.455 142.892 49.945C142.682 50.425 142.397 50.83 142.037 51.16C141.687 51.49 141.282 51.745 140.822 51.925C140.372 52.095 139.902 52.18 139.412 52.18C138.922 52.18 138.447 52.095 137.987 51.925C137.537 51.745 137.132 51.49 136.772 51.16C136.422 50.83 136.142 50.425 135.932 49.945C135.722 49.455 135.617 48.9 135.617 48.28ZM137.882 48.28C137.882 48.93 138.007 49.445 138.257 49.825C138.517 50.205 138.902 50.395 139.412 50.395C139.922 50.395 140.302 50.205 140.552 49.825C140.812 49.445 140.942 48.93 140.942 48.28C140.942 47.63 140.812 47.115 140.552 46.735C140.302 46.355 139.922 46.165 139.412 46.165C138.902 46.165 138.517 46.355 138.257 46.735C138.007 47.115 137.882 47.63 137.882 48.28ZM144.821 49.93C144.821 49.51 144.911 49.145 145.091 48.835C145.271 48.515 145.556 48.245 145.946 48.025C146.346 47.805 146.856 47.63 147.476 47.5C148.096 47.36 148.846 47.265 149.726 47.215C149.686 46.875 149.536 46.61 149.276 46.42C149.026 46.23 148.646 46.135 148.136 46.135C147.776 46.135 147.411 46.2 147.041 46.33C146.681 46.45 146.291 46.615 145.871 46.825L145.091 45.385C145.601 45.095 146.146 44.855 146.726 44.665C147.316 44.475 147.931 44.38 148.571 44.38C149.611 44.38 150.431 44.655 151.031 45.205C151.631 45.755 151.931 46.6 151.931 47.74V52H150.131L149.966 51.16H149.906C149.526 51.45 149.111 51.695 148.661 51.895C148.211 52.085 147.746 52.18 147.266 52.18C146.886 52.18 146.546 52.12 146.246 52C145.946 51.89 145.691 51.735 145.481 51.535C145.271 51.325 145.106 51.085 144.986 50.815C144.876 50.545 144.821 50.25 144.821 49.93ZM146.936 49.765C146.936 50.005 147.026 50.185 147.206 50.305C147.396 50.415 147.651 50.47 147.971 50.47C148.301 50.47 148.611 50.405 148.901 50.275C149.191 50.135 149.466 49.965 149.726 49.765V48.535C149.176 48.565 148.721 48.615 148.361 48.685C148.001 48.755 147.716 48.845 147.506 48.955C147.296 49.055 147.146 49.175 147.056 49.315C146.976 49.455 146.936 49.605 146.936 49.765ZM155.51 46.285H153.635V44.65L155.615 44.56L155.9 42.58H157.715V44.56H160.865V46.285H157.715V48.895C157.715 49.465 157.84 49.87 158.09 50.11C158.34 50.34 158.735 50.455 159.275 50.455C159.565 50.455 159.83 50.43 160.07 50.38C160.31 50.33 160.54 50.265 160.76 50.185L161.15 51.775C160.82 51.875 160.45 51.965 160.04 52.045C159.64 52.135 159.2 52.18 158.72 52.18C158.13 52.18 157.63 52.1 157.22 51.94C156.81 51.78 156.475 51.56 156.215 51.28C155.965 50.99 155.785 50.645 155.675 50.245C155.565 49.845 155.51 49.4 155.51 48.91V46.285ZM116.285 62.33C115.795 62.14 115.275 62.045 114.725 62.045C114.245 62.045 113.89 62.15 113.66 62.36C113.44 62.57 113.33 62.9 113.33 63.35V63.56H115.895V65.285H113.33V71H111.125V65.285H109.16V63.65L111.125 63.56V63.365C111.125 62.935 111.19 62.535 111.32 62.165C111.45 61.795 111.65 61.475 111.92 61.205C112.19 60.925 112.535 60.705 112.955 60.545C113.375 60.385 113.875 60.305 114.455 60.305C114.885 60.305 115.285 60.345 115.655 60.425C116.035 60.505 116.385 60.6 116.705 60.71L116.285 62.33ZM117.854 60.485H122.219V68.18C122.219 68.41 122.249 68.605 122.309 68.765C122.379 68.915 122.469 69.04 122.579 69.14C122.699 69.23 122.829 69.295 122.969 69.335C123.119 69.375 123.269 69.395 123.419 69.395C123.589 69.395 123.769 69.38 123.959 69.35C124.149 69.31 124.359 69.245 124.589 69.155L125.084 70.775C124.884 70.835 124.699 70.89 124.529 70.94C124.359 70.99 124.189 71.03 124.019 71.06C123.849 71.1 123.669 71.13 123.479 71.15C123.289 71.17 123.079 71.18 122.849 71.18C121.909 71.18 121.199 70.905 120.719 70.355C120.249 69.795 120.014 69.04 120.014 68.09V62.225H117.854V60.485ZM126.623 67.28C126.623 66.66 126.728 66.11 126.938 65.63C127.148 65.14 127.428 64.73 127.778 64.4C128.138 64.07 128.543 63.82 128.993 63.65C129.453 63.47 129.928 63.38 130.418 63.38C130.908 63.38 131.378 63.47 131.828 63.65C132.288 63.82 132.693 64.07 133.043 64.4C133.403 64.73 133.688 65.14 133.898 65.63C134.108 66.11 134.213 66.66 134.213 67.28C134.213 67.9 134.108 68.455 133.898 68.945C133.688 69.425 133.403 69.83 133.043 70.16C132.693 70.49 132.288 70.745 131.828 70.925C131.378 71.095 130.908 71.18 130.418 71.18C129.928 71.18 129.453 71.095 128.993 70.925C128.543 70.745 128.138 70.49 127.778 70.16C127.428 69.83 127.148 69.425 126.938 68.945C126.728 68.455 126.623 67.9 126.623 67.28ZM128.888 67.28C128.888 67.93 129.013 68.445 129.263 68.825C129.523 69.205 129.908 69.395 130.418 69.395C130.928 69.395 131.308 69.205 131.558 68.825C131.818 68.445 131.948 67.93 131.948 67.28C131.948 66.63 131.818 66.115 131.558 65.735C131.308 65.355 130.928 65.165 130.418 65.165C129.908 65.165 129.523 65.355 129.263 65.735C129.013 66.115 128.888 66.63 128.888 67.28ZM135.827 68.93C135.827 68.51 135.917 68.145 136.097 67.835C136.277 67.515 136.562 67.245 136.952 67.025C137.352 66.805 137.862 66.63 138.482 66.5C139.102 66.36 139.852 66.265 140.732 66.215C140.692 65.875 140.542 65.61 140.282 65.42C140.032 65.23 139.652 65.135 139.142 65.135C138.782 65.135 138.417 65.2 138.047 65.33C137.687 65.45 137.297 65.615 136.877 65.825L136.097 64.385C136.607 64.095 137.152 63.855 137.732 63.665C138.322 63.475 138.937 63.38 139.577 63.38C140.617 63.38 141.437 63.655 142.037 64.205C142.637 64.755 142.937 65.6 142.937 66.74V71H141.137L140.972 70.16H140.912C140.532 70.45 140.117 70.695 139.667 70.895C139.217 71.085 138.752 71.18 138.272 71.18C137.892 71.18 137.552 71.12 137.252 71C136.952 70.89 136.697 70.735 136.487 70.535C136.277 70.325 136.112 70.085 135.992 69.815C135.882 69.545 135.827 69.25 135.827 68.93ZM137.942 68.765C137.942 69.005 138.032 69.185 138.212 69.305C138.402 69.415 138.657 69.47 138.977 69.47C139.307 69.47 139.617 69.405 139.907 69.275C140.197 69.135 140.472 68.965 140.732 68.765V67.535C140.182 67.565 139.727 67.615 139.367 67.685C139.007 67.755 138.722 67.845 138.512 67.955C138.302 68.055 138.152 68.175 138.062 68.315C137.982 68.455 137.942 68.605 137.942 68.765ZM146.516 65.285H144.641V63.65L146.621 63.56L146.906 61.58H148.721V63.56H151.871V65.285H148.721V67.895C148.721 68.465 148.846 68.87 149.096 69.11C149.346 69.34 149.741 69.455 150.281 69.455C150.571 69.455 150.836 69.43 151.076 69.38C151.316 69.33 151.546 69.265 151.766 69.185L152.156 70.775C151.826 70.875 151.456 70.965 151.046 71.045C150.646 71.135 150.206 71.18 149.726 71.18C149.136 71.18 148.636 71.1 148.226 70.94C147.816 70.78 147.481 70.56 147.221 70.28C146.971 69.99 146.791 69.645 146.681 69.245C146.571 68.845 146.516 68.4 146.516 67.91V65.285Z" transform="translate(7 36)" fill="#56B4E9"/>
</svg>
