<svg width="242" height="250" viewBox="0 0 242 250" fill="none" xmlns="http://www.w3.org/2000/svg">
<rect width="242" height="250" fill="black"/>
<path d="M12.115 198.04V196.435C12.115 196.135 12.12 195.79 12.13 195.4C12.15 195 12.17 194.65 12.19 194.35H12.13C11.97 194.62 11.8 194.89 11.62 195.16C11.44 195.43 11.265 195.7 11.095 195.97L9.655 198.04H12.115ZM15.37 199.72H14.17V202H12.115V199.72H7.525V198.205L11.5 192.475H14.17V198.04H15.37V199.72ZM8.65 218.435C8.97 218.715 9.325 218.945 9.715 219.125C10.115 219.305 10.535 219.395 10.975 219.395C11.495 219.395 11.92 219.3 12.25 219.11C12.59 218.91 12.76 218.63 12.76 218.27C12.76 218.06 12.715 217.87 12.625 217.7C12.535 217.53 12.38 217.39 12.16 217.28C11.94 217.16 11.645 217.07 11.275 217.01C10.905 216.94 10.44 216.905 9.88 216.905V215.345C10.82 215.345 11.48 215.23 11.86 215C12.25 214.76 12.445 214.45 12.445 214.07C12.445 213.74 12.32 213.485 12.07 213.305C11.82 213.115 11.475 213.02 11.035 213.02C10.655 213.02 10.305 213.095 9.985 213.245C9.665 213.395 9.34 213.6 9.01 213.86L7.9 212.51C8.37 212.13 8.87 211.835 9.4 211.625C9.94 211.405 10.52 211.295 11.14 211.295C11.66 211.295 12.135 211.355 12.565 211.475C12.995 211.585 13.365 211.755 13.675 211.985C13.985 212.205 14.225 212.475 14.395 212.795C14.565 213.115 14.65 213.485 14.65 213.905C14.65 214.405 14.49 214.83 14.17 215.18C13.85 215.52 13.405 215.8 12.835 216.02V216.08C13.435 216.24 13.94 216.515 14.35 216.905C14.76 217.285 14.965 217.785 14.965 218.405C14.965 218.845 14.86 219.24 14.65 219.59C14.45 219.93 14.175 220.22 13.825 220.46C13.485 220.69 13.085 220.87 12.625 221C12.165 221.12 11.685 221.18 11.185 221.18C10.365 221.18 9.66 221.06 9.07 220.82C8.48 220.57 8 220.24 7.63 219.83L8.65 218.435ZM18.7541 219.425C18.7541 219.175 18.7941 218.945 18.8741 218.735C18.9641 218.515 19.0841 218.325 19.2341 218.165C19.3841 218.005 19.5641 217.88 19.7741 217.79C19.9941 217.7 20.2341 217.655 20.4941 217.655C20.7541 217.655 20.9891 217.7 21.1991 217.79C21.4191 217.88 21.6041 218.005 21.7541 218.165C21.9041 218.325 22.0191 218.515 22.0991 218.735C22.1891 218.945 22.2341 219.175 22.2341 219.425C22.2341 219.925 22.0741 220.345 21.7541 220.685C21.4341 221.015 21.0141 221.18 20.4941 221.18C19.9741 221.18 19.5541 221.015 19.2341 220.685C18.9141 220.345 18.7541 219.925 18.7541 219.425ZM27.8833 221C27.9233 220.21 27.9983 219.485 28.1083 218.825C28.2283 218.155 28.3933 217.52 28.6033 216.92C28.8233 216.31 29.1033 215.72 29.4433 215.15C29.7833 214.57 30.2033 213.965 30.7033 213.335H25.9183V211.475H33.0733V212.825C32.4733 213.495 31.9883 214.125 31.6183 214.715C31.2483 215.295 30.9583 215.9 30.7483 216.53C30.5383 217.15 30.3883 217.82 30.2983 218.54C30.2083 219.25 30.1433 220.07 30.1033 221H27.8833ZM12.115 235.04V233.435C12.115 233.135 12.12 232.79 12.13 232.4C12.15 232 12.17 231.65 12.19 231.35H12.13C11.97 231.62 11.8 231.89 11.62 232.16C11.44 232.43 11.265 232.7 11.095 232.97L9.655 235.04H12.115ZM15.37 236.72H14.17V239H12.115V236.72H7.525V235.205L11.5 229.475H14.17V235.04H15.37V236.72Z" fill="white"/>
<path d="M11.5 183.18C10.92 183.18 10.385 183.065 9.895 182.835C9.415 182.595 9 182.255 8.65 181.815C8.31 181.375 8.045 180.84 7.855 180.21C7.665 179.58 7.57 178.865 7.57 178.065C7.57 177.265 7.665 176.555 7.855 175.935C8.045 175.305 8.31 174.78 8.65 174.36C9 173.93 9.415 173.605 9.895 173.385C10.385 173.155 10.92 173.04 11.5 173.04C12.08 173.04 12.61 173.155 13.09 173.385C13.58 173.605 13.995 173.93 14.335 174.36C14.685 174.79 14.955 175.32 15.145 175.95C15.335 176.57 15.43 177.275 15.43 178.065C15.43 178.865 15.335 179.58 15.145 180.21C14.955 180.84 14.685 181.375 14.335 181.815C13.995 182.255 13.58 182.595 13.09 182.835C12.61 183.065 12.08 183.18 11.5 183.18ZM11.5 181.275C12.01 181.275 12.415 180.99 12.715 180.42C13.015 179.84 13.165 179.055 13.165 178.065C13.165 177.085 13.015 176.32 12.715 175.77C12.415 175.22 12.01 174.945 11.5 174.945C10.99 174.945 10.585 175.22 10.285 175.77C9.985 176.32 9.835 177.085 9.835 178.065C9.835 179.055 9.985 179.84 10.285 180.42C10.585 180.99 10.99 181.275 11.5 181.275ZM23.8691 183H22.0691L21.9041 181.935H21.8441C21.5141 182.315 21.1491 182.62 20.7491 182.85C20.3491 183.07 19.8791 183.18 19.3391 183.18C18.4891 183.18 17.8741 182.91 17.4941 182.37C17.1141 181.83 16.9241 181.09 16.9241 180.15V175.56H19.1291V179.865C19.1291 180.365 19.2041 180.73 19.3541 180.96C19.5041 181.19 19.7891 181.305 20.2091 181.305C20.4891 181.305 20.7341 181.245 20.9441 181.125C21.1641 181.005 21.4041 180.78 21.6641 180.45V175.56H23.8691V183ZM27.5983 177.285H25.7233V175.65L27.7033 175.56L27.9883 173.58H29.8033V175.56H32.9533V177.285H29.8033V179.895C29.8033 180.465 29.9283 180.87 30.1783 181.11C30.4283 181.34 30.8233 181.455 31.3633 181.455C31.6533 181.455 31.9183 181.43 32.1583 181.38C32.3983 181.33 32.6283 181.265 32.8483 181.185L33.2383 182.775C32.9083 182.875 32.5383 182.965 32.1283 183.045C31.7283 183.135 31.2883 183.18 30.8083 183.18C30.2183 183.18 29.7183 183.1 29.3083 182.94C28.8983 182.78 28.5633 182.56 28.3033 182.28C28.0533 181.99 27.8733 181.645 27.7633 181.245C27.6533 180.845 27.5983 180.4 27.5983 179.91V177.285ZM37.2674 183.585V185.76H35.0624V175.56H36.8624L37.0274 176.31H37.0724C37.3724 176.04 37.7174 175.82 38.1074 175.65C38.4974 175.47 38.8924 175.38 39.2924 175.38C39.7524 175.38 40.1674 175.47 40.5374 175.65C40.9074 175.83 41.2224 176.085 41.4824 176.415C41.7424 176.745 41.9374 177.145 42.0674 177.615C42.2074 178.075 42.2774 178.59 42.2774 179.16C42.2774 179.8 42.1874 180.37 42.0074 180.87C41.8274 181.36 41.5874 181.78 41.2874 182.13C40.9874 182.47 40.6424 182.73 40.2524 182.91C39.8724 183.09 39.4724 183.18 39.0524 183.18C38.3724 183.18 37.7524 182.91 37.1924 182.37L37.2674 183.585ZM37.2674 180.885C37.4774 181.065 37.6924 181.195 37.9124 181.275C38.1424 181.345 38.3524 181.38 38.5424 181.38C38.9624 181.38 39.3124 181.21 39.5924 180.87C39.8724 180.52 40.0124 179.96 40.0124 179.19C40.0124 177.85 39.5574 177.18 38.6474 177.18C38.1774 177.18 37.7174 177.41 37.2674 177.87V180.885ZM50.8516 183H49.0516L48.8866 181.935H48.8266C48.4966 182.315 48.1316 182.62 47.7316 182.85C47.3316 183.07 46.8616 183.18 46.3216 183.18C45.4716 183.18 44.8566 182.91 44.4766 182.37C44.0966 181.83 43.9066 181.09 43.9066 180.15V175.56H46.1116V179.865C46.1116 180.365 46.1866 180.73 46.3366 180.96C46.4866 181.19 46.7716 181.305 47.1916 181.305C47.4716 181.305 47.7166 181.245 47.9266 181.125C48.1466 181.005 48.3866 180.78 48.6466 180.45V175.56H50.8516V183ZM54.5807 177.285H52.7057V175.65L54.6857 175.56L54.9707 173.58H56.7857V175.56H59.9357V177.285H56.7857V179.895C56.7857 180.465 56.9107 180.87 57.1607 181.11C57.4107 181.34 57.8057 181.455 58.3457 181.455C58.6357 181.455 58.9007 181.43 59.1407 181.38C59.3807 181.33 59.6107 181.265 59.8307 181.185L60.2207 182.775C59.8907 182.875 59.5207 182.965 59.1107 183.045C58.7107 183.135 58.2707 183.18 57.7907 183.18C57.2007 183.18 56.7007 183.1 56.2907 182.94C55.8807 182.78 55.5457 182.56 55.2857 182.28C55.0357 181.99 54.8557 181.645 54.7457 181.245C54.6357 180.845 54.5807 180.4 54.5807 179.91V177.285Z" fill="white"/>
<rect x="96.75" width="145.25" height="30.6018" fill="#333333"/>
<rect x="96.75" width="145.25" height="30.6018" fill="#333333"/>
<rect width="97.1974" height="30.6018" fill="#090808"/>
<path d="M18.105 17.8101C18.105 17.5513 17.9756 17.3486 17.7168 17.2021C17.4629 17.0508 17.0527 16.9165 16.4863 16.7993C14.6016 16.4038 13.6592 15.603 13.6592 14.397C13.6592 13.6938 13.9497 13.1079 14.5308 12.6392C15.1167 12.1655 15.8809 11.9287 16.8232 11.9287C17.8291 11.9287 18.6323 12.1655 19.2329 12.6392C19.8384 13.1128 20.1411 13.728 20.1411 14.4849H18.0244C18.0244 14.1821 17.9268 13.9331 17.7314 13.7378C17.5361 13.5376 17.231 13.4375 16.8159 13.4375C16.4595 13.4375 16.1836 13.5181 15.9883 13.6792C15.793 13.8403 15.6953 14.0454 15.6953 14.2944C15.6953 14.5288 15.8052 14.7192 16.0249 14.8657C16.2495 15.0073 16.6255 15.1318 17.1528 15.2393C17.6802 15.3418 18.1245 15.459 18.4858 15.5908C19.604 16.001 20.1631 16.7114 20.1631 17.7222C20.1631 18.4448 19.853 19.0308 19.2329 19.48C18.6128 19.9243 17.812 20.1465 16.8306 20.1465C16.1665 20.1465 15.5757 20.0293 15.0581 19.7949C14.5454 19.5557 14.1426 19.231 13.8496 18.8208C13.5566 18.4058 13.4102 17.959 13.4102 17.4805H15.417C15.4365 17.8564 15.5757 18.1445 15.8345 18.3447C16.0933 18.5449 16.4399 18.645 16.8745 18.645C17.2798 18.645 17.585 18.5693 17.79 18.418C18 18.2617 18.105 18.0591 18.105 17.8101ZM24.8286 18.4399C25.2192 18.4399 25.5366 18.3325 25.7808 18.1177C26.0249 17.9028 26.1519 17.6172 26.1616 17.2607H28.1465C28.1416 17.7979 27.9951 18.291 27.707 18.7402C27.4189 19.1846 27.0234 19.5312 26.5205 19.7803C26.0225 20.0244 25.4707 20.1465 24.8652 20.1465C23.7324 20.1465 22.8389 19.7876 22.1846 19.0698C21.5303 18.3472 21.2031 17.3511 21.2031 16.0815V15.9424C21.2031 14.7217 21.5278 13.7476 22.1772 13.02C22.8267 12.2925 23.7178 11.9287 24.8506 11.9287C25.8418 11.9287 26.6353 12.2119 27.231 12.7783C27.8315 13.3398 28.1367 14.0894 28.1465 15.0269H26.1616C26.1519 14.6167 26.0249 14.2847 25.7808 14.0308C25.5366 13.772 25.2144 13.6426 24.814 13.6426C24.3208 13.6426 23.9473 13.8232 23.6934 14.1846C23.4443 14.541 23.3198 15.1221 23.3198 15.9277V16.1475C23.3198 16.9629 23.4443 17.5488 23.6934 17.9053C23.9424 18.2617 24.3208 18.4399 24.8286 18.4399ZM33.8081 14.0601C33.52 14.021 33.2661 14.0015 33.0464 14.0015C32.2456 14.0015 31.7207 14.2725 31.4717 14.8145V20H29.355V12.0752H31.3545L31.4131 13.02C31.8379 12.2925 32.4263 11.9287 33.1782 11.9287C33.4126 11.9287 33.6323 11.9604 33.8374 12.0239L33.8081 14.0601ZM37.0674 20H34.9434V12.0752H37.0674V20ZM34.8188 10.0244C34.8188 9.70703 34.9238 9.4458 35.1338 9.24072C35.3486 9.03564 35.6392 8.93311 36.0054 8.93311C36.3667 8.93311 36.6548 9.03564 36.8696 9.24072C37.0845 9.4458 37.1919 9.70703 37.1919 10.0244C37.1919 10.3467 37.082 10.6104 36.8623 10.8154C36.6475 11.0205 36.3618 11.123 36.0054 11.123C35.6489 11.123 35.3608 11.0205 35.1411 10.8154C34.9263 10.6104 34.8188 10.3467 34.8188 10.0244ZM45.9517 16.1108C45.9517 17.3315 45.6733 18.3105 45.1167 19.0479C44.5649 19.7803 43.8179 20.1465 42.8755 20.1465C42.0747 20.1465 41.4277 19.8682 40.9346 19.3115V23.0469H38.8179V12.0752H40.7808L40.854 12.8516C41.3667 12.2363 42.0356 11.9287 42.8608 11.9287C43.8374 11.9287 44.5967 12.29 45.1387 13.0127C45.6807 13.7354 45.9517 14.7314 45.9517 16.001V16.1108ZM43.835 15.957C43.835 15.2197 43.7031 14.6509 43.4395 14.2505C43.1807 13.8501 42.8022 13.6499 42.3042 13.6499C41.6401 13.6499 41.1836 13.9038 40.9346 14.4116V17.6562C41.1934 18.1787 41.6548 18.4399 42.3188 18.4399C43.3296 18.4399 43.835 17.6123 43.835 15.957ZM49.8042 10.127V12.0752H51.1592V13.6279H49.8042V17.583C49.8042 17.876 49.8604 18.0859 49.9727 18.2129C50.085 18.3398 50.2998 18.4033 50.6172 18.4033C50.8516 18.4033 51.0591 18.3862 51.2397 18.3521V19.9561C50.8247 20.083 50.3975 20.1465 49.958 20.1465C48.4736 20.1465 47.7168 19.397 47.6875 17.8979V13.6279H46.5303V12.0752H47.6875V10.127H49.8042ZM52.4482 18.96C52.4482 18.623 52.5605 18.3496 52.7852 18.1396C53.0146 17.9297 53.3003 17.8247 53.6421 17.8247C53.9888 17.8247 54.2744 17.9297 54.499 18.1396C54.7285 18.3496 54.8433 18.623 54.8433 18.96C54.8433 19.292 54.731 19.563 54.5063 19.7729C54.2817 19.978 53.9937 20.0806 53.6421 20.0806C53.2954 20.0806 53.0098 19.978 52.7852 19.7729C52.5605 19.563 52.4482 19.292 52.4482 18.96ZM63.8374 16.1108C63.8374 17.3315 63.5591 18.3105 63.0024 19.0479C62.4507 19.7803 61.7036 20.1465 60.7612 20.1465C59.9604 20.1465 59.3135 19.8682 58.8203 19.3115V23.0469H56.7036V12.0752H58.6665L58.7397 12.8516C59.2524 12.2363 59.9214 11.9287 60.7466 11.9287C61.7231 11.9287 62.4824 12.29 63.0244 13.0127C63.5664 13.7354 63.8374 14.7314 63.8374 16.001V16.1108ZM61.7207 15.957C61.7207 15.2197 61.5889 14.6509 61.3252 14.2505C61.0664 13.8501 60.688 13.6499 60.1899 13.6499C59.5259 13.6499 59.0693 13.9038 58.8203 14.4116V17.6562C59.0791 18.1787 59.5405 18.4399 60.2046 18.4399C61.2153 18.4399 61.7207 17.6123 61.7207 15.957ZM68.0269 17.0044L69.4917 12.0752H71.7622L68.5762 21.2305L68.4004 21.6479C67.9268 22.6831 67.1455 23.2007 66.0566 23.2007C65.749 23.2007 65.4365 23.1543 65.1191 23.0615V21.4575L65.4414 21.4648C65.8418 21.4648 66.1396 21.4038 66.335 21.2817C66.5352 21.1597 66.6914 20.957 66.8037 20.6738L67.0527 20.022L64.2769 12.0752H66.5547L68.0269 17.0044Z" fill="white"/>
<line y1="167.539" x2="242" y2="167.539" stroke="white"/>
<path d="M7.915 48.93C7.915 48.51 8.005 48.145 8.185 47.835C8.365 47.515 8.65 47.245 9.04 47.025C9.44 46.805 9.95 46.63 10.57 46.5C11.19 46.36 11.94 46.265 12.82 46.215C12.78 45.875 12.63 45.61 12.37 45.42C12.12 45.23 11.74 45.135 11.23 45.135C10.87 45.135 10.505 45.2 10.135 45.33C9.775 45.45 9.385 45.615 8.965 45.825L8.185 44.385C8.695 44.095 9.24 43.855 9.82 43.665C10.41 43.475 11.025 43.38 11.665 43.38C12.705 43.38 13.525 43.655 14.125 44.205C14.725 44.755 15.025 45.6 15.025 46.74V51H13.225L13.06 50.16H13C12.62 50.45 12.205 50.695 11.755 50.895C11.305 51.085 10.84 51.18 10.36 51.18C9.98 51.18 9.64 51.12 9.34 51C9.04 50.89 8.785 50.735 8.575 50.535C8.365 50.325 8.2 50.085 8.08 49.815C7.97 49.545 7.915 49.25 7.915 48.93ZM10.03 48.765C10.03 49.005 10.12 49.185 10.3 49.305C10.49 49.415 10.745 49.47 11.065 49.47C11.395 49.47 11.705 49.405 11.995 49.275C12.285 49.135 12.56 48.965 12.82 48.765V47.535C12.27 47.565 11.815 47.615 11.455 47.685C11.095 47.755 10.81 47.845 10.6 47.955C10.39 48.055 10.24 48.175 10.15 48.315C10.07 48.455 10.03 48.605 10.03 48.765ZM24.0941 51.81V53.46H16.8941V51.81H24.0941ZM25.4533 43.56H27.6733L28.8433 47.07C28.9633 47.45 29.0783 47.83 29.1883 48.21C29.2983 48.59 29.4083 48.975 29.5183 49.365H29.5783C29.6883 48.975 29.7933 48.59 29.8933 48.21C30.0033 47.83 30.1183 47.45 30.2383 47.07L31.4083 43.56H33.5233L30.7933 51H28.2583L25.4533 43.56ZM34.8974 48.93C34.8974 48.51 34.9874 48.145 35.1674 47.835C35.3474 47.515 35.6324 47.245 36.0224 47.025C36.4224 46.805 36.9324 46.63 37.5524 46.5C38.1724 46.36 38.9224 46.265 39.8024 46.215C39.7624 45.875 39.6124 45.61 39.3524 45.42C39.1024 45.23 38.7224 45.135 38.2124 45.135C37.8524 45.135 37.4874 45.2 37.1174 45.33C36.7574 45.45 36.3674 45.615 35.9474 45.825L35.1674 44.385C35.6774 44.095 36.2224 43.855 36.8024 43.665C37.3924 43.475 38.0074 43.38 38.6474 43.38C39.6874 43.38 40.5074 43.655 41.1074 44.205C41.7074 44.755 42.0074 45.6 42.0074 46.74V51H40.2074L40.0424 50.16H39.9824C39.6024 50.45 39.1874 50.695 38.7374 50.895C38.2874 51.085 37.8224 51.18 37.3424 51.18C36.9624 51.18 36.6224 51.12 36.3224 51C36.0224 50.89 35.7674 50.735 35.5574 50.535C35.3474 50.325 35.1824 50.085 35.0624 49.815C34.9524 49.545 34.8974 49.25 34.8974 48.93ZM37.0124 48.765C37.0124 49.005 37.1024 49.185 37.2824 49.305C37.4724 49.415 37.7274 49.47 38.0474 49.47C38.3774 49.47 38.6874 49.405 38.9774 49.275C39.2674 49.135 39.5424 48.965 39.8024 48.765V47.535C39.2524 47.565 38.7974 47.615 38.4374 47.685C38.0774 47.755 37.7924 47.845 37.5824 47.955C37.3724 48.055 37.2224 48.175 37.1324 48.315C37.0524 48.455 37.0124 48.605 37.0124 48.765ZM43.9066 40.485H48.2716V48.18C48.2716 48.41 48.3016 48.605 48.3616 48.765C48.4316 48.915 48.5216 49.04 48.6316 49.14C48.7516 49.23 48.8816 49.295 49.0216 49.335C49.1716 49.375 49.3216 49.395 49.4716 49.395C49.6416 49.395 49.8216 49.38 50.0116 49.35C50.2016 49.31 50.4116 49.245 50.6416 49.155L51.1366 50.775C50.9366 50.835 50.7516 50.89 50.5816 50.94C50.4116 50.99 50.2416 51.03 50.0716 51.06C49.9016 51.1 49.7216 51.13 49.5316 51.15C49.3416 51.17 49.1316 51.18 48.9016 51.18C47.9616 51.18 47.2516 50.905 46.7716 50.355C46.3016 49.795 46.0666 49.04 46.0666 48.09V42.225H43.9066V40.485ZM59.8457 51H58.0457L57.8807 49.935H57.8207C57.4907 50.315 57.1257 50.62 56.7257 50.85C56.3257 51.07 55.8557 51.18 55.3157 51.18C54.4657 51.18 53.8507 50.91 53.4707 50.37C53.0907 49.83 52.9007 49.09 52.9007 48.15V43.56H55.1057V47.865C55.1057 48.365 55.1807 48.73 55.3307 48.96C55.4807 49.19 55.7657 49.305 56.1857 49.305C56.4657 49.305 56.7107 49.245 56.9207 49.125C57.1407 49.005 57.3807 48.78 57.6407 48.45V43.56H59.8457V51ZM61.7898 47.28C61.7898 46.67 61.8948 46.125 62.1048 45.645C62.3248 45.165 62.6148 44.76 62.9748 44.43C63.3348 44.09 63.7448 43.83 64.2048 43.65C64.6748 43.47 65.1598 43.38 65.6598 43.38C66.2298 43.38 66.7348 43.47 67.1748 43.65C67.6148 43.83 67.9798 44.08 68.2698 44.4C68.5598 44.72 68.7798 45.1 68.9298 45.54C69.0798 45.97 69.1548 46.44 69.1548 46.95C69.1548 47.15 69.1448 47.34 69.1248 47.52C69.1048 47.7 69.0848 47.835 69.0648 47.925H64.0548C64.1348 48.485 64.3748 48.89 64.7748 49.14C65.1848 49.38 65.6648 49.5 66.2148 49.5C66.5548 49.5 66.8748 49.46 67.1748 49.38C67.4848 49.29 67.8048 49.16 68.1348 48.99L68.8548 50.31C68.4348 50.58 67.9648 50.795 67.4448 50.955C66.9248 51.105 66.4148 51.18 65.9148 51.18C65.3348 51.18 64.7948 51.095 64.2948 50.925C63.7948 50.745 63.3598 50.49 62.9898 50.16C62.6198 49.82 62.3248 49.41 62.1048 48.93C61.8948 48.45 61.7898 47.9 61.7898 47.28ZM67.1598 46.47C67.1598 46.05 67.0448 45.71 66.8148 45.45C66.5848 45.19 66.2148 45.06 65.7048 45.06C65.3048 45.06 64.9498 45.175 64.6398 45.405C64.3298 45.635 64.1248 45.99 64.0248 46.47H67.1598ZM57.8507 72.685C56.8707 71.815 56.0957 70.81 55.5257 69.67C54.9657 68.53 54.6857 67.25 54.6857 65.83C54.6857 64.41 54.9657 63.13 55.5257 61.99C56.0957 60.85 56.8707 59.845 57.8507 58.975L59.0807 59.95C58.1907 60.82 57.5407 61.725 57.1307 62.665C56.7307 63.595 56.5307 64.65 56.5307 65.83C56.5307 66.42 56.5807 66.98 56.6807 67.51C56.7807 68.03 56.9307 68.53 57.1307 69.01C57.3407 69.49 57.6057 69.95 57.9257 70.39C58.2457 70.84 58.6307 71.28 59.0807 71.71L57.8507 72.685ZM111.816 72.685C110.836 71.815 110.061 70.81 109.491 69.67C108.931 68.53 108.651 67.25 108.651 65.83C108.651 64.41 108.931 63.13 109.491 61.99C110.061 60.85 110.836 59.845 111.816 58.975L113.046 59.95C112.156 60.82 111.506 61.725 111.096 62.665C110.696 63.595 110.496 64.65 110.496 65.83C110.496 66.42 110.546 66.98 110.646 67.51C110.746 68.03 110.896 68.53 111.096 69.01C111.306 69.49 111.571 69.95 111.891 70.39C112.211 70.84 112.596 71.28 113.046 71.71L111.816 72.685ZM115.845 67.93C115.845 67.51 115.935 67.145 116.115 66.835C116.295 66.515 116.58 66.245 116.97 66.025C117.37 65.805 117.88 65.63 118.5 65.5C119.12 65.36 119.87 65.265 120.75 65.215C120.71 64.875 120.56 64.61 120.3 64.42C120.05 64.23 119.67 64.135 119.16 64.135C118.8 64.135 118.435 64.2 118.065 64.33C117.705 64.45 117.315 64.615 116.895 64.825L116.115 63.385C116.625 63.095 117.17 62.855 117.75 62.665C118.34 62.475 118.955 62.38 119.595 62.38C120.635 62.38 121.455 62.655 122.055 63.205C122.655 63.755 122.955 64.6 122.955 65.74V70H121.155L120.99 69.16H120.93C120.55 69.45 120.135 69.695 119.685 69.895C119.235 70.085 118.77 70.18 118.29 70.18C117.91 70.18 117.57 70.12 117.27 70C116.97 69.89 116.715 69.735 116.505 69.535C116.295 69.325 116.13 69.085 116.01 68.815C115.9 68.545 115.845 68.25 115.845 67.93ZM117.96 67.765C117.96 68.005 118.05 68.185 118.23 68.305C118.42 68.415 118.675 68.47 118.995 68.47C119.325 68.47 119.635 68.405 119.925 68.275C120.215 68.135 120.49 67.965 120.75 67.765V66.535C120.2 66.565 119.745 66.615 119.385 66.685C119.025 66.755 118.74 66.845 118.53 66.955C118.32 67.055 118.17 67.175 118.08 67.315C118 67.455 117.96 67.605 117.96 67.765ZM132.024 70.81V72.46H124.824V70.81H132.024ZM133.383 62.56H135.603L136.773 66.07C136.893 66.45 137.008 66.83 137.118 67.21C137.228 67.59 137.338 67.975 137.448 68.365H137.508C137.618 67.975 137.723 67.59 137.823 67.21C137.933 66.83 138.048 66.45 138.168 66.07L139.338 62.56H141.453L138.723 70H136.188L133.383 62.56ZM142.827 67.93C142.827 67.51 142.917 67.145 143.097 66.835C143.277 66.515 143.562 66.245 143.952 66.025C144.352 65.805 144.862 65.63 145.482 65.5C146.102 65.36 146.852 65.265 147.732 65.215C147.692 64.875 147.542 64.61 147.282 64.42C147.032 64.23 146.652 64.135 146.142 64.135C145.782 64.135 145.417 64.2 145.047 64.33C144.687 64.45 144.297 64.615 143.877 64.825L143.097 63.385C143.607 63.095 144.152 62.855 144.732 62.665C145.322 62.475 145.937 62.38 146.577 62.38C147.617 62.38 148.437 62.655 149.037 63.205C149.637 63.755 149.937 64.6 149.937 65.74V70H148.137L147.972 69.16H147.912C147.532 69.45 147.117 69.695 146.667 69.895C146.217 70.085 145.752 70.18 145.272 70.18C144.892 70.18 144.552 70.12 144.252 70C143.952 69.89 143.697 69.735 143.487 69.535C143.277 69.325 143.112 69.085 142.992 68.815C142.882 68.545 142.827 68.25 142.827 67.93ZM144.942 67.765C144.942 68.005 145.032 68.185 145.212 68.305C145.402 68.415 145.657 68.47 145.977 68.47C146.307 68.47 146.617 68.405 146.907 68.275C147.197 68.135 147.472 67.965 147.732 67.765V66.535C147.182 66.565 146.727 66.615 146.367 66.685C146.007 66.755 145.722 66.845 145.512 66.955C145.302 67.055 145.152 67.175 145.062 67.315C144.982 67.455 144.942 67.605 144.942 67.765ZM151.836 59.485H156.201V67.18C156.201 67.41 156.231 67.605 156.291 67.765C156.361 67.915 156.451 68.04 156.561 68.14C156.681 68.23 156.811 68.295 156.951 68.335C157.101 68.375 157.251 68.395 157.401 68.395C157.571 68.395 157.751 68.38 157.941 68.35C158.131 68.31 158.341 68.245 158.571 68.155L159.066 69.775C158.866 69.835 158.681 69.89 158.511 69.94C158.341 69.99 158.171 70.03 158.001 70.06C157.831 70.1 157.651 70.13 157.461 70.15C157.271 70.17 157.061 70.18 156.831 70.18C155.891 70.18 155.181 69.905 154.701 69.355C154.231 68.795 153.996 68.04 153.996 67.09V61.225H151.836V59.485ZM167.775 70H165.975L165.81 68.935H165.75C165.42 69.315 165.055 69.62 164.655 69.85C164.255 70.07 163.785 70.18 163.245 70.18C162.395 70.18 161.78 69.91 161.4 69.37C161.02 68.83 160.83 68.09 160.83 67.15V62.56H163.035V66.865C163.035 67.365 163.11 67.73 163.26 67.96C163.41 68.19 163.695 68.305 164.115 68.305C164.395 68.305 164.64 68.245 164.85 68.125C165.07 68.005 165.31 67.78 165.57 67.45V62.56H167.775V70ZM169.72 66.28C169.72 65.67 169.825 65.125 170.035 64.645C170.255 64.165 170.545 63.76 170.905 63.43C171.265 63.09 171.675 62.83 172.135 62.65C172.605 62.47 173.09 62.38 173.59 62.38C174.16 62.38 174.665 62.47 175.105 62.65C175.545 62.83 175.91 63.08 176.2 63.4C176.49 63.72 176.71 64.1 176.86 64.54C177.01 64.97 177.085 65.44 177.085 65.95C177.085 66.15 177.075 66.34 177.055 66.52C177.035 66.7 177.015 66.835 176.995 66.925H171.985C172.065 67.485 172.305 67.89 172.705 68.14C173.115 68.38 173.595 68.5 174.145 68.5C174.485 68.5 174.805 68.46 175.105 68.38C175.415 68.29 175.735 68.16 176.065 67.99L176.785 69.31C176.365 69.58 175.895 69.795 175.375 69.955C174.855 70.105 174.345 70.18 173.845 70.18C173.265 70.18 172.725 70.095 172.225 69.925C171.725 69.745 171.29 69.49 170.92 69.16C170.55 68.82 170.255 68.41 170.035 67.93C169.825 67.45 169.72 66.9 169.72 66.28ZM175.09 65.47C175.09 65.05 174.975 64.71 174.745 64.45C174.515 64.19 174.145 64.06 173.635 64.06C173.235 64.06 172.88 64.175 172.57 64.405C172.26 64.635 172.055 64.99 171.955 65.47H175.09ZM179.779 71.71C180.229 71.28 180.614 70.84 180.934 70.39C181.254 69.95 181.514 69.49 181.714 69.01C181.924 68.53 182.079 68.03 182.179 67.51C182.279 66.98 182.329 66.42 182.329 65.83C182.329 64.65 182.124 63.595 181.714 62.665C181.314 61.725 180.669 60.82 179.779 59.95L181.009 58.975C181.989 59.845 182.759 60.85 183.319 61.99C183.889 63.13 184.174 64.41 184.174 65.83C184.174 67.25 183.889 68.53 183.319 69.67C182.759 70.81 181.989 71.815 181.009 72.685L179.779 71.71ZM188.773 71.71C189.223 71.28 189.608 70.84 189.928 70.39C190.248 69.95 190.508 69.49 190.708 69.01C190.918 68.53 191.073 68.03 191.173 67.51C191.273 66.98 191.323 66.42 191.323 65.83C191.323 64.65 191.118 63.595 190.708 62.665C190.308 61.725 189.663 60.82 188.773 59.95L190.003 58.975C190.983 59.845 191.753 60.85 192.313 61.99C192.883 63.13 193.168 64.41 193.168 65.83C193.168 67.25 192.883 68.53 192.313 69.67C191.753 70.81 190.983 71.815 190.003 72.685L188.773 71.71ZM57.8507 90.685C56.8707 89.815 56.0957 88.81 55.5257 87.67C54.9657 86.53 54.6857 85.25 54.6857 83.83C54.6857 82.41 54.9657 81.13 55.5257 79.99C56.0957 78.85 56.8707 77.845 57.8507 76.975L59.0807 77.95C58.1907 78.82 57.5407 79.725 57.1307 80.665C56.7307 81.595 56.5307 82.65 56.5307 83.83C56.5307 84.42 56.5807 84.98 56.6807 85.51C56.7807 86.03 56.9307 86.53 57.1307 87.01C57.3407 87.49 57.6057 87.95 57.9257 88.39C58.2457 88.84 58.6307 89.28 59.0807 89.71L57.8507 90.685ZM61.8798 85.93C61.8798 85.51 61.9698 85.145 62.1498 84.835C62.3298 84.515 62.6148 84.245 63.0048 84.025C63.4048 83.805 63.9148 83.63 64.5348 83.5C65.1548 83.36 65.9048 83.265 66.7848 83.215C66.7448 82.875 66.5948 82.61 66.3348 82.42C66.0848 82.23 65.7048 82.135 65.1948 82.135C64.8348 82.135 64.4698 82.2 64.0998 82.33C63.7398 82.45 63.3498 82.615 62.9298 82.825L62.1498 81.385C62.6598 81.095 63.2048 80.855 63.7848 80.665C64.3748 80.475 64.9898 80.38 65.6298 80.38C66.6698 80.38 67.4898 80.655 68.0898 81.205C68.6898 81.755 68.9898 82.6 68.9898 83.74V88H67.1898L67.0248 87.16H66.9648C66.5848 87.45 66.1698 87.695 65.7198 87.895C65.2698 88.085 64.8048 88.18 64.3248 88.18C63.9448 88.18 63.6048 88.12 63.3048 88C63.0048 87.89 62.7498 87.735 62.5398 87.535C62.3298 87.325 62.1648 87.085 62.0448 86.815C61.9348 86.545 61.8798 86.25 61.8798 85.93ZM63.9948 85.765C63.9948 86.005 64.0848 86.185 64.2648 86.305C64.4548 86.415 64.7098 86.47 65.0298 86.47C65.3598 86.47 65.6698 86.405 65.9598 86.275C66.2498 86.135 66.5248 85.965 66.7848 85.765V84.535C66.2348 84.565 65.7798 84.615 65.4198 84.685C65.0598 84.755 64.7748 84.845 64.5648 84.955C64.3548 85.055 64.2048 85.175 64.1148 85.315C64.0348 85.455 63.9948 85.605 63.9948 85.765ZM78.059 88.81V90.46H70.859V88.81H78.059ZM79.4181 80.56H81.6381L82.8081 84.07C82.9281 84.45 83.0431 84.83 83.1531 85.21C83.2631 85.59 83.3731 85.975 83.4831 86.365H83.5431C83.6531 85.975 83.7581 85.59 83.8581 85.21C83.9681 84.83 84.0831 84.45 84.2031 84.07L85.3731 80.56H87.4881L84.7581 88H82.2231L79.4181 80.56ZM88.8623 85.93C88.8623 85.51 88.9523 85.145 89.1323 84.835C89.3123 84.515 89.5973 84.245 89.9873 84.025C90.3873 83.805 90.8973 83.63 91.5173 83.5C92.1373 83.36 92.8873 83.265 93.7673 83.215C93.7273 82.875 93.5773 82.61 93.3173 82.42C93.0673 82.23 92.6873 82.135 92.1773 82.135C91.8173 82.135 91.4523 82.2 91.0823 82.33C90.7223 82.45 90.3323 82.615 89.9123 82.825L89.1323 81.385C89.6423 81.095 90.1873 80.855 90.7673 80.665C91.3573 80.475 91.9723 80.38 92.6123 80.38C93.6523 80.38 94.4723 80.655 95.0723 81.205C95.6723 81.755 95.9723 82.6 95.9723 83.74V88H94.1723L94.0073 87.16H93.9473C93.5673 87.45 93.1523 87.695 92.7023 87.895C92.2523 88.085 91.7873 88.18 91.3073 88.18C90.9273 88.18 90.5873 88.12 90.2873 88C89.9873 87.89 89.7323 87.735 89.5223 87.535C89.3123 87.325 89.1473 87.085 89.0273 86.815C88.9173 86.545 88.8623 86.25 88.8623 85.93ZM90.9773 85.765C90.9773 86.005 91.0673 86.185 91.2473 86.305C91.4373 86.415 91.6923 86.47 92.0123 86.47C92.3423 86.47 92.6523 86.405 92.9423 86.275C93.2323 86.135 93.5073 85.965 93.7673 85.765V84.535C93.2173 84.565 92.7623 84.615 92.4023 84.685C92.0423 84.755 91.7573 84.845 91.5473 84.955C91.3373 85.055 91.1873 85.175 91.0973 85.315C91.0173 85.455 90.9773 85.605 90.9773 85.765ZM97.8714 77.485H102.236V85.18C102.236 85.41 102.266 85.605 102.326 85.765C102.396 85.915 102.486 86.04 102.596 86.14C102.716 86.23 102.846 86.295 102.986 86.335C103.136 86.375 103.286 86.395 103.436 86.395C103.606 86.395 103.786 86.38 103.976 86.35C104.166 86.31 104.376 86.245 104.606 86.155L105.101 87.775C104.901 87.835 104.716 87.89 104.546 87.94C104.376 87.99 104.206 88.03 104.036 88.06C103.866 88.1 103.686 88.13 103.496 88.15C103.306 88.17 103.096 88.18 102.866 88.18C101.926 88.18 101.216 87.905 100.736 87.355C100.266 86.795 100.031 86.04 100.031 85.09V79.225H97.8714V77.485ZM113.811 88H112.011L111.846 86.935H111.786C111.456 87.315 111.091 87.62 110.691 87.85C110.291 88.07 109.821 88.18 109.281 88.18C108.431 88.18 107.816 87.91 107.436 87.37C107.056 86.83 106.866 86.09 106.866 85.15V80.56H109.071V84.865C109.071 85.365 109.146 85.73 109.296 85.96C109.446 86.19 109.731 86.305 110.151 86.305C110.431 86.305 110.676 86.245 110.886 86.125C111.106 86.005 111.346 85.78 111.606 85.45V80.56H113.811V88ZM115.755 84.28C115.755 83.67 115.86 83.125 116.07 82.645C116.29 82.165 116.58 81.76 116.94 81.43C117.3 81.09 117.71 80.83 118.17 80.65C118.64 80.47 119.125 80.38 119.625 80.38C120.195 80.38 120.7 80.47 121.14 80.65C121.58 80.83 121.945 81.08 122.235 81.4C122.525 81.72 122.745 82.1 122.895 82.54C123.045 82.97 123.12 83.44 123.12 83.95C123.12 84.15 123.11 84.34 123.09 84.52C123.07 84.7 123.05 84.835 123.03 84.925H118.02C118.1 85.485 118.34 85.89 118.74 86.14C119.15 86.38 119.63 86.5 120.18 86.5C120.52 86.5 120.84 86.46 121.14 86.38C121.45 86.29 121.77 86.16 122.1 85.99L122.82 87.31C122.4 87.58 121.93 87.795 121.41 87.955C120.89 88.105 120.38 88.18 119.88 88.18C119.3 88.18 118.76 88.095 118.26 87.925C117.76 87.745 117.325 87.49 116.955 87.16C116.585 86.82 116.29 86.41 116.07 85.93C115.86 85.45 115.755 84.9 115.755 84.28ZM121.125 83.47C121.125 83.05 121.01 82.71 120.78 82.45C120.55 82.19 120.18 82.06 119.67 82.06C119.27 82.06 118.915 82.175 118.605 82.405C118.295 82.635 118.09 82.99 117.99 83.47H121.125ZM125.814 89.71C126.264 89.28 126.649 88.84 126.969 88.39C127.289 87.95 127.549 87.49 127.749 87.01C127.959 86.53 128.114 86.03 128.214 85.51C128.314 84.98 128.364 84.42 128.364 83.83C128.364 82.65 128.159 81.595 127.749 80.665C127.349 79.725 126.704 78.82 125.814 77.95L127.044 76.975C128.024 77.845 128.794 78.85 129.354 79.99C129.924 81.13 130.209 82.41 130.209 83.83C130.209 85.25 129.924 86.53 129.354 87.67C128.794 88.81 128.024 89.815 127.044 90.685L125.814 89.71ZM7.915 123.93C7.915 123.51 8.005 123.145 8.185 122.835C8.365 122.515 8.65 122.245 9.04 122.025C9.44 121.805 9.95 121.63 10.57 121.5C11.19 121.36 11.94 121.265 12.82 121.215C12.78 120.875 12.63 120.61 12.37 120.42C12.12 120.23 11.74 120.135 11.23 120.135C10.87 120.135 10.505 120.2 10.135 120.33C9.775 120.45 9.385 120.615 8.965 120.825L8.185 119.385C8.695 119.095 9.24 118.855 9.82 118.665C10.41 118.475 11.025 118.38 11.665 118.38C12.705 118.38 13.525 118.655 14.125 119.205C14.725 119.755 15.025 120.6 15.025 121.74V126H13.225L13.06 125.16H13C12.62 125.45 12.205 125.695 11.755 125.895C11.305 126.085 10.84 126.18 10.36 126.18C9.98 126.18 9.64 126.12 9.34 126C9.04 125.89 8.785 125.735 8.575 125.535C8.365 125.325 8.2 125.085 8.08 124.815C7.97 124.545 7.915 124.25 7.915 123.93ZM10.03 123.765C10.03 124.005 10.12 124.185 10.3 124.305C10.49 124.415 10.745 124.47 11.065 124.47C11.395 124.47 11.705 124.405 11.995 124.275C12.285 124.135 12.56 123.965 12.82 123.765V122.535C12.27 122.565 11.815 122.615 11.455 122.685C11.095 122.755 10.81 122.845 10.6 122.955C10.39 123.055 10.24 123.175 10.15 123.315C10.07 123.455 10.03 123.605 10.03 123.765ZM24.0941 126.81V128.46H16.8941V126.81H24.0941ZM25.4533 118.56H27.6733L28.8433 122.07C28.9633 122.45 29.0783 122.83 29.1883 123.21C29.2983 123.59 29.4083 123.975 29.5183 124.365H29.5783C29.6883 123.975 29.7933 123.59 29.8933 123.21C30.0033 122.83 30.1183 122.45 30.2383 122.07L31.4083 118.56H33.5233L30.7933 126H28.2583L25.4533 118.56ZM34.8974 123.93C34.8974 123.51 34.9874 123.145 35.1674 122.835C35.3474 122.515 35.6324 122.245 36.0224 122.025C36.4224 121.805 36.9324 121.63 37.5524 121.5C38.1724 121.36 38.9224 121.265 39.8024 121.215C39.7624 120.875 39.6124 120.61 39.3524 120.42C39.1024 120.23 38.7224 120.135 38.2124 120.135C37.8524 120.135 37.4874 120.2 37.1174 120.33C36.7574 120.45 36.3674 120.615 35.9474 120.825L35.1674 119.385C35.6774 119.095 36.2224 118.855 36.8024 118.665C37.3924 118.475 38.0074 118.38 38.6474 118.38C39.6874 118.38 40.5074 118.655 41.1074 119.205C41.7074 119.755 42.0074 120.6 42.0074 121.74V126H40.2074L40.0424 125.16H39.9824C39.6024 125.45 39.1874 125.695 38.7374 125.895C38.2874 126.085 37.8224 126.18 37.3424 126.18C36.9624 126.18 36.6224 126.12 36.3224 126C36.0224 125.89 35.7674 125.735 35.5574 125.535C35.3474 125.325 35.1824 125.085 35.0624 124.815C34.9524 124.545 34.8974 124.25 34.8974 123.93ZM37.0124 123.765C37.0124 124.005 37.1024 124.185 37.2824 124.305C37.4724 124.415 37.7274 124.47 38.0474 124.47C38.3774 124.47 38.6874 124.405 38.9774 124.275C39.2674 124.135 39.5424 123.965 39.8024 123.765V122.535C39.2524 122.565 38.7974 122.615 38.4374 122.685C38.0774 122.755 37.7924 122.845 37.5824 122.955C37.3724 123.055 37.2224 123.175 37.1324 123.315C37.0524 123.455 37.0124 123.605 37.0124 123.765ZM43.9066 115.485H48.2716V123.18C48.2716 123.41 48.3016 123.605 48.3616 123.765C48.4316 123.915 48.5216 124.04 48.6316 124.14C48.7516 124.23 48.8816 124.295 49.0216 124.335C49.1716 124.375 49.3216 124.395 49.4716 124.395C49.6416 124.395 49.8216 124.38 50.0116 124.35C50.2016 124.31 50.4116 124.245 50.6416 124.155L51.1366 125.775C50.9366 125.835 50.7516 125.89 50.5816 125.94C50.4116 125.99 50.2416 126.03 50.0716 126.06C49.9016 126.1 49.7216 126.13 49.5316 126.15C49.3416 126.17 49.1316 126.18 48.9016 126.18C47.9616 126.18 47.2516 125.905 46.7716 125.355C46.3016 124.795 46.0666 124.04 46.0666 123.09V117.225H43.9066V115.485ZM59.8457 126H58.0457L57.8807 124.935H57.8207C57.4907 125.315 57.1257 125.62 56.7257 125.85C56.3257 126.07 55.8557 126.18 55.3157 126.18C54.4657 126.18 53.8507 125.91 53.4707 125.37C53.0907 124.83 52.9007 124.09 52.9007 123.15V118.56H55.1057V122.865C55.1057 123.365 55.1807 123.73 55.3307 123.96C55.4807 124.19 55.7657 124.305 56.1857 124.305C56.4657 124.305 56.7107 124.245 56.9207 124.125C57.1407 124.005 57.3807 123.78 57.6407 123.45V118.56H59.8457V126ZM61.7898 122.28C61.7898 121.67 61.8948 121.125 62.1048 120.645C62.3248 120.165 62.6148 119.76 62.9748 119.43C63.3348 119.09 63.7448 118.83 64.2048 118.65C64.6748 118.47 65.1598 118.38 65.6598 118.38C66.2298 118.38 66.7348 118.47 67.1748 118.65C67.6148 118.83 67.9798 119.08 68.2698 119.4C68.5598 119.72 68.7798 120.1 68.9298 120.54C69.0798 120.97 69.1548 121.44 69.1548 121.95C69.1548 122.15 69.1448 122.34 69.1248 122.52C69.1048 122.7 69.0848 122.835 69.0648 122.925H64.0548C64.1348 123.485 64.3748 123.89 64.7748 124.14C65.1848 124.38 65.6648 124.5 66.2148 124.5C66.5548 124.5 66.8748 124.46 67.1748 124.38C67.4848 124.29 67.8048 124.16 68.1348 123.99L68.8548 125.31C68.4348 125.58 67.9648 125.795 67.4448 125.955C66.9248 126.105 66.4148 126.18 65.9148 126.18C65.3348 126.18 64.7948 126.095 64.2948 125.925C63.7948 125.745 63.3598 125.49 62.9898 125.16C62.6198 124.82 62.3248 124.41 62.1048 123.93C61.8948 123.45 61.7898 122.9 61.7898 122.28ZM67.1598 121.47C67.1598 121.05 67.0448 120.71 66.8148 120.45C66.5848 120.19 66.2148 120.06 65.7048 120.06C65.3048 120.06 64.9498 120.175 64.6398 120.405C64.3298 120.635 64.1248 120.99 64.0248 121.47H67.1598ZM147.792 128.685C146.812 127.815 146.037 126.81 145.467 125.67C144.907 124.53 144.627 123.25 144.627 121.83C144.627 120.41 144.907 119.13 145.467 117.99C146.037 116.85 146.812 115.845 147.792 114.975L149.022 115.95C148.132 116.82 147.482 117.725 147.072 118.665C146.672 119.595 146.472 120.65 146.472 121.83C146.472 122.42 146.522 122.98 146.622 123.51C146.722 124.03 146.872 124.53 147.072 125.01C147.282 125.49 147.547 125.95 147.867 126.39C148.187 126.84 148.572 127.28 149.022 127.71L147.792 128.685ZM151.821 123.93C151.821 123.51 151.911 123.145 152.091 122.835C152.271 122.515 152.556 122.245 152.946 122.025C153.346 121.805 153.856 121.63 154.476 121.5C155.096 121.36 155.846 121.265 156.726 121.215C156.686 120.875 156.536 120.61 156.276 120.42C156.026 120.23 155.646 120.135 155.136 120.135C154.776 120.135 154.411 120.2 154.041 120.33C153.681 120.45 153.291 120.615 152.871 120.825L152.091 119.385C152.601 119.095 153.146 118.855 153.726 118.665C154.316 118.475 154.931 118.38 155.571 118.38C156.611 118.38 157.431 118.655 158.031 119.205C158.631 119.755 158.931 120.6 158.931 121.74V126H157.131L156.966 125.16H156.906C156.526 125.45 156.111 125.695 155.661 125.895C155.211 126.085 154.746 126.18 154.266 126.18C153.886 126.18 153.546 126.12 153.246 126C152.946 125.89 152.691 125.735 152.481 125.535C152.271 125.325 152.106 125.085 151.986 124.815C151.876 124.545 151.821 124.25 151.821 123.93ZM153.936 123.765C153.936 124.005 154.026 124.185 154.206 124.305C154.396 124.415 154.651 124.47 154.971 124.47C155.301 124.47 155.611 124.405 155.901 124.275C156.191 124.135 156.466 123.965 156.726 123.765V122.535C156.176 122.565 155.721 122.615 155.361 122.685C155.001 122.755 154.716 122.845 154.506 122.955C154.296 123.055 154.146 123.175 154.056 123.315C153.976 123.455 153.936 123.605 153.936 123.765ZM168 126.81V128.46H160.8V126.81H168ZM169.36 118.56H171.58L172.75 122.07C172.87 122.45 172.985 122.83 173.095 123.21C173.205 123.59 173.315 123.975 173.425 124.365H173.485C173.595 123.975 173.7 123.59 173.8 123.21C173.91 122.83 174.025 122.45 174.145 122.07L175.315 118.56H177.43L174.7 126H172.165L169.36 118.56ZM178.804 123.93C178.804 123.51 178.894 123.145 179.074 122.835C179.254 122.515 179.539 122.245 179.929 122.025C180.329 121.805 180.839 121.63 181.459 121.5C182.079 121.36 182.829 121.265 183.709 121.215C183.669 120.875 183.519 120.61 183.259 120.42C183.009 120.23 182.629 120.135 182.119 120.135C181.759 120.135 181.394 120.2 181.024 120.33C180.664 120.45 180.274 120.615 179.854 120.825L179.074 119.385C179.584 119.095 180.129 118.855 180.709 118.665C181.299 118.475 181.914 118.38 182.554 118.38C183.594 118.38 184.414 118.655 185.014 119.205C185.614 119.755 185.914 120.6 185.914 121.74V126H184.114L183.949 125.16H183.889C183.509 125.45 183.094 125.695 182.644 125.895C182.194 126.085 181.729 126.18 181.249 126.18C180.869 126.18 180.529 126.12 180.229 126C179.929 125.89 179.674 125.735 179.464 125.535C179.254 125.325 179.089 125.085 178.969 124.815C178.859 124.545 178.804 124.25 178.804 123.93ZM180.919 123.765C180.919 124.005 181.009 124.185 181.189 124.305C181.379 124.415 181.634 124.47 181.954 124.47C182.284 124.47 182.594 124.405 182.884 124.275C183.174 124.135 183.449 123.965 183.709 123.765V122.535C183.159 122.565 182.704 122.615 182.344 122.685C181.984 122.755 181.699 122.845 181.489 122.955C181.279 123.055 181.129 123.175 181.039 123.315C180.959 123.455 180.919 123.605 180.919 123.765ZM187.813 115.485H192.178V123.18C192.178 123.41 192.208 123.605 192.268 123.765C192.338 123.915 192.428 124.04 192.538 124.14C192.658 124.23 192.788 124.295 192.928 124.335C193.078 124.375 193.228 124.395 193.378 124.395C193.548 124.395 193.728 124.38 193.918 124.35C194.108 124.31 194.318 124.245 194.548 124.155L195.043 125.775C194.843 125.835 194.658 125.89 194.488 125.94C194.318 125.99 194.148 126.03 193.978 126.06C193.808 126.1 193.628 126.13 193.438 126.15C193.248 126.17 193.038 126.18 192.808 126.18C191.868 126.18 191.158 125.905 190.678 125.355C190.208 124.795 189.973 124.04 189.973 123.09V117.225H187.813V115.485ZM203.752 126H201.952L201.787 124.935H201.727C201.397 125.315 201.032 125.62 200.632 125.85C200.232 126.07 199.762 126.18 199.222 126.18C198.372 126.18 197.757 125.91 197.377 125.37C196.997 124.83 196.807 124.09 196.807 123.15V118.56H199.012V122.865C199.012 123.365 199.087 123.73 199.237 123.96C199.387 124.19 199.672 124.305 200.092 124.305C200.372 124.305 200.617 124.245 200.827 124.125C201.047 124.005 201.287 123.78 201.547 123.45V118.56H203.752V126ZM205.696 122.28C205.696 121.67 205.801 121.125 206.011 120.645C206.231 120.165 206.521 119.76 206.881 119.43C207.241 119.09 207.651 118.83 208.111 118.65C208.581 118.47 209.066 118.38 209.566 118.38C210.136 118.38 210.641 118.47 211.081 118.65C211.521 118.83 211.886 119.08 212.176 119.4C212.466 119.72 212.686 120.1 212.836 120.54C212.986 120.97 213.061 121.44 213.061 121.95C213.061 122.15 213.051 122.34 213.031 122.52C213.011 122.7 212.991 122.835 212.971 122.925H207.961C208.041 123.485 208.281 123.89 208.681 124.14C209.091 124.38 209.571 124.5 210.121 124.5C210.461 124.5 210.781 124.46 211.081 124.38C211.391 124.29 211.711 124.16 212.041 123.99L212.761 125.31C212.341 125.58 211.871 125.795 211.351 125.955C210.831 126.105 210.321 126.18 209.821 126.18C209.241 126.18 208.701 126.095 208.201 125.925C207.701 125.745 207.266 125.49 206.896 125.16C206.526 124.82 206.231 124.41 206.011 123.93C205.801 123.45 205.696 122.9 205.696 122.28ZM211.066 121.47C211.066 121.05 210.951 120.71 210.721 120.45C210.491 120.19 210.121 120.06 209.611 120.06C209.211 120.06 208.856 120.175 208.546 120.405C208.236 120.635 208.031 120.99 207.931 121.47H211.066ZM215.755 127.71C216.205 127.28 216.59 126.84 216.91 126.39C217.23 125.95 217.49 125.49 217.69 125.01C217.9 124.53 218.055 124.03 218.155 123.51C218.255 122.98 218.305 122.42 218.305 121.83C218.305 120.65 218.1 119.595 217.69 118.665C217.29 117.725 216.645 116.82 215.755 115.95L216.985 114.975C217.965 115.845 218.735 116.85 219.295 117.99C219.865 119.13 220.15 120.41 220.15 121.83C220.15 123.25 219.865 124.53 219.295 125.67C218.735 126.81 217.965 127.815 216.985 128.685L215.755 127.71ZM57.8507 147.685C56.8707 146.815 56.0957 145.81 55.5257 144.67C54.9657 143.53 54.6857 142.25 54.6857 140.83C54.6857 139.41 54.9657 138.13 55.5257 136.99C56.0957 135.85 56.8707 134.845 57.8507 133.975L59.0807 134.95C58.1907 135.82 57.5407 136.725 57.1307 137.665C56.7307 138.595 56.5307 139.65 56.5307 140.83C56.5307 141.42 56.5807 141.98 56.6807 142.51C56.7807 143.03 56.9307 143.53 57.1307 144.01C57.3407 144.49 57.6057 144.95 57.9257 145.39C58.2457 145.84 58.6307 146.28 59.0807 146.71L57.8507 147.685ZM61.8798 142.93C61.8798 142.51 61.9698 142.145 62.1498 141.835C62.3298 141.515 62.6148 141.245 63.0048 141.025C63.4048 140.805 63.9148 140.63 64.5348 140.5C65.1548 140.36 65.9048 140.265 66.7848 140.215C66.7448 139.875 66.5948 139.61 66.3348 139.42C66.0848 139.23 65.7048 139.135 65.1948 139.135C64.8348 139.135 64.4698 139.2 64.0998 139.33C63.7398 139.45 63.3498 139.615 62.9298 139.825L62.1498 138.385C62.6598 138.095 63.2048 137.855 63.7848 137.665C64.3748 137.475 64.9898 137.38 65.6298 137.38C66.6698 137.38 67.4898 137.655 68.0898 138.205C68.6898 138.755 68.9898 139.6 68.9898 140.74V145H67.1898L67.0248 144.16H66.9648C66.5848 144.45 66.1698 144.695 65.7198 144.895C65.2698 145.085 64.8048 145.18 64.3248 145.18C63.9448 145.18 63.6048 145.12 63.3048 145C63.0048 144.89 62.7498 144.735 62.5398 144.535C62.3298 144.325 62.1648 144.085 62.0448 143.815C61.9348 143.545 61.8798 143.25 61.8798 142.93ZM63.9948 142.765C63.9948 143.005 64.0848 143.185 64.2648 143.305C64.4548 143.415 64.7098 143.47 65.0298 143.47C65.3598 143.47 65.6698 143.405 65.9598 143.275C66.2498 143.135 66.5248 142.965 66.7848 142.765V141.535C66.2348 141.565 65.7798 141.615 65.4198 141.685C65.0598 141.755 64.7748 141.845 64.5648 141.955C64.3548 142.055 64.2048 142.175 64.1148 142.315C64.0348 142.455 63.9948 142.605 63.9948 142.765ZM78.059 145.81V147.46H70.859V145.81H78.059ZM79.4181 137.56H81.6381L82.8081 141.07C82.9281 141.45 83.0431 141.83 83.1531 142.21C83.2631 142.59 83.3731 142.975 83.4831 143.365H83.5431C83.6531 142.975 83.7581 142.59 83.8581 142.21C83.9681 141.83 84.0831 141.45 84.2031 141.07L85.3731 137.56H87.4881L84.7581 145H82.2231L79.4181 137.56ZM88.8623 142.93C88.8623 142.51 88.9523 142.145 89.1323 141.835C89.3123 141.515 89.5973 141.245 89.9873 141.025C90.3873 140.805 90.8973 140.63 91.5173 140.5C92.1373 140.36 92.8873 140.265 93.7673 140.215C93.7273 139.875 93.5773 139.61 93.3173 139.42C93.0673 139.23 92.6873 139.135 92.1773 139.135C91.8173 139.135 91.4523 139.2 91.0823 139.33C90.7223 139.45 90.3323 139.615 89.9123 139.825L89.1323 138.385C89.6423 138.095 90.1873 137.855 90.7673 137.665C91.3573 137.475 91.9723 137.38 92.6123 137.38C93.6523 137.38 94.4723 137.655 95.0723 138.205C95.6723 138.755 95.9723 139.6 95.9723 140.74V145H94.1723L94.0073 144.16H93.9473C93.5673 144.45 93.1523 144.695 92.7023 144.895C92.2523 145.085 91.7873 145.18 91.3073 145.18C90.9273 145.18 90.5873 145.12 90.2873 145C89.9873 144.89 89.7323 144.735 89.5223 144.535C89.3123 144.325 89.1473 144.085 89.0273 143.815C88.9173 143.545 88.8623 143.25 88.8623 142.93ZM90.9773 142.765C90.9773 143.005 91.0673 143.185 91.2473 143.305C91.4373 143.415 91.6923 143.47 92.0123 143.47C92.3423 143.47 92.6523 143.405 92.9423 143.275C93.2323 143.135 93.5073 142.965 93.7673 142.765V141.535C93.2173 141.565 92.7623 141.615 92.4023 141.685C92.0423 141.755 91.7573 141.845 91.5473 141.955C91.3373 142.055 91.1873 142.175 91.0973 142.315C91.0173 142.455 90.9773 142.605 90.9773 142.765ZM97.8714 134.485H102.236V142.18C102.236 142.41 102.266 142.605 102.326 142.765C102.396 142.915 102.486 143.04 102.596 143.14C102.716 143.23 102.846 143.295 102.986 143.335C103.136 143.375 103.286 143.395 103.436 143.395C103.606 143.395 103.786 143.38 103.976 143.35C104.166 143.31 104.376 143.245 104.606 143.155L105.101 144.775C104.901 144.835 104.716 144.89 104.546 144.94C104.376 144.99 104.206 145.03 104.036 145.06C103.866 145.1 103.686 145.13 103.496 145.15C103.306 145.17 103.096 145.18 102.866 145.18C101.926 145.18 101.216 144.905 100.736 144.355C100.266 143.795 100.031 143.04 100.031 142.09V136.225H97.8714V134.485ZM113.811 145H112.011L111.846 143.935H111.786C111.456 144.315 111.091 144.62 110.691 144.85C110.291 145.07 109.821 145.18 109.281 145.18C108.431 145.18 107.816 144.91 107.436 144.37C107.056 143.83 106.866 143.09 106.866 142.15V137.56H109.071V141.865C109.071 142.365 109.146 142.73 109.296 142.96C109.446 143.19 109.731 143.305 110.151 143.305C110.431 143.305 110.676 143.245 110.886 143.125C111.106 143.005 111.346 142.78 111.606 142.45V137.56H113.811V145ZM115.755 141.28C115.755 140.67 115.86 140.125 116.07 139.645C116.29 139.165 116.58 138.76 116.94 138.43C117.3 138.09 117.71 137.83 118.17 137.65C118.64 137.47 119.125 137.38 119.625 137.38C120.195 137.38 120.7 137.47 121.14 137.65C121.58 137.83 121.945 138.08 122.235 138.4C122.525 138.72 122.745 139.1 122.895 139.54C123.045 139.97 123.12 140.44 123.12 140.95C123.12 141.15 123.11 141.34 123.09 141.52C123.07 141.7 123.05 141.835 123.03 141.925H118.02C118.1 142.485 118.34 142.89 118.74 143.14C119.15 143.38 119.63 143.5 120.18 143.5C120.52 143.5 120.84 143.46 121.14 143.38C121.45 143.29 121.77 143.16 122.1 142.99L122.82 144.31C122.4 144.58 121.93 144.795 121.41 144.955C120.89 145.105 120.38 145.18 119.88 145.18C119.3 145.18 118.76 145.095 118.26 144.925C117.76 144.745 117.325 144.49 116.955 144.16C116.585 143.82 116.29 143.41 116.07 142.93C115.86 142.45 115.755 141.9 115.755 141.28ZM121.125 140.47C121.125 140.05 121.01 139.71 120.78 139.45C120.55 139.19 120.18 139.06 119.67 139.06C119.27 139.06 118.915 139.175 118.605 139.405C118.295 139.635 118.09 139.99 117.99 140.47H121.125ZM125.814 146.71C126.264 146.28 126.649 145.84 126.969 145.39C127.289 144.95 127.549 144.49 127.749 144.01C127.959 143.53 128.114 143.03 128.214 142.51C128.314 141.98 128.364 141.42 128.364 140.83C128.364 139.65 128.159 138.595 127.749 137.665C127.349 136.725 126.704 135.82 125.814 134.95L127.044 133.975C128.024 134.845 128.794 135.85 129.354 136.99C129.924 138.13 130.209 139.41 130.209 140.83C130.209 142.25 129.924 143.53 129.354 144.67C128.794 145.81 128.024 146.815 127.044 147.685L125.814 146.71Z" fill="white"/>
<path d="M10.285 70.585V72.76H8.08V62.56H9.88L10.045 63.31H10.09C10.39 63.04 10.735 62.82 11.125 62.65C11.515 62.47 11.91 62.38 12.31 62.38C12.77 62.38 13.185 62.47 13.555 62.65C13.925 62.83 14.24 63.085 14.5 63.415C14.76 63.745 14.955 64.145 15.085 64.615C15.225 65.075 15.295 65.59 15.295 66.16C15.295 66.8 15.205 67.37 15.025 67.87C14.845 68.36 14.605 68.78 14.305 69.13C14.005 69.47 13.66 69.73 13.27 69.91C12.89 70.09 12.49 70.18 12.07 70.18C11.39 70.18 10.77 69.91 10.21 69.37L10.285 70.585ZM10.285 67.885C10.495 68.065 10.71 68.195 10.93 68.275C11.16 68.345 11.37 68.38 11.56 68.38C11.98 68.38 12.33 68.21 12.61 67.87C12.89 67.52 13.03 66.96 13.03 66.19C13.03 64.85 12.575 64.18 11.665 64.18C11.195 64.18 10.735 64.41 10.285 64.87V67.885ZM17.7341 62.56H19.5341L19.7141 64.18H19.7591C20.1291 63.57 20.5741 63.12 21.0941 62.83C21.6141 62.53 22.1741 62.38 22.7741 62.38C23.1041 62.38 23.3691 62.405 23.5691 62.455C23.7791 62.505 23.9941 62.58 24.2141 62.68L23.7641 64.525C23.5341 64.455 23.3241 64.405 23.1341 64.375C22.9541 64.335 22.7241 64.315 22.4441 64.315C21.9841 64.315 21.5291 64.45 21.0791 64.72C20.6391 64.99 20.2591 65.46 19.9391 66.13V70H17.7341V62.56ZM26.1733 62.56H31.3633V70H29.1583V64.285H26.1733V62.56ZM30.1633 61.465C29.7333 61.465 29.3783 61.345 29.0983 61.105C28.8283 60.865 28.6933 60.54 28.6933 60.13C28.6933 59.72 28.8283 59.39 29.0983 59.14C29.3783 58.88 29.7333 58.75 30.1633 58.75C30.5933 58.75 30.9433 58.88 31.2133 59.14C31.4933 59.39 31.6333 59.72 31.6333 60.13C31.6333 60.54 31.4933 60.865 31.2133 61.105C30.9433 61.345 30.5933 61.465 30.1633 61.465ZM35.0624 62.56H36.8624L37.0274 63.55H37.0874C37.4074 63.23 37.7724 62.955 38.1824 62.725C38.6024 62.495 39.0924 62.38 39.6524 62.38C40.4924 62.38 41.1074 62.65 41.4974 63.19C41.8874 63.73 42.0824 64.47 42.0824 65.41V70H39.8774V65.695C39.8774 65.195 39.7974 64.83 39.6374 64.6C39.4774 64.37 39.1924 64.255 38.7824 64.255C38.4824 64.255 38.2174 64.32 37.9874 64.45C37.7674 64.58 37.5274 64.775 37.2674 65.035V70H35.0624V62.56ZM45.5866 64.285H43.7116V62.65L45.6916 62.56L45.9766 60.58H47.7916V62.56H50.9416V64.285H47.7916V66.895C47.7916 67.465 47.9166 67.87 48.1666 68.11C48.4166 68.34 48.8116 68.455 49.3516 68.455C49.6416 68.455 49.9066 68.43 50.1466 68.38C50.3866 68.33 50.6166 68.265 50.8366 68.185L51.2266 69.775C50.8966 69.875 50.5266 69.965 50.1166 70.045C49.7166 70.135 49.2766 70.18 48.7966 70.18C48.2066 70.18 47.7066 70.1 47.2966 69.94C46.8866 69.78 46.5516 69.56 46.2916 69.28C46.0416 68.99 45.8616 68.645 45.7516 68.245C45.6416 67.845 45.5866 67.4 45.5866 66.91V64.285ZM62.7048 62.56H64.5048L64.6848 64.18H64.7298C65.0998 63.57 65.5448 63.12 66.0648 62.83C66.5848 62.53 67.1448 62.38 67.7448 62.38C68.0748 62.38 68.3398 62.405 68.5398 62.455C68.7498 62.505 68.9648 62.58 69.1848 62.68L68.7348 64.525C68.5048 64.455 68.2948 64.405 68.1048 64.375C67.9248 64.335 67.6948 64.315 67.4148 64.315C66.9548 64.315 66.4998 64.45 66.0498 64.72C65.6098 64.99 65.2298 65.46 64.9098 66.13V70H62.7048V62.56ZM70.664 66.28C70.664 65.66 70.769 65.11 70.979 64.63C71.189 64.14 71.469 63.73 71.819 63.4C72.179 63.07 72.584 62.82 73.034 62.65C73.494 62.47 73.969 62.38 74.459 62.38C74.949 62.38 75.419 62.47 75.869 62.65C76.329 62.82 76.734 63.07 77.084 63.4C77.444 63.73 77.729 64.14 77.939 64.63C78.149 65.11 78.254 65.66 78.254 66.28C78.254 66.9 78.149 67.455 77.939 67.945C77.729 68.425 77.444 68.83 77.084 69.16C76.734 69.49 76.329 69.745 75.869 69.925C75.419 70.095 74.949 70.18 74.459 70.18C73.969 70.18 73.494 70.095 73.034 69.925C72.584 69.745 72.179 69.49 71.819 69.16C71.469 68.83 71.189 68.425 70.979 67.945C70.769 67.455 70.664 66.9 70.664 66.28ZM72.929 66.28C72.929 66.93 73.054 67.445 73.304 67.825C73.564 68.205 73.949 68.395 74.459 68.395C74.969 68.395 75.349 68.205 75.599 67.825C75.859 67.445 75.989 66.93 75.989 66.28C75.989 65.63 75.859 65.115 75.599 64.735C75.349 64.355 74.969 64.165 74.459 64.165C73.949 64.165 73.564 64.355 73.304 64.735C73.054 65.115 72.929 65.63 72.929 66.28ZM86.8281 70H85.0281L84.8631 68.935H84.8031C84.4731 69.315 84.1081 69.62 83.7081 69.85C83.3081 70.07 82.8381 70.18 82.2981 70.18C81.4481 70.18 80.8331 69.91 80.4531 69.37C80.0731 68.83 79.8831 68.09 79.8831 67.15V62.56H82.0881V66.865C82.0881 67.365 82.1631 67.73 82.3131 67.96C82.4631 68.19 82.7481 68.305 83.1681 68.305C83.4481 68.305 83.6931 68.245 83.9031 68.125C84.1231 68.005 84.3631 67.78 84.6231 67.45V62.56H86.8281V70ZM89.0273 62.56H90.8273L90.9923 63.55H91.0523C91.3723 63.23 91.7373 62.955 92.1473 62.725C92.5673 62.495 93.0573 62.38 93.6173 62.38C94.4573 62.38 95.0723 62.65 95.4623 63.19C95.8523 63.73 96.0473 64.47 96.0473 65.41V70H93.8423V65.695C93.8423 65.195 93.7623 64.83 93.6023 64.6C93.4423 64.37 93.1573 64.255 92.7473 64.255C92.4473 64.255 92.1823 64.32 91.9523 64.45C91.7323 64.58 91.4923 64.775 91.2323 65.035V70H89.0273V62.56ZM97.6464 66.28C97.6464 65.67 97.7364 65.125 97.9164 64.645C98.0964 64.165 98.3314 63.76 98.6214 63.43C98.9214 63.09 99.2614 62.83 99.6414 62.65C100.021 62.47 100.416 62.38 100.826 62.38C101.256 62.38 101.616 62.455 101.906 62.605C102.196 62.745 102.471 62.935 102.731 63.175L102.656 62.02V59.485H104.861V70H103.061L102.896 69.235H102.851C102.571 69.505 102.251 69.73 101.891 69.91C101.531 70.09 101.161 70.18 100.781 70.18C100.311 70.18 99.8814 70.09 99.4914 69.91C99.1114 69.73 98.7814 69.475 98.5014 69.145C98.2314 68.805 98.0214 68.395 97.8714 67.915C97.7214 67.435 97.6464 66.89 97.6464 66.28ZM99.9114 66.25C99.9114 66.99 100.036 67.53 100.286 67.87C100.536 68.21 100.891 68.38 101.351 68.38C101.601 68.38 101.831 68.33 102.041 68.23C102.251 68.12 102.456 67.94 102.656 67.69V64.675C102.456 64.495 102.251 64.37 102.041 64.3C101.841 64.22 101.631 64.18 101.411 64.18C101.001 64.18 100.646 64.35 100.346 64.69C100.056 65.03 99.9114 65.55 99.9114 66.25ZM10.285 88.585V90.76H8.08V80.56H9.88L10.045 81.31H10.09C10.39 81.04 10.735 80.82 11.125 80.65C11.515 80.47 11.91 80.38 12.31 80.38C12.77 80.38 13.185 80.47 13.555 80.65C13.925 80.83 14.24 81.085 14.5 81.415C14.76 81.745 14.955 82.145 15.085 82.615C15.225 83.075 15.295 83.59 15.295 84.16C15.295 84.8 15.205 85.37 15.025 85.87C14.845 86.36 14.605 86.78 14.305 87.13C14.005 87.47 13.66 87.73 13.27 87.91C12.89 88.09 12.49 88.18 12.07 88.18C11.39 88.18 10.77 87.91 10.21 87.37L10.285 88.585ZM10.285 85.885C10.495 86.065 10.71 86.195 10.93 86.275C11.16 86.345 11.37 86.38 11.56 86.38C11.98 86.38 12.33 86.21 12.61 85.87C12.89 85.52 13.03 84.96 13.03 84.19C13.03 82.85 12.575 82.18 11.665 82.18C11.195 82.18 10.735 82.41 10.285 82.87V85.885ZM17.7341 80.56H19.5341L19.7141 82.18H19.7591C20.1291 81.57 20.5741 81.12 21.0941 80.83C21.6141 80.53 22.1741 80.38 22.7741 80.38C23.1041 80.38 23.3691 80.405 23.5691 80.455C23.7791 80.505 23.9941 80.58 24.2141 80.68L23.7641 82.525C23.5341 82.455 23.3241 82.405 23.1341 82.375C22.9541 82.335 22.7241 82.315 22.4441 82.315C21.9841 82.315 21.5291 82.45 21.0791 82.72C20.6391 82.99 20.2591 83.46 19.9391 84.13V88H17.7341V80.56ZM26.1733 80.56H31.3633V88H29.1583V82.285H26.1733V80.56ZM30.1633 79.465C29.7333 79.465 29.3783 79.345 29.0983 79.105C28.8283 78.865 28.6933 78.54 28.6933 78.13C28.6933 77.72 28.8283 77.39 29.0983 77.14C29.3783 76.88 29.7333 76.75 30.1633 76.75C30.5933 76.75 30.9433 76.88 31.2133 77.14C31.4933 77.39 31.6333 77.72 31.6333 78.13C31.6333 78.54 31.4933 78.865 31.2133 79.105C30.9433 79.345 30.5933 79.465 30.1633 79.465ZM35.0624 80.56H36.8624L37.0274 81.55H37.0874C37.4074 81.23 37.7724 80.955 38.1824 80.725C38.6024 80.495 39.0924 80.38 39.6524 80.38C40.4924 80.38 41.1074 80.65 41.4974 81.19C41.8874 81.73 42.0824 82.47 42.0824 83.41V88H39.8774V83.695C39.8774 83.195 39.7974 82.83 39.6374 82.6C39.4774 82.37 39.1924 82.255 38.7824 82.255C38.4824 82.255 38.2174 82.32 37.9874 82.45C37.7674 82.58 37.5274 82.775 37.2674 83.035V88H35.0624V80.56ZM45.5866 82.285H43.7116V80.65L45.6916 80.56L45.9766 78.58H47.7916V80.56H50.9416V82.285H47.7916V84.895C47.7916 85.465 47.9166 85.87 48.1666 86.11C48.4166 86.34 48.8116 86.455 49.3516 86.455C49.6416 86.455 49.9066 86.43 50.1466 86.38C50.3866 86.33 50.6166 86.265 50.8366 86.185L51.2266 87.775C50.8966 87.875 50.5266 87.965 50.1166 88.045C49.7166 88.135 49.2766 88.18 48.7966 88.18C48.2066 88.18 47.7066 88.1 47.2966 87.94C46.8866 87.78 46.5516 87.56 46.2916 87.28C46.0416 86.99 45.8616 86.645 45.7516 86.245C45.6416 85.845 45.5866 85.4 45.5866 84.91V82.285ZM98.6814 118.56H100.481L100.661 120.18H100.706C101.076 119.57 101.521 119.12 102.041 118.83C102.561 118.53 103.121 118.38 103.721 118.38C104.051 118.38 104.316 118.405 104.516 118.455C104.726 118.505 104.941 118.58 105.161 118.68L104.711 120.525C104.481 120.455 104.271 120.405 104.081 120.375C103.901 120.335 103.671 120.315 103.391 120.315C102.931 120.315 102.476 120.45 102.026 120.72C101.586 120.99 101.206 121.46 100.886 122.13V126H98.6814V118.56ZM106.641 122.28C106.641 121.66 106.746 121.11 106.956 120.63C107.166 120.14 107.446 119.73 107.796 119.4C108.156 119.07 108.561 118.82 109.011 118.65C109.471 118.47 109.946 118.38 110.436 118.38C110.926 118.38 111.396 118.47 111.846 118.65C112.306 118.82 112.711 119.07 113.061 119.4C113.421 119.73 113.706 120.14 113.916 120.63C114.126 121.11 114.231 121.66 114.231 122.28C114.231 122.9 114.126 123.455 113.916 123.945C113.706 124.425 113.421 124.83 113.061 125.16C112.711 125.49 112.306 125.745 111.846 125.925C111.396 126.095 110.926 126.18 110.436 126.18C109.946 126.18 109.471 126.095 109.011 125.925C108.561 125.745 108.156 125.49 107.796 125.16C107.446 124.83 107.166 124.425 106.956 123.945C106.746 123.455 106.641 122.9 106.641 122.28ZM108.906 122.28C108.906 122.93 109.031 123.445 109.281 123.825C109.541 124.205 109.926 124.395 110.436 124.395C110.946 124.395 111.326 124.205 111.576 123.825C111.836 123.445 111.966 122.93 111.966 122.28C111.966 121.63 111.836 121.115 111.576 120.735C111.326 120.355 110.946 120.165 110.436 120.165C109.926 120.165 109.541 120.355 109.281 120.735C109.031 121.115 108.906 121.63 108.906 122.28ZM122.805 126H121.005L120.84 124.935H120.78C120.45 125.315 120.085 125.62 119.685 125.85C119.285 126.07 118.815 126.18 118.275 126.18C117.425 126.18 116.81 125.91 116.43 125.37C116.05 124.83 115.86 124.09 115.86 123.15V118.56H118.065V122.865C118.065 123.365 118.14 123.73 118.29 123.96C118.44 124.19 118.725 124.305 119.145 124.305C119.425 124.305 119.67 124.245 119.88 124.125C120.1 124.005 120.34 123.78 120.6 123.45V118.56H122.805V126ZM125.004 118.56H126.804L126.969 119.55H127.029C127.349 119.23 127.714 118.955 128.124 118.725C128.544 118.495 129.034 118.38 129.594 118.38C130.434 118.38 131.049 118.65 131.439 119.19C131.829 119.73 132.024 120.47 132.024 121.41V126H129.819V121.695C129.819 121.195 129.739 120.83 129.579 120.6C129.419 120.37 129.134 120.255 128.724 120.255C128.424 120.255 128.159 120.32 127.929 120.45C127.709 120.58 127.469 120.775 127.209 121.035V126H125.004V118.56ZM133.623 122.28C133.623 121.67 133.713 121.125 133.893 120.645C134.073 120.165 134.308 119.76 134.598 119.43C134.898 119.09 135.238 118.83 135.618 118.65C135.998 118.47 136.393 118.38 136.803 118.38C137.233 118.38 137.593 118.455 137.883 118.605C138.173 118.745 138.448 118.935 138.708 119.175L138.633 118.02V115.485H140.838V126H139.038L138.873 125.235H138.828C138.548 125.505 138.228 125.73 137.868 125.91C137.508 126.09 137.138 126.18 136.758 126.18C136.288 126.18 135.858 126.09 135.468 125.91C135.088 125.73 134.758 125.475 134.478 125.145C134.208 124.805 133.998 124.395 133.848 123.915C133.698 123.435 133.623 122.89 133.623 122.28ZM135.888 122.25C135.888 122.99 136.013 123.53 136.263 123.87C136.513 124.21 136.868 124.38 137.328 124.38C137.578 124.38 137.808 124.33 138.018 124.23C138.228 124.12 138.433 123.94 138.633 123.69V120.675C138.433 120.495 138.228 120.37 138.018 120.3C137.818 120.22 137.608 120.18 137.388 120.18C136.978 120.18 136.623 120.35 136.323 120.69C136.033 121.03 135.888 121.55 135.888 122.25ZM10.285 145.585V147.76H8.08V137.56H9.88L10.045 138.31H10.09C10.39 138.04 10.735 137.82 11.125 137.65C11.515 137.47 11.91 137.38 12.31 137.38C12.77 137.38 13.185 137.47 13.555 137.65C13.925 137.83 14.24 138.085 14.5 138.415C14.76 138.745 14.955 139.145 15.085 139.615C15.225 140.075 15.295 140.59 15.295 141.16C15.295 141.8 15.205 142.37 15.025 142.87C14.845 143.36 14.605 143.78 14.305 144.13C14.005 144.47 13.66 144.73 13.27 144.91C12.89 145.09 12.49 145.18 12.07 145.18C11.39 145.18 10.77 144.91 10.21 144.37L10.285 145.585ZM10.285 142.885C10.495 143.065 10.71 143.195 10.93 143.275C11.16 143.345 11.37 143.38 11.56 143.38C11.98 143.38 12.33 143.21 12.61 142.87C12.89 142.52 13.03 141.96 13.03 141.19C13.03 139.85 12.575 139.18 11.665 139.18C11.195 139.18 10.735 139.41 10.285 139.87V142.885ZM17.7341 137.56H19.5341L19.7141 139.18H19.7591C20.1291 138.57 20.5741 138.12 21.0941 137.83C21.6141 137.53 22.1741 137.38 22.7741 137.38C23.1041 137.38 23.3691 137.405 23.5691 137.455C23.7791 137.505 23.9941 137.58 24.2141 137.68L23.7641 139.525C23.5341 139.455 23.3241 139.405 23.1341 139.375C22.9541 139.335 22.7241 139.315 22.4441 139.315C21.9841 139.315 21.5291 139.45 21.0791 139.72C20.6391 139.99 20.2591 140.46 19.9391 141.13V145H17.7341V137.56ZM26.1733 137.56H31.3633V145H29.1583V139.285H26.1733V137.56ZM30.1633 136.465C29.7333 136.465 29.3783 136.345 29.0983 136.105C28.8283 135.865 28.6933 135.54 28.6933 135.13C28.6933 134.72 28.8283 134.39 29.0983 134.14C29.3783 133.88 29.7333 133.75 30.1633 133.75C30.5933 133.75 30.9433 133.88 31.2133 134.14C31.4933 134.39 31.6333 134.72 31.6333 135.13C31.6333 135.54 31.4933 135.865 31.2133 136.105C30.9433 136.345 30.5933 136.465 30.1633 136.465ZM35.0624 137.56H36.8624L37.0274 138.55H37.0874C37.4074 138.23 37.7724 137.955 38.1824 137.725C38.6024 137.495 39.0924 137.38 39.6524 137.38C40.4924 137.38 41.1074 137.65 41.4974 138.19C41.8874 138.73 42.0824 139.47 42.0824 140.41V145H39.8774V140.695C39.8774 140.195 39.7974 139.83 39.6374 139.6C39.4774 139.37 39.1924 139.255 38.7824 139.255C38.4824 139.255 38.2174 139.32 37.9874 139.45C37.7674 139.58 37.5274 139.775 37.2674 140.035V145H35.0624V137.56ZM45.5866 139.285H43.7116V137.65L45.6916 137.56L45.9766 135.58H47.7916V137.56H50.9416V139.285H47.7916V141.895C47.7916 142.465 47.9166 142.87 48.1666 143.11C48.4166 143.34 48.8116 143.455 49.3516 143.455C49.6416 143.455 49.9066 143.43 50.1466 143.38C50.3866 143.33 50.6166 143.265 50.8366 143.185L51.2266 144.775C50.8966 144.875 50.5266 144.965 50.1166 145.045C49.7166 145.135 49.2766 145.18 48.7966 145.18C48.2066 145.18 47.7066 145.1 47.2966 144.94C46.8866 144.78 46.5516 144.56 46.2916 144.28C46.0416 143.99 45.8616 143.645 45.7516 143.245C45.6416 142.845 45.5866 142.4 45.5866 141.91V139.285Z" fill="#56B4E9"/>
<path d="M80.0031 43.53H86.9031V45.09H80.0031V43.53ZM80.0031 46.995H86.9031V48.555H80.0031V46.995ZM80.0031 118.53H86.9031V120.09H80.0031V118.53ZM80.0031 121.995H86.9031V123.555H80.0031V121.995Z" fill="#BDBDBD"/>
<path d="M98.5914 48.435C98.9114 48.715 99.2664 48.945 99.6564 49.125C100.056 49.305 100.476 49.395 100.916 49.395C101.436 49.395 101.861 49.3 102.191 49.11C102.531 48.91 102.701 48.63 102.701 48.27C102.701 48.06 102.656 47.87 102.566 47.7C102.476 47.53 102.321 47.39 102.101 47.28C101.881 47.16 101.586 47.07 101.216 47.01C100.846 46.94 100.381 46.905 99.8214 46.905V45.345C100.761 45.345 101.421 45.23 101.801 45C102.191 44.76 102.386 44.45 102.386 44.07C102.386 43.74 102.261 43.485 102.011 43.305C101.761 43.115 101.416 43.02 100.976 43.02C100.596 43.02 100.246 43.095 99.9264 43.245C99.6064 43.395 99.2814 43.6 98.9514 43.86L97.8414 42.51C98.3114 42.13 98.8114 41.835 99.3414 41.625C99.8814 41.405 100.461 41.295 101.081 41.295C101.601 41.295 102.076 41.355 102.506 41.475C102.936 41.585 103.306 41.755 103.616 41.985C103.926 42.205 104.166 42.475 104.336 42.795C104.506 43.115 104.591 43.485 104.591 43.905C104.591 44.405 104.431 44.83 104.111 45.18C103.791 45.52 103.346 45.8 102.776 46.02V46.08C103.376 46.24 103.881 46.515 104.291 46.905C104.701 47.285 104.906 47.785 104.906 48.405C104.906 48.845 104.801 49.24 104.591 49.59C104.391 49.93 104.116 50.22 103.766 50.46C103.426 50.69 103.026 50.87 102.566 51C102.106 51.12 101.626 51.18 101.126 51.18C100.306 51.18 99.6014 51.06 99.0114 50.82C98.4214 50.57 97.9414 50.24 97.5714 49.83L98.5914 48.435ZM108.696 49.425C108.696 49.175 108.736 48.945 108.816 48.735C108.906 48.515 109.026 48.325 109.176 48.165C109.326 48.005 109.506 47.88 109.716 47.79C109.936 47.7 110.176 47.655 110.436 47.655C110.696 47.655 110.931 47.7 111.141 47.79C111.361 47.88 111.546 48.005 111.696 48.165C111.846 48.325 111.961 48.515 112.041 48.735C112.131 48.945 112.176 49.175 112.176 49.425C112.176 49.925 112.016 50.345 111.696 50.685C111.376 51.015 110.956 51.18 110.436 51.18C109.916 51.18 109.496 51.015 109.176 50.685C108.856 50.345 108.696 49.925 108.696 49.425ZM117.825 51C117.865 50.21 117.94 49.485 118.05 48.825C118.17 48.155 118.335 47.52 118.545 46.92C118.765 46.31 119.045 45.72 119.385 45.15C119.725 44.57 120.145 43.965 120.645 43.335H115.86V41.475H123.015V42.825C122.415 43.495 121.93 44.125 121.56 44.715C121.19 45.295 120.9 45.9 120.69 46.53C120.48 47.15 120.33 47.82 120.24 48.54C120.15 49.25 120.085 50.07 120.045 51H117.825Z" fill="#F0E442"/>
</svg>
