<svg width="426" height="175" viewBox="0 0 426 175" fill="none" xmlns="http://www.w3.org/2000/svg">
<rect width="197" height="175" fill="black"/>
<line y1="103.5" x2="197" y2="103.5" stroke="white"/>
<path d="M11.5011 124.18C10.9211 124.18 10.3861 124.065 9.89613 123.835C9.41613 123.595 9.00113 123.255 8.65113 122.815C8.31113 122.375 8.04613 121.84 7.85613 121.21C7.66613 120.58 7.57113 119.865 7.57113 119.065C7.57113 118.265 7.66613 117.555 7.85613 116.935C8.04613 116.305 8.31113 115.78 8.65113 115.36C9.00113 114.93 9.41613 114.605 9.89613 114.385C10.3861 114.155 10.9211 114.04 11.5011 114.04C12.0811 114.04 12.6111 114.155 13.0911 114.385C13.5811 114.605 13.9961 114.93 14.3361 115.36C14.6861 115.79 14.9561 116.32 15.1461 116.95C15.3361 117.57 15.4311 118.275 15.4311 119.065C15.4311 119.865 15.3361 120.58 15.1461 121.21C14.9561 121.84 14.6861 122.375 14.3361 122.815C13.9961 123.255 13.5811 123.595 13.0911 123.835C12.6111 124.065 12.0811 124.18 11.5011 124.18ZM11.5011 122.275C12.0111 122.275 12.4161 121.99 12.7161 121.42C13.0161 120.84 13.1661 120.055 13.1661 119.065C13.1661 118.085 13.0161 117.32 12.7161 116.77C12.4161 116.22 12.0111 115.945 11.5011 115.945C10.9911 115.945 10.5861 116.22 10.2861 116.77C9.98613 117.32 9.83613 118.085 9.83613 119.065C9.83613 120.055 9.98613 120.84 10.2861 121.42C10.5861 121.99 10.9911 122.275 11.5011 122.275ZM23.8703 124H22.0703L21.9053 122.935H21.8453C21.5153 123.315 21.1503 123.62 20.7503 123.85C20.3503 124.07 19.8803 124.18 19.3403 124.18C18.4903 124.18 17.8753 123.91 17.4953 123.37C17.1153 122.83 16.9253 122.09 16.9253 121.15V116.56H19.1303V120.865C19.1303 121.365 19.2053 121.73 19.3553 121.96C19.5053 122.19 19.7903 122.305 20.2103 122.305C20.4903 122.305 20.7353 122.245 20.9453 122.125C21.1653 122.005 21.4053 121.78 21.6653 121.45V116.56H23.8703V124ZM27.5994 118.285H25.7244V116.65L27.7044 116.56L27.9894 114.58H29.8044V116.56H32.9544V118.285H29.8044V120.895C29.8044 121.465 29.9294 121.87 30.1794 122.11C30.4294 122.34 30.8244 122.455 31.3644 122.455C31.6544 122.455 31.9194 122.43 32.1594 122.38C32.3994 122.33 32.6294 122.265 32.8494 122.185L33.2394 123.775C32.9094 123.875 32.5394 123.965 32.1294 124.045C31.7294 124.135 31.2894 124.18 30.8094 124.18C30.2194 124.18 29.7194 124.1 29.3094 123.94C28.8994 123.78 28.5644 123.56 28.3044 123.28C28.0544 122.99 27.8744 122.645 27.7644 122.245C27.6544 121.845 27.5994 121.4 27.5994 120.91V118.285ZM37.2686 124.585V126.76H35.0636V116.56H36.8636L37.0286 117.31H37.0736C37.3736 117.04 37.7186 116.82 38.1086 116.65C38.4986 116.47 38.8936 116.38 39.2936 116.38C39.7536 116.38 40.1686 116.47 40.5386 116.65C40.9086 116.83 41.2236 117.085 41.4836 117.415C41.7436 117.745 41.9386 118.145 42.0686 118.615C42.2086 119.075 42.2786 119.59 42.2786 120.16C42.2786 120.8 42.1886 121.37 42.0086 121.87C41.8286 122.36 41.5886 122.78 41.2886 123.13C40.9886 123.47 40.6436 123.73 40.2536 123.91C39.8736 124.09 39.4736 124.18 39.0536 124.18C38.3736 124.18 37.7536 123.91 37.1936 123.37L37.2686 124.585ZM37.2686 121.885C37.4786 122.065 37.6936 122.195 37.9136 122.275C38.1436 122.345 38.3536 122.38 38.5436 122.38C38.9636 122.38 39.3136 122.21 39.5936 121.87C39.8736 121.52 40.0136 120.96 40.0136 120.19C40.0136 118.85 39.5586 118.18 38.6486 118.18C38.1786 118.18 37.7186 118.41 37.2686 118.87V121.885ZM50.8527 124H49.0527L48.8877 122.935H48.8277C48.4977 123.315 48.1327 123.62 47.7327 123.85C47.3327 124.07 46.8627 124.18 46.3227 124.18C45.4727 124.18 44.8577 123.91 44.4777 123.37C44.0977 122.83 43.9077 122.09 43.9077 121.15V116.56H46.1127V120.865C46.1127 121.365 46.1877 121.73 46.3377 121.96C46.4877 122.19 46.7727 122.305 47.1927 122.305C47.4727 122.305 47.7177 122.245 47.9277 122.125C48.1477 122.005 48.3877 121.78 48.6477 121.45V116.56H50.8527V124ZM54.5818 118.285H52.7068V116.65L54.6868 116.56L54.9718 114.58H56.7868V116.56H59.9368V118.285H56.7868V120.895C56.7868 121.465 56.9118 121.87 57.1618 122.11C57.4118 122.34 57.8068 122.455 58.3468 122.455C58.6368 122.455 58.9018 122.43 59.1418 122.38C59.3818 122.33 59.6118 122.265 59.8318 122.185L60.2218 123.775C59.8918 123.875 59.5218 123.965 59.1118 124.045C58.7118 124.135 58.2718 124.18 57.7918 124.18C57.2018 124.18 56.7018 124.1 56.2918 123.94C55.8818 123.78 55.5468 123.56 55.2868 123.28C55.0368 122.99 54.8568 122.645 54.7468 122.245C54.6368 121.845 54.5818 121.4 54.5818 120.91V118.285Z" fill="white"/>
<path d="M12.88 146.685C11.9 145.815 11.125 144.81 10.555 143.67C9.995 142.53 9.715 141.25 9.715 139.83C9.715 138.41 9.995 137.13 10.555 135.99C11.125 134.85 11.9 133.845 12.88 132.975L14.11 133.95C13.22 134.82 12.57 135.725 12.16 136.665C11.76 137.595 11.56 138.65 11.56 139.83C11.56 140.42 11.61 140.98 11.71 141.51C11.81 142.03 11.96 142.53 12.16 143.01C12.37 143.49 12.635 143.95 12.955 144.39C13.275 144.84 13.66 145.28 14.11 145.71L12.88 146.685ZM24.0491 142.215V144H17.2241V142.215H19.6841V136.71H17.7191V135.345C18.2791 135.245 18.7541 135.125 19.1441 134.985C19.5441 134.845 19.9191 134.675 20.2691 134.475H21.8891V142.215H24.0491ZM27.7183 145.965C29.0183 145.515 29.6683 144.805 29.6683 143.835C29.6283 143.845 29.5733 143.85 29.5033 143.85C29.2933 143.85 29.0883 143.82 28.8883 143.76C28.6983 143.69 28.5283 143.59 28.3783 143.46C28.2283 143.33 28.1083 143.17 28.0183 142.98C27.9283 142.79 27.8833 142.57 27.8833 142.32C27.8833 141.85 28.0433 141.475 28.3633 141.195C28.6933 140.915 29.0933 140.775 29.5633 140.775C30.1833 140.775 30.6483 141.005 30.9583 141.465C31.2683 141.915 31.4233 142.545 31.4233 143.355C31.4233 144.315 31.1583 145.125 30.6283 145.785C30.0983 146.445 29.3133 146.935 28.2733 147.255L27.7183 145.965ZM46.2766 135.9L46.2016 133.725H48.7516L48.6766 135.9L48.1516 139.455H46.8016L46.2766 135.9ZM52.8857 141.93C52.8857 141.51 52.9757 141.145 53.1557 140.835C53.3357 140.515 53.6207 140.245 54.0107 140.025C54.4107 139.805 54.9207 139.63 55.5407 139.5C56.1607 139.36 56.9107 139.265 57.7907 139.215C57.7507 138.875 57.6007 138.61 57.3407 138.42C57.0907 138.23 56.7107 138.135 56.2007 138.135C55.8407 138.135 55.4757 138.2 55.1057 138.33C54.7457 138.45 54.3557 138.615 53.9357 138.825L53.1557 137.385C53.6657 137.095 54.2107 136.855 54.7907 136.665C55.3807 136.475 55.9957 136.38 56.6357 136.38C57.6757 136.38 58.4957 136.655 59.0957 137.205C59.6957 137.755 59.9957 138.6 59.9957 139.74V144H58.1957L58.0307 143.16H57.9707C57.5907 143.45 57.1757 143.695 56.7257 143.895C56.2757 144.085 55.8107 144.18 55.3307 144.18C54.9507 144.18 54.6107 144.12 54.3107 144C54.0107 143.89 53.7557 143.735 53.5457 143.535C53.3357 143.325 53.1707 143.085 53.0507 142.815C52.9407 142.545 52.8857 142.25 52.8857 141.93ZM55.0007 141.765C55.0007 142.005 55.0907 142.185 55.2707 142.305C55.4607 142.415 55.7157 142.47 56.0357 142.47C56.3657 142.47 56.6757 142.405 56.9657 142.275C57.2557 142.135 57.5307 141.965 57.7907 141.765V140.535C57.2407 140.565 56.7857 140.615 56.4257 140.685C56.0657 140.755 55.7807 140.845 55.5707 140.955C55.3607 141.055 55.2107 141.175 55.1207 141.315C55.0407 141.455 55.0007 141.605 55.0007 141.765ZM64.2648 135.9L64.1898 133.725H66.7398L66.6648 135.9L66.1398 139.455H64.7898L64.2648 135.9ZM71.849 145.71C72.299 145.28 72.684 144.84 73.004 144.39C73.324 143.95 73.584 143.49 73.784 143.01C73.994 142.53 74.149 142.03 74.249 141.51C74.349 140.98 74.399 140.42 74.399 139.83C74.399 138.65 74.194 137.595 73.784 136.665C73.384 135.725 72.739 134.82 71.849 133.95L73.079 132.975C74.059 133.845 74.829 134.85 75.389 135.99C75.959 137.13 76.244 138.41 76.244 139.83C76.244 141.25 75.959 142.53 75.389 143.67C74.829 144.81 74.059 145.815 73.079 146.685L71.849 145.71ZM9.61 157.285H7.735V155.65L9.715 155.56L10 153.58H11.815V155.56H14.965V157.285H11.815V159.895C11.815 160.465 11.94 160.87 12.19 161.11C12.44 161.34 12.835 161.455 13.375 161.455C13.665 161.455 13.93 161.43 14.17 161.38C14.41 161.33 14.64 161.265 14.86 161.185L15.25 162.775C14.92 162.875 14.55 162.965 14.14 163.045C13.74 163.135 13.3 163.18 12.82 163.18C12.23 163.18 11.73 163.1 11.32 162.94C10.91 162.78 10.575 162.56 10.315 162.28C10.065 161.99 9.885 161.645 9.775 161.245C9.665 160.845 9.61 160.4 9.61 159.91V157.285ZM23.8691 163H22.0691L21.9041 161.935H21.8441C21.5141 162.315 21.1491 162.62 20.7491 162.85C20.3491 163.07 19.8791 163.18 19.3391 163.18C18.4891 163.18 17.8741 162.91 17.4941 162.37C17.1141 161.83 16.9241 161.09 16.9241 160.15V155.56H19.1291V159.865C19.1291 160.365 19.2041 160.73 19.3541 160.96C19.5041 161.19 19.7891 161.305 20.2091 161.305C20.4891 161.305 20.7341 161.245 20.9441 161.125C21.1641 161.005 21.4041 160.78 21.6641 160.45V155.56H23.8691V163ZM28.2733 163.585V165.76H26.0683V155.56H27.8683L28.0333 156.31H28.0783C28.3783 156.04 28.7233 155.82 29.1133 155.65C29.5033 155.47 29.8983 155.38 30.2983 155.38C30.7583 155.38 31.1733 155.47 31.5433 155.65C31.9133 155.83 32.2283 156.085 32.4883 156.415C32.7483 156.745 32.9433 157.145 33.0733 157.615C33.2133 158.075 33.2833 158.59 33.2833 159.16C33.2833 159.8 33.1933 160.37 33.0133 160.87C32.8333 161.36 32.5933 161.78 32.2933 162.13C31.9933 162.47 31.6483 162.73 31.2583 162.91C30.8783 163.09 30.4783 163.18 30.0583 163.18C29.3783 163.18 28.7583 162.91 28.1983 162.37L28.2733 163.585ZM28.2733 160.885C28.4833 161.065 28.6983 161.195 28.9183 161.275C29.1483 161.345 29.3583 161.38 29.5483 161.38C29.9683 161.38 30.3183 161.21 30.5983 160.87C30.8783 160.52 31.0183 159.96 31.0183 159.19C31.0183 157.85 30.5633 157.18 29.6533 157.18C29.1833 157.18 28.7233 157.41 28.2733 157.87V160.885ZM34.9124 152.485H39.2774V160.18C39.2774 160.41 39.3074 160.605 39.3674 160.765C39.4374 160.915 39.5274 161.04 39.6374 161.14C39.7574 161.23 39.8874 161.295 40.0274 161.335C40.1774 161.375 40.3274 161.395 40.4774 161.395C40.6474 161.395 40.8274 161.38 41.0174 161.35C41.2074 161.31 41.4174 161.245 41.6474 161.155L42.1424 162.775C41.9424 162.835 41.7574 162.89 41.5874 162.94C41.4174 162.99 41.2474 163.03 41.0774 163.06C40.9074 163.1 40.7274 163.13 40.5374 163.15C40.3474 163.17 40.1374 163.18 39.9074 163.18C38.9674 163.18 38.2574 162.905 37.7774 162.355C37.3074 161.795 37.0724 161.04 37.0724 160.09V154.225H34.9124V152.485ZM43.8016 159.28C43.8016 158.67 43.9066 158.125 44.1166 157.645C44.3366 157.165 44.6266 156.76 44.9866 156.43C45.3466 156.09 45.7566 155.83 46.2166 155.65C46.6866 155.47 47.1716 155.38 47.6716 155.38C48.2416 155.38 48.7466 155.47 49.1866 155.65C49.6266 155.83 49.9916 156.08 50.2816 156.4C50.5716 156.72 50.7916 157.1 50.9416 157.54C51.0916 157.97 51.1666 158.44 51.1666 158.95C51.1666 159.15 51.1566 159.34 51.1366 159.52C51.1166 159.7 51.0966 159.835 51.0766 159.925H46.0666C46.1466 160.485 46.3866 160.89 46.7866 161.14C47.1966 161.38 47.6766 161.5 48.2266 161.5C48.5666 161.5 48.8866 161.46 49.1866 161.38C49.4966 161.29 49.8166 161.16 50.1466 160.99L50.8666 162.31C50.4466 162.58 49.9766 162.795 49.4566 162.955C48.9366 163.105 48.4266 163.18 47.9266 163.18C47.3466 163.18 46.8066 163.095 46.3066 162.925C45.8066 162.745 45.3716 162.49 45.0016 162.16C44.6316 161.82 44.3366 161.41 44.1166 160.93C43.9066 160.45 43.8016 159.9 43.8016 159.28ZM49.1716 158.47C49.1716 158.05 49.0566 157.71 48.8266 157.45C48.5966 157.19 48.2266 157.06 47.7166 157.06C47.3166 157.06 46.9616 157.175 46.6516 157.405C46.3416 157.635 46.1366 157.99 46.0366 158.47H49.1716Z" fill="white"/>
<rect x="79" width="118" height="31" fill="#333333"/>
<rect x="79" width="118" height="31" fill="#333333"/>
<rect width="79" height="31" fill="#090808"/>
<path d="M12.105 17.8101C12.105 17.5513 11.9756 17.3486 11.7168 17.2021C11.4629 17.0508 11.0527 16.9165 10.4863 16.7993C8.60156 16.4038 7.65918 15.603 7.65918 14.397C7.65918 13.6938 7.94971 13.1079 8.53076 12.6392C9.1167 12.1655 9.88086 11.9287 10.8232 11.9287C11.8291 11.9287 12.6323 12.1655 13.2329 12.6392C13.8384 13.1128 14.1411 13.728 14.1411 14.4849H12.0244C12.0244 14.1821 11.9268 13.9331 11.7314 13.7378C11.5361 13.5376 11.231 13.4375 10.8159 13.4375C10.4595 13.4375 10.1836 13.5181 9.98828 13.6792C9.79297 13.8403 9.69531 14.0454 9.69531 14.2944C9.69531 14.5288 9.80518 14.7192 10.0249 14.8657C10.2495 15.0073 10.6255 15.1318 11.1528 15.2393C11.6802 15.3418 12.1245 15.459 12.4858 15.5908C13.604 16.001 14.1631 16.7114 14.1631 17.7222C14.1631 18.4448 13.853 19.0308 13.2329 19.48C12.6128 19.9243 11.812 20.1465 10.8306 20.1465C10.1665 20.1465 9.57568 20.0293 9.05811 19.7949C8.54541 19.5557 8.14258 19.231 7.84961 18.8208C7.55664 18.4058 7.41016 17.959 7.41016 17.4805H9.41699C9.43652 17.8564 9.57568 18.1445 9.83447 18.3447C10.0933 18.5449 10.4399 18.645 10.8745 18.645C11.2798 18.645 11.585 18.5693 11.79 18.418C12 18.2617 12.105 18.0591 12.105 17.8101ZM18.8286 18.4399C19.2192 18.4399 19.5366 18.3325 19.7808 18.1177C20.0249 17.9028 20.1519 17.6172 20.1616 17.2607H22.1465C22.1416 17.7979 21.9951 18.291 21.707 18.7402C21.4189 19.1846 21.0234 19.5312 20.5205 19.7803C20.0225 20.0244 19.4707 20.1465 18.8652 20.1465C17.7324 20.1465 16.8389 19.7876 16.1846 19.0698C15.5303 18.3472 15.2031 17.3511 15.2031 16.0815V15.9424C15.2031 14.7217 15.5278 13.7476 16.1772 13.02C16.8267 12.2925 17.7178 11.9287 18.8506 11.9287C19.8418 11.9287 20.6353 12.2119 21.231 12.7783C21.8315 13.3398 22.1367 14.0894 22.1465 15.0269H20.1616C20.1519 14.6167 20.0249 14.2847 19.7808 14.0308C19.5366 13.772 19.2144 13.6426 18.814 13.6426C18.3208 13.6426 17.9473 13.8232 17.6934 14.1846C17.4443 14.541 17.3198 15.1221 17.3198 15.9277V16.1475C17.3198 16.9629 17.4443 17.5488 17.6934 17.9053C17.9424 18.2617 18.3208 18.4399 18.8286 18.4399ZM27.8081 14.0601C27.52 14.021 27.2661 14.0015 27.0464 14.0015C26.2456 14.0015 25.7207 14.2725 25.4717 14.8145V20H23.355V12.0752H25.3545L25.4131 13.02C25.8379 12.2925 26.4263 11.9287 27.1782 11.9287C27.4126 11.9287 27.6323 11.9604 27.8374 12.0239L27.8081 14.0601ZM31.0674 20H28.9434V12.0752H31.0674V20ZM28.8188 10.0244C28.8188 9.70703 28.9238 9.4458 29.1338 9.24072C29.3486 9.03564 29.6392 8.93311 30.0054 8.93311C30.3667 8.93311 30.6548 9.03564 30.8696 9.24072C31.0845 9.4458 31.1919 9.70703 31.1919 10.0244C31.1919 10.3467 31.082 10.6104 30.8623 10.8154C30.6475 11.0205 30.3618 11.123 30.0054 11.123C29.6489 11.123 29.3608 11.0205 29.1411 10.8154C28.9263 10.6104 28.8188 10.3467 28.8188 10.0244ZM39.9517 16.1108C39.9517 17.3315 39.6733 18.3105 39.1167 19.0479C38.5649 19.7803 37.8179 20.1465 36.8755 20.1465C36.0747 20.1465 35.4277 19.8682 34.9346 19.3115V23.0469H32.8179V12.0752H34.7808L34.854 12.8516C35.3667 12.2363 36.0356 11.9287 36.8608 11.9287C37.8374 11.9287 38.5967 12.29 39.1387 13.0127C39.6807 13.7354 39.9517 14.7314 39.9517 16.001V16.1108ZM37.835 15.957C37.835 15.2197 37.7031 14.6509 37.4395 14.2505C37.1807 13.8501 36.8022 13.6499 36.3042 13.6499C35.6401 13.6499 35.1836 13.9038 34.9346 14.4116V17.6562C35.1934 18.1787 35.6548 18.4399 36.3188 18.4399C37.3296 18.4399 37.835 17.6123 37.835 15.957ZM43.8042 10.127V12.0752H45.1592V13.6279H43.8042V17.583C43.8042 17.876 43.8604 18.0859 43.9727 18.2129C44.085 18.3398 44.2998 18.4033 44.6172 18.4033C44.8516 18.4033 45.0591 18.3862 45.2397 18.3521V19.9561C44.8247 20.083 44.3975 20.1465 43.958 20.1465C42.4736 20.1465 41.7168 19.397 41.6875 17.8979V13.6279H40.5303V12.0752H41.6875V10.127H43.8042ZM46.4482 18.96C46.4482 18.623 46.5605 18.3496 46.7852 18.1396C47.0146 17.9297 47.3003 17.8247 47.6421 17.8247C47.9888 17.8247 48.2744 17.9297 48.499 18.1396C48.7285 18.3496 48.8433 18.623 48.8433 18.96C48.8433 19.292 48.731 19.563 48.5063 19.7729C48.2817 19.978 47.9937 20.0806 47.6421 20.0806C47.2954 20.0806 47.0098 19.978 46.7852 19.7729C46.5605 19.563 46.4482 19.292 46.4482 18.96ZM57.8374 16.1108C57.8374 17.3315 57.5591 18.3105 57.0024 19.0479C56.4507 19.7803 55.7036 20.1465 54.7612 20.1465C53.9604 20.1465 53.3135 19.8682 52.8203 19.3115V23.0469H50.7036V12.0752H52.6665L52.7397 12.8516C53.2524 12.2363 53.9214 11.9287 54.7466 11.9287C55.7231 11.9287 56.4824 12.29 57.0244 13.0127C57.5664 13.7354 57.8374 14.7314 57.8374 16.001V16.1108ZM55.7207 15.957C55.7207 15.2197 55.5889 14.6509 55.3252 14.2505C55.0664 13.8501 54.688 13.6499 54.1899 13.6499C53.5259 13.6499 53.0693 13.9038 52.8203 14.4116V17.6562C53.0791 18.1787 53.5405 18.4399 54.2046 18.4399C55.2153 18.4399 55.7207 17.6123 55.7207 15.957ZM62.0269 17.0044L63.4917 12.0752H65.7622L62.5762 21.2305L62.4004 21.6479C61.9268 22.6831 61.1455 23.2007 60.0566 23.2007C59.749 23.2007 59.4365 23.1543 59.1191 23.0615V21.4575L59.4414 21.4648C59.8418 21.4648 60.1396 21.4038 60.335 21.2817C60.5352 21.1597 60.6914 20.957 60.8037 20.6738L61.0527 20.022L58.2769 12.0752H60.5547L62.0269 17.0044Z" fill="white"/>
<path d="M7.915 48.93C7.915 48.51 8.005 48.145 8.185 47.835C8.365 47.515 8.65 47.245 9.04 47.025C9.44 46.805 9.95 46.63 10.57 46.5C11.19 46.36 11.94 46.265 12.82 46.215C12.78 45.875 12.63 45.61 12.37 45.42C12.12 45.23 11.74 45.135 11.23 45.135C10.87 45.135 10.505 45.2 10.135 45.33C9.775 45.45 9.385 45.615 8.965 45.825L8.185 44.385C8.695 44.095 9.24 43.855 9.82 43.665C10.41 43.475 11.025 43.38 11.665 43.38C12.705 43.38 13.525 43.655 14.125 44.205C14.725 44.755 15.025 45.6 15.025 46.74V51H13.225L13.06 50.16H13C12.62 50.45 12.205 50.695 11.755 50.895C11.305 51.085 10.84 51.18 10.36 51.18C9.98 51.18 9.64 51.12 9.34 51C9.04 50.89 8.785 50.735 8.575 50.535C8.365 50.325 8.2 50.085 8.08 49.815C7.97 49.545 7.915 49.25 7.915 48.93ZM10.03 48.765C10.03 49.005 10.12 49.185 10.3 49.305C10.49 49.415 10.745 49.47 11.065 49.47C11.395 49.47 11.705 49.405 11.995 49.275C12.285 49.135 12.56 48.965 12.82 48.765V47.535C12.27 47.565 11.815 47.615 11.455 47.685C11.095 47.755 10.81 47.845 10.6 47.955C10.39 48.055 10.24 48.175 10.15 48.315C10.07 48.455 10.03 48.605 10.03 48.765ZM24.0941 51.81V53.46H16.8941V51.81H24.0941ZM27.5983 45.285H25.7233V43.65L27.7033 43.56L27.9883 41.58H29.8033V43.56H32.9533V45.285H29.8033V47.895C29.8033 48.465 29.9283 48.87 30.1783 49.11C30.4283 49.34 30.8233 49.455 31.3633 49.455C31.6533 49.455 31.9183 49.43 32.1583 49.38C32.3983 49.33 32.6283 49.265 32.8483 49.185L33.2383 50.775C32.9083 50.875 32.5383 50.965 32.1283 51.045C31.7283 51.135 31.2883 51.18 30.8083 51.18C30.2183 51.18 29.7183 51.1 29.3083 50.94C28.8983 50.78 28.5633 50.56 28.3033 50.28C28.0533 49.99 27.8733 49.645 27.7633 49.245C27.6533 48.845 27.5983 48.4 27.5983 47.91V45.285ZM41.8574 51H40.0574L39.8924 49.935H39.8324C39.5024 50.315 39.1374 50.62 38.7374 50.85C38.3374 51.07 37.8674 51.18 37.3274 51.18C36.4774 51.18 35.8624 50.91 35.4824 50.37C35.1024 49.83 34.9124 49.09 34.9124 48.15V43.56H37.1174V47.865C37.1174 48.365 37.1924 48.73 37.3424 48.96C37.4924 49.19 37.7774 49.305 38.1974 49.305C38.4774 49.305 38.7224 49.245 38.9324 49.125C39.1524 49.005 39.3924 48.78 39.6524 48.45V43.56H41.8574V51ZM46.2616 51.585V53.76H44.0566V43.56H45.8566L46.0216 44.31H46.0666C46.3666 44.04 46.7116 43.82 47.1016 43.65C47.4916 43.47 47.8866 43.38 48.2866 43.38C48.7466 43.38 49.1616 43.47 49.5316 43.65C49.9016 43.83 50.2166 44.085 50.4766 44.415C50.7366 44.745 50.9316 45.145 51.0616 45.615C51.2016 46.075 51.2716 46.59 51.2716 47.16C51.2716 47.8 51.1816 48.37 51.0016 48.87C50.8216 49.36 50.5816 49.78 50.2816 50.13C49.9816 50.47 49.6366 50.73 49.2466 50.91C48.8666 51.09 48.4666 51.18 48.0466 51.18C47.3666 51.18 46.7466 50.91 46.1866 50.37L46.2616 51.585ZM46.2616 48.885C46.4716 49.065 46.6866 49.195 46.9066 49.275C47.1366 49.345 47.3466 49.38 47.5366 49.38C47.9566 49.38 48.3066 49.21 48.5866 48.87C48.8666 48.52 49.0066 47.96 49.0066 47.19C49.0066 45.85 48.5516 45.18 47.6416 45.18C47.1716 45.18 46.7116 45.41 46.2616 45.87V48.885ZM52.9007 40.485H57.2657V48.18C57.2657 48.41 57.2957 48.605 57.3557 48.765C57.4257 48.915 57.5157 49.04 57.6257 49.14C57.7457 49.23 57.8757 49.295 58.0157 49.335C58.1657 49.375 58.3157 49.395 58.4657 49.395C58.6357 49.395 58.8157 49.38 59.0057 49.35C59.1957 49.31 59.4057 49.245 59.6357 49.155L60.1307 50.775C59.9307 50.835 59.7457 50.89 59.5757 50.94C59.4057 50.99 59.2357 51.03 59.0657 51.06C58.8957 51.1 58.7157 51.13 58.5257 51.15C58.3357 51.17 58.1257 51.18 57.8957 51.18C56.9557 51.18 56.2457 50.905 55.7657 50.355C55.2957 49.795 55.0607 49.04 55.0607 48.09V42.225H52.9007V40.485ZM61.7898 47.28C61.7898 46.67 61.8948 46.125 62.1048 45.645C62.3248 45.165 62.6148 44.76 62.9748 44.43C63.3348 44.09 63.7448 43.83 64.2048 43.65C64.6748 43.47 65.1598 43.38 65.6598 43.38C66.2298 43.38 66.7348 43.47 67.1748 43.65C67.6148 43.83 67.9798 44.08 68.2698 44.4C68.5598 44.72 68.7798 45.1 68.9298 45.54C69.0798 45.97 69.1548 46.44 69.1548 46.95C69.1548 47.15 69.1448 47.34 69.1248 47.52C69.1048 47.7 69.0848 47.835 69.0648 47.925H64.0548C64.1348 48.485 64.3748 48.89 64.7748 49.14C65.1848 49.38 65.6648 49.5 66.2148 49.5C66.5548 49.5 66.8748 49.46 67.1748 49.38C67.4848 49.29 67.8048 49.16 68.1348 48.99L68.8548 50.31C68.4348 50.58 67.9648 50.795 67.4448 50.955C66.9248 51.105 66.4148 51.18 65.9148 51.18C65.3348 51.18 64.7948 51.095 64.2948 50.925C63.7948 50.745 63.3598 50.49 62.9898 50.16C62.6198 49.82 62.3248 49.41 62.1048 48.93C61.8948 48.45 61.7898 47.9 61.7898 47.28ZM67.1598 46.47C67.1598 46.05 67.0448 45.71 66.8148 45.45C66.5848 45.19 66.2148 45.06 65.7048 45.06C65.3048 45.06 64.9498 45.175 64.6398 45.405C64.3298 45.635 64.1248 45.99 64.0248 46.47H67.1598ZM80.0031 43.53H86.9031V45.09H80.0031V43.53ZM80.0031 46.995H86.9031V48.555H80.0031V46.995ZM102.821 53.685C101.841 52.815 101.066 51.81 100.496 50.67C99.9364 49.53 99.6564 48.25 99.6564 46.83C99.6564 45.41 99.9364 44.13 100.496 42.99C101.066 41.85 101.841 40.845 102.821 39.975L104.051 40.95C103.161 41.82 102.511 42.725 102.101 43.665C101.701 44.595 101.501 45.65 101.501 46.83C101.501 47.42 101.551 47.98 101.651 48.51C101.751 49.03 101.901 49.53 102.101 50.01C102.311 50.49 102.576 50.95 102.896 51.39C103.216 51.84 103.601 52.28 104.051 52.71L102.821 53.685ZM117.66 52.965C118.96 52.515 119.61 51.805 119.61 50.835C119.57 50.845 119.515 50.85 119.445 50.85C119.235 50.85 119.03 50.82 118.83 50.76C118.64 50.69 118.47 50.59 118.32 50.46C118.17 50.33 118.05 50.17 117.96 49.98C117.87 49.79 117.825 49.57 117.825 49.32C117.825 48.85 117.985 48.475 118.305 48.195C118.635 47.915 119.035 47.775 119.505 47.775C120.125 47.775 120.59 48.005 120.9 48.465C121.21 48.915 121.365 49.545 121.365 50.355C121.365 51.315 121.1 52.125 120.57 52.785C120.04 53.445 119.255 53.935 118.215 54.255L117.66 52.965ZM161.79 52.71C162.24 52.28 162.625 51.84 162.945 51.39C163.265 50.95 163.525 50.49 163.725 50.01C163.935 49.53 164.09 49.03 164.19 48.51C164.29 47.98 164.34 47.42 164.34 46.83C164.34 45.65 164.135 44.595 163.725 43.665C163.325 42.725 162.68 41.82 161.79 40.95L163.02 39.975C164 40.845 164.77 41.85 165.33 42.99C165.9 44.13 166.185 45.41 166.185 46.83C166.185 48.25 165.9 49.53 165.33 50.67C164.77 51.81 164 52.815 163.02 53.685L161.79 52.71ZM57.8507 72.685C56.8707 71.815 56.0957 70.81 55.5257 69.67C54.9657 68.53 54.6857 67.25 54.6857 65.83C54.6857 64.41 54.9657 63.13 55.5257 61.99C56.0957 60.85 56.8707 59.845 57.8507 58.975L59.0807 59.95C58.1907 60.82 57.5407 61.725 57.1307 62.665C56.7307 63.595 56.5307 64.65 56.5307 65.83C56.5307 66.42 56.5807 66.98 56.6807 67.51C56.7807 68.03 56.9307 68.53 57.1307 69.01C57.3407 69.49 57.6057 69.95 57.9257 70.39C58.2457 70.84 58.6307 71.28 59.0807 71.71L57.8507 72.685ZM61.8798 67.93C61.8798 67.51 61.9698 67.145 62.1498 66.835C62.3298 66.515 62.6148 66.245 63.0048 66.025C63.4048 65.805 63.9148 65.63 64.5348 65.5C65.1548 65.36 65.9048 65.265 66.7848 65.215C66.7448 64.875 66.5948 64.61 66.3348 64.42C66.0848 64.23 65.7048 64.135 65.1948 64.135C64.8348 64.135 64.4698 64.2 64.0998 64.33C63.7398 64.45 63.3498 64.615 62.9298 64.825L62.1498 63.385C62.6598 63.095 63.2048 62.855 63.7848 62.665C64.3748 62.475 64.9898 62.38 65.6298 62.38C66.6698 62.38 67.4898 62.655 68.0898 63.205C68.6898 63.755 68.9898 64.6 68.9898 65.74V70H67.1898L67.0248 69.16H66.9648C66.5848 69.45 66.1698 69.695 65.7198 69.895C65.2698 70.085 64.8048 70.18 64.3248 70.18C63.9448 70.18 63.6048 70.12 63.3048 70C63.0048 69.89 62.7498 69.735 62.5398 69.535C62.3298 69.325 62.1648 69.085 62.0448 68.815C61.9348 68.545 61.8798 68.25 61.8798 67.93ZM63.9948 67.765C63.9948 68.005 64.0848 68.185 64.2648 68.305C64.4548 68.415 64.7098 68.47 65.0298 68.47C65.3598 68.47 65.6698 68.405 65.9598 68.275C66.2498 68.135 66.5248 67.965 66.7848 67.765V66.535C66.2348 66.565 65.7798 66.615 65.4198 66.685C65.0598 66.755 64.7748 66.845 64.5648 66.955C64.3548 67.055 64.2048 67.175 64.1148 67.315C64.0348 67.455 63.9948 67.605 63.9948 67.765ZM78.059 70.81V72.46H70.859V70.81H78.059ZM81.5631 64.285H79.6881V62.65L81.6681 62.56L81.9531 60.58H83.7681V62.56H86.9181V64.285H83.7681V66.895C83.7681 67.465 83.8931 67.87 84.1431 68.11C84.3931 68.34 84.7881 68.455 85.3281 68.455C85.6181 68.455 85.8831 68.43 86.1231 68.38C86.3631 68.33 86.5931 68.265 86.8131 68.185L87.2031 69.775C86.8731 69.875 86.5031 69.965 86.0931 70.045C85.6931 70.135 85.2531 70.18 84.7731 70.18C84.1831 70.18 83.6831 70.1 83.2731 69.94C82.8631 69.78 82.5281 69.56 82.2681 69.28C82.0181 68.99 81.8381 68.645 81.7281 68.245C81.6181 67.845 81.5631 67.4 81.5631 66.91V64.285ZM95.8223 70H94.0223L93.8573 68.935H93.7973C93.4673 69.315 93.1023 69.62 92.7023 69.85C92.3023 70.07 91.8323 70.18 91.2923 70.18C90.4423 70.18 89.8273 69.91 89.4473 69.37C89.0673 68.83 88.8773 68.09 88.8773 67.15V62.56H91.0823V66.865C91.0823 67.365 91.1573 67.73 91.3073 67.96C91.4573 68.19 91.7423 68.305 92.1623 68.305C92.4423 68.305 92.6873 68.245 92.8973 68.125C93.1173 68.005 93.3573 67.78 93.6173 67.45V62.56H95.8223V70ZM100.226 70.585V72.76H98.0214V62.56H99.8214L99.9864 63.31H100.031C100.331 63.04 100.676 62.82 101.066 62.65C101.456 62.47 101.851 62.38 102.251 62.38C102.711 62.38 103.126 62.47 103.496 62.65C103.866 62.83 104.181 63.085 104.441 63.415C104.701 63.745 104.896 64.145 105.026 64.615C105.166 65.075 105.236 65.59 105.236 66.16C105.236 66.8 105.146 67.37 104.966 67.87C104.786 68.36 104.546 68.78 104.246 69.13C103.946 69.47 103.601 69.73 103.211 69.91C102.831 70.09 102.431 70.18 102.011 70.18C101.331 70.18 100.711 69.91 100.151 69.37L100.226 70.585ZM100.226 67.885C100.436 68.065 100.651 68.195 100.871 68.275C101.101 68.345 101.311 68.38 101.501 68.38C101.921 68.38 102.271 68.21 102.551 67.87C102.831 67.52 102.971 66.96 102.971 66.19C102.971 64.85 102.516 64.18 101.606 64.18C101.136 64.18 100.676 64.41 100.226 64.87V67.885ZM106.866 59.485H111.231V67.18C111.231 67.41 111.261 67.605 111.321 67.765C111.391 67.915 111.481 68.04 111.591 68.14C111.711 68.23 111.841 68.295 111.981 68.335C112.131 68.375 112.281 68.395 112.431 68.395C112.601 68.395 112.781 68.38 112.971 68.35C113.161 68.31 113.371 68.245 113.601 68.155L114.096 69.775C113.896 69.835 113.711 69.89 113.541 69.94C113.371 69.99 113.201 70.03 113.031 70.06C112.861 70.1 112.681 70.13 112.491 70.15C112.301 70.17 112.091 70.18 111.861 70.18C110.921 70.18 110.211 69.905 109.731 69.355C109.261 68.795 109.026 68.04 109.026 67.09V61.225H106.866V59.485ZM115.755 66.28C115.755 65.67 115.86 65.125 116.07 64.645C116.29 64.165 116.58 63.76 116.94 63.43C117.3 63.09 117.71 62.83 118.17 62.65C118.64 62.47 119.125 62.38 119.625 62.38C120.195 62.38 120.7 62.47 121.14 62.65C121.58 62.83 121.945 63.08 122.235 63.4C122.525 63.72 122.745 64.1 122.895 64.54C123.045 64.97 123.12 65.44 123.12 65.95C123.12 66.15 123.11 66.34 123.09 66.52C123.07 66.7 123.05 66.835 123.03 66.925H118.02C118.1 67.485 118.34 67.89 118.74 68.14C119.15 68.38 119.63 68.5 120.18 68.5C120.52 68.5 120.84 68.46 121.14 68.38C121.45 68.29 121.77 68.16 122.1 67.99L122.82 69.31C122.4 69.58 121.93 69.795 121.41 69.955C120.89 70.105 120.38 70.18 119.88 70.18C119.3 70.18 118.76 70.095 118.26 69.925C117.76 69.745 117.325 69.49 116.955 69.16C116.585 68.82 116.29 68.41 116.07 67.93C115.86 67.45 115.755 66.9 115.755 66.28ZM121.125 65.47C121.125 65.05 121.01 64.71 120.78 64.45C120.55 64.19 120.18 64.06 119.67 64.06C119.27 64.06 118.915 64.175 118.605 64.405C118.295 64.635 118.09 64.99 117.99 65.47H121.125ZM125.814 71.71C126.264 71.28 126.649 70.84 126.969 70.39C127.289 69.95 127.549 69.49 127.749 69.01C127.959 68.53 128.114 68.03 128.214 67.51C128.314 66.98 128.364 66.42 128.364 65.83C128.364 64.65 128.159 63.595 127.749 62.665C127.349 61.725 126.704 60.82 125.814 59.95L127.044 58.975C128.024 59.845 128.794 60.85 129.354 61.99C129.924 63.13 130.209 64.41 130.209 65.83C130.209 67.25 129.924 68.53 129.354 69.67C128.794 70.81 128.024 71.815 127.044 72.685L125.814 71.71ZM48.8566 90.685C47.8766 89.815 47.1016 88.81 46.5316 87.67C45.9716 86.53 45.6916 85.25 45.6916 83.83C45.6916 82.41 45.9716 81.13 46.5316 79.99C47.1016 78.85 47.8766 77.845 48.8566 76.975L50.0866 77.95C49.1966 78.82 48.5466 79.725 48.1366 80.665C47.7366 81.595 47.5366 82.65 47.5366 83.83C47.5366 84.42 47.5866 84.98 47.6866 85.51C47.7866 86.03 47.9366 86.53 48.1366 87.01C48.3466 87.49 48.6116 87.95 48.9316 88.39C49.2516 88.84 49.6366 89.28 50.0866 89.71L48.8566 90.685ZM52.8857 85.93C52.8857 85.51 52.9757 85.145 53.1557 84.835C53.3357 84.515 53.6207 84.245 54.0107 84.025C54.4107 83.805 54.9207 83.63 55.5407 83.5C56.1607 83.36 56.9107 83.265 57.7907 83.215C57.7507 82.875 57.6007 82.61 57.3407 82.42C57.0907 82.23 56.7107 82.135 56.2007 82.135C55.8407 82.135 55.4757 82.2 55.1057 82.33C54.7457 82.45 54.3557 82.615 53.9357 82.825L53.1557 81.385C53.6657 81.095 54.2107 80.855 54.7907 80.665C55.3807 80.475 55.9957 80.38 56.6357 80.38C57.6757 80.38 58.4957 80.655 59.0957 81.205C59.6957 81.755 59.9957 82.6 59.9957 83.74V88H58.1957L58.0307 87.16H57.9707C57.5907 87.45 57.1757 87.695 56.7257 87.895C56.2757 88.085 55.8107 88.18 55.3307 88.18C54.9507 88.18 54.6107 88.12 54.3107 88C54.0107 87.89 53.7557 87.735 53.5457 87.535C53.3357 87.325 53.1707 87.085 53.0507 86.815C52.9407 86.545 52.8857 86.25 52.8857 85.93ZM55.0007 85.765C55.0007 86.005 55.0907 86.185 55.2707 86.305C55.4607 86.415 55.7157 86.47 56.0357 86.47C56.3657 86.47 56.6757 86.405 56.9657 86.275C57.2557 86.135 57.5307 85.965 57.7907 85.765V84.535C57.2407 84.565 56.7857 84.615 56.4257 84.685C56.0657 84.755 55.7807 84.845 55.5707 84.955C55.3607 85.055 55.2107 85.175 55.1207 85.315C55.0407 85.455 55.0007 85.605 55.0007 85.765ZM69.0648 88.81V90.46H61.8648V88.81H69.0648ZM72.569 82.285H70.694V80.65L72.674 80.56L72.959 78.58H74.774V80.56H77.924V82.285H74.774V84.895C74.774 85.465 74.899 85.87 75.149 86.11C75.399 86.34 75.794 86.455 76.334 86.455C76.624 86.455 76.889 86.43 77.129 86.38C77.369 86.33 77.599 86.265 77.819 86.185L78.209 87.775C77.879 87.875 77.509 87.965 77.099 88.045C76.699 88.135 76.259 88.18 75.779 88.18C75.189 88.18 74.689 88.1 74.279 87.94C73.869 87.78 73.534 87.56 73.274 87.28C73.024 86.99 72.844 86.645 72.734 86.245C72.624 85.845 72.569 85.4 72.569 84.91V82.285ZM86.8281 88H85.0281L84.8631 86.935H84.8031C84.4731 87.315 84.1081 87.62 83.7081 87.85C83.3081 88.07 82.8381 88.18 82.2981 88.18C81.4481 88.18 80.8331 87.91 80.4531 87.37C80.0731 86.83 79.8831 86.09 79.8831 85.15V80.56H82.0881V84.865C82.0881 85.365 82.1631 85.73 82.3131 85.96C82.4631 86.19 82.7481 86.305 83.1681 86.305C83.4481 86.305 83.6931 86.245 83.9031 86.125C84.1231 86.005 84.3631 85.78 84.6231 85.45V80.56H86.8281V88ZM91.2323 88.585V90.76H89.0273V80.56H90.8273L90.9923 81.31H91.0373C91.3373 81.04 91.6823 80.82 92.0723 80.65C92.4623 80.47 92.8573 80.38 93.2573 80.38C93.7173 80.38 94.1323 80.47 94.5023 80.65C94.8723 80.83 95.1873 81.085 95.4473 81.415C95.7073 81.745 95.9023 82.145 96.0323 82.615C96.1723 83.075 96.2423 83.59 96.2423 84.16C96.2423 84.8 96.1523 85.37 95.9723 85.87C95.7923 86.36 95.5523 86.78 95.2523 87.13C94.9523 87.47 94.6073 87.73 94.2173 87.91C93.8373 88.09 93.4373 88.18 93.0173 88.18C92.3373 88.18 91.7173 87.91 91.1573 87.37L91.2323 88.585ZM91.2323 85.885C91.4423 86.065 91.6573 86.195 91.8773 86.275C92.1073 86.345 92.3173 86.38 92.5073 86.38C92.9273 86.38 93.2773 86.21 93.5573 85.87C93.8373 85.52 93.9773 84.96 93.9773 84.19C93.9773 82.85 93.5223 82.18 92.6123 82.18C92.1423 82.18 91.6823 82.41 91.2323 82.87V85.885ZM97.8714 77.485H102.236V85.18C102.236 85.41 102.266 85.605 102.326 85.765C102.396 85.915 102.486 86.04 102.596 86.14C102.716 86.23 102.846 86.295 102.986 86.335C103.136 86.375 103.286 86.395 103.436 86.395C103.606 86.395 103.786 86.38 103.976 86.35C104.166 86.31 104.376 86.245 104.606 86.155L105.101 87.775C104.901 87.835 104.716 87.89 104.546 87.94C104.376 87.99 104.206 88.03 104.036 88.06C103.866 88.1 103.686 88.13 103.496 88.15C103.306 88.17 103.096 88.18 102.866 88.18C101.926 88.18 101.216 87.905 100.736 87.355C100.266 86.795 100.031 86.04 100.031 85.09V79.225H97.8714V77.485ZM106.761 84.28C106.761 83.67 106.866 83.125 107.076 82.645C107.296 82.165 107.586 81.76 107.946 81.43C108.306 81.09 108.716 80.83 109.176 80.65C109.646 80.47 110.131 80.38 110.631 80.38C111.201 80.38 111.706 80.47 112.146 80.65C112.586 80.83 112.951 81.08 113.241 81.4C113.531 81.72 113.751 82.1 113.901 82.54C114.051 82.97 114.126 83.44 114.126 83.95C114.126 84.15 114.116 84.34 114.096 84.52C114.076 84.7 114.056 84.835 114.036 84.925H109.026C109.106 85.485 109.346 85.89 109.746 86.14C110.156 86.38 110.636 86.5 111.186 86.5C111.526 86.5 111.846 86.46 112.146 86.38C112.456 86.29 112.776 86.16 113.106 85.99L113.826 87.31C113.406 87.58 112.936 87.795 112.416 87.955C111.896 88.105 111.386 88.18 110.886 88.18C110.306 88.18 109.766 88.095 109.266 87.925C108.766 87.745 108.331 87.49 107.961 87.16C107.591 86.82 107.296 86.41 107.076 85.93C106.866 85.45 106.761 84.9 106.761 84.28ZM112.131 83.47C112.131 83.05 112.016 82.71 111.786 82.45C111.556 82.19 111.186 82.06 110.676 82.06C110.276 82.06 109.921 82.175 109.611 82.405C109.301 82.635 109.096 82.99 108.996 83.47H112.131ZM116.82 89.71C117.27 89.28 117.655 88.84 117.975 88.39C118.295 87.95 118.555 87.49 118.755 87.01C118.965 86.53 119.12 86.03 119.22 85.51C119.32 84.98 119.37 84.42 119.37 83.83C119.37 82.65 119.165 81.595 118.755 80.665C118.355 79.725 117.71 78.82 116.82 77.95L118.05 76.975C119.03 77.845 119.8 78.85 120.36 79.99C120.93 81.13 121.215 82.41 121.215 83.83C121.215 85.25 120.93 86.53 120.36 87.67C119.8 88.81 119.03 89.815 118.05 90.685L116.82 89.71Z" fill="white"/>
<path d="M113.991 49.215V51H107.166V49.215H109.626V43.71H107.661V42.345C108.221 42.245 108.696 42.125 109.086 41.985C109.486 41.845 109.861 41.675 110.211 41.475H111.831V49.215H113.991Z" fill="#F0E442"/>
<path d="M136.218 42.9L136.143 40.725H138.693L138.618 42.9L138.093 46.455H136.743L136.218 42.9ZM142.827 48.93C142.827 48.51 142.917 48.145 143.097 47.835C143.277 47.515 143.562 47.245 143.952 47.025C144.352 46.805 144.862 46.63 145.482 46.5C146.102 46.36 146.852 46.265 147.732 46.215C147.692 45.875 147.542 45.61 147.282 45.42C147.032 45.23 146.652 45.135 146.142 45.135C145.782 45.135 145.417 45.2 145.047 45.33C144.687 45.45 144.297 45.615 143.877 45.825L143.097 44.385C143.607 44.095 144.152 43.855 144.732 43.665C145.322 43.475 145.937 43.38 146.577 43.38C147.617 43.38 148.437 43.655 149.037 44.205C149.637 44.755 149.937 45.6 149.937 46.74V51H148.137L147.972 50.16H147.912C147.532 50.45 147.117 50.695 146.667 50.895C146.217 51.085 145.752 51.18 145.272 51.18C144.892 51.18 144.552 51.12 144.252 51C143.952 50.89 143.697 50.735 143.487 50.535C143.277 50.325 143.112 50.085 142.992 49.815C142.882 49.545 142.827 49.25 142.827 48.93ZM144.942 48.765C144.942 49.005 145.032 49.185 145.212 49.305C145.402 49.415 145.657 49.47 145.977 49.47C146.307 49.47 146.617 49.405 146.907 49.275C147.197 49.135 147.472 48.965 147.732 48.765V47.535C147.182 47.565 146.727 47.615 146.367 47.685C146.007 47.755 145.722 47.845 145.512 47.955C145.302 48.055 145.152 48.175 145.062 48.315C144.982 48.455 144.942 48.605 144.942 48.765ZM154.206 42.9L154.131 40.725H156.681L156.606 42.9L156.081 46.455H154.731L154.206 42.9Z" fill="#009E73"/>
<path d="M10.285 70.585V72.76H8.08V62.56H9.88L10.045 63.31H10.09C10.39 63.04 10.735 62.82 11.125 62.65C11.515 62.47 11.91 62.38 12.31 62.38C12.77 62.38 13.185 62.47 13.555 62.65C13.925 62.83 14.24 63.085 14.5 63.415C14.76 63.745 14.955 64.145 15.085 64.615C15.225 65.075 15.295 65.59 15.295 66.16C15.295 66.8 15.205 67.37 15.025 67.87C14.845 68.36 14.605 68.78 14.305 69.13C14.005 69.47 13.66 69.73 13.27 69.91C12.89 70.09 12.49 70.18 12.07 70.18C11.39 70.18 10.77 69.91 10.21 69.37L10.285 70.585ZM10.285 67.885C10.495 68.065 10.71 68.195 10.93 68.275C11.16 68.345 11.37 68.38 11.56 68.38C11.98 68.38 12.33 68.21 12.61 67.87C12.89 67.52 13.03 66.96 13.03 66.19C13.03 64.85 12.575 64.18 11.665 64.18C11.195 64.18 10.735 64.41 10.285 64.87V67.885ZM17.7341 62.56H19.5341L19.7141 64.18H19.7591C20.1291 63.57 20.5741 63.12 21.0941 62.83C21.6141 62.53 22.1741 62.38 22.7741 62.38C23.1041 62.38 23.3691 62.405 23.5691 62.455C23.7791 62.505 23.9941 62.58 24.2141 62.68L23.7641 64.525C23.5341 64.455 23.3241 64.405 23.1341 64.375C22.9541 64.335 22.7241 64.315 22.4441 64.315C21.9841 64.315 21.5291 64.45 21.0791 64.72C20.6391 64.99 20.2591 65.46 19.9391 66.13V70H17.7341V62.56ZM26.1733 62.56H31.3633V70H29.1583V64.285H26.1733V62.56ZM30.1633 61.465C29.7333 61.465 29.3783 61.345 29.0983 61.105C28.8283 60.865 28.6933 60.54 28.6933 60.13C28.6933 59.72 28.8283 59.39 29.0983 59.14C29.3783 58.88 29.7333 58.75 30.1633 58.75C30.5933 58.75 30.9433 58.88 31.2133 59.14C31.4933 59.39 31.6333 59.72 31.6333 60.13C31.6333 60.54 31.4933 60.865 31.2133 61.105C30.9433 61.345 30.5933 61.465 30.1633 61.465ZM35.0624 62.56H36.8624L37.0274 63.55H37.0874C37.4074 63.23 37.7724 62.955 38.1824 62.725C38.6024 62.495 39.0924 62.38 39.6524 62.38C40.4924 62.38 41.1074 62.65 41.4974 63.19C41.8874 63.73 42.0824 64.47 42.0824 65.41V70H39.8774V65.695C39.8774 65.195 39.7974 64.83 39.6374 64.6C39.4774 64.37 39.1924 64.255 38.7824 64.255C38.4824 64.255 38.2174 64.32 37.9874 64.45C37.7674 64.58 37.5274 64.775 37.2674 65.035V70H35.0624V62.56ZM45.5866 64.285H43.7116V62.65L45.6916 62.56L45.9766 60.58H47.7916V62.56H50.9416V64.285H47.7916V66.895C47.7916 67.465 47.9166 67.87 48.1666 68.11C48.4166 68.34 48.8116 68.455 49.3516 68.455C49.6416 68.455 49.9066 68.43 50.1466 68.38C50.3866 68.33 50.6166 68.265 50.8366 68.185L51.2266 69.775C50.8966 69.875 50.5266 69.965 50.1166 70.045C49.7166 70.135 49.2766 70.18 48.7966 70.18C48.2066 70.18 47.7066 70.1 47.2966 69.94C46.8866 69.78 46.5516 69.56 46.2916 69.28C46.0416 68.99 45.8616 68.645 45.7516 68.245C45.6416 67.845 45.5866 67.4 45.5866 66.91V64.285ZM9.61 82.285H7.735V80.65L9.715 80.56L10 78.58H11.815V80.56H14.965V82.285H11.815V84.895C11.815 85.465 11.94 85.87 12.19 86.11C12.44 86.34 12.835 86.455 13.375 86.455C13.665 86.455 13.93 86.43 14.17 86.38C14.41 86.33 14.64 86.265 14.86 86.185L15.25 87.775C14.92 87.875 14.55 87.965 14.14 88.045C13.74 88.135 13.3 88.18 12.82 88.18C12.23 88.18 11.73 88.1 11.32 87.94C10.91 87.78 10.575 87.56 10.315 87.28C10.065 86.99 9.885 86.645 9.775 86.245C9.665 85.845 9.61 85.4 9.61 84.91V82.285ZM17.3891 89.08C17.5791 89.14 17.7741 89.17 17.9741 89.17C18.4041 89.17 18.7391 89.08 18.9791 88.9C19.2291 88.72 19.4141 88.485 19.5341 88.195L19.6841 87.805L16.4591 80.56H18.6491L19.8941 83.755C20.0341 84.105 20.1641 84.47 20.2841 84.85C20.4041 85.22 20.5241 85.6 20.6441 85.99H20.7041C20.8041 85.62 20.9141 85.25 21.0341 84.88C21.1541 84.5 21.2691 84.125 21.3791 83.755L22.4741 80.56H24.5591L21.6191 88.075C21.4391 88.545 21.2441 88.955 21.0341 89.305C20.8241 89.665 20.5841 89.96 20.3141 90.19C20.0441 90.43 19.7291 90.61 19.3691 90.73C19.0191 90.85 18.6091 90.91 18.1391 90.91C17.9191 90.91 17.7141 90.895 17.5241 90.865C17.3341 90.845 17.1591 90.81 16.9991 90.76L17.3891 89.08ZM28.2733 88.585V90.76H26.0683V80.56H27.8683L28.0333 81.31H28.0783C28.3783 81.04 28.7233 80.82 29.1133 80.65C29.5033 80.47 29.8983 80.38 30.2983 80.38C30.7583 80.38 31.1733 80.47 31.5433 80.65C31.9133 80.83 32.2283 81.085 32.4883 81.415C32.7483 81.745 32.9433 82.145 33.0733 82.615C33.2133 83.075 33.2833 83.59 33.2833 84.16C33.2833 84.8 33.1933 85.37 33.0133 85.87C32.8333 86.36 32.5933 86.78 32.2933 87.13C31.9933 87.47 31.6483 87.73 31.2583 87.91C30.8783 88.09 30.4783 88.18 30.0583 88.18C29.3783 88.18 28.7583 87.91 28.1983 87.37L28.2733 88.585ZM28.2733 85.885C28.4833 86.065 28.6983 86.195 28.9183 86.275C29.1483 86.345 29.3583 86.38 29.5483 86.38C29.9683 86.38 30.3183 86.21 30.5983 85.87C30.8783 85.52 31.0183 84.96 31.0183 84.19C31.0183 82.85 30.5633 82.18 29.6533 82.18C29.1833 82.18 28.7233 82.41 28.2733 82.87V85.885ZM34.8074 84.28C34.8074 83.67 34.9124 83.125 35.1224 82.645C35.3424 82.165 35.6324 81.76 35.9924 81.43C36.3524 81.09 36.7624 80.83 37.2224 80.65C37.6924 80.47 38.1774 80.38 38.6774 80.38C39.2474 80.38 39.7524 80.47 40.1924 80.65C40.6324 80.83 40.9974 81.08 41.2874 81.4C41.5774 81.72 41.7974 82.1 41.9474 82.54C42.0974 82.97 42.1724 83.44 42.1724 83.95C42.1724 84.15 42.1624 84.34 42.1424 84.52C42.1224 84.7 42.1024 84.835 42.0824 84.925H37.0724C37.1524 85.485 37.3924 85.89 37.7924 86.14C38.2024 86.38 38.6824 86.5 39.2324 86.5C39.5724 86.5 39.8924 86.46 40.1924 86.38C40.5024 86.29 40.8224 86.16 41.1524 85.99L41.8724 87.31C41.4524 87.58 40.9824 87.795 40.4624 87.955C39.9424 88.105 39.4324 88.18 38.9324 88.18C38.3524 88.18 37.8124 88.095 37.3124 87.925C36.8124 87.745 36.3774 87.49 36.0074 87.16C35.6374 86.82 35.3424 86.41 35.1224 85.93C34.9124 85.45 34.8074 84.9 34.8074 84.28ZM40.1774 83.47C40.1774 83.05 40.0624 82.71 39.8324 82.45C39.6024 82.19 39.2324 82.06 38.7224 82.06C38.3224 82.06 37.9674 82.175 37.6574 82.405C37.3474 82.635 37.1424 82.99 37.0424 83.47H40.1774Z" fill="#56B4E9"/>
<rect x="229" width="197" height="175" fill="black"/>
<line x1="229" y1="103.5" x2="426" y2="103.5" stroke="white"/>
<path d="M240.501 124.18C239.921 124.18 239.386 124.065 238.896 123.835C238.416 123.595 238.001 123.255 237.651 122.815C237.311 122.375 237.046 121.84 236.856 121.21C236.666 120.58 236.571 119.865 236.571 119.065C236.571 118.265 236.666 117.555 236.856 116.935C237.046 116.305 237.311 115.78 237.651 115.36C238.001 114.93 238.416 114.605 238.896 114.385C239.386 114.155 239.921 114.04 240.501 114.04C241.081 114.04 241.611 114.155 242.091 114.385C242.581 114.605 242.996 114.93 243.336 115.36C243.686 115.79 243.956 116.32 244.146 116.95C244.336 117.57 244.431 118.275 244.431 119.065C244.431 119.865 244.336 120.58 244.146 121.21C243.956 121.84 243.686 122.375 243.336 122.815C242.996 123.255 242.581 123.595 242.091 123.835C241.611 124.065 241.081 124.18 240.501 124.18ZM240.501 122.275C241.011 122.275 241.416 121.99 241.716 121.42C242.016 120.84 242.166 120.055 242.166 119.065C242.166 118.085 242.016 117.32 241.716 116.77C241.416 116.22 241.011 115.945 240.501 115.945C239.991 115.945 239.586 116.22 239.286 116.77C238.986 117.32 238.836 118.085 238.836 119.065C238.836 120.055 238.986 120.84 239.286 121.42C239.586 121.99 239.991 122.275 240.501 122.275ZM252.87 124H251.07L250.905 122.935H250.845C250.515 123.315 250.15 123.62 249.75 123.85C249.35 124.07 248.88 124.18 248.34 124.18C247.49 124.18 246.875 123.91 246.495 123.37C246.115 122.83 245.925 122.09 245.925 121.15V116.56H248.13V120.865C248.13 121.365 248.205 121.73 248.355 121.96C248.505 122.19 248.79 122.305 249.21 122.305C249.49 122.305 249.735 122.245 249.945 122.125C250.165 122.005 250.405 121.78 250.665 121.45V116.56H252.87V124ZM256.599 118.285H254.724V116.65L256.704 116.56L256.989 114.58H258.804V116.56H261.954V118.285H258.804V120.895C258.804 121.465 258.929 121.87 259.179 122.11C259.429 122.34 259.824 122.455 260.364 122.455C260.654 122.455 260.919 122.43 261.159 122.38C261.399 122.33 261.629 122.265 261.849 122.185L262.239 123.775C261.909 123.875 261.539 123.965 261.129 124.045C260.729 124.135 260.289 124.18 259.809 124.18C259.219 124.18 258.719 124.1 258.309 123.94C257.899 123.78 257.564 123.56 257.304 123.28C257.054 122.99 256.874 122.645 256.764 122.245C256.654 121.845 256.599 121.4 256.599 120.91V118.285ZM266.269 124.585V126.76H264.064V116.56H265.864L266.029 117.31H266.074C266.374 117.04 266.719 116.82 267.109 116.65C267.499 116.47 267.894 116.38 268.294 116.38C268.754 116.38 269.169 116.47 269.539 116.65C269.909 116.83 270.224 117.085 270.484 117.415C270.744 117.745 270.939 118.145 271.069 118.615C271.209 119.075 271.279 119.59 271.279 120.16C271.279 120.8 271.189 121.37 271.009 121.87C270.829 122.36 270.589 122.78 270.289 123.13C269.989 123.47 269.644 123.73 269.254 123.91C268.874 124.09 268.474 124.18 268.054 124.18C267.374 124.18 266.754 123.91 266.194 123.37L266.269 124.585ZM266.269 121.885C266.479 122.065 266.694 122.195 266.914 122.275C267.144 122.345 267.354 122.38 267.544 122.38C267.964 122.38 268.314 122.21 268.594 121.87C268.874 121.52 269.014 120.96 269.014 120.19C269.014 118.85 268.559 118.18 267.649 118.18C267.179 118.18 266.719 118.41 266.269 118.87V121.885ZM279.853 124H278.053L277.888 122.935H277.828C277.498 123.315 277.133 123.62 276.733 123.85C276.333 124.07 275.863 124.18 275.323 124.18C274.473 124.18 273.858 123.91 273.478 123.37C273.098 122.83 272.908 122.09 272.908 121.15V116.56H275.113V120.865C275.113 121.365 275.188 121.73 275.338 121.96C275.488 122.19 275.773 122.305 276.193 122.305C276.473 122.305 276.718 122.245 276.928 122.125C277.148 122.005 277.388 121.78 277.648 121.45V116.56H279.853V124ZM283.582 118.285H281.707V116.65L283.687 116.56L283.972 114.58H285.787V116.56H288.937V118.285H285.787V120.895C285.787 121.465 285.912 121.87 286.162 122.11C286.412 122.34 286.807 122.455 287.347 122.455C287.637 122.455 287.902 122.43 288.142 122.38C288.382 122.33 288.612 122.265 288.832 122.185L289.222 123.775C288.892 123.875 288.522 123.965 288.112 124.045C287.712 124.135 287.272 124.18 286.792 124.18C286.202 124.18 285.702 124.1 285.292 123.94C284.882 123.78 284.547 123.56 284.287 123.28C284.037 122.99 283.857 122.645 283.747 122.245C283.637 121.845 283.582 121.4 283.582 120.91V118.285Z" fill="white"/>
<path d="M241.88 146.685C240.9 145.815 240.125 144.81 239.555 143.67C238.995 142.53 238.715 141.25 238.715 139.83C238.715 138.41 238.995 137.13 239.555 135.99C240.125 134.85 240.9 133.845 241.88 132.975L243.11 133.95C242.22 134.82 241.57 135.725 241.16 136.665C240.76 137.595 240.56 138.65 240.56 139.83C240.56 140.42 240.61 140.98 240.71 141.51C240.81 142.03 240.96 142.53 241.16 143.01C241.37 143.49 241.635 143.95 241.955 144.39C242.275 144.84 242.66 145.28 243.11 145.71L241.88 146.685ZM253.049 142.215V144H246.224V142.215H248.684V136.71H246.719V135.345C247.279 135.245 247.754 135.125 248.144 134.985C248.544 134.845 248.919 134.675 249.269 134.475H250.889V142.215H253.049ZM256.718 145.965C258.018 145.515 258.668 144.805 258.668 143.835C258.628 143.845 258.573 143.85 258.503 143.85C258.293 143.85 258.088 143.82 257.888 143.76C257.698 143.69 257.528 143.59 257.378 143.46C257.228 143.33 257.108 143.17 257.018 142.98C256.928 142.79 256.883 142.57 256.883 142.32C256.883 141.85 257.043 141.475 257.363 141.195C257.693 140.915 258.093 140.775 258.563 140.775C259.183 140.775 259.648 141.005 259.958 141.465C260.268 141.915 260.423 142.545 260.423 143.355C260.423 144.315 260.158 145.125 259.628 145.785C259.098 146.445 258.313 146.935 257.273 147.255L256.718 145.965ZM275.277 135.9L275.202 133.725H277.752L277.677 135.9L277.152 139.455H275.802L275.277 135.9ZM281.886 141.93C281.886 141.51 281.976 141.145 282.156 140.835C282.336 140.515 282.621 140.245 283.011 140.025C283.411 139.805 283.921 139.63 284.541 139.5C285.161 139.36 285.911 139.265 286.791 139.215C286.751 138.875 286.601 138.61 286.341 138.42C286.091 138.23 285.711 138.135 285.201 138.135C284.841 138.135 284.476 138.2 284.106 138.33C283.746 138.45 283.356 138.615 282.936 138.825L282.156 137.385C282.666 137.095 283.211 136.855 283.791 136.665C284.381 136.475 284.996 136.38 285.636 136.38C286.676 136.38 287.496 136.655 288.096 137.205C288.696 137.755 288.996 138.6 288.996 139.74V144H287.196L287.031 143.16H286.971C286.591 143.45 286.176 143.695 285.726 143.895C285.276 144.085 284.811 144.18 284.331 144.18C283.951 144.18 283.611 144.12 283.311 144C283.011 143.89 282.756 143.735 282.546 143.535C282.336 143.325 282.171 143.085 282.051 142.815C281.941 142.545 281.886 142.25 281.886 141.93ZM284.001 141.765C284.001 142.005 284.091 142.185 284.271 142.305C284.461 142.415 284.716 142.47 285.036 142.47C285.366 142.47 285.676 142.405 285.966 142.275C286.256 142.135 286.531 141.965 286.791 141.765V140.535C286.241 140.565 285.786 140.615 285.426 140.685C285.066 140.755 284.781 140.845 284.571 140.955C284.361 141.055 284.211 141.175 284.121 141.315C284.041 141.455 284.001 141.605 284.001 141.765ZM293.265 135.9L293.19 133.725H295.74L295.665 135.9L295.14 139.455H293.79L293.265 135.9ZM300.849 145.71C301.299 145.28 301.684 144.84 302.004 144.39C302.324 143.95 302.584 143.49 302.784 143.01C302.994 142.53 303.149 142.03 303.249 141.51C303.349 140.98 303.399 140.42 303.399 139.83C303.399 138.65 303.194 137.595 302.784 136.665C302.384 135.725 301.739 134.82 300.849 133.95L302.079 132.975C303.059 133.845 303.829 134.85 304.389 135.99C304.959 137.13 305.244 138.41 305.244 139.83C305.244 141.25 304.959 142.53 304.389 143.67C303.829 144.81 303.059 145.815 302.079 146.685L300.849 145.71ZM238.61 157.285H236.735V155.65L238.715 155.56L239 153.58H240.815V155.56H243.965V157.285H240.815V159.895C240.815 160.465 240.94 160.87 241.19 161.11C241.44 161.34 241.835 161.455 242.375 161.455C242.665 161.455 242.93 161.43 243.17 161.38C243.41 161.33 243.64 161.265 243.86 161.185L244.25 162.775C243.92 162.875 243.55 162.965 243.14 163.045C242.74 163.135 242.3 163.18 241.82 163.18C241.23 163.18 240.73 163.1 240.32 162.94C239.91 162.78 239.575 162.56 239.315 162.28C239.065 161.99 238.885 161.645 238.775 161.245C238.665 160.845 238.61 160.4 238.61 159.91V157.285ZM252.869 163H251.069L250.904 161.935H250.844C250.514 162.315 250.149 162.62 249.749 162.85C249.349 163.07 248.879 163.18 248.339 163.18C247.489 163.18 246.874 162.91 246.494 162.37C246.114 161.83 245.924 161.09 245.924 160.15V155.56H248.129V159.865C248.129 160.365 248.204 160.73 248.354 160.96C248.504 161.19 248.789 161.305 249.209 161.305C249.489 161.305 249.734 161.245 249.944 161.125C250.164 161.005 250.404 160.78 250.664 160.45V155.56H252.869V163ZM257.273 163.585V165.76H255.068V155.56H256.868L257.033 156.31H257.078C257.378 156.04 257.723 155.82 258.113 155.65C258.503 155.47 258.898 155.38 259.298 155.38C259.758 155.38 260.173 155.47 260.543 155.65C260.913 155.83 261.228 156.085 261.488 156.415C261.748 156.745 261.943 157.145 262.073 157.615C262.213 158.075 262.283 158.59 262.283 159.16C262.283 159.8 262.193 160.37 262.013 160.87C261.833 161.36 261.593 161.78 261.293 162.13C260.993 162.47 260.648 162.73 260.258 162.91C259.878 163.09 259.478 163.18 259.058 163.18C258.378 163.18 257.758 162.91 257.198 162.37L257.273 163.585ZM257.273 160.885C257.483 161.065 257.698 161.195 257.918 161.275C258.148 161.345 258.358 161.38 258.548 161.38C258.968 161.38 259.318 161.21 259.598 160.87C259.878 160.52 260.018 159.96 260.018 159.19C260.018 157.85 259.563 157.18 258.653 157.18C258.183 157.18 257.723 157.41 257.273 157.87V160.885ZM263.912 152.485H268.277V160.18C268.277 160.41 268.307 160.605 268.367 160.765C268.437 160.915 268.527 161.04 268.637 161.14C268.757 161.23 268.887 161.295 269.027 161.335C269.177 161.375 269.327 161.395 269.477 161.395C269.647 161.395 269.827 161.38 270.017 161.35C270.207 161.31 270.417 161.245 270.647 161.155L271.142 162.775C270.942 162.835 270.757 162.89 270.587 162.94C270.417 162.99 270.247 163.03 270.077 163.06C269.907 163.1 269.727 163.13 269.537 163.15C269.347 163.17 269.137 163.18 268.907 163.18C267.967 163.18 267.257 162.905 266.777 162.355C266.307 161.795 266.072 161.04 266.072 160.09V154.225H263.912V152.485ZM272.802 159.28C272.802 158.67 272.907 158.125 273.117 157.645C273.337 157.165 273.627 156.76 273.987 156.43C274.347 156.09 274.757 155.83 275.217 155.65C275.687 155.47 276.172 155.38 276.672 155.38C277.242 155.38 277.747 155.47 278.187 155.65C278.627 155.83 278.992 156.08 279.282 156.4C279.572 156.72 279.792 157.1 279.942 157.54C280.092 157.97 280.167 158.44 280.167 158.95C280.167 159.15 280.157 159.34 280.137 159.52C280.117 159.7 280.097 159.835 280.077 159.925H275.067C275.147 160.485 275.387 160.89 275.787 161.14C276.197 161.38 276.677 161.5 277.227 161.5C277.567 161.5 277.887 161.46 278.187 161.38C278.497 161.29 278.817 161.16 279.147 160.99L279.867 162.31C279.447 162.58 278.977 162.795 278.457 162.955C277.937 163.105 277.427 163.18 276.927 163.18C276.347 163.18 275.807 163.095 275.307 162.925C274.807 162.745 274.372 162.49 274.002 162.16C273.632 161.82 273.337 161.41 273.117 160.93C272.907 160.45 272.802 159.9 272.802 159.28ZM278.172 158.47C278.172 158.05 278.057 157.71 277.827 157.45C277.597 157.19 277.227 157.06 276.717 157.06C276.317 157.06 275.962 157.175 275.652 157.405C275.342 157.635 275.137 157.99 275.037 158.47H278.172Z" fill="white"/>
<rect x="308" width="118" height="31" fill="#333333"/>
<rect x="308" width="118" height="31" fill="#333333"/>
<rect x="229" width="79" height="31" fill="#090808"/>
<path d="M241.105 17.8101C241.105 17.5513 240.976 17.3486 240.717 17.2021C240.463 17.0508 240.053 16.9165 239.486 16.7993C237.602 16.4038 236.659 15.603 236.659 14.397C236.659 13.6938 236.95 13.1079 237.531 12.6392C238.117 12.1655 238.881 11.9287 239.823 11.9287C240.829 11.9287 241.632 12.1655 242.233 12.6392C242.838 13.1128 243.141 13.728 243.141 14.4849H241.024C241.024 14.1821 240.927 13.9331 240.731 13.7378C240.536 13.5376 240.231 13.4375 239.816 13.4375C239.459 13.4375 239.184 13.5181 238.988 13.6792C238.793 13.8403 238.695 14.0454 238.695 14.2944C238.695 14.5288 238.805 14.7192 239.025 14.8657C239.25 15.0073 239.625 15.1318 240.153 15.2393C240.68 15.3418 241.125 15.459 241.486 15.5908C242.604 16.001 243.163 16.7114 243.163 17.7222C243.163 18.4448 242.853 19.0308 242.233 19.48C241.613 19.9243 240.812 20.1465 239.831 20.1465C239.167 20.1465 238.576 20.0293 238.058 19.7949C237.545 19.5557 237.143 19.231 236.85 18.8208C236.557 18.4058 236.41 17.959 236.41 17.4805H238.417C238.437 17.8564 238.576 18.1445 238.834 18.3447C239.093 18.5449 239.44 18.645 239.875 18.645C240.28 18.645 240.585 18.5693 240.79 18.418C241 18.2617 241.105 18.0591 241.105 17.8101ZM247.829 18.4399C248.219 18.4399 248.537 18.3325 248.781 18.1177C249.025 17.9028 249.152 17.6172 249.162 17.2607H251.146C251.142 17.7979 250.995 18.291 250.707 18.7402C250.419 19.1846 250.023 19.5312 249.521 19.7803C249.022 20.0244 248.471 20.1465 247.865 20.1465C246.732 20.1465 245.839 19.7876 245.185 19.0698C244.53 18.3472 244.203 17.3511 244.203 16.0815V15.9424C244.203 14.7217 244.528 13.7476 245.177 13.02C245.827 12.2925 246.718 11.9287 247.851 11.9287C248.842 11.9287 249.635 12.2119 250.231 12.7783C250.832 13.3398 251.137 14.0894 251.146 15.0269H249.162C249.152 14.6167 249.025 14.2847 248.781 14.0308C248.537 13.772 248.214 13.6426 247.814 13.6426C247.321 13.6426 246.947 13.8232 246.693 14.1846C246.444 14.541 246.32 15.1221 246.32 15.9277V16.1475C246.32 16.9629 246.444 17.5488 246.693 17.9053C246.942 18.2617 247.321 18.4399 247.829 18.4399ZM256.808 14.0601C256.52 14.021 256.266 14.0015 256.046 14.0015C255.246 14.0015 254.721 14.2725 254.472 14.8145V20H252.355V12.0752H254.354L254.413 13.02C254.838 12.2925 255.426 11.9287 256.178 11.9287C256.413 11.9287 256.632 11.9604 256.837 12.0239L256.808 14.0601ZM260.067 20H257.943V12.0752H260.067V20ZM257.819 10.0244C257.819 9.70703 257.924 9.4458 258.134 9.24072C258.349 9.03564 258.639 8.93311 259.005 8.93311C259.367 8.93311 259.655 9.03564 259.87 9.24072C260.084 9.4458 260.192 9.70703 260.192 10.0244C260.192 10.3467 260.082 10.6104 259.862 10.8154C259.647 11.0205 259.362 11.123 259.005 11.123C258.649 11.123 258.361 11.0205 258.141 10.8154C257.926 10.6104 257.819 10.3467 257.819 10.0244ZM268.952 16.1108C268.952 17.3315 268.673 18.3105 268.117 19.0479C267.565 19.7803 266.818 20.1465 265.875 20.1465C265.075 20.1465 264.428 19.8682 263.935 19.3115V23.0469H261.818V12.0752H263.781L263.854 12.8516C264.367 12.2363 265.036 11.9287 265.861 11.9287C266.837 11.9287 267.597 12.29 268.139 13.0127C268.681 13.7354 268.952 14.7314 268.952 16.001V16.1108ZM266.835 15.957C266.835 15.2197 266.703 14.6509 266.439 14.2505C266.181 13.8501 265.802 13.6499 265.304 13.6499C264.64 13.6499 264.184 13.9038 263.935 14.4116V17.6562C264.193 18.1787 264.655 18.4399 265.319 18.4399C266.33 18.4399 266.835 17.6123 266.835 15.957ZM272.804 10.127V12.0752H274.159V13.6279H272.804V17.583C272.804 17.876 272.86 18.0859 272.973 18.2129C273.085 18.3398 273.3 18.4033 273.617 18.4033C273.852 18.4033 274.059 18.3862 274.24 18.3521V19.9561C273.825 20.083 273.397 20.1465 272.958 20.1465C271.474 20.1465 270.717 19.397 270.688 17.8979V13.6279H269.53V12.0752H270.688V10.127H272.804ZM275.448 18.96C275.448 18.623 275.561 18.3496 275.785 18.1396C276.015 17.9297 276.3 17.8247 276.642 17.8247C276.989 17.8247 277.274 17.9297 277.499 18.1396C277.729 18.3496 277.843 18.623 277.843 18.96C277.843 19.292 277.731 19.563 277.506 19.7729C277.282 19.978 276.994 20.0806 276.642 20.0806C276.295 20.0806 276.01 19.978 275.785 19.7729C275.561 19.563 275.448 19.292 275.448 18.96ZM286.837 16.1108C286.837 17.3315 286.559 18.3105 286.002 19.0479C285.451 19.7803 284.704 20.1465 283.761 20.1465C282.96 20.1465 282.313 19.8682 281.82 19.3115V23.0469H279.704V12.0752H281.667L281.74 12.8516C282.252 12.2363 282.921 11.9287 283.747 11.9287C284.723 11.9287 285.482 12.29 286.024 13.0127C286.566 13.7354 286.837 14.7314 286.837 16.001V16.1108ZM284.721 15.957C284.721 15.2197 284.589 14.6509 284.325 14.2505C284.066 13.8501 283.688 13.6499 283.19 13.6499C282.526 13.6499 282.069 13.9038 281.82 14.4116V17.6562C282.079 18.1787 282.541 18.4399 283.205 18.4399C284.215 18.4399 284.721 17.6123 284.721 15.957ZM291.027 17.0044L292.492 12.0752H294.762L291.576 21.2305L291.4 21.6479C290.927 22.6831 290.146 23.2007 289.057 23.2007C288.749 23.2007 288.437 23.1543 288.119 23.0615V21.4575L288.441 21.4648C288.842 21.4648 289.14 21.4038 289.335 21.2817C289.535 21.1597 289.691 20.957 289.804 20.6738L290.053 20.022L287.277 12.0752H289.555L291.027 17.0044Z" fill="white"/>
<path d="M236.915 48.93C236.915 48.51 237.005 48.145 237.185 47.835C237.365 47.515 237.65 47.245 238.04 47.025C238.44 46.805 238.95 46.63 239.57 46.5C240.19 46.36 240.94 46.265 241.82 46.215C241.78 45.875 241.63 45.61 241.37 45.42C241.12 45.23 240.74 45.135 240.23 45.135C239.87 45.135 239.505 45.2 239.135 45.33C238.775 45.45 238.385 45.615 237.965 45.825L237.185 44.385C237.695 44.095 238.24 43.855 238.82 43.665C239.41 43.475 240.025 43.38 240.665 43.38C241.705 43.38 242.525 43.655 243.125 44.205C243.725 44.755 244.025 45.6 244.025 46.74V51H242.225L242.06 50.16H242C241.62 50.45 241.205 50.695 240.755 50.895C240.305 51.085 239.84 51.18 239.36 51.18C238.98 51.18 238.64 51.12 238.34 51C238.04 50.89 237.785 50.735 237.575 50.535C237.365 50.325 237.2 50.085 237.08 49.815C236.97 49.545 236.915 49.25 236.915 48.93ZM239.03 48.765C239.03 49.005 239.12 49.185 239.3 49.305C239.49 49.415 239.745 49.47 240.065 49.47C240.395 49.47 240.705 49.405 240.995 49.275C241.285 49.135 241.56 48.965 241.82 48.765V47.535C241.27 47.565 240.815 47.615 240.455 47.685C240.095 47.755 239.81 47.845 239.6 47.955C239.39 48.055 239.24 48.175 239.15 48.315C239.07 48.455 239.03 48.605 239.03 48.765ZM253.094 51.81V53.46H245.894V51.81H253.094ZM256.598 45.285H254.723V43.65L256.703 43.56L256.988 41.58H258.803V43.56H261.953V45.285H258.803V47.895C258.803 48.465 258.928 48.87 259.178 49.11C259.428 49.34 259.823 49.455 260.363 49.455C260.653 49.455 260.918 49.43 261.158 49.38C261.398 49.33 261.628 49.265 261.848 49.185L262.238 50.775C261.908 50.875 261.538 50.965 261.128 51.045C260.728 51.135 260.288 51.18 259.808 51.18C259.218 51.18 258.718 51.1 258.308 50.94C257.898 50.78 257.563 50.56 257.303 50.28C257.053 49.99 256.873 49.645 256.763 49.245C256.653 48.845 256.598 48.4 256.598 47.91V45.285ZM270.857 51H269.057L268.892 49.935H268.832C268.502 50.315 268.137 50.62 267.737 50.85C267.337 51.07 266.867 51.18 266.327 51.18C265.477 51.18 264.862 50.91 264.482 50.37C264.102 49.83 263.912 49.09 263.912 48.15V43.56H266.117V47.865C266.117 48.365 266.192 48.73 266.342 48.96C266.492 49.19 266.777 49.305 267.197 49.305C267.477 49.305 267.722 49.245 267.932 49.125C268.152 49.005 268.392 48.78 268.652 48.45V43.56H270.857V51ZM275.262 51.585V53.76H273.057V43.56H274.857L275.022 44.31H275.067C275.367 44.04 275.712 43.82 276.102 43.65C276.492 43.47 276.887 43.38 277.287 43.38C277.747 43.38 278.162 43.47 278.532 43.65C278.902 43.83 279.217 44.085 279.477 44.415C279.737 44.745 279.932 45.145 280.062 45.615C280.202 46.075 280.272 46.59 280.272 47.16C280.272 47.8 280.182 48.37 280.002 48.87C279.822 49.36 279.582 49.78 279.282 50.13C278.982 50.47 278.637 50.73 278.247 50.91C277.867 51.09 277.467 51.18 277.047 51.18C276.367 51.18 275.747 50.91 275.187 50.37L275.262 51.585ZM275.262 48.885C275.472 49.065 275.687 49.195 275.907 49.275C276.137 49.345 276.347 49.38 276.537 49.38C276.957 49.38 277.307 49.21 277.587 48.87C277.867 48.52 278.007 47.96 278.007 47.19C278.007 45.85 277.552 45.18 276.642 45.18C276.172 45.18 275.712 45.41 275.262 45.87V48.885ZM281.901 40.485H286.266V48.18C286.266 48.41 286.296 48.605 286.356 48.765C286.426 48.915 286.516 49.04 286.626 49.14C286.746 49.23 286.876 49.295 287.016 49.335C287.166 49.375 287.316 49.395 287.466 49.395C287.636 49.395 287.816 49.38 288.006 49.35C288.196 49.31 288.406 49.245 288.636 49.155L289.131 50.775C288.931 50.835 288.746 50.89 288.576 50.94C288.406 50.99 288.236 51.03 288.066 51.06C287.896 51.1 287.716 51.13 287.526 51.15C287.336 51.17 287.126 51.18 286.896 51.18C285.956 51.18 285.246 50.905 284.766 50.355C284.296 49.795 284.061 49.04 284.061 48.09V42.225H281.901V40.485ZM290.79 47.28C290.79 46.67 290.895 46.125 291.105 45.645C291.325 45.165 291.615 44.76 291.975 44.43C292.335 44.09 292.745 43.83 293.205 43.65C293.675 43.47 294.16 43.38 294.66 43.38C295.23 43.38 295.735 43.47 296.175 43.65C296.615 43.83 296.98 44.08 297.27 44.4C297.56 44.72 297.78 45.1 297.93 45.54C298.08 45.97 298.155 46.44 298.155 46.95C298.155 47.15 298.145 47.34 298.125 47.52C298.105 47.7 298.085 47.835 298.065 47.925H293.055C293.135 48.485 293.375 48.89 293.775 49.14C294.185 49.38 294.665 49.5 295.215 49.5C295.555 49.5 295.875 49.46 296.175 49.38C296.485 49.29 296.805 49.16 297.135 48.99L297.855 50.31C297.435 50.58 296.965 50.795 296.445 50.955C295.925 51.105 295.415 51.18 294.915 51.18C294.335 51.18 293.795 51.095 293.295 50.925C292.795 50.745 292.36 50.49 291.99 50.16C291.62 49.82 291.325 49.41 291.105 48.93C290.895 48.45 290.79 47.9 290.79 47.28ZM296.16 46.47C296.16 46.05 296.045 45.71 295.815 45.45C295.585 45.19 295.215 45.06 294.705 45.06C294.305 45.06 293.95 45.175 293.64 45.405C293.33 45.635 293.125 45.99 293.025 46.47H296.16ZM309.003 43.53H315.903V45.09H309.003V43.53ZM309.003 46.995H315.903V48.555H309.003V46.995ZM337.666 52.965C338.966 52.515 339.616 51.805 339.616 50.835C339.576 50.845 339.521 50.85 339.451 50.85C339.241 50.85 339.036 50.82 338.836 50.76C338.646 50.69 338.476 50.59 338.326 50.46C338.176 50.33 338.056 50.17 337.966 49.98C337.876 49.79 337.831 49.57 337.831 49.32C337.831 48.85 337.991 48.475 338.311 48.195C338.641 47.915 339.041 47.775 339.511 47.775C340.131 47.775 340.596 48.005 340.906 48.465C341.216 48.915 341.371 49.545 341.371 50.355C341.371 51.315 341.106 52.125 340.576 52.785C340.046 53.445 339.261 53.935 338.221 54.255L337.666 52.965ZM286.851 72.685C285.871 71.815 285.096 70.81 284.526 69.67C283.966 68.53 283.686 67.25 283.686 65.83C283.686 64.41 283.966 63.13 284.526 61.99C285.096 60.85 285.871 59.845 286.851 58.975L288.081 59.95C287.191 60.82 286.541 61.725 286.131 62.665C285.731 63.595 285.531 64.65 285.531 65.83C285.531 66.42 285.581 66.98 285.681 67.51C285.781 68.03 285.931 68.53 286.131 69.01C286.341 69.49 286.606 69.95 286.926 70.39C287.246 70.84 287.631 71.28 288.081 71.71L286.851 72.685ZM290.88 67.93C290.88 67.51 290.97 67.145 291.15 66.835C291.33 66.515 291.615 66.245 292.005 66.025C292.405 65.805 292.915 65.63 293.535 65.5C294.155 65.36 294.905 65.265 295.785 65.215C295.745 64.875 295.595 64.61 295.335 64.42C295.085 64.23 294.705 64.135 294.195 64.135C293.835 64.135 293.47 64.2 293.1 64.33C292.74 64.45 292.35 64.615 291.93 64.825L291.15 63.385C291.66 63.095 292.205 62.855 292.785 62.665C293.375 62.475 293.99 62.38 294.63 62.38C295.67 62.38 296.49 62.655 297.09 63.205C297.69 63.755 297.99 64.6 297.99 65.74V70H296.19L296.025 69.16H295.965C295.585 69.45 295.17 69.695 294.72 69.895C294.27 70.085 293.805 70.18 293.325 70.18C292.945 70.18 292.605 70.12 292.305 70C292.005 69.89 291.75 69.735 291.54 69.535C291.33 69.325 291.165 69.085 291.045 68.815C290.935 68.545 290.88 68.25 290.88 67.93ZM292.995 67.765C292.995 68.005 293.085 68.185 293.265 68.305C293.455 68.415 293.71 68.47 294.03 68.47C294.36 68.47 294.67 68.405 294.96 68.275C295.25 68.135 295.525 67.965 295.785 67.765V66.535C295.235 66.565 294.78 66.615 294.42 66.685C294.06 66.755 293.775 66.845 293.565 66.955C293.355 67.055 293.205 67.175 293.115 67.315C293.035 67.455 292.995 67.605 292.995 67.765ZM307.059 70.81V72.46H299.859V70.81H307.059ZM310.563 64.285H308.688V62.65L310.668 62.56L310.953 60.58H312.768V62.56H315.918V64.285H312.768V66.895C312.768 67.465 312.893 67.87 313.143 68.11C313.393 68.34 313.788 68.455 314.328 68.455C314.618 68.455 314.883 68.43 315.123 68.38C315.363 68.33 315.593 68.265 315.813 68.185L316.203 69.775C315.873 69.875 315.503 69.965 315.093 70.045C314.693 70.135 314.253 70.18 313.773 70.18C313.183 70.18 312.683 70.1 312.273 69.94C311.863 69.78 311.528 69.56 311.268 69.28C311.018 68.99 310.838 68.645 310.728 68.245C310.618 67.845 310.563 67.4 310.563 66.91V64.285ZM324.822 70H323.022L322.857 68.935H322.797C322.467 69.315 322.102 69.62 321.702 69.85C321.302 70.07 320.832 70.18 320.292 70.18C319.442 70.18 318.827 69.91 318.447 69.37C318.067 68.83 317.877 68.09 317.877 67.15V62.56H320.082V66.865C320.082 67.365 320.157 67.73 320.307 67.96C320.457 68.19 320.742 68.305 321.162 68.305C321.442 68.305 321.687 68.245 321.897 68.125C322.117 68.005 322.357 67.78 322.617 67.45V62.56H324.822V70ZM329.226 70.585V72.76H327.021V62.56H328.821L328.986 63.31H329.031C329.331 63.04 329.676 62.82 330.066 62.65C330.456 62.47 330.851 62.38 331.251 62.38C331.711 62.38 332.126 62.47 332.496 62.65C332.866 62.83 333.181 63.085 333.441 63.415C333.701 63.745 333.896 64.145 334.026 64.615C334.166 65.075 334.236 65.59 334.236 66.16C334.236 66.8 334.146 67.37 333.966 67.87C333.786 68.36 333.546 68.78 333.246 69.13C332.946 69.47 332.601 69.73 332.211 69.91C331.831 70.09 331.431 70.18 331.011 70.18C330.331 70.18 329.711 69.91 329.151 69.37L329.226 70.585ZM329.226 67.885C329.436 68.065 329.651 68.195 329.871 68.275C330.101 68.345 330.311 68.38 330.501 68.38C330.921 68.38 331.271 68.21 331.551 67.87C331.831 67.52 331.971 66.96 331.971 66.19C331.971 64.85 331.516 64.18 330.606 64.18C330.136 64.18 329.676 64.41 329.226 64.87V67.885ZM335.866 59.485H340.231V67.18C340.231 67.41 340.261 67.605 340.321 67.765C340.391 67.915 340.481 68.04 340.591 68.14C340.711 68.23 340.841 68.295 340.981 68.335C341.131 68.375 341.281 68.395 341.431 68.395C341.601 68.395 341.781 68.38 341.971 68.35C342.161 68.31 342.371 68.245 342.601 68.155L343.096 69.775C342.896 69.835 342.711 69.89 342.541 69.94C342.371 69.99 342.201 70.03 342.031 70.06C341.861 70.1 341.681 70.13 341.491 70.15C341.301 70.17 341.091 70.18 340.861 70.18C339.921 70.18 339.211 69.905 338.731 69.355C338.261 68.795 338.026 68.04 338.026 67.09V61.225H335.866V59.485ZM344.755 66.28C344.755 65.67 344.86 65.125 345.07 64.645C345.29 64.165 345.58 63.76 345.94 63.43C346.3 63.09 346.71 62.83 347.17 62.65C347.64 62.47 348.125 62.38 348.625 62.38C349.195 62.38 349.7 62.47 350.14 62.65C350.58 62.83 350.945 63.08 351.235 63.4C351.525 63.72 351.745 64.1 351.895 64.54C352.045 64.97 352.12 65.44 352.12 65.95C352.12 66.15 352.11 66.34 352.09 66.52C352.07 66.7 352.05 66.835 352.03 66.925H347.02C347.1 67.485 347.34 67.89 347.74 68.14C348.15 68.38 348.63 68.5 349.18 68.5C349.52 68.5 349.84 68.46 350.14 68.38C350.45 68.29 350.77 68.16 351.1 67.99L351.82 69.31C351.4 69.58 350.93 69.795 350.41 69.955C349.89 70.105 349.38 70.18 348.88 70.18C348.3 70.18 347.76 70.095 347.26 69.925C346.76 69.745 346.325 69.49 345.955 69.16C345.585 68.82 345.29 68.41 345.07 67.93C344.86 67.45 344.755 66.9 344.755 66.28ZM350.125 65.47C350.125 65.05 350.01 64.71 349.78 64.45C349.55 64.19 349.18 64.06 348.67 64.06C348.27 64.06 347.915 64.175 347.605 64.405C347.295 64.635 347.09 64.99 346.99 65.47H350.125ZM354.814 71.71C355.264 71.28 355.649 70.84 355.969 70.39C356.289 69.95 356.549 69.49 356.749 69.01C356.959 68.53 357.114 68.03 357.214 67.51C357.314 66.98 357.364 66.42 357.364 65.83C357.364 64.65 357.159 63.595 356.749 62.665C356.349 61.725 355.704 60.82 354.814 59.95L356.044 58.975C357.024 59.845 357.794 60.85 358.354 61.99C358.924 63.13 359.209 64.41 359.209 65.83C359.209 67.25 358.924 68.53 358.354 69.67C357.794 70.81 357.024 71.815 356.044 72.685L354.814 71.71ZM277.857 90.685C276.877 89.815 276.102 88.81 275.532 87.67C274.972 86.53 274.692 85.25 274.692 83.83C274.692 82.41 274.972 81.13 275.532 79.99C276.102 78.85 276.877 77.845 277.857 76.975L279.087 77.95C278.197 78.82 277.547 79.725 277.137 80.665C276.737 81.595 276.537 82.65 276.537 83.83C276.537 84.42 276.587 84.98 276.687 85.51C276.787 86.03 276.937 86.53 277.137 87.01C277.347 87.49 277.612 87.95 277.932 88.39C278.252 88.84 278.637 89.28 279.087 89.71L277.857 90.685ZM281.886 85.93C281.886 85.51 281.976 85.145 282.156 84.835C282.336 84.515 282.621 84.245 283.011 84.025C283.411 83.805 283.921 83.63 284.541 83.5C285.161 83.36 285.911 83.265 286.791 83.215C286.751 82.875 286.601 82.61 286.341 82.42C286.091 82.23 285.711 82.135 285.201 82.135C284.841 82.135 284.476 82.2 284.106 82.33C283.746 82.45 283.356 82.615 282.936 82.825L282.156 81.385C282.666 81.095 283.211 80.855 283.791 80.665C284.381 80.475 284.996 80.38 285.636 80.38C286.676 80.38 287.496 80.655 288.096 81.205C288.696 81.755 288.996 82.6 288.996 83.74V88H287.196L287.031 87.16H286.971C286.591 87.45 286.176 87.695 285.726 87.895C285.276 88.085 284.811 88.18 284.331 88.18C283.951 88.18 283.611 88.12 283.311 88C283.011 87.89 282.756 87.735 282.546 87.535C282.336 87.325 282.171 87.085 282.051 86.815C281.941 86.545 281.886 86.25 281.886 85.93ZM284.001 85.765C284.001 86.005 284.091 86.185 284.271 86.305C284.461 86.415 284.716 86.47 285.036 86.47C285.366 86.47 285.676 86.405 285.966 86.275C286.256 86.135 286.531 85.965 286.791 85.765V84.535C286.241 84.565 285.786 84.615 285.426 84.685C285.066 84.755 284.781 84.845 284.571 84.955C284.361 85.055 284.211 85.175 284.121 85.315C284.041 85.455 284.001 85.605 284.001 85.765ZM298.065 88.81V90.46H290.865V88.81H298.065ZM301.569 82.285H299.694V80.65L301.674 80.56L301.959 78.58H303.774V80.56H306.924V82.285H303.774V84.895C303.774 85.465 303.899 85.87 304.149 86.11C304.399 86.34 304.794 86.455 305.334 86.455C305.624 86.455 305.889 86.43 306.129 86.38C306.369 86.33 306.599 86.265 306.819 86.185L307.209 87.775C306.879 87.875 306.509 87.965 306.099 88.045C305.699 88.135 305.259 88.18 304.779 88.18C304.189 88.18 303.689 88.1 303.279 87.94C302.869 87.78 302.534 87.56 302.274 87.28C302.024 86.99 301.844 86.645 301.734 86.245C301.624 85.845 301.569 85.4 301.569 84.91V82.285ZM315.828 88H314.028L313.863 86.935H313.803C313.473 87.315 313.108 87.62 312.708 87.85C312.308 88.07 311.838 88.18 311.298 88.18C310.448 88.18 309.833 87.91 309.453 87.37C309.073 86.83 308.883 86.09 308.883 85.15V80.56H311.088V84.865C311.088 85.365 311.163 85.73 311.313 85.96C311.463 86.19 311.748 86.305 312.168 86.305C312.448 86.305 312.693 86.245 312.903 86.125C313.123 86.005 313.363 85.78 313.623 85.45V80.56H315.828V88ZM320.232 88.585V90.76H318.027V80.56H319.827L319.992 81.31H320.037C320.337 81.04 320.682 80.82 321.072 80.65C321.462 80.47 321.857 80.38 322.257 80.38C322.717 80.38 323.132 80.47 323.502 80.65C323.872 80.83 324.187 81.085 324.447 81.415C324.707 81.745 324.902 82.145 325.032 82.615C325.172 83.075 325.242 83.59 325.242 84.16C325.242 84.8 325.152 85.37 324.972 85.87C324.792 86.36 324.552 86.78 324.252 87.13C323.952 87.47 323.607 87.73 323.217 87.91C322.837 88.09 322.437 88.18 322.017 88.18C321.337 88.18 320.717 87.91 320.157 87.37L320.232 88.585ZM320.232 85.885C320.442 86.065 320.657 86.195 320.877 86.275C321.107 86.345 321.317 86.38 321.507 86.38C321.927 86.38 322.277 86.21 322.557 85.87C322.837 85.52 322.977 84.96 322.977 84.19C322.977 82.85 322.522 82.18 321.612 82.18C321.142 82.18 320.682 82.41 320.232 82.87V85.885ZM326.871 77.485H331.236V85.18C331.236 85.41 331.266 85.605 331.326 85.765C331.396 85.915 331.486 86.04 331.596 86.14C331.716 86.23 331.846 86.295 331.986 86.335C332.136 86.375 332.286 86.395 332.436 86.395C332.606 86.395 332.786 86.38 332.976 86.35C333.166 86.31 333.376 86.245 333.606 86.155L334.101 87.775C333.901 87.835 333.716 87.89 333.546 87.94C333.376 87.99 333.206 88.03 333.036 88.06C332.866 88.1 332.686 88.13 332.496 88.15C332.306 88.17 332.096 88.18 331.866 88.18C330.926 88.18 330.216 87.905 329.736 87.355C329.266 86.795 329.031 86.04 329.031 85.09V79.225H326.871V77.485ZM335.761 84.28C335.761 83.67 335.866 83.125 336.076 82.645C336.296 82.165 336.586 81.76 336.946 81.43C337.306 81.09 337.716 80.83 338.176 80.65C338.646 80.47 339.131 80.38 339.631 80.38C340.201 80.38 340.706 80.47 341.146 80.65C341.586 80.83 341.951 81.08 342.241 81.4C342.531 81.72 342.751 82.1 342.901 82.54C343.051 82.97 343.126 83.44 343.126 83.95C343.126 84.15 343.116 84.34 343.096 84.52C343.076 84.7 343.056 84.835 343.036 84.925H338.026C338.106 85.485 338.346 85.89 338.746 86.14C339.156 86.38 339.636 86.5 340.186 86.5C340.526 86.5 340.846 86.46 341.146 86.38C341.456 86.29 341.776 86.16 342.106 85.99L342.826 87.31C342.406 87.58 341.936 87.795 341.416 87.955C340.896 88.105 340.386 88.18 339.886 88.18C339.306 88.18 338.766 88.095 338.266 87.925C337.766 87.745 337.331 87.49 336.961 87.16C336.591 86.82 336.296 86.41 336.076 85.93C335.866 85.45 335.761 84.9 335.761 84.28ZM341.131 83.47C341.131 83.05 341.016 82.71 340.786 82.45C340.556 82.19 340.186 82.06 339.676 82.06C339.276 82.06 338.921 82.175 338.611 82.405C338.301 82.635 338.096 82.99 337.996 83.47H341.131ZM345.82 89.71C346.27 89.28 346.655 88.84 346.975 88.39C347.295 87.95 347.555 87.49 347.755 87.01C347.965 86.53 348.12 86.03 348.22 85.51C348.32 84.98 348.37 84.42 348.37 83.83C348.37 82.65 348.165 81.595 347.755 80.665C347.355 79.725 346.71 78.82 345.82 77.95L347.05 76.975C348.03 77.845 348.8 78.85 349.36 79.99C349.93 81.13 350.215 82.41 350.215 83.83C350.215 85.25 349.93 86.53 349.36 87.67C348.8 88.81 348.03 89.815 347.05 90.685L345.82 89.71Z" fill="white"/>
<path d="M333.996 49.215V51H327.171V49.215H329.631V43.71H327.666V42.345C328.226 42.245 328.701 42.125 329.091 41.985C329.491 41.845 329.866 41.675 330.216 41.475H331.836V49.215H333.996Z" fill="#F0E442"/>
<path d="M356.224 42.9L356.149 40.725H358.699L358.624 42.9L358.099 46.455H356.749L356.224 42.9ZM362.833 48.93C362.833 48.51 362.923 48.145 363.103 47.835C363.283 47.515 363.568 47.245 363.958 47.025C364.358 46.805 364.868 46.63 365.488 46.5C366.108 46.36 366.858 46.265 367.738 46.215C367.698 45.875 367.548 45.61 367.288 45.42C367.038 45.23 366.658 45.135 366.148 45.135C365.788 45.135 365.423 45.2 365.053 45.33C364.693 45.45 364.303 45.615 363.883 45.825L363.103 44.385C363.613 44.095 364.158 43.855 364.738 43.665C365.328 43.475 365.943 43.38 366.583 43.38C367.623 43.38 368.443 43.655 369.043 44.205C369.643 44.755 369.943 45.6 369.943 46.74V51H368.143L367.978 50.16H367.918C367.538 50.45 367.123 50.695 366.673 50.895C366.223 51.085 365.758 51.18 365.278 51.18C364.898 51.18 364.558 51.12 364.258 51C363.958 50.89 363.703 50.735 363.493 50.535C363.283 50.325 363.118 50.085 362.998 49.815C362.888 49.545 362.833 49.25 362.833 48.93ZM364.948 48.765C364.948 49.005 365.038 49.185 365.218 49.305C365.408 49.415 365.663 49.47 365.983 49.47C366.313 49.47 366.623 49.405 366.913 49.275C367.203 49.135 367.478 48.965 367.738 48.765V47.535C367.188 47.565 366.733 47.615 366.373 47.685C366.013 47.755 365.728 47.845 365.518 47.955C365.308 48.055 365.158 48.175 365.068 48.315C364.988 48.455 364.948 48.605 364.948 48.765ZM374.212 42.9L374.137 40.725H376.687L376.612 42.9L376.087 46.455H374.737L374.212 42.9Z" fill="#009E73"/>
<path d="M239.285 70.585V72.76H237.08V62.56H238.88L239.045 63.31H239.09C239.39 63.04 239.735 62.82 240.125 62.65C240.515 62.47 240.91 62.38 241.31 62.38C241.77 62.38 242.185 62.47 242.555 62.65C242.925 62.83 243.24 63.085 243.5 63.415C243.76 63.745 243.955 64.145 244.085 64.615C244.225 65.075 244.295 65.59 244.295 66.16C244.295 66.8 244.205 67.37 244.025 67.87C243.845 68.36 243.605 68.78 243.305 69.13C243.005 69.47 242.66 69.73 242.27 69.91C241.89 70.09 241.49 70.18 241.07 70.18C240.39 70.18 239.77 69.91 239.21 69.37L239.285 70.585ZM239.285 67.885C239.495 68.065 239.71 68.195 239.93 68.275C240.16 68.345 240.37 68.38 240.56 68.38C240.98 68.38 241.33 68.21 241.61 67.87C241.89 67.52 242.03 66.96 242.03 66.19C242.03 64.85 241.575 64.18 240.665 64.18C240.195 64.18 239.735 64.41 239.285 64.87V67.885ZM246.734 62.56H248.534L248.714 64.18H248.759C249.129 63.57 249.574 63.12 250.094 62.83C250.614 62.53 251.174 62.38 251.774 62.38C252.104 62.38 252.369 62.405 252.569 62.455C252.779 62.505 252.994 62.58 253.214 62.68L252.764 64.525C252.534 64.455 252.324 64.405 252.134 64.375C251.954 64.335 251.724 64.315 251.444 64.315C250.984 64.315 250.529 64.45 250.079 64.72C249.639 64.99 249.259 65.46 248.939 66.13V70H246.734V62.56ZM255.173 62.56H260.363V70H258.158V64.285H255.173V62.56ZM259.163 61.465C258.733 61.465 258.378 61.345 258.098 61.105C257.828 60.865 257.693 60.54 257.693 60.13C257.693 59.72 257.828 59.39 258.098 59.14C258.378 58.88 258.733 58.75 259.163 58.75C259.593 58.75 259.943 58.88 260.213 59.14C260.493 59.39 260.633 59.72 260.633 60.13C260.633 60.54 260.493 60.865 260.213 61.105C259.943 61.345 259.593 61.465 259.163 61.465ZM264.062 62.56H265.862L266.027 63.55H266.087C266.407 63.23 266.772 62.955 267.182 62.725C267.602 62.495 268.092 62.38 268.652 62.38C269.492 62.38 270.107 62.65 270.497 63.19C270.887 63.73 271.082 64.47 271.082 65.41V70H268.877V65.695C268.877 65.195 268.797 64.83 268.637 64.6C268.477 64.37 268.192 64.255 267.782 64.255C267.482 64.255 267.217 64.32 266.987 64.45C266.767 64.58 266.527 64.775 266.267 65.035V70H264.062V62.56ZM274.587 64.285H272.712V62.65L274.692 62.56L274.977 60.58H276.792V62.56H279.942V64.285H276.792V66.895C276.792 67.465 276.917 67.87 277.167 68.11C277.417 68.34 277.812 68.455 278.352 68.455C278.642 68.455 278.907 68.43 279.147 68.38C279.387 68.33 279.617 68.265 279.837 68.185L280.227 69.775C279.897 69.875 279.527 69.965 279.117 70.045C278.717 70.135 278.277 70.18 277.797 70.18C277.207 70.18 276.707 70.1 276.297 69.94C275.887 69.78 275.552 69.56 275.292 69.28C275.042 68.99 274.862 68.645 274.752 68.245C274.642 67.845 274.587 67.4 274.587 66.91V64.285ZM238.61 82.285H236.735V80.65L238.715 80.56L239 78.58H240.815V80.56H243.965V82.285H240.815V84.895C240.815 85.465 240.94 85.87 241.19 86.11C241.44 86.34 241.835 86.455 242.375 86.455C242.665 86.455 242.93 86.43 243.17 86.38C243.41 86.33 243.64 86.265 243.86 86.185L244.25 87.775C243.92 87.875 243.55 87.965 243.14 88.045C242.74 88.135 242.3 88.18 241.82 88.18C241.23 88.18 240.73 88.1 240.32 87.94C239.91 87.78 239.575 87.56 239.315 87.28C239.065 86.99 238.885 86.645 238.775 86.245C238.665 85.845 238.61 85.4 238.61 84.91V82.285ZM246.389 89.08C246.579 89.14 246.774 89.17 246.974 89.17C247.404 89.17 247.739 89.08 247.979 88.9C248.229 88.72 248.414 88.485 248.534 88.195L248.684 87.805L245.459 80.56H247.649L248.894 83.755C249.034 84.105 249.164 84.47 249.284 84.85C249.404 85.22 249.524 85.6 249.644 85.99H249.704C249.804 85.62 249.914 85.25 250.034 84.88C250.154 84.5 250.269 84.125 250.379 83.755L251.474 80.56H253.559L250.619 88.075C250.439 88.545 250.244 88.955 250.034 89.305C249.824 89.665 249.584 89.96 249.314 90.19C249.044 90.43 248.729 90.61 248.369 90.73C248.019 90.85 247.609 90.91 247.139 90.91C246.919 90.91 246.714 90.895 246.524 90.865C246.334 90.845 246.159 90.81 245.999 90.76L246.389 89.08ZM257.273 88.585V90.76H255.068V80.56H256.868L257.033 81.31H257.078C257.378 81.04 257.723 80.82 258.113 80.65C258.503 80.47 258.898 80.38 259.298 80.38C259.758 80.38 260.173 80.47 260.543 80.65C260.913 80.83 261.228 81.085 261.488 81.415C261.748 81.745 261.943 82.145 262.073 82.615C262.213 83.075 262.283 83.59 262.283 84.16C262.283 84.8 262.193 85.37 262.013 85.87C261.833 86.36 261.593 86.78 261.293 87.13C260.993 87.47 260.648 87.73 260.258 87.91C259.878 88.09 259.478 88.18 259.058 88.18C258.378 88.18 257.758 87.91 257.198 87.37L257.273 88.585ZM257.273 85.885C257.483 86.065 257.698 86.195 257.918 86.275C258.148 86.345 258.358 86.38 258.548 86.38C258.968 86.38 259.318 86.21 259.598 85.87C259.878 85.52 260.018 84.96 260.018 84.19C260.018 82.85 259.563 82.18 258.653 82.18C258.183 82.18 257.723 82.41 257.273 82.87V85.885ZM263.807 84.28C263.807 83.67 263.912 83.125 264.122 82.645C264.342 82.165 264.632 81.76 264.992 81.43C265.352 81.09 265.762 80.83 266.222 80.65C266.692 80.47 267.177 80.38 267.677 80.38C268.247 80.38 268.752 80.47 269.192 80.65C269.632 80.83 269.997 81.08 270.287 81.4C270.577 81.72 270.797 82.1 270.947 82.54C271.097 82.97 271.172 83.44 271.172 83.95C271.172 84.15 271.162 84.34 271.142 84.52C271.122 84.7 271.102 84.835 271.082 84.925H266.072C266.152 85.485 266.392 85.89 266.792 86.14C267.202 86.38 267.682 86.5 268.232 86.5C268.572 86.5 268.892 86.46 269.192 86.38C269.502 86.29 269.822 86.16 270.152 85.99L270.872 87.31C270.452 87.58 269.982 87.795 269.462 87.955C268.942 88.105 268.432 88.18 267.932 88.18C267.352 88.18 266.812 88.095 266.312 87.925C265.812 87.745 265.377 87.49 265.007 87.16C264.637 86.82 264.342 86.41 264.122 85.93C263.912 85.45 263.807 84.9 263.807 84.28ZM269.177 83.47C269.177 83.05 269.062 82.71 268.832 82.45C268.602 82.19 268.232 82.06 267.722 82.06C267.322 82.06 266.967 82.175 266.657 82.405C266.347 82.635 266.142 82.99 266.042 83.47H269.177Z" fill="#56B4E9"/>
<path d="M185.74 20.62V23H176.64V20.62H179.92V13.28H177.3V11.46C178.047 11.3267 178.68 11.1667 179.2 10.98C179.733 10.7933 180.233 10.5667 180.7 10.3H182.86V20.62H185.74Z" fill="#F0E442"/>
<path d="M405.16 21.32C406.067 20.56 406.893 19.8533 407.64 19.2C408.387 18.5333 409.027 17.9133 409.56 17.34C410.093 16.7667 410.507 16.2267 410.8 15.72C411.093 15.2133 411.24 14.7333 411.24 14.28C411.24 13.6533 411.06 13.18 410.7 12.86C410.34 12.5267 409.827 12.36 409.16 12.36C408.653 12.36 408.187 12.4933 407.76 12.76C407.347 13.0133 406.96 13.3133 406.6 13.66L405.02 12.08C405.353 11.7467 405.68 11.4533 406 11.2C406.333 10.9467 406.68 10.74 407.04 10.58C407.413 10.4067 407.8 10.28 408.2 10.2C408.613 10.1067 409.067 10.06 409.56 10.06C410.227 10.06 410.833 10.16 411.38 10.36C411.927 10.5467 412.393 10.82 412.78 11.18C413.18 11.5267 413.487 11.9467 413.7 12.44C413.927 12.9333 414.04 13.4867 414.04 14.1C414.04 14.6333 413.913 15.18 413.66 15.74C413.407 16.2867 413.06 16.84 412.62 17.4C412.193 17.9467 411.7 18.5 411.14 19.06C410.58 19.6067 409.993 20.1467 409.38 20.68C409.74 20.64 410.127 20.6067 410.54 20.58C410.967 20.54 411.347 20.52 411.68 20.52H414.7V23H405.16V21.32Z" fill="#F0E442"/>
</svg>
