<svg width="398" height="140" viewBox="0 0 398 140" fill="none" xmlns="http://www.w3.org/2000/svg">
<rect width="398" height="140" fill="black"/>
<rect x="79" width="319" height="31" fill="#333333"/>
<rect x="79" width="319" height="31" fill="#333333"/>
<rect width="79" height="31" fill="#090808"/>
<path d="M12.105 17.8101C12.105 17.5513 11.9756 17.3486 11.7168 17.2021C11.4629 17.0508 11.0527 16.9165 10.4863 16.7993C8.60156 16.4038 7.65918 15.603 7.65918 14.397C7.65918 13.6938 7.94971 13.1079 8.53076 12.6392C9.1167 12.1655 9.88086 11.9287 10.8232 11.9287C11.8291 11.9287 12.6323 12.1655 13.2329 12.6392C13.8384 13.1128 14.1411 13.728 14.1411 14.4849H12.0244C12.0244 14.1821 11.9268 13.9331 11.7314 13.7378C11.5361 13.5376 11.231 13.4375 10.8159 13.4375C10.4595 13.4375 10.1836 13.5181 9.98828 13.6792C9.79297 13.8403 9.69531 14.0454 9.69531 14.2944C9.69531 14.5288 9.80518 14.7192 10.0249 14.8657C10.2495 15.0073 10.6255 15.1318 11.1528 15.2393C11.6802 15.3418 12.1245 15.459 12.4858 15.5908C13.604 16.001 14.1631 16.7114 14.1631 17.7222C14.1631 18.4448 13.853 19.0308 13.2329 19.48C12.6128 19.9243 11.812 20.1465 10.8306 20.1465C10.1665 20.1465 9.57568 20.0293 9.05811 19.7949C8.54541 19.5557 8.14258 19.231 7.84961 18.8208C7.55664 18.4058 7.41016 17.959 7.41016 17.4805H9.41699C9.43652 17.8564 9.57568 18.1445 9.83447 18.3447C10.0933 18.5449 10.4399 18.645 10.8745 18.645C11.2798 18.645 11.585 18.5693 11.79 18.418C12 18.2617 12.105 18.0591 12.105 17.8101ZM18.8286 18.4399C19.2192 18.4399 19.5366 18.3325 19.7808 18.1177C20.0249 17.9028 20.1519 17.6172 20.1616 17.2607H22.1465C22.1416 17.7979 21.9951 18.291 21.707 18.7402C21.4189 19.1846 21.0234 19.5312 20.5205 19.7803C20.0225 20.0244 19.4707 20.1465 18.8652 20.1465C17.7324 20.1465 16.8389 19.7876 16.1846 19.0698C15.5303 18.3472 15.2031 17.3511 15.2031 16.0815V15.9424C15.2031 14.7217 15.5278 13.7476 16.1772 13.02C16.8267 12.2925 17.7178 11.9287 18.8506 11.9287C19.8418 11.9287 20.6353 12.2119 21.231 12.7783C21.8315 13.3398 22.1367 14.0894 22.1465 15.0269H20.1616C20.1519 14.6167 20.0249 14.2847 19.7808 14.0308C19.5366 13.772 19.2144 13.6426 18.814 13.6426C18.3208 13.6426 17.9473 13.8232 17.6934 14.1846C17.4443 14.541 17.3198 15.1221 17.3198 15.9277V16.1475C17.3198 16.9629 17.4443 17.5488 17.6934 17.9053C17.9424 18.2617 18.3208 18.4399 18.8286 18.4399ZM27.8081 14.0601C27.52 14.021 27.2661 14.0015 27.0464 14.0015C26.2456 14.0015 25.7207 14.2725 25.4717 14.8145V20H23.355V12.0752H25.3545L25.4131 13.02C25.8379 12.2925 26.4263 11.9287 27.1782 11.9287C27.4126 11.9287 27.6323 11.9604 27.8374 12.0239L27.8081 14.0601ZM31.0674 20H28.9434V12.0752H31.0674V20ZM28.8188 10.0244C28.8188 9.70703 28.9238 9.4458 29.1338 9.24072C29.3486 9.03564 29.6392 8.93311 30.0054 8.93311C30.3667 8.93311 30.6548 9.03564 30.8696 9.24072C31.0845 9.4458 31.1919 9.70703 31.1919 10.0244C31.1919 10.3467 31.082 10.6104 30.8623 10.8154C30.6475 11.0205 30.3618 11.123 30.0054 11.123C29.6489 11.123 29.3608 11.0205 29.1411 10.8154C28.9263 10.6104 28.8188 10.3467 28.8188 10.0244ZM39.9517 16.1108C39.9517 17.3315 39.6733 18.3105 39.1167 19.0479C38.5649 19.7803 37.8179 20.1465 36.8755 20.1465C36.0747 20.1465 35.4277 19.8682 34.9346 19.3115V23.0469H32.8179V12.0752H34.7808L34.854 12.8516C35.3667 12.2363 36.0356 11.9287 36.8608 11.9287C37.8374 11.9287 38.5967 12.29 39.1387 13.0127C39.6807 13.7354 39.9517 14.7314 39.9517 16.001V16.1108ZM37.835 15.957C37.835 15.2197 37.7031 14.6509 37.4395 14.2505C37.1807 13.8501 36.8022 13.6499 36.3042 13.6499C35.6401 13.6499 35.1836 13.9038 34.9346 14.4116V17.6562C35.1934 18.1787 35.6548 18.4399 36.3188 18.4399C37.3296 18.4399 37.835 17.6123 37.835 15.957ZM43.8042 10.127V12.0752H45.1592V13.6279H43.8042V17.583C43.8042 17.876 43.8604 18.0859 43.9727 18.2129C44.085 18.3398 44.2998 18.4033 44.6172 18.4033C44.8516 18.4033 45.0591 18.3862 45.2397 18.3521V19.9561C44.8247 20.083 44.3975 20.1465 43.958 20.1465C42.4736 20.1465 41.7168 19.397 41.6875 17.8979V13.6279H40.5303V12.0752H41.6875V10.127H43.8042ZM46.4482 18.96C46.4482 18.623 46.5605 18.3496 46.7852 18.1396C47.0146 17.9297 47.3003 17.8247 47.6421 17.8247C47.9888 17.8247 48.2744 17.9297 48.499 18.1396C48.7285 18.3496 48.8433 18.623 48.8433 18.96C48.8433 19.292 48.731 19.563 48.5063 19.7729C48.2817 19.978 47.9937 20.0806 47.6421 20.0806C47.2954 20.0806 47.0098 19.978 46.7852 19.7729C46.5605 19.563 46.4482 19.292 46.4482 18.96ZM57.8374 16.1108C57.8374 17.3315 57.5591 18.3105 57.0024 19.0479C56.4507 19.7803 55.7036 20.1465 54.7612 20.1465C53.9604 20.1465 53.3135 19.8682 52.8203 19.3115V23.0469H50.7036V12.0752H52.6665L52.7397 12.8516C53.2524 12.2363 53.9214 11.9287 54.7466 11.9287C55.7231 11.9287 56.4824 12.29 57.0244 13.0127C57.5664 13.7354 57.8374 14.7314 57.8374 16.001V16.1108ZM55.7207 15.957C55.7207 15.2197 55.5889 14.6509 55.3252 14.2505C55.0664 13.8501 54.688 13.6499 54.1899 13.6499C53.5259 13.6499 53.0693 13.9038 52.8203 14.4116V17.6562C53.0791 18.1787 53.5405 18.4399 54.2046 18.4399C55.2153 18.4399 55.7207 17.6123 55.7207 15.957ZM62.0269 17.0044L63.4917 12.0752H65.7622L62.5762 21.2305L62.4004 21.6479C61.9268 22.6831 61.1455 23.2007 60.0566 23.2007C59.749 23.2007 59.4365 23.1543 59.1191 23.0615V21.4575L59.4414 21.4648C59.8418 21.4648 60.1396 21.4038 60.335 21.2817C60.5352 21.1597 60.6914 20.957 60.8037 20.6738L61.0527 20.022L58.2769 12.0752H60.5547L62.0269 17.0044Z" fill="white"/>
<path d="M8.005 47.28C8.005 46.66 8.12 46.11 8.35 45.63C8.59 45.14 8.905 44.73 9.295 44.4C9.695 44.07 10.155 43.82 10.675 43.65C11.195 43.47 11.74 43.38 12.31 43.38C12.9 43.38 13.43 43.475 13.9 43.665C14.38 43.855 14.78 44.095 15.1 44.385L14.08 45.75C13.53 45.36 12.98 45.165 12.43 45.165C11.79 45.165 11.27 45.355 10.87 45.735C10.47 46.115 10.27 46.63 10.27 47.28C10.27 47.93 10.46 48.445 10.84 48.825C11.23 49.205 11.735 49.395 12.355 49.395C12.745 49.395 13.105 49.325 13.435 49.185C13.765 49.045 14.06 48.88 14.32 48.69L15.22 50.085C14.77 50.465 14.27 50.745 13.72 50.925C13.18 51.095 12.655 51.18 12.145 51.18C11.555 51.18 11.01 51.095 10.51 50.925C10.01 50.745 9.57 50.49 9.19 50.16C8.82 49.83 8.53 49.425 8.32 48.945C8.11 48.455 8.005 47.9 8.005 47.28ZM16.6991 47.28C16.6991 46.66 16.8041 46.11 17.0141 45.63C17.2241 45.14 17.5041 44.73 17.8541 44.4C18.2141 44.07 18.6191 43.82 19.0691 43.65C19.5291 43.47 20.0041 43.38 20.4941 43.38C20.9841 43.38 21.4541 43.47 21.9041 43.65C22.3641 43.82 22.7691 44.07 23.1191 44.4C23.4791 44.73 23.7641 45.14 23.9741 45.63C24.1841 46.11 24.2891 46.66 24.2891 47.28C24.2891 47.9 24.1841 48.455 23.9741 48.945C23.7641 49.425 23.4791 49.83 23.1191 50.16C22.7691 50.49 22.3641 50.745 21.9041 50.925C21.4541 51.095 20.9841 51.18 20.4941 51.18C20.0041 51.18 19.5291 51.095 19.0691 50.925C18.6191 50.745 18.2141 50.49 17.8541 50.16C17.5041 49.83 17.2241 49.425 17.0141 48.945C16.8041 48.455 16.6991 47.9 16.6991 47.28ZM18.9641 47.28C18.9641 47.93 19.0891 48.445 19.3391 48.825C19.5991 49.205 19.9841 49.395 20.4941 49.395C21.0041 49.395 21.3841 49.205 21.6341 48.825C21.8941 48.445 22.0241 47.93 22.0241 47.28C22.0241 46.63 21.8941 46.115 21.6341 45.735C21.3841 45.355 21.0041 45.165 20.4941 45.165C19.9841 45.165 19.5991 45.355 19.3391 45.735C19.0891 46.115 18.9641 46.63 18.9641 47.28ZM26.0683 43.56H27.8683L28.0333 44.55H28.0933C28.4133 44.23 28.7783 43.955 29.1883 43.725C29.6083 43.495 30.0983 43.38 30.6583 43.38C31.4983 43.38 32.1133 43.65 32.5033 44.19C32.8933 44.73 33.0883 45.47 33.0883 46.41V51H30.8833V46.695C30.8833 46.195 30.8033 45.83 30.6433 45.6C30.4833 45.37 30.1983 45.255 29.7883 45.255C29.4883 45.255 29.2233 45.32 28.9933 45.45C28.7733 45.58 28.5333 45.775 28.2733 46.035V51H26.0683V43.56ZM36.5924 45.285H34.7174V43.65L36.6974 43.56L36.9824 41.58H38.7974V43.56H41.9474V45.285H38.7974V47.895C38.7974 48.465 38.9224 48.87 39.1724 49.11C39.4224 49.34 39.8174 49.455 40.3574 49.455C40.6474 49.455 40.9124 49.43 41.1524 49.38C41.3924 49.33 41.6224 49.265 41.8424 49.185L42.2324 50.775C41.9024 50.875 41.5324 50.965 41.1224 51.045C40.7224 51.135 40.2824 51.18 39.8024 51.18C39.2124 51.18 38.7124 51.1 38.3024 50.94C37.8924 50.78 37.5574 50.56 37.2974 50.28C37.0474 49.99 36.8674 49.645 36.7574 49.245C36.6474 48.845 36.5924 48.4 36.5924 47.91V45.285ZM43.8016 47.28C43.8016 46.67 43.9066 46.125 44.1166 45.645C44.3366 45.165 44.6266 44.76 44.9866 44.43C45.3466 44.09 45.7566 43.83 46.2166 43.65C46.6866 43.47 47.1716 43.38 47.6716 43.38C48.2416 43.38 48.7466 43.47 49.1866 43.65C49.6266 43.83 49.9916 44.08 50.2816 44.4C50.5716 44.72 50.7916 45.1 50.9416 45.54C51.0916 45.97 51.1666 46.44 51.1666 46.95C51.1666 47.15 51.1566 47.34 51.1366 47.52C51.1166 47.7 51.0966 47.835 51.0766 47.925H46.0666C46.1466 48.485 46.3866 48.89 46.7866 49.14C47.1966 49.38 47.6766 49.5 48.2266 49.5C48.5666 49.5 48.8866 49.46 49.1866 49.38C49.4966 49.29 49.8166 49.16 50.1466 48.99L50.8666 50.31C50.4466 50.58 49.9766 50.795 49.4566 50.955C48.9366 51.105 48.4266 51.18 47.9266 51.18C47.3466 51.18 46.8066 51.095 46.3066 50.925C45.8066 50.745 45.3716 50.49 45.0016 50.16C44.6316 49.82 44.3366 49.41 44.1166 48.93C43.9066 48.45 43.8016 47.9 43.8016 47.28ZM49.1716 46.47C49.1716 46.05 49.0566 45.71 48.8266 45.45C48.5966 45.19 48.2266 45.06 47.7166 45.06C47.3166 45.06 46.9616 45.175 46.6516 45.405C46.3416 45.635 46.1366 45.99 46.0366 46.47H49.1716ZM53.0507 43.56H54.8507L55.0157 44.55H55.0757C55.3957 44.23 55.7607 43.955 56.1707 43.725C56.5907 43.495 57.0807 43.38 57.6407 43.38C58.4807 43.38 59.0957 43.65 59.4857 44.19C59.8757 44.73 60.0707 45.47 60.0707 46.41V51H57.8657V46.695C57.8657 46.195 57.7857 45.83 57.6257 45.6C57.4657 45.37 57.1807 45.255 56.7707 45.255C56.4707 45.255 56.2057 45.32 55.9757 45.45C55.7557 45.58 55.5157 45.775 55.2557 46.035V51H53.0507V43.56ZM63.5748 45.285H61.6998V43.65L63.6798 43.56L63.9648 41.58H65.7798V43.56H68.9298V45.285H65.7798V47.895C65.7798 48.465 65.9048 48.87 66.1548 49.11C66.4048 49.34 66.7998 49.455 67.3398 49.455C67.6298 49.455 67.8948 49.43 68.1348 49.38C68.3748 49.33 68.6048 49.265 68.8248 49.185L69.2148 50.775C68.8848 50.875 68.5148 50.965 68.1048 51.045C67.7048 51.135 67.2648 51.18 66.7848 51.18C66.1948 51.18 65.6948 51.1 65.2848 50.94C64.8748 50.78 64.5398 50.56 64.2798 50.28C64.0298 49.99 63.8498 49.645 63.7398 49.245C63.6298 48.845 63.5748 48.4 63.5748 47.91V45.285ZM78.059 51.81V53.46H70.859V51.81H78.059ZM80.6931 43.56H82.4931L82.6731 45.18H82.7181C83.0881 44.57 83.5331 44.12 84.0531 43.83C84.5731 43.53 85.1331 43.38 85.7331 43.38C86.0631 43.38 86.3281 43.405 86.5281 43.455C86.7381 43.505 86.9531 43.58 87.1731 43.68L86.7231 45.525C86.4931 45.455 86.2831 45.405 86.0931 45.375C85.9131 45.335 85.6831 45.315 85.4031 45.315C84.9431 45.315 84.4881 45.45 84.0381 45.72C83.5981 45.99 83.2181 46.46 82.8981 47.13V51H80.6931V43.56ZM88.8623 48.93C88.8623 48.51 88.9523 48.145 89.1323 47.835C89.3123 47.515 89.5973 47.245 89.9873 47.025C90.3873 46.805 90.8973 46.63 91.5173 46.5C92.1373 46.36 92.8873 46.265 93.7673 46.215C93.7273 45.875 93.5773 45.61 93.3173 45.42C93.0673 45.23 92.6873 45.135 92.1773 45.135C91.8173 45.135 91.4523 45.2 91.0823 45.33C90.7223 45.45 90.3323 45.615 89.9123 45.825L89.1323 44.385C89.6423 44.095 90.1873 43.855 90.7673 43.665C91.3573 43.475 91.9723 43.38 92.6123 43.38C93.6523 43.38 94.4723 43.655 95.0723 44.205C95.6723 44.755 95.9723 45.6 95.9723 46.74V51H94.1723L94.0073 50.16H93.9473C93.5673 50.45 93.1523 50.695 92.7023 50.895C92.2523 51.085 91.7873 51.18 91.3073 51.18C90.9273 51.18 90.5873 51.12 90.2873 51C89.9873 50.89 89.7323 50.735 89.5223 50.535C89.3123 50.325 89.1473 50.085 89.0273 49.815C88.9173 49.545 88.8623 49.25 88.8623 48.93ZM90.9773 48.765C90.9773 49.005 91.0673 49.185 91.2473 49.305C91.4373 49.415 91.6923 49.47 92.0123 49.47C92.3423 49.47 92.6523 49.405 92.9423 49.275C93.2323 49.135 93.5073 48.965 93.7673 48.765V47.535C93.2173 47.565 92.7623 47.615 92.4023 47.685C92.0423 47.755 91.7573 47.845 91.5473 47.955C91.3373 48.055 91.1873 48.175 91.0973 48.315C91.0173 48.455 90.9773 48.605 90.9773 48.765ZM99.5514 45.285H97.6764V43.65L99.6564 43.56L99.9414 41.58H101.756V43.56H104.906V45.285H101.756V47.895C101.756 48.465 101.881 48.87 102.131 49.11C102.381 49.34 102.776 49.455 103.316 49.455C103.606 49.455 103.871 49.43 104.111 49.38C104.351 49.33 104.581 49.265 104.801 49.185L105.191 50.775C104.861 50.875 104.491 50.965 104.081 51.045C103.681 51.135 103.241 51.18 102.761 51.18C102.171 51.18 101.671 51.1 101.261 50.94C100.851 50.78 100.516 50.56 100.256 50.28C100.006 49.99 99.8264 49.645 99.7164 49.245C99.6064 48.845 99.5514 48.4 99.5514 47.91V45.285ZM107.121 43.56H112.311V51H110.106V45.285H107.121V43.56ZM111.111 42.465C110.681 42.465 110.326 42.345 110.046 42.105C109.776 41.865 109.641 41.54 109.641 41.13C109.641 40.72 109.776 40.39 110.046 40.14C110.326 39.88 110.681 39.75 111.111 39.75C111.541 39.75 111.891 39.88 112.161 40.14C112.441 40.39 112.581 40.72 112.581 41.13C112.581 41.54 112.441 41.865 112.161 42.105C111.891 42.345 111.541 42.465 111.111 42.465ZM116.01 43.56H117.81L117.975 44.55H118.035C118.355 44.23 118.72 43.955 119.13 43.725C119.55 43.495 120.04 43.38 120.6 43.38C121.44 43.38 122.055 43.65 122.445 44.19C122.835 44.73 123.03 45.47 123.03 46.41V51H120.825V46.695C120.825 46.195 120.745 45.83 120.585 45.6C120.425 45.37 120.14 45.255 119.73 45.255C119.43 45.255 119.165 45.32 118.935 45.45C118.715 45.58 118.475 45.775 118.215 46.035V51H116.01V43.56ZM126.504 51.93C126.504 52.21 126.669 52.42 126.999 52.56C127.339 52.71 127.804 52.785 128.394 52.785C128.994 52.785 129.479 52.695 129.849 52.515C130.219 52.345 130.404 52.13 130.404 51.87C130.404 51.63 130.294 51.47 130.074 51.39C129.854 51.32 129.529 51.285 129.099 51.285H128.169C127.899 51.285 127.674 51.275 127.494 51.255C127.324 51.245 127.169 51.225 127.029 51.195C126.839 51.315 126.704 51.43 126.624 51.54C126.544 51.66 126.504 51.79 126.504 51.93ZM124.704 52.26C124.704 51.65 125.089 51.155 125.859 50.775V50.715C125.659 50.585 125.484 50.42 125.334 50.22C125.184 50.02 125.109 49.76 125.109 49.44C125.109 49.19 125.189 48.94 125.349 48.69C125.519 48.44 125.734 48.225 125.994 48.045V47.985C125.724 47.805 125.494 47.555 125.304 47.235C125.114 46.905 125.019 46.52 125.019 46.08C125.019 45.63 125.104 45.24 125.274 44.91C125.454 44.57 125.689 44.29 125.979 44.07C126.269 43.84 126.604 43.67 126.984 43.56C127.374 43.44 127.779 43.38 128.199 43.38C128.659 43.38 129.069 43.44 129.429 43.56H132.444V45.165H130.929C131.019 45.275 131.099 45.42 131.169 45.6C131.239 45.77 131.274 45.955 131.274 46.155C131.274 46.585 131.194 46.955 131.034 47.265C130.874 47.575 130.654 47.835 130.374 48.045C130.104 48.245 129.779 48.395 129.399 48.495C129.029 48.595 128.629 48.645 128.199 48.645C127.879 48.645 127.539 48.595 127.179 48.495C127.069 48.575 126.984 48.655 126.924 48.735C126.874 48.815 126.849 48.915 126.849 49.035C126.849 49.235 126.949 49.38 127.149 49.47C127.349 49.56 127.669 49.605 128.109 49.605H129.489C130.469 49.605 131.214 49.75 131.724 50.04C132.244 50.33 132.504 50.81 132.504 51.48C132.504 51.87 132.399 52.23 132.189 52.56C131.979 52.89 131.684 53.17 131.304 53.4C130.924 53.64 130.459 53.825 129.909 53.955C129.359 54.095 128.749 54.165 128.079 54.165C127.599 54.165 127.149 54.125 126.729 54.045C126.319 53.975 125.964 53.86 125.664 53.7C125.364 53.55 125.129 53.355 124.959 53.115C124.789 52.875 124.704 52.59 124.704 52.26ZM128.199 47.31C128.509 47.31 128.774 47.21 128.994 47.01C129.224 46.8 129.339 46.49 129.339 46.08C129.339 45.68 129.224 45.38 128.994 45.18C128.774 44.97 128.509 44.865 128.199 44.865C127.889 44.865 127.624 44.97 127.404 45.18C127.194 45.38 127.089 45.68 127.089 46.08C127.089 46.49 127.194 46.8 127.404 47.01C127.624 47.21 127.889 47.31 128.199 47.31ZM134.703 48.66C135.133 48.93 135.563 49.145 135.993 49.305C136.433 49.465 136.903 49.545 137.403 49.545C137.913 49.545 138.278 49.49 138.498 49.38C138.718 49.27 138.828 49.115 138.828 48.915C138.828 48.685 138.643 48.5 138.273 48.36C137.913 48.21 137.433 48.05 136.833 47.88C136.503 47.79 136.178 47.685 135.858 47.565C135.548 47.435 135.268 47.285 135.018 47.115C134.768 46.935 134.563 46.73 134.403 46.5C134.253 46.27 134.178 46.005 134.178 45.705C134.178 45.365 134.258 45.05 134.418 44.76C134.578 44.47 134.803 44.225 135.093 44.025C135.393 43.825 135.753 43.67 136.173 43.56C136.603 43.44 137.083 43.38 137.613 43.38C138.273 43.38 138.873 43.49 139.413 43.71C139.963 43.92 140.433 44.15 140.823 44.4L139.833 45.72C139.493 45.52 139.143 45.355 138.783 45.225C138.423 45.085 138.048 45.015 137.658 45.015C137.188 45.015 136.853 45.065 136.653 45.165C136.463 45.265 136.368 45.41 136.368 45.6C136.368 45.71 136.418 45.81 136.518 45.9C136.618 45.99 136.753 46.07 136.923 46.14C137.093 46.21 137.293 46.28 137.523 46.35C137.763 46.41 138.013 46.475 138.273 46.545C138.643 46.645 138.993 46.76 139.323 46.89C139.653 47.01 139.943 47.155 140.193 47.325C140.443 47.495 140.643 47.7 140.793 47.94C140.943 48.18 141.018 48.46 141.018 48.78C141.018 49.12 140.938 49.435 140.778 49.725C140.618 50.015 140.383 50.27 140.073 50.49C139.773 50.7 139.393 50.87 138.933 51C138.483 51.12 137.958 51.18 137.358 51.18C136.688 51.18 136.033 51.07 135.393 50.85C134.753 50.63 134.193 50.36 133.713 50.04L134.703 48.66ZM151.956 43.53H158.856V45.09H151.956V43.53ZM151.956 46.995H158.856V48.555H151.956V46.995ZM171.91 40.38H176.335V41.55H173.59V52.11H176.335V53.28H171.91V40.38ZM182.194 52.11V41.55H179.464V40.38H183.889V53.28H179.464V52.11H182.194ZM44.7166 62.56H46.5166L46.6966 64.18H46.7416C47.1116 63.57 47.5566 63.12 48.0766 62.83C48.5966 62.53 49.1566 62.38 49.7566 62.38C50.0866 62.38 50.3516 62.405 50.5516 62.455C50.7616 62.505 50.9766 62.58 51.1966 62.68L50.7466 64.525C50.5166 64.455 50.3066 64.405 50.1166 64.375C49.9366 64.335 49.7066 64.315 49.4266 64.315C48.9666 64.315 48.5116 64.45 48.0616 64.72C47.6216 64.99 47.2416 65.46 46.9216 66.13V70H44.7166V62.56ZM52.6757 66.28C52.6757 65.66 52.7807 65.11 52.9907 64.63C53.2007 64.14 53.4807 63.73 53.8307 63.4C54.1907 63.07 54.5957 62.82 55.0457 62.65C55.5057 62.47 55.9807 62.38 56.4707 62.38C56.9607 62.38 57.4307 62.47 57.8807 62.65C58.3407 62.82 58.7457 63.07 59.0957 63.4C59.4557 63.73 59.7407 64.14 59.9507 64.63C60.1607 65.11 60.2657 65.66 60.2657 66.28C60.2657 66.9 60.1607 67.455 59.9507 67.945C59.7407 68.425 59.4557 68.83 59.0957 69.16C58.7457 69.49 58.3407 69.745 57.8807 69.925C57.4307 70.095 56.9607 70.18 56.4707 70.18C55.9807 70.18 55.5057 70.095 55.0457 69.925C54.5957 69.745 54.1907 69.49 53.8307 69.16C53.4807 68.83 53.2007 68.425 52.9907 67.945C52.7807 67.455 52.6757 66.9 52.6757 66.28ZM54.9407 66.28C54.9407 66.93 55.0657 67.445 55.3157 67.825C55.5757 68.205 55.9607 68.395 56.4707 68.395C56.9807 68.395 57.3607 68.205 57.6107 67.825C57.8707 67.445 58.0007 66.93 58.0007 66.28C58.0007 65.63 57.8707 65.115 57.6107 64.735C57.3607 64.355 56.9807 64.165 56.4707 64.165C55.9607 64.165 55.5757 64.355 55.3157 64.735C55.0657 65.115 54.9407 65.63 54.9407 66.28ZM61.0248 62.56H63.1848L63.6348 66.01C63.6848 66.38 63.7248 66.745 63.7548 67.105C63.7948 67.465 63.8398 67.835 63.8898 68.215H63.9348C63.9848 67.835 64.0348 67.46 64.0848 67.09C64.1348 66.72 64.1998 66.36 64.2798 66.01L64.7448 63.55H66.2898L66.7848 66.01C66.8548 66.38 66.9198 66.745 66.9798 67.105C67.0398 67.465 67.0948 67.835 67.1448 68.215H67.2048C67.2548 67.835 67.2948 67.465 67.3248 67.105C67.3548 66.745 67.3948 66.38 67.4448 66.01L67.8948 62.56H69.9048L68.7498 70H66.1998L65.7798 67.525C65.7298 67.175 65.6798 66.825 65.6298 66.475C65.5898 66.115 65.5448 65.735 65.4948 65.335H65.4348C65.4048 65.605 65.3698 65.91 65.3298 66.25C65.2998 66.59 65.2448 67.015 65.1648 67.525L64.7598 70H62.2548L61.0248 62.56ZM106.851 67.93C106.851 67.51 106.941 67.145 107.121 66.835C107.301 66.515 107.586 66.245 107.976 66.025C108.376 65.805 108.886 65.63 109.506 65.5C110.126 65.36 110.876 65.265 111.756 65.215C111.716 64.875 111.566 64.61 111.306 64.42C111.056 64.23 110.676 64.135 110.166 64.135C109.806 64.135 109.441 64.2 109.071 64.33C108.711 64.45 108.321 64.615 107.901 64.825L107.121 63.385C107.631 63.095 108.176 62.855 108.756 62.665C109.346 62.475 109.961 62.38 110.601 62.38C111.641 62.38 112.461 62.655 113.061 63.205C113.661 63.755 113.961 64.6 113.961 65.74V70H112.161L111.996 69.16H111.936C111.556 69.45 111.141 69.695 110.691 69.895C110.241 70.085 109.776 70.18 109.296 70.18C108.916 70.18 108.576 70.12 108.276 70C107.976 69.89 107.721 69.735 107.511 69.535C107.301 69.325 107.136 69.085 107.016 68.815C106.906 68.545 106.851 68.25 106.851 67.93ZM108.966 67.765C108.966 68.005 109.056 68.185 109.236 68.305C109.426 68.415 109.681 68.47 110.001 68.47C110.331 68.47 110.641 68.405 110.931 68.275C111.221 68.135 111.496 67.965 111.756 67.765V66.535C111.206 66.565 110.751 66.615 110.391 66.685C110.031 66.755 109.746 66.845 109.536 66.955C109.326 67.055 109.176 67.175 109.086 67.315C109.006 67.455 108.966 67.605 108.966 67.765ZM118.215 70.585V72.76H116.01V62.56H117.81L117.975 63.31H118.02C118.32 63.04 118.665 62.82 119.055 62.65C119.445 62.47 119.84 62.38 120.24 62.38C120.7 62.38 121.115 62.47 121.485 62.65C121.855 62.83 122.17 63.085 122.43 63.415C122.69 63.745 122.885 64.145 123.015 64.615C123.155 65.075 123.225 65.59 123.225 66.16C123.225 66.8 123.135 67.37 122.955 67.87C122.775 68.36 122.535 68.78 122.235 69.13C121.935 69.47 121.59 69.73 121.2 69.91C120.82 70.09 120.42 70.18 120 70.18C119.32 70.18 118.7 69.91 118.14 69.37L118.215 70.585ZM118.215 67.885C118.425 68.065 118.64 68.195 118.86 68.275C119.09 68.345 119.3 68.38 119.49 68.38C119.91 68.38 120.26 68.21 120.54 67.87C120.82 67.52 120.96 66.96 120.96 66.19C120.96 64.85 120.505 64.18 119.595 64.18C119.125 64.18 118.665 64.41 118.215 64.87V67.885ZM127.209 70.585V72.76H125.004V62.56H126.804L126.969 63.31H127.014C127.314 63.04 127.659 62.82 128.049 62.65C128.439 62.47 128.834 62.38 129.234 62.38C129.694 62.38 130.109 62.47 130.479 62.65C130.849 62.83 131.164 63.085 131.424 63.415C131.684 63.745 131.879 64.145 132.009 64.615C132.149 65.075 132.219 65.59 132.219 66.16C132.219 66.8 132.129 67.37 131.949 67.87C131.769 68.36 131.529 68.78 131.229 69.13C130.929 69.47 130.584 69.73 130.194 69.91C129.814 70.09 129.414 70.18 128.994 70.18C128.314 70.18 127.694 69.91 127.134 69.37L127.209 70.585ZM127.209 67.885C127.419 68.065 127.634 68.195 127.854 68.275C128.084 68.345 128.294 68.38 128.484 68.38C128.904 68.38 129.254 68.21 129.534 67.87C129.814 67.52 129.954 66.96 129.954 66.19C129.954 64.85 129.499 64.18 128.589 64.18C128.119 64.18 127.659 64.41 127.209 64.87V67.885ZM134.703 67.66C135.133 67.93 135.563 68.145 135.993 68.305C136.433 68.465 136.903 68.545 137.403 68.545C137.913 68.545 138.278 68.49 138.498 68.38C138.718 68.27 138.828 68.115 138.828 67.915C138.828 67.685 138.643 67.5 138.273 67.36C137.913 67.21 137.433 67.05 136.833 66.88C136.503 66.79 136.178 66.685 135.858 66.565C135.548 66.435 135.268 66.285 135.018 66.115C134.768 65.935 134.563 65.73 134.403 65.5C134.253 65.27 134.178 65.005 134.178 64.705C134.178 64.365 134.258 64.05 134.418 63.76C134.578 63.47 134.803 63.225 135.093 63.025C135.393 62.825 135.753 62.67 136.173 62.56C136.603 62.44 137.083 62.38 137.613 62.38C138.273 62.38 138.873 62.49 139.413 62.71C139.963 62.92 140.433 63.15 140.823 63.4L139.833 64.72C139.493 64.52 139.143 64.355 138.783 64.225C138.423 64.085 138.048 64.015 137.658 64.015C137.188 64.015 136.853 64.065 136.653 64.165C136.463 64.265 136.368 64.41 136.368 64.6C136.368 64.71 136.418 64.81 136.518 64.9C136.618 64.99 136.753 65.07 136.923 65.14C137.093 65.21 137.293 65.28 137.523 65.35C137.763 65.41 138.013 65.475 138.273 65.545C138.643 65.645 138.993 65.76 139.323 65.89C139.653 66.01 139.943 66.155 140.193 66.325C140.443 66.495 140.643 66.7 140.793 66.94C140.943 67.18 141.018 67.46 141.018 67.78C141.018 68.12 140.938 68.435 140.778 68.725C140.618 69.015 140.383 69.27 140.073 69.49C139.773 69.7 139.393 69.87 138.933 70C138.483 70.12 137.958 70.18 137.358 70.18C136.688 70.18 136.033 70.07 135.393 69.85C134.753 69.63 134.193 69.36 133.713 69.04L134.703 67.66ZM150.012 70.81V72.46H142.812V70.81H150.012ZM151.611 66.28C151.611 65.67 151.701 65.125 151.881 64.645C152.061 64.165 152.296 63.76 152.586 63.43C152.886 63.09 153.226 62.83 153.606 62.65C153.986 62.47 154.381 62.38 154.791 62.38C155.221 62.38 155.581 62.455 155.871 62.605C156.161 62.745 156.436 62.935 156.696 63.175L156.621 62.02V59.485H158.826V70H157.026L156.861 69.235H156.816C156.536 69.505 156.216 69.73 155.856 69.91C155.496 70.09 155.126 70.18 154.746 70.18C154.276 70.18 153.846 70.09 153.456 69.91C153.076 69.73 152.746 69.475 152.466 69.145C152.196 68.805 151.986 68.395 151.836 67.915C151.686 67.435 151.611 66.89 151.611 66.28ZM153.876 66.25C153.876 66.99 154.001 67.53 154.251 67.87C154.501 68.21 154.856 68.38 155.316 68.38C155.566 68.38 155.796 68.33 156.006 68.23C156.216 68.12 156.421 67.94 156.621 67.69V64.675C156.421 64.495 156.216 64.37 156.006 64.3C155.806 64.22 155.596 64.18 155.376 64.18C154.966 64.18 154.611 64.35 154.311 64.69C154.021 65.03 153.876 65.55 153.876 66.25ZM160.815 67.93C160.815 67.51 160.905 67.145 161.085 66.835C161.265 66.515 161.55 66.245 161.94 66.025C162.34 65.805 162.85 65.63 163.47 65.5C164.09 65.36 164.84 65.265 165.72 65.215C165.68 64.875 165.53 64.61 165.27 64.42C165.02 64.23 164.64 64.135 164.13 64.135C163.77 64.135 163.405 64.2 163.035 64.33C162.675 64.45 162.285 64.615 161.865 64.825L161.085 63.385C161.595 63.095 162.14 62.855 162.72 62.665C163.31 62.475 163.925 62.38 164.565 62.38C165.605 62.38 166.425 62.655 167.025 63.205C167.625 63.755 167.925 64.6 167.925 65.74V70H166.125L165.96 69.16H165.9C165.52 69.45 165.105 69.695 164.655 69.895C164.205 70.085 163.74 70.18 163.26 70.18C162.88 70.18 162.54 70.12 162.24 70C161.94 69.89 161.685 69.735 161.475 69.535C161.265 69.325 161.1 69.085 160.98 68.815C160.87 68.545 160.815 68.25 160.815 67.93ZM162.93 67.765C162.93 68.005 163.02 68.185 163.2 68.305C163.39 68.415 163.645 68.47 163.965 68.47C164.295 68.47 164.605 68.405 164.895 68.275C165.185 68.135 165.46 67.965 165.72 67.765V66.535C165.17 66.565 164.715 66.615 164.355 66.685C163.995 66.755 163.71 66.845 163.5 66.955C163.29 67.055 163.14 67.175 163.05 67.315C162.97 67.455 162.93 67.605 162.93 67.765ZM171.505 64.285H169.63V62.65L171.61 62.56L171.895 60.58H173.71V62.56H176.86V64.285H173.71V66.895C173.71 67.465 173.835 67.87 174.085 68.11C174.335 68.34 174.73 68.455 175.27 68.455C175.56 68.455 175.825 68.43 176.065 68.38C176.305 68.33 176.535 68.265 176.755 68.185L177.145 69.775C176.815 69.875 176.445 69.965 176.035 70.045C175.635 70.135 175.195 70.18 174.715 70.18C174.125 70.18 173.625 70.1 173.215 69.94C172.805 69.78 172.47 69.56 172.21 69.28C171.96 68.99 171.78 68.645 171.67 68.245C171.56 67.845 171.505 67.4 171.505 66.91V64.285ZM178.804 67.93C178.804 67.51 178.894 67.145 179.074 66.835C179.254 66.515 179.539 66.245 179.929 66.025C180.329 65.805 180.839 65.63 181.459 65.5C182.079 65.36 182.829 65.265 183.709 65.215C183.669 64.875 183.519 64.61 183.259 64.42C183.009 64.23 182.629 64.135 182.119 64.135C181.759 64.135 181.394 64.2 181.024 64.33C180.664 64.45 180.274 64.615 179.854 64.825L179.074 63.385C179.584 63.095 180.129 62.855 180.709 62.665C181.299 62.475 181.914 62.38 182.554 62.38C183.594 62.38 184.414 62.655 185.014 63.205C185.614 63.755 185.914 64.6 185.914 65.74V70H184.114L183.949 69.16H183.889C183.509 69.45 183.094 69.695 182.644 69.895C182.194 70.085 181.729 70.18 181.249 70.18C180.869 70.18 180.529 70.12 180.229 70C179.929 69.89 179.674 69.735 179.464 69.535C179.254 69.325 179.089 69.085 178.969 68.815C178.859 68.545 178.804 68.25 178.804 67.93ZM180.919 67.765C180.919 68.005 181.009 68.185 181.189 68.305C181.379 68.415 181.634 68.47 181.954 68.47C182.284 68.47 182.594 68.405 182.884 68.275C183.174 68.135 183.449 67.965 183.709 67.765V66.535C183.159 66.565 182.704 66.615 182.344 66.685C181.984 66.755 181.699 66.845 181.489 66.955C181.279 67.055 181.129 67.175 181.039 67.315C180.959 67.455 180.919 67.605 180.919 67.765ZM189.898 59.38H194.323V60.55H191.578V71.11H194.323V72.28H189.898V59.38ZM207.631 63.58C207.631 63.33 207.671 63.1 207.751 62.89C207.841 62.67 207.961 62.48 208.111 62.32C208.261 62.16 208.441 62.035 208.651 61.945C208.871 61.855 209.111 61.81 209.371 61.81C209.631 61.81 209.866 61.855 210.076 61.945C210.296 62.035 210.481 62.16 210.631 62.32C210.781 62.48 210.896 62.67 210.976 62.89C211.066 63.1 211.111 63.33 211.111 63.58C211.111 64.08 210.951 64.5 210.631 64.84C210.311 65.17 209.891 65.335 209.371 65.335C208.851 65.335 208.431 65.17 208.111 64.84C207.791 64.5 207.631 64.08 207.631 63.58ZM207.631 68.425C207.631 68.175 207.671 67.945 207.751 67.735C207.841 67.515 207.961 67.325 208.111 67.165C208.261 67.005 208.441 66.88 208.651 66.79C208.871 66.7 209.111 66.655 209.371 66.655C209.631 66.655 209.866 66.7 210.076 66.79C210.296 66.88 210.481 67.005 210.631 67.165C210.781 67.325 210.896 67.515 210.976 67.735C211.066 67.945 211.111 68.175 211.111 68.425C211.111 68.925 210.951 69.345 210.631 69.685C210.311 70.015 209.891 70.18 209.371 70.18C208.851 70.18 208.431 70.015 208.111 69.685C207.791 69.345 207.631 68.925 207.631 68.425ZM218.17 71.11V60.55H215.44V59.38H219.865V72.28H215.44V71.11H218.17ZM225.619 63.58C225.619 63.33 225.659 63.1 225.739 62.89C225.829 62.67 225.949 62.48 226.099 62.32C226.249 62.16 226.429 62.035 226.639 61.945C226.859 61.855 227.099 61.81 227.359 61.81C227.619 61.81 227.854 61.855 228.064 61.945C228.284 62.035 228.469 62.16 228.619 62.32C228.769 62.48 228.884 62.67 228.964 62.89C229.054 63.1 229.099 63.33 229.099 63.58C229.099 64.08 228.939 64.5 228.619 64.84C228.299 65.17 227.879 65.335 227.359 65.335C226.839 65.335 226.419 65.17 226.099 64.84C225.779 64.5 225.619 64.08 225.619 63.58ZM225.619 68.425C225.619 68.175 225.659 67.945 225.739 67.735C225.829 67.515 225.949 67.325 226.099 67.165C226.249 67.005 226.429 66.88 226.639 66.79C226.859 66.7 227.099 66.655 227.359 66.655C227.619 66.655 227.854 66.7 228.064 66.79C228.284 66.88 228.469 67.005 228.619 67.165C228.769 67.325 228.884 67.515 228.964 67.735C229.054 67.945 229.099 68.175 229.099 68.425C229.099 68.925 228.939 69.345 228.619 69.685C228.299 70.015 227.879 70.18 227.359 70.18C226.839 70.18 226.419 70.015 226.099 69.685C225.779 69.345 225.619 68.925 225.619 68.425ZM43.9816 84.28C43.9816 83.66 44.0966 83.11 44.3266 82.63C44.5666 82.14 44.8816 81.73 45.2716 81.4C45.6716 81.07 46.1316 80.82 46.6516 80.65C47.1716 80.47 47.7166 80.38 48.2866 80.38C48.8766 80.38 49.4066 80.475 49.8766 80.665C50.3566 80.855 50.7566 81.095 51.0766 81.385L50.0566 82.75C49.5066 82.36 48.9566 82.165 48.4066 82.165C47.7666 82.165 47.2466 82.355 46.8466 82.735C46.4466 83.115 46.2466 83.63 46.2466 84.28C46.2466 84.93 46.4366 85.445 46.8166 85.825C47.2066 86.205 47.7116 86.395 48.3316 86.395C48.7216 86.395 49.0816 86.325 49.4116 86.185C49.7416 86.045 50.0366 85.88 50.2966 85.69L51.1966 87.085C50.7466 87.465 50.2466 87.745 49.6966 87.925C49.1566 88.095 48.6316 88.18 48.1216 88.18C47.5316 88.18 46.9866 88.095 46.4866 87.925C45.9866 87.745 45.5466 87.49 45.1666 87.16C44.7966 86.83 44.5066 86.425 44.2966 85.945C44.0866 85.455 43.9816 84.9 43.9816 84.28ZM52.6757 84.28C52.6757 83.66 52.7807 83.11 52.9907 82.63C53.2007 82.14 53.4807 81.73 53.8307 81.4C54.1907 81.07 54.5957 80.82 55.0457 80.65C55.5057 80.47 55.9807 80.38 56.4707 80.38C56.9607 80.38 57.4307 80.47 57.8807 80.65C58.3407 80.82 58.7457 81.07 59.0957 81.4C59.4557 81.73 59.7407 82.14 59.9507 82.63C60.1607 83.11 60.2657 83.66 60.2657 84.28C60.2657 84.9 60.1607 85.455 59.9507 85.945C59.7407 86.425 59.4557 86.83 59.0957 87.16C58.7457 87.49 58.3407 87.745 57.8807 87.925C57.4307 88.095 56.9607 88.18 56.4707 88.18C55.9807 88.18 55.5057 88.095 55.0457 87.925C54.5957 87.745 54.1907 87.49 53.8307 87.16C53.4807 86.83 53.2007 86.425 52.9907 85.945C52.7807 85.455 52.6757 84.9 52.6757 84.28ZM54.9407 84.28C54.9407 84.93 55.0657 85.445 55.3157 85.825C55.5757 86.205 55.9607 86.395 56.4707 86.395C56.9807 86.395 57.3607 86.205 57.6107 85.825C57.8707 85.445 58.0007 84.93 58.0007 84.28C58.0007 83.63 57.8707 83.115 57.6107 82.735C57.3607 82.355 56.9807 82.165 56.4707 82.165C55.9607 82.165 55.5757 82.355 55.3157 82.735C55.0657 83.115 54.9407 83.63 54.9407 84.28ZM62.0448 80.56H63.8448L64.0098 81.55H64.0698C64.3898 81.23 64.7548 80.955 65.1648 80.725C65.5848 80.495 66.0748 80.38 66.6348 80.38C67.4748 80.38 68.0898 80.65 68.4798 81.19C68.8698 81.73 69.0648 82.47 69.0648 83.41V88H66.8598V83.695C66.8598 83.195 66.7798 82.83 66.6198 82.6C66.4598 82.37 66.1748 82.255 65.7648 82.255C65.4648 82.255 65.1998 82.32 64.9698 82.45C64.7498 82.58 64.5098 82.775 64.2498 83.035V88H62.0448V80.56ZM72.569 82.285H70.694V80.65L72.674 80.56L72.959 78.58H74.774V80.56H77.924V82.285H74.774V84.895C74.774 85.465 74.899 85.87 75.149 86.11C75.399 86.34 75.794 86.455 76.334 86.455C76.624 86.455 76.889 86.43 77.129 86.38C77.369 86.33 77.599 86.265 77.819 86.185L78.209 87.775C77.879 87.875 77.509 87.965 77.099 88.045C76.699 88.135 76.259 88.18 75.779 88.18C75.189 88.18 74.689 88.1 74.279 87.94C73.869 87.78 73.534 87.56 73.274 87.28C73.024 86.99 72.844 86.645 72.734 86.245C72.624 85.845 72.569 85.4 72.569 84.91V82.285ZM79.7781 84.28C79.7781 83.67 79.8831 83.125 80.0931 82.645C80.3131 82.165 80.6031 81.76 80.9631 81.43C81.3231 81.09 81.7331 80.83 82.1931 80.65C82.6631 80.47 83.1481 80.38 83.6481 80.38C84.2181 80.38 84.7231 80.47 85.1631 80.65C85.6031 80.83 85.9681 81.08 86.2581 81.4C86.5481 81.72 86.7681 82.1 86.9181 82.54C87.0681 82.97 87.1431 83.44 87.1431 83.95C87.1431 84.15 87.1331 84.34 87.1131 84.52C87.0931 84.7 87.0731 84.835 87.0531 84.925H82.0431C82.1231 85.485 82.3631 85.89 82.7631 86.14C83.1731 86.38 83.6531 86.5 84.2031 86.5C84.5431 86.5 84.8631 86.46 85.1631 86.38C85.4731 86.29 85.7931 86.16 86.1231 85.99L86.8431 87.31C86.4231 87.58 85.9531 87.795 85.4331 87.955C84.9131 88.105 84.4031 88.18 83.9031 88.18C83.3231 88.18 82.7831 88.095 82.2831 87.925C81.7831 87.745 81.3481 87.49 80.9781 87.16C80.6081 86.82 80.3131 86.41 80.0931 85.93C79.8831 85.45 79.7781 84.9 79.7781 84.28ZM85.1481 83.47C85.1481 83.05 85.0331 82.71 84.8031 82.45C84.5731 82.19 84.2031 82.06 83.6931 82.06C83.2931 82.06 82.9381 82.175 82.6281 82.405C82.3181 82.635 82.1131 82.99 82.0131 83.47H85.1481ZM89.0273 80.56H90.8273L90.9923 81.55H91.0523C91.3723 81.23 91.7373 80.955 92.1473 80.725C92.5673 80.495 93.0573 80.38 93.6173 80.38C94.4573 80.38 95.0723 80.65 95.4623 81.19C95.8523 81.73 96.0473 82.47 96.0473 83.41V88H93.8423V83.695C93.8423 83.195 93.7623 82.83 93.6023 82.6C93.4423 82.37 93.1573 82.255 92.7473 82.255C92.4473 82.255 92.1823 82.32 91.9523 82.45C91.7323 82.58 91.4923 82.775 91.2323 83.035V88H89.0273V80.56ZM99.5514 82.285H97.6764V80.65L99.6564 80.56L99.9414 78.58H101.756V80.56H104.906V82.285H101.756V84.895C101.756 85.465 101.881 85.87 102.131 86.11C102.381 86.34 102.776 86.455 103.316 86.455C103.606 86.455 103.871 86.43 104.111 86.38C104.351 86.33 104.581 86.265 104.801 86.185L105.191 87.775C104.861 87.875 104.491 87.965 104.081 88.045C103.681 88.135 103.241 88.18 102.761 88.18C102.171 88.18 101.671 88.1 101.261 87.94C100.851 87.78 100.516 87.56 100.256 87.28C100.006 86.99 99.8264 86.645 99.7164 86.245C99.6064 85.845 99.5514 85.4 99.5514 84.91V82.285ZM114.036 88.81V90.46H106.836V88.81H114.036ZM116.67 80.56H118.47L118.65 82.18H118.695C119.065 81.57 119.51 81.12 120.03 80.83C120.55 80.53 121.11 80.38 121.71 80.38C122.04 80.38 122.305 80.405 122.505 80.455C122.715 80.505 122.93 80.58 123.15 80.68L122.7 82.525C122.47 82.455 122.26 82.405 122.07 82.375C121.89 82.335 121.66 82.315 121.38 82.315C120.92 82.315 120.465 82.45 120.015 82.72C119.575 82.99 119.195 83.46 118.875 84.13V88H116.67V80.56ZM124.839 85.93C124.839 85.51 124.929 85.145 125.109 84.835C125.289 84.515 125.574 84.245 125.964 84.025C126.364 83.805 126.874 83.63 127.494 83.5C128.114 83.36 128.864 83.265 129.744 83.215C129.704 82.875 129.554 82.61 129.294 82.42C129.044 82.23 128.664 82.135 128.154 82.135C127.794 82.135 127.429 82.2 127.059 82.33C126.699 82.45 126.309 82.615 125.889 82.825L125.109 81.385C125.619 81.095 126.164 80.855 126.744 80.665C127.334 80.475 127.949 80.38 128.589 80.38C129.629 80.38 130.449 80.655 131.049 81.205C131.649 81.755 131.949 82.6 131.949 83.74V88H130.149L129.984 87.16H129.924C129.544 87.45 129.129 87.695 128.679 87.895C128.229 88.085 127.764 88.18 127.284 88.18C126.904 88.18 126.564 88.12 126.264 88C125.964 87.89 125.709 87.735 125.499 87.535C125.289 87.325 125.124 87.085 125.004 86.815C124.894 86.545 124.839 86.25 124.839 85.93ZM126.954 85.765C126.954 86.005 127.044 86.185 127.224 86.305C127.414 86.415 127.669 86.47 127.989 86.47C128.319 86.47 128.629 86.405 128.919 86.275C129.209 86.135 129.484 85.965 129.744 85.765V84.535C129.194 84.565 128.739 84.615 128.379 84.685C128.019 84.755 127.734 84.845 127.524 84.955C127.314 85.055 127.164 85.175 127.074 85.315C126.994 85.455 126.954 85.605 126.954 85.765ZM135.528 82.285H133.653V80.65L135.633 80.56L135.918 78.58H137.733V80.56H140.883V82.285H137.733V84.895C137.733 85.465 137.858 85.87 138.108 86.11C138.358 86.34 138.753 86.455 139.293 86.455C139.583 86.455 139.848 86.43 140.088 86.38C140.328 86.33 140.558 86.265 140.778 86.185L141.168 87.775C140.838 87.875 140.468 87.965 140.058 88.045C139.658 88.135 139.218 88.18 138.738 88.18C138.148 88.18 137.648 88.1 137.238 87.94C136.828 87.78 136.493 87.56 136.233 87.28C135.983 86.99 135.803 86.645 135.693 86.245C135.583 85.845 135.528 85.4 135.528 84.91V82.285ZM143.097 80.56H148.287V88H146.082V82.285H143.097V80.56ZM147.087 79.465C146.657 79.465 146.302 79.345 146.022 79.105C145.752 78.865 145.617 78.54 145.617 78.13C145.617 77.72 145.752 77.39 146.022 77.14C146.302 76.88 146.657 76.75 147.087 76.75C147.517 76.75 147.867 76.88 148.137 77.14C148.417 77.39 148.557 77.72 148.557 78.13C148.557 78.54 148.417 78.865 148.137 79.105C147.867 79.345 147.517 79.465 147.087 79.465ZM151.986 80.56H153.786L153.951 81.55H154.011C154.331 81.23 154.696 80.955 155.106 80.725C155.526 80.495 156.016 80.38 156.576 80.38C157.416 80.38 158.031 80.65 158.421 81.19C158.811 81.73 159.006 82.47 159.006 83.41V88H156.801V83.695C156.801 83.195 156.721 82.83 156.561 82.6C156.401 82.37 156.116 82.255 155.706 82.255C155.406 82.255 155.141 82.32 154.911 82.45C154.691 82.58 154.451 82.775 154.191 83.035V88H151.986V80.56ZM162.48 88.93C162.48 89.21 162.645 89.42 162.975 89.56C163.315 89.71 163.78 89.785 164.37 89.785C164.97 89.785 165.455 89.695 165.825 89.515C166.195 89.345 166.38 89.13 166.38 88.87C166.38 88.63 166.27 88.47 166.05 88.39C165.83 88.32 165.505 88.285 165.075 88.285H164.145C163.875 88.285 163.65 88.275 163.47 88.255C163.3 88.245 163.145 88.225 163.005 88.195C162.815 88.315 162.68 88.43 162.6 88.54C162.52 88.66 162.48 88.79 162.48 88.93ZM160.68 89.26C160.68 88.65 161.065 88.155 161.835 87.775V87.715C161.635 87.585 161.46 87.42 161.31 87.22C161.16 87.02 161.085 86.76 161.085 86.44C161.085 86.19 161.165 85.94 161.325 85.69C161.495 85.44 161.71 85.225 161.97 85.045V84.985C161.7 84.805 161.47 84.555 161.28 84.235C161.09 83.905 160.995 83.52 160.995 83.08C160.995 82.63 161.08 82.24 161.25 81.91C161.43 81.57 161.665 81.29 161.955 81.07C162.245 80.84 162.58 80.67 162.96 80.56C163.35 80.44 163.755 80.38 164.175 80.38C164.635 80.38 165.045 80.44 165.405 80.56H168.42V82.165H166.905C166.995 82.275 167.075 82.42 167.145 82.6C167.215 82.77 167.25 82.955 167.25 83.155C167.25 83.585 167.17 83.955 167.01 84.265C166.85 84.575 166.63 84.835 166.35 85.045C166.08 85.245 165.755 85.395 165.375 85.495C165.005 85.595 164.605 85.645 164.175 85.645C163.855 85.645 163.515 85.595 163.155 85.495C163.045 85.575 162.96 85.655 162.9 85.735C162.85 85.815 162.825 85.915 162.825 86.035C162.825 86.235 162.925 86.38 163.125 86.47C163.325 86.56 163.645 86.605 164.085 86.605H165.465C166.445 86.605 167.19 86.75 167.7 87.04C168.22 87.33 168.48 87.81 168.48 88.48C168.48 88.87 168.375 89.23 168.165 89.56C167.955 89.89 167.66 90.17 167.28 90.4C166.9 90.64 166.435 90.825 165.885 90.955C165.335 91.095 164.725 91.165 164.055 91.165C163.575 91.165 163.125 91.125 162.705 91.045C162.295 90.975 161.94 90.86 161.64 90.7C161.34 90.55 161.105 90.355 160.935 90.115C160.765 89.875 160.68 89.59 160.68 89.26ZM164.175 84.31C164.485 84.31 164.75 84.21 164.97 84.01C165.2 83.8 165.315 83.49 165.315 83.08C165.315 82.68 165.2 82.38 164.97 82.18C164.75 81.97 164.485 81.865 164.175 81.865C163.865 81.865 163.6 81.97 163.38 82.18C163.17 82.38 163.065 82.68 163.065 83.08C163.065 83.49 163.17 83.8 163.38 84.01C163.6 84.21 163.865 84.31 164.175 84.31ZM178.939 80.53H185.839V82.09H178.939V80.53ZM178.939 83.995H185.839V85.555H178.939V83.995ZM197.617 80.56H199.417L199.597 82.18H199.642C200.012 81.57 200.457 81.12 200.977 80.83C201.497 80.53 202.057 80.38 202.657 80.38C202.987 80.38 203.252 80.405 203.452 80.455C203.662 80.505 203.877 80.58 204.097 80.68L203.647 82.525C203.417 82.455 203.207 82.405 203.017 82.375C202.837 82.335 202.607 82.315 202.327 82.315C201.867 82.315 201.412 82.45 200.962 82.72C200.522 82.99 200.142 83.46 199.822 84.13V88H197.617V80.56ZM205.576 84.28C205.576 83.66 205.681 83.11 205.891 82.63C206.101 82.14 206.381 81.73 206.731 81.4C207.091 81.07 207.496 80.82 207.946 80.65C208.406 80.47 208.881 80.38 209.371 80.38C209.861 80.38 210.331 80.47 210.781 80.65C211.241 80.82 211.646 81.07 211.996 81.4C212.356 81.73 212.641 82.14 212.851 82.63C213.061 83.11 213.166 83.66 213.166 84.28C213.166 84.9 213.061 85.455 212.851 85.945C212.641 86.425 212.356 86.83 211.996 87.16C211.646 87.49 211.241 87.745 210.781 87.925C210.331 88.095 209.861 88.18 209.371 88.18C208.881 88.18 208.406 88.095 207.946 87.925C207.496 87.745 207.091 87.49 206.731 87.16C206.381 86.83 206.101 86.425 205.891 85.945C205.681 85.455 205.576 84.9 205.576 84.28ZM207.841 84.28C207.841 84.93 207.966 85.445 208.216 85.825C208.476 86.205 208.861 86.395 209.371 86.395C209.881 86.395 210.261 86.205 210.511 85.825C210.771 85.445 210.901 84.93 210.901 84.28C210.901 83.63 210.771 83.115 210.511 82.735C210.261 82.355 209.881 82.165 209.371 82.165C208.861 82.165 208.476 82.355 208.216 82.735C207.966 83.115 207.841 83.63 207.841 84.28ZM213.925 80.56H216.085L216.535 84.01C216.585 84.38 216.625 84.745 216.655 85.105C216.695 85.465 216.74 85.835 216.79 86.215H216.835C216.885 85.835 216.935 85.46 216.985 85.09C217.035 84.72 217.1 84.36 217.18 84.01L217.645 81.55H219.19L219.685 84.01C219.755 84.38 219.82 84.745 219.88 85.105C219.94 85.465 219.995 85.835 220.045 86.215H220.105C220.155 85.835 220.195 85.465 220.225 85.105C220.255 84.745 220.295 84.38 220.345 84.01L220.795 80.56H222.805L221.65 88H219.1L218.68 85.525C218.63 85.175 218.58 84.825 218.53 84.475C218.49 84.115 218.445 83.735 218.395 83.335H218.335C218.305 83.605 218.27 83.91 218.23 84.25C218.2 84.59 218.145 85.015 218.065 85.525L217.66 88H215.155L213.925 80.56ZM225.874 77.38H230.299V78.55H227.554V89.11H230.299V90.28H225.874V77.38ZM254.147 89.11V78.55H251.417V77.38H255.842V90.28H251.417V89.11H254.147ZM43.9816 103.28C43.9816 102.66 44.0966 102.11 44.3266 101.63C44.5666 101.14 44.8816 100.73 45.2716 100.4C45.6716 100.07 46.1316 99.82 46.6516 99.65C47.1716 99.47 47.7166 99.38 48.2866 99.38C48.8766 99.38 49.4066 99.475 49.8766 99.665C50.3566 99.855 50.7566 100.095 51.0766 100.385L50.0566 101.75C49.5066 101.36 48.9566 101.165 48.4066 101.165C47.7666 101.165 47.2466 101.355 46.8466 101.735C46.4466 102.115 46.2466 102.63 46.2466 103.28C46.2466 103.93 46.4366 104.445 46.8166 104.825C47.2066 105.205 47.7116 105.395 48.3316 105.395C48.7216 105.395 49.0816 105.325 49.4116 105.185C49.7416 105.045 50.0366 104.88 50.2966 104.69L51.1966 106.085C50.7466 106.465 50.2466 106.745 49.6966 106.925C49.1566 107.095 48.6316 107.18 48.1216 107.18C47.5316 107.18 46.9866 107.095 46.4866 106.925C45.9866 106.745 45.5466 106.49 45.1666 106.16C44.7966 105.83 44.5066 105.425 44.2966 104.945C44.0866 104.455 43.9816 103.9 43.9816 103.28ZM52.6757 103.28C52.6757 102.66 52.7807 102.11 52.9907 101.63C53.2007 101.14 53.4807 100.73 53.8307 100.4C54.1907 100.07 54.5957 99.82 55.0457 99.65C55.5057 99.47 55.9807 99.38 56.4707 99.38C56.9607 99.38 57.4307 99.47 57.8807 99.65C58.3407 99.82 58.7457 100.07 59.0957 100.4C59.4557 100.73 59.7407 101.14 59.9507 101.63C60.1607 102.11 60.2657 102.66 60.2657 103.28C60.2657 103.9 60.1607 104.455 59.9507 104.945C59.7407 105.425 59.4557 105.83 59.0957 106.16C58.7457 106.49 58.3407 106.745 57.8807 106.925C57.4307 107.095 56.9607 107.18 56.4707 107.18C55.9807 107.18 55.5057 107.095 55.0457 106.925C54.5957 106.745 54.1907 106.49 53.8307 106.16C53.4807 105.83 53.2007 105.425 52.9907 104.945C52.7807 104.455 52.6757 103.9 52.6757 103.28ZM54.9407 103.28C54.9407 103.93 55.0657 104.445 55.3157 104.825C55.5757 105.205 55.9607 105.395 56.4707 105.395C56.9807 105.395 57.3607 105.205 57.6107 104.825C57.8707 104.445 58.0007 103.93 58.0007 103.28C58.0007 102.63 57.8707 102.115 57.6107 101.735C57.3607 101.355 56.9807 101.165 56.4707 101.165C55.9607 101.165 55.5757 101.355 55.3157 101.735C55.0657 102.115 54.9407 102.63 54.9407 103.28ZM62.0448 99.56H63.8448L64.0098 100.55H64.0698C64.3898 100.23 64.7548 99.955 65.1648 99.725C65.5848 99.495 66.0748 99.38 66.6348 99.38C67.4748 99.38 68.0898 99.65 68.4798 100.19C68.8698 100.73 69.0648 101.47 69.0648 102.41V107H66.8598V102.695C66.8598 102.195 66.7798 101.83 66.6198 101.6C66.4598 101.37 66.1748 101.255 65.7648 101.255C65.4648 101.255 65.1998 101.32 64.9698 101.45C64.7498 101.58 64.5098 101.775 64.2498 102.035V107H62.0448V99.56ZM72.569 101.285H70.694V99.65L72.674 99.56L72.959 97.58H74.774V99.56H77.924V101.285H74.774V103.895C74.774 104.465 74.899 104.87 75.149 105.11C75.399 105.34 75.794 105.455 76.334 105.455C76.624 105.455 76.889 105.43 77.129 105.38C77.369 105.33 77.599 105.265 77.819 105.185L78.209 106.775C77.879 106.875 77.509 106.965 77.099 107.045C76.699 107.135 76.259 107.18 75.779 107.18C75.189 107.18 74.689 107.1 74.279 106.94C73.869 106.78 73.534 106.56 73.274 106.28C73.024 105.99 72.844 105.645 72.734 105.245C72.624 104.845 72.569 104.4 72.569 103.91V101.285ZM79.7781 103.28C79.7781 102.67 79.8831 102.125 80.0931 101.645C80.3131 101.165 80.6031 100.76 80.9631 100.43C81.3231 100.09 81.7331 99.83 82.1931 99.65C82.6631 99.47 83.1481 99.38 83.6481 99.38C84.2181 99.38 84.7231 99.47 85.1631 99.65C85.6031 99.83 85.9681 100.08 86.2581 100.4C86.5481 100.72 86.7681 101.1 86.9181 101.54C87.0681 101.97 87.1431 102.44 87.1431 102.95C87.1431 103.15 87.1331 103.34 87.1131 103.52C87.0931 103.7 87.0731 103.835 87.0531 103.925H82.0431C82.1231 104.485 82.3631 104.89 82.7631 105.14C83.1731 105.38 83.6531 105.5 84.2031 105.5C84.5431 105.5 84.8631 105.46 85.1631 105.38C85.4731 105.29 85.7931 105.16 86.1231 104.99L86.8431 106.31C86.4231 106.58 85.9531 106.795 85.4331 106.955C84.9131 107.105 84.4031 107.18 83.9031 107.18C83.3231 107.18 82.7831 107.095 82.2831 106.925C81.7831 106.745 81.3481 106.49 80.9781 106.16C80.6081 105.82 80.3131 105.41 80.0931 104.93C79.8831 104.45 79.7781 103.9 79.7781 103.28ZM85.1481 102.47C85.1481 102.05 85.0331 101.71 84.8031 101.45C84.5731 101.19 84.2031 101.06 83.6931 101.06C83.2931 101.06 82.9381 101.175 82.6281 101.405C82.3181 101.635 82.1131 101.99 82.0131 102.47H85.1481ZM89.0273 99.56H90.8273L90.9923 100.55H91.0523C91.3723 100.23 91.7373 99.955 92.1473 99.725C92.5673 99.495 93.0573 99.38 93.6173 99.38C94.4573 99.38 95.0723 99.65 95.4623 100.19C95.8523 100.73 96.0473 101.47 96.0473 102.41V107H93.8423V102.695C93.8423 102.195 93.7623 101.83 93.6023 101.6C93.4423 101.37 93.1573 101.255 92.7473 101.255C92.4473 101.255 92.1823 101.32 91.9523 101.45C91.7323 101.58 91.4923 101.775 91.2323 102.035V107H89.0273V99.56ZM99.5514 101.285H97.6764V99.65L99.6564 99.56L99.9414 97.58H101.756V99.56H104.906V101.285H101.756V103.895C101.756 104.465 101.881 104.87 102.131 105.11C102.381 105.34 102.776 105.455 103.316 105.455C103.606 105.455 103.871 105.43 104.111 105.38C104.351 105.33 104.581 105.265 104.801 105.185L105.191 106.775C104.861 106.875 104.491 106.965 104.081 107.045C103.681 107.135 103.241 107.18 102.761 107.18C102.171 107.18 101.671 107.1 101.261 106.94C100.851 106.78 100.516 106.56 100.256 106.28C100.006 105.99 99.8264 105.645 99.7164 105.245C99.6064 104.845 99.5514 104.4 99.5514 103.91V101.285ZM114.036 107.81V109.46H106.836V107.81H114.036ZM116.67 99.56H118.47L118.65 101.18H118.695C119.065 100.57 119.51 100.12 120.03 99.83C120.55 99.53 121.11 99.38 121.71 99.38C122.04 99.38 122.305 99.405 122.505 99.455C122.715 99.505 122.93 99.58 123.15 99.68L122.7 101.525C122.47 101.455 122.26 101.405 122.07 101.375C121.89 101.335 121.66 101.315 121.38 101.315C120.92 101.315 120.465 101.45 120.015 101.72C119.575 101.99 119.195 102.46 118.875 103.13V107H116.67V99.56ZM124.839 104.93C124.839 104.51 124.929 104.145 125.109 103.835C125.289 103.515 125.574 103.245 125.964 103.025C126.364 102.805 126.874 102.63 127.494 102.5C128.114 102.36 128.864 102.265 129.744 102.215C129.704 101.875 129.554 101.61 129.294 101.42C129.044 101.23 128.664 101.135 128.154 101.135C127.794 101.135 127.429 101.2 127.059 101.33C126.699 101.45 126.309 101.615 125.889 101.825L125.109 100.385C125.619 100.095 126.164 99.855 126.744 99.665C127.334 99.475 127.949 99.38 128.589 99.38C129.629 99.38 130.449 99.655 131.049 100.205C131.649 100.755 131.949 101.6 131.949 102.74V107H130.149L129.984 106.16H129.924C129.544 106.45 129.129 106.695 128.679 106.895C128.229 107.085 127.764 107.18 127.284 107.18C126.904 107.18 126.564 107.12 126.264 107C125.964 106.89 125.709 106.735 125.499 106.535C125.289 106.325 125.124 106.085 125.004 105.815C124.894 105.545 124.839 105.25 124.839 104.93ZM126.954 104.765C126.954 105.005 127.044 105.185 127.224 105.305C127.414 105.415 127.669 105.47 127.989 105.47C128.319 105.47 128.629 105.405 128.919 105.275C129.209 105.135 129.484 104.965 129.744 104.765V103.535C129.194 103.565 128.739 103.615 128.379 103.685C128.019 103.755 127.734 103.845 127.524 103.955C127.314 104.055 127.164 104.175 127.074 104.315C126.994 104.455 126.954 104.605 126.954 104.765ZM135.528 101.285H133.653V99.65L135.633 99.56L135.918 97.58H137.733V99.56H140.883V101.285H137.733V103.895C137.733 104.465 137.858 104.87 138.108 105.11C138.358 105.34 138.753 105.455 139.293 105.455C139.583 105.455 139.848 105.43 140.088 105.38C140.328 105.33 140.558 105.265 140.778 105.185L141.168 106.775C140.838 106.875 140.468 106.965 140.058 107.045C139.658 107.135 139.218 107.18 138.738 107.18C138.148 107.18 137.648 107.1 137.238 106.94C136.828 106.78 136.493 106.56 136.233 106.28C135.983 105.99 135.803 105.645 135.693 105.245C135.583 104.845 135.528 104.4 135.528 103.91V101.285ZM143.097 99.56H148.287V107H146.082V101.285H143.097V99.56ZM147.087 98.465C146.657 98.465 146.302 98.345 146.022 98.105C145.752 97.865 145.617 97.54 145.617 97.13C145.617 96.72 145.752 96.39 146.022 96.14C146.302 95.88 146.657 95.75 147.087 95.75C147.517 95.75 147.867 95.88 148.137 96.14C148.417 96.39 148.557 96.72 148.557 97.13C148.557 97.54 148.417 97.865 148.137 98.105C147.867 98.345 147.517 98.465 147.087 98.465ZM151.986 99.56H153.786L153.951 100.55H154.011C154.331 100.23 154.696 99.955 155.106 99.725C155.526 99.495 156.016 99.38 156.576 99.38C157.416 99.38 158.031 99.65 158.421 100.19C158.811 100.73 159.006 101.47 159.006 102.41V107H156.801V102.695C156.801 102.195 156.721 101.83 156.561 101.6C156.401 101.37 156.116 101.255 155.706 101.255C155.406 101.255 155.141 101.32 154.911 101.45C154.691 101.58 154.451 101.775 154.191 102.035V107H151.986V99.56ZM162.48 107.93C162.48 108.21 162.645 108.42 162.975 108.56C163.315 108.71 163.78 108.785 164.37 108.785C164.97 108.785 165.455 108.695 165.825 108.515C166.195 108.345 166.38 108.13 166.38 107.87C166.38 107.63 166.27 107.47 166.05 107.39C165.83 107.32 165.505 107.285 165.075 107.285H164.145C163.875 107.285 163.65 107.275 163.47 107.255C163.3 107.245 163.145 107.225 163.005 107.195C162.815 107.315 162.68 107.43 162.6 107.54C162.52 107.66 162.48 107.79 162.48 107.93ZM160.68 108.26C160.68 107.65 161.065 107.155 161.835 106.775V106.715C161.635 106.585 161.46 106.42 161.31 106.22C161.16 106.02 161.085 105.76 161.085 105.44C161.085 105.19 161.165 104.94 161.325 104.69C161.495 104.44 161.71 104.225 161.97 104.045V103.985C161.7 103.805 161.47 103.555 161.28 103.235C161.09 102.905 160.995 102.52 160.995 102.08C160.995 101.63 161.08 101.24 161.25 100.91C161.43 100.57 161.665 100.29 161.955 100.07C162.245 99.84 162.58 99.67 162.96 99.56C163.35 99.44 163.755 99.38 164.175 99.38C164.635 99.38 165.045 99.44 165.405 99.56H168.42V101.165H166.905C166.995 101.275 167.075 101.42 167.145 101.6C167.215 101.77 167.25 101.955 167.25 102.155C167.25 102.585 167.17 102.955 167.01 103.265C166.85 103.575 166.63 103.835 166.35 104.045C166.08 104.245 165.755 104.395 165.375 104.495C165.005 104.595 164.605 104.645 164.175 104.645C163.855 104.645 163.515 104.595 163.155 104.495C163.045 104.575 162.96 104.655 162.9 104.735C162.85 104.815 162.825 104.915 162.825 105.035C162.825 105.235 162.925 105.38 163.125 105.47C163.325 105.56 163.645 105.605 164.085 105.605H165.465C166.445 105.605 167.19 105.75 167.7 106.04C168.22 106.33 168.48 106.81 168.48 107.48C168.48 107.87 168.375 108.23 168.165 108.56C167.955 108.89 167.66 109.17 167.28 109.4C166.9 109.64 166.435 109.825 165.885 109.955C165.335 110.095 164.725 110.165 164.055 110.165C163.575 110.165 163.125 110.125 162.705 110.045C162.295 109.975 161.94 109.86 161.64 109.7C161.34 109.55 161.105 109.355 160.935 109.115C160.765 108.875 160.68 108.59 160.68 108.26ZM164.175 103.31C164.485 103.31 164.75 103.21 164.97 103.01C165.2 102.8 165.315 102.49 165.315 102.08C165.315 101.68 165.2 101.38 164.97 101.18C164.75 100.97 164.485 100.865 164.175 100.865C163.865 100.865 163.6 100.97 163.38 101.18C163.17 101.38 163.065 101.68 163.065 102.08C163.065 102.49 163.17 102.8 163.38 103.01C163.6 103.21 163.865 103.31 164.175 103.31ZM170.68 104.66C171.11 104.93 171.54 105.145 171.97 105.305C172.41 105.465 172.88 105.545 173.38 105.545C173.89 105.545 174.255 105.49 174.475 105.38C174.695 105.27 174.805 105.115 174.805 104.915C174.805 104.685 174.62 104.5 174.25 104.36C173.89 104.21 173.41 104.05 172.81 103.88C172.48 103.79 172.155 103.685 171.835 103.565C171.525 103.435 171.245 103.285 170.995 103.115C170.745 102.935 170.54 102.73 170.38 102.5C170.23 102.27 170.155 102.005 170.155 101.705C170.155 101.365 170.235 101.05 170.395 100.76C170.555 100.47 170.78 100.225 171.07 100.025C171.37 99.825 171.73 99.67 172.15 99.56C172.58 99.44 173.06 99.38 173.59 99.38C174.25 99.38 174.85 99.49 175.39 99.71C175.94 99.92 176.41 100.15 176.8 100.4L175.81 101.72C175.47 101.52 175.12 101.355 174.76 101.225C174.4 101.085 174.025 101.015 173.635 101.015C173.165 101.015 172.83 101.065 172.63 101.165C172.44 101.265 172.345 101.41 172.345 101.6C172.345 101.71 172.395 101.81 172.495 101.9C172.595 101.99 172.73 102.07 172.9 102.14C173.07 102.21 173.27 102.28 173.5 102.35C173.74 102.41 173.99 102.475 174.25 102.545C174.62 102.645 174.97 102.76 175.3 102.89C175.63 103.01 175.92 103.155 176.17 103.325C176.42 103.495 176.62 103.7 176.77 103.94C176.92 104.18 176.995 104.46 176.995 104.78C176.995 105.12 176.915 105.435 176.755 105.725C176.595 106.015 176.36 106.27 176.05 106.49C175.75 106.7 175.37 106.87 174.91 107C174.46 107.12 173.935 107.18 173.335 107.18C172.665 107.18 172.01 107.07 171.37 106.85C170.73 106.63 170.17 106.36 169.69 106.04L170.68 104.66ZM180.649 105.425C180.649 105.175 180.689 104.945 180.769 104.735C180.859 104.515 180.979 104.325 181.129 104.165C181.279 104.005 181.459 103.88 181.669 103.79C181.889 103.7 182.129 103.655 182.389 103.655C182.649 103.655 182.884 103.7 183.094 103.79C183.314 103.88 183.499 104.005 183.649 104.165C183.799 104.325 183.914 104.515 183.994 104.735C184.084 104.945 184.129 105.175 184.129 105.425C184.129 105.925 183.969 106.345 183.649 106.685C183.329 107.015 182.909 107.18 182.389 107.18C181.869 107.18 181.449 107.015 181.129 106.685C180.809 106.345 180.649 105.925 180.649 105.425ZM187.798 104.93C187.798 104.51 187.888 104.145 188.068 103.835C188.248 103.515 188.533 103.245 188.923 103.025C189.323 102.805 189.833 102.63 190.453 102.5C191.073 102.36 191.823 102.265 192.703 102.215C192.663 101.875 192.513 101.61 192.253 101.42C192.003 101.23 191.623 101.135 191.113 101.135C190.753 101.135 190.388 101.2 190.018 101.33C189.658 101.45 189.268 101.615 188.848 101.825L188.068 100.385C188.578 100.095 189.123 99.855 189.703 99.665C190.293 99.475 190.908 99.38 191.548 99.38C192.588 99.38 193.408 99.655 194.008 100.205C194.608 100.755 194.908 101.6 194.908 102.74V107H193.108L192.943 106.16H192.883C192.503 106.45 192.088 106.695 191.638 106.895C191.188 107.085 190.723 107.18 190.243 107.18C189.863 107.18 189.523 107.12 189.223 107C188.923 106.89 188.668 106.735 188.458 106.535C188.248 106.325 188.083 106.085 187.963 105.815C187.853 105.545 187.798 105.25 187.798 104.93ZM189.913 104.765C189.913 105.005 190.003 105.185 190.183 105.305C190.373 105.415 190.628 105.47 190.948 105.47C191.278 105.47 191.588 105.405 191.878 105.275C192.168 105.135 192.443 104.965 192.703 104.765V103.535C192.153 103.565 191.698 103.615 191.338 103.685C190.978 103.755 190.693 103.845 190.483 103.955C190.273 104.055 190.123 104.175 190.033 104.315C189.953 104.455 189.913 104.605 189.913 104.765ZM199.162 107.585V109.76H196.957V99.56H198.757L198.922 100.31H198.967C199.267 100.04 199.612 99.82 200.002 99.65C200.392 99.47 200.787 99.38 201.187 99.38C201.647 99.38 202.062 99.47 202.432 99.65C202.802 99.83 203.117 100.085 203.377 100.415C203.637 100.745 203.832 101.145 203.962 101.615C204.102 102.075 204.172 102.59 204.172 103.16C204.172 103.8 204.082 104.37 203.902 104.87C203.722 105.36 203.482 105.78 203.182 106.13C202.882 106.47 202.537 106.73 202.147 106.91C201.767 107.09 201.367 107.18 200.947 107.18C200.267 107.18 199.647 106.91 199.087 106.37L199.162 107.585ZM199.162 104.885C199.372 105.065 199.587 105.195 199.807 105.275C200.037 105.345 200.247 105.38 200.437 105.38C200.857 105.38 201.207 105.21 201.487 104.87C201.767 104.52 201.907 103.96 201.907 103.19C201.907 101.85 201.452 101.18 200.542 101.18C200.072 101.18 199.612 101.41 199.162 101.87V104.885ZM208.156 107.585V109.76H205.951V99.56H207.751L207.916 100.31H207.961C208.261 100.04 208.606 99.82 208.996 99.65C209.386 99.47 209.781 99.38 210.181 99.38C210.641 99.38 211.056 99.47 211.426 99.65C211.796 99.83 212.111 100.085 212.371 100.415C212.631 100.745 212.826 101.145 212.956 101.615C213.096 102.075 213.166 102.59 213.166 103.16C213.166 103.8 213.076 104.37 212.896 104.87C212.716 105.36 212.476 105.78 212.176 106.13C211.876 106.47 211.531 106.73 211.141 106.91C210.761 107.09 210.361 107.18 209.941 107.18C209.261 107.18 208.641 106.91 208.081 106.37L208.156 107.585ZM208.156 104.885C208.366 105.065 208.581 105.195 208.801 105.275C209.031 105.345 209.241 105.38 209.431 105.38C209.851 105.38 210.201 105.21 210.481 104.87C210.761 104.52 210.901 103.96 210.901 103.19C210.901 101.85 210.446 101.18 209.536 101.18C209.066 101.18 208.606 101.41 208.156 101.87V104.885ZM214.69 103.28C214.69 102.67 214.795 102.125 215.005 101.645C215.225 101.165 215.515 100.76 215.875 100.43C216.235 100.09 216.645 99.83 217.105 99.65C217.575 99.47 218.06 99.38 218.56 99.38C219.13 99.38 219.635 99.47 220.075 99.65C220.515 99.83 220.88 100.08 221.17 100.4C221.46 100.72 221.68 101.1 221.83 101.54C221.98 101.97 222.055 102.44 222.055 102.95C222.055 103.15 222.045 103.34 222.025 103.52C222.005 103.7 221.985 103.835 221.965 103.925H216.955C217.035 104.485 217.275 104.89 217.675 105.14C218.085 105.38 218.565 105.5 219.115 105.5C219.455 105.5 219.775 105.46 220.075 105.38C220.385 105.29 220.705 105.16 221.035 104.99L221.755 106.31C221.335 106.58 220.865 106.795 220.345 106.955C219.825 107.105 219.315 107.18 218.815 107.18C218.235 107.18 217.695 107.095 217.195 106.925C216.695 106.745 216.26 106.49 215.89 106.16C215.52 105.82 215.225 105.41 215.005 104.93C214.795 104.45 214.69 103.9 214.69 103.28ZM220.06 102.47C220.06 102.05 219.945 101.71 219.715 101.45C219.485 101.19 219.115 101.06 218.605 101.06C218.205 101.06 217.85 101.175 217.54 101.405C217.23 101.635 217.025 101.99 216.925 102.47H220.06ZM223.939 99.56H225.739L225.904 100.55H225.964C226.284 100.23 226.649 99.955 227.059 99.725C227.479 99.495 227.969 99.38 228.529 99.38C229.369 99.38 229.984 99.65 230.374 100.19C230.764 100.73 230.959 101.47 230.959 102.41V107H228.754V102.695C228.754 102.195 228.674 101.83 228.514 101.6C228.354 101.37 228.069 101.255 227.659 101.255C227.359 101.255 227.094 101.32 226.864 101.45C226.644 101.58 226.404 101.775 226.144 102.035V107H223.939V99.56ZM232.559 103.28C232.559 102.67 232.649 102.125 232.829 101.645C233.009 101.165 233.244 100.76 233.534 100.43C233.834 100.09 234.174 99.83 234.554 99.65C234.934 99.47 235.329 99.38 235.739 99.38C236.169 99.38 236.529 99.455 236.819 99.605C237.109 99.745 237.384 99.935 237.644 100.175L237.569 99.02V96.485H239.774V107H237.974L237.809 106.235H237.764C237.484 106.505 237.164 106.73 236.804 106.91C236.444 107.09 236.074 107.18 235.694 107.18C235.224 107.18 234.794 107.09 234.404 106.91C234.024 106.73 233.694 106.475 233.414 106.145C233.144 105.805 232.934 105.395 232.784 104.915C232.634 104.435 232.559 103.89 232.559 103.28ZM234.824 103.25C234.824 103.99 234.949 104.53 235.199 104.87C235.449 105.21 235.804 105.38 236.264 105.38C236.514 105.38 236.744 105.33 236.954 105.23C237.164 105.12 237.369 104.94 237.569 104.69V101.675C237.369 101.495 237.164 101.37 236.954 101.3C236.754 101.22 236.544 101.18 236.324 101.18C235.914 101.18 235.559 101.35 235.259 101.69C234.969 102.03 234.824 102.55 234.824 103.25ZM246.728 109.685C245.748 108.815 244.973 107.81 244.403 106.67C243.843 105.53 243.563 104.25 243.563 102.83C243.563 101.41 243.843 100.13 244.403 98.99C244.973 97.85 245.748 96.845 246.728 95.975L247.958 96.95C247.068 97.82 246.418 98.725 246.008 99.665C245.608 100.595 245.408 101.65 245.408 102.83C245.408 103.42 245.458 103.98 245.558 104.51C245.658 105.03 245.808 105.53 246.008 106.01C246.218 106.49 246.483 106.95 246.803 107.39C247.123 107.84 247.508 108.28 247.958 108.71L246.728 109.685ZM250.847 103.28C250.847 102.66 250.962 102.11 251.192 101.63C251.432 101.14 251.747 100.73 252.137 100.4C252.537 100.07 252.997 99.82 253.517 99.65C254.037 99.47 254.582 99.38 255.152 99.38C255.742 99.38 256.272 99.475 256.742 99.665C257.222 99.855 257.622 100.095 257.942 100.385L256.922 101.75C256.372 101.36 255.822 101.165 255.272 101.165C254.632 101.165 254.112 101.355 253.712 101.735C253.312 102.115 253.112 102.63 253.112 103.28C253.112 103.93 253.302 104.445 253.682 104.825C254.072 105.205 254.577 105.395 255.197 105.395C255.587 105.395 255.947 105.325 256.277 105.185C256.607 105.045 256.902 104.88 257.162 104.69L258.062 106.085C257.612 106.465 257.112 106.745 256.562 106.925C256.022 107.095 255.497 107.18 254.987 107.18C254.397 107.18 253.852 107.095 253.352 106.925C252.852 106.745 252.412 106.49 252.032 106.16C251.662 105.83 251.372 105.425 251.162 104.945C250.952 104.455 250.847 103.9 250.847 103.28ZM259.541 103.28C259.541 102.66 259.646 102.11 259.856 101.63C260.066 101.14 260.346 100.73 260.696 100.4C261.056 100.07 261.461 99.82 261.911 99.65C262.371 99.47 262.846 99.38 263.336 99.38C263.826 99.38 264.296 99.47 264.746 99.65C265.206 99.82 265.611 100.07 265.961 100.4C266.321 100.73 266.606 101.14 266.816 101.63C267.026 102.11 267.131 102.66 267.131 103.28C267.131 103.9 267.026 104.455 266.816 104.945C266.606 105.425 266.321 105.83 265.961 106.16C265.611 106.49 265.206 106.745 264.746 106.925C264.296 107.095 263.826 107.18 263.336 107.18C262.846 107.18 262.371 107.095 261.911 106.925C261.461 106.745 261.056 106.49 260.696 106.16C260.346 105.83 260.066 105.425 259.856 104.945C259.646 104.455 259.541 103.9 259.541 103.28ZM261.806 103.28C261.806 103.93 261.931 104.445 262.181 104.825C262.441 105.205 262.826 105.395 263.336 105.395C263.846 105.395 264.226 105.205 264.476 104.825C264.736 104.445 264.866 103.93 264.866 103.28C264.866 102.63 264.736 102.115 264.476 101.735C264.226 101.355 263.846 101.165 263.336 101.165C262.826 101.165 262.441 101.355 262.181 101.735C261.931 102.115 261.806 102.63 261.806 103.28ZM268.91 99.56H270.71L270.875 100.55H270.935C271.255 100.23 271.62 99.955 272.03 99.725C272.45 99.495 272.94 99.38 273.5 99.38C274.34 99.38 274.955 99.65 275.345 100.19C275.735 100.73 275.93 101.47 275.93 102.41V107H273.725V102.695C273.725 102.195 273.645 101.83 273.485 101.6C273.325 101.37 273.04 101.255 272.63 101.255C272.33 101.255 272.065 101.32 271.835 101.45C271.615 101.58 271.375 101.775 271.115 102.035V107H268.91V99.56ZM279.434 101.285H277.559V99.65L279.539 99.56L279.824 97.58H281.639V99.56H284.789V101.285H281.639V103.895C281.639 104.465 281.764 104.87 282.014 105.11C282.264 105.34 282.659 105.455 283.199 105.455C283.489 105.455 283.754 105.43 283.994 105.38C284.234 105.33 284.464 105.265 284.684 105.185L285.074 106.775C284.744 106.875 284.374 106.965 283.964 107.045C283.564 107.135 283.124 107.18 282.644 107.18C282.054 107.18 281.554 107.1 281.144 106.94C280.734 106.78 280.399 106.56 280.139 106.28C279.889 105.99 279.709 105.645 279.599 105.245C279.489 104.845 279.434 104.4 279.434 103.91V101.285ZM286.643 103.28C286.643 102.67 286.748 102.125 286.958 101.645C287.178 101.165 287.468 100.76 287.828 100.43C288.188 100.09 288.598 99.83 289.058 99.65C289.528 99.47 290.013 99.38 290.513 99.38C291.083 99.38 291.588 99.47 292.028 99.65C292.468 99.83 292.833 100.08 293.123 100.4C293.413 100.72 293.633 101.1 293.783 101.54C293.933 101.97 294.008 102.44 294.008 102.95C294.008 103.15 293.998 103.34 293.978 103.52C293.958 103.7 293.938 103.835 293.918 103.925H288.908C288.988 104.485 289.228 104.89 289.628 105.14C290.038 105.38 290.518 105.5 291.068 105.5C291.408 105.5 291.728 105.46 292.028 105.38C292.338 105.29 292.658 105.16 292.988 104.99L293.708 106.31C293.288 106.58 292.818 106.795 292.298 106.955C291.778 107.105 291.268 107.18 290.768 107.18C290.188 107.18 289.648 107.095 289.148 106.925C288.648 106.745 288.213 106.49 287.843 106.16C287.473 105.82 287.178 105.41 286.958 104.93C286.748 104.45 286.643 103.9 286.643 103.28ZM292.013 102.47C292.013 102.05 291.898 101.71 291.668 101.45C291.438 101.19 291.068 101.06 290.558 101.06C290.158 101.06 289.803 101.175 289.493 101.405C289.183 101.635 288.978 101.99 288.878 102.47H292.013ZM295.893 99.56H297.693L297.858 100.55H297.918C298.238 100.23 298.603 99.955 299.013 99.725C299.433 99.495 299.923 99.38 300.483 99.38C301.323 99.38 301.938 99.65 302.328 100.19C302.718 100.73 302.913 101.47 302.913 102.41V107H300.708V102.695C300.708 102.195 300.628 101.83 300.468 101.6C300.308 101.37 300.023 101.255 299.613 101.255C299.313 101.255 299.048 101.32 298.818 101.45C298.598 101.58 298.358 101.775 298.098 102.035V107H295.893V99.56ZM306.417 101.285H304.542V99.65L306.522 99.56L306.807 97.58H308.622V99.56H311.772V101.285H308.622V103.895C308.622 104.465 308.747 104.87 308.997 105.11C309.247 105.34 309.642 105.455 310.182 105.455C310.472 105.455 310.737 105.43 310.977 105.38C311.217 105.33 311.447 105.265 311.667 105.185L312.057 106.775C311.727 106.875 311.357 106.965 310.947 107.045C310.547 107.135 310.107 107.18 309.627 107.18C309.037 107.18 308.537 107.1 308.127 106.94C307.717 106.78 307.382 106.56 307.122 106.28C306.872 105.99 306.692 105.645 306.582 105.245C306.472 104.845 306.417 104.4 306.417 103.91V101.285ZM320.901 107.81V109.46H313.701V107.81H320.901ZM323.535 99.56H325.335L325.515 101.18H325.56C325.93 100.57 326.375 100.12 326.895 99.83C327.415 99.53 327.975 99.38 328.575 99.38C328.905 99.38 329.17 99.405 329.37 99.455C329.58 99.505 329.795 99.58 330.015 99.68L329.565 101.525C329.335 101.455 329.125 101.405 328.935 101.375C328.755 101.335 328.525 101.315 328.245 101.315C327.785 101.315 327.33 101.45 326.88 101.72C326.44 101.99 326.06 102.46 325.74 103.13V107H323.535V99.56ZM331.704 104.93C331.704 104.51 331.794 104.145 331.974 103.835C332.154 103.515 332.439 103.245 332.829 103.025C333.229 102.805 333.739 102.63 334.359 102.5C334.979 102.36 335.729 102.265 336.609 102.215C336.569 101.875 336.419 101.61 336.159 101.42C335.909 101.23 335.529 101.135 335.019 101.135C334.659 101.135 334.294 101.2 333.924 101.33C333.564 101.45 333.174 101.615 332.754 101.825L331.974 100.385C332.484 100.095 333.029 99.855 333.609 99.665C334.199 99.475 334.814 99.38 335.454 99.38C336.494 99.38 337.314 99.655 337.914 100.205C338.514 100.755 338.814 101.6 338.814 102.74V107H337.014L336.849 106.16H336.789C336.409 106.45 335.994 106.695 335.544 106.895C335.094 107.085 334.629 107.18 334.149 107.18C333.769 107.18 333.429 107.12 333.129 107C332.829 106.89 332.574 106.735 332.364 106.535C332.154 106.325 331.989 106.085 331.869 105.815C331.759 105.545 331.704 105.25 331.704 104.93ZM333.819 104.765C333.819 105.005 333.909 105.185 334.089 105.305C334.279 105.415 334.534 105.47 334.854 105.47C335.184 105.47 335.494 105.405 335.784 105.275C336.074 105.135 336.349 104.965 336.609 104.765V103.535C336.059 103.565 335.604 103.615 335.244 103.685C334.884 103.755 334.599 103.845 334.389 103.955C334.179 104.055 334.029 104.175 333.939 104.315C333.859 104.455 333.819 104.605 333.819 104.765ZM342.393 101.285H340.518V99.65L342.498 99.56L342.783 97.58H344.598V99.56H347.748V101.285H344.598V103.895C344.598 104.465 344.723 104.87 344.973 105.11C345.223 105.34 345.618 105.455 346.158 105.455C346.448 105.455 346.713 105.43 346.953 105.38C347.193 105.33 347.423 105.265 347.643 105.185L348.033 106.775C347.703 106.875 347.333 106.965 346.923 107.045C346.523 107.135 346.083 107.18 345.603 107.18C345.013 107.18 344.513 107.1 344.103 106.94C343.693 106.78 343.358 106.56 343.098 106.28C342.848 105.99 342.668 105.645 342.558 105.245C342.448 104.845 342.393 104.4 342.393 103.91V101.285ZM349.962 99.56H355.152V107H352.947V101.285H349.962V99.56ZM353.952 98.465C353.522 98.465 353.167 98.345 352.887 98.105C352.617 97.865 352.482 97.54 352.482 97.13C352.482 96.72 352.617 96.39 352.887 96.14C353.167 95.88 353.522 95.75 353.952 95.75C354.382 95.75 354.732 95.88 355.002 96.14C355.282 96.39 355.422 96.72 355.422 97.13C355.422 97.54 355.282 97.865 355.002 98.105C354.732 98.345 354.382 98.465 353.952 98.465ZM358.851 99.56H360.651L360.816 100.55H360.876C361.196 100.23 361.561 99.955 361.971 99.725C362.391 99.495 362.881 99.38 363.441 99.38C364.281 99.38 364.896 99.65 365.286 100.19C365.676 100.73 365.871 101.47 365.871 102.41V107H363.666V102.695C363.666 102.195 363.586 101.83 363.426 101.6C363.266 101.37 362.981 101.255 362.571 101.255C362.271 101.255 362.006 101.32 361.776 101.45C361.556 101.58 361.316 101.775 361.056 102.035V107H358.851V99.56ZM369.346 107.93C369.346 108.21 369.511 108.42 369.841 108.56C370.181 108.71 370.646 108.785 371.236 108.785C371.836 108.785 372.321 108.695 372.691 108.515C373.061 108.345 373.246 108.13 373.246 107.87C373.246 107.63 373.136 107.47 372.916 107.39C372.696 107.32 372.371 107.285 371.941 107.285H371.011C370.741 107.285 370.516 107.275 370.336 107.255C370.166 107.245 370.011 107.225 369.871 107.195C369.681 107.315 369.546 107.43 369.466 107.54C369.386 107.66 369.346 107.79 369.346 107.93ZM367.546 108.26C367.546 107.65 367.931 107.155 368.701 106.775V106.715C368.501 106.585 368.326 106.42 368.176 106.22C368.026 106.02 367.951 105.76 367.951 105.44C367.951 105.19 368.031 104.94 368.191 104.69C368.361 104.44 368.576 104.225 368.836 104.045V103.985C368.566 103.805 368.336 103.555 368.146 103.235C367.956 102.905 367.861 102.52 367.861 102.08C367.861 101.63 367.946 101.24 368.116 100.91C368.296 100.57 368.531 100.29 368.821 100.07C369.111 99.84 369.446 99.67 369.826 99.56C370.216 99.44 370.621 99.38 371.041 99.38C371.501 99.38 371.911 99.44 372.271 99.56H375.286V101.165H373.771C373.861 101.275 373.941 101.42 374.011 101.6C374.081 101.77 374.116 101.955 374.116 102.155C374.116 102.585 374.036 102.955 373.876 103.265C373.716 103.575 373.496 103.835 373.216 104.045C372.946 104.245 372.621 104.395 372.241 104.495C371.871 104.595 371.471 104.645 371.041 104.645C370.721 104.645 370.381 104.595 370.021 104.495C369.911 104.575 369.826 104.655 369.766 104.735C369.716 104.815 369.691 104.915 369.691 105.035C369.691 105.235 369.791 105.38 369.991 105.47C370.191 105.56 370.511 105.605 370.951 105.605H372.331C373.311 105.605 374.056 105.75 374.566 106.04C375.086 106.33 375.346 106.81 375.346 107.48C375.346 107.87 375.241 108.23 375.031 108.56C374.821 108.89 374.526 109.17 374.146 109.4C373.766 109.64 373.301 109.825 372.751 109.955C372.201 110.095 371.591 110.165 370.921 110.165C370.441 110.165 369.991 110.125 369.571 110.045C369.161 109.975 368.806 109.86 368.506 109.7C368.206 109.55 367.971 109.355 367.801 109.115C367.631 108.875 367.546 108.59 367.546 108.26ZM371.041 103.31C371.351 103.31 371.616 103.21 371.836 103.01C372.066 102.8 372.181 102.49 372.181 102.08C372.181 101.68 372.066 101.38 371.836 101.18C371.616 100.97 371.351 100.865 371.041 100.865C370.731 100.865 370.466 100.97 370.246 101.18C370.036 101.38 369.931 101.68 369.931 102.08C369.931 102.49 370.036 102.8 370.246 103.01C370.466 103.21 370.731 103.31 371.041 103.31ZM377.65 108.71C378.1 108.28 378.485 107.84 378.805 107.39C379.125 106.95 379.385 106.49 379.585 106.01C379.795 105.53 379.95 105.03 380.05 104.51C380.15 103.98 380.2 103.42 380.2 102.83C380.2 101.65 379.995 100.595 379.585 99.665C379.185 98.725 378.54 97.82 377.65 96.95L378.88 95.975C379.86 96.845 380.63 97.85 381.19 98.99C381.76 100.13 382.045 101.41 382.045 102.83C382.045 104.25 381.76 105.53 381.19 106.67C380.63 107.81 379.86 108.815 378.88 109.685L377.65 108.71Z" fill="white"/>
<path d="M15.355 61.33C14.865 61.14 14.345 61.045 13.795 61.045C13.315 61.045 12.96 61.15 12.73 61.36C12.51 61.57 12.4 61.9 12.4 62.35V62.56H14.965V64.285H12.4V70H10.195V64.285H8.23V62.65L10.195 62.56V62.365C10.195 61.935 10.26 61.535 10.39 61.165C10.52 60.795 10.72 60.475 10.99 60.205C11.26 59.925 11.605 59.705 12.025 59.545C12.445 59.385 12.945 59.305 13.525 59.305C13.955 59.305 14.355 59.345 14.725 59.425C15.105 59.505 15.455 59.6 15.775 59.71L15.355 61.33ZM16.6991 66.28C16.6991 65.66 16.8041 65.11 17.0141 64.63C17.2241 64.14 17.5041 63.73 17.8541 63.4C18.2141 63.07 18.6191 62.82 19.0691 62.65C19.5291 62.47 20.0041 62.38 20.4941 62.38C20.9841 62.38 21.4541 62.47 21.9041 62.65C22.3641 62.82 22.7691 63.07 23.1191 63.4C23.4791 63.73 23.7641 64.14 23.9741 64.63C24.1841 65.11 24.2891 65.66 24.2891 66.28C24.2891 66.9 24.1841 67.455 23.9741 67.945C23.7641 68.425 23.4791 68.83 23.1191 69.16C22.7691 69.49 22.3641 69.745 21.9041 69.925C21.4541 70.095 20.9841 70.18 20.4941 70.18C20.0041 70.18 19.5291 70.095 19.0691 69.925C18.6191 69.745 18.2141 69.49 17.8541 69.16C17.5041 68.83 17.2241 68.425 17.0141 67.945C16.8041 67.455 16.6991 66.9 16.6991 66.28ZM18.9641 66.28C18.9641 66.93 19.0891 67.445 19.3391 67.825C19.5991 68.205 19.9841 68.395 20.4941 68.395C21.0041 68.395 21.3841 68.205 21.6341 67.825C21.8941 67.445 22.0241 66.93 22.0241 66.28C22.0241 65.63 21.8941 65.115 21.6341 64.735C21.3841 64.355 21.0041 64.165 20.4941 64.165C19.9841 64.165 19.5991 64.355 19.3391 64.735C19.0891 65.115 18.9641 65.63 18.9641 66.28ZM26.7283 62.56H28.5283L28.7083 64.18H28.7533C29.1233 63.57 29.5683 63.12 30.0883 62.83C30.6083 62.53 31.1683 62.38 31.7683 62.38C32.0983 62.38 32.3633 62.405 32.5633 62.455C32.7733 62.505 32.9883 62.58 33.2083 62.68L32.7583 64.525C32.5283 64.455 32.3183 64.405 32.1283 64.375C31.9483 64.335 31.7183 64.315 31.4383 64.315C30.9783 64.315 30.5233 64.45 30.0733 64.72C29.6333 64.99 29.2533 65.46 28.9333 66.13V70H26.7283V62.56ZM80.1381 62.56H85.3281V70H83.1231V64.285H80.1381V62.56ZM84.1281 61.465C83.6981 61.465 83.3431 61.345 83.0631 61.105C82.7931 60.865 82.6581 60.54 82.6581 60.13C82.6581 59.72 82.7931 59.39 83.0631 59.14C83.3431 58.88 83.6981 58.75 84.1281 58.75C84.5581 58.75 84.9081 58.88 85.1781 59.14C85.4581 59.39 85.5981 59.72 85.5981 60.13C85.5981 60.54 85.4581 60.865 85.1781 61.105C84.9081 61.345 84.5581 61.465 84.1281 61.465ZM89.0273 62.56H90.8273L90.9923 63.55H91.0523C91.3723 63.23 91.7373 62.955 92.1473 62.725C92.5673 62.495 93.0573 62.38 93.6173 62.38C94.4573 62.38 95.0723 62.65 95.4623 63.19C95.8523 63.73 96.0473 64.47 96.0473 65.41V70H93.8423V65.695C93.8423 65.195 93.7623 64.83 93.6023 64.6C93.4423 64.37 93.1573 64.255 92.7473 64.255C92.4473 64.255 92.1823 64.32 91.9523 64.45C91.7323 64.58 91.4923 64.775 91.2323 65.035V70H89.0273V62.56Z" fill="#E69F00"/>
<path d="M203.932 68.215V70H197.107V68.215H199.567V62.71H197.602V61.345C198.162 61.245 198.637 61.125 199.027 60.985C199.427 60.845 199.802 60.675 200.152 60.475H201.772V68.215H203.932ZM239.909 86.215V88H233.084V86.215H235.544V80.71H233.579V79.345C234.139 79.245 234.614 79.125 235.004 78.985C235.404 78.845 235.779 78.675 236.129 78.475H237.749V86.215H239.909ZM245.348 88.18C244.798 88.18 244.298 88.075 243.848 87.865C243.398 87.645 243.013 87.325 242.693 86.905C242.373 86.485 242.123 85.965 241.943 85.345C241.773 84.725 241.688 84.01 241.688 83.2C241.688 82.39 241.773 81.68 241.943 81.07C242.123 80.46 242.373 79.95 242.693 79.54C243.013 79.12 243.398 78.81 243.848 78.61C244.298 78.4 244.798 78.295 245.348 78.295C245.898 78.295 246.398 78.4 246.848 78.61C247.298 78.81 247.683 79.12 248.003 79.54C248.323 79.95 248.568 80.46 248.738 81.07C248.918 81.68 249.008 82.39 249.008 83.2C249.008 84.01 248.918 84.725 248.738 85.345C248.568 85.965 248.323 86.485 248.003 86.905C247.683 87.325 247.298 87.645 246.848 87.865C246.398 88.075 245.898 88.18 245.348 88.18ZM245.348 80.005C245.108 80.005 244.883 80.055 244.673 80.155C244.473 80.255 244.298 80.43 244.148 80.68C243.998 80.92 243.878 81.245 243.788 81.655C243.698 82.065 243.653 82.58 243.653 83.2C243.653 83.82 243.698 84.34 243.788 84.76C243.878 85.17 243.998 85.505 244.148 85.765C244.298 86.015 244.473 86.195 244.673 86.305C244.883 86.415 245.108 86.47 245.348 86.47C245.588 86.47 245.808 86.415 246.008 86.305C246.218 86.195 246.398 86.015 246.548 85.765C246.698 85.505 246.818 85.17 246.908 84.76C246.998 84.34 247.043 83.82 247.043 83.2C247.043 82.58 246.998 82.065 246.908 81.655C246.818 81.245 246.698 80.92 246.548 80.68C246.398 80.43 246.218 80.255 246.008 80.155C245.808 80.055 245.588 80.005 245.348 80.005ZM245.348 84.31C245.028 84.31 244.758 84.21 244.538 84.01C244.328 83.8 244.223 83.52 244.223 83.17C244.223 82.82 244.328 82.545 244.538 82.345C244.758 82.135 245.028 82.03 245.348 82.03C245.668 82.03 245.933 82.135 246.143 82.345C246.363 82.545 246.473 82.82 246.473 83.17C246.473 83.52 246.363 83.8 246.143 84.01C245.933 84.21 245.668 84.31 245.348 84.31Z" fill="#F0E442"/>
</svg>
