<svg width="272" height="147" viewBox="0 0 272 147" fill="none" xmlns="http://www.w3.org/2000/svg">
<rect width="272" height="147" fill="black"/>
<path d="M9.025 124.255C9.395 124.555 9.795 124.8 10.225 124.99C10.665 125.18 11.1 125.275 11.53 125.275C12.04 125.275 12.41 125.19 12.64 125.02C12.88 124.85 13 124.62 13 124.33C13 124.18 12.965 124.05 12.895 123.94C12.825 123.83 12.725 123.735 12.595 123.655C12.465 123.565 12.305 123.485 12.115 123.415C11.935 123.335 11.725 123.25 11.485 123.16L10.225 122.62C9.955 122.52 9.69 122.39 9.43 122.23C9.18 122.07 8.96 121.885 8.77 121.675C8.58 121.455 8.425 121.205 8.305 120.925C8.195 120.635 8.14 120.31 8.14 119.95C8.14 119.55 8.225 119.175 8.395 118.825C8.575 118.465 8.82 118.155 9.13 117.895C9.45 117.625 9.83 117.415 10.27 117.265C10.71 117.115 11.195 117.04 11.725 117.04C12.325 117.04 12.905 117.15 13.465 117.37C14.025 117.59 14.53 117.91 14.98 118.33L13.855 119.725C13.515 119.475 13.18 119.285 12.85 119.155C12.52 119.015 12.145 118.945 11.725 118.945C11.295 118.945 10.96 119.025 10.72 119.185C10.49 119.335 10.375 119.55 10.375 119.83C10.375 120.13 10.525 120.355 10.825 120.505C11.125 120.655 11.51 120.815 11.98 120.985L13.165 121.495C13.815 121.735 14.325 122.065 14.695 122.485C15.075 122.905 15.265 123.46 15.265 124.15C15.265 124.56 15.18 124.95 15.01 125.32C14.84 125.68 14.595 126 14.275 126.28C13.955 126.55 13.56 126.77 13.09 126.94C12.62 127.1 12.08 127.18 11.47 127.18C10.81 127.18 10.155 127.065 9.505 126.835C8.865 126.595 8.28 126.24 7.75 125.77L9.025 124.255ZM17.3891 128.08C17.5791 128.14 17.7741 128.17 17.9741 128.17C18.4041 128.17 18.7391 128.08 18.9791 127.9C19.2291 127.72 19.4141 127.485 19.5341 127.195L19.6841 126.805L16.4591 119.56H18.6491L19.8941 122.755C20.0341 123.105 20.1641 123.47 20.2841 123.85C20.4041 124.22 20.5241 124.6 20.6441 124.99H20.7041C20.8041 124.62 20.9141 124.25 21.0341 123.88C21.1541 123.5 21.2691 123.125 21.3791 122.755L22.4741 119.56H24.5591L21.6191 127.075C21.4391 127.545 21.2441 127.955 21.0341 128.305C20.8241 128.665 20.5841 128.96 20.3141 129.19C20.0441 129.43 19.7291 129.61 19.3691 129.73C19.0191 129.85 18.6091 129.91 18.1391 129.91C17.9191 129.91 17.7141 129.895 17.5241 129.865C17.3341 129.845 17.1591 129.81 16.9991 129.76L17.3891 128.08ZM26.0683 119.56H27.8683L28.0333 120.55H28.0933C28.4133 120.23 28.7783 119.955 29.1883 119.725C29.6083 119.495 30.0983 119.38 30.6583 119.38C31.4983 119.38 32.1133 119.65 32.5033 120.19C32.8933 120.73 33.0883 121.47 33.0883 122.41V127H30.8833V122.695C30.8833 122.195 30.8033 121.83 30.6433 121.6C30.4833 121.37 30.1983 121.255 29.7883 121.255C29.4883 121.255 29.2233 121.32 28.9933 121.45C28.7733 121.58 28.5333 121.775 28.2733 122.035V127H26.0683V119.56ZM36.5924 121.285H34.7174V119.65L36.6974 119.56L36.9824 117.58H38.7974V119.56H41.9474V121.285H38.7974V123.895C38.7974 124.465 38.9224 124.87 39.1724 125.11C39.4224 125.34 39.8174 125.455 40.3574 125.455C40.6474 125.455 40.9124 125.43 41.1524 125.38C41.3924 125.33 41.6224 125.265 41.8424 125.185L42.2324 126.775C41.9024 126.875 41.5324 126.965 41.1224 127.045C40.7224 127.135 40.2824 127.18 39.8024 127.18C39.2124 127.18 38.7124 127.1 38.3024 126.94C37.8924 126.78 37.5574 126.56 37.2974 126.28C37.0474 125.99 36.8674 125.645 36.7574 125.245C36.6474 124.845 36.5924 124.4 36.5924 123.91V121.285ZM43.8916 124.93C43.8916 124.51 43.9816 124.145 44.1616 123.835C44.3416 123.515 44.6266 123.245 45.0166 123.025C45.4166 122.805 45.9266 122.63 46.5466 122.5C47.1666 122.36 47.9166 122.265 48.7966 122.215C48.7566 121.875 48.6066 121.61 48.3466 121.42C48.0966 121.23 47.7166 121.135 47.2066 121.135C46.8466 121.135 46.4816 121.2 46.1116 121.33C45.7516 121.45 45.3616 121.615 44.9416 121.825L44.1616 120.385C44.6716 120.095 45.2166 119.855 45.7966 119.665C46.3866 119.475 47.0016 119.38 47.6416 119.38C48.6816 119.38 49.5016 119.655 50.1016 120.205C50.7016 120.755 51.0016 121.6 51.0016 122.74V127H49.2016L49.0366 126.16H48.9766C48.5966 126.45 48.1816 126.695 47.7316 126.895C47.2816 127.085 46.8166 127.18 46.3366 127.18C45.9566 127.18 45.6166 127.12 45.3166 127C45.0166 126.89 44.7616 126.735 44.5516 126.535C44.3416 126.325 44.1766 126.085 44.0566 125.815C43.9466 125.545 43.8916 125.25 43.8916 124.93ZM46.0066 124.765C46.0066 125.005 46.0966 125.185 46.2766 125.305C46.4666 125.415 46.7216 125.47 47.0416 125.47C47.3716 125.47 47.6816 125.405 47.9716 125.275C48.2616 125.135 48.5366 124.965 48.7966 124.765V123.535C48.2466 123.565 47.7916 123.615 47.4316 123.685C47.0716 123.755 46.7866 123.845 46.5766 123.955C46.3666 124.055 46.2166 124.175 46.1266 124.315C46.0466 124.455 46.0066 124.605 46.0066 124.765ZM55.1057 123.13L52.6907 119.56H55.0607L55.8257 120.76C55.9357 120.97 56.0607 121.185 56.2007 121.405C56.3407 121.615 56.4757 121.825 56.6057 122.035H56.6657C56.7657 121.825 56.8657 121.61 56.9657 121.39C57.0757 121.17 57.1807 120.96 57.2807 120.76L57.9407 119.56H60.2507L57.8207 123.385L60.4007 127H58.0307L57.1757 125.77C57.0357 125.56 56.8907 125.345 56.7407 125.125C56.6007 124.905 56.4607 124.69 56.3207 124.48H56.2607C56.1507 124.69 56.0357 124.905 55.9157 125.125C55.7957 125.335 55.6807 125.55 55.5707 125.77L54.8357 127H52.5257L55.1057 123.13ZM62.3748 117.22H68.8248V119.08H64.5798V121.045H68.1798V122.89H64.5798V125.14H68.9748V127H62.3748V117.22ZM71.699 119.56H73.499L73.679 121.18H73.724C74.094 120.57 74.539 120.12 75.059 119.83C75.579 119.53 76.139 119.38 76.739 119.38C77.069 119.38 77.334 119.405 77.534 119.455C77.744 119.505 77.959 119.58 78.179 119.68L77.729 121.525C77.499 121.455 77.289 121.405 77.099 121.375C76.919 121.335 76.689 121.315 76.409 121.315C75.949 121.315 75.494 121.45 75.044 121.72C74.604 121.99 74.224 122.46 73.904 123.13V127H71.699V119.56ZM80.6931 119.56H82.4931L82.6731 121.18H82.7181C83.0881 120.57 83.5331 120.12 84.0531 119.83C84.5731 119.53 85.1331 119.38 85.7331 119.38C86.0631 119.38 86.3281 119.405 86.5281 119.455C86.7381 119.505 86.9531 119.58 87.1731 119.68L86.7231 121.525C86.4931 121.455 86.2831 121.405 86.0931 121.375C85.9131 121.335 85.6831 121.315 85.4031 121.315C84.9431 121.315 84.4881 121.45 84.0381 121.72C83.5981 121.99 83.2181 122.46 82.8981 123.13V127H80.6931V119.56ZM88.6523 123.28C88.6523 122.66 88.7573 122.11 88.9673 121.63C89.1773 121.14 89.4573 120.73 89.8073 120.4C90.1673 120.07 90.5723 119.82 91.0223 119.65C91.4823 119.47 91.9573 119.38 92.4473 119.38C92.9373 119.38 93.4073 119.47 93.8573 119.65C94.3173 119.82 94.7223 120.07 95.0723 120.4C95.4323 120.73 95.7173 121.14 95.9273 121.63C96.1373 122.11 96.2423 122.66 96.2423 123.28C96.2423 123.9 96.1373 124.455 95.9273 124.945C95.7173 125.425 95.4323 125.83 95.0723 126.16C94.7223 126.49 94.3173 126.745 93.8573 126.925C93.4073 127.095 92.9373 127.18 92.4473 127.18C91.9573 127.18 91.4823 127.095 91.0223 126.925C90.5723 126.745 90.1673 126.49 89.8073 126.16C89.4573 125.83 89.1773 125.425 88.9673 124.945C88.7573 124.455 88.6523 123.9 88.6523 123.28ZM90.9173 123.28C90.9173 123.93 91.0423 124.445 91.2923 124.825C91.5523 125.205 91.9373 125.395 92.4473 125.395C92.9573 125.395 93.3373 125.205 93.5873 124.825C93.8473 124.445 93.9773 123.93 93.9773 123.28C93.9773 122.63 93.8473 122.115 93.5873 121.735C93.3373 121.355 92.9573 121.165 92.4473 121.165C91.9373 121.165 91.5523 121.355 91.2923 121.735C91.0423 122.115 90.9173 122.63 90.9173 123.28ZM98.6814 119.56H100.481L100.661 121.18H100.706C101.076 120.57 101.521 120.12 102.041 119.83C102.561 119.53 103.121 119.38 103.721 119.38C104.051 119.38 104.316 119.405 104.516 119.455C104.726 119.505 104.941 119.58 105.161 119.68L104.711 121.525C104.481 121.455 104.271 121.405 104.081 121.375C103.901 121.335 103.671 121.315 103.391 121.315C102.931 121.315 102.476 121.45 102.026 121.72C101.586 121.99 101.206 122.46 100.886 123.13V127H98.6814V119.56ZM108.696 120.58C108.696 120.33 108.736 120.1 108.816 119.89C108.906 119.67 109.026 119.48 109.176 119.32C109.326 119.16 109.506 119.035 109.716 118.945C109.936 118.855 110.176 118.81 110.436 118.81C110.696 118.81 110.931 118.855 111.141 118.945C111.361 119.035 111.546 119.16 111.696 119.32C111.846 119.48 111.961 119.67 112.041 119.89C112.131 120.1 112.176 120.33 112.176 120.58C112.176 121.08 112.016 121.5 111.696 121.84C111.376 122.17 110.956 122.335 110.436 122.335C109.916 122.335 109.496 122.17 109.176 121.84C108.856 121.5 108.696 121.08 108.696 120.58ZM108.696 125.425C108.696 125.175 108.736 124.945 108.816 124.735C108.906 124.515 109.026 124.325 109.176 124.165C109.326 124.005 109.506 123.88 109.716 123.79C109.936 123.7 110.176 123.655 110.436 123.655C110.696 123.655 110.931 123.7 111.141 123.79C111.361 123.88 111.546 124.005 111.696 124.165C111.846 124.325 111.961 124.515 112.041 124.735C112.131 124.945 112.176 125.175 112.176 125.425C112.176 125.925 112.016 126.345 111.696 126.685C111.376 127.015 110.956 127.18 110.436 127.18C109.916 127.18 109.496 127.015 109.176 126.685C108.856 126.345 108.696 125.925 108.696 125.425ZM125.109 119.56H130.299V127H128.094V121.285H125.109V119.56ZM129.099 118.465C128.669 118.465 128.314 118.345 128.034 118.105C127.764 117.865 127.629 117.54 127.629 117.13C127.629 116.72 127.764 116.39 128.034 116.14C128.314 115.88 128.669 115.75 129.099 115.75C129.529 115.75 129.879 115.88 130.149 116.14C130.429 116.39 130.569 116.72 130.569 117.13C130.569 117.54 130.429 117.865 130.149 118.105C129.879 118.345 129.529 118.465 129.099 118.465ZM133.998 119.56H135.798L135.963 120.55H136.023C136.343 120.23 136.708 119.955 137.118 119.725C137.538 119.495 138.028 119.38 138.588 119.38C139.428 119.38 140.043 119.65 140.433 120.19C140.823 120.73 141.018 121.47 141.018 122.41V127H138.813V122.695C138.813 122.195 138.733 121.83 138.573 121.6C138.413 121.37 138.128 121.255 137.718 121.255C137.418 121.255 137.153 121.32 136.923 121.45C136.703 121.58 136.463 121.775 136.203 122.035V127H133.998V119.56ZM142.377 119.56H144.597L145.767 123.07C145.887 123.45 146.002 123.83 146.112 124.21C146.222 124.59 146.332 124.975 146.442 125.365H146.502C146.612 124.975 146.717 124.59 146.817 124.21C146.927 123.83 147.042 123.45 147.162 123.07L148.332 119.56H150.447L147.717 127H145.182L142.377 119.56ZM151.821 124.93C151.821 124.51 151.911 124.145 152.091 123.835C152.271 123.515 152.556 123.245 152.946 123.025C153.346 122.805 153.856 122.63 154.476 122.5C155.096 122.36 155.846 122.265 156.726 122.215C156.686 121.875 156.536 121.61 156.276 121.42C156.026 121.23 155.646 121.135 155.136 121.135C154.776 121.135 154.411 121.2 154.041 121.33C153.681 121.45 153.291 121.615 152.871 121.825L152.091 120.385C152.601 120.095 153.146 119.855 153.726 119.665C154.316 119.475 154.931 119.38 155.571 119.38C156.611 119.38 157.431 119.655 158.031 120.205C158.631 120.755 158.931 121.6 158.931 122.74V127H157.131L156.966 126.16H156.906C156.526 126.45 156.111 126.695 155.661 126.895C155.211 127.085 154.746 127.18 154.266 127.18C153.886 127.18 153.546 127.12 153.246 127C152.946 126.89 152.691 126.735 152.481 126.535C152.271 126.325 152.106 126.085 151.986 125.815C151.876 125.545 151.821 125.25 151.821 124.93ZM153.936 124.765C153.936 125.005 154.026 125.185 154.206 125.305C154.396 125.415 154.651 125.47 154.971 125.47C155.301 125.47 155.611 125.405 155.901 125.275C156.191 125.135 156.466 124.965 156.726 124.765V123.535C156.176 123.565 155.721 123.615 155.361 123.685C155.001 123.755 154.716 123.845 154.506 123.955C154.296 124.055 154.146 124.175 154.056 124.315C153.976 124.455 153.936 124.605 153.936 124.765ZM160.83 116.485H165.195V124.18C165.195 124.41 165.225 124.605 165.285 124.765C165.355 124.915 165.445 125.04 165.555 125.14C165.675 125.23 165.805 125.295 165.945 125.335C166.095 125.375 166.245 125.395 166.395 125.395C166.565 125.395 166.745 125.38 166.935 125.35C167.125 125.31 167.335 125.245 167.565 125.155L168.06 126.775C167.86 126.835 167.675 126.89 167.505 126.94C167.335 126.99 167.165 127.03 166.995 127.06C166.825 127.1 166.645 127.13 166.455 127.15C166.265 127.17 166.055 127.18 165.825 127.18C164.885 127.18 164.175 126.905 163.695 126.355C163.225 125.795 162.99 125.04 162.99 124.09V118.225H160.83V116.485ZM170.08 119.56H175.27V127H173.065V121.285H170.08V119.56ZM174.07 118.465C173.64 118.465 173.285 118.345 173.005 118.105C172.735 117.865 172.6 117.54 172.6 117.13C172.6 116.72 172.735 116.39 173.005 116.14C173.285 115.88 173.64 115.75 174.07 115.75C174.5 115.75 174.85 115.88 175.12 116.14C175.4 116.39 175.54 116.72 175.54 117.13C175.54 117.54 175.4 117.865 175.12 118.105C174.85 118.345 174.5 118.465 174.07 118.465ZM178.594 123.28C178.594 122.67 178.684 122.125 178.864 121.645C179.044 121.165 179.279 120.76 179.569 120.43C179.869 120.09 180.209 119.83 180.589 119.65C180.969 119.47 181.364 119.38 181.774 119.38C182.204 119.38 182.564 119.455 182.854 119.605C183.144 119.745 183.419 119.935 183.679 120.175L183.604 119.02V116.485H185.809V127H184.009L183.844 126.235H183.799C183.519 126.505 183.199 126.73 182.839 126.91C182.479 127.09 182.109 127.18 181.729 127.18C181.259 127.18 180.829 127.09 180.439 126.91C180.059 126.73 179.729 126.475 179.449 126.145C179.179 125.805 178.969 125.395 178.819 124.915C178.669 124.435 178.594 123.89 178.594 123.28ZM180.859 123.25C180.859 123.99 180.984 124.53 181.234 124.87C181.484 125.21 181.839 125.38 182.299 125.38C182.549 125.38 182.779 125.33 182.989 125.23C183.199 125.12 183.404 124.94 183.604 124.69V121.675C183.404 121.495 183.199 121.37 182.989 121.3C182.789 121.22 182.579 121.18 182.359 121.18C181.949 121.18 181.594 121.35 181.294 121.69C181.004 122.03 180.859 122.55 180.859 123.25ZM197.662 124.66C198.092 124.93 198.522 125.145 198.952 125.305C199.392 125.465 199.862 125.545 200.362 125.545C200.872 125.545 201.237 125.49 201.457 125.38C201.677 125.27 201.787 125.115 201.787 124.915C201.787 124.685 201.602 124.5 201.232 124.36C200.872 124.21 200.392 124.05 199.792 123.88C199.462 123.79 199.137 123.685 198.817 123.565C198.507 123.435 198.227 123.285 197.977 123.115C197.727 122.935 197.522 122.73 197.362 122.5C197.212 122.27 197.137 122.005 197.137 121.705C197.137 121.365 197.217 121.05 197.377 120.76C197.537 120.47 197.762 120.225 198.052 120.025C198.352 119.825 198.712 119.67 199.132 119.56C199.562 119.44 200.042 119.38 200.572 119.38C201.232 119.38 201.832 119.49 202.372 119.71C202.922 119.92 203.392 120.15 203.782 120.4L202.792 121.72C202.452 121.52 202.102 121.355 201.742 121.225C201.382 121.085 201.007 121.015 200.617 121.015C200.147 121.015 199.812 121.065 199.612 121.165C199.422 121.265 199.327 121.41 199.327 121.6C199.327 121.71 199.377 121.81 199.477 121.9C199.577 121.99 199.712 122.07 199.882 122.14C200.052 122.21 200.252 122.28 200.482 122.35C200.722 122.41 200.972 122.475 201.232 122.545C201.602 122.645 201.952 122.76 202.282 122.89C202.612 123.01 202.902 123.155 203.152 123.325C203.402 123.495 203.602 123.7 203.752 123.94C203.902 124.18 203.977 124.46 203.977 124.78C203.977 125.12 203.897 125.435 203.737 125.725C203.577 126.015 203.342 126.27 203.032 126.49C202.732 126.7 202.352 126.87 201.892 127C201.442 127.12 200.917 127.18 200.317 127.18C199.647 127.18 198.992 127.07 198.352 126.85C197.712 126.63 197.152 126.36 196.672 126.04L197.662 124.66ZM206.266 128.08C206.456 128.14 206.651 128.17 206.851 128.17C207.281 128.17 207.616 128.08 207.856 127.9C208.106 127.72 208.291 127.485 208.411 127.195L208.561 126.805L205.336 119.56H207.526L208.771 122.755C208.911 123.105 209.041 123.47 209.161 123.85C209.281 124.22 209.401 124.6 209.521 124.99H209.581C209.681 124.62 209.791 124.25 209.911 123.88C210.031 123.5 210.146 123.125 210.256 122.755L211.351 119.56H213.436L210.496 127.075C210.316 127.545 210.121 127.955 209.911 128.305C209.701 128.665 209.461 128.96 209.191 129.19C208.921 129.43 208.606 129.61 208.246 129.73C207.896 129.85 207.486 129.91 207.016 129.91C206.796 129.91 206.591 129.895 206.401 129.865C206.211 129.845 206.036 129.81 205.876 129.76L206.266 128.08ZM214.945 119.56H216.745L216.91 120.55H216.97C217.29 120.23 217.655 119.955 218.065 119.725C218.485 119.495 218.975 119.38 219.535 119.38C220.375 119.38 220.99 119.65 221.38 120.19C221.77 120.73 221.965 121.47 221.965 122.41V127H219.76V122.695C219.76 122.195 219.68 121.83 219.52 121.6C219.36 121.37 219.075 121.255 218.665 121.255C218.365 121.255 218.1 121.32 217.87 121.45C217.65 121.58 217.41 121.775 217.15 122.035V127H214.945V119.56ZM225.469 121.285H223.594V119.65L225.574 119.56L225.859 117.58H227.674V119.56H230.824V121.285H227.674V123.895C227.674 124.465 227.799 124.87 228.049 125.11C228.299 125.34 228.694 125.455 229.234 125.455C229.524 125.455 229.789 125.43 230.029 125.38C230.269 125.33 230.499 125.265 230.719 125.185L231.109 126.775C230.779 126.875 230.409 126.965 229.999 127.045C229.599 127.135 229.159 127.18 228.679 127.18C228.089 127.18 227.589 127.1 227.179 126.94C226.769 126.78 226.434 126.56 226.174 126.28C225.924 125.99 225.744 125.645 225.634 125.245C225.524 124.845 225.469 124.4 225.469 123.91V121.285ZM232.769 124.93C232.769 124.51 232.859 124.145 233.039 123.835C233.219 123.515 233.504 123.245 233.894 123.025C234.294 122.805 234.804 122.63 235.424 122.5C236.044 122.36 236.794 122.265 237.674 122.215C237.634 121.875 237.484 121.61 237.224 121.42C236.974 121.23 236.594 121.135 236.084 121.135C235.724 121.135 235.359 121.2 234.989 121.33C234.629 121.45 234.239 121.615 233.819 121.825L233.039 120.385C233.549 120.095 234.094 119.855 234.674 119.665C235.264 119.475 235.879 119.38 236.519 119.38C237.559 119.38 238.379 119.655 238.979 120.205C239.579 120.755 239.879 121.6 239.879 122.74V127H238.079L237.914 126.16H237.854C237.474 126.45 237.059 126.695 236.609 126.895C236.159 127.085 235.694 127.18 235.214 127.18C234.834 127.18 234.494 127.12 234.194 127C233.894 126.89 233.639 126.735 233.429 126.535C233.219 126.325 233.054 126.085 232.934 125.815C232.824 125.545 232.769 125.25 232.769 124.93ZM234.884 124.765C234.884 125.005 234.974 125.185 235.154 125.305C235.344 125.415 235.599 125.47 235.919 125.47C236.249 125.47 236.559 125.405 236.849 125.275C237.139 125.135 237.414 124.965 237.674 124.765V123.535C237.124 123.565 236.669 123.615 236.309 123.685C235.949 123.755 235.664 123.845 235.454 123.955C235.244 124.055 235.094 124.175 235.004 124.315C234.924 124.455 234.884 124.605 234.884 124.765ZM243.983 123.13L241.568 119.56H243.938L244.703 120.76C244.813 120.97 244.938 121.185 245.078 121.405C245.218 121.615 245.353 121.825 245.483 122.035H245.543C245.643 121.825 245.743 121.61 245.843 121.39C245.953 121.17 246.058 120.96 246.158 120.76L246.818 119.56H249.128L246.698 123.385L249.278 127H246.908L246.053 125.77C245.913 125.56 245.768 125.345 245.618 125.125C245.478 124.905 245.338 124.69 245.198 124.48H245.138C245.028 124.69 244.913 124.905 244.793 125.125C244.673 125.335 244.558 125.55 244.448 125.77L243.713 127H241.403L243.983 123.13Z" fill="#D55E00"/>
<path d="M11.5 109.18C10.92 109.18 10.385 109.065 9.895 108.835C9.415 108.595 9 108.255 8.65 107.815C8.31 107.375 8.045 106.84 7.855 106.21C7.665 105.58 7.57 104.865 7.57 104.065C7.57 103.265 7.665 102.555 7.855 101.935C8.045 101.305 8.31 100.78 8.65 100.36C9 99.93 9.415 99.605 9.895 99.385C10.385 99.155 10.92 99.04 11.5 99.04C12.08 99.04 12.61 99.155 13.09 99.385C13.58 99.605 13.995 99.93 14.335 100.36C14.685 100.79 14.955 101.32 15.145 101.95C15.335 102.57 15.43 103.275 15.43 104.065C15.43 104.865 15.335 105.58 15.145 106.21C14.955 106.84 14.685 107.375 14.335 107.815C13.995 108.255 13.58 108.595 13.09 108.835C12.61 109.065 12.08 109.18 11.5 109.18ZM11.5 107.275C12.01 107.275 12.415 106.99 12.715 106.42C13.015 105.84 13.165 105.055 13.165 104.065C13.165 103.085 13.015 102.32 12.715 101.77C12.415 101.22 12.01 100.945 11.5 100.945C10.99 100.945 10.585 101.22 10.285 101.77C9.985 102.32 9.835 103.085 9.835 104.065C9.835 105.055 9.985 105.84 10.285 106.42C10.585 106.99 10.99 107.275 11.5 107.275ZM23.8691 109H22.0691L21.9041 107.935H21.8441C21.5141 108.315 21.1491 108.62 20.7491 108.85C20.3491 109.07 19.8791 109.18 19.3391 109.18C18.4891 109.18 17.8741 108.91 17.4941 108.37C17.1141 107.83 16.9241 107.09 16.9241 106.15V101.56H19.1291V105.865C19.1291 106.365 19.2041 106.73 19.3541 106.96C19.5041 107.19 19.7891 107.305 20.2091 107.305C20.4891 107.305 20.7341 107.245 20.9441 107.125C21.1641 107.005 21.4041 106.78 21.6641 106.45V101.56H23.8691V109ZM27.5983 103.285H25.7233V101.65L27.7033 101.56L27.9883 99.58H29.8033V101.56H32.9533V103.285H29.8033V105.895C29.8033 106.465 29.9283 106.87 30.1783 107.11C30.4283 107.34 30.8233 107.455 31.3633 107.455C31.6533 107.455 31.9183 107.43 32.1583 107.38C32.3983 107.33 32.6283 107.265 32.8483 107.185L33.2383 108.775C32.9083 108.875 32.5383 108.965 32.1283 109.045C31.7283 109.135 31.2883 109.18 30.8083 109.18C30.2183 109.18 29.7183 109.1 29.3083 108.94C28.8983 108.78 28.5633 108.56 28.3033 108.28C28.0533 107.99 27.8733 107.645 27.7633 107.245C27.6533 106.845 27.5983 106.4 27.5983 105.91V103.285ZM37.2674 109.585V111.76H35.0624V101.56H36.8624L37.0274 102.31H37.0724C37.3724 102.04 37.7174 101.82 38.1074 101.65C38.4974 101.47 38.8924 101.38 39.2924 101.38C39.7524 101.38 40.1674 101.47 40.5374 101.65C40.9074 101.83 41.2224 102.085 41.4824 102.415C41.7424 102.745 41.9374 103.145 42.0674 103.615C42.2074 104.075 42.2774 104.59 42.2774 105.16C42.2774 105.8 42.1874 106.37 42.0074 106.87C41.8274 107.36 41.5874 107.78 41.2874 108.13C40.9874 108.47 40.6424 108.73 40.2524 108.91C39.8724 109.09 39.4724 109.18 39.0524 109.18C38.3724 109.18 37.7524 108.91 37.1924 108.37L37.2674 109.585ZM37.2674 106.885C37.4774 107.065 37.6924 107.195 37.9124 107.275C38.1424 107.345 38.3524 107.38 38.5424 107.38C38.9624 107.38 39.3124 107.21 39.5924 106.87C39.8724 106.52 40.0124 105.96 40.0124 105.19C40.0124 103.85 39.5574 103.18 38.6474 103.18C38.1774 103.18 37.7174 103.41 37.2674 103.87V106.885ZM50.8516 109H49.0516L48.8866 107.935H48.8266C48.4966 108.315 48.1316 108.62 47.7316 108.85C47.3316 109.07 46.8616 109.18 46.3216 109.18C45.4716 109.18 44.8566 108.91 44.4766 108.37C44.0966 107.83 43.9066 107.09 43.9066 106.15V101.56H46.1116V105.865C46.1116 106.365 46.1866 106.73 46.3366 106.96C46.4866 107.19 46.7716 107.305 47.1916 107.305C47.4716 107.305 47.7166 107.245 47.9266 107.125C48.1466 107.005 48.3866 106.78 48.6466 106.45V101.56H50.8516V109ZM54.5807 103.285H52.7057V101.65L54.6857 101.56L54.9707 99.58H56.7857V101.56H59.9357V103.285H56.7857V105.895C56.7857 106.465 56.9107 106.87 57.1607 107.11C57.4107 107.34 57.8057 107.455 58.3457 107.455C58.6357 107.455 58.9007 107.43 59.1407 107.38C59.3807 107.33 59.6107 107.265 59.8307 107.185L60.2207 108.775C59.8907 108.875 59.5207 108.965 59.1107 109.045C58.7107 109.135 58.2707 109.18 57.7907 109.18C57.2007 109.18 56.7007 109.1 56.2907 108.94C55.8807 108.78 55.5457 108.56 55.2857 108.28C55.0357 107.99 54.8557 107.645 54.7457 107.245C54.6357 106.845 54.5807 106.4 54.5807 105.91V103.285Z" fill="white"/>
<rect x="79" width="193" height="31" fill="#333333"/>
<rect x="79" width="193" height="31" fill="#333333"/>
<rect x="0.0107117" width="79" height="31" fill="#090808"/>
<path d="M12.1157 17.8101C12.1157 17.5513 11.9863 17.3486 11.7275 17.2021C11.4736 17.0508 11.0634 16.9165 10.497 16.7993C8.61227 16.4038 7.66989 15.603 7.66989 14.397C7.66989 13.6938 7.96042 13.1079 8.54147 12.6392C9.12741 12.1655 9.89157 11.9287 10.834 11.9287C11.8398 11.9287 12.643 12.1655 13.2436 12.6392C13.8491 13.1128 14.1518 13.728 14.1518 14.4849H12.0351C12.0351 14.1821 11.9375 13.9331 11.7422 13.7378C11.5468 13.5376 11.2417 13.4375 10.8266 13.4375C10.4702 13.4375 10.1943 13.5181 9.99899 13.6792C9.80368 13.8403 9.70602 14.0454 9.70602 14.2944C9.70602 14.5288 9.81589 14.7192 10.0356 14.8657C10.2602 15.0073 10.6362 15.1318 11.1635 15.2393C11.6909 15.3418 12.1352 15.459 12.4966 15.5908C13.6147 16.001 14.1738 16.7114 14.1738 17.7222C14.1738 18.4448 13.8637 19.0308 13.2436 19.48C12.6235 19.9243 11.8227 20.1465 10.8413 20.1465C10.1772 20.1465 9.5864 20.0293 9.06882 19.7949C8.55612 19.5557 8.15329 19.231 7.86032 18.8208C7.56735 18.4058 7.42087 17.959 7.42087 17.4805H9.4277C9.44724 17.8564 9.5864 18.1445 9.84518 18.3447C10.104 18.5449 10.4507 18.645 10.8852 18.645C11.2905 18.645 11.5957 18.5693 11.8008 18.418C12.0107 18.2617 12.1157 18.0591 12.1157 17.8101ZM18.8393 18.4399C19.2299 18.4399 19.5473 18.3325 19.7915 18.1177C20.0356 17.9028 20.1626 17.6172 20.1723 17.2607H22.1572C22.1523 17.7979 22.0058 18.291 21.7177 18.7402C21.4297 19.1846 21.0341 19.5312 20.5312 19.7803C20.0332 20.0244 19.4814 20.1465 18.8759 20.1465C17.7431 20.1465 16.8496 19.7876 16.1953 19.0698C15.541 18.3472 15.2138 17.3511 15.2138 16.0815V15.9424C15.2138 14.7217 15.5385 13.7476 16.188 13.02C16.8374 12.2925 17.7285 11.9287 18.8613 11.9287C19.8525 11.9287 20.646 12.2119 21.2417 12.7783C21.8423 13.3398 22.1474 14.0894 22.1572 15.0269H20.1723C20.1626 14.6167 20.0356 14.2847 19.7915 14.0308C19.5473 13.772 19.2251 13.6426 18.8247 13.6426C18.3315 13.6426 17.958 13.8232 17.7041 14.1846C17.455 14.541 17.3305 15.1221 17.3305 15.9277V16.1475C17.3305 16.9629 17.455 17.5488 17.7041 17.9053C17.9531 18.2617 18.3315 18.4399 18.8393 18.4399ZM27.8188 14.0601C27.5307 14.021 27.2768 14.0015 27.0571 14.0015C26.2563 14.0015 25.7314 14.2725 25.4824 14.8145V20H23.3657V12.0752H25.3652L25.4238 13.02C25.8486 12.2925 26.437 11.9287 27.1889 11.9287C27.4233 11.9287 27.643 11.9604 27.8481 12.0239L27.8188 14.0601ZM31.0781 20H28.9541V12.0752H31.0781V20ZM28.8296 10.0244C28.8296 9.70703 28.9345 9.4458 29.1445 9.24072C29.3593 9.03564 29.6499 8.93311 30.0161 8.93311C30.3774 8.93311 30.6655 9.03564 30.8803 9.24072C31.0952 9.4458 31.2026 9.70703 31.2026 10.0244C31.2026 10.3467 31.0927 10.6104 30.873 10.8154C30.6582 11.0205 30.3725 11.123 30.0161 11.123C29.6596 11.123 29.3716 11.0205 29.1518 10.8154C28.937 10.6104 28.8296 10.3467 28.8296 10.0244ZM39.9624 16.1108C39.9624 17.3315 39.6841 18.3105 39.1274 19.0479C38.5757 19.7803 37.8286 20.1465 36.8862 20.1465C36.0854 20.1465 35.4384 19.8682 34.9453 19.3115V23.0469H32.8286V12.0752H34.7915L34.8647 12.8516C35.3774 12.2363 36.0464 11.9287 36.8716 11.9287C37.8481 11.9287 38.6074 12.29 39.1494 13.0127C39.6914 13.7354 39.9624 14.7314 39.9624 16.001V16.1108ZM37.8457 15.957C37.8457 15.2197 37.7138 14.6509 37.4502 14.2505C37.1914 13.8501 36.813 13.6499 36.3149 13.6499C35.6508 13.6499 35.1943 13.9038 34.9453 14.4116V17.6562C35.2041 18.1787 35.6655 18.4399 36.3296 18.4399C37.3403 18.4399 37.8457 17.6123 37.8457 15.957ZM43.8149 10.127V12.0752H45.1699V13.6279H43.8149V17.583C43.8149 17.876 43.8711 18.0859 43.9834 18.2129C44.0957 18.3398 44.3105 18.4033 44.6279 18.4033C44.8623 18.4033 45.0698 18.3862 45.2505 18.3521V19.9561C44.8354 20.083 44.4082 20.1465 43.9687 20.1465C42.4843 20.1465 41.7275 19.397 41.6982 17.8979V13.6279H40.541V12.0752H41.6982V10.127H43.8149ZM46.459 18.96C46.459 18.623 46.5713 18.3496 46.7959 18.1396C47.0254 17.9297 47.311 17.8247 47.6528 17.8247C47.9995 17.8247 48.2851 17.9297 48.5097 18.1396C48.7392 18.3496 48.854 18.623 48.854 18.96C48.854 19.292 48.7417 19.563 48.5171 19.7729C48.2924 19.978 48.0044 20.0806 47.6528 20.0806C47.3061 20.0806 47.0205 19.978 46.7959 19.7729C46.5713 19.563 46.459 19.292 46.459 18.96ZM57.8481 16.1108C57.8481 17.3315 57.5698 18.3105 57.0132 19.0479C56.4614 19.7803 55.7143 20.1465 54.7719 20.1465C53.9712 20.1465 53.3242 19.8682 52.831 19.3115V23.0469H50.7143V12.0752H52.6772L52.7505 12.8516C53.2632 12.2363 53.9321 11.9287 54.7573 11.9287C55.7339 11.9287 56.4931 12.29 57.0351 13.0127C57.5771 13.7354 57.8481 14.7314 57.8481 16.001V16.1108ZM55.7314 15.957C55.7314 15.2197 55.5996 14.6509 55.3359 14.2505C55.0771 13.8501 54.6987 13.6499 54.2007 13.6499C53.5366 13.6499 53.08 13.9038 52.831 14.4116V17.6562C53.0898 18.1787 53.5512 18.4399 54.2153 18.4399C55.226 18.4399 55.7314 17.6123 55.7314 15.957ZM62.0376 17.0044L63.5024 12.0752H65.7729L62.5869 21.2305L62.4111 21.6479C61.9375 22.6831 61.1562 23.2007 60.0674 23.2007C59.7597 23.2007 59.4472 23.1543 59.1299 23.0615V21.4575L59.4521 21.4648C59.8525 21.4648 60.1504 21.4038 60.3457 21.2817C60.5459 21.1597 60.7021 20.957 60.8144 20.6738L61.0634 20.022L58.2876 12.0752H60.5654L62.0376 17.0044Z" fill="white"/>
<line y1="88.5" x2="272" y2="88.5" stroke="white"/>
<path d="M7.83571 47.28C7.83571 46.67 7.94071 46.125 8.15071 45.645C8.37071 45.165 8.66071 44.76 9.02071 44.43C9.38071 44.09 9.79071 43.83 10.2507 43.65C10.7207 43.47 11.2057 43.38 11.7057 43.38C12.2757 43.38 12.7807 43.47 13.2207 43.65C13.6607 43.83 14.0257 44.08 14.3157 44.4C14.6057 44.72 14.8257 45.1 14.9757 45.54C15.1257 45.97 15.2007 46.44 15.2007 46.95C15.2007 47.15 15.1907 47.34 15.1707 47.52C15.1507 47.7 15.1307 47.835 15.1107 47.925H10.1007C10.1807 48.485 10.4207 48.89 10.8207 49.14C11.2307 49.38 11.7107 49.5 12.2607 49.5C12.6007 49.5 12.9207 49.46 13.2207 49.38C13.5307 49.29 13.8507 49.16 14.1807 48.99L14.9007 50.31C14.4807 50.58 14.0107 50.795 13.4907 50.955C12.9707 51.105 12.4607 51.18 11.9607 51.18C11.3807 51.18 10.8407 51.095 10.3407 50.925C9.84071 50.745 9.40571 50.49 9.03571 50.16C8.66571 49.82 8.37071 49.41 8.15071 48.93C7.94071 48.45 7.83571 47.9 7.83571 47.28ZM13.2057 46.47C13.2057 46.05 13.0907 45.71 12.8607 45.45C12.6307 45.19 12.2607 45.06 11.7507 45.06C11.3507 45.06 10.9957 45.175 10.6857 45.405C10.3757 45.635 10.1707 45.99 10.0707 46.47H13.2057ZM16.9349 40.485H21.2999V48.18C21.2999 48.41 21.3299 48.605 21.3899 48.765C21.4599 48.915 21.5499 49.04 21.6599 49.14C21.7799 49.23 21.9099 49.295 22.0499 49.335C22.1999 49.375 22.3499 49.395 22.4999 49.395C22.6699 49.395 22.8499 49.38 23.0399 49.35C23.2299 49.31 23.4399 49.245 23.6699 49.155L24.1649 50.775C23.9649 50.835 23.7799 50.89 23.6099 50.94C23.4399 50.99 23.2699 51.03 23.0999 51.06C22.9299 51.1 22.7499 51.13 22.5599 51.15C22.3699 51.17 22.1599 51.18 21.9299 51.18C20.9899 51.18 20.2799 50.905 19.7999 50.355C19.3299 49.795 19.0949 49.04 19.0949 48.09V42.225H16.9349V40.485ZM26.184 43.56H31.374V51H29.169V45.285H26.184V43.56ZM30.174 42.465C29.744 42.465 29.389 42.345 29.109 42.105C28.839 41.865 28.704 41.54 28.704 41.13C28.704 40.72 28.839 40.39 29.109 40.14C29.389 39.88 29.744 39.75 30.174 39.75C30.604 39.75 30.954 39.88 31.224 40.14C31.504 40.39 31.644 40.72 31.644 41.13C31.644 41.54 31.504 41.865 31.224 42.105C30.954 42.345 30.604 42.465 30.174 42.465ZM42.3481 42.33C41.8581 42.14 41.3381 42.045 40.7881 42.045C40.3081 42.045 39.9531 42.15 39.7231 42.36C39.5031 42.57 39.3931 42.9 39.3931 43.35V43.56H41.9581V45.285H39.3931V51H37.1881V45.285H35.2231V43.65L37.1881 43.56V43.365C37.1881 42.935 37.2531 42.535 37.3831 42.165C37.5131 41.795 37.7131 41.475 37.9831 41.205C38.2531 40.925 38.5981 40.705 39.0181 40.545C39.4381 40.385 39.9381 40.305 40.5181 40.305C40.9481 40.305 41.3481 40.345 41.7181 40.425C42.0981 40.505 42.4481 40.6 42.7681 40.71L42.3481 42.33Z" fill="#E69F00"/>
<path d="M45.7473 44.58C45.7473 44.33 45.7873 44.1 45.8673 43.89C45.9573 43.67 46.0773 43.48 46.2273 43.32C46.3773 43.16 46.5573 43.035 46.7673 42.945C46.9873 42.855 47.2273 42.81 47.4873 42.81C47.7473 42.81 47.9823 42.855 48.1923 42.945C48.4123 43.035 48.5973 43.16 48.7473 43.32C48.8973 43.48 49.0123 43.67 49.0923 43.89C49.1823 44.1 49.2273 44.33 49.2273 44.58C49.2273 45.08 49.0673 45.5 48.7473 45.84C48.4273 46.17 48.0073 46.335 47.4873 46.335C46.9673 46.335 46.5473 46.17 46.2273 45.84C45.9073 45.5 45.7473 45.08 45.7473 44.58ZM45.7473 49.425C45.7473 49.175 45.7873 48.945 45.8673 48.735C45.9573 48.515 46.0773 48.325 46.2273 48.165C46.3773 48.005 46.5573 47.88 46.7673 47.79C46.9873 47.7 47.2273 47.655 47.4873 47.655C47.7473 47.655 47.9823 47.7 48.1923 47.79C48.4123 47.88 48.5973 48.005 48.7473 48.165C48.8973 48.325 49.0123 48.515 49.0923 48.735C49.1823 48.945 49.2273 49.175 49.2273 49.425C49.2273 49.925 49.0673 50.345 48.7473 50.685C48.4273 51.015 48.0073 51.18 47.4873 51.18C46.9673 51.18 46.5473 51.015 46.2273 50.685C45.9073 50.345 45.7473 49.925 45.7473 49.425ZM93.838 72.685C92.858 71.815 92.083 70.81 91.513 69.67C90.953 68.53 90.673 67.25 90.673 65.83C90.673 64.41 90.953 63.13 91.513 61.99C92.083 60.85 92.858 59.845 93.838 58.975L95.068 59.95C94.178 60.82 93.528 61.725 93.118 62.665C92.718 63.595 92.518 64.65 92.518 65.83C92.518 66.42 92.568 66.98 92.668 67.51C92.768 68.03 92.918 68.53 93.118 69.01C93.328 69.49 93.593 69.95 93.913 70.39C94.233 70.84 94.618 71.28 95.068 71.71L93.838 72.685ZM107.836 71.71C108.286 71.28 108.671 70.84 108.991 70.39C109.311 69.95 109.571 69.49 109.771 69.01C109.981 68.53 110.136 68.03 110.236 67.51C110.336 66.98 110.386 66.42 110.386 65.83C110.386 64.65 110.181 63.595 109.771 62.665C109.371 61.725 108.726 60.82 107.836 59.95L109.066 58.975C110.046 59.845 110.816 60.85 111.376 61.99C111.946 63.13 112.231 64.41 112.231 65.83C112.231 67.25 111.946 68.53 111.376 69.67C110.816 70.81 110.046 71.815 109.066 72.685L107.836 71.71Z" fill="white"/>
<path d="M46.2723 70.585V72.76H44.0673V62.56H45.8673L46.0323 63.31H46.0773C46.3773 63.04 46.7223 62.82 47.1123 62.65C47.5023 62.47 47.8973 62.38 48.2973 62.38C48.7573 62.38 49.1723 62.47 49.5423 62.65C49.9123 62.83 50.2273 63.085 50.4873 63.415C50.7473 63.745 50.9423 64.145 51.0723 64.615C51.2123 65.075 51.2823 65.59 51.2823 66.16C51.2823 66.8 51.1923 67.37 51.0123 67.87C50.8323 68.36 50.5923 68.78 50.2923 69.13C49.9923 69.47 49.6473 69.73 49.2573 69.91C48.8773 70.09 48.4773 70.18 48.0573 70.18C47.3773 70.18 46.7573 69.91 46.1973 69.37L46.2723 70.585ZM46.2723 67.885C46.4823 68.065 46.6973 68.195 46.9173 68.275C47.1473 68.345 47.3573 68.38 47.5473 68.38C47.9673 68.38 48.3173 68.21 48.5973 67.87C48.8773 67.52 49.0173 66.96 49.0173 66.19C49.0173 64.85 48.5623 64.18 47.6523 64.18C47.1823 64.18 46.7223 64.41 46.2723 64.87V67.885ZM53.7214 62.56H55.5214L55.7014 64.18H55.7464C56.1164 63.57 56.5614 63.12 57.0814 62.83C57.6014 62.53 58.1614 62.38 58.7614 62.38C59.0914 62.38 59.3564 62.405 59.5564 62.455C59.7664 62.505 59.9814 62.58 60.2014 62.68L59.7514 64.525C59.5214 64.455 59.3114 64.405 59.1214 64.375C58.9414 64.335 58.7114 64.315 58.4314 64.315C57.9714 64.315 57.5164 64.45 57.0664 64.72C56.6264 64.99 56.2464 65.46 55.9264 66.13V70H53.7214V62.56ZM62.1606 62.56H67.3506V70H65.1456V64.285H62.1606V62.56ZM66.1506 61.465C65.7206 61.465 65.3656 61.345 65.0856 61.105C64.8156 60.865 64.6806 60.54 64.6806 60.13C64.6806 59.72 64.8156 59.39 65.0856 59.14C65.3656 58.88 65.7206 58.75 66.1506 58.75C66.5806 58.75 66.9306 58.88 67.2006 59.14C67.4806 59.39 67.6206 59.72 67.6206 60.13C67.6206 60.54 67.4806 60.865 67.2006 61.105C66.9306 61.345 66.5806 61.465 66.1506 61.465ZM71.0497 62.56H72.8497L73.0147 63.55H73.0747C73.3947 63.23 73.7597 62.955 74.1697 62.725C74.5897 62.495 75.0797 62.38 75.6397 62.38C76.4797 62.38 77.0947 62.65 77.4847 63.19C77.8747 63.73 78.0697 64.47 78.0697 65.41V70H75.8647V65.695C75.8647 65.195 75.7847 64.83 75.6247 64.6C75.4647 64.37 75.1797 64.255 74.7697 64.255C74.4697 64.255 74.2047 64.32 73.9747 64.45C73.7547 64.58 73.5147 64.775 73.2547 65.035V70H71.0497V62.56ZM81.5738 64.285H79.6988V62.65L81.6788 62.56L81.9638 60.58H83.7788V62.56H86.9288V64.285H83.7788V66.895C83.7788 67.465 83.9038 67.87 84.1538 68.11C84.4038 68.34 84.7988 68.455 85.3388 68.455C85.6288 68.455 85.8938 68.43 86.1338 68.38C86.3738 68.33 86.6038 68.265 86.8238 68.185L87.2138 69.775C86.8838 69.875 86.5138 69.965 86.1038 70.045C85.7038 70.135 85.2638 70.18 84.7838 70.18C84.1938 70.18 83.6938 70.1 83.2838 69.94C82.8738 69.78 82.5388 69.56 82.2788 69.28C82.0288 68.99 81.8488 68.645 81.7388 68.245C81.6288 67.845 81.5738 67.4 81.5738 66.91V64.285Z" fill="#56B4E9"/>
<path d="M105.007 68.215V70H98.1821V68.215H100.642V62.71H98.6771V61.345C99.2371 61.245 99.7121 61.125 100.102 60.985C100.502 60.845 100.877 60.675 101.227 60.475H102.847V68.215H105.007Z" fill="#F0E442"/>
</svg>
