<svg width="268" height="157" viewBox="0 0 268 157" fill="none" xmlns="http://www.w3.org/2000/svg">
<rect width="268" height="157" fill="black"/>
<rect x="79" width="189" height="31" fill="#333333"/>
<rect x="79" width="189" height="31" fill="#333333"/>
<rect width="79" height="31" fill="#090808"/>
<path d="M12.105 17.8101C12.105 17.5513 11.9756 17.3486 11.7168 17.2021C11.4629 17.0508 11.0527 16.9165 10.4863 16.7993C8.60156 16.4038 7.65918 15.603 7.65918 14.397C7.65918 13.6938 7.94971 13.1079 8.53076 12.6392C9.1167 12.1655 9.88086 11.9287 10.8232 11.9287C11.8291 11.9287 12.6323 12.1655 13.2329 12.6392C13.8384 13.1128 14.1411 13.728 14.1411 14.4849H12.0244C12.0244 14.1821 11.9268 13.9331 11.7314 13.7378C11.5361 13.5376 11.231 13.4375 10.8159 13.4375C10.4595 13.4375 10.1836 13.5181 9.98828 13.6792C9.79297 13.8403 9.69531 14.0454 9.69531 14.2944C9.69531 14.5288 9.80518 14.7192 10.0249 14.8657C10.2495 15.0073 10.6255 15.1318 11.1528 15.2393C11.6802 15.3418 12.1245 15.459 12.4858 15.5908C13.604 16.001 14.1631 16.7114 14.1631 17.7222C14.1631 18.4448 13.853 19.0308 13.2329 19.48C12.6128 19.9243 11.812 20.1465 10.8306 20.1465C10.1665 20.1465 9.57568 20.0293 9.05811 19.7949C8.54541 19.5557 8.14258 19.231 7.84961 18.8208C7.55664 18.4058 7.41016 17.959 7.41016 17.4805H9.41699C9.43652 17.8564 9.57568 18.1445 9.83447 18.3447C10.0933 18.5449 10.4399 18.645 10.8745 18.645C11.2798 18.645 11.585 18.5693 11.79 18.418C12 18.2617 12.105 18.0591 12.105 17.8101ZM18.8286 18.4399C19.2192 18.4399 19.5366 18.3325 19.7808 18.1177C20.0249 17.9028 20.1519 17.6172 20.1616 17.2607H22.1465C22.1416 17.7979 21.9951 18.291 21.707 18.7402C21.4189 19.1846 21.0234 19.5312 20.5205 19.7803C20.0225 20.0244 19.4707 20.1465 18.8652 20.1465C17.7324 20.1465 16.8389 19.7876 16.1846 19.0698C15.5303 18.3472 15.2031 17.3511 15.2031 16.0815V15.9424C15.2031 14.7217 15.5278 13.7476 16.1772 13.02C16.8267 12.2925 17.7178 11.9287 18.8506 11.9287C19.8418 11.9287 20.6353 12.2119 21.231 12.7783C21.8315 13.3398 22.1367 14.0894 22.1465 15.0269H20.1616C20.1519 14.6167 20.0249 14.2847 19.7808 14.0308C19.5366 13.772 19.2144 13.6426 18.814 13.6426C18.3208 13.6426 17.9473 13.8232 17.6934 14.1846C17.4443 14.541 17.3198 15.1221 17.3198 15.9277V16.1475C17.3198 16.9629 17.4443 17.5488 17.6934 17.9053C17.9424 18.2617 18.3208 18.4399 18.8286 18.4399ZM27.8081 14.0601C27.52 14.021 27.2661 14.0015 27.0464 14.0015C26.2456 14.0015 25.7207 14.2725 25.4717 14.8145V20H23.355V12.0752H25.3545L25.4131 13.02C25.8379 12.2925 26.4263 11.9287 27.1782 11.9287C27.4126 11.9287 27.6323 11.9604 27.8374 12.0239L27.8081 14.0601ZM31.0674 20H28.9434V12.0752H31.0674V20ZM28.8188 10.0244C28.8188 9.70703 28.9238 9.4458 29.1338 9.24072C29.3486 9.03564 29.6392 8.93311 30.0054 8.93311C30.3667 8.93311 30.6548 9.03564 30.8696 9.24072C31.0845 9.4458 31.1919 9.70703 31.1919 10.0244C31.1919 10.3467 31.082 10.6104 30.8623 10.8154C30.6475 11.0205 30.3618 11.123 30.0054 11.123C29.6489 11.123 29.3608 11.0205 29.1411 10.8154C28.9263 10.6104 28.8188 10.3467 28.8188 10.0244ZM39.9517 16.1108C39.9517 17.3315 39.6733 18.3105 39.1167 19.0479C38.5649 19.7803 37.8179 20.1465 36.8755 20.1465C36.0747 20.1465 35.4277 19.8682 34.9346 19.3115V23.0469H32.8179V12.0752H34.7808L34.854 12.8516C35.3667 12.2363 36.0356 11.9287 36.8608 11.9287C37.8374 11.9287 38.5967 12.29 39.1387 13.0127C39.6807 13.7354 39.9517 14.7314 39.9517 16.001V16.1108ZM37.835 15.957C37.835 15.2197 37.7031 14.6509 37.4395 14.2505C37.1807 13.8501 36.8022 13.6499 36.3042 13.6499C35.6401 13.6499 35.1836 13.9038 34.9346 14.4116V17.6562C35.1934 18.1787 35.6548 18.4399 36.3188 18.4399C37.3296 18.4399 37.835 17.6123 37.835 15.957ZM43.8042 10.127V12.0752H45.1592V13.6279H43.8042V17.583C43.8042 17.876 43.8604 18.0859 43.9727 18.2129C44.085 18.3398 44.2998 18.4033 44.6172 18.4033C44.8516 18.4033 45.0591 18.3862 45.2397 18.3521V19.9561C44.8247 20.083 44.3975 20.1465 43.958 20.1465C42.4736 20.1465 41.7168 19.397 41.6875 17.8979V13.6279H40.5303V12.0752H41.6875V10.127H43.8042ZM46.4482 18.96C46.4482 18.623 46.5605 18.3496 46.7852 18.1396C47.0146 17.9297 47.3003 17.8247 47.6421 17.8247C47.9888 17.8247 48.2744 17.9297 48.499 18.1396C48.7285 18.3496 48.8433 18.623 48.8433 18.96C48.8433 19.292 48.731 19.563 48.5063 19.7729C48.2817 19.978 47.9937 20.0806 47.6421 20.0806C47.2954 20.0806 47.0098 19.978 46.7852 19.7729C46.5605 19.563 46.4482 19.292 46.4482 18.96ZM57.8374 16.1108C57.8374 17.3315 57.5591 18.3105 57.0024 19.0479C56.4507 19.7803 55.7036 20.1465 54.7612 20.1465C53.9604 20.1465 53.3135 19.8682 52.8203 19.3115V23.0469H50.7036V12.0752H52.6665L52.7397 12.8516C53.2524 12.2363 53.9214 11.9287 54.7466 11.9287C55.7231 11.9287 56.4824 12.29 57.0244 13.0127C57.5664 13.7354 57.8374 14.7314 57.8374 16.001V16.1108ZM55.7207 15.957C55.7207 15.2197 55.5889 14.6509 55.3252 14.2505C55.0664 13.8501 54.688 13.6499 54.1899 13.6499C53.5259 13.6499 53.0693 13.9038 52.8203 14.4116V17.6562C53.0791 18.1787 53.5405 18.4399 54.2046 18.4399C55.2153 18.4399 55.7207 17.6123 55.7207 15.957ZM62.0269 17.0044L63.4917 12.0752H65.7622L62.5762 21.2305L62.4004 21.6479C61.9268 22.6831 61.1455 23.2007 60.0566 23.2007C59.749 23.2007 59.4365 23.1543 59.1191 23.0615V21.4575L59.4414 21.4648C59.8418 21.4648 60.1396 21.4038 60.335 21.2817C60.5352 21.1597 60.6914 20.957 60.8037 20.6738L61.0527 20.022L58.2769 12.0752H60.5547L62.0269 17.0044Z" fill="white"/>
<path d="M7.93 40.485H12.295V48.18C12.295 48.41 12.325 48.605 12.385 48.765C12.455 48.915 12.545 49.04 12.655 49.14C12.775 49.23 12.905 49.295 13.045 49.335C13.195 49.375 13.345 49.395 13.495 49.395C13.665 49.395 13.845 49.38 14.035 49.35C14.225 49.31 14.435 49.245 14.665 49.155L15.16 50.775C14.96 50.835 14.775 50.89 14.605 50.94C14.435 50.99 14.265 51.03 14.095 51.06C13.925 51.1 13.745 51.13 13.555 51.15C13.365 51.17 13.155 51.18 12.925 51.18C11.985 51.18 11.275 50.905 10.795 50.355C10.325 49.795 10.09 49.04 10.09 48.09V42.225H7.93V40.485ZM17.1791 43.56H22.3691V51H20.1641V45.285H17.1791V43.56ZM21.1691 42.465C20.7391 42.465 20.3841 42.345 20.1041 42.105C19.8341 41.865 19.6991 41.54 19.6991 41.13C19.6991 40.72 19.8341 40.39 20.1041 40.14C20.3841 39.88 20.7391 39.75 21.1691 39.75C21.5991 39.75 21.9491 39.88 22.2191 40.14C22.4991 40.39 22.6391 40.72 22.6391 41.13C22.6391 41.54 22.4991 41.865 22.2191 42.105C21.9491 42.345 21.5991 42.465 21.1691 42.465ZM26.7733 48.66C27.2033 48.93 27.6333 49.145 28.0633 49.305C28.5033 49.465 28.9733 49.545 29.4733 49.545C29.9833 49.545 30.3483 49.49 30.5683 49.38C30.7883 49.27 30.8983 49.115 30.8983 48.915C30.8983 48.685 30.7133 48.5 30.3433 48.36C29.9833 48.21 29.5033 48.05 28.9033 47.88C28.5733 47.79 28.2483 47.685 27.9283 47.565C27.6183 47.435 27.3383 47.285 27.0883 47.115C26.8383 46.935 26.6333 46.73 26.4733 46.5C26.3233 46.27 26.2483 46.005 26.2483 45.705C26.2483 45.365 26.3283 45.05 26.4883 44.76C26.6483 44.47 26.8733 44.225 27.1633 44.025C27.4633 43.825 27.8233 43.67 28.2433 43.56C28.6733 43.44 29.1533 43.38 29.6833 43.38C30.3433 43.38 30.9433 43.49 31.4833 43.71C32.0333 43.92 32.5033 44.15 32.8933 44.4L31.9033 45.72C31.5633 45.52 31.2133 45.355 30.8533 45.225C30.4933 45.085 30.1183 45.015 29.7283 45.015C29.2583 45.015 28.9233 45.065 28.7233 45.165C28.5333 45.265 28.4383 45.41 28.4383 45.6C28.4383 45.71 28.4883 45.81 28.5883 45.9C28.6883 45.99 28.8233 46.07 28.9933 46.14C29.1633 46.21 29.3633 46.28 29.5933 46.35C29.8333 46.41 30.0833 46.475 30.3433 46.545C30.7133 46.645 31.0633 46.76 31.3933 46.89C31.7233 47.01 32.0133 47.155 32.2633 47.325C32.5133 47.495 32.7133 47.7 32.8633 47.94C33.0133 48.18 33.0883 48.46 33.0883 48.78C33.0883 49.12 33.0083 49.435 32.8483 49.725C32.6883 50.015 32.4533 50.27 32.1433 50.49C31.8433 50.7 31.4633 50.87 31.0033 51C30.5533 51.12 30.0283 51.18 29.4283 51.18C28.7583 51.18 28.1033 51.07 27.4633 50.85C26.8233 50.63 26.2633 50.36 25.7833 50.04L26.7733 48.66ZM36.5924 45.285H34.7174V43.65L36.6974 43.56L36.9824 41.58H38.7974V43.56H41.9474V45.285H38.7974V47.895C38.7974 48.465 38.9224 48.87 39.1724 49.11C39.4224 49.34 39.8174 49.455 40.3574 49.455C40.6474 49.455 40.9124 49.43 41.1524 49.38C41.3924 49.33 41.6224 49.265 41.8424 49.185L42.2324 50.775C41.9024 50.875 41.5324 50.965 41.1224 51.045C40.7224 51.135 40.2824 51.18 39.8024 51.18C39.2124 51.18 38.7124 51.1 38.3024 50.94C37.8924 50.78 37.5574 50.56 37.2974 50.28C37.0474 49.99 36.8674 49.645 36.7574 49.245C36.6474 48.845 36.5924 48.4 36.5924 47.91V45.285ZM51.0766 51.81V53.46H43.8766V51.81H51.0766ZM60.0257 49.215V51H53.2007V49.215H55.6607V43.71H53.6957V42.345C54.2557 42.245 54.7307 42.125 55.1207 41.985C55.5207 41.845 55.8957 41.675 56.2457 41.475H57.8657V49.215H60.0257ZM71.009 43.53H77.909V45.09H71.009V43.53ZM71.009 46.995H77.909V48.555H71.009V46.995ZM90.9623 40.38H95.3873V41.55H92.6423V52.11H95.3873V53.28H90.9623V40.38ZM117.66 52.965C118.96 52.515 119.61 51.805 119.61 50.835C119.57 50.845 119.515 50.85 119.445 50.85C119.235 50.85 119.03 50.82 118.83 50.76C118.64 50.69 118.47 50.59 118.32 50.46C118.17 50.33 118.05 50.17 117.96 49.98C117.87 49.79 117.825 49.57 117.825 49.32C117.825 48.85 117.985 48.475 118.305 48.195C118.635 47.915 119.035 47.775 119.505 47.775C120.125 47.775 120.59 48.005 120.9 48.465C121.21 48.915 121.365 49.545 121.365 50.355C121.365 51.315 121.1 52.125 120.57 52.785C120.04 53.445 119.255 53.935 118.215 54.255L117.66 52.965ZM144.642 52.965C145.942 52.515 146.592 51.805 146.592 50.835C146.552 50.845 146.497 50.85 146.427 50.85C146.217 50.85 146.012 50.82 145.812 50.76C145.622 50.69 145.452 50.59 145.302 50.46C145.152 50.33 145.032 50.17 144.942 49.98C144.852 49.79 144.807 49.57 144.807 49.32C144.807 48.85 144.967 48.475 145.287 48.195C145.617 47.915 146.017 47.775 146.487 47.775C147.107 47.775 147.572 48.005 147.882 48.465C148.192 48.915 148.347 49.545 148.347 50.355C148.347 51.315 148.082 52.125 147.552 52.785C147.022 53.445 146.237 53.935 145.197 54.255L144.642 52.965ZM180.619 52.965C181.919 52.515 182.569 51.805 182.569 50.835C182.529 50.845 182.474 50.85 182.404 50.85C182.194 50.85 181.989 50.82 181.789 50.76C181.599 50.69 181.429 50.59 181.279 50.46C181.129 50.33 181.009 50.17 180.919 49.98C180.829 49.79 180.784 49.57 180.784 49.32C180.784 48.85 180.944 48.475 181.264 48.195C181.594 47.915 181.994 47.775 182.464 47.775C183.084 47.775 183.549 48.005 183.859 48.465C184.169 48.915 184.324 49.545 184.324 50.355C184.324 51.315 184.059 52.125 183.529 52.785C182.999 53.445 182.214 53.935 181.174 54.255L180.619 52.965ZM207.601 52.965C208.901 52.515 209.551 51.805 209.551 50.835C209.511 50.845 209.456 50.85 209.386 50.85C209.176 50.85 208.971 50.82 208.771 50.76C208.581 50.69 208.411 50.59 208.261 50.46C208.111 50.33 207.991 50.17 207.901 49.98C207.811 49.79 207.766 49.57 207.766 49.32C207.766 48.85 207.926 48.475 208.246 48.195C208.576 47.915 208.976 47.775 209.446 47.775C210.066 47.775 210.531 48.005 210.841 48.465C211.151 48.915 211.306 49.545 211.306 50.355C211.306 51.315 211.041 52.125 210.511 52.785C209.981 53.445 209.196 53.935 208.156 54.255L207.601 52.965ZM236.159 52.11V41.55H233.429V40.38H237.854V53.28H233.429V52.11H236.159ZM39.8624 90.685C38.8824 89.815 38.1074 88.81 37.5374 87.67C36.9774 86.53 36.6974 85.25 36.6974 83.83C36.6974 82.41 36.9774 81.13 37.5374 79.99C38.1074 78.85 38.8824 77.845 39.8624 76.975L41.0924 77.95C40.2024 78.82 39.5524 79.725 39.1424 80.665C38.7424 81.595 38.5424 82.65 38.5424 83.83C38.5424 84.42 38.5924 84.98 38.6924 85.51C38.7924 86.03 38.9424 86.53 39.1424 87.01C39.3524 87.49 39.6174 87.95 39.9374 88.39C40.2574 88.84 40.6424 89.28 41.0924 89.71L39.8624 90.685ZM43.9066 77.485H48.2716V85.18C48.2716 85.41 48.3016 85.605 48.3616 85.765C48.4316 85.915 48.5216 86.04 48.6316 86.14C48.7516 86.23 48.8816 86.295 49.0216 86.335C49.1716 86.375 49.3216 86.395 49.4716 86.395C49.6416 86.395 49.8216 86.38 50.0116 86.35C50.2016 86.31 50.4116 86.245 50.6416 86.155L51.1366 87.775C50.9366 87.835 50.7516 87.89 50.5816 87.94C50.4116 87.99 50.2416 88.03 50.0716 88.06C49.9016 88.1 49.7216 88.13 49.5316 88.15C49.3416 88.17 49.1316 88.18 48.9016 88.18C47.9616 88.18 47.2516 87.905 46.7716 87.355C46.3016 86.795 46.0666 86.04 46.0666 85.09V79.225H43.9066V77.485ZM53.1557 80.56H58.3457V88H56.1407V82.285H53.1557V80.56ZM57.1457 79.465C56.7157 79.465 56.3607 79.345 56.0807 79.105C55.8107 78.865 55.6757 78.54 55.6757 78.13C55.6757 77.72 55.8107 77.39 56.0807 77.14C56.3607 76.88 56.7157 76.75 57.1457 76.75C57.5757 76.75 57.9257 76.88 58.1957 77.14C58.4757 77.39 58.6157 77.72 58.6157 78.13C58.6157 78.54 58.4757 78.865 58.1957 79.105C57.9257 79.345 57.5757 79.465 57.1457 79.465ZM62.7498 85.66C63.1798 85.93 63.6098 86.145 64.0398 86.305C64.4798 86.465 64.9498 86.545 65.4498 86.545C65.9598 86.545 66.3248 86.49 66.5448 86.38C66.7648 86.27 66.8748 86.115 66.8748 85.915C66.8748 85.685 66.6898 85.5 66.3198 85.36C65.9598 85.21 65.4798 85.05 64.8798 84.88C64.5498 84.79 64.2248 84.685 63.9048 84.565C63.5948 84.435 63.3148 84.285 63.0648 84.115C62.8148 83.935 62.6098 83.73 62.4498 83.5C62.2998 83.27 62.2248 83.005 62.2248 82.705C62.2248 82.365 62.3048 82.05 62.4648 81.76C62.6248 81.47 62.8498 81.225 63.1398 81.025C63.4398 80.825 63.7998 80.67 64.2198 80.56C64.6498 80.44 65.1298 80.38 65.6598 80.38C66.3198 80.38 66.9198 80.49 67.4598 80.71C68.0098 80.92 68.4798 81.15 68.8698 81.4L67.8798 82.72C67.5398 82.52 67.1898 82.355 66.8298 82.225C66.4698 82.085 66.0948 82.015 65.7048 82.015C65.2348 82.015 64.8998 82.065 64.6998 82.165C64.5098 82.265 64.4148 82.41 64.4148 82.6C64.4148 82.71 64.4648 82.81 64.5648 82.9C64.6648 82.99 64.7998 83.07 64.9698 83.14C65.1398 83.21 65.3398 83.28 65.5698 83.35C65.8098 83.41 66.0598 83.475 66.3198 83.545C66.6898 83.645 67.0398 83.76 67.3698 83.89C67.6998 84.01 67.9898 84.155 68.2398 84.325C68.4898 84.495 68.6898 84.7 68.8398 84.94C68.9898 85.18 69.0648 85.46 69.0648 85.78C69.0648 86.12 68.9848 86.435 68.8248 86.725C68.6648 87.015 68.4298 87.27 68.1198 87.49C67.8198 87.7 67.4398 87.87 66.9798 88C66.5298 88.12 66.0048 88.18 65.4048 88.18C64.7348 88.18 64.0798 88.07 63.4398 87.85C62.7998 87.63 62.2398 87.36 61.7598 87.04L62.7498 85.66ZM72.569 82.285H70.694V80.65L72.674 80.56L72.959 78.58H74.774V80.56H77.924V82.285H74.774V84.895C74.774 85.465 74.899 85.87 75.149 86.11C75.399 86.34 75.794 86.455 76.334 86.455C76.624 86.455 76.889 86.43 77.129 86.38C77.369 86.33 77.599 86.265 77.819 86.185L78.209 87.775C77.879 87.875 77.509 87.965 77.099 88.045C76.699 88.135 76.259 88.18 75.779 88.18C75.189 88.18 74.689 88.1 74.279 87.94C73.869 87.78 73.534 87.56 73.274 87.28C73.024 86.99 72.844 86.645 72.734 86.245C72.624 85.845 72.569 85.4 72.569 84.91V82.285ZM87.0531 88.81V90.46H79.8531V88.81H87.0531ZM96.0023 86.215V88H89.1773V86.215H91.6373V80.71H89.6723V79.345C90.2323 79.245 90.7073 79.125 91.0973 78.985C91.4973 78.845 91.8723 78.675 92.2223 78.475H93.8423V86.215H96.0023ZM98.8314 89.71C99.2814 89.28 99.6664 88.84 99.9864 88.39C100.306 87.95 100.566 87.49 100.766 87.01C100.976 86.53 101.131 86.03 101.231 85.51C101.331 84.98 101.381 84.42 101.381 83.83C101.381 82.65 101.176 81.595 100.766 80.665C100.366 79.725 99.7214 78.82 98.8314 77.95L100.061 76.975C101.041 77.845 101.811 78.85 102.371 79.99C102.941 81.13 103.226 82.41 103.226 83.83C103.226 85.25 102.941 86.53 102.371 87.67C101.811 88.81 101.041 89.815 100.061 90.685L98.8314 89.71Z" fill="white"/>
<path d="M97.8114 49.74C98.4914 49.17 99.1114 48.64 99.6714 48.15C100.231 47.65 100.711 47.185 101.111 46.755C101.511 46.325 101.821 45.92 102.041 45.54C102.261 45.16 102.371 44.8 102.371 44.46C102.371 43.99 102.236 43.635 101.966 43.395C101.696 43.145 101.311 43.02 100.811 43.02C100.431 43.02 100.081 43.12 99.7614 43.32C99.4514 43.51 99.1614 43.735 98.8914 43.995L97.7064 42.81C97.9564 42.56 98.2014 42.34 98.4414 42.15C98.6914 41.96 98.9514 41.805 99.2214 41.685C99.5014 41.555 99.7914 41.46 100.091 41.4C100.401 41.33 100.741 41.295 101.111 41.295C101.611 41.295 102.066 41.37 102.476 41.52C102.886 41.66 103.236 41.865 103.526 42.135C103.826 42.395 104.056 42.71 104.216 43.08C104.386 43.45 104.471 43.865 104.471 44.325C104.471 44.725 104.376 45.135 104.186 45.555C103.996 45.965 103.736 46.38 103.406 46.8C103.086 47.21 102.716 47.625 102.296 48.045C101.876 48.455 101.436 48.86 100.976 49.26C101.246 49.23 101.536 49.205 101.846 49.185C102.166 49.155 102.451 49.14 102.701 49.14H104.966V51H97.8114V49.74ZM113.991 49.215V51H107.166V49.215H109.626V43.71H107.661V42.345C108.221 42.245 108.696 42.125 109.086 41.985C109.486 41.845 109.861 41.675 110.211 41.475H111.831V49.215H113.991ZM137.418 51.18C136.868 51.18 136.368 51.075 135.918 50.865C135.468 50.645 135.083 50.325 134.763 49.905C134.443 49.485 134.193 48.965 134.013 48.345C133.843 47.725 133.758 47.01 133.758 46.2C133.758 45.39 133.843 44.68 134.013 44.07C134.193 43.46 134.443 42.95 134.763 42.54C135.083 42.12 135.468 41.81 135.918 41.61C136.368 41.4 136.868 41.295 137.418 41.295C137.968 41.295 138.468 41.4 138.918 41.61C139.368 41.81 139.753 42.12 140.073 42.54C140.393 42.95 140.638 43.46 140.808 44.07C140.988 44.68 141.078 45.39 141.078 46.2C141.078 47.01 140.988 47.725 140.808 48.345C140.638 48.965 140.393 49.485 140.073 49.905C139.753 50.325 139.368 50.645 138.918 50.865C138.468 51.075 137.968 51.18 137.418 51.18ZM137.418 43.005C137.178 43.005 136.953 43.055 136.743 43.155C136.543 43.255 136.368 43.43 136.218 43.68C136.068 43.92 135.948 44.245 135.858 44.655C135.768 45.065 135.723 45.58 135.723 46.2C135.723 46.82 135.768 47.34 135.858 47.76C135.948 48.17 136.068 48.505 136.218 48.765C136.368 49.015 136.543 49.195 136.743 49.305C136.953 49.415 137.178 49.47 137.418 49.47C137.658 49.47 137.878 49.415 138.078 49.305C138.288 49.195 138.468 49.015 138.618 48.765C138.768 48.505 138.888 48.17 138.978 47.76C139.068 47.34 139.113 46.82 139.113 46.2C139.113 45.58 139.068 45.065 138.978 44.655C138.888 44.245 138.768 43.92 138.618 43.68C138.468 43.43 138.288 43.255 138.078 43.155C137.878 43.055 137.658 43.005 137.418 43.005ZM137.418 47.31C137.098 47.31 136.828 47.21 136.608 47.01C136.398 46.8 136.293 46.52 136.293 46.17C136.293 45.82 136.398 45.545 136.608 45.345C136.828 45.135 137.098 45.03 137.418 45.03C137.738 45.03 138.003 45.135 138.213 45.345C138.433 45.545 138.543 45.82 138.543 46.17C138.543 46.52 138.433 46.8 138.213 47.01C138.003 47.21 137.738 47.31 137.418 47.31ZM162.795 51C162.835 50.21 162.91 49.485 163.02 48.825C163.14 48.155 163.305 47.52 163.515 46.92C163.735 46.31 164.015 45.72 164.355 45.15C164.695 44.57 165.115 43.965 165.615 43.335H160.83V41.475H167.985V42.825C167.385 43.495 166.9 44.125 166.53 44.715C166.16 45.295 165.87 45.9 165.66 46.53C165.45 47.15 165.3 47.82 165.21 48.54C165.12 49.25 165.055 50.07 165.015 51H162.795ZM169.765 49.74C170.445 49.17 171.065 48.64 171.625 48.15C172.185 47.65 172.665 47.185 173.065 46.755C173.465 46.325 173.775 45.92 173.995 45.54C174.215 45.16 174.325 44.8 174.325 44.46C174.325 43.99 174.19 43.635 173.92 43.395C173.65 43.145 173.265 43.02 172.765 43.02C172.385 43.02 172.035 43.12 171.715 43.32C171.405 43.51 171.115 43.735 170.845 43.995L169.66 42.81C169.91 42.56 170.155 42.34 170.395 42.15C170.645 41.96 170.905 41.805 171.175 41.685C171.455 41.555 171.745 41.46 172.045 41.4C172.355 41.33 172.695 41.295 173.065 41.295C173.565 41.295 174.02 41.37 174.43 41.52C174.84 41.66 175.19 41.865 175.48 42.135C175.78 42.395 176.01 42.71 176.17 43.08C176.34 43.45 176.425 43.865 176.425 44.325C176.425 44.725 176.33 45.135 176.14 45.555C175.95 45.965 175.69 46.38 175.36 46.8C175.04 47.21 174.67 47.625 174.25 48.045C173.83 48.455 173.39 48.86 172.93 49.26C173.2 49.23 173.49 49.205 173.8 49.185C174.12 49.155 174.405 49.14 174.655 49.14H176.92V51H169.765V49.74ZM196.747 49.74C197.427 49.17 198.047 48.64 198.607 48.15C199.167 47.65 199.647 47.185 200.047 46.755C200.447 46.325 200.757 45.92 200.977 45.54C201.197 45.16 201.307 44.8 201.307 44.46C201.307 43.99 201.172 43.635 200.902 43.395C200.632 43.145 200.247 43.02 199.747 43.02C199.367 43.02 199.017 43.12 198.697 43.32C198.387 43.51 198.097 43.735 197.827 43.995L196.642 42.81C196.892 42.56 197.137 42.34 197.377 42.15C197.627 41.96 197.887 41.805 198.157 41.685C198.437 41.555 198.727 41.46 199.027 41.4C199.337 41.33 199.677 41.295 200.047 41.295C200.547 41.295 201.002 41.37 201.412 41.52C201.822 41.66 202.172 41.865 202.462 42.135C202.762 42.395 202.992 42.71 203.152 43.08C203.322 43.45 203.407 43.865 203.407 44.325C203.407 44.725 203.312 45.135 203.122 45.555C202.932 45.965 202.672 46.38 202.342 46.8C202.022 47.21 201.652 47.625 201.232 48.045C200.812 48.455 200.372 48.86 199.912 49.26C200.182 49.23 200.472 49.205 200.782 49.185C201.102 49.155 201.387 49.14 201.637 49.14H203.902V51H196.747V49.74ZM224.539 48.45C224.859 48.71 225.199 48.935 225.559 49.125C225.929 49.305 226.339 49.395 226.789 49.395C227.329 49.395 227.769 49.27 228.109 49.02C228.459 48.77 228.634 48.4 228.634 47.91C228.634 47.43 228.469 47.065 228.139 46.815C227.819 46.565 227.404 46.44 226.894 46.44C226.734 46.44 226.589 46.45 226.459 46.47C226.339 46.48 226.219 46.505 226.099 46.545C225.979 46.585 225.854 46.635 225.724 46.695C225.594 46.755 225.449 46.83 225.289 46.92L224.314 46.29L224.569 41.475H230.404V43.335H226.474L226.309 45.12C226.529 45.04 226.734 44.985 226.924 44.955C227.114 44.915 227.329 44.895 227.569 44.895C228.009 44.895 228.424 44.955 228.814 45.075C229.214 45.195 229.564 45.375 229.864 45.615C230.164 45.855 230.399 46.16 230.569 46.53C230.749 46.9 230.839 47.34 230.839 47.85C230.839 48.38 230.734 48.85 230.524 49.26C230.324 49.67 230.049 50.02 229.699 50.31C229.359 50.59 228.964 50.805 228.514 50.955C228.064 51.105 227.594 51.18 227.104 51.18C226.274 51.18 225.569 51.055 224.989 50.805C224.419 50.545 223.939 50.225 223.549 49.845L224.539 48.45Z" fill="#F0E442"/>
<path d="M7.93 77.485H12.295V85.18C12.295 85.41 12.325 85.605 12.385 85.765C12.455 85.915 12.545 86.04 12.655 86.14C12.775 86.23 12.905 86.295 13.045 86.335C13.195 86.375 13.345 86.395 13.495 86.395C13.665 86.395 13.845 86.38 14.035 86.35C14.225 86.31 14.435 86.245 14.665 86.155L15.16 87.775C14.96 87.835 14.775 87.89 14.605 87.94C14.435 87.99 14.265 88.03 14.095 88.06C13.925 88.1 13.745 88.13 13.555 88.15C13.365 88.17 13.155 88.18 12.925 88.18C11.985 88.18 11.275 87.905 10.795 87.355C10.325 86.795 10.09 86.04 10.09 85.09V79.225H7.93V77.485ZM16.8191 84.28C16.8191 83.67 16.9241 83.125 17.1341 82.645C17.3541 82.165 17.6441 81.76 18.0041 81.43C18.3641 81.09 18.7741 80.83 19.2341 80.65C19.7041 80.47 20.1891 80.38 20.6891 80.38C21.2591 80.38 21.7641 80.47 22.2041 80.65C22.6441 80.83 23.0091 81.08 23.2991 81.4C23.5891 81.72 23.8091 82.1 23.9591 82.54C24.1091 82.97 24.1841 83.44 24.1841 83.95C24.1841 84.15 24.1741 84.34 24.1541 84.52C24.1341 84.7 24.1141 84.835 24.0941 84.925H19.0841C19.1641 85.485 19.4041 85.89 19.8041 86.14C20.2141 86.38 20.6941 86.5 21.2441 86.5C21.5841 86.5 21.9041 86.46 22.2041 86.38C22.5141 86.29 22.8341 86.16 23.1641 85.99L23.8841 87.31C23.4641 87.58 22.9941 87.795 22.4741 87.955C21.9541 88.105 21.4441 88.18 20.9441 88.18C20.3641 88.18 19.8241 88.095 19.3241 87.925C18.8241 87.745 18.3891 87.49 18.0191 87.16C17.6491 86.82 17.3541 86.41 17.1341 85.93C16.9241 85.45 16.8191 84.9 16.8191 84.28ZM22.1891 83.47C22.1891 83.05 22.0741 82.71 21.8441 82.45C21.6141 82.19 21.2441 82.06 20.7341 82.06C20.3341 82.06 19.9791 82.175 19.6691 82.405C19.3591 82.635 19.1541 82.99 19.0541 83.47H22.1891ZM26.0683 80.56H27.8683L28.0333 81.55H28.0933C28.4133 81.23 28.7783 80.955 29.1883 80.725C29.6083 80.495 30.0983 80.38 30.6583 80.38C31.4983 80.38 32.1133 80.65 32.5033 81.19C32.8933 81.73 33.0883 82.47 33.0883 83.41V88H30.8833V83.695C30.8833 83.195 30.8033 82.83 30.6433 82.6C30.4833 82.37 30.1983 82.255 29.7883 82.255C29.4883 82.255 29.2233 82.32 28.9933 82.45C28.7733 82.58 28.5333 82.775 28.2733 83.035V88H26.0683V80.56Z" fill="#56B4E9"/>
<line y1="97.5" x2="268" y2="97.5" stroke="white"/>
<path d="M11.5004 118.68C10.9204 118.68 10.3854 118.565 9.8954 118.335C9.4154 118.095 9.0004 117.755 8.6504 117.315C8.3104 116.875 8.0454 116.34 7.8554 115.71C7.6654 115.08 7.5704 114.365 7.5704 113.565C7.5704 112.765 7.6654 112.055 7.8554 111.435C8.0454 110.805 8.3104 110.28 8.6504 109.86C9.0004 109.43 9.4154 109.105 9.8954 108.885C10.3854 108.655 10.9204 108.54 11.5004 108.54C12.0804 108.54 12.6104 108.655 13.0904 108.885C13.5804 109.105 13.9954 109.43 14.3354 109.86C14.6854 110.29 14.9554 110.82 15.1454 111.45C15.3354 112.07 15.4304 112.775 15.4304 113.565C15.4304 114.365 15.3354 115.08 15.1454 115.71C14.9554 116.34 14.6854 116.875 14.3354 117.315C13.9954 117.755 13.5804 118.095 13.0904 118.335C12.6104 118.565 12.0804 118.68 11.5004 118.68ZM11.5004 116.775C12.0104 116.775 12.4154 116.49 12.7154 115.92C13.0154 115.34 13.1654 114.555 13.1654 113.565C13.1654 112.585 13.0154 111.82 12.7154 111.27C12.4154 110.72 12.0104 110.445 11.5004 110.445C10.9904 110.445 10.5854 110.72 10.2854 111.27C9.9854 111.82 9.8354 112.585 9.8354 113.565C9.8354 114.555 9.9854 115.34 10.2854 115.92C10.5854 116.49 10.9904 116.775 11.5004 116.775ZM23.8695 118.5H22.0695L21.9045 117.435H21.8445C21.5145 117.815 21.1495 118.12 20.7495 118.35C20.3495 118.57 19.8795 118.68 19.3395 118.68C18.4895 118.68 17.8745 118.41 17.4945 117.87C17.1145 117.33 16.9245 116.59 16.9245 115.65V111.06H19.1295V115.365C19.1295 115.865 19.2045 116.23 19.3545 116.46C19.5045 116.69 19.7895 116.805 20.2095 116.805C20.4895 116.805 20.7345 116.745 20.9445 116.625C21.1645 116.505 21.4045 116.28 21.6645 115.95V111.06H23.8695V118.5ZM27.5987 112.785H25.7237V111.15L27.7037 111.06L27.9887 109.08H29.8037V111.06H32.9537V112.785H29.8037V115.395C29.8037 115.965 29.9287 116.37 30.1787 116.61C30.4287 116.84 30.8237 116.955 31.3637 116.955C31.6537 116.955 31.9187 116.93 32.1587 116.88C32.3987 116.83 32.6287 116.765 32.8487 116.685L33.2387 118.275C32.9087 118.375 32.5387 118.465 32.1287 118.545C31.7287 118.635 31.2887 118.68 30.8087 118.68C30.2187 118.68 29.7187 118.6 29.3087 118.44C28.8987 118.28 28.5637 118.06 28.3037 117.78C28.0537 117.49 27.8737 117.145 27.7637 116.745C27.6537 116.345 27.5987 115.9 27.5987 115.41V112.785ZM37.2678 119.085V121.26H35.0628V111.06H36.8628L37.0278 111.81H37.0728C37.3728 111.54 37.7178 111.32 38.1078 111.15C38.4978 110.97 38.8928 110.88 39.2928 110.88C39.7528 110.88 40.1678 110.97 40.5378 111.15C40.9078 111.33 41.2228 111.585 41.4828 111.915C41.7428 112.245 41.9378 112.645 42.0678 113.115C42.2078 113.575 42.2778 114.09 42.2778 114.66C42.2778 115.3 42.1878 115.87 42.0078 116.37C41.8278 116.86 41.5878 117.28 41.2878 117.63C40.9878 117.97 40.6428 118.23 40.2528 118.41C39.8728 118.59 39.4728 118.68 39.0528 118.68C38.3728 118.68 37.7528 118.41 37.1928 117.87L37.2678 119.085ZM37.2678 116.385C37.4778 116.565 37.6928 116.695 37.9128 116.775C38.1428 116.845 38.3528 116.88 38.5428 116.88C38.9628 116.88 39.3128 116.71 39.5928 116.37C39.8728 116.02 40.0128 115.46 40.0128 114.69C40.0128 113.35 39.5578 112.68 38.6478 112.68C38.1778 112.68 37.7178 112.91 37.2678 113.37V116.385ZM50.852 118.5H49.052L48.887 117.435H48.827C48.497 117.815 48.132 118.12 47.732 118.35C47.332 118.57 46.862 118.68 46.322 118.68C45.472 118.68 44.857 118.41 44.477 117.87C44.097 117.33 43.907 116.59 43.907 115.65V111.06H46.112V115.365C46.112 115.865 46.187 116.23 46.337 116.46C46.487 116.69 46.772 116.805 47.192 116.805C47.472 116.805 47.717 116.745 47.927 116.625C48.147 116.505 48.387 116.28 48.647 115.95V111.06H50.852V118.5ZM54.5811 112.785H52.7061V111.15L54.6861 111.06L54.9711 109.08H56.7861V111.06H59.9361V112.785H56.7861V115.395C56.7861 115.965 56.9111 116.37 57.1611 116.61C57.4111 116.84 57.8061 116.955 58.3461 116.955C58.6361 116.955 58.9011 116.93 59.1411 116.88C59.3811 116.83 59.6111 116.765 59.8311 116.685L60.2211 118.275C59.8911 118.375 59.5211 118.465 59.1111 118.545C58.7111 118.635 58.2711 118.68 57.7911 118.68C57.2011 118.68 56.7011 118.6 56.2911 118.44C55.8811 118.28 55.5461 118.06 55.2861 117.78C55.0361 117.49 54.8561 117.145 54.7461 116.745C54.6361 116.345 54.5811 115.9 54.5811 115.41V112.785Z" fill="white"/>
<path d="M8.6804 139.95C9.0004 140.21 9.3404 140.435 9.7004 140.625C10.0704 140.805 10.4804 140.895 10.9304 140.895C11.4704 140.895 11.9104 140.77 12.2504 140.52C12.6004 140.27 12.7754 139.9 12.7754 139.41C12.7754 138.93 12.6104 138.565 12.2804 138.315C11.9604 138.065 11.5454 137.94 11.0354 137.94C10.8754 137.94 10.7304 137.95 10.6004 137.97C10.4804 137.98 10.3604 138.005 10.2404 138.045C10.1204 138.085 9.9954 138.135 9.8654 138.195C9.7354 138.255 9.5904 138.33 9.4304 138.42L8.4554 137.79L8.7104 132.975H14.5454V134.835H10.6154L10.4504 136.62C10.6704 136.54 10.8754 136.485 11.0654 136.455C11.2554 136.415 11.4704 136.395 11.7104 136.395C12.1504 136.395 12.5654 136.455 12.9554 136.575C13.3554 136.695 13.7054 136.875 14.0054 137.115C14.3054 137.355 14.5404 137.66 14.7104 138.03C14.8904 138.4 14.9804 138.84 14.9804 139.35C14.9804 139.88 14.8754 140.35 14.6654 140.76C14.4654 141.17 14.1904 141.52 13.8404 141.81C13.5004 142.09 13.1054 142.305 12.6554 142.455C12.2054 142.605 11.7354 142.68 11.2454 142.68C10.4154 142.68 9.7104 142.555 9.1304 142.305C8.5604 142.045 8.0804 141.725 7.6904 141.345L8.6804 139.95Z" fill="white"/>
</svg>
