<svg width="474" height="143" viewBox="0 0 474 143" fill="none" xmlns="http://www.w3.org/2000/svg">
<rect width="474" height="143" fill="black"/>
<path d="M256.262 46.998C256.899 46.2344 257.698 45.8525 258.661 45.8525C260.609 45.8525 261.597 46.9842 261.625 49.2476V55H259.226V49.314C259.226 48.7993 259.115 48.4202 258.894 48.1768C258.672 47.9277 258.304 47.8032 257.79 47.8032C257.087 47.8032 256.578 48.0744 256.262 48.6167V55H253.863V42.25H256.262V46.998ZM267.568 55.166C266.251 55.166 265.177 54.762 264.347 53.9541C263.523 53.1462 263.11 52.0698 263.11 50.7251V50.4927C263.11 49.5907 263.285 48.7855 263.633 48.0771C263.982 47.3633 264.474 46.8154 265.111 46.4336C265.753 46.0462 266.483 45.8525 267.302 45.8525C268.531 45.8525 269.496 46.2399 270.199 47.0146C270.908 47.7894 271.262 48.8879 271.262 50.3101V51.2896H265.542C265.62 51.8761 265.852 52.3465 266.24 52.7007C266.633 53.0549 267.128 53.2319 267.726 53.2319C268.65 53.2319 269.372 52.8971 269.892 52.2275L271.071 53.5474C270.711 54.0565 270.224 54.4549 269.61 54.7427C268.996 55.0249 268.315 55.166 267.568 55.166ZM267.294 47.7949C266.818 47.7949 266.431 47.9554 266.132 48.2764C265.839 48.5973 265.65 49.0566 265.567 49.6543H268.904V49.4634C268.893 48.9321 268.749 48.5226 268.473 48.2349C268.196 47.9416 267.803 47.7949 267.294 47.7949ZM277.836 55C277.725 54.7842 277.645 54.5158 277.595 54.1948C277.014 54.8423 276.259 55.166 275.329 55.166C274.449 55.166 273.719 54.9115 273.138 54.4023C272.562 53.8932 272.274 53.2513 272.274 52.4766C272.274 51.5247 272.626 50.7943 273.329 50.2852C274.037 49.776 275.058 49.5187 276.392 49.5132H277.496V48.9985C277.496 48.5835 277.388 48.2515 277.172 48.0024C276.962 47.7534 276.627 47.6289 276.167 47.6289C275.764 47.6289 275.445 47.7257 275.213 47.9194C274.986 48.1131 274.873 48.3787 274.873 48.7163H272.474C272.474 48.1961 272.634 47.7147 272.955 47.272C273.276 46.8293 273.73 46.4834 274.316 46.2344C274.903 45.9798 275.562 45.8525 276.292 45.8525C277.399 45.8525 278.276 46.132 278.923 46.6909C279.576 47.2443 279.903 48.0246 279.903 49.0317V52.9248C279.908 53.777 280.027 54.4217 280.26 54.8589V55H277.836ZM275.852 53.3315C276.206 53.3315 276.533 53.2541 276.832 53.0991C277.13 52.9386 277.352 52.7256 277.496 52.46V50.916H276.599C275.398 50.916 274.759 51.3311 274.682 52.1611L274.673 52.3022C274.673 52.6011 274.778 52.8473 274.989 53.041C275.199 53.2347 275.487 53.3315 275.852 53.3315ZM281.372 50.4429C281.372 49.0428 281.685 47.9277 282.31 47.0977C282.941 46.2676 283.801 45.8525 284.892 45.8525C285.766 45.8525 286.488 46.179 287.058 46.832V42.25H289.465V55H287.299L287.183 54.0454C286.585 54.7925 285.816 55.166 284.875 55.166C283.818 55.166 282.969 54.751 282.327 53.9209C281.69 53.0853 281.372 51.9259 281.372 50.4429ZM283.771 50.6172C283.771 51.4583 283.918 52.103 284.211 52.5513C284.504 52.9995 284.93 53.2236 285.489 53.2236C286.231 53.2236 286.754 52.911 287.058 52.2856V48.7412C286.759 48.1159 286.242 47.8032 285.506 47.8032C284.349 47.8032 283.771 48.7412 283.771 50.6172ZM295.458 55.166C294.141 55.166 293.068 54.762 292.238 53.9541C291.413 53.1462 291.001 52.0698 291.001 50.7251V50.4927C291.001 49.5907 291.175 48.7855 291.524 48.0771C291.873 47.3633 292.365 46.8154 293.001 46.4336C293.643 46.0462 294.374 45.8525 295.193 45.8525C296.421 45.8525 297.387 46.2399 298.09 47.0146C298.798 47.7894 299.152 48.8879 299.152 50.3101V51.2896H293.433C293.511 51.8761 293.743 52.3465 294.13 52.7007C294.523 53.0549 295.019 53.2319 295.616 53.2319C296.54 53.2319 297.263 52.8971 297.783 52.2275L298.961 53.5474C298.602 54.0565 298.115 54.4549 297.5 54.7427C296.886 55.0249 296.206 55.166 295.458 55.166ZM295.185 47.7949C294.709 47.7949 294.321 47.9554 294.022 48.2764C293.729 48.5973 293.541 49.0566 293.458 49.6543H296.795V49.4634C296.784 48.9321 296.64 48.5226 296.363 48.2349C296.087 47.9416 295.694 47.7949 295.185 47.7949ZM305.569 48.2681C305.242 48.2238 304.955 48.2017 304.706 48.2017C303.798 48.2017 303.203 48.5088 302.921 49.123V55H300.522V46.0186H302.788L302.854 47.0894C303.336 46.2648 304.003 45.8525 304.855 45.8525C305.121 45.8525 305.37 45.8885 305.602 45.9604L305.569 48.2681Z" fill="#F0E442"/>
<path d="M10.5078 132H8.16406V120.625H10.5078V132ZM14.6172 123.547L14.6875 124.523C15.2917 123.768 16.1016 123.391 17.1172 123.391C18.013 123.391 18.6797 123.654 19.1172 124.18C19.5547 124.706 19.7786 125.492 19.7891 126.539V132H17.5312V126.594C17.5312 126.115 17.4271 125.768 17.2188 125.555C17.0104 125.336 16.6641 125.227 16.1797 125.227C15.5443 125.227 15.0677 125.497 14.75 126.039V132H12.4922V123.547H14.6172ZM21.1562 127.711C21.1562 126.393 21.4505 125.344 22.0391 124.562C22.6328 123.781 23.4427 123.391 24.4688 123.391C25.2917 123.391 25.9714 123.698 26.5078 124.312V120H28.7734V132H26.7344L26.625 131.102C26.0625 131.805 25.3385 132.156 24.4531 132.156C23.4583 132.156 22.6589 131.766 22.0547 130.984C21.4557 130.198 21.1562 129.107 21.1562 127.711ZM23.4141 127.875C23.4141 128.667 23.5521 129.273 23.8281 129.695C24.1042 130.117 24.5052 130.328 25.0312 130.328C25.7292 130.328 26.2214 130.034 26.5078 129.445V126.109C26.2266 125.521 25.7396 125.227 25.0469 125.227C23.9583 125.227 23.4141 126.109 23.4141 127.875ZM34.4141 132.156C33.1745 132.156 32.1641 131.776 31.3828 131.016C30.6068 130.255 30.2188 129.242 30.2188 127.977V127.758C30.2188 126.909 30.3828 126.151 30.7109 125.484C31.0391 124.812 31.5026 124.297 32.1016 123.938C32.7057 123.573 33.3932 123.391 34.1641 123.391C35.3203 123.391 36.2292 123.755 36.8906 124.484C37.5573 125.214 37.8906 126.247 37.8906 127.586V128.508H32.5078C32.5807 129.06 32.7995 129.503 33.1641 129.836C33.5339 130.169 34 130.336 34.5625 130.336C35.4323 130.336 36.112 130.021 36.6016 129.391L37.7109 130.633C37.3724 131.112 36.9141 131.487 36.3359 131.758C35.7578 132.023 35.1172 132.156 34.4141 132.156ZM34.1562 125.219C33.7083 125.219 33.3438 125.37 33.0625 125.672C32.7865 125.974 32.6094 126.406 32.5312 126.969H35.6719V126.789C35.6615 126.289 35.526 125.904 35.2656 125.633C35.0052 125.357 34.6354 125.219 34.1562 125.219ZM41.2578 123.547L41.3281 124.523C41.9323 123.768 42.7422 123.391 43.7578 123.391C44.6536 123.391 45.3203 123.654 45.7578 124.18C46.1953 124.706 46.4193 125.492 46.4297 126.539V132H44.1719V126.594C44.1719 126.115 44.0677 125.768 43.8594 125.555C43.651 125.336 43.3047 125.227 42.8203 125.227C42.1849 125.227 41.7083 125.497 41.3906 126.039V132H39.1328V123.547H41.2578ZM50.8516 121.469V123.547H52.2969V125.203H50.8516V129.422C50.8516 129.734 50.9115 129.958 51.0312 130.094C51.151 130.229 51.3802 130.297 51.7188 130.297C51.9688 130.297 52.1901 130.279 52.3828 130.242V131.953C51.9401 132.089 51.4844 132.156 51.0156 132.156C49.4323 132.156 48.625 131.357 48.5938 129.758V125.203H47.3594V123.547H48.5938V121.469H50.8516ZM58.4531 132C58.349 131.797 58.2734 131.544 58.2266 131.242C57.6797 131.852 56.9688 132.156 56.0938 132.156C55.2656 132.156 54.5781 131.917 54.0312 131.438C53.4896 130.958 53.2188 130.354 53.2188 129.625C53.2188 128.729 53.5495 128.042 54.2109 127.562C54.8776 127.083 55.8385 126.841 57.0938 126.836H58.1328V126.352C58.1328 125.961 58.0312 125.648 57.8281 125.414C57.6302 125.18 57.3151 125.062 56.8828 125.062C56.5026 125.062 56.2031 125.154 55.9844 125.336C55.7708 125.518 55.6641 125.768 55.6641 126.086H53.4062C53.4062 125.596 53.5573 125.143 53.8594 124.727C54.1615 124.31 54.5885 123.984 55.1406 123.75C55.6927 123.51 56.3125 123.391 57 123.391C58.0417 123.391 58.8672 123.654 59.4766 124.18C60.0911 124.701 60.3984 125.435 60.3984 126.383V130.047C60.4036 130.849 60.5156 131.456 60.7344 131.867V132H58.4531ZM56.5859 130.43C56.9193 130.43 57.2266 130.357 57.5078 130.211C57.7891 130.06 57.9974 129.859 58.1328 129.609V128.156H57.2891C56.1589 128.156 55.5573 128.547 55.4844 129.328L55.4766 129.461C55.4766 129.742 55.5755 129.974 55.7734 130.156C55.9714 130.339 56.2422 130.43 56.5859 130.43ZM64.8359 121.469V123.547H66.2812V125.203H64.8359V129.422C64.8359 129.734 64.8958 129.958 65.0156 130.094C65.1354 130.229 65.3646 130.297 65.7031 130.297C65.9531 130.297 66.1745 130.279 66.3672 130.242V131.953C65.9245 132.089 65.4688 132.156 65 132.156C63.4167 132.156 62.6094 131.357 62.5781 129.758V125.203H61.3438V123.547H62.5781V121.469H64.8359ZM69.9219 132H67.6562V123.547H69.9219V132ZM67.5234 121.359C67.5234 121.021 67.6354 120.742 67.8594 120.523C68.0885 120.305 68.3984 120.195 68.7891 120.195C69.1745 120.195 69.4818 120.305 69.7109 120.523C69.9401 120.742 70.0547 121.021 70.0547 121.359C70.0547 121.703 69.9375 121.984 69.7031 122.203C69.474 122.422 69.1693 122.531 68.7891 122.531C68.4089 122.531 68.1016 122.422 67.8672 122.203C67.638 121.984 67.5234 121.703 67.5234 121.359ZM71.4375 127.695C71.4375 126.857 71.599 126.109 71.9219 125.453C72.2448 124.797 72.7083 124.289 73.3125 123.93C73.9219 123.57 74.6276 123.391 75.4297 123.391C76.5703 123.391 77.5 123.74 78.2188 124.438C78.9427 125.135 79.3464 126.083 79.4297 127.281L79.4453 127.859C79.4453 129.156 79.0833 130.198 78.3594 130.984C77.6354 131.766 76.6641 132.156 75.4453 132.156C74.2266 132.156 73.2526 131.766 72.5234 130.984C71.7995 130.203 71.4375 129.141 71.4375 127.797V127.695ZM73.6953 127.859C73.6953 128.661 73.8464 129.276 74.1484 129.703C74.4505 130.125 74.8828 130.336 75.4453 130.336C75.9922 130.336 76.4193 130.128 76.7266 129.711C77.0339 129.289 77.1875 128.617 77.1875 127.695C77.1875 126.909 77.0339 126.299 76.7266 125.867C76.4193 125.435 75.987 125.219 75.4297 125.219C74.8776 125.219 74.4505 125.435 74.1484 125.867C73.8464 126.294 73.6953 126.958 73.6953 127.859ZM82.9141 123.547L82.9844 124.523C83.5885 123.768 84.3984 123.391 85.4141 123.391C86.3099 123.391 86.9766 123.654 87.4141 124.18C87.8516 124.706 88.0755 125.492 88.0859 126.539V132H85.8281V126.594C85.8281 126.115 85.724 125.768 85.5156 125.555C85.3073 125.336 84.9609 125.227 84.4766 125.227C83.8411 125.227 83.3646 125.497 83.0469 126.039V132H80.7891V123.547H82.9141ZM89.9141 130.891C89.9141 130.531 90.0339 130.24 90.2734 130.016C90.5182 129.792 90.8229 129.68 91.1875 129.68C91.5573 129.68 91.862 129.792 92.1016 130.016C92.3464 130.24 92.4688 130.531 92.4688 130.891C92.4688 131.245 92.349 131.534 92.1094 131.758C91.8698 131.977 91.5625 132.086 91.1875 132.086C90.8177 132.086 90.513 131.977 90.2734 131.758C90.0339 131.534 89.9141 131.245 89.9141 130.891ZM89.9141 124.492C89.9141 124.133 90.0339 123.841 90.2734 123.617C90.5182 123.393 90.8229 123.281 91.1875 123.281C91.5573 123.281 91.862 123.393 92.1016 123.617C92.3464 123.841 92.4688 124.133 92.4688 124.492C92.4688 124.846 92.349 125.135 92.1094 125.359C91.8698 125.578 91.5625 125.688 91.1875 125.688C90.8177 125.688 90.513 125.578 90.2734 125.359C90.0339 125.135 89.9141 124.846 89.9141 124.492ZM98.9219 132V125.203H97.6641V123.547H98.9219V122.828C98.9219 121.88 99.1927 121.146 99.7344 120.625C100.281 120.099 101.044 119.836 102.023 119.836C102.336 119.836 102.719 119.888 103.172 119.992L103.148 121.742C102.961 121.695 102.732 121.672 102.461 121.672C101.612 121.672 101.188 122.07 101.188 122.867V123.547H102.867V125.203H101.188V132H98.9219ZM103.688 127.695C103.688 126.857 103.849 126.109 104.172 125.453C104.495 124.797 104.958 124.289 105.562 123.93C106.172 123.57 106.878 123.391 107.68 123.391C108.82 123.391 109.75 123.74 110.469 124.438C111.193 125.135 111.596 126.083 111.68 127.281L111.695 127.859C111.695 129.156 111.333 130.198 110.609 130.984C109.885 131.766 108.914 132.156 107.695 132.156C106.477 132.156 105.503 131.766 104.773 130.984C104.049 130.203 103.688 129.141 103.688 127.797V127.695ZM105.945 127.859C105.945 128.661 106.096 129.276 106.398 129.703C106.701 130.125 107.133 130.336 107.695 130.336C108.242 130.336 108.669 130.128 108.977 129.711C109.284 129.289 109.438 128.617 109.438 127.695C109.438 126.909 109.284 126.299 108.977 125.867C108.669 125.435 108.237 125.219 107.68 125.219C107.128 125.219 106.701 125.435 106.398 125.867C106.096 126.294 105.945 126.958 105.945 127.859ZM118.148 131.141C117.591 131.818 116.82 132.156 115.836 132.156C114.93 132.156 114.237 131.896 113.758 131.375C113.284 130.854 113.042 130.091 113.031 129.086V123.547H115.289V129.008C115.289 129.888 115.69 130.328 116.492 130.328C117.258 130.328 117.784 130.062 118.07 129.531V123.547H120.336V132H118.211L118.148 131.141ZM126.789 125.664C126.482 125.622 126.211 125.602 125.977 125.602C125.122 125.602 124.562 125.891 124.297 126.469V132H122.039V123.547H124.172L124.234 124.555C124.688 123.779 125.315 123.391 126.117 123.391C126.367 123.391 126.602 123.424 126.82 123.492L126.789 125.664ZM136.445 129.664C136.445 129.388 136.307 129.172 136.031 129.016C135.76 128.854 135.323 128.711 134.719 128.586C132.708 128.164 131.703 127.31 131.703 126.023C131.703 125.273 132.013 124.648 132.633 124.148C133.258 123.643 134.073 123.391 135.078 123.391C136.151 123.391 137.008 123.643 137.648 124.148C138.294 124.654 138.617 125.31 138.617 126.117H136.359C136.359 125.794 136.255 125.529 136.047 125.32C135.839 125.107 135.513 125 135.07 125C134.69 125 134.396 125.086 134.188 125.258C133.979 125.43 133.875 125.648 133.875 125.914C133.875 126.164 133.992 126.367 134.227 126.523C134.466 126.674 134.867 126.807 135.43 126.922C135.992 127.031 136.466 127.156 136.852 127.297C138.044 127.734 138.641 128.492 138.641 129.57C138.641 130.341 138.31 130.966 137.648 131.445C136.987 131.919 136.133 132.156 135.086 132.156C134.378 132.156 133.747 132.031 133.195 131.781C132.648 131.526 132.219 131.18 131.906 130.742C131.594 130.299 131.438 129.823 131.438 129.312H133.578C133.599 129.714 133.747 130.021 134.023 130.234C134.299 130.448 134.669 130.555 135.133 130.555C135.565 130.555 135.891 130.474 136.109 130.312C136.333 130.146 136.445 129.93 136.445 129.664ZM147.711 127.852C147.711 129.154 147.414 130.198 146.82 130.984C146.232 131.766 145.435 132.156 144.43 132.156C143.576 132.156 142.885 131.859 142.359 131.266V135.25H140.102V123.547H142.195L142.273 124.375C142.82 123.719 143.534 123.391 144.414 123.391C145.456 123.391 146.266 123.776 146.844 124.547C147.422 125.318 147.711 126.38 147.711 127.734V127.852ZM145.453 127.688C145.453 126.901 145.312 126.294 145.031 125.867C144.755 125.44 144.352 125.227 143.82 125.227C143.112 125.227 142.625 125.497 142.359 126.039V129.5C142.635 130.057 143.128 130.336 143.836 130.336C144.914 130.336 145.453 129.453 145.453 127.688ZM154.016 132C153.911 131.797 153.836 131.544 153.789 131.242C153.242 131.852 152.531 132.156 151.656 132.156C150.828 132.156 150.141 131.917 149.594 131.438C149.052 130.958 148.781 130.354 148.781 129.625C148.781 128.729 149.112 128.042 149.773 127.562C150.44 127.083 151.401 126.841 152.656 126.836H153.695V126.352C153.695 125.961 153.594 125.648 153.391 125.414C153.193 125.18 152.878 125.062 152.445 125.062C152.065 125.062 151.766 125.154 151.547 125.336C151.333 125.518 151.227 125.768 151.227 126.086H148.969C148.969 125.596 149.12 125.143 149.422 124.727C149.724 124.31 150.151 123.984 150.703 123.75C151.255 123.51 151.875 123.391 152.562 123.391C153.604 123.391 154.43 123.654 155.039 124.18C155.654 124.701 155.961 125.435 155.961 126.383V130.047C155.966 130.849 156.078 131.456 156.297 131.867V132H154.016ZM152.148 130.43C152.482 130.43 152.789 130.357 153.07 130.211C153.352 130.06 153.56 129.859 153.695 129.609V128.156H152.852C151.721 128.156 151.12 128.547 151.047 129.328L151.039 129.461C151.039 129.742 151.138 129.974 151.336 130.156C151.534 130.339 151.805 130.43 152.148 130.43ZM161.211 130.336C161.628 130.336 161.966 130.221 162.227 129.992C162.487 129.763 162.622 129.458 162.633 129.078H164.75C164.745 129.651 164.589 130.177 164.281 130.656C163.974 131.13 163.552 131.5 163.016 131.766C162.484 132.026 161.896 132.156 161.25 132.156C160.042 132.156 159.089 131.773 158.391 131.008C157.693 130.237 157.344 129.174 157.344 127.82V127.672C157.344 126.37 157.69 125.331 158.383 124.555C159.076 123.779 160.026 123.391 161.234 123.391C162.292 123.391 163.138 123.693 163.773 124.297C164.414 124.896 164.74 125.695 164.75 126.695H162.633C162.622 126.258 162.487 125.904 162.227 125.633C161.966 125.357 161.622 125.219 161.195 125.219C160.669 125.219 160.271 125.411 160 125.797C159.734 126.177 159.602 126.797 159.602 127.656V127.891C159.602 128.76 159.734 129.385 160 129.766C160.266 130.146 160.669 130.336 161.211 130.336ZM169.93 132.156C168.69 132.156 167.68 131.776 166.898 131.016C166.122 130.255 165.734 129.242 165.734 127.977V127.758C165.734 126.909 165.898 126.151 166.227 125.484C166.555 124.812 167.018 124.297 167.617 123.938C168.221 123.573 168.909 123.391 169.68 123.391C170.836 123.391 171.745 123.755 172.406 124.484C173.073 125.214 173.406 126.247 173.406 127.586V128.508H168.023C168.096 129.06 168.315 129.503 168.68 129.836C169.049 130.169 169.516 130.336 170.078 130.336C170.948 130.336 171.628 130.021 172.117 129.391L173.227 130.633C172.888 131.112 172.43 131.487 171.852 131.758C171.273 132.023 170.633 132.156 169.93 132.156ZM169.672 125.219C169.224 125.219 168.859 125.37 168.578 125.672C168.302 125.974 168.125 126.406 168.047 126.969H171.188V126.789C171.177 126.289 171.042 125.904 170.781 125.633C170.521 125.357 170.151 125.219 169.672 125.219ZM179.273 129.664C179.273 129.388 179.135 129.172 178.859 129.016C178.589 128.854 178.151 128.711 177.547 128.586C175.536 128.164 174.531 127.31 174.531 126.023C174.531 125.273 174.841 124.648 175.461 124.148C176.086 123.643 176.901 123.391 177.906 123.391C178.979 123.391 179.836 123.643 180.477 124.148C181.122 124.654 181.445 125.31 181.445 126.117H179.188C179.188 125.794 179.083 125.529 178.875 125.32C178.667 125.107 178.341 125 177.898 125C177.518 125 177.224 125.086 177.016 125.258C176.807 125.43 176.703 125.648 176.703 125.914C176.703 126.164 176.82 126.367 177.055 126.523C177.294 126.674 177.695 126.807 178.258 126.922C178.82 127.031 179.294 127.156 179.68 127.297C180.872 127.734 181.469 128.492 181.469 129.57C181.469 130.341 181.138 130.966 180.477 131.445C179.815 131.919 178.961 132.156 177.914 132.156C177.206 132.156 176.576 132.031 176.023 131.781C175.477 131.526 175.047 131.18 174.734 130.742C174.422 130.299 174.266 129.823 174.266 129.312H176.406C176.427 129.714 176.576 130.021 176.852 130.234C177.128 130.448 177.497 130.555 177.961 130.555C178.393 130.555 178.719 130.474 178.938 130.312C179.161 130.146 179.273 129.93 179.273 129.664ZM189.617 121.469V123.547H191.062V125.203H189.617V129.422C189.617 129.734 189.677 129.958 189.797 130.094C189.917 130.229 190.146 130.297 190.484 130.297C190.734 130.297 190.956 130.279 191.148 130.242V131.953C190.706 132.089 190.25 132.156 189.781 132.156C188.198 132.156 187.391 131.357 187.359 129.758V125.203H186.125V123.547H187.359V121.469H189.617ZM191.734 127.695C191.734 126.857 191.896 126.109 192.219 125.453C192.542 124.797 193.005 124.289 193.609 123.93C194.219 123.57 194.924 123.391 195.727 123.391C196.867 123.391 197.797 123.74 198.516 124.438C199.24 125.135 199.643 126.083 199.727 127.281L199.742 127.859C199.742 129.156 199.38 130.198 198.656 130.984C197.932 131.766 196.961 132.156 195.742 132.156C194.523 132.156 193.549 131.766 192.82 130.984C192.096 130.203 191.734 129.141 191.734 127.797V127.695ZM193.992 127.859C193.992 128.661 194.143 129.276 194.445 129.703C194.747 130.125 195.18 130.336 195.742 130.336C196.289 130.336 196.716 130.128 197.023 129.711C197.331 129.289 197.484 128.617 197.484 127.695C197.484 126.909 197.331 126.299 197.023 125.867C196.716 125.435 196.284 125.219 195.727 125.219C195.174 125.219 194.747 125.435 194.445 125.867C194.143 126.294 193.992 126.958 193.992 127.859ZM207.82 121.469V123.547H209.266V125.203H207.82V129.422C207.82 129.734 207.88 129.958 208 130.094C208.12 130.229 208.349 130.297 208.688 130.297C208.938 130.297 209.159 130.279 209.352 130.242V131.953C208.909 132.089 208.453 132.156 207.984 132.156C206.401 132.156 205.594 131.357 205.562 129.758V125.203H204.328V123.547H205.562V121.469H207.82ZM212.727 124.469C213.326 123.75 214.078 123.391 214.984 123.391C216.818 123.391 217.747 124.456 217.773 126.586V132H215.516V126.648C215.516 126.164 215.411 125.807 215.203 125.578C214.995 125.344 214.648 125.227 214.164 125.227C213.503 125.227 213.023 125.482 212.727 125.992V132H210.469V120H212.727V124.469ZM223.367 132.156C222.128 132.156 221.117 131.776 220.336 131.016C219.56 130.255 219.172 129.242 219.172 127.977V127.758C219.172 126.909 219.336 126.151 219.664 125.484C219.992 124.812 220.456 124.297 221.055 123.938C221.659 123.573 222.346 123.391 223.117 123.391C224.273 123.391 225.182 123.755 225.844 124.484C226.51 125.214 226.844 126.247 226.844 127.586V128.508H221.461C221.534 129.06 221.753 129.503 222.117 129.836C222.487 130.169 222.953 130.336 223.516 130.336C224.385 130.336 225.065 130.021 225.555 129.391L226.664 130.633C226.326 131.112 225.867 131.487 225.289 131.758C224.711 132.023 224.07 132.156 223.367 132.156ZM223.109 125.219C222.661 125.219 222.297 125.37 222.016 125.672C221.74 125.974 221.562 126.406 221.484 126.969H224.625V126.789C224.615 126.289 224.479 125.904 224.219 125.633C223.958 125.357 223.589 125.219 223.109 125.219ZM236.867 125.664C236.56 125.622 236.289 125.602 236.055 125.602C235.201 125.602 234.641 125.891 234.375 126.469V132H232.117V123.547H234.25L234.312 124.555C234.766 123.779 235.393 123.391 236.195 123.391C236.445 123.391 236.68 123.424 236.898 123.492L236.867 125.664ZM240.344 132H238.078V123.547H240.344V132ZM237.945 121.359C237.945 121.021 238.057 120.742 238.281 120.523C238.51 120.305 238.82 120.195 239.211 120.195C239.596 120.195 239.904 120.305 240.133 120.523C240.362 120.742 240.477 121.021 240.477 121.359C240.477 121.703 240.359 121.984 240.125 122.203C239.896 122.422 239.591 122.531 239.211 122.531C238.831 122.531 238.523 122.422 238.289 122.203C238.06 121.984 237.945 121.703 237.945 121.359ZM241.883 127.711C241.883 126.414 242.19 125.37 242.805 124.578C243.424 123.786 244.258 123.391 245.305 123.391C246.232 123.391 246.953 123.708 247.469 124.344L247.562 123.547H249.609V131.719C249.609 132.458 249.44 133.102 249.102 133.648C248.768 134.195 248.297 134.612 247.688 134.898C247.078 135.185 246.365 135.328 245.547 135.328C244.927 135.328 244.323 135.203 243.734 134.953C243.146 134.708 242.701 134.391 242.398 134L243.398 132.625C243.961 133.255 244.643 133.57 245.445 133.57C246.044 133.57 246.51 133.409 246.844 133.086C247.177 132.768 247.344 132.315 247.344 131.727V131.273C246.823 131.862 246.138 132.156 245.289 132.156C244.273 132.156 243.451 131.76 242.82 130.969C242.195 130.172 241.883 129.117 241.883 127.805V127.711ZM244.141 127.875C244.141 128.641 244.294 129.242 244.602 129.68C244.909 130.112 245.331 130.328 245.867 130.328C246.555 130.328 247.047 130.07 247.344 129.555V126C247.042 125.484 246.555 125.227 245.883 125.227C245.341 125.227 244.914 125.448 244.602 125.891C244.294 126.333 244.141 126.995 244.141 127.875ZM253.555 124.469C254.154 123.75 254.906 123.391 255.812 123.391C257.646 123.391 258.576 124.456 258.602 126.586V132H256.344V126.648C256.344 126.164 256.24 125.807 256.031 125.578C255.823 125.344 255.477 125.227 254.992 125.227C254.331 125.227 253.852 125.482 253.555 125.992V132H251.297V120H253.555V124.469ZM263.008 121.469V123.547H264.453V125.203H263.008V129.422C263.008 129.734 263.068 129.958 263.188 130.094C263.307 130.229 263.536 130.297 263.875 130.297C264.125 130.297 264.346 130.279 264.539 130.242V131.953C264.096 132.089 263.641 132.156 263.172 132.156C261.589 132.156 260.781 131.357 260.75 129.758V125.203H259.516V123.547H260.75V121.469H263.008Z" fill="#F0E442"/>
<path d="M434.015 69.5923C434.015 71.0311 433.708 72.1545 433.093 72.9624C432.479 73.7648 431.621 74.166 430.52 74.166C429.546 74.166 428.769 73.7925 428.188 73.0454L428.08 74H425.921V61.25H428.32V65.8237C428.874 65.1763 429.601 64.8525 430.503 64.8525C431.599 64.8525 432.457 65.2565 433.077 66.0645C433.702 66.8669 434.015 67.9985 434.015 69.4595V69.5923ZM431.616 69.418C431.616 68.5104 431.472 67.8491 431.184 67.4341C430.896 67.0135 430.467 66.8032 429.897 66.8032C429.134 66.8032 428.608 67.1159 428.32 67.7412V71.2856C428.614 71.9165 429.145 72.2319 429.914 72.2319C430.689 72.2319 431.198 71.8501 431.441 71.0864C431.558 70.7212 431.616 70.165 431.616 69.418ZM435.127 69.4263C435.127 68.5353 435.299 67.7412 435.642 67.0439C435.985 66.3467 436.477 65.8071 437.119 65.4253C437.767 65.0435 438.516 64.8525 439.369 64.8525C440.581 64.8525 441.568 65.2233 442.332 65.9648C443.101 66.7064 443.53 67.7135 443.619 68.9863L443.635 69.6006C443.635 70.9785 443.251 72.0853 442.481 72.9209C441.712 73.751 440.68 74.166 439.385 74.166C438.09 74.166 437.056 73.751 436.281 72.9209C435.512 72.0908 435.127 70.9619 435.127 69.5342V69.4263ZM437.526 69.6006C437.526 70.4528 437.686 71.1058 438.007 71.5596C438.328 72.0078 438.788 72.2319 439.385 72.2319C439.966 72.2319 440.42 72.0106 440.747 71.5679C441.073 71.1196 441.236 70.4058 441.236 69.4263C441.236 68.5907 441.073 67.9432 440.747 67.4839C440.42 67.0246 439.961 66.7949 439.369 66.7949C438.782 66.7949 438.328 67.0246 438.007 67.4839C437.686 67.9377 437.526 68.6432 437.526 69.6006ZM444.739 69.4429C444.739 68.0428 445.052 66.9277 445.677 66.0977C446.308 65.2676 447.169 64.8525 448.259 64.8525C449.133 64.8525 449.855 65.179 450.425 65.832V61.25H452.833V74H450.666L450.55 73.0454C449.952 73.7925 449.183 74.166 448.242 74.166C447.185 74.166 446.336 73.751 445.694 72.9209C445.057 72.0853 444.739 70.9259 444.739 69.4429ZM447.138 69.6172C447.138 70.4583 447.285 71.103 447.578 71.5513C447.871 71.9995 448.298 72.2236 448.856 72.2236C449.598 72.2236 450.121 71.911 450.425 71.2856V67.7412C450.126 67.1159 449.609 66.8032 448.873 66.8032C447.716 66.8032 447.138 67.7412 447.138 69.6172ZM458.045 70.605L459.706 65.0186H462.279L458.668 75.3945L458.469 75.8677C457.932 77.0409 457.047 77.6274 455.812 77.6274C455.464 77.6274 455.11 77.5749 454.75 77.4697V75.6519L455.115 75.6602C455.569 75.6602 455.907 75.591 456.128 75.4526C456.355 75.3143 456.532 75.0846 456.659 74.7637L456.941 74.0249L453.795 65.0186H456.377L458.045 70.605Z" fill="#F0E442"/>
<path d="M298.793 82.8105V85.0186H300.329V86.7783H298.793V91.2607C298.793 91.5928 298.857 91.8307 298.984 91.9746C299.112 92.1185 299.355 92.1904 299.715 92.1904C299.98 92.1904 300.216 92.1711 300.42 92.1323V93.9502C299.95 94.0941 299.466 94.166 298.968 94.166C297.285 94.166 296.428 93.3166 296.395 91.6177V86.7783H295.083V85.0186H296.395V82.8105H298.793ZM304.006 85.998C304.643 85.2344 305.442 84.8525 306.405 84.8525C308.353 84.8525 309.341 85.9842 309.369 88.2476V94H306.97V88.314C306.97 87.7993 306.859 87.4202 306.638 87.1768C306.416 86.9277 306.048 86.8032 305.534 86.8032C304.831 86.8032 304.322 87.0744 304.006 87.6167V94H301.607V81.25H304.006V85.998ZM315.312 94.166C313.995 94.166 312.921 93.762 312.091 92.9541C311.267 92.1462 310.854 91.0698 310.854 89.7251V89.4927C310.854 88.5907 311.029 87.7855 311.377 87.0771C311.726 86.3633 312.219 85.8154 312.855 85.4336C313.497 85.0462 314.227 84.8525 315.046 84.8525C316.275 84.8525 317.241 85.2399 317.943 86.0146C318.652 86.7894 319.006 87.8879 319.006 89.3101V90.2896H313.287C313.364 90.8761 313.597 91.3465 313.984 91.7007C314.377 92.0549 314.872 92.2319 315.47 92.2319C316.394 92.2319 317.116 91.8971 317.636 91.2275L318.815 92.5474C318.455 93.0565 317.968 93.4549 317.354 93.7427C316.74 94.0249 316.059 94.166 315.312 94.166ZM315.038 86.7949C314.562 86.7949 314.175 86.9554 313.876 87.2764C313.583 87.5973 313.395 88.0566 313.312 88.6543H316.648V88.4634C316.637 87.9321 316.493 87.5226 316.217 87.2349C315.94 86.9416 315.547 86.7949 315.038 86.7949ZM325.428 86.56H327.228L327.408 88.18H327.453C327.823 87.57 328.268 87.12 328.788 86.83C329.308 86.53 329.868 86.38 330.468 86.38C330.798 86.38 331.063 86.405 331.262 86.455C331.473 86.505 331.688 86.58 331.908 86.68L331.458 88.525C331.228 88.455 331.018 88.405 330.828 88.375C330.648 88.335 330.418 88.315 330.138 88.315C329.678 88.315 329.223 88.45 328.773 88.72C328.333 88.99 327.953 89.46 327.633 90.13V94H325.428V86.56ZM333.507 90.28C333.507 89.67 333.612 89.125 333.822 88.645C334.042 88.165 334.332 87.76 334.692 87.43C335.052 87.09 335.462 86.83 335.922 86.65C336.392 86.47 336.877 86.38 337.377 86.38C337.947 86.38 338.452 86.47 338.892 86.65C339.332 86.83 339.697 87.08 339.987 87.4C340.277 87.72 340.497 88.1 340.647 88.54C340.797 88.97 340.872 89.44 340.872 89.95C340.872 90.15 340.862 90.34 340.842 90.52C340.822 90.7 340.802 90.835 340.782 90.925H335.772C335.852 91.485 336.092 91.89 336.492 92.14C336.902 92.38 337.382 92.5 337.932 92.5C338.272 92.5 338.592 92.46 338.892 92.38C339.202 92.29 339.522 92.16 339.852 91.99L340.572 93.31C340.152 93.58 339.682 93.795 339.162 93.955C338.642 94.105 338.132 94.18 337.632 94.18C337.052 94.18 336.512 94.095 336.012 93.925C335.512 93.745 335.077 93.49 334.707 93.16C334.337 92.82 334.042 92.41 333.822 91.93C333.612 91.45 333.507 90.9 333.507 90.28ZM338.877 89.47C338.877 89.05 338.762 88.71 338.532 88.45C338.302 88.19 337.932 88.06 337.422 88.06C337.022 88.06 336.667 88.175 336.357 88.405C336.047 88.635 335.842 88.99 335.742 89.47H338.877ZM344.286 88.285H342.411V86.65L344.391 86.56L344.676 84.58H346.491V86.56H349.641V88.285H346.491V90.895C346.491 91.465 346.616 91.87 346.866 92.11C347.116 92.34 347.511 92.455 348.051 92.455C348.341 92.455 348.606 92.43 348.846 92.38C349.086 92.33 349.316 92.265 349.536 92.185L349.926 93.775C349.596 93.875 349.226 93.965 348.816 94.045C348.416 94.135 347.976 94.18 347.496 94.18C346.906 94.18 346.406 94.1 345.996 93.94C345.586 93.78 345.251 93.56 344.991 93.28C344.741 92.99 344.561 92.645 344.451 92.245C344.341 91.845 344.286 91.4 344.286 90.91V88.285ZM358.545 94H356.745L356.58 92.935H356.52C356.19 93.315 355.825 93.62 355.425 93.85C355.025 94.07 354.555 94.18 354.015 94.18C353.165 94.18 352.55 93.91 352.17 93.37C351.79 92.83 351.6 92.09 351.6 91.15V86.56H353.805V90.865C353.805 91.365 353.88 91.73 354.03 91.96C354.18 92.19 354.465 92.305 354.885 92.305C355.165 92.305 355.41 92.245 355.62 92.125C355.84 92.005 356.08 91.78 356.34 91.45V86.56H358.545V94ZM361.404 86.56H363.204L363.384 88.18H363.429C363.799 87.57 364.244 87.12 364.764 86.83C365.284 86.53 365.844 86.38 366.444 86.38C366.774 86.38 367.039 86.405 367.239 86.455C367.449 86.505 367.664 86.58 367.884 86.68L367.434 88.525C367.204 88.455 366.994 88.405 366.804 88.375C366.624 88.335 366.394 88.315 366.114 88.315C365.654 88.315 365.199 88.45 364.749 88.72C364.309 88.99 363.929 89.46 363.609 90.13V94H361.404V86.56ZM369.738 86.56H371.538L371.703 87.55H371.763C372.083 87.23 372.448 86.955 372.858 86.725C373.278 86.495 373.768 86.38 374.328 86.38C375.168 86.38 375.783 86.65 376.173 87.19C376.563 87.73 376.758 88.47 376.758 89.41V94H374.553V89.695C374.553 89.195 374.473 88.83 374.313 88.6C374.153 88.37 373.868 88.255 373.458 88.255C373.158 88.255 372.893 88.32 372.663 88.45C372.443 88.58 372.203 88.775 371.943 89.035V94H369.738V86.56ZM387.671 91.5181C387.671 91.2248 387.525 90.9951 387.231 90.8291C386.944 90.6576 386.479 90.5054 385.837 90.3726C383.701 89.9243 382.633 89.0168 382.633 87.6499C382.633 86.853 382.962 86.189 383.621 85.6577C384.285 85.1209 385.151 84.8525 386.219 84.8525C387.359 84.8525 388.269 85.1209 388.95 85.6577C389.636 86.1945 389.979 86.8918 389.979 87.7495H387.58C387.58 87.4064 387.469 87.1242 387.248 86.9028C387.027 86.6759 386.681 86.5625 386.21 86.5625C385.806 86.5625 385.494 86.6538 385.272 86.8364C385.051 87.019 384.94 87.2515 384.94 87.5337C384.94 87.7993 385.065 88.0151 385.314 88.1812C385.569 88.3416 385.995 88.4827 386.592 88.6045C387.19 88.7207 387.694 88.8535 388.103 89.0029C389.37 89.4678 390.004 90.2729 390.004 91.4185C390.004 92.2375 389.653 92.9015 388.95 93.4106C388.247 93.9142 387.339 94.166 386.227 94.166C385.474 94.166 384.805 94.0332 384.218 93.7676C383.637 93.4964 383.181 93.1284 382.849 92.6636C382.517 92.1932 382.351 91.6868 382.351 91.1445H384.625C384.647 91.5706 384.805 91.8971 385.098 92.124C385.391 92.3509 385.784 92.4644 386.277 92.4644C386.736 92.4644 387.082 92.3786 387.314 92.207C387.552 92.0299 387.671 91.8003 387.671 91.5181ZM394.428 82.8105V85.0186H395.964V86.7783H394.428V91.2607C394.428 91.5928 394.492 91.8307 394.619 91.9746C394.746 92.1185 394.99 92.1904 395.35 92.1904C395.615 92.1904 395.85 92.1711 396.055 92.1323V93.9502C395.585 94.0941 395.101 94.166 394.603 94.166C392.92 94.166 392.062 93.3166 392.029 91.6177V86.7783H390.718V85.0186H392.029V82.8105H394.428ZM402.505 94C402.394 93.7842 402.314 93.5158 402.264 93.1948C401.683 93.8423 400.928 94.166 399.998 94.166C399.118 94.166 398.388 93.9115 397.807 93.4023C397.231 92.8932 396.943 92.2513 396.943 91.4766C396.943 90.5247 397.295 89.7943 397.998 89.2852C398.706 88.776 399.727 88.5187 401.061 88.5132H402.165V87.9985C402.165 87.5835 402.057 87.2515 401.841 87.0024C401.631 86.7534 401.296 86.6289 400.836 86.6289C400.432 86.6289 400.114 86.7257 399.882 86.9194C399.655 87.1131 399.542 87.3787 399.542 87.7163H397.143C397.143 87.1961 397.303 86.7147 397.624 86.272C397.945 85.8293 398.399 85.4834 398.985 85.2344C399.572 84.9798 400.23 84.8525 400.961 84.8525C402.068 84.8525 402.945 85.132 403.592 85.6909C404.245 86.2443 404.572 87.0246 404.572 88.0317V91.9248C404.577 92.777 404.696 93.4217 404.929 93.8589V94H402.505ZM400.521 92.3315C400.875 92.3315 401.202 92.2541 401.5 92.0991C401.799 91.9386 402.021 91.7256 402.165 91.46V89.916H401.268C400.067 89.916 399.428 90.3311 399.351 91.1611L399.342 91.3022C399.342 91.6011 399.447 91.8473 399.658 92.041C399.868 92.2347 400.156 92.3315 400.521 92.3315ZM409.287 82.8105V85.0186H410.822V86.7783H409.287V91.2607C409.287 91.5928 409.35 91.8307 409.478 91.9746C409.605 92.1185 409.848 92.1904 410.208 92.1904C410.474 92.1904 410.709 92.1711 410.914 92.1323V93.9502C410.443 94.0941 409.959 94.166 409.461 94.166C407.779 94.166 406.921 93.3166 406.888 91.6177V86.7783H405.576V85.0186H406.888V82.8105H409.287ZM416.292 94.166C414.975 94.166 413.902 93.762 413.072 92.9541C412.247 92.1462 411.835 91.0698 411.835 89.7251V89.4927C411.835 88.5907 412.009 87.7855 412.358 87.0771C412.707 86.3633 413.199 85.8154 413.835 85.4336C414.477 85.0462 415.208 84.8525 416.027 84.8525C417.255 84.8525 418.221 85.2399 418.924 86.0146C419.632 86.7894 419.986 87.8879 419.986 89.3101V90.2896H414.267C414.345 90.8761 414.577 91.3465 414.964 91.7007C415.357 92.0549 415.853 92.2319 416.45 92.2319C417.374 92.2319 418.097 91.8971 418.617 91.2275L419.795 92.5474C419.436 93.0565 418.949 93.4549 418.334 93.7427C417.72 94.0249 417.04 94.166 416.292 94.166ZM416.019 86.7949C415.543 86.7949 415.155 86.9554 414.856 87.2764C414.563 87.5973 414.375 88.0566 414.292 88.6543H417.629V88.4634C417.618 87.9321 417.474 87.5226 417.197 87.2349C416.921 86.9416 416.528 86.7949 416.019 86.7949ZM423.605 85.0186L423.68 86.0229C424.317 85.2427 425.177 84.8525 426.262 84.8525C427.418 84.8525 428.212 85.3091 428.644 86.2222C429.275 85.3091 430.174 84.8525 431.342 84.8525C432.316 84.8525 433.041 85.1375 433.517 85.7075C433.993 86.272 434.23 87.1242 434.23 88.2642V94H431.823V88.2725C431.823 87.7633 431.724 87.3926 431.524 87.1602C431.325 86.9222 430.974 86.8032 430.47 86.8032C429.751 86.8032 429.253 87.1463 428.976 87.8325L428.984 94H426.585V88.2808C426.585 87.7606 426.483 87.3843 426.278 87.1519C426.074 86.9194 425.725 86.8032 425.232 86.8032C424.552 86.8032 424.059 87.0854 423.755 87.6499V94H421.356V85.0186H423.605ZM440.215 94.166C438.898 94.166 437.825 93.762 436.995 92.9541C436.17 92.1462 435.758 91.0698 435.758 89.7251V89.4927C435.758 88.5907 435.932 87.7855 436.281 87.0771C436.629 86.3633 437.122 85.8154 437.758 85.4336C438.4 85.0462 439.131 84.8525 439.95 84.8525C441.178 84.8525 442.144 85.2399 442.847 86.0146C443.555 86.7894 443.909 87.8879 443.909 89.3101V90.2896H438.19C438.267 90.8761 438.5 91.3465 438.887 91.7007C439.28 92.0549 439.775 92.2319 440.373 92.2319C441.297 92.2319 442.019 91.8971 442.54 91.2275L443.718 92.5474C443.359 93.0565 442.872 93.4549 442.257 93.7427C441.643 94.0249 440.962 94.166 440.215 94.166ZM439.941 86.7949C439.465 86.7949 439.078 86.9554 438.779 87.2764C438.486 87.5973 438.298 88.0566 438.215 88.6543H441.552V88.4634C441.541 87.9321 441.397 87.5226 441.12 87.2349C440.843 86.9416 440.451 86.7949 439.941 86.7949ZM447.487 85.0186L447.562 86.0562C448.203 85.2537 449.064 84.8525 450.143 84.8525C451.095 84.8525 451.803 85.132 452.268 85.6909C452.733 86.2498 452.971 87.0854 452.982 88.1978V94H450.583V88.2559C450.583 87.7467 450.472 87.3787 450.251 87.1519C450.03 86.9194 449.662 86.8032 449.147 86.8032C448.472 86.8032 447.965 87.091 447.628 87.6665V94H445.229V85.0186H447.487ZM457.68 82.8105V85.0186H459.216V86.7783H457.68V91.2607C457.68 91.5928 457.744 91.8307 457.871 91.9746C457.998 92.1185 458.242 92.1904 458.602 92.1904C458.867 92.1904 459.102 92.1711 459.307 92.1323V93.9502C458.837 94.0941 458.353 94.166 457.854 94.166C456.172 94.166 455.314 93.3166 455.281 91.6177V86.7783H453.97V85.0186H455.281V82.8105H457.68Z" fill="#F0E442"/>
<rect x="79" width="395" height="31" fill="#333333"/>
<rect x="79" width="395" height="31" fill="#333333"/>
<rect width="79" height="31" fill="#090808"/>
<path d="M12.105 17.8101C12.105 17.5513 11.9756 17.3486 11.7168 17.2021C11.4629 17.0508 11.0527 16.9165 10.4863 16.7993C8.60156 16.4038 7.65918 15.603 7.65918 14.397C7.65918 13.6938 7.94971 13.1079 8.53076 12.6392C9.1167 12.1655 9.88086 11.9287 10.8232 11.9287C11.8291 11.9287 12.6323 12.1655 13.2329 12.6392C13.8384 13.1128 14.1411 13.728 14.1411 14.4849H12.0244C12.0244 14.1821 11.9268 13.9331 11.7314 13.7378C11.5361 13.5376 11.231 13.4375 10.8159 13.4375C10.4595 13.4375 10.1836 13.5181 9.98828 13.6792C9.79297 13.8403 9.69531 14.0454 9.69531 14.2944C9.69531 14.5288 9.80518 14.7192 10.0249 14.8657C10.2495 15.0073 10.6255 15.1318 11.1528 15.2393C11.6802 15.3418 12.1245 15.459 12.4858 15.5908C13.604 16.001 14.1631 16.7114 14.1631 17.7222C14.1631 18.4448 13.853 19.0308 13.2329 19.48C12.6128 19.9243 11.812 20.1465 10.8306 20.1465C10.1665 20.1465 9.57568 20.0293 9.05811 19.7949C8.54541 19.5557 8.14258 19.231 7.84961 18.8208C7.55664 18.4058 7.41016 17.959 7.41016 17.4805H9.41699C9.43652 17.8564 9.57568 18.1445 9.83447 18.3447C10.0933 18.5449 10.4399 18.645 10.8745 18.645C11.2798 18.645 11.585 18.5693 11.79 18.418C12 18.2617 12.105 18.0591 12.105 17.8101ZM18.8286 18.4399C19.2192 18.4399 19.5366 18.3325 19.7808 18.1177C20.0249 17.9028 20.1519 17.6172 20.1616 17.2607H22.1465C22.1416 17.7979 21.9951 18.291 21.707 18.7402C21.4189 19.1846 21.0234 19.5312 20.5205 19.7803C20.0225 20.0244 19.4707 20.1465 18.8652 20.1465C17.7324 20.1465 16.8389 19.7876 16.1846 19.0698C15.5303 18.3472 15.2031 17.3511 15.2031 16.0815V15.9424C15.2031 14.7217 15.5278 13.7476 16.1772 13.02C16.8267 12.2925 17.7178 11.9287 18.8506 11.9287C19.8418 11.9287 20.6353 12.2119 21.231 12.7783C21.8315 13.3398 22.1367 14.0894 22.1465 15.0269H20.1616C20.1519 14.6167 20.0249 14.2847 19.7808 14.0308C19.5366 13.772 19.2144 13.6426 18.814 13.6426C18.3208 13.6426 17.9473 13.8232 17.6934 14.1846C17.4443 14.541 17.3198 15.1221 17.3198 15.9277V16.1475C17.3198 16.9629 17.4443 17.5488 17.6934 17.9053C17.9424 18.2617 18.3208 18.4399 18.8286 18.4399ZM27.8081 14.0601C27.52 14.021 27.2661 14.0015 27.0464 14.0015C26.2456 14.0015 25.7207 14.2725 25.4717 14.8145V20H23.355V12.0752H25.3545L25.4131 13.02C25.8379 12.2925 26.4263 11.9287 27.1782 11.9287C27.4126 11.9287 27.6323 11.9604 27.8374 12.0239L27.8081 14.0601ZM31.0674 20H28.9434V12.0752H31.0674V20ZM28.8188 10.0244C28.8188 9.70703 28.9238 9.4458 29.1338 9.24072C29.3486 9.03564 29.6392 8.93311 30.0054 8.93311C30.3667 8.93311 30.6548 9.03564 30.8696 9.24072C31.0845 9.4458 31.1919 9.70703 31.1919 10.0244C31.1919 10.3467 31.082 10.6104 30.8623 10.8154C30.6475 11.0205 30.3618 11.123 30.0054 11.123C29.6489 11.123 29.3608 11.0205 29.1411 10.8154C28.9263 10.6104 28.8188 10.3467 28.8188 10.0244ZM39.9517 16.1108C39.9517 17.3315 39.6733 18.3105 39.1167 19.0479C38.5649 19.7803 37.8179 20.1465 36.8755 20.1465C36.0747 20.1465 35.4277 19.8682 34.9346 19.3115V23.0469H32.8179V12.0752H34.7808L34.854 12.8516C35.3667 12.2363 36.0356 11.9287 36.8608 11.9287C37.8374 11.9287 38.5967 12.29 39.1387 13.0127C39.6807 13.7354 39.9517 14.7314 39.9517 16.001V16.1108ZM37.835 15.957C37.835 15.2197 37.7031 14.6509 37.4395 14.2505C37.1807 13.8501 36.8022 13.6499 36.3042 13.6499C35.6401 13.6499 35.1836 13.9038 34.9346 14.4116V17.6562C35.1934 18.1787 35.6548 18.4399 36.3188 18.4399C37.3296 18.4399 37.835 17.6123 37.835 15.957ZM43.8042 10.127V12.0752H45.1592V13.6279H43.8042V17.583C43.8042 17.876 43.8604 18.0859 43.9727 18.2129C44.085 18.3398 44.2998 18.4033 44.6172 18.4033C44.8516 18.4033 45.0591 18.3862 45.2397 18.3521V19.9561C44.8247 20.083 44.3975 20.1465 43.958 20.1465C42.4736 20.1465 41.7168 19.397 41.6875 17.8979V13.6279H40.5303V12.0752H41.6875V10.127H43.8042ZM46.4482 18.96C46.4482 18.623 46.5605 18.3496 46.7852 18.1396C47.0146 17.9297 47.3003 17.8247 47.6421 17.8247C47.9888 17.8247 48.2744 17.9297 48.499 18.1396C48.7285 18.3496 48.8433 18.623 48.8433 18.96C48.8433 19.292 48.731 19.563 48.5063 19.7729C48.2817 19.978 47.9937 20.0806 47.6421 20.0806C47.2954 20.0806 47.0098 19.978 46.7852 19.7729C46.5605 19.563 46.4482 19.292 46.4482 18.96ZM57.8374 16.1108C57.8374 17.3315 57.5591 18.3105 57.0024 19.0479C56.4507 19.7803 55.7036 20.1465 54.7612 20.1465C53.9604 20.1465 53.3135 19.8682 52.8203 19.3115V23.0469H50.7036V12.0752H52.6665L52.7397 12.8516C53.2524 12.2363 53.9214 11.9287 54.7466 11.9287C55.7231 11.9287 56.4824 12.29 57.0244 13.0127C57.5664 13.7354 57.8374 14.7314 57.8374 16.001V16.1108ZM55.7207 15.957C55.7207 15.2197 55.5889 14.6509 55.3252 14.2505C55.0664 13.8501 54.688 13.6499 54.1899 13.6499C53.5259 13.6499 53.0693 13.9038 52.8203 14.4116V17.6562C53.0791 18.1787 53.5405 18.4399 54.2046 18.4399C55.2153 18.4399 55.7207 17.6123 55.7207 15.957ZM62.0269 17.0044L63.4917 12.0752H65.7622L62.5762 21.2305L62.4004 21.6479C61.9268 22.6831 61.1455 23.2007 60.0566 23.2007C59.749 23.2007 59.4365 23.1543 59.1191 23.0615V21.4575L59.4414 21.4648C59.8418 21.4648 60.1396 21.4038 60.335 21.2817C60.5352 21.1597 60.6914 20.957 60.8037 20.6738L61.0527 20.022L58.2769 12.0752H60.5547L62.0269 17.0044Z" fill="white"/>
<path d="M7.705 51.28C7.705 50.67 7.795 50.125 7.975 49.645C8.155 49.165 8.39 48.76 8.68 48.43C8.98 48.09 9.32 47.83 9.7 47.65C10.08 47.47 10.475 47.38 10.885 47.38C11.315 47.38 11.675 47.455 11.965 47.605C12.255 47.745 12.53 47.935 12.79 48.175L12.715 47.02V44.485H14.92V55H13.12L12.955 54.235H12.91C12.63 54.505 12.31 54.73 11.95 54.91C11.59 55.09 11.22 55.18 10.84 55.18C10.37 55.18 9.94 55.09 9.55 54.91C9.17 54.73 8.84 54.475 8.56 54.145C8.29 53.805 8.08 53.395 7.93 52.915C7.78 52.435 7.705 51.89 7.705 51.28ZM9.97 51.25C9.97 51.99 10.095 52.53 10.345 52.87C10.595 53.21 10.95 53.38 11.41 53.38C11.66 53.38 11.89 53.33 12.1 53.23C12.31 53.12 12.515 52.94 12.715 52.69V49.675C12.515 49.495 12.31 49.37 12.1 49.3C11.9 49.22 11.69 49.18 11.47 49.18C11.06 49.18 10.705 49.35 10.405 49.69C10.115 50.03 9.97 50.55 9.97 51.25ZM16.8191 51.28C16.8191 50.67 16.9241 50.125 17.1341 49.645C17.3541 49.165 17.6441 48.76 18.0041 48.43C18.3641 48.09 18.7741 47.83 19.2341 47.65C19.7041 47.47 20.1891 47.38 20.6891 47.38C21.2591 47.38 21.7641 47.47 22.2041 47.65C22.6441 47.83 23.0091 48.08 23.2991 48.4C23.5891 48.72 23.8091 49.1 23.9591 49.54C24.1091 49.97 24.1841 50.44 24.1841 50.95C24.1841 51.15 24.1741 51.34 24.1541 51.52C24.1341 51.7 24.1141 51.835 24.0941 51.925H19.0841C19.1641 52.485 19.4041 52.89 19.8041 53.14C20.2141 53.38 20.6941 53.5 21.2441 53.5C21.5841 53.5 21.9041 53.46 22.2041 53.38C22.5141 53.29 22.8341 53.16 23.1641 52.99L23.8841 54.31C23.4641 54.58 22.9941 54.795 22.4741 54.955C21.9541 55.105 21.4441 55.18 20.9441 55.18C20.3641 55.18 19.8241 55.095 19.3241 54.925C18.8241 54.745 18.3891 54.49 18.0191 54.16C17.6491 53.82 17.3541 53.41 17.1341 52.93C16.9241 52.45 16.8191 51.9 16.8191 51.28ZM22.1891 50.47C22.1891 50.05 22.0741 49.71 21.8441 49.45C21.6141 49.19 21.2441 49.06 20.7341 49.06C20.3341 49.06 19.9791 49.175 19.6691 49.405C19.3591 49.635 19.1541 49.99 19.0541 50.47H22.1891ZM33.3433 46.33C32.8533 46.14 32.3333 46.045 31.7833 46.045C31.3033 46.045 30.9483 46.15 30.7183 46.36C30.4983 46.57 30.3883 46.9 30.3883 47.35V47.56H32.9533V49.285H30.3883V55H28.1833V49.285H26.2183V47.65L28.1833 47.56V47.365C28.1833 46.935 28.2483 46.535 28.3783 46.165C28.5083 45.795 28.7083 45.475 28.9783 45.205C29.2483 44.925 29.5933 44.705 30.0133 44.545C30.4333 44.385 30.9333 44.305 31.5133 44.305C31.9433 44.305 32.3433 44.345 32.7133 44.425C33.0933 44.505 33.4433 44.6 33.7633 44.71L33.3433 46.33ZM44.7166 84.56H46.5166L46.6966 86.18H46.7416C47.1116 85.57 47.5566 85.12 48.0766 84.83C48.5966 84.53 49.1566 84.38 49.7566 84.38C50.0866 84.38 50.3516 84.405 50.5516 84.455C50.7616 84.505 50.9766 84.58 51.1966 84.68L50.7466 86.525C50.5166 86.455 50.3066 86.405 50.1166 86.375C49.9366 86.335 49.7066 86.315 49.4266 86.315C48.9666 86.315 48.5116 86.45 48.0616 86.72C47.6216 86.99 47.2416 87.46 46.9216 88.13V92H44.7166V84.56ZM52.7957 88.28C52.7957 87.67 52.9007 87.125 53.1107 86.645C53.3307 86.165 53.6207 85.76 53.9807 85.43C54.3407 85.09 54.7507 84.83 55.2107 84.65C55.6807 84.47 56.1657 84.38 56.6657 84.38C57.2357 84.38 57.7407 84.47 58.1807 84.65C58.6207 84.83 58.9857 85.08 59.2757 85.4C59.5657 85.72 59.7857 86.1 59.9357 86.54C60.0857 86.97 60.1607 87.44 60.1607 87.95C60.1607 88.15 60.1507 88.34 60.1307 88.52C60.1107 88.7 60.0907 88.835 60.0707 88.925H55.0607C55.1407 89.485 55.3807 89.89 55.7807 90.14C56.1907 90.38 56.6707 90.5 57.2207 90.5C57.5607 90.5 57.8807 90.46 58.1807 90.38C58.4907 90.29 58.8107 90.16 59.1407 89.99L59.8607 91.31C59.4407 91.58 58.9707 91.795 58.4507 91.955C57.9307 92.105 57.4207 92.18 56.9207 92.18C56.3407 92.18 55.8007 92.095 55.3007 91.925C54.8007 91.745 54.3657 91.49 53.9957 91.16C53.6257 90.82 53.3307 90.41 53.1107 89.93C52.9007 89.45 52.7957 88.9 52.7957 88.28ZM58.1657 87.47C58.1657 87.05 58.0507 86.71 57.8207 86.45C57.5907 86.19 57.2207 86.06 56.7107 86.06C56.3107 86.06 55.9557 86.175 55.6457 86.405C55.3357 86.635 55.1307 86.99 55.0307 87.47H58.1657ZM63.5748 86.285H61.6998V84.65L63.6798 84.56L63.9648 82.58H65.7798V84.56H68.9298V86.285H65.7798V88.895C65.7798 89.465 65.9048 89.87 66.1548 90.11C66.4048 90.34 66.7998 90.455 67.3398 90.455C67.6298 90.455 67.8948 90.43 68.1348 90.38C68.3748 90.33 68.6048 90.265 68.8248 90.185L69.2148 91.775C68.8848 91.875 68.5148 91.965 68.1048 92.045C67.7048 92.135 67.2648 92.18 66.7848 92.18C66.1948 92.18 65.6948 92.1 65.2848 91.94C64.8748 91.78 64.5398 91.56 64.2798 91.28C64.0298 90.99 63.8498 90.645 63.7398 90.245C63.6298 89.845 63.5748 89.4 63.5748 88.91V86.285ZM77.834 92H76.034L75.869 90.935H75.809C75.479 91.315 75.114 91.62 74.714 91.85C74.314 92.07 73.844 92.18 73.304 92.18C72.454 92.18 71.839 91.91 71.459 91.37C71.079 90.83 70.889 90.09 70.889 89.15V84.56H73.094V88.865C73.094 89.365 73.169 89.73 73.319 89.96C73.469 90.19 73.754 90.305 74.174 90.305C74.454 90.305 74.699 90.245 74.909 90.125C75.129 90.005 75.369 89.78 75.629 89.45V84.56H77.834V92ZM80.6931 84.56H82.4931L82.6731 86.18H82.7181C83.0881 85.57 83.5331 85.12 84.0531 84.83C84.5731 84.53 85.1331 84.38 85.7331 84.38C86.0631 84.38 86.3281 84.405 86.5281 84.455C86.7381 84.505 86.9531 84.58 87.1731 84.68L86.7231 86.525C86.4931 86.455 86.2831 86.405 86.0931 86.375C85.9131 86.335 85.6831 86.315 85.4031 86.315C84.9431 86.315 84.4881 86.45 84.0381 86.72C83.5981 86.99 83.2181 87.46 82.8981 88.13V92H80.6931V84.56ZM89.0273 84.56H90.8273L90.9923 85.55H91.0523C91.3723 85.23 91.7373 84.955 92.1473 84.725C92.5673 84.495 93.0573 84.38 93.6173 84.38C94.4573 84.38 95.0723 84.65 95.4623 85.19C95.8523 85.73 96.0473 86.47 96.0473 87.41V92H93.8423V87.695C93.8423 87.195 93.7623 86.83 93.6023 86.6C93.4423 86.37 93.1573 86.255 92.7473 86.255C92.4473 86.255 92.1823 86.32 91.9523 86.45C91.7323 86.58 91.4923 86.775 91.2323 87.035V92H89.0273V84.56Z" fill="#E69F00"/>
<path d="M102.821 57.685C101.841 56.815 101.066 55.81 100.496 54.67C99.9364 53.53 99.6564 52.25 99.6564 50.83C99.6564 49.41 99.9364 48.13 100.496 46.99C101.066 45.85 101.841 44.845 102.821 43.975L104.051 44.95C103.161 45.82 102.511 46.725 102.101 47.665C101.701 48.595 101.501 49.65 101.501 50.83C101.501 51.42 101.551 51.98 101.651 52.51C101.751 53.03 101.901 53.53 102.101 54.01C102.311 54.49 102.576 54.95 102.896 55.39C103.216 55.84 103.601 56.28 104.051 56.71L102.821 57.685ZM106.851 52.93C106.851 52.51 106.941 52.145 107.121 51.835C107.301 51.515 107.586 51.245 107.976 51.025C108.376 50.805 108.886 50.63 109.506 50.5C110.126 50.36 110.876 50.265 111.756 50.215C111.716 49.875 111.566 49.61 111.306 49.42C111.056 49.23 110.676 49.135 110.166 49.135C109.806 49.135 109.441 49.2 109.071 49.33C108.711 49.45 108.321 49.615 107.901 49.825L107.121 48.385C107.631 48.095 108.176 47.855 108.756 47.665C109.346 47.475 109.961 47.38 110.601 47.38C111.641 47.38 112.461 47.655 113.061 48.205C113.661 48.755 113.961 49.6 113.961 50.74V55H112.161L111.996 54.16H111.936C111.556 54.45 111.141 54.695 110.691 54.895C110.241 55.085 109.776 55.18 109.296 55.18C108.916 55.18 108.576 55.12 108.276 55C107.976 54.89 107.721 54.735 107.511 54.535C107.301 54.325 107.136 54.085 107.016 53.815C106.906 53.545 106.851 53.25 106.851 52.93ZM108.966 52.765C108.966 53.005 109.056 53.185 109.236 53.305C109.426 53.415 109.681 53.47 110.001 53.47C110.331 53.47 110.641 53.405 110.931 53.275C111.221 53.135 111.496 52.965 111.756 52.765V51.535C111.206 51.565 110.751 51.615 110.391 51.685C110.031 51.755 109.746 51.845 109.536 51.955C109.326 52.055 109.176 52.175 109.086 52.315C109.006 52.455 108.966 52.605 108.966 52.765ZM123.03 55.81V57.46H115.83V55.81H123.03ZM125.004 47.56H126.804L126.969 48.55H127.029C127.349 48.23 127.714 47.955 128.124 47.725C128.544 47.495 129.034 47.38 129.594 47.38C130.434 47.38 131.049 47.65 131.439 48.19C131.829 48.73 132.024 49.47 132.024 50.41V55H129.819V50.695C129.819 50.195 129.739 49.83 129.579 49.6C129.419 49.37 129.134 49.255 128.724 49.255C128.424 49.255 128.159 49.32 127.929 49.45C127.709 49.58 127.469 49.775 127.209 50.035V55H125.004V47.56ZM140.793 55H138.993L138.828 53.935H138.768C138.438 54.315 138.073 54.62 137.673 54.85C137.273 55.07 136.803 55.18 136.263 55.18C135.413 55.18 134.798 54.91 134.418 54.37C134.038 53.83 133.848 53.09 133.848 52.15V47.56H136.053V51.865C136.053 52.365 136.128 52.73 136.278 52.96C136.428 53.19 136.713 53.305 137.133 53.305C137.413 53.305 137.658 53.245 137.868 53.125C138.088 53.005 138.328 52.78 138.588 52.45V47.56H140.793V55ZM142.452 47.56H144.102L144.267 48.49H144.327C144.467 48.18 144.657 47.92 144.897 47.71C145.147 47.49 145.487 47.38 145.917 47.38C146.247 47.38 146.522 47.485 146.742 47.695C146.972 47.895 147.132 48.195 147.222 48.595C147.362 48.255 147.562 47.97 147.822 47.74C148.092 47.5 148.437 47.38 148.857 47.38C149.377 47.38 149.782 47.595 150.072 48.025C150.362 48.445 150.507 49.03 150.507 49.78V55H148.437V49.945C148.437 49.485 148.297 49.255 148.017 49.255C147.747 49.255 147.517 49.495 147.327 49.975V55H145.632V49.945C145.632 49.485 145.487 49.255 145.197 49.255C145.057 49.255 144.937 49.315 144.837 49.435C144.737 49.555 144.632 49.735 144.522 49.975V55H142.452V47.56ZM151.986 44.485H154.191V47.065L154.131 48.235C154.421 47.965 154.746 47.755 155.106 47.605C155.476 47.455 155.841 47.38 156.201 47.38C156.661 47.38 157.076 47.47 157.446 47.65C157.826 47.83 158.141 48.085 158.391 48.415C158.651 48.735 158.851 49.13 158.991 49.6C159.131 50.06 159.201 50.575 159.201 51.145C159.201 51.785 159.111 52.355 158.931 52.855C158.751 53.355 158.511 53.78 158.211 54.13C157.911 54.47 157.566 54.73 157.176 54.91C156.796 55.09 156.396 55.18 155.976 55.18C155.626 55.18 155.276 55.095 154.926 54.925C154.586 54.755 154.261 54.51 153.951 54.19H153.891L153.711 55H151.986V44.485ZM154.191 52.885C154.401 53.065 154.616 53.195 154.836 53.275C155.066 53.345 155.281 53.38 155.481 53.38C155.891 53.38 156.236 53.21 156.516 52.87C156.796 52.52 156.936 51.96 156.936 51.19C156.936 49.85 156.481 49.18 155.571 49.18C155.101 49.18 154.641 49.41 154.191 49.87V52.885ZM160.725 51.28C160.725 50.67 160.83 50.125 161.04 49.645C161.26 49.165 161.55 48.76 161.91 48.43C162.27 48.09 162.68 47.83 163.14 47.65C163.61 47.47 164.095 47.38 164.595 47.38C165.165 47.38 165.67 47.47 166.11 47.65C166.55 47.83 166.915 48.08 167.205 48.4C167.495 48.72 167.715 49.1 167.865 49.54C168.015 49.97 168.09 50.44 168.09 50.95C168.09 51.15 168.08 51.34 168.06 51.52C168.04 51.7 168.02 51.835 168 51.925H162.99C163.07 52.485 163.31 52.89 163.71 53.14C164.12 53.38 164.6 53.5 165.15 53.5C165.49 53.5 165.81 53.46 166.11 53.38C166.42 53.29 166.74 53.16 167.07 52.99L167.79 54.31C167.37 54.58 166.9 54.795 166.38 54.955C165.86 55.105 165.35 55.18 164.85 55.18C164.27 55.18 163.73 55.095 163.23 54.925C162.73 54.745 162.295 54.49 161.925 54.16C161.555 53.82 161.26 53.41 161.04 52.93C160.83 52.45 160.725 51.9 160.725 51.28ZM166.095 50.47C166.095 50.05 165.98 49.71 165.75 49.45C165.52 49.19 165.15 49.06 164.64 49.06C164.24 49.06 163.885 49.175 163.575 49.405C163.265 49.635 163.06 49.99 162.96 50.47H166.095ZM170.635 47.56H172.435L172.615 49.18H172.66C173.03 48.57 173.475 48.12 173.995 47.83C174.515 47.53 175.075 47.38 175.675 47.38C176.005 47.38 176.27 47.405 176.47 47.455C176.68 47.505 176.895 47.58 177.115 47.68L176.665 49.525C176.435 49.455 176.225 49.405 176.035 49.375C175.855 49.335 175.625 49.315 175.345 49.315C174.885 49.315 174.43 49.45 173.98 49.72C173.54 49.99 173.16 50.46 172.84 51.13V55H170.635V47.56ZM179.779 56.71C180.229 56.28 180.614 55.84 180.934 55.39C181.254 54.95 181.514 54.49 181.714 54.01C181.924 53.53 182.079 53.03 182.179 52.51C182.279 51.98 182.329 51.42 182.329 50.83C182.329 49.65 182.124 48.595 181.714 47.665C181.314 46.725 180.669 45.82 179.779 44.95L181.009 43.975C181.989 44.845 182.759 45.85 183.319 46.99C183.889 48.13 184.174 49.41 184.174 50.83C184.174 52.25 183.889 53.53 183.319 54.67C182.759 55.81 181.989 56.815 181.009 57.685L179.779 56.71ZM189.643 48.58C189.643 48.33 189.683 48.1 189.763 47.89C189.853 47.67 189.973 47.48 190.123 47.32C190.273 47.16 190.453 47.035 190.663 46.945C190.883 46.855 191.123 46.81 191.383 46.81C191.643 46.81 191.878 46.855 192.088 46.945C192.308 47.035 192.493 47.16 192.643 47.32C192.793 47.48 192.908 47.67 192.988 47.89C193.078 48.1 193.123 48.33 193.123 48.58C193.123 49.08 192.963 49.5 192.643 49.84C192.323 50.17 191.903 50.335 191.383 50.335C190.863 50.335 190.443 50.17 190.123 49.84C189.803 49.5 189.643 49.08 189.643 48.58ZM189.643 53.425C189.643 53.175 189.683 52.945 189.763 52.735C189.853 52.515 189.973 52.325 190.123 52.165C190.273 52.005 190.453 51.88 190.663 51.79C190.883 51.7 191.123 51.655 191.383 51.655C191.643 51.655 191.878 51.7 192.088 51.79C192.308 51.88 192.493 52.005 192.643 52.165C192.793 52.325 192.908 52.515 192.988 52.735C193.078 52.945 193.123 53.175 193.123 53.425C193.123 53.925 192.963 54.345 192.643 54.685C192.323 55.015 191.903 55.18 191.383 55.18C190.863 55.18 190.443 55.015 190.123 54.685C189.803 54.345 189.643 53.925 189.643 53.425ZM44.7616 71.66C45.1916 71.93 45.6216 72.145 46.0516 72.305C46.4916 72.465 46.9616 72.545 47.4616 72.545C47.9716 72.545 48.3366 72.49 48.5566 72.38C48.7766 72.27 48.8866 72.115 48.8866 71.915C48.8866 71.685 48.7016 71.5 48.3316 71.36C47.9716 71.21 47.4916 71.05 46.8916 70.88C46.5616 70.79 46.2366 70.685 45.9166 70.565C45.6066 70.435 45.3266 70.285 45.0766 70.115C44.8266 69.935 44.6216 69.73 44.4616 69.5C44.3116 69.27 44.2366 69.005 44.2366 68.705C44.2366 68.365 44.3166 68.05 44.4766 67.76C44.6366 67.47 44.8616 67.225 45.1516 67.025C45.4516 66.825 45.8116 66.67 46.2316 66.56C46.6616 66.44 47.1416 66.38 47.6716 66.38C48.3316 66.38 48.9316 66.49 49.4716 66.71C50.0216 66.92 50.4916 67.15 50.8816 67.4L49.8916 68.72C49.5516 68.52 49.2016 68.355 48.8416 68.225C48.4816 68.085 48.1066 68.015 47.7166 68.015C47.2466 68.015 46.9116 68.065 46.7116 68.165C46.5216 68.265 46.4266 68.41 46.4266 68.6C46.4266 68.71 46.4766 68.81 46.5766 68.9C46.6766 68.99 46.8116 69.07 46.9816 69.14C47.1516 69.21 47.3516 69.28 47.5816 69.35C47.8216 69.41 48.0716 69.475 48.3316 69.545C48.7016 69.645 49.0516 69.76 49.3816 69.89C49.7116 70.01 50.0016 70.155 50.2516 70.325C50.5016 70.495 50.7016 70.7 50.8516 70.94C51.0016 71.18 51.0766 71.46 51.0766 71.78C51.0766 72.12 50.9966 72.435 50.8366 72.725C50.6766 73.015 50.4416 73.27 50.1316 73.49C49.8316 73.7 49.4516 73.87 48.9916 74C48.5416 74.12 48.0166 74.18 47.4166 74.18C46.7466 74.18 46.0916 74.07 45.4516 73.85C44.8116 73.63 44.2516 73.36 43.7716 73.04L44.7616 71.66ZM52.6757 70.28C52.6757 69.67 52.7657 69.125 52.9457 68.645C53.1257 68.165 53.3607 67.76 53.6507 67.43C53.9507 67.09 54.2907 66.83 54.6707 66.65C55.0507 66.47 55.4457 66.38 55.8557 66.38C56.2757 66.38 56.6457 66.455 56.9657 66.605C57.2957 66.755 57.6157 66.995 57.9257 67.325H57.9857L58.1657 66.56H59.8907V76.76H57.6857V74.465L57.7757 73.325C57.5157 73.575 57.2107 73.78 56.8607 73.94C56.5107 74.1 56.1607 74.18 55.8107 74.18C55.3407 74.18 54.9107 74.09 54.5207 73.91C54.1407 73.73 53.8107 73.475 53.5307 73.145C53.2607 72.805 53.0507 72.395 52.9007 71.915C52.7507 71.435 52.6757 70.89 52.6757 70.28ZM54.9407 70.25C54.9407 70.99 55.0657 71.53 55.3157 71.87C55.5657 72.21 55.9207 72.38 56.3807 72.38C56.6307 72.38 56.8607 72.33 57.0707 72.23C57.2807 72.12 57.4857 71.94 57.6857 71.69V68.675C57.4857 68.495 57.2807 68.37 57.0707 68.3C56.8707 68.22 56.6607 68.18 56.4407 68.18C56.0307 68.18 55.6757 68.35 55.3757 68.69C55.0857 69.03 54.9407 69.55 54.9407 70.25ZM68.8398 74H67.0398L66.8748 72.935H66.8148C66.4848 73.315 66.1198 73.62 65.7198 73.85C65.3198 74.07 64.8498 74.18 64.3098 74.18C63.4598 74.18 62.8448 73.91 62.4648 73.37C62.0848 72.83 61.8948 72.09 61.8948 71.15V66.56H64.0998V70.865C64.0998 71.365 64.1748 71.73 64.3248 71.96C64.4748 72.19 64.7598 72.305 65.1798 72.305C65.4598 72.305 65.7048 72.245 65.9148 72.125C66.1348 72.005 66.3748 71.78 66.6348 71.45V66.56H68.8398V74ZM70.874 71.93C70.874 71.51 70.964 71.145 71.144 70.835C71.324 70.515 71.609 70.245 71.999 70.025C72.399 69.805 72.909 69.63 73.529 69.5C74.149 69.36 74.899 69.265 75.779 69.215C75.739 68.875 75.589 68.61 75.329 68.42C75.079 68.23 74.699 68.135 74.189 68.135C73.829 68.135 73.464 68.2 73.094 68.33C72.734 68.45 72.344 68.615 71.924 68.825L71.144 67.385C71.654 67.095 72.199 66.855 72.779 66.665C73.369 66.475 73.984 66.38 74.624 66.38C75.664 66.38 76.484 66.655 77.084 67.205C77.684 67.755 77.984 68.6 77.984 69.74V74H76.184L76.019 73.16H75.959C75.579 73.45 75.164 73.695 74.714 73.895C74.264 74.085 73.799 74.18 73.319 74.18C72.939 74.18 72.599 74.12 72.299 74C71.999 73.89 71.744 73.735 71.534 73.535C71.324 73.325 71.159 73.085 71.039 72.815C70.929 72.545 70.874 72.25 70.874 71.93ZM72.989 71.765C72.989 72.005 73.079 72.185 73.259 72.305C73.449 72.415 73.704 72.47 74.024 72.47C74.354 72.47 74.664 72.405 74.954 72.275C75.244 72.135 75.519 71.965 75.779 71.765V70.535C75.229 70.565 74.774 70.615 74.414 70.685C74.054 70.755 73.769 70.845 73.559 70.955C73.349 71.055 73.199 71.175 73.109 71.315C73.029 71.455 72.989 71.605 72.989 71.765ZM80.6931 66.56H82.4931L82.6731 68.18H82.7181C83.0881 67.57 83.5331 67.12 84.0531 66.83C84.5731 66.53 85.1331 66.38 85.7331 66.38C86.0631 66.38 86.3281 66.405 86.5281 66.455C86.7381 66.505 86.9531 66.58 87.1731 66.68L86.7231 68.525C86.4931 68.455 86.2831 68.405 86.0931 68.375C85.9131 68.335 85.6831 68.315 85.4031 68.315C84.9431 68.315 84.4881 68.45 84.0381 68.72C83.5981 68.99 83.2181 69.46 82.8981 70.13V74H80.6931V66.56ZM88.7723 70.28C88.7723 69.67 88.8773 69.125 89.0873 68.645C89.3073 68.165 89.5973 67.76 89.9573 67.43C90.3173 67.09 90.7273 66.83 91.1873 66.65C91.6573 66.47 92.1423 66.38 92.6423 66.38C93.2123 66.38 93.7173 66.47 94.1573 66.65C94.5973 66.83 94.9623 67.08 95.2523 67.4C95.5423 67.72 95.7623 68.1 95.9123 68.54C96.0623 68.97 96.1373 69.44 96.1373 69.95C96.1373 70.15 96.1273 70.34 96.1073 70.52C96.0873 70.7 96.0673 70.835 96.0473 70.925H91.0373C91.1173 71.485 91.3573 71.89 91.7573 72.14C92.1673 72.38 92.6473 72.5 93.1973 72.5C93.5373 72.5 93.8573 72.46 94.1573 72.38C94.4673 72.29 94.7873 72.16 95.1173 71.99L95.8373 73.31C95.4173 73.58 94.9473 73.795 94.4273 73.955C93.9073 74.105 93.3973 74.18 92.8973 74.18C92.3173 74.18 91.7773 74.095 91.2773 73.925C90.7773 73.745 90.3423 73.49 89.9723 73.16C89.6023 72.82 89.3073 72.41 89.0873 71.93C88.8773 71.45 88.7723 70.9 88.7723 70.28ZM94.1423 69.47C94.1423 69.05 94.0273 68.71 93.7973 68.45C93.5673 68.19 93.1973 68.06 92.6873 68.06C92.2873 68.06 91.9323 68.175 91.6223 68.405C91.3123 68.635 91.1073 68.99 91.0073 69.47H94.1423ZM97.6464 70.28C97.6464 69.67 97.7364 69.125 97.9164 68.645C98.0964 68.165 98.3314 67.76 98.6214 67.43C98.9214 67.09 99.2614 66.83 99.6414 66.65C100.021 66.47 100.416 66.38 100.826 66.38C101.256 66.38 101.616 66.455 101.906 66.605C102.196 66.745 102.471 66.935 102.731 67.175L102.656 66.02V63.485H104.861V74H103.061L102.896 73.235H102.851C102.571 73.505 102.251 73.73 101.891 73.91C101.531 74.09 101.161 74.18 100.781 74.18C100.311 74.18 99.8814 74.09 99.4914 73.91C99.1114 73.73 98.7814 73.475 98.5014 73.145C98.2314 72.805 98.0214 72.395 97.8714 71.915C97.7214 71.435 97.6464 70.89 97.6464 70.28ZM99.9114 70.25C99.9114 70.99 100.036 71.53 100.286 71.87C100.536 72.21 100.891 72.38 101.351 72.38C101.601 72.38 101.831 72.33 102.041 72.23C102.251 72.12 102.456 71.94 102.656 71.69V68.675C102.456 68.495 102.251 68.37 102.041 68.3C101.841 68.22 101.631 68.18 101.411 68.18C101.001 68.18 100.646 68.35 100.346 68.69C100.056 69.03 99.9114 69.55 99.9114 70.25ZM114.036 74.81V76.46H106.836V74.81H114.036ZM116.01 66.56H117.81L117.975 67.55H118.035C118.355 67.23 118.72 66.955 119.13 66.725C119.55 66.495 120.04 66.38 120.6 66.38C121.44 66.38 122.055 66.65 122.445 67.19C122.835 67.73 123.03 68.47 123.03 69.41V74H120.825V69.695C120.825 69.195 120.745 68.83 120.585 68.6C120.425 68.37 120.14 68.255 119.73 68.255C119.43 68.255 119.165 68.32 118.935 68.45C118.715 68.58 118.475 68.775 118.215 69.035V74H116.01V66.56ZM131.799 74H129.999L129.834 72.935H129.774C129.444 73.315 129.079 73.62 128.679 73.85C128.279 74.07 127.809 74.18 127.269 74.18C126.419 74.18 125.804 73.91 125.424 73.37C125.044 72.83 124.854 72.09 124.854 71.15V66.56H127.059V70.865C127.059 71.365 127.134 71.73 127.284 71.96C127.434 72.19 127.719 72.305 128.139 72.305C128.419 72.305 128.664 72.245 128.874 72.125C129.094 72.005 129.334 71.78 129.594 71.45V66.56H131.799V74ZM133.458 66.56H135.108L135.273 67.49H135.333C135.473 67.18 135.663 66.92 135.903 66.71C136.153 66.49 136.493 66.38 136.923 66.38C137.253 66.38 137.528 66.485 137.748 66.695C137.978 66.895 138.138 67.195 138.228 67.595C138.368 67.255 138.568 66.97 138.828 66.74C139.098 66.5 139.443 66.38 139.863 66.38C140.383 66.38 140.788 66.595 141.078 67.025C141.368 67.445 141.513 68.03 141.513 68.78V74H139.443V68.945C139.443 68.485 139.303 68.255 139.023 68.255C138.753 68.255 138.523 68.495 138.333 68.975V74H136.638V68.945C136.638 68.485 136.493 68.255 136.203 68.255C136.063 68.255 135.943 68.315 135.843 68.435C135.743 68.555 135.638 68.735 135.528 68.975V74H133.458V66.56ZM142.992 63.485H145.197V66.065L145.137 67.235C145.427 66.965 145.752 66.755 146.112 66.605C146.482 66.455 146.847 66.38 147.207 66.38C147.667 66.38 148.082 66.47 148.452 66.65C148.832 66.83 149.147 67.085 149.397 67.415C149.657 67.735 149.857 68.13 149.997 68.6C150.137 69.06 150.207 69.575 150.207 70.145C150.207 70.785 150.117 71.355 149.937 71.855C149.757 72.355 149.517 72.78 149.217 73.13C148.917 73.47 148.572 73.73 148.182 73.91C147.802 74.09 147.402 74.18 146.982 74.18C146.632 74.18 146.282 74.095 145.932 73.925C145.592 73.755 145.267 73.51 144.957 73.19H144.897L144.717 74H142.992V63.485ZM145.197 71.885C145.407 72.065 145.622 72.195 145.842 72.275C146.072 72.345 146.287 72.38 146.487 72.38C146.897 72.38 147.242 72.21 147.522 71.87C147.802 71.52 147.942 70.96 147.942 70.19C147.942 68.85 147.487 68.18 146.577 68.18C146.107 68.18 145.647 68.41 145.197 68.87V71.885ZM151.731 70.28C151.731 69.67 151.836 69.125 152.046 68.645C152.266 68.165 152.556 67.76 152.916 67.43C153.276 67.09 153.686 66.83 154.146 66.65C154.616 66.47 155.101 66.38 155.601 66.38C156.171 66.38 156.676 66.47 157.116 66.65C157.556 66.83 157.921 67.08 158.211 67.4C158.501 67.72 158.721 68.1 158.871 68.54C159.021 68.97 159.096 69.44 159.096 69.95C159.096 70.15 159.086 70.34 159.066 70.52C159.046 70.7 159.026 70.835 159.006 70.925H153.996C154.076 71.485 154.316 71.89 154.716 72.14C155.126 72.38 155.606 72.5 156.156 72.5C156.496 72.5 156.816 72.46 157.116 72.38C157.426 72.29 157.746 72.16 158.076 71.99L158.796 73.31C158.376 73.58 157.906 73.795 157.386 73.955C156.866 74.105 156.356 74.18 155.856 74.18C155.276 74.18 154.736 74.095 154.236 73.925C153.736 73.745 153.301 73.49 152.931 73.16C152.561 72.82 152.266 72.41 152.046 71.93C151.836 71.45 151.731 70.9 151.731 70.28ZM157.101 69.47C157.101 69.05 156.986 68.71 156.756 68.45C156.526 68.19 156.156 68.06 155.646 68.06C155.246 68.06 154.891 68.175 154.581 68.405C154.271 68.635 154.066 68.99 153.966 69.47H157.101ZM161.64 66.56H163.44L163.62 68.18H163.665C164.035 67.57 164.48 67.12 165 66.83C165.52 66.53 166.08 66.38 166.68 66.38C167.01 66.38 167.275 66.405 167.475 66.455C167.685 66.505 167.9 66.58 168.12 66.68L167.67 68.525C167.44 68.455 167.23 68.405 167.04 68.375C166.86 68.335 166.63 68.315 166.35 68.315C165.89 68.315 165.435 68.45 164.985 68.72C164.545 68.99 164.165 69.46 163.845 70.13V74H161.64V66.56ZM178.939 66.53H185.839V68.09H178.939V66.53ZM178.939 69.995H185.839V71.555H178.939V69.995ZM196.792 71.93C196.792 71.51 196.882 71.145 197.062 70.835C197.242 70.515 197.527 70.245 197.917 70.025C198.317 69.805 198.827 69.63 199.447 69.5C200.067 69.36 200.817 69.265 201.697 69.215C201.657 68.875 201.507 68.61 201.247 68.42C200.997 68.23 200.617 68.135 200.107 68.135C199.747 68.135 199.382 68.2 199.012 68.33C198.652 68.45 198.262 68.615 197.842 68.825L197.062 67.385C197.572 67.095 198.117 66.855 198.697 66.665C199.287 66.475 199.902 66.38 200.542 66.38C201.582 66.38 202.402 66.655 203.002 67.205C203.602 67.755 203.902 68.6 203.902 69.74V74H202.102L201.937 73.16H201.877C201.497 73.45 201.082 73.695 200.632 73.895C200.182 74.085 199.717 74.18 199.237 74.18C198.857 74.18 198.517 74.12 198.217 74C197.917 73.89 197.662 73.735 197.452 73.535C197.242 73.325 197.077 73.085 196.957 72.815C196.847 72.545 196.792 72.25 196.792 71.93ZM198.907 71.765C198.907 72.005 198.997 72.185 199.177 72.305C199.367 72.415 199.622 72.47 199.942 72.47C200.272 72.47 200.582 72.405 200.872 72.275C201.162 72.135 201.437 71.965 201.697 71.765V70.535C201.147 70.565 200.692 70.615 200.332 70.685C199.972 70.755 199.687 70.845 199.477 70.955C199.267 71.055 199.117 71.175 199.027 71.315C198.947 71.455 198.907 71.605 198.907 71.765ZM212.971 74.81V76.46H205.771V74.81H212.971ZM214.945 66.56H216.745L216.91 67.55H216.97C217.29 67.23 217.655 66.955 218.065 66.725C218.485 66.495 218.975 66.38 219.535 66.38C220.375 66.38 220.99 66.65 221.38 67.19C221.77 67.73 221.965 68.47 221.965 69.41V74H219.76V69.695C219.76 69.195 219.68 68.83 219.52 68.6C219.36 68.37 219.075 68.255 218.665 68.255C218.365 68.255 218.1 68.32 217.87 68.45C217.65 68.58 217.41 68.775 217.15 69.035V74H214.945V66.56ZM230.734 74H228.934L228.769 72.935H228.709C228.379 73.315 228.014 73.62 227.614 73.85C227.214 74.07 226.744 74.18 226.204 74.18C225.354 74.18 224.739 73.91 224.359 73.37C223.979 72.83 223.789 72.09 223.789 71.15V66.56H225.994V70.865C225.994 71.365 226.069 71.73 226.219 71.96C226.369 72.19 226.654 72.305 227.074 72.305C227.354 72.305 227.599 72.245 227.809 72.125C228.029 72.005 228.269 71.78 228.529 71.45V66.56H230.734V74ZM232.394 66.56H234.044L234.209 67.49H234.269C234.409 67.18 234.599 66.92 234.839 66.71C235.089 66.49 235.429 66.38 235.859 66.38C236.189 66.38 236.464 66.485 236.684 66.695C236.914 66.895 237.074 67.195 237.164 67.595C237.304 67.255 237.504 66.97 237.764 66.74C238.034 66.5 238.379 66.38 238.799 66.38C239.319 66.38 239.724 66.595 240.014 67.025C240.304 67.445 240.449 68.03 240.449 68.78V74H238.379V68.945C238.379 68.485 238.239 68.255 237.959 68.255C237.689 68.255 237.459 68.495 237.269 68.975V74H235.574V68.945C235.574 68.485 235.429 68.255 235.139 68.255C234.999 68.255 234.879 68.315 234.779 68.435C234.679 68.555 234.574 68.735 234.464 68.975V74H232.394V66.56ZM241.928 63.485H244.133V66.065L244.073 67.235C244.363 66.965 244.688 66.755 245.048 66.605C245.418 66.455 245.783 66.38 246.143 66.38C246.603 66.38 247.018 66.47 247.388 66.65C247.768 66.83 248.083 67.085 248.333 67.415C248.593 67.735 248.793 68.13 248.933 68.6C249.073 69.06 249.143 69.575 249.143 70.145C249.143 70.785 249.053 71.355 248.873 71.855C248.693 72.355 248.453 72.78 248.153 73.13C247.853 73.47 247.508 73.73 247.118 73.91C246.738 74.09 246.338 74.18 245.918 74.18C245.568 74.18 245.218 74.095 244.868 73.925C244.528 73.755 244.203 73.51 243.893 73.19H243.833L243.653 74H241.928V63.485ZM244.133 71.885C244.343 72.065 244.558 72.195 244.778 72.275C245.008 72.345 245.223 72.38 245.423 72.38C245.833 72.38 246.178 72.21 246.458 71.87C246.738 71.52 246.878 70.96 246.878 70.19C246.878 68.85 246.423 68.18 245.513 68.18C245.043 68.18 244.583 68.41 244.133 68.87V71.885ZM250.667 70.28C250.667 69.67 250.772 69.125 250.982 68.645C251.202 68.165 251.492 67.76 251.852 67.43C252.212 67.09 252.622 66.83 253.082 66.65C253.552 66.47 254.037 66.38 254.537 66.38C255.107 66.38 255.612 66.47 256.052 66.65C256.492 66.83 256.857 67.08 257.147 67.4C257.437 67.72 257.657 68.1 257.807 68.54C257.957 68.97 258.032 69.44 258.032 69.95C258.032 70.15 258.022 70.34 258.002 70.52C257.982 70.7 257.962 70.835 257.942 70.925H252.932C253.012 71.485 253.252 71.89 253.652 72.14C254.062 72.38 254.542 72.5 255.092 72.5C255.432 72.5 255.752 72.46 256.052 72.38C256.362 72.29 256.682 72.16 257.012 71.99L257.732 73.31C257.312 73.58 256.842 73.795 256.322 73.955C255.802 74.105 255.292 74.18 254.792 74.18C254.212 74.18 253.672 74.095 253.172 73.925C252.672 73.745 252.237 73.49 251.867 73.16C251.497 72.82 251.202 72.41 250.982 71.93C250.772 71.45 250.667 70.9 250.667 70.28ZM256.037 69.47C256.037 69.05 255.922 68.71 255.692 68.45C255.462 68.19 255.092 68.06 254.582 68.06C254.182 68.06 253.827 68.175 253.517 68.405C253.207 68.635 253.002 68.99 252.902 69.47H256.037ZM260.576 66.56H262.376L262.556 68.18H262.601C262.971 67.57 263.416 67.12 263.936 66.83C264.456 66.53 265.016 66.38 265.616 66.38C265.946 66.38 266.211 66.405 266.411 66.455C266.621 66.505 266.836 66.58 267.056 66.68L266.606 68.525C266.376 68.455 266.166 68.405 265.976 68.375C265.796 68.335 265.566 68.315 265.286 68.315C264.826 68.315 264.371 68.45 263.921 68.72C263.481 68.99 263.101 69.46 262.781 70.13V74H260.576V66.56ZM278.624 71.975L280.079 69.62L277.784 68.6L278.129 67.535L280.559 68.18L280.739 65.51H281.909L282.089 68.18L284.519 67.535L284.864 68.6L282.569 69.62L284.024 71.975L283.064 72.635L281.324 70.505L279.584 72.635L278.624 71.975ZM295.728 71.93C295.728 71.51 295.818 71.145 295.998 70.835C296.178 70.515 296.463 70.245 296.853 70.025C297.253 69.805 297.763 69.63 298.383 69.5C299.003 69.36 299.753 69.265 300.633 69.215C300.593 68.875 300.443 68.61 300.183 68.42C299.933 68.23 299.553 68.135 299.043 68.135C298.683 68.135 298.318 68.2 297.948 68.33C297.588 68.45 297.198 68.615 296.778 68.825L295.998 67.385C296.508 67.095 297.053 66.855 297.633 66.665C298.223 66.475 298.838 66.38 299.478 66.38C300.518 66.38 301.338 66.655 301.938 67.205C302.538 67.755 302.838 68.6 302.838 69.74V74H301.038L300.873 73.16H300.813C300.433 73.45 300.018 73.695 299.568 73.895C299.118 74.085 298.653 74.18 298.173 74.18C297.793 74.18 297.453 74.12 297.153 74C296.853 73.89 296.598 73.735 296.388 73.535C296.178 73.325 296.013 73.085 295.893 72.815C295.783 72.545 295.728 72.25 295.728 71.93ZM297.843 71.765C297.843 72.005 297.933 72.185 298.113 72.305C298.303 72.415 298.558 72.47 298.878 72.47C299.208 72.47 299.518 72.405 299.808 72.275C300.098 72.135 300.373 71.965 300.633 71.765V70.535C300.083 70.565 299.628 70.615 299.268 70.685C298.908 70.755 298.623 70.845 298.413 70.955C298.203 71.055 298.053 71.175 297.963 71.315C297.883 71.455 297.843 71.605 297.843 71.765ZM311.907 74.81V76.46H304.707V74.81H311.907ZM313.881 66.56H315.681L315.846 67.55H315.906C316.226 67.23 316.591 66.955 317.001 66.725C317.421 66.495 317.911 66.38 318.471 66.38C319.311 66.38 319.926 66.65 320.316 67.19C320.706 67.73 320.901 68.47 320.901 69.41V74H318.696V69.695C318.696 69.195 318.616 68.83 318.456 68.6C318.296 68.37 318.011 68.255 317.601 68.255C317.301 68.255 317.036 68.32 316.806 68.45C316.586 68.58 316.346 68.775 316.086 69.035V74H313.881V66.56ZM329.67 74H327.87L327.705 72.935H327.645C327.315 73.315 326.95 73.62 326.55 73.85C326.15 74.07 325.68 74.18 325.14 74.18C324.29 74.18 323.675 73.91 323.295 73.37C322.915 72.83 322.725 72.09 322.725 71.15V66.56H324.93V70.865C324.93 71.365 325.005 71.73 325.155 71.96C325.305 72.19 325.59 72.305 326.01 72.305C326.29 72.305 326.535 72.245 326.745 72.125C326.965 72.005 327.205 71.78 327.465 71.45V66.56H329.67V74ZM331.329 66.56H332.979L333.144 67.49H333.204C333.344 67.18 333.534 66.92 333.774 66.71C334.024 66.49 334.364 66.38 334.794 66.38C335.124 66.38 335.399 66.485 335.619 66.695C335.849 66.895 336.009 67.195 336.099 67.595C336.239 67.255 336.439 66.97 336.699 66.74C336.969 66.5 337.314 66.38 337.734 66.38C338.254 66.38 338.659 66.595 338.949 67.025C339.239 67.445 339.384 68.03 339.384 68.78V74H337.314V68.945C337.314 68.485 337.174 68.255 336.894 68.255C336.624 68.255 336.394 68.495 336.204 68.975V74H334.509V68.945C334.509 68.485 334.364 68.255 334.074 68.255C333.934 68.255 333.814 68.315 333.714 68.435C333.614 68.555 333.509 68.735 333.399 68.975V74H331.329V66.56ZM340.863 63.485H343.068V66.065L343.008 67.235C343.298 66.965 343.623 66.755 343.983 66.605C344.353 66.455 344.718 66.38 345.078 66.38C345.538 66.38 345.953 66.47 346.323 66.65C346.703 66.83 347.018 67.085 347.268 67.415C347.528 67.735 347.728 68.13 347.868 68.6C348.008 69.06 348.078 69.575 348.078 70.145C348.078 70.785 347.988 71.355 347.808 71.855C347.628 72.355 347.388 72.78 347.088 73.13C346.788 73.47 346.443 73.73 346.053 73.91C345.673 74.09 345.273 74.18 344.853 74.18C344.503 74.18 344.153 74.095 343.803 73.925C343.463 73.755 343.138 73.51 342.828 73.19H342.768L342.588 74H340.863V63.485ZM343.068 71.885C343.278 72.065 343.493 72.195 343.713 72.275C343.943 72.345 344.158 72.38 344.358 72.38C344.768 72.38 345.113 72.21 345.393 71.87C345.673 71.52 345.813 70.96 345.813 70.19C345.813 68.85 345.358 68.18 344.448 68.18C343.978 68.18 343.518 68.41 343.068 68.87V71.885ZM349.602 70.28C349.602 69.67 349.707 69.125 349.917 68.645C350.137 68.165 350.427 67.76 350.787 67.43C351.147 67.09 351.557 66.83 352.017 66.65C352.487 66.47 352.972 66.38 353.472 66.38C354.042 66.38 354.547 66.47 354.987 66.65C355.427 66.83 355.792 67.08 356.082 67.4C356.372 67.72 356.592 68.1 356.742 68.54C356.892 68.97 356.967 69.44 356.967 69.95C356.967 70.15 356.957 70.34 356.937 70.52C356.917 70.7 356.897 70.835 356.877 70.925H351.867C351.947 71.485 352.187 71.89 352.587 72.14C352.997 72.38 353.477 72.5 354.027 72.5C354.367 72.5 354.687 72.46 354.987 72.38C355.297 72.29 355.617 72.16 355.947 71.99L356.667 73.31C356.247 73.58 355.777 73.795 355.257 73.955C354.737 74.105 354.227 74.18 353.727 74.18C353.147 74.18 352.607 74.095 352.107 73.925C351.607 73.745 351.172 73.49 350.802 73.16C350.432 72.82 350.137 72.41 349.917 71.93C349.707 71.45 349.602 70.9 349.602 70.28ZM354.972 69.47C354.972 69.05 354.857 68.71 354.627 68.45C354.397 68.19 354.027 68.06 353.517 68.06C353.117 68.06 352.762 68.175 352.452 68.405C352.142 68.635 351.937 68.99 351.837 69.47H354.972ZM359.511 66.56H361.311L361.491 68.18H361.536C361.906 67.57 362.351 67.12 362.871 66.83C363.391 66.53 363.951 66.38 364.551 66.38C364.881 66.38 365.146 66.405 365.346 66.455C365.556 66.505 365.771 66.58 365.991 66.68L365.541 68.525C365.311 68.455 365.101 68.405 364.911 68.375C364.731 68.335 364.501 68.315 364.221 68.315C363.761 68.315 363.306 68.45 362.856 68.72C362.416 68.99 362.036 69.46 361.716 70.13V74H359.511V66.56ZM107.721 89.66C108.151 89.93 108.581 90.145 109.011 90.305C109.451 90.465 109.921 90.545 110.421 90.545C110.931 90.545 111.296 90.49 111.516 90.38C111.736 90.27 111.846 90.115 111.846 89.915C111.846 89.685 111.661 89.5 111.291 89.36C110.931 89.21 110.451 89.05 109.851 88.88C109.521 88.79 109.196 88.685 108.876 88.565C108.566 88.435 108.286 88.285 108.036 88.115C107.786 87.935 107.581 87.73 107.421 87.5C107.271 87.27 107.196 87.005 107.196 86.705C107.196 86.365 107.276 86.05 107.436 85.76C107.596 85.47 107.821 85.225 108.111 85.025C108.411 84.825 108.771 84.67 109.191 84.56C109.621 84.44 110.101 84.38 110.631 84.38C111.291 84.38 111.891 84.49 112.431 84.71C112.981 84.92 113.451 85.15 113.841 85.4L112.851 86.72C112.511 86.52 112.161 86.355 111.801 86.225C111.441 86.085 111.066 86.015 110.676 86.015C110.206 86.015 109.871 86.065 109.671 86.165C109.481 86.265 109.386 86.41 109.386 86.6C109.386 86.71 109.436 86.81 109.536 86.9C109.636 86.99 109.771 87.07 109.941 87.14C110.111 87.21 110.311 87.28 110.541 87.35C110.781 87.41 111.031 87.475 111.291 87.545C111.661 87.645 112.011 87.76 112.341 87.89C112.671 88.01 112.961 88.155 113.211 88.325C113.461 88.495 113.661 88.7 113.811 88.94C113.961 89.18 114.036 89.46 114.036 89.78C114.036 90.12 113.956 90.435 113.796 90.725C113.636 91.015 113.401 91.27 113.091 91.49C112.791 91.7 112.411 91.87 111.951 92C111.501 92.12 110.976 92.18 110.376 92.18C109.706 92.18 109.051 92.07 108.411 91.85C107.771 91.63 107.211 91.36 106.731 91.04L107.721 89.66ZM115.635 88.28C115.635 87.67 115.725 87.125 115.905 86.645C116.085 86.165 116.32 85.76 116.61 85.43C116.91 85.09 117.25 84.83 117.63 84.65C118.01 84.47 118.405 84.38 118.815 84.38C119.235 84.38 119.605 84.455 119.925 84.605C120.255 84.755 120.575 84.995 120.885 85.325H120.945L121.125 84.56H122.85V94.76H120.645V92.465L120.735 91.325C120.475 91.575 120.17 91.78 119.82 91.94C119.47 92.1 119.12 92.18 118.77 92.18C118.3 92.18 117.87 92.09 117.48 91.91C117.1 91.73 116.77 91.475 116.49 91.145C116.22 90.805 116.01 90.395 115.86 89.915C115.71 89.435 115.635 88.89 115.635 88.28ZM117.9 88.25C117.9 88.99 118.025 89.53 118.275 89.87C118.525 90.21 118.88 90.38 119.34 90.38C119.59 90.38 119.82 90.33 120.03 90.23C120.24 90.12 120.445 89.94 120.645 89.69V86.675C120.445 86.495 120.24 86.37 120.03 86.3C119.83 86.22 119.62 86.18 119.4 86.18C118.99 86.18 118.635 86.35 118.335 86.69C118.045 87.03 117.9 87.55 117.9 88.25ZM131.799 92H129.999L129.834 90.935H129.774C129.444 91.315 129.079 91.62 128.679 91.85C128.279 92.07 127.809 92.18 127.269 92.18C126.419 92.18 125.804 91.91 125.424 91.37C125.044 90.83 124.854 90.09 124.854 89.15V84.56H127.059V88.865C127.059 89.365 127.134 89.73 127.284 89.96C127.434 90.19 127.719 90.305 128.139 90.305C128.419 90.305 128.664 90.245 128.874 90.125C129.094 90.005 129.334 89.78 129.594 89.45V84.56H131.799V92ZM133.833 89.93C133.833 89.51 133.923 89.145 134.103 88.835C134.283 88.515 134.568 88.245 134.958 88.025C135.358 87.805 135.868 87.63 136.488 87.5C137.108 87.36 137.858 87.265 138.738 87.215C138.698 86.875 138.548 86.61 138.288 86.42C138.038 86.23 137.658 86.135 137.148 86.135C136.788 86.135 136.423 86.2 136.053 86.33C135.693 86.45 135.303 86.615 134.883 86.825L134.103 85.385C134.613 85.095 135.158 84.855 135.738 84.665C136.328 84.475 136.943 84.38 137.583 84.38C138.623 84.38 139.443 84.655 140.043 85.205C140.643 85.755 140.943 86.6 140.943 87.74V92H139.143L138.978 91.16H138.918C138.538 91.45 138.123 91.695 137.673 91.895C137.223 92.085 136.758 92.18 136.278 92.18C135.898 92.18 135.558 92.12 135.258 92C134.958 91.89 134.703 91.735 134.493 91.535C134.283 91.325 134.118 91.085 133.998 90.815C133.888 90.545 133.833 90.25 133.833 89.93ZM135.948 89.765C135.948 90.005 136.038 90.185 136.218 90.305C136.408 90.415 136.663 90.47 136.983 90.47C137.313 90.47 137.623 90.405 137.913 90.275C138.203 90.135 138.478 89.965 138.738 89.765V88.535C138.188 88.565 137.733 88.615 137.373 88.685C137.013 88.755 136.728 88.845 136.518 88.955C136.308 89.055 136.158 89.175 136.068 89.315C135.988 89.455 135.948 89.605 135.948 89.765ZM143.652 84.56H145.452L145.632 86.18H145.677C146.047 85.57 146.492 85.12 147.012 84.83C147.532 84.53 148.092 84.38 148.692 84.38C149.022 84.38 149.287 84.405 149.487 84.455C149.697 84.505 149.912 84.58 150.132 84.68L149.682 86.525C149.452 86.455 149.242 86.405 149.052 86.375C148.872 86.335 148.642 86.315 148.362 86.315C147.902 86.315 147.447 86.45 146.997 86.72C146.557 86.99 146.177 87.46 145.857 88.13V92H143.652V84.56ZM151.731 88.28C151.731 87.67 151.836 87.125 152.046 86.645C152.266 86.165 152.556 85.76 152.916 85.43C153.276 85.09 153.686 84.83 154.146 84.65C154.616 84.47 155.101 84.38 155.601 84.38C156.171 84.38 156.676 84.47 157.116 84.65C157.556 84.83 157.921 85.08 158.211 85.4C158.501 85.72 158.721 86.1 158.871 86.54C159.021 86.97 159.096 87.44 159.096 87.95C159.096 88.15 159.086 88.34 159.066 88.52C159.046 88.7 159.026 88.835 159.006 88.925H153.996C154.076 89.485 154.316 89.89 154.716 90.14C155.126 90.38 155.606 90.5 156.156 90.5C156.496 90.5 156.816 90.46 157.116 90.38C157.426 90.29 157.746 90.16 158.076 89.99L158.796 91.31C158.376 91.58 157.906 91.795 157.386 91.955C156.866 92.105 156.356 92.18 155.856 92.18C155.276 92.18 154.736 92.095 154.236 91.925C153.736 91.745 153.301 91.49 152.931 91.16C152.561 90.82 152.266 90.41 152.046 89.93C151.836 89.45 151.731 88.9 151.731 88.28ZM157.101 87.47C157.101 87.05 156.986 86.71 156.756 86.45C156.526 86.19 156.156 86.06 155.646 86.06C155.246 86.06 154.891 86.175 154.581 86.405C154.271 86.635 154.066 86.99 153.966 87.47H157.101ZM160.605 88.28C160.605 87.67 160.695 87.125 160.875 86.645C161.055 86.165 161.29 85.76 161.58 85.43C161.88 85.09 162.22 84.83 162.6 84.65C162.98 84.47 163.375 84.38 163.785 84.38C164.215 84.38 164.575 84.455 164.865 84.605C165.155 84.745 165.43 84.935 165.69 85.175L165.615 84.02V81.485H167.82V92H166.02L165.855 91.235H165.81C165.53 91.505 165.21 91.73 164.85 91.91C164.49 92.09 164.12 92.18 163.74 92.18C163.27 92.18 162.84 92.09 162.45 91.91C162.07 91.73 161.74 91.475 161.46 91.145C161.19 90.805 160.98 90.395 160.83 89.915C160.68 89.435 160.605 88.89 160.605 88.28ZM162.87 88.25C162.87 88.99 162.995 89.53 163.245 89.87C163.495 90.21 163.85 90.38 164.31 90.38C164.56 90.38 164.79 90.33 165 90.23C165.21 90.12 165.415 89.94 165.615 89.69V86.675C165.415 86.495 165.21 86.37 165 86.3C164.8 86.22 164.59 86.18 164.37 86.18C163.96 86.18 163.605 86.35 163.305 86.69C163.015 87.03 162.87 87.55 162.87 88.25ZM176.995 92.81V94.46H169.795V92.81H176.995ZM178.969 84.56H180.769L180.934 85.55H180.994C181.314 85.23 181.679 84.955 182.089 84.725C182.509 84.495 182.999 84.38 183.559 84.38C184.399 84.38 185.014 84.65 185.404 85.19C185.794 85.73 185.989 86.47 185.989 87.41V92H183.784V87.695C183.784 87.195 183.704 86.83 183.544 86.6C183.384 86.37 183.099 86.255 182.689 86.255C182.389 86.255 182.124 86.32 181.894 86.45C181.674 86.58 181.434 86.775 181.174 87.035V92H178.969V84.56ZM194.758 92H192.958L192.793 90.935H192.733C192.403 91.315 192.038 91.62 191.638 91.85C191.238 92.07 190.768 92.18 190.228 92.18C189.378 92.18 188.763 91.91 188.383 91.37C188.003 90.83 187.813 90.09 187.813 89.15V84.56H190.018V88.865C190.018 89.365 190.093 89.73 190.243 89.96C190.393 90.19 190.678 90.305 191.098 90.305C191.378 90.305 191.623 90.245 191.833 90.125C192.053 90.005 192.293 89.78 192.553 89.45V84.56H194.758V92ZM196.417 84.56H198.067L198.232 85.49H198.292C198.432 85.18 198.622 84.92 198.862 84.71C199.112 84.49 199.452 84.38 199.882 84.38C200.212 84.38 200.487 84.485 200.707 84.695C200.937 84.895 201.097 85.195 201.187 85.595C201.327 85.255 201.527 84.97 201.787 84.74C202.057 84.5 202.402 84.38 202.822 84.38C203.342 84.38 203.747 84.595 204.037 85.025C204.327 85.445 204.472 86.03 204.472 86.78V92H202.402V86.945C202.402 86.485 202.262 86.255 201.982 86.255C201.712 86.255 201.482 86.495 201.292 86.975V92H199.597V86.945C199.597 86.485 199.452 86.255 199.162 86.255C199.022 86.255 198.902 86.315 198.802 86.435C198.702 86.555 198.597 86.735 198.487 86.975V92H196.417V84.56ZM205.951 81.485H208.156V84.065L208.096 85.235C208.386 84.965 208.711 84.755 209.071 84.605C209.441 84.455 209.806 84.38 210.166 84.38C210.626 84.38 211.041 84.47 211.411 84.65C211.791 84.83 212.106 85.085 212.356 85.415C212.616 85.735 212.816 86.13 212.956 86.6C213.096 87.06 213.166 87.575 213.166 88.145C213.166 88.785 213.076 89.355 212.896 89.855C212.716 90.355 212.476 90.78 212.176 91.13C211.876 91.47 211.531 91.73 211.141 91.91C210.761 92.09 210.361 92.18 209.941 92.18C209.591 92.18 209.241 92.095 208.891 91.925C208.551 91.755 208.226 91.51 207.916 91.19H207.856L207.676 92H205.951V81.485ZM208.156 89.885C208.366 90.065 208.581 90.195 208.801 90.275C209.031 90.345 209.246 90.38 209.446 90.38C209.856 90.38 210.201 90.21 210.481 89.87C210.761 89.52 210.901 88.96 210.901 88.19C210.901 86.85 210.446 86.18 209.536 86.18C209.066 86.18 208.606 86.41 208.156 86.87V89.885ZM214.69 88.28C214.69 87.67 214.795 87.125 215.005 86.645C215.225 86.165 215.515 85.76 215.875 85.43C216.235 85.09 216.645 84.83 217.105 84.65C217.575 84.47 218.06 84.38 218.56 84.38C219.13 84.38 219.635 84.47 220.075 84.65C220.515 84.83 220.88 85.08 221.17 85.4C221.46 85.72 221.68 86.1 221.83 86.54C221.98 86.97 222.055 87.44 222.055 87.95C222.055 88.15 222.045 88.34 222.025 88.52C222.005 88.7 221.985 88.835 221.965 88.925H216.955C217.035 89.485 217.275 89.89 217.675 90.14C218.085 90.38 218.565 90.5 219.115 90.5C219.455 90.5 219.775 90.46 220.075 90.38C220.385 90.29 220.705 90.16 221.035 89.99L221.755 91.31C221.335 91.58 220.865 91.795 220.345 91.955C219.825 92.105 219.315 92.18 218.815 92.18C218.235 92.18 217.695 92.095 217.195 91.925C216.695 91.745 216.26 91.49 215.89 91.16C215.52 90.82 215.225 90.41 215.005 89.93C214.795 89.45 214.69 88.9 214.69 88.28ZM220.06 87.47C220.06 87.05 219.945 86.71 219.715 86.45C219.485 86.19 219.115 86.06 218.605 86.06C218.205 86.06 217.85 86.175 217.54 86.405C217.23 86.635 217.025 86.99 216.925 87.47H220.06ZM224.599 84.56H226.399L226.579 86.18H226.624C226.994 85.57 227.439 85.12 227.959 84.83C228.479 84.53 229.039 84.38 229.639 84.38C229.969 84.38 230.234 84.405 230.434 84.455C230.644 84.505 230.859 84.58 231.079 84.68L230.629 86.525C230.399 86.455 230.189 86.405 229.999 86.375C229.819 86.335 229.589 86.315 229.309 86.315C228.849 86.315 228.394 86.45 227.944 86.72C227.504 86.99 227.124 87.46 226.804 88.13V92H224.599V84.56Z" fill="white"/>
<path d="M44.7616 52.66C45.1916 52.93 45.6216 53.145 46.0516 53.305C46.4916 53.465 46.9616 53.545 47.4616 53.545C47.9716 53.545 48.3366 53.49 48.5566 53.38C48.7766 53.27 48.8866 53.115 48.8866 52.915C48.8866 52.685 48.7016 52.5 48.3316 52.36C47.9716 52.21 47.4916 52.05 46.8916 51.88C46.5616 51.79 46.2366 51.685 45.9166 51.565C45.6066 51.435 45.3266 51.285 45.0766 51.115C44.8266 50.935 44.6216 50.73 44.4616 50.5C44.3116 50.27 44.2366 50.005 44.2366 49.705C44.2366 49.365 44.3166 49.05 44.4766 48.76C44.6366 48.47 44.8616 48.225 45.1516 48.025C45.4516 47.825 45.8116 47.67 46.2316 47.56C46.6616 47.44 47.1416 47.38 47.6716 47.38C48.3316 47.38 48.9316 47.49 49.4716 47.71C50.0216 47.92 50.4916 48.15 50.8816 48.4L49.8916 49.72C49.5516 49.52 49.2016 49.355 48.8416 49.225C48.4816 49.085 48.1066 49.015 47.7166 49.015C47.2466 49.015 46.9116 49.065 46.7116 49.165C46.5216 49.265 46.4266 49.41 46.4266 49.6C46.4266 49.71 46.4766 49.81 46.5766 49.9C46.6766 49.99 46.8116 50.07 46.9816 50.14C47.1516 50.21 47.3516 50.28 47.5816 50.35C47.8216 50.41 48.0716 50.475 48.3316 50.545C48.7016 50.645 49.0516 50.76 49.3816 50.89C49.7116 51.01 50.0016 51.155 50.2516 51.325C50.5016 51.495 50.7016 51.7 50.8516 51.94C51.0016 52.18 51.0766 52.46 51.0766 52.78C51.0766 53.12 50.9966 53.435 50.8366 53.725C50.6766 54.015 50.4416 54.27 50.1316 54.49C49.8316 54.7 49.4516 54.87 48.9916 55C48.5416 55.12 48.0166 55.18 47.4166 55.18C46.7466 55.18 46.0916 55.07 45.4516 54.85C44.8116 54.63 44.2516 54.36 43.7716 54.04L44.7616 52.66ZM52.6757 51.28C52.6757 50.67 52.7657 50.125 52.9457 49.645C53.1257 49.165 53.3607 48.76 53.6507 48.43C53.9507 48.09 54.2907 47.83 54.6707 47.65C55.0507 47.47 55.4457 47.38 55.8557 47.38C56.2757 47.38 56.6457 47.455 56.9657 47.605C57.2957 47.755 57.6157 47.995 57.9257 48.325H57.9857L58.1657 47.56H59.8907V57.76H57.6857V55.465L57.7757 54.325C57.5157 54.575 57.2107 54.78 56.8607 54.94C56.5107 55.1 56.1607 55.18 55.8107 55.18C55.3407 55.18 54.9107 55.09 54.5207 54.91C54.1407 54.73 53.8107 54.475 53.5307 54.145C53.2607 53.805 53.0507 53.395 52.9007 52.915C52.7507 52.435 52.6757 51.89 52.6757 51.28ZM54.9407 51.25C54.9407 51.99 55.0657 52.53 55.3157 52.87C55.5657 53.21 55.9207 53.38 56.3807 53.38C56.6307 53.38 56.8607 53.33 57.0707 53.23C57.2807 53.12 57.4857 52.94 57.6857 52.69V49.675C57.4857 49.495 57.2807 49.37 57.0707 49.3C56.8707 49.22 56.6607 49.18 56.4407 49.18C56.0307 49.18 55.6757 49.35 55.3757 49.69C55.0857 50.03 54.9407 50.55 54.9407 51.25ZM68.8398 55H67.0398L66.8748 53.935H66.8148C66.4848 54.315 66.1198 54.62 65.7198 54.85C65.3198 55.07 64.8498 55.18 64.3098 55.18C63.4598 55.18 62.8448 54.91 62.4648 54.37C62.0848 53.83 61.8948 53.09 61.8948 52.15V47.56H64.0998V51.865C64.0998 52.365 64.1748 52.73 64.3248 52.96C64.4748 53.19 64.7598 53.305 65.1798 53.305C65.4598 53.305 65.7048 53.245 65.9148 53.125C66.1348 53.005 66.3748 52.78 66.6348 52.45V47.56H68.8398V55ZM70.874 52.93C70.874 52.51 70.964 52.145 71.144 51.835C71.324 51.515 71.609 51.245 71.999 51.025C72.399 50.805 72.909 50.63 73.529 50.5C74.149 50.36 74.899 50.265 75.779 50.215C75.739 49.875 75.589 49.61 75.329 49.42C75.079 49.23 74.699 49.135 74.189 49.135C73.829 49.135 73.464 49.2 73.094 49.33C72.734 49.45 72.344 49.615 71.924 49.825L71.144 48.385C71.654 48.095 72.199 47.855 72.779 47.665C73.369 47.475 73.984 47.38 74.624 47.38C75.664 47.38 76.484 47.655 77.084 48.205C77.684 48.755 77.984 49.6 77.984 50.74V55H76.184L76.019 54.16H75.959C75.579 54.45 75.164 54.695 74.714 54.895C74.264 55.085 73.799 55.18 73.319 55.18C72.939 55.18 72.599 55.12 72.299 55C71.999 54.89 71.744 54.735 71.534 54.535C71.324 54.325 71.159 54.085 71.039 53.815C70.929 53.545 70.874 53.25 70.874 52.93ZM72.989 52.765C72.989 53.005 73.079 53.185 73.259 53.305C73.449 53.415 73.704 53.47 74.024 53.47C74.354 53.47 74.664 53.405 74.954 53.275C75.244 53.135 75.519 52.965 75.779 52.765V51.535C75.229 51.565 74.774 51.615 74.414 51.685C74.054 51.755 73.769 51.845 73.559 51.955C73.349 52.055 73.199 52.175 73.109 52.315C73.029 52.455 72.989 52.605 72.989 52.765ZM80.6931 47.56H82.4931L82.6731 49.18H82.7181C83.0881 48.57 83.5331 48.12 84.0531 47.83C84.5731 47.53 85.1331 47.38 85.7331 47.38C86.0631 47.38 86.3281 47.405 86.5281 47.455C86.7381 47.505 86.9531 47.58 87.1731 47.68L86.7231 49.525C86.4931 49.455 86.2831 49.405 86.0931 49.375C85.9131 49.335 85.6831 49.315 85.4031 49.315C84.9431 49.315 84.4881 49.45 84.0381 49.72C83.5981 49.99 83.2181 50.46 82.8981 51.13V55H80.6931V47.56ZM88.7723 51.28C88.7723 50.67 88.8773 50.125 89.0873 49.645C89.3073 49.165 89.5973 48.76 89.9573 48.43C90.3173 48.09 90.7273 47.83 91.1873 47.65C91.6573 47.47 92.1423 47.38 92.6423 47.38C93.2123 47.38 93.7173 47.47 94.1573 47.65C94.5973 47.83 94.9623 48.08 95.2523 48.4C95.5423 48.72 95.7623 49.1 95.9123 49.54C96.0623 49.97 96.1373 50.44 96.1373 50.95C96.1373 51.15 96.1273 51.34 96.1073 51.52C96.0873 51.7 96.0673 51.835 96.0473 51.925H91.0373C91.1173 52.485 91.3573 52.89 91.7573 53.14C92.1673 53.38 92.6473 53.5 93.1973 53.5C93.5373 53.5 93.8573 53.46 94.1573 53.38C94.4673 53.29 94.7873 53.16 95.1173 52.99L95.8373 54.31C95.4173 54.58 94.9473 54.795 94.4273 54.955C93.9073 55.105 93.3973 55.18 92.8973 55.18C92.3173 55.18 91.7773 55.095 91.2773 54.925C90.7773 54.745 90.3423 54.49 89.9723 54.16C89.6023 53.82 89.3073 53.41 89.0873 52.93C88.8773 52.45 88.7723 51.9 88.7723 51.28ZM94.1423 50.47C94.1423 50.05 94.0273 49.71 93.7973 49.45C93.5673 49.19 93.1973 49.06 92.6873 49.06C92.2873 49.06 91.9323 49.175 91.6223 49.405C91.3123 49.635 91.1073 49.99 91.0073 50.47H94.1423Z" fill="#56B4E9"/>
<path d="M207.47 50.4697C207.177 50.7626 207.177 51.2374 207.47 51.5303L212.243 56.3033C212.536 56.5962 213.01 56.5962 213.303 56.3033C213.596 56.0104 213.596 55.5355 213.303 55.2426L209.061 51L213.303 46.7574C213.596 46.4645 213.596 45.9896 213.303 45.6967C213.01 45.4038 212.536 45.4038 212.243 45.6967L207.47 50.4697ZM244 50.25L208 50.25V51.75L244 51.75V50.25Z" fill="#F0E442"/>
<path d="M39 78L31.5 73.6699L31.5 82.3301L39 78ZM7 78L14.5 82.3301L14.5 73.6699L7 78ZM32.25 77.25L13.75 77.25L13.75 78.75L32.25 78.75L32.25 77.25Z" fill="#56B4E9"/>
<path d="M377.47 68.4697C377.177 68.7626 377.177 69.2374 377.47 69.5303L382.243 74.3033C382.536 74.5962 383.01 74.5962 383.303 74.3033C383.596 74.0104 383.596 73.5355 383.303 73.2426L379.061 69L383.303 64.7574C383.596 64.4645 383.596 63.9896 383.303 63.6967C383.01 63.4038 382.536 63.4038 382.243 63.6967L377.47 68.4697ZM414 68.25H378V69.75H414V68.25Z" fill="#F0E442"/>
<path d="M243.47 87.4697C243.177 87.7626 243.177 88.2374 243.47 88.5303L248.243 93.3033C248.536 93.5962 249.01 93.5962 249.303 93.3033C249.596 93.0104 249.596 92.5355 249.303 92.2426L245.061 88L249.303 83.7574C249.596 83.4645 249.596 82.9896 249.303 82.6967C249.01 82.4038 248.536 82.4038 248.243 82.6967L243.47 87.4697ZM280 87.25H244V88.75H280V87.25Z" fill="#F0E442"/>
<path d="M22.4697 116.53C22.7626 116.823 23.2374 116.823 23.5303 116.53L28.3033 111.757C28.5962 111.464 28.5962 110.99 28.3033 110.697C28.0104 110.404 27.5355 110.404 27.2426 110.697L23 114.939L18.7574 110.697C18.4645 110.404 17.9896 110.404 17.6967 110.697C17.4038 110.99 17.4038 111.464 17.6967 111.757L22.4697 116.53ZM22.25 88V116H23.75V88H22.25Z" fill="#F0E442"/>
</svg>
