<svg width="345" height="123" viewBox="0 0 345 123" fill="none" xmlns="http://www.w3.org/2000/svg">
<rect width="345" height="123" fill="white"/>
<rect x="5" width="154" height="123" fill="black"/>
<path d="M13.08 98.485H15.285V101.065L15.225 102.235C15.515 101.965 15.84 101.755 16.2 101.605C16.57 101.455 16.935 101.38 17.295 101.38C17.755 101.38 18.17 101.47 18.54 101.65C18.92 101.83 19.235 102.085 19.485 102.415C19.745 102.735 19.945 103.13 20.085 103.6C20.225 104.06 20.295 104.575 20.295 105.145C20.295 105.785 20.205 106.355 20.025 106.855C19.845 107.355 19.605 107.78 19.305 108.13C19.005 108.47 18.66 108.73 18.27 108.91C17.89 109.09 17.49 109.18 17.07 109.18C16.72 109.18 16.37 109.095 16.02 108.925C15.68 108.755 15.355 108.51 15.045 108.19H14.985L14.805 109H13.08V98.485ZM15.285 106.885C15.495 107.065 15.71 107.195 15.93 107.275C16.16 107.345 16.375 107.38 16.575 107.38C16.985 107.38 17.33 107.21 17.61 106.87C17.89 106.52 18.03 105.96 18.03 105.19C18.03 103.85 17.575 103.18 16.665 103.18C16.195 103.18 15.735 103.41 15.285 103.87V106.885ZM21.6991 105.28C21.6991 104.66 21.8041 104.11 22.0141 103.63C22.2241 103.14 22.5041 102.73 22.8541 102.4C23.2141 102.07 23.6191 101.82 24.0691 101.65C24.5291 101.47 25.0041 101.38 25.4941 101.38C25.9841 101.38 26.4541 101.47 26.9041 101.65C27.3641 101.82 27.7691 102.07 28.1191 102.4C28.4791 102.73 28.7641 103.14 28.9741 103.63C29.1841 104.11 29.2891 104.66 29.2891 105.28C29.2891 105.9 29.1841 106.455 28.9741 106.945C28.7641 107.425 28.4791 107.83 28.1191 108.16C27.7691 108.49 27.3641 108.745 26.9041 108.925C26.4541 109.095 25.9841 109.18 25.4941 109.18C25.0041 109.18 24.5291 109.095 24.0691 108.925C23.6191 108.745 23.2141 108.49 22.8541 108.16C22.5041 107.83 22.2241 107.425 22.0141 106.945C21.8041 106.455 21.6991 105.9 21.6991 105.28ZM23.9641 105.28C23.9641 105.93 24.0891 106.445 24.3391 106.825C24.5991 107.205 24.9841 107.395 25.4941 107.395C26.0041 107.395 26.3841 107.205 26.6341 106.825C26.8941 106.445 27.0241 105.93 27.0241 105.28C27.0241 104.63 26.8941 104.115 26.6341 103.735C26.3841 103.355 26.0041 103.165 25.4941 103.165C24.9841 103.165 24.5991 103.355 24.3391 103.735C24.0891 104.115 23.9641 104.63 23.9641 105.28ZM30.6933 105.28C30.6933 104.66 30.7983 104.11 31.0083 103.63C31.2183 103.14 31.4983 102.73 31.8483 102.4C32.2083 102.07 32.6133 101.82 33.0633 101.65C33.5233 101.47 33.9983 101.38 34.4883 101.38C34.9783 101.38 35.4483 101.47 35.8983 101.65C36.3583 101.82 36.7633 102.07 37.1133 102.4C37.4733 102.73 37.7583 103.14 37.9683 103.63C38.1783 104.11 38.2833 104.66 38.2833 105.28C38.2833 105.9 38.1783 106.455 37.9683 106.945C37.7583 107.425 37.4733 107.83 37.1133 108.16C36.7633 108.49 36.3583 108.745 35.8983 108.925C35.4483 109.095 34.9783 109.18 34.4883 109.18C33.9983 109.18 33.5233 109.095 33.0633 108.925C32.6133 108.745 32.2083 108.49 31.8483 108.16C31.4983 107.83 31.2183 107.425 31.0083 106.945C30.7983 106.455 30.6933 105.9 30.6933 105.28ZM32.9583 105.28C32.9583 105.93 33.0833 106.445 33.3333 106.825C33.5933 107.205 33.9783 107.395 34.4883 107.395C34.9983 107.395 35.3783 107.205 35.6283 106.825C35.8883 106.445 36.0183 105.93 36.0183 105.28C36.0183 104.63 35.8883 104.115 35.6283 103.735C35.3783 103.355 34.9983 103.165 34.4883 103.165C33.9783 103.165 33.5933 103.355 33.3333 103.735C33.0833 104.115 32.9583 104.63 32.9583 105.28ZM39.9124 98.485H44.2774V106.18C44.2774 106.41 44.3074 106.605 44.3674 106.765C44.4374 106.915 44.5274 107.04 44.6374 107.14C44.7574 107.23 44.8874 107.295 45.0274 107.335C45.1774 107.375 45.3274 107.395 45.4774 107.395C45.6474 107.395 45.8274 107.38 46.0174 107.35C46.2074 107.31 46.4174 107.245 46.6474 107.155L47.1424 108.775C46.9424 108.835 46.7574 108.89 46.5874 108.94C46.4174 108.99 46.2474 109.03 46.0774 109.06C45.9074 109.1 45.7274 109.13 45.5374 109.15C45.3474 109.17 45.1374 109.18 44.9074 109.18C43.9674 109.18 43.2574 108.905 42.7774 108.355C42.3074 107.795 42.0724 107.04 42.0724 106.09V100.225H39.9124V98.485Z" fill="white"/>
<path d="M16.5 90.18C15.92 90.18 15.385 90.065 14.895 89.835C14.415 89.595 14 89.255 13.65 88.815C13.31 88.375 13.045 87.84 12.855 87.21C12.665 86.58 12.57 85.865 12.57 85.065C12.57 84.265 12.665 83.555 12.855 82.935C13.045 82.305 13.31 81.78 13.65 81.36C14 80.93 14.415 80.605 14.895 80.385C15.385 80.155 15.92 80.04 16.5 80.04C17.08 80.04 17.61 80.155 18.09 80.385C18.58 80.605 18.995 80.93 19.335 81.36C19.685 81.79 19.955 82.32 20.145 82.95C20.335 83.57 20.43 84.275 20.43 85.065C20.43 85.865 20.335 86.58 20.145 87.21C19.955 87.84 19.685 88.375 19.335 88.815C18.995 89.255 18.58 89.595 18.09 89.835C17.61 90.065 17.08 90.18 16.5 90.18ZM16.5 88.275C17.01 88.275 17.415 87.99 17.715 87.42C18.015 86.84 18.165 86.055 18.165 85.065C18.165 84.085 18.015 83.32 17.715 82.77C17.415 82.22 17.01 81.945 16.5 81.945C15.99 81.945 15.585 82.22 15.285 82.77C14.985 83.32 14.835 84.085 14.835 85.065C14.835 86.055 14.985 86.84 15.285 87.42C15.585 87.99 15.99 88.275 16.5 88.275ZM28.8691 90H27.0691L26.9041 88.935H26.8441C26.5141 89.315 26.1491 89.62 25.7491 89.85C25.3491 90.07 24.8791 90.18 24.3391 90.18C23.4891 90.18 22.8741 89.91 22.4941 89.37C22.1141 88.83 21.9241 88.09 21.9241 87.15V82.56H24.1291V86.865C24.1291 87.365 24.2041 87.73 24.3541 87.96C24.5041 88.19 24.7891 88.305 25.2091 88.305C25.4891 88.305 25.7341 88.245 25.9441 88.125C26.1641 88.005 26.4041 87.78 26.6641 87.45V82.56H28.8691V90ZM32.5983 84.285H30.7233V82.65L32.7033 82.56L32.9883 80.58H34.8033V82.56H37.9533V84.285H34.8033V86.895C34.8033 87.465 34.9283 87.87 35.1783 88.11C35.4283 88.34 35.8233 88.455 36.3633 88.455C36.6533 88.455 36.9183 88.43 37.1583 88.38C37.3983 88.33 37.6283 88.265 37.8483 88.185L38.2383 89.775C37.9083 89.875 37.5383 89.965 37.1283 90.045C36.7283 90.135 36.2883 90.18 35.8083 90.18C35.2183 90.18 34.7183 90.1 34.3083 89.94C33.8983 89.78 33.5633 89.56 33.3033 89.28C33.0533 88.99 32.8733 88.645 32.7633 88.245C32.6533 87.845 32.5983 87.4 32.5983 86.91V84.285ZM42.2674 90.585V92.76H40.0624V82.56H41.8624L42.0274 83.31H42.0724C42.3724 83.04 42.7174 82.82 43.1074 82.65C43.4974 82.47 43.8924 82.38 44.2924 82.38C44.7524 82.38 45.1674 82.47 45.5374 82.65C45.9074 82.83 46.2224 83.085 46.4824 83.415C46.7424 83.745 46.9374 84.145 47.0674 84.615C47.2074 85.075 47.2774 85.59 47.2774 86.16C47.2774 86.8 47.1874 87.37 47.0074 87.87C46.8274 88.36 46.5874 88.78 46.2874 89.13C45.9874 89.47 45.6424 89.73 45.2524 89.91C44.8724 90.09 44.4724 90.18 44.0524 90.18C43.3724 90.18 42.7524 89.91 42.1924 89.37L42.2674 90.585ZM42.2674 87.885C42.4774 88.065 42.6924 88.195 42.9124 88.275C43.1424 88.345 43.3524 88.38 43.5424 88.38C43.9624 88.38 44.3124 88.21 44.5924 87.87C44.8724 87.52 45.0124 86.96 45.0124 86.19C45.0124 84.85 44.5574 84.18 43.6474 84.18C43.1774 84.18 42.7174 84.41 42.2674 84.87V87.885ZM55.8516 90H54.0516L53.8866 88.935H53.8266C53.4966 89.315 53.1316 89.62 52.7316 89.85C52.3316 90.07 51.8616 90.18 51.3216 90.18C50.4716 90.18 49.8566 89.91 49.4766 89.37C49.0966 88.83 48.9066 88.09 48.9066 87.15V82.56H51.1116V86.865C51.1116 87.365 51.1866 87.73 51.3366 87.96C51.4866 88.19 51.7716 88.305 52.1916 88.305C52.4716 88.305 52.7166 88.245 52.9266 88.125C53.1466 88.005 53.3866 87.78 53.6466 87.45V82.56H55.8516V90ZM59.5807 84.285H57.7057V82.65L59.6857 82.56L59.9707 80.58H61.7857V82.56H64.9357V84.285H61.7857V86.895C61.7857 87.465 61.9107 87.87 62.1607 88.11C62.4107 88.34 62.8057 88.455 63.3457 88.455C63.6357 88.455 63.9007 88.43 64.1407 88.38C64.3807 88.33 64.6107 88.265 64.8307 88.185L65.2207 89.775C64.8907 89.875 64.5207 89.965 64.1107 90.045C63.7107 90.135 63.2707 90.18 62.7907 90.18C62.2007 90.18 61.7007 90.1 61.2907 89.94C60.8807 89.78 60.5457 89.56 60.2857 89.28C60.0357 88.99 59.8557 88.645 59.7457 88.245C59.6357 87.845 59.5807 87.4 59.5807 86.91V84.285Z" fill="white"/>
<rect x="84" width="75" height="31" fill="#333333"/>
<rect x="84" width="75" height="31" fill="#333333"/>
<rect x="5.01071" width="79" height="31" fill="#090808"/>
<path d="M17.1157 17.8101C17.1157 17.5513 16.9863 17.3486 16.7275 17.2021C16.4736 17.0508 16.0634 16.9165 15.497 16.7993C13.6123 16.4038 12.6699 15.603 12.6699 14.397C12.6699 13.6938 12.9604 13.1079 13.5415 12.6392C14.1274 12.1655 14.8916 11.9287 15.834 11.9287C16.8398 11.9287 17.643 12.1655 18.2436 12.6392C18.8491 13.1128 19.1518 13.728 19.1518 14.4849H17.0351C17.0351 14.1821 16.9375 13.9331 16.7422 13.7378C16.5468 13.5376 16.2417 13.4375 15.8266 13.4375C15.4702 13.4375 15.1943 13.5181 14.999 13.6792C14.8037 13.8403 14.706 14.0454 14.706 14.2944C14.706 14.5288 14.8159 14.7192 15.0356 14.8657C15.2602 15.0073 15.6362 15.1318 16.1635 15.2393C16.6909 15.3418 17.1352 15.459 17.4966 15.5908C18.6147 16.001 19.1738 16.7114 19.1738 17.7222C19.1738 18.4448 18.8637 19.0308 18.2436 19.48C17.6235 19.9243 16.8227 20.1465 15.8413 20.1465C15.1772 20.1465 14.5864 20.0293 14.0688 19.7949C13.5561 19.5557 13.1533 19.231 12.8603 18.8208C12.5674 18.4058 12.4209 17.959 12.4209 17.4805H14.4277C14.4472 17.8564 14.5864 18.1445 14.8452 18.3447C15.104 18.5449 15.4507 18.645 15.8852 18.645C16.2905 18.645 16.5957 18.5693 16.8008 18.418C17.0107 18.2617 17.1157 18.0591 17.1157 17.8101ZM23.8393 18.4399C24.2299 18.4399 24.5473 18.3325 24.7915 18.1177C25.0356 17.9028 25.1626 17.6172 25.1723 17.2607H27.1572C27.1523 17.7979 27.0058 18.291 26.7177 18.7402C26.4297 19.1846 26.0341 19.5312 25.5312 19.7803C25.0332 20.0244 24.4814 20.1465 23.8759 20.1465C22.7431 20.1465 21.8496 19.7876 21.1953 19.0698C20.541 18.3472 20.2138 17.3511 20.2138 16.0815V15.9424C20.2138 14.7217 20.5385 13.7476 21.188 13.02C21.8374 12.2925 22.7285 11.9287 23.8613 11.9287C24.8525 11.9287 25.646 12.2119 26.2417 12.7783C26.8423 13.3398 27.1474 14.0894 27.1572 15.0269H25.1723C25.1626 14.6167 25.0356 14.2847 24.7915 14.0308C24.5473 13.772 24.2251 13.6426 23.8247 13.6426C23.3315 13.6426 22.958 13.8232 22.7041 14.1846C22.455 14.541 22.3305 15.1221 22.3305 15.9277V16.1475C22.3305 16.9629 22.455 17.5488 22.7041 17.9053C22.9531 18.2617 23.3315 18.4399 23.8393 18.4399ZM32.8188 14.0601C32.5307 14.021 32.2768 14.0015 32.0571 14.0015C31.2563 14.0015 30.7314 14.2725 30.4824 14.8145V20H28.3657V12.0752H30.3652L30.4238 13.02C30.8486 12.2925 31.437 11.9287 32.1889 11.9287C32.4233 11.9287 32.643 11.9604 32.8481 12.0239L32.8188 14.0601ZM36.0781 20H33.9541V12.0752H36.0781V20ZM33.8296 10.0244C33.8296 9.70703 33.9345 9.4458 34.1445 9.24072C34.3593 9.03564 34.6499 8.93311 35.0161 8.93311C35.3774 8.93311 35.6655 9.03564 35.8803 9.24072C36.0952 9.4458 36.2026 9.70703 36.2026 10.0244C36.2026 10.3467 36.0927 10.6104 35.873 10.8154C35.6582 11.0205 35.3725 11.123 35.0161 11.123C34.6596 11.123 34.3716 11.0205 34.1518 10.8154C33.937 10.6104 33.8296 10.3467 33.8296 10.0244ZM44.9624 16.1108C44.9624 17.3315 44.6841 18.3105 44.1274 19.0479C43.5757 19.7803 42.8286 20.1465 41.8862 20.1465C41.0854 20.1465 40.4384 19.8682 39.9453 19.3115V23.0469H37.8286V12.0752H39.7915L39.8647 12.8516C40.3774 12.2363 41.0464 11.9287 41.8716 11.9287C42.8481 11.9287 43.6074 12.29 44.1494 13.0127C44.6914 13.7354 44.9624 14.7314 44.9624 16.001V16.1108ZM42.8457 15.957C42.8457 15.2197 42.7138 14.6509 42.4502 14.2505C42.1914 13.8501 41.813 13.6499 41.3149 13.6499C40.6508 13.6499 40.1943 13.9038 39.9453 14.4116V17.6562C40.2041 18.1787 40.6655 18.4399 41.3296 18.4399C42.3403 18.4399 42.8457 17.6123 42.8457 15.957ZM48.8149 10.127V12.0752H50.1699V13.6279H48.8149V17.583C48.8149 17.876 48.8711 18.0859 48.9834 18.2129C49.0957 18.3398 49.3105 18.4033 49.6279 18.4033C49.8623 18.4033 50.0698 18.3862 50.2505 18.3521V19.9561C49.8354 20.083 49.4082 20.1465 48.9687 20.1465C47.4843 20.1465 46.7275 19.397 46.6982 17.8979V13.6279H45.541V12.0752H46.6982V10.127H48.8149ZM51.459 18.96C51.459 18.623 51.5713 18.3496 51.7959 18.1396C52.0254 17.9297 52.311 17.8247 52.6528 17.8247C52.9995 17.8247 53.2851 17.9297 53.5097 18.1396C53.7392 18.3496 53.854 18.623 53.854 18.96C53.854 19.292 53.7417 19.563 53.5171 19.7729C53.2924 19.978 53.0044 20.0806 52.6528 20.0806C52.3061 20.0806 52.0205 19.978 51.7959 19.7729C51.5713 19.563 51.459 19.292 51.459 18.96ZM62.8481 16.1108C62.8481 17.3315 62.5698 18.3105 62.0132 19.0479C61.4614 19.7803 60.7143 20.1465 59.7719 20.1465C58.9712 20.1465 58.3242 19.8682 57.831 19.3115V23.0469H55.7143V12.0752H57.6772L57.7505 12.8516C58.2632 12.2363 58.9321 11.9287 59.7573 11.9287C60.7339 11.9287 61.4931 12.29 62.0351 13.0127C62.5771 13.7354 62.8481 14.7314 62.8481 16.001V16.1108ZM60.7314 15.957C60.7314 15.2197 60.5996 14.6509 60.3359 14.2505C60.0771 13.8501 59.6987 13.6499 59.2007 13.6499C58.5366 13.6499 58.08 13.9038 57.831 14.4116V17.6562C58.0898 18.1787 58.5512 18.4399 59.2153 18.4399C60.226 18.4399 60.7314 17.6123 60.7314 15.957ZM67.0376 17.0044L68.5024 12.0752H70.7729L67.5869 21.2305L67.4111 21.6479C66.9375 22.6831 66.1562 23.2007 65.0674 23.2007C64.7597 23.2007 64.4472 23.1543 64.1299 23.0615V21.4575L64.4521 21.4648C64.8525 21.4648 65.1504 21.4038 65.3457 21.2817C65.5459 21.1597 65.7021 20.957 65.8144 20.6738L66.0634 20.022L63.2876 12.0752H65.5654L67.0376 17.0044Z" fill="white"/>
<line y1="69.5" x2="159" y2="69.5" stroke="white"/>
<path d="M14.6207 45.285H12.7457V43.65L14.7257 43.56L15.0107 41.58H16.8257V43.56H19.9757V45.285H16.8257V47.895C16.8257 48.465 16.9507 48.87 17.2007 49.11C17.4507 49.34 17.8457 49.455 18.3857 49.455C18.6757 49.455 18.9407 49.43 19.1807 49.38C19.4207 49.33 19.6507 49.265 19.8707 49.185L20.2607 50.775C19.9307 50.875 19.5607 50.965 19.1507 51.045C18.7507 51.135 18.3107 51.18 17.8307 51.18C17.2407 51.18 16.7407 51.1 16.3307 50.94C15.9207 50.78 15.5857 50.56 15.3257 50.28C15.0757 49.99 14.8957 49.645 14.7857 49.245C14.6757 48.845 14.6207 48.4 14.6207 47.91V45.285ZM22.3999 52.08C22.5899 52.14 22.7849 52.17 22.9849 52.17C23.4149 52.17 23.7499 52.08 23.9899 51.9C24.2399 51.72 24.4249 51.485 24.5449 51.195L24.6949 50.805L21.4699 43.56H23.6599L24.9049 46.755C25.0449 47.105 25.1749 47.47 25.2949 47.85C25.4149 48.22 25.5349 48.6 25.6549 48.99H25.7149C25.8149 48.62 25.9249 48.25 26.0449 47.88C26.1649 47.5 26.2799 47.125 26.3899 46.755L27.4849 43.56H29.5699L26.6299 51.075C26.4499 51.545 26.2549 51.955 26.0449 52.305C25.8349 52.665 25.5949 52.96 25.3249 53.19C25.0549 53.43 24.7399 53.61 24.3799 53.73C24.0299 53.85 23.6199 53.91 23.1499 53.91C22.9299 53.91 22.7249 53.895 22.5349 53.865C22.3449 53.845 22.1699 53.81 22.0099 53.76L22.3999 52.08ZM33.284 51.585V53.76H31.079V43.56H32.879L33.044 44.31H33.089C33.389 44.04 33.734 43.82 34.124 43.65C34.514 43.47 34.909 43.38 35.309 43.38C35.769 43.38 36.184 43.47 36.554 43.65C36.924 43.83 37.239 44.085 37.499 44.415C37.759 44.745 37.954 45.145 38.084 45.615C38.224 46.075 38.294 46.59 38.294 47.16C38.294 47.8 38.204 48.37 38.024 48.87C37.844 49.36 37.604 49.78 37.304 50.13C37.004 50.47 36.659 50.73 36.269 50.91C35.889 51.09 35.489 51.18 35.069 51.18C34.389 51.18 33.769 50.91 33.209 50.37L33.284 51.585ZM33.284 48.885C33.494 49.065 33.709 49.195 33.929 49.275C34.159 49.345 34.369 49.38 34.559 49.38C34.979 49.38 35.329 49.21 35.609 48.87C35.889 48.52 36.029 47.96 36.029 47.19C36.029 45.85 35.574 45.18 34.664 45.18C34.194 45.18 33.734 45.41 33.284 45.87V48.885ZM39.8181 47.28C39.8181 46.67 39.9231 46.125 40.1331 45.645C40.3531 45.165 40.6431 44.76 41.0031 44.43C41.3631 44.09 41.7731 43.83 42.2331 43.65C42.7031 43.47 43.1881 43.38 43.6881 43.38C44.2581 43.38 44.7631 43.47 45.2031 43.65C45.6431 43.83 46.0081 44.08 46.2981 44.4C46.5881 44.72 46.8081 45.1 46.9581 45.54C47.1081 45.97 47.1831 46.44 47.1831 46.95C47.1831 47.15 47.1731 47.34 47.1531 47.52C47.1331 47.7 47.1131 47.835 47.0931 47.925H42.0831C42.1631 48.485 42.4031 48.89 42.8031 49.14C43.2131 49.38 43.6931 49.5 44.2431 49.5C44.5831 49.5 44.9031 49.46 45.2031 49.38C45.5131 49.29 45.8331 49.16 46.1631 48.99L46.8831 50.31C46.4631 50.58 45.9931 50.795 45.4731 50.955C44.9531 51.105 44.4431 51.18 43.9431 51.18C43.3631 51.18 42.8231 51.095 42.3231 50.925C41.8231 50.745 41.3881 50.49 41.0181 50.16C40.6481 49.82 40.3531 49.41 40.1331 48.93C39.9231 48.45 39.8181 47.9 39.8181 47.28ZM45.1881 46.47C45.1881 46.05 45.0731 45.71 44.8431 45.45C44.6131 45.19 44.2431 45.06 43.7331 45.06C43.3331 45.06 42.9781 45.175 42.6681 45.405C42.3581 45.635 42.1531 45.99 42.0531 46.47H45.1881Z" fill="#56B4E9"/>
<path d="M53.8673 53.685C52.8873 52.815 52.1123 51.81 51.5423 50.67C50.9823 49.53 50.7023 48.25 50.7023 46.83C50.7023 45.41 50.9823 44.13 51.5423 42.99C52.1123 41.85 52.8873 40.845 53.8673 39.975L55.0973 40.95C54.2073 41.82 53.5573 42.725 53.1473 43.665C52.7473 44.595 52.5473 45.65 52.5473 46.83C52.5473 47.42 52.5973 47.98 52.6973 48.51C52.7973 49.03 52.9473 49.53 53.1473 50.01C53.3573 50.49 53.6223 50.95 53.9423 51.39C54.2623 51.84 54.6473 52.28 55.0973 52.71L53.8673 53.685ZM94.848 52.71C95.298 52.28 95.683 51.84 96.003 51.39C96.323 50.95 96.583 50.49 96.783 50.01C96.993 49.53 97.148 49.03 97.248 48.51C97.348 47.98 97.398 47.42 97.398 46.83C97.398 45.65 97.193 44.595 96.783 43.665C96.383 42.725 95.738 41.82 94.848 40.95L96.078 39.975C97.058 40.845 97.828 41.85 98.388 42.99C98.958 44.13 99.243 45.41 99.243 46.83C99.243 48.25 98.958 49.53 98.388 50.67C97.828 51.81 97.058 52.815 96.078 53.685L94.848 52.71Z" fill="white"/>
<path d="M60.3714 43.08H57.4464V41.22H65.5164V43.08H62.5914V51H60.3714V43.08ZM67.7156 43.56H69.5156L69.6956 45.18H69.7406C70.1106 44.57 70.5556 44.12 71.0756 43.83C71.5956 43.53 72.1556 43.38 72.7556 43.38C73.0856 43.38 73.3506 43.405 73.5506 43.455C73.7606 43.505 73.9756 43.58 74.1956 43.68L73.7456 45.525C73.5156 45.455 73.3056 45.405 73.1156 45.375C72.9356 45.335 72.7056 45.315 72.4256 45.315C71.9656 45.315 71.5106 45.45 71.0606 45.72C70.6206 45.99 70.2406 46.46 69.9206 47.13V51H67.7156V43.56ZM82.8447 51H81.0447L80.8797 49.935H80.8197C80.4897 50.315 80.1247 50.62 79.7247 50.85C79.3247 51.07 78.8547 51.18 78.3147 51.18C77.4647 51.18 76.8497 50.91 76.4697 50.37C76.0897 49.83 75.8997 49.09 75.8997 48.15V43.56H78.1047V47.865C78.1047 48.365 78.1797 48.73 78.3297 48.96C78.4797 49.19 78.7647 49.305 79.1847 49.305C79.4647 49.305 79.7097 49.245 79.9197 49.125C80.1397 49.005 80.3797 48.78 80.6397 48.45V43.56H82.8447V51ZM84.7888 47.28C84.7888 46.67 84.8938 46.125 85.1038 45.645C85.3238 45.165 85.6138 44.76 85.9738 44.43C86.3338 44.09 86.7438 43.83 87.2038 43.65C87.6738 43.47 88.1588 43.38 88.6588 43.38C89.2288 43.38 89.7338 43.47 90.1738 43.65C90.6138 43.83 90.9788 44.08 91.2688 44.4C91.5588 44.72 91.7788 45.1 91.9288 45.54C92.0788 45.97 92.1538 46.44 92.1538 46.95C92.1538 47.15 92.1438 47.34 92.1238 47.52C92.1038 47.7 92.0838 47.835 92.0638 47.925H87.0538C87.1338 48.485 87.3738 48.89 87.7738 49.14C88.1838 49.38 88.6638 49.5 89.2138 49.5C89.5538 49.5 89.8738 49.46 90.1738 49.38C90.4838 49.29 90.8038 49.16 91.1338 48.99L91.8538 50.31C91.4338 50.58 90.9638 50.795 90.4438 50.955C89.9238 51.105 89.4138 51.18 88.9138 51.18C88.3338 51.18 87.7938 51.095 87.2938 50.925C86.7938 50.745 86.3588 50.49 85.9888 50.16C85.6188 49.82 85.3238 49.41 85.1038 48.93C84.8938 48.45 84.7888 47.9 84.7888 47.28ZM90.1588 46.47C90.1588 46.05 90.0438 45.71 89.8138 45.45C89.5838 45.19 89.2138 45.06 88.7038 45.06C88.3038 45.06 87.9488 45.175 87.6388 45.405C87.3288 45.635 87.1238 45.99 87.0238 46.47H90.1588Z" fill="#E69F00"/>
<rect x="191" width="154" height="123" fill="black"/>
<path d="M199.08 98.485H201.285V101.065L201.225 102.235C201.515 101.965 201.84 101.755 202.2 101.605C202.57 101.455 202.935 101.38 203.295 101.38C203.755 101.38 204.17 101.47 204.54 101.65C204.92 101.83 205.235 102.085 205.485 102.415C205.745 102.735 205.945 103.13 206.085 103.6C206.225 104.06 206.295 104.575 206.295 105.145C206.295 105.785 206.205 106.355 206.025 106.855C205.845 107.355 205.605 107.78 205.305 108.13C205.005 108.47 204.66 108.73 204.27 108.91C203.89 109.09 203.49 109.18 203.07 109.18C202.72 109.18 202.37 109.095 202.02 108.925C201.68 108.755 201.355 108.51 201.045 108.19H200.985L200.805 109H199.08V98.485ZM201.285 106.885C201.495 107.065 201.71 107.195 201.93 107.275C202.16 107.345 202.375 107.38 202.575 107.38C202.985 107.38 203.33 107.21 203.61 106.87C203.89 106.52 204.03 105.96 204.03 105.19C204.03 103.85 203.575 103.18 202.665 103.18C202.195 103.18 201.735 103.41 201.285 103.87V106.885ZM207.699 105.28C207.699 104.66 207.804 104.11 208.014 103.63C208.224 103.14 208.504 102.73 208.854 102.4C209.214 102.07 209.619 101.82 210.069 101.65C210.529 101.47 211.004 101.38 211.494 101.38C211.984 101.38 212.454 101.47 212.904 101.65C213.364 101.82 213.769 102.07 214.119 102.4C214.479 102.73 214.764 103.14 214.974 103.63C215.184 104.11 215.289 104.66 215.289 105.28C215.289 105.9 215.184 106.455 214.974 106.945C214.764 107.425 214.479 107.83 214.119 108.16C213.769 108.49 213.364 108.745 212.904 108.925C212.454 109.095 211.984 109.18 211.494 109.18C211.004 109.18 210.529 109.095 210.069 108.925C209.619 108.745 209.214 108.49 208.854 108.16C208.504 107.83 208.224 107.425 208.014 106.945C207.804 106.455 207.699 105.9 207.699 105.28ZM209.964 105.28C209.964 105.93 210.089 106.445 210.339 106.825C210.599 107.205 210.984 107.395 211.494 107.395C212.004 107.395 212.384 107.205 212.634 106.825C212.894 106.445 213.024 105.93 213.024 105.28C213.024 104.63 212.894 104.115 212.634 103.735C212.384 103.355 212.004 103.165 211.494 103.165C210.984 103.165 210.599 103.355 210.339 103.735C210.089 104.115 209.964 104.63 209.964 105.28ZM216.693 105.28C216.693 104.66 216.798 104.11 217.008 103.63C217.218 103.14 217.498 102.73 217.848 102.4C218.208 102.07 218.613 101.82 219.063 101.65C219.523 101.47 219.998 101.38 220.488 101.38C220.978 101.38 221.448 101.47 221.898 101.65C222.358 101.82 222.763 102.07 223.113 102.4C223.473 102.73 223.758 103.14 223.968 103.63C224.178 104.11 224.283 104.66 224.283 105.28C224.283 105.9 224.178 106.455 223.968 106.945C223.758 107.425 223.473 107.83 223.113 108.16C222.763 108.49 222.358 108.745 221.898 108.925C221.448 109.095 220.978 109.18 220.488 109.18C219.998 109.18 219.523 109.095 219.063 108.925C218.613 108.745 218.208 108.49 217.848 108.16C217.498 107.83 217.218 107.425 217.008 106.945C216.798 106.455 216.693 105.9 216.693 105.28ZM218.958 105.28C218.958 105.93 219.083 106.445 219.333 106.825C219.593 107.205 219.978 107.395 220.488 107.395C220.998 107.395 221.378 107.205 221.628 106.825C221.888 106.445 222.018 105.93 222.018 105.28C222.018 104.63 221.888 104.115 221.628 103.735C221.378 103.355 220.998 103.165 220.488 103.165C219.978 103.165 219.593 103.355 219.333 103.735C219.083 104.115 218.958 104.63 218.958 105.28ZM225.912 98.485H230.277V106.18C230.277 106.41 230.307 106.605 230.367 106.765C230.437 106.915 230.527 107.04 230.637 107.14C230.757 107.23 230.887 107.295 231.027 107.335C231.177 107.375 231.327 107.395 231.477 107.395C231.647 107.395 231.827 107.38 232.017 107.35C232.207 107.31 232.417 107.245 232.647 107.155L233.142 108.775C232.942 108.835 232.757 108.89 232.587 108.94C232.417 108.99 232.247 109.03 232.077 109.06C231.907 109.1 231.727 109.13 231.537 109.15C231.347 109.17 231.137 109.18 230.907 109.18C229.967 109.18 229.257 108.905 228.777 108.355C228.307 107.795 228.072 107.04 228.072 106.09V100.225H225.912V98.485Z" fill="white"/>
<path d="M202.5 90.18C201.92 90.18 201.385 90.065 200.895 89.835C200.415 89.595 200 89.255 199.65 88.815C199.31 88.375 199.045 87.84 198.855 87.21C198.665 86.58 198.57 85.865 198.57 85.065C198.57 84.265 198.665 83.555 198.855 82.935C199.045 82.305 199.31 81.78 199.65 81.36C200 80.93 200.415 80.605 200.895 80.385C201.385 80.155 201.92 80.04 202.5 80.04C203.08 80.04 203.61 80.155 204.09 80.385C204.58 80.605 204.995 80.93 205.335 81.36C205.685 81.79 205.955 82.32 206.145 82.95C206.335 83.57 206.43 84.275 206.43 85.065C206.43 85.865 206.335 86.58 206.145 87.21C205.955 87.84 205.685 88.375 205.335 88.815C204.995 89.255 204.58 89.595 204.09 89.835C203.61 90.065 203.08 90.18 202.5 90.18ZM202.5 88.275C203.01 88.275 203.415 87.99 203.715 87.42C204.015 86.84 204.165 86.055 204.165 85.065C204.165 84.085 204.015 83.32 203.715 82.77C203.415 82.22 203.01 81.945 202.5 81.945C201.99 81.945 201.585 82.22 201.285 82.77C200.985 83.32 200.835 84.085 200.835 85.065C200.835 86.055 200.985 86.84 201.285 87.42C201.585 87.99 201.99 88.275 202.5 88.275ZM214.869 90H213.069L212.904 88.935H212.844C212.514 89.315 212.149 89.62 211.749 89.85C211.349 90.07 210.879 90.18 210.339 90.18C209.489 90.18 208.874 89.91 208.494 89.37C208.114 88.83 207.924 88.09 207.924 87.15V82.56H210.129V86.865C210.129 87.365 210.204 87.73 210.354 87.96C210.504 88.19 210.789 88.305 211.209 88.305C211.489 88.305 211.734 88.245 211.944 88.125C212.164 88.005 212.404 87.78 212.664 87.45V82.56H214.869V90ZM218.598 84.285H216.723V82.65L218.703 82.56L218.988 80.58H220.803V82.56H223.953V84.285H220.803V86.895C220.803 87.465 220.928 87.87 221.178 88.11C221.428 88.34 221.823 88.455 222.363 88.455C222.653 88.455 222.918 88.43 223.158 88.38C223.398 88.33 223.628 88.265 223.848 88.185L224.238 89.775C223.908 89.875 223.538 89.965 223.128 90.045C222.728 90.135 222.288 90.18 221.808 90.18C221.218 90.18 220.718 90.1 220.308 89.94C219.898 89.78 219.563 89.56 219.303 89.28C219.053 88.99 218.873 88.645 218.763 88.245C218.653 87.845 218.598 87.4 218.598 86.91V84.285ZM228.267 90.585V92.76H226.062V82.56H227.862L228.027 83.31H228.072C228.372 83.04 228.717 82.82 229.107 82.65C229.497 82.47 229.892 82.38 230.292 82.38C230.752 82.38 231.167 82.47 231.537 82.65C231.907 82.83 232.222 83.085 232.482 83.415C232.742 83.745 232.937 84.145 233.067 84.615C233.207 85.075 233.277 85.59 233.277 86.16C233.277 86.8 233.187 87.37 233.007 87.87C232.827 88.36 232.587 88.78 232.287 89.13C231.987 89.47 231.642 89.73 231.252 89.91C230.872 90.09 230.472 90.18 230.052 90.18C229.372 90.18 228.752 89.91 228.192 89.37L228.267 90.585ZM228.267 87.885C228.477 88.065 228.692 88.195 228.912 88.275C229.142 88.345 229.352 88.38 229.542 88.38C229.962 88.38 230.312 88.21 230.592 87.87C230.872 87.52 231.012 86.96 231.012 86.19C231.012 84.85 230.557 84.18 229.647 84.18C229.177 84.18 228.717 84.41 228.267 84.87V87.885ZM241.852 90H240.052L239.887 88.935H239.827C239.497 89.315 239.132 89.62 238.732 89.85C238.332 90.07 237.862 90.18 237.322 90.18C236.472 90.18 235.857 89.91 235.477 89.37C235.097 88.83 234.907 88.09 234.907 87.15V82.56H237.112V86.865C237.112 87.365 237.187 87.73 237.337 87.96C237.487 88.19 237.772 88.305 238.192 88.305C238.472 88.305 238.717 88.245 238.927 88.125C239.147 88.005 239.387 87.78 239.647 87.45V82.56H241.852V90ZM245.581 84.285H243.706V82.65L245.686 82.56L245.971 80.58H247.786V82.56H250.936V84.285H247.786V86.895C247.786 87.465 247.911 87.87 248.161 88.11C248.411 88.34 248.806 88.455 249.346 88.455C249.636 88.455 249.901 88.43 250.141 88.38C250.381 88.33 250.611 88.265 250.831 88.185L251.221 89.775C250.891 89.875 250.521 89.965 250.111 90.045C249.711 90.135 249.271 90.18 248.791 90.18C248.201 90.18 247.701 90.1 247.291 89.94C246.881 89.78 246.546 89.56 246.286 89.28C246.036 88.99 245.856 88.645 245.746 88.245C245.636 87.845 245.581 87.4 245.581 86.91V84.285Z" fill="white"/>
<rect x="270" width="75" height="31" fill="#333333"/>
<rect x="270" width="75" height="31" fill="#333333"/>
<rect x="191.011" width="79" height="31" fill="#090808"/>
<path d="M203.116 17.8101C203.116 17.5513 202.986 17.3486 202.728 17.2021C202.474 17.0508 202.063 16.9165 201.497 16.7993C199.612 16.4038 198.67 15.603 198.67 14.397C198.67 13.6938 198.96 13.1079 199.541 12.6392C200.127 12.1655 200.892 11.9287 201.834 11.9287C202.84 11.9287 203.643 12.1655 204.244 12.6392C204.849 13.1128 205.152 13.728 205.152 14.4849H203.035C203.035 14.1821 202.937 13.9331 202.742 13.7378C202.547 13.5376 202.242 13.4375 201.827 13.4375C201.47 13.4375 201.194 13.5181 200.999 13.6792C200.804 13.8403 200.706 14.0454 200.706 14.2944C200.706 14.5288 200.816 14.7192 201.036 14.8657C201.26 15.0073 201.636 15.1318 202.164 15.2393C202.691 15.3418 203.135 15.459 203.497 15.5908C204.615 16.001 205.174 16.7114 205.174 17.7222C205.174 18.4448 204.864 19.0308 204.244 19.48C203.624 19.9243 202.823 20.1465 201.841 20.1465C201.177 20.1465 200.586 20.0293 200.069 19.7949C199.556 19.5557 199.153 19.231 198.86 18.8208C198.567 18.4058 198.421 17.959 198.421 17.4805H200.428C200.447 17.8564 200.586 18.1445 200.845 18.3447C201.104 18.5449 201.451 18.645 201.885 18.645C202.29 18.645 202.596 18.5693 202.801 18.418C203.011 18.2617 203.116 18.0591 203.116 17.8101ZM209.839 18.4399C210.23 18.4399 210.547 18.3325 210.791 18.1177C211.036 17.9028 211.163 17.6172 211.172 17.2607H213.157C213.152 17.7979 213.006 18.291 212.718 18.7402C212.43 19.1846 212.034 19.5312 211.531 19.7803C211.033 20.0244 210.481 20.1465 209.876 20.1465C208.743 20.1465 207.85 19.7876 207.195 19.0698C206.541 18.3472 206.214 17.3511 206.214 16.0815V15.9424C206.214 14.7217 206.539 13.7476 207.188 13.02C207.837 12.2925 208.728 11.9287 209.861 11.9287C210.853 11.9287 211.646 12.2119 212.242 12.7783C212.842 13.3398 213.147 14.0894 213.157 15.0269H211.172C211.163 14.6167 211.036 14.2847 210.791 14.0308C210.547 13.772 210.225 13.6426 209.825 13.6426C209.332 13.6426 208.958 13.8232 208.704 14.1846C208.455 14.541 208.331 15.1221 208.331 15.9277V16.1475C208.331 16.9629 208.455 17.5488 208.704 17.9053C208.953 18.2617 209.332 18.4399 209.839 18.4399ZM218.819 14.0601C218.531 14.021 218.277 14.0015 218.057 14.0015C217.256 14.0015 216.731 14.2725 216.482 14.8145V20H214.366V12.0752H216.365L216.424 13.02C216.849 12.2925 217.437 11.9287 218.189 11.9287C218.423 11.9287 218.643 11.9604 218.848 12.0239L218.819 14.0601ZM222.078 20H219.954V12.0752H222.078V20ZM219.83 10.0244C219.83 9.70703 219.935 9.4458 220.145 9.24072C220.359 9.03564 220.65 8.93311 221.016 8.93311C221.377 8.93311 221.665 9.03564 221.88 9.24072C222.095 9.4458 222.203 9.70703 222.203 10.0244C222.203 10.3467 222.093 10.6104 221.873 10.8154C221.658 11.0205 221.373 11.123 221.016 11.123C220.66 11.123 220.372 11.0205 220.152 10.8154C219.937 10.6104 219.83 10.3467 219.83 10.0244ZM230.962 16.1108C230.962 17.3315 230.684 18.3105 230.127 19.0479C229.576 19.7803 228.829 20.1465 227.886 20.1465C227.085 20.1465 226.438 19.8682 225.945 19.3115V23.0469H223.829V12.0752H225.791L225.865 12.8516C226.377 12.2363 227.046 11.9287 227.872 11.9287C228.848 11.9287 229.607 12.29 230.149 13.0127C230.691 13.7354 230.962 14.7314 230.962 16.001V16.1108ZM228.846 15.957C228.846 15.2197 228.714 14.6509 228.45 14.2505C228.191 13.8501 227.813 13.6499 227.315 13.6499C226.651 13.6499 226.194 13.9038 225.945 14.4116V17.6562C226.204 18.1787 226.665 18.4399 227.33 18.4399C228.34 18.4399 228.846 17.6123 228.846 15.957ZM234.815 10.127V12.0752H236.17V13.6279H234.815V17.583C234.815 17.876 234.871 18.0859 234.983 18.2129C235.096 18.3398 235.311 18.4033 235.628 18.4033C235.862 18.4033 236.07 18.3862 236.25 18.3521V19.9561C235.835 20.083 235.408 20.1465 234.969 20.1465C233.484 20.1465 232.728 19.397 232.698 17.8979V13.6279H231.541V12.0752H232.698V10.127H234.815ZM237.459 18.96C237.459 18.623 237.571 18.3496 237.796 18.1396C238.025 17.9297 238.311 17.8247 238.653 17.8247C238.999 17.8247 239.285 17.9297 239.51 18.1396C239.739 18.3496 239.854 18.623 239.854 18.96C239.854 19.292 239.742 19.563 239.517 19.7729C239.292 19.978 239.004 20.0806 238.653 20.0806C238.306 20.0806 238.02 19.978 237.796 19.7729C237.571 19.563 237.459 19.292 237.459 18.96ZM248.848 16.1108C248.848 17.3315 248.57 18.3105 248.013 19.0479C247.461 19.7803 246.714 20.1465 245.772 20.1465C244.971 20.1465 244.324 19.8682 243.831 19.3115V23.0469H241.714V12.0752H243.677L243.75 12.8516C244.263 12.2363 244.932 11.9287 245.757 11.9287C246.734 11.9287 247.493 12.29 248.035 13.0127C248.577 13.7354 248.848 14.7314 248.848 16.001V16.1108ZM246.731 15.957C246.731 15.2197 246.6 14.6509 246.336 14.2505C246.077 13.8501 245.699 13.6499 245.201 13.6499C244.537 13.6499 244.08 13.9038 243.831 14.4116V17.6562C244.09 18.1787 244.551 18.4399 245.215 18.4399C246.226 18.4399 246.731 17.6123 246.731 15.957ZM253.038 17.0044L254.502 12.0752H256.773L253.587 21.2305L253.411 21.6479C252.937 22.6831 252.156 23.2007 251.067 23.2007C250.76 23.2007 250.447 23.1543 250.13 23.0615V21.4575L250.452 21.4648C250.853 21.4648 251.15 21.4038 251.346 21.2817C251.546 21.1597 251.702 20.957 251.814 20.6738L252.063 20.022L249.288 12.0752H251.565L253.038 17.0044Z" fill="white"/>
<line x1="186" y1="69.5" x2="345" y2="69.5" stroke="white"/>
<path d="M200.621 45.285H198.746V43.65L200.726 43.56L201.011 41.58H202.826V43.56H205.976V45.285H202.826V47.895C202.826 48.465 202.951 48.87 203.201 49.11C203.451 49.34 203.846 49.455 204.386 49.455C204.676 49.455 204.941 49.43 205.181 49.38C205.421 49.33 205.651 49.265 205.871 49.185L206.261 50.775C205.931 50.875 205.561 50.965 205.151 51.045C204.751 51.135 204.311 51.18 203.831 51.18C203.241 51.18 202.741 51.1 202.331 50.94C201.921 50.78 201.586 50.56 201.326 50.28C201.076 49.99 200.896 49.645 200.786 49.245C200.676 48.845 200.621 48.4 200.621 47.91V45.285ZM208.4 52.08C208.59 52.14 208.785 52.17 208.985 52.17C209.415 52.17 209.75 52.08 209.99 51.9C210.24 51.72 210.425 51.485 210.545 51.195L210.695 50.805L207.47 43.56H209.66L210.905 46.755C211.045 47.105 211.175 47.47 211.295 47.85C211.415 48.22 211.535 48.6 211.655 48.99H211.715C211.815 48.62 211.925 48.25 212.045 47.88C212.165 47.5 212.28 47.125 212.39 46.755L213.485 43.56H215.57L212.63 51.075C212.45 51.545 212.255 51.955 212.045 52.305C211.835 52.665 211.595 52.96 211.325 53.19C211.055 53.43 210.74 53.61 210.38 53.73C210.03 53.85 209.62 53.91 209.15 53.91C208.93 53.91 208.725 53.895 208.535 53.865C208.345 53.845 208.17 53.81 208.01 53.76L208.4 52.08ZM219.284 51.585V53.76H217.079V43.56H218.879L219.044 44.31H219.089C219.389 44.04 219.734 43.82 220.124 43.65C220.514 43.47 220.909 43.38 221.309 43.38C221.769 43.38 222.184 43.47 222.554 43.65C222.924 43.83 223.239 44.085 223.499 44.415C223.759 44.745 223.954 45.145 224.084 45.615C224.224 46.075 224.294 46.59 224.294 47.16C224.294 47.8 224.204 48.37 224.024 48.87C223.844 49.36 223.604 49.78 223.304 50.13C223.004 50.47 222.659 50.73 222.269 50.91C221.889 51.09 221.489 51.18 221.069 51.18C220.389 51.18 219.769 50.91 219.209 50.37L219.284 51.585ZM219.284 48.885C219.494 49.065 219.709 49.195 219.929 49.275C220.159 49.345 220.369 49.38 220.559 49.38C220.979 49.38 221.329 49.21 221.609 48.87C221.889 48.52 222.029 47.96 222.029 47.19C222.029 45.85 221.574 45.18 220.664 45.18C220.194 45.18 219.734 45.41 219.284 45.87V48.885ZM225.818 47.28C225.818 46.67 225.923 46.125 226.133 45.645C226.353 45.165 226.643 44.76 227.003 44.43C227.363 44.09 227.773 43.83 228.233 43.65C228.703 43.47 229.188 43.38 229.688 43.38C230.258 43.38 230.763 43.47 231.203 43.65C231.643 43.83 232.008 44.08 232.298 44.4C232.588 44.72 232.808 45.1 232.958 45.54C233.108 45.97 233.183 46.44 233.183 46.95C233.183 47.15 233.173 47.34 233.153 47.52C233.133 47.7 233.113 47.835 233.093 47.925H228.083C228.163 48.485 228.403 48.89 228.803 49.14C229.213 49.38 229.693 49.5 230.243 49.5C230.583 49.5 230.903 49.46 231.203 49.38C231.513 49.29 231.833 49.16 232.163 48.99L232.883 50.31C232.463 50.58 231.993 50.795 231.473 50.955C230.953 51.105 230.443 51.18 229.943 51.18C229.363 51.18 228.823 51.095 228.323 50.925C227.823 50.745 227.388 50.49 227.018 50.16C226.648 49.82 226.353 49.41 226.133 48.93C225.923 48.45 225.818 47.9 225.818 47.28ZM231.188 46.47C231.188 46.05 231.073 45.71 230.843 45.45C230.613 45.19 230.243 45.06 229.733 45.06C229.333 45.06 228.978 45.175 228.668 45.405C228.358 45.635 228.153 45.99 228.053 46.47H231.188Z" fill="#56B4E9"/>
<path d="M239.867 53.685C238.887 52.815 238.112 51.81 237.542 50.67C236.982 49.53 236.702 48.25 236.702 46.83C236.702 45.41 236.982 44.13 237.542 42.99C238.112 41.85 238.887 40.845 239.867 39.975L241.097 40.95C240.207 41.82 239.557 42.725 239.147 43.665C238.747 44.595 238.547 45.65 238.547 46.83C238.547 47.42 238.597 47.98 238.697 48.51C238.797 49.03 238.947 49.53 239.147 50.01C239.357 50.49 239.622 50.95 239.942 51.39C240.262 51.84 240.647 52.28 241.097 52.71L239.867 53.685ZM289.842 52.71C290.292 52.28 290.677 51.84 290.997 51.39C291.317 50.95 291.577 50.49 291.777 50.01C291.987 49.53 292.142 49.03 292.242 48.51C292.342 47.98 292.392 47.42 292.392 46.83C292.392 45.65 292.187 44.595 291.777 43.665C291.377 42.725 290.732 41.82 289.842 40.95L291.072 39.975C292.052 40.845 292.822 41.85 293.382 42.99C293.952 44.13 294.237 45.41 294.237 46.83C294.237 48.25 293.952 49.53 293.382 50.67C292.822 51.81 292.052 52.815 291.072 53.685L289.842 52.71Z" fill="white"/>
<path d="M244.601 41.22H251.051V43.08H246.806V45.345H250.421V47.205H246.806V51H244.601V41.22ZM252.891 48.93C252.891 48.51 252.981 48.145 253.161 47.835C253.341 47.515 253.626 47.245 254.016 47.025C254.416 46.805 254.926 46.63 255.546 46.5C256.166 46.36 256.916 46.265 257.796 46.215C257.756 45.875 257.606 45.61 257.346 45.42C257.096 45.23 256.716 45.135 256.206 45.135C255.846 45.135 255.481 45.2 255.111 45.33C254.751 45.45 254.361 45.615 253.941 45.825L253.161 44.385C253.671 44.095 254.216 43.855 254.796 43.665C255.386 43.475 256.001 43.38 256.641 43.38C257.681 43.38 258.501 43.655 259.101 44.205C259.701 44.755 260.001 45.6 260.001 46.74V51H258.201L258.036 50.16H257.976C257.596 50.45 257.181 50.695 256.731 50.895C256.281 51.085 255.816 51.18 255.336 51.18C254.956 51.18 254.616 51.12 254.316 51C254.016 50.89 253.761 50.735 253.551 50.535C253.341 50.325 253.176 50.085 253.056 49.815C252.946 49.545 252.891 49.25 252.891 48.93ZM255.006 48.765C255.006 49.005 255.096 49.185 255.276 49.305C255.466 49.415 255.721 49.47 256.041 49.47C256.371 49.47 256.681 49.405 256.971 49.275C257.261 49.135 257.536 48.965 257.796 48.765V47.535C257.246 47.565 256.791 47.615 256.431 47.685C256.071 47.755 255.786 47.845 255.576 47.955C255.366 48.055 255.216 48.175 255.126 48.315C255.046 48.455 255.006 48.605 255.006 48.765ZM261.9 40.485H266.265V48.18C266.265 48.41 266.295 48.605 266.355 48.765C266.425 48.915 266.515 49.04 266.625 49.14C266.745 49.23 266.875 49.295 267.015 49.335C267.165 49.375 267.315 49.395 267.465 49.395C267.635 49.395 267.815 49.38 268.005 49.35C268.195 49.31 268.405 49.245 268.635 49.155L269.13 50.775C268.93 50.835 268.745 50.89 268.575 50.94C268.405 50.99 268.235 51.03 268.065 51.06C267.895 51.1 267.715 51.13 267.525 51.15C267.335 51.17 267.125 51.18 266.895 51.18C265.955 51.18 265.245 50.905 264.765 50.355C264.295 49.795 264.06 49.04 264.06 48.09V42.225H261.9V40.485ZM271.749 48.66C272.179 48.93 272.609 49.145 273.039 49.305C273.479 49.465 273.949 49.545 274.449 49.545C274.959 49.545 275.324 49.49 275.544 49.38C275.764 49.27 275.874 49.115 275.874 48.915C275.874 48.685 275.689 48.5 275.319 48.36C274.959 48.21 274.479 48.05 273.879 47.88C273.549 47.79 273.224 47.685 272.904 47.565C272.594 47.435 272.314 47.285 272.064 47.115C271.814 46.935 271.609 46.73 271.449 46.5C271.299 46.27 271.224 46.005 271.224 45.705C271.224 45.365 271.304 45.05 271.464 44.76C271.624 44.47 271.849 44.225 272.139 44.025C272.439 43.825 272.799 43.67 273.219 43.56C273.649 43.44 274.129 43.38 274.659 43.38C275.319 43.38 275.919 43.49 276.459 43.71C277.009 43.92 277.479 44.15 277.869 44.4L276.879 45.72C276.539 45.52 276.189 45.355 275.829 45.225C275.469 45.085 275.094 45.015 274.704 45.015C274.234 45.015 273.899 45.065 273.699 45.165C273.509 45.265 273.414 45.41 273.414 45.6C273.414 45.71 273.464 45.81 273.564 45.9C273.664 45.99 273.799 46.07 273.969 46.14C274.139 46.21 274.339 46.28 274.569 46.35C274.809 46.41 275.059 46.475 275.319 46.545C275.689 46.645 276.039 46.76 276.369 46.89C276.699 47.01 276.989 47.155 277.239 47.325C277.489 47.495 277.689 47.7 277.839 47.94C277.989 48.18 278.064 48.46 278.064 48.78C278.064 49.12 277.984 49.435 277.824 49.725C277.664 50.015 277.429 50.27 277.119 50.49C276.819 50.7 276.439 50.87 275.979 51C275.529 51.12 275.004 51.18 274.404 51.18C273.734 51.18 273.079 51.07 272.439 50.85C271.799 50.63 271.239 50.36 270.759 50.04L271.749 48.66ZM279.783 47.28C279.783 46.67 279.888 46.125 280.098 45.645C280.318 45.165 280.608 44.76 280.968 44.43C281.328 44.09 281.738 43.83 282.198 43.65C282.668 43.47 283.153 43.38 283.653 43.38C284.223 43.38 284.728 43.47 285.168 43.65C285.608 43.83 285.973 44.08 286.263 44.4C286.553 44.72 286.773 45.1 286.923 45.54C287.073 45.97 287.148 46.44 287.148 46.95C287.148 47.15 287.138 47.34 287.118 47.52C287.098 47.7 287.078 47.835 287.058 47.925H282.048C282.128 48.485 282.368 48.89 282.768 49.14C283.178 49.38 283.658 49.5 284.208 49.5C284.548 49.5 284.868 49.46 285.168 49.38C285.478 49.29 285.798 49.16 286.128 48.99L286.848 50.31C286.428 50.58 285.958 50.795 285.438 50.955C284.918 51.105 284.408 51.18 283.908 51.18C283.328 51.18 282.788 51.095 282.288 50.925C281.788 50.745 281.353 50.49 280.983 50.16C280.613 49.82 280.318 49.41 280.098 48.93C279.888 48.45 279.783 47.9 279.783 47.28ZM285.153 46.47C285.153 46.05 285.038 45.71 284.808 45.45C284.578 45.19 284.208 45.06 283.698 45.06C283.298 45.06 282.943 45.175 282.633 45.405C282.323 45.635 282.118 45.99 282.018 46.47H285.153Z" fill="#E69F00"/>
</svg>
