<svg width="309" height="139" viewBox="0 0 309 139" fill="none" xmlns="http://www.w3.org/2000/svg">
<rect width="309" height="139" fill="white"/>
<path d="M15.8008 0.78125L19.4531 11.0938L23.0859 0.78125H26.9336V15H23.9941V11.1133L24.2871 4.4043L20.4492 15H18.4375L14.6094 4.41406L14.9023 11.1133V15H11.9727V0.78125H15.8008ZM35.6348 13.9258C34.9382 14.7721 33.9746 15.1953 32.7441 15.1953C31.6113 15.1953 30.7454 14.8698 30.1465 14.2188C29.554 13.5677 29.2513 12.6139 29.2383 11.3574V4.43359H32.0605V11.2598C32.0605 12.36 32.5618 12.9102 33.5645 12.9102C34.5215 12.9102 35.179 12.5781 35.5371 11.9141V4.43359H38.3691V15H35.7129L35.6348 13.9258ZM43.877 1.83594V4.43359H45.6836V6.50391H43.877V11.7773C43.877 12.168 43.9518 12.4479 44.1016 12.6172C44.2513 12.7865 44.5378 12.8711 44.9609 12.8711C45.2734 12.8711 45.5501 12.8483 45.791 12.8027V14.9414C45.2376 15.1107 44.668 15.1953 44.082 15.1953C42.1029 15.1953 41.0938 14.196 41.0547 12.1973V6.50391H39.5117V4.43359H41.0547V1.83594H43.877ZM53.3789 15C53.2487 14.7461 53.1543 14.4303 53.0957 14.0527C52.4121 14.8145 51.5234 15.1953 50.4297 15.1953C49.3945 15.1953 48.5352 14.8958 47.8516 14.2969C47.1745 13.6979 46.8359 12.9427 46.8359 12.0312C46.8359 10.9115 47.2493 10.0521 48.0762 9.45312C48.9095 8.85417 50.1107 8.55143 51.6797 8.54492H52.9785V7.93945C52.9785 7.45117 52.8516 7.06055 52.5977 6.76758C52.3503 6.47461 51.9564 6.32812 51.416 6.32812C50.9408 6.32812 50.5664 6.44206 50.293 6.66992C50.026 6.89779 49.8926 7.21029 49.8926 7.60742H47.0703C47.0703 6.99544 47.2591 6.42904 47.6367 5.9082C48.0143 5.38737 48.5482 4.98047 49.2383 4.6875C49.9284 4.38802 50.7031 4.23828 51.5625 4.23828C52.8646 4.23828 53.8965 4.56706 54.6582 5.22461C55.4264 5.87565 55.8105 6.79362 55.8105 7.97852V12.5586C55.8171 13.5612 55.957 14.3197 56.2305 14.834V15H53.3789ZM51.0449 13.0371C51.4616 13.0371 51.8457 12.946 52.1973 12.7637C52.5488 12.5749 52.8092 12.3242 52.9785 12.0117V10.1953H51.9238C50.5111 10.1953 49.7591 10.6836 49.668 11.6602L49.6582 11.8262C49.6582 12.1777 49.7819 12.4674 50.0293 12.6953C50.2767 12.9232 50.6152 13.0371 51.0449 13.0371ZM67.5 9.81445C67.5 11.5072 67.1387 12.8288 66.416 13.7793C65.6934 14.7233 64.6842 15.1953 63.3887 15.1953C62.2428 15.1953 61.3281 14.7559 60.6445 13.877L60.5176 15H57.9785V0H60.8008V5.38086C61.4518 4.61914 62.3079 4.23828 63.3691 4.23828C64.6582 4.23828 65.6673 4.71354 66.3965 5.66406C67.1322 6.60807 67.5 7.93945 67.5 9.6582V9.81445ZM64.6777 9.60938C64.6777 8.54167 64.5085 7.76367 64.1699 7.27539C63.8314 6.7806 63.3268 6.5332 62.6562 6.5332C61.7578 6.5332 61.1393 6.90104 60.8008 7.63672V11.8066C61.1458 12.5488 61.7708 12.9199 62.6758 12.9199C63.5872 12.9199 64.1862 12.4707 64.4727 11.5723C64.6094 11.1426 64.6777 10.4883 64.6777 9.60938ZM72.2266 15H69.3945V0H72.2266V15ZM79.4238 15.1953C77.8743 15.1953 76.6113 14.7201 75.6348 13.7695C74.6647 12.819 74.1797 11.5527 74.1797 9.9707V9.69727C74.1797 8.63607 74.3848 7.6888 74.7949 6.85547C75.2051 6.01562 75.7845 5.37109 76.5332 4.92188C77.2884 4.46615 78.1478 4.23828 79.1113 4.23828C80.5566 4.23828 81.6927 4.69401 82.5195 5.60547C83.3529 6.51693 83.7695 7.80924 83.7695 9.48242V10.6348H77.041C77.1322 11.3249 77.4056 11.8783 77.8613 12.2949C78.3236 12.7116 78.9062 12.9199 79.6094 12.9199C80.6966 12.9199 81.5462 12.526 82.1582 11.7383L83.5449 13.291C83.1217 13.89 82.5488 14.3587 81.8262 14.6973C81.1035 15.0293 80.3027 15.1953 79.4238 15.1953ZM79.1016 6.52344C78.5417 6.52344 78.0859 6.71224 77.7344 7.08984C77.3893 7.46745 77.168 8.00781 77.0703 8.71094H80.9961V8.48633C80.9831 7.86133 80.8138 7.37956 80.4883 7.04102C80.1628 6.69596 79.7005 6.52344 79.1016 6.52344Z" fill="#56B4E9"/>
<line x1="4" y1="20.5" x2="93" y2="20.5" stroke="black"/>
<path d="M31.9248 51.8818H37.3564L36.9873 54H28.9805L31.2041 41.2031H33.7793L31.9248 51.8818ZM40.9863 54H38.4902L40.1426 44.4902H42.6387L40.9863 54ZM40.4326 42.0732C40.4209 41.6807 40.5498 41.3555 40.8193 41.0977C41.0889 40.8398 41.4141 40.7109 41.7949 40.7109C42.1699 40.6992 42.4951 40.8135 42.7705 41.0537C43.0459 41.2939 43.1895 41.6045 43.2012 41.9854C43.2129 42.3486 43.0898 42.665 42.832 42.9346C42.5801 43.2041 42.249 43.3447 41.8389 43.3564C41.4697 43.3682 41.1445 43.2568 40.8633 43.0225C40.5879 42.7881 40.4443 42.4717 40.4326 42.0732ZM48.6064 51.3193C48.7002 50.8506 48.375 50.5107 47.6309 50.2998L46.8311 50.0977C44.9385 49.5762 44.0186 48.6562 44.0713 47.3379C44.1006 46.4414 44.4961 45.7119 45.2578 45.1494C46.0254 44.5811 46.9482 44.3027 48.0264 44.3145C49.0986 44.3262 49.9658 44.6104 50.6279 45.167C51.29 45.7236 51.627 46.4648 51.6387 47.3906L49.1777 47.3818C49.1895 46.5674 48.7852 46.1543 47.9648 46.1426C47.5781 46.1426 47.2412 46.2393 46.9541 46.4326C46.6729 46.626 46.5 46.8867 46.4355 47.2148C46.3477 47.6836 46.7021 48.0146 47.499 48.208L47.8506 48.2871C48.6592 48.4805 49.2773 48.7031 49.7051 48.9551C50.1328 49.2012 50.4609 49.5088 50.6895 49.8779C50.9238 50.2471 51.0322 50.6895 51.0146 51.2051C50.9971 51.8086 50.8008 52.3359 50.4258 52.7871C50.0566 53.2383 49.5469 53.5869 48.8965 53.833C48.252 54.0791 47.5723 54.1934 46.8574 54.1758C45.8027 54.1641 44.9238 53.8623 44.2207 53.2705C43.5176 52.6729 43.1602 51.9023 43.1484 50.959L45.4863 50.9766C45.5098 51.8848 45.9961 52.3447 46.9453 52.3564C47.4023 52.3564 47.7773 52.2627 48.0703 52.0752C48.3691 51.8877 48.5479 51.6357 48.6064 51.3193ZM57.1934 42.1523L56.7803 44.4902H58.3623L58.0371 46.3535H56.4551L55.6465 51.1172C55.6113 51.416 55.6348 51.6445 55.7168 51.8027C55.7988 51.9609 55.998 52.0459 56.3145 52.0576C56.4082 52.0635 56.6602 52.0488 57.0703 52.0137L56.8945 53.9561C56.4551 54.1025 55.9805 54.1699 55.4707 54.1582C54.6562 54.1465 54.0498 53.8916 53.6514 53.3936C53.2529 52.8955 53.0889 52.2217 53.1592 51.3721L53.9766 46.3535H52.6318L52.957 44.4902H54.3018L54.7061 42.1523H57.1934ZM63.6709 51.3193C63.7646 50.8506 63.4395 50.5107 62.6953 50.2998L61.8955 50.0977C60.0029 49.5762 59.083 48.6562 59.1357 47.3379C59.165 46.4414 59.5605 45.7119 60.3223 45.1494C61.0898 44.5811 62.0127 44.3027 63.0908 44.3145C64.1631 44.3262 65.0303 44.6104 65.6924 45.167C66.3545 45.7236 66.6914 46.4648 66.7031 47.3906L64.2422 47.3818C64.2539 46.5674 63.8496 46.1543 63.0293 46.1426C62.6426 46.1426 62.3057 46.2393 62.0186 46.4326C61.7373 46.626 61.5645 46.8867 61.5 47.2148C61.4121 47.6836 61.7666 48.0146 62.5635 48.208L62.915 48.2871C63.7236 48.4805 64.3418 48.7031 64.7695 48.9551C65.1973 49.2012 65.5254 49.5088 65.7539 49.8779C65.9883 50.2471 66.0967 50.6895 66.0791 51.2051C66.0615 51.8086 65.8652 52.3359 65.4902 52.7871C65.1211 53.2383 64.6113 53.5869 63.9609 53.833C63.3164 54.0791 62.6367 54.1934 61.9219 54.1758C60.8672 54.1641 59.9883 53.8623 59.2852 53.2705C58.582 52.6729 58.2246 51.9023 58.2129 50.959L60.5508 50.9766C60.5742 51.8848 61.0605 52.3447 62.0098 52.3564C62.4668 52.3564 62.8418 52.2627 63.1348 52.0752C63.4336 51.8877 63.6123 51.6357 63.6709 51.3193ZM0.591797 75L2.81543 62.2031L6.48926 62.2119C7.35059 62.2295 8.12402 62.4258 8.80957 62.8008C9.50098 63.1699 10.0605 63.7031 10.4883 64.4004C10.916 65.0977 11.1738 65.8828 11.2617 66.7559C11.3086 67.2656 11.3027 67.7871 11.2441 68.3203L11.1826 68.7861C10.9248 70.6611 10.1865 72.167 8.96777 73.3037C7.75488 74.4346 6.28125 75 4.54688 75H0.591797ZM5.02148 64.3389L3.53613 72.8818L4.6084 72.8906C5.79199 72.8906 6.74121 72.457 7.45605 71.5898C8.17676 70.7227 8.58984 69.4131 8.69531 67.6611L8.71289 67.3799C8.73047 66.4131 8.5459 65.6719 8.15918 65.1562C7.77246 64.6406 7.19531 64.3711 6.42773 64.3477L5.02148 64.3389ZM14.4961 75H12L13.6523 65.4902H16.1484L14.4961 75ZM13.9424 63.0732C13.9307 62.6807 14.0596 62.3555 14.3291 62.0977C14.5986 61.8398 14.9238 61.7109 15.3047 61.7109C15.6797 61.6992 16.0049 61.8135 16.2803 62.0537C16.5557 62.2939 16.6992 62.6045 16.7109 62.9854C16.7227 63.3486 16.5996 63.665 16.3418 63.9346C16.0898 64.2041 15.7588 64.3447 15.3486 64.3564C14.9795 64.3682 14.6543 64.2568 14.373 64.0225C14.0977 63.7881 13.9541 63.4717 13.9424 63.0732ZM20.7715 73.1367C21.2285 73.1484 21.6094 73.0254 21.9141 72.7676C22.2188 72.5039 22.418 72.1553 22.5117 71.7217L24.8408 71.7129C24.7998 72.3809 24.5889 72.9814 24.208 73.5146C23.833 74.0479 23.3291 74.4639 22.6963 74.7627C22.0693 75.0615 21.4072 75.2021 20.71 75.1846C19.5557 75.167 18.6416 74.7686 17.9678 73.9893C17.2939 73.21 16.9688 72.1729 16.9922 70.8779L17.0186 70.3945L17.0273 70.2979C17.1855 68.751 17.707 67.5264 18.5918 66.624C19.4766 65.7158 20.5693 65.2793 21.8701 65.3145C22.9424 65.3379 23.792 65.6895 24.4189 66.3691C25.0518 67.043 25.3623 67.9336 25.3506 69.041H23.0391C23.0391 68.5312 22.9277 68.1299 22.7051 67.8369C22.4824 67.5439 22.1484 67.3857 21.7031 67.3623C20.5195 67.3271 19.8018 68.1914 19.5498 69.9551C19.4619 70.5938 19.4297 71.1328 19.4531 71.5723C19.5117 72.5977 19.9512 73.1191 20.7715 73.1367ZM30.8262 63.1523L30.4131 65.4902H31.9951L31.6699 67.3535H30.0879L29.2793 72.1172C29.2441 72.416 29.2676 72.6445 29.3496 72.8027C29.4316 72.9609 29.6309 73.0459 29.9473 73.0576C30.041 73.0635 30.293 73.0488 30.7031 73.0137L30.5273 74.9561C30.0879 75.1025 29.6133 75.1699 29.1035 75.1582C28.2891 75.1465 27.6826 74.8916 27.2842 74.3936C26.8857 73.8955 26.7217 73.2217 26.792 72.3721L27.6094 67.3535H26.2646L26.5898 65.4902H27.9346L28.3389 63.1523H30.8262ZM34.4121 75H31.916L33.5684 65.4902H36.0645L34.4121 75ZM33.8584 63.0732C33.8467 62.6807 33.9756 62.3555 34.2451 62.0977C34.5146 61.8398 34.8398 61.7109 35.2207 61.7109C35.5957 61.6992 35.9209 61.8135 36.1963 62.0537C36.4717 62.2939 36.6152 62.6045 36.627 62.9854C36.6387 63.3486 36.5156 63.665 36.2578 63.9346C36.0059 64.2041 35.6748 64.3447 35.2646 64.3564C34.8955 64.3682 34.5703 64.2568 34.2891 64.0225C34.0137 63.7881 33.8701 63.4717 33.8584 63.0732ZM41.9619 65.3145C42.7998 65.3262 43.5205 65.543 44.124 65.9648C44.7334 66.3809 45.1787 66.958 45.46 67.6963C45.7471 68.4287 45.8496 69.2432 45.7676 70.1396C45.6328 71.6514 45.1055 72.876 44.1855 73.8135C43.2715 74.7451 42.1406 75.1992 40.793 75.1758C39.9668 75.1641 39.252 74.9531 38.6484 74.543C38.0449 74.127 37.5996 73.5527 37.3125 72.8203C37.0254 72.0879 36.9229 71.2793 37.0049 70.3945C37.1572 68.8242 37.6904 67.5762 38.6045 66.6504C39.5186 65.7246 40.6377 65.2793 41.9619 65.3145ZM39.457 71.2998C39.4688 71.8623 39.6006 72.3076 39.8525 72.6357C40.1045 72.958 40.459 73.125 40.916 73.1367C41.6777 73.1602 42.2754 72.8115 42.709 72.0908C43.1426 71.3643 43.3447 70.4121 43.3154 69.2344C43.292 68.6719 43.1543 68.2236 42.9023 67.8896C42.6562 67.5498 42.3018 67.374 41.8389 67.3623C41.1006 67.3389 40.5088 67.6875 40.0635 68.4082C39.624 69.123 39.4219 70.0869 39.457 71.2998ZM50.4082 65.4814L50.1973 66.6064C50.959 65.7217 51.8818 65.291 52.9658 65.3145C53.8623 65.332 54.5244 65.6602 54.9521 66.2988C55.3799 66.9375 55.5352 67.8223 55.418 68.9531L54.416 75H51.9375L52.957 68.9268C52.9863 68.6982 52.9922 68.4902 52.9746 68.3027C52.8984 67.7051 52.5234 67.3975 51.8496 67.3799C51.1992 67.3564 50.6162 67.6582 50.1006 68.2852L48.9141 75H46.4355L48.0879 65.4902L50.4082 65.4814ZM61.8691 75C61.793 74.7598 61.7607 74.4727 61.7725 74.1387C61.0576 74.8535 60.249 75.1992 59.3467 75.1758C58.5146 75.1641 57.8232 74.8945 57.2725 74.3672C56.7275 73.834 56.4727 73.1777 56.5078 72.3984C56.5488 71.3613 56.9824 70.5674 57.8086 70.0166C58.6406 69.46 59.7539 69.1816 61.1484 69.1816L62.3086 69.1992L62.4316 68.6279C62.4668 68.4346 62.4756 68.25 62.458 68.0742C62.4287 67.7988 62.3232 67.585 62.1416 67.4326C61.9658 67.2744 61.7314 67.1924 61.4385 67.1865C61.0518 67.1748 60.7236 67.2715 60.4541 67.4766C60.1846 67.6758 60.0117 67.9658 59.9355 68.3467L57.4482 68.3555C57.4893 67.4473 57.9053 66.7119 58.6963 66.1494C59.4932 65.5811 60.4746 65.3027 61.6406 65.3145C62.7188 65.3379 63.5625 65.6602 64.1719 66.2812C64.7812 66.8965 65.0361 67.6904 64.9365 68.6631L64.207 73.2158L64.1631 73.7783C64.1514 74.1943 64.2012 74.5459 64.3125 74.833L64.3037 75H61.8691ZM59.9619 73.251C60.6768 73.2744 61.3008 72.9639 61.834 72.3193L62.1416 70.6758L61.2803 70.667C60.3662 70.6904 59.707 70.9688 59.3027 71.502C59.1562 71.6953 59.0654 71.9326 59.0303 72.2139C58.9834 72.5303 59.0479 72.7822 59.2236 72.9697C59.4053 73.1514 59.6514 73.2451 59.9619 73.251ZM72.3369 67.8721C71.9971 67.8135 71.7188 67.7842 71.502 67.7842C70.6172 67.7607 69.917 68.0918 69.4014 68.7773L68.3027 75H65.8242L67.4766 65.4902L69.8057 65.4814L69.5771 66.6416C70.1748 65.7451 70.9131 65.2969 71.792 65.2969C72.0381 65.2969 72.3252 65.3379 72.6533 65.4199L72.3369 67.8721ZM74.9121 75H72.416L74.0684 65.4902H76.5645L74.9121 75ZM74.3584 63.0732C74.3467 62.6807 74.4756 62.3555 74.7451 62.0977C75.0146 61.8398 75.3398 61.7109 75.7207 61.7109C76.0957 61.6992 76.4209 61.8135 76.6963 62.0537C76.9717 62.2939 77.1152 62.6045 77.127 62.9854C77.1387 63.3486 77.0156 63.665 76.7578 63.9346C76.5059 64.2041 76.1748 64.3447 75.7646 64.3564C75.3955 64.3682 75.0703 64.2568 74.7891 64.0225C74.5137 63.7881 74.3701 63.4717 74.3584 63.0732ZM81.5391 75.1758C80.707 75.1699 79.9688 74.9678 79.3242 74.5693C78.6855 74.165 78.208 73.6143 77.8916 72.917C77.5752 72.2139 77.4521 71.4404 77.5225 70.5967L77.5488 70.2451C77.6367 69.3193 77.9062 68.4697 78.3574 67.6963C78.8086 66.9229 79.3887 66.3281 80.0977 65.9121C80.8066 65.4902 81.5918 65.291 82.4531 65.3145C83.6777 65.3379 84.6035 65.7891 85.2305 66.668C85.8633 67.541 86.1035 68.6484 85.9512 69.9902L85.8105 71.0713H79.9834C79.96 71.6865 80.1094 72.1787 80.4316 72.5479C80.7539 72.917 81.1934 73.1074 81.75 73.1191C82.6523 73.1426 83.4434 72.7939 84.123 72.0732L85.2568 73.4795C84.8994 74.0186 84.3838 74.4404 83.71 74.7451C83.0361 75.0439 82.3125 75.1875 81.5391 75.1758ZM82.3301 67.3623C81.873 67.3506 81.4658 67.4941 81.1084 67.793C80.7568 68.0918 80.4404 68.6104 80.1592 69.3486H83.5693L83.6221 69.1201C83.6572 68.8857 83.6602 68.6631 83.6309 68.4521C83.5723 68.1123 83.4287 67.8486 83.2002 67.6611C82.9717 67.4678 82.6816 67.3682 82.3301 67.3623ZM92.0596 72.3193C92.1533 71.8506 91.8281 71.5107 91.084 71.2998L90.2842 71.0977C88.3916 70.5762 87.4717 69.6562 87.5244 68.3379C87.5537 67.4414 87.9492 66.7119 88.7109 66.1494C89.4785 65.5811 90.4014 65.3027 91.4795 65.3145C92.5518 65.3262 93.4189 65.6104 94.0811 66.167C94.7432 66.7236 95.0801 67.4648 95.0918 68.3906L92.6309 68.3818C92.6426 67.5674 92.2383 67.1543 91.418 67.1426C91.0312 67.1426 90.6943 67.2393 90.4072 67.4326C90.126 67.626 89.9531 67.8867 89.8887 68.2148C89.8008 68.6836 90.1553 69.0146 90.9521 69.208L91.3037 69.2871C92.1123 69.4805 92.7305 69.7031 93.1582 69.9551C93.5859 70.2012 93.9141 70.5088 94.1426 70.8779C94.377 71.2471 94.4854 71.6895 94.4678 72.2051C94.4502 72.8086 94.2539 73.3359 93.8789 73.7871C93.5098 74.2383 93 74.5869 92.3496 74.833C91.7051 75.0791 91.0254 75.1934 90.3105 75.1758C89.2559 75.1641 88.377 74.8623 87.6738 74.2705C86.9707 73.6729 86.6133 72.9023 86.6016 71.959L88.9395 71.9766C88.9629 72.8848 89.4492 73.3447 90.3984 73.3564C90.8555 73.3564 91.2305 73.2627 91.5234 73.0752C91.8223 72.8877 92.001 72.6357 92.0596 72.3193Z" fill="black"/>
<path d="M207.104 15H204.174V0.78125H207.104V15ZM212.289 4.43359L212.377 5.61523C213.126 4.69727 214.138 4.23828 215.414 4.23828C216.775 4.23828 217.709 4.77539 218.217 5.84961C218.959 4.77539 220.017 4.23828 221.391 4.23828C222.536 4.23828 223.389 4.57357 223.949 5.24414C224.509 5.9082 224.789 6.91081 224.789 8.25195V15H221.957V8.26172C221.957 7.66276 221.84 7.22656 221.605 6.95312C221.371 6.67318 220.958 6.5332 220.365 6.5332C219.519 6.5332 218.933 6.93685 218.607 7.74414L218.617 15H215.795V8.27148C215.795 7.65951 215.674 7.2168 215.434 6.94336C215.193 6.66992 214.783 6.5332 214.203 6.5332C213.402 6.5332 212.823 6.86523 212.465 7.5293V15H209.643V4.43359H212.289ZM229.613 4.43359L229.701 5.61523C230.45 4.69727 231.462 4.23828 232.738 4.23828C234.099 4.23828 235.033 4.77539 235.541 5.84961C236.283 4.77539 237.341 4.23828 238.715 4.23828C239.861 4.23828 240.714 4.57357 241.273 5.24414C241.833 5.9082 242.113 6.91081 242.113 8.25195V15H239.281V8.26172C239.281 7.66276 239.164 7.22656 238.93 6.95312C238.695 6.67318 238.282 6.5332 237.689 6.5332C236.843 6.5332 236.257 6.93685 235.932 7.74414L235.941 15H233.119V8.27148C233.119 7.65951 232.999 7.2168 232.758 6.94336C232.517 6.66992 232.107 6.5332 231.527 6.5332C230.727 6.5332 230.147 6.86523 229.789 7.5293V15H226.967V4.43359H229.613ZM250.619 13.9258C249.923 14.7721 248.959 15.1953 247.729 15.1953C246.596 15.1953 245.73 14.8698 245.131 14.2188C244.538 13.5677 244.236 12.6139 244.223 11.3574V4.43359H247.045V11.2598C247.045 12.36 247.546 12.9102 248.549 12.9102C249.506 12.9102 250.163 12.5781 250.521 11.9141V4.43359H253.354V15H250.697L250.619 13.9258ZM258.861 1.83594V4.43359H260.668V6.50391H258.861V11.7773C258.861 12.168 258.936 12.4479 259.086 12.6172C259.236 12.7865 259.522 12.8711 259.945 12.8711C260.258 12.8711 260.535 12.8483 260.775 12.8027V14.9414C260.222 15.1107 259.652 15.1953 259.066 15.1953C257.087 15.1953 256.078 14.196 256.039 12.1973V6.50391H254.496V4.43359H256.039V1.83594H258.861ZM268.363 15C268.233 14.7461 268.139 14.4303 268.08 14.0527C267.396 14.8145 266.508 15.1953 265.414 15.1953C264.379 15.1953 263.52 14.8958 262.836 14.2969C262.159 13.6979 261.82 12.9427 261.82 12.0312C261.82 10.9115 262.234 10.0521 263.061 9.45312C263.894 8.85417 265.095 8.55143 266.664 8.54492H267.963V7.93945C267.963 7.45117 267.836 7.06055 267.582 6.76758C267.335 6.47461 266.941 6.32812 266.4 6.32812C265.925 6.32812 265.551 6.44206 265.277 6.66992C265.01 6.89779 264.877 7.21029 264.877 7.60742H262.055C262.055 6.99544 262.243 6.42904 262.621 5.9082C262.999 5.38737 263.533 4.98047 264.223 4.6875C264.913 4.38802 265.688 4.23828 266.547 4.23828C267.849 4.23828 268.881 4.56706 269.643 5.22461C270.411 5.87565 270.795 6.79362 270.795 7.97852V12.5586C270.801 13.5612 270.941 14.3197 271.215 14.834V15H268.363ZM266.029 13.0371C266.446 13.0371 266.83 12.946 267.182 12.7637C267.533 12.5749 267.794 12.3242 267.963 12.0117V10.1953H266.908C265.495 10.1953 264.743 10.6836 264.652 11.6602L264.643 11.8262C264.643 12.1777 264.766 12.4674 265.014 12.6953C265.261 12.9232 265.6 13.0371 266.029 13.0371ZM282.484 9.81445C282.484 11.5072 282.123 12.8288 281.4 13.7793C280.678 14.7233 279.669 15.1953 278.373 15.1953C277.227 15.1953 276.312 14.7559 275.629 13.877L275.502 15H272.963V0H275.785V5.38086C276.436 4.61914 277.292 4.23828 278.354 4.23828C279.643 4.23828 280.652 4.71354 281.381 5.66406C282.117 6.60807 282.484 7.93945 282.484 9.6582V9.81445ZM279.662 9.60938C279.662 8.54167 279.493 7.76367 279.154 7.27539C278.816 6.7806 278.311 6.5332 277.641 6.5332C276.742 6.5332 276.124 6.90104 275.785 7.63672V11.8066C276.13 12.5488 276.755 12.9199 277.66 12.9199C278.572 12.9199 279.171 12.4707 279.457 11.5723C279.594 11.1426 279.662 10.4883 279.662 9.60938ZM287.211 15H284.379V0H287.211V15ZM294.408 15.1953C292.859 15.1953 291.596 14.7201 290.619 13.7695C289.649 12.819 289.164 11.5527 289.164 9.9707V9.69727C289.164 8.63607 289.369 7.6888 289.779 6.85547C290.189 6.01562 290.769 5.37109 291.518 4.92188C292.273 4.46615 293.132 4.23828 294.096 4.23828C295.541 4.23828 296.677 4.69401 297.504 5.60547C298.337 6.51693 298.754 7.80924 298.754 9.48242V10.6348H292.025C292.117 11.3249 292.39 11.8783 292.846 12.2949C293.308 12.7116 293.891 12.9199 294.594 12.9199C295.681 12.9199 296.531 12.526 297.143 11.7383L298.529 13.291C298.106 13.89 297.533 14.3587 296.811 14.6973C296.088 15.0293 295.287 15.1953 294.408 15.1953ZM294.086 6.52344C293.526 6.52344 293.07 6.71224 292.719 7.08984C292.374 7.46745 292.152 8.00781 292.055 8.71094H295.98V8.48633C295.967 7.86133 295.798 7.37956 295.473 7.04102C295.147 6.69596 294.685 6.52344 294.086 6.52344Z" fill="#56B4E9"/>
<line x1="193" y1="20.5" x2="309" y2="20.5" stroke="black"/>
<path d="M235.681 43.3389H231.884L230.038 54H227.463L229.309 43.3389H225.556L225.934 41.2031H236.059L235.681 43.3389ZM240.523 53.0156C239.82 53.8066 238.947 54.1934 237.904 54.1758C236.99 54.1641 236.299 53.8359 235.83 53.1914C235.361 52.5469 235.18 51.6973 235.285 50.6426L236.313 44.4902H238.792L237.746 50.6689C237.723 50.8623 237.72 51.0439 237.737 51.2139C237.796 51.7998 238.121 52.1016 238.713 52.1191C239.48 52.1426 240.116 51.8467 240.62 51.2314L241.807 44.4902H244.303L242.65 54H240.339L240.523 53.0156ZM253.628 49.2715C253.505 50.2676 253.244 51.1523 252.846 51.9258C252.447 52.6992 251.952 53.2734 251.36 53.6484C250.769 54.0234 250.112 54.2021 249.392 54.1846C248.472 54.1611 247.745 53.8184 247.212 53.1562L246.342 57.6562H243.863L246.14 44.4902L248.425 44.4814L248.258 45.4395C248.943 44.666 249.752 44.291 250.684 44.3145C251.615 44.3379 252.339 44.6777 252.854 45.334C253.37 45.9844 253.646 46.8691 253.681 47.9883C253.692 48.3516 253.675 48.7793 253.628 49.2715ZM251.167 49.0869L251.22 48.2432C251.231 47.6748 251.126 47.2236 250.903 46.8896C250.687 46.5557 250.367 46.3828 249.945 46.3711C249.225 46.3477 248.63 46.6523 248.161 47.2852L247.449 51.2051C247.666 51.7969 248.132 52.1045 248.847 52.1279C249.444 52.1455 249.942 51.9141 250.341 51.4336C250.739 50.9531 251.015 50.1709 251.167 49.0869ZM257.029 54H254.533L256.88 40.5H259.367L257.029 54ZM263.656 54.1758C262.824 54.1699 262.086 53.9678 261.441 53.5693C260.803 53.165 260.325 52.6143 260.009 51.917C259.692 51.2139 259.569 50.4404 259.64 49.5967L259.666 49.2451C259.754 48.3193 260.023 47.4697 260.475 46.6963C260.926 45.9229 261.506 45.3281 262.215 44.9121C262.924 44.4902 263.709 44.291 264.57 44.3145C265.795 44.3379 266.721 44.7891 267.348 45.668C267.98 46.541 268.221 47.6484 268.068 48.9902L267.928 50.0713H262.101C262.077 50.6865 262.227 51.1787 262.549 51.5479C262.871 51.917 263.311 52.1074 263.867 52.1191C264.77 52.1426 265.561 51.7939 266.24 51.0732L267.374 52.4795C267.017 53.0186 266.501 53.4404 265.827 53.7451C265.153 54.0439 264.43 54.1875 263.656 54.1758ZM264.447 46.3623C263.99 46.3506 263.583 46.4941 263.226 46.793C262.874 47.0918 262.558 47.6104 262.276 48.3486H265.687L265.739 48.1201C265.774 47.8857 265.777 47.6631 265.748 47.4521C265.689 47.1123 265.546 46.8486 265.317 46.6611C265.089 46.4678 264.799 46.3682 264.447 46.3623ZM274.177 51.3193C274.271 50.8506 273.945 50.5107 273.201 50.2998L272.401 50.0977C270.509 49.5762 269.589 48.6562 269.642 47.3379C269.671 46.4414 270.066 45.7119 270.828 45.1494C271.596 44.5811 272.519 44.3027 273.597 44.3145C274.669 44.3262 275.536 44.6104 276.198 45.167C276.86 45.7236 277.197 46.4648 277.209 47.3906L274.748 47.3818C274.76 46.5674 274.355 46.1543 273.535 46.1426C273.148 46.1426 272.812 46.2393 272.524 46.4326C272.243 46.626 272.07 46.8867 272.006 47.2148C271.918 47.6836 272.272 48.0146 273.069 48.208L273.421 48.2871C274.229 48.4805 274.848 48.7031 275.275 48.9551C275.703 49.2012 276.031 49.5088 276.26 49.8779C276.494 50.2471 276.603 50.6895 276.585 51.2051C276.567 51.8086 276.371 52.3359 275.996 52.7871C275.627 53.2383 275.117 53.5869 274.467 53.833C273.822 54.0791 273.143 54.1934 272.428 54.1758C271.373 54.1641 270.494 53.8623 269.791 53.2705C269.088 52.6729 268.73 51.9023 268.719 50.959L271.057 50.9766C271.08 51.8848 271.566 52.3447 272.516 52.3564C272.973 52.3564 273.348 52.2627 273.641 52.0752C273.939 51.8877 274.118 51.6357 274.177 51.3193ZM221.073 75H218.498L220.713 62.2031H223.288L221.073 75ZM227.278 65.4814L227.067 66.6064C227.829 65.7217 228.752 65.291 229.836 65.3145C230.732 65.332 231.395 65.6602 231.822 66.2988C232.25 66.9375 232.405 67.8223 232.288 68.9531L231.286 75H228.808L229.827 68.9268C229.856 68.6982 229.862 68.4902 229.845 68.3027C229.769 67.7051 229.394 67.3975 228.72 67.3799C228.069 67.3564 227.486 67.6582 226.971 68.2852L225.784 75H223.306L224.958 65.4902L227.278 65.4814ZM238.265 63.1523L237.852 65.4902H239.434L239.108 67.3535H237.526L236.718 72.1172C236.683 72.416 236.706 72.6445 236.788 72.8027C236.87 72.9609 237.069 73.0459 237.386 73.0576C237.479 73.0635 237.731 73.0488 238.142 73.0137L237.966 74.9561C237.526 75.1025 237.052 75.1699 236.542 75.1582C235.728 75.1465 235.121 74.8916 234.723 74.3936C234.324 73.8955 234.16 73.2217 234.23 72.3721L235.048 67.3535H233.703L234.028 65.4902H235.373L235.777 63.1523H238.265ZM243.749 75.1758C242.917 75.1699 242.179 74.9678 241.534 74.5693C240.896 74.165 240.418 73.6143 240.102 72.917C239.785 72.2139 239.662 71.4404 239.732 70.5967L239.759 70.2451C239.847 69.3193 240.116 68.4697 240.567 67.6963C241.019 66.9229 241.599 66.3281 242.308 65.9121C243.017 65.4902 243.802 65.291 244.663 65.3145C245.888 65.3379 246.813 65.7891 247.44 66.668C248.073 67.541 248.313 68.6484 248.161 69.9902L248.021 71.0713H242.193C242.17 71.6865 242.319 72.1787 242.642 72.5479C242.964 72.917 243.403 73.1074 243.96 73.1191C244.862 73.1426 245.653 72.7939 246.333 72.0732L247.467 73.4795C247.109 74.0186 246.594 74.4404 245.92 74.7451C245.246 75.0439 244.522 75.1875 243.749 75.1758ZM244.54 67.3623C244.083 67.3506 243.676 67.4941 243.318 67.793C242.967 68.0918 242.65 68.6104 242.369 69.3486H245.779L245.832 69.1201C245.867 68.8857 245.87 68.6631 245.841 68.4521C245.782 68.1123 245.639 67.8486 245.41 67.6611C245.182 67.4678 244.892 67.3682 244.54 67.3623ZM249.233 70.2363C249.409 68.7656 249.887 67.5732 250.666 66.6592C251.451 65.7393 252.438 65.2881 253.628 65.3057C254.642 65.3291 255.397 65.6953 255.896 66.4043L256.221 65.4814L258.497 65.4902L256.941 74.6748C256.771 75.9404 256.232 76.9424 255.324 77.6807C254.416 78.4189 253.291 78.7764 251.949 78.7529C251.293 78.7412 250.666 78.5977 250.068 78.3223C249.471 78.0527 248.979 77.6807 248.592 77.2061L249.822 75.6943C250.373 76.3916 251.064 76.752 251.896 76.7754C252.541 76.7988 253.092 76.6289 253.549 76.2656C254.006 75.9082 254.316 75.4014 254.48 74.7451L254.621 74.1738C253.93 74.8652 253.153 75.1992 252.292 75.1758C251.366 75.1641 250.631 74.8213 250.086 74.1475C249.541 73.4678 249.242 72.5859 249.189 71.502C249.172 71.1445 249.187 70.7227 249.233 70.2363ZM251.668 71.2734C251.668 71.8242 251.782 72.2666 252.011 72.6006C252.245 72.9287 252.582 73.1016 253.021 73.1191C253.695 73.1426 254.293 72.8555 254.814 72.2578L255.553 68.2324C255.301 67.6816 254.835 67.3945 254.155 67.3711C253.522 67.3535 252.986 67.6084 252.547 68.1357C252.107 68.6631 251.832 69.3633 251.721 70.2363C251.68 70.6641 251.662 71.0098 251.668 71.2734ZM263.331 75.1758C262.499 75.1699 261.761 74.9678 261.116 74.5693C260.478 74.165 260 73.6143 259.684 72.917C259.367 72.2139 259.244 71.4404 259.314 70.5967L259.341 70.2451C259.429 69.3193 259.698 68.4697 260.149 67.6963C260.601 66.9229 261.181 66.3281 261.89 65.9121C262.599 65.4902 263.384 65.291 264.245 65.3145C265.47 65.3379 266.396 65.7891 267.022 66.668C267.655 67.541 267.896 68.6484 267.743 69.9902L267.603 71.0713H261.775C261.752 71.6865 261.901 72.1787 262.224 72.5479C262.546 72.917 262.985 73.1074 263.542 73.1191C264.444 73.1426 265.235 72.7939 265.915 72.0732L267.049 73.4795C266.691 74.0186 266.176 74.4404 265.502 74.7451C264.828 75.0439 264.104 75.1875 263.331 75.1758ZM264.122 67.3623C263.665 67.3506 263.258 67.4941 262.9 67.793C262.549 68.0918 262.232 68.6104 261.951 69.3486H265.361L265.414 69.1201C265.449 68.8857 265.452 68.6631 265.423 68.4521C265.364 68.1123 265.221 67.8486 264.992 67.6611C264.764 67.4678 264.474 67.3682 264.122 67.3623ZM274.854 67.8721C274.514 67.8135 274.235 67.7842 274.019 67.7842C273.134 67.7607 272.434 68.0918 271.918 68.7773L270.819 75H268.341L269.993 65.4902L272.322 65.4814L272.094 66.6416C272.691 65.7451 273.43 65.2969 274.309 65.2969C274.555 65.2969 274.842 65.3379 275.17 65.4199L274.854 67.8721ZM280.32 72.3193C280.414 71.8506 280.089 71.5107 279.345 71.2998L278.545 71.0977C276.652 70.5762 275.732 69.6562 275.785 68.3379C275.814 67.4414 276.21 66.7119 276.972 66.1494C277.739 65.5811 278.662 65.3027 279.74 65.3145C280.812 65.3262 281.68 65.6104 282.342 66.167C283.004 66.7236 283.341 67.4648 283.353 68.3906L280.892 68.3818C280.903 67.5674 280.499 67.1543 279.679 67.1426C279.292 67.1426 278.955 67.2393 278.668 67.4326C278.387 67.626 278.214 67.8867 278.149 68.2148C278.062 68.6836 278.416 69.0146 279.213 69.208L279.564 69.2871C280.373 69.4805 280.991 69.7031 281.419 69.9551C281.847 70.2012 282.175 70.5088 282.403 70.8779C282.638 71.2471 282.746 71.6895 282.729 72.2051C282.711 72.8086 282.515 73.3359 282.14 73.7871C281.771 74.2383 281.261 74.5869 280.61 74.833C279.966 75.0791 279.286 75.1934 278.571 75.1758C277.517 75.1641 276.638 74.8623 275.935 74.2705C275.231 73.6729 274.874 72.9023 274.862 71.959L277.2 71.9766C277.224 72.8848 277.71 73.3447 278.659 73.3564C279.116 73.3564 279.491 73.2627 279.784 73.0752C280.083 72.8877 280.262 72.6357 280.32 72.3193ZM235.145 90.7705H230.24L229.326 96H226.751L228.975 83.2031H237.078L236.7 85.3389H231.181L230.601 88.6436H235.522L235.145 90.7705ZM238.862 96H236.366L238.713 82.5H241.2L238.862 96ZM246.412 86.3145C247.25 86.3262 247.971 86.543 248.574 86.9648C249.184 87.3809 249.629 87.958 249.91 88.6963C250.197 89.4287 250.3 90.2432 250.218 91.1396C250.083 92.6514 249.556 93.876 248.636 94.8135C247.722 95.7451 246.591 96.1992 245.243 96.1758C244.417 96.1641 243.702 95.9531 243.099 95.543C242.495 95.127 242.05 94.5527 241.763 93.8203C241.476 93.0879 241.373 92.2793 241.455 91.3945C241.607 89.8242 242.141 88.5762 243.055 87.6504C243.969 86.7246 245.088 86.2793 246.412 86.3145ZM243.907 92.2998C243.919 92.8623 244.051 93.3076 244.303 93.6357C244.555 93.958 244.909 94.125 245.366 94.1367C246.128 94.1602 246.726 93.8115 247.159 93.0908C247.593 92.3643 247.795 91.4121 247.766 90.2344C247.742 89.6719 247.604 89.2236 247.353 88.8896C247.106 88.5498 246.752 88.374 246.289 88.3623C245.551 88.3389 244.959 88.6875 244.514 89.4082C244.074 90.123 243.872 91.0869 243.907 92.2998ZM256.44 96C256.364 95.7598 256.332 95.4727 256.344 95.1387C255.629 95.8535 254.82 96.1992 253.918 96.1758C253.086 96.1641 252.395 95.8945 251.844 95.3672C251.299 94.834 251.044 94.1777 251.079 93.3984C251.12 92.3613 251.554 91.5674 252.38 91.0166C253.212 90.46 254.325 90.1816 255.72 90.1816L256.88 90.1992L257.003 89.6279C257.038 89.4346 257.047 89.25 257.029 89.0742C257 88.7988 256.895 88.585 256.713 88.4326C256.537 88.2744 256.303 88.1924 256.01 88.1865C255.623 88.1748 255.295 88.2715 255.025 88.4766C254.756 88.6758 254.583 88.9658 254.507 89.3467L252.02 89.3555C252.061 88.4473 252.477 87.7119 253.268 87.1494C254.064 86.5811 255.046 86.3027 256.212 86.3145C257.29 86.3379 258.134 86.6602 258.743 87.2812C259.353 87.8965 259.607 88.6904 259.508 89.6631L258.778 94.2158L258.734 94.7783C258.723 95.1943 258.772 95.5459 258.884 95.833L258.875 96H256.44ZM254.533 94.251C255.248 94.2744 255.872 93.9639 256.405 93.3193L256.713 91.6758L255.852 91.667C254.938 91.6904 254.278 91.9688 253.874 92.502C253.728 92.6953 253.637 92.9326 253.602 93.2139C253.555 93.5303 253.619 93.7822 253.795 93.9697C253.977 94.1514 254.223 94.2451 254.533 94.251ZM265.423 84.1523L265.01 86.4902H266.592L266.267 88.3535H264.685L263.876 93.1172C263.841 93.416 263.864 93.6445 263.946 93.8027C264.028 93.9609 264.228 94.0459 264.544 94.0576C264.638 94.0635 264.89 94.0488 265.3 94.0137L265.124 95.9561C264.685 96.1025 264.21 96.1699 263.7 96.1582C262.886 96.1465 262.279 95.8916 261.881 95.3936C261.482 94.8955 261.318 94.2217 261.389 93.3721L262.206 88.3535H260.861L261.187 86.4902H262.531L262.936 84.1523H265.423ZM271.9 93.3193C271.994 92.8506 271.669 92.5107 270.925 92.2998L270.125 92.0977C268.232 91.5762 267.312 90.6562 267.365 89.3379C267.395 88.4414 267.79 87.7119 268.552 87.1494C269.319 86.5811 270.242 86.3027 271.32 86.3145C272.393 86.3262 273.26 86.6104 273.922 87.167C274.584 87.7236 274.921 88.4648 274.933 89.3906L272.472 89.3818C272.483 88.5674 272.079 88.1543 271.259 88.1426C270.872 88.1426 270.535 88.2393 270.248 88.4326C269.967 88.626 269.794 88.8867 269.729 89.2148C269.642 89.6836 269.996 90.0146 270.793 90.208L271.145 90.2871C271.953 90.4805 272.571 90.7031 272.999 90.9551C273.427 91.2012 273.755 91.5088 273.983 91.8779C274.218 92.2471 274.326 92.6895 274.309 93.2051C274.291 93.8086 274.095 94.3359 273.72 94.7871C273.351 95.2383 272.841 95.5869 272.19 95.833C271.546 96.0791 270.866 96.1934 270.151 96.1758C269.097 96.1641 268.218 95.8623 267.515 95.2705C266.812 94.6729 266.454 93.9023 266.442 92.959L268.78 92.9766C268.804 93.8848 269.29 94.3447 270.239 94.3564C270.696 94.3564 271.071 94.2627 271.364 94.0752C271.663 93.8877 271.842 93.6357 271.9 93.3193ZM229.713 113.581C229.836 112.884 229.493 112.351 228.685 111.981L226.988 111.305C225.02 110.426 224.085 109.216 224.185 107.675C224.226 106.96 224.46 106.327 224.888 105.776C225.315 105.226 225.916 104.795 226.689 104.484C227.463 104.168 228.298 104.016 229.194 104.027C230.431 104.051 231.43 104.42 232.191 105.135C232.953 105.844 233.328 106.796 233.316 107.991H230.75C230.779 107.411 230.65 106.96 230.363 106.638C230.082 106.315 229.643 106.148 229.045 106.137C228.459 106.125 227.949 106.26 227.516 106.541C227.082 106.816 226.824 107.197 226.742 107.684C226.631 108.322 227.059 108.829 228.025 109.204L229.186 109.644L229.854 109.951C231.582 110.807 232.391 112.008 232.279 113.555C232.227 114.311 231.983 114.964 231.55 115.515C231.122 116.06 230.536 116.479 229.792 116.771C229.054 117.064 228.239 117.202 227.349 117.185C226.44 117.167 225.632 116.977 224.923 116.613C224.214 116.25 223.675 115.737 223.306 115.075C222.96 114.46 222.799 113.757 222.822 112.966L225.397 112.975C225.315 114.363 225.998 115.069 227.445 115.093C228.072 115.093 228.588 114.955 228.992 114.68C229.396 114.404 229.637 114.038 229.713 113.581ZM238.37 105.152L237.957 107.49H239.539L239.214 109.354H237.632L236.823 114.117C236.788 114.416 236.812 114.645 236.894 114.803C236.976 114.961 237.175 115.046 237.491 115.058C237.585 115.063 237.837 115.049 238.247 115.014L238.071 116.956C237.632 117.103 237.157 117.17 236.647 117.158C235.833 117.146 235.227 116.892 234.828 116.394C234.43 115.896 234.266 115.222 234.336 114.372L235.153 109.354H233.809L234.134 107.49H235.479L235.883 105.152H238.37ZM245.85 109.872C245.51 109.813 245.231 109.784 245.015 109.784C244.13 109.761 243.43 110.092 242.914 110.777L241.815 117H239.337L240.989 107.49L243.318 107.481L243.09 108.642C243.688 107.745 244.426 107.297 245.305 107.297C245.551 107.297 245.838 107.338 246.166 107.42L245.85 109.872ZM248.425 117H245.929L247.581 107.49H250.077L248.425 117ZM247.871 105.073C247.859 104.681 247.988 104.355 248.258 104.098C248.527 103.84 248.853 103.711 249.233 103.711C249.608 103.699 249.934 103.813 250.209 104.054C250.484 104.294 250.628 104.604 250.64 104.985C250.651 105.349 250.528 105.665 250.271 105.935C250.019 106.204 249.688 106.345 249.277 106.356C248.908 106.368 248.583 106.257 248.302 106.022C248.026 105.788 247.883 105.472 247.871 105.073ZM254.454 107.481L254.243 108.606C255.005 107.722 255.928 107.291 257.012 107.314C257.908 107.332 258.57 107.66 258.998 108.299C259.426 108.938 259.581 109.822 259.464 110.953L258.462 117H255.983L257.003 110.927C257.032 110.698 257.038 110.49 257.021 110.303C256.944 109.705 256.569 109.397 255.896 109.38C255.245 109.356 254.662 109.658 254.146 110.285L252.96 117H250.481L252.134 107.49L254.454 107.481ZM260.888 112.236C261.063 110.766 261.541 109.573 262.32 108.659C263.105 107.739 264.093 107.288 265.282 107.306C266.296 107.329 267.052 107.695 267.55 108.404L267.875 107.481L270.151 107.49L268.596 116.675C268.426 117.94 267.887 118.942 266.979 119.681C266.07 120.419 264.945 120.776 263.604 120.753C262.947 120.741 262.32 120.598 261.723 120.322C261.125 120.053 260.633 119.681 260.246 119.206L261.477 117.694C262.027 118.392 262.719 118.752 263.551 118.775C264.195 118.799 264.746 118.629 265.203 118.266C265.66 117.908 265.971 117.401 266.135 116.745L266.275 116.174C265.584 116.865 264.808 117.199 263.946 117.176C263.021 117.164 262.285 116.821 261.74 116.147C261.195 115.468 260.896 114.586 260.844 113.502C260.826 113.145 260.841 112.723 260.888 112.236ZM263.322 113.273C263.322 113.824 263.437 114.267 263.665 114.601C263.899 114.929 264.236 115.102 264.676 115.119C265.35 115.143 265.947 114.855 266.469 114.258L267.207 110.232C266.955 109.682 266.489 109.395 265.81 109.371C265.177 109.354 264.641 109.608 264.201 110.136C263.762 110.663 263.486 111.363 263.375 112.236C263.334 112.664 263.316 113.01 263.322 113.273ZM275.979 114.319C276.072 113.851 275.747 113.511 275.003 113.3L274.203 113.098C272.311 112.576 271.391 111.656 271.443 110.338C271.473 109.441 271.868 108.712 272.63 108.149C273.397 107.581 274.32 107.303 275.398 107.314C276.471 107.326 277.338 107.61 278 108.167C278.662 108.724 278.999 109.465 279.011 110.391L276.55 110.382C276.562 109.567 276.157 109.154 275.337 109.143C274.95 109.143 274.613 109.239 274.326 109.433C274.045 109.626 273.872 109.887 273.808 110.215C273.72 110.684 274.074 111.015 274.871 111.208L275.223 111.287C276.031 111.48 276.649 111.703 277.077 111.955C277.505 112.201 277.833 112.509 278.062 112.878C278.296 113.247 278.404 113.689 278.387 114.205C278.369 114.809 278.173 115.336 277.798 115.787C277.429 116.238 276.919 116.587 276.269 116.833C275.624 117.079 274.944 117.193 274.229 117.176C273.175 117.164 272.296 116.862 271.593 116.271C270.89 115.673 270.532 114.902 270.521 113.959L272.858 113.977C272.882 114.885 273.368 115.345 274.317 115.356C274.774 115.356 275.149 115.263 275.442 115.075C275.741 114.888 275.92 114.636 275.979 114.319ZM214.271 138L216.494 125.203L220.484 125.212C221.967 125.218 223.08 125.52 223.824 126.117C224.568 126.715 224.905 127.556 224.835 128.64C224.753 129.935 224.006 130.881 222.594 131.479C223.104 131.654 223.499 131.985 223.78 132.472C224.062 132.952 224.182 133.521 224.141 134.177C224.059 135.384 223.584 136.324 222.717 136.998C221.855 137.666 220.678 138 219.184 138H214.271ZM217.821 132.428L217.215 135.882L219.245 135.891C219.878 135.891 220.408 135.735 220.836 135.425C221.264 135.108 221.519 134.684 221.601 134.15C221.683 133.623 221.609 133.213 221.381 132.92C221.158 132.621 220.78 132.46 220.247 132.437L217.821 132.428ZM218.138 130.564L219.887 130.582C220.537 130.57 221.067 130.418 221.478 130.125C221.894 129.832 222.143 129.425 222.225 128.903C222.371 127.872 221.829 127.354 220.599 127.348L218.7 127.339L218.138 130.564ZM230.785 128.314C231.623 128.326 232.344 128.543 232.947 128.965C233.557 129.381 234.002 129.958 234.283 130.696C234.57 131.429 234.673 132.243 234.591 133.14C234.456 134.651 233.929 135.876 233.009 136.813C232.095 137.745 230.964 138.199 229.616 138.176C228.79 138.164 228.075 137.953 227.472 137.543C226.868 137.127 226.423 136.553 226.136 135.82C225.849 135.088 225.746 134.279 225.828 133.395C225.98 131.824 226.514 130.576 227.428 129.65C228.342 128.725 229.461 128.279 230.785 128.314ZM228.28 134.3C228.292 134.862 228.424 135.308 228.676 135.636C228.928 135.958 229.282 136.125 229.739 136.137C230.501 136.16 231.099 135.812 231.532 135.091C231.966 134.364 232.168 133.412 232.139 132.234C232.115 131.672 231.978 131.224 231.726 130.89C231.479 130.55 231.125 130.374 230.662 130.362C229.924 130.339 229.332 130.688 228.887 131.408C228.447 132.123 228.245 133.087 228.28 134.3ZM240.752 128.314C241.59 128.326 242.311 128.543 242.914 128.965C243.523 129.381 243.969 129.958 244.25 130.696C244.537 131.429 244.64 132.243 244.558 133.14C244.423 134.651 243.896 135.876 242.976 136.813C242.062 137.745 240.931 138.199 239.583 138.176C238.757 138.164 238.042 137.953 237.438 137.543C236.835 137.127 236.39 136.553 236.103 135.82C235.815 135.088 235.713 134.279 235.795 133.395C235.947 131.824 236.48 130.576 237.395 129.65C238.309 128.725 239.428 128.279 240.752 128.314ZM238.247 134.3C238.259 134.862 238.391 135.308 238.643 135.636C238.895 135.958 239.249 136.125 239.706 136.137C240.468 136.16 241.065 135.812 241.499 135.091C241.933 134.364 242.135 133.412 242.105 132.234C242.082 131.672 241.944 131.224 241.692 130.89C241.446 130.55 241.092 130.374 240.629 130.362C239.891 130.339 239.299 130.688 238.854 131.408C238.414 132.123 238.212 133.087 238.247 134.3ZM247.897 138H245.401L247.748 124.5H250.235L247.897 138ZM254.524 138.176C253.692 138.17 252.954 137.968 252.31 137.569C251.671 137.165 251.193 136.614 250.877 135.917C250.561 135.214 250.438 134.44 250.508 133.597L250.534 133.245C250.622 132.319 250.892 131.47 251.343 130.696C251.794 129.923 252.374 129.328 253.083 128.912C253.792 128.49 254.577 128.291 255.438 128.314C256.663 128.338 257.589 128.789 258.216 129.668C258.849 130.541 259.089 131.648 258.937 132.99L258.796 134.071H252.969C252.945 134.687 253.095 135.179 253.417 135.548C253.739 135.917 254.179 136.107 254.735 136.119C255.638 136.143 256.429 135.794 257.108 135.073L258.242 136.479C257.885 137.019 257.369 137.44 256.695 137.745C256.021 138.044 255.298 138.188 254.524 138.176ZM255.315 130.362C254.858 130.351 254.451 130.494 254.094 130.793C253.742 131.092 253.426 131.61 253.145 132.349H256.555L256.607 132.12C256.643 131.886 256.646 131.663 256.616 131.452C256.558 131.112 256.414 130.849 256.186 130.661C255.957 130.468 255.667 130.368 255.315 130.362ZM265.036 138C264.96 137.76 264.928 137.473 264.939 137.139C264.225 137.854 263.416 138.199 262.514 138.176C261.682 138.164 260.99 137.895 260.439 137.367C259.895 136.834 259.64 136.178 259.675 135.398C259.716 134.361 260.149 133.567 260.976 133.017C261.808 132.46 262.921 132.182 264.315 132.182L265.476 132.199L265.599 131.628C265.634 131.435 265.643 131.25 265.625 131.074C265.596 130.799 265.49 130.585 265.309 130.433C265.133 130.274 264.898 130.192 264.605 130.187C264.219 130.175 263.891 130.271 263.621 130.477C263.352 130.676 263.179 130.966 263.103 131.347L260.615 131.355C260.656 130.447 261.072 129.712 261.863 129.149C262.66 128.581 263.642 128.303 264.808 128.314C265.886 128.338 266.729 128.66 267.339 129.281C267.948 129.896 268.203 130.69 268.104 131.663L267.374 136.216L267.33 136.778C267.318 137.194 267.368 137.546 267.479 137.833L267.471 138H265.036ZM263.129 136.251C263.844 136.274 264.468 135.964 265.001 135.319L265.309 133.676L264.447 133.667C263.533 133.69 262.874 133.969 262.47 134.502C262.323 134.695 262.232 134.933 262.197 135.214C262.15 135.53 262.215 135.782 262.391 135.97C262.572 136.151 262.818 136.245 263.129 136.251ZM272.911 128.481L272.7 129.606C273.462 128.722 274.385 128.291 275.469 128.314C276.365 128.332 277.027 128.66 277.455 129.299C277.883 129.938 278.038 130.822 277.921 131.953L276.919 138H274.44L275.46 131.927C275.489 131.698 275.495 131.49 275.478 131.303C275.401 130.705 275.026 130.397 274.353 130.38C273.702 130.356 273.119 130.658 272.604 131.285L271.417 138H268.938L270.591 128.49L272.911 128.481ZM284.381 135.319C284.475 134.851 284.149 134.511 283.405 134.3L282.605 134.098C280.713 133.576 279.793 132.656 279.846 131.338C279.875 130.441 280.271 129.712 281.032 129.149C281.8 128.581 282.723 128.303 283.801 128.314C284.873 128.326 285.74 128.61 286.402 129.167C287.064 129.724 287.401 130.465 287.413 131.391L284.952 131.382C284.964 130.567 284.56 130.154 283.739 130.143C283.353 130.143 283.016 130.239 282.729 130.433C282.447 130.626 282.274 130.887 282.21 131.215C282.122 131.684 282.477 132.015 283.273 132.208L283.625 132.287C284.434 132.48 285.052 132.703 285.479 132.955C285.907 133.201 286.235 133.509 286.464 133.878C286.698 134.247 286.807 134.689 286.789 135.205C286.771 135.809 286.575 136.336 286.2 136.787C285.831 137.238 285.321 137.587 284.671 137.833C284.026 138.079 283.347 138.193 282.632 138.176C281.577 138.164 280.698 137.862 279.995 137.271C279.292 136.673 278.935 135.902 278.923 134.959L281.261 134.977C281.284 135.885 281.771 136.345 282.72 136.356C283.177 136.356 283.552 136.263 283.845 136.075C284.144 135.888 284.322 135.636 284.381 135.319Z" fill="black"/>
</svg>
