<svg width="158" height="155" viewBox="0 0 158 155" fill="none" xmlns="http://www.w3.org/2000/svg">
<rect width="158" height="155" fill="black"/>
<path d="M6.87 45.74C7.55 45.17 8.17 44.64 8.73 44.15C9.29 43.65 9.77 43.185 10.17 42.755C10.57 42.325 10.88 41.92 11.1 41.54C11.32 41.16 11.43 40.8 11.43 40.46C11.43 39.99 11.295 39.635 11.025 39.395C10.755 39.145 10.37 39.02 9.87 39.02C9.49 39.02 9.14 39.12 8.82 39.32C8.51 39.51 8.22 39.735 7.95 39.995L6.765 38.81C7.015 38.56 7.26 38.34 7.5 38.15C7.75 37.96 8.01 37.805 8.28 37.685C8.56 37.555 8.85 37.46 9.15 37.4C9.46 37.33 9.8 37.295 10.17 37.295C10.67 37.295 11.125 37.37 11.535 37.52C11.945 37.66 12.295 37.865 12.585 38.135C12.885 38.395 13.115 38.71 13.275 39.08C13.445 39.45 13.53 39.865 13.53 40.325C13.53 40.725 13.435 41.135 13.245 41.555C13.055 41.965 12.795 42.38 12.465 42.8C12.145 43.21 11.775 43.625 11.355 44.045C10.935 44.455 10.495 44.86 10.035 45.26C10.305 45.23 10.595 45.205 10.905 45.185C11.225 45.155 11.51 45.14 11.76 45.14H14.025V47H6.87V45.74ZM16.6441 44.435C16.9641 44.715 17.3191 44.945 17.7091 45.125C18.1091 45.305 18.5291 45.395 18.9691 45.395C19.4891 45.395 19.9141 45.3 20.2441 45.11C20.5841 44.91 20.7541 44.63 20.7541 44.27C20.7541 44.06 20.7091 43.87 20.6191 43.7C20.5291 43.53 20.3741 43.39 20.1541 43.28C19.9341 43.16 19.6391 43.07 19.2691 43.01C18.8991 42.94 18.4341 42.905 17.8741 42.905V41.345C18.8141 41.345 19.4741 41.23 19.8541 41C20.2441 40.76 20.4391 40.45 20.4391 40.07C20.4391 39.74 20.3141 39.485 20.0641 39.305C19.8141 39.115 19.4691 39.02 19.0291 39.02C18.6491 39.02 18.2991 39.095 17.9791 39.245C17.6591 39.395 17.3341 39.6 17.0041 39.86L15.8941 38.51C16.3641 38.13 16.8641 37.835 17.3941 37.625C17.9341 37.405 18.5141 37.295 19.1341 37.295C19.6541 37.295 20.1291 37.355 20.5591 37.475C20.9891 37.585 21.3591 37.755 21.6691 37.985C21.9791 38.205 22.2191 38.475 22.3891 38.795C22.5591 39.115 22.6441 39.485 22.6441 39.905C22.6441 40.405 22.4841 40.83 22.1641 41.18C21.8441 41.52 21.3991 41.8 20.8291 42.02V42.08C21.4291 42.24 21.9341 42.515 22.3441 42.905C22.7541 43.285 22.9591 43.785 22.9591 44.405C22.9591 44.845 22.8541 45.24 22.6441 45.59C22.4441 45.93 22.1691 46.22 21.8191 46.46C21.4791 46.69 21.0791 46.87 20.6191 47C20.1591 47.12 19.6791 47.18 19.1791 47.18C18.3591 47.18 17.6541 47.06 17.0641 46.82C16.4741 46.57 15.9941 46.24 15.6241 45.83L16.6441 44.435ZM53.8657 47C53.9057 46.21 53.9807 45.485 54.0907 44.825C54.2107 44.155 54.3757 43.52 54.5857 42.92C54.8057 42.31 55.0857 41.72 55.4257 41.15C55.7657 40.57 56.1857 39.965 56.6857 39.335H51.9007V37.475H59.0557V38.825C58.4557 39.495 57.9707 40.125 57.6007 40.715C57.2307 41.295 56.9407 41.9 56.7307 42.53C56.5207 43.15 56.3707 43.82 56.2807 44.54C56.1907 45.25 56.1257 46.07 56.0857 47H53.8657ZM14.055 64.215V66H7.23V64.215H9.69V58.71H7.725V57.345C8.285 57.245 8.76 57.125 9.15 56.985C9.55 56.845 9.925 56.675 10.275 56.475H11.895V64.215H14.055ZM19.4941 66.18C18.9441 66.18 18.4441 66.075 17.9941 65.865C17.5441 65.645 17.1591 65.325 16.8391 64.905C16.5191 64.485 16.2691 63.965 16.0891 63.345C15.9191 62.725 15.8341 62.01 15.8341 61.2C15.8341 60.39 15.9191 59.68 16.0891 59.07C16.2691 58.46 16.5191 57.95 16.8391 57.54C17.1591 57.12 17.5441 56.81 17.9941 56.61C18.4441 56.4 18.9441 56.295 19.4941 56.295C20.0441 56.295 20.5441 56.4 20.9941 56.61C21.4441 56.81 21.8291 57.12 22.1491 57.54C22.4691 57.95 22.7141 58.46 22.8841 59.07C23.0641 59.68 23.1541 60.39 23.1541 61.2C23.1541 62.01 23.0641 62.725 22.8841 63.345C22.7141 63.965 22.4691 64.485 22.1491 64.905C21.8291 65.325 21.4441 65.645 20.9941 65.865C20.5441 66.075 20.0441 66.18 19.4941 66.18ZM19.4941 58.005C19.2541 58.005 19.0291 58.055 18.8191 58.155C18.6191 58.255 18.4441 58.43 18.2941 58.68C18.1441 58.92 18.0241 59.245 17.9341 59.655C17.8441 60.065 17.7991 60.58 17.7991 61.2C17.7991 61.82 17.8441 62.34 17.9341 62.76C18.0241 63.17 18.1441 63.505 18.2941 63.765C18.4441 64.015 18.6191 64.195 18.8191 64.305C19.0291 64.415 19.2541 64.47 19.4941 64.47C19.7341 64.47 19.9541 64.415 20.1541 64.305C20.3641 64.195 20.5441 64.015 20.6941 63.765C20.8441 63.505 20.9641 63.17 21.0541 62.76C21.1441 62.34 21.1891 61.82 21.1891 61.2C21.1891 60.58 21.1441 60.065 21.0541 59.655C20.9641 59.245 20.8441 58.92 20.6941 58.68C20.5441 58.43 20.3641 58.255 20.1541 58.155C19.9541 58.055 19.7341 58.005 19.4941 58.005ZM19.4941 62.31C19.1741 62.31 18.9041 62.21 18.6841 62.01C18.4741 61.8 18.3691 61.52 18.3691 61.17C18.3691 60.82 18.4741 60.545 18.6841 60.345C18.9041 60.135 19.1741 60.03 19.4941 60.03C19.8141 60.03 20.0791 60.135 20.2891 60.345C20.5091 60.545 20.6191 60.82 20.6191 61.17C20.6191 61.52 20.5091 61.8 20.2891 62.01C20.0791 62.21 19.8141 62.31 19.4941 62.31ZM55.6807 64.53C55.8707 64.53 56.0507 64.5 56.2207 64.44C56.4007 64.38 56.5557 64.29 56.6857 64.17C56.8257 64.04 56.9357 63.88 57.0157 63.69C57.0957 63.49 57.1357 63.255 57.1357 62.985C57.1357 62.495 57.0057 62.145 56.7457 61.935C56.4857 61.715 56.1457 61.605 55.7257 61.605C55.4457 61.605 55.1557 61.675 54.8557 61.815C54.5557 61.955 54.2607 62.195 53.9707 62.535C54.0307 62.915 54.1157 63.235 54.2257 63.495C54.3457 63.745 54.4807 63.95 54.6307 64.11C54.7807 64.26 54.9457 64.37 55.1257 64.44C55.3057 64.5 55.4907 64.53 55.6807 64.53ZM57.8557 58.755C57.6557 58.575 57.4057 58.42 57.1057 58.29C56.8057 58.15 56.4957 58.08 56.1757 58.08C55.8857 58.08 55.6057 58.135 55.3357 58.245C55.0757 58.345 54.8407 58.515 54.6307 58.755C54.4307 58.985 54.2657 59.29 54.1357 59.67C54.0057 60.05 53.9307 60.52 53.9107 61.08C54.2507 60.75 54.6257 60.495 55.0357 60.315C55.4557 60.135 55.8457 60.045 56.2057 60.045C56.6257 60.045 57.0107 60.105 57.3607 60.225C57.7207 60.345 58.0307 60.525 58.2907 60.765C58.5607 61.005 58.7707 61.31 58.9207 61.68C59.0707 62.05 59.1457 62.485 59.1457 62.985C59.1457 63.485 59.0507 63.93 58.8607 64.32C58.6807 64.71 58.4307 65.045 58.1107 65.325C57.8007 65.605 57.4407 65.82 57.0307 65.97C56.6207 66.11 56.1857 66.18 55.7257 66.18C55.2357 66.18 54.7607 66.09 54.3007 65.91C53.8407 65.73 53.4307 65.45 53.0707 65.07C52.7107 64.69 52.4207 64.205 52.2007 63.615C51.9807 63.015 51.8707 62.295 51.8707 61.455C51.8707 60.565 51.9857 59.795 52.2157 59.145C52.4457 58.495 52.7507 57.96 53.1307 57.54C53.5207 57.12 53.9607 56.81 54.4507 56.61C54.9407 56.4 55.4507 56.295 55.9807 56.295C56.6607 56.295 57.2557 56.41 57.7657 56.64C58.2757 56.86 58.6907 57.125 59.0107 57.435L57.8557 58.755ZM14.055 82.215V84H7.23V82.215H9.69V76.71H7.725V75.345C8.285 75.245 8.76 75.125 9.15 74.985C9.55 74.845 9.925 74.675 10.275 74.475H11.895V82.215H14.055ZM15.8641 82.74C16.5441 82.17 17.1641 81.64 17.7241 81.15C18.2841 80.65 18.7641 80.185 19.1641 79.755C19.5641 79.325 19.8741 78.92 20.0941 78.54C20.3141 78.16 20.4241 77.8 20.4241 77.46C20.4241 76.99 20.2891 76.635 20.0191 76.395C19.7491 76.145 19.3641 76.02 18.8641 76.02C18.4841 76.02 18.1341 76.12 17.8141 76.32C17.5041 76.51 17.2141 76.735 16.9441 76.995L15.7591 75.81C16.0091 75.56 16.2541 75.34 16.4941 75.15C16.7441 74.96 17.0041 74.805 17.2741 74.685C17.5541 74.555 17.8441 74.46 18.1441 74.4C18.4541 74.33 18.7941 74.295 19.1641 74.295C19.6641 74.295 20.1191 74.37 20.5291 74.52C20.9391 74.66 21.2891 74.865 21.5791 75.135C21.8791 75.395 22.1091 75.71 22.2691 76.08C22.4391 76.45 22.5241 76.865 22.5241 77.325C22.5241 77.725 22.4291 78.135 22.2391 78.555C22.0491 78.965 21.7891 79.38 21.4591 79.8C21.1391 80.21 20.7691 80.625 20.3491 81.045C19.9291 81.455 19.4891 81.86 19.0291 82.26C19.2991 82.23 19.5891 82.205 19.8991 82.185C20.2191 82.155 20.5041 82.14 20.7541 82.14H23.0191V84H15.8641V82.74ZM52.6207 81.435C52.9407 81.715 53.2957 81.945 53.6857 82.125C54.0857 82.305 54.5057 82.395 54.9457 82.395C55.4657 82.395 55.8907 82.3 56.2207 82.11C56.5607 81.91 56.7307 81.63 56.7307 81.27C56.7307 81.06 56.6857 80.87 56.5957 80.7C56.5057 80.53 56.3507 80.39 56.1307 80.28C55.9107 80.16 55.6157 80.07 55.2457 80.01C54.8757 79.94 54.4107 79.905 53.8507 79.905V78.345C54.7907 78.345 55.4507 78.23 55.8307 78C56.2207 77.76 56.4157 77.45 56.4157 77.07C56.4157 76.74 56.2907 76.485 56.0407 76.305C55.7907 76.115 55.4457 76.02 55.0057 76.02C54.6257 76.02 54.2757 76.095 53.9557 76.245C53.6357 76.395 53.3107 76.6 52.9807 76.86L51.8707 75.51C52.3407 75.13 52.8407 74.835 53.3707 74.625C53.9107 74.405 54.4907 74.295 55.1107 74.295C55.6307 74.295 56.1057 74.355 56.5357 74.475C56.9657 74.585 57.3357 74.755 57.6457 74.985C57.9557 75.205 58.1957 75.475 58.3657 75.795C58.5357 76.115 58.6207 76.485 58.6207 76.905C58.6207 77.405 58.4607 77.83 58.1407 78.18C57.8207 78.52 57.3757 78.8 56.8057 79.02V79.08C57.4057 79.24 57.9107 79.515 58.3207 79.905C58.7307 80.285 58.9357 80.785 58.9357 81.405C58.9357 81.845 58.8307 82.24 58.6207 82.59C58.4207 82.93 58.1457 83.22 57.7957 83.46C57.4557 83.69 57.0557 83.87 56.5957 84C56.1357 84.12 55.6557 84.18 55.1557 84.18C54.3357 84.18 53.6307 84.06 53.0407 83.82C52.4507 83.57 51.9707 83.24 51.6007 82.83L52.6207 81.435ZM62.7848 81.315C62.7848 81.735 62.9498 82.065 63.2798 82.305C63.6098 82.535 64.0198 82.65 64.5098 82.65C64.9598 82.65 65.3198 82.555 65.5898 82.365C65.8698 82.165 66.0098 81.865 66.0098 81.465C66.0098 81.245 65.9548 81.06 65.8448 80.91C65.7348 80.76 65.5748 80.625 65.3648 80.505C65.1648 80.375 64.9248 80.26 64.6448 80.16C64.3648 80.05 64.0548 79.93 63.7148 79.8C63.4448 80 63.2198 80.225 63.0398 80.475C62.8698 80.725 62.7848 81.005 62.7848 81.315ZM65.1098 78.45C65.5898 78.02 65.8298 77.555 65.8298 77.055C65.8298 76.685 65.7148 76.39 65.4848 76.17C65.2548 75.94 64.9198 75.825 64.4798 75.825C64.1298 75.825 63.8298 75.915 63.5798 76.095C63.3398 76.275 63.2198 76.55 63.2198 76.92C63.2198 77.31 63.3948 77.615 63.7448 77.835C64.0948 78.055 64.5498 78.26 65.1098 78.45ZM60.8798 81.57C60.8798 81.28 60.9248 81.02 61.0148 80.79C61.1148 80.55 61.2448 80.335 61.4048 80.145C61.5748 79.955 61.7648 79.785 61.9748 79.635C62.1948 79.485 62.4298 79.35 62.6798 79.23V79.17C62.2798 78.89 61.9448 78.575 61.6748 78.225C61.4148 77.865 61.2848 77.43 61.2848 76.92C61.2848 76.52 61.3648 76.16 61.5248 75.84C61.6848 75.51 61.9048 75.23 62.1848 75C62.4748 74.77 62.8198 74.595 63.2198 74.475C63.6198 74.355 64.0548 74.295 64.5248 74.295C65.0048 74.295 65.4348 74.36 65.8148 74.49C66.2048 74.61 66.5348 74.785 66.8048 75.015C67.0748 75.235 67.2798 75.51 67.4198 75.84C67.5698 76.16 67.6448 76.515 67.6448 76.905C67.6448 77.355 67.5098 77.755 67.2398 78.105C66.9798 78.455 66.6598 78.75 66.2798 78.99V79.05C66.5298 79.17 66.7648 79.31 66.9848 79.47C67.2048 79.62 67.3948 79.795 67.5548 79.995C67.7148 80.195 67.8398 80.425 67.9298 80.685C68.0198 80.935 68.0648 81.22 68.0648 81.54C68.0648 81.92 67.9848 82.27 67.8248 82.59C67.6648 82.91 67.4298 83.19 67.1198 83.43C66.8198 83.66 66.4448 83.845 65.9948 83.985C65.5448 84.115 65.0298 84.18 64.4498 84.18C63.8998 84.18 63.4048 84.12 62.9648 84C62.5248 83.87 62.1498 83.69 61.8398 83.46C61.5298 83.23 61.2898 82.955 61.1198 82.635C60.9598 82.315 60.8798 81.96 60.8798 81.57Z" fill="#F0E442"/>
<path d="M36.6724 42.83H34.0324V41.27H36.6724V38.51H38.2924V41.27H40.9324V42.83H38.2924V45.59H36.6724V42.83ZM34.0324 60.27H40.9324V61.83H34.0324V60.27ZM36.6724 79.83H34.0324V78.27H36.6724V75.51H38.2924V78.27H40.9324V79.83H38.2924V82.59H36.6724V79.83Z" fill="#E0E0E0"/>
<path d="M7.68 140.45C8 140.71 8.34 140.935 8.7 141.125C9.07 141.305 9.48 141.395 9.93 141.395C10.47 141.395 10.91 141.27 11.25 141.02C11.6 140.77 11.775 140.4 11.775 139.91C11.775 139.43 11.61 139.065 11.28 138.815C10.96 138.565 10.545 138.44 10.035 138.44C9.875 138.44 9.73 138.45 9.6 138.47C9.48 138.48 9.36 138.505 9.24 138.545C9.12 138.585 8.995 138.635 8.865 138.695C8.735 138.755 8.59 138.83 8.43 138.92L7.455 138.29L7.71 133.475H13.545V135.335H9.615L9.45 137.12C9.67 137.04 9.875 136.985 10.065 136.955C10.255 136.915 10.47 136.895 10.71 136.895C11.15 136.895 11.565 136.955 11.955 137.075C12.355 137.195 12.705 137.375 13.005 137.615C13.305 137.855 13.54 138.16 13.71 138.53C13.89 138.9 13.98 139.34 13.98 139.85C13.98 140.38 13.875 140.85 13.665 141.26C13.465 141.67 13.19 142.02 12.84 142.31C12.5 142.59 12.105 142.805 11.655 142.955C11.205 143.105 10.735 143.18 10.245 143.18C9.415 143.18 8.71 143.055 8.13 142.805C7.56 142.545 7.08 142.225 6.69 141.845L7.68 140.45ZM19.4941 143.18C18.9441 143.18 18.4441 143.075 17.9941 142.865C17.5441 142.645 17.1591 142.325 16.8391 141.905C16.5191 141.485 16.2691 140.965 16.0891 140.345C15.9191 139.725 15.8341 139.01 15.8341 138.2C15.8341 137.39 15.9191 136.68 16.0891 136.07C16.2691 135.46 16.5191 134.95 16.8391 134.54C17.1591 134.12 17.5441 133.81 17.9941 133.61C18.4441 133.4 18.9441 133.295 19.4941 133.295C20.0441 133.295 20.5441 133.4 20.9941 133.61C21.4441 133.81 21.8291 134.12 22.1491 134.54C22.4691 134.95 22.7141 135.46 22.8841 136.07C23.0641 136.68 23.1541 137.39 23.1541 138.2C23.1541 139.01 23.0641 139.725 22.8841 140.345C22.7141 140.965 22.4691 141.485 22.1491 141.905C21.8291 142.325 21.4441 142.645 20.9941 142.865C20.5441 143.075 20.0441 143.18 19.4941 143.18ZM19.4941 135.005C19.2541 135.005 19.0291 135.055 18.8191 135.155C18.6191 135.255 18.4441 135.43 18.2941 135.68C18.1441 135.92 18.0241 136.245 17.9341 136.655C17.8441 137.065 17.7991 137.58 17.7991 138.2C17.7991 138.82 17.8441 139.34 17.9341 139.76C18.0241 140.17 18.1441 140.505 18.2941 140.765C18.4441 141.015 18.6191 141.195 18.8191 141.305C19.0291 141.415 19.2541 141.47 19.4941 141.47C19.7341 141.47 19.9541 141.415 20.1541 141.305C20.3641 141.195 20.5441 141.015 20.6941 140.765C20.8441 140.505 20.9641 140.17 21.0541 139.76C21.1441 139.34 21.1891 138.82 21.1891 138.2C21.1891 137.58 21.1441 137.065 21.0541 136.655C20.9641 136.245 20.8441 135.92 20.6941 135.68C20.5441 135.43 20.3641 135.255 20.1541 135.155C19.9541 135.055 19.7341 135.005 19.4941 135.005ZM19.4941 139.31C19.1741 139.31 18.9041 139.21 18.6841 139.01C18.4741 138.8 18.3691 138.52 18.3691 138.17C18.3691 137.82 18.4741 137.545 18.6841 137.345C18.9041 137.135 19.1741 137.03 19.4941 137.03C19.8141 137.03 20.0791 137.135 20.2891 137.345C20.5091 137.545 20.6191 137.82 20.6191 138.17C20.6191 138.52 20.5091 138.8 20.2891 139.01C20.0791 139.21 19.8141 139.31 19.4941 139.31Z" fill="white"/>
<path d="M10.5 125.18C9.92 125.18 9.385 125.065 8.895 124.835C8.415 124.595 8 124.255 7.65 123.815C7.31 123.375 7.045 122.84 6.855 122.21C6.665 121.58 6.57 120.865 6.57 120.065C6.57 119.265 6.665 118.555 6.855 117.935C7.045 117.305 7.31 116.78 7.65 116.36C8 115.93 8.415 115.605 8.895 115.385C9.385 115.155 9.92 115.04 10.5 115.04C11.08 115.04 11.61 115.155 12.09 115.385C12.58 115.605 12.995 115.93 13.335 116.36C13.685 116.79 13.955 117.32 14.145 117.95C14.335 118.57 14.43 119.275 14.43 120.065C14.43 120.865 14.335 121.58 14.145 122.21C13.955 122.84 13.685 123.375 13.335 123.815C12.995 124.255 12.58 124.595 12.09 124.835C11.61 125.065 11.08 125.18 10.5 125.18ZM10.5 123.275C11.01 123.275 11.415 122.99 11.715 122.42C12.015 121.84 12.165 121.055 12.165 120.065C12.165 119.085 12.015 118.32 11.715 117.77C11.415 117.22 11.01 116.945 10.5 116.945C9.99 116.945 9.585 117.22 9.285 117.77C8.985 118.32 8.835 119.085 8.835 120.065C8.835 121.055 8.985 121.84 9.285 122.42C9.585 122.99 9.99 123.275 10.5 123.275ZM22.8691 125H21.0691L20.9041 123.935H20.8441C20.5141 124.315 20.1491 124.62 19.7491 124.85C19.3491 125.07 18.8791 125.18 18.3391 125.18C17.4891 125.18 16.8741 124.91 16.4941 124.37C16.1141 123.83 15.9241 123.09 15.9241 122.15V117.56H18.1291V121.865C18.1291 122.365 18.2041 122.73 18.3541 122.96C18.5041 123.19 18.7891 123.305 19.2091 123.305C19.4891 123.305 19.7341 123.245 19.9441 123.125C20.1641 123.005 20.4041 122.78 20.6641 122.45V117.56H22.8691V125ZM26.5983 119.285H24.7233V117.65L26.7033 117.56L26.9883 115.58H28.8033V117.56H31.9533V119.285H28.8033V121.895C28.8033 122.465 28.9283 122.87 29.1783 123.11C29.4283 123.34 29.8233 123.455 30.3633 123.455C30.6533 123.455 30.9183 123.43 31.1583 123.38C31.3983 123.33 31.6283 123.265 31.8483 123.185L32.2383 124.775C31.9083 124.875 31.5383 124.965 31.1283 125.045C30.7283 125.135 30.2883 125.18 29.8083 125.18C29.2183 125.18 28.7183 125.1 28.3083 124.94C27.8983 124.78 27.5633 124.56 27.3033 124.28C27.0533 123.99 26.8733 123.645 26.7633 123.245C26.6533 122.845 26.5983 122.4 26.5983 121.91V119.285ZM36.2674 125.585V127.76H34.0624V117.56H35.8624L36.0274 118.31H36.0724C36.3724 118.04 36.7174 117.82 37.1074 117.65C37.4974 117.47 37.8924 117.38 38.2924 117.38C38.7524 117.38 39.1674 117.47 39.5374 117.65C39.9074 117.83 40.2224 118.085 40.4824 118.415C40.7424 118.745 40.9374 119.145 41.0674 119.615C41.2074 120.075 41.2774 120.59 41.2774 121.16C41.2774 121.8 41.1874 122.37 41.0074 122.87C40.8274 123.36 40.5874 123.78 40.2874 124.13C39.9874 124.47 39.6424 124.73 39.2524 124.91C38.8724 125.09 38.4724 125.18 38.0524 125.18C37.3724 125.18 36.7524 124.91 36.1924 124.37L36.2674 125.585ZM36.2674 122.885C36.4774 123.065 36.6924 123.195 36.9124 123.275C37.1424 123.345 37.3524 123.38 37.5424 123.38C37.9624 123.38 38.3124 123.21 38.5924 122.87C38.8724 122.52 39.0124 121.96 39.0124 121.19C39.0124 119.85 38.5574 119.18 37.6474 119.18C37.1774 119.18 36.7174 119.41 36.2674 119.87V122.885ZM49.8516 125H48.0516L47.8866 123.935H47.8266C47.4966 124.315 47.1316 124.62 46.7316 124.85C46.3316 125.07 45.8616 125.18 45.3216 125.18C44.4716 125.18 43.8566 124.91 43.4766 124.37C43.0966 123.83 42.9066 123.09 42.9066 122.15V117.56H45.1116V121.865C45.1116 122.365 45.1866 122.73 45.3366 122.96C45.4866 123.19 45.7716 123.305 46.1916 123.305C46.4716 123.305 46.7166 123.245 46.9266 123.125C47.1466 123.005 47.3866 122.78 47.6466 122.45V117.56H49.8516V125ZM53.5807 119.285H51.7057V117.65L53.6857 117.56L53.9707 115.58H55.7857V117.56H58.9357V119.285H55.7857V121.895C55.7857 122.465 55.9107 122.87 56.1607 123.11C56.4107 123.34 56.8057 123.455 57.3457 123.455C57.6357 123.455 57.9007 123.43 58.1407 123.38C58.3807 123.33 58.6107 123.265 58.8307 123.185L59.2207 124.775C58.8907 124.875 58.5207 124.965 58.1107 125.045C57.7107 125.135 57.2707 125.18 56.7907 125.18C56.2007 125.18 55.7007 125.1 55.2907 124.94C54.8807 124.78 54.5457 124.56 54.2857 124.28C54.0357 123.99 53.8557 123.645 53.7457 123.245C53.6357 122.845 53.5807 122.4 53.5807 121.91V119.285Z" fill="white"/>
<rect x="69" width="89" height="26" fill="#333333"/>
<rect x="69" width="89" height="26" fill="#333333"/>
<rect width="69" height="26" fill="#090808"/>
<path d="M10.7646 14.9561C10.7646 14.7145 10.6439 14.5254 10.4023 14.3887C10.1654 14.2474 9.78255 14.1221 9.25391 14.0127C7.49479 13.6436 6.61523 12.8962 6.61523 11.7705C6.61523 11.1143 6.88639 10.5674 7.42871 10.1299C7.97559 9.68783 8.6888 9.4668 9.56836 9.4668C10.5072 9.4668 11.2568 9.68783 11.8174 10.1299C12.3825 10.5719 12.665 11.1462 12.665 11.8525H10.6895C10.6895 11.57 10.5983 11.3376 10.416 11.1553C10.2337 10.9684 9.94889 10.875 9.56152 10.875C9.22884 10.875 8.97135 10.9502 8.78906 11.1006C8.60677 11.251 8.51562 11.4424 8.51562 11.6748C8.51562 11.8936 8.61816 12.0713 8.82324 12.208C9.03288 12.3402 9.38379 12.4564 9.87598 12.5566C10.3682 12.6523 10.7829 12.7617 11.1201 12.8848C12.1637 13.2676 12.6855 13.9307 12.6855 14.874C12.6855 15.5485 12.3962 16.0954 11.8174 16.5146C11.2386 16.9294 10.4912 17.1367 9.5752 17.1367C8.9554 17.1367 8.40397 17.0273 7.9209 16.8086C7.44238 16.5853 7.06641 16.2822 6.79297 15.8994C6.51953 15.512 6.38281 15.0951 6.38281 14.6484H8.25586C8.27409 14.9993 8.40397 15.2682 8.64551 15.4551C8.88704 15.6419 9.21061 15.7354 9.61621 15.7354C9.99447 15.7354 10.2793 15.6647 10.4707 15.5234C10.6667 15.3776 10.7646 15.1885 10.7646 14.9561ZM17.04 15.5439C17.4046 15.5439 17.7008 15.4437 17.9287 15.2432C18.1566 15.0426 18.2751 14.776 18.2842 14.4434H20.1367C20.1322 14.9447 19.9954 15.4049 19.7266 15.8242C19.4577 16.2389 19.0885 16.5625 18.6191 16.7949C18.1543 17.0228 17.6393 17.1367 17.0742 17.1367C16.0169 17.1367 15.1829 16.8018 14.5723 16.1318C13.9616 15.4574 13.6562 14.5277 13.6562 13.3428V13.2129C13.6562 12.0736 13.9593 11.1644 14.5654 10.4854C15.1715 9.80632 16.0033 9.4668 17.0605 9.4668C17.9857 9.4668 18.7262 9.73112 19.2822 10.2598C19.8428 10.7839 20.1276 11.4834 20.1367 12.3584H18.2842C18.2751 11.9756 18.1566 11.6657 17.9287 11.4287C17.7008 11.1872 17.4001 11.0664 17.0264 11.0664C16.5661 11.0664 16.2174 11.235 15.9805 11.5723C15.748 11.9049 15.6318 12.4473 15.6318 13.1992V13.4043C15.6318 14.1654 15.748 14.7122 15.9805 15.0449C16.2129 15.3776 16.5661 15.5439 17.04 15.5439ZM25.4209 11.4561C25.152 11.4196 24.915 11.4014 24.71 11.4014C23.9626 11.4014 23.4727 11.6543 23.2402 12.1602V17H21.2646V9.60352H23.1309L23.1855 10.4854C23.582 9.80632 24.1312 9.4668 24.833 9.4668C25.0518 9.4668 25.2568 9.49642 25.4482 9.55566L25.4209 11.4561ZM28.4629 17H26.4805V9.60352H28.4629V17ZM26.3643 7.68945C26.3643 7.39323 26.4622 7.14941 26.6582 6.95801C26.8587 6.7666 27.1299 6.6709 27.4717 6.6709C27.8089 6.6709 28.0778 6.7666 28.2783 6.95801C28.4788 7.14941 28.5791 7.39323 28.5791 7.68945C28.5791 7.99023 28.4766 8.23633 28.2715 8.42773C28.071 8.61914 27.8044 8.71484 27.4717 8.71484C27.139 8.71484 26.8701 8.61914 26.665 8.42773C26.4645 8.23633 26.3643 7.99023 26.3643 7.68945ZM36.7549 13.3701C36.7549 14.5094 36.4951 15.4232 35.9756 16.1113C35.4606 16.7949 34.7633 17.1367 33.8838 17.1367C33.1364 17.1367 32.5326 16.877 32.0723 16.3574V19.8438H30.0967V9.60352H31.9287L31.9971 10.3281C32.4756 9.75391 33.0999 9.4668 33.8701 9.4668C34.7816 9.4668 35.4902 9.80404 35.9961 10.4785C36.502 11.153 36.7549 12.0827 36.7549 13.2676V13.3701ZM34.7793 13.2266C34.7793 12.5384 34.6562 12.0075 34.4102 11.6338C34.1686 11.2601 33.8154 11.0732 33.3506 11.0732C32.7308 11.0732 32.3047 11.3102 32.0723 11.7842V14.8125C32.3138 15.3001 32.7445 15.5439 33.3643 15.5439C34.3076 15.5439 34.7793 14.7715 34.7793 13.2266ZM40.3506 7.78516V9.60352H41.6152V11.0527H40.3506V14.7441C40.3506 15.0176 40.403 15.2135 40.5078 15.332C40.6126 15.4505 40.8132 15.5098 41.1094 15.5098C41.3281 15.5098 41.5218 15.4938 41.6904 15.4619V16.959C41.3031 17.0775 40.9043 17.1367 40.4941 17.1367C39.1087 17.1367 38.4023 16.4372 38.375 15.0381V11.0527H37.2949V9.60352H38.375V7.78516H40.3506ZM42.8184 16.0293C42.8184 15.7148 42.9232 15.4596 43.1328 15.2637C43.347 15.0677 43.6136 14.9697 43.9326 14.9697C44.2562 14.9697 44.5228 15.0677 44.7324 15.2637C44.9466 15.4596 45.0537 15.7148 45.0537 16.0293C45.0537 16.3392 44.9489 16.5921 44.7393 16.7881C44.5296 16.9795 44.2607 17.0752 43.9326 17.0752C43.609 17.0752 43.3424 16.9795 43.1328 16.7881C42.9232 16.5921 42.8184 16.3392 42.8184 16.0293ZM53.4482 13.3701C53.4482 14.5094 53.1885 15.4232 52.6689 16.1113C52.154 16.7949 51.4567 17.1367 50.5771 17.1367C49.8298 17.1367 49.2259 16.877 48.7656 16.3574V19.8438H46.79V9.60352H48.6221L48.6904 10.3281C49.1689 9.75391 49.7933 9.4668 50.5635 9.4668C51.4749 9.4668 52.1836 9.80404 52.6895 10.4785C53.1953 11.153 53.4482 12.0827 53.4482 13.2676V13.3701ZM51.4727 13.2266C51.4727 12.5384 51.3496 12.0075 51.1035 11.6338C50.862 11.2601 50.5088 11.0732 50.0439 11.0732C49.4242 11.0732 48.998 11.3102 48.7656 11.7842V14.8125C49.0072 15.3001 49.4378 15.5439 50.0576 15.5439C51.001 15.5439 51.4727 14.7715 51.4727 13.2266ZM57.3584 14.2041L58.7256 9.60352H60.8447L57.8711 18.1484L57.707 18.5381C57.265 19.5042 56.5358 19.9873 55.5195 19.9873C55.2324 19.9873 54.9408 19.944 54.6445 19.8574V18.3604L54.9453 18.3672C55.319 18.3672 55.597 18.3102 55.7793 18.1963C55.9661 18.0824 56.112 17.8932 56.2168 17.6289L56.4492 17.0205L53.8584 9.60352H55.9844L57.3584 14.2041Z" fill="white"/>
<line y1="106.5" x2="158" y2="106.5" stroke="white"/>
</svg>
