<svg width="610" height="165" viewBox="0 0 610 165" fill="none" xmlns="http://www.w3.org/2000/svg">
<rect x="0.000396729" width="610" height="165" fill="black"/>
<rect x="79.0004" width="531" height="31" fill="#333333"/>
<rect x="79.0004" width="531" height="31" fill="#333333"/>
<rect x="0.000396729" width="79" height="31" fill="#090808"/>
<path d="M12.1054 17.8101C12.1054 17.5513 11.976 17.3486 11.7172 17.2021C11.4633 17.0508 11.0531 16.9165 10.4867 16.7993C8.60196 16.4038 7.65958 15.603 7.65958 14.397C7.65958 13.6938 7.9501 13.1079 8.53116 12.6392C9.1171 12.1655 9.88126 11.9287 10.8236 11.9287C11.8295 11.9287 12.6327 12.1655 13.2333 12.6392C13.8388 13.1128 14.1415 13.728 14.1415 14.4849H12.0248C12.0248 14.1821 11.9272 13.9331 11.7318 13.7378C11.5365 13.5376 11.2314 13.4375 10.8163 13.4375C10.4599 13.4375 10.184 13.5181 9.98868 13.6792C9.79337 13.8403 9.69571 14.0454 9.69571 14.2944C9.69571 14.5288 9.80557 14.7192 10.0253 14.8657C10.2499 15.0073 10.6259 15.1318 11.1532 15.2393C11.6806 15.3418 12.1249 15.459 12.4862 15.5908C13.6044 16.001 14.1635 16.7114 14.1635 17.7222C14.1635 18.4448 13.8534 19.0308 13.2333 19.48C12.6132 19.9243 11.8124 20.1465 10.831 20.1465C10.1669 20.1465 9.57608 20.0293 9.0585 19.7949C8.54581 19.5557 8.14297 19.231 7.85001 18.8208C7.55704 18.4058 7.41055 17.959 7.41055 17.4805H9.41739C9.43692 17.8564 9.57608 18.1445 9.83487 18.3447C10.0937 18.5449 10.4403 18.645 10.8749 18.645C11.2802 18.645 11.5854 18.5693 11.7904 18.418C12.0004 18.2617 12.1054 18.0591 12.1054 17.8101ZM18.829 18.4399C19.2196 18.4399 19.537 18.3325 19.7812 18.1177C20.0253 17.9028 20.1523 17.6172 20.162 17.2607H22.1469C22.142 17.7979 21.9955 18.291 21.7074 18.7402C21.4193 19.1846 21.0238 19.5312 20.5209 19.7803C20.0229 20.0244 19.4711 20.1465 18.8656 20.1465C17.7328 20.1465 16.8393 19.7876 16.185 19.0698C15.5307 18.3472 15.2035 17.3511 15.2035 16.0815V15.9424C15.2035 14.7217 15.5282 13.7476 16.1776 13.02C16.8271 12.2925 17.7182 11.9287 18.851 11.9287C19.8422 11.9287 20.6357 12.2119 21.2314 12.7783C21.8319 13.3398 22.1371 14.0894 22.1469 15.0269H20.162C20.1523 14.6167 20.0253 14.2847 19.7812 14.0308C19.537 13.772 19.2148 13.6426 18.8144 13.6426C18.3212 13.6426 17.9477 13.8232 17.6938 14.1846C17.4447 14.541 17.3202 15.1221 17.3202 15.9277V16.1475C17.3202 16.9629 17.4447 17.5488 17.6938 17.9053C17.9428 18.2617 18.3212 18.4399 18.829 18.4399ZM27.8085 14.0601C27.5204 14.021 27.2665 14.0015 27.0468 14.0015C26.246 14.0015 25.7211 14.2725 25.4721 14.8145V20H23.3554V12.0752H25.3549L25.4135 13.02C25.8383 12.2925 26.4267 11.9287 27.1786 11.9287C27.413 11.9287 27.6327 11.9604 27.8378 12.0239L27.8085 14.0601ZM31.0678 20H28.9438V12.0752H31.0678V20ZM28.8192 10.0244C28.8192 9.70703 28.9242 9.4458 29.1342 9.24072C29.349 9.03564 29.6396 8.93311 30.0058 8.93311C30.3671 8.93311 30.6552 9.03564 30.87 9.24072C31.0849 9.4458 31.1923 9.70703 31.1923 10.0244C31.1923 10.3467 31.0824 10.6104 30.8627 10.8154C30.6479 11.0205 30.3622 11.123 30.0058 11.123C29.6493 11.123 29.3612 11.0205 29.1415 10.8154C28.9267 10.6104 28.8192 10.3467 28.8192 10.0244ZM39.9521 16.1108C39.9521 17.3315 39.6737 18.3105 39.1171 19.0479C38.5653 19.7803 37.8183 20.1465 36.8759 20.1465C36.0751 20.1465 35.4281 19.8682 34.935 19.3115V23.0469H32.8183V12.0752H34.7812L34.8544 12.8516C35.3671 12.2363 36.036 11.9287 36.8612 11.9287C37.8378 11.9287 38.5971 12.29 39.1391 13.0127C39.6811 13.7354 39.9521 14.7314 39.9521 16.001V16.1108ZM37.8354 15.957C37.8354 15.2197 37.7035 14.6509 37.4398 14.2505C37.1811 13.8501 36.8026 13.6499 36.3046 13.6499C35.6405 13.6499 35.184 13.9038 34.935 14.4116V17.6562C35.1938 18.1787 35.6552 18.4399 36.3192 18.4399C37.33 18.4399 37.8354 17.6123 37.8354 15.957ZM43.8046 10.127V12.0752H45.1596V13.6279H43.8046V17.583C43.8046 17.876 43.8607 18.0859 43.9731 18.2129C44.0854 18.3398 44.3002 18.4033 44.6176 18.4033C44.852 18.4033 45.0595 18.3862 45.2401 18.3521V19.9561C44.8251 20.083 44.3979 20.1465 43.9584 20.1465C42.474 20.1465 41.7172 19.397 41.6879 17.8979V13.6279H40.5307V12.0752H41.6879V10.127H43.8046ZM46.4486 18.96C46.4486 18.623 46.5609 18.3496 46.7856 18.1396C47.015 17.9297 47.3007 17.8247 47.6425 17.8247C47.9892 17.8247 48.2748 17.9297 48.4994 18.1396C48.7289 18.3496 48.8437 18.623 48.8437 18.96C48.8437 19.292 48.7314 19.563 48.5067 19.7729C48.2821 19.978 47.994 20.0806 47.6425 20.0806C47.2958 20.0806 47.0102 19.978 46.7856 19.7729C46.5609 19.563 46.4486 19.292 46.4486 18.96ZM57.8378 16.1108C57.8378 17.3315 57.5595 18.3105 57.0028 19.0479C56.4511 19.7803 55.704 20.1465 54.7616 20.1465C53.9608 20.1465 53.3139 19.8682 52.8207 19.3115V23.0469H50.704V12.0752H52.6669L52.7401 12.8516C53.2528 12.2363 53.9218 11.9287 54.747 11.9287C55.7235 11.9287 56.4828 12.29 57.0248 13.0127C57.5668 13.7354 57.8378 14.7314 57.8378 16.001V16.1108ZM55.7211 15.957C55.7211 15.2197 55.5893 14.6509 55.3256 14.2505C55.0668 13.8501 54.6884 13.6499 54.1903 13.6499C53.5263 13.6499 53.0697 13.9038 52.8207 14.4116V17.6562C53.0795 18.1787 53.5409 18.4399 54.205 18.4399C55.2157 18.4399 55.7211 17.6123 55.7211 15.957ZM62.0273 17.0044L63.4921 12.0752H65.7626L62.5766 21.2305L62.4008 21.6479C61.9272 22.6831 61.1459 23.2007 60.057 23.2007C59.7494 23.2007 59.4369 23.1543 59.1195 23.0615V21.4575L59.4418 21.4648C59.8422 21.4648 60.14 21.4038 60.3354 21.2817C60.5356 21.1597 60.6918 20.957 60.8041 20.6738L61.0531 20.022L58.2773 12.0752H60.5551L62.0273 17.0044Z" fill="white"/>
<path d="M8.0054 47.28C8.0054 46.66 8.1204 46.11 8.3504 45.63C8.5904 45.14 8.9054 44.73 9.2954 44.4C9.6954 44.07 10.1554 43.82 10.6754 43.65C11.1954 43.47 11.7404 43.38 12.3104 43.38C12.9004 43.38 13.4304 43.475 13.9004 43.665C14.3804 43.855 14.7804 44.095 15.1004 44.385L14.0804 45.75C13.5304 45.36 12.9804 45.165 12.4304 45.165C11.7904 45.165 11.2704 45.355 10.8704 45.735C10.4704 46.115 10.2704 46.63 10.2704 47.28C10.2704 47.93 10.4604 48.445 10.8404 48.825C11.2304 49.205 11.7354 49.395 12.3554 49.395C12.7454 49.395 13.1054 49.325 13.4354 49.185C13.7654 49.045 14.0604 48.88 14.3204 48.69L15.2204 50.085C14.7704 50.465 14.2704 50.745 13.7204 50.925C13.1804 51.095 12.6554 51.18 12.1454 51.18C11.5554 51.18 11.0104 51.095 10.5104 50.925C10.0104 50.745 9.5704 50.49 9.1904 50.16C8.8204 49.83 8.5304 49.425 8.3204 48.945C8.1104 48.455 8.0054 47.9 8.0054 47.28ZM16.6995 47.28C16.6995 46.66 16.8045 46.11 17.0145 45.63C17.2245 45.14 17.5045 44.73 17.8545 44.4C18.2145 44.07 18.6195 43.82 19.0695 43.65C19.5295 43.47 20.0045 43.38 20.4945 43.38C20.9845 43.38 21.4545 43.47 21.9045 43.65C22.3645 43.82 22.7695 44.07 23.1195 44.4C23.4795 44.73 23.7645 45.14 23.9745 45.63C24.1845 46.11 24.2895 46.66 24.2895 47.28C24.2895 47.9 24.1845 48.455 23.9745 48.945C23.7645 49.425 23.4795 49.83 23.1195 50.16C22.7695 50.49 22.3645 50.745 21.9045 50.925C21.4545 51.095 20.9845 51.18 20.4945 51.18C20.0045 51.18 19.5295 51.095 19.0695 50.925C18.6195 50.745 18.2145 50.49 17.8545 50.16C17.5045 49.83 17.2245 49.425 17.0145 48.945C16.8045 48.455 16.6995 47.9 16.6995 47.28ZM18.9645 47.28C18.9645 47.93 19.0895 48.445 19.3395 48.825C19.5995 49.205 19.9845 49.395 20.4945 49.395C21.0045 49.395 21.3845 49.205 21.6345 48.825C21.8945 48.445 22.0245 47.93 22.0245 47.28C22.0245 46.63 21.8945 46.115 21.6345 45.735C21.3845 45.355 21.0045 45.165 20.4945 45.165C19.9845 45.165 19.5995 45.355 19.3395 45.735C19.0895 46.115 18.9645 46.63 18.9645 47.28ZM26.0687 43.56H27.8687L28.0337 44.55H28.0937C28.4137 44.23 28.7787 43.955 29.1887 43.725C29.6087 43.495 30.0987 43.38 30.6587 43.38C31.4987 43.38 32.1137 43.65 32.5037 44.19C32.8937 44.73 33.0887 45.47 33.0887 46.41V51H30.8837V46.695C30.8837 46.195 30.8037 45.83 30.6437 45.6C30.4837 45.37 30.1987 45.255 29.7887 45.255C29.4887 45.255 29.2237 45.32 28.9937 45.45C28.7737 45.58 28.5337 45.775 28.2737 46.035V51H26.0687V43.56ZM36.5928 45.285H34.7178V43.65L36.6978 43.56L36.9828 41.58H38.7978V43.56H41.9478V45.285H38.7978V47.895C38.7978 48.465 38.9228 48.87 39.1728 49.11C39.4228 49.34 39.8178 49.455 40.3578 49.455C40.6478 49.455 40.9128 49.43 41.1528 49.38C41.3928 49.33 41.6228 49.265 41.8428 49.185L42.2328 50.775C41.9028 50.875 41.5328 50.965 41.1228 51.045C40.7228 51.135 40.2828 51.18 39.8028 51.18C39.2128 51.18 38.7128 51.1 38.3028 50.94C37.8928 50.78 37.5578 50.56 37.2978 50.28C37.0478 49.99 36.8678 49.645 36.7578 49.245C36.6478 48.845 36.5928 48.4 36.5928 47.91V45.285ZM43.802 47.28C43.802 46.67 43.907 46.125 44.117 45.645C44.337 45.165 44.627 44.76 44.987 44.43C45.347 44.09 45.757 43.83 46.217 43.65C46.687 43.47 47.172 43.38 47.672 43.38C48.242 43.38 48.747 43.47 49.187 43.65C49.627 43.83 49.992 44.08 50.282 44.4C50.572 44.72 50.792 45.1 50.942 45.54C51.092 45.97 51.167 46.44 51.167 46.95C51.167 47.15 51.157 47.34 51.137 47.52C51.117 47.7 51.097 47.835 51.077 47.925H46.067C46.147 48.485 46.387 48.89 46.787 49.14C47.197 49.38 47.677 49.5 48.227 49.5C48.567 49.5 48.887 49.46 49.187 49.38C49.497 49.29 49.817 49.16 50.147 48.99L50.867 50.31C50.447 50.58 49.977 50.795 49.457 50.955C48.937 51.105 48.427 51.18 47.927 51.18C47.347 51.18 46.807 51.095 46.307 50.925C45.807 50.745 45.372 50.49 45.002 50.16C44.632 49.82 44.337 49.41 44.117 48.93C43.907 48.45 43.802 47.9 43.802 47.28ZM49.172 46.47C49.172 46.05 49.057 45.71 48.827 45.45C48.597 45.19 48.227 45.06 47.717 45.06C47.317 45.06 46.962 45.175 46.652 45.405C46.342 45.635 46.137 45.99 46.037 46.47H49.172ZM53.0511 43.56H54.8511L55.0161 44.55H55.0761C55.3961 44.23 55.7611 43.955 56.1711 43.725C56.5911 43.495 57.0811 43.38 57.6411 43.38C58.4811 43.38 59.0961 43.65 59.4861 44.19C59.8761 44.73 60.0711 45.47 60.0711 46.41V51H57.8661V46.695C57.8661 46.195 57.7861 45.83 57.6261 45.6C57.4661 45.37 57.1811 45.255 56.7711 45.255C56.4711 45.255 56.2061 45.32 55.9761 45.45C55.7561 45.58 55.5161 45.775 55.2561 46.035V51H53.0511V43.56ZM63.5752 45.285H61.7002V43.65L63.6802 43.56L63.9652 41.58H65.7802V43.56H68.9302V45.285H65.7802V47.895C65.7802 48.465 65.9052 48.87 66.1552 49.11C66.4052 49.34 66.8002 49.455 67.3402 49.455C67.6302 49.455 67.8952 49.43 68.1352 49.38C68.3752 49.33 68.6052 49.265 68.8252 49.185L69.2152 50.775C68.8852 50.875 68.5152 50.965 68.1052 51.045C67.7052 51.135 67.2652 51.18 66.7852 51.18C66.1952 51.18 65.6952 51.1 65.2852 50.94C64.8752 50.78 64.5402 50.56 64.2802 50.28C64.0302 49.99 63.8502 49.645 63.7402 49.245C63.6302 48.845 63.5752 48.4 63.5752 47.91V45.285ZM78.0594 51.81V53.46H70.8594V51.81H78.0594ZM80.6935 43.56H82.4935L82.6735 45.18H82.7185C83.0885 44.57 83.5335 44.12 84.0535 43.83C84.5735 43.53 85.1335 43.38 85.7335 43.38C86.0635 43.38 86.3285 43.405 86.5285 43.455C86.7385 43.505 86.9535 43.58 87.1735 43.68L86.7235 45.525C86.4935 45.455 86.2835 45.405 86.0935 45.375C85.9135 45.335 85.6835 45.315 85.4035 45.315C84.9435 45.315 84.4885 45.45 84.0385 45.72C83.5985 45.99 83.2185 46.46 82.8985 47.13V51H80.6935V43.56ZM88.8627 48.93C88.8627 48.51 88.9527 48.145 89.1327 47.835C89.3127 47.515 89.5977 47.245 89.9877 47.025C90.3877 46.805 90.8977 46.63 91.5177 46.5C92.1377 46.36 92.8877 46.265 93.7677 46.215C93.7277 45.875 93.5777 45.61 93.3177 45.42C93.0677 45.23 92.6877 45.135 92.1777 45.135C91.8177 45.135 91.4527 45.2 91.0827 45.33C90.7227 45.45 90.3327 45.615 89.9127 45.825L89.1327 44.385C89.6427 44.095 90.1877 43.855 90.7677 43.665C91.3577 43.475 91.9727 43.38 92.6127 43.38C93.6527 43.38 94.4727 43.655 95.0727 44.205C95.6727 44.755 95.9727 45.6 95.9727 46.74V51H94.1727L94.0077 50.16H93.9477C93.5677 50.45 93.1527 50.695 92.7027 50.895C92.2527 51.085 91.7877 51.18 91.3077 51.18C90.9277 51.18 90.5877 51.12 90.2877 51C89.9877 50.89 89.7327 50.735 89.5227 50.535C89.3127 50.325 89.1477 50.085 89.0277 49.815C88.9177 49.545 88.8627 49.25 88.8627 48.93ZM90.9777 48.765C90.9777 49.005 91.0677 49.185 91.2477 49.305C91.4377 49.415 91.6927 49.47 92.0127 49.47C92.3427 49.47 92.6527 49.405 92.9427 49.275C93.2327 49.135 93.5077 48.965 93.7677 48.765V47.535C93.2177 47.565 92.7627 47.615 92.4027 47.685C92.0427 47.755 91.7577 47.845 91.5477 47.955C91.3377 48.055 91.1877 48.175 91.0977 48.315C91.0177 48.455 90.9777 48.605 90.9777 48.765ZM99.5518 45.285H97.6768V43.65L99.6568 43.56L99.9418 41.58H101.757V43.56H104.907V45.285H101.757V47.895C101.757 48.465 101.882 48.87 102.132 49.11C102.382 49.34 102.777 49.455 103.317 49.455C103.607 49.455 103.872 49.43 104.112 49.38C104.352 49.33 104.582 49.265 104.802 49.185L105.192 50.775C104.862 50.875 104.492 50.965 104.082 51.045C103.682 51.135 103.242 51.18 102.762 51.18C102.172 51.18 101.672 51.1 101.262 50.94C100.852 50.78 100.517 50.56 100.257 50.28C100.007 49.99 99.8268 49.645 99.7168 49.245C99.6068 48.845 99.5518 48.4 99.5518 47.91V45.285ZM107.121 43.56H112.311V51H110.106V45.285H107.121V43.56ZM111.111 42.465C110.681 42.465 110.326 42.345 110.046 42.105C109.776 41.865 109.641 41.54 109.641 41.13C109.641 40.72 109.776 40.39 110.046 40.14C110.326 39.88 110.681 39.75 111.111 39.75C111.541 39.75 111.891 39.88 112.161 40.14C112.441 40.39 112.581 40.72 112.581 41.13C112.581 41.54 112.441 41.865 112.161 42.105C111.891 42.345 111.541 42.465 111.111 42.465ZM116.01 43.56H117.81L117.975 44.55H118.035C118.355 44.23 118.72 43.955 119.13 43.725C119.55 43.495 120.04 43.38 120.6 43.38C121.44 43.38 122.055 43.65 122.445 44.19C122.835 44.73 123.03 45.47 123.03 46.41V51H120.825V46.695C120.825 46.195 120.745 45.83 120.585 45.6C120.425 45.37 120.14 45.255 119.73 45.255C119.43 45.255 119.165 45.32 118.935 45.45C118.715 45.58 118.475 45.775 118.215 46.035V51H116.01V43.56ZM126.504 51.93C126.504 52.21 126.669 52.42 126.999 52.56C127.339 52.71 127.804 52.785 128.394 52.785C128.994 52.785 129.479 52.695 129.849 52.515C130.219 52.345 130.404 52.13 130.404 51.87C130.404 51.63 130.294 51.47 130.074 51.39C129.854 51.32 129.529 51.285 129.099 51.285H128.169C127.899 51.285 127.674 51.275 127.494 51.255C127.324 51.245 127.169 51.225 127.029 51.195C126.839 51.315 126.704 51.43 126.624 51.54C126.544 51.66 126.504 51.79 126.504 51.93ZM124.704 52.26C124.704 51.65 125.089 51.155 125.859 50.775V50.715C125.659 50.585 125.484 50.42 125.334 50.22C125.184 50.02 125.109 49.76 125.109 49.44C125.109 49.19 125.189 48.94 125.349 48.69C125.519 48.44 125.734 48.225 125.994 48.045V47.985C125.724 47.805 125.494 47.555 125.304 47.235C125.114 46.905 125.019 46.52 125.019 46.08C125.019 45.63 125.104 45.24 125.274 44.91C125.454 44.57 125.689 44.29 125.979 44.07C126.269 43.84 126.604 43.67 126.984 43.56C127.374 43.44 127.779 43.38 128.199 43.38C128.659 43.38 129.069 43.44 129.429 43.56H132.444V45.165H130.929C131.019 45.275 131.099 45.42 131.169 45.6C131.239 45.77 131.274 45.955 131.274 46.155C131.274 46.585 131.194 46.955 131.034 47.265C130.874 47.575 130.654 47.835 130.374 48.045C130.104 48.245 129.779 48.395 129.399 48.495C129.029 48.595 128.629 48.645 128.199 48.645C127.879 48.645 127.539 48.595 127.179 48.495C127.069 48.575 126.984 48.655 126.924 48.735C126.874 48.815 126.849 48.915 126.849 49.035C126.849 49.235 126.949 49.38 127.149 49.47C127.349 49.56 127.669 49.605 128.109 49.605H129.489C130.469 49.605 131.214 49.75 131.724 50.04C132.244 50.33 132.504 50.81 132.504 51.48C132.504 51.87 132.399 52.23 132.189 52.56C131.979 52.89 131.684 53.17 131.304 53.4C130.924 53.64 130.459 53.825 129.909 53.955C129.359 54.095 128.749 54.165 128.079 54.165C127.599 54.165 127.149 54.125 126.729 54.045C126.319 53.975 125.964 53.86 125.664 53.7C125.364 53.55 125.129 53.355 124.959 53.115C124.789 52.875 124.704 52.59 124.704 52.26ZM128.199 47.31C128.509 47.31 128.774 47.21 128.994 47.01C129.224 46.8 129.339 46.49 129.339 46.08C129.339 45.68 129.224 45.38 128.994 45.18C128.774 44.97 128.509 44.865 128.199 44.865C127.889 44.865 127.624 44.97 127.404 45.18C127.194 45.38 127.089 45.68 127.089 46.08C127.089 46.49 127.194 46.8 127.404 47.01C127.624 47.21 127.889 47.31 128.199 47.31ZM134.703 48.66C135.133 48.93 135.563 49.145 135.993 49.305C136.433 49.465 136.903 49.545 137.403 49.545C137.913 49.545 138.278 49.49 138.498 49.38C138.718 49.27 138.828 49.115 138.828 48.915C138.828 48.685 138.643 48.5 138.273 48.36C137.913 48.21 137.433 48.05 136.833 47.88C136.503 47.79 136.178 47.685 135.858 47.565C135.548 47.435 135.268 47.285 135.018 47.115C134.768 46.935 134.563 46.73 134.403 46.5C134.253 46.27 134.178 46.005 134.178 45.705C134.178 45.365 134.258 45.05 134.418 44.76C134.578 44.47 134.803 44.225 135.093 44.025C135.393 43.825 135.753 43.67 136.173 43.56C136.603 43.44 137.083 43.38 137.613 43.38C138.273 43.38 138.873 43.49 139.413 43.71C139.963 43.92 140.433 44.15 140.823 44.4L139.833 45.72C139.493 45.52 139.143 45.355 138.783 45.225C138.423 45.085 138.048 45.015 137.658 45.015C137.188 45.015 136.853 45.065 136.653 45.165C136.463 45.265 136.368 45.41 136.368 45.6C136.368 45.71 136.418 45.81 136.518 45.9C136.618 45.99 136.753 46.07 136.923 46.14C137.093 46.21 137.293 46.28 137.523 46.35C137.763 46.41 138.013 46.475 138.273 46.545C138.643 46.645 138.993 46.76 139.323 46.89C139.653 47.01 139.943 47.155 140.193 47.325C140.443 47.495 140.643 47.7 140.793 47.94C140.943 48.18 141.018 48.46 141.018 48.78C141.018 49.12 140.938 49.435 140.778 49.725C140.618 50.015 140.383 50.27 140.073 50.49C139.773 50.7 139.393 50.87 138.933 51C138.483 51.12 137.958 51.18 137.358 51.18C136.688 51.18 136.033 51.07 135.393 50.85C134.753 50.63 134.193 50.36 133.713 50.04L134.703 48.66ZM151.957 43.53H158.857V45.09H151.957V43.53ZM151.957 46.995H158.857V48.555H151.957V46.995ZM172.39 51.15C172.39 50.88 172.395 50.64 172.405 50.43C172.425 50.22 172.445 50.02 172.465 49.83C172.485 49.63 172.5 49.435 172.51 49.245C172.53 49.045 172.54 48.825 172.54 48.585C172.54 48.455 172.51 48.325 172.45 48.195C172.39 48.065 172.28 47.95 172.12 47.85C171.96 47.74 171.745 47.655 171.475 47.595C171.215 47.525 170.885 47.485 170.485 47.475V46.185C170.885 46.175 171.215 46.14 171.475 46.08C171.745 46.01 171.96 45.925 172.12 45.825C172.28 45.715 172.39 45.595 172.45 45.465C172.51 45.335 172.54 45.205 172.54 45.075C172.54 44.845 172.53 44.63 172.51 44.43C172.5 44.23 172.485 44.035 172.465 43.845C172.445 43.645 172.425 43.44 172.405 43.23C172.395 43.01 172.39 42.77 172.39 42.51C172.39 41.7 172.615 41.145 173.065 40.845C173.515 40.535 174.22 40.38 175.18 40.38H176.335V41.55H175.72C175.41 41.55 175.155 41.565 174.955 41.595C174.755 41.625 174.6 41.68 174.49 41.76C174.38 41.84 174.3 41.95 174.25 42.09C174.21 42.22 174.19 42.39 174.19 42.6C174.19 43 174.2 43.395 174.22 43.785C174.25 44.175 174.265 44.595 174.265 45.045C174.265 45.615 174.15 46.03 173.92 46.29C173.69 46.54 173.305 46.71 172.765 46.8V46.86C173.305 46.95 173.69 47.125 173.92 47.385C174.15 47.635 174.265 48.045 174.265 48.615C174.265 49.075 174.25 49.495 174.22 49.875C174.2 50.255 174.19 50.65 174.19 51.06C174.19 51.27 174.21 51.44 174.25 51.57C174.3 51.71 174.38 51.82 174.49 51.9C174.6 51.98 174.755 52.035 174.955 52.065C175.155 52.095 175.41 52.11 175.72 52.11H176.335V53.28H175.18C174.22 53.28 173.515 53.125 173.065 52.815C172.615 52.515 172.39 51.96 172.39 51.15ZM216.626 44.58C216.626 44.33 216.666 44.1 216.746 43.89C216.836 43.67 216.956 43.48 217.106 43.32C217.256 43.16 217.436 43.035 217.646 42.945C217.866 42.855 218.106 42.81 218.366 42.81C218.626 42.81 218.861 42.855 219.071 42.945C219.291 43.035 219.476 43.16 219.626 43.32C219.776 43.48 219.891 43.67 219.971 43.89C220.061 44.1 220.106 44.33 220.106 44.58C220.106 45.08 219.946 45.5 219.626 45.84C219.306 46.17 218.886 46.335 218.366 46.335C217.846 46.335 217.426 46.17 217.106 45.84C216.786 45.5 216.626 45.08 216.626 44.58ZM216.626 49.425C216.626 49.175 216.666 48.945 216.746 48.735C216.836 48.515 216.956 48.325 217.106 48.165C217.256 48.005 217.436 47.88 217.646 47.79C217.866 47.7 218.106 47.655 218.366 47.655C218.626 47.655 218.861 47.7 219.071 47.79C219.291 47.88 219.476 48.005 219.626 48.165C219.776 48.325 219.891 48.515 219.971 48.735C220.061 48.945 220.106 49.175 220.106 49.425C220.106 49.925 219.946 50.345 219.626 50.685C219.306 51.015 218.886 51.18 218.366 51.18C217.846 51.18 217.426 51.015 217.106 50.685C216.786 50.345 216.626 49.925 216.626 49.425ZM270.56 52.965C271.86 52.515 272.51 51.805 272.51 50.835C272.47 50.845 272.415 50.85 272.345 50.85C272.135 50.85 271.93 50.82 271.73 50.76C271.54 50.69 271.37 50.59 271.22 50.46C271.07 50.33 270.95 50.17 270.86 49.98C270.77 49.79 270.725 49.57 270.725 49.32C270.725 48.85 270.885 48.475 271.205 48.195C271.535 47.915 271.935 47.775 272.405 47.775C273.025 47.775 273.49 48.005 273.8 48.465C274.11 48.915 274.265 49.545 274.265 50.355C274.265 51.315 274 52.125 273.47 52.785C272.94 53.445 272.155 53.935 271.115 54.255L270.56 52.965ZM324.555 44.58C324.555 44.33 324.595 44.1 324.675 43.89C324.765 43.67 324.885 43.48 325.035 43.32C325.185 43.16 325.365 43.035 325.575 42.945C325.795 42.855 326.035 42.81 326.295 42.81C326.555 42.81 326.79 42.855 327 42.945C327.22 43.035 327.405 43.16 327.555 43.32C327.705 43.48 327.82 43.67 327.9 43.89C327.99 44.1 328.035 44.33 328.035 44.58C328.035 45.08 327.875 45.5 327.555 45.84C327.235 46.17 326.815 46.335 326.295 46.335C325.775 46.335 325.355 46.17 325.035 45.84C324.715 45.5 324.555 45.08 324.555 44.58ZM324.555 49.425C324.555 49.175 324.595 48.945 324.675 48.735C324.765 48.515 324.885 48.325 325.035 48.165C325.185 48.005 325.365 47.88 325.575 47.79C325.795 47.7 326.035 47.655 326.295 47.655C326.555 47.655 326.79 47.7 327 47.79C327.22 47.88 327.405 48.005 327.555 48.165C327.705 48.325 327.82 48.515 327.9 48.735C327.99 48.945 328.035 49.175 328.035 49.425C328.035 49.925 327.875 50.345 327.555 50.685C327.235 51.015 326.815 51.18 326.295 51.18C325.775 51.18 325.355 51.015 325.035 50.685C324.715 50.345 324.555 49.925 324.555 49.425ZM369.496 52.965C370.796 52.515 371.446 51.805 371.446 50.835C371.406 50.845 371.351 50.85 371.281 50.85C371.071 50.85 370.866 50.82 370.666 50.76C370.476 50.69 370.306 50.59 370.156 50.46C370.006 50.33 369.886 50.17 369.796 49.98C369.706 49.79 369.661 49.57 369.661 49.32C369.661 48.85 369.821 48.475 370.141 48.195C370.471 47.915 370.871 47.775 371.341 47.775C371.961 47.775 372.426 48.005 372.736 48.465C373.046 48.915 373.201 49.545 373.201 50.355C373.201 51.315 372.936 52.125 372.406 52.785C371.876 53.445 371.091 53.935 370.051 54.255L369.496 52.965ZM432.485 44.58C432.485 44.33 432.525 44.1 432.605 43.89C432.695 43.67 432.815 43.48 432.965 43.32C433.115 43.16 433.295 43.035 433.505 42.945C433.725 42.855 433.965 42.81 434.225 42.81C434.485 42.81 434.72 42.855 434.93 42.945C435.15 43.035 435.335 43.16 435.485 43.32C435.635 43.48 435.75 43.67 435.83 43.89C435.92 44.1 435.965 44.33 435.965 44.58C435.965 45.08 435.805 45.5 435.485 45.84C435.165 46.17 434.745 46.335 434.225 46.335C433.705 46.335 433.285 46.17 432.965 45.84C432.645 45.5 432.485 45.08 432.485 44.58ZM432.485 49.425C432.485 49.175 432.525 48.945 432.605 48.735C432.695 48.515 432.815 48.325 432.965 48.165C433.115 48.005 433.295 47.88 433.505 47.79C433.725 47.7 433.965 47.655 434.225 47.655C434.485 47.655 434.72 47.7 434.93 47.79C435.15 47.88 435.335 48.005 435.485 48.165C435.635 48.325 435.75 48.515 435.83 48.735C435.92 48.945 435.965 49.175 435.965 49.425C435.965 49.925 435.805 50.345 435.485 50.685C435.165 51.015 434.745 51.18 434.225 51.18C433.705 51.18 433.285 51.015 432.965 50.685C432.645 50.345 432.485 49.925 432.485 49.425ZM486.42 52.965C487.72 52.515 488.37 51.805 488.37 50.835C488.33 50.845 488.275 50.85 488.205 50.85C487.995 50.85 487.79 50.82 487.59 50.76C487.4 50.69 487.23 50.59 487.08 50.46C486.93 50.33 486.81 50.17 486.72 49.98C486.63 49.79 486.585 49.57 486.585 49.32C486.585 48.85 486.745 48.475 487.065 48.195C487.395 47.915 487.795 47.775 488.265 47.775C488.885 47.775 489.35 48.005 489.66 48.465C489.97 48.915 490.125 49.545 490.125 50.355C490.125 51.315 489.86 52.125 489.33 52.785C488.8 53.445 488.015 53.935 486.975 54.255L486.42 52.965ZM549.409 44.58C549.409 44.33 549.449 44.1 549.529 43.89C549.619 43.67 549.739 43.48 549.889 43.32C550.039 43.16 550.219 43.035 550.429 42.945C550.649 42.855 550.889 42.81 551.149 42.81C551.409 42.81 551.644 42.855 551.854 42.945C552.074 43.035 552.259 43.16 552.409 43.32C552.559 43.48 552.674 43.67 552.754 43.89C552.844 44.1 552.889 44.33 552.889 44.58C552.889 45.08 552.729 45.5 552.409 45.84C552.089 46.17 551.669 46.335 551.149 46.335C550.629 46.335 550.209 46.17 549.889 45.84C549.569 45.5 549.409 45.08 549.409 44.58ZM549.409 49.425C549.409 49.175 549.449 48.945 549.529 48.735C549.619 48.515 549.739 48.325 549.889 48.165C550.039 48.005 550.219 47.88 550.429 47.79C550.649 47.7 550.889 47.655 551.149 47.655C551.409 47.655 551.644 47.7 551.854 47.79C552.074 47.88 552.259 48.005 552.409 48.165C552.559 48.325 552.674 48.515 552.754 48.735C552.844 48.945 552.889 49.175 552.889 49.425C552.889 49.925 552.729 50.345 552.409 50.685C552.089 51.015 551.669 51.18 551.149 51.18C550.629 51.18 550.209 51.015 549.889 50.685C549.569 50.345 549.409 49.925 549.409 49.425ZM593.81 52.11C594.12 52.11 594.37 52.095 594.56 52.065C594.76 52.035 594.915 51.98 595.025 51.9C595.135 51.82 595.21 51.71 595.25 51.57C595.3 51.44 595.325 51.27 595.325 51.06C595.325 50.65 595.315 50.255 595.295 49.875C595.275 49.495 595.265 49.075 595.265 48.615C595.265 48.045 595.38 47.635 595.61 47.385C595.84 47.125 596.225 46.95 596.765 46.86V46.8C596.225 46.71 595.84 46.54 595.61 46.29C595.38 46.03 595.265 45.615 595.265 45.045C595.265 44.595 595.275 44.175 595.295 43.785C595.315 43.395 595.325 43 595.325 42.6C595.325 42.39 595.3 42.22 595.25 42.09C595.21 41.95 595.135 41.84 595.025 41.76C594.915 41.68 594.76 41.625 594.56 41.595C594.37 41.565 594.12 41.55 593.81 41.55H593.195V40.38H594.35C595.31 40.38 596.015 40.535 596.465 40.845C596.915 41.145 597.14 41.7 597.14 42.51C597.14 42.77 597.13 43.01 597.11 43.23C597.1 43.44 597.08 43.645 597.05 43.845C597.03 44.035 597.01 44.23 596.99 44.43C596.98 44.63 596.975 44.845 596.975 45.075C596.975 45.205 597.005 45.335 597.065 45.465C597.125 45.595 597.235 45.715 597.395 45.825C597.555 45.925 597.765 46.01 598.025 46.08C598.295 46.14 598.635 46.175 599.045 46.185V47.475C598.635 47.485 598.295 47.525 598.025 47.595C597.765 47.655 597.555 47.74 597.395 47.85C597.235 47.95 597.125 48.065 597.065 48.195C597.005 48.325 596.975 48.455 596.975 48.585C596.975 48.825 596.98 49.045 596.99 49.245C597.01 49.435 597.03 49.63 597.05 49.83C597.08 50.02 597.1 50.22 597.11 50.43C597.13 50.64 597.14 50.88 597.14 51.15C597.14 51.96 596.915 52.515 596.465 52.815C596.015 53.125 595.31 53.28 594.35 53.28H593.195V52.11H593.81ZM57.8511 72.685C56.8711 71.815 56.0961 70.81 55.5261 69.67C54.9661 68.53 54.6861 67.25 54.6861 65.83C54.6861 64.41 54.9661 63.13 55.5261 61.99C56.0961 60.85 56.8711 59.845 57.8511 58.975L59.0811 59.95C58.1911 60.82 57.5411 61.725 57.1311 62.665C56.7311 63.595 56.5311 64.65 56.5311 65.83C56.5311 66.42 56.5811 66.98 56.6811 67.51C56.7811 68.03 56.9311 68.53 57.1311 69.01C57.3411 69.49 57.6061 69.95 57.9261 70.39C58.2461 70.84 58.6311 71.28 59.0811 71.71L57.8511 72.685ZM61.9702 66.28C61.9702 65.66 62.0852 65.11 62.3152 64.63C62.5552 64.14 62.8702 63.73 63.2602 63.4C63.6602 63.07 64.1202 62.82 64.6402 62.65C65.1602 62.47 65.7052 62.38 66.2752 62.38C66.8652 62.38 67.3952 62.475 67.8652 62.665C68.3452 62.855 68.7452 63.095 69.0652 63.385L68.0452 64.75C67.4952 64.36 66.9452 64.165 66.3952 64.165C65.7552 64.165 65.2352 64.355 64.8352 64.735C64.4352 65.115 64.2352 65.63 64.2352 66.28C64.2352 66.93 64.4252 67.445 64.8052 67.825C65.1952 68.205 65.7002 68.395 66.3202 68.395C66.7102 68.395 67.0702 68.325 67.4002 68.185C67.7302 68.045 68.0252 67.88 68.2852 67.69L69.1852 69.085C68.7352 69.465 68.2352 69.745 67.6852 69.925C67.1452 70.095 66.6202 70.18 66.1102 70.18C65.5202 70.18 64.9752 70.095 64.4752 69.925C63.9752 69.745 63.5352 69.49 63.1552 69.16C62.7852 68.83 62.4952 68.425 62.2852 67.945C62.0752 67.455 61.9702 66.9 61.9702 66.28ZM70.6644 66.28C70.6644 65.66 70.7694 65.11 70.9794 64.63C71.1894 64.14 71.4694 63.73 71.8194 63.4C72.1794 63.07 72.5844 62.82 73.0344 62.65C73.4944 62.47 73.9694 62.38 74.4594 62.38C74.9494 62.38 75.4194 62.47 75.8694 62.65C76.3294 62.82 76.7344 63.07 77.0844 63.4C77.4444 63.73 77.7294 64.14 77.9394 64.63C78.1494 65.11 78.2544 65.66 78.2544 66.28C78.2544 66.9 78.1494 67.455 77.9394 67.945C77.7294 68.425 77.4444 68.83 77.0844 69.16C76.7344 69.49 76.3294 69.745 75.8694 69.925C75.4194 70.095 74.9494 70.18 74.4594 70.18C73.9694 70.18 73.4944 70.095 73.0344 69.925C72.5844 69.745 72.1794 69.49 71.8194 69.16C71.4694 68.83 71.1894 68.425 70.9794 67.945C70.7694 67.455 70.6644 66.9 70.6644 66.28ZM72.9294 66.28C72.9294 66.93 73.0544 67.445 73.3044 67.825C73.5644 68.205 73.9494 68.395 74.4594 68.395C74.9694 68.395 75.3494 68.205 75.5994 67.825C75.8594 67.445 75.9894 66.93 75.9894 66.28C75.9894 65.63 75.8594 65.115 75.5994 64.735C75.3494 64.355 74.9694 64.165 74.4594 64.165C73.9494 64.165 73.5644 64.355 73.3044 64.735C73.0544 65.115 72.9294 65.63 72.9294 66.28ZM80.0335 62.56H81.8335L81.9985 63.55H82.0585C82.3785 63.23 82.7435 62.955 83.1535 62.725C83.5735 62.495 84.0635 62.38 84.6235 62.38C85.4635 62.38 86.0785 62.65 86.4685 63.19C86.8585 63.73 87.0535 64.47 87.0535 65.41V70H84.8485V65.695C84.8485 65.195 84.7685 64.83 84.6085 64.6C84.4485 64.37 84.1635 64.255 83.7535 64.255C83.4535 64.255 83.1885 64.32 82.9585 64.45C82.7385 64.58 82.4985 64.775 82.2385 65.035V70H80.0335V62.56ZM90.5577 64.285H88.6827V62.65L90.6627 62.56L90.9477 60.58H92.7627V62.56H95.9127V64.285H92.7627V66.895C92.7627 67.465 92.8877 67.87 93.1377 68.11C93.3877 68.34 93.7827 68.455 94.3227 68.455C94.6127 68.455 94.8777 68.43 95.1177 68.38C95.3577 68.33 95.5877 68.265 95.8077 68.185L96.1977 69.775C95.8677 69.875 95.4977 69.965 95.0877 70.045C94.6877 70.135 94.2477 70.18 93.7677 70.18C93.1777 70.18 92.6777 70.1 92.2677 69.94C91.8577 69.78 91.5227 69.56 91.2627 69.28C91.0127 68.99 90.8327 68.645 90.7227 68.245C90.6127 67.845 90.5577 67.4 90.5577 66.91V64.285ZM97.7668 66.28C97.7668 65.67 97.8718 65.125 98.0818 64.645C98.3018 64.165 98.5918 63.76 98.9518 63.43C99.3118 63.09 99.7218 62.83 100.182 62.65C100.652 62.47 101.137 62.38 101.637 62.38C102.207 62.38 102.712 62.47 103.152 62.65C103.592 62.83 103.957 63.08 104.247 63.4C104.537 63.72 104.757 64.1 104.907 64.54C105.057 64.97 105.132 65.44 105.132 65.95C105.132 66.15 105.122 66.34 105.102 66.52C105.082 66.7 105.062 66.835 105.042 66.925H100.032C100.112 67.485 100.352 67.89 100.752 68.14C101.162 68.38 101.642 68.5 102.192 68.5C102.532 68.5 102.852 68.46 103.152 68.38C103.462 68.29 103.782 68.16 104.112 67.99L104.832 69.31C104.412 69.58 103.942 69.795 103.422 69.955C102.902 70.105 102.392 70.18 101.892 70.18C101.312 70.18 100.772 70.095 100.272 69.925C99.7718 69.745 99.3368 69.49 98.9668 69.16C98.5968 68.82 98.3018 68.41 98.0818 67.93C97.8718 67.45 97.7668 66.9 97.7668 66.28ZM103.137 65.47C103.137 65.05 103.022 64.71 102.792 64.45C102.562 64.19 102.192 64.06 101.682 64.06C101.282 64.06 100.927 64.175 100.617 64.405C100.307 64.635 100.102 64.99 100.002 65.47H103.137ZM107.016 62.56H108.816L108.981 63.55H109.041C109.361 63.23 109.726 62.955 110.136 62.725C110.556 62.495 111.046 62.38 111.606 62.38C112.446 62.38 113.061 62.65 113.451 63.19C113.841 63.73 114.036 64.47 114.036 65.41V70H111.831V65.695C111.831 65.195 111.751 64.83 111.591 64.6C111.431 64.37 111.146 64.255 110.736 64.255C110.436 64.255 110.171 64.32 109.941 64.45C109.721 64.58 109.481 64.775 109.221 65.035V70H107.016V62.56ZM117.54 64.285H115.665V62.65L117.645 62.56L117.93 60.58H119.745V62.56H122.895V64.285H119.745V66.895C119.745 67.465 119.87 67.87 120.12 68.11C120.37 68.34 120.765 68.455 121.305 68.455C121.595 68.455 121.86 68.43 122.1 68.38C122.34 68.33 122.57 68.265 122.79 68.185L123.18 69.775C122.85 69.875 122.48 69.965 122.07 70.045C121.67 70.135 121.23 70.18 120.75 70.18C120.16 70.18 119.66 70.1 119.25 69.94C118.84 69.78 118.505 69.56 118.245 69.28C117.995 68.99 117.815 68.645 117.705 68.245C117.595 67.845 117.54 67.4 117.54 66.91V64.285ZM132.024 70.81V72.46H124.824V70.81H132.024ZM134.658 62.56H136.458L136.638 64.18H136.683C137.053 63.57 137.498 63.12 138.018 62.83C138.538 62.53 139.098 62.38 139.698 62.38C140.028 62.38 140.293 62.405 140.493 62.455C140.703 62.505 140.918 62.58 141.138 62.68L140.688 64.525C140.458 64.455 140.248 64.405 140.058 64.375C139.878 64.335 139.648 64.315 139.368 64.315C138.908 64.315 138.453 64.45 138.003 64.72C137.563 64.99 137.183 65.46 136.863 66.13V70H134.658V62.56ZM142.828 67.93C142.828 67.51 142.918 67.145 143.098 66.835C143.278 66.515 143.563 66.245 143.953 66.025C144.353 65.805 144.863 65.63 145.483 65.5C146.103 65.36 146.853 65.265 147.733 65.215C147.693 64.875 147.543 64.61 147.283 64.42C147.033 64.23 146.653 64.135 146.143 64.135C145.783 64.135 145.418 64.2 145.048 64.33C144.688 64.45 144.298 64.615 143.878 64.825L143.098 63.385C143.608 63.095 144.153 62.855 144.733 62.665C145.323 62.475 145.938 62.38 146.578 62.38C147.618 62.38 148.438 62.655 149.038 63.205C149.638 63.755 149.938 64.6 149.938 65.74V70H148.138L147.973 69.16H147.913C147.533 69.45 147.118 69.695 146.668 69.895C146.218 70.085 145.753 70.18 145.273 70.18C144.893 70.18 144.553 70.12 144.253 70C143.953 69.89 143.698 69.735 143.488 69.535C143.278 69.325 143.113 69.085 142.993 68.815C142.883 68.545 142.828 68.25 142.828 67.93ZM144.943 67.765C144.943 68.005 145.033 68.185 145.213 68.305C145.403 68.415 145.658 68.47 145.978 68.47C146.308 68.47 146.618 68.405 146.908 68.275C147.198 68.135 147.473 67.965 147.733 67.765V66.535C147.183 66.565 146.728 66.615 146.368 66.685C146.008 66.755 145.723 66.845 145.513 66.955C145.303 67.055 145.153 67.175 145.063 67.315C144.983 67.455 144.943 67.605 144.943 67.765ZM153.517 64.285H151.642V62.65L153.622 62.56L153.907 60.58H155.722V62.56H158.872V64.285H155.722V66.895C155.722 67.465 155.847 67.87 156.097 68.11C156.347 68.34 156.742 68.455 157.282 68.455C157.572 68.455 157.837 68.43 158.077 68.38C158.317 68.33 158.547 68.265 158.767 68.185L159.157 69.775C158.827 69.875 158.457 69.965 158.047 70.045C157.647 70.135 157.207 70.18 156.727 70.18C156.137 70.18 155.637 70.1 155.227 69.94C154.817 69.78 154.482 69.56 154.222 69.28C153.972 68.99 153.792 68.645 153.682 68.245C153.572 67.845 153.517 67.4 153.517 66.91V64.285ZM161.086 62.56H166.276V70H164.071V64.285H161.086V62.56ZM165.076 61.465C164.646 61.465 164.291 61.345 164.011 61.105C163.741 60.865 163.606 60.54 163.606 60.13C163.606 59.72 163.741 59.39 164.011 59.14C164.291 58.88 164.646 58.75 165.076 58.75C165.506 58.75 165.856 58.88 166.126 59.14C166.406 59.39 166.546 59.72 166.546 60.13C166.546 60.54 166.406 60.865 166.126 61.105C165.856 61.345 165.506 61.465 165.076 61.465ZM169.975 62.56H171.775L171.94 63.55H172C172.32 63.23 172.685 62.955 173.095 62.725C173.515 62.495 174.005 62.38 174.565 62.38C175.405 62.38 176.02 62.65 176.41 63.19C176.8 63.73 176.995 64.47 176.995 65.41V70H174.79V65.695C174.79 65.195 174.71 64.83 174.55 64.6C174.39 64.37 174.105 64.255 173.695 64.255C173.395 64.255 173.13 64.32 172.9 64.45C172.68 64.58 172.44 64.775 172.18 65.035V70H169.975V62.56ZM180.469 70.93C180.469 71.21 180.634 71.42 180.964 71.56C181.304 71.71 181.769 71.785 182.359 71.785C182.959 71.785 183.444 71.695 183.814 71.515C184.184 71.345 184.369 71.13 184.369 70.87C184.369 70.63 184.259 70.47 184.039 70.39C183.819 70.32 183.494 70.285 183.064 70.285H182.134C181.864 70.285 181.639 70.275 181.459 70.255C181.289 70.245 181.134 70.225 180.994 70.195C180.804 70.315 180.669 70.43 180.589 70.54C180.509 70.66 180.469 70.79 180.469 70.93ZM178.669 71.26C178.669 70.65 179.054 70.155 179.824 69.775V69.715C179.624 69.585 179.449 69.42 179.299 69.22C179.149 69.02 179.074 68.76 179.074 68.44C179.074 68.19 179.154 67.94 179.314 67.69C179.484 67.44 179.699 67.225 179.959 67.045V66.985C179.689 66.805 179.459 66.555 179.269 66.235C179.079 65.905 178.984 65.52 178.984 65.08C178.984 64.63 179.069 64.24 179.239 63.91C179.419 63.57 179.654 63.29 179.944 63.07C180.234 62.84 180.569 62.67 180.949 62.56C181.339 62.44 181.744 62.38 182.164 62.38C182.624 62.38 183.034 62.44 183.394 62.56H186.409V64.165H184.894C184.984 64.275 185.064 64.42 185.134 64.6C185.204 64.77 185.239 64.955 185.239 65.155C185.239 65.585 185.159 65.955 184.999 66.265C184.839 66.575 184.619 66.835 184.339 67.045C184.069 67.245 183.744 67.395 183.364 67.495C182.994 67.595 182.594 67.645 182.164 67.645C181.844 67.645 181.504 67.595 181.144 67.495C181.034 67.575 180.949 67.655 180.889 67.735C180.839 67.815 180.814 67.915 180.814 68.035C180.814 68.235 180.914 68.38 181.114 68.47C181.314 68.56 181.634 68.605 182.074 68.605H183.454C184.434 68.605 185.179 68.75 185.689 69.04C186.209 69.33 186.469 69.81 186.469 70.48C186.469 70.87 186.364 71.23 186.154 71.56C185.944 71.89 185.649 72.17 185.269 72.4C184.889 72.64 184.424 72.825 183.874 72.955C183.324 73.095 182.714 73.165 182.044 73.165C181.564 73.165 181.114 73.125 180.694 73.045C180.284 72.975 179.929 72.86 179.629 72.7C179.329 72.55 179.094 72.355 178.924 72.115C178.754 71.875 178.669 71.59 178.669 71.26ZM182.164 66.31C182.474 66.31 182.739 66.21 182.959 66.01C183.189 65.8 183.304 65.49 183.304 65.08C183.304 64.68 183.189 64.38 182.959 64.18C182.739 63.97 182.474 63.865 182.164 63.865C181.854 63.865 181.589 63.97 181.369 64.18C181.159 64.38 181.054 64.68 181.054 65.08C181.054 65.49 181.159 65.8 181.369 66.01C181.589 66.21 181.854 66.31 182.164 66.31ZM188.668 67.66C189.098 67.93 189.528 68.145 189.958 68.305C190.398 68.465 190.868 68.545 191.368 68.545C191.878 68.545 192.243 68.49 192.463 68.38C192.683 68.27 192.793 68.115 192.793 67.915C192.793 67.685 192.608 67.5 192.238 67.36C191.878 67.21 191.398 67.05 190.798 66.88C190.468 66.79 190.143 66.685 189.823 66.565C189.513 66.435 189.233 66.285 188.983 66.115C188.733 65.935 188.528 65.73 188.368 65.5C188.218 65.27 188.143 65.005 188.143 64.705C188.143 64.365 188.223 64.05 188.383 63.76C188.543 63.47 188.768 63.225 189.058 63.025C189.358 62.825 189.718 62.67 190.138 62.56C190.568 62.44 191.048 62.38 191.578 62.38C192.238 62.38 192.838 62.49 193.378 62.71C193.928 62.92 194.398 63.15 194.788 63.4L193.798 64.72C193.458 64.52 193.108 64.355 192.748 64.225C192.388 64.085 192.013 64.015 191.623 64.015C191.153 64.015 190.818 64.065 190.618 64.165C190.428 64.265 190.333 64.41 190.333 64.6C190.333 64.71 190.383 64.81 190.483 64.9C190.583 64.99 190.718 65.07 190.888 65.14C191.058 65.21 191.258 65.28 191.488 65.35C191.728 65.41 191.978 65.475 192.238 65.545C192.608 65.645 192.958 65.76 193.288 65.89C193.618 66.01 193.908 66.155 194.158 66.325C194.408 66.495 194.608 66.7 194.758 66.94C194.908 67.18 194.983 67.46 194.983 67.78C194.983 68.12 194.903 68.435 194.743 68.725C194.583 69.015 194.348 69.27 194.038 69.49C193.738 69.7 193.358 69.87 192.898 70C192.448 70.12 191.923 70.18 191.323 70.18C190.653 70.18 189.998 70.07 189.358 69.85C188.718 69.63 188.158 69.36 187.678 69.04L188.668 67.66ZM197.767 71.71C198.217 71.28 198.602 70.84 198.922 70.39C199.242 69.95 199.502 69.49 199.702 69.01C199.912 68.53 200.067 68.03 200.167 67.51C200.267 66.98 200.317 66.42 200.317 65.83C200.317 64.65 200.112 63.595 199.702 62.665C199.302 61.725 198.657 60.82 197.767 59.95L198.997 58.975C199.977 59.845 200.747 60.85 201.307 61.99C201.877 63.13 202.162 64.41 202.162 65.83C202.162 67.25 201.877 68.53 201.307 69.67C200.747 70.81 199.977 71.815 198.997 72.685L197.767 71.71Z" fill="white"/>
<path d="M181.189 42.9L181.114 40.725H183.664L183.589 42.9L183.064 46.455H181.714L181.189 42.9ZM191.998 47.04V45.435C191.998 45.135 192.003 44.79 192.013 44.4C192.033 44 192.053 43.65 192.073 43.35H192.013C191.853 43.62 191.683 43.89 191.503 44.16C191.323 44.43 191.148 44.7 190.978 44.97L189.538 47.04H191.998ZM195.253 48.72H194.053V51H191.998V48.72H187.408V47.205L191.383 41.475H194.053V47.04H195.253V48.72ZM199.567 46.83H196.927V45.27H199.567V42.51H201.187V45.27H203.827V46.83H201.187V49.59H199.567V46.83ZM208.171 42.9L208.096 40.725H210.646L210.571 42.9L210.046 46.455H208.696L208.171 42.9ZM289.119 42.9L289.044 40.725H291.594L291.519 42.9L290.994 46.455H289.644L289.119 42.9ZM299.043 45.87C299.323 45.87 299.613 45.8 299.913 45.66C300.213 45.52 300.508 45.275 300.798 44.925C300.738 44.555 300.648 44.245 300.528 43.995C300.418 43.735 300.283 43.53 300.123 43.38C299.973 43.22 299.808 43.11 299.628 43.05C299.448 42.98 299.263 42.945 299.073 42.945C298.883 42.945 298.698 42.975 298.518 43.035C298.348 43.095 298.193 43.19 298.053 43.32C297.923 43.44 297.818 43.6 297.738 43.8C297.658 43.99 297.618 44.22 297.618 44.49C297.618 44.98 297.748 45.335 298.008 45.555C298.268 45.765 298.613 45.87 299.043 45.87ZM296.913 48.72C297.113 48.9 297.363 49.06 297.663 49.2C297.963 49.33 298.273 49.395 298.593 49.395C298.883 49.395 299.158 49.345 299.418 49.245C299.688 49.135 299.923 48.965 300.123 48.735C300.333 48.495 300.503 48.185 300.633 47.805C300.763 47.415 300.838 46.94 300.858 46.38C300.508 46.71 300.123 46.97 299.703 47.16C299.293 47.34 298.913 47.43 298.563 47.43C298.143 47.43 297.753 47.37 297.393 47.25C297.033 47.13 296.718 46.95 296.448 46.71C296.188 46.47 295.983 46.165 295.833 45.795C295.683 45.425 295.608 44.99 295.608 44.49C295.608 44 295.698 43.56 295.878 43.17C296.068 42.77 296.318 42.43 296.628 42.15C296.948 41.87 297.313 41.66 297.723 41.52C298.133 41.37 298.568 41.295 299.028 41.295C299.518 41.295 299.993 41.385 300.453 41.565C300.923 41.745 301.338 42.025 301.698 42.405C302.058 42.785 302.343 43.275 302.553 43.875C302.773 44.465 302.883 45.18 302.883 46.02C302.883 46.91 302.768 47.68 302.538 48.33C302.308 48.98 302.003 49.515 301.623 49.935C301.243 50.355 300.803 50.67 300.303 50.88C299.813 51.08 299.308 51.18 298.788 51.18C298.108 51.18 297.513 51.065 297.003 50.835C296.493 50.605 296.073 50.34 295.743 50.04L296.913 48.72ZM307.497 46.83H304.857V45.27H307.497V42.51H309.117V45.27H311.757V46.83H309.117V49.59H307.497V46.83ZM316.101 42.9L316.026 40.725H318.576L318.501 42.9L317.976 46.455H316.626L316.101 42.9ZM388.054 42.9L387.979 40.725H390.529L390.454 42.9L389.929 46.455H388.579L388.054 42.9ZM401.803 49.215V51H394.978V49.215H397.438V43.71H395.473V42.345C396.033 42.245 396.508 42.125 396.898 41.985C397.298 41.845 397.673 41.675 398.023 41.475H399.643V49.215H401.803ZM403.613 49.74C404.293 49.17 404.913 48.64 405.473 48.15C406.033 47.65 406.513 47.185 406.913 46.755C407.313 46.325 407.623 45.92 407.843 45.54C408.063 45.16 408.173 44.8 408.173 44.46C408.173 43.99 408.038 43.635 407.768 43.395C407.498 43.145 407.113 43.02 406.613 43.02C406.233 43.02 405.883 43.12 405.563 43.32C405.253 43.51 404.963 43.735 404.693 43.995L403.508 42.81C403.758 42.56 404.003 42.34 404.243 42.15C404.493 41.96 404.753 41.805 405.023 41.685C405.303 41.555 405.593 41.46 405.893 41.4C406.203 41.33 406.543 41.295 406.913 41.295C407.413 41.295 407.868 41.37 408.278 41.52C408.688 41.66 409.038 41.865 409.328 42.135C409.628 42.395 409.858 42.71 410.018 43.08C410.188 43.45 410.273 43.865 410.273 44.325C410.273 44.725 410.178 45.135 409.988 45.555C409.798 45.965 409.538 46.38 409.208 46.8C408.888 47.21 408.518 47.625 408.098 48.045C407.678 48.455 407.238 48.86 406.778 49.26C407.048 49.23 407.338 49.205 407.648 49.185C407.968 49.155 408.253 49.14 408.503 49.14H410.768V51H403.613V49.74ZM415.427 46.83H412.787V45.27H415.427V42.51H417.047V45.27H419.687V46.83H417.047V49.59H415.427V46.83ZM424.031 42.9L423.956 40.725H426.506L426.431 42.9L425.906 46.455H424.556L424.031 42.9ZM504.978 42.9L504.903 40.725H507.453L507.378 42.9L506.853 46.455H505.503L504.978 42.9ZM518.727 49.215V51H511.902V49.215H514.362V43.71H512.397V42.345C512.957 42.245 513.432 42.125 513.822 41.985C514.222 41.845 514.597 41.675 514.947 41.475H516.567V49.215H518.727ZM522.561 51C522.601 50.21 522.676 49.485 522.786 48.825C522.906 48.155 523.071 47.52 523.281 46.92C523.501 46.31 523.781 45.72 524.121 45.15C524.461 44.57 524.881 43.965 525.381 43.335H520.596V41.475H527.751V42.825C527.151 43.495 526.666 44.125 526.296 44.715C525.926 45.295 525.636 45.9 525.426 46.53C525.216 47.15 525.066 47.82 524.976 48.54C524.886 49.25 524.821 50.07 524.781 51H522.561ZM532.351 46.83H529.711V45.27H532.351V42.51H533.971V45.27H536.611V46.83H533.971V49.59H532.351V46.83ZM540.955 42.9L540.88 40.725H543.43L543.355 42.9L542.83 46.455H541.48L540.955 42.9Z" fill="#009E73"/>
<path d="M236.969 47.04V45.435C236.969 45.135 236.974 44.79 236.984 44.4C237.004 44 237.024 43.65 237.044 43.35H236.984C236.824 43.62 236.654 43.89 236.474 44.16C236.294 44.43 236.119 44.7 235.949 44.97L234.509 47.04H236.969ZM240.224 48.72H239.024V51H236.969V48.72H232.379V47.205L236.354 41.475H239.024V47.04H240.224V48.72ZM245.963 47.04V45.435C245.963 45.135 245.968 44.79 245.978 44.4C245.998 44 246.018 43.65 246.038 43.35H245.978C245.818 43.62 245.648 43.89 245.468 44.16C245.288 44.43 245.113 44.7 244.943 44.97L243.503 47.04H245.963ZM249.218 48.72H248.018V51H245.963V48.72H241.373V47.205L245.348 41.475H248.018V47.04H249.218V48.72ZM251.492 48.435C251.812 48.715 252.167 48.945 252.557 49.125C252.957 49.305 253.377 49.395 253.817 49.395C254.337 49.395 254.762 49.3 255.092 49.11C255.432 48.91 255.602 48.63 255.602 48.27C255.602 48.06 255.557 47.87 255.467 47.7C255.377 47.53 255.222 47.39 255.002 47.28C254.782 47.16 254.487 47.07 254.117 47.01C253.747 46.94 253.282 46.905 252.722 46.905V45.345C253.662 45.345 254.322 45.23 254.702 45C255.092 44.76 255.287 44.45 255.287 44.07C255.287 43.74 255.162 43.485 254.912 43.305C254.662 43.115 254.317 43.02 253.877 43.02C253.497 43.02 253.147 43.095 252.827 43.245C252.507 43.395 252.182 43.6 251.852 43.86L250.742 42.51C251.212 42.13 251.712 41.835 252.242 41.625C252.782 41.405 253.362 41.295 253.982 41.295C254.502 41.295 254.977 41.355 255.407 41.475C255.837 41.585 256.207 41.755 256.517 41.985C256.827 42.205 257.067 42.475 257.237 42.795C257.407 43.115 257.492 43.485 257.492 43.905C257.492 44.405 257.332 44.83 257.012 45.18C256.692 45.52 256.247 45.8 255.677 46.02V46.08C256.277 46.24 256.782 46.515 257.192 46.905C257.602 47.285 257.807 47.785 257.807 48.405C257.807 48.845 257.702 49.24 257.492 49.59C257.292 49.93 257.017 50.22 256.667 50.46C256.327 50.69 255.927 50.87 255.467 51C255.007 51.12 254.527 51.18 254.027 51.18C253.207 51.18 252.502 51.06 251.912 50.82C251.322 50.57 250.842 50.24 250.472 49.83L251.492 48.435ZM260.486 48.435C260.806 48.715 261.161 48.945 261.551 49.125C261.951 49.305 262.371 49.395 262.811 49.395C263.331 49.395 263.756 49.3 264.086 49.11C264.426 48.91 264.596 48.63 264.596 48.27C264.596 48.06 264.551 47.87 264.461 47.7C264.371 47.53 264.216 47.39 263.996 47.28C263.776 47.16 263.481 47.07 263.111 47.01C262.741 46.94 262.276 46.905 261.716 46.905V45.345C262.656 45.345 263.316 45.23 263.696 45C264.086 44.76 264.281 44.45 264.281 44.07C264.281 43.74 264.156 43.485 263.906 43.305C263.656 43.115 263.311 43.02 262.871 43.02C262.491 43.02 262.141 43.095 261.821 43.245C261.501 43.395 261.176 43.6 260.846 43.86L259.736 42.51C260.206 42.13 260.706 41.835 261.236 41.625C261.776 41.405 262.356 41.295 262.976 41.295C263.496 41.295 263.971 41.355 264.401 41.475C264.831 41.585 265.201 41.755 265.511 41.985C265.821 42.205 266.061 42.475 266.231 42.795C266.401 43.115 266.486 43.485 266.486 43.905C266.486 44.405 266.326 44.83 266.006 45.18C265.686 45.52 265.241 45.8 264.671 46.02V46.08C265.271 46.24 265.776 46.515 266.186 46.905C266.596 47.285 266.801 47.785 266.801 48.405C266.801 48.845 266.696 49.24 266.486 49.59C266.286 49.93 266.011 50.22 265.661 50.46C265.321 50.69 264.921 50.87 264.461 51C264.001 51.12 263.521 51.18 263.021 51.18C262.201 51.18 261.496 51.06 260.906 50.82C260.316 50.57 259.836 50.24 259.466 49.83L260.486 48.435ZM344.014 45.87C344.294 45.87 344.584 45.8 344.884 45.66C345.184 45.52 345.479 45.275 345.769 44.925C345.709 44.555 345.619 44.245 345.499 43.995C345.389 43.735 345.254 43.53 345.094 43.38C344.944 43.22 344.779 43.11 344.599 43.05C344.419 42.98 344.234 42.945 344.044 42.945C343.854 42.945 343.669 42.975 343.489 43.035C343.319 43.095 343.164 43.19 343.024 43.32C342.894 43.44 342.789 43.6 342.709 43.8C342.629 43.99 342.589 44.22 342.589 44.49C342.589 44.98 342.719 45.335 342.979 45.555C343.239 45.765 343.584 45.87 344.014 45.87ZM341.884 48.72C342.084 48.9 342.334 49.06 342.634 49.2C342.934 49.33 343.244 49.395 343.564 49.395C343.854 49.395 344.129 49.345 344.389 49.245C344.659 49.135 344.894 48.965 345.094 48.735C345.304 48.495 345.474 48.185 345.604 47.805C345.734 47.415 345.809 46.94 345.829 46.38C345.479 46.71 345.094 46.97 344.674 47.16C344.264 47.34 343.884 47.43 343.534 47.43C343.114 47.43 342.724 47.37 342.364 47.25C342.004 47.13 341.689 46.95 341.419 46.71C341.159 46.47 340.954 46.165 340.804 45.795C340.654 45.425 340.579 44.99 340.579 44.49C340.579 44 340.669 43.56 340.849 43.17C341.039 42.77 341.289 42.43 341.599 42.15C341.919 41.87 342.284 41.66 342.694 41.52C343.104 41.37 343.539 41.295 343.999 41.295C344.489 41.295 344.964 41.385 345.424 41.565C345.894 41.745 346.309 42.025 346.669 42.405C347.029 42.785 347.314 43.275 347.524 43.875C347.744 44.465 347.854 45.18 347.854 46.02C347.854 46.91 347.739 47.68 347.509 48.33C347.279 48.98 346.974 49.515 346.594 49.935C346.214 50.355 345.774 50.67 345.274 50.88C344.784 51.08 344.279 51.18 343.759 51.18C343.079 51.18 342.484 51.065 341.974 50.835C341.464 50.605 341.044 50.34 340.714 50.04L341.884 48.72ZM351.598 48.315C351.598 48.735 351.763 49.065 352.093 49.305C352.423 49.535 352.833 49.65 353.323 49.65C353.773 49.65 354.133 49.555 354.403 49.365C354.683 49.165 354.823 48.865 354.823 48.465C354.823 48.245 354.768 48.06 354.658 47.91C354.548 47.76 354.388 47.625 354.178 47.505C353.978 47.375 353.738 47.26 353.458 47.16C353.178 47.05 352.868 46.93 352.528 46.8C352.258 47 352.033 47.225 351.853 47.475C351.683 47.725 351.598 48.005 351.598 48.315ZM353.923 45.45C354.403 45.02 354.643 44.555 354.643 44.055C354.643 43.685 354.528 43.39 354.298 43.17C354.068 42.94 353.733 42.825 353.293 42.825C352.943 42.825 352.643 42.915 352.393 43.095C352.153 43.275 352.033 43.55 352.033 43.92C352.033 44.31 352.208 44.615 352.558 44.835C352.908 45.055 353.363 45.26 353.923 45.45ZM349.693 48.57C349.693 48.28 349.738 48.02 349.828 47.79C349.928 47.55 350.058 47.335 350.218 47.145C350.388 46.955 350.578 46.785 350.788 46.635C351.008 46.485 351.243 46.35 351.493 46.23V46.17C351.093 45.89 350.758 45.575 350.488 45.225C350.228 44.865 350.098 44.43 350.098 43.92C350.098 43.52 350.178 43.16 350.338 42.84C350.498 42.51 350.718 42.23 350.998 42C351.288 41.77 351.633 41.595 352.033 41.475C352.433 41.355 352.868 41.295 353.338 41.295C353.818 41.295 354.248 41.36 354.628 41.49C355.018 41.61 355.348 41.785 355.618 42.015C355.888 42.235 356.093 42.51 356.233 42.84C356.383 43.16 356.458 43.515 356.458 43.905C356.458 44.355 356.323 44.755 356.053 45.105C355.793 45.455 355.473 45.75 355.093 45.99V46.05C355.343 46.17 355.578 46.31 355.798 46.47C356.018 46.62 356.208 46.795 356.368 46.995C356.528 47.195 356.653 47.425 356.743 47.685C356.833 47.935 356.878 48.22 356.878 48.54C356.878 48.92 356.798 49.27 356.638 49.59C356.478 49.91 356.243 50.19 355.933 50.43C355.633 50.66 355.258 50.845 354.808 50.985C354.358 51.115 353.843 51.18 353.263 51.18C352.713 51.18 352.218 51.12 351.778 51C351.338 50.87 350.963 50.69 350.653 50.46C350.343 50.23 350.103 49.955 349.933 49.635C349.773 49.315 349.693 48.96 349.693 48.57ZM360.667 51C360.707 50.21 360.782 49.485 360.892 48.825C361.012 48.155 361.177 47.52 361.387 46.92C361.607 46.31 361.887 45.72 362.227 45.15C362.567 44.57 362.987 43.965 363.487 43.335H358.702V41.475H365.857V42.825C365.257 43.495 364.772 44.125 364.402 44.715C364.032 45.295 363.742 45.9 363.532 46.53C363.322 47.15 363.172 47.82 363.082 48.54C362.992 49.25 362.927 50.07 362.887 51H360.667ZM455.768 49.215V51H448.943V49.215H451.403V43.71H449.438V42.345C449.998 42.245 450.473 42.125 450.863 41.985C451.263 41.845 451.638 41.675 451.988 41.475H453.608V49.215H455.768ZM464.762 49.215V51H457.937V49.215H460.397V43.71H458.432V42.345C458.992 42.245 459.467 42.125 459.857 41.985C460.257 41.845 460.632 41.675 460.982 41.475H462.602V49.215H464.762ZM467.382 48.45C467.702 48.71 468.042 48.935 468.402 49.125C468.772 49.305 469.182 49.395 469.632 49.395C470.172 49.395 470.612 49.27 470.952 49.02C471.302 48.77 471.477 48.4 471.477 47.91C471.477 47.43 471.312 47.065 470.982 46.815C470.662 46.565 470.247 46.44 469.737 46.44C469.577 46.44 469.432 46.45 469.302 46.47C469.182 46.48 469.062 46.505 468.942 46.545C468.822 46.585 468.697 46.635 468.567 46.695C468.437 46.755 468.292 46.83 468.132 46.92L467.157 46.29L467.412 41.475H473.247V43.335H469.317L469.152 45.12C469.372 45.04 469.577 44.985 469.767 44.955C469.957 44.915 470.172 44.895 470.412 44.895C470.852 44.895 471.267 44.955 471.657 45.075C472.057 45.195 472.407 45.375 472.707 45.615C473.007 45.855 473.242 46.16 473.412 46.53C473.592 46.9 473.682 47.34 473.682 47.85C473.682 48.38 473.577 48.85 473.367 49.26C473.167 49.67 472.892 50.02 472.542 50.31C472.202 50.59 471.807 50.805 471.357 50.955C470.907 51.105 470.437 51.18 469.947 51.18C469.117 51.18 468.412 51.055 467.832 50.805C467.262 50.545 466.782 50.225 466.392 49.845L467.382 48.45ZM476.376 48.45C476.696 48.71 477.036 48.935 477.396 49.125C477.766 49.305 478.176 49.395 478.626 49.395C479.166 49.395 479.606 49.27 479.946 49.02C480.296 48.77 480.471 48.4 480.471 47.91C480.471 47.43 480.306 47.065 479.976 46.815C479.656 46.565 479.241 46.44 478.731 46.44C478.571 46.44 478.426 46.45 478.296 46.47C478.176 46.48 478.056 46.505 477.936 46.545C477.816 46.585 477.691 46.635 477.561 46.695C477.431 46.755 477.286 46.83 477.126 46.92L476.151 46.29L476.406 41.475H482.241V43.335H478.311L478.146 45.12C478.366 45.04 478.571 44.985 478.761 44.955C478.951 44.915 479.166 44.895 479.406 44.895C479.846 44.895 480.261 44.955 480.651 45.075C481.051 45.195 481.401 45.375 481.701 45.615C482.001 45.855 482.236 46.16 482.406 46.53C482.586 46.9 482.676 47.34 482.676 47.85C482.676 48.38 482.571 48.85 482.361 49.26C482.161 49.67 481.886 50.02 481.536 50.31C481.196 50.59 480.801 50.805 480.351 50.955C479.901 51.105 479.431 51.18 478.941 51.18C478.111 51.18 477.406 51.055 476.826 50.805C476.256 50.545 475.776 50.225 475.386 49.845L476.376 48.45ZM569.347 49.53C569.537 49.53 569.717 49.5 569.887 49.44C570.067 49.38 570.222 49.29 570.352 49.17C570.492 49.04 570.602 48.88 570.682 48.69C570.762 48.49 570.802 48.255 570.802 47.985C570.802 47.495 570.672 47.145 570.412 46.935C570.152 46.715 569.812 46.605 569.392 46.605C569.112 46.605 568.822 46.675 568.522 46.815C568.222 46.955 567.927 47.195 567.637 47.535C567.697 47.915 567.782 48.235 567.892 48.495C568.012 48.745 568.147 48.95 568.297 49.11C568.447 49.26 568.612 49.37 568.792 49.44C568.972 49.5 569.157 49.53 569.347 49.53ZM571.522 43.755C571.322 43.575 571.072 43.42 570.772 43.29C570.472 43.15 570.162 43.08 569.842 43.08C569.552 43.08 569.272 43.135 569.002 43.245C568.742 43.345 568.507 43.515 568.297 43.755C568.097 43.985 567.932 44.29 567.802 44.67C567.672 45.05 567.597 45.52 567.577 46.08C567.917 45.75 568.292 45.495 568.702 45.315C569.122 45.135 569.512 45.045 569.872 45.045C570.292 45.045 570.677 45.105 571.027 45.225C571.387 45.345 571.697 45.525 571.957 45.765C572.227 46.005 572.437 46.31 572.587 46.68C572.737 47.05 572.812 47.485 572.812 47.985C572.812 48.485 572.717 48.93 572.527 49.32C572.347 49.71 572.097 50.045 571.777 50.325C571.467 50.605 571.107 50.82 570.697 50.97C570.287 51.11 569.852 51.18 569.392 51.18C568.902 51.18 568.427 51.09 567.967 50.91C567.507 50.73 567.097 50.45 566.737 50.07C566.377 49.69 566.087 49.205 565.867 48.615C565.647 48.015 565.537 47.295 565.537 46.455C565.537 45.565 565.652 44.795 565.882 44.145C566.112 43.495 566.417 42.96 566.797 42.54C567.187 42.12 567.627 41.81 568.117 41.61C568.607 41.4 569.117 41.295 569.647 41.295C570.327 41.295 570.922 41.41 571.432 41.64C571.942 41.86 572.357 42.125 572.677 42.435L571.522 43.755ZM574.501 49.74C575.181 49.17 575.801 48.64 576.361 48.15C576.921 47.65 577.401 47.185 577.801 46.755C578.201 46.325 578.511 45.92 578.731 45.54C578.951 45.16 579.061 44.8 579.061 44.46C579.061 43.99 578.926 43.635 578.656 43.395C578.386 43.145 578.001 43.02 577.501 43.02C577.121 43.02 576.771 43.12 576.451 43.32C576.141 43.51 575.851 43.735 575.581 43.995L574.396 42.81C574.646 42.56 574.891 42.34 575.131 42.15C575.381 41.96 575.641 41.805 575.911 41.685C576.191 41.555 576.481 41.46 576.781 41.4C577.091 41.33 577.431 41.295 577.801 41.295C578.301 41.295 578.756 41.37 579.166 41.52C579.576 41.66 579.926 41.865 580.216 42.135C580.516 42.395 580.746 42.71 580.906 43.08C581.076 43.45 581.161 43.865 581.161 44.325C581.161 44.725 581.066 45.135 580.876 45.555C580.686 45.965 580.426 46.38 580.096 46.8C579.776 47.21 579.406 47.625 578.986 48.045C578.566 48.455 578.126 48.86 577.666 49.26C577.936 49.23 578.226 49.205 578.536 49.185C578.856 49.155 579.141 49.14 579.391 49.14H581.656V51H574.501V49.74ZM583.495 49.74C584.175 49.17 584.795 48.64 585.355 48.15C585.915 47.65 586.395 47.185 586.795 46.755C587.195 46.325 587.505 45.92 587.725 45.54C587.945 45.16 588.055 44.8 588.055 44.46C588.055 43.99 587.92 43.635 587.65 43.395C587.38 43.145 586.995 43.02 586.495 43.02C586.115 43.02 585.765 43.12 585.445 43.32C585.135 43.51 584.845 43.735 584.575 43.995L583.39 42.81C583.64 42.56 583.885 42.34 584.125 42.15C584.375 41.96 584.635 41.805 584.905 41.685C585.185 41.555 585.475 41.46 585.775 41.4C586.085 41.33 586.425 41.295 586.795 41.295C587.295 41.295 587.75 41.37 588.16 41.52C588.57 41.66 588.92 41.865 589.21 42.135C589.51 42.395 589.74 42.71 589.9 43.08C590.07 43.45 590.155 43.865 590.155 44.325C590.155 44.725 590.06 45.135 589.87 45.555C589.68 45.965 589.42 46.38 589.09 46.8C588.77 47.21 588.4 47.625 587.98 48.045C587.56 48.455 587.12 48.86 586.66 49.26C586.93 49.23 587.22 49.205 587.53 49.185C587.85 49.155 588.135 49.14 588.385 49.14H590.65V51H583.495V49.74Z" fill="#F0E442"/>
<path d="M10.2854 70.585V72.76H8.0804V62.56H9.8804L10.0454 63.31H10.0904C10.3904 63.04 10.7354 62.82 11.1254 62.65C11.5154 62.47 11.9104 62.38 12.3104 62.38C12.7704 62.38 13.1854 62.47 13.5554 62.65C13.9254 62.83 14.2404 63.085 14.5004 63.415C14.7604 63.745 14.9554 64.145 15.0854 64.615C15.2254 65.075 15.2954 65.59 15.2954 66.16C15.2954 66.8 15.2054 67.37 15.0254 67.87C14.8454 68.36 14.6054 68.78 14.3054 69.13C14.0054 69.47 13.6604 69.73 13.2704 69.91C12.8904 70.09 12.4904 70.18 12.0704 70.18C11.3904 70.18 10.7704 69.91 10.2104 69.37L10.2854 70.585ZM10.2854 67.885C10.4954 68.065 10.7104 68.195 10.9304 68.275C11.1604 68.345 11.3704 68.38 11.5604 68.38C11.9804 68.38 12.3304 68.21 12.6104 67.87C12.8904 67.52 13.0304 66.96 13.0304 66.19C13.0304 64.85 12.5754 64.18 11.6654 64.18C11.1954 64.18 10.7354 64.41 10.2854 64.87V67.885ZM17.7345 62.56H19.5345L19.7145 64.18H19.7595C20.1295 63.57 20.5745 63.12 21.0945 62.83C21.6145 62.53 22.1745 62.38 22.7745 62.38C23.1045 62.38 23.3695 62.405 23.5695 62.455C23.7795 62.505 23.9945 62.58 24.2145 62.68L23.7645 64.525C23.5345 64.455 23.3245 64.405 23.1345 64.375C22.9545 64.335 22.7245 64.315 22.4445 64.315C21.9845 64.315 21.5295 64.45 21.0795 64.72C20.6395 64.99 20.2595 65.46 19.9395 66.13V70H17.7345V62.56ZM26.1737 62.56H31.3637V70H29.1587V64.285H26.1737V62.56ZM30.1637 61.465C29.7337 61.465 29.3787 61.345 29.0987 61.105C28.8287 60.865 28.6937 60.54 28.6937 60.13C28.6937 59.72 28.8287 59.39 29.0987 59.14C29.3787 58.88 29.7337 58.75 30.1637 58.75C30.5937 58.75 30.9437 58.88 31.2137 59.14C31.4937 59.39 31.6337 59.72 31.6337 60.13C31.6337 60.54 31.4937 60.865 31.2137 61.105C30.9437 61.345 30.5937 61.465 30.1637 61.465ZM35.0628 62.56H36.8628L37.0278 63.55H37.0878C37.4078 63.23 37.7728 62.955 38.1828 62.725C38.6028 62.495 39.0928 62.38 39.6528 62.38C40.4928 62.38 41.1078 62.65 41.4978 63.19C41.8878 63.73 42.0828 64.47 42.0828 65.41V70H39.8778V65.695C39.8778 65.195 39.7978 64.83 39.6378 64.6C39.4778 64.37 39.1928 64.255 38.7828 64.255C38.4828 64.255 38.2178 64.32 37.9878 64.45C37.7678 64.58 37.5278 64.775 37.2678 65.035V70H35.0628V62.56ZM45.587 64.285H43.712V62.65L45.692 62.56L45.977 60.58H47.792V62.56H50.942V64.285H47.792V66.895C47.792 67.465 47.917 67.87 48.167 68.11C48.417 68.34 48.812 68.455 49.352 68.455C49.642 68.455 49.907 68.43 50.147 68.38C50.387 68.33 50.617 68.265 50.837 68.185L51.227 69.775C50.897 69.875 50.527 69.965 50.117 70.045C49.717 70.135 49.277 70.18 48.797 70.18C48.207 70.18 47.707 70.1 47.297 69.94C46.887 69.78 46.552 69.56 46.292 69.28C46.042 68.99 45.862 68.645 45.752 68.245C45.642 67.845 45.587 67.4 45.587 66.91V64.285Z" fill="#56B4E9"/>
<line y1="97" x2="610.001" y2="97" stroke="white"/>
<path d="M11.5004 118.18C10.9204 118.18 10.3854 118.065 9.8954 117.835C9.4154 117.595 9.0004 117.255 8.6504 116.815C8.3104 116.375 8.0454 115.84 7.8554 115.21C7.6654 114.58 7.5704 113.865 7.5704 113.065C7.5704 112.265 7.6654 111.555 7.8554 110.935C8.0454 110.305 8.3104 109.78 8.6504 109.36C9.0004 108.93 9.4154 108.605 9.8954 108.385C10.3854 108.155 10.9204 108.04 11.5004 108.04C12.0804 108.04 12.6104 108.155 13.0904 108.385C13.5804 108.605 13.9954 108.93 14.3354 109.36C14.6854 109.79 14.9554 110.32 15.1454 110.95C15.3354 111.57 15.4304 112.275 15.4304 113.065C15.4304 113.865 15.3354 114.58 15.1454 115.21C14.9554 115.84 14.6854 116.375 14.3354 116.815C13.9954 117.255 13.5804 117.595 13.0904 117.835C12.6104 118.065 12.0804 118.18 11.5004 118.18ZM11.5004 116.275C12.0104 116.275 12.4154 115.99 12.7154 115.42C13.0154 114.84 13.1654 114.055 13.1654 113.065C13.1654 112.085 13.0154 111.32 12.7154 110.77C12.4154 110.22 12.0104 109.945 11.5004 109.945C10.9904 109.945 10.5854 110.22 10.2854 110.77C9.9854 111.32 9.8354 112.085 9.8354 113.065C9.8354 114.055 9.9854 114.84 10.2854 115.42C10.5854 115.99 10.9904 116.275 11.5004 116.275ZM23.8695 118H22.0695L21.9045 116.935H21.8445C21.5145 117.315 21.1495 117.62 20.7495 117.85C20.3495 118.07 19.8795 118.18 19.3395 118.18C18.4895 118.18 17.8745 117.91 17.4945 117.37C17.1145 116.83 16.9245 116.09 16.9245 115.15V110.56H19.1295V114.865C19.1295 115.365 19.2045 115.73 19.3545 115.96C19.5045 116.19 19.7895 116.305 20.2095 116.305C20.4895 116.305 20.7345 116.245 20.9445 116.125C21.1645 116.005 21.4045 115.78 21.6645 115.45V110.56H23.8695V118ZM27.5987 112.285H25.7237V110.65L27.7037 110.56L27.9887 108.58H29.8037V110.56H32.9537V112.285H29.8037V114.895C29.8037 115.465 29.9287 115.87 30.1787 116.11C30.4287 116.34 30.8237 116.455 31.3637 116.455C31.6537 116.455 31.9187 116.43 32.1587 116.38C32.3987 116.33 32.6287 116.265 32.8487 116.185L33.2387 117.775C32.9087 117.875 32.5387 117.965 32.1287 118.045C31.7287 118.135 31.2887 118.18 30.8087 118.18C30.2187 118.18 29.7187 118.1 29.3087 117.94C28.8987 117.78 28.5637 117.56 28.3037 117.28C28.0537 116.99 27.8737 116.645 27.7637 116.245C27.6537 115.845 27.5987 115.4 27.5987 114.91V112.285ZM37.2678 118.585V120.76H35.0628V110.56H36.8628L37.0278 111.31H37.0728C37.3728 111.04 37.7178 110.82 38.1078 110.65C38.4978 110.47 38.8928 110.38 39.2928 110.38C39.7528 110.38 40.1678 110.47 40.5378 110.65C40.9078 110.83 41.2228 111.085 41.4828 111.415C41.7428 111.745 41.9378 112.145 42.0678 112.615C42.2078 113.075 42.2778 113.59 42.2778 114.16C42.2778 114.8 42.1878 115.37 42.0078 115.87C41.8278 116.36 41.5878 116.78 41.2878 117.13C40.9878 117.47 40.6428 117.73 40.2528 117.91C39.8728 118.09 39.4728 118.18 39.0528 118.18C38.3728 118.18 37.7528 117.91 37.1928 117.37L37.2678 118.585ZM37.2678 115.885C37.4778 116.065 37.6928 116.195 37.9128 116.275C38.1428 116.345 38.3528 116.38 38.5428 116.38C38.9628 116.38 39.3128 116.21 39.5928 115.87C39.8728 115.52 40.0128 114.96 40.0128 114.19C40.0128 112.85 39.5578 112.18 38.6478 112.18C38.1778 112.18 37.7178 112.41 37.2678 112.87V115.885ZM50.852 118H49.052L48.887 116.935H48.827C48.497 117.315 48.132 117.62 47.732 117.85C47.332 118.07 46.862 118.18 46.322 118.18C45.472 118.18 44.857 117.91 44.477 117.37C44.097 116.83 43.907 116.09 43.907 115.15V110.56H46.112V114.865C46.112 115.365 46.187 115.73 46.337 115.96C46.487 116.19 46.772 116.305 47.192 116.305C47.472 116.305 47.717 116.245 47.927 116.125C48.147 116.005 48.387 115.78 48.647 115.45V110.56H50.852V118ZM54.5811 112.285H52.7061V110.65L54.6861 110.56L54.9711 108.58H56.7861V110.56H59.9361V112.285H56.7861V114.895C56.7861 115.465 56.9111 115.87 57.1611 116.11C57.4111 116.34 57.8061 116.455 58.3461 116.455C58.6361 116.455 58.9011 116.43 59.1411 116.38C59.3811 116.33 59.6111 116.265 59.8311 116.185L60.2211 117.775C59.8911 117.875 59.5211 117.965 59.1111 118.045C58.7111 118.135 58.2711 118.18 57.7911 118.18C57.2011 118.18 56.7011 118.1 56.2911 117.94C55.8811 117.78 55.5461 117.56 55.2861 117.28C55.0361 116.99 54.8561 116.645 54.7461 116.245C54.6361 115.845 54.5811 115.4 54.5811 114.91V112.285Z" fill="white"/>
<path d="M10.4954 142.15C10.4954 141.88 10.5004 141.64 10.5104 141.43C10.5304 141.22 10.5504 141.02 10.5704 140.83C10.5904 140.63 10.6054 140.435 10.6154 140.245C10.6354 140.045 10.6454 139.825 10.6454 139.585C10.6454 139.455 10.6154 139.325 10.5554 139.195C10.4954 139.065 10.3854 138.95 10.2254 138.85C10.0654 138.74 9.8504 138.655 9.5804 138.595C9.3204 138.525 8.9904 138.485 8.5904 138.475V137.185C8.9904 137.175 9.3204 137.14 9.5804 137.08C9.8504 137.01 10.0654 136.925 10.2254 136.825C10.3854 136.715 10.4954 136.595 10.5554 136.465C10.6154 136.335 10.6454 136.205 10.6454 136.075C10.6454 135.845 10.6354 135.63 10.6154 135.43C10.6054 135.23 10.5904 135.035 10.5704 134.845C10.5504 134.645 10.5304 134.44 10.5104 134.23C10.5004 134.01 10.4954 133.77 10.4954 133.51C10.4954 132.7 10.7204 132.145 11.1704 131.845C11.6204 131.535 12.3254 131.38 13.2854 131.38H14.4404V132.55H13.8254C13.5154 132.55 13.2604 132.565 13.0604 132.595C12.8604 132.625 12.7054 132.68 12.5954 132.76C12.4854 132.84 12.4054 132.95 12.3554 133.09C12.3154 133.22 12.2954 133.39 12.2954 133.6C12.2954 134 12.3054 134.395 12.3254 134.785C12.3554 135.175 12.3704 135.595 12.3704 136.045C12.3704 136.615 12.2554 137.03 12.0254 137.29C11.7954 137.54 11.4104 137.71 10.8704 137.8V137.86C11.4104 137.95 11.7954 138.125 12.0254 138.385C12.2554 138.635 12.3704 139.045 12.3704 139.615C12.3704 140.075 12.3554 140.495 12.3254 140.875C12.3054 141.255 12.2954 141.65 12.2954 142.06C12.2954 142.27 12.3154 142.44 12.3554 142.57C12.4054 142.71 12.4854 142.82 12.5954 142.9C12.7054 142.98 12.8604 143.035 13.0604 143.065C13.2604 143.095 13.5154 143.11 13.8254 143.11H14.4404V144.28H13.2854C12.3254 144.28 11.6204 144.125 11.1704 143.815C10.7204 143.515 10.4954 142.96 10.4954 142.15ZM19.2945 133.9L19.2195 131.725H21.7695L21.6945 133.9L21.1695 137.455H19.8195L19.2945 133.9ZM30.1037 138.04V136.435C30.1037 136.135 30.1087 135.79 30.1187 135.4C30.1387 135 30.1587 134.65 30.1787 134.35H30.1187C29.9587 134.62 29.7887 134.89 29.6087 135.16C29.4287 135.43 29.2537 135.7 29.0837 135.97L27.6437 138.04H30.1037ZM33.3587 139.72H32.1587V142H30.1037V139.72H25.5137V138.205L29.4887 132.475H32.1587V138.04H33.3587V139.72ZM37.6728 137.83H35.0328V136.27H37.6728V133.51H39.2928V136.27H41.9328V137.83H39.2928V140.59H37.6728V137.83ZM46.277 133.9L46.202 131.725H48.752L48.677 133.9L48.152 137.455H46.802L46.277 133.9ZM54.7311 135.58C54.7311 135.33 54.7711 135.1 54.8511 134.89C54.9411 134.67 55.0611 134.48 55.2111 134.32C55.3611 134.16 55.5411 134.035 55.7511 133.945C55.9711 133.855 56.2111 133.81 56.4711 133.81C56.7311 133.81 56.9661 133.855 57.1761 133.945C57.3961 134.035 57.5811 134.16 57.7311 134.32C57.8811 134.48 57.9961 134.67 58.0761 134.89C58.1661 135.1 58.2111 135.33 58.2111 135.58C58.2111 136.08 58.0511 136.5 57.7311 136.84C57.4111 137.17 56.9911 137.335 56.4711 137.335C55.9511 137.335 55.5311 137.17 55.2111 136.84C54.8911 136.5 54.7311 136.08 54.7311 135.58ZM54.7311 140.425C54.7311 140.175 54.7711 139.945 54.8511 139.735C54.9411 139.515 55.0611 139.325 55.2111 139.165C55.3611 139.005 55.5411 138.88 55.7511 138.79C55.9711 138.7 56.2111 138.655 56.4711 138.655C56.7311 138.655 56.9661 138.7 57.1761 138.79C57.3961 138.88 57.5811 139.005 57.7311 139.165C57.8811 139.325 57.9961 139.515 58.0761 139.735C58.1661 139.945 58.2111 140.175 58.2111 140.425C58.2111 140.925 58.0511 141.345 57.7311 141.685C57.4111 142.015 56.9911 142.18 56.4711 142.18C55.9511 142.18 55.5311 142.015 55.2111 141.685C54.8911 141.345 54.7311 140.925 54.7311 140.425ZM75.0744 138.04V136.435C75.0744 136.135 75.0794 135.79 75.0894 135.4C75.1094 135 75.1294 134.65 75.1494 134.35H75.0894C74.9294 134.62 74.7594 134.89 74.5794 135.16C74.3994 135.43 74.2244 135.7 74.0544 135.97L72.6144 138.04H75.0744ZM78.3294 139.72H77.1294V142H75.0744V139.72H70.4844V138.205L74.4594 132.475H77.1294V138.04H78.3294V139.72ZM84.0685 138.04V136.435C84.0685 136.135 84.0735 135.79 84.0835 135.4C84.1035 135 84.1235 134.65 84.1435 134.35H84.0835C83.9235 134.62 83.7535 134.89 83.5735 135.16C83.3935 135.43 83.2185 135.7 83.0485 135.97L81.6085 138.04H84.0685ZM87.3235 139.72H86.1235V142H84.0685V139.72H79.4785V138.205L83.4535 132.475H86.1235V138.04H87.3235V139.72ZM89.5977 139.435C89.9177 139.715 90.2727 139.945 90.6627 140.125C91.0627 140.305 91.4827 140.395 91.9227 140.395C92.4427 140.395 92.8677 140.3 93.1977 140.11C93.5377 139.91 93.7077 139.63 93.7077 139.27C93.7077 139.06 93.6627 138.87 93.5727 138.7C93.4827 138.53 93.3277 138.39 93.1077 138.28C92.8877 138.16 92.5927 138.07 92.2227 138.01C91.8527 137.94 91.3877 137.905 90.8277 137.905V136.345C91.7677 136.345 92.4277 136.23 92.8077 136C93.1977 135.76 93.3927 135.45 93.3927 135.07C93.3927 134.74 93.2677 134.485 93.0177 134.305C92.7677 134.115 92.4227 134.02 91.9827 134.02C91.6027 134.02 91.2527 134.095 90.9327 134.245C90.6127 134.395 90.2877 134.6 89.9577 134.86L88.8477 133.51C89.3177 133.13 89.8177 132.835 90.3477 132.625C90.8877 132.405 91.4677 132.295 92.0877 132.295C92.6077 132.295 93.0827 132.355 93.5127 132.475C93.9427 132.585 94.3127 132.755 94.6227 132.985C94.9327 133.205 95.1727 133.475 95.3427 133.795C95.5127 134.115 95.5977 134.485 95.5977 134.905C95.5977 135.405 95.4377 135.83 95.1177 136.18C94.7977 136.52 94.3527 136.8 93.7827 137.02V137.08C94.3827 137.24 94.8877 137.515 95.2977 137.905C95.7077 138.285 95.9127 138.785 95.9127 139.405C95.9127 139.845 95.8077 140.24 95.5977 140.59C95.3977 140.93 95.1227 141.22 94.7727 141.46C94.4327 141.69 94.0327 141.87 93.5727 142C93.1127 142.12 92.6327 142.18 92.1327 142.18C91.3127 142.18 90.6077 142.06 90.0177 141.82C89.4277 141.57 88.9477 141.24 88.5777 140.83L89.5977 139.435ZM98.5918 139.435C98.9118 139.715 99.2668 139.945 99.6568 140.125C100.057 140.305 100.477 140.395 100.917 140.395C101.437 140.395 101.862 140.3 102.192 140.11C102.532 139.91 102.702 139.63 102.702 139.27C102.702 139.06 102.657 138.87 102.567 138.7C102.477 138.53 102.322 138.39 102.102 138.28C101.882 138.16 101.587 138.07 101.217 138.01C100.847 137.94 100.382 137.905 99.8218 137.905V136.345C100.762 136.345 101.422 136.23 101.802 136C102.192 135.76 102.387 135.45 102.387 135.07C102.387 134.74 102.262 134.485 102.012 134.305C101.762 134.115 101.417 134.02 100.977 134.02C100.597 134.02 100.247 134.095 99.9268 134.245C99.6068 134.395 99.2818 134.6 98.9518 134.86L97.8418 133.51C98.3118 133.13 98.8118 132.835 99.3418 132.625C99.8818 132.405 100.462 132.295 101.082 132.295C101.602 132.295 102.077 132.355 102.507 132.475C102.937 132.585 103.307 132.755 103.617 132.985C103.927 133.205 104.167 133.475 104.337 133.795C104.507 134.115 104.592 134.485 104.592 134.905C104.592 135.405 104.432 135.83 104.112 136.18C103.792 136.52 103.347 136.8 102.777 137.02V137.08C103.377 137.24 103.882 137.515 104.292 137.905C104.702 138.285 104.907 138.785 104.907 139.405C104.907 139.845 104.802 140.24 104.592 140.59C104.392 140.93 104.117 141.22 103.767 141.46C103.427 141.69 103.027 141.87 102.567 142C102.107 142.12 101.627 142.18 101.127 142.18C100.307 142.18 99.6018 142.06 99.0118 141.82C98.4218 141.57 97.9418 141.24 97.5718 140.83L98.5918 139.435ZM108.666 143.965C109.966 143.515 110.616 142.805 110.616 141.835C110.576 141.845 110.521 141.85 110.451 141.85C110.241 141.85 110.036 141.82 109.836 141.76C109.646 141.69 109.476 141.59 109.326 141.46C109.176 141.33 109.056 141.17 108.966 140.98C108.876 140.79 108.831 140.57 108.831 140.32C108.831 139.85 108.991 139.475 109.311 139.195C109.641 138.915 110.041 138.775 110.511 138.775C111.131 138.775 111.596 139.005 111.906 139.465C112.216 139.915 112.371 140.545 112.371 141.355C112.371 142.315 112.106 143.125 111.576 143.785C111.046 144.445 110.261 144.935 109.221 145.255L108.666 143.965ZM127.224 133.9L127.149 131.725H129.699L129.624 133.9L129.099 137.455H127.749L127.224 133.9ZM137.148 136.87C137.428 136.87 137.718 136.8 138.018 136.66C138.318 136.52 138.613 136.275 138.903 135.925C138.843 135.555 138.753 135.245 138.633 134.995C138.523 134.735 138.388 134.53 138.228 134.38C138.078 134.22 137.913 134.11 137.733 134.05C137.553 133.98 137.368 133.945 137.178 133.945C136.988 133.945 136.803 133.975 136.623 134.035C136.453 134.095 136.298 134.19 136.158 134.32C136.028 134.44 135.923 134.6 135.843 134.8C135.763 134.99 135.723 135.22 135.723 135.49C135.723 135.98 135.853 136.335 136.113 136.555C136.373 136.765 136.718 136.87 137.148 136.87ZM135.018 139.72C135.218 139.9 135.468 140.06 135.768 140.2C136.068 140.33 136.378 140.395 136.698 140.395C136.988 140.395 137.263 140.345 137.523 140.245C137.793 140.135 138.028 139.965 138.228 139.735C138.438 139.495 138.608 139.185 138.738 138.805C138.868 138.415 138.943 137.94 138.963 137.38C138.613 137.71 138.228 137.97 137.808 138.16C137.398 138.34 137.018 138.43 136.668 138.43C136.248 138.43 135.858 138.37 135.498 138.25C135.138 138.13 134.823 137.95 134.553 137.71C134.293 137.47 134.088 137.165 133.938 136.795C133.788 136.425 133.713 135.99 133.713 135.49C133.713 135 133.803 134.56 133.983 134.17C134.173 133.77 134.423 133.43 134.733 133.15C135.053 132.87 135.418 132.66 135.828 132.52C136.238 132.37 136.673 132.295 137.133 132.295C137.623 132.295 138.098 132.385 138.558 132.565C139.028 132.745 139.443 133.025 139.803 133.405C140.163 133.785 140.448 134.275 140.658 134.875C140.878 135.465 140.988 136.18 140.988 137.02C140.988 137.91 140.873 138.68 140.643 139.33C140.413 139.98 140.108 140.515 139.728 140.935C139.348 141.355 138.908 141.67 138.408 141.88C137.918 142.08 137.413 142.18 136.893 142.18C136.213 142.18 135.618 142.065 135.108 141.835C134.598 141.605 134.178 141.34 133.848 141.04L135.018 139.72ZM145.603 137.83H142.963V136.27H145.603V133.51H147.223V136.27H149.863V137.83H147.223V140.59H145.603V137.83ZM154.207 133.9L154.132 131.725H156.682L156.607 133.9L156.082 137.455H154.732L154.207 133.9ZM162.661 135.58C162.661 135.33 162.701 135.1 162.781 134.89C162.871 134.67 162.991 134.48 163.141 134.32C163.291 134.16 163.471 134.035 163.681 133.945C163.901 133.855 164.141 133.81 164.401 133.81C164.661 133.81 164.896 133.855 165.106 133.945C165.326 134.035 165.511 134.16 165.661 134.32C165.811 134.48 165.926 134.67 166.006 134.89C166.096 135.1 166.141 135.33 166.141 135.58C166.141 136.08 165.981 136.5 165.661 136.84C165.341 137.17 164.921 137.335 164.401 137.335C163.881 137.335 163.461 137.17 163.141 136.84C162.821 136.5 162.661 136.08 162.661 135.58ZM162.661 140.425C162.661 140.175 162.701 139.945 162.781 139.735C162.871 139.515 162.991 139.325 163.141 139.165C163.291 139.005 163.471 138.88 163.681 138.79C163.901 138.7 164.141 138.655 164.401 138.655C164.661 138.655 164.896 138.7 165.106 138.79C165.326 138.88 165.511 139.005 165.661 139.165C165.811 139.325 165.926 139.515 166.006 139.735C166.096 139.945 166.141 140.175 166.141 140.425C166.141 140.925 165.981 141.345 165.661 141.685C165.341 142.015 164.921 142.18 164.401 142.18C163.881 142.18 163.461 142.015 163.141 141.685C162.821 141.345 162.661 140.925 162.661 140.425ZM182.119 136.87C182.399 136.87 182.689 136.8 182.989 136.66C183.289 136.52 183.584 136.275 183.874 135.925C183.814 135.555 183.724 135.245 183.604 134.995C183.494 134.735 183.359 134.53 183.199 134.38C183.049 134.22 182.884 134.11 182.704 134.05C182.524 133.98 182.339 133.945 182.149 133.945C181.959 133.945 181.774 133.975 181.594 134.035C181.424 134.095 181.269 134.19 181.129 134.32C180.999 134.44 180.894 134.6 180.814 134.8C180.734 134.99 180.694 135.22 180.694 135.49C180.694 135.98 180.824 136.335 181.084 136.555C181.344 136.765 181.689 136.87 182.119 136.87ZM179.989 139.72C180.189 139.9 180.439 140.06 180.739 140.2C181.039 140.33 181.349 140.395 181.669 140.395C181.959 140.395 182.234 140.345 182.494 140.245C182.764 140.135 182.999 139.965 183.199 139.735C183.409 139.495 183.579 139.185 183.709 138.805C183.839 138.415 183.914 137.94 183.934 137.38C183.584 137.71 183.199 137.97 182.779 138.16C182.369 138.34 181.989 138.43 181.639 138.43C181.219 138.43 180.829 138.37 180.469 138.25C180.109 138.13 179.794 137.95 179.524 137.71C179.264 137.47 179.059 137.165 178.909 136.795C178.759 136.425 178.684 135.99 178.684 135.49C178.684 135 178.774 134.56 178.954 134.17C179.144 133.77 179.394 133.43 179.704 133.15C180.024 132.87 180.389 132.66 180.799 132.52C181.209 132.37 181.644 132.295 182.104 132.295C182.594 132.295 183.069 132.385 183.529 132.565C183.999 132.745 184.414 133.025 184.774 133.405C185.134 133.785 185.419 134.275 185.629 134.875C185.849 135.465 185.959 136.18 185.959 137.02C185.959 137.91 185.844 138.68 185.614 139.33C185.384 139.98 185.079 140.515 184.699 140.935C184.319 141.355 183.879 141.67 183.379 141.88C182.889 142.08 182.384 142.18 181.864 142.18C181.184 142.18 180.589 142.065 180.079 141.835C179.569 141.605 179.149 141.34 178.819 141.04L179.989 139.72ZM189.703 139.315C189.703 139.735 189.868 140.065 190.198 140.305C190.528 140.535 190.938 140.65 191.428 140.65C191.878 140.65 192.238 140.555 192.508 140.365C192.788 140.165 192.928 139.865 192.928 139.465C192.928 139.245 192.873 139.06 192.763 138.91C192.653 138.76 192.493 138.625 192.283 138.505C192.083 138.375 191.843 138.26 191.563 138.16C191.283 138.05 190.973 137.93 190.633 137.8C190.363 138 190.138 138.225 189.958 138.475C189.788 138.725 189.703 139.005 189.703 139.315ZM192.028 136.45C192.508 136.02 192.748 135.555 192.748 135.055C192.748 134.685 192.633 134.39 192.403 134.17C192.173 133.94 191.838 133.825 191.398 133.825C191.048 133.825 190.748 133.915 190.498 134.095C190.258 134.275 190.138 134.55 190.138 134.92C190.138 135.31 190.313 135.615 190.663 135.835C191.013 136.055 191.468 136.26 192.028 136.45ZM187.798 139.57C187.798 139.28 187.843 139.02 187.933 138.79C188.033 138.55 188.163 138.335 188.323 138.145C188.493 137.955 188.683 137.785 188.893 137.635C189.113 137.485 189.348 137.35 189.598 137.23V137.17C189.198 136.89 188.863 136.575 188.593 136.225C188.333 135.865 188.203 135.43 188.203 134.92C188.203 134.52 188.283 134.16 188.443 133.84C188.603 133.51 188.823 133.23 189.103 133C189.393 132.77 189.738 132.595 190.138 132.475C190.538 132.355 190.973 132.295 191.443 132.295C191.923 132.295 192.353 132.36 192.733 132.49C193.123 132.61 193.453 132.785 193.723 133.015C193.993 133.235 194.198 133.51 194.338 133.84C194.488 134.16 194.563 134.515 194.563 134.905C194.563 135.355 194.428 135.755 194.158 136.105C193.898 136.455 193.578 136.75 193.198 136.99V137.05C193.448 137.17 193.683 137.31 193.903 137.47C194.123 137.62 194.313 137.795 194.473 137.995C194.633 138.195 194.758 138.425 194.848 138.685C194.938 138.935 194.983 139.22 194.983 139.54C194.983 139.92 194.903 140.27 194.743 140.59C194.583 140.91 194.348 141.19 194.038 141.43C193.738 141.66 193.363 141.845 192.913 141.985C192.463 142.115 191.948 142.18 191.368 142.18C190.818 142.18 190.323 142.12 189.883 142C189.443 141.87 189.068 141.69 188.758 141.46C188.448 141.23 188.208 140.955 188.038 140.635C187.878 140.315 187.798 139.96 187.798 139.57ZM198.772 142C198.812 141.21 198.887 140.485 198.997 139.825C199.117 139.155 199.282 138.52 199.492 137.92C199.712 137.31 199.992 136.72 200.332 136.15C200.672 135.57 201.092 134.965 201.592 134.335H196.807V132.475H203.962V133.825C203.362 134.495 202.877 135.125 202.507 135.715C202.137 136.295 201.847 136.9 201.637 137.53C201.427 138.15 201.277 138.82 201.187 139.54C201.097 140.25 201.032 141.07 200.992 142H198.772ZM207.601 143.965C208.901 143.515 209.551 142.805 209.551 141.835C209.511 141.845 209.456 141.85 209.386 141.85C209.176 141.85 208.971 141.82 208.771 141.76C208.581 141.69 208.411 141.59 208.261 141.46C208.111 141.33 207.991 141.17 207.901 140.98C207.811 140.79 207.766 140.57 207.766 140.32C207.766 139.85 207.926 139.475 208.246 139.195C208.576 138.915 208.976 138.775 209.446 138.775C210.066 138.775 210.531 139.005 210.841 139.465C211.151 139.915 211.306 140.545 211.306 141.355C211.306 142.315 211.041 143.125 210.511 143.785C209.981 144.445 209.196 144.935 208.156 145.255L207.601 143.965ZM226.16 133.9L226.085 131.725H228.635L228.56 133.9L228.035 137.455H226.685L226.16 133.9ZM239.909 140.215V142H233.084V140.215H235.544V134.71H233.579V133.345C234.139 133.245 234.614 133.125 235.004 132.985C235.404 132.845 235.779 132.675 236.129 132.475H237.749V140.215H239.909ZM243.743 142C243.783 141.21 243.858 140.485 243.968 139.825C244.088 139.155 244.253 138.52 244.463 137.92C244.683 137.31 244.963 136.72 245.303 136.15C245.643 135.57 246.063 134.965 246.563 134.335H241.778V132.475H248.933V133.825C248.333 134.495 247.848 135.125 247.478 135.715C247.108 136.295 246.818 136.9 246.608 137.53C246.398 138.15 246.248 138.82 246.158 139.54C246.068 140.25 246.003 141.07 245.963 142H243.743ZM253.532 137.83H250.892V136.27H253.532V133.51H255.152V136.27H257.792V137.83H255.152V140.59H253.532V137.83ZM262.136 133.9L262.061 131.725H264.611L264.536 133.9L264.011 137.455H262.661L262.136 133.9ZM270.59 135.58C270.59 135.33 270.63 135.1 270.71 134.89C270.8 134.67 270.92 134.48 271.07 134.32C271.22 134.16 271.4 134.035 271.61 133.945C271.83 133.855 272.07 133.81 272.33 133.81C272.59 133.81 272.825 133.855 273.035 133.945C273.255 134.035 273.44 134.16 273.59 134.32C273.74 134.48 273.855 134.67 273.935 134.89C274.025 135.1 274.07 135.33 274.07 135.58C274.07 136.08 273.91 136.5 273.59 136.84C273.27 137.17 272.85 137.335 272.33 137.335C271.81 137.335 271.39 137.17 271.07 136.84C270.75 136.5 270.59 136.08 270.59 135.58ZM270.59 140.425C270.59 140.175 270.63 139.945 270.71 139.735C270.8 139.515 270.92 139.325 271.07 139.165C271.22 139.005 271.4 138.88 271.61 138.79C271.83 138.7 272.07 138.655 272.33 138.655C272.59 138.655 272.825 138.7 273.035 138.79C273.255 138.88 273.44 139.005 273.59 139.165C273.74 139.325 273.855 139.515 273.935 139.735C274.025 139.945 274.07 140.175 274.07 140.425C274.07 140.925 273.91 141.345 273.59 141.685C273.27 142.015 272.85 142.18 272.33 142.18C271.81 142.18 271.39 142.015 271.07 141.685C270.75 141.345 270.59 140.925 270.59 140.425ZM290.529 140.53C290.719 140.53 290.899 140.5 291.069 140.44C291.249 140.38 291.404 140.29 291.534 140.17C291.674 140.04 291.784 139.88 291.864 139.69C291.944 139.49 291.984 139.255 291.984 138.985C291.984 138.495 291.854 138.145 291.594 137.935C291.334 137.715 290.994 137.605 290.574 137.605C290.294 137.605 290.004 137.675 289.704 137.815C289.404 137.955 289.109 138.195 288.819 138.535C288.879 138.915 288.964 139.235 289.074 139.495C289.194 139.745 289.329 139.95 289.479 140.11C289.629 140.26 289.794 140.37 289.974 140.44C290.154 140.5 290.339 140.53 290.529 140.53ZM292.704 134.755C292.504 134.575 292.254 134.42 291.954 134.29C291.654 134.15 291.344 134.08 291.024 134.08C290.734 134.08 290.454 134.135 290.184 134.245C289.924 134.345 289.689 134.515 289.479 134.755C289.279 134.985 289.114 135.29 288.984 135.67C288.854 136.05 288.779 136.52 288.759 137.08C289.099 136.75 289.474 136.495 289.884 136.315C290.304 136.135 290.694 136.045 291.054 136.045C291.474 136.045 291.859 136.105 292.209 136.225C292.569 136.345 292.879 136.525 293.139 136.765C293.409 137.005 293.619 137.31 293.769 137.68C293.919 138.05 293.994 138.485 293.994 138.985C293.994 139.485 293.899 139.93 293.709 140.32C293.529 140.71 293.279 141.045 292.959 141.325C292.649 141.605 292.289 141.82 291.879 141.97C291.469 142.11 291.034 142.18 290.574 142.18C290.084 142.18 289.609 142.09 289.149 141.91C288.689 141.73 288.279 141.45 287.919 141.07C287.559 140.69 287.269 140.205 287.049 139.615C286.829 139.015 286.719 138.295 286.719 137.455C286.719 136.565 286.834 135.795 287.064 135.145C287.294 134.495 287.599 133.96 287.979 133.54C288.369 133.12 288.809 132.81 289.299 132.61C289.789 132.4 290.299 132.295 290.829 132.295C291.509 132.295 292.104 132.41 292.614 132.64C293.124 132.86 293.539 133.125 293.859 133.435L292.704 134.755ZM295.683 140.74C296.363 140.17 296.983 139.64 297.543 139.15C298.103 138.65 298.583 138.185 298.983 137.755C299.383 137.325 299.693 136.92 299.913 136.54C300.133 136.16 300.243 135.8 300.243 135.46C300.243 134.99 300.108 134.635 299.838 134.395C299.568 134.145 299.183 134.02 298.683 134.02C298.303 134.02 297.953 134.12 297.633 134.32C297.323 134.51 297.033 134.735 296.763 134.995L295.578 133.81C295.828 133.56 296.073 133.34 296.313 133.15C296.563 132.96 296.823 132.805 297.093 132.685C297.373 132.555 297.663 132.46 297.963 132.4C298.273 132.33 298.613 132.295 298.983 132.295C299.483 132.295 299.938 132.37 300.348 132.52C300.758 132.66 301.108 132.865 301.398 133.135C301.698 133.395 301.928 133.71 302.088 134.08C302.258 134.45 302.343 134.865 302.343 135.325C302.343 135.725 302.248 136.135 302.058 136.555C301.868 136.965 301.608 137.38 301.278 137.8C300.958 138.21 300.588 138.625 300.168 139.045C299.748 139.455 299.308 139.86 298.848 140.26C299.118 140.23 299.408 140.205 299.718 140.185C300.038 140.155 300.323 140.14 300.573 140.14H302.838V142H295.683V140.74ZM304.677 140.74C305.357 140.17 305.977 139.64 306.537 139.15C307.097 138.65 307.577 138.185 307.977 137.755C308.377 137.325 308.687 136.92 308.907 136.54C309.127 136.16 309.237 135.8 309.237 135.46C309.237 134.99 309.102 134.635 308.832 134.395C308.562 134.145 308.177 134.02 307.677 134.02C307.297 134.02 306.947 134.12 306.627 134.32C306.317 134.51 306.027 134.735 305.757 134.995L304.572 133.81C304.822 133.56 305.067 133.34 305.307 133.15C305.557 132.96 305.817 132.805 306.087 132.685C306.367 132.555 306.657 132.46 306.957 132.4C307.267 132.33 307.607 132.295 307.977 132.295C308.477 132.295 308.932 132.37 309.342 132.52C309.752 132.66 310.102 132.865 310.392 133.135C310.692 133.395 310.922 133.71 311.082 134.08C311.252 134.45 311.337 134.865 311.337 135.325C311.337 135.725 311.242 136.135 311.052 136.555C310.862 136.965 310.602 137.38 310.272 137.8C309.952 138.21 309.582 138.625 309.162 139.045C308.742 139.455 308.302 139.86 307.842 140.26C308.112 140.23 308.402 140.205 308.712 140.185C309.032 140.155 309.317 140.14 309.567 140.14H311.832V142H304.677V140.74ZM315.531 143.965C316.831 143.515 317.481 142.805 317.481 141.835C317.441 141.845 317.386 141.85 317.316 141.85C317.106 141.85 316.901 141.82 316.701 141.76C316.511 141.69 316.341 141.59 316.191 141.46C316.041 141.33 315.921 141.17 315.831 140.98C315.741 140.79 315.696 140.57 315.696 140.32C315.696 139.85 315.856 139.475 316.176 139.195C316.506 138.915 316.906 138.775 317.376 138.775C317.996 138.775 318.461 139.005 318.771 139.465C319.081 139.915 319.236 140.545 319.236 141.355C319.236 142.315 318.971 143.125 318.441 143.785C317.911 144.445 317.126 144.935 316.086 145.255L315.531 143.965ZM334.089 133.9L334.014 131.725H336.564L336.489 133.9L335.964 137.455H334.614L334.089 133.9ZM347.839 140.215V142H341.014V140.215H343.474V134.71H341.509V133.345C342.069 133.245 342.544 133.125 342.934 132.985C343.334 132.845 343.709 132.675 344.059 132.475H345.679V140.215H347.839ZM349.648 140.74C350.328 140.17 350.948 139.64 351.508 139.15C352.068 138.65 352.548 138.185 352.948 137.755C353.348 137.325 353.658 136.92 353.878 136.54C354.098 136.16 354.208 135.8 354.208 135.46C354.208 134.99 354.073 134.635 353.803 134.395C353.533 134.145 353.148 134.02 352.648 134.02C352.268 134.02 351.918 134.12 351.598 134.32C351.288 134.51 350.998 134.735 350.728 134.995L349.543 133.81C349.793 133.56 350.038 133.34 350.278 133.15C350.528 132.96 350.788 132.805 351.058 132.685C351.338 132.555 351.628 132.46 351.928 132.4C352.238 132.33 352.578 132.295 352.948 132.295C353.448 132.295 353.903 132.37 354.313 132.52C354.723 132.66 355.073 132.865 355.363 133.135C355.663 133.395 355.893 133.71 356.053 134.08C356.223 134.45 356.308 134.865 356.308 135.325C356.308 135.725 356.213 136.135 356.023 136.555C355.833 136.965 355.573 137.38 355.243 137.8C354.923 138.21 354.553 138.625 354.133 139.045C353.713 139.455 353.273 139.86 352.813 140.26C353.083 140.23 353.373 140.205 353.683 140.185C354.003 140.155 354.288 140.14 354.538 140.14H356.803V142H349.648V140.74ZM361.462 137.83H358.822V136.27H361.462V133.51H363.082V136.27H365.722V137.83H363.082V140.59H361.462V137.83ZM370.066 133.9L369.991 131.725H372.541L372.466 133.9L371.941 137.455H370.591L370.066 133.9ZM378.52 135.58C378.52 135.33 378.56 135.1 378.64 134.89C378.73 134.67 378.85 134.48 379 134.32C379.15 134.16 379.33 134.035 379.54 133.945C379.76 133.855 380 133.81 380.26 133.81C380.52 133.81 380.755 133.855 380.965 133.945C381.185 134.035 381.37 134.16 381.52 134.32C381.67 134.48 381.785 134.67 381.865 134.89C381.955 135.1 382 135.33 382 135.58C382 136.08 381.84 136.5 381.52 136.84C381.2 137.17 380.78 137.335 380.26 137.335C379.74 137.335 379.32 137.17 379 136.84C378.68 136.5 378.52 136.08 378.52 135.58ZM378.52 140.425C378.52 140.175 378.56 139.945 378.64 139.735C378.73 139.515 378.85 139.325 379 139.165C379.15 139.005 379.33 138.88 379.54 138.79C379.76 138.7 380 138.655 380.26 138.655C380.52 138.655 380.755 138.7 380.965 138.79C381.185 138.88 381.37 139.005 381.52 139.165C381.67 139.325 381.785 139.515 381.865 139.735C381.955 139.945 382 140.175 382 140.425C382 140.925 381.84 141.345 381.52 141.685C381.2 142.015 380.78 142.18 380.26 142.18C379.74 142.18 379.32 142.015 379 141.685C378.68 141.345 378.52 140.925 378.52 140.425ZM401.803 140.215V142H394.978V140.215H397.438V134.71H395.473V133.345C396.033 133.245 396.508 133.125 396.898 132.985C397.298 132.845 397.673 132.675 398.023 132.475H399.643V140.215H401.803ZM410.798 140.215V142H403.973V140.215H406.433V134.71H404.468V133.345C405.028 133.245 405.503 133.125 405.893 132.985C406.293 132.845 406.668 132.675 407.018 132.475H408.638V140.215H410.798ZM413.417 139.45C413.737 139.71 414.077 139.935 414.437 140.125C414.807 140.305 415.217 140.395 415.667 140.395C416.207 140.395 416.647 140.27 416.987 140.02C417.337 139.77 417.512 139.4 417.512 138.91C417.512 138.43 417.347 138.065 417.017 137.815C416.697 137.565 416.282 137.44 415.772 137.44C415.612 137.44 415.467 137.45 415.337 137.47C415.217 137.48 415.097 137.505 414.977 137.545C414.857 137.585 414.732 137.635 414.602 137.695C414.472 137.755 414.327 137.83 414.167 137.92L413.192 137.29L413.447 132.475H419.282V134.335H415.352L415.187 136.12C415.407 136.04 415.612 135.985 415.802 135.955C415.992 135.915 416.207 135.895 416.447 135.895C416.887 135.895 417.302 135.955 417.692 136.075C418.092 136.195 418.442 136.375 418.742 136.615C419.042 136.855 419.277 137.16 419.447 137.53C419.627 137.9 419.717 138.34 419.717 138.85C419.717 139.38 419.612 139.85 419.402 140.26C419.202 140.67 418.927 141.02 418.577 141.31C418.237 141.59 417.842 141.805 417.392 141.955C416.942 142.105 416.472 142.18 415.982 142.18C415.152 142.18 414.447 142.055 413.867 141.805C413.297 141.545 412.817 141.225 412.427 140.845L413.417 139.45ZM422.411 139.45C422.731 139.71 423.071 139.935 423.431 140.125C423.801 140.305 424.211 140.395 424.661 140.395C425.201 140.395 425.641 140.27 425.981 140.02C426.331 139.77 426.506 139.4 426.506 138.91C426.506 138.43 426.341 138.065 426.011 137.815C425.691 137.565 425.276 137.44 424.766 137.44C424.606 137.44 424.461 137.45 424.331 137.47C424.211 137.48 424.091 137.505 423.971 137.545C423.851 137.585 423.726 137.635 423.596 137.695C423.466 137.755 423.321 137.83 423.161 137.92L422.186 137.29L422.441 132.475H428.276V134.335H424.346L424.181 136.12C424.401 136.04 424.606 135.985 424.796 135.955C424.986 135.915 425.201 135.895 425.441 135.895C425.881 135.895 426.296 135.955 426.686 136.075C427.086 136.195 427.436 136.375 427.736 136.615C428.036 136.855 428.271 137.16 428.441 137.53C428.621 137.9 428.711 138.34 428.711 138.85C428.711 139.38 428.606 139.85 428.396 140.26C428.196 140.67 427.921 141.02 427.571 141.31C427.231 141.59 426.836 141.805 426.386 141.955C425.936 142.105 425.466 142.18 424.976 142.18C424.146 142.18 423.441 142.055 422.861 141.805C422.291 141.545 421.811 141.225 421.421 140.845L422.411 139.45ZM431.915 143.11C432.225 143.11 432.475 143.095 432.665 143.065C432.865 143.035 433.02 142.98 433.13 142.9C433.24 142.82 433.315 142.71 433.355 142.57C433.405 142.44 433.43 142.27 433.43 142.06C433.43 141.65 433.42 141.255 433.4 140.875C433.38 140.495 433.37 140.075 433.37 139.615C433.37 139.045 433.485 138.635 433.715 138.385C433.945 138.125 434.33 137.95 434.87 137.86V137.8C434.33 137.71 433.945 137.54 433.715 137.29C433.485 137.03 433.37 136.615 433.37 136.045C433.37 135.595 433.38 135.175 433.4 134.785C433.42 134.395 433.43 134 433.43 133.6C433.43 133.39 433.405 133.22 433.355 133.09C433.315 132.95 433.24 132.84 433.13 132.76C433.02 132.68 432.865 132.625 432.665 132.595C432.475 132.565 432.225 132.55 431.915 132.55H431.3V131.38H432.455C433.415 131.38 434.12 131.535 434.57 131.845C435.02 132.145 435.245 132.7 435.245 133.51C435.245 133.77 435.235 134.01 435.215 134.23C435.205 134.44 435.185 134.645 435.155 134.845C435.135 135.035 435.115 135.23 435.095 135.43C435.085 135.63 435.08 135.845 435.08 136.075C435.08 136.205 435.11 136.335 435.17 136.465C435.23 136.595 435.34 136.715 435.5 136.825C435.66 136.925 435.87 137.01 436.13 137.08C436.4 137.14 436.74 137.175 437.15 137.185V138.475C436.74 138.485 436.4 138.525 436.13 138.595C435.87 138.655 435.66 138.74 435.5 138.85C435.34 138.95 435.23 139.065 435.17 139.195C435.11 139.325 435.08 139.455 435.08 139.585C435.08 139.825 435.085 140.045 435.095 140.245C435.115 140.435 435.135 140.63 435.155 140.83C435.185 141.02 435.205 141.22 435.215 141.43C435.235 141.64 435.245 141.88 435.245 142.15C435.245 142.96 435.02 143.515 434.57 143.815C434.12 144.125 433.415 144.28 432.455 144.28H431.3V143.11H431.915Z" fill="white"/>
</svg>
