<svg width="611" height="200" viewBox="0 0 611 200" fill="none" xmlns="http://www.w3.org/2000/svg">
<rect x="1" width="610" height="200" fill="black"/>
<rect x="80" width="531" height="31" fill="#333333"/>
<rect x="80" width="531" height="31" fill="#333333"/>
<rect x="1" width="79" height="31" fill="#090808"/>
<path d="M13.105 17.8101C13.105 17.5513 12.9756 17.3486 12.7168 17.2021C12.4629 17.0508 12.0527 16.9165 11.4863 16.7993C9.60156 16.4038 8.65918 15.603 8.65918 14.397C8.65918 13.6938 8.94971 13.1079 9.53076 12.6392C10.1167 12.1655 10.8809 11.9287 11.8232 11.9287C12.8291 11.9287 13.6323 12.1655 14.2329 12.6392C14.8384 13.1128 15.1411 13.728 15.1411 14.4849H13.0244C13.0244 14.1821 12.9268 13.9331 12.7314 13.7378C12.5361 13.5376 12.231 13.4375 11.8159 13.4375C11.4595 13.4375 11.1836 13.5181 10.9883 13.6792C10.793 13.8403 10.6953 14.0454 10.6953 14.2944C10.6953 14.5288 10.8052 14.7192 11.0249 14.8657C11.2495 15.0073 11.6255 15.1318 12.1528 15.2393C12.6802 15.3418 13.1245 15.459 13.4858 15.5908C14.604 16.001 15.1631 16.7114 15.1631 17.7222C15.1631 18.4448 14.853 19.0308 14.2329 19.48C13.6128 19.9243 12.812 20.1465 11.8306 20.1465C11.1665 20.1465 10.5757 20.0293 10.0581 19.7949C9.54541 19.5557 9.14258 19.231 8.84961 18.8208C8.55664 18.4058 8.41016 17.959 8.41016 17.4805H10.417C10.4365 17.8564 10.5757 18.1445 10.8345 18.3447C11.0933 18.5449 11.4399 18.645 11.8745 18.645C12.2798 18.645 12.585 18.5693 12.79 18.418C13 18.2617 13.105 18.0591 13.105 17.8101ZM19.8286 18.4399C20.2192 18.4399 20.5366 18.3325 20.7808 18.1177C21.0249 17.9028 21.1519 17.6172 21.1616 17.2607H23.1465C23.1416 17.7979 22.9951 18.291 22.707 18.7402C22.4189 19.1846 22.0234 19.5312 21.5205 19.7803C21.0225 20.0244 20.4707 20.1465 19.8652 20.1465C18.7324 20.1465 17.8389 19.7876 17.1846 19.0698C16.5303 18.3472 16.2031 17.3511 16.2031 16.0815V15.9424C16.2031 14.7217 16.5278 13.7476 17.1772 13.02C17.8267 12.2925 18.7178 11.9287 19.8506 11.9287C20.8418 11.9287 21.6353 12.2119 22.231 12.7783C22.8315 13.3398 23.1367 14.0894 23.1465 15.0269H21.1616C21.1519 14.6167 21.0249 14.2847 20.7808 14.0308C20.5366 13.772 20.2144 13.6426 19.814 13.6426C19.3208 13.6426 18.9473 13.8232 18.6934 14.1846C18.4443 14.541 18.3198 15.1221 18.3198 15.9277V16.1475C18.3198 16.9629 18.4443 17.5488 18.6934 17.9053C18.9424 18.2617 19.3208 18.4399 19.8286 18.4399ZM28.8081 14.0601C28.52 14.021 28.2661 14.0015 28.0464 14.0015C27.2456 14.0015 26.7207 14.2725 26.4717 14.8145V20H24.355V12.0752H26.3545L26.4131 13.02C26.8379 12.2925 27.4263 11.9287 28.1782 11.9287C28.4126 11.9287 28.6323 11.9604 28.8374 12.0239L28.8081 14.0601ZM32.0674 20H29.9434V12.0752H32.0674V20ZM29.8188 10.0244C29.8188 9.70703 29.9238 9.4458 30.1338 9.24072C30.3486 9.03564 30.6392 8.93311 31.0054 8.93311C31.3667 8.93311 31.6548 9.03564 31.8696 9.24072C32.0845 9.4458 32.1919 9.70703 32.1919 10.0244C32.1919 10.3467 32.082 10.6104 31.8623 10.8154C31.6475 11.0205 31.3618 11.123 31.0054 11.123C30.6489 11.123 30.3608 11.0205 30.1411 10.8154C29.9263 10.6104 29.8188 10.3467 29.8188 10.0244ZM40.9517 16.1108C40.9517 17.3315 40.6733 18.3105 40.1167 19.0479C39.5649 19.7803 38.8179 20.1465 37.8755 20.1465C37.0747 20.1465 36.4277 19.8682 35.9346 19.3115V23.0469H33.8179V12.0752H35.7808L35.854 12.8516C36.3667 12.2363 37.0356 11.9287 37.8608 11.9287C38.8374 11.9287 39.5967 12.29 40.1387 13.0127C40.6807 13.7354 40.9517 14.7314 40.9517 16.001V16.1108ZM38.835 15.957C38.835 15.2197 38.7031 14.6509 38.4395 14.2505C38.1807 13.8501 37.8022 13.6499 37.3042 13.6499C36.6401 13.6499 36.1836 13.9038 35.9346 14.4116V17.6562C36.1934 18.1787 36.6548 18.4399 37.3188 18.4399C38.3296 18.4399 38.835 17.6123 38.835 15.957ZM44.8042 10.127V12.0752H46.1592V13.6279H44.8042V17.583C44.8042 17.876 44.8604 18.0859 44.9727 18.2129C45.085 18.3398 45.2998 18.4033 45.6172 18.4033C45.8516 18.4033 46.0591 18.3862 46.2397 18.3521V19.9561C45.8247 20.083 45.3975 20.1465 44.958 20.1465C43.4736 20.1465 42.7168 19.397 42.6875 17.8979V13.6279H41.5303V12.0752H42.6875V10.127H44.8042ZM47.4482 18.96C47.4482 18.623 47.5605 18.3496 47.7852 18.1396C48.0146 17.9297 48.3003 17.8247 48.6421 17.8247C48.9888 17.8247 49.2744 17.9297 49.499 18.1396C49.7285 18.3496 49.8433 18.623 49.8433 18.96C49.8433 19.292 49.731 19.563 49.5063 19.7729C49.2817 19.978 48.9937 20.0806 48.6421 20.0806C48.2954 20.0806 48.0098 19.978 47.7852 19.7729C47.5605 19.563 47.4482 19.292 47.4482 18.96ZM58.8374 16.1108C58.8374 17.3315 58.5591 18.3105 58.0024 19.0479C57.4507 19.7803 56.7036 20.1465 55.7612 20.1465C54.9604 20.1465 54.3135 19.8682 53.8203 19.3115V23.0469H51.7036V12.0752H53.6665L53.7397 12.8516C54.2524 12.2363 54.9214 11.9287 55.7466 11.9287C56.7231 11.9287 57.4824 12.29 58.0244 13.0127C58.5664 13.7354 58.8374 14.7314 58.8374 16.001V16.1108ZM56.7207 15.957C56.7207 15.2197 56.5889 14.6509 56.3252 14.2505C56.0664 13.8501 55.688 13.6499 55.1899 13.6499C54.5259 13.6499 54.0693 13.9038 53.8203 14.4116V17.6562C54.0791 18.1787 54.5405 18.4399 55.2046 18.4399C56.2153 18.4399 56.7207 17.6123 56.7207 15.957ZM63.0269 17.0044L64.4917 12.0752H66.7622L63.5762 21.2305L63.4004 21.6479C62.9268 22.6831 62.1455 23.2007 61.0566 23.2007C60.749 23.2007 60.4365 23.1543 60.1191 23.0615V21.4575L60.4414 21.4648C60.8418 21.4648 61.1396 21.4038 61.335 21.2817C61.5352 21.1597 61.6914 20.957 61.8037 20.6738L62.0527 20.022L59.2769 12.0752H61.5547L63.0269 17.0044Z" fill="white"/>
<path d="M9.005 47.28C9.005 46.66 9.12 46.11 9.35 45.63C9.59 45.14 9.905 44.73 10.295 44.4C10.695 44.07 11.155 43.82 11.675 43.65C12.195 43.47 12.74 43.38 13.31 43.38C13.9 43.38 14.43 43.475 14.9 43.665C15.38 43.855 15.78 44.095 16.1 44.385L15.08 45.75C14.53 45.36 13.98 45.165 13.43 45.165C12.79 45.165 12.27 45.355 11.87 45.735C11.47 46.115 11.27 46.63 11.27 47.28C11.27 47.93 11.46 48.445 11.84 48.825C12.23 49.205 12.735 49.395 13.355 49.395C13.745 49.395 14.105 49.325 14.435 49.185C14.765 49.045 15.06 48.88 15.32 48.69L16.22 50.085C15.77 50.465 15.27 50.745 14.72 50.925C14.18 51.095 13.655 51.18 13.145 51.18C12.555 51.18 12.01 51.095 11.51 50.925C11.01 50.745 10.57 50.49 10.19 50.16C9.82 49.83 9.53 49.425 9.32 48.945C9.11 48.455 9.005 47.9 9.005 47.28ZM17.6991 47.28C17.6991 46.66 17.8041 46.11 18.0141 45.63C18.2241 45.14 18.5041 44.73 18.8541 44.4C19.2141 44.07 19.6191 43.82 20.0691 43.65C20.5291 43.47 21.0041 43.38 21.4941 43.38C21.9841 43.38 22.4541 43.47 22.9041 43.65C23.3641 43.82 23.7691 44.07 24.1191 44.4C24.4791 44.73 24.7641 45.14 24.9741 45.63C25.1841 46.11 25.2891 46.66 25.2891 47.28C25.2891 47.9 25.1841 48.455 24.9741 48.945C24.7641 49.425 24.4791 49.83 24.1191 50.16C23.7691 50.49 23.3641 50.745 22.9041 50.925C22.4541 51.095 21.9841 51.18 21.4941 51.18C21.0041 51.18 20.5291 51.095 20.0691 50.925C19.6191 50.745 19.2141 50.49 18.8541 50.16C18.5041 49.83 18.2241 49.425 18.0141 48.945C17.8041 48.455 17.6991 47.9 17.6991 47.28ZM19.9641 47.28C19.9641 47.93 20.0891 48.445 20.3391 48.825C20.5991 49.205 20.9841 49.395 21.4941 49.395C22.0041 49.395 22.3841 49.205 22.6341 48.825C22.8941 48.445 23.0241 47.93 23.0241 47.28C23.0241 46.63 22.8941 46.115 22.6341 45.735C22.3841 45.355 22.0041 45.165 21.4941 45.165C20.9841 45.165 20.5991 45.355 20.3391 45.735C20.0891 46.115 19.9641 46.63 19.9641 47.28ZM27.0683 43.56H28.8683L29.0333 44.55H29.0933C29.4133 44.23 29.7783 43.955 30.1883 43.725C30.6083 43.495 31.0983 43.38 31.6583 43.38C32.4983 43.38 33.1133 43.65 33.5033 44.19C33.8933 44.73 34.0883 45.47 34.0883 46.41V51H31.8833V46.695C31.8833 46.195 31.8033 45.83 31.6433 45.6C31.4833 45.37 31.1983 45.255 30.7883 45.255C30.4883 45.255 30.2233 45.32 29.9933 45.45C29.7733 45.58 29.5333 45.775 29.2733 46.035V51H27.0683V43.56ZM37.5924 45.285H35.7174V43.65L37.6974 43.56L37.9824 41.58H39.7974V43.56H42.9474V45.285H39.7974V47.895C39.7974 48.465 39.9224 48.87 40.1724 49.11C40.4224 49.34 40.8174 49.455 41.3574 49.455C41.6474 49.455 41.9124 49.43 42.1524 49.38C42.3924 49.33 42.6224 49.265 42.8424 49.185L43.2324 50.775C42.9024 50.875 42.5324 50.965 42.1224 51.045C41.7224 51.135 41.2824 51.18 40.8024 51.18C40.2124 51.18 39.7124 51.1 39.3024 50.94C38.8924 50.78 38.5574 50.56 38.2974 50.28C38.0474 49.99 37.8674 49.645 37.7574 49.245C37.6474 48.845 37.5924 48.4 37.5924 47.91V45.285ZM44.8016 47.28C44.8016 46.67 44.9066 46.125 45.1166 45.645C45.3366 45.165 45.6266 44.76 45.9866 44.43C46.3466 44.09 46.7566 43.83 47.2166 43.65C47.6866 43.47 48.1716 43.38 48.6716 43.38C49.2416 43.38 49.7466 43.47 50.1866 43.65C50.6266 43.83 50.9916 44.08 51.2816 44.4C51.5716 44.72 51.7916 45.1 51.9416 45.54C52.0916 45.97 52.1666 46.44 52.1666 46.95C52.1666 47.15 52.1566 47.34 52.1366 47.52C52.1166 47.7 52.0966 47.835 52.0766 47.925H47.0666C47.1466 48.485 47.3866 48.89 47.7866 49.14C48.1966 49.38 48.6766 49.5 49.2266 49.5C49.5666 49.5 49.8866 49.46 50.1866 49.38C50.4966 49.29 50.8166 49.16 51.1466 48.99L51.8666 50.31C51.4466 50.58 50.9766 50.795 50.4566 50.955C49.9366 51.105 49.4266 51.18 48.9266 51.18C48.3466 51.18 47.8066 51.095 47.3066 50.925C46.8066 50.745 46.3716 50.49 46.0016 50.16C45.6316 49.82 45.3366 49.41 45.1166 48.93C44.9066 48.45 44.8016 47.9 44.8016 47.28ZM50.1716 46.47C50.1716 46.05 50.0566 45.71 49.8266 45.45C49.5966 45.19 49.2266 45.06 48.7166 45.06C48.3166 45.06 47.9616 45.175 47.6516 45.405C47.3416 45.635 47.1366 45.99 47.0366 46.47H50.1716ZM54.0507 43.56H55.8507L56.0157 44.55H56.0757C56.3957 44.23 56.7607 43.955 57.1707 43.725C57.5907 43.495 58.0807 43.38 58.6407 43.38C59.4807 43.38 60.0957 43.65 60.4857 44.19C60.8757 44.73 61.0707 45.47 61.0707 46.41V51H58.8657V46.695C58.8657 46.195 58.7857 45.83 58.6257 45.6C58.4657 45.37 58.1807 45.255 57.7707 45.255C57.4707 45.255 57.2057 45.32 56.9757 45.45C56.7557 45.58 56.5157 45.775 56.2557 46.035V51H54.0507V43.56ZM64.5748 45.285H62.6998V43.65L64.6798 43.56L64.9648 41.58H66.7798V43.56H69.9298V45.285H66.7798V47.895C66.7798 48.465 66.9048 48.87 67.1548 49.11C67.4048 49.34 67.7998 49.455 68.3398 49.455C68.6298 49.455 68.8948 49.43 69.1348 49.38C69.3748 49.33 69.6048 49.265 69.8248 49.185L70.2148 50.775C69.8848 50.875 69.5148 50.965 69.1048 51.045C68.7048 51.135 68.2648 51.18 67.7848 51.18C67.1948 51.18 66.6948 51.1 66.2848 50.94C65.8748 50.78 65.5398 50.56 65.2798 50.28C65.0298 49.99 64.8498 49.645 64.7398 49.245C64.6298 48.845 64.5748 48.4 64.5748 47.91V45.285ZM79.059 51.81V53.46H71.859V51.81H79.059ZM81.6931 43.56H83.4931L83.6731 45.18H83.7181C84.0881 44.57 84.5331 44.12 85.0531 43.83C85.5731 43.53 86.1331 43.38 86.7331 43.38C87.0631 43.38 87.3281 43.405 87.5281 43.455C87.7381 43.505 87.9531 43.58 88.1731 43.68L87.7231 45.525C87.4931 45.455 87.2831 45.405 87.0931 45.375C86.9131 45.335 86.6831 45.315 86.4031 45.315C85.9431 45.315 85.4881 45.45 85.0381 45.72C84.5981 45.99 84.2181 46.46 83.8981 47.13V51H81.6931V43.56ZM89.8623 48.93C89.8623 48.51 89.9523 48.145 90.1323 47.835C90.3123 47.515 90.5973 47.245 90.9873 47.025C91.3873 46.805 91.8973 46.63 92.5173 46.5C93.1373 46.36 93.8873 46.265 94.7673 46.215C94.7273 45.875 94.5773 45.61 94.3173 45.42C94.0673 45.23 93.6873 45.135 93.1773 45.135C92.8173 45.135 92.4523 45.2 92.0823 45.33C91.7223 45.45 91.3323 45.615 90.9123 45.825L90.1323 44.385C90.6423 44.095 91.1873 43.855 91.7673 43.665C92.3573 43.475 92.9723 43.38 93.6123 43.38C94.6523 43.38 95.4723 43.655 96.0723 44.205C96.6723 44.755 96.9723 45.6 96.9723 46.74V51H95.1723L95.0073 50.16H94.9473C94.5673 50.45 94.1523 50.695 93.7023 50.895C93.2523 51.085 92.7873 51.18 92.3073 51.18C91.9273 51.18 91.5873 51.12 91.2873 51C90.9873 50.89 90.7323 50.735 90.5223 50.535C90.3123 50.325 90.1473 50.085 90.0273 49.815C89.9173 49.545 89.8623 49.25 89.8623 48.93ZM91.9773 48.765C91.9773 49.005 92.0673 49.185 92.2473 49.305C92.4373 49.415 92.6923 49.47 93.0123 49.47C93.3423 49.47 93.6523 49.405 93.9423 49.275C94.2323 49.135 94.5073 48.965 94.7673 48.765V47.535C94.2173 47.565 93.7623 47.615 93.4023 47.685C93.0423 47.755 92.7573 47.845 92.5473 47.955C92.3373 48.055 92.1873 48.175 92.0973 48.315C92.0173 48.455 91.9773 48.605 91.9773 48.765ZM100.551 45.285H98.6764V43.65L100.656 43.56L100.941 41.58H102.756V43.56H105.906V45.285H102.756V47.895C102.756 48.465 102.881 48.87 103.131 49.11C103.381 49.34 103.776 49.455 104.316 49.455C104.606 49.455 104.871 49.43 105.111 49.38C105.351 49.33 105.581 49.265 105.801 49.185L106.191 50.775C105.861 50.875 105.491 50.965 105.081 51.045C104.681 51.135 104.241 51.18 103.761 51.18C103.171 51.18 102.671 51.1 102.261 50.94C101.851 50.78 101.516 50.56 101.256 50.28C101.006 49.99 100.826 49.645 100.716 49.245C100.606 48.845 100.551 48.4 100.551 47.91V45.285ZM108.121 43.56H113.311V51H111.106V45.285H108.121V43.56ZM112.111 42.465C111.681 42.465 111.326 42.345 111.046 42.105C110.776 41.865 110.641 41.54 110.641 41.13C110.641 40.72 110.776 40.39 111.046 40.14C111.326 39.88 111.681 39.75 112.111 39.75C112.541 39.75 112.891 39.88 113.161 40.14C113.441 40.39 113.581 40.72 113.581 41.13C113.581 41.54 113.441 41.865 113.161 42.105C112.891 42.345 112.541 42.465 112.111 42.465ZM117.01 43.56H118.81L118.975 44.55H119.035C119.355 44.23 119.72 43.955 120.13 43.725C120.55 43.495 121.04 43.38 121.6 43.38C122.44 43.38 123.055 43.65 123.445 44.19C123.835 44.73 124.03 45.47 124.03 46.41V51H121.825V46.695C121.825 46.195 121.745 45.83 121.585 45.6C121.425 45.37 121.14 45.255 120.73 45.255C120.43 45.255 120.165 45.32 119.935 45.45C119.715 45.58 119.475 45.775 119.215 46.035V51H117.01V43.56ZM127.504 51.93C127.504 52.21 127.669 52.42 127.999 52.56C128.339 52.71 128.804 52.785 129.394 52.785C129.994 52.785 130.479 52.695 130.849 52.515C131.219 52.345 131.404 52.13 131.404 51.87C131.404 51.63 131.294 51.47 131.074 51.39C130.854 51.32 130.529 51.285 130.099 51.285H129.169C128.899 51.285 128.674 51.275 128.494 51.255C128.324 51.245 128.169 51.225 128.029 51.195C127.839 51.315 127.704 51.43 127.624 51.54C127.544 51.66 127.504 51.79 127.504 51.93ZM125.704 52.26C125.704 51.65 126.089 51.155 126.859 50.775V50.715C126.659 50.585 126.484 50.42 126.334 50.22C126.184 50.02 126.109 49.76 126.109 49.44C126.109 49.19 126.189 48.94 126.349 48.69C126.519 48.44 126.734 48.225 126.994 48.045V47.985C126.724 47.805 126.494 47.555 126.304 47.235C126.114 46.905 126.019 46.52 126.019 46.08C126.019 45.63 126.104 45.24 126.274 44.91C126.454 44.57 126.689 44.29 126.979 44.07C127.269 43.84 127.604 43.67 127.984 43.56C128.374 43.44 128.779 43.38 129.199 43.38C129.659 43.38 130.069 43.44 130.429 43.56H133.444V45.165H131.929C132.019 45.275 132.099 45.42 132.169 45.6C132.239 45.77 132.274 45.955 132.274 46.155C132.274 46.585 132.194 46.955 132.034 47.265C131.874 47.575 131.654 47.835 131.374 48.045C131.104 48.245 130.779 48.395 130.399 48.495C130.029 48.595 129.629 48.645 129.199 48.645C128.879 48.645 128.539 48.595 128.179 48.495C128.069 48.575 127.984 48.655 127.924 48.735C127.874 48.815 127.849 48.915 127.849 49.035C127.849 49.235 127.949 49.38 128.149 49.47C128.349 49.56 128.669 49.605 129.109 49.605H130.489C131.469 49.605 132.214 49.75 132.724 50.04C133.244 50.33 133.504 50.81 133.504 51.48C133.504 51.87 133.399 52.23 133.189 52.56C132.979 52.89 132.684 53.17 132.304 53.4C131.924 53.64 131.459 53.825 130.909 53.955C130.359 54.095 129.749 54.165 129.079 54.165C128.599 54.165 128.149 54.125 127.729 54.045C127.319 53.975 126.964 53.86 126.664 53.7C126.364 53.55 126.129 53.355 125.959 53.115C125.789 52.875 125.704 52.59 125.704 52.26ZM129.199 47.31C129.509 47.31 129.774 47.21 129.994 47.01C130.224 46.8 130.339 46.49 130.339 46.08C130.339 45.68 130.224 45.38 129.994 45.18C129.774 44.97 129.509 44.865 129.199 44.865C128.889 44.865 128.624 44.97 128.404 45.18C128.194 45.38 128.089 45.68 128.089 46.08C128.089 46.49 128.194 46.8 128.404 47.01C128.624 47.21 128.889 47.31 129.199 47.31ZM135.703 48.66C136.133 48.93 136.563 49.145 136.993 49.305C137.433 49.465 137.903 49.545 138.403 49.545C138.913 49.545 139.278 49.49 139.498 49.38C139.718 49.27 139.828 49.115 139.828 48.915C139.828 48.685 139.643 48.5 139.273 48.36C138.913 48.21 138.433 48.05 137.833 47.88C137.503 47.79 137.178 47.685 136.858 47.565C136.548 47.435 136.268 47.285 136.018 47.115C135.768 46.935 135.563 46.73 135.403 46.5C135.253 46.27 135.178 46.005 135.178 45.705C135.178 45.365 135.258 45.05 135.418 44.76C135.578 44.47 135.803 44.225 136.093 44.025C136.393 43.825 136.753 43.67 137.173 43.56C137.603 43.44 138.083 43.38 138.613 43.38C139.273 43.38 139.873 43.49 140.413 43.71C140.963 43.92 141.433 44.15 141.823 44.4L140.833 45.72C140.493 45.52 140.143 45.355 139.783 45.225C139.423 45.085 139.048 45.015 138.658 45.015C138.188 45.015 137.853 45.065 137.653 45.165C137.463 45.265 137.368 45.41 137.368 45.6C137.368 45.71 137.418 45.81 137.518 45.9C137.618 45.99 137.753 46.07 137.923 46.14C138.093 46.21 138.293 46.28 138.523 46.35C138.763 46.41 139.013 46.475 139.273 46.545C139.643 46.645 139.993 46.76 140.323 46.89C140.653 47.01 140.943 47.155 141.193 47.325C141.443 47.495 141.643 47.7 141.793 47.94C141.943 48.18 142.018 48.46 142.018 48.78C142.018 49.12 141.938 49.435 141.778 49.725C141.618 50.015 141.383 50.27 141.073 50.49C140.773 50.7 140.393 50.87 139.933 51C139.483 51.12 138.958 51.18 138.358 51.18C137.688 51.18 137.033 51.07 136.393 50.85C135.753 50.63 135.193 50.36 134.713 50.04L135.703 48.66ZM152.956 43.53H159.856V45.09H152.956V43.53ZM152.956 46.995H159.856V48.555H152.956V46.995ZM173.39 51.15C173.39 50.88 173.395 50.64 173.405 50.43C173.425 50.22 173.445 50.02 173.465 49.83C173.485 49.63 173.5 49.435 173.51 49.245C173.53 49.045 173.54 48.825 173.54 48.585C173.54 48.455 173.51 48.325 173.45 48.195C173.39 48.065 173.28 47.95 173.12 47.85C172.96 47.74 172.745 47.655 172.475 47.595C172.215 47.525 171.885 47.485 171.485 47.475V46.185C171.885 46.175 172.215 46.14 172.475 46.08C172.745 46.01 172.96 45.925 173.12 45.825C173.28 45.715 173.39 45.595 173.45 45.465C173.51 45.335 173.54 45.205 173.54 45.075C173.54 44.845 173.53 44.63 173.51 44.43C173.5 44.23 173.485 44.035 173.465 43.845C173.445 43.645 173.425 43.44 173.405 43.23C173.395 43.01 173.39 42.77 173.39 42.51C173.39 41.7 173.615 41.145 174.065 40.845C174.515 40.535 175.22 40.38 176.18 40.38H177.335V41.55H176.72C176.41 41.55 176.155 41.565 175.955 41.595C175.755 41.625 175.6 41.68 175.49 41.76C175.38 41.84 175.3 41.95 175.25 42.09C175.21 42.22 175.19 42.39 175.19 42.6C175.19 43 175.2 43.395 175.22 43.785C175.25 44.175 175.265 44.595 175.265 45.045C175.265 45.615 175.15 46.03 174.92 46.29C174.69 46.54 174.305 46.71 173.765 46.8V46.86C174.305 46.95 174.69 47.125 174.92 47.385C175.15 47.635 175.265 48.045 175.265 48.615C175.265 49.075 175.25 49.495 175.22 49.875C175.2 50.255 175.19 50.65 175.19 51.06C175.19 51.27 175.21 51.44 175.25 51.57C175.3 51.71 175.38 51.82 175.49 51.9C175.6 51.98 175.755 52.035 175.955 52.065C176.155 52.095 176.41 52.11 176.72 52.11H177.335V53.28H176.18C175.22 53.28 174.515 53.125 174.065 52.815C173.615 52.515 173.39 51.96 173.39 51.15ZM217.625 44.58C217.625 44.33 217.665 44.1 217.745 43.89C217.835 43.67 217.955 43.48 218.105 43.32C218.255 43.16 218.435 43.035 218.645 42.945C218.865 42.855 219.105 42.81 219.365 42.81C219.625 42.81 219.86 42.855 220.07 42.945C220.29 43.035 220.475 43.16 220.625 43.32C220.775 43.48 220.89 43.67 220.97 43.89C221.06 44.1 221.105 44.33 221.105 44.58C221.105 45.08 220.945 45.5 220.625 45.84C220.305 46.17 219.885 46.335 219.365 46.335C218.845 46.335 218.425 46.17 218.105 45.84C217.785 45.5 217.625 45.08 217.625 44.58ZM217.625 49.425C217.625 49.175 217.665 48.945 217.745 48.735C217.835 48.515 217.955 48.325 218.105 48.165C218.255 48.005 218.435 47.88 218.645 47.79C218.865 47.7 219.105 47.655 219.365 47.655C219.625 47.655 219.86 47.7 220.07 47.79C220.29 47.88 220.475 48.005 220.625 48.165C220.775 48.325 220.89 48.515 220.97 48.735C221.06 48.945 221.105 49.175 221.105 49.425C221.105 49.925 220.945 50.345 220.625 50.685C220.305 51.015 219.885 51.18 219.365 51.18C218.845 51.18 218.425 51.015 218.105 50.685C217.785 50.345 217.625 49.925 217.625 49.425ZM271.56 52.965C272.86 52.515 273.51 51.805 273.51 50.835C273.47 50.845 273.415 50.85 273.345 50.85C273.135 50.85 272.93 50.82 272.73 50.76C272.54 50.69 272.37 50.59 272.22 50.46C272.07 50.33 271.95 50.17 271.86 49.98C271.77 49.79 271.725 49.57 271.725 49.32C271.725 48.85 271.885 48.475 272.205 48.195C272.535 47.915 272.935 47.775 273.405 47.775C274.025 47.775 274.49 48.005 274.8 48.465C275.11 48.915 275.265 49.545 275.265 50.355C275.265 51.315 275 52.125 274.47 52.785C273.94 53.445 273.155 53.935 272.115 54.255L271.56 52.965ZM325.555 44.58C325.555 44.33 325.595 44.1 325.675 43.89C325.765 43.67 325.885 43.48 326.035 43.32C326.185 43.16 326.365 43.035 326.575 42.945C326.795 42.855 327.035 42.81 327.295 42.81C327.555 42.81 327.79 42.855 328 42.945C328.22 43.035 328.405 43.16 328.555 43.32C328.705 43.48 328.82 43.67 328.9 43.89C328.99 44.1 329.035 44.33 329.035 44.58C329.035 45.08 328.875 45.5 328.555 45.84C328.235 46.17 327.815 46.335 327.295 46.335C326.775 46.335 326.355 46.17 326.035 45.84C325.715 45.5 325.555 45.08 325.555 44.58ZM325.555 49.425C325.555 49.175 325.595 48.945 325.675 48.735C325.765 48.515 325.885 48.325 326.035 48.165C326.185 48.005 326.365 47.88 326.575 47.79C326.795 47.7 327.035 47.655 327.295 47.655C327.555 47.655 327.79 47.7 328 47.79C328.22 47.88 328.405 48.005 328.555 48.165C328.705 48.325 328.82 48.515 328.9 48.735C328.99 48.945 329.035 49.175 329.035 49.425C329.035 49.925 328.875 50.345 328.555 50.685C328.235 51.015 327.815 51.18 327.295 51.18C326.775 51.18 326.355 51.015 326.035 50.685C325.715 50.345 325.555 49.925 325.555 49.425ZM370.496 52.965C371.796 52.515 372.446 51.805 372.446 50.835C372.406 50.845 372.351 50.85 372.281 50.85C372.071 50.85 371.866 50.82 371.666 50.76C371.476 50.69 371.306 50.59 371.156 50.46C371.006 50.33 370.886 50.17 370.796 49.98C370.706 49.79 370.661 49.57 370.661 49.32C370.661 48.85 370.821 48.475 371.141 48.195C371.471 47.915 371.871 47.775 372.341 47.775C372.961 47.775 373.426 48.005 373.736 48.465C374.046 48.915 374.201 49.545 374.201 50.355C374.201 51.315 373.936 52.125 373.406 52.785C372.876 53.445 372.091 53.935 371.051 54.255L370.496 52.965ZM433.485 44.58C433.485 44.33 433.525 44.1 433.605 43.89C433.695 43.67 433.815 43.48 433.965 43.32C434.115 43.16 434.295 43.035 434.505 42.945C434.725 42.855 434.965 42.81 435.225 42.81C435.485 42.81 435.72 42.855 435.93 42.945C436.15 43.035 436.335 43.16 436.485 43.32C436.635 43.48 436.75 43.67 436.83 43.89C436.92 44.1 436.965 44.33 436.965 44.58C436.965 45.08 436.805 45.5 436.485 45.84C436.165 46.17 435.745 46.335 435.225 46.335C434.705 46.335 434.285 46.17 433.965 45.84C433.645 45.5 433.485 45.08 433.485 44.58ZM433.485 49.425C433.485 49.175 433.525 48.945 433.605 48.735C433.695 48.515 433.815 48.325 433.965 48.165C434.115 48.005 434.295 47.88 434.505 47.79C434.725 47.7 434.965 47.655 435.225 47.655C435.485 47.655 435.72 47.7 435.93 47.79C436.15 47.88 436.335 48.005 436.485 48.165C436.635 48.325 436.75 48.515 436.83 48.735C436.92 48.945 436.965 49.175 436.965 49.425C436.965 49.925 436.805 50.345 436.485 50.685C436.165 51.015 435.745 51.18 435.225 51.18C434.705 51.18 434.285 51.015 433.965 50.685C433.645 50.345 433.485 49.925 433.485 49.425ZM487.419 52.965C488.719 52.515 489.369 51.805 489.369 50.835C489.329 50.845 489.274 50.85 489.204 50.85C488.994 50.85 488.789 50.82 488.589 50.76C488.399 50.69 488.229 50.59 488.079 50.46C487.929 50.33 487.809 50.17 487.719 49.98C487.629 49.79 487.584 49.57 487.584 49.32C487.584 48.85 487.744 48.475 488.064 48.195C488.394 47.915 488.794 47.775 489.264 47.775C489.884 47.775 490.349 48.005 490.659 48.465C490.969 48.915 491.124 49.545 491.124 50.355C491.124 51.315 490.859 52.125 490.329 52.785C489.799 53.445 489.014 53.935 487.974 54.255L487.419 52.965ZM550.408 44.58C550.408 44.33 550.448 44.1 550.528 43.89C550.618 43.67 550.738 43.48 550.888 43.32C551.038 43.16 551.218 43.035 551.428 42.945C551.648 42.855 551.888 42.81 552.148 42.81C552.408 42.81 552.643 42.855 552.853 42.945C553.073 43.035 553.258 43.16 553.408 43.32C553.558 43.48 553.673 43.67 553.753 43.89C553.843 44.1 553.888 44.33 553.888 44.58C553.888 45.08 553.728 45.5 553.408 45.84C553.088 46.17 552.668 46.335 552.148 46.335C551.628 46.335 551.208 46.17 550.888 45.84C550.568 45.5 550.408 45.08 550.408 44.58ZM550.408 49.425C550.408 49.175 550.448 48.945 550.528 48.735C550.618 48.515 550.738 48.325 550.888 48.165C551.038 48.005 551.218 47.88 551.428 47.79C551.648 47.7 551.888 47.655 552.148 47.655C552.408 47.655 552.643 47.7 552.853 47.79C553.073 47.88 553.258 48.005 553.408 48.165C553.558 48.325 553.673 48.515 553.753 48.735C553.843 48.945 553.888 49.175 553.888 49.425C553.888 49.925 553.728 50.345 553.408 50.685C553.088 51.015 552.668 51.18 552.148 51.18C551.628 51.18 551.208 51.015 550.888 50.685C550.568 50.345 550.408 49.925 550.408 49.425ZM594.809 52.11C595.119 52.11 595.369 52.095 595.559 52.065C595.759 52.035 595.914 51.98 596.024 51.9C596.134 51.82 596.209 51.71 596.249 51.57C596.299 51.44 596.324 51.27 596.324 51.06C596.324 50.65 596.314 50.255 596.294 49.875C596.274 49.495 596.264 49.075 596.264 48.615C596.264 48.045 596.379 47.635 596.609 47.385C596.839 47.125 597.224 46.95 597.764 46.86V46.8C597.224 46.71 596.839 46.54 596.609 46.29C596.379 46.03 596.264 45.615 596.264 45.045C596.264 44.595 596.274 44.175 596.294 43.785C596.314 43.395 596.324 43 596.324 42.6C596.324 42.39 596.299 42.22 596.249 42.09C596.209 41.95 596.134 41.84 596.024 41.76C595.914 41.68 595.759 41.625 595.559 41.595C595.369 41.565 595.119 41.55 594.809 41.55H594.194V40.38H595.349C596.309 40.38 597.014 40.535 597.464 40.845C597.914 41.145 598.139 41.7 598.139 42.51C598.139 42.77 598.129 43.01 598.109 43.23C598.099 43.44 598.079 43.645 598.049 43.845C598.029 44.035 598.009 44.23 597.989 44.43C597.979 44.63 597.974 44.845 597.974 45.075C597.974 45.205 598.004 45.335 598.064 45.465C598.124 45.595 598.234 45.715 598.394 45.825C598.554 45.925 598.764 46.01 599.024 46.08C599.294 46.14 599.634 46.175 600.044 46.185V47.475C599.634 47.485 599.294 47.525 599.024 47.595C598.764 47.655 598.554 47.74 598.394 47.85C598.234 47.95 598.124 48.065 598.064 48.195C598.004 48.325 597.974 48.455 597.974 48.585C597.974 48.825 597.979 49.045 597.989 49.245C598.009 49.435 598.029 49.63 598.049 49.83C598.079 50.02 598.099 50.22 598.109 50.43C598.129 50.64 598.139 50.88 598.139 51.15C598.139 51.96 597.914 52.515 597.464 52.815C597.014 53.125 596.309 53.28 595.349 53.28H594.194V52.11H594.809ZM58.8507 90.685C57.8707 89.815 57.0957 88.81 56.5257 87.67C55.9657 86.53 55.6857 85.25 55.6857 83.83C55.6857 82.41 55.9657 81.13 56.5257 79.99C57.0957 78.85 57.8707 77.845 58.8507 76.975L60.0807 77.95C59.1907 78.82 58.5407 79.725 58.1307 80.665C57.7307 81.595 57.5307 82.65 57.5307 83.83C57.5307 84.42 57.5807 84.98 57.6807 85.51C57.7807 86.03 57.9307 86.53 58.1307 87.01C58.3407 87.49 58.6057 87.95 58.9257 88.39C59.2457 88.84 59.6307 89.28 60.0807 89.71L58.8507 90.685ZM134.923 84.28C134.923 83.66 135.038 83.11 135.268 82.63C135.508 82.14 135.823 81.73 136.213 81.4C136.613 81.07 137.073 80.82 137.593 80.65C138.113 80.47 138.658 80.38 139.228 80.38C139.818 80.38 140.348 80.475 140.818 80.665C141.298 80.855 141.698 81.095 142.018 81.385L140.998 82.75C140.448 82.36 139.898 82.165 139.348 82.165C138.708 82.165 138.188 82.355 137.788 82.735C137.388 83.115 137.188 83.63 137.188 84.28C137.188 84.93 137.378 85.445 137.758 85.825C138.148 86.205 138.653 86.395 139.273 86.395C139.663 86.395 140.023 86.325 140.353 86.185C140.683 86.045 140.978 85.88 141.238 85.69L142.138 87.085C141.688 87.465 141.188 87.745 140.638 87.925C140.098 88.095 139.573 88.18 139.063 88.18C138.473 88.18 137.928 88.095 137.428 87.925C136.928 87.745 136.488 87.49 136.108 87.16C135.738 86.83 135.448 86.425 135.238 85.945C135.028 85.455 134.923 84.9 134.923 84.28ZM143.617 84.28C143.617 83.66 143.722 83.11 143.932 82.63C144.142 82.14 144.422 81.73 144.772 81.4C145.132 81.07 145.537 80.82 145.987 80.65C146.447 80.47 146.922 80.38 147.412 80.38C147.902 80.38 148.372 80.47 148.822 80.65C149.282 80.82 149.687 81.07 150.037 81.4C150.397 81.73 150.682 82.14 150.892 82.63C151.102 83.11 151.207 83.66 151.207 84.28C151.207 84.9 151.102 85.455 150.892 85.945C150.682 86.425 150.397 86.83 150.037 87.16C149.687 87.49 149.282 87.745 148.822 87.925C148.372 88.095 147.902 88.18 147.412 88.18C146.922 88.18 146.447 88.095 145.987 87.925C145.537 87.745 145.132 87.49 144.772 87.16C144.422 86.83 144.142 86.425 143.932 85.945C143.722 85.455 143.617 84.9 143.617 84.28ZM145.882 84.28C145.882 84.93 146.007 85.445 146.257 85.825C146.517 86.205 146.902 86.395 147.412 86.395C147.922 86.395 148.302 86.205 148.552 85.825C148.812 85.445 148.942 84.93 148.942 84.28C148.942 83.63 148.812 83.115 148.552 82.735C148.302 82.355 147.922 82.165 147.412 82.165C146.902 82.165 146.517 82.355 146.257 82.735C146.007 83.115 145.882 83.63 145.882 84.28ZM152.986 80.56H154.786L154.951 81.55H155.011C155.331 81.23 155.696 80.955 156.106 80.725C156.526 80.495 157.016 80.38 157.576 80.38C158.416 80.38 159.031 80.65 159.421 81.19C159.811 81.73 160.006 82.47 160.006 83.41V88H157.801V83.695C157.801 83.195 157.721 82.83 157.561 82.6C157.401 82.37 157.116 82.255 156.706 82.255C156.406 82.255 156.141 82.32 155.911 82.45C155.691 82.58 155.451 82.775 155.191 83.035V88H152.986V80.56ZM163.51 82.285H161.635V80.65L163.615 80.56L163.9 78.58H165.715V80.56H168.865V82.285H165.715V84.895C165.715 85.465 165.84 85.87 166.09 86.11C166.34 86.34 166.735 86.455 167.275 86.455C167.565 86.455 167.83 86.43 168.07 86.38C168.31 86.33 168.54 86.265 168.76 86.185L169.15 87.775C168.82 87.875 168.45 87.965 168.04 88.045C167.64 88.135 167.2 88.18 166.72 88.18C166.13 88.18 165.63 88.1 165.22 87.94C164.81 87.78 164.475 87.56 164.215 87.28C163.965 86.99 163.785 86.645 163.675 86.245C163.565 85.845 163.51 85.4 163.51 84.91V82.285ZM170.72 84.28C170.72 83.67 170.825 83.125 171.035 82.645C171.255 82.165 171.545 81.76 171.905 81.43C172.265 81.09 172.675 80.83 173.135 80.65C173.605 80.47 174.09 80.38 174.59 80.38C175.16 80.38 175.665 80.47 176.105 80.65C176.545 80.83 176.91 81.08 177.2 81.4C177.49 81.72 177.71 82.1 177.86 82.54C178.01 82.97 178.085 83.44 178.085 83.95C178.085 84.15 178.075 84.34 178.055 84.52C178.035 84.7 178.015 84.835 177.995 84.925H172.985C173.065 85.485 173.305 85.89 173.705 86.14C174.115 86.38 174.595 86.5 175.145 86.5C175.485 86.5 175.805 86.46 176.105 86.38C176.415 86.29 176.735 86.16 177.065 85.99L177.785 87.31C177.365 87.58 176.895 87.795 176.375 87.955C175.855 88.105 175.345 88.18 174.845 88.18C174.265 88.18 173.725 88.095 173.225 87.925C172.725 87.745 172.29 87.49 171.92 87.16C171.55 86.82 171.255 86.41 171.035 85.93C170.825 85.45 170.72 84.9 170.72 84.28ZM176.09 83.47C176.09 83.05 175.975 82.71 175.745 82.45C175.515 82.19 175.145 82.06 174.635 82.06C174.235 82.06 173.88 82.175 173.57 82.405C173.26 82.635 173.055 82.99 172.955 83.47H176.09ZM179.969 80.56H181.769L181.934 81.55H181.994C182.314 81.23 182.679 80.955 183.089 80.725C183.509 80.495 183.999 80.38 184.559 80.38C185.399 80.38 186.014 80.65 186.404 81.19C186.794 81.73 186.989 82.47 186.989 83.41V88H184.784V83.695C184.784 83.195 184.704 82.83 184.544 82.6C184.384 82.37 184.099 82.255 183.689 82.255C183.389 82.255 183.124 82.32 182.894 82.45C182.674 82.58 182.434 82.775 182.174 83.035V88H179.969V80.56ZM190.493 82.285H188.618V80.65L190.598 80.56L190.883 78.58H192.698V80.56H195.848V82.285H192.698V84.895C192.698 85.465 192.823 85.87 193.073 86.11C193.323 86.34 193.718 86.455 194.258 86.455C194.548 86.455 194.813 86.43 195.053 86.38C195.293 86.33 195.523 86.265 195.743 86.185L196.133 87.775C195.803 87.875 195.433 87.965 195.023 88.045C194.623 88.135 194.183 88.18 193.703 88.18C193.113 88.18 192.613 88.1 192.203 87.94C191.793 87.78 191.458 87.56 191.198 87.28C190.948 86.99 190.768 86.645 190.658 86.245C190.548 85.845 190.493 85.4 190.493 84.91V82.285ZM204.977 88.81V90.46H197.777V88.81H204.977ZM207.611 80.56H209.411L209.591 82.18H209.636C210.006 81.57 210.451 81.12 210.971 80.83C211.491 80.53 212.051 80.38 212.651 80.38C212.981 80.38 213.246 80.405 213.446 80.455C213.656 80.505 213.871 80.58 214.091 80.68L213.641 82.525C213.411 82.455 213.201 82.405 213.011 82.375C212.831 82.335 212.601 82.315 212.321 82.315C211.861 82.315 211.406 82.45 210.956 82.72C210.516 82.99 210.136 83.46 209.816 84.13V88H207.611V80.56ZM215.78 85.93C215.78 85.51 215.87 85.145 216.05 84.835C216.23 84.515 216.515 84.245 216.905 84.025C217.305 83.805 217.815 83.63 218.435 83.5C219.055 83.36 219.805 83.265 220.685 83.215C220.645 82.875 220.495 82.61 220.235 82.42C219.985 82.23 219.605 82.135 219.095 82.135C218.735 82.135 218.37 82.2 218 82.33C217.64 82.45 217.25 82.615 216.83 82.825L216.05 81.385C216.56 81.095 217.105 80.855 217.685 80.665C218.275 80.475 218.89 80.38 219.53 80.38C220.57 80.38 221.39 80.655 221.99 81.205C222.59 81.755 222.89 82.6 222.89 83.74V88H221.09L220.925 87.16H220.865C220.485 87.45 220.07 87.695 219.62 87.895C219.17 88.085 218.705 88.18 218.225 88.18C217.845 88.18 217.505 88.12 217.205 88C216.905 87.89 216.65 87.735 216.44 87.535C216.23 87.325 216.065 87.085 215.945 86.815C215.835 86.545 215.78 86.25 215.78 85.93ZM217.895 85.765C217.895 86.005 217.985 86.185 218.165 86.305C218.355 86.415 218.61 86.47 218.93 86.47C219.26 86.47 219.57 86.405 219.86 86.275C220.15 86.135 220.425 85.965 220.685 85.765V84.535C220.135 84.565 219.68 84.615 219.32 84.685C218.96 84.755 218.675 84.845 218.465 84.955C218.255 85.055 218.105 85.175 218.015 85.315C217.935 85.455 217.895 85.605 217.895 85.765ZM226.469 82.285H224.594V80.65L226.574 80.56L226.859 78.58H228.674V80.56H231.824V82.285H228.674V84.895C228.674 85.465 228.799 85.87 229.049 86.11C229.299 86.34 229.694 86.455 230.234 86.455C230.524 86.455 230.789 86.43 231.029 86.38C231.269 86.33 231.499 86.265 231.719 86.185L232.109 87.775C231.779 87.875 231.409 87.965 230.999 88.045C230.599 88.135 230.159 88.18 229.679 88.18C229.089 88.18 228.589 88.1 228.179 87.94C227.769 87.78 227.434 87.56 227.174 87.28C226.924 86.99 226.744 86.645 226.634 86.245C226.524 85.845 226.469 85.4 226.469 84.91V82.285ZM234.039 80.56H239.229V88H237.024V82.285H234.039V80.56ZM238.029 79.465C237.599 79.465 237.244 79.345 236.964 79.105C236.694 78.865 236.559 78.54 236.559 78.13C236.559 77.72 236.694 77.39 236.964 77.14C237.244 76.88 237.599 76.75 238.029 76.75C238.459 76.75 238.809 76.88 239.079 77.14C239.359 77.39 239.499 77.72 239.499 78.13C239.499 78.54 239.359 78.865 239.079 79.105C238.809 79.345 238.459 79.465 238.029 79.465ZM242.928 80.56H244.728L244.893 81.55H244.953C245.273 81.23 245.638 80.955 246.048 80.725C246.468 80.495 246.958 80.38 247.518 80.38C248.358 80.38 248.973 80.65 249.363 81.19C249.753 81.73 249.948 82.47 249.948 83.41V88H247.743V83.695C247.743 83.195 247.663 82.83 247.503 82.6C247.343 82.37 247.058 82.255 246.648 82.255C246.348 82.255 246.083 82.32 245.853 82.45C245.633 82.58 245.393 82.775 245.133 83.035V88H242.928V80.56ZM253.422 88.93C253.422 89.21 253.587 89.42 253.917 89.56C254.257 89.71 254.722 89.785 255.312 89.785C255.912 89.785 256.397 89.695 256.767 89.515C257.137 89.345 257.322 89.13 257.322 88.87C257.322 88.63 257.212 88.47 256.992 88.39C256.772 88.32 256.447 88.285 256.017 88.285H255.087C254.817 88.285 254.592 88.275 254.412 88.255C254.242 88.245 254.087 88.225 253.947 88.195C253.757 88.315 253.622 88.43 253.542 88.54C253.462 88.66 253.422 88.79 253.422 88.93ZM251.622 89.26C251.622 88.65 252.007 88.155 252.777 87.775V87.715C252.577 87.585 252.402 87.42 252.252 87.22C252.102 87.02 252.027 86.76 252.027 86.44C252.027 86.19 252.107 85.94 252.267 85.69C252.437 85.44 252.652 85.225 252.912 85.045V84.985C252.642 84.805 252.412 84.555 252.222 84.235C252.032 83.905 251.937 83.52 251.937 83.08C251.937 82.63 252.022 82.24 252.192 81.91C252.372 81.57 252.607 81.29 252.897 81.07C253.187 80.84 253.522 80.67 253.902 80.56C254.292 80.44 254.697 80.38 255.117 80.38C255.577 80.38 255.987 80.44 256.347 80.56H259.362V82.165H257.847C257.937 82.275 258.017 82.42 258.087 82.6C258.157 82.77 258.192 82.955 258.192 83.155C258.192 83.585 258.112 83.955 257.952 84.265C257.792 84.575 257.572 84.835 257.292 85.045C257.022 85.245 256.697 85.395 256.317 85.495C255.947 85.595 255.547 85.645 255.117 85.645C254.797 85.645 254.457 85.595 254.097 85.495C253.987 85.575 253.902 85.655 253.842 85.735C253.792 85.815 253.767 85.915 253.767 86.035C253.767 86.235 253.867 86.38 254.067 86.47C254.267 86.56 254.587 86.605 255.027 86.605H256.407C257.387 86.605 258.132 86.75 258.642 87.04C259.162 87.33 259.422 87.81 259.422 88.48C259.422 88.87 259.317 89.23 259.107 89.56C258.897 89.89 258.602 90.17 258.222 90.4C257.842 90.64 257.377 90.825 256.827 90.955C256.277 91.095 255.667 91.165 254.997 91.165C254.517 91.165 254.067 91.125 253.647 91.045C253.237 90.975 252.882 90.86 252.582 90.7C252.282 90.55 252.047 90.355 251.877 90.115C251.707 89.875 251.622 89.59 251.622 89.26ZM255.117 84.31C255.427 84.31 255.692 84.21 255.912 84.01C256.142 83.8 256.257 83.49 256.257 83.08C256.257 82.68 256.142 82.38 255.912 82.18C255.692 81.97 255.427 81.865 255.117 81.865C254.807 81.865 254.542 81.97 254.322 82.18C254.112 82.38 254.007 82.68 254.007 83.08C254.007 83.49 254.112 83.8 254.322 84.01C254.542 84.21 254.807 84.31 255.117 84.31ZM261.621 85.66C262.051 85.93 262.481 86.145 262.911 86.305C263.351 86.465 263.821 86.545 264.321 86.545C264.831 86.545 265.196 86.49 265.416 86.38C265.636 86.27 265.746 86.115 265.746 85.915C265.746 85.685 265.561 85.5 265.191 85.36C264.831 85.21 264.351 85.05 263.751 84.88C263.421 84.79 263.096 84.685 262.776 84.565C262.466 84.435 262.186 84.285 261.936 84.115C261.686 83.935 261.481 83.73 261.321 83.5C261.171 83.27 261.096 83.005 261.096 82.705C261.096 82.365 261.176 82.05 261.336 81.76C261.496 81.47 261.721 81.225 262.011 81.025C262.311 80.825 262.671 80.67 263.091 80.56C263.521 80.44 264.001 80.38 264.531 80.38C265.191 80.38 265.791 80.49 266.331 80.71C266.881 80.92 267.351 81.15 267.741 81.4L266.751 82.72C266.411 82.52 266.061 82.355 265.701 82.225C265.341 82.085 264.966 82.015 264.576 82.015C264.106 82.015 263.771 82.065 263.571 82.165C263.381 82.265 263.286 82.41 263.286 82.6C263.286 82.71 263.336 82.81 263.436 82.9C263.536 82.99 263.671 83.07 263.841 83.14C264.011 83.21 264.211 83.28 264.441 83.35C264.681 83.41 264.931 83.475 265.191 83.545C265.561 83.645 265.911 83.76 266.241 83.89C266.571 84.01 266.861 84.155 267.111 84.325C267.361 84.495 267.561 84.7 267.711 84.94C267.861 85.18 267.936 85.46 267.936 85.78C267.936 86.12 267.856 86.435 267.696 86.725C267.536 87.015 267.301 87.27 266.991 87.49C266.691 87.7 266.311 87.87 265.851 88C265.401 88.12 264.876 88.18 264.276 88.18C263.606 88.18 262.951 88.07 262.311 87.85C261.671 87.63 261.111 87.36 260.631 87.04L261.621 85.66ZM270.72 89.71C271.17 89.28 271.555 88.84 271.875 88.39C272.195 87.95 272.455 87.49 272.655 87.01C272.865 86.53 273.02 86.03 273.12 85.51C273.22 84.98 273.27 84.42 273.27 83.83C273.27 82.65 273.065 81.595 272.655 80.665C272.255 79.725 271.61 78.82 270.72 77.95L271.95 76.975C272.93 77.845 273.7 78.85 274.26 79.99C274.83 81.13 275.115 82.41 275.115 83.83C275.115 85.25 274.83 86.53 274.26 87.67C273.7 88.81 272.93 89.815 271.95 90.685L270.72 89.71ZM58.8507 109.685C57.8707 108.815 57.0957 107.81 56.5257 106.67C55.9657 105.53 55.6857 104.25 55.6857 102.83C55.6857 101.41 55.9657 100.13 56.5257 98.99C57.0957 97.85 57.8707 96.845 58.8507 95.975L60.0807 96.95C59.1907 97.82 58.5407 98.725 58.1307 99.665C57.7307 100.595 57.5307 101.65 57.5307 102.83C57.5307 103.42 57.5807 103.98 57.6807 104.51C57.7807 105.03 57.9307 105.53 58.1307 106.01C58.3407 106.49 58.6057 106.95 58.9257 107.39C59.2457 107.84 59.6307 108.28 60.0807 108.71L58.8507 109.685ZM125.929 103.28C125.929 102.66 126.044 102.11 126.274 101.63C126.514 101.14 126.829 100.73 127.219 100.4C127.619 100.07 128.079 99.82 128.599 99.65C129.119 99.47 129.664 99.38 130.234 99.38C130.824 99.38 131.354 99.475 131.824 99.665C132.304 99.855 132.704 100.095 133.024 100.385L132.004 101.75C131.454 101.36 130.904 101.165 130.354 101.165C129.714 101.165 129.194 101.355 128.794 101.735C128.394 102.115 128.194 102.63 128.194 103.28C128.194 103.93 128.384 104.445 128.764 104.825C129.154 105.205 129.659 105.395 130.279 105.395C130.669 105.395 131.029 105.325 131.359 105.185C131.689 105.045 131.984 104.88 132.244 104.69L133.144 106.085C132.694 106.465 132.194 106.745 131.644 106.925C131.104 107.095 130.579 107.18 130.069 107.18C129.479 107.18 128.934 107.095 128.434 106.925C127.934 106.745 127.494 106.49 127.114 106.16C126.744 105.83 126.454 105.425 126.244 104.945C126.034 104.455 125.929 103.9 125.929 103.28ZM134.623 103.28C134.623 102.66 134.728 102.11 134.938 101.63C135.148 101.14 135.428 100.73 135.778 100.4C136.138 100.07 136.543 99.82 136.993 99.65C137.453 99.47 137.928 99.38 138.418 99.38C138.908 99.38 139.378 99.47 139.828 99.65C140.288 99.82 140.693 100.07 141.043 100.4C141.403 100.73 141.688 101.14 141.898 101.63C142.108 102.11 142.213 102.66 142.213 103.28C142.213 103.9 142.108 104.455 141.898 104.945C141.688 105.425 141.403 105.83 141.043 106.16C140.693 106.49 140.288 106.745 139.828 106.925C139.378 107.095 138.908 107.18 138.418 107.18C137.928 107.18 137.453 107.095 136.993 106.925C136.543 106.745 136.138 106.49 135.778 106.16C135.428 105.83 135.148 105.425 134.938 104.945C134.728 104.455 134.623 103.9 134.623 103.28ZM136.888 103.28C136.888 103.93 137.013 104.445 137.263 104.825C137.523 105.205 137.908 105.395 138.418 105.395C138.928 105.395 139.308 105.205 139.558 104.825C139.818 104.445 139.948 103.93 139.948 103.28C139.948 102.63 139.818 102.115 139.558 101.735C139.308 101.355 138.928 101.165 138.418 101.165C137.908 101.165 137.523 101.355 137.263 101.735C137.013 102.115 136.888 102.63 136.888 103.28ZM143.992 99.56H145.792L145.957 100.55H146.017C146.337 100.23 146.702 99.955 147.112 99.725C147.532 99.495 148.022 99.38 148.582 99.38C149.422 99.38 150.037 99.65 150.427 100.19C150.817 100.73 151.012 101.47 151.012 102.41V107H148.807V102.695C148.807 102.195 148.727 101.83 148.567 101.6C148.407 101.37 148.122 101.255 147.712 101.255C147.412 101.255 147.147 101.32 146.917 101.45C146.697 101.58 146.457 101.775 146.197 102.035V107H143.992V99.56ZM154.516 101.285H152.641V99.65L154.621 99.56L154.906 97.58H156.721V99.56H159.871V101.285H156.721V103.895C156.721 104.465 156.846 104.87 157.096 105.11C157.346 105.34 157.741 105.455 158.281 105.455C158.571 105.455 158.836 105.43 159.076 105.38C159.316 105.33 159.546 105.265 159.766 105.185L160.156 106.775C159.826 106.875 159.456 106.965 159.046 107.045C158.646 107.135 158.206 107.18 157.726 107.18C157.136 107.18 156.636 107.1 156.226 106.94C155.816 106.78 155.481 106.56 155.221 106.28C154.971 105.99 154.791 105.645 154.681 105.245C154.571 104.845 154.516 104.4 154.516 103.91V101.285ZM161.725 103.28C161.725 102.67 161.83 102.125 162.04 101.645C162.26 101.165 162.55 100.76 162.91 100.43C163.27 100.09 163.68 99.83 164.14 99.65C164.61 99.47 165.095 99.38 165.595 99.38C166.165 99.38 166.67 99.47 167.11 99.65C167.55 99.83 167.915 100.08 168.205 100.4C168.495 100.72 168.715 101.1 168.865 101.54C169.015 101.97 169.09 102.44 169.09 102.95C169.09 103.15 169.08 103.34 169.06 103.52C169.04 103.7 169.02 103.835 169 103.925H163.99C164.07 104.485 164.31 104.89 164.71 105.14C165.12 105.38 165.6 105.5 166.15 105.5C166.49 105.5 166.81 105.46 167.11 105.38C167.42 105.29 167.74 105.16 168.07 104.99L168.79 106.31C168.37 106.58 167.9 106.795 167.38 106.955C166.86 107.105 166.35 107.18 165.85 107.18C165.27 107.18 164.73 107.095 164.23 106.925C163.73 106.745 163.295 106.49 162.925 106.16C162.555 105.82 162.26 105.41 162.04 104.93C161.83 104.45 161.725 103.9 161.725 103.28ZM167.095 102.47C167.095 102.05 166.98 101.71 166.75 101.45C166.52 101.19 166.15 101.06 165.64 101.06C165.24 101.06 164.885 101.175 164.575 101.405C164.265 101.635 164.06 101.99 163.96 102.47H167.095ZM170.975 99.56H172.775L172.94 100.55H173C173.32 100.23 173.685 99.955 174.095 99.725C174.515 99.495 175.005 99.38 175.565 99.38C176.405 99.38 177.02 99.65 177.41 100.19C177.8 100.73 177.995 101.47 177.995 102.41V107H175.79V102.695C175.79 102.195 175.71 101.83 175.55 101.6C175.39 101.37 175.105 101.255 174.695 101.255C174.395 101.255 174.13 101.32 173.9 101.45C173.68 101.58 173.44 101.775 173.18 102.035V107H170.975V99.56ZM181.499 101.285H179.624V99.65L181.604 99.56L181.889 97.58H183.704V99.56H186.854V101.285H183.704V103.895C183.704 104.465 183.829 104.87 184.079 105.11C184.329 105.34 184.724 105.455 185.264 105.455C185.554 105.455 185.819 105.43 186.059 105.38C186.299 105.33 186.529 105.265 186.749 105.185L187.139 106.775C186.809 106.875 186.439 106.965 186.029 107.045C185.629 107.135 185.189 107.18 184.709 107.18C184.119 107.18 183.619 107.1 183.209 106.94C182.799 106.78 182.464 106.56 182.204 106.28C181.954 105.99 181.774 105.645 181.664 105.245C181.554 104.845 181.499 104.4 181.499 103.91V101.285ZM195.983 107.81V109.46H188.783V107.81H195.983ZM198.617 99.56H200.417L200.597 101.18H200.642C201.012 100.57 201.457 100.12 201.977 99.83C202.497 99.53 203.057 99.38 203.657 99.38C203.987 99.38 204.252 99.405 204.452 99.455C204.662 99.505 204.877 99.58 205.097 99.68L204.647 101.525C204.417 101.455 204.207 101.405 204.017 101.375C203.837 101.335 203.607 101.315 203.327 101.315C202.867 101.315 202.412 101.45 201.962 101.72C201.522 101.99 201.142 102.46 200.822 103.13V107H198.617V99.56ZM206.786 104.93C206.786 104.51 206.876 104.145 207.056 103.835C207.236 103.515 207.521 103.245 207.911 103.025C208.311 102.805 208.821 102.63 209.441 102.5C210.061 102.36 210.811 102.265 211.691 102.215C211.651 101.875 211.501 101.61 211.241 101.42C210.991 101.23 210.611 101.135 210.101 101.135C209.741 101.135 209.376 101.2 209.006 101.33C208.646 101.45 208.256 101.615 207.836 101.825L207.056 100.385C207.566 100.095 208.111 99.855 208.691 99.665C209.281 99.475 209.896 99.38 210.536 99.38C211.576 99.38 212.396 99.655 212.996 100.205C213.596 100.755 213.896 101.6 213.896 102.74V107H212.096L211.931 106.16H211.871C211.491 106.45 211.076 106.695 210.626 106.895C210.176 107.085 209.711 107.18 209.231 107.18C208.851 107.18 208.511 107.12 208.211 107C207.911 106.89 207.656 106.735 207.446 106.535C207.236 106.325 207.071 106.085 206.951 105.815C206.841 105.545 206.786 105.25 206.786 104.93ZM208.901 104.765C208.901 105.005 208.991 105.185 209.171 105.305C209.361 105.415 209.616 105.47 209.936 105.47C210.266 105.47 210.576 105.405 210.866 105.275C211.156 105.135 211.431 104.965 211.691 104.765V103.535C211.141 103.565 210.686 103.615 210.326 103.685C209.966 103.755 209.681 103.845 209.471 103.955C209.261 104.055 209.111 104.175 209.021 104.315C208.941 104.455 208.901 104.605 208.901 104.765ZM217.475 101.285H215.6V99.65L217.58 99.56L217.865 97.58H219.68V99.56H222.83V101.285H219.68V103.895C219.68 104.465 219.805 104.87 220.055 105.11C220.305 105.34 220.7 105.455 221.24 105.455C221.53 105.455 221.795 105.43 222.035 105.38C222.275 105.33 222.505 105.265 222.725 105.185L223.115 106.775C222.785 106.875 222.415 106.965 222.005 107.045C221.605 107.135 221.165 107.18 220.685 107.18C220.095 107.18 219.595 107.1 219.185 106.94C218.775 106.78 218.44 106.56 218.18 106.28C217.93 105.99 217.75 105.645 217.64 105.245C217.53 104.845 217.475 104.4 217.475 103.91V101.285ZM225.044 99.56H230.234V107H228.029V101.285H225.044V99.56ZM229.034 98.465C228.604 98.465 228.249 98.345 227.969 98.105C227.699 97.865 227.564 97.54 227.564 97.13C227.564 96.72 227.699 96.39 227.969 96.14C228.249 95.88 228.604 95.75 229.034 95.75C229.464 95.75 229.814 95.88 230.084 96.14C230.364 96.39 230.504 96.72 230.504 97.13C230.504 97.54 230.364 97.865 230.084 98.105C229.814 98.345 229.464 98.465 229.034 98.465ZM233.934 99.56H235.734L235.899 100.55H235.959C236.279 100.23 236.644 99.955 237.054 99.725C237.474 99.495 237.964 99.38 238.524 99.38C239.364 99.38 239.979 99.65 240.369 100.19C240.759 100.73 240.954 101.47 240.954 102.41V107H238.749V102.695C238.749 102.195 238.669 101.83 238.509 101.6C238.349 101.37 238.064 101.255 237.654 101.255C237.354 101.255 237.089 101.32 236.859 101.45C236.639 101.58 236.399 101.775 236.139 102.035V107H233.934V99.56ZM244.428 107.93C244.428 108.21 244.593 108.42 244.923 108.56C245.263 108.71 245.728 108.785 246.318 108.785C246.918 108.785 247.403 108.695 247.773 108.515C248.143 108.345 248.328 108.13 248.328 107.87C248.328 107.63 248.218 107.47 247.998 107.39C247.778 107.32 247.453 107.285 247.023 107.285H246.093C245.823 107.285 245.598 107.275 245.418 107.255C245.248 107.245 245.093 107.225 244.953 107.195C244.763 107.315 244.628 107.43 244.548 107.54C244.468 107.66 244.428 107.79 244.428 107.93ZM242.628 108.26C242.628 107.65 243.013 107.155 243.783 106.775V106.715C243.583 106.585 243.408 106.42 243.258 106.22C243.108 106.02 243.033 105.76 243.033 105.44C243.033 105.19 243.113 104.94 243.273 104.69C243.443 104.44 243.658 104.225 243.918 104.045V103.985C243.648 103.805 243.418 103.555 243.228 103.235C243.038 102.905 242.943 102.52 242.943 102.08C242.943 101.63 243.028 101.24 243.198 100.91C243.378 100.57 243.613 100.29 243.903 100.07C244.193 99.84 244.528 99.67 244.908 99.56C245.298 99.44 245.703 99.38 246.123 99.38C246.583 99.38 246.993 99.44 247.353 99.56H250.368V101.165H248.853C248.943 101.275 249.023 101.42 249.093 101.6C249.163 101.77 249.198 101.955 249.198 102.155C249.198 102.585 249.118 102.955 248.958 103.265C248.798 103.575 248.578 103.835 248.298 104.045C248.028 104.245 247.703 104.395 247.323 104.495C246.953 104.595 246.553 104.645 246.123 104.645C245.803 104.645 245.463 104.595 245.103 104.495C244.993 104.575 244.908 104.655 244.848 104.735C244.798 104.815 244.773 104.915 244.773 105.035C244.773 105.235 244.873 105.38 245.073 105.47C245.273 105.56 245.593 105.605 246.033 105.605H247.413C248.393 105.605 249.138 105.75 249.648 106.04C250.168 106.33 250.428 106.81 250.428 107.48C250.428 107.87 250.323 108.23 250.113 108.56C249.903 108.89 249.608 109.17 249.228 109.4C248.848 109.64 248.383 109.825 247.833 109.955C247.283 110.095 246.673 110.165 246.003 110.165C245.523 110.165 245.073 110.125 244.653 110.045C244.243 109.975 243.888 109.86 243.588 109.7C243.288 109.55 243.053 109.355 242.883 109.115C242.713 108.875 242.628 108.59 242.628 108.26ZM246.123 103.31C246.433 103.31 246.698 103.21 246.918 103.01C247.148 102.8 247.263 102.49 247.263 102.08C247.263 101.68 247.148 101.38 246.918 101.18C246.698 100.97 246.433 100.865 246.123 100.865C245.813 100.865 245.548 100.97 245.328 101.18C245.118 101.38 245.013 101.68 245.013 102.08C245.013 102.49 245.118 102.8 245.328 103.01C245.548 103.21 245.813 103.31 246.123 103.31ZM252.627 104.66C253.057 104.93 253.487 105.145 253.917 105.305C254.357 105.465 254.827 105.545 255.327 105.545C255.837 105.545 256.202 105.49 256.422 105.38C256.642 105.27 256.752 105.115 256.752 104.915C256.752 104.685 256.567 104.5 256.197 104.36C255.837 104.21 255.357 104.05 254.757 103.88C254.427 103.79 254.102 103.685 253.782 103.565C253.472 103.435 253.192 103.285 252.942 103.115C252.692 102.935 252.487 102.73 252.327 102.5C252.177 102.27 252.102 102.005 252.102 101.705C252.102 101.365 252.182 101.05 252.342 100.76C252.502 100.47 252.727 100.225 253.017 100.025C253.317 99.825 253.677 99.67 254.097 99.56C254.527 99.44 255.007 99.38 255.537 99.38C256.197 99.38 256.797 99.49 257.337 99.71C257.887 99.92 258.357 100.15 258.747 100.4L257.757 101.72C257.417 101.52 257.067 101.355 256.707 101.225C256.347 101.085 255.972 101.015 255.582 101.015C255.112 101.015 254.777 101.065 254.577 101.165C254.387 101.265 254.292 101.41 254.292 101.6C254.292 101.71 254.342 101.81 254.442 101.9C254.542 101.99 254.677 102.07 254.847 102.14C255.017 102.21 255.217 102.28 255.447 102.35C255.687 102.41 255.937 102.475 256.197 102.545C256.567 102.645 256.917 102.76 257.247 102.89C257.577 103.01 257.867 103.155 258.117 103.325C258.367 103.495 258.567 103.7 258.717 103.94C258.867 104.18 258.942 104.46 258.942 104.78C258.942 105.12 258.862 105.435 258.702 105.725C258.542 106.015 258.307 106.27 257.997 106.49C257.697 106.7 257.317 106.87 256.857 107C256.407 107.12 255.882 107.18 255.282 107.18C254.612 107.18 253.957 107.07 253.317 106.85C252.677 106.63 252.117 106.36 251.637 106.04L252.627 104.66ZM261.726 108.71C262.176 108.28 262.561 107.84 262.881 107.39C263.201 106.95 263.461 106.49 263.661 106.01C263.871 105.53 264.026 105.03 264.126 104.51C264.226 103.98 264.276 103.42 264.276 102.83C264.276 101.65 264.071 100.595 263.661 99.665C263.261 98.725 262.616 97.82 261.726 96.95L262.956 95.975C263.936 96.845 264.706 97.85 265.266 98.99C265.836 100.13 266.121 101.41 266.121 102.83C266.121 104.25 265.836 105.53 265.266 106.67C264.706 107.81 263.936 108.815 262.956 109.685L261.726 108.71Z" fill="white"/>
<path d="M182.189 42.9L182.114 40.725H184.664L184.589 42.9L184.064 46.455H182.714L182.189 42.9ZM192.998 47.04V45.435C192.998 45.135 193.003 44.79 193.013 44.4C193.033 44 193.053 43.65 193.073 43.35H193.013C192.853 43.62 192.683 43.89 192.503 44.16C192.323 44.43 192.148 44.7 191.978 44.97L190.538 47.04H192.998ZM196.253 48.72H195.053V51H192.998V48.72H188.408V47.205L192.383 41.475H195.053V47.04H196.253V48.72ZM200.567 46.83H197.927V45.27H200.567V42.51H202.187V45.27H204.827V46.83H202.187V49.59H200.567V46.83ZM209.171 42.9L209.096 40.725H211.646L211.571 42.9L211.046 46.455H209.696L209.171 42.9ZM290.118 42.9L290.043 40.725H292.593L292.518 42.9L291.993 46.455H290.643L290.118 42.9ZM300.043 45.87C300.323 45.87 300.613 45.8 300.913 45.66C301.213 45.52 301.508 45.275 301.798 44.925C301.738 44.555 301.648 44.245 301.528 43.995C301.418 43.735 301.283 43.53 301.123 43.38C300.973 43.22 300.808 43.11 300.628 43.05C300.448 42.98 300.263 42.945 300.073 42.945C299.883 42.945 299.698 42.975 299.518 43.035C299.348 43.095 299.193 43.19 299.053 43.32C298.923 43.44 298.818 43.6 298.738 43.8C298.658 43.99 298.618 44.22 298.618 44.49C298.618 44.98 298.748 45.335 299.008 45.555C299.268 45.765 299.613 45.87 300.043 45.87ZM297.913 48.72C298.113 48.9 298.363 49.06 298.663 49.2C298.963 49.33 299.273 49.395 299.593 49.395C299.883 49.395 300.158 49.345 300.418 49.245C300.688 49.135 300.923 48.965 301.123 48.735C301.333 48.495 301.503 48.185 301.633 47.805C301.763 47.415 301.838 46.94 301.858 46.38C301.508 46.71 301.123 46.97 300.703 47.16C300.293 47.34 299.913 47.43 299.562 47.43C299.143 47.43 298.753 47.37 298.393 47.25C298.033 47.13 297.718 46.95 297.448 46.71C297.188 46.47 296.983 46.165 296.833 45.795C296.683 45.425 296.608 44.99 296.608 44.49C296.608 44 296.698 43.56 296.878 43.17C297.068 42.77 297.318 42.43 297.628 42.15C297.948 41.87 298.313 41.66 298.723 41.52C299.133 41.37 299.568 41.295 300.028 41.295C300.518 41.295 300.993 41.385 301.453 41.565C301.923 41.745 302.338 42.025 302.698 42.405C303.058 42.785 303.343 43.275 303.553 43.875C303.773 44.465 303.883 45.18 303.883 46.02C303.883 46.91 303.768 47.68 303.538 48.33C303.308 48.98 303.003 49.515 302.623 49.935C302.243 50.355 301.803 50.67 301.303 50.88C300.813 51.08 300.308 51.18 299.788 51.18C299.108 51.18 298.513 51.065 298.003 50.835C297.493 50.605 297.073 50.34 296.743 50.04L297.913 48.72ZM308.497 46.83H305.857V45.27H308.497V42.51H310.117V45.27H312.757V46.83H310.117V49.59H308.497V46.83ZM317.101 42.9L317.026 40.725H319.576L319.501 42.9L318.976 46.455H317.626L317.101 42.9ZM389.054 42.9L388.979 40.725H391.529L391.454 42.9L390.929 46.455H389.579L389.054 42.9ZM402.803 49.215V51H395.978V49.215H398.438V43.71H396.473V42.345C397.033 42.245 397.508 42.125 397.898 41.985C398.298 41.845 398.673 41.675 399.023 41.475H400.643V49.215H402.803ZM404.612 49.74C405.292 49.17 405.912 48.64 406.472 48.15C407.032 47.65 407.512 47.185 407.912 46.755C408.312 46.325 408.622 45.92 408.842 45.54C409.062 45.16 409.172 44.8 409.172 44.46C409.172 43.99 409.037 43.635 408.767 43.395C408.497 43.145 408.112 43.02 407.612 43.02C407.232 43.02 406.882 43.12 406.562 43.32C406.252 43.51 405.962 43.735 405.692 43.995L404.507 42.81C404.757 42.56 405.002 42.34 405.242 42.15C405.492 41.96 405.752 41.805 406.022 41.685C406.302 41.555 406.592 41.46 406.892 41.4C407.202 41.33 407.542 41.295 407.912 41.295C408.412 41.295 408.867 41.37 409.277 41.52C409.687 41.66 410.037 41.865 410.327 42.135C410.627 42.395 410.857 42.71 411.017 43.08C411.187 43.45 411.272 43.865 411.272 44.325C411.272 44.725 411.177 45.135 410.987 45.555C410.797 45.965 410.537 46.38 410.207 46.8C409.887 47.21 409.517 47.625 409.097 48.045C408.677 48.455 408.237 48.86 407.777 49.26C408.047 49.23 408.337 49.205 408.647 49.185C408.967 49.155 409.252 49.14 409.502 49.14H411.767V51H404.612V49.74ZM416.426 46.83H413.786V45.27H416.426V42.51H418.046V45.27H420.686V46.83H418.046V49.59H416.426V46.83ZM425.03 42.9L424.955 40.725H427.505L427.43 42.9L426.905 46.455H425.555L425.03 42.9ZM505.978 42.9L505.903 40.725H508.453L508.378 42.9L507.853 46.455H506.503L505.978 42.9ZM519.727 49.215V51H512.902V49.215H515.362V43.71H513.397V42.345C513.957 42.245 514.432 42.125 514.822 41.985C515.222 41.845 515.597 41.675 515.947 41.475H517.567V49.215H519.727ZM523.561 51C523.601 50.21 523.676 49.485 523.786 48.825C523.906 48.155 524.071 47.52 524.281 46.92C524.501 46.31 524.781 45.72 525.121 45.15C525.461 44.57 525.881 43.965 526.381 43.335H521.596V41.475H528.751V42.825C528.151 43.495 527.666 44.125 527.296 44.715C526.926 45.295 526.636 45.9 526.426 46.53C526.216 47.15 526.066 47.82 525.976 48.54C525.886 49.25 525.821 50.07 525.781 51H523.561ZM533.35 46.83H530.71V45.27H533.35V42.51H534.97V45.27H537.61V46.83H534.97V49.59H533.35V46.83ZM541.954 42.9L541.879 40.725H544.429L544.354 42.9L543.829 46.455H542.479L541.954 42.9Z" fill="#009E73"/>
<path d="M237.969 47.04V45.435C237.969 45.135 237.974 44.79 237.984 44.4C238.004 44 238.024 43.65 238.044 43.35H237.984C237.824 43.62 237.654 43.89 237.474 44.16C237.294 44.43 237.119 44.7 236.949 44.97L235.509 47.04H237.969ZM241.224 48.72H240.024V51H237.969V48.72H233.379V47.205L237.354 41.475H240.024V47.04H241.224V48.72ZM246.963 47.04V45.435C246.963 45.135 246.968 44.79 246.978 44.4C246.998 44 247.018 43.65 247.038 43.35H246.978C246.818 43.62 246.648 43.89 246.468 44.16C246.288 44.43 246.113 44.7 245.943 44.97L244.503 47.04H246.963ZM250.218 48.72H249.018V51H246.963V48.72H242.373V47.205L246.348 41.475H249.018V47.04H250.218V48.72ZM252.492 48.435C252.812 48.715 253.167 48.945 253.557 49.125C253.957 49.305 254.377 49.395 254.817 49.395C255.337 49.395 255.762 49.3 256.092 49.11C256.432 48.91 256.602 48.63 256.602 48.27C256.602 48.06 256.557 47.87 256.467 47.7C256.377 47.53 256.222 47.39 256.002 47.28C255.782 47.16 255.487 47.07 255.117 47.01C254.747 46.94 254.282 46.905 253.722 46.905V45.345C254.662 45.345 255.322 45.23 255.702 45C256.092 44.76 256.287 44.45 256.287 44.07C256.287 43.74 256.162 43.485 255.912 43.305C255.662 43.115 255.317 43.02 254.877 43.02C254.497 43.02 254.147 43.095 253.827 43.245C253.507 43.395 253.182 43.6 252.852 43.86L251.742 42.51C252.212 42.13 252.712 41.835 253.242 41.625C253.782 41.405 254.362 41.295 254.982 41.295C255.502 41.295 255.977 41.355 256.407 41.475C256.837 41.585 257.207 41.755 257.517 41.985C257.827 42.205 258.067 42.475 258.237 42.795C258.407 43.115 258.492 43.485 258.492 43.905C258.492 44.405 258.332 44.83 258.012 45.18C257.692 45.52 257.247 45.8 256.677 46.02V46.08C257.277 46.24 257.782 46.515 258.192 46.905C258.602 47.285 258.807 47.785 258.807 48.405C258.807 48.845 258.702 49.24 258.492 49.59C258.292 49.93 258.017 50.22 257.667 50.46C257.327 50.69 256.927 50.87 256.467 51C256.007 51.12 255.527 51.18 255.027 51.18C254.207 51.18 253.502 51.06 252.912 50.82C252.322 50.57 251.842 50.24 251.472 49.83L252.492 48.435ZM261.486 48.435C261.806 48.715 262.161 48.945 262.551 49.125C262.951 49.305 263.371 49.395 263.811 49.395C264.331 49.395 264.756 49.3 265.086 49.11C265.426 48.91 265.596 48.63 265.596 48.27C265.596 48.06 265.551 47.87 265.461 47.7C265.371 47.53 265.216 47.39 264.996 47.28C264.776 47.16 264.481 47.07 264.111 47.01C263.741 46.94 263.276 46.905 262.716 46.905V45.345C263.656 45.345 264.316 45.23 264.696 45C265.086 44.76 265.281 44.45 265.281 44.07C265.281 43.74 265.156 43.485 264.906 43.305C264.656 43.115 264.311 43.02 263.871 43.02C263.491 43.02 263.141 43.095 262.821 43.245C262.501 43.395 262.176 43.6 261.846 43.86L260.736 42.51C261.206 42.13 261.706 41.835 262.236 41.625C262.776 41.405 263.356 41.295 263.976 41.295C264.496 41.295 264.971 41.355 265.401 41.475C265.831 41.585 266.201 41.755 266.511 41.985C266.821 42.205 267.061 42.475 267.231 42.795C267.401 43.115 267.486 43.485 267.486 43.905C267.486 44.405 267.326 44.83 267.006 45.18C266.686 45.52 266.241 45.8 265.671 46.02V46.08C266.271 46.24 266.776 46.515 267.186 46.905C267.596 47.285 267.801 47.785 267.801 48.405C267.801 48.845 267.696 49.24 267.486 49.59C267.286 49.93 267.011 50.22 266.661 50.46C266.321 50.69 265.921 50.87 265.461 51C265.001 51.12 264.521 51.18 264.021 51.18C263.201 51.18 262.496 51.06 261.906 50.82C261.316 50.57 260.836 50.24 260.466 49.83L261.486 48.435ZM345.013 45.87C345.293 45.87 345.583 45.8 345.883 45.66C346.183 45.52 346.478 45.275 346.768 44.925C346.708 44.555 346.618 44.245 346.498 43.995C346.388 43.735 346.253 43.53 346.093 43.38C345.943 43.22 345.778 43.11 345.598 43.05C345.418 42.98 345.233 42.945 345.043 42.945C344.853 42.945 344.668 42.975 344.488 43.035C344.318 43.095 344.163 43.19 344.023 43.32C343.893 43.44 343.788 43.6 343.708 43.8C343.628 43.99 343.588 44.22 343.588 44.49C343.588 44.98 343.718 45.335 343.978 45.555C344.238 45.765 344.583 45.87 345.013 45.87ZM342.883 48.72C343.083 48.9 343.333 49.06 343.633 49.2C343.933 49.33 344.243 49.395 344.563 49.395C344.853 49.395 345.128 49.345 345.388 49.245C345.658 49.135 345.893 48.965 346.093 48.735C346.303 48.495 346.473 48.185 346.603 47.805C346.733 47.415 346.808 46.94 346.828 46.38C346.478 46.71 346.093 46.97 345.673 47.16C345.263 47.34 344.883 47.43 344.533 47.43C344.113 47.43 343.723 47.37 343.363 47.25C343.003 47.13 342.688 46.95 342.418 46.71C342.158 46.47 341.953 46.165 341.803 45.795C341.653 45.425 341.578 44.99 341.578 44.49C341.578 44 341.668 43.56 341.848 43.17C342.038 42.77 342.288 42.43 342.598 42.15C342.918 41.87 343.283 41.66 343.693 41.52C344.103 41.37 344.538 41.295 344.998 41.295C345.488 41.295 345.963 41.385 346.423 41.565C346.893 41.745 347.308 42.025 347.668 42.405C348.028 42.785 348.313 43.275 348.523 43.875C348.743 44.465 348.853 45.18 348.853 46.02C348.853 46.91 348.738 47.68 348.508 48.33C348.278 48.98 347.973 49.515 347.593 49.935C347.213 50.355 346.773 50.67 346.273 50.88C345.783 51.08 345.278 51.18 344.758 51.18C344.078 51.18 343.483 51.065 342.973 50.835C342.463 50.605 342.043 50.34 341.713 50.04L342.883 48.72ZM352.597 48.315C352.597 48.735 352.762 49.065 353.092 49.305C353.422 49.535 353.832 49.65 354.322 49.65C354.772 49.65 355.132 49.555 355.402 49.365C355.682 49.165 355.822 48.865 355.822 48.465C355.822 48.245 355.767 48.06 355.657 47.91C355.547 47.76 355.387 47.625 355.177 47.505C354.977 47.375 354.737 47.26 354.457 47.16C354.177 47.05 353.867 46.93 353.527 46.8C353.257 47 353.032 47.225 352.852 47.475C352.682 47.725 352.597 48.005 352.597 48.315ZM354.922 45.45C355.402 45.02 355.642 44.555 355.642 44.055C355.642 43.685 355.527 43.39 355.297 43.17C355.067 42.94 354.732 42.825 354.292 42.825C353.942 42.825 353.642 42.915 353.392 43.095C353.152 43.275 353.032 43.55 353.032 43.92C353.032 44.31 353.207 44.615 353.557 44.835C353.907 45.055 354.362 45.26 354.922 45.45ZM350.692 48.57C350.692 48.28 350.737 48.02 350.827 47.79C350.927 47.55 351.057 47.335 351.217 47.145C351.387 46.955 351.577 46.785 351.787 46.635C352.007 46.485 352.242 46.35 352.492 46.23V46.17C352.092 45.89 351.757 45.575 351.487 45.225C351.227 44.865 351.097 44.43 351.097 43.92C351.097 43.52 351.177 43.16 351.337 42.84C351.497 42.51 351.717 42.23 351.997 42C352.287 41.77 352.632 41.595 353.032 41.475C353.432 41.355 353.867 41.295 354.337 41.295C354.817 41.295 355.247 41.36 355.627 41.49C356.017 41.61 356.347 41.785 356.617 42.015C356.887 42.235 357.092 42.51 357.232 42.84C357.382 43.16 357.457 43.515 357.457 43.905C357.457 44.355 357.322 44.755 357.052 45.105C356.792 45.455 356.472 45.75 356.092 45.99V46.05C356.342 46.17 356.577 46.31 356.797 46.47C357.017 46.62 357.207 46.795 357.367 46.995C357.527 47.195 357.652 47.425 357.742 47.685C357.832 47.935 357.877 48.22 357.877 48.54C357.877 48.92 357.797 49.27 357.637 49.59C357.477 49.91 357.242 50.19 356.932 50.43C356.632 50.66 356.257 50.845 355.807 50.985C355.357 51.115 354.842 51.18 354.262 51.18C353.712 51.18 353.217 51.12 352.777 51C352.337 50.87 351.962 50.69 351.652 50.46C351.342 50.23 351.102 49.955 350.932 49.635C350.772 49.315 350.692 48.96 350.692 48.57ZM361.666 51C361.706 50.21 361.781 49.485 361.891 48.825C362.011 48.155 362.176 47.52 362.386 46.92C362.606 46.31 362.886 45.72 363.226 45.15C363.566 44.57 363.986 43.965 364.486 43.335H359.701V41.475H366.856V42.825C366.256 43.495 365.771 44.125 365.401 44.715C365.031 45.295 364.741 45.9 364.531 46.53C364.321 47.15 364.171 47.82 364.081 48.54C363.991 49.25 363.926 50.07 363.886 51H361.666ZM456.768 49.215V51H449.943V49.215H452.403V43.71H450.438V42.345C450.998 42.245 451.473 42.125 451.863 41.985C452.263 41.845 452.638 41.675 452.988 41.475H454.608V49.215H456.768ZM465.762 49.215V51H458.937V49.215H461.397V43.71H459.432V42.345C459.992 42.245 460.467 42.125 460.857 41.985C461.257 41.845 461.632 41.675 461.982 41.475H463.602V49.215H465.762ZM468.381 48.45C468.701 48.71 469.041 48.935 469.401 49.125C469.771 49.305 470.181 49.395 470.631 49.395C471.171 49.395 471.611 49.27 471.951 49.02C472.301 48.77 472.476 48.4 472.476 47.91C472.476 47.43 472.311 47.065 471.981 46.815C471.661 46.565 471.246 46.44 470.736 46.44C470.576 46.44 470.431 46.45 470.301 46.47C470.181 46.48 470.061 46.505 469.941 46.545C469.821 46.585 469.696 46.635 469.566 46.695C469.436 46.755 469.291 46.83 469.131 46.92L468.156 46.29L468.411 41.475H474.246V43.335H470.316L470.151 45.12C470.371 45.04 470.576 44.985 470.766 44.955C470.956 44.915 471.171 44.895 471.411 44.895C471.851 44.895 472.266 44.955 472.656 45.075C473.056 45.195 473.406 45.375 473.706 45.615C474.006 45.855 474.241 46.16 474.411 46.53C474.591 46.9 474.681 47.34 474.681 47.85C474.681 48.38 474.576 48.85 474.366 49.26C474.166 49.67 473.891 50.02 473.541 50.31C473.201 50.59 472.806 50.805 472.356 50.955C471.906 51.105 471.436 51.18 470.946 51.18C470.116 51.18 469.411 51.055 468.831 50.805C468.261 50.545 467.781 50.225 467.391 49.845L468.381 48.45ZM477.375 48.45C477.695 48.71 478.035 48.935 478.395 49.125C478.765 49.305 479.175 49.395 479.625 49.395C480.165 49.395 480.605 49.27 480.945 49.02C481.295 48.77 481.47 48.4 481.47 47.91C481.47 47.43 481.305 47.065 480.975 46.815C480.655 46.565 480.24 46.44 479.73 46.44C479.57 46.44 479.425 46.45 479.295 46.47C479.175 46.48 479.055 46.505 478.935 46.545C478.815 46.585 478.69 46.635 478.56 46.695C478.43 46.755 478.285 46.83 478.125 46.92L477.15 46.29L477.405 41.475H483.24V43.335H479.31L479.145 45.12C479.365 45.04 479.57 44.985 479.76 44.955C479.95 44.915 480.165 44.895 480.405 44.895C480.845 44.895 481.26 44.955 481.65 45.075C482.05 45.195 482.4 45.375 482.7 45.615C483 45.855 483.235 46.16 483.405 46.53C483.585 46.9 483.675 47.34 483.675 47.85C483.675 48.38 483.57 48.85 483.36 49.26C483.16 49.67 482.885 50.02 482.535 50.31C482.195 50.59 481.8 50.805 481.35 50.955C480.9 51.105 480.43 51.18 479.94 51.18C479.11 51.18 478.405 51.055 477.825 50.805C477.255 50.545 476.775 50.225 476.385 49.845L477.375 48.45ZM570.347 49.53C570.537 49.53 570.717 49.5 570.887 49.44C571.067 49.38 571.222 49.29 571.352 49.17C571.492 49.04 571.602 48.88 571.682 48.69C571.762 48.49 571.802 48.255 571.802 47.985C571.802 47.495 571.672 47.145 571.412 46.935C571.152 46.715 570.812 46.605 570.392 46.605C570.112 46.605 569.822 46.675 569.522 46.815C569.222 46.955 568.927 47.195 568.637 47.535C568.697 47.915 568.782 48.235 568.892 48.495C569.012 48.745 569.147 48.95 569.297 49.11C569.447 49.26 569.612 49.37 569.792 49.44C569.972 49.5 570.157 49.53 570.347 49.53ZM572.522 43.755C572.322 43.575 572.072 43.42 571.772 43.29C571.472 43.15 571.162 43.08 570.842 43.08C570.552 43.08 570.272 43.135 570.002 43.245C569.742 43.345 569.507 43.515 569.297 43.755C569.097 43.985 568.932 44.29 568.802 44.67C568.672 45.05 568.597 45.52 568.577 46.08C568.917 45.75 569.292 45.495 569.702 45.315C570.122 45.135 570.512 45.045 570.872 45.045C571.292 45.045 571.677 45.105 572.027 45.225C572.387 45.345 572.697 45.525 572.957 45.765C573.227 46.005 573.437 46.31 573.587 46.68C573.737 47.05 573.812 47.485 573.812 47.985C573.812 48.485 573.717 48.93 573.527 49.32C573.347 49.71 573.097 50.045 572.777 50.325C572.467 50.605 572.107 50.82 571.697 50.97C571.287 51.11 570.852 51.18 570.392 51.18C569.902 51.18 569.427 51.09 568.967 50.91C568.507 50.73 568.097 50.45 567.737 50.07C567.377 49.69 567.087 49.205 566.867 48.615C566.647 48.015 566.537 47.295 566.537 46.455C566.537 45.565 566.652 44.795 566.882 44.145C567.112 43.495 567.417 42.96 567.797 42.54C568.187 42.12 568.627 41.81 569.117 41.61C569.607 41.4 570.117 41.295 570.647 41.295C571.327 41.295 571.922 41.41 572.432 41.64C572.942 41.86 573.357 42.125 573.677 42.435L572.522 43.755ZM575.501 49.74C576.181 49.17 576.801 48.64 577.361 48.15C577.921 47.65 578.401 47.185 578.801 46.755C579.201 46.325 579.511 45.92 579.731 45.54C579.951 45.16 580.061 44.8 580.061 44.46C580.061 43.99 579.926 43.635 579.656 43.395C579.386 43.145 579.001 43.02 578.501 43.02C578.121 43.02 577.771 43.12 577.451 43.32C577.141 43.51 576.851 43.735 576.581 43.995L575.396 42.81C575.646 42.56 575.891 42.34 576.131 42.15C576.381 41.96 576.641 41.805 576.911 41.685C577.191 41.555 577.481 41.46 577.781 41.4C578.091 41.33 578.431 41.295 578.801 41.295C579.301 41.295 579.756 41.37 580.166 41.52C580.576 41.66 580.926 41.865 581.216 42.135C581.516 42.395 581.746 42.71 581.906 43.08C582.076 43.45 582.161 43.865 582.161 44.325C582.161 44.725 582.066 45.135 581.876 45.555C581.686 45.965 581.426 46.38 581.096 46.8C580.776 47.21 580.406 47.625 579.986 48.045C579.566 48.455 579.126 48.86 578.666 49.26C578.936 49.23 579.226 49.205 579.536 49.185C579.856 49.155 580.141 49.14 580.391 49.14H582.656V51H575.501V49.74ZM584.495 49.74C585.175 49.17 585.795 48.64 586.355 48.15C586.915 47.65 587.395 47.185 587.795 46.755C588.195 46.325 588.505 45.92 588.725 45.54C588.945 45.16 589.055 44.8 589.055 44.46C589.055 43.99 588.92 43.635 588.65 43.395C588.38 43.145 587.995 43.02 587.495 43.02C587.115 43.02 586.765 43.12 586.445 43.32C586.135 43.51 585.845 43.735 585.575 43.995L584.39 42.81C584.64 42.56 584.885 42.34 585.125 42.15C585.375 41.96 585.635 41.805 585.905 41.685C586.185 41.555 586.475 41.46 586.775 41.4C587.085 41.33 587.425 41.295 587.795 41.295C588.295 41.295 588.75 41.37 589.16 41.52C589.57 41.66 589.92 41.865 590.21 42.135C590.51 42.395 590.74 42.71 590.9 43.08C591.07 43.45 591.155 43.865 591.155 44.325C591.155 44.725 591.06 45.135 590.87 45.555C590.68 45.965 590.42 46.38 590.09 46.8C589.77 47.21 589.4 47.625 588.98 48.045C588.56 48.455 588.12 48.86 587.66 49.26C587.93 49.23 588.22 49.205 588.53 49.185C588.85 49.155 589.135 49.14 589.385 49.14H591.65V51H584.495V49.74ZM67.0798 84.04V82.435C67.0798 82.135 67.0848 81.79 67.0948 81.4C67.1148 81 67.1348 80.65 67.1548 80.35H67.0948C66.9348 80.62 66.7648 80.89 66.5848 81.16C66.4048 81.43 66.2298 81.7 66.0598 81.97L64.6198 84.04H67.0798ZM70.3348 85.72H69.1348V88H67.0798V85.72H62.4898V84.205L66.4648 78.475H69.1348V84.04H70.3348V85.72ZM76.074 84.04V82.435C76.074 82.135 76.079 81.79 76.089 81.4C76.109 81 76.129 80.65 76.149 80.35H76.089C75.929 80.62 75.759 80.89 75.579 81.16C75.399 81.43 75.224 81.7 75.054 81.97L73.614 84.04H76.074ZM79.329 85.72H78.129V88H76.074V85.72H71.484V84.205L75.459 78.475H78.129V84.04H79.329V85.72ZM81.6031 85.435C81.9231 85.715 82.2781 85.945 82.6681 86.125C83.0681 86.305 83.4881 86.395 83.9281 86.395C84.4481 86.395 84.8731 86.3 85.2031 86.11C85.5431 85.91 85.7131 85.63 85.7131 85.27C85.7131 85.06 85.6681 84.87 85.5781 84.7C85.4881 84.53 85.3331 84.39 85.1131 84.28C84.8931 84.16 84.5981 84.07 84.2281 84.01C83.8581 83.94 83.3931 83.905 82.8331 83.905V82.345C83.7731 82.345 84.4331 82.23 84.8131 82C85.2031 81.76 85.3981 81.45 85.3981 81.07C85.3981 80.74 85.2731 80.485 85.0231 80.305C84.7731 80.115 84.4281 80.02 83.9881 80.02C83.6081 80.02 83.2581 80.095 82.9381 80.245C82.6181 80.395 82.2931 80.6 81.9631 80.86L80.8531 79.51C81.3231 79.13 81.8231 78.835 82.3531 78.625C82.8931 78.405 83.4731 78.295 84.0931 78.295C84.6131 78.295 85.0881 78.355 85.5181 78.475C85.9481 78.585 86.3181 78.755 86.6281 78.985C86.9381 79.205 87.1781 79.475 87.3481 79.795C87.5181 80.115 87.6031 80.485 87.6031 80.905C87.6031 81.405 87.4431 81.83 87.1231 82.18C86.8031 82.52 86.3581 82.8 85.7881 83.02V83.08C86.3881 83.24 86.8931 83.515 87.3031 83.905C87.7131 84.285 87.9181 84.785 87.9181 85.405C87.9181 85.845 87.8131 86.24 87.6031 86.59C87.4031 86.93 87.1281 87.22 86.7781 87.46C86.4381 87.69 86.0381 87.87 85.5781 88C85.1181 88.12 84.6381 88.18 84.1381 88.18C83.3181 88.18 82.6131 88.06 82.0231 87.82C81.4331 87.57 80.9531 87.24 80.5831 86.83L81.6031 85.435ZM90.5973 85.435C90.9173 85.715 91.2723 85.945 91.6623 86.125C92.0623 86.305 92.4823 86.395 92.9223 86.395C93.4423 86.395 93.8673 86.3 94.1973 86.11C94.5373 85.91 94.7073 85.63 94.7073 85.27C94.7073 85.06 94.6623 84.87 94.5723 84.7C94.4823 84.53 94.3273 84.39 94.1073 84.28C93.8873 84.16 93.5923 84.07 93.2223 84.01C92.8523 83.94 92.3873 83.905 91.8273 83.905V82.345C92.7673 82.345 93.4273 82.23 93.8073 82C94.1973 81.76 94.3923 81.45 94.3923 81.07C94.3923 80.74 94.2673 80.485 94.0173 80.305C93.7673 80.115 93.4223 80.02 92.9823 80.02C92.6023 80.02 92.2523 80.095 91.9323 80.245C91.6123 80.395 91.2873 80.6 90.9573 80.86L89.8473 79.51C90.3173 79.13 90.8173 78.835 91.3473 78.625C91.8873 78.405 92.4673 78.295 93.0873 78.295C93.6073 78.295 94.0823 78.355 94.5123 78.475C94.9423 78.585 95.3123 78.755 95.6223 78.985C95.9323 79.205 96.1723 79.475 96.3423 79.795C96.5123 80.115 96.5973 80.485 96.5973 80.905C96.5973 81.405 96.4373 81.83 96.1173 82.18C95.7973 82.52 95.3523 82.8 94.7823 83.02V83.08C95.3823 83.24 95.8873 83.515 96.2973 83.905C96.7073 84.285 96.9123 84.785 96.9123 85.405C96.9123 85.845 96.8073 86.24 96.5973 86.59C96.3973 86.93 96.1223 87.22 95.7723 87.46C95.4323 87.69 95.0323 87.87 94.5723 88C94.1123 88.12 93.6323 88.18 93.1323 88.18C92.3123 88.18 91.6073 88.06 91.0173 87.82C90.4273 87.57 89.9473 87.24 89.5773 86.83L90.5973 85.435ZM66.1948 101.87C66.4748 101.87 66.7648 101.8 67.0648 101.66C67.3648 101.52 67.6598 101.275 67.9498 100.925C67.8898 100.555 67.7998 100.245 67.6798 99.995C67.5698 99.735 67.4348 99.53 67.2748 99.38C67.1248 99.22 66.9598 99.11 66.7798 99.05C66.5998 98.98 66.4148 98.945 66.2248 98.945C66.0348 98.945 65.8498 98.975 65.6698 99.035C65.4998 99.095 65.3448 99.19 65.2048 99.32C65.0748 99.44 64.9698 99.6 64.8898 99.8C64.8098 99.99 64.7698 100.22 64.7698 100.49C64.7698 100.98 64.8998 101.335 65.1598 101.555C65.4198 101.765 65.7648 101.87 66.1948 101.87ZM64.0648 104.72C64.2648 104.9 64.5148 105.06 64.8148 105.2C65.1148 105.33 65.4248 105.395 65.7448 105.395C66.0348 105.395 66.3098 105.345 66.5698 105.245C66.8398 105.135 67.0748 104.965 67.2748 104.735C67.4848 104.495 67.6548 104.185 67.7848 103.805C67.9148 103.415 67.9898 102.94 68.0098 102.38C67.6598 102.71 67.2748 102.97 66.8548 103.16C66.4448 103.34 66.0648 103.43 65.7148 103.43C65.2948 103.43 64.9048 103.37 64.5448 103.25C64.1848 103.13 63.8698 102.95 63.5998 102.71C63.3398 102.47 63.1348 102.165 62.9848 101.795C62.8348 101.425 62.7598 100.99 62.7598 100.49C62.7598 100 62.8498 99.56 63.0298 99.17C63.2198 98.77 63.4698 98.43 63.7798 98.15C64.0998 97.87 64.4648 97.66 64.8748 97.52C65.2848 97.37 65.7198 97.295 66.1798 97.295C66.6698 97.295 67.1448 97.385 67.6048 97.565C68.0748 97.745 68.4898 98.025 68.8498 98.405C69.2098 98.785 69.4948 99.275 69.7048 99.875C69.9248 100.465 70.0348 101.18 70.0348 102.02C70.0348 102.91 69.9198 103.68 69.6898 104.33C69.4598 104.98 69.1548 105.515 68.7748 105.935C68.3948 106.355 67.9548 106.67 67.4548 106.88C66.9648 107.08 66.4598 107.18 65.9398 107.18C65.2598 107.18 64.6648 107.065 64.1548 106.835C63.6448 106.605 63.2248 106.34 62.8948 106.04L64.0648 104.72ZM73.779 104.315C73.779 104.735 73.944 105.065 74.274 105.305C74.604 105.535 75.014 105.65 75.504 105.65C75.954 105.65 76.314 105.555 76.584 105.365C76.864 105.165 77.004 104.865 77.004 104.465C77.004 104.245 76.949 104.06 76.839 103.91C76.729 103.76 76.569 103.625 76.359 103.505C76.159 103.375 75.919 103.26 75.639 103.16C75.359 103.05 75.049 102.93 74.709 102.8C74.439 103 74.214 103.225 74.034 103.475C73.864 103.725 73.779 104.005 73.779 104.315ZM76.104 101.45C76.584 101.02 76.824 100.555 76.824 100.055C76.824 99.685 76.709 99.39 76.479 99.17C76.249 98.94 75.914 98.825 75.474 98.825C75.124 98.825 74.824 98.915 74.574 99.095C74.334 99.275 74.214 99.55 74.214 99.92C74.214 100.31 74.389 100.615 74.739 100.835C75.089 101.055 75.544 101.26 76.104 101.45ZM71.874 104.57C71.874 104.28 71.919 104.02 72.009 103.79C72.109 103.55 72.239 103.335 72.399 103.145C72.569 102.955 72.759 102.785 72.969 102.635C73.189 102.485 73.424 102.35 73.674 102.23V102.17C73.274 101.89 72.939 101.575 72.669 101.225C72.409 100.865 72.279 100.43 72.279 99.92C72.279 99.52 72.359 99.16 72.519 98.84C72.679 98.51 72.899 98.23 73.179 98C73.469 97.77 73.814 97.595 74.214 97.475C74.614 97.355 75.049 97.295 75.519 97.295C75.999 97.295 76.429 97.36 76.809 97.49C77.199 97.61 77.529 97.785 77.799 98.015C78.069 98.235 78.274 98.51 78.414 98.84C78.564 99.16 78.639 99.515 78.639 99.905C78.639 100.355 78.504 100.755 78.234 101.105C77.974 101.455 77.654 101.75 77.274 101.99V102.05C77.524 102.17 77.759 102.31 77.979 102.47C78.199 102.62 78.389 102.795 78.549 102.995C78.709 103.195 78.834 103.425 78.924 103.685C79.014 103.935 79.059 104.22 79.059 104.54C79.059 104.92 78.979 105.27 78.819 105.59C78.659 105.91 78.424 106.19 78.114 106.43C77.814 106.66 77.439 106.845 76.989 106.985C76.539 107.115 76.024 107.18 75.444 107.18C74.894 107.18 74.399 107.12 73.959 107C73.519 106.87 73.144 106.69 72.834 106.46C72.524 106.23 72.284 105.955 72.114 105.635C71.954 105.315 71.874 104.96 71.874 104.57ZM82.8481 107C82.8881 106.21 82.9631 105.485 83.0731 104.825C83.1931 104.155 83.3581 103.52 83.5681 102.92C83.7881 102.31 84.0681 101.72 84.4081 101.15C84.7481 100.57 85.1681 99.965 85.6681 99.335H80.8831V97.475H88.0381V98.825C87.4381 99.495 86.9531 100.125 86.5831 100.715C86.2131 101.295 85.9231 101.9 85.7131 102.53C85.5031 103.15 85.3531 103.82 85.2631 104.54C85.1731 105.25 85.1081 106.07 85.0681 107H82.8481Z" fill="#F0E442"/>
<path d="M11.285 88.585V90.76H9.08V80.56H10.88L11.045 81.31H11.09C11.39 81.04 11.735 80.82 12.125 80.65C12.515 80.47 12.91 80.38 13.31 80.38C13.77 80.38 14.185 80.47 14.555 80.65C14.925 80.83 15.24 81.085 15.5 81.415C15.76 81.745 15.955 82.145 16.085 82.615C16.225 83.075 16.295 83.59 16.295 84.16C16.295 84.8 16.205 85.37 16.025 85.87C15.845 86.36 15.605 86.78 15.305 87.13C15.005 87.47 14.66 87.73 14.27 87.91C13.89 88.09 13.49 88.18 13.07 88.18C12.39 88.18 11.77 87.91 11.21 87.37L11.285 88.585ZM11.285 85.885C11.495 86.065 11.71 86.195 11.93 86.275C12.16 86.345 12.37 86.38 12.56 86.38C12.98 86.38 13.33 86.21 13.61 85.87C13.89 85.52 14.03 84.96 14.03 84.19C14.03 82.85 13.575 82.18 12.665 82.18C12.195 82.18 11.735 82.41 11.285 82.87V85.885ZM18.7341 80.56H20.5341L20.7141 82.18H20.7591C21.1291 81.57 21.5741 81.12 22.0941 80.83C22.6141 80.53 23.1741 80.38 23.7741 80.38C24.1041 80.38 24.3691 80.405 24.5691 80.455C24.7791 80.505 24.9941 80.58 25.2141 80.68L24.7641 82.525C24.5341 82.455 24.3241 82.405 24.1341 82.375C23.9541 82.335 23.7241 82.315 23.4441 82.315C22.9841 82.315 22.5291 82.45 22.0791 82.72C21.6391 82.99 21.2591 83.46 20.9391 84.13V88H18.7341V80.56ZM27.1733 80.56H32.3633V88H30.1583V82.285H27.1733V80.56ZM31.1633 79.465C30.7333 79.465 30.3783 79.345 30.0983 79.105C29.8283 78.865 29.6933 78.54 29.6933 78.13C29.6933 77.72 29.8283 77.39 30.0983 77.14C30.3783 76.88 30.7333 76.75 31.1633 76.75C31.5933 76.75 31.9433 76.88 32.2133 77.14C32.4933 77.39 32.6333 77.72 32.6333 78.13C32.6333 78.54 32.4933 78.865 32.2133 79.105C31.9433 79.345 31.5933 79.465 31.1633 79.465ZM36.0624 80.56H37.8624L38.0274 81.55H38.0874C38.4074 81.23 38.7724 80.955 39.1824 80.725C39.6024 80.495 40.0924 80.38 40.6524 80.38C41.4924 80.38 42.1074 80.65 42.4974 81.19C42.8874 81.73 43.0824 82.47 43.0824 83.41V88H40.8774V83.695C40.8774 83.195 40.7974 82.83 40.6374 82.6C40.4774 82.37 40.1924 82.255 39.7824 82.255C39.4824 82.255 39.2174 82.32 38.9874 82.45C38.7674 82.58 38.5274 82.775 38.2674 83.035V88H36.0624V80.56ZM46.5866 82.285H44.7116V80.65L46.6916 80.56L46.9766 78.58H48.7916V80.56H51.9416V82.285H48.7916V84.895C48.7916 85.465 48.9166 85.87 49.1666 86.11C49.4166 86.34 49.8116 86.455 50.3516 86.455C50.6416 86.455 50.9066 86.43 51.1466 86.38C51.3866 86.33 51.6166 86.265 51.8366 86.185L52.2266 87.775C51.8966 87.875 51.5266 87.965 51.1166 88.045C50.7166 88.135 50.2766 88.18 49.7966 88.18C49.2066 88.18 48.7066 88.1 48.2966 87.94C47.8866 87.78 47.5516 87.56 47.2916 87.28C47.0416 86.99 46.8616 86.645 46.7516 86.245C46.6416 85.845 46.5866 85.4 46.5866 84.91V82.285ZM11.285 107.585V109.76H9.08V99.56H10.88L11.045 100.31H11.09C11.39 100.04 11.735 99.82 12.125 99.65C12.515 99.47 12.91 99.38 13.31 99.38C13.77 99.38 14.185 99.47 14.555 99.65C14.925 99.83 15.24 100.085 15.5 100.415C15.76 100.745 15.955 101.145 16.085 101.615C16.225 102.075 16.295 102.59 16.295 103.16C16.295 103.8 16.205 104.37 16.025 104.87C15.845 105.36 15.605 105.78 15.305 106.13C15.005 106.47 14.66 106.73 14.27 106.91C13.89 107.09 13.49 107.18 13.07 107.18C12.39 107.18 11.77 106.91 11.21 106.37L11.285 107.585ZM11.285 104.885C11.495 105.065 11.71 105.195 11.93 105.275C12.16 105.345 12.37 105.38 12.56 105.38C12.98 105.38 13.33 105.21 13.61 104.87C13.89 104.52 14.03 103.96 14.03 103.19C14.03 101.85 13.575 101.18 12.665 101.18C12.195 101.18 11.735 101.41 11.285 101.87V104.885ZM18.7341 99.56H20.5341L20.7141 101.18H20.7591C21.1291 100.57 21.5741 100.12 22.0941 99.83C22.6141 99.53 23.1741 99.38 23.7741 99.38C24.1041 99.38 24.3691 99.405 24.5691 99.455C24.7791 99.505 24.9941 99.58 25.2141 99.68L24.7641 101.525C24.5341 101.455 24.3241 101.405 24.1341 101.375C23.9541 101.335 23.7241 101.315 23.4441 101.315C22.9841 101.315 22.5291 101.45 22.0791 101.72C21.6391 101.99 21.2591 102.46 20.9391 103.13V107H18.7341V99.56ZM27.1733 99.56H32.3633V107H30.1583V101.285H27.1733V99.56ZM31.1633 98.465C30.7333 98.465 30.3783 98.345 30.0983 98.105C29.8283 97.865 29.6933 97.54 29.6933 97.13C29.6933 96.72 29.8283 96.39 30.0983 96.14C30.3783 95.88 30.7333 95.75 31.1633 95.75C31.5933 95.75 31.9433 95.88 32.2133 96.14C32.4933 96.39 32.6333 96.72 32.6333 97.13C32.6333 97.54 32.4933 97.865 32.2133 98.105C31.9433 98.345 31.5933 98.465 31.1633 98.465ZM36.0624 99.56H37.8624L38.0274 100.55H38.0874C38.4074 100.23 38.7724 99.955 39.1824 99.725C39.6024 99.495 40.0924 99.38 40.6524 99.38C41.4924 99.38 42.1074 99.65 42.4974 100.19C42.8874 100.73 43.0824 101.47 43.0824 102.41V107H40.8774V102.695C40.8774 102.195 40.7974 101.83 40.6374 101.6C40.4774 101.37 40.1924 101.255 39.7824 101.255C39.4824 101.255 39.2174 101.32 38.9874 101.45C38.7674 101.58 38.5274 101.775 38.2674 102.035V107H36.0624V99.56ZM46.5866 101.285H44.7116V99.65L46.6916 99.56L46.9766 97.58H48.7916V99.56H51.9416V101.285H48.7916V103.895C48.7916 104.465 48.9166 104.87 49.1666 105.11C49.4166 105.34 49.8116 105.455 50.3516 105.455C50.6416 105.455 50.9066 105.43 51.1466 105.38C51.3866 105.33 51.6166 105.265 51.8366 105.185L52.2266 106.775C51.8966 106.875 51.5266 106.965 51.1166 107.045C50.7166 107.135 50.2766 107.18 49.7966 107.18C49.2066 107.18 48.7066 107.1 48.2966 106.94C47.8866 106.78 47.5516 106.56 47.2916 106.28C47.0416 105.99 46.8616 105.645 46.7516 105.245C46.6416 104.845 46.5866 104.4 46.5866 103.91V101.285Z" fill="#56B4E9"/>
<path d="M108.121 80.56H113.311V88H111.106V82.285H108.121V80.56ZM112.111 79.465C111.681 79.465 111.326 79.345 111.046 79.105C110.776 78.865 110.641 78.54 110.641 78.13C110.641 77.72 110.776 77.39 111.046 77.14C111.326 76.88 111.681 76.75 112.111 76.75C112.541 76.75 112.891 76.88 113.161 77.14C113.441 77.39 113.581 77.72 113.581 78.13C113.581 78.54 113.441 78.865 113.161 79.105C112.891 79.345 112.541 79.465 112.111 79.465ZM117.01 80.56H118.81L118.975 81.55H119.035C119.355 81.23 119.72 80.955 120.13 80.725C120.55 80.495 121.04 80.38 121.6 80.38C122.44 80.38 123.055 80.65 123.445 81.19C123.835 81.73 124.03 82.47 124.03 83.41V88H121.825V83.695C121.825 83.195 121.745 82.83 121.585 82.6C121.425 82.37 121.14 82.255 120.73 82.255C120.43 82.255 120.165 82.32 119.935 82.45C119.715 82.58 119.475 82.775 119.215 83.035V88H117.01V80.56ZM99.1264 99.56H104.316V107H102.111V101.285H99.1264V99.56ZM103.116 98.465C102.686 98.465 102.331 98.345 102.051 98.105C101.781 97.865 101.646 97.54 101.646 97.13C101.646 96.72 101.781 96.39 102.051 96.14C102.331 95.88 102.686 95.75 103.116 95.75C103.546 95.75 103.896 95.88 104.166 96.14C104.446 96.39 104.586 96.72 104.586 97.13C104.586 97.54 104.446 97.865 104.166 98.105C103.896 98.345 103.546 98.465 103.116 98.465ZM108.016 99.56H109.816L109.981 100.55H110.041C110.361 100.23 110.726 99.955 111.136 99.725C111.556 99.495 112.046 99.38 112.606 99.38C113.446 99.38 114.061 99.65 114.451 100.19C114.841 100.73 115.036 101.47 115.036 102.41V107H112.831V102.695C112.831 102.195 112.751 101.83 112.591 101.6C112.431 101.37 112.146 101.255 111.736 101.255C111.436 101.255 111.171 101.32 110.941 101.45C110.721 101.58 110.481 101.775 110.221 102.035V107H108.016V99.56Z" fill="#E69F00"/>
<line y1="122.5" x2="610.001" y2="122.5" stroke="white"/>
<path d="M11.5004 143.68C10.9204 143.68 10.3854 143.565 9.8954 143.335C9.4154 143.095 9.0004 142.755 8.6504 142.315C8.3104 141.875 8.0454 141.34 7.8554 140.71C7.6654 140.08 7.5704 139.365 7.5704 138.565C7.5704 137.765 7.6654 137.055 7.8554 136.435C8.0454 135.805 8.3104 135.28 8.6504 134.86C9.0004 134.43 9.4154 134.105 9.8954 133.885C10.3854 133.655 10.9204 133.54 11.5004 133.54C12.0804 133.54 12.6104 133.655 13.0904 133.885C13.5804 134.105 13.9954 134.43 14.3354 134.86C14.6854 135.29 14.9554 135.82 15.1454 136.45C15.3354 137.07 15.4304 137.775 15.4304 138.565C15.4304 139.365 15.3354 140.08 15.1454 140.71C14.9554 141.34 14.6854 141.875 14.3354 142.315C13.9954 142.755 13.5804 143.095 13.0904 143.335C12.6104 143.565 12.0804 143.68 11.5004 143.68ZM11.5004 141.775C12.0104 141.775 12.4154 141.49 12.7154 140.92C13.0154 140.34 13.1654 139.555 13.1654 138.565C13.1654 137.585 13.0154 136.82 12.7154 136.27C12.4154 135.72 12.0104 135.445 11.5004 135.445C10.9904 135.445 10.5854 135.72 10.2854 136.27C9.9854 136.82 9.8354 137.585 9.8354 138.565C9.8354 139.555 9.9854 140.34 10.2854 140.92C10.5854 141.49 10.9904 141.775 11.5004 141.775ZM23.8695 143.5H22.0695L21.9045 142.435H21.8445C21.5145 142.815 21.1495 143.12 20.7495 143.35C20.3495 143.57 19.8795 143.68 19.3395 143.68C18.4895 143.68 17.8745 143.41 17.4945 142.87C17.1145 142.33 16.9245 141.59 16.9245 140.65V136.06H19.1295V140.365C19.1295 140.865 19.2045 141.23 19.3545 141.46C19.5045 141.69 19.7895 141.805 20.2095 141.805C20.4895 141.805 20.7345 141.745 20.9445 141.625C21.1645 141.505 21.4045 141.28 21.6645 140.95V136.06H23.8695V143.5ZM27.5987 137.785H25.7237V136.15L27.7037 136.06L27.9887 134.08H29.8037V136.06H32.9537V137.785H29.8037V140.395C29.8037 140.965 29.9287 141.37 30.1787 141.61C30.4287 141.84 30.8237 141.955 31.3637 141.955C31.6537 141.955 31.9187 141.93 32.1587 141.88C32.3987 141.83 32.6287 141.765 32.8487 141.685L33.2387 143.275C32.9087 143.375 32.5387 143.465 32.1287 143.545C31.7287 143.635 31.2887 143.68 30.8087 143.68C30.2187 143.68 29.7187 143.6 29.3087 143.44C28.8987 143.28 28.5637 143.06 28.3037 142.78C28.0537 142.49 27.8737 142.145 27.7637 141.745C27.6537 141.345 27.5987 140.9 27.5987 140.41V137.785ZM37.2678 144.085V146.26H35.0628V136.06H36.8628L37.0278 136.81H37.0728C37.3728 136.54 37.7178 136.32 38.1078 136.15C38.4978 135.97 38.8928 135.88 39.2928 135.88C39.7528 135.88 40.1678 135.97 40.5378 136.15C40.9078 136.33 41.2228 136.585 41.4828 136.915C41.7428 137.245 41.9378 137.645 42.0678 138.115C42.2078 138.575 42.2778 139.09 42.2778 139.66C42.2778 140.3 42.1878 140.87 42.0078 141.37C41.8278 141.86 41.5878 142.28 41.2878 142.63C40.9878 142.97 40.6428 143.23 40.2528 143.41C39.8728 143.59 39.4728 143.68 39.0528 143.68C38.3728 143.68 37.7528 143.41 37.1928 142.87L37.2678 144.085ZM37.2678 141.385C37.4778 141.565 37.6928 141.695 37.9128 141.775C38.1428 141.845 38.3528 141.88 38.5428 141.88C38.9628 141.88 39.3128 141.71 39.5928 141.37C39.8728 141.02 40.0128 140.46 40.0128 139.69C40.0128 138.35 39.5578 137.68 38.6478 137.68C38.1778 137.68 37.7178 137.91 37.2678 138.37V141.385ZM50.852 143.5H49.052L48.887 142.435H48.827C48.497 142.815 48.132 143.12 47.732 143.35C47.332 143.57 46.862 143.68 46.322 143.68C45.472 143.68 44.857 143.41 44.477 142.87C44.097 142.33 43.907 141.59 43.907 140.65V136.06H46.112V140.365C46.112 140.865 46.187 141.23 46.337 141.46C46.487 141.69 46.772 141.805 47.192 141.805C47.472 141.805 47.717 141.745 47.927 141.625C48.147 141.505 48.387 141.28 48.647 140.95V136.06H50.852V143.5ZM54.5811 137.785H52.7061V136.15L54.6861 136.06L54.9711 134.08H56.7861V136.06H59.9361V137.785H56.7861V140.395C56.7861 140.965 56.9111 141.37 57.1611 141.61C57.4111 141.84 57.8061 141.955 58.3461 141.955C58.6361 141.955 58.9011 141.93 59.1411 141.88C59.3811 141.83 59.6111 141.765 59.8311 141.685L60.2211 143.275C59.8911 143.375 59.5211 143.465 59.1111 143.545C58.7111 143.635 58.2711 143.68 57.7911 143.68C57.2011 143.68 56.7011 143.6 56.2911 143.44C55.8811 143.28 55.5461 143.06 55.2861 142.78C55.0361 142.49 54.8561 142.145 54.7461 141.745C54.6361 141.345 54.5811 140.9 54.5811 140.41V137.785Z" fill="white"/>
<path d="M8.6204 157.72H15.0704V159.58H10.8254V161.845H14.4404V163.705H10.8254V167.5H8.6204V157.72ZM16.9095 165.43C16.9095 165.01 16.9995 164.645 17.1795 164.335C17.3595 164.015 17.6445 163.745 18.0345 163.525C18.4345 163.305 18.9445 163.13 19.5645 163C20.1845 162.86 20.9345 162.765 21.8145 162.715C21.7745 162.375 21.6245 162.11 21.3645 161.92C21.1145 161.73 20.7345 161.635 20.2245 161.635C19.8645 161.635 19.4995 161.7 19.1295 161.83C18.7695 161.95 18.3795 162.115 17.9595 162.325L17.1795 160.885C17.6895 160.595 18.2345 160.355 18.8145 160.165C19.4045 159.975 20.0195 159.88 20.6595 159.88C21.6995 159.88 22.5195 160.155 23.1195 160.705C23.7195 161.255 24.0195 162.1 24.0195 163.24V167.5H22.2195L22.0545 166.66H21.9945C21.6145 166.95 21.1995 167.195 20.7495 167.395C20.2995 167.585 19.8345 167.68 19.3545 167.68C18.9745 167.68 18.6345 167.62 18.3345 167.5C18.0345 167.39 17.7795 167.235 17.5695 167.035C17.3595 166.825 17.1945 166.585 17.0745 166.315C16.9645 166.045 16.9095 165.75 16.9095 165.43ZM19.0245 165.265C19.0245 165.505 19.1145 165.685 19.2945 165.805C19.4845 165.915 19.7395 165.97 20.0595 165.97C20.3895 165.97 20.6995 165.905 20.9895 165.775C21.2795 165.635 21.5545 165.465 21.8145 165.265V164.035C21.2645 164.065 20.8095 164.115 20.4495 164.185C20.0895 164.255 19.8045 164.345 19.5945 164.455C19.3845 164.555 19.2345 164.675 19.1445 164.815C19.0645 164.955 19.0245 165.105 19.0245 165.265ZM25.9187 156.985H30.2837V164.68C30.2837 164.91 30.3137 165.105 30.3737 165.265C30.4437 165.415 30.5337 165.54 30.6437 165.64C30.7637 165.73 30.8937 165.795 31.0337 165.835C31.1837 165.875 31.3337 165.895 31.4837 165.895C31.6537 165.895 31.8337 165.88 32.0237 165.85C32.2137 165.81 32.4237 165.745 32.6537 165.655L33.1487 167.275C32.9487 167.335 32.7637 167.39 32.5937 167.44C32.4237 167.49 32.2537 167.53 32.0837 167.56C31.9137 167.6 31.7337 167.63 31.5437 167.65C31.3537 167.67 31.1437 167.68 30.9137 167.68C29.9737 167.68 29.2637 167.405 28.7837 166.855C28.3137 166.295 28.0787 165.54 28.0787 164.59V158.725H25.9187V156.985ZM35.7678 165.16C36.1978 165.43 36.6278 165.645 37.0578 165.805C37.4978 165.965 37.9678 166.045 38.4678 166.045C38.9778 166.045 39.3428 165.99 39.5628 165.88C39.7828 165.77 39.8928 165.615 39.8928 165.415C39.8928 165.185 39.7078 165 39.3378 164.86C38.9778 164.71 38.4978 164.55 37.8978 164.38C37.5678 164.29 37.2428 164.185 36.9228 164.065C36.6128 163.935 36.3328 163.785 36.0828 163.615C35.8328 163.435 35.6278 163.23 35.4678 163C35.3178 162.77 35.2428 162.505 35.2428 162.205C35.2428 161.865 35.3228 161.55 35.4828 161.26C35.6428 160.97 35.8678 160.725 36.1578 160.525C36.4578 160.325 36.8178 160.17 37.2378 160.06C37.6678 159.94 38.1478 159.88 38.6778 159.88C39.3378 159.88 39.9378 159.99 40.4778 160.21C41.0278 160.42 41.4978 160.65 41.8878 160.9L40.8978 162.22C40.5578 162.02 40.2078 161.855 39.8478 161.725C39.4878 161.585 39.1128 161.515 38.7228 161.515C38.2528 161.515 37.9178 161.565 37.7178 161.665C37.5278 161.765 37.4328 161.91 37.4328 162.1C37.4328 162.21 37.4828 162.31 37.5828 162.4C37.6828 162.49 37.8178 162.57 37.9878 162.64C38.1578 162.71 38.3578 162.78 38.5878 162.85C38.8278 162.91 39.0778 162.975 39.3378 163.045C39.7078 163.145 40.0578 163.26 40.3878 163.39C40.7178 163.51 41.0078 163.655 41.2578 163.825C41.5078 163.995 41.7078 164.2 41.8578 164.44C42.0078 164.68 42.0828 164.96 42.0828 165.28C42.0828 165.62 42.0028 165.935 41.8428 166.225C41.6828 166.515 41.4478 166.77 41.1378 166.99C40.8378 167.2 40.4578 167.37 39.9978 167.5C39.5478 167.62 39.0228 167.68 38.4228 167.68C37.7528 167.68 37.0978 167.57 36.4578 167.35C35.8178 167.13 35.2578 166.86 34.7778 166.54L35.7678 165.16ZM43.802 163.78C43.802 163.17 43.907 162.625 44.117 162.145C44.337 161.665 44.627 161.26 44.987 160.93C45.347 160.59 45.757 160.33 46.217 160.15C46.687 159.97 47.172 159.88 47.672 159.88C48.242 159.88 48.747 159.97 49.187 160.15C49.627 160.33 49.992 160.58 50.282 160.9C50.572 161.22 50.792 161.6 50.942 162.04C51.092 162.47 51.167 162.94 51.167 163.45C51.167 163.65 51.157 163.84 51.137 164.02C51.117 164.2 51.097 164.335 51.077 164.425H46.067C46.147 164.985 46.387 165.39 46.787 165.64C47.197 165.88 47.677 166 48.227 166C48.567 166 48.887 165.96 49.187 165.88C49.497 165.79 49.817 165.66 50.147 165.49L50.867 166.81C50.447 167.08 49.977 167.295 49.457 167.455C48.937 167.605 48.427 167.68 47.927 167.68C47.347 167.68 46.807 167.595 46.307 167.425C45.807 167.245 45.372 166.99 45.002 166.66C44.632 166.32 44.337 165.91 44.117 165.43C43.907 164.95 43.802 164.4 43.802 163.78ZM49.172 162.97C49.172 162.55 49.057 162.21 48.827 161.95C48.597 161.69 48.227 161.56 47.717 161.56C47.317 161.56 46.962 161.675 46.652 161.905C46.342 162.135 46.137 162.49 46.037 162.97H49.172ZM8.6204 176.72H15.0704V178.58H10.8254V180.845H14.4404V182.705H10.8254V186.5H8.6204V176.72ZM16.9095 184.43C16.9095 184.01 16.9995 183.645 17.1795 183.335C17.3595 183.015 17.6445 182.745 18.0345 182.525C18.4345 182.305 18.9445 182.13 19.5645 182C20.1845 181.86 20.9345 181.765 21.8145 181.715C21.7745 181.375 21.6245 181.11 21.3645 180.92C21.1145 180.73 20.7345 180.635 20.2245 180.635C19.8645 180.635 19.4995 180.7 19.1295 180.83C18.7695 180.95 18.3795 181.115 17.9595 181.325L17.1795 179.885C17.6895 179.595 18.2345 179.355 18.8145 179.165C19.4045 178.975 20.0195 178.88 20.6595 178.88C21.6995 178.88 22.5195 179.155 23.1195 179.705C23.7195 180.255 24.0195 181.1 24.0195 182.24V186.5H22.2195L22.0545 185.66H21.9945C21.6145 185.95 21.1995 186.195 20.7495 186.395C20.2995 186.585 19.8345 186.68 19.3545 186.68C18.9745 186.68 18.6345 186.62 18.3345 186.5C18.0345 186.39 17.7795 186.235 17.5695 186.035C17.3595 185.825 17.1945 185.585 17.0745 185.315C16.9645 185.045 16.9095 184.75 16.9095 184.43ZM19.0245 184.265C19.0245 184.505 19.1145 184.685 19.2945 184.805C19.4845 184.915 19.7395 184.97 20.0595 184.97C20.3895 184.97 20.6995 184.905 20.9895 184.775C21.2795 184.635 21.5545 184.465 21.8145 184.265V183.035C21.2645 183.065 20.8095 183.115 20.4495 183.185C20.0895 183.255 19.8045 183.345 19.5945 183.455C19.3845 183.555 19.2345 183.675 19.1445 183.815C19.0645 183.955 19.0245 184.105 19.0245 184.265ZM25.9187 175.985H30.2837V183.68C30.2837 183.91 30.3137 184.105 30.3737 184.265C30.4437 184.415 30.5337 184.54 30.6437 184.64C30.7637 184.73 30.8937 184.795 31.0337 184.835C31.1837 184.875 31.3337 184.895 31.4837 184.895C31.6537 184.895 31.8337 184.88 32.0237 184.85C32.2137 184.81 32.4237 184.745 32.6537 184.655L33.1487 186.275C32.9487 186.335 32.7637 186.39 32.5937 186.44C32.4237 186.49 32.2537 186.53 32.0837 186.56C31.9137 186.6 31.7337 186.63 31.5437 186.65C31.3537 186.67 31.1437 186.68 30.9137 186.68C29.9737 186.68 29.2637 186.405 28.7837 185.855C28.3137 185.295 28.0787 184.54 28.0787 183.59V177.725H25.9187V175.985ZM35.7678 184.16C36.1978 184.43 36.6278 184.645 37.0578 184.805C37.4978 184.965 37.9678 185.045 38.4678 185.045C38.9778 185.045 39.3428 184.99 39.5628 184.88C39.7828 184.77 39.8928 184.615 39.8928 184.415C39.8928 184.185 39.7078 184 39.3378 183.86C38.9778 183.71 38.4978 183.55 37.8978 183.38C37.5678 183.29 37.2428 183.185 36.9228 183.065C36.6128 182.935 36.3328 182.785 36.0828 182.615C35.8328 182.435 35.6278 182.23 35.4678 182C35.3178 181.77 35.2428 181.505 35.2428 181.205C35.2428 180.865 35.3228 180.55 35.4828 180.26C35.6428 179.97 35.8678 179.725 36.1578 179.525C36.4578 179.325 36.8178 179.17 37.2378 179.06C37.6678 178.94 38.1478 178.88 38.6778 178.88C39.3378 178.88 39.9378 178.99 40.4778 179.21C41.0278 179.42 41.4978 179.65 41.8878 179.9L40.8978 181.22C40.5578 181.02 40.2078 180.855 39.8478 180.725C39.4878 180.585 39.1128 180.515 38.7228 180.515C38.2528 180.515 37.9178 180.565 37.7178 180.665C37.5278 180.765 37.4328 180.91 37.4328 181.1C37.4328 181.21 37.4828 181.31 37.5828 181.4C37.6828 181.49 37.8178 181.57 37.9878 181.64C38.1578 181.71 38.3578 181.78 38.5878 181.85C38.8278 181.91 39.0778 181.975 39.3378 182.045C39.7078 182.145 40.0578 182.26 40.3878 182.39C40.7178 182.51 41.0078 182.655 41.2578 182.825C41.5078 182.995 41.7078 183.2 41.8578 183.44C42.0078 183.68 42.0828 183.96 42.0828 184.28C42.0828 184.62 42.0028 184.935 41.8428 185.225C41.6828 185.515 41.4478 185.77 41.1378 185.99C40.8378 186.2 40.4578 186.37 39.9978 186.5C39.5478 186.62 39.0228 186.68 38.4228 186.68C37.7528 186.68 37.0978 186.57 36.4578 186.35C35.8178 186.13 35.2578 185.86 34.7778 185.54L35.7678 184.16ZM43.802 182.78C43.802 182.17 43.907 181.625 44.117 181.145C44.337 180.665 44.627 180.26 44.987 179.93C45.347 179.59 45.757 179.33 46.217 179.15C46.687 178.97 47.172 178.88 47.672 178.88C48.242 178.88 48.747 178.97 49.187 179.15C49.627 179.33 49.992 179.58 50.282 179.9C50.572 180.22 50.792 180.6 50.942 181.04C51.092 181.47 51.167 181.94 51.167 182.45C51.167 182.65 51.157 182.84 51.137 183.02C51.117 183.2 51.097 183.335 51.077 183.425H46.067C46.147 183.985 46.387 184.39 46.787 184.64C47.197 184.88 47.677 185 48.227 185C48.567 185 48.887 184.96 49.187 184.88C49.497 184.79 49.817 184.66 50.147 184.49L50.867 185.81C50.447 186.08 49.977 186.295 49.457 186.455C48.937 186.605 48.427 186.68 47.927 186.68C47.347 186.68 46.807 186.595 46.307 186.425C45.807 186.245 45.372 185.99 45.002 185.66C44.632 185.32 44.337 184.91 44.117 184.43C43.907 183.95 43.802 183.4 43.802 182.78ZM49.172 181.97C49.172 181.55 49.057 181.21 48.827 180.95C48.597 180.69 48.227 180.56 47.717 180.56C47.317 180.56 46.962 180.675 46.652 180.905C46.342 181.135 46.137 181.49 46.037 181.97H49.172Z" fill="white"/>
</svg>
