<svg width="432" height="158" viewBox="0 0 432 158" fill="none" xmlns="http://www.w3.org/2000/svg">
<rect width="432" height="158" fill="white"/>
<rect x="0.000183105" width="432" height="158" fill="black"/>
<path d="M11.7102 122.655C11.9002 122.655 12.0802 122.625 12.2502 122.565C12.4302 122.505 12.5852 122.415 12.7152 122.295C12.8552 122.165 12.9652 122.005 13.0452 121.815C13.1252 121.615 13.1652 121.38 13.1652 121.11C13.1652 120.62 13.0352 120.27 12.7752 120.06C12.5152 119.84 12.1752 119.73 11.7552 119.73C11.4752 119.73 11.1852 119.8 10.8852 119.94C10.5852 120.08 10.2902 120.32 10.0002 120.66C10.0602 121.04 10.1452 121.36 10.2552 121.62C10.3752 121.87 10.5102 122.075 10.6602 122.235C10.8102 122.385 10.9752 122.495 11.1552 122.565C11.3352 122.625 11.5202 122.655 11.7102 122.655ZM13.8852 116.88C13.6852 116.7 13.4352 116.545 13.1352 116.415C12.8352 116.275 12.5252 116.205 12.2052 116.205C11.9152 116.205 11.6352 116.26 11.3652 116.37C11.1052 116.47 10.8702 116.64 10.6602 116.88C10.4602 117.11 10.2952 117.415 10.1652 117.795C10.0352 118.175 9.96021 118.645 9.94021 119.205C10.2802 118.875 10.6552 118.62 11.0652 118.44C11.4852 118.26 11.8752 118.17 12.2352 118.17C12.6552 118.17 13.0402 118.23 13.3902 118.35C13.7502 118.47 14.0602 118.65 14.3202 118.89C14.5902 119.13 14.8002 119.435 14.9502 119.805C15.1002 120.175 15.1752 120.61 15.1752 121.11C15.1752 121.61 15.0802 122.055 14.8902 122.445C14.7102 122.835 14.4602 123.17 14.1402 123.45C13.8302 123.73 13.4702 123.945 13.0602 124.095C12.6502 124.235 12.2152 124.305 11.7552 124.305C11.2652 124.305 10.7902 124.215 10.3302 124.035C9.87021 123.855 9.46021 123.575 9.10021 123.195C8.74021 122.815 8.45021 122.33 8.23021 121.74C8.01021 121.14 7.90021 120.42 7.90021 119.58C7.90021 118.69 8.01521 117.92 8.24521 117.27C8.47521 116.62 8.78021 116.085 9.16021 115.665C9.55021 115.245 9.99021 114.935 10.4802 114.735C10.9702 114.525 11.4802 114.42 12.0102 114.42C12.6902 114.42 13.2852 114.535 13.7952 114.765C14.3052 114.985 14.7202 115.25 15.0402 115.56L13.8852 116.88ZM15.0552 141.34V143.125H8.23021V141.34H10.6902V135.835H8.72521V134.47C9.28521 134.37 9.76021 134.25 10.1502 134.11C10.5502 133.97 10.9252 133.8 11.2752 133.6H12.8952V141.34H15.0552Z" fill="white"/>
<path d="M11.5126 104.305C10.9326 104.305 10.3976 104.19 9.9076 103.96C9.4276 103.72 9.0126 103.38 8.6626 102.94C8.3226 102.5 8.0576 101.965 7.8676 101.335C7.6776 100.705 7.5826 99.99 7.5826 99.19C7.5826 98.39 7.6776 97.68 7.8676 97.06C8.0576 96.43 8.3226 95.905 8.6626 95.485C9.0126 95.055 9.4276 94.73 9.9076 94.51C10.3976 94.28 10.9326 94.165 11.5126 94.165C12.0926 94.165 12.6226 94.28 13.1026 94.51C13.5926 94.73 14.0076 95.055 14.3476 95.485C14.6976 95.915 14.9676 96.445 15.1576 97.075C15.3476 97.695 15.4426 98.4 15.4426 99.19C15.4426 99.99 15.3476 100.705 15.1576 101.335C14.9676 101.965 14.6976 102.5 14.3476 102.94C14.0076 103.38 13.5926 103.72 13.1026 103.96C12.6226 104.19 12.0926 104.305 11.5126 104.305ZM11.5126 102.4C12.0226 102.4 12.4276 102.115 12.7276 101.545C13.0276 100.965 13.1776 100.18 13.1776 99.19C13.1776 98.21 13.0276 97.445 12.7276 96.895C12.4276 96.345 12.0226 96.07 11.5126 96.07C11.0026 96.07 10.5976 96.345 10.2976 96.895C9.9976 97.445 9.8476 98.21 9.8476 99.19C9.8476 100.18 9.9976 100.965 10.2976 101.545C10.5976 102.115 11.0026 102.4 11.5126 102.4ZM23.8817 104.125H22.0817L21.9167 103.06H21.8567C21.5267 103.44 21.1617 103.745 20.7617 103.975C20.3617 104.195 19.8917 104.305 19.3517 104.305C18.5017 104.305 17.8867 104.035 17.5067 103.495C17.1267 102.955 16.9367 102.215 16.9367 101.275V96.685H19.1417V100.99C19.1417 101.49 19.2167 101.855 19.3667 102.085C19.5167 102.315 19.8017 102.43 20.2217 102.43C20.5017 102.43 20.7467 102.37 20.9567 102.25C21.1767 102.13 21.4167 101.905 21.6767 101.575V96.685H23.8817V104.125ZM27.6109 98.41H25.7359V96.775L27.7159 96.685L28.0009 94.705H29.8159V96.685H32.9659V98.41H29.8159V101.02C29.8159 101.59 29.9409 101.995 30.1909 102.235C30.4409 102.465 30.8359 102.58 31.3759 102.58C31.6659 102.58 31.9309 102.555 32.1709 102.505C32.4109 102.455 32.6409 102.39 32.8609 102.31L33.2509 103.9C32.9209 104 32.5509 104.09 32.1409 104.17C31.7409 104.26 31.3009 104.305 30.8209 104.305C30.2309 104.305 29.7309 104.225 29.3209 104.065C28.9109 103.905 28.5759 103.685 28.3159 103.405C28.0659 103.115 27.8859 102.77 27.7759 102.37C27.6659 101.97 27.6109 101.525 27.6109 101.035V98.41ZM37.28 104.71V106.885H35.075V96.685H36.875L37.04 97.435H37.085C37.385 97.165 37.73 96.945 38.12 96.775C38.51 96.595 38.905 96.505 39.305 96.505C39.765 96.505 40.18 96.595 40.55 96.775C40.92 96.955 41.235 97.21 41.495 97.54C41.755 97.87 41.95 98.27 42.08 98.74C42.22 99.2 42.29 99.715 42.29 100.285C42.29 100.925 42.2 101.495 42.02 101.995C41.84 102.485 41.6 102.905 41.3 103.255C41 103.595 40.655 103.855 40.265 104.035C39.885 104.215 39.485 104.305 39.065 104.305C38.385 104.305 37.765 104.035 37.205 103.495L37.28 104.71ZM37.28 102.01C37.49 102.19 37.705 102.32 37.925 102.4C38.155 102.47 38.365 102.505 38.555 102.505C38.975 102.505 39.325 102.335 39.605 101.995C39.885 101.645 40.025 101.085 40.025 100.315C40.025 98.975 39.57 98.305 38.66 98.305C38.19 98.305 37.73 98.535 37.28 98.995V102.01ZM50.8642 104.125H49.0642L48.8992 103.06H48.8392C48.5092 103.44 48.1442 103.745 47.7442 103.975C47.3442 104.195 46.8742 104.305 46.3342 104.305C45.4842 104.305 44.8692 104.035 44.4892 103.495C44.1092 102.955 43.9192 102.215 43.9192 101.275V96.685H46.1242V100.99C46.1242 101.49 46.1992 101.855 46.3492 102.085C46.4992 102.315 46.7842 102.43 47.2042 102.43C47.4842 102.43 47.7292 102.37 47.9392 102.25C48.1592 102.13 48.3992 101.905 48.6592 101.575V96.685H50.8642V104.125ZM54.5933 98.41H52.7183V96.775L54.6983 96.685L54.9833 94.705H56.7983V96.685H59.9483V98.41H56.7983V101.02C56.7983 101.59 56.9233 101.995 57.1733 102.235C57.4233 102.465 57.8183 102.58 58.3583 102.58C58.6483 102.58 58.9133 102.555 59.1533 102.505C59.3933 102.455 59.6233 102.39 59.8433 102.31L60.2333 103.9C59.9033 104 59.5333 104.09 59.1233 104.17C58.7233 104.26 58.2833 104.305 57.8033 104.305C57.2133 104.305 56.7133 104.225 56.3033 104.065C55.8933 103.905 55.5583 103.685 55.2983 103.405C55.0483 103.115 54.8683 102.77 54.7583 102.37C54.6483 101.97 54.5933 101.525 54.5933 101.035V98.41Z" fill="white"/>
<rect x="79.0002" width="353" height="31" fill="#333333"/>
<rect x="79.0002" width="353" height="31" fill="#333333"/>
<rect x="0.00134277" width="79" height="31" fill="#090808"/>
<path d="M12.1063 17.8101C12.1063 17.5513 11.9769 17.3486 11.7181 17.2021C11.4642 17.0508 11.0541 16.9165 10.4877 16.7993C8.60291 16.4038 7.66052 15.603 7.66052 14.397C7.66052 13.6938 7.95105 13.1079 8.5321 12.6392C9.11804 12.1655 9.8822 11.9287 10.8246 11.9287C11.8304 11.9287 12.6337 12.1655 13.2343 12.6392C13.8397 13.1128 14.1425 13.728 14.1425 14.4849H12.0258C12.0258 14.1821 11.9281 13.9331 11.7328 13.7378C11.5375 13.5376 11.2323 13.4375 10.8173 13.4375C10.4608 13.4375 10.1849 13.5181 9.98962 13.6792C9.79431 13.8403 9.69666 14.0454 9.69666 14.2944C9.69666 14.5288 9.80652 14.7192 10.0262 14.8657C10.2509 15.0073 10.6268 15.1318 11.1542 15.2393C11.6815 15.3418 12.1259 15.459 12.4872 15.5908C13.6053 16.001 14.1644 16.7114 14.1644 17.7222C14.1644 18.4448 13.8544 19.0308 13.2343 19.48C12.6141 19.9243 11.8134 20.1465 10.8319 20.1465C10.1678 20.1465 9.57703 20.0293 9.05945 19.7949C8.54675 19.5557 8.14392 19.231 7.85095 18.8208C7.55798 18.4058 7.4115 17.959 7.4115 17.4805H9.41833C9.43787 17.8564 9.57703 18.1445 9.83582 18.3447C10.0946 18.5449 10.4413 18.645 10.8759 18.645C11.2811 18.645 11.5863 18.5693 11.7914 18.418C12.0013 18.2617 12.1063 18.0591 12.1063 17.8101ZM18.83 18.4399C19.2206 18.4399 19.538 18.3325 19.7821 18.1177C20.0262 17.9028 20.1532 17.6172 20.163 17.2607H22.1478C22.1429 17.7979 21.9965 18.291 21.7084 18.7402C21.4203 19.1846 21.0248 19.5312 20.5219 19.7803C20.0238 20.0244 19.472 20.1465 18.8666 20.1465C17.7338 20.1465 16.8402 19.7876 16.1859 19.0698C15.5316 18.3472 15.2045 17.3511 15.2045 16.0815V15.9424C15.2045 14.7217 15.5292 13.7476 16.1786 13.02C16.828 12.2925 17.7191 11.9287 18.8519 11.9287C19.8431 11.9287 20.6366 12.2119 21.2323 12.7783C21.8329 13.3398 22.1381 14.0894 22.1478 15.0269H20.163C20.1532 14.6167 20.0262 14.2847 19.7821 14.0308C19.538 13.772 19.2157 13.6426 18.8153 13.6426C18.3221 13.6426 17.9486 13.8232 17.6947 14.1846C17.4457 14.541 17.3212 15.1221 17.3212 15.9277V16.1475C17.3212 16.9629 17.4457 17.5488 17.6947 17.9053C17.9437 18.2617 18.3221 18.4399 18.83 18.4399ZM27.8094 14.0601C27.5214 14.021 27.2675 14.0015 27.0477 14.0015C26.2469 14.0015 25.722 14.2725 25.473 14.8145V20H23.3563V12.0752H25.3558L25.4144 13.02C25.8392 12.2925 26.4276 11.9287 27.1796 11.9287C27.4139 11.9287 27.6337 11.9604 27.8387 12.0239L27.8094 14.0601ZM31.0687 20H28.9447V12.0752H31.0687V20ZM28.8202 10.0244C28.8202 9.70703 28.9252 9.4458 29.1351 9.24072C29.35 9.03564 29.6405 8.93311 30.0067 8.93311C30.368 8.93311 30.6561 9.03564 30.871 9.24072C31.0858 9.4458 31.1932 9.70703 31.1932 10.0244C31.1932 10.3467 31.0834 10.6104 30.8636 10.8154C30.6488 11.0205 30.3632 11.123 30.0067 11.123C29.6503 11.123 29.3622 11.0205 29.1425 10.8154C28.9276 10.6104 28.8202 10.3467 28.8202 10.0244ZM39.953 16.1108C39.953 17.3315 39.6747 18.3105 39.118 19.0479C38.5663 19.7803 37.8192 20.1465 36.8768 20.1465C36.076 20.1465 35.4291 19.8682 34.9359 19.3115V23.0469H32.8192V12.0752H34.7821L34.8553 12.8516C35.368 12.2363 36.037 11.9287 36.8622 11.9287C37.8387 11.9287 38.598 12.29 39.14 13.0127C39.682 13.7354 39.953 14.7314 39.953 16.001V16.1108ZM37.8363 15.957C37.8363 15.2197 37.7045 14.6509 37.4408 14.2505C37.182 13.8501 36.8036 13.6499 36.3055 13.6499C35.6415 13.6499 35.1849 13.9038 34.9359 14.4116V17.6562C35.1947 18.1787 35.6561 18.4399 36.3202 18.4399C37.3309 18.4399 37.8363 17.6123 37.8363 15.957ZM43.8055 10.127V12.0752H45.1605V13.6279H43.8055V17.583C43.8055 17.876 43.8617 18.0859 43.974 18.2129C44.0863 18.3398 44.3011 18.4033 44.6185 18.4033C44.8529 18.4033 45.0604 18.3862 45.2411 18.3521V19.9561C44.826 20.083 44.3988 20.1465 43.9594 20.1465C42.475 20.1465 41.7181 19.397 41.6888 17.8979V13.6279H40.5316V12.0752H41.6888V10.127H43.8055ZM46.4496 18.96C46.4496 18.623 46.5619 18.3496 46.7865 18.1396C47.016 17.9297 47.3016 17.8247 47.6434 17.8247C47.9901 17.8247 48.2758 17.9297 48.5004 18.1396C48.7299 18.3496 48.8446 18.623 48.8446 18.96C48.8446 19.292 48.7323 19.563 48.5077 19.7729C48.2831 19.978 47.995 20.0806 47.6434 20.0806C47.2968 20.0806 47.0111 19.978 46.7865 19.7729C46.5619 19.563 46.4496 19.292 46.4496 18.96ZM57.8387 16.1108C57.8387 17.3315 57.5604 18.3105 57.0038 19.0479C56.452 19.7803 55.705 20.1465 54.7626 20.1465C53.9618 20.1465 53.3148 19.8682 52.8217 19.3115V23.0469H50.705V12.0752H52.6678L52.7411 12.8516C53.2538 12.2363 53.9227 11.9287 54.7479 11.9287C55.7245 11.9287 56.4838 12.29 57.0258 13.0127C57.5677 13.7354 57.8387 14.7314 57.8387 16.001V16.1108ZM55.722 15.957C55.722 15.2197 55.5902 14.6509 55.3265 14.2505C55.0677 13.8501 54.6893 13.6499 54.1913 13.6499C53.5272 13.6499 53.0707 13.9038 52.8217 14.4116V17.6562C53.0804 18.1787 53.5419 18.4399 54.2059 18.4399C55.2167 18.4399 55.722 17.6123 55.722 15.957ZM62.0282 17.0044L63.493 12.0752H65.7635L62.5775 21.2305L62.4017 21.6479C61.9281 22.6831 61.1469 23.2007 60.058 23.2007C59.7504 23.2007 59.4379 23.1543 59.1205 23.0615V21.4575L59.4427 21.4648C59.8431 21.4648 60.141 21.4038 60.3363 21.2817C60.5365 21.1597 60.6927 20.957 60.8051 20.6738L61.0541 20.022L58.2782 12.0752H60.556L62.0282 17.0044Z" fill="white"/>
<line y1="88.5" x2="432" y2="88.5" stroke="white"/>
<path d="M10.2863 51.585V53.76H8.08134V43.56H9.88134L10.0463 44.31H10.0913C10.3913 44.04 10.7363 43.82 11.1263 43.65C11.5163 43.47 11.9113 43.38 12.3113 43.38C12.7713 43.38 13.1863 43.47 13.5563 43.65C13.9263 43.83 14.2413 44.085 14.5013 44.415C14.7613 44.745 14.9563 45.145 15.0863 45.615C15.2263 46.075 15.2963 46.59 15.2963 47.16C15.2963 47.8 15.2063 48.37 15.0263 48.87C14.8463 49.36 14.6063 49.78 14.3063 50.13C14.0063 50.47 13.6613 50.73 13.2713 50.91C12.8913 51.09 12.4913 51.18 12.0713 51.18C11.3913 51.18 10.7713 50.91 10.2113 50.37L10.2863 51.585ZM10.2863 48.885C10.4963 49.065 10.7113 49.195 10.9313 49.275C11.1613 49.345 11.3713 49.38 11.5613 49.38C11.9813 49.38 12.3313 49.21 12.6113 48.87C12.8913 48.52 13.0313 47.96 13.0313 47.19C13.0313 45.85 12.5763 45.18 11.6663 45.18C11.1963 45.18 10.7363 45.41 10.2863 45.87V48.885ZM17.7355 43.56H19.5355L19.7155 45.18H19.7605C20.1305 44.57 20.5755 44.12 21.0955 43.83C21.6155 43.53 22.1755 43.38 22.7755 43.38C23.1055 43.38 23.3705 43.405 23.5705 43.455C23.7805 43.505 23.9955 43.58 24.2155 43.68L23.7655 45.525C23.5355 45.455 23.3255 45.405 23.1355 45.375C22.9555 45.335 22.7255 45.315 22.4455 45.315C21.9855 45.315 21.5305 45.45 21.0805 45.72C20.6405 45.99 20.2605 46.46 19.9405 47.13V51H17.7355V43.56ZM26.1746 43.56H31.3646V51H29.1596V45.285H26.1746V43.56ZM30.1646 42.465C29.7346 42.465 29.3796 42.345 29.0996 42.105C28.8296 41.865 28.6946 41.54 28.6946 41.13C28.6946 40.72 28.8296 40.39 29.0996 40.14C29.3796 39.88 29.7346 39.75 30.1646 39.75C30.5946 39.75 30.9446 39.88 31.2146 40.14C31.4946 40.39 31.6346 40.72 31.6346 41.13C31.6346 41.54 31.4946 41.865 31.2146 42.105C30.9446 42.345 30.5946 42.465 30.1646 42.465ZM35.0638 43.56H36.8638L37.0288 44.55H37.0888C37.4088 44.23 37.7738 43.955 38.1838 43.725C38.6038 43.495 39.0938 43.38 39.6538 43.38C40.4938 43.38 41.1088 43.65 41.4988 44.19C41.8888 44.73 42.0838 45.47 42.0838 46.41V51H39.8788V46.695C39.8788 46.195 39.7988 45.83 39.6388 45.6C39.4788 45.37 39.1938 45.255 38.7838 45.255C38.4838 45.255 38.2188 45.32 37.9888 45.45C37.7688 45.58 37.5288 45.775 37.2688 46.035V51H35.0638V43.56ZM45.5879 45.285H43.7129V43.65L45.6929 43.56L45.9779 41.58H47.7929V43.56H50.9429V45.285H47.7929V47.895C47.7929 48.465 47.9179 48.87 48.1679 49.11C48.4179 49.34 48.8129 49.455 49.3529 49.455C49.6429 49.455 49.9079 49.43 50.1479 49.38C50.3879 49.33 50.6179 49.265 50.8379 49.185L51.2279 50.775C50.8979 50.875 50.5279 50.965 50.1179 51.045C49.7179 51.135 49.2779 51.18 48.7979 51.18C48.2079 51.18 47.7079 51.1 47.2979 50.94C46.8879 50.78 46.5529 50.56 46.2929 50.28C46.0429 49.99 45.8629 49.645 45.7529 49.245C45.6429 48.845 45.5879 48.4 45.5879 47.91V45.285ZM10.2863 70.585V72.76H8.08134V62.56H9.88134L10.0463 63.31H10.0913C10.3913 63.04 10.7363 62.82 11.1263 62.65C11.5163 62.47 11.9113 62.38 12.3113 62.38C12.7713 62.38 13.1863 62.47 13.5563 62.65C13.9263 62.83 14.2413 63.085 14.5013 63.415C14.7613 63.745 14.9563 64.145 15.0863 64.615C15.2263 65.075 15.2963 65.59 15.2963 66.16C15.2963 66.8 15.2063 67.37 15.0263 67.87C14.8463 68.36 14.6063 68.78 14.3063 69.13C14.0063 69.47 13.6613 69.73 13.2713 69.91C12.8913 70.09 12.4913 70.18 12.0713 70.18C11.3913 70.18 10.7713 69.91 10.2113 69.37L10.2863 70.585ZM10.2863 67.885C10.4963 68.065 10.7113 68.195 10.9313 68.275C11.1613 68.345 11.3713 68.38 11.5613 68.38C11.9813 68.38 12.3313 68.21 12.6113 67.87C12.8913 67.52 13.0313 66.96 13.0313 66.19C13.0313 64.85 12.5763 64.18 11.6663 64.18C11.1963 64.18 10.7363 64.41 10.2863 64.87V67.885ZM17.7355 62.56H19.5355L19.7155 64.18H19.7605C20.1305 63.57 20.5755 63.12 21.0955 62.83C21.6155 62.53 22.1755 62.38 22.7755 62.38C23.1055 62.38 23.3705 62.405 23.5705 62.455C23.7805 62.505 23.9955 62.58 24.2155 62.68L23.7655 64.525C23.5355 64.455 23.3255 64.405 23.1355 64.375C22.9555 64.335 22.7255 64.315 22.4455 64.315C21.9855 64.315 21.5305 64.45 21.0805 64.72C20.6405 64.99 20.2605 65.46 19.9405 66.13V70H17.7355V62.56ZM26.1746 62.56H31.3646V70H29.1596V64.285H26.1746V62.56ZM30.1646 61.465C29.7346 61.465 29.3796 61.345 29.0996 61.105C28.8296 60.865 28.6946 60.54 28.6946 60.13C28.6946 59.72 28.8296 59.39 29.0996 59.14C29.3796 58.88 29.7346 58.75 30.1646 58.75C30.5946 58.75 30.9446 58.88 31.2146 59.14C31.4946 59.39 31.6346 59.72 31.6346 60.13C31.6346 60.54 31.4946 60.865 31.2146 61.105C30.9446 61.345 30.5946 61.465 30.1646 61.465ZM35.0638 62.56H36.8638L37.0288 63.55H37.0888C37.4088 63.23 37.7738 62.955 38.1838 62.725C38.6038 62.495 39.0938 62.38 39.6538 62.38C40.4938 62.38 41.1088 62.65 41.4988 63.19C41.8888 63.73 42.0838 64.47 42.0838 65.41V70H39.8788V65.695C39.8788 65.195 39.7988 64.83 39.6388 64.6C39.4788 64.37 39.1938 64.255 38.7838 64.255C38.4838 64.255 38.2188 64.32 37.9888 64.45C37.7688 64.58 37.5288 64.775 37.2688 65.035V70H35.0638V62.56ZM45.5879 64.285H43.7129V62.65L45.6929 62.56L45.9779 60.58H47.7929V62.56H50.9429V64.285H47.7929V66.895C47.7929 67.465 47.9179 67.87 48.1679 68.11C48.4179 68.34 48.8129 68.455 49.3529 68.455C49.6429 68.455 49.9079 68.43 50.1479 68.38C50.3879 68.33 50.6179 68.265 50.8379 68.185L51.2279 69.775C50.8979 69.875 50.5279 69.965 50.1179 70.045C49.7179 70.135 49.2779 70.18 48.7979 70.18C48.2079 70.18 47.7079 70.1 47.2979 69.94C46.8879 69.78 46.5529 69.56 46.2929 69.28C46.0429 68.99 45.8629 68.645 45.7529 68.245C45.6429 67.845 45.5879 67.4 45.5879 66.91V64.285Z" fill="#56B4E9"/>
<path d="M57.852 53.685C56.872 52.815 56.097 51.81 55.527 50.67C54.967 49.53 54.687 48.25 54.687 46.83C54.687 45.41 54.967 44.13 55.527 42.99C56.097 41.85 56.872 40.845 57.852 39.975L59.082 40.95C58.192 41.82 57.542 42.725 57.132 43.665C56.732 44.595 56.532 45.65 56.532 46.83C56.532 47.42 56.582 47.98 56.682 48.51C56.782 49.03 56.932 49.53 57.132 50.01C57.342 50.49 57.607 50.95 57.927 51.39C58.247 51.84 58.632 52.28 59.082 52.71L57.852 53.685ZM107.827 52.71C108.277 52.28 108.662 51.84 108.982 51.39C109.302 50.95 109.562 50.49 109.762 50.01C109.972 49.53 110.127 49.03 110.227 48.51C110.327 47.98 110.377 47.42 110.377 46.83C110.377 45.65 110.172 44.595 109.762 43.665C109.362 42.725 108.717 41.82 107.827 40.95L109.057 39.975C110.037 40.845 110.807 41.85 111.367 42.99C111.937 44.13 112.222 45.41 112.222 46.83C112.222 48.25 111.937 49.53 111.367 50.67C110.807 51.81 110.037 52.815 109.057 53.685L107.827 52.71ZM57.852 72.685C56.872 71.815 56.097 70.81 55.527 69.67C54.967 68.53 54.687 67.25 54.687 65.83C54.687 64.41 54.967 63.13 55.527 61.99C56.097 60.85 56.872 59.845 57.852 58.975L59.082 59.95C58.192 60.82 57.542 61.725 57.132 62.665C56.732 63.595 56.532 64.65 56.532 65.83C56.532 66.42 56.582 66.98 56.682 67.51C56.782 68.03 56.932 68.53 57.132 69.01C57.342 69.49 57.607 69.95 57.927 70.39C58.247 70.84 58.632 71.28 59.082 71.71L57.852 72.685ZM107.827 71.71C108.277 71.28 108.662 70.84 108.982 70.39C109.302 69.95 109.562 69.49 109.762 69.01C109.972 68.53 110.127 68.03 110.227 67.51C110.327 66.98 110.377 66.42 110.377 65.83C110.377 64.65 110.172 63.595 109.762 62.665C109.362 61.725 108.717 60.82 107.827 59.95L109.057 58.975C110.037 59.845 110.807 60.85 111.367 61.99C111.937 63.13 112.222 64.41 112.222 65.83C112.222 67.25 111.937 68.53 111.367 69.67C110.807 70.81 110.037 71.815 109.057 72.685L107.827 71.71Z" fill="white"/>
<path d="M62.6462 48.45C62.9662 48.71 63.3062 48.935 63.6662 49.125C64.0362 49.305 64.4462 49.395 64.8962 49.395C65.4362 49.395 65.8762 49.27 66.2162 49.02C66.5662 48.77 66.7412 48.4 66.7412 47.91C66.7412 47.43 66.5762 47.065 66.2462 46.815C65.9262 46.565 65.5112 46.44 65.0012 46.44C64.8412 46.44 64.6962 46.45 64.5662 46.47C64.4462 46.48 64.3262 46.505 64.2062 46.545C64.0862 46.585 63.9612 46.635 63.8312 46.695C63.7012 46.755 63.5562 46.83 63.3962 46.92L62.4212 46.29L62.6762 41.475H68.5112V43.335H64.5812L64.4162 45.12C64.6362 45.04 64.8412 44.985 65.0312 44.955C65.2212 44.915 65.4362 44.895 65.6762 44.895C66.1162 44.895 66.5312 44.955 66.9212 45.075C67.3212 45.195 67.6712 45.375 67.9712 45.615C68.2712 45.855 68.5062 46.16 68.6762 46.53C68.8562 46.9 68.9462 47.34 68.9462 47.85C68.9462 48.38 68.8412 48.85 68.6312 49.26C68.4312 49.67 68.1562 50.02 67.8062 50.31C67.4662 50.59 67.0712 50.805 66.6212 50.955C66.1712 51.105 65.7012 51.18 65.2112 51.18C64.3812 51.18 63.6762 51.055 63.0962 50.805C62.5262 50.545 62.0462 50.225 61.6562 49.845L62.6462 48.45ZM104.998 49.215V51H98.1727V49.215H100.633V43.71H98.6677V42.345C99.2277 42.245 99.7027 42.125 100.093 41.985C100.493 41.845 100.868 41.675 101.218 41.475H102.838V49.215H104.998ZM63.7862 67.315C63.7862 67.735 63.9512 68.065 64.2812 68.305C64.6112 68.535 65.0212 68.65 65.5112 68.65C65.9612 68.65 66.3212 68.555 66.5912 68.365C66.8712 68.165 67.0112 67.865 67.0112 67.465C67.0112 67.245 66.9562 67.06 66.8462 66.91C66.7362 66.76 66.5762 66.625 66.3662 66.505C66.1662 66.375 65.9262 66.26 65.6462 66.16C65.3662 66.05 65.0562 65.93 64.7162 65.8C64.4462 66 64.2212 66.225 64.0412 66.475C63.8712 66.725 63.7862 67.005 63.7862 67.315ZM66.1112 64.45C66.5912 64.02 66.8312 63.555 66.8312 63.055C66.8312 62.685 66.7162 62.39 66.4862 62.17C66.2562 61.94 65.9212 61.825 65.4812 61.825C65.1312 61.825 64.8312 61.915 64.5812 62.095C64.3412 62.275 64.2212 62.55 64.2212 62.92C64.2212 63.31 64.3962 63.615 64.7462 63.835C65.0962 64.055 65.5512 64.26 66.1112 64.45ZM61.8812 67.57C61.8812 67.28 61.9262 67.02 62.0162 66.79C62.1162 66.55 62.2462 66.335 62.4062 66.145C62.5762 65.955 62.7662 65.785 62.9762 65.635C63.1962 65.485 63.4312 65.35 63.6812 65.23V65.17C63.2812 64.89 62.9462 64.575 62.6762 64.225C62.4162 63.865 62.2862 63.43 62.2862 62.92C62.2862 62.52 62.3662 62.16 62.5262 61.84C62.6862 61.51 62.9062 61.23 63.1862 61C63.4762 60.77 63.8212 60.595 64.2212 60.475C64.6212 60.355 65.0562 60.295 65.5262 60.295C66.0062 60.295 66.4362 60.36 66.8162 60.49C67.2062 60.61 67.5362 60.785 67.8062 61.015C68.0762 61.235 68.2812 61.51 68.4212 61.84C68.5712 62.16 68.6462 62.515 68.6462 62.905C68.6462 63.355 68.5112 63.755 68.2412 64.105C67.9812 64.455 67.6612 64.75 67.2812 64.99V65.05C67.5312 65.17 67.7662 65.31 67.9862 65.47C68.2062 65.62 68.3962 65.795 68.5562 65.995C68.7162 66.195 68.8412 66.425 68.9312 66.685C69.0212 66.935 69.0662 67.22 69.0662 67.54C69.0662 67.92 68.9862 68.27 68.8262 68.59C68.6662 68.91 68.4312 69.19 68.1212 69.43C67.8212 69.66 67.4462 69.845 66.9962 69.985C66.5462 70.115 66.0312 70.18 65.4512 70.18C64.9012 70.18 64.4062 70.12 63.9662 70C63.5262 69.87 63.1512 69.69 62.8412 69.46C62.5312 69.23 62.2912 68.955 62.1212 68.635C61.9612 68.315 61.8812 67.96 61.8812 67.57ZM99.8377 70C99.8777 69.21 99.9527 68.485 100.063 67.825C100.183 67.155 100.348 66.52 100.558 65.92C100.778 65.31 101.058 64.72 101.398 64.15C101.738 63.57 102.158 62.965 102.658 62.335H97.8727V60.475H105.028V61.825C104.428 62.495 103.943 63.125 103.573 63.715C103.203 64.295 102.913 64.9 102.703 65.53C102.493 66.15 102.343 66.82 102.253 67.54C102.163 68.25 102.098 69.07 102.058 70H99.8377Z" fill="#F0E442"/>
<path d="M82.6445 46.83H80.0045V45.27H82.6445V42.51H84.2645V45.27H86.9045V46.83H84.2645V49.59H82.6445V46.83ZM80.0045 64.27H86.9045V65.83H80.0045V64.27Z" fill="#BDBDBD"/>
<path d="M126.085 67.195H124.975V65.785H126.25L126.46 64.135H125.275V62.725H126.64L126.955 60.25H128.215L127.915 62.725H129.475L129.79 60.25H131.05L130.75 62.725H131.935V64.135H130.57L130.375 65.785H131.635V67.195H130.21L129.865 70H128.59L128.92 67.195H127.375L127.03 70H125.755L126.085 67.195ZM129.085 65.785L129.295 64.135H127.735L127.54 65.785H129.085ZM145.303 62.08H142.378V60.22H150.448V62.08H147.523V70H145.303V62.08ZM151.988 59.485H154.193V62.065L154.073 63.49C154.223 63.35 154.383 63.215 154.553 63.085C154.733 62.945 154.923 62.825 155.123 62.725C155.333 62.615 155.558 62.53 155.798 62.47C156.048 62.41 156.313 62.38 156.593 62.38C157.433 62.38 158.043 62.65 158.423 63.19C158.813 63.73 159.008 64.47 159.008 65.41V70H156.803V65.695C156.803 65.195 156.723 64.83 156.563 64.6C156.403 64.37 156.118 64.255 155.708 64.255C155.408 64.255 155.143 64.32 154.913 64.45C154.693 64.58 154.453 64.775 154.193 65.035V70H151.988V59.485ZM161.087 62.56H166.277V70H164.072V64.285H161.087V62.56ZM165.077 61.465C164.647 61.465 164.292 61.345 164.012 61.105C163.742 60.865 163.607 60.54 163.607 60.13C163.607 59.72 163.742 59.39 164.012 59.14C164.292 58.88 164.647 58.75 165.077 58.75C165.507 58.75 165.857 58.88 166.127 59.14C166.407 59.39 166.547 59.72 166.547 60.13C166.547 60.54 166.407 60.865 166.127 61.105C165.857 61.345 165.507 61.465 165.077 61.465ZM170.681 67.66C171.111 67.93 171.541 68.145 171.971 68.305C172.411 68.465 172.881 68.545 173.381 68.545C173.891 68.545 174.256 68.49 174.476 68.38C174.696 68.27 174.806 68.115 174.806 67.915C174.806 67.685 174.621 67.5 174.251 67.36C173.891 67.21 173.411 67.05 172.811 66.88C172.481 66.79 172.156 66.685 171.836 66.565C171.526 66.435 171.246 66.285 170.996 66.115C170.746 65.935 170.541 65.73 170.381 65.5C170.231 65.27 170.156 65.005 170.156 64.705C170.156 64.365 170.236 64.05 170.396 63.76C170.556 63.47 170.781 63.225 171.071 63.025C171.371 62.825 171.731 62.67 172.151 62.56C172.581 62.44 173.061 62.38 173.591 62.38C174.251 62.38 174.851 62.49 175.391 62.71C175.941 62.92 176.411 63.15 176.801 63.4L175.811 64.72C175.471 64.52 175.121 64.355 174.761 64.225C174.401 64.085 174.026 64.015 173.636 64.015C173.166 64.015 172.831 64.065 172.631 64.165C172.441 64.265 172.346 64.41 172.346 64.6C172.346 64.71 172.396 64.81 172.496 64.9C172.596 64.99 172.731 65.07 172.901 65.14C173.071 65.21 173.271 65.28 173.501 65.35C173.741 65.41 173.991 65.475 174.251 65.545C174.621 65.645 174.971 65.76 175.301 65.89C175.631 66.01 175.921 66.155 176.171 66.325C176.421 66.495 176.621 66.7 176.771 66.94C176.921 67.18 176.996 67.46 176.996 67.78C176.996 68.12 176.916 68.435 176.756 68.725C176.596 69.015 176.361 69.27 176.051 69.49C175.751 69.7 175.371 69.87 174.911 70C174.461 70.12 173.936 70.18 173.336 70.18C172.666 70.18 172.011 70.07 171.371 69.85C170.731 69.63 170.171 69.36 169.691 69.04L170.681 67.66ZM188.069 62.56H193.259V70H191.054V64.285H188.069V62.56ZM192.059 61.465C191.629 61.465 191.274 61.345 190.994 61.105C190.724 60.865 190.589 60.54 190.589 60.13C190.589 59.72 190.724 59.39 190.994 59.14C191.274 58.88 191.629 58.75 192.059 58.75C192.489 58.75 192.839 58.88 193.109 59.14C193.389 59.39 193.529 59.72 193.529 60.13C193.529 60.54 193.389 60.865 193.109 61.105C192.839 61.345 192.489 61.465 192.059 61.465ZM197.663 67.66C198.093 67.93 198.523 68.145 198.953 68.305C199.393 68.465 199.863 68.545 200.363 68.545C200.873 68.545 201.238 68.49 201.458 68.38C201.678 68.27 201.788 68.115 201.788 67.915C201.788 67.685 201.603 67.5 201.233 67.36C200.873 67.21 200.393 67.05 199.793 66.88C199.463 66.79 199.138 66.685 198.818 66.565C198.508 66.435 198.228 66.285 197.978 66.115C197.728 65.935 197.523 65.73 197.363 65.5C197.213 65.27 197.138 65.005 197.138 64.705C197.138 64.365 197.218 64.05 197.378 63.76C197.538 63.47 197.763 63.225 198.053 63.025C198.353 62.825 198.713 62.67 199.133 62.56C199.563 62.44 200.043 62.38 200.573 62.38C201.233 62.38 201.833 62.49 202.373 62.71C202.923 62.92 203.393 63.15 203.783 63.4L202.793 64.72C202.453 64.52 202.103 64.355 201.743 64.225C201.383 64.085 201.008 64.015 200.618 64.015C200.148 64.015 199.813 64.065 199.613 64.165C199.423 64.265 199.328 64.41 199.328 64.6C199.328 64.71 199.378 64.81 199.478 64.9C199.578 64.99 199.713 65.07 199.883 65.14C200.053 65.21 200.253 65.28 200.483 65.35C200.723 65.41 200.973 65.475 201.233 65.545C201.603 65.645 201.953 65.76 202.283 65.89C202.613 66.01 202.903 66.155 203.153 66.325C203.403 66.495 203.603 66.7 203.753 66.94C203.903 67.18 203.978 67.46 203.978 67.78C203.978 68.12 203.898 68.435 203.738 68.725C203.578 69.015 203.343 69.27 203.033 69.49C202.733 69.7 202.353 69.87 201.893 70C201.443 70.12 200.918 70.18 200.318 70.18C199.648 70.18 198.993 70.07 198.353 69.85C197.713 69.63 197.153 69.36 196.673 69.04L197.663 67.66ZM216.477 64.285H214.602V62.65L216.582 62.56L216.867 60.58H218.682V62.56H221.832V64.285H218.682V66.895C218.682 67.465 218.807 67.87 219.057 68.11C219.307 68.34 219.702 68.455 220.242 68.455C220.532 68.455 220.797 68.43 221.037 68.38C221.277 68.33 221.507 68.265 221.727 68.185L222.117 69.775C221.787 69.875 221.417 69.965 221.007 70.045C220.607 70.135 220.167 70.18 219.687 70.18C219.097 70.18 218.597 70.1 218.187 69.94C217.777 69.78 217.442 69.56 217.182 69.28C216.932 68.99 216.752 68.645 216.642 68.245C216.532 67.845 216.477 67.4 216.477 66.91V64.285ZM223.941 59.485H226.146V62.065L226.026 63.49C226.176 63.35 226.336 63.215 226.506 63.085C226.686 62.945 226.876 62.825 227.076 62.725C227.286 62.615 227.511 62.53 227.751 62.47C228.001 62.41 228.266 62.38 228.546 62.38C229.386 62.38 229.996 62.65 230.376 63.19C230.766 63.73 230.961 64.47 230.961 65.41V70H228.756V65.695C228.756 65.195 228.676 64.83 228.516 64.6C228.356 64.37 228.071 64.255 227.661 64.255C227.361 64.255 227.096 64.32 226.866 64.45C226.646 64.58 226.406 64.775 226.146 65.035V70H223.941V59.485ZM232.68 66.28C232.68 65.67 232.785 65.125 232.995 64.645C233.215 64.165 233.505 63.76 233.865 63.43C234.225 63.09 234.635 62.83 235.095 62.65C235.565 62.47 236.05 62.38 236.55 62.38C237.12 62.38 237.625 62.47 238.065 62.65C238.505 62.83 238.87 63.08 239.16 63.4C239.45 63.72 239.67 64.1 239.82 64.54C239.97 64.97 240.045 65.44 240.045 65.95C240.045 66.15 240.035 66.34 240.015 66.52C239.995 66.7 239.975 66.835 239.955 66.925H234.945C235.025 67.485 235.265 67.89 235.665 68.14C236.075 68.38 236.555 68.5 237.105 68.5C237.445 68.5 237.765 68.46 238.065 68.38C238.375 68.29 238.695 68.16 239.025 67.99L239.745 69.31C239.325 69.58 238.855 69.795 238.335 69.955C237.815 70.105 237.305 70.18 236.805 70.18C236.225 70.18 235.685 70.095 235.185 69.925C234.685 69.745 234.25 69.49 233.88 69.16C233.51 68.82 233.215 68.41 232.995 67.93C232.785 67.45 232.68 66.9 232.68 66.28ZM238.05 65.47C238.05 65.05 237.935 64.71 237.705 64.45C237.475 64.19 237.105 64.06 236.595 64.06C236.195 64.06 235.84 64.175 235.53 64.405C235.22 64.635 235.015 64.99 234.915 65.47H238.05ZM250.773 59.485H255.138V67.18C255.138 67.41 255.168 67.605 255.228 67.765C255.298 67.915 255.388 68.04 255.498 68.14C255.618 68.23 255.748 68.295 255.888 68.335C256.038 68.375 256.188 68.395 256.338 68.395C256.508 68.395 256.688 68.38 256.878 68.35C257.068 68.31 257.278 68.245 257.508 68.155L258.003 69.775C257.803 69.835 257.618 69.89 257.448 69.94C257.278 69.99 257.108 70.03 256.938 70.06C256.768 70.1 256.588 70.13 256.398 70.15C256.208 70.17 255.998 70.18 255.768 70.18C254.828 70.18 254.118 69.905 253.638 69.355C253.168 68.795 252.933 68.04 252.933 67.09V61.225H250.773V59.485ZM260.022 62.56H265.212V70H263.007V64.285H260.022V62.56ZM264.012 61.465C263.582 61.465 263.227 61.345 262.947 61.105C262.677 60.865 262.542 60.54 262.542 60.13C262.542 59.72 262.677 59.39 262.947 59.14C263.227 58.88 263.582 58.75 264.012 58.75C264.442 58.75 264.792 58.88 265.062 59.14C265.342 59.39 265.482 59.72 265.482 60.13C265.482 60.54 265.342 60.865 265.062 61.105C264.792 61.345 264.442 61.465 264.012 61.465ZM268.911 62.56H270.711L270.876 63.55H270.936C271.256 63.23 271.621 62.955 272.031 62.725C272.451 62.495 272.941 62.38 273.501 62.38C274.341 62.38 274.956 62.65 275.346 63.19C275.736 63.73 275.931 64.47 275.931 65.41V70H273.726V65.695C273.726 65.195 273.646 64.83 273.486 64.6C273.326 64.37 273.041 64.255 272.631 64.255C272.331 64.255 272.066 64.32 271.836 64.45C271.616 64.58 271.376 64.775 271.116 65.035V70H268.911V62.56ZM277.651 66.28C277.651 65.67 277.756 65.125 277.966 64.645C278.186 64.165 278.476 63.76 278.836 63.43C279.196 63.09 279.606 62.83 280.066 62.65C280.536 62.47 281.021 62.38 281.521 62.38C282.091 62.38 282.596 62.47 283.036 62.65C283.476 62.83 283.841 63.08 284.131 63.4C284.421 63.72 284.641 64.1 284.791 64.54C284.941 64.97 285.016 65.44 285.016 65.95C285.016 66.15 285.006 66.34 284.986 66.52C284.966 66.7 284.946 66.835 284.926 66.925H279.916C279.996 67.485 280.236 67.89 280.636 68.14C281.046 68.38 281.526 68.5 282.076 68.5C282.416 68.5 282.736 68.46 283.036 68.38C283.346 68.29 283.666 68.16 283.996 67.99L284.716 69.31C284.296 69.58 283.826 69.795 283.306 69.955C282.786 70.105 282.276 70.18 281.776 70.18C281.196 70.18 280.656 70.095 280.156 69.925C279.656 69.745 279.221 69.49 278.851 69.16C278.481 68.82 278.186 68.41 277.966 67.93C277.756 67.45 277.651 66.9 277.651 66.28ZM283.021 65.47C283.021 65.05 282.906 64.71 282.676 64.45C282.446 64.19 282.076 64.06 281.566 64.06C281.166 64.06 280.811 64.175 280.501 64.405C280.191 64.635 279.986 64.99 279.886 65.47H283.021ZM297.424 64.285H295.549V62.65L297.529 62.56L297.814 60.58H299.629V62.56H302.779V64.285H299.629V66.895C299.629 67.465 299.754 67.87 300.004 68.11C300.254 68.34 300.649 68.455 301.189 68.455C301.479 68.455 301.744 68.43 301.984 68.38C302.224 68.33 302.454 68.265 302.674 68.185L303.064 69.775C302.734 69.875 302.364 69.965 301.954 70.045C301.554 70.135 301.114 70.18 300.634 70.18C300.044 70.18 299.544 70.1 299.134 69.94C298.724 69.78 298.389 69.56 298.129 69.28C297.879 68.99 297.699 68.645 297.589 68.245C297.479 67.845 297.424 67.4 297.424 66.91V64.285ZM304.888 59.485H307.093V62.065L306.973 63.49C307.123 63.35 307.283 63.215 307.453 63.085C307.633 62.945 307.823 62.825 308.023 62.725C308.233 62.615 308.458 62.53 308.698 62.47C308.948 62.41 309.213 62.38 309.493 62.38C310.333 62.38 310.943 62.65 311.323 63.19C311.713 63.73 311.908 64.47 311.908 65.41V70H309.703V65.695C309.703 65.195 309.623 64.83 309.463 64.6C309.303 64.37 309.018 64.255 308.608 64.255C308.308 64.255 308.043 64.32 307.813 64.45C307.593 64.58 307.353 64.775 307.093 65.035V70H304.888V59.485ZM313.717 67.93C313.717 67.51 313.807 67.145 313.987 66.835C314.167 66.515 314.452 66.245 314.842 66.025C315.242 65.805 315.752 65.63 316.372 65.5C316.992 65.36 317.742 65.265 318.622 65.215C318.582 64.875 318.432 64.61 318.172 64.42C317.922 64.23 317.542 64.135 317.032 64.135C316.672 64.135 316.307 64.2 315.937 64.33C315.577 64.45 315.187 64.615 314.767 64.825L313.987 63.385C314.497 63.095 315.042 62.855 315.622 62.665C316.212 62.475 316.827 62.38 317.467 62.38C318.507 62.38 319.327 62.655 319.927 63.205C320.527 63.755 320.827 64.6 320.827 65.74V70H319.027L318.862 69.16H318.802C318.422 69.45 318.007 69.695 317.557 69.895C317.107 70.085 316.642 70.18 316.162 70.18C315.782 70.18 315.442 70.12 315.142 70C314.842 69.89 314.587 69.735 314.377 69.535C314.167 69.325 314.002 69.085 313.882 68.815C313.772 68.545 313.717 68.25 313.717 67.93ZM315.832 67.765C315.832 68.005 315.922 68.185 316.102 68.305C316.292 68.415 316.547 68.47 316.867 68.47C317.197 68.47 317.507 68.405 317.797 68.275C318.087 68.135 318.362 67.965 318.622 67.765V66.535C318.072 66.565 317.617 66.615 317.257 66.685C316.897 66.755 316.612 66.845 316.402 66.955C316.192 67.055 316.042 67.175 315.952 67.315C315.872 67.455 315.832 67.605 315.832 67.765ZM324.406 64.285H322.531V62.65L324.511 62.56L324.796 60.58H326.611V62.56H329.761V64.285H326.611V66.895C326.611 67.465 326.736 67.87 326.986 68.11C327.236 68.34 327.631 68.455 328.171 68.455C328.461 68.455 328.726 68.43 328.966 68.38C329.206 68.33 329.436 68.265 329.656 68.185L330.046 69.775C329.716 69.875 329.346 69.965 328.936 70.045C328.536 70.135 328.096 70.18 327.616 70.18C327.026 70.18 326.526 70.1 326.116 69.94C325.706 69.78 325.371 69.56 325.111 69.28C324.861 68.99 324.681 68.645 324.571 68.245C324.461 67.845 324.406 67.4 324.406 66.91V64.285ZM340.49 66.28C340.49 65.66 340.595 65.11 340.805 64.63C341.015 64.14 341.295 63.73 341.645 63.4C342.005 63.07 342.41 62.82 342.86 62.65C343.32 62.47 343.795 62.38 344.285 62.38C344.775 62.38 345.245 62.47 345.695 62.65C346.155 62.82 346.56 63.07 346.91 63.4C347.27 63.73 347.555 64.14 347.765 64.63C347.975 65.11 348.08 65.66 348.08 66.28C348.08 66.9 347.975 67.455 347.765 67.945C347.555 68.425 347.27 68.83 346.91 69.16C346.56 69.49 346.155 69.745 345.695 69.925C345.245 70.095 344.775 70.18 344.285 70.18C343.795 70.18 343.32 70.095 342.86 69.925C342.41 69.745 342.005 69.49 341.645 69.16C341.295 68.83 341.015 68.425 340.805 67.945C340.595 67.455 340.49 66.9 340.49 66.28ZM342.755 66.28C342.755 66.93 342.88 67.445 343.13 67.825C343.39 68.205 343.775 68.395 344.285 68.395C344.795 68.395 345.175 68.205 345.425 67.825C345.685 67.445 345.815 66.93 345.815 66.28C345.815 65.63 345.685 65.115 345.425 64.735C345.175 64.355 344.795 64.165 344.285 64.165C343.775 64.165 343.39 64.355 343.13 64.735C342.88 65.115 342.755 65.63 342.755 66.28ZM356.654 70H354.854L354.689 68.935H354.629C354.299 69.315 353.934 69.62 353.534 69.85C353.134 70.07 352.664 70.18 352.124 70.18C351.274 70.18 350.659 69.91 350.279 69.37C349.899 68.83 349.709 68.09 349.709 67.15V62.56H351.914V66.865C351.914 67.365 351.989 67.73 352.139 67.96C352.289 68.19 352.574 68.305 352.994 68.305C353.274 68.305 353.519 68.245 353.729 68.125C353.949 68.005 354.189 67.78 354.449 67.45V62.56H356.654V70ZM360.383 64.285H358.508V62.65L360.488 62.56L360.773 60.58H362.588V62.56H365.738V64.285H362.588V66.895C362.588 67.465 362.713 67.87 362.963 68.11C363.213 68.34 363.608 68.455 364.148 68.455C364.438 68.455 364.703 68.43 364.943 68.38C365.183 68.33 365.413 68.265 365.633 68.185L366.023 69.775C365.693 69.875 365.323 69.965 364.913 70.045C364.513 70.135 364.073 70.18 363.593 70.18C363.003 70.18 362.503 70.1 362.093 69.94C361.683 69.78 361.348 69.56 361.088 69.28C360.838 68.99 360.658 68.645 360.548 68.245C360.438 67.845 360.383 67.4 360.383 66.91V64.285ZM370.052 70.585V72.76H367.847V62.56H369.647L369.812 63.31H369.857C370.157 63.04 370.502 62.82 370.892 62.65C371.282 62.47 371.677 62.38 372.077 62.38C372.537 62.38 372.952 62.47 373.322 62.65C373.692 62.83 374.007 63.085 374.267 63.415C374.527 63.745 374.722 64.145 374.852 64.615C374.992 65.075 375.062 65.59 375.062 66.16C375.062 66.8 374.972 67.37 374.792 67.87C374.612 68.36 374.372 68.78 374.072 69.13C373.772 69.47 373.427 69.73 373.037 69.91C372.657 70.09 372.257 70.18 371.837 70.18C371.157 70.18 370.537 69.91 369.977 69.37L370.052 70.585ZM370.052 67.885C370.262 68.065 370.477 68.195 370.697 68.275C370.927 68.345 371.137 68.38 371.327 68.38C371.747 68.38 372.097 68.21 372.377 67.87C372.657 67.52 372.797 66.96 372.797 66.19C372.797 64.85 372.342 64.18 371.432 64.18C370.962 64.18 370.502 64.41 370.052 64.87V67.885ZM383.636 70H381.836L381.671 68.935H381.611C381.281 69.315 380.916 69.62 380.516 69.85C380.116 70.07 379.646 70.18 379.106 70.18C378.256 70.18 377.641 69.91 377.261 69.37C376.881 68.83 376.691 68.09 376.691 67.15V62.56H378.896V66.865C378.896 67.365 378.971 67.73 379.121 67.96C379.271 68.19 379.556 68.305 379.976 68.305C380.256 68.305 380.501 68.245 380.711 68.125C380.931 68.005 381.171 67.78 381.431 67.45V62.56H383.636V70ZM387.365 64.285H385.49V62.65L387.47 62.56L387.755 60.58H389.57V62.56H392.72V64.285H389.57V66.895C389.57 67.465 389.695 67.87 389.945 68.11C390.195 68.34 390.59 68.455 391.13 68.455C391.42 68.455 391.685 68.43 391.925 68.38C392.165 68.33 392.395 68.265 392.615 68.185L393.005 69.775C392.675 69.875 392.305 69.965 391.895 70.045C391.495 70.135 391.055 70.18 390.575 70.18C389.985 70.18 389.485 70.1 389.075 69.94C388.665 69.78 388.33 69.56 388.07 69.28C387.82 68.99 387.64 68.645 387.53 68.245C387.42 67.845 387.365 67.4 387.365 66.91V64.285ZM395.534 67.66C395.964 67.93 396.394 68.145 396.824 68.305C397.264 68.465 397.734 68.545 398.234 68.545C398.744 68.545 399.109 68.49 399.329 68.38C399.549 68.27 399.659 68.115 399.659 67.915C399.659 67.685 399.474 67.5 399.104 67.36C398.744 67.21 398.264 67.05 397.664 66.88C397.334 66.79 397.009 66.685 396.689 66.565C396.379 66.435 396.099 66.285 395.849 66.115C395.599 65.935 395.394 65.73 395.234 65.5C395.084 65.27 395.009 65.005 395.009 64.705C395.009 64.365 395.089 64.05 395.249 63.76C395.409 63.47 395.634 63.225 395.924 63.025C396.224 62.825 396.584 62.67 397.004 62.56C397.434 62.44 397.914 62.38 398.444 62.38C399.104 62.38 399.704 62.49 400.244 62.71C400.794 62.92 401.264 63.15 401.654 63.4L400.664 64.72C400.324 64.52 399.974 64.355 399.614 64.225C399.254 64.085 398.879 64.015 398.489 64.015C398.019 64.015 397.684 64.065 397.484 64.165C397.294 64.265 397.199 64.41 397.199 64.6C397.199 64.71 397.249 64.81 397.349 64.9C397.449 64.99 397.584 65.07 397.754 65.14C397.924 65.21 398.124 65.28 398.354 65.35C398.594 65.41 398.844 65.475 399.104 65.545C399.474 65.645 399.824 65.76 400.154 65.89C400.484 66.01 400.774 66.155 401.024 66.325C401.274 66.495 401.474 66.7 401.624 66.94C401.774 67.18 401.849 67.46 401.849 67.78C401.849 68.12 401.769 68.435 401.609 68.725C401.449 69.015 401.214 69.27 400.904 69.49C400.604 69.7 400.224 69.87 399.764 70C399.314 70.12 398.789 70.18 398.189 70.18C397.519 70.18 396.864 70.07 396.224 69.85C395.584 69.63 395.024 69.36 394.544 69.04L395.534 67.66ZM419.793 68.215V70H412.968V68.215H415.428V62.71H413.463V61.345C414.023 61.245 414.498 61.125 414.888 60.985C415.288 60.845 415.663 60.675 416.013 60.475H417.633V68.215H419.793Z" fill="#828282"/>
</svg>
