<svg width="457" height="239" viewBox="0 0 457 239" fill="none" xmlns="http://www.w3.org/2000/svg">
<rect width="455" height="239" transform="translate(1)" fill="black"/>
<path d="M3.39 7.08H0.465V5.22H8.535V7.08H5.61V15H3.39V7.08ZM10.7341 7.56H12.5341L12.7141 9.18H12.7591C13.1291 8.57 13.5741 8.12 14.0941 7.83C14.6141 7.53 15.1741 7.38 15.7741 7.38C16.1041 7.38 16.3691 7.405 16.5691 7.455C16.7791 7.505 16.9941 7.58 17.2141 7.68L16.7641 9.525C16.5341 9.455 16.3241 9.405 16.1341 9.375C15.9541 9.335 15.7241 9.315 15.4441 9.315C14.9841 9.315 14.5291 9.45 14.0791 9.72C13.6391 9.99 13.2591 10.46 12.9391 11.13V15H10.7341V7.56ZM25.8633 15H24.0633L23.8983 13.935H23.8383C23.5083 14.315 23.1433 14.62 22.7433 14.85C22.3433 15.07 21.8733 15.18 21.3333 15.18C20.4833 15.18 19.8683 14.91 19.4883 14.37C19.1083 13.83 18.9183 13.09 18.9183 12.15V7.56H21.1233V11.865C21.1233 12.365 21.1983 12.73 21.3483 12.96C21.4983 13.19 21.7833 13.305 22.2033 13.305C22.4833 13.305 22.7283 13.245 22.9383 13.125C23.1583 13.005 23.3983 12.78 23.6583 12.45V7.56H25.8633V15ZM27.8074 11.28C27.8074 10.67 27.9124 10.125 28.1224 9.645C28.3424 9.165 28.6324 8.76 28.9924 8.43C29.3524 8.09 29.7624 7.83 30.2224 7.65C30.6924 7.47 31.1774 7.38 31.6774 7.38C32.2474 7.38 32.7524 7.47 33.1924 7.65C33.6324 7.83 33.9974 8.08 34.2874 8.4C34.5774 8.72 34.7974 9.1 34.9474 9.54C35.0974 9.97 35.1724 10.44 35.1724 10.95C35.1724 11.15 35.1624 11.34 35.1424 11.52C35.1224 11.7 35.1024 11.835 35.0824 11.925H30.0724C30.1524 12.485 30.3924 12.89 30.7924 13.14C31.2024 13.38 31.6824 13.5 32.2324 13.5C32.5724 13.5 32.8924 13.46 33.1924 13.38C33.5024 13.29 33.8224 13.16 34.1524 12.99L34.8724 14.31C34.4524 14.58 33.9824 14.795 33.4624 14.955C32.9424 15.105 32.4324 15.18 31.9324 15.18C31.3524 15.18 30.8124 15.095 30.3124 14.925C29.8124 14.745 29.3774 14.49 29.0074 14.16C28.6374 13.82 28.3424 13.41 28.1224 12.93C27.9124 12.45 27.8074 11.9 27.8074 11.28ZM33.1774 10.47C33.1774 10.05 33.0624 9.71 32.8324 9.45C32.6024 9.19 32.2324 9.06 31.7224 9.06C31.3224 9.06 30.9674 9.175 30.6574 9.405C30.3474 9.635 30.1424 9.99 30.0424 10.47H33.1774ZM1.62 24.22H8.07V26.08H3.825V28.345H7.44V30.205H3.825V34H1.62V24.22ZM9.90914 31.93C9.90914 31.51 9.99914 31.145 10.1791 30.835C10.3591 30.515 10.6441 30.245 11.0341 30.025C11.4341 29.805 11.9441 29.63 12.5641 29.5C13.1841 29.36 13.9341 29.265 14.8141 29.215C14.7741 28.875 14.6241 28.61 14.3641 28.42C14.1141 28.23 13.7341 28.135 13.2241 28.135C12.8641 28.135 12.4991 28.2 12.1291 28.33C11.7691 28.45 11.3791 28.615 10.9591 28.825L10.1791 27.385C10.6891 27.095 11.2341 26.855 11.8141 26.665C12.4041 26.475 13.0191 26.38 13.6591 26.38C14.6991 26.38 15.5191 26.655 16.1191 27.205C16.7191 27.755 17.0191 28.6 17.0191 29.74V34H15.2191L15.0541 33.16H14.9941C14.6141 33.45 14.1991 33.695 13.7491 33.895C13.2991 34.085 12.8341 34.18 12.3541 34.18C11.9741 34.18 11.6341 34.12 11.3341 34C11.0341 33.89 10.7791 33.735 10.5691 33.535C10.3591 33.325 10.1941 33.085 10.0741 32.815C9.96414 32.545 9.90914 32.25 9.90914 31.93ZM12.0241 31.765C12.0241 32.005 12.1141 32.185 12.2941 32.305C12.4841 32.415 12.7391 32.47 13.0591 32.47C13.3891 32.47 13.6991 32.405 13.9891 32.275C14.2791 32.135 14.5541 31.965 14.8141 31.765V30.535C14.2641 30.565 13.8091 30.615 13.4491 30.685C13.0891 30.755 12.8041 30.845 12.5941 30.955C12.3841 31.055 12.2341 31.175 12.1441 31.315C12.0641 31.455 12.0241 31.605 12.0241 31.765ZM18.9183 23.485H23.2833V31.18C23.2833 31.41 23.3133 31.605 23.3733 31.765C23.4433 31.915 23.5333 32.04 23.6433 32.14C23.7633 32.23 23.8933 32.295 24.0333 32.335C24.1833 32.375 24.3333 32.395 24.4833 32.395C24.6533 32.395 24.8333 32.38 25.0233 32.35C25.2133 32.31 25.4233 32.245 25.6533 32.155L26.1483 33.775C25.9483 33.835 25.7633 33.89 25.5933 33.94C25.4233 33.99 25.2533 34.03 25.0833 34.06C24.9133 34.1 24.7333 34.13 24.5433 34.15C24.3533 34.17 24.1433 34.18 23.9133 34.18C22.9733 34.18 22.2633 33.905 21.7833 33.355C21.3133 32.795 21.0783 32.04 21.0783 31.09V25.225H18.9183V23.485ZM28.7674 31.66C29.1974 31.93 29.6274 32.145 30.0574 32.305C30.4974 32.465 30.9674 32.545 31.4674 32.545C31.9774 32.545 32.3424 32.49 32.5624 32.38C32.7824 32.27 32.8924 32.115 32.8924 31.915C32.8924 31.685 32.7074 31.5 32.3374 31.36C31.9774 31.21 31.4974 31.05 30.8974 30.88C30.5674 30.79 30.2424 30.685 29.9224 30.565C29.6124 30.435 29.3324 30.285 29.0824 30.115C28.8324 29.935 28.6274 29.73 28.4674 29.5C28.3174 29.27 28.2424 29.005 28.2424 28.705C28.2424 28.365 28.3224 28.05 28.4824 27.76C28.6424 27.47 28.8674 27.225 29.1574 27.025C29.4574 26.825 29.8174 26.67 30.2374 26.56C30.6674 26.44 31.1474 26.38 31.6774 26.38C32.3374 26.38 32.9374 26.49 33.4774 26.71C34.0274 26.92 34.4974 27.15 34.8874 27.4L33.8974 28.72C33.5574 28.52 33.2074 28.355 32.8474 28.225C32.4874 28.085 32.1124 28.015 31.7224 28.015C31.2524 28.015 30.9174 28.065 30.7174 28.165C30.5274 28.265 30.4324 28.41 30.4324 28.6C30.4324 28.71 30.4824 28.81 30.5824 28.9C30.6824 28.99 30.8174 29.07 30.9874 29.14C31.1574 29.21 31.3574 29.28 31.5874 29.35C31.8274 29.41 32.0774 29.475 32.3374 29.545C32.7074 29.645 33.0574 29.76 33.3874 29.89C33.7174 30.01 34.0074 30.155 34.2574 30.325C34.5074 30.495 34.7074 30.7 34.8574 30.94C35.0074 31.18 35.0824 31.46 35.0824 31.78C35.0824 32.12 35.0024 32.435 34.8424 32.725C34.6824 33.015 34.4474 33.27 34.1374 33.49C33.8374 33.7 33.4574 33.87 32.9974 34C32.5474 34.12 32.0224 34.18 31.4224 34.18C30.7524 34.18 30.0974 34.07 29.4574 33.85C28.8174 33.63 28.2574 33.36 27.7774 33.04L28.7674 31.66ZM36.8016 30.28C36.8016 29.67 36.9066 29.125 37.1166 28.645C37.3366 28.165 37.6266 27.76 37.9866 27.43C38.3466 27.09 38.7566 26.83 39.2166 26.65C39.6866 26.47 40.1716 26.38 40.6716 26.38C41.2416 26.38 41.7466 26.47 42.1866 26.65C42.6266 26.83 42.9916 27.08 43.2816 27.4C43.5716 27.72 43.7916 28.1 43.9416 28.54C44.0916 28.97 44.1666 29.44 44.1666 29.95C44.1666 30.15 44.1566 30.34 44.1366 30.52C44.1166 30.7 44.0966 30.835 44.0766 30.925H39.0666C39.1466 31.485 39.3866 31.89 39.7866 32.14C40.1966 32.38 40.6766 32.5 41.2266 32.5C41.5666 32.5 41.8866 32.46 42.1866 32.38C42.4966 32.29 42.8166 32.16 43.1466 31.99L43.8666 33.31C43.4466 33.58 42.9766 33.795 42.4566 33.955C41.9366 34.105 41.4266 34.18 40.9266 34.18C40.3466 34.18 39.8066 34.095 39.3066 33.925C38.8066 33.745 38.3716 33.49 38.0016 33.16C37.6316 32.82 37.3366 32.41 37.1166 31.93C36.9066 31.45 36.8016 30.9 36.8016 30.28ZM42.1716 29.47C42.1716 29.05 42.0566 28.71 41.8266 28.45C41.5966 28.19 41.2266 28.06 40.7166 28.06C40.3166 28.06 39.9616 28.175 39.6516 28.405C39.3416 28.635 39.1366 28.99 39.0366 29.47H42.1716ZM1.62 42.22H8.07V44.08H3.825V46.345H7.44V48.205H3.825V52H1.62V42.22ZM9.90914 49.93C9.90914 49.51 9.99914 49.145 10.1791 48.835C10.3591 48.515 10.6441 48.245 11.0341 48.025C11.4341 47.805 11.9441 47.63 12.5641 47.5C13.1841 47.36 13.9341 47.265 14.8141 47.215C14.7741 46.875 14.6241 46.61 14.3641 46.42C14.1141 46.23 13.7341 46.135 13.2241 46.135C12.8641 46.135 12.4991 46.2 12.1291 46.33C11.7691 46.45 11.3791 46.615 10.9591 46.825L10.1791 45.385C10.6891 45.095 11.2341 44.855 11.8141 44.665C12.4041 44.475 13.0191 44.38 13.6591 44.38C14.6991 44.38 15.5191 44.655 16.1191 45.205C16.7191 45.755 17.0191 46.6 17.0191 47.74V52H15.2191L15.0541 51.16H14.9941C14.6141 51.45 14.1991 51.695 13.7491 51.895C13.2991 52.085 12.8341 52.18 12.3541 52.18C11.9741 52.18 11.6341 52.12 11.3341 52C11.0341 51.89 10.7791 51.735 10.5691 51.535C10.3591 51.325 10.1941 51.085 10.0741 50.815C9.96414 50.545 9.90914 50.25 9.90914 49.93ZM12.0241 49.765C12.0241 50.005 12.1141 50.185 12.2941 50.305C12.4841 50.415 12.7391 50.47 13.0591 50.47C13.3891 50.47 13.6991 50.405 13.9891 50.275C14.2791 50.135 14.5541 49.965 14.8141 49.765V48.535C14.2641 48.565 13.8091 48.615 13.4491 48.685C13.0891 48.755 12.8041 48.845 12.5941 48.955C12.3841 49.055 12.2341 49.175 12.1441 49.315C12.0641 49.455 12.0241 49.605 12.0241 49.765ZM18.9183 41.485H23.2833V49.18C23.2833 49.41 23.3133 49.605 23.3733 49.765C23.4433 49.915 23.5333 50.04 23.6433 50.14C23.7633 50.23 23.8933 50.295 24.0333 50.335C24.1833 50.375 24.3333 50.395 24.4833 50.395C24.6533 50.395 24.8333 50.38 25.0233 50.35C25.2133 50.31 25.4233 50.245 25.6533 50.155L26.1483 51.775C25.9483 51.835 25.7633 51.89 25.5933 51.94C25.4233 51.99 25.2533 52.03 25.0833 52.06C24.9133 52.1 24.7333 52.13 24.5433 52.15C24.3533 52.17 24.1433 52.18 23.9133 52.18C22.9733 52.18 22.2633 51.905 21.7833 51.355C21.3133 50.795 21.0783 50.04 21.0783 49.09V43.225H18.9183V41.485ZM28.7674 49.66C29.1974 49.93 29.6274 50.145 30.0574 50.305C30.4974 50.465 30.9674 50.545 31.4674 50.545C31.9774 50.545 32.3424 50.49 32.5624 50.38C32.7824 50.27 32.8924 50.115 32.8924 49.915C32.8924 49.685 32.7074 49.5 32.3374 49.36C31.9774 49.21 31.4974 49.05 30.8974 48.88C30.5674 48.79 30.2424 48.685 29.9224 48.565C29.6124 48.435 29.3324 48.285 29.0824 48.115C28.8324 47.935 28.6274 47.73 28.4674 47.5C28.3174 47.27 28.2424 47.005 28.2424 46.705C28.2424 46.365 28.3224 46.05 28.4824 45.76C28.6424 45.47 28.8674 45.225 29.1574 45.025C29.4574 44.825 29.8174 44.67 30.2374 44.56C30.6674 44.44 31.1474 44.38 31.6774 44.38C32.3374 44.38 32.9374 44.49 33.4774 44.71C34.0274 44.92 34.4974 45.15 34.8874 45.4L33.8974 46.72C33.5574 46.52 33.2074 46.355 32.8474 46.225C32.4874 46.085 32.1124 46.015 31.7224 46.015C31.2524 46.015 30.9174 46.065 30.7174 46.165C30.5274 46.265 30.4324 46.41 30.4324 46.6C30.4324 46.71 30.4824 46.81 30.5824 46.9C30.6824 46.99 30.8174 47.07 30.9874 47.14C31.1574 47.21 31.3574 47.28 31.5874 47.35C31.8274 47.41 32.0774 47.475 32.3374 47.545C32.7074 47.645 33.0574 47.76 33.3874 47.89C33.7174 48.01 34.0074 48.155 34.2574 48.325C34.5074 48.495 34.7074 48.7 34.8574 48.94C35.0074 49.18 35.0824 49.46 35.0824 49.78C35.0824 50.12 35.0024 50.435 34.8424 50.725C34.6824 51.015 34.4474 51.27 34.1374 51.49C33.8374 51.7 33.4574 51.87 32.9974 52C32.5474 52.12 32.0224 52.18 31.4224 52.18C30.7524 52.18 30.0974 52.07 29.4574 51.85C28.8174 51.63 28.2574 51.36 27.7774 51.04L28.7674 49.66ZM36.8016 48.28C36.8016 47.67 36.9066 47.125 37.1166 46.645C37.3366 46.165 37.6266 45.76 37.9866 45.43C38.3466 45.09 38.7566 44.83 39.2166 44.65C39.6866 44.47 40.1716 44.38 40.6716 44.38C41.2416 44.38 41.7466 44.47 42.1866 44.65C42.6266 44.83 42.9916 45.08 43.2816 45.4C43.5716 45.72 43.7916 46.1 43.9416 46.54C44.0916 46.97 44.1666 47.44 44.1666 47.95C44.1666 48.15 44.1566 48.34 44.1366 48.52C44.1166 48.7 44.0966 48.835 44.0766 48.925H39.0666C39.1466 49.485 39.3866 49.89 39.7866 50.14C40.1966 50.38 40.6766 50.5 41.2266 50.5C41.5666 50.5 41.8866 50.46 42.1866 50.38C42.4966 50.29 42.8166 50.16 43.1466 49.99L43.8666 51.31C43.4466 51.58 42.9766 51.795 42.4566 51.955C41.9366 52.105 41.4266 52.18 40.9266 52.18C40.3466 52.18 39.8066 52.095 39.3066 51.925C38.8066 51.745 38.3716 51.49 38.0016 51.16C37.6316 50.82 37.3366 50.41 37.1166 49.93C36.9066 49.45 36.8016 48.9 36.8016 48.28ZM42.1716 47.47C42.1716 47.05 42.0566 46.71 41.8266 46.45C41.5966 46.19 41.2266 46.06 40.7166 46.06C40.3166 46.06 39.9616 46.175 39.6516 46.405C39.3416 46.635 39.1366 46.99 39.0366 47.47H42.1716ZM3.39 63.08H0.465V61.22H8.535V63.08H5.61V71H3.39V63.08ZM10.7341 63.56H12.5341L12.7141 65.18H12.7591C13.1291 64.57 13.5741 64.12 14.0941 63.83C14.6141 63.53 15.1741 63.38 15.7741 63.38C16.1041 63.38 16.3691 63.405 16.5691 63.455C16.7791 63.505 16.9941 63.58 17.2141 63.68L16.7641 65.525C16.5341 65.455 16.3241 65.405 16.1341 65.375C15.9541 65.335 15.7241 65.315 15.4441 65.315C14.9841 65.315 14.5291 65.45 14.0791 65.72C13.6391 65.99 13.2591 66.46 12.9391 67.13V71H10.7341V63.56ZM25.8633 71H24.0633L23.8983 69.935H23.8383C23.5083 70.315 23.1433 70.62 22.7433 70.85C22.3433 71.07 21.8733 71.18 21.3333 71.18C20.4833 71.18 19.8683 70.91 19.4883 70.37C19.1083 69.83 18.9183 69.09 18.9183 68.15V63.56H21.1233V67.865C21.1233 68.365 21.1983 68.73 21.3483 68.96C21.4983 69.19 21.7833 69.305 22.2033 69.305C22.4833 69.305 22.7283 69.245 22.9383 69.125C23.1583 69.005 23.3983 68.78 23.6583 68.45V63.56H25.8633V71ZM27.8074 67.28C27.8074 66.67 27.9124 66.125 28.1224 65.645C28.3424 65.165 28.6324 64.76 28.9924 64.43C29.3524 64.09 29.7624 63.83 30.2224 63.65C30.6924 63.47 31.1774 63.38 31.6774 63.38C32.2474 63.38 32.7524 63.47 33.1924 63.65C33.6324 63.83 33.9974 64.08 34.2874 64.4C34.5774 64.72 34.7974 65.1 34.9474 65.54C35.0974 65.97 35.1724 66.44 35.1724 66.95C35.1724 67.15 35.1624 67.34 35.1424 67.52C35.1224 67.7 35.1024 67.835 35.0824 67.925H30.0724C30.1524 68.485 30.3924 68.89 30.7924 69.14C31.2024 69.38 31.6824 69.5 32.2324 69.5C32.5724 69.5 32.8924 69.46 33.1924 69.38C33.5024 69.29 33.8224 69.16 34.1524 68.99L34.8724 70.31C34.4524 70.58 33.9824 70.795 33.4624 70.955C32.9424 71.105 32.4324 71.18 31.9324 71.18C31.3524 71.18 30.8124 71.095 30.3124 70.925C29.8124 70.745 29.3774 70.49 29.0074 70.16C28.6374 69.82 28.3424 69.41 28.1224 68.93C27.9124 68.45 27.8074 67.9 27.8074 67.28ZM33.1774 66.47C33.1774 66.05 33.0624 65.71 32.8324 65.45C32.6024 65.19 32.2324 65.06 31.7224 65.06C31.3224 65.06 30.9674 65.175 30.6574 65.405C30.3474 65.635 30.1424 65.99 30.0424 66.47H33.1774Z" transform="translate(8 152)" fill="white"/>
<path d="M4.5 15.18C3.92 15.18 3.385 15.065 2.895 14.835C2.415 14.595 2 14.255 1.65 13.815C1.31 13.375 1.045 12.84 0.855 12.21C0.665 11.58 0.57 10.865 0.57 10.065C0.57 9.265 0.665 8.555 0.855 7.935C1.045 7.305 1.31 6.78 1.65 6.36C2 5.93 2.415 5.605 2.895 5.385C3.385 5.155 3.92 5.04 4.5 5.04C5.08 5.04 5.61 5.155 6.09 5.385C6.58 5.605 6.995 5.93 7.335 6.36C7.685 6.79 7.955 7.32 8.145 7.95C8.335 8.57 8.43 9.275 8.43 10.065C8.43 10.865 8.335 11.58 8.145 12.21C7.955 12.84 7.685 13.375 7.335 13.815C6.995 14.255 6.58 14.595 6.09 14.835C5.61 15.065 5.08 15.18 4.5 15.18ZM4.5 13.275C5.01 13.275 5.415 12.99 5.715 12.42C6.015 11.84 6.165 11.055 6.165 10.065C6.165 9.085 6.015 8.32 5.715 7.77C5.415 7.22 5.01 6.945 4.5 6.945C3.99 6.945 3.585 7.22 3.285 7.77C2.985 8.32 2.835 9.085 2.835 10.065C2.835 11.055 2.985 11.84 3.285 12.42C3.585 12.99 3.99 13.275 4.5 13.275ZM16.8691 15H15.0691L14.9041 13.935H14.8441C14.5141 14.315 14.1491 14.62 13.7491 14.85C13.3491 15.07 12.8791 15.18 12.3391 15.18C11.4891 15.18 10.8741 14.91 10.4941 14.37C10.1141 13.83 9.92414 13.09 9.92414 12.15V7.56H12.1291V11.865C12.1291 12.365 12.2041 12.73 12.3541 12.96C12.5041 13.19 12.7891 13.305 13.2091 13.305C13.4891 13.305 13.7341 13.245 13.9441 13.125C14.1641 13.005 14.4041 12.78 14.6641 12.45V7.56H16.8691V15ZM20.5983 9.285H18.7233V7.65L20.7033 7.56L20.9883 5.58H22.8033V7.56H25.9533V9.285H22.8033V11.895C22.8033 12.465 22.9283 12.87 23.1783 13.11C23.4283 13.34 23.8233 13.455 24.3633 13.455C24.6533 13.455 24.9183 13.43 25.1583 13.38C25.3983 13.33 25.6283 13.265 25.8483 13.185L26.2383 14.775C25.9083 14.875 25.5383 14.965 25.1283 15.045C24.7283 15.135 24.2883 15.18 23.8083 15.18C23.2183 15.18 22.7183 15.1 22.3083 14.94C21.8983 14.78 21.5633 14.56 21.3033 14.28C21.0533 13.99 20.8733 13.645 20.7633 13.245C20.6533 12.845 20.5983 12.4 20.5983 11.91V9.285ZM30.2674 15.585V17.76H28.0624V7.56H29.8624L30.0274 8.31H30.0724C30.3724 8.04 30.7174 7.82 31.1074 7.65C31.4974 7.47 31.8924 7.38 32.2924 7.38C32.7524 7.38 33.1674 7.47 33.5374 7.65C33.9074 7.83 34.2224 8.085 34.4824 8.415C34.7424 8.745 34.9374 9.145 35.0674 9.615C35.2074 10.075 35.2774 10.59 35.2774 11.16C35.2774 11.8 35.1874 12.37 35.0074 12.87C34.8274 13.36 34.5874 13.78 34.2874 14.13C33.9874 14.47 33.6424 14.73 33.2524 14.91C32.8724 15.09 32.4724 15.18 32.0524 15.18C31.3724 15.18 30.7524 14.91 30.1924 14.37L30.2674 15.585ZM30.2674 12.885C30.4774 13.065 30.6924 13.195 30.9124 13.275C31.1424 13.345 31.3524 13.38 31.5424 13.38C31.9624 13.38 32.3124 13.21 32.5924 12.87C32.8724 12.52 33.0124 11.96 33.0124 11.19C33.0124 9.85 32.5574 9.18 31.6474 9.18C31.1774 9.18 30.7174 9.41 30.2674 9.87V12.885ZM43.8516 15H42.0516L41.8866 13.935H41.8266C41.4966 14.315 41.1316 14.62 40.7316 14.85C40.3316 15.07 39.8616 15.18 39.3216 15.18C38.4716 15.18 37.8566 14.91 37.4766 14.37C37.0966 13.83 36.9066 13.09 36.9066 12.15V7.56H39.1116V11.865C39.1116 12.365 39.1866 12.73 39.3366 12.96C39.4866 13.19 39.7716 13.305 40.1916 13.305C40.4716 13.305 40.7166 13.245 40.9266 13.125C41.1466 13.005 41.3866 12.78 41.6466 12.45V7.56H43.8516V15ZM47.5807 9.285H45.7057V7.65L47.6857 7.56L47.9707 5.58H49.7857V7.56H52.9357V9.285H49.7857V11.895C49.7857 12.465 49.9107 12.87 50.1607 13.11C50.4107 13.34 50.8057 13.455 51.3457 13.455C51.6357 13.455 51.9007 13.43 52.1407 13.38C52.3807 13.33 52.6107 13.265 52.8307 13.185L53.2207 14.775C52.8907 14.875 52.5207 14.965 52.1107 15.045C51.7107 15.135 51.2707 15.18 50.7907 15.18C50.2007 15.18 49.7007 15.1 49.2907 14.94C48.8807 14.78 48.5457 14.56 48.2857 14.28C48.0357 13.99 47.8557 13.645 47.7457 13.245C47.6357 12.845 47.5807 12.4 47.5807 11.91V9.285Z" transform="translate(8 128)" fill="white"/>
<rect width="376" height="31" transform="translate(80)" fill="#333333"/>
<rect width="376" height="31" transform="translate(80)" fill="#333333"/>
<rect width="79" height="31" transform="translate(1.01071)" fill="#090808"/>
<path d="M5.10498 11.8101C5.10498 11.5513 4.97559 11.3486 4.7168 11.2021C4.46289 11.0508 4.05273 10.9165 3.48633 10.7993C1.60156 10.4038 0.65918 9.60303 0.65918 8.39697C0.65918 7.69385 0.949707 7.10791 1.53076 6.63916C2.1167 6.16553 2.88086 5.92871 3.82324 5.92871C4.8291 5.92871 5.63232 6.16553 6.23291 6.63916C6.83838 7.11279 7.14111 7.72803 7.14111 8.48486H5.02441C5.02441 8.18213 4.92676 7.93311 4.73145 7.73779C4.53613 7.5376 4.23096 7.4375 3.81592 7.4375C3.45947 7.4375 3.18359 7.51807 2.98828 7.6792C2.79297 7.84033 2.69531 8.04541 2.69531 8.29443C2.69531 8.52881 2.80518 8.71924 3.0249 8.86572C3.24951 9.00732 3.62549 9.13184 4.15283 9.23926C4.68018 9.3418 5.12451 9.45898 5.48584 9.59082C6.604 10.001 7.16309 10.7114 7.16309 11.7222C7.16309 12.4448 6.85303 13.0308 6.23291 13.48C5.61279 13.9243 4.81201 14.1465 3.83057 14.1465C3.1665 14.1465 2.57568 14.0293 2.05811 13.7949C1.54541 13.5557 1.14258 13.231 0.849609 12.8208C0.556641 12.4058 0.410156 11.959 0.410156 11.4805H2.41699C2.43652 11.8564 2.57568 12.1445 2.83447 12.3447C3.09326 12.5449 3.43994 12.645 3.87451 12.645C4.27979 12.645 4.58496 12.5693 4.79004 12.418C5 12.2617 5.10498 12.0591 5.10498 11.8101ZM11.8286 12.4399C12.2192 12.4399 12.5366 12.3325 12.7808 12.1177C13.0249 11.9028 13.1519 11.6172 13.1616 11.2607H15.1465C15.1416 11.7979 14.9951 12.291 14.707 12.7402C14.4189 13.1846 14.0234 13.5312 13.5205 13.7803C13.0225 14.0244 12.4707 14.1465 11.8652 14.1465C10.7324 14.1465 9.83887 13.7876 9.18457 13.0698C8.53027 12.3472 8.20312 11.3511 8.20312 10.0815V9.94238C8.20312 8.72168 8.52783 7.74756 9.17725 7.02002C9.82666 6.29248 10.7178 5.92871 11.8506 5.92871C12.8418 5.92871 13.6353 6.21191 14.231 6.77832C14.8315 7.33984 15.1367 8.08936 15.1465 9.02686H13.1616C13.1519 8.6167 13.0249 8.28467 12.7808 8.03076C12.5366 7.77197 12.2144 7.64258 11.814 7.64258C11.3208 7.64258 10.9473 7.82324 10.6934 8.18457C10.4443 8.54102 10.3198 9.12207 10.3198 9.92773V10.1475C10.3198 10.9629 10.4443 11.5488 10.6934 11.9053C10.9424 12.2617 11.3208 12.4399 11.8286 12.4399ZM20.8081 8.06006C20.52 8.021 20.2661 8.00146 20.0464 8.00146C19.2456 8.00146 18.7207 8.27246 18.4717 8.81445V14H16.355V6.0752H18.3545L18.4131 7.02002C18.8379 6.29248 19.4263 5.92871 20.1782 5.92871C20.4126 5.92871 20.6323 5.96045 20.8374 6.02393L20.8081 8.06006ZM24.0674 14H21.9434V6.0752H24.0674V14ZM21.8188 4.02441C21.8188 3.70703 21.9238 3.4458 22.1338 3.24072C22.3486 3.03564 22.6392 2.93311 23.0054 2.93311C23.3667 2.93311 23.6548 3.03564 23.8696 3.24072C24.0845 3.4458 24.1919 3.70703 24.1919 4.02441C24.1919 4.34668 24.082 4.61035 23.8623 4.81543C23.6475 5.02051 23.3618 5.12305 23.0054 5.12305C22.6489 5.12305 22.3608 5.02051 22.1411 4.81543C21.9263 4.61035 21.8188 4.34668 21.8188 4.02441ZM32.9517 10.1108C32.9517 11.3315 32.6733 12.3105 32.1167 13.0479C31.5649 13.7803 30.8179 14.1465 29.8755 14.1465C29.0747 14.1465 28.4277 13.8682 27.9346 13.3115V17.0469H25.8179V6.0752H27.7808L27.854 6.85156C28.3667 6.23633 29.0356 5.92871 29.8608 5.92871C30.8374 5.92871 31.5967 6.29004 32.1387 7.0127C32.6807 7.73535 32.9517 8.73145 32.9517 10.001V10.1108ZM30.835 9.95703C30.835 9.21973 30.7031 8.65088 30.4395 8.25049C30.1807 7.8501 29.8022 7.6499 29.3042 7.6499C28.6401 7.6499 28.1836 7.90381 27.9346 8.41162V11.6562C28.1934 12.1787 28.6548 12.4399 29.3188 12.4399C30.3296 12.4399 30.835 11.6123 30.835 9.95703ZM36.8042 4.12695V6.0752H38.1592V7.62793H36.8042V11.583C36.8042 11.876 36.8604 12.0859 36.9727 12.2129C37.085 12.3398 37.2998 12.4033 37.6172 12.4033C37.8516 12.4033 38.0591 12.3862 38.2397 12.3521V13.9561C37.8247 14.083 37.3975 14.1465 36.958 14.1465C35.4736 14.1465 34.7168 13.397 34.6875 11.8979V7.62793H33.5303V6.0752H34.6875V4.12695H36.8042ZM39.4482 12.96C39.4482 12.623 39.5605 12.3496 39.7852 12.1396C40.0146 11.9297 40.3003 11.8247 40.6421 11.8247C40.9888 11.8247 41.2744 11.9297 41.499 12.1396C41.7285 12.3496 41.8433 12.623 41.8433 12.96C41.8433 13.292 41.731 13.563 41.5063 13.7729C41.2817 13.978 40.9937 14.0806 40.6421 14.0806C40.2954 14.0806 40.0098 13.978 39.7852 13.7729C39.5605 13.563 39.4482 13.292 39.4482 12.96ZM50.8374 10.1108C50.8374 11.3315 50.5591 12.3105 50.0024 13.0479C49.4507 13.7803 48.7036 14.1465 47.7612 14.1465C46.9604 14.1465 46.3135 13.8682 45.8203 13.3115V17.0469H43.7036V6.0752H45.6665L45.7397 6.85156C46.2524 6.23633 46.9214 5.92871 47.7466 5.92871C48.7231 5.92871 49.4824 6.29004 50.0244 7.0127C50.5664 7.73535 50.8374 8.73145 50.8374 10.001V10.1108ZM48.7207 9.95703C48.7207 9.21973 48.5889 8.65088 48.3252 8.25049C48.0664 7.8501 47.688 7.6499 47.1899 7.6499C46.5259 7.6499 46.0693 7.90381 45.8203 8.41162V11.6562C46.0791 12.1787 46.5405 12.4399 47.2046 12.4399C48.2153 12.4399 48.7207 11.6123 48.7207 9.95703ZM55.0269 11.0044L56.4917 6.0752H58.7622L55.5762 15.2305L55.4004 15.6479C54.9268 16.6831 54.1455 17.2007 53.0566 17.2007C52.749 17.2007 52.4365 17.1543 52.1191 17.0615V15.4575L52.4414 15.4648C52.8418 15.4648 53.1396 15.4038 53.335 15.2817C53.5352 15.1597 53.6914 14.957 53.8037 14.6738L54.0527 14.022L51.2769 6.0752H53.5547L55.0269 11.0044Z" transform="translate(8.01071 6)" fill="white"/>
<line y1="-0.5" x2="455.027" y2="-0.5" transform="translate(0.986267 125.5)" stroke="white"/>
<path d="M3.285 15.585V17.76H1.08V7.56H2.88L3.045 8.31H3.09C3.39 8.04 3.735 7.82 4.125 7.65C4.515 7.47 4.91 7.38 5.31 7.38C5.77 7.38 6.185 7.47 6.555 7.65C6.925 7.83 7.24 8.085 7.5 8.415C7.76 8.745 7.955 9.145 8.085 9.615C8.225 10.075 8.295 10.59 8.295 11.16C8.295 11.8 8.205 12.37 8.025 12.87C7.845 13.36 7.605 13.78 7.305 14.13C7.005 14.47 6.66 14.73 6.27 14.91C5.89 15.09 5.49 15.18 5.07 15.18C4.39 15.18 3.77 14.91 3.21 14.37L3.285 15.585ZM3.285 12.885C3.495 13.065 3.71 13.195 3.93 13.275C4.16 13.345 4.37 13.38 4.56 13.38C4.98 13.38 5.33 13.21 5.61 12.87C5.89 12.52 6.03 11.96 6.03 11.19C6.03 9.85 5.575 9.18 4.665 9.18C4.195 9.18 3.735 9.41 3.285 9.87V12.885ZM10.7341 7.56H12.5341L12.7141 9.18H12.7591C13.1291 8.57 13.5741 8.12 14.0941 7.83C14.6141 7.53 15.1741 7.38 15.7741 7.38C16.1041 7.38 16.3691 7.405 16.5691 7.455C16.7791 7.505 16.9941 7.58 17.2141 7.68L16.7641 9.525C16.5341 9.455 16.3241 9.405 16.1341 9.375C15.9541 9.335 15.7241 9.315 15.4441 9.315C14.9841 9.315 14.5291 9.45 14.0791 9.72C13.6391 9.99 13.2591 10.46 12.9391 11.13V15H10.7341V7.56ZM19.1733 7.56H24.3633V15H22.1583V9.285H19.1733V7.56ZM23.1633 6.465C22.7333 6.465 22.3783 6.345 22.0983 6.105C21.8283 5.865 21.6933 5.54 21.6933 5.13C21.6933 4.72 21.8283 4.39 22.0983 4.14C22.3783 3.88 22.7333 3.75 23.1633 3.75C23.5933 3.75 23.9433 3.88 24.2133 4.14C24.4933 4.39 24.6333 4.72 24.6333 5.13C24.6333 5.54 24.4933 5.865 24.2133 6.105C23.9433 6.345 23.5933 6.465 23.1633 6.465ZM28.0624 7.56H29.8624L30.0274 8.55H30.0874C30.4074 8.23 30.7724 7.955 31.1824 7.725C31.6024 7.495 32.0924 7.38 32.6524 7.38C33.4924 7.38 34.1074 7.65 34.4974 8.19C34.8874 8.73 35.0824 9.47 35.0824 10.41V15H32.8774V10.695C32.8774 10.195 32.7974 9.83 32.6374 9.6C32.4774 9.37 32.1924 9.255 31.7824 9.255C31.4824 9.255 31.2174 9.32 30.9874 9.45C30.7674 9.58 30.5274 9.775 30.2674 10.035V15H28.0624V7.56ZM38.5866 9.285H36.7116V7.65L38.6916 7.56L38.9766 5.58H40.7916V7.56H43.9416V9.285H40.7916V11.895C40.7916 12.465 40.9166 12.87 41.1666 13.11C41.4166 13.34 41.8116 13.455 42.3516 13.455C42.6416 13.455 42.9066 13.43 43.1466 13.38C43.3866 13.33 43.6166 13.265 43.8366 13.185L44.2266 14.775C43.8966 14.875 43.5266 14.965 43.1166 15.045C42.7166 15.135 42.2766 15.18 41.7966 15.18C41.2066 15.18 40.7066 15.1 40.2966 14.94C39.8866 14.78 39.5516 14.56 39.2916 14.28C39.0416 13.99 38.8616 13.645 38.7516 13.245C38.6416 12.845 38.5866 12.4 38.5866 11.91V9.285ZM3.285 34.585V36.76H1.08V26.56H2.88L3.045 27.31H3.09C3.39 27.04 3.735 26.82 4.125 26.65C4.515 26.47 4.91 26.38 5.31 26.38C5.77 26.38 6.185 26.47 6.555 26.65C6.925 26.83 7.24 27.085 7.5 27.415C7.76 27.745 7.955 28.145 8.085 28.615C8.225 29.075 8.295 29.59 8.295 30.16C8.295 30.8 8.205 31.37 8.025 31.87C7.845 32.36 7.605 32.78 7.305 33.13C7.005 33.47 6.66 33.73 6.27 33.91C5.89 34.09 5.49 34.18 5.07 34.18C4.39 34.18 3.77 33.91 3.21 33.37L3.285 34.585ZM3.285 31.885C3.495 32.065 3.71 32.195 3.93 32.275C4.16 32.345 4.37 32.38 4.56 32.38C4.98 32.38 5.33 32.21 5.61 31.87C5.89 31.52 6.03 30.96 6.03 30.19C6.03 28.85 5.575 28.18 4.665 28.18C4.195 28.18 3.735 28.41 3.285 28.87V31.885ZM10.7341 26.56H12.5341L12.7141 28.18H12.7591C13.1291 27.57 13.5741 27.12 14.0941 26.83C14.6141 26.53 15.1741 26.38 15.7741 26.38C16.1041 26.38 16.3691 26.405 16.5691 26.455C16.7791 26.505 16.9941 26.58 17.2141 26.68L16.7641 28.525C16.5341 28.455 16.3241 28.405 16.1341 28.375C15.9541 28.335 15.7241 28.315 15.4441 28.315C14.9841 28.315 14.5291 28.45 14.0791 28.72C13.6391 28.99 13.2591 29.46 12.9391 30.13V34H10.7341V26.56ZM19.1733 26.56H24.3633V34H22.1583V28.285H19.1733V26.56ZM23.1633 25.465C22.7333 25.465 22.3783 25.345 22.0983 25.105C21.8283 24.865 21.6933 24.54 21.6933 24.13C21.6933 23.72 21.8283 23.39 22.0983 23.14C22.3783 22.88 22.7333 22.75 23.1633 22.75C23.5933 22.75 23.9433 22.88 24.2133 23.14C24.4933 23.39 24.6333 23.72 24.6333 24.13C24.6333 24.54 24.4933 24.865 24.2133 25.105C23.9433 25.345 23.5933 25.465 23.1633 25.465ZM28.0624 26.56H29.8624L30.0274 27.55H30.0874C30.4074 27.23 30.7724 26.955 31.1824 26.725C31.6024 26.495 32.0924 26.38 32.6524 26.38C33.4924 26.38 34.1074 26.65 34.4974 27.19C34.8874 27.73 35.0824 28.47 35.0824 29.41V34H32.8774V29.695C32.8774 29.195 32.7974 28.83 32.6374 28.6C32.4774 28.37 32.1924 28.255 31.7824 28.255C31.4824 28.255 31.2174 28.32 30.9874 28.45C30.7674 28.58 30.5274 28.775 30.2674 29.035V34H28.0624V26.56ZM38.5866 28.285H36.7116V26.65L38.6916 26.56L38.9766 24.58H40.7916V26.56H43.9416V28.285H40.7916V30.895C40.7916 31.465 40.9166 31.87 41.1666 32.11C41.4166 32.34 41.8116 32.455 42.3516 32.455C42.6416 32.455 42.9066 32.43 43.1466 32.38C43.3866 32.33 43.6166 32.265 43.8366 32.185L44.2266 33.775C43.8966 33.875 43.5266 33.965 43.1166 34.045C42.7166 34.135 42.2766 34.18 41.7966 34.18C41.2066 34.18 40.7066 34.1 40.2966 33.94C39.8866 33.78 39.5516 33.56 39.2916 33.28C39.0416 32.99 38.8616 32.645 38.7516 32.245C38.6416 31.845 38.5866 31.4 38.5866 30.91V28.285ZM3.285 52.585V54.76H1.08V44.56H2.88L3.045 45.31H3.09C3.39 45.04 3.735 44.82 4.125 44.65C4.515 44.47 4.91 44.38 5.31 44.38C5.77 44.38 6.185 44.47 6.555 44.65C6.925 44.83 7.24 45.085 7.5 45.415C7.76 45.745 7.955 46.145 8.085 46.615C8.225 47.075 8.295 47.59 8.295 48.16C8.295 48.8 8.205 49.37 8.025 49.87C7.845 50.36 7.605 50.78 7.305 51.13C7.005 51.47 6.66 51.73 6.27 51.91C5.89 52.09 5.49 52.18 5.07 52.18C4.39 52.18 3.77 51.91 3.21 51.37L3.285 52.585ZM3.285 49.885C3.495 50.065 3.71 50.195 3.93 50.275C4.16 50.345 4.37 50.38 4.56 50.38C4.98 50.38 5.33 50.21 5.61 49.87C5.89 49.52 6.03 48.96 6.03 48.19C6.03 46.85 5.575 46.18 4.665 46.18C4.195 46.18 3.735 46.41 3.285 46.87V49.885ZM10.7341 44.56H12.5341L12.7141 46.18H12.7591C13.1291 45.57 13.5741 45.12 14.0941 44.83C14.6141 44.53 15.1741 44.38 15.7741 44.38C16.1041 44.38 16.3691 44.405 16.5691 44.455C16.7791 44.505 16.9941 44.58 17.2141 44.68L16.7641 46.525C16.5341 46.455 16.3241 46.405 16.1341 46.375C15.9541 46.335 15.7241 46.315 15.4441 46.315C14.9841 46.315 14.5291 46.45 14.0791 46.72C13.6391 46.99 13.2591 47.46 12.9391 48.13V52H10.7341V44.56ZM19.1733 44.56H24.3633V52H22.1583V46.285H19.1733V44.56ZM23.1633 43.465C22.7333 43.465 22.3783 43.345 22.0983 43.105C21.8283 42.865 21.6933 42.54 21.6933 42.13C21.6933 41.72 21.8283 41.39 22.0983 41.14C22.3783 40.88 22.7333 40.75 23.1633 40.75C23.5933 40.75 23.9433 40.88 24.2133 41.14C24.4933 41.39 24.6333 41.72 24.6333 42.13C24.6333 42.54 24.4933 42.865 24.2133 43.105C23.9433 43.345 23.5933 43.465 23.1633 43.465ZM28.0624 44.56H29.8624L30.0274 45.55H30.0874C30.4074 45.23 30.7724 44.955 31.1824 44.725C31.6024 44.495 32.0924 44.38 32.6524 44.38C33.4924 44.38 34.1074 44.65 34.4974 45.19C34.8874 45.73 35.0824 46.47 35.0824 47.41V52H32.8774V47.695C32.8774 47.195 32.7974 46.83 32.6374 46.6C32.4774 46.37 32.1924 46.255 31.7824 46.255C31.4824 46.255 31.2174 46.32 30.9874 46.45C30.7674 46.58 30.5274 46.775 30.2674 47.035V52H28.0624V44.56ZM38.5866 46.285H36.7116V44.65L38.6916 44.56L38.9766 42.58H40.7916V44.56H43.9416V46.285H40.7916V48.895C40.7916 49.465 40.9166 49.87 41.1666 50.11C41.4166 50.34 41.8116 50.455 42.3516 50.455C42.6416 50.455 42.9066 50.43 43.1466 50.38C43.3866 50.33 43.6166 50.265 43.8366 50.185L44.2266 51.775C43.8966 51.875 43.5266 51.965 43.1166 52.045C42.7166 52.135 42.2766 52.18 41.7966 52.18C41.2066 52.18 40.7066 52.1 40.2966 51.94C39.8866 51.78 39.5516 51.56 39.2916 51.28C39.0416 50.99 38.8616 50.645 38.7516 50.245C38.6416 49.845 38.5866 49.4 38.5866 48.91V46.285ZM3.285 71.585V73.76H1.08V63.56H2.88L3.045 64.31H3.09C3.39 64.04 3.735 63.82 4.125 63.65C4.515 63.47 4.91 63.38 5.31 63.38C5.77 63.38 6.185 63.47 6.555 63.65C6.925 63.83 7.24 64.085 7.5 64.415C7.76 64.745 7.955 65.145 8.085 65.615C8.225 66.075 8.295 66.59 8.295 67.16C8.295 67.8 8.205 68.37 8.025 68.87C7.845 69.36 7.605 69.78 7.305 70.13C7.005 70.47 6.66 70.73 6.27 70.91C5.89 71.09 5.49 71.18 5.07 71.18C4.39 71.18 3.77 70.91 3.21 70.37L3.285 71.585ZM3.285 68.885C3.495 69.065 3.71 69.195 3.93 69.275C4.16 69.345 4.37 69.38 4.56 69.38C4.98 69.38 5.33 69.21 5.61 68.87C5.89 68.52 6.03 67.96 6.03 67.19C6.03 65.85 5.575 65.18 4.665 65.18C4.195 65.18 3.735 65.41 3.285 65.87V68.885ZM10.7341 63.56H12.5341L12.7141 65.18H12.7591C13.1291 64.57 13.5741 64.12 14.0941 63.83C14.6141 63.53 15.1741 63.38 15.7741 63.38C16.1041 63.38 16.3691 63.405 16.5691 63.455C16.7791 63.505 16.9941 63.58 17.2141 63.68L16.7641 65.525C16.5341 65.455 16.3241 65.405 16.1341 65.375C15.9541 65.335 15.7241 65.315 15.4441 65.315C14.9841 65.315 14.5291 65.45 14.0791 65.72C13.6391 65.99 13.2591 66.46 12.9391 67.13V71H10.7341V63.56ZM19.1733 63.56H24.3633V71H22.1583V65.285H19.1733V63.56ZM23.1633 62.465C22.7333 62.465 22.3783 62.345 22.0983 62.105C21.8283 61.865 21.6933 61.54 21.6933 61.13C21.6933 60.72 21.8283 60.39 22.0983 60.14C22.3783 59.88 22.7333 59.75 23.1633 59.75C23.5933 59.75 23.9433 59.88 24.2133 60.14C24.4933 60.39 24.6333 60.72 24.6333 61.13C24.6333 61.54 24.4933 61.865 24.2133 62.105C23.9433 62.345 23.5933 62.465 23.1633 62.465ZM28.0624 63.56H29.8624L30.0274 64.55H30.0874C30.4074 64.23 30.7724 63.955 31.1824 63.725C31.6024 63.495 32.0924 63.38 32.6524 63.38C33.4924 63.38 34.1074 63.65 34.4974 64.19C34.8874 64.73 35.0824 65.47 35.0824 66.41V71H32.8774V66.695C32.8774 66.195 32.7974 65.83 32.6374 65.6C32.4774 65.37 32.1924 65.255 31.7824 65.255C31.4824 65.255 31.2174 65.32 30.9874 65.45C30.7674 65.58 30.5274 65.775 30.2674 66.035V71H28.0624V63.56ZM38.5866 65.285H36.7116V63.65L38.6916 63.56L38.9766 61.58H40.7916V63.56H43.9416V65.285H40.7916V67.895C40.7916 68.465 40.9166 68.87 41.1666 69.11C41.4166 69.34 41.8116 69.455 42.3516 69.455C42.6416 69.455 42.9066 69.43 43.1466 69.38C43.3866 69.33 43.6166 69.265 43.8366 69.185L44.2266 70.775C43.8966 70.875 43.5266 70.965 43.1166 71.045C42.7166 71.135 42.2766 71.18 41.7966 71.18C41.2066 71.18 40.7066 71.1 40.2966 70.94C39.8866 70.78 39.5516 70.56 39.2916 70.28C39.0416 69.99 38.8616 69.645 38.7516 69.245C38.6416 68.845 38.5866 68.4 38.5866 67.91V65.285Z" transform="translate(8.01071 36)" fill="#56B4E9"/>
<path d="M50.8507 17.685C49.8707 16.815 49.0957 15.81 48.5257 14.67C47.9657 13.53 47.6857 12.25 47.6857 10.83C47.6857 9.41 47.9657 8.13 48.5257 6.99C49.0957 5.85 49.8707 4.845 50.8507 3.975L52.0807 4.95C51.1907 5.82 50.5407 6.725 50.1307 7.665C49.7307 8.595 49.5307 9.65 49.5307 10.83C49.5307 11.42 49.5807 11.98 49.6807 12.51C49.7807 13.03 49.9307 13.53 50.1307 14.01C50.3407 14.49 50.6057 14.95 50.9257 15.39C51.2457 15.84 51.6307 16.28 52.0807 16.71L50.8507 17.685ZM253.726 16.71C254.176 16.28 254.561 15.84 254.881 15.39C255.201 14.95 255.461 14.49 255.661 14.01C255.871 13.53 256.026 13.03 256.126 12.51C256.226 11.98 256.276 11.42 256.276 10.83C256.276 9.65 256.071 8.595 255.661 7.665C255.261 6.725 254.616 5.82 253.726 4.95L254.956 3.975C255.936 4.845 256.706 5.85 257.266 6.99C257.836 8.13 258.121 9.41 258.121 10.83C258.121 12.25 257.836 13.53 257.266 14.67C256.706 15.81 255.936 16.815 254.956 17.685L253.726 16.71ZM50.8507 36.685C49.8707 35.815 49.0957 34.81 48.5257 33.67C47.9657 32.53 47.6857 31.25 47.6857 29.83C47.6857 28.41 47.9657 27.13 48.5257 25.99C49.0957 24.85 49.8707 23.845 50.8507 22.975L52.0807 23.95C51.1907 24.82 50.5407 25.725 50.1307 26.665C49.7307 27.595 49.5307 28.65 49.5307 29.83C49.5307 30.42 49.5807 30.98 49.6807 31.51C49.7807 32.03 49.9307 32.53 50.1307 33.01C50.3407 33.49 50.6057 33.95 50.9257 34.39C51.2457 34.84 51.6307 35.28 52.0807 35.71L50.8507 36.685ZM262.72 35.71C263.17 35.28 263.555 34.84 263.875 34.39C264.195 33.95 264.455 33.49 264.655 33.01C264.865 32.53 265.02 32.03 265.12 31.51C265.22 30.98 265.27 30.42 265.27 29.83C265.27 28.65 265.065 27.595 264.655 26.665C264.255 25.725 263.61 24.82 262.72 23.95L263.95 22.975C264.93 23.845 265.7 24.85 266.26 25.99C266.83 27.13 267.115 28.41 267.115 29.83C267.115 31.25 266.83 32.53 266.26 33.67C265.7 34.81 264.93 35.815 263.95 36.685L262.72 35.71ZM50.8507 54.685C49.8707 53.815 49.0957 52.81 48.5257 51.67C47.9657 50.53 47.6857 49.25 47.6857 47.83C47.6857 46.41 47.9657 45.13 48.5257 43.99C49.0957 42.85 49.8707 41.845 50.8507 40.975L52.0807 41.95C51.1907 42.82 50.5407 43.725 50.1307 44.665C49.7307 45.595 49.5307 46.65 49.5307 47.83C49.5307 48.42 49.5807 48.98 49.6807 49.51C49.7807 50.03 49.9307 50.53 50.1307 51.01C50.3407 51.49 50.6057 51.95 50.9257 52.39C51.2457 52.84 51.6307 53.28 52.0807 53.71L50.8507 54.685ZM424.615 53.71C425.065 53.28 425.45 52.84 425.77 52.39C426.09 51.95 426.35 51.49 426.55 51.01C426.76 50.53 426.915 50.03 427.015 49.51C427.115 48.98 427.165 48.42 427.165 47.83C427.165 46.65 426.96 45.595 426.55 44.665C426.15 43.725 425.505 42.82 424.615 41.95L425.845 40.975C426.825 41.845 427.595 42.85 428.155 43.99C428.725 45.13 429.01 46.41 429.01 47.83C429.01 49.25 428.725 50.53 428.155 51.67C427.595 52.81 426.825 53.815 425.845 54.685L424.615 53.71ZM50.8507 73.685C49.8707 72.815 49.0957 71.81 48.5257 70.67C47.9657 69.53 47.6857 68.25 47.6857 66.83C47.6857 65.41 47.9657 64.13 48.5257 62.99C49.0957 61.85 49.8707 60.845 50.8507 59.975L52.0807 60.95C51.1907 61.82 50.5407 62.725 50.1307 63.665C49.7307 64.595 49.5307 65.65 49.5307 66.83C49.5307 67.42 49.5807 67.98 49.6807 68.51C49.7807 69.03 49.9307 69.53 50.1307 70.01C50.3407 70.49 50.6057 70.95 50.9257 71.39C51.2457 71.84 51.6307 72.28 52.0807 72.71L50.8507 73.685ZM334.673 72.71C335.123 72.28 335.508 71.84 335.828 71.39C336.148 70.95 336.408 70.49 336.608 70.01C336.818 69.53 336.973 69.03 337.073 68.51C337.173 67.98 337.223 67.42 337.223 66.83C337.223 65.65 337.018 64.595 336.608 63.665C336.208 62.725 335.563 61.82 334.673 60.95L335.903 59.975C336.883 60.845 337.653 61.85 338.213 62.99C338.783 64.13 339.068 65.41 339.068 66.83C339.068 68.25 338.783 69.53 338.213 70.67C337.653 71.81 336.883 72.815 335.903 73.685L334.673 72.71Z" transform="translate(8.01071 36)" fill="white"/>
<path d="M57.3548 7.08H54.4298V5.22H62.4998V7.08H59.5748V15H57.3548V7.08ZM64.699 7.56H66.499L66.679 9.18H66.724C67.094 8.57 67.539 8.12 68.059 7.83C68.579 7.53 69.139 7.38 69.739 7.38C70.069 7.38 70.334 7.405 70.534 7.455C70.744 7.505 70.959 7.58 71.179 7.68L70.729 9.525C70.499 9.455 70.289 9.405 70.099 9.375C69.919 9.335 69.689 9.315 69.409 9.315C68.949 9.315 68.494 9.45 68.044 9.72C67.604 9.99 67.224 10.46 66.904 11.13V15H64.699V7.56ZM79.8281 15H78.0281L77.8631 13.935H77.8031C77.4731 14.315 77.1081 14.62 76.7081 14.85C76.3081 15.07 75.8381 15.18 75.2981 15.18C74.4481 15.18 73.8331 14.91 73.4531 14.37C73.0731 13.83 72.8831 13.09 72.8831 12.15V7.56H75.0881V11.865C75.0881 12.365 75.1631 12.73 75.3131 12.96C75.4631 13.19 75.7481 13.305 76.1681 13.305C76.4481 13.305 76.6931 13.245 76.9031 13.125C77.1231 13.005 77.3631 12.78 77.6231 12.45V7.56H79.8281V15ZM81.7723 11.28C81.7723 10.67 81.8773 10.125 82.0873 9.645C82.3073 9.165 82.5973 8.76 82.9573 8.43C83.3173 8.09 83.7273 7.83 84.1873 7.65C84.6573 7.47 85.1423 7.38 85.6423 7.38C86.2123 7.38 86.7173 7.47 87.1573 7.65C87.5973 7.83 87.9623 8.08 88.2523 8.4C88.5423 8.72 88.7623 9.1 88.9123 9.54C89.0623 9.97 89.1373 10.44 89.1373 10.95C89.1373 11.15 89.1273 11.34 89.1073 11.52C89.0873 11.7 89.0673 11.835 89.0473 11.925H84.0373C84.1173 12.485 84.3573 12.89 84.7573 13.14C85.1673 13.38 85.6473 13.5 86.1973 13.5C86.5373 13.5 86.8573 13.46 87.1573 13.38C87.4673 13.29 87.7873 13.16 88.1173 12.99L88.8373 14.31C88.4173 14.58 87.9473 14.795 87.4273 14.955C86.9073 15.105 86.3973 15.18 85.8973 15.18C85.3173 15.18 84.7773 15.095 84.2773 14.925C83.7773 14.745 83.3423 14.49 82.9723 14.16C82.6023 13.82 82.3073 13.41 82.0873 12.93C81.8773 12.45 81.7723 11.9 81.7723 11.28ZM87.1423 10.47C87.1423 10.05 87.0273 9.71 86.7973 9.45C86.5673 9.19 86.1973 9.06 85.6873 9.06C85.2873 9.06 84.9323 9.175 84.6223 9.405C84.3123 9.635 84.1073 9.99 84.0073 10.47H87.1423ZM99.8505 12.93C99.8505 12.51 99.9405 12.145 100.121 11.835C100.301 11.515 100.586 11.245 100.976 11.025C101.376 10.805 101.886 10.63 102.506 10.5C103.126 10.36 103.876 10.265 104.756 10.215C104.716 9.875 104.566 9.61 104.306 9.42C104.056 9.23 103.676 9.135 103.166 9.135C102.806 9.135 102.441 9.2 102.071 9.33C101.711 9.45 101.321 9.615 100.901 9.825L100.121 8.385C100.631 8.095 101.176 7.855 101.756 7.665C102.346 7.475 102.961 7.38 103.601 7.38C104.641 7.38 105.461 7.655 106.061 8.205C106.661 8.755 106.961 9.6 106.961 10.74V15H105.161L104.996 14.16H104.936C104.556 14.45 104.141 14.695 103.691 14.895C103.241 15.085 102.776 15.18 102.296 15.18C101.916 15.18 101.576 15.12 101.276 15C100.976 14.89 100.721 14.735 100.511 14.535C100.301 14.325 100.136 14.085 100.016 13.815C99.9055 13.545 99.8505 13.25 99.8505 12.93ZM101.966 12.765C101.966 13.005 102.056 13.185 102.236 13.305C102.426 13.415 102.681 13.47 103.001 13.47C103.331 13.47 103.641 13.405 103.931 13.275C104.221 13.135 104.496 12.965 104.756 12.765V11.535C104.206 11.565 103.751 11.615 103.391 11.685C103.031 11.755 102.746 11.845 102.536 11.955C102.326 12.055 102.176 12.175 102.086 12.315C102.006 12.455 101.966 12.605 101.966 12.765ZM109.01 7.56H110.81L110.975 8.55H111.035C111.355 8.23 111.72 7.955 112.13 7.725C112.55 7.495 113.04 7.38 113.6 7.38C114.44 7.38 115.055 7.65 115.445 8.19C115.835 8.73 116.03 9.47 116.03 10.41V15H113.825V10.695C113.825 10.195 113.745 9.83 113.585 9.6C113.425 9.37 113.14 9.255 112.73 9.255C112.43 9.255 112.165 9.32 111.935 9.45C111.715 9.58 111.475 9.775 111.215 10.035V15H109.01V7.56ZM117.629 11.28C117.629 10.67 117.719 10.125 117.899 9.645C118.079 9.165 118.314 8.76 118.604 8.43C118.904 8.09 119.244 7.83 119.624 7.65C120.004 7.47 120.399 7.38 120.809 7.38C121.239 7.38 121.599 7.455 121.889 7.605C122.179 7.745 122.454 7.935 122.714 8.175L122.639 7.02V4.485H124.844V15H123.044L122.879 14.235H122.834C122.554 14.505 122.234 14.73 121.874 14.91C121.514 15.09 121.144 15.18 120.764 15.18C120.294 15.18 119.864 15.09 119.474 14.91C119.094 14.73 118.764 14.475 118.484 14.145C118.214 13.805 118.004 13.395 117.854 12.915C117.704 12.435 117.629 11.89 117.629 11.28ZM119.894 11.25C119.894 11.99 120.019 12.53 120.269 12.87C120.519 13.21 120.874 13.38 121.334 13.38C121.584 13.38 121.814 13.33 122.024 13.23C122.234 13.12 122.439 12.94 122.639 12.69V9.675C122.439 9.495 122.234 9.37 122.024 9.3C121.824 9.22 121.614 9.18 121.394 9.18C120.984 9.18 120.629 9.35 120.329 9.69C120.039 10.03 119.894 10.55 119.894 11.25ZM138.302 7.08H135.377V5.22H143.447V7.08H140.522V15H138.302V7.08ZM145.646 7.56H147.446L147.626 9.18H147.671C148.041 8.57 148.486 8.12 149.006 7.83C149.526 7.53 150.086 7.38 150.686 7.38C151.016 7.38 151.281 7.405 151.481 7.455C151.691 7.505 151.906 7.58 152.126 7.68L151.676 9.525C151.446 9.455 151.236 9.405 151.046 9.375C150.866 9.335 150.636 9.315 150.356 9.315C149.896 9.315 149.441 9.45 148.991 9.72C148.551 9.99 148.171 10.46 147.851 11.13V15H145.646V7.56ZM160.775 15H158.975L158.81 13.935H158.75C158.42 14.315 158.055 14.62 157.655 14.85C157.255 15.07 156.785 15.18 156.245 15.18C155.395 15.18 154.78 14.91 154.4 14.37C154.02 13.83 153.83 13.09 153.83 12.15V7.56H156.035V11.865C156.035 12.365 156.11 12.73 156.26 12.96C156.41 13.19 156.695 13.305 157.115 13.305C157.395 13.305 157.64 13.245 157.85 13.125C158.07 13.005 158.31 12.78 158.57 12.45V7.56H160.775V15ZM162.72 11.28C162.72 10.67 162.825 10.125 163.035 9.645C163.255 9.165 163.545 8.76 163.905 8.43C164.265 8.09 164.675 7.83 165.135 7.65C165.605 7.47 166.09 7.38 166.59 7.38C167.16 7.38 167.665 7.47 168.105 7.65C168.545 7.83 168.91 8.08 169.2 8.4C169.49 8.72 169.71 9.1 169.86 9.54C170.01 9.97 170.085 10.44 170.085 10.95C170.085 11.15 170.075 11.34 170.055 11.52C170.035 11.7 170.015 11.835 169.995 11.925H164.985C165.065 12.485 165.305 12.89 165.705 13.14C166.115 13.38 166.595 13.5 167.145 13.5C167.485 13.5 167.805 13.46 168.105 13.38C168.415 13.29 168.735 13.16 169.065 12.99L169.785 14.31C169.365 14.58 168.895 14.795 168.375 14.955C167.855 15.105 167.345 15.18 166.845 15.18C166.265 15.18 165.725 15.095 165.225 14.925C164.725 14.745 164.29 14.49 163.92 14.16C163.55 13.82 163.255 13.41 163.035 12.93C162.825 12.45 162.72 11.9 162.72 11.28ZM168.09 10.47C168.09 10.05 167.975 9.71 167.745 9.45C167.515 9.19 167.145 9.06 166.635 9.06C166.235 9.06 165.88 9.175 165.57 9.405C165.26 9.635 165.055 9.99 164.955 10.47H168.09ZM180.798 12.93C180.798 12.51 180.888 12.145 181.068 11.835C181.248 11.515 181.533 11.245 181.923 11.025C182.323 10.805 182.833 10.63 183.453 10.5C184.073 10.36 184.823 10.265 185.703 10.215C185.663 9.875 185.513 9.61 185.253 9.42C185.003 9.23 184.623 9.135 184.113 9.135C183.753 9.135 183.388 9.2 183.018 9.33C182.658 9.45 182.268 9.615 181.848 9.825L181.068 8.385C181.578 8.095 182.123 7.855 182.703 7.665C183.293 7.475 183.908 7.38 184.548 7.38C185.588 7.38 186.408 7.655 187.008 8.205C187.608 8.755 187.908 9.6 187.908 10.74V15H186.108L185.943 14.16H185.883C185.503 14.45 185.088 14.695 184.638 14.895C184.188 15.085 183.723 15.18 183.243 15.18C182.863 15.18 182.523 15.12 182.223 15C181.923 14.89 181.668 14.735 181.458 14.535C181.248 14.325 181.083 14.085 180.963 13.815C180.853 13.545 180.798 13.25 180.798 12.93ZM182.913 12.765C182.913 13.005 183.003 13.185 183.183 13.305C183.373 13.415 183.628 13.47 183.948 13.47C184.278 13.47 184.588 13.405 184.878 13.275C185.168 13.135 185.443 12.965 185.703 12.765V11.535C185.153 11.565 184.698 11.615 184.338 11.685C183.978 11.755 183.693 11.845 183.483 11.955C183.273 12.055 183.123 12.175 183.033 12.315C182.953 12.455 182.913 12.605 182.913 12.765ZM189.957 7.56H191.757L191.922 8.55H191.982C192.302 8.23 192.667 7.955 193.077 7.725C193.497 7.495 193.987 7.38 194.547 7.38C195.387 7.38 196.002 7.65 196.392 8.19C196.782 8.73 196.977 9.47 196.977 10.41V15H194.772V10.695C194.772 10.195 194.692 9.83 194.532 9.6C194.372 9.37 194.087 9.255 193.677 9.255C193.377 9.255 193.112 9.32 192.882 9.45C192.662 9.58 192.422 9.775 192.162 10.035V15H189.957V7.56ZM198.576 11.28C198.576 10.67 198.666 10.125 198.846 9.645C199.026 9.165 199.261 8.76 199.551 8.43C199.851 8.09 200.191 7.83 200.571 7.65C200.951 7.47 201.346 7.38 201.756 7.38C202.186 7.38 202.546 7.455 202.836 7.605C203.126 7.745 203.401 7.935 203.661 8.175L203.586 7.02V4.485H205.791V15H203.991L203.826 14.235H203.781C203.501 14.505 203.181 14.73 202.821 14.91C202.461 15.09 202.091 15.18 201.711 15.18C201.241 15.18 200.811 15.09 200.421 14.91C200.041 14.73 199.711 14.475 199.431 14.145C199.161 13.805 198.951 13.395 198.801 12.915C198.651 12.435 198.576 11.89 198.576 11.28ZM200.841 11.25C200.841 11.99 200.966 12.53 201.216 12.87C201.466 13.21 201.821 13.38 202.281 13.38C202.531 13.38 202.761 13.33 202.971 13.23C203.181 13.12 203.386 12.94 203.586 12.69V9.675C203.386 9.495 203.181 9.37 202.971 9.3C202.771 9.22 202.561 9.18 202.341 9.18C201.931 9.18 201.576 9.35 201.276 9.69C200.986 10.03 200.841 10.55 200.841 11.25ZM219.249 7.08H216.324V5.22H224.394V7.08H221.469V15H219.249V7.08ZM226.594 7.56H228.394L228.574 9.18H228.619C228.989 8.57 229.434 8.12 229.954 7.83C230.474 7.53 231.034 7.38 231.634 7.38C231.964 7.38 232.229 7.405 232.429 7.455C232.639 7.505 232.854 7.58 233.074 7.68L232.624 9.525C232.394 9.455 232.184 9.405 231.994 9.375C231.814 9.335 231.584 9.315 231.304 9.315C230.844 9.315 230.389 9.45 229.939 9.72C229.499 9.99 229.119 10.46 228.799 11.13V15H226.594V7.56ZM241.723 15H239.923L239.758 13.935H239.698C239.368 14.315 239.003 14.62 238.603 14.85C238.203 15.07 237.733 15.18 237.193 15.18C236.343 15.18 235.728 14.91 235.348 14.37C234.968 13.83 234.778 13.09 234.778 12.15V7.56H236.983V11.865C236.983 12.365 237.058 12.73 237.208 12.96C237.358 13.19 237.643 13.305 238.063 13.305C238.343 13.305 238.588 13.245 238.798 13.125C239.018 13.005 239.258 12.78 239.518 12.45V7.56H241.723V15ZM243.667 11.28C243.667 10.67 243.772 10.125 243.982 9.645C244.202 9.165 244.492 8.76 244.852 8.43C245.212 8.09 245.622 7.83 246.082 7.65C246.552 7.47 247.037 7.38 247.537 7.38C248.107 7.38 248.612 7.47 249.052 7.65C249.492 7.83 249.857 8.08 250.147 8.4C250.437 8.72 250.657 9.1 250.807 9.54C250.957 9.97 251.032 10.44 251.032 10.95C251.032 11.15 251.022 11.34 251.002 11.52C250.982 11.7 250.962 11.835 250.942 11.925H245.932C246.012 12.485 246.252 12.89 246.652 13.14C247.062 13.38 247.542 13.5 248.092 13.5C248.432 13.5 248.752 13.46 249.052 13.38C249.362 13.29 249.682 13.16 250.012 12.99L250.732 14.31C250.312 14.58 249.842 14.795 249.322 14.955C248.802 15.105 248.292 15.18 247.792 15.18C247.212 15.18 246.672 15.095 246.172 14.925C245.672 14.745 245.237 14.49 244.867 14.16C244.497 13.82 244.202 13.41 243.982 12.93C243.772 12.45 243.667 11.9 243.667 11.28ZM249.037 10.47C249.037 10.05 248.922 9.71 248.692 9.45C248.462 9.19 248.092 9.06 247.582 9.06C247.182 9.06 246.827 9.175 246.517 9.405C246.207 9.635 246.002 9.99 245.902 10.47H249.037ZM57.3548 26.08H54.4298V24.22H62.4998V26.08H59.5748V34H57.3548V26.08ZM64.699 26.56H66.499L66.679 28.18H66.724C67.094 27.57 67.539 27.12 68.059 26.83C68.579 26.53 69.139 26.38 69.739 26.38C70.069 26.38 70.334 26.405 70.534 26.455C70.744 26.505 70.959 26.58 71.179 26.68L70.729 28.525C70.499 28.455 70.289 28.405 70.099 28.375C69.919 28.335 69.689 28.315 69.409 28.315C68.949 28.315 68.494 28.45 68.044 28.72C67.604 28.99 67.224 29.46 66.904 30.13V34H64.699V26.56ZM79.8281 34H78.0281L77.8631 32.935H77.8031C77.4731 33.315 77.1081 33.62 76.7081 33.85C76.3081 34.07 75.8381 34.18 75.2981 34.18C74.4481 34.18 73.8331 33.91 73.4531 33.37C73.0731 32.83 72.8831 32.09 72.8831 31.15V26.56H75.0881V30.865C75.0881 31.365 75.1631 31.73 75.3131 31.96C75.4631 32.19 75.7481 32.305 76.1681 32.305C76.4481 32.305 76.6931 32.245 76.9031 32.125C77.1231 32.005 77.3631 31.78 77.6231 31.45V26.56H79.8281V34ZM81.7723 30.28C81.7723 29.67 81.8773 29.125 82.0873 28.645C82.3073 28.165 82.5973 27.76 82.9573 27.43C83.3173 27.09 83.7273 26.83 84.1873 26.65C84.6573 26.47 85.1423 26.38 85.6423 26.38C86.2123 26.38 86.7173 26.47 87.1573 26.65C87.5973 26.83 87.9623 27.08 88.2523 27.4C88.5423 27.72 88.7623 28.1 88.9123 28.54C89.0623 28.97 89.1373 29.44 89.1373 29.95C89.1373 30.15 89.1273 30.34 89.1073 30.52C89.0873 30.7 89.0673 30.835 89.0473 30.925H84.0373C84.1173 31.485 84.3573 31.89 84.7573 32.14C85.1673 32.38 85.6473 32.5 86.1973 32.5C86.5373 32.5 86.8573 32.46 87.1573 32.38C87.4673 32.29 87.7873 32.16 88.1173 31.99L88.8373 33.31C88.4173 33.58 87.9473 33.795 87.4273 33.955C86.9073 34.105 86.3973 34.18 85.8973 34.18C85.3173 34.18 84.7773 34.095 84.2773 33.925C83.7773 33.745 83.3423 33.49 82.9723 33.16C82.6023 32.82 82.3073 32.41 82.0873 31.93C81.8773 31.45 81.7723 30.9 81.7723 30.28ZM87.1423 29.47C87.1423 29.05 87.0273 28.71 86.7973 28.45C86.5673 28.19 86.1973 28.06 85.6873 28.06C85.2873 28.06 84.9323 28.175 84.6223 28.405C84.3123 28.635 84.1073 28.99 84.0073 29.47H87.1423ZM99.8505 31.93C99.8505 31.51 99.9405 31.145 100.121 30.835C100.301 30.515 100.586 30.245 100.976 30.025C101.376 29.805 101.886 29.63 102.506 29.5C103.126 29.36 103.876 29.265 104.756 29.215C104.716 28.875 104.566 28.61 104.306 28.42C104.056 28.23 103.676 28.135 103.166 28.135C102.806 28.135 102.441 28.2 102.071 28.33C101.711 28.45 101.321 28.615 100.901 28.825L100.121 27.385C100.631 27.095 101.176 26.855 101.756 26.665C102.346 26.475 102.961 26.38 103.601 26.38C104.641 26.38 105.461 26.655 106.061 27.205C106.661 27.755 106.961 28.6 106.961 29.74V34H105.161L104.996 33.16H104.936C104.556 33.45 104.141 33.695 103.691 33.895C103.241 34.085 102.776 34.18 102.296 34.18C101.916 34.18 101.576 34.12 101.276 34C100.976 33.89 100.721 33.735 100.511 33.535C100.301 33.325 100.136 33.085 100.016 32.815C99.9055 32.545 99.8505 32.25 99.8505 31.93ZM101.966 31.765C101.966 32.005 102.056 32.185 102.236 32.305C102.426 32.415 102.681 32.47 103.001 32.47C103.331 32.47 103.641 32.405 103.931 32.275C104.221 32.135 104.496 31.965 104.756 31.765V30.535C104.206 30.565 103.751 30.615 103.391 30.685C103.031 30.755 102.746 30.845 102.536 30.955C102.326 31.055 102.176 31.175 102.086 31.315C102.006 31.455 101.966 31.605 101.966 31.765ZM109.01 26.56H110.81L110.975 27.55H111.035C111.355 27.23 111.72 26.955 112.13 26.725C112.55 26.495 113.04 26.38 113.6 26.38C114.44 26.38 115.055 26.65 115.445 27.19C115.835 27.73 116.03 28.47 116.03 29.41V34H113.825V29.695C113.825 29.195 113.745 28.83 113.585 28.6C113.425 28.37 113.14 28.255 112.73 28.255C112.43 28.255 112.165 28.32 111.935 28.45C111.715 28.58 111.475 28.775 111.215 29.035V34H109.01V26.56ZM117.629 30.28C117.629 29.67 117.719 29.125 117.899 28.645C118.079 28.165 118.314 27.76 118.604 27.43C118.904 27.09 119.244 26.83 119.624 26.65C120.004 26.47 120.399 26.38 120.809 26.38C121.239 26.38 121.599 26.455 121.889 26.605C122.179 26.745 122.454 26.935 122.714 27.175L122.639 26.02V23.485H124.844V34H123.044L122.879 33.235H122.834C122.554 33.505 122.234 33.73 121.874 33.91C121.514 34.09 121.144 34.18 120.764 34.18C120.294 34.18 119.864 34.09 119.474 33.91C119.094 33.73 118.764 33.475 118.484 33.145C118.214 32.805 118.004 32.395 117.854 31.915C117.704 31.435 117.629 30.89 117.629 30.28ZM119.894 30.25C119.894 30.99 120.019 31.53 120.269 31.87C120.519 32.21 120.874 32.38 121.334 32.38C121.584 32.38 121.814 32.33 122.024 32.23C122.234 32.12 122.439 31.94 122.639 31.69V28.675C122.439 28.495 122.234 28.37 122.024 28.3C121.824 28.22 121.614 28.18 121.394 28.18C120.984 28.18 120.629 28.35 120.329 28.69C120.039 29.03 119.894 29.55 119.894 30.25ZM138.302 26.08H135.377V24.22H143.447V26.08H140.522V34H138.302V26.08ZM145.646 26.56H147.446L147.626 28.18H147.671C148.041 27.57 148.486 27.12 149.006 26.83C149.526 26.53 150.086 26.38 150.686 26.38C151.016 26.38 151.281 26.405 151.481 26.455C151.691 26.505 151.906 26.58 152.126 26.68L151.676 28.525C151.446 28.455 151.236 28.405 151.046 28.375C150.866 28.335 150.636 28.315 150.356 28.315C149.896 28.315 149.441 28.45 148.991 28.72C148.551 28.99 148.171 29.46 147.851 30.13V34H145.646V26.56ZM160.775 34H158.975L158.81 32.935H158.75C158.42 33.315 158.055 33.62 157.655 33.85C157.255 34.07 156.785 34.18 156.245 34.18C155.395 34.18 154.78 33.91 154.4 33.37C154.02 32.83 153.83 32.09 153.83 31.15V26.56H156.035V30.865C156.035 31.365 156.11 31.73 156.26 31.96C156.41 32.19 156.695 32.305 157.115 32.305C157.395 32.305 157.64 32.245 157.85 32.125C158.07 32.005 158.31 31.78 158.57 31.45V26.56H160.775V34ZM162.72 30.28C162.72 29.67 162.825 29.125 163.035 28.645C163.255 28.165 163.545 27.76 163.905 27.43C164.265 27.09 164.675 26.83 165.135 26.65C165.605 26.47 166.09 26.38 166.59 26.38C167.16 26.38 167.665 26.47 168.105 26.65C168.545 26.83 168.91 27.08 169.2 27.4C169.49 27.72 169.71 28.1 169.86 28.54C170.01 28.97 170.085 29.44 170.085 29.95C170.085 30.15 170.075 30.34 170.055 30.52C170.035 30.7 170.015 30.835 169.995 30.925H164.985C165.065 31.485 165.305 31.89 165.705 32.14C166.115 32.38 166.595 32.5 167.145 32.5C167.485 32.5 167.805 32.46 168.105 32.38C168.415 32.29 168.735 32.16 169.065 31.99L169.785 33.31C169.365 33.58 168.895 33.795 168.375 33.955C167.855 34.105 167.345 34.18 166.845 34.18C166.265 34.18 165.725 34.095 165.225 33.925C164.725 33.745 164.29 33.49 163.92 33.16C163.55 32.82 163.255 32.41 163.035 31.93C162.825 31.45 162.72 30.9 162.72 30.28ZM168.09 29.47C168.09 29.05 167.975 28.71 167.745 28.45C167.515 28.19 167.145 28.06 166.635 28.06C166.235 28.06 165.88 28.175 165.57 28.405C165.26 28.635 165.055 28.99 164.955 29.47H168.09ZM180.798 31.93C180.798 31.51 180.888 31.145 181.068 30.835C181.248 30.515 181.533 30.245 181.923 30.025C182.323 29.805 182.833 29.63 183.453 29.5C184.073 29.36 184.823 29.265 185.703 29.215C185.663 28.875 185.513 28.61 185.253 28.42C185.003 28.23 184.623 28.135 184.113 28.135C183.753 28.135 183.388 28.2 183.018 28.33C182.658 28.45 182.268 28.615 181.848 28.825L181.068 27.385C181.578 27.095 182.123 26.855 182.703 26.665C183.293 26.475 183.908 26.38 184.548 26.38C185.588 26.38 186.408 26.655 187.008 27.205C187.608 27.755 187.908 28.6 187.908 29.74V34H186.108L185.943 33.16H185.883C185.503 33.45 185.088 33.695 184.638 33.895C184.188 34.085 183.723 34.18 183.243 34.18C182.863 34.18 182.523 34.12 182.223 34C181.923 33.89 181.668 33.735 181.458 33.535C181.248 33.325 181.083 33.085 180.963 32.815C180.853 32.545 180.798 32.25 180.798 31.93ZM182.913 31.765C182.913 32.005 183.003 32.185 183.183 32.305C183.373 32.415 183.628 32.47 183.948 32.47C184.278 32.47 184.588 32.405 184.878 32.275C185.168 32.135 185.443 31.965 185.703 31.765V30.535C185.153 30.565 184.698 30.615 184.338 30.685C183.978 30.755 183.693 30.845 183.483 30.955C183.273 31.055 183.123 31.175 183.033 31.315C182.953 31.455 182.913 31.605 182.913 31.765ZM189.957 26.56H191.757L191.922 27.55H191.982C192.302 27.23 192.667 26.955 193.077 26.725C193.497 26.495 193.987 26.38 194.547 26.38C195.387 26.38 196.002 26.65 196.392 27.19C196.782 27.73 196.977 28.47 196.977 29.41V34H194.772V29.695C194.772 29.195 194.692 28.83 194.532 28.6C194.372 28.37 194.087 28.255 193.677 28.255C193.377 28.255 193.112 28.32 192.882 28.45C192.662 28.58 192.422 28.775 192.162 29.035V34H189.957V26.56ZM198.576 30.28C198.576 29.67 198.666 29.125 198.846 28.645C199.026 28.165 199.261 27.76 199.551 27.43C199.851 27.09 200.191 26.83 200.571 26.65C200.951 26.47 201.346 26.38 201.756 26.38C202.186 26.38 202.546 26.455 202.836 26.605C203.126 26.745 203.401 26.935 203.661 27.175L203.586 26.02V23.485H205.791V34H203.991L203.826 33.235H203.781C203.501 33.505 203.181 33.73 202.821 33.91C202.461 34.09 202.091 34.18 201.711 34.18C201.241 34.18 200.811 34.09 200.421 33.91C200.041 33.73 199.711 33.475 199.431 33.145C199.161 32.805 198.951 32.395 198.801 31.915C198.651 31.435 198.576 30.89 198.576 30.28ZM200.841 30.25C200.841 30.99 200.966 31.53 201.216 31.87C201.466 32.21 201.821 32.38 202.281 32.38C202.531 32.38 202.761 32.33 202.971 32.23C203.181 32.12 203.386 31.94 203.586 31.69V28.675C203.386 28.495 203.181 28.37 202.971 28.3C202.771 28.22 202.561 28.18 202.341 28.18C201.931 28.18 201.576 28.35 201.276 28.69C200.986 29.03 200.841 29.55 200.841 30.25ZM217.479 24.22H223.929V26.08H219.684V28.345H223.299V30.205H219.684V34H217.479V24.22ZM225.769 31.93C225.769 31.51 225.859 31.145 226.039 30.835C226.219 30.515 226.504 30.245 226.894 30.025C227.294 29.805 227.804 29.63 228.424 29.5C229.044 29.36 229.794 29.265 230.674 29.215C230.634 28.875 230.484 28.61 230.224 28.42C229.974 28.23 229.594 28.135 229.084 28.135C228.724 28.135 228.359 28.2 227.989 28.33C227.629 28.45 227.239 28.615 226.819 28.825L226.039 27.385C226.549 27.095 227.094 26.855 227.674 26.665C228.264 26.475 228.879 26.38 229.519 26.38C230.559 26.38 231.379 26.655 231.979 27.205C232.579 27.755 232.879 28.6 232.879 29.74V34H231.079L230.914 33.16H230.854C230.474 33.45 230.059 33.695 229.609 33.895C229.159 34.085 228.694 34.18 228.214 34.18C227.834 34.18 227.494 34.12 227.194 34C226.894 33.89 226.639 33.735 226.429 33.535C226.219 33.325 226.054 33.085 225.934 32.815C225.824 32.545 225.769 32.25 225.769 31.93ZM227.884 31.765C227.884 32.005 227.974 32.185 228.154 32.305C228.344 32.415 228.599 32.47 228.919 32.47C229.249 32.47 229.559 32.405 229.849 32.275C230.139 32.135 230.414 31.965 230.674 31.765V30.535C230.124 30.565 229.669 30.615 229.309 30.685C228.949 30.755 228.664 30.845 228.454 30.955C228.244 31.055 228.094 31.175 228.004 31.315C227.924 31.455 227.884 31.605 227.884 31.765ZM234.778 23.485H239.143V31.18C239.143 31.41 239.173 31.605 239.233 31.765C239.303 31.915 239.393 32.04 239.503 32.14C239.623 32.23 239.753 32.295 239.893 32.335C240.043 32.375 240.193 32.395 240.343 32.395C240.513 32.395 240.693 32.38 240.883 32.35C241.073 32.31 241.283 32.245 241.513 32.155L242.008 33.775C241.808 33.835 241.623 33.89 241.453 33.94C241.283 33.99 241.113 34.03 240.943 34.06C240.773 34.1 240.593 34.13 240.403 34.15C240.213 34.17 240.003 34.18 239.773 34.18C238.833 34.18 238.123 33.905 237.643 33.355C237.173 32.795 236.938 32.04 236.938 31.09V25.225H234.778V23.485ZM244.627 31.66C245.057 31.93 245.487 32.145 245.917 32.305C246.357 32.465 246.827 32.545 247.327 32.545C247.837 32.545 248.202 32.49 248.422 32.38C248.642 32.27 248.752 32.115 248.752 31.915C248.752 31.685 248.567 31.5 248.197 31.36C247.837 31.21 247.357 31.05 246.757 30.88C246.427 30.79 246.102 30.685 245.782 30.565C245.472 30.435 245.192 30.285 244.942 30.115C244.692 29.935 244.487 29.73 244.327 29.5C244.177 29.27 244.102 29.005 244.102 28.705C244.102 28.365 244.182 28.05 244.342 27.76C244.502 27.47 244.727 27.225 245.017 27.025C245.317 26.825 245.677 26.67 246.097 26.56C246.527 26.44 247.007 26.38 247.537 26.38C248.197 26.38 248.797 26.49 249.337 26.71C249.887 26.92 250.357 27.15 250.747 27.4L249.757 28.72C249.417 28.52 249.067 28.355 248.707 28.225C248.347 28.085 247.972 28.015 247.582 28.015C247.112 28.015 246.777 28.065 246.577 28.165C246.387 28.265 246.292 28.41 246.292 28.6C246.292 28.71 246.342 28.81 246.442 28.9C246.542 28.99 246.677 29.07 246.847 29.14C247.017 29.21 247.217 29.28 247.447 29.35C247.687 29.41 247.937 29.475 248.197 29.545C248.567 29.645 248.917 29.76 249.247 29.89C249.577 30.01 249.867 30.155 250.117 30.325C250.367 30.495 250.567 30.7 250.717 30.94C250.867 31.18 250.942 31.46 250.942 31.78C250.942 32.12 250.862 32.435 250.702 32.725C250.542 33.015 250.307 33.27 249.997 33.49C249.697 33.7 249.317 33.87 248.857 34C248.407 34.12 247.882 34.18 247.282 34.18C246.612 34.18 245.957 34.07 245.317 33.85C244.677 33.63 244.117 33.36 243.637 33.04L244.627 31.66ZM252.661 30.28C252.661 29.67 252.766 29.125 252.976 28.645C253.196 28.165 253.486 27.76 253.846 27.43C254.206 27.09 254.616 26.83 255.076 26.65C255.546 26.47 256.031 26.38 256.531 26.38C257.101 26.38 257.606 26.47 258.046 26.65C258.486 26.83 258.851 27.08 259.141 27.4C259.431 27.72 259.651 28.1 259.801 28.54C259.951 28.97 260.026 29.44 260.026 29.95C260.026 30.15 260.016 30.34 259.996 30.52C259.976 30.7 259.956 30.835 259.936 30.925H254.926C255.006 31.485 255.246 31.89 255.646 32.14C256.056 32.38 256.536 32.5 257.086 32.5C257.426 32.5 257.746 32.46 258.046 32.38C258.356 32.29 258.676 32.16 259.006 31.99L259.726 33.31C259.306 33.58 258.836 33.795 258.316 33.955C257.796 34.105 257.286 34.18 256.786 34.18C256.206 34.18 255.666 34.095 255.166 33.925C254.666 33.745 254.231 33.49 253.861 33.16C253.491 32.82 253.196 32.41 252.976 31.93C252.766 31.45 252.661 30.9 252.661 30.28ZM258.031 29.47C258.031 29.05 257.916 28.71 257.686 28.45C257.456 28.19 257.086 28.06 256.576 28.06C256.176 28.06 255.821 28.175 255.511 28.405C255.201 28.635 254.996 28.99 254.896 29.47H258.031ZM57.3548 44.08H54.4298V42.22H62.4998V44.08H59.5748V52H57.3548V44.08ZM64.699 44.56H66.499L66.679 46.18H66.724C67.094 45.57 67.539 45.12 68.059 44.83C68.579 44.53 69.139 44.38 69.739 44.38C70.069 44.38 70.334 44.405 70.534 44.455C70.744 44.505 70.959 44.58 71.179 44.68L70.729 46.525C70.499 46.455 70.289 46.405 70.099 46.375C69.919 46.335 69.689 46.315 69.409 46.315C68.949 46.315 68.494 46.45 68.044 46.72C67.604 46.99 67.224 47.46 66.904 48.13V52H64.699V44.56ZM79.8281 52H78.0281L77.8631 50.935H77.8031C77.4731 51.315 77.1081 51.62 76.7081 51.85C76.3081 52.07 75.8381 52.18 75.2981 52.18C74.4481 52.18 73.8331 51.91 73.4531 51.37C73.0731 50.83 72.8831 50.09 72.8831 49.15V44.56H75.0881V48.865C75.0881 49.365 75.1631 49.73 75.3131 49.96C75.4631 50.19 75.7481 50.305 76.1681 50.305C76.4481 50.305 76.6931 50.245 76.9031 50.125C77.1231 50.005 77.3631 49.78 77.6231 49.45V44.56H79.8281V52ZM81.7723 48.28C81.7723 47.67 81.8773 47.125 82.0873 46.645C82.3073 46.165 82.5973 45.76 82.9573 45.43C83.3173 45.09 83.7273 44.83 84.1873 44.65C84.6573 44.47 85.1423 44.38 85.6423 44.38C86.2123 44.38 86.7173 44.47 87.1573 44.65C87.5973 44.83 87.9623 45.08 88.2523 45.4C88.5423 45.72 88.7623 46.1 88.9123 46.54C89.0623 46.97 89.1373 47.44 89.1373 47.95C89.1373 48.15 89.1273 48.34 89.1073 48.52C89.0873 48.7 89.0673 48.835 89.0473 48.925H84.0373C84.1173 49.485 84.3573 49.89 84.7573 50.14C85.1673 50.38 85.6473 50.5 86.1973 50.5C86.5373 50.5 86.8573 50.46 87.1573 50.38C87.4673 50.29 87.7873 50.16 88.1173 49.99L88.8373 51.31C88.4173 51.58 87.9473 51.795 87.4273 51.955C86.9073 52.105 86.3973 52.18 85.8973 52.18C85.3173 52.18 84.7773 52.095 84.2773 51.925C83.7773 51.745 83.3423 51.49 82.9723 51.16C82.6023 50.82 82.3073 50.41 82.0873 49.93C81.8773 49.45 81.7723 48.9 81.7723 48.28ZM87.1423 47.47C87.1423 47.05 87.0273 46.71 86.7973 46.45C86.5673 46.19 86.1973 46.06 85.6873 46.06C85.2873 46.06 84.9323 46.175 84.6223 46.405C84.3123 46.635 84.1073 46.99 84.0073 47.47H87.1423ZM99.8505 49.93C99.8505 49.51 99.9405 49.145 100.121 48.835C100.301 48.515 100.586 48.245 100.976 48.025C101.376 47.805 101.886 47.63 102.506 47.5C103.126 47.36 103.876 47.265 104.756 47.215C104.716 46.875 104.566 46.61 104.306 46.42C104.056 46.23 103.676 46.135 103.166 46.135C102.806 46.135 102.441 46.2 102.071 46.33C101.711 46.45 101.321 46.615 100.901 46.825L100.121 45.385C100.631 45.095 101.176 44.855 101.756 44.665C102.346 44.475 102.961 44.38 103.601 44.38C104.641 44.38 105.461 44.655 106.061 45.205C106.661 45.755 106.961 46.6 106.961 47.74V52H105.161L104.996 51.16H104.936C104.556 51.45 104.141 51.695 103.691 51.895C103.241 52.085 102.776 52.18 102.296 52.18C101.916 52.18 101.576 52.12 101.276 52C100.976 51.89 100.721 51.735 100.511 51.535C100.301 51.325 100.136 51.085 100.016 50.815C99.9055 50.545 99.8505 50.25 99.8505 49.93ZM101.966 49.765C101.966 50.005 102.056 50.185 102.236 50.305C102.426 50.415 102.681 50.47 103.001 50.47C103.331 50.47 103.641 50.405 103.931 50.275C104.221 50.135 104.496 49.965 104.756 49.765V48.535C104.206 48.565 103.751 48.615 103.391 48.685C103.031 48.755 102.746 48.845 102.536 48.955C102.326 49.055 102.176 49.175 102.086 49.315C102.006 49.455 101.966 49.605 101.966 49.765ZM109.01 44.56H110.81L110.975 45.55H111.035C111.355 45.23 111.72 44.955 112.13 44.725C112.55 44.495 113.04 44.38 113.6 44.38C114.44 44.38 115.055 44.65 115.445 45.19C115.835 45.73 116.03 46.47 116.03 47.41V52H113.825V47.695C113.825 47.195 113.745 46.83 113.585 46.6C113.425 46.37 113.14 46.255 112.73 46.255C112.43 46.255 112.165 46.32 111.935 46.45C111.715 46.58 111.475 46.775 111.215 47.035V52H109.01V44.56ZM117.629 48.28C117.629 47.67 117.719 47.125 117.899 46.645C118.079 46.165 118.314 45.76 118.604 45.43C118.904 45.09 119.244 44.83 119.624 44.65C120.004 44.47 120.399 44.38 120.809 44.38C121.239 44.38 121.599 44.455 121.889 44.605C122.179 44.745 122.454 44.935 122.714 45.175L122.639 44.02V41.485H124.844V52H123.044L122.879 51.235H122.834C122.554 51.505 122.234 51.73 121.874 51.91C121.514 52.09 121.144 52.18 120.764 52.18C120.294 52.18 119.864 52.09 119.474 51.91C119.094 51.73 118.764 51.475 118.484 51.145C118.214 50.805 118.004 50.395 117.854 49.915C117.704 49.435 117.629 48.89 117.629 48.28ZM119.894 48.25C119.894 48.99 120.019 49.53 120.269 49.87C120.519 50.21 120.874 50.38 121.334 50.38C121.584 50.38 121.814 50.33 122.024 50.23C122.234 50.12 122.439 49.94 122.639 49.69V46.675C122.439 46.495 122.234 46.37 122.024 46.3C121.824 46.22 121.614 46.18 121.394 46.18C120.984 46.18 120.629 46.35 120.329 46.69C120.039 47.03 119.894 47.55 119.894 48.25ZM138.302 44.08H135.377V42.22H143.447V44.08H140.522V52H138.302V44.08ZM145.646 44.56H147.446L147.626 46.18H147.671C148.041 45.57 148.486 45.12 149.006 44.83C149.526 44.53 150.086 44.38 150.686 44.38C151.016 44.38 151.281 44.405 151.481 44.455C151.691 44.505 151.906 44.58 152.126 44.68L151.676 46.525C151.446 46.455 151.236 46.405 151.046 46.375C150.866 46.335 150.636 46.315 150.356 46.315C149.896 46.315 149.441 46.45 148.991 46.72C148.551 46.99 148.171 47.46 147.851 48.13V52H145.646V44.56ZM160.775 52H158.975L158.81 50.935H158.75C158.42 51.315 158.055 51.62 157.655 51.85C157.255 52.07 156.785 52.18 156.245 52.18C155.395 52.18 154.78 51.91 154.4 51.37C154.02 50.83 153.83 50.09 153.83 49.15V44.56H156.035V48.865C156.035 49.365 156.11 49.73 156.26 49.96C156.41 50.19 156.695 50.305 157.115 50.305C157.395 50.305 157.64 50.245 157.85 50.125C158.07 50.005 158.31 49.78 158.57 49.45V44.56H160.775V52ZM162.72 48.28C162.72 47.67 162.825 47.125 163.035 46.645C163.255 46.165 163.545 45.76 163.905 45.43C164.265 45.09 164.675 44.83 165.135 44.65C165.605 44.47 166.09 44.38 166.59 44.38C167.16 44.38 167.665 44.47 168.105 44.65C168.545 44.83 168.91 45.08 169.2 45.4C169.49 45.72 169.71 46.1 169.86 46.54C170.01 46.97 170.085 47.44 170.085 47.95C170.085 48.15 170.075 48.34 170.055 48.52C170.035 48.7 170.015 48.835 169.995 48.925H164.985C165.065 49.485 165.305 49.89 165.705 50.14C166.115 50.38 166.595 50.5 167.145 50.5C167.485 50.5 167.805 50.46 168.105 50.38C168.415 50.29 168.735 50.16 169.065 49.99L169.785 51.31C169.365 51.58 168.895 51.795 168.375 51.955C167.855 52.105 167.345 52.18 166.845 52.18C166.265 52.18 165.725 52.095 165.225 51.925C164.725 51.745 164.29 51.49 163.92 51.16C163.55 50.82 163.255 50.41 163.035 49.93C162.825 49.45 162.72 48.9 162.72 48.28ZM168.09 47.47C168.09 47.05 167.975 46.71 167.745 46.45C167.515 46.19 167.145 46.06 166.635 46.06C166.235 46.06 165.88 46.175 165.57 46.405C165.26 46.635 165.055 46.99 164.955 47.47H168.09ZM180.798 49.93C180.798 49.51 180.888 49.145 181.068 48.835C181.248 48.515 181.533 48.245 181.923 48.025C182.323 47.805 182.833 47.63 183.453 47.5C184.073 47.36 184.823 47.265 185.703 47.215C185.663 46.875 185.513 46.61 185.253 46.42C185.003 46.23 184.623 46.135 184.113 46.135C183.753 46.135 183.388 46.2 183.018 46.33C182.658 46.45 182.268 46.615 181.848 46.825L181.068 45.385C181.578 45.095 182.123 44.855 182.703 44.665C183.293 44.475 183.908 44.38 184.548 44.38C185.588 44.38 186.408 44.655 187.008 45.205C187.608 45.755 187.908 46.6 187.908 47.74V52H186.108L185.943 51.16H185.883C185.503 51.45 185.088 51.695 184.638 51.895C184.188 52.085 183.723 52.18 183.243 52.18C182.863 52.18 182.523 52.12 182.223 52C181.923 51.89 181.668 51.735 181.458 51.535C181.248 51.325 181.083 51.085 180.963 50.815C180.853 50.545 180.798 50.25 180.798 49.93ZM182.913 49.765C182.913 50.005 183.003 50.185 183.183 50.305C183.373 50.415 183.628 50.47 183.948 50.47C184.278 50.47 184.588 50.405 184.878 50.275C185.168 50.135 185.443 49.965 185.703 49.765V48.535C185.153 48.565 184.698 48.615 184.338 48.685C183.978 48.755 183.693 48.845 183.483 48.955C183.273 49.055 183.123 49.175 183.033 49.315C182.953 49.455 182.913 49.605 182.913 49.765ZM189.957 44.56H191.757L191.922 45.55H191.982C192.302 45.23 192.667 44.955 193.077 44.725C193.497 44.495 193.987 44.38 194.547 44.38C195.387 44.38 196.002 44.65 196.392 45.19C196.782 45.73 196.977 46.47 196.977 47.41V52H194.772V47.695C194.772 47.195 194.692 46.83 194.532 46.6C194.372 46.37 194.087 46.255 193.677 46.255C193.377 46.255 193.112 46.32 192.882 46.45C192.662 46.58 192.422 46.775 192.162 47.035V52H189.957V44.56ZM198.576 48.28C198.576 47.67 198.666 47.125 198.846 46.645C199.026 46.165 199.261 45.76 199.551 45.43C199.851 45.09 200.191 44.83 200.571 44.65C200.951 44.47 201.346 44.38 201.756 44.38C202.186 44.38 202.546 44.455 202.836 44.605C203.126 44.745 203.401 44.935 203.661 45.175L203.586 44.02V41.485H205.791V52H203.991L203.826 51.235H203.781C203.501 51.505 203.181 51.73 202.821 51.91C202.461 52.09 202.091 52.18 201.711 52.18C201.241 52.18 200.811 52.09 200.421 51.91C200.041 51.73 199.711 51.475 199.431 51.145C199.161 50.805 198.951 50.395 198.801 49.915C198.651 49.435 198.576 48.89 198.576 48.28ZM200.841 48.25C200.841 48.99 200.966 49.53 201.216 49.87C201.466 50.21 201.821 50.38 202.281 50.38C202.531 50.38 202.761 50.33 202.971 50.23C203.181 50.12 203.386 49.94 203.586 49.69V46.675C203.386 46.495 203.181 46.37 202.971 46.3C202.771 46.22 202.561 46.18 202.341 46.18C201.931 46.18 201.576 46.35 201.276 46.69C200.986 47.03 200.841 47.55 200.841 48.25ZM219.249 44.08H216.324V42.22H224.394V44.08H221.469V52H219.249V44.08ZM226.594 44.56H228.394L228.574 46.18H228.619C228.989 45.57 229.434 45.12 229.954 44.83C230.474 44.53 231.034 44.38 231.634 44.38C231.964 44.38 232.229 44.405 232.429 44.455C232.639 44.505 232.854 44.58 233.074 44.68L232.624 46.525C232.394 46.455 232.184 46.405 231.994 46.375C231.814 46.335 231.584 46.315 231.304 46.315C230.844 46.315 230.389 46.45 229.939 46.72C229.499 46.99 229.119 47.46 228.799 48.13V52H226.594V44.56ZM241.723 52H239.923L239.758 50.935H239.698C239.368 51.315 239.003 51.62 238.603 51.85C238.203 52.07 237.733 52.18 237.193 52.18C236.343 52.18 235.728 51.91 235.348 51.37C234.968 50.83 234.778 50.09 234.778 49.15V44.56H236.983V48.865C236.983 49.365 237.058 49.73 237.208 49.96C237.358 50.19 237.643 50.305 238.063 50.305C238.343 50.305 238.588 50.245 238.798 50.125C239.018 50.005 239.258 49.78 239.518 49.45V44.56H241.723V52ZM243.667 48.28C243.667 47.67 243.772 47.125 243.982 46.645C244.202 46.165 244.492 45.76 244.852 45.43C245.212 45.09 245.622 44.83 246.082 44.65C246.552 44.47 247.037 44.38 247.537 44.38C248.107 44.38 248.612 44.47 249.052 44.65C249.492 44.83 249.857 45.08 250.147 45.4C250.437 45.72 250.657 46.1 250.807 46.54C250.957 46.97 251.032 47.44 251.032 47.95C251.032 48.15 251.022 48.34 251.002 48.52C250.982 48.7 250.962 48.835 250.942 48.925H245.932C246.012 49.485 246.252 49.89 246.652 50.14C247.062 50.38 247.542 50.5 248.092 50.5C248.432 50.5 248.752 50.46 249.052 50.38C249.362 50.29 249.682 50.16 250.012 49.99L250.732 51.31C250.312 51.58 249.842 51.795 249.322 51.955C248.802 52.105 248.292 52.18 247.792 52.18C247.212 52.18 246.672 52.095 246.172 51.925C245.672 51.745 245.237 51.49 244.867 51.16C244.497 50.82 244.202 50.41 243.982 49.93C243.772 49.45 243.667 48.9 243.667 48.28ZM249.037 47.47C249.037 47.05 248.922 46.71 248.692 46.45C248.462 46.19 248.092 46.06 247.582 46.06C247.182 46.06 246.827 46.175 246.517 46.405C246.207 46.635 246.002 46.99 245.902 47.47H249.037ZM261.745 49.93C261.745 49.51 261.835 49.145 262.015 48.835C262.195 48.515 262.48 48.245 262.87 48.025C263.27 47.805 263.78 47.63 264.4 47.5C265.02 47.36 265.77 47.265 266.65 47.215C266.61 46.875 266.46 46.61 266.2 46.42C265.95 46.23 265.57 46.135 265.06 46.135C264.7 46.135 264.335 46.2 263.965 46.33C263.605 46.45 263.215 46.615 262.795 46.825L262.015 45.385C262.525 45.095 263.07 44.855 263.65 44.665C264.24 44.475 264.855 44.38 265.495 44.38C266.535 44.38 267.355 44.655 267.955 45.205C268.555 45.755 268.855 46.6 268.855 47.74V52H267.055L266.89 51.16H266.83C266.45 51.45 266.035 51.695 265.585 51.895C265.135 52.085 264.67 52.18 264.19 52.18C263.81 52.18 263.47 52.12 263.17 52C262.87 51.89 262.615 51.735 262.405 51.535C262.195 51.325 262.03 51.085 261.91 50.815C261.8 50.545 261.745 50.25 261.745 49.93ZM263.86 49.765C263.86 50.005 263.95 50.185 264.13 50.305C264.32 50.415 264.575 50.47 264.895 50.47C265.225 50.47 265.535 50.405 265.825 50.275C266.115 50.135 266.39 49.965 266.65 49.765V48.535C266.1 48.565 265.645 48.615 265.285 48.685C264.925 48.755 264.64 48.845 264.43 48.955C264.22 49.055 264.07 49.175 263.98 49.315C263.9 49.455 263.86 49.605 263.86 49.765ZM270.904 44.56H272.704L272.869 45.55H272.929C273.249 45.23 273.614 44.955 274.024 44.725C274.444 44.495 274.934 44.38 275.494 44.38C276.334 44.38 276.949 44.65 277.339 45.19C277.729 45.73 277.924 46.47 277.924 47.41V52H275.719V47.695C275.719 47.195 275.639 46.83 275.479 46.6C275.319 46.37 275.034 46.255 274.624 46.255C274.324 46.255 274.059 46.32 273.829 46.45C273.609 46.58 273.369 46.775 273.109 47.035V52H270.904V44.56ZM279.523 48.28C279.523 47.67 279.613 47.125 279.793 46.645C279.973 46.165 280.208 45.76 280.498 45.43C280.798 45.09 281.138 44.83 281.518 44.65C281.898 44.47 282.293 44.38 282.703 44.38C283.133 44.38 283.493 44.455 283.783 44.605C284.073 44.745 284.348 44.935 284.608 45.175L284.533 44.02V41.485H286.738V52H284.938L284.773 51.235H284.728C284.448 51.505 284.128 51.73 283.768 51.91C283.408 52.09 283.038 52.18 282.658 52.18C282.188 52.18 281.758 52.09 281.368 51.91C280.988 51.73 280.658 51.475 280.378 51.145C280.108 50.805 279.898 50.395 279.748 49.915C279.598 49.435 279.523 48.89 279.523 48.28ZM281.788 48.25C281.788 48.99 281.913 49.53 282.163 49.87C282.413 50.21 282.768 50.38 283.228 50.38C283.478 50.38 283.708 50.33 283.918 50.23C284.128 50.12 284.333 49.94 284.533 49.69V46.675C284.333 46.495 284.128 46.37 283.918 46.3C283.718 46.22 283.508 46.18 283.288 46.18C282.878 46.18 282.523 46.35 282.223 46.69C281.933 47.03 281.788 47.55 281.788 48.25ZM300.197 44.08H297.272V42.22H305.342V44.08H302.417V52H300.197V44.08ZM307.541 44.56H309.341L309.521 46.18H309.566C309.936 45.57 310.381 45.12 310.901 44.83C311.421 44.53 311.981 44.38 312.581 44.38C312.911 44.38 313.176 44.405 313.376 44.455C313.586 44.505 313.801 44.58 314.021 44.68L313.571 46.525C313.341 46.455 313.131 46.405 312.941 46.375C312.761 46.335 312.531 46.315 312.251 46.315C311.791 46.315 311.336 46.45 310.886 46.72C310.446 46.99 310.066 47.46 309.746 48.13V52H307.541V44.56ZM322.67 52H320.87L320.705 50.935H320.645C320.315 51.315 319.95 51.62 319.55 51.85C319.15 52.07 318.68 52.18 318.14 52.18C317.29 52.18 316.675 51.91 316.295 51.37C315.915 50.83 315.725 50.09 315.725 49.15V44.56H317.93V48.865C317.93 49.365 318.005 49.73 318.155 49.96C318.305 50.19 318.59 50.305 319.01 50.305C319.29 50.305 319.535 50.245 319.745 50.125C319.965 50.005 320.205 49.78 320.465 49.45V44.56H322.67V52ZM324.614 48.28C324.614 47.67 324.719 47.125 324.929 46.645C325.149 46.165 325.439 45.76 325.799 45.43C326.159 45.09 326.569 44.83 327.029 44.65C327.499 44.47 327.984 44.38 328.484 44.38C329.054 44.38 329.559 44.47 329.999 44.65C330.439 44.83 330.804 45.08 331.094 45.4C331.384 45.72 331.604 46.1 331.754 46.54C331.904 46.97 331.979 47.44 331.979 47.95C331.979 48.15 331.969 48.34 331.949 48.52C331.929 48.7 331.909 48.835 331.889 48.925H326.879C326.959 49.485 327.199 49.89 327.599 50.14C328.009 50.38 328.489 50.5 329.039 50.5C329.379 50.5 329.699 50.46 329.999 50.38C330.309 50.29 330.629 50.16 330.959 49.99L331.679 51.31C331.259 51.58 330.789 51.795 330.269 51.955C329.749 52.105 329.239 52.18 328.739 52.18C328.159 52.18 327.619 52.095 327.119 51.925C326.619 51.745 326.184 51.49 325.814 51.16C325.444 50.82 325.149 50.41 324.929 49.93C324.719 49.45 324.614 48.9 324.614 48.28ZM329.984 47.47C329.984 47.05 329.869 46.71 329.639 46.45C329.409 46.19 329.039 46.06 328.529 46.06C328.129 46.06 327.774 46.175 327.464 46.405C327.154 46.635 326.949 46.99 326.849 47.47H329.984ZM342.692 49.93C342.692 49.51 342.782 49.145 342.962 48.835C343.142 48.515 343.427 48.245 343.817 48.025C344.217 47.805 344.727 47.63 345.347 47.5C345.967 47.36 346.717 47.265 347.597 47.215C347.557 46.875 347.407 46.61 347.147 46.42C346.897 46.23 346.517 46.135 346.007 46.135C345.647 46.135 345.282 46.2 344.912 46.33C344.552 46.45 344.162 46.615 343.742 46.825L342.962 45.385C343.472 45.095 344.017 44.855 344.597 44.665C345.187 44.475 345.802 44.38 346.442 44.38C347.482 44.38 348.302 44.655 348.902 45.205C349.502 45.755 349.802 46.6 349.802 47.74V52H348.002L347.837 51.16H347.777C347.397 51.45 346.982 51.695 346.532 51.895C346.082 52.085 345.617 52.18 345.137 52.18C344.757 52.18 344.417 52.12 344.117 52C343.817 51.89 343.562 51.735 343.352 51.535C343.142 51.325 342.977 51.085 342.857 50.815C342.747 50.545 342.692 50.25 342.692 49.93ZM344.807 49.765C344.807 50.005 344.897 50.185 345.077 50.305C345.267 50.415 345.522 50.47 345.842 50.47C346.172 50.47 346.482 50.405 346.772 50.275C347.062 50.135 347.337 49.965 347.597 49.765V48.535C347.047 48.565 346.592 48.615 346.232 48.685C345.872 48.755 345.587 48.845 345.377 48.955C345.167 49.055 345.017 49.175 344.927 49.315C344.847 49.455 344.807 49.605 344.807 49.765ZM351.851 44.56H353.651L353.816 45.55H353.876C354.196 45.23 354.561 44.955 354.971 44.725C355.391 44.495 355.881 44.38 356.441 44.38C357.281 44.38 357.896 44.65 358.286 45.19C358.676 45.73 358.871 46.47 358.871 47.41V52H356.666V47.695C356.666 47.195 356.586 46.83 356.426 46.6C356.266 46.37 355.981 46.255 355.571 46.255C355.271 46.255 355.006 46.32 354.776 46.45C354.556 46.58 354.316 46.775 354.056 47.035V52H351.851V44.56ZM360.471 48.28C360.471 47.67 360.561 47.125 360.741 46.645C360.921 46.165 361.156 45.76 361.446 45.43C361.746 45.09 362.086 44.83 362.466 44.65C362.846 44.47 363.241 44.38 363.651 44.38C364.081 44.38 364.441 44.455 364.731 44.605C365.021 44.745 365.296 44.935 365.556 45.175L365.481 44.02V41.485H367.686V52H365.886L365.721 51.235H365.676C365.396 51.505 365.076 51.73 364.716 51.91C364.356 52.09 363.986 52.18 363.606 52.18C363.136 52.18 362.706 52.09 362.316 51.91C361.936 51.73 361.606 51.475 361.326 51.145C361.056 50.805 360.846 50.395 360.696 49.915C360.546 49.435 360.471 48.89 360.471 48.28ZM362.736 48.25C362.736 48.99 362.861 49.53 363.111 49.87C363.361 50.21 363.716 50.38 364.176 50.38C364.426 50.38 364.656 50.33 364.866 50.23C365.076 50.12 365.281 49.94 365.481 49.69V46.675C365.281 46.495 365.076 46.37 364.866 46.3C364.666 46.22 364.456 46.18 364.236 46.18C363.826 46.18 363.471 46.35 363.171 46.69C362.881 47.03 362.736 47.55 362.736 48.25ZM379.374 42.22H385.824V44.08H381.579V46.345H385.194V48.205H381.579V52H379.374V42.22ZM387.663 49.93C387.663 49.51 387.753 49.145 387.933 48.835C388.113 48.515 388.398 48.245 388.788 48.025C389.188 47.805 389.698 47.63 390.318 47.5C390.938 47.36 391.688 47.265 392.568 47.215C392.528 46.875 392.378 46.61 392.118 46.42C391.868 46.23 391.488 46.135 390.978 46.135C390.618 46.135 390.253 46.2 389.883 46.33C389.523 46.45 389.133 46.615 388.713 46.825L387.933 45.385C388.443 45.095 388.988 44.855 389.568 44.665C390.158 44.475 390.773 44.38 391.413 44.38C392.453 44.38 393.273 44.655 393.873 45.205C394.473 45.755 394.773 46.6 394.773 47.74V52H392.973L392.808 51.16H392.748C392.368 51.45 391.953 51.695 391.503 51.895C391.053 52.085 390.588 52.18 390.108 52.18C389.728 52.18 389.388 52.12 389.088 52C388.788 51.89 388.533 51.735 388.323 51.535C388.113 51.325 387.948 51.085 387.828 50.815C387.718 50.545 387.663 50.25 387.663 49.93ZM389.778 49.765C389.778 50.005 389.868 50.185 390.048 50.305C390.238 50.415 390.493 50.47 390.813 50.47C391.143 50.47 391.453 50.405 391.743 50.275C392.033 50.135 392.308 49.965 392.568 49.765V48.535C392.018 48.565 391.563 48.615 391.203 48.685C390.843 48.755 390.558 48.845 390.348 48.955C390.138 49.055 389.988 49.175 389.898 49.315C389.818 49.455 389.778 49.605 389.778 49.765ZM396.672 41.485H401.037V49.18C401.037 49.41 401.067 49.605 401.127 49.765C401.197 49.915 401.287 50.04 401.397 50.14C401.517 50.23 401.647 50.295 401.787 50.335C401.937 50.375 402.087 50.395 402.237 50.395C402.407 50.395 402.587 50.38 402.777 50.35C402.967 50.31 403.177 50.245 403.407 50.155L403.902 51.775C403.702 51.835 403.517 51.89 403.347 51.94C403.177 51.99 403.007 52.03 402.837 52.06C402.667 52.1 402.487 52.13 402.297 52.15C402.107 52.17 401.897 52.18 401.667 52.18C400.727 52.18 400.017 51.905 399.537 51.355C399.067 50.795 398.832 50.04 398.832 49.09V43.225H396.672V41.485ZM406.521 49.66C406.951 49.93 407.381 50.145 407.811 50.305C408.251 50.465 408.721 50.545 409.221 50.545C409.731 50.545 410.096 50.49 410.316 50.38C410.536 50.27 410.646 50.115 410.646 49.915C410.646 49.685 410.461 49.5 410.091 49.36C409.731 49.21 409.251 49.05 408.651 48.88C408.321 48.79 407.996 48.685 407.676 48.565C407.366 48.435 407.086 48.285 406.836 48.115C406.586 47.935 406.381 47.73 406.221 47.5C406.071 47.27 405.996 47.005 405.996 46.705C405.996 46.365 406.076 46.05 406.236 45.76C406.396 45.47 406.621 45.225 406.911 45.025C407.211 44.825 407.571 44.67 407.991 44.56C408.421 44.44 408.901 44.38 409.431 44.38C410.091 44.38 410.691 44.49 411.231 44.71C411.781 44.92 412.251 45.15 412.641 45.4L411.651 46.72C411.311 46.52 410.961 46.355 410.601 46.225C410.241 46.085 409.866 46.015 409.476 46.015C409.006 46.015 408.671 46.065 408.471 46.165C408.281 46.265 408.186 46.41 408.186 46.6C408.186 46.71 408.236 46.81 408.336 46.9C408.436 46.99 408.571 47.07 408.741 47.14C408.911 47.21 409.111 47.28 409.341 47.35C409.581 47.41 409.831 47.475 410.091 47.545C410.461 47.645 410.811 47.76 411.141 47.89C411.471 48.01 411.761 48.155 412.011 48.325C412.261 48.495 412.461 48.7 412.611 48.94C412.761 49.18 412.836 49.46 412.836 49.78C412.836 50.12 412.756 50.435 412.596 50.725C412.436 51.015 412.201 51.27 411.891 51.49C411.591 51.7 411.211 51.87 410.751 52C410.301 52.12 409.776 52.18 409.176 52.18C408.506 52.18 407.851 52.07 407.211 51.85C406.571 51.63 406.011 51.36 405.531 51.04L406.521 49.66ZM414.555 48.28C414.555 47.67 414.66 47.125 414.87 46.645C415.09 46.165 415.38 45.76 415.74 45.43C416.1 45.09 416.51 44.83 416.97 44.65C417.44 44.47 417.925 44.38 418.425 44.38C418.995 44.38 419.5 44.47 419.94 44.65C420.38 44.83 420.745 45.08 421.035 45.4C421.325 45.72 421.545 46.1 421.695 46.54C421.845 46.97 421.92 47.44 421.92 47.95C421.92 48.15 421.91 48.34 421.89 48.52C421.87 48.7 421.85 48.835 421.83 48.925H416.82C416.9 49.485 417.14 49.89 417.54 50.14C417.95 50.38 418.43 50.5 418.98 50.5C419.32 50.5 419.64 50.46 419.94 50.38C420.25 50.29 420.57 50.16 420.9 49.99L421.62 51.31C421.2 51.58 420.73 51.795 420.21 51.955C419.69 52.105 419.18 52.18 418.68 52.18C418.1 52.18 417.56 52.095 417.06 51.925C416.56 51.745 416.125 51.49 415.755 51.16C415.385 50.82 415.09 50.41 414.87 49.93C414.66 49.45 414.555 48.9 414.555 48.28ZM419.925 47.47C419.925 47.05 419.81 46.71 419.58 46.45C419.35 46.19 418.98 46.06 418.47 46.06C418.07 46.06 417.715 46.175 417.405 46.405C417.095 46.635 416.89 46.99 416.79 47.47H419.925ZM57.3548 63.08H54.4298V61.22H62.4998V63.08H59.5748V71H57.3548V63.08ZM64.699 63.56H66.499L66.679 65.18H66.724C67.094 64.57 67.539 64.12 68.059 63.83C68.579 63.53 69.139 63.38 69.739 63.38C70.069 63.38 70.334 63.405 70.534 63.455C70.744 63.505 70.959 63.58 71.179 63.68L70.729 65.525C70.499 65.455 70.289 65.405 70.099 65.375C69.919 65.335 69.689 65.315 69.409 65.315C68.949 65.315 68.494 65.45 68.044 65.72C67.604 65.99 67.224 66.46 66.904 67.13V71H64.699V63.56ZM79.8281 71H78.0281L77.8631 69.935H77.8031C77.4731 70.315 77.1081 70.62 76.7081 70.85C76.3081 71.07 75.8381 71.18 75.2981 71.18C74.4481 71.18 73.8331 70.91 73.4531 70.37C73.0731 69.83 72.8831 69.09 72.8831 68.15V63.56H75.0881V67.865C75.0881 68.365 75.1631 68.73 75.3131 68.96C75.4631 69.19 75.7481 69.305 76.1681 69.305C76.4481 69.305 76.6931 69.245 76.9031 69.125C77.1231 69.005 77.3631 68.78 77.6231 68.45V63.56H79.8281V71ZM81.7723 67.28C81.7723 66.67 81.8773 66.125 82.0873 65.645C82.3073 65.165 82.5973 64.76 82.9573 64.43C83.3173 64.09 83.7273 63.83 84.1873 63.65C84.6573 63.47 85.1423 63.38 85.6423 63.38C86.2123 63.38 86.7173 63.47 87.1573 63.65C87.5973 63.83 87.9623 64.08 88.2523 64.4C88.5423 64.72 88.7623 65.1 88.9123 65.54C89.0623 65.97 89.1373 66.44 89.1373 66.95C89.1373 67.15 89.1273 67.34 89.1073 67.52C89.0873 67.7 89.0673 67.835 89.0473 67.925H84.0373C84.1173 68.485 84.3573 68.89 84.7573 69.14C85.1673 69.38 85.6473 69.5 86.1973 69.5C86.5373 69.5 86.8573 69.46 87.1573 69.38C87.4673 69.29 87.7873 69.16 88.1173 68.99L88.8373 70.31C88.4173 70.58 87.9473 70.795 87.4273 70.955C86.9073 71.105 86.3973 71.18 85.8973 71.18C85.3173 71.18 84.7773 71.095 84.2773 70.925C83.7773 70.745 83.3423 70.49 82.9723 70.16C82.6023 69.82 82.3073 69.41 82.0873 68.93C81.8773 68.45 81.7723 67.9 81.7723 67.28ZM87.1423 66.47C87.1423 66.05 87.0273 65.71 86.7973 65.45C86.5673 65.19 86.1973 65.06 85.6873 65.06C85.2873 65.06 84.9323 65.175 84.6223 65.405C84.3123 65.635 84.1073 65.99 84.0073 66.47H87.1423ZM99.8505 68.93C99.8505 68.51 99.9405 68.145 100.121 67.835C100.301 67.515 100.586 67.245 100.976 67.025C101.376 66.805 101.886 66.63 102.506 66.5C103.126 66.36 103.876 66.265 104.756 66.215C104.716 65.875 104.566 65.61 104.306 65.42C104.056 65.23 103.676 65.135 103.166 65.135C102.806 65.135 102.441 65.2 102.071 65.33C101.711 65.45 101.321 65.615 100.901 65.825L100.121 64.385C100.631 64.095 101.176 63.855 101.756 63.665C102.346 63.475 102.961 63.38 103.601 63.38C104.641 63.38 105.461 63.655 106.061 64.205C106.661 64.755 106.961 65.6 106.961 66.74V71H105.161L104.996 70.16H104.936C104.556 70.45 104.141 70.695 103.691 70.895C103.241 71.085 102.776 71.18 102.296 71.18C101.916 71.18 101.576 71.12 101.276 71C100.976 70.89 100.721 70.735 100.511 70.535C100.301 70.325 100.136 70.085 100.016 69.815C99.9055 69.545 99.8505 69.25 99.8505 68.93ZM101.966 68.765C101.966 69.005 102.056 69.185 102.236 69.305C102.426 69.415 102.681 69.47 103.001 69.47C103.331 69.47 103.641 69.405 103.931 69.275C104.221 69.135 104.496 68.965 104.756 68.765V67.535C104.206 67.565 103.751 67.615 103.391 67.685C103.031 67.755 102.746 67.845 102.536 67.955C102.326 68.055 102.176 68.175 102.086 68.315C102.006 68.455 101.966 68.605 101.966 68.765ZM109.01 63.56H110.81L110.975 64.55H111.035C111.355 64.23 111.72 63.955 112.13 63.725C112.55 63.495 113.04 63.38 113.6 63.38C114.44 63.38 115.055 63.65 115.445 64.19C115.835 64.73 116.03 65.47 116.03 66.41V71H113.825V66.695C113.825 66.195 113.745 65.83 113.585 65.6C113.425 65.37 113.14 65.255 112.73 65.255C112.43 65.255 112.165 65.32 111.935 65.45C111.715 65.58 111.475 65.775 111.215 66.035V71H109.01V63.56ZM117.629 67.28C117.629 66.67 117.719 66.125 117.899 65.645C118.079 65.165 118.314 64.76 118.604 64.43C118.904 64.09 119.244 63.83 119.624 63.65C120.004 63.47 120.399 63.38 120.809 63.38C121.239 63.38 121.599 63.455 121.889 63.605C122.179 63.745 122.454 63.935 122.714 64.175L122.639 63.02V60.485H124.844V71H123.044L122.879 70.235H122.834C122.554 70.505 122.234 70.73 121.874 70.91C121.514 71.09 121.144 71.18 120.764 71.18C120.294 71.18 119.864 71.09 119.474 70.91C119.094 70.73 118.764 70.475 118.484 70.145C118.214 69.805 118.004 69.395 117.854 68.915C117.704 68.435 117.629 67.89 117.629 67.28ZM119.894 67.25C119.894 67.99 120.019 68.53 120.269 68.87C120.519 69.21 120.874 69.38 121.334 69.38C121.584 69.38 121.814 69.33 122.024 69.23C122.234 69.12 122.439 68.94 122.639 68.69V65.675C122.439 65.495 122.234 65.37 122.024 65.3C121.824 65.22 121.614 65.18 121.394 65.18C120.984 65.18 120.629 65.35 120.329 65.69C120.039 66.03 119.894 66.55 119.894 67.25ZM138.302 63.08H135.377V61.22H143.447V63.08H140.522V71H138.302V63.08ZM145.646 63.56H147.446L147.626 65.18H147.671C148.041 64.57 148.486 64.12 149.006 63.83C149.526 63.53 150.086 63.38 150.686 63.38C151.016 63.38 151.281 63.405 151.481 63.455C151.691 63.505 151.906 63.58 152.126 63.68L151.676 65.525C151.446 65.455 151.236 65.405 151.046 65.375C150.866 65.335 150.636 65.315 150.356 65.315C149.896 65.315 149.441 65.45 148.991 65.72C148.551 65.99 148.171 66.46 147.851 67.13V71H145.646V63.56ZM160.775 71H158.975L158.81 69.935H158.75C158.42 70.315 158.055 70.62 157.655 70.85C157.255 71.07 156.785 71.18 156.245 71.18C155.395 71.18 154.78 70.91 154.4 70.37C154.02 69.83 153.83 69.09 153.83 68.15V63.56H156.035V67.865C156.035 68.365 156.11 68.73 156.26 68.96C156.41 69.19 156.695 69.305 157.115 69.305C157.395 69.305 157.64 69.245 157.85 69.125C158.07 69.005 158.31 68.78 158.57 68.45V63.56H160.775V71ZM162.72 67.28C162.72 66.67 162.825 66.125 163.035 65.645C163.255 65.165 163.545 64.76 163.905 64.43C164.265 64.09 164.675 63.83 165.135 63.65C165.605 63.47 166.09 63.38 166.59 63.38C167.16 63.38 167.665 63.47 168.105 63.65C168.545 63.83 168.91 64.08 169.2 64.4C169.49 64.72 169.71 65.1 169.86 65.54C170.01 65.97 170.085 66.44 170.085 66.95C170.085 67.15 170.075 67.34 170.055 67.52C170.035 67.7 170.015 67.835 169.995 67.925H164.985C165.065 68.485 165.305 68.89 165.705 69.14C166.115 69.38 166.595 69.5 167.145 69.5C167.485 69.5 167.805 69.46 168.105 69.38C168.415 69.29 168.735 69.16 169.065 68.99L169.785 70.31C169.365 70.58 168.895 70.795 168.375 70.955C167.855 71.105 167.345 71.18 166.845 71.18C166.265 71.18 165.725 71.095 165.225 70.925C164.725 70.745 164.29 70.49 163.92 70.16C163.55 69.82 163.255 69.41 163.035 68.93C162.825 68.45 162.72 67.9 162.72 67.28ZM168.09 66.47C168.09 66.05 167.975 65.71 167.745 65.45C167.515 65.19 167.145 65.06 166.635 65.06C166.235 65.06 165.88 65.175 165.57 65.405C165.26 65.635 165.055 65.99 164.955 66.47H168.09ZM180.798 68.93C180.798 68.51 180.888 68.145 181.068 67.835C181.248 67.515 181.533 67.245 181.923 67.025C182.323 66.805 182.833 66.63 183.453 66.5C184.073 66.36 184.823 66.265 185.703 66.215C185.663 65.875 185.513 65.61 185.253 65.42C185.003 65.23 184.623 65.135 184.113 65.135C183.753 65.135 183.388 65.2 183.018 65.33C182.658 65.45 182.268 65.615 181.848 65.825L181.068 64.385C181.578 64.095 182.123 63.855 182.703 63.665C183.293 63.475 183.908 63.38 184.548 63.38C185.588 63.38 186.408 63.655 187.008 64.205C187.608 64.755 187.908 65.6 187.908 66.74V71H186.108L185.943 70.16H185.883C185.503 70.45 185.088 70.695 184.638 70.895C184.188 71.085 183.723 71.18 183.243 71.18C182.863 71.18 182.523 71.12 182.223 71C181.923 70.89 181.668 70.735 181.458 70.535C181.248 70.325 181.083 70.085 180.963 69.815C180.853 69.545 180.798 69.25 180.798 68.93ZM182.913 68.765C182.913 69.005 183.003 69.185 183.183 69.305C183.373 69.415 183.628 69.47 183.948 69.47C184.278 69.47 184.588 69.405 184.878 69.275C185.168 69.135 185.443 68.965 185.703 68.765V67.535C185.153 67.565 184.698 67.615 184.338 67.685C183.978 67.755 183.693 67.845 183.483 67.955C183.273 68.055 183.123 68.175 183.033 68.315C182.953 68.455 182.913 68.605 182.913 68.765ZM189.957 63.56H191.757L191.922 64.55H191.982C192.302 64.23 192.667 63.955 193.077 63.725C193.497 63.495 193.987 63.38 194.547 63.38C195.387 63.38 196.002 63.65 196.392 64.19C196.782 64.73 196.977 65.47 196.977 66.41V71H194.772V66.695C194.772 66.195 194.692 65.83 194.532 65.6C194.372 65.37 194.087 65.255 193.677 65.255C193.377 65.255 193.112 65.32 192.882 65.45C192.662 65.58 192.422 65.775 192.162 66.035V71H189.957V63.56ZM198.576 67.28C198.576 66.67 198.666 66.125 198.846 65.645C199.026 65.165 199.261 64.76 199.551 64.43C199.851 64.09 200.191 63.83 200.571 63.65C200.951 63.47 201.346 63.38 201.756 63.38C202.186 63.38 202.546 63.455 202.836 63.605C203.126 63.745 203.401 63.935 203.661 64.175L203.586 63.02V60.485H205.791V71H203.991L203.826 70.235H203.781C203.501 70.505 203.181 70.73 202.821 70.91C202.461 71.09 202.091 71.18 201.711 71.18C201.241 71.18 200.811 71.09 200.421 70.91C200.041 70.73 199.711 70.475 199.431 70.145C199.161 69.805 198.951 69.395 198.801 68.915C198.651 68.435 198.576 67.89 198.576 67.28ZM200.841 67.25C200.841 67.99 200.966 68.53 201.216 68.87C201.466 69.21 201.821 69.38 202.281 69.38C202.531 69.38 202.761 69.33 202.971 69.23C203.181 69.12 203.386 68.94 203.586 68.69V65.675C203.386 65.495 203.181 65.37 202.971 65.3C202.771 65.22 202.561 65.18 202.341 65.18C201.931 65.18 201.576 65.35 201.276 65.69C200.986 66.03 200.841 66.55 200.841 67.25ZM219.249 63.08H216.324V61.22H224.394V63.08H221.469V71H219.249V63.08ZM226.594 63.56H228.394L228.574 65.18H228.619C228.989 64.57 229.434 64.12 229.954 63.83C230.474 63.53 231.034 63.38 231.634 63.38C231.964 63.38 232.229 63.405 232.429 63.455C232.639 63.505 232.854 63.58 233.074 63.68L232.624 65.525C232.394 65.455 232.184 65.405 231.994 65.375C231.814 65.335 231.584 65.315 231.304 65.315C230.844 65.315 230.389 65.45 229.939 65.72C229.499 65.99 229.119 66.46 228.799 67.13V71H226.594V63.56ZM241.723 71H239.923L239.758 69.935H239.698C239.368 70.315 239.003 70.62 238.603 70.85C238.203 71.07 237.733 71.18 237.193 71.18C236.343 71.18 235.728 70.91 235.348 70.37C234.968 69.83 234.778 69.09 234.778 68.15V63.56H236.983V67.865C236.983 68.365 237.058 68.73 237.208 68.96C237.358 69.19 237.643 69.305 238.063 69.305C238.343 69.305 238.588 69.245 238.798 69.125C239.018 69.005 239.258 68.78 239.518 68.45V63.56H241.723V71ZM243.667 67.28C243.667 66.67 243.772 66.125 243.982 65.645C244.202 65.165 244.492 64.76 244.852 64.43C245.212 64.09 245.622 63.83 246.082 63.65C246.552 63.47 247.037 63.38 247.537 63.38C248.107 63.38 248.612 63.47 249.052 63.65C249.492 63.83 249.857 64.08 250.147 64.4C250.437 64.72 250.657 65.1 250.807 65.54C250.957 65.97 251.032 66.44 251.032 66.95C251.032 67.15 251.022 67.34 251.002 67.52C250.982 67.7 250.962 67.835 250.942 67.925H245.932C246.012 68.485 246.252 68.89 246.652 69.14C247.062 69.38 247.542 69.5 248.092 69.5C248.432 69.5 248.752 69.46 249.052 69.38C249.362 69.29 249.682 69.16 250.012 68.99L250.732 70.31C250.312 70.58 249.842 70.795 249.322 70.955C248.802 71.105 248.292 71.18 247.792 71.18C247.212 71.18 246.672 71.095 246.172 70.925C245.672 70.745 245.237 70.49 244.867 70.16C244.497 69.82 244.202 69.41 243.982 68.93C243.772 68.45 243.667 67.9 243.667 67.28ZM249.037 66.47C249.037 66.05 248.922 65.71 248.692 65.45C248.462 65.19 248.092 65.06 247.582 65.06C247.182 65.06 246.827 65.175 246.517 65.405C246.207 65.635 246.002 65.99 245.902 66.47H249.037ZM261.745 68.93C261.745 68.51 261.835 68.145 262.015 67.835C262.195 67.515 262.48 67.245 262.87 67.025C263.27 66.805 263.78 66.63 264.4 66.5C265.02 66.36 265.77 66.265 266.65 66.215C266.61 65.875 266.46 65.61 266.2 65.42C265.95 65.23 265.57 65.135 265.06 65.135C264.7 65.135 264.335 65.2 263.965 65.33C263.605 65.45 263.215 65.615 262.795 65.825L262.015 64.385C262.525 64.095 263.07 63.855 263.65 63.665C264.24 63.475 264.855 63.38 265.495 63.38C266.535 63.38 267.355 63.655 267.955 64.205C268.555 64.755 268.855 65.6 268.855 66.74V71H267.055L266.89 70.16H266.83C266.45 70.45 266.035 70.695 265.585 70.895C265.135 71.085 264.67 71.18 264.19 71.18C263.81 71.18 263.47 71.12 263.17 71C262.87 70.89 262.615 70.735 262.405 70.535C262.195 70.325 262.03 70.085 261.91 69.815C261.8 69.545 261.745 69.25 261.745 68.93ZM263.86 68.765C263.86 69.005 263.95 69.185 264.13 69.305C264.32 69.415 264.575 69.47 264.895 69.47C265.225 69.47 265.535 69.405 265.825 69.275C266.115 69.135 266.39 68.965 266.65 68.765V67.535C266.1 67.565 265.645 67.615 265.285 67.685C264.925 67.755 264.64 67.845 264.43 67.955C264.22 68.055 264.07 68.175 263.98 68.315C263.9 68.455 263.86 68.605 263.86 68.765ZM270.904 63.56H272.704L272.869 64.55H272.929C273.249 64.23 273.614 63.955 274.024 63.725C274.444 63.495 274.934 63.38 275.494 63.38C276.334 63.38 276.949 63.65 277.339 64.19C277.729 64.73 277.924 65.47 277.924 66.41V71H275.719V66.695C275.719 66.195 275.639 65.83 275.479 65.6C275.319 65.37 275.034 65.255 274.624 65.255C274.324 65.255 274.059 65.32 273.829 65.45C273.609 65.58 273.369 65.775 273.109 66.035V71H270.904V63.56ZM279.523 67.28C279.523 66.67 279.613 66.125 279.793 65.645C279.973 65.165 280.208 64.76 280.498 64.43C280.798 64.09 281.138 63.83 281.518 63.65C281.898 63.47 282.293 63.38 282.703 63.38C283.133 63.38 283.493 63.455 283.783 63.605C284.073 63.745 284.348 63.935 284.608 64.175L284.533 63.02V60.485H286.738V71H284.938L284.773 70.235H284.728C284.448 70.505 284.128 70.73 283.768 70.91C283.408 71.09 283.038 71.18 282.658 71.18C282.188 71.18 281.758 71.09 281.368 70.91C280.988 70.73 280.658 70.475 280.378 70.145C280.108 69.805 279.898 69.395 279.748 68.915C279.598 68.435 279.523 67.89 279.523 67.28ZM281.788 67.25C281.788 67.99 281.913 68.53 282.163 68.87C282.413 69.21 282.768 69.38 283.228 69.38C283.478 69.38 283.708 69.33 283.918 69.23C284.128 69.12 284.333 68.94 284.533 68.69V65.675C284.333 65.495 284.128 65.37 283.918 65.3C283.718 65.22 283.508 65.18 283.288 65.18C282.878 65.18 282.523 65.35 282.223 65.69C281.933 66.03 281.788 66.55 281.788 67.25ZM300.197 63.08H297.272V61.22H305.342V63.08H302.417V71H300.197V63.08ZM307.541 63.56H309.341L309.521 65.18H309.566C309.936 64.57 310.381 64.12 310.901 63.83C311.421 63.53 311.981 63.38 312.581 63.38C312.911 63.38 313.176 63.405 313.376 63.455C313.586 63.505 313.801 63.58 314.021 63.68L313.571 65.525C313.341 65.455 313.131 65.405 312.941 65.375C312.761 65.335 312.531 65.315 312.251 65.315C311.791 65.315 311.336 65.45 310.886 65.72C310.446 65.99 310.066 66.46 309.746 67.13V71H307.541V63.56ZM322.67 71H320.87L320.705 69.935H320.645C320.315 70.315 319.95 70.62 319.55 70.85C319.15 71.07 318.68 71.18 318.14 71.18C317.29 71.18 316.675 70.91 316.295 70.37C315.915 69.83 315.725 69.09 315.725 68.15V63.56H317.93V67.865C317.93 68.365 318.005 68.73 318.155 68.96C318.305 69.19 318.59 69.305 319.01 69.305C319.29 69.305 319.535 69.245 319.745 69.125C319.965 69.005 320.205 68.78 320.465 68.45V63.56H322.67V71ZM324.614 67.28C324.614 66.67 324.719 66.125 324.929 65.645C325.149 65.165 325.439 64.76 325.799 64.43C326.159 64.09 326.569 63.83 327.029 63.65C327.499 63.47 327.984 63.38 328.484 63.38C329.054 63.38 329.559 63.47 329.999 63.65C330.439 63.83 330.804 64.08 331.094 64.4C331.384 64.72 331.604 65.1 331.754 65.54C331.904 65.97 331.979 66.44 331.979 66.95C331.979 67.15 331.969 67.34 331.949 67.52C331.929 67.7 331.909 67.835 331.889 67.925H326.879C326.959 68.485 327.199 68.89 327.599 69.14C328.009 69.38 328.489 69.5 329.039 69.5C329.379 69.5 329.699 69.46 329.999 69.38C330.309 69.29 330.629 69.16 330.959 68.99L331.679 70.31C331.259 70.58 330.789 70.795 330.269 70.955C329.749 71.105 329.239 71.18 328.739 71.18C328.159 71.18 327.619 71.095 327.119 70.925C326.619 70.745 326.184 70.49 325.814 70.16C325.444 69.82 325.149 69.41 324.929 68.93C324.719 68.45 324.614 67.9 324.614 67.28ZM329.984 66.47C329.984 66.05 329.869 65.71 329.639 65.45C329.409 65.19 329.039 65.06 328.529 65.06C328.129 65.06 327.774 65.175 327.464 65.405C327.154 65.635 326.949 65.99 326.849 66.47H329.984Z" transform="translate(8.01071 36)" fill="#E69F00"/>
</svg>
