<svg width="228" height="216" viewBox="0 0 228 216" fill="none" xmlns="http://www.w3.org/2000/svg">
<rect width="228" height="216" fill="black"/>
<line y1="135.5" x2="228" y2="135.5" stroke="white"/>
<path d="M11.5004 156.68C10.9204 156.68 10.3854 156.565 9.8954 156.335C9.4154 156.095 9.0004 155.755 8.6504 155.315C8.3104 154.875 8.0454 154.34 7.8554 153.71C7.6654 153.08 7.5704 152.365 7.5704 151.565C7.5704 150.765 7.6654 150.055 7.8554 149.435C8.0454 148.805 8.3104 148.28 8.6504 147.86C9.0004 147.43 9.4154 147.105 9.8954 146.885C10.3854 146.655 10.9204 146.54 11.5004 146.54C12.0804 146.54 12.6104 146.655 13.0904 146.885C13.5804 147.105 13.9954 147.43 14.3354 147.86C14.6854 148.29 14.9554 148.82 15.1454 149.45C15.3354 150.07 15.4304 150.775 15.4304 151.565C15.4304 152.365 15.3354 153.08 15.1454 153.71C14.9554 154.34 14.6854 154.875 14.3354 155.315C13.9954 155.755 13.5804 156.095 13.0904 156.335C12.6104 156.565 12.0804 156.68 11.5004 156.68ZM11.5004 154.775C12.0104 154.775 12.4154 154.49 12.7154 153.92C13.0154 153.34 13.1654 152.555 13.1654 151.565C13.1654 150.585 13.0154 149.82 12.7154 149.27C12.4154 148.72 12.0104 148.445 11.5004 148.445C10.9904 148.445 10.5854 148.72 10.2854 149.27C9.9854 149.82 9.8354 150.585 9.8354 151.565C9.8354 152.555 9.9854 153.34 10.2854 153.92C10.5854 154.49 10.9904 154.775 11.5004 154.775ZM23.8695 156.5H22.0695L21.9045 155.435H21.8445C21.5145 155.815 21.1495 156.12 20.7495 156.35C20.3495 156.57 19.8795 156.68 19.3395 156.68C18.4895 156.68 17.8745 156.41 17.4945 155.87C17.1145 155.33 16.9245 154.59 16.9245 153.65V149.06H19.1295V153.365C19.1295 153.865 19.2045 154.23 19.3545 154.46C19.5045 154.69 19.7895 154.805 20.2095 154.805C20.4895 154.805 20.7345 154.745 20.9445 154.625C21.1645 154.505 21.4045 154.28 21.6645 153.95V149.06H23.8695V156.5ZM27.5987 150.785H25.7237V149.15L27.7037 149.06L27.9887 147.08H29.8037V149.06H32.9537V150.785H29.8037V153.395C29.8037 153.965 29.9287 154.37 30.1787 154.61C30.4287 154.84 30.8237 154.955 31.3637 154.955C31.6537 154.955 31.9187 154.93 32.1587 154.88C32.3987 154.83 32.6287 154.765 32.8487 154.685L33.2387 156.275C32.9087 156.375 32.5387 156.465 32.1287 156.545C31.7287 156.635 31.2887 156.68 30.8087 156.68C30.2187 156.68 29.7187 156.6 29.3087 156.44C28.8987 156.28 28.5637 156.06 28.3037 155.78C28.0537 155.49 27.8737 155.145 27.7637 154.745C27.6537 154.345 27.5987 153.9 27.5987 153.41V150.785ZM37.2678 157.085V159.26H35.0628V149.06H36.8628L37.0278 149.81H37.0728C37.3728 149.54 37.7178 149.32 38.1078 149.15C38.4978 148.97 38.8928 148.88 39.2928 148.88C39.7528 148.88 40.1678 148.97 40.5378 149.15C40.9078 149.33 41.2228 149.585 41.4828 149.915C41.7428 150.245 41.9378 150.645 42.0678 151.115C42.2078 151.575 42.2778 152.09 42.2778 152.66C42.2778 153.3 42.1878 153.87 42.0078 154.37C41.8278 154.86 41.5878 155.28 41.2878 155.63C40.9878 155.97 40.6428 156.23 40.2528 156.41C39.8728 156.59 39.4728 156.68 39.0528 156.68C38.3728 156.68 37.7528 156.41 37.1928 155.87L37.2678 157.085ZM37.2678 154.385C37.4778 154.565 37.6928 154.695 37.9128 154.775C38.1428 154.845 38.3528 154.88 38.5428 154.88C38.9628 154.88 39.3128 154.71 39.5928 154.37C39.8728 154.02 40.0128 153.46 40.0128 152.69C40.0128 151.35 39.5578 150.68 38.6478 150.68C38.1778 150.68 37.7178 150.91 37.2678 151.37V154.385ZM50.852 156.5H49.052L48.887 155.435H48.827C48.497 155.815 48.132 156.12 47.732 156.35C47.332 156.57 46.862 156.68 46.322 156.68C45.472 156.68 44.857 156.41 44.477 155.87C44.097 155.33 43.907 154.59 43.907 153.65V149.06H46.112V153.365C46.112 153.865 46.187 154.23 46.337 154.46C46.487 154.69 46.772 154.805 47.192 154.805C47.472 154.805 47.717 154.745 47.927 154.625C48.147 154.505 48.387 154.28 48.647 153.95V149.06H50.852V156.5ZM54.5811 150.785H52.7061V149.15L54.6861 149.06L54.9711 147.08H56.7861V149.06H59.9361V150.785H56.7861V153.395C56.7861 153.965 56.9111 154.37 57.1611 154.61C57.4111 154.84 57.8061 154.955 58.3461 154.955C58.6361 154.955 58.9011 154.93 59.1411 154.88C59.3811 154.83 59.6111 154.765 59.8311 154.685L60.2211 156.275C59.8911 156.375 59.5211 156.465 59.1111 156.545C58.7111 156.635 58.2711 156.68 57.7911 156.68C57.2011 156.68 56.7011 156.6 56.2911 156.44C55.8811 156.28 55.5461 156.06 55.2861 155.78C55.0361 155.49 54.8561 155.145 54.7461 154.745C54.6361 154.345 54.5811 153.9 54.5811 153.41V150.785Z" fill="white"/>
<path d="M7.99 171.22H10.24L12.31 176.095L13.15 178.24H13.21C13.16 177.72 13.095 177.14 13.015 176.5C12.935 175.86 12.895 175.255 12.895 174.685V171.22H15.01V181H12.76L10.69 176.125L9.85 173.995H9.79C9.84 174.535 9.905 175.115 9.985 175.735C10.065 176.355 10.105 176.955 10.105 177.535V181H7.99V171.22ZM16.9091 178.93C16.9091 178.51 16.9991 178.145 17.1791 177.835C17.3591 177.515 17.6441 177.245 18.0341 177.025C18.4341 176.805 18.9441 176.63 19.5641 176.5C20.1841 176.36 20.9341 176.265 21.8141 176.215C21.7741 175.875 21.6241 175.61 21.3641 175.42C21.1141 175.23 20.7341 175.135 20.2241 175.135C19.8641 175.135 19.4991 175.2 19.1291 175.33C18.7691 175.45 18.3791 175.615 17.9591 175.825L17.1791 174.385C17.6891 174.095 18.2341 173.855 18.8141 173.665C19.4041 173.475 20.0191 173.38 20.6591 173.38C21.6991 173.38 22.5191 173.655 23.1191 174.205C23.7191 174.755 24.0191 175.6 24.0191 176.74V181H22.2191L22.0541 180.16H21.9941C21.6141 180.45 21.1991 180.695 20.7491 180.895C20.2991 181.085 19.8341 181.18 19.3541 181.18C18.9741 181.18 18.6341 181.12 18.3341 181C18.0341 180.89 17.7791 180.735 17.5691 180.535C17.3591 180.325 17.1941 180.085 17.0741 179.815C16.9641 179.545 16.9091 179.25 16.9091 178.93ZM19.0241 178.765C19.0241 179.005 19.1141 179.185 19.2941 179.305C19.4841 179.415 19.7391 179.47 20.0591 179.47C20.3891 179.47 20.6991 179.405 20.9891 179.275C21.2791 179.135 21.5541 178.965 21.8141 178.765V177.535C21.2641 177.565 20.8091 177.615 20.4491 177.685C20.0891 177.755 19.8041 177.845 19.5941 177.955C19.3841 178.055 19.2341 178.175 19.1441 178.315C19.0641 178.455 19.0241 178.605 19.0241 178.765ZM25.5283 173.56H27.1783L27.3433 174.49H27.4033C27.5433 174.18 27.7333 173.92 27.9733 173.71C28.2233 173.49 28.5633 173.38 28.9933 173.38C29.3233 173.38 29.5983 173.485 29.8183 173.695C30.0483 173.895 30.2083 174.195 30.2983 174.595C30.4383 174.255 30.6383 173.97 30.8983 173.74C31.1683 173.5 31.5133 173.38 31.9333 173.38C32.4533 173.38 32.8583 173.595 33.1483 174.025C33.4383 174.445 33.5833 175.03 33.5833 175.78V181H31.5133V175.945C31.5133 175.485 31.3733 175.255 31.0933 175.255C30.8233 175.255 30.5933 175.495 30.4033 175.975V181H28.7083V175.945C28.7083 175.485 28.5633 175.255 28.2733 175.255C28.1333 175.255 28.0133 175.315 27.9133 175.435C27.8133 175.555 27.7083 175.735 27.5983 175.975V181H25.5283V173.56ZM34.8074 177.28C34.8074 176.67 34.9124 176.125 35.1224 175.645C35.3424 175.165 35.6324 174.76 35.9924 174.43C36.3524 174.09 36.7624 173.83 37.2224 173.65C37.6924 173.47 38.1774 173.38 38.6774 173.38C39.2474 173.38 39.7524 173.47 40.1924 173.65C40.6324 173.83 40.9974 174.08 41.2874 174.4C41.5774 174.72 41.7974 175.1 41.9474 175.54C42.0974 175.97 42.1724 176.44 42.1724 176.95C42.1724 177.15 42.1624 177.34 42.1424 177.52C42.1224 177.7 42.1024 177.835 42.0824 177.925H37.0724C37.1524 178.485 37.3924 178.89 37.7924 179.14C38.2024 179.38 38.6824 179.5 39.2324 179.5C39.5724 179.5 39.8924 179.46 40.1924 179.38C40.5024 179.29 40.8224 179.16 41.1524 178.99L41.8724 180.31C41.4524 180.58 40.9824 180.795 40.4624 180.955C39.9424 181.105 39.4324 181.18 38.9324 181.18C38.3524 181.18 37.8124 181.095 37.3124 180.925C36.8124 180.745 36.3774 180.49 36.0074 180.16C35.6374 179.82 35.3424 179.41 35.1224 178.93C34.9124 178.45 34.8074 177.9 34.8074 177.28ZM40.1774 176.47C40.1774 176.05 40.0624 175.71 39.8324 175.45C39.6024 175.19 39.2324 175.06 38.7224 175.06C38.3224 175.06 37.9674 175.175 37.6574 175.405C37.3474 175.635 37.1424 175.99 37.0424 176.47H40.1774ZM44.3866 171.22H50.8366V173.08H46.5916V175.045H50.1916V176.89H46.5916V179.14H50.9866V181H44.3866V171.22ZM53.7107 173.56H55.5107L55.6907 175.18H55.7357C56.1057 174.57 56.5507 174.12 57.0707 173.83C57.5907 173.53 58.1507 173.38 58.7507 173.38C59.0807 173.38 59.3457 173.405 59.5457 173.455C59.7557 173.505 59.9707 173.58 60.1907 173.68L59.7407 175.525C59.5107 175.455 59.3007 175.405 59.1107 175.375C58.9307 175.335 58.7007 175.315 58.4207 175.315C57.9607 175.315 57.5057 175.45 57.0557 175.72C56.6157 175.99 56.2357 176.46 55.9157 177.13V181H53.7107V173.56ZM62.7048 173.56H64.5048L64.6848 175.18H64.7298C65.0998 174.57 65.5448 174.12 66.0648 173.83C66.5848 173.53 67.1448 173.38 67.7448 173.38C68.0748 173.38 68.3398 173.405 68.5398 173.455C68.7498 173.505 68.9648 173.58 69.1848 173.68L68.7348 175.525C68.5048 175.455 68.2948 175.405 68.1048 175.375C67.9248 175.335 67.6948 175.315 67.4148 175.315C66.9548 175.315 66.4998 175.45 66.0498 175.72C65.6098 175.99 65.2298 176.46 64.9098 177.13V181H62.7048V173.56ZM70.664 177.28C70.664 176.66 70.769 176.11 70.979 175.63C71.189 175.14 71.469 174.73 71.819 174.4C72.179 174.07 72.584 173.82 73.034 173.65C73.494 173.47 73.969 173.38 74.459 173.38C74.949 173.38 75.419 173.47 75.869 173.65C76.329 173.82 76.734 174.07 77.084 174.4C77.444 174.73 77.729 175.14 77.939 175.63C78.149 176.11 78.254 176.66 78.254 177.28C78.254 177.9 78.149 178.455 77.939 178.945C77.729 179.425 77.444 179.83 77.084 180.16C76.734 180.49 76.329 180.745 75.869 180.925C75.419 181.095 74.949 181.18 74.459 181.18C73.969 181.18 73.494 181.095 73.034 180.925C72.584 180.745 72.179 180.49 71.819 180.16C71.469 179.83 71.189 179.425 70.979 178.945C70.769 178.455 70.664 177.9 70.664 177.28ZM72.929 177.28C72.929 177.93 73.054 178.445 73.304 178.825C73.564 179.205 73.949 179.395 74.459 179.395C74.969 179.395 75.349 179.205 75.599 178.825C75.859 178.445 75.989 177.93 75.989 177.28C75.989 176.63 75.859 176.115 75.599 175.735C75.349 175.355 74.969 175.165 74.459 175.165C73.949 175.165 73.564 175.355 73.304 175.735C73.054 176.115 72.929 176.63 72.929 177.28ZM80.6931 173.56H82.4931L82.6731 175.18H82.7181C83.0881 174.57 83.5331 174.12 84.0531 173.83C84.5731 173.53 85.1331 173.38 85.7331 173.38C86.0631 173.38 86.3281 173.405 86.5281 173.455C86.7381 173.505 86.9531 173.58 87.1731 173.68L86.7231 175.525C86.4931 175.455 86.2831 175.405 86.0931 175.375C85.9131 175.335 85.6831 175.315 85.4031 175.315C84.9431 175.315 84.4881 175.45 84.0381 175.72C83.5981 175.99 83.2181 176.46 82.8981 177.13V181H80.6931V173.56ZM90.7073 174.58C90.7073 174.33 90.7473 174.1 90.8273 173.89C90.9173 173.67 91.0373 173.48 91.1873 173.32C91.3373 173.16 91.5173 173.035 91.7273 172.945C91.9473 172.855 92.1873 172.81 92.4473 172.81C92.7073 172.81 92.9423 172.855 93.1523 172.945C93.3723 173.035 93.5573 173.16 93.7073 173.32C93.8573 173.48 93.9723 173.67 94.0523 173.89C94.1423 174.1 94.1873 174.33 94.1873 174.58C94.1873 175.08 94.0273 175.5 93.7073 175.84C93.3873 176.17 92.9673 176.335 92.4473 176.335C91.9273 176.335 91.5073 176.17 91.1873 175.84C90.8673 175.5 90.7073 175.08 90.7073 174.58ZM90.7073 179.425C90.7073 179.175 90.7473 178.945 90.8273 178.735C90.9173 178.515 91.0373 178.325 91.1873 178.165C91.3373 178.005 91.5173 177.88 91.7273 177.79C91.9473 177.7 92.1873 177.655 92.4473 177.655C92.7073 177.655 92.9423 177.7 93.1523 177.79C93.3723 177.88 93.5573 178.005 93.7073 178.165C93.8573 178.325 93.9723 178.515 94.0523 178.735C94.1423 178.945 94.1873 179.175 94.1873 179.425C94.1873 179.925 94.0273 180.345 93.7073 180.685C93.3873 181.015 92.9673 181.18 92.4473 181.18C91.9273 181.18 91.5073 181.015 91.1873 180.685C90.8673 180.345 90.7073 179.925 90.7073 179.425ZM107.016 173.56H108.816L108.981 174.55H109.041C109.361 174.23 109.726 173.955 110.136 173.725C110.556 173.495 111.046 173.38 111.606 173.38C112.446 173.38 113.061 173.65 113.451 174.19C113.841 174.73 114.036 175.47 114.036 176.41V181H111.831V176.695C111.831 176.195 111.751 175.83 111.591 175.6C111.431 175.37 111.146 175.255 110.736 175.255C110.436 175.255 110.171 175.32 109.941 175.45C109.721 175.58 109.481 175.775 109.221 176.035V181H107.016V173.56ZM115.845 178.93C115.845 178.51 115.935 178.145 116.115 177.835C116.295 177.515 116.58 177.245 116.97 177.025C117.37 176.805 117.88 176.63 118.5 176.5C119.12 176.36 119.87 176.265 120.75 176.215C120.71 175.875 120.56 175.61 120.3 175.42C120.05 175.23 119.67 175.135 119.16 175.135C118.8 175.135 118.435 175.2 118.065 175.33C117.705 175.45 117.315 175.615 116.895 175.825L116.115 174.385C116.625 174.095 117.17 173.855 117.75 173.665C118.34 173.475 118.955 173.38 119.595 173.38C120.635 173.38 121.455 173.655 122.055 174.205C122.655 174.755 122.955 175.6 122.955 176.74V181H121.155L120.99 180.16H120.93C120.55 180.45 120.135 180.695 119.685 180.895C119.235 181.085 118.77 181.18 118.29 181.18C117.91 181.18 117.57 181.12 117.27 181C116.97 180.89 116.715 180.735 116.505 180.535C116.295 180.325 116.13 180.085 116.01 179.815C115.9 179.545 115.845 179.25 115.845 178.93ZM117.96 178.765C117.96 179.005 118.05 179.185 118.23 179.305C118.42 179.415 118.675 179.47 118.995 179.47C119.325 179.47 119.635 179.405 119.925 179.275C120.215 179.135 120.49 178.965 120.75 178.765V177.535C120.2 177.565 119.745 177.615 119.385 177.685C119.025 177.755 118.74 177.845 118.53 177.955C118.32 178.055 118.17 178.175 118.08 178.315C118 178.455 117.96 178.605 117.96 178.765ZM124.464 173.56H126.114L126.279 174.49H126.339C126.479 174.18 126.669 173.92 126.909 173.71C127.159 173.49 127.499 173.38 127.929 173.38C128.259 173.38 128.534 173.485 128.754 173.695C128.984 173.895 129.144 174.195 129.234 174.595C129.374 174.255 129.574 173.97 129.834 173.74C130.104 173.5 130.449 173.38 130.869 173.38C131.389 173.38 131.794 173.595 132.084 174.025C132.374 174.445 132.519 175.03 132.519 175.78V181H130.449V175.945C130.449 175.485 130.309 175.255 130.029 175.255C129.759 175.255 129.529 175.495 129.339 175.975V181H127.644V175.945C127.644 175.485 127.499 175.255 127.209 175.255C127.069 175.255 126.949 175.315 126.849 175.435C126.749 175.555 126.644 175.735 126.534 175.975V181H124.464V173.56ZM133.743 177.28C133.743 176.67 133.848 176.125 134.058 175.645C134.278 175.165 134.568 174.76 134.928 174.43C135.288 174.09 135.698 173.83 136.158 173.65C136.628 173.47 137.113 173.38 137.613 173.38C138.183 173.38 138.688 173.47 139.128 173.65C139.568 173.83 139.933 174.08 140.223 174.4C140.513 174.72 140.733 175.1 140.883 175.54C141.033 175.97 141.108 176.44 141.108 176.95C141.108 177.15 141.098 177.34 141.078 177.52C141.058 177.7 141.038 177.835 141.018 177.925H136.008C136.088 178.485 136.328 178.89 136.728 179.14C137.138 179.38 137.618 179.5 138.168 179.5C138.508 179.5 138.828 179.46 139.128 179.38C139.438 179.29 139.758 179.16 140.088 178.99L140.808 180.31C140.388 180.58 139.918 180.795 139.398 180.955C138.878 181.105 138.368 181.18 137.868 181.18C137.288 181.18 136.748 181.095 136.248 180.925C135.748 180.745 135.313 180.49 134.943 180.16C134.573 179.82 134.278 179.41 134.058 178.93C133.848 178.45 133.743 177.9 133.743 177.28ZM139.113 176.47C139.113 176.05 138.998 175.71 138.768 175.45C138.538 175.19 138.168 175.06 137.658 175.06C137.258 175.06 136.903 175.175 136.593 175.405C136.283 175.635 136.078 175.99 135.978 176.47H139.113ZM154.206 172.9L154.131 170.725H156.681L156.606 172.9L156.081 176.455H154.731L154.206 172.9ZM163.035 177.13L160.62 173.56H162.99L163.755 174.76C163.865 174.97 163.99 175.185 164.13 175.405C164.27 175.615 164.405 175.825 164.535 176.035H164.595C164.695 175.825 164.795 175.61 164.895 175.39C165.005 175.17 165.11 174.96 165.21 174.76L165.87 173.56H168.18L165.75 177.385L168.33 181H165.96L165.105 179.77C164.965 179.56 164.82 179.345 164.67 179.125C164.53 178.905 164.39 178.69 164.25 178.48H164.19C164.08 178.69 163.965 178.905 163.845 179.125C163.725 179.335 163.61 179.55 163.5 179.77L162.765 181H160.455L163.035 177.13ZM172.195 172.9L172.12 170.725H174.67L174.595 172.9L174.07 176.455H172.72L172.195 172.9ZM188.068 173.56H193.258V181H191.053V175.285H188.068V173.56ZM192.058 172.465C191.628 172.465 191.273 172.345 190.993 172.105C190.723 171.865 190.588 171.54 190.588 171.13C190.588 170.72 190.723 170.39 190.993 170.14C191.273 169.88 191.628 169.75 192.058 169.75C192.488 169.75 192.838 169.88 193.108 170.14C193.388 170.39 193.528 170.72 193.528 171.13C193.528 171.54 193.388 171.865 193.108 172.105C192.838 172.345 192.488 172.465 192.058 172.465ZM197.662 178.66C198.092 178.93 198.522 179.145 198.952 179.305C199.392 179.465 199.862 179.545 200.362 179.545C200.872 179.545 201.237 179.49 201.457 179.38C201.677 179.27 201.787 179.115 201.787 178.915C201.787 178.685 201.602 178.5 201.232 178.36C200.872 178.21 200.392 178.05 199.792 177.88C199.462 177.79 199.137 177.685 198.817 177.565C198.507 177.435 198.227 177.285 197.977 177.115C197.727 176.935 197.522 176.73 197.362 176.5C197.212 176.27 197.137 176.005 197.137 175.705C197.137 175.365 197.217 175.05 197.377 174.76C197.537 174.47 197.762 174.225 198.052 174.025C198.352 173.825 198.712 173.67 199.132 173.56C199.562 173.44 200.042 173.38 200.572 173.38C201.232 173.38 201.832 173.49 202.372 173.71C202.922 173.92 203.392 174.15 203.782 174.4L202.792 175.72C202.452 175.52 202.102 175.355 201.742 175.225C201.382 175.085 201.007 175.015 200.617 175.015C200.147 175.015 199.812 175.065 199.612 175.165C199.422 175.265 199.327 175.41 199.327 175.6C199.327 175.71 199.377 175.81 199.477 175.9C199.577 175.99 199.712 176.07 199.882 176.14C200.052 176.21 200.252 176.28 200.482 176.35C200.722 176.41 200.972 176.475 201.232 176.545C201.602 176.645 201.952 176.76 202.282 176.89C202.612 177.01 202.902 177.155 203.152 177.325C203.402 177.495 203.602 177.7 203.752 177.94C203.902 178.18 203.977 178.46 203.977 178.78C203.977 179.12 203.897 179.435 203.737 179.725C203.577 180.015 203.342 180.27 203.032 180.49C202.732 180.7 202.352 180.87 201.892 181C201.442 181.12 200.917 181.18 200.317 181.18C199.647 181.18 198.992 181.07 198.352 180.85C197.712 180.63 197.152 180.36 196.672 180.04L197.662 178.66ZM8.08 192.56H9.88L10.045 193.55H10.105C10.425 193.23 10.79 192.955 11.2 192.725C11.62 192.495 12.11 192.38 12.67 192.38C13.51 192.38 14.125 192.65 14.515 193.19C14.905 193.73 15.1 194.47 15.1 195.41V200H12.895V195.695C12.895 195.195 12.815 194.83 12.655 194.6C12.495 194.37 12.21 194.255 11.8 194.255C11.5 194.255 11.235 194.32 11.005 194.45C10.785 194.58 10.545 194.775 10.285 195.035V200H8.08V192.56ZM16.6991 196.28C16.6991 195.66 16.8041 195.11 17.0141 194.63C17.2241 194.14 17.5041 193.73 17.8541 193.4C18.2141 193.07 18.6191 192.82 19.0691 192.65C19.5291 192.47 20.0041 192.38 20.4941 192.38C20.9841 192.38 21.4541 192.47 21.9041 192.65C22.3641 192.82 22.7691 193.07 23.1191 193.4C23.4791 193.73 23.7641 194.14 23.9741 194.63C24.1841 195.11 24.2891 195.66 24.2891 196.28C24.2891 196.9 24.1841 197.455 23.9741 197.945C23.7641 198.425 23.4791 198.83 23.1191 199.16C22.7691 199.49 22.3641 199.745 21.9041 199.925C21.4541 200.095 20.9841 200.18 20.4941 200.18C20.0041 200.18 19.5291 200.095 19.0691 199.925C18.6191 199.745 18.2141 199.49 17.8541 199.16C17.5041 198.83 17.2241 198.425 17.0141 197.945C16.8041 197.455 16.6991 196.9 16.6991 196.28ZM18.9641 196.28C18.9641 196.93 19.0891 197.445 19.3391 197.825C19.5991 198.205 19.9841 198.395 20.4941 198.395C21.0041 198.395 21.3841 198.205 21.6341 197.825C21.8941 197.445 22.0241 196.93 22.0241 196.28C22.0241 195.63 21.8941 195.115 21.6341 194.735C21.3841 194.355 21.0041 194.165 20.4941 194.165C19.9841 194.165 19.5991 194.355 19.3391 194.735C19.0891 195.115 18.9641 195.63 18.9641 196.28ZM27.5983 194.285H25.7233V192.65L27.7033 192.56L27.9883 190.58H29.8033V192.56H32.9533V194.285H29.8033V196.895C29.8033 197.465 29.9283 197.87 30.1783 198.11C30.4283 198.34 30.8233 198.455 31.3633 198.455C31.6533 198.455 31.9183 198.43 32.1583 198.38C32.3983 198.33 32.6283 198.265 32.8483 198.185L33.2383 199.775C32.9083 199.875 32.5383 199.965 32.1283 200.045C31.7283 200.135 31.2883 200.18 30.8083 200.18C30.2183 200.18 29.7183 200.1 29.3083 199.94C28.8983 199.78 28.5633 199.56 28.3033 199.28C28.0533 198.99 27.8733 198.645 27.7633 198.245C27.6533 197.845 27.5983 197.4 27.5983 196.91V194.285ZM43.6816 196.28C43.6816 195.67 43.7716 195.125 43.9516 194.645C44.1316 194.165 44.3666 193.76 44.6566 193.43C44.9566 193.09 45.2966 192.83 45.6766 192.65C46.0566 192.47 46.4516 192.38 46.8616 192.38C47.2916 192.38 47.6516 192.455 47.9416 192.605C48.2316 192.745 48.5066 192.935 48.7666 193.175L48.6916 192.02V189.485H50.8966V200H49.0966L48.9316 199.235H48.8866C48.6066 199.505 48.2866 199.73 47.9266 199.91C47.5666 200.09 47.1966 200.18 46.8166 200.18C46.3466 200.18 45.9166 200.09 45.5266 199.91C45.1466 199.73 44.8166 199.475 44.5366 199.145C44.2666 198.805 44.0566 198.395 43.9066 197.915C43.7566 197.435 43.6816 196.89 43.6816 196.28ZM45.9466 196.25C45.9466 196.99 46.0716 197.53 46.3216 197.87C46.5716 198.21 46.9266 198.38 47.3866 198.38C47.6366 198.38 47.8666 198.33 48.0766 198.23C48.2866 198.12 48.4916 197.94 48.6916 197.69V194.675C48.4916 194.495 48.2866 194.37 48.0766 194.3C47.8766 194.22 47.6666 194.18 47.4466 194.18C47.0366 194.18 46.6816 194.35 46.3816 194.69C46.0916 195.03 45.9466 195.55 45.9466 196.25ZM52.7957 196.28C52.7957 195.67 52.9007 195.125 53.1107 194.645C53.3307 194.165 53.6207 193.76 53.9807 193.43C54.3407 193.09 54.7507 192.83 55.2107 192.65C55.6807 192.47 56.1657 192.38 56.6657 192.38C57.2357 192.38 57.7407 192.47 58.1807 192.65C58.6207 192.83 58.9857 193.08 59.2757 193.4C59.5657 193.72 59.7857 194.1 59.9357 194.54C60.0857 194.97 60.1607 195.44 60.1607 195.95C60.1607 196.15 60.1507 196.34 60.1307 196.52C60.1107 196.7 60.0907 196.835 60.0707 196.925H55.0607C55.1407 197.485 55.3807 197.89 55.7807 198.14C56.1907 198.38 56.6707 198.5 57.2207 198.5C57.5607 198.5 57.8807 198.46 58.1807 198.38C58.4907 198.29 58.8107 198.16 59.1407 197.99L59.8607 199.31C59.4407 199.58 58.9707 199.795 58.4507 199.955C57.9307 200.105 57.4207 200.18 56.9207 200.18C56.3407 200.18 55.8007 200.095 55.3007 199.925C54.8007 199.745 54.3657 199.49 53.9957 199.16C53.6257 198.82 53.3307 198.41 53.1107 197.93C52.9007 197.45 52.7957 196.9 52.7957 196.28ZM58.1657 195.47C58.1657 195.05 58.0507 194.71 57.8207 194.45C57.5907 194.19 57.2207 194.06 56.7107 194.06C56.3107 194.06 55.9557 194.175 55.6457 194.405C55.3357 194.635 55.1307 194.99 55.0307 195.47H58.1657ZM69.3198 191.33C68.8298 191.14 68.3098 191.045 67.7598 191.045C67.2798 191.045 66.9248 191.15 66.6948 191.36C66.4748 191.57 66.3648 191.9 66.3648 192.35V192.56H68.9298V194.285H66.3648V200H64.1598V194.285H62.1948V192.65L64.1598 192.56V192.365C64.1598 191.935 64.2248 191.535 64.3548 191.165C64.4848 190.795 64.6848 190.475 64.9548 190.205C65.2248 189.925 65.5698 189.705 65.9898 189.545C66.4098 189.385 66.9098 189.305 67.4898 189.305C67.9198 189.305 68.3198 189.345 68.6898 189.425C69.0698 189.505 69.4198 189.6 69.7398 189.71L69.3198 191.33ZM71.144 192.56H76.334V200H74.129V194.285H71.144V192.56ZM75.134 191.465C74.704 191.465 74.349 191.345 74.069 191.105C73.799 190.865 73.664 190.54 73.664 190.13C73.664 189.72 73.799 189.39 74.069 189.14C74.349 188.88 74.704 188.75 75.134 188.75C75.564 188.75 75.914 188.88 76.184 189.14C76.464 189.39 76.604 189.72 76.604 190.13C76.604 190.54 76.464 190.865 76.184 191.105C75.914 191.345 75.564 191.465 75.134 191.465ZM80.0331 192.56H81.8331L81.9981 193.55H82.0581C82.3781 193.23 82.7431 192.955 83.1531 192.725C83.5731 192.495 84.0631 192.38 84.6231 192.38C85.4631 192.38 86.0781 192.65 86.4681 193.19C86.8581 193.73 87.0531 194.47 87.0531 195.41V200H84.8481V195.695C84.8481 195.195 84.7681 194.83 84.6081 194.6C84.4481 194.37 84.1631 194.255 83.7531 194.255C83.4531 194.255 83.1881 194.32 82.9581 194.45C82.7381 194.58 82.4981 194.775 82.2381 195.035V200H80.0331V192.56ZM88.7723 196.28C88.7723 195.67 88.8773 195.125 89.0873 194.645C89.3073 194.165 89.5973 193.76 89.9573 193.43C90.3173 193.09 90.7273 192.83 91.1873 192.65C91.6573 192.47 92.1423 192.38 92.6423 192.38C93.2123 192.38 93.7173 192.47 94.1573 192.65C94.5973 192.83 94.9623 193.08 95.2523 193.4C95.5423 193.72 95.7623 194.1 95.9123 194.54C96.0623 194.97 96.1373 195.44 96.1373 195.95C96.1373 196.15 96.1273 196.34 96.1073 196.52C96.0873 196.7 96.0673 196.835 96.0473 196.925H91.0373C91.1173 197.485 91.3573 197.89 91.7573 198.14C92.1673 198.38 92.6473 198.5 93.1973 198.5C93.5373 198.5 93.8573 198.46 94.1573 198.38C94.4673 198.29 94.7873 198.16 95.1173 197.99L95.8373 199.31C95.4173 199.58 94.9473 199.795 94.4273 199.955C93.9073 200.105 93.3973 200.18 92.8973 200.18C92.3173 200.18 91.7773 200.095 91.2773 199.925C90.7773 199.745 90.3423 199.49 89.9723 199.16C89.6023 198.82 89.3073 198.41 89.0873 197.93C88.8773 197.45 88.7723 196.9 88.7723 196.28ZM94.1423 195.47C94.1423 195.05 94.0273 194.71 93.7973 194.45C93.5673 194.19 93.1973 194.06 92.6873 194.06C92.2873 194.06 91.9323 194.175 91.6223 194.405C91.3123 194.635 91.1073 194.99 91.0073 195.47H94.1423ZM97.6464 196.28C97.6464 195.67 97.7364 195.125 97.9164 194.645C98.0964 194.165 98.3314 193.76 98.6214 193.43C98.9214 193.09 99.2614 192.83 99.6414 192.65C100.021 192.47 100.416 192.38 100.826 192.38C101.256 192.38 101.616 192.455 101.906 192.605C102.196 192.745 102.471 192.935 102.731 193.175L102.656 192.02V189.485H104.861V200H103.061L102.896 199.235H102.851C102.571 199.505 102.251 199.73 101.891 199.91C101.531 200.09 101.161 200.18 100.781 200.18C100.311 200.18 99.8814 200.09 99.4914 199.91C99.1114 199.73 98.7814 199.475 98.5014 199.145C98.2314 198.805 98.0214 198.395 97.8714 197.915C97.7214 197.435 97.6464 196.89 97.6464 196.28ZM99.9114 196.25C99.9114 196.99 100.036 197.53 100.286 197.87C100.536 198.21 100.891 198.38 101.351 198.38C101.601 198.38 101.831 198.33 102.041 198.23C102.251 198.12 102.456 197.94 102.656 197.69V194.675C102.456 194.495 102.251 194.37 102.041 194.3C101.841 194.22 101.631 194.18 101.411 194.18C101.001 194.18 100.646 194.35 100.346 194.69C100.056 195.03 99.9114 195.55 99.9114 196.25Z" fill="#D55E00"/>
<rect x="79" width="149" height="31" fill="#333333"/>
<rect x="79" width="149" height="31" fill="#333333"/>
<rect width="79" height="31" fill="#090808"/>
<path d="M12.105 17.8101C12.105 17.5513 11.9756 17.3486 11.7168 17.2021C11.4629 17.0508 11.0527 16.9165 10.4863 16.7993C8.60156 16.4038 7.65918 15.603 7.65918 14.397C7.65918 13.6938 7.94971 13.1079 8.53076 12.6392C9.1167 12.1655 9.88086 11.9287 10.8232 11.9287C11.8291 11.9287 12.6323 12.1655 13.2329 12.6392C13.8384 13.1128 14.1411 13.728 14.1411 14.4849H12.0244C12.0244 14.1821 11.9268 13.9331 11.7314 13.7378C11.5361 13.5376 11.231 13.4375 10.8159 13.4375C10.4595 13.4375 10.1836 13.5181 9.98828 13.6792C9.79297 13.8403 9.69531 14.0454 9.69531 14.2944C9.69531 14.5288 9.80518 14.7192 10.0249 14.8657C10.2495 15.0073 10.6255 15.1318 11.1528 15.2393C11.6802 15.3418 12.1245 15.459 12.4858 15.5908C13.604 16.001 14.1631 16.7114 14.1631 17.7222C14.1631 18.4448 13.853 19.0308 13.2329 19.48C12.6128 19.9243 11.812 20.1465 10.8306 20.1465C10.1665 20.1465 9.57568 20.0293 9.05811 19.7949C8.54541 19.5557 8.14258 19.231 7.84961 18.8208C7.55664 18.4058 7.41016 17.959 7.41016 17.4805H9.41699C9.43652 17.8564 9.57568 18.1445 9.83447 18.3447C10.0933 18.5449 10.4399 18.645 10.8745 18.645C11.2798 18.645 11.585 18.5693 11.79 18.418C12 18.2617 12.105 18.0591 12.105 17.8101ZM18.8286 18.4399C19.2192 18.4399 19.5366 18.3325 19.7808 18.1177C20.0249 17.9028 20.1519 17.6172 20.1616 17.2607H22.1465C22.1416 17.7979 21.9951 18.291 21.707 18.7402C21.4189 19.1846 21.0234 19.5312 20.5205 19.7803C20.0225 20.0244 19.4707 20.1465 18.8652 20.1465C17.7324 20.1465 16.8389 19.7876 16.1846 19.0698C15.5303 18.3472 15.2031 17.3511 15.2031 16.0815V15.9424C15.2031 14.7217 15.5278 13.7476 16.1772 13.02C16.8267 12.2925 17.7178 11.9287 18.8506 11.9287C19.8418 11.9287 20.6353 12.2119 21.231 12.7783C21.8315 13.3398 22.1367 14.0894 22.1465 15.0269H20.1616C20.1519 14.6167 20.0249 14.2847 19.7808 14.0308C19.5366 13.772 19.2144 13.6426 18.814 13.6426C18.3208 13.6426 17.9473 13.8232 17.6934 14.1846C17.4443 14.541 17.3198 15.1221 17.3198 15.9277V16.1475C17.3198 16.9629 17.4443 17.5488 17.6934 17.9053C17.9424 18.2617 18.3208 18.4399 18.8286 18.4399ZM27.8081 14.0601C27.52 14.021 27.2661 14.0015 27.0464 14.0015C26.2456 14.0015 25.7207 14.2725 25.4717 14.8145V20H23.355V12.0752H25.3545L25.4131 13.02C25.8379 12.2925 26.4263 11.9287 27.1782 11.9287C27.4126 11.9287 27.6323 11.9604 27.8374 12.0239L27.8081 14.0601ZM31.0674 20H28.9434V12.0752H31.0674V20ZM28.8188 10.0244C28.8188 9.70703 28.9238 9.4458 29.1338 9.24072C29.3486 9.03564 29.6392 8.93311 30.0054 8.93311C30.3667 8.93311 30.6548 9.03564 30.8696 9.24072C31.0845 9.4458 31.1919 9.70703 31.1919 10.0244C31.1919 10.3467 31.082 10.6104 30.8623 10.8154C30.6475 11.0205 30.3618 11.123 30.0054 11.123C29.6489 11.123 29.3608 11.0205 29.1411 10.8154C28.9263 10.6104 28.8188 10.3467 28.8188 10.0244ZM39.9517 16.1108C39.9517 17.3315 39.6733 18.3105 39.1167 19.0479C38.5649 19.7803 37.8179 20.1465 36.8755 20.1465C36.0747 20.1465 35.4277 19.8682 34.9346 19.3115V23.0469H32.8179V12.0752H34.7808L34.854 12.8516C35.3667 12.2363 36.0356 11.9287 36.8608 11.9287C37.8374 11.9287 38.5967 12.29 39.1387 13.0127C39.6807 13.7354 39.9517 14.7314 39.9517 16.001V16.1108ZM37.835 15.957C37.835 15.2197 37.7031 14.6509 37.4395 14.2505C37.1807 13.8501 36.8022 13.6499 36.3042 13.6499C35.6401 13.6499 35.1836 13.9038 34.9346 14.4116V17.6562C35.1934 18.1787 35.6548 18.4399 36.3188 18.4399C37.3296 18.4399 37.835 17.6123 37.835 15.957ZM43.8042 10.127V12.0752H45.1592V13.6279H43.8042V17.583C43.8042 17.876 43.8604 18.0859 43.9727 18.2129C44.085 18.3398 44.2998 18.4033 44.6172 18.4033C44.8516 18.4033 45.0591 18.3862 45.2397 18.3521V19.9561C44.8247 20.083 44.3975 20.1465 43.958 20.1465C42.4736 20.1465 41.7168 19.397 41.6875 17.8979V13.6279H40.5303V12.0752H41.6875V10.127H43.8042ZM46.4482 18.96C46.4482 18.623 46.5605 18.3496 46.7852 18.1396C47.0146 17.9297 47.3003 17.8247 47.6421 17.8247C47.9888 17.8247 48.2744 17.9297 48.499 18.1396C48.7285 18.3496 48.8433 18.623 48.8433 18.96C48.8433 19.292 48.731 19.563 48.5063 19.7729C48.2817 19.978 47.9937 20.0806 47.6421 20.0806C47.2954 20.0806 47.0098 19.978 46.7852 19.7729C46.5605 19.563 46.4482 19.292 46.4482 18.96ZM57.8374 16.1108C57.8374 17.3315 57.5591 18.3105 57.0024 19.0479C56.4507 19.7803 55.7036 20.1465 54.7612 20.1465C53.9604 20.1465 53.3135 19.8682 52.8203 19.3115V23.0469H50.7036V12.0752H52.6665L52.7397 12.8516C53.2524 12.2363 53.9214 11.9287 54.7466 11.9287C55.7231 11.9287 56.4824 12.29 57.0244 13.0127C57.5664 13.7354 57.8374 14.7314 57.8374 16.001V16.1108ZM55.7207 15.957C55.7207 15.2197 55.5889 14.6509 55.3252 14.2505C55.0664 13.8501 54.688 13.6499 54.1899 13.6499C53.5259 13.6499 53.0693 13.9038 52.8203 14.4116V17.6562C53.0791 18.1787 53.5405 18.4399 54.2046 18.4399C55.2153 18.4399 55.7207 17.6123 55.7207 15.957ZM62.0269 17.0044L63.4917 12.0752H65.7622L62.5762 21.2305L62.4004 21.6479C61.9268 22.6831 61.1455 23.2007 60.0566 23.2007C59.749 23.2007 59.4365 23.1543 59.1191 23.0615V21.4575L59.4414 21.4648C59.8418 21.4648 60.1396 21.4038 60.335 21.2817C60.5352 21.1597 60.6914 20.957 60.8037 20.6738L61.0527 20.022L58.2769 12.0752H60.5547L62.0269 17.0044Z" fill="white"/>
<path d="M7.705 47.28C7.705 46.67 7.795 46.125 7.975 45.645C8.155 45.165 8.39 44.76 8.68 44.43C8.98 44.09 9.32 43.83 9.7 43.65C10.08 43.47 10.475 43.38 10.885 43.38C11.315 43.38 11.675 43.455 11.965 43.605C12.255 43.745 12.53 43.935 12.79 44.175L12.715 43.02V40.485H14.92V51H13.12L12.955 50.235H12.91C12.63 50.505 12.31 50.73 11.95 50.91C11.59 51.09 11.22 51.18 10.84 51.18C10.37 51.18 9.94 51.09 9.55 50.91C9.17 50.73 8.84 50.475 8.56 50.145C8.29 49.805 8.08 49.395 7.93 48.915C7.78 48.435 7.705 47.89 7.705 47.28ZM9.97 47.25C9.97 47.99 10.095 48.53 10.345 48.87C10.595 49.21 10.95 49.38 11.41 49.38C11.66 49.38 11.89 49.33 12.1 49.23C12.31 49.12 12.515 48.94 12.715 48.69V45.675C12.515 45.495 12.31 45.37 12.1 45.3C11.9 45.22 11.69 45.18 11.47 45.18C11.06 45.18 10.705 45.35 10.405 45.69C10.115 46.03 9.97 46.55 9.97 47.25ZM16.8191 47.28C16.8191 46.67 16.9241 46.125 17.1341 45.645C17.3541 45.165 17.6441 44.76 18.0041 44.43C18.3641 44.09 18.7741 43.83 19.2341 43.65C19.7041 43.47 20.1891 43.38 20.6891 43.38C21.2591 43.38 21.7641 43.47 22.2041 43.65C22.6441 43.83 23.0091 44.08 23.2991 44.4C23.5891 44.72 23.8091 45.1 23.9591 45.54C24.1091 45.97 24.1841 46.44 24.1841 46.95C24.1841 47.15 24.1741 47.34 24.1541 47.52C24.1341 47.7 24.1141 47.835 24.0941 47.925H19.0841C19.1641 48.485 19.4041 48.89 19.8041 49.14C20.2141 49.38 20.6941 49.5 21.2441 49.5C21.5841 49.5 21.9041 49.46 22.2041 49.38C22.5141 49.29 22.8341 49.16 23.1641 48.99L23.8841 50.31C23.4641 50.58 22.9941 50.795 22.4741 50.955C21.9541 51.105 21.4441 51.18 20.9441 51.18C20.3641 51.18 19.8241 51.095 19.3241 50.925C18.8241 50.745 18.3891 50.49 18.0191 50.16C17.6491 49.82 17.3541 49.41 17.1341 48.93C16.9241 48.45 16.8191 47.9 16.8191 47.28ZM22.1891 46.47C22.1891 46.05 22.0741 45.71 21.8441 45.45C21.6141 45.19 21.2441 45.06 20.7341 45.06C20.3341 45.06 19.9791 45.175 19.6691 45.405C19.3591 45.635 19.1541 45.99 19.0541 46.47H22.1891ZM33.3433 42.33C32.8533 42.14 32.3333 42.045 31.7833 42.045C31.3033 42.045 30.9483 42.15 30.7183 42.36C30.4983 42.57 30.3883 42.9 30.3883 43.35V43.56H32.9533V45.285H30.3883V51H28.1833V45.285H26.2183V43.65L28.1833 43.56V43.365C28.1833 42.935 28.2483 42.535 28.3783 42.165C28.5083 41.795 28.7083 41.475 28.9783 41.205C29.2483 40.925 29.5933 40.705 30.0133 40.545C30.4333 40.385 30.9333 40.305 31.5133 40.305C31.9433 40.305 32.3433 40.345 32.7133 40.425C33.0933 40.505 33.4433 40.6 33.7633 40.71L33.3433 42.33Z" fill="#E69F00"/>
<path d="M174.775 53.685C173.795 52.815 173.02 51.81 172.45 50.67C171.89 49.53 171.61 48.25 171.61 46.83C171.61 45.41 171.89 44.13 172.45 42.99C173.02 41.85 173.795 40.845 174.775 39.975L176.005 40.95C175.115 41.82 174.465 42.725 174.055 43.665C173.655 44.595 173.455 45.65 173.455 46.83C173.455 47.42 173.505 47.98 173.605 48.51C173.705 49.03 173.855 49.53 174.055 50.01C174.265 50.49 174.53 50.95 174.85 51.39C175.17 51.84 175.555 52.28 176.005 52.71L174.775 53.685ZM179.779 52.71C180.229 52.28 180.614 51.84 180.934 51.39C181.254 50.95 181.514 50.49 181.714 50.01C181.924 49.53 182.079 49.03 182.179 48.51C182.279 47.98 182.329 47.42 182.329 46.83C182.329 45.65 182.124 44.595 181.714 43.665C181.314 42.725 180.669 41.82 179.779 40.95L181.009 39.975C181.989 40.845 182.759 41.85 183.319 42.99C183.889 44.13 184.174 45.41 184.174 46.83C184.174 48.25 183.889 49.53 183.319 50.67C182.759 51.81 181.989 52.815 181.009 53.685L179.779 52.71ZM189.643 44.58C189.643 44.33 189.683 44.1 189.763 43.89C189.853 43.67 189.973 43.48 190.123 43.32C190.273 43.16 190.453 43.035 190.663 42.945C190.883 42.855 191.123 42.81 191.383 42.81C191.643 42.81 191.878 42.855 192.088 42.945C192.308 43.035 192.493 43.16 192.643 43.32C192.793 43.48 192.908 43.67 192.988 43.89C193.078 44.1 193.123 44.33 193.123 44.58C193.123 45.08 192.963 45.5 192.643 45.84C192.323 46.17 191.903 46.335 191.383 46.335C190.863 46.335 190.443 46.17 190.123 45.84C189.803 45.5 189.643 45.08 189.643 44.58ZM189.643 49.425C189.643 49.175 189.683 48.945 189.763 48.735C189.853 48.515 189.973 48.325 190.123 48.165C190.273 48.005 190.453 47.88 190.663 47.79C190.883 47.7 191.123 47.655 191.383 47.655C191.643 47.655 191.878 47.7 192.088 47.79C192.308 47.88 192.493 48.005 192.643 48.165C192.793 48.325 192.908 48.515 192.988 48.735C193.078 48.945 193.123 49.175 193.123 49.425C193.123 49.925 192.963 50.345 192.643 50.685C192.323 51.015 191.903 51.18 191.383 51.18C190.863 51.18 190.443 51.015 190.123 50.685C189.803 50.345 189.643 49.925 189.643 49.425ZM46.1116 66.13L43.6966 62.56H46.0666L46.8316 63.76C46.9416 63.97 47.0666 64.185 47.2066 64.405C47.3466 64.615 47.4816 64.825 47.6116 65.035H47.6716C47.7716 64.825 47.8716 64.61 47.9716 64.39C48.0816 64.17 48.1866 63.96 48.2866 63.76L48.9466 62.56H51.2566L48.8266 66.385L51.4066 70H49.0366L48.1816 68.77C48.0416 68.56 47.8966 68.345 47.7466 68.125C47.6066 67.905 47.4666 67.69 47.3266 67.48H47.2666C47.1566 67.69 47.0416 67.905 46.9216 68.125C46.8016 68.335 46.6866 68.55 46.5766 68.77L45.8416 70H43.5316L46.1116 66.13ZM62.0148 62.53H68.9148V64.09H62.0148V62.53ZM62.0148 65.995H68.9148V67.555H62.0148V65.995ZM90.7073 68.425C90.7073 68.175 90.7473 67.945 90.8273 67.735C90.9173 67.515 91.0373 67.325 91.1873 67.165C91.3373 67.005 91.5173 66.88 91.7273 66.79C91.9473 66.7 92.1873 66.655 92.4473 66.655C92.7073 66.655 92.9423 66.7 93.1523 66.79C93.3723 66.88 93.5573 67.005 93.7073 67.165C93.8573 67.325 93.9723 67.515 94.0523 67.735C94.1423 67.945 94.1873 68.175 94.1873 68.425C94.1873 68.925 94.0273 69.345 93.7073 69.685C93.3873 70.015 92.9673 70.18 92.4473 70.18C91.9273 70.18 91.5073 70.015 91.1873 69.685C90.8673 69.345 90.7073 68.925 90.7073 68.425ZM93.8273 90.685C92.8473 89.815 92.0723 88.81 91.5023 87.67C90.9423 86.53 90.6623 85.25 90.6623 83.83C90.6623 82.41 90.9423 81.13 91.5023 79.99C92.0723 78.85 92.8473 77.845 93.8273 76.975L95.0573 77.95C94.1673 78.82 93.5173 79.725 93.1073 80.665C92.7073 81.595 92.5073 82.65 92.5073 83.83C92.5073 84.42 92.5573 84.98 92.6573 85.51C92.7573 86.03 92.9073 86.53 93.1073 87.01C93.3173 87.49 93.5823 87.95 93.9023 88.39C94.2223 88.84 94.6073 89.28 95.0573 89.71L93.8273 90.685ZM100.076 84.13L97.6614 80.56H100.031L100.796 81.76C100.906 81.97 101.031 82.185 101.171 82.405C101.311 82.615 101.446 82.825 101.576 83.035H101.636C101.736 82.825 101.836 82.61 101.936 82.39C102.046 82.17 102.151 81.96 102.251 81.76L102.911 80.56H105.221L102.791 84.385L105.371 88H103.001L102.146 86.77C102.006 86.56 101.861 86.345 101.711 86.125C101.571 85.905 101.431 85.69 101.291 85.48H101.231C101.121 85.69 101.006 85.905 100.886 86.125C100.766 86.335 100.651 86.55 100.541 86.77L99.8064 88H97.4964L100.076 84.13ZM107.826 89.71C108.276 89.28 108.661 88.84 108.981 88.39C109.301 87.95 109.561 87.49 109.761 87.01C109.971 86.53 110.126 86.03 110.226 85.51C110.326 84.98 110.376 84.42 110.376 83.83C110.376 82.65 110.171 81.595 109.761 80.665C109.361 79.725 108.716 78.82 107.826 77.95L109.056 76.975C110.036 77.845 110.806 78.85 111.366 79.99C111.936 81.13 112.221 82.41 112.221 83.83C112.221 85.25 111.936 86.53 111.366 87.67C110.806 88.81 110.036 89.815 109.056 90.685L107.826 89.71ZM10.135 122.13L7.72 118.56H10.09L10.855 119.76C10.965 119.97 11.09 120.185 11.23 120.405C11.37 120.615 11.505 120.825 11.635 121.035H11.695C11.795 120.825 11.895 120.61 11.995 120.39C12.105 120.17 12.21 119.96 12.31 119.76L12.97 118.56H15.28L12.85 122.385L15.43 126H13.06L12.205 124.77C12.065 124.56 11.92 124.345 11.77 124.125C11.63 123.905 11.49 123.69 11.35 123.48H11.29C11.18 123.69 11.065 123.905 10.945 124.125C10.825 124.335 10.71 124.55 10.6 124.77L9.865 126H7.555L10.135 122.13Z" fill="white"/>
<path d="M46.2616 51.585V53.76H44.0566V43.56H45.8566L46.0216 44.31H46.0666C46.3666 44.04 46.7116 43.82 47.1016 43.65C47.4916 43.47 47.8866 43.38 48.2866 43.38C48.7466 43.38 49.1616 43.47 49.5316 43.65C49.9016 43.83 50.2166 44.085 50.4766 44.415C50.7366 44.745 50.9316 45.145 51.0616 45.615C51.2016 46.075 51.2716 46.59 51.2716 47.16C51.2716 47.8 51.1816 48.37 51.0016 48.87C50.8216 49.36 50.5816 49.78 50.2816 50.13C49.9816 50.47 49.6366 50.73 49.2466 50.91C48.8666 51.09 48.4666 51.18 48.0466 51.18C47.3666 51.18 46.7466 50.91 46.1866 50.37L46.2616 51.585ZM46.2616 48.885C46.4716 49.065 46.6866 49.195 46.9066 49.275C47.1366 49.345 47.3466 49.38 47.5366 49.38C47.9566 49.38 48.3066 49.21 48.5866 48.87C48.8666 48.52 49.0066 47.96 49.0066 47.19C49.0066 45.85 48.5516 45.18 47.6416 45.18C47.1716 45.18 46.7116 45.41 46.2616 45.87V48.885ZM53.7107 43.56H55.5107L55.6907 45.18H55.7357C56.1057 44.57 56.5507 44.12 57.0707 43.83C57.5907 43.53 58.1507 43.38 58.7507 43.38C59.0807 43.38 59.3457 43.405 59.5457 43.455C59.7557 43.505 59.9707 43.58 60.1907 43.68L59.7407 45.525C59.5107 45.455 59.3007 45.405 59.1107 45.375C58.9307 45.335 58.7007 45.315 58.4207 45.315C57.9607 45.315 57.5057 45.45 57.0557 45.72C56.6157 45.99 56.2357 46.46 55.9157 47.13V51H53.7107V43.56ZM62.1498 43.56H67.3398V51H65.1348V45.285H62.1498V43.56ZM66.1398 42.465C65.7098 42.465 65.3548 42.345 65.0748 42.105C64.8048 41.865 64.6698 41.54 64.6698 41.13C64.6698 40.72 64.8048 40.39 65.0748 40.14C65.3548 39.88 65.7098 39.75 66.1398 39.75C66.5698 39.75 66.9198 39.88 67.1898 40.14C67.4698 40.39 67.6098 40.72 67.6098 41.13C67.6098 41.54 67.4698 41.865 67.1898 42.105C66.9198 42.345 66.5698 42.465 66.1398 42.465ZM71.039 43.56H72.839L73.004 44.55H73.064C73.384 44.23 73.749 43.955 74.159 43.725C74.579 43.495 75.069 43.38 75.629 43.38C76.469 43.38 77.084 43.65 77.474 44.19C77.864 44.73 78.059 45.47 78.059 46.41V51H75.854V46.695C75.854 46.195 75.774 45.83 75.614 45.6C75.454 45.37 75.169 45.255 74.759 45.255C74.459 45.255 74.194 45.32 73.964 45.45C73.744 45.58 73.504 45.775 73.244 46.035V51H71.039V43.56ZM81.5631 45.285H79.6881V43.65L81.6681 43.56L81.9531 41.58H83.7681V43.56H86.9181V45.285H83.7681V47.895C83.7681 48.465 83.8931 48.87 84.1431 49.11C84.3931 49.34 84.7881 49.455 85.3281 49.455C85.6181 49.455 85.8831 49.43 86.1231 49.38C86.3631 49.33 86.5931 49.265 86.8131 49.185L87.2031 50.775C86.8731 50.875 86.5031 50.965 86.0931 51.045C85.6931 51.135 85.2531 51.18 84.7731 51.18C84.1831 51.18 83.6831 51.1 83.2731 50.94C82.8631 50.78 82.5281 50.56 82.2681 50.28C82.0181 49.99 81.8381 49.645 81.7281 49.245C81.6181 48.845 81.5631 48.4 81.5631 47.91V45.285ZM96.0473 51.81V53.46H88.8473V51.81H96.0473ZM97.9464 47.28C97.9464 46.66 98.0614 46.11 98.2914 45.63C98.5314 45.14 98.8464 44.73 99.2364 44.4C99.6364 44.07 100.096 43.82 100.616 43.65C101.136 43.47 101.681 43.38 102.251 43.38C102.841 43.38 103.371 43.475 103.841 43.665C104.321 43.855 104.721 44.095 105.041 44.385L104.021 45.75C103.471 45.36 102.921 45.165 102.371 45.165C101.731 45.165 101.211 45.355 100.811 45.735C100.411 46.115 100.211 46.63 100.211 47.28C100.211 47.93 100.401 48.445 100.781 48.825C101.171 49.205 101.676 49.395 102.296 49.395C102.686 49.395 103.046 49.325 103.376 49.185C103.706 49.045 104.001 48.88 104.261 48.69L105.161 50.085C104.711 50.465 104.211 50.745 103.661 50.925C103.121 51.095 102.596 51.18 102.086 51.18C101.496 51.18 100.951 51.095 100.451 50.925C99.9514 50.745 99.5114 50.49 99.1314 50.16C98.7614 49.83 98.4714 49.425 98.2614 48.945C98.0514 48.455 97.9464 47.9 97.9464 47.28ZM106.641 47.28C106.641 46.66 106.746 46.11 106.956 45.63C107.166 45.14 107.446 44.73 107.796 44.4C108.156 44.07 108.561 43.82 109.011 43.65C109.471 43.47 109.946 43.38 110.436 43.38C110.926 43.38 111.396 43.47 111.846 43.65C112.306 43.82 112.711 44.07 113.061 44.4C113.421 44.73 113.706 45.14 113.916 45.63C114.126 46.11 114.231 46.66 114.231 47.28C114.231 47.9 114.126 48.455 113.916 48.945C113.706 49.425 113.421 49.83 113.061 50.16C112.711 50.49 112.306 50.745 111.846 50.925C111.396 51.095 110.926 51.18 110.436 51.18C109.946 51.18 109.471 51.095 109.011 50.925C108.561 50.745 108.156 50.49 107.796 50.16C107.446 49.83 107.166 49.425 106.956 48.945C106.746 48.455 106.641 47.9 106.641 47.28ZM108.906 47.28C108.906 47.93 109.031 48.445 109.281 48.825C109.541 49.205 109.926 49.395 110.436 49.395C110.946 49.395 111.326 49.205 111.576 48.825C111.836 48.445 111.966 47.93 111.966 47.28C111.966 46.63 111.836 46.115 111.576 45.735C111.326 45.355 110.946 45.165 110.436 45.165C109.926 45.165 109.541 45.355 109.281 45.735C109.031 46.115 108.906 46.63 108.906 47.28ZM116.01 43.56H117.81L117.975 44.55H118.035C118.355 44.23 118.72 43.955 119.13 43.725C119.55 43.495 120.04 43.38 120.6 43.38C121.44 43.38 122.055 43.65 122.445 44.19C122.835 44.73 123.03 45.47 123.03 46.41V51H120.825V46.695C120.825 46.195 120.745 45.83 120.585 45.6C120.425 45.37 120.14 45.255 119.73 45.255C119.43 45.255 119.165 45.32 118.935 45.45C118.715 45.58 118.475 45.775 118.215 46.035V51H116.01V43.56ZM125.709 48.66C126.139 48.93 126.569 49.145 126.999 49.305C127.439 49.465 127.909 49.545 128.409 49.545C128.919 49.545 129.284 49.49 129.504 49.38C129.724 49.27 129.834 49.115 129.834 48.915C129.834 48.685 129.649 48.5 129.279 48.36C128.919 48.21 128.439 48.05 127.839 47.88C127.509 47.79 127.184 47.685 126.864 47.565C126.554 47.435 126.274 47.285 126.024 47.115C125.774 46.935 125.569 46.73 125.409 46.5C125.259 46.27 125.184 46.005 125.184 45.705C125.184 45.365 125.264 45.05 125.424 44.76C125.584 44.47 125.809 44.225 126.099 44.025C126.399 43.825 126.759 43.67 127.179 43.56C127.609 43.44 128.089 43.38 128.619 43.38C129.279 43.38 129.879 43.49 130.419 43.71C130.969 43.92 131.439 44.15 131.829 44.4L130.839 45.72C130.499 45.52 130.149 45.355 129.789 45.225C129.429 45.085 129.054 45.015 128.664 45.015C128.194 45.015 127.859 45.065 127.659 45.165C127.469 45.265 127.374 45.41 127.374 45.6C127.374 45.71 127.424 45.81 127.524 45.9C127.624 45.99 127.759 46.07 127.929 46.14C128.099 46.21 128.299 46.28 128.529 46.35C128.769 46.41 129.019 46.475 129.279 46.545C129.649 46.645 129.999 46.76 130.329 46.89C130.659 47.01 130.949 47.155 131.199 47.325C131.449 47.495 131.649 47.7 131.799 47.94C131.949 48.18 132.024 48.46 132.024 48.78C132.024 49.12 131.944 49.435 131.784 49.725C131.624 50.015 131.389 50.27 131.079 50.49C130.779 50.7 130.399 50.87 129.939 51C129.489 51.12 128.964 51.18 128.364 51.18C127.694 51.18 127.039 51.07 126.399 50.85C125.759 50.63 125.199 50.36 124.719 50.04L125.709 48.66ZM135.528 45.285H133.653V43.65L135.633 43.56L135.918 41.58H137.733V43.56H140.883V45.285H137.733V47.895C137.733 48.465 137.858 48.87 138.108 49.11C138.358 49.34 138.753 49.455 139.293 49.455C139.583 49.455 139.848 49.43 140.088 49.38C140.328 49.33 140.558 49.265 140.778 49.185L141.168 50.775C140.838 50.875 140.468 50.965 140.058 51.045C139.658 51.135 139.218 51.18 138.738 51.18C138.148 51.18 137.648 51.1 137.238 50.94C136.828 50.78 136.493 50.56 136.233 50.28C135.983 49.99 135.803 49.645 135.693 49.245C135.583 48.845 135.528 48.4 135.528 47.91V45.285ZM142.827 48.93C142.827 48.51 142.917 48.145 143.097 47.835C143.277 47.515 143.562 47.245 143.952 47.025C144.352 46.805 144.862 46.63 145.482 46.5C146.102 46.36 146.852 46.265 147.732 46.215C147.692 45.875 147.542 45.61 147.282 45.42C147.032 45.23 146.652 45.135 146.142 45.135C145.782 45.135 145.417 45.2 145.047 45.33C144.687 45.45 144.297 45.615 143.877 45.825L143.097 44.385C143.607 44.095 144.152 43.855 144.732 43.665C145.322 43.475 145.937 43.38 146.577 43.38C147.617 43.38 148.437 43.655 149.037 44.205C149.637 44.755 149.937 45.6 149.937 46.74V51H148.137L147.972 50.16H147.912C147.532 50.45 147.117 50.695 146.667 50.895C146.217 51.085 145.752 51.18 145.272 51.18C144.892 51.18 144.552 51.12 144.252 51C143.952 50.89 143.697 50.735 143.487 50.535C143.277 50.325 143.112 50.085 142.992 49.815C142.882 49.545 142.827 49.25 142.827 48.93ZM144.942 48.765C144.942 49.005 145.032 49.185 145.212 49.305C145.402 49.415 145.657 49.47 145.977 49.47C146.307 49.47 146.617 49.405 146.907 49.275C147.197 49.135 147.472 48.965 147.732 48.765V47.535C147.182 47.565 146.727 47.615 146.367 47.685C146.007 47.755 145.722 47.845 145.512 47.955C145.302 48.055 145.152 48.175 145.062 48.315C144.982 48.455 144.942 48.605 144.942 48.765ZM151.986 43.56H153.786L153.951 44.55H154.011C154.331 44.23 154.696 43.955 155.106 43.725C155.526 43.495 156.016 43.38 156.576 43.38C157.416 43.38 158.031 43.65 158.421 44.19C158.811 44.73 159.006 45.47 159.006 46.41V51H156.801V46.695C156.801 46.195 156.721 45.83 156.561 45.6C156.401 45.37 156.116 45.255 155.706 45.255C155.406 45.255 155.141 45.32 154.911 45.45C154.691 45.58 154.451 45.775 154.191 46.035V51H151.986V43.56ZM162.51 45.285H160.635V43.65L162.615 43.56L162.9 41.58H164.715V43.56H167.865V45.285H164.715V47.895C164.715 48.465 164.84 48.87 165.09 49.11C165.34 49.34 165.735 49.455 166.275 49.455C166.565 49.455 166.83 49.43 167.07 49.38C167.31 49.33 167.54 49.265 167.76 49.185L168.15 50.775C167.82 50.875 167.45 50.965 167.04 51.045C166.64 51.135 166.2 51.18 165.72 51.18C165.13 51.18 164.63 51.1 164.22 50.94C163.81 50.78 163.475 50.56 163.215 50.28C162.965 49.99 162.785 49.645 162.675 49.245C162.565 48.845 162.51 48.4 162.51 47.91V45.285ZM46.2616 88.585V90.76H44.0566V80.56H45.8566L46.0216 81.31H46.0666C46.3666 81.04 46.7116 80.82 47.1016 80.65C47.4916 80.47 47.8866 80.38 48.2866 80.38C48.7466 80.38 49.1616 80.47 49.5316 80.65C49.9016 80.83 50.2166 81.085 50.4766 81.415C50.7366 81.745 50.9316 82.145 51.0616 82.615C51.2016 83.075 51.2716 83.59 51.2716 84.16C51.2716 84.8 51.1816 85.37 51.0016 85.87C50.8216 86.36 50.5816 86.78 50.2816 87.13C49.9816 87.47 49.6366 87.73 49.2466 87.91C48.8666 88.09 48.4666 88.18 48.0466 88.18C47.3666 88.18 46.7466 87.91 46.1866 87.37L46.2616 88.585ZM46.2616 85.885C46.4716 86.065 46.6866 86.195 46.9066 86.275C47.1366 86.345 47.3466 86.38 47.5366 86.38C47.9566 86.38 48.3066 86.21 48.5866 85.87C48.8666 85.52 49.0066 84.96 49.0066 84.19C49.0066 82.85 48.5516 82.18 47.6416 82.18C47.1716 82.18 46.7116 82.41 46.2616 82.87V85.885ZM53.7107 80.56H55.5107L55.6907 82.18H55.7357C56.1057 81.57 56.5507 81.12 57.0707 80.83C57.5907 80.53 58.1507 80.38 58.7507 80.38C59.0807 80.38 59.3457 80.405 59.5457 80.455C59.7557 80.505 59.9707 80.58 60.1907 80.68L59.7407 82.525C59.5107 82.455 59.3007 82.405 59.1107 82.375C58.9307 82.335 58.7007 82.315 58.4207 82.315C57.9607 82.315 57.5057 82.45 57.0557 82.72C56.6157 82.99 56.2357 83.46 55.9157 84.13V88H53.7107V80.56ZM62.1498 80.56H67.3398V88H65.1348V82.285H62.1498V80.56ZM66.1398 79.465C65.7098 79.465 65.3548 79.345 65.0748 79.105C64.8048 78.865 64.6698 78.54 64.6698 78.13C64.6698 77.72 64.8048 77.39 65.0748 77.14C65.3548 76.88 65.7098 76.75 66.1398 76.75C66.5698 76.75 66.9198 76.88 67.1898 77.14C67.4698 77.39 67.6098 77.72 67.6098 78.13C67.6098 78.54 67.4698 78.865 67.1898 79.105C66.9198 79.345 66.5698 79.465 66.1398 79.465ZM71.039 80.56H72.839L73.004 81.55H73.064C73.384 81.23 73.749 80.955 74.159 80.725C74.579 80.495 75.069 80.38 75.629 80.38C76.469 80.38 77.084 80.65 77.474 81.19C77.864 81.73 78.059 82.47 78.059 83.41V88H75.854V83.695C75.854 83.195 75.774 82.83 75.614 82.6C75.454 82.37 75.169 82.255 74.759 82.255C74.459 82.255 74.194 82.32 73.964 82.45C73.744 82.58 73.504 82.775 73.244 83.035V88H71.039V80.56ZM81.5631 82.285H79.6881V80.65L81.6681 80.56L81.9531 78.58H83.7681V80.56H86.9181V82.285H83.7681V84.895C83.7681 85.465 83.8931 85.87 84.1431 86.11C84.3931 86.34 84.7881 86.455 85.3281 86.455C85.6181 86.455 85.8831 86.43 86.1231 86.38C86.3631 86.33 86.5931 86.265 86.8131 86.185L87.2031 87.775C86.8731 87.875 86.5031 87.965 86.0931 88.045C85.6931 88.135 85.2531 88.18 84.7731 88.18C84.1831 88.18 83.6831 88.1 83.2731 87.94C82.8631 87.78 82.5281 87.56 82.2681 87.28C82.0181 86.99 81.8381 86.645 81.7281 86.245C81.6181 85.845 81.5631 85.4 81.5631 84.91V82.285Z" fill="#56B4E9"/>
<path d="M80.6031 67.435C80.9231 67.715 81.2781 67.945 81.6681 68.125C82.0681 68.305 82.4881 68.395 82.9281 68.395C83.4481 68.395 83.8731 68.3 84.2031 68.11C84.5431 67.91 84.7131 67.63 84.7131 67.27C84.7131 67.06 84.6681 66.87 84.5781 66.7C84.4881 66.53 84.3331 66.39 84.1131 66.28C83.8931 66.16 83.5981 66.07 83.2281 66.01C82.8581 65.94 82.3931 65.905 81.8331 65.905V64.345C82.7731 64.345 83.4331 64.23 83.8131 64C84.2031 63.76 84.3981 63.45 84.3981 63.07C84.3981 62.74 84.2731 62.485 84.0231 62.305C83.7731 62.115 83.4281 62.02 82.9881 62.02C82.6081 62.02 82.2581 62.095 81.9381 62.245C81.6181 62.395 81.2931 62.6 80.9631 62.86L79.8531 61.51C80.3231 61.13 80.8231 60.835 81.3531 60.625C81.8931 60.405 82.4731 60.295 83.0931 60.295C83.6131 60.295 84.0881 60.355 84.5181 60.475C84.9481 60.585 85.3181 60.755 85.6281 60.985C85.9381 61.205 86.1781 61.475 86.3481 61.795C86.5181 62.115 86.6031 62.485 86.6031 62.905C86.6031 63.405 86.4431 63.83 86.1231 64.18C85.8031 64.52 85.3581 64.8 84.7881 65.02V65.08C85.3881 65.24 85.8931 65.515 86.3031 65.905C86.7131 66.285 86.9181 66.785 86.9181 67.405C86.9181 67.845 86.8131 68.24 86.6031 68.59C86.4031 68.93 86.1281 69.22 85.7781 69.46C85.4381 69.69 85.0381 69.87 84.5781 70C84.1181 70.12 83.6381 70.18 83.1381 70.18C82.3181 70.18 81.6131 70.06 81.0231 69.82C80.4331 69.57 79.9531 69.24 79.5831 68.83L80.6031 67.435ZM104.996 68.215V70H98.1714V68.215H100.631V62.71H98.6664V61.345C99.2264 61.245 99.7014 61.125 100.091 60.985C100.491 60.845 100.866 60.675 101.216 60.475H102.836V68.215H104.996ZM111.051 66.04V64.435C111.051 64.135 111.056 63.79 111.066 63.4C111.086 63 111.106 62.65 111.126 62.35H111.066C110.906 62.62 110.736 62.89 110.556 63.16C110.376 63.43 110.201 63.7 110.031 63.97L108.591 66.04H111.051ZM114.306 67.72H113.106V70H111.051V67.72H106.461V66.205L110.436 60.475H113.106V66.04H114.306V67.72Z" fill="#F0E442"/>
</svg>
