<svg width="565" height="232" viewBox="0 0 565 232" fill="none" xmlns="http://www.w3.org/2000/svg">
<rect width="565" height="232" fill="white"/>
<rect width="565" height="232" fill="black"/>
<path d="M0.87 13.74C1.55 13.17 2.17 12.64 2.73 12.15C3.29 11.65 3.77 11.185 4.17 10.755C4.57 10.325 4.88 9.92 5.1 9.54C5.32 9.16 5.43 8.8 5.43 8.46C5.43 7.99 5.295 7.635 5.025 7.395C4.755 7.145 4.37 7.02 3.87 7.02C3.49 7.02 3.14 7.12 2.82 7.32C2.51 7.51 2.22 7.735 1.95 7.995L0.765 6.81C1.015 6.56 1.26 6.34 1.5 6.15C1.75 5.96 2.01 5.805 2.28 5.685C2.56 5.555 2.85 5.46 3.15 5.4C3.46 5.33 3.8 5.295 4.17 5.295C4.67 5.295 5.125 5.37 5.535 5.52C5.945 5.66 6.295 5.865 6.585 6.135C6.885 6.395 7.115 6.71 7.275 7.08C7.445 7.45 7.53 7.865 7.53 8.325C7.53 8.725 7.435 9.135 7.245 9.555C7.055 9.965 6.795 10.38 6.465 10.8C6.145 11.21 5.775 11.625 5.355 12.045C4.935 12.455 4.495 12.86 4.035 13.26C4.305 13.23 4.595 13.205 4.905 13.185C5.225 13.155 5.51 13.14 5.76 13.14H8.025V15H0.87V13.74ZM10.6741 12.45C10.9941 12.71 11.3341 12.935 11.6941 13.125C12.0641 13.305 12.4741 13.395 12.9241 13.395C13.4641 13.395 13.9041 13.27 14.2441 13.02C14.5941 12.77 14.7691 12.4 14.7691 11.91C14.7691 11.43 14.6041 11.065 14.2741 10.815C13.9541 10.565 13.5391 10.44 13.0291 10.44C12.8691 10.44 12.7241 10.45 12.5941 10.47C12.4741 10.48 12.3541 10.505 12.2341 10.545C12.1141 10.585 11.9891 10.635 11.8591 10.695C11.7291 10.755 11.5841 10.83 11.4241 10.92L10.4491 10.29L10.7041 5.475H16.5391V7.335H12.6091L12.4441 9.12C12.6641 9.04 12.8691 8.985 13.0591 8.955C13.2491 8.915 13.4641 8.895 13.7041 8.895C14.1441 8.895 14.5591 8.955 14.9491 9.075C15.3491 9.195 15.6991 9.375 15.9991 9.615C16.2991 9.855 16.5341 10.16 16.7041 10.53C16.8841 10.9 16.9741 11.34 16.9741 11.85C16.9741 12.38 16.8691 12.85 16.6591 13.26C16.4591 13.67 16.1841 14.02 15.8341 14.31C15.4941 14.59 15.0991 14.805 14.6491 14.955C14.1991 15.105 13.7291 15.18 13.2391 15.18C12.4091 15.18 11.7041 15.055 11.1241 14.805C10.5541 14.545 10.0741 14.225 9.68414 13.845L10.6741 12.45ZM19.6383 12.435C19.9583 12.715 20.3133 12.945 20.7033 13.125C21.1033 13.305 21.5233 13.395 21.9633 13.395C22.4833 13.395 22.9083 13.3 23.2383 13.11C23.5783 12.91 23.7483 12.63 23.7483 12.27C23.7483 12.06 23.7033 11.87 23.6133 11.7C23.5233 11.53 23.3683 11.39 23.1483 11.28C22.9283 11.16 22.6333 11.07 22.2633 11.01C21.8933 10.94 21.4283 10.905 20.8683 10.905V9.345C21.8083 9.345 22.4683 9.23 22.8483 9C23.2383 8.76 23.4333 8.45 23.4333 8.07C23.4333 7.74 23.3083 7.485 23.0583 7.305C22.8083 7.115 22.4633 7.02 22.0233 7.02C21.6433 7.02 21.2933 7.095 20.9733 7.245C20.6533 7.395 20.3283 7.6 19.9983 7.86L18.8883 6.51C19.3583 6.13 19.8583 5.835 20.3883 5.625C20.9283 5.405 21.5083 5.295 22.1283 5.295C22.6483 5.295 23.1233 5.355 23.5533 5.475C23.9833 5.585 24.3533 5.755 24.6633 5.985C24.9733 6.205 25.2133 6.475 25.3833 6.795C25.5533 7.115 25.6383 7.485 25.6383 7.905C25.6383 8.405 25.4783 8.83 25.1583 9.18C24.8383 9.52 24.3933 9.8 23.8233 10.02V10.08C24.4233 10.24 24.9283 10.515 25.3383 10.905C25.7483 11.285 25.9533 11.785 25.9533 12.405C25.9533 12.845 25.8483 13.24 25.6383 13.59C25.4383 13.93 25.1633 14.22 24.8133 14.46C24.4733 14.69 24.0733 14.87 23.6133 15C23.1533 15.12 22.6733 15.18 22.1733 15.18C21.3533 15.18 20.6483 15.06 20.0583 14.82C19.4683 14.57 18.9883 14.24 18.6183 13.83L19.6383 12.435ZM29.8024 12.315C29.8024 12.735 29.9674 13.065 30.2974 13.305C30.6274 13.535 31.0374 13.65 31.5274 13.65C31.9774 13.65 32.3374 13.555 32.6074 13.365C32.8874 13.165 33.0274 12.865 33.0274 12.465C33.0274 12.245 32.9724 12.06 32.8624 11.91C32.7524 11.76 32.5924 11.625 32.3824 11.505C32.1824 11.375 31.9424 11.26 31.6624 11.16C31.3824 11.05 31.0724 10.93 30.7324 10.8C30.4624 11 30.2374 11.225 30.0574 11.475C29.8874 11.725 29.8024 12.005 29.8024 12.315ZM32.1274 9.45C32.6074 9.02 32.8474 8.555 32.8474 8.055C32.8474 7.685 32.7324 7.39 32.5024 7.17C32.2724 6.94 31.9374 6.825 31.4974 6.825C31.1474 6.825 30.8474 6.915 30.5974 7.095C30.3574 7.275 30.2374 7.55 30.2374 7.92C30.2374 8.31 30.4124 8.615 30.7624 8.835C31.1124 9.055 31.5674 9.26 32.1274 9.45ZM27.8974 12.57C27.8974 12.28 27.9424 12.02 28.0324 11.79C28.1324 11.55 28.2624 11.335 28.4224 11.145C28.5924 10.955 28.7824 10.785 28.9924 10.635C29.2124 10.485 29.4474 10.35 29.6974 10.23V10.17C29.2974 9.89 28.9624 9.575 28.6924 9.225C28.4324 8.865 28.3024 8.43 28.3024 7.92C28.3024 7.52 28.3824 7.16 28.5424 6.84C28.7024 6.51 28.9224 6.23 29.2024 6C29.4924 5.77 29.8374 5.595 30.2374 5.475C30.6374 5.355 31.0724 5.295 31.5424 5.295C32.0224 5.295 32.4524 5.36 32.8324 5.49C33.2224 5.61 33.5524 5.785 33.8224 6.015C34.0924 6.235 34.2974 6.51 34.4374 6.84C34.5874 7.16 34.6624 7.515 34.6624 7.905C34.6624 8.355 34.5274 8.755 34.2574 9.105C33.9974 9.455 33.6774 9.75 33.2974 9.99V10.05C33.5474 10.17 33.7824 10.31 34.0024 10.47C34.2224 10.62 34.4124 10.795 34.5724 10.995C34.7324 11.195 34.8574 11.425 34.9474 11.685C35.0374 11.935 35.0824 12.22 35.0824 12.54C35.0824 12.92 35.0024 13.27 34.8424 13.59C34.6824 13.91 34.4474 14.19 34.1374 14.43C33.8374 14.66 33.4624 14.845 33.0124 14.985C32.5624 15.115 32.0474 15.18 31.4674 15.18C30.9174 15.18 30.4224 15.12 29.9824 15C29.5424 14.87 29.1674 14.69 28.8574 14.46C28.5474 14.23 28.3074 13.955 28.1374 13.635C27.9774 13.315 27.8974 12.96 27.8974 12.57ZM37.6266 12.435C37.9466 12.715 38.3016 12.945 38.6916 13.125C39.0916 13.305 39.5116 13.395 39.9516 13.395C40.4716 13.395 40.8966 13.3 41.2266 13.11C41.5666 12.91 41.7366 12.63 41.7366 12.27C41.7366 12.06 41.6916 11.87 41.6016 11.7C41.5116 11.53 41.3566 11.39 41.1366 11.28C40.9166 11.16 40.6216 11.07 40.2516 11.01C39.8816 10.94 39.4166 10.905 38.8566 10.905V9.345C39.7966 9.345 40.4566 9.23 40.8366 9C41.2266 8.76 41.4216 8.45 41.4216 8.07C41.4216 7.74 41.2966 7.485 41.0466 7.305C40.7966 7.115 40.4516 7.02 40.0116 7.02C39.6316 7.02 39.2816 7.095 38.9616 7.245C38.6416 7.395 38.3166 7.6 37.9866 7.86L36.8766 6.51C37.3466 6.13 37.8466 5.835 38.3766 5.625C38.9166 5.405 39.4966 5.295 40.1166 5.295C40.6366 5.295 41.1116 5.355 41.5416 5.475C41.9716 5.585 42.3416 5.755 42.6516 5.985C42.9616 6.205 43.2016 6.475 43.3716 6.795C43.5416 7.115 43.6266 7.485 43.6266 7.905C43.6266 8.405 43.4666 8.83 43.1466 9.18C42.8266 9.52 42.3816 9.8 41.8116 10.02V10.08C42.4116 10.24 42.9166 10.515 43.3266 10.905C43.7366 11.285 43.9416 11.785 43.9416 12.405C43.9416 12.845 43.8366 13.24 43.6266 13.59C43.4266 13.93 43.1516 14.22 42.8016 14.46C42.4616 14.69 42.0616 14.87 41.6016 15C41.1416 15.12 40.6616 15.18 40.1616 15.18C39.3416 15.18 38.6366 15.06 38.0466 14.82C37.4566 14.57 36.9766 14.24 36.6066 13.83L37.6266 12.435ZM47.7307 13.425C47.7307 13.175 47.7707 12.945 47.8507 12.735C47.9407 12.515 48.0607 12.325 48.2107 12.165C48.3607 12.005 48.5407 11.88 48.7507 11.79C48.9707 11.7 49.2107 11.655 49.4707 11.655C49.7307 11.655 49.9657 11.7 50.1757 11.79C50.3957 11.88 50.5807 12.005 50.7307 12.165C50.8807 12.325 50.9957 12.515 51.0757 12.735C51.1657 12.945 51.2107 13.175 51.2107 13.425C51.2107 13.925 51.0507 14.345 50.7307 14.685C50.4107 15.015 49.9907 15.18 49.4707 15.18C48.9507 15.18 48.5307 15.015 48.2107 14.685C47.8907 14.345 47.7307 13.925 47.7307 13.425ZM55.6448 12.45C55.9648 12.71 56.3048 12.935 56.6648 13.125C57.0348 13.305 57.4448 13.395 57.8948 13.395C58.4348 13.395 58.8748 13.27 59.2148 13.02C59.5648 12.77 59.7398 12.4 59.7398 11.91C59.7398 11.43 59.5748 11.065 59.2448 10.815C58.9248 10.565 58.5098 10.44 57.9998 10.44C57.8398 10.44 57.6948 10.45 57.5648 10.47C57.4448 10.48 57.3248 10.505 57.2048 10.545C57.0848 10.585 56.9598 10.635 56.8298 10.695C56.6998 10.755 56.5548 10.83 56.3948 10.92L55.4198 10.29L55.6748 5.475H61.5098V7.335H57.5798L57.4148 9.12C57.6348 9.04 57.8398 8.985 58.0298 8.955C58.2198 8.915 58.4348 8.895 58.6748 8.895C59.1148 8.895 59.5298 8.955 59.9198 9.075C60.3198 9.195 60.6698 9.375 60.9698 9.615C61.2698 9.855 61.5048 10.16 61.6748 10.53C61.8548 10.9 61.9448 11.34 61.9448 11.85C61.9448 12.38 61.8398 12.85 61.6298 13.26C61.4298 13.67 61.1548 14.02 60.8048 14.31C60.4648 14.59 60.0698 14.805 59.6198 14.955C59.1698 15.105 58.6998 15.18 58.2098 15.18C57.3798 15.18 56.6748 15.055 56.0948 14.805C55.5248 14.545 55.0448 14.225 54.6548 13.845L55.6448 12.45Z" transform="translate(7.00037 197.588)" fill="white"/>
<path d="M4.5 15.18C3.92 15.18 3.385 15.065 2.895 14.835C2.415 14.595 2 14.255 1.65 13.815C1.31 13.375 1.045 12.84 0.855 12.21C0.665 11.58 0.57 10.865 0.57 10.065C0.57 9.265 0.665 8.555 0.855 7.935C1.045 7.305 1.31 6.78 1.65 6.36C2 5.93 2.415 5.605 2.895 5.385C3.385 5.155 3.92 5.04 4.5 5.04C5.08 5.04 5.61 5.155 6.09 5.385C6.58 5.605 6.995 5.93 7.335 6.36C7.685 6.79 7.955 7.32 8.145 7.95C8.335 8.57 8.43 9.275 8.43 10.065C8.43 10.865 8.335 11.58 8.145 12.21C7.955 12.84 7.685 13.375 7.335 13.815C6.995 14.255 6.58 14.595 6.09 14.835C5.61 15.065 5.08 15.18 4.5 15.18ZM4.5 13.275C5.01 13.275 5.415 12.99 5.715 12.42C6.015 11.84 6.165 11.055 6.165 10.065C6.165 9.085 6.015 8.32 5.715 7.77C5.415 7.22 5.01 6.945 4.5 6.945C3.99 6.945 3.585 7.22 3.285 7.77C2.985 8.32 2.835 9.085 2.835 10.065C2.835 11.055 2.985 11.84 3.285 12.42C3.585 12.99 3.99 13.275 4.5 13.275ZM16.8691 15H15.0691L14.9041 13.935H14.8441C14.5141 14.315 14.1491 14.62 13.7491 14.85C13.3491 15.07 12.8791 15.18 12.3391 15.18C11.4891 15.18 10.8741 14.91 10.4941 14.37C10.1141 13.83 9.92414 13.09 9.92414 12.15V7.56H12.1291V11.865C12.1291 12.365 12.2041 12.73 12.3541 12.96C12.5041 13.19 12.7891 13.305 13.2091 13.305C13.4891 13.305 13.7341 13.245 13.9441 13.125C14.1641 13.005 14.4041 12.78 14.6641 12.45V7.56H16.8691V15ZM20.5983 9.285H18.7233V7.65L20.7033 7.56L20.9883 5.58H22.8033V7.56H25.9533V9.285H22.8033V11.895C22.8033 12.465 22.9283 12.87 23.1783 13.11C23.4283 13.34 23.8233 13.455 24.3633 13.455C24.6533 13.455 24.9183 13.43 25.1583 13.38C25.3983 13.33 25.6283 13.265 25.8483 13.185L26.2383 14.775C25.9083 14.875 25.5383 14.965 25.1283 15.045C24.7283 15.135 24.2883 15.18 23.8083 15.18C23.2183 15.18 22.7183 15.1 22.3083 14.94C21.8983 14.78 21.5633 14.56 21.3033 14.28C21.0533 13.99 20.8733 13.645 20.7633 13.245C20.6533 12.845 20.5983 12.4 20.5983 11.91V9.285ZM30.2674 15.585V17.76H28.0624V7.56H29.8624L30.0274 8.31H30.0724C30.3724 8.04 30.7174 7.82 31.1074 7.65C31.4974 7.47 31.8924 7.38 32.2924 7.38C32.7524 7.38 33.1674 7.47 33.5374 7.65C33.9074 7.83 34.2224 8.085 34.4824 8.415C34.7424 8.745 34.9374 9.145 35.0674 9.615C35.2074 10.075 35.2774 10.59 35.2774 11.16C35.2774 11.8 35.1874 12.37 35.0074 12.87C34.8274 13.36 34.5874 13.78 34.2874 14.13C33.9874 14.47 33.6424 14.73 33.2524 14.91C32.8724 15.09 32.4724 15.18 32.0524 15.18C31.3724 15.18 30.7524 14.91 30.1924 14.37L30.2674 15.585ZM30.2674 12.885C30.4774 13.065 30.6924 13.195 30.9124 13.275C31.1424 13.345 31.3524 13.38 31.5424 13.38C31.9624 13.38 32.3124 13.21 32.5924 12.87C32.8724 12.52 33.0124 11.96 33.0124 11.19C33.0124 9.85 32.5574 9.18 31.6474 9.18C31.1774 9.18 30.7174 9.41 30.2674 9.87V12.885ZM43.8516 15H42.0516L41.8866 13.935H41.8266C41.4966 14.315 41.1316 14.62 40.7316 14.85C40.3316 15.07 39.8616 15.18 39.3216 15.18C38.4716 15.18 37.8566 14.91 37.4766 14.37C37.0966 13.83 36.9066 13.09 36.9066 12.15V7.56H39.1116V11.865C39.1116 12.365 39.1866 12.73 39.3366 12.96C39.4866 13.19 39.7716 13.305 40.1916 13.305C40.4716 13.305 40.7166 13.245 40.9266 13.125C41.1466 13.005 41.3866 12.78 41.6466 12.45V7.56H43.8516V15ZM47.5807 9.285H45.7057V7.65L47.6857 7.56L47.9707 5.58H49.7857V7.56H52.9357V9.285H49.7857V11.895C49.7857 12.465 49.9107 12.87 50.1607 13.11C50.4107 13.34 50.8057 13.455 51.3457 13.455C51.6357 13.455 51.9007 13.43 52.1407 13.38C52.3807 13.33 52.6107 13.265 52.8307 13.185L53.2207 14.775C52.8907 14.875 52.5207 14.965 52.1107 15.045C51.7107 15.135 51.2707 15.18 50.7907 15.18C50.2007 15.18 49.7007 15.1 49.2907 14.94C48.8807 14.78 48.5457 14.56 48.2857 14.28C48.0357 13.99 47.8557 13.645 47.7457 13.245C47.6357 12.845 47.5807 12.4 47.5807 11.91V9.285Z" transform="translate(7.00079 171.088)" fill="white"/>
<rect width="486" height="31" transform="translate(79)" fill="#333333"/>
<rect width="486" height="31" transform="translate(79)" fill="#333333"/>
<rect width="79" height="31" fill="#090808"/>
<path d="M5.10498 11.8101C5.10498 11.5513 4.97559 11.3486 4.7168 11.2021C4.46289 11.0508 4.05273 10.9165 3.48633 10.7993C1.60156 10.4038 0.65918 9.60303 0.65918 8.39697C0.65918 7.69385 0.949707 7.10791 1.53076 6.63916C2.1167 6.16553 2.88086 5.92871 3.82324 5.92871C4.8291 5.92871 5.63232 6.16553 6.23291 6.63916C6.83838 7.11279 7.14111 7.72803 7.14111 8.48486H5.02441C5.02441 8.18213 4.92676 7.93311 4.73145 7.73779C4.53613 7.5376 4.23096 7.4375 3.81592 7.4375C3.45947 7.4375 3.18359 7.51807 2.98828 7.6792C2.79297 7.84033 2.69531 8.04541 2.69531 8.29443C2.69531 8.52881 2.80518 8.71924 3.0249 8.86572C3.24951 9.00732 3.62549 9.13184 4.15283 9.23926C4.68018 9.3418 5.12451 9.45898 5.48584 9.59082C6.604 10.001 7.16309 10.7114 7.16309 11.7222C7.16309 12.4448 6.85303 13.0308 6.23291 13.48C5.61279 13.9243 4.81201 14.1465 3.83057 14.1465C3.1665 14.1465 2.57568 14.0293 2.05811 13.7949C1.54541 13.5557 1.14258 13.231 0.849609 12.8208C0.556641 12.4058 0.410156 11.959 0.410156 11.4805H2.41699C2.43652 11.8564 2.57568 12.1445 2.83447 12.3447C3.09326 12.5449 3.43994 12.645 3.87451 12.645C4.27979 12.645 4.58496 12.5693 4.79004 12.418C5 12.2617 5.10498 12.0591 5.10498 11.8101ZM11.8286 12.4399C12.2192 12.4399 12.5366 12.3325 12.7808 12.1177C13.0249 11.9028 13.1519 11.6172 13.1616 11.2607H15.1465C15.1416 11.7979 14.9951 12.291 14.707 12.7402C14.4189 13.1846 14.0234 13.5312 13.5205 13.7803C13.0225 14.0244 12.4707 14.1465 11.8652 14.1465C10.7324 14.1465 9.83887 13.7876 9.18457 13.0698C8.53027 12.3472 8.20312 11.3511 8.20312 10.0815V9.94238C8.20312 8.72168 8.52783 7.74756 9.17725 7.02002C9.82666 6.29248 10.7178 5.92871 11.8506 5.92871C12.8418 5.92871 13.6353 6.21191 14.231 6.77832C14.8315 7.33984 15.1367 8.08936 15.1465 9.02686H13.1616C13.1519 8.6167 13.0249 8.28467 12.7808 8.03076C12.5366 7.77197 12.2144 7.64258 11.814 7.64258C11.3208 7.64258 10.9473 7.82324 10.6934 8.18457C10.4443 8.54102 10.3198 9.12207 10.3198 9.92773V10.1475C10.3198 10.9629 10.4443 11.5488 10.6934 11.9053C10.9424 12.2617 11.3208 12.4399 11.8286 12.4399ZM20.8081 8.06006C20.52 8.021 20.2661 8.00146 20.0464 8.00146C19.2456 8.00146 18.7207 8.27246 18.4717 8.81445V14H16.355V6.0752H18.3545L18.4131 7.02002C18.8379 6.29248 19.4263 5.92871 20.1782 5.92871C20.4126 5.92871 20.6323 5.96045 20.8374 6.02393L20.8081 8.06006ZM24.0674 14H21.9434V6.0752H24.0674V14ZM21.8188 4.02441C21.8188 3.70703 21.9238 3.4458 22.1338 3.24072C22.3486 3.03564 22.6392 2.93311 23.0054 2.93311C23.3667 2.93311 23.6548 3.03564 23.8696 3.24072C24.0845 3.4458 24.1919 3.70703 24.1919 4.02441C24.1919 4.34668 24.082 4.61035 23.8623 4.81543C23.6475 5.02051 23.3618 5.12305 23.0054 5.12305C22.6489 5.12305 22.3608 5.02051 22.1411 4.81543C21.9263 4.61035 21.8188 4.34668 21.8188 4.02441ZM32.9517 10.1108C32.9517 11.3315 32.6733 12.3105 32.1167 13.0479C31.5649 13.7803 30.8179 14.1465 29.8755 14.1465C29.0747 14.1465 28.4277 13.8682 27.9346 13.3115V17.0469H25.8179V6.0752H27.7808L27.854 6.85156C28.3667 6.23633 29.0356 5.92871 29.8608 5.92871C30.8374 5.92871 31.5967 6.29004 32.1387 7.0127C32.6807 7.73535 32.9517 8.73145 32.9517 10.001V10.1108ZM30.835 9.95703C30.835 9.21973 30.7031 8.65088 30.4395 8.25049C30.1807 7.8501 29.8022 7.6499 29.3042 7.6499C28.6401 7.6499 28.1836 7.90381 27.9346 8.41162V11.6562C28.1934 12.1787 28.6548 12.4399 29.3188 12.4399C30.3296 12.4399 30.835 11.6123 30.835 9.95703ZM36.8042 4.12695V6.0752H38.1592V7.62793H36.8042V11.583C36.8042 11.876 36.8604 12.0859 36.9727 12.2129C37.085 12.3398 37.2998 12.4033 37.6172 12.4033C37.8516 12.4033 38.0591 12.3862 38.2397 12.3521V13.9561C37.8247 14.083 37.3975 14.1465 36.958 14.1465C35.4736 14.1465 34.7168 13.397 34.6875 11.8979V7.62793H33.5303V6.0752H34.6875V4.12695H36.8042ZM39.4482 12.96C39.4482 12.623 39.5605 12.3496 39.7852 12.1396C40.0146 11.9297 40.3003 11.8247 40.6421 11.8247C40.9888 11.8247 41.2744 11.9297 41.499 12.1396C41.7285 12.3496 41.8433 12.623 41.8433 12.96C41.8433 13.292 41.731 13.563 41.5063 13.7729C41.2817 13.978 40.9937 14.0806 40.6421 14.0806C40.2954 14.0806 40.0098 13.978 39.7852 13.7729C39.5605 13.563 39.4482 13.292 39.4482 12.96ZM50.8374 10.1108C50.8374 11.3315 50.5591 12.3105 50.0024 13.0479C49.4507 13.7803 48.7036 14.1465 47.7612 14.1465C46.9604 14.1465 46.3135 13.8682 45.8203 13.3115V17.0469H43.7036V6.0752H45.6665L45.7397 6.85156C46.2524 6.23633 46.9214 5.92871 47.7466 5.92871C48.7231 5.92871 49.4824 6.29004 50.0244 7.0127C50.5664 7.73535 50.8374 8.73145 50.8374 10.001V10.1108ZM48.7207 9.95703C48.7207 9.21973 48.5889 8.65088 48.3252 8.25049C48.0664 7.8501 47.688 7.6499 47.1899 7.6499C46.5259 7.6499 46.0693 7.90381 45.8203 8.41162V11.6562C46.0791 12.1787 46.5405 12.4399 47.2046 12.4399C48.2153 12.4399 48.7207 11.6123 48.7207 9.95703ZM55.0269 11.0044L56.4917 6.0752H58.7622L55.5762 15.2305L55.4004 15.6479C54.9268 16.6831 54.1455 17.2007 53.0566 17.2007C52.749 17.2007 52.4365 17.1543 52.1191 17.0615V15.4575L52.4414 15.4648C52.8418 15.4648 53.1396 15.4038 53.335 15.2817C53.5352 15.1597 53.6914 14.957 53.8037 14.6738L54.0527 14.022L51.2769 6.0752H53.5547L55.0269 11.0044Z" transform="translate(7 6)" fill="white"/>
<line y1="-0.5" x2="565" y2="-0.5" transform="translate(0 171)" stroke="white"/>
<path d="M1.74 7.56H3.54L3.72 9.18H3.765C4.135 8.57 4.58 8.12 5.1 7.83C5.62 7.53 6.18 7.38 6.78 7.38C7.11 7.38 7.375 7.405 7.575 7.455C7.785 7.505 8 7.58 8.22 7.68L7.77 9.525C7.54 9.455 7.33 9.405 7.14 9.375C6.96 9.335 6.73 9.315 6.45 9.315C5.99 9.315 5.535 9.45 5.085 9.72C4.645 9.99 4.265 10.46 3.945 11.13V15H1.74V7.56ZM9.90914 12.93C9.90914 12.51 9.99914 12.145 10.1791 11.835C10.3591 11.515 10.6441 11.245 11.0341 11.025C11.4341 10.805 11.9441 10.63 12.5641 10.5C13.1841 10.36 13.9341 10.265 14.8141 10.215C14.7741 9.875 14.6241 9.61 14.3641 9.42C14.1141 9.23 13.7341 9.135 13.2241 9.135C12.8641 9.135 12.4991 9.2 12.1291 9.33C11.7691 9.45 11.3791 9.615 10.9591 9.825L10.1791 8.385C10.6891 8.095 11.2341 7.855 11.8141 7.665C12.4041 7.475 13.0191 7.38 13.6591 7.38C14.6991 7.38 15.5191 7.655 16.1191 8.205C16.7191 8.755 17.0191 9.6 17.0191 10.74V15H15.2191L15.0541 14.16H14.9941C14.6141 14.45 14.1991 14.695 13.7491 14.895C13.2991 15.085 12.8341 15.18 12.3541 15.18C11.9741 15.18 11.6341 15.12 11.3341 15C11.0341 14.89 10.7791 14.735 10.5691 14.535C10.3591 14.325 10.1941 14.085 10.0741 13.815C9.96414 13.545 9.90914 13.25 9.90914 12.93ZM12.0241 12.765C12.0241 13.005 12.1141 13.185 12.2941 13.305C12.4841 13.415 12.7391 13.47 13.0591 13.47C13.3891 13.47 13.6991 13.405 13.9891 13.275C14.2791 13.135 14.5541 12.965 14.8141 12.765V11.535C14.2641 11.565 13.8091 11.615 13.4491 11.685C13.0891 11.755 12.8041 11.845 12.5941 11.955C12.3841 12.055 12.2341 12.175 12.1441 12.315C12.0641 12.455 12.0241 12.605 12.0241 12.765ZM20.5983 9.285H18.7233V7.65L20.7033 7.56L20.9883 5.58H22.8033V7.56H25.9533V9.285H22.8033V11.895C22.8033 12.465 22.9283 12.87 23.1783 13.11C23.4283 13.34 23.8233 13.455 24.3633 13.455C24.6533 13.455 24.9183 13.43 25.1583 13.38C25.3983 13.33 25.6283 13.265 25.8483 13.185L26.2383 14.775C25.9083 14.875 25.5383 14.965 25.1283 15.045C24.7283 15.135 24.2883 15.18 23.8083 15.18C23.2183 15.18 22.7183 15.1 22.3083 14.94C21.8983 14.78 21.5633 14.56 21.3033 14.28C21.0533 13.99 20.8733 13.645 20.7633 13.245C20.6533 12.845 20.5983 12.4 20.5983 11.91V9.285ZM28.1674 7.56H33.3574V15H31.1524V9.285H28.1674V7.56ZM32.1574 6.465C31.7274 6.465 31.3724 6.345 31.0924 6.105C30.8224 5.865 30.6874 5.54 30.6874 5.13C30.6874 4.72 30.8224 4.39 31.0924 4.14C31.3724 3.88 31.7274 3.75 32.1574 3.75C32.5874 3.75 32.9374 3.88 33.2074 4.14C33.4874 4.39 33.6274 4.72 33.6274 5.13C33.6274 5.54 33.4874 5.865 33.2074 6.105C32.9374 6.345 32.5874 6.465 32.1574 6.465ZM37.0566 7.56H38.8566L39.0216 8.55H39.0816C39.4016 8.23 39.7666 7.955 40.1766 7.725C40.5966 7.495 41.0866 7.38 41.6466 7.38C42.4866 7.38 43.1016 7.65 43.4916 8.19C43.8816 8.73 44.0766 9.47 44.0766 10.41V15H41.8716V10.695C41.8716 10.195 41.7916 9.83 41.6316 9.6C41.4716 9.37 41.1866 9.255 40.7766 9.255C40.4766 9.255 40.2116 9.32 39.9816 9.45C39.7616 9.58 39.5216 9.775 39.2616 10.035V15H37.0566V7.56ZM47.5507 15.93C47.5507 16.21 47.7157 16.42 48.0457 16.56C48.3857 16.71 48.8507 16.785 49.4407 16.785C50.0407 16.785 50.5257 16.695 50.8957 16.515C51.2657 16.345 51.4507 16.13 51.4507 15.87C51.4507 15.63 51.3407 15.47 51.1207 15.39C50.9007 15.32 50.5757 15.285 50.1457 15.285H49.2157C48.9457 15.285 48.7207 15.275 48.5407 15.255C48.3707 15.245 48.2157 15.225 48.0757 15.195C47.8857 15.315 47.7507 15.43 47.6707 15.54C47.5907 15.66 47.5507 15.79 47.5507 15.93ZM45.7507 16.26C45.7507 15.65 46.1357 15.155 46.9057 14.775V14.715C46.7057 14.585 46.5307 14.42 46.3807 14.22C46.2307 14.02 46.1557 13.76 46.1557 13.44C46.1557 13.19 46.2357 12.94 46.3957 12.69C46.5657 12.44 46.7807 12.225 47.0407 12.045V11.985C46.7707 11.805 46.5407 11.555 46.3507 11.235C46.1607 10.905 46.0657 10.52 46.0657 10.08C46.0657 9.63 46.1507 9.24 46.3207 8.91C46.5007 8.57 46.7357 8.29 47.0257 8.07C47.3157 7.84 47.6507 7.67 48.0307 7.56C48.4207 7.44 48.8257 7.38 49.2457 7.38C49.7057 7.38 50.1157 7.44 50.4757 7.56H53.4907V9.165H51.9757C52.0657 9.275 52.1457 9.42 52.2157 9.6C52.2857 9.77 52.3207 9.955 52.3207 10.155C52.3207 10.585 52.2407 10.955 52.0807 11.265C51.9207 11.575 51.7007 11.835 51.4207 12.045C51.1507 12.245 50.8257 12.395 50.4457 12.495C50.0757 12.595 49.6757 12.645 49.2457 12.645C48.9257 12.645 48.5857 12.595 48.2257 12.495C48.1157 12.575 48.0307 12.655 47.9707 12.735C47.9207 12.815 47.8957 12.915 47.8957 13.035C47.8957 13.235 47.9957 13.38 48.1957 13.47C48.3957 13.56 48.7157 13.605 49.1557 13.605H50.5357C51.5157 13.605 52.2607 13.75 52.7707 14.04C53.2907 14.33 53.5507 14.81 53.5507 15.48C53.5507 15.87 53.4457 16.23 53.2357 16.56C53.0257 16.89 52.7307 17.17 52.3507 17.4C51.9707 17.64 51.5057 17.825 50.9557 17.955C50.4057 18.095 49.7957 18.165 49.1257 18.165C48.6457 18.165 48.1957 18.125 47.7757 18.045C47.3657 17.975 47.0107 17.86 46.7107 17.7C46.4107 17.55 46.1757 17.355 46.0057 17.115C45.8357 16.875 45.7507 16.59 45.7507 16.26ZM49.2457 11.31C49.5557 11.31 49.8207 11.21 50.0407 11.01C50.2707 10.8 50.3857 10.49 50.3857 10.08C50.3857 9.68 50.2707 9.38 50.0407 9.18C49.8207 8.97 49.5557 8.865 49.2457 8.865C48.9357 8.865 48.6707 8.97 48.4507 9.18C48.2407 9.38 48.1357 9.68 48.1357 10.08C48.1357 10.49 48.2407 10.8 48.4507 11.01C48.6707 11.21 48.9357 11.31 49.2457 11.31ZM62.0648 15.81V17.46H54.8648V15.81H62.0648ZM64.744 12.66C65.174 12.93 65.604 13.145 66.034 13.305C66.474 13.465 66.944 13.545 67.444 13.545C67.954 13.545 68.319 13.49 68.539 13.38C68.759 13.27 68.869 13.115 68.869 12.915C68.869 12.685 68.684 12.5 68.314 12.36C67.954 12.21 67.474 12.05 66.874 11.88C66.544 11.79 66.219 11.685 65.899 11.565C65.589 11.435 65.309 11.285 65.059 11.115C64.809 10.935 64.604 10.73 64.444 10.5C64.294 10.27 64.219 10.005 64.219 9.705C64.219 9.365 64.299 9.05 64.459 8.76C64.619 8.47 64.844 8.225 65.134 8.025C65.434 7.825 65.794 7.67 66.214 7.56C66.644 7.44 67.124 7.38 67.654 7.38C68.314 7.38 68.914 7.49 69.454 7.71C70.004 7.92 70.474 8.15 70.864 8.4L69.874 9.72C69.534 9.52 69.184 9.355 68.824 9.225C68.464 9.085 68.089 9.015 67.699 9.015C67.229 9.015 66.894 9.065 66.694 9.165C66.504 9.265 66.409 9.41 66.409 9.6C66.409 9.71 66.459 9.81 66.559 9.9C66.659 9.99 66.794 10.07 66.964 10.14C67.134 10.21 67.334 10.28 67.564 10.35C67.804 10.41 68.054 10.475 68.314 10.545C68.684 10.645 69.034 10.76 69.364 10.89C69.694 11.01 69.984 11.155 70.234 11.325C70.484 11.495 70.684 11.7 70.834 11.94C70.984 12.18 71.059 12.46 71.059 12.78C71.059 13.12 70.979 13.435 70.819 13.725C70.659 14.015 70.424 14.27 70.114 14.49C69.814 14.7 69.434 14.87 68.974 15C68.524 15.12 67.999 15.18 67.399 15.18C66.729 15.18 66.074 15.07 65.434 14.85C64.794 14.63 64.234 14.36 63.754 14.04L64.744 12.66ZM79.8281 15H78.0281L77.8631 13.935H77.8031C77.4731 14.315 77.1081 14.62 76.7081 14.85C76.3081 15.07 75.8381 15.18 75.2981 15.18C74.4481 15.18 73.8331 14.91 73.4531 14.37C73.0731 13.83 72.8831 13.09 72.8831 12.15V7.56H75.0881V11.865C75.0881 12.365 75.1631 12.73 75.3131 12.96C75.4631 13.19 75.7481 13.305 76.1681 13.305C76.4481 13.305 76.6931 13.245 76.9031 13.125C77.1231 13.005 77.3631 12.78 77.6231 12.45V7.56H79.8281V15ZM81.4873 7.56H83.1373L83.3023 8.49H83.3623C83.5023 8.18 83.6923 7.92 83.9323 7.71C84.1823 7.49 84.5223 7.38 84.9523 7.38C85.2823 7.38 85.5573 7.485 85.7773 7.695C86.0073 7.895 86.1673 8.195 86.2573 8.595C86.3973 8.255 86.5973 7.97 86.8573 7.74C87.1273 7.5 87.4723 7.38 87.8923 7.38C88.4123 7.38 88.8173 7.595 89.1073 8.025C89.3973 8.445 89.5423 9.03 89.5423 9.78V15H87.4723V9.945C87.4723 9.485 87.3323 9.255 87.0523 9.255C86.7823 9.255 86.5523 9.495 86.3623 9.975V15H84.6673V9.945C84.6673 9.485 84.5223 9.255 84.2323 9.255C84.0923 9.255 83.9723 9.315 83.8723 9.435C83.7723 9.555 83.6673 9.735 83.5573 9.975V15H81.4873V7.56ZM99.9855 7.53H106.886V9.09H99.9855V7.53ZM99.9855 10.995H106.886V12.555H99.9855V10.995ZM37.7166 26.56H39.5166L39.6966 28.18H39.7416C40.1116 27.57 40.5566 27.12 41.0766 26.83C41.5966 26.53 42.1566 26.38 42.7566 26.38C43.0866 26.38 43.3516 26.405 43.5516 26.455C43.7616 26.505 43.9766 26.58 44.1966 26.68L43.7466 28.525C43.5166 28.455 43.3066 28.405 43.1166 28.375C42.9366 28.335 42.7066 28.315 42.4266 28.315C41.9666 28.315 41.5116 28.45 41.0616 28.72C40.6216 28.99 40.2416 29.46 39.9216 30.13V34H37.7166V26.56ZM45.6757 30.28C45.6757 29.66 45.7807 29.11 45.9907 28.63C46.2007 28.14 46.4807 27.73 46.8307 27.4C47.1907 27.07 47.5957 26.82 48.0457 26.65C48.5057 26.47 48.9807 26.38 49.4707 26.38C49.9607 26.38 50.4307 26.47 50.8807 26.65C51.3407 26.82 51.7457 27.07 52.0957 27.4C52.4557 27.73 52.7407 28.14 52.9507 28.63C53.1607 29.11 53.2657 29.66 53.2657 30.28C53.2657 30.9 53.1607 31.455 52.9507 31.945C52.7407 32.425 52.4557 32.83 52.0957 33.16C51.7457 33.49 51.3407 33.745 50.8807 33.925C50.4307 34.095 49.9607 34.18 49.4707 34.18C48.9807 34.18 48.5057 34.095 48.0457 33.925C47.5957 33.745 47.1907 33.49 46.8307 33.16C46.4807 32.83 46.2007 32.425 45.9907 31.945C45.7807 31.455 45.6757 30.9 45.6757 30.28ZM47.9407 30.28C47.9407 30.93 48.0657 31.445 48.3157 31.825C48.5757 32.205 48.9607 32.395 49.4707 32.395C49.9807 32.395 50.3607 32.205 50.6107 31.825C50.8707 31.445 51.0007 30.93 51.0007 30.28C51.0007 29.63 50.8707 29.115 50.6107 28.735C50.3607 28.355 49.9807 28.165 49.4707 28.165C48.9607 28.165 48.5757 28.355 48.3157 28.735C48.0657 29.115 47.9407 29.63 47.9407 30.28ZM54.0248 26.56H56.1848L56.6348 30.01C56.6848 30.38 56.7248 30.745 56.7548 31.105C56.7948 31.465 56.8398 31.835 56.8898 32.215H56.9348C56.9848 31.835 57.0348 31.46 57.0848 31.09C57.1348 30.72 57.1998 30.36 57.2798 30.01L57.7448 27.55H59.2898L59.7848 30.01C59.8548 30.38 59.9198 30.745 59.9798 31.105C60.0398 31.465 60.0948 31.835 60.1448 32.215H60.2048C60.2548 31.835 60.2948 31.465 60.3248 31.105C60.3548 30.745 60.3948 30.38 60.4448 30.01L60.8948 26.56H62.9048L61.7498 34H59.1998L58.7798 31.525C58.7298 31.175 58.6798 30.825 58.6298 30.475C58.5898 30.115 58.5448 29.735 58.4948 29.335H58.4348C58.4048 29.605 58.3698 29.91 58.3298 30.25C58.2998 30.59 58.2448 31.015 58.1648 31.525L57.7598 34H55.2548L54.0248 26.56ZM99.8505 31.93C99.8505 31.51 99.9405 31.145 100.121 30.835C100.301 30.515 100.586 30.245 100.976 30.025C101.376 29.805 101.886 29.63 102.506 29.5C103.126 29.36 103.876 29.265 104.756 29.215C104.716 28.875 104.566 28.61 104.306 28.42C104.056 28.23 103.676 28.135 103.166 28.135C102.806 28.135 102.441 28.2 102.071 28.33C101.711 28.45 101.321 28.615 100.901 28.825L100.121 27.385C100.631 27.095 101.176 26.855 101.756 26.665C102.346 26.475 102.961 26.38 103.601 26.38C104.641 26.38 105.461 26.655 106.061 27.205C106.661 27.755 106.961 28.6 106.961 29.74V34H105.161L104.996 33.16H104.936C104.556 33.45 104.141 33.695 103.691 33.895C103.241 34.085 102.776 34.18 102.296 34.18C101.916 34.18 101.576 34.12 101.276 34C100.976 33.89 100.721 33.735 100.511 33.535C100.301 33.325 100.136 33.085 100.016 32.815C99.9055 32.545 99.8505 32.25 99.8505 31.93ZM101.966 31.765C101.966 32.005 102.056 32.185 102.236 32.305C102.426 32.415 102.681 32.47 103.001 32.47C103.331 32.47 103.641 32.405 103.931 32.275C104.221 32.135 104.496 31.965 104.756 31.765V30.535C104.206 30.565 103.751 30.615 103.391 30.685C103.031 30.755 102.746 30.845 102.536 30.955C102.326 31.055 102.176 31.175 102.086 31.315C102.006 31.455 101.966 31.605 101.966 31.765ZM111.215 34.585V36.76H109.01V26.56H110.81L110.975 27.31H111.02C111.32 27.04 111.665 26.82 112.055 26.65C112.445 26.47 112.84 26.38 113.24 26.38C113.7 26.38 114.115 26.47 114.485 26.65C114.855 26.83 115.17 27.085 115.43 27.415C115.69 27.745 115.885 28.145 116.015 28.615C116.155 29.075 116.225 29.59 116.225 30.16C116.225 30.8 116.135 31.37 115.955 31.87C115.775 32.36 115.535 32.78 115.235 33.13C114.935 33.47 114.59 33.73 114.2 33.91C113.82 34.09 113.42 34.18 113 34.18C112.32 34.18 111.7 33.91 111.14 33.37L111.215 34.585ZM111.215 31.885C111.425 32.065 111.64 32.195 111.86 32.275C112.09 32.345 112.3 32.38 112.49 32.38C112.91 32.38 113.26 32.21 113.54 31.87C113.82 31.52 113.96 30.96 113.96 30.19C113.96 28.85 113.505 28.18 112.595 28.18C112.125 28.18 111.665 28.41 111.215 28.87V31.885ZM120.209 34.585V36.76H118.004V26.56H119.804L119.969 27.31H120.014C120.314 27.04 120.659 26.82 121.049 26.65C121.439 26.47 121.834 26.38 122.234 26.38C122.694 26.38 123.109 26.47 123.479 26.65C123.849 26.83 124.164 27.085 124.424 27.415C124.684 27.745 124.879 28.145 125.009 28.615C125.149 29.075 125.219 29.59 125.219 30.16C125.219 30.8 125.129 31.37 124.949 31.87C124.769 32.36 124.529 32.78 124.229 33.13C123.929 33.47 123.584 33.73 123.194 33.91C122.814 34.09 122.414 34.18 121.994 34.18C121.314 34.18 120.694 33.91 120.134 33.37L120.209 34.585ZM120.209 31.885C120.419 32.065 120.634 32.195 120.854 32.275C121.084 32.345 121.294 32.38 121.484 32.38C121.904 32.38 122.254 32.21 122.534 31.87C122.814 31.52 122.954 30.96 122.954 30.19C122.954 28.85 122.499 28.18 121.589 28.18C121.119 28.18 120.659 28.41 120.209 28.87V31.885ZM127.703 31.66C128.133 31.93 128.563 32.145 128.993 32.305C129.433 32.465 129.903 32.545 130.403 32.545C130.913 32.545 131.278 32.49 131.498 32.38C131.718 32.27 131.828 32.115 131.828 31.915C131.828 31.685 131.643 31.5 131.273 31.36C130.913 31.21 130.433 31.05 129.833 30.88C129.503 30.79 129.178 30.685 128.858 30.565C128.548 30.435 128.268 30.285 128.018 30.115C127.768 29.935 127.563 29.73 127.403 29.5C127.253 29.27 127.178 29.005 127.178 28.705C127.178 28.365 127.258 28.05 127.418 27.76C127.578 27.47 127.803 27.225 128.093 27.025C128.393 26.825 128.753 26.67 129.173 26.56C129.603 26.44 130.083 26.38 130.613 26.38C131.273 26.38 131.873 26.49 132.413 26.71C132.963 26.92 133.433 27.15 133.823 27.4L132.833 28.72C132.493 28.52 132.143 28.355 131.783 28.225C131.423 28.085 131.048 28.015 130.658 28.015C130.188 28.015 129.853 28.065 129.653 28.165C129.463 28.265 129.368 28.41 129.368 28.6C129.368 28.71 129.418 28.81 129.518 28.9C129.618 28.99 129.753 29.07 129.923 29.14C130.093 29.21 130.293 29.28 130.523 29.35C130.763 29.41 131.013 29.475 131.273 29.545C131.643 29.645 131.993 29.76 132.323 29.89C132.653 30.01 132.943 30.155 133.193 30.325C133.443 30.495 133.643 30.7 133.793 30.94C133.943 31.18 134.018 31.46 134.018 31.78C134.018 32.12 133.938 32.435 133.778 32.725C133.618 33.015 133.383 33.27 133.073 33.49C132.773 33.7 132.393 33.87 131.933 34C131.483 34.12 130.958 34.18 130.358 34.18C129.688 34.18 129.033 34.07 128.393 33.85C127.753 33.63 127.193 33.36 126.713 33.04L127.703 31.66ZM143.012 34.81V36.46H135.812V34.81H143.012ZM144.611 30.28C144.611 29.67 144.701 29.125 144.881 28.645C145.061 28.165 145.296 27.76 145.586 27.43C145.886 27.09 146.226 26.83 146.606 26.65C146.986 26.47 147.381 26.38 147.791 26.38C148.221 26.38 148.581 26.455 148.871 26.605C149.161 26.745 149.436 26.935 149.696 27.175L149.621 26.02V23.485H151.826V34H150.026L149.861 33.235H149.816C149.536 33.505 149.216 33.73 148.856 33.91C148.496 34.09 148.126 34.18 147.746 34.18C147.276 34.18 146.846 34.09 146.456 33.91C146.076 33.73 145.746 33.475 145.466 33.145C145.196 32.805 144.986 32.395 144.836 31.915C144.686 31.435 144.611 30.89 144.611 30.28ZM146.876 30.25C146.876 30.99 147.001 31.53 147.251 31.87C147.501 32.21 147.856 32.38 148.316 32.38C148.566 32.38 148.796 32.33 149.006 32.23C149.216 32.12 149.421 31.94 149.621 31.69V28.675C149.421 28.495 149.216 28.37 149.006 28.3C148.806 28.22 148.596 28.18 148.376 28.18C147.966 28.18 147.611 28.35 147.311 28.69C147.021 29.03 146.876 29.55 146.876 30.25ZM153.815 31.93C153.815 31.51 153.905 31.145 154.085 30.835C154.265 30.515 154.55 30.245 154.94 30.025C155.34 29.805 155.85 29.63 156.47 29.5C157.09 29.36 157.84 29.265 158.72 29.215C158.68 28.875 158.53 28.61 158.27 28.42C158.02 28.23 157.64 28.135 157.13 28.135C156.77 28.135 156.405 28.2 156.035 28.33C155.675 28.45 155.285 28.615 154.865 28.825L154.085 27.385C154.595 27.095 155.14 26.855 155.72 26.665C156.31 26.475 156.925 26.38 157.565 26.38C158.605 26.38 159.425 26.655 160.025 27.205C160.625 27.755 160.925 28.6 160.925 29.74V34H159.125L158.96 33.16H158.9C158.52 33.45 158.105 33.695 157.655 33.895C157.205 34.085 156.74 34.18 156.26 34.18C155.88 34.18 155.54 34.12 155.24 34C154.94 33.89 154.685 33.735 154.475 33.535C154.265 33.325 154.1 33.085 153.98 32.815C153.87 32.545 153.815 32.25 153.815 31.93ZM155.93 31.765C155.93 32.005 156.02 32.185 156.2 32.305C156.39 32.415 156.645 32.47 156.965 32.47C157.295 32.47 157.605 32.405 157.895 32.275C158.185 32.135 158.46 31.965 158.72 31.765V30.535C158.17 30.565 157.715 30.615 157.355 30.685C156.995 30.755 156.71 30.845 156.5 30.955C156.29 31.055 156.14 31.175 156.05 31.315C155.97 31.455 155.93 31.605 155.93 31.765ZM164.505 28.285H162.63V26.65L164.61 26.56L164.895 24.58H166.71V26.56H169.86V28.285H166.71V30.895C166.71 31.465 166.835 31.87 167.085 32.11C167.335 32.34 167.73 32.455 168.27 32.455C168.56 32.455 168.825 32.43 169.065 32.38C169.305 32.33 169.535 32.265 169.755 32.185L170.145 33.775C169.815 33.875 169.445 33.965 169.035 34.045C168.635 34.135 168.195 34.18 167.715 34.18C167.125 34.18 166.625 34.1 166.215 33.94C165.805 33.78 165.47 33.56 165.21 33.28C164.96 32.99 164.78 32.645 164.67 32.245C164.56 31.845 164.505 31.4 164.505 30.91V28.285ZM171.804 31.93C171.804 31.51 171.894 31.145 172.074 30.835C172.254 30.515 172.539 30.245 172.929 30.025C173.329 29.805 173.839 29.63 174.459 29.5C175.079 29.36 175.829 29.265 176.709 29.215C176.669 28.875 176.519 28.61 176.259 28.42C176.009 28.23 175.629 28.135 175.119 28.135C174.759 28.135 174.394 28.2 174.024 28.33C173.664 28.45 173.274 28.615 172.854 28.825L172.074 27.385C172.584 27.095 173.129 26.855 173.709 26.665C174.299 26.475 174.914 26.38 175.554 26.38C176.594 26.38 177.414 26.655 178.014 27.205C178.614 27.755 178.914 28.6 178.914 29.74V34H177.114L176.949 33.16H176.889C176.509 33.45 176.094 33.695 175.644 33.895C175.194 34.085 174.729 34.18 174.249 34.18C173.869 34.18 173.529 34.12 173.229 34C172.929 33.89 172.674 33.735 172.464 33.535C172.254 33.325 172.089 33.085 171.969 32.815C171.859 32.545 171.804 32.25 171.804 31.93ZM173.919 31.765C173.919 32.005 174.009 32.185 174.189 32.305C174.379 32.415 174.634 32.47 174.954 32.47C175.284 32.47 175.594 32.405 175.884 32.275C176.174 32.135 176.449 31.965 176.709 31.765V30.535C176.159 30.565 175.704 30.615 175.344 30.685C174.984 30.755 174.699 30.845 174.489 30.955C174.279 31.055 174.129 31.175 174.039 31.315C173.959 31.455 173.919 31.605 173.919 31.765ZM182.898 23.38H187.323V24.55H184.578V35.11H187.323V36.28H182.898V23.38ZM200.631 27.58C200.631 27.33 200.671 27.1 200.751 26.89C200.841 26.67 200.961 26.48 201.111 26.32C201.261 26.16 201.441 26.035 201.651 25.945C201.871 25.855 202.111 25.81 202.371 25.81C202.631 25.81 202.866 25.855 203.076 25.945C203.296 26.035 203.481 26.16 203.631 26.32C203.781 26.48 203.896 26.67 203.976 26.89C204.066 27.1 204.111 27.33 204.111 27.58C204.111 28.08 203.951 28.5 203.631 28.84C203.311 29.17 202.891 29.335 202.371 29.335C201.851 29.335 201.431 29.17 201.111 28.84C200.791 28.5 200.631 28.08 200.631 27.58ZM200.631 32.425C200.631 32.175 200.671 31.945 200.751 31.735C200.841 31.515 200.961 31.325 201.111 31.165C201.261 31.005 201.441 30.88 201.651 30.79C201.871 30.7 202.111 30.655 202.371 30.655C202.631 30.655 202.866 30.7 203.076 30.79C203.296 30.88 203.481 31.005 203.631 31.165C203.781 31.325 203.896 31.515 203.976 31.735C204.066 31.945 204.111 32.175 204.111 32.425C204.111 32.925 203.951 33.345 203.631 33.685C203.311 34.015 202.891 34.18 202.371 34.18C201.851 34.18 201.431 34.015 201.111 33.685C200.791 33.345 200.631 32.925 200.631 32.425ZM211.17 35.11V24.55H208.44V23.38H212.865V36.28H208.44V35.11H211.17ZM218.619 27.58C218.619 27.33 218.659 27.1 218.739 26.89C218.829 26.67 218.949 26.48 219.099 26.32C219.249 26.16 219.429 26.035 219.639 25.945C219.859 25.855 220.099 25.81 220.359 25.81C220.619 25.81 220.854 25.855 221.064 25.945C221.284 26.035 221.469 26.16 221.619 26.32C221.769 26.48 221.884 26.67 221.964 26.89C222.054 27.1 222.099 27.33 222.099 27.58C222.099 28.08 221.939 28.5 221.619 28.84C221.299 29.17 220.879 29.335 220.359 29.335C219.839 29.335 219.419 29.17 219.099 28.84C218.779 28.5 218.619 28.08 218.619 27.58ZM218.619 32.425C218.619 32.175 218.659 31.945 218.739 31.735C218.829 31.515 218.949 31.325 219.099 31.165C219.249 31.005 219.429 30.88 219.639 30.79C219.859 30.7 220.099 30.655 220.359 30.655C220.619 30.655 220.854 30.7 221.064 30.79C221.284 30.88 221.469 31.005 221.619 31.165C221.769 31.325 221.884 31.515 221.964 31.735C222.054 31.945 222.099 32.175 222.099 32.425C222.099 32.925 221.939 33.345 221.619 33.685C221.299 34.015 220.879 34.18 220.359 34.18C219.839 34.18 219.419 34.015 219.099 33.685C218.779 33.345 218.619 32.925 218.619 32.425ZM37.7166 44.56H39.5166L39.6966 46.18H39.7416C40.1116 45.57 40.5566 45.12 41.0766 44.83C41.5966 44.53 42.1566 44.38 42.7566 44.38C43.0866 44.38 43.3516 44.405 43.5516 44.455C43.7616 44.505 43.9766 44.58 44.1966 44.68L43.7466 46.525C43.5166 46.455 43.3066 46.405 43.1166 46.375C42.9366 46.335 42.7066 46.315 42.4266 46.315C41.9666 46.315 41.5116 46.45 41.0616 46.72C40.6216 46.99 40.2416 47.46 39.9216 48.13V52H37.7166V44.56ZM45.8857 49.93C45.8857 49.51 45.9757 49.145 46.1557 48.835C46.3357 48.515 46.6207 48.245 47.0107 48.025C47.4107 47.805 47.9207 47.63 48.5407 47.5C49.1607 47.36 49.9107 47.265 50.7907 47.215C50.7507 46.875 50.6007 46.61 50.3407 46.42C50.0907 46.23 49.7107 46.135 49.2007 46.135C48.8407 46.135 48.4757 46.2 48.1057 46.33C47.7457 46.45 47.3557 46.615 46.9357 46.825L46.1557 45.385C46.6657 45.095 47.2107 44.855 47.7907 44.665C48.3807 44.475 48.9957 44.38 49.6357 44.38C50.6757 44.38 51.4957 44.655 52.0957 45.205C52.6957 45.755 52.9957 46.6 52.9957 47.74V52H51.1957L51.0307 51.16H50.9707C50.5907 51.45 50.1757 51.695 49.7257 51.895C49.2757 52.085 48.8107 52.18 48.3307 52.18C47.9507 52.18 47.6107 52.12 47.3107 52C47.0107 51.89 46.7557 51.735 46.5457 51.535C46.3357 51.325 46.1707 51.085 46.0507 50.815C45.9407 50.545 45.8857 50.25 45.8857 49.93ZM48.0007 49.765C48.0007 50.005 48.0907 50.185 48.2707 50.305C48.4607 50.415 48.7157 50.47 49.0357 50.47C49.3657 50.47 49.6757 50.405 49.9657 50.275C50.2557 50.135 50.5307 49.965 50.7907 49.765V48.535C50.2407 48.565 49.7857 48.615 49.4257 48.685C49.0657 48.755 48.7807 48.845 48.5707 48.955C48.3607 49.055 48.2107 49.175 48.1207 49.315C48.0407 49.455 48.0007 49.605 48.0007 49.765ZM56.5748 46.285H54.6998V44.65L56.6798 44.56L56.9648 42.58H58.7798V44.56H61.9298V46.285H58.7798V48.895C58.7798 49.465 58.9048 49.87 59.1548 50.11C59.4048 50.34 59.7998 50.455 60.3398 50.455C60.6298 50.455 60.8948 50.43 61.1348 50.38C61.3748 50.33 61.6048 50.265 61.8248 50.185L62.2148 51.775C61.8848 51.875 61.5148 51.965 61.1048 52.045C60.7048 52.135 60.2648 52.18 59.7848 52.18C59.1948 52.18 58.6948 52.1 58.2848 51.94C57.8748 51.78 57.5398 51.56 57.2798 51.28C57.0298 50.99 56.8498 50.645 56.7398 50.245C56.6298 49.845 56.5748 49.4 56.5748 48.91V46.285ZM64.144 44.56H69.334V52H67.129V46.285H64.144V44.56ZM68.134 43.465C67.704 43.465 67.349 43.345 67.069 43.105C66.799 42.865 66.664 42.54 66.664 42.13C66.664 41.72 66.799 41.39 67.069 41.14C67.349 40.88 67.704 40.75 68.134 40.75C68.564 40.75 68.914 40.88 69.184 41.14C69.464 41.39 69.604 41.72 69.604 42.13C69.604 42.54 69.464 42.865 69.184 43.105C68.914 43.345 68.564 43.465 68.134 43.465ZM73.0331 44.56H74.8331L74.9981 45.55H75.0581C75.3781 45.23 75.7431 44.955 76.1531 44.725C76.5731 44.495 77.0631 44.38 77.6231 44.38C78.4631 44.38 79.0781 44.65 79.4681 45.19C79.8581 45.73 80.0531 46.47 80.0531 47.41V52H77.8481V47.695C77.8481 47.195 77.7681 46.83 77.6081 46.6C77.4481 46.37 77.1631 46.255 76.7531 46.255C76.4531 46.255 76.1881 46.32 75.9581 46.45C75.7381 46.58 75.4981 46.775 75.2381 47.035V52H73.0331V44.56ZM83.5273 52.93C83.5273 53.21 83.6923 53.42 84.0223 53.56C84.3623 53.71 84.8273 53.785 85.4173 53.785C86.0173 53.785 86.5023 53.695 86.8723 53.515C87.2423 53.345 87.4273 53.13 87.4273 52.87C87.4273 52.63 87.3173 52.47 87.0973 52.39C86.8773 52.32 86.5523 52.285 86.1223 52.285H85.1923C84.9223 52.285 84.6973 52.275 84.5173 52.255C84.3473 52.245 84.1923 52.225 84.0523 52.195C83.8623 52.315 83.7273 52.43 83.6473 52.54C83.5673 52.66 83.5273 52.79 83.5273 52.93ZM81.7273 53.26C81.7273 52.65 82.1123 52.155 82.8823 51.775V51.715C82.6823 51.585 82.5073 51.42 82.3573 51.22C82.2073 51.02 82.1323 50.76 82.1323 50.44C82.1323 50.19 82.2123 49.94 82.3723 49.69C82.5423 49.44 82.7573 49.225 83.0173 49.045V48.985C82.7473 48.805 82.5173 48.555 82.3273 48.235C82.1373 47.905 82.0423 47.52 82.0423 47.08C82.0423 46.63 82.1273 46.24 82.2973 45.91C82.4773 45.57 82.7123 45.29 83.0023 45.07C83.2923 44.84 83.6273 44.67 84.0073 44.56C84.3973 44.44 84.8023 44.38 85.2223 44.38C85.6823 44.38 86.0923 44.44 86.4523 44.56H89.4673V46.165H87.9523C88.0423 46.275 88.1223 46.42 88.1923 46.6C88.2623 46.77 88.2973 46.955 88.2973 47.155C88.2973 47.585 88.2173 47.955 88.0573 48.265C87.8973 48.575 87.6773 48.835 87.3973 49.045C87.1273 49.245 86.8023 49.395 86.4223 49.495C86.0523 49.595 85.6523 49.645 85.2223 49.645C84.9023 49.645 84.5623 49.595 84.2023 49.495C84.0923 49.575 84.0073 49.655 83.9473 49.735C83.8973 49.815 83.8723 49.915 83.8723 50.035C83.8723 50.235 83.9723 50.38 84.1723 50.47C84.3723 50.56 84.6923 50.605 85.1323 50.605H86.5123C87.4923 50.605 88.2373 50.75 88.7473 51.04C89.2673 51.33 89.5273 51.81 89.5273 52.48C89.5273 52.87 89.4223 53.23 89.2123 53.56C89.0023 53.89 88.7073 54.17 88.3273 54.4C87.9473 54.64 87.4823 54.825 86.9323 54.955C86.3823 55.095 85.7723 55.165 85.1023 55.165C84.6223 55.165 84.1723 55.125 83.7523 55.045C83.3423 54.975 82.9873 54.86 82.6873 54.7C82.3873 54.55 82.1523 54.355 81.9823 54.115C81.8123 53.875 81.7273 53.59 81.7273 53.26ZM85.2223 48.31C85.5323 48.31 85.7973 48.21 86.0173 48.01C86.2473 47.8 86.3623 47.49 86.3623 47.08C86.3623 46.68 86.2473 46.38 86.0173 46.18C85.7973 45.97 85.5323 45.865 85.2223 45.865C84.9123 45.865 84.6473 45.97 84.4273 46.18C84.2173 46.38 84.1123 46.68 84.1123 47.08C84.1123 47.49 84.2173 47.8 84.4273 48.01C84.6473 48.21 84.9123 48.31 85.2223 48.31ZM99.9855 44.53H106.886V46.09H99.9855V44.53ZM99.9855 47.995H106.886V49.555H99.9855V47.995ZM167.775 54.685C166.795 53.815 166.02 52.81 165.45 51.67C164.89 50.53 164.61 49.25 164.61 47.83C164.61 46.41 164.89 45.13 165.45 43.99C166.02 42.85 166.795 41.845 167.775 40.975L169.005 41.95C168.115 42.82 167.465 43.725 167.055 44.665C166.655 45.595 166.455 46.65 166.455 47.83C166.455 48.42 166.505 48.98 166.605 49.51C166.705 50.03 166.855 50.53 167.055 51.01C167.265 51.49 167.53 51.95 167.85 52.39C168.17 52.84 168.555 53.28 169.005 53.71L167.775 54.685ZM172.629 44.56H174.429L174.609 46.18H174.654C175.024 45.57 175.469 45.12 175.989 44.83C176.509 44.53 177.069 44.38 177.669 44.38C177.999 44.38 178.264 44.405 178.464 44.455C178.674 44.505 178.889 44.58 179.109 44.68L178.659 46.525C178.429 46.455 178.219 46.405 178.029 46.375C177.849 46.335 177.619 46.315 177.339 46.315C176.879 46.315 176.424 46.45 175.974 46.72C175.534 46.99 175.154 47.46 174.834 48.13V52H172.629V44.56ZM180.588 48.28C180.588 47.66 180.693 47.11 180.903 46.63C181.113 46.14 181.393 45.73 181.743 45.4C182.103 45.07 182.508 44.82 182.958 44.65C183.418 44.47 183.893 44.38 184.383 44.38C184.873 44.38 185.343 44.47 185.793 44.65C186.253 44.82 186.658 45.07 187.008 45.4C187.368 45.73 187.653 46.14 187.863 46.63C188.073 47.11 188.178 47.66 188.178 48.28C188.178 48.9 188.073 49.455 187.863 49.945C187.653 50.425 187.368 50.83 187.008 51.16C186.658 51.49 186.253 51.745 185.793 51.925C185.343 52.095 184.873 52.18 184.383 52.18C183.893 52.18 183.418 52.095 182.958 51.925C182.508 51.745 182.103 51.49 181.743 51.16C181.393 50.83 181.113 50.425 180.903 49.945C180.693 49.455 180.588 48.9 180.588 48.28ZM182.853 48.28C182.853 48.93 182.978 49.445 183.228 49.825C183.488 50.205 183.873 50.395 184.383 50.395C184.893 50.395 185.273 50.205 185.523 49.825C185.783 49.445 185.913 48.93 185.913 48.28C185.913 47.63 185.783 47.115 185.523 46.735C185.273 46.355 184.893 46.165 184.383 46.165C183.873 46.165 183.488 46.355 183.228 46.735C182.978 47.115 182.853 47.63 182.853 48.28ZM188.937 44.56H191.097L191.547 48.01C191.597 48.38 191.637 48.745 191.667 49.105C191.707 49.465 191.752 49.835 191.802 50.215H191.847C191.897 49.835 191.947 49.46 191.997 49.09C192.047 48.72 192.112 48.36 192.192 48.01L192.657 45.55H194.202L194.697 48.01C194.767 48.38 194.832 48.745 194.892 49.105C194.952 49.465 195.007 49.835 195.057 50.215H195.117C195.167 49.835 195.207 49.465 195.237 49.105C195.267 48.745 195.307 48.38 195.357 48.01L195.807 44.56H197.817L196.662 52H194.112L193.692 49.525C193.642 49.175 193.592 48.825 193.542 48.475C193.502 48.115 193.457 47.735 193.407 47.335H193.347C193.317 47.605 193.282 47.91 193.242 48.25C193.212 48.59 193.157 49.015 193.077 49.525L192.672 52H190.167L188.937 44.56ZM200.886 41.38H205.311V42.55H202.566V53.11H205.311V54.28H200.886V41.38ZM220.164 53.11V42.55H217.434V41.38H221.859V54.28H217.434V53.11H220.164ZM226.744 53.71C227.194 53.28 227.579 52.84 227.899 52.39C228.219 51.95 228.479 51.49 228.679 51.01C228.889 50.53 229.044 50.03 229.144 49.51C229.244 48.98 229.294 48.42 229.294 47.83C229.294 46.65 229.089 45.595 228.679 44.665C228.279 43.725 227.634 42.82 226.744 41.95L227.974 40.975C228.954 41.845 229.724 42.85 230.284 43.99C230.854 45.13 231.139 46.41 231.139 47.83C231.139 49.25 230.854 50.53 230.284 51.67C229.724 52.81 228.954 53.815 227.974 54.685L226.744 53.71ZM37.7166 63.56H39.5166L39.6966 65.18H39.7416C40.1116 64.57 40.5566 64.12 41.0766 63.83C41.5966 63.53 42.1566 63.38 42.7566 63.38C43.0866 63.38 43.3516 63.405 43.5516 63.455C43.7616 63.505 43.9766 63.58 44.1966 63.68L43.7466 65.525C43.5166 65.455 43.3066 65.405 43.1166 65.375C42.9366 65.335 42.7066 65.315 42.4266 65.315C41.9666 65.315 41.5116 65.45 41.0616 65.72C40.6216 65.99 40.2416 66.46 39.9216 67.13V71H37.7166V63.56ZM45.8857 68.93C45.8857 68.51 45.9757 68.145 46.1557 67.835C46.3357 67.515 46.6207 67.245 47.0107 67.025C47.4107 66.805 47.9207 66.63 48.5407 66.5C49.1607 66.36 49.9107 66.265 50.7907 66.215C50.7507 65.875 50.6007 65.61 50.3407 65.42C50.0907 65.23 49.7107 65.135 49.2007 65.135C48.8407 65.135 48.4757 65.2 48.1057 65.33C47.7457 65.45 47.3557 65.615 46.9357 65.825L46.1557 64.385C46.6657 64.095 47.2107 63.855 47.7907 63.665C48.3807 63.475 48.9957 63.38 49.6357 63.38C50.6757 63.38 51.4957 63.655 52.0957 64.205C52.6957 64.755 52.9957 65.6 52.9957 66.74V71H51.1957L51.0307 70.16H50.9707C50.5907 70.45 50.1757 70.695 49.7257 70.895C49.2757 71.085 48.8107 71.18 48.3307 71.18C47.9507 71.18 47.6107 71.12 47.3107 71C47.0107 70.89 46.7557 70.735 46.5457 70.535C46.3357 70.325 46.1707 70.085 46.0507 69.815C45.9407 69.545 45.8857 69.25 45.8857 68.93ZM48.0007 68.765C48.0007 69.005 48.0907 69.185 48.2707 69.305C48.4607 69.415 48.7157 69.47 49.0357 69.47C49.3657 69.47 49.6757 69.405 49.9657 69.275C50.2557 69.135 50.5307 68.965 50.7907 68.765V67.535C50.2407 67.565 49.7857 67.615 49.4257 67.685C49.0657 67.755 48.7807 67.845 48.5707 67.955C48.3607 68.055 48.2107 68.175 48.1207 68.315C48.0407 68.455 48.0007 68.605 48.0007 68.765ZM56.5748 65.285H54.6998V63.65L56.6798 63.56L56.9648 61.58H58.7798V63.56H61.9298V65.285H58.7798V67.895C58.7798 68.465 58.9048 68.87 59.1548 69.11C59.4048 69.34 59.7998 69.455 60.3398 69.455C60.6298 69.455 60.8948 69.43 61.1348 69.38C61.3748 69.33 61.6048 69.265 61.8248 69.185L62.2148 70.775C61.8848 70.875 61.5148 70.965 61.1048 71.045C60.7048 71.135 60.2648 71.18 59.7848 71.18C59.1948 71.18 58.6948 71.1 58.2848 70.94C57.8748 70.78 57.5398 70.56 57.2798 70.28C57.0298 69.99 56.8498 69.645 56.7398 69.245C56.6298 68.845 56.5748 68.4 56.5748 67.91V65.285ZM64.144 63.56H69.334V71H67.129V65.285H64.144V63.56ZM68.134 62.465C67.704 62.465 67.349 62.345 67.069 62.105C66.799 61.865 66.664 61.54 66.664 61.13C66.664 60.72 66.799 60.39 67.069 60.14C67.349 59.88 67.704 59.75 68.134 59.75C68.564 59.75 68.914 59.88 69.184 60.14C69.464 60.39 69.604 60.72 69.604 61.13C69.604 61.54 69.464 61.865 69.184 62.105C68.914 62.345 68.564 62.465 68.134 62.465ZM73.0331 63.56H74.8331L74.9981 64.55H75.0581C75.3781 64.23 75.7431 63.955 76.1531 63.725C76.5731 63.495 77.0631 63.38 77.6231 63.38C78.4631 63.38 79.0781 63.65 79.4681 64.19C79.8581 64.73 80.0531 65.47 80.0531 66.41V71H77.8481V66.695C77.8481 66.195 77.7681 65.83 77.6081 65.6C77.4481 65.37 77.1631 65.255 76.7531 65.255C76.4531 65.255 76.1881 65.32 75.9581 65.45C75.7381 65.58 75.4981 65.775 75.2381 66.035V71H73.0331V63.56ZM83.5273 71.93C83.5273 72.21 83.6923 72.42 84.0223 72.56C84.3623 72.71 84.8273 72.785 85.4173 72.785C86.0173 72.785 86.5023 72.695 86.8723 72.515C87.2423 72.345 87.4273 72.13 87.4273 71.87C87.4273 71.63 87.3173 71.47 87.0973 71.39C86.8773 71.32 86.5523 71.285 86.1223 71.285H85.1923C84.9223 71.285 84.6973 71.275 84.5173 71.255C84.3473 71.245 84.1923 71.225 84.0523 71.195C83.8623 71.315 83.7273 71.43 83.6473 71.54C83.5673 71.66 83.5273 71.79 83.5273 71.93ZM81.7273 72.26C81.7273 71.65 82.1123 71.155 82.8823 70.775V70.715C82.6823 70.585 82.5073 70.42 82.3573 70.22C82.2073 70.02 82.1323 69.76 82.1323 69.44C82.1323 69.19 82.2123 68.94 82.3723 68.69C82.5423 68.44 82.7573 68.225 83.0173 68.045V67.985C82.7473 67.805 82.5173 67.555 82.3273 67.235C82.1373 66.905 82.0423 66.52 82.0423 66.08C82.0423 65.63 82.1273 65.24 82.2973 64.91C82.4773 64.57 82.7123 64.29 83.0023 64.07C83.2923 63.84 83.6273 63.67 84.0073 63.56C84.3973 63.44 84.8023 63.38 85.2223 63.38C85.6823 63.38 86.0923 63.44 86.4523 63.56H89.4673V65.165H87.9523C88.0423 65.275 88.1223 65.42 88.1923 65.6C88.2623 65.77 88.2973 65.955 88.2973 66.155C88.2973 66.585 88.2173 66.955 88.0573 67.265C87.8973 67.575 87.6773 67.835 87.3973 68.045C87.1273 68.245 86.8023 68.395 86.4223 68.495C86.0523 68.595 85.6523 68.645 85.2223 68.645C84.9023 68.645 84.5623 68.595 84.2023 68.495C84.0923 68.575 84.0073 68.655 83.9473 68.735C83.8973 68.815 83.8723 68.915 83.8723 69.035C83.8723 69.235 83.9723 69.38 84.1723 69.47C84.3723 69.56 84.6923 69.605 85.1323 69.605H86.5123C87.4923 69.605 88.2373 69.75 88.7473 70.04C89.2673 70.33 89.5273 70.81 89.5273 71.48C89.5273 71.87 89.4223 72.23 89.2123 72.56C89.0023 72.89 88.7073 73.17 88.3273 73.4C87.9473 73.64 87.4823 73.825 86.9323 73.955C86.3823 74.095 85.7723 74.165 85.1023 74.165C84.6223 74.165 84.1723 74.125 83.7523 74.045C83.3423 73.975 82.9873 73.86 82.6873 73.7C82.3873 73.55 82.1523 73.355 81.9823 73.115C81.8123 72.875 81.7273 72.59 81.7273 72.26ZM85.2223 67.31C85.5323 67.31 85.7973 67.21 86.0173 67.01C86.2473 66.8 86.3623 66.49 86.3623 66.08C86.3623 65.68 86.2473 65.38 86.0173 65.18C85.7973 64.97 85.5323 64.865 85.2223 64.865C84.9123 64.865 84.6473 64.97 84.4273 65.18C84.2173 65.38 84.1123 65.68 84.1123 66.08C84.1123 66.49 84.2173 66.8 84.4273 67.01C84.6473 67.21 84.9123 67.31 85.2223 67.31ZM98.0414 71.81V73.46H90.8414V71.81H98.0414ZM100.721 68.66C101.151 68.93 101.581 69.145 102.011 69.305C102.451 69.465 102.921 69.545 103.421 69.545C103.931 69.545 104.296 69.49 104.516 69.38C104.736 69.27 104.846 69.115 104.846 68.915C104.846 68.685 104.661 68.5 104.291 68.36C103.931 68.21 103.451 68.05 102.851 67.88C102.521 67.79 102.196 67.685 101.876 67.565C101.566 67.435 101.286 67.285 101.036 67.115C100.786 66.935 100.581 66.73 100.421 66.5C100.271 66.27 100.196 66.005 100.196 65.705C100.196 65.365 100.276 65.05 100.436 64.76C100.596 64.47 100.821 64.225 101.111 64.025C101.411 63.825 101.771 63.67 102.191 63.56C102.621 63.44 103.101 63.38 103.631 63.38C104.291 63.38 104.891 63.49 105.431 63.71C105.981 63.92 106.451 64.15 106.841 64.4L105.851 65.72C105.511 65.52 105.161 65.355 104.801 65.225C104.441 65.085 104.066 65.015 103.676 65.015C103.206 65.015 102.871 65.065 102.671 65.165C102.481 65.265 102.386 65.41 102.386 65.6C102.386 65.71 102.436 65.81 102.536 65.9C102.636 65.99 102.771 66.07 102.941 66.14C103.111 66.21 103.311 66.28 103.541 66.35C103.781 66.41 104.031 66.475 104.291 66.545C104.661 66.645 105.011 66.76 105.341 66.89C105.671 67.01 105.961 67.155 106.211 67.325C106.461 67.495 106.661 67.7 106.811 67.94C106.961 68.18 107.036 68.46 107.036 68.78C107.036 69.12 106.956 69.435 106.796 69.725C106.636 70.015 106.401 70.27 106.091 70.49C105.791 70.7 105.411 70.87 104.951 71C104.501 71.12 103.976 71.18 103.376 71.18C102.706 71.18 102.051 71.07 101.411 70.85C100.771 70.63 100.211 70.36 99.7305 70.04L100.721 68.66ZM115.805 71H114.005L113.84 69.935H113.78C113.45 70.315 113.085 70.62 112.685 70.85C112.285 71.07 111.815 71.18 111.275 71.18C110.425 71.18 109.81 70.91 109.43 70.37C109.05 69.83 108.86 69.09 108.86 68.15V63.56H111.065V67.865C111.065 68.365 111.14 68.73 111.29 68.96C111.44 69.19 111.725 69.305 112.145 69.305C112.425 69.305 112.67 69.245 112.88 69.125C113.1 69.005 113.34 68.78 113.6 68.45V63.56H115.805V71ZM117.464 63.56H119.114L119.279 64.49H119.339C119.479 64.18 119.669 63.92 119.909 63.71C120.159 63.49 120.499 63.38 120.929 63.38C121.259 63.38 121.534 63.485 121.754 63.695C121.984 63.895 122.144 64.195 122.234 64.595C122.374 64.255 122.574 63.97 122.834 63.74C123.104 63.5 123.449 63.38 123.869 63.38C124.389 63.38 124.794 63.595 125.084 64.025C125.374 64.445 125.519 65.03 125.519 65.78V71H123.449V65.945C123.449 65.485 123.309 65.255 123.029 65.255C122.759 65.255 122.529 65.495 122.339 65.975V71H120.644V65.945C120.644 65.485 120.499 65.255 120.209 65.255C120.069 65.255 119.949 65.315 119.849 65.435C119.749 65.555 119.644 65.735 119.534 65.975V71H117.464V63.56ZM135.962 63.53H142.862V65.09H135.962V63.53ZM135.962 66.995H142.862V68.555H135.962V66.995ZM154.64 63.56H156.44L156.62 65.18H156.665C157.035 64.57 157.48 64.12 158 63.83C158.52 63.53 159.08 63.38 159.68 63.38C160.01 63.38 160.275 63.405 160.475 63.455C160.685 63.505 160.9 63.58 161.12 63.68L160.67 65.525C160.44 65.455 160.23 65.405 160.04 65.375C159.86 65.335 159.63 65.315 159.35 65.315C158.89 65.315 158.435 65.45 157.985 65.72C157.545 65.99 157.165 66.46 156.845 67.13V71H154.64V63.56ZM162.81 68.93C162.81 68.51 162.9 68.145 163.08 67.835C163.26 67.515 163.545 67.245 163.935 67.025C164.335 66.805 164.845 66.63 165.465 66.5C166.085 66.36 166.835 66.265 167.715 66.215C167.675 65.875 167.525 65.61 167.265 65.42C167.015 65.23 166.635 65.135 166.125 65.135C165.765 65.135 165.4 65.2 165.03 65.33C164.67 65.45 164.28 65.615 163.86 65.825L163.08 64.385C163.59 64.095 164.135 63.855 164.715 63.665C165.305 63.475 165.92 63.38 166.56 63.38C167.6 63.38 168.42 63.655 169.02 64.205C169.62 64.755 169.92 65.6 169.92 66.74V71H168.12L167.955 70.16H167.895C167.515 70.45 167.1 70.695 166.65 70.895C166.2 71.085 165.735 71.18 165.255 71.18C164.875 71.18 164.535 71.12 164.235 71C163.935 70.89 163.68 70.735 163.47 70.535C163.26 70.325 163.095 70.085 162.975 69.815C162.865 69.545 162.81 69.25 162.81 68.93ZM164.925 68.765C164.925 69.005 165.015 69.185 165.195 69.305C165.385 69.415 165.64 69.47 165.96 69.47C166.29 69.47 166.6 69.405 166.89 69.275C167.18 69.135 167.455 68.965 167.715 68.765V67.535C167.165 67.565 166.71 67.615 166.35 67.685C165.99 67.755 165.705 67.845 165.495 67.955C165.285 68.055 165.135 68.175 165.045 68.315C164.965 68.455 164.925 68.605 164.925 68.765ZM173.499 65.285H171.624V63.65L173.604 63.56L173.889 61.58H175.704V63.56H178.854V65.285H175.704V67.895C175.704 68.465 175.829 68.87 176.079 69.11C176.329 69.34 176.724 69.455 177.264 69.455C177.554 69.455 177.819 69.43 178.059 69.38C178.299 69.33 178.529 69.265 178.749 69.185L179.139 70.775C178.809 70.875 178.439 70.965 178.029 71.045C177.629 71.135 177.189 71.18 176.709 71.18C176.119 71.18 175.619 71.1 175.209 70.94C174.799 70.78 174.464 70.56 174.204 70.28C173.954 69.99 173.774 69.645 173.664 69.245C173.554 68.845 173.499 68.4 173.499 67.91V65.285ZM181.068 63.56H186.258V71H184.053V65.285H181.068V63.56ZM185.058 62.465C184.628 62.465 184.273 62.345 183.993 62.105C183.723 61.865 183.588 61.54 183.588 61.13C183.588 60.72 183.723 60.39 183.993 60.14C184.273 59.88 184.628 59.75 185.058 59.75C185.488 59.75 185.838 59.88 186.108 60.14C186.388 60.39 186.528 60.72 186.528 61.13C186.528 61.54 186.388 61.865 186.108 62.105C185.838 62.345 185.488 62.465 185.058 62.465ZM189.957 63.56H191.757L191.922 64.55H191.982C192.302 64.23 192.667 63.955 193.077 63.725C193.497 63.495 193.987 63.38 194.547 63.38C195.387 63.38 196.002 63.65 196.392 64.19C196.782 64.73 196.977 65.47 196.977 66.41V71H194.772V66.695C194.772 66.195 194.692 65.83 194.532 65.6C194.372 65.37 194.087 65.255 193.677 65.255C193.377 65.255 193.112 65.32 192.882 65.45C192.662 65.58 192.422 65.775 192.162 66.035V71H189.957V63.56ZM200.451 71.93C200.451 72.21 200.616 72.42 200.946 72.56C201.286 72.71 201.751 72.785 202.341 72.785C202.941 72.785 203.426 72.695 203.796 72.515C204.166 72.345 204.351 72.13 204.351 71.87C204.351 71.63 204.241 71.47 204.021 71.39C203.801 71.32 203.476 71.285 203.046 71.285H202.116C201.846 71.285 201.621 71.275 201.441 71.255C201.271 71.245 201.116 71.225 200.976 71.195C200.786 71.315 200.651 71.43 200.571 71.54C200.491 71.66 200.451 71.79 200.451 71.93ZM198.651 72.26C198.651 71.65 199.036 71.155 199.806 70.775V70.715C199.606 70.585 199.431 70.42 199.281 70.22C199.131 70.02 199.056 69.76 199.056 69.44C199.056 69.19 199.136 68.94 199.296 68.69C199.466 68.44 199.681 68.225 199.941 68.045V67.985C199.671 67.805 199.441 67.555 199.251 67.235C199.061 66.905 198.966 66.52 198.966 66.08C198.966 65.63 199.051 65.24 199.221 64.91C199.401 64.57 199.636 64.29 199.926 64.07C200.216 63.84 200.551 63.67 200.931 63.56C201.321 63.44 201.726 63.38 202.146 63.38C202.606 63.38 203.016 63.44 203.376 63.56H206.391V65.165H204.876C204.966 65.275 205.046 65.42 205.116 65.6C205.186 65.77 205.221 65.955 205.221 66.155C205.221 66.585 205.141 66.955 204.981 67.265C204.821 67.575 204.601 67.835 204.321 68.045C204.051 68.245 203.726 68.395 203.346 68.495C202.976 68.595 202.576 68.645 202.146 68.645C201.826 68.645 201.486 68.595 201.126 68.495C201.016 68.575 200.931 68.655 200.871 68.735C200.821 68.815 200.796 68.915 200.796 69.035C200.796 69.235 200.896 69.38 201.096 69.47C201.296 69.56 201.616 69.605 202.056 69.605H203.436C204.416 69.605 205.161 69.75 205.671 70.04C206.191 70.33 206.451 70.81 206.451 71.48C206.451 71.87 206.346 72.23 206.136 72.56C205.926 72.89 205.631 73.17 205.251 73.4C204.871 73.64 204.406 73.825 203.856 73.955C203.306 74.095 202.696 74.165 202.026 74.165C201.546 74.165 201.096 74.125 200.676 74.045C200.266 73.975 199.911 73.86 199.611 73.7C199.311 73.55 199.076 73.355 198.906 73.115C198.736 72.875 198.651 72.59 198.651 72.26ZM202.146 67.31C202.456 67.31 202.721 67.21 202.941 67.01C203.171 66.8 203.286 66.49 203.286 66.08C203.286 65.68 203.171 65.38 202.941 65.18C202.721 64.97 202.456 64.865 202.146 64.865C201.836 64.865 201.571 64.97 201.351 65.18C201.141 65.38 201.036 65.68 201.036 66.08C201.036 66.49 201.141 66.8 201.351 67.01C201.571 67.21 201.836 67.31 202.146 67.31ZM214.965 71.81V73.46H207.765V71.81H214.965ZM217.644 68.66C218.074 68.93 218.504 69.145 218.934 69.305C219.374 69.465 219.844 69.545 220.344 69.545C220.854 69.545 221.219 69.49 221.439 69.38C221.659 69.27 221.769 69.115 221.769 68.915C221.769 68.685 221.584 68.5 221.214 68.36C220.854 68.21 220.374 68.05 219.774 67.88C219.444 67.79 219.119 67.685 218.799 67.565C218.489 67.435 218.209 67.285 217.959 67.115C217.709 66.935 217.504 66.73 217.344 66.5C217.194 66.27 217.119 66.005 217.119 65.705C217.119 65.365 217.199 65.05 217.359 64.76C217.519 64.47 217.744 64.225 218.034 64.025C218.334 63.825 218.694 63.67 219.114 63.56C219.544 63.44 220.024 63.38 220.554 63.38C221.214 63.38 221.814 63.49 222.354 63.71C222.904 63.92 223.374 64.15 223.764 64.4L222.774 65.72C222.434 65.52 222.084 65.355 221.724 65.225C221.364 65.085 220.989 65.015 220.599 65.015C220.129 65.015 219.794 65.065 219.594 65.165C219.404 65.265 219.309 65.41 219.309 65.6C219.309 65.71 219.359 65.81 219.459 65.9C219.559 65.99 219.694 66.07 219.864 66.14C220.034 66.21 220.234 66.28 220.464 66.35C220.704 66.41 220.954 66.475 221.214 66.545C221.584 66.645 221.934 66.76 222.264 66.89C222.594 67.01 222.884 67.155 223.134 67.325C223.384 67.495 223.584 67.7 223.734 67.94C223.884 68.18 223.959 68.46 223.959 68.78C223.959 69.12 223.879 69.435 223.719 69.725C223.559 70.015 223.324 70.27 223.014 70.49C222.714 70.7 222.334 70.87 221.874 71C221.424 71.12 220.899 71.18 220.299 71.18C219.629 71.18 218.974 71.07 218.334 70.85C217.694 70.63 217.134 70.36 216.654 70.04L217.644 68.66ZM232.729 71H230.929L230.764 69.935H230.704C230.374 70.315 230.009 70.62 229.609 70.85C229.209 71.07 228.739 71.18 228.199 71.18C227.349 71.18 226.734 70.91 226.354 70.37C225.974 69.83 225.784 69.09 225.784 68.15V63.56H227.989V67.865C227.989 68.365 228.064 68.73 228.214 68.96C228.364 69.19 228.649 69.305 229.069 69.305C229.349 69.305 229.594 69.245 229.804 69.125C230.024 69.005 230.264 68.78 230.524 68.45V63.56H232.729V71ZM234.388 63.56H236.038L236.203 64.49H236.263C236.403 64.18 236.593 63.92 236.833 63.71C237.083 63.49 237.423 63.38 237.853 63.38C238.183 63.38 238.458 63.485 238.678 63.695C238.908 63.895 239.068 64.195 239.158 64.595C239.298 64.255 239.498 63.97 239.758 63.74C240.028 63.5 240.373 63.38 240.793 63.38C241.313 63.38 241.718 63.595 242.008 64.025C242.298 64.445 242.443 65.03 242.443 65.78V71H240.373V65.945C240.373 65.485 240.233 65.255 239.953 65.255C239.683 65.255 239.453 65.495 239.263 65.975V71H237.568V65.945C237.568 65.485 237.423 65.255 237.133 65.255C236.993 65.255 236.873 65.315 236.773 65.435C236.673 65.555 236.568 65.735 236.458 65.975V71H234.388V63.56ZM255.526 66.83H252.886V65.27H255.526V62.51H257.146V65.27H259.786V66.83H257.146V69.59H255.526V66.83ZM271.564 63.56H273.364L273.544 65.18H273.589C273.959 64.57 274.404 64.12 274.924 63.83C275.444 63.53 276.004 63.38 276.604 63.38C276.934 63.38 277.199 63.405 277.399 63.455C277.609 63.505 277.824 63.58 278.044 63.68L277.594 65.525C277.364 65.455 277.154 65.405 276.964 65.375C276.784 65.335 276.554 65.315 276.274 65.315C275.814 65.315 275.359 65.45 274.909 65.72C274.469 65.99 274.089 66.46 273.769 67.13V71H271.564V63.56ZM279.733 68.93C279.733 68.51 279.823 68.145 280.003 67.835C280.183 67.515 280.468 67.245 280.858 67.025C281.258 66.805 281.768 66.63 282.388 66.5C283.008 66.36 283.758 66.265 284.638 66.215C284.598 65.875 284.448 65.61 284.188 65.42C283.938 65.23 283.558 65.135 283.048 65.135C282.688 65.135 282.323 65.2 281.953 65.33C281.593 65.45 281.203 65.615 280.783 65.825L280.003 64.385C280.513 64.095 281.058 63.855 281.638 63.665C282.228 63.475 282.843 63.38 283.483 63.38C284.523 63.38 285.343 63.655 285.943 64.205C286.543 64.755 286.843 65.6 286.843 66.74V71H285.043L284.878 70.16H284.818C284.438 70.45 284.023 70.695 283.573 70.895C283.123 71.085 282.658 71.18 282.178 71.18C281.798 71.18 281.458 71.12 281.158 71C280.858 70.89 280.603 70.735 280.393 70.535C280.183 70.325 280.018 70.085 279.898 69.815C279.788 69.545 279.733 69.25 279.733 68.93ZM281.848 68.765C281.848 69.005 281.938 69.185 282.118 69.305C282.308 69.415 282.563 69.47 282.883 69.47C283.213 69.47 283.523 69.405 283.813 69.275C284.103 69.135 284.378 68.965 284.638 68.765V67.535C284.088 67.565 283.633 67.615 283.273 67.685C282.913 67.755 282.628 67.845 282.418 67.955C282.208 68.055 282.058 68.175 281.968 68.315C281.888 68.455 281.848 68.605 281.848 68.765ZM290.423 65.285H288.548V63.65L290.528 63.56L290.813 61.58H292.628V63.56H295.778V65.285H292.628V67.895C292.628 68.465 292.753 68.87 293.003 69.11C293.253 69.34 293.648 69.455 294.188 69.455C294.478 69.455 294.743 69.43 294.983 69.38C295.223 69.33 295.453 69.265 295.673 69.185L296.063 70.775C295.733 70.875 295.363 70.965 294.953 71.045C294.553 71.135 294.113 71.18 293.633 71.18C293.043 71.18 292.543 71.1 292.133 70.94C291.723 70.78 291.388 70.56 291.128 70.28C290.878 69.99 290.698 69.645 290.588 69.245C290.478 68.845 290.423 68.4 290.423 67.91V65.285ZM297.992 63.56H303.182V71H300.977V65.285H297.992V63.56ZM301.982 62.465C301.552 62.465 301.197 62.345 300.917 62.105C300.647 61.865 300.512 61.54 300.512 61.13C300.512 60.72 300.647 60.39 300.917 60.14C301.197 59.88 301.552 59.75 301.982 59.75C302.412 59.75 302.762 59.88 303.032 60.14C303.312 60.39 303.452 60.72 303.452 61.13C303.452 61.54 303.312 61.865 303.032 62.105C302.762 62.345 302.412 62.465 301.982 62.465ZM306.881 63.56H308.681L308.846 64.55H308.906C309.226 64.23 309.591 63.955 310.001 63.725C310.421 63.495 310.911 63.38 311.471 63.38C312.311 63.38 312.926 63.65 313.316 64.19C313.706 64.73 313.901 65.47 313.901 66.41V71H311.696V66.695C311.696 66.195 311.616 65.83 311.456 65.6C311.296 65.37 311.011 65.255 310.601 65.255C310.301 65.255 310.036 65.32 309.806 65.45C309.586 65.58 309.346 65.775 309.086 66.035V71H306.881V63.56ZM317.375 71.93C317.375 72.21 317.54 72.42 317.87 72.56C318.21 72.71 318.675 72.785 319.265 72.785C319.865 72.785 320.35 72.695 320.72 72.515C321.09 72.345 321.275 72.13 321.275 71.87C321.275 71.63 321.165 71.47 320.945 71.39C320.725 71.32 320.4 71.285 319.97 71.285H319.04C318.77 71.285 318.545 71.275 318.365 71.255C318.195 71.245 318.04 71.225 317.9 71.195C317.71 71.315 317.575 71.43 317.495 71.54C317.415 71.66 317.375 71.79 317.375 71.93ZM315.575 72.26C315.575 71.65 315.96 71.155 316.73 70.775V70.715C316.53 70.585 316.355 70.42 316.205 70.22C316.055 70.02 315.98 69.76 315.98 69.44C315.98 69.19 316.06 68.94 316.22 68.69C316.39 68.44 316.605 68.225 316.865 68.045V67.985C316.595 67.805 316.365 67.555 316.175 67.235C315.985 66.905 315.89 66.52 315.89 66.08C315.89 65.63 315.975 65.24 316.145 64.91C316.325 64.57 316.56 64.29 316.85 64.07C317.14 63.84 317.475 63.67 317.855 63.56C318.245 63.44 318.65 63.38 319.07 63.38C319.53 63.38 319.94 63.44 320.3 63.56H323.315V65.165H321.8C321.89 65.275 321.97 65.42 322.04 65.6C322.11 65.77 322.145 65.955 322.145 66.155C322.145 66.585 322.065 66.955 321.905 67.265C321.745 67.575 321.525 67.835 321.245 68.045C320.975 68.245 320.65 68.395 320.27 68.495C319.9 68.595 319.5 68.645 319.07 68.645C318.75 68.645 318.41 68.595 318.05 68.495C317.94 68.575 317.855 68.655 317.795 68.735C317.745 68.815 317.72 68.915 317.72 69.035C317.72 69.235 317.82 69.38 318.02 69.47C318.22 69.56 318.54 69.605 318.98 69.605H320.36C321.34 69.605 322.085 69.75 322.595 70.04C323.115 70.33 323.375 70.81 323.375 71.48C323.375 71.87 323.27 72.23 323.06 72.56C322.85 72.89 322.555 73.17 322.175 73.4C321.795 73.64 321.33 73.825 320.78 73.955C320.23 74.095 319.62 74.165 318.95 74.165C318.47 74.165 318.02 74.125 317.6 74.045C317.19 73.975 316.835 73.86 316.535 73.7C316.235 73.55 316 73.355 315.83 73.115C315.66 72.875 315.575 72.59 315.575 72.26ZM319.07 67.31C319.38 67.31 319.645 67.21 319.865 67.01C320.095 66.8 320.21 66.49 320.21 66.08C320.21 65.68 320.095 65.38 319.865 65.18C319.645 64.97 319.38 64.865 319.07 64.865C318.76 64.865 318.495 64.97 318.275 65.18C318.065 65.38 317.96 65.68 317.96 66.08C317.96 66.49 318.065 66.8 318.275 67.01C318.495 67.21 318.76 67.31 319.07 67.31ZM50.8507 111.685C49.8707 110.815 49.0957 109.81 48.5257 108.67C47.9657 107.53 47.6857 106.25 47.6857 104.83C47.6857 103.41 47.9657 102.13 48.5257 100.99C49.0957 99.85 49.8707 98.845 50.8507 97.975L52.0807 98.95C51.1907 99.82 50.5407 100.725 50.1307 101.665C49.7307 102.595 49.5307 103.65 49.5307 104.83C49.5307 105.42 49.5807 105.98 49.6807 106.51C49.7807 107.03 49.9307 107.53 50.1307 108.01C50.3407 108.49 50.6057 108.95 50.9257 109.39C51.2457 109.84 51.6307 110.28 52.0807 110.71L50.8507 111.685ZM55.7048 101.56H57.5048L57.6848 103.18H57.7298C58.0998 102.57 58.5448 102.12 59.0648 101.83C59.5848 101.53 60.1448 101.38 60.7448 101.38C61.0748 101.38 61.3398 101.405 61.5398 101.455C61.7498 101.505 61.9648 101.58 62.1848 101.68L61.7348 103.525C61.5048 103.455 61.2948 103.405 61.1048 103.375C60.9248 103.335 60.6948 103.315 60.4148 103.315C59.9548 103.315 59.4998 103.45 59.0498 103.72C58.6098 103.99 58.2298 104.46 57.9098 105.13V109H55.7048V101.56ZM63.874 106.93C63.874 106.51 63.964 106.145 64.144 105.835C64.324 105.515 64.609 105.245 64.999 105.025C65.399 104.805 65.909 104.63 66.529 104.5C67.149 104.36 67.899 104.265 68.779 104.215C68.739 103.875 68.589 103.61 68.329 103.42C68.079 103.23 67.699 103.135 67.189 103.135C66.829 103.135 66.464 103.2 66.094 103.33C65.734 103.45 65.344 103.615 64.924 103.825L64.144 102.385C64.654 102.095 65.199 101.855 65.779 101.665C66.369 101.475 66.984 101.38 67.624 101.38C68.664 101.38 69.484 101.655 70.084 102.205C70.684 102.755 70.984 103.6 70.984 104.74V109H69.184L69.019 108.16H68.959C68.579 108.45 68.164 108.695 67.714 108.895C67.264 109.085 66.799 109.18 66.319 109.18C65.939 109.18 65.599 109.12 65.299 109C64.999 108.89 64.744 108.735 64.534 108.535C64.324 108.325 64.159 108.085 64.039 107.815C63.929 107.545 63.874 107.25 63.874 106.93ZM65.989 106.765C65.989 107.005 66.079 107.185 66.259 107.305C66.449 107.415 66.704 107.47 67.024 107.47C67.354 107.47 67.664 107.405 67.954 107.275C68.244 107.135 68.519 106.965 68.779 106.765V105.535C68.229 105.565 67.774 105.615 67.414 105.685C67.054 105.755 66.769 105.845 66.559 105.955C66.349 106.055 66.199 106.175 66.109 106.315C66.029 106.455 65.989 106.605 65.989 106.765ZM74.5631 103.285H72.6881V101.65L74.6681 101.56L74.9531 99.58H76.7681V101.56H79.9181V103.285H76.7681V105.895C76.7681 106.465 76.8931 106.87 77.1431 107.11C77.3931 107.34 77.7881 107.455 78.3281 107.455C78.6181 107.455 78.8831 107.43 79.1231 107.38C79.3631 107.33 79.5931 107.265 79.8131 107.185L80.2031 108.775C79.8731 108.875 79.5031 108.965 79.0931 109.045C78.6931 109.135 78.2531 109.18 77.7731 109.18C77.1831 109.18 76.6831 109.1 76.2731 108.94C75.8631 108.78 75.5281 108.56 75.2681 108.28C75.0181 107.99 74.8381 107.645 74.7281 107.245C74.6181 106.845 74.5631 106.4 74.5631 105.91V103.285ZM82.1323 101.56H87.3223V109H85.1173V103.285H82.1323V101.56ZM86.1223 100.465C85.6923 100.465 85.3373 100.345 85.0573 100.105C84.7873 99.865 84.6523 99.54 84.6523 99.13C84.6523 98.72 84.7873 98.39 85.0573 98.14C85.3373 97.88 85.6923 97.75 86.1223 97.75C86.5523 97.75 86.9023 97.88 87.1723 98.14C87.4523 98.39 87.5923 98.72 87.5923 99.13C87.5923 99.54 87.4523 99.865 87.1723 100.105C86.9023 100.345 86.5523 100.465 86.1223 100.465ZM91.0214 101.56H92.8214L92.9864 102.55H93.0464C93.3664 102.23 93.7314 101.955 94.1414 101.725C94.5614 101.495 95.0514 101.38 95.6114 101.38C96.4514 101.38 97.0664 101.65 97.4564 102.19C97.8464 102.73 98.0414 103.47 98.0414 104.41V109H95.8364V104.695C95.8364 104.195 95.7564 103.83 95.5964 103.6C95.4364 103.37 95.1514 103.255 94.7414 103.255C94.4414 103.255 94.1764 103.32 93.9464 103.45C93.7264 103.58 93.4864 103.775 93.2264 104.035V109H91.0214V101.56ZM101.516 109.93C101.516 110.21 101.681 110.42 102.011 110.56C102.351 110.71 102.816 110.785 103.406 110.785C104.006 110.785 104.491 110.695 104.861 110.515C105.231 110.345 105.416 110.13 105.416 109.87C105.416 109.63 105.306 109.47 105.086 109.39C104.866 109.32 104.541 109.285 104.111 109.285H103.181C102.911 109.285 102.686 109.275 102.506 109.255C102.336 109.245 102.181 109.225 102.041 109.195C101.851 109.315 101.716 109.43 101.636 109.54C101.556 109.66 101.516 109.79 101.516 109.93ZM99.7155 110.26C99.7155 109.65 100.101 109.155 100.871 108.775V108.715C100.671 108.585 100.496 108.42 100.346 108.22C100.196 108.02 100.121 107.76 100.121 107.44C100.121 107.19 100.201 106.94 100.361 106.69C100.531 106.44 100.746 106.225 101.006 106.045V105.985C100.736 105.805 100.506 105.555 100.316 105.235C100.126 104.905 100.031 104.52 100.031 104.08C100.031 103.63 100.116 103.24 100.286 102.91C100.466 102.57 100.701 102.29 100.991 102.07C101.281 101.84 101.616 101.67 101.996 101.56C102.386 101.44 102.791 101.38 103.211 101.38C103.671 101.38 104.081 101.44 104.441 101.56H107.456V103.165H105.941C106.031 103.275 106.111 103.42 106.181 103.6C106.251 103.77 106.286 103.955 106.286 104.155C106.286 104.585 106.206 104.955 106.046 105.265C105.886 105.575 105.666 105.835 105.386 106.045C105.116 106.245 104.791 106.395 104.411 106.495C104.041 106.595 103.641 106.645 103.211 106.645C102.891 106.645 102.551 106.595 102.191 106.495C102.081 106.575 101.996 106.655 101.936 106.735C101.886 106.815 101.861 106.915 101.861 107.035C101.861 107.235 101.961 107.38 102.161 107.47C102.361 107.56 102.681 107.605 103.121 107.605H104.501C105.481 107.605 106.226 107.75 106.736 108.04C107.256 108.33 107.516 108.81 107.516 109.48C107.516 109.87 107.411 110.23 107.201 110.56C106.991 110.89 106.696 111.17 106.316 111.4C105.936 111.64 105.471 111.825 104.921 111.955C104.371 112.095 103.761 112.165 103.091 112.165C102.611 112.165 102.161 112.125 101.741 112.045C101.331 111.975 100.976 111.86 100.676 111.7C100.376 111.55 100.141 111.355 99.9705 111.115C99.8005 110.875 99.7155 110.59 99.7155 110.26ZM103.211 105.31C103.521 105.31 103.786 105.21 104.006 105.01C104.236 104.8 104.351 104.49 104.351 104.08C104.351 103.68 104.236 103.38 104.006 103.18C103.786 102.97 103.521 102.865 103.211 102.865C102.901 102.865 102.636 102.97 102.416 103.18C102.206 103.38 102.101 103.68 102.101 104.08C102.101 104.49 102.206 104.8 102.416 105.01C102.636 105.21 102.901 105.31 103.211 105.31ZM116.03 109.81V111.46H108.83V109.81H116.03ZM118.709 106.66C119.139 106.93 119.569 107.145 119.999 107.305C120.439 107.465 120.909 107.545 121.409 107.545C121.919 107.545 122.284 107.49 122.504 107.38C122.724 107.27 122.834 107.115 122.834 106.915C122.834 106.685 122.649 106.5 122.279 106.36C121.919 106.21 121.439 106.05 120.839 105.88C120.509 105.79 120.184 105.685 119.864 105.565C119.554 105.435 119.274 105.285 119.024 105.115C118.774 104.935 118.569 104.73 118.409 104.5C118.259 104.27 118.184 104.005 118.184 103.705C118.184 103.365 118.264 103.05 118.424 102.76C118.584 102.47 118.809 102.225 119.099 102.025C119.399 101.825 119.759 101.67 120.179 101.56C120.609 101.44 121.089 101.38 121.619 101.38C122.279 101.38 122.879 101.49 123.419 101.71C123.969 101.92 124.439 102.15 124.829 102.4L123.839 103.72C123.499 103.52 123.149 103.355 122.789 103.225C122.429 103.085 122.054 103.015 121.664 103.015C121.194 103.015 120.859 103.065 120.659 103.165C120.469 103.265 120.374 103.41 120.374 103.6C120.374 103.71 120.424 103.81 120.524 103.9C120.624 103.99 120.759 104.07 120.929 104.14C121.099 104.21 121.299 104.28 121.529 104.35C121.769 104.41 122.019 104.475 122.279 104.545C122.649 104.645 122.999 104.76 123.329 104.89C123.659 105.01 123.949 105.155 124.199 105.325C124.449 105.495 124.649 105.7 124.799 105.94C124.949 106.18 125.024 106.46 125.024 106.78C125.024 107.12 124.944 107.435 124.784 107.725C124.624 108.015 124.389 108.27 124.079 108.49C123.779 108.7 123.399 108.87 122.939 109C122.489 109.12 121.964 109.18 121.364 109.18C120.694 109.18 120.039 109.07 119.399 108.85C118.759 108.63 118.199 108.36 117.719 108.04L118.709 106.66ZM133.793 109H131.993L131.828 107.935H131.768C131.438 108.315 131.073 108.62 130.673 108.85C130.273 109.07 129.803 109.18 129.263 109.18C128.413 109.18 127.798 108.91 127.418 108.37C127.038 107.83 126.848 107.09 126.848 106.15V101.56H129.053V105.865C129.053 106.365 129.128 106.73 129.278 106.96C129.428 107.19 129.713 107.305 130.133 107.305C130.413 107.305 130.658 107.245 130.868 107.125C131.088 107.005 131.328 106.78 131.588 106.45V101.56H133.793V109ZM135.452 101.56H137.102L137.267 102.49H137.327C137.467 102.18 137.657 101.92 137.897 101.71C138.147 101.49 138.487 101.38 138.917 101.38C139.247 101.38 139.522 101.485 139.742 101.695C139.972 101.895 140.132 102.195 140.222 102.595C140.362 102.255 140.562 101.97 140.822 101.74C141.092 101.5 141.437 101.38 141.857 101.38C142.377 101.38 142.782 101.595 143.072 102.025C143.362 102.445 143.507 103.03 143.507 103.78V109H141.437V103.945C141.437 103.485 141.297 103.255 141.017 103.255C140.747 103.255 140.517 103.495 140.327 103.975V109H138.632V103.945C138.632 103.485 138.487 103.255 138.197 103.255C138.057 103.255 137.937 103.315 137.837 103.435C137.737 103.555 137.632 103.735 137.522 103.975V109H135.452V101.56ZM145.796 110.71C146.246 110.28 146.631 109.84 146.951 109.39C147.271 108.95 147.531 108.49 147.731 108.01C147.941 107.53 148.096 107.03 148.196 106.51C148.296 105.98 148.346 105.42 148.346 104.83C148.346 103.65 148.141 102.595 147.731 101.665C147.331 100.725 146.686 99.82 145.796 98.95L147.026 97.975C148.006 98.845 148.776 99.85 149.336 100.99C149.906 102.13 150.191 103.41 150.191 104.83C150.191 106.25 149.906 107.53 149.336 108.67C148.776 109.81 148.006 110.815 147.026 111.685L145.796 110.71Z" transform="translate(7 36)" fill="white"/>
<path d="M121.424 15.18C120.874 15.18 120.374 15.075 119.924 14.865C119.474 14.645 119.089 14.325 118.769 13.905C118.449 13.485 118.199 12.965 118.019 12.345C117.849 11.725 117.764 11.01 117.764 10.2C117.764 9.39 117.849 8.68 118.019 8.07C118.199 7.46 118.449 6.95 118.769 6.54C119.089 6.12 119.474 5.81 119.924 5.61C120.374 5.4 120.874 5.295 121.424 5.295C121.974 5.295 122.474 5.4 122.924 5.61C123.374 5.81 123.759 6.12 124.079 6.54C124.399 6.95 124.644 7.46 124.814 8.07C124.994 8.68 125.084 9.39 125.084 10.2C125.084 11.01 124.994 11.725 124.814 12.345C124.644 12.965 124.399 13.485 124.079 13.905C123.759 14.325 123.374 14.645 122.924 14.865C122.474 15.075 121.974 15.18 121.424 15.18ZM121.424 7.005C121.184 7.005 120.959 7.055 120.749 7.155C120.549 7.255 120.374 7.43 120.224 7.68C120.074 7.92 119.954 8.245 119.864 8.655C119.774 9.065 119.729 9.58 119.729 10.2C119.729 10.82 119.774 11.34 119.864 11.76C119.954 12.17 120.074 12.505 120.224 12.765C120.374 13.015 120.549 13.195 120.749 13.305C120.959 13.415 121.184 13.47 121.424 13.47C121.664 13.47 121.884 13.415 122.084 13.305C122.294 13.195 122.474 13.015 122.624 12.765C122.774 12.505 122.894 12.17 122.984 11.76C123.074 11.34 123.119 10.82 123.119 10.2C123.119 9.58 123.074 9.065 122.984 8.655C122.894 8.245 122.774 7.92 122.624 7.68C122.474 7.43 122.294 7.255 122.084 7.155C121.884 7.055 121.664 7.005 121.424 7.005ZM121.424 11.31C121.104 11.31 120.834 11.21 120.614 11.01C120.404 10.8 120.299 10.52 120.299 10.17C120.299 9.82 120.404 9.545 120.614 9.345C120.834 9.135 121.104 9.03 121.424 9.03C121.744 9.03 122.009 9.135 122.219 9.345C122.439 9.545 122.549 9.82 122.549 10.17C122.549 10.52 122.439 10.8 122.219 11.01C122.009 11.21 121.744 11.31 121.424 11.31ZM196.932 32.215V34H190.107V32.215H192.567V26.71H190.602V25.345C191.162 25.245 191.637 25.125 192.027 24.985C192.427 24.845 192.802 24.675 193.152 24.475H194.772V32.215H196.932ZM209.76 52C209.8 51.21 209.875 50.485 209.985 49.825C210.105 49.155 210.27 48.52 210.48 47.92C210.7 47.31 210.98 46.72 211.32 46.15C211.66 45.57 212.08 44.965 212.58 44.335H207.795V42.475H214.95V43.825C214.35 44.495 213.865 45.125 213.495 45.715C213.125 46.295 212.835 46.9 212.625 47.53C212.415 48.15 212.265 48.82 212.175 49.54C212.085 50.25 212.02 51.07 211.98 52H209.76Z" transform="translate(7 36)" fill="#F0E442"/>
<path d="M8.355 25.33C7.865 25.14 7.345 25.045 6.795 25.045C6.315 25.045 5.96 25.15 5.73 25.36C5.51 25.57 5.4 25.9 5.4 26.35V26.56H7.965V28.285H5.4V34H3.195V28.285H1.23V26.65L3.195 26.56V26.365C3.195 25.935 3.26 25.535 3.39 25.165C3.52 24.795 3.72 24.475 3.99 24.205C4.26 23.925 4.605 23.705 5.025 23.545C5.445 23.385 5.945 23.305 6.525 23.305C6.955 23.305 7.355 23.345 7.725 23.425C8.105 23.505 8.455 23.6 8.775 23.71L8.355 25.33ZM9.69914 30.28C9.69914 29.66 9.80414 29.11 10.0141 28.63C10.2241 28.14 10.5041 27.73 10.8541 27.4C11.2141 27.07 11.6191 26.82 12.0691 26.65C12.5291 26.47 13.0041 26.38 13.4941 26.38C13.9841 26.38 14.4541 26.47 14.9041 26.65C15.3641 26.82 15.7691 27.07 16.1191 27.4C16.4791 27.73 16.7641 28.14 16.9741 28.63C17.1841 29.11 17.2891 29.66 17.2891 30.28C17.2891 30.9 17.1841 31.455 16.9741 31.945C16.7641 32.425 16.4791 32.83 16.1191 33.16C15.7691 33.49 15.3641 33.745 14.9041 33.925C14.4541 34.095 13.9841 34.18 13.4941 34.18C13.0041 34.18 12.5291 34.095 12.0691 33.925C11.6191 33.745 11.2141 33.49 10.8541 33.16C10.5041 32.83 10.2241 32.425 10.0141 31.945C9.80414 31.455 9.69914 30.9 9.69914 30.28ZM11.9641 30.28C11.9641 30.93 12.0891 31.445 12.3391 31.825C12.5991 32.205 12.9841 32.395 13.4941 32.395C14.0041 32.395 14.3841 32.205 14.6341 31.825C14.8941 31.445 15.0241 30.93 15.0241 30.28C15.0241 29.63 14.8941 29.115 14.6341 28.735C14.3841 28.355 14.0041 28.165 13.4941 28.165C12.9841 28.165 12.5991 28.355 12.3391 28.735C12.0891 29.115 11.9641 29.63 11.9641 30.28ZM19.7283 26.56H21.5283L21.7083 28.18H21.7533C22.1233 27.57 22.5683 27.12 23.0883 26.83C23.6083 26.53 24.1683 26.38 24.7683 26.38C25.0983 26.38 25.3633 26.405 25.5633 26.455C25.7733 26.505 25.9883 26.58 26.2083 26.68L25.7583 28.525C25.5283 28.455 25.3183 28.405 25.1283 28.375C24.9483 28.335 24.7183 28.315 24.4383 28.315C23.9783 28.315 23.5233 28.45 23.0733 28.72C22.6333 28.99 22.2533 29.46 21.9333 30.13V34H19.7283V26.56ZM73.1381 26.56H78.3281V34H76.1231V28.285H73.1381V26.56ZM77.1281 25.465C76.6981 25.465 76.3431 25.345 76.0631 25.105C75.7931 24.865 75.6581 24.54 75.6581 24.13C75.6581 23.72 75.7931 23.39 76.0631 23.14C76.3431 22.88 76.6981 22.75 77.1281 22.75C77.5581 22.75 77.9081 22.88 78.1781 23.14C78.4581 23.39 78.5981 23.72 78.5981 24.13C78.5981 24.54 78.4581 24.865 78.1781 25.105C77.9081 25.345 77.5581 25.465 77.1281 25.465ZM82.0273 26.56H83.8273L83.9923 27.55H84.0523C84.3723 27.23 84.7373 26.955 85.1473 26.725C85.5673 26.495 86.0573 26.38 86.6173 26.38C87.4573 26.38 88.0723 26.65 88.4623 27.19C88.8523 27.73 89.0473 28.47 89.0473 29.41V34H86.8423V29.695C86.8423 29.195 86.7623 28.83 86.6023 28.6C86.4423 28.37 86.1573 28.255 85.7473 28.255C85.4473 28.255 85.1823 28.32 84.9523 28.45C84.7323 28.58 84.4923 28.775 84.2323 29.035V34H82.0273V26.56Z" transform="translate(7 36)" fill="#E69F00"/>
<path d="M125.279 43.33C124.789 43.14 124.269 43.045 123.719 43.045C123.239 43.045 122.884 43.15 122.654 43.36C122.434 43.57 122.324 43.9 122.324 44.35V44.56H124.889V46.285H122.324V52H120.119V46.285H118.154V44.65L120.119 44.56V44.365C120.119 43.935 120.184 43.535 120.314 43.165C120.444 42.795 120.644 42.475 120.914 42.205C121.184 41.925 121.529 41.705 121.949 41.545C122.369 41.385 122.869 41.305 123.449 41.305C123.879 41.305 124.279 41.345 124.649 41.425C125.029 41.505 125.379 41.6 125.699 41.71L125.279 43.33ZM126.848 41.485H131.213V49.18C131.213 49.41 131.243 49.605 131.303 49.765C131.373 49.915 131.463 50.04 131.573 50.14C131.693 50.23 131.823 50.295 131.963 50.335C132.113 50.375 132.263 50.395 132.413 50.395C132.583 50.395 132.763 50.38 132.953 50.35C133.143 50.31 133.353 50.245 133.583 50.155L134.078 51.775C133.878 51.835 133.693 51.89 133.523 51.94C133.353 51.99 133.183 52.03 133.013 52.06C132.843 52.1 132.663 52.13 132.473 52.15C132.283 52.17 132.073 52.18 131.843 52.18C130.903 52.18 130.193 51.905 129.713 51.355C129.243 50.795 129.008 50.04 129.008 49.09V43.225H126.848V41.485ZM135.617 48.28C135.617 47.66 135.722 47.11 135.932 46.63C136.142 46.14 136.422 45.73 136.772 45.4C137.132 45.07 137.537 44.82 137.987 44.65C138.447 44.47 138.922 44.38 139.412 44.38C139.902 44.38 140.372 44.47 140.822 44.65C141.282 44.82 141.687 45.07 142.037 45.4C142.397 45.73 142.682 46.14 142.892 46.63C143.102 47.11 143.207 47.66 143.207 48.28C143.207 48.9 143.102 49.455 142.892 49.945C142.682 50.425 142.397 50.83 142.037 51.16C141.687 51.49 141.282 51.745 140.822 51.925C140.372 52.095 139.902 52.18 139.412 52.18C138.922 52.18 138.447 52.095 137.987 51.925C137.537 51.745 137.132 51.49 136.772 51.16C136.422 50.83 136.142 50.425 135.932 49.945C135.722 49.455 135.617 48.9 135.617 48.28ZM137.882 48.28C137.882 48.93 138.007 49.445 138.257 49.825C138.517 50.205 138.902 50.395 139.412 50.395C139.922 50.395 140.302 50.205 140.552 49.825C140.812 49.445 140.942 48.93 140.942 48.28C140.942 47.63 140.812 47.115 140.552 46.735C140.302 46.355 139.922 46.165 139.412 46.165C138.902 46.165 138.517 46.355 138.257 46.735C138.007 47.115 137.882 47.63 137.882 48.28ZM144.821 49.93C144.821 49.51 144.911 49.145 145.091 48.835C145.271 48.515 145.556 48.245 145.946 48.025C146.346 47.805 146.856 47.63 147.476 47.5C148.096 47.36 148.846 47.265 149.726 47.215C149.686 46.875 149.536 46.61 149.276 46.42C149.026 46.23 148.646 46.135 148.136 46.135C147.776 46.135 147.411 46.2 147.041 46.33C146.681 46.45 146.291 46.615 145.871 46.825L145.091 45.385C145.601 45.095 146.146 44.855 146.726 44.665C147.316 44.475 147.931 44.38 148.571 44.38C149.611 44.38 150.431 44.655 151.031 45.205C151.631 45.755 151.931 46.6 151.931 47.74V52H150.131L149.966 51.16H149.906C149.526 51.45 149.111 51.695 148.661 51.895C148.211 52.085 147.746 52.18 147.266 52.18C146.886 52.18 146.546 52.12 146.246 52C145.946 51.89 145.691 51.735 145.481 51.535C145.271 51.325 145.106 51.085 144.986 50.815C144.876 50.545 144.821 50.25 144.821 49.93ZM146.936 49.765C146.936 50.005 147.026 50.185 147.206 50.305C147.396 50.415 147.651 50.47 147.971 50.47C148.301 50.47 148.611 50.405 148.901 50.275C149.191 50.135 149.466 49.965 149.726 49.765V48.535C149.176 48.565 148.721 48.615 148.361 48.685C148.001 48.755 147.716 48.845 147.506 48.955C147.296 49.055 147.146 49.175 147.056 49.315C146.976 49.455 146.936 49.605 146.936 49.765ZM155.51 46.285H153.635V44.65L155.615 44.56L155.9 42.58H157.715V44.56H160.865V46.285H157.715V48.895C157.715 49.465 157.84 49.87 158.09 50.11C158.34 50.34 158.735 50.455 159.275 50.455C159.565 50.455 159.83 50.43 160.07 50.38C160.31 50.33 160.54 50.265 160.76 50.185L161.15 51.775C160.82 51.875 160.45 51.965 160.04 52.045C159.64 52.135 159.2 52.18 158.72 52.18C158.13 52.18 157.63 52.1 157.22 51.94C156.81 51.78 156.475 51.56 156.215 51.28C155.965 50.99 155.785 50.645 155.675 50.245C155.565 49.845 155.51 49.4 155.51 48.91V46.285ZM3.285 109.585V111.76H1.08V101.56H2.88L3.045 102.31H3.09C3.39 102.04 3.735 101.82 4.125 101.65C4.515 101.47 4.91 101.38 5.31 101.38C5.77 101.38 6.185 101.47 6.555 101.65C6.925 101.83 7.24 102.085 7.5 102.415C7.76 102.745 7.955 103.145 8.085 103.615C8.225 104.075 8.295 104.59 8.295 105.16C8.295 105.8 8.205 106.37 8.025 106.87C7.845 107.36 7.605 107.78 7.305 108.13C7.005 108.47 6.66 108.73 6.27 108.91C5.89 109.09 5.49 109.18 5.07 109.18C4.39 109.18 3.77 108.91 3.21 108.37L3.285 109.585ZM3.285 106.885C3.495 107.065 3.71 107.195 3.93 107.275C4.16 107.345 4.37 107.38 4.56 107.38C4.98 107.38 5.33 107.21 5.61 106.87C5.89 106.52 6.03 105.96 6.03 105.19C6.03 103.85 5.575 103.18 4.665 103.18C4.195 103.18 3.735 103.41 3.285 103.87V106.885ZM10.7341 101.56H12.5341L12.7141 103.18H12.7591C13.1291 102.57 13.5741 102.12 14.0941 101.83C14.6141 101.53 15.1741 101.38 15.7741 101.38C16.1041 101.38 16.3691 101.405 16.5691 101.455C16.7791 101.505 16.9941 101.58 17.2141 101.68L16.7641 103.525C16.5341 103.455 16.3241 103.405 16.1341 103.375C15.9541 103.335 15.7241 103.315 15.4441 103.315C14.9841 103.315 14.5291 103.45 14.0791 103.72C13.6391 103.99 13.2591 104.46 12.9391 105.13V109H10.7341V101.56ZM19.1733 101.56H24.3633V109H22.1583V103.285H19.1733V101.56ZM23.1633 100.465C22.7333 100.465 22.3783 100.345 22.0983 100.105C21.8283 99.865 21.6933 99.54 21.6933 99.13C21.6933 98.72 21.8283 98.39 22.0983 98.14C22.3783 97.88 22.7333 97.75 23.1633 97.75C23.5933 97.75 23.9433 97.88 24.2133 98.14C24.4933 98.39 24.6333 98.72 24.6333 99.13C24.6333 99.54 24.4933 99.865 24.2133 100.105C23.9433 100.345 23.5933 100.465 23.1633 100.465ZM28.0624 101.56H29.8624L30.0274 102.55H30.0874C30.4074 102.23 30.7724 101.955 31.1824 101.725C31.6024 101.495 32.0924 101.38 32.6524 101.38C33.4924 101.38 34.1074 101.65 34.4974 102.19C34.8874 102.73 35.0824 103.47 35.0824 104.41V109H32.8774V104.695C32.8774 104.195 32.7974 103.83 32.6374 103.6C32.4774 103.37 32.1924 103.255 31.7824 103.255C31.4824 103.255 31.2174 103.32 30.9874 103.45C30.7674 103.58 30.5274 103.775 30.2674 104.035V109H28.0624V101.56ZM38.5866 103.285H36.7116V101.65L38.6916 101.56L38.9766 99.58H40.7916V101.56H43.9416V103.285H40.7916V105.895C40.7916 106.465 40.9166 106.87 41.1666 107.11C41.4166 107.34 41.8116 107.455 42.3516 107.455C42.6416 107.455 42.9066 107.43 43.1466 107.38C43.3866 107.33 43.6166 107.265 43.8366 107.185L44.2266 108.775C43.8966 108.875 43.5266 108.965 43.1166 109.045C42.7166 109.135 42.2766 109.18 41.7966 109.18C41.2066 109.18 40.7066 109.1 40.2966 108.94C39.8866 108.78 39.5516 108.56 39.2916 108.28C39.0416 107.99 38.8616 107.645 38.7516 107.245C38.6416 106.845 38.5866 106.4 38.5866 105.91V103.285Z" transform="translate(7 36)" fill="#56B4E9"/>
</svg>
