<svg width="242" height="186" viewBox="0 0 242 186" fill="none" xmlns="http://www.w3.org/2000/svg">
<rect width="242" height="186" fill="black"/>
<path d="M7.87 155.74C8.55 155.17 9.17 154.64 9.73 154.15C10.29 153.65 10.77 153.185 11.17 152.755C11.57 152.325 11.88 151.92 12.1 151.54C12.32 151.16 12.43 150.8 12.43 150.46C12.43 149.99 12.295 149.635 12.025 149.395C11.755 149.145 11.37 149.02 10.87 149.02C10.49 149.02 10.14 149.12 9.82 149.32C9.51 149.51 9.22 149.735 8.95 149.995L7.765 148.81C8.015 148.56 8.26 148.34 8.5 148.15C8.75 147.96 9.01 147.805 9.28 147.685C9.56 147.555 9.85 147.46 10.15 147.4C10.46 147.33 10.8 147.295 11.17 147.295C11.67 147.295 12.125 147.37 12.535 147.52C12.945 147.66 13.295 147.865 13.585 148.135C13.885 148.395 14.115 148.71 14.275 149.08C14.445 149.45 14.53 149.865 14.53 150.325C14.53 150.725 14.435 151.135 14.245 151.555C14.055 151.965 13.795 152.38 13.465 152.8C13.145 153.21 12.775 153.625 12.355 154.045C11.935 154.455 11.495 154.86 11.035 155.26C11.305 155.23 11.595 155.205 11.905 155.185C12.225 155.155 12.51 155.14 12.76 155.14H15.025V157H7.87V155.74ZM9.895 176C9.935 175.21 10.01 174.485 10.12 173.825C10.24 173.155 10.405 172.52 10.615 171.92C10.835 171.31 11.115 170.72 11.455 170.15C11.795 169.57 12.215 168.965 12.715 168.335H7.93V166.475H15.085V167.825C14.485 168.495 14 169.125 13.63 169.715C13.26 170.295 12.97 170.9 12.76 171.53C12.55 172.15 12.4 172.82 12.31 173.54C12.22 174.25 12.155 175.07 12.115 176H9.895ZM20.4941 176.18C19.9441 176.18 19.4441 176.075 18.9941 175.865C18.5441 175.645 18.1591 175.325 17.8391 174.905C17.5191 174.485 17.2691 173.965 17.0891 173.345C16.9191 172.725 16.8341 172.01 16.8341 171.2C16.8341 170.39 16.9191 169.68 17.0891 169.07C17.2691 168.46 17.5191 167.95 17.8391 167.54C18.1591 167.12 18.5441 166.81 18.9941 166.61C19.4441 166.4 19.9441 166.295 20.4941 166.295C21.0441 166.295 21.5441 166.4 21.9941 166.61C22.4441 166.81 22.8291 167.12 23.1491 167.54C23.4691 167.95 23.7141 168.46 23.8841 169.07C24.0641 169.68 24.1541 170.39 24.1541 171.2C24.1541 172.01 24.0641 172.725 23.8841 173.345C23.7141 173.965 23.4691 174.485 23.1491 174.905C22.8291 175.325 22.4441 175.645 21.9941 175.865C21.5441 176.075 21.0441 176.18 20.4941 176.18ZM20.4941 168.005C20.2541 168.005 20.0291 168.055 19.8191 168.155C19.6191 168.255 19.4441 168.43 19.2941 168.68C19.1441 168.92 19.0241 169.245 18.9341 169.655C18.8441 170.065 18.7991 170.58 18.7991 171.2C18.7991 171.82 18.8441 172.34 18.9341 172.76C19.0241 173.17 19.1441 173.505 19.2941 173.765C19.4441 174.015 19.6191 174.195 19.8191 174.305C20.0291 174.415 20.2541 174.47 20.4941 174.47C20.7341 174.47 20.9541 174.415 21.1541 174.305C21.3641 174.195 21.5441 174.015 21.6941 173.765C21.8441 173.505 21.9641 173.17 22.0541 172.76C22.1441 172.34 22.1891 171.82 22.1891 171.2C22.1891 170.58 22.1441 170.065 22.0541 169.655C21.9641 169.245 21.8441 168.92 21.6941 168.68C21.5441 168.43 21.3641 168.255 21.1541 168.155C20.9541 168.055 20.7341 168.005 20.4941 168.005ZM20.4941 172.31C20.1741 172.31 19.9041 172.21 19.6841 172.01C19.4741 171.8 19.3691 171.52 19.3691 171.17C19.3691 170.82 19.4741 170.545 19.6841 170.345C19.9041 170.135 20.1741 170.03 20.4941 170.03C20.8141 170.03 21.0791 170.135 21.2891 170.345C21.5091 170.545 21.6191 170.82 21.6191 171.17C21.6191 171.52 21.5091 171.8 21.2891 172.01C21.0791 172.21 20.8141 172.31 20.4941 172.31Z" fill="white"/>
<path d="M11.5 138.18C10.92 138.18 10.385 138.065 9.895 137.835C9.415 137.595 9 137.255 8.65 136.815C8.31 136.375 8.045 135.84 7.855 135.21C7.665 134.58 7.57 133.865 7.57 133.065C7.57 132.265 7.665 131.555 7.855 130.935C8.045 130.305 8.31 129.78 8.65 129.36C9 128.93 9.415 128.605 9.895 128.385C10.385 128.155 10.92 128.04 11.5 128.04C12.08 128.04 12.61 128.155 13.09 128.385C13.58 128.605 13.995 128.93 14.335 129.36C14.685 129.79 14.955 130.32 15.145 130.95C15.335 131.57 15.43 132.275 15.43 133.065C15.43 133.865 15.335 134.58 15.145 135.21C14.955 135.84 14.685 136.375 14.335 136.815C13.995 137.255 13.58 137.595 13.09 137.835C12.61 138.065 12.08 138.18 11.5 138.18ZM11.5 136.275C12.01 136.275 12.415 135.99 12.715 135.42C13.015 134.84 13.165 134.055 13.165 133.065C13.165 132.085 13.015 131.32 12.715 130.77C12.415 130.22 12.01 129.945 11.5 129.945C10.99 129.945 10.585 130.22 10.285 130.77C9.985 131.32 9.835 132.085 9.835 133.065C9.835 134.055 9.985 134.84 10.285 135.42C10.585 135.99 10.99 136.275 11.5 136.275ZM23.8691 138H22.0691L21.9041 136.935H21.8441C21.5141 137.315 21.1491 137.62 20.7491 137.85C20.3491 138.07 19.8791 138.18 19.3391 138.18C18.4891 138.18 17.8741 137.91 17.4941 137.37C17.1141 136.83 16.9241 136.09 16.9241 135.15V130.56H19.1291V134.865C19.1291 135.365 19.2041 135.73 19.3541 135.96C19.5041 136.19 19.7891 136.305 20.2091 136.305C20.4891 136.305 20.7341 136.245 20.9441 136.125C21.1641 136.005 21.4041 135.78 21.6641 135.45V130.56H23.8691V138ZM27.5983 132.285H25.7233V130.65L27.7033 130.56L27.9883 128.58H29.8033V130.56H32.9533V132.285H29.8033V134.895C29.8033 135.465 29.9283 135.87 30.1783 136.11C30.4283 136.34 30.8233 136.455 31.3633 136.455C31.6533 136.455 31.9183 136.43 32.1583 136.38C32.3983 136.33 32.6283 136.265 32.8483 136.185L33.2383 137.775C32.9083 137.875 32.5383 137.965 32.1283 138.045C31.7283 138.135 31.2883 138.18 30.8083 138.18C30.2183 138.18 29.7183 138.1 29.3083 137.94C28.8983 137.78 28.5633 137.56 28.3033 137.28C28.0533 136.99 27.8733 136.645 27.7633 136.245C27.6533 135.845 27.5983 135.4 27.5983 134.91V132.285ZM37.2674 138.585V140.76H35.0624V130.56H36.8624L37.0274 131.31H37.0724C37.3724 131.04 37.7174 130.82 38.1074 130.65C38.4974 130.47 38.8924 130.38 39.2924 130.38C39.7524 130.38 40.1674 130.47 40.5374 130.65C40.9074 130.83 41.2224 131.085 41.4824 131.415C41.7424 131.745 41.9374 132.145 42.0674 132.615C42.2074 133.075 42.2774 133.59 42.2774 134.16C42.2774 134.8 42.1874 135.37 42.0074 135.87C41.8274 136.36 41.5874 136.78 41.2874 137.13C40.9874 137.47 40.6424 137.73 40.2524 137.91C39.8724 138.09 39.4724 138.18 39.0524 138.18C38.3724 138.18 37.7524 137.91 37.1924 137.37L37.2674 138.585ZM37.2674 135.885C37.4774 136.065 37.6924 136.195 37.9124 136.275C38.1424 136.345 38.3524 136.38 38.5424 136.38C38.9624 136.38 39.3124 136.21 39.5924 135.87C39.8724 135.52 40.0124 134.96 40.0124 134.19C40.0124 132.85 39.5574 132.18 38.6474 132.18C38.1774 132.18 37.7174 132.41 37.2674 132.87V135.885ZM50.8516 138H49.0516L48.8866 136.935H48.8266C48.4966 137.315 48.1316 137.62 47.7316 137.85C47.3316 138.07 46.8616 138.18 46.3216 138.18C45.4716 138.18 44.8566 137.91 44.4766 137.37C44.0966 136.83 43.9066 136.09 43.9066 135.15V130.56H46.1116V134.865C46.1116 135.365 46.1866 135.73 46.3366 135.96C46.4866 136.19 46.7716 136.305 47.1916 136.305C47.4716 136.305 47.7166 136.245 47.9266 136.125C48.1466 136.005 48.3866 135.78 48.6466 135.45V130.56H50.8516V138ZM54.5807 132.285H52.7057V130.65L54.6857 130.56L54.9707 128.58H56.7857V130.56H59.9357V132.285H56.7857V134.895C56.7857 135.465 56.9107 135.87 57.1607 136.11C57.4107 136.34 57.8057 136.455 58.3457 136.455C58.6357 136.455 58.9007 136.43 59.1407 136.38C59.3807 136.33 59.6107 136.265 59.8307 136.185L60.2207 137.775C59.8907 137.875 59.5207 137.965 59.1107 138.045C58.7107 138.135 58.2707 138.18 57.7907 138.18C57.2007 138.18 56.7007 138.1 56.2907 137.94C55.8807 137.78 55.5457 137.56 55.2857 137.28C55.0357 136.99 54.8557 136.645 54.7457 136.245C54.6357 135.845 54.5807 135.4 54.5807 134.91V132.285Z" fill="white"/>
<rect x="96.75" width="145.25" height="30.6018" fill="#333333"/>
<rect x="96.75" width="145.25" height="30.6018" fill="#333333"/>
<rect width="97.1974" height="30.6018" fill="#090808"/>
<path d="M18.105 17.8101C18.105 17.5513 17.9756 17.3486 17.7168 17.2021C17.4629 17.0508 17.0527 16.9165 16.4863 16.7993C14.6016 16.4038 13.6592 15.603 13.6592 14.397C13.6592 13.6938 13.9497 13.1079 14.5308 12.6392C15.1167 12.1655 15.8809 11.9287 16.8232 11.9287C17.8291 11.9287 18.6323 12.1655 19.2329 12.6392C19.8384 13.1128 20.1411 13.728 20.1411 14.4849H18.0244C18.0244 14.1821 17.9268 13.9331 17.7314 13.7378C17.5361 13.5376 17.231 13.4375 16.8159 13.4375C16.4595 13.4375 16.1836 13.5181 15.9883 13.6792C15.793 13.8403 15.6953 14.0454 15.6953 14.2944C15.6953 14.5288 15.8052 14.7192 16.0249 14.8657C16.2495 15.0073 16.6255 15.1318 17.1528 15.2393C17.6802 15.3418 18.1245 15.459 18.4858 15.5908C19.604 16.001 20.1631 16.7114 20.1631 17.7222C20.1631 18.4448 19.853 19.0308 19.2329 19.48C18.6128 19.9243 17.812 20.1465 16.8306 20.1465C16.1665 20.1465 15.5757 20.0293 15.0581 19.7949C14.5454 19.5557 14.1426 19.231 13.8496 18.8208C13.5566 18.4058 13.4102 17.959 13.4102 17.4805H15.417C15.4365 17.8564 15.5757 18.1445 15.8345 18.3447C16.0933 18.5449 16.4399 18.645 16.8745 18.645C17.2798 18.645 17.585 18.5693 17.79 18.418C18 18.2617 18.105 18.0591 18.105 17.8101ZM24.8286 18.4399C25.2192 18.4399 25.5366 18.3325 25.7808 18.1177C26.0249 17.9028 26.1519 17.6172 26.1616 17.2607H28.1465C28.1416 17.7979 27.9951 18.291 27.707 18.7402C27.4189 19.1846 27.0234 19.5312 26.5205 19.7803C26.0225 20.0244 25.4707 20.1465 24.8652 20.1465C23.7324 20.1465 22.8389 19.7876 22.1846 19.0698C21.5303 18.3472 21.2031 17.3511 21.2031 16.0815V15.9424C21.2031 14.7217 21.5278 13.7476 22.1772 13.02C22.8267 12.2925 23.7178 11.9287 24.8506 11.9287C25.8418 11.9287 26.6353 12.2119 27.231 12.7783C27.8315 13.3398 28.1367 14.0894 28.1465 15.0269H26.1616C26.1519 14.6167 26.0249 14.2847 25.7808 14.0308C25.5366 13.772 25.2144 13.6426 24.814 13.6426C24.3208 13.6426 23.9473 13.8232 23.6934 14.1846C23.4443 14.541 23.3198 15.1221 23.3198 15.9277V16.1475C23.3198 16.9629 23.4443 17.5488 23.6934 17.9053C23.9424 18.2617 24.3208 18.4399 24.8286 18.4399ZM33.8081 14.0601C33.52 14.021 33.2661 14.0015 33.0464 14.0015C32.2456 14.0015 31.7207 14.2725 31.4717 14.8145V20H29.355V12.0752H31.3545L31.4131 13.02C31.8379 12.2925 32.4263 11.9287 33.1782 11.9287C33.4126 11.9287 33.6323 11.9604 33.8374 12.0239L33.8081 14.0601ZM37.0674 20H34.9434V12.0752H37.0674V20ZM34.8188 10.0244C34.8188 9.70703 34.9238 9.4458 35.1338 9.24072C35.3486 9.03564 35.6392 8.93311 36.0054 8.93311C36.3667 8.93311 36.6548 9.03564 36.8696 9.24072C37.0845 9.4458 37.1919 9.70703 37.1919 10.0244C37.1919 10.3467 37.082 10.6104 36.8623 10.8154C36.6475 11.0205 36.3618 11.123 36.0054 11.123C35.6489 11.123 35.3608 11.0205 35.1411 10.8154C34.9263 10.6104 34.8188 10.3467 34.8188 10.0244ZM45.9517 16.1108C45.9517 17.3315 45.6733 18.3105 45.1167 19.0479C44.5649 19.7803 43.8179 20.1465 42.8755 20.1465C42.0747 20.1465 41.4277 19.8682 40.9346 19.3115V23.0469H38.8179V12.0752H40.7808L40.854 12.8516C41.3667 12.2363 42.0356 11.9287 42.8608 11.9287C43.8374 11.9287 44.5967 12.29 45.1387 13.0127C45.6807 13.7354 45.9517 14.7314 45.9517 16.001V16.1108ZM43.835 15.957C43.835 15.2197 43.7031 14.6509 43.4395 14.2505C43.1807 13.8501 42.8022 13.6499 42.3042 13.6499C41.6401 13.6499 41.1836 13.9038 40.9346 14.4116V17.6562C41.1934 18.1787 41.6548 18.4399 42.3188 18.4399C43.3296 18.4399 43.835 17.6123 43.835 15.957ZM49.8042 10.127V12.0752H51.1592V13.6279H49.8042V17.583C49.8042 17.876 49.8604 18.0859 49.9727 18.2129C50.085 18.3398 50.2998 18.4033 50.6172 18.4033C50.8516 18.4033 51.0591 18.3862 51.2397 18.3521V19.9561C50.8247 20.083 50.3975 20.1465 49.958 20.1465C48.4736 20.1465 47.7168 19.397 47.6875 17.8979V13.6279H46.5303V12.0752H47.6875V10.127H49.8042ZM52.4482 18.96C52.4482 18.623 52.5605 18.3496 52.7852 18.1396C53.0146 17.9297 53.3003 17.8247 53.6421 17.8247C53.9888 17.8247 54.2744 17.9297 54.499 18.1396C54.7285 18.3496 54.8433 18.623 54.8433 18.96C54.8433 19.292 54.731 19.563 54.5063 19.7729C54.2817 19.978 53.9937 20.0806 53.6421 20.0806C53.2954 20.0806 53.0098 19.978 52.7852 19.7729C52.5605 19.563 52.4482 19.292 52.4482 18.96ZM63.8374 16.1108C63.8374 17.3315 63.5591 18.3105 63.0024 19.0479C62.4507 19.7803 61.7036 20.1465 60.7612 20.1465C59.9604 20.1465 59.3135 19.8682 58.8203 19.3115V23.0469H56.7036V12.0752H58.6665L58.7397 12.8516C59.2524 12.2363 59.9214 11.9287 60.7466 11.9287C61.7231 11.9287 62.4824 12.29 63.0244 13.0127C63.5664 13.7354 63.8374 14.7314 63.8374 16.001V16.1108ZM61.7207 15.957C61.7207 15.2197 61.5889 14.6509 61.3252 14.2505C61.0664 13.8501 60.688 13.6499 60.1899 13.6499C59.5259 13.6499 59.0693 13.9038 58.8203 14.4116V17.6562C59.0791 18.1787 59.5405 18.4399 60.2046 18.4399C61.2153 18.4399 61.7207 17.6123 61.7207 15.957ZM68.0269 17.0044L69.4917 12.0752H71.7622L68.5762 21.2305L68.4004 21.6479C67.9268 22.6831 67.1455 23.2007 66.0566 23.2007C65.749 23.2007 65.4365 23.1543 65.1191 23.0615V21.4575L65.4414 21.4648C65.8418 21.4648 66.1396 21.4038 66.335 21.2817C66.5352 21.1597 66.6914 20.957 66.8037 20.6738L67.0527 20.022L64.2769 12.0752H66.5547L68.0269 17.0044Z" fill="white"/>
<line x1="0.000159942" y1="122.5" x2="242" y2="122.577" stroke="white"/>
<path d="M8.74 43.56H10.54L10.72 45.18H10.765C11.135 44.57 11.58 44.12 12.1 43.83C12.62 43.53 13.18 43.38 13.78 43.38C14.11 43.38 14.375 43.405 14.575 43.455C14.785 43.505 15 43.58 15.22 43.68L14.77 45.525C14.54 45.455 14.33 45.405 14.14 45.375C13.96 45.335 13.73 45.315 13.45 45.315C12.99 45.315 12.535 45.45 12.085 45.72C11.645 45.99 11.265 46.46 10.945 47.13V51H8.74V43.56ZM16.8191 47.28C16.8191 46.67 16.9241 46.125 17.1341 45.645C17.3541 45.165 17.6441 44.76 18.0041 44.43C18.3641 44.09 18.7741 43.83 19.2341 43.65C19.7041 43.47 20.1891 43.38 20.6891 43.38C21.2591 43.38 21.7641 43.47 22.2041 43.65C22.6441 43.83 23.0091 44.08 23.2991 44.4C23.5891 44.72 23.8091 45.1 23.9591 45.54C24.1091 45.97 24.1841 46.44 24.1841 46.95C24.1841 47.15 24.1741 47.34 24.1541 47.52C24.1341 47.7 24.1141 47.835 24.0941 47.925H19.0841C19.1641 48.485 19.4041 48.89 19.8041 49.14C20.2141 49.38 20.6941 49.5 21.2441 49.5C21.5841 49.5 21.9041 49.46 22.2041 49.38C22.5141 49.29 22.8341 49.16 23.1641 48.99L23.8841 50.31C23.4641 50.58 22.9941 50.795 22.4741 50.955C21.9541 51.105 21.4441 51.18 20.9441 51.18C20.3641 51.18 19.8241 51.095 19.3241 50.925C18.8241 50.745 18.3891 50.49 18.0191 50.16C17.6491 49.82 17.3541 49.41 17.1341 48.93C16.9241 48.45 16.8191 47.9 16.8191 47.28ZM22.1891 46.47C22.1891 46.05 22.0741 45.71 21.8441 45.45C21.6141 45.19 21.2441 45.06 20.7341 45.06C20.3341 45.06 19.9791 45.175 19.6691 45.405C19.3591 45.635 19.1541 45.99 19.0541 46.47H22.1891ZM26.7733 48.66C27.2033 48.93 27.6333 49.145 28.0633 49.305C28.5033 49.465 28.9733 49.545 29.4733 49.545C29.9833 49.545 30.3483 49.49 30.5683 49.38C30.7883 49.27 30.8983 49.115 30.8983 48.915C30.8983 48.685 30.7133 48.5 30.3433 48.36C29.9833 48.21 29.5033 48.05 28.9033 47.88C28.5733 47.79 28.2483 47.685 27.9283 47.565C27.6183 47.435 27.3383 47.285 27.0883 47.115C26.8383 46.935 26.6333 46.73 26.4733 46.5C26.3233 46.27 26.2483 46.005 26.2483 45.705C26.2483 45.365 26.3283 45.05 26.4883 44.76C26.6483 44.47 26.8733 44.225 27.1633 44.025C27.4633 43.825 27.8233 43.67 28.2433 43.56C28.6733 43.44 29.1533 43.38 29.6833 43.38C30.3433 43.38 30.9433 43.49 31.4833 43.71C32.0333 43.92 32.5033 44.15 32.8933 44.4L31.9033 45.72C31.5633 45.52 31.2133 45.355 30.8533 45.225C30.4933 45.085 30.1183 45.015 29.7283 45.015C29.2583 45.015 28.9233 45.065 28.7233 45.165C28.5333 45.265 28.4383 45.41 28.4383 45.6C28.4383 45.71 28.4883 45.81 28.5883 45.9C28.6883 45.99 28.8233 46.07 28.9933 46.14C29.1633 46.21 29.3633 46.28 29.5933 46.35C29.8333 46.41 30.0833 46.475 30.3433 46.545C30.7133 46.645 31.0633 46.76 31.3933 46.89C31.7233 47.01 32.0133 47.155 32.2633 47.325C32.5133 47.495 32.7133 47.7 32.8633 47.94C33.0133 48.18 33.0883 48.46 33.0883 48.78C33.0883 49.12 33.0083 49.435 32.8483 49.725C32.6883 50.015 32.4533 50.27 32.1433 50.49C31.8433 50.7 31.4633 50.87 31.0033 51C30.5533 51.12 30.0283 51.18 29.4283 51.18C28.7583 51.18 28.1033 51.07 27.4633 50.85C26.8233 50.63 26.2633 50.36 25.7833 50.04L26.7733 48.66ZM41.8574 51H40.0574L39.8924 49.935H39.8324C39.5024 50.315 39.1374 50.62 38.7374 50.85C38.3374 51.07 37.8674 51.18 37.3274 51.18C36.4774 51.18 35.8624 50.91 35.4824 50.37C35.1024 49.83 34.9124 49.09 34.9124 48.15V43.56H37.1174V47.865C37.1174 48.365 37.1924 48.73 37.3424 48.96C37.4924 49.19 37.7774 49.305 38.1974 49.305C38.4774 49.305 38.7224 49.245 38.9324 49.125C39.1524 49.005 39.3924 48.78 39.6524 48.45V43.56H41.8574V51ZM43.9066 40.485H48.2716V48.18C48.2716 48.41 48.3016 48.605 48.3616 48.765C48.4316 48.915 48.5216 49.04 48.6316 49.14C48.7516 49.23 48.8816 49.295 49.0216 49.335C49.1716 49.375 49.3216 49.395 49.4716 49.395C49.6416 49.395 49.8216 49.38 50.0116 49.35C50.2016 49.31 50.4116 49.245 50.6416 49.155L51.1366 50.775C50.9366 50.835 50.7516 50.89 50.5816 50.94C50.4116 50.99 50.2416 51.03 50.0716 51.06C49.9016 51.1 49.7216 51.13 49.5316 51.15C49.3416 51.17 49.1316 51.18 48.9016 51.18C47.9616 51.18 47.2516 50.905 46.7716 50.355C46.3016 49.795 46.0666 49.04 46.0666 48.09V42.225H43.9066V40.485ZM54.5807 45.285H52.7057V43.65L54.6857 43.56L54.9707 41.58H56.7857V43.56H59.9357V45.285H56.7857V47.895C56.7857 48.465 56.9107 48.87 57.1607 49.11C57.4107 49.34 57.8057 49.455 58.3457 49.455C58.6357 49.455 58.9007 49.43 59.1407 49.38C59.3807 49.33 59.6107 49.265 59.8307 49.185L60.2207 50.775C59.8907 50.875 59.5207 50.965 59.1107 51.045C58.7107 51.135 58.2707 51.18 57.7907 51.18C57.2007 51.18 56.7007 51.1 56.2907 50.94C55.8807 50.78 55.5457 50.56 55.2857 50.28C55.0357 49.99 54.8557 49.645 54.7457 49.245C54.6357 48.845 54.5807 48.4 54.5807 47.91V45.285ZM10.255 64.72H11.335C12.525 64.72 13.12 64.235 13.12 63.265C13.12 62.785 12.97 62.45 12.67 62.26C12.37 62.07 11.925 61.975 11.335 61.975H10.255V64.72ZM13.285 70L11.41 66.475H10.255V70H8.05V60.22H11.515C12.035 60.22 12.52 60.27 12.97 60.37C13.43 60.47 13.83 60.64 14.17 60.88C14.52 61.11 14.795 61.42 14.995 61.81C15.195 62.2 15.295 62.685 15.295 63.265C15.295 63.985 15.135 64.58 14.815 65.05C14.495 65.51 14.075 65.855 13.555 66.085L15.76 70H13.285ZM16.8191 66.28C16.8191 65.67 16.9241 65.125 17.1341 64.645C17.3541 64.165 17.6441 63.76 18.0041 63.43C18.3641 63.09 18.7741 62.83 19.2341 62.65C19.7041 62.47 20.1891 62.38 20.6891 62.38C21.2591 62.38 21.7641 62.47 22.2041 62.65C22.6441 62.83 23.0091 63.08 23.2991 63.4C23.5891 63.72 23.8091 64.1 23.9591 64.54C24.1091 64.97 24.1841 65.44 24.1841 65.95C24.1841 66.15 24.1741 66.34 24.1541 66.52C24.1341 66.7 24.1141 66.835 24.0941 66.925H19.0841C19.1641 67.485 19.4041 67.89 19.8041 68.14C20.2141 68.38 20.6941 68.5 21.2441 68.5C21.5841 68.5 21.9041 68.46 22.2041 68.38C22.5141 68.29 22.8341 68.16 23.1641 67.99L23.8841 69.31C23.4641 69.58 22.9941 69.795 22.4741 69.955C21.9541 70.105 21.4441 70.18 20.9441 70.18C20.3641 70.18 19.8241 70.095 19.3241 69.925C18.8241 69.745 18.3891 69.49 18.0191 69.16C17.6491 68.82 17.3541 68.41 17.1341 67.93C16.9241 67.45 16.8191 66.9 16.8191 66.28ZM22.1891 65.47C22.1891 65.05 22.0741 64.71 21.8441 64.45C21.6141 64.19 21.2441 64.06 20.7341 64.06C20.3341 64.06 19.9791 64.175 19.6691 64.405C19.3591 64.635 19.1541 64.99 19.0541 65.47H22.1891ZM26.7733 67.66C27.2033 67.93 27.6333 68.145 28.0633 68.305C28.5033 68.465 28.9733 68.545 29.4733 68.545C29.9833 68.545 30.3483 68.49 30.5683 68.38C30.7883 68.27 30.8983 68.115 30.8983 67.915C30.8983 67.685 30.7133 67.5 30.3433 67.36C29.9833 67.21 29.5033 67.05 28.9033 66.88C28.5733 66.79 28.2483 66.685 27.9283 66.565C27.6183 66.435 27.3383 66.285 27.0883 66.115C26.8383 65.935 26.6333 65.73 26.4733 65.5C26.3233 65.27 26.2483 65.005 26.2483 64.705C26.2483 64.365 26.3283 64.05 26.4883 63.76C26.6483 63.47 26.8733 63.225 27.1633 63.025C27.4633 62.825 27.8233 62.67 28.2433 62.56C28.6733 62.44 29.1533 62.38 29.6833 62.38C30.3433 62.38 30.9433 62.49 31.4833 62.71C32.0333 62.92 32.5033 63.15 32.8933 63.4L31.9033 64.72C31.5633 64.52 31.2133 64.355 30.8533 64.225C30.4933 64.085 30.1183 64.015 29.7283 64.015C29.2583 64.015 28.9233 64.065 28.7233 64.165C28.5333 64.265 28.4383 64.41 28.4383 64.6C28.4383 64.71 28.4883 64.81 28.5883 64.9C28.6883 64.99 28.8233 65.07 28.9933 65.14C29.1633 65.21 29.3633 65.28 29.5933 65.35C29.8333 65.41 30.0833 65.475 30.3433 65.545C30.7133 65.645 31.0633 65.76 31.3933 65.89C31.7233 66.01 32.0133 66.155 32.2633 66.325C32.5133 66.495 32.7133 66.7 32.8633 66.94C33.0133 67.18 33.0883 67.46 33.0883 67.78C33.0883 68.12 33.0083 68.435 32.8483 68.725C32.6883 69.015 32.4533 69.27 32.1433 69.49C31.8433 69.7 31.4633 69.87 31.0033 70C30.5533 70.12 30.0283 70.18 29.4283 70.18C28.7583 70.18 28.1033 70.07 27.4633 69.85C26.8233 69.63 26.2633 69.36 25.7833 69.04L26.7733 67.66ZM41.8574 70H40.0574L39.8924 68.935H39.8324C39.5024 69.315 39.1374 69.62 38.7374 69.85C38.3374 70.07 37.8674 70.18 37.3274 70.18C36.4774 70.18 35.8624 69.91 35.4824 69.37C35.1024 68.83 34.9124 68.09 34.9124 67.15V62.56H37.1174V66.865C37.1174 67.365 37.1924 67.73 37.3424 67.96C37.4924 68.19 37.7774 68.305 38.1974 68.305C38.4774 68.305 38.7224 68.245 38.9324 68.125C39.1524 68.005 39.3924 67.78 39.6524 67.45V62.56H41.8574V70ZM43.9066 59.485H48.2716V67.18C48.2716 67.41 48.3016 67.605 48.3616 67.765C48.4316 67.915 48.5216 68.04 48.6316 68.14C48.7516 68.23 48.8816 68.295 49.0216 68.335C49.1716 68.375 49.3216 68.395 49.4716 68.395C49.6416 68.395 49.8216 68.38 50.0116 68.35C50.2016 68.31 50.4116 68.245 50.6416 68.155L51.1366 69.775C50.9366 69.835 50.7516 69.89 50.5816 69.94C50.4116 69.99 50.2416 70.03 50.0716 70.06C49.9016 70.1 49.7216 70.13 49.5316 70.15C49.3416 70.17 49.1316 70.18 48.9016 70.18C47.9616 70.18 47.2516 69.905 46.7716 69.355C46.3016 68.795 46.0666 68.04 46.0666 67.09V61.225H43.9066V59.485ZM54.5807 64.285H52.7057V62.65L54.6857 62.56L54.9707 60.58H56.7857V62.56H59.9357V64.285H56.7857V66.895C56.7857 67.465 56.9107 67.87 57.1607 68.11C57.4107 68.34 57.8057 68.455 58.3457 68.455C58.6357 68.455 58.9007 68.43 59.1407 68.38C59.3807 68.33 59.6107 68.265 59.8307 68.185L60.2207 69.775C59.8907 69.875 59.5207 69.965 59.1107 70.045C58.7107 70.135 58.2707 70.18 57.7907 70.18C57.2007 70.18 56.7007 70.1 56.2907 69.94C55.8807 69.78 55.5457 69.56 55.2857 69.28C55.0357 68.99 54.8557 68.645 54.7457 68.245C54.6357 67.845 54.5807 67.4 54.5807 66.91V64.285ZM57.8507 90.685C56.8707 89.815 56.0957 88.81 55.5257 87.67C54.9657 86.53 54.6857 85.25 54.6857 83.83C54.6857 82.41 54.9657 81.13 55.5257 79.99C56.0957 78.85 56.8707 77.845 57.8507 76.975L59.0807 77.95C58.1907 78.82 57.5407 79.725 57.1307 80.665C56.7307 81.595 56.5307 82.65 56.5307 83.83C56.5307 84.42 56.5807 84.98 56.6807 85.51C56.7807 86.03 56.9307 86.53 57.1307 87.01C57.3407 87.49 57.6057 87.95 57.9257 88.39C58.2457 88.84 58.6307 89.28 59.0807 89.71L57.8507 90.685ZM62.7048 80.56H64.5048L64.6848 82.18H64.7298C65.0998 81.57 65.5448 81.12 66.0648 80.83C66.5848 80.53 67.1448 80.38 67.7448 80.38C68.0748 80.38 68.3398 80.405 68.5398 80.455C68.7498 80.505 68.9648 80.58 69.1848 80.68L68.7348 82.525C68.5048 82.455 68.2948 82.405 68.1048 82.375C67.9248 82.335 67.6948 82.315 67.4148 82.315C66.9548 82.315 66.4998 82.45 66.0498 82.72C65.6098 82.99 65.2298 83.46 64.9098 84.13V88H62.7048V80.56ZM70.784 84.28C70.784 83.67 70.889 83.125 71.099 82.645C71.319 82.165 71.609 81.76 71.969 81.43C72.329 81.09 72.739 80.83 73.199 80.65C73.669 80.47 74.154 80.38 74.654 80.38C75.224 80.38 75.729 80.47 76.169 80.65C76.609 80.83 76.974 81.08 77.264 81.4C77.554 81.72 77.774 82.1 77.924 82.54C78.074 82.97 78.149 83.44 78.149 83.95C78.149 84.15 78.139 84.34 78.119 84.52C78.099 84.7 78.079 84.835 78.059 84.925H73.049C73.129 85.485 73.369 85.89 73.769 86.14C74.179 86.38 74.659 86.5 75.209 86.5C75.549 86.5 75.869 86.46 76.169 86.38C76.479 86.29 76.799 86.16 77.129 85.99L77.849 87.31C77.429 87.58 76.959 87.795 76.439 87.955C75.919 88.105 75.409 88.18 74.909 88.18C74.329 88.18 73.789 88.095 73.289 87.925C72.789 87.745 72.354 87.49 71.984 87.16C71.614 86.82 71.319 86.41 71.099 85.93C70.889 85.45 70.784 84.9 70.784 84.28ZM76.154 83.47C76.154 83.05 76.039 82.71 75.809 82.45C75.579 82.19 75.209 82.06 74.699 82.06C74.299 82.06 73.944 82.175 73.634 82.405C73.324 82.635 73.119 82.99 73.019 83.47H76.154ZM80.7381 85.66C81.1681 85.93 81.5981 86.145 82.0281 86.305C82.4681 86.465 82.9381 86.545 83.4381 86.545C83.9481 86.545 84.3131 86.49 84.5331 86.38C84.7531 86.27 84.8631 86.115 84.8631 85.915C84.8631 85.685 84.6781 85.5 84.3081 85.36C83.9481 85.21 83.4681 85.05 82.8681 84.88C82.5381 84.79 82.2131 84.685 81.8931 84.565C81.5831 84.435 81.3031 84.285 81.0531 84.115C80.8031 83.935 80.5981 83.73 80.4381 83.5C80.2881 83.27 80.2131 83.005 80.2131 82.705C80.2131 82.365 80.2931 82.05 80.4531 81.76C80.6131 81.47 80.8381 81.225 81.1281 81.025C81.4281 80.825 81.7881 80.67 82.2081 80.56C82.6381 80.44 83.1181 80.38 83.6481 80.38C84.3081 80.38 84.9081 80.49 85.4481 80.71C85.9981 80.92 86.4681 81.15 86.8581 81.4L85.8681 82.72C85.5281 82.52 85.1781 82.355 84.8181 82.225C84.4581 82.085 84.0831 82.015 83.6931 82.015C83.2231 82.015 82.8881 82.065 82.6881 82.165C82.4981 82.265 82.4031 82.41 82.4031 82.6C82.4031 82.71 82.4531 82.81 82.5531 82.9C82.6531 82.99 82.7881 83.07 82.9581 83.14C83.1281 83.21 83.3281 83.28 83.5581 83.35C83.7981 83.41 84.0481 83.475 84.3081 83.545C84.6781 83.645 85.0281 83.76 85.3581 83.89C85.6881 84.01 85.9781 84.155 86.2281 84.325C86.4781 84.495 86.6781 84.7 86.8281 84.94C86.9781 85.18 87.0531 85.46 87.0531 85.78C87.0531 86.12 86.9731 86.435 86.8131 86.725C86.6531 87.015 86.4181 87.27 86.1081 87.49C85.8081 87.7 85.4281 87.87 84.9681 88C84.5181 88.12 83.9931 88.18 83.3931 88.18C82.7231 88.18 82.0681 88.07 81.4281 87.85C80.7881 87.63 80.2281 87.36 79.7481 87.04L80.7381 85.66ZM95.8223 88H94.0223L93.8573 86.935H93.7973C93.4673 87.315 93.1023 87.62 92.7023 87.85C92.3023 88.07 91.8323 88.18 91.2923 88.18C90.4423 88.18 89.8273 87.91 89.4473 87.37C89.0673 86.83 88.8773 86.09 88.8773 85.15V80.56H91.0823V84.865C91.0823 85.365 91.1573 85.73 91.3073 85.96C91.4573 86.19 91.7423 86.305 92.1623 86.305C92.4423 86.305 92.6873 86.245 92.8973 86.125C93.1173 86.005 93.3573 85.78 93.6173 85.45V80.56H95.8223V88ZM97.8714 77.485H102.236V85.18C102.236 85.41 102.266 85.605 102.326 85.765C102.396 85.915 102.486 86.04 102.596 86.14C102.716 86.23 102.846 86.295 102.986 86.335C103.136 86.375 103.286 86.395 103.436 86.395C103.606 86.395 103.786 86.38 103.976 86.35C104.166 86.31 104.376 86.245 104.606 86.155L105.101 87.775C104.901 87.835 104.716 87.89 104.546 87.94C104.376 87.99 104.206 88.03 104.036 88.06C103.866 88.1 103.686 88.13 103.496 88.15C103.306 88.17 103.096 88.18 102.866 88.18C101.926 88.18 101.216 87.905 100.736 87.355C100.266 86.795 100.031 86.04 100.031 85.09V79.225H97.8714V77.485ZM108.546 82.285H106.671V80.65L108.651 80.56L108.936 78.58H110.751V80.56H113.901V82.285H110.751V84.895C110.751 85.465 110.876 85.87 111.126 86.11C111.376 86.34 111.771 86.455 112.311 86.455C112.601 86.455 112.866 86.43 113.106 86.38C113.346 86.33 113.576 86.265 113.796 86.185L114.186 87.775C113.856 87.875 113.486 87.965 113.076 88.045C112.676 88.135 112.236 88.18 111.756 88.18C111.166 88.18 110.666 88.1 110.256 87.94C109.846 87.78 109.511 87.56 109.251 87.28C109.001 86.99 108.821 86.645 108.711 86.245C108.601 85.845 108.546 85.4 108.546 84.91V82.285ZM116.82 89.71C117.27 89.28 117.655 88.84 117.975 88.39C118.295 87.95 118.555 87.49 118.755 87.01C118.965 86.53 119.12 86.03 119.22 85.51C119.32 84.98 119.37 84.42 119.37 83.83C119.37 82.65 119.165 81.595 118.755 80.665C118.355 79.725 117.71 78.82 116.82 77.95L118.05 76.975C119.03 77.845 119.8 78.85 120.36 79.99C120.93 81.13 121.215 82.41 121.215 83.83C121.215 85.25 120.93 86.53 120.36 87.67C119.8 88.81 119.03 89.815 118.05 90.685L116.82 89.71ZM57.8507 109.685C56.8707 108.815 56.0957 107.81 55.5257 106.67C54.9657 105.53 54.6857 104.25 54.6857 102.83C54.6857 101.41 54.9657 100.13 55.5257 98.99C56.0957 97.85 56.8707 96.845 57.8507 95.975L59.0807 96.95C58.1907 97.82 57.5407 98.725 57.1307 99.665C56.7307 100.595 56.5307 101.65 56.5307 102.83C56.5307 103.42 56.5807 103.98 56.6807 104.51C56.7807 105.03 56.9307 105.53 57.1307 106.01C57.3407 106.49 57.6057 106.95 57.9257 107.39C58.2457 107.84 58.6307 108.28 59.0807 108.71L57.8507 109.685ZM64.2198 101.72H65.2998C66.4898 101.72 67.0848 101.235 67.0848 100.265C67.0848 99.785 66.9348 99.45 66.6348 99.26C66.3348 99.07 65.8898 98.975 65.2998 98.975H64.2198V101.72ZM67.2498 107L65.3748 103.475H64.2198V107H62.0148V97.22H65.4798C65.9998 97.22 66.4848 97.27 66.9348 97.37C67.3948 97.47 67.7948 97.64 68.1348 97.88C68.4848 98.11 68.7598 98.42 68.9598 98.81C69.1598 99.2 69.2598 99.685 69.2598 100.265C69.2598 100.985 69.0998 101.58 68.7798 102.05C68.4598 102.51 68.0398 102.855 67.5198 103.085L69.7248 107H67.2498ZM70.784 103.28C70.784 102.67 70.889 102.125 71.099 101.645C71.319 101.165 71.609 100.76 71.969 100.43C72.329 100.09 72.739 99.83 73.199 99.65C73.669 99.47 74.154 99.38 74.654 99.38C75.224 99.38 75.729 99.47 76.169 99.65C76.609 99.83 76.974 100.08 77.264 100.4C77.554 100.72 77.774 101.1 77.924 101.54C78.074 101.97 78.149 102.44 78.149 102.95C78.149 103.15 78.139 103.34 78.119 103.52C78.099 103.7 78.079 103.835 78.059 103.925H73.049C73.129 104.485 73.369 104.89 73.769 105.14C74.179 105.38 74.659 105.5 75.209 105.5C75.549 105.5 75.869 105.46 76.169 105.38C76.479 105.29 76.799 105.16 77.129 104.99L77.849 106.31C77.429 106.58 76.959 106.795 76.439 106.955C75.919 107.105 75.409 107.18 74.909 107.18C74.329 107.18 73.789 107.095 73.289 106.925C72.789 106.745 72.354 106.49 71.984 106.16C71.614 105.82 71.319 105.41 71.099 104.93C70.889 104.45 70.784 103.9 70.784 103.28ZM76.154 102.47C76.154 102.05 76.039 101.71 75.809 101.45C75.579 101.19 75.209 101.06 74.699 101.06C74.299 101.06 73.944 101.175 73.634 101.405C73.324 101.635 73.119 101.99 73.019 102.47H76.154ZM80.7381 104.66C81.1681 104.93 81.5981 105.145 82.0281 105.305C82.4681 105.465 82.9381 105.545 83.4381 105.545C83.9481 105.545 84.3131 105.49 84.5331 105.38C84.7531 105.27 84.8631 105.115 84.8631 104.915C84.8631 104.685 84.6781 104.5 84.3081 104.36C83.9481 104.21 83.4681 104.05 82.8681 103.88C82.5381 103.79 82.2131 103.685 81.8931 103.565C81.5831 103.435 81.3031 103.285 81.0531 103.115C80.8031 102.935 80.5981 102.73 80.4381 102.5C80.2881 102.27 80.2131 102.005 80.2131 101.705C80.2131 101.365 80.2931 101.05 80.4531 100.76C80.6131 100.47 80.8381 100.225 81.1281 100.025C81.4281 99.825 81.7881 99.67 82.2081 99.56C82.6381 99.44 83.1181 99.38 83.6481 99.38C84.3081 99.38 84.9081 99.49 85.4481 99.71C85.9981 99.92 86.4681 100.15 86.8581 100.4L85.8681 101.72C85.5281 101.52 85.1781 101.355 84.8181 101.225C84.4581 101.085 84.0831 101.015 83.6931 101.015C83.2231 101.015 82.8881 101.065 82.6881 101.165C82.4981 101.265 82.4031 101.41 82.4031 101.6C82.4031 101.71 82.4531 101.81 82.5531 101.9C82.6531 101.99 82.7881 102.07 82.9581 102.14C83.1281 102.21 83.3281 102.28 83.5581 102.35C83.7981 102.41 84.0481 102.475 84.3081 102.545C84.6781 102.645 85.0281 102.76 85.3581 102.89C85.6881 103.01 85.9781 103.155 86.2281 103.325C86.4781 103.495 86.6781 103.7 86.8281 103.94C86.9781 104.18 87.0531 104.46 87.0531 104.78C87.0531 105.12 86.9731 105.435 86.8131 105.725C86.6531 106.015 86.4181 106.27 86.1081 106.49C85.8081 106.7 85.4281 106.87 84.9681 107C84.5181 107.12 83.9931 107.18 83.3931 107.18C82.7231 107.18 82.0681 107.07 81.4281 106.85C80.7881 106.63 80.2281 106.36 79.7481 106.04L80.7381 104.66ZM95.8223 107H94.0223L93.8573 105.935H93.7973C93.4673 106.315 93.1023 106.62 92.7023 106.85C92.3023 107.07 91.8323 107.18 91.2923 107.18C90.4423 107.18 89.8273 106.91 89.4473 106.37C89.0673 105.83 88.8773 105.09 88.8773 104.15V99.56H91.0823V103.865C91.0823 104.365 91.1573 104.73 91.3073 104.96C91.4573 105.19 91.7423 105.305 92.1623 105.305C92.4423 105.305 92.6873 105.245 92.8973 105.125C93.1173 105.005 93.3573 104.78 93.6173 104.45V99.56H95.8223V107ZM97.8714 96.485H102.236V104.18C102.236 104.41 102.266 104.605 102.326 104.765C102.396 104.915 102.486 105.04 102.596 105.14C102.716 105.23 102.846 105.295 102.986 105.335C103.136 105.375 103.286 105.395 103.436 105.395C103.606 105.395 103.786 105.38 103.976 105.35C104.166 105.31 104.376 105.245 104.606 105.155L105.101 106.775C104.901 106.835 104.716 106.89 104.546 106.94C104.376 106.99 104.206 107.03 104.036 107.06C103.866 107.1 103.686 107.13 103.496 107.15C103.306 107.17 103.096 107.18 102.866 107.18C101.926 107.18 101.216 106.905 100.736 106.355C100.266 105.795 100.031 105.04 100.031 104.09V98.225H97.8714V96.485ZM108.546 101.285H106.671V99.65L108.651 99.56L108.936 97.58H110.751V99.56H113.901V101.285H110.751V103.895C110.751 104.465 110.876 104.87 111.126 105.11C111.376 105.34 111.771 105.455 112.311 105.455C112.601 105.455 112.866 105.43 113.106 105.38C113.346 105.33 113.576 105.265 113.796 105.185L114.186 106.775C113.856 106.875 113.486 106.965 113.076 107.045C112.676 107.135 112.236 107.18 111.756 107.18C111.166 107.18 110.666 107.1 110.256 106.94C109.846 106.78 109.511 106.56 109.251 106.28C109.001 105.99 108.821 105.645 108.711 105.245C108.601 104.845 108.546 104.4 108.546 103.91V101.285ZM116.82 108.71C117.27 108.28 117.655 107.84 117.975 107.39C118.295 106.95 118.555 106.49 118.755 106.01C118.965 105.53 119.12 105.03 119.22 104.51C119.32 103.98 119.37 103.42 119.37 102.83C119.37 101.65 119.165 100.595 118.755 99.665C118.355 98.725 117.71 97.82 116.82 96.95L118.05 95.975C119.03 96.845 119.8 97.85 120.36 98.99C120.93 100.13 121.215 101.41 121.215 102.83C121.215 104.25 120.93 105.53 120.36 106.67C119.8 107.81 119.03 108.815 118.05 109.685L116.82 108.71Z" fill="white"/>
<path d="M10.285 88.585V90.76H8.08V80.56H9.88L10.045 81.31H10.09C10.39 81.04 10.735 80.82 11.125 80.65C11.515 80.47 11.91 80.38 12.31 80.38C12.77 80.38 13.185 80.47 13.555 80.65C13.925 80.83 14.24 81.085 14.5 81.415C14.76 81.745 14.955 82.145 15.085 82.615C15.225 83.075 15.295 83.59 15.295 84.16C15.295 84.8 15.205 85.37 15.025 85.87C14.845 86.36 14.605 86.78 14.305 87.13C14.005 87.47 13.66 87.73 13.27 87.91C12.89 88.09 12.49 88.18 12.07 88.18C11.39 88.18 10.77 87.91 10.21 87.37L10.285 88.585ZM10.285 85.885C10.495 86.065 10.71 86.195 10.93 86.275C11.16 86.345 11.37 86.38 11.56 86.38C11.98 86.38 12.33 86.21 12.61 85.87C12.89 85.52 13.03 84.96 13.03 84.19C13.03 82.85 12.575 82.18 11.665 82.18C11.195 82.18 10.735 82.41 10.285 82.87V85.885ZM17.7341 80.56H19.5341L19.7141 82.18H19.7591C20.1291 81.57 20.5741 81.12 21.0941 80.83C21.6141 80.53 22.1741 80.38 22.7741 80.38C23.1041 80.38 23.3691 80.405 23.5691 80.455C23.7791 80.505 23.9941 80.58 24.2141 80.68L23.7641 82.525C23.5341 82.455 23.3241 82.405 23.1341 82.375C22.9541 82.335 22.7241 82.315 22.4441 82.315C21.9841 82.315 21.5291 82.45 21.0791 82.72C20.6391 82.99 20.2591 83.46 19.9391 84.13V88H17.7341V80.56ZM26.1733 80.56H31.3633V88H29.1583V82.285H26.1733V80.56ZM30.1633 79.465C29.7333 79.465 29.3783 79.345 29.0983 79.105C28.8283 78.865 28.6933 78.54 28.6933 78.13C28.6933 77.72 28.8283 77.39 29.0983 77.14C29.3783 76.88 29.7333 76.75 30.1633 76.75C30.5933 76.75 30.9433 76.88 31.2133 77.14C31.4933 77.39 31.6333 77.72 31.6333 78.13C31.6333 78.54 31.4933 78.865 31.2133 79.105C30.9433 79.345 30.5933 79.465 30.1633 79.465ZM35.0624 80.56H36.8624L37.0274 81.55H37.0874C37.4074 81.23 37.7724 80.955 38.1824 80.725C38.6024 80.495 39.0924 80.38 39.6524 80.38C40.4924 80.38 41.1074 80.65 41.4974 81.19C41.8874 81.73 42.0824 82.47 42.0824 83.41V88H39.8774V83.695C39.8774 83.195 39.7974 82.83 39.6374 82.6C39.4774 82.37 39.1924 82.255 38.7824 82.255C38.4824 82.255 38.2174 82.32 37.9874 82.45C37.7674 82.58 37.5274 82.775 37.2674 83.035V88H35.0624V80.56ZM45.5866 82.285H43.7116V80.65L45.6916 80.56L45.9766 78.58H47.7916V80.56H50.9416V82.285H47.7916V84.895C47.7916 85.465 47.9166 85.87 48.1666 86.11C48.4166 86.34 48.8116 86.455 49.3516 86.455C49.6416 86.455 49.9066 86.43 50.1466 86.38C50.3866 86.33 50.6166 86.265 50.8366 86.185L51.2266 87.775C50.8966 87.875 50.5266 87.965 50.1166 88.045C49.7166 88.135 49.2766 88.18 48.7966 88.18C48.2066 88.18 47.7066 88.1 47.2966 87.94C46.8866 87.78 46.5516 87.56 46.2916 87.28C46.0416 86.99 45.8616 86.645 45.7516 86.245C45.6416 85.845 45.5866 85.4 45.5866 84.91V82.285ZM10.285 107.585V109.76H8.08V99.56H9.88L10.045 100.31H10.09C10.39 100.04 10.735 99.82 11.125 99.65C11.515 99.47 11.91 99.38 12.31 99.38C12.77 99.38 13.185 99.47 13.555 99.65C13.925 99.83 14.24 100.085 14.5 100.415C14.76 100.745 14.955 101.145 15.085 101.615C15.225 102.075 15.295 102.59 15.295 103.16C15.295 103.8 15.205 104.37 15.025 104.87C14.845 105.36 14.605 105.78 14.305 106.13C14.005 106.47 13.66 106.73 13.27 106.91C12.89 107.09 12.49 107.18 12.07 107.18C11.39 107.18 10.77 106.91 10.21 106.37L10.285 107.585ZM10.285 104.885C10.495 105.065 10.71 105.195 10.93 105.275C11.16 105.345 11.37 105.38 11.56 105.38C11.98 105.38 12.33 105.21 12.61 104.87C12.89 104.52 13.03 103.96 13.03 103.19C13.03 101.85 12.575 101.18 11.665 101.18C11.195 101.18 10.735 101.41 10.285 101.87V104.885ZM17.7341 99.56H19.5341L19.7141 101.18H19.7591C20.1291 100.57 20.5741 100.12 21.0941 99.83C21.6141 99.53 22.1741 99.38 22.7741 99.38C23.1041 99.38 23.3691 99.405 23.5691 99.455C23.7791 99.505 23.9941 99.58 24.2141 99.68L23.7641 101.525C23.5341 101.455 23.3241 101.405 23.1341 101.375C22.9541 101.335 22.7241 101.315 22.4441 101.315C21.9841 101.315 21.5291 101.45 21.0791 101.72C20.6391 101.99 20.2591 102.46 19.9391 103.13V107H17.7341V99.56ZM26.1733 99.56H31.3633V107H29.1583V101.285H26.1733V99.56ZM30.1633 98.465C29.7333 98.465 29.3783 98.345 29.0983 98.105C28.8283 97.865 28.6933 97.54 28.6933 97.13C28.6933 96.72 28.8283 96.39 29.0983 96.14C29.3783 95.88 29.7333 95.75 30.1633 95.75C30.5933 95.75 30.9433 95.88 31.2133 96.14C31.4933 96.39 31.6333 96.72 31.6333 97.13C31.6333 97.54 31.4933 97.865 31.2133 98.105C30.9433 98.345 30.5933 98.465 30.1633 98.465ZM35.0624 99.56H36.8624L37.0274 100.55H37.0874C37.4074 100.23 37.7724 99.955 38.1824 99.725C38.6024 99.495 39.0924 99.38 39.6524 99.38C40.4924 99.38 41.1074 99.65 41.4974 100.19C41.8874 100.73 42.0824 101.47 42.0824 102.41V107H39.8774V102.695C39.8774 102.195 39.7974 101.83 39.6374 101.6C39.4774 101.37 39.1924 101.255 38.7824 101.255C38.4824 101.255 38.2174 101.32 37.9874 101.45C37.7674 101.58 37.5274 101.775 37.2674 102.035V107H35.0624V99.56ZM45.5866 101.285H43.7116V99.65L45.6916 99.56L45.9766 97.58H47.7916V99.56H50.9416V101.285H47.7916V103.895C47.7916 104.465 47.9166 104.87 48.1666 105.11C48.4166 105.34 48.8116 105.455 49.3516 105.455C49.6416 105.455 49.9066 105.43 50.1466 105.38C50.3866 105.33 50.6166 105.265 50.8366 105.185L51.2266 106.775C50.8966 106.875 50.5266 106.965 50.1166 107.045C49.7166 107.135 49.2766 107.18 48.7966 107.18C48.2066 107.18 47.7066 107.1 47.2966 106.94C46.8866 106.78 46.5516 106.56 46.2916 106.28C46.0416 105.99 45.8616 105.645 45.7516 105.245C45.6416 104.845 45.5866 104.4 45.5866 103.91V101.285Z" fill="#56B4E9"/>
<path d="M71.009 43.53H77.909V45.09H71.009V43.53ZM71.009 46.995H77.909V48.555H71.009V46.995ZM71.009 62.53H77.909V64.09H71.009V62.53ZM71.009 65.995H77.909V67.555H71.009V65.995Z" fill="#E0E0E0"/>
<path d="M88.8173 49.74C89.4973 49.17 90.1173 48.64 90.6773 48.15C91.2373 47.65 91.7173 47.185 92.1173 46.755C92.5173 46.325 92.8273 45.92 93.0473 45.54C93.2673 45.16 93.3773 44.8 93.3773 44.46C93.3773 43.99 93.2423 43.635 92.9723 43.395C92.7023 43.145 92.3173 43.02 91.8173 43.02C91.4373 43.02 91.0873 43.12 90.7673 43.32C90.4573 43.51 90.1673 43.735 89.8973 43.995L88.7123 42.81C88.9623 42.56 89.2073 42.34 89.4473 42.15C89.6973 41.96 89.9573 41.805 90.2273 41.685C90.5073 41.555 90.7973 41.46 91.0973 41.4C91.4073 41.33 91.7473 41.295 92.1173 41.295C92.6173 41.295 93.0723 41.37 93.4823 41.52C93.8923 41.66 94.2423 41.865 94.5323 42.135C94.8323 42.395 95.0623 42.71 95.2223 43.08C95.3923 43.45 95.4773 43.865 95.4773 44.325C95.4773 44.725 95.3823 45.135 95.1923 45.555C95.0023 45.965 94.7423 46.38 94.4123 46.8C94.0923 47.21 93.7223 47.625 93.3023 48.045C92.8823 48.455 92.4423 48.86 91.9823 49.26C92.2523 49.23 92.5423 49.205 92.8523 49.185C93.1723 49.155 93.4573 49.14 93.7073 49.14H95.9723V51H88.8173V49.74ZM90.8423 70C90.8823 69.21 90.9573 68.485 91.0673 67.825C91.1873 67.155 91.3523 66.52 91.5623 65.92C91.7823 65.31 92.0623 64.72 92.4023 64.15C92.7423 63.57 93.1623 62.965 93.6623 62.335H88.8773V60.475H96.0323V61.825C95.4323 62.495 94.9473 63.125 94.5773 63.715C94.2073 64.295 93.9173 64.9 93.7073 65.53C93.4973 66.15 93.3473 66.82 93.2573 67.54C93.1673 68.25 93.1023 69.07 93.0623 70H90.8423ZM101.441 70.18C100.891 70.18 100.391 70.075 99.9414 69.865C99.4914 69.645 99.1064 69.325 98.7864 68.905C98.4664 68.485 98.2164 67.965 98.0364 67.345C97.8664 66.725 97.7814 66.01 97.7814 65.2C97.7814 64.39 97.8664 63.68 98.0364 63.07C98.2164 62.46 98.4664 61.95 98.7864 61.54C99.1064 61.12 99.4914 60.81 99.9414 60.61C100.391 60.4 100.891 60.295 101.441 60.295C101.991 60.295 102.491 60.4 102.941 60.61C103.391 60.81 103.776 61.12 104.096 61.54C104.416 61.95 104.661 62.46 104.831 63.07C105.011 63.68 105.101 64.39 105.101 65.2C105.101 66.01 105.011 66.725 104.831 67.345C104.661 67.965 104.416 68.485 104.096 68.905C103.776 69.325 103.391 69.645 102.941 69.865C102.491 70.075 101.991 70.18 101.441 70.18ZM101.441 62.005C101.201 62.005 100.976 62.055 100.766 62.155C100.566 62.255 100.391 62.43 100.241 62.68C100.091 62.92 99.9714 63.245 99.8814 63.655C99.7914 64.065 99.7464 64.58 99.7464 65.2C99.7464 65.82 99.7914 66.34 99.8814 66.76C99.9714 67.17 100.091 67.505 100.241 67.765C100.391 68.015 100.566 68.195 100.766 68.305C100.976 68.415 101.201 68.47 101.441 68.47C101.681 68.47 101.901 68.415 102.101 68.305C102.311 68.195 102.491 68.015 102.641 67.765C102.791 67.505 102.911 67.17 103.001 66.76C103.091 66.34 103.136 65.82 103.136 65.2C103.136 64.58 103.091 64.065 103.001 63.655C102.911 63.245 102.791 62.92 102.641 62.68C102.491 62.43 102.311 62.255 102.101 62.155C101.901 62.055 101.681 62.005 101.441 62.005ZM101.441 66.31C101.121 66.31 100.851 66.21 100.631 66.01C100.421 65.8 100.316 65.52 100.316 65.17C100.316 64.82 100.421 64.545 100.631 64.345C100.851 64.135 101.121 64.03 101.441 64.03C101.761 64.03 102.026 64.135 102.236 64.345C102.456 64.545 102.566 64.82 102.566 65.17C102.566 65.52 102.456 65.8 102.236 66.01C102.026 66.21 101.761 66.31 101.441 66.31Z" fill="#F0E442"/>
</svg>
