<svg width="307" height="182" viewBox="0 0 307 182" fill="none" xmlns="http://www.w3.org/2000/svg">
<rect width="307" height="182" fill="black"/>
<line y1="122.5" x2="307" y2="122.5" stroke="white"/>
<path d="M11.5004 143.68C10.9204 143.68 10.3854 143.565 9.8954 143.335C9.4154 143.095 9.0004 142.755 8.6504 142.315C8.3104 141.875 8.0454 141.34 7.8554 140.71C7.6654 140.08 7.5704 139.365 7.5704 138.565C7.5704 137.765 7.6654 137.055 7.8554 136.435C8.0454 135.805 8.3104 135.28 8.6504 134.86C9.0004 134.43 9.4154 134.105 9.8954 133.885C10.3854 133.655 10.9204 133.54 11.5004 133.54C12.0804 133.54 12.6104 133.655 13.0904 133.885C13.5804 134.105 13.9954 134.43 14.3354 134.86C14.6854 135.29 14.9554 135.82 15.1454 136.45C15.3354 137.07 15.4304 137.775 15.4304 138.565C15.4304 139.365 15.3354 140.08 15.1454 140.71C14.9554 141.34 14.6854 141.875 14.3354 142.315C13.9954 142.755 13.5804 143.095 13.0904 143.335C12.6104 143.565 12.0804 143.68 11.5004 143.68ZM11.5004 141.775C12.0104 141.775 12.4154 141.49 12.7154 140.92C13.0154 140.34 13.1654 139.555 13.1654 138.565C13.1654 137.585 13.0154 136.82 12.7154 136.27C12.4154 135.72 12.0104 135.445 11.5004 135.445C10.9904 135.445 10.5854 135.72 10.2854 136.27C9.9854 136.82 9.8354 137.585 9.8354 138.565C9.8354 139.555 9.9854 140.34 10.2854 140.92C10.5854 141.49 10.9904 141.775 11.5004 141.775ZM23.8695 143.5H22.0695L21.9045 142.435H21.8445C21.5145 142.815 21.1495 143.12 20.7495 143.35C20.3495 143.57 19.8795 143.68 19.3395 143.68C18.4895 143.68 17.8745 143.41 17.4945 142.87C17.1145 142.33 16.9245 141.59 16.9245 140.65V136.06H19.1295V140.365C19.1295 140.865 19.2045 141.23 19.3545 141.46C19.5045 141.69 19.7895 141.805 20.2095 141.805C20.4895 141.805 20.7345 141.745 20.9445 141.625C21.1645 141.505 21.4045 141.28 21.6645 140.95V136.06H23.8695V143.5ZM27.5987 137.785H25.7237V136.15L27.7037 136.06L27.9887 134.08H29.8037V136.06H32.9537V137.785H29.8037V140.395C29.8037 140.965 29.9287 141.37 30.1787 141.61C30.4287 141.84 30.8237 141.955 31.3637 141.955C31.6537 141.955 31.9187 141.93 32.1587 141.88C32.3987 141.83 32.6287 141.765 32.8487 141.685L33.2387 143.275C32.9087 143.375 32.5387 143.465 32.1287 143.545C31.7287 143.635 31.2887 143.68 30.8087 143.68C30.2187 143.68 29.7187 143.6 29.3087 143.44C28.8987 143.28 28.5637 143.06 28.3037 142.78C28.0537 142.49 27.8737 142.145 27.7637 141.745C27.6537 141.345 27.5987 140.9 27.5987 140.41V137.785ZM37.2678 144.085V146.26H35.0628V136.06H36.8628L37.0278 136.81H37.0728C37.3728 136.54 37.7178 136.32 38.1078 136.15C38.4978 135.97 38.8928 135.88 39.2928 135.88C39.7528 135.88 40.1678 135.97 40.5378 136.15C40.9078 136.33 41.2228 136.585 41.4828 136.915C41.7428 137.245 41.9378 137.645 42.0678 138.115C42.2078 138.575 42.2778 139.09 42.2778 139.66C42.2778 140.3 42.1878 140.87 42.0078 141.37C41.8278 141.86 41.5878 142.28 41.2878 142.63C40.9878 142.97 40.6428 143.23 40.2528 143.41C39.8728 143.59 39.4728 143.68 39.0528 143.68C38.3728 143.68 37.7528 143.41 37.1928 142.87L37.2678 144.085ZM37.2678 141.385C37.4778 141.565 37.6928 141.695 37.9128 141.775C38.1428 141.845 38.3528 141.88 38.5428 141.88C38.9628 141.88 39.3128 141.71 39.5928 141.37C39.8728 141.02 40.0128 140.46 40.0128 139.69C40.0128 138.35 39.5578 137.68 38.6478 137.68C38.1778 137.68 37.7178 137.91 37.2678 138.37V141.385ZM50.852 143.5H49.052L48.887 142.435H48.827C48.497 142.815 48.132 143.12 47.732 143.35C47.332 143.57 46.862 143.68 46.322 143.68C45.472 143.68 44.857 143.41 44.477 142.87C44.097 142.33 43.907 141.59 43.907 140.65V136.06H46.112V140.365C46.112 140.865 46.187 141.23 46.337 141.46C46.487 141.69 46.772 141.805 47.192 141.805C47.472 141.805 47.717 141.745 47.927 141.625C48.147 141.505 48.387 141.28 48.647 140.95V136.06H50.852V143.5ZM54.5811 137.785H52.7061V136.15L54.6861 136.06L54.9711 134.08H56.7861V136.06H59.9361V137.785H56.7861V140.395C56.7861 140.965 56.9111 141.37 57.1611 141.61C57.4111 141.84 57.8061 141.955 58.3461 141.955C58.6361 141.955 58.9011 141.93 59.1411 141.88C59.3811 141.83 59.6111 141.765 59.8311 141.685L60.2211 143.275C59.8911 143.375 59.5211 143.465 59.1111 143.545C58.7111 143.635 58.2711 143.68 57.7911 143.68C57.2011 143.68 56.7011 143.6 56.2911 143.44C55.8811 143.28 55.5461 143.06 55.2861 142.78C55.0361 142.49 54.8561 142.145 54.7461 141.745C54.6361 141.345 54.5811 140.9 54.5811 140.41V137.785Z" fill="white"/>
<path d="M15.055 166.215V168H8.23V166.215H10.69V160.71H8.725V159.345C9.285 159.245 9.76 159.125 10.15 158.985C10.55 158.845 10.925 158.675 11.275 158.475H12.895V166.215H15.055ZM17.6441 165.435C17.9641 165.715 18.3191 165.945 18.7091 166.125C19.1091 166.305 19.5291 166.395 19.9691 166.395C20.4891 166.395 20.9141 166.3 21.2441 166.11C21.5841 165.91 21.7541 165.63 21.7541 165.27C21.7541 165.06 21.7091 164.87 21.6191 164.7C21.5291 164.53 21.3741 164.39 21.1541 164.28C20.9341 164.16 20.6391 164.07 20.2691 164.01C19.8991 163.94 19.4341 163.905 18.8741 163.905V162.345C19.8141 162.345 20.4741 162.23 20.8541 162C21.2441 161.76 21.4391 161.45 21.4391 161.07C21.4391 160.74 21.3141 160.485 21.0641 160.305C20.8141 160.115 20.4691 160.02 20.0291 160.02C19.6491 160.02 19.2991 160.095 18.9791 160.245C18.6591 160.395 18.3341 160.6 18.0041 160.86L16.8941 159.51C17.3641 159.13 17.8641 158.835 18.3941 158.625C18.9341 158.405 19.5141 158.295 20.1341 158.295C20.6541 158.295 21.1291 158.355 21.5591 158.475C21.9891 158.585 22.3591 158.755 22.6691 158.985C22.9791 159.205 23.2191 159.475 23.3891 159.795C23.5591 160.115 23.6441 160.485 23.6441 160.905C23.6441 161.405 23.4841 161.83 23.1641 162.18C22.8441 162.52 22.3991 162.8 21.8291 163.02V163.08C22.4291 163.24 22.9341 163.515 23.3441 163.905C23.7541 164.285 23.9591 164.785 23.9591 165.405C23.9591 165.845 23.8541 166.24 23.6441 166.59C23.4441 166.93 23.1691 167.22 22.8191 167.46C22.4791 167.69 22.0791 167.87 21.6191 168C21.1591 168.12 20.6791 168.18 20.1791 168.18C19.3591 168.18 18.6541 168.06 18.0641 167.82C17.4741 167.57 16.9941 167.24 16.6241 166.83L17.6441 165.435Z" fill="white"/>
<rect x="79" width="228" height="31" fill="#333333"/>
<rect x="79" width="228" height="31" fill="#333333"/>
<rect width="79" height="31" fill="#090808"/>
<path d="M12.105 17.8101C12.105 17.5513 11.9756 17.3486 11.7168 17.2021C11.4629 17.0508 11.0527 16.9165 10.4863 16.7993C8.60156 16.4038 7.65918 15.603 7.65918 14.397C7.65918 13.6938 7.94971 13.1079 8.53076 12.6392C9.1167 12.1655 9.88086 11.9287 10.8232 11.9287C11.8291 11.9287 12.6323 12.1655 13.2329 12.6392C13.8384 13.1128 14.1411 13.728 14.1411 14.4849H12.0244C12.0244 14.1821 11.9268 13.9331 11.7314 13.7378C11.5361 13.5376 11.231 13.4375 10.8159 13.4375C10.4595 13.4375 10.1836 13.5181 9.98828 13.6792C9.79297 13.8403 9.69531 14.0454 9.69531 14.2944C9.69531 14.5288 9.80518 14.7192 10.0249 14.8657C10.2495 15.0073 10.6255 15.1318 11.1528 15.2393C11.6802 15.3418 12.1245 15.459 12.4858 15.5908C13.604 16.001 14.1631 16.7114 14.1631 17.7222C14.1631 18.4448 13.853 19.0308 13.2329 19.48C12.6128 19.9243 11.812 20.1465 10.8306 20.1465C10.1665 20.1465 9.57568 20.0293 9.05811 19.7949C8.54541 19.5557 8.14258 19.231 7.84961 18.8208C7.55664 18.4058 7.41016 17.959 7.41016 17.4805H9.41699C9.43652 17.8564 9.57568 18.1445 9.83447 18.3447C10.0933 18.5449 10.4399 18.645 10.8745 18.645C11.2798 18.645 11.585 18.5693 11.79 18.418C12 18.2617 12.105 18.0591 12.105 17.8101ZM18.8286 18.4399C19.2192 18.4399 19.5366 18.3325 19.7808 18.1177C20.0249 17.9028 20.1519 17.6172 20.1616 17.2607H22.1465C22.1416 17.7979 21.9951 18.291 21.707 18.7402C21.4189 19.1846 21.0234 19.5312 20.5205 19.7803C20.0225 20.0244 19.4707 20.1465 18.8652 20.1465C17.7324 20.1465 16.8389 19.7876 16.1846 19.0698C15.5303 18.3472 15.2031 17.3511 15.2031 16.0815V15.9424C15.2031 14.7217 15.5278 13.7476 16.1772 13.02C16.8267 12.2925 17.7178 11.9287 18.8506 11.9287C19.8418 11.9287 20.6353 12.2119 21.231 12.7783C21.8315 13.3398 22.1367 14.0894 22.1465 15.0269H20.1616C20.1519 14.6167 20.0249 14.2847 19.7808 14.0308C19.5366 13.772 19.2144 13.6426 18.814 13.6426C18.3208 13.6426 17.9473 13.8232 17.6934 14.1846C17.4443 14.541 17.3198 15.1221 17.3198 15.9277V16.1475C17.3198 16.9629 17.4443 17.5488 17.6934 17.9053C17.9424 18.2617 18.3208 18.4399 18.8286 18.4399ZM27.8081 14.0601C27.52 14.021 27.2661 14.0015 27.0464 14.0015C26.2456 14.0015 25.7207 14.2725 25.4717 14.8145V20H23.355V12.0752H25.3545L25.4131 13.02C25.8379 12.2925 26.4263 11.9287 27.1782 11.9287C27.4126 11.9287 27.6323 11.9604 27.8374 12.0239L27.8081 14.0601ZM31.0674 20H28.9434V12.0752H31.0674V20ZM28.8188 10.0244C28.8188 9.70703 28.9238 9.4458 29.1338 9.24072C29.3486 9.03564 29.6392 8.93311 30.0054 8.93311C30.3667 8.93311 30.6548 9.03564 30.8696 9.24072C31.0845 9.4458 31.1919 9.70703 31.1919 10.0244C31.1919 10.3467 31.082 10.6104 30.8623 10.8154C30.6475 11.0205 30.3618 11.123 30.0054 11.123C29.6489 11.123 29.3608 11.0205 29.1411 10.8154C28.9263 10.6104 28.8188 10.3467 28.8188 10.0244ZM39.9517 16.1108C39.9517 17.3315 39.6733 18.3105 39.1167 19.0479C38.5649 19.7803 37.8179 20.1465 36.8755 20.1465C36.0747 20.1465 35.4277 19.8682 34.9346 19.3115V23.0469H32.8179V12.0752H34.7808L34.854 12.8516C35.3667 12.2363 36.0356 11.9287 36.8608 11.9287C37.8374 11.9287 38.5967 12.29 39.1387 13.0127C39.6807 13.7354 39.9517 14.7314 39.9517 16.001V16.1108ZM37.835 15.957C37.835 15.2197 37.7031 14.6509 37.4395 14.2505C37.1807 13.8501 36.8022 13.6499 36.3042 13.6499C35.6401 13.6499 35.1836 13.9038 34.9346 14.4116V17.6562C35.1934 18.1787 35.6548 18.4399 36.3188 18.4399C37.3296 18.4399 37.835 17.6123 37.835 15.957ZM43.8042 10.127V12.0752H45.1592V13.6279H43.8042V17.583C43.8042 17.876 43.8604 18.0859 43.9727 18.2129C44.085 18.3398 44.2998 18.4033 44.6172 18.4033C44.8516 18.4033 45.0591 18.3862 45.2397 18.3521V19.9561C44.8247 20.083 44.3975 20.1465 43.958 20.1465C42.4736 20.1465 41.7168 19.397 41.6875 17.8979V13.6279H40.5303V12.0752H41.6875V10.127H43.8042ZM46.4482 18.96C46.4482 18.623 46.5605 18.3496 46.7852 18.1396C47.0146 17.9297 47.3003 17.8247 47.6421 17.8247C47.9888 17.8247 48.2744 17.9297 48.499 18.1396C48.7285 18.3496 48.8433 18.623 48.8433 18.96C48.8433 19.292 48.731 19.563 48.5063 19.7729C48.2817 19.978 47.9937 20.0806 47.6421 20.0806C47.2954 20.0806 47.0098 19.978 46.7852 19.7729C46.5605 19.563 46.4482 19.292 46.4482 18.96ZM57.8374 16.1108C57.8374 17.3315 57.5591 18.3105 57.0024 19.0479C56.4507 19.7803 55.7036 20.1465 54.7612 20.1465C53.9604 20.1465 53.3135 19.8682 52.8203 19.3115V23.0469H50.7036V12.0752H52.6665L52.7397 12.8516C53.2524 12.2363 53.9214 11.9287 54.7466 11.9287C55.7231 11.9287 56.4824 12.29 57.0244 13.0127C57.5664 13.7354 57.8374 14.7314 57.8374 16.001V16.1108ZM55.7207 15.957C55.7207 15.2197 55.5889 14.6509 55.3252 14.2505C55.0664 13.8501 54.688 13.6499 54.1899 13.6499C53.5259 13.6499 53.0693 13.9038 52.8203 14.4116V17.6562C53.0791 18.1787 53.5405 18.4399 54.2046 18.4399C55.2153 18.4399 55.7207 17.6123 55.7207 15.957ZM62.0269 17.0044L63.4917 12.0752H65.7622L62.5762 21.2305L62.4004 21.6479C61.9268 22.6831 61.1455 23.2007 60.0566 23.2007C59.749 23.2007 59.4365 23.1543 59.1191 23.0615V21.4575L59.4414 21.4648C59.8418 21.4648 60.1396 21.4038 60.335 21.2817C60.5352 21.1597 60.6914 20.957 60.8037 20.6738L61.0527 20.022L58.2769 12.0752H60.5547L62.0269 17.0044Z" fill="white"/>
<path d="M7.705 47.28C7.705 46.67 7.795 46.125 7.975 45.645C8.155 45.165 8.39 44.76 8.68 44.43C8.98 44.09 9.32 43.83 9.7 43.65C10.08 43.47 10.475 43.38 10.885 43.38C11.315 43.38 11.675 43.455 11.965 43.605C12.255 43.745 12.53 43.935 12.79 44.175L12.715 43.02V40.485H14.92V51H13.12L12.955 50.235H12.91C12.63 50.505 12.31 50.73 11.95 50.91C11.59 51.09 11.22 51.18 10.84 51.18C10.37 51.18 9.94 51.09 9.55 50.91C9.17 50.73 8.84 50.475 8.56 50.145C8.29 49.805 8.08 49.395 7.93 48.915C7.78 48.435 7.705 47.89 7.705 47.28ZM9.97 47.25C9.97 47.99 10.095 48.53 10.345 48.87C10.595 49.21 10.95 49.38 11.41 49.38C11.66 49.38 11.89 49.33 12.1 49.23C12.31 49.12 12.515 48.94 12.715 48.69V45.675C12.515 45.495 12.31 45.37 12.1 45.3C11.9 45.22 11.69 45.18 11.47 45.18C11.06 45.18 10.705 45.35 10.405 45.69C10.115 46.03 9.97 46.55 9.97 47.25ZM16.8191 47.28C16.8191 46.67 16.9241 46.125 17.1341 45.645C17.3541 45.165 17.6441 44.76 18.0041 44.43C18.3641 44.09 18.7741 43.83 19.2341 43.65C19.7041 43.47 20.1891 43.38 20.6891 43.38C21.2591 43.38 21.7641 43.47 22.2041 43.65C22.6441 43.83 23.0091 44.08 23.2991 44.4C23.5891 44.72 23.8091 45.1 23.9591 45.54C24.1091 45.97 24.1841 46.44 24.1841 46.95C24.1841 47.15 24.1741 47.34 24.1541 47.52C24.1341 47.7 24.1141 47.835 24.0941 47.925H19.0841C19.1641 48.485 19.4041 48.89 19.8041 49.14C20.2141 49.38 20.6941 49.5 21.2441 49.5C21.5841 49.5 21.9041 49.46 22.2041 49.38C22.5141 49.29 22.8341 49.16 23.1641 48.99L23.8841 50.31C23.4641 50.58 22.9941 50.795 22.4741 50.955C21.9541 51.105 21.4441 51.18 20.9441 51.18C20.3641 51.18 19.8241 51.095 19.3241 50.925C18.8241 50.745 18.3891 50.49 18.0191 50.16C17.6491 49.82 17.3541 49.41 17.1341 48.93C16.9241 48.45 16.8191 47.9 16.8191 47.28ZM22.1891 46.47C22.1891 46.05 22.0741 45.71 21.8441 45.45C21.6141 45.19 21.2441 45.06 20.7341 45.06C20.3341 45.06 19.9791 45.175 19.6691 45.405C19.3591 45.635 19.1541 45.99 19.0541 46.47H22.1891ZM33.3433 42.33C32.8533 42.14 32.3333 42.045 31.7833 42.045C31.3033 42.045 30.9483 42.15 30.7183 42.36C30.4983 42.57 30.3883 42.9 30.3883 43.35V43.56H32.9533V45.285H30.3883V51H28.1833V45.285H26.2183V43.65L28.1833 43.56V43.365C28.1833 42.935 28.2483 42.535 28.3783 42.165C28.5083 41.795 28.7083 41.475 28.9783 41.205C29.2483 40.925 29.5933 40.705 30.0133 40.545C30.4333 40.385 30.9333 40.305 31.5133 40.305C31.9433 40.305 32.3433 40.345 32.7133 40.425C33.0933 40.505 33.4433 40.6 33.7633 40.71L33.3433 42.33ZM44.7166 62.56H46.5166L46.6966 64.18H46.7416C47.1116 63.57 47.5566 63.12 48.0766 62.83C48.5966 62.53 49.1566 62.38 49.7566 62.38C50.0866 62.38 50.3516 62.405 50.5516 62.455C50.7616 62.505 50.9766 62.58 51.1966 62.68L50.7466 64.525C50.5166 64.455 50.3066 64.405 50.1166 64.375C49.9366 64.335 49.7066 64.315 49.4266 64.315C48.9666 64.315 48.5116 64.45 48.0616 64.72C47.6216 64.99 47.2416 65.46 46.9216 66.13V70H44.7166V62.56ZM52.7957 66.28C52.7957 65.67 52.9007 65.125 53.1107 64.645C53.3307 64.165 53.6207 63.76 53.9807 63.43C54.3407 63.09 54.7507 62.83 55.2107 62.65C55.6807 62.47 56.1657 62.38 56.6657 62.38C57.2357 62.38 57.7407 62.47 58.1807 62.65C58.6207 62.83 58.9857 63.08 59.2757 63.4C59.5657 63.72 59.7857 64.1 59.9357 64.54C60.0857 64.97 60.1607 65.44 60.1607 65.95C60.1607 66.15 60.1507 66.34 60.1307 66.52C60.1107 66.7 60.0907 66.835 60.0707 66.925H55.0607C55.1407 67.485 55.3807 67.89 55.7807 68.14C56.1907 68.38 56.6707 68.5 57.2207 68.5C57.5607 68.5 57.8807 68.46 58.1807 68.38C58.4907 68.29 58.8107 68.16 59.1407 67.99L59.8607 69.31C59.4407 69.58 58.9707 69.795 58.4507 69.955C57.9307 70.105 57.4207 70.18 56.9207 70.18C56.3407 70.18 55.8007 70.095 55.3007 69.925C54.8007 69.745 54.3657 69.49 53.9957 69.16C53.6257 68.82 53.3307 68.41 53.1107 67.93C52.9007 67.45 52.7957 66.9 52.7957 66.28ZM58.1657 65.47C58.1657 65.05 58.0507 64.71 57.8207 64.45C57.5907 64.19 57.2207 64.06 56.7107 64.06C56.3107 64.06 55.9557 64.175 55.6457 64.405C55.3357 64.635 55.1307 64.99 55.0307 65.47H58.1657ZM63.5748 64.285H61.6998V62.65L63.6798 62.56L63.9648 60.58H65.7798V62.56H68.9298V64.285H65.7798V66.895C65.7798 67.465 65.9048 67.87 66.1548 68.11C66.4048 68.34 66.7998 68.455 67.3398 68.455C67.6298 68.455 67.8948 68.43 68.1348 68.38C68.3748 68.33 68.6048 68.265 68.8248 68.185L69.2148 69.775C68.8848 69.875 68.5148 69.965 68.1048 70.045C67.7048 70.135 67.2648 70.18 66.7848 70.18C66.1948 70.18 65.6948 70.1 65.2848 69.94C64.8748 69.78 64.5398 69.56 64.2798 69.28C64.0298 68.99 63.8498 68.645 63.7398 68.245C63.6298 67.845 63.5748 67.4 63.5748 66.91V64.285ZM77.834 70H76.034L75.869 68.935H75.809C75.479 69.315 75.114 69.62 74.714 69.85C74.314 70.07 73.844 70.18 73.304 70.18C72.454 70.18 71.839 69.91 71.459 69.37C71.079 68.83 70.889 68.09 70.889 67.15V62.56H73.094V66.865C73.094 67.365 73.169 67.73 73.319 67.96C73.469 68.19 73.754 68.305 74.174 68.305C74.454 68.305 74.699 68.245 74.909 68.125C75.129 68.005 75.369 67.78 75.629 67.45V62.56H77.834V70ZM80.6931 62.56H82.4931L82.6731 64.18H82.7181C83.0881 63.57 83.5331 63.12 84.0531 62.83C84.5731 62.53 85.1331 62.38 85.7331 62.38C86.0631 62.38 86.3281 62.405 86.5281 62.455C86.7381 62.505 86.9531 62.58 87.1731 62.68L86.7231 64.525C86.4931 64.455 86.2831 64.405 86.0931 64.375C85.9131 64.335 85.6831 64.315 85.4031 64.315C84.9431 64.315 84.4881 64.45 84.0381 64.72C83.5981 64.99 83.2181 65.46 82.8981 66.13V70H80.6931V62.56ZM89.0273 62.56H90.8273L90.9923 63.55H91.0523C91.3723 63.23 91.7373 62.955 92.1473 62.725C92.5673 62.495 93.0573 62.38 93.6173 62.38C94.4573 62.38 95.0723 62.65 95.4623 63.19C95.8523 63.73 96.0473 64.47 96.0473 65.41V70H93.8423V65.695C93.8423 65.195 93.7623 64.83 93.6023 64.6C93.4423 64.37 93.1573 64.255 92.7473 64.255C92.4473 64.255 92.1823 64.32 91.9523 64.45C91.7323 64.58 91.4923 64.775 91.2323 65.035V70H89.0273V62.56Z" fill="#E69F00"/>
<path d="M129.804 53.685C128.824 52.815 128.049 51.81 127.479 50.67C126.919 49.53 126.639 48.25 126.639 46.83C126.639 45.41 126.919 44.13 127.479 42.99C128.049 41.85 128.824 40.845 129.804 39.975L131.034 40.95C130.144 41.82 129.494 42.725 129.084 43.665C128.684 44.595 128.484 45.65 128.484 46.83C128.484 47.42 128.534 47.98 128.634 48.51C128.734 49.03 128.884 49.53 129.084 50.01C129.294 50.49 129.559 50.95 129.879 51.39C130.199 51.84 130.584 52.28 131.034 52.71L129.804 53.685ZM136.053 47.13L133.638 43.56H136.008L136.773 44.76C136.883 44.97 137.008 45.185 137.148 45.405C137.288 45.615 137.423 45.825 137.553 46.035H137.613C137.713 45.825 137.813 45.61 137.913 45.39C138.023 45.17 138.128 44.96 138.228 44.76L138.888 43.56H141.198L138.768 47.385L141.348 51H138.978L138.123 49.77C137.983 49.56 137.838 49.345 137.688 49.125C137.548 48.905 137.408 48.69 137.268 48.48H137.208C137.098 48.69 136.983 48.905 136.863 49.125C136.743 49.335 136.628 49.55 136.518 49.77L135.783 51H133.473L136.053 47.13ZM144.642 52.965C145.942 52.515 146.592 51.805 146.592 50.835C146.552 50.845 146.497 50.85 146.427 50.85C146.217 50.85 146.012 50.82 145.812 50.76C145.622 50.69 145.452 50.59 145.302 50.46C145.152 50.33 145.032 50.17 144.942 49.98C144.852 49.79 144.807 49.57 144.807 49.32C144.807 48.85 144.967 48.475 145.287 48.195C145.617 47.915 146.017 47.775 146.487 47.775C147.107 47.775 147.572 48.005 147.882 48.465C148.192 48.915 148.347 49.545 148.347 50.355C148.347 51.315 148.082 52.125 147.552 52.785C147.022 53.445 146.237 53.935 145.197 54.255L144.642 52.965ZM160.905 47.28C160.905 46.66 161.02 46.11 161.25 45.63C161.49 45.14 161.805 44.73 162.195 44.4C162.595 44.07 163.055 43.82 163.575 43.65C164.095 43.47 164.64 43.38 165.21 43.38C165.8 43.38 166.33 43.475 166.8 43.665C167.28 43.855 167.68 44.095 168 44.385L166.98 45.75C166.43 45.36 165.88 45.165 165.33 45.165C164.69 45.165 164.17 45.355 163.77 45.735C163.37 46.115 163.17 46.63 163.17 47.28C163.17 47.93 163.36 48.445 163.74 48.825C164.13 49.205 164.635 49.395 165.255 49.395C165.645 49.395 166.005 49.325 166.335 49.185C166.665 49.045 166.96 48.88 167.22 48.69L168.12 50.085C167.67 50.465 167.17 50.745 166.62 50.925C166.08 51.095 165.555 51.18 165.045 51.18C164.455 51.18 163.91 51.095 163.41 50.925C162.91 50.745 162.47 50.49 162.09 50.16C161.72 49.83 161.43 49.425 161.22 48.945C161.01 48.455 160.905 47.9 160.905 47.28ZM169.6 47.28C169.6 46.66 169.705 46.11 169.915 45.63C170.125 45.14 170.405 44.73 170.755 44.4C171.115 44.07 171.52 43.82 171.97 43.65C172.43 43.47 172.905 43.38 173.395 43.38C173.885 43.38 174.355 43.47 174.805 43.65C175.265 43.82 175.67 44.07 176.02 44.4C176.38 44.73 176.665 45.14 176.875 45.63C177.085 46.11 177.19 46.66 177.19 47.28C177.19 47.9 177.085 48.455 176.875 48.945C176.665 49.425 176.38 49.83 176.02 50.16C175.67 50.49 175.265 50.745 174.805 50.925C174.355 51.095 173.885 51.18 173.395 51.18C172.905 51.18 172.43 51.095 171.97 50.925C171.52 50.745 171.115 50.49 170.755 50.16C170.405 49.83 170.125 49.425 169.915 48.945C169.705 48.455 169.6 47.9 169.6 47.28ZM171.865 47.28C171.865 47.93 171.99 48.445 172.24 48.825C172.5 49.205 172.885 49.395 173.395 49.395C173.905 49.395 174.285 49.205 174.535 48.825C174.795 48.445 174.925 47.93 174.925 47.28C174.925 46.63 174.795 46.115 174.535 45.735C174.285 45.355 173.905 45.165 173.395 45.165C172.885 45.165 172.5 45.355 172.24 45.735C171.99 46.115 171.865 46.63 171.865 47.28ZM178.969 43.56H180.769L180.934 44.55H180.994C181.314 44.23 181.679 43.955 182.089 43.725C182.509 43.495 182.999 43.38 183.559 43.38C184.399 43.38 185.014 43.65 185.404 44.19C185.794 44.73 185.989 45.47 185.989 46.41V51H183.784V46.695C183.784 46.195 183.704 45.83 183.544 45.6C183.384 45.37 183.099 45.255 182.689 45.255C182.389 45.255 182.124 45.32 181.894 45.45C181.674 45.58 181.434 45.775 181.174 46.035V51H178.969V43.56ZM188.668 48.66C189.098 48.93 189.528 49.145 189.958 49.305C190.398 49.465 190.868 49.545 191.368 49.545C191.878 49.545 192.243 49.49 192.463 49.38C192.683 49.27 192.793 49.115 192.793 48.915C192.793 48.685 192.608 48.5 192.238 48.36C191.878 48.21 191.398 48.05 190.798 47.88C190.468 47.79 190.143 47.685 189.823 47.565C189.513 47.435 189.233 47.285 188.983 47.115C188.733 46.935 188.528 46.73 188.368 46.5C188.218 46.27 188.143 46.005 188.143 45.705C188.143 45.365 188.223 45.05 188.383 44.76C188.543 44.47 188.768 44.225 189.058 44.025C189.358 43.825 189.718 43.67 190.138 43.56C190.568 43.44 191.048 43.38 191.578 43.38C192.238 43.38 192.838 43.49 193.378 43.71C193.928 43.92 194.398 44.15 194.788 44.4L193.798 45.72C193.458 45.52 193.108 45.355 192.748 45.225C192.388 45.085 192.013 45.015 191.623 45.015C191.153 45.015 190.818 45.065 190.618 45.165C190.428 45.265 190.333 45.41 190.333 45.6C190.333 45.71 190.383 45.81 190.483 45.9C190.583 45.99 190.718 46.07 190.888 46.14C191.058 46.21 191.258 46.28 191.488 46.35C191.728 46.41 191.978 46.475 192.238 46.545C192.608 46.645 192.958 46.76 193.288 46.89C193.618 47.01 193.908 47.155 194.158 47.325C194.408 47.495 194.608 47.7 194.758 47.94C194.908 48.18 194.983 48.46 194.983 48.78C194.983 49.12 194.903 49.435 194.743 49.725C194.583 50.015 194.348 50.27 194.038 50.49C193.738 50.7 193.358 50.87 192.898 51C192.448 51.12 191.923 51.18 191.323 51.18C190.653 51.18 189.998 51.07 189.358 50.85C188.718 50.63 188.158 50.36 187.678 50.04L188.668 48.66ZM198.487 45.285H196.612V43.65L198.592 43.56L198.877 41.58H200.692V43.56H203.842V45.285H200.692V47.895C200.692 48.465 200.817 48.87 201.067 49.11C201.317 49.34 201.712 49.455 202.252 49.455C202.542 49.455 202.807 49.43 203.047 49.38C203.287 49.33 203.517 49.265 203.737 49.185L204.127 50.775C203.797 50.875 203.427 50.965 203.017 51.045C202.617 51.135 202.177 51.18 201.697 51.18C201.107 51.18 200.607 51.1 200.197 50.94C199.787 50.78 199.452 50.56 199.192 50.28C198.942 49.99 198.762 49.645 198.652 49.245C198.542 48.845 198.487 48.4 198.487 47.91V45.285ZM205.786 48.93C205.786 48.51 205.876 48.145 206.056 47.835C206.236 47.515 206.521 47.245 206.911 47.025C207.311 46.805 207.821 46.63 208.441 46.5C209.061 46.36 209.811 46.265 210.691 46.215C210.651 45.875 210.501 45.61 210.241 45.42C209.991 45.23 209.611 45.135 209.101 45.135C208.741 45.135 208.376 45.2 208.006 45.33C207.646 45.45 207.256 45.615 206.836 45.825L206.056 44.385C206.566 44.095 207.111 43.855 207.691 43.665C208.281 43.475 208.896 43.38 209.536 43.38C210.576 43.38 211.396 43.655 211.996 44.205C212.596 44.755 212.896 45.6 212.896 46.74V51H211.096L210.931 50.16H210.871C210.491 50.45 210.076 50.695 209.626 50.895C209.176 51.085 208.711 51.18 208.231 51.18C207.851 51.18 207.511 51.12 207.211 51C206.911 50.89 206.656 50.735 206.446 50.535C206.236 50.325 206.071 50.085 205.951 49.815C205.841 49.545 205.786 49.25 205.786 48.93ZM207.901 48.765C207.901 49.005 207.991 49.185 208.171 49.305C208.361 49.415 208.616 49.47 208.936 49.47C209.266 49.47 209.576 49.405 209.866 49.275C210.156 49.135 210.431 48.965 210.691 48.765V47.535C210.141 47.565 209.686 47.615 209.326 47.685C208.966 47.755 208.681 47.845 208.471 47.955C208.261 48.055 208.111 48.175 208.021 48.315C207.941 48.455 207.901 48.605 207.901 48.765ZM214.945 43.56H216.745L216.91 44.55H216.97C217.29 44.23 217.655 43.955 218.065 43.725C218.485 43.495 218.975 43.38 219.535 43.38C220.375 43.38 220.99 43.65 221.38 44.19C221.77 44.73 221.965 45.47 221.965 46.41V51H219.76V46.695C219.76 46.195 219.68 45.83 219.52 45.6C219.36 45.37 219.075 45.255 218.665 45.255C218.365 45.255 218.1 45.32 217.87 45.45C217.65 45.58 217.41 45.775 217.15 46.035V51H214.945V43.56ZM225.469 45.285H223.594V43.65L225.574 43.56L225.859 41.58H227.674V43.56H230.824V45.285H227.674V47.895C227.674 48.465 227.799 48.87 228.049 49.11C228.299 49.34 228.694 49.455 229.234 49.455C229.524 49.455 229.789 49.43 230.029 49.38C230.269 49.33 230.499 49.265 230.719 49.185L231.109 50.775C230.779 50.875 230.409 50.965 229.999 51.045C229.599 51.135 229.159 51.18 228.679 51.18C228.089 51.18 227.589 51.1 227.179 50.94C226.769 50.78 226.434 50.56 226.174 50.28C225.924 49.99 225.744 49.645 225.634 49.245C225.524 48.845 225.469 48.4 225.469 47.91V45.285ZM232.904 43.53H239.804V45.09H232.904V43.53ZM232.904 46.995H239.804V48.555H232.904V46.995ZM260.726 52.71C261.176 52.28 261.561 51.84 261.881 51.39C262.201 50.95 262.461 50.49 262.661 50.01C262.871 49.53 263.026 49.03 263.126 48.51C263.226 47.98 263.276 47.42 263.276 46.83C263.276 45.65 263.071 44.595 262.661 43.665C262.261 42.725 261.616 41.82 260.726 40.95L261.956 39.975C262.936 40.845 263.706 41.85 264.266 42.99C264.836 44.13 265.121 45.41 265.121 46.83C265.121 48.25 264.836 49.53 264.266 50.67C263.706 51.81 262.936 52.815 261.956 53.685L260.726 52.71ZM270.59 44.58C270.59 44.33 270.63 44.1 270.71 43.89C270.8 43.67 270.92 43.48 271.07 43.32C271.22 43.16 271.4 43.035 271.61 42.945C271.83 42.855 272.07 42.81 272.33 42.81C272.59 42.81 272.825 42.855 273.035 42.945C273.255 43.035 273.44 43.16 273.59 43.32C273.74 43.48 273.855 43.67 273.935 43.89C274.025 44.1 274.07 44.33 274.07 44.58C274.07 45.08 273.91 45.5 273.59 45.84C273.27 46.17 272.85 46.335 272.33 46.335C271.81 46.335 271.39 46.17 271.07 45.84C270.75 45.5 270.59 45.08 270.59 44.58ZM270.59 49.425C270.59 49.175 270.63 48.945 270.71 48.735C270.8 48.515 270.92 48.325 271.07 48.165C271.22 48.005 271.4 47.88 271.61 47.79C271.83 47.7 272.07 47.655 272.33 47.655C272.59 47.655 272.825 47.7 273.035 47.79C273.255 47.88 273.44 48.005 273.59 48.165C273.74 48.325 273.855 48.515 273.935 48.735C274.025 48.945 274.07 49.175 274.07 49.425C274.07 49.925 273.91 50.345 273.59 50.685C273.27 51.015 272.85 51.18 272.33 51.18C271.81 51.18 271.39 51.015 271.07 50.685C270.75 50.345 270.59 49.925 270.59 49.425ZM109.071 66.13L106.656 62.56H109.026L109.791 63.76C109.901 63.97 110.026 64.185 110.166 64.405C110.306 64.615 110.441 64.825 110.571 65.035H110.631C110.731 64.825 110.831 64.61 110.931 64.39C111.041 64.17 111.146 63.96 111.246 63.76L111.906 62.56H114.216L111.786 66.385L114.366 70H111.996L111.141 68.77C111.001 68.56 110.856 68.345 110.706 68.125C110.566 67.905 110.426 67.69 110.286 67.48H110.226C110.116 67.69 110.001 67.905 109.881 68.125C109.761 68.335 109.646 68.55 109.536 68.77L108.801 70H106.491L109.071 66.13ZM127.614 65.83H124.974V64.27H127.614V61.51H129.234V64.27H131.874V65.83H129.234V68.59H127.614V65.83ZM142.917 66.28C142.917 65.66 143.032 65.11 143.262 64.63C143.502 64.14 143.817 63.73 144.207 63.4C144.607 63.07 145.067 62.82 145.587 62.65C146.107 62.47 146.652 62.38 147.222 62.38C147.812 62.38 148.342 62.475 148.812 62.665C149.292 62.855 149.692 63.095 150.012 63.385L148.992 64.75C148.442 64.36 147.892 64.165 147.342 64.165C146.702 64.165 146.182 64.355 145.782 64.735C145.382 65.115 145.182 65.63 145.182 66.28C145.182 66.93 145.372 67.445 145.752 67.825C146.142 68.205 146.647 68.395 147.267 68.395C147.657 68.395 148.017 68.325 148.347 68.185C148.677 68.045 148.972 67.88 149.232 67.69L150.132 69.085C149.682 69.465 149.182 69.745 148.632 69.925C148.092 70.095 147.567 70.18 147.057 70.18C146.467 70.18 145.922 70.095 145.422 69.925C144.922 69.745 144.482 69.49 144.102 69.16C143.732 68.83 143.442 68.425 143.232 67.945C143.022 67.455 142.917 66.9 142.917 66.28ZM151.611 66.28C151.611 65.66 151.716 65.11 151.926 64.63C152.136 64.14 152.416 63.73 152.766 63.4C153.126 63.07 153.531 62.82 153.981 62.65C154.441 62.47 154.916 62.38 155.406 62.38C155.896 62.38 156.366 62.47 156.816 62.65C157.276 62.82 157.681 63.07 158.031 63.4C158.391 63.73 158.676 64.14 158.886 64.63C159.096 65.11 159.201 65.66 159.201 66.28C159.201 66.9 159.096 67.455 158.886 67.945C158.676 68.425 158.391 68.83 158.031 69.16C157.681 69.49 157.276 69.745 156.816 69.925C156.366 70.095 155.896 70.18 155.406 70.18C154.916 70.18 154.441 70.095 153.981 69.925C153.531 69.745 153.126 69.49 152.766 69.16C152.416 68.83 152.136 68.425 151.926 67.945C151.716 67.455 151.611 66.9 151.611 66.28ZM153.876 66.28C153.876 66.93 154.001 67.445 154.251 67.825C154.511 68.205 154.896 68.395 155.406 68.395C155.916 68.395 156.296 68.205 156.546 67.825C156.806 67.445 156.936 66.93 156.936 66.28C156.936 65.63 156.806 65.115 156.546 64.735C156.296 64.355 155.916 64.165 155.406 64.165C154.896 64.165 154.511 64.355 154.251 64.735C154.001 65.115 153.876 65.63 153.876 66.28ZM160.98 62.56H162.78L162.945 63.55H163.005C163.325 63.23 163.69 62.955 164.1 62.725C164.52 62.495 165.01 62.38 165.57 62.38C166.41 62.38 167.025 62.65 167.415 63.19C167.805 63.73 168 64.47 168 65.41V70H165.795V65.695C165.795 65.195 165.715 64.83 165.555 64.6C165.395 64.37 165.11 64.255 164.7 64.255C164.4 64.255 164.135 64.32 163.905 64.45C163.685 64.58 163.445 64.775 163.185 65.035V70H160.98V62.56ZM170.68 67.66C171.11 67.93 171.54 68.145 171.97 68.305C172.41 68.465 172.88 68.545 173.38 68.545C173.89 68.545 174.255 68.49 174.475 68.38C174.695 68.27 174.805 68.115 174.805 67.915C174.805 67.685 174.62 67.5 174.25 67.36C173.89 67.21 173.41 67.05 172.81 66.88C172.48 66.79 172.155 66.685 171.835 66.565C171.525 66.435 171.245 66.285 170.995 66.115C170.745 65.935 170.54 65.73 170.38 65.5C170.23 65.27 170.155 65.005 170.155 64.705C170.155 64.365 170.235 64.05 170.395 63.76C170.555 63.47 170.78 63.225 171.07 63.025C171.37 62.825 171.73 62.67 172.15 62.56C172.58 62.44 173.06 62.38 173.59 62.38C174.25 62.38 174.85 62.49 175.39 62.71C175.94 62.92 176.41 63.15 176.8 63.4L175.81 64.72C175.47 64.52 175.12 64.355 174.76 64.225C174.4 64.085 174.025 64.015 173.635 64.015C173.165 64.015 172.83 64.065 172.63 64.165C172.44 64.265 172.345 64.41 172.345 64.6C172.345 64.71 172.395 64.81 172.495 64.9C172.595 64.99 172.73 65.07 172.9 65.14C173.07 65.21 173.27 65.28 173.5 65.35C173.74 65.41 173.99 65.475 174.25 65.545C174.62 65.645 174.97 65.76 175.3 65.89C175.63 66.01 175.92 66.155 176.17 66.325C176.42 66.495 176.62 66.7 176.77 66.94C176.92 67.18 176.995 67.46 176.995 67.78C176.995 68.12 176.915 68.435 176.755 68.725C176.595 69.015 176.36 69.27 176.05 69.49C175.75 69.7 175.37 69.87 174.91 70C174.46 70.12 173.935 70.18 173.335 70.18C172.665 70.18 172.01 70.07 171.37 69.85C170.73 69.63 170.17 69.36 169.69 69.04L170.68 67.66ZM180.499 64.285H178.624V62.65L180.604 62.56L180.889 60.58H182.704V62.56H185.854V64.285H182.704V66.895C182.704 67.465 182.829 67.87 183.079 68.11C183.329 68.34 183.724 68.455 184.264 68.455C184.554 68.455 184.819 68.43 185.059 68.38C185.299 68.33 185.529 68.265 185.749 68.185L186.139 69.775C185.809 69.875 185.439 69.965 185.029 70.045C184.629 70.135 184.189 70.18 183.709 70.18C183.119 70.18 182.619 70.1 182.209 69.94C181.799 69.78 181.464 69.56 181.204 69.28C180.954 68.99 180.774 68.645 180.664 68.245C180.554 67.845 180.499 67.4 180.499 66.91V64.285ZM187.798 67.93C187.798 67.51 187.888 67.145 188.068 66.835C188.248 66.515 188.533 66.245 188.923 66.025C189.323 65.805 189.833 65.63 190.453 65.5C191.073 65.36 191.823 65.265 192.703 65.215C192.663 64.875 192.513 64.61 192.253 64.42C192.003 64.23 191.623 64.135 191.113 64.135C190.753 64.135 190.388 64.2 190.018 64.33C189.658 64.45 189.268 64.615 188.848 64.825L188.068 63.385C188.578 63.095 189.123 62.855 189.703 62.665C190.293 62.475 190.908 62.38 191.548 62.38C192.588 62.38 193.408 62.655 194.008 63.205C194.608 63.755 194.908 64.6 194.908 65.74V70H193.108L192.943 69.16H192.883C192.503 69.45 192.088 69.695 191.638 69.895C191.188 70.085 190.723 70.18 190.243 70.18C189.863 70.18 189.523 70.12 189.223 70C188.923 69.89 188.668 69.735 188.458 69.535C188.248 69.325 188.083 69.085 187.963 68.815C187.853 68.545 187.798 68.25 187.798 67.93ZM189.913 67.765C189.913 68.005 190.003 68.185 190.183 68.305C190.373 68.415 190.628 68.47 190.948 68.47C191.278 68.47 191.588 68.405 191.878 68.275C192.168 68.135 192.443 67.965 192.703 67.765V66.535C192.153 66.565 191.698 66.615 191.338 66.685C190.978 66.755 190.693 66.845 190.483 66.955C190.273 67.055 190.123 67.175 190.033 67.315C189.953 67.455 189.913 67.605 189.913 67.765ZM196.957 62.56H198.757L198.922 63.55H198.982C199.302 63.23 199.667 62.955 200.077 62.725C200.497 62.495 200.987 62.38 201.547 62.38C202.387 62.38 203.002 62.65 203.392 63.19C203.782 63.73 203.977 64.47 203.977 65.41V70H201.772V65.695C201.772 65.195 201.692 64.83 201.532 64.6C201.372 64.37 201.087 64.255 200.677 64.255C200.377 64.255 200.112 64.32 199.882 64.45C199.662 64.58 199.422 64.775 199.162 65.035V70H196.957V62.56ZM207.481 64.285H205.606V62.65L207.586 62.56L207.871 60.58H209.686V62.56H212.836V64.285H209.686V66.895C209.686 67.465 209.811 67.87 210.061 68.11C210.311 68.34 210.706 68.455 211.246 68.455C211.536 68.455 211.801 68.43 212.041 68.38C212.281 68.33 212.511 68.265 212.731 68.185L213.121 69.775C212.791 69.875 212.421 69.965 212.011 70.045C211.611 70.135 211.171 70.18 210.691 70.18C210.101 70.18 209.601 70.1 209.191 69.94C208.781 69.78 208.446 69.56 208.186 69.28C207.936 68.99 207.756 68.645 207.646 68.245C207.536 67.845 207.481 67.4 207.481 66.91V64.285ZM7.915 104.93C7.915 104.51 8.005 104.145 8.185 103.835C8.365 103.515 8.65 103.245 9.04 103.025C9.44 102.805 9.95 102.63 10.57 102.5C11.19 102.36 11.94 102.265 12.82 102.215C12.78 101.875 12.63 101.61 12.37 101.42C12.12 101.23 11.74 101.135 11.23 101.135C10.87 101.135 10.505 101.2 10.135 101.33C9.775 101.45 9.385 101.615 8.965 101.825L8.185 100.385C8.695 100.095 9.24 99.855 9.82 99.665C10.41 99.475 11.025 99.38 11.665 99.38C12.705 99.38 13.525 99.655 14.125 100.205C14.725 100.755 15.025 101.6 15.025 102.74V107H13.225L13.06 106.16H13C12.62 106.45 12.205 106.695 11.755 106.895C11.305 107.085 10.84 107.18 10.36 107.18C9.98 107.18 9.64 107.12 9.34 107C9.04 106.89 8.785 106.735 8.575 106.535C8.365 106.325 8.2 106.085 8.08 105.815C7.97 105.545 7.915 105.25 7.915 104.93ZM10.03 104.765C10.03 105.005 10.12 105.185 10.3 105.305C10.49 105.415 10.745 105.47 11.065 105.47C11.395 105.47 11.705 105.405 11.995 105.275C12.285 105.135 12.56 104.965 12.82 104.765V103.535C12.27 103.565 11.815 103.615 11.455 103.685C11.095 103.755 10.81 103.845 10.6 103.955C10.39 104.055 10.24 104.175 10.15 104.315C10.07 104.455 10.03 104.605 10.03 104.765ZM16.6991 103.28C16.6991 102.67 16.7891 102.125 16.9691 101.645C17.1491 101.165 17.3841 100.76 17.6741 100.43C17.9741 100.09 18.3141 99.83 18.6941 99.65C19.0741 99.47 19.4691 99.38 19.8791 99.38C20.3091 99.38 20.6691 99.455 20.9591 99.605C21.2491 99.745 21.5241 99.935 21.7841 100.175L21.7091 99.02V96.485H23.9141V107H22.1141L21.9491 106.235H21.9041C21.6241 106.505 21.3041 106.73 20.9441 106.91C20.5841 107.09 20.2141 107.18 19.8341 107.18C19.3641 107.18 18.9341 107.09 18.5441 106.91C18.1641 106.73 17.8341 106.475 17.5541 106.145C17.2841 105.805 17.0741 105.395 16.9241 104.915C16.7741 104.435 16.6991 103.89 16.6991 103.28ZM18.9641 103.25C18.9641 103.99 19.0891 104.53 19.3391 104.87C19.5891 105.21 19.9441 105.38 20.4041 105.38C20.6541 105.38 20.8841 105.33 21.0941 105.23C21.3041 105.12 21.5091 104.94 21.7091 104.69V101.675C21.5091 101.495 21.3041 101.37 21.0941 101.3C20.8941 101.22 20.6841 101.18 20.4641 101.18C20.0541 101.18 19.6991 101.35 19.3991 101.69C19.1091 102.03 18.9641 102.55 18.9641 103.25ZM25.6933 103.28C25.6933 102.67 25.7833 102.125 25.9633 101.645C26.1433 101.165 26.3783 100.76 26.6683 100.43C26.9683 100.09 27.3083 99.83 27.6883 99.65C28.0683 99.47 28.4633 99.38 28.8733 99.38C29.3033 99.38 29.6633 99.455 29.9533 99.605C30.2433 99.745 30.5183 99.935 30.7783 100.175L30.7033 99.02V96.485H32.9083V107H31.1083L30.9433 106.235H30.8983C30.6183 106.505 30.2983 106.73 29.9383 106.91C29.5783 107.09 29.2083 107.18 28.8283 107.18C28.3583 107.18 27.9283 107.09 27.5383 106.91C27.1583 106.73 26.8283 106.475 26.5483 106.145C26.2783 105.805 26.0683 105.395 25.9183 104.915C25.7683 104.435 25.6933 103.89 25.6933 103.28ZM27.9583 103.25C27.9583 103.99 28.0833 104.53 28.3333 104.87C28.5833 105.21 28.9383 105.38 29.3983 105.38C29.6483 105.38 29.8783 105.33 30.0883 105.23C30.2983 105.12 30.5033 104.94 30.7033 104.69V101.675C30.5033 101.495 30.2983 101.37 30.0883 101.3C29.8883 101.22 29.6783 101.18 29.4583 101.18C29.0483 101.18 28.6933 101.35 28.3933 101.69C28.1033 102.03 27.9583 102.55 27.9583 103.25ZM42.0824 107.81V109.46H34.8824V107.81H42.0824ZM43.4416 99.56H45.6616L46.8316 103.07C46.9516 103.45 47.0666 103.83 47.1766 104.21C47.2866 104.59 47.3966 104.975 47.5066 105.365H47.5666C47.6766 104.975 47.7816 104.59 47.8816 104.21C47.9916 103.83 48.1066 103.45 48.2266 103.07L49.3966 99.56H51.5116L48.7816 107H46.2466L43.4416 99.56ZM52.8857 104.93C52.8857 104.51 52.9757 104.145 53.1557 103.835C53.3357 103.515 53.6207 103.245 54.0107 103.025C54.4107 102.805 54.9207 102.63 55.5407 102.5C56.1607 102.36 56.9107 102.265 57.7907 102.215C57.7507 101.875 57.6007 101.61 57.3407 101.42C57.0907 101.23 56.7107 101.135 56.2007 101.135C55.8407 101.135 55.4757 101.2 55.1057 101.33C54.7457 101.45 54.3557 101.615 53.9357 101.825L53.1557 100.385C53.6657 100.095 54.2107 99.855 54.7907 99.665C55.3807 99.475 55.9957 99.38 56.6357 99.38C57.6757 99.38 58.4957 99.655 59.0957 100.205C59.6957 100.755 59.9957 101.6 59.9957 102.74V107H58.1957L58.0307 106.16H57.9707C57.5907 106.45 57.1757 106.695 56.7257 106.895C56.2757 107.085 55.8107 107.18 55.3307 107.18C54.9507 107.18 54.6107 107.12 54.3107 107C54.0107 106.89 53.7557 106.735 53.5457 106.535C53.3357 106.325 53.1707 106.085 53.0507 105.815C52.9407 105.545 52.8857 105.25 52.8857 104.93ZM55.0007 104.765C55.0007 105.005 55.0907 105.185 55.2707 105.305C55.4607 105.415 55.7157 105.47 56.0357 105.47C56.3657 105.47 56.6757 105.405 56.9657 105.275C57.2557 105.135 57.5307 104.965 57.7907 104.765V103.535C57.2407 103.565 56.7857 103.615 56.4257 103.685C56.0657 103.755 55.7807 103.845 55.5707 103.955C55.3607 104.055 55.2107 104.175 55.1207 104.315C55.0407 104.455 55.0007 104.605 55.0007 104.765ZM61.8948 96.485H66.2598V104.18C66.2598 104.41 66.2898 104.605 66.3498 104.765C66.4198 104.915 66.5098 105.04 66.6198 105.14C66.7398 105.23 66.8698 105.295 67.0098 105.335C67.1598 105.375 67.3098 105.395 67.4598 105.395C67.6298 105.395 67.8098 105.38 67.9998 105.35C68.1898 105.31 68.3998 105.245 68.6298 105.155L69.1248 106.775C68.9248 106.835 68.7398 106.89 68.5698 106.94C68.3998 106.99 68.2298 107.03 68.0598 107.06C67.8898 107.1 67.7098 107.13 67.5198 107.15C67.3298 107.17 67.1198 107.18 66.8898 107.18C65.9498 107.18 65.2398 106.905 64.7598 106.355C64.2898 105.795 64.0548 105.04 64.0548 104.09V98.225H61.8948V96.485ZM77.834 107H76.034L75.869 105.935H75.809C75.479 106.315 75.114 106.62 74.714 106.85C74.314 107.07 73.844 107.18 73.304 107.18C72.454 107.18 71.839 106.91 71.459 106.37C71.079 105.83 70.889 105.09 70.889 104.15V99.56H73.094V103.865C73.094 104.365 73.169 104.73 73.319 104.96C73.469 105.19 73.754 105.305 74.174 105.305C74.454 105.305 74.699 105.245 74.909 105.125C75.129 105.005 75.369 104.78 75.629 104.45V99.56H77.834V107ZM79.7781 103.28C79.7781 102.67 79.8831 102.125 80.0931 101.645C80.3131 101.165 80.6031 100.76 80.9631 100.43C81.3231 100.09 81.7331 99.83 82.1931 99.65C82.6631 99.47 83.1481 99.38 83.6481 99.38C84.2181 99.38 84.7231 99.47 85.1631 99.65C85.6031 99.83 85.9681 100.08 86.2581 100.4C86.5481 100.72 86.7681 101.1 86.9181 101.54C87.0681 101.97 87.1431 102.44 87.1431 102.95C87.1431 103.15 87.1331 103.34 87.1131 103.52C87.0931 103.7 87.0731 103.835 87.0531 103.925H82.0431C82.1231 104.485 82.3631 104.89 82.7631 105.14C83.1731 105.38 83.6531 105.5 84.2031 105.5C84.5431 105.5 84.8631 105.46 85.1631 105.38C85.4731 105.29 85.7931 105.16 86.1231 104.99L86.8431 106.31C86.4231 106.58 85.9531 106.795 85.4331 106.955C84.9131 107.105 84.4031 107.18 83.9031 107.18C83.3231 107.18 82.7831 107.095 82.2831 106.925C81.7831 106.745 81.3481 106.49 80.9781 106.16C80.6081 105.82 80.3131 105.41 80.0931 104.93C79.8831 104.45 79.7781 103.9 79.7781 103.28ZM85.1481 102.47C85.1481 102.05 85.0331 101.71 84.8031 101.45C84.5731 101.19 84.2031 101.06 83.6931 101.06C83.2931 101.06 82.9381 101.175 82.6281 101.405C82.3181 101.635 82.1131 101.99 82.0131 102.47H85.1481ZM93.8273 109.685C92.8473 108.815 92.0723 107.81 91.5023 106.67C90.9423 105.53 90.6623 104.25 90.6623 102.83C90.6623 101.41 90.9423 100.13 91.5023 98.99C92.0723 97.85 92.8473 96.845 93.8273 95.975L95.0573 96.95C94.1673 97.82 93.5173 98.725 93.1073 99.665C92.7073 100.595 92.5073 101.65 92.5073 102.83C92.5073 103.42 92.5573 103.98 92.6573 104.51C92.7573 105.03 92.9073 105.53 93.1073 106.01C93.3173 106.49 93.5823 106.95 93.9023 107.39C94.2223 107.84 94.6073 108.28 95.0573 108.71L93.8273 109.685ZM107.826 108.71C108.276 108.28 108.661 107.84 108.981 107.39C109.301 106.95 109.561 106.49 109.761 106.01C109.971 105.53 110.126 105.03 110.226 104.51C110.326 103.98 110.376 103.42 110.376 102.83C110.376 101.65 110.171 100.595 109.761 99.665C109.361 98.725 108.716 97.82 107.826 96.95L109.056 95.975C110.036 96.845 110.806 97.85 111.366 98.99C111.936 100.13 112.221 101.41 112.221 102.83C112.221 104.25 111.936 105.53 111.366 106.67C110.806 107.81 110.036 108.815 109.056 109.685L107.826 108.71Z" fill="white"/>
<path d="M43.8916 48.93C43.8916 48.51 43.9816 48.145 44.1616 47.835C44.3416 47.515 44.6266 47.245 45.0166 47.025C45.4166 46.805 45.9266 46.63 46.5466 46.5C47.1666 46.36 47.9166 46.265 48.7966 46.215C48.7566 45.875 48.6066 45.61 48.3466 45.42C48.0966 45.23 47.7166 45.135 47.2066 45.135C46.8466 45.135 46.4816 45.2 46.1116 45.33C45.7516 45.45 45.3616 45.615 44.9416 45.825L44.1616 44.385C44.6716 44.095 45.2166 43.855 45.7966 43.665C46.3866 43.475 47.0016 43.38 47.6416 43.38C48.6816 43.38 49.5016 43.655 50.1016 44.205C50.7016 44.755 51.0016 45.6 51.0016 46.74V51H49.2016L49.0366 50.16H48.9766C48.5966 50.45 48.1816 50.695 47.7316 50.895C47.2816 51.085 46.8166 51.18 46.3366 51.18C45.9566 51.18 45.6166 51.12 45.3166 51C45.0166 50.89 44.7616 50.735 44.5516 50.535C44.3416 50.325 44.1766 50.085 44.0566 49.815C43.9466 49.545 43.8916 49.25 43.8916 48.93ZM46.0066 48.765C46.0066 49.005 46.0966 49.185 46.2766 49.305C46.4666 49.415 46.7216 49.47 47.0416 49.47C47.3716 49.47 47.6816 49.405 47.9716 49.275C48.2616 49.135 48.5366 48.965 48.7966 48.765V47.535C48.2466 47.565 47.7916 47.615 47.4316 47.685C47.0716 47.755 46.7866 47.845 46.5766 47.955C46.3666 48.055 46.2166 48.175 46.1266 48.315C46.0466 48.455 46.0066 48.605 46.0066 48.765ZM52.6757 47.28C52.6757 46.67 52.7657 46.125 52.9457 45.645C53.1257 45.165 53.3607 44.76 53.6507 44.43C53.9507 44.09 54.2907 43.83 54.6707 43.65C55.0507 43.47 55.4457 43.38 55.8557 43.38C56.2857 43.38 56.6457 43.455 56.9357 43.605C57.2257 43.745 57.5007 43.935 57.7607 44.175L57.6857 43.02V40.485H59.8907V51H58.0907L57.9257 50.235H57.8807C57.6007 50.505 57.2807 50.73 56.9207 50.91C56.5607 51.09 56.1907 51.18 55.8107 51.18C55.3407 51.18 54.9107 51.09 54.5207 50.91C54.1407 50.73 53.8107 50.475 53.5307 50.145C53.2607 49.805 53.0507 49.395 52.9007 48.915C52.7507 48.435 52.6757 47.89 52.6757 47.28ZM54.9407 47.25C54.9407 47.99 55.0657 48.53 55.3157 48.87C55.5657 49.21 55.9207 49.38 56.3807 49.38C56.6307 49.38 56.8607 49.33 57.0707 49.23C57.2807 49.12 57.4857 48.94 57.6857 48.69V45.675C57.4857 45.495 57.2807 45.37 57.0707 45.3C56.8707 45.22 56.6607 45.18 56.4407 45.18C56.0307 45.18 55.6757 45.35 55.3757 45.69C55.0857 46.03 54.9407 46.55 54.9407 47.25ZM61.6698 47.28C61.6698 46.67 61.7598 46.125 61.9398 45.645C62.1198 45.165 62.3548 44.76 62.6448 44.43C62.9448 44.09 63.2848 43.83 63.6648 43.65C64.0448 43.47 64.4398 43.38 64.8498 43.38C65.2798 43.38 65.6398 43.455 65.9298 43.605C66.2198 43.745 66.4948 43.935 66.7548 44.175L66.6798 43.02V40.485H68.8848V51H67.0848L66.9198 50.235H66.8748C66.5948 50.505 66.2748 50.73 65.9148 50.91C65.5548 51.09 65.1848 51.18 64.8048 51.18C64.3348 51.18 63.9048 51.09 63.5148 50.91C63.1348 50.73 62.8048 50.475 62.5248 50.145C62.2548 49.805 62.0448 49.395 61.8948 48.915C61.7448 48.435 61.6698 47.89 61.6698 47.28ZM63.9348 47.25C63.9348 47.99 64.0598 48.53 64.3098 48.87C64.5598 49.21 64.9148 49.38 65.3748 49.38C65.6248 49.38 65.8548 49.33 66.0648 49.23C66.2748 49.12 66.4798 48.94 66.6798 48.69V45.675C66.4798 45.495 66.2748 45.37 66.0648 45.3C65.8648 45.22 65.6548 45.18 65.4348 45.18C65.0248 45.18 64.6698 45.35 64.3698 45.69C64.0798 46.03 63.9348 46.55 63.9348 47.25ZM78.059 51.81V53.46H70.859V51.81H78.059ZM79.4181 43.56H81.6381L82.8081 47.07C82.9281 47.45 83.0431 47.83 83.1531 48.21C83.2631 48.59 83.3731 48.975 83.4831 49.365H83.5431C83.6531 48.975 83.7581 48.59 83.8581 48.21C83.9681 47.83 84.0831 47.45 84.2031 47.07L85.3731 43.56H87.4881L84.7581 51H82.2231L79.4181 43.56ZM88.8623 48.93C88.8623 48.51 88.9523 48.145 89.1323 47.835C89.3123 47.515 89.5973 47.245 89.9873 47.025C90.3873 46.805 90.8973 46.63 91.5173 46.5C92.1373 46.36 92.8873 46.265 93.7673 46.215C93.7273 45.875 93.5773 45.61 93.3173 45.42C93.0673 45.23 92.6873 45.135 92.1773 45.135C91.8173 45.135 91.4523 45.2 91.0823 45.33C90.7223 45.45 90.3323 45.615 89.9123 45.825L89.1323 44.385C89.6423 44.095 90.1873 43.855 90.7673 43.665C91.3573 43.475 91.9723 43.38 92.6123 43.38C93.6523 43.38 94.4723 43.655 95.0723 44.205C95.6723 44.755 95.9723 45.6 95.9723 46.74V51H94.1723L94.0073 50.16H93.9473C93.5673 50.45 93.1523 50.695 92.7023 50.895C92.2523 51.085 91.7873 51.18 91.3073 51.18C90.9273 51.18 90.5873 51.12 90.2873 51C89.9873 50.89 89.7323 50.735 89.5223 50.535C89.3123 50.325 89.1473 50.085 89.0273 49.815C88.9173 49.545 88.8623 49.25 88.8623 48.93ZM90.9773 48.765C90.9773 49.005 91.0673 49.185 91.2473 49.305C91.4373 49.415 91.6923 49.47 92.0123 49.47C92.3423 49.47 92.6523 49.405 92.9423 49.275C93.2323 49.135 93.5073 48.965 93.7673 48.765V47.535C93.2173 47.565 92.7623 47.615 92.4023 47.685C92.0423 47.755 91.7573 47.845 91.5473 47.955C91.3373 48.055 91.1873 48.175 91.0973 48.315C91.0173 48.455 90.9773 48.605 90.9773 48.765ZM97.8714 40.485H102.236V48.18C102.236 48.41 102.266 48.605 102.326 48.765C102.396 48.915 102.486 49.04 102.596 49.14C102.716 49.23 102.846 49.295 102.986 49.335C103.136 49.375 103.286 49.395 103.436 49.395C103.606 49.395 103.786 49.38 103.976 49.35C104.166 49.31 104.376 49.245 104.606 49.155L105.101 50.775C104.901 50.835 104.716 50.89 104.546 50.94C104.376 50.99 104.206 51.03 104.036 51.06C103.866 51.1 103.686 51.13 103.496 51.15C103.306 51.17 103.096 51.18 102.866 51.18C101.926 51.18 101.216 50.905 100.736 50.355C100.266 49.795 100.031 49.04 100.031 48.09V42.225H97.8714V40.485ZM113.811 51H112.011L111.846 49.935H111.786C111.456 50.315 111.091 50.62 110.691 50.85C110.291 51.07 109.821 51.18 109.281 51.18C108.431 51.18 107.816 50.91 107.436 50.37C107.056 49.83 106.866 49.09 106.866 48.15V43.56H109.071V47.865C109.071 48.365 109.146 48.73 109.296 48.96C109.446 49.19 109.731 49.305 110.151 49.305C110.431 49.305 110.676 49.245 110.886 49.125C111.106 49.005 111.346 48.78 111.606 48.45V43.56H113.811V51ZM115.755 47.28C115.755 46.67 115.86 46.125 116.07 45.645C116.29 45.165 116.58 44.76 116.94 44.43C117.3 44.09 117.71 43.83 118.17 43.65C118.64 43.47 119.125 43.38 119.625 43.38C120.195 43.38 120.7 43.47 121.14 43.65C121.58 43.83 121.945 44.08 122.235 44.4C122.525 44.72 122.745 45.1 122.895 45.54C123.045 45.97 123.12 46.44 123.12 46.95C123.12 47.15 123.11 47.34 123.09 47.52C123.07 47.7 123.05 47.835 123.03 47.925H118.02C118.1 48.485 118.34 48.89 118.74 49.14C119.15 49.38 119.63 49.5 120.18 49.5C120.52 49.5 120.84 49.46 121.14 49.38C121.45 49.29 121.77 49.16 122.1 48.99L122.82 50.31C122.4 50.58 121.93 50.795 121.41 50.955C120.89 51.105 120.38 51.18 119.88 51.18C119.3 51.18 118.76 51.095 118.26 50.925C117.76 50.745 117.325 50.49 116.955 50.16C116.585 49.82 116.29 49.41 116.07 48.93C115.86 48.45 115.755 47.9 115.755 47.28ZM121.125 46.47C121.125 46.05 121.01 45.71 120.78 45.45C120.55 45.19 120.18 45.06 119.67 45.06C119.27 45.06 118.915 45.175 118.605 45.405C118.295 45.635 118.09 45.99 117.99 46.47H121.125Z" fill="#56B4E9"/>
<path d="M248.903 49.215V51H242.078V49.215H244.538V43.71H242.573V42.345C243.133 42.245 243.608 42.125 243.998 41.985C244.398 41.845 244.773 41.675 245.123 41.475H246.743V49.215H248.903ZM254.342 51.18C253.792 51.18 253.292 51.075 252.842 50.865C252.392 50.645 252.007 50.325 251.687 49.905C251.367 49.485 251.117 48.965 250.937 48.345C250.767 47.725 250.682 47.01 250.682 46.2C250.682 45.39 250.767 44.68 250.937 44.07C251.117 43.46 251.367 42.95 251.687 42.54C252.007 42.12 252.392 41.81 252.842 41.61C253.292 41.4 253.792 41.295 254.342 41.295C254.892 41.295 255.392 41.4 255.842 41.61C256.292 41.81 256.677 42.12 256.997 42.54C257.317 42.95 257.562 43.46 257.732 44.07C257.912 44.68 258.002 45.39 258.002 46.2C258.002 47.01 257.912 47.725 257.732 48.345C257.562 48.965 257.317 49.485 256.997 49.905C256.677 50.325 256.292 50.645 255.842 50.865C255.392 51.075 254.892 51.18 254.342 51.18ZM254.342 43.005C254.102 43.005 253.877 43.055 253.667 43.155C253.467 43.255 253.292 43.43 253.142 43.68C252.992 43.92 252.872 44.245 252.782 44.655C252.692 45.065 252.647 45.58 252.647 46.2C252.647 46.82 252.692 47.34 252.782 47.76C252.872 48.17 252.992 48.505 253.142 48.765C253.292 49.015 253.467 49.195 253.667 49.305C253.877 49.415 254.102 49.47 254.342 49.47C254.582 49.47 254.802 49.415 255.002 49.305C255.212 49.195 255.392 49.015 255.542 48.765C255.692 48.505 255.812 48.17 255.902 47.76C255.992 47.34 256.037 46.82 256.037 46.2C256.037 45.58 255.992 45.065 255.902 44.655C255.812 44.245 255.692 43.92 255.542 43.68C255.392 43.43 255.212 43.255 255.002 43.155C254.802 43.055 254.582 43.005 254.342 43.005ZM254.342 47.31C254.022 47.31 253.752 47.21 253.532 47.01C253.322 46.8 253.217 46.52 253.217 46.17C253.217 45.82 253.322 45.545 253.532 45.345C253.752 45.135 254.022 45.03 254.342 45.03C254.662 45.03 254.927 45.135 255.137 45.345C255.357 45.545 255.467 45.82 255.467 46.17C255.467 46.52 255.357 46.8 255.137 47.01C254.927 47.21 254.662 47.31 254.342 47.31ZM98.5914 104.435C98.9114 104.715 99.2664 104.945 99.6564 105.125C100.056 105.305 100.476 105.395 100.916 105.395C101.436 105.395 101.861 105.3 102.191 105.11C102.531 104.91 102.701 104.63 102.701 104.27C102.701 104.06 102.656 103.87 102.566 103.7C102.476 103.53 102.321 103.39 102.101 103.28C101.881 103.16 101.586 103.07 101.216 103.01C100.846 102.94 100.381 102.905 99.8214 102.905V101.345C100.761 101.345 101.421 101.23 101.801 101C102.191 100.76 102.386 100.45 102.386 100.07C102.386 99.74 102.261 99.485 102.011 99.305C101.761 99.115 101.416 99.02 100.976 99.02C100.596 99.02 100.246 99.095 99.9264 99.245C99.6064 99.395 99.2814 99.6 98.9514 99.86L97.8414 98.51C98.3114 98.13 98.8114 97.835 99.3414 97.625C99.8814 97.405 100.461 97.295 101.081 97.295C101.601 97.295 102.076 97.355 102.506 97.475C102.936 97.585 103.306 97.755 103.616 97.985C103.926 98.205 104.166 98.475 104.336 98.795C104.506 99.115 104.591 99.485 104.591 99.905C104.591 100.405 104.431 100.83 104.111 101.18C103.791 101.52 103.346 101.8 102.776 102.02V102.08C103.376 102.24 103.881 102.515 104.291 102.905C104.701 103.285 104.906 103.785 104.906 104.405C104.906 104.845 104.801 105.24 104.591 105.59C104.391 105.93 104.116 106.22 103.766 106.46C103.426 106.69 103.026 106.87 102.566 107C102.106 107.12 101.626 107.18 101.126 107.18C100.306 107.18 99.6014 107.06 99.0114 106.82C98.4214 106.57 97.9414 106.24 97.5714 105.83L98.5914 104.435Z" fill="#F0E442"/>
</svg>
