<svg width="242" height="177" viewBox="0 0 242 177" fill="none" xmlns="http://www.w3.org/2000/svg">
<rect width="242" height="177" fill="white"/>
<rect width="242" height="177" fill="black"/>
<path d="M7.87 142.74C8.55 142.17 9.17 141.64 9.73 141.15C10.29 140.65 10.77 140.185 11.17 139.755C11.57 139.325 11.88 138.92 12.1 138.54C12.32 138.16 12.43 137.8 12.43 137.46C12.43 136.99 12.295 136.635 12.025 136.395C11.755 136.145 11.37 136.02 10.87 136.02C10.49 136.02 10.14 136.12 9.82 136.32C9.51 136.51 9.22 136.735 8.95 136.995L7.765 135.81C8.015 135.56 8.26 135.34 8.5 135.15C8.75 134.96 9.01 134.805 9.28 134.685C9.56 134.555 9.85 134.46 10.15 134.4C10.46 134.33 10.8 134.295 11.17 134.295C11.67 134.295 12.125 134.37 12.535 134.52C12.945 134.66 13.295 134.865 13.585 135.135C13.885 135.395 14.115 135.71 14.275 136.08C14.445 136.45 14.53 136.865 14.53 137.325C14.53 137.725 14.435 138.135 14.245 138.555C14.055 138.965 13.795 139.38 13.465 139.8C13.145 140.21 12.775 140.625 12.355 141.045C11.935 141.455 11.495 141.86 11.035 142.26C11.305 142.23 11.595 142.205 11.905 142.185C12.225 142.155 12.51 142.14 12.76 142.14H15.025V144H7.87V142.74ZM20.4941 144.18C19.9441 144.18 19.4441 144.075 18.9941 143.865C18.5441 143.645 18.1591 143.325 17.8391 142.905C17.5191 142.485 17.2691 141.965 17.0891 141.345C16.9191 140.725 16.8341 140.01 16.8341 139.2C16.8341 138.39 16.9191 137.68 17.0891 137.07C17.2691 136.46 17.5191 135.95 17.8391 135.54C18.1591 135.12 18.5441 134.81 18.9941 134.61C19.4441 134.4 19.9441 134.295 20.4941 134.295C21.0441 134.295 21.5441 134.4 21.9941 134.61C22.4441 134.81 22.8291 135.12 23.1491 135.54C23.4691 135.95 23.7141 136.46 23.8841 137.07C24.0641 137.68 24.1541 138.39 24.1541 139.2C24.1541 140.01 24.0641 140.725 23.8841 141.345C23.7141 141.965 23.4691 142.485 23.1491 142.905C22.8291 143.325 22.4441 143.645 21.9941 143.865C21.5441 144.075 21.0441 144.18 20.4941 144.18ZM20.4941 136.005C20.2541 136.005 20.0291 136.055 19.8191 136.155C19.6191 136.255 19.4441 136.43 19.2941 136.68C19.1441 136.92 19.0241 137.245 18.9341 137.655C18.8441 138.065 18.7991 138.58 18.7991 139.2C18.7991 139.82 18.8441 140.34 18.9341 140.76C19.0241 141.17 19.1441 141.505 19.2941 141.765C19.4441 142.015 19.6191 142.195 19.8191 142.305C20.0291 142.415 20.2541 142.47 20.4941 142.47C20.7341 142.47 20.9541 142.415 21.1541 142.305C21.3641 142.195 21.5441 142.015 21.6941 141.765C21.8441 141.505 21.9641 141.17 22.0541 140.76C22.1441 140.34 22.1891 139.82 22.1891 139.2C22.1891 138.58 22.1441 138.065 22.0541 137.655C21.9641 137.245 21.8441 136.92 21.6941 136.68C21.5441 136.43 21.3641 136.255 21.1541 136.155C20.9541 136.055 20.7341 136.005 20.4941 136.005ZM20.4941 140.31C20.1741 140.31 19.9041 140.21 19.6841 140.01C19.4741 139.8 19.3691 139.52 19.3691 139.17C19.3691 138.82 19.4741 138.545 19.6841 138.345C19.9041 138.135 20.1741 138.03 20.4941 138.03C20.8141 138.03 21.0791 138.135 21.2891 138.345C21.5091 138.545 21.6191 138.82 21.6191 139.17C21.6191 139.52 21.5091 139.8 21.2891 140.01C21.0791 140.21 20.8141 140.31 20.4941 140.31ZM8.65 160.435C8.97 160.715 9.325 160.945 9.715 161.125C10.115 161.305 10.535 161.395 10.975 161.395C11.495 161.395 11.92 161.3 12.25 161.11C12.59 160.91 12.76 160.63 12.76 160.27C12.76 160.06 12.715 159.87 12.625 159.7C12.535 159.53 12.38 159.39 12.16 159.28C11.94 159.16 11.645 159.07 11.275 159.01C10.905 158.94 10.44 158.905 9.88 158.905V157.345C10.82 157.345 11.48 157.23 11.86 157C12.25 156.76 12.445 156.45 12.445 156.07C12.445 155.74 12.32 155.485 12.07 155.305C11.82 155.115 11.475 155.02 11.035 155.02C10.655 155.02 10.305 155.095 9.985 155.245C9.665 155.395 9.34 155.6 9.01 155.86L7.9 154.51C8.37 154.13 8.87 153.835 9.4 153.625C9.94 153.405 10.52 153.295 11.14 153.295C11.66 153.295 12.135 153.355 12.565 153.475C12.995 153.585 13.365 153.755 13.675 153.985C13.985 154.205 14.225 154.475 14.395 154.795C14.565 155.115 14.65 155.485 14.65 155.905C14.65 156.405 14.49 156.83 14.17 157.18C13.85 157.52 13.405 157.8 12.835 158.02V158.08C13.435 158.24 13.94 158.515 14.35 158.905C14.76 159.285 14.965 159.785 14.965 160.405C14.965 160.845 14.86 161.24 14.65 161.59C14.45 161.93 14.175 162.22 13.825 162.46C13.485 162.69 13.085 162.87 12.625 163C12.165 163.12 11.685 163.18 11.185 163.18C10.365 163.18 9.66 163.06 9.07 162.82C8.48 162.57 8 162.24 7.63 161.83L8.65 160.435ZM20.4941 163.18C19.9441 163.18 19.4441 163.075 18.9941 162.865C18.5441 162.645 18.1591 162.325 17.8391 161.905C17.5191 161.485 17.2691 160.965 17.0891 160.345C16.9191 159.725 16.8341 159.01 16.8341 158.2C16.8341 157.39 16.9191 156.68 17.0891 156.07C17.2691 155.46 17.5191 154.95 17.8391 154.54C18.1591 154.12 18.5441 153.81 18.9941 153.61C19.4441 153.4 19.9441 153.295 20.4941 153.295C21.0441 153.295 21.5441 153.4 21.9941 153.61C22.4441 153.81 22.8291 154.12 23.1491 154.54C23.4691 154.95 23.7141 155.46 23.8841 156.07C24.0641 156.68 24.1541 157.39 24.1541 158.2C24.1541 159.01 24.0641 159.725 23.8841 160.345C23.7141 160.965 23.4691 161.485 23.1491 161.905C22.8291 162.325 22.4441 162.645 21.9941 162.865C21.5441 163.075 21.0441 163.18 20.4941 163.18ZM20.4941 155.005C20.2541 155.005 20.0291 155.055 19.8191 155.155C19.6191 155.255 19.4441 155.43 19.2941 155.68C19.1441 155.92 19.0241 156.245 18.9341 156.655C18.8441 157.065 18.7991 157.58 18.7991 158.2C18.7991 158.82 18.8441 159.34 18.9341 159.76C19.0241 160.17 19.1441 160.505 19.2941 160.765C19.4441 161.015 19.6191 161.195 19.8191 161.305C20.0291 161.415 20.2541 161.47 20.4941 161.47C20.7341 161.47 20.9541 161.415 21.1541 161.305C21.3641 161.195 21.5441 161.015 21.6941 160.765C21.8441 160.505 21.9641 160.17 22.0541 159.76C22.1441 159.34 22.1891 158.82 22.1891 158.2C22.1891 157.58 22.1441 157.065 22.0541 156.655C21.9641 156.245 21.8441 155.92 21.6941 155.68C21.5441 155.43 21.3641 155.255 21.1541 155.155C20.9541 155.055 20.7341 155.005 20.4941 155.005ZM20.4941 159.31C20.1741 159.31 19.9041 159.21 19.6841 159.01C19.4741 158.8 19.3691 158.52 19.3691 158.17C19.3691 157.82 19.4741 157.545 19.6841 157.345C19.9041 157.135 20.1741 157.03 20.4941 157.03C20.8141 157.03 21.0791 157.135 21.2891 157.345C21.5091 157.545 21.6191 157.82 21.6191 158.17C21.6191 158.52 21.5091 158.8 21.2891 159.01C21.0791 159.21 20.8141 159.31 20.4941 159.31Z" fill="white"/>
<path d="M11.5 125.18C10.92 125.18 10.385 125.065 9.895 124.835C9.415 124.595 9 124.255 8.65 123.815C8.31 123.375 8.045 122.84 7.855 122.21C7.665 121.58 7.57 120.865 7.57 120.065C7.57 119.265 7.665 118.555 7.855 117.935C8.045 117.305 8.31 116.78 8.65 116.36C9 115.93 9.415 115.605 9.895 115.385C10.385 115.155 10.92 115.04 11.5 115.04C12.08 115.04 12.61 115.155 13.09 115.385C13.58 115.605 13.995 115.93 14.335 116.36C14.685 116.79 14.955 117.32 15.145 117.95C15.335 118.57 15.43 119.275 15.43 120.065C15.43 120.865 15.335 121.58 15.145 122.21C14.955 122.84 14.685 123.375 14.335 123.815C13.995 124.255 13.58 124.595 13.09 124.835C12.61 125.065 12.08 125.18 11.5 125.18ZM11.5 123.275C12.01 123.275 12.415 122.99 12.715 122.42C13.015 121.84 13.165 121.055 13.165 120.065C13.165 119.085 13.015 118.32 12.715 117.77C12.415 117.22 12.01 116.945 11.5 116.945C10.99 116.945 10.585 117.22 10.285 117.77C9.985 118.32 9.835 119.085 9.835 120.065C9.835 121.055 9.985 121.84 10.285 122.42C10.585 122.99 10.99 123.275 11.5 123.275ZM23.8691 125H22.0691L21.9041 123.935H21.8441C21.5141 124.315 21.1491 124.62 20.7491 124.85C20.3491 125.07 19.8791 125.18 19.3391 125.18C18.4891 125.18 17.8741 124.91 17.4941 124.37C17.1141 123.83 16.9241 123.09 16.9241 122.15V117.56H19.1291V121.865C19.1291 122.365 19.2041 122.73 19.3541 122.96C19.5041 123.19 19.7891 123.305 20.2091 123.305C20.4891 123.305 20.7341 123.245 20.9441 123.125C21.1641 123.005 21.4041 122.78 21.6641 122.45V117.56H23.8691V125ZM27.5983 119.285H25.7233V117.65L27.7033 117.56L27.9883 115.58H29.8033V117.56H32.9533V119.285H29.8033V121.895C29.8033 122.465 29.9283 122.87 30.1783 123.11C30.4283 123.34 30.8233 123.455 31.3633 123.455C31.6533 123.455 31.9183 123.43 32.1583 123.38C32.3983 123.33 32.6283 123.265 32.8483 123.185L33.2383 124.775C32.9083 124.875 32.5383 124.965 32.1283 125.045C31.7283 125.135 31.2883 125.18 30.8083 125.18C30.2183 125.18 29.7183 125.1 29.3083 124.94C28.8983 124.78 28.5633 124.56 28.3033 124.28C28.0533 123.99 27.8733 123.645 27.7633 123.245C27.6533 122.845 27.5983 122.4 27.5983 121.91V119.285ZM37.2674 125.585V127.76H35.0624V117.56H36.8624L37.0274 118.31H37.0724C37.3724 118.04 37.7174 117.82 38.1074 117.65C38.4974 117.47 38.8924 117.38 39.2924 117.38C39.7524 117.38 40.1674 117.47 40.5374 117.65C40.9074 117.83 41.2224 118.085 41.4824 118.415C41.7424 118.745 41.9374 119.145 42.0674 119.615C42.2074 120.075 42.2774 120.59 42.2774 121.16C42.2774 121.8 42.1874 122.37 42.0074 122.87C41.8274 123.36 41.5874 123.78 41.2874 124.13C40.9874 124.47 40.6424 124.73 40.2524 124.91C39.8724 125.09 39.4724 125.18 39.0524 125.18C38.3724 125.18 37.7524 124.91 37.1924 124.37L37.2674 125.585ZM37.2674 122.885C37.4774 123.065 37.6924 123.195 37.9124 123.275C38.1424 123.345 38.3524 123.38 38.5424 123.38C38.9624 123.38 39.3124 123.21 39.5924 122.87C39.8724 122.52 40.0124 121.96 40.0124 121.19C40.0124 119.85 39.5574 119.18 38.6474 119.18C38.1774 119.18 37.7174 119.41 37.2674 119.87V122.885ZM50.8516 125H49.0516L48.8866 123.935H48.8266C48.4966 124.315 48.1316 124.62 47.7316 124.85C47.3316 125.07 46.8616 125.18 46.3216 125.18C45.4716 125.18 44.8566 124.91 44.4766 124.37C44.0966 123.83 43.9066 123.09 43.9066 122.15V117.56H46.1116V121.865C46.1116 122.365 46.1866 122.73 46.3366 122.96C46.4866 123.19 46.7716 123.305 47.1916 123.305C47.4716 123.305 47.7166 123.245 47.9266 123.125C48.1466 123.005 48.3866 122.78 48.6466 122.45V117.56H50.8516V125ZM54.5807 119.285H52.7057V117.65L54.6857 117.56L54.9707 115.58H56.7857V117.56H59.9357V119.285H56.7857V121.895C56.7857 122.465 56.9107 122.87 57.1607 123.11C57.4107 123.34 57.8057 123.455 58.3457 123.455C58.6357 123.455 58.9007 123.43 59.1407 123.38C59.3807 123.33 59.6107 123.265 59.8307 123.185L60.2207 124.775C59.8907 124.875 59.5207 124.965 59.1107 125.045C58.7107 125.135 58.2707 125.18 57.7907 125.18C57.2007 125.18 56.7007 125.1 56.2907 124.94C55.8807 124.78 55.5457 124.56 55.2857 124.28C55.0357 123.99 54.8557 123.645 54.7457 123.245C54.6357 122.845 54.5807 122.4 54.5807 121.91V119.285Z" fill="white"/>
<rect x="96.75" width="145.25" height="30.6018" fill="#333333"/>
<rect x="96.75" width="145.25" height="30.6018" fill="#333333"/>
<rect width="97.1974" height="30.6018" fill="#090808"/>
<path d="M18.105 17.8101C18.105 17.5513 17.9756 17.3486 17.7168 17.2021C17.4629 17.0508 17.0527 16.9165 16.4863 16.7993C14.6016 16.4038 13.6592 15.603 13.6592 14.397C13.6592 13.6938 13.9497 13.1079 14.5308 12.6392C15.1167 12.1655 15.8809 11.9287 16.8232 11.9287C17.8291 11.9287 18.6323 12.1655 19.2329 12.6392C19.8384 13.1128 20.1411 13.728 20.1411 14.4849H18.0244C18.0244 14.1821 17.9268 13.9331 17.7314 13.7378C17.5361 13.5376 17.231 13.4375 16.8159 13.4375C16.4595 13.4375 16.1836 13.5181 15.9883 13.6792C15.793 13.8403 15.6953 14.0454 15.6953 14.2944C15.6953 14.5288 15.8052 14.7192 16.0249 14.8657C16.2495 15.0073 16.6255 15.1318 17.1528 15.2393C17.6802 15.3418 18.1245 15.459 18.4858 15.5908C19.604 16.001 20.1631 16.7114 20.1631 17.7222C20.1631 18.4448 19.853 19.0308 19.2329 19.48C18.6128 19.9243 17.812 20.1465 16.8306 20.1465C16.1665 20.1465 15.5757 20.0293 15.0581 19.7949C14.5454 19.5557 14.1426 19.231 13.8496 18.8208C13.5566 18.4058 13.4102 17.959 13.4102 17.4805H15.417C15.4365 17.8564 15.5757 18.1445 15.8345 18.3447C16.0933 18.5449 16.4399 18.645 16.8745 18.645C17.2798 18.645 17.585 18.5693 17.79 18.418C18 18.2617 18.105 18.0591 18.105 17.8101ZM24.8286 18.4399C25.2192 18.4399 25.5366 18.3325 25.7808 18.1177C26.0249 17.9028 26.1519 17.6172 26.1616 17.2607H28.1465C28.1416 17.7979 27.9951 18.291 27.707 18.7402C27.4189 19.1846 27.0234 19.5312 26.5205 19.7803C26.0225 20.0244 25.4707 20.1465 24.8652 20.1465C23.7324 20.1465 22.8389 19.7876 22.1846 19.0698C21.5303 18.3472 21.2031 17.3511 21.2031 16.0815V15.9424C21.2031 14.7217 21.5278 13.7476 22.1772 13.02C22.8267 12.2925 23.7178 11.9287 24.8506 11.9287C25.8418 11.9287 26.6353 12.2119 27.231 12.7783C27.8315 13.3398 28.1367 14.0894 28.1465 15.0269H26.1616C26.1519 14.6167 26.0249 14.2847 25.7808 14.0308C25.5366 13.772 25.2144 13.6426 24.814 13.6426C24.3208 13.6426 23.9473 13.8232 23.6934 14.1846C23.4443 14.541 23.3198 15.1221 23.3198 15.9277V16.1475C23.3198 16.9629 23.4443 17.5488 23.6934 17.9053C23.9424 18.2617 24.3208 18.4399 24.8286 18.4399ZM33.8081 14.0601C33.52 14.021 33.2661 14.0015 33.0464 14.0015C32.2456 14.0015 31.7207 14.2725 31.4717 14.8145V20H29.355V12.0752H31.3545L31.4131 13.02C31.8379 12.2925 32.4263 11.9287 33.1782 11.9287C33.4126 11.9287 33.6323 11.9604 33.8374 12.0239L33.8081 14.0601ZM37.0674 20H34.9434V12.0752H37.0674V20ZM34.8188 10.0244C34.8188 9.70703 34.9238 9.4458 35.1338 9.24072C35.3486 9.03564 35.6392 8.93311 36.0054 8.93311C36.3667 8.93311 36.6548 9.03564 36.8696 9.24072C37.0845 9.4458 37.1919 9.70703 37.1919 10.0244C37.1919 10.3467 37.082 10.6104 36.8623 10.8154C36.6475 11.0205 36.3618 11.123 36.0054 11.123C35.6489 11.123 35.3608 11.0205 35.1411 10.8154C34.9263 10.6104 34.8188 10.3467 34.8188 10.0244ZM45.9517 16.1108C45.9517 17.3315 45.6733 18.3105 45.1167 19.0479C44.5649 19.7803 43.8179 20.1465 42.8755 20.1465C42.0747 20.1465 41.4277 19.8682 40.9346 19.3115V23.0469H38.8179V12.0752H40.7808L40.854 12.8516C41.3667 12.2363 42.0356 11.9287 42.8608 11.9287C43.8374 11.9287 44.5967 12.29 45.1387 13.0127C45.6807 13.7354 45.9517 14.7314 45.9517 16.001V16.1108ZM43.835 15.957C43.835 15.2197 43.7031 14.6509 43.4395 14.2505C43.1807 13.8501 42.8022 13.6499 42.3042 13.6499C41.6401 13.6499 41.1836 13.9038 40.9346 14.4116V17.6562C41.1934 18.1787 41.6548 18.4399 42.3188 18.4399C43.3296 18.4399 43.835 17.6123 43.835 15.957ZM49.8042 10.127V12.0752H51.1592V13.6279H49.8042V17.583C49.8042 17.876 49.8604 18.0859 49.9727 18.2129C50.085 18.3398 50.2998 18.4033 50.6172 18.4033C50.8516 18.4033 51.0591 18.3862 51.2397 18.3521V19.9561C50.8247 20.083 50.3975 20.1465 49.958 20.1465C48.4736 20.1465 47.7168 19.397 47.6875 17.8979V13.6279H46.5303V12.0752H47.6875V10.127H49.8042ZM52.4482 18.96C52.4482 18.623 52.5605 18.3496 52.7852 18.1396C53.0146 17.9297 53.3003 17.8247 53.6421 17.8247C53.9888 17.8247 54.2744 17.9297 54.499 18.1396C54.7285 18.3496 54.8433 18.623 54.8433 18.96C54.8433 19.292 54.731 19.563 54.5063 19.7729C54.2817 19.978 53.9937 20.0806 53.6421 20.0806C53.2954 20.0806 53.0098 19.978 52.7852 19.7729C52.5605 19.563 52.4482 19.292 52.4482 18.96ZM63.8374 16.1108C63.8374 17.3315 63.5591 18.3105 63.0024 19.0479C62.4507 19.7803 61.7036 20.1465 60.7612 20.1465C59.9604 20.1465 59.3135 19.8682 58.8203 19.3115V23.0469H56.7036V12.0752H58.6665L58.7397 12.8516C59.2524 12.2363 59.9214 11.9287 60.7466 11.9287C61.7231 11.9287 62.4824 12.29 63.0244 13.0127C63.5664 13.7354 63.8374 14.7314 63.8374 16.001V16.1108ZM61.7207 15.957C61.7207 15.2197 61.5889 14.6509 61.3252 14.2505C61.0664 13.8501 60.688 13.6499 60.1899 13.6499C59.5259 13.6499 59.0693 13.9038 58.8203 14.4116V17.6562C59.0791 18.1787 59.5405 18.4399 60.2046 18.4399C61.2153 18.4399 61.7207 17.6123 61.7207 15.957ZM68.0269 17.0044L69.4917 12.0752H71.7622L68.5762 21.2305L68.4004 21.6479C67.9268 22.6831 67.1455 23.2007 66.0566 23.2007C65.749 23.2007 65.4365 23.1543 65.1191 23.0615V21.4575L65.4414 21.4648C65.8418 21.4648 66.1396 21.4038 66.335 21.2817C66.5352 21.1597 66.6914 20.957 66.8037 20.6738L67.0527 20.022L64.2769 12.0752H66.5547L68.0269 17.0044Z" fill="white"/>
<line y1="104.54" x2="242" y2="104.54" stroke="white"/>
<path d="M7.915 48.93C7.915 48.51 8.005 48.145 8.185 47.835C8.365 47.515 8.65 47.245 9.04 47.025C9.44 46.805 9.95 46.63 10.57 46.5C11.19 46.36 11.94 46.265 12.82 46.215C12.78 45.875 12.63 45.61 12.37 45.42C12.12 45.23 11.74 45.135 11.23 45.135C10.87 45.135 10.505 45.2 10.135 45.33C9.775 45.45 9.385 45.615 8.965 45.825L8.185 44.385C8.695 44.095 9.24 43.855 9.82 43.665C10.41 43.475 11.025 43.38 11.665 43.38C12.705 43.38 13.525 43.655 14.125 44.205C14.725 44.755 15.025 45.6 15.025 46.74V51H13.225L13.06 50.16H13C12.62 50.45 12.205 50.695 11.755 50.895C11.305 51.085 10.84 51.18 10.36 51.18C9.98 51.18 9.64 51.12 9.34 51C9.04 50.89 8.785 50.735 8.575 50.535C8.365 50.325 8.2 50.085 8.08 49.815C7.97 49.545 7.915 49.25 7.915 48.93ZM10.03 48.765C10.03 49.005 10.12 49.185 10.3 49.305C10.49 49.415 10.745 49.47 11.065 49.47C11.395 49.47 11.705 49.405 11.995 49.275C12.285 49.135 12.56 48.965 12.82 48.765V47.535C12.27 47.565 11.815 47.615 11.455 47.685C11.095 47.755 10.81 47.845 10.6 47.955C10.39 48.055 10.24 48.175 10.15 48.315C10.07 48.455 10.03 48.605 10.03 48.765ZM17.0741 43.56H18.8741L19.0391 44.55H19.0991C19.4191 44.23 19.7841 43.955 20.1941 43.725C20.6141 43.495 21.1041 43.38 21.6641 43.38C22.5041 43.38 23.1191 43.65 23.5091 44.19C23.8991 44.73 24.0941 45.47 24.0941 46.41V51H21.8891V46.695C21.8891 46.195 21.8091 45.83 21.6491 45.6C21.4891 45.37 21.2041 45.255 20.7941 45.255C20.4941 45.255 20.2291 45.32 19.9991 45.45C19.7791 45.58 19.5391 45.775 19.2791 46.035V51H17.0741V43.56ZM25.6933 47.28C25.6933 46.66 25.7983 46.11 26.0083 45.63C26.2183 45.14 26.4983 44.73 26.8483 44.4C27.2083 44.07 27.6133 43.82 28.0633 43.65C28.5233 43.47 28.9983 43.38 29.4883 43.38C29.9783 43.38 30.4483 43.47 30.8983 43.65C31.3583 43.82 31.7633 44.07 32.1133 44.4C32.4733 44.73 32.7583 45.14 32.9683 45.63C33.1783 46.11 33.2833 46.66 33.2833 47.28C33.2833 47.9 33.1783 48.455 32.9683 48.945C32.7583 49.425 32.4733 49.83 32.1133 50.16C31.7633 50.49 31.3583 50.745 30.8983 50.925C30.4483 51.095 29.9783 51.18 29.4883 51.18C28.9983 51.18 28.5233 51.095 28.0633 50.925C27.6133 50.745 27.2083 50.49 26.8483 50.16C26.4983 49.83 26.2183 49.425 26.0083 48.945C25.7983 48.455 25.6933 47.9 25.6933 47.28ZM27.9583 47.28C27.9583 47.93 28.0833 48.445 28.3333 48.825C28.5933 49.205 28.9783 49.395 29.4883 49.395C29.9983 49.395 30.3783 49.205 30.6283 48.825C30.8883 48.445 31.0183 47.93 31.0183 47.28C31.0183 46.63 30.8883 46.115 30.6283 45.735C30.3783 45.355 29.9983 45.165 29.4883 45.165C28.9783 45.165 28.5933 45.355 28.3333 45.735C28.0833 46.115 27.9583 46.63 27.9583 47.28ZM36.5924 45.285H34.7174V43.65L36.6974 43.56L36.9824 41.58H38.7974V43.56H41.9474V45.285H38.7974V47.895C38.7974 48.465 38.9224 48.87 39.1724 49.11C39.4224 49.34 39.8174 49.455 40.3574 49.455C40.6474 49.455 40.9124 49.43 41.1524 49.38C41.3924 49.33 41.6224 49.265 41.8424 49.185L42.2324 50.775C41.9024 50.875 41.5324 50.965 41.1224 51.045C40.7224 51.135 40.2824 51.18 39.8024 51.18C39.2124 51.18 38.7124 51.1 38.3024 50.94C37.8924 50.78 37.5574 50.56 37.2974 50.28C37.0474 49.99 36.8674 49.645 36.7574 49.245C36.6474 48.845 36.5924 48.4 36.5924 47.91V45.285ZM44.0566 40.485H46.2616V43.065L46.1416 44.49C46.2916 44.35 46.4516 44.215 46.6216 44.085C46.8016 43.945 46.9916 43.825 47.1916 43.725C47.4016 43.615 47.6266 43.53 47.8666 43.47C48.1166 43.41 48.3816 43.38 48.6616 43.38C49.5016 43.38 50.1116 43.65 50.4916 44.19C50.8816 44.73 51.0766 45.47 51.0766 46.41V51H48.8716V46.695C48.8716 46.195 48.7916 45.83 48.6316 45.6C48.4716 45.37 48.1866 45.255 47.7766 45.255C47.4766 45.255 47.2116 45.32 46.9816 45.45C46.7616 45.58 46.5216 45.775 46.2616 46.035V51H44.0566V40.485ZM52.7957 47.28C52.7957 46.67 52.9007 46.125 53.1107 45.645C53.3307 45.165 53.6207 44.76 53.9807 44.43C54.3407 44.09 54.7507 43.83 55.2107 43.65C55.6807 43.47 56.1657 43.38 56.6657 43.38C57.2357 43.38 57.7407 43.47 58.1807 43.65C58.6207 43.83 58.9857 44.08 59.2757 44.4C59.5657 44.72 59.7857 45.1 59.9357 45.54C60.0857 45.97 60.1607 46.44 60.1607 46.95C60.1607 47.15 60.1507 47.34 60.1307 47.52C60.1107 47.7 60.0907 47.835 60.0707 47.925H55.0607C55.1407 48.485 55.3807 48.89 55.7807 49.14C56.1907 49.38 56.6707 49.5 57.2207 49.5C57.5607 49.5 57.8807 49.46 58.1807 49.38C58.4907 49.29 58.8107 49.16 59.1407 48.99L59.8607 50.31C59.4407 50.58 58.9707 50.795 58.4507 50.955C57.9307 51.105 57.4207 51.18 56.9207 51.18C56.3407 51.18 55.8007 51.095 55.3007 50.925C54.8007 50.745 54.3657 50.49 53.9957 50.16C53.6257 49.82 53.3307 49.41 53.1107 48.93C52.9007 48.45 52.7957 47.9 52.7957 47.28ZM58.1657 46.47C58.1657 46.05 58.0507 45.71 57.8207 45.45C57.5907 45.19 57.2207 45.06 56.7107 45.06C56.3107 45.06 55.9557 45.175 55.6457 45.405C55.3357 45.635 55.1307 45.99 55.0307 46.47H58.1657ZM62.7048 43.56H64.5048L64.6848 45.18H64.7298C65.0998 44.57 65.5448 44.12 66.0648 43.83C66.5848 43.53 67.1448 43.38 67.7448 43.38C68.0748 43.38 68.3398 43.405 68.5398 43.455C68.7498 43.505 68.9648 43.58 69.1848 43.68L68.7348 45.525C68.5048 45.455 68.2948 45.405 68.1048 45.375C67.9248 45.335 67.6948 45.315 67.4148 45.315C66.9548 45.315 66.4998 45.45 66.0498 45.72C65.6098 45.99 65.2298 46.46 64.9098 47.13V51H62.7048V43.56ZM78.059 51.81V53.46H70.859V51.81H78.059ZM80.0331 43.56H81.8331L81.9981 44.55H82.0581C82.3781 44.23 82.7431 43.955 83.1531 43.725C83.5731 43.495 84.0631 43.38 84.6231 43.38C85.4631 43.38 86.0781 43.65 86.4681 44.19C86.8581 44.73 87.0531 45.47 87.0531 46.41V51H84.8481V46.695C84.8481 46.195 84.7681 45.83 84.6081 45.6C84.4481 45.37 84.1631 45.255 83.7531 45.255C83.4531 45.255 83.1881 45.32 82.9581 45.45C82.7381 45.58 82.4981 45.775 82.2381 46.035V51H80.0331V43.56ZM88.8623 48.93C88.8623 48.51 88.9523 48.145 89.1323 47.835C89.3123 47.515 89.5973 47.245 89.9873 47.025C90.3873 46.805 90.8973 46.63 91.5173 46.5C92.1373 46.36 92.8873 46.265 93.7673 46.215C93.7273 45.875 93.5773 45.61 93.3173 45.42C93.0673 45.23 92.6873 45.135 92.1773 45.135C91.8173 45.135 91.4523 45.2 91.0823 45.33C90.7223 45.45 90.3323 45.615 89.9123 45.825L89.1323 44.385C89.6423 44.095 90.1873 43.855 90.7673 43.665C91.3573 43.475 91.9723 43.38 92.6123 43.38C93.6523 43.38 94.4723 43.655 95.0723 44.205C95.6723 44.755 95.9723 45.6 95.9723 46.74V51H94.1723L94.0073 50.16H93.9473C93.5673 50.45 93.1523 50.695 92.7023 50.895C92.2523 51.085 91.7873 51.18 91.3073 51.18C90.9273 51.18 90.5873 51.12 90.2873 51C89.9873 50.89 89.7323 50.735 89.5223 50.535C89.3123 50.325 89.1473 50.085 89.0273 49.815C88.9173 49.545 88.8623 49.25 88.8623 48.93ZM90.9773 48.765C90.9773 49.005 91.0673 49.185 91.2473 49.305C91.4373 49.415 91.6923 49.47 92.0123 49.47C92.3423 49.47 92.6523 49.405 92.9423 49.275C93.2323 49.135 93.5073 48.965 93.7673 48.765V47.535C93.2173 47.565 92.7623 47.615 92.4023 47.685C92.0423 47.755 91.7573 47.845 91.5473 47.955C91.3373 48.055 91.1873 48.175 91.0973 48.315C91.0173 48.455 90.9773 48.605 90.9773 48.765ZM97.4814 43.56H99.1314L99.2964 44.49H99.3564C99.4964 44.18 99.6864 43.92 99.9264 43.71C100.176 43.49 100.516 43.38 100.946 43.38C101.276 43.38 101.551 43.485 101.771 43.695C102.001 43.895 102.161 44.195 102.251 44.595C102.391 44.255 102.591 43.97 102.851 43.74C103.121 43.5 103.466 43.38 103.886 43.38C104.406 43.38 104.811 43.595 105.101 44.025C105.391 44.445 105.536 45.03 105.536 45.78V51H103.466V45.945C103.466 45.485 103.326 45.255 103.046 45.255C102.776 45.255 102.546 45.495 102.356 45.975V51H100.661V45.945C100.661 45.485 100.516 45.255 100.226 45.255C100.086 45.255 99.9664 45.315 99.8664 45.435C99.7664 45.555 99.6614 45.735 99.5514 45.975V51H97.4814V43.56ZM106.761 47.28C106.761 46.67 106.866 46.125 107.076 45.645C107.296 45.165 107.586 44.76 107.946 44.43C108.306 44.09 108.716 43.83 109.176 43.65C109.646 43.47 110.131 43.38 110.631 43.38C111.201 43.38 111.706 43.47 112.146 43.65C112.586 43.83 112.951 44.08 113.241 44.4C113.531 44.72 113.751 45.1 113.901 45.54C114.051 45.97 114.126 46.44 114.126 46.95C114.126 47.15 114.116 47.34 114.096 47.52C114.076 47.7 114.056 47.835 114.036 47.925H109.026C109.106 48.485 109.346 48.89 109.746 49.14C110.156 49.38 110.636 49.5 111.186 49.5C111.526 49.5 111.846 49.46 112.146 49.38C112.456 49.29 112.776 49.16 113.106 48.99L113.826 50.31C113.406 50.58 112.936 50.795 112.416 50.955C111.896 51.105 111.386 51.18 110.886 51.18C110.306 51.18 109.766 51.095 109.266 50.925C108.766 50.745 108.331 50.49 107.961 50.16C107.591 49.82 107.296 49.41 107.076 48.93C106.866 48.45 106.761 47.9 106.761 47.28ZM112.131 46.47C112.131 46.05 112.016 45.71 111.786 45.45C111.556 45.19 111.186 45.06 110.676 45.06C110.276 45.06 109.921 45.175 109.611 45.405C109.301 45.635 109.096 45.99 108.996 46.47H112.131ZM57.8507 72.685C56.8707 71.815 56.0957 70.81 55.5257 69.67C54.9657 68.53 54.6857 67.25 54.6857 65.83C54.6857 64.41 54.9657 63.13 55.5257 61.99C56.0957 60.85 56.8707 59.845 57.8507 58.975L59.0807 59.95C58.1907 60.82 57.5407 61.725 57.1307 62.665C56.7307 63.595 56.5307 64.65 56.5307 65.83C56.5307 66.42 56.5807 66.98 56.6807 67.51C56.7807 68.03 56.9307 68.53 57.1307 69.01C57.3407 69.49 57.6057 69.95 57.9257 70.39C58.2457 70.84 58.6307 71.28 59.0807 71.71L57.8507 72.685ZM61.8798 67.93C61.8798 67.51 61.9698 67.145 62.1498 66.835C62.3298 66.515 62.6148 66.245 63.0048 66.025C63.4048 65.805 63.9148 65.63 64.5348 65.5C65.1548 65.36 65.9048 65.265 66.7848 65.215C66.7448 64.875 66.5948 64.61 66.3348 64.42C66.0848 64.23 65.7048 64.135 65.1948 64.135C64.8348 64.135 64.4698 64.2 64.0998 64.33C63.7398 64.45 63.3498 64.615 62.9298 64.825L62.1498 63.385C62.6598 63.095 63.2048 62.855 63.7848 62.665C64.3748 62.475 64.9898 62.38 65.6298 62.38C66.6698 62.38 67.4898 62.655 68.0898 63.205C68.6898 63.755 68.9898 64.6 68.9898 65.74V70H67.1898L67.0248 69.16H66.9648C66.5848 69.45 66.1698 69.695 65.7198 69.895C65.2698 70.085 64.8048 70.18 64.3248 70.18C63.9448 70.18 63.6048 70.12 63.3048 70C63.0048 69.89 62.7498 69.735 62.5398 69.535C62.3298 69.325 62.1648 69.085 62.0448 68.815C61.9348 68.545 61.8798 68.25 61.8798 67.93ZM63.9948 67.765C63.9948 68.005 64.0848 68.185 64.2648 68.305C64.4548 68.415 64.7098 68.47 65.0298 68.47C65.3598 68.47 65.6698 68.405 65.9598 68.275C66.2498 68.135 66.5248 67.965 66.7848 67.765V66.535C66.2348 66.565 65.7798 66.615 65.4198 66.685C65.0598 66.755 64.7748 66.845 64.5648 66.955C64.3548 67.055 64.2048 67.175 64.1148 67.315C64.0348 67.455 63.9948 67.605 63.9948 67.765ZM71.039 62.56H72.839L73.004 63.55H73.064C73.384 63.23 73.749 62.955 74.159 62.725C74.579 62.495 75.069 62.38 75.629 62.38C76.469 62.38 77.084 62.65 77.474 63.19C77.864 63.73 78.059 64.47 78.059 65.41V70H75.854V65.695C75.854 65.195 75.774 64.83 75.614 64.6C75.454 64.37 75.169 64.255 74.759 64.255C74.459 64.255 74.194 64.32 73.964 64.45C73.744 64.58 73.504 64.775 73.244 65.035V70H71.039V62.56ZM79.6581 66.28C79.6581 65.66 79.7631 65.11 79.9731 64.63C80.1831 64.14 80.4631 63.73 80.8131 63.4C81.1731 63.07 81.5781 62.82 82.0281 62.65C82.4881 62.47 82.9631 62.38 83.4531 62.38C83.9431 62.38 84.4131 62.47 84.8631 62.65C85.3231 62.82 85.7281 63.07 86.0781 63.4C86.4381 63.73 86.7231 64.14 86.9331 64.63C87.1431 65.11 87.2481 65.66 87.2481 66.28C87.2481 66.9 87.1431 67.455 86.9331 67.945C86.7231 68.425 86.4381 68.83 86.0781 69.16C85.7281 69.49 85.3231 69.745 84.8631 69.925C84.4131 70.095 83.9431 70.18 83.4531 70.18C82.9631 70.18 82.4881 70.095 82.0281 69.925C81.5781 69.745 81.1731 69.49 80.8131 69.16C80.4631 68.83 80.1831 68.425 79.9731 67.945C79.7631 67.455 79.6581 66.9 79.6581 66.28ZM81.9231 66.28C81.9231 66.93 82.0481 67.445 82.2981 67.825C82.5581 68.205 82.9431 68.395 83.4531 68.395C83.9631 68.395 84.3431 68.205 84.5931 67.825C84.8531 67.445 84.9831 66.93 84.9831 66.28C84.9831 65.63 84.8531 65.115 84.5931 64.735C84.3431 64.355 83.9631 64.165 83.4531 64.165C82.9431 64.165 82.5581 64.355 82.2981 64.735C82.0481 65.115 81.9231 65.63 81.9231 66.28ZM90.5573 64.285H88.6823V62.65L90.6623 62.56L90.9473 60.58H92.7623V62.56H95.9123V64.285H92.7623V66.895C92.7623 67.465 92.8873 67.87 93.1373 68.11C93.3873 68.34 93.7823 68.455 94.3223 68.455C94.6123 68.455 94.8773 68.43 95.1173 68.38C95.3573 68.33 95.5873 68.265 95.8073 68.185L96.1973 69.775C95.8673 69.875 95.4973 69.965 95.0873 70.045C94.6873 70.135 94.2473 70.18 93.7673 70.18C93.1773 70.18 92.6773 70.1 92.2673 69.94C91.8573 69.78 91.5223 69.56 91.2623 69.28C91.0123 68.99 90.8323 68.645 90.7223 68.245C90.6123 67.845 90.5573 67.4 90.5573 66.91V64.285ZM98.0214 59.485H100.226V62.065L100.106 63.49C100.256 63.35 100.416 63.215 100.586 63.085C100.766 62.945 100.956 62.825 101.156 62.725C101.366 62.615 101.591 62.53 101.831 62.47C102.081 62.41 102.346 62.38 102.626 62.38C103.466 62.38 104.076 62.65 104.456 63.19C104.846 63.73 105.041 64.47 105.041 65.41V70H102.836V65.695C102.836 65.195 102.756 64.83 102.596 64.6C102.436 64.37 102.151 64.255 101.741 64.255C101.441 64.255 101.176 64.32 100.946 64.45C100.726 64.58 100.486 64.775 100.226 65.035V70H98.0214V59.485ZM106.761 66.28C106.761 65.67 106.866 65.125 107.076 64.645C107.296 64.165 107.586 63.76 107.946 63.43C108.306 63.09 108.716 62.83 109.176 62.65C109.646 62.47 110.131 62.38 110.631 62.38C111.201 62.38 111.706 62.47 112.146 62.65C112.586 62.83 112.951 63.08 113.241 63.4C113.531 63.72 113.751 64.1 113.901 64.54C114.051 64.97 114.126 65.44 114.126 65.95C114.126 66.15 114.116 66.34 114.096 66.52C114.076 66.7 114.056 66.835 114.036 66.925H109.026C109.106 67.485 109.346 67.89 109.746 68.14C110.156 68.38 110.636 68.5 111.186 68.5C111.526 68.5 111.846 68.46 112.146 68.38C112.456 68.29 112.776 68.16 113.106 67.99L113.826 69.31C113.406 69.58 112.936 69.795 112.416 69.955C111.896 70.105 111.386 70.18 110.886 70.18C110.306 70.18 109.766 70.095 109.266 69.925C108.766 69.745 108.331 69.49 107.961 69.16C107.591 68.82 107.296 68.41 107.076 67.93C106.866 67.45 106.761 66.9 106.761 66.28ZM112.131 65.47C112.131 65.05 112.016 64.71 111.786 64.45C111.556 64.19 111.186 64.06 110.676 64.06C110.276 64.06 109.921 64.175 109.611 64.405C109.301 64.635 109.096 64.99 108.996 65.47H112.131ZM116.67 62.56H118.47L118.65 64.18H118.695C119.065 63.57 119.51 63.12 120.03 62.83C120.55 62.53 121.11 62.38 121.71 62.38C122.04 62.38 122.305 62.405 122.505 62.455C122.715 62.505 122.93 62.58 123.15 62.68L122.7 64.525C122.47 64.455 122.26 64.405 122.07 64.375C121.89 64.335 121.66 64.315 121.38 64.315C120.92 64.315 120.465 64.45 120.015 64.72C119.575 64.99 119.195 65.46 118.875 66.13V70H116.67V62.56ZM132.024 70.81V72.46H124.824V70.81H132.024ZM133.998 62.56H135.798L135.963 63.55H136.023C136.343 63.23 136.708 62.955 137.118 62.725C137.538 62.495 138.028 62.38 138.588 62.38C139.428 62.38 140.043 62.65 140.433 63.19C140.823 63.73 141.018 64.47 141.018 65.41V70H138.813V65.695C138.813 65.195 138.733 64.83 138.573 64.6C138.413 64.37 138.128 64.255 137.718 64.255C137.418 64.255 137.153 64.32 136.923 64.45C136.703 64.58 136.463 64.775 136.203 65.035V70H133.998V62.56ZM142.827 67.93C142.827 67.51 142.917 67.145 143.097 66.835C143.277 66.515 143.562 66.245 143.952 66.025C144.352 65.805 144.862 65.63 145.482 65.5C146.102 65.36 146.852 65.265 147.732 65.215C147.692 64.875 147.542 64.61 147.282 64.42C147.032 64.23 146.652 64.135 146.142 64.135C145.782 64.135 145.417 64.2 145.047 64.33C144.687 64.45 144.297 64.615 143.877 64.825L143.097 63.385C143.607 63.095 144.152 62.855 144.732 62.665C145.322 62.475 145.937 62.38 146.577 62.38C147.617 62.38 148.437 62.655 149.037 63.205C149.637 63.755 149.937 64.6 149.937 65.74V70H148.137L147.972 69.16H147.912C147.532 69.45 147.117 69.695 146.667 69.895C146.217 70.085 145.752 70.18 145.272 70.18C144.892 70.18 144.552 70.12 144.252 70C143.952 69.89 143.697 69.735 143.487 69.535C143.277 69.325 143.112 69.085 142.992 68.815C142.882 68.545 142.827 68.25 142.827 67.93ZM144.942 67.765C144.942 68.005 145.032 68.185 145.212 68.305C145.402 68.415 145.657 68.47 145.977 68.47C146.307 68.47 146.617 68.405 146.907 68.275C147.197 68.135 147.472 67.965 147.732 67.765V66.535C147.182 66.565 146.727 66.615 146.367 66.685C146.007 66.755 145.722 66.845 145.512 66.955C145.302 67.055 145.152 67.175 145.062 67.315C144.982 67.455 144.942 67.605 144.942 67.765ZM151.446 62.56H153.096L153.261 63.49H153.321C153.461 63.18 153.651 62.92 153.891 62.71C154.141 62.49 154.481 62.38 154.911 62.38C155.241 62.38 155.516 62.485 155.736 62.695C155.966 62.895 156.126 63.195 156.216 63.595C156.356 63.255 156.556 62.97 156.816 62.74C157.086 62.5 157.431 62.38 157.851 62.38C158.371 62.38 158.776 62.595 159.066 63.025C159.356 63.445 159.501 64.03 159.501 64.78V70H157.431V64.945C157.431 64.485 157.291 64.255 157.011 64.255C156.741 64.255 156.511 64.495 156.321 64.975V70H154.626V64.945C154.626 64.485 154.481 64.255 154.191 64.255C154.051 64.255 153.931 64.315 153.831 64.435C153.731 64.555 153.626 64.735 153.516 64.975V70H151.446V62.56ZM160.725 66.28C160.725 65.67 160.83 65.125 161.04 64.645C161.26 64.165 161.55 63.76 161.91 63.43C162.27 63.09 162.68 62.83 163.14 62.65C163.61 62.47 164.095 62.38 164.595 62.38C165.165 62.38 165.67 62.47 166.11 62.65C166.55 62.83 166.915 63.08 167.205 63.4C167.495 63.72 167.715 64.1 167.865 64.54C168.015 64.97 168.09 65.44 168.09 65.95C168.09 66.15 168.08 66.34 168.06 66.52C168.04 66.7 168.02 66.835 168 66.925H162.99C163.07 67.485 163.31 67.89 163.71 68.14C164.12 68.38 164.6 68.5 165.15 68.5C165.49 68.5 165.81 68.46 166.11 68.38C166.42 68.29 166.74 68.16 167.07 67.99L167.79 69.31C167.37 69.58 166.9 69.795 166.38 69.955C165.86 70.105 165.35 70.18 164.85 70.18C164.27 70.18 163.73 70.095 163.23 69.925C162.73 69.745 162.295 69.49 161.925 69.16C161.555 68.82 161.26 68.41 161.04 67.93C160.83 67.45 160.725 66.9 160.725 66.28ZM166.095 65.47C166.095 65.05 165.98 64.71 165.75 64.45C165.52 64.19 165.15 64.06 164.64 64.06C164.24 64.06 163.885 64.175 163.575 64.405C163.265 64.635 163.06 64.99 162.96 65.47H166.095ZM170.785 71.71C171.235 71.28 171.62 70.84 171.94 70.39C172.26 69.95 172.52 69.49 172.72 69.01C172.93 68.53 173.085 68.03 173.185 67.51C173.285 66.98 173.335 66.42 173.335 65.83C173.335 64.65 173.13 63.595 172.72 62.665C172.32 61.725 171.675 60.82 170.785 59.95L172.015 58.975C172.995 59.845 173.765 60.85 174.325 61.99C174.895 63.13 175.18 64.41 175.18 65.83C175.18 67.25 174.895 68.53 174.325 69.67C173.765 70.81 172.995 71.815 172.015 72.685L170.785 71.71ZM57.8507 90.685C56.8707 89.815 56.0957 88.81 55.5257 87.67C54.9657 86.53 54.6857 85.25 54.6857 83.83C54.6857 82.41 54.9657 81.13 55.5257 79.99C56.0957 78.85 56.8707 77.845 57.8507 76.975L59.0807 77.95C58.1907 78.82 57.5407 79.725 57.1307 80.665C56.7307 81.595 56.5307 82.65 56.5307 83.83C56.5307 84.42 56.5807 84.98 56.6807 85.51C56.7807 86.03 56.9307 86.53 57.1307 87.01C57.3407 87.49 57.6057 87.95 57.9257 88.39C58.2457 88.84 58.6307 89.28 59.0807 89.71L57.8507 90.685ZM61.8798 85.93C61.8798 85.51 61.9698 85.145 62.1498 84.835C62.3298 84.515 62.6148 84.245 63.0048 84.025C63.4048 83.805 63.9148 83.63 64.5348 83.5C65.1548 83.36 65.9048 83.265 66.7848 83.215C66.7448 82.875 66.5948 82.61 66.3348 82.42C66.0848 82.23 65.7048 82.135 65.1948 82.135C64.8348 82.135 64.4698 82.2 64.0998 82.33C63.7398 82.45 63.3498 82.615 62.9298 82.825L62.1498 81.385C62.6598 81.095 63.2048 80.855 63.7848 80.665C64.3748 80.475 64.9898 80.38 65.6298 80.38C66.6698 80.38 67.4898 80.655 68.0898 81.205C68.6898 81.755 68.9898 82.6 68.9898 83.74V88H67.1898L67.0248 87.16H66.9648C66.5848 87.45 66.1698 87.695 65.7198 87.895C65.2698 88.085 64.8048 88.18 64.3248 88.18C63.9448 88.18 63.6048 88.12 63.3048 88C63.0048 87.89 62.7498 87.735 62.5398 87.535C62.3298 87.325 62.1648 87.085 62.0448 86.815C61.9348 86.545 61.8798 86.25 61.8798 85.93ZM63.9948 85.765C63.9948 86.005 64.0848 86.185 64.2648 86.305C64.4548 86.415 64.7098 86.47 65.0298 86.47C65.3598 86.47 65.6698 86.405 65.9598 86.275C66.2498 86.135 66.5248 85.965 66.7848 85.765V84.535C66.2348 84.565 65.7798 84.615 65.4198 84.685C65.0598 84.755 64.7748 84.845 64.5648 84.955C64.3548 85.055 64.2048 85.175 64.1148 85.315C64.0348 85.455 63.9948 85.605 63.9948 85.765ZM71.039 80.56H72.839L73.004 81.55H73.064C73.384 81.23 73.749 80.955 74.159 80.725C74.579 80.495 75.069 80.38 75.629 80.38C76.469 80.38 77.084 80.65 77.474 81.19C77.864 81.73 78.059 82.47 78.059 83.41V88H75.854V83.695C75.854 83.195 75.774 82.83 75.614 82.6C75.454 82.37 75.169 82.255 74.759 82.255C74.459 82.255 74.194 82.32 73.964 82.45C73.744 82.58 73.504 82.775 73.244 83.035V88H71.039V80.56ZM79.6581 84.28C79.6581 83.66 79.7631 83.11 79.9731 82.63C80.1831 82.14 80.4631 81.73 80.8131 81.4C81.1731 81.07 81.5781 80.82 82.0281 80.65C82.4881 80.47 82.9631 80.38 83.4531 80.38C83.9431 80.38 84.4131 80.47 84.8631 80.65C85.3231 80.82 85.7281 81.07 86.0781 81.4C86.4381 81.73 86.7231 82.14 86.9331 82.63C87.1431 83.11 87.2481 83.66 87.2481 84.28C87.2481 84.9 87.1431 85.455 86.9331 85.945C86.7231 86.425 86.4381 86.83 86.0781 87.16C85.7281 87.49 85.3231 87.745 84.8631 87.925C84.4131 88.095 83.9431 88.18 83.4531 88.18C82.9631 88.18 82.4881 88.095 82.0281 87.925C81.5781 87.745 81.1731 87.49 80.8131 87.16C80.4631 86.83 80.1831 86.425 79.9731 85.945C79.7631 85.455 79.6581 84.9 79.6581 84.28ZM81.9231 84.28C81.9231 84.93 82.0481 85.445 82.2981 85.825C82.5581 86.205 82.9431 86.395 83.4531 86.395C83.9631 86.395 84.3431 86.205 84.5931 85.825C84.8531 85.445 84.9831 84.93 84.9831 84.28C84.9831 83.63 84.8531 83.115 84.5931 82.735C84.3431 82.355 83.9631 82.165 83.4531 82.165C82.9431 82.165 82.5581 82.355 82.2981 82.735C82.0481 83.115 81.9231 83.63 81.9231 84.28ZM90.5573 82.285H88.6823V80.65L90.6623 80.56L90.9473 78.58H92.7623V80.56H95.9123V82.285H92.7623V84.895C92.7623 85.465 92.8873 85.87 93.1373 86.11C93.3873 86.34 93.7823 86.455 94.3223 86.455C94.6123 86.455 94.8773 86.43 95.1173 86.38C95.3573 86.33 95.5873 86.265 95.8073 86.185L96.1973 87.775C95.8673 87.875 95.4973 87.965 95.0873 88.045C94.6873 88.135 94.2473 88.18 93.7673 88.18C93.1773 88.18 92.6773 88.1 92.2673 87.94C91.8573 87.78 91.5223 87.56 91.2623 87.28C91.0123 86.99 90.8323 86.645 90.7223 86.245C90.6123 85.845 90.5573 85.4 90.5573 84.91V82.285ZM98.0214 77.485H100.226V80.065L100.106 81.49C100.256 81.35 100.416 81.215 100.586 81.085C100.766 80.945 100.956 80.825 101.156 80.725C101.366 80.615 101.591 80.53 101.831 80.47C102.081 80.41 102.346 80.38 102.626 80.38C103.466 80.38 104.076 80.65 104.456 81.19C104.846 81.73 105.041 82.47 105.041 83.41V88H102.836V83.695C102.836 83.195 102.756 82.83 102.596 82.6C102.436 82.37 102.151 82.255 101.741 82.255C101.441 82.255 101.176 82.32 100.946 82.45C100.726 82.58 100.486 82.775 100.226 83.035V88H98.0214V77.485ZM106.761 84.28C106.761 83.67 106.866 83.125 107.076 82.645C107.296 82.165 107.586 81.76 107.946 81.43C108.306 81.09 108.716 80.83 109.176 80.65C109.646 80.47 110.131 80.38 110.631 80.38C111.201 80.38 111.706 80.47 112.146 80.65C112.586 80.83 112.951 81.08 113.241 81.4C113.531 81.72 113.751 82.1 113.901 82.54C114.051 82.97 114.126 83.44 114.126 83.95C114.126 84.15 114.116 84.34 114.096 84.52C114.076 84.7 114.056 84.835 114.036 84.925H109.026C109.106 85.485 109.346 85.89 109.746 86.14C110.156 86.38 110.636 86.5 111.186 86.5C111.526 86.5 111.846 86.46 112.146 86.38C112.456 86.29 112.776 86.16 113.106 85.99L113.826 87.31C113.406 87.58 112.936 87.795 112.416 87.955C111.896 88.105 111.386 88.18 110.886 88.18C110.306 88.18 109.766 88.095 109.266 87.925C108.766 87.745 108.331 87.49 107.961 87.16C107.591 86.82 107.296 86.41 107.076 85.93C106.866 85.45 106.761 84.9 106.761 84.28ZM112.131 83.47C112.131 83.05 112.016 82.71 111.786 82.45C111.556 82.19 111.186 82.06 110.676 82.06C110.276 82.06 109.921 82.175 109.611 82.405C109.301 82.635 109.096 82.99 108.996 83.47H112.131ZM116.67 80.56H118.47L118.65 82.18H118.695C119.065 81.57 119.51 81.12 120.03 80.83C120.55 80.53 121.11 80.38 121.71 80.38C122.04 80.38 122.305 80.405 122.505 80.455C122.715 80.505 122.93 80.58 123.15 80.68L122.7 82.525C122.47 82.455 122.26 82.405 122.07 82.375C121.89 82.335 121.66 82.315 121.38 82.315C120.92 82.315 120.465 82.45 120.015 82.72C119.575 82.99 119.195 83.46 118.875 84.13V88H116.67V80.56ZM132.024 88.81V90.46H124.824V88.81H132.024ZM133.998 80.56H135.798L135.963 81.55H136.023C136.343 81.23 136.708 80.955 137.118 80.725C137.538 80.495 138.028 80.38 138.588 80.38C139.428 80.38 140.043 80.65 140.433 81.19C140.823 81.73 141.018 82.47 141.018 83.41V88H138.813V83.695C138.813 83.195 138.733 82.83 138.573 82.6C138.413 82.37 138.128 82.255 137.718 82.255C137.418 82.255 137.153 82.32 136.923 82.45C136.703 82.58 136.463 82.775 136.203 83.035V88H133.998V80.56ZM142.827 85.93C142.827 85.51 142.917 85.145 143.097 84.835C143.277 84.515 143.562 84.245 143.952 84.025C144.352 83.805 144.862 83.63 145.482 83.5C146.102 83.36 146.852 83.265 147.732 83.215C147.692 82.875 147.542 82.61 147.282 82.42C147.032 82.23 146.652 82.135 146.142 82.135C145.782 82.135 145.417 82.2 145.047 82.33C144.687 82.45 144.297 82.615 143.877 82.825L143.097 81.385C143.607 81.095 144.152 80.855 144.732 80.665C145.322 80.475 145.937 80.38 146.577 80.38C147.617 80.38 148.437 80.655 149.037 81.205C149.637 81.755 149.937 82.6 149.937 83.74V88H148.137L147.972 87.16H147.912C147.532 87.45 147.117 87.695 146.667 87.895C146.217 88.085 145.752 88.18 145.272 88.18C144.892 88.18 144.552 88.12 144.252 88C143.952 87.89 143.697 87.735 143.487 87.535C143.277 87.325 143.112 87.085 142.992 86.815C142.882 86.545 142.827 86.25 142.827 85.93ZM144.942 85.765C144.942 86.005 145.032 86.185 145.212 86.305C145.402 86.415 145.657 86.47 145.977 86.47C146.307 86.47 146.617 86.405 146.907 86.275C147.197 86.135 147.472 85.965 147.732 85.765V84.535C147.182 84.565 146.727 84.615 146.367 84.685C146.007 84.755 145.722 84.845 145.512 84.955C145.302 85.055 145.152 85.175 145.062 85.315C144.982 85.455 144.942 85.605 144.942 85.765ZM151.446 80.56H153.096L153.261 81.49H153.321C153.461 81.18 153.651 80.92 153.891 80.71C154.141 80.49 154.481 80.38 154.911 80.38C155.241 80.38 155.516 80.485 155.736 80.695C155.966 80.895 156.126 81.195 156.216 81.595C156.356 81.255 156.556 80.97 156.816 80.74C157.086 80.5 157.431 80.38 157.851 80.38C158.371 80.38 158.776 80.595 159.066 81.025C159.356 81.445 159.501 82.03 159.501 82.78V88H157.431V82.945C157.431 82.485 157.291 82.255 157.011 82.255C156.741 82.255 156.511 82.495 156.321 82.975V88H154.626V82.945C154.626 82.485 154.481 82.255 154.191 82.255C154.051 82.255 153.931 82.315 153.831 82.435C153.731 82.555 153.626 82.735 153.516 82.975V88H151.446V80.56ZM160.725 84.28C160.725 83.67 160.83 83.125 161.04 82.645C161.26 82.165 161.55 81.76 161.91 81.43C162.27 81.09 162.68 80.83 163.14 80.65C163.61 80.47 164.095 80.38 164.595 80.38C165.165 80.38 165.67 80.47 166.11 80.65C166.55 80.83 166.915 81.08 167.205 81.4C167.495 81.72 167.715 82.1 167.865 82.54C168.015 82.97 168.09 83.44 168.09 83.95C168.09 84.15 168.08 84.34 168.06 84.52C168.04 84.7 168.02 84.835 168 84.925H162.99C163.07 85.485 163.31 85.89 163.71 86.14C164.12 86.38 164.6 86.5 165.15 86.5C165.49 86.5 165.81 86.46 166.11 86.38C166.42 86.29 166.74 86.16 167.07 85.99L167.79 87.31C167.37 87.58 166.9 87.795 166.38 87.955C165.86 88.105 165.35 88.18 164.85 88.18C164.27 88.18 163.73 88.095 163.23 87.925C162.73 87.745 162.295 87.49 161.925 87.16C161.555 86.82 161.26 86.41 161.04 85.93C160.83 85.45 160.725 84.9 160.725 84.28ZM166.095 83.47C166.095 83.05 165.98 82.71 165.75 82.45C165.52 82.19 165.15 82.06 164.64 82.06C164.24 82.06 163.885 82.175 163.575 82.405C163.265 82.635 163.06 82.99 162.96 83.47H166.095ZM215.755 89.71C216.205 89.28 216.59 88.84 216.91 88.39C217.23 87.95 217.49 87.49 217.69 87.01C217.9 86.53 218.055 86.03 218.155 85.51C218.255 84.98 218.305 84.42 218.305 83.83C218.305 82.65 218.1 81.595 217.69 80.665C217.29 79.725 216.645 78.82 215.755 77.95L216.985 76.975C217.965 77.845 218.735 78.85 219.295 79.99C219.865 81.13 220.15 82.41 220.15 83.83C220.15 85.25 219.865 86.53 219.295 87.67C218.735 88.81 217.965 89.815 216.985 90.685L215.755 89.71Z" fill="white"/>
<path d="M10.285 70.585V72.76H8.08V62.56H9.88L10.045 63.31H10.09C10.39 63.04 10.735 62.82 11.125 62.65C11.515 62.47 11.91 62.38 12.31 62.38C12.77 62.38 13.185 62.47 13.555 62.65C13.925 62.83 14.24 63.085 14.5 63.415C14.76 63.745 14.955 64.145 15.085 64.615C15.225 65.075 15.295 65.59 15.295 66.16C15.295 66.8 15.205 67.37 15.025 67.87C14.845 68.36 14.605 68.78 14.305 69.13C14.005 69.47 13.66 69.73 13.27 69.91C12.89 70.09 12.49 70.18 12.07 70.18C11.39 70.18 10.77 69.91 10.21 69.37L10.285 70.585ZM10.285 67.885C10.495 68.065 10.71 68.195 10.93 68.275C11.16 68.345 11.37 68.38 11.56 68.38C11.98 68.38 12.33 68.21 12.61 67.87C12.89 67.52 13.03 66.96 13.03 66.19C13.03 64.85 12.575 64.18 11.665 64.18C11.195 64.18 10.735 64.41 10.285 64.87V67.885ZM17.7341 62.56H19.5341L19.7141 64.18H19.7591C20.1291 63.57 20.5741 63.12 21.0941 62.83C21.6141 62.53 22.1741 62.38 22.7741 62.38C23.1041 62.38 23.3691 62.405 23.5691 62.455C23.7791 62.505 23.9941 62.58 24.2141 62.68L23.7641 64.525C23.5341 64.455 23.3241 64.405 23.1341 64.375C22.9541 64.335 22.7241 64.315 22.4441 64.315C21.9841 64.315 21.5291 64.45 21.0791 64.72C20.6391 64.99 20.2591 65.46 19.9391 66.13V70H17.7341V62.56ZM26.1733 62.56H31.3633V70H29.1583V64.285H26.1733V62.56ZM30.1633 61.465C29.7333 61.465 29.3783 61.345 29.0983 61.105C28.8283 60.865 28.6933 60.54 28.6933 60.13C28.6933 59.72 28.8283 59.39 29.0983 59.14C29.3783 58.88 29.7333 58.75 30.1633 58.75C30.5933 58.75 30.9433 58.88 31.2133 59.14C31.4933 59.39 31.6333 59.72 31.6333 60.13C31.6333 60.54 31.4933 60.865 31.2133 61.105C30.9433 61.345 30.5933 61.465 30.1633 61.465ZM35.0624 62.56H36.8624L37.0274 63.55H37.0874C37.4074 63.23 37.7724 62.955 38.1824 62.725C38.6024 62.495 39.0924 62.38 39.6524 62.38C40.4924 62.38 41.1074 62.65 41.4974 63.19C41.8874 63.73 42.0824 64.47 42.0824 65.41V70H39.8774V65.695C39.8774 65.195 39.7974 64.83 39.6374 64.6C39.4774 64.37 39.1924 64.255 38.7824 64.255C38.4824 64.255 38.2174 64.32 37.9874 64.45C37.7674 64.58 37.5274 64.775 37.2674 65.035V70H35.0624V62.56ZM45.5866 64.285H43.7116V62.65L45.6916 62.56L45.9766 60.58H47.7916V62.56H50.9416V64.285H47.7916V66.895C47.7916 67.465 47.9166 67.87 48.1666 68.11C48.4166 68.34 48.8116 68.455 49.3516 68.455C49.6416 68.455 49.9066 68.43 50.1466 68.38C50.3866 68.33 50.6166 68.265 50.8366 68.185L51.2266 69.775C50.8966 69.875 50.5266 69.965 50.1166 70.045C49.7166 70.135 49.2766 70.18 48.7966 70.18C48.2066 70.18 47.7066 70.1 47.2966 69.94C46.8866 69.78 46.5516 69.56 46.2916 69.28C46.0416 68.99 45.8616 68.645 45.7516 68.245C45.6416 67.845 45.5866 67.4 45.5866 66.91V64.285ZM10.285 88.585V90.76H8.08V80.56H9.88L10.045 81.31H10.09C10.39 81.04 10.735 80.82 11.125 80.65C11.515 80.47 11.91 80.38 12.31 80.38C12.77 80.38 13.185 80.47 13.555 80.65C13.925 80.83 14.24 81.085 14.5 81.415C14.76 81.745 14.955 82.145 15.085 82.615C15.225 83.075 15.295 83.59 15.295 84.16C15.295 84.8 15.205 85.37 15.025 85.87C14.845 86.36 14.605 86.78 14.305 87.13C14.005 87.47 13.66 87.73 13.27 87.91C12.89 88.09 12.49 88.18 12.07 88.18C11.39 88.18 10.77 87.91 10.21 87.37L10.285 88.585ZM10.285 85.885C10.495 86.065 10.71 86.195 10.93 86.275C11.16 86.345 11.37 86.38 11.56 86.38C11.98 86.38 12.33 86.21 12.61 85.87C12.89 85.52 13.03 84.96 13.03 84.19C13.03 82.85 12.575 82.18 11.665 82.18C11.195 82.18 10.735 82.41 10.285 82.87V85.885ZM17.7341 80.56H19.5341L19.7141 82.18H19.7591C20.1291 81.57 20.5741 81.12 21.0941 80.83C21.6141 80.53 22.1741 80.38 22.7741 80.38C23.1041 80.38 23.3691 80.405 23.5691 80.455C23.7791 80.505 23.9941 80.58 24.2141 80.68L23.7641 82.525C23.5341 82.455 23.3241 82.405 23.1341 82.375C22.9541 82.335 22.7241 82.315 22.4441 82.315C21.9841 82.315 21.5291 82.45 21.0791 82.72C20.6391 82.99 20.2591 83.46 19.9391 84.13V88H17.7341V80.56ZM26.1733 80.56H31.3633V88H29.1583V82.285H26.1733V80.56ZM30.1633 79.465C29.7333 79.465 29.3783 79.345 29.0983 79.105C28.8283 78.865 28.6933 78.54 28.6933 78.13C28.6933 77.72 28.8283 77.39 29.0983 77.14C29.3783 76.88 29.7333 76.75 30.1633 76.75C30.5933 76.75 30.9433 76.88 31.2133 77.14C31.4933 77.39 31.6333 77.72 31.6333 78.13C31.6333 78.54 31.4933 78.865 31.2133 79.105C30.9433 79.345 30.5933 79.465 30.1633 79.465ZM35.0624 80.56H36.8624L37.0274 81.55H37.0874C37.4074 81.23 37.7724 80.955 38.1824 80.725C38.6024 80.495 39.0924 80.38 39.6524 80.38C40.4924 80.38 41.1074 80.65 41.4974 81.19C41.8874 81.73 42.0824 82.47 42.0824 83.41V88H39.8774V83.695C39.8774 83.195 39.7974 82.83 39.6374 82.6C39.4774 82.37 39.1924 82.255 38.7824 82.255C38.4824 82.255 38.2174 82.32 37.9874 82.45C37.7674 82.58 37.5274 82.775 37.2674 83.035V88H35.0624V80.56ZM45.5866 82.285H43.7116V80.65L45.6916 80.56L45.9766 78.58H47.7916V80.56H50.9416V82.285H47.7916V84.895C47.7916 85.465 47.9166 85.87 48.1666 86.11C48.4166 86.34 48.8116 86.455 49.3516 86.455C49.6416 86.455 49.9066 86.43 50.1466 86.38C50.3866 86.33 50.6166 86.265 50.8366 86.185L51.2266 87.775C50.8966 87.875 50.5266 87.965 50.1166 88.045C49.7166 88.135 49.2766 88.18 48.7966 88.18C48.2066 88.18 47.7066 88.1 47.2966 87.94C46.8866 87.78 46.5516 87.56 46.2916 87.28C46.0416 86.99 45.8616 86.645 45.7516 86.245C45.6416 85.845 45.5866 85.4 45.5866 84.91V82.285Z" fill="#56B4E9"/>
<path d="M124.974 43.53H131.874V45.09H124.974V43.53ZM124.974 46.995H131.874V48.555H124.974V46.995ZM181.579 83.83H178.939V82.27H181.579V79.51H183.199V82.27H185.839V83.83H183.199V86.59H181.579V83.83Z" fill="#E0E0E0"/>
<path d="M142.782 49.74C143.462 49.17 144.082 48.64 144.642 48.15C145.202 47.65 145.682 47.185 146.082 46.755C146.482 46.325 146.792 45.92 147.012 45.54C147.232 45.16 147.342 44.8 147.342 44.46C147.342 43.99 147.207 43.635 146.937 43.395C146.667 43.145 146.282 43.02 145.782 43.02C145.402 43.02 145.052 43.12 144.732 43.32C144.422 43.51 144.132 43.735 143.862 43.995L142.677 42.81C142.927 42.56 143.172 42.34 143.412 42.15C143.662 41.96 143.922 41.805 144.192 41.685C144.472 41.555 144.762 41.46 145.062 41.4C145.372 41.33 145.712 41.295 146.082 41.295C146.582 41.295 147.037 41.37 147.447 41.52C147.857 41.66 148.207 41.865 148.497 42.135C148.797 42.395 149.027 42.71 149.187 43.08C149.357 43.45 149.442 43.865 149.442 44.325C149.442 44.725 149.347 45.135 149.157 45.555C148.967 45.965 148.707 46.38 148.377 46.8C148.057 47.21 147.687 47.625 147.267 48.045C146.847 48.455 146.407 48.86 145.947 49.26C146.217 49.23 146.507 49.205 146.817 49.185C147.137 49.155 147.422 49.14 147.672 49.14H149.937V51H142.782V49.74ZM155.406 51.18C154.856 51.18 154.356 51.075 153.906 50.865C153.456 50.645 153.071 50.325 152.751 49.905C152.431 49.485 152.181 48.965 152.001 48.345C151.831 47.725 151.746 47.01 151.746 46.2C151.746 45.39 151.831 44.68 152.001 44.07C152.181 43.46 152.431 42.95 152.751 42.54C153.071 42.12 153.456 41.81 153.906 41.61C154.356 41.4 154.856 41.295 155.406 41.295C155.956 41.295 156.456 41.4 156.906 41.61C157.356 41.81 157.741 42.12 158.061 42.54C158.381 42.95 158.626 43.46 158.796 44.07C158.976 44.68 159.066 45.39 159.066 46.2C159.066 47.01 158.976 47.725 158.796 48.345C158.626 48.965 158.381 49.485 158.061 49.905C157.741 50.325 157.356 50.645 156.906 50.865C156.456 51.075 155.956 51.18 155.406 51.18ZM155.406 43.005C155.166 43.005 154.941 43.055 154.731 43.155C154.531 43.255 154.356 43.43 154.206 43.68C154.056 43.92 153.936 44.245 153.846 44.655C153.756 45.065 153.711 45.58 153.711 46.2C153.711 46.82 153.756 47.34 153.846 47.76C153.936 48.17 154.056 48.505 154.206 48.765C154.356 49.015 154.531 49.195 154.731 49.305C154.941 49.415 155.166 49.47 155.406 49.47C155.646 49.47 155.866 49.415 156.066 49.305C156.276 49.195 156.456 49.015 156.606 48.765C156.756 48.505 156.876 48.17 156.966 47.76C157.056 47.34 157.101 46.82 157.101 46.2C157.101 45.58 157.056 45.065 156.966 44.655C156.876 44.245 156.756 43.92 156.606 43.68C156.456 43.43 156.276 43.255 156.066 43.155C155.866 43.055 155.646 43.005 155.406 43.005ZM155.406 47.31C155.086 47.31 154.816 47.21 154.596 47.01C154.386 46.8 154.281 46.52 154.281 46.17C154.281 45.82 154.386 45.545 154.596 45.345C154.816 45.135 155.086 45.03 155.406 45.03C155.726 45.03 155.991 45.135 156.201 45.345C156.421 45.545 156.531 45.82 156.531 46.17C156.531 46.52 156.421 46.8 156.201 47.01C155.991 47.21 155.726 47.31 155.406 47.31ZM203.932 86.215V88H197.107V86.215H199.567V80.71H197.602V79.345C198.162 79.245 198.637 79.125 199.027 78.985C199.427 78.845 199.802 78.675 200.152 78.475H201.772V86.215H203.932ZM209.371 88.18C208.821 88.18 208.321 88.075 207.871 87.865C207.421 87.645 207.036 87.325 206.716 86.905C206.396 86.485 206.146 85.965 205.966 85.345C205.796 84.725 205.711 84.01 205.711 83.2C205.711 82.39 205.796 81.68 205.966 81.07C206.146 80.46 206.396 79.95 206.716 79.54C207.036 79.12 207.421 78.81 207.871 78.61C208.321 78.4 208.821 78.295 209.371 78.295C209.921 78.295 210.421 78.4 210.871 78.61C211.321 78.81 211.706 79.12 212.026 79.54C212.346 79.95 212.591 80.46 212.761 81.07C212.941 81.68 213.031 82.39 213.031 83.2C213.031 84.01 212.941 84.725 212.761 85.345C212.591 85.965 212.346 86.485 212.026 86.905C211.706 87.325 211.321 87.645 210.871 87.865C210.421 88.075 209.921 88.18 209.371 88.18ZM209.371 80.005C209.131 80.005 208.906 80.055 208.696 80.155C208.496 80.255 208.321 80.43 208.171 80.68C208.021 80.92 207.901 81.245 207.811 81.655C207.721 82.065 207.676 82.58 207.676 83.2C207.676 83.82 207.721 84.34 207.811 84.76C207.901 85.17 208.021 85.505 208.171 85.765C208.321 86.015 208.496 86.195 208.696 86.305C208.906 86.415 209.131 86.47 209.371 86.47C209.611 86.47 209.831 86.415 210.031 86.305C210.241 86.195 210.421 86.015 210.571 85.765C210.721 85.505 210.841 85.17 210.931 84.76C211.021 84.34 211.066 83.82 211.066 83.2C211.066 82.58 211.021 82.065 210.931 81.655C210.841 81.245 210.721 80.92 210.571 80.68C210.421 80.43 210.241 80.255 210.031 80.155C209.831 80.055 209.611 80.005 209.371 80.005ZM209.371 84.31C209.051 84.31 208.781 84.21 208.561 84.01C208.351 83.8 208.246 83.52 208.246 83.17C208.246 82.82 208.351 82.545 208.561 82.345C208.781 82.135 209.051 82.03 209.371 82.03C209.691 82.03 209.956 82.135 210.166 82.345C210.386 82.545 210.496 82.82 210.496 83.17C210.496 83.52 210.386 83.8 210.166 84.01C209.956 84.21 209.691 84.31 209.371 84.31Z" fill="#F0E442"/>
</svg>
