<svg width="242" height="169" viewBox="0 0 242 169" fill="none" xmlns="http://www.w3.org/2000/svg">
<rect width="242" height="169" fill="white"/>
<rect width="242" height="169" fill="black"/>
<path d="M7.87 141.74C8.55 141.17 9.17 140.64 9.73 140.15C10.29 139.65 10.77 139.185 11.17 138.755C11.57 138.325 11.88 137.92 12.1 137.54C12.32 137.16 12.43 136.8 12.43 136.46C12.43 135.99 12.295 135.635 12.025 135.395C11.755 135.145 11.37 135.02 10.87 135.02C10.49 135.02 10.14 135.12 9.82 135.32C9.51 135.51 9.22 135.735 8.95 135.995L7.765 134.81C8.015 134.56 8.26 134.34 8.5 134.15C8.75 133.96 9.01 133.805 9.28 133.685C9.56 133.555 9.85 133.46 10.15 133.4C10.46 133.33 10.8 133.295 11.17 133.295C11.67 133.295 12.125 133.37 12.535 133.52C12.945 133.66 13.295 133.865 13.585 134.135C13.885 134.395 14.115 134.71 14.275 135.08C14.445 135.45 14.53 135.865 14.53 136.325C14.53 136.725 14.435 137.135 14.245 137.555C14.055 137.965 13.795 138.38 13.465 138.8C13.145 139.21 12.775 139.625 12.355 140.045C11.935 140.455 11.495 140.86 11.035 141.26C11.305 141.23 11.595 141.205 11.905 141.185C12.225 141.155 12.51 141.14 12.76 141.14H15.025V143H7.87V141.74ZM20.4941 143.18C19.9441 143.18 19.4441 143.075 18.9941 142.865C18.5441 142.645 18.1591 142.325 17.8391 141.905C17.5191 141.485 17.2691 140.965 17.0891 140.345C16.9191 139.725 16.8341 139.01 16.8341 138.2C16.8341 137.39 16.9191 136.68 17.0891 136.07C17.2691 135.46 17.5191 134.95 17.8391 134.54C18.1591 134.12 18.5441 133.81 18.9941 133.61C19.4441 133.4 19.9441 133.295 20.4941 133.295C21.0441 133.295 21.5441 133.4 21.9941 133.61C22.4441 133.81 22.8291 134.12 23.1491 134.54C23.4691 134.95 23.7141 135.46 23.8841 136.07C24.0641 136.68 24.1541 137.39 24.1541 138.2C24.1541 139.01 24.0641 139.725 23.8841 140.345C23.7141 140.965 23.4691 141.485 23.1491 141.905C22.8291 142.325 22.4441 142.645 21.9941 142.865C21.5441 143.075 21.0441 143.18 20.4941 143.18ZM20.4941 135.005C20.2541 135.005 20.0291 135.055 19.8191 135.155C19.6191 135.255 19.4441 135.43 19.2941 135.68C19.1441 135.92 19.0241 136.245 18.9341 136.655C18.8441 137.065 18.7991 137.58 18.7991 138.2C18.7991 138.82 18.8441 139.34 18.9341 139.76C19.0241 140.17 19.1441 140.505 19.2941 140.765C19.4441 141.015 19.6191 141.195 19.8191 141.305C20.0291 141.415 20.2541 141.47 20.4941 141.47C20.7341 141.47 20.9541 141.415 21.1541 141.305C21.3641 141.195 21.5441 141.015 21.6941 140.765C21.8441 140.505 21.9641 140.17 22.0541 139.76C22.1441 139.34 22.1891 138.82 22.1891 138.2C22.1891 137.58 22.1441 137.065 22.0541 136.655C21.9641 136.245 21.8441 135.92 21.6941 135.68C21.5441 135.43 21.3641 135.255 21.1541 135.155C20.9541 135.055 20.7341 135.005 20.4941 135.005ZM20.4941 139.31C20.1741 139.31 19.9041 139.21 19.6841 139.01C19.4741 138.8 19.3691 138.52 19.3691 138.17C19.3691 137.82 19.4741 137.545 19.6841 137.345C19.9041 137.135 20.1741 137.03 20.4941 137.03C20.8141 137.03 21.0791 137.135 21.2891 137.345C21.5091 137.545 21.6191 137.82 21.6191 138.17C21.6191 138.52 21.5091 138.8 21.2891 139.01C21.0791 139.21 20.8141 139.31 20.4941 139.31ZM8.65 159.435C8.97 159.715 9.325 159.945 9.715 160.125C10.115 160.305 10.535 160.395 10.975 160.395C11.495 160.395 11.92 160.3 12.25 160.11C12.59 159.91 12.76 159.63 12.76 159.27C12.76 159.06 12.715 158.87 12.625 158.7C12.535 158.53 12.38 158.39 12.16 158.28C11.94 158.16 11.645 158.07 11.275 158.01C10.905 157.94 10.44 157.905 9.88 157.905V156.345C10.82 156.345 11.48 156.23 11.86 156C12.25 155.76 12.445 155.45 12.445 155.07C12.445 154.74 12.32 154.485 12.07 154.305C11.82 154.115 11.475 154.02 11.035 154.02C10.655 154.02 10.305 154.095 9.985 154.245C9.665 154.395 9.34 154.6 9.01 154.86L7.9 153.51C8.37 153.13 8.87 152.835 9.4 152.625C9.94 152.405 10.52 152.295 11.14 152.295C11.66 152.295 12.135 152.355 12.565 152.475C12.995 152.585 13.365 152.755 13.675 152.985C13.985 153.205 14.225 153.475 14.395 153.795C14.565 154.115 14.65 154.485 14.65 154.905C14.65 155.405 14.49 155.83 14.17 156.18C13.85 156.52 13.405 156.8 12.835 157.02V157.08C13.435 157.24 13.94 157.515 14.35 157.905C14.76 158.285 14.965 158.785 14.965 159.405C14.965 159.845 14.86 160.24 14.65 160.59C14.45 160.93 14.175 161.22 13.825 161.46C13.485 161.69 13.085 161.87 12.625 162C12.165 162.12 11.685 162.18 11.185 162.18C10.365 162.18 9.66 162.06 9.07 161.82C8.48 161.57 8 161.24 7.63 160.83L8.65 159.435ZM20.4941 162.18C19.9441 162.18 19.4441 162.075 18.9941 161.865C18.5441 161.645 18.1591 161.325 17.8391 160.905C17.5191 160.485 17.2691 159.965 17.0891 159.345C16.9191 158.725 16.8341 158.01 16.8341 157.2C16.8341 156.39 16.9191 155.68 17.0891 155.07C17.2691 154.46 17.5191 153.95 17.8391 153.54C18.1591 153.12 18.5441 152.81 18.9941 152.61C19.4441 152.4 19.9441 152.295 20.4941 152.295C21.0441 152.295 21.5441 152.4 21.9941 152.61C22.4441 152.81 22.8291 153.12 23.1491 153.54C23.4691 153.95 23.7141 154.46 23.8841 155.07C24.0641 155.68 24.1541 156.39 24.1541 157.2C24.1541 158.01 24.0641 158.725 23.8841 159.345C23.7141 159.965 23.4691 160.485 23.1491 160.905C22.8291 161.325 22.4441 161.645 21.9941 161.865C21.5441 162.075 21.0441 162.18 20.4941 162.18ZM20.4941 154.005C20.2541 154.005 20.0291 154.055 19.8191 154.155C19.6191 154.255 19.4441 154.43 19.2941 154.68C19.1441 154.92 19.0241 155.245 18.9341 155.655C18.8441 156.065 18.7991 156.58 18.7991 157.2C18.7991 157.82 18.8441 158.34 18.9341 158.76C19.0241 159.17 19.1441 159.505 19.2941 159.765C19.4441 160.015 19.6191 160.195 19.8191 160.305C20.0291 160.415 20.2541 160.47 20.4941 160.47C20.7341 160.47 20.9541 160.415 21.1541 160.305C21.3641 160.195 21.5441 160.015 21.6941 159.765C21.8441 159.505 21.9641 159.17 22.0541 158.76C22.1441 158.34 22.1891 157.82 22.1891 157.2C22.1891 156.58 22.1441 156.065 22.0541 155.655C21.9641 155.245 21.8441 154.92 21.6941 154.68C21.5441 154.43 21.3641 154.255 21.1541 154.155C20.9541 154.055 20.7341 154.005 20.4941 154.005ZM20.4941 158.31C20.1741 158.31 19.9041 158.21 19.6841 158.01C19.4741 157.8 19.3691 157.52 19.3691 157.17C19.3691 156.82 19.4741 156.545 19.6841 156.345C19.9041 156.135 20.1741 156.03 20.4941 156.03C20.8141 156.03 21.0791 156.135 21.2891 156.345C21.5091 156.545 21.6191 156.82 21.6191 157.17C21.6191 157.52 21.5091 157.8 21.2891 158.01C21.0791 158.21 20.8141 158.31 20.4941 158.31Z" fill="white"/>
<path d="M11.5 124.18C10.92 124.18 10.385 124.065 9.895 123.835C9.415 123.595 9 123.255 8.65 122.815C8.31 122.375 8.045 121.84 7.855 121.21C7.665 120.58 7.57 119.865 7.57 119.065C7.57 118.265 7.665 117.555 7.855 116.935C8.045 116.305 8.31 115.78 8.65 115.36C9 114.93 9.415 114.605 9.895 114.385C10.385 114.155 10.92 114.04 11.5 114.04C12.08 114.04 12.61 114.155 13.09 114.385C13.58 114.605 13.995 114.93 14.335 115.36C14.685 115.79 14.955 116.32 15.145 116.95C15.335 117.57 15.43 118.275 15.43 119.065C15.43 119.865 15.335 120.58 15.145 121.21C14.955 121.84 14.685 122.375 14.335 122.815C13.995 123.255 13.58 123.595 13.09 123.835C12.61 124.065 12.08 124.18 11.5 124.18ZM11.5 122.275C12.01 122.275 12.415 121.99 12.715 121.42C13.015 120.84 13.165 120.055 13.165 119.065C13.165 118.085 13.015 117.32 12.715 116.77C12.415 116.22 12.01 115.945 11.5 115.945C10.99 115.945 10.585 116.22 10.285 116.77C9.985 117.32 9.835 118.085 9.835 119.065C9.835 120.055 9.985 120.84 10.285 121.42C10.585 121.99 10.99 122.275 11.5 122.275ZM23.8691 124H22.0691L21.9041 122.935H21.8441C21.5141 123.315 21.1491 123.62 20.7491 123.85C20.3491 124.07 19.8791 124.18 19.3391 124.18C18.4891 124.18 17.8741 123.91 17.4941 123.37C17.1141 122.83 16.9241 122.09 16.9241 121.15V116.56H19.1291V120.865C19.1291 121.365 19.2041 121.73 19.3541 121.96C19.5041 122.19 19.7891 122.305 20.2091 122.305C20.4891 122.305 20.7341 122.245 20.9441 122.125C21.1641 122.005 21.4041 121.78 21.6641 121.45V116.56H23.8691V124ZM27.5983 118.285H25.7233V116.65L27.7033 116.56L27.9883 114.58H29.8033V116.56H32.9533V118.285H29.8033V120.895C29.8033 121.465 29.9283 121.87 30.1783 122.11C30.4283 122.34 30.8233 122.455 31.3633 122.455C31.6533 122.455 31.9183 122.43 32.1583 122.38C32.3983 122.33 32.6283 122.265 32.8483 122.185L33.2383 123.775C32.9083 123.875 32.5383 123.965 32.1283 124.045C31.7283 124.135 31.2883 124.18 30.8083 124.18C30.2183 124.18 29.7183 124.1 29.3083 123.94C28.8983 123.78 28.5633 123.56 28.3033 123.28C28.0533 122.99 27.8733 122.645 27.7633 122.245C27.6533 121.845 27.5983 121.4 27.5983 120.91V118.285ZM37.2674 124.585V126.76H35.0624V116.56H36.8624L37.0274 117.31H37.0724C37.3724 117.04 37.7174 116.82 38.1074 116.65C38.4974 116.47 38.8924 116.38 39.2924 116.38C39.7524 116.38 40.1674 116.47 40.5374 116.65C40.9074 116.83 41.2224 117.085 41.4824 117.415C41.7424 117.745 41.9374 118.145 42.0674 118.615C42.2074 119.075 42.2774 119.59 42.2774 120.16C42.2774 120.8 42.1874 121.37 42.0074 121.87C41.8274 122.36 41.5874 122.78 41.2874 123.13C40.9874 123.47 40.6424 123.73 40.2524 123.91C39.8724 124.09 39.4724 124.18 39.0524 124.18C38.3724 124.18 37.7524 123.91 37.1924 123.37L37.2674 124.585ZM37.2674 121.885C37.4774 122.065 37.6924 122.195 37.9124 122.275C38.1424 122.345 38.3524 122.38 38.5424 122.38C38.9624 122.38 39.3124 122.21 39.5924 121.87C39.8724 121.52 40.0124 120.96 40.0124 120.19C40.0124 118.85 39.5574 118.18 38.6474 118.18C38.1774 118.18 37.7174 118.41 37.2674 118.87V121.885ZM50.8516 124H49.0516L48.8866 122.935H48.8266C48.4966 123.315 48.1316 123.62 47.7316 123.85C47.3316 124.07 46.8616 124.18 46.3216 124.18C45.4716 124.18 44.8566 123.91 44.4766 123.37C44.0966 122.83 43.9066 122.09 43.9066 121.15V116.56H46.1116V120.865C46.1116 121.365 46.1866 121.73 46.3366 121.96C46.4866 122.19 46.7716 122.305 47.1916 122.305C47.4716 122.305 47.7166 122.245 47.9266 122.125C48.1466 122.005 48.3866 121.78 48.6466 121.45V116.56H50.8516V124ZM54.5807 118.285H52.7057V116.65L54.6857 116.56L54.9707 114.58H56.7857V116.56H59.9357V118.285H56.7857V120.895C56.7857 121.465 56.9107 121.87 57.1607 122.11C57.4107 122.34 57.8057 122.455 58.3457 122.455C58.6357 122.455 58.9007 122.43 59.1407 122.38C59.3807 122.33 59.6107 122.265 59.8307 122.185L60.2207 123.775C59.8907 123.875 59.5207 123.965 59.1107 124.045C58.7107 124.135 58.2707 124.18 57.7907 124.18C57.2007 124.18 56.7007 124.1 56.2907 123.94C55.8807 123.78 55.5457 123.56 55.2857 123.28C55.0357 122.99 54.8557 122.645 54.7457 122.245C54.6357 121.845 54.5807 121.4 54.5807 120.91V118.285Z" fill="white"/>
<rect x="96.75" width="145.25" height="30.6018" fill="#333333"/>
<rect x="96.75" width="145.25" height="30.6018" fill="#333333"/>
<rect width="97.1974" height="30.6018" fill="#090808"/>
<path d="M18.105 17.8101C18.105 17.5513 17.9756 17.3486 17.7168 17.2021C17.4629 17.0508 17.0527 16.9165 16.4863 16.7993C14.6016 16.4038 13.6592 15.603 13.6592 14.397C13.6592 13.6938 13.9497 13.1079 14.5308 12.6392C15.1167 12.1655 15.8809 11.9287 16.8232 11.9287C17.8291 11.9287 18.6323 12.1655 19.2329 12.6392C19.8384 13.1128 20.1411 13.728 20.1411 14.4849H18.0244C18.0244 14.1821 17.9268 13.9331 17.7314 13.7378C17.5361 13.5376 17.231 13.4375 16.8159 13.4375C16.4595 13.4375 16.1836 13.5181 15.9883 13.6792C15.793 13.8403 15.6953 14.0454 15.6953 14.2944C15.6953 14.5288 15.8052 14.7192 16.0249 14.8657C16.2495 15.0073 16.6255 15.1318 17.1528 15.2393C17.6802 15.3418 18.1245 15.459 18.4858 15.5908C19.604 16.001 20.1631 16.7114 20.1631 17.7222C20.1631 18.4448 19.853 19.0308 19.2329 19.48C18.6128 19.9243 17.812 20.1465 16.8306 20.1465C16.1665 20.1465 15.5757 20.0293 15.0581 19.7949C14.5454 19.5557 14.1426 19.231 13.8496 18.8208C13.5566 18.4058 13.4102 17.959 13.4102 17.4805H15.417C15.4365 17.8564 15.5757 18.1445 15.8345 18.3447C16.0933 18.5449 16.4399 18.645 16.8745 18.645C17.2798 18.645 17.585 18.5693 17.79 18.418C18 18.2617 18.105 18.0591 18.105 17.8101ZM24.8286 18.4399C25.2192 18.4399 25.5366 18.3325 25.7808 18.1177C26.0249 17.9028 26.1519 17.6172 26.1616 17.2607H28.1465C28.1416 17.7979 27.9951 18.291 27.707 18.7402C27.4189 19.1846 27.0234 19.5312 26.5205 19.7803C26.0225 20.0244 25.4707 20.1465 24.8652 20.1465C23.7324 20.1465 22.8389 19.7876 22.1846 19.0698C21.5303 18.3472 21.2031 17.3511 21.2031 16.0815V15.9424C21.2031 14.7217 21.5278 13.7476 22.1772 13.02C22.8267 12.2925 23.7178 11.9287 24.8506 11.9287C25.8418 11.9287 26.6353 12.2119 27.231 12.7783C27.8315 13.3398 28.1367 14.0894 28.1465 15.0269H26.1616C26.1519 14.6167 26.0249 14.2847 25.7808 14.0308C25.5366 13.772 25.2144 13.6426 24.814 13.6426C24.3208 13.6426 23.9473 13.8232 23.6934 14.1846C23.4443 14.541 23.3198 15.1221 23.3198 15.9277V16.1475C23.3198 16.9629 23.4443 17.5488 23.6934 17.9053C23.9424 18.2617 24.3208 18.4399 24.8286 18.4399ZM33.8081 14.0601C33.52 14.021 33.2661 14.0015 33.0464 14.0015C32.2456 14.0015 31.7207 14.2725 31.4717 14.8145V20H29.355V12.0752H31.3545L31.4131 13.02C31.8379 12.2925 32.4263 11.9287 33.1782 11.9287C33.4126 11.9287 33.6323 11.9604 33.8374 12.0239L33.8081 14.0601ZM37.0674 20H34.9434V12.0752H37.0674V20ZM34.8188 10.0244C34.8188 9.70703 34.9238 9.4458 35.1338 9.24072C35.3486 9.03564 35.6392 8.93311 36.0054 8.93311C36.3667 8.93311 36.6548 9.03564 36.8696 9.24072C37.0845 9.4458 37.1919 9.70703 37.1919 10.0244C37.1919 10.3467 37.082 10.6104 36.8623 10.8154C36.6475 11.0205 36.3618 11.123 36.0054 11.123C35.6489 11.123 35.3608 11.0205 35.1411 10.8154C34.9263 10.6104 34.8188 10.3467 34.8188 10.0244ZM45.9517 16.1108C45.9517 17.3315 45.6733 18.3105 45.1167 19.0479C44.5649 19.7803 43.8179 20.1465 42.8755 20.1465C42.0747 20.1465 41.4277 19.8682 40.9346 19.3115V23.0469H38.8179V12.0752H40.7808L40.854 12.8516C41.3667 12.2363 42.0356 11.9287 42.8608 11.9287C43.8374 11.9287 44.5967 12.29 45.1387 13.0127C45.6807 13.7354 45.9517 14.7314 45.9517 16.001V16.1108ZM43.835 15.957C43.835 15.2197 43.7031 14.6509 43.4395 14.2505C43.1807 13.8501 42.8022 13.6499 42.3042 13.6499C41.6401 13.6499 41.1836 13.9038 40.9346 14.4116V17.6562C41.1934 18.1787 41.6548 18.4399 42.3188 18.4399C43.3296 18.4399 43.835 17.6123 43.835 15.957ZM49.8042 10.127V12.0752H51.1592V13.6279H49.8042V17.583C49.8042 17.876 49.8604 18.0859 49.9727 18.2129C50.085 18.3398 50.2998 18.4033 50.6172 18.4033C50.8516 18.4033 51.0591 18.3862 51.2397 18.3521V19.9561C50.8247 20.083 50.3975 20.1465 49.958 20.1465C48.4736 20.1465 47.7168 19.397 47.6875 17.8979V13.6279H46.5303V12.0752H47.6875V10.127H49.8042ZM52.4482 18.96C52.4482 18.623 52.5605 18.3496 52.7852 18.1396C53.0146 17.9297 53.3003 17.8247 53.6421 17.8247C53.9888 17.8247 54.2744 17.9297 54.499 18.1396C54.7285 18.3496 54.8433 18.623 54.8433 18.96C54.8433 19.292 54.731 19.563 54.5063 19.7729C54.2817 19.978 53.9937 20.0806 53.6421 20.0806C53.2954 20.0806 53.0098 19.978 52.7852 19.7729C52.5605 19.563 52.4482 19.292 52.4482 18.96ZM63.8374 16.1108C63.8374 17.3315 63.5591 18.3105 63.0024 19.0479C62.4507 19.7803 61.7036 20.1465 60.7612 20.1465C59.9604 20.1465 59.3135 19.8682 58.8203 19.3115V23.0469H56.7036V12.0752H58.6665L58.7397 12.8516C59.2524 12.2363 59.9214 11.9287 60.7466 11.9287C61.7231 11.9287 62.4824 12.29 63.0244 13.0127C63.5664 13.7354 63.8374 14.7314 63.8374 16.001V16.1108ZM61.7207 15.957C61.7207 15.2197 61.5889 14.6509 61.3252 14.2505C61.0664 13.8501 60.688 13.6499 60.1899 13.6499C59.5259 13.6499 59.0693 13.9038 58.8203 14.4116V17.6562C59.0791 18.1787 59.5405 18.4399 60.2046 18.4399C61.2153 18.4399 61.7207 17.6123 61.7207 15.957ZM68.0269 17.0044L69.4917 12.0752H71.7622L68.5762 21.2305L68.4004 21.6479C67.9268 22.6831 67.1455 23.2007 66.0566 23.2007C65.749 23.2007 65.4365 23.1543 65.1191 23.0615V21.4575L65.4414 21.4648C65.8418 21.4648 66.1396 21.4038 66.335 21.2817C66.5352 21.1597 66.6914 20.957 66.8037 20.6738L67.0527 20.022L64.2769 12.0752H66.5547L68.0269 17.0044Z" fill="white"/>
<line y1="103.5" x2="242" y2="103.5" stroke="white"/>
<path d="M8.74 43.56H10.54L10.72 45.18H10.765C11.135 44.57 11.58 44.12 12.1 43.83C12.62 43.53 13.18 43.38 13.78 43.38C14.11 43.38 14.375 43.405 14.575 43.455C14.785 43.505 15 43.58 15.22 43.68L14.77 45.525C14.54 45.455 14.33 45.405 14.14 45.375C13.96 45.335 13.73 45.315 13.45 45.315C12.99 45.315 12.535 45.45 12.085 45.72C11.645 45.99 11.265 46.46 10.945 47.13V51H8.74V43.56ZM16.8191 47.28C16.8191 46.67 16.9241 46.125 17.1341 45.645C17.3541 45.165 17.6441 44.76 18.0041 44.43C18.3641 44.09 18.7741 43.83 19.2341 43.65C19.7041 43.47 20.1891 43.38 20.6891 43.38C21.2591 43.38 21.7641 43.47 22.2041 43.65C22.6441 43.83 23.0091 44.08 23.2991 44.4C23.5891 44.72 23.8091 45.1 23.9591 45.54C24.1091 45.97 24.1841 46.44 24.1841 46.95C24.1841 47.15 24.1741 47.34 24.1541 47.52C24.1341 47.7 24.1141 47.835 24.0941 47.925H19.0841C19.1641 48.485 19.4041 48.89 19.8041 49.14C20.2141 49.38 20.6941 49.5 21.2441 49.5C21.5841 49.5 21.9041 49.46 22.2041 49.38C22.5141 49.29 22.8341 49.16 23.1641 48.99L23.8841 50.31C23.4641 50.58 22.9941 50.795 22.4741 50.955C21.9541 51.105 21.4441 51.18 20.9441 51.18C20.3641 51.18 19.8241 51.095 19.3241 50.925C18.8241 50.745 18.3891 50.49 18.0191 50.16C17.6491 49.82 17.3541 49.41 17.1341 48.93C16.9241 48.45 16.8191 47.9 16.8191 47.28ZM22.1891 46.47C22.1891 46.05 22.0741 45.71 21.8441 45.45C21.6141 45.19 21.2441 45.06 20.7341 45.06C20.3341 45.06 19.9791 45.175 19.6691 45.405C19.3591 45.635 19.1541 45.99 19.0541 46.47H22.1891ZM26.7733 48.66C27.2033 48.93 27.6333 49.145 28.0633 49.305C28.5033 49.465 28.9733 49.545 29.4733 49.545C29.9833 49.545 30.3483 49.49 30.5683 49.38C30.7883 49.27 30.8983 49.115 30.8983 48.915C30.8983 48.685 30.7133 48.5 30.3433 48.36C29.9833 48.21 29.5033 48.05 28.9033 47.88C28.5733 47.79 28.2483 47.685 27.9283 47.565C27.6183 47.435 27.3383 47.285 27.0883 47.115C26.8383 46.935 26.6333 46.73 26.4733 46.5C26.3233 46.27 26.2483 46.005 26.2483 45.705C26.2483 45.365 26.3283 45.05 26.4883 44.76C26.6483 44.47 26.8733 44.225 27.1633 44.025C27.4633 43.825 27.8233 43.67 28.2433 43.56C28.6733 43.44 29.1533 43.38 29.6833 43.38C30.3433 43.38 30.9433 43.49 31.4833 43.71C32.0333 43.92 32.5033 44.15 32.8933 44.4L31.9033 45.72C31.5633 45.52 31.2133 45.355 30.8533 45.225C30.4933 45.085 30.1183 45.015 29.7283 45.015C29.2583 45.015 28.9233 45.065 28.7233 45.165C28.5333 45.265 28.4383 45.41 28.4383 45.6C28.4383 45.71 28.4883 45.81 28.5883 45.9C28.6883 45.99 28.8233 46.07 28.9933 46.14C29.1633 46.21 29.3633 46.28 29.5933 46.35C29.8333 46.41 30.0833 46.475 30.3433 46.545C30.7133 46.645 31.0633 46.76 31.3933 46.89C31.7233 47.01 32.0133 47.155 32.2633 47.325C32.5133 47.495 32.7133 47.7 32.8633 47.94C33.0133 48.18 33.0883 48.46 33.0883 48.78C33.0883 49.12 33.0083 49.435 32.8483 49.725C32.6883 50.015 32.4533 50.27 32.1433 50.49C31.8433 50.7 31.4633 50.87 31.0033 51C30.5533 51.12 30.0283 51.18 29.4283 51.18C28.7583 51.18 28.1033 51.07 27.4633 50.85C26.8233 50.63 26.2633 50.36 25.7833 50.04L26.7733 48.66ZM41.8574 51H40.0574L39.8924 49.935H39.8324C39.5024 50.315 39.1374 50.62 38.7374 50.85C38.3374 51.07 37.8674 51.18 37.3274 51.18C36.4774 51.18 35.8624 50.91 35.4824 50.37C35.1024 49.83 34.9124 49.09 34.9124 48.15V43.56H37.1174V47.865C37.1174 48.365 37.1924 48.73 37.3424 48.96C37.4924 49.19 37.7774 49.305 38.1974 49.305C38.4774 49.305 38.7224 49.245 38.9324 49.125C39.1524 49.005 39.3924 48.78 39.6524 48.45V43.56H41.8574V51ZM43.9066 40.485H48.2716V48.18C48.2716 48.41 48.3016 48.605 48.3616 48.765C48.4316 48.915 48.5216 49.04 48.6316 49.14C48.7516 49.23 48.8816 49.295 49.0216 49.335C49.1716 49.375 49.3216 49.395 49.4716 49.395C49.6416 49.395 49.8216 49.38 50.0116 49.35C50.2016 49.31 50.4116 49.245 50.6416 49.155L51.1366 50.775C50.9366 50.835 50.7516 50.89 50.5816 50.94C50.4116 50.99 50.2416 51.03 50.0716 51.06C49.9016 51.1 49.7216 51.13 49.5316 51.15C49.3416 51.17 49.1316 51.18 48.9016 51.18C47.9616 51.18 47.2516 50.905 46.7716 50.355C46.3016 49.795 46.0666 49.04 46.0666 48.09V42.225H43.9066V40.485ZM54.5807 45.285H52.7057V43.65L54.6857 43.56L54.9707 41.58H56.7857V43.56H59.9357V45.285H56.7857V47.895C56.7857 48.465 56.9107 48.87 57.1607 49.11C57.4107 49.34 57.8057 49.455 58.3457 49.455C58.6357 49.455 58.9007 49.43 59.1407 49.38C59.3807 49.33 59.6107 49.265 59.8307 49.185L60.2207 50.775C59.8907 50.875 59.5207 50.965 59.1107 51.045C58.7107 51.135 58.2707 51.18 57.7907 51.18C57.2007 51.18 56.7007 51.1 56.2907 50.94C55.8807 50.78 55.5457 50.56 55.2857 50.28C55.0357 49.99 54.8557 49.645 54.7457 49.245C54.6357 48.845 54.5807 48.4 54.5807 47.91V45.285ZM57.8507 72.685C56.8707 71.815 56.0957 70.81 55.5257 69.67C54.9657 68.53 54.6857 67.25 54.6857 65.83C54.6857 64.41 54.9657 63.13 55.5257 61.99C56.0957 60.85 56.8707 59.845 57.8507 58.975L59.0807 59.95C58.1907 60.82 57.5407 61.725 57.1307 62.665C56.7307 63.595 56.5307 64.65 56.5307 65.83C56.5307 66.42 56.5807 66.98 56.6807 67.51C56.7807 68.03 56.9307 68.53 57.1307 69.01C57.3407 69.49 57.6057 69.95 57.9257 70.39C58.2457 70.84 58.6307 71.28 59.0807 71.71L57.8507 72.685ZM62.7048 62.56H64.5048L64.6848 64.18H64.7298C65.0998 63.57 65.5448 63.12 66.0648 62.83C66.5848 62.53 67.1448 62.38 67.7448 62.38C68.0748 62.38 68.3398 62.405 68.5398 62.455C68.7498 62.505 68.9648 62.58 69.1848 62.68L68.7348 64.525C68.5048 64.455 68.2948 64.405 68.1048 64.375C67.9248 64.335 67.6948 64.315 67.4148 64.315C66.9548 64.315 66.4998 64.45 66.0498 64.72C65.6098 64.99 65.2298 65.46 64.9098 66.13V70H62.7048V62.56ZM70.784 66.28C70.784 65.67 70.889 65.125 71.099 64.645C71.319 64.165 71.609 63.76 71.969 63.43C72.329 63.09 72.739 62.83 73.199 62.65C73.669 62.47 74.154 62.38 74.654 62.38C75.224 62.38 75.729 62.47 76.169 62.65C76.609 62.83 76.974 63.08 77.264 63.4C77.554 63.72 77.774 64.1 77.924 64.54C78.074 64.97 78.149 65.44 78.149 65.95C78.149 66.15 78.139 66.34 78.119 66.52C78.099 66.7 78.079 66.835 78.059 66.925H73.049C73.129 67.485 73.369 67.89 73.769 68.14C74.179 68.38 74.659 68.5 75.209 68.5C75.549 68.5 75.869 68.46 76.169 68.38C76.479 68.29 76.799 68.16 77.129 67.99L77.849 69.31C77.429 69.58 76.959 69.795 76.439 69.955C75.919 70.105 75.409 70.18 74.909 70.18C74.329 70.18 73.789 70.095 73.289 69.925C72.789 69.745 72.354 69.49 71.984 69.16C71.614 68.82 71.319 68.41 71.099 67.93C70.889 67.45 70.784 66.9 70.784 66.28ZM76.154 65.47C76.154 65.05 76.039 64.71 75.809 64.45C75.579 64.19 75.209 64.06 74.699 64.06C74.299 64.06 73.944 64.175 73.634 64.405C73.324 64.635 73.119 64.99 73.019 65.47H76.154ZM80.7381 67.66C81.1681 67.93 81.5981 68.145 82.0281 68.305C82.4681 68.465 82.9381 68.545 83.4381 68.545C83.9481 68.545 84.3131 68.49 84.5331 68.38C84.7531 68.27 84.8631 68.115 84.8631 67.915C84.8631 67.685 84.6781 67.5 84.3081 67.36C83.9481 67.21 83.4681 67.05 82.8681 66.88C82.5381 66.79 82.2131 66.685 81.8931 66.565C81.5831 66.435 81.3031 66.285 81.0531 66.115C80.8031 65.935 80.5981 65.73 80.4381 65.5C80.2881 65.27 80.2131 65.005 80.2131 64.705C80.2131 64.365 80.2931 64.05 80.4531 63.76C80.6131 63.47 80.8381 63.225 81.1281 63.025C81.4281 62.825 81.7881 62.67 82.2081 62.56C82.6381 62.44 83.1181 62.38 83.6481 62.38C84.3081 62.38 84.9081 62.49 85.4481 62.71C85.9981 62.92 86.4681 63.15 86.8581 63.4L85.8681 64.72C85.5281 64.52 85.1781 64.355 84.8181 64.225C84.4581 64.085 84.0831 64.015 83.6931 64.015C83.2231 64.015 82.8881 64.065 82.6881 64.165C82.4981 64.265 82.4031 64.41 82.4031 64.6C82.4031 64.71 82.4531 64.81 82.5531 64.9C82.6531 64.99 82.7881 65.07 82.9581 65.14C83.1281 65.21 83.3281 65.28 83.5581 65.35C83.7981 65.41 84.0481 65.475 84.3081 65.545C84.6781 65.645 85.0281 65.76 85.3581 65.89C85.6881 66.01 85.9781 66.155 86.2281 66.325C86.4781 66.495 86.6781 66.7 86.8281 66.94C86.9781 67.18 87.0531 67.46 87.0531 67.78C87.0531 68.12 86.9731 68.435 86.8131 68.725C86.6531 69.015 86.4181 69.27 86.1081 69.49C85.8081 69.7 85.4281 69.87 84.9681 70C84.5181 70.12 83.9931 70.18 83.3931 70.18C82.7231 70.18 82.0681 70.07 81.4281 69.85C80.7881 69.63 80.2281 69.36 79.7481 69.04L80.7381 67.66ZM95.8223 70H94.0223L93.8573 68.935H93.7973C93.4673 69.315 93.1023 69.62 92.7023 69.85C92.3023 70.07 91.8323 70.18 91.2923 70.18C90.4423 70.18 89.8273 69.91 89.4473 69.37C89.0673 68.83 88.8773 68.09 88.8773 67.15V62.56H91.0823V66.865C91.0823 67.365 91.1573 67.73 91.3073 67.96C91.4573 68.19 91.7423 68.305 92.1623 68.305C92.4423 68.305 92.6873 68.245 92.8973 68.125C93.1173 68.005 93.3573 67.78 93.6173 67.45V62.56H95.8223V70ZM97.8714 59.485H102.236V67.18C102.236 67.41 102.266 67.605 102.326 67.765C102.396 67.915 102.486 68.04 102.596 68.14C102.716 68.23 102.846 68.295 102.986 68.335C103.136 68.375 103.286 68.395 103.436 68.395C103.606 68.395 103.786 68.38 103.976 68.35C104.166 68.31 104.376 68.245 104.606 68.155L105.101 69.775C104.901 69.835 104.716 69.89 104.546 69.94C104.376 69.99 104.206 70.03 104.036 70.06C103.866 70.1 103.686 70.13 103.496 70.15C103.306 70.17 103.096 70.18 102.866 70.18C101.926 70.18 101.216 69.905 100.736 69.355C100.266 68.795 100.031 68.04 100.031 67.09V61.225H97.8714V59.485ZM108.546 64.285H106.671V62.65L108.651 62.56L108.936 60.58H110.751V62.56H113.901V64.285H110.751V66.895C110.751 67.465 110.876 67.87 111.126 68.11C111.376 68.34 111.771 68.455 112.311 68.455C112.601 68.455 112.866 68.43 113.106 68.38C113.346 68.33 113.576 68.265 113.796 68.185L114.186 69.775C113.856 69.875 113.486 69.965 113.076 70.045C112.676 70.135 112.236 70.18 111.756 70.18C111.166 70.18 110.666 70.1 110.256 69.94C109.846 69.78 109.511 69.56 109.251 69.28C109.001 68.99 108.821 68.645 108.711 68.245C108.601 67.845 108.546 67.4 108.546 66.91V64.285ZM116.82 71.71C117.27 71.28 117.655 70.84 117.975 70.39C118.295 69.95 118.555 69.49 118.755 69.01C118.965 68.53 119.12 68.03 119.22 67.51C119.32 66.98 119.37 66.42 119.37 65.83C119.37 64.65 119.165 63.595 118.755 62.665C118.355 61.725 117.71 60.82 116.82 59.95L118.05 58.975C119.03 59.845 119.8 60.85 120.36 61.99C120.93 63.13 121.215 64.41 121.215 65.83C121.215 67.25 120.93 68.53 120.36 69.67C119.8 70.81 119.03 71.815 118.05 72.685L116.82 71.71ZM57.8507 90.685C56.8707 89.815 56.0957 88.81 55.5257 87.67C54.9657 86.53 54.6857 85.25 54.6857 83.83C54.6857 82.41 54.9657 81.13 55.5257 79.99C56.0957 78.85 56.8707 77.845 57.8507 76.975L59.0807 77.95C58.1907 78.82 57.5407 79.725 57.1307 80.665C56.7307 81.595 56.5307 82.65 56.5307 83.83C56.5307 84.42 56.5807 84.98 56.6807 85.51C56.7807 86.03 56.9307 86.53 57.1307 87.01C57.3407 87.49 57.6057 87.95 57.9257 88.39C58.2457 88.84 58.6307 89.28 59.0807 89.71L57.8507 90.685ZM62.7048 80.56H64.5048L64.6848 82.18H64.7298C65.0998 81.57 65.5448 81.12 66.0648 80.83C66.5848 80.53 67.1448 80.38 67.7448 80.38C68.0748 80.38 68.3398 80.405 68.5398 80.455C68.7498 80.505 68.9648 80.58 69.1848 80.68L68.7348 82.525C68.5048 82.455 68.2948 82.405 68.1048 82.375C67.9248 82.335 67.6948 82.315 67.4148 82.315C66.9548 82.315 66.4998 82.45 66.0498 82.72C65.6098 82.99 65.2298 83.46 64.9098 84.13V88H62.7048V80.56ZM70.784 84.28C70.784 83.67 70.889 83.125 71.099 82.645C71.319 82.165 71.609 81.76 71.969 81.43C72.329 81.09 72.739 80.83 73.199 80.65C73.669 80.47 74.154 80.38 74.654 80.38C75.224 80.38 75.729 80.47 76.169 80.65C76.609 80.83 76.974 81.08 77.264 81.4C77.554 81.72 77.774 82.1 77.924 82.54C78.074 82.97 78.149 83.44 78.149 83.95C78.149 84.15 78.139 84.34 78.119 84.52C78.099 84.7 78.079 84.835 78.059 84.925H73.049C73.129 85.485 73.369 85.89 73.769 86.14C74.179 86.38 74.659 86.5 75.209 86.5C75.549 86.5 75.869 86.46 76.169 86.38C76.479 86.29 76.799 86.16 77.129 85.99L77.849 87.31C77.429 87.58 76.959 87.795 76.439 87.955C75.919 88.105 75.409 88.18 74.909 88.18C74.329 88.18 73.789 88.095 73.289 87.925C72.789 87.745 72.354 87.49 71.984 87.16C71.614 86.82 71.319 86.41 71.099 85.93C70.889 85.45 70.784 84.9 70.784 84.28ZM76.154 83.47C76.154 83.05 76.039 82.71 75.809 82.45C75.579 82.19 75.209 82.06 74.699 82.06C74.299 82.06 73.944 82.175 73.634 82.405C73.324 82.635 73.119 82.99 73.019 83.47H76.154ZM80.7381 85.66C81.1681 85.93 81.5981 86.145 82.0281 86.305C82.4681 86.465 82.9381 86.545 83.4381 86.545C83.9481 86.545 84.3131 86.49 84.5331 86.38C84.7531 86.27 84.8631 86.115 84.8631 85.915C84.8631 85.685 84.6781 85.5 84.3081 85.36C83.9481 85.21 83.4681 85.05 82.8681 84.88C82.5381 84.79 82.2131 84.685 81.8931 84.565C81.5831 84.435 81.3031 84.285 81.0531 84.115C80.8031 83.935 80.5981 83.73 80.4381 83.5C80.2881 83.27 80.2131 83.005 80.2131 82.705C80.2131 82.365 80.2931 82.05 80.4531 81.76C80.6131 81.47 80.8381 81.225 81.1281 81.025C81.4281 80.825 81.7881 80.67 82.2081 80.56C82.6381 80.44 83.1181 80.38 83.6481 80.38C84.3081 80.38 84.9081 80.49 85.4481 80.71C85.9981 80.92 86.4681 81.15 86.8581 81.4L85.8681 82.72C85.5281 82.52 85.1781 82.355 84.8181 82.225C84.4581 82.085 84.0831 82.015 83.6931 82.015C83.2231 82.015 82.8881 82.065 82.6881 82.165C82.4981 82.265 82.4031 82.41 82.4031 82.6C82.4031 82.71 82.4531 82.81 82.5531 82.9C82.6531 82.99 82.7881 83.07 82.9581 83.14C83.1281 83.21 83.3281 83.28 83.5581 83.35C83.7981 83.41 84.0481 83.475 84.3081 83.545C84.6781 83.645 85.0281 83.76 85.3581 83.89C85.6881 84.01 85.9781 84.155 86.2281 84.325C86.4781 84.495 86.6781 84.7 86.8281 84.94C86.9781 85.18 87.0531 85.46 87.0531 85.78C87.0531 86.12 86.9731 86.435 86.8131 86.725C86.6531 87.015 86.4181 87.27 86.1081 87.49C85.8081 87.7 85.4281 87.87 84.9681 88C84.5181 88.12 83.9931 88.18 83.3931 88.18C82.7231 88.18 82.0681 88.07 81.4281 87.85C80.7881 87.63 80.2281 87.36 79.7481 87.04L80.7381 85.66ZM95.8223 88H94.0223L93.8573 86.935H93.7973C93.4673 87.315 93.1023 87.62 92.7023 87.85C92.3023 88.07 91.8323 88.18 91.2923 88.18C90.4423 88.18 89.8273 87.91 89.4473 87.37C89.0673 86.83 88.8773 86.09 88.8773 85.15V80.56H91.0823V84.865C91.0823 85.365 91.1573 85.73 91.3073 85.96C91.4573 86.19 91.7423 86.305 92.1623 86.305C92.4423 86.305 92.6873 86.245 92.8973 86.125C93.1173 86.005 93.3573 85.78 93.6173 85.45V80.56H95.8223V88ZM97.8714 77.485H102.236V85.18C102.236 85.41 102.266 85.605 102.326 85.765C102.396 85.915 102.486 86.04 102.596 86.14C102.716 86.23 102.846 86.295 102.986 86.335C103.136 86.375 103.286 86.395 103.436 86.395C103.606 86.395 103.786 86.38 103.976 86.35C104.166 86.31 104.376 86.245 104.606 86.155L105.101 87.775C104.901 87.835 104.716 87.89 104.546 87.94C104.376 87.99 104.206 88.03 104.036 88.06C103.866 88.1 103.686 88.13 103.496 88.15C103.306 88.17 103.096 88.18 102.866 88.18C101.926 88.18 101.216 87.905 100.736 87.355C100.266 86.795 100.031 86.04 100.031 85.09V79.225H97.8714V77.485ZM108.546 82.285H106.671V80.65L108.651 80.56L108.936 78.58H110.751V80.56H113.901V82.285H110.751V84.895C110.751 85.465 110.876 85.87 111.126 86.11C111.376 86.34 111.771 86.455 112.311 86.455C112.601 86.455 112.866 86.43 113.106 86.38C113.346 86.33 113.576 86.265 113.796 86.185L114.186 87.775C113.856 87.875 113.486 87.965 113.076 88.045C112.676 88.135 112.236 88.18 111.756 88.18C111.166 88.18 110.666 88.1 110.256 87.94C109.846 87.78 109.511 87.56 109.251 87.28C109.001 86.99 108.821 86.645 108.711 86.245C108.601 85.845 108.546 85.4 108.546 84.91V82.285ZM161.79 89.71C162.24 89.28 162.625 88.84 162.945 88.39C163.265 87.95 163.525 87.49 163.725 87.01C163.935 86.53 164.09 86.03 164.19 85.51C164.29 84.98 164.34 84.42 164.34 83.83C164.34 82.65 164.135 81.595 163.725 80.665C163.325 79.725 162.68 78.82 161.79 77.95L163.02 76.975C164 77.845 164.77 78.85 165.33 79.99C165.9 81.13 166.185 82.41 166.185 83.83C166.185 85.25 165.9 86.53 165.33 87.67C164.77 88.81 164 89.815 163.02 90.685L161.79 89.71Z" fill="white"/>
<path d="M10.285 70.585V72.76H8.08V62.56H9.88L10.045 63.31H10.09C10.39 63.04 10.735 62.82 11.125 62.65C11.515 62.47 11.91 62.38 12.31 62.38C12.77 62.38 13.185 62.47 13.555 62.65C13.925 62.83 14.24 63.085 14.5 63.415C14.76 63.745 14.955 64.145 15.085 64.615C15.225 65.075 15.295 65.59 15.295 66.16C15.295 66.8 15.205 67.37 15.025 67.87C14.845 68.36 14.605 68.78 14.305 69.13C14.005 69.47 13.66 69.73 13.27 69.91C12.89 70.09 12.49 70.18 12.07 70.18C11.39 70.18 10.77 69.91 10.21 69.37L10.285 70.585ZM10.285 67.885C10.495 68.065 10.71 68.195 10.93 68.275C11.16 68.345 11.37 68.38 11.56 68.38C11.98 68.38 12.33 68.21 12.61 67.87C12.89 67.52 13.03 66.96 13.03 66.19C13.03 64.85 12.575 64.18 11.665 64.18C11.195 64.18 10.735 64.41 10.285 64.87V67.885ZM17.7341 62.56H19.5341L19.7141 64.18H19.7591C20.1291 63.57 20.5741 63.12 21.0941 62.83C21.6141 62.53 22.1741 62.38 22.7741 62.38C23.1041 62.38 23.3691 62.405 23.5691 62.455C23.7791 62.505 23.9941 62.58 24.2141 62.68L23.7641 64.525C23.5341 64.455 23.3241 64.405 23.1341 64.375C22.9541 64.335 22.7241 64.315 22.4441 64.315C21.9841 64.315 21.5291 64.45 21.0791 64.72C20.6391 64.99 20.2591 65.46 19.9391 66.13V70H17.7341V62.56ZM26.1733 62.56H31.3633V70H29.1583V64.285H26.1733V62.56ZM30.1633 61.465C29.7333 61.465 29.3783 61.345 29.0983 61.105C28.8283 60.865 28.6933 60.54 28.6933 60.13C28.6933 59.72 28.8283 59.39 29.0983 59.14C29.3783 58.88 29.7333 58.75 30.1633 58.75C30.5933 58.75 30.9433 58.88 31.2133 59.14C31.4933 59.39 31.6333 59.72 31.6333 60.13C31.6333 60.54 31.4933 60.865 31.2133 61.105C30.9433 61.345 30.5933 61.465 30.1633 61.465ZM35.0624 62.56H36.8624L37.0274 63.55H37.0874C37.4074 63.23 37.7724 62.955 38.1824 62.725C38.6024 62.495 39.0924 62.38 39.6524 62.38C40.4924 62.38 41.1074 62.65 41.4974 63.19C41.8874 63.73 42.0824 64.47 42.0824 65.41V70H39.8774V65.695C39.8774 65.195 39.7974 64.83 39.6374 64.6C39.4774 64.37 39.1924 64.255 38.7824 64.255C38.4824 64.255 38.2174 64.32 37.9874 64.45C37.7674 64.58 37.5274 64.775 37.2674 65.035V70H35.0624V62.56ZM45.5866 64.285H43.7116V62.65L45.6916 62.56L45.9766 60.58H47.7916V62.56H50.9416V64.285H47.7916V66.895C47.7916 67.465 47.9166 67.87 48.1666 68.11C48.4166 68.34 48.8116 68.455 49.3516 68.455C49.6416 68.455 49.9066 68.43 50.1466 68.38C50.3866 68.33 50.6166 68.265 50.8366 68.185L51.2266 69.775C50.8966 69.875 50.5266 69.965 50.1166 70.045C49.7166 70.135 49.2766 70.18 48.7966 70.18C48.2066 70.18 47.7066 70.1 47.2966 69.94C46.8866 69.78 46.5516 69.56 46.2916 69.28C46.0416 68.99 45.8616 68.645 45.7516 68.245C45.6416 67.845 45.5866 67.4 45.5866 66.91V64.285ZM10.285 88.585V90.76H8.08V80.56H9.88L10.045 81.31H10.09C10.39 81.04 10.735 80.82 11.125 80.65C11.515 80.47 11.91 80.38 12.31 80.38C12.77 80.38 13.185 80.47 13.555 80.65C13.925 80.83 14.24 81.085 14.5 81.415C14.76 81.745 14.955 82.145 15.085 82.615C15.225 83.075 15.295 83.59 15.295 84.16C15.295 84.8 15.205 85.37 15.025 85.87C14.845 86.36 14.605 86.78 14.305 87.13C14.005 87.47 13.66 87.73 13.27 87.91C12.89 88.09 12.49 88.18 12.07 88.18C11.39 88.18 10.77 87.91 10.21 87.37L10.285 88.585ZM10.285 85.885C10.495 86.065 10.71 86.195 10.93 86.275C11.16 86.345 11.37 86.38 11.56 86.38C11.98 86.38 12.33 86.21 12.61 85.87C12.89 85.52 13.03 84.96 13.03 84.19C13.03 82.85 12.575 82.18 11.665 82.18C11.195 82.18 10.735 82.41 10.285 82.87V85.885ZM17.7341 80.56H19.5341L19.7141 82.18H19.7591C20.1291 81.57 20.5741 81.12 21.0941 80.83C21.6141 80.53 22.1741 80.38 22.7741 80.38C23.1041 80.38 23.3691 80.405 23.5691 80.455C23.7791 80.505 23.9941 80.58 24.2141 80.68L23.7641 82.525C23.5341 82.455 23.3241 82.405 23.1341 82.375C22.9541 82.335 22.7241 82.315 22.4441 82.315C21.9841 82.315 21.5291 82.45 21.0791 82.72C20.6391 82.99 20.2591 83.46 19.9391 84.13V88H17.7341V80.56ZM26.1733 80.56H31.3633V88H29.1583V82.285H26.1733V80.56ZM30.1633 79.465C29.7333 79.465 29.3783 79.345 29.0983 79.105C28.8283 78.865 28.6933 78.54 28.6933 78.13C28.6933 77.72 28.8283 77.39 29.0983 77.14C29.3783 76.88 29.7333 76.75 30.1633 76.75C30.5933 76.75 30.9433 76.88 31.2133 77.14C31.4933 77.39 31.6333 77.72 31.6333 78.13C31.6333 78.54 31.4933 78.865 31.2133 79.105C30.9433 79.345 30.5933 79.465 30.1633 79.465ZM35.0624 80.56H36.8624L37.0274 81.55H37.0874C37.4074 81.23 37.7724 80.955 38.1824 80.725C38.6024 80.495 39.0924 80.38 39.6524 80.38C40.4924 80.38 41.1074 80.65 41.4974 81.19C41.8874 81.73 42.0824 82.47 42.0824 83.41V88H39.8774V83.695C39.8774 83.195 39.7974 82.83 39.6374 82.6C39.4774 82.37 39.1924 82.255 38.7824 82.255C38.4824 82.255 38.2174 82.32 37.9874 82.45C37.7674 82.58 37.5274 82.775 37.2674 83.035V88H35.0624V80.56ZM45.5866 82.285H43.7116V80.65L45.6916 80.56L45.9766 78.58H47.7916V80.56H50.9416V82.285H47.7916V84.895C47.7916 85.465 47.9166 85.87 48.1666 86.11C48.4166 86.34 48.8116 86.455 49.3516 86.455C49.6416 86.455 49.9066 86.43 50.1466 86.38C50.3866 86.33 50.6166 86.265 50.8366 86.185L51.2266 87.775C50.8966 87.875 50.5266 87.965 50.1166 88.045C49.7166 88.135 49.2766 88.18 48.7966 88.18C48.2066 88.18 47.7066 88.1 47.2966 87.94C46.8866 87.78 46.5516 87.56 46.2916 87.28C46.0416 86.99 45.8616 86.645 45.7516 86.245C45.6416 85.845 45.5866 85.4 45.5866 84.91V82.285Z" fill="#56B4E9"/>
<path d="M71.009 43.53H77.909V45.09H71.009V43.53ZM71.009 46.995H77.909V48.555H71.009V46.995ZM127.614 83.83H124.974V82.27H127.614V79.51H129.234V82.27H131.874V83.83H129.234V86.59H127.614V83.83Z" fill="#E0E0E0"/>
<path d="M88.8173 49.74C89.4973 49.17 90.1173 48.64 90.6773 48.15C91.2373 47.65 91.7173 47.185 92.1173 46.755C92.5173 46.325 92.8273 45.92 93.0473 45.54C93.2673 45.16 93.3773 44.8 93.3773 44.46C93.3773 43.99 93.2423 43.635 92.9723 43.395C92.7023 43.145 92.3173 43.02 91.8173 43.02C91.4373 43.02 91.0873 43.12 90.7673 43.32C90.4573 43.51 90.1673 43.735 89.8973 43.995L88.7123 42.81C88.9623 42.56 89.2073 42.34 89.4473 42.15C89.6973 41.96 89.9573 41.805 90.2273 41.685C90.5073 41.555 90.7973 41.46 91.0973 41.4C91.4073 41.33 91.7473 41.295 92.1173 41.295C92.6173 41.295 93.0723 41.37 93.4823 41.52C93.8923 41.66 94.2423 41.865 94.5323 42.135C94.8323 42.395 95.0623 42.71 95.2223 43.08C95.3923 43.45 95.4773 43.865 95.4773 44.325C95.4773 44.725 95.3823 45.135 95.1923 45.555C95.0023 45.965 94.7423 46.38 94.4123 46.8C94.0923 47.21 93.7223 47.625 93.3023 48.045C92.8823 48.455 92.4423 48.86 91.9823 49.26C92.2523 49.23 92.5423 49.205 92.8523 49.185C93.1723 49.155 93.4573 49.14 93.7073 49.14H95.9723V51H88.8173V49.74ZM101.441 51.18C100.891 51.18 100.391 51.075 99.9414 50.865C99.4914 50.645 99.1064 50.325 98.7864 49.905C98.4664 49.485 98.2164 48.965 98.0364 48.345C97.8664 47.725 97.7814 47.01 97.7814 46.2C97.7814 45.39 97.8664 44.68 98.0364 44.07C98.2164 43.46 98.4664 42.95 98.7864 42.54C99.1064 42.12 99.4914 41.81 99.9414 41.61C100.391 41.4 100.891 41.295 101.441 41.295C101.991 41.295 102.491 41.4 102.941 41.61C103.391 41.81 103.776 42.12 104.096 42.54C104.416 42.95 104.661 43.46 104.831 44.07C105.011 44.68 105.101 45.39 105.101 46.2C105.101 47.01 105.011 47.725 104.831 48.345C104.661 48.965 104.416 49.485 104.096 49.905C103.776 50.325 103.391 50.645 102.941 50.865C102.491 51.075 101.991 51.18 101.441 51.18ZM101.441 43.005C101.201 43.005 100.976 43.055 100.766 43.155C100.566 43.255 100.391 43.43 100.241 43.68C100.091 43.92 99.9714 44.245 99.8814 44.655C99.7914 45.065 99.7464 45.58 99.7464 46.2C99.7464 46.82 99.7914 47.34 99.8814 47.76C99.9714 48.17 100.091 48.505 100.241 48.765C100.391 49.015 100.566 49.195 100.766 49.305C100.976 49.415 101.201 49.47 101.441 49.47C101.681 49.47 101.901 49.415 102.101 49.305C102.311 49.195 102.491 49.015 102.641 48.765C102.791 48.505 102.911 48.17 103.001 47.76C103.091 47.34 103.136 46.82 103.136 46.2C103.136 45.58 103.091 45.065 103.001 44.655C102.911 44.245 102.791 43.92 102.641 43.68C102.491 43.43 102.311 43.255 102.101 43.155C101.901 43.055 101.681 43.005 101.441 43.005ZM101.441 47.31C101.121 47.31 100.851 47.21 100.631 47.01C100.421 46.8 100.316 46.52 100.316 46.17C100.316 45.82 100.421 45.545 100.631 45.345C100.851 45.135 101.121 45.03 101.441 45.03C101.761 45.03 102.026 45.135 102.236 45.345C102.456 45.545 102.566 45.82 102.566 46.17C102.566 46.52 102.456 46.8 102.236 47.01C102.026 47.21 101.761 47.31 101.441 47.31ZM149.967 86.215V88H143.142V86.215H145.602V80.71H143.637V79.345C144.197 79.245 144.672 79.125 145.062 78.985C145.462 78.845 145.837 78.675 146.187 78.475H147.807V86.215H149.967ZM155.406 88.18C154.856 88.18 154.356 88.075 153.906 87.865C153.456 87.645 153.071 87.325 152.751 86.905C152.431 86.485 152.181 85.965 152.001 85.345C151.831 84.725 151.746 84.01 151.746 83.2C151.746 82.39 151.831 81.68 152.001 81.07C152.181 80.46 152.431 79.95 152.751 79.54C153.071 79.12 153.456 78.81 153.906 78.61C154.356 78.4 154.856 78.295 155.406 78.295C155.956 78.295 156.456 78.4 156.906 78.61C157.356 78.81 157.741 79.12 158.061 79.54C158.381 79.95 158.626 80.46 158.796 81.07C158.976 81.68 159.066 82.39 159.066 83.2C159.066 84.01 158.976 84.725 158.796 85.345C158.626 85.965 158.381 86.485 158.061 86.905C157.741 87.325 157.356 87.645 156.906 87.865C156.456 88.075 155.956 88.18 155.406 88.18ZM155.406 80.005C155.166 80.005 154.941 80.055 154.731 80.155C154.531 80.255 154.356 80.43 154.206 80.68C154.056 80.92 153.936 81.245 153.846 81.655C153.756 82.065 153.711 82.58 153.711 83.2C153.711 83.82 153.756 84.34 153.846 84.76C153.936 85.17 154.056 85.505 154.206 85.765C154.356 86.015 154.531 86.195 154.731 86.305C154.941 86.415 155.166 86.47 155.406 86.47C155.646 86.47 155.866 86.415 156.066 86.305C156.276 86.195 156.456 86.015 156.606 85.765C156.756 85.505 156.876 85.17 156.966 84.76C157.056 84.34 157.101 83.82 157.101 83.2C157.101 82.58 157.056 82.065 156.966 81.655C156.876 81.245 156.756 80.92 156.606 80.68C156.456 80.43 156.276 80.255 156.066 80.155C155.866 80.055 155.646 80.005 155.406 80.005ZM155.406 84.31C155.086 84.31 154.816 84.21 154.596 84.01C154.386 83.8 154.281 83.52 154.281 83.17C154.281 82.82 154.386 82.545 154.596 82.345C154.816 82.135 155.086 82.03 155.406 82.03C155.726 82.03 155.991 82.135 156.201 82.345C156.421 82.545 156.531 82.82 156.531 83.17C156.531 83.52 156.421 83.8 156.201 84.01C155.991 84.21 155.726 84.31 155.406 84.31Z" fill="#F0E442"/>
</svg>
