<svg width="610" height="110" viewBox="0 0 610 110" fill="none" xmlns="http://www.w3.org/2000/svg">
<rect width="610" height="110" fill="black"/>
<rect x="79" width="531" height="31" fill="#333333"/>
<rect x="79" width="531" height="31" fill="#333333"/>
<rect width="79" height="31" fill="#090808"/>
<path d="M12.105 17.8101C12.105 17.5513 11.9756 17.3486 11.7168 17.2021C11.4629 17.0508 11.0527 16.9165 10.4863 16.7993C8.60156 16.4038 7.65918 15.603 7.65918 14.397C7.65918 13.6938 7.94971 13.1079 8.53076 12.6392C9.1167 12.1655 9.88086 11.9287 10.8232 11.9287C11.8291 11.9287 12.6323 12.1655 13.2329 12.6392C13.8384 13.1128 14.1411 13.728 14.1411 14.4849H12.0244C12.0244 14.1821 11.9268 13.9331 11.7314 13.7378C11.5361 13.5376 11.231 13.4375 10.8159 13.4375C10.4595 13.4375 10.1836 13.5181 9.98828 13.6792C9.79297 13.8403 9.69531 14.0454 9.69531 14.2944C9.69531 14.5288 9.80518 14.7192 10.0249 14.8657C10.2495 15.0073 10.6255 15.1318 11.1528 15.2393C11.6802 15.3418 12.1245 15.459 12.4858 15.5908C13.604 16.001 14.1631 16.7114 14.1631 17.7222C14.1631 18.4448 13.853 19.0308 13.2329 19.48C12.6128 19.9243 11.812 20.1465 10.8306 20.1465C10.1665 20.1465 9.57568 20.0293 9.05811 19.7949C8.54541 19.5557 8.14258 19.231 7.84961 18.8208C7.55664 18.4058 7.41016 17.959 7.41016 17.4805H9.41699C9.43652 17.8564 9.57568 18.1445 9.83447 18.3447C10.0933 18.5449 10.4399 18.645 10.8745 18.645C11.2798 18.645 11.585 18.5693 11.79 18.418C12 18.2617 12.105 18.0591 12.105 17.8101ZM18.8286 18.4399C19.2192 18.4399 19.5366 18.3325 19.7808 18.1177C20.0249 17.9028 20.1519 17.6172 20.1616 17.2607H22.1465C22.1416 17.7979 21.9951 18.291 21.707 18.7402C21.4189 19.1846 21.0234 19.5312 20.5205 19.7803C20.0225 20.0244 19.4707 20.1465 18.8652 20.1465C17.7324 20.1465 16.8389 19.7876 16.1846 19.0698C15.5303 18.3472 15.2031 17.3511 15.2031 16.0815V15.9424C15.2031 14.7217 15.5278 13.7476 16.1772 13.02C16.8267 12.2925 17.7178 11.9287 18.8506 11.9287C19.8418 11.9287 20.6353 12.2119 21.231 12.7783C21.8315 13.3398 22.1367 14.0894 22.1465 15.0269H20.1616C20.1519 14.6167 20.0249 14.2847 19.7808 14.0308C19.5366 13.772 19.2144 13.6426 18.814 13.6426C18.3208 13.6426 17.9473 13.8232 17.6934 14.1846C17.4443 14.541 17.3198 15.1221 17.3198 15.9277V16.1475C17.3198 16.9629 17.4443 17.5488 17.6934 17.9053C17.9424 18.2617 18.3208 18.4399 18.8286 18.4399ZM27.8081 14.0601C27.52 14.021 27.2661 14.0015 27.0464 14.0015C26.2456 14.0015 25.7207 14.2725 25.4717 14.8145V20H23.355V12.0752H25.3545L25.4131 13.02C25.8379 12.2925 26.4263 11.9287 27.1782 11.9287C27.4126 11.9287 27.6323 11.9604 27.8374 12.0239L27.8081 14.0601ZM31.0674 20H28.9434V12.0752H31.0674V20ZM28.8188 10.0244C28.8188 9.70703 28.9238 9.4458 29.1338 9.24072C29.3486 9.03564 29.6392 8.93311 30.0054 8.93311C30.3667 8.93311 30.6548 9.03564 30.8696 9.24072C31.0845 9.4458 31.1919 9.70703 31.1919 10.0244C31.1919 10.3467 31.082 10.6104 30.8623 10.8154C30.6475 11.0205 30.3618 11.123 30.0054 11.123C29.6489 11.123 29.3608 11.0205 29.1411 10.8154C28.9263 10.6104 28.8188 10.3467 28.8188 10.0244ZM39.9517 16.1108C39.9517 17.3315 39.6733 18.3105 39.1167 19.0479C38.5649 19.7803 37.8179 20.1465 36.8755 20.1465C36.0747 20.1465 35.4277 19.8682 34.9346 19.3115V23.0469H32.8179V12.0752H34.7808L34.854 12.8516C35.3667 12.2363 36.0356 11.9287 36.8608 11.9287C37.8374 11.9287 38.5967 12.29 39.1387 13.0127C39.6807 13.7354 39.9517 14.7314 39.9517 16.001V16.1108ZM37.835 15.957C37.835 15.2197 37.7031 14.6509 37.4395 14.2505C37.1807 13.8501 36.8022 13.6499 36.3042 13.6499C35.6401 13.6499 35.1836 13.9038 34.9346 14.4116V17.6562C35.1934 18.1787 35.6548 18.4399 36.3188 18.4399C37.3296 18.4399 37.835 17.6123 37.835 15.957ZM43.8042 10.127V12.0752H45.1592V13.6279H43.8042V17.583C43.8042 17.876 43.8604 18.0859 43.9727 18.2129C44.085 18.3398 44.2998 18.4033 44.6172 18.4033C44.8516 18.4033 45.0591 18.3862 45.2397 18.3521V19.9561C44.8247 20.083 44.3975 20.1465 43.958 20.1465C42.4736 20.1465 41.7168 19.397 41.6875 17.8979V13.6279H40.5303V12.0752H41.6875V10.127H43.8042ZM46.4482 18.96C46.4482 18.623 46.5605 18.3496 46.7852 18.1396C47.0146 17.9297 47.3003 17.8247 47.6421 17.8247C47.9888 17.8247 48.2744 17.9297 48.499 18.1396C48.7285 18.3496 48.8433 18.623 48.8433 18.96C48.8433 19.292 48.731 19.563 48.5063 19.7729C48.2817 19.978 47.9937 20.0806 47.6421 20.0806C47.2954 20.0806 47.0098 19.978 46.7852 19.7729C46.5605 19.563 46.4482 19.292 46.4482 18.96ZM57.8374 16.1108C57.8374 17.3315 57.5591 18.3105 57.0024 19.0479C56.4507 19.7803 55.7036 20.1465 54.7612 20.1465C53.9604 20.1465 53.3135 19.8682 52.8203 19.3115V23.0469H50.7036V12.0752H52.6665L52.7397 12.8516C53.2524 12.2363 53.9214 11.9287 54.7466 11.9287C55.7231 11.9287 56.4824 12.29 57.0244 13.0127C57.5664 13.7354 57.8374 14.7314 57.8374 16.001V16.1108ZM55.7207 15.957C55.7207 15.2197 55.5889 14.6509 55.3252 14.2505C55.0664 13.8501 54.688 13.6499 54.1899 13.6499C53.5259 13.6499 53.0693 13.9038 52.8203 14.4116V17.6562C53.0791 18.1787 53.5405 18.4399 54.2046 18.4399C55.2153 18.4399 55.7207 17.6123 55.7207 15.957ZM62.0269 17.0044L63.4917 12.0752H65.7622L62.5762 21.2305L62.4004 21.6479C61.9268 22.6831 61.1455 23.2007 60.0566 23.2007C59.749 23.2007 59.4365 23.1543 59.1191 23.0615V21.4575L59.4414 21.4648C59.8418 21.4648 60.1396 21.4038 60.335 21.2817C60.5352 21.1597 60.6914 20.957 60.8037 20.6738L61.0527 20.022L58.2769 12.0752H60.5547L62.0269 17.0044Z" fill="white"/>
<path d="M7.705 47.28C7.705 46.67 7.795 46.125 7.975 45.645C8.155 45.165 8.39 44.76 8.68 44.43C8.98 44.09 9.32 43.83 9.7 43.65C10.08 43.47 10.475 43.38 10.885 43.38C11.315 43.38 11.675 43.455 11.965 43.605C12.255 43.745 12.53 43.935 12.79 44.175L12.715 43.02V40.485H14.92V51H13.12L12.955 50.235H12.91C12.63 50.505 12.31 50.73 11.95 50.91C11.59 51.09 11.22 51.18 10.84 51.18C10.37 51.18 9.94 51.09 9.55 50.91C9.17 50.73 8.84 50.475 8.56 50.145C8.29 49.805 8.08 49.395 7.93 48.915C7.78 48.435 7.705 47.89 7.705 47.28ZM9.97 47.25C9.97 47.99 10.095 48.53 10.345 48.87C10.595 49.21 10.95 49.38 11.41 49.38C11.66 49.38 11.89 49.33 12.1 49.23C12.31 49.12 12.515 48.94 12.715 48.69V45.675C12.515 45.495 12.31 45.37 12.1 45.3C11.9 45.22 11.69 45.18 11.47 45.18C11.06 45.18 10.705 45.35 10.405 45.69C10.115 46.03 9.97 46.55 9.97 47.25ZM16.9091 48.93C16.9091 48.51 16.9991 48.145 17.1791 47.835C17.3591 47.515 17.6441 47.245 18.0341 47.025C18.4341 46.805 18.9441 46.63 19.5641 46.5C20.1841 46.36 20.9341 46.265 21.8141 46.215C21.7741 45.875 21.6241 45.61 21.3641 45.42C21.1141 45.23 20.7341 45.135 20.2241 45.135C19.8641 45.135 19.4991 45.2 19.1291 45.33C18.7691 45.45 18.3791 45.615 17.9591 45.825L17.1791 44.385C17.6891 44.095 18.2341 43.855 18.8141 43.665C19.4041 43.475 20.0191 43.38 20.6591 43.38C21.6991 43.38 22.5191 43.655 23.1191 44.205C23.7191 44.755 24.0191 45.6 24.0191 46.74V51H22.2191L22.0541 50.16H21.9941C21.6141 50.45 21.1991 50.695 20.7491 50.895C20.2991 51.085 19.8341 51.18 19.3541 51.18C18.9741 51.18 18.6341 51.12 18.3341 51C18.0341 50.89 17.7791 50.735 17.5691 50.535C17.3591 50.325 17.1941 50.085 17.0741 49.815C16.9641 49.545 16.9091 49.25 16.9091 48.93ZM19.0241 48.765C19.0241 49.005 19.1141 49.185 19.2941 49.305C19.4841 49.415 19.7391 49.47 20.0591 49.47C20.3891 49.47 20.6991 49.405 20.9891 49.275C21.2791 49.135 21.5541 48.965 21.8141 48.765V47.535C21.2641 47.565 20.8091 47.615 20.4491 47.685C20.0891 47.755 19.8041 47.845 19.5941 47.955C19.3841 48.055 19.2341 48.175 19.1441 48.315C19.0641 48.455 19.0241 48.605 19.0241 48.765ZM27.5983 45.285H25.7233V43.65L27.7033 43.56L27.9883 41.58H29.8033V43.56H32.9533V45.285H29.8033V47.895C29.8033 48.465 29.9283 48.87 30.1783 49.11C30.4283 49.34 30.8233 49.455 31.3633 49.455C31.6533 49.455 31.9183 49.43 32.1583 49.38C32.3983 49.33 32.6283 49.265 32.8483 49.185L33.2383 50.775C32.9083 50.875 32.5383 50.965 32.1283 51.045C31.7283 51.135 31.2883 51.18 30.8083 51.18C30.2183 51.18 29.7183 51.1 29.3083 50.94C28.8983 50.78 28.5633 50.56 28.3033 50.28C28.0533 49.99 27.8733 49.645 27.7633 49.245C27.6533 48.845 27.5983 48.4 27.5983 47.91V45.285ZM34.8974 48.93C34.8974 48.51 34.9874 48.145 35.1674 47.835C35.3474 47.515 35.6324 47.245 36.0224 47.025C36.4224 46.805 36.9324 46.63 37.5524 46.5C38.1724 46.36 38.9224 46.265 39.8024 46.215C39.7624 45.875 39.6124 45.61 39.3524 45.42C39.1024 45.23 38.7224 45.135 38.2124 45.135C37.8524 45.135 37.4874 45.2 37.1174 45.33C36.7574 45.45 36.3674 45.615 35.9474 45.825L35.1674 44.385C35.6774 44.095 36.2224 43.855 36.8024 43.665C37.3924 43.475 38.0074 43.38 38.6474 43.38C39.6874 43.38 40.5074 43.655 41.1074 44.205C41.7074 44.755 42.0074 45.6 42.0074 46.74V51H40.2074L40.0424 50.16H39.9824C39.6024 50.45 39.1874 50.695 38.7374 50.895C38.2874 51.085 37.8224 51.18 37.3424 51.18C36.9624 51.18 36.6224 51.12 36.3224 51C36.0224 50.89 35.7674 50.735 35.5574 50.535C35.3474 50.325 35.1824 50.085 35.0624 49.815C34.9524 49.545 34.8974 49.25 34.8974 48.93ZM37.0124 48.765C37.0124 49.005 37.1024 49.185 37.2824 49.305C37.4724 49.415 37.7274 49.47 38.0474 49.47C38.3774 49.47 38.6874 49.405 38.9774 49.275C39.2674 49.135 39.5424 48.965 39.8024 48.765V47.535C39.2524 47.565 38.7974 47.615 38.4374 47.685C38.0774 47.755 37.7924 47.845 37.5824 47.955C37.3724 48.055 37.2224 48.175 37.1324 48.315C37.0524 48.455 37.0124 48.605 37.0124 48.765ZM51.0766 51.81V53.46H43.8766V51.81H51.0766ZM53.7557 48.66C54.1857 48.93 54.6157 49.145 55.0457 49.305C55.4857 49.465 55.9557 49.545 56.4557 49.545C56.9657 49.545 57.3307 49.49 57.5507 49.38C57.7707 49.27 57.8807 49.115 57.8807 48.915C57.8807 48.685 57.6957 48.5 57.3257 48.36C56.9657 48.21 56.4857 48.05 55.8857 47.88C55.5557 47.79 55.2307 47.685 54.9107 47.565C54.6007 47.435 54.3207 47.285 54.0707 47.115C53.8207 46.935 53.6157 46.73 53.4557 46.5C53.3057 46.27 53.2307 46.005 53.2307 45.705C53.2307 45.365 53.3107 45.05 53.4707 44.76C53.6307 44.47 53.8557 44.225 54.1457 44.025C54.4457 43.825 54.8057 43.67 55.2257 43.56C55.6557 43.44 56.1357 43.38 56.6657 43.38C57.3257 43.38 57.9257 43.49 58.4657 43.71C59.0157 43.92 59.4857 44.15 59.8757 44.4L58.8857 45.72C58.5457 45.52 58.1957 45.355 57.8357 45.225C57.4757 45.085 57.1007 45.015 56.7107 45.015C56.2407 45.015 55.9057 45.065 55.7057 45.165C55.5157 45.265 55.4207 45.41 55.4207 45.6C55.4207 45.71 55.4707 45.81 55.5707 45.9C55.6707 45.99 55.8057 46.07 55.9757 46.14C56.1457 46.21 56.3457 46.28 56.5757 46.35C56.8157 46.41 57.0657 46.475 57.3257 46.545C57.6957 46.645 58.0457 46.76 58.3757 46.89C58.7057 47.01 58.9957 47.155 59.2457 47.325C59.4957 47.495 59.6957 47.7 59.8457 47.94C59.9957 48.18 60.0707 48.46 60.0707 48.78C60.0707 49.12 59.9907 49.435 59.8307 49.725C59.6707 50.015 59.4357 50.27 59.1257 50.49C58.8257 50.7 58.4457 50.87 57.9857 51C57.5357 51.12 57.0107 51.18 56.4107 51.18C55.7407 51.18 55.0857 51.07 54.4457 50.85C53.8057 50.63 53.2457 50.36 52.7657 50.04L53.7557 48.66ZM62.1498 43.56H67.3398V51H65.1348V45.285H62.1498V43.56ZM66.1398 42.465C65.7098 42.465 65.3548 42.345 65.0748 42.105C64.8048 41.865 64.6698 41.54 64.6698 41.13C64.6698 40.72 64.8048 40.39 65.0748 40.14C65.3548 39.88 65.7098 39.75 66.1398 39.75C66.5698 39.75 66.9198 39.88 67.1898 40.14C67.4698 40.39 67.6098 40.72 67.6098 41.13C67.6098 41.54 67.4698 41.865 67.1898 42.105C66.9198 42.345 66.5698 42.465 66.1398 42.465ZM71.009 49.815L74.909 45.285H71.489V43.56H77.954V44.73L74.054 49.275H78.074V51H71.009V49.815ZM79.7781 47.28C79.7781 46.67 79.8831 46.125 80.0931 45.645C80.3131 45.165 80.6031 44.76 80.9631 44.43C81.3231 44.09 81.7331 43.83 82.1931 43.65C82.6631 43.47 83.1481 43.38 83.6481 43.38C84.2181 43.38 84.7231 43.47 85.1631 43.65C85.6031 43.83 85.9681 44.08 86.2581 44.4C86.5481 44.72 86.7681 45.1 86.9181 45.54C87.0681 45.97 87.1431 46.44 87.1431 46.95C87.1431 47.15 87.1331 47.34 87.1131 47.52C87.0931 47.7 87.0731 47.835 87.0531 47.925H82.0431C82.1231 48.485 82.3631 48.89 82.7631 49.14C83.1731 49.38 83.6531 49.5 84.2031 49.5C84.5431 49.5 84.8631 49.46 85.1631 49.38C85.4731 49.29 85.7931 49.16 86.1231 48.99L86.8431 50.31C86.4231 50.58 85.9531 50.795 85.4331 50.955C84.9131 51.105 84.4031 51.18 83.9031 51.18C83.3231 51.18 82.7831 51.095 82.2831 50.925C81.7831 50.745 81.3481 50.49 80.9781 50.16C80.6081 49.82 80.3131 49.41 80.0931 48.93C79.8831 48.45 79.7781 47.9 79.7781 47.28ZM85.1481 46.47C85.1481 46.05 85.0331 45.71 84.8031 45.45C84.5731 45.19 84.2031 45.06 83.6931 45.06C83.2931 45.06 82.9381 45.175 82.6281 45.405C82.3181 45.635 82.1131 45.99 82.0131 46.47H85.1481ZM89.7323 48.66C90.1623 48.93 90.5923 49.145 91.0223 49.305C91.4623 49.465 91.9323 49.545 92.4323 49.545C92.9423 49.545 93.3073 49.49 93.5273 49.38C93.7473 49.27 93.8573 49.115 93.8573 48.915C93.8573 48.685 93.6723 48.5 93.3023 48.36C92.9423 48.21 92.4623 48.05 91.8623 47.88C91.5323 47.79 91.2073 47.685 90.8873 47.565C90.5773 47.435 90.2973 47.285 90.0473 47.115C89.7973 46.935 89.5923 46.73 89.4323 46.5C89.2823 46.27 89.2073 46.005 89.2073 45.705C89.2073 45.365 89.2873 45.05 89.4473 44.76C89.6073 44.47 89.8323 44.225 90.1223 44.025C90.4223 43.825 90.7823 43.67 91.2023 43.56C91.6323 43.44 92.1123 43.38 92.6423 43.38C93.3023 43.38 93.9023 43.49 94.4423 43.71C94.9923 43.92 95.4623 44.15 95.8523 44.4L94.8623 45.72C94.5223 45.52 94.1723 45.355 93.8123 45.225C93.4523 45.085 93.0773 45.015 92.6873 45.015C92.2173 45.015 91.8823 45.065 91.6823 45.165C91.4923 45.265 91.3973 45.41 91.3973 45.6C91.3973 45.71 91.4473 45.81 91.5473 45.9C91.6473 45.99 91.7823 46.07 91.9523 46.14C92.1223 46.21 92.3223 46.28 92.5523 46.35C92.7923 46.41 93.0423 46.475 93.3023 46.545C93.6723 46.645 94.0223 46.76 94.3523 46.89C94.6823 47.01 94.9723 47.155 95.2223 47.325C95.4723 47.495 95.6723 47.7 95.8223 47.94C95.9723 48.18 96.0473 48.46 96.0473 48.78C96.0473 49.12 95.9673 49.435 95.8073 49.725C95.6473 50.015 95.4123 50.27 95.1023 50.49C94.8023 50.7 94.4223 50.87 93.9623 51C93.5123 51.12 92.9873 51.18 92.3873 51.18C91.7173 51.18 91.0623 51.07 90.4223 50.85C89.7823 50.63 89.2223 50.36 88.7423 50.04L89.7323 48.66ZM106.986 43.53H113.886V45.09H106.986V43.53ZM106.986 46.995H113.886V48.555H106.986V46.995ZM127.419 51.15C127.419 50.88 127.424 50.64 127.434 50.43C127.454 50.22 127.474 50.02 127.494 49.83C127.514 49.63 127.529 49.435 127.539 49.245C127.559 49.045 127.569 48.825 127.569 48.585C127.569 48.455 127.539 48.325 127.479 48.195C127.419 48.065 127.309 47.95 127.149 47.85C126.989 47.74 126.774 47.655 126.504 47.595C126.244 47.525 125.914 47.485 125.514 47.475V46.185C125.914 46.175 126.244 46.14 126.504 46.08C126.774 46.01 126.989 45.925 127.149 45.825C127.309 45.715 127.419 45.595 127.479 45.465C127.539 45.335 127.569 45.205 127.569 45.075C127.569 44.845 127.559 44.63 127.539 44.43C127.529 44.23 127.514 44.035 127.494 43.845C127.474 43.645 127.454 43.44 127.434 43.23C127.424 43.01 127.419 42.77 127.419 42.51C127.419 41.7 127.644 41.145 128.094 40.845C128.544 40.535 129.249 40.38 130.209 40.38H131.364V41.55H130.749C130.439 41.55 130.184 41.565 129.984 41.595C129.784 41.625 129.629 41.68 129.519 41.76C129.409 41.84 129.329 41.95 129.279 42.09C129.239 42.22 129.219 42.39 129.219 42.6C129.219 43 129.229 43.395 129.249 43.785C129.279 44.175 129.294 44.595 129.294 45.045C129.294 45.615 129.179 46.03 128.949 46.29C128.719 46.54 128.334 46.71 127.794 46.8V46.86C128.334 46.95 128.719 47.125 128.949 47.385C129.179 47.635 129.294 48.045 129.294 48.615C129.294 49.075 129.279 49.495 129.249 49.875C129.229 50.255 129.219 50.65 129.219 51.06C129.219 51.27 129.239 51.44 129.279 51.57C129.329 51.71 129.409 51.82 129.519 51.9C129.629 51.98 129.784 52.035 129.984 52.065C130.184 52.095 130.439 52.11 130.749 52.11H131.364V53.28H130.209C129.249 53.28 128.544 53.125 128.094 52.815C127.644 52.515 127.419 51.96 127.419 51.15ZM234.614 44.58C234.614 44.33 234.654 44.1 234.734 43.89C234.824 43.67 234.944 43.48 235.094 43.32C235.244 43.16 235.424 43.035 235.634 42.945C235.854 42.855 236.094 42.81 236.354 42.81C236.614 42.81 236.849 42.855 237.059 42.945C237.279 43.035 237.464 43.16 237.614 43.32C237.764 43.48 237.879 43.67 237.959 43.89C238.049 44.1 238.094 44.33 238.094 44.58C238.094 45.08 237.934 45.5 237.614 45.84C237.294 46.17 236.874 46.335 236.354 46.335C235.834 46.335 235.414 46.17 235.094 45.84C234.774 45.5 234.614 45.08 234.614 44.58ZM234.614 49.425C234.614 49.175 234.654 48.945 234.734 48.735C234.824 48.515 234.944 48.325 235.094 48.165C235.244 48.005 235.424 47.88 235.634 47.79C235.854 47.7 236.094 47.655 236.354 47.655C236.614 47.655 236.849 47.7 237.059 47.79C237.279 47.88 237.464 48.005 237.614 48.165C237.764 48.325 237.879 48.515 237.959 48.735C238.049 48.945 238.094 49.175 238.094 49.425C238.094 49.925 237.934 50.345 237.614 50.685C237.294 51.015 236.874 51.18 236.354 51.18C235.834 51.18 235.414 51.015 235.094 50.685C234.774 50.345 234.614 49.925 234.614 49.425ZM261.566 52.965C262.866 52.515 263.516 51.805 263.516 50.835C263.476 50.845 263.421 50.85 263.351 50.85C263.141 50.85 262.936 50.82 262.736 50.76C262.546 50.69 262.376 50.59 262.226 50.46C262.076 50.33 261.956 50.17 261.866 49.98C261.776 49.79 261.731 49.57 261.731 49.32C261.731 48.85 261.891 48.475 262.211 48.195C262.541 47.915 262.941 47.775 263.411 47.775C264.031 47.775 264.496 48.005 264.806 48.465C265.116 48.915 265.271 49.545 265.271 50.355C265.271 51.315 265.006 52.125 264.476 52.785C263.946 53.445 263.161 53.935 262.121 54.255L261.566 52.965ZM387.514 44.58C387.514 44.33 387.554 44.1 387.634 43.89C387.724 43.67 387.844 43.48 387.994 43.32C388.144 43.16 388.324 43.035 388.534 42.945C388.754 42.855 388.994 42.81 389.254 42.81C389.514 42.81 389.749 42.855 389.959 42.945C390.179 43.035 390.364 43.16 390.514 43.32C390.664 43.48 390.779 43.67 390.859 43.89C390.949 44.1 390.994 44.33 390.994 44.58C390.994 45.08 390.834 45.5 390.514 45.84C390.194 46.17 389.774 46.335 389.254 46.335C388.734 46.335 388.314 46.17 387.994 45.84C387.674 45.5 387.514 45.08 387.514 44.58ZM387.514 49.425C387.514 49.175 387.554 48.945 387.634 48.735C387.724 48.515 387.844 48.325 387.994 48.165C388.144 48.005 388.324 47.88 388.534 47.79C388.754 47.7 388.994 47.655 389.254 47.655C389.514 47.655 389.749 47.7 389.959 47.79C390.179 47.88 390.364 48.005 390.514 48.165C390.664 48.325 390.779 48.515 390.859 48.735C390.949 48.945 390.994 49.175 390.994 49.425C390.994 49.925 390.834 50.345 390.514 50.685C390.194 51.015 389.774 51.18 389.254 51.18C388.734 51.18 388.314 51.015 387.994 50.685C387.674 50.345 387.514 49.925 387.514 49.425ZM414.466 52.965C415.766 52.515 416.416 51.805 416.416 50.835C416.376 50.845 416.321 50.85 416.251 50.85C416.041 50.85 415.836 50.82 415.636 50.76C415.446 50.69 415.276 50.59 415.126 50.46C414.976 50.33 414.856 50.17 414.766 49.98C414.676 49.79 414.631 49.57 414.631 49.32C414.631 48.85 414.791 48.475 415.111 48.195C415.441 47.915 415.841 47.775 416.311 47.775C416.931 47.775 417.396 48.005 417.706 48.465C418.016 48.915 418.171 49.545 418.171 50.355C418.171 51.315 417.906 52.125 417.376 52.785C416.846 53.445 416.061 53.935 415.021 54.255L414.466 52.965ZM549.408 44.58C549.408 44.33 549.448 44.1 549.528 43.89C549.618 43.67 549.738 43.48 549.888 43.32C550.038 43.16 550.218 43.035 550.428 42.945C550.648 42.855 550.888 42.81 551.148 42.81C551.408 42.81 551.643 42.855 551.853 42.945C552.073 43.035 552.258 43.16 552.408 43.32C552.558 43.48 552.673 43.67 552.753 43.89C552.843 44.1 552.888 44.33 552.888 44.58C552.888 45.08 552.728 45.5 552.408 45.84C552.088 46.17 551.668 46.335 551.148 46.335C550.628 46.335 550.208 46.17 549.888 45.84C549.568 45.5 549.408 45.08 549.408 44.58ZM549.408 49.425C549.408 49.175 549.448 48.945 549.528 48.735C549.618 48.515 549.738 48.325 549.888 48.165C550.038 48.005 550.218 47.88 550.428 47.79C550.648 47.7 550.888 47.655 551.148 47.655C551.408 47.655 551.643 47.7 551.853 47.79C552.073 47.88 552.258 48.005 552.408 48.165C552.558 48.325 552.673 48.515 552.753 48.735C552.843 48.945 552.888 49.175 552.888 49.425C552.888 49.925 552.728 50.345 552.408 50.685C552.088 51.015 551.668 51.18 551.148 51.18C550.628 51.18 550.208 51.015 549.888 50.685C549.568 50.345 549.408 49.925 549.408 49.425ZM576.361 52.965C577.661 52.515 578.311 51.805 578.311 50.835C578.271 50.845 578.216 50.85 578.146 50.85C577.936 50.85 577.731 50.82 577.531 50.76C577.341 50.69 577.171 50.59 577.021 50.46C576.871 50.33 576.751 50.17 576.661 49.98C576.571 49.79 576.526 49.57 576.526 49.32C576.526 48.85 576.686 48.475 577.006 48.195C577.336 47.915 577.736 47.775 578.206 47.775C578.826 47.775 579.291 48.005 579.601 48.465C579.911 48.915 580.066 49.545 580.066 50.355C580.066 51.315 579.801 52.125 579.271 52.785C578.741 53.445 577.956 53.935 576.916 54.255L576.361 52.965ZM252.602 63.58C252.602 63.33 252.642 63.1 252.722 62.89C252.812 62.67 252.932 62.48 253.082 62.32C253.232 62.16 253.412 62.035 253.622 61.945C253.842 61.855 254.082 61.81 254.342 61.81C254.602 61.81 254.837 61.855 255.047 61.945C255.267 62.035 255.452 62.16 255.602 62.32C255.752 62.48 255.867 62.67 255.947 62.89C256.037 63.1 256.082 63.33 256.082 63.58C256.082 64.08 255.922 64.5 255.602 64.84C255.282 65.17 254.862 65.335 254.342 65.335C253.822 65.335 253.402 65.17 253.082 64.84C252.762 64.5 252.602 64.08 252.602 63.58ZM252.602 68.425C252.602 68.175 252.642 67.945 252.722 67.735C252.812 67.515 252.932 67.325 253.082 67.165C253.232 67.005 253.412 66.88 253.622 66.79C253.842 66.7 254.082 66.655 254.342 66.655C254.602 66.655 254.837 66.7 255.047 66.79C255.267 66.88 255.452 67.005 255.602 67.165C255.752 67.325 255.867 67.515 255.947 67.735C256.037 67.945 256.082 68.175 256.082 68.425C256.082 68.925 255.922 69.345 255.602 69.685C255.282 70.015 254.862 70.18 254.342 70.18C253.822 70.18 253.402 70.015 253.082 69.685C252.762 69.345 252.602 68.925 252.602 68.425ZM279.554 71.965C280.854 71.515 281.504 70.805 281.504 69.835C281.464 69.845 281.409 69.85 281.339 69.85C281.129 69.85 280.924 69.82 280.724 69.76C280.534 69.69 280.364 69.59 280.214 69.46C280.064 69.33 279.944 69.17 279.854 68.98C279.764 68.79 279.719 68.57 279.719 68.32C279.719 67.85 279.879 67.475 280.199 67.195C280.529 66.915 280.929 66.775 281.399 66.775C282.019 66.775 282.484 67.005 282.794 67.465C283.104 67.915 283.259 68.545 283.259 69.355C283.259 70.315 282.994 71.125 282.464 71.785C281.934 72.445 281.149 72.935 280.109 73.255L279.554 71.965ZM387.514 63.58C387.514 63.33 387.554 63.1 387.634 62.89C387.724 62.67 387.844 62.48 387.994 62.32C388.144 62.16 388.324 62.035 388.534 61.945C388.754 61.855 388.994 61.81 389.254 61.81C389.514 61.81 389.749 61.855 389.959 61.945C390.179 62.035 390.364 62.16 390.514 62.32C390.664 62.48 390.779 62.67 390.859 62.89C390.949 63.1 390.994 63.33 390.994 63.58C390.994 64.08 390.834 64.5 390.514 64.84C390.194 65.17 389.774 65.335 389.254 65.335C388.734 65.335 388.314 65.17 387.994 64.84C387.674 64.5 387.514 64.08 387.514 63.58ZM387.514 68.425C387.514 68.175 387.554 67.945 387.634 67.735C387.724 67.515 387.844 67.325 387.994 67.165C388.144 67.005 388.324 66.88 388.534 66.79C388.754 66.7 388.994 66.655 389.254 66.655C389.514 66.655 389.749 66.7 389.959 66.79C390.179 66.88 390.364 67.005 390.514 67.165C390.664 67.325 390.779 67.515 390.859 67.735C390.949 67.945 390.994 68.175 390.994 68.425C390.994 68.925 390.834 69.345 390.514 69.685C390.194 70.015 389.774 70.18 389.254 70.18C388.734 70.18 388.314 70.015 387.994 69.685C387.674 69.345 387.514 68.925 387.514 68.425ZM413.926 71.11C414.236 71.11 414.486 71.095 414.676 71.065C414.876 71.035 415.031 70.98 415.141 70.9C415.251 70.82 415.326 70.71 415.366 70.57C415.416 70.44 415.441 70.27 415.441 70.06C415.441 69.65 415.431 69.255 415.411 68.875C415.391 68.495 415.381 68.075 415.381 67.615C415.381 67.045 415.496 66.635 415.726 66.385C415.956 66.125 416.341 65.95 416.881 65.86V65.8C416.341 65.71 415.956 65.54 415.726 65.29C415.496 65.03 415.381 64.615 415.381 64.045C415.381 63.595 415.391 63.175 415.411 62.785C415.431 62.395 415.441 62 415.441 61.6C415.441 61.39 415.416 61.22 415.366 61.09C415.326 60.95 415.251 60.84 415.141 60.76C415.031 60.68 414.876 60.625 414.676 60.595C414.486 60.565 414.236 60.55 413.926 60.55H413.311V59.38H414.466C415.426 59.38 416.131 59.535 416.581 59.845C417.031 60.145 417.256 60.7 417.256 61.51C417.256 61.77 417.246 62.01 417.226 62.23C417.216 62.44 417.196 62.645 417.166 62.845C417.146 63.035 417.126 63.23 417.106 63.43C417.096 63.63 417.091 63.845 417.091 64.075C417.091 64.205 417.121 64.335 417.181 64.465C417.241 64.595 417.351 64.715 417.511 64.825C417.671 64.925 417.881 65.01 418.141 65.08C418.411 65.14 418.751 65.175 419.161 65.185V66.475C418.751 66.485 418.411 66.525 418.141 66.595C417.881 66.655 417.671 66.74 417.511 66.85C417.351 66.95 417.241 67.065 417.181 67.195C417.121 67.325 417.091 67.455 417.091 67.585C417.091 67.825 417.096 68.045 417.106 68.245C417.126 68.435 417.146 68.63 417.166 68.83C417.196 69.02 417.216 69.22 417.226 69.43C417.246 69.64 417.256 69.88 417.256 70.15C417.256 70.96 417.031 71.515 416.581 71.815C416.131 72.125 415.426 72.28 414.466 72.28H413.311V71.11H413.926Z" fill="white"/>
<path d="M136.218 42.9L136.143 40.725H138.693L138.618 42.9L138.093 46.455H136.743L136.218 42.9ZM146.412 51.18C145.862 51.18 145.362 51.075 144.912 50.865C144.462 50.645 144.077 50.325 143.757 49.905C143.437 49.485 143.187 48.965 143.007 48.345C142.837 47.725 142.752 47.01 142.752 46.2C142.752 45.39 142.837 44.68 143.007 44.07C143.187 43.46 143.437 42.95 143.757 42.54C144.077 42.12 144.462 41.81 144.912 41.61C145.362 41.4 145.862 41.295 146.412 41.295C146.962 41.295 147.462 41.4 147.912 41.61C148.362 41.81 148.747 42.12 149.067 42.54C149.387 42.95 149.632 43.46 149.802 44.07C149.982 44.68 150.072 45.39 150.072 46.2C150.072 47.01 149.982 47.725 149.802 48.345C149.632 48.965 149.387 49.485 149.067 49.905C148.747 50.325 148.362 50.645 147.912 50.865C147.462 51.075 146.962 51.18 146.412 51.18ZM146.412 43.005C146.172 43.005 145.947 43.055 145.737 43.155C145.537 43.255 145.362 43.43 145.212 43.68C145.062 43.92 144.942 44.245 144.852 44.655C144.762 45.065 144.717 45.58 144.717 46.2C144.717 46.82 144.762 47.34 144.852 47.76C144.942 48.17 145.062 48.505 145.212 48.765C145.362 49.015 145.537 49.195 145.737 49.305C145.947 49.415 146.172 49.47 146.412 49.47C146.652 49.47 146.872 49.415 147.072 49.305C147.282 49.195 147.462 49.015 147.612 48.765C147.762 48.505 147.882 48.17 147.972 47.76C148.062 47.34 148.107 46.82 148.107 46.2C148.107 45.58 148.062 45.065 147.972 44.655C147.882 44.245 147.762 43.92 147.612 43.68C147.462 43.43 147.282 43.255 147.072 43.155C146.872 43.055 146.652 43.005 146.412 43.005ZM146.412 47.31C146.092 47.31 145.822 47.21 145.602 47.01C145.392 46.8 145.287 46.52 145.287 46.17C145.287 45.82 145.392 45.545 145.602 45.345C145.822 45.135 146.092 45.03 146.412 45.03C146.732 45.03 146.997 45.135 147.207 45.345C147.427 45.545 147.537 45.82 147.537 46.17C147.537 46.52 147.427 46.8 147.207 47.01C146.997 47.21 146.732 47.31 146.412 47.31ZM160.95 45.27H167.85V46.83H160.95V45.27ZM185.944 49.215V51H179.119V49.215H181.579V43.71H179.614V42.345C180.174 42.245 180.649 42.125 181.039 41.985C181.439 41.845 181.814 41.675 182.164 41.475H183.784V49.215H185.944ZM191.383 51.18C190.833 51.18 190.333 51.075 189.883 50.865C189.433 50.645 189.048 50.325 188.728 49.905C188.408 49.485 188.158 48.965 187.978 48.345C187.808 47.725 187.723 47.01 187.723 46.2C187.723 45.39 187.808 44.68 187.978 44.07C188.158 43.46 188.408 42.95 188.728 42.54C189.048 42.12 189.433 41.81 189.883 41.61C190.333 41.4 190.833 41.295 191.383 41.295C191.933 41.295 192.433 41.4 192.883 41.61C193.333 41.81 193.718 42.12 194.038 42.54C194.358 42.95 194.603 43.46 194.773 44.07C194.953 44.68 195.043 45.39 195.043 46.2C195.043 47.01 194.953 47.725 194.773 48.345C194.603 48.965 194.358 49.485 194.038 49.905C193.718 50.325 193.333 50.645 192.883 50.865C192.433 51.075 191.933 51.18 191.383 51.18ZM191.383 43.005C191.143 43.005 190.918 43.055 190.708 43.155C190.508 43.255 190.333 43.43 190.183 43.68C190.033 43.92 189.913 44.245 189.823 44.655C189.733 45.065 189.688 45.58 189.688 46.2C189.688 46.82 189.733 47.34 189.823 47.76C189.913 48.17 190.033 48.505 190.183 48.765C190.333 49.015 190.508 49.195 190.708 49.305C190.918 49.415 191.143 49.47 191.383 49.47C191.623 49.47 191.843 49.415 192.043 49.305C192.253 49.195 192.433 49.015 192.583 48.765C192.733 48.505 192.853 48.17 192.943 47.76C193.033 47.34 193.078 46.82 193.078 46.2C193.078 45.58 193.033 45.065 192.943 44.655C192.853 44.245 192.733 43.92 192.583 43.68C192.433 43.43 192.253 43.255 192.043 43.155C191.843 43.055 191.623 43.005 191.383 43.005ZM191.383 47.31C191.063 47.31 190.793 47.21 190.573 47.01C190.363 46.8 190.258 46.52 190.258 46.17C190.258 45.82 190.363 45.545 190.573 45.345C190.793 45.135 191.063 45.03 191.383 45.03C191.703 45.03 191.968 45.135 192.178 45.345C192.398 45.545 192.508 45.82 192.508 46.17C192.508 46.52 192.398 46.8 192.178 47.01C191.968 47.21 191.703 47.31 191.383 47.31ZM205.846 41.22H208.051L209.041 44.685L209.371 46.035H209.416L209.746 44.685L210.691 41.22H212.896V51H211.111V47.805C211.111 47.535 211.121 47.205 211.141 46.815C211.161 46.415 211.186 46.005 211.216 45.585C211.246 45.165 211.276 44.76 211.306 44.37C211.336 43.97 211.366 43.64 211.396 43.38H211.351L210.586 46.065L209.836 48.39H208.861L208.111 46.065L207.376 43.38H207.316C207.346 43.64 207.376 43.97 207.406 44.37C207.436 44.76 207.466 45.165 207.496 45.585C207.526 46.005 207.551 46.415 207.571 46.815C207.591 47.205 207.601 47.535 207.601 47.805V51H205.846V41.22ZM215.125 41.22H218.185C218.695 41.22 219.165 41.26 219.595 41.34C220.035 41.41 220.415 41.54 220.735 41.73C221.055 41.92 221.305 42.17 221.485 42.48C221.675 42.79 221.77 43.18 221.77 43.65C221.77 43.87 221.735 44.09 221.665 44.31C221.605 44.53 221.505 44.735 221.365 44.925C221.225 45.115 221.05 45.285 220.84 45.435C220.63 45.585 220.38 45.695 220.09 45.765V45.825C220.79 45.955 221.32 46.205 221.68 46.575C222.04 46.945 222.22 47.46 222.22 48.12C222.22 48.62 222.125 49.05 221.935 49.41C221.745 49.77 221.48 50.07 221.14 50.31C220.8 50.54 220.4 50.715 219.94 50.835C219.49 50.945 219 51 218.47 51H215.125V41.22ZM218.08 45.165C218.62 45.165 219.01 45.06 219.25 44.85C219.49 44.63 219.61 44.335 219.61 43.965C219.61 43.595 219.485 43.33 219.235 43.17C218.995 43.01 218.615 42.93 218.095 42.93H217.33V45.165H218.08ZM218.29 49.29C219.47 49.29 220.06 48.845 220.06 47.955C220.06 47.525 219.915 47.215 219.625 47.025C219.345 46.825 218.9 46.725 218.29 46.725H217.33V49.29H218.29ZM226.159 42.9L226.084 40.725H228.634L228.559 42.9L228.034 46.455H226.684L226.159 42.9ZM280.124 42.9L280.049 40.725H282.599L282.524 42.9L281.999 46.455H280.649L280.124 42.9ZM293.873 49.215V51H287.048V49.215H289.508V43.71H287.543V42.345C288.103 42.245 288.578 42.125 288.968 41.985C289.368 41.845 289.743 41.675 290.093 41.475H291.713V49.215H293.873ZM299.313 51.18C298.763 51.18 298.263 51.075 297.813 50.865C297.363 50.645 296.978 50.325 296.658 49.905C296.338 49.485 296.088 48.965 295.908 48.345C295.738 47.725 295.653 47.01 295.653 46.2C295.653 45.39 295.738 44.68 295.908 44.07C296.088 43.46 296.338 42.95 296.658 42.54C296.978 42.12 297.363 41.81 297.813 41.61C298.263 41.4 298.763 41.295 299.313 41.295C299.863 41.295 300.363 41.4 300.813 41.61C301.263 41.81 301.648 42.12 301.968 42.54C302.288 42.95 302.533 43.46 302.703 44.07C302.883 44.68 302.973 45.39 302.973 46.2C302.973 47.01 302.883 47.725 302.703 48.345C302.533 48.965 302.288 49.485 301.968 49.905C301.648 50.325 301.263 50.645 300.813 50.865C300.363 51.075 299.863 51.18 299.313 51.18ZM299.313 43.005C299.073 43.005 298.848 43.055 298.638 43.155C298.438 43.255 298.263 43.43 298.113 43.68C297.963 43.92 297.843 44.245 297.753 44.655C297.663 45.065 297.618 45.58 297.618 46.2C297.618 46.82 297.663 47.34 297.753 47.76C297.843 48.17 297.963 48.505 298.113 48.765C298.263 49.015 298.438 49.195 298.638 49.305C298.848 49.415 299.073 49.47 299.313 49.47C299.553 49.47 299.773 49.415 299.973 49.305C300.183 49.195 300.363 49.015 300.513 48.765C300.663 48.505 300.783 48.17 300.873 47.76C300.963 47.34 301.008 46.82 301.008 46.2C301.008 45.58 300.963 45.065 300.873 44.655C300.783 44.245 300.663 43.92 300.513 43.68C300.363 43.43 300.183 43.255 299.973 43.155C299.773 43.055 299.553 43.005 299.313 43.005ZM299.313 47.31C298.993 47.31 298.723 47.21 298.503 47.01C298.293 46.8 298.188 46.52 298.188 46.17C298.188 45.82 298.293 45.545 298.503 45.345C298.723 45.135 298.993 45.03 299.313 45.03C299.633 45.03 299.898 45.135 300.108 45.345C300.328 45.545 300.438 45.82 300.438 46.17C300.438 46.52 300.328 46.8 300.108 47.01C299.898 47.21 299.633 47.31 299.313 47.31ZM313.851 45.27H320.751V46.83H313.851V45.27ZM332.469 48.45C332.789 48.71 333.129 48.935 333.489 49.125C333.859 49.305 334.269 49.395 334.719 49.395C335.259 49.395 335.699 49.27 336.039 49.02C336.389 48.77 336.564 48.4 336.564 47.91C336.564 47.43 336.399 47.065 336.069 46.815C335.749 46.565 335.334 46.44 334.824 46.44C334.664 46.44 334.519 46.45 334.389 46.47C334.269 46.48 334.149 46.505 334.029 46.545C333.909 46.585 333.784 46.635 333.654 46.695C333.524 46.755 333.379 46.83 333.219 46.92L332.244 46.29L332.499 41.475H338.334V43.335H334.404L334.239 45.12C334.459 45.04 334.664 44.985 334.854 44.955C335.044 44.915 335.259 44.895 335.499 44.895C335.939 44.895 336.354 44.955 336.744 45.075C337.144 45.195 337.494 45.375 337.794 45.615C338.094 45.855 338.329 46.16 338.499 46.53C338.679 46.9 338.769 47.34 338.769 47.85C338.769 48.38 338.664 48.85 338.454 49.26C338.254 49.67 337.979 50.02 337.629 50.31C337.289 50.59 336.894 50.805 336.444 50.955C335.994 51.105 335.524 51.18 335.034 51.18C334.204 51.18 333.499 51.055 332.919 50.805C332.349 50.545 331.869 50.225 331.479 49.845L332.469 48.45ZM344.283 51.18C343.733 51.18 343.233 51.075 342.783 50.865C342.333 50.645 341.948 50.325 341.628 49.905C341.308 49.485 341.058 48.965 340.878 48.345C340.708 47.725 340.623 47.01 340.623 46.2C340.623 45.39 340.708 44.68 340.878 44.07C341.058 43.46 341.308 42.95 341.628 42.54C341.948 42.12 342.333 41.81 342.783 41.61C343.233 41.4 343.733 41.295 344.283 41.295C344.833 41.295 345.333 41.4 345.783 41.61C346.233 41.81 346.618 42.12 346.938 42.54C347.258 42.95 347.503 43.46 347.673 44.07C347.853 44.68 347.943 45.39 347.943 46.2C347.943 47.01 347.853 47.725 347.673 48.345C347.503 48.965 347.258 49.485 346.938 49.905C346.618 50.325 346.233 50.645 345.783 50.865C345.333 51.075 344.833 51.18 344.283 51.18ZM344.283 43.005C344.043 43.005 343.818 43.055 343.608 43.155C343.408 43.255 343.233 43.43 343.083 43.68C342.933 43.92 342.813 44.245 342.723 44.655C342.633 45.065 342.588 45.58 342.588 46.2C342.588 46.82 342.633 47.34 342.723 47.76C342.813 48.17 342.933 48.505 343.083 48.765C343.233 49.015 343.408 49.195 343.608 49.305C343.818 49.415 344.043 49.47 344.283 49.47C344.523 49.47 344.743 49.415 344.943 49.305C345.153 49.195 345.333 49.015 345.483 48.765C345.633 48.505 345.753 48.17 345.843 47.76C345.933 47.34 345.978 46.82 345.978 46.2C345.978 45.58 345.933 45.065 345.843 44.655C345.753 44.245 345.633 43.92 345.483 43.68C345.333 43.43 345.153 43.255 344.943 43.155C344.743 43.055 344.523 43.005 344.283 43.005ZM344.283 47.31C343.963 47.31 343.693 47.21 343.473 47.01C343.263 46.8 343.158 46.52 343.158 46.17C343.158 45.82 343.263 45.545 343.473 45.345C343.693 45.135 343.963 45.03 344.283 45.03C344.603 45.03 344.868 45.135 345.078 45.345C345.298 45.545 345.408 45.82 345.408 46.17C345.408 46.52 345.298 46.8 345.078 47.01C344.868 47.21 344.603 47.31 344.283 47.31ZM358.746 41.22H360.951L361.941 44.685L362.271 46.035H362.316L362.646 44.685L363.591 41.22H365.796V51H364.011V47.805C364.011 47.535 364.021 47.205 364.041 46.815C364.061 46.415 364.086 46.005 364.116 45.585C364.146 45.165 364.176 44.76 364.206 44.37C364.236 43.97 364.266 43.64 364.296 43.38H364.251L363.486 46.065L362.736 48.39H361.761L361.011 46.065L360.276 43.38H360.216C360.246 43.64 360.276 43.97 360.306 44.37C360.336 44.76 360.366 45.165 360.396 45.585C360.426 46.005 360.451 46.415 360.471 46.815C360.491 47.205 360.501 47.535 360.501 47.805V51H358.746V41.22ZM368.026 41.22H371.086C371.596 41.22 372.066 41.26 372.496 41.34C372.936 41.41 373.316 41.54 373.636 41.73C373.956 41.92 374.206 42.17 374.386 42.48C374.576 42.79 374.671 43.18 374.671 43.65C374.671 43.87 374.636 44.09 374.566 44.31C374.506 44.53 374.406 44.735 374.266 44.925C374.126 45.115 373.951 45.285 373.741 45.435C373.531 45.585 373.281 45.695 372.991 45.765V45.825C373.691 45.955 374.221 46.205 374.581 46.575C374.941 46.945 375.121 47.46 375.121 48.12C375.121 48.62 375.026 49.05 374.836 49.41C374.646 49.77 374.381 50.07 374.041 50.31C373.701 50.54 373.301 50.715 372.841 50.835C372.391 50.945 371.901 51 371.371 51H368.026V41.22ZM370.981 45.165C371.521 45.165 371.911 45.06 372.151 44.85C372.391 44.63 372.511 44.335 372.511 43.965C372.511 43.595 372.386 43.33 372.136 43.17C371.896 43.01 371.516 42.93 370.996 42.93H370.231V45.165H370.981ZM371.191 49.29C372.371 49.29 372.961 48.845 372.961 47.955C372.961 47.525 372.816 47.215 372.526 47.025C372.246 46.825 371.801 46.725 371.191 46.725H370.231V49.29H371.191ZM379.06 42.9L378.985 40.725H381.535L381.46 42.9L380.935 46.455H379.585L379.06 42.9ZM433.025 42.9L432.95 40.725H435.5L435.425 42.9L434.9 46.455H433.55L433.025 42.9ZM440.399 48.45C440.719 48.71 441.059 48.935 441.419 49.125C441.789 49.305 442.199 49.395 442.649 49.395C443.189 49.395 443.629 49.27 443.969 49.02C444.319 48.77 444.494 48.4 444.494 47.91C444.494 47.43 444.329 47.065 443.999 46.815C443.679 46.565 443.264 46.44 442.754 46.44C442.594 46.44 442.449 46.45 442.319 46.47C442.199 46.48 442.079 46.505 441.959 46.545C441.839 46.585 441.714 46.635 441.584 46.695C441.454 46.755 441.309 46.83 441.149 46.92L440.174 46.29L440.429 41.475H446.264V43.335H442.334L442.169 45.12C442.389 45.04 442.594 44.985 442.784 44.955C442.974 44.915 443.189 44.895 443.429 44.895C443.869 44.895 444.284 44.955 444.674 45.075C445.074 45.195 445.424 45.375 445.724 45.615C446.024 45.855 446.259 46.16 446.429 46.53C446.609 46.9 446.699 47.34 446.699 47.85C446.699 48.38 446.594 48.85 446.384 49.26C446.184 49.67 445.909 50.02 445.559 50.31C445.219 50.59 444.824 50.805 444.374 50.955C443.924 51.105 443.454 51.18 442.964 51.18C442.134 51.18 441.429 51.055 440.849 50.805C440.279 50.545 439.799 50.225 439.409 49.845L440.399 48.45ZM452.213 51.18C451.663 51.18 451.163 51.075 450.713 50.865C450.263 50.645 449.878 50.325 449.558 49.905C449.238 49.485 448.988 48.965 448.808 48.345C448.638 47.725 448.553 47.01 448.553 46.2C448.553 45.39 448.638 44.68 448.808 44.07C448.988 43.46 449.238 42.95 449.558 42.54C449.878 42.12 450.263 41.81 450.713 41.61C451.163 41.4 451.663 41.295 452.213 41.295C452.763 41.295 453.263 41.4 453.713 41.61C454.163 41.81 454.548 42.12 454.868 42.54C455.188 42.95 455.433 43.46 455.603 44.07C455.783 44.68 455.873 45.39 455.873 46.2C455.873 47.01 455.783 47.725 455.603 48.345C455.433 48.965 455.188 49.485 454.868 49.905C454.548 50.325 454.163 50.645 453.713 50.865C453.263 51.075 452.763 51.18 452.213 51.18ZM452.213 43.005C451.973 43.005 451.748 43.055 451.538 43.155C451.338 43.255 451.163 43.43 451.013 43.68C450.863 43.92 450.743 44.245 450.653 44.655C450.563 45.065 450.518 45.58 450.518 46.2C450.518 46.82 450.563 47.34 450.653 47.76C450.743 48.17 450.863 48.505 451.013 48.765C451.163 49.015 451.338 49.195 451.538 49.305C451.748 49.415 451.973 49.47 452.213 49.47C452.453 49.47 452.673 49.415 452.873 49.305C453.083 49.195 453.263 49.015 453.413 48.765C453.563 48.505 453.683 48.17 453.773 47.76C453.863 47.34 453.908 46.82 453.908 46.2C453.908 45.58 453.863 45.065 453.773 44.655C453.683 44.245 453.563 43.92 453.413 43.68C453.263 43.43 453.083 43.255 452.873 43.155C452.673 43.055 452.453 43.005 452.213 43.005ZM452.213 47.31C451.893 47.31 451.623 47.21 451.403 47.01C451.193 46.8 451.088 46.52 451.088 46.17C451.088 45.82 451.193 45.545 451.403 45.345C451.623 45.135 451.893 45.03 452.213 45.03C452.533 45.03 452.798 45.135 453.008 45.345C453.228 45.545 453.338 45.82 453.338 46.17C453.338 46.52 453.228 46.8 453.008 47.01C452.798 47.21 452.533 47.31 452.213 47.31ZM466.751 45.27H473.651V46.83H466.751V45.27ZM491.744 49.215V51H484.919V49.215H487.379V43.71H485.414V42.345C485.974 42.245 486.449 42.125 486.839 41.985C487.239 41.845 487.614 41.675 487.964 41.475H489.584V49.215H491.744ZM497.184 51.18C496.634 51.18 496.134 51.075 495.684 50.865C495.234 50.645 494.849 50.325 494.529 49.905C494.209 49.485 493.959 48.965 493.779 48.345C493.609 47.725 493.524 47.01 493.524 46.2C493.524 45.39 493.609 44.68 493.779 44.07C493.959 43.46 494.209 42.95 494.529 42.54C494.849 42.12 495.234 41.81 495.684 41.61C496.134 41.4 496.634 41.295 497.184 41.295C497.734 41.295 498.234 41.4 498.684 41.61C499.134 41.81 499.519 42.12 499.839 42.54C500.159 42.95 500.404 43.46 500.574 44.07C500.754 44.68 500.844 45.39 500.844 46.2C500.844 47.01 500.754 47.725 500.574 48.345C500.404 48.965 500.159 49.485 499.839 49.905C499.519 50.325 499.134 50.645 498.684 50.865C498.234 51.075 497.734 51.18 497.184 51.18ZM497.184 43.005C496.944 43.005 496.719 43.055 496.509 43.155C496.309 43.255 496.134 43.43 495.984 43.68C495.834 43.92 495.714 44.245 495.624 44.655C495.534 45.065 495.489 45.58 495.489 46.2C495.489 46.82 495.534 47.34 495.624 47.76C495.714 48.17 495.834 48.505 495.984 48.765C496.134 49.015 496.309 49.195 496.509 49.305C496.719 49.415 496.944 49.47 497.184 49.47C497.424 49.47 497.644 49.415 497.844 49.305C498.054 49.195 498.234 49.015 498.384 48.765C498.534 48.505 498.654 48.17 498.744 47.76C498.834 47.34 498.879 46.82 498.879 46.2C498.879 45.58 498.834 45.065 498.744 44.655C498.654 44.245 498.534 43.92 498.384 43.68C498.234 43.43 498.054 43.255 497.844 43.155C497.644 43.055 497.424 43.005 497.184 43.005ZM497.184 47.31C496.864 47.31 496.594 47.21 496.374 47.01C496.164 46.8 496.059 46.52 496.059 46.17C496.059 45.82 496.164 45.545 496.374 45.345C496.594 45.135 496.864 45.03 497.184 45.03C497.504 45.03 497.769 45.135 497.979 45.345C498.199 45.545 498.309 45.82 498.309 46.17C498.309 46.52 498.199 46.8 497.979 47.01C497.769 47.21 497.504 47.31 497.184 47.31ZM506.178 51.18C505.628 51.18 505.128 51.075 504.678 50.865C504.228 50.645 503.843 50.325 503.523 49.905C503.203 49.485 502.953 48.965 502.773 48.345C502.603 47.725 502.518 47.01 502.518 46.2C502.518 45.39 502.603 44.68 502.773 44.07C502.953 43.46 503.203 42.95 503.523 42.54C503.843 42.12 504.228 41.81 504.678 41.61C505.128 41.4 505.628 41.295 506.178 41.295C506.728 41.295 507.228 41.4 507.678 41.61C508.128 41.81 508.513 42.12 508.833 42.54C509.153 42.95 509.398 43.46 509.568 44.07C509.748 44.68 509.838 45.39 509.838 46.2C509.838 47.01 509.748 47.725 509.568 48.345C509.398 48.965 509.153 49.485 508.833 49.905C508.513 50.325 508.128 50.645 507.678 50.865C507.228 51.075 506.728 51.18 506.178 51.18ZM506.178 43.005C505.938 43.005 505.713 43.055 505.503 43.155C505.303 43.255 505.128 43.43 504.978 43.68C504.828 43.92 504.708 44.245 504.618 44.655C504.528 45.065 504.483 45.58 504.483 46.2C504.483 46.82 504.528 47.34 504.618 47.76C504.708 48.17 504.828 48.505 504.978 48.765C505.128 49.015 505.303 49.195 505.503 49.305C505.713 49.415 505.938 49.47 506.178 49.47C506.418 49.47 506.638 49.415 506.838 49.305C507.048 49.195 507.228 49.015 507.378 48.765C507.528 48.505 507.648 48.17 507.738 47.76C507.828 47.34 507.873 46.82 507.873 46.2C507.873 45.58 507.828 45.065 507.738 44.655C507.648 44.245 507.528 43.92 507.378 43.68C507.228 43.43 507.048 43.255 506.838 43.155C506.638 43.055 506.418 43.005 506.178 43.005ZM506.178 47.31C505.858 47.31 505.588 47.21 505.368 47.01C505.158 46.8 505.053 46.52 505.053 46.17C505.053 45.82 505.158 45.545 505.368 45.345C505.588 45.135 505.858 45.03 506.178 45.03C506.498 45.03 506.763 45.135 506.973 45.345C507.193 45.545 507.303 45.82 507.303 46.17C507.303 46.52 507.193 46.8 506.973 47.01C506.763 47.21 506.498 47.31 506.178 47.31ZM520.641 41.22H522.846L523.836 44.685L524.166 46.035H524.211L524.541 44.685L525.486 41.22H527.691V51H525.906V47.805C525.906 47.535 525.916 47.205 525.936 46.815C525.956 46.415 525.981 46.005 526.011 45.585C526.041 45.165 526.071 44.76 526.101 44.37C526.131 43.97 526.161 43.64 526.191 43.38H526.146L525.381 46.065L524.631 48.39H523.656L522.906 46.065L522.171 43.38H522.111C522.141 43.64 522.171 43.97 522.201 44.37C522.231 44.76 522.261 45.165 522.291 45.585C522.321 46.005 522.346 46.415 522.366 46.815C522.386 47.205 522.396 47.535 522.396 47.805V51H520.641V41.22ZM529.92 41.22H532.98C533.49 41.22 533.96 41.26 534.39 41.34C534.83 41.41 535.21 41.54 535.53 41.73C535.85 41.92 536.1 42.17 536.28 42.48C536.47 42.79 536.565 43.18 536.565 43.65C536.565 43.87 536.53 44.09 536.46 44.31C536.4 44.53 536.3 44.735 536.16 44.925C536.02 45.115 535.845 45.285 535.635 45.435C535.425 45.585 535.175 45.695 534.885 45.765V45.825C535.585 45.955 536.115 46.205 536.475 46.575C536.835 46.945 537.015 47.46 537.015 48.12C537.015 48.62 536.92 49.05 536.73 49.41C536.54 49.77 536.275 50.07 535.935 50.31C535.595 50.54 535.195 50.715 534.735 50.835C534.285 50.945 533.795 51 533.265 51H529.92V41.22ZM532.875 45.165C533.415 45.165 533.805 45.06 534.045 44.85C534.285 44.63 534.405 44.335 534.405 43.965C534.405 43.595 534.28 43.33 534.03 43.17C533.79 43.01 533.41 42.93 532.89 42.93H532.125V45.165H532.875ZM533.085 49.29C534.265 49.29 534.855 48.845 534.855 47.955C534.855 47.525 534.71 47.215 534.42 47.025C534.14 46.825 533.695 46.725 533.085 46.725H532.125V49.29H533.085ZM540.954 42.9L540.879 40.725H543.429L543.354 42.9L542.829 46.455H541.479L540.954 42.9ZM127.224 61.9L127.149 59.725H129.699L129.624 61.9L129.099 65.455H127.749L127.224 61.9ZM140.973 68.215V70H134.148V68.215H136.608V62.71H134.643V61.345C135.203 61.245 135.678 61.125 136.068 60.985C136.468 60.845 136.843 60.675 137.193 60.475H138.813V68.215H140.973ZM146.412 70.18C145.862 70.18 145.362 70.075 144.912 69.865C144.462 69.645 144.077 69.325 143.757 68.905C143.437 68.485 143.187 67.965 143.007 67.345C142.837 66.725 142.752 66.01 142.752 65.2C142.752 64.39 142.837 63.68 143.007 63.07C143.187 62.46 143.437 61.95 143.757 61.54C144.077 61.12 144.462 60.81 144.912 60.61C145.362 60.4 145.862 60.295 146.412 60.295C146.962 60.295 147.462 60.4 147.912 60.61C148.362 60.81 148.747 61.12 149.067 61.54C149.387 61.95 149.632 62.46 149.802 63.07C149.982 63.68 150.072 64.39 150.072 65.2C150.072 66.01 149.982 66.725 149.802 67.345C149.632 67.965 149.387 68.485 149.067 68.905C148.747 69.325 148.362 69.645 147.912 69.865C147.462 70.075 146.962 70.18 146.412 70.18ZM146.412 62.005C146.172 62.005 145.947 62.055 145.737 62.155C145.537 62.255 145.362 62.43 145.212 62.68C145.062 62.92 144.942 63.245 144.852 63.655C144.762 64.065 144.717 64.58 144.717 65.2C144.717 65.82 144.762 66.34 144.852 66.76C144.942 67.17 145.062 67.505 145.212 67.765C145.362 68.015 145.537 68.195 145.737 68.305C145.947 68.415 146.172 68.47 146.412 68.47C146.652 68.47 146.872 68.415 147.072 68.305C147.282 68.195 147.462 68.015 147.612 67.765C147.762 67.505 147.882 67.17 147.972 66.76C148.062 66.34 148.107 65.82 148.107 65.2C148.107 64.58 148.062 64.065 147.972 63.655C147.882 63.245 147.762 62.92 147.612 62.68C147.462 62.43 147.282 62.255 147.072 62.155C146.872 62.055 146.652 62.005 146.412 62.005ZM146.412 66.31C146.092 66.31 145.822 66.21 145.602 66.01C145.392 65.8 145.287 65.52 145.287 65.17C145.287 64.82 145.392 64.545 145.602 64.345C145.822 64.135 146.092 64.03 146.412 64.03C146.732 64.03 146.997 64.135 147.207 64.345C147.427 64.545 147.537 64.82 147.537 65.17C147.537 65.52 147.427 65.8 147.207 66.01C146.997 66.21 146.732 66.31 146.412 66.31ZM155.406 70.18C154.856 70.18 154.356 70.075 153.906 69.865C153.456 69.645 153.071 69.325 152.751 68.905C152.431 68.485 152.181 67.965 152.001 67.345C151.831 66.725 151.746 66.01 151.746 65.2C151.746 64.39 151.831 63.68 152.001 63.07C152.181 62.46 152.431 61.95 152.751 61.54C153.071 61.12 153.456 60.81 153.906 60.61C154.356 60.4 154.856 60.295 155.406 60.295C155.956 60.295 156.456 60.4 156.906 60.61C157.356 60.81 157.741 61.12 158.061 61.54C158.381 61.95 158.626 62.46 158.796 63.07C158.976 63.68 159.066 64.39 159.066 65.2C159.066 66.01 158.976 66.725 158.796 67.345C158.626 67.965 158.381 68.485 158.061 68.905C157.741 69.325 157.356 69.645 156.906 69.865C156.456 70.075 155.956 70.18 155.406 70.18ZM155.406 62.005C155.166 62.005 154.941 62.055 154.731 62.155C154.531 62.255 154.356 62.43 154.206 62.68C154.056 62.92 153.936 63.245 153.846 63.655C153.756 64.065 153.711 64.58 153.711 65.2C153.711 65.82 153.756 66.34 153.846 66.76C153.936 67.17 154.056 67.505 154.206 67.765C154.356 68.015 154.531 68.195 154.731 68.305C154.941 68.415 155.166 68.47 155.406 68.47C155.646 68.47 155.866 68.415 156.066 68.305C156.276 68.195 156.456 68.015 156.606 67.765C156.756 67.505 156.876 67.17 156.966 66.76C157.056 66.34 157.101 65.82 157.101 65.2C157.101 64.58 157.056 64.065 156.966 63.655C156.876 63.245 156.756 62.92 156.606 62.68C156.456 62.43 156.276 62.255 156.066 62.155C155.866 62.055 155.646 62.005 155.406 62.005ZM155.406 66.31C155.086 66.31 154.816 66.21 154.596 66.01C154.386 65.8 154.281 65.52 154.281 65.17C154.281 64.82 154.386 64.545 154.596 64.345C154.816 64.135 155.086 64.03 155.406 64.03C155.726 64.03 155.991 64.135 156.201 64.345C156.421 64.545 156.531 64.82 156.531 65.17C156.531 65.52 156.421 65.8 156.201 66.01C155.991 66.21 155.726 66.31 155.406 66.31ZM169.945 64.27H176.845V65.83H169.945V64.27ZM188.563 67.45C188.883 67.71 189.223 67.935 189.583 68.125C189.953 68.305 190.363 68.395 190.813 68.395C191.353 68.395 191.793 68.27 192.133 68.02C192.483 67.77 192.658 67.4 192.658 66.91C192.658 66.43 192.493 66.065 192.163 65.815C191.843 65.565 191.428 65.44 190.918 65.44C190.758 65.44 190.613 65.45 190.483 65.47C190.363 65.48 190.243 65.505 190.123 65.545C190.003 65.585 189.878 65.635 189.748 65.695C189.618 65.755 189.473 65.83 189.313 65.92L188.338 65.29L188.593 60.475H194.428V62.335H190.498L190.333 64.12C190.553 64.04 190.758 63.985 190.948 63.955C191.138 63.915 191.353 63.895 191.593 63.895C192.033 63.895 192.448 63.955 192.838 64.075C193.238 64.195 193.588 64.375 193.888 64.615C194.188 64.855 194.423 65.16 194.593 65.53C194.773 65.9 194.863 66.34 194.863 66.85C194.863 67.38 194.758 67.85 194.548 68.26C194.348 68.67 194.073 69.02 193.723 69.31C193.383 69.59 192.988 69.805 192.538 69.955C192.088 70.105 191.618 70.18 191.128 70.18C190.298 70.18 189.593 70.055 189.013 69.805C188.443 69.545 187.963 69.225 187.573 68.845L188.563 67.45ZM200.377 70.18C199.827 70.18 199.327 70.075 198.877 69.865C198.427 69.645 198.042 69.325 197.722 68.905C197.402 68.485 197.152 67.965 196.972 67.345C196.802 66.725 196.717 66.01 196.717 65.2C196.717 64.39 196.802 63.68 196.972 63.07C197.152 62.46 197.402 61.95 197.722 61.54C198.042 61.12 198.427 60.81 198.877 60.61C199.327 60.4 199.827 60.295 200.377 60.295C200.927 60.295 201.427 60.4 201.877 60.61C202.327 60.81 202.712 61.12 203.032 61.54C203.352 61.95 203.597 62.46 203.767 63.07C203.947 63.68 204.037 64.39 204.037 65.2C204.037 66.01 203.947 66.725 203.767 67.345C203.597 67.965 203.352 68.485 203.032 68.905C202.712 69.325 202.327 69.645 201.877 69.865C201.427 70.075 200.927 70.18 200.377 70.18ZM200.377 62.005C200.137 62.005 199.912 62.055 199.702 62.155C199.502 62.255 199.327 62.43 199.177 62.68C199.027 62.92 198.907 63.245 198.817 63.655C198.727 64.065 198.682 64.58 198.682 65.2C198.682 65.82 198.727 66.34 198.817 66.76C198.907 67.17 199.027 67.505 199.177 67.765C199.327 68.015 199.502 68.195 199.702 68.305C199.912 68.415 200.137 68.47 200.377 68.47C200.617 68.47 200.837 68.415 201.037 68.305C201.247 68.195 201.427 68.015 201.577 67.765C201.727 67.505 201.847 67.17 201.937 66.76C202.027 66.34 202.072 65.82 202.072 65.2C202.072 64.58 202.027 64.065 201.937 63.655C201.847 63.245 201.727 62.92 201.577 62.68C201.427 62.43 201.247 62.255 201.037 62.155C200.837 62.055 200.617 62.005 200.377 62.005ZM200.377 66.31C200.057 66.31 199.787 66.21 199.567 66.01C199.357 65.8 199.252 65.52 199.252 65.17C199.252 64.82 199.357 64.545 199.567 64.345C199.787 64.135 200.057 64.03 200.377 64.03C200.697 64.03 200.962 64.135 201.172 64.345C201.392 64.545 201.502 64.82 201.502 65.17C201.502 65.52 201.392 65.8 201.172 66.01C200.962 66.21 200.697 66.31 200.377 66.31ZM209.371 70.18C208.821 70.18 208.321 70.075 207.871 69.865C207.421 69.645 207.036 69.325 206.716 68.905C206.396 68.485 206.146 67.965 205.966 67.345C205.796 66.725 205.711 66.01 205.711 65.2C205.711 64.39 205.796 63.68 205.966 63.07C206.146 62.46 206.396 61.95 206.716 61.54C207.036 61.12 207.421 60.81 207.871 60.61C208.321 60.4 208.821 60.295 209.371 60.295C209.921 60.295 210.421 60.4 210.871 60.61C211.321 60.81 211.706 61.12 212.026 61.54C212.346 61.95 212.591 62.46 212.761 63.07C212.941 63.68 213.031 64.39 213.031 65.2C213.031 66.01 212.941 66.725 212.761 67.345C212.591 67.965 212.346 68.485 212.026 68.905C211.706 69.325 211.321 69.645 210.871 69.865C210.421 70.075 209.921 70.18 209.371 70.18ZM209.371 62.005C209.131 62.005 208.906 62.055 208.696 62.155C208.496 62.255 208.321 62.43 208.171 62.68C208.021 62.92 207.901 63.245 207.811 63.655C207.721 64.065 207.676 64.58 207.676 65.2C207.676 65.82 207.721 66.34 207.811 66.76C207.901 67.17 208.021 67.505 208.171 67.765C208.321 68.015 208.496 68.195 208.696 68.305C208.906 68.415 209.131 68.47 209.371 68.47C209.611 68.47 209.831 68.415 210.031 68.305C210.241 68.195 210.421 68.015 210.571 67.765C210.721 67.505 210.841 67.17 210.931 66.76C211.021 66.34 211.066 65.82 211.066 65.2C211.066 64.58 211.021 64.065 210.931 63.655C210.841 63.245 210.721 62.92 210.571 62.68C210.421 62.43 210.241 62.255 210.031 62.155C209.831 62.055 209.611 62.005 209.371 62.005ZM209.371 66.31C209.051 66.31 208.781 66.21 208.561 66.01C208.351 65.8 208.246 65.52 208.246 65.17C208.246 64.82 208.351 64.545 208.561 64.345C208.781 64.135 209.051 64.03 209.371 64.03C209.691 64.03 209.956 64.135 210.166 64.345C210.386 64.545 210.496 64.82 210.496 65.17C210.496 65.52 210.386 65.8 210.166 66.01C209.956 66.21 209.691 66.31 209.371 66.31ZM223.834 60.22H226.039L227.029 63.685L227.359 65.035H227.404L227.734 63.685L228.679 60.22H230.884V70H229.099V66.805C229.099 66.535 229.109 66.205 229.129 65.815C229.149 65.415 229.174 65.005 229.204 64.585C229.234 64.165 229.264 63.76 229.294 63.37C229.324 62.97 229.354 62.64 229.384 62.38H229.339L228.574 65.065L227.824 67.39H226.849L226.099 65.065L225.364 62.38H225.304C225.334 62.64 225.364 62.97 225.394 63.37C225.424 63.76 225.454 64.165 225.484 64.585C225.514 65.005 225.539 65.415 225.559 65.815C225.579 66.205 225.589 66.535 225.589 66.805V70H223.834V60.22ZM233.114 60.22H236.174C236.684 60.22 237.154 60.26 237.584 60.34C238.024 60.41 238.404 60.54 238.724 60.73C239.044 60.92 239.294 61.17 239.474 61.48C239.664 61.79 239.759 62.18 239.759 62.65C239.759 62.87 239.724 63.09 239.654 63.31C239.594 63.53 239.494 63.735 239.354 63.925C239.214 64.115 239.039 64.285 238.829 64.435C238.619 64.585 238.369 64.695 238.079 64.765V64.825C238.779 64.955 239.309 65.205 239.669 65.575C240.029 65.945 240.209 66.46 240.209 67.12C240.209 67.62 240.114 68.05 239.924 68.41C239.734 68.77 239.469 69.07 239.129 69.31C238.789 69.54 238.389 69.715 237.929 69.835C237.479 69.945 236.989 70 236.459 70H233.114V60.22ZM236.069 64.165C236.609 64.165 236.999 64.06 237.239 63.85C237.479 63.63 237.599 63.335 237.599 62.965C237.599 62.595 237.474 62.33 237.224 62.17C236.984 62.01 236.604 61.93 236.084 61.93H235.319V64.165H236.069ZM236.279 68.29C237.459 68.29 238.049 67.845 238.049 66.955C238.049 66.525 237.904 66.215 237.614 66.025C237.334 65.825 236.889 65.725 236.279 65.725H235.319V68.29H236.279ZM244.148 61.9L244.073 59.725H246.623L246.548 61.9L246.023 65.455H244.673L244.148 61.9ZM298.113 61.9L298.038 59.725H300.588L300.513 61.9L299.988 65.455H298.638L298.113 61.9ZM305.487 67.45C305.807 67.71 306.147 67.935 306.507 68.125C306.877 68.305 307.287 68.395 307.737 68.395C308.277 68.395 308.717 68.27 309.057 68.02C309.407 67.77 309.582 67.4 309.582 66.91C309.582 66.43 309.417 66.065 309.087 65.815C308.767 65.565 308.352 65.44 307.842 65.44C307.682 65.44 307.537 65.45 307.407 65.47C307.287 65.48 307.167 65.505 307.047 65.545C306.927 65.585 306.802 65.635 306.672 65.695C306.542 65.755 306.397 65.83 306.237 65.92L305.262 65.29L305.517 60.475H311.352V62.335H307.422L307.257 64.12C307.477 64.04 307.682 63.985 307.872 63.955C308.062 63.915 308.277 63.895 308.517 63.895C308.957 63.895 309.372 63.955 309.762 64.075C310.162 64.195 310.512 64.375 310.812 64.615C311.112 64.855 311.347 65.16 311.517 65.53C311.697 65.9 311.787 66.34 311.787 66.85C311.787 67.38 311.682 67.85 311.472 68.26C311.272 68.67 310.997 69.02 310.647 69.31C310.307 69.59 309.912 69.805 309.462 69.955C309.012 70.105 308.542 70.18 308.052 70.18C307.222 70.18 306.517 70.055 305.937 69.805C305.367 69.545 304.887 69.225 304.497 68.845L305.487 67.45ZM317.301 70.18C316.751 70.18 316.251 70.075 315.801 69.865C315.351 69.645 314.966 69.325 314.646 68.905C314.326 68.485 314.076 67.965 313.896 67.345C313.726 66.725 313.641 66.01 313.641 65.2C313.641 64.39 313.726 63.68 313.896 63.07C314.076 62.46 314.326 61.95 314.646 61.54C314.966 61.12 315.351 60.81 315.801 60.61C316.251 60.4 316.751 60.295 317.301 60.295C317.851 60.295 318.351 60.4 318.801 60.61C319.251 60.81 319.636 61.12 319.956 61.54C320.276 61.95 320.521 62.46 320.691 63.07C320.871 63.68 320.961 64.39 320.961 65.2C320.961 66.01 320.871 66.725 320.691 67.345C320.521 67.965 320.276 68.485 319.956 68.905C319.636 69.325 319.251 69.645 318.801 69.865C318.351 70.075 317.851 70.18 317.301 70.18ZM317.301 62.005C317.061 62.005 316.836 62.055 316.626 62.155C316.426 62.255 316.251 62.43 316.101 62.68C315.951 62.92 315.831 63.245 315.741 63.655C315.651 64.065 315.606 64.58 315.606 65.2C315.606 65.82 315.651 66.34 315.741 66.76C315.831 67.17 315.951 67.505 316.101 67.765C316.251 68.015 316.426 68.195 316.626 68.305C316.836 68.415 317.061 68.47 317.301 68.47C317.541 68.47 317.761 68.415 317.961 68.305C318.171 68.195 318.351 68.015 318.501 67.765C318.651 67.505 318.771 67.17 318.861 66.76C318.951 66.34 318.996 65.82 318.996 65.2C318.996 64.58 318.951 64.065 318.861 63.655C318.771 63.245 318.651 62.92 318.501 62.68C318.351 62.43 318.171 62.255 317.961 62.155C317.761 62.055 317.541 62.005 317.301 62.005ZM317.301 66.31C316.981 66.31 316.711 66.21 316.491 66.01C316.281 65.8 316.176 65.52 316.176 65.17C316.176 64.82 316.281 64.545 316.491 64.345C316.711 64.135 316.981 64.03 317.301 64.03C317.621 64.03 317.886 64.135 318.096 64.345C318.316 64.545 318.426 64.82 318.426 65.17C318.426 65.52 318.316 65.8 318.096 66.01C317.886 66.21 317.621 66.31 317.301 66.31ZM326.295 70.18C325.745 70.18 325.245 70.075 324.795 69.865C324.345 69.645 323.96 69.325 323.64 68.905C323.32 68.485 323.07 67.965 322.89 67.345C322.72 66.725 322.635 66.01 322.635 65.2C322.635 64.39 322.72 63.68 322.89 63.07C323.07 62.46 323.32 61.95 323.64 61.54C323.96 61.12 324.345 60.81 324.795 60.61C325.245 60.4 325.745 60.295 326.295 60.295C326.845 60.295 327.345 60.4 327.795 60.61C328.245 60.81 328.63 61.12 328.95 61.54C329.27 61.95 329.515 62.46 329.685 63.07C329.865 63.68 329.955 64.39 329.955 65.2C329.955 66.01 329.865 66.725 329.685 67.345C329.515 67.965 329.27 68.485 328.95 68.905C328.63 69.325 328.245 69.645 327.795 69.865C327.345 70.075 326.845 70.18 326.295 70.18ZM326.295 62.005C326.055 62.005 325.83 62.055 325.62 62.155C325.42 62.255 325.245 62.43 325.095 62.68C324.945 62.92 324.825 63.245 324.735 63.655C324.645 64.065 324.6 64.58 324.6 65.2C324.6 65.82 324.645 66.34 324.735 66.76C324.825 67.17 324.945 67.505 325.095 67.765C325.245 68.015 325.42 68.195 325.62 68.305C325.83 68.415 326.055 68.47 326.295 68.47C326.535 68.47 326.755 68.415 326.955 68.305C327.165 68.195 327.345 68.015 327.495 67.765C327.645 67.505 327.765 67.17 327.855 66.76C327.945 66.34 327.99 65.82 327.99 65.2C327.99 64.58 327.945 64.065 327.855 63.655C327.765 63.245 327.645 62.92 327.495 62.68C327.345 62.43 327.165 62.255 326.955 62.155C326.755 62.055 326.535 62.005 326.295 62.005ZM326.295 66.31C325.975 66.31 325.705 66.21 325.485 66.01C325.275 65.8 325.17 65.52 325.17 65.17C325.17 64.82 325.275 64.545 325.485 64.345C325.705 64.135 325.975 64.03 326.295 64.03C326.615 64.03 326.88 64.135 327.09 64.345C327.31 64.545 327.42 64.82 327.42 65.17C327.42 65.52 327.31 65.8 327.09 66.01C326.88 66.21 326.615 66.31 326.295 66.31ZM340.758 60.22H342.963L343.953 63.685L344.283 65.035H344.328L344.658 63.685L345.603 60.22H347.808V70H346.023V66.805C346.023 66.535 346.033 66.205 346.053 65.815C346.073 65.415 346.098 65.005 346.128 64.585C346.158 64.165 346.188 63.76 346.218 63.37C346.248 62.97 346.278 62.64 346.308 62.38H346.263L345.498 65.065L344.748 67.39H343.773L343.023 65.065L342.288 62.38H342.228C342.258 62.64 342.288 62.97 342.318 63.37C342.348 63.76 342.378 64.165 342.408 64.585C342.438 65.005 342.463 65.415 342.483 65.815C342.503 66.205 342.513 66.535 342.513 66.805V70H340.758V60.22ZM350.037 60.22H353.097C353.607 60.22 354.077 60.26 354.507 60.34C354.947 60.41 355.327 60.54 355.647 60.73C355.967 60.92 356.217 61.17 356.397 61.48C356.587 61.79 356.682 62.18 356.682 62.65C356.682 62.87 356.647 63.09 356.577 63.31C356.517 63.53 356.417 63.735 356.277 63.925C356.137 64.115 355.962 64.285 355.752 64.435C355.542 64.585 355.292 64.695 355.002 64.765V64.825C355.702 64.955 356.232 65.205 356.592 65.575C356.952 65.945 357.132 66.46 357.132 67.12C357.132 67.62 357.037 68.05 356.847 68.41C356.657 68.77 356.392 69.07 356.052 69.31C355.712 69.54 355.312 69.715 354.852 69.835C354.402 69.945 353.912 70 353.382 70H350.037V60.22ZM352.992 64.165C353.532 64.165 353.922 64.06 354.162 63.85C354.402 63.63 354.522 63.335 354.522 62.965C354.522 62.595 354.397 62.33 354.147 62.17C353.907 62.01 353.527 61.93 353.007 61.93H352.242V64.165H352.992ZM353.202 68.29C354.382 68.29 354.972 67.845 354.972 66.955C354.972 66.525 354.827 66.215 354.537 66.025C354.257 65.825 353.812 65.725 353.202 65.725H352.242V68.29H353.202ZM370.456 65.83H367.816V64.27H370.456V61.51H372.076V64.27H374.716V65.83H372.076V68.59H370.456V65.83ZM379.06 61.9L378.985 59.725H381.535L381.46 61.9L380.935 65.455H379.585L379.06 61.9Z" fill="#009E73"/>
<path d="M254.342 51.18C253.792 51.18 253.292 51.075 252.842 50.865C252.392 50.645 252.007 50.325 251.687 49.905C251.367 49.485 251.117 48.965 250.937 48.345C250.767 47.725 250.682 47.01 250.682 46.2C250.682 45.39 250.767 44.68 250.937 44.07C251.117 43.46 251.367 42.95 251.687 42.54C252.007 42.12 252.392 41.81 252.842 41.61C253.292 41.4 253.792 41.295 254.342 41.295C254.892 41.295 255.392 41.4 255.842 41.61C256.292 41.81 256.677 42.12 256.997 42.54C257.317 42.95 257.562 43.46 257.732 44.07C257.912 44.68 258.002 45.39 258.002 46.2C258.002 47.01 257.912 47.725 257.732 48.345C257.562 48.965 257.317 49.485 256.997 49.905C256.677 50.325 256.292 50.645 255.842 50.865C255.392 51.075 254.892 51.18 254.342 51.18ZM254.342 43.005C254.102 43.005 253.877 43.055 253.667 43.155C253.467 43.255 253.292 43.43 253.142 43.68C252.992 43.92 252.872 44.245 252.782 44.655C252.692 45.065 252.647 45.58 252.647 46.2C252.647 46.82 252.692 47.34 252.782 47.76C252.872 48.17 252.992 48.505 253.142 48.765C253.292 49.015 253.467 49.195 253.667 49.305C253.877 49.415 254.102 49.47 254.342 49.47C254.582 49.47 254.802 49.415 255.002 49.305C255.212 49.195 255.392 49.015 255.542 48.765C255.692 48.505 255.812 48.17 255.902 47.76C255.992 47.34 256.037 46.82 256.037 46.2C256.037 45.58 255.992 45.065 255.902 44.655C255.812 44.245 255.692 43.92 255.542 43.68C255.392 43.43 255.212 43.255 255.002 43.155C254.802 43.055 254.582 43.005 254.342 43.005ZM254.342 47.31C254.022 47.31 253.752 47.21 253.532 47.01C253.322 46.8 253.217 46.52 253.217 46.17C253.217 45.82 253.322 45.545 253.532 45.345C253.752 45.135 254.022 45.03 254.342 45.03C254.662 45.03 254.927 45.135 255.137 45.345C255.357 45.545 255.467 45.82 255.467 46.17C255.467 46.52 255.357 46.8 255.137 47.01C254.927 47.21 254.662 47.31 254.342 47.31ZM407.242 51.18C406.692 51.18 406.192 51.075 405.742 50.865C405.292 50.645 404.907 50.325 404.587 49.905C404.267 49.485 404.017 48.965 403.837 48.345C403.667 47.725 403.582 47.01 403.582 46.2C403.582 45.39 403.667 44.68 403.837 44.07C404.017 43.46 404.267 42.95 404.587 42.54C404.907 42.12 405.292 41.81 405.742 41.61C406.192 41.4 406.692 41.295 407.242 41.295C407.792 41.295 408.292 41.4 408.742 41.61C409.192 41.81 409.577 42.12 409.897 42.54C410.217 42.95 410.462 43.46 410.632 44.07C410.812 44.68 410.902 45.39 410.902 46.2C410.902 47.01 410.812 47.725 410.632 48.345C410.462 48.965 410.217 49.485 409.897 49.905C409.577 50.325 409.192 50.645 408.742 50.865C408.292 51.075 407.792 51.18 407.242 51.18ZM407.242 43.005C407.002 43.005 406.777 43.055 406.567 43.155C406.367 43.255 406.192 43.43 406.042 43.68C405.892 43.92 405.772 44.245 405.682 44.655C405.592 45.065 405.547 45.58 405.547 46.2C405.547 46.82 405.592 47.34 405.682 47.76C405.772 48.17 405.892 48.505 406.042 48.765C406.192 49.015 406.367 49.195 406.567 49.305C406.777 49.415 407.002 49.47 407.242 49.47C407.482 49.47 407.702 49.415 407.902 49.305C408.112 49.195 408.292 49.015 408.442 48.765C408.592 48.505 408.712 48.17 408.802 47.76C408.892 47.34 408.937 46.82 408.937 46.2C408.937 45.58 408.892 45.065 408.802 44.655C408.712 44.245 408.592 43.92 408.442 43.68C408.292 43.43 408.112 43.255 407.902 43.155C407.702 43.055 407.482 43.005 407.242 43.005ZM407.242 47.31C406.922 47.31 406.652 47.21 406.432 47.01C406.222 46.8 406.117 46.52 406.117 46.17C406.117 45.82 406.222 45.545 406.432 45.345C406.652 45.135 406.922 45.03 407.242 45.03C407.562 45.03 407.827 45.135 408.037 45.345C408.257 45.545 408.367 45.82 408.367 46.17C408.367 46.52 408.257 46.8 408.037 47.01C407.827 47.21 407.562 47.31 407.242 47.31ZM569.137 51.18C568.587 51.18 568.087 51.075 567.637 50.865C567.187 50.645 566.802 50.325 566.482 49.905C566.162 49.485 565.912 48.965 565.732 48.345C565.562 47.725 565.477 47.01 565.477 46.2C565.477 45.39 565.562 44.68 565.732 44.07C565.912 43.46 566.162 42.95 566.482 42.54C566.802 42.12 567.187 41.81 567.637 41.61C568.087 41.4 568.587 41.295 569.137 41.295C569.687 41.295 570.187 41.4 570.637 41.61C571.087 41.81 571.472 42.12 571.792 42.54C572.112 42.95 572.357 43.46 572.527 44.07C572.707 44.68 572.797 45.39 572.797 46.2C572.797 47.01 572.707 47.725 572.527 48.345C572.357 48.965 572.112 49.485 571.792 49.905C571.472 50.325 571.087 50.645 570.637 50.865C570.187 51.075 569.687 51.18 569.137 51.18ZM569.137 43.005C568.897 43.005 568.672 43.055 568.462 43.155C568.262 43.255 568.087 43.43 567.937 43.68C567.787 43.92 567.667 44.245 567.577 44.655C567.487 45.065 567.442 45.58 567.442 46.2C567.442 46.82 567.487 47.34 567.577 47.76C567.667 48.17 567.787 48.505 567.937 48.765C568.087 49.015 568.262 49.195 568.462 49.305C568.672 49.415 568.897 49.47 569.137 49.47C569.377 49.47 569.597 49.415 569.797 49.305C570.007 49.195 570.187 49.015 570.337 48.765C570.487 48.505 570.607 48.17 570.697 47.76C570.787 47.34 570.832 46.82 570.832 46.2C570.832 45.58 570.787 45.065 570.697 44.655C570.607 44.245 570.487 43.92 570.337 43.68C570.187 43.43 570.007 43.255 569.797 43.155C569.597 43.055 569.377 43.005 569.137 43.005ZM569.137 47.31C568.817 47.31 568.547 47.21 568.327 47.01C568.117 46.8 568.012 46.52 568.012 46.17C568.012 45.82 568.117 45.545 568.327 45.345C568.547 45.135 568.817 45.03 569.137 45.03C569.457 45.03 569.722 45.135 569.932 45.345C570.152 45.545 570.262 45.82 570.262 46.17C570.262 46.52 570.152 46.8 569.932 47.01C569.722 47.21 569.457 47.31 569.137 47.31ZM272.33 70.18C271.78 70.18 271.28 70.075 270.83 69.865C270.38 69.645 269.995 69.325 269.675 68.905C269.355 68.485 269.105 67.965 268.925 67.345C268.755 66.725 268.67 66.01 268.67 65.2C268.67 64.39 268.755 63.68 268.925 63.07C269.105 62.46 269.355 61.95 269.675 61.54C269.995 61.12 270.38 60.81 270.83 60.61C271.28 60.4 271.78 60.295 272.33 60.295C272.88 60.295 273.38 60.4 273.83 60.61C274.28 60.81 274.665 61.12 274.985 61.54C275.305 61.95 275.55 62.46 275.72 63.07C275.9 63.68 275.99 64.39 275.99 65.2C275.99 66.01 275.9 66.725 275.72 67.345C275.55 67.965 275.305 68.485 274.985 68.905C274.665 69.325 274.28 69.645 273.83 69.865C273.38 70.075 272.88 70.18 272.33 70.18ZM272.33 62.005C272.09 62.005 271.865 62.055 271.655 62.155C271.455 62.255 271.28 62.43 271.13 62.68C270.98 62.92 270.86 63.245 270.77 63.655C270.68 64.065 270.635 64.58 270.635 65.2C270.635 65.82 270.68 66.34 270.77 66.76C270.86 67.17 270.98 67.505 271.13 67.765C271.28 68.015 271.455 68.195 271.655 68.305C271.865 68.415 272.09 68.47 272.33 68.47C272.57 68.47 272.79 68.415 272.99 68.305C273.2 68.195 273.38 68.015 273.53 67.765C273.68 67.505 273.8 67.17 273.89 66.76C273.98 66.34 274.025 65.82 274.025 65.2C274.025 64.58 273.98 64.065 273.89 63.655C273.8 63.245 273.68 62.92 273.53 62.68C273.38 62.43 273.2 62.255 272.99 62.155C272.79 62.055 272.57 62.005 272.33 62.005ZM272.33 66.31C272.01 66.31 271.74 66.21 271.52 66.01C271.31 65.8 271.205 65.52 271.205 65.17C271.205 64.82 271.31 64.545 271.52 64.345C271.74 64.135 272.01 64.03 272.33 64.03C272.65 64.03 272.915 64.135 273.125 64.345C273.345 64.545 273.455 64.82 273.455 65.17C273.455 65.52 273.345 65.8 273.125 66.01C272.915 66.21 272.65 66.31 272.33 66.31ZM407.242 70.18C406.692 70.18 406.192 70.075 405.742 69.865C405.292 69.645 404.907 69.325 404.587 68.905C404.267 68.485 404.017 67.965 403.837 67.345C403.667 66.725 403.582 66.01 403.582 65.2C403.582 64.39 403.667 63.68 403.837 63.07C404.017 62.46 404.267 61.95 404.587 61.54C404.907 61.12 405.292 60.81 405.742 60.61C406.192 60.4 406.692 60.295 407.242 60.295C407.792 60.295 408.292 60.4 408.742 60.61C409.192 60.81 409.577 61.12 409.897 61.54C410.217 61.95 410.462 62.46 410.632 63.07C410.812 63.68 410.902 64.39 410.902 65.2C410.902 66.01 410.812 66.725 410.632 67.345C410.462 67.965 410.217 68.485 409.897 68.905C409.577 69.325 409.192 69.645 408.742 69.865C408.292 70.075 407.792 70.18 407.242 70.18ZM407.242 62.005C407.002 62.005 406.777 62.055 406.567 62.155C406.367 62.255 406.192 62.43 406.042 62.68C405.892 62.92 405.772 63.245 405.682 63.655C405.592 64.065 405.547 64.58 405.547 65.2C405.547 65.82 405.592 66.34 405.682 66.76C405.772 67.17 405.892 67.505 406.042 67.765C406.192 68.015 406.367 68.195 406.567 68.305C406.777 68.415 407.002 68.47 407.242 68.47C407.482 68.47 407.702 68.415 407.902 68.305C408.112 68.195 408.292 68.015 408.442 67.765C408.592 67.505 408.712 67.17 408.802 66.76C408.892 66.34 408.937 65.82 408.937 65.2C408.937 64.58 408.892 64.065 408.802 63.655C408.712 63.245 408.592 62.92 408.442 62.68C408.292 62.43 408.112 62.255 407.902 62.155C407.702 62.055 407.482 62.005 407.242 62.005ZM407.242 66.31C406.922 66.31 406.652 66.21 406.432 66.01C406.222 65.8 406.117 65.52 406.117 65.17C406.117 64.82 406.222 64.545 406.432 64.345C406.652 64.135 406.922 64.03 407.242 64.03C407.562 64.03 407.827 64.135 408.037 64.345C408.257 64.545 408.367 64.82 408.367 65.17C408.367 65.52 408.257 65.8 408.037 66.01C407.827 66.21 407.562 66.31 407.242 66.31Z" fill="#F0E442"/>
</svg>
