<svg width="259" height="127" viewBox="0 0 259 127" fill="none" xmlns="http://www.w3.org/2000/svg">
<rect width="259" height="127" fill="white"/>
<rect width="259" height="127" fill="black"/>
<path d="M2.025 12.255C2.395 12.555 2.795 12.8 3.225 12.99C3.665 13.18 4.1 13.275 4.53 13.275C5.04 13.275 5.41 13.19 5.64 13.02C5.88 12.85 6 12.62 6 12.33C6 12.18 5.965 12.05 5.895 11.94C5.825 11.83 5.725 11.735 5.595 11.655C5.465 11.565 5.305 11.485 5.115 11.415C4.935 11.335 4.725 11.25 4.485 11.16L3.225 10.62C2.955 10.52 2.69 10.39 2.43 10.23C2.18 10.07 1.96 9.885 1.77 9.675C1.58 9.455 1.425 9.205 1.305 8.925C1.195 8.635 1.14 8.31 1.14 7.95C1.14 7.55 1.225 7.175 1.395 6.825C1.575 6.465 1.82 6.155 2.13 5.895C2.45 5.625 2.83 5.415 3.27 5.265C3.71 5.115 4.195 5.04 4.725 5.04C5.325 5.04 5.905 5.15 6.465 5.37C7.025 5.59 7.53 5.91 7.98 6.33L6.855 7.725C6.515 7.475 6.18 7.285 5.85 7.155C5.52 7.015 5.145 6.945 4.725 6.945C4.295 6.945 3.96 7.025 3.72 7.185C3.49 7.335 3.375 7.55 3.375 7.83C3.375 8.13 3.525 8.355 3.825 8.505C4.125 8.655 4.51 8.815 4.98 8.985L6.165 9.495C6.815 9.735 7.325 10.065 7.695 10.485C8.075 10.905 8.265 11.46 8.265 12.15C8.265 12.56 8.18 12.95 8.01 13.32C7.84 13.68 7.595 14 7.275 14.28C6.955 14.55 6.56 14.77 6.09 14.94C5.62 15.1 5.08 15.18 4.47 15.18C3.81 15.18 3.155 15.065 2.505 14.835C1.865 14.595 1.28 14.24 0.75 13.77L2.025 12.255ZM10.3891 16.08C10.5791 16.14 10.7741 16.17 10.9741 16.17C11.4041 16.17 11.7391 16.08 11.9791 15.9C12.2291 15.72 12.4141 15.485 12.5341 15.195L12.6841 14.805L9.45914 7.56H11.6491L12.8941 10.755C13.0341 11.105 13.1641 11.47 13.2841 11.85C13.4041 12.22 13.5241 12.6 13.6441 12.99H13.7041C13.8041 12.62 13.9141 12.25 14.0341 11.88C14.1541 11.5 14.2691 11.125 14.3791 10.755L15.4741 7.56H17.5591L14.6191 15.075C14.4391 15.545 14.2441 15.955 14.0341 16.305C13.8241 16.665 13.5841 16.96 13.3141 17.19C13.0441 17.43 12.7291 17.61 12.3691 17.73C12.0191 17.85 11.6091 17.91 11.1391 17.91C10.9191 17.91 10.7141 17.895 10.5241 17.865C10.3341 17.845 10.1591 17.81 9.99914 17.76L10.3891 16.08ZM19.0683 7.56H20.8683L21.0333 8.55H21.0933C21.4133 8.23 21.7783 7.955 22.1883 7.725C22.6083 7.495 23.0983 7.38 23.6583 7.38C24.4983 7.38 25.1133 7.65 25.5033 8.19C25.8933 8.73 26.0883 9.47 26.0883 10.41V15H23.8833V10.695C23.8833 10.195 23.8033 9.83 23.6433 9.6C23.4833 9.37 23.1983 9.255 22.7883 9.255C22.4883 9.255 22.2233 9.32 21.9933 9.45C21.7733 9.58 21.5333 9.775 21.2733 10.035V15H19.0683V7.56ZM29.5924 9.285H27.7174V7.65L29.6974 7.56L29.9824 5.58H31.7974V7.56H34.9474V9.285H31.7974V11.895C31.7974 12.465 31.9224 12.87 32.1724 13.11C32.4224 13.34 32.8174 13.455 33.3574 13.455C33.6474 13.455 33.9124 13.43 34.1524 13.38C34.3924 13.33 34.6224 13.265 34.8424 13.185L35.2324 14.775C34.9024 14.875 34.5324 14.965 34.1224 15.045C33.7224 15.135 33.2824 15.18 32.8024 15.18C32.2124 15.18 31.7124 15.1 31.3024 14.94C30.8924 14.78 30.5574 14.56 30.2974 14.28C30.0474 13.99 29.8674 13.645 29.7574 13.245C29.6474 12.845 29.5924 12.4 29.5924 11.91V9.285ZM36.8916 12.93C36.8916 12.51 36.9816 12.145 37.1616 11.835C37.3416 11.515 37.6266 11.245 38.0166 11.025C38.4166 10.805 38.9266 10.63 39.5466 10.5C40.1666 10.36 40.9166 10.265 41.7966 10.215C41.7566 9.875 41.6066 9.61 41.3466 9.42C41.0966 9.23 40.7166 9.135 40.2066 9.135C39.8466 9.135 39.4816 9.2 39.1116 9.33C38.7516 9.45 38.3616 9.615 37.9416 9.825L37.1616 8.385C37.6716 8.095 38.2166 7.855 38.7966 7.665C39.3866 7.475 40.0016 7.38 40.6416 7.38C41.6816 7.38 42.5016 7.655 43.1016 8.205C43.7016 8.755 44.0016 9.6 44.0016 10.74V15H42.2016L42.0366 14.16H41.9766C41.5966 14.45 41.1816 14.695 40.7316 14.895C40.2816 15.085 39.8166 15.18 39.3366 15.18C38.9566 15.18 38.6166 15.12 38.3166 15C38.0166 14.89 37.7616 14.735 37.5516 14.535C37.3416 14.325 37.1766 14.085 37.0566 13.815C36.9466 13.545 36.8916 13.25 36.8916 12.93ZM39.0066 12.765C39.0066 13.005 39.0966 13.185 39.2766 13.305C39.4666 13.415 39.7216 13.47 40.0416 13.47C40.3716 13.47 40.6816 13.405 40.9716 13.275C41.2616 13.135 41.5366 12.965 41.7966 12.765V11.535C41.2466 11.565 40.7916 11.615 40.4316 11.685C40.0716 11.755 39.7866 11.845 39.5766 11.955C39.3666 12.055 39.2166 12.175 39.1266 12.315C39.0466 12.455 39.0066 12.605 39.0066 12.765ZM48.1057 11.13L45.6907 7.56H48.0607L48.8257 8.76C48.9357 8.97 49.0607 9.185 49.2007 9.405C49.3407 9.615 49.4757 9.825 49.6057 10.035H49.6657C49.7657 9.825 49.8657 9.61 49.9657 9.39C50.0757 9.17 50.1807 8.96 50.2807 8.76L50.9407 7.56H53.2507L50.8207 11.385L53.4007 15H51.0307L50.1757 13.77C50.0357 13.56 49.8907 13.345 49.7407 13.125C49.6007 12.905 49.4607 12.69 49.3207 12.48H49.2607C49.1507 12.69 49.0357 12.905 48.9157 13.125C48.7957 13.335 48.6807 13.55 48.5707 13.77L47.8357 15H45.5257L48.1057 11.13ZM55.3748 5.22H61.8248V7.08H57.5798V9.045H61.1798V10.89H57.5798V13.14H61.9748V15H55.3748V5.22ZM64.699 7.56H66.499L66.679 9.18H66.724C67.094 8.57 67.539 8.12 68.059 7.83C68.579 7.53 69.139 7.38 69.739 7.38C70.069 7.38 70.334 7.405 70.534 7.455C70.744 7.505 70.959 7.58 71.179 7.68L70.729 9.525C70.499 9.455 70.289 9.405 70.099 9.375C69.919 9.335 69.689 9.315 69.409 9.315C68.949 9.315 68.494 9.45 68.044 9.72C67.604 9.99 67.224 10.46 66.904 11.13V15H64.699V7.56ZM73.6931 7.56H75.4931L75.6731 9.18H75.7181C76.0881 8.57 76.5331 8.12 77.0531 7.83C77.5731 7.53 78.1331 7.38 78.7331 7.38C79.0631 7.38 79.3281 7.405 79.5281 7.455C79.7381 7.505 79.9531 7.58 80.1731 7.68L79.7231 9.525C79.4931 9.455 79.2831 9.405 79.0931 9.375C78.9131 9.335 78.6831 9.315 78.4031 9.315C77.9431 9.315 77.4881 9.45 77.0381 9.72C76.5981 9.99 76.2181 10.46 75.8981 11.13V15H73.6931V7.56ZM81.6523 11.28C81.6523 10.66 81.7573 10.11 81.9673 9.63C82.1773 9.14 82.4573 8.73 82.8073 8.4C83.1673 8.07 83.5723 7.82 84.0223 7.65C84.4823 7.47 84.9573 7.38 85.4473 7.38C85.9373 7.38 86.4073 7.47 86.8573 7.65C87.3173 7.82 87.7223 8.07 88.0723 8.4C88.4323 8.73 88.7173 9.14 88.9273 9.63C89.1373 10.11 89.2423 10.66 89.2423 11.28C89.2423 11.9 89.1373 12.455 88.9273 12.945C88.7173 13.425 88.4323 13.83 88.0723 14.16C87.7223 14.49 87.3173 14.745 86.8573 14.925C86.4073 15.095 85.9373 15.18 85.4473 15.18C84.9573 15.18 84.4823 15.095 84.0223 14.925C83.5723 14.745 83.1673 14.49 82.8073 14.16C82.4573 13.83 82.1773 13.425 81.9673 12.945C81.7573 12.455 81.6523 11.9 81.6523 11.28ZM83.9173 11.28C83.9173 11.93 84.0423 12.445 84.2923 12.825C84.5523 13.205 84.9373 13.395 85.4473 13.395C85.9573 13.395 86.3373 13.205 86.5873 12.825C86.8473 12.445 86.9773 11.93 86.9773 11.28C86.9773 10.63 86.8473 10.115 86.5873 9.735C86.3373 9.355 85.9573 9.165 85.4473 9.165C84.9373 9.165 84.5523 9.355 84.2923 9.735C84.0423 10.115 83.9173 10.63 83.9173 11.28ZM91.6814 7.56H93.4814L93.6614 9.18H93.7064C94.0764 8.57 94.5214 8.12 95.0414 7.83C95.5614 7.53 96.1214 7.38 96.7214 7.38C97.0514 7.38 97.3164 7.405 97.5164 7.455C97.7264 7.505 97.9414 7.58 98.1614 7.68L97.7114 9.525C97.4814 9.455 97.2714 9.405 97.0814 9.375C96.9014 9.335 96.6714 9.315 96.3914 9.315C95.9314 9.315 95.4764 9.45 95.0264 9.72C94.5864 9.99 94.2064 10.46 93.8864 11.13V15H91.6814V7.56ZM101.696 8.58C101.696 8.33 101.736 8.1 101.816 7.89C101.906 7.67 102.026 7.48 102.176 7.32C102.326 7.16 102.506 7.035 102.716 6.945C102.936 6.855 103.176 6.81 103.436 6.81C103.696 6.81 103.931 6.855 104.141 6.945C104.361 7.035 104.546 7.16 104.696 7.32C104.846 7.48 104.961 7.67 105.041 7.89C105.131 8.1 105.176 8.33 105.176 8.58C105.176 9.08 105.016 9.5 104.696 9.84C104.376 10.17 103.956 10.335 103.436 10.335C102.916 10.335 102.496 10.17 102.176 9.84C101.856 9.5 101.696 9.08 101.696 8.58ZM101.696 13.425C101.696 13.175 101.736 12.945 101.816 12.735C101.906 12.515 102.026 12.325 102.176 12.165C102.326 12.005 102.506 11.88 102.716 11.79C102.936 11.7 103.176 11.655 103.436 11.655C103.696 11.655 103.931 11.7 104.141 11.79C104.361 11.88 104.546 12.005 104.696 12.165C104.846 12.325 104.961 12.515 105.041 12.735C105.131 12.945 105.176 13.175 105.176 13.425C105.176 13.925 105.016 14.345 104.696 14.685C104.376 15.015 103.956 15.18 103.436 15.18C102.916 15.18 102.496 15.015 102.176 14.685C101.856 14.345 101.696 13.925 101.696 13.425ZM118.109 7.56H123.299V15H121.094V9.285H118.109V7.56ZM122.099 6.465C121.669 6.465 121.314 6.345 121.034 6.105C120.764 5.865 120.629 5.54 120.629 5.13C120.629 4.72 120.764 4.39 121.034 4.14C121.314 3.88 121.669 3.75 122.099 3.75C122.529 3.75 122.879 3.88 123.149 4.14C123.429 4.39 123.569 4.72 123.569 5.13C123.569 5.54 123.429 5.865 123.149 6.105C122.879 6.345 122.529 6.465 122.099 6.465ZM126.998 7.56H128.798L128.963 8.55H129.023C129.343 8.23 129.708 7.955 130.118 7.725C130.538 7.495 131.028 7.38 131.588 7.38C132.428 7.38 133.043 7.65 133.433 8.19C133.823 8.73 134.018 9.47 134.018 10.41V15H131.813V10.695C131.813 10.195 131.733 9.83 131.573 9.6C131.413 9.37 131.128 9.255 130.718 9.255C130.418 9.255 130.153 9.32 129.923 9.45C129.703 9.58 129.463 9.775 129.203 10.035V15H126.998V7.56ZM135.377 7.56H137.597L138.767 11.07C138.887 11.45 139.002 11.83 139.112 12.21C139.222 12.59 139.332 12.975 139.442 13.365H139.502C139.612 12.975 139.717 12.59 139.817 12.21C139.927 11.83 140.042 11.45 140.162 11.07L141.332 7.56H143.447L140.717 15H138.182L135.377 7.56ZM144.821 12.93C144.821 12.51 144.911 12.145 145.091 11.835C145.271 11.515 145.556 11.245 145.946 11.025C146.346 10.805 146.856 10.63 147.476 10.5C148.096 10.36 148.846 10.265 149.726 10.215C149.686 9.875 149.536 9.61 149.276 9.42C149.026 9.23 148.646 9.135 148.136 9.135C147.776 9.135 147.411 9.2 147.041 9.33C146.681 9.45 146.291 9.615 145.871 9.825L145.091 8.385C145.601 8.095 146.146 7.855 146.726 7.665C147.316 7.475 147.931 7.38 148.571 7.38C149.611 7.38 150.431 7.655 151.031 8.205C151.631 8.755 151.931 9.6 151.931 10.74V15H150.131L149.966 14.16H149.906C149.526 14.45 149.111 14.695 148.661 14.895C148.211 15.085 147.746 15.18 147.266 15.18C146.886 15.18 146.546 15.12 146.246 15C145.946 14.89 145.691 14.735 145.481 14.535C145.271 14.325 145.106 14.085 144.986 13.815C144.876 13.545 144.821 13.25 144.821 12.93ZM146.936 12.765C146.936 13.005 147.026 13.185 147.206 13.305C147.396 13.415 147.651 13.47 147.971 13.47C148.301 13.47 148.611 13.405 148.901 13.275C149.191 13.135 149.466 12.965 149.726 12.765V11.535C149.176 11.565 148.721 11.615 148.361 11.685C148.001 11.755 147.716 11.845 147.506 11.955C147.296 12.055 147.146 12.175 147.056 12.315C146.976 12.455 146.936 12.605 146.936 12.765ZM153.83 4.485H158.195V12.18C158.195 12.41 158.225 12.605 158.285 12.765C158.355 12.915 158.445 13.04 158.555 13.14C158.675 13.23 158.805 13.295 158.945 13.335C159.095 13.375 159.245 13.395 159.395 13.395C159.565 13.395 159.745 13.38 159.935 13.35C160.125 13.31 160.335 13.245 160.565 13.155L161.06 14.775C160.86 14.835 160.675 14.89 160.505 14.94C160.335 14.99 160.165 15.03 159.995 15.06C159.825 15.1 159.645 15.13 159.455 15.15C159.265 15.17 159.055 15.18 158.825 15.18C157.885 15.18 157.175 14.905 156.695 14.355C156.225 13.795 155.99 13.04 155.99 12.09V6.225H153.83V4.485ZM163.08 7.56H168.27V15H166.065V9.285H163.08V7.56ZM167.07 6.465C166.64 6.465 166.285 6.345 166.005 6.105C165.735 5.865 165.6 5.54 165.6 5.13C165.6 4.72 165.735 4.39 166.005 4.14C166.285 3.88 166.64 3.75 167.07 3.75C167.5 3.75 167.85 3.88 168.12 4.14C168.4 4.39 168.54 4.72 168.54 5.13C168.54 5.54 168.4 5.865 168.12 6.105C167.85 6.345 167.5 6.465 167.07 6.465ZM171.594 11.28C171.594 10.67 171.684 10.125 171.864 9.645C172.044 9.165 172.279 8.76 172.569 8.43C172.869 8.09 173.209 7.83 173.589 7.65C173.969 7.47 174.364 7.38 174.774 7.38C175.204 7.38 175.564 7.455 175.854 7.605C176.144 7.745 176.419 7.935 176.679 8.175L176.604 7.02V4.485H178.809V15H177.009L176.844 14.235H176.799C176.519 14.505 176.199 14.73 175.839 14.91C175.479 15.09 175.109 15.18 174.729 15.18C174.259 15.18 173.829 15.09 173.439 14.91C173.059 14.73 172.729 14.475 172.449 14.145C172.179 13.805 171.969 13.395 171.819 12.915C171.669 12.435 171.594 11.89 171.594 11.28ZM173.859 11.25C173.859 11.99 173.984 12.53 174.234 12.87C174.484 13.21 174.839 13.38 175.299 13.38C175.549 13.38 175.779 13.33 175.989 13.23C176.199 13.12 176.404 12.94 176.604 12.69V9.675C176.404 9.495 176.199 9.37 175.989 9.3C175.789 9.22 175.579 9.18 175.359 9.18C174.949 9.18 174.594 9.35 174.294 9.69C174.004 10.03 173.859 10.55 173.859 11.25ZM190.662 12.66C191.092 12.93 191.522 13.145 191.952 13.305C192.392 13.465 192.862 13.545 193.362 13.545C193.872 13.545 194.237 13.49 194.457 13.38C194.677 13.27 194.787 13.115 194.787 12.915C194.787 12.685 194.602 12.5 194.232 12.36C193.872 12.21 193.392 12.05 192.792 11.88C192.462 11.79 192.137 11.685 191.817 11.565C191.507 11.435 191.227 11.285 190.977 11.115C190.727 10.935 190.522 10.73 190.362 10.5C190.212 10.27 190.137 10.005 190.137 9.705C190.137 9.365 190.217 9.05 190.377 8.76C190.537 8.47 190.762 8.225 191.052 8.025C191.352 7.825 191.712 7.67 192.132 7.56C192.562 7.44 193.042 7.38 193.572 7.38C194.232 7.38 194.832 7.49 195.372 7.71C195.922 7.92 196.392 8.15 196.782 8.4L195.792 9.72C195.452 9.52 195.102 9.355 194.742 9.225C194.382 9.085 194.007 9.015 193.617 9.015C193.147 9.015 192.812 9.065 192.612 9.165C192.422 9.265 192.327 9.41 192.327 9.6C192.327 9.71 192.377 9.81 192.477 9.9C192.577 9.99 192.712 10.07 192.882 10.14C193.052 10.21 193.252 10.28 193.482 10.35C193.722 10.41 193.972 10.475 194.232 10.545C194.602 10.645 194.952 10.76 195.282 10.89C195.612 11.01 195.902 11.155 196.152 11.325C196.402 11.495 196.602 11.7 196.752 11.94C196.902 12.18 196.977 12.46 196.977 12.78C196.977 13.12 196.897 13.435 196.737 13.725C196.577 14.015 196.342 14.27 196.032 14.49C195.732 14.7 195.352 14.87 194.892 15C194.442 15.12 193.917 15.18 193.317 15.18C192.647 15.18 191.992 15.07 191.352 14.85C190.712 14.63 190.152 14.36 189.672 14.04L190.662 12.66ZM199.266 16.08C199.456 16.14 199.651 16.17 199.851 16.17C200.281 16.17 200.616 16.08 200.856 15.9C201.106 15.72 201.291 15.485 201.411 15.195L201.561 14.805L198.336 7.56H200.526L201.771 10.755C201.911 11.105 202.041 11.47 202.161 11.85C202.281 12.22 202.401 12.6 202.521 12.99H202.581C202.681 12.62 202.791 12.25 202.911 11.88C203.031 11.5 203.146 11.125 203.256 10.755L204.351 7.56H206.436L203.496 15.075C203.316 15.545 203.121 15.955 202.911 16.305C202.701 16.665 202.461 16.96 202.191 17.19C201.921 17.43 201.606 17.61 201.246 17.73C200.896 17.85 200.486 17.91 200.016 17.91C199.796 17.91 199.591 17.895 199.401 17.865C199.211 17.845 199.036 17.81 198.876 17.76L199.266 16.08ZM207.945 7.56H209.745L209.91 8.55H209.97C210.29 8.23 210.655 7.955 211.065 7.725C211.485 7.495 211.975 7.38 212.535 7.38C213.375 7.38 213.99 7.65 214.38 8.19C214.77 8.73 214.965 9.47 214.965 10.41V15H212.76V10.695C212.76 10.195 212.68 9.83 212.52 9.6C212.36 9.37 212.075 9.255 211.665 9.255C211.365 9.255 211.1 9.32 210.87 9.45C210.65 9.58 210.41 9.775 210.15 10.035V15H207.945V7.56ZM218.469 9.285H216.594V7.65L218.574 7.56L218.859 5.58H220.674V7.56H223.824V9.285H220.674V11.895C220.674 12.465 220.799 12.87 221.049 13.11C221.299 13.34 221.694 13.455 222.234 13.455C222.524 13.455 222.789 13.43 223.029 13.38C223.269 13.33 223.499 13.265 223.719 13.185L224.109 14.775C223.779 14.875 223.409 14.965 222.999 15.045C222.599 15.135 222.159 15.18 221.679 15.18C221.089 15.18 220.589 15.1 220.179 14.94C219.769 14.78 219.434 14.56 219.174 14.28C218.924 13.99 218.744 13.645 218.634 13.245C218.524 12.845 218.469 12.4 218.469 11.91V9.285ZM225.769 12.93C225.769 12.51 225.859 12.145 226.039 11.835C226.219 11.515 226.504 11.245 226.894 11.025C227.294 10.805 227.804 10.63 228.424 10.5C229.044 10.36 229.794 10.265 230.674 10.215C230.634 9.875 230.484 9.61 230.224 9.42C229.974 9.23 229.594 9.135 229.084 9.135C228.724 9.135 228.359 9.2 227.989 9.33C227.629 9.45 227.239 9.615 226.819 9.825L226.039 8.385C226.549 8.095 227.094 7.855 227.674 7.665C228.264 7.475 228.879 7.38 229.519 7.38C230.559 7.38 231.379 7.655 231.979 8.205C232.579 8.755 232.879 9.6 232.879 10.74V15H231.079L230.914 14.16H230.854C230.474 14.45 230.059 14.695 229.609 14.895C229.159 15.085 228.694 15.18 228.214 15.18C227.834 15.18 227.494 15.12 227.194 15C226.894 14.89 226.639 14.735 226.429 14.535C226.219 14.325 226.054 14.085 225.934 13.815C225.824 13.545 225.769 13.25 225.769 12.93ZM227.884 12.765C227.884 13.005 227.974 13.185 228.154 13.305C228.344 13.415 228.599 13.47 228.919 13.47C229.249 13.47 229.559 13.405 229.849 13.275C230.139 13.135 230.414 12.965 230.674 12.765V11.535C230.124 11.565 229.669 11.615 229.309 11.685C228.949 11.755 228.664 11.845 228.454 11.955C228.244 12.055 228.094 12.175 228.004 12.315C227.924 12.455 227.884 12.605 227.884 12.765ZM236.983 11.13L234.568 7.56H236.938L237.703 8.76C237.813 8.97 237.938 9.185 238.078 9.405C238.218 9.615 238.353 9.825 238.483 10.035H238.543C238.643 9.825 238.743 9.61 238.843 9.39C238.953 9.17 239.058 8.96 239.158 8.76L239.818 7.56H242.128L239.698 11.385L242.278 15H239.908L239.053 13.77C238.913 13.56 238.768 13.345 238.618 13.125C238.478 12.905 238.338 12.69 238.198 12.48H238.138C238.028 12.69 237.913 12.905 237.793 13.125C237.673 13.335 237.558 13.55 237.448 13.77L236.713 15H234.403L236.983 11.13Z" transform="translate(7 97)" fill="#D55E00"/>
<path d="M4.5 15.18C3.92 15.18 3.385 15.065 2.895 14.835C2.415 14.595 2 14.255 1.65 13.815C1.31 13.375 1.045 12.84 0.855 12.21C0.665 11.58 0.57 10.865 0.57 10.065C0.57 9.265 0.665 8.555 0.855 7.935C1.045 7.305 1.31 6.78 1.65 6.36C2 5.93 2.415 5.605 2.895 5.385C3.385 5.155 3.92 5.04 4.5 5.04C5.08 5.04 5.61 5.155 6.09 5.385C6.58 5.605 6.995 5.93 7.335 6.36C7.685 6.79 7.955 7.32 8.145 7.95C8.335 8.57 8.43 9.275 8.43 10.065C8.43 10.865 8.335 11.58 8.145 12.21C7.955 12.84 7.685 13.375 7.335 13.815C6.995 14.255 6.58 14.595 6.09 14.835C5.61 15.065 5.08 15.18 4.5 15.18ZM4.5 13.275C5.01 13.275 5.415 12.99 5.715 12.42C6.015 11.84 6.165 11.055 6.165 10.065C6.165 9.085 6.015 8.32 5.715 7.77C5.415 7.22 5.01 6.945 4.5 6.945C3.99 6.945 3.585 7.22 3.285 7.77C2.985 8.32 2.835 9.085 2.835 10.065C2.835 11.055 2.985 11.84 3.285 12.42C3.585 12.99 3.99 13.275 4.5 13.275ZM16.8691 15H15.0691L14.9041 13.935H14.8441C14.5141 14.315 14.1491 14.62 13.7491 14.85C13.3491 15.07 12.8791 15.18 12.3391 15.18C11.4891 15.18 10.8741 14.91 10.4941 14.37C10.1141 13.83 9.92414 13.09 9.92414 12.15V7.56H12.1291V11.865C12.1291 12.365 12.2041 12.73 12.3541 12.96C12.5041 13.19 12.7891 13.305 13.2091 13.305C13.4891 13.305 13.7341 13.245 13.9441 13.125C14.1641 13.005 14.4041 12.78 14.6641 12.45V7.56H16.8691V15ZM20.5983 9.285H18.7233V7.65L20.7033 7.56L20.9883 5.58H22.8033V7.56H25.9533V9.285H22.8033V11.895C22.8033 12.465 22.9283 12.87 23.1783 13.11C23.4283 13.34 23.8233 13.455 24.3633 13.455C24.6533 13.455 24.9183 13.43 25.1583 13.38C25.3983 13.33 25.6283 13.265 25.8483 13.185L26.2383 14.775C25.9083 14.875 25.5383 14.965 25.1283 15.045C24.7283 15.135 24.2883 15.18 23.8083 15.18C23.2183 15.18 22.7183 15.1 22.3083 14.94C21.8983 14.78 21.5633 14.56 21.3033 14.28C21.0533 13.99 20.8733 13.645 20.7633 13.245C20.6533 12.845 20.5983 12.4 20.5983 11.91V9.285ZM30.2674 15.585V17.76H28.0624V7.56H29.8624L30.0274 8.31H30.0724C30.3724 8.04 30.7174 7.82 31.1074 7.65C31.4974 7.47 31.8924 7.38 32.2924 7.38C32.7524 7.38 33.1674 7.47 33.5374 7.65C33.9074 7.83 34.2224 8.085 34.4824 8.415C34.7424 8.745 34.9374 9.145 35.0674 9.615C35.2074 10.075 35.2774 10.59 35.2774 11.16C35.2774 11.8 35.1874 12.37 35.0074 12.87C34.8274 13.36 34.5874 13.78 34.2874 14.13C33.9874 14.47 33.6424 14.73 33.2524 14.91C32.8724 15.09 32.4724 15.18 32.0524 15.18C31.3724 15.18 30.7524 14.91 30.1924 14.37L30.2674 15.585ZM30.2674 12.885C30.4774 13.065 30.6924 13.195 30.9124 13.275C31.1424 13.345 31.3524 13.38 31.5424 13.38C31.9624 13.38 32.3124 13.21 32.5924 12.87C32.8724 12.52 33.0124 11.96 33.0124 11.19C33.0124 9.85 32.5574 9.18 31.6474 9.18C31.1774 9.18 30.7174 9.41 30.2674 9.87V12.885ZM43.8516 15H42.0516L41.8866 13.935H41.8266C41.4966 14.315 41.1316 14.62 40.7316 14.85C40.3316 15.07 39.8616 15.18 39.3216 15.18C38.4716 15.18 37.8566 14.91 37.4766 14.37C37.0966 13.83 36.9066 13.09 36.9066 12.15V7.56H39.1116V11.865C39.1116 12.365 39.1866 12.73 39.3366 12.96C39.4866 13.19 39.7716 13.305 40.1916 13.305C40.4716 13.305 40.7166 13.245 40.9266 13.125C41.1466 13.005 41.3866 12.78 41.6466 12.45V7.56H43.8516V15ZM47.5807 9.285H45.7057V7.65L47.6857 7.56L47.9707 5.58H49.7857V7.56H52.9357V9.285H49.7857V11.895C49.7857 12.465 49.9107 12.87 50.1607 13.11C50.4107 13.34 50.8057 13.455 51.3457 13.455C51.6357 13.455 51.9007 13.43 52.1407 13.38C52.3807 13.33 52.6107 13.265 52.8307 13.185L53.2207 14.775C52.8907 14.875 52.5207 14.965 52.1107 15.045C51.7107 15.135 51.2707 15.18 50.7907 15.18C50.2007 15.18 49.7007 15.1 49.2907 14.94C48.8807 14.78 48.5457 14.56 48.2857 14.28C48.0357 13.99 47.8557 13.645 47.7457 13.245C47.6357 12.845 47.5807 12.4 47.5807 11.91V9.285Z" transform="translate(7 78)" fill="white"/>
<rect width="162" height="31" transform="translate(97)" fill="#333333"/>
<rect width="162" height="31" transform="translate(97)" fill="#333333"/>
<rect width="97.1974" height="30.6018" fill="#090808"/>
<path d="M5.10498 11.8101C5.10498 11.5513 4.97559 11.3486 4.7168 11.2021C4.46289 11.0508 4.05273 10.9165 3.48633 10.7993C1.60156 10.4038 0.65918 9.60303 0.65918 8.39697C0.65918 7.69385 0.949707 7.10791 1.53076 6.63916C2.1167 6.16553 2.88086 5.92871 3.82324 5.92871C4.8291 5.92871 5.63232 6.16553 6.23291 6.63916C6.83838 7.11279 7.14111 7.72803 7.14111 8.48486H5.02441C5.02441 8.18213 4.92676 7.93311 4.73145 7.73779C4.53613 7.5376 4.23096 7.4375 3.81592 7.4375C3.45947 7.4375 3.18359 7.51807 2.98828 7.6792C2.79297 7.84033 2.69531 8.04541 2.69531 8.29443C2.69531 8.52881 2.80518 8.71924 3.0249 8.86572C3.24951 9.00732 3.62549 9.13184 4.15283 9.23926C4.68018 9.3418 5.12451 9.45898 5.48584 9.59082C6.604 10.001 7.16309 10.7114 7.16309 11.7222C7.16309 12.4448 6.85303 13.0308 6.23291 13.48C5.61279 13.9243 4.81201 14.1465 3.83057 14.1465C3.1665 14.1465 2.57568 14.0293 2.05811 13.7949C1.54541 13.5557 1.14258 13.231 0.849609 12.8208C0.556641 12.4058 0.410156 11.959 0.410156 11.4805H2.41699C2.43652 11.8564 2.57568 12.1445 2.83447 12.3447C3.09326 12.5449 3.43994 12.645 3.87451 12.645C4.27979 12.645 4.58496 12.5693 4.79004 12.418C5 12.2617 5.10498 12.0591 5.10498 11.8101ZM11.8286 12.4399C12.2192 12.4399 12.5366 12.3325 12.7808 12.1177C13.0249 11.9028 13.1519 11.6172 13.1616 11.2607H15.1465C15.1416 11.7979 14.9951 12.291 14.707 12.7402C14.4189 13.1846 14.0234 13.5312 13.5205 13.7803C13.0225 14.0244 12.4707 14.1465 11.8652 14.1465C10.7324 14.1465 9.83887 13.7876 9.18457 13.0698C8.53027 12.3472 8.20312 11.3511 8.20312 10.0815V9.94238C8.20312 8.72168 8.52783 7.74756 9.17725 7.02002C9.82666 6.29248 10.7178 5.92871 11.8506 5.92871C12.8418 5.92871 13.6353 6.21191 14.231 6.77832C14.8315 7.33984 15.1367 8.08936 15.1465 9.02686H13.1616C13.1519 8.6167 13.0249 8.28467 12.7808 8.03076C12.5366 7.77197 12.2144 7.64258 11.814 7.64258C11.3208 7.64258 10.9473 7.82324 10.6934 8.18457C10.4443 8.54102 10.3198 9.12207 10.3198 9.92773V10.1475C10.3198 10.9629 10.4443 11.5488 10.6934 11.9053C10.9424 12.2617 11.3208 12.4399 11.8286 12.4399ZM20.8081 8.06006C20.52 8.021 20.2661 8.00146 20.0464 8.00146C19.2456 8.00146 18.7207 8.27246 18.4717 8.81445V14H16.355V6.0752H18.3545L18.4131 7.02002C18.8379 6.29248 19.4263 5.92871 20.1782 5.92871C20.4126 5.92871 20.6323 5.96045 20.8374 6.02393L20.8081 8.06006ZM24.0674 14H21.9434V6.0752H24.0674V14ZM21.8188 4.02441C21.8188 3.70703 21.9238 3.4458 22.1338 3.24072C22.3486 3.03564 22.6392 2.93311 23.0054 2.93311C23.3667 2.93311 23.6548 3.03564 23.8696 3.24072C24.0845 3.4458 24.1919 3.70703 24.1919 4.02441C24.1919 4.34668 24.082 4.61035 23.8623 4.81543C23.6475 5.02051 23.3618 5.12305 23.0054 5.12305C22.6489 5.12305 22.3608 5.02051 22.1411 4.81543C21.9263 4.61035 21.8188 4.34668 21.8188 4.02441ZM32.9517 10.1108C32.9517 11.3315 32.6733 12.3105 32.1167 13.0479C31.5649 13.7803 30.8179 14.1465 29.8755 14.1465C29.0747 14.1465 28.4277 13.8682 27.9346 13.3115V17.0469H25.8179V6.0752H27.7808L27.854 6.85156C28.3667 6.23633 29.0356 5.92871 29.8608 5.92871C30.8374 5.92871 31.5967 6.29004 32.1387 7.0127C32.6807 7.73535 32.9517 8.73145 32.9517 10.001V10.1108ZM30.835 9.95703C30.835 9.21973 30.7031 8.65088 30.4395 8.25049C30.1807 7.8501 29.8022 7.6499 29.3042 7.6499C28.6401 7.6499 28.1836 7.90381 27.9346 8.41162V11.6562C28.1934 12.1787 28.6548 12.4399 29.3188 12.4399C30.3296 12.4399 30.835 11.6123 30.835 9.95703ZM36.8042 4.12695V6.0752H38.1592V7.62793H36.8042V11.583C36.8042 11.876 36.8604 12.0859 36.9727 12.2129C37.085 12.3398 37.2998 12.4033 37.6172 12.4033C37.8516 12.4033 38.0591 12.3862 38.2397 12.3521V13.9561C37.8247 14.083 37.3975 14.1465 36.958 14.1465C35.4736 14.1465 34.7168 13.397 34.6875 11.8979V7.62793H33.5303V6.0752H34.6875V4.12695H36.8042ZM39.4482 12.96C39.4482 12.623 39.5605 12.3496 39.7852 12.1396C40.0146 11.9297 40.3003 11.8247 40.6421 11.8247C40.9888 11.8247 41.2744 11.9297 41.499 12.1396C41.7285 12.3496 41.8433 12.623 41.8433 12.96C41.8433 13.292 41.731 13.563 41.5063 13.7729C41.2817 13.978 40.9937 14.0806 40.6421 14.0806C40.2954 14.0806 40.0098 13.978 39.7852 13.7729C39.5605 13.563 39.4482 13.292 39.4482 12.96ZM50.8374 10.1108C50.8374 11.3315 50.5591 12.3105 50.0024 13.0479C49.4507 13.7803 48.7036 14.1465 47.7612 14.1465C46.9604 14.1465 46.3135 13.8682 45.8203 13.3115V17.0469H43.7036V6.0752H45.6665L45.7397 6.85156C46.2524 6.23633 46.9214 5.92871 47.7466 5.92871C48.7231 5.92871 49.4824 6.29004 50.0244 7.0127C50.5664 7.73535 50.8374 8.73145 50.8374 10.001V10.1108ZM48.7207 9.95703C48.7207 9.21973 48.5889 8.65088 48.3252 8.25049C48.0664 7.8501 47.688 7.6499 47.1899 7.6499C46.5259 7.6499 46.0693 7.90381 45.8203 8.41162V11.6562C46.0791 12.1787 46.5405 12.4399 47.2046 12.4399C48.2153 12.4399 48.7207 11.6123 48.7207 9.95703ZM55.0269 11.0044L56.4917 6.0752H58.7622L55.5762 15.2305L55.4004 15.6479C54.9268 16.6831 54.1455 17.2007 53.0566 17.2007C52.749 17.2007 52.4365 17.1543 52.1191 17.0615V15.4575L52.4414 15.4648C52.8418 15.4648 53.1396 15.4038 53.335 15.2817C53.5352 15.1597 53.6914 14.957 53.8037 14.6738L54.0527 14.022L51.2769 6.0752H53.5547L55.0269 11.0044Z" transform="translate(13 6)" fill="white"/>
<line y1="-0.5" x2="259" y2="-0.5" transform="translate(0 74)" stroke="white"/>
<path d="M0.915 12.93C0.915 12.51 1.005 12.145 1.185 11.835C1.365 11.515 1.65 11.245 2.04 11.025C2.44 10.805 2.95 10.63 3.57 10.5C4.19 10.36 4.94 10.265 5.82 10.215C5.78 9.875 5.63 9.61 5.37 9.42C5.12 9.23 4.74 9.135 4.23 9.135C3.87 9.135 3.505 9.2 3.135 9.33C2.775 9.45 2.385 9.615 1.965 9.825L1.185 8.385C1.695 8.095 2.24 7.855 2.82 7.665C3.41 7.475 4.025 7.38 4.665 7.38C5.705 7.38 6.525 7.655 7.125 8.205C7.725 8.755 8.025 9.6 8.025 10.74V15H6.225L6.06 14.16H6C5.62 14.45 5.205 14.695 4.755 14.895C4.305 15.085 3.84 15.18 3.36 15.18C2.98 15.18 2.64 15.12 2.34 15C2.04 14.89 1.785 14.735 1.575 14.535C1.365 14.325 1.2 14.085 1.08 13.815C0.97 13.545 0.915 13.25 0.915 12.93ZM3.03 12.765C3.03 13.005 3.12 13.185 3.3 13.305C3.49 13.415 3.745 13.47 4.065 13.47C4.395 13.47 4.705 13.405 4.995 13.275C5.285 13.135 5.56 12.965 5.82 12.765V11.535C5.27 11.565 4.815 11.615 4.455 11.685C4.095 11.755 3.81 11.845 3.6 11.955C3.39 12.055 3.24 12.175 3.15 12.315C3.07 12.455 3.03 12.605 3.03 12.765ZM19.7283 7.56H21.5283L21.7083 9.18H21.7533C22.1233 8.57 22.5683 8.12 23.0883 7.83C23.6083 7.53 24.1683 7.38 24.7683 7.38C25.0983 7.38 25.3633 7.405 25.5633 7.455C25.7733 7.505 25.9883 7.58 26.2083 7.68L25.7583 9.525C25.5283 9.455 25.3183 9.405 25.1283 9.375C24.9483 9.335 24.7183 9.315 24.4383 9.315C23.9783 9.315 23.5233 9.45 23.0733 9.72C22.6333 9.99 22.2533 10.46 21.9333 11.13V15H19.7283V7.56ZM27.8074 11.28C27.8074 10.67 27.9124 10.125 28.1224 9.645C28.3424 9.165 28.6324 8.76 28.9924 8.43C29.3524 8.09 29.7624 7.83 30.2224 7.65C30.6924 7.47 31.1774 7.38 31.6774 7.38C32.2474 7.38 32.7524 7.47 33.1924 7.65C33.6324 7.83 33.9974 8.08 34.2874 8.4C34.5774 8.72 34.7974 9.1 34.9474 9.54C35.0974 9.97 35.1724 10.44 35.1724 10.95C35.1724 11.15 35.1624 11.34 35.1424 11.52C35.1224 11.7 35.1024 11.835 35.0824 11.925H30.0724C30.1524 12.485 30.3924 12.89 30.7924 13.14C31.2024 13.38 31.6824 13.5 32.2324 13.5C32.5724 13.5 32.8924 13.46 33.1924 13.38C33.5024 13.29 33.8224 13.16 34.1524 12.99L34.8724 14.31C34.4524 14.58 33.9824 14.795 33.4624 14.955C32.9424 15.105 32.4324 15.18 31.9324 15.18C31.3524 15.18 30.8124 15.095 30.3124 14.925C29.8124 14.745 29.3774 14.49 29.0074 14.16C28.6374 13.82 28.3424 13.41 28.1224 12.93C27.9124 12.45 27.8074 11.9 27.8074 11.28ZM33.1774 10.47C33.1774 10.05 33.0624 9.71 32.8324 9.45C32.6024 9.19 32.2324 9.06 31.7224 9.06C31.3224 9.06 30.9674 9.175 30.6574 9.405C30.3474 9.635 30.1424 9.99 30.0424 10.47H33.1774ZM37.7616 12.66C38.1916 12.93 38.6216 13.145 39.0516 13.305C39.4916 13.465 39.9616 13.545 40.4616 13.545C40.9716 13.545 41.3366 13.49 41.5566 13.38C41.7766 13.27 41.8866 13.115 41.8866 12.915C41.8866 12.685 41.7016 12.5 41.3316 12.36C40.9716 12.21 40.4916 12.05 39.8916 11.88C39.5616 11.79 39.2366 11.685 38.9166 11.565C38.6066 11.435 38.3266 11.285 38.0766 11.115C37.8266 10.935 37.6216 10.73 37.4616 10.5C37.3116 10.27 37.2366 10.005 37.2366 9.705C37.2366 9.365 37.3166 9.05 37.4766 8.76C37.6366 8.47 37.8616 8.225 38.1516 8.025C38.4516 7.825 38.8116 7.67 39.2316 7.56C39.6616 7.44 40.1416 7.38 40.6716 7.38C41.3316 7.38 41.9316 7.49 42.4716 7.71C43.0216 7.92 43.4916 8.15 43.8816 8.4L42.8916 9.72C42.5516 9.52 42.2016 9.355 41.8416 9.225C41.4816 9.085 41.1066 9.015 40.7166 9.015C40.2466 9.015 39.9116 9.065 39.7116 9.165C39.5216 9.265 39.4266 9.41 39.4266 9.6C39.4266 9.71 39.4766 9.81 39.5766 9.9C39.6766 9.99 39.8116 10.07 39.9816 10.14C40.1516 10.21 40.3516 10.28 40.5816 10.35C40.8216 10.41 41.0716 10.475 41.3316 10.545C41.7016 10.645 42.0516 10.76 42.3816 10.89C42.7116 11.01 43.0016 11.155 43.2516 11.325C43.5016 11.495 43.7016 11.7 43.8516 11.94C44.0016 12.18 44.0766 12.46 44.0766 12.78C44.0766 13.12 43.9966 13.435 43.8366 13.725C43.6766 14.015 43.4416 14.27 43.1316 14.49C42.8316 14.7 42.4516 14.87 41.9916 15C41.5416 15.12 41.0166 15.18 40.4166 15.18C39.7466 15.18 39.0916 15.07 38.4516 14.85C37.8116 14.63 37.2516 14.36 36.7716 14.04L37.7616 12.66ZM52.8457 15H51.0457L50.8807 13.935H50.8207C50.4907 14.315 50.1257 14.62 49.7257 14.85C49.3257 15.07 48.8557 15.18 48.3157 15.18C47.4657 15.18 46.8507 14.91 46.4707 14.37C46.0907 13.83 45.9007 13.09 45.9007 12.15V7.56H48.1057V11.865C48.1057 12.365 48.1807 12.73 48.3307 12.96C48.4807 13.19 48.7657 13.305 49.1857 13.305C49.4657 13.305 49.7107 13.245 49.9207 13.125C50.1407 13.005 50.3807 12.78 50.6407 12.45V7.56H52.8457V15ZM54.8948 4.485H59.2598V12.18C59.2598 12.41 59.2898 12.605 59.3498 12.765C59.4198 12.915 59.5098 13.04 59.6198 13.14C59.7398 13.23 59.8698 13.295 60.0098 13.335C60.1598 13.375 60.3098 13.395 60.4598 13.395C60.6298 13.395 60.8098 13.38 60.9998 13.35C61.1898 13.31 61.3998 13.245 61.6298 13.155L62.1248 14.775C61.9248 14.835 61.7398 14.89 61.5698 14.94C61.3998 14.99 61.2298 15.03 61.0598 15.06C60.8898 15.1 60.7098 15.13 60.5198 15.15C60.3298 15.17 60.1198 15.18 59.8898 15.18C58.9498 15.18 58.2398 14.905 57.7598 14.355C57.2898 13.795 57.0548 13.04 57.0548 12.09V6.225H54.8948V4.485ZM65.569 9.285H63.694V7.65L65.674 7.56L65.959 5.58H67.774V7.56H70.924V9.285H67.774V11.895C67.774 12.465 67.899 12.87 68.149 13.11C68.399 13.34 68.794 13.455 69.334 13.455C69.624 13.455 69.889 13.43 70.129 13.38C70.369 13.33 70.599 13.265 70.819 13.185L71.209 14.775C70.879 14.875 70.509 14.965 70.099 15.045C69.699 15.135 69.259 15.18 68.779 15.18C68.189 15.18 67.689 15.1 67.279 14.94C66.869 14.78 66.534 14.56 66.274 14.28C66.024 13.99 65.844 13.645 65.734 13.245C65.624 12.845 65.569 12.4 65.569 11.91V9.285Z" transform="translate(7 36)" fill="white"/>
<path d="M81.9973 7.53H88.8973V9.09H81.9973V7.53ZM81.9973 10.995H88.8973V12.555H81.9973V10.995Z" transform="translate(7 36)" fill="#BDBDBD"/>
<path d="M100.586 12.435C100.906 12.715 101.261 12.945 101.651 13.125C102.051 13.305 102.471 13.395 102.911 13.395C103.431 13.395 103.856 13.3 104.186 13.11C104.526 12.91 104.696 12.63 104.696 12.27C104.696 12.06 104.651 11.87 104.561 11.7C104.471 11.53 104.316 11.39 104.096 11.28C103.876 11.16 103.581 11.07 103.211 11.01C102.841 10.94 102.376 10.905 101.816 10.905V9.345C102.756 9.345 103.416 9.23 103.796 9C104.186 8.76 104.381 8.45 104.381 8.07C104.381 7.74 104.256 7.485 104.006 7.305C103.756 7.115 103.411 7.02 102.971 7.02C102.591 7.02 102.241 7.095 101.921 7.245C101.601 7.395 101.276 7.6 100.946 7.86L99.8355 6.51C100.306 6.13 100.806 5.835 101.336 5.625C101.876 5.405 102.456 5.295 103.076 5.295C103.596 5.295 104.071 5.355 104.501 5.475C104.931 5.585 105.301 5.755 105.611 5.985C105.921 6.205 106.161 6.475 106.331 6.795C106.501 7.115 106.586 7.485 106.586 7.905C106.586 8.405 106.426 8.83 106.106 9.18C105.786 9.52 105.341 9.8 104.771 10.02V10.08C105.371 10.24 105.876 10.515 106.286 10.905C106.696 11.285 106.901 11.785 106.901 12.405C106.901 12.845 106.796 13.24 106.586 13.59C106.386 13.93 106.111 14.22 105.761 14.46C105.421 14.69 105.021 14.87 104.561 15C104.101 15.12 103.621 15.18 103.121 15.18C102.301 15.18 101.596 15.06 101.006 14.82C100.416 14.57 99.9355 14.24 99.5655 13.83L100.586 12.435ZM112.43 15.18C111.88 15.18 111.38 15.075 110.93 14.865C110.48 14.645 110.095 14.325 109.775 13.905C109.455 13.485 109.205 12.965 109.025 12.345C108.855 11.725 108.77 11.01 108.77 10.2C108.77 9.39 108.855 8.68 109.025 8.07C109.205 7.46 109.455 6.95 109.775 6.54C110.095 6.12 110.48 5.81 110.93 5.61C111.38 5.4 111.88 5.295 112.43 5.295C112.98 5.295 113.48 5.4 113.93 5.61C114.38 5.81 114.765 6.12 115.085 6.54C115.405 6.95 115.65 7.46 115.82 8.07C116 8.68 116.09 9.39 116.09 10.2C116.09 11.01 116 11.725 115.82 12.345C115.65 12.965 115.405 13.485 115.085 13.905C114.765 14.325 114.38 14.645 113.93 14.865C113.48 15.075 112.98 15.18 112.43 15.18ZM112.43 7.005C112.19 7.005 111.965 7.055 111.755 7.155C111.555 7.255 111.38 7.43 111.23 7.68C111.08 7.92 110.96 8.245 110.87 8.655C110.78 9.065 110.735 9.58 110.735 10.2C110.735 10.82 110.78 11.34 110.87 11.76C110.96 12.17 111.08 12.505 111.23 12.765C111.38 13.015 111.555 13.195 111.755 13.305C111.965 13.415 112.19 13.47 112.43 13.47C112.67 13.47 112.89 13.415 113.09 13.305C113.3 13.195 113.48 13.015 113.63 12.765C113.78 12.505 113.9 12.17 113.99 11.76C114.08 11.34 114.125 10.82 114.125 10.2C114.125 9.58 114.08 9.065 113.99 8.655C113.9 8.245 113.78 7.92 113.63 7.68C113.48 7.43 113.3 7.255 113.09 7.155C112.89 7.055 112.67 7.005 112.43 7.005ZM112.43 11.31C112.11 11.31 111.84 11.21 111.62 11.01C111.41 10.8 111.305 10.52 111.305 10.17C111.305 9.82 111.41 9.545 111.62 9.345C111.84 9.135 112.11 9.03 112.43 9.03C112.75 9.03 113.015 9.135 113.225 9.345C113.445 9.545 113.555 9.82 113.555 10.17C113.555 10.52 113.445 10.8 113.225 11.01C113.015 11.21 112.75 11.31 112.43 11.31Z" transform="translate(7 36)" fill="#F0E442"/>
</svg>
