<svg width="251" height="131" viewBox="0 0 251 131" fill="none" xmlns="http://www.w3.org/2000/svg">
<rect width="251" height="131" fill="white"/>
<rect width="251" height="131" fill="black"/>
<line x1="99.5" y1="101" x2="99.5" y2="80" stroke="white"/>
<path d="M202.109 64.4399C202.5 64.4399 202.817 64.3325 203.061 64.1177C203.305 63.9028 203.432 63.6172 203.442 63.2607H205.427C205.422 63.7979 205.275 64.291 204.987 64.7402C204.699 65.1846 204.304 65.5312 203.801 65.7803C203.303 66.0244 202.751 66.1465 202.146 66.1465C201.013 66.1465 200.119 65.7876 199.465 65.0698C198.811 64.3472 198.483 63.3511 198.483 62.0815V61.9424C198.483 60.7217 198.808 59.7476 199.458 59.02C200.107 58.2925 200.998 57.9287 202.131 57.9287C203.122 57.9287 203.916 58.2119 204.511 58.7783C205.112 59.3398 205.417 60.0894 205.427 61.0269H203.442C203.432 60.6167 203.305 60.2847 203.061 60.0308C202.817 59.772 202.495 59.6426 202.094 59.6426C201.601 59.6426 201.228 59.8232 200.974 60.1846C200.725 60.541 200.6 61.1221 200.6 61.9277V62.1475C200.6 62.9629 200.725 63.5488 200.974 63.9053C201.223 64.2617 201.601 64.4399 202.109 64.4399ZM206.306 61.9644C206.306 61.1782 206.457 60.4775 206.76 59.8623C207.062 59.2471 207.497 58.771 208.063 58.4341C208.635 58.0972 209.296 57.9287 210.048 57.9287C211.118 57.9287 211.989 58.2559 212.663 58.9102C213.342 59.5645 213.72 60.4531 213.798 61.5762L213.813 62.1182C213.813 63.334 213.474 64.3105 212.795 65.0479C212.116 65.7803 211.206 66.1465 210.063 66.1465C208.92 66.1465 208.007 65.7803 207.324 65.0479C206.645 64.3154 206.306 63.3193 206.306 62.0596V61.9644ZM208.422 62.1182C208.422 62.8701 208.564 63.4463 208.847 63.8467C209.13 64.2422 209.536 64.4399 210.063 64.4399C210.576 64.4399 210.976 64.2446 211.264 63.854C211.552 63.4585 211.696 62.8286 211.696 61.9644C211.696 61.2271 211.552 60.6558 211.264 60.2505C210.976 59.8452 210.571 59.6426 210.048 59.6426C209.531 59.6426 209.13 59.8452 208.847 60.2505C208.564 60.6509 208.422 61.2734 208.422 62.1182ZM214.787 61.979C214.787 60.7437 215.063 59.7598 215.615 59.0273C216.171 58.2949 216.931 57.9287 217.893 57.9287C218.664 57.9287 219.301 58.2168 219.804 58.793V54.75H221.928V66H220.017L219.914 65.1577C219.387 65.8169 218.708 66.1465 217.878 66.1465C216.945 66.1465 216.196 65.7803 215.629 65.0479C215.068 64.3105 214.787 63.2876 214.787 61.979ZM216.904 62.1328C216.904 62.875 217.033 63.4438 217.292 63.8394C217.551 64.2349 217.927 64.4326 218.42 64.4326C219.074 64.4326 219.536 64.1567 219.804 63.605V60.4775C219.541 59.9258 219.084 59.6499 218.435 59.6499C217.414 59.6499 216.904 60.4775 216.904 62.1328ZM227.216 66.1465C226.054 66.1465 225.107 65.79 224.375 65.0771C223.647 64.3643 223.283 63.4146 223.283 62.228V62.0229C223.283 61.2271 223.437 60.5166 223.745 59.8916C224.052 59.2617 224.487 58.7783 225.048 58.4414C225.615 58.0996 226.259 57.9287 226.982 57.9287C228.066 57.9287 228.918 58.2705 229.538 58.9541C230.163 59.6377 230.476 60.6069 230.476 61.8618V62.7261H225.429C225.498 63.2437 225.703 63.6587 226.044 63.9712C226.391 64.2837 226.828 64.4399 227.355 64.4399C228.171 64.4399 228.808 64.1445 229.267 63.5537L230.307 64.7183C229.99 65.1675 229.56 65.519 229.018 65.7729C228.476 66.022 227.875 66.1465 227.216 66.1465ZM226.975 59.6426C226.555 59.6426 226.213 59.7842 225.949 60.0674C225.69 60.3506 225.524 60.7559 225.451 61.2832H228.396V61.1147C228.386 60.646 228.259 60.2847 228.015 60.0308C227.771 59.772 227.424 59.6426 226.975 59.6426Z" fill="white"/>
<path d="M60.4053 119C60.3076 118.81 60.2368 118.573 60.1929 118.29C59.6802 118.861 59.0137 119.146 58.1934 119.146C57.417 119.146 56.7725 118.922 56.2598 118.473C55.752 118.023 55.498 117.457 55.498 116.773C55.498 115.934 55.8081 115.289 56.4282 114.84C57.0532 114.391 57.9541 114.164 59.1309 114.159H60.105V113.705C60.105 113.338 60.0098 113.045 59.8193 112.826C59.6338 112.606 59.3384 112.496 58.9331 112.496C58.5767 112.496 58.2959 112.582 58.0908 112.752C57.8906 112.923 57.7905 113.158 57.7905 113.456H55.6738C55.6738 112.997 55.8154 112.572 56.0986 112.181C56.3818 111.791 56.7822 111.485 57.2998 111.266C57.8174 111.041 58.3984 110.929 59.043 110.929C60.0195 110.929 60.7935 111.175 61.3647 111.668C61.9409 112.157 62.229 112.845 62.229 113.734V117.169C62.2339 117.921 62.3389 118.49 62.5439 118.875V119H60.4053ZM58.6548 117.528C58.9673 117.528 59.2554 117.459 59.519 117.323C59.7827 117.181 59.978 116.993 60.105 116.759V115.396H59.314C58.2544 115.396 57.6904 115.763 57.6221 116.495L57.6147 116.62C57.6147 116.883 57.7075 117.101 57.8931 117.271C58.0786 117.442 58.3325 117.528 58.6548 117.528ZM69.8242 119H67.7002V107.75H69.8242V119ZM73.8086 119H71.6846V111.075H73.8086V119ZM71.5601 109.024C71.5601 108.707 71.665 108.446 71.875 108.241C72.0898 108.036 72.3804 107.933 72.7466 107.933C73.1079 107.933 73.396 108.036 73.6108 108.241C73.8257 108.446 73.9331 108.707 73.9331 109.024C73.9331 109.347 73.8232 109.61 73.6035 109.815C73.3887 110.021 73.103 110.123 72.7466 110.123C72.3901 110.123 72.1021 110.021 71.8823 109.815C71.6675 109.61 71.5601 109.347 71.5601 109.024ZM77.5073 111.075L77.5732 111.991C78.1396 111.283 78.8989 110.929 79.8511 110.929C80.6909 110.929 81.3159 111.175 81.7261 111.668C82.1362 112.162 82.3462 112.899 82.356 113.88V119H80.2393V113.932C80.2393 113.482 80.1416 113.158 79.9463 112.958C79.751 112.752 79.4263 112.65 78.9722 112.65C78.3765 112.65 77.9297 112.904 77.6318 113.412V119H75.5151V111.075H77.5073ZM87.6147 119.146C86.4526 119.146 85.5054 118.79 84.7729 118.077C84.0454 117.364 83.6816 116.415 83.6816 115.228V115.023C83.6816 114.227 83.8354 113.517 84.1431 112.892C84.4507 112.262 84.8853 111.778 85.4468 111.441C86.0132 111.1 86.6577 110.929 87.3804 110.929C88.4644 110.929 89.3164 111.271 89.9365 111.954C90.5615 112.638 90.874 113.607 90.874 114.862V115.726H85.8276C85.896 116.244 86.1011 116.659 86.4429 116.971C86.7896 117.284 87.2266 117.44 87.7539 117.44C88.5693 117.44 89.2065 117.145 89.6655 116.554L90.7056 117.718C90.3882 118.167 89.9585 118.519 89.4165 118.773C88.8745 119.022 88.2739 119.146 87.6147 119.146ZM87.373 112.643C86.9531 112.643 86.6113 112.784 86.3477 113.067C86.0889 113.351 85.9229 113.756 85.8496 114.283H88.7939V114.115C88.7842 113.646 88.6572 113.285 88.4131 113.031C88.1689 112.772 87.8223 112.643 87.373 112.643ZM95.4883 114.964C95.4883 114.178 95.6396 113.478 95.9424 112.862C96.2451 112.247 96.6797 111.771 97.2461 111.434C97.8174 111.097 98.479 110.929 99.231 110.929C100.3 110.929 101.172 111.256 101.846 111.91C102.524 112.564 102.903 113.453 102.981 114.576L102.996 115.118C102.996 116.334 102.656 117.311 101.978 118.048C101.299 118.78 100.388 119.146 99.2456 119.146C98.103 119.146 97.1899 118.78 96.5063 118.048C95.8276 117.315 95.4883 116.319 95.4883 115.06V114.964ZM97.605 115.118C97.605 115.87 97.7466 116.446 98.0298 116.847C98.313 117.242 98.7183 117.44 99.2456 117.44C99.7583 117.44 100.159 117.245 100.447 116.854C100.735 116.458 100.879 115.829 100.879 114.964C100.879 114.227 100.735 113.656 100.447 113.25C100.159 112.845 99.7534 112.643 99.231 112.643C98.7134 112.643 98.313 112.845 98.0298 113.25C97.7466 113.651 97.605 114.273 97.605 115.118ZM104.878 119V112.628H103.699V111.075H104.878V110.401C104.878 109.513 105.132 108.824 105.64 108.336C106.152 107.843 106.868 107.596 107.786 107.596C108.079 107.596 108.438 107.645 108.862 107.743L108.84 109.383C108.665 109.339 108.45 109.317 108.196 109.317C107.4 109.317 107.002 109.691 107.002 110.438V111.075H108.577V112.628H107.002V119H104.878ZM116.707 117.44C117.097 117.44 117.415 117.333 117.659 117.118C117.903 116.903 118.03 116.617 118.04 116.261H120.024C120.02 116.798 119.873 117.291 119.585 117.74C119.297 118.185 118.901 118.531 118.398 118.78C117.9 119.024 117.349 119.146 116.743 119.146C115.61 119.146 114.717 118.788 114.062 118.07C113.408 117.347 113.081 116.351 113.081 115.082V114.942C113.081 113.722 113.406 112.748 114.055 112.02C114.705 111.292 115.596 110.929 116.729 110.929C117.72 110.929 118.513 111.212 119.109 111.778C119.709 112.34 120.015 113.089 120.024 114.027H118.04C118.03 113.617 117.903 113.285 117.659 113.031C117.415 112.772 117.092 112.643 116.692 112.643C116.199 112.643 115.825 112.823 115.571 113.185C115.322 113.541 115.198 114.122 115.198 114.928V115.147C115.198 115.963 115.322 116.549 115.571 116.905C115.82 117.262 116.199 117.44 116.707 117.44ZM120.903 114.964C120.903 114.178 121.055 113.478 121.357 112.862C121.66 112.247 122.095 111.771 122.661 111.434C123.232 111.097 123.894 110.929 124.646 110.929C125.715 110.929 126.587 111.256 127.261 111.91C127.939 112.564 128.318 113.453 128.396 114.576L128.411 115.118C128.411 116.334 128.071 117.311 127.393 118.048C126.714 118.78 125.803 119.146 124.661 119.146C123.518 119.146 122.605 118.78 121.921 118.048C121.243 117.315 120.903 116.319 120.903 115.06V114.964ZM123.02 115.118C123.02 115.87 123.162 116.446 123.445 116.847C123.728 117.242 124.133 117.44 124.661 117.44C125.173 117.44 125.574 117.245 125.862 116.854C126.15 116.458 126.294 115.829 126.294 114.964C126.294 114.227 126.15 113.656 125.862 113.25C125.574 112.845 125.168 112.643 124.646 112.643C124.128 112.643 123.728 112.845 123.445 113.25C123.162 113.651 123.02 114.273 123.02 115.118ZM129.385 114.979C129.385 113.744 129.661 112.76 130.212 112.027C130.769 111.295 131.528 110.929 132.49 110.929C133.262 110.929 133.899 111.217 134.402 111.793V107.75H136.526V119H134.614L134.512 118.158C133.984 118.817 133.306 119.146 132.476 119.146C131.543 119.146 130.793 118.78 130.227 118.048C129.666 117.311 129.385 116.288 129.385 114.979ZM131.501 115.133C131.501 115.875 131.631 116.444 131.89 116.839C132.148 117.235 132.524 117.433 133.018 117.433C133.672 117.433 134.133 117.157 134.402 116.605V113.478C134.138 112.926 133.682 112.65 133.032 112.65C132.012 112.65 131.501 113.478 131.501 115.133ZM141.814 119.146C140.652 119.146 139.705 118.79 138.972 118.077C138.245 117.364 137.881 116.415 137.881 115.228V115.023C137.881 114.227 138.035 113.517 138.342 112.892C138.65 112.262 139.084 111.778 139.646 111.441C140.212 111.1 140.857 110.929 141.58 110.929C142.664 110.929 143.516 111.271 144.136 111.954C144.761 112.638 145.073 113.607 145.073 114.862V115.726H140.027C140.095 116.244 140.3 116.659 140.642 116.971C140.989 117.284 141.426 117.44 141.953 117.44C142.769 117.44 143.406 117.145 143.865 116.554L144.905 117.718C144.587 118.167 144.158 118.519 143.616 118.773C143.074 119.022 142.473 119.146 141.814 119.146ZM141.572 112.643C141.152 112.643 140.811 112.784 140.547 113.067C140.288 113.351 140.122 113.756 140.049 114.283H142.993V114.115C142.983 113.646 142.856 113.285 142.612 113.031C142.368 112.772 142.021 112.643 141.572 112.643Z" fill="white"/>
<path d="M184 88.9942C186.58 88.9942 187.687 89.1478 187.548 87.879C187.548 87.879 187.548 65.1256 187.548 63.5647C187.548 62.0038 193.903 62.0475 193.999 62.0038C194.094 61.9601 187.671 61.9346 187.548 60.4429C187.425 58.9512 187.533 38.2405 187.548 36.4719C187.563 34.7033 184 35.0224 184 35.0224" stroke="white" stroke-width="2"/>
<path d="M9.285 47.585V49.76H7.08V39.56H8.88L9.045 40.31H9.09C9.39 40.04 9.735 39.82 10.125 39.65C10.515 39.47 10.91 39.38 11.31 39.38C11.77 39.38 12.185 39.47 12.555 39.65C12.925 39.83 13.24 40.085 13.5 40.415C13.76 40.745 13.955 41.145 14.085 41.615C14.225 42.075 14.295 42.59 14.295 43.16C14.295 43.8 14.205 44.37 14.025 44.87C13.845 45.36 13.605 45.78 13.305 46.13C13.005 46.47 12.66 46.73 12.27 46.91C11.89 47.09 11.49 47.18 11.07 47.18C10.39 47.18 9.77 46.91 9.21 46.37L9.285 47.585ZM9.285 44.885C9.495 45.065 9.71 45.195 9.93 45.275C10.16 45.345 10.37 45.38 10.56 45.38C10.98 45.38 11.33 45.21 11.61 44.87C11.89 44.52 12.03 43.96 12.03 43.19C12.03 41.85 11.575 41.18 10.665 41.18C10.195 41.18 9.735 41.41 9.285 41.87V44.885ZM16.7341 39.56H18.5341L18.7141 41.18H18.7591C19.1291 40.57 19.5741 40.12 20.0941 39.83C20.6141 39.53 21.1741 39.38 21.7741 39.38C22.1041 39.38 22.3691 39.405 22.5691 39.455C22.7791 39.505 22.9941 39.58 23.2141 39.68L22.7641 41.525C22.5341 41.455 22.3241 41.405 22.1341 41.375C21.9541 41.335 21.7241 41.315 21.4441 41.315C20.9841 41.315 20.5291 41.45 20.0791 41.72C19.6391 41.99 19.2591 42.46 18.9391 43.13V47H16.7341V39.56ZM25.1733 39.56H30.3633V47H28.1583V41.285H25.1733V39.56ZM29.1633 38.465C28.7333 38.465 28.3783 38.345 28.0983 38.105C27.8283 37.865 27.6933 37.54 27.6933 37.13C27.6933 36.72 27.8283 36.39 28.0983 36.14C28.3783 35.88 28.7333 35.75 29.1633 35.75C29.5933 35.75 29.9433 35.88 30.2133 36.14C30.4933 36.39 30.6333 36.72 30.6333 37.13C30.6333 37.54 30.4933 37.865 30.2133 38.105C29.9433 38.345 29.5933 38.465 29.1633 38.465ZM34.0624 39.56H35.8624L36.0274 40.55H36.0874C36.4074 40.23 36.7724 39.955 37.1824 39.725C37.6024 39.495 38.0924 39.38 38.6524 39.38C39.4924 39.38 40.1074 39.65 40.4974 40.19C40.8874 40.73 41.0824 41.47 41.0824 42.41V47H38.8774V42.695C38.8774 42.195 38.7974 41.83 38.6374 41.6C38.4774 41.37 38.1924 41.255 37.7824 41.255C37.4824 41.255 37.2174 41.32 36.9874 41.45C36.7674 41.58 36.5274 41.775 36.2674 42.035V47H34.0624V39.56ZM44.5866 41.285H42.7116V39.65L44.6916 39.56L44.9766 37.58H46.7916V39.56H49.9416V41.285H46.7916V43.895C46.7916 44.465 46.9166 44.87 47.1666 45.11C47.4166 45.34 47.8116 45.455 48.3516 45.455C48.6416 45.455 48.9066 45.43 49.1466 45.38C49.3866 45.33 49.6166 45.265 49.8366 45.185L50.2266 46.775C49.8966 46.875 49.5266 46.965 49.1166 47.045C48.7166 47.135 48.2766 47.18 47.7966 47.18C47.2066 47.18 46.7066 47.1 46.2966 46.94C45.8866 46.78 45.5516 46.56 45.2916 46.28C45.0416 45.99 44.8616 45.645 44.7516 45.245C44.6416 44.845 44.5866 44.4 44.5866 43.91V41.285ZM9.285 66.585V68.76H7.08V58.56H8.88L9.045 59.31H9.09C9.39 59.04 9.735 58.82 10.125 58.65C10.515 58.47 10.91 58.38 11.31 58.38C11.77 58.38 12.185 58.47 12.555 58.65C12.925 58.83 13.24 59.085 13.5 59.415C13.76 59.745 13.955 60.145 14.085 60.615C14.225 61.075 14.295 61.59 14.295 62.16C14.295 62.8 14.205 63.37 14.025 63.87C13.845 64.36 13.605 64.78 13.305 65.13C13.005 65.47 12.66 65.73 12.27 65.91C11.89 66.09 11.49 66.18 11.07 66.18C10.39 66.18 9.77 65.91 9.21 65.37L9.285 66.585ZM9.285 63.885C9.495 64.065 9.71 64.195 9.93 64.275C10.16 64.345 10.37 64.38 10.56 64.38C10.98 64.38 11.33 64.21 11.61 63.87C11.89 63.52 12.03 62.96 12.03 62.19C12.03 60.85 11.575 60.18 10.665 60.18C10.195 60.18 9.735 60.41 9.285 60.87V63.885ZM16.7341 58.56H18.5341L18.7141 60.18H18.7591C19.1291 59.57 19.5741 59.12 20.0941 58.83C20.6141 58.53 21.1741 58.38 21.7741 58.38C22.1041 58.38 22.3691 58.405 22.5691 58.455C22.7791 58.505 22.9941 58.58 23.2141 58.68L22.7641 60.525C22.5341 60.455 22.3241 60.405 22.1341 60.375C21.9541 60.335 21.7241 60.315 21.4441 60.315C20.9841 60.315 20.5291 60.45 20.0791 60.72C19.6391 60.99 19.2591 61.46 18.9391 62.13V66H16.7341V58.56ZM25.1733 58.56H30.3633V66H28.1583V60.285H25.1733V58.56ZM29.1633 57.465C28.7333 57.465 28.3783 57.345 28.0983 57.105C27.8283 56.865 27.6933 56.54 27.6933 56.13C27.6933 55.72 27.8283 55.39 28.0983 55.14C28.3783 54.88 28.7333 54.75 29.1633 54.75C29.5933 54.75 29.9433 54.88 30.2133 55.14C30.4933 55.39 30.6333 55.72 30.6333 56.13C30.6333 56.54 30.4933 56.865 30.2133 57.105C29.9433 57.345 29.5933 57.465 29.1633 57.465ZM34.0624 58.56H35.8624L36.0274 59.55H36.0874C36.4074 59.23 36.7724 58.955 37.1824 58.725C37.6024 58.495 38.0924 58.38 38.6524 58.38C39.4924 58.38 40.1074 58.65 40.4974 59.19C40.8874 59.73 41.0824 60.47 41.0824 61.41V66H38.8774V61.695C38.8774 61.195 38.7974 60.83 38.6374 60.6C38.4774 60.37 38.1924 60.255 37.7824 60.255C37.4824 60.255 37.2174 60.32 36.9874 60.45C36.7674 60.58 36.5274 60.775 36.2674 61.035V66H34.0624V58.56ZM44.5866 60.285H42.7116V58.65L44.6916 58.56L44.9766 56.58H46.7916V58.56H49.9416V60.285H46.7916V62.895C46.7916 63.465 46.9166 63.87 47.1666 64.11C47.4166 64.34 47.8116 64.455 48.3516 64.455C48.6416 64.455 48.9066 64.43 49.1466 64.38C49.3866 64.33 49.6166 64.265 49.8366 64.185L50.2266 65.775C49.8966 65.875 49.5266 65.965 49.1166 66.045C48.7166 66.135 48.2766 66.18 47.7966 66.18C47.2066 66.18 46.7066 66.1 46.2966 65.94C45.8866 65.78 45.5516 65.56 45.2916 65.28C45.0416 64.99 44.8616 64.645 44.7516 64.245C44.6416 63.845 44.5866 63.4 44.5866 62.91V60.285ZM9.285 84.585V86.76H7.08V76.56H8.88L9.045 77.31H9.09C9.39 77.04 9.735 76.82 10.125 76.65C10.515 76.47 10.91 76.38 11.31 76.38C11.77 76.38 12.185 76.47 12.555 76.65C12.925 76.83 13.24 77.085 13.5 77.415C13.76 77.745 13.955 78.145 14.085 78.615C14.225 79.075 14.295 79.59 14.295 80.16C14.295 80.8 14.205 81.37 14.025 81.87C13.845 82.36 13.605 82.78 13.305 83.13C13.005 83.47 12.66 83.73 12.27 83.91C11.89 84.09 11.49 84.18 11.07 84.18C10.39 84.18 9.77 83.91 9.21 83.37L9.285 84.585ZM9.285 81.885C9.495 82.065 9.71 82.195 9.93 82.275C10.16 82.345 10.37 82.38 10.56 82.38C10.98 82.38 11.33 82.21 11.61 81.87C11.89 81.52 12.03 80.96 12.03 80.19C12.03 78.85 11.575 78.18 10.665 78.18C10.195 78.18 9.735 78.41 9.285 78.87V81.885ZM16.7341 76.56H18.5341L18.7141 78.18H18.7591C19.1291 77.57 19.5741 77.12 20.0941 76.83C20.6141 76.53 21.1741 76.38 21.7741 76.38C22.1041 76.38 22.3691 76.405 22.5691 76.455C22.7791 76.505 22.9941 76.58 23.2141 76.68L22.7641 78.525C22.5341 78.455 22.3241 78.405 22.1341 78.375C21.9541 78.335 21.7241 78.315 21.4441 78.315C20.9841 78.315 20.5291 78.45 20.0791 78.72C19.6391 78.99 19.2591 79.46 18.9391 80.13V84H16.7341V76.56ZM25.1733 76.56H30.3633V84H28.1583V78.285H25.1733V76.56ZM29.1633 75.465C28.7333 75.465 28.3783 75.345 28.0983 75.105C27.8283 74.865 27.6933 74.54 27.6933 74.13C27.6933 73.72 27.8283 73.39 28.0983 73.14C28.3783 72.88 28.7333 72.75 29.1633 72.75C29.5933 72.75 29.9433 72.88 30.2133 73.14C30.4933 73.39 30.6333 73.72 30.6333 74.13C30.6333 74.54 30.4933 74.865 30.2133 75.105C29.9433 75.345 29.5933 75.465 29.1633 75.465ZM34.0624 76.56H35.8624L36.0274 77.55H36.0874C36.4074 77.23 36.7724 76.955 37.1824 76.725C37.6024 76.495 38.0924 76.38 38.6524 76.38C39.4924 76.38 40.1074 76.65 40.4974 77.19C40.8874 77.73 41.0824 78.47 41.0824 79.41V84H38.8774V79.695C38.8774 79.195 38.7974 78.83 38.6374 78.6C38.4774 78.37 38.1924 78.255 37.7824 78.255C37.4824 78.255 37.2174 78.32 36.9874 78.45C36.7674 78.58 36.5274 78.775 36.2674 79.035V84H34.0624V76.56ZM44.5866 78.285H42.7116V76.65L44.6916 76.56L44.9766 74.58H46.7916V76.56H49.9416V78.285H46.7916V80.895C46.7916 81.465 46.9166 81.87 47.1666 82.11C47.4166 82.34 47.8116 82.455 48.3516 82.455C48.6416 82.455 48.9066 82.43 49.1466 82.38C49.3866 82.33 49.6166 82.265 49.8366 82.185L50.2266 83.775C49.8966 83.875 49.5266 83.965 49.1166 84.045C48.7166 84.135 48.2766 84.18 47.7966 84.18C47.2066 84.18 46.7066 84.1 46.2966 83.94C45.8866 83.78 45.5516 83.56 45.2916 83.28C45.0416 82.99 44.8616 82.645 44.7516 82.245C44.6416 81.845 44.5866 81.4 44.5866 80.91V78.285Z" fill="#56B4E9"/>
<path d="M56.8507 49.685C55.8707 48.815 55.0957 47.81 54.5257 46.67C53.9657 45.53 53.6857 44.25 53.6857 42.83C53.6857 41.41 53.9657 40.13 54.5257 38.99C55.0957 37.85 55.8707 36.845 56.8507 35.975L58.0807 36.95C57.1907 37.82 56.5407 38.725 56.1307 39.665C55.7307 40.595 55.5307 41.65 55.5307 42.83C55.5307 43.42 55.5807 43.98 55.6807 44.51C55.7807 45.03 55.9307 45.53 56.1307 46.01C56.3407 46.49 56.6057 46.95 56.9257 47.39C57.2457 47.84 57.6307 48.28 58.0807 48.71L56.8507 49.685ZM169.785 48.71C170.235 48.28 170.62 47.84 170.94 47.39C171.26 46.95 171.52 46.49 171.72 46.01C171.93 45.53 172.085 45.03 172.185 44.51C172.285 43.98 172.335 43.42 172.335 42.83C172.335 41.65 172.13 40.595 171.72 39.665C171.32 38.725 170.675 37.82 169.785 36.95L171.015 35.975C171.995 36.845 172.765 37.85 173.325 38.99C173.895 40.13 174.18 41.41 174.18 42.83C174.18 44.25 173.895 45.53 173.325 46.67C172.765 47.81 171.995 48.815 171.015 49.685L169.785 48.71ZM56.8507 68.685C55.8707 67.815 55.0957 66.81 54.5257 65.67C53.9657 64.53 53.6857 63.25 53.6857 61.83C53.6857 60.41 53.9657 59.13 54.5257 57.99C55.0957 56.85 55.8707 55.845 56.8507 54.975L58.0807 55.95C57.1907 56.82 56.5407 57.725 56.1307 58.665C55.7307 59.595 55.5307 60.65 55.5307 61.83C55.5307 62.42 55.5807 62.98 55.6807 63.51C55.7807 64.03 55.9307 64.53 56.1307 65.01C56.3407 65.49 56.6057 65.95 56.9257 66.39C57.2457 66.84 57.6307 67.28 58.0807 67.71L56.8507 68.685ZM70.849 67.71C71.299 67.28 71.684 66.84 72.004 66.39C72.324 65.95 72.584 65.49 72.784 65.01C72.994 64.53 73.149 64.03 73.249 63.51C73.349 62.98 73.399 62.42 73.399 61.83C73.399 60.65 73.194 59.595 72.784 58.665C72.384 57.725 71.739 56.82 70.849 55.95L72.079 54.975C73.059 55.845 73.829 56.85 74.389 57.99C74.959 59.13 75.244 60.41 75.244 61.83C75.244 63.25 74.959 64.53 74.389 65.67C73.829 66.81 73.059 67.815 72.079 68.685L70.849 67.71ZM56.8507 86.685C55.8707 85.815 55.0957 84.81 54.5257 83.67C53.9657 82.53 53.6857 81.25 53.6857 79.83C53.6857 78.41 53.9657 77.13 54.5257 75.99C55.0957 74.85 55.8707 73.845 56.8507 72.975L58.0807 73.95C57.1907 74.82 56.5407 75.725 56.1307 76.665C55.7307 77.595 55.5307 78.65 55.5307 79.83C55.5307 80.42 55.5807 80.98 55.6807 81.51C55.7807 82.03 55.9307 82.53 56.1307 83.01C56.3407 83.49 56.6057 83.95 56.9257 84.39C57.2457 84.84 57.6307 85.28 58.0807 85.71L56.8507 86.685ZM79.8431 85.71C80.2931 85.28 80.6781 84.84 80.9981 84.39C81.3181 83.95 81.5781 83.49 81.7781 83.01C81.9881 82.53 82.1431 82.03 82.2431 81.51C82.3431 80.98 82.3931 80.42 82.3931 79.83C82.3931 78.65 82.1881 77.595 81.7781 76.665C81.3781 75.725 80.7331 74.82 79.8431 73.95L81.0731 72.975C82.0531 73.845 82.8231 74.85 83.3831 75.99C83.9531 77.13 84.2381 78.41 84.2381 79.83C84.2381 81.25 83.9531 82.53 83.3831 83.67C82.8231 84.81 82.0531 85.815 81.0731 86.685L79.8431 85.71Z" fill="white"/>
<path d="M61.6148 44.435C61.9348 44.715 62.2898 44.945 62.6798 45.125C63.0798 45.305 63.4998 45.395 63.9398 45.395C64.4598 45.395 64.8848 45.3 65.2148 45.11C65.5548 44.91 65.7248 44.63 65.7248 44.27C65.7248 44.06 65.6798 43.87 65.5898 43.7C65.4998 43.53 65.3448 43.39 65.1248 43.28C64.9048 43.16 64.6098 43.07 64.2398 43.01C63.8698 42.94 63.4048 42.905 62.8448 42.905V41.345C63.7848 41.345 64.4448 41.23 64.8248 41C65.2148 40.76 65.4098 40.45 65.4098 40.07C65.4098 39.74 65.2848 39.485 65.0348 39.305C64.7848 39.115 64.4398 39.02 63.9998 39.02C63.6198 39.02 63.2698 39.095 62.9498 39.245C62.6298 39.395 62.3048 39.6 61.9748 39.86L60.8648 38.51C61.3348 38.13 61.8348 37.835 62.3648 37.625C62.9048 37.405 63.4848 37.295 64.1048 37.295C64.6248 37.295 65.0998 37.355 65.5298 37.475C65.9598 37.585 66.3298 37.755 66.6398 37.985C66.9498 38.205 67.1898 38.475 67.3598 38.795C67.5298 39.115 67.6148 39.485 67.6148 39.905C67.6148 40.405 67.4548 40.83 67.1348 41.18C66.8148 41.52 66.3698 41.8 65.7998 42.02V42.08C66.3998 42.24 66.9048 42.515 67.3148 42.905C67.7248 43.285 67.9298 43.785 67.9298 44.405C67.9298 44.845 67.8248 45.24 67.6148 45.59C67.4148 45.93 67.1398 46.22 66.7898 46.46C66.4498 46.69 66.0498 46.87 65.5898 47C65.1298 47.12 64.6498 47.18 64.1498 47.18C63.3298 47.18 62.6248 47.06 62.0348 46.82C61.4448 46.57 60.9648 46.24 60.5948 45.83L61.6148 44.435ZM73.459 47.18C72.909 47.18 72.409 47.075 71.959 46.865C71.509 46.645 71.124 46.325 70.804 45.905C70.484 45.485 70.234 44.965 70.054 44.345C69.884 43.725 69.799 43.01 69.799 42.2C69.799 41.39 69.884 40.68 70.054 40.07C70.234 39.46 70.484 38.95 70.804 38.54C71.124 38.12 71.509 37.81 71.959 37.61C72.409 37.4 72.909 37.295 73.459 37.295C74.009 37.295 74.509 37.4 74.959 37.61C75.409 37.81 75.794 38.12 76.114 38.54C76.434 38.95 76.679 39.46 76.849 40.07C77.029 40.68 77.119 41.39 77.119 42.2C77.119 43.01 77.029 43.725 76.849 44.345C76.679 44.965 76.434 45.485 76.114 45.905C75.794 46.325 75.409 46.645 74.959 46.865C74.509 47.075 74.009 47.18 73.459 47.18ZM73.459 39.005C73.219 39.005 72.994 39.055 72.784 39.155C72.584 39.255 72.409 39.43 72.259 39.68C72.109 39.92 71.989 40.245 71.899 40.655C71.809 41.065 71.764 41.58 71.764 42.2C71.764 42.82 71.809 43.34 71.899 43.76C71.989 44.17 72.109 44.505 72.259 44.765C72.409 45.015 72.584 45.195 72.784 45.305C72.994 45.415 73.219 45.47 73.459 45.47C73.699 45.47 73.919 45.415 74.119 45.305C74.329 45.195 74.509 45.015 74.659 44.765C74.809 44.505 74.929 44.17 75.019 43.76C75.109 43.34 75.154 42.82 75.154 42.2C75.154 41.58 75.109 41.065 75.019 40.655C74.929 40.245 74.809 39.92 74.659 39.68C74.509 39.43 74.329 39.255 74.119 39.155C73.919 39.055 73.699 39.005 73.459 39.005ZM73.459 43.31C73.139 43.31 72.869 43.21 72.649 43.01C72.439 42.8 72.334 42.52 72.334 42.17C72.334 41.82 72.439 41.545 72.649 41.345C72.869 41.135 73.139 41.03 73.459 41.03C73.779 41.03 74.044 41.135 74.254 41.345C74.474 41.545 74.584 41.82 74.584 42.17C74.584 42.52 74.474 42.8 74.254 43.01C74.044 43.21 73.779 43.31 73.459 43.31ZM112.991 45.215V47H106.166V45.215H108.626V39.71H106.661V38.345C107.221 38.245 107.696 38.125 108.086 37.985C108.486 37.845 108.861 37.675 109.211 37.475H110.831V45.215H112.991ZM118.43 47.18C117.88 47.18 117.38 47.075 116.93 46.865C116.48 46.645 116.095 46.325 115.775 45.905C115.455 45.485 115.205 44.965 115.025 44.345C114.855 43.725 114.77 43.01 114.77 42.2C114.77 41.39 114.855 40.68 115.025 40.07C115.205 39.46 115.455 38.95 115.775 38.54C116.095 38.12 116.48 37.81 116.93 37.61C117.38 37.4 117.88 37.295 118.43 37.295C118.98 37.295 119.48 37.4 119.93 37.61C120.38 37.81 120.765 38.12 121.085 38.54C121.405 38.95 121.65 39.46 121.82 40.07C122 40.68 122.09 41.39 122.09 42.2C122.09 43.01 122 43.725 121.82 44.345C121.65 44.965 121.405 45.485 121.085 45.905C120.765 46.325 120.38 46.645 119.93 46.865C119.48 47.075 118.98 47.18 118.43 47.18ZM118.43 39.005C118.19 39.005 117.965 39.055 117.755 39.155C117.555 39.255 117.38 39.43 117.23 39.68C117.08 39.92 116.96 40.245 116.87 40.655C116.78 41.065 116.735 41.58 116.735 42.2C116.735 42.82 116.78 43.34 116.87 43.76C116.96 44.17 117.08 44.505 117.23 44.765C117.38 45.015 117.555 45.195 117.755 45.305C117.965 45.415 118.19 45.47 118.43 45.47C118.67 45.47 118.89 45.415 119.09 45.305C119.3 45.195 119.48 45.015 119.63 44.765C119.78 44.505 119.9 44.17 119.99 43.76C120.08 43.34 120.125 42.82 120.125 42.2C120.125 41.58 120.08 41.065 119.99 40.655C119.9 40.245 119.78 39.92 119.63 39.68C119.48 39.43 119.3 39.255 119.09 39.155C118.89 39.055 118.67 39.005 118.43 39.005ZM118.43 43.31C118.11 43.31 117.84 43.21 117.62 43.01C117.41 42.8 117.305 42.52 117.305 42.17C117.305 41.82 117.41 41.545 117.62 41.345C117.84 41.135 118.11 41.03 118.43 41.03C118.75 41.03 119.015 41.135 119.225 41.345C119.445 41.545 119.555 41.82 119.555 42.17C119.555 42.52 119.445 42.8 119.225 43.01C119.015 43.21 118.75 43.31 118.43 43.31ZM155.021 43.04V41.435C155.021 41.135 155.026 40.79 155.036 40.4C155.056 40 155.076 39.65 155.096 39.35H155.036C154.876 39.62 154.706 39.89 154.526 40.16C154.346 40.43 154.171 40.7 154.001 40.97L152.561 43.04H155.021ZM158.276 44.72H157.076V47H155.021V44.72H150.431V43.205L154.406 37.475H157.076V43.04H158.276V44.72ZM163.4 47.18C162.85 47.18 162.35 47.075 161.9 46.865C161.45 46.645 161.065 46.325 160.745 45.905C160.425 45.485 160.175 44.965 159.995 44.345C159.825 43.725 159.74 43.01 159.74 42.2C159.74 41.39 159.825 40.68 159.995 40.07C160.175 39.46 160.425 38.95 160.745 38.54C161.065 38.12 161.45 37.81 161.9 37.61C162.35 37.4 162.85 37.295 163.4 37.295C163.95 37.295 164.45 37.4 164.9 37.61C165.35 37.81 165.735 38.12 166.055 38.54C166.375 38.95 166.62 39.46 166.79 40.07C166.97 40.68 167.06 41.39 167.06 42.2C167.06 43.01 166.97 43.725 166.79 44.345C166.62 44.965 166.375 45.485 166.055 45.905C165.735 46.325 165.35 46.645 164.9 46.865C164.45 47.075 163.95 47.18 163.4 47.18ZM163.4 39.005C163.16 39.005 162.935 39.055 162.725 39.155C162.525 39.255 162.35 39.43 162.2 39.68C162.05 39.92 161.93 40.245 161.84 40.655C161.75 41.065 161.705 41.58 161.705 42.2C161.705 42.82 161.75 43.34 161.84 43.76C161.93 44.17 162.05 44.505 162.2 44.765C162.35 45.015 162.525 45.195 162.725 45.305C162.935 45.415 163.16 45.47 163.4 45.47C163.64 45.47 163.86 45.415 164.06 45.305C164.27 45.195 164.45 45.015 164.6 44.765C164.75 44.505 164.87 44.17 164.96 43.76C165.05 43.34 165.095 42.82 165.095 42.2C165.095 41.58 165.05 41.065 164.96 40.655C164.87 40.245 164.75 39.92 164.6 39.68C164.45 39.43 164.27 39.255 164.06 39.155C163.86 39.055 163.64 39.005 163.4 39.005ZM163.4 43.31C163.08 43.31 162.81 43.21 162.59 43.01C162.38 42.8 162.275 42.52 162.275 42.17C162.275 41.82 162.38 41.545 162.59 41.345C162.81 41.135 163.08 41.03 163.4 41.03C163.72 41.03 163.985 41.135 164.195 41.345C164.415 41.545 164.525 41.82 164.525 42.17C164.525 42.52 164.415 42.8 164.195 43.01C163.985 43.21 163.72 43.31 163.4 43.31ZM65.0798 62.04V60.435C65.0798 60.135 65.0848 59.79 65.0948 59.4C65.1148 59 65.1348 58.65 65.1548 58.35H65.0948C64.9348 58.62 64.7648 58.89 64.5848 59.16C64.4048 59.43 64.2298 59.7 64.0598 59.97L62.6198 62.04H65.0798ZM68.3348 63.72H67.1348V66H65.0798V63.72H60.4898V62.205L64.4648 56.475H67.1348V62.04H68.3348V63.72ZM70.609 81.435C70.929 81.715 71.284 81.945 71.674 82.125C72.074 82.305 72.494 82.395 72.934 82.395C73.454 82.395 73.879 82.3 74.209 82.11C74.549 81.91 74.719 81.63 74.719 81.27C74.719 81.06 74.674 80.87 74.584 80.7C74.494 80.53 74.339 80.39 74.119 80.28C73.899 80.16 73.604 80.07 73.234 80.01C72.864 79.94 72.399 79.905 71.839 79.905V78.345C72.779 78.345 73.439 78.23 73.819 78C74.209 77.76 74.404 77.45 74.404 77.07C74.404 76.74 74.279 76.485 74.029 76.305C73.779 76.115 73.434 76.02 72.994 76.02C72.614 76.02 72.264 76.095 71.944 76.245C71.624 76.395 71.299 76.6 70.969 76.86L69.859 75.51C70.329 75.13 70.829 74.835 71.359 74.625C71.899 74.405 72.479 74.295 73.099 74.295C73.619 74.295 74.094 74.355 74.524 74.475C74.954 74.585 75.324 74.755 75.634 74.985C75.944 75.205 76.184 75.475 76.354 75.795C76.524 76.115 76.609 76.485 76.609 76.905C76.609 77.405 76.449 77.83 76.129 78.18C75.809 78.52 75.364 78.8 74.794 79.02V79.08C75.394 79.24 75.899 79.515 76.309 79.905C76.719 80.285 76.924 80.785 76.924 81.405C76.924 81.845 76.819 82.24 76.609 82.59C76.409 82.93 76.134 83.22 75.784 83.46C75.444 83.69 75.044 83.87 74.584 84C74.124 84.12 73.644 84.18 73.144 84.18C72.324 84.18 71.619 84.06 71.029 83.82C70.439 83.57 69.959 83.24 69.589 82.83L70.609 81.435Z" fill="#F0E442"/>
<path d="M90.6373 42.83H87.9973V41.27H90.6373V38.51H92.2573V41.27H94.8973V42.83H92.2573V45.59H90.6373V42.83ZM135.608 42.83H132.968V41.27H135.608V38.51H137.228V41.27H139.868V42.83H137.228V45.59H135.608V42.83ZM61.0148 78.27H67.9148V79.83H61.0148V78.27Z" fill="#E0E0E0"/>
<rect x="89" width="162" height="26" fill="#333333"/>
<rect x="89" width="162" height="26" fill="#333333"/>
<rect width="89" height="26" fill="#090808"/>
<path d="M17.105 16.8101C17.105 16.5513 16.9756 16.3486 16.7168 16.2021C16.4629 16.0508 16.0527 15.9165 15.4863 15.7993C13.6016 15.4038 12.6592 14.603 12.6592 13.397C12.6592 12.6938 12.9497 12.1079 13.5308 11.6392C14.1167 11.1655 14.8809 10.9287 15.8232 10.9287C16.8291 10.9287 17.6323 11.1655 18.2329 11.6392C18.8384 12.1128 19.1411 12.728 19.1411 13.4849H17.0244C17.0244 13.1821 16.9268 12.9331 16.7314 12.7378C16.5361 12.5376 16.231 12.4375 15.8159 12.4375C15.4595 12.4375 15.1836 12.5181 14.9883 12.6792C14.793 12.8403 14.6953 13.0454 14.6953 13.2944C14.6953 13.5288 14.8052 13.7192 15.0249 13.8657C15.2495 14.0073 15.6255 14.1318 16.1528 14.2393C16.6802 14.3418 17.1245 14.459 17.4858 14.5908C18.604 15.001 19.1631 15.7114 19.1631 16.7222C19.1631 17.4448 18.853 18.0308 18.2329 18.48C17.6128 18.9243 16.812 19.1465 15.8306 19.1465C15.1665 19.1465 14.5757 19.0293 14.0581 18.7949C13.5454 18.5557 13.1426 18.231 12.8496 17.8208C12.5566 17.4058 12.4102 16.959 12.4102 16.4805H14.417C14.4365 16.8564 14.5757 17.1445 14.8345 17.3447C15.0933 17.5449 15.4399 17.645 15.8745 17.645C16.2798 17.645 16.585 17.5693 16.79 17.418C17 17.2617 17.105 17.0591 17.105 16.8101ZM23.8286 17.4399C24.2192 17.4399 24.5366 17.3325 24.7808 17.1177C25.0249 16.9028 25.1519 16.6172 25.1616 16.2607H27.1465C27.1416 16.7979 26.9951 17.291 26.707 17.7402C26.4189 18.1846 26.0234 18.5312 25.5205 18.7803C25.0225 19.0244 24.4707 19.1465 23.8652 19.1465C22.7324 19.1465 21.8389 18.7876 21.1846 18.0698C20.5303 17.3472 20.2031 16.3511 20.2031 15.0815V14.9424C20.2031 13.7217 20.5278 12.7476 21.1772 12.02C21.8267 11.2925 22.7178 10.9287 23.8506 10.9287C24.8418 10.9287 25.6353 11.2119 26.231 11.7783C26.8315 12.3398 27.1367 13.0894 27.1465 14.0269H25.1616C25.1519 13.6167 25.0249 13.2847 24.7808 13.0308C24.5366 12.772 24.2144 12.6426 23.814 12.6426C23.3208 12.6426 22.9473 12.8232 22.6934 13.1846C22.4443 13.541 22.3198 14.1221 22.3198 14.9277V15.1475C22.3198 15.9629 22.4443 16.5488 22.6934 16.9053C22.9424 17.2617 23.3208 17.4399 23.8286 17.4399ZM32.8081 13.0601C32.52 13.021 32.2661 13.0015 32.0464 13.0015C31.2456 13.0015 30.7207 13.2725 30.4717 13.8145V19H28.355V11.0752H30.3545L30.4131 12.02C30.8379 11.2925 31.4263 10.9287 32.1782 10.9287C32.4126 10.9287 32.6323 10.9604 32.8374 11.0239L32.8081 13.0601ZM36.0674 19H33.9434V11.0752H36.0674V19ZM33.8188 9.02441C33.8188 8.70703 33.9238 8.4458 34.1338 8.24072C34.3486 8.03564 34.6392 7.93311 35.0054 7.93311C35.3667 7.93311 35.6548 8.03564 35.8696 8.24072C36.0845 8.4458 36.1919 8.70703 36.1919 9.02441C36.1919 9.34668 36.082 9.61035 35.8623 9.81543C35.6475 10.0205 35.3618 10.123 35.0054 10.123C34.6489 10.123 34.3608 10.0205 34.1411 9.81543C33.9263 9.61035 33.8188 9.34668 33.8188 9.02441ZM44.9517 15.1108C44.9517 16.3315 44.6733 17.3105 44.1167 18.0479C43.5649 18.7803 42.8179 19.1465 41.8755 19.1465C41.0747 19.1465 40.4277 18.8682 39.9346 18.3115V22.0469H37.8179V11.0752H39.7808L39.854 11.8516C40.3667 11.2363 41.0356 10.9287 41.8608 10.9287C42.8374 10.9287 43.5967 11.29 44.1387 12.0127C44.6807 12.7354 44.9517 13.7314 44.9517 15.001V15.1108ZM42.835 14.957C42.835 14.2197 42.7031 13.6509 42.4395 13.2505C42.1807 12.8501 41.8022 12.6499 41.3042 12.6499C40.6401 12.6499 40.1836 12.9038 39.9346 13.4116V16.6562C40.1934 17.1787 40.6548 17.4399 41.3188 17.4399C42.3296 17.4399 42.835 16.6123 42.835 14.957ZM48.8042 9.12695V11.0752H50.1592V12.6279H48.8042V16.583C48.8042 16.876 48.8604 17.0859 48.9727 17.2129C49.085 17.3398 49.2998 17.4033 49.6172 17.4033C49.8516 17.4033 50.0591 17.3862 50.2397 17.3521V18.9561C49.8247 19.083 49.3975 19.1465 48.958 19.1465C47.4736 19.1465 46.7168 18.397 46.6875 16.8979V12.6279H45.5303V11.0752H46.6875V9.12695H48.8042ZM51.4482 17.96C51.4482 17.623 51.5605 17.3496 51.7852 17.1396C52.0146 16.9297 52.3003 16.8247 52.6421 16.8247C52.9888 16.8247 53.2744 16.9297 53.499 17.1396C53.7285 17.3496 53.8433 17.623 53.8433 17.96C53.8433 18.292 53.731 18.563 53.5063 18.7729C53.2817 18.978 52.9937 19.0806 52.6421 19.0806C52.2954 19.0806 52.0098 18.978 51.7852 18.7729C51.5605 18.563 51.4482 18.292 51.4482 17.96ZM62.8374 15.1108C62.8374 16.3315 62.5591 17.3105 62.0024 18.0479C61.4507 18.7803 60.7036 19.1465 59.7612 19.1465C58.9604 19.1465 58.3135 18.8682 57.8203 18.3115V22.0469H55.7036V11.0752H57.6665L57.7397 11.8516C58.2524 11.2363 58.9214 10.9287 59.7466 10.9287C60.7231 10.9287 61.4824 11.29 62.0244 12.0127C62.5664 12.7354 62.8374 13.7314 62.8374 15.001V15.1108ZM60.7207 14.957C60.7207 14.2197 60.5889 13.6509 60.3252 13.2505C60.0664 12.8501 59.688 12.6499 59.1899 12.6499C58.5259 12.6499 58.0693 12.9038 57.8203 13.4116V16.6562C58.0791 17.1787 58.5405 17.4399 59.2046 17.4399C60.2153 17.4399 60.7207 16.6123 60.7207 14.957ZM67.0269 16.0044L68.4917 11.0752H70.7622L67.5762 20.2305L67.4004 20.6479C66.9268 21.6831 66.1455 22.2007 65.0566 22.2007C64.749 22.2007 64.4365 22.1543 64.1191 22.0615V20.4575L64.4414 20.4648C64.8418 20.4648 65.1396 20.4038 65.335 20.2817C65.5352 20.1597 65.6914 19.957 65.8037 19.6738L66.0527 19.022L63.2769 11.0752H65.5547L67.0269 16.0044Z" fill="white"/>
<path d="M90.6464 79.6464C90.4512 79.8417 90.4512 80.1583 90.6464 80.3536L93.8284 83.5355C94.0237 83.7308 94.3403 83.7308 94.5355 83.5355C94.7308 83.3403 94.7308 83.0237 94.5355 82.8284L91.7071 80L94.5355 77.1716C94.7308 76.9763 94.7308 76.6597 94.5355 76.4645C94.3403 76.2692 94.0237 76.2692 93.8284 76.4645L90.6464 79.6464ZM100 79.5H91V80.5H100V79.5Z" fill="white"/>
</svg>
