<svg width="242" height="155" viewBox="0 0 242 155" fill="none" xmlns="http://www.w3.org/2000/svg">
<rect width="242" height="155" fill="black"/>
<path d="M14.23 116.87C14.51 116.87 14.8 116.8 15.1 116.66C15.4 116.52 15.695 116.275 15.985 115.925C15.925 115.555 15.835 115.245 15.715 114.995C15.605 114.735 15.47 114.53 15.31 114.38C15.16 114.22 14.995 114.11 14.815 114.05C14.635 113.98 14.45 113.945 14.26 113.945C14.07 113.945 13.885 113.975 13.705 114.035C13.535 114.095 13.38 114.19 13.24 114.32C13.11 114.44 13.005 114.6 12.925 114.8C12.845 114.99 12.805 115.22 12.805 115.49C12.805 115.98 12.935 116.335 13.195 116.555C13.455 116.765 13.8 116.87 14.23 116.87ZM12.1 119.72C12.3 119.9 12.55 120.06 12.85 120.2C13.15 120.33 13.46 120.395 13.78 120.395C14.07 120.395 14.345 120.345 14.605 120.245C14.875 120.135 15.11 119.965 15.31 119.735C15.52 119.495 15.69 119.185 15.82 118.805C15.95 118.415 16.025 117.94 16.045 117.38C15.695 117.71 15.31 117.97 14.89 118.16C14.48 118.34 14.1 118.43 13.75 118.43C13.33 118.43 12.94 118.37 12.58 118.25C12.22 118.13 11.905 117.95 11.635 117.71C11.375 117.47 11.17 117.165 11.02 116.795C10.87 116.425 10.795 115.99 10.795 115.49C10.795 115 10.885 114.56 11.065 114.17C11.255 113.77 11.505 113.43 11.815 113.15C12.135 112.87 12.5 112.66 12.91 112.52C13.32 112.37 13.755 112.295 14.215 112.295C14.705 112.295 15.18 112.385 15.64 112.565C16.11 112.745 16.525 113.025 16.885 113.405C17.245 113.785 17.53 114.275 17.74 114.875C17.96 115.465 18.07 116.18 18.07 117.02C18.07 117.91 17.955 118.68 17.725 119.33C17.495 119.98 17.19 120.515 16.81 120.935C16.43 121.355 15.99 121.67 15.49 121.88C15 122.08 14.495 122.18 13.975 122.18C13.295 122.18 12.7 122.065 12.19 121.835C11.68 121.605 11.26 121.34 10.93 121.04L12.1 119.72ZM21.7541 120.425C21.7541 120.175 21.7941 119.945 21.8741 119.735C21.9641 119.515 22.0841 119.325 22.2341 119.165C22.3841 119.005 22.5641 118.88 22.7741 118.79C22.9941 118.7 23.2341 118.655 23.4941 118.655C23.7541 118.655 23.9891 118.7 24.1991 118.79C24.4191 118.88 24.6041 119.005 24.7541 119.165C24.9041 119.325 25.0191 119.515 25.0991 119.735C25.1891 119.945 25.2341 120.175 25.2341 120.425C25.2341 120.925 25.0741 121.345 24.7541 121.685C24.4341 122.015 24.0141 122.18 23.4941 122.18C22.9741 122.18 22.5541 122.015 22.2341 121.685C21.9141 121.345 21.7541 120.925 21.7541 120.425ZM32.2183 116.87C32.4983 116.87 32.7883 116.8 33.0883 116.66C33.3883 116.52 33.6833 116.275 33.9733 115.925C33.9133 115.555 33.8233 115.245 33.7033 114.995C33.5933 114.735 33.4583 114.53 33.2983 114.38C33.1483 114.22 32.9833 114.11 32.8033 114.05C32.6233 113.98 32.4383 113.945 32.2483 113.945C32.0583 113.945 31.8733 113.975 31.6933 114.035C31.5233 114.095 31.3683 114.19 31.2283 114.32C31.0983 114.44 30.9933 114.6 30.9133 114.8C30.8333 114.99 30.7933 115.22 30.7933 115.49C30.7933 115.98 30.9233 116.335 31.1833 116.555C31.4433 116.765 31.7883 116.87 32.2183 116.87ZM30.0883 119.72C30.2883 119.9 30.5383 120.06 30.8383 120.2C31.1383 120.33 31.4483 120.395 31.7683 120.395C32.0583 120.395 32.3333 120.345 32.5933 120.245C32.8633 120.135 33.0983 119.965 33.2983 119.735C33.5083 119.495 33.6783 119.185 33.8083 118.805C33.9383 118.415 34.0133 117.94 34.0333 117.38C33.6833 117.71 33.2983 117.97 32.8783 118.16C32.4683 118.34 32.0883 118.43 31.7383 118.43C31.3183 118.43 30.9283 118.37 30.5683 118.25C30.2083 118.13 29.8933 117.95 29.6233 117.71C29.3633 117.47 29.1583 117.165 29.0083 116.795C28.8583 116.425 28.7833 115.99 28.7833 115.49C28.7833 115 28.8733 114.56 29.0533 114.17C29.2433 113.77 29.4933 113.43 29.8033 113.15C30.1233 112.87 30.4883 112.66 30.8983 112.52C31.3083 112.37 31.7433 112.295 32.2033 112.295C32.6933 112.295 33.1683 112.385 33.6283 112.565C34.0983 112.745 34.5133 113.025 34.8733 113.405C35.2333 113.785 35.5183 114.275 35.7283 114.875C35.9483 115.465 36.0583 116.18 36.0583 117.02C36.0583 117.91 35.9433 118.68 35.7133 119.33C35.4833 119.98 35.1783 120.515 34.7983 120.935C34.4183 121.355 33.9783 121.67 33.4783 121.88C32.9883 122.08 32.4833 122.18 31.9633 122.18C31.2833 122.18 30.6883 122.065 30.1783 121.835C29.6683 121.605 29.2483 121.34 28.9183 121.04L30.0883 119.72ZM18.055 139.215V141H11.23V139.215H13.69V133.71H11.725V132.345C12.285 132.245 12.76 132.125 13.15 131.985C13.55 131.845 13.925 131.675 14.275 131.475H15.895V139.215H18.055ZM21.7541 139.425C21.7541 139.175 21.7941 138.945 21.8741 138.735C21.9641 138.515 22.0841 138.325 22.2341 138.165C22.3841 138.005 22.5641 137.88 22.7741 137.79C22.9941 137.7 23.2341 137.655 23.4941 137.655C23.7541 137.655 23.9891 137.7 24.1991 137.79C24.4191 137.88 24.6041 138.005 24.7541 138.165C24.9041 138.325 25.0191 138.515 25.0991 138.735C25.1891 138.945 25.2341 139.175 25.2341 139.425C25.2341 139.925 25.0741 140.345 24.7541 140.685C24.4341 141.015 24.0141 141.18 23.4941 141.18C22.9741 141.18 22.5541 141.015 22.2341 140.685C21.9141 140.345 21.7541 139.925 21.7541 139.425ZM36.0433 139.215V141H29.2183V139.215H31.6783V133.71H29.7133V132.345C30.2733 132.245 30.7483 132.125 31.1383 131.985C31.5383 131.845 31.9133 131.675 32.2633 131.475H33.8833V139.215H36.0433Z" fill="white"/>
<path d="M14.5 103.18C13.92 103.18 13.385 103.065 12.895 102.835C12.415 102.595 12 102.255 11.65 101.815C11.31 101.375 11.045 100.84 10.855 100.21C10.665 99.58 10.57 98.865 10.57 98.065C10.57 97.265 10.665 96.555 10.855 95.935C11.045 95.305 11.31 94.78 11.65 94.36C12 93.93 12.415 93.605 12.895 93.385C13.385 93.155 13.92 93.04 14.5 93.04C15.08 93.04 15.61 93.155 16.09 93.385C16.58 93.605 16.995 93.93 17.335 94.36C17.685 94.79 17.955 95.32 18.145 95.95C18.335 96.57 18.43 97.275 18.43 98.065C18.43 98.865 18.335 99.58 18.145 100.21C17.955 100.84 17.685 101.375 17.335 101.815C16.995 102.255 16.58 102.595 16.09 102.835C15.61 103.065 15.08 103.18 14.5 103.18ZM14.5 101.275C15.01 101.275 15.415 100.99 15.715 100.42C16.015 99.84 16.165 99.055 16.165 98.065C16.165 97.085 16.015 96.32 15.715 95.77C15.415 95.22 15.01 94.945 14.5 94.945C13.99 94.945 13.585 95.22 13.285 95.77C12.985 96.32 12.835 97.085 12.835 98.065C12.835 99.055 12.985 99.84 13.285 100.42C13.585 100.99 13.99 101.275 14.5 101.275ZM26.8691 103H25.0691L24.9041 101.935H24.8441C24.5141 102.315 24.1491 102.62 23.7491 102.85C23.3491 103.07 22.8791 103.18 22.3391 103.18C21.4891 103.18 20.8741 102.91 20.4941 102.37C20.1141 101.83 19.9241 101.09 19.9241 100.15V95.56H22.1291V99.865C22.1291 100.365 22.2041 100.73 22.3541 100.96C22.5041 101.19 22.7891 101.305 23.2091 101.305C23.4891 101.305 23.7341 101.245 23.9441 101.125C24.1641 101.005 24.4041 100.78 24.6641 100.45V95.56H26.8691V103ZM30.5983 97.285H28.7233V95.65L30.7033 95.56L30.9883 93.58H32.8033V95.56H35.9533V97.285H32.8033V99.895C32.8033 100.465 32.9283 100.87 33.1783 101.11C33.4283 101.34 33.8233 101.455 34.3633 101.455C34.6533 101.455 34.9183 101.43 35.1583 101.38C35.3983 101.33 35.6283 101.265 35.8483 101.185L36.2383 102.775C35.9083 102.875 35.5383 102.965 35.1283 103.045C34.7283 103.135 34.2883 103.18 33.8083 103.18C33.2183 103.18 32.7183 103.1 32.3083 102.94C31.8983 102.78 31.5633 102.56 31.3033 102.28C31.0533 101.99 30.8733 101.645 30.7633 101.245C30.6533 100.845 30.5983 100.4 30.5983 99.91V97.285ZM40.2674 103.585V105.76H38.0624V95.56H39.8624L40.0274 96.31H40.0724C40.3724 96.04 40.7174 95.82 41.1074 95.65C41.4974 95.47 41.8924 95.38 42.2924 95.38C42.7524 95.38 43.1674 95.47 43.5374 95.65C43.9074 95.83 44.2224 96.085 44.4824 96.415C44.7424 96.745 44.9374 97.145 45.0674 97.615C45.2074 98.075 45.2774 98.59 45.2774 99.16C45.2774 99.8 45.1874 100.37 45.0074 100.87C44.8274 101.36 44.5874 101.78 44.2874 102.13C43.9874 102.47 43.6424 102.73 43.2524 102.91C42.8724 103.09 42.4724 103.18 42.0524 103.18C41.3724 103.18 40.7524 102.91 40.1924 102.37L40.2674 103.585ZM40.2674 100.885C40.4774 101.065 40.6924 101.195 40.9124 101.275C41.1424 101.345 41.3524 101.38 41.5424 101.38C41.9624 101.38 42.3124 101.21 42.5924 100.87C42.8724 100.52 43.0124 99.96 43.0124 99.19C43.0124 97.85 42.5574 97.18 41.6474 97.18C41.1774 97.18 40.7174 97.41 40.2674 97.87V100.885ZM53.8516 103H52.0516L51.8866 101.935H51.8266C51.4966 102.315 51.1316 102.62 50.7316 102.85C50.3316 103.07 49.8616 103.18 49.3216 103.18C48.4716 103.18 47.8566 102.91 47.4766 102.37C47.0966 101.83 46.9066 101.09 46.9066 100.15V95.56H49.1116V99.865C49.1116 100.365 49.1866 100.73 49.3366 100.96C49.4866 101.19 49.7716 101.305 50.1916 101.305C50.4716 101.305 50.7166 101.245 50.9266 101.125C51.1466 101.005 51.3866 100.78 51.6466 100.45V95.56H53.8516V103ZM57.5807 97.285H55.7057V95.65L57.6857 95.56L57.9707 93.58H59.7857V95.56H62.9357V97.285H59.7857V99.895C59.7857 100.465 59.9107 100.87 60.1607 101.11C60.4107 101.34 60.8057 101.455 61.3457 101.455C61.6357 101.455 61.9007 101.43 62.1407 101.38C62.3807 101.33 62.6107 101.265 62.8307 101.185L63.2207 102.775C62.8907 102.875 62.5207 102.965 62.1107 103.045C61.7107 103.135 61.2707 103.18 60.7907 103.18C60.2007 103.18 59.7007 103.1 59.2907 102.94C58.8807 102.78 58.5457 102.56 58.2857 102.28C58.0357 101.99 57.8557 101.645 57.7457 101.245C57.6357 100.845 57.5807 100.4 57.5807 99.91V97.285Z" fill="white"/>
<rect x="100" width="142" height="31" fill="#333333"/>
<rect x="100" width="142" height="31" fill="#333333"/>
<rect width="100" height="31" fill="#090808"/>
<path d="M21.105 17.8101C21.105 17.5513 20.9756 17.3486 20.7168 17.2021C20.4629 17.0508 20.0527 16.9165 19.4863 16.7993C17.6016 16.4038 16.6592 15.603 16.6592 14.397C16.6592 13.6938 16.9497 13.1079 17.5308 12.6392C18.1167 12.1655 18.8809 11.9287 19.8232 11.9287C20.8291 11.9287 21.6323 12.1655 22.2329 12.6392C22.8384 13.1128 23.1411 13.728 23.1411 14.4849H21.0244C21.0244 14.1821 20.9268 13.9331 20.7314 13.7378C20.5361 13.5376 20.231 13.4375 19.8159 13.4375C19.4595 13.4375 19.1836 13.5181 18.9883 13.6792C18.793 13.8403 18.6953 14.0454 18.6953 14.2944C18.6953 14.5288 18.8052 14.7192 19.0249 14.8657C19.2495 15.0073 19.6255 15.1318 20.1528 15.2393C20.6802 15.3418 21.1245 15.459 21.4858 15.5908C22.604 16.001 23.1631 16.7114 23.1631 17.7222C23.1631 18.4448 22.853 19.0308 22.2329 19.48C21.6128 19.9243 20.812 20.1465 19.8306 20.1465C19.1665 20.1465 18.5757 20.0293 18.0581 19.7949C17.5454 19.5557 17.1426 19.231 16.8496 18.8208C16.5566 18.4058 16.4102 17.959 16.4102 17.4805H18.417C18.4365 17.8564 18.5757 18.1445 18.8345 18.3447C19.0933 18.5449 19.4399 18.645 19.8745 18.645C20.2798 18.645 20.585 18.5693 20.79 18.418C21 18.2617 21.105 18.0591 21.105 17.8101ZM27.8286 18.4399C28.2192 18.4399 28.5366 18.3325 28.7808 18.1177C29.0249 17.9028 29.1519 17.6172 29.1616 17.2607H31.1465C31.1416 17.7979 30.9951 18.291 30.707 18.7402C30.4189 19.1846 30.0234 19.5312 29.5205 19.7803C29.0225 20.0244 28.4707 20.1465 27.8652 20.1465C26.7324 20.1465 25.8389 19.7876 25.1846 19.0698C24.5303 18.3472 24.2031 17.3511 24.2031 16.0815V15.9424C24.2031 14.7217 24.5278 13.7476 25.1772 13.02C25.8267 12.2925 26.7178 11.9287 27.8506 11.9287C28.8418 11.9287 29.6353 12.2119 30.231 12.7783C30.8315 13.3398 31.1367 14.0894 31.1465 15.0269H29.1616C29.1519 14.6167 29.0249 14.2847 28.7808 14.0308C28.5366 13.772 28.2144 13.6426 27.814 13.6426C27.3208 13.6426 26.9473 13.8232 26.6934 14.1846C26.4443 14.541 26.3198 15.1221 26.3198 15.9277V16.1475C26.3198 16.9629 26.4443 17.5488 26.6934 17.9053C26.9424 18.2617 27.3208 18.4399 27.8286 18.4399ZM36.8081 14.0601C36.52 14.021 36.2661 14.0015 36.0464 14.0015C35.2456 14.0015 34.7207 14.2725 34.4717 14.8145V20H32.355V12.0752H34.3545L34.4131 13.02C34.8379 12.2925 35.4263 11.9287 36.1782 11.9287C36.4126 11.9287 36.6323 11.9604 36.8374 12.0239L36.8081 14.0601ZM40.0674 20H37.9434V12.0752H40.0674V20ZM37.8188 10.0244C37.8188 9.70703 37.9238 9.4458 38.1338 9.24072C38.3486 9.03564 38.6392 8.93311 39.0054 8.93311C39.3667 8.93311 39.6548 9.03564 39.8696 9.24072C40.0845 9.4458 40.1919 9.70703 40.1919 10.0244C40.1919 10.3467 40.082 10.6104 39.8623 10.8154C39.6475 11.0205 39.3618 11.123 39.0054 11.123C38.6489 11.123 38.3608 11.0205 38.1411 10.8154C37.9263 10.6104 37.8188 10.3467 37.8188 10.0244ZM48.9517 16.1108C48.9517 17.3315 48.6733 18.3105 48.1167 19.0479C47.5649 19.7803 46.8179 20.1465 45.8755 20.1465C45.0747 20.1465 44.4277 19.8682 43.9346 19.3115V23.0469H41.8179V12.0752H43.7808L43.854 12.8516C44.3667 12.2363 45.0356 11.9287 45.8608 11.9287C46.8374 11.9287 47.5967 12.29 48.1387 13.0127C48.6807 13.7354 48.9517 14.7314 48.9517 16.001V16.1108ZM46.835 15.957C46.835 15.2197 46.7031 14.6509 46.4395 14.2505C46.1807 13.8501 45.8022 13.6499 45.3042 13.6499C44.6401 13.6499 44.1836 13.9038 43.9346 14.4116V17.6562C44.1934 18.1787 44.6548 18.4399 45.3188 18.4399C46.3296 18.4399 46.835 17.6123 46.835 15.957ZM52.8042 10.127V12.0752H54.1592V13.6279H52.8042V17.583C52.8042 17.876 52.8604 18.0859 52.9727 18.2129C53.085 18.3398 53.2998 18.4033 53.6172 18.4033C53.8516 18.4033 54.0591 18.3862 54.2397 18.3521V19.9561C53.8247 20.083 53.3975 20.1465 52.958 20.1465C51.4736 20.1465 50.7168 19.397 50.6875 17.8979V13.6279H49.5303V12.0752H50.6875V10.127H52.8042ZM55.4482 18.96C55.4482 18.623 55.5605 18.3496 55.7852 18.1396C56.0146 17.9297 56.3003 17.8247 56.6421 17.8247C56.9888 17.8247 57.2744 17.9297 57.499 18.1396C57.7285 18.3496 57.8433 18.623 57.8433 18.96C57.8433 19.292 57.731 19.563 57.5063 19.7729C57.2817 19.978 56.9937 20.0806 56.6421 20.0806C56.2954 20.0806 56.0098 19.978 55.7852 19.7729C55.5605 19.563 55.4482 19.292 55.4482 18.96ZM66.8374 16.1108C66.8374 17.3315 66.5591 18.3105 66.0024 19.0479C65.4507 19.7803 64.7036 20.1465 63.7612 20.1465C62.9604 20.1465 62.3135 19.8682 61.8203 19.3115V23.0469H59.7036V12.0752H61.6665L61.7397 12.8516C62.2524 12.2363 62.9214 11.9287 63.7466 11.9287C64.7231 11.9287 65.4824 12.29 66.0244 13.0127C66.5664 13.7354 66.8374 14.7314 66.8374 16.001V16.1108ZM64.7207 15.957C64.7207 15.2197 64.5889 14.6509 64.3252 14.2505C64.0664 13.8501 63.688 13.6499 63.1899 13.6499C62.5259 13.6499 62.0693 13.9038 61.8203 14.4116V17.6562C62.0791 18.1787 62.5405 18.4399 63.2046 18.4399C64.2153 18.4399 64.7207 17.6123 64.7207 15.957ZM71.0269 17.0044L72.4917 12.0752H74.7622L71.5762 21.2305L71.4004 21.6479C70.9268 22.6831 70.1455 23.2007 69.0566 23.2007C68.749 23.2007 68.4365 23.1543 68.1191 23.0615V21.4575L68.4414 21.4648C68.8418 21.4648 69.1396 21.4038 69.335 21.2817C69.5352 21.1597 69.6914 20.957 69.8037 20.6738L70.0527 20.022L67.2769 12.0752H69.5547L71.0269 17.0044Z" fill="white"/>
<line x1="0.000159942" y1="87.5" x2="242" y2="87.5774" stroke="white"/>
<path d="M13.285 51.585V53.76H11.08V43.56H12.88L13.045 44.31H13.09C13.39 44.04 13.735 43.82 14.125 43.65C14.515 43.47 14.91 43.38 15.31 43.38C15.77 43.38 16.185 43.47 16.555 43.65C16.925 43.83 17.24 44.085 17.5 44.415C17.76 44.745 17.955 45.145 18.085 45.615C18.225 46.075 18.295 46.59 18.295 47.16C18.295 47.8 18.205 48.37 18.025 48.87C17.845 49.36 17.605 49.78 17.305 50.13C17.005 50.47 16.66 50.73 16.27 50.91C15.89 51.09 15.49 51.18 15.07 51.18C14.39 51.18 13.77 50.91 13.21 50.37L13.285 51.585ZM13.285 48.885C13.495 49.065 13.71 49.195 13.93 49.275C14.16 49.345 14.37 49.38 14.56 49.38C14.98 49.38 15.33 49.21 15.61 48.87C15.89 48.52 16.03 47.96 16.03 47.19C16.03 45.85 15.575 45.18 14.665 45.18C14.195 45.18 13.735 45.41 13.285 45.87V48.885ZM20.7341 43.56H22.5341L22.7141 45.18H22.7591C23.1291 44.57 23.5741 44.12 24.0941 43.83C24.6141 43.53 25.1741 43.38 25.7741 43.38C26.1041 43.38 26.3691 43.405 26.5691 43.455C26.7791 43.505 26.9941 43.58 27.2141 43.68L26.7641 45.525C26.5341 45.455 26.3241 45.405 26.1341 45.375C25.9541 45.335 25.7241 45.315 25.4441 45.315C24.9841 45.315 24.5291 45.45 24.0791 45.72C23.6391 45.99 23.2591 46.46 22.9391 47.13V51H20.7341V43.56ZM29.1733 43.56H34.3633V51H32.1583V45.285H29.1733V43.56ZM33.1633 42.465C32.7333 42.465 32.3783 42.345 32.0983 42.105C31.8283 41.865 31.6933 41.54 31.6933 41.13C31.6933 40.72 31.8283 40.39 32.0983 40.14C32.3783 39.88 32.7333 39.75 33.1633 39.75C33.5933 39.75 33.9433 39.88 34.2133 40.14C34.4933 40.39 34.6333 40.72 34.6333 41.13C34.6333 41.54 34.4933 41.865 34.2133 42.105C33.9433 42.345 33.5933 42.465 33.1633 42.465ZM38.0624 43.56H39.8624L40.0274 44.55H40.0874C40.4074 44.23 40.7724 43.955 41.1824 43.725C41.6024 43.495 42.0924 43.38 42.6524 43.38C43.4924 43.38 44.1074 43.65 44.4974 44.19C44.8874 44.73 45.0824 45.47 45.0824 46.41V51H42.8774V46.695C42.8774 46.195 42.7974 45.83 42.6374 45.6C42.4774 45.37 42.1924 45.255 41.7824 45.255C41.4824 45.255 41.2174 45.32 40.9874 45.45C40.7674 45.58 40.5274 45.775 40.2674 46.035V51H38.0624V43.56ZM48.5866 45.285H46.7116V43.65L48.6916 43.56L48.9766 41.58H50.7916V43.56H53.9416V45.285H50.7916V47.895C50.7916 48.465 50.9166 48.87 51.1666 49.11C51.4166 49.34 51.8116 49.455 52.3516 49.455C52.6416 49.455 52.9066 49.43 53.1466 49.38C53.3866 49.33 53.6166 49.265 53.8366 49.185L54.2266 50.775C53.8966 50.875 53.5266 50.965 53.1166 51.045C52.7166 51.135 52.2766 51.18 51.7966 51.18C51.2066 51.18 50.7066 51.1 50.2966 50.94C49.8866 50.78 49.5516 50.56 49.2916 50.28C49.0416 49.99 48.8616 49.645 48.7516 49.245C48.6416 48.845 48.5866 48.4 48.5866 47.91V45.285ZM13.285 70.585V72.76H11.08V62.56H12.88L13.045 63.31H13.09C13.39 63.04 13.735 62.82 14.125 62.65C14.515 62.47 14.91 62.38 15.31 62.38C15.77 62.38 16.185 62.47 16.555 62.65C16.925 62.83 17.24 63.085 17.5 63.415C17.76 63.745 17.955 64.145 18.085 64.615C18.225 65.075 18.295 65.59 18.295 66.16C18.295 66.8 18.205 67.37 18.025 67.87C17.845 68.36 17.605 68.78 17.305 69.13C17.005 69.47 16.66 69.73 16.27 69.91C15.89 70.09 15.49 70.18 15.07 70.18C14.39 70.18 13.77 69.91 13.21 69.37L13.285 70.585ZM13.285 67.885C13.495 68.065 13.71 68.195 13.93 68.275C14.16 68.345 14.37 68.38 14.56 68.38C14.98 68.38 15.33 68.21 15.61 67.87C15.89 67.52 16.03 66.96 16.03 66.19C16.03 64.85 15.575 64.18 14.665 64.18C14.195 64.18 13.735 64.41 13.285 64.87V67.885ZM20.7341 62.56H22.5341L22.7141 64.18H22.7591C23.1291 63.57 23.5741 63.12 24.0941 62.83C24.6141 62.53 25.1741 62.38 25.7741 62.38C26.1041 62.38 26.3691 62.405 26.5691 62.455C26.7791 62.505 26.9941 62.58 27.2141 62.68L26.7641 64.525C26.5341 64.455 26.3241 64.405 26.1341 64.375C25.9541 64.335 25.7241 64.315 25.4441 64.315C24.9841 64.315 24.5291 64.45 24.0791 64.72C23.6391 64.99 23.2591 65.46 22.9391 66.13V70H20.7341V62.56ZM29.1733 62.56H34.3633V70H32.1583V64.285H29.1733V62.56ZM33.1633 61.465C32.7333 61.465 32.3783 61.345 32.0983 61.105C31.8283 60.865 31.6933 60.54 31.6933 60.13C31.6933 59.72 31.8283 59.39 32.0983 59.14C32.3783 58.88 32.7333 58.75 33.1633 58.75C33.5933 58.75 33.9433 58.88 34.2133 59.14C34.4933 59.39 34.6333 59.72 34.6333 60.13C34.6333 60.54 34.4933 60.865 34.2133 61.105C33.9433 61.345 33.5933 61.465 33.1633 61.465ZM38.0624 62.56H39.8624L40.0274 63.55H40.0874C40.4074 63.23 40.7724 62.955 41.1824 62.725C41.6024 62.495 42.0924 62.38 42.6524 62.38C43.4924 62.38 44.1074 62.65 44.4974 63.19C44.8874 63.73 45.0824 64.47 45.0824 65.41V70H42.8774V65.695C42.8774 65.195 42.7974 64.83 42.6374 64.6C42.4774 64.37 42.1924 64.255 41.7824 64.255C41.4824 64.255 41.2174 64.32 40.9874 64.45C40.7674 64.58 40.5274 64.775 40.2674 65.035V70H38.0624V62.56ZM48.5866 64.285H46.7116V62.65L48.6916 62.56L48.9766 60.58H50.7916V62.56H53.9416V64.285H50.7916V66.895C50.7916 67.465 50.9166 67.87 51.1666 68.11C51.4166 68.34 51.8116 68.455 52.3516 68.455C52.6416 68.455 52.9066 68.43 53.1466 68.38C53.3866 68.33 53.6166 68.265 53.8366 68.185L54.2266 69.775C53.8966 69.875 53.5266 69.965 53.1166 70.045C52.7166 70.135 52.2766 70.18 51.7966 70.18C51.2066 70.18 50.7066 70.1 50.2966 69.94C49.8866 69.78 49.5516 69.56 49.2916 69.28C49.0416 68.99 48.8616 68.645 48.7516 68.245C48.6416 67.845 48.5866 67.4 48.5866 66.91V64.285Z" fill="#56B4E9"/>
<path d="M60.8507 53.685C59.8707 52.815 59.0957 51.81 58.5257 50.67C57.9657 49.53 57.6857 48.25 57.6857 46.83C57.6857 45.41 57.9657 44.13 58.5257 42.99C59.0957 41.85 59.8707 40.845 60.8507 39.975L62.0807 40.95C61.1907 41.82 60.5407 42.725 60.1307 43.665C59.7307 44.595 59.5307 45.65 59.5307 46.83C59.5307 47.42 59.5807 47.98 59.6807 48.51C59.7807 49.03 59.9307 49.53 60.1307 50.01C60.3407 50.49 60.6057 50.95 60.9257 51.39C61.2457 51.84 61.6307 52.28 62.0807 52.71L60.8507 53.685ZM146.802 52.71C147.252 52.28 147.637 51.84 147.957 51.39C148.277 50.95 148.537 50.49 148.737 50.01C148.947 49.53 149.102 49.03 149.202 48.51C149.302 47.98 149.352 47.42 149.352 46.83C149.352 45.65 149.147 44.595 148.737 43.665C148.337 42.725 147.692 41.82 146.802 40.95L148.032 39.975C149.012 40.845 149.782 41.85 150.342 42.99C150.912 44.13 151.197 45.41 151.197 46.83C151.197 48.25 150.912 49.53 150.342 50.67C149.782 51.81 149.012 52.815 148.032 53.685L146.802 52.71ZM60.8507 72.685C59.8707 71.815 59.0957 70.81 58.5257 69.67C57.9657 68.53 57.6857 67.25 57.6857 65.83C57.6857 64.41 57.9657 63.13 58.5257 61.99C59.0957 60.85 59.8707 59.845 60.8507 58.975L62.0807 59.95C61.1907 60.82 60.5407 61.725 60.1307 62.665C59.7307 63.595 59.5307 64.65 59.5307 65.83C59.5307 66.42 59.5807 66.98 59.6807 67.51C59.7807 68.03 59.9307 68.53 60.1307 69.01C60.3407 69.49 60.6057 69.95 60.9257 70.39C61.2457 70.84 61.6307 71.28 62.0807 71.71L60.8507 72.685ZM155.796 71.71C156.246 71.28 156.631 70.84 156.951 70.39C157.271 69.95 157.531 69.49 157.731 69.01C157.941 68.53 158.096 68.03 158.196 67.51C158.296 66.98 158.346 66.42 158.346 65.83C158.346 64.65 158.141 63.595 157.731 62.665C157.331 61.725 156.686 60.82 155.796 59.95L157.026 58.975C158.006 59.845 158.776 60.85 159.336 61.99C159.906 63.13 160.191 64.41 160.191 65.83C160.191 67.25 159.906 68.53 159.336 69.67C158.776 70.81 158.006 71.815 157.026 72.685L155.796 71.71Z" fill="white"/>
<path d="M66.7848 48.315C66.7848 48.735 66.9498 49.065 67.2798 49.305C67.6098 49.535 68.0198 49.65 68.5098 49.65C68.9598 49.65 69.3198 49.555 69.5898 49.365C69.8698 49.165 70.0098 48.865 70.0098 48.465C70.0098 48.245 69.9548 48.06 69.8448 47.91C69.7348 47.76 69.5748 47.625 69.3648 47.505C69.1648 47.375 68.9248 47.26 68.6448 47.16C68.3648 47.05 68.0548 46.93 67.7148 46.8C67.4448 47 67.2198 47.225 67.0398 47.475C66.8698 47.725 66.7848 48.005 66.7848 48.315ZM69.1098 45.45C69.5898 45.02 69.8298 44.555 69.8298 44.055C69.8298 43.685 69.7148 43.39 69.4848 43.17C69.2548 42.94 68.9198 42.825 68.4798 42.825C68.1298 42.825 67.8298 42.915 67.5798 43.095C67.3398 43.275 67.2198 43.55 67.2198 43.92C67.2198 44.31 67.3948 44.615 67.7448 44.835C68.0948 45.055 68.5498 45.26 69.1098 45.45ZM64.8798 48.57C64.8798 48.28 64.9248 48.02 65.0148 47.79C65.1148 47.55 65.2448 47.335 65.4048 47.145C65.5748 46.955 65.7648 46.785 65.9748 46.635C66.1948 46.485 66.4298 46.35 66.6798 46.23V46.17C66.2798 45.89 65.9448 45.575 65.6748 45.225C65.4148 44.865 65.2848 44.43 65.2848 43.92C65.2848 43.52 65.3648 43.16 65.5248 42.84C65.6848 42.51 65.9048 42.23 66.1848 42C66.4748 41.77 66.8198 41.595 67.2198 41.475C67.6198 41.355 68.0548 41.295 68.5248 41.295C69.0048 41.295 69.4348 41.36 69.8148 41.49C70.2048 41.61 70.5348 41.785 70.8048 42.015C71.0748 42.235 71.2798 42.51 71.4198 42.84C71.5698 43.16 71.6448 43.515 71.6448 43.905C71.6448 44.355 71.5098 44.755 71.2398 45.105C70.9798 45.455 70.6598 45.75 70.2798 45.99V46.05C70.5298 46.17 70.7648 46.31 70.9848 46.47C71.2048 46.62 71.3948 46.795 71.5548 46.995C71.7148 47.195 71.8398 47.425 71.9298 47.685C72.0198 47.935 72.0648 48.22 72.0648 48.54C72.0648 48.92 71.9848 49.27 71.8248 49.59C71.6648 49.91 71.4298 50.19 71.1198 50.43C70.8198 50.66 70.4448 50.845 69.9948 50.985C69.5448 51.115 69.0298 51.18 68.4498 51.18C67.8998 51.18 67.4048 51.12 66.9648 51C66.5248 50.87 66.1498 50.69 65.8398 50.46C65.5298 50.23 65.2898 49.955 65.1198 49.635C64.9598 49.315 64.8798 48.96 64.8798 48.57ZM75.719 49.425C75.719 49.175 75.759 48.945 75.839 48.735C75.929 48.515 76.049 48.325 76.199 48.165C76.349 48.005 76.529 47.88 76.739 47.79C76.959 47.7 77.199 47.655 77.459 47.655C77.719 47.655 77.954 47.7 78.164 47.79C78.384 47.88 78.569 48.005 78.719 48.165C78.869 48.325 78.984 48.515 79.064 48.735C79.154 48.945 79.199 49.175 79.199 49.425C79.199 49.925 79.039 50.345 78.719 50.685C78.399 51.015 77.979 51.18 77.459 51.18C76.939 51.18 76.519 51.015 76.199 50.685C75.879 50.345 75.719 49.925 75.719 49.425ZM87.0681 47.04V45.435C87.0681 45.135 87.0731 44.79 87.0831 44.4C87.1031 44 87.1231 43.65 87.1431 43.35H87.0831C86.9231 43.62 86.7531 43.89 86.5731 44.16C86.3931 44.43 86.2181 44.7 86.0481 44.97L84.6081 47.04H87.0681ZM90.3231 48.72H89.1231V51H87.0681V48.72H82.4781V47.205L86.4531 41.475H89.1231V47.04H90.3231V48.72ZM125.985 49.215V51H119.16V49.215H121.62V43.71H119.655V42.345C120.215 42.245 120.69 42.125 121.08 41.985C121.48 41.845 121.855 41.675 122.205 41.475H123.825V49.215H125.985ZM129.684 49.425C129.684 49.175 129.724 48.945 129.804 48.735C129.894 48.515 130.014 48.325 130.164 48.165C130.314 48.005 130.494 47.88 130.704 47.79C130.924 47.7 131.164 47.655 131.424 47.655C131.684 47.655 131.919 47.7 132.129 47.79C132.349 47.88 132.534 48.005 132.684 48.165C132.834 48.325 132.949 48.515 133.029 48.735C133.119 48.945 133.164 49.175 133.164 49.425C133.164 49.925 133.004 50.345 132.684 50.685C132.364 51.015 131.944 51.18 131.424 51.18C130.904 51.18 130.484 51.015 130.164 50.685C129.844 50.345 129.684 49.925 129.684 49.425ZM137.598 48.45C137.918 48.71 138.258 48.935 138.618 49.125C138.988 49.305 139.398 49.395 139.848 49.395C140.388 49.395 140.828 49.27 141.168 49.02C141.518 48.77 141.693 48.4 141.693 47.91C141.693 47.43 141.528 47.065 141.198 46.815C140.878 46.565 140.463 46.44 139.953 46.44C139.793 46.44 139.648 46.45 139.518 46.47C139.398 46.48 139.278 46.505 139.158 46.545C139.038 46.585 138.913 46.635 138.783 46.695C138.653 46.755 138.508 46.83 138.348 46.92L137.373 46.29L137.628 41.475H143.463V43.335H139.533L139.368 45.12C139.588 45.04 139.793 44.985 139.983 44.955C140.173 44.915 140.388 44.895 140.628 44.895C141.068 44.895 141.483 44.955 141.873 45.075C142.273 45.195 142.623 45.375 142.923 45.615C143.223 45.855 143.458 46.16 143.628 46.53C143.808 46.9 143.898 47.34 143.898 47.85C143.898 48.38 143.793 48.85 143.583 49.26C143.383 49.67 143.108 50.02 142.758 50.31C142.418 50.59 142.023 50.805 141.573 50.955C141.123 51.105 140.653 51.18 140.163 51.18C139.333 51.18 138.628 51.055 138.048 50.805C137.478 50.545 136.998 50.225 136.608 49.845L137.598 48.45ZM77.459 70.18C76.909 70.18 76.409 70.075 75.959 69.865C75.509 69.645 75.124 69.325 74.804 68.905C74.484 68.485 74.234 67.965 74.054 67.345C73.884 66.725 73.799 66.01 73.799 65.2C73.799 64.39 73.884 63.68 74.054 63.07C74.234 62.46 74.484 61.95 74.804 61.54C75.124 61.12 75.509 60.81 75.959 60.61C76.409 60.4 76.909 60.295 77.459 60.295C78.009 60.295 78.509 60.4 78.959 60.61C79.409 60.81 79.794 61.12 80.114 61.54C80.434 61.95 80.679 62.46 80.849 63.07C81.029 63.68 81.119 64.39 81.119 65.2C81.119 66.01 81.029 66.725 80.849 67.345C80.679 67.965 80.434 68.485 80.114 68.905C79.794 69.325 79.409 69.645 78.959 69.865C78.509 70.075 78.009 70.18 77.459 70.18ZM77.459 62.005C77.219 62.005 76.994 62.055 76.784 62.155C76.584 62.255 76.409 62.43 76.259 62.68C76.109 62.92 75.989 63.245 75.899 63.655C75.809 64.065 75.764 64.58 75.764 65.2C75.764 65.82 75.809 66.34 75.899 66.76C75.989 67.17 76.109 67.505 76.259 67.765C76.409 68.015 76.584 68.195 76.784 68.305C76.994 68.415 77.219 68.47 77.459 68.47C77.699 68.47 77.919 68.415 78.119 68.305C78.329 68.195 78.509 68.015 78.659 67.765C78.809 67.505 78.929 67.17 79.019 66.76C79.109 66.34 79.154 65.82 79.154 65.2C79.154 64.58 79.109 64.065 79.019 63.655C78.929 63.245 78.809 62.92 78.659 62.68C78.509 62.43 78.329 62.255 78.119 62.155C77.919 62.055 77.699 62.005 77.459 62.005ZM77.459 66.31C77.139 66.31 76.869 66.21 76.649 66.01C76.439 65.8 76.334 65.52 76.334 65.17C76.334 64.82 76.439 64.545 76.649 64.345C76.869 64.135 77.139 64.03 77.459 64.03C77.779 64.03 78.044 64.135 78.254 64.345C78.474 64.545 78.584 64.82 78.584 65.17C78.584 65.52 78.474 65.8 78.254 66.01C78.044 66.21 77.779 66.31 77.459 66.31ZM84.7131 68.425C84.7131 68.175 84.7531 67.945 84.8331 67.735C84.9231 67.515 85.0431 67.325 85.1931 67.165C85.3431 67.005 85.5231 66.88 85.7331 66.79C85.9531 66.7 86.1931 66.655 86.4531 66.655C86.7131 66.655 86.9481 66.7 87.1581 66.79C87.3781 66.88 87.5631 67.005 87.7131 67.165C87.8631 67.325 87.9781 67.515 88.0581 67.735C88.1481 67.945 88.1931 68.175 88.1931 68.425C88.1931 68.925 88.0331 69.345 87.7131 69.685C87.3931 70.015 86.9731 70.18 86.4531 70.18C85.9331 70.18 85.5131 70.015 85.1931 69.685C84.8731 69.345 84.7131 68.925 84.7131 68.425ZM91.8173 68.74C92.4973 68.17 93.1173 67.64 93.6773 67.15C94.2373 66.65 94.7173 66.185 95.1173 65.755C95.5173 65.325 95.8273 64.92 96.0473 64.54C96.2673 64.16 96.3773 63.8 96.3773 63.46C96.3773 62.99 96.2423 62.635 95.9723 62.395C95.7023 62.145 95.3173 62.02 94.8173 62.02C94.4373 62.02 94.0873 62.12 93.7673 62.32C93.4573 62.51 93.1673 62.735 92.8973 62.995L91.7123 61.81C91.9623 61.56 92.2073 61.34 92.4473 61.15C92.6973 60.96 92.9573 60.805 93.2273 60.685C93.5073 60.555 93.7973 60.46 94.0973 60.4C94.4073 60.33 94.7473 60.295 95.1173 60.295C95.6173 60.295 96.0723 60.37 96.4823 60.52C96.8923 60.66 97.2423 60.865 97.5323 61.135C97.8323 61.395 98.0623 61.71 98.2223 62.08C98.3923 62.45 98.4773 62.865 98.4773 63.325C98.4773 63.725 98.3823 64.135 98.1923 64.555C98.0023 64.965 97.7423 65.38 97.4123 65.8C97.0923 66.21 96.7223 66.625 96.3023 67.045C95.8823 67.455 95.4423 67.86 94.9823 68.26C95.2523 68.23 95.5423 68.205 95.8523 68.185C96.1723 68.155 96.4573 68.14 96.7073 68.14H98.9723V70H91.8173V68.74ZM134.979 68.215V70H128.154V68.215H130.614V62.71H128.649V61.345C129.209 61.245 129.684 61.125 130.074 60.985C130.474 60.845 130.849 60.675 131.199 60.475H132.819V68.215H134.979ZM138.678 68.425C138.678 68.175 138.718 67.945 138.798 67.735C138.888 67.515 139.008 67.325 139.158 67.165C139.308 67.005 139.488 66.88 139.698 66.79C139.918 66.7 140.158 66.655 140.418 66.655C140.678 66.655 140.913 66.7 141.123 66.79C141.343 66.88 141.528 67.005 141.678 67.165C141.828 67.325 141.943 67.515 142.023 67.735C142.113 67.945 142.158 68.175 142.158 68.425C142.158 68.925 141.998 69.345 141.678 69.685C141.358 70.015 140.938 70.18 140.418 70.18C139.898 70.18 139.478 70.015 139.158 69.685C138.838 69.345 138.678 68.925 138.678 68.425ZM146.562 67.435C146.882 67.715 147.237 67.945 147.627 68.125C148.027 68.305 148.447 68.395 148.887 68.395C149.407 68.395 149.832 68.3 150.162 68.11C150.502 67.91 150.672 67.63 150.672 67.27C150.672 67.06 150.627 66.87 150.537 66.7C150.447 66.53 150.292 66.39 150.072 66.28C149.852 66.16 149.557 66.07 149.187 66.01C148.817 65.94 148.352 65.905 147.792 65.905V64.345C148.732 64.345 149.392 64.23 149.772 64C150.162 63.76 150.357 63.45 150.357 63.07C150.357 62.74 150.232 62.485 149.982 62.305C149.732 62.115 149.387 62.02 148.947 62.02C148.567 62.02 148.217 62.095 147.897 62.245C147.577 62.395 147.252 62.6 146.922 62.86L145.812 61.51C146.282 61.13 146.782 60.835 147.312 60.625C147.852 60.405 148.432 60.295 149.052 60.295C149.572 60.295 150.047 60.355 150.477 60.475C150.907 60.585 151.277 60.755 151.587 60.985C151.897 61.205 152.137 61.475 152.307 61.795C152.477 62.115 152.562 62.485 152.562 62.905C152.562 63.405 152.402 63.83 152.082 64.18C151.762 64.52 151.317 64.8 150.747 65.02V65.08C151.347 65.24 151.852 65.515 152.262 65.905C152.672 66.285 152.877 66.785 152.877 67.405C152.877 67.845 152.772 68.24 152.562 68.59C152.362 68.93 152.087 69.22 151.737 69.46C151.397 69.69 150.997 69.87 150.537 70C150.077 70.12 149.597 70.18 149.097 70.18C148.277 70.18 147.572 70.06 146.982 69.82C146.392 69.57 145.912 69.24 145.542 68.83L146.562 67.435Z" fill="#F0E442"/>
<path d="M103.631 46.83H100.991V45.27H103.631V42.51H105.251V45.27H107.891V46.83H105.251V49.59H103.631V46.83ZM65.0148 64.27H71.9148V65.83H65.0148V64.27ZM112.626 65.83H109.986V64.27H112.626V61.51H114.246V64.27H116.886V65.83H114.246V68.59H112.626V65.83Z" fill="#E0E0E0"/>
</svg>
