<svg width="309" height="193" viewBox="0 0 309 193" fill="none" xmlns="http://www.w3.org/2000/svg">
<rect width="308" height="193" fill="black"/>
<line y1="116.5" x2="308.002" y2="116.5" stroke="white"/>
<path d="M11.5012 138.18C10.9212 138.18 10.3862 138.065 9.89622 137.835C9.41622 137.595 9.00122 137.255 8.65122 136.815C8.31122 136.375 8.04622 135.84 7.85622 135.21C7.66622 134.58 7.57122 133.865 7.57122 133.065C7.57122 132.265 7.66622 131.555 7.85622 130.935C8.04622 130.305 8.31122 129.78 8.65122 129.36C9.00122 128.93 9.41622 128.605 9.89622 128.385C10.3862 128.155 10.9212 128.04 11.5012 128.04C12.0812 128.04 12.6112 128.155 13.0912 128.385C13.5812 128.605 13.9962 128.93 14.3362 129.36C14.6862 129.79 14.9562 130.32 15.1462 130.95C15.3362 131.57 15.4312 132.275 15.4312 133.065C15.4312 133.865 15.3362 134.58 15.1462 135.21C14.9562 135.84 14.6862 136.375 14.3362 136.815C13.9962 137.255 13.5812 137.595 13.0912 137.835C12.6112 138.065 12.0812 138.18 11.5012 138.18ZM11.5012 136.275C12.0112 136.275 12.4162 135.99 12.7162 135.42C13.0162 134.84 13.1662 134.055 13.1662 133.065C13.1662 132.085 13.0162 131.32 12.7162 130.77C12.4162 130.22 12.0112 129.945 11.5012 129.945C10.9912 129.945 10.5862 130.22 10.2862 130.77C9.98622 131.32 9.83622 132.085 9.83622 133.065C9.83622 134.055 9.98622 134.84 10.2862 135.42C10.5862 135.99 10.9912 136.275 11.5012 136.275ZM23.8704 138H22.0704L21.9054 136.935H21.8454C21.5154 137.315 21.1504 137.62 20.7504 137.85C20.3504 138.07 19.8804 138.18 19.3404 138.18C18.4904 138.18 17.8754 137.91 17.4954 137.37C17.1154 136.83 16.9254 136.09 16.9254 135.15V130.56H19.1304V134.865C19.1304 135.365 19.2054 135.73 19.3554 135.96C19.5054 136.19 19.7904 136.305 20.2104 136.305C20.4904 136.305 20.7354 136.245 20.9454 136.125C21.1654 136.005 21.4054 135.78 21.6654 135.45V130.56H23.8704V138ZM27.5995 132.285H25.7245V130.65L27.7045 130.56L27.9895 128.58H29.8045V130.56H32.9545V132.285H29.8045V134.895C29.8045 135.465 29.9295 135.87 30.1795 136.11C30.4295 136.34 30.8245 136.455 31.3645 136.455C31.6545 136.455 31.9195 136.43 32.1595 136.38C32.3995 136.33 32.6295 136.265 32.8495 136.185L33.2395 137.775C32.9095 137.875 32.5395 137.965 32.1295 138.045C31.7295 138.135 31.2895 138.18 30.8095 138.18C30.2195 138.18 29.7195 138.1 29.3095 137.94C28.8995 137.78 28.5645 137.56 28.3045 137.28C28.0545 136.99 27.8745 136.645 27.7645 136.245C27.6545 135.845 27.5995 135.4 27.5995 134.91V132.285ZM37.2686 138.585V140.76H35.0636V130.56H36.8636L37.0286 131.31H37.0736C37.3736 131.04 37.7186 130.82 38.1086 130.65C38.4986 130.47 38.8936 130.38 39.2936 130.38C39.7536 130.38 40.1686 130.47 40.5386 130.65C40.9086 130.83 41.2236 131.085 41.4836 131.415C41.7436 131.745 41.9386 132.145 42.0686 132.615C42.2086 133.075 42.2786 133.59 42.2786 134.16C42.2786 134.8 42.1886 135.37 42.0086 135.87C41.8286 136.36 41.5886 136.78 41.2886 137.13C40.9886 137.47 40.6436 137.73 40.2536 137.91C39.8736 138.09 39.4736 138.18 39.0536 138.18C38.3736 138.18 37.7536 137.91 37.1936 137.37L37.2686 138.585ZM37.2686 135.885C37.4786 136.065 37.6936 136.195 37.9136 136.275C38.1436 136.345 38.3536 136.38 38.5436 136.38C38.9636 136.38 39.3136 136.21 39.5936 135.87C39.8736 135.52 40.0136 134.96 40.0136 134.19C40.0136 132.85 39.5586 132.18 38.6486 132.18C38.1786 132.18 37.7186 132.41 37.2686 132.87V135.885ZM50.8528 138H49.0528L48.8878 136.935H48.8278C48.4978 137.315 48.1328 137.62 47.7328 137.85C47.3328 138.07 46.8628 138.18 46.3228 138.18C45.4728 138.18 44.8578 137.91 44.4778 137.37C44.0978 136.83 43.9078 136.09 43.9078 135.15V130.56H46.1128V134.865C46.1128 135.365 46.1878 135.73 46.3378 135.96C46.4878 136.19 46.7728 136.305 47.1928 136.305C47.4728 136.305 47.7178 136.245 47.9278 136.125C48.1478 136.005 48.3878 135.78 48.6478 135.45V130.56H50.8528V138ZM54.5819 132.285H52.7069V130.65L54.6869 130.56L54.9719 128.58H56.7869V130.56H59.9369V132.285H56.7869V134.895C56.7869 135.465 56.9119 135.87 57.1619 136.11C57.4119 136.34 57.8069 136.455 58.3469 136.455C58.6369 136.455 58.9019 136.43 59.1419 136.38C59.3819 136.33 59.6119 136.265 59.8319 136.185L60.2219 137.775C59.8919 137.875 59.5219 137.965 59.1119 138.045C58.7119 138.135 58.2719 138.18 57.7919 138.18C57.2019 138.18 56.7019 138.1 56.2919 137.94C55.8819 137.78 55.5469 137.56 55.2869 137.28C55.0369 136.99 54.8569 136.645 54.7469 136.245C54.6369 135.845 54.5819 135.4 54.5819 134.91V132.285Z" fill="white"/>
<path d="M10.3908 154.58H7.46582V152.72H15.5358V154.58H12.6108V162.5H10.3908V154.58ZM17.39 163.58C17.58 163.64 17.775 163.67 17.975 163.67C18.405 163.67 18.74 163.58 18.98 163.4C19.23 163.22 19.415 162.985 19.535 162.695L19.685 162.305L16.46 155.06H18.65L19.895 158.255C20.035 158.605 20.165 158.97 20.285 159.35C20.405 159.72 20.525 160.1 20.645 160.49H20.705C20.805 160.12 20.915 159.75 21.035 159.38C21.155 159 21.27 158.625 21.38 158.255L22.475 155.06H24.56L21.62 162.575C21.44 163.045 21.245 163.455 21.035 163.805C20.825 164.165 20.585 164.46 20.315 164.69C20.045 164.93 19.73 165.11 19.37 165.23C19.02 165.35 18.61 165.41 18.14 165.41C17.92 165.41 17.715 165.395 17.525 165.365C17.335 165.345 17.16 165.31 17 165.26L17.39 163.58ZM28.2741 163.085V165.26H26.0691V155.06H27.8691L28.0341 155.81H28.0791C28.3791 155.54 28.7241 155.32 29.1141 155.15C29.5041 154.97 29.8991 154.88 30.2991 154.88C30.7591 154.88 31.1741 154.97 31.5441 155.15C31.9141 155.33 32.2291 155.585 32.4891 155.915C32.7491 156.245 32.9441 156.645 33.0741 157.115C33.2141 157.575 33.2841 158.09 33.2841 158.66C33.2841 159.3 33.1941 159.87 33.0141 160.37C32.8341 160.86 32.5941 161.28 32.2941 161.63C31.9941 161.97 31.6491 162.23 31.2591 162.41C30.8791 162.59 30.4791 162.68 30.0591 162.68C29.3791 162.68 28.7591 162.41 28.1991 161.87L28.2741 163.085ZM28.2741 160.385C28.4841 160.565 28.6991 160.695 28.9191 160.775C29.1491 160.845 29.3591 160.88 29.5491 160.88C29.9691 160.88 30.3191 160.71 30.5991 160.37C30.8791 160.02 31.0191 159.46 31.0191 158.69C31.0191 157.35 30.5641 156.68 29.6541 156.68C29.1841 156.68 28.7241 156.91 28.2741 157.37V160.385ZM34.8082 158.78C34.8082 158.17 34.9132 157.625 35.1232 157.145C35.3432 156.665 35.6332 156.26 35.9932 155.93C36.3532 155.59 36.7632 155.33 37.2232 155.15C37.6932 154.97 38.1782 154.88 38.6782 154.88C39.2482 154.88 39.7532 154.97 40.1932 155.15C40.6332 155.33 40.9982 155.58 41.2882 155.9C41.5782 156.22 41.7982 156.6 41.9482 157.04C42.0982 157.47 42.1732 157.94 42.1732 158.45C42.1732 158.65 42.1632 158.84 42.1432 159.02C42.1232 159.2 42.1032 159.335 42.0832 159.425H37.0732C37.1532 159.985 37.3932 160.39 37.7932 160.64C38.2032 160.88 38.6832 161 39.2332 161C39.5732 161 39.8932 160.96 40.1932 160.88C40.5032 160.79 40.8232 160.66 41.1532 160.49L41.8732 161.81C41.4532 162.08 40.9832 162.295 40.4632 162.455C39.9432 162.605 39.4332 162.68 38.9332 162.68C38.3532 162.68 37.8132 162.595 37.3132 162.425C36.8132 162.245 36.3782 161.99 36.0082 161.66C35.6382 161.32 35.3432 160.91 35.1232 160.43C34.9132 159.95 34.8082 159.4 34.8082 158.78ZM40.1782 157.97C40.1782 157.55 40.0632 157.21 39.8332 156.95C39.6032 156.69 39.2332 156.56 38.7232 156.56C38.3232 156.56 37.9682 156.675 37.6582 156.905C37.3482 157.135 37.1432 157.49 37.0432 157.97H40.1782ZM44.3874 152.72H50.8374V154.58H46.5924V156.545H50.1924V158.39H46.5924V160.64H50.9874V162.5H44.3874V152.72ZM53.7115 155.06H55.5115L55.6915 156.68H55.7365C56.1065 156.07 56.5515 155.62 57.0715 155.33C57.5915 155.03 58.1515 154.88 58.7515 154.88C59.0815 154.88 59.3465 154.905 59.5465 154.955C59.7565 155.005 59.9715 155.08 60.1915 155.18L59.7415 157.025C59.5115 156.955 59.3015 156.905 59.1115 156.875C58.9315 156.835 58.7015 156.815 58.4215 156.815C57.9615 156.815 57.5065 156.95 57.0565 157.22C56.6165 157.49 56.2365 157.96 55.9165 158.63V162.5H53.7115V155.06ZM62.7057 155.06H64.5057L64.6857 156.68H64.7307C65.1007 156.07 65.5457 155.62 66.0657 155.33C66.5857 155.03 67.1457 154.88 67.7457 154.88C68.0757 154.88 68.3407 154.905 68.5407 154.955C68.7507 155.005 68.9657 155.08 69.1857 155.18L68.7357 157.025C68.5057 156.955 68.2957 156.905 68.1057 156.875C67.9257 156.835 67.6957 156.815 67.4157 156.815C66.9557 156.815 66.5007 156.95 66.0507 157.22C65.6107 157.49 65.2307 157.96 64.9107 158.63V162.5H62.7057V155.06ZM70.6648 158.78C70.6648 158.16 70.7698 157.61 70.9798 157.13C71.1898 156.64 71.4698 156.23 71.8198 155.9C72.1798 155.57 72.5848 155.32 73.0348 155.15C73.4948 154.97 73.9698 154.88 74.4598 154.88C74.9498 154.88 75.4198 154.97 75.8698 155.15C76.3298 155.32 76.7348 155.57 77.0848 155.9C77.4448 156.23 77.7298 156.64 77.9398 157.13C78.1498 157.61 78.2548 158.16 78.2548 158.78C78.2548 159.4 78.1498 159.955 77.9398 160.445C77.7298 160.925 77.4448 161.33 77.0848 161.66C76.7348 161.99 76.3298 162.245 75.8698 162.425C75.4198 162.595 74.9498 162.68 74.4598 162.68C73.9698 162.68 73.4948 162.595 73.0348 162.425C72.5848 162.245 72.1798 161.99 71.8198 161.66C71.4698 161.33 71.1898 160.925 70.9798 160.445C70.7698 159.955 70.6648 159.4 70.6648 158.78ZM72.9298 158.78C72.9298 159.43 73.0548 159.945 73.3048 160.325C73.5648 160.705 73.9498 160.895 74.4598 160.895C74.9698 160.895 75.3498 160.705 75.5998 160.325C75.8598 159.945 75.9898 159.43 75.9898 158.78C75.9898 158.13 75.8598 157.615 75.5998 157.235C75.3498 156.855 74.9698 156.665 74.4598 156.665C73.9498 156.665 73.5648 156.855 73.3048 157.235C73.0548 157.615 72.9298 158.13 72.9298 158.78ZM80.6939 155.06H82.4939L82.6739 156.68H82.7189C83.0889 156.07 83.5339 155.62 84.0539 155.33C84.5739 155.03 85.1339 154.88 85.7339 154.88C86.0639 154.88 86.3289 154.905 86.5289 154.955C86.7389 155.005 86.9539 155.08 87.1739 155.18L86.7239 157.025C86.4939 156.955 86.2839 156.905 86.0939 156.875C85.9139 156.835 85.6839 156.815 85.4039 156.815C84.9439 156.815 84.4889 156.95 84.0389 157.22C83.5989 157.49 83.2189 157.96 82.8989 158.63V162.5H80.6939V155.06ZM90.7081 156.08C90.7081 155.83 90.7481 155.6 90.8281 155.39C90.9181 155.17 91.0381 154.98 91.1881 154.82C91.3381 154.66 91.5181 154.535 91.7281 154.445C91.9481 154.355 92.1881 154.31 92.4481 154.31C92.7081 154.31 92.9431 154.355 93.1531 154.445C93.3731 154.535 93.5581 154.66 93.7081 154.82C93.8581 154.98 93.9731 155.17 94.0531 155.39C94.1431 155.6 94.1881 155.83 94.1881 156.08C94.1881 156.58 94.0281 157 93.7081 157.34C93.3881 157.67 92.9681 157.835 92.4481 157.835C91.9281 157.835 91.5081 157.67 91.1881 157.34C90.8681 157 90.7081 156.58 90.7081 156.08ZM90.7081 160.925C90.7081 160.675 90.7481 160.445 90.8281 160.235C90.9181 160.015 91.0381 159.825 91.1881 159.665C91.3381 159.505 91.5181 159.38 91.7281 159.29C91.9481 159.2 92.1881 159.155 92.4481 159.155C92.7081 159.155 92.9431 159.2 93.1531 159.29C93.3731 159.38 93.5581 159.505 93.7081 159.665C93.8581 159.825 93.9731 160.015 94.0531 160.235C94.1431 160.445 94.1881 160.675 94.1881 160.925C94.1881 161.425 94.0281 161.845 93.7081 162.185C93.3881 162.515 92.9681 162.68 92.4481 162.68C91.9281 162.68 91.5081 162.515 91.1881 162.185C90.8681 161.845 90.7081 161.425 90.7081 160.925ZM113.811 162.5H112.011L111.846 161.435H111.786C111.456 161.815 111.091 162.12 110.691 162.35C110.291 162.57 109.821 162.68 109.281 162.68C108.431 162.68 107.816 162.41 107.436 161.87C107.056 161.33 106.866 160.59 106.866 159.65V155.06H109.071V159.365C109.071 159.865 109.146 160.23 109.296 160.46C109.446 160.69 109.731 160.805 110.151 160.805C110.431 160.805 110.676 160.745 110.886 160.625C111.106 160.505 111.346 160.28 111.606 159.95V155.06H113.811V162.5ZM116.011 155.06H117.811L117.976 156.05H118.036C118.356 155.73 118.721 155.455 119.131 155.225C119.551 154.995 120.041 154.88 120.601 154.88C121.441 154.88 122.056 155.15 122.446 155.69C122.836 156.23 123.031 156.97 123.031 157.91V162.5H120.826V158.195C120.826 157.695 120.746 157.33 120.586 157.1C120.426 156.87 120.141 156.755 119.731 156.755C119.431 156.755 119.166 156.82 118.936 156.95C118.716 157.08 118.476 157.275 118.216 157.535V162.5H116.011V155.06ZM125.71 160.16C126.14 160.43 126.57 160.645 127 160.805C127.44 160.965 127.91 161.045 128.41 161.045C128.92 161.045 129.285 160.99 129.505 160.88C129.725 160.77 129.835 160.615 129.835 160.415C129.835 160.185 129.65 160 129.28 159.86C128.92 159.71 128.44 159.55 127.84 159.38C127.51 159.29 127.185 159.185 126.865 159.065C126.555 158.935 126.275 158.785 126.025 158.615C125.775 158.435 125.57 158.23 125.41 158C125.26 157.77 125.185 157.505 125.185 157.205C125.185 156.865 125.265 156.55 125.425 156.26C125.585 155.97 125.81 155.725 126.1 155.525C126.4 155.325 126.76 155.17 127.18 155.06C127.61 154.94 128.09 154.88 128.62 154.88C129.28 154.88 129.88 154.99 130.42 155.21C130.97 155.42 131.44 155.65 131.83 155.9L130.84 157.22C130.5 157.02 130.15 156.855 129.79 156.725C129.43 156.585 129.055 156.515 128.665 156.515C128.195 156.515 127.86 156.565 127.66 156.665C127.47 156.765 127.375 156.91 127.375 157.1C127.375 157.21 127.425 157.31 127.525 157.4C127.625 157.49 127.76 157.57 127.93 157.64C128.1 157.71 128.3 157.78 128.53 157.85C128.77 157.91 129.02 157.975 129.28 158.045C129.65 158.145 130 158.26 130.33 158.39C130.66 158.51 130.95 158.655 131.2 158.825C131.45 158.995 131.65 159.2 131.8 159.44C131.95 159.68 132.025 159.96 132.025 160.28C132.025 160.62 131.945 160.935 131.785 161.225C131.625 161.515 131.39 161.77 131.08 161.99C130.78 162.2 130.4 162.37 129.94 162.5C129.49 162.62 128.965 162.68 128.365 162.68C127.695 162.68 127.04 162.57 126.4 162.35C125.76 162.13 125.2 161.86 124.72 161.54L125.71 160.16ZM140.794 162.5H138.994L138.829 161.435H138.769C138.439 161.815 138.074 162.12 137.674 162.35C137.274 162.57 136.804 162.68 136.264 162.68C135.414 162.68 134.799 162.41 134.419 161.87C134.039 161.33 133.849 160.59 133.849 159.65V155.06H136.054V159.365C136.054 159.865 136.129 160.23 136.279 160.46C136.429 160.69 136.714 160.805 137.134 160.805C137.414 160.805 137.659 160.745 137.869 160.625C138.089 160.505 138.329 160.28 138.589 159.95V155.06H140.794V162.5ZM145.198 163.085V165.26H142.993V155.06H144.793L144.958 155.81H145.003C145.303 155.54 145.648 155.32 146.038 155.15C146.428 154.97 146.823 154.88 147.223 154.88C147.683 154.88 148.098 154.97 148.468 155.15C148.838 155.33 149.153 155.585 149.413 155.915C149.673 156.245 149.868 156.645 149.998 157.115C150.138 157.575 150.208 158.09 150.208 158.66C150.208 159.3 150.118 159.87 149.938 160.37C149.758 160.86 149.518 161.28 149.218 161.63C148.918 161.97 148.573 162.23 148.183 162.41C147.803 162.59 147.403 162.68 146.983 162.68C146.303 162.68 145.683 162.41 145.123 161.87L145.198 163.085ZM145.198 160.385C145.408 160.565 145.623 160.695 145.843 160.775C146.073 160.845 146.283 160.88 146.473 160.88C146.893 160.88 147.243 160.71 147.523 160.37C147.803 160.02 147.943 159.46 147.943 158.69C147.943 157.35 147.488 156.68 146.578 156.68C146.108 156.68 145.648 156.91 145.198 157.37V160.385ZM154.192 163.085V165.26H151.987V155.06H153.787L153.952 155.81H153.997C154.297 155.54 154.642 155.32 155.032 155.15C155.422 154.97 155.817 154.88 156.217 154.88C156.677 154.88 157.092 154.97 157.462 155.15C157.832 155.33 158.147 155.585 158.407 155.915C158.667 156.245 158.862 156.645 158.992 157.115C159.132 157.575 159.202 158.09 159.202 158.66C159.202 159.3 159.112 159.87 158.932 160.37C158.752 160.86 158.512 161.28 158.212 161.63C157.912 161.97 157.567 162.23 157.177 162.41C156.797 162.59 156.397 162.68 155.977 162.68C155.297 162.68 154.677 162.41 154.117 161.87L154.192 163.085ZM154.192 160.385C154.402 160.565 154.617 160.695 154.837 160.775C155.067 160.845 155.277 160.88 155.467 160.88C155.887 160.88 156.237 160.71 156.517 160.37C156.797 160.02 156.937 159.46 156.937 158.69C156.937 157.35 156.482 156.68 155.572 156.68C155.102 156.68 154.642 156.91 154.192 157.37V160.385ZM160.606 158.78C160.606 158.16 160.711 157.61 160.921 157.13C161.131 156.64 161.411 156.23 161.761 155.9C162.121 155.57 162.526 155.32 162.976 155.15C163.436 154.97 163.911 154.88 164.401 154.88C164.891 154.88 165.361 154.97 165.811 155.15C166.271 155.32 166.676 155.57 167.026 155.9C167.386 156.23 167.671 156.64 167.881 157.13C168.091 157.61 168.196 158.16 168.196 158.78C168.196 159.4 168.091 159.955 167.881 160.445C167.671 160.925 167.386 161.33 167.026 161.66C166.676 161.99 166.271 162.245 165.811 162.425C165.361 162.595 164.891 162.68 164.401 162.68C163.911 162.68 163.436 162.595 162.976 162.425C162.526 162.245 162.121 161.99 161.761 161.66C161.411 161.33 161.131 160.925 160.921 160.445C160.711 159.955 160.606 159.4 160.606 158.78ZM162.871 158.78C162.871 159.43 162.996 159.945 163.246 160.325C163.506 160.705 163.891 160.895 164.401 160.895C164.911 160.895 165.291 160.705 165.541 160.325C165.801 159.945 165.931 159.43 165.931 158.78C165.931 158.13 165.801 157.615 165.541 157.235C165.291 156.855 164.911 156.665 164.401 156.665C163.891 156.665 163.506 156.855 163.246 157.235C162.996 157.615 162.871 158.13 162.871 158.78ZM170.635 155.06H172.435L172.615 156.68H172.66C173.03 156.07 173.475 155.62 173.995 155.33C174.515 155.03 175.075 154.88 175.675 154.88C176.005 154.88 176.27 154.905 176.47 154.955C176.68 155.005 176.895 155.08 177.115 155.18L176.665 157.025C176.435 156.955 176.225 156.905 176.035 156.875C175.855 156.835 175.625 156.815 175.345 156.815C174.885 156.815 174.43 156.95 173.98 157.22C173.54 157.49 173.16 157.96 172.84 158.63V162.5H170.635V155.06ZM180.499 156.785H178.624V155.15L180.604 155.06L180.889 153.08H182.704V155.06H185.854V156.785H182.704V159.395C182.704 159.965 182.829 160.37 183.079 160.61C183.329 160.84 183.724 160.955 184.264 160.955C184.554 160.955 184.819 160.93 185.059 160.88C185.299 160.83 185.529 160.765 185.749 160.685L186.139 162.275C185.809 162.375 185.439 162.465 185.029 162.545C184.629 162.635 184.189 162.68 183.709 162.68C183.119 162.68 182.619 162.6 182.209 162.44C181.799 162.28 181.464 162.06 181.204 161.78C180.954 161.49 180.774 161.145 180.664 160.745C180.554 160.345 180.499 159.9 180.499 159.41V156.785ZM187.709 158.78C187.709 158.17 187.814 157.625 188.024 157.145C188.244 156.665 188.534 156.26 188.894 155.93C189.254 155.59 189.664 155.33 190.124 155.15C190.594 154.97 191.079 154.88 191.579 154.88C192.149 154.88 192.654 154.97 193.094 155.15C193.534 155.33 193.899 155.58 194.189 155.9C194.479 156.22 194.699 156.6 194.849 157.04C194.999 157.47 195.074 157.94 195.074 158.45C195.074 158.65 195.064 158.84 195.044 159.02C195.024 159.2 195.004 159.335 194.984 159.425H189.974C190.054 159.985 190.294 160.39 190.694 160.64C191.104 160.88 191.584 161 192.134 161C192.474 161 192.794 160.96 193.094 160.88C193.404 160.79 193.724 160.66 194.054 160.49L194.774 161.81C194.354 162.08 193.884 162.295 193.364 162.455C192.844 162.605 192.334 162.68 191.834 162.68C191.254 162.68 190.714 162.595 190.214 162.425C189.714 162.245 189.279 161.99 188.909 161.66C188.539 161.32 188.244 160.91 188.024 160.43C187.814 159.95 187.709 159.4 187.709 158.78ZM193.079 157.97C193.079 157.55 192.964 157.21 192.734 156.95C192.504 156.69 192.134 156.56 191.624 156.56C191.224 156.56 190.869 156.675 190.559 156.905C190.249 157.135 190.044 157.49 189.944 157.97H193.079ZM196.583 158.78C196.583 158.17 196.673 157.625 196.853 157.145C197.033 156.665 197.268 156.26 197.558 155.93C197.858 155.59 198.198 155.33 198.578 155.15C198.958 154.97 199.353 154.88 199.763 154.88C200.193 154.88 200.553 154.955 200.843 155.105C201.133 155.245 201.408 155.435 201.668 155.675L201.593 154.52V151.985H203.798V162.5H201.998L201.833 161.735H201.788C201.508 162.005 201.188 162.23 200.828 162.41C200.468 162.59 200.098 162.68 199.718 162.68C199.248 162.68 198.818 162.59 198.428 162.41C198.048 162.23 197.718 161.975 197.438 161.645C197.168 161.305 196.958 160.895 196.808 160.415C196.658 159.935 196.583 159.39 196.583 158.78ZM198.848 158.75C198.848 159.49 198.973 160.03 199.223 160.37C199.473 160.71 199.828 160.88 200.288 160.88C200.538 160.88 200.768 160.83 200.978 160.73C201.188 160.62 201.393 160.44 201.593 160.19V157.175C201.393 156.995 201.188 156.87 200.978 156.8C200.778 156.72 200.568 156.68 200.348 156.68C199.938 156.68 199.583 156.85 199.283 157.19C198.993 157.53 198.848 158.05 198.848 158.75ZM214.571 158.78C214.571 158.16 214.676 157.61 214.886 157.13C215.096 156.64 215.376 156.23 215.726 155.9C216.086 155.57 216.491 155.32 216.941 155.15C217.401 154.97 217.876 154.88 218.366 154.88C218.856 154.88 219.326 154.97 219.776 155.15C220.236 155.32 220.641 155.57 220.991 155.9C221.351 156.23 221.636 156.64 221.846 157.13C222.056 157.61 222.161 158.16 222.161 158.78C222.161 159.4 222.056 159.955 221.846 160.445C221.636 160.925 221.351 161.33 220.991 161.66C220.641 161.99 220.236 162.245 219.776 162.425C219.326 162.595 218.856 162.68 218.366 162.68C217.876 162.68 217.401 162.595 216.941 162.425C216.491 162.245 216.086 161.99 215.726 161.66C215.376 161.33 215.096 160.925 214.886 160.445C214.676 159.955 214.571 159.4 214.571 158.78ZM216.836 158.78C216.836 159.43 216.961 159.945 217.211 160.325C217.471 160.705 217.856 160.895 218.366 160.895C218.876 160.895 219.256 160.705 219.506 160.325C219.766 159.945 219.896 159.43 219.896 158.78C219.896 158.13 219.766 157.615 219.506 157.235C219.256 156.855 218.876 156.665 218.366 156.665C217.856 156.665 217.471 156.855 217.211 157.235C216.961 157.615 216.836 158.13 216.836 158.78ZM226.145 163.085V165.26H223.94V155.06H225.74L225.905 155.81H225.95C226.25 155.54 226.595 155.32 226.985 155.15C227.375 154.97 227.77 154.88 228.17 154.88C228.63 154.88 229.045 154.97 229.415 155.15C229.785 155.33 230.1 155.585 230.36 155.915C230.62 156.245 230.815 156.645 230.945 157.115C231.085 157.575 231.155 158.09 231.155 158.66C231.155 159.3 231.065 159.87 230.885 160.37C230.705 160.86 230.465 161.28 230.165 161.63C229.865 161.97 229.52 162.23 229.13 162.41C228.75 162.59 228.35 162.68 227.93 162.68C227.25 162.68 226.63 162.41 226.07 161.87L226.145 163.085ZM226.145 160.385C226.355 160.565 226.57 160.695 226.79 160.775C227.02 160.845 227.23 160.88 227.42 160.88C227.84 160.88 228.19 160.71 228.47 160.37C228.75 160.02 228.89 159.46 228.89 158.69C228.89 157.35 228.435 156.68 227.525 156.68C227.055 156.68 226.595 156.91 226.145 157.37V160.385ZM232.679 158.78C232.679 158.17 232.784 157.625 232.994 157.145C233.214 156.665 233.504 156.26 233.864 155.93C234.224 155.59 234.634 155.33 235.094 155.15C235.564 154.97 236.049 154.88 236.549 154.88C237.119 154.88 237.624 154.97 238.064 155.15C238.504 155.33 238.869 155.58 239.159 155.9C239.449 156.22 239.669 156.6 239.819 157.04C239.969 157.47 240.044 157.94 240.044 158.45C240.044 158.65 240.034 158.84 240.014 159.02C239.994 159.2 239.974 159.335 239.954 159.425H234.944C235.024 159.985 235.264 160.39 235.664 160.64C236.074 160.88 236.554 161 237.104 161C237.444 161 237.764 160.96 238.064 160.88C238.374 160.79 238.694 160.66 239.024 160.49L239.744 161.81C239.324 162.08 238.854 162.295 238.334 162.455C237.814 162.605 237.304 162.68 236.804 162.68C236.224 162.68 235.684 162.595 235.184 162.425C234.684 162.245 234.249 161.99 233.879 161.66C233.509 161.32 233.214 160.91 232.994 160.43C232.784 159.95 232.679 159.4 232.679 158.78ZM238.049 157.97C238.049 157.55 237.934 157.21 237.704 156.95C237.474 156.69 237.104 156.56 236.594 156.56C236.194 156.56 235.839 156.675 235.529 156.905C235.219 157.135 235.014 157.49 234.914 157.97H238.049ZM242.588 155.06H244.388L244.568 156.68H244.613C244.983 156.07 245.428 155.62 245.948 155.33C246.468 155.03 247.028 154.88 247.628 154.88C247.958 154.88 248.223 154.905 248.423 154.955C248.633 155.005 248.848 155.08 249.068 155.18L248.618 157.025C248.388 156.955 248.178 156.905 247.988 156.875C247.808 156.835 247.578 156.815 247.298 156.815C246.838 156.815 246.383 156.95 245.933 157.22C245.493 157.49 245.113 157.96 244.793 158.63V162.5H242.588V155.06ZM250.758 160.43C250.758 160.01 250.848 159.645 251.028 159.335C251.208 159.015 251.493 158.745 251.883 158.525C252.283 158.305 252.793 158.13 253.413 158C254.033 157.86 254.783 157.765 255.663 157.715C255.623 157.375 255.473 157.11 255.213 156.92C254.963 156.73 254.583 156.635 254.073 156.635C253.713 156.635 253.348 156.7 252.978 156.83C252.618 156.95 252.228 157.115 251.808 157.325L251.028 155.885C251.538 155.595 252.083 155.355 252.663 155.165C253.253 154.975 253.868 154.88 254.508 154.88C255.548 154.88 256.368 155.155 256.968 155.705C257.568 156.255 257.868 157.1 257.868 158.24V162.5H256.068L255.903 161.66H255.843C255.463 161.95 255.048 162.195 254.598 162.395C254.148 162.585 253.683 162.68 253.203 162.68C252.823 162.68 252.483 162.62 252.183 162.5C251.883 162.39 251.628 162.235 251.418 162.035C251.208 161.825 251.043 161.585 250.923 161.315C250.813 161.045 250.758 160.75 250.758 160.43ZM252.873 160.265C252.873 160.505 252.963 160.685 253.143 160.805C253.333 160.915 253.588 160.97 253.908 160.97C254.238 160.97 254.548 160.905 254.838 160.775C255.128 160.635 255.403 160.465 255.663 160.265V159.035C255.113 159.065 254.658 159.115 254.298 159.185C253.938 159.255 253.653 159.345 253.443 159.455C253.233 159.555 253.083 159.675 252.993 159.815C252.913 159.955 252.873 160.105 252.873 160.265ZM259.917 155.06H261.717L261.882 156.05H261.942C262.262 155.73 262.627 155.455 263.037 155.225C263.457 154.995 263.947 154.88 264.507 154.88C265.347 154.88 265.962 155.15 266.352 155.69C266.742 156.23 266.937 156.97 266.937 157.91V162.5H264.732V158.195C264.732 157.695 264.652 157.33 264.492 157.1C264.332 156.87 264.047 156.755 263.637 156.755C263.337 156.755 263.072 156.82 262.842 156.95C262.622 157.08 262.382 157.275 262.122 157.535V162.5H259.917V155.06ZM268.536 158.78C268.536 158.17 268.626 157.625 268.806 157.145C268.986 156.665 269.221 156.26 269.511 155.93C269.811 155.59 270.151 155.33 270.531 155.15C270.911 154.97 271.306 154.88 271.716 154.88C272.146 154.88 272.506 154.955 272.796 155.105C273.086 155.245 273.361 155.435 273.621 155.675L273.546 154.52V151.985H275.751V162.5H273.951L273.786 161.735H273.741C273.461 162.005 273.141 162.23 272.781 162.41C272.421 162.59 272.051 162.68 271.671 162.68C271.201 162.68 270.771 162.59 270.381 162.41C270.001 162.23 269.671 161.975 269.391 161.645C269.121 161.305 268.911 160.895 268.761 160.415C268.611 159.935 268.536 159.39 268.536 158.78ZM270.801 158.75C270.801 159.49 270.926 160.03 271.176 160.37C271.426 160.71 271.781 160.88 272.241 160.88C272.491 160.88 272.721 160.83 272.931 160.73C273.141 160.62 273.346 160.44 273.546 160.19V157.175C273.346 156.995 273.141 156.87 272.931 156.8C272.731 156.72 272.521 156.68 272.301 156.68C271.891 156.68 271.536 156.85 271.236 157.19C270.946 157.53 270.801 158.05 270.801 158.75ZM9.61082 175.785H7.73582V174.15L9.71582 174.06L10.0008 172.08H11.8158V174.06H14.9658V175.785H11.8158V178.395C11.8158 178.965 11.9408 179.37 12.1908 179.61C12.4408 179.84 12.8358 179.955 13.3758 179.955C13.6658 179.955 13.9308 179.93 14.1708 179.88C14.4108 179.83 14.6408 179.765 14.8608 179.685L15.2508 181.275C14.9208 181.375 14.5508 181.465 14.1408 181.545C13.7408 181.635 13.3008 181.68 12.8208 181.68C12.2308 181.68 11.7308 181.6 11.3208 181.44C10.9108 181.28 10.5758 181.06 10.3158 180.78C10.0658 180.49 9.88582 180.145 9.77582 179.745C9.66582 179.345 9.61082 178.9 9.61082 178.41V175.785ZM17.39 182.58C17.58 182.64 17.775 182.67 17.975 182.67C18.405 182.67 18.74 182.58 18.98 182.4C19.23 182.22 19.415 181.985 19.535 181.695L19.685 181.305L16.46 174.06H18.65L19.895 177.255C20.035 177.605 20.165 177.97 20.285 178.35C20.405 178.72 20.525 179.1 20.645 179.49H20.705C20.805 179.12 20.915 178.75 21.035 178.38C21.155 178 21.27 177.625 21.38 177.255L22.475 174.06H24.56L21.62 181.575C21.44 182.045 21.245 182.455 21.035 182.805C20.825 183.165 20.585 183.46 20.315 183.69C20.045 183.93 19.73 184.11 19.37 184.23C19.02 184.35 18.61 184.41 18.14 184.41C17.92 184.41 17.715 184.395 17.525 184.365C17.335 184.345 17.16 184.31 17 184.26L17.39 182.58ZM28.2741 182.085V184.26H26.0691V174.06H27.8691L28.0341 174.81H28.0791C28.3791 174.54 28.7241 174.32 29.1141 174.15C29.5041 173.97 29.8991 173.88 30.2991 173.88C30.7591 173.88 31.1741 173.97 31.5441 174.15C31.9141 174.33 32.2291 174.585 32.4891 174.915C32.7491 175.245 32.9441 175.645 33.0741 176.115C33.2141 176.575 33.2841 177.09 33.2841 177.66C33.2841 178.3 33.1941 178.87 33.0141 179.37C32.8341 179.86 32.5941 180.28 32.2941 180.63C31.9941 180.97 31.6491 181.23 31.2591 181.41C30.8791 181.59 30.4791 181.68 30.0591 181.68C29.3791 181.68 28.7591 181.41 28.1991 180.87L28.2741 182.085ZM28.2741 179.385C28.4841 179.565 28.6991 179.695 28.9191 179.775C29.1491 179.845 29.3591 179.88 29.5491 179.88C29.9691 179.88 30.3191 179.71 30.5991 179.37C30.8791 179.02 31.0191 178.46 31.0191 177.69C31.0191 176.35 30.5641 175.68 29.6541 175.68C29.1841 175.68 28.7241 175.91 28.2741 176.37V179.385ZM34.8082 177.78C34.8082 177.17 34.9132 176.625 35.1232 176.145C35.3432 175.665 35.6332 175.26 35.9932 174.93C36.3532 174.59 36.7632 174.33 37.2232 174.15C37.6932 173.97 38.1782 173.88 38.6782 173.88C39.2482 173.88 39.7532 173.97 40.1932 174.15C40.6332 174.33 40.9982 174.58 41.2882 174.9C41.5782 175.22 41.7982 175.6 41.9482 176.04C42.0982 176.47 42.1732 176.94 42.1732 177.45C42.1732 177.65 42.1632 177.84 42.1432 178.02C42.1232 178.2 42.1032 178.335 42.0832 178.425H37.0732C37.1532 178.985 37.3932 179.39 37.7932 179.64C38.2032 179.88 38.6832 180 39.2332 180C39.5732 180 39.8932 179.96 40.1932 179.88C40.5032 179.79 40.8232 179.66 41.1532 179.49L41.8732 180.81C41.4532 181.08 40.9832 181.295 40.4632 181.455C39.9432 181.605 39.4332 181.68 38.9332 181.68C38.3532 181.68 37.8132 181.595 37.3132 181.425C36.8132 181.245 36.3782 180.99 36.0082 180.66C35.6382 180.32 35.3432 179.91 35.1232 179.43C34.9132 178.95 34.8082 178.4 34.8082 177.78ZM40.1782 176.97C40.1782 176.55 40.0632 176.21 39.8332 175.95C39.6032 175.69 39.2332 175.56 38.7232 175.56C38.3232 175.56 37.9682 175.675 37.6582 175.905C37.3482 176.135 37.1432 176.49 37.0432 176.97H40.1782ZM48.8574 184.185C47.8774 183.315 47.1024 182.31 46.5324 181.17C45.9724 180.03 45.6924 178.75 45.6924 177.33C45.6924 175.91 45.9724 174.63 46.5324 173.49C47.1024 172.35 47.8774 171.345 48.8574 170.475L50.0874 171.45C49.1974 172.32 48.5474 173.225 48.1374 174.165C47.7374 175.095 47.5374 176.15 47.5374 177.33C47.5374 177.92 47.5874 178.48 47.6874 179.01C47.7874 179.53 47.9374 180.03 48.1374 180.51C48.3474 180.99 48.6124 181.45 48.9324 181.89C49.2524 182.34 49.6374 182.78 50.0874 183.21L48.8574 184.185ZM53.7565 179.16C54.1865 179.43 54.6165 179.645 55.0465 179.805C55.4865 179.965 55.9565 180.045 56.4565 180.045C56.9665 180.045 57.3315 179.99 57.5515 179.88C57.7715 179.77 57.8815 179.615 57.8815 179.415C57.8815 179.185 57.6965 179 57.3265 178.86C56.9665 178.71 56.4865 178.55 55.8865 178.38C55.5565 178.29 55.2315 178.185 54.9115 178.065C54.6015 177.935 54.3215 177.785 54.0715 177.615C53.8215 177.435 53.6165 177.23 53.4565 177C53.3065 176.77 53.2315 176.505 53.2315 176.205C53.2315 175.865 53.3115 175.55 53.4715 175.26C53.6315 174.97 53.8565 174.725 54.1465 174.525C54.4465 174.325 54.8065 174.17 55.2265 174.06C55.6565 173.94 56.1365 173.88 56.6665 173.88C57.3265 173.88 57.9265 173.99 58.4665 174.21C59.0165 174.42 59.4865 174.65 59.8765 174.9L58.8865 176.22C58.5465 176.02 58.1965 175.855 57.8365 175.725C57.4765 175.585 57.1015 175.515 56.7115 175.515C56.2415 175.515 55.9065 175.565 55.7065 175.665C55.5165 175.765 55.4215 175.91 55.4215 176.1C55.4215 176.21 55.4715 176.31 55.5715 176.4C55.6715 176.49 55.8065 176.57 55.9765 176.64C56.1465 176.71 56.3465 176.78 56.5765 176.85C56.8165 176.91 57.0665 176.975 57.3265 177.045C57.6965 177.145 58.0465 177.26 58.3765 177.39C58.7065 177.51 58.9965 177.655 59.2465 177.825C59.4965 177.995 59.6965 178.2 59.8465 178.44C59.9965 178.68 60.0715 178.96 60.0715 179.28C60.0715 179.62 59.9915 179.935 59.8315 180.225C59.6715 180.515 59.4365 180.77 59.1265 180.99C58.8265 181.2 58.4465 181.37 57.9865 181.5C57.5365 181.62 57.0115 181.68 56.4115 181.68C55.7415 181.68 55.0865 181.57 54.4465 181.35C53.8065 181.13 53.2465 180.86 52.7665 180.54L53.7565 179.16ZM62.8557 183.21C63.3057 182.78 63.6907 182.34 64.0107 181.89C64.3307 181.45 64.5907 180.99 64.7907 180.51C65.0007 180.03 65.1557 179.53 65.2557 179.01C65.3557 178.48 65.4057 177.92 65.4057 177.33C65.4057 176.15 65.2007 175.095 64.7907 174.165C64.3907 173.225 63.7457 172.32 62.8557 171.45L64.0857 170.475C65.0657 171.345 65.8357 172.35 66.3957 173.49C66.9657 174.63 67.2507 175.91 67.2507 177.33C67.2507 178.75 66.9657 180.03 66.3957 181.17C65.8357 182.31 65.0657 183.315 64.0857 184.185L62.8557 183.21ZM87.3089 172.83C86.8189 172.64 86.2989 172.545 85.7489 172.545C85.2689 172.545 84.9139 172.65 84.6839 172.86C84.4639 173.07 84.3539 173.4 84.3539 173.85V174.06H86.9189V175.785H84.3539V181.5H82.1489V175.785H80.1839V174.15L82.1489 174.06V173.865C82.1489 173.435 82.2139 173.035 82.3439 172.665C82.4739 172.295 82.6739 171.975 82.9439 171.705C83.2139 171.425 83.5589 171.205 83.9789 171.045C84.3989 170.885 84.8989 170.805 85.4789 170.805C85.9089 170.805 86.3089 170.845 86.6789 170.925C87.0589 171.005 87.4089 171.1 87.7289 171.21L87.3089 172.83ZM88.6531 177.78C88.6531 177.16 88.7581 176.61 88.9681 176.13C89.1781 175.64 89.4581 175.23 89.8081 174.9C90.1681 174.57 90.5731 174.32 91.0231 174.15C91.4831 173.97 91.9581 173.88 92.4481 173.88C92.9381 173.88 93.4081 173.97 93.8581 174.15C94.3181 174.32 94.7231 174.57 95.0731 174.9C95.4331 175.23 95.7181 175.64 95.9281 176.13C96.1381 176.61 96.2431 177.16 96.2431 177.78C96.2431 178.4 96.1381 178.955 95.9281 179.445C95.7181 179.925 95.4331 180.33 95.0731 180.66C94.7231 180.99 94.3181 181.245 93.8581 181.425C93.4081 181.595 92.9381 181.68 92.4481 181.68C91.9581 181.68 91.4831 181.595 91.0231 181.425C90.5731 181.245 90.1681 180.99 89.8081 180.66C89.4581 180.33 89.1781 179.925 88.9681 179.445C88.7581 178.955 88.6531 178.4 88.6531 177.78ZM90.9181 177.78C90.9181 178.43 91.0431 178.945 91.2931 179.325C91.5531 179.705 91.9381 179.895 92.4481 179.895C92.9581 179.895 93.3381 179.705 93.5881 179.325C93.8481 178.945 93.9781 178.43 93.9781 177.78C93.9781 177.13 93.8481 176.615 93.5881 176.235C93.3381 175.855 92.9581 175.665 92.4481 175.665C91.9381 175.665 91.5531 175.855 91.2931 176.235C91.0431 176.615 90.9181 177.13 90.9181 177.78ZM98.6822 174.06H100.482L100.662 175.68H100.707C101.077 175.07 101.522 174.62 102.042 174.33C102.562 174.03 103.122 173.88 103.722 173.88C104.052 173.88 104.317 173.905 104.517 173.955C104.727 174.005 104.942 174.08 105.162 174.18L104.712 176.025C104.482 175.955 104.272 175.905 104.082 175.875C103.902 175.835 103.672 175.815 103.392 175.815C102.932 175.815 102.477 175.95 102.027 176.22C101.587 176.49 101.207 176.96 100.887 177.63V181.5H98.6822V174.06ZM117.886 183.9H116.041L120.976 170.85H122.821L117.886 183.9ZM126.685 175.08C126.685 174.83 126.725 174.6 126.805 174.39C126.895 174.17 127.015 173.98 127.165 173.82C127.315 173.66 127.495 173.535 127.705 173.445C127.925 173.355 128.165 173.31 128.425 173.31C128.685 173.31 128.92 173.355 129.13 173.445C129.35 173.535 129.535 173.66 129.685 173.82C129.835 173.98 129.95 174.17 130.03 174.39C130.12 174.6 130.165 174.83 130.165 175.08C130.165 175.58 130.005 176 129.685 176.34C129.365 176.67 128.945 176.835 128.425 176.835C127.905 176.835 127.485 176.67 127.165 176.34C126.845 176 126.685 175.58 126.685 175.08ZM126.685 179.925C126.685 179.675 126.725 179.445 126.805 179.235C126.895 179.015 127.015 178.825 127.165 178.665C127.315 178.505 127.495 178.38 127.705 178.29C127.925 178.2 128.165 178.155 128.425 178.155C128.685 178.155 128.92 178.2 129.13 178.29C129.35 178.38 129.535 178.505 129.685 178.665C129.835 178.825 129.95 179.015 130.03 179.235C130.12 179.445 130.165 179.675 130.165 179.925C130.165 180.425 130.005 180.845 129.685 181.185C129.365 181.515 128.945 181.68 128.425 181.68C127.905 181.68 127.485 181.515 127.165 181.185C126.845 180.845 126.685 180.425 126.685 179.925ZM145.213 173.4L145.138 171.225H147.688L147.613 173.4L147.088 176.955H145.738L145.213 173.4ZM151.837 170.985H156.202V178.68C156.202 178.91 156.232 179.105 156.292 179.265C156.362 179.415 156.452 179.54 156.562 179.64C156.682 179.73 156.812 179.795 156.952 179.835C157.102 179.875 157.252 179.895 157.402 179.895C157.572 179.895 157.752 179.88 157.942 179.85C158.132 179.81 158.342 179.745 158.572 179.655L159.067 181.275C158.867 181.335 158.682 181.39 158.512 181.44C158.342 181.49 158.172 181.53 158.002 181.56C157.832 181.6 157.652 181.63 157.462 181.65C157.272 181.67 157.062 181.68 156.832 181.68C155.892 181.68 155.182 181.405 154.702 180.855C154.232 180.295 153.997 179.54 153.997 178.59V172.725H151.837V170.985ZM161.086 174.06H166.276V181.5H164.071V175.785H161.086V174.06ZM165.076 172.965C164.646 172.965 164.291 172.845 164.011 172.605C163.741 172.365 163.606 172.04 163.606 171.63C163.606 171.22 163.741 170.89 164.011 170.64C164.291 170.38 164.646 170.25 165.076 170.25C165.506 170.25 165.856 170.38 166.126 170.64C166.406 170.89 166.546 171.22 166.546 171.63C166.546 172.04 166.406 172.365 166.126 172.605C165.856 172.845 165.506 172.965 165.076 172.965ZM170.68 179.16C171.11 179.43 171.54 179.645 171.97 179.805C172.41 179.965 172.88 180.045 173.38 180.045C173.89 180.045 174.255 179.99 174.475 179.88C174.695 179.77 174.805 179.615 174.805 179.415C174.805 179.185 174.62 179 174.25 178.86C173.89 178.71 173.41 178.55 172.81 178.38C172.48 178.29 172.155 178.185 171.835 178.065C171.525 177.935 171.245 177.785 170.995 177.615C170.745 177.435 170.54 177.23 170.38 177C170.23 176.77 170.155 176.505 170.155 176.205C170.155 175.865 170.235 175.55 170.395 175.26C170.555 174.97 170.78 174.725 171.07 174.525C171.37 174.325 171.73 174.17 172.15 174.06C172.58 173.94 173.06 173.88 173.59 173.88C174.25 173.88 174.85 173.99 175.39 174.21C175.94 174.42 176.41 174.65 176.8 174.9L175.81 176.22C175.47 176.02 175.12 175.855 174.76 175.725C174.4 175.585 174.025 175.515 173.635 175.515C173.165 175.515 172.83 175.565 172.63 175.665C172.44 175.765 172.345 175.91 172.345 176.1C172.345 176.21 172.395 176.31 172.495 176.4C172.595 176.49 172.73 176.57 172.9 176.64C173.07 176.71 173.27 176.78 173.5 176.85C173.74 176.91 173.99 176.975 174.25 177.045C174.62 177.145 174.97 177.26 175.3 177.39C175.63 177.51 175.92 177.655 176.17 177.825C176.42 177.995 176.62 178.2 176.77 178.44C176.92 178.68 176.995 178.96 176.995 179.28C176.995 179.62 176.915 179.935 176.755 180.225C176.595 180.515 176.36 180.77 176.05 180.99C175.75 181.2 175.37 181.37 174.91 181.5C174.46 181.62 173.935 181.68 173.335 181.68C172.665 181.68 172.01 181.57 171.37 181.35C170.73 181.13 170.17 180.86 169.69 180.54L170.68 179.16ZM180.499 175.785H178.624V174.15L180.604 174.06L180.889 172.08H182.704V174.06H185.854V175.785H182.704V178.395C182.704 178.965 182.829 179.37 183.079 179.61C183.329 179.84 183.724 179.955 184.264 179.955C184.554 179.955 184.819 179.93 185.059 179.88C185.299 179.83 185.529 179.765 185.749 179.685L186.139 181.275C185.809 181.375 185.439 181.465 185.029 181.545C184.629 181.635 184.189 181.68 183.709 181.68C183.119 181.68 182.619 181.6 182.209 181.44C181.799 181.28 181.464 181.06 181.204 180.78C180.954 180.49 180.774 180.145 180.664 179.745C180.554 179.345 180.499 178.9 180.499 178.41V175.785ZM190.184 173.4L190.109 171.225H192.659L192.584 173.4L192.059 176.955H190.709L190.184 173.4ZM205.787 179.43C205.787 179.01 205.877 178.645 206.057 178.335C206.237 178.015 206.522 177.745 206.912 177.525C207.312 177.305 207.822 177.13 208.442 177C209.062 176.86 209.812 176.765 210.692 176.715C210.652 176.375 210.502 176.11 210.242 175.92C209.992 175.73 209.612 175.635 209.102 175.635C208.742 175.635 208.377 175.7 208.007 175.83C207.647 175.95 207.257 176.115 206.837 176.325L206.057 174.885C206.567 174.595 207.112 174.355 207.692 174.165C208.282 173.975 208.897 173.88 209.537 173.88C210.577 173.88 211.397 174.155 211.997 174.705C212.597 175.255 212.897 176.1 212.897 177.24V181.5H211.097L210.932 180.66H210.872C210.492 180.95 210.077 181.195 209.627 181.395C209.177 181.585 208.712 181.68 208.232 181.68C207.852 181.68 207.512 181.62 207.212 181.5C206.912 181.39 206.657 181.235 206.447 181.035C206.237 180.825 206.072 180.585 205.952 180.315C205.842 180.045 205.787 179.75 205.787 179.43ZM207.902 179.265C207.902 179.505 207.992 179.685 208.172 179.805C208.362 179.915 208.617 179.97 208.937 179.97C209.267 179.97 209.577 179.905 209.867 179.775C210.157 179.635 210.432 179.465 210.692 179.265V178.035C210.142 178.065 209.687 178.115 209.327 178.185C208.967 178.255 208.682 178.345 208.472 178.455C208.262 178.555 208.112 178.675 208.022 178.815C207.942 178.955 207.902 179.105 207.902 179.265ZM214.946 174.06H216.746L216.911 175.05H216.971C217.291 174.73 217.656 174.455 218.066 174.225C218.486 173.995 218.976 173.88 219.536 173.88C220.376 173.88 220.991 174.15 221.381 174.69C221.771 175.23 221.966 175.97 221.966 176.91V181.5H219.761V177.195C219.761 176.695 219.681 176.33 219.521 176.1C219.361 175.87 219.076 175.755 218.666 175.755C218.366 175.755 218.101 175.82 217.871 175.95C217.651 176.08 217.411 176.275 217.151 176.535V181.5H214.946V174.06ZM223.565 177.78C223.565 177.17 223.655 176.625 223.835 176.145C224.015 175.665 224.25 175.26 224.54 174.93C224.84 174.59 225.18 174.33 225.56 174.15C225.94 173.97 226.335 173.88 226.745 173.88C227.175 173.88 227.535 173.955 227.825 174.105C228.115 174.245 228.39 174.435 228.65 174.675L228.575 173.52V170.985H230.78V181.5H228.98L228.815 180.735H228.77C228.49 181.005 228.17 181.23 227.81 181.41C227.45 181.59 227.08 181.68 226.7 181.68C226.23 181.68 225.8 181.59 225.41 181.41C225.03 181.23 224.7 180.975 224.42 180.645C224.15 180.305 223.94 179.895 223.79 179.415C223.64 178.935 223.565 178.39 223.565 177.78ZM225.83 177.75C225.83 178.49 225.955 179.03 226.205 179.37C226.455 179.71 226.81 179.88 227.27 179.88C227.52 179.88 227.75 179.83 227.96 179.73C228.17 179.62 228.375 179.44 228.575 179.19V176.175C228.375 175.995 228.17 175.87 227.96 175.8C227.76 175.72 227.55 175.68 227.33 175.68C226.92 175.68 226.565 175.85 226.265 176.19C225.975 176.53 225.83 177.05 225.83 177.75ZM244.148 173.4L244.073 171.225H246.623L246.548 173.4L246.023 176.955H244.673L244.148 173.4ZM251.628 179.16C252.058 179.43 252.488 179.645 252.918 179.805C253.358 179.965 253.828 180.045 254.328 180.045C254.838 180.045 255.203 179.99 255.423 179.88C255.643 179.77 255.753 179.615 255.753 179.415C255.753 179.185 255.568 179 255.198 178.86C254.838 178.71 254.358 178.55 253.758 178.38C253.428 178.29 253.103 178.185 252.783 178.065C252.473 177.935 252.193 177.785 251.943 177.615C251.693 177.435 251.488 177.23 251.328 177C251.178 176.77 251.103 176.505 251.103 176.205C251.103 175.865 251.183 175.55 251.343 175.26C251.503 174.97 251.728 174.725 252.018 174.525C252.318 174.325 252.678 174.17 253.098 174.06C253.528 173.94 254.008 173.88 254.538 173.88C255.198 173.88 255.798 173.99 256.338 174.21C256.888 174.42 257.358 174.65 257.748 174.9L256.758 176.22C256.418 176.02 256.068 175.855 255.708 175.725C255.348 175.585 254.973 175.515 254.583 175.515C254.113 175.515 253.778 175.565 253.578 175.665C253.388 175.765 253.293 175.91 253.293 176.1C253.293 176.21 253.343 176.31 253.443 176.4C253.543 176.49 253.678 176.57 253.848 176.64C254.018 176.71 254.218 176.78 254.448 176.85C254.688 176.91 254.938 176.975 255.198 177.045C255.568 177.145 255.918 177.26 256.248 177.39C256.578 177.51 256.868 177.655 257.118 177.825C257.368 177.995 257.568 178.2 257.718 178.44C257.868 178.68 257.943 178.96 257.943 179.28C257.943 179.62 257.863 179.935 257.703 180.225C257.543 180.515 257.308 180.77 256.998 180.99C256.698 181.2 256.318 181.37 255.858 181.5C255.408 181.62 254.883 181.68 254.283 181.68C253.613 181.68 252.958 181.57 252.318 181.35C251.678 181.13 251.118 180.86 250.638 180.54L251.628 179.16ZM261.447 175.785H259.572V174.15L261.552 174.06L261.837 172.08H263.652V174.06H266.802V175.785H263.652V178.395C263.652 178.965 263.777 179.37 264.027 179.61C264.277 179.84 264.672 179.955 265.212 179.955C265.502 179.955 265.767 179.93 266.007 179.88C266.247 179.83 266.477 179.765 266.697 179.685L267.087 181.275C266.757 181.375 266.387 181.465 265.977 181.545C265.577 181.635 265.137 181.68 264.657 181.68C264.067 181.68 263.567 181.6 263.157 181.44C262.747 181.28 262.412 181.06 262.152 180.78C261.902 180.49 261.722 180.145 261.612 179.745C261.502 179.345 261.447 178.9 261.447 178.41V175.785ZM269.571 174.06H271.371L271.551 175.68H271.596C271.966 175.07 272.411 174.62 272.931 174.33C273.451 174.03 274.011 173.88 274.611 173.88C274.941 173.88 275.206 173.905 275.406 173.955C275.616 174.005 275.831 174.08 276.051 174.18L275.601 176.025C275.371 175.955 275.161 175.905 274.971 175.875C274.791 175.835 274.561 175.815 274.281 175.815C273.821 175.815 273.366 175.95 272.916 176.22C272.476 176.49 272.096 176.96 271.776 177.63V181.5H269.571V174.06ZM280.125 173.4L280.05 171.225H282.6L282.525 173.4L282 176.955H280.65L280.125 173.4Z" fill="#D55E00"/>
<rect x="79" width="229" height="31" fill="#333333"/>
<rect x="79" width="229" height="31" fill="#333333"/>
<rect width="79" height="31" fill="#090808"/>
<path d="M12.105 17.8101C12.105 17.5513 11.9756 17.3486 11.7168 17.2021C11.4629 17.0508 11.0527 16.9165 10.4863 16.7993C8.60156 16.4038 7.65918 15.603 7.65918 14.397C7.65918 13.6938 7.94971 13.1079 8.53076 12.6392C9.1167 12.1655 9.88086 11.9287 10.8232 11.9287C11.8291 11.9287 12.6323 12.1655 13.2329 12.6392C13.8384 13.1128 14.1411 13.728 14.1411 14.4849H12.0244C12.0244 14.1821 11.9268 13.9331 11.7314 13.7378C11.5361 13.5376 11.231 13.4375 10.8159 13.4375C10.4595 13.4375 10.1836 13.5181 9.98828 13.6792C9.79297 13.8403 9.69531 14.0454 9.69531 14.2944C9.69531 14.5288 9.80518 14.7192 10.0249 14.8657C10.2495 15.0073 10.6255 15.1318 11.1528 15.2393C11.6802 15.3418 12.1245 15.459 12.4858 15.5908C13.604 16.001 14.1631 16.7114 14.1631 17.7222C14.1631 18.4448 13.853 19.0308 13.2329 19.48C12.6128 19.9243 11.812 20.1465 10.8306 20.1465C10.1665 20.1465 9.57568 20.0293 9.05811 19.7949C8.54541 19.5557 8.14258 19.231 7.84961 18.8208C7.55664 18.4058 7.41016 17.959 7.41016 17.4805H9.41699C9.43652 17.8564 9.57568 18.1445 9.83447 18.3447C10.0933 18.5449 10.4399 18.645 10.8745 18.645C11.2798 18.645 11.585 18.5693 11.79 18.418C12 18.2617 12.105 18.0591 12.105 17.8101ZM18.8286 18.4399C19.2192 18.4399 19.5366 18.3325 19.7808 18.1177C20.0249 17.9028 20.1519 17.6172 20.1616 17.2607H22.1465C22.1416 17.7979 21.9951 18.291 21.707 18.7402C21.4189 19.1846 21.0234 19.5312 20.5205 19.7803C20.0225 20.0244 19.4707 20.1465 18.8652 20.1465C17.7324 20.1465 16.8389 19.7876 16.1846 19.0698C15.5303 18.3472 15.2031 17.3511 15.2031 16.0815V15.9424C15.2031 14.7217 15.5278 13.7476 16.1772 13.02C16.8267 12.2925 17.7178 11.9287 18.8506 11.9287C19.8418 11.9287 20.6353 12.2119 21.231 12.7783C21.8315 13.3398 22.1367 14.0894 22.1465 15.0269H20.1616C20.1519 14.6167 20.0249 14.2847 19.7808 14.0308C19.5366 13.772 19.2144 13.6426 18.814 13.6426C18.3208 13.6426 17.9473 13.8232 17.6934 14.1846C17.4443 14.541 17.3198 15.1221 17.3198 15.9277V16.1475C17.3198 16.9629 17.4443 17.5488 17.6934 17.9053C17.9424 18.2617 18.3208 18.4399 18.8286 18.4399ZM27.8081 14.0601C27.52 14.021 27.2661 14.0015 27.0464 14.0015C26.2456 14.0015 25.7207 14.2725 25.4717 14.8145V20H23.355V12.0752H25.3545L25.4131 13.02C25.8379 12.2925 26.4263 11.9287 27.1782 11.9287C27.4126 11.9287 27.6323 11.9604 27.8374 12.0239L27.8081 14.0601ZM31.0674 20H28.9434V12.0752H31.0674V20ZM28.8188 10.0244C28.8188 9.70703 28.9238 9.4458 29.1338 9.24072C29.3486 9.03564 29.6392 8.93311 30.0054 8.93311C30.3667 8.93311 30.6548 9.03564 30.8696 9.24072C31.0845 9.4458 31.1919 9.70703 31.1919 10.0244C31.1919 10.3467 31.082 10.6104 30.8623 10.8154C30.6475 11.0205 30.3618 11.123 30.0054 11.123C29.6489 11.123 29.3608 11.0205 29.1411 10.8154C28.9263 10.6104 28.8188 10.3467 28.8188 10.0244ZM39.9517 16.1108C39.9517 17.3315 39.6733 18.3105 39.1167 19.0479C38.5649 19.7803 37.8179 20.1465 36.8755 20.1465C36.0747 20.1465 35.4277 19.8682 34.9346 19.3115V23.0469H32.8179V12.0752H34.7808L34.854 12.8516C35.3667 12.2363 36.0356 11.9287 36.8608 11.9287C37.8374 11.9287 38.5967 12.29 39.1387 13.0127C39.6807 13.7354 39.9517 14.7314 39.9517 16.001V16.1108ZM37.835 15.957C37.835 15.2197 37.7031 14.6509 37.4395 14.2505C37.1807 13.8501 36.8022 13.6499 36.3042 13.6499C35.6401 13.6499 35.1836 13.9038 34.9346 14.4116V17.6562C35.1934 18.1787 35.6548 18.4399 36.3188 18.4399C37.3296 18.4399 37.835 17.6123 37.835 15.957ZM43.8042 10.127V12.0752H45.1592V13.6279H43.8042V17.583C43.8042 17.876 43.8604 18.0859 43.9727 18.2129C44.085 18.3398 44.2998 18.4033 44.6172 18.4033C44.8516 18.4033 45.0591 18.3862 45.2397 18.3521V19.9561C44.8247 20.083 44.3975 20.1465 43.958 20.1465C42.4736 20.1465 41.7168 19.397 41.6875 17.8979V13.6279H40.5303V12.0752H41.6875V10.127H43.8042ZM46.4482 18.96C46.4482 18.623 46.5605 18.3496 46.7852 18.1396C47.0146 17.9297 47.3003 17.8247 47.6421 17.8247C47.9888 17.8247 48.2744 17.9297 48.499 18.1396C48.7285 18.3496 48.8433 18.623 48.8433 18.96C48.8433 19.292 48.731 19.563 48.5063 19.7729C48.2817 19.978 47.9937 20.0806 47.6421 20.0806C47.2954 20.0806 47.0098 19.978 46.7852 19.7729C46.5605 19.563 46.4482 19.292 46.4482 18.96ZM57.8374 16.1108C57.8374 17.3315 57.5591 18.3105 57.0024 19.0479C56.4507 19.7803 55.7036 20.1465 54.7612 20.1465C53.9604 20.1465 53.3135 19.8682 52.8203 19.3115V23.0469H50.7036V12.0752H52.6665L52.7397 12.8516C53.2524 12.2363 53.9214 11.9287 54.7466 11.9287C55.7231 11.9287 56.4824 12.29 57.0244 13.0127C57.5664 13.7354 57.8374 14.7314 57.8374 16.001V16.1108ZM55.7207 15.957C55.7207 15.2197 55.5889 14.6509 55.3252 14.2505C55.0664 13.8501 54.688 13.6499 54.1899 13.6499C53.5259 13.6499 53.0693 13.9038 52.8203 14.4116V17.6562C53.0791 18.1787 53.5405 18.4399 54.2046 18.4399C55.2153 18.4399 55.7207 17.6123 55.7207 15.957ZM62.0269 17.0044L63.4917 12.0752H65.7622L62.5762 21.2305L62.4004 21.6479C61.9268 22.6831 61.1455 23.2007 60.0566 23.2007C59.749 23.2007 59.4365 23.1543 59.1191 23.0615V21.4575L59.4414 21.4648C59.8418 21.4648 60.1396 21.4038 60.335 21.2817C60.5352 21.1597 60.6914 20.957 60.8037 20.6738L61.0527 20.022L58.2769 12.0752H60.5547L62.0269 17.0044Z" fill="white"/>
<path d="M7.705 47.28C7.705 46.67 7.795 46.125 7.975 45.645C8.155 45.165 8.39 44.76 8.68 44.43C8.98 44.09 9.32 43.83 9.7 43.65C10.08 43.47 10.475 43.38 10.885 43.38C11.315 43.38 11.675 43.455 11.965 43.605C12.255 43.745 12.53 43.935 12.79 44.175L12.715 43.02V40.485H14.92V51H13.12L12.955 50.235H12.91C12.63 50.505 12.31 50.73 11.95 50.91C11.59 51.09 11.22 51.18 10.84 51.18C10.37 51.18 9.94 51.09 9.55 50.91C9.17 50.73 8.84 50.475 8.56 50.145C8.29 49.805 8.08 49.395 7.93 48.915C7.78 48.435 7.705 47.89 7.705 47.28ZM9.97 47.25C9.97 47.99 10.095 48.53 10.345 48.87C10.595 49.21 10.95 49.38 11.41 49.38C11.66 49.38 11.89 49.33 12.1 49.23C12.31 49.12 12.515 48.94 12.715 48.69V45.675C12.515 45.495 12.31 45.37 12.1 45.3C11.9 45.22 11.69 45.18 11.47 45.18C11.06 45.18 10.705 45.35 10.405 45.69C10.115 46.03 9.97 46.55 9.97 47.25ZM16.8191 47.28C16.8191 46.67 16.9241 46.125 17.1341 45.645C17.3541 45.165 17.6441 44.76 18.0041 44.43C18.3641 44.09 18.7741 43.83 19.2341 43.65C19.7041 43.47 20.1891 43.38 20.6891 43.38C21.2591 43.38 21.7641 43.47 22.2041 43.65C22.6441 43.83 23.0091 44.08 23.2991 44.4C23.5891 44.72 23.8091 45.1 23.9591 45.54C24.1091 45.97 24.1841 46.44 24.1841 46.95C24.1841 47.15 24.1741 47.34 24.1541 47.52C24.1341 47.7 24.1141 47.835 24.0941 47.925H19.0841C19.1641 48.485 19.4041 48.89 19.8041 49.14C20.2141 49.38 20.6941 49.5 21.2441 49.5C21.5841 49.5 21.9041 49.46 22.2041 49.38C22.5141 49.29 22.8341 49.16 23.1641 48.99L23.8841 50.31C23.4641 50.58 22.9941 50.795 22.4741 50.955C21.9541 51.105 21.4441 51.18 20.9441 51.18C20.3641 51.18 19.8241 51.095 19.3241 50.925C18.8241 50.745 18.3891 50.49 18.0191 50.16C17.6491 49.82 17.3541 49.41 17.1341 48.93C16.9241 48.45 16.8191 47.9 16.8191 47.28ZM22.1891 46.47C22.1891 46.05 22.0741 45.71 21.8441 45.45C21.6141 45.19 21.2441 45.06 20.7341 45.06C20.3341 45.06 19.9791 45.175 19.6691 45.405C19.3591 45.635 19.1541 45.99 19.0541 46.47H22.1891ZM33.3433 42.33C32.8533 42.14 32.3333 42.045 31.7833 42.045C31.3033 42.045 30.9483 42.15 30.7183 42.36C30.4983 42.57 30.3883 42.9 30.3883 43.35V43.56H32.9533V45.285H30.3883V51H28.1833V45.285H26.2183V43.65L28.1833 43.56V43.365C28.1833 42.935 28.2483 42.535 28.3783 42.165C28.5083 41.795 28.7083 41.475 28.9783 41.205C29.2483 40.925 29.5933 40.705 30.0133 40.545C30.4333 40.385 30.9333 40.305 31.5133 40.305C31.9433 40.305 32.3433 40.345 32.7133 40.425C33.0933 40.505 33.4433 40.6 33.7633 40.71L33.3433 42.33Z" fill="#E69F00"/>
<path d="M102.821 53.685C101.841 52.815 101.066 51.81 100.496 50.67C99.9364 49.53 99.6564 48.25 99.6564 46.83C99.6564 45.41 99.9364 44.13 100.496 42.99C101.066 41.85 101.841 40.845 102.821 39.975L104.051 40.95C103.161 41.82 102.511 42.725 102.101 43.665C101.701 44.595 101.501 45.65 101.501 46.83C101.501 47.42 101.551 47.98 101.651 48.51C101.751 49.03 101.901 49.53 102.101 50.01C102.311 50.49 102.576 50.95 102.896 51.39C103.216 51.84 103.601 52.28 104.051 52.71L102.821 53.685ZM107.826 52.71C108.276 52.28 108.661 51.84 108.981 51.39C109.301 50.95 109.561 50.49 109.761 50.01C109.971 49.53 110.126 49.03 110.226 48.51C110.326 47.98 110.376 47.42 110.376 46.83C110.376 45.65 110.171 44.595 109.761 43.665C109.361 42.725 108.716 41.82 107.826 40.95L109.056 39.975C110.036 40.845 110.806 41.85 111.366 42.99C111.936 44.13 112.221 45.41 112.221 46.83C112.221 48.25 111.936 49.53 111.366 50.67C110.806 51.81 110.036 52.815 109.056 53.685L107.826 52.71ZM117.69 44.58C117.69 44.33 117.73 44.1 117.81 43.89C117.9 43.67 118.02 43.48 118.17 43.32C118.32 43.16 118.5 43.035 118.71 42.945C118.93 42.855 119.17 42.81 119.43 42.81C119.69 42.81 119.925 42.855 120.135 42.945C120.355 43.035 120.54 43.16 120.69 43.32C120.84 43.48 120.955 43.67 121.035 43.89C121.125 44.1 121.17 44.33 121.17 44.58C121.17 45.08 121.01 45.5 120.69 45.84C120.37 46.17 119.95 46.335 119.43 46.335C118.91 46.335 118.49 46.17 118.17 45.84C117.85 45.5 117.69 45.08 117.69 44.58ZM117.69 49.425C117.69 49.175 117.73 48.945 117.81 48.735C117.9 48.515 118.02 48.325 118.17 48.165C118.32 48.005 118.5 47.88 118.71 47.79C118.93 47.7 119.17 47.655 119.43 47.655C119.69 47.655 119.925 47.7 120.135 47.79C120.355 47.88 120.54 48.005 120.69 48.165C120.84 48.325 120.955 48.515 121.035 48.735C121.125 48.945 121.17 49.175 121.17 49.425C121.17 49.925 121.01 50.345 120.69 50.685C120.37 51.015 119.95 51.18 119.43 51.18C118.91 51.18 118.49 51.015 118.17 50.685C117.85 50.345 117.69 49.925 117.69 49.425ZM45.9916 59.38H50.4166V60.55H47.6716V71.11H50.4166V72.28H45.9916V59.38ZM56.2757 71.11V60.55H53.5457V59.38H57.9707V72.28H53.5457V71.11H56.2757ZM72.914 72.4H71.069L76.004 59.35H77.849L72.914 72.4ZM7.705 103.28C7.705 102.67 7.795 102.125 7.975 101.645C8.155 101.165 8.39 100.76 8.68 100.43C8.98 100.09 9.32 99.83 9.7 99.65C10.08 99.47 10.475 99.38 10.885 99.38C11.315 99.38 11.675 99.455 11.965 99.605C12.255 99.745 12.53 99.935 12.79 100.175L12.715 99.02V96.485H14.92V107H13.12L12.955 106.235H12.91C12.63 106.505 12.31 106.73 11.95 106.91C11.59 107.09 11.22 107.18 10.84 107.18C10.37 107.18 9.94 107.09 9.55 106.91C9.17 106.73 8.84 106.475 8.56 106.145C8.29 105.805 8.08 105.395 7.93 104.915C7.78 104.435 7.705 103.89 7.705 103.28ZM9.97 103.25C9.97 103.99 10.095 104.53 10.345 104.87C10.595 105.21 10.95 105.38 11.41 105.38C11.66 105.38 11.89 105.33 12.1 105.23C12.31 105.12 12.515 104.94 12.715 104.69V101.675C12.515 101.495 12.31 101.37 12.1 101.3C11.9 101.22 11.69 101.18 11.47 101.18C11.06 101.18 10.705 101.35 10.405 101.69C10.115 102.03 9.97 102.55 9.97 103.25ZM17.1791 99.56H22.3691V107H20.1641V101.285H17.1791V99.56ZM21.1691 98.465C20.7391 98.465 20.3841 98.345 20.1041 98.105C19.8341 97.865 19.6991 97.54 19.6991 97.13C19.6991 96.72 19.8341 96.39 20.1041 96.14C20.3841 95.88 20.7391 95.75 21.1691 95.75C21.5991 95.75 21.9491 95.88 22.2191 96.14C22.4991 96.39 22.6391 96.72 22.6391 97.13C22.6391 97.54 22.4991 97.865 22.2191 98.105C21.9491 98.345 21.5991 98.465 21.1691 98.465ZM25.4533 99.56H27.6733L28.8433 103.07C28.9633 103.45 29.0783 103.83 29.1883 104.21C29.2983 104.59 29.4083 104.975 29.5183 105.365H29.5783C29.6883 104.975 29.7933 104.59 29.8933 104.21C30.0033 103.83 30.1183 103.45 30.2383 103.07L31.4083 99.56H33.5233L30.7933 107H28.2583L25.4533 99.56ZM35.1674 99.56H40.3574V107H38.1524V101.285H35.1674V99.56ZM39.1574 98.465C38.7274 98.465 38.3724 98.345 38.0924 98.105C37.8224 97.865 37.6874 97.54 37.6874 97.13C37.6874 96.72 37.8224 96.39 38.0924 96.14C38.3724 95.88 38.7274 95.75 39.1574 95.75C39.5874 95.75 39.9374 95.88 40.2074 96.14C40.4874 96.39 40.6274 96.72 40.6274 97.13C40.6274 97.54 40.4874 97.865 40.2074 98.105C39.9374 98.345 39.5874 98.465 39.1574 98.465ZM43.6816 103.28C43.6816 102.67 43.7716 102.125 43.9516 101.645C44.1316 101.165 44.3666 100.76 44.6566 100.43C44.9566 100.09 45.2966 99.83 45.6766 99.65C46.0566 99.47 46.4516 99.38 46.8616 99.38C47.2916 99.38 47.6516 99.455 47.9416 99.605C48.2316 99.745 48.5066 99.935 48.7666 100.175L48.6916 99.02V96.485H50.8966V107H49.0966L48.9316 106.235H48.8866C48.6066 106.505 48.2866 106.73 47.9266 106.91C47.5666 107.09 47.1966 107.18 46.8166 107.18C46.3466 107.18 45.9166 107.09 45.5266 106.91C45.1466 106.73 44.8166 106.475 44.5366 106.145C44.2666 105.805 44.0566 105.395 43.9066 104.915C43.7566 104.435 43.6816 103.89 43.6816 103.28ZM45.9466 103.25C45.9466 103.99 46.0716 104.53 46.3216 104.87C46.5716 105.21 46.9266 105.38 47.3866 105.38C47.6366 105.38 47.8666 105.33 48.0766 105.23C48.2866 105.12 48.4916 104.94 48.6916 104.69V101.675C48.4916 101.495 48.2866 101.37 48.0766 101.3C47.8766 101.22 47.6666 101.18 47.4466 101.18C47.0366 101.18 46.6816 101.35 46.3816 101.69C46.0916 102.03 45.9466 102.55 45.9466 103.25ZM52.7957 103.28C52.7957 102.67 52.9007 102.125 53.1107 101.645C53.3307 101.165 53.6207 100.76 53.9807 100.43C54.3407 100.09 54.7507 99.83 55.2107 99.65C55.6807 99.47 56.1657 99.38 56.6657 99.38C57.2357 99.38 57.7407 99.47 58.1807 99.65C58.6207 99.83 58.9857 100.08 59.2757 100.4C59.5657 100.72 59.7857 101.1 59.9357 101.54C60.0857 101.97 60.1607 102.44 60.1607 102.95C60.1607 103.15 60.1507 103.34 60.1307 103.52C60.1107 103.7 60.0907 103.835 60.0707 103.925H55.0607C55.1407 104.485 55.3807 104.89 55.7807 105.14C56.1907 105.38 56.6707 105.5 57.2207 105.5C57.5607 105.5 57.8807 105.46 58.1807 105.38C58.4907 105.29 58.8107 105.16 59.1407 104.99L59.8607 106.31C59.4407 106.58 58.9707 106.795 58.4507 106.955C57.9307 107.105 57.4207 107.18 56.9207 107.18C56.3407 107.18 55.8007 107.095 55.3007 106.925C54.8007 106.745 54.3657 106.49 53.9957 106.16C53.6257 105.82 53.3307 105.41 53.1107 104.93C52.9007 104.45 52.7957 103.9 52.7957 103.28ZM58.1657 102.47C58.1657 102.05 58.0507 101.71 57.8207 101.45C57.5907 101.19 57.2207 101.06 56.7107 101.06C56.3107 101.06 55.9557 101.175 55.6457 101.405C55.3357 101.635 55.1307 101.99 55.0307 102.47H58.1657ZM66.8448 109.685C65.8648 108.815 65.0898 107.81 64.5198 106.67C63.9598 105.53 63.6798 104.25 63.6798 102.83C63.6798 101.41 63.9598 100.13 64.5198 98.99C65.0898 97.85 65.8648 96.845 66.8448 95.975L68.0748 96.95C67.1848 97.82 66.5348 98.725 66.1248 99.665C65.7248 100.595 65.5248 101.65 65.5248 102.83C65.5248 103.42 65.5748 103.98 65.6748 104.51C65.7748 105.03 65.9248 105.53 66.1248 106.01C66.3348 106.49 66.5998 106.95 66.9198 107.39C67.2398 107.84 67.6248 108.28 68.0748 108.71L66.8448 109.685ZM71.849 108.71C72.299 108.28 72.684 107.84 73.004 107.39C73.324 106.95 73.584 106.49 73.784 106.01C73.994 105.53 74.149 105.03 74.249 104.51C74.349 103.98 74.399 103.42 74.399 102.83C74.399 101.65 74.194 100.595 73.784 99.665C73.384 98.725 72.739 97.82 71.849 96.95L73.079 95.975C74.059 96.845 74.829 97.85 75.389 98.99C75.959 100.13 76.244 101.41 76.244 102.83C76.244 104.25 75.959 105.53 75.389 106.67C74.829 107.81 74.059 108.815 73.079 109.685L71.849 108.71Z" fill="white"/>
<path d="M43.6816 47.28C43.6816 46.67 43.7716 46.125 43.9516 45.645C44.1316 45.165 44.3666 44.76 44.6566 44.43C44.9566 44.09 45.2966 43.83 45.6766 43.65C46.0566 43.47 46.4516 43.38 46.8616 43.38C47.2916 43.38 47.6516 43.455 47.9416 43.605C48.2316 43.745 48.5066 43.935 48.7666 44.175L48.6916 43.02V40.485H50.8966V51H49.0966L48.9316 50.235H48.8866C48.6066 50.505 48.2866 50.73 47.9266 50.91C47.5666 51.09 47.1966 51.18 46.8166 51.18C46.3466 51.18 45.9166 51.09 45.5266 50.91C45.1466 50.73 44.8166 50.475 44.5366 50.145C44.2666 49.805 44.0566 49.395 43.9066 48.915C43.7566 48.435 43.6816 47.89 43.6816 47.28ZM45.9466 47.25C45.9466 47.99 46.0716 48.53 46.3216 48.87C46.5716 49.21 46.9266 49.38 47.3866 49.38C47.6366 49.38 47.8666 49.33 48.0766 49.23C48.2866 49.12 48.4916 48.94 48.6916 48.69V45.675C48.4916 45.495 48.2866 45.37 48.0766 45.3C47.8766 45.22 47.6666 45.18 47.4466 45.18C47.0366 45.18 46.6816 45.35 46.3816 45.69C46.0916 46.03 45.9466 46.55 45.9466 47.25ZM53.1557 43.56H58.3457V51H56.1407V45.285H53.1557V43.56ZM57.1457 42.465C56.7157 42.465 56.3607 42.345 56.0807 42.105C55.8107 41.865 55.6757 41.54 55.6757 41.13C55.6757 40.72 55.8107 40.39 56.0807 40.14C56.3607 39.88 56.7157 39.75 57.1457 39.75C57.5757 39.75 57.9257 39.88 58.1957 40.14C58.4757 40.39 58.6157 40.72 58.6157 41.13C58.6157 41.54 58.4757 41.865 58.1957 42.105C57.9257 42.345 57.5757 42.465 57.1457 42.465ZM61.4298 43.56H63.6498L64.8198 47.07C64.9398 47.45 65.0548 47.83 65.1648 48.21C65.2748 48.59 65.3848 48.975 65.4948 49.365H65.5548C65.6648 48.975 65.7698 48.59 65.8698 48.21C65.9798 47.83 66.0948 47.45 66.2148 47.07L67.3848 43.56H69.4998L66.7698 51H64.2348L61.4298 43.56ZM71.144 43.56H76.334V51H74.129V45.285H71.144V43.56ZM75.134 42.465C74.704 42.465 74.349 42.345 74.069 42.105C73.799 41.865 73.664 41.54 73.664 41.13C73.664 40.72 73.799 40.39 74.069 40.14C74.349 39.88 74.704 39.75 75.134 39.75C75.564 39.75 75.914 39.88 76.184 40.14C76.464 40.39 76.604 40.72 76.604 41.13C76.604 41.54 76.464 41.865 76.184 42.105C75.914 42.345 75.564 42.465 75.134 42.465ZM79.6581 47.28C79.6581 46.67 79.7481 46.125 79.9281 45.645C80.1081 45.165 80.3431 44.76 80.6331 44.43C80.9331 44.09 81.2731 43.83 81.6531 43.65C82.0331 43.47 82.4281 43.38 82.8381 43.38C83.2681 43.38 83.6281 43.455 83.9181 43.605C84.2081 43.745 84.4831 43.935 84.7431 44.175L84.6681 43.02V40.485H86.8731V51H85.0731L84.9081 50.235H84.8631C84.5831 50.505 84.2631 50.73 83.9031 50.91C83.5431 51.09 83.1731 51.18 82.7931 51.18C82.3231 51.18 81.8931 51.09 81.5031 50.91C81.1231 50.73 80.7931 50.475 80.5131 50.145C80.2431 49.805 80.0331 49.395 79.8831 48.915C79.7331 48.435 79.6581 47.89 79.6581 47.28ZM81.9231 47.25C81.9231 47.99 82.0481 48.53 82.2981 48.87C82.5481 49.21 82.9031 49.38 83.3631 49.38C83.6131 49.38 83.8431 49.33 84.0531 49.23C84.2631 49.12 84.4681 48.94 84.6681 48.69V45.675C84.4681 45.495 84.2631 45.37 84.0531 45.3C83.8531 45.22 83.6431 45.18 83.4231 45.18C83.0131 45.18 82.6581 45.35 82.3581 45.69C82.0681 46.03 81.9231 46.55 81.9231 47.25ZM88.7723 47.28C88.7723 46.67 88.8773 46.125 89.0873 45.645C89.3073 45.165 89.5973 44.76 89.9573 44.43C90.3173 44.09 90.7273 43.83 91.1873 43.65C91.6573 43.47 92.1423 43.38 92.6423 43.38C93.2123 43.38 93.7173 43.47 94.1573 43.65C94.5973 43.83 94.9623 44.08 95.2523 44.4C95.5423 44.72 95.7623 45.1 95.9123 45.54C96.0623 45.97 96.1373 46.44 96.1373 46.95C96.1373 47.15 96.1273 47.34 96.1073 47.52C96.0873 47.7 96.0673 47.835 96.0473 47.925H91.0373C91.1173 48.485 91.3573 48.89 91.7573 49.14C92.1673 49.38 92.6473 49.5 93.1973 49.5C93.5373 49.5 93.8573 49.46 94.1573 49.38C94.4673 49.29 94.7873 49.16 95.1173 48.99L95.8373 50.31C95.4173 50.58 94.9473 50.795 94.4273 50.955C93.9073 51.105 93.3973 51.18 92.8973 51.18C92.3173 51.18 91.7773 51.095 91.2773 50.925C90.7773 50.745 90.3423 50.49 89.9723 50.16C89.6023 49.82 89.3073 49.41 89.0873 48.93C88.8773 48.45 88.7723 47.9 88.7723 47.28ZM94.1423 46.47C94.1423 46.05 94.0273 45.71 93.7973 45.45C93.5673 45.19 93.1973 45.06 92.6873 45.06C92.2873 45.06 91.9323 45.175 91.6223 45.405C91.3123 45.635 91.1073 45.99 91.0073 46.47H94.1423Z" fill="#56B4E9"/>
<path d="M91.2473 61.9L91.1723 59.725H93.7223L93.6473 61.9L93.1223 65.455H91.7723L91.2473 61.9ZM97.8564 67.93C97.8564 67.51 97.9464 67.145 98.1264 66.835C98.3064 66.515 98.5914 66.245 98.9814 66.025C99.3814 65.805 99.8914 65.63 100.511 65.5C101.131 65.36 101.881 65.265 102.761 65.215C102.721 64.875 102.571 64.61 102.311 64.42C102.061 64.23 101.681 64.135 101.171 64.135C100.811 64.135 100.446 64.2 100.076 64.33C99.7164 64.45 99.3264 64.615 98.9064 64.825L98.1264 63.385C98.6364 63.095 99.1814 62.855 99.7614 62.665C100.351 62.475 100.966 62.38 101.606 62.38C102.646 62.38 103.466 62.655 104.066 63.205C104.666 63.755 104.966 64.6 104.966 65.74V70H103.166L103.001 69.16H102.941C102.561 69.45 102.146 69.695 101.696 69.895C101.246 70.085 100.781 70.18 100.301 70.18C99.9214 70.18 99.5814 70.12 99.2814 70C98.9814 69.89 98.7264 69.735 98.5164 69.535C98.3064 69.325 98.1414 69.085 98.0214 68.815C97.9114 68.545 97.8564 68.25 97.8564 67.93ZM99.9714 67.765C99.9714 68.005 100.061 68.185 100.241 68.305C100.431 68.415 100.686 68.47 101.006 68.47C101.336 68.47 101.646 68.405 101.936 68.275C102.226 68.135 102.501 67.965 102.761 67.765V66.535C102.211 66.565 101.756 66.615 101.396 66.685C101.036 66.755 100.751 66.845 100.541 66.955C100.331 67.055 100.181 67.175 100.091 67.315C100.011 67.455 99.9714 67.605 99.9714 67.765ZM107.016 59.485H109.221V62.065L109.161 63.235C109.451 62.965 109.776 62.755 110.136 62.605C110.506 62.455 110.871 62.38 111.231 62.38C111.691 62.38 112.106 62.47 112.476 62.65C112.856 62.83 113.171 63.085 113.421 63.415C113.681 63.735 113.881 64.13 114.021 64.6C114.161 65.06 114.231 65.575 114.231 66.145C114.231 66.785 114.141 67.355 113.961 67.855C113.781 68.355 113.541 68.78 113.241 69.13C112.941 69.47 112.596 69.73 112.206 69.91C111.826 70.09 111.426 70.18 111.006 70.18C110.656 70.18 110.306 70.095 109.956 69.925C109.616 69.755 109.291 69.51 108.981 69.19H108.921L108.741 70H107.016V59.485ZM109.221 67.885C109.431 68.065 109.646 68.195 109.866 68.275C110.096 68.345 110.311 68.38 110.511 68.38C110.921 68.38 111.266 68.21 111.546 67.87C111.826 67.52 111.966 66.96 111.966 66.19C111.966 64.85 111.511 64.18 110.601 64.18C110.131 64.18 109.671 64.41 109.221 64.87V67.885ZM115.935 66.28C115.935 65.66 116.05 65.11 116.28 64.63C116.52 64.14 116.835 63.73 117.225 63.4C117.625 63.07 118.085 62.82 118.605 62.65C119.125 62.47 119.67 62.38 120.24 62.38C120.83 62.38 121.36 62.475 121.83 62.665C122.31 62.855 122.71 63.095 123.03 63.385L122.01 64.75C121.46 64.36 120.91 64.165 120.36 64.165C119.72 64.165 119.2 64.355 118.8 64.735C118.4 65.115 118.2 65.63 118.2 66.28C118.2 66.93 118.39 67.445 118.77 67.825C119.16 68.205 119.665 68.395 120.285 68.395C120.675 68.395 121.035 68.325 121.365 68.185C121.695 68.045 121.99 67.88 122.25 67.69L123.15 69.085C122.7 69.465 122.2 69.745 121.65 69.925C121.11 70.095 120.585 70.18 120.075 70.18C119.485 70.18 118.94 70.095 118.44 69.925C117.94 69.745 117.5 69.49 117.12 69.16C116.75 68.83 116.46 68.425 116.25 67.945C116.04 67.455 115.935 66.9 115.935 66.28ZM127.224 61.9L127.149 59.725H129.699L129.624 61.9L129.099 65.455H127.749L127.224 61.9Z" fill="#009E73"/>
<path d="M87.2929 102.293C86.9024 102.683 86.9024 103.317 87.2929 103.707L93.6569 110.071C94.0474 110.462 94.6805 110.462 95.0711 110.071C95.4616 109.681 95.4616 109.047 95.0711 108.657L89.4142 103L95.0711 97.3431C95.4616 96.9526 95.4616 96.3195 95.0711 95.9289C94.6805 95.5384 94.0474 95.5384 93.6569 95.9289L87.2929 102.293ZM113 102H88V104H113V102Z" fill="#F0E442"/>
<path d="M130.324 104.448C130.241 105.595 129.816 106.499 129.049 107.158C128.288 107.817 127.282 108.146 126.032 108.146C124.665 108.146 123.588 107.688 122.802 106.77C122.021 105.847 121.63 104.582 121.63 102.976V102.324C121.63 101.298 121.811 100.395 122.172 99.6138C122.533 98.8325 123.048 98.2344 123.717 97.8193C124.391 97.3994 125.172 97.1895 126.061 97.1895C127.292 97.1895 128.283 97.519 129.035 98.1782C129.787 98.8374 130.221 99.7627 130.338 100.954H128.141C128.087 100.266 127.895 99.7676 127.562 99.46C127.235 99.1475 126.735 98.9912 126.061 98.9912C125.329 98.9912 124.779 99.2549 124.413 99.7822C124.052 100.305 123.866 101.118 123.856 102.221V103.027C123.856 104.179 124.03 105.021 124.376 105.554C124.728 106.086 125.28 106.352 126.032 106.352C126.71 106.352 127.216 106.198 127.548 105.891C127.885 105.578 128.078 105.097 128.126 104.448H130.324ZM136.22 108C136.122 107.81 136.051 107.573 136.007 107.29C135.495 107.861 134.828 108.146 134.008 108.146C133.231 108.146 132.587 107.922 132.074 107.473C131.566 107.023 131.312 106.457 131.312 105.773C131.312 104.934 131.623 104.289 132.243 103.84C132.868 103.391 133.769 103.164 134.945 103.159H135.919V102.705C135.919 102.338 135.824 102.045 135.634 101.826C135.448 101.606 135.153 101.496 134.748 101.496C134.391 101.496 134.11 101.582 133.905 101.752C133.705 101.923 133.605 102.158 133.605 102.456H131.488C131.488 101.997 131.63 101.572 131.913 101.181C132.196 100.791 132.597 100.485 133.114 100.266C133.632 100.041 134.213 99.9287 134.857 99.9287C135.834 99.9287 136.608 100.175 137.179 100.668C137.755 101.157 138.043 101.845 138.043 102.734V106.169C138.048 106.921 138.153 107.49 138.358 107.875V108H136.22ZM134.469 106.528C134.782 106.528 135.07 106.459 135.333 106.323C135.597 106.181 135.792 105.993 135.919 105.759V104.396H135.128C134.069 104.396 133.505 104.763 133.437 105.495L133.429 105.62C133.429 105.883 133.522 106.101 133.708 106.271C133.893 106.442 134.147 106.528 134.469 106.528ZM141.903 108H139.779V96.75H141.903V108ZM145.888 108H143.764V96.75H145.888V108ZM149.872 108H147.748V100.075H149.872V108ZM147.624 98.0244C147.624 97.707 147.729 97.4458 147.938 97.2407C148.153 97.0356 148.444 96.9331 148.81 96.9331C149.171 96.9331 149.459 97.0356 149.674 97.2407C149.889 97.4458 149.997 97.707 149.997 98.0244C149.997 98.3467 149.887 98.6104 149.667 98.8154C149.452 99.0205 149.167 99.123 148.81 99.123C148.454 99.123 148.166 99.0205 147.946 98.8154C147.731 98.6104 147.624 98.3467 147.624 98.0244ZM153.571 100.075L153.637 100.991C154.203 100.283 154.962 99.9287 155.915 99.9287C156.754 99.9287 157.379 100.175 157.79 100.668C158.2 101.162 158.41 101.899 158.419 102.88V108H156.303V102.932C156.303 102.482 156.205 102.158 156.01 101.958C155.814 101.752 155.49 101.65 155.036 101.65C154.44 101.65 153.993 101.904 153.695 102.412V108H151.579V100.075H153.571ZM159.723 103.979C159.723 102.763 160.011 101.784 160.587 101.042C161.168 100.3 161.95 99.9287 162.931 99.9287C163.8 99.9287 164.477 100.227 164.96 100.822L165.048 100.075H166.967V107.736C166.967 108.43 166.808 109.033 166.491 109.545C166.178 110.058 165.736 110.449 165.165 110.717C164.594 110.986 163.925 111.12 163.158 111.12C162.577 111.12 162.011 111.003 161.459 110.769C160.907 110.539 160.49 110.241 160.207 109.875L161.144 108.586C161.671 109.177 162.311 109.472 163.063 109.472C163.625 109.472 164.062 109.321 164.374 109.018C164.687 108.72 164.843 108.295 164.843 107.744V107.319C164.354 107.871 163.712 108.146 162.917 108.146C161.964 108.146 161.193 107.775 160.602 107.033C160.016 106.286 159.723 105.297 159.723 104.067V103.979ZM161.84 104.133C161.84 104.851 161.984 105.415 162.272 105.825C162.56 106.23 162.956 106.433 163.458 106.433C164.103 106.433 164.564 106.191 164.843 105.708V102.375C164.56 101.892 164.103 101.65 163.473 101.65C162.965 101.65 162.565 101.857 162.272 102.272C161.984 102.688 161.84 103.308 161.84 104.133ZM174.87 98.127V100.075H176.225V101.628H174.87V105.583C174.87 105.876 174.926 106.086 175.038 106.213C175.15 106.34 175.365 106.403 175.683 106.403C175.917 106.403 176.125 106.386 176.305 106.352V107.956C175.89 108.083 175.463 108.146 175.023 108.146C173.539 108.146 172.782 107.397 172.753 105.898V101.628H171.596V100.075H172.753V98.127H174.87ZM179.469 100.939C180.031 100.266 180.736 99.9287 181.586 99.9287C183.305 99.9287 184.176 100.927 184.201 102.924V108H182.084V102.983C182.084 102.529 181.986 102.194 181.791 101.979C181.596 101.76 181.271 101.65 180.817 101.65C180.197 101.65 179.748 101.889 179.469 102.368V108H177.353V96.75H179.469V100.939ZM189.445 108.146C188.283 108.146 187.335 107.79 186.603 107.077C185.875 106.364 185.512 105.415 185.512 104.228V104.023C185.512 103.227 185.666 102.517 185.973 101.892C186.281 101.262 186.715 100.778 187.277 100.441C187.843 100.1 188.488 99.9287 189.21 99.9287C190.294 99.9287 191.146 100.271 191.767 100.954C192.392 101.638 192.704 102.607 192.704 103.862V104.726H187.658C187.726 105.244 187.931 105.659 188.273 105.971C188.62 106.284 189.057 106.44 189.584 106.44C190.399 106.44 191.037 106.145 191.496 105.554L192.536 106.718C192.218 107.167 191.789 107.519 191.247 107.773C190.705 108.022 190.104 108.146 189.445 108.146ZM189.203 101.643C188.783 101.643 188.441 101.784 188.178 102.067C187.919 102.351 187.753 102.756 187.68 103.283H190.624V103.115C190.614 102.646 190.487 102.285 190.243 102.031C189.999 101.772 189.652 101.643 189.203 101.643ZM198.227 108V101.628H197.047V100.075H198.227V99.4014C198.227 98.5127 198.48 97.8242 198.988 97.3359C199.501 96.8428 200.216 96.5962 201.134 96.5962C201.427 96.5962 201.786 96.645 202.211 96.7427L202.189 98.3833C202.013 98.3394 201.798 98.3174 201.544 98.3174C200.749 98.3174 200.351 98.6909 200.351 99.438V100.075H201.925V101.628H200.351V108H198.227ZM207.77 107.194C207.248 107.829 206.525 108.146 205.602 108.146C204.752 108.146 204.103 107.902 203.654 107.414C203.209 106.926 202.982 106.21 202.973 105.268V100.075H205.089V105.195C205.089 106.02 205.465 106.433 206.217 106.433C206.935 106.433 207.428 106.184 207.697 105.686V100.075H209.821V108H207.829L207.77 107.194ZM213.366 100.075L213.432 100.991C213.998 100.283 214.757 99.9287 215.709 99.9287C216.549 99.9287 217.174 100.175 217.584 100.668C217.995 101.162 218.205 101.899 218.214 102.88V108H216.098V102.932C216.098 102.482 216 102.158 215.805 101.958C215.609 101.752 215.285 101.65 214.831 101.65C214.235 101.65 213.788 101.904 213.49 102.412V108H211.374V100.075H213.366ZM223.122 106.44C223.512 106.44 223.83 106.333 224.074 106.118C224.318 105.903 224.445 105.617 224.455 105.261H226.439C226.435 105.798 226.288 106.291 226 106.74C225.712 107.185 225.316 107.531 224.813 107.78C224.315 108.024 223.764 108.146 223.158 108.146C222.025 108.146 221.132 107.788 220.478 107.07C219.823 106.347 219.496 105.351 219.496 104.082V103.942C219.496 102.722 219.821 101.748 220.47 101.02C221.12 100.292 222.011 99.9287 223.144 99.9287C224.135 99.9287 224.928 100.212 225.524 100.778C226.125 101.34 226.43 102.089 226.439 103.027H224.455C224.445 102.617 224.318 102.285 224.074 102.031C223.83 101.772 223.507 101.643 223.107 101.643C222.614 101.643 222.24 101.823 221.986 102.185C221.737 102.541 221.613 103.122 221.613 103.928V104.147C221.613 104.963 221.737 105.549 221.986 105.905C222.235 106.262 222.614 106.44 223.122 106.44ZM230.182 98.127V100.075H231.537V101.628H230.182V105.583C230.182 105.876 230.238 106.086 230.351 106.213C230.463 106.34 230.678 106.403 230.995 106.403C231.229 106.403 231.437 106.386 231.618 106.352V107.956C231.203 108.083 230.775 108.146 230.336 108.146C228.852 108.146 228.095 107.397 228.065 105.898V101.628H226.908V100.075H228.065V98.127H230.182ZM234.95 108H232.826V100.075H234.95V108ZM232.702 98.0244C232.702 97.707 232.807 97.4458 233.017 97.2407C233.231 97.0356 233.522 96.9331 233.888 96.9331C234.25 96.9331 234.538 97.0356 234.752 97.2407C234.967 97.4458 235.075 97.707 235.075 98.0244C235.075 98.3467 234.965 98.6104 234.745 98.8154C234.53 99.0205 234.245 99.123 233.888 99.123C233.532 99.123 233.244 99.0205 233.024 98.8154C232.809 98.6104 232.702 98.3467 232.702 98.0244ZM236.371 103.964C236.371 103.178 236.522 102.478 236.825 101.862C237.128 101.247 237.562 100.771 238.129 100.434C238.7 100.097 239.362 99.9287 240.114 99.9287C241.183 99.9287 242.055 100.256 242.729 100.91C243.407 101.564 243.786 102.453 243.864 103.576L243.878 104.118C243.878 105.334 243.539 106.311 242.86 107.048C242.182 107.78 241.271 108.146 240.128 108.146C238.986 108.146 238.073 107.78 237.389 107.048C236.71 106.315 236.371 105.319 236.371 104.06V103.964ZM238.488 104.118C238.488 104.87 238.629 105.446 238.913 105.847C239.196 106.242 239.601 106.44 240.128 106.44C240.641 106.44 241.042 106.245 241.33 105.854C241.618 105.458 241.762 104.829 241.762 103.964C241.762 103.227 241.618 102.656 241.33 102.25C241.042 101.845 240.636 101.643 240.114 101.643C239.596 101.643 239.196 101.845 238.913 102.25C238.629 102.651 238.488 103.273 238.488 104.118ZM247.13 100.075L247.196 100.991C247.763 100.283 248.522 99.9287 249.474 99.9287C250.314 99.9287 250.939 100.175 251.349 100.668C251.759 101.162 251.969 101.899 251.979 102.88V108H249.862V102.932C249.862 102.482 249.765 102.158 249.569 101.958C249.374 101.752 249.049 101.65 248.595 101.65C248 101.65 247.553 101.904 247.255 102.412V108H245.138V100.075H247.13Z" fill="#F0E442"/>
</svg>
