<svg width="228" height="230" viewBox="0 0 228 230" fill="none" xmlns="http://www.w3.org/2000/svg">
<rect width="228" height="230" fill="black"/>
<line y1="154.5" x2="228" y2="154.5" stroke="white"/>
<path d="M11.5004 175.68C10.9204 175.68 10.3854 175.565 9.8954 175.335C9.4154 175.095 9.0004 174.755 8.6504 174.315C8.3104 173.875 8.0454 173.34 7.8554 172.71C7.6654 172.08 7.5704 171.365 7.5704 170.565C7.5704 169.765 7.6654 169.055 7.8554 168.435C8.0454 167.805 8.3104 167.28 8.6504 166.86C9.0004 166.43 9.4154 166.105 9.8954 165.885C10.3854 165.655 10.9204 165.54 11.5004 165.54C12.0804 165.54 12.6104 165.655 13.0904 165.885C13.5804 166.105 13.9954 166.43 14.3354 166.86C14.6854 167.29 14.9554 167.82 15.1454 168.45C15.3354 169.07 15.4304 169.775 15.4304 170.565C15.4304 171.365 15.3354 172.08 15.1454 172.71C14.9554 173.34 14.6854 173.875 14.3354 174.315C13.9954 174.755 13.5804 175.095 13.0904 175.335C12.6104 175.565 12.0804 175.68 11.5004 175.68ZM11.5004 173.775C12.0104 173.775 12.4154 173.49 12.7154 172.92C13.0154 172.34 13.1654 171.555 13.1654 170.565C13.1654 169.585 13.0154 168.82 12.7154 168.27C12.4154 167.72 12.0104 167.445 11.5004 167.445C10.9904 167.445 10.5854 167.72 10.2854 168.27C9.9854 168.82 9.8354 169.585 9.8354 170.565C9.8354 171.555 9.9854 172.34 10.2854 172.92C10.5854 173.49 10.9904 173.775 11.5004 173.775ZM23.8695 175.5H22.0695L21.9045 174.435H21.8445C21.5145 174.815 21.1495 175.12 20.7495 175.35C20.3495 175.57 19.8795 175.68 19.3395 175.68C18.4895 175.68 17.8745 175.41 17.4945 174.87C17.1145 174.33 16.9245 173.59 16.9245 172.65V168.06H19.1295V172.365C19.1295 172.865 19.2045 173.23 19.3545 173.46C19.5045 173.69 19.7895 173.805 20.2095 173.805C20.4895 173.805 20.7345 173.745 20.9445 173.625C21.1645 173.505 21.4045 173.28 21.6645 172.95V168.06H23.8695V175.5ZM27.5987 169.785H25.7237V168.15L27.7037 168.06L27.9887 166.08H29.8037V168.06H32.9537V169.785H29.8037V172.395C29.8037 172.965 29.9287 173.37 30.1787 173.61C30.4287 173.84 30.8237 173.955 31.3637 173.955C31.6537 173.955 31.9187 173.93 32.1587 173.88C32.3987 173.83 32.6287 173.765 32.8487 173.685L33.2387 175.275C32.9087 175.375 32.5387 175.465 32.1287 175.545C31.7287 175.635 31.2887 175.68 30.8087 175.68C30.2187 175.68 29.7187 175.6 29.3087 175.44C28.8987 175.28 28.5637 175.06 28.3037 174.78C28.0537 174.49 27.8737 174.145 27.7637 173.745C27.6537 173.345 27.5987 172.9 27.5987 172.41V169.785ZM37.2678 176.085V178.26H35.0628V168.06H36.8628L37.0278 168.81H37.0728C37.3728 168.54 37.7178 168.32 38.1078 168.15C38.4978 167.97 38.8928 167.88 39.2928 167.88C39.7528 167.88 40.1678 167.97 40.5378 168.15C40.9078 168.33 41.2228 168.585 41.4828 168.915C41.7428 169.245 41.9378 169.645 42.0678 170.115C42.2078 170.575 42.2778 171.09 42.2778 171.66C42.2778 172.3 42.1878 172.87 42.0078 173.37C41.8278 173.86 41.5878 174.28 41.2878 174.63C40.9878 174.97 40.6428 175.23 40.2528 175.41C39.8728 175.59 39.4728 175.68 39.0528 175.68C38.3728 175.68 37.7528 175.41 37.1928 174.87L37.2678 176.085ZM37.2678 173.385C37.4778 173.565 37.6928 173.695 37.9128 173.775C38.1428 173.845 38.3528 173.88 38.5428 173.88C38.9628 173.88 39.3128 173.71 39.5928 173.37C39.8728 173.02 40.0128 172.46 40.0128 171.69C40.0128 170.35 39.5578 169.68 38.6478 169.68C38.1778 169.68 37.7178 169.91 37.2678 170.37V173.385ZM50.852 175.5H49.052L48.887 174.435H48.827C48.497 174.815 48.132 175.12 47.732 175.35C47.332 175.57 46.862 175.68 46.322 175.68C45.472 175.68 44.857 175.41 44.477 174.87C44.097 174.33 43.907 173.59 43.907 172.65V168.06H46.112V172.365C46.112 172.865 46.187 173.23 46.337 173.46C46.487 173.69 46.772 173.805 47.192 173.805C47.472 173.805 47.717 173.745 47.927 173.625C48.147 173.505 48.387 173.28 48.647 172.95V168.06H50.852V175.5ZM54.5811 169.785H52.7061V168.15L54.6861 168.06L54.9711 166.08H56.7861V168.06H59.9361V169.785H56.7861V172.395C56.7861 172.965 56.9111 173.37 57.1611 173.61C57.4111 173.84 57.8061 173.955 58.3461 173.955C58.6361 173.955 58.9011 173.93 59.1411 173.88C59.3811 173.83 59.6111 173.765 59.8311 173.685L60.2211 175.275C59.8911 175.375 59.5211 175.465 59.1111 175.545C58.7111 175.635 58.2711 175.68 57.7911 175.68C57.2011 175.68 56.7011 175.6 56.2911 175.44C55.8811 175.28 55.5461 175.06 55.2861 174.78C55.0361 174.49 54.8561 174.145 54.7461 173.745C54.6361 173.345 54.5811 172.9 54.5811 172.41V169.785Z" fill="white"/>
<path d="M7.99 190.22H10.24L12.31 195.095L13.15 197.24H13.21C13.16 196.72 13.095 196.14 13.015 195.5C12.935 194.86 12.895 194.255 12.895 193.685V190.22H15.01V200H12.76L10.69 195.125L9.85 192.995H9.79C9.84 193.535 9.905 194.115 9.985 194.735C10.065 195.355 10.105 195.955 10.105 196.535V200H7.99V190.22ZM16.9091 197.93C16.9091 197.51 16.9991 197.145 17.1791 196.835C17.3591 196.515 17.6441 196.245 18.0341 196.025C18.4341 195.805 18.9441 195.63 19.5641 195.5C20.1841 195.36 20.9341 195.265 21.8141 195.215C21.7741 194.875 21.6241 194.61 21.3641 194.42C21.1141 194.23 20.7341 194.135 20.2241 194.135C19.8641 194.135 19.4991 194.2 19.1291 194.33C18.7691 194.45 18.3791 194.615 17.9591 194.825L17.1791 193.385C17.6891 193.095 18.2341 192.855 18.8141 192.665C19.4041 192.475 20.0191 192.38 20.6591 192.38C21.6991 192.38 22.5191 192.655 23.1191 193.205C23.7191 193.755 24.0191 194.6 24.0191 195.74V200H22.2191L22.0541 199.16H21.9941C21.6141 199.45 21.1991 199.695 20.7491 199.895C20.2991 200.085 19.8341 200.18 19.3541 200.18C18.9741 200.18 18.6341 200.12 18.3341 200C18.0341 199.89 17.7791 199.735 17.5691 199.535C17.3591 199.325 17.1941 199.085 17.0741 198.815C16.9641 198.545 16.9091 198.25 16.9091 197.93ZM19.0241 197.765C19.0241 198.005 19.1141 198.185 19.2941 198.305C19.4841 198.415 19.7391 198.47 20.0591 198.47C20.3891 198.47 20.6991 198.405 20.9891 198.275C21.2791 198.135 21.5541 197.965 21.8141 197.765V196.535C21.2641 196.565 20.8091 196.615 20.4491 196.685C20.0891 196.755 19.8041 196.845 19.5941 196.955C19.3841 197.055 19.2341 197.175 19.1441 197.315C19.0641 197.455 19.0241 197.605 19.0241 197.765ZM25.5283 192.56H27.1783L27.3433 193.49H27.4033C27.5433 193.18 27.7333 192.92 27.9733 192.71C28.2233 192.49 28.5633 192.38 28.9933 192.38C29.3233 192.38 29.5983 192.485 29.8183 192.695C30.0483 192.895 30.2083 193.195 30.2983 193.595C30.4383 193.255 30.6383 192.97 30.8983 192.74C31.1683 192.5 31.5133 192.38 31.9333 192.38C32.4533 192.38 32.8583 192.595 33.1483 193.025C33.4383 193.445 33.5833 194.03 33.5833 194.78V200H31.5133V194.945C31.5133 194.485 31.3733 194.255 31.0933 194.255C30.8233 194.255 30.5933 194.495 30.4033 194.975V200H28.7083V194.945C28.7083 194.485 28.5633 194.255 28.2733 194.255C28.1333 194.255 28.0133 194.315 27.9133 194.435C27.8133 194.555 27.7083 194.735 27.5983 194.975V200H25.5283V192.56ZM34.8074 196.28C34.8074 195.67 34.9124 195.125 35.1224 194.645C35.3424 194.165 35.6324 193.76 35.9924 193.43C36.3524 193.09 36.7624 192.83 37.2224 192.65C37.6924 192.47 38.1774 192.38 38.6774 192.38C39.2474 192.38 39.7524 192.47 40.1924 192.65C40.6324 192.83 40.9974 193.08 41.2874 193.4C41.5774 193.72 41.7974 194.1 41.9474 194.54C42.0974 194.97 42.1724 195.44 42.1724 195.95C42.1724 196.15 42.1624 196.34 42.1424 196.52C42.1224 196.7 42.1024 196.835 42.0824 196.925H37.0724C37.1524 197.485 37.3924 197.89 37.7924 198.14C38.2024 198.38 38.6824 198.5 39.2324 198.5C39.5724 198.5 39.8924 198.46 40.1924 198.38C40.5024 198.29 40.8224 198.16 41.1524 197.99L41.8724 199.31C41.4524 199.58 40.9824 199.795 40.4624 199.955C39.9424 200.105 39.4324 200.18 38.9324 200.18C38.3524 200.18 37.8124 200.095 37.3124 199.925C36.8124 199.745 36.3774 199.49 36.0074 199.16C35.6374 198.82 35.3424 198.41 35.1224 197.93C34.9124 197.45 34.8074 196.9 34.8074 196.28ZM40.1774 195.47C40.1774 195.05 40.0624 194.71 39.8324 194.45C39.6024 194.19 39.2324 194.06 38.7224 194.06C38.3224 194.06 37.9674 194.175 37.6574 194.405C37.3474 194.635 37.1424 194.99 37.0424 195.47H40.1774ZM44.3866 190.22H50.8366V192.08H46.5916V194.045H50.1916V195.89H46.5916V198.14H50.9866V200H44.3866V190.22ZM53.7107 192.56H55.5107L55.6907 194.18H55.7357C56.1057 193.57 56.5507 193.12 57.0707 192.83C57.5907 192.53 58.1507 192.38 58.7507 192.38C59.0807 192.38 59.3457 192.405 59.5457 192.455C59.7557 192.505 59.9707 192.58 60.1907 192.68L59.7407 194.525C59.5107 194.455 59.3007 194.405 59.1107 194.375C58.9307 194.335 58.7007 194.315 58.4207 194.315C57.9607 194.315 57.5057 194.45 57.0557 194.72C56.6157 194.99 56.2357 195.46 55.9157 196.13V200H53.7107V192.56ZM62.7048 192.56H64.5048L64.6848 194.18H64.7298C65.0998 193.57 65.5448 193.12 66.0648 192.83C66.5848 192.53 67.1448 192.38 67.7448 192.38C68.0748 192.38 68.3398 192.405 68.5398 192.455C68.7498 192.505 68.9648 192.58 69.1848 192.68L68.7348 194.525C68.5048 194.455 68.2948 194.405 68.1048 194.375C67.9248 194.335 67.6948 194.315 67.4148 194.315C66.9548 194.315 66.4998 194.45 66.0498 194.72C65.6098 194.99 65.2298 195.46 64.9098 196.13V200H62.7048V192.56ZM70.664 196.28C70.664 195.66 70.769 195.11 70.979 194.63C71.189 194.14 71.469 193.73 71.819 193.4C72.179 193.07 72.584 192.82 73.034 192.65C73.494 192.47 73.969 192.38 74.459 192.38C74.949 192.38 75.419 192.47 75.869 192.65C76.329 192.82 76.734 193.07 77.084 193.4C77.444 193.73 77.729 194.14 77.939 194.63C78.149 195.11 78.254 195.66 78.254 196.28C78.254 196.9 78.149 197.455 77.939 197.945C77.729 198.425 77.444 198.83 77.084 199.16C76.734 199.49 76.329 199.745 75.869 199.925C75.419 200.095 74.949 200.18 74.459 200.18C73.969 200.18 73.494 200.095 73.034 199.925C72.584 199.745 72.179 199.49 71.819 199.16C71.469 198.83 71.189 198.425 70.979 197.945C70.769 197.455 70.664 196.9 70.664 196.28ZM72.929 196.28C72.929 196.93 73.054 197.445 73.304 197.825C73.564 198.205 73.949 198.395 74.459 198.395C74.969 198.395 75.349 198.205 75.599 197.825C75.859 197.445 75.989 196.93 75.989 196.28C75.989 195.63 75.859 195.115 75.599 194.735C75.349 194.355 74.969 194.165 74.459 194.165C73.949 194.165 73.564 194.355 73.304 194.735C73.054 195.115 72.929 195.63 72.929 196.28ZM80.6931 192.56H82.4931L82.6731 194.18H82.7181C83.0881 193.57 83.5331 193.12 84.0531 192.83C84.5731 192.53 85.1331 192.38 85.7331 192.38C86.0631 192.38 86.3281 192.405 86.5281 192.455C86.7381 192.505 86.9531 192.58 87.1731 192.68L86.7231 194.525C86.4931 194.455 86.2831 194.405 86.0931 194.375C85.9131 194.335 85.6831 194.315 85.4031 194.315C84.9431 194.315 84.4881 194.45 84.0381 194.72C83.5981 194.99 83.2181 195.46 82.8981 196.13V200H80.6931V192.56ZM90.7073 193.58C90.7073 193.33 90.7473 193.1 90.8273 192.89C90.9173 192.67 91.0373 192.48 91.1873 192.32C91.3373 192.16 91.5173 192.035 91.7273 191.945C91.9473 191.855 92.1873 191.81 92.4473 191.81C92.7073 191.81 92.9423 191.855 93.1523 191.945C93.3723 192.035 93.5573 192.16 93.7073 192.32C93.8573 192.48 93.9723 192.67 94.0523 192.89C94.1423 193.1 94.1873 193.33 94.1873 193.58C94.1873 194.08 94.0273 194.5 93.7073 194.84C93.3873 195.17 92.9673 195.335 92.4473 195.335C91.9273 195.335 91.5073 195.17 91.1873 194.84C90.8673 194.5 90.7073 194.08 90.7073 193.58ZM90.7073 198.425C90.7073 198.175 90.7473 197.945 90.8273 197.735C90.9173 197.515 91.0373 197.325 91.1873 197.165C91.3373 197.005 91.5173 196.88 91.7273 196.79C91.9473 196.7 92.1873 196.655 92.4473 196.655C92.7073 196.655 92.9423 196.7 93.1523 196.79C93.3723 196.88 93.5573 197.005 93.7073 197.165C93.8573 197.325 93.9723 197.515 94.0523 197.735C94.1423 197.945 94.1873 198.175 94.1873 198.425C94.1873 198.925 94.0273 199.345 93.7073 199.685C93.3873 200.015 92.9673 200.18 92.4473 200.18C91.9273 200.18 91.5073 200.015 91.1873 199.685C90.8673 199.345 90.7073 198.925 90.7073 198.425ZM107.016 192.56H108.816L108.981 193.55H109.041C109.361 193.23 109.726 192.955 110.136 192.725C110.556 192.495 111.046 192.38 111.606 192.38C112.446 192.38 113.061 192.65 113.451 193.19C113.841 193.73 114.036 194.47 114.036 195.41V200H111.831V195.695C111.831 195.195 111.751 194.83 111.591 194.6C111.431 194.37 111.146 194.255 110.736 194.255C110.436 194.255 110.171 194.32 109.941 194.45C109.721 194.58 109.481 194.775 109.221 195.035V200H107.016V192.56ZM115.845 197.93C115.845 197.51 115.935 197.145 116.115 196.835C116.295 196.515 116.58 196.245 116.97 196.025C117.37 195.805 117.88 195.63 118.5 195.5C119.12 195.36 119.87 195.265 120.75 195.215C120.71 194.875 120.56 194.61 120.3 194.42C120.05 194.23 119.67 194.135 119.16 194.135C118.8 194.135 118.435 194.2 118.065 194.33C117.705 194.45 117.315 194.615 116.895 194.825L116.115 193.385C116.625 193.095 117.17 192.855 117.75 192.665C118.34 192.475 118.955 192.38 119.595 192.38C120.635 192.38 121.455 192.655 122.055 193.205C122.655 193.755 122.955 194.6 122.955 195.74V200H121.155L120.99 199.16H120.93C120.55 199.45 120.135 199.695 119.685 199.895C119.235 200.085 118.77 200.18 118.29 200.18C117.91 200.18 117.57 200.12 117.27 200C116.97 199.89 116.715 199.735 116.505 199.535C116.295 199.325 116.13 199.085 116.01 198.815C115.9 198.545 115.845 198.25 115.845 197.93ZM117.96 197.765C117.96 198.005 118.05 198.185 118.23 198.305C118.42 198.415 118.675 198.47 118.995 198.47C119.325 198.47 119.635 198.405 119.925 198.275C120.215 198.135 120.49 197.965 120.75 197.765V196.535C120.2 196.565 119.745 196.615 119.385 196.685C119.025 196.755 118.74 196.845 118.53 196.955C118.32 197.055 118.17 197.175 118.08 197.315C118 197.455 117.96 197.605 117.96 197.765ZM124.464 192.56H126.114L126.279 193.49H126.339C126.479 193.18 126.669 192.92 126.909 192.71C127.159 192.49 127.499 192.38 127.929 192.38C128.259 192.38 128.534 192.485 128.754 192.695C128.984 192.895 129.144 193.195 129.234 193.595C129.374 193.255 129.574 192.97 129.834 192.74C130.104 192.5 130.449 192.38 130.869 192.38C131.389 192.38 131.794 192.595 132.084 193.025C132.374 193.445 132.519 194.03 132.519 194.78V200H130.449V194.945C130.449 194.485 130.309 194.255 130.029 194.255C129.759 194.255 129.529 194.495 129.339 194.975V200H127.644V194.945C127.644 194.485 127.499 194.255 127.209 194.255C127.069 194.255 126.949 194.315 126.849 194.435C126.749 194.555 126.644 194.735 126.534 194.975V200H124.464V192.56ZM133.743 196.28C133.743 195.67 133.848 195.125 134.058 194.645C134.278 194.165 134.568 193.76 134.928 193.43C135.288 193.09 135.698 192.83 136.158 192.65C136.628 192.47 137.113 192.38 137.613 192.38C138.183 192.38 138.688 192.47 139.128 192.65C139.568 192.83 139.933 193.08 140.223 193.4C140.513 193.72 140.733 194.1 140.883 194.54C141.033 194.97 141.108 195.44 141.108 195.95C141.108 196.15 141.098 196.34 141.078 196.52C141.058 196.7 141.038 196.835 141.018 196.925H136.008C136.088 197.485 136.328 197.89 136.728 198.14C137.138 198.38 137.618 198.5 138.168 198.5C138.508 198.5 138.828 198.46 139.128 198.38C139.438 198.29 139.758 198.16 140.088 197.99L140.808 199.31C140.388 199.58 139.918 199.795 139.398 199.955C138.878 200.105 138.368 200.18 137.868 200.18C137.288 200.18 136.748 200.095 136.248 199.925C135.748 199.745 135.313 199.49 134.943 199.16C134.573 198.82 134.278 198.41 134.058 197.93C133.848 197.45 133.743 196.9 133.743 196.28ZM139.113 195.47C139.113 195.05 138.998 194.71 138.768 194.45C138.538 194.19 138.168 194.06 137.658 194.06C137.258 194.06 136.903 194.175 136.593 194.405C136.283 194.635 136.078 194.99 135.978 195.47H139.113ZM154.206 191.9L154.131 189.725H156.681L156.606 191.9L156.081 195.455H154.731L154.206 191.9ZM163.035 196.13L160.62 192.56H162.99L163.755 193.76C163.865 193.97 163.99 194.185 164.13 194.405C164.27 194.615 164.405 194.825 164.535 195.035H164.595C164.695 194.825 164.795 194.61 164.895 194.39C165.005 194.17 165.11 193.96 165.21 193.76L165.87 192.56H168.18L165.75 196.385L168.33 200H165.96L165.105 198.77C164.965 198.56 164.82 198.345 164.67 198.125C164.53 197.905 164.39 197.69 164.25 197.48H164.19C164.08 197.69 163.965 197.905 163.845 198.125C163.725 198.335 163.61 198.55 163.5 198.77L162.765 200H160.455L163.035 196.13ZM172.195 191.9L172.12 189.725H174.67L174.595 191.9L174.07 195.455H172.72L172.195 191.9ZM188.068 192.56H193.258V200H191.053V194.285H188.068V192.56ZM192.058 191.465C191.628 191.465 191.273 191.345 190.993 191.105C190.723 190.865 190.588 190.54 190.588 190.13C190.588 189.72 190.723 189.39 190.993 189.14C191.273 188.88 191.628 188.75 192.058 188.75C192.488 188.75 192.838 188.88 193.108 189.14C193.388 189.39 193.528 189.72 193.528 190.13C193.528 190.54 193.388 190.865 193.108 191.105C192.838 191.345 192.488 191.465 192.058 191.465ZM197.662 197.66C198.092 197.93 198.522 198.145 198.952 198.305C199.392 198.465 199.862 198.545 200.362 198.545C200.872 198.545 201.237 198.49 201.457 198.38C201.677 198.27 201.787 198.115 201.787 197.915C201.787 197.685 201.602 197.5 201.232 197.36C200.872 197.21 200.392 197.05 199.792 196.88C199.462 196.79 199.137 196.685 198.817 196.565C198.507 196.435 198.227 196.285 197.977 196.115C197.727 195.935 197.522 195.73 197.362 195.5C197.212 195.27 197.137 195.005 197.137 194.705C197.137 194.365 197.217 194.05 197.377 193.76C197.537 193.47 197.762 193.225 198.052 193.025C198.352 192.825 198.712 192.67 199.132 192.56C199.562 192.44 200.042 192.38 200.572 192.38C201.232 192.38 201.832 192.49 202.372 192.71C202.922 192.92 203.392 193.15 203.782 193.4L202.792 194.72C202.452 194.52 202.102 194.355 201.742 194.225C201.382 194.085 201.007 194.015 200.617 194.015C200.147 194.015 199.812 194.065 199.612 194.165C199.422 194.265 199.327 194.41 199.327 194.6C199.327 194.71 199.377 194.81 199.477 194.9C199.577 194.99 199.712 195.07 199.882 195.14C200.052 195.21 200.252 195.28 200.482 195.35C200.722 195.41 200.972 195.475 201.232 195.545C201.602 195.645 201.952 195.76 202.282 195.89C202.612 196.01 202.902 196.155 203.152 196.325C203.402 196.495 203.602 196.7 203.752 196.94C203.902 197.18 203.977 197.46 203.977 197.78C203.977 198.12 203.897 198.435 203.737 198.725C203.577 199.015 203.342 199.27 203.032 199.49C202.732 199.7 202.352 199.87 201.892 200C201.442 200.12 200.917 200.18 200.317 200.18C199.647 200.18 198.992 200.07 198.352 199.85C197.712 199.63 197.152 199.36 196.672 199.04L197.662 197.66ZM8.08 211.56H9.88L10.045 212.55H10.105C10.425 212.23 10.79 211.955 11.2 211.725C11.62 211.495 12.11 211.38 12.67 211.38C13.51 211.38 14.125 211.65 14.515 212.19C14.905 212.73 15.1 213.47 15.1 214.41V219H12.895V214.695C12.895 214.195 12.815 213.83 12.655 213.6C12.495 213.37 12.21 213.255 11.8 213.255C11.5 213.255 11.235 213.32 11.005 213.45C10.785 213.58 10.545 213.775 10.285 214.035V219H8.08V211.56ZM16.6991 215.28C16.6991 214.66 16.8041 214.11 17.0141 213.63C17.2241 213.14 17.5041 212.73 17.8541 212.4C18.2141 212.07 18.6191 211.82 19.0691 211.65C19.5291 211.47 20.0041 211.38 20.4941 211.38C20.9841 211.38 21.4541 211.47 21.9041 211.65C22.3641 211.82 22.7691 212.07 23.1191 212.4C23.4791 212.73 23.7641 213.14 23.9741 213.63C24.1841 214.11 24.2891 214.66 24.2891 215.28C24.2891 215.9 24.1841 216.455 23.9741 216.945C23.7641 217.425 23.4791 217.83 23.1191 218.16C22.7691 218.49 22.3641 218.745 21.9041 218.925C21.4541 219.095 20.9841 219.18 20.4941 219.18C20.0041 219.18 19.5291 219.095 19.0691 218.925C18.6191 218.745 18.2141 218.49 17.8541 218.16C17.5041 217.83 17.2241 217.425 17.0141 216.945C16.8041 216.455 16.6991 215.9 16.6991 215.28ZM18.9641 215.28C18.9641 215.93 19.0891 216.445 19.3391 216.825C19.5991 217.205 19.9841 217.395 20.4941 217.395C21.0041 217.395 21.3841 217.205 21.6341 216.825C21.8941 216.445 22.0241 215.93 22.0241 215.28C22.0241 214.63 21.8941 214.115 21.6341 213.735C21.3841 213.355 21.0041 213.165 20.4941 213.165C19.9841 213.165 19.5991 213.355 19.3391 213.735C19.0891 214.115 18.9641 214.63 18.9641 215.28ZM27.5983 213.285H25.7233V211.65L27.7033 211.56L27.9883 209.58H29.8033V211.56H32.9533V213.285H29.8033V215.895C29.8033 216.465 29.9283 216.87 30.1783 217.11C30.4283 217.34 30.8233 217.455 31.3633 217.455C31.6533 217.455 31.9183 217.43 32.1583 217.38C32.3983 217.33 32.6283 217.265 32.8483 217.185L33.2383 218.775C32.9083 218.875 32.5383 218.965 32.1283 219.045C31.7283 219.135 31.2883 219.18 30.8083 219.18C30.2183 219.18 29.7183 219.1 29.3083 218.94C28.8983 218.78 28.5633 218.56 28.3033 218.28C28.0533 217.99 27.8733 217.645 27.7633 217.245C27.6533 216.845 27.5983 216.4 27.5983 215.91V213.285ZM43.6816 215.28C43.6816 214.67 43.7716 214.125 43.9516 213.645C44.1316 213.165 44.3666 212.76 44.6566 212.43C44.9566 212.09 45.2966 211.83 45.6766 211.65C46.0566 211.47 46.4516 211.38 46.8616 211.38C47.2916 211.38 47.6516 211.455 47.9416 211.605C48.2316 211.745 48.5066 211.935 48.7666 212.175L48.6916 211.02V208.485H50.8966V219H49.0966L48.9316 218.235H48.8866C48.6066 218.505 48.2866 218.73 47.9266 218.91C47.5666 219.09 47.1966 219.18 46.8166 219.18C46.3466 219.18 45.9166 219.09 45.5266 218.91C45.1466 218.73 44.8166 218.475 44.5366 218.145C44.2666 217.805 44.0566 217.395 43.9066 216.915C43.7566 216.435 43.6816 215.89 43.6816 215.28ZM45.9466 215.25C45.9466 215.99 46.0716 216.53 46.3216 216.87C46.5716 217.21 46.9266 217.38 47.3866 217.38C47.6366 217.38 47.8666 217.33 48.0766 217.23C48.2866 217.12 48.4916 216.94 48.6916 216.69V213.675C48.4916 213.495 48.2866 213.37 48.0766 213.3C47.8766 213.22 47.6666 213.18 47.4466 213.18C47.0366 213.18 46.6816 213.35 46.3816 213.69C46.0916 214.03 45.9466 214.55 45.9466 215.25ZM52.7957 215.28C52.7957 214.67 52.9007 214.125 53.1107 213.645C53.3307 213.165 53.6207 212.76 53.9807 212.43C54.3407 212.09 54.7507 211.83 55.2107 211.65C55.6807 211.47 56.1657 211.38 56.6657 211.38C57.2357 211.38 57.7407 211.47 58.1807 211.65C58.6207 211.83 58.9857 212.08 59.2757 212.4C59.5657 212.72 59.7857 213.1 59.9357 213.54C60.0857 213.97 60.1607 214.44 60.1607 214.95C60.1607 215.15 60.1507 215.34 60.1307 215.52C60.1107 215.7 60.0907 215.835 60.0707 215.925H55.0607C55.1407 216.485 55.3807 216.89 55.7807 217.14C56.1907 217.38 56.6707 217.5 57.2207 217.5C57.5607 217.5 57.8807 217.46 58.1807 217.38C58.4907 217.29 58.8107 217.16 59.1407 216.99L59.8607 218.31C59.4407 218.58 58.9707 218.795 58.4507 218.955C57.9307 219.105 57.4207 219.18 56.9207 219.18C56.3407 219.18 55.8007 219.095 55.3007 218.925C54.8007 218.745 54.3657 218.49 53.9957 218.16C53.6257 217.82 53.3307 217.41 53.1107 216.93C52.9007 216.45 52.7957 215.9 52.7957 215.28ZM58.1657 214.47C58.1657 214.05 58.0507 213.71 57.8207 213.45C57.5907 213.19 57.2207 213.06 56.7107 213.06C56.3107 213.06 55.9557 213.175 55.6457 213.405C55.3357 213.635 55.1307 213.99 55.0307 214.47H58.1657ZM69.3198 210.33C68.8298 210.14 68.3098 210.045 67.7598 210.045C67.2798 210.045 66.9248 210.15 66.6948 210.36C66.4748 210.57 66.3648 210.9 66.3648 211.35V211.56H68.9298V213.285H66.3648V219H64.1598V213.285H62.1948V211.65L64.1598 211.56V211.365C64.1598 210.935 64.2248 210.535 64.3548 210.165C64.4848 209.795 64.6848 209.475 64.9548 209.205C65.2248 208.925 65.5698 208.705 65.9898 208.545C66.4098 208.385 66.9098 208.305 67.4898 208.305C67.9198 208.305 68.3198 208.345 68.6898 208.425C69.0698 208.505 69.4198 208.6 69.7398 208.71L69.3198 210.33ZM71.144 211.56H76.334V219H74.129V213.285H71.144V211.56ZM75.134 210.465C74.704 210.465 74.349 210.345 74.069 210.105C73.799 209.865 73.664 209.54 73.664 209.13C73.664 208.72 73.799 208.39 74.069 208.14C74.349 207.88 74.704 207.75 75.134 207.75C75.564 207.75 75.914 207.88 76.184 208.14C76.464 208.39 76.604 208.72 76.604 209.13C76.604 209.54 76.464 209.865 76.184 210.105C75.914 210.345 75.564 210.465 75.134 210.465ZM80.0331 211.56H81.8331L81.9981 212.55H82.0581C82.3781 212.23 82.7431 211.955 83.1531 211.725C83.5731 211.495 84.0631 211.38 84.6231 211.38C85.4631 211.38 86.0781 211.65 86.4681 212.19C86.8581 212.73 87.0531 213.47 87.0531 214.41V219H84.8481V214.695C84.8481 214.195 84.7681 213.83 84.6081 213.6C84.4481 213.37 84.1631 213.255 83.7531 213.255C83.4531 213.255 83.1881 213.32 82.9581 213.45C82.7381 213.58 82.4981 213.775 82.2381 214.035V219H80.0331V211.56ZM88.7723 215.28C88.7723 214.67 88.8773 214.125 89.0873 213.645C89.3073 213.165 89.5973 212.76 89.9573 212.43C90.3173 212.09 90.7273 211.83 91.1873 211.65C91.6573 211.47 92.1423 211.38 92.6423 211.38C93.2123 211.38 93.7173 211.47 94.1573 211.65C94.5973 211.83 94.9623 212.08 95.2523 212.4C95.5423 212.72 95.7623 213.1 95.9123 213.54C96.0623 213.97 96.1373 214.44 96.1373 214.95C96.1373 215.15 96.1273 215.34 96.1073 215.52C96.0873 215.7 96.0673 215.835 96.0473 215.925H91.0373C91.1173 216.485 91.3573 216.89 91.7573 217.14C92.1673 217.38 92.6473 217.5 93.1973 217.5C93.5373 217.5 93.8573 217.46 94.1573 217.38C94.4673 217.29 94.7873 217.16 95.1173 216.99L95.8373 218.31C95.4173 218.58 94.9473 218.795 94.4273 218.955C93.9073 219.105 93.3973 219.18 92.8973 219.18C92.3173 219.18 91.7773 219.095 91.2773 218.925C90.7773 218.745 90.3423 218.49 89.9723 218.16C89.6023 217.82 89.3073 217.41 89.0873 216.93C88.8773 216.45 88.7723 215.9 88.7723 215.28ZM94.1423 214.47C94.1423 214.05 94.0273 213.71 93.7973 213.45C93.5673 213.19 93.1973 213.06 92.6873 213.06C92.2873 213.06 91.9323 213.175 91.6223 213.405C91.3123 213.635 91.1073 213.99 91.0073 214.47H94.1423ZM97.6464 215.28C97.6464 214.67 97.7364 214.125 97.9164 213.645C98.0964 213.165 98.3314 212.76 98.6214 212.43C98.9214 212.09 99.2614 211.83 99.6414 211.65C100.021 211.47 100.416 211.38 100.826 211.38C101.256 211.38 101.616 211.455 101.906 211.605C102.196 211.745 102.471 211.935 102.731 212.175L102.656 211.02V208.485H104.861V219H103.061L102.896 218.235H102.851C102.571 218.505 102.251 218.73 101.891 218.91C101.531 219.09 101.161 219.18 100.781 219.18C100.311 219.18 99.8814 219.09 99.4914 218.91C99.1114 218.73 98.7814 218.475 98.5014 218.145C98.2314 217.805 98.0214 217.395 97.8714 216.915C97.7214 216.435 97.6464 215.89 97.6464 215.28ZM99.9114 215.25C99.9114 215.99 100.036 216.53 100.286 216.87C100.536 217.21 100.891 217.38 101.351 217.38C101.601 217.38 101.831 217.33 102.041 217.23C102.251 217.12 102.456 216.94 102.656 216.69V213.675C102.456 213.495 102.251 213.37 102.041 213.3C101.841 213.22 101.631 213.18 101.411 213.18C101.001 213.18 100.646 213.35 100.346 213.69C100.056 214.03 99.9114 214.55 99.9114 215.25Z" fill="#D55E00"/>
<rect x="79" width="149" height="31" fill="#333333"/>
<rect x="79" width="149" height="31" fill="#333333"/>
<rect width="79" height="31" fill="#090808"/>
<path d="M12.105 17.8101C12.105 17.5513 11.9756 17.3486 11.7168 17.2021C11.4629 17.0508 11.0527 16.9165 10.4863 16.7993C8.60156 16.4038 7.65918 15.603 7.65918 14.397C7.65918 13.6938 7.94971 13.1079 8.53076 12.6392C9.1167 12.1655 9.88086 11.9287 10.8232 11.9287C11.8291 11.9287 12.6323 12.1655 13.2329 12.6392C13.8384 13.1128 14.1411 13.728 14.1411 14.4849H12.0244C12.0244 14.1821 11.9268 13.9331 11.7314 13.7378C11.5361 13.5376 11.231 13.4375 10.8159 13.4375C10.4595 13.4375 10.1836 13.5181 9.98828 13.6792C9.79297 13.8403 9.69531 14.0454 9.69531 14.2944C9.69531 14.5288 9.80518 14.7192 10.0249 14.8657C10.2495 15.0073 10.6255 15.1318 11.1528 15.2393C11.6802 15.3418 12.1245 15.459 12.4858 15.5908C13.604 16.001 14.1631 16.7114 14.1631 17.7222C14.1631 18.4448 13.853 19.0308 13.2329 19.48C12.6128 19.9243 11.812 20.1465 10.8306 20.1465C10.1665 20.1465 9.57568 20.0293 9.05811 19.7949C8.54541 19.5557 8.14258 19.231 7.84961 18.8208C7.55664 18.4058 7.41016 17.959 7.41016 17.4805H9.41699C9.43652 17.8564 9.57568 18.1445 9.83447 18.3447C10.0933 18.5449 10.4399 18.645 10.8745 18.645C11.2798 18.645 11.585 18.5693 11.79 18.418C12 18.2617 12.105 18.0591 12.105 17.8101ZM18.8286 18.4399C19.2192 18.4399 19.5366 18.3325 19.7808 18.1177C20.0249 17.9028 20.1519 17.6172 20.1616 17.2607H22.1465C22.1416 17.7979 21.9951 18.291 21.707 18.7402C21.4189 19.1846 21.0234 19.5312 20.5205 19.7803C20.0225 20.0244 19.4707 20.1465 18.8652 20.1465C17.7324 20.1465 16.8389 19.7876 16.1846 19.0698C15.5303 18.3472 15.2031 17.3511 15.2031 16.0815V15.9424C15.2031 14.7217 15.5278 13.7476 16.1772 13.02C16.8267 12.2925 17.7178 11.9287 18.8506 11.9287C19.8418 11.9287 20.6353 12.2119 21.231 12.7783C21.8315 13.3398 22.1367 14.0894 22.1465 15.0269H20.1616C20.1519 14.6167 20.0249 14.2847 19.7808 14.0308C19.5366 13.772 19.2144 13.6426 18.814 13.6426C18.3208 13.6426 17.9473 13.8232 17.6934 14.1846C17.4443 14.541 17.3198 15.1221 17.3198 15.9277V16.1475C17.3198 16.9629 17.4443 17.5488 17.6934 17.9053C17.9424 18.2617 18.3208 18.4399 18.8286 18.4399ZM27.8081 14.0601C27.52 14.021 27.2661 14.0015 27.0464 14.0015C26.2456 14.0015 25.7207 14.2725 25.4717 14.8145V20H23.355V12.0752H25.3545L25.4131 13.02C25.8379 12.2925 26.4263 11.9287 27.1782 11.9287C27.4126 11.9287 27.6323 11.9604 27.8374 12.0239L27.8081 14.0601ZM31.0674 20H28.9434V12.0752H31.0674V20ZM28.8188 10.0244C28.8188 9.70703 28.9238 9.4458 29.1338 9.24072C29.3486 9.03564 29.6392 8.93311 30.0054 8.93311C30.3667 8.93311 30.6548 9.03564 30.8696 9.24072C31.0845 9.4458 31.1919 9.70703 31.1919 10.0244C31.1919 10.3467 31.082 10.6104 30.8623 10.8154C30.6475 11.0205 30.3618 11.123 30.0054 11.123C29.6489 11.123 29.3608 11.0205 29.1411 10.8154C28.9263 10.6104 28.8188 10.3467 28.8188 10.0244ZM39.9517 16.1108C39.9517 17.3315 39.6733 18.3105 39.1167 19.0479C38.5649 19.7803 37.8179 20.1465 36.8755 20.1465C36.0747 20.1465 35.4277 19.8682 34.9346 19.3115V23.0469H32.8179V12.0752H34.7808L34.854 12.8516C35.3667 12.2363 36.0356 11.9287 36.8608 11.9287C37.8374 11.9287 38.5967 12.29 39.1387 13.0127C39.6807 13.7354 39.9517 14.7314 39.9517 16.001V16.1108ZM37.835 15.957C37.835 15.2197 37.7031 14.6509 37.4395 14.2505C37.1807 13.8501 36.8022 13.6499 36.3042 13.6499C35.6401 13.6499 35.1836 13.9038 34.9346 14.4116V17.6562C35.1934 18.1787 35.6548 18.4399 36.3188 18.4399C37.3296 18.4399 37.835 17.6123 37.835 15.957ZM43.8042 10.127V12.0752H45.1592V13.6279H43.8042V17.583C43.8042 17.876 43.8604 18.0859 43.9727 18.2129C44.085 18.3398 44.2998 18.4033 44.6172 18.4033C44.8516 18.4033 45.0591 18.3862 45.2397 18.3521V19.9561C44.8247 20.083 44.3975 20.1465 43.958 20.1465C42.4736 20.1465 41.7168 19.397 41.6875 17.8979V13.6279H40.5303V12.0752H41.6875V10.127H43.8042ZM46.4482 18.96C46.4482 18.623 46.5605 18.3496 46.7852 18.1396C47.0146 17.9297 47.3003 17.8247 47.6421 17.8247C47.9888 17.8247 48.2744 17.9297 48.499 18.1396C48.7285 18.3496 48.8433 18.623 48.8433 18.96C48.8433 19.292 48.731 19.563 48.5063 19.7729C48.2817 19.978 47.9937 20.0806 47.6421 20.0806C47.2954 20.0806 47.0098 19.978 46.7852 19.7729C46.5605 19.563 46.4482 19.292 46.4482 18.96ZM57.8374 16.1108C57.8374 17.3315 57.5591 18.3105 57.0024 19.0479C56.4507 19.7803 55.7036 20.1465 54.7612 20.1465C53.9604 20.1465 53.3135 19.8682 52.8203 19.3115V23.0469H50.7036V12.0752H52.6665L52.7397 12.8516C53.2524 12.2363 53.9214 11.9287 54.7466 11.9287C55.7231 11.9287 56.4824 12.29 57.0244 13.0127C57.5664 13.7354 57.8374 14.7314 57.8374 16.001V16.1108ZM55.7207 15.957C55.7207 15.2197 55.5889 14.6509 55.3252 14.2505C55.0664 13.8501 54.688 13.6499 54.1899 13.6499C53.5259 13.6499 53.0693 13.9038 52.8203 14.4116V17.6562C53.0791 18.1787 53.5405 18.4399 54.2046 18.4399C55.2153 18.4399 55.7207 17.6123 55.7207 15.957ZM62.0269 17.0044L63.4917 12.0752H65.7622L62.5762 21.2305L62.4004 21.6479C61.9268 22.6831 61.1455 23.2007 60.0566 23.2007C59.749 23.2007 59.4365 23.1543 59.1191 23.0615V21.4575L59.4414 21.4648C59.8418 21.4648 60.1396 21.4038 60.335 21.2817C60.5352 21.1597 60.6914 20.957 60.8037 20.6738L61.0527 20.022L58.2769 12.0752H60.5547L62.0269 17.0044Z" fill="white"/>
<path d="M7.705 47.28C7.705 46.67 7.795 46.125 7.975 45.645C8.155 45.165 8.39 44.76 8.68 44.43C8.98 44.09 9.32 43.83 9.7 43.65C10.08 43.47 10.475 43.38 10.885 43.38C11.315 43.38 11.675 43.455 11.965 43.605C12.255 43.745 12.53 43.935 12.79 44.175L12.715 43.02V40.485H14.92V51H13.12L12.955 50.235H12.91C12.63 50.505 12.31 50.73 11.95 50.91C11.59 51.09 11.22 51.18 10.84 51.18C10.37 51.18 9.94 51.09 9.55 50.91C9.17 50.73 8.84 50.475 8.56 50.145C8.29 49.805 8.08 49.395 7.93 48.915C7.78 48.435 7.705 47.89 7.705 47.28ZM9.97 47.25C9.97 47.99 10.095 48.53 10.345 48.87C10.595 49.21 10.95 49.38 11.41 49.38C11.66 49.38 11.89 49.33 12.1 49.23C12.31 49.12 12.515 48.94 12.715 48.69V45.675C12.515 45.495 12.31 45.37 12.1 45.3C11.9 45.22 11.69 45.18 11.47 45.18C11.06 45.18 10.705 45.35 10.405 45.69C10.115 46.03 9.97 46.55 9.97 47.25ZM16.8191 47.28C16.8191 46.67 16.9241 46.125 17.1341 45.645C17.3541 45.165 17.6441 44.76 18.0041 44.43C18.3641 44.09 18.7741 43.83 19.2341 43.65C19.7041 43.47 20.1891 43.38 20.6891 43.38C21.2591 43.38 21.7641 43.47 22.2041 43.65C22.6441 43.83 23.0091 44.08 23.2991 44.4C23.5891 44.72 23.8091 45.1 23.9591 45.54C24.1091 45.97 24.1841 46.44 24.1841 46.95C24.1841 47.15 24.1741 47.34 24.1541 47.52C24.1341 47.7 24.1141 47.835 24.0941 47.925H19.0841C19.1641 48.485 19.4041 48.89 19.8041 49.14C20.2141 49.38 20.6941 49.5 21.2441 49.5C21.5841 49.5 21.9041 49.46 22.2041 49.38C22.5141 49.29 22.8341 49.16 23.1641 48.99L23.8841 50.31C23.4641 50.58 22.9941 50.795 22.4741 50.955C21.9541 51.105 21.4441 51.18 20.9441 51.18C20.3641 51.18 19.8241 51.095 19.3241 50.925C18.8241 50.745 18.3891 50.49 18.0191 50.16C17.6491 49.82 17.3541 49.41 17.1341 48.93C16.9241 48.45 16.8191 47.9 16.8191 47.28ZM22.1891 46.47C22.1891 46.05 22.0741 45.71 21.8441 45.45C21.6141 45.19 21.2441 45.06 20.7341 45.06C20.3341 45.06 19.9791 45.175 19.6691 45.405C19.3591 45.635 19.1541 45.99 19.0541 46.47H22.1891ZM33.3433 42.33C32.8533 42.14 32.3333 42.045 31.7833 42.045C31.3033 42.045 30.9483 42.15 30.7183 42.36C30.4983 42.57 30.3883 42.9 30.3883 43.35V43.56H32.9533V45.285H30.3883V51H28.1833V45.285H26.2183V43.65L28.1833 43.56V43.365C28.1833 42.935 28.2483 42.535 28.3783 42.165C28.5083 41.795 28.7083 41.475 28.9783 41.205C29.2483 40.925 29.5933 40.705 30.0133 40.545C30.4333 40.385 30.9333 40.305 31.5133 40.305C31.9433 40.305 32.3433 40.345 32.7133 40.425C33.0933 40.505 33.4433 40.6 33.7633 40.71L33.3433 42.33Z" fill="#E69F00"/>
<path d="M174.775 53.685C173.795 52.815 173.02 51.81 172.45 50.67C171.89 49.53 171.61 48.25 171.61 46.83C171.61 45.41 171.89 44.13 172.45 42.99C173.02 41.85 173.795 40.845 174.775 39.975L176.005 40.95C175.115 41.82 174.465 42.725 174.055 43.665C173.655 44.595 173.455 45.65 173.455 46.83C173.455 47.42 173.505 47.98 173.605 48.51C173.705 49.03 173.855 49.53 174.055 50.01C174.265 50.49 174.53 50.95 174.85 51.39C175.17 51.84 175.555 52.28 176.005 52.71L174.775 53.685ZM179.779 52.71C180.229 52.28 180.614 51.84 180.934 51.39C181.254 50.95 181.514 50.49 181.714 50.01C181.924 49.53 182.079 49.03 182.179 48.51C182.279 47.98 182.329 47.42 182.329 46.83C182.329 45.65 182.124 44.595 181.714 43.665C181.314 42.725 180.669 41.82 179.779 40.95L181.009 39.975C181.989 40.845 182.759 41.85 183.319 42.99C183.889 44.13 184.174 45.41 184.174 46.83C184.174 48.25 183.889 49.53 183.319 50.67C182.759 51.81 181.989 52.815 181.009 53.685L179.779 52.71ZM189.643 44.58C189.643 44.33 189.683 44.1 189.763 43.89C189.853 43.67 189.973 43.48 190.123 43.32C190.273 43.16 190.453 43.035 190.663 42.945C190.883 42.855 191.123 42.81 191.383 42.81C191.643 42.81 191.878 42.855 192.088 42.945C192.308 43.035 192.493 43.16 192.643 43.32C192.793 43.48 192.908 43.67 192.988 43.89C193.078 44.1 193.123 44.33 193.123 44.58C193.123 45.08 192.963 45.5 192.643 45.84C192.323 46.17 191.903 46.335 191.383 46.335C190.863 46.335 190.443 46.17 190.123 45.84C189.803 45.5 189.643 45.08 189.643 44.58ZM189.643 49.425C189.643 49.175 189.683 48.945 189.763 48.735C189.853 48.515 189.973 48.325 190.123 48.165C190.273 48.005 190.453 47.88 190.663 47.79C190.883 47.7 191.123 47.655 191.383 47.655C191.643 47.655 191.878 47.7 192.088 47.79C192.308 47.88 192.493 48.005 192.643 48.165C192.793 48.325 192.908 48.515 192.988 48.735C193.078 48.945 193.123 49.175 193.123 49.425C193.123 49.925 192.963 50.345 192.643 50.685C192.323 51.015 191.903 51.18 191.383 51.18C190.863 51.18 190.443 51.015 190.123 50.685C189.803 50.345 189.643 49.925 189.643 49.425ZM46.1116 66.13L43.6966 62.56H46.0666L46.8316 63.76C46.9416 63.97 47.0666 64.185 47.2066 64.405C47.3466 64.615 47.4816 64.825 47.6116 65.035H47.6716C47.7716 64.825 47.8716 64.61 47.9716 64.39C48.0816 64.17 48.1866 63.96 48.2866 63.76L48.9466 62.56H51.2566L48.8266 66.385L51.4066 70H49.0366L48.1816 68.77C48.0416 68.56 47.8966 68.345 47.7466 68.125C47.6066 67.905 47.4666 67.69 47.3266 67.48H47.2666C47.1566 67.69 47.0416 67.905 46.9216 68.125C46.8016 68.335 46.6866 68.55 46.5766 68.77L45.8416 70H43.5316L46.1116 66.13ZM62.0148 62.53H68.9148V64.09H62.0148V62.53ZM62.0148 65.995H68.9148V67.555H62.0148V65.995ZM90.7073 68.425C90.7073 68.175 90.7473 67.945 90.8273 67.735C90.9173 67.515 91.0373 67.325 91.1873 67.165C91.3373 67.005 91.5173 66.88 91.7273 66.79C91.9473 66.7 92.1873 66.655 92.4473 66.655C92.7073 66.655 92.9423 66.7 93.1523 66.79C93.3723 66.88 93.5573 67.005 93.7073 67.165C93.8573 67.325 93.9723 67.515 94.0523 67.735C94.1423 67.945 94.1873 68.175 94.1873 68.425C94.1873 68.925 94.0273 69.345 93.7073 69.685C93.3873 70.015 92.9673 70.18 92.4473 70.18C91.9273 70.18 91.5073 70.015 91.1873 69.685C90.8673 69.345 90.7073 68.925 90.7073 68.425ZM93.8273 90.685C92.8473 89.815 92.0723 88.81 91.5023 87.67C90.9423 86.53 90.6623 85.25 90.6623 83.83C90.6623 82.41 90.9423 81.13 91.5023 79.99C92.0723 78.85 92.8473 77.845 93.8273 76.975L95.0573 77.95C94.1673 78.82 93.5173 79.725 93.1073 80.665C92.7073 81.595 92.5073 82.65 92.5073 83.83C92.5073 84.42 92.5573 84.98 92.6573 85.51C92.7573 86.03 92.9073 86.53 93.1073 87.01C93.3173 87.49 93.5823 87.95 93.9023 88.39C94.2223 88.84 94.6073 89.28 95.0573 89.71L93.8273 90.685ZM100.076 84.13L97.6614 80.56H100.031L100.796 81.76C100.906 81.97 101.031 82.185 101.171 82.405C101.311 82.615 101.446 82.825 101.576 83.035H101.636C101.736 82.825 101.836 82.61 101.936 82.39C102.046 82.17 102.151 81.96 102.251 81.76L102.911 80.56H105.221L102.791 84.385L105.371 88H103.001L102.146 86.77C102.006 86.56 101.861 86.345 101.711 86.125C101.571 85.905 101.431 85.69 101.291 85.48H101.231C101.121 85.69 101.006 85.905 100.886 86.125C100.766 86.335 100.651 86.55 100.541 86.77L99.8064 88H97.4964L100.076 84.13ZM107.826 89.71C108.276 89.28 108.661 88.84 108.981 88.39C109.301 87.95 109.561 87.49 109.761 87.01C109.971 86.53 110.126 86.03 110.226 85.51C110.326 84.98 110.376 84.42 110.376 83.83C110.376 82.65 110.171 81.595 109.761 80.665C109.361 79.725 108.716 78.82 107.826 77.95L109.056 76.975C110.036 77.845 110.806 78.85 111.366 79.99C111.936 81.13 112.221 82.41 112.221 83.83C112.221 85.25 111.936 86.53 111.366 87.67C110.806 88.81 110.036 89.815 109.056 90.685L107.826 89.71ZM10.285 126.585V128.76H8.08V118.56H9.88L10.045 119.31H10.09C10.39 119.04 10.735 118.82 11.125 118.65C11.515 118.47 11.91 118.38 12.31 118.38C12.77 118.38 13.185 118.47 13.555 118.65C13.925 118.83 14.24 119.085 14.5 119.415C14.76 119.745 14.955 120.145 15.085 120.615C15.225 121.075 15.295 121.59 15.295 122.16C15.295 122.8 15.205 123.37 15.025 123.87C14.845 124.36 14.605 124.78 14.305 125.13C14.005 125.47 13.66 125.73 13.27 125.91C12.89 126.09 12.49 126.18 12.07 126.18C11.39 126.18 10.77 125.91 10.21 125.37L10.285 126.585ZM10.285 123.885C10.495 124.065 10.71 124.195 10.93 124.275C11.16 124.345 11.37 124.38 11.56 124.38C11.98 124.38 12.33 124.21 12.61 123.87C12.89 123.52 13.03 122.96 13.03 122.19C13.03 120.85 12.575 120.18 11.665 120.18C11.195 120.18 10.735 120.41 10.285 120.87V123.885ZM17.7341 118.56H19.5341L19.7141 120.18H19.7591C20.1291 119.57 20.5741 119.12 21.0941 118.83C21.6141 118.53 22.1741 118.38 22.7741 118.38C23.1041 118.38 23.3691 118.405 23.5691 118.455C23.7791 118.505 23.9941 118.58 24.2141 118.68L23.7641 120.525C23.5341 120.455 23.3241 120.405 23.1341 120.375C22.9541 120.335 22.7241 120.315 22.4441 120.315C21.9841 120.315 21.5291 120.45 21.0791 120.72C20.6391 120.99 20.2591 121.46 19.9391 122.13V126H17.7341V118.56ZM26.1733 118.56H31.3633V126H29.1583V120.285H26.1733V118.56ZM30.1633 117.465C29.7333 117.465 29.3783 117.345 29.0983 117.105C28.8283 116.865 28.6933 116.54 28.6933 116.13C28.6933 115.72 28.8283 115.39 29.0983 115.14C29.3783 114.88 29.7333 114.75 30.1633 114.75C30.5933 114.75 30.9433 114.88 31.2133 115.14C31.4933 115.39 31.6333 115.72 31.6333 116.13C31.6333 116.54 31.4933 116.865 31.2133 117.105C30.9433 117.345 30.5933 117.465 30.1633 117.465ZM35.0624 118.56H36.8624L37.0274 119.55H37.0874C37.4074 119.23 37.7724 118.955 38.1824 118.725C38.6024 118.495 39.0924 118.38 39.6524 118.38C40.4924 118.38 41.1074 118.65 41.4974 119.19C41.8874 119.73 42.0824 120.47 42.0824 121.41V126H39.8774V121.695C39.8774 121.195 39.7974 120.83 39.6374 120.6C39.4774 120.37 39.1924 120.255 38.7824 120.255C38.4824 120.255 38.2174 120.32 37.9874 120.45C37.7674 120.58 37.5274 120.775 37.2674 121.035V126H35.0624V118.56ZM45.5866 120.285H43.7116V118.65L45.6916 118.56L45.9766 116.58H47.7916V118.56H50.9416V120.285H47.7916V122.895C47.7916 123.465 47.9166 123.87 48.1666 124.11C48.4166 124.34 48.8116 124.455 49.3516 124.455C49.6416 124.455 49.9066 124.43 50.1466 124.38C50.3866 124.33 50.6166 124.265 50.8366 124.185L51.2266 125.775C50.8966 125.875 50.5266 125.965 50.1166 126.045C49.7166 126.135 49.2766 126.18 48.7966 126.18C48.2066 126.18 47.7066 126.1 47.2966 125.94C46.8866 125.78 46.5516 125.56 46.2916 125.28C46.0416 124.99 45.8616 124.645 45.7516 124.245C45.6416 123.845 45.5866 123.4 45.5866 122.91V120.285ZM60.0707 126.81V128.46H52.8707V126.81H60.0707ZM61.9698 122.28C61.9698 121.66 62.0848 121.11 62.3148 120.63C62.5548 120.14 62.8698 119.73 63.2598 119.4C63.6598 119.07 64.1198 118.82 64.6398 118.65C65.1598 118.47 65.7048 118.38 66.2748 118.38C66.8648 118.38 67.3948 118.475 67.8648 118.665C68.3448 118.855 68.7448 119.095 69.0648 119.385L68.0448 120.75C67.4948 120.36 66.9448 120.165 66.3948 120.165C65.7548 120.165 65.2348 120.355 64.8348 120.735C64.4348 121.115 64.2348 121.63 64.2348 122.28C64.2348 122.93 64.4248 123.445 64.8048 123.825C65.1948 124.205 65.6998 124.395 66.3198 124.395C66.7098 124.395 67.0698 124.325 67.3998 124.185C67.7298 124.045 68.0248 123.88 68.2848 123.69L69.1848 125.085C68.7348 125.465 68.2348 125.745 67.6848 125.925C67.1448 126.095 66.6198 126.18 66.1098 126.18C65.5198 126.18 64.9748 126.095 64.4748 125.925C63.9748 125.745 63.5348 125.49 63.1548 125.16C62.7848 124.83 62.4948 124.425 62.2848 123.945C62.0748 123.455 61.9698 122.9 61.9698 122.28ZM70.664 122.28C70.664 121.66 70.769 121.11 70.979 120.63C71.189 120.14 71.469 119.73 71.819 119.4C72.179 119.07 72.584 118.82 73.034 118.65C73.494 118.47 73.969 118.38 74.459 118.38C74.949 118.38 75.419 118.47 75.869 118.65C76.329 118.82 76.734 119.07 77.084 119.4C77.444 119.73 77.729 120.14 77.939 120.63C78.149 121.11 78.254 121.66 78.254 122.28C78.254 122.9 78.149 123.455 77.939 123.945C77.729 124.425 77.444 124.83 77.084 125.16C76.734 125.49 76.329 125.745 75.869 125.925C75.419 126.095 74.949 126.18 74.459 126.18C73.969 126.18 73.494 126.095 73.034 125.925C72.584 125.745 72.179 125.49 71.819 125.16C71.469 124.83 71.189 124.425 70.979 123.945C70.769 123.455 70.664 122.9 70.664 122.28ZM72.929 122.28C72.929 122.93 73.054 123.445 73.304 123.825C73.564 124.205 73.949 124.395 74.459 124.395C74.969 124.395 75.349 124.205 75.599 123.825C75.859 123.445 75.989 122.93 75.989 122.28C75.989 121.63 75.859 121.115 75.599 120.735C75.349 120.355 74.969 120.165 74.459 120.165C73.949 120.165 73.564 120.355 73.304 120.735C73.054 121.115 72.929 121.63 72.929 122.28ZM80.0331 118.56H81.8331L81.9981 119.55H82.0581C82.3781 119.23 82.7431 118.955 83.1531 118.725C83.5731 118.495 84.0631 118.38 84.6231 118.38C85.4631 118.38 86.0781 118.65 86.4681 119.19C86.8581 119.73 87.0531 120.47 87.0531 121.41V126H84.8481V121.695C84.8481 121.195 84.7681 120.83 84.6081 120.6C84.4481 120.37 84.1631 120.255 83.7531 120.255C83.4531 120.255 83.1881 120.32 82.9581 120.45C82.7381 120.58 82.4981 120.775 82.2381 121.035V126H80.0331V118.56ZM89.7323 123.66C90.1623 123.93 90.5923 124.145 91.0223 124.305C91.4623 124.465 91.9323 124.545 92.4323 124.545C92.9423 124.545 93.3073 124.49 93.5273 124.38C93.7473 124.27 93.8573 124.115 93.8573 123.915C93.8573 123.685 93.6723 123.5 93.3023 123.36C92.9423 123.21 92.4623 123.05 91.8623 122.88C91.5323 122.79 91.2073 122.685 90.8873 122.565C90.5773 122.435 90.2973 122.285 90.0473 122.115C89.7973 121.935 89.5923 121.73 89.4323 121.5C89.2823 121.27 89.2073 121.005 89.2073 120.705C89.2073 120.365 89.2873 120.05 89.4473 119.76C89.6073 119.47 89.8323 119.225 90.1223 119.025C90.4223 118.825 90.7823 118.67 91.2023 118.56C91.6323 118.44 92.1123 118.38 92.6423 118.38C93.3023 118.38 93.9023 118.49 94.4423 118.71C94.9923 118.92 95.4623 119.15 95.8523 119.4L94.8623 120.72C94.5223 120.52 94.1723 120.355 93.8123 120.225C93.4523 120.085 93.0773 120.015 92.6873 120.015C92.2173 120.015 91.8823 120.065 91.6823 120.165C91.4923 120.265 91.3973 120.41 91.3973 120.6C91.3973 120.71 91.4473 120.81 91.5473 120.9C91.6473 120.99 91.7823 121.07 91.9523 121.14C92.1223 121.21 92.3223 121.28 92.5523 121.35C92.7923 121.41 93.0423 121.475 93.3023 121.545C93.6723 121.645 94.0223 121.76 94.3523 121.89C94.6823 122.01 94.9723 122.155 95.2223 122.325C95.4723 122.495 95.6723 122.7 95.8223 122.94C95.9723 123.18 96.0473 123.46 96.0473 123.78C96.0473 124.12 95.9673 124.435 95.8073 124.725C95.6473 125.015 95.4123 125.27 95.1023 125.49C94.8023 125.7 94.4223 125.87 93.9623 126C93.5123 126.12 92.9873 126.18 92.3873 126.18C91.7173 126.18 91.0623 126.07 90.4223 125.85C89.7823 125.63 89.2223 125.36 88.7423 125.04L89.7323 123.66ZM99.5514 120.285H97.6764V118.65L99.6564 118.56L99.9414 116.58H101.756V118.56H104.906V120.285H101.756V122.895C101.756 123.465 101.881 123.87 102.131 124.11C102.381 124.34 102.776 124.455 103.316 124.455C103.606 124.455 103.871 124.43 104.111 124.38C104.351 124.33 104.581 124.265 104.801 124.185L105.191 125.775C104.861 125.875 104.491 125.965 104.081 126.045C103.681 126.135 103.241 126.18 102.761 126.18C102.171 126.18 101.671 126.1 101.261 125.94C100.851 125.78 100.516 125.56 100.256 125.28C100.006 124.99 99.8264 124.645 99.7164 124.245C99.6064 123.845 99.5514 123.4 99.5514 122.91V120.285ZM106.851 123.93C106.851 123.51 106.941 123.145 107.121 122.835C107.301 122.515 107.586 122.245 107.976 122.025C108.376 121.805 108.886 121.63 109.506 121.5C110.126 121.36 110.876 121.265 111.756 121.215C111.716 120.875 111.566 120.61 111.306 120.42C111.056 120.23 110.676 120.135 110.166 120.135C109.806 120.135 109.441 120.2 109.071 120.33C108.711 120.45 108.321 120.615 107.901 120.825L107.121 119.385C107.631 119.095 108.176 118.855 108.756 118.665C109.346 118.475 109.961 118.38 110.601 118.38C111.641 118.38 112.461 118.655 113.061 119.205C113.661 119.755 113.961 120.6 113.961 121.74V126H112.161L111.996 125.16H111.936C111.556 125.45 111.141 125.695 110.691 125.895C110.241 126.085 109.776 126.18 109.296 126.18C108.916 126.18 108.576 126.12 108.276 126C107.976 125.89 107.721 125.735 107.511 125.535C107.301 125.325 107.136 125.085 107.016 124.815C106.906 124.545 106.851 124.25 106.851 123.93ZM108.966 123.765C108.966 124.005 109.056 124.185 109.236 124.305C109.426 124.415 109.681 124.47 110.001 124.47C110.331 124.47 110.641 124.405 110.931 124.275C111.221 124.135 111.496 123.965 111.756 123.765V122.535C111.206 122.565 110.751 122.615 110.391 122.685C110.031 122.755 109.746 122.845 109.536 122.955C109.326 123.055 109.176 123.175 109.086 123.315C109.006 123.455 108.966 123.605 108.966 123.765ZM116.01 118.56H117.81L117.975 119.55H118.035C118.355 119.23 118.72 118.955 119.13 118.725C119.55 118.495 120.04 118.38 120.6 118.38C121.44 118.38 122.055 118.65 122.445 119.19C122.835 119.73 123.03 120.47 123.03 121.41V126H120.825V121.695C120.825 121.195 120.745 120.83 120.585 120.6C120.425 120.37 120.14 120.255 119.73 120.255C119.43 120.255 119.165 120.32 118.935 120.45C118.715 120.58 118.475 120.775 118.215 121.035V126H116.01V118.56ZM126.534 120.285H124.659V118.65L126.639 118.56L126.924 116.58H128.739V118.56H131.889V120.285H128.739V122.895C128.739 123.465 128.864 123.87 129.114 124.11C129.364 124.34 129.759 124.455 130.299 124.455C130.589 124.455 130.854 124.43 131.094 124.38C131.334 124.33 131.564 124.265 131.784 124.185L132.174 125.775C131.844 125.875 131.474 125.965 131.064 126.045C130.664 126.135 130.224 126.18 129.744 126.18C129.154 126.18 128.654 126.1 128.244 125.94C127.834 125.78 127.499 125.56 127.239 125.28C126.989 124.99 126.809 124.645 126.699 124.245C126.589 123.845 126.534 123.4 126.534 122.91V120.285ZM138.798 128.685C137.818 127.815 137.043 126.81 136.473 125.67C135.913 124.53 135.633 123.25 135.633 121.83C135.633 120.41 135.913 119.13 136.473 117.99C137.043 116.85 137.818 115.845 138.798 114.975L140.028 115.95C139.138 116.82 138.488 117.725 138.078 118.665C137.678 119.595 137.478 120.65 137.478 121.83C137.478 122.42 137.528 122.98 137.628 123.51C137.728 124.03 137.878 124.53 138.078 125.01C138.288 125.49 138.553 125.95 138.873 126.39C139.193 126.84 139.578 127.28 140.028 127.71L138.798 128.685ZM143.802 127.71C144.252 127.28 144.637 126.84 144.957 126.39C145.277 125.95 145.537 125.49 145.737 125.01C145.947 124.53 146.102 124.03 146.202 123.51C146.302 122.98 146.352 122.42 146.352 121.83C146.352 120.65 146.147 119.595 145.737 118.665C145.337 117.725 144.692 116.82 143.802 115.95L145.032 114.975C146.012 115.845 146.782 116.85 147.342 117.99C147.912 119.13 148.197 120.41 148.197 121.83C148.197 123.25 147.912 124.53 147.342 125.67C146.782 126.81 146.012 127.815 145.032 128.685L143.802 127.71ZM10.135 141.13L7.72 137.56H10.09L10.855 138.76C10.965 138.97 11.09 139.185 11.23 139.405C11.37 139.615 11.505 139.825 11.635 140.035H11.695C11.795 139.825 11.895 139.61 11.995 139.39C12.105 139.17 12.21 138.96 12.31 138.76L12.97 137.56H15.28L12.85 141.385L15.43 145H13.06L12.205 143.77C12.065 143.56 11.92 143.345 11.77 143.125C11.63 142.905 11.49 142.69 11.35 142.48H11.29C11.18 142.69 11.065 142.905 10.945 143.125C10.825 143.335 10.71 143.55 10.6 143.77L9.865 145H7.555L10.135 141.13Z" fill="white"/>
<path d="M46.2616 51.585V53.76H44.0566V43.56H45.8566L46.0216 44.31H46.0666C46.3666 44.04 46.7116 43.82 47.1016 43.65C47.4916 43.47 47.8866 43.38 48.2866 43.38C48.7466 43.38 49.1616 43.47 49.5316 43.65C49.9016 43.83 50.2166 44.085 50.4766 44.415C50.7366 44.745 50.9316 45.145 51.0616 45.615C51.2016 46.075 51.2716 46.59 51.2716 47.16C51.2716 47.8 51.1816 48.37 51.0016 48.87C50.8216 49.36 50.5816 49.78 50.2816 50.13C49.9816 50.47 49.6366 50.73 49.2466 50.91C48.8666 51.09 48.4666 51.18 48.0466 51.18C47.3666 51.18 46.7466 50.91 46.1866 50.37L46.2616 51.585ZM46.2616 48.885C46.4716 49.065 46.6866 49.195 46.9066 49.275C47.1366 49.345 47.3466 49.38 47.5366 49.38C47.9566 49.38 48.3066 49.21 48.5866 48.87C48.8666 48.52 49.0066 47.96 49.0066 47.19C49.0066 45.85 48.5516 45.18 47.6416 45.18C47.1716 45.18 46.7116 45.41 46.2616 45.87V48.885ZM53.7107 43.56H55.5107L55.6907 45.18H55.7357C56.1057 44.57 56.5507 44.12 57.0707 43.83C57.5907 43.53 58.1507 43.38 58.7507 43.38C59.0807 43.38 59.3457 43.405 59.5457 43.455C59.7557 43.505 59.9707 43.58 60.1907 43.68L59.7407 45.525C59.5107 45.455 59.3007 45.405 59.1107 45.375C58.9307 45.335 58.7007 45.315 58.4207 45.315C57.9607 45.315 57.5057 45.45 57.0557 45.72C56.6157 45.99 56.2357 46.46 55.9157 47.13V51H53.7107V43.56ZM62.1498 43.56H67.3398V51H65.1348V45.285H62.1498V43.56ZM66.1398 42.465C65.7098 42.465 65.3548 42.345 65.0748 42.105C64.8048 41.865 64.6698 41.54 64.6698 41.13C64.6698 40.72 64.8048 40.39 65.0748 40.14C65.3548 39.88 65.7098 39.75 66.1398 39.75C66.5698 39.75 66.9198 39.88 67.1898 40.14C67.4698 40.39 67.6098 40.72 67.6098 41.13C67.6098 41.54 67.4698 41.865 67.1898 42.105C66.9198 42.345 66.5698 42.465 66.1398 42.465ZM71.039 43.56H72.839L73.004 44.55H73.064C73.384 44.23 73.749 43.955 74.159 43.725C74.579 43.495 75.069 43.38 75.629 43.38C76.469 43.38 77.084 43.65 77.474 44.19C77.864 44.73 78.059 45.47 78.059 46.41V51H75.854V46.695C75.854 46.195 75.774 45.83 75.614 45.6C75.454 45.37 75.169 45.255 74.759 45.255C74.459 45.255 74.194 45.32 73.964 45.45C73.744 45.58 73.504 45.775 73.244 46.035V51H71.039V43.56ZM81.5631 45.285H79.6881V43.65L81.6681 43.56L81.9531 41.58H83.7681V43.56H86.9181V45.285H83.7681V47.895C83.7681 48.465 83.8931 48.87 84.1431 49.11C84.3931 49.34 84.7881 49.455 85.3281 49.455C85.6181 49.455 85.8831 49.43 86.1231 49.38C86.3631 49.33 86.5931 49.265 86.8131 49.185L87.2031 50.775C86.8731 50.875 86.5031 50.965 86.0931 51.045C85.6931 51.135 85.2531 51.18 84.7731 51.18C84.1831 51.18 83.6831 51.1 83.2731 50.94C82.8631 50.78 82.5281 50.56 82.2681 50.28C82.0181 49.99 81.8381 49.645 81.7281 49.245C81.6181 48.845 81.5631 48.4 81.5631 47.91V45.285ZM96.0473 51.81V53.46H88.8473V51.81H96.0473ZM97.9464 47.28C97.9464 46.66 98.0614 46.11 98.2914 45.63C98.5314 45.14 98.8464 44.73 99.2364 44.4C99.6364 44.07 100.096 43.82 100.616 43.65C101.136 43.47 101.681 43.38 102.251 43.38C102.841 43.38 103.371 43.475 103.841 43.665C104.321 43.855 104.721 44.095 105.041 44.385L104.021 45.75C103.471 45.36 102.921 45.165 102.371 45.165C101.731 45.165 101.211 45.355 100.811 45.735C100.411 46.115 100.211 46.63 100.211 47.28C100.211 47.93 100.401 48.445 100.781 48.825C101.171 49.205 101.676 49.395 102.296 49.395C102.686 49.395 103.046 49.325 103.376 49.185C103.706 49.045 104.001 48.88 104.261 48.69L105.161 50.085C104.711 50.465 104.211 50.745 103.661 50.925C103.121 51.095 102.596 51.18 102.086 51.18C101.496 51.18 100.951 51.095 100.451 50.925C99.9514 50.745 99.5114 50.49 99.1314 50.16C98.7614 49.83 98.4714 49.425 98.2614 48.945C98.0514 48.455 97.9464 47.9 97.9464 47.28ZM106.641 47.28C106.641 46.66 106.746 46.11 106.956 45.63C107.166 45.14 107.446 44.73 107.796 44.4C108.156 44.07 108.561 43.82 109.011 43.65C109.471 43.47 109.946 43.38 110.436 43.38C110.926 43.38 111.396 43.47 111.846 43.65C112.306 43.82 112.711 44.07 113.061 44.4C113.421 44.73 113.706 45.14 113.916 45.63C114.126 46.11 114.231 46.66 114.231 47.28C114.231 47.9 114.126 48.455 113.916 48.945C113.706 49.425 113.421 49.83 113.061 50.16C112.711 50.49 112.306 50.745 111.846 50.925C111.396 51.095 110.926 51.18 110.436 51.18C109.946 51.18 109.471 51.095 109.011 50.925C108.561 50.745 108.156 50.49 107.796 50.16C107.446 49.83 107.166 49.425 106.956 48.945C106.746 48.455 106.641 47.9 106.641 47.28ZM108.906 47.28C108.906 47.93 109.031 48.445 109.281 48.825C109.541 49.205 109.926 49.395 110.436 49.395C110.946 49.395 111.326 49.205 111.576 48.825C111.836 48.445 111.966 47.93 111.966 47.28C111.966 46.63 111.836 46.115 111.576 45.735C111.326 45.355 110.946 45.165 110.436 45.165C109.926 45.165 109.541 45.355 109.281 45.735C109.031 46.115 108.906 46.63 108.906 47.28ZM116.01 43.56H117.81L117.975 44.55H118.035C118.355 44.23 118.72 43.955 119.13 43.725C119.55 43.495 120.04 43.38 120.6 43.38C121.44 43.38 122.055 43.65 122.445 44.19C122.835 44.73 123.03 45.47 123.03 46.41V51H120.825V46.695C120.825 46.195 120.745 45.83 120.585 45.6C120.425 45.37 120.14 45.255 119.73 45.255C119.43 45.255 119.165 45.32 118.935 45.45C118.715 45.58 118.475 45.775 118.215 46.035V51H116.01V43.56ZM125.709 48.66C126.139 48.93 126.569 49.145 126.999 49.305C127.439 49.465 127.909 49.545 128.409 49.545C128.919 49.545 129.284 49.49 129.504 49.38C129.724 49.27 129.834 49.115 129.834 48.915C129.834 48.685 129.649 48.5 129.279 48.36C128.919 48.21 128.439 48.05 127.839 47.88C127.509 47.79 127.184 47.685 126.864 47.565C126.554 47.435 126.274 47.285 126.024 47.115C125.774 46.935 125.569 46.73 125.409 46.5C125.259 46.27 125.184 46.005 125.184 45.705C125.184 45.365 125.264 45.05 125.424 44.76C125.584 44.47 125.809 44.225 126.099 44.025C126.399 43.825 126.759 43.67 127.179 43.56C127.609 43.44 128.089 43.38 128.619 43.38C129.279 43.38 129.879 43.49 130.419 43.71C130.969 43.92 131.439 44.15 131.829 44.4L130.839 45.72C130.499 45.52 130.149 45.355 129.789 45.225C129.429 45.085 129.054 45.015 128.664 45.015C128.194 45.015 127.859 45.065 127.659 45.165C127.469 45.265 127.374 45.41 127.374 45.6C127.374 45.71 127.424 45.81 127.524 45.9C127.624 45.99 127.759 46.07 127.929 46.14C128.099 46.21 128.299 46.28 128.529 46.35C128.769 46.41 129.019 46.475 129.279 46.545C129.649 46.645 129.999 46.76 130.329 46.89C130.659 47.01 130.949 47.155 131.199 47.325C131.449 47.495 131.649 47.7 131.799 47.94C131.949 48.18 132.024 48.46 132.024 48.78C132.024 49.12 131.944 49.435 131.784 49.725C131.624 50.015 131.389 50.27 131.079 50.49C130.779 50.7 130.399 50.87 129.939 51C129.489 51.12 128.964 51.18 128.364 51.18C127.694 51.18 127.039 51.07 126.399 50.85C125.759 50.63 125.199 50.36 124.719 50.04L125.709 48.66ZM135.528 45.285H133.653V43.65L135.633 43.56L135.918 41.58H137.733V43.56H140.883V45.285H137.733V47.895C137.733 48.465 137.858 48.87 138.108 49.11C138.358 49.34 138.753 49.455 139.293 49.455C139.583 49.455 139.848 49.43 140.088 49.38C140.328 49.33 140.558 49.265 140.778 49.185L141.168 50.775C140.838 50.875 140.468 50.965 140.058 51.045C139.658 51.135 139.218 51.18 138.738 51.18C138.148 51.18 137.648 51.1 137.238 50.94C136.828 50.78 136.493 50.56 136.233 50.28C135.983 49.99 135.803 49.645 135.693 49.245C135.583 48.845 135.528 48.4 135.528 47.91V45.285ZM142.827 48.93C142.827 48.51 142.917 48.145 143.097 47.835C143.277 47.515 143.562 47.245 143.952 47.025C144.352 46.805 144.862 46.63 145.482 46.5C146.102 46.36 146.852 46.265 147.732 46.215C147.692 45.875 147.542 45.61 147.282 45.42C147.032 45.23 146.652 45.135 146.142 45.135C145.782 45.135 145.417 45.2 145.047 45.33C144.687 45.45 144.297 45.615 143.877 45.825L143.097 44.385C143.607 44.095 144.152 43.855 144.732 43.665C145.322 43.475 145.937 43.38 146.577 43.38C147.617 43.38 148.437 43.655 149.037 44.205C149.637 44.755 149.937 45.6 149.937 46.74V51H148.137L147.972 50.16H147.912C147.532 50.45 147.117 50.695 146.667 50.895C146.217 51.085 145.752 51.18 145.272 51.18C144.892 51.18 144.552 51.12 144.252 51C143.952 50.89 143.697 50.735 143.487 50.535C143.277 50.325 143.112 50.085 142.992 49.815C142.882 49.545 142.827 49.25 142.827 48.93ZM144.942 48.765C144.942 49.005 145.032 49.185 145.212 49.305C145.402 49.415 145.657 49.47 145.977 49.47C146.307 49.47 146.617 49.405 146.907 49.275C147.197 49.135 147.472 48.965 147.732 48.765V47.535C147.182 47.565 146.727 47.615 146.367 47.685C146.007 47.755 145.722 47.845 145.512 47.955C145.302 48.055 145.152 48.175 145.062 48.315C144.982 48.455 144.942 48.605 144.942 48.765ZM151.986 43.56H153.786L153.951 44.55H154.011C154.331 44.23 154.696 43.955 155.106 43.725C155.526 43.495 156.016 43.38 156.576 43.38C157.416 43.38 158.031 43.65 158.421 44.19C158.811 44.73 159.006 45.47 159.006 46.41V51H156.801V46.695C156.801 46.195 156.721 45.83 156.561 45.6C156.401 45.37 156.116 45.255 155.706 45.255C155.406 45.255 155.141 45.32 154.911 45.45C154.691 45.58 154.451 45.775 154.191 46.035V51H151.986V43.56ZM162.51 45.285H160.635V43.65L162.615 43.56L162.9 41.58H164.715V43.56H167.865V45.285H164.715V47.895C164.715 48.465 164.84 48.87 165.09 49.11C165.34 49.34 165.735 49.455 166.275 49.455C166.565 49.455 166.83 49.43 167.07 49.38C167.31 49.33 167.54 49.265 167.76 49.185L168.15 50.775C167.82 50.875 167.45 50.965 167.04 51.045C166.64 51.135 166.2 51.18 165.72 51.18C165.13 51.18 164.63 51.1 164.22 50.94C163.81 50.78 163.475 50.56 163.215 50.28C162.965 49.99 162.785 49.645 162.675 49.245C162.565 48.845 162.51 48.4 162.51 47.91V45.285ZM46.2616 88.585V90.76H44.0566V80.56H45.8566L46.0216 81.31H46.0666C46.3666 81.04 46.7116 80.82 47.1016 80.65C47.4916 80.47 47.8866 80.38 48.2866 80.38C48.7466 80.38 49.1616 80.47 49.5316 80.65C49.9016 80.83 50.2166 81.085 50.4766 81.415C50.7366 81.745 50.9316 82.145 51.0616 82.615C51.2016 83.075 51.2716 83.59 51.2716 84.16C51.2716 84.8 51.1816 85.37 51.0016 85.87C50.8216 86.36 50.5816 86.78 50.2816 87.13C49.9816 87.47 49.6366 87.73 49.2466 87.91C48.8666 88.09 48.4666 88.18 48.0466 88.18C47.3666 88.18 46.7466 87.91 46.1866 87.37L46.2616 88.585ZM46.2616 85.885C46.4716 86.065 46.6866 86.195 46.9066 86.275C47.1366 86.345 47.3466 86.38 47.5366 86.38C47.9566 86.38 48.3066 86.21 48.5866 85.87C48.8666 85.52 49.0066 84.96 49.0066 84.19C49.0066 82.85 48.5516 82.18 47.6416 82.18C47.1716 82.18 46.7116 82.41 46.2616 82.87V85.885ZM53.7107 80.56H55.5107L55.6907 82.18H55.7357C56.1057 81.57 56.5507 81.12 57.0707 80.83C57.5907 80.53 58.1507 80.38 58.7507 80.38C59.0807 80.38 59.3457 80.405 59.5457 80.455C59.7557 80.505 59.9707 80.58 60.1907 80.68L59.7407 82.525C59.5107 82.455 59.3007 82.405 59.1107 82.375C58.9307 82.335 58.7007 82.315 58.4207 82.315C57.9607 82.315 57.5057 82.45 57.0557 82.72C56.6157 82.99 56.2357 83.46 55.9157 84.13V88H53.7107V80.56ZM62.1498 80.56H67.3398V88H65.1348V82.285H62.1498V80.56ZM66.1398 79.465C65.7098 79.465 65.3548 79.345 65.0748 79.105C64.8048 78.865 64.6698 78.54 64.6698 78.13C64.6698 77.72 64.8048 77.39 65.0748 77.14C65.3548 76.88 65.7098 76.75 66.1398 76.75C66.5698 76.75 66.9198 76.88 67.1898 77.14C67.4698 77.39 67.6098 77.72 67.6098 78.13C67.6098 78.54 67.4698 78.865 67.1898 79.105C66.9198 79.345 66.5698 79.465 66.1398 79.465ZM71.039 80.56H72.839L73.004 81.55H73.064C73.384 81.23 73.749 80.955 74.159 80.725C74.579 80.495 75.069 80.38 75.629 80.38C76.469 80.38 77.084 80.65 77.474 81.19C77.864 81.73 78.059 82.47 78.059 83.41V88H75.854V83.695C75.854 83.195 75.774 82.83 75.614 82.6C75.454 82.37 75.169 82.255 74.759 82.255C74.459 82.255 74.194 82.32 73.964 82.45C73.744 82.58 73.504 82.775 73.244 83.035V88H71.039V80.56ZM81.5631 82.285H79.6881V80.65L81.6681 80.56L81.9531 78.58H83.7681V80.56H86.9181V82.285H83.7681V84.895C83.7681 85.465 83.8931 85.87 84.1431 86.11C84.3931 86.34 84.7881 86.455 85.3281 86.455C85.6181 86.455 85.8831 86.43 86.1231 86.38C86.3631 86.33 86.5931 86.265 86.8131 86.185L87.2031 87.775C86.8731 87.875 86.5031 87.965 86.0931 88.045C85.6931 88.135 85.2531 88.18 84.7731 88.18C84.1831 88.18 83.6831 88.1 83.2731 87.94C82.8631 87.78 82.5281 87.56 82.2681 87.28C82.0181 86.99 81.8381 86.645 81.7281 86.245C81.6181 85.845 81.5631 85.4 81.5631 84.91V82.285Z" fill="#56B4E9"/>
<path d="M80.6031 67.435C80.9231 67.715 81.2781 67.945 81.6681 68.125C82.0681 68.305 82.4881 68.395 82.9281 68.395C83.4481 68.395 83.8731 68.3 84.2031 68.11C84.5431 67.91 84.7131 67.63 84.7131 67.27C84.7131 67.06 84.6681 66.87 84.5781 66.7C84.4881 66.53 84.3331 66.39 84.1131 66.28C83.8931 66.16 83.5981 66.07 83.2281 66.01C82.8581 65.94 82.3931 65.905 81.8331 65.905V64.345C82.7731 64.345 83.4331 64.23 83.8131 64C84.2031 63.76 84.3981 63.45 84.3981 63.07C84.3981 62.74 84.2731 62.485 84.0231 62.305C83.7731 62.115 83.4281 62.02 82.9881 62.02C82.6081 62.02 82.2581 62.095 81.9381 62.245C81.6181 62.395 81.2931 62.6 80.9631 62.86L79.8531 61.51C80.3231 61.13 80.8231 60.835 81.3531 60.625C81.8931 60.405 82.4731 60.295 83.0931 60.295C83.6131 60.295 84.0881 60.355 84.5181 60.475C84.9481 60.585 85.3181 60.755 85.6281 60.985C85.9381 61.205 86.1781 61.475 86.3481 61.795C86.5181 62.115 86.6031 62.485 86.6031 62.905C86.6031 63.405 86.4431 63.83 86.1231 64.18C85.8031 64.52 85.3581 64.8 84.7881 65.02V65.08C85.3881 65.24 85.8931 65.515 86.3031 65.905C86.7131 66.285 86.9181 66.785 86.9181 67.405C86.9181 67.845 86.8131 68.24 86.6031 68.59C86.4031 68.93 86.1281 69.22 85.7781 69.46C85.4381 69.69 85.0381 69.87 84.5781 70C84.1181 70.12 83.6381 70.18 83.1381 70.18C82.3181 70.18 81.6131 70.06 81.0231 69.82C80.4331 69.57 79.9531 69.24 79.5831 68.83L80.6031 67.435ZM104.996 68.215V70H98.1714V68.215H100.631V62.71H98.6664V61.345C99.2264 61.245 99.7014 61.125 100.091 60.985C100.491 60.845 100.866 60.675 101.216 60.475H102.836V68.215H104.996ZM111.051 66.04V64.435C111.051 64.135 111.056 63.79 111.066 63.4C111.086 63 111.106 62.65 111.126 62.35H111.066C110.906 62.62 110.736 62.89 110.556 63.16C110.376 63.43 110.201 63.7 110.031 63.97L108.591 66.04H111.051ZM114.306 67.72H113.106V70H111.051V67.72H106.461V66.205L110.436 60.475H113.106V66.04H114.306V67.72Z" fill="#F0E442"/>
</svg>
