<svg width="529" height="131" viewBox="0 0 529 131" fill="none" xmlns="http://www.w3.org/2000/svg">
<rect width="529" height="131" fill="black"/>
<path d="M16.3 43.9L16.225 41.725H18.775L18.7 43.9L18.175 47.455H16.825L16.3 43.9ZM23.6141 42.22H30.0641V44.08H25.8191V46.345H29.4341V48.205H25.8191V52H23.6141V42.22ZM31.9033 49.93C31.9033 49.51 31.9933 49.145 32.1733 48.835C32.3533 48.515 32.6383 48.245 33.0283 48.025C33.4283 47.805 33.9383 47.63 34.5583 47.5C35.1783 47.36 35.9283 47.265 36.8083 47.215C36.7683 46.875 36.6183 46.61 36.3583 46.42C36.1083 46.23 35.7283 46.135 35.2183 46.135C34.8583 46.135 34.4933 46.2 34.1233 46.33C33.7633 46.45 33.3733 46.615 32.9533 46.825L32.1733 45.385C32.6833 45.095 33.2283 44.855 33.8083 44.665C34.3983 44.475 35.0133 44.38 35.6533 44.38C36.6933 44.38 37.5133 44.655 38.1133 45.205C38.7133 45.755 39.0133 46.6 39.0133 47.74V52H37.2133L37.0483 51.16H36.9883C36.6083 51.45 36.1933 51.695 35.7433 51.895C35.2933 52.085 34.8283 52.18 34.3483 52.18C33.9683 52.18 33.6283 52.12 33.3283 52C33.0283 51.89 32.7733 51.735 32.5633 51.535C32.3533 51.325 32.1883 51.085 32.0683 50.815C31.9583 50.545 31.9033 50.25 31.9033 49.93ZM34.0183 49.765C34.0183 50.005 34.1083 50.185 34.2883 50.305C34.4783 50.415 34.7333 50.47 35.0533 50.47C35.3833 50.47 35.6933 50.405 35.9833 50.275C36.2733 50.135 36.5483 49.965 36.8083 49.765V48.535C36.2583 48.565 35.8033 48.615 35.4433 48.685C35.0833 48.755 34.7983 48.845 34.5883 48.955C34.3783 49.055 34.2283 49.175 34.1383 49.315C34.0583 49.455 34.0183 49.605 34.0183 49.765ZM40.9874 48.28C40.9874 47.66 41.1024 47.11 41.3324 46.63C41.5724 46.14 41.8874 45.73 42.2774 45.4C42.6774 45.07 43.1374 44.82 43.6574 44.65C44.1774 44.47 44.7224 44.38 45.2924 44.38C45.8824 44.38 46.4124 44.475 46.8824 44.665C47.3624 44.855 47.7624 45.095 48.0824 45.385L47.0624 46.75C46.5124 46.36 45.9624 46.165 45.4124 46.165C44.7724 46.165 44.2524 46.355 43.8524 46.735C43.4524 47.115 43.2524 47.63 43.2524 48.28C43.2524 48.93 43.4424 49.445 43.8224 49.825C44.2124 50.205 44.7174 50.395 45.3374 50.395C45.7274 50.395 46.0874 50.325 46.4174 50.185C46.7474 50.045 47.0424 49.88 47.3024 49.69L48.2024 51.085C47.7524 51.465 47.2524 51.745 46.7024 51.925C46.1624 52.095 45.6374 52.18 45.1274 52.18C44.5374 52.18 43.9924 52.095 43.4924 51.925C42.9924 51.745 42.5524 51.49 42.1724 51.16C41.8024 50.83 41.5124 50.425 41.3024 49.945C41.0924 49.455 40.9874 48.9 40.9874 48.28ZM49.8016 48.28C49.8016 47.67 49.9066 47.125 50.1166 46.645C50.3366 46.165 50.6266 45.76 50.9866 45.43C51.3466 45.09 51.7566 44.83 52.2166 44.65C52.6866 44.47 53.1716 44.38 53.6716 44.38C54.2416 44.38 54.7466 44.47 55.1866 44.65C55.6266 44.83 55.9916 45.08 56.2816 45.4C56.5716 45.72 56.7916 46.1 56.9416 46.54C57.0916 46.97 57.1666 47.44 57.1666 47.95C57.1666 48.15 57.1566 48.34 57.1366 48.52C57.1166 48.7 57.0966 48.835 57.0766 48.925H52.0666C52.1466 49.485 52.3866 49.89 52.7866 50.14C53.1966 50.38 53.6766 50.5 54.2266 50.5C54.5666 50.5 54.8866 50.46 55.1866 50.38C55.4966 50.29 55.8166 50.16 56.1466 49.99L56.8666 51.31C56.4466 51.58 55.9766 51.795 55.4566 51.955C54.9366 52.105 54.4266 52.18 53.9266 52.18C53.3466 52.18 52.8066 52.095 52.3066 51.925C51.8066 51.745 51.3716 51.49 51.0016 51.16C50.6316 50.82 50.3366 50.41 50.1166 49.93C49.9066 49.45 49.8016 48.9 49.8016 48.28ZM55.1716 47.47C55.1716 47.05 55.0566 46.71 54.8266 46.45C54.5966 46.19 54.2266 46.06 53.7166 46.06C53.3166 46.06 52.9616 46.175 52.6516 46.405C52.3416 46.635 52.1366 46.99 52.0366 47.47H55.1716ZM59.0507 41.485H61.2557V44.065L61.1957 45.235C61.4857 44.965 61.8107 44.755 62.1707 44.605C62.5407 44.455 62.9057 44.38 63.2657 44.38C63.7257 44.38 64.1407 44.47 64.5107 44.65C64.8907 44.83 65.2057 45.085 65.4557 45.415C65.7157 45.735 65.9157 46.13 66.0557 46.6C66.1957 47.06 66.2657 47.575 66.2657 48.145C66.2657 48.785 66.1757 49.355 65.9957 49.855C65.8157 50.355 65.5757 50.78 65.2757 51.13C64.9757 51.47 64.6307 51.73 64.2407 51.91C63.8607 52.09 63.4607 52.18 63.0407 52.18C62.6907 52.18 62.3407 52.095 61.9907 51.925C61.6507 51.755 61.3257 51.51 61.0157 51.19H60.9557L60.7757 52H59.0507V41.485ZM61.2557 49.885C61.4657 50.065 61.6807 50.195 61.9007 50.275C62.1307 50.345 62.3457 50.38 62.5457 50.38C62.9557 50.38 63.3007 50.21 63.5807 49.87C63.8607 49.52 64.0007 48.96 64.0007 48.19C64.0007 46.85 63.5457 46.18 62.6357 46.18C62.1657 46.18 61.7057 46.41 61.2557 46.87V49.885ZM67.6698 48.28C67.6698 47.66 67.7748 47.11 67.9848 46.63C68.1948 46.14 68.4748 45.73 68.8248 45.4C69.1848 45.07 69.5898 44.82 70.0398 44.65C70.4998 44.47 70.9748 44.38 71.4648 44.38C71.9548 44.38 72.4248 44.47 72.8748 44.65C73.3348 44.82 73.7398 45.07 74.0898 45.4C74.4498 45.73 74.7348 46.14 74.9448 46.63C75.1548 47.11 75.2598 47.66 75.2598 48.28C75.2598 48.9 75.1548 49.455 74.9448 49.945C74.7348 50.425 74.4498 50.83 74.0898 51.16C73.7398 51.49 73.3348 51.745 72.8748 51.925C72.4248 52.095 71.9548 52.18 71.4648 52.18C70.9748 52.18 70.4998 52.095 70.0398 51.925C69.5898 51.745 69.1848 51.49 68.8248 51.16C68.4748 50.83 68.1948 50.425 67.9848 49.945C67.7748 49.455 67.6698 48.9 67.6698 48.28ZM69.9348 48.28C69.9348 48.93 70.0598 49.445 70.3098 49.825C70.5698 50.205 70.9548 50.395 71.4648 50.395C71.9748 50.395 72.3548 50.205 72.6048 49.825C72.8648 49.445 72.9948 48.93 72.9948 48.28C72.9948 47.63 72.8648 47.115 72.6048 46.735C72.3548 46.355 71.9748 46.165 71.4648 46.165C70.9548 46.165 70.5698 46.355 70.3098 46.735C70.0598 47.115 69.9348 47.63 69.9348 48.28ZM76.664 48.28C76.664 47.66 76.769 47.11 76.979 46.63C77.189 46.14 77.469 45.73 77.819 45.4C78.179 45.07 78.584 44.82 79.034 44.65C79.494 44.47 79.969 44.38 80.459 44.38C80.949 44.38 81.419 44.47 81.869 44.65C82.329 44.82 82.734 45.07 83.084 45.4C83.444 45.73 83.729 46.14 83.939 46.63C84.149 47.11 84.254 47.66 84.254 48.28C84.254 48.9 84.149 49.455 83.939 49.945C83.729 50.425 83.444 50.83 83.084 51.16C82.734 51.49 82.329 51.745 81.869 51.925C81.419 52.095 80.949 52.18 80.459 52.18C79.969 52.18 79.494 52.095 79.034 51.925C78.584 51.745 78.179 51.49 77.819 51.16C77.469 50.83 77.189 50.425 76.979 49.945C76.769 49.455 76.664 48.9 76.664 48.28ZM78.929 48.28C78.929 48.93 79.054 49.445 79.304 49.825C79.564 50.205 79.949 50.395 80.459 50.395C80.969 50.395 81.349 50.205 81.599 49.825C81.859 49.445 81.989 48.93 81.989 48.28C81.989 47.63 81.859 47.115 81.599 46.735C81.349 46.355 80.969 46.165 80.459 46.165C79.949 46.165 79.564 46.355 79.304 46.735C79.054 47.115 78.929 47.63 78.929 48.28ZM86.0931 41.485H88.2981V47.56H88.3581L91.0881 44.56H93.5031L90.6831 47.62L93.7281 52H91.3431L89.3931 48.97L88.2981 50.125V52H86.0931V41.485ZM97.2473 43.9L97.1723 41.725H99.7223L99.6473 43.9L99.1223 47.455H97.7723L97.2473 43.9ZM250.823 42.715C250.293 42.955 249.888 43.245 249.608 43.585C249.338 43.925 249.183 44.335 249.143 44.815C249.243 44.785 249.348 44.77 249.458 44.77C249.858 44.77 250.183 44.895 250.433 45.145C250.693 45.385 250.823 45.715 250.823 46.135C250.823 46.595 250.688 46.965 250.418 47.245C250.148 47.515 249.803 47.65 249.383 47.65C248.823 47.65 248.388 47.44 248.078 47.02C247.778 46.6 247.628 46.01 247.628 45.25C247.628 44.43 247.843 43.71 248.273 43.09C248.713 42.46 249.373 41.945 250.253 41.545L250.823 42.715ZM254.798 42.715C254.268 42.955 253.863 43.245 253.583 43.585C253.313 43.925 253.158 44.335 253.118 44.815C253.218 44.785 253.323 44.77 253.433 44.77C253.833 44.77 254.158 44.895 254.408 45.145C254.668 45.385 254.798 45.715 254.798 46.135C254.798 46.595 254.663 46.965 254.393 47.245C254.123 47.515 253.778 47.65 253.358 47.65C252.798 47.65 252.363 47.44 252.053 47.02C251.753 46.6 251.603 46.01 251.603 45.25C251.603 44.43 251.818 43.71 252.248 43.09C252.688 42.46 253.348 41.945 254.228 41.545L254.798 42.715ZM256.382 44.56H258.032L258.197 45.49H258.257C258.397 45.18 258.587 44.92 258.827 44.71C259.077 44.49 259.417 44.38 259.847 44.38C260.177 44.38 260.452 44.485 260.672 44.695C260.902 44.895 261.062 45.195 261.152 45.595C261.292 45.255 261.492 44.97 261.752 44.74C262.022 44.5 262.367 44.38 262.787 44.38C263.307 44.38 263.712 44.595 264.002 45.025C264.292 45.445 264.437 46.03 264.437 46.78V52H262.367V46.945C262.367 46.485 262.227 46.255 261.947 46.255C261.677 46.255 261.447 46.495 261.257 46.975V52H259.562V46.945C259.562 46.485 259.417 46.255 259.127 46.255C258.987 46.255 258.867 46.315 258.767 46.435C258.667 46.555 258.562 46.735 258.452 46.975V52H256.382V44.56ZM265.541 48.28C265.541 47.66 265.646 47.11 265.856 46.63C266.066 46.14 266.346 45.73 266.696 45.4C267.056 45.07 267.461 44.82 267.911 44.65C268.371 44.47 268.846 44.38 269.336 44.38C269.826 44.38 270.296 44.47 270.746 44.65C271.206 44.82 271.611 45.07 271.961 45.4C272.321 45.73 272.606 46.14 272.816 46.63C273.026 47.11 273.131 47.66 273.131 48.28C273.131 48.9 273.026 49.455 272.816 49.945C272.606 50.425 272.321 50.83 271.961 51.16C271.611 51.49 271.206 51.745 270.746 51.925C270.296 52.095 269.826 52.18 269.336 52.18C268.846 52.18 268.371 52.095 267.911 51.925C267.461 51.745 267.056 51.49 266.696 51.16C266.346 50.83 266.066 50.425 265.856 49.945C265.646 49.455 265.541 48.9 265.541 48.28ZM267.806 48.28C267.806 48.93 267.931 49.445 268.181 49.825C268.441 50.205 268.826 50.395 269.336 50.395C269.846 50.395 270.226 50.205 270.476 49.825C270.736 49.445 270.866 48.93 270.866 48.28C270.866 47.63 270.736 47.115 270.476 46.735C270.226 46.355 269.846 46.165 269.336 46.165C268.826 46.165 268.441 46.355 268.181 46.735C267.931 47.115 267.806 47.63 267.806 48.28ZM274.295 44.56H276.515L277.685 48.07C277.805 48.45 277.92 48.83 278.03 49.21C278.14 49.59 278.25 49.975 278.36 50.365H278.42C278.53 49.975 278.635 49.59 278.735 49.21C278.845 48.83 278.96 48.45 279.08 48.07L280.25 44.56H282.365L279.635 52H277.1L274.295 44.56ZM283.649 48.28C283.649 47.67 283.754 47.125 283.964 46.645C284.184 46.165 284.474 45.76 284.834 45.43C285.194 45.09 285.604 44.83 286.064 44.65C286.534 44.47 287.019 44.38 287.519 44.38C288.089 44.38 288.594 44.47 289.034 44.65C289.474 44.83 289.839 45.08 290.129 45.4C290.419 45.72 290.639 46.1 290.789 46.54C290.939 46.97 291.014 47.44 291.014 47.95C291.014 48.15 291.004 48.34 290.984 48.52C290.964 48.7 290.944 48.835 290.924 48.925H285.914C285.994 49.485 286.234 49.89 286.634 50.14C287.044 50.38 287.524 50.5 288.074 50.5C288.414 50.5 288.734 50.46 289.034 50.38C289.344 50.29 289.664 50.16 289.994 49.99L290.714 51.31C290.294 51.58 289.824 51.795 289.304 51.955C288.784 52.105 288.274 52.18 287.774 52.18C287.194 52.18 286.654 52.095 286.154 51.925C285.654 51.745 285.219 51.49 284.849 51.16C284.479 50.82 284.184 50.41 283.964 49.93C283.754 49.45 283.649 48.9 283.649 48.28ZM289.019 47.47C289.019 47.05 288.904 46.71 288.674 46.45C288.444 46.19 288.074 46.06 287.564 46.06C287.164 46.06 286.809 46.175 286.499 46.405C286.189 46.635 285.984 46.99 285.884 47.47H289.019ZM309.168 43.33C308.678 43.14 308.158 43.045 307.608 43.045C307.128 43.045 306.773 43.15 306.543 43.36C306.323 43.57 306.213 43.9 306.213 44.35V44.56H308.778V46.285H306.213V52H304.008V46.285H302.043V44.65L304.008 44.56V44.365C304.008 43.935 304.073 43.535 304.203 43.165C304.333 42.795 304.533 42.475 304.803 42.205C305.073 41.925 305.418 41.705 305.838 41.545C306.258 41.385 306.758 41.305 307.338 41.305C307.768 41.305 308.168 41.345 308.538 41.425C308.918 41.505 309.268 41.6 309.588 41.71L309.168 43.33ZM310.722 49.93C310.722 49.51 310.812 49.145 310.992 48.835C311.172 48.515 311.457 48.245 311.847 48.025C312.247 47.805 312.757 47.63 313.377 47.5C313.997 47.36 314.747 47.265 315.627 47.215C315.587 46.875 315.437 46.61 315.177 46.42C314.927 46.23 314.547 46.135 314.037 46.135C313.677 46.135 313.312 46.2 312.942 46.33C312.582 46.45 312.192 46.615 311.772 46.825L310.992 45.385C311.502 45.095 312.047 44.855 312.627 44.665C313.217 44.475 313.832 44.38 314.472 44.38C315.512 44.38 316.332 44.655 316.932 45.205C317.532 45.755 317.832 46.6 317.832 47.74V52H316.032L315.867 51.16H315.807C315.427 51.45 315.012 51.695 314.562 51.895C314.112 52.085 313.647 52.18 313.167 52.18C312.787 52.18 312.447 52.12 312.147 52C311.847 51.89 311.592 51.735 311.382 51.535C311.172 51.325 311.007 51.085 310.887 50.815C310.777 50.545 310.722 50.25 310.722 49.93ZM312.837 49.765C312.837 50.005 312.927 50.185 313.107 50.305C313.297 50.415 313.552 50.47 313.872 50.47C314.202 50.47 314.512 50.405 314.802 50.275C315.092 50.135 315.367 49.965 315.627 49.765V48.535C315.077 48.565 314.622 48.615 314.262 48.685C313.902 48.755 313.617 48.845 313.407 48.955C313.197 49.055 313.047 49.175 312.957 49.315C312.877 49.455 312.837 49.605 312.837 49.765ZM320.586 49.66C321.016 49.93 321.446 50.145 321.876 50.305C322.316 50.465 322.786 50.545 323.286 50.545C323.796 50.545 324.161 50.49 324.381 50.38C324.601 50.27 324.711 50.115 324.711 49.915C324.711 49.685 324.526 49.5 324.156 49.36C323.796 49.21 323.316 49.05 322.716 48.88C322.386 48.79 322.061 48.685 321.741 48.565C321.431 48.435 321.151 48.285 320.901 48.115C320.651 47.935 320.446 47.73 320.286 47.5C320.136 47.27 320.061 47.005 320.061 46.705C320.061 46.365 320.141 46.05 320.301 45.76C320.461 45.47 320.686 45.225 320.976 45.025C321.276 44.825 321.636 44.67 322.056 44.56C322.486 44.44 322.966 44.38 323.496 44.38C324.156 44.38 324.756 44.49 325.296 44.71C325.846 44.92 326.316 45.15 326.706 45.4L325.716 46.72C325.376 46.52 325.026 46.355 324.666 46.225C324.306 46.085 323.931 46.015 323.541 46.015C323.071 46.015 322.736 46.065 322.536 46.165C322.346 46.265 322.251 46.41 322.251 46.6C322.251 46.71 322.301 46.81 322.401 46.9C322.501 46.99 322.636 47.07 322.806 47.14C322.976 47.21 323.176 47.28 323.406 47.35C323.646 47.41 323.896 47.475 324.156 47.545C324.526 47.645 324.876 47.76 325.206 47.89C325.536 48.01 325.826 48.155 326.076 48.325C326.326 48.495 326.526 48.7 326.676 48.94C326.826 49.18 326.901 49.46 326.901 49.78C326.901 50.12 326.821 50.435 326.661 50.725C326.501 51.015 326.266 51.27 325.956 51.49C325.656 51.7 325.276 51.87 324.816 52C324.366 52.12 323.841 52.18 323.241 52.18C322.571 52.18 321.916 52.07 321.276 51.85C320.636 51.63 320.076 51.36 319.596 51.04L320.586 49.66ZM330.405 46.285H328.53V44.65L330.51 44.56L330.795 42.58H332.61V44.56H335.76V46.285H332.61V48.895C332.61 49.465 332.735 49.87 332.985 50.11C333.235 50.34 333.63 50.455 334.17 50.455C334.46 50.455 334.725 50.43 334.965 50.38C335.205 50.33 335.435 50.265 335.655 50.185L336.045 51.775C335.715 51.875 335.345 51.965 334.935 52.045C334.535 52.135 334.095 52.18 333.615 52.18C333.025 52.18 332.525 52.1 332.115 51.94C331.705 51.78 331.37 51.56 331.11 51.28C330.86 50.99 330.68 50.645 330.57 50.245C330.46 49.845 330.405 49.4 330.405 48.91V46.285ZM346.698 49.93C346.698 49.51 346.788 49.145 346.968 48.835C347.148 48.515 347.433 48.245 347.823 48.025C348.223 47.805 348.733 47.63 349.353 47.5C349.973 47.36 350.723 47.265 351.603 47.215C351.563 46.875 351.413 46.61 351.153 46.42C350.903 46.23 350.523 46.135 350.013 46.135C349.653 46.135 349.288 46.2 348.918 46.33C348.558 46.45 348.168 46.615 347.748 46.825L346.968 45.385C347.478 45.095 348.023 44.855 348.603 44.665C349.193 44.475 349.808 44.38 350.448 44.38C351.488 44.38 352.308 44.655 352.908 45.205C353.508 45.755 353.808 46.6 353.808 47.74V52H352.008L351.843 51.16H351.783C351.403 51.45 350.988 51.695 350.538 51.895C350.088 52.085 349.623 52.18 349.143 52.18C348.763 52.18 348.423 52.12 348.123 52C347.823 51.89 347.568 51.735 347.358 51.535C347.148 51.325 346.983 51.085 346.863 50.815C346.753 50.545 346.698 50.25 346.698 49.93ZM348.813 49.765C348.813 50.005 348.903 50.185 349.083 50.305C349.273 50.415 349.528 50.47 349.848 50.47C350.178 50.47 350.488 50.405 350.778 50.275C351.068 50.135 351.343 49.965 351.603 49.765V48.535C351.053 48.565 350.598 48.615 350.238 48.685C349.878 48.755 349.593 48.845 349.383 48.955C349.173 49.055 349.023 49.175 348.933 49.315C348.853 49.455 348.813 49.605 348.813 49.765ZM355.857 44.56H357.657L357.822 45.55H357.882C358.202 45.23 358.567 44.955 358.977 44.725C359.397 44.495 359.887 44.38 360.447 44.38C361.287 44.38 361.902 44.65 362.292 45.19C362.682 45.73 362.877 46.47 362.877 47.41V52H360.672V47.695C360.672 47.195 360.592 46.83 360.432 46.6C360.272 46.37 359.987 46.255 359.577 46.255C359.277 46.255 359.012 46.32 358.782 46.45C358.562 46.58 358.322 46.775 358.062 47.035V52H355.857V44.56ZM364.476 48.28C364.476 47.67 364.566 47.125 364.746 46.645C364.926 46.165 365.161 45.76 365.451 45.43C365.751 45.09 366.091 44.83 366.471 44.65C366.851 44.47 367.246 44.38 367.656 44.38C368.086 44.38 368.446 44.455 368.736 44.605C369.026 44.745 369.301 44.935 369.561 45.175L369.486 44.02V41.485H371.691V52H369.891L369.726 51.235H369.681C369.401 51.505 369.081 51.73 368.721 51.91C368.361 52.09 367.991 52.18 367.611 52.18C367.141 52.18 366.711 52.09 366.321 51.91C365.941 51.73 365.611 51.475 365.331 51.145C365.061 50.805 364.851 50.395 364.701 49.915C364.551 49.435 364.476 48.89 364.476 48.28ZM366.741 48.25C366.741 48.99 366.866 49.53 367.116 49.87C367.366 50.21 367.721 50.38 368.181 50.38C368.431 50.38 368.661 50.33 368.871 50.23C369.081 50.12 369.286 49.94 369.486 49.69V46.675C369.286 46.495 369.081 46.37 368.871 46.3C368.671 46.22 368.461 46.18 368.241 46.18C367.831 46.18 367.476 46.35 367.176 46.69C366.886 47.03 366.741 47.55 366.741 48.25ZM382.84 41.485H385.045V44.065L384.985 45.235C385.275 44.965 385.6 44.755 385.96 44.605C386.33 44.455 386.695 44.38 387.055 44.38C387.515 44.38 387.93 44.47 388.3 44.65C388.68 44.83 388.995 45.085 389.245 45.415C389.505 45.735 389.705 46.13 389.845 46.6C389.985 47.06 390.055 47.575 390.055 48.145C390.055 48.785 389.965 49.355 389.785 49.855C389.605 50.355 389.365 50.78 389.065 51.13C388.765 51.47 388.42 51.73 388.03 51.91C387.65 52.09 387.25 52.18 386.83 52.18C386.48 52.18 386.13 52.095 385.78 51.925C385.44 51.755 385.115 51.51 384.805 51.19H384.745L384.565 52H382.84V41.485ZM385.045 49.885C385.255 50.065 385.47 50.195 385.69 50.275C385.92 50.345 386.135 50.38 386.335 50.38C386.745 50.38 387.09 50.21 387.37 49.87C387.65 49.52 387.79 48.96 387.79 48.19C387.79 46.85 387.335 46.18 386.425 46.18C385.955 46.18 385.495 46.41 385.045 46.87V49.885ZM392.494 44.56H394.294L394.474 46.18H394.519C394.889 45.57 395.334 45.12 395.854 44.83C396.374 44.53 396.934 44.38 397.534 44.38C397.864 44.38 398.129 44.405 398.329 44.455C398.539 44.505 398.754 44.58 398.974 44.68L398.524 46.525C398.294 46.455 398.084 46.405 397.894 46.375C397.714 46.335 397.484 46.315 397.204 46.315C396.744 46.315 396.289 46.45 395.839 46.72C395.399 46.99 395.019 47.46 394.699 48.13V52H392.494V44.56ZM400.573 48.28C400.573 47.67 400.678 47.125 400.888 46.645C401.108 46.165 401.398 45.76 401.758 45.43C402.118 45.09 402.528 44.83 402.988 44.65C403.458 44.47 403.943 44.38 404.443 44.38C405.013 44.38 405.518 44.47 405.958 44.65C406.398 44.83 406.763 45.08 407.053 45.4C407.343 45.72 407.563 46.1 407.713 46.54C407.863 46.97 407.938 47.44 407.938 47.95C407.938 48.15 407.928 48.34 407.908 48.52C407.888 48.7 407.868 48.835 407.848 48.925H402.838C402.918 49.485 403.158 49.89 403.558 50.14C403.968 50.38 404.448 50.5 404.998 50.5C405.338 50.5 405.658 50.46 405.958 50.38C406.268 50.29 406.588 50.16 406.918 49.99L407.638 51.31C407.218 51.58 406.748 51.795 406.228 51.955C405.708 52.105 405.198 52.18 404.698 52.18C404.118 52.18 403.578 52.095 403.078 51.925C402.578 51.745 402.143 51.49 401.773 51.16C401.403 50.82 401.108 50.41 400.888 49.93C400.678 49.45 400.573 48.9 400.573 48.28ZM405.943 47.47C405.943 47.05 405.828 46.71 405.598 46.45C405.368 46.19 404.998 46.06 404.488 46.06C404.088 46.06 403.733 46.175 403.423 46.405C403.113 46.635 402.908 46.99 402.808 47.47H405.943ZM409.657 49.93C409.657 49.51 409.747 49.145 409.927 48.835C410.107 48.515 410.392 48.245 410.782 48.025C411.182 47.805 411.692 47.63 412.312 47.5C412.932 47.36 413.682 47.265 414.562 47.215C414.522 46.875 414.372 46.61 414.112 46.42C413.862 46.23 413.482 46.135 412.972 46.135C412.612 46.135 412.247 46.2 411.877 46.33C411.517 46.45 411.127 46.615 410.707 46.825L409.927 45.385C410.437 45.095 410.982 44.855 411.562 44.665C412.152 44.475 412.767 44.38 413.407 44.38C414.447 44.38 415.267 44.655 415.867 45.205C416.467 45.755 416.767 46.6 416.767 47.74V52H414.967L414.802 51.16H414.742C414.362 51.45 413.947 51.695 413.497 51.895C413.047 52.085 412.582 52.18 412.102 52.18C411.722 52.18 411.382 52.12 411.082 52C410.782 51.89 410.527 51.735 410.317 51.535C410.107 51.325 409.942 51.085 409.822 50.815C409.712 50.545 409.657 50.25 409.657 49.93ZM411.772 49.765C411.772 50.005 411.862 50.185 412.042 50.305C412.232 50.415 412.487 50.47 412.807 50.47C413.137 50.47 413.447 50.405 413.737 50.275C414.027 50.135 414.302 49.965 414.562 49.765V48.535C414.012 48.565 413.557 48.615 413.197 48.685C412.837 48.755 412.552 48.845 412.342 48.955C412.132 49.055 411.982 49.175 411.892 49.315C411.812 49.455 411.772 49.605 411.772 49.765ZM418.876 41.485H421.081V47.56H421.141L423.871 44.56H426.286L423.466 47.62L426.511 52H424.126L422.176 48.97L421.081 50.125V52H418.876V41.485ZM438.335 46.285H436.46V44.65L438.44 44.56L438.725 42.58H440.54V44.56H443.69V46.285H440.54V48.895C440.54 49.465 440.665 49.87 440.915 50.11C441.165 50.34 441.56 50.455 442.1 50.455C442.39 50.455 442.655 50.43 442.895 50.38C443.135 50.33 443.365 50.265 443.585 50.185L443.975 51.775C443.645 51.875 443.275 51.965 442.865 52.045C442.465 52.135 442.025 52.18 441.545 52.18C440.955 52.18 440.455 52.1 440.045 51.94C439.635 51.78 439.3 51.56 439.04 51.28C438.79 50.99 438.61 50.645 438.5 50.245C438.39 49.845 438.335 49.4 438.335 48.91V46.285ZM445.799 41.485H448.004V44.065L447.884 45.49C448.034 45.35 448.194 45.215 448.364 45.085C448.544 44.945 448.734 44.825 448.934 44.725C449.144 44.615 449.369 44.53 449.609 44.47C449.859 44.41 450.124 44.38 450.404 44.38C451.244 44.38 451.854 44.65 452.234 45.19C452.624 45.73 452.819 46.47 452.819 47.41V52H450.614V47.695C450.614 47.195 450.534 46.83 450.374 46.6C450.214 46.37 449.929 46.255 449.519 46.255C449.219 46.255 448.954 46.32 448.724 46.45C448.504 46.58 448.264 46.775 448.004 47.035V52H445.799V41.485ZM454.898 44.56H460.088V52H457.883V46.285H454.898V44.56ZM458.888 43.465C458.458 43.465 458.103 43.345 457.823 43.105C457.553 42.865 457.418 42.54 457.418 42.13C457.418 41.72 457.553 41.39 457.823 41.14C458.103 40.88 458.458 40.75 458.888 40.75C459.318 40.75 459.668 40.88 459.938 41.14C460.218 41.39 460.358 41.72 460.358 42.13C460.358 42.54 460.218 42.865 459.938 43.105C459.668 43.345 459.318 43.465 458.888 43.465ZM463.787 44.56H465.587L465.752 45.55H465.812C466.132 45.23 466.497 44.955 466.907 44.725C467.327 44.495 467.817 44.38 468.377 44.38C469.217 44.38 469.832 44.65 470.222 45.19C470.612 45.73 470.807 46.47 470.807 47.41V52H468.602V47.695C468.602 47.195 468.522 46.83 468.362 46.6C468.202 46.37 467.917 46.255 467.507 46.255C467.207 46.255 466.942 46.32 466.712 46.45C466.492 46.58 466.252 46.775 465.992 47.035V52H463.787V44.56ZM474.281 52.93C474.281 53.21 474.446 53.42 474.776 53.56C475.116 53.71 475.581 53.785 476.171 53.785C476.771 53.785 477.256 53.695 477.626 53.515C477.996 53.345 478.181 53.13 478.181 52.87C478.181 52.63 478.071 52.47 477.851 52.39C477.631 52.32 477.306 52.285 476.876 52.285H475.946C475.676 52.285 475.451 52.275 475.271 52.255C475.101 52.245 474.946 52.225 474.806 52.195C474.616 52.315 474.481 52.43 474.401 52.54C474.321 52.66 474.281 52.79 474.281 52.93ZM472.481 53.26C472.481 52.65 472.866 52.155 473.636 51.775V51.715C473.436 51.585 473.261 51.42 473.111 51.22C472.961 51.02 472.886 50.76 472.886 50.44C472.886 50.19 472.966 49.94 473.126 49.69C473.296 49.44 473.511 49.225 473.771 49.045V48.985C473.501 48.805 473.271 48.555 473.081 48.235C472.891 47.905 472.796 47.52 472.796 47.08C472.796 46.63 472.881 46.24 473.051 45.91C473.231 45.57 473.466 45.29 473.756 45.07C474.046 44.84 474.381 44.67 474.761 44.56C475.151 44.44 475.556 44.38 475.976 44.38C476.436 44.38 476.846 44.44 477.206 44.56H480.221V46.165H478.706C478.796 46.275 478.876 46.42 478.946 46.6C479.016 46.77 479.051 46.955 479.051 47.155C479.051 47.585 478.971 47.955 478.811 48.265C478.651 48.575 478.431 48.835 478.151 49.045C477.881 49.245 477.556 49.395 477.176 49.495C476.806 49.595 476.406 49.645 475.976 49.645C475.656 49.645 475.316 49.595 474.956 49.495C474.846 49.575 474.761 49.655 474.701 49.735C474.651 49.815 474.626 49.915 474.626 50.035C474.626 50.235 474.726 50.38 474.926 50.47C475.126 50.56 475.446 50.605 475.886 50.605H477.266C478.246 50.605 478.991 50.75 479.501 51.04C480.021 51.33 480.281 51.81 480.281 52.48C480.281 52.87 480.176 53.23 479.966 53.56C479.756 53.89 479.461 54.17 479.081 54.4C478.701 54.64 478.236 54.825 477.686 54.955C477.136 55.095 476.526 55.165 475.856 55.165C475.376 55.165 474.926 55.125 474.506 55.045C474.096 54.975 473.741 54.86 473.441 54.7C473.141 54.55 472.906 54.355 472.736 54.115C472.566 53.875 472.481 53.59 472.481 53.26ZM475.976 48.31C476.286 48.31 476.551 48.21 476.771 48.01C477.001 47.8 477.116 47.49 477.116 47.08C477.116 46.68 477.001 46.38 476.771 46.18C476.551 45.97 476.286 45.865 475.976 45.865C475.666 45.865 475.401 45.97 475.181 46.18C474.971 46.38 474.866 46.68 474.866 47.08C474.866 47.49 474.971 47.8 475.181 48.01C475.401 48.21 475.666 48.31 475.976 48.31ZM482.48 49.66C482.91 49.93 483.34 50.145 483.77 50.305C484.21 50.465 484.68 50.545 485.18 50.545C485.69 50.545 486.055 50.49 486.275 50.38C486.495 50.27 486.605 50.115 486.605 49.915C486.605 49.685 486.42 49.5 486.05 49.36C485.69 49.21 485.21 49.05 484.61 48.88C484.28 48.79 483.955 48.685 483.635 48.565C483.325 48.435 483.045 48.285 482.795 48.115C482.545 47.935 482.34 47.73 482.18 47.5C482.03 47.27 481.955 47.005 481.955 46.705C481.955 46.365 482.035 46.05 482.195 45.76C482.355 45.47 482.58 45.225 482.87 45.025C483.17 44.825 483.53 44.67 483.95 44.56C484.38 44.44 484.86 44.38 485.39 44.38C486.05 44.38 486.65 44.49 487.19 44.71C487.74 44.92 488.21 45.15 488.6 45.4L487.61 46.72C487.27 46.52 486.92 46.355 486.56 46.225C486.2 46.085 485.825 46.015 485.435 46.015C484.965 46.015 484.63 46.065 484.43 46.165C484.24 46.265 484.145 46.41 484.145 46.6C484.145 46.71 484.195 46.81 484.295 46.9C484.395 46.99 484.53 47.07 484.7 47.14C484.87 47.21 485.07 47.28 485.3 47.35C485.54 47.41 485.79 47.475 486.05 47.545C486.42 47.645 486.77 47.76 487.1 47.89C487.43 48.01 487.72 48.155 487.97 48.325C488.22 48.495 488.42 48.7 488.57 48.94C488.72 49.18 488.795 49.46 488.795 49.78C488.795 50.12 488.715 50.435 488.555 50.725C488.395 51.015 488.16 51.27 487.85 51.49C487.55 51.7 487.17 51.87 486.71 52C486.26 52.12 485.735 52.18 485.135 52.18C484.465 52.18 483.81 52.07 483.17 51.85C482.53 51.63 481.97 51.36 481.49 51.04L482.48 49.66ZM490.739 46.48C491.789 46.01 492.349 45.315 492.419 44.395C492.309 44.425 492.209 44.44 492.119 44.44C491.709 44.44 491.374 44.315 491.114 44.065C490.864 43.815 490.739 43.48 490.739 43.06C490.739 42.6 490.874 42.235 491.144 41.965C491.414 41.685 491.759 41.545 492.179 41.545C492.749 41.545 493.184 41.76 493.484 42.19C493.784 42.61 493.934 43.195 493.934 43.945C493.934 44.765 493.719 45.49 493.289 46.12C492.859 46.74 492.204 47.25 491.324 47.65L490.739 46.48ZM494.714 46.48C495.764 46.01 496.324 45.315 496.394 44.395C496.284 44.425 496.184 44.44 496.094 44.44C495.684 44.44 495.349 44.315 495.089 44.065C494.839 43.815 494.714 43.48 494.714 43.06C494.714 42.6 494.849 42.235 495.119 41.965C495.389 41.685 495.734 41.545 496.154 41.545C496.724 41.545 497.159 41.76 497.459 42.19C497.759 42.61 497.909 43.195 497.909 43.945C497.909 44.765 497.694 45.49 497.264 46.12C496.834 46.74 496.179 47.25 495.299 47.65L494.714 46.48Z" fill="#009E73"/>
<path d="M104.726 49.66C105.156 49.93 105.586 50.145 106.016 50.305C106.456 50.465 106.926 50.545 107.426 50.545C107.936 50.545 108.301 50.49 108.521 50.38C108.741 50.27 108.851 50.115 108.851 49.915C108.851 49.685 108.666 49.5 108.296 49.36C107.936 49.21 107.456 49.05 106.856 48.88C106.526 48.79 106.201 48.685 105.881 48.565C105.571 48.435 105.291 48.285 105.041 48.115C104.791 47.935 104.586 47.73 104.426 47.5C104.276 47.27 104.201 47.005 104.201 46.705C104.201 46.365 104.281 46.05 104.441 45.76C104.601 45.47 104.826 45.225 105.116 45.025C105.416 44.825 105.776 44.67 106.196 44.56C106.626 44.44 107.106 44.38 107.636 44.38C108.296 44.38 108.896 44.49 109.436 44.71C109.986 44.92 110.456 45.15 110.846 45.4L109.856 46.72C109.516 46.52 109.166 46.355 108.806 46.225C108.446 46.085 108.071 46.015 107.681 46.015C107.211 46.015 106.876 46.065 106.676 46.165C106.486 46.265 106.391 46.41 106.391 46.6C106.391 46.71 106.441 46.81 106.541 46.9C106.641 46.99 106.776 47.07 106.946 47.14C107.116 47.21 107.316 47.28 107.546 47.35C107.786 47.41 108.036 47.475 108.296 47.545C108.666 47.645 109.016 47.76 109.346 47.89C109.676 48.01 109.966 48.155 110.216 48.325C110.466 48.495 110.666 48.7 110.816 48.94C110.966 49.18 111.041 49.46 111.041 49.78C111.041 50.12 110.961 50.435 110.801 50.725C110.641 51.015 110.406 51.27 110.096 51.49C109.796 51.7 109.416 51.87 108.956 52C108.506 52.12 107.981 52.18 107.381 52.18C106.711 52.18 106.056 52.07 105.416 51.85C104.776 51.63 104.216 51.36 103.736 51.04L104.726 49.66ZM121.635 48.28C121.635 47.66 121.74 47.11 121.95 46.63C122.16 46.14 122.44 45.73 122.79 45.4C123.15 45.07 123.555 44.82 124.005 44.65C124.465 44.47 124.94 44.38 125.43 44.38C125.92 44.38 126.39 44.47 126.84 44.65C127.3 44.82 127.705 45.07 128.055 45.4C128.415 45.73 128.7 46.14 128.91 46.63C129.12 47.11 129.225 47.66 129.225 48.28C129.225 48.9 129.12 49.455 128.91 49.945C128.7 50.425 128.415 50.83 128.055 51.16C127.705 51.49 127.3 51.745 126.84 51.925C126.39 52.095 125.92 52.18 125.43 52.18C124.94 52.18 124.465 52.095 124.005 51.925C123.555 51.745 123.15 51.49 122.79 51.16C122.44 50.83 122.16 50.425 121.95 49.945C121.74 49.455 121.635 48.9 121.635 48.28ZM123.9 48.28C123.9 48.93 124.025 49.445 124.275 49.825C124.535 50.205 124.92 50.395 125.43 50.395C125.94 50.395 126.32 50.205 126.57 49.825C126.83 49.445 126.96 48.93 126.96 48.28C126.96 47.63 126.83 47.115 126.57 46.735C126.32 46.355 125.94 46.165 125.43 46.165C124.92 46.165 124.535 46.355 124.275 46.735C124.025 47.115 123.9 47.63 123.9 48.28ZM130.854 41.485H135.219V49.18C135.219 49.41 135.249 49.605 135.309 49.765C135.379 49.915 135.469 50.04 135.579 50.14C135.699 50.23 135.829 50.295 135.969 50.335C136.119 50.375 136.269 50.395 136.419 50.395C136.589 50.395 136.769 50.38 136.959 50.35C137.149 50.31 137.359 50.245 137.589 50.155L138.084 51.775C137.884 51.835 137.699 51.89 137.529 51.94C137.359 51.99 137.189 52.03 137.019 52.06C136.849 52.1 136.669 52.13 136.479 52.15C136.289 52.17 136.079 52.18 135.849 52.18C134.909 52.18 134.199 51.905 133.719 51.355C133.249 50.795 133.014 50.04 133.014 49.09V43.225H130.854V41.485ZM139.623 48.28C139.623 47.67 139.713 47.125 139.893 46.645C140.073 46.165 140.308 45.76 140.598 45.43C140.898 45.09 141.238 44.83 141.618 44.65C141.998 44.47 142.393 44.38 142.803 44.38C143.233 44.38 143.593 44.455 143.883 44.605C144.173 44.745 144.448 44.935 144.708 45.175L144.633 44.02V41.485H146.838V52H145.038L144.873 51.235H144.828C144.548 51.505 144.228 51.73 143.868 51.91C143.508 52.09 143.138 52.18 142.758 52.18C142.288 52.18 141.858 52.09 141.468 51.91C141.088 51.73 140.758 51.475 140.478 51.145C140.208 50.805 139.998 50.395 139.848 49.915C139.698 49.435 139.623 48.89 139.623 48.28ZM141.888 48.25C141.888 48.99 142.013 49.53 142.263 49.87C142.513 50.21 142.868 50.38 143.328 50.38C143.578 50.38 143.808 50.33 144.018 50.23C144.228 50.12 144.433 49.94 144.633 49.69V46.675C144.433 46.495 144.228 46.37 144.018 46.3C143.818 46.22 143.608 46.18 143.388 46.18C142.978 46.18 142.623 46.35 142.323 46.69C142.033 47.03 141.888 47.55 141.888 48.25ZM157.446 44.56H159.096L159.261 45.49H159.321C159.461 45.18 159.651 44.92 159.891 44.71C160.141 44.49 160.481 44.38 160.911 44.38C161.241 44.38 161.516 44.485 161.736 44.695C161.966 44.895 162.126 45.195 162.216 45.595C162.356 45.255 162.556 44.97 162.816 44.74C163.086 44.5 163.431 44.38 163.851 44.38C164.371 44.38 164.776 44.595 165.066 45.025C165.356 45.445 165.501 46.03 165.501 46.78V52H163.431V46.945C163.431 46.485 163.291 46.255 163.011 46.255C162.741 46.255 162.511 46.495 162.321 46.975V52H160.626V46.945C160.626 46.485 160.481 46.255 160.191 46.255C160.051 46.255 159.931 46.315 159.831 46.435C159.731 46.555 159.626 46.735 159.516 46.975V52H157.446V44.56ZM166.605 48.28C166.605 47.66 166.71 47.11 166.92 46.63C167.13 46.14 167.41 45.73 167.76 45.4C168.12 45.07 168.525 44.82 168.975 44.65C169.435 44.47 169.91 44.38 170.4 44.38C170.89 44.38 171.36 44.47 171.81 44.65C172.27 44.82 172.675 45.07 173.025 45.4C173.385 45.73 173.67 46.14 173.88 46.63C174.09 47.11 174.195 47.66 174.195 48.28C174.195 48.9 174.09 49.455 173.88 49.945C173.67 50.425 173.385 50.83 173.025 51.16C172.675 51.49 172.27 51.745 171.81 51.925C171.36 52.095 170.89 52.18 170.4 52.18C169.91 52.18 169.435 52.095 168.975 51.925C168.525 51.745 168.12 51.49 167.76 51.16C167.41 50.83 167.13 50.425 166.92 49.945C166.71 49.455 166.605 48.9 166.605 48.28ZM168.87 48.28C168.87 48.93 168.995 49.445 169.245 49.825C169.505 50.205 169.89 50.395 170.4 50.395C170.91 50.395 171.29 50.205 171.54 49.825C171.8 49.445 171.93 48.93 171.93 48.28C171.93 47.63 171.8 47.115 171.54 46.735C171.29 46.355 170.91 46.165 170.4 46.165C169.89 46.165 169.505 46.355 169.245 46.735C168.995 47.115 168.87 47.63 168.87 48.28ZM177.505 46.285H175.63V44.65L177.61 44.56L177.895 42.58H179.71V44.56H182.86V46.285H179.71V48.895C179.71 49.465 179.835 49.87 180.085 50.11C180.335 50.34 180.73 50.455 181.27 50.455C181.56 50.455 181.825 50.43 182.065 50.38C182.305 50.33 182.535 50.265 182.755 50.185L183.145 51.775C182.815 51.875 182.445 51.965 182.035 52.045C181.635 52.135 181.195 52.18 180.715 52.18C180.125 52.18 179.625 52.1 179.215 51.94C178.805 51.78 178.47 51.56 178.21 51.28C177.96 50.99 177.78 50.645 177.67 50.245C177.56 49.845 177.505 49.4 177.505 48.91V46.285ZM186.499 46.285H184.624V44.65L186.604 44.56L186.889 42.58H188.704V44.56H191.854V46.285H188.704V48.895C188.704 49.465 188.829 49.87 189.079 50.11C189.329 50.34 189.724 50.455 190.264 50.455C190.554 50.455 190.819 50.43 191.059 50.38C191.299 50.33 191.529 50.265 191.749 50.185L192.139 51.775C191.809 51.875 191.439 51.965 191.029 52.045C190.629 52.135 190.189 52.18 189.709 52.18C189.119 52.18 188.619 52.1 188.209 51.94C187.799 51.78 187.464 51.56 187.204 51.28C186.954 50.99 186.774 50.645 186.664 50.245C186.554 49.845 186.499 49.4 186.499 48.91V46.285ZM193.588 48.28C193.588 47.66 193.693 47.11 193.903 46.63C194.113 46.14 194.393 45.73 194.743 45.4C195.103 45.07 195.508 44.82 195.958 44.65C196.418 44.47 196.893 44.38 197.383 44.38C197.873 44.38 198.343 44.47 198.793 44.65C199.253 44.82 199.658 45.07 200.008 45.4C200.368 45.73 200.653 46.14 200.863 46.63C201.073 47.11 201.178 47.66 201.178 48.28C201.178 48.9 201.073 49.455 200.863 49.945C200.653 50.425 200.368 50.83 200.008 51.16C199.658 51.49 199.253 51.745 198.793 51.925C198.343 52.095 197.873 52.18 197.383 52.18C196.893 52.18 196.418 52.095 195.958 51.925C195.508 51.745 195.103 51.49 194.743 51.16C194.393 50.83 194.113 50.425 193.903 49.945C193.693 49.455 193.588 48.9 193.588 48.28ZM195.853 48.28C195.853 48.93 195.978 49.445 196.228 49.825C196.488 50.205 196.873 50.395 197.383 50.395C197.893 50.395 198.273 50.205 198.523 49.825C198.783 49.445 198.913 48.93 198.913 48.28C198.913 47.63 198.783 47.115 198.523 46.735C198.273 46.355 197.893 46.165 197.383 46.165C196.873 46.165 196.488 46.355 196.228 46.735C195.978 47.115 195.853 47.63 195.853 48.28ZM210.931 44.56H213.091L213.541 48.01C213.591 48.38 213.631 48.745 213.661 49.105C213.701 49.465 213.746 49.835 213.796 50.215H213.841C213.891 49.835 213.941 49.46 213.991 49.09C214.041 48.72 214.106 48.36 214.186 48.01L214.651 45.55H216.196L216.691 48.01C216.761 48.38 216.826 48.745 216.886 49.105C216.946 49.465 217.001 49.835 217.051 50.215H217.111C217.161 49.835 217.201 49.465 217.231 49.105C217.261 48.745 217.301 48.38 217.351 48.01L217.801 44.56H219.811L218.656 52H216.106L215.686 49.525C215.636 49.175 215.586 48.825 215.536 48.475C215.496 48.115 215.451 47.735 215.401 47.335H215.341C215.311 47.605 215.276 47.91 215.236 48.25C215.206 48.59 215.151 49.015 215.071 49.525L214.666 52H212.161L210.931 44.56ZM220.78 49.93C220.78 49.51 220.87 49.145 221.05 48.835C221.23 48.515 221.515 48.245 221.905 48.025C222.305 47.805 222.815 47.63 223.435 47.5C224.055 47.36 224.805 47.265 225.685 47.215C225.645 46.875 225.495 46.61 225.235 46.42C224.985 46.23 224.605 46.135 224.095 46.135C223.735 46.135 223.37 46.2 223 46.33C222.64 46.45 222.25 46.615 221.83 46.825L221.05 45.385C221.56 45.095 222.105 44.855 222.685 44.665C223.275 44.475 223.89 44.38 224.53 44.38C225.57 44.38 226.39 44.655 226.99 45.205C227.59 45.755 227.89 46.6 227.89 47.74V52H226.09L225.925 51.16H225.865C225.485 51.45 225.07 51.695 224.62 51.895C224.17 52.085 223.705 52.18 223.225 52.18C222.845 52.18 222.505 52.12 222.205 52C221.905 51.89 221.65 51.735 221.44 51.535C221.23 51.325 221.065 51.085 220.945 50.815C220.835 50.545 220.78 50.25 220.78 49.93ZM222.895 49.765C222.895 50.005 222.985 50.185 223.165 50.305C223.355 50.415 223.61 50.47 223.93 50.47C224.26 50.47 224.57 50.405 224.86 50.275C225.15 50.135 225.425 49.965 225.685 49.765V48.535C225.135 48.565 224.68 48.615 224.32 48.685C223.96 48.755 223.675 48.845 223.465 48.955C223.255 49.055 223.105 49.175 223.015 49.315C222.935 49.455 222.895 49.605 222.895 49.765ZM230.644 49.66C231.074 49.93 231.504 50.145 231.934 50.305C232.374 50.465 232.844 50.545 233.344 50.545C233.854 50.545 234.219 50.49 234.439 50.38C234.659 50.27 234.769 50.115 234.769 49.915C234.769 49.685 234.584 49.5 234.214 49.36C233.854 49.21 233.374 49.05 232.774 48.88C232.444 48.79 232.119 48.685 231.799 48.565C231.489 48.435 231.209 48.285 230.959 48.115C230.709 47.935 230.504 47.73 230.344 47.5C230.194 47.27 230.119 47.005 230.119 46.705C230.119 46.365 230.199 46.05 230.359 45.76C230.519 45.47 230.744 45.225 231.034 45.025C231.334 44.825 231.694 44.67 232.114 44.56C232.544 44.44 233.024 44.38 233.554 44.38C234.214 44.38 234.814 44.49 235.354 44.71C235.904 44.92 236.374 45.15 236.764 45.4L235.774 46.72C235.434 46.52 235.084 46.355 234.724 46.225C234.364 46.085 233.989 46.015 233.599 46.015C233.129 46.015 232.794 46.065 232.594 46.165C232.404 46.265 232.309 46.41 232.309 46.6C232.309 46.71 232.359 46.81 232.459 46.9C232.559 46.99 232.694 47.07 232.864 47.14C233.034 47.21 233.234 47.28 233.464 47.35C233.704 47.41 233.954 47.475 234.214 47.545C234.584 47.645 234.934 47.76 235.264 47.89C235.594 48.01 235.884 48.155 236.134 48.325C236.384 48.495 236.584 48.7 236.734 48.94C236.884 49.18 236.959 49.46 236.959 49.78C236.959 50.12 236.879 50.435 236.719 50.725C236.559 51.015 236.324 51.27 236.014 51.49C235.714 51.7 235.334 51.87 234.874 52C234.424 52.12 233.899 52.18 233.299 52.18C232.629 52.18 231.974 52.07 231.334 51.85C230.694 51.63 230.134 51.36 229.654 51.04L230.644 49.66ZM501.444 50.425C501.444 50.175 501.484 49.945 501.564 49.735C501.654 49.515 501.774 49.325 501.924 49.165C502.074 49.005 502.254 48.88 502.464 48.79C502.684 48.7 502.924 48.655 503.184 48.655C503.444 48.655 503.679 48.7 503.889 48.79C504.109 48.88 504.294 49.005 504.444 49.165C504.594 49.325 504.709 49.515 504.789 49.735C504.879 49.945 504.924 50.175 504.924 50.425C504.924 50.925 504.764 51.345 504.444 51.685C504.124 52.015 503.704 52.18 503.184 52.18C502.664 52.18 502.244 52.015 501.924 51.685C501.604 51.345 501.444 50.925 501.444 50.425ZM510.978 43.9L510.903 41.725H513.453L513.378 43.9L512.853 47.455H511.503L510.978 43.9Z" fill="white"/>
<rect x="97" width="432" height="31" fill="#333333"/>
<rect x="97" width="432" height="31" fill="#333333"/>
<rect width="97.1974" height="30.6018" fill="#090808"/>
<path d="M18.105 17.8101C18.105 17.5513 17.9756 17.3486 17.7168 17.2021C17.4629 17.0508 17.0527 16.9165 16.4863 16.7993C14.6016 16.4038 13.6592 15.603 13.6592 14.397C13.6592 13.6938 13.9497 13.1079 14.5308 12.6392C15.1167 12.1655 15.8809 11.9287 16.8232 11.9287C17.8291 11.9287 18.6323 12.1655 19.2329 12.6392C19.8384 13.1128 20.1411 13.728 20.1411 14.4849H18.0244C18.0244 14.1821 17.9268 13.9331 17.7314 13.7378C17.5361 13.5376 17.231 13.4375 16.8159 13.4375C16.4595 13.4375 16.1836 13.5181 15.9883 13.6792C15.793 13.8403 15.6953 14.0454 15.6953 14.2944C15.6953 14.5288 15.8052 14.7192 16.0249 14.8657C16.2495 15.0073 16.6255 15.1318 17.1528 15.2393C17.6802 15.3418 18.1245 15.459 18.4858 15.5908C19.604 16.001 20.1631 16.7114 20.1631 17.7222C20.1631 18.4448 19.853 19.0308 19.2329 19.48C18.6128 19.9243 17.812 20.1465 16.8306 20.1465C16.1665 20.1465 15.5757 20.0293 15.0581 19.7949C14.5454 19.5557 14.1426 19.231 13.8496 18.8208C13.5566 18.4058 13.4102 17.959 13.4102 17.4805H15.417C15.4365 17.8564 15.5757 18.1445 15.8345 18.3447C16.0933 18.5449 16.4399 18.645 16.8745 18.645C17.2798 18.645 17.585 18.5693 17.79 18.418C18 18.2617 18.105 18.0591 18.105 17.8101ZM24.8286 18.4399C25.2192 18.4399 25.5366 18.3325 25.7808 18.1177C26.0249 17.9028 26.1519 17.6172 26.1616 17.2607H28.1465C28.1416 17.7979 27.9951 18.291 27.707 18.7402C27.4189 19.1846 27.0234 19.5312 26.5205 19.7803C26.0225 20.0244 25.4707 20.1465 24.8652 20.1465C23.7324 20.1465 22.8389 19.7876 22.1846 19.0698C21.5303 18.3472 21.2031 17.3511 21.2031 16.0815V15.9424C21.2031 14.7217 21.5278 13.7476 22.1772 13.02C22.8267 12.2925 23.7178 11.9287 24.8506 11.9287C25.8418 11.9287 26.6353 12.2119 27.231 12.7783C27.8315 13.3398 28.1367 14.0894 28.1465 15.0269H26.1616C26.1519 14.6167 26.0249 14.2847 25.7808 14.0308C25.5366 13.772 25.2144 13.6426 24.814 13.6426C24.3208 13.6426 23.9473 13.8232 23.6934 14.1846C23.4443 14.541 23.3198 15.1221 23.3198 15.9277V16.1475C23.3198 16.9629 23.4443 17.5488 23.6934 17.9053C23.9424 18.2617 24.3208 18.4399 24.8286 18.4399ZM33.8081 14.0601C33.52 14.021 33.2661 14.0015 33.0464 14.0015C32.2456 14.0015 31.7207 14.2725 31.4717 14.8145V20H29.355V12.0752H31.3545L31.4131 13.02C31.8379 12.2925 32.4263 11.9287 33.1782 11.9287C33.4126 11.9287 33.6323 11.9604 33.8374 12.0239L33.8081 14.0601ZM37.0674 20H34.9434V12.0752H37.0674V20ZM34.8188 10.0244C34.8188 9.70703 34.9238 9.4458 35.1338 9.24072C35.3486 9.03564 35.6392 8.93311 36.0054 8.93311C36.3667 8.93311 36.6548 9.03564 36.8696 9.24072C37.0845 9.4458 37.1919 9.70703 37.1919 10.0244C37.1919 10.3467 37.082 10.6104 36.8623 10.8154C36.6475 11.0205 36.3618 11.123 36.0054 11.123C35.6489 11.123 35.3608 11.0205 35.1411 10.8154C34.9263 10.6104 34.8188 10.3467 34.8188 10.0244ZM45.9517 16.1108C45.9517 17.3315 45.6733 18.3105 45.1167 19.0479C44.5649 19.7803 43.8179 20.1465 42.8755 20.1465C42.0747 20.1465 41.4277 19.8682 40.9346 19.3115V23.0469H38.8179V12.0752H40.7808L40.854 12.8516C41.3667 12.2363 42.0356 11.9287 42.8608 11.9287C43.8374 11.9287 44.5967 12.29 45.1387 13.0127C45.6807 13.7354 45.9517 14.7314 45.9517 16.001V16.1108ZM43.835 15.957C43.835 15.2197 43.7031 14.6509 43.4395 14.2505C43.1807 13.8501 42.8022 13.6499 42.3042 13.6499C41.6401 13.6499 41.1836 13.9038 40.9346 14.4116V17.6562C41.1934 18.1787 41.6548 18.4399 42.3188 18.4399C43.3296 18.4399 43.835 17.6123 43.835 15.957ZM49.8042 10.127V12.0752H51.1592V13.6279H49.8042V17.583C49.8042 17.876 49.8604 18.0859 49.9727 18.2129C50.085 18.3398 50.2998 18.4033 50.6172 18.4033C50.8516 18.4033 51.0591 18.3862 51.2397 18.3521V19.9561C50.8247 20.083 50.3975 20.1465 49.958 20.1465C48.4736 20.1465 47.7168 19.397 47.6875 17.8979V13.6279H46.5303V12.0752H47.6875V10.127H49.8042ZM52.4482 18.96C52.4482 18.623 52.5605 18.3496 52.7852 18.1396C53.0146 17.9297 53.3003 17.8247 53.6421 17.8247C53.9888 17.8247 54.2744 17.9297 54.499 18.1396C54.7285 18.3496 54.8433 18.623 54.8433 18.96C54.8433 19.292 54.731 19.563 54.5063 19.7729C54.2817 19.978 53.9937 20.0806 53.6421 20.0806C53.2954 20.0806 53.0098 19.978 52.7852 19.7729C52.5605 19.563 52.4482 19.292 52.4482 18.96ZM63.8374 16.1108C63.8374 17.3315 63.5591 18.3105 63.0024 19.0479C62.4507 19.7803 61.7036 20.1465 60.7612 20.1465C59.9604 20.1465 59.3135 19.8682 58.8203 19.3115V23.0469H56.7036V12.0752H58.6665L58.7397 12.8516C59.2524 12.2363 59.9214 11.9287 60.7466 11.9287C61.7231 11.9287 62.4824 12.29 63.0244 13.0127C63.5664 13.7354 63.8374 14.7314 63.8374 16.001V16.1108ZM61.7207 15.957C61.7207 15.2197 61.5889 14.6509 61.3252 14.2505C61.0664 13.8501 60.688 13.6499 60.1899 13.6499C59.5259 13.6499 59.0693 13.9038 58.8203 14.4116V17.6562C59.0791 18.1787 59.5405 18.4399 60.2046 18.4399C61.2153 18.4399 61.7207 17.6123 61.7207 15.957ZM68.0269 17.0044L69.4917 12.0752H71.7622L68.5762 21.2305L68.4004 21.6479C67.9268 22.6831 67.1455 23.2007 66.0566 23.2007C65.749 23.2007 65.4365 23.1543 65.1191 23.0615V21.4575L65.4414 21.4648C65.8418 21.4648 66.1396 21.4038 66.335 21.2817C66.5352 21.1597 66.6914 20.957 66.8037 20.6738L67.0527 20.022L64.2769 12.0752H66.5547L68.0269 17.0044Z" fill="white"/>
<path d="M17.5303 51.4697C17.2374 51.1768 16.7626 51.1768 16.4697 51.4697L11.6967 56.2426C11.4038 56.5355 11.4038 57.0104 11.6967 57.3033C11.9896 57.5962 12.4645 57.5962 12.7574 57.3033L17 53.0607L21.2426 57.3033C21.5355 57.5962 22.0104 57.5962 22.3033 57.3033C22.5962 57.0104 22.5962 56.5355 22.3033 56.2426L17.5303 51.4697ZM17.75 82L17.75 52H16.25L16.25 82H17.75Z" fill="#F0E442"/>
<path d="M99.5303 51.4697C99.2374 51.1768 98.7626 51.1768 98.4697 51.4697L93.6967 56.2426C93.4038 56.5355 93.4038 57.0104 93.6967 57.3033C93.9896 57.5962 94.4645 57.5962 94.7574 57.3033L99 53.0607L103.243 57.3033C103.536 57.5962 104.01 57.5962 104.303 57.3033C104.596 57.0104 104.596 56.5355 104.303 56.2426L99.5303 51.4697ZM99.75 73V52H98.25V73H99.75Z" fill="#F0E442"/>
<path d="M13.606 87.4932H10.1782V97H8.7793V87.4932H5.35889V86.3359H13.606V87.4932ZM16.3306 90.0347C16.9312 89.2974 17.7124 88.9287 18.6743 88.9287C20.3491 88.9287 21.1938 89.8735 21.2085 91.7632V97H19.8535V91.7559C19.8486 91.1846 19.7168 90.7622 19.458 90.4888C19.2041 90.2153 18.8062 90.0786 18.2642 90.0786C17.8247 90.0786 17.439 90.1958 17.1069 90.4302C16.7749 90.6646 16.5161 90.9722 16.3306 91.353V97H14.9756V85.75H16.3306V90.0347ZM26.5259 97.1465C25.4517 97.1465 24.5776 96.7949 23.9038 96.0918C23.23 95.3838 22.8931 94.439 22.8931 93.2573V93.0083C22.8931 92.2222 23.042 91.5215 23.3398 90.9062C23.6426 90.2861 24.0625 89.8027 24.5996 89.4561C25.1416 89.1045 25.7275 88.9287 26.3574 88.9287C27.3877 88.9287 28.1885 89.2681 28.7598 89.9468C29.3311 90.6255 29.6167 91.5972 29.6167 92.8618V93.4258H24.248C24.2676 94.207 24.4946 94.8394 24.9292 95.3228C25.3687 95.8013 25.9253 96.0405 26.5991 96.0405C27.0776 96.0405 27.4829 95.9429 27.8149 95.7476C28.147 95.5522 28.4375 95.2935 28.6865 94.9712L29.5142 95.6157C28.8501 96.6362 27.854 97.1465 26.5259 97.1465ZM26.3574 90.042C25.8105 90.042 25.3516 90.2422 24.9805 90.6426C24.6094 91.0381 24.3799 91.5947 24.292 92.3125H28.2617V92.21C28.2227 91.5215 28.0371 90.9893 27.7051 90.6133C27.373 90.2324 26.9238 90.042 26.3574 90.042ZM39.5264 94.8979C39.5264 94.5317 39.3872 94.2485 39.1089 94.0483C38.8354 93.8433 38.3545 93.6675 37.666 93.521C36.9824 93.3745 36.438 93.1987 36.0327 92.9937C35.6323 92.7886 35.3345 92.5444 35.1392 92.2612C34.9487 91.978 34.8535 91.6411 34.8535 91.2505C34.8535 90.6011 35.127 90.0518 35.6738 89.6025C36.2256 89.1533 36.9287 88.9287 37.7832 88.9287C38.6816 88.9287 39.4092 89.1606 39.9658 89.6245C40.5273 90.0884 40.8081 90.6816 40.8081 91.4043H39.4458C39.4458 91.0332 39.2871 90.7134 38.9697 90.4448C38.6572 90.1763 38.2617 90.042 37.7832 90.042C37.29 90.042 36.9043 90.1494 36.626 90.3643C36.3477 90.5791 36.2085 90.8599 36.2085 91.2065C36.2085 91.5337 36.3379 91.7803 36.5967 91.9463C36.8555 92.1123 37.3218 92.271 37.9956 92.4224C38.6743 92.5737 39.2236 92.7544 39.6436 92.9644C40.0635 93.1743 40.3735 93.4282 40.5737 93.7261C40.7788 94.019 40.8813 94.3779 40.8813 94.8027C40.8813 95.5107 40.5981 96.0796 40.0317 96.5093C39.4653 96.9341 38.7305 97.1465 37.8271 97.1465C37.1924 97.1465 36.6309 97.0342 36.1426 96.8096C35.6543 96.585 35.271 96.2725 34.9927 95.8721C34.7192 95.4668 34.5825 95.0298 34.5825 94.561H35.9375C35.9619 95.0151 36.1426 95.3765 36.4795 95.645C36.8213 95.9087 37.2705 96.0405 37.8271 96.0405C38.3398 96.0405 38.75 95.938 39.0576 95.7329C39.3701 95.5229 39.5264 95.2446 39.5264 94.8979ZM44.4849 87.1562V89.0752H45.9644V90.1226H44.4849V95.0371C44.4849 95.3545 44.5508 95.5938 44.6826 95.7549C44.8145 95.9111 45.0391 95.9893 45.3564 95.9893C45.5127 95.9893 45.7275 95.96 46.001 95.9014V97C45.6445 97.0977 45.2979 97.1465 44.9609 97.1465C44.3555 97.1465 43.8989 96.9634 43.5913 96.5972C43.2837 96.231 43.1299 95.7109 43.1299 95.0371V90.1226H41.687V89.0752H43.1299V87.1562H44.4849ZM51.3843 90.291C51.1792 90.2568 50.957 90.2397 50.7178 90.2397C49.8291 90.2397 49.2261 90.6182 48.9087 91.375V97H47.5537V89.0752H48.8721L48.894 89.9907C49.3384 89.2827 49.9683 88.9287 50.7837 88.9287C51.0474 88.9287 51.2476 88.9629 51.3843 89.0312V90.291ZM54.1089 97H52.7539V89.0752H54.1089V97ZM52.644 86.9731C52.644 86.7534 52.71 86.5679 52.8418 86.4165C52.9785 86.2651 53.1787 86.1895 53.4424 86.1895C53.7061 86.1895 53.9062 86.2651 54.043 86.4165C54.1797 86.5679 54.248 86.7534 54.248 86.9731C54.248 87.1929 54.1797 87.376 54.043 87.5225C53.9062 87.6689 53.7061 87.7422 53.4424 87.7422C53.1787 87.7422 52.9785 87.6689 52.8418 87.5225C52.71 87.376 52.644 87.1929 52.644 86.9731ZM57.5659 89.0752L57.6099 90.0713C58.2153 89.3096 59.0063 88.9287 59.9829 88.9287C61.6577 88.9287 62.5024 89.8735 62.5171 91.7632V97H61.1621V91.7559C61.1572 91.1846 61.0254 90.7622 60.7666 90.4888C60.5127 90.2153 60.1147 90.0786 59.5728 90.0786C59.1333 90.0786 58.7476 90.1958 58.4155 90.4302C58.0835 90.6646 57.8247 90.9722 57.6392 91.353V97H56.2842V89.0752H57.5659ZM64.2383 92.9717C64.2383 91.7363 64.5239 90.7549 65.0952 90.0273C65.6665 89.2949 66.4233 88.9287 67.3657 88.9287C68.3325 88.9287 69.0869 89.2705 69.6289 89.9541L69.6948 89.0752H70.9326V96.8096C70.9326 97.835 70.6274 98.6431 70.0171 99.2339C69.4116 99.8247 68.5962 100.12 67.5708 100.12C66.9995 100.12 66.4404 99.998 65.8936 99.7539C65.3467 99.5098 64.9292 99.1753 64.6411 98.7505L65.3442 97.9375C65.9253 98.6553 66.6357 99.0142 67.4756 99.0142C68.1348 99.0142 68.6475 98.8286 69.0137 98.4575C69.3848 98.0864 69.5703 97.564 69.5703 96.8901V96.209C69.0283 96.834 68.2886 97.1465 67.3511 97.1465C66.4233 97.1465 65.6714 96.7729 65.0952 96.0259C64.5239 95.2788 64.2383 94.2607 64.2383 92.9717ZM65.6006 93.1255C65.6006 94.019 65.7837 94.7222 66.1499 95.2349C66.5161 95.7427 67.0288 95.9966 67.688 95.9966C68.5425 95.9966 69.1699 95.6084 69.5703 94.832V91.2139C69.1553 90.457 68.5327 90.0786 67.7026 90.0786C67.0435 90.0786 66.5283 90.335 66.1572 90.8477C65.7861 91.3604 65.6006 92.1196 65.6006 93.1255ZM10.105 111.81C10.105 111.551 9.97559 111.349 9.7168 111.202C9.46289 111.051 9.05273 110.917 8.48633 110.799C6.60156 110.404 5.65918 109.603 5.65918 108.397C5.65918 107.694 5.94971 107.108 6.53076 106.639C7.1167 106.166 7.88086 105.929 8.82324 105.929C9.8291 105.929 10.6323 106.166 11.2329 106.639C11.8384 107.113 12.1411 107.728 12.1411 108.485H10.0244C10.0244 108.182 9.92676 107.933 9.73145 107.738C9.53613 107.538 9.23096 107.438 8.81592 107.438C8.45947 107.438 8.18359 107.518 7.98828 107.679C7.79297 107.84 7.69531 108.045 7.69531 108.294C7.69531 108.529 7.80518 108.719 8.0249 108.866C8.24951 109.007 8.62549 109.132 9.15283 109.239C9.68018 109.342 10.1245 109.459 10.4858 109.591C11.604 110.001 12.1631 110.711 12.1631 111.722C12.1631 112.445 11.853 113.031 11.2329 113.48C10.6128 113.924 9.81201 114.146 8.83057 114.146C8.1665 114.146 7.57568 114.029 7.05811 113.795C6.54541 113.556 6.14258 113.231 5.84961 112.821C5.55664 112.406 5.41016 111.959 5.41016 111.48H7.41699C7.43652 111.856 7.57568 112.145 7.83447 112.345C8.09326 112.545 8.43994 112.645 8.87451 112.645C9.27979 112.645 9.58496 112.569 9.79004 112.418C10 112.262 10.105 112.059 10.105 111.81ZM16.0669 104.127V106.075H17.4219V107.628H16.0669V111.583C16.0669 111.876 16.123 112.086 16.2354 112.213C16.3477 112.34 16.5625 112.403 16.8799 112.403C17.1143 112.403 17.3218 112.386 17.5024 112.352V113.956C17.0874 114.083 16.6602 114.146 16.2207 114.146C14.7363 114.146 13.9795 113.397 13.9502 111.898V107.628H12.793V106.075H13.9502V104.127H16.0669ZM23.1934 114C23.0957 113.81 23.0249 113.573 22.981 113.29C22.4683 113.861 21.8018 114.146 20.9814 114.146C20.2051 114.146 19.5605 113.922 19.0479 113.473C18.54 113.023 18.2861 112.457 18.2861 111.773C18.2861 110.934 18.5962 110.289 19.2163 109.84C19.8413 109.391 20.7422 109.164 21.9189 109.159H22.8931V108.705C22.8931 108.338 22.7979 108.045 22.6074 107.826C22.4219 107.606 22.1265 107.496 21.7212 107.496C21.3647 107.496 21.084 107.582 20.8789 107.752C20.6787 107.923 20.5786 108.158 20.5786 108.456H18.4619C18.4619 107.997 18.6035 107.572 18.8867 107.181C19.1699 106.791 19.5703 106.485 20.0879 106.266C20.6055 106.041 21.1865 105.929 21.8311 105.929C22.8076 105.929 23.5815 106.175 24.1528 106.668C24.729 107.157 25.0171 107.845 25.0171 108.734V112.169C25.022 112.921 25.127 113.49 25.332 113.875V114H23.1934ZM21.4429 112.528C21.7554 112.528 22.0435 112.459 22.3071 112.323C22.5708 112.181 22.7661 111.993 22.8931 111.759V110.396H22.1021C21.0425 110.396 20.4785 110.763 20.4102 111.495L20.4028 111.62C20.4028 111.883 20.4956 112.101 20.6812 112.271C20.8667 112.442 21.1206 112.528 21.4429 112.528ZM31.0962 108.06C30.8081 108.021 30.5542 108.001 30.3345 108.001C29.5337 108.001 29.0088 108.272 28.7598 108.814V114H26.6431V106.075H28.6426L28.7012 107.02C29.126 106.292 29.7144 105.929 30.4663 105.929C30.7007 105.929 30.9204 105.96 31.1255 106.024L31.0962 108.06ZM35.022 104.127V106.075H36.377V107.628H35.022V111.583C35.022 111.876 35.0781 112.086 35.1904 112.213C35.3027 112.34 35.5176 112.403 35.835 112.403C36.0693 112.403 36.2769 112.386 36.4575 112.352V113.956C36.0425 114.083 35.6152 114.146 35.1758 114.146C33.6914 114.146 32.9346 113.397 32.9053 111.898V107.628H31.748V106.075H32.9053V104.127H35.022ZM41.8481 111.81C41.8481 111.551 41.7188 111.349 41.46 111.202C41.2061 111.051 40.7959 110.917 40.2295 110.799C38.3447 110.404 37.4023 109.603 37.4023 108.397C37.4023 107.694 37.6929 107.108 38.2739 106.639C38.8599 106.166 39.624 105.929 40.5664 105.929C41.5723 105.929 42.3755 106.166 42.9761 106.639C43.5815 107.113 43.8843 107.728 43.8843 108.485H41.7676C41.7676 108.182 41.6699 107.933 41.4746 107.738C41.2793 107.538 40.9741 107.438 40.5591 107.438C40.2026 107.438 39.9268 107.518 39.7314 107.679C39.5361 107.84 39.4385 108.045 39.4385 108.294C39.4385 108.529 39.5483 108.719 39.7681 108.866C39.9927 109.007 40.3687 109.132 40.896 109.239C41.4233 109.342 41.8677 109.459 42.229 109.591C43.3472 110.001 43.9062 110.711 43.9062 111.722C43.9062 112.445 43.5962 113.031 42.9761 113.48C42.356 113.924 41.5552 114.146 40.5737 114.146C39.9097 114.146 39.3188 114.029 38.8013 113.795C38.2886 113.556 37.8857 113.231 37.5928 112.821C37.2998 112.406 37.1533 111.959 37.1533 111.48H39.1602C39.1797 111.856 39.3188 112.145 39.5776 112.345C39.8364 112.545 40.1831 112.645 40.6177 112.645C41.0229 112.645 41.3281 112.569 41.5332 112.418C41.7432 112.262 41.8481 112.059 41.8481 111.81ZM50.564 107.035C51.1646 106.297 51.9458 105.929 52.9077 105.929C54.5825 105.929 55.4272 106.874 55.4419 108.763V114H54.0869V108.756C54.082 108.185 53.9502 107.762 53.6914 107.489C53.4375 107.215 53.0396 107.079 52.4976 107.079C52.0581 107.079 51.6724 107.196 51.3403 107.43C51.0083 107.665 50.7495 107.972 50.564 108.353V114H49.209V102.75H50.564V107.035ZM60.7593 114.146C59.6851 114.146 58.811 113.795 58.1372 113.092C57.4634 112.384 57.1265 111.439 57.1265 110.257V110.008C57.1265 109.222 57.2754 108.521 57.5732 107.906C57.876 107.286 58.2959 106.803 58.833 106.456C59.375 106.104 59.9609 105.929 60.5908 105.929C61.6211 105.929 62.4219 106.268 62.9932 106.947C63.5645 107.625 63.8501 108.597 63.8501 109.862V110.426H58.4814C58.501 111.207 58.728 111.839 59.1626 112.323C59.6021 112.801 60.1587 113.041 60.8325 113.041C61.311 113.041 61.7163 112.943 62.0483 112.748C62.3804 112.552 62.6709 112.293 62.9199 111.971L63.7476 112.616C63.0835 113.636 62.0874 114.146 60.7593 114.146ZM60.5908 107.042C60.0439 107.042 59.585 107.242 59.2139 107.643C58.8428 108.038 58.6133 108.595 58.5254 109.312H62.4951V109.21C62.4561 108.521 62.2705 107.989 61.9385 107.613C61.6064 107.232 61.1572 107.042 60.5908 107.042ZM69.2554 107.291C69.0503 107.257 68.8281 107.24 68.5889 107.24C67.7002 107.24 67.0972 107.618 66.7798 108.375V114H65.4248V106.075H66.7432L66.7651 106.991C67.2095 106.283 67.8394 105.929 68.6548 105.929C68.9185 105.929 69.1187 105.963 69.2554 106.031V107.291ZM73.6499 114.146C72.5757 114.146 71.7017 113.795 71.0278 113.092C70.354 112.384 70.0171 111.439 70.0171 110.257V110.008C70.0171 109.222 70.166 108.521 70.4639 107.906C70.7666 107.286 71.1865 106.803 71.7236 106.456C72.2656 106.104 72.8516 105.929 73.4814 105.929C74.5117 105.929 75.3125 106.268 75.8838 106.947C76.4551 107.625 76.7407 108.597 76.7407 109.862V110.426H71.3721C71.3916 111.207 71.6187 111.839 72.0532 112.323C72.4927 112.801 73.0493 113.041 73.7231 113.041C74.2017 113.041 74.6069 112.943 74.939 112.748C75.271 112.552 75.5615 112.293 75.8105 111.971L76.6382 112.616C75.9741 113.636 74.978 114.146 73.6499 114.146ZM73.4814 107.042C72.9346 107.042 72.4756 107.242 72.1045 107.643C71.7334 108.038 71.5039 108.595 71.416 109.312H75.3857V109.21C75.3467 108.521 75.1611 107.989 74.8291 107.613C74.4971 107.232 74.0479 107.042 73.4814 107.042Z" fill="#F0E442"/>
<path d="M127.627 87.4932H124.199V97H122.8V87.4932H119.38V86.3359H127.627V87.4932ZM130.352 90.0347C130.952 89.2974 131.733 88.9287 132.695 88.9287C134.37 88.9287 135.215 89.8735 135.229 91.7632V97H133.875V91.7559C133.87 91.1846 133.738 90.7622 133.479 90.4888C133.225 90.2153 132.827 90.0786 132.285 90.0786C131.846 90.0786 131.46 90.1958 131.128 90.4302C130.796 90.6646 130.537 90.9722 130.352 91.353V97H128.997V85.75H130.352V90.0347ZM140.547 97.1465C139.473 97.1465 138.599 96.7949 137.925 96.0918C137.251 95.3838 136.914 94.439 136.914 93.2573V93.0083C136.914 92.2222 137.063 91.5215 137.361 90.9062C137.664 90.2861 138.083 89.8027 138.621 89.4561C139.163 89.1045 139.749 88.9287 140.378 88.9287C141.409 88.9287 142.209 89.2681 142.781 89.9468C143.352 90.6255 143.638 91.5972 143.638 92.8618V93.4258H138.269C138.289 94.207 138.516 94.8394 138.95 95.3228C139.39 95.8013 139.946 96.0405 140.62 96.0405C141.099 96.0405 141.504 95.9429 141.836 95.7476C142.168 95.5522 142.458 95.2935 142.708 94.9712L143.535 95.6157C142.871 96.6362 141.875 97.1465 140.547 97.1465ZM140.378 90.042C139.832 90.042 139.373 90.2422 139.001 90.6426C138.63 91.0381 138.401 91.5947 138.313 92.3125H142.283V92.21C142.244 91.5215 142.058 90.9893 141.726 90.6133C141.394 90.2324 140.945 90.042 140.378 90.042ZM153.547 94.8979C153.547 94.5317 153.408 94.2485 153.13 94.0483C152.856 93.8433 152.375 93.6675 151.687 93.521C151.003 93.3745 150.459 93.1987 150.054 92.9937C149.653 92.7886 149.355 92.5444 149.16 92.2612C148.97 91.978 148.875 91.6411 148.875 91.2505C148.875 90.6011 149.148 90.0518 149.695 89.6025C150.247 89.1533 150.95 88.9287 151.804 88.9287C152.703 88.9287 153.43 89.1606 153.987 89.6245C154.548 90.0884 154.829 90.6816 154.829 91.4043H153.467C153.467 91.0332 153.308 90.7134 152.991 90.4448C152.678 90.1763 152.283 90.042 151.804 90.042C151.311 90.042 150.925 90.1494 150.647 90.3643C150.369 90.5791 150.229 90.8599 150.229 91.2065C150.229 91.5337 150.359 91.7803 150.618 91.9463C150.876 92.1123 151.343 92.271 152.017 92.4224C152.695 92.5737 153.245 92.7544 153.665 92.9644C154.084 93.1743 154.395 93.4282 154.595 93.7261C154.8 94.019 154.902 94.3779 154.902 94.8027C154.902 95.5107 154.619 96.0796 154.053 96.5093C153.486 96.9341 152.751 97.1465 151.848 97.1465C151.213 97.1465 150.652 97.0342 150.164 96.8096C149.675 96.585 149.292 96.2725 149.014 95.8721C148.74 95.4668 148.604 95.0298 148.604 94.561H149.958C149.983 95.0151 150.164 95.3765 150.5 95.645C150.842 95.9087 151.292 96.0405 151.848 96.0405C152.361 96.0405 152.771 95.938 153.079 95.7329C153.391 95.5229 153.547 95.2446 153.547 94.8979ZM158.506 87.1562V89.0752H159.985V90.1226H158.506V95.0371C158.506 95.3545 158.572 95.5938 158.704 95.7549C158.835 95.9111 159.06 95.9893 159.377 95.9893C159.534 95.9893 159.749 95.96 160.022 95.9014V97C159.666 97.0977 159.319 97.1465 158.982 97.1465C158.376 97.1465 157.92 96.9634 157.612 96.5972C157.305 96.231 157.151 95.7109 157.151 95.0371V90.1226H155.708V89.0752H157.151V87.1562H158.506ZM165.405 90.291C165.2 90.2568 164.978 90.2397 164.739 90.2397C163.85 90.2397 163.247 90.6182 162.93 91.375V97H161.575V89.0752H162.893L162.915 89.9907C163.359 89.2827 163.989 88.9287 164.805 88.9287C165.068 88.9287 165.269 88.9629 165.405 89.0312V90.291ZM168.13 97H166.775V89.0752H168.13V97ZM166.665 86.9731C166.665 86.7534 166.731 86.5679 166.863 86.4165C167 86.2651 167.2 86.1895 167.463 86.1895C167.727 86.1895 167.927 86.2651 168.064 86.4165C168.201 86.5679 168.269 86.7534 168.269 86.9731C168.269 87.1929 168.201 87.376 168.064 87.5225C167.927 87.6689 167.727 87.7422 167.463 87.7422C167.2 87.7422 167 87.6689 166.863 87.5225C166.731 87.376 166.665 87.1929 166.665 86.9731ZM171.587 89.0752L171.631 90.0713C172.236 89.3096 173.027 88.9287 174.004 88.9287C175.679 88.9287 176.523 89.8735 176.538 91.7632V97H175.183V91.7559C175.178 91.1846 175.046 90.7622 174.788 90.4888C174.534 90.2153 174.136 90.0786 173.594 90.0786C173.154 90.0786 172.769 90.1958 172.437 90.4302C172.104 90.6646 171.846 90.9722 171.66 91.353V97H170.305V89.0752H171.587ZM178.259 92.9717C178.259 91.7363 178.545 90.7549 179.116 90.0273C179.688 89.2949 180.444 88.9287 181.387 88.9287C182.354 88.9287 183.108 89.2705 183.65 89.9541L183.716 89.0752H184.954V96.8096C184.954 97.835 184.648 98.6431 184.038 99.2339C183.433 99.8247 182.617 100.12 181.592 100.12C181.021 100.12 180.461 99.998 179.915 99.7539C179.368 99.5098 178.95 99.1753 178.662 98.7505L179.365 97.9375C179.946 98.6553 180.657 99.0142 181.497 99.0142C182.156 99.0142 182.668 98.8286 183.035 98.4575C183.406 98.0864 183.591 97.564 183.591 96.8901V96.209C183.049 96.834 182.31 97.1465 181.372 97.1465C180.444 97.1465 179.692 96.7729 179.116 96.0259C178.545 95.2788 178.259 94.2607 178.259 92.9717ZM179.622 93.1255C179.622 94.019 179.805 94.7222 180.171 95.2349C180.537 95.7427 181.05 95.9966 181.709 95.9966C182.563 95.9966 183.191 95.6084 183.591 94.832V91.2139C183.176 90.457 182.554 90.0786 181.724 90.0786C181.064 90.0786 180.549 90.335 180.178 90.8477C179.807 91.3604 179.622 92.1196 179.622 93.1255ZM124.199 114.146C123.037 114.146 122.09 113.79 121.357 113.077C120.63 112.364 120.266 111.415 120.266 110.228V110.023C120.266 109.227 120.42 108.517 120.728 107.892C121.035 107.262 121.47 106.778 122.031 106.441C122.598 106.1 123.242 105.929 123.965 105.929C125.049 105.929 125.901 106.271 126.521 106.954C127.146 107.638 127.458 108.607 127.458 109.862V110.726H122.412C122.48 111.244 122.686 111.659 123.027 111.971C123.374 112.284 123.811 112.44 124.338 112.44C125.154 112.44 125.791 112.145 126.25 111.554L127.29 112.718C126.973 113.167 126.543 113.519 126.001 113.773C125.459 114.022 124.858 114.146 124.199 114.146ZM123.958 107.643C123.538 107.643 123.196 107.784 122.932 108.067C122.673 108.351 122.507 108.756 122.434 109.283H125.378V109.115C125.369 108.646 125.242 108.285 124.998 108.031C124.753 107.772 124.407 107.643 123.958 107.643ZM130.615 106.075L130.681 106.991C131.248 106.283 132.007 105.929 132.959 105.929C133.799 105.929 134.424 106.175 134.834 106.668C135.244 107.162 135.454 107.899 135.464 108.88V114H133.347V108.932C133.347 108.482 133.25 108.158 133.054 107.958C132.859 107.752 132.534 107.65 132.08 107.65C131.484 107.65 131.038 107.904 130.74 108.412V114H128.623V106.075H130.615ZM136.746 109.979C136.746 108.744 137.021 107.76 137.573 107.027C138.13 106.295 138.889 105.929 139.851 105.929C140.623 105.929 141.26 106.217 141.763 106.793V102.75H143.887V114H141.975L141.873 113.158C141.345 113.817 140.667 114.146 139.836 114.146C138.904 114.146 138.154 113.78 137.588 113.048C137.026 112.311 136.746 111.288 136.746 109.979ZM138.862 110.133C138.862 110.875 138.992 111.444 139.25 111.839C139.509 112.235 139.885 112.433 140.378 112.433C141.033 112.433 141.494 112.157 141.763 111.605V108.478C141.499 107.926 141.042 107.65 140.393 107.65C139.373 107.65 138.862 108.478 138.862 110.133ZM149.819 111.81C149.819 111.551 149.69 111.349 149.431 111.202C149.177 111.051 148.767 110.917 148.201 110.799C146.316 110.404 145.374 109.603 145.374 108.397C145.374 107.694 145.664 107.108 146.245 106.639C146.831 106.166 147.595 105.929 148.538 105.929C149.543 105.929 150.347 106.166 150.947 106.639C151.553 107.113 151.855 107.728 151.855 108.485H149.739C149.739 108.182 149.641 107.933 149.446 107.738C149.25 107.538 148.945 107.438 148.53 107.438C148.174 107.438 147.898 107.518 147.703 107.679C147.507 107.84 147.41 108.045 147.41 108.294C147.41 108.529 147.52 108.719 147.739 108.866C147.964 109.007 148.34 109.132 148.867 109.239C149.395 109.342 149.839 109.459 150.2 109.591C151.318 110.001 151.877 110.711 151.877 111.722C151.877 112.445 151.567 113.031 150.947 113.48C150.327 113.924 149.526 114.146 148.545 114.146C147.881 114.146 147.29 114.029 146.772 113.795C146.26 113.556 145.857 113.231 145.564 112.821C145.271 112.406 145.125 111.959 145.125 111.48H147.131C147.151 111.856 147.29 112.145 147.549 112.345C147.808 112.545 148.154 112.645 148.589 112.645C148.994 112.645 149.299 112.569 149.504 112.418C149.714 112.262 149.819 112.059 149.819 111.81ZM158.535 107.035C159.136 106.297 159.917 105.929 160.879 105.929C162.554 105.929 163.398 106.874 163.413 108.763V114H162.058V108.756C162.053 108.185 161.921 107.762 161.663 107.489C161.409 107.215 161.011 107.079 160.469 107.079C160.029 107.079 159.644 107.196 159.312 107.43C158.979 107.665 158.721 107.972 158.535 108.353V114H157.18V102.75H158.535V107.035ZM168.73 114.146C167.656 114.146 166.782 113.795 166.108 113.092C165.435 112.384 165.098 111.439 165.098 110.257V110.008C165.098 109.222 165.247 108.521 165.544 107.906C165.847 107.286 166.267 106.803 166.804 106.456C167.346 106.104 167.932 105.929 168.562 105.929C169.592 105.929 170.393 106.268 170.964 106.947C171.536 107.625 171.821 108.597 171.821 109.862V110.426H166.453C166.472 111.207 166.699 111.839 167.134 112.323C167.573 112.801 168.13 113.041 168.804 113.041C169.282 113.041 169.688 112.943 170.02 112.748C170.352 112.552 170.642 112.293 170.891 111.971L171.719 112.616C171.055 113.636 170.059 114.146 168.73 114.146ZM168.562 107.042C168.015 107.042 167.556 107.242 167.185 107.643C166.814 108.038 166.584 108.595 166.497 109.312H170.466V109.21C170.427 108.521 170.242 107.989 169.91 107.613C169.578 107.232 169.128 107.042 168.562 107.042ZM177.227 107.291C177.021 107.257 176.799 107.24 176.56 107.24C175.671 107.24 175.068 107.618 174.751 108.375V114H173.396V106.075H174.714L174.736 106.991C175.181 106.283 175.811 105.929 176.626 105.929C176.89 105.929 177.09 105.963 177.227 106.031V107.291ZM181.621 114.146C180.547 114.146 179.673 113.795 178.999 113.092C178.325 112.384 177.988 111.439 177.988 110.257V110.008C177.988 109.222 178.137 108.521 178.435 107.906C178.738 107.286 179.158 106.803 179.695 106.456C180.237 106.104 180.823 105.929 181.453 105.929C182.483 105.929 183.284 106.268 183.855 106.947C184.426 107.625 184.712 108.597 184.712 109.862V110.426H179.343C179.363 111.207 179.59 111.839 180.024 112.323C180.464 112.801 181.021 113.041 181.694 113.041C182.173 113.041 182.578 112.943 182.91 112.748C183.242 112.552 183.533 112.293 183.782 111.971L184.609 112.616C183.945 113.636 182.949 114.146 181.621 114.146ZM181.453 107.042C180.906 107.042 180.447 107.242 180.076 107.643C179.705 108.038 179.475 108.595 179.387 109.312H183.357V109.21C183.318 108.521 183.132 107.989 182.8 107.613C182.468 107.232 182.019 107.042 181.453 107.042Z" fill="#F0E442"/>
<line x1="99" y1="72.25" x2="142" y2="72.25" stroke="#F0E442" stroke-width="1.5"/>
<line x1="141.25" y1="86" x2="141.25" y2="73" stroke="#F0E442" stroke-width="1.5"/>
</svg>
