<svg width="242" height="138" viewBox="0 0 242 138" fill="none" xmlns="http://www.w3.org/2000/svg">
<rect width="242" height="138" fill="white"/>
<rect width="242" height="138" fill="black"/>
<path d="M7.87 122.74C8.55 122.17 9.17 121.64 9.73 121.15C10.29 120.65 10.77 120.185 11.17 119.755C11.57 119.325 11.88 118.92 12.1 118.54C12.32 118.16 12.43 117.8 12.43 117.46C12.43 116.99 12.295 116.635 12.025 116.395C11.755 116.145 11.37 116.02 10.87 116.02C10.49 116.02 10.14 116.12 9.82 116.32C9.51 116.51 9.22 116.735 8.95 116.995L7.765 115.81C8.015 115.56 8.26 115.34 8.5 115.15C8.75 114.96 9.01 114.805 9.28 114.685C9.56 114.555 9.85 114.46 10.15 114.4C10.46 114.33 10.8 114.295 11.17 114.295C11.67 114.295 12.125 114.37 12.535 114.52C12.945 114.66 13.295 114.865 13.585 115.135C13.885 115.395 14.115 115.71 14.275 116.08C14.445 116.45 14.53 116.865 14.53 117.325C14.53 117.725 14.435 118.135 14.245 118.555C14.055 118.965 13.795 119.38 13.465 119.8C13.145 120.21 12.775 120.625 12.355 121.045C11.935 121.455 11.495 121.86 11.035 122.26C11.305 122.23 11.595 122.205 11.905 122.185C12.225 122.155 12.51 122.14 12.76 122.14H15.025V124H7.87V122.74ZM20.4941 124.18C19.9441 124.18 19.4441 124.075 18.9941 123.865C18.5441 123.645 18.1591 123.325 17.8391 122.905C17.5191 122.485 17.2691 121.965 17.0891 121.345C16.9191 120.725 16.8341 120.01 16.8341 119.2C16.8341 118.39 16.9191 117.68 17.0891 117.07C17.2691 116.46 17.5191 115.95 17.8391 115.54C18.1591 115.12 18.5441 114.81 18.9941 114.61C19.4441 114.4 19.9441 114.295 20.4941 114.295C21.0441 114.295 21.5441 114.4 21.9941 114.61C22.4441 114.81 22.8291 115.12 23.1491 115.54C23.4691 115.95 23.7141 116.46 23.8841 117.07C24.0641 117.68 24.1541 118.39 24.1541 119.2C24.1541 120.01 24.0641 120.725 23.8841 121.345C23.7141 121.965 23.4691 122.485 23.1491 122.905C22.8291 123.325 22.4441 123.645 21.9941 123.865C21.5441 124.075 21.0441 124.18 20.4941 124.18ZM20.4941 116.005C20.2541 116.005 20.0291 116.055 19.8191 116.155C19.6191 116.255 19.4441 116.43 19.2941 116.68C19.1441 116.92 19.0241 117.245 18.9341 117.655C18.8441 118.065 18.7991 118.58 18.7991 119.2C18.7991 119.82 18.8441 120.34 18.9341 120.76C19.0241 121.17 19.1441 121.505 19.2941 121.765C19.4441 122.015 19.6191 122.195 19.8191 122.305C20.0291 122.415 20.2541 122.47 20.4941 122.47C20.7341 122.47 20.9541 122.415 21.1541 122.305C21.3641 122.195 21.5441 122.015 21.6941 121.765C21.8441 121.505 21.9641 121.17 22.0541 120.76C22.1441 120.34 22.1891 119.82 22.1891 119.2C22.1891 118.58 22.1441 118.065 22.0541 117.655C21.9641 117.245 21.8441 116.92 21.6941 116.68C21.5441 116.43 21.3641 116.255 21.1541 116.155C20.9541 116.055 20.7341 116.005 20.4941 116.005ZM20.4941 120.31C20.1741 120.31 19.9041 120.21 19.6841 120.01C19.4741 119.8 19.3691 119.52 19.3691 119.17C19.3691 118.82 19.4741 118.545 19.6841 118.345C19.9041 118.135 20.1741 118.03 20.4941 118.03C20.8141 118.03 21.0791 118.135 21.2891 118.345C21.5091 118.545 21.6191 118.82 21.6191 119.17C21.6191 119.52 21.5091 119.8 21.2891 120.01C21.0791 120.21 20.8141 120.31 20.4941 120.31Z" fill="white"/>
<path d="M11.5 105.18C10.92 105.18 10.385 105.065 9.895 104.835C9.415 104.595 9 104.255 8.65 103.815C8.31 103.375 8.045 102.84 7.855 102.21C7.665 101.58 7.57 100.865 7.57 100.065C7.57 99.265 7.665 98.555 7.855 97.935C8.045 97.305 8.31 96.78 8.65 96.36C9 95.93 9.415 95.605 9.895 95.385C10.385 95.155 10.92 95.04 11.5 95.04C12.08 95.04 12.61 95.155 13.09 95.385C13.58 95.605 13.995 95.93 14.335 96.36C14.685 96.79 14.955 97.32 15.145 97.95C15.335 98.57 15.43 99.275 15.43 100.065C15.43 100.865 15.335 101.58 15.145 102.21C14.955 102.84 14.685 103.375 14.335 103.815C13.995 104.255 13.58 104.595 13.09 104.835C12.61 105.065 12.08 105.18 11.5 105.18ZM11.5 103.275C12.01 103.275 12.415 102.99 12.715 102.42C13.015 101.84 13.165 101.055 13.165 100.065C13.165 99.085 13.015 98.32 12.715 97.77C12.415 97.22 12.01 96.945 11.5 96.945C10.99 96.945 10.585 97.22 10.285 97.77C9.985 98.32 9.835 99.085 9.835 100.065C9.835 101.055 9.985 101.84 10.285 102.42C10.585 102.99 10.99 103.275 11.5 103.275ZM23.8691 105H22.0691L21.9041 103.935H21.8441C21.5141 104.315 21.1491 104.62 20.7491 104.85C20.3491 105.07 19.8791 105.18 19.3391 105.18C18.4891 105.18 17.8741 104.91 17.4941 104.37C17.1141 103.83 16.9241 103.09 16.9241 102.15V97.56H19.1291V101.865C19.1291 102.365 19.2041 102.73 19.3541 102.96C19.5041 103.19 19.7891 103.305 20.2091 103.305C20.4891 103.305 20.7341 103.245 20.9441 103.125C21.1641 103.005 21.4041 102.78 21.6641 102.45V97.56H23.8691V105ZM27.5983 99.285H25.7233V97.65L27.7033 97.56L27.9883 95.58H29.8033V97.56H32.9533V99.285H29.8033V101.895C29.8033 102.465 29.9283 102.87 30.1783 103.11C30.4283 103.34 30.8233 103.455 31.3633 103.455C31.6533 103.455 31.9183 103.43 32.1583 103.38C32.3983 103.33 32.6283 103.265 32.8483 103.185L33.2383 104.775C32.9083 104.875 32.5383 104.965 32.1283 105.045C31.7283 105.135 31.2883 105.18 30.8083 105.18C30.2183 105.18 29.7183 105.1 29.3083 104.94C28.8983 104.78 28.5633 104.56 28.3033 104.28C28.0533 103.99 27.8733 103.645 27.7633 103.245C27.6533 102.845 27.5983 102.4 27.5983 101.91V99.285ZM37.2674 105.585V107.76H35.0624V97.56H36.8624L37.0274 98.31H37.0724C37.3724 98.04 37.7174 97.82 38.1074 97.65C38.4974 97.47 38.8924 97.38 39.2924 97.38C39.7524 97.38 40.1674 97.47 40.5374 97.65C40.9074 97.83 41.2224 98.085 41.4824 98.415C41.7424 98.745 41.9374 99.145 42.0674 99.615C42.2074 100.075 42.2774 100.59 42.2774 101.16C42.2774 101.8 42.1874 102.37 42.0074 102.87C41.8274 103.36 41.5874 103.78 41.2874 104.13C40.9874 104.47 40.6424 104.73 40.2524 104.91C39.8724 105.09 39.4724 105.18 39.0524 105.18C38.3724 105.18 37.7524 104.91 37.1924 104.37L37.2674 105.585ZM37.2674 102.885C37.4774 103.065 37.6924 103.195 37.9124 103.275C38.1424 103.345 38.3524 103.38 38.5424 103.38C38.9624 103.38 39.3124 103.21 39.5924 102.87C39.8724 102.52 40.0124 101.96 40.0124 101.19C40.0124 99.85 39.5574 99.18 38.6474 99.18C38.1774 99.18 37.7174 99.41 37.2674 99.87V102.885ZM50.8516 105H49.0516L48.8866 103.935H48.8266C48.4966 104.315 48.1316 104.62 47.7316 104.85C47.3316 105.07 46.8616 105.18 46.3216 105.18C45.4716 105.18 44.8566 104.91 44.4766 104.37C44.0966 103.83 43.9066 103.09 43.9066 102.15V97.56H46.1116V101.865C46.1116 102.365 46.1866 102.73 46.3366 102.96C46.4866 103.19 46.7716 103.305 47.1916 103.305C47.4716 103.305 47.7166 103.245 47.9266 103.125C48.1466 103.005 48.3866 102.78 48.6466 102.45V97.56H50.8516V105ZM54.5807 99.285H52.7057V97.65L54.6857 97.56L54.9707 95.58H56.7857V97.56H59.9357V99.285H56.7857V101.895C56.7857 102.465 56.9107 102.87 57.1607 103.11C57.4107 103.34 57.8057 103.455 58.3457 103.455C58.6357 103.455 58.9007 103.43 59.1407 103.38C59.3807 103.33 59.6107 103.265 59.8307 103.185L60.2207 104.775C59.8907 104.875 59.5207 104.965 59.1107 105.045C58.7107 105.135 58.2707 105.18 57.7907 105.18C57.2007 105.18 56.7007 105.1 56.2907 104.94C55.8807 104.78 55.5457 104.56 55.2857 104.28C55.0357 103.99 54.8557 103.645 54.7457 103.245C54.6357 102.845 54.5807 102.4 54.5807 101.91V99.285Z" fill="white"/>
<rect x="96.75" width="145.25" height="30.6018" fill="#333333"/>
<rect x="96.75" width="145.25" height="30.6018" fill="#333333"/>
<rect width="97.1974" height="30.6018" fill="#090808"/>
<path d="M18.105 17.8101C18.105 17.5513 17.9756 17.3486 17.7168 17.2021C17.4629 17.0508 17.0527 16.9165 16.4863 16.7993C14.6016 16.4038 13.6592 15.603 13.6592 14.397C13.6592 13.6938 13.9497 13.1079 14.5308 12.6392C15.1167 12.1655 15.8809 11.9287 16.8232 11.9287C17.8291 11.9287 18.6323 12.1655 19.2329 12.6392C19.8384 13.1128 20.1411 13.728 20.1411 14.4849H18.0244C18.0244 14.1821 17.9268 13.9331 17.7314 13.7378C17.5361 13.5376 17.231 13.4375 16.8159 13.4375C16.4595 13.4375 16.1836 13.5181 15.9883 13.6792C15.793 13.8403 15.6953 14.0454 15.6953 14.2944C15.6953 14.5288 15.8052 14.7192 16.0249 14.8657C16.2495 15.0073 16.6255 15.1318 17.1528 15.2393C17.6802 15.3418 18.1245 15.459 18.4858 15.5908C19.604 16.001 20.1631 16.7114 20.1631 17.7222C20.1631 18.4448 19.853 19.0308 19.2329 19.48C18.6128 19.9243 17.812 20.1465 16.8306 20.1465C16.1665 20.1465 15.5757 20.0293 15.0581 19.7949C14.5454 19.5557 14.1426 19.231 13.8496 18.8208C13.5566 18.4058 13.4102 17.959 13.4102 17.4805H15.417C15.4365 17.8564 15.5757 18.1445 15.8345 18.3447C16.0933 18.5449 16.4399 18.645 16.8745 18.645C17.2798 18.645 17.585 18.5693 17.79 18.418C18 18.2617 18.105 18.0591 18.105 17.8101ZM24.8286 18.4399C25.2192 18.4399 25.5366 18.3325 25.7808 18.1177C26.0249 17.9028 26.1519 17.6172 26.1616 17.2607H28.1465C28.1416 17.7979 27.9951 18.291 27.707 18.7402C27.4189 19.1846 27.0234 19.5312 26.5205 19.7803C26.0225 20.0244 25.4707 20.1465 24.8652 20.1465C23.7324 20.1465 22.8389 19.7876 22.1846 19.0698C21.5303 18.3472 21.2031 17.3511 21.2031 16.0815V15.9424C21.2031 14.7217 21.5278 13.7476 22.1772 13.02C22.8267 12.2925 23.7178 11.9287 24.8506 11.9287C25.8418 11.9287 26.6353 12.2119 27.231 12.7783C27.8315 13.3398 28.1367 14.0894 28.1465 15.0269H26.1616C26.1519 14.6167 26.0249 14.2847 25.7808 14.0308C25.5366 13.772 25.2144 13.6426 24.814 13.6426C24.3208 13.6426 23.9473 13.8232 23.6934 14.1846C23.4443 14.541 23.3198 15.1221 23.3198 15.9277V16.1475C23.3198 16.9629 23.4443 17.5488 23.6934 17.9053C23.9424 18.2617 24.3208 18.4399 24.8286 18.4399ZM33.8081 14.0601C33.52 14.021 33.2661 14.0015 33.0464 14.0015C32.2456 14.0015 31.7207 14.2725 31.4717 14.8145V20H29.355V12.0752H31.3545L31.4131 13.02C31.8379 12.2925 32.4263 11.9287 33.1782 11.9287C33.4126 11.9287 33.6323 11.9604 33.8374 12.0239L33.8081 14.0601ZM37.0674 20H34.9434V12.0752H37.0674V20ZM34.8188 10.0244C34.8188 9.70703 34.9238 9.4458 35.1338 9.24072C35.3486 9.03564 35.6392 8.93311 36.0054 8.93311C36.3667 8.93311 36.6548 9.03564 36.8696 9.24072C37.0845 9.4458 37.1919 9.70703 37.1919 10.0244C37.1919 10.3467 37.082 10.6104 36.8623 10.8154C36.6475 11.0205 36.3618 11.123 36.0054 11.123C35.6489 11.123 35.3608 11.0205 35.1411 10.8154C34.9263 10.6104 34.8188 10.3467 34.8188 10.0244ZM45.9517 16.1108C45.9517 17.3315 45.6733 18.3105 45.1167 19.0479C44.5649 19.7803 43.8179 20.1465 42.8755 20.1465C42.0747 20.1465 41.4277 19.8682 40.9346 19.3115V23.0469H38.8179V12.0752H40.7808L40.854 12.8516C41.3667 12.2363 42.0356 11.9287 42.8608 11.9287C43.8374 11.9287 44.5967 12.29 45.1387 13.0127C45.6807 13.7354 45.9517 14.7314 45.9517 16.001V16.1108ZM43.835 15.957C43.835 15.2197 43.7031 14.6509 43.4395 14.2505C43.1807 13.8501 42.8022 13.6499 42.3042 13.6499C41.6401 13.6499 41.1836 13.9038 40.9346 14.4116V17.6562C41.1934 18.1787 41.6548 18.4399 42.3188 18.4399C43.3296 18.4399 43.835 17.6123 43.835 15.957ZM49.8042 10.127V12.0752H51.1592V13.6279H49.8042V17.583C49.8042 17.876 49.8604 18.0859 49.9727 18.2129C50.085 18.3398 50.2998 18.4033 50.6172 18.4033C50.8516 18.4033 51.0591 18.3862 51.2397 18.3521V19.9561C50.8247 20.083 50.3975 20.1465 49.958 20.1465C48.4736 20.1465 47.7168 19.397 47.6875 17.8979V13.6279H46.5303V12.0752H47.6875V10.127H49.8042ZM52.4482 18.96C52.4482 18.623 52.5605 18.3496 52.7852 18.1396C53.0146 17.9297 53.3003 17.8247 53.6421 17.8247C53.9888 17.8247 54.2744 17.9297 54.499 18.1396C54.7285 18.3496 54.8433 18.623 54.8433 18.96C54.8433 19.292 54.731 19.563 54.5063 19.7729C54.2817 19.978 53.9937 20.0806 53.6421 20.0806C53.2954 20.0806 53.0098 19.978 52.7852 19.7729C52.5605 19.563 52.4482 19.292 52.4482 18.96ZM63.8374 16.1108C63.8374 17.3315 63.5591 18.3105 63.0024 19.0479C62.4507 19.7803 61.7036 20.1465 60.7612 20.1465C59.9604 20.1465 59.3135 19.8682 58.8203 19.3115V23.0469H56.7036V12.0752H58.6665L58.7397 12.8516C59.2524 12.2363 59.9214 11.9287 60.7466 11.9287C61.7231 11.9287 62.4824 12.29 63.0244 13.0127C63.5664 13.7354 63.8374 14.7314 63.8374 16.001V16.1108ZM61.7207 15.957C61.7207 15.2197 61.5889 14.6509 61.3252 14.2505C61.0664 13.8501 60.688 13.6499 60.1899 13.6499C59.5259 13.6499 59.0693 13.9038 58.8203 14.4116V17.6562C59.0791 18.1787 59.5405 18.4399 60.2046 18.4399C61.2153 18.4399 61.7207 17.6123 61.7207 15.957ZM68.0269 17.0044L69.4917 12.0752H71.7622L68.5762 21.2305L68.4004 21.6479C67.9268 22.6831 67.1455 23.2007 66.0566 23.2007C65.749 23.2007 65.4365 23.1543 65.1191 23.0615V21.4575L65.4414 21.4648C65.8418 21.4648 66.1396 21.4038 66.335 21.2817C66.5352 21.1597 66.6914 20.957 66.8037 20.6738L67.0527 20.022L64.2769 12.0752H66.5547L68.0269 17.0044Z" fill="white"/>
<line y1="84.5" x2="242" y2="84.5" stroke="white"/>
<path d="M8.74 43.56H10.54L10.72 45.18H10.765C11.135 44.57 11.58 44.12 12.1 43.83C12.62 43.53 13.18 43.38 13.78 43.38C14.11 43.38 14.375 43.405 14.575 43.455C14.785 43.505 15 43.58 15.22 43.68L14.77 45.525C14.54 45.455 14.33 45.405 14.14 45.375C13.96 45.335 13.73 45.315 13.45 45.315C12.99 45.315 12.535 45.45 12.085 45.72C11.645 45.99 11.265 46.46 10.945 47.13V51H8.74V43.56ZM16.8191 47.28C16.8191 46.67 16.9241 46.125 17.1341 45.645C17.3541 45.165 17.6441 44.76 18.0041 44.43C18.3641 44.09 18.7741 43.83 19.2341 43.65C19.7041 43.47 20.1891 43.38 20.6891 43.38C21.2591 43.38 21.7641 43.47 22.2041 43.65C22.6441 43.83 23.0091 44.08 23.2991 44.4C23.5891 44.72 23.8091 45.1 23.9591 45.54C24.1091 45.97 24.1841 46.44 24.1841 46.95C24.1841 47.15 24.1741 47.34 24.1541 47.52C24.1341 47.7 24.1141 47.835 24.0941 47.925H19.0841C19.1641 48.485 19.4041 48.89 19.8041 49.14C20.2141 49.38 20.6941 49.5 21.2441 49.5C21.5841 49.5 21.9041 49.46 22.2041 49.38C22.5141 49.29 22.8341 49.16 23.1641 48.99L23.8841 50.31C23.4641 50.58 22.9941 50.795 22.4741 50.955C21.9541 51.105 21.4441 51.18 20.9441 51.18C20.3641 51.18 19.8241 51.095 19.3241 50.925C18.8241 50.745 18.3891 50.49 18.0191 50.16C17.6491 49.82 17.3541 49.41 17.1341 48.93C16.9241 48.45 16.8191 47.9 16.8191 47.28ZM22.1891 46.47C22.1891 46.05 22.0741 45.71 21.8441 45.45C21.6141 45.19 21.2441 45.06 20.7341 45.06C20.3341 45.06 19.9791 45.175 19.6691 45.405C19.3591 45.635 19.1541 45.99 19.0541 46.47H22.1891ZM26.7733 48.66C27.2033 48.93 27.6333 49.145 28.0633 49.305C28.5033 49.465 28.9733 49.545 29.4733 49.545C29.9833 49.545 30.3483 49.49 30.5683 49.38C30.7883 49.27 30.8983 49.115 30.8983 48.915C30.8983 48.685 30.7133 48.5 30.3433 48.36C29.9833 48.21 29.5033 48.05 28.9033 47.88C28.5733 47.79 28.2483 47.685 27.9283 47.565C27.6183 47.435 27.3383 47.285 27.0883 47.115C26.8383 46.935 26.6333 46.73 26.4733 46.5C26.3233 46.27 26.2483 46.005 26.2483 45.705C26.2483 45.365 26.3283 45.05 26.4883 44.76C26.6483 44.47 26.8733 44.225 27.1633 44.025C27.4633 43.825 27.8233 43.67 28.2433 43.56C28.6733 43.44 29.1533 43.38 29.6833 43.38C30.3433 43.38 30.9433 43.49 31.4833 43.71C32.0333 43.92 32.5033 44.15 32.8933 44.4L31.9033 45.72C31.5633 45.52 31.2133 45.355 30.8533 45.225C30.4933 45.085 30.1183 45.015 29.7283 45.015C29.2583 45.015 28.9233 45.065 28.7233 45.165C28.5333 45.265 28.4383 45.41 28.4383 45.6C28.4383 45.71 28.4883 45.81 28.5883 45.9C28.6883 45.99 28.8233 46.07 28.9933 46.14C29.1633 46.21 29.3633 46.28 29.5933 46.35C29.8333 46.41 30.0833 46.475 30.3433 46.545C30.7133 46.645 31.0633 46.76 31.3933 46.89C31.7233 47.01 32.0133 47.155 32.2633 47.325C32.5133 47.495 32.7133 47.7 32.8633 47.94C33.0133 48.18 33.0883 48.46 33.0883 48.78C33.0883 49.12 33.0083 49.435 32.8483 49.725C32.6883 50.015 32.4533 50.27 32.1433 50.49C31.8433 50.7 31.4633 50.87 31.0033 51C30.5533 51.12 30.0283 51.18 29.4283 51.18C28.7583 51.18 28.1033 51.07 27.4633 50.85C26.8233 50.63 26.2633 50.36 25.7833 50.04L26.7733 48.66ZM41.8574 51H40.0574L39.8924 49.935H39.8324C39.5024 50.315 39.1374 50.62 38.7374 50.85C38.3374 51.07 37.8674 51.18 37.3274 51.18C36.4774 51.18 35.8624 50.91 35.4824 50.37C35.1024 49.83 34.9124 49.09 34.9124 48.15V43.56H37.1174V47.865C37.1174 48.365 37.1924 48.73 37.3424 48.96C37.4924 49.19 37.7774 49.305 38.1974 49.305C38.4774 49.305 38.7224 49.245 38.9324 49.125C39.1524 49.005 39.3924 48.78 39.6524 48.45V43.56H41.8574V51ZM43.9066 40.485H48.2716V48.18C48.2716 48.41 48.3016 48.605 48.3616 48.765C48.4316 48.915 48.5216 49.04 48.6316 49.14C48.7516 49.23 48.8816 49.295 49.0216 49.335C49.1716 49.375 49.3216 49.395 49.4716 49.395C49.6416 49.395 49.8216 49.38 50.0116 49.35C50.2016 49.31 50.4116 49.245 50.6416 49.155L51.1366 50.775C50.9366 50.835 50.7516 50.89 50.5816 50.94C50.4116 50.99 50.2416 51.03 50.0716 51.06C49.9016 51.1 49.7216 51.13 49.5316 51.15C49.3416 51.17 49.1316 51.18 48.9016 51.18C47.9616 51.18 47.2516 50.905 46.7716 50.355C46.3016 49.795 46.0666 49.04 46.0666 48.09V42.225H43.9066V40.485ZM54.5807 45.285H52.7057V43.65L54.6857 43.56L54.9707 41.58H56.7857V43.56H59.9357V45.285H56.7857V47.895C56.7857 48.465 56.9107 48.87 57.1607 49.11C57.4107 49.34 57.8057 49.455 58.3457 49.455C58.6357 49.455 58.9007 49.43 59.1407 49.38C59.3807 49.33 59.6107 49.265 59.8307 49.185L60.2207 50.775C59.8907 50.875 59.5207 50.965 59.1107 51.045C58.7107 51.135 58.2707 51.18 57.7907 51.18C57.2007 51.18 56.7007 51.1 56.2907 50.94C55.8807 50.78 55.5457 50.56 55.2857 50.28C55.0357 49.99 54.8557 49.645 54.7457 49.245C54.6357 48.845 54.5807 48.4 54.5807 47.91V45.285ZM93.8273 53.685C92.8473 52.815 92.0723 51.81 91.5023 50.67C90.9423 49.53 90.6623 48.25 90.6623 46.83C90.6623 45.41 90.9423 44.13 91.5023 42.99C92.0723 41.85 92.8473 40.845 93.8273 39.975L95.0573 40.95C94.1673 41.82 93.5173 42.725 93.1073 43.665C92.7073 44.595 92.5073 45.65 92.5073 46.83C92.5073 47.42 92.5573 47.98 92.6573 48.51C92.7573 49.03 92.9073 49.53 93.1073 50.01C93.3173 50.49 93.5823 50.95 93.9023 51.39C94.2223 51.84 94.6073 52.28 95.0573 52.71L93.8273 53.685ZM118.62 46.83H115.98V45.27H118.62V42.51H120.24V45.27H122.88V46.83H120.24V49.59H118.62V46.83ZM143.802 52.71C144.252 52.28 144.637 51.84 144.957 51.39C145.277 50.95 145.537 50.49 145.737 50.01C145.947 49.53 146.102 49.03 146.202 48.51C146.302 47.98 146.352 47.42 146.352 46.83C146.352 45.65 146.147 44.595 145.737 43.665C145.337 42.725 144.692 41.82 143.802 40.95L145.032 39.975C146.012 40.845 146.782 41.85 147.342 42.99C147.912 44.13 148.197 45.41 148.197 46.83C148.197 48.25 147.912 49.53 147.342 50.67C146.782 51.81 146.012 52.815 145.032 53.685L143.802 52.71ZM161.7 48.975L163.155 46.62L160.86 45.6L161.205 44.535L163.635 45.18L163.815 42.51H164.985L165.165 45.18L167.595 44.535L167.94 45.6L165.645 46.62L167.1 48.975L166.14 49.635L164.4 47.505L162.66 49.635L161.7 48.975ZM57.8507 72.685C56.8707 71.815 56.0957 70.81 55.5257 69.67C54.9657 68.53 54.6857 67.25 54.6857 65.83C54.6857 64.41 54.9657 63.13 55.5257 61.99C56.0957 60.85 56.8707 59.845 57.8507 58.975L59.0807 59.95C58.1907 60.82 57.5407 61.725 57.1307 62.665C56.7307 63.595 56.5307 64.65 56.5307 65.83C56.5307 66.42 56.5807 66.98 56.6807 67.51C56.7807 68.03 56.9307 68.53 57.1307 69.01C57.3407 69.49 57.6057 69.95 57.9257 70.39C58.2457 70.84 58.6307 71.28 59.0807 71.71L57.8507 72.685ZM62.7048 62.56H64.5048L64.6848 64.18H64.7298C65.0998 63.57 65.5448 63.12 66.0648 62.83C66.5848 62.53 67.1448 62.38 67.7448 62.38C68.0748 62.38 68.3398 62.405 68.5398 62.455C68.7498 62.505 68.9648 62.58 69.1848 62.68L68.7348 64.525C68.5048 64.455 68.2948 64.405 68.1048 64.375C67.9248 64.335 67.6948 64.315 67.4148 64.315C66.9548 64.315 66.4998 64.45 66.0498 64.72C65.6098 64.99 65.2298 65.46 64.9098 66.13V70H62.7048V62.56ZM70.784 66.28C70.784 65.67 70.889 65.125 71.099 64.645C71.319 64.165 71.609 63.76 71.969 63.43C72.329 63.09 72.739 62.83 73.199 62.65C73.669 62.47 74.154 62.38 74.654 62.38C75.224 62.38 75.729 62.47 76.169 62.65C76.609 62.83 76.974 63.08 77.264 63.4C77.554 63.72 77.774 64.1 77.924 64.54C78.074 64.97 78.149 65.44 78.149 65.95C78.149 66.15 78.139 66.34 78.119 66.52C78.099 66.7 78.079 66.835 78.059 66.925H73.049C73.129 67.485 73.369 67.89 73.769 68.14C74.179 68.38 74.659 68.5 75.209 68.5C75.549 68.5 75.869 68.46 76.169 68.38C76.479 68.29 76.799 68.16 77.129 67.99L77.849 69.31C77.429 69.58 76.959 69.795 76.439 69.955C75.919 70.105 75.409 70.18 74.909 70.18C74.329 70.18 73.789 70.095 73.289 69.925C72.789 69.745 72.354 69.49 71.984 69.16C71.614 68.82 71.319 68.41 71.099 67.93C70.889 67.45 70.784 66.9 70.784 66.28ZM76.154 65.47C76.154 65.05 76.039 64.71 75.809 64.45C75.579 64.19 75.209 64.06 74.699 64.06C74.299 64.06 73.944 64.175 73.634 64.405C73.324 64.635 73.119 64.99 73.019 65.47H76.154ZM80.7381 67.66C81.1681 67.93 81.5981 68.145 82.0281 68.305C82.4681 68.465 82.9381 68.545 83.4381 68.545C83.9481 68.545 84.3131 68.49 84.5331 68.38C84.7531 68.27 84.8631 68.115 84.8631 67.915C84.8631 67.685 84.6781 67.5 84.3081 67.36C83.9481 67.21 83.4681 67.05 82.8681 66.88C82.5381 66.79 82.2131 66.685 81.8931 66.565C81.5831 66.435 81.3031 66.285 81.0531 66.115C80.8031 65.935 80.5981 65.73 80.4381 65.5C80.2881 65.27 80.2131 65.005 80.2131 64.705C80.2131 64.365 80.2931 64.05 80.4531 63.76C80.6131 63.47 80.8381 63.225 81.1281 63.025C81.4281 62.825 81.7881 62.67 82.2081 62.56C82.6381 62.44 83.1181 62.38 83.6481 62.38C84.3081 62.38 84.9081 62.49 85.4481 62.71C85.9981 62.92 86.4681 63.15 86.8581 63.4L85.8681 64.72C85.5281 64.52 85.1781 64.355 84.8181 64.225C84.4581 64.085 84.0831 64.015 83.6931 64.015C83.2231 64.015 82.8881 64.065 82.6881 64.165C82.4981 64.265 82.4031 64.41 82.4031 64.6C82.4031 64.71 82.4531 64.81 82.5531 64.9C82.6531 64.99 82.7881 65.07 82.9581 65.14C83.1281 65.21 83.3281 65.28 83.5581 65.35C83.7981 65.41 84.0481 65.475 84.3081 65.545C84.6781 65.645 85.0281 65.76 85.3581 65.89C85.6881 66.01 85.9781 66.155 86.2281 66.325C86.4781 66.495 86.6781 66.7 86.8281 66.94C86.9781 67.18 87.0531 67.46 87.0531 67.78C87.0531 68.12 86.9731 68.435 86.8131 68.725C86.6531 69.015 86.4181 69.27 86.1081 69.49C85.8081 69.7 85.4281 69.87 84.9681 70C84.5181 70.12 83.9931 70.18 83.3931 70.18C82.7231 70.18 82.0681 70.07 81.4281 69.85C80.7881 69.63 80.2281 69.36 79.7481 69.04L80.7381 67.66ZM95.8223 70H94.0223L93.8573 68.935H93.7973C93.4673 69.315 93.1023 69.62 92.7023 69.85C92.3023 70.07 91.8323 70.18 91.2923 70.18C90.4423 70.18 89.8273 69.91 89.4473 69.37C89.0673 68.83 88.8773 68.09 88.8773 67.15V62.56H91.0823V66.865C91.0823 67.365 91.1573 67.73 91.3073 67.96C91.4573 68.19 91.7423 68.305 92.1623 68.305C92.4423 68.305 92.6873 68.245 92.8973 68.125C93.1173 68.005 93.3573 67.78 93.6173 67.45V62.56H95.8223V70ZM97.8714 59.485H102.236V67.18C102.236 67.41 102.266 67.605 102.326 67.765C102.396 67.915 102.486 68.04 102.596 68.14C102.716 68.23 102.846 68.295 102.986 68.335C103.136 68.375 103.286 68.395 103.436 68.395C103.606 68.395 103.786 68.38 103.976 68.35C104.166 68.31 104.376 68.245 104.606 68.155L105.101 69.775C104.901 69.835 104.716 69.89 104.546 69.94C104.376 69.99 104.206 70.03 104.036 70.06C103.866 70.1 103.686 70.13 103.496 70.15C103.306 70.17 103.096 70.18 102.866 70.18C101.926 70.18 101.216 69.905 100.736 69.355C100.266 68.795 100.031 68.04 100.031 67.09V61.225H97.8714V59.485ZM108.546 64.285H106.671V62.65L108.651 62.56L108.936 60.58H110.751V62.56H113.901V64.285H110.751V66.895C110.751 67.465 110.876 67.87 111.126 68.11C111.376 68.34 111.771 68.455 112.311 68.455C112.601 68.455 112.866 68.43 113.106 68.38C113.346 68.33 113.576 68.265 113.796 68.185L114.186 69.775C113.856 69.875 113.486 69.965 113.076 70.045C112.676 70.135 112.236 70.18 111.756 70.18C111.166 70.18 110.666 70.1 110.256 69.94C109.846 69.78 109.511 69.56 109.251 69.28C109.001 68.99 108.821 68.645 108.711 68.245C108.601 67.845 108.546 67.4 108.546 66.91V64.285ZM116.82 71.71C117.27 71.28 117.655 70.84 117.975 70.39C118.295 69.95 118.555 69.49 118.755 69.01C118.965 68.53 119.12 68.03 119.22 67.51C119.32 66.98 119.37 66.42 119.37 65.83C119.37 64.65 119.165 63.595 118.755 62.665C118.355 61.725 117.71 60.82 116.82 59.95L118.05 58.975C119.03 59.845 119.8 60.85 120.36 61.99C120.93 63.13 121.215 64.41 121.215 65.83C121.215 67.25 120.93 68.53 120.36 69.67C119.8 70.81 119.03 71.815 118.05 72.685L116.82 71.71Z" fill="white"/>
<path d="M10.285 70.585V72.76H8.08V62.56H9.88L10.045 63.31H10.09C10.39 63.04 10.735 62.82 11.125 62.65C11.515 62.47 11.91 62.38 12.31 62.38C12.77 62.38 13.185 62.47 13.555 62.65C13.925 62.83 14.24 63.085 14.5 63.415C14.76 63.745 14.955 64.145 15.085 64.615C15.225 65.075 15.295 65.59 15.295 66.16C15.295 66.8 15.205 67.37 15.025 67.87C14.845 68.36 14.605 68.78 14.305 69.13C14.005 69.47 13.66 69.73 13.27 69.91C12.89 70.09 12.49 70.18 12.07 70.18C11.39 70.18 10.77 69.91 10.21 69.37L10.285 70.585ZM10.285 67.885C10.495 68.065 10.71 68.195 10.93 68.275C11.16 68.345 11.37 68.38 11.56 68.38C11.98 68.38 12.33 68.21 12.61 67.87C12.89 67.52 13.03 66.96 13.03 66.19C13.03 64.85 12.575 64.18 11.665 64.18C11.195 64.18 10.735 64.41 10.285 64.87V67.885ZM17.7341 62.56H19.5341L19.7141 64.18H19.7591C20.1291 63.57 20.5741 63.12 21.0941 62.83C21.6141 62.53 22.1741 62.38 22.7741 62.38C23.1041 62.38 23.3691 62.405 23.5691 62.455C23.7791 62.505 23.9941 62.58 24.2141 62.68L23.7641 64.525C23.5341 64.455 23.3241 64.405 23.1341 64.375C22.9541 64.335 22.7241 64.315 22.4441 64.315C21.9841 64.315 21.5291 64.45 21.0791 64.72C20.6391 64.99 20.2591 65.46 19.9391 66.13V70H17.7341V62.56ZM26.1733 62.56H31.3633V70H29.1583V64.285H26.1733V62.56ZM30.1633 61.465C29.7333 61.465 29.3783 61.345 29.0983 61.105C28.8283 60.865 28.6933 60.54 28.6933 60.13C28.6933 59.72 28.8283 59.39 29.0983 59.14C29.3783 58.88 29.7333 58.75 30.1633 58.75C30.5933 58.75 30.9433 58.88 31.2133 59.14C31.4933 59.39 31.6333 59.72 31.6333 60.13C31.6333 60.54 31.4933 60.865 31.2133 61.105C30.9433 61.345 30.5933 61.465 30.1633 61.465ZM35.0624 62.56H36.8624L37.0274 63.55H37.0874C37.4074 63.23 37.7724 62.955 38.1824 62.725C38.6024 62.495 39.0924 62.38 39.6524 62.38C40.4924 62.38 41.1074 62.65 41.4974 63.19C41.8874 63.73 42.0824 64.47 42.0824 65.41V70H39.8774V65.695C39.8774 65.195 39.7974 64.83 39.6374 64.6C39.4774 64.37 39.1924 64.255 38.7824 64.255C38.4824 64.255 38.2174 64.32 37.9874 64.45C37.7674 64.58 37.5274 64.775 37.2674 65.035V70H35.0624V62.56ZM45.5866 64.285H43.7116V62.65L45.6916 62.56L45.9766 60.58H47.7916V62.56H50.9416V64.285H47.7916V66.895C47.7916 67.465 47.9166 67.87 48.1666 68.11C48.4166 68.34 48.8116 68.455 49.3516 68.455C49.6416 68.455 49.9066 68.43 50.1466 68.38C50.3866 68.33 50.6166 68.265 50.8366 68.185L51.2266 69.775C50.8966 69.875 50.5266 69.965 50.1166 70.045C49.7166 70.135 49.2766 70.18 48.7966 70.18C48.2066 70.18 47.7066 70.1 47.2966 69.94C46.8866 69.78 46.5516 69.56 46.2916 69.28C46.0416 68.99 45.8616 68.645 45.7516 68.245C45.6416 67.845 45.5866 67.4 45.5866 66.91V64.285Z" fill="#56B4E9"/>
<path d="M71.009 43.53H77.909V45.09H71.009V43.53ZM71.009 46.995H77.909V48.555H71.009V46.995Z" fill="#E0E0E0"/>
<path d="M99.7614 48.315C99.7614 48.735 99.9264 49.065 100.256 49.305C100.586 49.535 100.996 49.65 101.486 49.65C101.936 49.65 102.296 49.555 102.566 49.365C102.846 49.165 102.986 48.865 102.986 48.465C102.986 48.245 102.931 48.06 102.821 47.91C102.711 47.76 102.551 47.625 102.341 47.505C102.141 47.375 101.901 47.26 101.621 47.16C101.341 47.05 101.031 46.93 100.691 46.8C100.421 47 100.196 47.225 100.016 47.475C99.8464 47.725 99.7614 48.005 99.7614 48.315ZM102.086 45.45C102.566 45.02 102.806 44.555 102.806 44.055C102.806 43.685 102.691 43.39 102.461 43.17C102.231 42.94 101.896 42.825 101.456 42.825C101.106 42.825 100.806 42.915 100.556 43.095C100.316 43.275 100.196 43.55 100.196 43.92C100.196 44.31 100.371 44.615 100.721 44.835C101.071 45.055 101.526 45.26 102.086 45.45ZM97.8564 48.57C97.8564 48.28 97.9014 48.02 97.9914 47.79C98.0914 47.55 98.2214 47.335 98.3814 47.145C98.5514 46.955 98.7414 46.785 98.9514 46.635C99.1714 46.485 99.4064 46.35 99.6564 46.23V46.17C99.2564 45.89 98.9214 45.575 98.6514 45.225C98.3914 44.865 98.2614 44.43 98.2614 43.92C98.2614 43.52 98.3414 43.16 98.5014 42.84C98.6614 42.51 98.8814 42.23 99.1614 42C99.4514 41.77 99.7964 41.595 100.196 41.475C100.596 41.355 101.031 41.295 101.501 41.295C101.981 41.295 102.411 41.36 102.791 41.49C103.181 41.61 103.511 41.785 103.781 42.015C104.051 42.235 104.256 42.51 104.396 42.84C104.546 43.16 104.621 43.515 104.621 43.905C104.621 44.355 104.486 44.755 104.216 45.105C103.956 45.455 103.636 45.75 103.256 45.99V46.05C103.506 46.17 103.741 46.31 103.961 46.47C104.181 46.62 104.371 46.795 104.531 46.995C104.691 47.195 104.816 47.425 104.906 47.685C104.996 47.935 105.041 48.22 105.041 48.54C105.041 48.92 104.961 49.27 104.801 49.59C104.641 49.91 104.406 50.19 104.096 50.43C103.796 50.66 103.421 50.845 102.971 50.985C102.521 51.115 102.006 51.18 101.426 51.18C100.876 51.18 100.381 51.12 99.9414 51C99.5014 50.87 99.1264 50.69 98.8164 50.46C98.5064 50.23 98.2664 49.955 98.0964 49.635C97.9364 49.315 97.8564 48.96 97.8564 48.57ZM133.788 49.74C134.468 49.17 135.088 48.64 135.648 48.15C136.208 47.65 136.688 47.185 137.088 46.755C137.488 46.325 137.798 45.92 138.018 45.54C138.238 45.16 138.348 44.8 138.348 44.46C138.348 43.99 138.213 43.635 137.943 43.395C137.673 43.145 137.288 43.02 136.788 43.02C136.408 43.02 136.058 43.12 135.738 43.32C135.428 43.51 135.138 43.735 134.868 43.995L133.683 42.81C133.933 42.56 134.178 42.34 134.418 42.15C134.668 41.96 134.928 41.805 135.198 41.685C135.478 41.555 135.768 41.46 136.068 41.4C136.378 41.33 136.718 41.295 137.088 41.295C137.588 41.295 138.043 41.37 138.453 41.52C138.863 41.66 139.213 41.865 139.503 42.135C139.803 42.395 140.033 42.71 140.193 43.08C140.363 43.45 140.448 43.865 140.448 44.325C140.448 44.725 140.353 45.135 140.163 45.555C139.973 45.965 139.713 46.38 139.383 46.8C139.063 47.21 138.693 47.625 138.273 48.045C137.853 48.455 137.413 48.86 136.953 49.26C137.223 49.23 137.513 49.205 137.823 49.185C138.143 49.155 138.428 49.14 138.678 49.14H140.943V51H133.788V49.74ZM178.759 49.74C179.439 49.17 180.059 48.64 180.619 48.15C181.179 47.65 181.659 47.185 182.059 46.755C182.459 46.325 182.769 45.92 182.989 45.54C183.209 45.16 183.319 44.8 183.319 44.46C183.319 43.99 183.184 43.635 182.914 43.395C182.644 43.145 182.259 43.02 181.759 43.02C181.379 43.02 181.029 43.12 180.709 43.32C180.399 43.51 180.109 43.735 179.839 43.995L178.654 42.81C178.904 42.56 179.149 42.34 179.389 42.15C179.639 41.96 179.899 41.805 180.169 41.685C180.449 41.555 180.739 41.46 181.039 41.4C181.349 41.33 181.689 41.295 182.059 41.295C182.559 41.295 183.014 41.37 183.424 41.52C183.834 41.66 184.184 41.865 184.474 42.135C184.774 42.395 185.004 42.71 185.164 43.08C185.334 43.45 185.419 43.865 185.419 44.325C185.419 44.725 185.324 45.135 185.134 45.555C184.944 45.965 184.684 46.38 184.354 46.8C184.034 47.21 183.664 47.625 183.244 48.045C182.824 48.455 182.384 48.86 181.924 49.26C182.194 49.23 182.484 49.205 182.794 49.185C183.114 49.155 183.399 49.14 183.649 49.14H185.914V51H178.759V49.74Z" fill="#F0E442"/>
</svg>
