<svg width="404" height="177" viewBox="0 0 404 177" fill="none" xmlns="http://www.w3.org/2000/svg">
<rect width="181" height="177" fill="black"/>
<path d="M7.87 160.74C8.55 160.17 9.17 159.64 9.73 159.15C10.29 158.65 10.77 158.185 11.17 157.755C11.57 157.325 11.88 156.92 12.1 156.54C12.32 156.16 12.43 155.8 12.43 155.46C12.43 154.99 12.295 154.635 12.025 154.395C11.755 154.145 11.37 154.02 10.87 154.02C10.49 154.02 10.14 154.12 9.82 154.32C9.51 154.51 9.22 154.735 8.95 154.995L7.765 153.81C8.015 153.56 8.26 153.34 8.5 153.15C8.75 152.96 9.01 152.805 9.28 152.685C9.56 152.555 9.85 152.46 10.15 152.4C10.46 152.33 10.8 152.295 11.17 152.295C11.67 152.295 12.125 152.37 12.535 152.52C12.945 152.66 13.295 152.865 13.585 153.135C13.885 153.395 14.115 153.71 14.275 154.08C14.445 154.45 14.53 154.865 14.53 155.325C14.53 155.725 14.435 156.135 14.245 156.555C14.055 156.965 13.795 157.38 13.465 157.8C13.145 158.21 12.775 158.625 12.355 159.045C11.935 159.455 11.495 159.86 11.035 160.26C11.305 160.23 11.595 160.205 11.905 160.185C12.225 160.155 12.51 160.14 12.76 160.14H15.025V162H7.87V160.74Z" fill="white"/>
<path d="M11.5 144.18C10.92 144.18 10.385 144.065 9.895 143.835C9.415 143.595 9 143.255 8.65 142.815C8.31 142.375 8.045 141.84 7.855 141.21C7.665 140.58 7.57 139.865 7.57 139.065C7.57 138.265 7.665 137.555 7.855 136.935C8.045 136.305 8.31 135.78 8.65 135.36C9 134.93 9.415 134.605 9.895 134.385C10.385 134.155 10.92 134.04 11.5 134.04C12.08 134.04 12.61 134.155 13.09 134.385C13.58 134.605 13.995 134.93 14.335 135.36C14.685 135.79 14.955 136.32 15.145 136.95C15.335 137.57 15.43 138.275 15.43 139.065C15.43 139.865 15.335 140.58 15.145 141.21C14.955 141.84 14.685 142.375 14.335 142.815C13.995 143.255 13.58 143.595 13.09 143.835C12.61 144.065 12.08 144.18 11.5 144.18ZM11.5 142.275C12.01 142.275 12.415 141.99 12.715 141.42C13.015 140.84 13.165 140.055 13.165 139.065C13.165 138.085 13.015 137.32 12.715 136.77C12.415 136.22 12.01 135.945 11.5 135.945C10.99 135.945 10.585 136.22 10.285 136.77C9.985 137.32 9.835 138.085 9.835 139.065C9.835 140.055 9.985 140.84 10.285 141.42C10.585 141.99 10.99 142.275 11.5 142.275ZM23.8691 144H22.0691L21.9041 142.935H21.8441C21.5141 143.315 21.1491 143.62 20.7491 143.85C20.3491 144.07 19.8791 144.18 19.3391 144.18C18.4891 144.18 17.8741 143.91 17.4941 143.37C17.1141 142.83 16.9241 142.09 16.9241 141.15V136.56H19.1291V140.865C19.1291 141.365 19.2041 141.73 19.3541 141.96C19.5041 142.19 19.7891 142.305 20.2091 142.305C20.4891 142.305 20.7341 142.245 20.9441 142.125C21.1641 142.005 21.4041 141.78 21.6641 141.45V136.56H23.8691V144ZM27.5983 138.285H25.7233V136.65L27.7033 136.56L27.9883 134.58H29.8033V136.56H32.9533V138.285H29.8033V140.895C29.8033 141.465 29.9283 141.87 30.1783 142.11C30.4283 142.34 30.8233 142.455 31.3633 142.455C31.6533 142.455 31.9183 142.43 32.1583 142.38C32.3983 142.33 32.6283 142.265 32.8483 142.185L33.2383 143.775C32.9083 143.875 32.5383 143.965 32.1283 144.045C31.7283 144.135 31.2883 144.18 30.8083 144.18C30.2183 144.18 29.7183 144.1 29.3083 143.94C28.8983 143.78 28.5633 143.56 28.3033 143.28C28.0533 142.99 27.8733 142.645 27.7633 142.245C27.6533 141.845 27.5983 141.4 27.5983 140.91V138.285ZM37.2674 144.585V146.76H35.0624V136.56H36.8624L37.0274 137.31H37.0724C37.3724 137.04 37.7174 136.82 38.1074 136.65C38.4974 136.47 38.8924 136.38 39.2924 136.38C39.7524 136.38 40.1674 136.47 40.5374 136.65C40.9074 136.83 41.2224 137.085 41.4824 137.415C41.7424 137.745 41.9374 138.145 42.0674 138.615C42.2074 139.075 42.2774 139.59 42.2774 140.16C42.2774 140.8 42.1874 141.37 42.0074 141.87C41.8274 142.36 41.5874 142.78 41.2874 143.13C40.9874 143.47 40.6424 143.73 40.2524 143.91C39.8724 144.09 39.4724 144.18 39.0524 144.18C38.3724 144.18 37.7524 143.91 37.1924 143.37L37.2674 144.585ZM37.2674 141.885C37.4774 142.065 37.6924 142.195 37.9124 142.275C38.1424 142.345 38.3524 142.38 38.5424 142.38C38.9624 142.38 39.3124 142.21 39.5924 141.87C39.8724 141.52 40.0124 140.96 40.0124 140.19C40.0124 138.85 39.5574 138.18 38.6474 138.18C38.1774 138.18 37.7174 138.41 37.2674 138.87V141.885ZM50.8516 144H49.0516L48.8866 142.935H48.8266C48.4966 143.315 48.1316 143.62 47.7316 143.85C47.3316 144.07 46.8616 144.18 46.3216 144.18C45.4716 144.18 44.8566 143.91 44.4766 143.37C44.0966 142.83 43.9066 142.09 43.9066 141.15V136.56H46.1116V140.865C46.1116 141.365 46.1866 141.73 46.3366 141.96C46.4866 142.19 46.7716 142.305 47.1916 142.305C47.4716 142.305 47.7166 142.245 47.9266 142.125C48.1466 142.005 48.3866 141.78 48.6466 141.45V136.56H50.8516V144ZM54.5807 138.285H52.7057V136.65L54.6857 136.56L54.9707 134.58H56.7857V136.56H59.9357V138.285H56.7857V140.895C56.7857 141.465 56.9107 141.87 57.1607 142.11C57.4107 142.34 57.8057 142.455 58.3457 142.455C58.6357 142.455 58.9007 142.43 59.1407 142.38C59.3807 142.33 59.6107 142.265 59.8307 142.185L60.2207 143.775C59.8907 143.875 59.5207 143.965 59.1107 144.045C58.7107 144.135 58.2707 144.18 57.7907 144.18C57.2007 144.18 56.7007 144.1 56.2907 143.94C55.8807 143.78 55.5457 143.56 55.2857 143.28C55.0357 142.99 54.8557 142.645 54.7457 142.245C54.6357 141.845 54.5807 141.4 54.5807 140.91V138.285Z" fill="white"/>
<rect x="79" width="102" height="31" fill="#333333"/>
<rect x="79" width="102" height="31" fill="#333333"/>
<rect x="0.0107117" width="79" height="31" fill="#090808"/>
<path d="M12.1157 17.8101C12.1157 17.5513 11.9863 17.3486 11.7275 17.2021C11.4736 17.0508 11.0634 16.9165 10.497 16.7993C8.61227 16.4038 7.66989 15.603 7.66989 14.397C7.66989 13.6938 7.96042 13.1079 8.54147 12.6392C9.12741 12.1655 9.89157 11.9287 10.834 11.9287C11.8398 11.9287 12.643 12.1655 13.2436 12.6392C13.8491 13.1128 14.1518 13.728 14.1518 14.4849H12.0351C12.0351 14.1821 11.9375 13.9331 11.7422 13.7378C11.5468 13.5376 11.2417 13.4375 10.8266 13.4375C10.4702 13.4375 10.1943 13.5181 9.99899 13.6792C9.80368 13.8403 9.70602 14.0454 9.70602 14.2944C9.70602 14.5288 9.81589 14.7192 10.0356 14.8657C10.2602 15.0073 10.6362 15.1318 11.1635 15.2393C11.6909 15.3418 12.1352 15.459 12.4966 15.5908C13.6147 16.001 14.1738 16.7114 14.1738 17.7222C14.1738 18.4448 13.8637 19.0308 13.2436 19.48C12.6235 19.9243 11.8227 20.1465 10.8413 20.1465C10.1772 20.1465 9.5864 20.0293 9.06882 19.7949C8.55612 19.5557 8.15329 19.231 7.86032 18.8208C7.56735 18.4058 7.42087 17.959 7.42087 17.4805H9.4277C9.44724 17.8564 9.5864 18.1445 9.84518 18.3447C10.104 18.5449 10.4507 18.645 10.8852 18.645C11.2905 18.645 11.5957 18.5693 11.8008 18.418C12.0107 18.2617 12.1157 18.0591 12.1157 17.8101ZM18.8393 18.4399C19.2299 18.4399 19.5473 18.3325 19.7915 18.1177C20.0356 17.9028 20.1626 17.6172 20.1723 17.2607H22.1572C22.1523 17.7979 22.0058 18.291 21.7177 18.7402C21.4297 19.1846 21.0341 19.5312 20.5312 19.7803C20.0332 20.0244 19.4814 20.1465 18.8759 20.1465C17.7431 20.1465 16.8496 19.7876 16.1953 19.0698C15.541 18.3472 15.2138 17.3511 15.2138 16.0815V15.9424C15.2138 14.7217 15.5385 13.7476 16.188 13.02C16.8374 12.2925 17.7285 11.9287 18.8613 11.9287C19.8525 11.9287 20.646 12.2119 21.2417 12.7783C21.8423 13.3398 22.1474 14.0894 22.1572 15.0269H20.1723C20.1626 14.6167 20.0356 14.2847 19.7915 14.0308C19.5473 13.772 19.2251 13.6426 18.8247 13.6426C18.3315 13.6426 17.958 13.8232 17.7041 14.1846C17.455 14.541 17.3305 15.1221 17.3305 15.9277V16.1475C17.3305 16.9629 17.455 17.5488 17.7041 17.9053C17.9531 18.2617 18.3315 18.4399 18.8393 18.4399ZM27.8188 14.0601C27.5307 14.021 27.2768 14.0015 27.0571 14.0015C26.2563 14.0015 25.7314 14.2725 25.4824 14.8145V20H23.3657V12.0752H25.3652L25.4238 13.02C25.8486 12.2925 26.437 11.9287 27.1889 11.9287C27.4233 11.9287 27.643 11.9604 27.8481 12.0239L27.8188 14.0601ZM31.0781 20H28.9541V12.0752H31.0781V20ZM28.8296 10.0244C28.8296 9.70703 28.9345 9.4458 29.1445 9.24072C29.3593 9.03564 29.6499 8.93311 30.0161 8.93311C30.3774 8.93311 30.6655 9.03564 30.8803 9.24072C31.0952 9.4458 31.2026 9.70703 31.2026 10.0244C31.2026 10.3467 31.0927 10.6104 30.873 10.8154C30.6582 11.0205 30.3725 11.123 30.0161 11.123C29.6596 11.123 29.3716 11.0205 29.1518 10.8154C28.937 10.6104 28.8296 10.3467 28.8296 10.0244ZM39.9624 16.1108C39.9624 17.3315 39.6841 18.3105 39.1274 19.0479C38.5757 19.7803 37.8286 20.1465 36.8862 20.1465C36.0854 20.1465 35.4384 19.8682 34.9453 19.3115V23.0469H32.8286V12.0752H34.7915L34.8647 12.8516C35.3774 12.2363 36.0464 11.9287 36.8716 11.9287C37.8481 11.9287 38.6074 12.29 39.1494 13.0127C39.6914 13.7354 39.9624 14.7314 39.9624 16.001V16.1108ZM37.8457 15.957C37.8457 15.2197 37.7138 14.6509 37.4502 14.2505C37.1914 13.8501 36.813 13.6499 36.3149 13.6499C35.6508 13.6499 35.1943 13.9038 34.9453 14.4116V17.6562C35.2041 18.1787 35.6655 18.4399 36.3296 18.4399C37.3403 18.4399 37.8457 17.6123 37.8457 15.957ZM43.8149 10.127V12.0752H45.1699V13.6279H43.8149V17.583C43.8149 17.876 43.8711 18.0859 43.9834 18.2129C44.0957 18.3398 44.3105 18.4033 44.6279 18.4033C44.8623 18.4033 45.0698 18.3862 45.2505 18.3521V19.9561C44.8354 20.083 44.4082 20.1465 43.9687 20.1465C42.4843 20.1465 41.7275 19.397 41.6982 17.8979V13.6279H40.541V12.0752H41.6982V10.127H43.8149ZM46.459 18.96C46.459 18.623 46.5713 18.3496 46.7959 18.1396C47.0254 17.9297 47.311 17.8247 47.6528 17.8247C47.9995 17.8247 48.2851 17.9297 48.5097 18.1396C48.7392 18.3496 48.854 18.623 48.854 18.96C48.854 19.292 48.7417 19.563 48.5171 19.7729C48.2924 19.978 48.0044 20.0806 47.6528 20.0806C47.3061 20.0806 47.0205 19.978 46.7959 19.7729C46.5713 19.563 46.459 19.292 46.459 18.96ZM57.8481 16.1108C57.8481 17.3315 57.5698 18.3105 57.0132 19.0479C56.4614 19.7803 55.7143 20.1465 54.7719 20.1465C53.9712 20.1465 53.3242 19.8682 52.831 19.3115V23.0469H50.7143V12.0752H52.6772L52.7505 12.8516C53.2632 12.2363 53.9321 11.9287 54.7573 11.9287C55.7339 11.9287 56.4931 12.29 57.0351 13.0127C57.5771 13.7354 57.8481 14.7314 57.8481 16.001V16.1108ZM55.7314 15.957C55.7314 15.2197 55.5996 14.6509 55.3359 14.2505C55.0771 13.8501 54.6987 13.6499 54.2007 13.6499C53.5366 13.6499 53.08 13.9038 52.831 14.4116V17.6562C53.0898 18.1787 53.5512 18.4399 54.2153 18.4399C55.226 18.4399 55.7314 17.6123 55.7314 15.957ZM62.0376 17.0044L63.5024 12.0752H65.7729L62.5869 21.2305L62.4111 21.6479C61.9375 22.6831 61.1562 23.2007 60.0674 23.2007C59.7597 23.2007 59.4472 23.1543 59.1299 23.0615V21.4575L59.4521 21.4648C59.8525 21.4648 60.1504 21.4038 60.3457 21.2817C60.5459 21.1597 60.7021 20.957 60.8144 20.6738L61.0634 20.022L58.2876 12.0752H60.5654L62.0376 17.0044Z" fill="white"/>
<line y1="123.5" x2="181" y2="123.5" stroke="white"/>
<path d="M8.19571 43.56H13.3857V51H11.1807V45.285H8.19571V43.56ZM12.1857 42.465C11.7557 42.465 11.4007 42.345 11.1207 42.105C10.8507 41.865 10.7157 41.54 10.7157 41.13C10.7157 40.72 10.8507 40.39 11.1207 40.14C11.4007 39.88 11.7557 39.75 12.1857 39.75C12.6157 39.75 12.9657 39.88 13.2357 40.14C13.5157 40.39 13.6557 40.72 13.6557 41.13C13.6557 41.54 13.5157 41.865 13.2357 42.105C12.9657 42.345 12.6157 42.465 12.1857 42.465ZM24.3599 42.33C23.8699 42.14 23.3499 42.045 22.7999 42.045C22.3199 42.045 21.9649 42.15 21.7349 42.36C21.5149 42.57 21.4049 42.9 21.4049 43.35V43.56H23.9699V45.285H21.4049V51H19.1999V45.285H17.2349V43.65L19.1999 43.56V43.365C19.1999 42.935 19.2649 42.535 19.3949 42.165C19.5249 41.795 19.7249 41.475 19.9949 41.205C20.2649 40.925 20.6099 40.705 21.0299 40.545C21.4499 40.385 21.9499 40.305 22.5299 40.305C22.9599 40.305 23.3599 40.345 23.7299 40.425C24.1099 40.505 24.4599 40.6 24.7799 40.71L24.3599 42.33ZM35.6131 41.22H42.0631V43.08H37.8181V45.345H41.4331V47.205H37.8181V51H35.6131V41.22ZM43.9023 48.93C43.9023 48.51 43.9923 48.145 44.1723 47.835C44.3523 47.515 44.6373 47.245 45.0273 47.025C45.4273 46.805 45.9373 46.63 46.5573 46.5C47.1773 46.36 47.9273 46.265 48.8073 46.215C48.7673 45.875 48.6173 45.61 48.3573 45.42C48.1073 45.23 47.7273 45.135 47.2173 45.135C46.8573 45.135 46.4923 45.2 46.1223 45.33C45.7623 45.45 45.3723 45.615 44.9523 45.825L44.1723 44.385C44.6823 44.095 45.2273 43.855 45.8073 43.665C46.3973 43.475 47.0123 43.38 47.6523 43.38C48.6923 43.38 49.5123 43.655 50.1123 44.205C50.7123 44.755 51.0123 45.6 51.0123 46.74V51H49.2123L49.0473 50.16H48.9873C48.6073 50.45 48.1923 50.695 47.7423 50.895C47.2923 51.085 46.8273 51.18 46.3473 51.18C45.9673 51.18 45.6273 51.12 45.3273 51C45.0273 50.89 44.7723 50.735 44.5623 50.535C44.3523 50.325 44.1873 50.085 44.0673 49.815C43.9573 49.545 43.9023 49.25 43.9023 48.93ZM46.0173 48.765C46.0173 49.005 46.1073 49.185 46.2873 49.305C46.4773 49.415 46.7323 49.47 47.0523 49.47C47.3823 49.47 47.6923 49.405 47.9823 49.275C48.2723 49.135 48.5473 48.965 48.8073 48.765V47.535C48.2573 47.565 47.8023 47.615 47.4423 47.685C47.0823 47.755 46.7973 47.845 46.5873 47.955C46.3773 48.055 46.2273 48.175 46.1373 48.315C46.0573 48.455 46.0173 48.605 46.0173 48.765ZM52.9114 40.485H57.2764V48.18C57.2764 48.41 57.3064 48.605 57.3664 48.765C57.4364 48.915 57.5264 49.04 57.6364 49.14C57.7564 49.23 57.8864 49.295 58.0264 49.335C58.1764 49.375 58.3264 49.395 58.4764 49.395C58.6464 49.395 58.8264 49.38 59.0164 49.35C59.2064 49.31 59.4164 49.245 59.6464 49.155L60.1414 50.775C59.9414 50.835 59.7564 50.89 59.5864 50.94C59.4164 50.99 59.2464 51.03 59.0764 51.06C58.9064 51.1 58.7264 51.13 58.5364 51.15C58.3464 51.17 58.1364 51.18 57.9064 51.18C56.9664 51.18 56.2564 50.905 55.7764 50.355C55.3064 49.795 55.0714 49.04 55.0714 48.09V42.225H52.9114V40.485ZM62.7606 48.66C63.1906 48.93 63.6206 49.145 64.0506 49.305C64.4906 49.465 64.9606 49.545 65.4606 49.545C65.9706 49.545 66.3356 49.49 66.5556 49.38C66.7756 49.27 66.8856 49.115 66.8856 48.915C66.8856 48.685 66.7006 48.5 66.3306 48.36C65.9706 48.21 65.4906 48.05 64.8906 47.88C64.5606 47.79 64.2356 47.685 63.9156 47.565C63.6056 47.435 63.3256 47.285 63.0756 47.115C62.8256 46.935 62.6206 46.73 62.4606 46.5C62.3106 46.27 62.2356 46.005 62.2356 45.705C62.2356 45.365 62.3156 45.05 62.4756 44.76C62.6356 44.47 62.8606 44.225 63.1506 44.025C63.4506 43.825 63.8106 43.67 64.2306 43.56C64.6606 43.44 65.1406 43.38 65.6706 43.38C66.3306 43.38 66.9306 43.49 67.4706 43.71C68.0206 43.92 68.4906 44.15 68.8806 44.4L67.8906 45.72C67.5506 45.52 67.2006 45.355 66.8406 45.225C66.4806 45.085 66.1056 45.015 65.7156 45.015C65.2456 45.015 64.9106 45.065 64.7106 45.165C64.5206 45.265 64.4256 45.41 64.4256 45.6C64.4256 45.71 64.4756 45.81 64.5756 45.9C64.6756 45.99 64.8106 46.07 64.9806 46.14C65.1506 46.21 65.3506 46.28 65.5806 46.35C65.8206 46.41 66.0706 46.475 66.3306 46.545C66.7006 46.645 67.0506 46.76 67.3806 46.89C67.7106 47.01 68.0006 47.155 68.2506 47.325C68.5006 47.495 68.7006 47.7 68.8506 47.94C69.0006 48.18 69.0756 48.46 69.0756 48.78C69.0756 49.12 68.9956 49.435 68.8356 49.725C68.6756 50.015 68.4406 50.27 68.1306 50.49C67.8306 50.7 67.4506 50.87 66.9906 51C66.5406 51.12 66.0156 51.18 65.4156 51.18C64.7456 51.18 64.0906 51.07 63.4506 50.85C62.8106 50.63 62.2506 50.36 61.7706 50.04L62.7606 48.66ZM70.7947 47.28C70.7947 46.67 70.8997 46.125 71.1097 45.645C71.3297 45.165 71.6197 44.76 71.9797 44.43C72.3397 44.09 72.7497 43.83 73.2097 43.65C73.6797 43.47 74.1647 43.38 74.6647 43.38C75.2347 43.38 75.7397 43.47 76.1797 43.65C76.6197 43.83 76.9847 44.08 77.2747 44.4C77.5647 44.72 77.7847 45.1 77.9347 45.54C78.0847 45.97 78.1597 46.44 78.1597 46.95C78.1597 47.15 78.1497 47.34 78.1297 47.52C78.1097 47.7 78.0897 47.835 78.0697 47.925H73.0597C73.1397 48.485 73.3797 48.89 73.7797 49.14C74.1897 49.38 74.6697 49.5 75.2197 49.5C75.5597 49.5 75.8797 49.46 76.1797 49.38C76.4897 49.29 76.8097 49.16 77.1397 48.99L77.8597 50.31C77.4397 50.58 76.9697 50.795 76.4497 50.955C75.9297 51.105 75.4197 51.18 74.9197 51.18C74.3397 51.18 73.7997 51.095 73.2997 50.925C72.7997 50.745 72.3647 50.49 71.9947 50.16C71.6247 49.82 71.3297 49.41 71.1097 48.93C70.8997 48.45 70.7947 47.9 70.7947 47.28ZM76.1647 46.47C76.1647 46.05 76.0497 45.71 75.8197 45.45C75.5897 45.19 75.2197 45.06 74.7097 45.06C74.3097 45.06 73.9547 45.175 73.6447 45.405C73.3347 45.635 73.1297 45.99 73.0297 46.47H76.1647ZM7.83571 84.28C7.83571 83.67 7.94071 83.125 8.15071 82.645C8.37071 82.165 8.66071 81.76 9.02071 81.43C9.38071 81.09 9.79071 80.83 10.2507 80.65C10.7207 80.47 11.2057 80.38 11.7057 80.38C12.2757 80.38 12.7807 80.47 13.2207 80.65C13.6607 80.83 14.0257 81.08 14.3157 81.4C14.6057 81.72 14.8257 82.1 14.9757 82.54C15.1257 82.97 15.2007 83.44 15.2007 83.95C15.2007 84.15 15.1907 84.34 15.1707 84.52C15.1507 84.7 15.1307 84.835 15.1107 84.925H10.1007C10.1807 85.485 10.4207 85.89 10.8207 86.14C11.2307 86.38 11.7107 86.5 12.2607 86.5C12.6007 86.5 12.9207 86.46 13.2207 86.38C13.5307 86.29 13.8507 86.16 14.1807 85.99L14.9007 87.31C14.4807 87.58 14.0107 87.795 13.4907 87.955C12.9707 88.105 12.4607 88.18 11.9607 88.18C11.3807 88.18 10.8407 88.095 10.3407 87.925C9.84071 87.745 9.40571 87.49 9.03571 87.16C8.66571 86.82 8.37071 86.41 8.15071 85.93C7.94071 85.45 7.83571 84.9 7.83571 84.28ZM13.2057 83.47C13.2057 83.05 13.0907 82.71 12.8607 82.45C12.6307 82.19 12.2607 82.06 11.7507 82.06C11.3507 82.06 10.9957 82.175 10.6857 82.405C10.3757 82.635 10.1707 82.99 10.0707 83.47H13.2057ZM16.9349 77.485H21.2999V85.18C21.2999 85.41 21.3299 85.605 21.3899 85.765C21.4599 85.915 21.5499 86.04 21.6599 86.14C21.7799 86.23 21.9099 86.295 22.0499 86.335C22.1999 86.375 22.3499 86.395 22.4999 86.395C22.6699 86.395 22.8499 86.38 23.0399 86.35C23.2299 86.31 23.4399 86.245 23.6699 86.155L24.1649 87.775C23.9649 87.835 23.7799 87.89 23.6099 87.94C23.4399 87.99 23.2699 88.03 23.0999 88.06C22.9299 88.1 22.7499 88.13 22.5599 88.15C22.3699 88.17 22.1599 88.18 21.9299 88.18C20.9899 88.18 20.2799 87.905 19.7999 87.355C19.3299 86.795 19.0949 86.04 19.0949 85.09V79.225H16.9349V77.485ZM26.784 85.66C27.214 85.93 27.644 86.145 28.074 86.305C28.514 86.465 28.984 86.545 29.484 86.545C29.994 86.545 30.359 86.49 30.579 86.38C30.799 86.27 30.909 86.115 30.909 85.915C30.909 85.685 30.724 85.5 30.354 85.36C29.994 85.21 29.514 85.05 28.914 84.88C28.584 84.79 28.259 84.685 27.939 84.565C27.629 84.435 27.349 84.285 27.099 84.115C26.849 83.935 26.644 83.73 26.484 83.5C26.334 83.27 26.259 83.005 26.259 82.705C26.259 82.365 26.339 82.05 26.499 81.76C26.659 81.47 26.884 81.225 27.174 81.025C27.474 80.825 27.834 80.67 28.254 80.56C28.684 80.44 29.164 80.38 29.694 80.38C30.354 80.38 30.954 80.49 31.494 80.71C32.044 80.92 32.514 81.15 32.904 81.4L31.914 82.72C31.574 82.52 31.224 82.355 30.864 82.225C30.504 82.085 30.129 82.015 29.739 82.015C29.269 82.015 28.934 82.065 28.734 82.165C28.544 82.265 28.449 82.41 28.449 82.6C28.449 82.71 28.499 82.81 28.599 82.9C28.699 82.99 28.834 83.07 29.004 83.14C29.174 83.21 29.374 83.28 29.604 83.35C29.844 83.41 30.094 83.475 30.354 83.545C30.724 83.645 31.074 83.76 31.404 83.89C31.734 84.01 32.024 84.155 32.274 84.325C32.524 84.495 32.724 84.7 32.874 84.94C33.024 85.18 33.099 85.46 33.099 85.78C33.099 86.12 33.019 86.435 32.859 86.725C32.699 87.015 32.464 87.27 32.154 87.49C31.854 87.7 31.474 87.87 31.014 88C30.564 88.12 30.039 88.18 29.439 88.18C28.769 88.18 28.114 88.07 27.474 87.85C26.834 87.63 26.274 87.36 25.794 87.04L26.784 85.66ZM34.8181 84.28C34.8181 83.67 34.9231 83.125 35.1331 82.645C35.3531 82.165 35.6431 81.76 36.0031 81.43C36.3631 81.09 36.7731 80.83 37.2331 80.65C37.7031 80.47 38.1881 80.38 38.6881 80.38C39.2581 80.38 39.7631 80.47 40.2031 80.65C40.6431 80.83 41.0081 81.08 41.2981 81.4C41.5881 81.72 41.8081 82.1 41.9581 82.54C42.1081 82.97 42.1831 83.44 42.1831 83.95C42.1831 84.15 42.1731 84.34 42.1531 84.52C42.1331 84.7 42.1131 84.835 42.0931 84.925H37.0831C37.1631 85.485 37.4031 85.89 37.8031 86.14C38.2131 86.38 38.6931 86.5 39.2431 86.5C39.5831 86.5 39.9031 86.46 40.2031 86.38C40.5131 86.29 40.8331 86.16 41.1631 85.99L41.8831 87.31C41.4631 87.58 40.9931 87.795 40.4731 87.955C39.9531 88.105 39.4431 88.18 38.9431 88.18C38.3631 88.18 37.8231 88.095 37.3231 87.925C36.8231 87.745 36.3881 87.49 36.0181 87.16C35.6481 86.82 35.3531 86.41 35.1331 85.93C34.9231 85.45 34.8181 84.9 34.8181 84.28ZM40.1881 83.47C40.1881 83.05 40.0731 82.71 39.8431 82.45C39.6131 82.19 39.2431 82.06 38.7331 82.06C38.3331 82.06 37.9781 82.175 37.6681 82.405C37.3581 82.635 37.1531 82.99 37.0531 83.47H40.1881Z" fill="#E69F00"/>
<path d="M81.7238 44.58C81.7238 44.33 81.7638 44.1 81.8438 43.89C81.9338 43.67 82.0538 43.48 82.2038 43.32C82.3538 43.16 82.5338 43.035 82.7438 42.945C82.9638 42.855 83.2038 42.81 83.4638 42.81C83.7238 42.81 83.9588 42.855 84.1688 42.945C84.3888 43.035 84.5738 43.16 84.7238 43.32C84.8738 43.48 84.9888 43.67 85.0688 43.89C85.1588 44.1 85.2038 44.33 85.2038 44.58C85.2038 45.08 85.0438 45.5 84.7238 45.84C84.4038 46.17 83.9838 46.335 83.4638 46.335C82.9438 46.335 82.5238 46.17 82.2038 45.84C81.8838 45.5 81.7238 45.08 81.7238 44.58ZM81.7238 49.425C81.7238 49.175 81.7638 48.945 81.8438 48.735C81.9338 48.515 82.0538 48.325 82.2038 48.165C82.3538 48.005 82.5338 47.88 82.7438 47.79C82.9638 47.7 83.2038 47.655 83.4638 47.655C83.7238 47.655 83.9588 47.7 84.1688 47.79C84.3888 47.88 84.5738 48.005 84.7238 48.165C84.8738 48.325 84.9888 48.515 85.0688 48.735C85.1588 48.945 85.2038 49.175 85.2038 49.425C85.2038 49.925 85.0438 50.345 84.7238 50.685C84.4038 51.015 83.9838 51.18 83.4638 51.18C82.9438 51.18 82.5238 51.015 82.2038 50.685C81.8838 50.345 81.7238 49.925 81.7238 49.425ZM93.838 72.685C92.858 71.815 92.083 70.81 91.513 69.67C90.953 68.53 90.673 67.25 90.673 65.83C90.673 64.41 90.953 63.13 91.513 61.99C92.083 60.85 92.858 59.845 93.838 58.975L95.068 59.95C94.178 60.82 93.528 61.725 93.118 62.665C92.718 63.595 92.518 64.65 92.518 65.83C92.518 66.42 92.568 66.98 92.668 67.51C92.768 68.03 92.918 68.53 93.118 69.01C93.328 69.49 93.593 69.95 93.913 70.39C94.233 70.84 94.618 71.28 95.068 71.71L93.838 72.685ZM107.836 71.71C108.286 71.28 108.671 70.84 108.991 70.39C109.311 69.95 109.571 69.49 109.771 69.01C109.981 68.53 110.136 68.03 110.236 67.51C110.336 66.98 110.386 66.42 110.386 65.83C110.386 64.65 110.181 63.595 109.771 62.665C109.371 61.725 108.726 60.82 107.836 59.95L109.066 58.975C110.046 59.845 110.816 60.85 111.376 61.99C111.946 63.13 112.231 64.41 112.231 65.83C112.231 67.25 111.946 68.53 111.376 69.67C110.816 70.81 110.046 71.815 109.066 72.685L107.836 71.71ZM45.7473 81.58C45.7473 81.33 45.7873 81.1 45.8673 80.89C45.9573 80.67 46.0773 80.48 46.2273 80.32C46.3773 80.16 46.5573 80.035 46.7673 79.945C46.9873 79.855 47.2273 79.81 47.4873 79.81C47.7473 79.81 47.9823 79.855 48.1923 79.945C48.4123 80.035 48.5973 80.16 48.7473 80.32C48.8973 80.48 49.0123 80.67 49.0923 80.89C49.1823 81.1 49.2273 81.33 49.2273 81.58C49.2273 82.08 49.0673 82.5 48.7473 82.84C48.4273 83.17 48.0073 83.335 47.4873 83.335C46.9673 83.335 46.5473 83.17 46.2273 82.84C45.9073 82.5 45.7473 82.08 45.7473 81.58ZM45.7473 86.425C45.7473 86.175 45.7873 85.945 45.8673 85.735C45.9573 85.515 46.0773 85.325 46.2273 85.165C46.3773 85.005 46.5573 84.88 46.7673 84.79C46.9873 84.7 47.2273 84.655 47.4873 84.655C47.7473 84.655 47.9823 84.7 48.1923 84.79C48.4123 84.88 48.5973 85.005 48.7473 85.165C48.8973 85.325 49.0123 85.515 49.0923 85.735C49.1823 85.945 49.2273 86.175 49.2273 86.425C49.2273 86.925 49.0673 87.345 48.7473 87.685C48.4273 88.015 48.0073 88.18 47.4873 88.18C46.9673 88.18 46.5473 88.015 46.2273 87.685C45.9073 87.345 45.7473 86.925 45.7473 86.425ZM93.838 109.685C92.858 108.815 92.083 107.81 91.513 106.67C90.953 105.53 90.673 104.25 90.673 102.83C90.673 101.41 90.953 100.13 91.513 98.99C92.083 97.85 92.858 96.845 93.838 95.975L95.068 96.95C94.178 97.82 93.528 98.725 93.118 99.665C92.718 100.595 92.518 101.65 92.518 102.83C92.518 103.42 92.568 103.98 92.668 104.51C92.768 105.03 92.918 105.53 93.118 106.01C93.328 106.49 93.593 106.95 93.913 107.39C94.233 107.84 94.618 108.28 95.068 108.71L93.838 109.685ZM107.836 108.71C108.286 108.28 108.671 107.84 108.991 107.39C109.311 106.95 109.571 106.49 109.771 106.01C109.981 105.53 110.136 105.03 110.236 104.51C110.336 103.98 110.386 103.42 110.386 102.83C110.386 101.65 110.181 100.595 109.771 99.665C109.371 98.725 108.726 97.82 107.836 96.95L109.066 95.975C110.046 96.845 110.816 97.85 111.376 98.99C111.946 100.13 112.231 101.41 112.231 102.83C112.231 104.25 111.946 105.53 111.376 106.67C110.816 107.81 110.046 108.815 109.066 109.685L107.836 108.71Z" fill="white"/>
<path d="M46.2723 70.585V72.76H44.0673V62.56H45.8673L46.0323 63.31H46.0773C46.3773 63.04 46.7223 62.82 47.1123 62.65C47.5023 62.47 47.8973 62.38 48.2973 62.38C48.7573 62.38 49.1723 62.47 49.5423 62.65C49.9123 62.83 50.2273 63.085 50.4873 63.415C50.7473 63.745 50.9423 64.145 51.0723 64.615C51.2123 65.075 51.2823 65.59 51.2823 66.16C51.2823 66.8 51.1923 67.37 51.0123 67.87C50.8323 68.36 50.5923 68.78 50.2923 69.13C49.9923 69.47 49.6473 69.73 49.2573 69.91C48.8773 70.09 48.4773 70.18 48.0573 70.18C47.3773 70.18 46.7573 69.91 46.1973 69.37L46.2723 70.585ZM46.2723 67.885C46.4823 68.065 46.6973 68.195 46.9173 68.275C47.1473 68.345 47.3573 68.38 47.5473 68.38C47.9673 68.38 48.3173 68.21 48.5973 67.87C48.8773 67.52 49.0173 66.96 49.0173 66.19C49.0173 64.85 48.5623 64.18 47.6523 64.18C47.1823 64.18 46.7223 64.41 46.2723 64.87V67.885ZM53.7214 62.56H55.5214L55.7014 64.18H55.7464C56.1164 63.57 56.5614 63.12 57.0814 62.83C57.6014 62.53 58.1614 62.38 58.7614 62.38C59.0914 62.38 59.3564 62.405 59.5564 62.455C59.7664 62.505 59.9814 62.58 60.2014 62.68L59.7514 64.525C59.5214 64.455 59.3114 64.405 59.1214 64.375C58.9414 64.335 58.7114 64.315 58.4314 64.315C57.9714 64.315 57.5164 64.45 57.0664 64.72C56.6264 64.99 56.2464 65.46 55.9264 66.13V70H53.7214V62.56ZM62.1606 62.56H67.3506V70H65.1456V64.285H62.1606V62.56ZM66.1506 61.465C65.7206 61.465 65.3656 61.345 65.0856 61.105C64.8156 60.865 64.6806 60.54 64.6806 60.13C64.6806 59.72 64.8156 59.39 65.0856 59.14C65.3656 58.88 65.7206 58.75 66.1506 58.75C66.5806 58.75 66.9306 58.88 67.2006 59.14C67.4806 59.39 67.6206 59.72 67.6206 60.13C67.6206 60.54 67.4806 60.865 67.2006 61.105C66.9306 61.345 66.5806 61.465 66.1506 61.465ZM71.0497 62.56H72.8497L73.0147 63.55H73.0747C73.3947 63.23 73.7597 62.955 74.1697 62.725C74.5897 62.495 75.0797 62.38 75.6397 62.38C76.4797 62.38 77.0947 62.65 77.4847 63.19C77.8747 63.73 78.0697 64.47 78.0697 65.41V70H75.8647V65.695C75.8647 65.195 75.7847 64.83 75.6247 64.6C75.4647 64.37 75.1797 64.255 74.7697 64.255C74.4697 64.255 74.2047 64.32 73.9747 64.45C73.7547 64.58 73.5147 64.775 73.2547 65.035V70H71.0497V62.56ZM81.5738 64.285H79.6988V62.65L81.6788 62.56L81.9638 60.58H83.7788V62.56H86.9288V64.285H83.7788V66.895C83.7788 67.465 83.9038 67.87 84.1538 68.11C84.4038 68.34 84.7988 68.455 85.3388 68.455C85.6288 68.455 85.8938 68.43 86.1338 68.38C86.3738 68.33 86.6038 68.265 86.8238 68.185L87.2138 69.775C86.8838 69.875 86.5138 69.965 86.1038 70.045C85.7038 70.135 85.2638 70.18 84.7838 70.18C84.1938 70.18 83.6938 70.1 83.2838 69.94C82.8738 69.78 82.5388 69.56 82.2788 69.28C82.0288 68.99 81.8488 68.645 81.7388 68.245C81.6288 67.845 81.5738 67.4 81.5738 66.91V64.285ZM46.2723 107.585V109.76H44.0673V99.56H45.8673L46.0323 100.31H46.0773C46.3773 100.04 46.7223 99.82 47.1123 99.65C47.5023 99.47 47.8973 99.38 48.2973 99.38C48.7573 99.38 49.1723 99.47 49.5423 99.65C49.9123 99.83 50.2273 100.085 50.4873 100.415C50.7473 100.745 50.9423 101.145 51.0723 101.615C51.2123 102.075 51.2823 102.59 51.2823 103.16C51.2823 103.8 51.1923 104.37 51.0123 104.87C50.8323 105.36 50.5923 105.78 50.2923 106.13C49.9923 106.47 49.6473 106.73 49.2573 106.91C48.8773 107.09 48.4773 107.18 48.0573 107.18C47.3773 107.18 46.7573 106.91 46.1973 106.37L46.2723 107.585ZM46.2723 104.885C46.4823 105.065 46.6973 105.195 46.9173 105.275C47.1473 105.345 47.3573 105.38 47.5473 105.38C47.9673 105.38 48.3173 105.21 48.5973 104.87C48.8773 104.52 49.0173 103.96 49.0173 103.19C49.0173 101.85 48.5623 101.18 47.6523 101.18C47.1823 101.18 46.7223 101.41 46.2723 101.87V104.885ZM53.7214 99.56H55.5214L55.7014 101.18H55.7464C56.1164 100.57 56.5614 100.12 57.0814 99.83C57.6014 99.53 58.1614 99.38 58.7614 99.38C59.0914 99.38 59.3564 99.405 59.5564 99.455C59.7664 99.505 59.9814 99.58 60.2014 99.68L59.7514 101.525C59.5214 101.455 59.3114 101.405 59.1214 101.375C58.9414 101.335 58.7114 101.315 58.4314 101.315C57.9714 101.315 57.5164 101.45 57.0664 101.72C56.6264 101.99 56.2464 102.46 55.9264 103.13V107H53.7214V99.56ZM62.1606 99.56H67.3506V107H65.1456V101.285H62.1606V99.56ZM66.1506 98.465C65.7206 98.465 65.3656 98.345 65.0856 98.105C64.8156 97.865 64.6806 97.54 64.6806 97.13C64.6806 96.72 64.8156 96.39 65.0856 96.14C65.3656 95.88 65.7206 95.75 66.1506 95.75C66.5806 95.75 66.9306 95.88 67.2006 96.14C67.4806 96.39 67.6206 96.72 67.6206 97.13C67.6206 97.54 67.4806 97.865 67.2006 98.105C66.9306 98.345 66.5806 98.465 66.1506 98.465ZM71.0497 99.56H72.8497L73.0147 100.55H73.0747C73.3947 100.23 73.7597 99.955 74.1697 99.725C74.5897 99.495 75.0797 99.38 75.6397 99.38C76.4797 99.38 77.0947 99.65 77.4847 100.19C77.8747 100.73 78.0697 101.47 78.0697 102.41V107H75.8647V102.695C75.8647 102.195 75.7847 101.83 75.6247 101.6C75.4647 101.37 75.1797 101.255 74.7697 101.255C74.4697 101.255 74.2047 101.32 73.9747 101.45C73.7547 101.58 73.5147 101.775 73.2547 102.035V107H71.0497V99.56ZM81.5738 101.285H79.6988V99.65L81.6788 99.56L81.9638 97.58H83.7788V99.56H86.9288V101.285H83.7788V103.895C83.7788 104.465 83.9038 104.87 84.1538 105.11C84.4038 105.34 84.7988 105.455 85.3388 105.455C85.6288 105.455 85.8938 105.43 86.1338 105.38C86.3738 105.33 86.6038 105.265 86.8238 105.185L87.2138 106.775C86.8838 106.875 86.5138 106.965 86.1038 107.045C85.7038 107.135 85.2638 107.18 84.7838 107.18C84.1938 107.18 83.6938 107.1 83.2838 106.94C82.8738 106.78 82.5388 106.56 82.2788 106.28C82.0288 105.99 81.8488 105.645 81.7388 105.245C81.6288 104.845 81.5738 104.4 81.5738 103.91V101.285Z" fill="#56B4E9"/>
<path d="M105.007 68.215V70H98.1821V68.215H100.642V62.71H98.6771V61.345C99.2371 61.245 99.7121 61.125 100.102 60.985C100.502 60.845 100.877 60.675 101.227 60.475H102.847V68.215H105.007ZM97.8221 105.74C98.5021 105.17 99.1221 104.64 99.6821 104.15C100.242 103.65 100.722 103.185 101.122 102.755C101.522 102.325 101.832 101.92 102.052 101.54C102.272 101.16 102.382 100.8 102.382 100.46C102.382 99.99 102.247 99.635 101.977 99.395C101.707 99.145 101.322 99.02 100.822 99.02C100.442 99.02 100.092 99.12 99.7721 99.32C99.4621 99.51 99.1721 99.735 98.9021 99.995L97.7171 98.81C97.9671 98.56 98.2121 98.34 98.4521 98.15C98.7021 97.96 98.9621 97.805 99.2321 97.685C99.5121 97.555 99.8021 97.46 100.102 97.4C100.412 97.33 100.752 97.295 101.122 97.295C101.622 97.295 102.077 97.37 102.487 97.52C102.897 97.66 103.247 97.865 103.537 98.135C103.837 98.395 104.067 98.71 104.227 99.08C104.397 99.45 104.482 99.865 104.482 100.325C104.482 100.725 104.387 101.135 104.197 101.555C104.007 101.965 103.747 102.38 103.417 102.8C103.097 103.21 102.727 103.625 102.307 104.045C101.887 104.455 101.447 104.86 100.987 105.26C101.257 105.23 101.547 105.205 101.857 105.185C102.177 105.155 102.462 105.14 102.712 105.14H104.977V107H97.8221V105.74Z" fill="#F0E442"/>
<rect x="223" width="181" height="177" fill="black"/>
<path d="M238.055 160.215V162H231.23V160.215H233.69V154.71H231.725V153.345C232.285 153.245 232.76 153.125 233.15 152.985C233.55 152.845 233.925 152.675 234.275 152.475H235.895V160.215H238.055Z" fill="white"/>
<path d="M234.5 144.18C233.92 144.18 233.385 144.065 232.895 143.835C232.415 143.595 232 143.255 231.65 142.815C231.31 142.375 231.045 141.84 230.855 141.21C230.665 140.58 230.57 139.865 230.57 139.065C230.57 138.265 230.665 137.555 230.855 136.935C231.045 136.305 231.31 135.78 231.65 135.36C232 134.93 232.415 134.605 232.895 134.385C233.385 134.155 233.92 134.04 234.5 134.04C235.08 134.04 235.61 134.155 236.09 134.385C236.58 134.605 236.995 134.93 237.335 135.36C237.685 135.79 237.955 136.32 238.145 136.95C238.335 137.57 238.43 138.275 238.43 139.065C238.43 139.865 238.335 140.58 238.145 141.21C237.955 141.84 237.685 142.375 237.335 142.815C236.995 143.255 236.58 143.595 236.09 143.835C235.61 144.065 235.08 144.18 234.5 144.18ZM234.5 142.275C235.01 142.275 235.415 141.99 235.715 141.42C236.015 140.84 236.165 140.055 236.165 139.065C236.165 138.085 236.015 137.32 235.715 136.77C235.415 136.22 235.01 135.945 234.5 135.945C233.99 135.945 233.585 136.22 233.285 136.77C232.985 137.32 232.835 138.085 232.835 139.065C232.835 140.055 232.985 140.84 233.285 141.42C233.585 141.99 233.99 142.275 234.5 142.275ZM246.869 144H245.069L244.904 142.935H244.844C244.514 143.315 244.149 143.62 243.749 143.85C243.349 144.07 242.879 144.18 242.339 144.18C241.489 144.18 240.874 143.91 240.494 143.37C240.114 142.83 239.924 142.09 239.924 141.15V136.56H242.129V140.865C242.129 141.365 242.204 141.73 242.354 141.96C242.504 142.19 242.789 142.305 243.209 142.305C243.489 142.305 243.734 142.245 243.944 142.125C244.164 142.005 244.404 141.78 244.664 141.45V136.56H246.869V144ZM250.598 138.285H248.723V136.65L250.703 136.56L250.988 134.58H252.803V136.56H255.953V138.285H252.803V140.895C252.803 141.465 252.928 141.87 253.178 142.11C253.428 142.34 253.823 142.455 254.363 142.455C254.653 142.455 254.918 142.43 255.158 142.38C255.398 142.33 255.628 142.265 255.848 142.185L256.238 143.775C255.908 143.875 255.538 143.965 255.128 144.045C254.728 144.135 254.288 144.18 253.808 144.18C253.218 144.18 252.718 144.1 252.308 143.94C251.898 143.78 251.563 143.56 251.303 143.28C251.053 142.99 250.873 142.645 250.763 142.245C250.653 141.845 250.598 141.4 250.598 140.91V138.285ZM260.267 144.585V146.76H258.062V136.56H259.862L260.027 137.31H260.072C260.372 137.04 260.717 136.82 261.107 136.65C261.497 136.47 261.892 136.38 262.292 136.38C262.752 136.38 263.167 136.47 263.537 136.65C263.907 136.83 264.222 137.085 264.482 137.415C264.742 137.745 264.937 138.145 265.067 138.615C265.207 139.075 265.277 139.59 265.277 140.16C265.277 140.8 265.187 141.37 265.007 141.87C264.827 142.36 264.587 142.78 264.287 143.13C263.987 143.47 263.642 143.73 263.252 143.91C262.872 144.09 262.472 144.18 262.052 144.18C261.372 144.18 260.752 143.91 260.192 143.37L260.267 144.585ZM260.267 141.885C260.477 142.065 260.692 142.195 260.912 142.275C261.142 142.345 261.352 142.38 261.542 142.38C261.962 142.38 262.312 142.21 262.592 141.87C262.872 141.52 263.012 140.96 263.012 140.19C263.012 138.85 262.557 138.18 261.647 138.18C261.177 138.18 260.717 138.41 260.267 138.87V141.885ZM273.852 144H272.052L271.887 142.935H271.827C271.497 143.315 271.132 143.62 270.732 143.85C270.332 144.07 269.862 144.18 269.322 144.18C268.472 144.18 267.857 143.91 267.477 143.37C267.097 142.83 266.907 142.09 266.907 141.15V136.56H269.112V140.865C269.112 141.365 269.187 141.73 269.337 141.96C269.487 142.19 269.772 142.305 270.192 142.305C270.472 142.305 270.717 142.245 270.927 142.125C271.147 142.005 271.387 141.78 271.647 141.45V136.56H273.852V144ZM277.581 138.285H275.706V136.65L277.686 136.56L277.971 134.58H279.786V136.56H282.936V138.285H279.786V140.895C279.786 141.465 279.911 141.87 280.161 142.11C280.411 142.34 280.806 142.455 281.346 142.455C281.636 142.455 281.901 142.43 282.141 142.38C282.381 142.33 282.611 142.265 282.831 142.185L283.221 143.775C282.891 143.875 282.521 143.965 282.111 144.045C281.711 144.135 281.271 144.18 280.791 144.18C280.201 144.18 279.701 144.1 279.291 143.94C278.881 143.78 278.546 143.56 278.286 143.28C278.036 142.99 277.856 142.645 277.746 142.245C277.636 141.845 277.581 141.4 277.581 140.91V138.285Z" fill="white"/>
<rect x="302" width="102" height="31" fill="#333333"/>
<rect x="302" width="102" height="31" fill="#333333"/>
<rect x="223.011" width="79" height="31" fill="#090808"/>
<path d="M235.116 17.8101C235.116 17.5513 234.986 17.3486 234.728 17.2021C234.474 17.0508 234.063 16.9165 233.497 16.7993C231.612 16.4038 230.67 15.603 230.67 14.397C230.67 13.6938 230.96 13.1079 231.541 12.6392C232.127 12.1655 232.892 11.9287 233.834 11.9287C234.84 11.9287 235.643 12.1655 236.244 12.6392C236.849 13.1128 237.152 13.728 237.152 14.4849H235.035C235.035 14.1821 234.937 13.9331 234.742 13.7378C234.547 13.5376 234.242 13.4375 233.827 13.4375C233.47 13.4375 233.194 13.5181 232.999 13.6792C232.804 13.8403 232.706 14.0454 232.706 14.2944C232.706 14.5288 232.816 14.7192 233.036 14.8657C233.26 15.0073 233.636 15.1318 234.164 15.2393C234.691 15.3418 235.135 15.459 235.497 15.5908C236.615 16.001 237.174 16.7114 237.174 17.7222C237.174 18.4448 236.864 19.0308 236.244 19.48C235.624 19.9243 234.823 20.1465 233.841 20.1465C233.177 20.1465 232.586 20.0293 232.069 19.7949C231.556 19.5557 231.153 19.231 230.86 18.8208C230.567 18.4058 230.421 17.959 230.421 17.4805H232.428C232.447 17.8564 232.586 18.1445 232.845 18.3447C233.104 18.5449 233.451 18.645 233.885 18.645C234.29 18.645 234.596 18.5693 234.801 18.418C235.011 18.2617 235.116 18.0591 235.116 17.8101ZM241.839 18.4399C242.23 18.4399 242.547 18.3325 242.791 18.1177C243.036 17.9028 243.163 17.6172 243.172 17.2607H245.157C245.152 17.7979 245.006 18.291 244.718 18.7402C244.43 19.1846 244.034 19.5312 243.531 19.7803C243.033 20.0244 242.481 20.1465 241.876 20.1465C240.743 20.1465 239.85 19.7876 239.195 19.0698C238.541 18.3472 238.214 17.3511 238.214 16.0815V15.9424C238.214 14.7217 238.539 13.7476 239.188 13.02C239.837 12.2925 240.728 11.9287 241.861 11.9287C242.853 11.9287 243.646 12.2119 244.242 12.7783C244.842 13.3398 245.147 14.0894 245.157 15.0269H243.172C243.163 14.6167 243.036 14.2847 242.791 14.0308C242.547 13.772 242.225 13.6426 241.825 13.6426C241.332 13.6426 240.958 13.8232 240.704 14.1846C240.455 14.541 240.331 15.1221 240.331 15.9277V16.1475C240.331 16.9629 240.455 17.5488 240.704 17.9053C240.953 18.2617 241.332 18.4399 241.839 18.4399ZM250.819 14.0601C250.531 14.021 250.277 14.0015 250.057 14.0015C249.256 14.0015 248.731 14.2725 248.482 14.8145V20H246.366V12.0752H248.365L248.424 13.02C248.849 12.2925 249.437 11.9287 250.189 11.9287C250.423 11.9287 250.643 11.9604 250.848 12.0239L250.819 14.0601ZM254.078 20H251.954V12.0752H254.078V20ZM251.83 10.0244C251.83 9.70703 251.935 9.4458 252.145 9.24072C252.359 9.03564 252.65 8.93311 253.016 8.93311C253.377 8.93311 253.665 9.03564 253.88 9.24072C254.095 9.4458 254.203 9.70703 254.203 10.0244C254.203 10.3467 254.093 10.6104 253.873 10.8154C253.658 11.0205 253.373 11.123 253.016 11.123C252.66 11.123 252.372 11.0205 252.152 10.8154C251.937 10.6104 251.83 10.3467 251.83 10.0244ZM262.962 16.1108C262.962 17.3315 262.684 18.3105 262.127 19.0479C261.576 19.7803 260.829 20.1465 259.886 20.1465C259.085 20.1465 258.438 19.8682 257.945 19.3115V23.0469H255.829V12.0752H257.791L257.865 12.8516C258.377 12.2363 259.046 11.9287 259.872 11.9287C260.848 11.9287 261.607 12.29 262.149 13.0127C262.691 13.7354 262.962 14.7314 262.962 16.001V16.1108ZM260.846 15.957C260.846 15.2197 260.714 14.6509 260.45 14.2505C260.191 13.8501 259.813 13.6499 259.315 13.6499C258.651 13.6499 258.194 13.9038 257.945 14.4116V17.6562C258.204 18.1787 258.665 18.4399 259.33 18.4399C260.34 18.4399 260.846 17.6123 260.846 15.957ZM266.815 10.127V12.0752H268.17V13.6279H266.815V17.583C266.815 17.876 266.871 18.0859 266.983 18.2129C267.096 18.3398 267.311 18.4033 267.628 18.4033C267.862 18.4033 268.07 18.3862 268.25 18.3521V19.9561C267.835 20.083 267.408 20.1465 266.969 20.1465C265.484 20.1465 264.728 19.397 264.698 17.8979V13.6279H263.541V12.0752H264.698V10.127H266.815ZM269.459 18.96C269.459 18.623 269.571 18.3496 269.796 18.1396C270.025 17.9297 270.311 17.8247 270.653 17.8247C270.999 17.8247 271.285 17.9297 271.51 18.1396C271.739 18.3496 271.854 18.623 271.854 18.96C271.854 19.292 271.742 19.563 271.517 19.7729C271.292 19.978 271.004 20.0806 270.653 20.0806C270.306 20.0806 270.02 19.978 269.796 19.7729C269.571 19.563 269.459 19.292 269.459 18.96ZM280.848 16.1108C280.848 17.3315 280.57 18.3105 280.013 19.0479C279.461 19.7803 278.714 20.1465 277.772 20.1465C276.971 20.1465 276.324 19.8682 275.831 19.3115V23.0469H273.714V12.0752H275.677L275.75 12.8516C276.263 12.2363 276.932 11.9287 277.757 11.9287C278.734 11.9287 279.493 12.29 280.035 13.0127C280.577 13.7354 280.848 14.7314 280.848 16.001V16.1108ZM278.731 15.957C278.731 15.2197 278.6 14.6509 278.336 14.2505C278.077 13.8501 277.699 13.6499 277.201 13.6499C276.537 13.6499 276.08 13.9038 275.831 14.4116V17.6562C276.09 18.1787 276.551 18.4399 277.215 18.4399C278.226 18.4399 278.731 17.6123 278.731 15.957ZM285.038 17.0044L286.502 12.0752H288.773L285.587 21.2305L285.411 21.6479C284.937 22.6831 284.156 23.2007 283.067 23.2007C282.76 23.2007 282.447 23.1543 282.13 23.0615V21.4575L282.452 21.4648C282.853 21.4648 283.15 21.4038 283.346 21.2817C283.546 21.1597 283.702 20.957 283.814 20.6738L284.063 20.022L281.288 12.0752H283.565L285.038 17.0044Z" fill="white"/>
<line x1="223" y1="123.5" x2="404" y2="123.5" stroke="white"/>
<path d="M231.196 43.56H236.386V51H234.181V45.285H231.196V43.56ZM235.186 42.465C234.756 42.465 234.401 42.345 234.121 42.105C233.851 41.865 233.716 41.54 233.716 41.13C233.716 40.72 233.851 40.39 234.121 40.14C234.401 39.88 234.756 39.75 235.186 39.75C235.616 39.75 235.966 39.88 236.236 40.14C236.516 40.39 236.656 40.72 236.656 41.13C236.656 41.54 236.516 41.865 236.236 42.105C235.966 42.345 235.616 42.465 235.186 42.465ZM247.36 42.33C246.87 42.14 246.35 42.045 245.8 42.045C245.32 42.045 244.965 42.15 244.735 42.36C244.515 42.57 244.405 42.9 244.405 43.35V43.56H246.97V45.285H244.405V51H242.2V45.285H240.235V43.65L242.2 43.56V43.365C242.2 42.935 242.265 42.535 242.395 42.165C242.525 41.795 242.725 41.475 242.995 41.205C243.265 40.925 243.61 40.705 244.03 40.545C244.45 40.385 244.95 40.305 245.53 40.305C245.96 40.305 246.36 40.345 246.73 40.425C247.11 40.505 247.46 40.6 247.78 40.71L247.36 42.33ZM260.383 43.08H257.458V41.22H265.528V43.08H262.603V51H260.383V43.08ZM267.727 43.56H269.527L269.707 45.18H269.752C270.122 44.57 270.567 44.12 271.087 43.83C271.607 43.53 272.167 43.38 272.767 43.38C273.097 43.38 273.362 43.405 273.562 43.455C273.772 43.505 273.987 43.58 274.207 43.68L273.757 45.525C273.527 45.455 273.317 45.405 273.127 45.375C272.947 45.335 272.717 45.315 272.437 45.315C271.977 45.315 271.522 45.45 271.072 45.72C270.632 45.99 270.252 46.46 269.932 47.13V51H267.727V43.56ZM282.856 51H281.056L280.891 49.935H280.831C280.501 50.315 280.136 50.62 279.736 50.85C279.336 51.07 278.866 51.18 278.326 51.18C277.476 51.18 276.861 50.91 276.481 50.37C276.101 49.83 275.911 49.09 275.911 48.15V43.56H278.116V47.865C278.116 48.365 278.191 48.73 278.341 48.96C278.491 49.19 278.776 49.305 279.196 49.305C279.476 49.305 279.721 49.245 279.931 49.125C280.151 49.005 280.391 48.78 280.651 48.45V43.56H282.856V51ZM284.801 47.28C284.801 46.67 284.906 46.125 285.116 45.645C285.336 45.165 285.626 44.76 285.986 44.43C286.346 44.09 286.756 43.83 287.216 43.65C287.686 43.47 288.171 43.38 288.671 43.38C289.241 43.38 289.746 43.47 290.186 43.65C290.626 43.83 290.991 44.08 291.281 44.4C291.571 44.72 291.791 45.1 291.941 45.54C292.091 45.97 292.166 46.44 292.166 46.95C292.166 47.15 292.156 47.34 292.136 47.52C292.116 47.7 292.096 47.835 292.076 47.925H287.066C287.146 48.485 287.386 48.89 287.786 49.14C288.196 49.38 288.676 49.5 289.226 49.5C289.566 49.5 289.886 49.46 290.186 49.38C290.496 49.29 290.816 49.16 291.146 48.99L291.866 50.31C291.446 50.58 290.976 50.795 290.456 50.955C289.936 51.105 289.426 51.18 288.926 51.18C288.346 51.18 287.806 51.095 287.306 50.925C286.806 50.745 286.371 50.49 286.001 50.16C285.631 49.82 285.336 49.41 285.116 48.93C284.906 48.45 284.801 47.9 284.801 47.28ZM290.171 46.47C290.171 46.05 290.056 45.71 289.826 45.45C289.596 45.19 289.226 45.06 288.716 45.06C288.316 45.06 287.961 45.175 287.651 45.405C287.341 45.635 287.136 45.99 287.036 46.47H290.171ZM230.836 84.28C230.836 83.67 230.941 83.125 231.151 82.645C231.371 82.165 231.661 81.76 232.021 81.43C232.381 81.09 232.791 80.83 233.251 80.65C233.721 80.47 234.206 80.38 234.706 80.38C235.276 80.38 235.781 80.47 236.221 80.65C236.661 80.83 237.026 81.08 237.316 81.4C237.606 81.72 237.826 82.1 237.976 82.54C238.126 82.97 238.201 83.44 238.201 83.95C238.201 84.15 238.191 84.34 238.171 84.52C238.151 84.7 238.131 84.835 238.111 84.925H233.101C233.181 85.485 233.421 85.89 233.821 86.14C234.231 86.38 234.711 86.5 235.261 86.5C235.601 86.5 235.921 86.46 236.221 86.38C236.531 86.29 236.851 86.16 237.181 85.99L237.901 87.31C237.481 87.58 237.011 87.795 236.491 87.955C235.971 88.105 235.461 88.18 234.961 88.18C234.381 88.18 233.841 88.095 233.341 87.925C232.841 87.745 232.406 87.49 232.036 87.16C231.666 86.82 231.371 86.41 231.151 85.93C230.941 85.45 230.836 84.9 230.836 84.28ZM236.206 83.47C236.206 83.05 236.091 82.71 235.861 82.45C235.631 82.19 235.261 82.06 234.751 82.06C234.351 82.06 233.996 82.175 233.686 82.405C233.376 82.635 233.171 82.99 233.071 83.47H236.206ZM239.935 77.485H244.3V85.18C244.3 85.41 244.33 85.605 244.39 85.765C244.46 85.915 244.55 86.04 244.66 86.14C244.78 86.23 244.91 86.295 245.05 86.335C245.2 86.375 245.35 86.395 245.5 86.395C245.67 86.395 245.85 86.38 246.04 86.35C246.23 86.31 246.44 86.245 246.67 86.155L247.165 87.775C246.965 87.835 246.78 87.89 246.61 87.94C246.44 87.99 246.27 88.03 246.1 88.06C245.93 88.1 245.75 88.13 245.56 88.15C245.37 88.17 245.16 88.18 244.93 88.18C243.99 88.18 243.28 87.905 242.8 87.355C242.33 86.795 242.095 86.04 242.095 85.09V79.225H239.935V77.485ZM249.784 85.66C250.214 85.93 250.644 86.145 251.074 86.305C251.514 86.465 251.984 86.545 252.484 86.545C252.994 86.545 253.359 86.49 253.579 86.38C253.799 86.27 253.909 86.115 253.909 85.915C253.909 85.685 253.724 85.5 253.354 85.36C252.994 85.21 252.514 85.05 251.914 84.88C251.584 84.79 251.259 84.685 250.939 84.565C250.629 84.435 250.349 84.285 250.099 84.115C249.849 83.935 249.644 83.73 249.484 83.5C249.334 83.27 249.259 83.005 249.259 82.705C249.259 82.365 249.339 82.05 249.499 81.76C249.659 81.47 249.884 81.225 250.174 81.025C250.474 80.825 250.834 80.67 251.254 80.56C251.684 80.44 252.164 80.38 252.694 80.38C253.354 80.38 253.954 80.49 254.494 80.71C255.044 80.92 255.514 81.15 255.904 81.4L254.914 82.72C254.574 82.52 254.224 82.355 253.864 82.225C253.504 82.085 253.129 82.015 252.739 82.015C252.269 82.015 251.934 82.065 251.734 82.165C251.544 82.265 251.449 82.41 251.449 82.6C251.449 82.71 251.499 82.81 251.599 82.9C251.699 82.99 251.834 83.07 252.004 83.14C252.174 83.21 252.374 83.28 252.604 83.35C252.844 83.41 253.094 83.475 253.354 83.545C253.724 83.645 254.074 83.76 254.404 83.89C254.734 84.01 255.024 84.155 255.274 84.325C255.524 84.495 255.724 84.7 255.874 84.94C256.024 85.18 256.099 85.46 256.099 85.78C256.099 86.12 256.019 86.435 255.859 86.725C255.699 87.015 255.464 87.27 255.154 87.49C254.854 87.7 254.474 87.87 254.014 88C253.564 88.12 253.039 88.18 252.439 88.18C251.769 88.18 251.114 88.07 250.474 87.85C249.834 87.63 249.274 87.36 248.794 87.04L249.784 85.66ZM257.818 84.28C257.818 83.67 257.923 83.125 258.133 82.645C258.353 82.165 258.643 81.76 259.003 81.43C259.363 81.09 259.773 80.83 260.233 80.65C260.703 80.47 261.188 80.38 261.688 80.38C262.258 80.38 262.763 80.47 263.203 80.65C263.643 80.83 264.008 81.08 264.298 81.4C264.588 81.72 264.808 82.1 264.958 82.54C265.108 82.97 265.183 83.44 265.183 83.95C265.183 84.15 265.173 84.34 265.153 84.52C265.133 84.7 265.113 84.835 265.093 84.925H260.083C260.163 85.485 260.403 85.89 260.803 86.14C261.213 86.38 261.693 86.5 262.243 86.5C262.583 86.5 262.903 86.46 263.203 86.38C263.513 86.29 263.833 86.16 264.163 85.99L264.883 87.31C264.463 87.58 263.993 87.795 263.473 87.955C262.953 88.105 262.443 88.18 261.943 88.18C261.363 88.18 260.823 88.095 260.323 87.925C259.823 87.745 259.388 87.49 259.018 87.16C258.648 86.82 258.353 86.41 258.133 85.93C257.923 85.45 257.818 84.9 257.818 84.28ZM263.188 83.47C263.188 83.05 263.073 82.71 262.843 82.45C262.613 82.19 262.243 82.06 261.733 82.06C261.333 82.06 260.978 82.175 260.668 82.405C260.358 82.635 260.153 82.99 260.053 83.47H263.188Z" fill="#E69F00"/>
<path d="M295.73 44.58C295.73 44.33 295.77 44.1 295.85 43.89C295.94 43.67 296.06 43.48 296.21 43.32C296.36 43.16 296.54 43.035 296.75 42.945C296.97 42.855 297.21 42.81 297.47 42.81C297.73 42.81 297.965 42.855 298.175 42.945C298.395 43.035 298.58 43.16 298.73 43.32C298.88 43.48 298.995 43.67 299.075 43.89C299.165 44.1 299.21 44.33 299.21 44.58C299.21 45.08 299.05 45.5 298.73 45.84C298.41 46.17 297.99 46.335 297.47 46.335C296.95 46.335 296.53 46.17 296.21 45.84C295.89 45.5 295.73 45.08 295.73 44.58ZM295.73 49.425C295.73 49.175 295.77 48.945 295.85 48.735C295.94 48.515 296.06 48.325 296.21 48.165C296.36 48.005 296.54 47.88 296.75 47.79C296.97 47.7 297.21 47.655 297.47 47.655C297.73 47.655 297.965 47.7 298.175 47.79C298.395 47.88 298.58 48.005 298.73 48.165C298.88 48.325 298.995 48.515 299.075 48.735C299.165 48.945 299.21 49.175 299.21 49.425C299.21 49.925 299.05 50.345 298.73 50.685C298.41 51.015 297.99 51.18 297.47 51.18C296.95 51.18 296.53 51.015 296.21 50.685C295.89 50.345 295.73 49.925 295.73 49.425ZM316.838 72.685C315.858 71.815 315.083 70.81 314.513 69.67C313.953 68.53 313.673 67.25 313.673 65.83C313.673 64.41 313.953 63.13 314.513 61.99C315.083 60.85 315.858 59.845 316.838 58.975L318.068 59.95C317.178 60.82 316.528 61.725 316.118 62.665C315.718 63.595 315.518 64.65 315.518 65.83C315.518 66.42 315.568 66.98 315.668 67.51C315.768 68.03 315.918 68.53 316.118 69.01C316.328 69.49 316.593 69.95 316.913 70.39C317.233 70.84 317.618 71.28 318.068 71.71L316.838 72.685ZM330.836 71.71C331.286 71.28 331.671 70.84 331.991 70.39C332.311 69.95 332.571 69.49 332.771 69.01C332.981 68.53 333.136 68.03 333.236 67.51C333.336 66.98 333.386 66.42 333.386 65.83C333.386 64.65 333.181 63.595 332.771 62.665C332.371 61.725 331.726 60.82 330.836 59.95L332.066 58.975C333.046 59.845 333.816 60.85 334.376 61.99C334.946 63.13 335.231 64.41 335.231 65.83C335.231 67.25 334.946 68.53 334.376 69.67C333.816 70.81 333.046 71.815 332.066 72.685L330.836 71.71ZM268.747 81.58C268.747 81.33 268.787 81.1 268.867 80.89C268.957 80.67 269.077 80.48 269.227 80.32C269.377 80.16 269.557 80.035 269.767 79.945C269.987 79.855 270.227 79.81 270.487 79.81C270.747 79.81 270.982 79.855 271.192 79.945C271.412 80.035 271.597 80.16 271.747 80.32C271.897 80.48 272.012 80.67 272.092 80.89C272.182 81.1 272.227 81.33 272.227 81.58C272.227 82.08 272.067 82.5 271.747 82.84C271.427 83.17 271.007 83.335 270.487 83.335C269.967 83.335 269.547 83.17 269.227 82.84C268.907 82.5 268.747 82.08 268.747 81.58ZM268.747 86.425C268.747 86.175 268.787 85.945 268.867 85.735C268.957 85.515 269.077 85.325 269.227 85.165C269.377 85.005 269.557 84.88 269.767 84.79C269.987 84.7 270.227 84.655 270.487 84.655C270.747 84.655 270.982 84.7 271.192 84.79C271.412 84.88 271.597 85.005 271.747 85.165C271.897 85.325 272.012 85.515 272.092 85.735C272.182 85.945 272.227 86.175 272.227 86.425C272.227 86.925 272.067 87.345 271.747 87.685C271.427 88.015 271.007 88.18 270.487 88.18C269.967 88.18 269.547 88.015 269.227 87.685C268.907 87.345 268.747 86.925 268.747 86.425ZM316.838 109.685C315.858 108.815 315.083 107.81 314.513 106.67C313.953 105.53 313.673 104.25 313.673 102.83C313.673 101.41 313.953 100.13 314.513 98.99C315.083 97.85 315.858 96.845 316.838 95.975L318.068 96.95C317.178 97.82 316.528 98.725 316.118 99.665C315.718 100.595 315.518 101.65 315.518 102.83C315.518 103.42 315.568 103.98 315.668 104.51C315.768 105.03 315.918 105.53 316.118 106.01C316.328 106.49 316.593 106.95 316.913 107.39C317.233 107.84 317.618 108.28 318.068 108.71L316.838 109.685ZM330.836 108.71C331.286 108.28 331.671 107.84 331.991 107.39C332.311 106.95 332.571 106.49 332.771 106.01C332.981 105.53 333.136 105.03 333.236 104.51C333.336 103.98 333.386 103.42 333.386 102.83C333.386 101.65 333.181 100.595 332.771 99.665C332.371 98.725 331.726 97.82 330.836 96.95L332.066 95.975C333.046 96.845 333.816 97.85 334.376 98.99C334.946 100.13 335.231 101.41 335.231 102.83C335.231 104.25 334.946 105.53 334.376 106.67C333.816 107.81 333.046 108.815 332.066 109.685L330.836 108.71Z" fill="white"/>
<path d="M269.272 70.585V72.76H267.067V62.56H268.867L269.032 63.31H269.077C269.377 63.04 269.722 62.82 270.112 62.65C270.502 62.47 270.897 62.38 271.297 62.38C271.757 62.38 272.172 62.47 272.542 62.65C272.912 62.83 273.227 63.085 273.487 63.415C273.747 63.745 273.942 64.145 274.072 64.615C274.212 65.075 274.282 65.59 274.282 66.16C274.282 66.8 274.192 67.37 274.012 67.87C273.832 68.36 273.592 68.78 273.292 69.13C272.992 69.47 272.647 69.73 272.257 69.91C271.877 70.09 271.477 70.18 271.057 70.18C270.377 70.18 269.757 69.91 269.197 69.37L269.272 70.585ZM269.272 67.885C269.482 68.065 269.697 68.195 269.917 68.275C270.147 68.345 270.357 68.38 270.547 68.38C270.967 68.38 271.317 68.21 271.597 67.87C271.877 67.52 272.017 66.96 272.017 66.19C272.017 64.85 271.562 64.18 270.652 64.18C270.182 64.18 269.722 64.41 269.272 64.87V67.885ZM276.721 62.56H278.521L278.701 64.18H278.746C279.116 63.57 279.561 63.12 280.081 62.83C280.601 62.53 281.161 62.38 281.761 62.38C282.091 62.38 282.356 62.405 282.556 62.455C282.766 62.505 282.981 62.58 283.201 62.68L282.751 64.525C282.521 64.455 282.311 64.405 282.121 64.375C281.941 64.335 281.711 64.315 281.431 64.315C280.971 64.315 280.516 64.45 280.066 64.72C279.626 64.99 279.246 65.46 278.926 66.13V70H276.721V62.56ZM285.161 62.56H290.351V70H288.146V64.285H285.161V62.56ZM289.151 61.465C288.721 61.465 288.366 61.345 288.086 61.105C287.816 60.865 287.681 60.54 287.681 60.13C287.681 59.72 287.816 59.39 288.086 59.14C288.366 58.88 288.721 58.75 289.151 58.75C289.581 58.75 289.931 58.88 290.201 59.14C290.481 59.39 290.621 59.72 290.621 60.13C290.621 60.54 290.481 60.865 290.201 61.105C289.931 61.345 289.581 61.465 289.151 61.465ZM294.05 62.56H295.85L296.015 63.55H296.075C296.395 63.23 296.76 62.955 297.17 62.725C297.59 62.495 298.08 62.38 298.64 62.38C299.48 62.38 300.095 62.65 300.485 63.19C300.875 63.73 301.07 64.47 301.07 65.41V70H298.865V65.695C298.865 65.195 298.785 64.83 298.625 64.6C298.465 64.37 298.18 64.255 297.77 64.255C297.47 64.255 297.205 64.32 296.975 64.45C296.755 64.58 296.515 64.775 296.255 65.035V70H294.05V62.56ZM304.574 64.285H302.699V62.65L304.679 62.56L304.964 60.58H306.779V62.56H309.929V64.285H306.779V66.895C306.779 67.465 306.904 67.87 307.154 68.11C307.404 68.34 307.799 68.455 308.339 68.455C308.629 68.455 308.894 68.43 309.134 68.38C309.374 68.33 309.604 68.265 309.824 68.185L310.214 69.775C309.884 69.875 309.514 69.965 309.104 70.045C308.704 70.135 308.264 70.18 307.784 70.18C307.194 70.18 306.694 70.1 306.284 69.94C305.874 69.78 305.539 69.56 305.279 69.28C305.029 68.99 304.849 68.645 304.739 68.245C304.629 67.845 304.574 67.4 304.574 66.91V64.285ZM269.272 107.585V109.76H267.067V99.56H268.867L269.032 100.31H269.077C269.377 100.04 269.722 99.82 270.112 99.65C270.502 99.47 270.897 99.38 271.297 99.38C271.757 99.38 272.172 99.47 272.542 99.65C272.912 99.83 273.227 100.085 273.487 100.415C273.747 100.745 273.942 101.145 274.072 101.615C274.212 102.075 274.282 102.59 274.282 103.16C274.282 103.8 274.192 104.37 274.012 104.87C273.832 105.36 273.592 105.78 273.292 106.13C272.992 106.47 272.647 106.73 272.257 106.91C271.877 107.09 271.477 107.18 271.057 107.18C270.377 107.18 269.757 106.91 269.197 106.37L269.272 107.585ZM269.272 104.885C269.482 105.065 269.697 105.195 269.917 105.275C270.147 105.345 270.357 105.38 270.547 105.38C270.967 105.38 271.317 105.21 271.597 104.87C271.877 104.52 272.017 103.96 272.017 103.19C272.017 101.85 271.562 101.18 270.652 101.18C270.182 101.18 269.722 101.41 269.272 101.87V104.885ZM276.721 99.56H278.521L278.701 101.18H278.746C279.116 100.57 279.561 100.12 280.081 99.83C280.601 99.53 281.161 99.38 281.761 99.38C282.091 99.38 282.356 99.405 282.556 99.455C282.766 99.505 282.981 99.58 283.201 99.68L282.751 101.525C282.521 101.455 282.311 101.405 282.121 101.375C281.941 101.335 281.711 101.315 281.431 101.315C280.971 101.315 280.516 101.45 280.066 101.72C279.626 101.99 279.246 102.46 278.926 103.13V107H276.721V99.56ZM285.161 99.56H290.351V107H288.146V101.285H285.161V99.56ZM289.151 98.465C288.721 98.465 288.366 98.345 288.086 98.105C287.816 97.865 287.681 97.54 287.681 97.13C287.681 96.72 287.816 96.39 288.086 96.14C288.366 95.88 288.721 95.75 289.151 95.75C289.581 95.75 289.931 95.88 290.201 96.14C290.481 96.39 290.621 96.72 290.621 97.13C290.621 97.54 290.481 97.865 290.201 98.105C289.931 98.345 289.581 98.465 289.151 98.465ZM294.05 99.56H295.85L296.015 100.55H296.075C296.395 100.23 296.76 99.955 297.17 99.725C297.59 99.495 298.08 99.38 298.64 99.38C299.48 99.38 300.095 99.65 300.485 100.19C300.875 100.73 301.07 101.47 301.07 102.41V107H298.865V102.695C298.865 102.195 298.785 101.83 298.625 101.6C298.465 101.37 298.18 101.255 297.77 101.255C297.47 101.255 297.205 101.32 296.975 101.45C296.755 101.58 296.515 101.775 296.255 102.035V107H294.05V99.56ZM304.574 101.285H302.699V99.65L304.679 99.56L304.964 97.58H306.779V99.56H309.929V101.285H306.779V103.895C306.779 104.465 306.904 104.87 307.154 105.11C307.404 105.34 307.799 105.455 308.339 105.455C308.629 105.455 308.894 105.43 309.134 105.38C309.374 105.33 309.604 105.265 309.824 105.185L310.214 106.775C309.884 106.875 309.514 106.965 309.104 107.045C308.704 107.135 308.264 107.18 307.784 107.18C307.194 107.18 306.694 107.1 306.284 106.94C305.874 106.78 305.539 106.56 305.279 106.28C305.029 105.99 304.849 105.645 304.739 105.245C304.629 104.845 304.574 104.4 304.574 103.91V101.285Z" fill="#56B4E9"/>
<path d="M328.007 68.215V70H321.182V68.215H323.642V62.71H321.677V61.345C322.237 61.245 322.712 61.125 323.102 60.985C323.502 60.845 323.877 60.675 324.227 60.475H325.847V68.215H328.007ZM320.822 105.74C321.502 105.17 322.122 104.64 322.682 104.15C323.242 103.65 323.722 103.185 324.122 102.755C324.522 102.325 324.832 101.92 325.052 101.54C325.272 101.16 325.382 100.8 325.382 100.46C325.382 99.99 325.247 99.635 324.977 99.395C324.707 99.145 324.322 99.02 323.822 99.02C323.442 99.02 323.092 99.12 322.772 99.32C322.462 99.51 322.172 99.735 321.902 99.995L320.717 98.81C320.967 98.56 321.212 98.34 321.452 98.15C321.702 97.96 321.962 97.805 322.232 97.685C322.512 97.555 322.802 97.46 323.102 97.4C323.412 97.33 323.752 97.295 324.122 97.295C324.622 97.295 325.077 97.37 325.487 97.52C325.897 97.66 326.247 97.865 326.537 98.135C326.837 98.395 327.067 98.71 327.227 99.08C327.397 99.45 327.482 99.865 327.482 100.325C327.482 100.725 327.387 101.135 327.197 101.555C327.007 101.965 326.747 102.38 326.417 102.8C326.097 103.21 325.727 103.625 325.307 104.045C324.887 104.455 324.447 104.86 323.987 105.26C324.257 105.23 324.547 105.205 324.857 105.185C325.177 105.155 325.462 105.14 325.712 105.14H327.977V107H320.822V105.74Z" fill="#F0E442"/>
</svg>
