<svg width="371" height="268" viewBox="0 0 371 268" fill="none" xmlns="http://www.w3.org/2000/svg">
<rect x="1" width="370" height="268" fill="black"/>
<path d="M139.312 120.226C138.912 120.607 138.896 121.24 139.277 121.64L145.482 128.159C145.863 128.559 146.496 128.575 146.896 128.194C147.296 127.813 147.311 127.18 146.93 126.78L141.415 120.986L147.21 115.47C147.61 115.089 147.625 114.456 147.245 114.056C146.864 113.656 146.231 113.641 145.831 114.021L139.312 120.226ZM223.025 122L140.026 119.951L139.977 121.95L222.975 124L223.025 122Z" fill="#F0E442"/>
<path d="M146.156 139.464C145.86 139.931 145.998 140.549 146.464 140.844L154.064 145.666C154.53 145.962 155.148 145.823 155.444 145.357C155.74 144.891 155.602 144.273 155.135 143.977L148.38 139.691L152.666 132.936C152.962 132.47 152.823 131.852 152.357 131.556C151.891 131.26 151.273 131.398 150.977 131.865L146.156 139.464ZM222.782 122.024L146.782 139.024L147.218 140.976L223.218 123.976L222.782 122.024Z" fill="#F0E442"/>
<path d="M8.915 199.93C8.915 199.51 9.005 199.145 9.185 198.835C9.365 198.515 9.65 198.245 10.04 198.025C10.44 197.805 10.95 197.63 11.57 197.5C12.19 197.36 12.94 197.265 13.82 197.215C13.78 196.875 13.63 196.61 13.37 196.42C13.12 196.23 12.74 196.135 12.23 196.135C11.87 196.135 11.505 196.2 11.135 196.33C10.775 196.45 10.385 196.615 9.965 196.825L9.185 195.385C9.695 195.095 10.24 194.855 10.82 194.665C11.41 194.475 12.025 194.38 12.665 194.38C13.705 194.38 14.525 194.655 15.125 195.205C15.725 195.755 16.025 196.6 16.025 197.74V202H14.225L14.06 201.16H14C13.62 201.45 13.205 201.695 12.755 201.895C12.305 202.085 11.84 202.18 11.36 202.18C10.98 202.18 10.64 202.12 10.34 202C10.04 201.89 9.785 201.735 9.575 201.535C9.365 201.325 9.2 201.085 9.08 200.815C8.97 200.545 8.915 200.25 8.915 199.93ZM11.03 199.765C11.03 200.005 11.12 200.185 11.3 200.305C11.49 200.415 11.745 200.47 12.065 200.47C12.395 200.47 12.705 200.405 12.995 200.275C13.285 200.135 13.56 199.965 13.82 199.765V198.535C13.27 198.565 12.815 198.615 12.455 198.685C12.095 198.755 11.81 198.845 11.6 198.955C11.39 199.055 11.24 199.175 11.15 199.315C11.07 199.455 11.03 199.605 11.03 199.765ZM17.9091 199.93C17.9091 199.51 17.9991 199.145 18.1791 198.835C18.3591 198.515 18.6441 198.245 19.0341 198.025C19.4341 197.805 19.9441 197.63 20.5641 197.5C21.1841 197.36 21.9341 197.265 22.8141 197.215C22.7741 196.875 22.6241 196.61 22.3641 196.42C22.1141 196.23 21.7341 196.135 21.2241 196.135C20.8641 196.135 20.4991 196.2 20.1291 196.33C19.7691 196.45 19.3791 196.615 18.9591 196.825L18.1791 195.385C18.6891 195.095 19.2341 194.855 19.8141 194.665C20.4041 194.475 21.0191 194.38 21.6591 194.38C22.6991 194.38 23.5191 194.655 24.1191 195.205C24.7191 195.755 25.0191 196.6 25.0191 197.74V202H23.2191L23.0541 201.16H22.9941C22.6141 201.45 22.1991 201.695 21.7491 201.895C21.2991 202.085 20.8341 202.18 20.3541 202.18C19.9741 202.18 19.6341 202.12 19.3341 202C19.0341 201.89 18.7791 201.735 18.5691 201.535C18.3591 201.325 18.1941 201.085 18.0741 200.815C17.9641 200.545 17.9091 200.25 17.9091 199.93ZM20.0241 199.765C20.0241 200.005 20.1141 200.185 20.2941 200.305C20.4841 200.415 20.7391 200.47 21.0591 200.47C21.3891 200.47 21.6991 200.405 21.9891 200.275C22.2791 200.135 22.5541 199.965 22.8141 199.765V198.535C22.2641 198.565 21.8091 198.615 21.4491 198.685C21.0891 198.755 20.8041 198.845 20.5941 198.955C20.3841 199.055 20.2341 199.175 20.1441 199.315C20.0641 199.455 20.0241 199.605 20.0241 199.765ZM8.915 218.93C8.915 218.51 9.005 218.145 9.185 217.835C9.365 217.515 9.65 217.245 10.04 217.025C10.44 216.805 10.95 216.63 11.57 216.5C12.19 216.36 12.94 216.265 13.82 216.215C13.78 215.875 13.63 215.61 13.37 215.42C13.12 215.23 12.74 215.135 12.23 215.135C11.87 215.135 11.505 215.2 11.135 215.33C10.775 215.45 10.385 215.615 9.965 215.825L9.185 214.385C9.695 214.095 10.24 213.855 10.82 213.665C11.41 213.475 12.025 213.38 12.665 213.38C13.705 213.38 14.525 213.655 15.125 214.205C15.725 214.755 16.025 215.6 16.025 216.74V221H14.225L14.06 220.16H14C13.62 220.45 13.205 220.695 12.755 220.895C12.305 221.085 11.84 221.18 11.36 221.18C10.98 221.18 10.64 221.12 10.34 221C10.04 220.89 9.785 220.735 9.575 220.535C9.365 220.325 9.2 220.085 9.08 219.815C8.97 219.545 8.915 219.25 8.915 218.93ZM11.03 218.765C11.03 219.005 11.12 219.185 11.3 219.305C11.49 219.415 11.745 219.47 12.065 219.47C12.395 219.47 12.705 219.405 12.995 219.275C13.285 219.135 13.56 218.965 13.82 218.765V217.535C13.27 217.565 12.815 217.615 12.455 217.685C12.095 217.755 11.81 217.845 11.6 217.955C11.39 218.055 11.24 218.175 11.15 218.315C11.07 218.455 11.03 218.605 11.03 218.765ZM17.9091 218.93C17.9091 218.51 17.9991 218.145 18.1791 217.835C18.3591 217.515 18.6441 217.245 19.0341 217.025C19.4341 216.805 19.9441 216.63 20.5641 216.5C21.1841 216.36 21.9341 216.265 22.8141 216.215C22.7741 215.875 22.6241 215.61 22.3641 215.42C22.1141 215.23 21.7341 215.135 21.2241 215.135C20.8641 215.135 20.4991 215.2 20.1291 215.33C19.7691 215.45 19.3791 215.615 18.9591 215.825L18.1791 214.385C18.6891 214.095 19.2341 213.855 19.8141 213.665C20.4041 213.475 21.0191 213.38 21.6591 213.38C22.6991 213.38 23.5191 213.655 24.1191 214.205C24.7191 214.755 25.0191 215.6 25.0191 216.74V221H23.2191L23.0541 220.16H22.9941C22.6141 220.45 22.1991 220.695 21.7491 220.895C21.2991 221.085 20.8341 221.18 20.3541 221.18C19.9741 221.18 19.6341 221.12 19.3341 221C19.0341 220.89 18.7791 220.735 18.5691 220.535C18.3591 220.325 18.1941 220.085 18.0741 219.815C17.9641 219.545 17.9091 219.25 17.9091 218.93ZM20.0241 218.765C20.0241 219.005 20.1141 219.185 20.2941 219.305C20.4841 219.415 20.7391 219.47 21.0591 219.47C21.3891 219.47 21.6991 219.405 21.9891 219.275C22.2791 219.135 22.5541 218.965 22.8141 218.765V217.535C22.2641 217.565 21.8091 217.615 21.4491 217.685C21.0891 217.755 20.8041 217.845 20.5941 217.955C20.3841 218.055 20.2341 218.175 20.1441 218.315C20.0641 218.455 20.0241 218.605 20.0241 218.765ZM26.9033 218.93C26.9033 218.51 26.9933 218.145 27.1733 217.835C27.3533 217.515 27.6383 217.245 28.0283 217.025C28.4283 216.805 28.9383 216.63 29.5583 216.5C30.1783 216.36 30.9283 216.265 31.8083 216.215C31.7683 215.875 31.6183 215.61 31.3583 215.42C31.1083 215.23 30.7283 215.135 30.2183 215.135C29.8583 215.135 29.4933 215.2 29.1233 215.33C28.7633 215.45 28.3733 215.615 27.9533 215.825L27.1733 214.385C27.6833 214.095 28.2283 213.855 28.8083 213.665C29.3983 213.475 30.0133 213.38 30.6533 213.38C31.6933 213.38 32.5133 213.655 33.1133 214.205C33.7133 214.755 34.0133 215.6 34.0133 216.74V221H32.2133L32.0483 220.16H31.9883C31.6083 220.45 31.1933 220.695 30.7433 220.895C30.2933 221.085 29.8283 221.18 29.3483 221.18C28.9683 221.18 28.6283 221.12 28.3283 221C28.0283 220.89 27.7733 220.735 27.5633 220.535C27.3533 220.325 27.1883 220.085 27.0683 219.815C26.9583 219.545 26.9033 219.25 26.9033 218.93ZM29.0183 218.765C29.0183 219.005 29.1083 219.185 29.2883 219.305C29.4783 219.415 29.7333 219.47 30.0533 219.47C30.3833 219.47 30.6933 219.405 30.9833 219.275C31.2733 219.135 31.5483 218.965 31.8083 218.765V217.535C31.2583 217.565 30.8033 217.615 30.4433 217.685C30.0833 217.755 29.7983 217.845 29.5883 217.955C29.3783 218.055 29.2283 218.175 29.1383 218.315C29.0583 218.455 29.0183 218.605 29.0183 218.765ZM35.8974 218.93C35.8974 218.51 35.9874 218.145 36.1674 217.835C36.3474 217.515 36.6324 217.245 37.0224 217.025C37.4224 216.805 37.9324 216.63 38.5524 216.5C39.1724 216.36 39.9224 216.265 40.8024 216.215C40.7624 215.875 40.6124 215.61 40.3524 215.42C40.1024 215.23 39.7224 215.135 39.2124 215.135C38.8524 215.135 38.4874 215.2 38.1174 215.33C37.7574 215.45 37.3674 215.615 36.9474 215.825L36.1674 214.385C36.6774 214.095 37.2224 213.855 37.8024 213.665C38.3924 213.475 39.0074 213.38 39.6474 213.38C40.6874 213.38 41.5074 213.655 42.1074 214.205C42.7074 214.755 43.0074 215.6 43.0074 216.74V221H41.2074L41.0424 220.16H40.9824C40.6024 220.45 40.1874 220.695 39.7374 220.895C39.2874 221.085 38.8224 221.18 38.3424 221.18C37.9624 221.18 37.6224 221.12 37.3224 221C37.0224 220.89 36.7674 220.735 36.5574 220.535C36.3474 220.325 36.1824 220.085 36.0624 219.815C35.9524 219.545 35.8974 219.25 35.8974 218.93ZM38.0124 218.765C38.0124 219.005 38.1024 219.185 38.2824 219.305C38.4724 219.415 38.7274 219.47 39.0474 219.47C39.3774 219.47 39.6874 219.405 39.9774 219.275C40.2674 219.135 40.5424 218.965 40.8024 218.765V217.535C40.2524 217.565 39.7974 217.615 39.4374 217.685C39.0774 217.755 38.7924 217.845 38.5824 217.955C38.3724 218.055 38.2224 218.175 38.1324 218.315C38.0524 218.455 38.0124 218.605 38.0124 218.765ZM44.8916 218.93C44.8916 218.51 44.9816 218.145 45.1616 217.835C45.3416 217.515 45.6266 217.245 46.0166 217.025C46.4166 216.805 46.9266 216.63 47.5466 216.5C48.1666 216.36 48.9166 216.265 49.7966 216.215C49.7566 215.875 49.6066 215.61 49.3466 215.42C49.0966 215.23 48.7166 215.135 48.2066 215.135C47.8466 215.135 47.4816 215.2 47.1116 215.33C46.7516 215.45 46.3616 215.615 45.9416 215.825L45.1616 214.385C45.6716 214.095 46.2166 213.855 46.7966 213.665C47.3866 213.475 48.0016 213.38 48.6416 213.38C49.6816 213.38 50.5016 213.655 51.1016 214.205C51.7016 214.755 52.0016 215.6 52.0016 216.74V221H50.2016L50.0366 220.16H49.9766C49.5966 220.45 49.1816 220.695 48.7316 220.895C48.2816 221.085 47.8166 221.18 47.3366 221.18C46.9566 221.18 46.6166 221.12 46.3166 221C46.0166 220.89 45.7616 220.735 45.5516 220.535C45.3416 220.325 45.1766 220.085 45.0566 219.815C44.9466 219.545 44.8916 219.25 44.8916 218.93ZM47.0066 218.765C47.0066 219.005 47.0966 219.185 47.2766 219.305C47.4666 219.415 47.7216 219.47 48.0416 219.47C48.3716 219.47 48.6816 219.405 48.9716 219.275C49.2616 219.135 49.5366 218.965 49.7966 218.765V217.535C49.2466 217.565 48.7916 217.615 48.4316 217.685C48.0716 217.755 47.7866 217.845 47.5766 217.955C47.3666 218.055 47.2166 218.175 47.1266 218.315C47.0466 218.455 47.0066 218.605 47.0066 218.765ZM8.915 236.93C8.915 236.51 9.005 236.145 9.185 235.835C9.365 235.515 9.65 235.245 10.04 235.025C10.44 234.805 10.95 234.63 11.57 234.5C12.19 234.36 12.94 234.265 13.82 234.215C13.78 233.875 13.63 233.61 13.37 233.42C13.12 233.23 12.74 233.135 12.23 233.135C11.87 233.135 11.505 233.2 11.135 233.33C10.775 233.45 10.385 233.615 9.965 233.825L9.185 232.385C9.695 232.095 10.24 231.855 10.82 231.665C11.41 231.475 12.025 231.38 12.665 231.38C13.705 231.38 14.525 231.655 15.125 232.205C15.725 232.755 16.025 233.6 16.025 234.74V239H14.225L14.06 238.16H14C13.62 238.45 13.205 238.695 12.755 238.895C12.305 239.085 11.84 239.18 11.36 239.18C10.98 239.18 10.64 239.12 10.34 239C10.04 238.89 9.785 238.735 9.575 238.535C9.365 238.325 9.2 238.085 9.08 237.815C8.97 237.545 8.915 237.25 8.915 236.93ZM11.03 236.765C11.03 237.005 11.12 237.185 11.3 237.305C11.49 237.415 11.745 237.47 12.065 237.47C12.395 237.47 12.705 237.405 12.995 237.275C13.285 237.135 13.56 236.965 13.82 236.765V235.535C13.27 235.565 12.815 235.615 12.455 235.685C12.095 235.755 11.81 235.845 11.6 235.955C11.39 236.055 11.24 236.175 11.15 236.315C11.07 236.455 11.03 236.605 11.03 236.765ZM26.9033 236.93C26.9033 236.51 26.9933 236.145 27.1733 235.835C27.3533 235.515 27.6383 235.245 28.0283 235.025C28.4283 234.805 28.9383 234.63 29.5583 234.5C30.1783 234.36 30.9283 234.265 31.8083 234.215C31.7683 233.875 31.6183 233.61 31.3583 233.42C31.1083 233.23 30.7283 233.135 30.2183 233.135C29.8583 233.135 29.4933 233.2 29.1233 233.33C28.7633 233.45 28.3733 233.615 27.9533 233.825L27.1733 232.385C27.6833 232.095 28.2283 231.855 28.8083 231.665C29.3983 231.475 30.0133 231.38 30.6533 231.38C31.6933 231.38 32.5133 231.655 33.1133 232.205C33.7133 232.755 34.0133 233.6 34.0133 234.74V239H32.2133L32.0483 238.16H31.9883C31.6083 238.45 31.1933 238.695 30.7433 238.895C30.2933 239.085 29.8283 239.18 29.3483 239.18C28.9683 239.18 28.6283 239.12 28.3283 239C28.0283 238.89 27.7733 238.735 27.5633 238.535C27.3533 238.325 27.1883 238.085 27.0683 237.815C26.9583 237.545 26.9033 237.25 26.9033 236.93ZM29.0183 236.765C29.0183 237.005 29.1083 237.185 29.2883 237.305C29.4783 237.415 29.7333 237.47 30.0533 237.47C30.3833 237.47 30.6933 237.405 30.9833 237.275C31.2733 237.135 31.5483 236.965 31.8083 236.765V235.535C31.2583 235.565 30.8033 235.615 30.4433 235.685C30.0833 235.755 29.7983 235.845 29.5883 235.955C29.3783 236.055 29.2283 236.175 29.1383 236.315C29.0583 236.455 29.0183 236.605 29.0183 236.765ZM44.8916 236.93C44.8916 236.51 44.9816 236.145 45.1616 235.835C45.3416 235.515 45.6266 235.245 46.0166 235.025C46.4166 234.805 46.9266 234.63 47.5466 234.5C48.1666 234.36 48.9166 234.265 49.7966 234.215C49.7566 233.875 49.6066 233.61 49.3466 233.42C49.0966 233.23 48.7166 233.135 48.2066 233.135C47.8466 233.135 47.4816 233.2 47.1116 233.33C46.7516 233.45 46.3616 233.615 45.9416 233.825L45.1616 232.385C45.6716 232.095 46.2166 231.855 46.7966 231.665C47.3866 231.475 48.0016 231.38 48.6416 231.38C49.6816 231.38 50.5016 231.655 51.1016 232.205C51.7016 232.755 52.0016 233.6 52.0016 234.74V239H50.2016L50.0366 238.16H49.9766C49.5966 238.45 49.1816 238.695 48.7316 238.895C48.2816 239.085 47.8166 239.18 47.3366 239.18C46.9566 239.18 46.6166 239.12 46.3166 239C46.0166 238.89 45.7616 238.735 45.5516 238.535C45.3416 238.325 45.1766 238.085 45.0566 237.815C44.9466 237.545 44.8916 237.25 44.8916 236.93ZM47.0066 236.765C47.0066 237.005 47.0966 237.185 47.2766 237.305C47.4666 237.415 47.7216 237.47 48.0416 237.47C48.3716 237.47 48.6816 237.405 48.9716 237.275C49.2616 237.135 49.5366 236.965 49.7966 236.765V235.535C49.2466 235.565 48.7916 235.615 48.4316 235.685C48.0716 235.755 47.7866 235.845 47.5766 235.955C47.3666 236.055 47.2166 236.175 47.1266 236.315C47.0466 236.455 47.0066 236.605 47.0066 236.765ZM62.8798 236.93C62.8798 236.51 62.9698 236.145 63.1498 235.835C63.3298 235.515 63.6148 235.245 64.0048 235.025C64.4048 234.805 64.9148 234.63 65.5348 234.5C66.1548 234.36 66.9048 234.265 67.7848 234.215C67.7448 233.875 67.5948 233.61 67.3348 233.42C67.0848 233.23 66.7048 233.135 66.1948 233.135C65.8348 233.135 65.4698 233.2 65.0998 233.33C64.7398 233.45 64.3498 233.615 63.9298 233.825L63.1498 232.385C63.6598 232.095 64.2048 231.855 64.7848 231.665C65.3748 231.475 65.9898 231.38 66.6298 231.38C67.6698 231.38 68.4898 231.655 69.0898 232.205C69.6898 232.755 69.9898 233.6 69.9898 234.74V239H68.1898L68.0248 238.16H67.9648C67.5848 238.45 67.1698 238.695 66.7198 238.895C66.2698 239.085 65.8048 239.18 65.3248 239.18C64.9448 239.18 64.6048 239.12 64.3048 239C64.0048 238.89 63.7498 238.735 63.5398 238.535C63.3298 238.325 63.1648 238.085 63.0448 237.815C62.9348 237.545 62.8798 237.25 62.8798 236.93ZM64.9948 236.765C64.9948 237.005 65.0848 237.185 65.2648 237.305C65.4548 237.415 65.7098 237.47 66.0298 237.47C66.3598 237.47 66.6698 237.405 66.9598 237.275C67.2498 237.135 67.5248 236.965 67.7848 236.765V235.535C67.2348 235.565 66.7798 235.615 66.4198 235.685C66.0598 235.755 65.7748 235.845 65.5648 235.955C65.3548 236.055 65.2048 236.175 65.1148 236.315C65.0348 236.455 64.9948 236.605 64.9948 236.765ZM80.8681 236.93C80.8681 236.51 80.9581 236.145 81.1381 235.835C81.3181 235.515 81.6031 235.245 81.9931 235.025C82.3931 234.805 82.9031 234.63 83.5231 234.5C84.1431 234.36 84.8931 234.265 85.7731 234.215C85.7331 233.875 85.5831 233.61 85.3231 233.42C85.0731 233.23 84.6931 233.135 84.1831 233.135C83.8231 233.135 83.4581 233.2 83.0881 233.33C82.7281 233.45 82.3381 233.615 81.9181 233.825L81.1381 232.385C81.6481 232.095 82.1931 231.855 82.7731 231.665C83.3631 231.475 83.9781 231.38 84.6181 231.38C85.6581 231.38 86.4781 231.655 87.0781 232.205C87.6781 232.755 87.9781 233.6 87.9781 234.74V239H86.1781L86.0131 238.16H85.9531C85.5731 238.45 85.1581 238.695 84.7081 238.895C84.2581 239.085 83.7931 239.18 83.3131 239.18C82.9331 239.18 82.5931 239.12 82.2931 239C81.9931 238.89 81.7381 238.735 81.5281 238.535C81.3181 238.325 81.1531 238.085 81.0331 237.815C80.9231 237.545 80.8681 237.25 80.8681 236.93ZM82.9831 236.765C82.9831 237.005 83.0731 237.185 83.2531 237.305C83.4431 237.415 83.6981 237.47 84.0181 237.47C84.3481 237.47 84.6581 237.405 84.9481 237.275C85.2381 237.135 85.5131 236.965 85.7731 236.765V235.535C85.2231 235.565 84.7681 235.615 84.4081 235.685C84.0481 235.755 83.7631 235.845 83.5531 235.955C83.3431 236.055 83.1931 236.175 83.1031 236.315C83.0231 236.455 82.9831 236.605 82.9831 236.765ZM8.915 255.93C8.915 255.51 9.005 255.145 9.185 254.835C9.365 254.515 9.65 254.245 10.04 254.025C10.44 253.805 10.95 253.63 11.57 253.5C12.19 253.36 12.94 253.265 13.82 253.215C13.78 252.875 13.63 252.61 13.37 252.42C13.12 252.23 12.74 252.135 12.23 252.135C11.87 252.135 11.505 252.2 11.135 252.33C10.775 252.45 10.385 252.615 9.965 252.825L9.185 251.385C9.695 251.095 10.24 250.855 10.82 250.665C11.41 250.475 12.025 250.38 12.665 250.38C13.705 250.38 14.525 250.655 15.125 251.205C15.725 251.755 16.025 252.6 16.025 253.74V258H14.225L14.06 257.16H14C13.62 257.45 13.205 257.695 12.755 257.895C12.305 258.085 11.84 258.18 11.36 258.18C10.98 258.18 10.64 258.12 10.34 258C10.04 257.89 9.785 257.735 9.575 257.535C9.365 257.325 9.2 257.085 9.08 256.815C8.97 256.545 8.915 256.25 8.915 255.93ZM11.03 255.765C11.03 256.005 11.12 256.185 11.3 256.305C11.49 256.415 11.745 256.47 12.065 256.47C12.395 256.47 12.705 256.405 12.995 256.275C13.285 256.135 13.56 255.965 13.82 255.765V254.535C13.27 254.565 12.815 254.615 12.455 254.685C12.095 254.755 11.81 254.845 11.6 254.955C11.39 255.055 11.24 255.175 11.15 255.315C11.07 255.455 11.03 255.605 11.03 255.765Z" fill="white"/>
<path d="M12.5113 182.68C11.9313 182.68 11.3963 182.565 10.9063 182.335C10.4263 182.095 10.0113 181.755 9.66126 181.315C9.32126 180.875 9.05626 180.34 8.86626 179.71C8.67626 179.08 8.58126 178.365 8.58126 177.565C8.58126 176.765 8.67626 176.055 8.86626 175.435C9.05626 174.805 9.32126 174.28 9.66126 173.86C10.0113 173.43 10.4263 173.105 10.9063 172.885C11.3963 172.655 11.9313 172.54 12.5113 172.54C13.0913 172.54 13.6213 172.655 14.1013 172.885C14.5913 173.105 15.0063 173.43 15.3463 173.86C15.6963 174.29 15.9663 174.82 16.1563 175.45C16.3463 176.07 16.4413 176.775 16.4413 177.565C16.4413 178.365 16.3463 179.08 16.1563 179.71C15.9663 180.34 15.6963 180.875 15.3463 181.315C15.0063 181.755 14.5913 182.095 14.1013 182.335C13.6213 182.565 13.0913 182.68 12.5113 182.68ZM12.5113 180.775C13.0213 180.775 13.4263 180.49 13.7263 179.92C14.0263 179.34 14.1763 178.555 14.1763 177.565C14.1763 176.585 14.0263 175.82 13.7263 175.27C13.4263 174.72 13.0213 174.445 12.5113 174.445C12.0013 174.445 11.5963 174.72 11.2963 175.27C10.9963 175.82 10.8463 176.585 10.8463 177.565C10.8463 178.555 10.9963 179.34 11.2963 179.92C11.5963 180.49 12.0013 180.775 12.5113 180.775ZM24.8804 182.5H23.0804L22.9154 181.435H22.8554C22.5254 181.815 22.1604 182.12 21.7604 182.35C21.3604 182.57 20.8904 182.68 20.3504 182.68C19.5004 182.68 18.8854 182.41 18.5054 181.87C18.1254 181.33 17.9354 180.59 17.9354 179.65V175.06H20.1404V179.365C20.1404 179.865 20.2154 180.23 20.3654 180.46C20.5154 180.69 20.8004 180.805 21.2204 180.805C21.5004 180.805 21.7454 180.745 21.9554 180.625C22.1754 180.505 22.4154 180.28 22.6754 179.95V175.06H24.8804V182.5ZM28.6095 176.785H26.7345V175.15L28.7145 175.06L28.9995 173.08H30.8145V175.06H33.9645V176.785H30.8145V179.395C30.8145 179.965 30.9395 180.37 31.1895 180.61C31.4395 180.84 31.8345 180.955 32.3745 180.955C32.6645 180.955 32.9295 180.93 33.1695 180.88C33.4095 180.83 33.6395 180.765 33.8595 180.685L34.2495 182.275C33.9195 182.375 33.5495 182.465 33.1395 182.545C32.7395 182.635 32.2995 182.68 31.8195 182.68C31.2295 182.68 30.7295 182.6 30.3195 182.44C29.9095 182.28 29.5745 182.06 29.3145 181.78C29.0645 181.49 28.8845 181.145 28.7745 180.745C28.6645 180.345 28.6095 179.9 28.6095 179.41V176.785ZM38.2787 183.085V185.26H36.0737V175.06H37.8737L38.0387 175.81H38.0837C38.3837 175.54 38.7287 175.32 39.1187 175.15C39.5087 174.97 39.9037 174.88 40.3037 174.88C40.7637 174.88 41.1787 174.97 41.5487 175.15C41.9187 175.33 42.2337 175.585 42.4937 175.915C42.7537 176.245 42.9487 176.645 43.0787 177.115C43.2187 177.575 43.2887 178.09 43.2887 178.66C43.2887 179.3 43.1987 179.87 43.0187 180.37C42.8387 180.86 42.5987 181.28 42.2987 181.63C41.9987 181.97 41.6537 182.23 41.2637 182.41C40.8837 182.59 40.4837 182.68 40.0637 182.68C39.3837 182.68 38.7637 182.41 38.2037 181.87L38.2787 183.085ZM38.2787 180.385C38.4887 180.565 38.7037 180.695 38.9237 180.775C39.1537 180.845 39.3637 180.88 39.5537 180.88C39.9737 180.88 40.3237 180.71 40.6037 180.37C40.8837 180.02 41.0237 179.46 41.0237 178.69C41.0237 177.35 40.5687 176.68 39.6587 176.68C39.1887 176.68 38.7287 176.91 38.2787 177.37V180.385ZM51.8628 182.5H50.0628L49.8978 181.435H49.8378C49.5078 181.815 49.1428 182.12 48.7428 182.35C48.3428 182.57 47.8728 182.68 47.3328 182.68C46.4828 182.68 45.8678 182.41 45.4878 181.87C45.1078 181.33 44.9178 180.59 44.9178 179.65V175.06H47.1228V179.365C47.1228 179.865 47.1978 180.23 47.3478 180.46C47.4978 180.69 47.7828 180.805 48.2028 180.805C48.4828 180.805 48.7278 180.745 48.9378 180.625C49.1578 180.505 49.3978 180.28 49.6578 179.95V175.06H51.8628V182.5ZM55.592 176.785H53.717V175.15L55.697 175.06L55.982 173.08H57.797V175.06H60.947V176.785H57.797V179.395C57.797 179.965 57.922 180.37 58.172 180.61C58.422 180.84 58.817 180.955 59.357 180.955C59.647 180.955 59.912 180.93 60.152 180.88C60.392 180.83 60.622 180.765 60.842 180.685L61.232 182.275C60.902 182.375 60.532 182.465 60.122 182.545C59.722 182.635 59.282 182.68 58.802 182.68C58.212 182.68 57.712 182.6 57.302 182.44C56.892 182.28 56.557 182.06 56.297 181.78C56.047 181.49 55.867 181.145 55.757 180.745C55.647 180.345 55.592 179.9 55.592 179.41V176.785Z" fill="white"/>
<rect x="80" width="291" height="31" fill="#333333"/>
<rect x="80" width="291" height="31" fill="#333333"/>
<rect x="1" width="79" height="31" fill="#090808"/>
<path d="M13.105 17.8101C13.105 17.5513 12.9756 17.3486 12.7168 17.2021C12.4629 17.0508 12.0527 16.9165 11.4863 16.7993C9.60156 16.4038 8.65918 15.603 8.65918 14.397C8.65918 13.6938 8.94971 13.1079 9.53076 12.6392C10.1167 12.1655 10.8809 11.9287 11.8232 11.9287C12.8291 11.9287 13.6323 12.1655 14.2329 12.6392C14.8384 13.1128 15.1411 13.728 15.1411 14.4849H13.0244C13.0244 14.1821 12.9268 13.9331 12.7314 13.7378C12.5361 13.5376 12.231 13.4375 11.8159 13.4375C11.4595 13.4375 11.1836 13.5181 10.9883 13.6792C10.793 13.8403 10.6953 14.0454 10.6953 14.2944C10.6953 14.5288 10.8052 14.7192 11.0249 14.8657C11.2495 15.0073 11.6255 15.1318 12.1528 15.2393C12.6802 15.3418 13.1245 15.459 13.4858 15.5908C14.604 16.001 15.1631 16.7114 15.1631 17.7222C15.1631 18.4448 14.853 19.0308 14.2329 19.48C13.6128 19.9243 12.812 20.1465 11.8306 20.1465C11.1665 20.1465 10.5757 20.0293 10.0581 19.7949C9.54541 19.5557 9.14258 19.231 8.84961 18.8208C8.55664 18.4058 8.41016 17.959 8.41016 17.4805H10.417C10.4365 17.8564 10.5757 18.1445 10.8345 18.3447C11.0933 18.5449 11.4399 18.645 11.8745 18.645C12.2798 18.645 12.585 18.5693 12.79 18.418C13 18.2617 13.105 18.0591 13.105 17.8101ZM19.8286 18.4399C20.2192 18.4399 20.5366 18.3325 20.7808 18.1177C21.0249 17.9028 21.1519 17.6172 21.1616 17.2607H23.1465C23.1416 17.7979 22.9951 18.291 22.707 18.7402C22.4189 19.1846 22.0234 19.5312 21.5205 19.7803C21.0225 20.0244 20.4707 20.1465 19.8652 20.1465C18.7324 20.1465 17.8389 19.7876 17.1846 19.0698C16.5303 18.3472 16.2031 17.3511 16.2031 16.0815V15.9424C16.2031 14.7217 16.5278 13.7476 17.1772 13.02C17.8267 12.2925 18.7178 11.9287 19.8506 11.9287C20.8418 11.9287 21.6353 12.2119 22.231 12.7783C22.8315 13.3398 23.1367 14.0894 23.1465 15.0269H21.1616C21.1519 14.6167 21.0249 14.2847 20.7808 14.0308C20.5366 13.772 20.2144 13.6426 19.814 13.6426C19.3208 13.6426 18.9473 13.8232 18.6934 14.1846C18.4443 14.541 18.3198 15.1221 18.3198 15.9277V16.1475C18.3198 16.9629 18.4443 17.5488 18.6934 17.9053C18.9424 18.2617 19.3208 18.4399 19.8286 18.4399ZM28.8081 14.0601C28.52 14.021 28.2661 14.0015 28.0464 14.0015C27.2456 14.0015 26.7207 14.2725 26.4717 14.8145V20H24.355V12.0752H26.3545L26.4131 13.02C26.8379 12.2925 27.4263 11.9287 28.1782 11.9287C28.4126 11.9287 28.6323 11.9604 28.8374 12.0239L28.8081 14.0601ZM32.0674 20H29.9434V12.0752H32.0674V20ZM29.8188 10.0244C29.8188 9.70703 29.9238 9.4458 30.1338 9.24072C30.3486 9.03564 30.6392 8.93311 31.0054 8.93311C31.3667 8.93311 31.6548 9.03564 31.8696 9.24072C32.0845 9.4458 32.1919 9.70703 32.1919 10.0244C32.1919 10.3467 32.082 10.6104 31.8623 10.8154C31.6475 11.0205 31.3618 11.123 31.0054 11.123C30.6489 11.123 30.3608 11.0205 30.1411 10.8154C29.9263 10.6104 29.8188 10.3467 29.8188 10.0244ZM40.9517 16.1108C40.9517 17.3315 40.6733 18.3105 40.1167 19.0479C39.5649 19.7803 38.8179 20.1465 37.8755 20.1465C37.0747 20.1465 36.4277 19.8682 35.9346 19.3115V23.0469H33.8179V12.0752H35.7808L35.854 12.8516C36.3667 12.2363 37.0356 11.9287 37.8608 11.9287C38.8374 11.9287 39.5967 12.29 40.1387 13.0127C40.6807 13.7354 40.9517 14.7314 40.9517 16.001V16.1108ZM38.835 15.957C38.835 15.2197 38.7031 14.6509 38.4395 14.2505C38.1807 13.8501 37.8022 13.6499 37.3042 13.6499C36.6401 13.6499 36.1836 13.9038 35.9346 14.4116V17.6562C36.1934 18.1787 36.6548 18.4399 37.3188 18.4399C38.3296 18.4399 38.835 17.6123 38.835 15.957ZM44.8042 10.127V12.0752H46.1592V13.6279H44.8042V17.583C44.8042 17.876 44.8604 18.0859 44.9727 18.2129C45.085 18.3398 45.2998 18.4033 45.6172 18.4033C45.8516 18.4033 46.0591 18.3862 46.2397 18.3521V19.9561C45.8247 20.083 45.3975 20.1465 44.958 20.1465C43.4736 20.1465 42.7168 19.397 42.6875 17.8979V13.6279H41.5303V12.0752H42.6875V10.127H44.8042ZM47.4482 18.96C47.4482 18.623 47.5605 18.3496 47.7852 18.1396C48.0146 17.9297 48.3003 17.8247 48.6421 17.8247C48.9888 17.8247 49.2744 17.9297 49.499 18.1396C49.7285 18.3496 49.8433 18.623 49.8433 18.96C49.8433 19.292 49.731 19.563 49.5063 19.7729C49.2817 19.978 48.9937 20.0806 48.6421 20.0806C48.2954 20.0806 48.0098 19.978 47.7852 19.7729C47.5605 19.563 47.4482 19.292 47.4482 18.96ZM58.8374 16.1108C58.8374 17.3315 58.5591 18.3105 58.0024 19.0479C57.4507 19.7803 56.7036 20.1465 55.7612 20.1465C54.9604 20.1465 54.3135 19.8682 53.8203 19.3115V23.0469H51.7036V12.0752H53.6665L53.7397 12.8516C54.2524 12.2363 54.9214 11.9287 55.7466 11.9287C56.7231 11.9287 57.4824 12.29 58.0244 13.0127C58.5664 13.7354 58.8374 14.7314 58.8374 16.001V16.1108ZM56.7207 15.957C56.7207 15.2197 56.5889 14.6509 56.3252 14.2505C56.0664 13.8501 55.688 13.6499 55.1899 13.6499C54.5259 13.6499 54.0693 13.9038 53.8203 14.4116V17.6562C54.0791 18.1787 54.5405 18.4399 55.2046 18.4399C56.2153 18.4399 56.7207 17.6123 56.7207 15.957ZM63.0269 17.0044L64.4917 12.0752H66.7622L63.5762 21.2305L63.4004 21.6479C62.9268 22.6831 62.1455 23.2007 61.0566 23.2007C60.749 23.2007 60.4365 23.1543 60.1191 23.0615V21.4575L60.4414 21.4648C60.8418 21.4648 61.1396 21.4038 61.335 21.2817C61.5352 21.1597 61.6914 20.957 61.8037 20.6738L62.0527 20.022L59.2769 12.0752H61.5547L63.0269 17.0044Z" fill="white"/>
<line x1="0.996826" y1="162.688" x2="371" y2="162.688" stroke="white"/>
<path d="M11.285 51.585V53.76H9.08V43.56H10.88L11.045 44.31H11.09C11.39 44.04 11.735 43.82 12.125 43.65C12.515 43.47 12.91 43.38 13.31 43.38C13.77 43.38 14.185 43.47 14.555 43.65C14.925 43.83 15.24 44.085 15.5 44.415C15.76 44.745 15.955 45.145 16.085 45.615C16.225 46.075 16.295 46.59 16.295 47.16C16.295 47.8 16.205 48.37 16.025 48.87C15.845 49.36 15.605 49.78 15.305 50.13C15.005 50.47 14.66 50.73 14.27 50.91C13.89 51.09 13.49 51.18 13.07 51.18C12.39 51.18 11.77 50.91 11.21 50.37L11.285 51.585ZM11.285 48.885C11.495 49.065 11.71 49.195 11.93 49.275C12.16 49.345 12.37 49.38 12.56 49.38C12.98 49.38 13.33 49.21 13.61 48.87C13.89 48.52 14.03 47.96 14.03 47.19C14.03 45.85 13.575 45.18 12.665 45.18C12.195 45.18 11.735 45.41 11.285 45.87V48.885ZM18.7341 43.56H20.5341L20.7141 45.18H20.7591C21.1291 44.57 21.5741 44.12 22.0941 43.83C22.6141 43.53 23.1741 43.38 23.7741 43.38C24.1041 43.38 24.3691 43.405 24.5691 43.455C24.7791 43.505 24.9941 43.58 25.2141 43.68L24.7641 45.525C24.5341 45.455 24.3241 45.405 24.1341 45.375C23.9541 45.335 23.7241 45.315 23.4441 45.315C22.9841 45.315 22.5291 45.45 22.0791 45.72C21.6391 45.99 21.2591 46.46 20.9391 47.13V51H18.7341V43.56ZM27.1733 43.56H32.3633V51H30.1583V45.285H27.1733V43.56ZM31.1633 42.465C30.7333 42.465 30.3783 42.345 30.0983 42.105C29.8283 41.865 29.6933 41.54 29.6933 41.13C29.6933 40.72 29.8283 40.39 30.0983 40.14C30.3783 39.88 30.7333 39.75 31.1633 39.75C31.5933 39.75 31.9433 39.88 32.2133 40.14C32.4933 40.39 32.6333 40.72 32.6333 41.13C32.6333 41.54 32.4933 41.865 32.2133 42.105C31.9433 42.345 31.5933 42.465 31.1633 42.465ZM36.0624 43.56H37.8624L38.0274 44.55H38.0874C38.4074 44.23 38.7724 43.955 39.1824 43.725C39.6024 43.495 40.0924 43.38 40.6524 43.38C41.4924 43.38 42.1074 43.65 42.4974 44.19C42.8874 44.73 43.0824 45.47 43.0824 46.41V51H40.8774V46.695C40.8774 46.195 40.7974 45.83 40.6374 45.6C40.4774 45.37 40.1924 45.255 39.7824 45.255C39.4824 45.255 39.2174 45.32 38.9874 45.45C38.7674 45.58 38.5274 45.775 38.2674 46.035V51H36.0624V43.56ZM46.5866 45.285H44.7116V43.65L46.6916 43.56L46.9766 41.58H48.7916V43.56H51.9416V45.285H48.7916V47.895C48.7916 48.465 48.9166 48.87 49.1666 49.11C49.4166 49.34 49.8116 49.455 50.3516 49.455C50.6416 49.455 50.9066 49.43 51.1466 49.38C51.3866 49.33 51.6166 49.265 51.8366 49.185L52.2266 50.775C51.8966 50.875 51.5266 50.965 51.1166 51.045C50.7166 51.135 50.2766 51.18 49.7966 51.18C49.2066 51.18 48.7066 51.1 48.2966 50.94C47.8866 50.78 47.5516 50.56 47.2916 50.28C47.0416 49.99 46.8616 49.645 46.7516 49.245C46.6416 48.845 46.5866 48.4 46.5866 47.91V45.285ZM11.285 70.585V72.76H9.08V62.56H10.88L11.045 63.31H11.09C11.39 63.04 11.735 62.82 12.125 62.65C12.515 62.47 12.91 62.38 13.31 62.38C13.77 62.38 14.185 62.47 14.555 62.65C14.925 62.83 15.24 63.085 15.5 63.415C15.76 63.745 15.955 64.145 16.085 64.615C16.225 65.075 16.295 65.59 16.295 66.16C16.295 66.8 16.205 67.37 16.025 67.87C15.845 68.36 15.605 68.78 15.305 69.13C15.005 69.47 14.66 69.73 14.27 69.91C13.89 70.09 13.49 70.18 13.07 70.18C12.39 70.18 11.77 69.91 11.21 69.37L11.285 70.585ZM11.285 67.885C11.495 68.065 11.71 68.195 11.93 68.275C12.16 68.345 12.37 68.38 12.56 68.38C12.98 68.38 13.33 68.21 13.61 67.87C13.89 67.52 14.03 66.96 14.03 66.19C14.03 64.85 13.575 64.18 12.665 64.18C12.195 64.18 11.735 64.41 11.285 64.87V67.885ZM18.7341 62.56H20.5341L20.7141 64.18H20.7591C21.1291 63.57 21.5741 63.12 22.0941 62.83C22.6141 62.53 23.1741 62.38 23.7741 62.38C24.1041 62.38 24.3691 62.405 24.5691 62.455C24.7791 62.505 24.9941 62.58 25.2141 62.68L24.7641 64.525C24.5341 64.455 24.3241 64.405 24.1341 64.375C23.9541 64.335 23.7241 64.315 23.4441 64.315C22.9841 64.315 22.5291 64.45 22.0791 64.72C21.6391 64.99 21.2591 65.46 20.9391 66.13V70H18.7341V62.56ZM27.1733 62.56H32.3633V70H30.1583V64.285H27.1733V62.56ZM31.1633 61.465C30.7333 61.465 30.3783 61.345 30.0983 61.105C29.8283 60.865 29.6933 60.54 29.6933 60.13C29.6933 59.72 29.8283 59.39 30.0983 59.14C30.3783 58.88 30.7333 58.75 31.1633 58.75C31.5933 58.75 31.9433 58.88 32.2133 59.14C32.4933 59.39 32.6333 59.72 32.6333 60.13C32.6333 60.54 32.4933 60.865 32.2133 61.105C31.9433 61.345 31.5933 61.465 31.1633 61.465ZM36.0624 62.56H37.8624L38.0274 63.55H38.0874C38.4074 63.23 38.7724 62.955 39.1824 62.725C39.6024 62.495 40.0924 62.38 40.6524 62.38C41.4924 62.38 42.1074 62.65 42.4974 63.19C42.8874 63.73 43.0824 64.47 43.0824 65.41V70H40.8774V65.695C40.8774 65.195 40.7974 64.83 40.6374 64.6C40.4774 64.37 40.1924 64.255 39.7824 64.255C39.4824 64.255 39.2174 64.32 38.9874 64.45C38.7674 64.58 38.5274 64.775 38.2674 65.035V70H36.0624V62.56ZM46.5866 64.285H44.7116V62.65L46.6916 62.56L46.9766 60.58H48.7916V62.56H51.9416V64.285H48.7916V66.895C48.7916 67.465 48.9166 67.87 49.1666 68.11C49.4166 68.34 49.8116 68.455 50.3516 68.455C50.6416 68.455 50.9066 68.43 51.1466 68.38C51.3866 68.33 51.6166 68.265 51.8366 68.185L52.2266 69.775C51.8966 69.875 51.5266 69.965 51.1166 70.045C50.7166 70.135 50.2766 70.18 49.7966 70.18C49.2066 70.18 48.7066 70.1 48.2966 69.94C47.8866 69.78 47.5516 69.56 47.2916 69.28C47.0416 68.99 46.8616 68.645 46.7516 68.245C46.6416 67.845 46.5866 67.4 46.5866 66.91V64.285ZM11.285 88.585V90.76H9.08V80.56H10.88L11.045 81.31H11.09C11.39 81.04 11.735 80.82 12.125 80.65C12.515 80.47 12.91 80.38 13.31 80.38C13.77 80.38 14.185 80.47 14.555 80.65C14.925 80.83 15.24 81.085 15.5 81.415C15.76 81.745 15.955 82.145 16.085 82.615C16.225 83.075 16.295 83.59 16.295 84.16C16.295 84.8 16.205 85.37 16.025 85.87C15.845 86.36 15.605 86.78 15.305 87.13C15.005 87.47 14.66 87.73 14.27 87.91C13.89 88.09 13.49 88.18 13.07 88.18C12.39 88.18 11.77 87.91 11.21 87.37L11.285 88.585ZM11.285 85.885C11.495 86.065 11.71 86.195 11.93 86.275C12.16 86.345 12.37 86.38 12.56 86.38C12.98 86.38 13.33 86.21 13.61 85.87C13.89 85.52 14.03 84.96 14.03 84.19C14.03 82.85 13.575 82.18 12.665 82.18C12.195 82.18 11.735 82.41 11.285 82.87V85.885ZM18.7341 80.56H20.5341L20.7141 82.18H20.7591C21.1291 81.57 21.5741 81.12 22.0941 80.83C22.6141 80.53 23.1741 80.38 23.7741 80.38C24.1041 80.38 24.3691 80.405 24.5691 80.455C24.7791 80.505 24.9941 80.58 25.2141 80.68L24.7641 82.525C24.5341 82.455 24.3241 82.405 24.1341 82.375C23.9541 82.335 23.7241 82.315 23.4441 82.315C22.9841 82.315 22.5291 82.45 22.0791 82.72C21.6391 82.99 21.2591 83.46 20.9391 84.13V88H18.7341V80.56ZM27.1733 80.56H32.3633V88H30.1583V82.285H27.1733V80.56ZM31.1633 79.465C30.7333 79.465 30.3783 79.345 30.0983 79.105C29.8283 78.865 29.6933 78.54 29.6933 78.13C29.6933 77.72 29.8283 77.39 30.0983 77.14C30.3783 76.88 30.7333 76.75 31.1633 76.75C31.5933 76.75 31.9433 76.88 32.2133 77.14C32.4933 77.39 32.6333 77.72 32.6333 78.13C32.6333 78.54 32.4933 78.865 32.2133 79.105C31.9433 79.345 31.5933 79.465 31.1633 79.465ZM36.0624 80.56H37.8624L38.0274 81.55H38.0874C38.4074 81.23 38.7724 80.955 39.1824 80.725C39.6024 80.495 40.0924 80.38 40.6524 80.38C41.4924 80.38 42.1074 80.65 42.4974 81.19C42.8874 81.73 43.0824 82.47 43.0824 83.41V88H40.8774V83.695C40.8774 83.195 40.7974 82.83 40.6374 82.6C40.4774 82.37 40.1924 82.255 39.7824 82.255C39.4824 82.255 39.2174 82.32 38.9874 82.45C38.7674 82.58 38.5274 82.775 38.2674 83.035V88H36.0624V80.56ZM46.5866 82.285H44.7116V80.65L46.6916 80.56L46.9766 78.58H48.7916V80.56H51.9416V82.285H48.7916V84.895C48.7916 85.465 48.9166 85.87 49.1666 86.11C49.4166 86.34 49.8116 86.455 50.3516 86.455C50.6416 86.455 50.9066 86.43 51.1466 86.38C51.3866 86.33 51.6166 86.265 51.8366 86.185L52.2266 87.775C51.8966 87.875 51.5266 87.965 51.1166 88.045C50.7166 88.135 50.2766 88.18 49.7966 88.18C49.2066 88.18 48.7066 88.1 48.2966 87.94C47.8866 87.78 47.5516 87.56 47.2916 87.28C47.0416 86.99 46.8616 86.645 46.7516 86.245C46.6416 85.845 46.5866 85.4 46.5866 84.91V82.285ZM11.285 107.585V109.76H9.08V99.56H10.88L11.045 100.31H11.09C11.39 100.04 11.735 99.82 12.125 99.65C12.515 99.47 12.91 99.38 13.31 99.38C13.77 99.38 14.185 99.47 14.555 99.65C14.925 99.83 15.24 100.085 15.5 100.415C15.76 100.745 15.955 101.145 16.085 101.615C16.225 102.075 16.295 102.59 16.295 103.16C16.295 103.8 16.205 104.37 16.025 104.87C15.845 105.36 15.605 105.78 15.305 106.13C15.005 106.47 14.66 106.73 14.27 106.91C13.89 107.09 13.49 107.18 13.07 107.18C12.39 107.18 11.77 106.91 11.21 106.37L11.285 107.585ZM11.285 104.885C11.495 105.065 11.71 105.195 11.93 105.275C12.16 105.345 12.37 105.38 12.56 105.38C12.98 105.38 13.33 105.21 13.61 104.87C13.89 104.52 14.03 103.96 14.03 103.19C14.03 101.85 13.575 101.18 12.665 101.18C12.195 101.18 11.735 101.41 11.285 101.87V104.885ZM18.7341 99.56H20.5341L20.7141 101.18H20.7591C21.1291 100.57 21.5741 100.12 22.0941 99.83C22.6141 99.53 23.1741 99.38 23.7741 99.38C24.1041 99.38 24.3691 99.405 24.5691 99.455C24.7791 99.505 24.9941 99.58 25.2141 99.68L24.7641 101.525C24.5341 101.455 24.3241 101.405 24.1341 101.375C23.9541 101.335 23.7241 101.315 23.4441 101.315C22.9841 101.315 22.5291 101.45 22.0791 101.72C21.6391 101.99 21.2591 102.46 20.9391 103.13V107H18.7341V99.56ZM27.1733 99.56H32.3633V107H30.1583V101.285H27.1733V99.56ZM31.1633 98.465C30.7333 98.465 30.3783 98.345 30.0983 98.105C29.8283 97.865 29.6933 97.54 29.6933 97.13C29.6933 96.72 29.8283 96.39 30.0983 96.14C30.3783 95.88 30.7333 95.75 31.1633 95.75C31.5933 95.75 31.9433 95.88 32.2133 96.14C32.4933 96.39 32.6333 96.72 32.6333 97.13C32.6333 97.54 32.4933 97.865 32.2133 98.105C31.9433 98.345 31.5933 98.465 31.1633 98.465ZM36.0624 99.56H37.8624L38.0274 100.55H38.0874C38.4074 100.23 38.7724 99.955 39.1824 99.725C39.6024 99.495 40.0924 99.38 40.6524 99.38C41.4924 99.38 42.1074 99.65 42.4974 100.19C42.8874 100.73 43.0824 101.47 43.0824 102.41V107H40.8774V102.695C40.8774 102.195 40.7974 101.83 40.6374 101.6C40.4774 101.37 40.1924 101.255 39.7824 101.255C39.4824 101.255 39.2174 101.32 38.9874 101.45C38.7674 101.58 38.5274 101.775 38.2674 102.035V107H36.0624V99.56ZM46.5866 101.285H44.7116V99.65L46.6916 99.56L46.9766 97.58H48.7916V99.56H51.9416V101.285H48.7916V103.895C48.7916 104.465 48.9166 104.87 49.1666 105.11C49.4166 105.34 49.8116 105.455 50.3516 105.455C50.6416 105.455 50.9066 105.43 51.1466 105.38C51.3866 105.33 51.6166 105.265 51.8366 105.185L52.2266 106.775C51.8966 106.875 51.5266 106.965 51.1166 107.045C50.7166 107.135 50.2766 107.18 49.7966 107.18C49.2066 107.18 48.7066 107.1 48.2966 106.94C47.8866 106.78 47.5516 106.56 47.2916 106.28C47.0416 105.99 46.8616 105.645 46.7516 105.245C46.6416 104.845 46.5866 104.4 46.5866 103.91V101.285ZM11.285 126.585V128.76H9.08V118.56H10.88L11.045 119.31H11.09C11.39 119.04 11.735 118.82 12.125 118.65C12.515 118.47 12.91 118.38 13.31 118.38C13.77 118.38 14.185 118.47 14.555 118.65C14.925 118.83 15.24 119.085 15.5 119.415C15.76 119.745 15.955 120.145 16.085 120.615C16.225 121.075 16.295 121.59 16.295 122.16C16.295 122.8 16.205 123.37 16.025 123.87C15.845 124.36 15.605 124.78 15.305 125.13C15.005 125.47 14.66 125.73 14.27 125.91C13.89 126.09 13.49 126.18 13.07 126.18C12.39 126.18 11.77 125.91 11.21 125.37L11.285 126.585ZM11.285 123.885C11.495 124.065 11.71 124.195 11.93 124.275C12.16 124.345 12.37 124.38 12.56 124.38C12.98 124.38 13.33 124.21 13.61 123.87C13.89 123.52 14.03 122.96 14.03 122.19C14.03 120.85 13.575 120.18 12.665 120.18C12.195 120.18 11.735 120.41 11.285 120.87V123.885ZM18.7341 118.56H20.5341L20.7141 120.18H20.7591C21.1291 119.57 21.5741 119.12 22.0941 118.83C22.6141 118.53 23.1741 118.38 23.7741 118.38C24.1041 118.38 24.3691 118.405 24.5691 118.455C24.7791 118.505 24.9941 118.58 25.2141 118.68L24.7641 120.525C24.5341 120.455 24.3241 120.405 24.1341 120.375C23.9541 120.335 23.7241 120.315 23.4441 120.315C22.9841 120.315 22.5291 120.45 22.0791 120.72C21.6391 120.99 21.2591 121.46 20.9391 122.13V126H18.7341V118.56ZM27.1733 118.56H32.3633V126H30.1583V120.285H27.1733V118.56ZM31.1633 117.465C30.7333 117.465 30.3783 117.345 30.0983 117.105C29.8283 116.865 29.6933 116.54 29.6933 116.13C29.6933 115.72 29.8283 115.39 30.0983 115.14C30.3783 114.88 30.7333 114.75 31.1633 114.75C31.5933 114.75 31.9433 114.88 32.2133 115.14C32.4933 115.39 32.6333 115.72 32.6333 116.13C32.6333 116.54 32.4933 116.865 32.2133 117.105C31.9433 117.345 31.5933 117.465 31.1633 117.465ZM36.0624 118.56H37.8624L38.0274 119.55H38.0874C38.4074 119.23 38.7724 118.955 39.1824 118.725C39.6024 118.495 40.0924 118.38 40.6524 118.38C41.4924 118.38 42.1074 118.65 42.4974 119.19C42.8874 119.73 43.0824 120.47 43.0824 121.41V126H40.8774V121.695C40.8774 121.195 40.7974 120.83 40.6374 120.6C40.4774 120.37 40.1924 120.255 39.7824 120.255C39.4824 120.255 39.2174 120.32 38.9874 120.45C38.7674 120.58 38.5274 120.775 38.2674 121.035V126H36.0624V118.56ZM46.5866 120.285H44.7116V118.65L46.6916 118.56L46.9766 116.58H48.7916V118.56H51.9416V120.285H48.7916V122.895C48.7916 123.465 48.9166 123.87 49.1666 124.11C49.4166 124.34 49.8116 124.455 50.3516 124.455C50.6416 124.455 50.9066 124.43 51.1466 124.38C51.3866 124.33 51.6166 124.265 51.8366 124.185L52.2266 125.775C51.8966 125.875 51.5266 125.965 51.1166 126.045C50.7166 126.135 50.2766 126.18 49.7966 126.18C49.2066 126.18 48.7066 126.1 48.2966 125.94C47.8866 125.78 47.5516 125.56 47.2916 125.28C47.0416 124.99 46.8616 124.645 46.7516 124.245C46.6416 123.845 46.5866 123.4 46.5866 122.91V120.285ZM11.285 145.585V147.76H9.08V137.56H10.88L11.045 138.31H11.09C11.39 138.04 11.735 137.82 12.125 137.65C12.515 137.47 12.91 137.38 13.31 137.38C13.77 137.38 14.185 137.47 14.555 137.65C14.925 137.83 15.24 138.085 15.5 138.415C15.76 138.745 15.955 139.145 16.085 139.615C16.225 140.075 16.295 140.59 16.295 141.16C16.295 141.8 16.205 142.37 16.025 142.87C15.845 143.36 15.605 143.78 15.305 144.13C15.005 144.47 14.66 144.73 14.27 144.91C13.89 145.09 13.49 145.18 13.07 145.18C12.39 145.18 11.77 144.91 11.21 144.37L11.285 145.585ZM11.285 142.885C11.495 143.065 11.71 143.195 11.93 143.275C12.16 143.345 12.37 143.38 12.56 143.38C12.98 143.38 13.33 143.21 13.61 142.87C13.89 142.52 14.03 141.96 14.03 141.19C14.03 139.85 13.575 139.18 12.665 139.18C12.195 139.18 11.735 139.41 11.285 139.87V142.885ZM18.7341 137.56H20.5341L20.7141 139.18H20.7591C21.1291 138.57 21.5741 138.12 22.0941 137.83C22.6141 137.53 23.1741 137.38 23.7741 137.38C24.1041 137.38 24.3691 137.405 24.5691 137.455C24.7791 137.505 24.9941 137.58 25.2141 137.68L24.7641 139.525C24.5341 139.455 24.3241 139.405 24.1341 139.375C23.9541 139.335 23.7241 139.315 23.4441 139.315C22.9841 139.315 22.5291 139.45 22.0791 139.72C21.6391 139.99 21.2591 140.46 20.9391 141.13V145H18.7341V137.56ZM27.1733 137.56H32.3633V145H30.1583V139.285H27.1733V137.56ZM31.1633 136.465C30.7333 136.465 30.3783 136.345 30.0983 136.105C29.8283 135.865 29.6933 135.54 29.6933 135.13C29.6933 134.72 29.8283 134.39 30.0983 134.14C30.3783 133.88 30.7333 133.75 31.1633 133.75C31.5933 133.75 31.9433 133.88 32.2133 134.14C32.4933 134.39 32.6333 134.72 32.6333 135.13C32.6333 135.54 32.4933 135.865 32.2133 136.105C31.9433 136.345 31.5933 136.465 31.1633 136.465ZM36.0624 137.56H37.8624L38.0274 138.55H38.0874C38.4074 138.23 38.7724 137.955 39.1824 137.725C39.6024 137.495 40.0924 137.38 40.6524 137.38C41.4924 137.38 42.1074 137.65 42.4974 138.19C42.8874 138.73 43.0824 139.47 43.0824 140.41V145H40.8774V140.695C40.8774 140.195 40.7974 139.83 40.6374 139.6C40.4774 139.37 40.1924 139.255 39.7824 139.255C39.4824 139.255 39.2174 139.32 38.9874 139.45C38.7674 139.58 38.5274 139.775 38.2674 140.035V145H36.0624V137.56ZM46.5866 139.285H44.7116V137.65L46.6916 137.56L46.9766 135.58H48.7916V137.56H51.9416V139.285H48.7916V141.895C48.7916 142.465 48.9166 142.87 49.1666 143.11C49.4166 143.34 49.8116 143.455 50.3516 143.455C50.6416 143.455 50.9066 143.43 51.1466 143.38C51.3866 143.33 51.6166 143.265 51.8366 143.185L52.2266 144.775C51.8966 144.875 51.5266 144.965 51.1166 145.045C50.7166 145.135 50.2766 145.18 49.7966 145.18C49.2066 145.18 48.7066 145.1 48.2966 144.94C47.8866 144.78 47.5516 144.56 47.2916 144.28C47.0416 143.99 46.8616 143.645 46.7516 143.245C46.6416 142.845 46.5866 142.4 46.5866 141.91V139.285Z" fill="#56B4E9"/>
<path d="M58.8507 53.685C57.8707 52.815 57.0957 51.81 56.5257 50.67C55.9657 49.53 55.6857 48.25 55.6857 46.83C55.6857 45.41 55.9657 44.13 56.5257 42.99C57.0957 41.85 57.8707 40.845 58.8507 39.975L60.0807 40.95C59.1907 41.82 58.5407 42.725 58.1307 43.665C57.7307 44.595 57.5307 45.65 57.5307 46.83C57.5307 47.42 57.5807 47.98 57.6807 48.51C57.7807 49.03 57.9307 49.53 58.1307 50.01C58.3407 50.49 58.6057 50.95 58.9257 51.39C59.2457 51.84 59.6307 52.28 60.0807 52.71L58.8507 53.685ZM126.814 52.71C127.264 52.28 127.649 51.84 127.969 51.39C128.289 50.95 128.549 50.49 128.749 50.01C128.959 49.53 129.114 49.03 129.214 48.51C129.314 47.98 129.364 47.42 129.364 46.83C129.364 45.65 129.159 44.595 128.749 43.665C128.349 42.725 127.704 41.82 126.814 40.95L128.044 39.975C129.024 40.845 129.794 41.85 130.354 42.99C130.924 44.13 131.209 45.41 131.209 46.83C131.209 48.25 130.924 49.53 130.354 50.67C129.794 51.81 129.024 52.815 128.044 53.685L126.814 52.71ZM58.8507 72.685C57.8707 71.815 57.0957 70.81 56.5257 69.67C55.9657 68.53 55.6857 67.25 55.6857 65.83C55.6857 64.41 55.9657 63.13 56.5257 61.99C57.0957 60.85 57.8707 59.845 58.8507 58.975L60.0807 59.95C59.1907 60.82 58.5407 61.725 58.1307 62.665C57.7307 63.595 57.5307 64.65 57.5307 65.83C57.5307 66.42 57.5807 66.98 57.6807 67.51C57.7807 68.03 57.9307 68.53 58.1307 69.01C58.3407 69.49 58.6057 69.95 58.9257 70.39C59.2457 70.84 59.6307 71.28 60.0807 71.71L58.8507 72.685ZM126.814 71.71C127.264 71.28 127.649 70.84 127.969 70.39C128.289 69.95 128.549 69.49 128.749 69.01C128.959 68.53 129.114 68.03 129.214 67.51C129.314 66.98 129.364 66.42 129.364 65.83C129.364 64.65 129.159 63.595 128.749 62.665C128.349 61.725 127.704 60.82 126.814 59.95L128.044 58.975C129.024 59.845 129.794 60.85 130.354 61.99C130.924 63.13 131.209 64.41 131.209 65.83C131.209 67.25 130.924 68.53 130.354 69.67C129.794 70.81 129.024 71.815 128.044 72.685L126.814 71.71ZM58.8507 90.685C57.8707 89.815 57.0957 88.81 56.5257 87.67C55.9657 86.53 55.6857 85.25 55.6857 83.83C55.6857 82.41 55.9657 81.13 56.5257 79.99C57.0957 78.85 57.8707 77.845 58.8507 76.975L60.0807 77.95C59.1907 78.82 58.5407 79.725 58.1307 80.665C57.7307 81.595 57.5307 82.65 57.5307 83.83C57.5307 84.42 57.5807 84.98 57.6807 85.51C57.7807 86.03 57.9307 86.53 58.1307 87.01C58.3407 87.49 58.6057 87.95 58.9257 88.39C59.2457 88.84 59.6307 89.28 60.0807 89.71L58.8507 90.685ZM135.808 89.71C136.258 89.28 136.643 88.84 136.963 88.39C137.283 87.95 137.543 87.49 137.743 87.01C137.953 86.53 138.108 86.03 138.208 85.51C138.308 84.98 138.358 84.42 138.358 83.83C138.358 82.65 138.153 81.595 137.743 80.665C137.343 79.725 136.698 78.82 135.808 77.95L137.038 76.975C138.018 77.845 138.788 78.85 139.348 79.99C139.918 81.13 140.203 82.41 140.203 83.83C140.203 85.25 139.918 86.53 139.348 87.67C138.788 88.81 138.018 89.815 137.038 90.685L135.808 89.71ZM58.8507 109.685C57.8707 108.815 57.0957 107.81 56.5257 106.67C55.9657 105.53 55.6857 104.25 55.6857 102.83C55.6857 101.41 55.9657 100.13 56.5257 98.99C57.0957 97.85 57.8707 96.845 58.8507 95.975L60.0807 96.95C59.1907 97.82 58.5407 98.725 58.1307 99.665C57.7307 100.595 57.5307 101.65 57.5307 102.83C57.5307 103.42 57.5807 103.98 57.6807 104.51C57.7807 105.03 57.9307 105.53 58.1307 106.01C58.3407 106.49 58.6057 106.95 58.9257 107.39C59.2457 107.84 59.6307 108.28 60.0807 108.71L58.8507 109.685ZM126.814 108.71C127.264 108.28 127.649 107.84 127.969 107.39C128.289 106.95 128.549 106.49 128.749 106.01C128.959 105.53 129.114 105.03 129.214 104.51C129.314 103.98 129.364 103.42 129.364 102.83C129.364 101.65 129.159 100.595 128.749 99.665C128.349 98.725 127.704 97.82 126.814 96.95L128.044 95.975C129.024 96.845 129.794 97.85 130.354 98.99C130.924 100.13 131.209 101.41 131.209 102.83C131.209 104.25 130.924 105.53 130.354 106.67C129.794 107.81 129.024 108.815 128.044 109.685L126.814 108.71ZM58.8507 128.685C57.8707 127.815 57.0957 126.81 56.5257 125.67C55.9657 124.53 55.6857 123.25 55.6857 121.83C55.6857 120.41 55.9657 119.13 56.5257 117.99C57.0957 116.85 57.8707 115.845 58.8507 114.975L60.0807 115.95C59.1907 116.82 58.5407 117.725 58.1307 118.665C57.7307 119.595 57.5307 120.65 57.5307 121.83C57.5307 122.42 57.5807 122.98 57.6807 123.51C57.7807 124.03 57.9307 124.53 58.1307 125.01C58.3407 125.49 58.6057 125.95 58.9257 126.39C59.2457 126.84 59.6307 127.28 60.0807 127.71L58.8507 128.685ZM126.814 127.71C127.264 127.28 127.649 126.84 127.969 126.39C128.289 125.95 128.549 125.49 128.749 125.01C128.959 124.53 129.114 124.03 129.214 123.51C129.314 122.98 129.364 122.42 129.364 121.83C129.364 120.65 129.159 119.595 128.749 118.665C128.349 117.725 127.704 116.82 126.814 115.95L128.044 114.975C129.024 115.845 129.794 116.85 130.354 117.99C130.924 119.13 131.209 120.41 131.209 121.83C131.209 123.25 130.924 124.53 130.354 125.67C129.794 126.81 129.024 127.815 128.044 128.685L126.814 127.71ZM58.8507 147.685C57.8707 146.815 57.0957 145.81 56.5257 144.67C55.9657 143.53 55.6857 142.25 55.6857 140.83C55.6857 139.41 55.9657 138.13 56.5257 136.99C57.0957 135.85 57.8707 134.845 58.8507 133.975L60.0807 134.95C59.1907 135.82 58.5407 136.725 58.1307 137.665C57.7307 138.595 57.5307 139.65 57.5307 140.83C57.5307 141.42 57.5807 141.98 57.6807 142.51C57.7807 143.03 57.9307 143.53 58.1307 144.01C58.3407 144.49 58.6057 144.95 58.9257 145.39C59.2457 145.84 59.6307 146.28 60.0807 146.71L58.8507 147.685ZM135.808 146.71C136.258 146.28 136.643 145.84 136.963 145.39C137.283 144.95 137.543 144.49 137.743 144.01C137.953 143.53 138.108 143.03 138.208 142.51C138.308 141.98 138.358 141.42 138.358 140.83C138.358 139.65 138.153 138.595 137.743 137.665C137.343 136.725 136.698 135.82 135.808 134.95L137.038 133.975C138.018 134.845 138.788 135.85 139.348 136.99C139.918 138.13 140.203 139.41 140.203 140.83C140.203 142.25 139.918 143.53 139.348 144.67C138.788 145.81 138.018 146.815 137.038 147.685L135.808 146.71Z" fill="white"/>
<path d="M65.2648 42.9L65.1898 40.725H67.7398L67.6648 42.9L67.1398 46.455H65.7898L65.2648 42.9ZM71.874 48.93C71.874 48.51 71.964 48.145 72.144 47.835C72.324 47.515 72.609 47.245 72.999 47.025C73.399 46.805 73.909 46.63 74.529 46.5C75.149 46.36 75.899 46.265 76.779 46.215C76.739 45.875 76.589 45.61 76.329 45.42C76.079 45.23 75.699 45.135 75.189 45.135C74.829 45.135 74.464 45.2 74.094 45.33C73.734 45.45 73.344 45.615 72.924 45.825L72.144 44.385C72.654 44.095 73.199 43.855 73.779 43.665C74.369 43.475 74.984 43.38 75.624 43.38C76.664 43.38 77.484 43.655 78.084 44.205C78.684 44.755 78.984 45.6 78.984 46.74V51H77.184L77.019 50.16H76.959C76.579 50.45 76.164 50.695 75.714 50.895C75.264 51.085 74.799 51.18 74.319 51.18C73.939 51.18 73.599 51.12 73.299 51C72.999 50.89 72.744 50.735 72.534 50.535C72.324 50.325 72.159 50.085 72.039 49.815C71.929 49.545 71.874 49.25 71.874 48.93ZM73.989 48.765C73.989 49.005 74.079 49.185 74.259 49.305C74.449 49.415 74.704 49.47 75.024 49.47C75.354 49.47 75.664 49.405 75.954 49.275C76.244 49.135 76.519 48.965 76.779 48.765V47.535C76.229 47.565 75.774 47.615 75.414 47.685C75.054 47.755 74.769 47.845 74.559 47.955C74.349 48.055 74.199 48.175 74.109 48.315C74.029 48.455 73.989 48.605 73.989 48.765ZM83.2531 42.9L83.1781 40.725H85.7281L85.6531 42.9L85.1281 46.455H83.7781L83.2531 42.9ZM65.2648 61.9L65.1898 59.725H67.7398L67.6648 61.9L67.1398 65.455H65.7898L65.2648 61.9ZM71.874 67.93C71.874 67.51 71.964 67.145 72.144 66.835C72.324 66.515 72.609 66.245 72.999 66.025C73.399 65.805 73.909 65.63 74.529 65.5C75.149 65.36 75.899 65.265 76.779 65.215C76.739 64.875 76.589 64.61 76.329 64.42C76.079 64.23 75.699 64.135 75.189 64.135C74.829 64.135 74.464 64.2 74.094 64.33C73.734 64.45 73.344 64.615 72.924 64.825L72.144 63.385C72.654 63.095 73.199 62.855 73.779 62.665C74.369 62.475 74.984 62.38 75.624 62.38C76.664 62.38 77.484 62.655 78.084 63.205C78.684 63.755 78.984 64.6 78.984 65.74V70H77.184L77.019 69.16H76.959C76.579 69.45 76.164 69.695 75.714 69.895C75.264 70.085 74.799 70.18 74.319 70.18C73.939 70.18 73.599 70.12 73.299 70C72.999 69.89 72.744 69.735 72.534 69.535C72.324 69.325 72.159 69.085 72.039 68.815C71.929 68.545 71.874 68.25 71.874 67.93ZM73.989 67.765C73.989 68.005 74.079 68.185 74.259 68.305C74.449 68.415 74.704 68.47 75.024 68.47C75.354 68.47 75.664 68.405 75.954 68.275C76.244 68.135 76.519 67.965 76.779 67.765V66.535C76.229 66.565 75.774 66.615 75.414 66.685C75.054 66.755 74.769 66.845 74.559 66.955C74.349 67.055 74.199 67.175 74.109 67.315C74.029 67.455 73.989 67.605 73.989 67.765ZM83.2531 61.9L83.1781 59.725H85.7281L85.6531 61.9L85.1281 65.455H83.7781L83.2531 61.9ZM65.2648 79.9L65.1898 77.725H67.7398L67.6648 79.9L67.1398 83.455H65.7898L65.2648 79.9ZM71.874 85.93C71.874 85.51 71.964 85.145 72.144 84.835C72.324 84.515 72.609 84.245 72.999 84.025C73.399 83.805 73.909 83.63 74.529 83.5C75.149 83.36 75.899 83.265 76.779 83.215C76.739 82.875 76.589 82.61 76.329 82.42C76.079 82.23 75.699 82.135 75.189 82.135C74.829 82.135 74.464 82.2 74.094 82.33C73.734 82.45 73.344 82.615 72.924 82.825L72.144 81.385C72.654 81.095 73.199 80.855 73.779 80.665C74.369 80.475 74.984 80.38 75.624 80.38C76.664 80.38 77.484 80.655 78.084 81.205C78.684 81.755 78.984 82.6 78.984 83.74V88H77.184L77.019 87.16H76.959C76.579 87.45 76.164 87.695 75.714 87.895C75.264 88.085 74.799 88.18 74.319 88.18C73.939 88.18 73.599 88.12 73.299 88C72.999 87.89 72.744 87.735 72.534 87.535C72.324 87.325 72.159 87.085 72.039 86.815C71.929 86.545 71.874 86.25 71.874 85.93ZM73.989 85.765C73.989 86.005 74.079 86.185 74.259 86.305C74.449 86.415 74.704 86.47 75.024 86.47C75.354 86.47 75.664 86.405 75.954 86.275C76.244 86.135 76.519 85.965 76.779 85.765V84.535C76.229 84.565 75.774 84.615 75.414 84.685C75.054 84.755 74.769 84.845 74.559 84.955C74.349 85.055 74.199 85.175 74.109 85.315C74.029 85.455 73.989 85.605 73.989 85.765ZM92.2473 79.9L92.1723 77.725H94.7223L94.6473 79.9L94.1223 83.455H92.7723L92.2473 79.9ZM65.2648 98.9L65.1898 96.725H67.7398L67.6648 98.9L67.1398 102.455H65.7898L65.2648 98.9ZM71.874 104.93C71.874 104.51 71.964 104.145 72.144 103.835C72.324 103.515 72.609 103.245 72.999 103.025C73.399 102.805 73.909 102.63 74.529 102.5C75.149 102.36 75.899 102.265 76.779 102.215C76.739 101.875 76.589 101.61 76.329 101.42C76.079 101.23 75.699 101.135 75.189 101.135C74.829 101.135 74.464 101.2 74.094 101.33C73.734 101.45 73.344 101.615 72.924 101.825L72.144 100.385C72.654 100.095 73.199 99.855 73.779 99.665C74.369 99.475 74.984 99.38 75.624 99.38C76.664 99.38 77.484 99.655 78.084 100.205C78.684 100.755 78.984 101.6 78.984 102.74V107H77.184L77.019 106.16H76.959C76.579 106.45 76.164 106.695 75.714 106.895C75.264 107.085 74.799 107.18 74.319 107.18C73.939 107.18 73.599 107.12 73.299 107C72.999 106.89 72.744 106.735 72.534 106.535C72.324 106.325 72.159 106.085 72.039 105.815C71.929 105.545 71.874 105.25 71.874 104.93ZM73.989 104.765C73.989 105.005 74.079 105.185 74.259 105.305C74.449 105.415 74.704 105.47 75.024 105.47C75.354 105.47 75.664 105.405 75.954 105.275C76.244 105.135 76.519 104.965 76.779 104.765V103.535C76.229 103.565 75.774 103.615 75.414 103.685C75.054 103.755 74.769 103.845 74.559 103.955C74.349 104.055 74.199 104.175 74.109 104.315C74.029 104.455 73.989 104.605 73.989 104.765ZM83.2531 98.9L83.1781 96.725H85.7281L85.6531 98.9L85.1281 102.455H83.7781L83.2531 98.9ZM65.2648 117.9L65.1898 115.725H67.7398L67.6648 117.9L67.1398 121.455H65.7898L65.2648 117.9ZM71.874 123.93C71.874 123.51 71.964 123.145 72.144 122.835C72.324 122.515 72.609 122.245 72.999 122.025C73.399 121.805 73.909 121.63 74.529 121.5C75.149 121.36 75.899 121.265 76.779 121.215C76.739 120.875 76.589 120.61 76.329 120.42C76.079 120.23 75.699 120.135 75.189 120.135C74.829 120.135 74.464 120.2 74.094 120.33C73.734 120.45 73.344 120.615 72.924 120.825L72.144 119.385C72.654 119.095 73.199 118.855 73.779 118.665C74.369 118.475 74.984 118.38 75.624 118.38C76.664 118.38 77.484 118.655 78.084 119.205C78.684 119.755 78.984 120.6 78.984 121.74V126H77.184L77.019 125.16H76.959C76.579 125.45 76.164 125.695 75.714 125.895C75.264 126.085 74.799 126.18 74.319 126.18C73.939 126.18 73.599 126.12 73.299 126C72.999 125.89 72.744 125.735 72.534 125.535C72.324 125.325 72.159 125.085 72.039 124.815C71.929 124.545 71.874 124.25 71.874 123.93ZM73.989 123.765C73.989 124.005 74.079 124.185 74.259 124.305C74.449 124.415 74.704 124.47 75.024 124.47C75.354 124.47 75.664 124.405 75.954 124.275C76.244 124.135 76.519 123.965 76.779 123.765V122.535C76.229 122.565 75.774 122.615 75.414 122.685C75.054 122.755 74.769 122.845 74.559 122.955C74.349 123.055 74.199 123.175 74.109 123.315C74.029 123.455 73.989 123.605 73.989 123.765ZM83.2531 117.9L83.1781 115.725H85.7281L85.6531 117.9L85.1281 121.455H83.7781L83.2531 117.9ZM65.2648 136.9L65.1898 134.725H67.7398L67.6648 136.9L67.1398 140.455H65.7898L65.2648 136.9ZM71.874 142.93C71.874 142.51 71.964 142.145 72.144 141.835C72.324 141.515 72.609 141.245 72.999 141.025C73.399 140.805 73.909 140.63 74.529 140.5C75.149 140.36 75.899 140.265 76.779 140.215C76.739 139.875 76.589 139.61 76.329 139.42C76.079 139.23 75.699 139.135 75.189 139.135C74.829 139.135 74.464 139.2 74.094 139.33C73.734 139.45 73.344 139.615 72.924 139.825L72.144 138.385C72.654 138.095 73.199 137.855 73.779 137.665C74.369 137.475 74.984 137.38 75.624 137.38C76.664 137.38 77.484 137.655 78.084 138.205C78.684 138.755 78.984 139.6 78.984 140.74V145H77.184L77.019 144.16H76.959C76.579 144.45 76.164 144.695 75.714 144.895C75.264 145.085 74.799 145.18 74.319 145.18C73.939 145.18 73.599 145.12 73.299 145C72.999 144.89 72.744 144.735 72.534 144.535C72.324 144.325 72.159 144.085 72.039 143.815C71.929 143.545 71.874 143.25 71.874 142.93ZM73.989 142.765C73.989 143.005 74.079 143.185 74.259 143.305C74.449 143.415 74.704 143.47 75.024 143.47C75.354 143.47 75.664 143.405 75.954 143.275C76.244 143.135 76.519 142.965 76.779 142.765V141.535C76.229 141.565 75.774 141.615 75.414 141.685C75.054 141.755 74.769 141.845 74.559 141.955C74.349 142.055 74.199 142.175 74.109 142.315C74.029 142.455 73.989 142.605 73.989 142.765ZM83.2531 136.9L83.1781 134.725H85.7281L85.6531 136.9L85.1281 140.455H83.7781L83.2531 136.9Z" fill="#009E73"/>
<path d="M99.7414 48.975L101.196 46.62L98.9014 45.6L99.2464 44.535L101.676 45.18L101.856 42.51H103.026L103.206 45.18L105.636 44.535L105.981 45.6L103.686 46.62L105.141 48.975L104.181 49.635L102.441 47.505L100.701 49.635L99.7414 48.975ZM99.7414 67.975L101.196 65.62L98.9014 64.6L99.2464 63.535L101.676 64.18L101.856 61.51H103.026L103.206 64.18L105.636 63.535L105.981 64.6L103.686 65.62L105.141 67.975L104.181 68.635L102.441 66.505L100.701 68.635L99.7414 67.975ZM108.736 85.975L110.191 83.62L107.896 82.6L108.241 81.535L110.671 82.18L110.851 79.51H112.021L112.201 82.18L114.631 81.535L114.976 82.6L112.681 83.62L114.136 85.975L113.176 86.635L111.436 84.505L109.696 86.635L108.736 85.975ZM99.7414 104.975L101.196 102.62L98.9014 101.6L99.2464 100.535L101.676 101.18L101.856 98.51H103.026L103.206 101.18L105.636 100.535L105.981 101.6L103.686 102.62L105.141 104.975L104.181 105.635L102.441 103.505L100.701 105.635L99.7414 104.975ZM99.7414 123.975L101.196 121.62L98.9014 120.6L99.2464 119.535L101.676 120.18L101.856 117.51H103.026L103.206 120.18L105.636 119.535L105.981 120.6L103.686 121.62L105.141 123.975L104.181 124.635L102.441 122.505L100.701 124.635L99.7414 123.975ZM99.7414 142.975L101.196 140.62L98.9014 139.6L99.2464 138.535L101.676 139.18L101.856 136.51H103.026L103.206 139.18L105.636 138.535L105.981 139.6L103.686 140.62L105.141 142.975L104.181 143.635L102.441 141.505L100.701 143.635L99.7414 142.975ZM116.98 139.27H123.88V140.83H116.98V139.27Z" fill="#BDBDBD"/>
<path d="M116.8 49.74C117.48 49.17 118.1 48.64 118.66 48.15C119.22 47.65 119.7 47.185 120.1 46.755C120.5 46.325 120.81 45.92 121.03 45.54C121.25 45.16 121.36 44.8 121.36 44.46C121.36 43.99 121.225 43.635 120.955 43.395C120.685 43.145 120.3 43.02 119.8 43.02C119.42 43.02 119.07 43.12 118.75 43.32C118.44 43.51 118.15 43.735 117.88 43.995L116.695 42.81C116.945 42.56 117.19 42.34 117.43 42.15C117.68 41.96 117.94 41.805 118.21 41.685C118.49 41.555 118.78 41.46 119.08 41.4C119.39 41.33 119.73 41.295 120.1 41.295C120.6 41.295 121.055 41.37 121.465 41.52C121.875 41.66 122.225 41.865 122.515 42.135C122.815 42.395 123.045 42.71 123.205 43.08C123.375 43.45 123.46 43.865 123.46 44.325C123.46 44.725 123.365 45.135 123.175 45.555C122.985 45.965 122.725 46.38 122.395 46.8C122.075 47.21 121.705 47.625 121.285 48.045C120.865 48.455 120.425 48.86 119.965 49.26C120.235 49.23 120.525 49.205 120.835 49.185C121.155 49.155 121.44 49.14 121.69 49.14H123.955V51H116.8V49.74ZM117.61 67.45C117.93 67.71 118.27 67.935 118.63 68.125C119 68.305 119.41 68.395 119.86 68.395C120.4 68.395 120.84 68.27 121.18 68.02C121.53 67.77 121.705 67.4 121.705 66.91C121.705 66.43 121.54 66.065 121.21 65.815C120.89 65.565 120.475 65.44 119.965 65.44C119.805 65.44 119.66 65.45 119.53 65.47C119.41 65.48 119.29 65.505 119.17 65.545C119.05 65.585 118.925 65.635 118.795 65.695C118.665 65.755 118.52 65.83 118.36 65.92L117.385 65.29L117.64 60.475H123.475V62.335H119.545L119.38 64.12C119.6 64.04 119.805 63.985 119.995 63.955C120.185 63.915 120.4 63.895 120.64 63.895C121.08 63.895 121.495 63.955 121.885 64.075C122.285 64.195 122.635 64.375 122.935 64.615C123.235 64.855 123.47 65.16 123.64 65.53C123.82 65.9 123.91 66.34 123.91 66.85C123.91 67.38 123.805 67.85 123.595 68.26C123.395 68.67 123.12 69.02 122.77 69.31C122.43 69.59 122.035 69.805 121.585 69.955C121.135 70.105 120.665 70.18 120.175 70.18C119.345 70.18 118.64 70.055 118.06 69.805C117.49 69.545 117.01 69.225 116.62 68.845L117.61 67.45ZM126.604 85.45C126.924 85.71 127.264 85.935 127.624 86.125C127.994 86.305 128.404 86.395 128.854 86.395C129.394 86.395 129.834 86.27 130.174 86.02C130.524 85.77 130.699 85.4 130.699 84.91C130.699 84.43 130.534 84.065 130.204 83.815C129.884 83.565 129.469 83.44 128.959 83.44C128.799 83.44 128.654 83.45 128.524 83.47C128.404 83.48 128.284 83.505 128.164 83.545C128.044 83.585 127.919 83.635 127.789 83.695C127.659 83.755 127.514 83.83 127.354 83.92L126.379 83.29L126.634 78.475H132.469V80.335H128.539L128.374 82.12C128.594 82.04 128.799 81.985 128.989 81.955C129.179 81.915 129.394 81.895 129.634 81.895C130.074 81.895 130.489 81.955 130.879 82.075C131.279 82.195 131.629 82.375 131.929 82.615C132.229 82.855 132.464 83.16 132.634 83.53C132.814 83.9 132.904 84.34 132.904 84.85C132.904 85.38 132.799 85.85 132.589 86.26C132.389 86.67 132.114 87.02 131.764 87.31C131.424 87.59 131.029 87.805 130.579 87.955C130.129 88.105 129.659 88.18 129.169 88.18C128.339 88.18 127.634 88.055 127.054 87.805C126.484 87.545 126.004 87.225 125.614 86.845L126.604 85.45ZM123.985 105.215V107H117.16V105.215H119.62V99.71H117.655V98.345C118.215 98.245 118.69 98.125 119.08 97.985C119.48 97.845 119.855 97.675 120.205 97.475H121.825V105.215H123.985ZM120.43 126.18C119.88 126.18 119.38 126.075 118.93 125.865C118.48 125.645 118.095 125.325 117.775 124.905C117.455 124.485 117.205 123.965 117.025 123.345C116.855 122.725 116.77 122.01 116.77 121.2C116.77 120.39 116.855 119.68 117.025 119.07C117.205 118.46 117.455 117.95 117.775 117.54C118.095 117.12 118.48 116.81 118.93 116.61C119.38 116.4 119.88 116.295 120.43 116.295C120.98 116.295 121.48 116.4 121.93 116.61C122.38 116.81 122.765 117.12 123.085 117.54C123.405 117.95 123.65 118.46 123.82 119.07C124 119.68 124.09 120.39 124.09 121.2C124.09 122.01 124 122.725 123.82 123.345C123.65 123.965 123.405 124.485 123.085 124.905C122.765 125.325 122.38 125.645 121.93 125.865C121.48 126.075 120.98 126.18 120.43 126.18ZM120.43 118.005C120.19 118.005 119.965 118.055 119.755 118.155C119.555 118.255 119.38 118.43 119.23 118.68C119.08 118.92 118.96 119.245 118.87 119.655C118.78 120.065 118.735 120.58 118.735 121.2C118.735 121.82 118.78 122.34 118.87 122.76C118.96 123.17 119.08 123.505 119.23 123.765C119.38 124.015 119.555 124.195 119.755 124.305C119.965 124.415 120.19 124.47 120.43 124.47C120.67 124.47 120.89 124.415 121.09 124.305C121.3 124.195 121.48 124.015 121.63 123.765C121.78 123.505 121.9 123.17 121.99 122.76C122.08 122.34 122.125 121.82 122.125 121.2C122.125 120.58 122.08 120.065 121.99 119.655C121.9 119.245 121.78 118.92 121.63 118.68C121.48 118.43 121.3 118.255 121.09 118.155C120.89 118.055 120.67 118.005 120.43 118.005ZM120.43 122.31C120.11 122.31 119.84 122.21 119.62 122.01C119.41 121.8 119.305 121.52 119.305 121.17C119.305 120.82 119.41 120.545 119.62 120.345C119.84 120.135 120.11 120.03 120.43 120.03C120.75 120.03 121.015 120.135 121.225 120.345C121.445 120.545 121.555 120.82 121.555 121.17C121.555 121.52 121.445 121.8 121.225 122.01C121.015 122.21 120.75 122.31 120.43 122.31ZM132.979 143.215V145H126.154V143.215H128.614V137.71H126.649V136.345C127.209 136.245 127.684 136.125 128.074 135.985C128.474 135.845 128.849 135.675 129.199 135.475H130.819V143.215H132.979Z" fill="#F0E442"/>
<path d="M237.682 118H235.485L231.208 110.983V118H229.01V107.336H231.208L235.492 114.367V107.336H237.682V118ZM239.132 113.964C239.132 113.178 239.284 112.478 239.586 111.862C239.889 111.247 240.324 110.771 240.89 110.434C241.461 110.097 242.123 109.929 242.875 109.929C243.944 109.929 244.816 110.256 245.49 110.91C246.168 111.564 246.547 112.453 246.625 113.576L246.64 114.118C246.64 115.334 246.3 116.311 245.622 117.048C244.943 117.78 244.032 118.146 242.89 118.146C241.747 118.146 240.834 117.78 240.15 117.048C239.472 116.315 239.132 115.319 239.132 114.06V113.964ZM241.249 114.118C241.249 114.87 241.391 115.446 241.674 115.847C241.957 116.242 242.362 116.44 242.89 116.44C243.402 116.44 243.803 116.245 244.091 115.854C244.379 115.458 244.523 114.829 244.523 113.964C244.523 113.227 244.379 112.656 244.091 112.25C243.803 111.845 243.397 111.643 242.875 111.643C242.357 111.643 241.957 111.845 241.674 112.25C241.391 112.651 241.249 113.273 241.249 114.118ZM251.349 113.964C251.349 113.178 251.5 112.478 251.803 111.862C252.106 111.247 252.541 110.771 253.107 110.434C253.678 110.097 254.34 109.929 255.092 109.929C256.161 109.929 257.033 110.256 257.707 110.91C258.385 111.564 258.764 112.453 258.842 113.576L258.856 114.118C258.856 115.334 258.517 116.311 257.838 117.048C257.16 117.78 256.249 118.146 255.106 118.146C253.964 118.146 253.051 117.78 252.367 117.048C251.688 116.315 251.349 115.319 251.349 114.06V113.964ZM253.466 114.118C253.466 114.87 253.607 115.446 253.891 115.847C254.174 116.242 254.579 116.44 255.106 116.44C255.619 116.44 256.02 116.245 256.308 115.854C256.596 115.458 256.74 114.829 256.74 113.964C256.74 113.227 256.596 112.656 256.308 112.25C256.02 111.845 255.614 111.643 255.092 111.643C254.574 111.643 254.174 111.845 253.891 112.25C253.607 112.651 253.466 113.273 253.466 114.118ZM264.906 117.194C264.384 117.829 263.661 118.146 262.738 118.146C261.889 118.146 261.239 117.902 260.79 117.414C260.346 116.926 260.119 116.21 260.109 115.268V110.075H262.226V115.195C262.226 116.02 262.602 116.433 263.354 116.433C264.071 116.433 264.564 116.184 264.833 115.686V110.075H266.957V118H264.965L264.906 117.194ZM271.088 108.127V110.075H272.443V111.628H271.088V115.583C271.088 115.876 271.144 116.086 271.256 116.213C271.369 116.34 271.583 116.403 271.901 116.403C272.135 116.403 272.343 116.386 272.523 116.352V117.956C272.108 118.083 271.681 118.146 271.242 118.146C269.757 118.146 269 117.397 268.971 115.898V111.628H267.814V110.075H268.971V108.127H271.088ZM280.756 114.111C280.756 115.332 280.478 116.311 279.921 117.048C279.369 117.78 278.622 118.146 277.68 118.146C276.879 118.146 276.232 117.868 275.739 117.312V121.047H273.622V110.075H275.585L275.658 110.852C276.171 110.236 276.84 109.929 277.665 109.929C278.642 109.929 279.401 110.29 279.943 111.013C280.485 111.735 280.756 112.731 280.756 114.001V114.111ZM278.639 113.957C278.639 113.22 278.507 112.651 278.244 112.25C277.985 111.85 277.606 111.65 277.108 111.65C276.444 111.65 275.988 111.904 275.739 112.412V115.656C275.998 116.179 276.459 116.44 277.123 116.44C278.134 116.44 278.639 115.612 278.639 113.957ZM286.82 117.194C286.298 117.829 285.575 118.146 284.652 118.146C283.803 118.146 283.153 117.902 282.704 117.414C282.26 116.926 282.033 116.21 282.023 115.268V110.075H284.14V115.195C284.14 116.02 284.516 116.433 285.268 116.433C285.985 116.433 286.479 116.184 286.747 115.686V110.075H288.871V118H286.879L286.82 117.194ZM293.002 108.127V110.075H294.357V111.628H293.002V115.583C293.002 115.876 293.058 116.086 293.17 116.213C293.283 116.34 293.498 116.403 293.815 116.403C294.049 116.403 294.257 116.386 294.438 116.352V117.956C294.022 118.083 293.595 118.146 293.156 118.146C291.671 118.146 290.915 117.397 290.885 115.898V111.628H289.728V110.075H290.885V108.127H293.002ZM299.85 118V111.628H298.671V110.075H299.85V109.401C299.85 108.513 300.104 107.824 300.612 107.336C301.125 106.843 301.84 106.596 302.758 106.596C303.051 106.596 303.41 106.645 303.834 106.743L303.812 108.383C303.637 108.339 303.422 108.317 303.168 108.317C302.372 108.317 301.974 108.691 301.974 109.438V110.075H303.549V111.628H301.974V118H299.85ZM304.318 113.964C304.318 113.178 304.469 112.478 304.772 111.862C305.075 111.247 305.509 110.771 306.076 110.434C306.647 110.097 307.309 109.929 308.061 109.929C309.13 109.929 310.001 110.256 310.675 110.91C311.354 111.564 311.732 112.453 311.811 113.576L311.825 114.118C311.825 115.334 311.486 116.311 310.807 117.048C310.128 117.78 309.218 118.146 308.075 118.146C306.933 118.146 306.02 117.78 305.336 117.048C304.657 116.315 304.318 115.319 304.318 114.06V113.964ZM306.435 114.118C306.435 114.87 306.576 115.446 306.859 115.847C307.143 116.242 307.548 116.44 308.075 116.44C308.588 116.44 308.988 116.245 309.276 115.854C309.564 115.458 309.708 114.829 309.708 113.964C309.708 113.227 309.564 112.656 309.276 112.25C308.988 111.845 308.583 111.643 308.061 111.643C307.543 111.643 307.143 111.845 306.859 112.25C306.576 112.651 306.435 113.273 306.435 114.118ZM317.582 112.06C317.294 112.021 317.04 112.001 316.82 112.001C316.02 112.001 315.495 112.272 315.246 112.814V118H313.129V110.075H315.128L315.187 111.02C315.612 110.292 316.2 109.929 316.952 109.929C317.187 109.929 317.406 109.96 317.611 110.024L317.582 112.06ZM324.877 108.127V110.075H326.232V111.628H324.877V115.583C324.877 115.876 324.933 116.086 325.045 116.213C325.158 116.34 325.373 116.403 325.69 116.403C325.924 116.403 326.132 116.386 326.312 116.352V117.956C325.897 118.083 325.47 118.146 325.031 118.146C323.546 118.146 322.79 117.397 322.76 115.898V111.628H321.603V110.075H322.76V108.127H324.877ZM329.477 110.939C330.038 110.266 330.744 109.929 331.593 109.929C333.312 109.929 334.184 110.927 334.208 112.924V118H332.091V112.983C332.091 112.529 331.994 112.194 331.798 111.979C331.603 111.76 331.278 111.65 330.824 111.65C330.204 111.65 329.755 111.889 329.477 112.368V118H327.36V106.75H329.477V110.939ZM339.452 118.146C338.29 118.146 337.343 117.79 336.61 117.077C335.883 116.364 335.519 115.415 335.519 114.228V114.023C335.519 113.227 335.673 112.517 335.98 111.892C336.288 111.262 336.723 110.778 337.284 110.441C337.851 110.1 338.495 109.929 339.218 109.929C340.302 109.929 341.154 110.271 341.774 110.954C342.399 111.638 342.711 112.607 342.711 113.862V114.726H337.665C337.733 115.244 337.938 115.659 338.28 115.971C338.627 116.284 339.064 116.44 339.591 116.44C340.407 116.44 341.044 116.145 341.503 115.554L342.543 116.718C342.226 117.167 341.796 117.519 341.254 117.773C340.712 118.022 340.111 118.146 339.452 118.146ZM339.21 111.643C338.791 111.643 338.449 111.784 338.185 112.067C337.926 112.351 337.76 112.756 337.687 113.283H340.631V113.115C340.622 112.646 340.495 112.285 340.25 112.031C340.006 111.772 339.66 111.643 339.21 111.643ZM348.212 115.81C348.212 115.551 348.083 115.349 347.824 115.202C347.57 115.051 347.16 114.917 346.593 114.799C344.708 114.404 343.766 113.603 343.766 112.397C343.766 111.694 344.057 111.108 344.638 110.639C345.224 110.166 345.988 109.929 346.93 109.929C347.936 109.929 348.739 110.166 349.34 110.639C349.945 111.113 350.248 111.728 350.248 112.485H348.131C348.131 112.182 348.034 111.933 347.838 111.738C347.643 111.538 347.338 111.438 346.923 111.438C346.566 111.438 346.291 111.518 346.095 111.679C345.9 111.84 345.802 112.045 345.802 112.294C345.802 112.529 345.912 112.719 346.132 112.866C346.356 113.007 346.732 113.132 347.26 113.239C347.787 113.342 348.231 113.459 348.593 113.591C349.711 114.001 350.27 114.711 350.27 115.722C350.27 116.445 349.96 117.031 349.34 117.48C348.72 117.924 347.919 118.146 346.938 118.146C346.273 118.146 345.683 118.029 345.165 117.795C344.652 117.556 344.25 117.231 343.957 116.821C343.664 116.406 343.517 115.959 343.517 115.48H345.524C345.543 115.856 345.683 116.145 345.941 116.345C346.2 116.545 346.547 116.645 346.981 116.645C347.387 116.645 347.692 116.569 347.897 116.418C348.107 116.262 348.212 116.059 348.212 115.81ZM355.287 118.146C354.125 118.146 353.178 117.79 352.445 117.077C351.718 116.364 351.354 115.415 351.354 114.228V114.023C351.354 113.227 351.508 112.517 351.815 111.892C352.123 111.262 352.558 110.778 353.119 110.441C353.686 110.1 354.33 109.929 355.053 109.929C356.137 109.929 356.989 110.271 357.609 110.954C358.234 111.638 358.546 112.607 358.546 113.862V114.726H353.5C353.568 115.244 353.773 115.659 354.115 115.971C354.462 116.284 354.899 116.44 355.426 116.44C356.242 116.44 356.879 116.145 357.338 115.554L358.378 116.718C358.061 117.167 357.631 117.519 357.089 117.773C356.547 118.022 355.946 118.146 355.287 118.146ZM355.045 111.643C354.625 111.643 354.284 111.784 354.02 112.067C353.761 112.351 353.595 112.756 353.522 113.283H356.466V113.115C356.457 112.646 356.33 112.285 356.085 112.031C355.841 111.772 355.495 111.643 355.045 111.643ZM239.484 125.127V127.075H240.839V128.628H239.484V132.583C239.484 132.876 239.54 133.086 239.652 133.213C239.765 133.34 239.979 133.403 240.297 133.403C240.531 133.403 240.739 133.386 240.919 133.352V134.956C240.504 135.083 240.077 135.146 239.638 135.146C238.153 135.146 237.396 134.397 237.367 132.898V128.628H236.21V127.075H237.367V125.127H239.484ZM248.91 132.122L249.95 127.075H251.994L249.972 135H248.2L246.698 130.012L245.197 135H243.432L241.41 127.075H243.454L244.486 132.114L245.937 127.075H247.467L248.91 132.122ZM252.719 130.964C252.719 130.178 252.87 129.478 253.173 128.862C253.476 128.247 253.91 127.771 254.477 127.434C255.048 127.097 255.709 126.929 256.461 126.929C257.531 126.929 258.402 127.256 259.076 127.91C259.755 128.564 260.133 129.453 260.211 130.576L260.226 131.118C260.226 132.334 259.887 133.311 259.208 134.048C258.529 134.78 257.619 135.146 256.476 135.146C255.333 135.146 254.42 134.78 253.737 134.048C253.058 133.315 252.719 132.319 252.719 131.06V130.964ZM254.835 131.118C254.835 131.87 254.977 132.446 255.26 132.847C255.543 133.242 255.949 133.44 256.476 133.44C256.989 133.44 257.389 133.245 257.677 132.854C257.965 132.458 258.109 131.829 258.109 130.964C258.109 130.227 257.965 129.656 257.677 129.25C257.389 128.845 256.984 128.643 256.461 128.643C255.944 128.643 255.543 128.845 255.26 129.25C254.977 129.651 254.835 130.273 254.835 131.118ZM267.499 135H265.375V123.75H267.499V135ZM271.483 135H269.359V127.075H271.483V135ZM269.235 125.024C269.235 124.707 269.34 124.446 269.55 124.241C269.765 124.036 270.055 123.933 270.421 123.933C270.783 123.933 271.071 124.036 271.286 124.241C271.5 124.446 271.608 124.707 271.608 125.024C271.608 125.347 271.498 125.61 271.278 125.815C271.063 126.021 270.778 126.123 270.421 126.123C270.065 126.123 269.777 126.021 269.557 125.815C269.342 125.61 269.235 125.347 269.235 125.024ZM275.182 127.075L275.248 127.991C275.814 127.283 276.574 126.929 277.526 126.929C278.366 126.929 278.991 127.175 279.401 127.668C279.811 128.162 280.021 128.899 280.031 129.88V135H277.914V129.932C277.914 129.482 277.816 129.158 277.621 128.958C277.426 128.752 277.101 128.65 276.647 128.65C276.051 128.65 275.604 128.904 275.307 129.412V135H273.19V127.075H275.182ZM285.29 135.146C284.127 135.146 283.18 134.79 282.448 134.077C281.72 133.364 281.356 132.415 281.356 131.228V131.023C281.356 130.227 281.51 129.517 281.818 128.892C282.125 128.262 282.56 127.778 283.122 127.441C283.688 127.1 284.333 126.929 285.055 126.929C286.139 126.929 286.991 127.271 287.611 127.954C288.236 128.638 288.549 129.607 288.549 130.862V131.726H283.502C283.571 132.244 283.776 132.659 284.118 132.971C284.464 133.284 284.901 133.44 285.429 133.44C286.244 133.44 286.881 133.145 287.34 132.554L288.38 133.718C288.063 134.167 287.633 134.519 287.091 134.773C286.549 135.022 285.949 135.146 285.29 135.146ZM285.048 128.643C284.628 128.643 284.286 128.784 284.022 129.067C283.764 129.351 283.598 129.756 283.524 130.283H286.469V130.115C286.459 129.646 286.332 129.285 286.088 129.031C285.844 128.772 285.497 128.643 285.048 128.643ZM294.049 132.81C294.049 132.551 293.92 132.349 293.661 132.202C293.407 132.051 292.997 131.917 292.431 131.799C290.546 131.404 289.604 130.603 289.604 129.397C289.604 128.694 289.894 128.108 290.475 127.639C291.061 127.166 291.825 126.929 292.768 126.929C293.773 126.929 294.577 127.166 295.177 127.639C295.783 128.113 296.085 128.728 296.085 129.485H293.969C293.969 129.182 293.871 128.933 293.676 128.738C293.48 128.538 293.175 128.438 292.76 128.438C292.404 128.438 292.128 128.518 291.933 128.679C291.737 128.84 291.64 129.045 291.64 129.294C291.64 129.529 291.75 129.719 291.969 129.866C292.194 130.007 292.57 130.132 293.097 130.239C293.625 130.342 294.069 130.459 294.43 130.591C295.548 131.001 296.107 131.711 296.107 132.722C296.107 133.445 295.797 134.031 295.177 134.48C294.557 134.924 293.756 135.146 292.775 135.146C292.111 135.146 291.52 135.029 291.002 134.795C290.49 134.556 290.087 134.231 289.794 133.821C289.501 133.406 289.354 132.959 289.354 132.48H291.361C291.381 132.856 291.52 133.145 291.779 133.345C292.038 133.545 292.384 133.645 292.819 133.645C293.224 133.645 293.529 133.569 293.734 133.418C293.944 133.262 294.049 133.059 294.049 132.81ZM300.883 130.964C300.883 130.178 301.034 129.478 301.337 128.862C301.64 128.247 302.074 127.771 302.641 127.434C303.212 127.097 303.874 126.929 304.625 126.929C305.695 126.929 306.566 127.256 307.24 127.91C307.919 128.564 308.297 129.453 308.375 130.576L308.39 131.118C308.39 132.334 308.051 133.311 307.372 134.048C306.693 134.78 305.783 135.146 304.64 135.146C303.498 135.146 302.584 134.78 301.901 134.048C301.222 133.315 300.883 132.319 300.883 131.06V130.964ZM303 131.118C303 131.87 303.141 132.446 303.424 132.847C303.708 133.242 304.113 133.44 304.64 133.44C305.153 133.44 305.553 133.245 305.841 132.854C306.129 132.458 306.273 131.829 306.273 130.964C306.273 130.227 306.129 129.656 305.841 129.25C305.553 128.845 305.148 128.643 304.625 128.643C304.108 128.643 303.708 128.845 303.424 129.25C303.141 129.651 303 130.273 303 131.118ZM310.272 135V128.628H309.093V127.075H310.272V126.401C310.272 125.513 310.526 124.824 311.034 124.336C311.547 123.843 312.262 123.596 313.18 123.596C313.473 123.596 313.832 123.645 314.257 123.743L314.235 125.383C314.059 125.339 313.844 125.317 313.59 125.317C312.794 125.317 312.396 125.691 312.396 126.438V127.075H313.971V128.628H312.396V135H310.272ZM322.101 133.44C322.492 133.44 322.809 133.333 323.053 133.118C323.297 132.903 323.424 132.617 323.434 132.261H325.419C325.414 132.798 325.268 133.291 324.979 133.74C324.691 134.185 324.296 134.531 323.793 134.78C323.295 135.024 322.743 135.146 322.138 135.146C321.005 135.146 320.111 134.788 319.457 134.07C318.803 133.347 318.476 132.351 318.476 131.082V130.942C318.476 129.722 318.8 128.748 319.45 128.02C320.099 127.292 320.99 126.929 322.123 126.929C323.114 126.929 323.908 127.212 324.503 127.778C325.104 128.34 325.409 129.089 325.419 130.027H323.434C323.424 129.617 323.297 129.285 323.053 129.031C322.809 128.772 322.487 128.643 322.086 128.643C321.593 128.643 321.22 128.823 320.966 129.185C320.717 129.541 320.592 130.122 320.592 130.928V131.147C320.592 131.963 320.717 132.549 320.966 132.905C321.215 133.262 321.593 133.44 322.101 133.44ZM326.298 130.964C326.298 130.178 326.449 129.478 326.752 128.862C327.055 128.247 327.489 127.771 328.056 127.434C328.627 127.097 329.289 126.929 330.041 126.929C331.11 126.929 331.981 127.256 332.655 127.91C333.334 128.564 333.712 129.453 333.791 130.576L333.805 131.118C333.805 132.334 333.466 133.311 332.787 134.048C332.108 134.78 331.198 135.146 330.055 135.146C328.913 135.146 328 134.78 327.316 134.048C326.637 133.315 326.298 132.319 326.298 131.06V130.964ZM328.415 131.118C328.415 131.87 328.556 132.446 328.839 132.847C329.123 133.242 329.528 133.44 330.055 133.44C330.568 133.44 330.968 133.245 331.256 132.854C331.544 132.458 331.688 131.829 331.688 130.964C331.688 130.227 331.544 129.656 331.256 129.25C330.968 128.845 330.563 128.643 330.041 128.643C329.523 128.643 329.123 128.845 328.839 129.25C328.556 129.651 328.415 130.273 328.415 131.118ZM334.779 130.979C334.779 129.744 335.055 128.76 335.607 128.027C336.164 127.295 336.923 126.929 337.885 126.929C338.656 126.929 339.293 127.217 339.796 127.793V123.75H341.92V135H340.009L339.906 134.158C339.379 134.817 338.7 135.146 337.87 135.146C336.938 135.146 336.188 134.78 335.622 134.048C335.06 133.311 334.779 132.288 334.779 130.979ZM336.896 131.133C336.896 131.875 337.025 132.444 337.284 132.839C337.543 133.235 337.919 133.433 338.412 133.433C339.066 133.433 339.528 133.157 339.796 132.605V129.478C339.533 128.926 339.076 128.65 338.427 128.65C337.406 128.65 336.896 129.478 336.896 131.133ZM347.208 135.146C346.046 135.146 345.099 134.79 344.367 134.077C343.639 133.364 343.275 132.415 343.275 131.228V131.023C343.275 130.227 343.429 129.517 343.737 128.892C344.044 128.262 344.479 127.778 345.041 127.441C345.607 127.1 346.251 126.929 346.974 126.929C348.058 126.929 348.91 127.271 349.53 127.954C350.155 128.638 350.468 129.607 350.468 130.862V131.726H345.421C345.49 132.244 345.695 132.659 346.037 132.971C346.383 133.284 346.82 133.44 347.348 133.44C348.163 133.44 348.8 133.145 349.259 132.554L350.299 133.718C349.982 134.167 349.552 134.519 349.01 134.773C348.468 135.022 347.868 135.146 347.208 135.146ZM346.967 128.643C346.547 128.643 346.205 128.784 345.941 129.067C345.683 129.351 345.517 129.756 345.443 130.283H348.388V130.115C348.378 129.646 348.251 129.285 348.007 129.031C347.763 128.772 347.416 128.643 346.967 128.643Z" fill="#F0E442"/>
</svg>
