<svg width="596" height="125" viewBox="0 0 596 125" fill="none" xmlns="http://www.w3.org/2000/svg">
<rect width="596" height="125" fill="black"/>
<path d="M7.54 45.56H9.19L9.355 46.49H9.415C9.555 46.18 9.745 45.92 9.985 45.71C10.235 45.49 10.575 45.38 11.005 45.38C11.335 45.38 11.61 45.485 11.83 45.695C12.06 45.895 12.22 46.195 12.31 46.595C12.45 46.255 12.65 45.97 12.91 45.74C13.18 45.5 13.525 45.38 13.945 45.38C14.465 45.38 14.87 45.595 15.16 46.025C15.45 46.445 15.595 47.03 15.595 47.78V53H13.525V47.945C13.525 47.485 13.385 47.255 13.105 47.255C12.835 47.255 12.605 47.495 12.415 47.975V53H10.72V47.945C10.72 47.485 10.575 47.255 10.285 47.255C10.145 47.255 10.025 47.315 9.925 47.435C9.825 47.555 9.72 47.735 9.61 47.975V53H7.54V45.56ZM16.6991 49.28C16.6991 48.66 16.8041 48.11 17.0141 47.63C17.2241 47.14 17.5041 46.73 17.8541 46.4C18.2141 46.07 18.6191 45.82 19.0691 45.65C19.5291 45.47 20.0041 45.38 20.4941 45.38C20.9841 45.38 21.4541 45.47 21.9041 45.65C22.3641 45.82 22.7691 46.07 23.1191 46.4C23.4791 46.73 23.7641 47.14 23.9741 47.63C24.1841 48.11 24.2891 48.66 24.2891 49.28C24.2891 49.9 24.1841 50.455 23.9741 50.945C23.7641 51.425 23.4791 51.83 23.1191 52.16C22.7691 52.49 22.3641 52.745 21.9041 52.925C21.4541 53.095 20.9841 53.18 20.4941 53.18C20.0041 53.18 19.5291 53.095 19.0691 52.925C18.6191 52.745 18.2141 52.49 17.8541 52.16C17.5041 51.83 17.2241 51.425 17.0141 50.945C16.8041 50.455 16.6991 49.9 16.6991 49.28ZM18.9641 49.28C18.9641 49.93 19.0891 50.445 19.3391 50.825C19.5991 51.205 19.9841 51.395 20.4941 51.395C21.0041 51.395 21.3841 51.205 21.6341 50.825C21.8941 50.445 22.0241 49.93 22.0241 49.28C22.0241 48.63 21.8941 48.115 21.6341 47.735C21.3841 47.355 21.0041 47.165 20.4941 47.165C19.9841 47.165 19.5991 47.355 19.3391 47.735C19.0891 48.115 18.9641 48.63 18.9641 49.28ZM27.5983 47.285H25.7233V45.65L27.7033 45.56L27.9883 43.58H29.8033V45.56H32.9533V47.285H29.8033V49.895C29.8033 50.465 29.9283 50.87 30.1783 51.11C30.4283 51.34 30.8233 51.455 31.3633 51.455C31.6533 51.455 31.9183 51.43 32.1583 51.38C32.3983 51.33 32.6283 51.265 32.8483 51.185L33.2383 52.775C32.9083 52.875 32.5383 52.965 32.1283 53.045C31.7283 53.135 31.2883 53.18 30.8083 53.18C30.2183 53.18 29.7183 53.1 29.3083 52.94C28.8983 52.78 28.5633 52.56 28.3033 52.28C28.0533 51.99 27.8733 51.645 27.7633 51.245C27.6533 50.845 27.5983 50.4 27.5983 49.91V47.285ZM36.5924 47.285H34.7174V45.65L36.6974 45.56L36.9824 43.58H38.7974V45.56H41.9474V47.285H38.7974V49.895C38.7974 50.465 38.9224 50.87 39.1724 51.11C39.4224 51.34 39.8174 51.455 40.3574 51.455C40.6474 51.455 40.9124 51.43 41.1524 51.38C41.3924 51.33 41.6224 51.265 41.8424 51.185L42.2324 52.775C41.9024 52.875 41.5324 52.965 41.1224 53.045C40.7224 53.135 40.2824 53.18 39.8024 53.18C39.2124 53.18 38.7124 53.1 38.3024 52.94C37.8924 52.78 37.5574 52.56 37.2974 52.28C37.0474 51.99 36.8674 51.645 36.7574 51.245C36.6474 50.845 36.5924 50.4 36.5924 49.91V47.285ZM43.6816 49.28C43.6816 48.66 43.7866 48.11 43.9966 47.63C44.2066 47.14 44.4866 46.73 44.8366 46.4C45.1966 46.07 45.6016 45.82 46.0516 45.65C46.5116 45.47 46.9866 45.38 47.4766 45.38C47.9666 45.38 48.4366 45.47 48.8866 45.65C49.3466 45.82 49.7516 46.07 50.1016 46.4C50.4616 46.73 50.7466 47.14 50.9566 47.63C51.1666 48.11 51.2716 48.66 51.2716 49.28C51.2716 49.9 51.1666 50.455 50.9566 50.945C50.7466 51.425 50.4616 51.83 50.1016 52.16C49.7516 52.49 49.3466 52.745 48.8866 52.925C48.4366 53.095 47.9666 53.18 47.4766 53.18C46.9866 53.18 46.5116 53.095 46.0516 52.925C45.6016 52.745 45.1966 52.49 44.8366 52.16C44.4866 51.83 44.2066 51.425 43.9966 50.945C43.7866 50.455 43.6816 49.9 43.6816 49.28ZM45.9466 49.28C45.9466 49.93 46.0716 50.445 46.3216 50.825C46.5816 51.205 46.9666 51.395 47.4766 51.395C47.9866 51.395 48.3666 51.205 48.6166 50.825C48.8766 50.445 49.0066 49.93 49.0066 49.28C49.0066 48.63 48.8766 48.115 48.6166 47.735C48.3666 47.355 47.9866 47.165 47.4766 47.165C46.9666 47.165 46.5816 47.355 46.3216 47.735C46.0716 48.115 45.9466 48.63 45.9466 49.28ZM170.68 50.66C171.11 50.93 171.54 51.145 171.97 51.305C172.41 51.465 172.88 51.545 173.38 51.545C173.89 51.545 174.255 51.49 174.475 51.38C174.695 51.27 174.805 51.115 174.805 50.915C174.805 50.685 174.62 50.5 174.25 50.36C173.89 50.21 173.41 50.05 172.81 49.88C172.48 49.79 172.155 49.685 171.835 49.565C171.525 49.435 171.245 49.285 170.995 49.115C170.745 48.935 170.54 48.73 170.38 48.5C170.23 48.27 170.155 48.005 170.155 47.705C170.155 47.365 170.235 47.05 170.395 46.76C170.555 46.47 170.78 46.225 171.07 46.025C171.37 45.825 171.73 45.67 172.15 45.56C172.58 45.44 173.06 45.38 173.59 45.38C174.25 45.38 174.85 45.49 175.39 45.71C175.94 45.92 176.41 46.15 176.8 46.4L175.81 47.72C175.47 47.52 175.12 47.355 174.76 47.225C174.4 47.085 174.025 47.015 173.635 47.015C173.165 47.015 172.83 47.065 172.63 47.165C172.44 47.265 172.345 47.41 172.345 47.6C172.345 47.71 172.395 47.81 172.495 47.9C172.595 47.99 172.73 48.07 172.9 48.14C173.07 48.21 173.27 48.28 173.5 48.35C173.74 48.41 173.99 48.475 174.25 48.545C174.62 48.645 174.97 48.76 175.3 48.89C175.63 49.01 175.92 49.155 176.17 49.325C176.42 49.495 176.62 49.7 176.77 49.94C176.92 50.18 176.995 50.46 176.995 50.78C176.995 51.12 176.915 51.435 176.755 51.725C176.595 52.015 176.36 52.27 176.05 52.49C175.75 52.7 175.37 52.87 174.91 53C174.46 53.12 173.935 53.18 173.335 53.18C172.665 53.18 172.01 53.07 171.37 52.85C170.73 52.63 170.17 52.36 169.69 52.04L170.68 50.66ZM187.588 49.28C187.588 48.66 187.693 48.11 187.903 47.63C188.113 47.14 188.393 46.73 188.743 46.4C189.103 46.07 189.508 45.82 189.958 45.65C190.418 45.47 190.893 45.38 191.383 45.38C191.873 45.38 192.343 45.47 192.793 45.65C193.253 45.82 193.658 46.07 194.008 46.4C194.368 46.73 194.653 47.14 194.863 47.63C195.073 48.11 195.178 48.66 195.178 49.28C195.178 49.9 195.073 50.455 194.863 50.945C194.653 51.425 194.368 51.83 194.008 52.16C193.658 52.49 193.253 52.745 192.793 52.925C192.343 53.095 191.873 53.18 191.383 53.18C190.893 53.18 190.418 53.095 189.958 52.925C189.508 52.745 189.103 52.49 188.743 52.16C188.393 51.83 188.113 51.425 187.903 50.945C187.693 50.455 187.588 49.9 187.588 49.28ZM189.853 49.28C189.853 49.93 189.978 50.445 190.228 50.825C190.488 51.205 190.873 51.395 191.383 51.395C191.893 51.395 192.273 51.205 192.523 50.825C192.783 50.445 192.913 49.93 192.913 49.28C192.913 48.63 192.783 48.115 192.523 47.735C192.273 47.355 191.893 47.165 191.383 47.165C190.873 47.165 190.488 47.355 190.228 47.735C189.978 48.115 189.853 48.63 189.853 49.28ZM196.807 42.485H201.172V50.18C201.172 50.41 201.202 50.605 201.262 50.765C201.332 50.915 201.422 51.04 201.532 51.14C201.652 51.23 201.782 51.295 201.922 51.335C202.072 51.375 202.222 51.395 202.372 51.395C202.542 51.395 202.722 51.38 202.912 51.35C203.102 51.31 203.312 51.245 203.542 51.155L204.037 52.775C203.837 52.835 203.652 52.89 203.482 52.94C203.312 52.99 203.142 53.03 202.972 53.06C202.802 53.1 202.622 53.13 202.432 53.15C202.242 53.17 202.032 53.18 201.802 53.18C200.862 53.18 200.152 52.905 199.672 52.355C199.202 51.795 198.967 51.04 198.967 50.09V44.225H196.807V42.485ZM205.576 49.28C205.576 48.67 205.666 48.125 205.846 47.645C206.026 47.165 206.261 46.76 206.551 46.43C206.851 46.09 207.191 45.83 207.571 45.65C207.951 45.47 208.346 45.38 208.756 45.38C209.186 45.38 209.546 45.455 209.836 45.605C210.126 45.745 210.401 45.935 210.661 46.175L210.586 45.02V42.485H212.791V53H210.991L210.826 52.235H210.781C210.501 52.505 210.181 52.73 209.821 52.91C209.461 53.09 209.091 53.18 208.711 53.18C208.241 53.18 207.811 53.09 207.421 52.91C207.041 52.73 206.711 52.475 206.431 52.145C206.161 51.805 205.951 51.395 205.801 50.915C205.651 50.435 205.576 49.89 205.576 49.28ZM207.841 49.25C207.841 49.99 207.966 50.53 208.216 50.87C208.466 51.21 208.821 51.38 209.281 51.38C209.531 51.38 209.761 51.33 209.971 51.23C210.181 51.12 210.386 50.94 210.586 50.69V47.675C210.386 47.495 210.181 47.37 209.971 47.3C209.771 47.22 209.561 47.18 209.341 47.18C208.931 47.18 208.576 47.35 208.276 47.69C207.986 48.03 207.841 48.55 207.841 49.25ZM223.399 45.56H225.049L225.214 46.49H225.274C225.414 46.18 225.604 45.92 225.844 45.71C226.094 45.49 226.434 45.38 226.864 45.38C227.194 45.38 227.469 45.485 227.689 45.695C227.919 45.895 228.079 46.195 228.169 46.595C228.309 46.255 228.509 45.97 228.769 45.74C229.039 45.5 229.384 45.38 229.804 45.38C230.324 45.38 230.729 45.595 231.019 46.025C231.309 46.445 231.454 47.03 231.454 47.78V53H229.384V47.945C229.384 47.485 229.244 47.255 228.964 47.255C228.694 47.255 228.464 47.495 228.274 47.975V53H226.579V47.945C226.579 47.485 226.434 47.255 226.144 47.255C226.004 47.255 225.884 47.315 225.784 47.435C225.684 47.555 225.579 47.735 225.469 47.975V53H223.399V45.56ZM232.559 49.28C232.559 48.66 232.664 48.11 232.874 47.63C233.084 47.14 233.364 46.73 233.714 46.4C234.074 46.07 234.479 45.82 234.929 45.65C235.389 45.47 235.864 45.38 236.354 45.38C236.844 45.38 237.314 45.47 237.764 45.65C238.224 45.82 238.629 46.07 238.979 46.4C239.339 46.73 239.624 47.14 239.834 47.63C240.044 48.11 240.149 48.66 240.149 49.28C240.149 49.9 240.044 50.455 239.834 50.945C239.624 51.425 239.339 51.83 238.979 52.16C238.629 52.49 238.224 52.745 237.764 52.925C237.314 53.095 236.844 53.18 236.354 53.18C235.864 53.18 235.389 53.095 234.929 52.925C234.479 52.745 234.074 52.49 233.714 52.16C233.364 51.83 233.084 51.425 232.874 50.945C232.664 50.455 232.559 49.9 232.559 49.28ZM234.824 49.28C234.824 49.93 234.949 50.445 235.199 50.825C235.459 51.205 235.844 51.395 236.354 51.395C236.864 51.395 237.244 51.205 237.494 50.825C237.754 50.445 237.884 49.93 237.884 49.28C237.884 48.63 237.754 48.115 237.494 47.735C237.244 47.355 236.864 47.165 236.354 47.165C235.844 47.165 235.459 47.355 235.199 47.735C234.949 48.115 234.824 48.63 234.824 49.28ZM243.458 47.285H241.583V45.65L243.563 45.56L243.848 43.58H245.663V45.56H248.813V47.285H245.663V49.895C245.663 50.465 245.788 50.87 246.038 51.11C246.288 51.34 246.683 51.455 247.223 51.455C247.513 51.455 247.778 51.43 248.018 51.38C248.258 51.33 248.488 51.265 248.708 51.185L249.098 52.775C248.768 52.875 248.398 52.965 247.988 53.045C247.588 53.135 247.148 53.18 246.668 53.18C246.078 53.18 245.578 53.1 245.168 52.94C244.758 52.78 244.423 52.56 244.163 52.28C243.913 51.99 243.733 51.645 243.623 51.245C243.513 50.845 243.458 50.4 243.458 49.91V47.285ZM252.452 47.285H250.577V45.65L252.557 45.56L252.842 43.58H254.657V45.56H257.807V47.285H254.657V49.895C254.657 50.465 254.782 50.87 255.032 51.11C255.282 51.34 255.677 51.455 256.217 51.455C256.507 51.455 256.772 51.43 257.012 51.38C257.252 51.33 257.482 51.265 257.702 51.185L258.092 52.775C257.762 52.875 257.392 52.965 256.982 53.045C256.582 53.135 256.142 53.18 255.662 53.18C255.072 53.18 254.572 53.1 254.162 52.94C253.752 52.78 253.417 52.56 253.157 52.28C252.907 51.99 252.727 51.645 252.617 51.245C252.507 50.845 252.452 50.4 252.452 49.91V47.285ZM259.541 49.28C259.541 48.66 259.646 48.11 259.856 47.63C260.066 47.14 260.346 46.73 260.696 46.4C261.056 46.07 261.461 45.82 261.911 45.65C262.371 45.47 262.846 45.38 263.336 45.38C263.826 45.38 264.296 45.47 264.746 45.65C265.206 45.82 265.611 46.07 265.961 46.4C266.321 46.73 266.606 47.14 266.816 47.63C267.026 48.11 267.131 48.66 267.131 49.28C267.131 49.9 267.026 50.455 266.816 50.945C266.606 51.425 266.321 51.83 265.961 52.16C265.611 52.49 265.206 52.745 264.746 52.925C264.296 53.095 263.826 53.18 263.336 53.18C262.846 53.18 262.371 53.095 261.911 52.925C261.461 52.745 261.056 52.49 260.696 52.16C260.346 51.83 260.066 51.425 259.856 50.945C259.646 50.455 259.541 49.9 259.541 49.28ZM261.806 49.28C261.806 49.93 261.931 50.445 262.181 50.825C262.441 51.205 262.826 51.395 263.336 51.395C263.846 51.395 264.226 51.205 264.476 50.825C264.736 50.445 264.866 49.93 264.866 49.28C264.866 48.63 264.736 48.115 264.476 47.735C264.226 47.355 263.846 47.165 263.336 47.165C262.826 47.165 262.441 47.355 262.181 47.735C261.931 48.115 261.806 48.63 261.806 49.28ZM276.884 45.56H279.044L279.494 49.01C279.544 49.38 279.584 49.745 279.614 50.105C279.654 50.465 279.699 50.835 279.749 51.215H279.794C279.844 50.835 279.894 50.46 279.944 50.09C279.994 49.72 280.059 49.36 280.139 49.01L280.604 46.55H282.149L282.644 49.01C282.714 49.38 282.779 49.745 282.839 50.105C282.899 50.465 282.954 50.835 283.004 51.215H283.064C283.114 50.835 283.154 50.465 283.184 50.105C283.214 49.745 283.254 49.38 283.304 49.01L283.754 45.56H285.764L284.609 53H282.059L281.639 50.525C281.589 50.175 281.539 49.825 281.489 49.475C281.449 49.115 281.404 48.735 281.354 48.335H281.294C281.264 48.605 281.229 48.91 281.189 49.25C281.159 49.59 281.104 50.015 281.024 50.525L280.619 53H278.114L276.884 45.56ZM286.733 50.93C286.733 50.51 286.823 50.145 287.003 49.835C287.183 49.515 287.468 49.245 287.858 49.025C288.258 48.805 288.768 48.63 289.388 48.5C290.008 48.36 290.758 48.265 291.638 48.215C291.598 47.875 291.448 47.61 291.188 47.42C290.938 47.23 290.558 47.135 290.048 47.135C289.688 47.135 289.323 47.2 288.953 47.33C288.593 47.45 288.203 47.615 287.783 47.825L287.003 46.385C287.513 46.095 288.058 45.855 288.638 45.665C289.228 45.475 289.843 45.38 290.483 45.38C291.523 45.38 292.343 45.655 292.943 46.205C293.543 46.755 293.843 47.6 293.843 48.74V53H292.043L291.878 52.16H291.818C291.438 52.45 291.023 52.695 290.573 52.895C290.123 53.085 289.658 53.18 289.178 53.18C288.798 53.18 288.458 53.12 288.158 53C287.858 52.89 287.603 52.735 287.393 52.535C287.183 52.325 287.018 52.085 286.898 51.815C286.788 51.545 286.733 51.25 286.733 50.93ZM288.848 50.765C288.848 51.005 288.938 51.185 289.118 51.305C289.308 51.415 289.563 51.47 289.883 51.47C290.213 51.47 290.523 51.405 290.813 51.275C291.103 51.135 291.378 50.965 291.638 50.765V49.535C291.088 49.565 290.633 49.615 290.273 49.685C289.913 49.755 289.628 49.845 289.418 49.955C289.208 50.055 289.058 50.175 288.968 50.315C288.888 50.455 288.848 50.605 288.848 50.765ZM296.598 50.66C297.028 50.93 297.458 51.145 297.888 51.305C298.328 51.465 298.798 51.545 299.298 51.545C299.808 51.545 300.173 51.49 300.393 51.38C300.613 51.27 300.723 51.115 300.723 50.915C300.723 50.685 300.538 50.5 300.168 50.36C299.808 50.21 299.328 50.05 298.728 49.88C298.398 49.79 298.073 49.685 297.753 49.565C297.443 49.435 297.163 49.285 296.913 49.115C296.663 48.935 296.458 48.73 296.298 48.5C296.148 48.27 296.073 48.005 296.073 47.705C296.073 47.365 296.153 47.05 296.313 46.76C296.473 46.47 296.698 46.225 296.988 46.025C297.288 45.825 297.648 45.67 298.068 45.56C298.498 45.44 298.978 45.38 299.508 45.38C300.168 45.38 300.768 45.49 301.308 45.71C301.858 45.92 302.328 46.15 302.718 46.4L301.728 47.72C301.388 47.52 301.038 47.355 300.678 47.225C300.318 47.085 299.943 47.015 299.553 47.015C299.083 47.015 298.748 47.065 298.548 47.165C298.358 47.265 298.263 47.41 298.263 47.6C298.263 47.71 298.313 47.81 298.413 47.9C298.513 47.99 298.648 48.07 298.818 48.14C298.988 48.21 299.188 48.28 299.418 48.35C299.658 48.41 299.908 48.475 300.168 48.545C300.538 48.645 300.888 48.76 301.218 48.89C301.548 49.01 301.838 49.155 302.088 49.325C302.338 49.495 302.538 49.7 302.688 49.94C302.838 50.18 302.913 50.46 302.913 50.78C302.913 51.12 302.833 51.435 302.673 51.725C302.513 52.015 302.278 52.27 301.968 52.49C301.668 52.7 301.288 52.87 300.828 53C300.378 53.12 299.853 53.18 299.253 53.18C298.583 53.18 297.928 53.07 297.288 52.85C296.648 52.63 296.088 52.36 295.608 52.04L296.598 50.66ZM567.397 51.425C567.397 51.175 567.437 50.945 567.517 50.735C567.607 50.515 567.727 50.325 567.877 50.165C568.027 50.005 568.207 49.88 568.417 49.79C568.637 49.7 568.877 49.655 569.137 49.655C569.397 49.655 569.632 49.7 569.842 49.79C570.062 49.88 570.247 50.005 570.397 50.165C570.547 50.325 570.662 50.515 570.742 50.735C570.832 50.945 570.877 51.175 570.877 51.425C570.877 51.925 570.717 52.345 570.397 52.685C570.077 53.015 569.657 53.18 569.137 53.18C568.617 53.18 568.197 53.015 567.877 52.685C567.557 52.345 567.397 51.925 567.397 51.425ZM576.931 44.9L576.856 42.725H579.406L579.331 44.9L578.806 48.455H577.456L576.931 44.9Z" fill="white"/>
<path d="M82.2531 44.9L82.1781 42.725H84.7281L84.6531 44.9L84.1281 48.455H82.7781L82.2531 44.9ZM89.5673 43.22H96.0173V45.08H91.7723V47.345H95.3873V49.205H91.7723V53H89.5673V43.22ZM97.8564 50.93C97.8564 50.51 97.9464 50.145 98.1264 49.835C98.3064 49.515 98.5914 49.245 98.9814 49.025C99.3814 48.805 99.8914 48.63 100.511 48.5C101.131 48.36 101.881 48.265 102.761 48.215C102.721 47.875 102.571 47.61 102.311 47.42C102.061 47.23 101.681 47.135 101.171 47.135C100.811 47.135 100.446 47.2 100.076 47.33C99.7164 47.45 99.3264 47.615 98.9064 47.825L98.1264 46.385C98.6364 46.095 99.1814 45.855 99.7614 45.665C100.351 45.475 100.966 45.38 101.606 45.38C102.646 45.38 103.466 45.655 104.066 46.205C104.666 46.755 104.966 47.6 104.966 48.74V53H103.166L103.001 52.16H102.941C102.561 52.45 102.146 52.695 101.696 52.895C101.246 53.085 100.781 53.18 100.301 53.18C99.9214 53.18 99.5814 53.12 99.2814 53C98.9814 52.89 98.7264 52.735 98.5164 52.535C98.3064 52.325 98.1414 52.085 98.0214 51.815C97.9114 51.545 97.8564 51.25 97.8564 50.93ZM99.9714 50.765C99.9714 51.005 100.061 51.185 100.241 51.305C100.431 51.415 100.686 51.47 101.006 51.47C101.336 51.47 101.646 51.405 101.936 51.275C102.226 51.135 102.501 50.965 102.761 50.765V49.535C102.211 49.565 101.756 49.615 101.396 49.685C101.036 49.755 100.751 49.845 100.541 49.955C100.331 50.055 100.181 50.175 100.091 50.315C100.011 50.455 99.9714 50.605 99.9714 50.765ZM106.941 49.28C106.941 48.66 107.056 48.11 107.286 47.63C107.526 47.14 107.841 46.73 108.231 46.4C108.631 46.07 109.091 45.82 109.611 45.65C110.131 45.47 110.676 45.38 111.246 45.38C111.836 45.38 112.366 45.475 112.836 45.665C113.316 45.855 113.716 46.095 114.036 46.385L113.016 47.75C112.466 47.36 111.916 47.165 111.366 47.165C110.726 47.165 110.206 47.355 109.806 47.735C109.406 48.115 109.206 48.63 109.206 49.28C109.206 49.93 109.396 50.445 109.776 50.825C110.166 51.205 110.671 51.395 111.291 51.395C111.681 51.395 112.041 51.325 112.371 51.185C112.701 51.045 112.996 50.88 113.256 50.69L114.156 52.085C113.706 52.465 113.206 52.745 112.656 52.925C112.116 53.095 111.591 53.18 111.081 53.18C110.491 53.18 109.946 53.095 109.446 52.925C108.946 52.745 108.506 52.49 108.126 52.16C107.756 51.83 107.466 51.425 107.256 50.945C107.046 50.455 106.941 49.9 106.941 49.28ZM115.755 49.28C115.755 48.67 115.86 48.125 116.07 47.645C116.29 47.165 116.58 46.76 116.94 46.43C117.3 46.09 117.71 45.83 118.17 45.65C118.64 45.47 119.125 45.38 119.625 45.38C120.195 45.38 120.7 45.47 121.14 45.65C121.58 45.83 121.945 46.08 122.235 46.4C122.525 46.72 122.745 47.1 122.895 47.54C123.045 47.97 123.12 48.44 123.12 48.95C123.12 49.15 123.11 49.34 123.09 49.52C123.07 49.7 123.05 49.835 123.03 49.925H118.02C118.1 50.485 118.34 50.89 118.74 51.14C119.15 51.38 119.63 51.5 120.18 51.5C120.52 51.5 120.84 51.46 121.14 51.38C121.45 51.29 121.77 51.16 122.1 50.99L122.82 52.31C122.4 52.58 121.93 52.795 121.41 52.955C120.89 53.105 120.38 53.18 119.88 53.18C119.3 53.18 118.76 53.095 118.26 52.925C117.76 52.745 117.325 52.49 116.955 52.16C116.585 51.82 116.29 51.41 116.07 50.93C115.86 50.45 115.755 49.9 115.755 49.28ZM121.125 48.47C121.125 48.05 121.01 47.71 120.78 47.45C120.55 47.19 120.18 47.06 119.67 47.06C119.27 47.06 118.915 47.175 118.605 47.405C118.295 47.635 118.09 47.99 117.99 48.47H121.125ZM125.004 42.485H127.209V45.065L127.149 46.235C127.439 45.965 127.764 45.755 128.124 45.605C128.494 45.455 128.859 45.38 129.219 45.38C129.679 45.38 130.094 45.47 130.464 45.65C130.844 45.83 131.159 46.085 131.409 46.415C131.669 46.735 131.869 47.13 132.009 47.6C132.149 48.06 132.219 48.575 132.219 49.145C132.219 49.785 132.129 50.355 131.949 50.855C131.769 51.355 131.529 51.78 131.229 52.13C130.929 52.47 130.584 52.73 130.194 52.91C129.814 53.09 129.414 53.18 128.994 53.18C128.644 53.18 128.294 53.095 127.944 52.925C127.604 52.755 127.279 52.51 126.969 52.19H126.909L126.729 53H125.004V42.485ZM127.209 50.885C127.419 51.065 127.634 51.195 127.854 51.275C128.084 51.345 128.299 51.38 128.499 51.38C128.909 51.38 129.254 51.21 129.534 50.87C129.814 50.52 129.954 49.96 129.954 49.19C129.954 47.85 129.499 47.18 128.589 47.18C128.119 47.18 127.659 47.41 127.209 47.87V50.885ZM133.623 49.28C133.623 48.66 133.728 48.11 133.938 47.63C134.148 47.14 134.428 46.73 134.778 46.4C135.138 46.07 135.543 45.82 135.993 45.65C136.453 45.47 136.928 45.38 137.418 45.38C137.908 45.38 138.378 45.47 138.828 45.65C139.288 45.82 139.693 46.07 140.043 46.4C140.403 46.73 140.688 47.14 140.898 47.63C141.108 48.11 141.213 48.66 141.213 49.28C141.213 49.9 141.108 50.455 140.898 50.945C140.688 51.425 140.403 51.83 140.043 52.16C139.693 52.49 139.288 52.745 138.828 52.925C138.378 53.095 137.908 53.18 137.418 53.18C136.928 53.18 136.453 53.095 135.993 52.925C135.543 52.745 135.138 52.49 134.778 52.16C134.428 51.83 134.148 51.425 133.938 50.945C133.728 50.455 133.623 49.9 133.623 49.28ZM135.888 49.28C135.888 49.93 136.013 50.445 136.263 50.825C136.523 51.205 136.908 51.395 137.418 51.395C137.928 51.395 138.308 51.205 138.558 50.825C138.818 50.445 138.948 49.93 138.948 49.28C138.948 48.63 138.818 48.115 138.558 47.735C138.308 47.355 137.928 47.165 137.418 47.165C136.908 47.165 136.523 47.355 136.263 47.735C136.013 48.115 135.888 48.63 135.888 49.28ZM142.617 49.28C142.617 48.66 142.722 48.11 142.932 47.63C143.142 47.14 143.422 46.73 143.772 46.4C144.132 46.07 144.537 45.82 144.987 45.65C145.447 45.47 145.922 45.38 146.412 45.38C146.902 45.38 147.372 45.47 147.822 45.65C148.282 45.82 148.687 46.07 149.037 46.4C149.397 46.73 149.682 47.14 149.892 47.63C150.102 48.11 150.207 48.66 150.207 49.28C150.207 49.9 150.102 50.455 149.892 50.945C149.682 51.425 149.397 51.83 149.037 52.16C148.687 52.49 148.282 52.745 147.822 52.925C147.372 53.095 146.902 53.18 146.412 53.18C145.922 53.18 145.447 53.095 144.987 52.925C144.537 52.745 144.132 52.49 143.772 52.16C143.422 51.83 143.142 51.425 142.932 50.945C142.722 50.455 142.617 49.9 142.617 49.28ZM144.882 49.28C144.882 49.93 145.007 50.445 145.257 50.825C145.517 51.205 145.902 51.395 146.412 51.395C146.922 51.395 147.302 51.205 147.552 50.825C147.812 50.445 147.942 49.93 147.942 49.28C147.942 48.63 147.812 48.115 147.552 47.735C147.302 47.355 146.922 47.165 146.412 47.165C145.902 47.165 145.517 47.355 145.257 47.735C145.007 48.115 144.882 48.63 144.882 49.28ZM152.046 42.485H154.251V48.56H154.311L157.041 45.56H159.456L156.636 48.62L159.681 53H157.296L155.346 49.97L154.251 51.125V53H152.046V42.485ZM163.2 44.9L163.125 42.725H165.675L165.6 44.9L165.075 48.455H163.725L163.2 44.9ZM316.776 43.715C316.246 43.955 315.841 44.245 315.561 44.585C315.291 44.925 315.136 45.335 315.096 45.815C315.196 45.785 315.301 45.77 315.411 45.77C315.811 45.77 316.136 45.895 316.386 46.145C316.646 46.385 316.776 46.715 316.776 47.135C316.776 47.595 316.641 47.965 316.371 48.245C316.101 48.515 315.756 48.65 315.336 48.65C314.776 48.65 314.341 48.44 314.031 48.02C313.731 47.6 313.581 47.01 313.581 46.25C313.581 45.43 313.796 44.71 314.226 44.09C314.666 43.46 315.326 42.945 316.206 42.545L316.776 43.715ZM320.751 43.715C320.221 43.955 319.816 44.245 319.536 44.585C319.266 44.925 319.111 45.335 319.071 45.815C319.171 45.785 319.276 45.77 319.386 45.77C319.786 45.77 320.111 45.895 320.361 46.145C320.621 46.385 320.751 46.715 320.751 47.135C320.751 47.595 320.616 47.965 320.346 48.245C320.076 48.515 319.731 48.65 319.311 48.65C318.751 48.65 318.316 48.44 318.006 48.02C317.706 47.6 317.556 47.01 317.556 46.25C317.556 45.43 317.771 44.71 318.201 44.09C318.641 43.46 319.301 42.945 320.181 42.545L320.751 43.715ZM322.335 45.56H323.985L324.15 46.49H324.21C324.35 46.18 324.54 45.92 324.78 45.71C325.03 45.49 325.37 45.38 325.8 45.38C326.13 45.38 326.405 45.485 326.625 45.695C326.855 45.895 327.015 46.195 327.105 46.595C327.245 46.255 327.445 45.97 327.705 45.74C327.975 45.5 328.32 45.38 328.74 45.38C329.26 45.38 329.665 45.595 329.955 46.025C330.245 46.445 330.39 47.03 330.39 47.78V53H328.32V47.945C328.32 47.485 328.18 47.255 327.9 47.255C327.63 47.255 327.4 47.495 327.21 47.975V53H325.515V47.945C325.515 47.485 325.37 47.255 325.08 47.255C324.94 47.255 324.82 47.315 324.72 47.435C324.62 47.555 324.515 47.735 324.405 47.975V53H322.335V45.56ZM331.494 49.28C331.494 48.66 331.599 48.11 331.809 47.63C332.019 47.14 332.299 46.73 332.649 46.4C333.009 46.07 333.414 45.82 333.864 45.65C334.324 45.47 334.799 45.38 335.289 45.38C335.779 45.38 336.249 45.47 336.699 45.65C337.159 45.82 337.564 46.07 337.914 46.4C338.274 46.73 338.559 47.14 338.769 47.63C338.979 48.11 339.084 48.66 339.084 49.28C339.084 49.9 338.979 50.455 338.769 50.945C338.559 51.425 338.274 51.83 337.914 52.16C337.564 52.49 337.159 52.745 336.699 52.925C336.249 53.095 335.779 53.18 335.289 53.18C334.799 53.18 334.324 53.095 333.864 52.925C333.414 52.745 333.009 52.49 332.649 52.16C332.299 51.83 332.019 51.425 331.809 50.945C331.599 50.455 331.494 49.9 331.494 49.28ZM333.759 49.28C333.759 49.93 333.884 50.445 334.134 50.825C334.394 51.205 334.779 51.395 335.289 51.395C335.799 51.395 336.179 51.205 336.429 50.825C336.689 50.445 336.819 49.93 336.819 49.28C336.819 48.63 336.689 48.115 336.429 47.735C336.179 47.355 335.799 47.165 335.289 47.165C334.779 47.165 334.394 47.355 334.134 47.735C333.884 48.115 333.759 48.63 333.759 49.28ZM340.248 45.56H342.468L343.638 49.07C343.758 49.45 343.873 49.83 343.983 50.21C344.093 50.59 344.203 50.975 344.313 51.365H344.373C344.483 50.975 344.588 50.59 344.688 50.21C344.798 49.83 344.913 49.45 345.033 49.07L346.203 45.56H348.318L345.588 53H343.053L340.248 45.56ZM349.602 49.28C349.602 48.67 349.707 48.125 349.917 47.645C350.137 47.165 350.427 46.76 350.787 46.43C351.147 46.09 351.557 45.83 352.017 45.65C352.487 45.47 352.972 45.38 353.472 45.38C354.042 45.38 354.547 45.47 354.987 45.65C355.427 45.83 355.792 46.08 356.082 46.4C356.372 46.72 356.592 47.1 356.742 47.54C356.892 47.97 356.967 48.44 356.967 48.95C356.967 49.15 356.957 49.34 356.937 49.52C356.917 49.7 356.897 49.835 356.877 49.925H351.867C351.947 50.485 352.187 50.89 352.587 51.14C352.997 51.38 353.477 51.5 354.027 51.5C354.367 51.5 354.687 51.46 354.987 51.38C355.297 51.29 355.617 51.16 355.947 50.99L356.667 52.31C356.247 52.58 355.777 52.795 355.257 52.955C354.737 53.105 354.227 53.18 353.727 53.18C353.147 53.18 352.607 53.095 352.107 52.925C351.607 52.745 351.172 52.49 350.802 52.16C350.432 51.82 350.137 51.41 349.917 50.93C349.707 50.45 349.602 49.9 349.602 49.28ZM354.972 48.47C354.972 48.05 354.857 47.71 354.627 47.45C354.397 47.19 354.027 47.06 353.517 47.06C353.117 47.06 352.762 47.175 352.452 47.405C352.142 47.635 351.937 47.99 351.837 48.47H354.972ZM375.121 44.33C374.631 44.14 374.111 44.045 373.561 44.045C373.081 44.045 372.726 44.15 372.496 44.36C372.276 44.57 372.166 44.9 372.166 45.35V45.56H374.731V47.285H372.166V53H369.961V47.285H367.996V45.65L369.961 45.56V45.365C369.961 44.935 370.026 44.535 370.156 44.165C370.286 43.795 370.486 43.475 370.756 43.205C371.026 42.925 371.371 42.705 371.791 42.545C372.211 42.385 372.711 42.305 373.291 42.305C373.721 42.305 374.121 42.345 374.491 42.425C374.871 42.505 375.221 42.6 375.541 42.71L375.121 44.33ZM376.675 50.93C376.675 50.51 376.765 50.145 376.945 49.835C377.125 49.515 377.41 49.245 377.8 49.025C378.2 48.805 378.71 48.63 379.33 48.5C379.95 48.36 380.7 48.265 381.58 48.215C381.54 47.875 381.39 47.61 381.13 47.42C380.88 47.23 380.5 47.135 379.99 47.135C379.63 47.135 379.265 47.2 378.895 47.33C378.535 47.45 378.145 47.615 377.725 47.825L376.945 46.385C377.455 46.095 378 45.855 378.58 45.665C379.17 45.475 379.785 45.38 380.425 45.38C381.465 45.38 382.285 45.655 382.885 46.205C383.485 46.755 383.785 47.6 383.785 48.74V53H381.985L381.82 52.16H381.76C381.38 52.45 380.965 52.695 380.515 52.895C380.065 53.085 379.6 53.18 379.12 53.18C378.74 53.18 378.4 53.12 378.1 53C377.8 52.89 377.545 52.735 377.335 52.535C377.125 52.325 376.96 52.085 376.84 51.815C376.73 51.545 376.675 51.25 376.675 50.93ZM378.79 50.765C378.79 51.005 378.88 51.185 379.06 51.305C379.25 51.415 379.505 51.47 379.825 51.47C380.155 51.47 380.465 51.405 380.755 51.275C381.045 51.135 381.32 50.965 381.58 50.765V49.535C381.03 49.565 380.575 49.615 380.215 49.685C379.855 49.755 379.57 49.845 379.36 49.955C379.15 50.055 379 50.175 378.91 50.315C378.83 50.455 378.79 50.605 378.79 50.765ZM386.539 50.66C386.969 50.93 387.399 51.145 387.829 51.305C388.269 51.465 388.739 51.545 389.239 51.545C389.749 51.545 390.114 51.49 390.334 51.38C390.554 51.27 390.664 51.115 390.664 50.915C390.664 50.685 390.479 50.5 390.109 50.36C389.749 50.21 389.269 50.05 388.669 49.88C388.339 49.79 388.014 49.685 387.694 49.565C387.384 49.435 387.104 49.285 386.854 49.115C386.604 48.935 386.399 48.73 386.239 48.5C386.089 48.27 386.014 48.005 386.014 47.705C386.014 47.365 386.094 47.05 386.254 46.76C386.414 46.47 386.639 46.225 386.929 46.025C387.229 45.825 387.589 45.67 388.009 45.56C388.439 45.44 388.919 45.38 389.449 45.38C390.109 45.38 390.709 45.49 391.249 45.71C391.799 45.92 392.269 46.15 392.659 46.4L391.669 47.72C391.329 47.52 390.979 47.355 390.619 47.225C390.259 47.085 389.884 47.015 389.494 47.015C389.024 47.015 388.689 47.065 388.489 47.165C388.299 47.265 388.204 47.41 388.204 47.6C388.204 47.71 388.254 47.81 388.354 47.9C388.454 47.99 388.589 48.07 388.759 48.14C388.929 48.21 389.129 48.28 389.359 48.35C389.599 48.41 389.849 48.475 390.109 48.545C390.479 48.645 390.829 48.76 391.159 48.89C391.489 49.01 391.779 49.155 392.029 49.325C392.279 49.495 392.479 49.7 392.629 49.94C392.779 50.18 392.854 50.46 392.854 50.78C392.854 51.12 392.774 51.435 392.614 51.725C392.454 52.015 392.219 52.27 391.909 52.49C391.609 52.7 391.229 52.87 390.769 53C390.319 53.12 389.794 53.18 389.194 53.18C388.524 53.18 387.869 53.07 387.229 52.85C386.589 52.63 386.029 52.36 385.549 52.04L386.539 50.66ZM396.358 47.285H394.483V45.65L396.463 45.56L396.748 43.58H398.563V45.56H401.713V47.285H398.563V49.895C398.563 50.465 398.688 50.87 398.938 51.11C399.188 51.34 399.583 51.455 400.123 51.455C400.413 51.455 400.678 51.43 400.918 51.38C401.158 51.33 401.388 51.265 401.608 51.185L401.998 52.775C401.668 52.875 401.298 52.965 400.888 53.045C400.488 53.135 400.048 53.18 399.568 53.18C398.978 53.18 398.478 53.1 398.068 52.94C397.658 52.78 397.323 52.56 397.063 52.28C396.813 51.99 396.633 51.645 396.523 51.245C396.413 50.845 396.358 50.4 396.358 49.91V47.285ZM412.651 50.93C412.651 50.51 412.741 50.145 412.921 49.835C413.101 49.515 413.386 49.245 413.776 49.025C414.176 48.805 414.686 48.63 415.306 48.5C415.926 48.36 416.676 48.265 417.556 48.215C417.516 47.875 417.366 47.61 417.106 47.42C416.856 47.23 416.476 47.135 415.966 47.135C415.606 47.135 415.241 47.2 414.871 47.33C414.511 47.45 414.121 47.615 413.701 47.825L412.921 46.385C413.431 46.095 413.976 45.855 414.556 45.665C415.146 45.475 415.761 45.38 416.401 45.38C417.441 45.38 418.261 45.655 418.861 46.205C419.461 46.755 419.761 47.6 419.761 48.74V53H417.961L417.796 52.16H417.736C417.356 52.45 416.941 52.695 416.491 52.895C416.041 53.085 415.576 53.18 415.096 53.18C414.716 53.18 414.376 53.12 414.076 53C413.776 52.89 413.521 52.735 413.311 52.535C413.101 52.325 412.936 52.085 412.816 51.815C412.706 51.545 412.651 51.25 412.651 50.93ZM414.766 50.765C414.766 51.005 414.856 51.185 415.036 51.305C415.226 51.415 415.481 51.47 415.801 51.47C416.131 51.47 416.441 51.405 416.731 51.275C417.021 51.135 417.296 50.965 417.556 50.765V49.535C417.006 49.565 416.551 49.615 416.191 49.685C415.831 49.755 415.546 49.845 415.336 49.955C415.126 50.055 414.976 50.175 414.886 50.315C414.806 50.455 414.766 50.605 414.766 50.765ZM421.81 45.56H423.61L423.775 46.55H423.835C424.155 46.23 424.52 45.955 424.93 45.725C425.35 45.495 425.84 45.38 426.4 45.38C427.24 45.38 427.855 45.65 428.245 46.19C428.635 46.73 428.83 47.47 428.83 48.41V53H426.625V48.695C426.625 48.195 426.545 47.83 426.385 47.6C426.225 47.37 425.94 47.255 425.53 47.255C425.23 47.255 424.965 47.32 424.735 47.45C424.515 47.58 424.275 47.775 424.015 48.035V53H421.81V45.56ZM430.43 49.28C430.43 48.67 430.52 48.125 430.7 47.645C430.88 47.165 431.115 46.76 431.405 46.43C431.705 46.09 432.045 45.83 432.425 45.65C432.805 45.47 433.2 45.38 433.61 45.38C434.04 45.38 434.4 45.455 434.69 45.605C434.98 45.745 435.255 45.935 435.515 46.175L435.44 45.02V42.485H437.645V53H435.845L435.68 52.235H435.635C435.355 52.505 435.035 52.73 434.675 52.91C434.315 53.09 433.945 53.18 433.565 53.18C433.095 53.18 432.665 53.09 432.275 52.91C431.895 52.73 431.565 52.475 431.285 52.145C431.015 51.805 430.805 51.395 430.655 50.915C430.505 50.435 430.43 49.89 430.43 49.28ZM432.695 49.25C432.695 49.99 432.82 50.53 433.07 50.87C433.32 51.21 433.675 51.38 434.135 51.38C434.385 51.38 434.615 51.33 434.825 51.23C435.035 51.12 435.24 50.94 435.44 50.69V47.675C435.24 47.495 435.035 47.37 434.825 47.3C434.625 47.22 434.415 47.18 434.195 47.18C433.785 47.18 433.43 47.35 433.13 47.69C432.84 48.03 432.695 48.55 432.695 49.25ZM448.793 42.485H450.998V45.065L450.938 46.235C451.228 45.965 451.553 45.755 451.913 45.605C452.283 45.455 452.648 45.38 453.008 45.38C453.468 45.38 453.883 45.47 454.253 45.65C454.633 45.83 454.948 46.085 455.198 46.415C455.458 46.735 455.658 47.13 455.798 47.6C455.938 48.06 456.008 48.575 456.008 49.145C456.008 49.785 455.918 50.355 455.738 50.855C455.558 51.355 455.318 51.78 455.018 52.13C454.718 52.47 454.373 52.73 453.983 52.91C453.603 53.09 453.203 53.18 452.783 53.18C452.433 53.18 452.083 53.095 451.733 52.925C451.393 52.755 451.068 52.51 450.758 52.19H450.698L450.518 53H448.793V42.485ZM450.998 50.885C451.208 51.065 451.423 51.195 451.643 51.275C451.873 51.345 452.088 51.38 452.288 51.38C452.698 51.38 453.043 51.21 453.323 50.87C453.603 50.52 453.743 49.96 453.743 49.19C453.743 47.85 453.288 47.18 452.378 47.18C451.908 47.18 451.448 47.41 450.998 47.87V50.885ZM458.447 45.56H460.247L460.427 47.18H460.472C460.842 46.57 461.287 46.12 461.807 45.83C462.327 45.53 462.887 45.38 463.487 45.38C463.817 45.38 464.082 45.405 464.282 45.455C464.492 45.505 464.707 45.58 464.927 45.68L464.477 47.525C464.247 47.455 464.037 47.405 463.847 47.375C463.667 47.335 463.437 47.315 463.157 47.315C462.697 47.315 462.242 47.45 461.792 47.72C461.352 47.99 460.972 48.46 460.652 49.13V53H458.447V45.56ZM466.526 49.28C466.526 48.67 466.631 48.125 466.841 47.645C467.061 47.165 467.351 46.76 467.711 46.43C468.071 46.09 468.481 45.83 468.941 45.65C469.411 45.47 469.896 45.38 470.396 45.38C470.966 45.38 471.471 45.47 471.911 45.65C472.351 45.83 472.716 46.08 473.006 46.4C473.296 46.72 473.516 47.1 473.666 47.54C473.816 47.97 473.891 48.44 473.891 48.95C473.891 49.15 473.881 49.34 473.861 49.52C473.841 49.7 473.821 49.835 473.801 49.925H468.791C468.871 50.485 469.111 50.89 469.511 51.14C469.921 51.38 470.401 51.5 470.951 51.5C471.291 51.5 471.611 51.46 471.911 51.38C472.221 51.29 472.541 51.16 472.871 50.99L473.591 52.31C473.171 52.58 472.701 52.795 472.181 52.955C471.661 53.105 471.151 53.18 470.651 53.18C470.071 53.18 469.531 53.095 469.031 52.925C468.531 52.745 468.096 52.49 467.726 52.16C467.356 51.82 467.061 51.41 466.841 50.93C466.631 50.45 466.526 49.9 466.526 49.28ZM471.896 48.47C471.896 48.05 471.781 47.71 471.551 47.45C471.321 47.19 470.951 47.06 470.441 47.06C470.041 47.06 469.686 47.175 469.376 47.405C469.066 47.635 468.861 47.99 468.761 48.47H471.896ZM475.61 50.93C475.61 50.51 475.7 50.145 475.88 49.835C476.06 49.515 476.345 49.245 476.735 49.025C477.135 48.805 477.645 48.63 478.265 48.5C478.885 48.36 479.635 48.265 480.515 48.215C480.475 47.875 480.325 47.61 480.065 47.42C479.815 47.23 479.435 47.135 478.925 47.135C478.565 47.135 478.2 47.2 477.83 47.33C477.47 47.45 477.08 47.615 476.66 47.825L475.88 46.385C476.39 46.095 476.935 45.855 477.515 45.665C478.105 45.475 478.72 45.38 479.36 45.38C480.4 45.38 481.22 45.655 481.82 46.205C482.42 46.755 482.72 47.6 482.72 48.74V53H480.92L480.755 52.16H480.695C480.315 52.45 479.9 52.695 479.45 52.895C479 53.085 478.535 53.18 478.055 53.18C477.675 53.18 477.335 53.12 477.035 53C476.735 52.89 476.48 52.735 476.27 52.535C476.06 52.325 475.895 52.085 475.775 51.815C475.665 51.545 475.61 51.25 475.61 50.93ZM477.725 50.765C477.725 51.005 477.815 51.185 477.995 51.305C478.185 51.415 478.44 51.47 478.76 51.47C479.09 51.47 479.4 51.405 479.69 51.275C479.98 51.135 480.255 50.965 480.515 50.765V49.535C479.965 49.565 479.51 49.615 479.15 49.685C478.79 49.755 478.505 49.845 478.295 49.955C478.085 50.055 477.935 50.175 477.845 50.315C477.765 50.455 477.725 50.605 477.725 50.765ZM484.829 42.485H487.034V48.56H487.094L489.824 45.56H492.239L489.419 48.62L492.464 53H490.079L488.129 49.97L487.034 51.125V53H484.829V42.485ZM504.288 47.285H502.413V45.65L504.393 45.56L504.678 43.58H506.493V45.56H509.643V47.285H506.493V49.895C506.493 50.465 506.618 50.87 506.868 51.11C507.118 51.34 507.513 51.455 508.053 51.455C508.343 51.455 508.608 51.43 508.848 51.38C509.088 51.33 509.318 51.265 509.538 51.185L509.928 52.775C509.598 52.875 509.228 52.965 508.818 53.045C508.418 53.135 507.978 53.18 507.498 53.18C506.908 53.18 506.408 53.1 505.998 52.94C505.588 52.78 505.253 52.56 504.993 52.28C504.743 51.99 504.563 51.645 504.453 51.245C504.343 50.845 504.288 50.4 504.288 49.91V47.285ZM511.752 42.485H513.957V45.065L513.837 46.49C513.987 46.35 514.147 46.215 514.317 46.085C514.497 45.945 514.687 45.825 514.887 45.725C515.097 45.615 515.322 45.53 515.562 45.47C515.812 45.41 516.077 45.38 516.357 45.38C517.197 45.38 517.807 45.65 518.187 46.19C518.577 46.73 518.772 47.47 518.772 48.41V53H516.567V48.695C516.567 48.195 516.487 47.83 516.327 47.6C516.167 47.37 515.882 47.255 515.472 47.255C515.172 47.255 514.907 47.32 514.677 47.45C514.457 47.58 514.217 47.775 513.957 48.035V53H511.752V42.485ZM520.851 45.56H526.041V53H523.836V47.285H520.851V45.56ZM524.841 44.465C524.411 44.465 524.056 44.345 523.776 44.105C523.506 43.865 523.371 43.54 523.371 43.13C523.371 42.72 523.506 42.39 523.776 42.14C524.056 41.88 524.411 41.75 524.841 41.75C525.271 41.75 525.621 41.88 525.891 42.14C526.171 42.39 526.311 42.72 526.311 43.13C526.311 43.54 526.171 43.865 525.891 44.105C525.621 44.345 525.271 44.465 524.841 44.465ZM529.74 45.56H531.54L531.705 46.55H531.765C532.085 46.23 532.45 45.955 532.86 45.725C533.28 45.495 533.77 45.38 534.33 45.38C535.17 45.38 535.785 45.65 536.175 46.19C536.565 46.73 536.76 47.47 536.76 48.41V53H534.555V48.695C534.555 48.195 534.475 47.83 534.315 47.6C534.155 47.37 533.87 47.255 533.46 47.255C533.16 47.255 532.895 47.32 532.665 47.45C532.445 47.58 532.205 47.775 531.945 48.035V53H529.74V45.56ZM540.234 53.93C540.234 54.21 540.399 54.42 540.729 54.56C541.069 54.71 541.534 54.785 542.124 54.785C542.724 54.785 543.209 54.695 543.579 54.515C543.949 54.345 544.134 54.13 544.134 53.87C544.134 53.63 544.024 53.47 543.804 53.39C543.584 53.32 543.259 53.285 542.829 53.285H541.899C541.629 53.285 541.404 53.275 541.224 53.255C541.054 53.245 540.899 53.225 540.759 53.195C540.569 53.315 540.434 53.43 540.354 53.54C540.274 53.66 540.234 53.79 540.234 53.93ZM538.434 54.26C538.434 53.65 538.819 53.155 539.589 52.775V52.715C539.389 52.585 539.214 52.42 539.064 52.22C538.914 52.02 538.839 51.76 538.839 51.44C538.839 51.19 538.919 50.94 539.079 50.69C539.249 50.44 539.464 50.225 539.724 50.045V49.985C539.454 49.805 539.224 49.555 539.034 49.235C538.844 48.905 538.749 48.52 538.749 48.08C538.749 47.63 538.834 47.24 539.004 46.91C539.184 46.57 539.419 46.29 539.709 46.07C539.999 45.84 540.334 45.67 540.714 45.56C541.104 45.44 541.509 45.38 541.929 45.38C542.389 45.38 542.799 45.44 543.159 45.56H546.174V47.165H544.659C544.749 47.275 544.829 47.42 544.899 47.6C544.969 47.77 545.004 47.955 545.004 48.155C545.004 48.585 544.924 48.955 544.764 49.265C544.604 49.575 544.384 49.835 544.104 50.045C543.834 50.245 543.509 50.395 543.129 50.495C542.759 50.595 542.359 50.645 541.929 50.645C541.609 50.645 541.269 50.595 540.909 50.495C540.799 50.575 540.714 50.655 540.654 50.735C540.604 50.815 540.579 50.915 540.579 51.035C540.579 51.235 540.679 51.38 540.879 51.47C541.079 51.56 541.399 51.605 541.839 51.605H543.219C544.199 51.605 544.944 51.75 545.454 52.04C545.974 52.33 546.234 52.81 546.234 53.48C546.234 53.87 546.129 54.23 545.919 54.56C545.709 54.89 545.414 55.17 545.034 55.4C544.654 55.64 544.189 55.825 543.639 55.955C543.089 56.095 542.479 56.165 541.809 56.165C541.329 56.165 540.879 56.125 540.459 56.045C540.049 55.975 539.694 55.86 539.394 55.7C539.094 55.55 538.859 55.355 538.689 55.115C538.519 54.875 538.434 54.59 538.434 54.26ZM541.929 49.31C542.239 49.31 542.504 49.21 542.724 49.01C542.954 48.8 543.069 48.49 543.069 48.08C543.069 47.68 542.954 47.38 542.724 47.18C542.504 46.97 542.239 46.865 541.929 46.865C541.619 46.865 541.354 46.97 541.134 47.18C540.924 47.38 540.819 47.68 540.819 48.08C540.819 48.49 540.924 48.8 541.134 49.01C541.354 49.21 541.619 49.31 541.929 49.31ZM548.433 50.66C548.863 50.93 549.293 51.145 549.723 51.305C550.163 51.465 550.633 51.545 551.133 51.545C551.643 51.545 552.008 51.49 552.228 51.38C552.448 51.27 552.558 51.115 552.558 50.915C552.558 50.685 552.373 50.5 552.003 50.36C551.643 50.21 551.163 50.05 550.563 49.88C550.233 49.79 549.908 49.685 549.588 49.565C549.278 49.435 548.998 49.285 548.748 49.115C548.498 48.935 548.293 48.73 548.133 48.5C547.983 48.27 547.908 48.005 547.908 47.705C547.908 47.365 547.988 47.05 548.148 46.76C548.308 46.47 548.533 46.225 548.823 46.025C549.123 45.825 549.483 45.67 549.903 45.56C550.333 45.44 550.813 45.38 551.343 45.38C552.003 45.38 552.603 45.49 553.143 45.71C553.693 45.92 554.163 46.15 554.553 46.4L553.563 47.72C553.223 47.52 552.873 47.355 552.513 47.225C552.153 47.085 551.778 47.015 551.388 47.015C550.918 47.015 550.583 47.065 550.383 47.165C550.193 47.265 550.098 47.41 550.098 47.6C550.098 47.71 550.148 47.81 550.248 47.9C550.348 47.99 550.483 48.07 550.653 48.14C550.823 48.21 551.023 48.28 551.253 48.35C551.493 48.41 551.743 48.475 552.003 48.545C552.373 48.645 552.723 48.76 553.053 48.89C553.383 49.01 553.673 49.155 553.923 49.325C554.173 49.495 554.373 49.7 554.523 49.94C554.673 50.18 554.748 50.46 554.748 50.78C554.748 51.12 554.668 51.435 554.508 51.725C554.348 52.015 554.113 52.27 553.803 52.49C553.503 52.7 553.123 52.87 552.663 53C552.213 53.12 551.688 53.18 551.088 53.18C550.418 53.18 549.763 53.07 549.123 52.85C548.483 52.63 547.923 52.36 547.443 52.04L548.433 50.66ZM556.693 47.48C557.743 47.01 558.303 46.315 558.373 45.395C558.263 45.425 558.163 45.44 558.073 45.44C557.663 45.44 557.328 45.315 557.068 45.065C556.818 44.815 556.693 44.48 556.693 44.06C556.693 43.6 556.828 43.235 557.098 42.965C557.368 42.685 557.713 42.545 558.133 42.545C558.703 42.545 559.138 42.76 559.438 43.19C559.738 43.61 559.888 44.195 559.888 44.945C559.888 45.765 559.673 46.49 559.243 47.12C558.813 47.74 558.158 48.25 557.278 48.65L556.693 47.48ZM560.668 47.48C561.718 47.01 562.278 46.315 562.348 45.395C562.238 45.425 562.138 45.44 562.048 45.44C561.638 45.44 561.303 45.315 561.043 45.065C560.793 44.815 560.668 44.48 560.668 44.06C560.668 43.6 560.803 43.235 561.073 42.965C561.343 42.685 561.688 42.545 562.108 42.545C562.678 42.545 563.113 42.76 563.413 43.19C563.713 43.61 563.863 44.195 563.863 44.945C563.863 45.765 563.648 46.49 563.218 47.12C562.788 47.74 562.133 48.25 561.253 48.65L560.668 47.48Z" fill="#009E73"/>
<path d="M62.0148 45.53H68.9148V47.09H62.0148V45.53ZM62.0148 48.995H68.9148V50.555H62.0148V48.995Z" fill="#BDBDBD"/>
<rect x="97" width="499" height="31" fill="#333333"/>
<rect x="97" width="499" height="31" fill="#333333"/>
<rect width="97.1974" height="30.6018" fill="#090808"/>
<path d="M18.105 17.8101C18.105 17.5513 17.9756 17.3486 17.7168 17.2021C17.4629 17.0508 17.0527 16.9165 16.4863 16.7993C14.6016 16.4038 13.6592 15.603 13.6592 14.397C13.6592 13.6938 13.9497 13.1079 14.5308 12.6392C15.1167 12.1655 15.8809 11.9287 16.8232 11.9287C17.8291 11.9287 18.6323 12.1655 19.2329 12.6392C19.8384 13.1128 20.1411 13.728 20.1411 14.4849H18.0244C18.0244 14.1821 17.9268 13.9331 17.7314 13.7378C17.5361 13.5376 17.231 13.4375 16.8159 13.4375C16.4595 13.4375 16.1836 13.5181 15.9883 13.6792C15.793 13.8403 15.6953 14.0454 15.6953 14.2944C15.6953 14.5288 15.8052 14.7192 16.0249 14.8657C16.2495 15.0073 16.6255 15.1318 17.1528 15.2393C17.6802 15.3418 18.1245 15.459 18.4858 15.5908C19.604 16.001 20.1631 16.7114 20.1631 17.7222C20.1631 18.4448 19.853 19.0308 19.2329 19.48C18.6128 19.9243 17.812 20.1465 16.8306 20.1465C16.1665 20.1465 15.5757 20.0293 15.0581 19.7949C14.5454 19.5557 14.1426 19.231 13.8496 18.8208C13.5566 18.4058 13.4102 17.959 13.4102 17.4805H15.417C15.4365 17.8564 15.5757 18.1445 15.8345 18.3447C16.0933 18.5449 16.4399 18.645 16.8745 18.645C17.2798 18.645 17.585 18.5693 17.79 18.418C18 18.2617 18.105 18.0591 18.105 17.8101ZM24.8286 18.4399C25.2192 18.4399 25.5366 18.3325 25.7808 18.1177C26.0249 17.9028 26.1519 17.6172 26.1616 17.2607H28.1465C28.1416 17.7979 27.9951 18.291 27.707 18.7402C27.4189 19.1846 27.0234 19.5312 26.5205 19.7803C26.0225 20.0244 25.4707 20.1465 24.8652 20.1465C23.7324 20.1465 22.8389 19.7876 22.1846 19.0698C21.5303 18.3472 21.2031 17.3511 21.2031 16.0815V15.9424C21.2031 14.7217 21.5278 13.7476 22.1772 13.02C22.8267 12.2925 23.7178 11.9287 24.8506 11.9287C25.8418 11.9287 26.6353 12.2119 27.231 12.7783C27.8315 13.3398 28.1367 14.0894 28.1465 15.0269H26.1616C26.1519 14.6167 26.0249 14.2847 25.7808 14.0308C25.5366 13.772 25.2144 13.6426 24.814 13.6426C24.3208 13.6426 23.9473 13.8232 23.6934 14.1846C23.4443 14.541 23.3198 15.1221 23.3198 15.9277V16.1475C23.3198 16.9629 23.4443 17.5488 23.6934 17.9053C23.9424 18.2617 24.3208 18.4399 24.8286 18.4399ZM33.8081 14.0601C33.52 14.021 33.2661 14.0015 33.0464 14.0015C32.2456 14.0015 31.7207 14.2725 31.4717 14.8145V20H29.355V12.0752H31.3545L31.4131 13.02C31.8379 12.2925 32.4263 11.9287 33.1782 11.9287C33.4126 11.9287 33.6323 11.9604 33.8374 12.0239L33.8081 14.0601ZM37.0674 20H34.9434V12.0752H37.0674V20ZM34.8188 10.0244C34.8188 9.70703 34.9238 9.4458 35.1338 9.24072C35.3486 9.03564 35.6392 8.93311 36.0054 8.93311C36.3667 8.93311 36.6548 9.03564 36.8696 9.24072C37.0845 9.4458 37.1919 9.70703 37.1919 10.0244C37.1919 10.3467 37.082 10.6104 36.8623 10.8154C36.6475 11.0205 36.3618 11.123 36.0054 11.123C35.6489 11.123 35.3608 11.0205 35.1411 10.8154C34.9263 10.6104 34.8188 10.3467 34.8188 10.0244ZM45.9517 16.1108C45.9517 17.3315 45.6733 18.3105 45.1167 19.0479C44.5649 19.7803 43.8179 20.1465 42.8755 20.1465C42.0747 20.1465 41.4277 19.8682 40.9346 19.3115V23.0469H38.8179V12.0752H40.7808L40.854 12.8516C41.3667 12.2363 42.0356 11.9287 42.8608 11.9287C43.8374 11.9287 44.5967 12.29 45.1387 13.0127C45.6807 13.7354 45.9517 14.7314 45.9517 16.001V16.1108ZM43.835 15.957C43.835 15.2197 43.7031 14.6509 43.4395 14.2505C43.1807 13.8501 42.8022 13.6499 42.3042 13.6499C41.6401 13.6499 41.1836 13.9038 40.9346 14.4116V17.6562C41.1934 18.1787 41.6548 18.4399 42.3188 18.4399C43.3296 18.4399 43.835 17.6123 43.835 15.957ZM49.8042 10.127V12.0752H51.1592V13.6279H49.8042V17.583C49.8042 17.876 49.8604 18.0859 49.9727 18.2129C50.085 18.3398 50.2998 18.4033 50.6172 18.4033C50.8516 18.4033 51.0591 18.3862 51.2397 18.3521V19.9561C50.8247 20.083 50.3975 20.1465 49.958 20.1465C48.4736 20.1465 47.7168 19.397 47.6875 17.8979V13.6279H46.5303V12.0752H47.6875V10.127H49.8042ZM52.4482 18.96C52.4482 18.623 52.5605 18.3496 52.7852 18.1396C53.0146 17.9297 53.3003 17.8247 53.6421 17.8247C53.9888 17.8247 54.2744 17.9297 54.499 18.1396C54.7285 18.3496 54.8433 18.623 54.8433 18.96C54.8433 19.292 54.731 19.563 54.5063 19.7729C54.2817 19.978 53.9937 20.0806 53.6421 20.0806C53.2954 20.0806 53.0098 19.978 52.7852 19.7729C52.5605 19.563 52.4482 19.292 52.4482 18.96ZM63.8374 16.1108C63.8374 17.3315 63.5591 18.3105 63.0024 19.0479C62.4507 19.7803 61.7036 20.1465 60.7612 20.1465C59.9604 20.1465 59.3135 19.8682 58.8203 19.3115V23.0469H56.7036V12.0752H58.6665L58.7397 12.8516C59.2524 12.2363 59.9214 11.9287 60.7466 11.9287C61.7231 11.9287 62.4824 12.29 63.0244 13.0127C63.5664 13.7354 63.8374 14.7314 63.8374 16.001V16.1108ZM61.7207 15.957C61.7207 15.2197 61.5889 14.6509 61.3252 14.2505C61.0664 13.8501 60.688 13.6499 60.1899 13.6499C59.5259 13.6499 59.0693 13.9038 58.8203 14.4116V17.6562C59.0791 18.1787 59.5405 18.4399 60.2046 18.4399C61.2153 18.4399 61.7207 17.6123 61.7207 15.957ZM68.0269 17.0044L69.4917 12.0752H71.7622L68.5762 21.2305L68.4004 21.6479C67.9268 22.6831 67.1455 23.2007 66.0566 23.2007C65.749 23.2007 65.4365 23.1543 65.1191 23.0615V21.4575L65.4414 21.4648C65.8418 21.4648 66.1396 21.4038 66.335 21.2817C66.5352 21.1597 66.6914 20.957 66.8037 20.6738L67.0527 20.022L64.2769 12.0752H66.5547L68.0269 17.0044Z" fill="white"/>
<path d="M9.025 108.785C9.395 109.085 9.795 109.33 10.225 109.52C10.665 109.71 11.1 109.805 11.53 109.805C12.04 109.805 12.41 109.72 12.64 109.55C12.88 109.38 13 109.15 13 108.86C13 108.71 12.965 108.58 12.895 108.47C12.825 108.36 12.725 108.265 12.595 108.185C12.465 108.095 12.305 108.015 12.115 107.945C11.935 107.865 11.725 107.78 11.485 107.69L10.225 107.15C9.955 107.05 9.69 106.92 9.43 106.76C9.18 106.6 8.96 106.415 8.77 106.205C8.58 105.985 8.425 105.735 8.305 105.455C8.195 105.165 8.14 104.84 8.14 104.48C8.14 104.08 8.225 103.705 8.395 103.355C8.575 102.995 8.82 102.685 9.13 102.425C9.45 102.155 9.83 101.945 10.27 101.795C10.71 101.645 11.195 101.57 11.725 101.57C12.325 101.57 12.905 101.68 13.465 101.9C14.025 102.12 14.53 102.44 14.98 102.86L13.855 104.255C13.515 104.005 13.18 103.815 12.85 103.685C12.52 103.545 12.145 103.475 11.725 103.475C11.295 103.475 10.96 103.555 10.72 103.715C10.49 103.865 10.375 104.08 10.375 104.36C10.375 104.66 10.525 104.885 10.825 105.035C11.125 105.185 11.51 105.345 11.98 105.515L13.165 106.025C13.815 106.265 14.325 106.595 14.695 107.015C15.075 107.435 15.265 107.99 15.265 108.68C15.265 109.09 15.18 109.48 15.01 109.85C14.84 110.21 14.595 110.53 14.275 110.81C13.955 111.08 13.56 111.3 13.09 111.47C12.62 111.63 12.08 111.71 11.47 111.71C10.81 111.71 10.155 111.595 9.505 111.365C8.865 111.125 8.28 110.77 7.75 110.3L9.025 108.785ZM17.3891 112.61C17.5791 112.67 17.7741 112.7 17.9741 112.7C18.4041 112.7 18.7391 112.61 18.9791 112.43C19.2291 112.25 19.4141 112.015 19.5341 111.725L19.6841 111.335L16.4591 104.09H18.6491L19.8941 107.285C20.0341 107.635 20.1641 108 20.2841 108.38C20.4041 108.75 20.5241 109.13 20.6441 109.52H20.7041C20.8041 109.15 20.9141 108.78 21.0341 108.41C21.1541 108.03 21.2691 107.655 21.3791 107.285L22.4741 104.09H24.5591L21.6191 111.605C21.4391 112.075 21.2441 112.485 21.0341 112.835C20.8241 113.195 20.5841 113.49 20.3141 113.72C20.0441 113.96 19.7291 114.14 19.3691 114.26C19.0191 114.38 18.6091 114.44 18.1391 114.44C17.9191 114.44 17.7141 114.425 17.5241 114.395C17.3341 114.375 17.1591 114.34 16.9991 114.29L17.3891 112.61ZM26.0683 104.09H27.8683L28.0333 105.08H28.0933C28.4133 104.76 28.7783 104.485 29.1883 104.255C29.6083 104.025 30.0983 103.91 30.6583 103.91C31.4983 103.91 32.1133 104.18 32.5033 104.72C32.8933 105.26 33.0883 106 33.0883 106.94V111.53H30.8833V107.225C30.8833 106.725 30.8033 106.36 30.6433 106.13C30.4833 105.9 30.1983 105.785 29.7883 105.785C29.4883 105.785 29.2233 105.85 28.9933 105.98C28.7733 106.11 28.5333 106.305 28.2733 106.565V111.53H26.0683V104.09ZM36.5924 105.815H34.7174V104.18L36.6974 104.09L36.9824 102.11H38.7974V104.09H41.9474V105.815H38.7974V108.425C38.7974 108.995 38.9224 109.4 39.1724 109.64C39.4224 109.87 39.8174 109.985 40.3574 109.985C40.6474 109.985 40.9124 109.96 41.1524 109.91C41.3924 109.86 41.6224 109.795 41.8424 109.715L42.2324 111.305C41.9024 111.405 41.5324 111.495 41.1224 111.575C40.7224 111.665 40.2824 111.71 39.8024 111.71C39.2124 111.71 38.7124 111.63 38.3024 111.47C37.8924 111.31 37.5574 111.09 37.2974 110.81C37.0474 110.52 36.8674 110.175 36.7574 109.775C36.6474 109.375 36.5924 108.93 36.5924 108.44V105.815ZM43.8916 109.46C43.8916 109.04 43.9816 108.675 44.1616 108.365C44.3416 108.045 44.6266 107.775 45.0166 107.555C45.4166 107.335 45.9266 107.16 46.5466 107.03C47.1666 106.89 47.9166 106.795 48.7966 106.745C48.7566 106.405 48.6066 106.14 48.3466 105.95C48.0966 105.76 47.7166 105.665 47.2066 105.665C46.8466 105.665 46.4816 105.73 46.1116 105.86C45.7516 105.98 45.3616 106.145 44.9416 106.355L44.1616 104.915C44.6716 104.625 45.2166 104.385 45.7966 104.195C46.3866 104.005 47.0016 103.91 47.6416 103.91C48.6816 103.91 49.5016 104.185 50.1016 104.735C50.7016 105.285 51.0016 106.13 51.0016 107.27V111.53H49.2016L49.0366 110.69H48.9766C48.5966 110.98 48.1816 111.225 47.7316 111.425C47.2816 111.615 46.8166 111.71 46.3366 111.71C45.9566 111.71 45.6166 111.65 45.3166 111.53C45.0166 111.42 44.7616 111.265 44.5516 111.065C44.3416 110.855 44.1766 110.615 44.0566 110.345C43.9466 110.075 43.8916 109.78 43.8916 109.46ZM46.0066 109.295C46.0066 109.535 46.0966 109.715 46.2766 109.835C46.4666 109.945 46.7216 110 47.0416 110C47.3716 110 47.6816 109.935 47.9716 109.805C48.2616 109.665 48.5366 109.495 48.7966 109.295V108.065C48.2466 108.095 47.7916 108.145 47.4316 108.215C47.0716 108.285 46.7866 108.375 46.5766 108.485C46.3666 108.585 46.2166 108.705 46.1266 108.845C46.0466 108.985 46.0066 109.135 46.0066 109.295ZM55.1057 107.66L52.6907 104.09H55.0607L55.8257 105.29C55.9357 105.5 56.0607 105.715 56.2007 105.935C56.3407 106.145 56.4757 106.355 56.6057 106.565H56.6657C56.7657 106.355 56.8657 106.14 56.9657 105.92C57.0757 105.7 57.1807 105.49 57.2807 105.29L57.9407 104.09H60.2507L57.8207 107.915L60.4007 111.53H58.0307L57.1757 110.3C57.0357 110.09 56.8907 109.875 56.7407 109.655C56.6007 109.435 56.4607 109.22 56.3207 109.01H56.2607C56.1507 109.22 56.0357 109.435 55.9157 109.655C55.7957 109.865 55.6807 110.08 55.5707 110.3L54.8357 111.53H52.5257L55.1057 107.66ZM62.3748 101.75H68.8248V103.61H64.5798V105.575H68.1798V107.42H64.5798V109.67H68.9748V111.53H62.3748V101.75ZM71.699 104.09H73.499L73.679 105.71H73.724C74.094 105.1 74.539 104.65 75.059 104.36C75.579 104.06 76.139 103.91 76.739 103.91C77.069 103.91 77.334 103.935 77.534 103.985C77.744 104.035 77.959 104.11 78.179 104.21L77.729 106.055C77.499 105.985 77.289 105.935 77.099 105.905C76.919 105.865 76.689 105.845 76.409 105.845C75.949 105.845 75.494 105.98 75.044 106.25C74.604 106.52 74.224 106.99 73.904 107.66V111.53H71.699V104.09ZM80.6931 104.09H82.4931L82.6731 105.71H82.7181C83.0881 105.1 83.5331 104.65 84.0531 104.36C84.5731 104.06 85.1331 103.91 85.7331 103.91C86.0631 103.91 86.3281 103.935 86.5281 103.985C86.7381 104.035 86.9531 104.11 87.1731 104.21L86.7231 106.055C86.4931 105.985 86.2831 105.935 86.0931 105.905C85.9131 105.865 85.6831 105.845 85.4031 105.845C84.9431 105.845 84.4881 105.98 84.0381 106.25C83.5981 106.52 83.2181 106.99 82.8981 107.66V111.53H80.6931V104.09ZM88.6523 107.81C88.6523 107.19 88.7573 106.64 88.9673 106.16C89.1773 105.67 89.4573 105.26 89.8073 104.93C90.1673 104.6 90.5723 104.35 91.0223 104.18C91.4823 104 91.9573 103.91 92.4473 103.91C92.9373 103.91 93.4073 104 93.8573 104.18C94.3173 104.35 94.7223 104.6 95.0723 104.93C95.4323 105.26 95.7173 105.67 95.9273 106.16C96.1373 106.64 96.2423 107.19 96.2423 107.81C96.2423 108.43 96.1373 108.985 95.9273 109.475C95.7173 109.955 95.4323 110.36 95.0723 110.69C94.7223 111.02 94.3173 111.275 93.8573 111.455C93.4073 111.625 92.9373 111.71 92.4473 111.71C91.9573 111.71 91.4823 111.625 91.0223 111.455C90.5723 111.275 90.1673 111.02 89.8073 110.69C89.4573 110.36 89.1773 109.955 88.9673 109.475C88.7573 108.985 88.6523 108.43 88.6523 107.81ZM90.9173 107.81C90.9173 108.46 91.0423 108.975 91.2923 109.355C91.5523 109.735 91.9373 109.925 92.4473 109.925C92.9573 109.925 93.3373 109.735 93.5873 109.355C93.8473 108.975 93.9773 108.46 93.9773 107.81C93.9773 107.16 93.8473 106.645 93.5873 106.265C93.3373 105.885 92.9573 105.695 92.4473 105.695C91.9373 105.695 91.5523 105.885 91.2923 106.265C91.0423 106.645 90.9173 107.16 90.9173 107.81ZM98.6814 104.09H100.481L100.661 105.71H100.706C101.076 105.1 101.521 104.65 102.041 104.36C102.561 104.06 103.121 103.91 103.721 103.91C104.051 103.91 104.316 103.935 104.516 103.985C104.726 104.035 104.941 104.11 105.161 104.21L104.711 106.055C104.481 105.985 104.271 105.935 104.081 105.905C103.901 105.865 103.671 105.845 103.391 105.845C102.931 105.845 102.476 105.98 102.026 106.25C101.586 106.52 101.206 106.99 100.886 107.66V111.53H98.6814V104.09ZM108.696 105.11C108.696 104.86 108.736 104.63 108.816 104.42C108.906 104.2 109.026 104.01 109.176 103.85C109.326 103.69 109.506 103.565 109.716 103.475C109.936 103.385 110.176 103.34 110.436 103.34C110.696 103.34 110.931 103.385 111.141 103.475C111.361 103.565 111.546 103.69 111.696 103.85C111.846 104.01 111.961 104.2 112.041 104.42C112.131 104.63 112.176 104.86 112.176 105.11C112.176 105.61 112.016 106.03 111.696 106.37C111.376 106.7 110.956 106.865 110.436 106.865C109.916 106.865 109.496 106.7 109.176 106.37C108.856 106.03 108.696 105.61 108.696 105.11ZM108.696 109.955C108.696 109.705 108.736 109.475 108.816 109.265C108.906 109.045 109.026 108.855 109.176 108.695C109.326 108.535 109.506 108.41 109.716 108.32C109.936 108.23 110.176 108.185 110.436 108.185C110.696 108.185 110.931 108.23 111.141 108.32C111.361 108.41 111.546 108.535 111.696 108.695C111.846 108.855 111.961 109.045 112.041 109.265C112.131 109.475 112.176 109.705 112.176 109.955C112.176 110.455 112.016 110.875 111.696 111.215C111.376 111.545 110.956 111.71 110.436 111.71C109.916 111.71 109.496 111.545 109.176 111.215C108.856 110.875 108.696 110.455 108.696 109.955ZM125.109 104.09H130.299V111.53H128.094V105.815H125.109V104.09ZM129.099 102.995C128.669 102.995 128.314 102.875 128.034 102.635C127.764 102.395 127.629 102.07 127.629 101.66C127.629 101.25 127.764 100.92 128.034 100.67C128.314 100.41 128.669 100.28 129.099 100.28C129.529 100.28 129.879 100.41 130.149 100.67C130.429 100.92 130.569 101.25 130.569 101.66C130.569 102.07 130.429 102.395 130.149 102.635C129.879 102.875 129.529 102.995 129.099 102.995ZM133.998 104.09H135.798L135.963 105.08H136.023C136.343 104.76 136.708 104.485 137.118 104.255C137.538 104.025 138.028 103.91 138.588 103.91C139.428 103.91 140.043 104.18 140.433 104.72C140.823 105.26 141.018 106 141.018 106.94V111.53H138.813V107.225C138.813 106.725 138.733 106.36 138.573 106.13C138.413 105.9 138.128 105.785 137.718 105.785C137.418 105.785 137.153 105.85 136.923 105.98C136.703 106.11 136.463 106.305 136.203 106.565V111.53H133.998V104.09ZM142.377 104.09H144.597L145.767 107.6C145.887 107.98 146.002 108.36 146.112 108.74C146.222 109.12 146.332 109.505 146.442 109.895H146.502C146.612 109.505 146.717 109.12 146.817 108.74C146.927 108.36 147.042 107.98 147.162 107.6L148.332 104.09H150.447L147.717 111.53H145.182L142.377 104.09ZM151.821 109.46C151.821 109.04 151.911 108.675 152.091 108.365C152.271 108.045 152.556 107.775 152.946 107.555C153.346 107.335 153.856 107.16 154.476 107.03C155.096 106.89 155.846 106.795 156.726 106.745C156.686 106.405 156.536 106.14 156.276 105.95C156.026 105.76 155.646 105.665 155.136 105.665C154.776 105.665 154.411 105.73 154.041 105.86C153.681 105.98 153.291 106.145 152.871 106.355L152.091 104.915C152.601 104.625 153.146 104.385 153.726 104.195C154.316 104.005 154.931 103.91 155.571 103.91C156.611 103.91 157.431 104.185 158.031 104.735C158.631 105.285 158.931 106.13 158.931 107.27V111.53H157.131L156.966 110.69H156.906C156.526 110.98 156.111 111.225 155.661 111.425C155.211 111.615 154.746 111.71 154.266 111.71C153.886 111.71 153.546 111.65 153.246 111.53C152.946 111.42 152.691 111.265 152.481 111.065C152.271 110.855 152.106 110.615 151.986 110.345C151.876 110.075 151.821 109.78 151.821 109.46ZM153.936 109.295C153.936 109.535 154.026 109.715 154.206 109.835C154.396 109.945 154.651 110 154.971 110C155.301 110 155.611 109.935 155.901 109.805C156.191 109.665 156.466 109.495 156.726 109.295V108.065C156.176 108.095 155.721 108.145 155.361 108.215C155.001 108.285 154.716 108.375 154.506 108.485C154.296 108.585 154.146 108.705 154.056 108.845C153.976 108.985 153.936 109.135 153.936 109.295ZM160.83 101.015H165.195V108.71C165.195 108.94 165.225 109.135 165.285 109.295C165.355 109.445 165.445 109.57 165.555 109.67C165.675 109.76 165.805 109.825 165.945 109.865C166.095 109.905 166.245 109.925 166.395 109.925C166.565 109.925 166.745 109.91 166.935 109.88C167.125 109.84 167.335 109.775 167.565 109.685L168.06 111.305C167.86 111.365 167.675 111.42 167.505 111.47C167.335 111.52 167.165 111.56 166.995 111.59C166.825 111.63 166.645 111.66 166.455 111.68C166.265 111.7 166.055 111.71 165.825 111.71C164.885 111.71 164.175 111.435 163.695 110.885C163.225 110.325 162.99 109.57 162.99 108.62V102.755H160.83V101.015ZM170.08 104.09H175.27V111.53H173.065V105.815H170.08V104.09ZM174.07 102.995C173.64 102.995 173.285 102.875 173.005 102.635C172.735 102.395 172.6 102.07 172.6 101.66C172.6 101.25 172.735 100.92 173.005 100.67C173.285 100.41 173.64 100.28 174.07 100.28C174.5 100.28 174.85 100.41 175.12 100.67C175.4 100.92 175.54 101.25 175.54 101.66C175.54 102.07 175.4 102.395 175.12 102.635C174.85 102.875 174.5 102.995 174.07 102.995ZM178.594 107.81C178.594 107.2 178.684 106.655 178.864 106.175C179.044 105.695 179.279 105.29 179.569 104.96C179.869 104.62 180.209 104.36 180.589 104.18C180.969 104 181.364 103.91 181.774 103.91C182.204 103.91 182.564 103.985 182.854 104.135C183.144 104.275 183.419 104.465 183.679 104.705L183.604 103.55V101.015H185.809V111.53H184.009L183.844 110.765H183.799C183.519 111.035 183.199 111.26 182.839 111.44C182.479 111.62 182.109 111.71 181.729 111.71C181.259 111.71 180.829 111.62 180.439 111.44C180.059 111.26 179.729 111.005 179.449 110.675C179.179 110.335 178.969 109.925 178.819 109.445C178.669 108.965 178.594 108.42 178.594 107.81ZM180.859 107.78C180.859 108.52 180.984 109.06 181.234 109.4C181.484 109.74 181.839 109.91 182.299 109.91C182.549 109.91 182.779 109.86 182.989 109.76C183.199 109.65 183.404 109.47 183.604 109.22V106.205C183.404 106.025 183.199 105.9 182.989 105.83C182.789 105.75 182.579 105.71 182.359 105.71C181.949 105.71 181.594 105.88 181.294 106.22C181.004 106.56 180.859 107.08 180.859 107.78ZM197.662 109.19C198.092 109.46 198.522 109.675 198.952 109.835C199.392 109.995 199.862 110.075 200.362 110.075C200.872 110.075 201.237 110.02 201.457 109.91C201.677 109.8 201.787 109.645 201.787 109.445C201.787 109.215 201.602 109.03 201.232 108.89C200.872 108.74 200.392 108.58 199.792 108.41C199.462 108.32 199.137 108.215 198.817 108.095C198.507 107.965 198.227 107.815 197.977 107.645C197.727 107.465 197.522 107.26 197.362 107.03C197.212 106.8 197.137 106.535 197.137 106.235C197.137 105.895 197.217 105.58 197.377 105.29C197.537 105 197.762 104.755 198.052 104.555C198.352 104.355 198.712 104.2 199.132 104.09C199.562 103.97 200.042 103.91 200.572 103.91C201.232 103.91 201.832 104.02 202.372 104.24C202.922 104.45 203.392 104.68 203.782 104.93L202.792 106.25C202.452 106.05 202.102 105.885 201.742 105.755C201.382 105.615 201.007 105.545 200.617 105.545C200.147 105.545 199.812 105.595 199.612 105.695C199.422 105.795 199.327 105.94 199.327 106.13C199.327 106.24 199.377 106.34 199.477 106.43C199.577 106.52 199.712 106.6 199.882 106.67C200.052 106.74 200.252 106.81 200.482 106.88C200.722 106.94 200.972 107.005 201.232 107.075C201.602 107.175 201.952 107.29 202.282 107.42C202.612 107.54 202.902 107.685 203.152 107.855C203.402 108.025 203.602 108.23 203.752 108.47C203.902 108.71 203.977 108.99 203.977 109.31C203.977 109.65 203.897 109.965 203.737 110.255C203.577 110.545 203.342 110.8 203.032 111.02C202.732 111.23 202.352 111.4 201.892 111.53C201.442 111.65 200.917 111.71 200.317 111.71C199.647 111.71 198.992 111.6 198.352 111.38C197.712 111.16 197.152 110.89 196.672 110.57L197.662 109.19ZM206.266 112.61C206.456 112.67 206.651 112.7 206.851 112.7C207.281 112.7 207.616 112.61 207.856 112.43C208.106 112.25 208.291 112.015 208.411 111.725L208.561 111.335L205.336 104.09H207.526L208.771 107.285C208.911 107.635 209.041 108 209.161 108.38C209.281 108.75 209.401 109.13 209.521 109.52H209.581C209.681 109.15 209.791 108.78 209.911 108.41C210.031 108.03 210.146 107.655 210.256 107.285L211.351 104.09H213.436L210.496 111.605C210.316 112.075 210.121 112.485 209.911 112.835C209.701 113.195 209.461 113.49 209.191 113.72C208.921 113.96 208.606 114.14 208.246 114.26C207.896 114.38 207.486 114.44 207.016 114.44C206.796 114.44 206.591 114.425 206.401 114.395C206.211 114.375 206.036 114.34 205.876 114.29L206.266 112.61ZM214.945 104.09H216.745L216.91 105.08H216.97C217.29 104.76 217.655 104.485 218.065 104.255C218.485 104.025 218.975 103.91 219.535 103.91C220.375 103.91 220.99 104.18 221.38 104.72C221.77 105.26 221.965 106 221.965 106.94V111.53H219.76V107.225C219.76 106.725 219.68 106.36 219.52 106.13C219.36 105.9 219.075 105.785 218.665 105.785C218.365 105.785 218.1 105.85 217.87 105.98C217.65 106.11 217.41 106.305 217.15 106.565V111.53H214.945V104.09ZM225.469 105.815H223.594V104.18L225.574 104.09L225.859 102.11H227.674V104.09H230.824V105.815H227.674V108.425C227.674 108.995 227.799 109.4 228.049 109.64C228.299 109.87 228.694 109.985 229.234 109.985C229.524 109.985 229.789 109.96 230.029 109.91C230.269 109.86 230.499 109.795 230.719 109.715L231.109 111.305C230.779 111.405 230.409 111.495 229.999 111.575C229.599 111.665 229.159 111.71 228.679 111.71C228.089 111.71 227.589 111.63 227.179 111.47C226.769 111.31 226.434 111.09 226.174 110.81C225.924 110.52 225.744 110.175 225.634 109.775C225.524 109.375 225.469 108.93 225.469 108.44V105.815ZM232.769 109.46C232.769 109.04 232.859 108.675 233.039 108.365C233.219 108.045 233.504 107.775 233.894 107.555C234.294 107.335 234.804 107.16 235.424 107.03C236.044 106.89 236.794 106.795 237.674 106.745C237.634 106.405 237.484 106.14 237.224 105.95C236.974 105.76 236.594 105.665 236.084 105.665C235.724 105.665 235.359 105.73 234.989 105.86C234.629 105.98 234.239 106.145 233.819 106.355L233.039 104.915C233.549 104.625 234.094 104.385 234.674 104.195C235.264 104.005 235.879 103.91 236.519 103.91C237.559 103.91 238.379 104.185 238.979 104.735C239.579 105.285 239.879 106.13 239.879 107.27V111.53H238.079L237.914 110.69H237.854C237.474 110.98 237.059 111.225 236.609 111.425C236.159 111.615 235.694 111.71 235.214 111.71C234.834 111.71 234.494 111.65 234.194 111.53C233.894 111.42 233.639 111.265 233.429 111.065C233.219 110.855 233.054 110.615 232.934 110.345C232.824 110.075 232.769 109.78 232.769 109.46ZM234.884 109.295C234.884 109.535 234.974 109.715 235.154 109.835C235.344 109.945 235.599 110 235.919 110C236.249 110 236.559 109.935 236.849 109.805C237.139 109.665 237.414 109.495 237.674 109.295V108.065C237.124 108.095 236.669 108.145 236.309 108.215C235.949 108.285 235.664 108.375 235.454 108.485C235.244 108.585 235.094 108.705 235.004 108.845C234.924 108.985 234.884 109.135 234.884 109.295ZM243.983 107.66L241.568 104.09H243.938L244.703 105.29C244.813 105.5 244.938 105.715 245.078 105.935C245.218 106.145 245.353 106.355 245.483 106.565H245.543C245.643 106.355 245.743 106.14 245.843 105.92C245.953 105.7 246.058 105.49 246.158 105.29L246.818 104.09H249.128L246.698 107.915L249.278 111.53H246.908L246.053 110.3C245.913 110.09 245.768 109.875 245.618 109.655C245.478 109.435 245.338 109.22 245.198 109.01H245.138C245.028 109.22 244.913 109.435 244.793 109.655C244.673 109.865 244.558 110.08 244.448 110.3L243.713 111.53H241.403L243.983 107.66Z" fill="#D55E00"/>
<path d="M11.5108 93.18C10.9308 93.18 10.3958 93.065 9.90583 92.835C9.42583 92.595 9.01083 92.255 8.66083 91.815C8.32083 91.375 8.05583 90.84 7.86583 90.21C7.67583 89.58 7.58083 88.865 7.58083 88.065C7.58083 87.265 7.67583 86.555 7.86583 85.935C8.05583 85.305 8.32083 84.78 8.66083 84.36C9.01083 83.93 9.42583 83.605 9.90583 83.385C10.3958 83.155 10.9308 83.04 11.5108 83.04C12.0908 83.04 12.6208 83.155 13.1008 83.385C13.5908 83.605 14.0058 83.93 14.3458 84.36C14.6958 84.79 14.9658 85.32 15.1558 85.95C15.3458 86.57 15.4408 87.275 15.4408 88.065C15.4408 88.865 15.3458 89.58 15.1558 90.21C14.9658 90.84 14.6958 91.375 14.3458 91.815C14.0058 92.255 13.5908 92.595 13.1008 92.835C12.6208 93.065 12.0908 93.18 11.5108 93.18ZM11.5108 91.275C12.0208 91.275 12.4258 90.99 12.7258 90.42C13.0258 89.84 13.1758 89.055 13.1758 88.065C13.1758 87.085 13.0258 86.32 12.7258 85.77C12.4258 85.22 12.0208 84.945 11.5108 84.945C11.0008 84.945 10.5958 85.22 10.2958 85.77C9.99583 86.32 9.84583 87.085 9.84583 88.065C9.84583 89.055 9.99583 89.84 10.2958 90.42C10.5958 90.99 11.0008 91.275 11.5108 91.275ZM23.88 93H22.08L21.915 91.935H21.855C21.525 92.315 21.16 92.62 20.76 92.85C20.36 93.07 19.89 93.18 19.35 93.18C18.5 93.18 17.885 92.91 17.505 92.37C17.125 91.83 16.935 91.09 16.935 90.15V85.56H19.14V89.865C19.14 90.365 19.215 90.73 19.365 90.96C19.515 91.19 19.8 91.305 20.22 91.305C20.5 91.305 20.745 91.245 20.955 91.125C21.175 91.005 21.415 90.78 21.675 90.45V85.56H23.88V93ZM27.6091 87.285H25.7341V85.65L27.7141 85.56L27.9991 83.58H29.8141V85.56H32.9641V87.285H29.8141V89.895C29.8141 90.465 29.9391 90.87 30.1891 91.11C30.4391 91.34 30.8341 91.455 31.3741 91.455C31.6641 91.455 31.9291 91.43 32.1691 91.38C32.4091 91.33 32.6391 91.265 32.8591 91.185L33.2491 92.775C32.9191 92.875 32.5491 92.965 32.1391 93.045C31.7391 93.135 31.2991 93.18 30.8191 93.18C30.2291 93.18 29.7291 93.1 29.3191 92.94C28.9091 92.78 28.5741 92.56 28.3141 92.28C28.0641 91.99 27.8841 91.645 27.7741 91.245C27.6641 90.845 27.6091 90.4 27.6091 89.91V87.285ZM37.2783 93.585V95.76H35.0733V85.56H36.8733L37.0383 86.31H37.0833C37.3833 86.04 37.7283 85.82 38.1183 85.65C38.5083 85.47 38.9033 85.38 39.3033 85.38C39.7633 85.38 40.1783 85.47 40.5483 85.65C40.9183 85.83 41.2333 86.085 41.4933 86.415C41.7533 86.745 41.9483 87.145 42.0783 87.615C42.2183 88.075 42.2883 88.59 42.2883 89.16C42.2883 89.8 42.1983 90.37 42.0183 90.87C41.8383 91.36 41.5983 91.78 41.2983 92.13C40.9983 92.47 40.6533 92.73 40.2633 92.91C39.8833 93.09 39.4833 93.18 39.0633 93.18C38.3833 93.18 37.7633 92.91 37.2033 92.37L37.2783 93.585ZM37.2783 90.885C37.4883 91.065 37.7033 91.195 37.9233 91.275C38.1533 91.345 38.3633 91.38 38.5533 91.38C38.9733 91.38 39.3233 91.21 39.6033 90.87C39.8833 90.52 40.0233 89.96 40.0233 89.19C40.0233 87.85 39.5683 87.18 38.6583 87.18C38.1883 87.18 37.7283 87.41 37.2783 87.87V90.885ZM50.8624 93H49.0624L48.8974 91.935H48.8374C48.5074 92.315 48.1424 92.62 47.7424 92.85C47.3424 93.07 46.8724 93.18 46.3324 93.18C45.4824 93.18 44.8674 92.91 44.4874 92.37C44.1074 91.83 43.9174 91.09 43.9174 90.15V85.56H46.1224V89.865C46.1224 90.365 46.1974 90.73 46.3474 90.96C46.4974 91.19 46.7824 91.305 47.2024 91.305C47.4824 91.305 47.7274 91.245 47.9374 91.125C48.1574 91.005 48.3974 90.78 48.6574 90.45V85.56H50.8624V93ZM54.5915 87.285H52.7165V85.65L54.6965 85.56L54.9815 83.58H56.7965V85.56H59.9465V87.285H56.7965V89.895C56.7965 90.465 56.9215 90.87 57.1715 91.11C57.4215 91.34 57.8165 91.455 58.3565 91.455C58.6465 91.455 58.9115 91.43 59.1515 91.38C59.3915 91.33 59.6215 91.265 59.8415 91.185L60.2315 92.775C59.9015 92.875 59.5315 92.965 59.1215 93.045C58.7215 93.135 58.2815 93.18 57.8015 93.18C57.2115 93.18 56.7115 93.1 56.3015 92.94C55.8915 92.78 55.5565 92.56 55.2965 92.28C55.0465 91.99 54.8665 91.645 54.7565 91.245C54.6465 90.845 54.5915 90.4 54.5915 89.91V87.285Z" fill="white"/>
<line x1="-0.000427246" y1="70" x2="596" y2="70" stroke="white"/>
</svg>
