<svg width="540" height="216" viewBox="0 0 540 216" fill="none" xmlns="http://www.w3.org/2000/svg">
<rect width="540" height="216" fill="white"/>
<rect y="32" width="242" height="184" fill="black"/>
<path d="M12.115 167.04V165.435C12.115 165.135 12.12 164.79 12.13 164.4C12.15 164 12.17 163.65 12.19 163.35H12.13C11.97 163.62 11.8 163.89 11.62 164.16C11.44 164.43 11.265 164.7 11.095 164.97L9.655 167.04H12.115ZM15.37 168.72H14.17V171H12.115V168.72H7.525V167.205L11.5 161.475H14.17V167.04H15.37V168.72Z" fill="white"/>
<path d="M11.5 152.18C10.92 152.18 10.385 152.065 9.895 151.835C9.415 151.595 9 151.255 8.65 150.815C8.31 150.375 8.045 149.84 7.855 149.21C7.665 148.58 7.57 147.865 7.57 147.065C7.57 146.265 7.665 145.555 7.855 144.935C8.045 144.305 8.31 143.78 8.65 143.36C9 142.93 9.415 142.605 9.895 142.385C10.385 142.155 10.92 142.04 11.5 142.04C12.08 142.04 12.61 142.155 13.09 142.385C13.58 142.605 13.995 142.93 14.335 143.36C14.685 143.79 14.955 144.32 15.145 144.95C15.335 145.57 15.43 146.275 15.43 147.065C15.43 147.865 15.335 148.58 15.145 149.21C14.955 149.84 14.685 150.375 14.335 150.815C13.995 151.255 13.58 151.595 13.09 151.835C12.61 152.065 12.08 152.18 11.5 152.18ZM11.5 150.275C12.01 150.275 12.415 149.99 12.715 149.42C13.015 148.84 13.165 148.055 13.165 147.065C13.165 146.085 13.015 145.32 12.715 144.77C12.415 144.22 12.01 143.945 11.5 143.945C10.99 143.945 10.585 144.22 10.285 144.77C9.985 145.32 9.835 146.085 9.835 147.065C9.835 148.055 9.985 148.84 10.285 149.42C10.585 149.99 10.99 150.275 11.5 150.275ZM23.8691 152H22.0691L21.9041 150.935H21.8441C21.5141 151.315 21.1491 151.62 20.7491 151.85C20.3491 152.07 19.8791 152.18 19.3391 152.18C18.4891 152.18 17.8741 151.91 17.4941 151.37C17.1141 150.83 16.9241 150.09 16.9241 149.15V144.56H19.1291V148.865C19.1291 149.365 19.2041 149.73 19.3541 149.96C19.5041 150.19 19.7891 150.305 20.2091 150.305C20.4891 150.305 20.7341 150.245 20.9441 150.125C21.1641 150.005 21.4041 149.78 21.6641 149.45V144.56H23.8691V152ZM27.5983 146.285H25.7233V144.65L27.7033 144.56L27.9883 142.58H29.8033V144.56H32.9533V146.285H29.8033V148.895C29.8033 149.465 29.9283 149.87 30.1783 150.11C30.4283 150.34 30.8233 150.455 31.3633 150.455C31.6533 150.455 31.9183 150.43 32.1583 150.38C32.3983 150.33 32.6283 150.265 32.8483 150.185L33.2383 151.775C32.9083 151.875 32.5383 151.965 32.1283 152.045C31.7283 152.135 31.2883 152.18 30.8083 152.18C30.2183 152.18 29.7183 152.1 29.3083 151.94C28.8983 151.78 28.5633 151.56 28.3033 151.28C28.0533 150.99 27.8733 150.645 27.7633 150.245C27.6533 149.845 27.5983 149.4 27.5983 148.91V146.285ZM37.2674 152.585V154.76H35.0624V144.56H36.8624L37.0274 145.31H37.0724C37.3724 145.04 37.7174 144.82 38.1074 144.65C38.4974 144.47 38.8924 144.38 39.2924 144.38C39.7524 144.38 40.1674 144.47 40.5374 144.65C40.9074 144.83 41.2224 145.085 41.4824 145.415C41.7424 145.745 41.9374 146.145 42.0674 146.615C42.2074 147.075 42.2774 147.59 42.2774 148.16C42.2774 148.8 42.1874 149.37 42.0074 149.87C41.8274 150.36 41.5874 150.78 41.2874 151.13C40.9874 151.47 40.6424 151.73 40.2524 151.91C39.8724 152.09 39.4724 152.18 39.0524 152.18C38.3724 152.18 37.7524 151.91 37.1924 151.37L37.2674 152.585ZM37.2674 149.885C37.4774 150.065 37.6924 150.195 37.9124 150.275C38.1424 150.345 38.3524 150.38 38.5424 150.38C38.9624 150.38 39.3124 150.21 39.5924 149.87C39.8724 149.52 40.0124 148.96 40.0124 148.19C40.0124 146.85 39.5574 146.18 38.6474 146.18C38.1774 146.18 37.7174 146.41 37.2674 146.87V149.885ZM50.8516 152H49.0516L48.8866 150.935H48.8266C48.4966 151.315 48.1316 151.62 47.7316 151.85C47.3316 152.07 46.8616 152.18 46.3216 152.18C45.4716 152.18 44.8566 151.91 44.4766 151.37C44.0966 150.83 43.9066 150.09 43.9066 149.15V144.56H46.1116V148.865C46.1116 149.365 46.1866 149.73 46.3366 149.96C46.4866 150.19 46.7716 150.305 47.1916 150.305C47.4716 150.305 47.7166 150.245 47.9266 150.125C48.1466 150.005 48.3866 149.78 48.6466 149.45V144.56H50.8516V152ZM54.5807 146.285H52.7057V144.65L54.6857 144.56L54.9707 142.58H56.7857V144.56H59.9357V146.285H56.7857V148.895C56.7857 149.465 56.9107 149.87 57.1607 150.11C57.4107 150.34 57.8057 150.455 58.3457 150.455C58.6357 150.455 58.9007 150.43 59.1407 150.38C59.3807 150.33 59.6107 150.265 59.8307 150.185L60.2207 151.775C59.8907 151.875 59.5207 151.965 59.1107 152.045C58.7107 152.135 58.2707 152.18 57.7907 152.18C57.2007 152.18 56.7007 152.1 56.2907 151.94C55.8807 151.78 55.5457 151.56 55.2857 151.28C55.0357 150.99 54.8557 150.645 54.7457 150.245C54.6357 149.845 54.5807 149.4 54.5807 148.91V146.285Z" fill="white"/>
<rect x="96.75" y="32" width="145.25" height="30.6018" fill="#333333"/>
<rect x="96.75" y="32" width="145.25" height="30.6018" fill="#333333"/>
<rect y="32" width="97.1974" height="30.6018" fill="#090808"/>
<path d="M18.105 49.8101C18.105 49.5513 17.9756 49.3486 17.7168 49.2021C17.4629 49.0508 17.0527 48.9165 16.4863 48.7993C14.6016 48.4038 13.6592 47.603 13.6592 46.397C13.6592 45.6938 13.9497 45.1079 14.5308 44.6392C15.1167 44.1655 15.8809 43.9287 16.8232 43.9287C17.8291 43.9287 18.6323 44.1655 19.2329 44.6392C19.8384 45.1128 20.1411 45.728 20.1411 46.4849H18.0244C18.0244 46.1821 17.9268 45.9331 17.7314 45.7378C17.5361 45.5376 17.231 45.4375 16.8159 45.4375C16.4595 45.4375 16.1836 45.5181 15.9883 45.6792C15.793 45.8403 15.6953 46.0454 15.6953 46.2944C15.6953 46.5288 15.8052 46.7192 16.0249 46.8657C16.2495 47.0073 16.6255 47.1318 17.1528 47.2393C17.6802 47.3418 18.1245 47.459 18.4858 47.5908C19.604 48.001 20.1631 48.7114 20.1631 49.7222C20.1631 50.4448 19.853 51.0308 19.2329 51.48C18.6128 51.9243 17.812 52.1465 16.8306 52.1465C16.1665 52.1465 15.5757 52.0293 15.0581 51.7949C14.5454 51.5557 14.1426 51.231 13.8496 50.8208C13.5566 50.4058 13.4102 49.959 13.4102 49.4805H15.417C15.4365 49.8564 15.5757 50.1445 15.8345 50.3447C16.0933 50.5449 16.4399 50.645 16.8745 50.645C17.2798 50.645 17.585 50.5693 17.79 50.418C18 50.2617 18.105 50.0591 18.105 49.8101ZM24.8286 50.4399C25.2192 50.4399 25.5366 50.3325 25.7808 50.1177C26.0249 49.9028 26.1519 49.6172 26.1616 49.2607H28.1465C28.1416 49.7979 27.9951 50.291 27.707 50.7402C27.4189 51.1846 27.0234 51.5312 26.5205 51.7803C26.0225 52.0244 25.4707 52.1465 24.8652 52.1465C23.7324 52.1465 22.8389 51.7876 22.1846 51.0698C21.5303 50.3472 21.2031 49.3511 21.2031 48.0815V47.9424C21.2031 46.7217 21.5278 45.7476 22.1772 45.02C22.8267 44.2925 23.7178 43.9287 24.8506 43.9287C25.8418 43.9287 26.6353 44.2119 27.231 44.7783C27.8315 45.3398 28.1367 46.0894 28.1465 47.0269H26.1616C26.1519 46.6167 26.0249 46.2847 25.7808 46.0308C25.5366 45.772 25.2144 45.6426 24.814 45.6426C24.3208 45.6426 23.9473 45.8232 23.6934 46.1846C23.4443 46.541 23.3198 47.1221 23.3198 47.9277V48.1475C23.3198 48.9629 23.4443 49.5488 23.6934 49.9053C23.9424 50.2617 24.3208 50.4399 24.8286 50.4399ZM33.8081 46.0601C33.52 46.021 33.2661 46.0015 33.0464 46.0015C32.2456 46.0015 31.7207 46.2725 31.4717 46.8145V52H29.355V44.0752H31.3545L31.4131 45.02C31.8379 44.2925 32.4263 43.9287 33.1782 43.9287C33.4126 43.9287 33.6323 43.9604 33.8374 44.0239L33.8081 46.0601ZM37.0674 52H34.9434V44.0752H37.0674V52ZM34.8188 42.0244C34.8188 41.707 34.9238 41.4458 35.1338 41.2407C35.3486 41.0356 35.6392 40.9331 36.0054 40.9331C36.3667 40.9331 36.6548 41.0356 36.8696 41.2407C37.0845 41.4458 37.1919 41.707 37.1919 42.0244C37.1919 42.3467 37.082 42.6104 36.8623 42.8154C36.6475 43.0205 36.3618 43.123 36.0054 43.123C35.6489 43.123 35.3608 43.0205 35.1411 42.8154C34.9263 42.6104 34.8188 42.3467 34.8188 42.0244ZM45.9517 48.1108C45.9517 49.3315 45.6733 50.3105 45.1167 51.0479C44.5649 51.7803 43.8179 52.1465 42.8755 52.1465C42.0747 52.1465 41.4277 51.8682 40.9346 51.3115V55.0469H38.8179V44.0752H40.7808L40.854 44.8516C41.3667 44.2363 42.0356 43.9287 42.8608 43.9287C43.8374 43.9287 44.5967 44.29 45.1387 45.0127C45.6807 45.7354 45.9517 46.7314 45.9517 48.001V48.1108ZM43.835 47.957C43.835 47.2197 43.7031 46.6509 43.4395 46.2505C43.1807 45.8501 42.8022 45.6499 42.3042 45.6499C41.6401 45.6499 41.1836 45.9038 40.9346 46.4116V49.6562C41.1934 50.1787 41.6548 50.4399 42.3188 50.4399C43.3296 50.4399 43.835 49.6123 43.835 47.957ZM49.8042 42.127V44.0752H51.1592V45.6279H49.8042V49.583C49.8042 49.876 49.8604 50.0859 49.9727 50.2129C50.085 50.3398 50.2998 50.4033 50.6172 50.4033C50.8516 50.4033 51.0591 50.3862 51.2397 50.3521V51.9561C50.8247 52.083 50.3975 52.1465 49.958 52.1465C48.4736 52.1465 47.7168 51.397 47.6875 49.8979V45.6279H46.5303V44.0752H47.6875V42.127H49.8042ZM52.4482 50.96C52.4482 50.623 52.5605 50.3496 52.7852 50.1396C53.0146 49.9297 53.3003 49.8247 53.6421 49.8247C53.9888 49.8247 54.2744 49.9297 54.499 50.1396C54.7285 50.3496 54.8433 50.623 54.8433 50.96C54.8433 51.292 54.731 51.563 54.5063 51.7729C54.2817 51.978 53.9937 52.0806 53.6421 52.0806C53.2954 52.0806 53.0098 51.978 52.7852 51.7729C52.5605 51.563 52.4482 51.292 52.4482 50.96ZM63.8374 48.1108C63.8374 49.3315 63.5591 50.3105 63.0024 51.0479C62.4507 51.7803 61.7036 52.1465 60.7612 52.1465C59.9604 52.1465 59.3135 51.8682 58.8203 51.3115V55.0469H56.7036V44.0752H58.6665L58.7397 44.8516C59.2524 44.2363 59.9214 43.9287 60.7466 43.9287C61.7231 43.9287 62.4824 44.29 63.0244 45.0127C63.5664 45.7354 63.8374 46.7314 63.8374 48.001V48.1108ZM61.7207 47.957C61.7207 47.2197 61.5889 46.6509 61.3252 46.2505C61.0664 45.8501 60.688 45.6499 60.1899 45.6499C59.5259 45.6499 59.0693 45.9038 58.8203 46.4116V49.6562C59.0791 50.1787 59.5405 50.4399 60.2046 50.4399C61.2153 50.4399 61.7207 49.6123 61.7207 47.957ZM68.0269 49.0044L69.4917 44.0752H71.7622L68.5762 53.2305L68.4004 53.6479C67.9268 54.6831 67.1455 55.2007 66.0566 55.2007C65.749 55.2007 65.4365 55.1543 65.1191 55.0615V53.4575L65.4414 53.4648C65.8418 53.4648 66.1396 53.4038 66.335 53.2817C66.5352 53.1597 66.6914 52.957 66.8037 52.6738L67.0527 52.022L64.2769 44.0752H66.5547L68.0269 49.0044Z" fill="white"/>
<line x1="0.000164568" y1="131.5" x2="242" y2="131.58" stroke="white"/>
<path d="M8.74 75.56H10.54L10.72 77.18H10.765C11.135 76.57 11.58 76.12 12.1 75.83C12.62 75.53 13.18 75.38 13.78 75.38C14.11 75.38 14.375 75.405 14.575 75.455C14.785 75.505 15 75.58 15.22 75.68L14.77 77.525C14.54 77.455 14.33 77.405 14.14 77.375C13.96 77.335 13.73 77.315 13.45 77.315C12.99 77.315 12.535 77.45 12.085 77.72C11.645 77.99 11.265 78.46 10.945 79.13V83H8.74V75.56ZM16.6991 79.28C16.6991 78.66 16.8041 78.11 17.0141 77.63C17.2241 77.14 17.5041 76.73 17.8541 76.4C18.2141 76.07 18.6191 75.82 19.0691 75.65C19.5291 75.47 20.0041 75.38 20.4941 75.38C20.9841 75.38 21.4541 75.47 21.9041 75.65C22.3641 75.82 22.7691 76.07 23.1191 76.4C23.4791 76.73 23.7641 77.14 23.9741 77.63C24.1841 78.11 24.2891 78.66 24.2891 79.28C24.2891 79.9 24.1841 80.455 23.9741 80.945C23.7641 81.425 23.4791 81.83 23.1191 82.16C22.7691 82.49 22.3641 82.745 21.9041 82.925C21.4541 83.095 20.9841 83.18 20.4941 83.18C20.0041 83.18 19.5291 83.095 19.0691 82.925C18.6191 82.745 18.2141 82.49 17.8541 82.16C17.5041 81.83 17.2241 81.425 17.0141 80.945C16.8041 80.455 16.6991 79.9 16.6991 79.28ZM18.9641 79.28C18.9641 79.93 19.0891 80.445 19.3391 80.825C19.5991 81.205 19.9841 81.395 20.4941 81.395C21.0041 81.395 21.3841 81.205 21.6341 80.825C21.8941 80.445 22.0241 79.93 22.0241 79.28C22.0241 78.63 21.8941 78.115 21.6341 77.735C21.3841 77.355 21.0041 77.165 20.4941 77.165C19.9841 77.165 19.5991 77.355 19.3391 77.735C19.0891 78.115 18.9641 78.63 18.9641 79.28ZM32.8633 83H31.0633L30.8983 81.935H30.8383C30.5083 82.315 30.1433 82.62 29.7433 82.85C29.3433 83.07 28.8733 83.18 28.3333 83.18C27.4833 83.18 26.8683 82.91 26.4883 82.37C26.1083 81.83 25.9183 81.09 25.9183 80.15V75.56H28.1233V79.865C28.1233 80.365 28.1983 80.73 28.3483 80.96C28.4983 81.19 28.7833 81.305 29.2033 81.305C29.4833 81.305 29.7283 81.245 29.9383 81.125C30.1583 81.005 30.3983 80.78 30.6583 80.45V75.56H32.8633V83ZM35.0624 75.56H36.8624L37.0274 76.55H37.0874C37.4074 76.23 37.7724 75.955 38.1824 75.725C38.6024 75.495 39.0924 75.38 39.6524 75.38C40.4924 75.38 41.1074 75.65 41.4974 76.19C41.8874 76.73 42.0824 77.47 42.0824 78.41V83H39.8774V78.695C39.8774 78.195 39.7974 77.83 39.6374 77.6C39.4774 77.37 39.1924 77.255 38.7824 77.255C38.4824 77.255 38.2174 77.32 37.9874 77.45C37.7674 77.58 37.5274 77.775 37.2674 78.035V83H35.0624V75.56ZM43.6816 79.28C43.6816 78.67 43.7716 78.125 43.9516 77.645C44.1316 77.165 44.3666 76.76 44.6566 76.43C44.9566 76.09 45.2966 75.83 45.6766 75.65C46.0566 75.47 46.4516 75.38 46.8616 75.38C47.2916 75.38 47.6516 75.455 47.9416 75.605C48.2316 75.745 48.5066 75.935 48.7666 76.175L48.6916 75.02V72.485H50.8966V83H49.0966L48.9316 82.235H48.8866C48.6066 82.505 48.2866 82.73 47.9266 82.91C47.5666 83.09 47.1966 83.18 46.8166 83.18C46.3466 83.18 45.9166 83.09 45.5266 82.91C45.1466 82.73 44.8166 82.475 44.5366 82.145C44.2666 81.805 44.0566 81.395 43.9066 80.915C43.7566 80.435 43.6816 79.89 43.6816 79.28ZM45.9466 79.25C45.9466 79.99 46.0716 80.53 46.3216 80.87C46.5716 81.21 46.9266 81.38 47.3866 81.38C47.6366 81.38 47.8666 81.33 48.0766 81.23C48.2866 81.12 48.4916 80.94 48.6916 80.69V77.675C48.4916 77.495 48.2866 77.37 48.0766 77.3C47.8766 77.22 47.6666 77.18 47.4466 77.18C47.0366 77.18 46.6816 77.35 46.3816 77.69C46.0916 78.03 45.9466 78.55 45.9466 79.25ZM8.74 94.56H10.54L10.72 96.18H10.765C11.135 95.57 11.58 95.12 12.1 94.83C12.62 94.53 13.18 94.38 13.78 94.38C14.11 94.38 14.375 94.405 14.575 94.455C14.785 94.505 15 94.58 15.22 94.68L14.77 96.525C14.54 96.455 14.33 96.405 14.14 96.375C13.96 96.335 13.73 96.315 13.45 96.315C12.99 96.315 12.535 96.45 12.085 96.72C11.645 96.99 11.265 97.46 10.945 98.13V102H8.74V94.56ZM16.6991 98.28C16.6991 97.66 16.8041 97.11 17.0141 96.63C17.2241 96.14 17.5041 95.73 17.8541 95.4C18.2141 95.07 18.6191 94.82 19.0691 94.65C19.5291 94.47 20.0041 94.38 20.4941 94.38C20.9841 94.38 21.4541 94.47 21.9041 94.65C22.3641 94.82 22.7691 95.07 23.1191 95.4C23.4791 95.73 23.7641 96.14 23.9741 96.63C24.1841 97.11 24.2891 97.66 24.2891 98.28C24.2891 98.9 24.1841 99.455 23.9741 99.945C23.7641 100.425 23.4791 100.83 23.1191 101.16C22.7691 101.49 22.3641 101.745 21.9041 101.925C21.4541 102.095 20.9841 102.18 20.4941 102.18C20.0041 102.18 19.5291 102.095 19.0691 101.925C18.6191 101.745 18.2141 101.49 17.8541 101.16C17.5041 100.83 17.2241 100.425 17.0141 99.945C16.8041 99.455 16.6991 98.9 16.6991 98.28ZM18.9641 98.28C18.9641 98.93 19.0891 99.445 19.3391 99.825C19.5991 100.205 19.9841 100.395 20.4941 100.395C21.0041 100.395 21.3841 100.205 21.6341 99.825C21.8941 99.445 22.0241 98.93 22.0241 98.28C22.0241 97.63 21.8941 97.115 21.6341 96.735C21.3841 96.355 21.0041 96.165 20.4941 96.165C19.9841 96.165 19.5991 96.355 19.3391 96.735C19.0891 97.115 18.9641 97.63 18.9641 98.28ZM32.8633 102H31.0633L30.8983 100.935H30.8383C30.5083 101.315 30.1433 101.62 29.7433 101.85C29.3433 102.07 28.8733 102.18 28.3333 102.18C27.4833 102.18 26.8683 101.91 26.4883 101.37C26.1083 100.83 25.9183 100.09 25.9183 99.15V94.56H28.1233V98.865C28.1233 99.365 28.1983 99.73 28.3483 99.96C28.4983 100.19 28.7833 100.305 29.2033 100.305C29.4833 100.305 29.7283 100.245 29.9383 100.125C30.1583 100.005 30.3983 99.78 30.6583 99.45V94.56H32.8633V102ZM35.0624 94.56H36.8624L37.0274 95.55H37.0874C37.4074 95.23 37.7724 94.955 38.1824 94.725C38.6024 94.495 39.0924 94.38 39.6524 94.38C40.4924 94.38 41.1074 94.65 41.4974 95.19C41.8874 95.73 42.0824 96.47 42.0824 97.41V102H39.8774V97.695C39.8774 97.195 39.7974 96.83 39.6374 96.6C39.4774 96.37 39.1924 96.255 38.7824 96.255C38.4824 96.255 38.2174 96.32 37.9874 96.45C37.7674 96.58 37.5274 96.775 37.2674 97.035V102H35.0624V94.56ZM43.6816 98.28C43.6816 97.67 43.7716 97.125 43.9516 96.645C44.1316 96.165 44.3666 95.76 44.6566 95.43C44.9566 95.09 45.2966 94.83 45.6766 94.65C46.0566 94.47 46.4516 94.38 46.8616 94.38C47.2916 94.38 47.6516 94.455 47.9416 94.605C48.2316 94.745 48.5066 94.935 48.7666 95.175L48.6916 94.02V91.485H50.8966V102H49.0966L48.9316 101.235H48.8866C48.6066 101.505 48.2866 101.73 47.9266 101.91C47.5666 102.09 47.1966 102.18 46.8166 102.18C46.3466 102.18 45.9166 102.09 45.5266 101.91C45.1466 101.73 44.8166 101.475 44.5366 101.145C44.2666 100.805 44.0566 100.395 43.9066 99.915C43.7566 99.435 43.6816 98.89 43.6816 98.28ZM45.9466 98.25C45.9466 98.99 46.0716 99.53 46.3216 99.87C46.5716 100.21 46.9266 100.38 47.3866 100.38C47.6366 100.38 47.8666 100.33 48.0766 100.23C48.2866 100.12 48.4916 99.94 48.6916 99.69V96.675C48.4916 96.495 48.2866 96.37 48.0766 96.3C47.8766 96.22 47.6666 96.18 47.4466 96.18C47.0366 96.18 46.6816 96.35 46.3816 96.69C46.0916 97.03 45.9466 97.55 45.9466 98.25ZM8.74 112.56H10.54L10.72 114.18H10.765C11.135 113.57 11.58 113.12 12.1 112.83C12.62 112.53 13.18 112.38 13.78 112.38C14.11 112.38 14.375 112.405 14.575 112.455C14.785 112.505 15 112.58 15.22 112.68L14.77 114.525C14.54 114.455 14.33 114.405 14.14 114.375C13.96 114.335 13.73 114.315 13.45 114.315C12.99 114.315 12.535 114.45 12.085 114.72C11.645 114.99 11.265 115.46 10.945 116.13V120H8.74V112.56ZM16.6991 116.28C16.6991 115.66 16.8041 115.11 17.0141 114.63C17.2241 114.14 17.5041 113.73 17.8541 113.4C18.2141 113.07 18.6191 112.82 19.0691 112.65C19.5291 112.47 20.0041 112.38 20.4941 112.38C20.9841 112.38 21.4541 112.47 21.9041 112.65C22.3641 112.82 22.7691 113.07 23.1191 113.4C23.4791 113.73 23.7641 114.14 23.9741 114.63C24.1841 115.11 24.2891 115.66 24.2891 116.28C24.2891 116.9 24.1841 117.455 23.9741 117.945C23.7641 118.425 23.4791 118.83 23.1191 119.16C22.7691 119.49 22.3641 119.745 21.9041 119.925C21.4541 120.095 20.9841 120.18 20.4941 120.18C20.0041 120.18 19.5291 120.095 19.0691 119.925C18.6191 119.745 18.2141 119.49 17.8541 119.16C17.5041 118.83 17.2241 118.425 17.0141 117.945C16.8041 117.455 16.6991 116.9 16.6991 116.28ZM18.9641 116.28C18.9641 116.93 19.0891 117.445 19.3391 117.825C19.5991 118.205 19.9841 118.395 20.4941 118.395C21.0041 118.395 21.3841 118.205 21.6341 117.825C21.8941 117.445 22.0241 116.93 22.0241 116.28C22.0241 115.63 21.8941 115.115 21.6341 114.735C21.3841 114.355 21.0041 114.165 20.4941 114.165C19.9841 114.165 19.5991 114.355 19.3391 114.735C19.0891 115.115 18.9641 115.63 18.9641 116.28ZM32.8633 120H31.0633L30.8983 118.935H30.8383C30.5083 119.315 30.1433 119.62 29.7433 119.85C29.3433 120.07 28.8733 120.18 28.3333 120.18C27.4833 120.18 26.8683 119.91 26.4883 119.37C26.1083 118.83 25.9183 118.09 25.9183 117.15V112.56H28.1233V116.865C28.1233 117.365 28.1983 117.73 28.3483 117.96C28.4983 118.19 28.7833 118.305 29.2033 118.305C29.4833 118.305 29.7283 118.245 29.9383 118.125C30.1583 118.005 30.3983 117.78 30.6583 117.45V112.56H32.8633V120ZM35.0624 112.56H36.8624L37.0274 113.55H37.0874C37.4074 113.23 37.7724 112.955 38.1824 112.725C38.6024 112.495 39.0924 112.38 39.6524 112.38C40.4924 112.38 41.1074 112.65 41.4974 113.19C41.8874 113.73 42.0824 114.47 42.0824 115.41V120H39.8774V115.695C39.8774 115.195 39.7974 114.83 39.6374 114.6C39.4774 114.37 39.1924 114.255 38.7824 114.255C38.4824 114.255 38.2174 114.32 37.9874 114.45C37.7674 114.58 37.5274 114.775 37.2674 115.035V120H35.0624V112.56ZM43.6816 116.28C43.6816 115.67 43.7716 115.125 43.9516 114.645C44.1316 114.165 44.3666 113.76 44.6566 113.43C44.9566 113.09 45.2966 112.83 45.6766 112.65C46.0566 112.47 46.4516 112.38 46.8616 112.38C47.2916 112.38 47.6516 112.455 47.9416 112.605C48.2316 112.745 48.5066 112.935 48.7666 113.175L48.6916 112.02V109.485H50.8966V120H49.0966L48.9316 119.235H48.8866C48.6066 119.505 48.2866 119.73 47.9266 119.91C47.5666 120.09 47.1966 120.18 46.8166 120.18C46.3466 120.18 45.9166 120.09 45.5266 119.91C45.1466 119.73 44.8166 119.475 44.5366 119.145C44.2666 118.805 44.0566 118.395 43.9066 117.915C43.7566 117.435 43.6816 116.89 43.6816 116.28ZM45.9466 116.25C45.9466 116.99 46.0716 117.53 46.3216 117.87C46.5716 118.21 46.9266 118.38 47.3866 118.38C47.6366 118.38 47.8666 118.33 48.0766 118.23C48.2866 118.12 48.4916 117.94 48.6916 117.69V114.675C48.4916 114.495 48.2866 114.37 48.0766 114.3C47.8766 114.22 47.6666 114.18 47.4466 114.18C47.0366 114.18 46.6816 114.35 46.3816 114.69C46.0916 115.03 45.9466 115.55 45.9466 116.25Z" fill="#56B4E9"/>
<path d="M57.8507 85.685C56.8707 84.815 56.0957 83.81 55.5257 82.67C54.9657 81.53 54.6857 80.25 54.6857 78.83C54.6857 77.41 54.9657 76.13 55.5257 74.99C56.0957 73.85 56.8707 72.845 57.8507 71.975L59.0807 72.95C58.1907 73.82 57.5407 74.725 57.1307 75.665C56.7307 76.595 56.5307 77.65 56.5307 78.83C56.5307 79.42 56.5807 79.98 56.6807 80.51C56.7807 81.03 56.9307 81.53 57.1307 82.01C57.3407 82.49 57.6057 82.95 57.9257 83.39C58.2457 83.84 58.6307 84.28 59.0807 84.71L57.8507 85.685ZM98.8314 84.71C99.2814 84.28 99.6664 83.84 99.9864 83.39C100.306 82.95 100.566 82.49 100.766 82.01C100.976 81.53 101.131 81.03 101.231 80.51C101.331 79.98 101.381 79.42 101.381 78.83C101.381 77.65 101.176 76.595 100.766 75.665C100.366 74.725 99.7214 73.82 98.8314 72.95L100.061 71.975C101.041 72.845 101.811 73.85 102.371 74.99C102.941 76.13 103.226 77.41 103.226 78.83C103.226 80.25 102.941 81.53 102.371 82.67C101.811 83.81 101.041 84.815 100.061 85.685L98.8314 84.71ZM57.8507 104.685C56.8707 103.815 56.0957 102.81 55.5257 101.67C54.9657 100.53 54.6857 99.25 54.6857 97.83C54.6857 96.41 54.9657 95.13 55.5257 93.99C56.0957 92.85 56.8707 91.845 57.8507 90.975L59.0807 91.95C58.1907 92.82 57.5407 93.725 57.1307 94.665C56.7307 95.595 56.5307 96.65 56.5307 97.83C56.5307 98.42 56.5807 98.98 56.6807 99.51C56.7807 100.03 56.9307 100.53 57.1307 101.01C57.3407 101.49 57.6057 101.95 57.9257 102.39C58.2457 102.84 58.6307 103.28 59.0807 103.71L57.8507 104.685ZM89.8373 103.71C90.2873 103.28 90.6723 102.84 90.9923 102.39C91.3123 101.95 91.5723 101.49 91.7723 101.01C91.9823 100.53 92.1373 100.03 92.2373 99.51C92.3373 98.98 92.3873 98.42 92.3873 97.83C92.3873 96.65 92.1823 95.595 91.7723 94.665C91.3723 93.725 90.7273 92.82 89.8373 91.95L91.0673 90.975C92.0473 91.845 92.8173 92.85 93.3773 93.99C93.9473 95.13 94.2323 96.41 94.2323 97.83C94.2323 99.25 93.9473 100.53 93.3773 101.67C92.8173 102.81 92.0473 103.815 91.0673 104.685L89.8373 103.71ZM57.8507 122.685C56.8707 121.815 56.0957 120.81 55.5257 119.67C54.9657 118.53 54.6857 117.25 54.6857 115.83C54.6857 114.41 54.9657 113.13 55.5257 111.99C56.0957 110.85 56.8707 109.845 57.8507 108.975L59.0807 109.95C58.1907 110.82 57.5407 111.725 57.1307 112.665C56.7307 113.595 56.5307 114.65 56.5307 115.83C56.5307 116.42 56.5807 116.98 56.6807 117.51C56.7807 118.03 56.9307 118.53 57.1307 119.01C57.3407 119.49 57.6057 119.95 57.9257 120.39C58.2457 120.84 58.6307 121.28 59.0807 121.71L57.8507 122.685ZM89.8373 121.71C90.2873 121.28 90.6723 120.84 90.9923 120.39C91.3123 119.95 91.5723 119.49 91.7723 119.01C91.9823 118.53 92.1373 118.03 92.2373 117.51C92.3373 116.98 92.3873 116.42 92.3873 115.83C92.3873 114.65 92.1823 113.595 91.7723 112.665C91.3723 111.725 90.7273 110.82 89.8373 109.95L91.0673 108.975C92.0473 109.845 92.8173 110.85 93.3773 111.99C93.9473 113.13 94.2323 114.41 94.2323 115.83C94.2323 117.25 93.9473 118.53 93.3773 119.67C92.8173 120.81 92.0473 121.815 91.0673 122.685L89.8373 121.71Z" fill="white"/>
<path d="M66.0798 79.04V77.435C66.0798 77.135 66.0848 76.79 66.0948 76.4C66.1148 76 66.1348 75.65 66.1548 75.35H66.0948C65.9348 75.62 65.7648 75.89 65.5848 76.16C65.4048 76.43 65.2298 76.7 65.0598 76.97L63.6198 79.04H66.0798ZM69.3348 80.72H68.1348V83H66.0798V80.72H61.4898V79.205L65.4648 73.475H68.1348V79.04H69.3348V80.72ZM72.719 81.425C72.719 81.175 72.759 80.945 72.839 80.735C72.929 80.515 73.049 80.325 73.199 80.165C73.349 80.005 73.529 79.88 73.739 79.79C73.959 79.7 74.199 79.655 74.459 79.655C74.719 79.655 74.954 79.7 75.164 79.79C75.384 79.88 75.569 80.005 75.719 80.165C75.869 80.325 75.984 80.515 76.064 80.735C76.154 80.945 76.199 81.175 76.199 81.425C76.199 81.925 76.039 82.345 75.719 82.685C75.399 83.015 74.979 83.18 74.459 83.18C73.939 83.18 73.519 83.015 73.199 82.685C72.879 82.345 72.719 81.925 72.719 81.425ZM83.1831 77.87C83.4631 77.87 83.7531 77.8 84.0531 77.66C84.3531 77.52 84.6481 77.275 84.9381 76.925C84.8781 76.555 84.7881 76.245 84.6681 75.995C84.5581 75.735 84.4231 75.53 84.2631 75.38C84.1131 75.22 83.9481 75.11 83.7681 75.05C83.5881 74.98 83.4031 74.945 83.2131 74.945C83.0231 74.945 82.8381 74.975 82.6581 75.035C82.4881 75.095 82.3331 75.19 82.1931 75.32C82.0631 75.44 81.9581 75.6 81.8781 75.8C81.7981 75.99 81.7581 76.22 81.7581 76.49C81.7581 76.98 81.8881 77.335 82.1481 77.555C82.4081 77.765 82.7531 77.87 83.1831 77.87ZM81.0531 80.72C81.2531 80.9 81.5031 81.06 81.8031 81.2C82.1031 81.33 82.4131 81.395 82.7331 81.395C83.0231 81.395 83.2981 81.345 83.5581 81.245C83.8281 81.135 84.0631 80.965 84.2631 80.735C84.4731 80.495 84.6431 80.185 84.7731 79.805C84.9031 79.415 84.9781 78.94 84.9981 78.38C84.6481 78.71 84.2631 78.97 83.8431 79.16C83.4331 79.34 83.0531 79.43 82.7031 79.43C82.2831 79.43 81.8931 79.37 81.5331 79.25C81.1731 79.13 80.8581 78.95 80.5881 78.71C80.3281 78.47 80.1231 78.165 79.9731 77.795C79.8231 77.425 79.7481 76.99 79.7481 76.49C79.7481 76 79.8381 75.56 80.0181 75.17C80.2081 74.77 80.4581 74.43 80.7681 74.15C81.0881 73.87 81.4531 73.66 81.8631 73.52C82.2731 73.37 82.7081 73.295 83.1681 73.295C83.6581 73.295 84.1331 73.385 84.5931 73.565C85.0631 73.745 85.4781 74.025 85.8381 74.405C86.1981 74.785 86.4831 75.275 86.6931 75.875C86.9131 76.465 87.0231 77.18 87.0231 78.02C87.0231 78.91 86.9081 79.68 86.6781 80.33C86.4481 80.98 86.1431 81.515 85.7631 81.935C85.3831 82.355 84.9431 82.67 84.4431 82.88C83.9531 83.08 83.4481 83.18 82.9281 83.18C82.2481 83.18 81.6531 83.065 81.1431 82.835C80.6331 82.605 80.2131 82.34 79.8831 82.04L81.0531 80.72ZM92.1773 77.87C92.4573 77.87 92.7473 77.8 93.0473 77.66C93.3473 77.52 93.6423 77.275 93.9323 76.925C93.8723 76.555 93.7823 76.245 93.6623 75.995C93.5523 75.735 93.4173 75.53 93.2573 75.38C93.1073 75.22 92.9423 75.11 92.7623 75.05C92.5823 74.98 92.3973 74.945 92.2073 74.945C92.0173 74.945 91.8323 74.975 91.6523 75.035C91.4823 75.095 91.3273 75.19 91.1873 75.32C91.0573 75.44 90.9523 75.6 90.8723 75.8C90.7923 75.99 90.7523 76.22 90.7523 76.49C90.7523 76.98 90.8823 77.335 91.1423 77.555C91.4023 77.765 91.7473 77.87 92.1773 77.87ZM90.0473 80.72C90.2473 80.9 90.4973 81.06 90.7973 81.2C91.0973 81.33 91.4073 81.395 91.7273 81.395C92.0173 81.395 92.2923 81.345 92.5523 81.245C92.8223 81.135 93.0573 80.965 93.2573 80.735C93.4673 80.495 93.6373 80.185 93.7673 79.805C93.8973 79.415 93.9723 78.94 93.9923 78.38C93.6423 78.71 93.2573 78.97 92.8373 79.16C92.4273 79.34 92.0473 79.43 91.6973 79.43C91.2773 79.43 90.8873 79.37 90.5273 79.25C90.1673 79.13 89.8523 78.95 89.5823 78.71C89.3223 78.47 89.1173 78.165 88.9673 77.795C88.8173 77.425 88.7423 76.99 88.7423 76.49C88.7423 76 88.8323 75.56 89.0123 75.17C89.2023 74.77 89.4523 74.43 89.7623 74.15C90.0823 73.87 90.4473 73.66 90.8573 73.52C91.2673 73.37 91.7023 73.295 92.1623 73.295C92.6523 73.295 93.1273 73.385 93.5873 73.565C94.0573 73.745 94.4723 74.025 94.8323 74.405C95.1923 74.785 95.4773 75.275 95.6873 75.875C95.9073 76.465 96.0173 77.18 96.0173 78.02C96.0173 78.91 95.9023 79.68 95.6723 80.33C95.4423 80.98 95.1373 81.515 94.7573 81.935C94.3773 82.355 93.9373 82.67 93.4373 82.88C92.9473 83.08 92.4423 83.18 91.9223 83.18C91.2423 83.18 90.6473 83.065 90.1373 82.835C89.6273 82.605 89.2073 82.34 88.8773 82.04L90.0473 80.72ZM66.0798 98.04V96.435C66.0798 96.135 66.0848 95.79 66.0948 95.4C66.1148 95 66.1348 94.65 66.1548 94.35H66.0948C65.9348 94.62 65.7648 94.89 65.5848 95.16C65.4048 95.43 65.2298 95.7 65.0598 95.97L63.6198 98.04H66.0798ZM69.3348 99.72H68.1348V102H66.0798V99.72H61.4898V98.205L65.4648 92.475H68.1348V98.04H69.3348V99.72ZM72.719 100.425C72.719 100.175 72.759 99.945 72.839 99.735C72.929 99.515 73.049 99.325 73.199 99.165C73.349 99.005 73.529 98.88 73.739 98.79C73.959 98.7 74.199 98.655 74.459 98.655C74.719 98.655 74.954 98.7 75.164 98.79C75.384 98.88 75.569 99.005 75.719 99.165C75.869 99.325 75.984 99.515 76.064 99.735C76.154 99.945 76.199 100.175 76.199 100.425C76.199 100.925 76.039 101.345 75.719 101.685C75.399 102.015 74.979 102.18 74.459 102.18C73.939 102.18 73.519 102.015 73.199 101.685C72.879 101.345 72.719 100.925 72.719 100.425ZM80.6331 99.45C80.9531 99.71 81.2931 99.935 81.6531 100.125C82.0231 100.305 82.4331 100.395 82.8831 100.395C83.4231 100.395 83.8631 100.27 84.2031 100.02C84.5531 99.77 84.7281 99.4 84.7281 98.91C84.7281 98.43 84.5631 98.065 84.2331 97.815C83.9131 97.565 83.4981 97.44 82.9881 97.44C82.8281 97.44 82.6831 97.45 82.5531 97.47C82.4331 97.48 82.3131 97.505 82.1931 97.545C82.0731 97.585 81.9481 97.635 81.8181 97.695C81.6881 97.755 81.5431 97.83 81.3831 97.92L80.4081 97.29L80.6631 92.475H86.4981V94.335H82.5681L82.4031 96.12C82.6231 96.04 82.8281 95.985 83.0181 95.955C83.2081 95.915 83.4231 95.895 83.6631 95.895C84.1031 95.895 84.5181 95.955 84.9081 96.075C85.3081 96.195 85.6581 96.375 85.9581 96.615C86.2581 96.855 86.4931 97.16 86.6631 97.53C86.8431 97.9 86.9331 98.34 86.9331 98.85C86.9331 99.38 86.8281 99.85 86.6181 100.26C86.4181 100.67 86.1431 101.02 85.7931 101.31C85.4531 101.59 85.0581 101.805 84.6081 101.955C84.1581 102.105 83.6881 102.18 83.1981 102.18C82.3681 102.18 81.6631 102.055 81.0831 101.805C80.5131 101.545 80.0331 101.225 79.6431 100.845L80.6331 99.45ZM66.0798 116.04V114.435C66.0798 114.135 66.0848 113.79 66.0948 113.4C66.1148 113 66.1348 112.65 66.1548 112.35H66.0948C65.9348 112.62 65.7648 112.89 65.5848 113.16C65.4048 113.43 65.2298 113.7 65.0598 113.97L63.6198 116.04H66.0798ZM69.3348 117.72H68.1348V120H66.0798V117.72H61.4898V116.205L65.4648 110.475H68.1348V116.04H69.3348V117.72ZM72.719 118.425C72.719 118.175 72.759 117.945 72.839 117.735C72.929 117.515 73.049 117.325 73.199 117.165C73.349 117.005 73.529 116.88 73.739 116.79C73.959 116.7 74.199 116.655 74.459 116.655C74.719 116.655 74.954 116.7 75.164 116.79C75.384 116.88 75.569 117.005 75.719 117.165C75.869 117.325 75.984 117.515 76.064 117.735C76.154 117.945 76.199 118.175 76.199 118.425C76.199 118.925 76.039 119.345 75.719 119.685C75.399 120.015 74.979 120.18 74.459 120.18C73.939 120.18 73.519 120.015 73.199 119.685C72.879 119.345 72.719 118.925 72.719 118.425ZM80.6031 117.435C80.9231 117.715 81.2781 117.945 81.6681 118.125C82.0681 118.305 82.4881 118.395 82.9281 118.395C83.4481 118.395 83.8731 118.3 84.2031 118.11C84.5431 117.91 84.7131 117.63 84.7131 117.27C84.7131 117.06 84.6681 116.87 84.5781 116.7C84.4881 116.53 84.3331 116.39 84.1131 116.28C83.8931 116.16 83.5981 116.07 83.2281 116.01C82.8581 115.94 82.3931 115.905 81.8331 115.905V114.345C82.7731 114.345 83.4331 114.23 83.8131 114C84.2031 113.76 84.3981 113.45 84.3981 113.07C84.3981 112.74 84.2731 112.485 84.0231 112.305C83.7731 112.115 83.4281 112.02 82.9881 112.02C82.6081 112.02 82.2581 112.095 81.9381 112.245C81.6181 112.395 81.2931 112.6 80.9631 112.86L79.8531 111.51C80.3231 111.13 80.8231 110.835 81.3531 110.625C81.8931 110.405 82.4731 110.295 83.0931 110.295C83.6131 110.295 84.0881 110.355 84.5181 110.475C84.9481 110.585 85.3181 110.755 85.6281 110.985C85.9381 111.205 86.1781 111.475 86.3481 111.795C86.5181 112.115 86.6031 112.485 86.6031 112.905C86.6031 113.405 86.4431 113.83 86.1231 114.18C85.8031 114.52 85.3581 114.8 84.7881 115.02V115.08C85.3881 115.24 85.8931 115.515 86.3031 115.905C86.7131 116.285 86.9181 116.785 86.9181 117.405C86.9181 117.845 86.8131 118.24 86.6031 118.59C86.4031 118.93 86.1281 119.22 85.7781 119.46C85.4381 119.69 85.0381 119.87 84.5781 120C84.1181 120.12 83.6381 120.18 83.1381 120.18C82.3181 120.18 81.6131 120.06 81.0231 119.82C80.4331 119.57 79.9531 119.24 79.5831 118.83L80.6031 117.435Z" fill="#F0E442"/>
<rect x="298" y="32" width="242" height="184" fill="black"/>
<path d="M306.68 168.45C307 168.71 307.34 168.935 307.7 169.125C308.07 169.305 308.48 169.395 308.93 169.395C309.47 169.395 309.91 169.27 310.25 169.02C310.6 168.77 310.775 168.4 310.775 167.91C310.775 167.43 310.61 167.065 310.28 166.815C309.96 166.565 309.545 166.44 309.035 166.44C308.875 166.44 308.73 166.45 308.6 166.47C308.48 166.48 308.36 166.505 308.24 166.545C308.12 166.585 307.995 166.635 307.865 166.695C307.735 166.755 307.59 166.83 307.43 166.92L306.455 166.29L306.71 161.475H312.545V163.335H308.615L308.45 165.12C308.67 165.04 308.875 164.985 309.065 164.955C309.255 164.915 309.47 164.895 309.71 164.895C310.15 164.895 310.565 164.955 310.955 165.075C311.355 165.195 311.705 165.375 312.005 165.615C312.305 165.855 312.54 166.16 312.71 166.53C312.89 166.9 312.98 167.34 312.98 167.85C312.98 168.38 312.875 168.85 312.665 169.26C312.465 169.67 312.19 170.02 311.84 170.31C311.5 170.59 311.105 170.805 310.655 170.955C310.205 171.105 309.735 171.18 309.245 171.18C308.415 171.18 307.71 171.055 307.13 170.805C306.56 170.545 306.08 170.225 305.69 169.845L306.68 168.45ZM310.115 186.04V184.435C310.115 184.135 310.12 183.79 310.13 183.4C310.15 183 310.17 182.65 310.19 182.35H310.13C309.97 182.62 309.8 182.89 309.62 183.16C309.44 183.43 309.265 183.7 309.095 183.97L307.655 186.04H310.115ZM313.37 187.72H312.17V190H310.115V187.72H305.525V186.205L309.5 180.475H312.17V186.04H313.37V187.72ZM310.115 204.04V202.435C310.115 202.135 310.12 201.79 310.13 201.4C310.15 201 310.17 200.65 310.19 200.35H310.13C309.97 200.62 309.8 200.89 309.62 201.16C309.44 201.43 309.265 201.7 309.095 201.97L307.655 204.04H310.115ZM313.37 205.72H312.17V208H310.115V205.72H305.525V204.205L309.5 198.475H312.17V204.04H313.37V205.72Z" fill="white"/>
<path d="M309.5 152.18C308.92 152.18 308.385 152.065 307.895 151.835C307.415 151.595 307 151.255 306.65 150.815C306.31 150.375 306.045 149.84 305.855 149.21C305.665 148.58 305.57 147.865 305.57 147.065C305.57 146.265 305.665 145.555 305.855 144.935C306.045 144.305 306.31 143.78 306.65 143.36C307 142.93 307.415 142.605 307.895 142.385C308.385 142.155 308.92 142.04 309.5 142.04C310.08 142.04 310.61 142.155 311.09 142.385C311.58 142.605 311.995 142.93 312.335 143.36C312.685 143.79 312.955 144.32 313.145 144.95C313.335 145.57 313.43 146.275 313.43 147.065C313.43 147.865 313.335 148.58 313.145 149.21C312.955 149.84 312.685 150.375 312.335 150.815C311.995 151.255 311.58 151.595 311.09 151.835C310.61 152.065 310.08 152.18 309.5 152.18ZM309.5 150.275C310.01 150.275 310.415 149.99 310.715 149.42C311.015 148.84 311.165 148.055 311.165 147.065C311.165 146.085 311.015 145.32 310.715 144.77C310.415 144.22 310.01 143.945 309.5 143.945C308.99 143.945 308.585 144.22 308.285 144.77C307.985 145.32 307.835 146.085 307.835 147.065C307.835 148.055 307.985 148.84 308.285 149.42C308.585 149.99 308.99 150.275 309.5 150.275ZM321.869 152H320.069L319.904 150.935H319.844C319.514 151.315 319.149 151.62 318.749 151.85C318.349 152.07 317.879 152.18 317.339 152.18C316.489 152.18 315.874 151.91 315.494 151.37C315.114 150.83 314.924 150.09 314.924 149.15V144.56H317.129V148.865C317.129 149.365 317.204 149.73 317.354 149.96C317.504 150.19 317.789 150.305 318.209 150.305C318.489 150.305 318.734 150.245 318.944 150.125C319.164 150.005 319.404 149.78 319.664 149.45V144.56H321.869V152ZM325.598 146.285H323.723V144.65L325.703 144.56L325.988 142.58H327.803V144.56H330.953V146.285H327.803V148.895C327.803 149.465 327.928 149.87 328.178 150.11C328.428 150.34 328.823 150.455 329.363 150.455C329.653 150.455 329.918 150.43 330.158 150.38C330.398 150.33 330.628 150.265 330.848 150.185L331.238 151.775C330.908 151.875 330.538 151.965 330.128 152.045C329.728 152.135 329.288 152.18 328.808 152.18C328.218 152.18 327.718 152.1 327.308 151.94C326.898 151.78 326.563 151.56 326.303 151.28C326.053 150.99 325.873 150.645 325.763 150.245C325.653 149.845 325.598 149.4 325.598 148.91V146.285ZM335.267 152.585V154.76H333.062V144.56H334.862L335.027 145.31H335.072C335.372 145.04 335.717 144.82 336.107 144.65C336.497 144.47 336.892 144.38 337.292 144.38C337.752 144.38 338.167 144.47 338.537 144.65C338.907 144.83 339.222 145.085 339.482 145.415C339.742 145.745 339.937 146.145 340.067 146.615C340.207 147.075 340.277 147.59 340.277 148.16C340.277 148.8 340.187 149.37 340.007 149.87C339.827 150.36 339.587 150.78 339.287 151.13C338.987 151.47 338.642 151.73 338.252 151.91C337.872 152.09 337.472 152.18 337.052 152.18C336.372 152.18 335.752 151.91 335.192 151.37L335.267 152.585ZM335.267 149.885C335.477 150.065 335.692 150.195 335.912 150.275C336.142 150.345 336.352 150.38 336.542 150.38C336.962 150.38 337.312 150.21 337.592 149.87C337.872 149.52 338.012 148.96 338.012 148.19C338.012 146.85 337.557 146.18 336.647 146.18C336.177 146.18 335.717 146.41 335.267 146.87V149.885ZM348.852 152H347.052L346.887 150.935H346.827C346.497 151.315 346.132 151.62 345.732 151.85C345.332 152.07 344.862 152.18 344.322 152.18C343.472 152.18 342.857 151.91 342.477 151.37C342.097 150.83 341.907 150.09 341.907 149.15V144.56H344.112V148.865C344.112 149.365 344.187 149.73 344.337 149.96C344.487 150.19 344.772 150.305 345.192 150.305C345.472 150.305 345.717 150.245 345.927 150.125C346.147 150.005 346.387 149.78 346.647 149.45V144.56H348.852V152ZM352.581 146.285H350.706V144.65L352.686 144.56L352.971 142.58H354.786V144.56H357.936V146.285H354.786V148.895C354.786 149.465 354.911 149.87 355.161 150.11C355.411 150.34 355.806 150.455 356.346 150.455C356.636 150.455 356.901 150.43 357.141 150.38C357.381 150.33 357.611 150.265 357.831 150.185L358.221 151.775C357.891 151.875 357.521 151.965 357.111 152.045C356.711 152.135 356.271 152.18 355.791 152.18C355.201 152.18 354.701 152.1 354.291 151.94C353.881 151.78 353.546 151.56 353.286 151.28C353.036 150.99 352.856 150.645 352.746 150.245C352.636 149.845 352.581 149.4 352.581 148.91V146.285Z" fill="white"/>
<rect x="394.75" y="32" width="145.25" height="30.6018" fill="#333333"/>
<rect x="394.75" y="32" width="145.25" height="30.6018" fill="#333333"/>
<rect x="298" y="32" width="97.1974" height="30.6018" fill="#090808"/>
<path d="M316.105 49.8101C316.105 49.5513 315.976 49.3486 315.717 49.2021C315.463 49.0508 315.053 48.9165 314.486 48.7993C312.602 48.4038 311.659 47.603 311.659 46.397C311.659 45.6938 311.95 45.1079 312.531 44.6392C313.117 44.1655 313.881 43.9287 314.823 43.9287C315.829 43.9287 316.632 44.1655 317.233 44.6392C317.838 45.1128 318.141 45.728 318.141 46.4849H316.024C316.024 46.1821 315.927 45.9331 315.731 45.7378C315.536 45.5376 315.231 45.4375 314.816 45.4375C314.459 45.4375 314.184 45.5181 313.988 45.6792C313.793 45.8403 313.695 46.0454 313.695 46.2944C313.695 46.5288 313.805 46.7192 314.025 46.8657C314.25 47.0073 314.625 47.1318 315.153 47.2393C315.68 47.3418 316.125 47.459 316.486 47.5908C317.604 48.001 318.163 48.7114 318.163 49.7222C318.163 50.4448 317.853 51.0308 317.233 51.48C316.613 51.9243 315.812 52.1465 314.831 52.1465C314.167 52.1465 313.576 52.0293 313.058 51.7949C312.545 51.5557 312.143 51.231 311.85 50.8208C311.557 50.4058 311.41 49.959 311.41 49.4805H313.417C313.437 49.8564 313.576 50.1445 313.834 50.3447C314.093 50.5449 314.44 50.645 314.875 50.645C315.28 50.645 315.585 50.5693 315.79 50.418C316 50.2617 316.105 50.0591 316.105 49.8101ZM322.829 50.4399C323.219 50.4399 323.537 50.3325 323.781 50.1177C324.025 49.9028 324.152 49.6172 324.162 49.2607H326.146C326.142 49.7979 325.995 50.291 325.707 50.7402C325.419 51.1846 325.023 51.5312 324.521 51.7803C324.022 52.0244 323.471 52.1465 322.865 52.1465C321.732 52.1465 320.839 51.7876 320.185 51.0698C319.53 50.3472 319.203 49.3511 319.203 48.0815V47.9424C319.203 46.7217 319.528 45.7476 320.177 45.02C320.827 44.2925 321.718 43.9287 322.851 43.9287C323.842 43.9287 324.635 44.2119 325.231 44.7783C325.832 45.3398 326.137 46.0894 326.146 47.0269H324.162C324.152 46.6167 324.025 46.2847 323.781 46.0308C323.537 45.772 323.214 45.6426 322.814 45.6426C322.321 45.6426 321.947 45.8232 321.693 46.1846C321.444 46.541 321.32 47.1221 321.32 47.9277V48.1475C321.32 48.9629 321.444 49.5488 321.693 49.9053C321.942 50.2617 322.321 50.4399 322.829 50.4399ZM331.808 46.0601C331.52 46.021 331.266 46.0015 331.046 46.0015C330.246 46.0015 329.721 46.2725 329.472 46.8145V52H327.355V44.0752H329.354L329.413 45.02C329.838 44.2925 330.426 43.9287 331.178 43.9287C331.413 43.9287 331.632 43.9604 331.837 44.0239L331.808 46.0601ZM335.067 52H332.943V44.0752H335.067V52ZM332.819 42.0244C332.819 41.707 332.924 41.4458 333.134 41.2407C333.349 41.0356 333.639 40.9331 334.005 40.9331C334.367 40.9331 334.655 41.0356 334.87 41.2407C335.084 41.4458 335.192 41.707 335.192 42.0244C335.192 42.3467 335.082 42.6104 334.862 42.8154C334.647 43.0205 334.362 43.123 334.005 43.123C333.649 43.123 333.361 43.0205 333.141 42.8154C332.926 42.6104 332.819 42.3467 332.819 42.0244ZM343.952 48.1108C343.952 49.3315 343.673 50.3105 343.117 51.0479C342.565 51.7803 341.818 52.1465 340.875 52.1465C340.075 52.1465 339.428 51.8682 338.935 51.3115V55.0469H336.818V44.0752H338.781L338.854 44.8516C339.367 44.2363 340.036 43.9287 340.861 43.9287C341.837 43.9287 342.597 44.29 343.139 45.0127C343.681 45.7354 343.952 46.7314 343.952 48.001V48.1108ZM341.835 47.957C341.835 47.2197 341.703 46.6509 341.439 46.2505C341.181 45.8501 340.802 45.6499 340.304 45.6499C339.64 45.6499 339.184 45.9038 338.935 46.4116V49.6562C339.193 50.1787 339.655 50.4399 340.319 50.4399C341.33 50.4399 341.835 49.6123 341.835 47.957ZM347.804 42.127V44.0752H349.159V45.6279H347.804V49.583C347.804 49.876 347.86 50.0859 347.973 50.2129C348.085 50.3398 348.3 50.4033 348.617 50.4033C348.852 50.4033 349.059 50.3862 349.24 50.3521V51.9561C348.825 52.083 348.397 52.1465 347.958 52.1465C346.474 52.1465 345.717 51.397 345.688 49.8979V45.6279H344.53V44.0752H345.688V42.127H347.804ZM350.448 50.96C350.448 50.623 350.561 50.3496 350.785 50.1396C351.015 49.9297 351.3 49.8247 351.642 49.8247C351.989 49.8247 352.274 49.9297 352.499 50.1396C352.729 50.3496 352.843 50.623 352.843 50.96C352.843 51.292 352.731 51.563 352.506 51.7729C352.282 51.978 351.994 52.0806 351.642 52.0806C351.295 52.0806 351.01 51.978 350.785 51.7729C350.561 51.563 350.448 51.292 350.448 50.96ZM361.837 48.1108C361.837 49.3315 361.559 50.3105 361.002 51.0479C360.451 51.7803 359.704 52.1465 358.761 52.1465C357.96 52.1465 357.313 51.8682 356.82 51.3115V55.0469H354.704V44.0752H356.667L356.74 44.8516C357.252 44.2363 357.921 43.9287 358.747 43.9287C359.723 43.9287 360.482 44.29 361.024 45.0127C361.566 45.7354 361.837 46.7314 361.837 48.001V48.1108ZM359.721 47.957C359.721 47.2197 359.589 46.6509 359.325 46.2505C359.066 45.8501 358.688 45.6499 358.19 45.6499C357.526 45.6499 357.069 45.9038 356.82 46.4116V49.6562C357.079 50.1787 357.541 50.4399 358.205 50.4399C359.215 50.4399 359.721 49.6123 359.721 47.957ZM366.027 49.0044L367.492 44.0752H369.762L366.576 53.2305L366.4 53.6479C365.927 54.6831 365.146 55.2007 364.057 55.2007C363.749 55.2007 363.437 55.1543 363.119 55.0615V53.4575L363.441 53.4648C363.842 53.4648 364.14 53.4038 364.335 53.2817C364.535 53.1597 364.691 52.957 364.804 52.6738L365.053 52.022L362.277 44.0752H364.555L366.027 49.0044Z" fill="white"/>
<line x1="298" y1="131.54" x2="540" y2="131.54" stroke="white"/>
<path d="M308.285 83.585V85.76H306.08V75.56H307.88L308.045 76.31H308.09C308.39 76.04 308.735 75.82 309.125 75.65C309.515 75.47 309.91 75.38 310.31 75.38C310.77 75.38 311.185 75.47 311.555 75.65C311.925 75.83 312.24 76.085 312.5 76.415C312.76 76.745 312.955 77.145 313.085 77.615C313.225 78.075 313.295 78.59 313.295 79.16C313.295 79.8 313.205 80.37 313.025 80.87C312.845 81.36 312.605 81.78 312.305 82.13C312.005 82.47 311.66 82.73 311.27 82.91C310.89 83.09 310.49 83.18 310.07 83.18C309.39 83.18 308.77 82.91 308.21 82.37L308.285 83.585ZM308.285 80.885C308.495 81.065 308.71 81.195 308.93 81.275C309.16 81.345 309.37 81.38 309.56 81.38C309.98 81.38 310.33 81.21 310.61 80.87C310.89 80.52 311.03 79.96 311.03 79.19C311.03 77.85 310.575 77.18 309.665 77.18C309.195 77.18 308.735 77.41 308.285 77.87V80.885ZM315.734 75.56H317.534L317.714 77.18H317.759C318.129 76.57 318.574 76.12 319.094 75.83C319.614 75.53 320.174 75.38 320.774 75.38C321.104 75.38 321.369 75.405 321.569 75.455C321.779 75.505 321.994 75.58 322.214 75.68L321.764 77.525C321.534 77.455 321.324 77.405 321.134 77.375C320.954 77.335 320.724 77.315 320.444 77.315C319.984 77.315 319.529 77.45 319.079 77.72C318.639 77.99 318.259 78.46 317.939 79.13V83H315.734V75.56ZM324.173 75.56H329.363V83H327.158V77.285H324.173V75.56ZM328.163 74.465C327.733 74.465 327.378 74.345 327.098 74.105C326.828 73.865 326.693 73.54 326.693 73.13C326.693 72.72 326.828 72.39 327.098 72.14C327.378 71.88 327.733 71.75 328.163 71.75C328.593 71.75 328.943 71.88 329.213 72.14C329.493 72.39 329.633 72.72 329.633 73.13C329.633 73.54 329.493 73.865 329.213 74.105C328.943 74.345 328.593 74.465 328.163 74.465ZM333.062 75.56H334.862L335.027 76.55H335.087C335.407 76.23 335.772 75.955 336.182 75.725C336.602 75.495 337.092 75.38 337.652 75.38C338.492 75.38 339.107 75.65 339.497 76.19C339.887 76.73 340.082 77.47 340.082 78.41V83H337.877V78.695C337.877 78.195 337.797 77.83 337.637 77.6C337.477 77.37 337.192 77.255 336.782 77.255C336.482 77.255 336.217 77.32 335.987 77.45C335.767 77.58 335.527 77.775 335.267 78.035V83H333.062V75.56ZM343.587 77.285H341.712V75.65L343.692 75.56L343.977 73.58H345.792V75.56H348.942V77.285H345.792V79.895C345.792 80.465 345.917 80.87 346.167 81.11C346.417 81.34 346.812 81.455 347.352 81.455C347.642 81.455 347.907 81.43 348.147 81.38C348.387 81.33 348.617 81.265 348.837 81.185L349.227 82.775C348.897 82.875 348.527 82.965 348.117 83.045C347.717 83.135 347.277 83.18 346.797 83.18C346.207 83.18 345.707 83.1 345.297 82.94C344.887 82.78 344.552 82.56 344.292 82.28C344.042 81.99 343.862 81.645 343.752 81.245C343.642 80.845 343.587 80.4 343.587 79.91V77.285ZM360.705 75.56H362.505L362.685 77.18H362.73C363.1 76.57 363.545 76.12 364.065 75.83C364.585 75.53 365.145 75.38 365.745 75.38C366.075 75.38 366.34 75.405 366.54 75.455C366.75 75.505 366.965 75.58 367.185 75.68L366.735 77.525C366.505 77.455 366.295 77.405 366.105 77.375C365.925 77.335 365.695 77.315 365.415 77.315C364.955 77.315 364.5 77.45 364.05 77.72C363.61 77.99 363.23 78.46 362.91 79.13V83H360.705V75.56ZM368.664 79.28C368.664 78.66 368.769 78.11 368.979 77.63C369.189 77.14 369.469 76.73 369.819 76.4C370.179 76.07 370.584 75.82 371.034 75.65C371.494 75.47 371.969 75.38 372.459 75.38C372.949 75.38 373.419 75.47 373.869 75.65C374.329 75.82 374.734 76.07 375.084 76.4C375.444 76.73 375.729 77.14 375.939 77.63C376.149 78.11 376.254 78.66 376.254 79.28C376.254 79.9 376.149 80.455 375.939 80.945C375.729 81.425 375.444 81.83 375.084 82.16C374.734 82.49 374.329 82.745 373.869 82.925C373.419 83.095 372.949 83.18 372.459 83.18C371.969 83.18 371.494 83.095 371.034 82.925C370.584 82.745 370.179 82.49 369.819 82.16C369.469 81.83 369.189 81.425 368.979 80.945C368.769 80.455 368.664 79.9 368.664 79.28ZM370.929 79.28C370.929 79.93 371.054 80.445 371.304 80.825C371.564 81.205 371.949 81.395 372.459 81.395C372.969 81.395 373.349 81.205 373.599 80.825C373.859 80.445 373.989 79.93 373.989 79.28C373.989 78.63 373.859 78.115 373.599 77.735C373.349 77.355 372.969 77.165 372.459 77.165C371.949 77.165 371.564 77.355 371.304 77.735C371.054 78.115 370.929 78.63 370.929 79.28ZM384.828 83H383.028L382.863 81.935H382.803C382.473 82.315 382.108 82.62 381.708 82.85C381.308 83.07 380.838 83.18 380.298 83.18C379.448 83.18 378.833 82.91 378.453 82.37C378.073 81.83 377.883 81.09 377.883 80.15V75.56H380.088V79.865C380.088 80.365 380.163 80.73 380.313 80.96C380.463 81.19 380.748 81.305 381.168 81.305C381.448 81.305 381.693 81.245 381.903 81.125C382.123 81.005 382.363 80.78 382.623 80.45V75.56H384.828V83ZM387.027 75.56H388.827L388.992 76.55H389.052C389.372 76.23 389.737 75.955 390.147 75.725C390.567 75.495 391.057 75.38 391.617 75.38C392.457 75.38 393.072 75.65 393.462 76.19C393.852 76.73 394.047 77.47 394.047 78.41V83H391.842V78.695C391.842 78.195 391.762 77.83 391.602 77.6C391.442 77.37 391.157 77.255 390.747 77.255C390.447 77.255 390.182 77.32 389.952 77.45C389.732 77.58 389.492 77.775 389.232 78.035V83H387.027V75.56ZM395.646 79.28C395.646 78.67 395.736 78.125 395.916 77.645C396.096 77.165 396.331 76.76 396.621 76.43C396.921 76.09 397.261 75.83 397.641 75.65C398.021 75.47 398.416 75.38 398.826 75.38C399.256 75.38 399.616 75.455 399.906 75.605C400.196 75.745 400.471 75.935 400.731 76.175L400.656 75.02V72.485H402.861V83H401.061L400.896 82.235H400.851C400.571 82.505 400.251 82.73 399.891 82.91C399.531 83.09 399.161 83.18 398.781 83.18C398.311 83.18 397.881 83.09 397.491 82.91C397.111 82.73 396.781 82.475 396.501 82.145C396.231 81.805 396.021 81.395 395.871 80.915C395.721 80.435 395.646 79.89 395.646 79.28ZM397.911 79.25C397.911 79.99 398.036 80.53 398.286 80.87C398.536 81.21 398.891 81.38 399.351 81.38C399.601 81.38 399.831 81.33 400.041 81.23C400.251 81.12 400.456 80.94 400.656 80.69V77.675C400.456 77.495 400.251 77.37 400.041 77.3C399.841 77.22 399.631 77.18 399.411 77.18C399.001 77.18 398.646 77.35 398.346 77.69C398.056 78.03 397.911 78.55 397.911 79.25ZM308.285 102.585V104.76H306.08V94.56H307.88L308.045 95.31H308.09C308.39 95.04 308.735 94.82 309.125 94.65C309.515 94.47 309.91 94.38 310.31 94.38C310.77 94.38 311.185 94.47 311.555 94.65C311.925 94.83 312.24 95.085 312.5 95.415C312.76 95.745 312.955 96.145 313.085 96.615C313.225 97.075 313.295 97.59 313.295 98.16C313.295 98.8 313.205 99.37 313.025 99.87C312.845 100.36 312.605 100.78 312.305 101.13C312.005 101.47 311.66 101.73 311.27 101.91C310.89 102.09 310.49 102.18 310.07 102.18C309.39 102.18 308.77 101.91 308.21 101.37L308.285 102.585ZM308.285 99.885C308.495 100.065 308.71 100.195 308.93 100.275C309.16 100.345 309.37 100.38 309.56 100.38C309.98 100.38 310.33 100.21 310.61 99.87C310.89 99.52 311.03 98.96 311.03 98.19C311.03 96.85 310.575 96.18 309.665 96.18C309.195 96.18 308.735 96.41 308.285 96.87V99.885ZM315.734 94.56H317.534L317.714 96.18H317.759C318.129 95.57 318.574 95.12 319.094 94.83C319.614 94.53 320.174 94.38 320.774 94.38C321.104 94.38 321.369 94.405 321.569 94.455C321.779 94.505 321.994 94.58 322.214 94.68L321.764 96.525C321.534 96.455 321.324 96.405 321.134 96.375C320.954 96.335 320.724 96.315 320.444 96.315C319.984 96.315 319.529 96.45 319.079 96.72C318.639 96.99 318.259 97.46 317.939 98.13V102H315.734V94.56ZM324.173 94.56H329.363V102H327.158V96.285H324.173V94.56ZM328.163 93.465C327.733 93.465 327.378 93.345 327.098 93.105C326.828 92.865 326.693 92.54 326.693 92.13C326.693 91.72 326.828 91.39 327.098 91.14C327.378 90.88 327.733 90.75 328.163 90.75C328.593 90.75 328.943 90.88 329.213 91.14C329.493 91.39 329.633 91.72 329.633 92.13C329.633 92.54 329.493 92.865 329.213 93.105C328.943 93.345 328.593 93.465 328.163 93.465ZM333.062 94.56H334.862L335.027 95.55H335.087C335.407 95.23 335.772 94.955 336.182 94.725C336.602 94.495 337.092 94.38 337.652 94.38C338.492 94.38 339.107 94.65 339.497 95.19C339.887 95.73 340.082 96.47 340.082 97.41V102H337.877V97.695C337.877 97.195 337.797 96.83 337.637 96.6C337.477 96.37 337.192 96.255 336.782 96.255C336.482 96.255 336.217 96.32 335.987 96.45C335.767 96.58 335.527 96.775 335.267 97.035V102H333.062V94.56ZM343.587 96.285H341.712V94.65L343.692 94.56L343.977 92.58H345.792V94.56H348.942V96.285H345.792V98.895C345.792 99.465 345.917 99.87 346.167 100.11C346.417 100.34 346.812 100.455 347.352 100.455C347.642 100.455 347.907 100.43 348.147 100.38C348.387 100.33 348.617 100.265 348.837 100.185L349.227 101.775C348.897 101.875 348.527 101.965 348.117 102.045C347.717 102.135 347.277 102.18 346.797 102.18C346.207 102.18 345.707 102.1 345.297 101.94C344.887 101.78 344.552 101.56 344.292 101.28C344.042 100.99 343.862 100.645 343.752 100.245C343.642 99.845 343.587 99.4 343.587 98.91V96.285ZM360.705 94.56H362.505L362.685 96.18H362.73C363.1 95.57 363.545 95.12 364.065 94.83C364.585 94.53 365.145 94.38 365.745 94.38C366.075 94.38 366.34 94.405 366.54 94.455C366.75 94.505 366.965 94.58 367.185 94.68L366.735 96.525C366.505 96.455 366.295 96.405 366.105 96.375C365.925 96.335 365.695 96.315 365.415 96.315C364.955 96.315 364.5 96.45 364.05 96.72C363.61 96.99 363.23 97.46 362.91 98.13V102H360.705V94.56ZM368.664 98.28C368.664 97.66 368.769 97.11 368.979 96.63C369.189 96.14 369.469 95.73 369.819 95.4C370.179 95.07 370.584 94.82 371.034 94.65C371.494 94.47 371.969 94.38 372.459 94.38C372.949 94.38 373.419 94.47 373.869 94.65C374.329 94.82 374.734 95.07 375.084 95.4C375.444 95.73 375.729 96.14 375.939 96.63C376.149 97.11 376.254 97.66 376.254 98.28C376.254 98.9 376.149 99.455 375.939 99.945C375.729 100.425 375.444 100.83 375.084 101.16C374.734 101.49 374.329 101.745 373.869 101.925C373.419 102.095 372.949 102.18 372.459 102.18C371.969 102.18 371.494 102.095 371.034 101.925C370.584 101.745 370.179 101.49 369.819 101.16C369.469 100.83 369.189 100.425 368.979 99.945C368.769 99.455 368.664 98.9 368.664 98.28ZM370.929 98.28C370.929 98.93 371.054 99.445 371.304 99.825C371.564 100.205 371.949 100.395 372.459 100.395C372.969 100.395 373.349 100.205 373.599 99.825C373.859 99.445 373.989 98.93 373.989 98.28C373.989 97.63 373.859 97.115 373.599 96.735C373.349 96.355 372.969 96.165 372.459 96.165C371.949 96.165 371.564 96.355 371.304 96.735C371.054 97.115 370.929 97.63 370.929 98.28ZM384.828 102H383.028L382.863 100.935H382.803C382.473 101.315 382.108 101.62 381.708 101.85C381.308 102.07 380.838 102.18 380.298 102.18C379.448 102.18 378.833 101.91 378.453 101.37C378.073 100.83 377.883 100.09 377.883 99.15V94.56H380.088V98.865C380.088 99.365 380.163 99.73 380.313 99.96C380.463 100.19 380.748 100.305 381.168 100.305C381.448 100.305 381.693 100.245 381.903 100.125C382.123 100.005 382.363 99.78 382.623 99.45V94.56H384.828V102ZM387.027 94.56H388.827L388.992 95.55H389.052C389.372 95.23 389.737 94.955 390.147 94.725C390.567 94.495 391.057 94.38 391.617 94.38C392.457 94.38 393.072 94.65 393.462 95.19C393.852 95.73 394.047 96.47 394.047 97.41V102H391.842V97.695C391.842 97.195 391.762 96.83 391.602 96.6C391.442 96.37 391.157 96.255 390.747 96.255C390.447 96.255 390.182 96.32 389.952 96.45C389.732 96.58 389.492 96.775 389.232 97.035V102H387.027V94.56ZM395.646 98.28C395.646 97.67 395.736 97.125 395.916 96.645C396.096 96.165 396.331 95.76 396.621 95.43C396.921 95.09 397.261 94.83 397.641 94.65C398.021 94.47 398.416 94.38 398.826 94.38C399.256 94.38 399.616 94.455 399.906 94.605C400.196 94.745 400.471 94.935 400.731 95.175L400.656 94.02V91.485H402.861V102H401.061L400.896 101.235H400.851C400.571 101.505 400.251 101.73 399.891 101.91C399.531 102.09 399.161 102.18 398.781 102.18C398.311 102.18 397.881 102.09 397.491 101.91C397.111 101.73 396.781 101.475 396.501 101.145C396.231 100.805 396.021 100.395 395.871 99.915C395.721 99.435 395.646 98.89 395.646 98.28ZM397.911 98.25C397.911 98.99 398.036 99.53 398.286 99.87C398.536 100.21 398.891 100.38 399.351 100.38C399.601 100.38 399.831 100.33 400.041 100.23C400.251 100.12 400.456 99.94 400.656 99.69V96.675C400.456 96.495 400.251 96.37 400.041 96.3C399.841 96.22 399.631 96.18 399.411 96.18C399.001 96.18 398.646 96.35 398.346 96.69C398.056 97.03 397.911 97.55 397.911 98.25ZM308.285 120.585V122.76H306.08V112.56H307.88L308.045 113.31H308.09C308.39 113.04 308.735 112.82 309.125 112.65C309.515 112.47 309.91 112.38 310.31 112.38C310.77 112.38 311.185 112.47 311.555 112.65C311.925 112.83 312.24 113.085 312.5 113.415C312.76 113.745 312.955 114.145 313.085 114.615C313.225 115.075 313.295 115.59 313.295 116.16C313.295 116.8 313.205 117.37 313.025 117.87C312.845 118.36 312.605 118.78 312.305 119.13C312.005 119.47 311.66 119.73 311.27 119.91C310.89 120.09 310.49 120.18 310.07 120.18C309.39 120.18 308.77 119.91 308.21 119.37L308.285 120.585ZM308.285 117.885C308.495 118.065 308.71 118.195 308.93 118.275C309.16 118.345 309.37 118.38 309.56 118.38C309.98 118.38 310.33 118.21 310.61 117.87C310.89 117.52 311.03 116.96 311.03 116.19C311.03 114.85 310.575 114.18 309.665 114.18C309.195 114.18 308.735 114.41 308.285 114.87V117.885ZM315.734 112.56H317.534L317.714 114.18H317.759C318.129 113.57 318.574 113.12 319.094 112.83C319.614 112.53 320.174 112.38 320.774 112.38C321.104 112.38 321.369 112.405 321.569 112.455C321.779 112.505 321.994 112.58 322.214 112.68L321.764 114.525C321.534 114.455 321.324 114.405 321.134 114.375C320.954 114.335 320.724 114.315 320.444 114.315C319.984 114.315 319.529 114.45 319.079 114.72C318.639 114.99 318.259 115.46 317.939 116.13V120H315.734V112.56ZM324.173 112.56H329.363V120H327.158V114.285H324.173V112.56ZM328.163 111.465C327.733 111.465 327.378 111.345 327.098 111.105C326.828 110.865 326.693 110.54 326.693 110.13C326.693 109.72 326.828 109.39 327.098 109.14C327.378 108.88 327.733 108.75 328.163 108.75C328.593 108.75 328.943 108.88 329.213 109.14C329.493 109.39 329.633 109.72 329.633 110.13C329.633 110.54 329.493 110.865 329.213 111.105C328.943 111.345 328.593 111.465 328.163 111.465ZM333.062 112.56H334.862L335.027 113.55H335.087C335.407 113.23 335.772 112.955 336.182 112.725C336.602 112.495 337.092 112.38 337.652 112.38C338.492 112.38 339.107 112.65 339.497 113.19C339.887 113.73 340.082 114.47 340.082 115.41V120H337.877V115.695C337.877 115.195 337.797 114.83 337.637 114.6C337.477 114.37 337.192 114.255 336.782 114.255C336.482 114.255 336.217 114.32 335.987 114.45C335.767 114.58 335.527 114.775 335.267 115.035V120H333.062V112.56ZM343.587 114.285H341.712V112.65L343.692 112.56L343.977 110.58H345.792V112.56H348.942V114.285H345.792V116.895C345.792 117.465 345.917 117.87 346.167 118.11C346.417 118.34 346.812 118.455 347.352 118.455C347.642 118.455 347.907 118.43 348.147 118.38C348.387 118.33 348.617 118.265 348.837 118.185L349.227 119.775C348.897 119.875 348.527 119.965 348.117 120.045C347.717 120.135 347.277 120.18 346.797 120.18C346.207 120.18 345.707 120.1 345.297 119.94C344.887 119.78 344.552 119.56 344.292 119.28C344.042 118.99 343.862 118.645 343.752 118.245C343.642 117.845 343.587 117.4 343.587 116.91V114.285ZM360.705 112.56H362.505L362.685 114.18H362.73C363.1 113.57 363.545 113.12 364.065 112.83C364.585 112.53 365.145 112.38 365.745 112.38C366.075 112.38 366.34 112.405 366.54 112.455C366.75 112.505 366.965 112.58 367.185 112.68L366.735 114.525C366.505 114.455 366.295 114.405 366.105 114.375C365.925 114.335 365.695 114.315 365.415 114.315C364.955 114.315 364.5 114.45 364.05 114.72C363.61 114.99 363.23 115.46 362.91 116.13V120H360.705V112.56ZM368.664 116.28C368.664 115.66 368.769 115.11 368.979 114.63C369.189 114.14 369.469 113.73 369.819 113.4C370.179 113.07 370.584 112.82 371.034 112.65C371.494 112.47 371.969 112.38 372.459 112.38C372.949 112.38 373.419 112.47 373.869 112.65C374.329 112.82 374.734 113.07 375.084 113.4C375.444 113.73 375.729 114.14 375.939 114.63C376.149 115.11 376.254 115.66 376.254 116.28C376.254 116.9 376.149 117.455 375.939 117.945C375.729 118.425 375.444 118.83 375.084 119.16C374.734 119.49 374.329 119.745 373.869 119.925C373.419 120.095 372.949 120.18 372.459 120.18C371.969 120.18 371.494 120.095 371.034 119.925C370.584 119.745 370.179 119.49 369.819 119.16C369.469 118.83 369.189 118.425 368.979 117.945C368.769 117.455 368.664 116.9 368.664 116.28ZM370.929 116.28C370.929 116.93 371.054 117.445 371.304 117.825C371.564 118.205 371.949 118.395 372.459 118.395C372.969 118.395 373.349 118.205 373.599 117.825C373.859 117.445 373.989 116.93 373.989 116.28C373.989 115.63 373.859 115.115 373.599 114.735C373.349 114.355 372.969 114.165 372.459 114.165C371.949 114.165 371.564 114.355 371.304 114.735C371.054 115.115 370.929 115.63 370.929 116.28ZM384.828 120H383.028L382.863 118.935H382.803C382.473 119.315 382.108 119.62 381.708 119.85C381.308 120.07 380.838 120.18 380.298 120.18C379.448 120.18 378.833 119.91 378.453 119.37C378.073 118.83 377.883 118.09 377.883 117.15V112.56H380.088V116.865C380.088 117.365 380.163 117.73 380.313 117.96C380.463 118.19 380.748 118.305 381.168 118.305C381.448 118.305 381.693 118.245 381.903 118.125C382.123 118.005 382.363 117.78 382.623 117.45V112.56H384.828V120ZM387.027 112.56H388.827L388.992 113.55H389.052C389.372 113.23 389.737 112.955 390.147 112.725C390.567 112.495 391.057 112.38 391.617 112.38C392.457 112.38 393.072 112.65 393.462 113.19C393.852 113.73 394.047 114.47 394.047 115.41V120H391.842V115.695C391.842 115.195 391.762 114.83 391.602 114.6C391.442 114.37 391.157 114.255 390.747 114.255C390.447 114.255 390.182 114.32 389.952 114.45C389.732 114.58 389.492 114.775 389.232 115.035V120H387.027V112.56ZM395.646 116.28C395.646 115.67 395.736 115.125 395.916 114.645C396.096 114.165 396.331 113.76 396.621 113.43C396.921 113.09 397.261 112.83 397.641 112.65C398.021 112.47 398.416 112.38 398.826 112.38C399.256 112.38 399.616 112.455 399.906 112.605C400.196 112.745 400.471 112.935 400.731 113.175L400.656 112.02V109.485H402.861V120H401.061L400.896 119.235H400.851C400.571 119.505 400.251 119.73 399.891 119.91C399.531 120.09 399.161 120.18 398.781 120.18C398.311 120.18 397.881 120.09 397.491 119.91C397.111 119.73 396.781 119.475 396.501 119.145C396.231 118.805 396.021 118.395 395.871 117.915C395.721 117.435 395.646 116.89 395.646 116.28ZM397.911 116.25C397.911 116.99 398.036 117.53 398.286 117.87C398.536 118.21 398.891 118.38 399.351 118.38C399.601 118.38 399.831 118.33 400.041 118.23C400.251 118.12 400.456 117.94 400.656 117.69V114.675C400.456 114.495 400.251 114.37 400.041 114.3C399.841 114.22 399.631 114.18 399.411 114.18C399.001 114.18 398.646 114.35 398.346 114.69C398.056 115.03 397.911 115.55 397.911 116.25Z" fill="#56B4E9"/>
<path d="M355.851 85.685C354.871 84.815 354.096 83.81 353.526 82.67C352.966 81.53 352.686 80.25 352.686 78.83C352.686 77.41 352.966 76.13 353.526 74.99C354.096 73.85 354.871 72.845 355.851 71.975L357.081 72.95C356.191 73.82 355.541 74.725 355.131 75.665C354.731 76.595 354.531 77.65 354.531 78.83C354.531 79.42 354.581 79.98 354.681 80.51C354.781 81.03 354.931 81.53 355.131 82.01C355.341 82.49 355.606 82.95 355.926 83.39C356.246 83.84 356.631 84.28 357.081 84.71L355.851 85.685ZM409.816 85.685C408.836 84.815 408.061 83.81 407.491 82.67C406.931 81.53 406.651 80.25 406.651 78.83C406.651 77.41 406.931 76.13 407.491 74.99C408.061 73.85 408.836 72.845 409.816 71.975L411.046 72.95C410.156 73.82 409.506 74.725 409.096 75.665C408.696 76.595 408.496 77.65 408.496 78.83C408.496 79.42 408.546 79.98 408.646 80.51C408.746 81.03 408.896 81.53 409.096 82.01C409.306 82.49 409.571 82.95 409.891 83.39C410.211 83.84 410.596 84.28 411.046 84.71L409.816 85.685ZM450.796 84.71C451.246 84.28 451.631 83.84 451.951 83.39C452.271 82.95 452.531 82.49 452.731 82.01C452.941 81.53 453.096 81.03 453.196 80.51C453.296 79.98 453.346 79.42 453.346 78.83C453.346 77.65 453.141 76.595 452.731 75.665C452.331 74.725 451.686 73.82 450.796 72.95L452.026 71.975C453.006 72.845 453.776 73.85 454.336 74.99C454.906 76.13 455.191 77.41 455.191 78.83C455.191 80.25 454.906 81.53 454.336 82.67C453.776 83.81 453.006 84.815 452.026 85.685L450.796 84.71ZM459.79 84.71C460.24 84.28 460.625 83.84 460.945 83.39C461.265 82.95 461.525 82.49 461.725 82.01C461.935 81.53 462.09 81.03 462.19 80.51C462.29 79.98 462.34 79.42 462.34 78.83C462.34 77.65 462.135 76.595 461.725 75.665C461.325 74.725 460.68 73.82 459.79 72.95L461.02 71.975C462 72.845 462.77 73.85 463.33 74.99C463.9 76.13 464.185 77.41 464.185 78.83C464.185 80.25 463.9 81.53 463.33 82.67C462.77 83.81 462 84.815 461.02 85.685L459.79 84.71ZM355.851 104.685C354.871 103.815 354.096 102.81 353.526 101.67C352.966 100.53 352.686 99.25 352.686 97.83C352.686 96.41 352.966 95.13 353.526 93.99C354.096 92.85 354.871 91.845 355.851 90.975L357.081 91.95C356.191 92.82 355.541 93.725 355.131 94.665C354.731 95.595 354.531 96.65 354.531 97.83C354.531 98.42 354.581 98.98 354.681 99.51C354.781 100.03 354.931 100.53 355.131 101.01C355.341 101.49 355.606 101.95 355.926 102.39C356.246 102.84 356.631 103.28 357.081 103.71L355.851 104.685ZM409.816 104.685C408.836 103.815 408.061 102.81 407.491 101.67C406.931 100.53 406.651 99.25 406.651 97.83C406.651 96.41 406.931 95.13 407.491 93.99C408.061 92.85 408.836 91.845 409.816 90.975L411.046 91.95C410.156 92.82 409.506 93.725 409.096 94.665C408.696 95.595 408.496 96.65 408.496 97.83C408.496 98.42 408.546 98.98 408.646 99.51C408.746 100.03 408.896 100.53 409.096 101.01C409.306 101.49 409.571 101.95 409.891 102.39C410.211 102.84 410.596 103.28 411.046 103.71L409.816 104.685ZM441.802 103.71C442.252 103.28 442.637 102.84 442.957 102.39C443.277 101.95 443.537 101.49 443.737 101.01C443.947 100.53 444.102 100.03 444.202 99.51C444.302 98.98 444.352 98.42 444.352 97.83C444.352 96.65 444.147 95.595 443.737 94.665C443.337 93.725 442.692 92.82 441.802 91.95L443.032 90.975C444.012 91.845 444.782 92.85 445.342 93.99C445.912 95.13 446.197 96.41 446.197 97.83C446.197 99.25 445.912 100.53 445.342 101.67C444.782 102.81 444.012 103.815 443.032 104.685L441.802 103.71ZM450.796 103.71C451.246 103.28 451.631 102.84 451.951 102.39C452.271 101.95 452.531 101.49 452.731 101.01C452.941 100.53 453.096 100.03 453.196 99.51C453.296 98.98 453.346 98.42 453.346 97.83C453.346 96.65 453.141 95.595 452.731 94.665C452.331 93.725 451.686 92.82 450.796 91.95L452.026 90.975C453.006 91.845 453.776 92.85 454.336 93.99C454.906 95.13 455.191 96.41 455.191 97.83C455.191 99.25 454.906 100.53 454.336 101.67C453.776 102.81 453.006 103.815 452.026 104.685L450.796 103.71ZM355.851 122.685C354.871 121.815 354.096 120.81 353.526 119.67C352.966 118.53 352.686 117.25 352.686 115.83C352.686 114.41 352.966 113.13 353.526 111.99C354.096 110.85 354.871 109.845 355.851 108.975L357.081 109.95C356.191 110.82 355.541 111.725 355.131 112.665C354.731 113.595 354.531 114.65 354.531 115.83C354.531 116.42 354.581 116.98 354.681 117.51C354.781 118.03 354.931 118.53 355.131 119.01C355.341 119.49 355.606 119.95 355.926 120.39C356.246 120.84 356.631 121.28 357.081 121.71L355.851 122.685ZM409.816 122.685C408.836 121.815 408.061 120.81 407.491 119.67C406.931 118.53 406.651 117.25 406.651 115.83C406.651 114.41 406.931 113.13 407.491 111.99C408.061 110.85 408.836 109.845 409.816 108.975L411.046 109.95C410.156 110.82 409.506 111.725 409.096 112.665C408.696 113.595 408.496 114.65 408.496 115.83C408.496 116.42 408.546 116.98 408.646 117.51C408.746 118.03 408.896 118.53 409.096 119.01C409.306 119.49 409.571 119.95 409.891 120.39C410.211 120.84 410.596 121.28 411.046 121.71L409.816 122.685ZM441.802 121.71C442.252 121.28 442.637 120.84 442.957 120.39C443.277 119.95 443.537 119.49 443.737 119.01C443.947 118.53 444.102 118.03 444.202 117.51C444.302 116.98 444.352 116.42 444.352 115.83C444.352 114.65 444.147 113.595 443.737 112.665C443.337 111.725 442.692 110.82 441.802 109.95L443.032 108.975C444.012 109.845 444.782 110.85 445.342 111.99C445.912 113.13 446.197 114.41 446.197 115.83C446.197 117.25 445.912 118.53 445.342 119.67C444.782 120.81 444.012 121.815 443.032 122.685L441.802 121.71ZM450.796 121.71C451.246 121.28 451.631 120.84 451.951 120.39C452.271 119.95 452.531 119.49 452.731 119.01C452.941 118.53 453.096 118.03 453.196 117.51C453.296 116.98 453.346 116.42 453.346 115.83C453.346 114.65 453.141 113.595 452.731 112.665C452.331 111.725 451.686 110.82 450.796 109.95L452.026 108.975C453.006 109.845 453.776 110.85 454.336 111.99C454.906 113.13 455.191 114.41 455.191 115.83C455.191 117.25 454.906 118.53 454.336 119.67C453.776 120.81 453.006 121.815 452.026 122.685L450.796 121.71Z" fill="white"/>
<path d="M418.045 79.04V77.435C418.045 77.135 418.05 76.79 418.06 76.4C418.08 76 418.1 75.65 418.12 75.35H418.06C417.9 75.62 417.73 75.89 417.55 76.16C417.37 76.43 417.195 76.7 417.025 76.97L415.585 79.04H418.045ZM421.3 80.72H420.1V83H418.045V80.72H413.455V79.205L417.43 73.475H420.1V79.04H421.3V80.72ZM424.684 81.425C424.684 81.175 424.724 80.945 424.804 80.735C424.894 80.515 425.014 80.325 425.164 80.165C425.314 80.005 425.494 79.88 425.704 79.79C425.924 79.7 426.164 79.655 426.424 79.655C426.684 79.655 426.919 79.7 427.129 79.79C427.349 79.88 427.534 80.005 427.684 80.165C427.834 80.325 427.949 80.515 428.029 80.735C428.119 80.945 428.164 81.175 428.164 81.425C428.164 81.925 428.004 82.345 427.684 82.685C427.364 83.015 426.944 83.18 426.424 83.18C425.904 83.18 425.484 83.015 425.164 82.685C424.844 82.345 424.684 81.925 424.684 81.425ZM435.148 77.87C435.428 77.87 435.718 77.8 436.018 77.66C436.318 77.52 436.613 77.275 436.903 76.925C436.843 76.555 436.753 76.245 436.633 75.995C436.523 75.735 436.388 75.53 436.228 75.38C436.078 75.22 435.913 75.11 435.733 75.05C435.553 74.98 435.368 74.945 435.178 74.945C434.988 74.945 434.803 74.975 434.623 75.035C434.453 75.095 434.298 75.19 434.158 75.32C434.028 75.44 433.923 75.6 433.843 75.8C433.763 75.99 433.723 76.22 433.723 76.49C433.723 76.98 433.853 77.335 434.113 77.555C434.373 77.765 434.718 77.87 435.148 77.87ZM433.018 80.72C433.218 80.9 433.468 81.06 433.768 81.2C434.068 81.33 434.378 81.395 434.698 81.395C434.988 81.395 435.263 81.345 435.523 81.245C435.793 81.135 436.028 80.965 436.228 80.735C436.438 80.495 436.608 80.185 436.738 79.805C436.868 79.415 436.943 78.94 436.963 78.38C436.613 78.71 436.228 78.97 435.808 79.16C435.398 79.34 435.018 79.43 434.668 79.43C434.248 79.43 433.858 79.37 433.498 79.25C433.138 79.13 432.823 78.95 432.553 78.71C432.293 78.47 432.088 78.165 431.938 77.795C431.788 77.425 431.713 76.99 431.713 76.49C431.713 76 431.803 75.56 431.983 75.17C432.173 74.77 432.423 74.43 432.733 74.15C433.053 73.87 433.418 73.66 433.828 73.52C434.238 73.37 434.673 73.295 435.133 73.295C435.623 73.295 436.098 73.385 436.558 73.565C437.028 73.745 437.443 74.025 437.803 74.405C438.163 74.785 438.448 75.275 438.658 75.875C438.878 76.465 438.988 77.18 438.988 78.02C438.988 78.91 438.873 79.68 438.643 80.33C438.413 80.98 438.108 81.515 437.728 81.935C437.348 82.355 436.908 82.67 436.408 82.88C435.918 83.08 435.413 83.18 434.893 83.18C434.213 83.18 433.618 83.065 433.108 82.835C432.598 82.605 432.178 82.34 431.848 82.04L433.018 80.72ZM444.142 77.87C444.422 77.87 444.712 77.8 445.012 77.66C445.312 77.52 445.607 77.275 445.897 76.925C445.837 76.555 445.747 76.245 445.627 75.995C445.517 75.735 445.382 75.53 445.222 75.38C445.072 75.22 444.907 75.11 444.727 75.05C444.547 74.98 444.362 74.945 444.172 74.945C443.982 74.945 443.797 74.975 443.617 75.035C443.447 75.095 443.292 75.19 443.152 75.32C443.022 75.44 442.917 75.6 442.837 75.8C442.757 75.99 442.717 76.22 442.717 76.49C442.717 76.98 442.847 77.335 443.107 77.555C443.367 77.765 443.712 77.87 444.142 77.87ZM442.012 80.72C442.212 80.9 442.462 81.06 442.762 81.2C443.062 81.33 443.372 81.395 443.692 81.395C443.982 81.395 444.257 81.345 444.517 81.245C444.787 81.135 445.022 80.965 445.222 80.735C445.432 80.495 445.602 80.185 445.732 79.805C445.862 79.415 445.937 78.94 445.957 78.38C445.607 78.71 445.222 78.97 444.802 79.16C444.392 79.34 444.012 79.43 443.662 79.43C443.242 79.43 442.852 79.37 442.492 79.25C442.132 79.13 441.817 78.95 441.547 78.71C441.287 78.47 441.082 78.165 440.932 77.795C440.782 77.425 440.707 76.99 440.707 76.49C440.707 76 440.797 75.56 440.977 75.17C441.167 74.77 441.417 74.43 441.727 74.15C442.047 73.87 442.412 73.66 442.822 73.52C443.232 73.37 443.667 73.295 444.127 73.295C444.617 73.295 445.092 73.385 445.552 73.565C446.022 73.745 446.437 74.025 446.797 74.405C447.157 74.785 447.442 75.275 447.652 75.875C447.872 76.465 447.982 77.18 447.982 78.02C447.982 78.91 447.867 79.68 447.637 80.33C447.407 80.98 447.102 81.515 446.722 81.935C446.342 82.355 445.902 82.67 445.402 82.88C444.912 83.08 444.407 83.18 443.887 83.18C443.207 83.18 442.612 83.065 442.102 82.835C441.592 82.605 441.172 82.34 440.842 82.04L442.012 80.72ZM418.045 98.04V96.435C418.045 96.135 418.05 95.79 418.06 95.4C418.08 95 418.1 94.65 418.12 94.35H418.06C417.9 94.62 417.73 94.89 417.55 95.16C417.37 95.43 417.195 95.7 417.025 95.97L415.585 98.04H418.045ZM421.3 99.72H420.1V102H418.045V99.72H413.455V98.205L417.43 92.475H420.1V98.04H421.3V99.72ZM424.684 100.425C424.684 100.175 424.724 99.945 424.804 99.735C424.894 99.515 425.014 99.325 425.164 99.165C425.314 99.005 425.494 98.88 425.704 98.79C425.924 98.7 426.164 98.655 426.424 98.655C426.684 98.655 426.919 98.7 427.129 98.79C427.349 98.88 427.534 99.005 427.684 99.165C427.834 99.325 427.949 99.515 428.029 99.735C428.119 99.945 428.164 100.175 428.164 100.425C428.164 100.925 428.004 101.345 427.684 101.685C427.364 102.015 426.944 102.18 426.424 102.18C425.904 102.18 425.484 102.015 425.164 101.685C424.844 101.345 424.684 100.925 424.684 100.425ZM432.598 99.45C432.918 99.71 433.258 99.935 433.618 100.125C433.988 100.305 434.398 100.395 434.848 100.395C435.388 100.395 435.828 100.27 436.168 100.02C436.518 99.77 436.693 99.4 436.693 98.91C436.693 98.43 436.528 98.065 436.198 97.815C435.878 97.565 435.463 97.44 434.953 97.44C434.793 97.44 434.648 97.45 434.518 97.47C434.398 97.48 434.278 97.505 434.158 97.545C434.038 97.585 433.913 97.635 433.783 97.695C433.653 97.755 433.508 97.83 433.348 97.92L432.373 97.29L432.628 92.475H438.463V94.335H434.533L434.368 96.12C434.588 96.04 434.793 95.985 434.983 95.955C435.173 95.915 435.388 95.895 435.628 95.895C436.068 95.895 436.483 95.955 436.873 96.075C437.273 96.195 437.623 96.375 437.923 96.615C438.223 96.855 438.458 97.16 438.628 97.53C438.808 97.9 438.898 98.34 438.898 98.85C438.898 99.38 438.793 99.85 438.583 100.26C438.383 100.67 438.108 101.02 437.758 101.31C437.418 101.59 437.023 101.805 436.573 101.955C436.123 102.105 435.653 102.18 435.163 102.18C434.333 102.18 433.628 102.055 433.048 101.805C432.478 101.545 431.998 101.225 431.608 100.845L432.598 99.45ZM418.045 116.04V114.435C418.045 114.135 418.05 113.79 418.06 113.4C418.08 113 418.1 112.65 418.12 112.35H418.06C417.9 112.62 417.73 112.89 417.55 113.16C417.37 113.43 417.195 113.7 417.025 113.97L415.585 116.04H418.045ZM421.3 117.72H420.1V120H418.045V117.72H413.455V116.205L417.43 110.475H420.1V116.04H421.3V117.72ZM424.684 118.425C424.684 118.175 424.724 117.945 424.804 117.735C424.894 117.515 425.014 117.325 425.164 117.165C425.314 117.005 425.494 116.88 425.704 116.79C425.924 116.7 426.164 116.655 426.424 116.655C426.684 116.655 426.919 116.7 427.129 116.79C427.349 116.88 427.534 117.005 427.684 117.165C427.834 117.325 427.949 117.515 428.029 117.735C428.119 117.945 428.164 118.175 428.164 118.425C428.164 118.925 428.004 119.345 427.684 119.685C427.364 120.015 426.944 120.18 426.424 120.18C425.904 120.18 425.484 120.015 425.164 119.685C424.844 119.345 424.684 118.925 424.684 118.425ZM432.568 117.435C432.888 117.715 433.243 117.945 433.633 118.125C434.033 118.305 434.453 118.395 434.893 118.395C435.413 118.395 435.838 118.3 436.168 118.11C436.508 117.91 436.678 117.63 436.678 117.27C436.678 117.06 436.633 116.87 436.543 116.7C436.453 116.53 436.298 116.39 436.078 116.28C435.858 116.16 435.563 116.07 435.193 116.01C434.823 115.94 434.358 115.905 433.798 115.905V114.345C434.738 114.345 435.398 114.23 435.778 114C436.168 113.76 436.363 113.45 436.363 113.07C436.363 112.74 436.238 112.485 435.988 112.305C435.738 112.115 435.393 112.02 434.953 112.02C434.573 112.02 434.223 112.095 433.903 112.245C433.583 112.395 433.258 112.6 432.928 112.86L431.818 111.51C432.288 111.13 432.788 110.835 433.318 110.625C433.858 110.405 434.438 110.295 435.058 110.295C435.578 110.295 436.053 110.355 436.483 110.475C436.913 110.585 437.283 110.755 437.593 110.985C437.903 111.205 438.143 111.475 438.313 111.795C438.483 112.115 438.568 112.485 438.568 112.905C438.568 113.405 438.408 113.83 438.088 114.18C437.768 114.52 437.323 114.8 436.753 115.02V115.08C437.353 115.24 437.858 115.515 438.268 115.905C438.678 116.285 438.883 116.785 438.883 117.405C438.883 117.845 438.778 118.24 438.568 118.59C438.368 118.93 438.093 119.22 437.743 119.46C437.403 119.69 437.003 119.87 436.543 120C436.083 120.12 435.603 120.18 435.103 120.18C434.283 120.18 433.578 120.06 432.988 119.82C432.398 119.57 431.918 119.24 431.548 118.83L432.568 117.435Z" fill="#F0E442"/>
<rect x="72" width="90" height="23" fill="#CC79A7" fill-opacity="0.5"/>
<path d="M78.32 8.08H80.72L80.96 10.24H81.02C81.5133 9.42667 82.1067 8.82667 82.8 8.44C83.4933 8.04 84.24 7.84 85.04 7.84C85.48 7.84 85.8333 7.87333 86.1 7.94C86.38 8.00667 86.6667 8.10667 86.96 8.24L86.36 10.7C86.0533 10.6067 85.7733 10.54 85.52 10.5C85.28 10.4467 84.9733 10.42 84.6 10.42C83.9867 10.42 83.38 10.6 82.78 10.96C82.1933 11.32 81.6867 11.9467 81.26 12.84V18H78.32V8.08ZM88.9322 13.04C88.9322 12.2133 89.0722 11.48 89.3522 10.84C89.6322 10.1867 90.0055 9.64 90.4722 9.2C90.9522 8.76 91.4922 8.42667 92.0922 8.2C92.7055 7.96 93.3389 7.84 93.9922 7.84C94.6455 7.84 95.2722 7.96 95.8722 8.2C96.4855 8.42667 97.0255 8.76 97.4922 9.2C97.9722 9.64 98.3522 10.1867 98.6322 10.84C98.9122 11.48 99.0522 12.2133 99.0522 13.04C99.0522 13.8667 98.9122 14.6067 98.6322 15.26C98.3522 15.9 97.9722 16.44 97.4922 16.88C97.0255 17.32 96.4855 17.66 95.8722 17.9C95.2722 18.1267 94.6455 18.24 93.9922 18.24C93.3389 18.24 92.7055 18.1267 92.0922 17.9C91.4922 17.66 90.9522 17.32 90.4722 16.88C90.0055 16.44 89.6322 15.9 89.3522 15.26C89.0722 14.6067 88.9322 13.8667 88.9322 13.04ZM91.9522 13.04C91.9522 13.9067 92.1189 14.5933 92.4522 15.1C92.7989 15.6067 93.3122 15.86 93.9922 15.86C94.6722 15.86 95.1789 15.6067 95.5122 15.1C95.8589 14.5933 96.0322 13.9067 96.0322 13.04C96.0322 12.1733 95.8589 11.4867 95.5122 10.98C95.1789 10.4733 94.6722 10.22 93.9922 10.22C93.3122 10.22 92.7989 10.4733 92.4522 10.98C92.1189 11.4867 91.9522 12.1733 91.9522 13.04ZM110.484 18H108.084L107.864 16.58H107.784C107.344 17.0867 106.858 17.4933 106.324 17.8C105.791 18.0933 105.164 18.24 104.444 18.24C103.311 18.24 102.491 17.88 101.984 17.16C101.478 16.44 101.224 15.4533 101.224 14.2V8.08H104.164V13.82C104.164 14.4867 104.264 14.9733 104.464 15.28C104.664 15.5867 105.044 15.74 105.604 15.74C105.978 15.74 106.304 15.66 106.584 15.5C106.878 15.34 107.198 15.04 107.544 14.6V8.08H110.484V18ZM113.417 8.08H115.817L116.037 9.4H116.117C116.543 8.97333 117.03 8.60667 117.577 8.3C118.137 7.99333 118.79 7.84 119.537 7.84C120.657 7.84 121.477 8.2 121.997 8.92C122.517 9.64 122.777 10.6267 122.777 11.88V18H119.837V12.26C119.837 11.5933 119.73 11.1067 119.517 10.8C119.303 10.4933 118.923 10.34 118.377 10.34C117.977 10.34 117.623 10.4267 117.317 10.6C117.023 10.7733 116.703 11.0333 116.357 11.38V18H113.417V8.08ZM124.909 13.04C124.909 12.2267 125.029 11.5 125.269 10.86C125.509 10.22 125.822 9.68 126.209 9.24C126.609 8.78667 127.062 8.44 127.569 8.2C128.075 7.96 128.602 7.84 129.149 7.84C129.722 7.84 130.202 7.94 130.589 8.14C130.975 8.32667 131.342 8.58 131.689 8.9L131.589 7.36V3.98H134.529V18H132.129L131.909 16.98H131.849C131.475 17.34 131.049 17.64 130.569 17.88C130.089 18.12 129.595 18.24 129.089 18.24C128.462 18.24 127.889 18.12 127.369 17.88C126.862 17.64 126.422 17.3 126.049 16.86C125.689 16.4067 125.409 15.86 125.209 15.22C125.009 14.58 124.909 13.8533 124.909 13.04ZM127.929 13C127.929 13.9867 128.095 14.7067 128.429 15.16C128.762 15.6133 129.235 15.84 129.849 15.84C130.182 15.84 130.489 15.7733 130.769 15.64C131.049 15.4933 131.322 15.2533 131.589 14.92V10.9C131.322 10.66 131.049 10.4933 130.769 10.4C130.502 10.2933 130.222 10.24 129.929 10.24C129.382 10.24 128.909 10.4667 128.509 10.92C128.122 11.3733 127.929 12.0667 127.929 13ZM143.801 21.58C142.494 20.42 141.461 19.08 140.701 17.56C139.954 16.04 139.581 14.3333 139.581 12.44C139.581 10.5467 139.954 8.84 140.701 7.32C141.461 5.8 142.494 4.46 143.801 3.3L145.441 4.6C144.254 5.76 143.388 6.96667 142.841 8.22C142.308 9.46 142.041 10.8667 142.041 12.44C142.041 13.2267 142.108 13.9733 142.241 14.68C142.374 15.3733 142.574 16.04 142.841 16.68C143.121 17.32 143.474 17.9333 143.901 18.52C144.328 19.12 144.841 19.7067 145.441 20.28L143.801 21.58ZM150.473 20.28C151.073 19.7067 151.586 19.12 152.013 18.52C152.44 17.9333 152.786 17.32 153.053 16.68C153.333 16.04 153.54 15.3733 153.673 14.68C153.806 13.9733 153.873 13.2267 153.873 12.44C153.873 10.8667 153.6 9.46 153.053 8.22C152.52 6.96667 151.66 5.76 150.473 4.6L152.113 3.3C153.42 4.46 154.446 5.8 155.193 7.32C155.953 8.84 156.333 10.5467 156.333 12.44C156.333 14.3333 155.953 16.04 155.193 17.56C154.446 19.08 153.42 20.42 152.113 21.58L150.473 20.28Z" fill="#D55E00"/>
<rect x="333" width="172" height="23" fill="#CC79A7" fill-opacity="0.5"/>
<path d="M341.38 18.78V21.68H338.44V8.08H340.84L341.06 9.08H341.12C341.52 8.72 341.98 8.42667 342.5 8.2C343.02 7.96 343.547 7.84 344.08 7.84C344.693 7.84 345.247 7.96 345.74 8.2C346.233 8.44 346.653 8.78 347 9.22C347.347 9.66 347.607 10.1933 347.78 10.82C347.967 11.4333 348.06 12.12 348.06 12.88C348.06 13.7333 347.94 14.4933 347.7 15.16C347.46 15.8133 347.14 16.3733 346.74 16.84C346.34 17.2933 345.88 17.64 345.36 17.88C344.853 18.12 344.32 18.24 343.76 18.24C342.853 18.24 342.027 17.88 341.28 17.16L341.38 18.78ZM341.38 15.18C341.66 15.42 341.947 15.5933 342.24 15.7C342.547 15.7933 342.827 15.84 343.08 15.84C343.64 15.84 344.107 15.6133 344.48 15.16C344.853 14.6933 345.04 13.9467 345.04 12.92C345.04 11.1333 344.433 10.24 343.22 10.24C342.593 10.24 341.98 10.5467 341.38 11.16V15.18ZM351.312 8.08H353.712L353.952 10.24H354.012C354.506 9.42667 355.099 8.82667 355.792 8.44C356.486 8.04 357.232 7.84 358.032 7.84C358.472 7.84 358.826 7.87333 359.092 7.94C359.372 8.00667 359.659 8.10667 359.952 8.24L359.352 10.7C359.046 10.6067 358.766 10.54 358.512 10.5C358.272 10.4467 357.966 10.42 357.592 10.42C356.979 10.42 356.372 10.6 355.772 10.96C355.186 11.32 354.679 11.9467 354.252 12.84V18H351.312V8.08ZM362.564 8.08H369.484V18H366.544V10.38H362.564V8.08ZM367.884 6.62C367.311 6.62 366.838 6.46 366.464 6.14C366.104 5.82 365.924 5.38667 365.924 4.84C365.924 4.29333 366.104 3.85333 366.464 3.52C366.838 3.17333 367.311 3 367.884 3C368.458 3 368.924 3.17333 369.284 3.52C369.658 3.85333 369.844 4.29333 369.844 4.84C369.844 5.38667 369.658 5.82 369.284 6.14C368.924 6.46 368.458 6.62 367.884 6.62ZM374.417 8.08H376.817L377.037 9.4H377.117C377.543 8.97333 378.03 8.60667 378.577 8.3C379.137 7.99333 379.79 7.84 380.537 7.84C381.657 7.84 382.477 8.2 382.997 8.92C383.517 9.64 383.777 10.6267 383.777 11.88V18H380.837V12.26C380.837 11.5933 380.73 11.1067 380.517 10.8C380.303 10.4933 379.923 10.34 379.377 10.34C378.977 10.34 378.623 10.4267 378.317 10.6C378.023 10.7733 377.703 11.0333 377.357 11.38V18H374.417V8.08ZM388.449 10.38H385.949V8.2L388.589 8.08L388.969 5.44H391.389V8.08H395.589V10.38H391.389V13.86C391.389 14.62 391.555 15.16 391.889 15.48C392.222 15.7867 392.749 15.94 393.469 15.94C393.855 15.94 394.209 15.9067 394.529 15.84C394.849 15.7733 395.155 15.6867 395.449 15.58L395.969 17.7C395.529 17.8333 395.035 17.9533 394.489 18.06C393.955 18.18 393.369 18.24 392.729 18.24C391.942 18.24 391.275 18.1333 390.729 17.92C390.182 17.7067 389.735 17.4133 389.389 17.04C389.055 16.6533 388.815 16.1933 388.669 15.66C388.522 15.1267 388.449 14.5333 388.449 13.88V10.38ZM404.801 21.58C403.494 20.42 402.461 19.08 401.701 17.56C400.954 16.04 400.581 14.3333 400.581 12.44C400.581 10.5467 400.954 8.84 401.701 7.32C402.461 5.8 403.494 4.46 404.801 3.3L406.441 4.6C405.254 5.76 404.388 6.96667 403.841 8.22C403.308 9.46 403.041 10.8667 403.041 12.44C403.041 13.2267 403.108 13.9733 403.241 14.68C403.374 15.3733 403.574 16.04 403.841 16.68C404.121 17.32 404.474 17.9333 404.901 18.52C405.328 19.12 405.841 19.7067 406.441 20.28L404.801 21.58ZM411.273 8.08H413.673L413.913 10.24H413.973C414.466 9.42667 415.06 8.82667 415.753 8.44C416.446 8.04 417.193 7.84 417.993 7.84C418.433 7.84 418.786 7.87333 419.053 7.94C419.333 8.00667 419.62 8.10667 419.913 8.24L419.313 10.7C419.006 10.6067 418.726 10.54 418.473 10.5C418.233 10.4467 417.926 10.42 417.553 10.42C416.94 10.42 416.333 10.6 415.733 10.96C415.146 11.32 414.64 11.9467 414.213 12.84V18H411.273V8.08ZM421.885 13.04C421.885 12.2133 422.025 11.48 422.305 10.84C422.585 10.1867 422.959 9.64 423.425 9.2C423.905 8.76 424.445 8.42667 425.045 8.2C425.659 7.96 426.292 7.84 426.945 7.84C427.599 7.84 428.225 7.96 428.825 8.2C429.439 8.42667 429.979 8.76 430.445 9.2C430.925 9.64 431.305 10.1867 431.585 10.84C431.865 11.48 432.005 12.2133 432.005 13.04C432.005 13.8667 431.865 14.6067 431.585 15.26C431.305 15.9 430.925 16.44 430.445 16.88C429.979 17.32 429.439 17.66 428.825 17.9C428.225 18.1267 427.599 18.24 426.945 18.24C426.292 18.24 425.659 18.1267 425.045 17.9C424.445 17.66 423.905 17.32 423.425 16.88C422.959 16.44 422.585 15.9 422.305 15.26C422.025 14.6067 421.885 13.8667 421.885 13.04ZM424.905 13.04C424.905 13.9067 425.072 14.5933 425.405 15.1C425.752 15.6067 426.265 15.86 426.945 15.86C427.625 15.86 428.132 15.6067 428.465 15.1C428.812 14.5933 428.985 13.9067 428.985 13.04C428.985 12.1733 428.812 11.4867 428.465 10.98C428.132 10.4733 427.625 10.22 426.945 10.22C426.265 10.22 425.752 10.4733 425.405 10.98C425.072 11.4867 424.905 12.1733 424.905 13.04ZM443.438 18H441.038L440.818 16.58H440.738C440.298 17.0867 439.811 17.4933 439.278 17.8C438.744 18.0933 438.118 18.24 437.398 18.24C436.264 18.24 435.444 17.88 434.938 17.16C434.431 16.44 434.178 15.4533 434.178 14.2V8.08H437.118V13.82C437.118 14.4867 437.218 14.9733 437.418 15.28C437.618 15.5867 437.998 15.74 438.558 15.74C438.931 15.74 439.258 15.66 439.538 15.5C439.831 15.34 440.151 15.04 440.498 14.6V8.08H443.438V18ZM446.37 8.08H448.77L448.99 9.4H449.07C449.496 8.97333 449.983 8.60667 450.53 8.3C451.09 7.99333 451.743 7.84 452.49 7.84C453.61 7.84 454.43 8.2 454.95 8.92C455.47 9.64 455.73 10.6267 455.73 11.88V18H452.79V12.26C452.79 11.5933 452.683 11.1067 452.47 10.8C452.256 10.4933 451.876 10.34 451.33 10.34C450.93 10.34 450.576 10.4267 450.27 10.6C449.976 10.7733 449.656 11.0333 449.31 11.38V18H446.37V8.08ZM457.862 13.04C457.862 12.2267 457.982 11.5 458.222 10.86C458.462 10.22 458.775 9.68 459.162 9.24C459.562 8.78667 460.015 8.44 460.522 8.2C461.029 7.96 461.555 7.84 462.102 7.84C462.675 7.84 463.155 7.94 463.542 8.14C463.929 8.32667 464.295 8.58 464.642 8.9L464.542 7.36V3.98H467.482V18H465.082L464.862 16.98H464.802C464.429 17.34 464.002 17.64 463.522 17.88C463.042 18.12 462.549 18.24 462.042 18.24C461.415 18.24 460.842 18.12 460.322 17.88C459.815 17.64 459.375 17.3 459.002 16.86C458.642 16.4067 458.362 15.86 458.162 15.22C457.962 14.58 457.862 13.8533 457.862 13.04ZM460.882 13C460.882 13.9867 461.049 14.7067 461.382 15.16C461.715 15.6133 462.189 15.84 462.802 15.84C463.135 15.84 463.442 15.7733 463.722 15.64C464.002 15.4933 464.275 15.2533 464.542 14.92V10.9C464.275 10.66 464.002 10.4933 463.722 10.4C463.455 10.2933 463.175 10.24 462.882 10.24C462.335 10.24 461.862 10.4667 461.462 10.92C461.075 11.3733 460.882 12.0667 460.882 13ZM476.754 21.58C475.447 20.42 474.414 19.08 473.654 17.56C472.907 16.04 472.534 14.3333 472.534 12.44C472.534 10.5467 472.907 8.84 473.654 7.32C474.414 5.8 475.447 4.46 476.754 3.3L478.394 4.6C477.207 5.76 476.341 6.96667 475.794 8.22C475.261 9.46 474.994 10.8667 474.994 12.44C474.994 13.2267 475.061 13.9733 475.194 14.68C475.327 15.3733 475.527 16.04 475.794 16.68C476.074 17.32 476.427 17.9333 476.854 18.52C477.281 19.12 477.794 19.7067 478.394 20.28L476.754 21.58ZM483.426 20.28C484.026 19.7067 484.54 19.12 484.966 18.52C485.393 17.9333 485.74 17.32 486.006 16.68C486.286 16.04 486.493 15.3733 486.626 14.68C486.76 13.9733 486.826 13.2267 486.826 12.44C486.826 10.8667 486.553 9.46 486.006 8.22C485.473 6.96667 484.613 5.76 483.426 4.6L485.066 3.3C486.373 4.46 487.4 5.8 488.146 7.32C488.906 8.84 489.286 10.5467 489.286 12.44C489.286 14.3333 488.906 16.04 488.146 17.56C487.4 19.08 486.373 20.42 485.066 21.58L483.426 20.28ZM495.418 20.28C496.018 19.7067 496.532 19.12 496.958 18.52C497.385 17.9333 497.732 17.32 497.998 16.68C498.278 16.04 498.485 15.3733 498.618 14.68C498.752 13.9733 498.818 13.2267 498.818 12.44C498.818 10.8667 498.545 9.46 497.998 8.22C497.465 6.96667 496.605 5.76 495.418 4.6L497.058 3.3C498.365 4.46 499.392 5.8 500.138 7.32C500.898 8.84 501.278 10.5467 501.278 12.44C501.278 14.3333 500.898 16.04 500.138 17.56C499.392 19.08 498.365 20.42 497.058 21.58L495.418 20.28Z" fill="#D55E00"/>
</svg>
