<svg width="465" height="211" viewBox="0 0 465 211" fill="none" xmlns="http://www.w3.org/2000/svg">
<rect x="1" width="215" height="211" fill="black"/>
<path d="M8.08116 191.06H9.88116L10.0462 192.05H10.1062C10.4262 191.73 10.7912 191.455 11.2012 191.225C11.6212 190.995 12.1112 190.88 12.6712 190.88C13.5112 190.88 14.1262 191.15 14.5162 191.69C14.9062 192.23 15.1012 192.97 15.1012 193.91V198.5H12.8962V194.195C12.8962 193.695 12.8162 193.33 12.6562 193.1C12.4962 192.87 12.2112 192.755 11.8012 192.755C11.5012 192.755 11.2362 192.82 11.0062 192.95C10.7862 193.08 10.5462 193.275 10.2862 193.535V198.5H8.08116V191.06ZM16.7003 194.78C16.7003 194.16 16.8053 193.61 17.0153 193.13C17.2253 192.64 17.5053 192.23 17.8553 191.9C18.2153 191.57 18.6203 191.32 19.0703 191.15C19.5303 190.97 20.0053 190.88 20.4953 190.88C20.9853 190.88 21.4553 190.97 21.9053 191.15C22.3653 191.32 22.7703 191.57 23.1203 191.9C23.4803 192.23 23.7653 192.64 23.9753 193.13C24.1853 193.61 24.2903 194.16 24.2903 194.78C24.2903 195.4 24.1853 195.955 23.9753 196.445C23.7653 196.925 23.4803 197.33 23.1203 197.66C22.7703 197.99 22.3653 198.245 21.9053 198.425C21.4553 198.595 20.9853 198.68 20.4953 198.68C20.0053 198.68 19.5303 198.595 19.0703 198.425C18.6203 198.245 18.2153 197.99 17.8553 197.66C17.5053 197.33 17.2253 196.925 17.0153 196.445C16.8053 195.955 16.7003 195.4 16.7003 194.78ZM18.9653 194.78C18.9653 195.43 19.0903 195.945 19.3403 196.325C19.6003 196.705 19.9853 196.895 20.4953 196.895C21.0053 196.895 21.3853 196.705 21.6353 196.325C21.8953 195.945 22.0253 195.43 22.0253 194.78C22.0253 194.13 21.8953 193.615 21.6353 193.235C21.3853 192.855 21.0053 192.665 20.4953 192.665C19.9853 192.665 19.6003 192.855 19.3403 193.235C19.0903 193.615 18.9653 194.13 18.9653 194.78ZM27.5994 192.785H25.7244V191.15L27.7044 191.06L27.9894 189.08H29.8044V191.06H32.9544V192.785H29.8044V195.395C29.8044 195.965 29.9294 196.37 30.1794 196.61C30.4294 196.84 30.8244 196.955 31.3644 196.955C31.6544 196.955 31.9194 196.93 32.1594 196.88C32.3994 196.83 32.6294 196.765 32.8494 196.685L33.2394 198.275C32.9094 198.375 32.5394 198.465 32.1294 198.545C31.7294 198.635 31.2894 198.68 30.8094 198.68C30.2194 198.68 29.7194 198.6 29.3094 198.44C28.8994 198.28 28.5644 198.06 28.3044 197.78C28.0544 197.49 27.8744 197.145 27.7644 196.745C27.6544 196.345 27.5994 195.9 27.5994 195.41V192.785ZM51.3327 189.83C50.8427 189.64 50.3227 189.545 49.7727 189.545C49.2927 189.545 48.9377 189.65 48.7077 189.86C48.4877 190.07 48.3777 190.4 48.3777 190.85V191.06H50.9427V192.785H48.3777V198.5H46.1727V192.785H44.2077V191.15L46.1727 191.06V190.865C46.1727 190.435 46.2377 190.035 46.3677 189.665C46.4977 189.295 46.6977 188.975 46.9677 188.705C47.2377 188.425 47.5827 188.205 48.0027 188.045C48.4227 187.885 48.9227 187.805 49.5027 187.805C49.9327 187.805 50.3327 187.845 50.7027 187.925C51.0827 188.005 51.4327 188.1 51.7527 188.21L51.3327 189.83ZM53.7119 191.06H55.5119L55.6919 192.68H55.7369C56.1069 192.07 56.5519 191.62 57.0719 191.33C57.5919 191.03 58.1519 190.88 58.7519 190.88C59.0819 190.88 59.3469 190.905 59.5469 190.955C59.7569 191.005 59.9719 191.08 60.1919 191.18L59.7419 193.025C59.5119 192.955 59.3019 192.905 59.1119 192.875C58.9319 192.835 58.7019 192.815 58.4219 192.815C57.9619 192.815 57.5069 192.95 57.0569 193.22C56.6169 193.49 56.2369 193.96 55.9169 194.63V198.5H53.7119V191.06ZM61.791 194.78C61.791 194.17 61.896 193.625 62.106 193.145C62.326 192.665 62.616 192.26 62.976 191.93C63.336 191.59 63.746 191.33 64.206 191.15C64.676 190.97 65.161 190.88 65.661 190.88C66.231 190.88 66.736 190.97 67.176 191.15C67.616 191.33 67.981 191.58 68.271 191.9C68.561 192.22 68.781 192.6 68.931 193.04C69.081 193.47 69.156 193.94 69.156 194.45C69.156 194.65 69.146 194.84 69.126 195.02C69.106 195.2 69.086 195.335 69.066 195.425H64.056C64.136 195.985 64.376 196.39 64.776 196.64C65.186 196.88 65.666 197 66.216 197C66.556 197 66.876 196.96 67.176 196.88C67.486 196.79 67.806 196.66 68.136 196.49L68.856 197.81C68.436 198.08 67.966 198.295 67.446 198.455C66.926 198.605 66.416 198.68 65.916 198.68C65.336 198.68 64.796 198.595 64.296 198.425C63.796 198.245 63.361 197.99 62.991 197.66C62.621 197.32 62.326 196.91 62.106 196.43C61.896 195.95 61.791 195.4 61.791 194.78ZM67.161 193.97C67.161 193.55 67.046 193.21 66.816 192.95C66.586 192.69 66.216 192.56 65.706 192.56C65.306 192.56 64.951 192.675 64.641 192.905C64.331 193.135 64.126 193.49 64.026 193.97H67.161ZM70.7851 194.78C70.7851 194.17 70.8901 193.625 71.1001 193.145C71.3201 192.665 71.6101 192.26 71.9701 191.93C72.3301 191.59 72.7401 191.33 73.2001 191.15C73.6701 190.97 74.1551 190.88 74.6551 190.88C75.2251 190.88 75.7301 190.97 76.1701 191.15C76.6101 191.33 76.9751 191.58 77.2651 191.9C77.5551 192.22 77.7751 192.6 77.9251 193.04C78.0751 193.47 78.1501 193.94 78.1501 194.45C78.1501 194.65 78.1401 194.84 78.1201 195.02C78.1001 195.2 78.0801 195.335 78.0601 195.425H73.0501C73.1301 195.985 73.3701 196.39 73.7701 196.64C74.1801 196.88 74.6601 197 75.2101 197C75.5501 197 75.8701 196.96 76.1701 196.88C76.4801 196.79 76.8001 196.66 77.1301 196.49L77.8501 197.81C77.4301 198.08 76.9601 198.295 76.4401 198.455C75.9201 198.605 75.4101 198.68 74.9101 198.68C74.3301 198.68 73.7901 198.595 73.2901 198.425C72.7901 198.245 72.3551 197.99 71.9851 197.66C71.6151 197.32 71.3201 196.91 71.1001 196.43C70.8901 195.95 70.7851 195.4 70.7851 194.78ZM76.1551 193.97C76.1551 193.55 76.0401 193.21 75.8101 192.95C75.5801 192.69 75.2101 192.56 74.7001 192.56C74.3001 192.56 73.9451 192.675 73.6351 192.905C73.3251 193.135 73.1201 193.49 73.0201 193.97H76.1551Z" fill="white"/>
<path d="M11.5012 174.68C10.9212 174.68 10.3862 174.565 9.89616 174.335C9.41616 174.095 9.00116 173.755 8.65116 173.315C8.31116 172.875 8.04616 172.34 7.85616 171.71C7.66616 171.08 7.57116 170.365 7.57116 169.565C7.57116 168.765 7.66616 168.055 7.85616 167.435C8.04616 166.805 8.31116 166.28 8.65116 165.86C9.00116 165.43 9.41616 165.105 9.89616 164.885C10.3862 164.655 10.9212 164.54 11.5012 164.54C12.0812 164.54 12.6112 164.655 13.0912 164.885C13.5812 165.105 13.9962 165.43 14.3362 165.86C14.6862 166.29 14.9562 166.82 15.1462 167.45C15.3362 168.07 15.4312 168.775 15.4312 169.565C15.4312 170.365 15.3362 171.08 15.1462 171.71C14.9562 172.34 14.6862 172.875 14.3362 173.315C13.9962 173.755 13.5812 174.095 13.0912 174.335C12.6112 174.565 12.0812 174.68 11.5012 174.68ZM11.5012 172.775C12.0112 172.775 12.4162 172.49 12.7162 171.92C13.0162 171.34 13.1662 170.555 13.1662 169.565C13.1662 168.585 13.0162 167.82 12.7162 167.27C12.4162 166.72 12.0112 166.445 11.5012 166.445C10.9912 166.445 10.5862 166.72 10.2862 167.27C9.98616 167.82 9.83616 168.585 9.83616 169.565C9.83616 170.555 9.98616 171.34 10.2862 171.92C10.5862 172.49 10.9912 172.775 11.5012 172.775ZM23.8703 174.5H22.0703L21.9053 173.435H21.8453C21.5153 173.815 21.1503 174.12 20.7503 174.35C20.3503 174.57 19.8803 174.68 19.3403 174.68C18.4903 174.68 17.8753 174.41 17.4953 173.87C17.1153 173.33 16.9253 172.59 16.9253 171.65V167.06H19.1303V171.365C19.1303 171.865 19.2053 172.23 19.3553 172.46C19.5053 172.69 19.7903 172.805 20.2103 172.805C20.4903 172.805 20.7353 172.745 20.9453 172.625C21.1653 172.505 21.4053 172.28 21.6653 171.95V167.06H23.8703V174.5ZM27.5994 168.785H25.7244V167.15L27.7044 167.06L27.9894 165.08H29.8044V167.06H32.9544V168.785H29.8044V171.395C29.8044 171.965 29.9294 172.37 30.1794 172.61C30.4294 172.84 30.8244 172.955 31.3644 172.955C31.6544 172.955 31.9194 172.93 32.1594 172.88C32.3994 172.83 32.6294 172.765 32.8494 172.685L33.2394 174.275C32.9094 174.375 32.5394 174.465 32.1294 174.545C31.7294 174.635 31.2894 174.68 30.8094 174.68C30.2194 174.68 29.7194 174.6 29.3094 174.44C28.8994 174.28 28.5644 174.06 28.3044 173.78C28.0544 173.49 27.8744 173.145 27.7644 172.745C27.6544 172.345 27.5994 171.9 27.5994 171.41V168.785ZM37.2686 175.085V177.26H35.0636V167.06H36.8636L37.0286 167.81H37.0736C37.3736 167.54 37.7186 167.32 38.1086 167.15C38.4986 166.97 38.8936 166.88 39.2936 166.88C39.7536 166.88 40.1686 166.97 40.5386 167.15C40.9086 167.33 41.2236 167.585 41.4836 167.915C41.7436 168.245 41.9386 168.645 42.0686 169.115C42.2086 169.575 42.2786 170.09 42.2786 170.66C42.2786 171.3 42.1886 171.87 42.0086 172.37C41.8286 172.86 41.5886 173.28 41.2886 173.63C40.9886 173.97 40.6436 174.23 40.2536 174.41C39.8736 174.59 39.4736 174.68 39.0536 174.68C38.3736 174.68 37.7536 174.41 37.1936 173.87L37.2686 175.085ZM37.2686 172.385C37.4786 172.565 37.6936 172.695 37.9136 172.775C38.1436 172.845 38.3536 172.88 38.5436 172.88C38.9636 172.88 39.3136 172.71 39.5936 172.37C39.8736 172.02 40.0136 171.46 40.0136 170.69C40.0136 169.35 39.5586 168.68 38.6486 168.68C38.1786 168.68 37.7186 168.91 37.2686 169.37V172.385ZM50.8527 174.5H49.0527L48.8877 173.435H48.8277C48.4977 173.815 48.1327 174.12 47.7327 174.35C47.3327 174.57 46.8627 174.68 46.3227 174.68C45.4727 174.68 44.8577 174.41 44.4777 173.87C44.0977 173.33 43.9077 172.59 43.9077 171.65V167.06H46.1127V171.365C46.1127 171.865 46.1877 172.23 46.3377 172.46C46.4877 172.69 46.7727 172.805 47.1927 172.805C47.4727 172.805 47.7177 172.745 47.9277 172.625C48.1477 172.505 48.3877 172.28 48.6477 171.95V167.06H50.8527V174.5ZM54.5819 168.785H52.7069V167.15L54.6869 167.06L54.9719 165.08H56.7869V167.06H59.9369V168.785H56.7869V171.395C56.7869 171.965 56.9119 172.37 57.1619 172.61C57.4119 172.84 57.8069 172.955 58.3469 172.955C58.6369 172.955 58.9019 172.93 59.1419 172.88C59.3819 172.83 59.6119 172.765 59.8319 172.685L60.2219 174.275C59.8919 174.375 59.5219 174.465 59.1119 174.545C58.7119 174.635 58.2719 174.68 57.7919 174.68C57.2019 174.68 56.7019 174.6 56.2919 174.44C55.8819 174.28 55.5469 174.06 55.2869 173.78C55.0369 173.49 54.8569 173.145 54.7469 172.745C54.6369 172.345 54.5819 171.9 54.5819 171.41V168.785Z" fill="white"/>
<rect x="80" width="136" height="31" fill="#333333"/>
<rect x="80" width="136" height="31" fill="#333333"/>
<rect x="1.01071" width="79" height="31" fill="#090808"/>
<path d="M13.1157 17.8101C13.1157 17.5513 12.9863 17.3486 12.7275 17.2021C12.4736 17.0508 12.0634 16.9165 11.497 16.7993C9.61227 16.4038 8.66989 15.603 8.66989 14.397C8.66989 13.6938 8.96042 13.1079 9.54147 12.6392C10.1274 12.1655 10.8916 11.9287 11.834 11.9287C12.8398 11.9287 13.643 12.1655 14.2436 12.6392C14.8491 13.1128 15.1518 13.728 15.1518 14.4849H13.0351C13.0351 14.1821 12.9375 13.9331 12.7422 13.7378C12.5468 13.5376 12.2417 13.4375 11.8266 13.4375C11.4702 13.4375 11.1943 13.5181 10.999 13.6792C10.8037 13.8403 10.706 14.0454 10.706 14.2944C10.706 14.5288 10.8159 14.7192 11.0356 14.8657C11.2602 15.0073 11.6362 15.1318 12.1635 15.2393C12.6909 15.3418 13.1352 15.459 13.4966 15.5908C14.6147 16.001 15.1738 16.7114 15.1738 17.7222C15.1738 18.4448 14.8637 19.0308 14.2436 19.48C13.6235 19.9243 12.8227 20.1465 11.8413 20.1465C11.1772 20.1465 10.5864 20.0293 10.0688 19.7949C9.55612 19.5557 9.15329 19.231 8.86032 18.8208C8.56735 18.4058 8.42087 17.959 8.42087 17.4805H10.4277C10.4472 17.8564 10.5864 18.1445 10.8452 18.3447C11.104 18.5449 11.4507 18.645 11.8852 18.645C12.2905 18.645 12.5957 18.5693 12.8008 18.418C13.0107 18.2617 13.1157 18.0591 13.1157 17.8101ZM19.8393 18.4399C20.2299 18.4399 20.5473 18.3325 20.7915 18.1177C21.0356 17.9028 21.1626 17.6172 21.1723 17.2607H23.1572C23.1523 17.7979 23.0058 18.291 22.7177 18.7402C22.4297 19.1846 22.0341 19.5312 21.5312 19.7803C21.0332 20.0244 20.4814 20.1465 19.8759 20.1465C18.7431 20.1465 17.8496 19.7876 17.1953 19.0698C16.541 18.3472 16.2138 17.3511 16.2138 16.0815V15.9424C16.2138 14.7217 16.5385 13.7476 17.188 13.02C17.8374 12.2925 18.7285 11.9287 19.8613 11.9287C20.8525 11.9287 21.646 12.2119 22.2417 12.7783C22.8423 13.3398 23.1474 14.0894 23.1572 15.0269H21.1723C21.1626 14.6167 21.0356 14.2847 20.7915 14.0308C20.5473 13.772 20.2251 13.6426 19.8247 13.6426C19.3315 13.6426 18.958 13.8232 18.7041 14.1846C18.455 14.541 18.3305 15.1221 18.3305 15.9277V16.1475C18.3305 16.9629 18.455 17.5488 18.7041 17.9053C18.9531 18.2617 19.3315 18.4399 19.8393 18.4399ZM28.8188 14.0601C28.5307 14.021 28.2768 14.0015 28.0571 14.0015C27.2563 14.0015 26.7314 14.2725 26.4824 14.8145V20H24.3657V12.0752H26.3652L26.4238 13.02C26.8486 12.2925 27.437 11.9287 28.1889 11.9287C28.4233 11.9287 28.643 11.9604 28.8481 12.0239L28.8188 14.0601ZM32.0781 20H29.9541V12.0752H32.0781V20ZM29.8296 10.0244C29.8296 9.70703 29.9345 9.4458 30.1445 9.24072C30.3593 9.03564 30.6499 8.93311 31.0161 8.93311C31.3774 8.93311 31.6655 9.03564 31.8803 9.24072C32.0952 9.4458 32.2026 9.70703 32.2026 10.0244C32.2026 10.3467 32.0927 10.6104 31.873 10.8154C31.6582 11.0205 31.3725 11.123 31.0161 11.123C30.6596 11.123 30.3716 11.0205 30.1518 10.8154C29.937 10.6104 29.8296 10.3467 29.8296 10.0244ZM40.9624 16.1108C40.9624 17.3315 40.6841 18.3105 40.1274 19.0479C39.5757 19.7803 38.8286 20.1465 37.8862 20.1465C37.0854 20.1465 36.4384 19.8682 35.9453 19.3115V23.0469H33.8286V12.0752H35.7915L35.8647 12.8516C36.3774 12.2363 37.0464 11.9287 37.8716 11.9287C38.8481 11.9287 39.6074 12.29 40.1494 13.0127C40.6914 13.7354 40.9624 14.7314 40.9624 16.001V16.1108ZM38.8457 15.957C38.8457 15.2197 38.7138 14.6509 38.4502 14.2505C38.1914 13.8501 37.813 13.6499 37.3149 13.6499C36.6508 13.6499 36.1943 13.9038 35.9453 14.4116V17.6562C36.2041 18.1787 36.6655 18.4399 37.3296 18.4399C38.3403 18.4399 38.8457 17.6123 38.8457 15.957ZM44.8149 10.127V12.0752H46.1699V13.6279H44.8149V17.583C44.8149 17.876 44.8711 18.0859 44.9834 18.2129C45.0957 18.3398 45.3105 18.4033 45.6279 18.4033C45.8623 18.4033 46.0698 18.3862 46.2505 18.3521V19.9561C45.8354 20.083 45.4082 20.1465 44.9687 20.1465C43.4843 20.1465 42.7275 19.397 42.6982 17.8979V13.6279H41.541V12.0752H42.6982V10.127H44.8149ZM47.459 18.96C47.459 18.623 47.5713 18.3496 47.7959 18.1396C48.0254 17.9297 48.311 17.8247 48.6528 17.8247C48.9995 17.8247 49.2851 17.9297 49.5097 18.1396C49.7392 18.3496 49.854 18.623 49.854 18.96C49.854 19.292 49.7417 19.563 49.5171 19.7729C49.2924 19.978 49.0044 20.0806 48.6528 20.0806C48.3061 20.0806 48.0205 19.978 47.7959 19.7729C47.5713 19.563 47.459 19.292 47.459 18.96ZM58.8481 16.1108C58.8481 17.3315 58.5698 18.3105 58.0132 19.0479C57.4614 19.7803 56.7143 20.1465 55.7719 20.1465C54.9712 20.1465 54.3242 19.8682 53.831 19.3115V23.0469H51.7143V12.0752H53.6772L53.7505 12.8516C54.2632 12.2363 54.9321 11.9287 55.7573 11.9287C56.7339 11.9287 57.4931 12.29 58.0351 13.0127C58.5771 13.7354 58.8481 14.7314 58.8481 16.001V16.1108ZM56.7314 15.957C56.7314 15.2197 56.5996 14.6509 56.3359 14.2505C56.0771 13.8501 55.6987 13.6499 55.2007 13.6499C54.5366 13.6499 54.08 13.9038 53.831 14.4116V17.6562C54.0898 18.1787 54.5512 18.4399 55.2153 18.4399C56.226 18.4399 56.7314 17.6123 56.7314 15.957ZM63.0376 17.0044L64.5024 12.0752H66.7729L63.5869 21.2305L63.4111 21.6479C62.9375 22.6831 62.1562 23.2007 61.0674 23.2007C60.7597 23.2007 60.4472 23.1543 60.1299 23.0615V21.4575L60.4521 21.4648C60.8525 21.4648 61.1504 21.4038 61.3457 21.2817C61.5459 21.1597 61.7021 20.957 61.8144 20.6738L62.0634 20.022L59.2876 12.0752H61.5654L63.0376 17.0044Z" fill="white"/>
<line y1="154.5" x2="216.002" y2="154.5" stroke="white"/>
<path d="M11.2957 51.585V53.76H9.09071V43.56H10.8907L11.0557 44.31H11.1007C11.4007 44.04 11.7457 43.82 12.1357 43.65C12.5257 43.47 12.9207 43.38 13.3207 43.38C13.7807 43.38 14.1957 43.47 14.5657 43.65C14.9357 43.83 15.2507 44.085 15.5107 44.415C15.7707 44.745 15.9657 45.145 16.0957 45.615C16.2357 46.075 16.3057 46.59 16.3057 47.16C16.3057 47.8 16.2157 48.37 16.0357 48.87C15.8557 49.36 15.6157 49.78 15.3157 50.13C15.0157 50.47 14.6707 50.73 14.2807 50.91C13.9007 51.09 13.5007 51.18 13.0807 51.18C12.4007 51.18 11.7807 50.91 11.2207 50.37L11.2957 51.585ZM11.2957 48.885C11.5057 49.065 11.7207 49.195 11.9407 49.275C12.1707 49.345 12.3807 49.38 12.5707 49.38C12.9907 49.38 13.3407 49.21 13.6207 48.87C13.9007 48.52 14.0407 47.96 14.0407 47.19C14.0407 45.85 13.5857 45.18 12.6757 45.18C12.2057 45.18 11.7457 45.41 11.2957 45.87V48.885ZM18.7449 43.56H20.5449L20.7249 45.18H20.7699C21.1399 44.57 21.5849 44.12 22.1049 43.83C22.6249 43.53 23.1849 43.38 23.7849 43.38C24.1149 43.38 24.3799 43.405 24.5799 43.455C24.7899 43.505 25.0049 43.58 25.2249 43.68L24.7749 45.525C24.5449 45.455 24.3349 45.405 24.1449 45.375C23.9649 45.335 23.7349 45.315 23.4549 45.315C22.9949 45.315 22.5399 45.45 22.0899 45.72C21.6499 45.99 21.2699 46.46 20.9499 47.13V51H18.7449V43.56ZM27.184 43.56H32.374V51H30.169V45.285H27.184V43.56ZM31.174 42.465C30.744 42.465 30.389 42.345 30.109 42.105C29.839 41.865 29.704 41.54 29.704 41.13C29.704 40.72 29.839 40.39 30.109 40.14C30.389 39.88 30.744 39.75 31.174 39.75C31.604 39.75 31.954 39.88 32.224 40.14C32.504 40.39 32.644 40.72 32.644 41.13C32.644 41.54 32.504 41.865 32.224 42.105C31.954 42.345 31.604 42.465 31.174 42.465ZM35.9981 47.28C35.9981 46.66 36.1131 46.11 36.3431 45.63C36.5831 45.14 36.8981 44.73 37.2881 44.4C37.6881 44.07 38.1481 43.82 38.6681 43.65C39.1881 43.47 39.7331 43.38 40.3031 43.38C40.8931 43.38 41.4231 43.475 41.8931 43.665C42.3731 43.855 42.7731 44.095 43.0931 44.385L42.0731 45.75C41.5231 45.36 40.9731 45.165 40.4231 45.165C39.7831 45.165 39.2631 45.355 38.8631 45.735C38.4631 46.115 38.2631 46.63 38.2631 47.28C38.2631 47.93 38.4531 48.445 38.8331 48.825C39.2231 49.205 39.7281 49.395 40.3481 49.395C40.7381 49.395 41.0981 49.325 41.4281 49.185C41.7581 49.045 42.0531 48.88 42.3131 48.69L43.2131 50.085C42.7631 50.465 42.2631 50.745 41.7131 50.925C41.1731 51.095 40.6481 51.18 40.1381 51.18C39.5481 51.18 39.0031 51.095 38.5031 50.925C38.0031 50.745 37.5631 50.49 37.1831 50.16C36.8131 49.83 36.5231 49.425 36.3131 48.945C36.1031 48.455 35.9981 47.9 35.9981 47.28ZM44.8123 47.28C44.8123 46.67 44.9173 46.125 45.1273 45.645C45.3473 45.165 45.6373 44.76 45.9973 44.43C46.3573 44.09 46.7673 43.83 47.2273 43.65C47.6973 43.47 48.1823 43.38 48.6823 43.38C49.2523 43.38 49.7573 43.47 50.1973 43.65C50.6373 43.83 51.0023 44.08 51.2923 44.4C51.5823 44.72 51.8023 45.1 51.9523 45.54C52.1023 45.97 52.1773 46.44 52.1773 46.95C52.1773 47.15 52.1673 47.34 52.1473 47.52C52.1273 47.7 52.1073 47.835 52.0873 47.925H47.0773C47.1573 48.485 47.3973 48.89 47.7973 49.14C48.2073 49.38 48.6873 49.5 49.2373 49.5C49.5773 49.5 49.8973 49.46 50.1973 49.38C50.5073 49.29 50.8273 49.16 51.1573 48.99L51.8773 50.31C51.4573 50.58 50.9873 50.795 50.4673 50.955C49.9473 51.105 49.4373 51.18 48.9373 51.18C48.3573 51.18 47.8173 51.095 47.3173 50.925C46.8173 50.745 46.3823 50.49 46.0123 50.16C45.6423 49.82 45.3473 49.41 45.1273 48.93C44.9173 48.45 44.8123 47.9 44.8123 47.28ZM50.1823 46.47C50.1823 46.05 50.0673 45.71 49.8373 45.45C49.6073 45.19 49.2373 45.06 48.7273 45.06C48.3273 45.06 47.9723 45.175 47.6623 45.405C47.3523 45.635 47.1473 45.99 47.0473 46.47H50.1823ZM63.0256 43.53H69.9256V45.09H63.0256V43.53ZM63.0256 46.995H69.9256V48.555H63.0256V46.995ZM38.2781 88.585V90.76H36.0731V80.56H37.8731L38.0381 81.31H38.0831C38.3831 81.04 38.7281 80.82 39.1181 80.65C39.5081 80.47 39.9031 80.38 40.3031 80.38C40.7631 80.38 41.1781 80.47 41.5481 80.65C41.9181 80.83 42.2331 81.085 42.4931 81.415C42.7531 81.745 42.9481 82.145 43.0781 82.615C43.2181 83.075 43.2881 83.59 43.2881 84.16C43.2881 84.8 43.1981 85.37 43.0181 85.87C42.8381 86.36 42.5981 86.78 42.2981 87.13C41.9981 87.47 41.6531 87.73 41.2631 87.91C40.8831 88.09 40.4831 88.18 40.0631 88.18C39.3831 88.18 38.7631 87.91 38.2031 87.37L38.2781 88.585ZM38.2781 85.885C38.4881 86.065 38.7031 86.195 38.9231 86.275C39.1531 86.345 39.3631 86.38 39.5531 86.38C39.9731 86.38 40.3231 86.21 40.6031 85.87C40.8831 85.52 41.0231 84.96 41.0231 84.19C41.0231 82.85 40.5681 82.18 39.6581 82.18C39.1881 82.18 38.7281 82.41 38.2781 82.87V85.885ZM45.7273 80.56H47.5273L47.7073 82.18H47.7523C48.1223 81.57 48.5673 81.12 49.0873 80.83C49.6073 80.53 50.1673 80.38 50.7673 80.38C51.0973 80.38 51.3623 80.405 51.5623 80.455C51.7723 80.505 51.9873 80.58 52.2073 80.68L51.7573 82.525C51.5273 82.455 51.3173 82.405 51.1273 82.375C50.9473 82.335 50.7173 82.315 50.4373 82.315C49.9773 82.315 49.5223 82.45 49.0723 82.72C48.6323 82.99 48.2523 83.46 47.9323 84.13V88H45.7273V80.56ZM54.1664 80.56H59.3564V88H57.1514V82.285H54.1664V80.56ZM58.1564 79.465C57.7264 79.465 57.3714 79.345 57.0914 79.105C56.8214 78.865 56.6864 78.54 56.6864 78.13C56.6864 77.72 56.8214 77.39 57.0914 77.14C57.3714 76.88 57.7264 76.75 58.1564 76.75C58.5864 76.75 58.9364 76.88 59.2064 77.14C59.4864 77.39 59.6264 77.72 59.6264 78.13C59.6264 78.54 59.4864 78.865 59.2064 79.105C58.9364 79.345 58.5864 79.465 58.1564 79.465ZM62.9806 84.28C62.9806 83.66 63.0956 83.11 63.3256 82.63C63.5656 82.14 63.8806 81.73 64.2706 81.4C64.6706 81.07 65.1306 80.82 65.6506 80.65C66.1706 80.47 66.7156 80.38 67.2856 80.38C67.8756 80.38 68.4056 80.475 68.8756 80.665C69.3556 80.855 69.7556 81.095 70.0756 81.385L69.0556 82.75C68.5056 82.36 67.9556 82.165 67.4056 82.165C66.7656 82.165 66.2456 82.355 65.8456 82.735C65.4456 83.115 65.2456 83.63 65.2456 84.28C65.2456 84.93 65.4356 85.445 65.8156 85.825C66.2056 86.205 66.7106 86.395 67.3306 86.395C67.7206 86.395 68.0806 86.325 68.4106 86.185C68.7406 86.045 69.0356 85.88 69.2956 85.69L70.1956 87.085C69.7456 87.465 69.2456 87.745 68.6956 87.925C68.1556 88.095 67.6306 88.18 67.1206 88.18C66.5306 88.18 65.9856 88.095 65.4856 87.925C64.9856 87.745 64.5456 87.49 64.1656 87.16C63.7956 86.83 63.5056 86.425 63.2956 85.945C63.0856 85.455 62.9806 84.9 62.9806 84.28ZM71.7947 84.28C71.7947 83.67 71.8997 83.125 72.1097 82.645C72.3297 82.165 72.6197 81.76 72.9797 81.43C73.3397 81.09 73.7497 80.83 74.2097 80.65C74.6797 80.47 75.1647 80.38 75.6647 80.38C76.2347 80.38 76.7397 80.47 77.1797 80.65C77.6197 80.83 77.9847 81.08 78.2747 81.4C78.5647 81.72 78.7847 82.1 78.9347 82.54C79.0847 82.97 79.1597 83.44 79.1597 83.95C79.1597 84.15 79.1497 84.34 79.1297 84.52C79.1097 84.7 79.0897 84.835 79.0697 84.925H74.0597C74.1397 85.485 74.3797 85.89 74.7797 86.14C75.1897 86.38 75.6697 86.5 76.2197 86.5C76.5597 86.5 76.8797 86.46 77.1797 86.38C77.4897 86.29 77.8097 86.16 78.1397 85.99L78.8597 87.31C78.4397 87.58 77.9697 87.795 77.4497 87.955C76.9297 88.105 76.4197 88.18 75.9197 88.18C75.3397 88.18 74.7997 88.095 74.2997 87.925C73.7997 87.745 73.3647 87.49 72.9947 87.16C72.6247 86.82 72.3297 86.41 72.1097 85.93C71.8997 85.45 71.7947 84.9 71.7947 84.28ZM77.1647 83.47C77.1647 83.05 77.0497 82.71 76.8197 82.45C76.5897 82.19 76.2197 82.06 75.7097 82.06C75.3097 82.06 74.9547 82.175 74.6447 82.405C74.3347 82.635 74.1297 82.99 74.0297 83.47H77.1647ZM90.008 80.53H96.908V82.09H90.008V80.53ZM90.008 83.995H96.908V85.555H90.008V83.995ZM99.0021 80.53H105.902V82.09H99.0021V80.53ZM99.0021 83.995H105.902V85.555H99.0021V83.995ZM127.695 81.58C127.695 81.33 127.735 81.1 127.815 80.89C127.905 80.67 128.025 80.48 128.175 80.32C128.325 80.16 128.505 80.035 128.715 79.945C128.935 79.855 129.175 79.81 129.435 79.81C129.695 79.81 129.93 79.855 130.14 79.945C130.36 80.035 130.545 80.16 130.695 80.32C130.845 80.48 130.96 80.67 131.04 80.89C131.13 81.1 131.175 81.33 131.175 81.58C131.175 82.08 131.015 82.5 130.695 82.84C130.375 83.17 129.955 83.335 129.435 83.335C128.915 83.335 128.495 83.17 128.175 82.84C127.855 82.5 127.695 82.08 127.695 81.58ZM127.695 86.425C127.695 86.175 127.735 85.945 127.815 85.735C127.905 85.515 128.025 85.325 128.175 85.165C128.325 85.005 128.505 84.88 128.715 84.79C128.935 84.7 129.175 84.655 129.435 84.655C129.695 84.655 129.93 84.7 130.14 84.79C130.36 84.88 130.545 85.005 130.695 85.165C130.845 85.325 130.96 85.515 131.04 85.735C131.13 85.945 131.175 86.175 131.175 86.425C131.175 86.925 131.015 87.345 130.695 87.685C130.375 88.015 129.955 88.18 129.435 88.18C128.915 88.18 128.495 88.015 128.175 87.685C127.855 87.345 127.695 86.925 127.695 86.425ZM94.838 109.685C93.858 108.815 93.083 107.81 92.513 106.67C91.953 105.53 91.673 104.25 91.673 102.83C91.673 101.41 91.953 100.13 92.513 98.99C93.083 97.85 93.858 96.845 94.838 95.975L96.068 96.95C95.178 97.82 94.528 98.725 94.118 99.665C93.718 100.595 93.518 101.65 93.518 102.83C93.518 103.42 93.568 103.98 93.668 104.51C93.768 105.03 93.918 105.53 94.118 106.01C94.328 106.49 94.593 106.95 94.913 107.39C95.233 107.84 95.618 108.28 96.068 108.71L94.838 109.685ZM153.807 108.71C154.257 108.28 154.642 107.84 154.962 107.39C155.282 106.95 155.542 106.49 155.742 106.01C155.952 105.53 156.107 105.03 156.207 104.51C156.307 103.98 156.357 103.42 156.357 102.83C156.357 101.65 156.152 100.595 155.742 99.665C155.342 98.725 154.697 97.82 153.807 96.95L155.037 95.975C156.017 96.845 156.787 97.85 157.347 98.99C157.917 100.13 158.202 101.41 158.202 102.83C158.202 104.25 157.917 105.53 157.347 106.67C156.787 107.81 156.017 108.815 155.037 109.685L153.807 108.71ZM46.7473 119.58C46.7473 119.33 46.7873 119.1 46.8673 118.89C46.9573 118.67 47.0773 118.48 47.2273 118.32C47.3773 118.16 47.5573 118.035 47.7673 117.945C47.9873 117.855 48.2273 117.81 48.4873 117.81C48.7473 117.81 48.9823 117.855 49.1923 117.945C49.4123 118.035 49.5973 118.16 49.7473 118.32C49.8973 118.48 50.0123 118.67 50.0923 118.89C50.1823 119.1 50.2273 119.33 50.2273 119.58C50.2273 120.08 50.0673 120.5 49.7473 120.84C49.4273 121.17 49.0073 121.335 48.4873 121.335C47.9673 121.335 47.5473 121.17 47.2273 120.84C46.9073 120.5 46.7473 120.08 46.7473 119.58ZM46.7473 124.425C46.7473 124.175 46.7873 123.945 46.8673 123.735C46.9573 123.515 47.0773 123.325 47.2273 123.165C47.3773 123.005 47.5573 122.88 47.7673 122.79C47.9873 122.7 48.2273 122.655 48.4873 122.655C48.7473 122.655 48.9823 122.7 49.1923 122.79C49.4123 122.88 49.5973 123.005 49.7473 123.165C49.8973 123.325 50.0123 123.515 50.0923 123.735C50.1823 123.945 50.2273 124.175 50.2273 124.425C50.2273 124.925 50.0673 125.345 49.7473 125.685C49.4273 126.015 49.0073 126.18 48.4873 126.18C47.9673 126.18 47.5473 126.015 47.2273 125.685C46.9073 125.345 46.7473 124.925 46.7473 124.425ZM94.838 147.685C93.858 146.815 93.083 145.81 92.513 144.67C91.953 143.53 91.673 142.25 91.673 140.83C91.673 139.41 91.953 138.13 92.513 136.99C93.083 135.85 93.858 134.845 94.838 133.975L96.068 134.95C95.178 135.82 94.528 136.725 94.118 137.665C93.718 138.595 93.518 139.65 93.518 140.83C93.518 141.42 93.568 141.98 93.668 142.51C93.768 143.03 93.918 143.53 94.118 144.01C94.328 144.49 94.593 144.95 94.913 145.39C95.233 145.84 95.618 146.28 96.068 146.71L94.838 147.685ZM189.784 146.71C190.234 146.28 190.619 145.84 190.939 145.39C191.259 144.95 191.519 144.49 191.719 144.01C191.929 143.53 192.084 143.03 192.184 142.51C192.284 141.98 192.334 141.42 192.334 140.83C192.334 139.65 192.129 138.595 191.719 137.665C191.319 136.725 190.674 135.82 189.784 134.95L191.014 133.975C191.994 134.845 192.764 135.85 193.324 136.99C193.894 138.13 194.179 139.41 194.179 140.83C194.179 142.25 193.894 143.53 193.324 144.67C192.764 145.81 191.994 146.815 191.014 147.685L189.784 146.71Z" fill="white"/>
<path d="M81.6438 48.45C81.9638 48.71 82.3038 48.935 82.6638 49.125C83.0338 49.305 83.4438 49.395 83.8938 49.395C84.4338 49.395 84.8738 49.27 85.2138 49.02C85.5638 48.77 85.7388 48.4 85.7388 47.91C85.7388 47.43 85.5738 47.065 85.2438 46.815C84.9238 46.565 84.5088 46.44 83.9988 46.44C83.8388 46.44 83.6938 46.45 83.5638 46.47C83.4438 46.48 83.3238 46.505 83.2038 46.545C83.0838 46.585 82.9588 46.635 82.8288 46.695C82.6988 46.755 82.5538 46.83 82.3938 46.92L81.4188 46.29L81.6738 41.475H87.5088V43.335H83.5788L83.4138 45.12C83.6338 45.04 83.8388 44.985 84.0288 44.955C84.2188 44.915 84.4338 44.895 84.6738 44.895C85.1138 44.895 85.5288 44.955 85.9188 45.075C86.3188 45.195 86.6688 45.375 86.9688 45.615C87.2688 45.855 87.5038 46.16 87.6738 46.53C87.8538 46.9 87.9438 47.34 87.9438 47.85C87.9438 48.38 87.8388 48.85 87.6288 49.26C87.4288 49.67 87.1538 50.02 86.8038 50.31C86.4638 50.59 86.0688 50.805 85.6188 50.955C85.1688 51.105 84.6988 51.18 84.2088 51.18C83.3788 51.18 82.6738 51.055 82.0938 50.805C81.5238 50.545 81.0438 50.225 80.6538 49.845L81.6438 48.45ZM120.44 88.18C119.89 88.18 119.39 88.075 118.94 87.865C118.49 87.645 118.105 87.325 117.785 86.905C117.465 86.485 117.215 85.965 117.035 85.345C116.865 84.725 116.78 84.01 116.78 83.2C116.78 82.39 116.865 81.68 117.035 81.07C117.215 80.46 117.465 79.95 117.785 79.54C118.105 79.12 118.49 78.81 118.94 78.61C119.39 78.4 119.89 78.295 120.44 78.295C120.99 78.295 121.49 78.4 121.94 78.61C122.39 78.81 122.775 79.12 123.095 79.54C123.415 79.95 123.66 80.46 123.83 81.07C124.01 81.68 124.1 82.39 124.1 83.2C124.1 84.01 124.01 84.725 123.83 85.345C123.66 85.965 123.415 86.485 123.095 86.905C122.775 87.325 122.39 87.645 121.94 87.865C121.49 88.075 120.99 88.18 120.44 88.18ZM120.44 80.005C120.2 80.005 119.975 80.055 119.765 80.155C119.565 80.255 119.39 80.43 119.24 80.68C119.09 80.92 118.97 81.245 118.88 81.655C118.79 82.065 118.745 82.58 118.745 83.2C118.745 83.82 118.79 84.34 118.88 84.76C118.97 85.17 119.09 85.505 119.24 85.765C119.39 86.015 119.565 86.195 119.765 86.305C119.975 86.415 120.2 86.47 120.44 86.47C120.68 86.47 120.9 86.415 121.1 86.305C121.31 86.195 121.49 86.015 121.64 85.765C121.79 85.505 121.91 85.17 122 84.76C122.09 84.34 122.135 83.82 122.135 83.2C122.135 82.58 122.09 82.065 122 81.655C121.91 81.245 121.79 80.92 121.64 80.68C121.49 80.43 121.31 80.255 121.1 80.155C120.9 80.055 120.68 80.005 120.44 80.005ZM120.44 84.31C120.12 84.31 119.85 84.21 119.63 84.01C119.42 83.8 119.315 83.52 119.315 83.17C119.315 82.82 119.42 82.545 119.63 82.345C119.85 82.135 120.12 82.03 120.44 82.03C120.76 82.03 121.025 82.135 121.235 82.345C121.455 82.545 121.565 82.82 121.565 83.17C121.565 83.52 121.455 83.8 121.235 84.01C121.025 84.21 120.76 84.31 120.44 84.31Z" fill="#F0E442"/>
<path d="M9.19571 80.56H14.3857V88H12.1807V82.285H9.19571V80.56ZM13.1857 79.465C12.7557 79.465 12.4007 79.345 12.1207 79.105C11.8507 78.865 11.7157 78.54 11.7157 78.13C11.7157 77.72 11.8507 77.39 12.1207 77.14C12.4007 76.88 12.7557 76.75 13.1857 76.75C13.6157 76.75 13.9657 76.88 14.2357 77.14C14.5157 77.39 14.6557 77.72 14.6557 78.13C14.6557 78.54 14.5157 78.865 14.2357 79.105C13.9657 79.345 13.6157 79.465 13.1857 79.465ZM25.3599 79.33C24.8699 79.14 24.3499 79.045 23.7999 79.045C23.3199 79.045 22.9649 79.15 22.7349 79.36C22.5149 79.57 22.4049 79.9 22.4049 80.35V80.56H24.9699V82.285H22.4049V88H20.1999V82.285H18.2349V80.65L20.1999 80.56V80.365C20.1999 79.935 20.2649 79.535 20.3949 79.165C20.5249 78.795 20.7249 78.475 20.9949 78.205C21.2649 77.925 21.6099 77.705 22.0299 77.545C22.4499 77.385 22.9499 77.305 23.5299 77.305C23.9599 77.305 24.3599 77.345 24.7299 77.425C25.1099 77.505 25.4599 77.6 25.7799 77.71L25.3599 79.33ZM8.83571 122.28C8.83571 121.67 8.94071 121.125 9.15071 120.645C9.37071 120.165 9.66071 119.76 10.0207 119.43C10.3807 119.09 10.7907 118.83 11.2507 118.65C11.7207 118.47 12.2057 118.38 12.7057 118.38C13.2757 118.38 13.7807 118.47 14.2207 118.65C14.6607 118.83 15.0257 119.08 15.3157 119.4C15.6057 119.72 15.8257 120.1 15.9757 120.54C16.1257 120.97 16.2007 121.44 16.2007 121.95C16.2007 122.15 16.1907 122.34 16.1707 122.52C16.1507 122.7 16.1307 122.835 16.1107 122.925H11.1007C11.1807 123.485 11.4207 123.89 11.8207 124.14C12.2307 124.38 12.7107 124.5 13.2607 124.5C13.6007 124.5 13.9207 124.46 14.2207 124.38C14.5307 124.29 14.8507 124.16 15.1807 123.99L15.9007 125.31C15.4807 125.58 15.0107 125.795 14.4907 125.955C13.9707 126.105 13.4607 126.18 12.9607 126.18C12.3807 126.18 11.8407 126.095 11.3407 125.925C10.8407 125.745 10.4057 125.49 10.0357 125.16C9.66571 124.82 9.37071 124.41 9.15071 123.93C8.94071 123.45 8.83571 122.9 8.83571 122.28ZM14.2057 121.47C14.2057 121.05 14.0907 120.71 13.8607 120.45C13.6307 120.19 13.2607 120.06 12.7507 120.06C12.3507 120.06 11.9957 120.175 11.6857 120.405C11.3757 120.635 11.1707 120.99 11.0707 121.47H14.2057ZM17.9349 115.485H22.2999V123.18C22.2999 123.41 22.3299 123.605 22.3899 123.765C22.4599 123.915 22.5499 124.04 22.6599 124.14C22.7799 124.23 22.9099 124.295 23.0499 124.335C23.1999 124.375 23.3499 124.395 23.4999 124.395C23.6699 124.395 23.8499 124.38 24.0399 124.35C24.2299 124.31 24.4399 124.245 24.6699 124.155L25.1649 125.775C24.9649 125.835 24.7799 125.89 24.6099 125.94C24.4399 125.99 24.2699 126.03 24.0999 126.06C23.9299 126.1 23.7499 126.13 23.5599 126.15C23.3699 126.17 23.1599 126.18 22.9299 126.18C21.9899 126.18 21.2799 125.905 20.7999 125.355C20.3299 124.795 20.0949 124.04 20.0949 123.09V117.225H17.9349V115.485ZM27.784 123.66C28.214 123.93 28.644 124.145 29.074 124.305C29.514 124.465 29.984 124.545 30.484 124.545C30.994 124.545 31.359 124.49 31.579 124.38C31.799 124.27 31.909 124.115 31.909 123.915C31.909 123.685 31.724 123.5 31.354 123.36C30.994 123.21 30.514 123.05 29.914 122.88C29.584 122.79 29.259 122.685 28.939 122.565C28.629 122.435 28.349 122.285 28.099 122.115C27.849 121.935 27.644 121.73 27.484 121.5C27.334 121.27 27.259 121.005 27.259 120.705C27.259 120.365 27.339 120.05 27.499 119.76C27.659 119.47 27.884 119.225 28.174 119.025C28.474 118.825 28.834 118.67 29.254 118.56C29.684 118.44 30.164 118.38 30.694 118.38C31.354 118.38 31.954 118.49 32.494 118.71C33.044 118.92 33.514 119.15 33.904 119.4L32.914 120.72C32.574 120.52 32.224 120.355 31.864 120.225C31.504 120.085 31.129 120.015 30.739 120.015C30.269 120.015 29.934 120.065 29.734 120.165C29.544 120.265 29.449 120.41 29.449 120.6C29.449 120.71 29.499 120.81 29.599 120.9C29.699 120.99 29.834 121.07 30.004 121.14C30.174 121.21 30.374 121.28 30.604 121.35C30.844 121.41 31.094 121.475 31.354 121.545C31.724 121.645 32.074 121.76 32.404 121.89C32.734 122.01 33.024 122.155 33.274 122.325C33.524 122.495 33.724 122.7 33.874 122.94C34.024 123.18 34.099 123.46 34.099 123.78C34.099 124.12 34.019 124.435 33.859 124.725C33.699 125.015 33.464 125.27 33.154 125.49C32.854 125.7 32.474 125.87 32.014 126C31.564 126.12 31.039 126.18 30.439 126.18C29.769 126.18 29.114 126.07 28.474 125.85C27.834 125.63 27.274 125.36 26.794 125.04L27.784 123.66ZM35.8181 122.28C35.8181 121.67 35.9231 121.125 36.1331 120.645C36.3531 120.165 36.6431 119.76 37.0031 119.43C37.3631 119.09 37.7731 118.83 38.2331 118.65C38.7031 118.47 39.1881 118.38 39.6881 118.38C40.2581 118.38 40.7631 118.47 41.2031 118.65C41.6431 118.83 42.0081 119.08 42.2981 119.4C42.5881 119.72 42.8081 120.1 42.9581 120.54C43.1081 120.97 43.1831 121.44 43.1831 121.95C43.1831 122.15 43.1731 122.34 43.1531 122.52C43.1331 122.7 43.1131 122.835 43.0931 122.925H38.0831C38.1631 123.485 38.4031 123.89 38.8031 124.14C39.2131 124.38 39.6931 124.5 40.2431 124.5C40.5831 124.5 40.9031 124.46 41.2031 124.38C41.5131 124.29 41.8331 124.16 42.1631 123.99L42.8831 125.31C42.4631 125.58 41.9931 125.795 41.4731 125.955C40.9531 126.105 40.4431 126.18 39.9431 126.18C39.3631 126.18 38.8231 126.095 38.3231 125.925C37.8231 125.745 37.3881 125.49 37.0181 125.16C36.6481 124.82 36.3531 124.41 36.1331 123.93C35.9231 123.45 35.8181 122.9 35.8181 122.28ZM41.1881 121.47C41.1881 121.05 41.0731 120.71 40.8431 120.45C40.6131 120.19 40.2431 120.06 39.7331 120.06C39.3331 120.06 38.9781 120.175 38.6681 120.405C38.3581 120.635 38.1531 120.99 38.0531 121.47H41.1881Z" fill="#E69F00"/>
<path d="M47.2723 107.585V109.76H45.0673V99.56H46.8673L47.0323 100.31H47.0773C47.3773 100.04 47.7223 99.82 48.1123 99.65C48.5023 99.47 48.8973 99.38 49.2973 99.38C49.7573 99.38 50.1723 99.47 50.5423 99.65C50.9123 99.83 51.2273 100.085 51.4873 100.415C51.7473 100.745 51.9423 101.145 52.0723 101.615C52.2123 102.075 52.2823 102.59 52.2823 103.16C52.2823 103.8 52.1923 104.37 52.0123 104.87C51.8323 105.36 51.5923 105.78 51.2923 106.13C50.9923 106.47 50.6473 106.73 50.2573 106.91C49.8773 107.09 49.4773 107.18 49.0573 107.18C48.3773 107.18 47.7573 106.91 47.1973 106.37L47.2723 107.585ZM47.2723 104.885C47.4823 105.065 47.6973 105.195 47.9173 105.275C48.1473 105.345 48.3573 105.38 48.5473 105.38C48.9673 105.38 49.3173 105.21 49.5973 104.87C49.8773 104.52 50.0173 103.96 50.0173 103.19C50.0173 101.85 49.5623 101.18 48.6523 101.18C48.1823 101.18 47.7223 101.41 47.2723 101.87V104.885ZM54.7214 99.56H56.5214L56.7014 101.18H56.7464C57.1164 100.57 57.5614 100.12 58.0814 99.83C58.6014 99.53 59.1614 99.38 59.7614 99.38C60.0914 99.38 60.3564 99.405 60.5564 99.455C60.7664 99.505 60.9814 99.58 61.2014 99.68L60.7514 101.525C60.5214 101.455 60.3114 101.405 60.1214 101.375C59.9414 101.335 59.7114 101.315 59.4314 101.315C58.9714 101.315 58.5164 101.45 58.0664 101.72C57.6264 101.99 57.2464 102.46 56.9264 103.13V107H54.7214V99.56ZM63.1606 99.56H68.3506V107H66.1456V101.285H63.1606V99.56ZM67.1506 98.465C66.7206 98.465 66.3656 98.345 66.0856 98.105C65.8156 97.865 65.6806 97.54 65.6806 97.13C65.6806 96.72 65.8156 96.39 66.0856 96.14C66.3656 95.88 66.7206 95.75 67.1506 95.75C67.5806 95.75 67.9306 95.88 68.2006 96.14C68.4806 96.39 68.6206 96.72 68.6206 97.13C68.6206 97.54 68.4806 97.865 68.2006 98.105C67.9306 98.345 67.5806 98.465 67.1506 98.465ZM72.0497 99.56H73.8497L74.0147 100.55H74.0747C74.3947 100.23 74.7597 99.955 75.1697 99.725C75.5897 99.495 76.0797 99.38 76.6397 99.38C77.4797 99.38 78.0947 99.65 78.4847 100.19C78.8747 100.73 79.0697 101.47 79.0697 102.41V107H76.8647V102.695C76.8647 102.195 76.7847 101.83 76.6247 101.6C76.4647 101.37 76.1797 101.255 75.7697 101.255C75.4697 101.255 75.2047 101.32 74.9747 101.45C74.7547 101.58 74.5147 101.775 74.2547 102.035V107H72.0497V99.56ZM82.5738 101.285H80.6988V99.65L82.6788 99.56L82.9638 97.58H84.7788V99.56H87.9288V101.285H84.7788V103.895C84.7788 104.465 84.9038 104.87 85.1538 105.11C85.4038 105.34 85.7988 105.455 86.3388 105.455C86.6288 105.455 86.8938 105.43 87.1338 105.38C87.3738 105.33 87.6038 105.265 87.8238 105.185L88.2138 106.775C87.8838 106.875 87.5138 106.965 87.1038 107.045C86.7038 107.135 86.2638 107.18 85.7838 107.18C85.1938 107.18 84.6938 107.1 84.2838 106.94C83.8738 106.78 83.5388 106.56 83.2788 106.28C83.0288 105.99 82.8488 105.645 82.7388 105.245C82.6288 104.845 82.5738 104.4 82.5738 103.91V101.285ZM47.2723 145.585V147.76H45.0673V137.56H46.8673L47.0323 138.31H47.0773C47.3773 138.04 47.7223 137.82 48.1123 137.65C48.5023 137.47 48.8973 137.38 49.2973 137.38C49.7573 137.38 50.1723 137.47 50.5423 137.65C50.9123 137.83 51.2273 138.085 51.4873 138.415C51.7473 138.745 51.9423 139.145 52.0723 139.615C52.2123 140.075 52.2823 140.59 52.2823 141.16C52.2823 141.8 52.1923 142.37 52.0123 142.87C51.8323 143.36 51.5923 143.78 51.2923 144.13C50.9923 144.47 50.6473 144.73 50.2573 144.91C49.8773 145.09 49.4773 145.18 49.0573 145.18C48.3773 145.18 47.7573 144.91 47.1973 144.37L47.2723 145.585ZM47.2723 142.885C47.4823 143.065 47.6973 143.195 47.9173 143.275C48.1473 143.345 48.3573 143.38 48.5473 143.38C48.9673 143.38 49.3173 143.21 49.5973 142.87C49.8773 142.52 50.0173 141.96 50.0173 141.19C50.0173 139.85 49.5623 139.18 48.6523 139.18C48.1823 139.18 47.7223 139.41 47.2723 139.87V142.885ZM54.7214 137.56H56.5214L56.7014 139.18H56.7464C57.1164 138.57 57.5614 138.12 58.0814 137.83C58.6014 137.53 59.1614 137.38 59.7614 137.38C60.0914 137.38 60.3564 137.405 60.5564 137.455C60.7664 137.505 60.9814 137.58 61.2014 137.68L60.7514 139.525C60.5214 139.455 60.3114 139.405 60.1214 139.375C59.9414 139.335 59.7114 139.315 59.4314 139.315C58.9714 139.315 58.5164 139.45 58.0664 139.72C57.6264 139.99 57.2464 140.46 56.9264 141.13V145H54.7214V137.56ZM63.1606 137.56H68.3506V145H66.1456V139.285H63.1606V137.56ZM67.1506 136.465C66.7206 136.465 66.3656 136.345 66.0856 136.105C65.8156 135.865 65.6806 135.54 65.6806 135.13C65.6806 134.72 65.8156 134.39 66.0856 134.14C66.3656 133.88 66.7206 133.75 67.1506 133.75C67.5806 133.75 67.9306 133.88 68.2006 134.14C68.4806 134.39 68.6206 134.72 68.6206 135.13C68.6206 135.54 68.4806 135.865 68.2006 136.105C67.9306 136.345 67.5806 136.465 67.1506 136.465ZM72.0497 137.56H73.8497L74.0147 138.55H74.0747C74.3947 138.23 74.7597 137.955 75.1697 137.725C75.5897 137.495 76.0797 137.38 76.6397 137.38C77.4797 137.38 78.0947 137.65 78.4847 138.19C78.8747 138.73 79.0697 139.47 79.0697 140.41V145H76.8647V140.695C76.8647 140.195 76.7847 139.83 76.6247 139.6C76.4647 139.37 76.1797 139.255 75.7697 139.255C75.4697 139.255 75.2047 139.32 74.9747 139.45C74.7547 139.58 74.5147 139.775 74.2547 140.035V145H72.0497V137.56ZM82.5738 139.285H80.6988V137.65L82.6788 137.56L82.9638 135.58H84.7788V137.56H87.9288V139.285H84.7788V141.895C84.7788 142.465 84.9038 142.87 85.1538 143.11C85.4038 143.34 85.7988 143.455 86.3388 143.455C86.6288 143.455 86.8938 143.43 87.1338 143.38C87.3738 143.33 87.6038 143.265 87.8238 143.185L88.2138 144.775C87.8838 144.875 87.5138 144.965 87.1038 145.045C86.7038 145.135 86.2638 145.18 85.7838 145.18C85.1938 145.18 84.6938 145.1 84.2838 144.94C83.8738 144.78 83.5388 144.56 83.2788 144.28C83.0288 143.99 82.8488 143.645 82.7388 143.245C82.6288 142.845 82.5738 142.4 82.5738 141.91V139.285Z" fill="#56B4E9"/>
<path d="M101.252 98.9L101.177 96.725H103.727L103.652 98.9L103.127 102.455H101.777L101.252 98.9ZM115.301 98.33C114.811 98.14 114.291 98.045 113.741 98.045C113.261 98.045 112.906 98.15 112.676 98.36C112.456 98.57 112.346 98.9 112.346 99.35V99.56H114.911V101.285H112.346V107H110.141V101.285H108.176V99.65L110.141 99.56V99.365C110.141 98.935 110.206 98.535 110.336 98.165C110.466 97.795 110.666 97.475 110.936 97.205C111.206 96.925 111.551 96.705 111.971 96.545C112.391 96.385 112.891 96.305 113.471 96.305C113.901 96.305 114.301 96.345 114.671 96.425C115.051 96.505 115.401 96.6 115.721 96.71L115.301 98.33ZM117.68 99.56H119.48L119.66 101.18H119.705C120.075 100.57 120.52 100.12 121.04 99.83C121.56 99.53 122.12 99.38 122.72 99.38C123.05 99.38 123.315 99.405 123.515 99.455C123.725 99.505 123.94 99.58 124.16 99.68L123.71 101.525C123.48 101.455 123.27 101.405 123.08 101.375C122.9 101.335 122.67 101.315 122.39 101.315C121.93 101.315 121.475 101.45 121.025 101.72C120.585 101.99 120.205 102.46 119.885 103.13V107H117.68V99.56ZM125.76 103.28C125.76 102.67 125.865 102.125 126.075 101.645C126.295 101.165 126.585 100.76 126.945 100.43C127.305 100.09 127.715 99.83 128.175 99.65C128.645 99.47 129.13 99.38 129.63 99.38C130.2 99.38 130.705 99.47 131.145 99.65C131.585 99.83 131.95 100.08 132.24 100.4C132.53 100.72 132.75 101.1 132.9 101.54C133.05 101.97 133.125 102.44 133.125 102.95C133.125 103.15 133.115 103.34 133.095 103.52C133.075 103.7 133.055 103.835 133.035 103.925H128.025C128.105 104.485 128.345 104.89 128.745 105.14C129.155 105.38 129.635 105.5 130.185 105.5C130.525 105.5 130.845 105.46 131.145 105.38C131.455 105.29 131.775 105.16 132.105 104.99L132.825 106.31C132.405 106.58 131.935 106.795 131.415 106.955C130.895 107.105 130.385 107.18 129.885 107.18C129.305 107.18 128.765 107.095 128.265 106.925C127.765 106.745 127.33 106.49 126.96 106.16C126.59 105.82 126.295 105.41 126.075 104.93C125.865 104.45 125.76 103.9 125.76 103.28ZM131.13 102.47C131.13 102.05 131.015 101.71 130.785 101.45C130.555 101.19 130.185 101.06 129.675 101.06C129.275 101.06 128.92 101.175 128.61 101.405C128.3 101.635 128.095 101.99 127.995 102.47H131.13ZM134.754 103.28C134.754 102.67 134.859 102.125 135.069 101.645C135.289 101.165 135.579 100.76 135.939 100.43C136.299 100.09 136.709 99.83 137.169 99.65C137.639 99.47 138.124 99.38 138.624 99.38C139.194 99.38 139.699 99.47 140.139 99.65C140.579 99.83 140.944 100.08 141.234 100.4C141.524 100.72 141.744 101.1 141.894 101.54C142.044 101.97 142.119 102.44 142.119 102.95C142.119 103.15 142.109 103.34 142.089 103.52C142.069 103.7 142.049 103.835 142.029 103.925H137.019C137.099 104.485 137.339 104.89 137.739 105.14C138.149 105.38 138.629 105.5 139.179 105.5C139.519 105.5 139.839 105.46 140.139 105.38C140.449 105.29 140.769 105.16 141.099 104.99L141.819 106.31C141.399 106.58 140.929 106.795 140.409 106.955C139.889 107.105 139.379 107.18 138.879 107.18C138.299 107.18 137.759 107.095 137.259 106.925C136.759 106.745 136.324 106.49 135.954 106.16C135.584 105.82 135.289 105.41 135.069 104.93C134.859 104.45 134.754 103.9 134.754 103.28ZM140.124 102.47C140.124 102.05 140.009 101.71 139.779 101.45C139.549 101.19 139.179 101.06 138.669 101.06C138.269 101.06 137.914 101.175 137.604 101.405C137.294 101.635 137.089 101.99 136.989 102.47H140.124ZM146.223 98.9L146.148 96.725H148.698L148.623 98.9L148.098 102.455H146.748L146.223 98.9ZM101.252 136.9L101.177 134.725H103.727L103.652 136.9L103.127 140.455H101.777L101.252 136.9ZM108.026 137.56H109.826L109.991 138.55H110.051C110.371 138.23 110.736 137.955 111.146 137.725C111.566 137.495 112.056 137.38 112.616 137.38C113.456 137.38 114.071 137.65 114.461 138.19C114.851 138.73 115.046 139.47 115.046 140.41V145H112.841V140.695C112.841 140.195 112.761 139.83 112.601 139.6C112.441 139.37 112.156 139.255 111.746 139.255C111.446 139.255 111.181 139.32 110.951 139.45C110.731 139.58 110.491 139.775 110.231 140.035V145H108.026V137.56ZM116.645 141.28C116.645 140.66 116.75 140.11 116.96 139.63C117.17 139.14 117.45 138.73 117.8 138.4C118.16 138.07 118.565 137.82 119.015 137.65C119.475 137.47 119.95 137.38 120.44 137.38C120.93 137.38 121.4 137.47 121.85 137.65C122.31 137.82 122.715 138.07 123.065 138.4C123.425 138.73 123.71 139.14 123.92 139.63C124.13 140.11 124.235 140.66 124.235 141.28C124.235 141.9 124.13 142.455 123.92 142.945C123.71 143.425 123.425 143.83 123.065 144.16C122.715 144.49 122.31 144.745 121.85 144.925C121.4 145.095 120.93 145.18 120.44 145.18C119.95 145.18 119.475 145.095 119.015 144.925C118.565 144.745 118.16 144.49 117.8 144.16C117.45 143.83 117.17 143.425 116.96 142.945C116.75 142.455 116.645 141.9 116.645 141.28ZM118.91 141.28C118.91 141.93 119.035 142.445 119.285 142.825C119.545 143.205 119.93 143.395 120.44 143.395C120.95 143.395 121.33 143.205 121.58 142.825C121.84 142.445 121.97 141.93 121.97 141.28C121.97 140.63 121.84 140.115 121.58 139.735C121.33 139.355 120.95 139.165 120.44 139.165C119.93 139.165 119.545 139.355 119.285 139.735C119.035 140.115 118.91 140.63 118.91 141.28ZM127.545 139.285H125.67V137.65L127.65 137.56L127.935 135.58H129.75V137.56H132.9V139.285H129.75V141.895C129.75 142.465 129.875 142.87 130.125 143.11C130.375 143.34 130.77 143.455 131.31 143.455C131.6 143.455 131.865 143.43 132.105 143.38C132.345 143.33 132.575 143.265 132.795 143.185L133.185 144.775C132.855 144.875 132.485 144.965 132.075 145.045C131.675 145.135 131.235 145.18 130.755 145.18C130.165 145.18 129.665 145.1 129.255 144.94C128.845 144.78 128.51 144.56 128.25 144.28C128 143.99 127.82 143.645 127.71 143.245C127.6 142.845 127.545 142.4 127.545 141.91V139.285ZM151.278 136.33C150.788 136.14 150.268 136.045 149.718 136.045C149.238 136.045 148.883 136.15 148.653 136.36C148.433 136.57 148.323 136.9 148.323 137.35V137.56H150.888V139.285H148.323V145H146.118V139.285H144.153V137.65L146.118 137.56V137.365C146.118 136.935 146.183 136.535 146.313 136.165C146.443 135.795 146.643 135.475 146.913 135.205C147.183 134.925 147.528 134.705 147.948 134.545C148.368 134.385 148.868 134.305 149.448 134.305C149.878 134.305 150.278 134.345 150.648 134.425C151.028 134.505 151.378 134.6 151.698 134.71L151.278 136.33ZM153.657 137.56H155.457L155.637 139.18H155.682C156.052 138.57 156.497 138.12 157.017 137.83C157.537 137.53 158.097 137.38 158.697 137.38C159.027 137.38 159.292 137.405 159.492 137.455C159.702 137.505 159.917 137.58 160.137 137.68L159.687 139.525C159.457 139.455 159.247 139.405 159.057 139.375C158.877 139.335 158.647 139.315 158.367 139.315C157.907 139.315 157.452 139.45 157.002 139.72C156.562 139.99 156.182 140.46 155.862 141.13V145H153.657V137.56ZM161.736 141.28C161.736 140.67 161.841 140.125 162.051 139.645C162.271 139.165 162.561 138.76 162.921 138.43C163.281 138.09 163.691 137.83 164.151 137.65C164.621 137.47 165.106 137.38 165.606 137.38C166.176 137.38 166.681 137.47 167.121 137.65C167.561 137.83 167.926 138.08 168.216 138.4C168.506 138.72 168.726 139.1 168.876 139.54C169.026 139.97 169.101 140.44 169.101 140.95C169.101 141.15 169.091 141.34 169.071 141.52C169.051 141.7 169.031 141.835 169.011 141.925H164.001C164.081 142.485 164.321 142.89 164.721 143.14C165.131 143.38 165.611 143.5 166.161 143.5C166.501 143.5 166.821 143.46 167.121 143.38C167.431 143.29 167.751 143.16 168.081 142.99L168.801 144.31C168.381 144.58 167.911 144.795 167.391 144.955C166.871 145.105 166.361 145.18 165.861 145.18C165.281 145.18 164.741 145.095 164.241 144.925C163.741 144.745 163.306 144.49 162.936 144.16C162.566 143.82 162.271 143.41 162.051 142.93C161.841 142.45 161.736 141.9 161.736 141.28ZM167.106 140.47C167.106 140.05 166.991 139.71 166.761 139.45C166.531 139.19 166.161 139.06 165.651 139.06C165.251 139.06 164.896 139.175 164.586 139.405C164.276 139.635 164.071 139.99 163.971 140.47H167.106ZM170.73 141.28C170.73 140.67 170.835 140.125 171.045 139.645C171.265 139.165 171.555 138.76 171.915 138.43C172.275 138.09 172.685 137.83 173.145 137.65C173.615 137.47 174.1 137.38 174.6 137.38C175.17 137.38 175.675 137.47 176.115 137.65C176.555 137.83 176.92 138.08 177.21 138.4C177.5 138.72 177.72 139.1 177.87 139.54C178.02 139.97 178.095 140.44 178.095 140.95C178.095 141.15 178.085 141.34 178.065 141.52C178.045 141.7 178.025 141.835 178.005 141.925H172.995C173.075 142.485 173.315 142.89 173.715 143.14C174.125 143.38 174.605 143.5 175.155 143.5C175.495 143.5 175.815 143.46 176.115 143.38C176.425 143.29 176.745 143.16 177.075 142.99L177.795 144.31C177.375 144.58 176.905 144.795 176.385 144.955C175.865 145.105 175.355 145.18 174.855 145.18C174.275 145.18 173.735 145.095 173.235 144.925C172.735 144.745 172.3 144.49 171.93 144.16C171.56 143.82 171.265 143.41 171.045 142.93C170.835 142.45 170.73 141.9 170.73 141.28ZM176.1 140.47C176.1 140.05 175.985 139.71 175.755 139.45C175.525 139.19 175.155 139.06 174.645 139.06C174.245 139.06 173.89 139.175 173.58 139.405C173.27 139.635 173.065 139.99 172.965 140.47H176.1ZM182.199 136.9L182.124 134.725H184.674L184.599 136.9L184.074 140.455H182.724L182.199 136.9Z" fill="#009E73"/>
<rect x="249" width="215" height="211" fill="black"/>
<path d="M263.356 189.83C262.866 189.64 262.346 189.545 261.796 189.545C261.316 189.545 260.961 189.65 260.731 189.86C260.511 190.07 260.401 190.4 260.401 190.85V191.06H262.966V192.785H260.401V198.5H258.196V192.785H256.231V191.15L258.196 191.06V190.865C258.196 190.435 258.261 190.035 258.391 189.665C258.521 189.295 258.721 188.975 258.991 188.705C259.261 188.425 259.606 188.205 260.026 188.045C260.446 187.885 260.946 187.805 261.526 187.805C261.956 187.805 262.356 187.845 262.726 187.925C263.106 188.005 263.456 188.1 263.776 188.21L263.356 189.83ZM265.735 191.06H267.535L267.715 192.68H267.76C268.13 192.07 268.575 191.62 269.095 191.33C269.615 191.03 270.175 190.88 270.775 190.88C271.105 190.88 271.37 190.905 271.57 190.955C271.78 191.005 271.995 191.08 272.215 191.18L271.765 193.025C271.535 192.955 271.325 192.905 271.135 192.875C270.955 192.835 270.725 192.815 270.445 192.815C269.985 192.815 269.53 192.95 269.08 193.22C268.64 193.49 268.26 193.96 267.94 194.63V198.5H265.735V191.06ZM273.814 194.78C273.814 194.17 273.919 193.625 274.129 193.145C274.349 192.665 274.639 192.26 274.999 191.93C275.359 191.59 275.769 191.33 276.229 191.15C276.699 190.97 277.184 190.88 277.684 190.88C278.254 190.88 278.759 190.97 279.199 191.15C279.639 191.33 280.004 191.58 280.294 191.9C280.584 192.22 280.804 192.6 280.954 193.04C281.104 193.47 281.179 193.94 281.179 194.45C281.179 194.65 281.169 194.84 281.149 195.02C281.129 195.2 281.109 195.335 281.089 195.425H276.079C276.159 195.985 276.399 196.39 276.799 196.64C277.209 196.88 277.689 197 278.239 197C278.579 197 278.899 196.96 279.199 196.88C279.509 196.79 279.829 196.66 280.159 196.49L280.879 197.81C280.459 198.08 279.989 198.295 279.469 198.455C278.949 198.605 278.439 198.68 277.939 198.68C277.359 198.68 276.819 198.595 276.319 198.425C275.819 198.245 275.384 197.99 275.014 197.66C274.644 197.32 274.349 196.91 274.129 196.43C273.919 195.95 273.814 195.4 273.814 194.78ZM279.184 193.97C279.184 193.55 279.069 193.21 278.839 192.95C278.609 192.69 278.239 192.56 277.729 192.56C277.329 192.56 276.974 192.675 276.664 192.905C276.354 193.135 276.149 193.49 276.049 193.97H279.184ZM282.809 194.78C282.809 194.17 282.914 193.625 283.124 193.145C283.344 192.665 283.634 192.26 283.994 191.93C284.354 191.59 284.764 191.33 285.224 191.15C285.694 190.97 286.179 190.88 286.679 190.88C287.249 190.88 287.754 190.97 288.194 191.15C288.634 191.33 288.999 191.58 289.289 191.9C289.579 192.22 289.799 192.6 289.949 193.04C290.099 193.47 290.174 193.94 290.174 194.45C290.174 194.65 290.164 194.84 290.144 195.02C290.124 195.2 290.104 195.335 290.084 195.425H285.074C285.154 195.985 285.394 196.39 285.794 196.64C286.204 196.88 286.684 197 287.234 197C287.574 197 287.894 196.96 288.194 196.88C288.504 196.79 288.824 196.66 289.154 196.49L289.874 197.81C289.454 198.08 288.984 198.295 288.464 198.455C287.944 198.605 287.434 198.68 286.934 198.68C286.354 198.68 285.814 198.595 285.314 198.425C284.814 198.245 284.379 197.99 284.009 197.66C283.639 197.32 283.344 196.91 283.124 196.43C282.914 195.95 282.809 195.4 282.809 194.78ZM288.179 193.97C288.179 193.55 288.064 193.21 287.834 192.95C287.604 192.69 287.234 192.56 286.724 192.56C286.324 192.56 285.969 192.675 285.659 192.905C285.349 193.135 285.144 193.49 285.044 193.97H288.179Z" fill="white"/>
<path d="M259.501 174.68C258.921 174.68 258.386 174.565 257.896 174.335C257.416 174.095 257.001 173.755 256.651 173.315C256.311 172.875 256.046 172.34 255.856 171.71C255.666 171.08 255.571 170.365 255.571 169.565C255.571 168.765 255.666 168.055 255.856 167.435C256.046 166.805 256.311 166.28 256.651 165.86C257.001 165.43 257.416 165.105 257.896 164.885C258.386 164.655 258.921 164.54 259.501 164.54C260.081 164.54 260.611 164.655 261.091 164.885C261.581 165.105 261.996 165.43 262.336 165.86C262.686 166.29 262.956 166.82 263.146 167.45C263.336 168.07 263.431 168.775 263.431 169.565C263.431 170.365 263.336 171.08 263.146 171.71C262.956 172.34 262.686 172.875 262.336 173.315C261.996 173.755 261.581 174.095 261.091 174.335C260.611 174.565 260.081 174.68 259.501 174.68ZM259.501 172.775C260.011 172.775 260.416 172.49 260.716 171.92C261.016 171.34 261.166 170.555 261.166 169.565C261.166 168.585 261.016 167.82 260.716 167.27C260.416 166.72 260.011 166.445 259.501 166.445C258.991 166.445 258.586 166.72 258.286 167.27C257.986 167.82 257.836 168.585 257.836 169.565C257.836 170.555 257.986 171.34 258.286 171.92C258.586 172.49 258.991 172.775 259.501 172.775ZM271.87 174.5H270.07L269.905 173.435H269.845C269.515 173.815 269.15 174.12 268.75 174.35C268.35 174.57 267.88 174.68 267.34 174.68C266.49 174.68 265.875 174.41 265.495 173.87C265.115 173.33 264.925 172.59 264.925 171.65V167.06H267.13V171.365C267.13 171.865 267.205 172.23 267.355 172.46C267.505 172.69 267.79 172.805 268.21 172.805C268.49 172.805 268.735 172.745 268.945 172.625C269.165 172.505 269.405 172.28 269.665 171.95V167.06H271.87V174.5ZM275.599 168.785H273.724V167.15L275.704 167.06L275.989 165.08H277.804V167.06H280.954V168.785H277.804V171.395C277.804 171.965 277.929 172.37 278.179 172.61C278.429 172.84 278.824 172.955 279.364 172.955C279.654 172.955 279.919 172.93 280.159 172.88C280.399 172.83 280.629 172.765 280.849 172.685L281.239 174.275C280.909 174.375 280.539 174.465 280.129 174.545C279.729 174.635 279.289 174.68 278.809 174.68C278.219 174.68 277.719 174.6 277.309 174.44C276.899 174.28 276.564 174.06 276.304 173.78C276.054 173.49 275.874 173.145 275.764 172.745C275.654 172.345 275.599 171.9 275.599 171.41V168.785ZM285.269 175.085V177.26H283.064V167.06H284.864L285.029 167.81H285.074C285.374 167.54 285.719 167.32 286.109 167.15C286.499 166.97 286.894 166.88 287.294 166.88C287.754 166.88 288.169 166.97 288.539 167.15C288.909 167.33 289.224 167.585 289.484 167.915C289.744 168.245 289.939 168.645 290.069 169.115C290.209 169.575 290.279 170.09 290.279 170.66C290.279 171.3 290.189 171.87 290.009 172.37C289.829 172.86 289.589 173.28 289.289 173.63C288.989 173.97 288.644 174.23 288.254 174.41C287.874 174.59 287.474 174.68 287.054 174.68C286.374 174.68 285.754 174.41 285.194 173.87L285.269 175.085ZM285.269 172.385C285.479 172.565 285.694 172.695 285.914 172.775C286.144 172.845 286.354 172.88 286.544 172.88C286.964 172.88 287.314 172.71 287.594 172.37C287.874 172.02 288.014 171.46 288.014 170.69C288.014 169.35 287.559 168.68 286.649 168.68C286.179 168.68 285.719 168.91 285.269 169.37V172.385ZM298.853 174.5H297.053L296.888 173.435H296.828C296.498 173.815 296.133 174.12 295.733 174.35C295.333 174.57 294.863 174.68 294.323 174.68C293.473 174.68 292.858 174.41 292.478 173.87C292.098 173.33 291.908 172.59 291.908 171.65V167.06H294.113V171.365C294.113 171.865 294.188 172.23 294.338 172.46C294.488 172.69 294.773 172.805 295.193 172.805C295.473 172.805 295.718 172.745 295.928 172.625C296.148 172.505 296.388 172.28 296.648 171.95V167.06H298.853V174.5ZM302.582 168.785H300.707V167.15L302.687 167.06L302.972 165.08H304.787V167.06H307.937V168.785H304.787V171.395C304.787 171.965 304.912 172.37 305.162 172.61C305.412 172.84 305.807 172.955 306.347 172.955C306.637 172.955 306.902 172.93 307.142 172.88C307.382 172.83 307.612 172.765 307.832 172.685L308.222 174.275C307.892 174.375 307.522 174.465 307.112 174.545C306.712 174.635 306.272 174.68 305.792 174.68C305.202 174.68 304.702 174.6 304.292 174.44C303.882 174.28 303.547 174.06 303.287 173.78C303.037 173.49 302.857 173.145 302.747 172.745C302.637 172.345 302.582 171.9 302.582 171.41V168.785Z" fill="white"/>
<rect x="328" width="136" height="31" fill="#333333"/>
<rect x="328" width="136" height="31" fill="#333333"/>
<rect x="249.011" width="79" height="31" fill="#090808"/>
<path d="M261.116 17.8101C261.116 17.5513 260.986 17.3486 260.728 17.2021C260.474 17.0508 260.063 16.9165 259.497 16.7993C257.612 16.4038 256.67 15.603 256.67 14.397C256.67 13.6938 256.96 13.1079 257.541 12.6392C258.127 12.1655 258.892 11.9287 259.834 11.9287C260.84 11.9287 261.643 12.1655 262.244 12.6392C262.849 13.1128 263.152 13.728 263.152 14.4849H261.035C261.035 14.1821 260.937 13.9331 260.742 13.7378C260.547 13.5376 260.242 13.4375 259.827 13.4375C259.47 13.4375 259.194 13.5181 258.999 13.6792C258.804 13.8403 258.706 14.0454 258.706 14.2944C258.706 14.5288 258.816 14.7192 259.036 14.8657C259.26 15.0073 259.636 15.1318 260.164 15.2393C260.691 15.3418 261.135 15.459 261.497 15.5908C262.615 16.001 263.174 16.7114 263.174 17.7222C263.174 18.4448 262.864 19.0308 262.244 19.48C261.624 19.9243 260.823 20.1465 259.841 20.1465C259.177 20.1465 258.586 20.0293 258.069 19.7949C257.556 19.5557 257.153 19.231 256.86 18.8208C256.567 18.4058 256.421 17.959 256.421 17.4805H258.428C258.447 17.8564 258.586 18.1445 258.845 18.3447C259.104 18.5449 259.451 18.645 259.885 18.645C260.29 18.645 260.596 18.5693 260.801 18.418C261.011 18.2617 261.116 18.0591 261.116 17.8101ZM267.839 18.4399C268.23 18.4399 268.547 18.3325 268.791 18.1177C269.036 17.9028 269.163 17.6172 269.172 17.2607H271.157C271.152 17.7979 271.006 18.291 270.718 18.7402C270.43 19.1846 270.034 19.5312 269.531 19.7803C269.033 20.0244 268.481 20.1465 267.876 20.1465C266.743 20.1465 265.85 19.7876 265.195 19.0698C264.541 18.3472 264.214 17.3511 264.214 16.0815V15.9424C264.214 14.7217 264.539 13.7476 265.188 13.02C265.837 12.2925 266.728 11.9287 267.861 11.9287C268.853 11.9287 269.646 12.2119 270.242 12.7783C270.842 13.3398 271.147 14.0894 271.157 15.0269H269.172C269.163 14.6167 269.036 14.2847 268.791 14.0308C268.547 13.772 268.225 13.6426 267.825 13.6426C267.332 13.6426 266.958 13.8232 266.704 14.1846C266.455 14.541 266.331 15.1221 266.331 15.9277V16.1475C266.331 16.9629 266.455 17.5488 266.704 17.9053C266.953 18.2617 267.332 18.4399 267.839 18.4399ZM276.819 14.0601C276.531 14.021 276.277 14.0015 276.057 14.0015C275.256 14.0015 274.731 14.2725 274.482 14.8145V20H272.366V12.0752H274.365L274.424 13.02C274.849 12.2925 275.437 11.9287 276.189 11.9287C276.423 11.9287 276.643 11.9604 276.848 12.0239L276.819 14.0601ZM280.078 20H277.954V12.0752H280.078V20ZM277.83 10.0244C277.83 9.70703 277.935 9.4458 278.145 9.24072C278.359 9.03564 278.65 8.93311 279.016 8.93311C279.377 8.93311 279.665 9.03564 279.88 9.24072C280.095 9.4458 280.203 9.70703 280.203 10.0244C280.203 10.3467 280.093 10.6104 279.873 10.8154C279.658 11.0205 279.373 11.123 279.016 11.123C278.66 11.123 278.372 11.0205 278.152 10.8154C277.937 10.6104 277.83 10.3467 277.83 10.0244ZM288.962 16.1108C288.962 17.3315 288.684 18.3105 288.127 19.0479C287.576 19.7803 286.829 20.1465 285.886 20.1465C285.085 20.1465 284.438 19.8682 283.945 19.3115V23.0469H281.829V12.0752H283.791L283.865 12.8516C284.377 12.2363 285.046 11.9287 285.872 11.9287C286.848 11.9287 287.607 12.29 288.149 13.0127C288.691 13.7354 288.962 14.7314 288.962 16.001V16.1108ZM286.846 15.957C286.846 15.2197 286.714 14.6509 286.45 14.2505C286.191 13.8501 285.813 13.6499 285.315 13.6499C284.651 13.6499 284.194 13.9038 283.945 14.4116V17.6562C284.204 18.1787 284.665 18.4399 285.33 18.4399C286.34 18.4399 286.846 17.6123 286.846 15.957ZM292.815 10.127V12.0752H294.17V13.6279H292.815V17.583C292.815 17.876 292.871 18.0859 292.983 18.2129C293.096 18.3398 293.311 18.4033 293.628 18.4033C293.862 18.4033 294.07 18.3862 294.25 18.3521V19.9561C293.835 20.083 293.408 20.1465 292.969 20.1465C291.484 20.1465 290.728 19.397 290.698 17.8979V13.6279H289.541V12.0752H290.698V10.127H292.815ZM295.459 18.96C295.459 18.623 295.571 18.3496 295.796 18.1396C296.025 17.9297 296.311 17.8247 296.653 17.8247C296.999 17.8247 297.285 17.9297 297.51 18.1396C297.739 18.3496 297.854 18.623 297.854 18.96C297.854 19.292 297.742 19.563 297.517 19.7729C297.292 19.978 297.004 20.0806 296.653 20.0806C296.306 20.0806 296.02 19.978 295.796 19.7729C295.571 19.563 295.459 19.292 295.459 18.96ZM306.848 16.1108C306.848 17.3315 306.57 18.3105 306.013 19.0479C305.461 19.7803 304.714 20.1465 303.772 20.1465C302.971 20.1465 302.324 19.8682 301.831 19.3115V23.0469H299.714V12.0752H301.677L301.75 12.8516C302.263 12.2363 302.932 11.9287 303.757 11.9287C304.734 11.9287 305.493 12.29 306.035 13.0127C306.577 13.7354 306.848 14.7314 306.848 16.001V16.1108ZM304.731 15.957C304.731 15.2197 304.6 14.6509 304.336 14.2505C304.077 13.8501 303.699 13.6499 303.201 13.6499C302.537 13.6499 302.08 13.9038 301.831 14.4116V17.6562C302.09 18.1787 302.551 18.4399 303.215 18.4399C304.226 18.4399 304.731 17.6123 304.731 15.957ZM311.038 17.0044L312.502 12.0752H314.773L311.587 21.2305L311.411 21.6479C310.937 22.6831 310.156 23.2007 309.067 23.2007C308.76 23.2007 308.447 23.1543 308.13 23.0615V21.4575L308.452 21.4648C308.853 21.4648 309.15 21.4038 309.346 21.2817C309.546 21.1597 309.702 20.957 309.814 20.6738L310.063 20.022L307.288 12.0752H309.565L311.038 17.0044Z" fill="white"/>
<line x1="248" y1="154.5" x2="464.002" y2="154.5" stroke="white"/>
<path d="M259.296 51.585V53.76H257.091V43.56H258.891L259.056 44.31H259.101C259.401 44.04 259.746 43.82 260.136 43.65C260.526 43.47 260.921 43.38 261.321 43.38C261.781 43.38 262.196 43.47 262.566 43.65C262.936 43.83 263.251 44.085 263.511 44.415C263.771 44.745 263.966 45.145 264.096 45.615C264.236 46.075 264.306 46.59 264.306 47.16C264.306 47.8 264.216 48.37 264.036 48.87C263.856 49.36 263.616 49.78 263.316 50.13C263.016 50.47 262.671 50.73 262.281 50.91C261.901 51.09 261.501 51.18 261.081 51.18C260.401 51.18 259.781 50.91 259.221 50.37L259.296 51.585ZM259.296 48.885C259.506 49.065 259.721 49.195 259.941 49.275C260.171 49.345 260.381 49.38 260.571 49.38C260.991 49.38 261.341 49.21 261.621 48.87C261.901 48.52 262.041 47.96 262.041 47.19C262.041 45.85 261.586 45.18 260.676 45.18C260.206 45.18 259.746 45.41 259.296 45.87V48.885ZM266.745 43.56H268.545L268.725 45.18H268.77C269.14 44.57 269.585 44.12 270.105 43.83C270.625 43.53 271.185 43.38 271.785 43.38C272.115 43.38 272.38 43.405 272.58 43.455C272.79 43.505 273.005 43.58 273.225 43.68L272.775 45.525C272.545 45.455 272.335 45.405 272.145 45.375C271.965 45.335 271.735 45.315 271.455 45.315C270.995 45.315 270.54 45.45 270.09 45.72C269.65 45.99 269.27 46.46 268.95 47.13V51H266.745V43.56ZM275.184 43.56H280.374V51H278.169V45.285H275.184V43.56ZM279.174 42.465C278.744 42.465 278.389 42.345 278.109 42.105C277.839 41.865 277.704 41.54 277.704 41.13C277.704 40.72 277.839 40.39 278.109 40.14C278.389 39.88 278.744 39.75 279.174 39.75C279.604 39.75 279.954 39.88 280.224 40.14C280.504 40.39 280.644 40.72 280.644 41.13C280.644 41.54 280.504 41.865 280.224 42.105C279.954 42.345 279.604 42.465 279.174 42.465ZM283.998 47.28C283.998 46.66 284.113 46.11 284.343 45.63C284.583 45.14 284.898 44.73 285.288 44.4C285.688 44.07 286.148 43.82 286.668 43.65C287.188 43.47 287.733 43.38 288.303 43.38C288.893 43.38 289.423 43.475 289.893 43.665C290.373 43.855 290.773 44.095 291.093 44.385L290.073 45.75C289.523 45.36 288.973 45.165 288.423 45.165C287.783 45.165 287.263 45.355 286.863 45.735C286.463 46.115 286.263 46.63 286.263 47.28C286.263 47.93 286.453 48.445 286.833 48.825C287.223 49.205 287.728 49.395 288.348 49.395C288.738 49.395 289.098 49.325 289.428 49.185C289.758 49.045 290.053 48.88 290.313 48.69L291.213 50.085C290.763 50.465 290.263 50.745 289.713 50.925C289.173 51.095 288.648 51.18 288.138 51.18C287.548 51.18 287.003 51.095 286.503 50.925C286.003 50.745 285.563 50.49 285.183 50.16C284.813 49.83 284.523 49.425 284.313 48.945C284.103 48.455 283.998 47.9 283.998 47.28ZM292.812 47.28C292.812 46.67 292.917 46.125 293.127 45.645C293.347 45.165 293.637 44.76 293.997 44.43C294.357 44.09 294.767 43.83 295.227 43.65C295.697 43.47 296.182 43.38 296.682 43.38C297.252 43.38 297.757 43.47 298.197 43.65C298.637 43.83 299.002 44.08 299.292 44.4C299.582 44.72 299.802 45.1 299.952 45.54C300.102 45.97 300.177 46.44 300.177 46.95C300.177 47.15 300.167 47.34 300.147 47.52C300.127 47.7 300.107 47.835 300.087 47.925H295.077C295.157 48.485 295.397 48.89 295.797 49.14C296.207 49.38 296.687 49.5 297.237 49.5C297.577 49.5 297.897 49.46 298.197 49.38C298.507 49.29 298.827 49.16 299.157 48.99L299.877 50.31C299.457 50.58 298.987 50.795 298.467 50.955C297.947 51.105 297.437 51.18 296.937 51.18C296.357 51.18 295.817 51.095 295.317 50.925C294.817 50.745 294.382 50.49 294.012 50.16C293.642 49.82 293.347 49.41 293.127 48.93C292.917 48.45 292.812 47.9 292.812 47.28ZM298.182 46.47C298.182 46.05 298.067 45.71 297.837 45.45C297.607 45.19 297.237 45.06 296.727 45.06C296.327 45.06 295.972 45.175 295.662 45.405C295.352 45.635 295.147 45.99 295.047 46.47H298.182ZM311.026 43.53H317.926V45.09H311.026V43.53ZM311.026 46.995H317.926V48.555H311.026V46.995ZM286.278 88.585V90.76H284.073V80.56H285.873L286.038 81.31H286.083C286.383 81.04 286.728 80.82 287.118 80.65C287.508 80.47 287.903 80.38 288.303 80.38C288.763 80.38 289.178 80.47 289.548 80.65C289.918 80.83 290.233 81.085 290.493 81.415C290.753 81.745 290.948 82.145 291.078 82.615C291.218 83.075 291.288 83.59 291.288 84.16C291.288 84.8 291.198 85.37 291.018 85.87C290.838 86.36 290.598 86.78 290.298 87.13C289.998 87.47 289.653 87.73 289.263 87.91C288.883 88.09 288.483 88.18 288.063 88.18C287.383 88.18 286.763 87.91 286.203 87.37L286.278 88.585ZM286.278 85.885C286.488 86.065 286.703 86.195 286.923 86.275C287.153 86.345 287.363 86.38 287.553 86.38C287.973 86.38 288.323 86.21 288.603 85.87C288.883 85.52 289.023 84.96 289.023 84.19C289.023 82.85 288.568 82.18 287.658 82.18C287.188 82.18 286.728 82.41 286.278 82.87V85.885ZM293.727 80.56H295.527L295.707 82.18H295.752C296.122 81.57 296.567 81.12 297.087 80.83C297.607 80.53 298.167 80.38 298.767 80.38C299.097 80.38 299.362 80.405 299.562 80.455C299.772 80.505 299.987 80.58 300.207 80.68L299.757 82.525C299.527 82.455 299.317 82.405 299.127 82.375C298.947 82.335 298.717 82.315 298.437 82.315C297.977 82.315 297.522 82.45 297.072 82.72C296.632 82.99 296.252 83.46 295.932 84.13V88H293.727V80.56ZM302.166 80.56H307.356V88H305.151V82.285H302.166V80.56ZM306.156 79.465C305.726 79.465 305.371 79.345 305.091 79.105C304.821 78.865 304.686 78.54 304.686 78.13C304.686 77.72 304.821 77.39 305.091 77.14C305.371 76.88 305.726 76.75 306.156 76.75C306.586 76.75 306.936 76.88 307.206 77.14C307.486 77.39 307.626 77.72 307.626 78.13C307.626 78.54 307.486 78.865 307.206 79.105C306.936 79.345 306.586 79.465 306.156 79.465ZM310.981 84.28C310.981 83.66 311.096 83.11 311.326 82.63C311.566 82.14 311.881 81.73 312.271 81.4C312.671 81.07 313.131 80.82 313.651 80.65C314.171 80.47 314.716 80.38 315.286 80.38C315.876 80.38 316.406 80.475 316.876 80.665C317.356 80.855 317.756 81.095 318.076 81.385L317.056 82.75C316.506 82.36 315.956 82.165 315.406 82.165C314.766 82.165 314.246 82.355 313.846 82.735C313.446 83.115 313.246 83.63 313.246 84.28C313.246 84.93 313.436 85.445 313.816 85.825C314.206 86.205 314.711 86.395 315.331 86.395C315.721 86.395 316.081 86.325 316.411 86.185C316.741 86.045 317.036 85.88 317.296 85.69L318.196 87.085C317.746 87.465 317.246 87.745 316.696 87.925C316.156 88.095 315.631 88.18 315.121 88.18C314.531 88.18 313.986 88.095 313.486 87.925C312.986 87.745 312.546 87.49 312.166 87.16C311.796 86.83 311.506 86.425 311.296 85.945C311.086 85.455 310.981 84.9 310.981 84.28ZM319.795 84.28C319.795 83.67 319.9 83.125 320.11 82.645C320.33 82.165 320.62 81.76 320.98 81.43C321.34 81.09 321.75 80.83 322.21 80.65C322.68 80.47 323.165 80.38 323.665 80.38C324.235 80.38 324.74 80.47 325.18 80.65C325.62 80.83 325.985 81.08 326.275 81.4C326.565 81.72 326.785 82.1 326.935 82.54C327.085 82.97 327.16 83.44 327.16 83.95C327.16 84.15 327.15 84.34 327.13 84.52C327.11 84.7 327.09 84.835 327.07 84.925H322.06C322.14 85.485 322.38 85.89 322.78 86.14C323.19 86.38 323.67 86.5 324.22 86.5C324.56 86.5 324.88 86.46 325.18 86.38C325.49 86.29 325.81 86.16 326.14 85.99L326.86 87.31C326.44 87.58 325.97 87.795 325.45 87.955C324.93 88.105 324.42 88.18 323.92 88.18C323.34 88.18 322.8 88.095 322.3 87.925C321.8 87.745 321.365 87.49 320.995 87.16C320.625 86.82 320.33 86.41 320.11 85.93C319.9 85.45 319.795 84.9 319.795 84.28ZM325.165 83.47C325.165 83.05 325.05 82.71 324.82 82.45C324.59 82.19 324.22 82.06 323.71 82.06C323.31 82.06 322.955 82.175 322.645 82.405C322.335 82.635 322.13 82.99 322.03 83.47H325.165ZM338.008 80.53H344.908V82.09H338.008V80.53ZM338.008 83.995H344.908V85.555H338.008V83.995ZM347.002 80.53H353.902V82.09H347.002V80.53ZM347.002 83.995H353.902V85.555H347.002V83.995ZM375.695 81.58C375.695 81.33 375.735 81.1 375.815 80.89C375.905 80.67 376.025 80.48 376.175 80.32C376.325 80.16 376.505 80.035 376.715 79.945C376.935 79.855 377.175 79.81 377.435 79.81C377.695 79.81 377.93 79.855 378.14 79.945C378.36 80.035 378.545 80.16 378.695 80.32C378.845 80.48 378.96 80.67 379.04 80.89C379.13 81.1 379.175 81.33 379.175 81.58C379.175 82.08 379.015 82.5 378.695 82.84C378.375 83.17 377.955 83.335 377.435 83.335C376.915 83.335 376.495 83.17 376.175 82.84C375.855 82.5 375.695 82.08 375.695 81.58ZM375.695 86.425C375.695 86.175 375.735 85.945 375.815 85.735C375.905 85.515 376.025 85.325 376.175 85.165C376.325 85.005 376.505 84.88 376.715 84.79C376.935 84.7 377.175 84.655 377.435 84.655C377.695 84.655 377.93 84.7 378.14 84.79C378.36 84.88 378.545 85.005 378.695 85.165C378.845 85.325 378.96 85.515 379.04 85.735C379.13 85.945 379.175 86.175 379.175 86.425C379.175 86.925 379.015 87.345 378.695 87.685C378.375 88.015 377.955 88.18 377.435 88.18C376.915 88.18 376.495 88.015 376.175 87.685C375.855 87.345 375.695 86.925 375.695 86.425ZM342.838 109.685C341.858 108.815 341.083 107.81 340.513 106.67C339.953 105.53 339.673 104.25 339.673 102.83C339.673 101.41 339.953 100.13 340.513 98.99C341.083 97.85 341.858 96.845 342.838 95.975L344.068 96.95C343.178 97.82 342.528 98.725 342.118 99.665C341.718 100.595 341.518 101.65 341.518 102.83C341.518 103.42 341.568 103.98 341.668 104.51C341.768 105.03 341.918 105.53 342.118 106.01C342.328 106.49 342.593 106.95 342.913 107.39C343.233 107.84 343.618 108.28 344.068 108.71L342.838 109.685ZM401.807 108.71C402.257 108.28 402.642 107.84 402.962 107.39C403.282 106.95 403.542 106.49 403.742 106.01C403.952 105.53 404.107 105.03 404.207 104.51C404.307 103.98 404.357 103.42 404.357 102.83C404.357 101.65 404.152 100.595 403.742 99.665C403.342 98.725 402.697 97.82 401.807 96.95L403.037 95.975C404.017 96.845 404.787 97.85 405.347 98.99C405.917 100.13 406.202 101.41 406.202 102.83C406.202 104.25 405.917 105.53 405.347 106.67C404.787 107.81 404.017 108.815 403.037 109.685L401.807 108.71ZM294.747 119.58C294.747 119.33 294.787 119.1 294.867 118.89C294.957 118.67 295.077 118.48 295.227 118.32C295.377 118.16 295.557 118.035 295.767 117.945C295.987 117.855 296.227 117.81 296.487 117.81C296.747 117.81 296.982 117.855 297.192 117.945C297.412 118.035 297.597 118.16 297.747 118.32C297.897 118.48 298.012 118.67 298.092 118.89C298.182 119.1 298.227 119.33 298.227 119.58C298.227 120.08 298.067 120.5 297.747 120.84C297.427 121.17 297.007 121.335 296.487 121.335C295.967 121.335 295.547 121.17 295.227 120.84C294.907 120.5 294.747 120.08 294.747 119.58ZM294.747 124.425C294.747 124.175 294.787 123.945 294.867 123.735C294.957 123.515 295.077 123.325 295.227 123.165C295.377 123.005 295.557 122.88 295.767 122.79C295.987 122.7 296.227 122.655 296.487 122.655C296.747 122.655 296.982 122.7 297.192 122.79C297.412 122.88 297.597 123.005 297.747 123.165C297.897 123.325 298.012 123.515 298.092 123.735C298.182 123.945 298.227 124.175 298.227 124.425C298.227 124.925 298.067 125.345 297.747 125.685C297.427 126.015 297.007 126.18 296.487 126.18C295.967 126.18 295.547 126.015 295.227 125.685C294.907 125.345 294.747 124.925 294.747 124.425ZM342.838 147.685C341.858 146.815 341.083 145.81 340.513 144.67C339.953 143.53 339.673 142.25 339.673 140.83C339.673 139.41 339.953 138.13 340.513 136.99C341.083 135.85 341.858 134.845 342.838 133.975L344.068 134.95C343.178 135.82 342.528 136.725 342.118 137.665C341.718 138.595 341.518 139.65 341.518 140.83C341.518 141.42 341.568 141.98 341.668 142.51C341.768 143.03 341.918 143.53 342.118 144.01C342.328 144.49 342.593 144.95 342.913 145.39C343.233 145.84 343.618 146.28 344.068 146.71L342.838 147.685ZM437.784 146.71C438.234 146.28 438.619 145.84 438.939 145.39C439.259 144.95 439.519 144.49 439.719 144.01C439.929 143.53 440.084 143.03 440.184 142.51C440.284 141.98 440.334 141.42 440.334 140.83C440.334 139.65 440.129 138.595 439.719 137.665C439.319 136.725 438.674 135.82 437.784 134.95L439.014 133.975C439.994 134.845 440.764 135.85 441.324 136.99C441.894 138.13 442.179 139.41 442.179 140.83C442.179 142.25 441.894 143.53 441.324 144.67C440.764 145.81 439.994 146.815 439.014 147.685L437.784 146.71Z" fill="white"/>
<path d="M332.464 51.18C331.914 51.18 331.414 51.075 330.964 50.865C330.514 50.645 330.129 50.325 329.809 49.905C329.489 49.485 329.239 48.965 329.059 48.345C328.889 47.725 328.804 47.01 328.804 46.2C328.804 45.39 328.889 44.68 329.059 44.07C329.239 43.46 329.489 42.95 329.809 42.54C330.129 42.12 330.514 41.81 330.964 41.61C331.414 41.4 331.914 41.295 332.464 41.295C333.014 41.295 333.514 41.4 333.964 41.61C334.414 41.81 334.799 42.12 335.119 42.54C335.439 42.95 335.684 43.46 335.854 44.07C336.034 44.68 336.124 45.39 336.124 46.2C336.124 47.01 336.034 47.725 335.854 48.345C335.684 48.965 335.439 49.485 335.119 49.905C334.799 50.325 334.414 50.645 333.964 50.865C333.514 51.075 333.014 51.18 332.464 51.18ZM332.464 43.005C332.224 43.005 331.999 43.055 331.789 43.155C331.589 43.255 331.414 43.43 331.264 43.68C331.114 43.92 330.994 44.245 330.904 44.655C330.814 45.065 330.769 45.58 330.769 46.2C330.769 46.82 330.814 47.34 330.904 47.76C330.994 48.17 331.114 48.505 331.264 48.765C331.414 49.015 331.589 49.195 331.789 49.305C331.999 49.415 332.224 49.47 332.464 49.47C332.704 49.47 332.924 49.415 333.124 49.305C333.334 49.195 333.514 49.015 333.664 48.765C333.814 48.505 333.934 48.17 334.024 47.76C334.114 47.34 334.159 46.82 334.159 46.2C334.159 45.58 334.114 45.065 334.024 44.655C333.934 44.245 333.814 43.92 333.664 43.68C333.514 43.43 333.334 43.255 333.124 43.155C332.924 43.055 332.704 43.005 332.464 43.005ZM332.464 47.31C332.144 47.31 331.874 47.21 331.654 47.01C331.444 46.8 331.339 46.52 331.339 46.17C331.339 45.82 331.444 45.545 331.654 45.345C331.874 45.135 332.144 45.03 332.464 45.03C332.784 45.03 333.049 45.135 333.259 45.345C333.479 45.545 333.589 45.82 333.589 46.17C333.589 46.52 333.479 46.8 333.259 47.01C333.049 47.21 332.784 47.31 332.464 47.31ZM368.44 88.18C367.89 88.18 367.39 88.075 366.94 87.865C366.49 87.645 366.105 87.325 365.785 86.905C365.465 86.485 365.215 85.965 365.035 85.345C364.865 84.725 364.78 84.01 364.78 83.2C364.78 82.39 364.865 81.68 365.035 81.07C365.215 80.46 365.465 79.95 365.785 79.54C366.105 79.12 366.49 78.81 366.94 78.61C367.39 78.4 367.89 78.295 368.44 78.295C368.99 78.295 369.49 78.4 369.94 78.61C370.39 78.81 370.775 79.12 371.095 79.54C371.415 79.95 371.66 80.46 371.83 81.07C372.01 81.68 372.1 82.39 372.1 83.2C372.1 84.01 372.01 84.725 371.83 85.345C371.66 85.965 371.415 86.485 371.095 86.905C370.775 87.325 370.39 87.645 369.94 87.865C369.49 88.075 368.99 88.18 368.44 88.18ZM368.44 80.005C368.2 80.005 367.975 80.055 367.765 80.155C367.565 80.255 367.39 80.43 367.24 80.68C367.09 80.92 366.97 81.245 366.88 81.655C366.79 82.065 366.745 82.58 366.745 83.2C366.745 83.82 366.79 84.34 366.88 84.76C366.97 85.17 367.09 85.505 367.24 85.765C367.39 86.015 367.565 86.195 367.765 86.305C367.975 86.415 368.2 86.47 368.44 86.47C368.68 86.47 368.9 86.415 369.1 86.305C369.31 86.195 369.49 86.015 369.64 85.765C369.79 85.505 369.91 85.17 370 84.76C370.09 84.34 370.135 83.82 370.135 83.2C370.135 82.58 370.09 82.065 370 81.655C369.91 81.245 369.79 80.92 369.64 80.68C369.49 80.43 369.31 80.255 369.1 80.155C368.9 80.055 368.68 80.005 368.44 80.005ZM368.44 84.31C368.12 84.31 367.85 84.21 367.63 84.01C367.42 83.8 367.315 83.52 367.315 83.17C367.315 82.82 367.42 82.545 367.63 82.345C367.85 82.135 368.12 82.03 368.44 82.03C368.76 82.03 369.025 82.135 369.235 82.345C369.455 82.545 369.565 82.82 369.565 83.17C369.565 83.52 369.455 83.8 369.235 84.01C369.025 84.21 368.76 84.31 368.44 84.31Z" fill="#F0E442"/>
<path d="M257.196 80.56H262.386V88H260.181V82.285H257.196V80.56ZM261.186 79.465C260.756 79.465 260.401 79.345 260.121 79.105C259.851 78.865 259.716 78.54 259.716 78.13C259.716 77.72 259.851 77.39 260.121 77.14C260.401 76.88 260.756 76.75 261.186 76.75C261.616 76.75 261.966 76.88 262.236 77.14C262.516 77.39 262.656 77.72 262.656 78.13C262.656 78.54 262.516 78.865 262.236 79.105C261.966 79.345 261.616 79.465 261.186 79.465ZM273.36 79.33C272.87 79.14 272.35 79.045 271.8 79.045C271.32 79.045 270.965 79.15 270.735 79.36C270.515 79.57 270.405 79.9 270.405 80.35V80.56H272.97V82.285H270.405V88H268.2V82.285H266.235V80.65L268.2 80.56V80.365C268.2 79.935 268.265 79.535 268.395 79.165C268.525 78.795 268.725 78.475 268.995 78.205C269.265 77.925 269.61 77.705 270.03 77.545C270.45 77.385 270.95 77.305 271.53 77.305C271.96 77.305 272.36 77.345 272.73 77.425C273.11 77.505 273.46 77.6 273.78 77.71L273.36 79.33ZM256.836 122.28C256.836 121.67 256.941 121.125 257.151 120.645C257.371 120.165 257.661 119.76 258.021 119.43C258.381 119.09 258.791 118.83 259.251 118.65C259.721 118.47 260.206 118.38 260.706 118.38C261.276 118.38 261.781 118.47 262.221 118.65C262.661 118.83 263.026 119.08 263.316 119.4C263.606 119.72 263.826 120.1 263.976 120.54C264.126 120.97 264.201 121.44 264.201 121.95C264.201 122.15 264.191 122.34 264.171 122.52C264.151 122.7 264.131 122.835 264.111 122.925H259.101C259.181 123.485 259.421 123.89 259.821 124.14C260.231 124.38 260.711 124.5 261.261 124.5C261.601 124.5 261.921 124.46 262.221 124.38C262.531 124.29 262.851 124.16 263.181 123.99L263.901 125.31C263.481 125.58 263.011 125.795 262.491 125.955C261.971 126.105 261.461 126.18 260.961 126.18C260.381 126.18 259.841 126.095 259.341 125.925C258.841 125.745 258.406 125.49 258.036 125.16C257.666 124.82 257.371 124.41 257.151 123.93C256.941 123.45 256.836 122.9 256.836 122.28ZM262.206 121.47C262.206 121.05 262.091 120.71 261.861 120.45C261.631 120.19 261.261 120.06 260.751 120.06C260.351 120.06 259.996 120.175 259.686 120.405C259.376 120.635 259.171 120.99 259.071 121.47H262.206ZM265.935 115.485H270.3V123.18C270.3 123.41 270.33 123.605 270.39 123.765C270.46 123.915 270.55 124.04 270.66 124.14C270.78 124.23 270.91 124.295 271.05 124.335C271.2 124.375 271.35 124.395 271.5 124.395C271.67 124.395 271.85 124.38 272.04 124.35C272.23 124.31 272.44 124.245 272.67 124.155L273.165 125.775C272.965 125.835 272.78 125.89 272.61 125.94C272.44 125.99 272.27 126.03 272.1 126.06C271.93 126.1 271.75 126.13 271.56 126.15C271.37 126.17 271.16 126.18 270.93 126.18C269.99 126.18 269.28 125.905 268.8 125.355C268.33 124.795 268.095 124.04 268.095 123.09V117.225H265.935V115.485ZM275.784 123.66C276.214 123.93 276.644 124.145 277.074 124.305C277.514 124.465 277.984 124.545 278.484 124.545C278.994 124.545 279.359 124.49 279.579 124.38C279.799 124.27 279.909 124.115 279.909 123.915C279.909 123.685 279.724 123.5 279.354 123.36C278.994 123.21 278.514 123.05 277.914 122.88C277.584 122.79 277.259 122.685 276.939 122.565C276.629 122.435 276.349 122.285 276.099 122.115C275.849 121.935 275.644 121.73 275.484 121.5C275.334 121.27 275.259 121.005 275.259 120.705C275.259 120.365 275.339 120.05 275.499 119.76C275.659 119.47 275.884 119.225 276.174 119.025C276.474 118.825 276.834 118.67 277.254 118.56C277.684 118.44 278.164 118.38 278.694 118.38C279.354 118.38 279.954 118.49 280.494 118.71C281.044 118.92 281.514 119.15 281.904 119.4L280.914 120.72C280.574 120.52 280.224 120.355 279.864 120.225C279.504 120.085 279.129 120.015 278.739 120.015C278.269 120.015 277.934 120.065 277.734 120.165C277.544 120.265 277.449 120.41 277.449 120.6C277.449 120.71 277.499 120.81 277.599 120.9C277.699 120.99 277.834 121.07 278.004 121.14C278.174 121.21 278.374 121.28 278.604 121.35C278.844 121.41 279.094 121.475 279.354 121.545C279.724 121.645 280.074 121.76 280.404 121.89C280.734 122.01 281.024 122.155 281.274 122.325C281.524 122.495 281.724 122.7 281.874 122.94C282.024 123.18 282.099 123.46 282.099 123.78C282.099 124.12 282.019 124.435 281.859 124.725C281.699 125.015 281.464 125.27 281.154 125.49C280.854 125.7 280.474 125.87 280.014 126C279.564 126.12 279.039 126.18 278.439 126.18C277.769 126.18 277.114 126.07 276.474 125.85C275.834 125.63 275.274 125.36 274.794 125.04L275.784 123.66ZM283.818 122.28C283.818 121.67 283.923 121.125 284.133 120.645C284.353 120.165 284.643 119.76 285.003 119.43C285.363 119.09 285.773 118.83 286.233 118.65C286.703 118.47 287.188 118.38 287.688 118.38C288.258 118.38 288.763 118.47 289.203 118.65C289.643 118.83 290.008 119.08 290.298 119.4C290.588 119.72 290.808 120.1 290.958 120.54C291.108 120.97 291.183 121.44 291.183 121.95C291.183 122.15 291.173 122.34 291.153 122.52C291.133 122.7 291.113 122.835 291.093 122.925H286.083C286.163 123.485 286.403 123.89 286.803 124.14C287.213 124.38 287.693 124.5 288.243 124.5C288.583 124.5 288.903 124.46 289.203 124.38C289.513 124.29 289.833 124.16 290.163 123.99L290.883 125.31C290.463 125.58 289.993 125.795 289.473 125.955C288.953 126.105 288.443 126.18 287.943 126.18C287.363 126.18 286.823 126.095 286.323 125.925C285.823 125.745 285.388 125.49 285.018 125.16C284.648 124.82 284.353 124.41 284.133 123.93C283.923 123.45 283.818 122.9 283.818 122.28ZM289.188 121.47C289.188 121.05 289.073 120.71 288.843 120.45C288.613 120.19 288.243 120.06 287.733 120.06C287.333 120.06 286.978 120.175 286.668 120.405C286.358 120.635 286.153 120.99 286.053 121.47H289.188Z" fill="#E69F00"/>
<path d="M295.272 107.585V109.76H293.067V99.56H294.867L295.032 100.31H295.077C295.377 100.04 295.722 99.82 296.112 99.65C296.502 99.47 296.897 99.38 297.297 99.38C297.757 99.38 298.172 99.47 298.542 99.65C298.912 99.83 299.227 100.085 299.487 100.415C299.747 100.745 299.942 101.145 300.072 101.615C300.212 102.075 300.282 102.59 300.282 103.16C300.282 103.8 300.192 104.37 300.012 104.87C299.832 105.36 299.592 105.78 299.292 106.13C298.992 106.47 298.647 106.73 298.257 106.91C297.877 107.09 297.477 107.18 297.057 107.18C296.377 107.18 295.757 106.91 295.197 106.37L295.272 107.585ZM295.272 104.885C295.482 105.065 295.697 105.195 295.917 105.275C296.147 105.345 296.357 105.38 296.547 105.38C296.967 105.38 297.317 105.21 297.597 104.87C297.877 104.52 298.017 103.96 298.017 103.19C298.017 101.85 297.562 101.18 296.652 101.18C296.182 101.18 295.722 101.41 295.272 101.87V104.885ZM302.721 99.56H304.521L304.701 101.18H304.746C305.116 100.57 305.561 100.12 306.081 99.83C306.601 99.53 307.161 99.38 307.761 99.38C308.091 99.38 308.356 99.405 308.556 99.455C308.766 99.505 308.981 99.58 309.201 99.68L308.751 101.525C308.521 101.455 308.311 101.405 308.121 101.375C307.941 101.335 307.711 101.315 307.431 101.315C306.971 101.315 306.516 101.45 306.066 101.72C305.626 101.99 305.246 102.46 304.926 103.13V107H302.721V99.56ZM311.161 99.56H316.351V107H314.146V101.285H311.161V99.56ZM315.151 98.465C314.721 98.465 314.366 98.345 314.086 98.105C313.816 97.865 313.681 97.54 313.681 97.13C313.681 96.72 313.816 96.39 314.086 96.14C314.366 95.88 314.721 95.75 315.151 95.75C315.581 95.75 315.931 95.88 316.201 96.14C316.481 96.39 316.621 96.72 316.621 97.13C316.621 97.54 316.481 97.865 316.201 98.105C315.931 98.345 315.581 98.465 315.151 98.465ZM320.05 99.56H321.85L322.015 100.55H322.075C322.395 100.23 322.76 99.955 323.17 99.725C323.59 99.495 324.08 99.38 324.64 99.38C325.48 99.38 326.095 99.65 326.485 100.19C326.875 100.73 327.07 101.47 327.07 102.41V107H324.865V102.695C324.865 102.195 324.785 101.83 324.625 101.6C324.465 101.37 324.18 101.255 323.77 101.255C323.47 101.255 323.205 101.32 322.975 101.45C322.755 101.58 322.515 101.775 322.255 102.035V107H320.05V99.56ZM330.574 101.285H328.699V99.65L330.679 99.56L330.964 97.58H332.779V99.56H335.929V101.285H332.779V103.895C332.779 104.465 332.904 104.87 333.154 105.11C333.404 105.34 333.799 105.455 334.339 105.455C334.629 105.455 334.894 105.43 335.134 105.38C335.374 105.33 335.604 105.265 335.824 105.185L336.214 106.775C335.884 106.875 335.514 106.965 335.104 107.045C334.704 107.135 334.264 107.18 333.784 107.18C333.194 107.18 332.694 107.1 332.284 106.94C331.874 106.78 331.539 106.56 331.279 106.28C331.029 105.99 330.849 105.645 330.739 105.245C330.629 104.845 330.574 104.4 330.574 103.91V101.285ZM295.272 145.585V147.76H293.067V137.56H294.867L295.032 138.31H295.077C295.377 138.04 295.722 137.82 296.112 137.65C296.502 137.47 296.897 137.38 297.297 137.38C297.757 137.38 298.172 137.47 298.542 137.65C298.912 137.83 299.227 138.085 299.487 138.415C299.747 138.745 299.942 139.145 300.072 139.615C300.212 140.075 300.282 140.59 300.282 141.16C300.282 141.8 300.192 142.37 300.012 142.87C299.832 143.36 299.592 143.78 299.292 144.13C298.992 144.47 298.647 144.73 298.257 144.91C297.877 145.09 297.477 145.18 297.057 145.18C296.377 145.18 295.757 144.91 295.197 144.37L295.272 145.585ZM295.272 142.885C295.482 143.065 295.697 143.195 295.917 143.275C296.147 143.345 296.357 143.38 296.547 143.38C296.967 143.38 297.317 143.21 297.597 142.87C297.877 142.52 298.017 141.96 298.017 141.19C298.017 139.85 297.562 139.18 296.652 139.18C296.182 139.18 295.722 139.41 295.272 139.87V142.885ZM302.721 137.56H304.521L304.701 139.18H304.746C305.116 138.57 305.561 138.12 306.081 137.83C306.601 137.53 307.161 137.38 307.761 137.38C308.091 137.38 308.356 137.405 308.556 137.455C308.766 137.505 308.981 137.58 309.201 137.68L308.751 139.525C308.521 139.455 308.311 139.405 308.121 139.375C307.941 139.335 307.711 139.315 307.431 139.315C306.971 139.315 306.516 139.45 306.066 139.72C305.626 139.99 305.246 140.46 304.926 141.13V145H302.721V137.56ZM311.161 137.56H316.351V145H314.146V139.285H311.161V137.56ZM315.151 136.465C314.721 136.465 314.366 136.345 314.086 136.105C313.816 135.865 313.681 135.54 313.681 135.13C313.681 134.72 313.816 134.39 314.086 134.14C314.366 133.88 314.721 133.75 315.151 133.75C315.581 133.75 315.931 133.88 316.201 134.14C316.481 134.39 316.621 134.72 316.621 135.13C316.621 135.54 316.481 135.865 316.201 136.105C315.931 136.345 315.581 136.465 315.151 136.465ZM320.05 137.56H321.85L322.015 138.55H322.075C322.395 138.23 322.76 137.955 323.17 137.725C323.59 137.495 324.08 137.38 324.64 137.38C325.48 137.38 326.095 137.65 326.485 138.19C326.875 138.73 327.07 139.47 327.07 140.41V145H324.865V140.695C324.865 140.195 324.785 139.83 324.625 139.6C324.465 139.37 324.18 139.255 323.77 139.255C323.47 139.255 323.205 139.32 322.975 139.45C322.755 139.58 322.515 139.775 322.255 140.035V145H320.05V137.56ZM330.574 139.285H328.699V137.65L330.679 137.56L330.964 135.58H332.779V137.56H335.929V139.285H332.779V141.895C332.779 142.465 332.904 142.87 333.154 143.11C333.404 143.34 333.799 143.455 334.339 143.455C334.629 143.455 334.894 143.43 335.134 143.38C335.374 143.33 335.604 143.265 335.824 143.185L336.214 144.775C335.884 144.875 335.514 144.965 335.104 145.045C334.704 145.135 334.264 145.18 333.784 145.18C333.194 145.18 332.694 145.1 332.284 144.94C331.874 144.78 331.539 144.56 331.279 144.28C331.029 143.99 330.849 143.645 330.739 143.245C330.629 142.845 330.574 142.4 330.574 141.91V139.285Z" fill="#56B4E9"/>
<path d="M349.252 98.9L349.177 96.725H351.727L351.652 98.9L351.127 102.455H349.777L349.252 98.9ZM363.301 98.33C362.811 98.14 362.291 98.045 361.741 98.045C361.261 98.045 360.906 98.15 360.676 98.36C360.456 98.57 360.346 98.9 360.346 99.35V99.56H362.911V101.285H360.346V107H358.141V101.285H356.176V99.65L358.141 99.56V99.365C358.141 98.935 358.206 98.535 358.336 98.165C358.466 97.795 358.666 97.475 358.936 97.205C359.206 96.925 359.551 96.705 359.971 96.545C360.391 96.385 360.891 96.305 361.471 96.305C361.901 96.305 362.301 96.345 362.671 96.425C363.051 96.505 363.401 96.6 363.721 96.71L363.301 98.33ZM365.68 99.56H367.48L367.66 101.18H367.705C368.075 100.57 368.52 100.12 369.04 99.83C369.56 99.53 370.12 99.38 370.72 99.38C371.05 99.38 371.315 99.405 371.515 99.455C371.725 99.505 371.94 99.58 372.16 99.68L371.71 101.525C371.48 101.455 371.27 101.405 371.08 101.375C370.9 101.335 370.67 101.315 370.39 101.315C369.93 101.315 369.475 101.45 369.025 101.72C368.585 101.99 368.205 102.46 367.885 103.13V107H365.68V99.56ZM373.76 103.28C373.76 102.67 373.865 102.125 374.075 101.645C374.295 101.165 374.585 100.76 374.945 100.43C375.305 100.09 375.715 99.83 376.175 99.65C376.645 99.47 377.13 99.38 377.63 99.38C378.2 99.38 378.705 99.47 379.145 99.65C379.585 99.83 379.95 100.08 380.24 100.4C380.53 100.72 380.75 101.1 380.9 101.54C381.05 101.97 381.125 102.44 381.125 102.95C381.125 103.15 381.115 103.34 381.095 103.52C381.075 103.7 381.055 103.835 381.035 103.925H376.025C376.105 104.485 376.345 104.89 376.745 105.14C377.155 105.38 377.635 105.5 378.185 105.5C378.525 105.5 378.845 105.46 379.145 105.38C379.455 105.29 379.775 105.16 380.105 104.99L380.825 106.31C380.405 106.58 379.935 106.795 379.415 106.955C378.895 107.105 378.385 107.18 377.885 107.18C377.305 107.18 376.765 107.095 376.265 106.925C375.765 106.745 375.33 106.49 374.96 106.16C374.59 105.82 374.295 105.41 374.075 104.93C373.865 104.45 373.76 103.9 373.76 103.28ZM379.13 102.47C379.13 102.05 379.015 101.71 378.785 101.45C378.555 101.19 378.185 101.06 377.675 101.06C377.275 101.06 376.92 101.175 376.61 101.405C376.3 101.635 376.095 101.99 375.995 102.47H379.13ZM382.754 103.28C382.754 102.67 382.859 102.125 383.069 101.645C383.289 101.165 383.579 100.76 383.939 100.43C384.299 100.09 384.709 99.83 385.169 99.65C385.639 99.47 386.124 99.38 386.624 99.38C387.194 99.38 387.699 99.47 388.139 99.65C388.579 99.83 388.944 100.08 389.234 100.4C389.524 100.72 389.744 101.1 389.894 101.54C390.044 101.97 390.119 102.44 390.119 102.95C390.119 103.15 390.109 103.34 390.089 103.52C390.069 103.7 390.049 103.835 390.029 103.925H385.019C385.099 104.485 385.339 104.89 385.739 105.14C386.149 105.38 386.629 105.5 387.179 105.5C387.519 105.5 387.839 105.46 388.139 105.38C388.449 105.29 388.769 105.16 389.099 104.99L389.819 106.31C389.399 106.58 388.929 106.795 388.409 106.955C387.889 107.105 387.379 107.18 386.879 107.18C386.299 107.18 385.759 107.095 385.259 106.925C384.759 106.745 384.324 106.49 383.954 106.16C383.584 105.82 383.289 105.41 383.069 104.93C382.859 104.45 382.754 103.9 382.754 103.28ZM388.124 102.47C388.124 102.05 388.009 101.71 387.779 101.45C387.549 101.19 387.179 101.06 386.669 101.06C386.269 101.06 385.914 101.175 385.604 101.405C385.294 101.635 385.089 101.99 384.989 102.47H388.124ZM394.223 98.9L394.148 96.725H396.698L396.623 98.9L396.098 102.455H394.748L394.223 98.9ZM349.252 136.9L349.177 134.725H351.727L351.652 136.9L351.127 140.455H349.777L349.252 136.9ZM356.026 137.56H357.826L357.991 138.55H358.051C358.371 138.23 358.736 137.955 359.146 137.725C359.566 137.495 360.056 137.38 360.616 137.38C361.456 137.38 362.071 137.65 362.461 138.19C362.851 138.73 363.046 139.47 363.046 140.41V145H360.841V140.695C360.841 140.195 360.761 139.83 360.601 139.6C360.441 139.37 360.156 139.255 359.746 139.255C359.446 139.255 359.181 139.32 358.951 139.45C358.731 139.58 358.491 139.775 358.231 140.035V145H356.026V137.56ZM364.645 141.28C364.645 140.66 364.75 140.11 364.96 139.63C365.17 139.14 365.45 138.73 365.8 138.4C366.16 138.07 366.565 137.82 367.015 137.65C367.475 137.47 367.95 137.38 368.44 137.38C368.93 137.38 369.4 137.47 369.85 137.65C370.31 137.82 370.715 138.07 371.065 138.4C371.425 138.73 371.71 139.14 371.92 139.63C372.13 140.11 372.235 140.66 372.235 141.28C372.235 141.9 372.13 142.455 371.92 142.945C371.71 143.425 371.425 143.83 371.065 144.16C370.715 144.49 370.31 144.745 369.85 144.925C369.4 145.095 368.93 145.18 368.44 145.18C367.95 145.18 367.475 145.095 367.015 144.925C366.565 144.745 366.16 144.49 365.8 144.16C365.45 143.83 365.17 143.425 364.96 142.945C364.75 142.455 364.645 141.9 364.645 141.28ZM366.91 141.28C366.91 141.93 367.035 142.445 367.285 142.825C367.545 143.205 367.93 143.395 368.44 143.395C368.95 143.395 369.33 143.205 369.58 142.825C369.84 142.445 369.97 141.93 369.97 141.28C369.97 140.63 369.84 140.115 369.58 139.735C369.33 139.355 368.95 139.165 368.44 139.165C367.93 139.165 367.545 139.355 367.285 139.735C367.035 140.115 366.91 140.63 366.91 141.28ZM375.545 139.285H373.67V137.65L375.65 137.56L375.935 135.58H377.75V137.56H380.9V139.285H377.75V141.895C377.75 142.465 377.875 142.87 378.125 143.11C378.375 143.34 378.77 143.455 379.31 143.455C379.6 143.455 379.865 143.43 380.105 143.38C380.345 143.33 380.575 143.265 380.795 143.185L381.185 144.775C380.855 144.875 380.485 144.965 380.075 145.045C379.675 145.135 379.235 145.18 378.755 145.18C378.165 145.18 377.665 145.1 377.255 144.94C376.845 144.78 376.51 144.56 376.25 144.28C376 143.99 375.82 143.645 375.71 143.245C375.6 142.845 375.545 142.4 375.545 141.91V139.285ZM399.278 136.33C398.788 136.14 398.268 136.045 397.718 136.045C397.238 136.045 396.883 136.15 396.653 136.36C396.433 136.57 396.323 136.9 396.323 137.35V137.56H398.888V139.285H396.323V145H394.118V139.285H392.153V137.65L394.118 137.56V137.365C394.118 136.935 394.183 136.535 394.313 136.165C394.443 135.795 394.643 135.475 394.913 135.205C395.183 134.925 395.528 134.705 395.948 134.545C396.368 134.385 396.868 134.305 397.448 134.305C397.878 134.305 398.278 134.345 398.648 134.425C399.028 134.505 399.378 134.6 399.698 134.71L399.278 136.33ZM401.657 137.56H403.457L403.637 139.18H403.682C404.052 138.57 404.497 138.12 405.017 137.83C405.537 137.53 406.097 137.38 406.697 137.38C407.027 137.38 407.292 137.405 407.492 137.455C407.702 137.505 407.917 137.58 408.137 137.68L407.687 139.525C407.457 139.455 407.247 139.405 407.057 139.375C406.877 139.335 406.647 139.315 406.367 139.315C405.907 139.315 405.452 139.45 405.002 139.72C404.562 139.99 404.182 140.46 403.862 141.13V145H401.657V137.56ZM409.736 141.28C409.736 140.67 409.841 140.125 410.051 139.645C410.271 139.165 410.561 138.76 410.921 138.43C411.281 138.09 411.691 137.83 412.151 137.65C412.621 137.47 413.106 137.38 413.606 137.38C414.176 137.38 414.681 137.47 415.121 137.65C415.561 137.83 415.926 138.08 416.216 138.4C416.506 138.72 416.726 139.1 416.876 139.54C417.026 139.97 417.101 140.44 417.101 140.95C417.101 141.15 417.091 141.34 417.071 141.52C417.051 141.7 417.031 141.835 417.011 141.925H412.001C412.081 142.485 412.321 142.89 412.721 143.14C413.131 143.38 413.611 143.5 414.161 143.5C414.501 143.5 414.821 143.46 415.121 143.38C415.431 143.29 415.751 143.16 416.081 142.99L416.801 144.31C416.381 144.58 415.911 144.795 415.391 144.955C414.871 145.105 414.361 145.18 413.861 145.18C413.281 145.18 412.741 145.095 412.241 144.925C411.741 144.745 411.306 144.49 410.936 144.16C410.566 143.82 410.271 143.41 410.051 142.93C409.841 142.45 409.736 141.9 409.736 141.28ZM415.106 140.47C415.106 140.05 414.991 139.71 414.761 139.45C414.531 139.19 414.161 139.06 413.651 139.06C413.251 139.06 412.896 139.175 412.586 139.405C412.276 139.635 412.071 139.99 411.971 140.47H415.106ZM418.73 141.28C418.73 140.67 418.835 140.125 419.045 139.645C419.265 139.165 419.555 138.76 419.915 138.43C420.275 138.09 420.685 137.83 421.145 137.65C421.615 137.47 422.1 137.38 422.6 137.38C423.17 137.38 423.675 137.47 424.115 137.65C424.555 137.83 424.92 138.08 425.21 138.4C425.5 138.72 425.72 139.1 425.87 139.54C426.02 139.97 426.095 140.44 426.095 140.95C426.095 141.15 426.085 141.34 426.065 141.52C426.045 141.7 426.025 141.835 426.005 141.925H420.995C421.075 142.485 421.315 142.89 421.715 143.14C422.125 143.38 422.605 143.5 423.155 143.5C423.495 143.5 423.815 143.46 424.115 143.38C424.425 143.29 424.745 143.16 425.075 142.99L425.795 144.31C425.375 144.58 424.905 144.795 424.385 144.955C423.865 145.105 423.355 145.18 422.855 145.18C422.275 145.18 421.735 145.095 421.235 144.925C420.735 144.745 420.3 144.49 419.93 144.16C419.56 143.82 419.265 143.41 419.045 142.93C418.835 142.45 418.73 141.9 418.73 141.28ZM424.1 140.47C424.1 140.05 423.985 139.71 423.755 139.45C423.525 139.19 423.155 139.06 422.645 139.06C422.245 139.06 421.89 139.175 421.58 139.405C421.27 139.635 421.065 139.99 420.965 140.47H424.1ZM430.199 136.9L430.124 134.725H432.674L432.599 136.9L432.074 140.455H430.724L430.199 136.9Z" fill="#009E73"/>
</svg>
