<svg width="242" height="153" viewBox="0 0 242 153" fill="none" xmlns="http://www.w3.org/2000/svg">
<rect width="242" height="153" fill="black"/>
<path d="M11.68 119.45C12 119.71 12.34 119.935 12.7 120.125C13.07 120.305 13.48 120.395 13.93 120.395C14.47 120.395 14.91 120.27 15.25 120.02C15.6 119.77 15.775 119.4 15.775 118.91C15.775 118.43 15.61 118.065 15.28 117.815C14.96 117.565 14.545 117.44 14.035 117.44C13.875 117.44 13.73 117.45 13.6 117.47C13.48 117.48 13.36 117.505 13.24 117.545C13.12 117.585 12.995 117.635 12.865 117.695C12.735 117.755 12.59 117.83 12.43 117.92L11.455 117.29L11.71 112.475H17.545V114.335H13.615L13.45 116.12C13.67 116.04 13.875 115.985 14.065 115.955C14.255 115.915 14.47 115.895 14.71 115.895C15.15 115.895 15.565 115.955 15.955 116.075C16.355 116.195 16.705 116.375 17.005 116.615C17.305 116.855 17.54 117.16 17.71 117.53C17.89 117.9 17.98 118.34 17.98 118.85C17.98 119.38 17.875 119.85 17.665 120.26C17.465 120.67 17.19 121.02 16.84 121.31C16.5 121.59 16.105 121.805 15.655 121.955C15.205 122.105 14.735 122.18 14.245 122.18C13.415 122.18 12.71 122.055 12.13 121.805C11.56 121.545 11.08 121.225 10.69 120.845L11.68 119.45ZM21.7541 120.425C21.7541 120.175 21.7941 119.945 21.8741 119.735C21.9641 119.515 22.0841 119.325 22.2341 119.165C22.3841 119.005 22.5641 118.88 22.7741 118.79C22.9941 118.7 23.2341 118.655 23.4941 118.655C23.7541 118.655 23.9891 118.7 24.1991 118.79C24.4191 118.88 24.6041 119.005 24.7541 119.165C24.9041 119.325 25.0191 119.515 25.0991 119.735C25.1891 119.945 25.2341 120.175 25.2341 120.425C25.2341 120.925 25.0741 121.345 24.7541 121.685C24.4341 122.015 24.0141 122.18 23.4941 122.18C22.9741 122.18 22.5541 122.015 22.2341 121.685C21.9141 121.345 21.7541 120.925 21.7541 120.425ZM29.6683 119.45C29.9883 119.71 30.3283 119.935 30.6883 120.125C31.0583 120.305 31.4683 120.395 31.9183 120.395C32.4583 120.395 32.8983 120.27 33.2383 120.02C33.5883 119.77 33.7633 119.4 33.7633 118.91C33.7633 118.43 33.5983 118.065 33.2683 117.815C32.9483 117.565 32.5333 117.44 32.0233 117.44C31.8633 117.44 31.7183 117.45 31.5883 117.47C31.4683 117.48 31.3483 117.505 31.2283 117.545C31.1083 117.585 30.9833 117.635 30.8533 117.695C30.7233 117.755 30.5783 117.83 30.4183 117.92L29.4433 117.29L29.6983 112.475H35.5333V114.335H31.6033L31.4383 116.12C31.6583 116.04 31.8633 115.985 32.0533 115.955C32.2433 115.915 32.4583 115.895 32.6983 115.895C33.1383 115.895 33.5533 115.955 33.9433 116.075C34.3433 116.195 34.6933 116.375 34.9933 116.615C35.2933 116.855 35.5283 117.16 35.6983 117.53C35.8783 117.9 35.9683 118.34 35.9683 118.85C35.9683 119.38 35.8633 119.85 35.6533 120.26C35.4533 120.67 35.1783 121.02 34.8283 121.31C34.4883 121.59 34.0933 121.805 33.6433 121.955C33.1933 122.105 32.7233 122.18 32.2333 122.18C31.4033 122.18 30.6983 122.055 30.1183 121.805C29.5483 121.545 29.0683 121.225 28.6783 120.845L29.6683 119.45ZM18.055 139.215V141H11.23V139.215H13.69V133.71H11.725V132.345C12.285 132.245 12.76 132.125 13.15 131.985C13.55 131.845 13.925 131.675 14.275 131.475H15.895V139.215H18.055ZM23.4941 141.18C22.9441 141.18 22.4441 141.075 21.9941 140.865C21.5441 140.645 21.1591 140.325 20.8391 139.905C20.5191 139.485 20.2691 138.965 20.0891 138.345C19.9191 137.725 19.8341 137.01 19.8341 136.2C19.8341 135.39 19.9191 134.68 20.0891 134.07C20.2691 133.46 20.5191 132.95 20.8391 132.54C21.1591 132.12 21.5441 131.81 21.9941 131.61C22.4441 131.4 22.9441 131.295 23.4941 131.295C24.0441 131.295 24.5441 131.4 24.9941 131.61C25.4441 131.81 25.8291 132.12 26.1491 132.54C26.4691 132.95 26.7141 133.46 26.8841 134.07C27.0641 134.68 27.1541 135.39 27.1541 136.2C27.1541 137.01 27.0641 137.725 26.8841 138.345C26.7141 138.965 26.4691 139.485 26.1491 139.905C25.8291 140.325 25.4441 140.645 24.9941 140.865C24.5441 141.075 24.0441 141.18 23.4941 141.18ZM23.4941 133.005C23.2541 133.005 23.0291 133.055 22.8191 133.155C22.6191 133.255 22.4441 133.43 22.2941 133.68C22.1441 133.92 22.0241 134.245 21.9341 134.655C21.8441 135.065 21.7991 135.58 21.7991 136.2C21.7991 136.82 21.8441 137.34 21.9341 137.76C22.0241 138.17 22.1441 138.505 22.2941 138.765C22.4441 139.015 22.6191 139.195 22.8191 139.305C23.0291 139.415 23.2541 139.47 23.4941 139.47C23.7341 139.47 23.9541 139.415 24.1541 139.305C24.3641 139.195 24.5441 139.015 24.6941 138.765C24.8441 138.505 24.9641 138.17 25.0541 137.76C25.1441 137.34 25.1891 136.82 25.1891 136.2C25.1891 135.58 25.1441 135.065 25.0541 134.655C24.9641 134.245 24.8441 133.92 24.6941 133.68C24.5441 133.43 24.3641 133.255 24.1541 133.155C23.9541 133.055 23.7341 133.005 23.4941 133.005ZM23.4941 137.31C23.1741 137.31 22.9041 137.21 22.6841 137.01C22.4741 136.8 22.3691 136.52 22.3691 136.17C22.3691 135.82 22.4741 135.545 22.6841 135.345C22.9041 135.135 23.1741 135.03 23.4941 135.03C23.8141 135.03 24.0791 135.135 24.2891 135.345C24.5091 135.545 24.6191 135.82 24.6191 136.17C24.6191 136.52 24.5091 136.8 24.2891 137.01C24.0791 137.21 23.8141 137.31 23.4941 137.31ZM30.7483 139.425C30.7483 139.175 30.7883 138.945 30.8683 138.735C30.9583 138.515 31.0783 138.325 31.2283 138.165C31.3783 138.005 31.5583 137.88 31.7683 137.79C31.9883 137.7 32.2283 137.655 32.4883 137.655C32.7483 137.655 32.9833 137.7 33.1933 137.79C33.4133 137.88 33.5983 138.005 33.7483 138.165C33.8983 138.325 34.0133 138.515 34.0933 138.735C34.1833 138.945 34.2283 139.175 34.2283 139.425C34.2283 139.925 34.0683 140.345 33.7483 140.685C33.4283 141.015 33.0083 141.18 32.4883 141.18C31.9683 141.18 31.5483 141.015 31.2283 140.685C30.9083 140.345 30.7483 139.925 30.7483 139.425ZM41.4824 141.18C40.9324 141.18 40.4324 141.075 39.9824 140.865C39.5324 140.645 39.1474 140.325 38.8274 139.905C38.5074 139.485 38.2574 138.965 38.0774 138.345C37.9074 137.725 37.8224 137.01 37.8224 136.2C37.8224 135.39 37.9074 134.68 38.0774 134.07C38.2574 133.46 38.5074 132.95 38.8274 132.54C39.1474 132.12 39.5324 131.81 39.9824 131.61C40.4324 131.4 40.9324 131.295 41.4824 131.295C42.0324 131.295 42.5324 131.4 42.9824 131.61C43.4324 131.81 43.8174 132.12 44.1374 132.54C44.4574 132.95 44.7024 133.46 44.8724 134.07C45.0524 134.68 45.1424 135.39 45.1424 136.2C45.1424 137.01 45.0524 137.725 44.8724 138.345C44.7024 138.965 44.4574 139.485 44.1374 139.905C43.8174 140.325 43.4324 140.645 42.9824 140.865C42.5324 141.075 42.0324 141.18 41.4824 141.18ZM41.4824 133.005C41.2424 133.005 41.0174 133.055 40.8074 133.155C40.6074 133.255 40.4324 133.43 40.2824 133.68C40.1324 133.92 40.0124 134.245 39.9224 134.655C39.8324 135.065 39.7874 135.58 39.7874 136.2C39.7874 136.82 39.8324 137.34 39.9224 137.76C40.0124 138.17 40.1324 138.505 40.2824 138.765C40.4324 139.015 40.6074 139.195 40.8074 139.305C41.0174 139.415 41.2424 139.47 41.4824 139.47C41.7224 139.47 41.9424 139.415 42.1424 139.305C42.3524 139.195 42.5324 139.015 42.6824 138.765C42.8324 138.505 42.9524 138.17 43.0424 137.76C43.1324 137.34 43.1774 136.82 43.1774 136.2C43.1774 135.58 43.1324 135.065 43.0424 134.655C42.9524 134.245 42.8324 133.92 42.6824 133.68C42.5324 133.43 42.3524 133.255 42.1424 133.155C41.9424 133.055 41.7224 133.005 41.4824 133.005ZM41.4824 137.31C41.1624 137.31 40.8924 137.21 40.6724 137.01C40.4624 136.8 40.3574 136.52 40.3574 136.17C40.3574 135.82 40.4624 135.545 40.6724 135.345C40.8924 135.135 41.1624 135.03 41.4824 135.03C41.8024 135.03 42.0674 135.135 42.2774 135.345C42.4974 135.545 42.6074 135.82 42.6074 136.17C42.6074 136.52 42.4974 136.8 42.2774 137.01C42.0674 137.21 41.8024 137.31 41.4824 137.31Z" fill="white"/>
<path d="M14.5 103.18C13.92 103.18 13.385 103.065 12.895 102.835C12.415 102.595 12 102.255 11.65 101.815C11.31 101.375 11.045 100.84 10.855 100.21C10.665 99.58 10.57 98.865 10.57 98.065C10.57 97.265 10.665 96.555 10.855 95.935C11.045 95.305 11.31 94.78 11.65 94.36C12 93.93 12.415 93.605 12.895 93.385C13.385 93.155 13.92 93.04 14.5 93.04C15.08 93.04 15.61 93.155 16.09 93.385C16.58 93.605 16.995 93.93 17.335 94.36C17.685 94.79 17.955 95.32 18.145 95.95C18.335 96.57 18.43 97.275 18.43 98.065C18.43 98.865 18.335 99.58 18.145 100.21C17.955 100.84 17.685 101.375 17.335 101.815C16.995 102.255 16.58 102.595 16.09 102.835C15.61 103.065 15.08 103.18 14.5 103.18ZM14.5 101.275C15.01 101.275 15.415 100.99 15.715 100.42C16.015 99.84 16.165 99.055 16.165 98.065C16.165 97.085 16.015 96.32 15.715 95.77C15.415 95.22 15.01 94.945 14.5 94.945C13.99 94.945 13.585 95.22 13.285 95.77C12.985 96.32 12.835 97.085 12.835 98.065C12.835 99.055 12.985 99.84 13.285 100.42C13.585 100.99 13.99 101.275 14.5 101.275ZM26.8691 103H25.0691L24.9041 101.935H24.8441C24.5141 102.315 24.1491 102.62 23.7491 102.85C23.3491 103.07 22.8791 103.18 22.3391 103.18C21.4891 103.18 20.8741 102.91 20.4941 102.37C20.1141 101.83 19.9241 101.09 19.9241 100.15V95.56H22.1291V99.865C22.1291 100.365 22.2041 100.73 22.3541 100.96C22.5041 101.19 22.7891 101.305 23.2091 101.305C23.4891 101.305 23.7341 101.245 23.9441 101.125C24.1641 101.005 24.4041 100.78 24.6641 100.45V95.56H26.8691V103ZM30.5983 97.285H28.7233V95.65L30.7033 95.56L30.9883 93.58H32.8033V95.56H35.9533V97.285H32.8033V99.895C32.8033 100.465 32.9283 100.87 33.1783 101.11C33.4283 101.34 33.8233 101.455 34.3633 101.455C34.6533 101.455 34.9183 101.43 35.1583 101.38C35.3983 101.33 35.6283 101.265 35.8483 101.185L36.2383 102.775C35.9083 102.875 35.5383 102.965 35.1283 103.045C34.7283 103.135 34.2883 103.18 33.8083 103.18C33.2183 103.18 32.7183 103.1 32.3083 102.94C31.8983 102.78 31.5633 102.56 31.3033 102.28C31.0533 101.99 30.8733 101.645 30.7633 101.245C30.6533 100.845 30.5983 100.4 30.5983 99.91V97.285ZM40.2674 103.585V105.76H38.0624V95.56H39.8624L40.0274 96.31H40.0724C40.3724 96.04 40.7174 95.82 41.1074 95.65C41.4974 95.47 41.8924 95.38 42.2924 95.38C42.7524 95.38 43.1674 95.47 43.5374 95.65C43.9074 95.83 44.2224 96.085 44.4824 96.415C44.7424 96.745 44.9374 97.145 45.0674 97.615C45.2074 98.075 45.2774 98.59 45.2774 99.16C45.2774 99.8 45.1874 100.37 45.0074 100.87C44.8274 101.36 44.5874 101.78 44.2874 102.13C43.9874 102.47 43.6424 102.73 43.2524 102.91C42.8724 103.09 42.4724 103.18 42.0524 103.18C41.3724 103.18 40.7524 102.91 40.1924 102.37L40.2674 103.585ZM40.2674 100.885C40.4774 101.065 40.6924 101.195 40.9124 101.275C41.1424 101.345 41.3524 101.38 41.5424 101.38C41.9624 101.38 42.3124 101.21 42.5924 100.87C42.8724 100.52 43.0124 99.96 43.0124 99.19C43.0124 97.85 42.5574 97.18 41.6474 97.18C41.1774 97.18 40.7174 97.41 40.2674 97.87V100.885ZM53.8516 103H52.0516L51.8866 101.935H51.8266C51.4966 102.315 51.1316 102.62 50.7316 102.85C50.3316 103.07 49.8616 103.18 49.3216 103.18C48.4716 103.18 47.8566 102.91 47.4766 102.37C47.0966 101.83 46.9066 101.09 46.9066 100.15V95.56H49.1116V99.865C49.1116 100.365 49.1866 100.73 49.3366 100.96C49.4866 101.19 49.7716 101.305 50.1916 101.305C50.4716 101.305 50.7166 101.245 50.9266 101.125C51.1466 101.005 51.3866 100.78 51.6466 100.45V95.56H53.8516V103ZM57.5807 97.285H55.7057V95.65L57.6857 95.56L57.9707 93.58H59.7857V95.56H62.9357V97.285H59.7857V99.895C59.7857 100.465 59.9107 100.87 60.1607 101.11C60.4107 101.34 60.8057 101.455 61.3457 101.455C61.6357 101.455 61.9007 101.43 62.1407 101.38C62.3807 101.33 62.6107 101.265 62.8307 101.185L63.2207 102.775C62.8907 102.875 62.5207 102.965 62.1107 103.045C61.7107 103.135 61.2707 103.18 60.7907 103.18C60.2007 103.18 59.7007 103.1 59.2907 102.94C58.8807 102.78 58.5457 102.56 58.2857 102.28C58.0357 101.99 57.8557 101.645 57.7457 101.245C57.6357 100.845 57.5807 100.4 57.5807 99.91V97.285Z" fill="white"/>
<rect x="100" width="142" height="31" fill="#333333"/>
<rect x="100" width="142" height="31" fill="#333333"/>
<rect x="3" width="97.1974" height="30.6018" fill="#090808"/>
<path d="M21.105 17.8101C21.105 17.5513 20.9756 17.3486 20.7168 17.2021C20.4629 17.0508 20.0527 16.9165 19.4863 16.7993C17.6016 16.4038 16.6592 15.603 16.6592 14.397C16.6592 13.6938 16.9497 13.1079 17.5308 12.6392C18.1167 12.1655 18.8809 11.9287 19.8232 11.9287C20.8291 11.9287 21.6323 12.1655 22.2329 12.6392C22.8384 13.1128 23.1411 13.728 23.1411 14.4849H21.0244C21.0244 14.1821 20.9268 13.9331 20.7314 13.7378C20.5361 13.5376 20.231 13.4375 19.8159 13.4375C19.4595 13.4375 19.1836 13.5181 18.9883 13.6792C18.793 13.8403 18.6953 14.0454 18.6953 14.2944C18.6953 14.5288 18.8052 14.7192 19.0249 14.8657C19.2495 15.0073 19.6255 15.1318 20.1528 15.2393C20.6802 15.3418 21.1245 15.459 21.4858 15.5908C22.604 16.001 23.1631 16.7114 23.1631 17.7222C23.1631 18.4448 22.853 19.0308 22.2329 19.48C21.6128 19.9243 20.812 20.1465 19.8306 20.1465C19.1665 20.1465 18.5757 20.0293 18.0581 19.7949C17.5454 19.5557 17.1426 19.231 16.8496 18.8208C16.5566 18.4058 16.4102 17.959 16.4102 17.4805H18.417C18.4365 17.8564 18.5757 18.1445 18.8345 18.3447C19.0933 18.5449 19.4399 18.645 19.8745 18.645C20.2798 18.645 20.585 18.5693 20.79 18.418C21 18.2617 21.105 18.0591 21.105 17.8101ZM27.8286 18.4399C28.2192 18.4399 28.5366 18.3325 28.7808 18.1177C29.0249 17.9028 29.1519 17.6172 29.1616 17.2607H31.1465C31.1416 17.7979 30.9951 18.291 30.707 18.7402C30.4189 19.1846 30.0234 19.5312 29.5205 19.7803C29.0225 20.0244 28.4707 20.1465 27.8652 20.1465C26.7324 20.1465 25.8389 19.7876 25.1846 19.0698C24.5303 18.3472 24.2031 17.3511 24.2031 16.0815V15.9424C24.2031 14.7217 24.5278 13.7476 25.1772 13.02C25.8267 12.2925 26.7178 11.9287 27.8506 11.9287C28.8418 11.9287 29.6353 12.2119 30.231 12.7783C30.8315 13.3398 31.1367 14.0894 31.1465 15.0269H29.1616C29.1519 14.6167 29.0249 14.2847 28.7808 14.0308C28.5366 13.772 28.2144 13.6426 27.814 13.6426C27.3208 13.6426 26.9473 13.8232 26.6934 14.1846C26.4443 14.541 26.3198 15.1221 26.3198 15.9277V16.1475C26.3198 16.9629 26.4443 17.5488 26.6934 17.9053C26.9424 18.2617 27.3208 18.4399 27.8286 18.4399ZM36.8081 14.0601C36.52 14.021 36.2661 14.0015 36.0464 14.0015C35.2456 14.0015 34.7207 14.2725 34.4717 14.8145V20H32.355V12.0752H34.3545L34.4131 13.02C34.8379 12.2925 35.4263 11.9287 36.1782 11.9287C36.4126 11.9287 36.6323 11.9604 36.8374 12.0239L36.8081 14.0601ZM40.0674 20H37.9434V12.0752H40.0674V20ZM37.8188 10.0244C37.8188 9.70703 37.9238 9.4458 38.1338 9.24072C38.3486 9.03564 38.6392 8.93311 39.0054 8.93311C39.3667 8.93311 39.6548 9.03564 39.8696 9.24072C40.0845 9.4458 40.1919 9.70703 40.1919 10.0244C40.1919 10.3467 40.082 10.6104 39.8623 10.8154C39.6475 11.0205 39.3618 11.123 39.0054 11.123C38.6489 11.123 38.3608 11.0205 38.1411 10.8154C37.9263 10.6104 37.8188 10.3467 37.8188 10.0244ZM48.9517 16.1108C48.9517 17.3315 48.6733 18.3105 48.1167 19.0479C47.5649 19.7803 46.8179 20.1465 45.8755 20.1465C45.0747 20.1465 44.4277 19.8682 43.9346 19.3115V23.0469H41.8179V12.0752H43.7808L43.854 12.8516C44.3667 12.2363 45.0356 11.9287 45.8608 11.9287C46.8374 11.9287 47.5967 12.29 48.1387 13.0127C48.6807 13.7354 48.9517 14.7314 48.9517 16.001V16.1108ZM46.835 15.957C46.835 15.2197 46.7031 14.6509 46.4395 14.2505C46.1807 13.8501 45.8022 13.6499 45.3042 13.6499C44.6401 13.6499 44.1836 13.9038 43.9346 14.4116V17.6562C44.1934 18.1787 44.6548 18.4399 45.3188 18.4399C46.3296 18.4399 46.835 17.6123 46.835 15.957ZM52.8042 10.127V12.0752H54.1592V13.6279H52.8042V17.583C52.8042 17.876 52.8604 18.0859 52.9727 18.2129C53.085 18.3398 53.2998 18.4033 53.6172 18.4033C53.8516 18.4033 54.0591 18.3862 54.2397 18.3521V19.9561C53.8247 20.083 53.3975 20.1465 52.958 20.1465C51.4736 20.1465 50.7168 19.397 50.6875 17.8979V13.6279H49.5303V12.0752H50.6875V10.127H52.8042ZM55.4482 18.96C55.4482 18.623 55.5605 18.3496 55.7852 18.1396C56.0146 17.9297 56.3003 17.8247 56.6421 17.8247C56.9888 17.8247 57.2744 17.9297 57.499 18.1396C57.7285 18.3496 57.8433 18.623 57.8433 18.96C57.8433 19.292 57.731 19.563 57.5063 19.7729C57.2817 19.978 56.9937 20.0806 56.6421 20.0806C56.2954 20.0806 56.0098 19.978 55.7852 19.7729C55.5605 19.563 55.4482 19.292 55.4482 18.96ZM66.8374 16.1108C66.8374 17.3315 66.5591 18.3105 66.0024 19.0479C65.4507 19.7803 64.7036 20.1465 63.7612 20.1465C62.9604 20.1465 62.3135 19.8682 61.8203 19.3115V23.0469H59.7036V12.0752H61.6665L61.7397 12.8516C62.2524 12.2363 62.9214 11.9287 63.7466 11.9287C64.7231 11.9287 65.4824 12.29 66.0244 13.0127C66.5664 13.7354 66.8374 14.7314 66.8374 16.001V16.1108ZM64.7207 15.957C64.7207 15.2197 64.5889 14.6509 64.3252 14.2505C64.0664 13.8501 63.688 13.6499 63.1899 13.6499C62.5259 13.6499 62.0693 13.9038 61.8203 14.4116V17.6562C62.0791 18.1787 62.5405 18.4399 63.2046 18.4399C64.2153 18.4399 64.7207 17.6123 64.7207 15.957ZM71.0269 17.0044L72.4917 12.0752H74.7622L71.5762 21.2305L71.4004 21.6479C70.9268 22.6831 70.1455 23.2007 69.0566 23.2007C68.749 23.2007 68.4365 23.1543 68.1191 23.0615V21.4575L68.4414 21.4648C68.8418 21.4648 69.1396 21.4038 69.335 21.2817C69.5352 21.1597 69.6914 20.957 69.8037 20.6738L70.0527 20.022L67.2769 12.0752H69.5547L71.0269 17.0044Z" fill="white"/>
<line y1="82.5" x2="242" y2="82.5" stroke="white"/>
<path d="M13.285 51.585V53.76H11.08V43.56H12.88L13.045 44.31H13.09C13.39 44.04 13.735 43.82 14.125 43.65C14.515 43.47 14.91 43.38 15.31 43.38C15.77 43.38 16.185 43.47 16.555 43.65C16.925 43.83 17.24 44.085 17.5 44.415C17.76 44.745 17.955 45.145 18.085 45.615C18.225 46.075 18.295 46.59 18.295 47.16C18.295 47.8 18.205 48.37 18.025 48.87C17.845 49.36 17.605 49.78 17.305 50.13C17.005 50.47 16.66 50.73 16.27 50.91C15.89 51.09 15.49 51.18 15.07 51.18C14.39 51.18 13.77 50.91 13.21 50.37L13.285 51.585ZM13.285 48.885C13.495 49.065 13.71 49.195 13.93 49.275C14.16 49.345 14.37 49.38 14.56 49.38C14.98 49.38 15.33 49.21 15.61 48.87C15.89 48.52 16.03 47.96 16.03 47.19C16.03 45.85 15.575 45.18 14.665 45.18C14.195 45.18 13.735 45.41 13.285 45.87V48.885ZM20.7341 43.56H22.5341L22.7141 45.18H22.7591C23.1291 44.57 23.5741 44.12 24.0941 43.83C24.6141 43.53 25.1741 43.38 25.7741 43.38C26.1041 43.38 26.3691 43.405 26.5691 43.455C26.7791 43.505 26.9941 43.58 27.2141 43.68L26.7641 45.525C26.5341 45.455 26.3241 45.405 26.1341 45.375C25.9541 45.335 25.7241 45.315 25.4441 45.315C24.9841 45.315 24.5291 45.45 24.0791 45.72C23.6391 45.99 23.2591 46.46 22.9391 47.13V51H20.7341V43.56ZM29.1733 43.56H34.3633V51H32.1583V45.285H29.1733V43.56ZM33.1633 42.465C32.7333 42.465 32.3783 42.345 32.0983 42.105C31.8283 41.865 31.6933 41.54 31.6933 41.13C31.6933 40.72 31.8283 40.39 32.0983 40.14C32.3783 39.88 32.7333 39.75 33.1633 39.75C33.5933 39.75 33.9433 39.88 34.2133 40.14C34.4933 40.39 34.6333 40.72 34.6333 41.13C34.6333 41.54 34.4933 41.865 34.2133 42.105C33.9433 42.345 33.5933 42.465 33.1633 42.465ZM38.0624 43.56H39.8624L40.0274 44.55H40.0874C40.4074 44.23 40.7724 43.955 41.1824 43.725C41.6024 43.495 42.0924 43.38 42.6524 43.38C43.4924 43.38 44.1074 43.65 44.4974 44.19C44.8874 44.73 45.0824 45.47 45.0824 46.41V51H42.8774V46.695C42.8774 46.195 42.7974 45.83 42.6374 45.6C42.4774 45.37 42.1924 45.255 41.7824 45.255C41.4824 45.255 41.2174 45.32 40.9874 45.45C40.7674 45.58 40.5274 45.775 40.2674 46.035V51H38.0624V43.56ZM48.5866 45.285H46.7116V43.65L48.6916 43.56L48.9766 41.58H50.7916V43.56H53.9416V45.285H50.7916V47.895C50.7916 48.465 50.9166 48.87 51.1666 49.11C51.4166 49.34 51.8116 49.455 52.3516 49.455C52.6416 49.455 52.9066 49.43 53.1466 49.38C53.3866 49.33 53.6166 49.265 53.8366 49.185L54.2266 50.775C53.8966 50.875 53.5266 50.965 53.1166 51.045C52.7166 51.135 52.2766 51.18 51.7966 51.18C51.2066 51.18 50.7066 51.1 50.2966 50.94C49.8866 50.78 49.5516 50.56 49.2916 50.28C49.0416 49.99 48.8616 49.645 48.7516 49.245C48.6416 48.845 48.5866 48.4 48.5866 47.91V45.285ZM13.285 70.585V72.76H11.08V62.56H12.88L13.045 63.31H13.09C13.39 63.04 13.735 62.82 14.125 62.65C14.515 62.47 14.91 62.38 15.31 62.38C15.77 62.38 16.185 62.47 16.555 62.65C16.925 62.83 17.24 63.085 17.5 63.415C17.76 63.745 17.955 64.145 18.085 64.615C18.225 65.075 18.295 65.59 18.295 66.16C18.295 66.8 18.205 67.37 18.025 67.87C17.845 68.36 17.605 68.78 17.305 69.13C17.005 69.47 16.66 69.73 16.27 69.91C15.89 70.09 15.49 70.18 15.07 70.18C14.39 70.18 13.77 69.91 13.21 69.37L13.285 70.585ZM13.285 67.885C13.495 68.065 13.71 68.195 13.93 68.275C14.16 68.345 14.37 68.38 14.56 68.38C14.98 68.38 15.33 68.21 15.61 67.87C15.89 67.52 16.03 66.96 16.03 66.19C16.03 64.85 15.575 64.18 14.665 64.18C14.195 64.18 13.735 64.41 13.285 64.87V67.885ZM20.7341 62.56H22.5341L22.7141 64.18H22.7591C23.1291 63.57 23.5741 63.12 24.0941 62.83C24.6141 62.53 25.1741 62.38 25.7741 62.38C26.1041 62.38 26.3691 62.405 26.5691 62.455C26.7791 62.505 26.9941 62.58 27.2141 62.68L26.7641 64.525C26.5341 64.455 26.3241 64.405 26.1341 64.375C25.9541 64.335 25.7241 64.315 25.4441 64.315C24.9841 64.315 24.5291 64.45 24.0791 64.72C23.6391 64.99 23.2591 65.46 22.9391 66.13V70H20.7341V62.56ZM29.1733 62.56H34.3633V70H32.1583V64.285H29.1733V62.56ZM33.1633 61.465C32.7333 61.465 32.3783 61.345 32.0983 61.105C31.8283 60.865 31.6933 60.54 31.6933 60.13C31.6933 59.72 31.8283 59.39 32.0983 59.14C32.3783 58.88 32.7333 58.75 33.1633 58.75C33.5933 58.75 33.9433 58.88 34.2133 59.14C34.4933 59.39 34.6333 59.72 34.6333 60.13C34.6333 60.54 34.4933 60.865 34.2133 61.105C33.9433 61.345 33.5933 61.465 33.1633 61.465ZM38.0624 62.56H39.8624L40.0274 63.55H40.0874C40.4074 63.23 40.7724 62.955 41.1824 62.725C41.6024 62.495 42.0924 62.38 42.6524 62.38C43.4924 62.38 44.1074 62.65 44.4974 63.19C44.8874 63.73 45.0824 64.47 45.0824 65.41V70H42.8774V65.695C42.8774 65.195 42.7974 64.83 42.6374 64.6C42.4774 64.37 42.1924 64.255 41.7824 64.255C41.4824 64.255 41.2174 64.32 40.9874 64.45C40.7674 64.58 40.5274 64.775 40.2674 65.035V70H38.0624V62.56ZM48.5866 64.285H46.7116V62.65L48.6916 62.56L48.9766 60.58H50.7916V62.56H53.9416V64.285H50.7916V66.895C50.7916 67.465 50.9166 67.87 51.1666 68.11C51.4166 68.34 51.8116 68.455 52.3516 68.455C52.6416 68.455 52.9066 68.43 53.1466 68.38C53.3866 68.33 53.6166 68.265 53.8366 68.185L54.2266 69.775C53.8966 69.875 53.5266 69.965 53.1166 70.045C52.7166 70.135 52.2766 70.18 51.7966 70.18C51.2066 70.18 50.7066 70.1 50.2966 69.94C49.8866 69.78 49.5516 69.56 49.2916 69.28C49.0416 68.99 48.8616 68.645 48.7516 68.245C48.6416 67.845 48.5866 67.4 48.5866 66.91V64.285Z" fill="#56B4E9"/>
<path d="M60.8507 53.685C59.8707 52.815 59.0957 51.81 58.5257 50.67C57.9657 49.53 57.6857 48.25 57.6857 46.83C57.6857 45.41 57.9657 44.13 58.5257 42.99C59.0957 41.85 59.8707 40.845 60.8507 39.975L62.0807 40.95C61.1907 41.82 60.5407 42.725 60.1307 43.665C59.7307 44.595 59.5307 45.65 59.5307 46.83C59.5307 47.42 59.5807 47.98 59.6807 48.51C59.7807 49.03 59.9307 49.53 60.1307 50.01C60.3407 50.49 60.6057 50.95 60.9257 51.39C61.2457 51.84 61.6307 52.28 62.0807 52.71L60.8507 53.685ZM128.814 52.71C129.264 52.28 129.649 51.84 129.969 51.39C130.289 50.95 130.549 50.49 130.749 50.01C130.959 49.53 131.114 49.03 131.214 48.51C131.314 47.98 131.364 47.42 131.364 46.83C131.364 45.65 131.159 44.595 130.749 43.665C130.349 42.725 129.704 41.82 128.814 40.95L130.044 39.975C131.024 40.845 131.794 41.85 132.354 42.99C132.924 44.13 133.209 45.41 133.209 46.83C133.209 48.25 132.924 49.53 132.354 50.67C131.794 51.81 131.024 52.815 130.044 53.685L128.814 52.71ZM60.8507 72.685C59.8707 71.815 59.0957 70.81 58.5257 69.67C57.9657 68.53 57.6857 67.25 57.6857 65.83C57.6857 64.41 57.9657 63.13 58.5257 61.99C59.0957 60.85 59.8707 59.845 60.8507 58.975L62.0807 59.95C61.1907 60.82 60.5407 61.725 60.1307 62.665C59.7307 63.595 59.5307 64.65 59.5307 65.83C59.5307 66.42 59.5807 66.98 59.6807 67.51C59.7807 68.03 59.9307 68.53 60.1307 69.01C60.3407 69.49 60.6057 69.95 60.9257 70.39C61.2457 70.84 61.6307 71.28 62.0807 71.71L60.8507 72.685ZM128.814 71.71C129.264 71.28 129.649 70.84 129.969 70.39C130.289 69.95 130.549 69.49 130.749 69.01C130.959 68.53 131.114 68.03 131.214 67.51C131.314 66.98 131.364 66.42 131.364 65.83C131.364 64.65 131.159 63.595 130.749 62.665C130.349 61.725 129.704 60.82 128.814 59.95L130.044 58.975C131.024 59.845 131.794 60.85 132.354 61.99C132.924 63.13 133.209 64.41 133.209 65.83C133.209 67.25 132.924 68.53 132.354 69.67C131.794 70.81 131.024 71.815 130.044 72.685L128.814 71.71Z" fill="white"/>
<path d="M65.6148 48.435C65.9348 48.715 66.2898 48.945 66.6798 49.125C67.0798 49.305 67.4998 49.395 67.9398 49.395C68.4598 49.395 68.8848 49.3 69.2148 49.11C69.5548 48.91 69.7248 48.63 69.7248 48.27C69.7248 48.06 69.6798 47.87 69.5898 47.7C69.4998 47.53 69.3448 47.39 69.1248 47.28C68.9048 47.16 68.6098 47.07 68.2398 47.01C67.8698 46.94 67.4048 46.905 66.8448 46.905V45.345C67.7848 45.345 68.4448 45.23 68.8248 45C69.2148 44.76 69.4098 44.45 69.4098 44.07C69.4098 43.74 69.2848 43.485 69.0348 43.305C68.7848 43.115 68.4398 43.02 67.9998 43.02C67.6198 43.02 67.2698 43.095 66.9498 43.245C66.6298 43.395 66.3048 43.6 65.9748 43.86L64.8648 42.51C65.3348 42.13 65.8348 41.835 66.3648 41.625C66.9048 41.405 67.4848 41.295 68.1048 41.295C68.6248 41.295 69.0998 41.355 69.5298 41.475C69.9598 41.585 70.3298 41.755 70.6398 41.985C70.9498 42.205 71.1898 42.475 71.3598 42.795C71.5298 43.115 71.6148 43.485 71.6148 43.905C71.6148 44.405 71.4548 44.83 71.1348 45.18C70.8148 45.52 70.3698 45.8 69.7998 46.02V46.08C70.3998 46.24 70.9048 46.515 71.3148 46.905C71.7248 47.285 71.9298 47.785 71.9298 48.405C71.9298 48.845 71.8248 49.24 71.6148 49.59C71.4148 49.93 71.1398 50.22 70.7898 50.46C70.4498 50.69 70.0498 50.87 69.5898 51C69.1298 51.12 68.6498 51.18 68.1498 51.18C67.3298 51.18 66.6248 51.06 66.0348 50.82C65.4448 50.57 64.9648 50.24 64.5948 49.83L65.6148 48.435ZM100.811 49.74C101.491 49.17 102.111 48.64 102.671 48.15C103.231 47.65 103.711 47.185 104.111 46.755C104.511 46.325 104.821 45.92 105.041 45.54C105.261 45.16 105.371 44.8 105.371 44.46C105.371 43.99 105.236 43.635 104.966 43.395C104.696 43.145 104.311 43.02 103.811 43.02C103.431 43.02 103.081 43.12 102.761 43.32C102.451 43.51 102.161 43.735 101.891 43.995L100.706 42.81C100.956 42.56 101.201 42.34 101.441 42.15C101.691 41.96 101.951 41.805 102.221 41.685C102.501 41.555 102.791 41.46 103.091 41.4C103.401 41.33 103.741 41.295 104.111 41.295C104.611 41.295 105.066 41.37 105.476 41.52C105.886 41.66 106.236 41.865 106.526 42.135C106.826 42.395 107.056 42.71 107.216 43.08C107.386 43.45 107.471 43.865 107.471 44.325C107.471 44.725 107.376 45.135 107.186 45.555C106.996 45.965 106.736 46.38 106.406 46.8C106.086 47.21 105.716 47.625 105.296 48.045C104.876 48.455 104.436 48.86 103.976 49.26C104.246 49.23 104.536 49.205 104.846 49.185C105.166 49.155 105.451 49.14 105.701 49.14H107.966V51H100.811V49.74ZM111.696 49.425C111.696 49.175 111.736 48.945 111.816 48.735C111.906 48.515 112.026 48.325 112.176 48.165C112.326 48.005 112.506 47.88 112.716 47.79C112.936 47.7 113.176 47.655 113.436 47.655C113.696 47.655 113.931 47.7 114.141 47.79C114.361 47.88 114.546 48.005 114.696 48.165C114.846 48.325 114.961 48.515 115.041 48.735C115.131 48.945 115.176 49.175 115.176 49.425C115.176 49.925 115.016 50.345 114.696 50.685C114.376 51.015 113.956 51.18 113.436 51.18C112.916 51.18 112.496 51.015 112.176 50.685C111.856 50.345 111.696 49.925 111.696 49.425ZM119.61 48.45C119.93 48.71 120.27 48.935 120.63 49.125C121 49.305 121.41 49.395 121.86 49.395C122.4 49.395 122.84 49.27 123.18 49.02C123.53 48.77 123.705 48.4 123.705 47.91C123.705 47.43 123.54 47.065 123.21 46.815C122.89 46.565 122.475 46.44 121.965 46.44C121.805 46.44 121.66 46.45 121.53 46.47C121.41 46.48 121.29 46.505 121.17 46.545C121.05 46.585 120.925 46.635 120.795 46.695C120.665 46.755 120.52 46.83 120.36 46.92L119.385 46.29L119.64 41.475H125.475V43.335H121.545L121.38 45.12C121.6 45.04 121.805 44.985 121.995 44.955C122.185 44.915 122.4 44.895 122.64 44.895C123.08 44.895 123.495 44.955 123.885 45.075C124.285 45.195 124.635 45.375 124.935 45.615C125.235 45.855 125.47 46.16 125.64 46.53C125.82 46.9 125.91 47.34 125.91 47.85C125.91 48.38 125.805 48.85 125.595 49.26C125.395 49.67 125.12 50.02 124.77 50.31C124.43 50.59 124.035 50.805 123.585 50.955C123.135 51.105 122.665 51.18 122.175 51.18C121.345 51.18 120.64 51.055 120.06 50.805C119.49 50.545 119.01 50.225 118.62 49.845L119.61 48.45ZM64.8348 68.74C65.5148 68.17 66.1348 67.64 66.6948 67.15C67.2548 66.65 67.7348 66.185 68.1348 65.755C68.5348 65.325 68.8448 64.92 69.0648 64.54C69.2848 64.16 69.3948 63.8 69.3948 63.46C69.3948 62.99 69.2598 62.635 68.9898 62.395C68.7198 62.145 68.3348 62.02 67.8348 62.02C67.4548 62.02 67.1048 62.12 66.7848 62.32C66.4748 62.51 66.1848 62.735 65.9148 62.995L64.7298 61.81C64.9798 61.56 65.2248 61.34 65.4648 61.15C65.7148 60.96 65.9748 60.805 66.2448 60.685C66.5248 60.555 66.8148 60.46 67.1148 60.4C67.4248 60.33 67.7648 60.295 68.1348 60.295C68.6348 60.295 69.0898 60.37 69.4998 60.52C69.9098 60.66 70.2598 60.865 70.5498 61.135C70.8498 61.395 71.0798 61.71 71.2398 62.08C71.4098 62.45 71.4948 62.865 71.4948 63.325C71.4948 63.725 71.3998 64.135 71.2098 64.555C71.0198 64.965 70.7598 65.38 70.4298 65.8C70.1098 66.21 69.7398 66.625 69.3198 67.045C68.8998 67.455 68.4598 67.86 67.9998 68.26C68.2698 68.23 68.5598 68.205 68.8698 68.185C69.1898 68.155 69.4748 68.14 69.7248 68.14H71.9898V70H64.8348V68.74ZM75.719 68.425C75.719 68.175 75.759 67.945 75.839 67.735C75.929 67.515 76.049 67.325 76.199 67.165C76.349 67.005 76.529 66.88 76.739 66.79C76.959 66.7 77.199 66.655 77.459 66.655C77.719 66.655 77.954 66.7 78.164 66.79C78.384 66.88 78.569 67.005 78.719 67.165C78.869 67.325 78.984 67.515 79.064 67.735C79.154 67.945 79.199 68.175 79.199 68.425C79.199 68.925 79.039 69.345 78.719 69.685C78.399 70.015 77.979 70.18 77.459 70.18C76.939 70.18 76.519 70.015 76.199 69.685C75.879 69.345 75.719 68.925 75.719 68.425ZM83.6331 67.45C83.9531 67.71 84.2931 67.935 84.6531 68.125C85.0231 68.305 85.4331 68.395 85.8831 68.395C86.4231 68.395 86.8631 68.27 87.2031 68.02C87.5531 67.77 87.7281 67.4 87.7281 66.91C87.7281 66.43 87.5631 66.065 87.2331 65.815C86.9131 65.565 86.4981 65.44 85.9881 65.44C85.8281 65.44 85.6831 65.45 85.5531 65.47C85.4331 65.48 85.3131 65.505 85.1931 65.545C85.0731 65.585 84.9481 65.635 84.8181 65.695C84.6881 65.755 84.5431 65.83 84.3831 65.92L83.4081 65.29L83.6631 60.475H89.4981V62.335H85.5681L85.4031 64.12C85.6231 64.04 85.8281 63.985 86.0181 63.955C86.2081 63.915 86.4231 63.895 86.6631 63.895C87.1031 63.895 87.5181 63.955 87.9081 64.075C88.3081 64.195 88.6581 64.375 88.9581 64.615C89.2581 64.855 89.4931 65.16 89.6631 65.53C89.8431 65.9 89.9331 66.34 89.9331 66.85C89.9331 67.38 89.8281 67.85 89.6181 68.26C89.4181 68.67 89.1431 69.02 88.7931 69.31C88.4531 69.59 88.0581 69.805 87.6081 69.955C87.1581 70.105 86.6881 70.18 86.1981 70.18C85.3681 70.18 84.6631 70.055 84.0831 69.805C83.5131 69.545 83.0331 69.225 82.6431 68.845L83.6331 67.45ZM123.045 66.04V64.435C123.045 64.135 123.05 63.79 123.06 63.4C123.08 63 123.1 62.65 123.12 62.35H123.06C122.9 62.62 122.73 62.89 122.55 63.16C122.37 63.43 122.195 63.7 122.025 63.97L120.585 66.04H123.045ZM126.3 67.72H125.1V70H123.045V67.72H118.455V66.205L122.43 60.475H125.1V66.04H126.3V67.72Z" fill="#F0E442"/>
<path d="M85.6431 46.83H83.0031V45.27H85.6431V42.51H87.2631V45.27H89.9031V46.83H87.2631V49.59H85.6431V46.83ZM101.741 67.975L103.196 65.62L100.901 64.6L101.246 63.535L103.676 64.18L103.856 61.51H105.026L105.206 64.18L107.636 63.535L107.981 64.6L105.686 65.62L107.141 67.975L106.181 68.635L104.441 66.505L102.701 68.635L101.741 67.975Z" fill="#E0E0E0"/>
</svg>
