<svg width="656" height="93" viewBox="0 0 656 93" fill="none" xmlns="http://www.w3.org/2000/svg">
<rect width="656" height="93" fill="black"/>
<rect x="79" width="577" height="31" fill="#333333"/>
<rect x="79" width="577" height="31" fill="#333333"/>
<rect width="79" height="31" fill="#090808"/>
<path d="M12.105 17.8101C12.105 17.5513 11.9756 17.3486 11.7168 17.2021C11.4629 17.0508 11.0527 16.9165 10.4863 16.7993C8.60156 16.4038 7.65918 15.603 7.65918 14.397C7.65918 13.6938 7.94971 13.1079 8.53076 12.6392C9.1167 12.1655 9.88086 11.9287 10.8232 11.9287C11.8291 11.9287 12.6323 12.1655 13.2329 12.6392C13.8384 13.1128 14.1411 13.728 14.1411 14.4849H12.0244C12.0244 14.1821 11.9268 13.9331 11.7314 13.7378C11.5361 13.5376 11.231 13.4375 10.8159 13.4375C10.4595 13.4375 10.1836 13.5181 9.98828 13.6792C9.79297 13.8403 9.69531 14.0454 9.69531 14.2944C9.69531 14.5288 9.80518 14.7192 10.0249 14.8657C10.2495 15.0073 10.6255 15.1318 11.1528 15.2393C11.6802 15.3418 12.1245 15.459 12.4858 15.5908C13.604 16.001 14.1631 16.7114 14.1631 17.7222C14.1631 18.4448 13.853 19.0308 13.2329 19.48C12.6128 19.9243 11.812 20.1465 10.8306 20.1465C10.1665 20.1465 9.57568 20.0293 9.05811 19.7949C8.54541 19.5557 8.14258 19.231 7.84961 18.8208C7.55664 18.4058 7.41016 17.959 7.41016 17.4805H9.41699C9.43652 17.8564 9.57568 18.1445 9.83447 18.3447C10.0933 18.5449 10.4399 18.645 10.8745 18.645C11.2798 18.645 11.585 18.5693 11.79 18.418C12 18.2617 12.105 18.0591 12.105 17.8101ZM18.8286 18.4399C19.2192 18.4399 19.5366 18.3325 19.7808 18.1177C20.0249 17.9028 20.1519 17.6172 20.1616 17.2607H22.1465C22.1416 17.7979 21.9951 18.291 21.707 18.7402C21.4189 19.1846 21.0234 19.5312 20.5205 19.7803C20.0225 20.0244 19.4707 20.1465 18.8652 20.1465C17.7324 20.1465 16.8389 19.7876 16.1846 19.0698C15.5303 18.3472 15.2031 17.3511 15.2031 16.0815V15.9424C15.2031 14.7217 15.5278 13.7476 16.1772 13.02C16.8267 12.2925 17.7178 11.9287 18.8506 11.9287C19.8418 11.9287 20.6353 12.2119 21.231 12.7783C21.8315 13.3398 22.1367 14.0894 22.1465 15.0269H20.1616C20.1519 14.6167 20.0249 14.2847 19.7808 14.0308C19.5366 13.772 19.2144 13.6426 18.814 13.6426C18.3208 13.6426 17.9473 13.8232 17.6934 14.1846C17.4443 14.541 17.3198 15.1221 17.3198 15.9277V16.1475C17.3198 16.9629 17.4443 17.5488 17.6934 17.9053C17.9424 18.2617 18.3208 18.4399 18.8286 18.4399ZM27.8081 14.0601C27.52 14.021 27.2661 14.0015 27.0464 14.0015C26.2456 14.0015 25.7207 14.2725 25.4717 14.8145V20H23.355V12.0752H25.3545L25.4131 13.02C25.8379 12.2925 26.4263 11.9287 27.1782 11.9287C27.4126 11.9287 27.6323 11.9604 27.8374 12.0239L27.8081 14.0601ZM31.0674 20H28.9434V12.0752H31.0674V20ZM28.8188 10.0244C28.8188 9.70703 28.9238 9.4458 29.1338 9.24072C29.3486 9.03564 29.6392 8.93311 30.0054 8.93311C30.3667 8.93311 30.6548 9.03564 30.8696 9.24072C31.0845 9.4458 31.1919 9.70703 31.1919 10.0244C31.1919 10.3467 31.082 10.6104 30.8623 10.8154C30.6475 11.0205 30.3618 11.123 30.0054 11.123C29.6489 11.123 29.3608 11.0205 29.1411 10.8154C28.9263 10.6104 28.8188 10.3467 28.8188 10.0244ZM39.9517 16.1108C39.9517 17.3315 39.6733 18.3105 39.1167 19.0479C38.5649 19.7803 37.8179 20.1465 36.8755 20.1465C36.0747 20.1465 35.4277 19.8682 34.9346 19.3115V23.0469H32.8179V12.0752H34.7808L34.854 12.8516C35.3667 12.2363 36.0356 11.9287 36.8608 11.9287C37.8374 11.9287 38.5967 12.29 39.1387 13.0127C39.6807 13.7354 39.9517 14.7314 39.9517 16.001V16.1108ZM37.835 15.957C37.835 15.2197 37.7031 14.6509 37.4395 14.2505C37.1807 13.8501 36.8022 13.6499 36.3042 13.6499C35.6401 13.6499 35.1836 13.9038 34.9346 14.4116V17.6562C35.1934 18.1787 35.6548 18.4399 36.3188 18.4399C37.3296 18.4399 37.835 17.6123 37.835 15.957ZM43.8042 10.127V12.0752H45.1592V13.6279H43.8042V17.583C43.8042 17.876 43.8604 18.0859 43.9727 18.2129C44.085 18.3398 44.2998 18.4033 44.6172 18.4033C44.8516 18.4033 45.0591 18.3862 45.2397 18.3521V19.9561C44.8247 20.083 44.3975 20.1465 43.958 20.1465C42.4736 20.1465 41.7168 19.397 41.6875 17.8979V13.6279H40.5303V12.0752H41.6875V10.127H43.8042ZM46.4482 18.96C46.4482 18.623 46.5605 18.3496 46.7852 18.1396C47.0146 17.9297 47.3003 17.8247 47.6421 17.8247C47.9888 17.8247 48.2744 17.9297 48.499 18.1396C48.7285 18.3496 48.8433 18.623 48.8433 18.96C48.8433 19.292 48.731 19.563 48.5063 19.7729C48.2817 19.978 47.9937 20.0806 47.6421 20.0806C47.2954 20.0806 47.0098 19.978 46.7852 19.7729C46.5605 19.563 46.4482 19.292 46.4482 18.96ZM57.8374 16.1108C57.8374 17.3315 57.5591 18.3105 57.0024 19.0479C56.4507 19.7803 55.7036 20.1465 54.7612 20.1465C53.9604 20.1465 53.3135 19.8682 52.8203 19.3115V23.0469H50.7036V12.0752H52.6665L52.7397 12.8516C53.2524 12.2363 53.9214 11.9287 54.7466 11.9287C55.7231 11.9287 56.4824 12.29 57.0244 13.0127C57.5664 13.7354 57.8374 14.7314 57.8374 16.001V16.1108ZM55.7207 15.957C55.7207 15.2197 55.5889 14.6509 55.3252 14.2505C55.0664 13.8501 54.688 13.6499 54.1899 13.6499C53.5259 13.6499 53.0693 13.9038 52.8203 14.4116V17.6562C53.0791 18.1787 53.5405 18.4399 54.2046 18.4399C55.2153 18.4399 55.7207 17.6123 55.7207 15.957ZM62.0269 17.0044L63.4917 12.0752H65.7622L62.5762 21.2305L62.4004 21.6479C61.9268 22.6831 61.1455 23.2007 60.0566 23.2007C59.749 23.2007 59.4365 23.1543 59.1191 23.0615V21.4575L59.4414 21.4648C59.8418 21.4648 60.1396 21.4038 60.335 21.2817C60.5352 21.1597 60.6914 20.957 60.8037 20.6738L61.0527 20.022L58.2769 12.0752H60.5547L62.0269 17.0044Z" fill="white"/>
<path d="M7.705 47.28C7.705 46.67 7.795 46.125 7.975 45.645C8.155 45.165 8.39 44.76 8.68 44.43C8.98 44.09 9.32 43.83 9.7 43.65C10.08 43.47 10.475 43.38 10.885 43.38C11.315 43.38 11.675 43.455 11.965 43.605C12.255 43.745 12.53 43.935 12.79 44.175L12.715 43.02V40.485H14.92V51H13.12L12.955 50.235H12.91C12.63 50.505 12.31 50.73 11.95 50.91C11.59 51.09 11.22 51.18 10.84 51.18C10.37 51.18 9.94 51.09 9.55 50.91C9.17 50.73 8.84 50.475 8.56 50.145C8.29 49.805 8.08 49.395 7.93 48.915C7.78 48.435 7.705 47.89 7.705 47.28ZM9.97 47.25C9.97 47.99 10.095 48.53 10.345 48.87C10.595 49.21 10.95 49.38 11.41 49.38C11.66 49.38 11.89 49.33 12.1 49.23C12.31 49.12 12.515 48.94 12.715 48.69V45.675C12.515 45.495 12.31 45.37 12.1 45.3C11.9 45.22 11.69 45.18 11.47 45.18C11.06 45.18 10.705 45.35 10.405 45.69C10.115 46.03 9.97 46.55 9.97 47.25ZM16.8191 47.28C16.8191 46.67 16.9241 46.125 17.1341 45.645C17.3541 45.165 17.6441 44.76 18.0041 44.43C18.3641 44.09 18.7741 43.83 19.2341 43.65C19.7041 43.47 20.1891 43.38 20.6891 43.38C21.2591 43.38 21.7641 43.47 22.2041 43.65C22.6441 43.83 23.0091 44.08 23.2991 44.4C23.5891 44.72 23.8091 45.1 23.9591 45.54C24.1091 45.97 24.1841 46.44 24.1841 46.95C24.1841 47.15 24.1741 47.34 24.1541 47.52C24.1341 47.7 24.1141 47.835 24.0941 47.925H19.0841C19.1641 48.485 19.4041 48.89 19.8041 49.14C20.2141 49.38 20.6941 49.5 21.2441 49.5C21.5841 49.5 21.9041 49.46 22.2041 49.38C22.5141 49.29 22.8341 49.16 23.1641 48.99L23.8841 50.31C23.4641 50.58 22.9941 50.795 22.4741 50.955C21.9541 51.105 21.4441 51.18 20.9441 51.18C20.3641 51.18 19.8241 51.095 19.3241 50.925C18.8241 50.745 18.3891 50.49 18.0191 50.16C17.6491 49.82 17.3541 49.41 17.1341 48.93C16.9241 48.45 16.8191 47.9 16.8191 47.28ZM22.1891 46.47C22.1891 46.05 22.0741 45.71 21.8441 45.45C21.6141 45.19 21.2441 45.06 20.7341 45.06C20.3341 45.06 19.9791 45.175 19.6691 45.405C19.3591 45.635 19.1541 45.99 19.0541 46.47H22.1891ZM33.3433 42.33C32.8533 42.14 32.3333 42.045 31.7833 42.045C31.3033 42.045 30.9483 42.15 30.7183 42.36C30.4983 42.57 30.3883 42.9 30.3883 43.35V43.56H32.9533V45.285H30.3883V51H28.1833V45.285H26.2183V43.65L28.1833 43.56V43.365C28.1833 42.935 28.2483 42.535 28.3783 42.165C28.5083 41.795 28.7083 41.475 28.9783 41.205C29.2483 40.925 29.5933 40.705 30.0133 40.545C30.4333 40.385 30.9333 40.305 31.5133 40.305C31.9433 40.305 32.3433 40.345 32.7133 40.425C33.0933 40.505 33.4433 40.6 33.7633 40.71L33.3433 42.33ZM44.7166 62.56H46.5166L46.6966 64.18H46.7416C47.1116 63.57 47.5566 63.12 48.0766 62.83C48.5966 62.53 49.1566 62.38 49.7566 62.38C50.0866 62.38 50.3516 62.405 50.5516 62.455C50.7616 62.505 50.9766 62.58 51.1966 62.68L50.7466 64.525C50.5166 64.455 50.3066 64.405 50.1166 64.375C49.9366 64.335 49.7066 64.315 49.4266 64.315C48.9666 64.315 48.5116 64.45 48.0616 64.72C47.6216 64.99 47.2416 65.46 46.9216 66.13V70H44.7166V62.56ZM52.7957 66.28C52.7957 65.67 52.9007 65.125 53.1107 64.645C53.3307 64.165 53.6207 63.76 53.9807 63.43C54.3407 63.09 54.7507 62.83 55.2107 62.65C55.6807 62.47 56.1657 62.38 56.6657 62.38C57.2357 62.38 57.7407 62.47 58.1807 62.65C58.6207 62.83 58.9857 63.08 59.2757 63.4C59.5657 63.72 59.7857 64.1 59.9357 64.54C60.0857 64.97 60.1607 65.44 60.1607 65.95C60.1607 66.15 60.1507 66.34 60.1307 66.52C60.1107 66.7 60.0907 66.835 60.0707 66.925H55.0607C55.1407 67.485 55.3807 67.89 55.7807 68.14C56.1907 68.38 56.6707 68.5 57.2207 68.5C57.5607 68.5 57.8807 68.46 58.1807 68.38C58.4907 68.29 58.8107 68.16 59.1407 67.99L59.8607 69.31C59.4407 69.58 58.9707 69.795 58.4507 69.955C57.9307 70.105 57.4207 70.18 56.9207 70.18C56.3407 70.18 55.8007 70.095 55.3007 69.925C54.8007 69.745 54.3657 69.49 53.9957 69.16C53.6257 68.82 53.3307 68.41 53.1107 67.93C52.9007 67.45 52.7957 66.9 52.7957 66.28ZM58.1657 65.47C58.1657 65.05 58.0507 64.71 57.8207 64.45C57.5907 64.19 57.2207 64.06 56.7107 64.06C56.3107 64.06 55.9557 64.175 55.6457 64.405C55.3357 64.635 55.1307 64.99 55.0307 65.47H58.1657ZM63.5748 64.285H61.6998V62.65L63.6798 62.56L63.9648 60.58H65.7798V62.56H68.9298V64.285H65.7798V66.895C65.7798 67.465 65.9048 67.87 66.1548 68.11C66.4048 68.34 66.7998 68.455 67.3398 68.455C67.6298 68.455 67.8948 68.43 68.1348 68.38C68.3748 68.33 68.6048 68.265 68.8248 68.185L69.2148 69.775C68.8848 69.875 68.5148 69.965 68.1048 70.045C67.7048 70.135 67.2648 70.18 66.7848 70.18C66.1948 70.18 65.6948 70.1 65.2848 69.94C64.8748 69.78 64.5398 69.56 64.2798 69.28C64.0298 68.99 63.8498 68.645 63.7398 68.245C63.6298 67.845 63.5748 67.4 63.5748 66.91V64.285ZM77.834 70H76.034L75.869 68.935H75.809C75.479 69.315 75.114 69.62 74.714 69.85C74.314 70.07 73.844 70.18 73.304 70.18C72.454 70.18 71.839 69.91 71.459 69.37C71.079 68.83 70.889 68.09 70.889 67.15V62.56H73.094V66.865C73.094 67.365 73.169 67.73 73.319 67.96C73.469 68.19 73.754 68.305 74.174 68.305C74.454 68.305 74.699 68.245 74.909 68.125C75.129 68.005 75.369 67.78 75.629 67.45V62.56H77.834V70ZM80.6931 62.56H82.4931L82.6731 64.18H82.7181C83.0881 63.57 83.5331 63.12 84.0531 62.83C84.5731 62.53 85.1331 62.38 85.7331 62.38C86.0631 62.38 86.3281 62.405 86.5281 62.455C86.7381 62.505 86.9531 62.58 87.1731 62.68L86.7231 64.525C86.4931 64.455 86.2831 64.405 86.0931 64.375C85.9131 64.335 85.6831 64.315 85.4031 64.315C84.9431 64.315 84.4881 64.45 84.0381 64.72C83.5981 64.99 83.2181 65.46 82.8981 66.13V70H80.6931V62.56ZM89.0273 62.56H90.8273L90.9923 63.55H91.0523C91.3723 63.23 91.7373 62.955 92.1473 62.725C92.5673 62.495 93.0573 62.38 93.6173 62.38C94.4573 62.38 95.0723 62.65 95.4623 63.19C95.8523 63.73 96.0473 64.47 96.0473 65.41V70H93.8423V65.695C93.8423 65.195 93.7623 64.83 93.6023 64.6C93.4423 64.37 93.1573 64.255 92.7473 64.255C92.4473 64.255 92.1823 64.32 91.9523 64.45C91.7323 64.58 91.4923 64.775 91.2323 65.035V70H89.0273V62.56Z" fill="#E69F00"/>
<path d="M84.8331 53.685C83.8531 52.815 83.0781 51.81 82.5081 50.67C81.9481 49.53 81.6681 48.25 81.6681 46.83C81.6681 45.41 81.9481 44.13 82.5081 42.99C83.0781 41.85 83.8531 40.845 84.8331 39.975L86.0631 40.95C85.1731 41.82 84.5231 42.725 84.1131 43.665C83.7131 44.595 83.5131 45.65 83.5131 46.83C83.5131 47.42 83.5631 47.98 83.6631 48.51C83.7631 49.03 83.9131 49.53 84.1131 50.01C84.3231 50.49 84.5881 50.95 84.9081 51.39C85.2281 51.84 85.6131 52.28 86.0631 52.71L84.8331 53.685ZM88.8623 48.93C88.8623 48.51 88.9523 48.145 89.1323 47.835C89.3123 47.515 89.5973 47.245 89.9873 47.025C90.3873 46.805 90.8973 46.63 91.5173 46.5C92.1373 46.36 92.8873 46.265 93.7673 46.215C93.7273 45.875 93.5773 45.61 93.3173 45.42C93.0673 45.23 92.6873 45.135 92.1773 45.135C91.8173 45.135 91.4523 45.2 91.0823 45.33C90.7223 45.45 90.3323 45.615 89.9123 45.825L89.1323 44.385C89.6423 44.095 90.1873 43.855 90.7673 43.665C91.3573 43.475 91.9723 43.38 92.6123 43.38C93.6523 43.38 94.4723 43.655 95.0723 44.205C95.6723 44.755 95.9723 45.6 95.9723 46.74V51H94.1723L94.0073 50.16H93.9473C93.5673 50.45 93.1523 50.695 92.7023 50.895C92.2523 51.085 91.7873 51.18 91.3073 51.18C90.9273 51.18 90.5873 51.12 90.2873 51C89.9873 50.89 89.7323 50.735 89.5223 50.535C89.3123 50.325 89.1473 50.085 89.0273 49.815C88.9173 49.545 88.8623 49.25 88.8623 48.93ZM90.9773 48.765C90.9773 49.005 91.0673 49.185 91.2473 49.305C91.4373 49.415 91.6923 49.47 92.0123 49.47C92.3423 49.47 92.6523 49.405 92.9423 49.275C93.2323 49.135 93.5073 48.965 93.7673 48.765V47.535C93.2173 47.565 92.7623 47.615 92.4023 47.685C92.0423 47.755 91.7573 47.845 91.5473 47.955C91.3373 48.055 91.1873 48.175 91.0973 48.315C91.0173 48.455 90.9773 48.605 90.9773 48.765ZM105.041 51.81V53.46H97.8414V51.81H105.041ZM106.866 40.485H111.231V48.18C111.231 48.41 111.261 48.605 111.321 48.765C111.391 48.915 111.481 49.04 111.591 49.14C111.711 49.23 111.841 49.295 111.981 49.335C112.131 49.375 112.281 49.395 112.431 49.395C112.601 49.395 112.781 49.38 112.971 49.35C113.161 49.31 113.371 49.245 113.601 49.155L114.096 50.775C113.896 50.835 113.711 50.89 113.541 50.94C113.371 50.99 113.201 51.03 113.031 51.06C112.861 51.1 112.681 51.13 112.491 51.15C112.301 51.17 112.091 51.18 111.861 51.18C110.921 51.18 110.211 50.905 109.731 50.355C109.261 49.795 109.026 49.04 109.026 48.09V42.225H106.866V40.485ZM116.115 43.56H121.305V51H119.1V45.285H116.115V43.56ZM120.105 42.465C119.675 42.465 119.32 42.345 119.04 42.105C118.77 41.865 118.635 41.54 118.635 41.13C118.635 40.72 118.77 40.39 119.04 40.14C119.32 39.88 119.675 39.75 120.105 39.75C120.535 39.75 120.885 39.88 121.155 40.14C121.435 40.39 121.575 40.72 121.575 41.13C121.575 41.54 121.435 41.865 121.155 42.105C120.885 42.345 120.535 42.465 120.105 42.465ZM125.709 48.66C126.139 48.93 126.569 49.145 126.999 49.305C127.439 49.465 127.909 49.545 128.409 49.545C128.919 49.545 129.284 49.49 129.504 49.38C129.724 49.27 129.834 49.115 129.834 48.915C129.834 48.685 129.649 48.5 129.279 48.36C128.919 48.21 128.439 48.05 127.839 47.88C127.509 47.79 127.184 47.685 126.864 47.565C126.554 47.435 126.274 47.285 126.024 47.115C125.774 46.935 125.569 46.73 125.409 46.5C125.259 46.27 125.184 46.005 125.184 45.705C125.184 45.365 125.264 45.05 125.424 44.76C125.584 44.47 125.809 44.225 126.099 44.025C126.399 43.825 126.759 43.67 127.179 43.56C127.609 43.44 128.089 43.38 128.619 43.38C129.279 43.38 129.879 43.49 130.419 43.71C130.969 43.92 131.439 44.15 131.829 44.4L130.839 45.72C130.499 45.52 130.149 45.355 129.789 45.225C129.429 45.085 129.054 45.015 128.664 45.015C128.194 45.015 127.859 45.065 127.659 45.165C127.469 45.265 127.374 45.41 127.374 45.6C127.374 45.71 127.424 45.81 127.524 45.9C127.624 45.99 127.759 46.07 127.929 46.14C128.099 46.21 128.299 46.28 128.529 46.35C128.769 46.41 129.019 46.475 129.279 46.545C129.649 46.645 129.999 46.76 130.329 46.89C130.659 47.01 130.949 47.155 131.199 47.325C131.449 47.495 131.649 47.7 131.799 47.94C131.949 48.18 132.024 48.46 132.024 48.78C132.024 49.12 131.944 49.435 131.784 49.725C131.624 50.015 131.389 50.27 131.079 50.49C130.779 50.7 130.399 50.87 129.939 51C129.489 51.12 128.964 51.18 128.364 51.18C127.694 51.18 127.039 51.07 126.399 50.85C125.759 50.63 125.199 50.36 124.719 50.04L125.709 48.66ZM135.528 45.285H133.653V43.65L135.633 43.56L135.918 41.58H137.733V43.56H140.883V45.285H137.733V47.895C137.733 48.465 137.858 48.87 138.108 49.11C138.358 49.34 138.753 49.455 139.293 49.455C139.583 49.455 139.848 49.43 140.088 49.38C140.328 49.33 140.558 49.265 140.778 49.185L141.168 50.775C140.838 50.875 140.468 50.965 140.058 51.045C139.658 51.135 139.218 51.18 138.738 51.18C138.148 51.18 137.648 51.1 137.238 50.94C136.828 50.78 136.493 50.56 136.233 50.28C135.983 49.99 135.803 49.645 135.693 49.245C135.583 48.845 135.528 48.4 135.528 47.91V45.285ZM150.012 51.81V53.46H142.812V51.81H150.012ZM151.611 47.28C151.611 46.66 151.716 46.11 151.926 45.63C152.136 45.14 152.416 44.73 152.766 44.4C153.126 44.07 153.531 43.82 153.981 43.65C154.441 43.47 154.916 43.38 155.406 43.38C155.896 43.38 156.366 43.47 156.816 43.65C157.276 43.82 157.681 44.07 158.031 44.4C158.391 44.73 158.676 45.14 158.886 45.63C159.096 46.11 159.201 46.66 159.201 47.28C159.201 47.9 159.096 48.455 158.886 48.945C158.676 49.425 158.391 49.83 158.031 50.16C157.681 50.49 157.276 50.745 156.816 50.925C156.366 51.095 155.896 51.18 155.406 51.18C154.916 51.18 154.441 51.095 153.981 50.925C153.531 50.745 153.126 50.49 152.766 50.16C152.416 49.83 152.136 49.425 151.926 48.945C151.716 48.455 151.611 47.9 151.611 47.28ZM153.876 47.28C153.876 47.93 154.001 48.445 154.251 48.825C154.511 49.205 154.896 49.395 155.406 49.395C155.916 49.395 156.296 49.205 156.546 48.825C156.806 48.445 156.936 47.93 156.936 47.28C156.936 46.63 156.806 46.115 156.546 45.735C156.296 45.355 155.916 45.165 155.406 45.165C154.896 45.165 154.511 45.355 154.251 45.735C154.001 46.115 153.876 46.63 153.876 47.28ZM168.255 42.33C167.765 42.14 167.245 42.045 166.695 42.045C166.215 42.045 165.86 42.15 165.63 42.36C165.41 42.57 165.3 42.9 165.3 43.35V43.56H167.865V45.285H165.3V51H163.095V45.285H161.13V43.65L163.095 43.56V43.365C163.095 42.935 163.16 42.535 163.29 42.165C163.42 41.795 163.62 41.475 163.89 41.205C164.16 40.925 164.505 40.705 164.925 40.545C165.345 40.385 165.845 40.305 166.425 40.305C166.855 40.305 167.255 40.345 167.625 40.425C168.005 40.505 168.355 40.6 168.675 40.71L168.255 42.33ZM176.995 51.81V53.46H169.795V51.81H176.995ZM178.969 43.56H180.769L180.934 44.55H180.994C181.314 44.23 181.679 43.955 182.089 43.725C182.509 43.495 182.999 43.38 183.559 43.38C184.399 43.38 185.014 43.65 185.404 44.19C185.794 44.73 185.989 45.47 185.989 46.41V51H183.784V46.695C183.784 46.195 183.704 45.83 183.544 45.6C183.384 45.37 183.099 45.255 182.689 45.255C182.389 45.255 182.124 45.32 181.894 45.45C181.674 45.58 181.434 45.775 181.174 46.035V51H178.969V43.56ZM194.758 51H192.958L192.793 49.935H192.733C192.403 50.315 192.038 50.62 191.638 50.85C191.238 51.07 190.768 51.18 190.228 51.18C189.378 51.18 188.763 50.91 188.383 50.37C188.003 49.83 187.813 49.09 187.813 48.15V43.56H190.018V47.865C190.018 48.365 190.093 48.73 190.243 48.96C190.393 49.19 190.678 49.305 191.098 49.305C191.378 49.305 191.623 49.245 191.833 49.125C192.053 49.005 192.293 48.78 192.553 48.45V43.56H194.758V51ZM196.417 43.56H198.067L198.232 44.49H198.292C198.432 44.18 198.622 43.92 198.862 43.71C199.112 43.49 199.452 43.38 199.882 43.38C200.212 43.38 200.487 43.485 200.707 43.695C200.937 43.895 201.097 44.195 201.187 44.595C201.327 44.255 201.527 43.97 201.787 43.74C202.057 43.5 202.402 43.38 202.822 43.38C203.342 43.38 203.747 43.595 204.037 44.025C204.327 44.445 204.472 45.03 204.472 45.78V51H202.402V45.945C202.402 45.485 202.262 45.255 201.982 45.255C201.712 45.255 201.482 45.495 201.292 45.975V51H199.597V45.945C199.597 45.485 199.452 45.255 199.162 45.255C199.022 45.255 198.902 45.315 198.802 45.435C198.702 45.555 198.597 45.735 198.487 45.975V51H196.417V43.56ZM205.951 40.485H208.156V43.065L208.096 44.235C208.386 43.965 208.711 43.755 209.071 43.605C209.441 43.455 209.806 43.38 210.166 43.38C210.626 43.38 211.041 43.47 211.411 43.65C211.791 43.83 212.106 44.085 212.356 44.415C212.616 44.735 212.816 45.13 212.956 45.6C213.096 46.06 213.166 46.575 213.166 47.145C213.166 47.785 213.076 48.355 212.896 48.855C212.716 49.355 212.476 49.78 212.176 50.13C211.876 50.47 211.531 50.73 211.141 50.91C210.761 51.09 210.361 51.18 209.941 51.18C209.591 51.18 209.241 51.095 208.891 50.925C208.551 50.755 208.226 50.51 207.916 50.19H207.856L207.676 51H205.951V40.485ZM208.156 48.885C208.366 49.065 208.581 49.195 208.801 49.275C209.031 49.345 209.246 49.38 209.446 49.38C209.856 49.38 210.201 49.21 210.481 48.87C210.761 48.52 210.901 47.96 210.901 47.19C210.901 45.85 210.446 45.18 209.536 45.18C209.066 45.18 208.606 45.41 208.156 45.87V48.885ZM214.69 47.28C214.69 46.67 214.795 46.125 215.005 45.645C215.225 45.165 215.515 44.76 215.875 44.43C216.235 44.09 216.645 43.83 217.105 43.65C217.575 43.47 218.06 43.38 218.56 43.38C219.13 43.38 219.635 43.47 220.075 43.65C220.515 43.83 220.88 44.08 221.17 44.4C221.46 44.72 221.68 45.1 221.83 45.54C221.98 45.97 222.055 46.44 222.055 46.95C222.055 47.15 222.045 47.34 222.025 47.52C222.005 47.7 221.985 47.835 221.965 47.925H216.955C217.035 48.485 217.275 48.89 217.675 49.14C218.085 49.38 218.565 49.5 219.115 49.5C219.455 49.5 219.775 49.46 220.075 49.38C220.385 49.29 220.705 49.16 221.035 48.99L221.755 50.31C221.335 50.58 220.865 50.795 220.345 50.955C219.825 51.105 219.315 51.18 218.815 51.18C218.235 51.18 217.695 51.095 217.195 50.925C216.695 50.745 216.26 50.49 215.89 50.16C215.52 49.82 215.225 49.41 215.005 48.93C214.795 48.45 214.69 47.9 214.69 47.28ZM220.06 46.47C220.06 46.05 219.945 45.71 219.715 45.45C219.485 45.19 219.115 45.06 218.605 45.06C218.205 45.06 217.85 45.175 217.54 45.405C217.23 45.635 217.025 45.99 216.925 46.47H220.06ZM224.599 43.56H226.399L226.579 45.18H226.624C226.994 44.57 227.439 44.12 227.959 43.83C228.479 43.53 229.039 43.38 229.639 43.38C229.969 43.38 230.234 43.405 230.434 43.455C230.644 43.505 230.859 43.58 231.079 43.68L230.629 45.525C230.399 45.455 230.189 45.405 229.999 45.375C229.819 45.335 229.589 45.315 229.309 45.315C228.849 45.315 228.394 45.45 227.944 45.72C227.504 45.99 227.124 46.46 226.804 47.13V51H224.599V43.56ZM233.639 48.66C234.069 48.93 234.499 49.145 234.929 49.305C235.369 49.465 235.839 49.545 236.339 49.545C236.849 49.545 237.214 49.49 237.434 49.38C237.654 49.27 237.764 49.115 237.764 48.915C237.764 48.685 237.579 48.5 237.209 48.36C236.849 48.21 236.369 48.05 235.769 47.88C235.439 47.79 235.114 47.685 234.794 47.565C234.484 47.435 234.204 47.285 233.954 47.115C233.704 46.935 233.499 46.73 233.339 46.5C233.189 46.27 233.114 46.005 233.114 45.705C233.114 45.365 233.194 45.05 233.354 44.76C233.514 44.47 233.739 44.225 234.029 44.025C234.329 43.825 234.689 43.67 235.109 43.56C235.539 43.44 236.019 43.38 236.549 43.38C237.209 43.38 237.809 43.49 238.349 43.71C238.899 43.92 239.369 44.15 239.759 44.4L238.769 45.72C238.429 45.52 238.079 45.355 237.719 45.225C237.359 45.085 236.984 45.015 236.594 45.015C236.124 45.015 235.789 45.065 235.589 45.165C235.399 45.265 235.304 45.41 235.304 45.6C235.304 45.71 235.354 45.81 235.454 45.9C235.554 45.99 235.689 46.07 235.859 46.14C236.029 46.21 236.229 46.28 236.459 46.35C236.699 46.41 236.949 46.475 237.209 46.545C237.579 46.645 237.929 46.76 238.259 46.89C238.589 47.01 238.879 47.155 239.129 47.325C239.379 47.495 239.579 47.7 239.729 47.94C239.879 48.18 239.954 48.46 239.954 48.78C239.954 49.12 239.874 49.435 239.714 49.725C239.554 50.015 239.319 50.27 239.009 50.49C238.709 50.7 238.329 50.87 237.869 51C237.419 51.12 236.894 51.18 236.294 51.18C235.624 51.18 234.969 51.07 234.329 50.85C233.689 50.63 233.129 50.36 232.649 50.04L233.639 48.66ZM242.738 52.71C243.188 52.28 243.573 51.84 243.893 51.39C244.213 50.95 244.473 50.49 244.673 50.01C244.883 49.53 245.038 49.03 245.138 48.51C245.238 47.98 245.288 47.42 245.288 46.83C245.288 45.65 245.083 44.595 244.673 43.665C244.273 42.725 243.628 41.82 242.738 40.95L243.968 39.975C244.948 40.845 245.718 41.85 246.278 42.99C246.848 44.13 247.133 45.41 247.133 46.83C247.133 48.25 246.848 49.53 246.278 50.67C245.718 51.81 244.948 52.815 243.968 53.685L242.738 52.71ZM252.602 44.58C252.602 44.33 252.642 44.1 252.722 43.89C252.812 43.67 252.932 43.48 253.082 43.32C253.232 43.16 253.412 43.035 253.622 42.945C253.842 42.855 254.082 42.81 254.342 42.81C254.602 42.81 254.837 42.855 255.047 42.945C255.267 43.035 255.452 43.16 255.602 43.32C255.752 43.48 255.867 43.67 255.947 43.89C256.037 44.1 256.082 44.33 256.082 44.58C256.082 45.08 255.922 45.5 255.602 45.84C255.282 46.17 254.862 46.335 254.342 46.335C253.822 46.335 253.402 46.17 253.082 45.84C252.762 45.5 252.602 45.08 252.602 44.58ZM252.602 49.425C252.602 49.175 252.642 48.945 252.722 48.735C252.812 48.515 252.932 48.325 253.082 48.165C253.232 48.005 253.412 47.88 253.622 47.79C253.842 47.7 254.082 47.655 254.342 47.655C254.602 47.655 254.837 47.7 255.047 47.79C255.267 47.88 255.452 48.005 255.602 48.165C255.752 48.325 255.867 48.515 255.947 48.735C256.037 48.945 256.082 49.175 256.082 49.425C256.082 49.925 255.922 50.345 255.602 50.685C255.282 51.015 254.862 51.18 254.342 51.18C253.822 51.18 253.402 51.015 253.082 50.685C252.762 50.345 252.602 49.925 252.602 49.425ZM114.291 61.33C113.801 61.14 113.281 61.045 112.731 61.045C112.251 61.045 111.896 61.15 111.666 61.36C111.446 61.57 111.336 61.9 111.336 62.35V62.56H113.901V64.285H111.336V70H109.131V64.285H107.166V62.65L109.131 62.56V62.365C109.131 61.935 109.196 61.535 109.326 61.165C109.456 60.795 109.656 60.475 109.926 60.205C110.196 59.925 110.541 59.705 110.961 59.545C111.381 59.385 111.881 59.305 112.461 59.305C112.891 59.305 113.291 59.345 113.661 59.425C114.041 59.505 114.391 59.6 114.711 59.71L114.291 61.33ZM116.115 62.56H121.305V70H119.1V64.285H116.115V62.56ZM120.105 61.465C119.675 61.465 119.32 61.345 119.04 61.105C118.77 60.865 118.635 60.54 118.635 60.13C118.635 59.72 118.77 59.39 119.04 59.14C119.32 58.88 119.675 58.75 120.105 58.75C120.535 58.75 120.885 58.88 121.155 59.14C121.435 59.39 121.575 59.72 121.575 60.13C121.575 60.54 121.435 60.865 121.155 61.105C120.885 61.345 120.535 61.465 120.105 61.465ZM125.004 62.56H126.804L126.969 63.55H127.029C127.349 63.23 127.714 62.955 128.124 62.725C128.544 62.495 129.034 62.38 129.594 62.38C130.434 62.38 131.049 62.65 131.439 63.19C131.829 63.73 132.024 64.47 132.024 65.41V70H129.819V65.695C129.819 65.195 129.739 64.83 129.579 64.6C129.419 64.37 129.134 64.255 128.724 64.255C128.424 64.255 128.159 64.32 127.929 64.45C127.709 64.58 127.469 64.775 127.209 65.035V70H125.004V62.56ZM133.623 66.28C133.623 65.67 133.713 65.125 133.893 64.645C134.073 64.165 134.308 63.76 134.598 63.43C134.898 63.09 135.238 62.83 135.618 62.65C135.998 62.47 136.393 62.38 136.803 62.38C137.233 62.38 137.593 62.455 137.883 62.605C138.173 62.745 138.448 62.935 138.708 63.175L138.633 62.02V59.485H140.838V70H139.038L138.873 69.235H138.828C138.548 69.505 138.228 69.73 137.868 69.91C137.508 70.09 137.138 70.18 136.758 70.18C136.288 70.18 135.858 70.09 135.468 69.91C135.088 69.73 134.758 69.475 134.478 69.145C134.208 68.805 133.998 68.395 133.848 67.915C133.698 67.435 133.623 66.89 133.623 66.28ZM135.888 66.25C135.888 66.99 136.013 67.53 136.263 67.87C136.513 68.21 136.868 68.38 137.328 68.38C137.578 68.38 137.808 68.33 138.018 68.23C138.228 68.12 138.433 67.94 138.633 67.69V64.675C138.433 64.495 138.228 64.37 138.018 64.3C137.818 64.22 137.608 64.18 137.388 64.18C136.978 64.18 136.623 64.35 136.323 64.69C136.033 65.03 135.888 65.55 135.888 66.25ZM150.012 70.81V72.46H142.812V70.81H150.012ZM152.691 67.66C153.121 67.93 153.551 68.145 153.981 68.305C154.421 68.465 154.891 68.545 155.391 68.545C155.901 68.545 156.266 68.49 156.486 68.38C156.706 68.27 156.816 68.115 156.816 67.915C156.816 67.685 156.631 67.5 156.261 67.36C155.901 67.21 155.421 67.05 154.821 66.88C154.491 66.79 154.166 66.685 153.846 66.565C153.536 66.435 153.256 66.285 153.006 66.115C152.756 65.935 152.551 65.73 152.391 65.5C152.241 65.27 152.166 65.005 152.166 64.705C152.166 64.365 152.246 64.05 152.406 63.76C152.566 63.47 152.791 63.225 153.081 63.025C153.381 62.825 153.741 62.67 154.161 62.56C154.591 62.44 155.071 62.38 155.601 62.38C156.261 62.38 156.861 62.49 157.401 62.71C157.951 62.92 158.421 63.15 158.811 63.4L157.821 64.72C157.481 64.52 157.131 64.355 156.771 64.225C156.411 64.085 156.036 64.015 155.646 64.015C155.176 64.015 154.841 64.065 154.641 64.165C154.451 64.265 154.356 64.41 154.356 64.6C154.356 64.71 154.406 64.81 154.506 64.9C154.606 64.99 154.741 65.07 154.911 65.14C155.081 65.21 155.281 65.28 155.511 65.35C155.751 65.41 156.001 65.475 156.261 65.545C156.631 65.645 156.981 65.76 157.311 65.89C157.641 66.01 157.931 66.155 158.181 66.325C158.431 66.495 158.631 66.7 158.781 66.94C158.931 67.18 159.006 67.46 159.006 67.78C159.006 68.12 158.926 68.435 158.766 68.725C158.606 69.015 158.371 69.27 158.061 69.49C157.761 69.7 157.381 69.87 156.921 70C156.471 70.12 155.946 70.18 155.346 70.18C154.676 70.18 154.021 70.07 153.381 69.85C152.741 69.63 152.181 69.36 151.701 69.04L152.691 67.66ZM167.775 70H165.975L165.81 68.935H165.75C165.42 69.315 165.055 69.62 164.655 69.85C164.255 70.07 163.785 70.18 163.245 70.18C162.395 70.18 161.78 69.91 161.4 69.37C161.02 68.83 160.83 68.09 160.83 67.15V62.56H163.035V66.865C163.035 67.365 163.11 67.73 163.26 67.96C163.41 68.19 163.695 68.305 164.115 68.305C164.395 68.305 164.64 68.245 164.85 68.125C165.07 68.005 165.31 67.78 165.57 67.45V62.56H167.775V70ZM169.435 62.56H171.085L171.25 63.49H171.31C171.45 63.18 171.64 62.92 171.88 62.71C172.13 62.49 172.47 62.38 172.9 62.38C173.23 62.38 173.505 62.485 173.725 62.695C173.955 62.895 174.115 63.195 174.205 63.595C174.345 63.255 174.545 62.97 174.805 62.74C175.075 62.5 175.42 62.38 175.84 62.38C176.36 62.38 176.765 62.595 177.055 63.025C177.345 63.445 177.49 64.03 177.49 64.78V70H175.42V64.945C175.42 64.485 175.28 64.255 175 64.255C174.73 64.255 174.5 64.495 174.31 64.975V70H172.615V64.945C172.615 64.485 172.47 64.255 172.18 64.255C172.04 64.255 171.92 64.315 171.82 64.435C171.72 64.555 171.615 64.735 171.505 64.975V70H169.435V62.56ZM183.769 72.685C182.789 71.815 182.014 70.81 181.444 69.67C180.884 68.53 180.604 67.25 180.604 65.83C180.604 64.41 180.884 63.13 181.444 61.99C182.014 60.85 182.789 59.845 183.769 58.975L184.999 59.95C184.109 60.82 183.459 61.725 183.049 62.665C182.649 63.595 182.449 64.65 182.449 65.83C182.449 66.42 182.499 66.98 182.599 67.51C182.699 68.03 182.849 68.53 183.049 69.01C183.259 69.49 183.524 69.95 183.844 70.39C184.164 70.84 184.549 71.28 184.999 71.71L183.769 72.685ZM187.798 67.93C187.798 67.51 187.888 67.145 188.068 66.835C188.248 66.515 188.533 66.245 188.923 66.025C189.323 65.805 189.833 65.63 190.453 65.5C191.073 65.36 191.823 65.265 192.703 65.215C192.663 64.875 192.513 64.61 192.253 64.42C192.003 64.23 191.623 64.135 191.113 64.135C190.753 64.135 190.388 64.2 190.018 64.33C189.658 64.45 189.268 64.615 188.848 64.825L188.068 63.385C188.578 63.095 189.123 62.855 189.703 62.665C190.293 62.475 190.908 62.38 191.548 62.38C192.588 62.38 193.408 62.655 194.008 63.205C194.608 63.755 194.908 64.6 194.908 65.74V70H193.108L192.943 69.16H192.883C192.503 69.45 192.088 69.695 191.638 69.895C191.188 70.085 190.723 70.18 190.243 70.18C189.863 70.18 189.523 70.12 189.223 70C188.923 69.89 188.668 69.735 188.458 69.535C188.248 69.325 188.083 69.085 187.963 68.815C187.853 68.545 187.798 68.25 187.798 67.93ZM189.913 67.765C189.913 68.005 190.003 68.185 190.183 68.305C190.373 68.415 190.628 68.47 190.948 68.47C191.278 68.47 191.588 68.405 191.878 68.275C192.168 68.135 192.443 67.965 192.703 67.765V66.535C192.153 66.565 191.698 66.615 191.338 66.685C190.978 66.755 190.693 66.845 190.483 66.955C190.273 67.055 190.123 67.175 190.033 67.315C189.953 67.455 189.913 67.605 189.913 67.765ZM203.977 70.81V72.46H196.777V70.81H203.977ZM205.801 59.485H210.166V67.18C210.166 67.41 210.196 67.605 210.256 67.765C210.326 67.915 210.416 68.04 210.526 68.14C210.646 68.23 210.776 68.295 210.916 68.335C211.066 68.375 211.216 68.395 211.366 68.395C211.536 68.395 211.716 68.38 211.906 68.35C212.096 68.31 212.306 68.245 212.536 68.155L213.031 69.775C212.831 69.835 212.646 69.89 212.476 69.94C212.306 69.99 212.136 70.03 211.966 70.06C211.796 70.1 211.616 70.13 211.426 70.15C211.236 70.17 211.026 70.18 210.796 70.18C209.856 70.18 209.146 69.905 208.666 69.355C208.196 68.795 207.961 68.04 207.961 67.09V61.225H205.801V59.485ZM215.05 62.56H220.24V70H218.035V64.285H215.05V62.56ZM219.04 61.465C218.61 61.465 218.255 61.345 217.975 61.105C217.705 60.865 217.57 60.54 217.57 60.13C217.57 59.72 217.705 59.39 217.975 59.14C218.255 58.88 218.61 58.75 219.04 58.75C219.47 58.75 219.82 58.88 220.09 59.14C220.37 59.39 220.51 59.72 220.51 60.13C220.51 60.54 220.37 60.865 220.09 61.105C219.82 61.345 219.47 61.465 219.04 61.465ZM224.644 67.66C225.074 67.93 225.504 68.145 225.934 68.305C226.374 68.465 226.844 68.545 227.344 68.545C227.854 68.545 228.219 68.49 228.439 68.38C228.659 68.27 228.769 68.115 228.769 67.915C228.769 67.685 228.584 67.5 228.214 67.36C227.854 67.21 227.374 67.05 226.774 66.88C226.444 66.79 226.119 66.685 225.799 66.565C225.489 66.435 225.209 66.285 224.959 66.115C224.709 65.935 224.504 65.73 224.344 65.5C224.194 65.27 224.119 65.005 224.119 64.705C224.119 64.365 224.199 64.05 224.359 63.76C224.519 63.47 224.744 63.225 225.034 63.025C225.334 62.825 225.694 62.67 226.114 62.56C226.544 62.44 227.024 62.38 227.554 62.38C228.214 62.38 228.814 62.49 229.354 62.71C229.904 62.92 230.374 63.15 230.764 63.4L229.774 64.72C229.434 64.52 229.084 64.355 228.724 64.225C228.364 64.085 227.989 64.015 227.599 64.015C227.129 64.015 226.794 64.065 226.594 64.165C226.404 64.265 226.309 64.41 226.309 64.6C226.309 64.71 226.359 64.81 226.459 64.9C226.559 64.99 226.694 65.07 226.864 65.14C227.034 65.21 227.234 65.28 227.464 65.35C227.704 65.41 227.954 65.475 228.214 65.545C228.584 65.645 228.934 65.76 229.264 65.89C229.594 66.01 229.884 66.155 230.134 66.325C230.384 66.495 230.584 66.7 230.734 66.94C230.884 67.18 230.959 67.46 230.959 67.78C230.959 68.12 230.879 68.435 230.719 68.725C230.559 69.015 230.324 69.27 230.014 69.49C229.714 69.7 229.334 69.87 228.874 70C228.424 70.12 227.899 70.18 227.299 70.18C226.629 70.18 225.974 70.07 225.334 69.85C224.694 69.63 224.134 69.36 223.654 69.04L224.644 67.66ZM234.464 64.285H232.589V62.65L234.569 62.56L234.854 60.58H236.669V62.56H239.819V64.285H236.669V66.895C236.669 67.465 236.794 67.87 237.044 68.11C237.294 68.34 237.689 68.455 238.229 68.455C238.519 68.455 238.784 68.43 239.024 68.38C239.264 68.33 239.494 68.265 239.714 68.185L240.104 69.775C239.774 69.875 239.404 69.965 238.994 70.045C238.594 70.135 238.154 70.18 237.674 70.18C237.084 70.18 236.584 70.1 236.174 69.94C235.764 69.78 235.429 69.56 235.169 69.28C234.919 68.99 234.739 68.645 234.629 68.245C234.519 67.845 234.464 67.4 234.464 66.91V64.285ZM248.948 70.81V72.46H241.748V70.81H248.948ZM250.547 66.28C250.547 65.66 250.652 65.11 250.862 64.63C251.072 64.14 251.352 63.73 251.702 63.4C252.062 63.07 252.467 62.82 252.917 62.65C253.377 62.47 253.852 62.38 254.342 62.38C254.832 62.38 255.302 62.47 255.752 62.65C256.212 62.82 256.617 63.07 256.967 63.4C257.327 63.73 257.612 64.14 257.822 64.63C258.032 65.11 258.137 65.66 258.137 66.28C258.137 66.9 258.032 67.455 257.822 67.945C257.612 68.425 257.327 68.83 256.967 69.16C256.617 69.49 256.212 69.745 255.752 69.925C255.302 70.095 254.832 70.18 254.342 70.18C253.852 70.18 253.377 70.095 252.917 69.925C252.467 69.745 252.062 69.49 251.702 69.16C251.352 68.83 251.072 68.425 250.862 67.945C250.652 67.455 250.547 66.9 250.547 66.28ZM252.812 66.28C252.812 66.93 252.937 67.445 253.187 67.825C253.447 68.205 253.832 68.395 254.342 68.395C254.852 68.395 255.232 68.205 255.482 67.825C255.742 67.445 255.872 66.93 255.872 66.28C255.872 65.63 255.742 65.115 255.482 64.735C255.232 64.355 254.852 64.165 254.342 64.165C253.832 64.165 253.447 64.355 253.187 64.735C252.937 65.115 252.812 65.63 252.812 66.28ZM267.191 61.33C266.701 61.14 266.181 61.045 265.631 61.045C265.151 61.045 264.796 61.15 264.566 61.36C264.346 61.57 264.236 61.9 264.236 62.35V62.56H266.801V64.285H264.236V70H262.031V64.285H260.066V62.65L262.031 62.56V62.365C262.031 61.935 262.096 61.535 262.226 61.165C262.356 60.795 262.556 60.475 262.826 60.205C263.096 59.925 263.441 59.705 263.861 59.545C264.281 59.385 264.781 59.305 265.361 59.305C265.791 59.305 266.191 59.345 266.561 59.425C266.941 59.505 267.291 59.6 267.611 59.71L267.191 61.33ZM275.93 70.81V72.46H268.73V70.81H275.93ZM277.904 62.56H279.704L279.869 63.55H279.929C280.249 63.23 280.614 62.955 281.024 62.725C281.444 62.495 281.934 62.38 282.494 62.38C283.334 62.38 283.949 62.65 284.339 63.19C284.729 63.73 284.924 64.47 284.924 65.41V70H282.719V65.695C282.719 65.195 282.639 64.83 282.479 64.6C282.319 64.37 282.034 64.255 281.624 64.255C281.324 64.255 281.059 64.32 280.829 64.45C280.609 64.58 280.369 64.775 280.109 65.035V70H277.904V62.56ZM293.693 70H291.893L291.728 68.935H291.668C291.338 69.315 290.973 69.62 290.573 69.85C290.173 70.07 289.703 70.18 289.163 70.18C288.313 70.18 287.698 69.91 287.318 69.37C286.938 68.83 286.748 68.09 286.748 67.15V62.56H288.953V66.865C288.953 67.365 289.028 67.73 289.178 67.96C289.328 68.19 289.613 68.305 290.033 68.305C290.313 68.305 290.558 68.245 290.768 68.125C290.988 68.005 291.228 67.78 291.488 67.45V62.56H293.693V70ZM295.353 62.56H297.003L297.168 63.49H297.228C297.368 63.18 297.558 62.92 297.798 62.71C298.048 62.49 298.388 62.38 298.818 62.38C299.148 62.38 299.423 62.485 299.643 62.695C299.873 62.895 300.033 63.195 300.123 63.595C300.263 63.255 300.463 62.97 300.723 62.74C300.993 62.5 301.338 62.38 301.758 62.38C302.278 62.38 302.683 62.595 302.973 63.025C303.263 63.445 303.408 64.03 303.408 64.78V70H301.338V64.945C301.338 64.485 301.198 64.255 300.918 64.255C300.648 64.255 300.418 64.495 300.228 64.975V70H298.533V64.945C298.533 64.485 298.388 64.255 298.098 64.255C297.958 64.255 297.838 64.315 297.738 64.435C297.638 64.555 297.533 64.735 297.423 64.975V70H295.353V62.56ZM304.887 59.485H307.092V62.065L307.032 63.235C307.322 62.965 307.647 62.755 308.007 62.605C308.377 62.455 308.742 62.38 309.102 62.38C309.562 62.38 309.977 62.47 310.347 62.65C310.727 62.83 311.042 63.085 311.292 63.415C311.552 63.735 311.752 64.13 311.892 64.6C312.032 65.06 312.102 65.575 312.102 66.145C312.102 66.785 312.012 67.355 311.832 67.855C311.652 68.355 311.412 68.78 311.112 69.13C310.812 69.47 310.467 69.73 310.077 69.91C309.697 70.09 309.297 70.18 308.877 70.18C308.527 70.18 308.177 70.095 307.827 69.925C307.487 69.755 307.162 69.51 306.852 69.19H306.792L306.612 70H304.887V59.485ZM307.092 67.885C307.302 68.065 307.517 68.195 307.737 68.275C307.967 68.345 308.182 68.38 308.382 68.38C308.792 68.38 309.137 68.21 309.417 67.87C309.697 67.52 309.837 66.96 309.837 66.19C309.837 64.85 309.382 64.18 308.472 64.18C308.002 64.18 307.542 64.41 307.092 64.87V67.885ZM313.626 66.28C313.626 65.67 313.731 65.125 313.941 64.645C314.161 64.165 314.451 63.76 314.811 63.43C315.171 63.09 315.581 62.83 316.041 62.65C316.511 62.47 316.996 62.38 317.496 62.38C318.066 62.38 318.571 62.47 319.011 62.65C319.451 62.83 319.816 63.08 320.106 63.4C320.396 63.72 320.616 64.1 320.766 64.54C320.916 64.97 320.991 65.44 320.991 65.95C320.991 66.15 320.981 66.34 320.961 66.52C320.941 66.7 320.921 66.835 320.901 66.925H315.891C315.971 67.485 316.211 67.89 316.611 68.14C317.021 68.38 317.501 68.5 318.051 68.5C318.391 68.5 318.711 68.46 319.011 68.38C319.321 68.29 319.641 68.16 319.971 67.99L320.691 69.31C320.271 69.58 319.801 69.795 319.281 69.955C318.761 70.105 318.251 70.18 317.751 70.18C317.171 70.18 316.631 70.095 316.131 69.925C315.631 69.745 315.196 69.49 314.826 69.16C314.456 68.82 314.161 68.41 313.941 67.93C313.731 67.45 313.626 66.9 313.626 66.28ZM318.996 65.47C318.996 65.05 318.881 64.71 318.651 64.45C318.421 64.19 318.051 64.06 317.541 64.06C317.141 64.06 316.786 64.175 316.476 64.405C316.166 64.635 315.961 64.99 315.861 65.47H318.996ZM323.535 62.56H325.335L325.515 64.18H325.56C325.93 63.57 326.375 63.12 326.895 62.83C327.415 62.53 327.975 62.38 328.575 62.38C328.905 62.38 329.17 62.405 329.37 62.455C329.58 62.505 329.795 62.58 330.015 62.68L329.565 64.525C329.335 64.455 329.125 64.405 328.935 64.375C328.755 64.335 328.525 64.315 328.245 64.315C327.785 64.315 327.33 64.45 326.88 64.72C326.44 64.99 326.06 65.46 325.74 66.13V70H323.535V62.56ZM332.574 67.66C333.004 67.93 333.434 68.145 333.864 68.305C334.304 68.465 334.774 68.545 335.274 68.545C335.784 68.545 336.149 68.49 336.369 68.38C336.589 68.27 336.699 68.115 336.699 67.915C336.699 67.685 336.514 67.5 336.144 67.36C335.784 67.21 335.304 67.05 334.704 66.88C334.374 66.79 334.049 66.685 333.729 66.565C333.419 66.435 333.139 66.285 332.889 66.115C332.639 65.935 332.434 65.73 332.274 65.5C332.124 65.27 332.049 65.005 332.049 64.705C332.049 64.365 332.129 64.05 332.289 63.76C332.449 63.47 332.674 63.225 332.964 63.025C333.264 62.825 333.624 62.67 334.044 62.56C334.474 62.44 334.954 62.38 335.484 62.38C336.144 62.38 336.744 62.49 337.284 62.71C337.834 62.92 338.304 63.15 338.694 63.4L337.704 64.72C337.364 64.52 337.014 64.355 336.654 64.225C336.294 64.085 335.919 64.015 335.529 64.015C335.059 64.015 334.724 64.065 334.524 64.165C334.334 64.265 334.239 64.41 334.239 64.6C334.239 64.71 334.289 64.81 334.389 64.9C334.489 64.99 334.624 65.07 334.794 65.14C334.964 65.21 335.164 65.28 335.394 65.35C335.634 65.41 335.884 65.475 336.144 65.545C336.514 65.645 336.864 65.76 337.194 65.89C337.524 66.01 337.814 66.155 338.064 66.325C338.314 66.495 338.514 66.7 338.664 66.94C338.814 67.18 338.889 67.46 338.889 67.78C338.889 68.12 338.809 68.435 338.649 68.725C338.489 69.015 338.254 69.27 337.944 69.49C337.644 69.7 337.264 69.87 336.804 70C336.354 70.12 335.829 70.18 335.229 70.18C334.559 70.18 333.904 70.07 333.264 69.85C332.624 69.63 332.064 69.36 331.584 69.04L332.574 67.66ZM341.673 71.71C342.123 71.28 342.508 70.84 342.828 70.39C343.148 69.95 343.408 69.49 343.608 69.01C343.818 68.53 343.973 68.03 344.073 67.51C344.173 66.98 344.223 66.42 344.223 65.83C344.223 64.65 344.018 63.595 343.608 62.665C343.208 61.725 342.563 60.82 341.673 59.95L342.903 58.975C343.883 59.845 344.653 60.85 345.213 61.99C345.783 63.13 346.068 64.41 346.068 65.83C346.068 67.25 345.783 68.53 345.213 69.67C344.653 70.81 343.883 71.815 342.903 72.685L341.673 71.71ZM360.726 72.4H358.881L363.816 59.35H365.661L360.726 72.4ZM384.115 61.33C383.625 61.14 383.105 61.045 382.555 61.045C382.075 61.045 381.72 61.15 381.49 61.36C381.27 61.57 381.16 61.9 381.16 62.35V62.56H383.725V64.285H381.16V70H378.955V64.285H376.99V62.65L378.955 62.56V62.365C378.955 61.935 379.02 61.535 379.15 61.165C379.28 60.795 379.48 60.475 379.75 60.205C380.02 59.925 380.365 59.705 380.785 59.545C381.205 59.385 381.705 59.305 382.285 59.305C382.715 59.305 383.115 59.345 383.485 59.425C383.865 59.505 384.215 59.6 384.535 59.71L384.115 61.33ZM385.939 62.56H391.129V70H388.924V64.285H385.939V62.56ZM389.929 61.465C389.499 61.465 389.144 61.345 388.864 61.105C388.594 60.865 388.459 60.54 388.459 60.13C388.459 59.72 388.594 59.39 388.864 59.14C389.144 58.88 389.499 58.75 389.929 58.75C390.359 58.75 390.709 58.88 390.979 59.14C391.259 59.39 391.399 59.72 391.399 60.13C391.399 60.54 391.259 60.865 390.979 61.105C390.709 61.345 390.359 61.465 389.929 61.465ZM394.828 62.56H396.628L396.793 63.55H396.853C397.173 63.23 397.538 62.955 397.948 62.725C398.368 62.495 398.858 62.38 399.418 62.38C400.258 62.38 400.873 62.65 401.263 63.19C401.653 63.73 401.848 64.47 401.848 65.41V70H399.643V65.695C399.643 65.195 399.563 64.83 399.403 64.6C399.243 64.37 398.958 64.255 398.548 64.255C398.248 64.255 397.983 64.32 397.753 64.45C397.533 64.58 397.293 64.775 397.033 65.035V70H394.828V62.56ZM403.447 66.28C403.447 65.67 403.537 65.125 403.717 64.645C403.897 64.165 404.132 63.76 404.422 63.43C404.722 63.09 405.062 62.83 405.442 62.65C405.822 62.47 406.217 62.38 406.627 62.38C407.057 62.38 407.417 62.455 407.707 62.605C407.997 62.745 408.272 62.935 408.532 63.175L408.457 62.02V59.485H410.662V70H408.862L408.697 69.235H408.652C408.372 69.505 408.052 69.73 407.692 69.91C407.332 70.09 406.962 70.18 406.582 70.18C406.112 70.18 405.682 70.09 405.292 69.91C404.912 69.73 404.582 69.475 404.302 69.145C404.032 68.805 403.822 68.395 403.672 67.915C403.522 67.435 403.447 66.89 403.447 66.28ZM405.712 66.25C405.712 66.99 405.837 67.53 406.087 67.87C406.337 68.21 406.692 68.38 407.152 68.38C407.402 68.38 407.632 68.33 407.842 68.23C408.052 68.12 408.257 67.94 408.457 67.69V64.675C408.257 64.495 408.052 64.37 407.842 64.3C407.642 64.22 407.432 64.18 407.212 64.18C406.802 64.18 406.447 64.35 406.147 64.69C405.857 65.03 405.712 65.55 405.712 66.25ZM419.836 70.81V72.46H412.636V70.81H419.836ZM421.66 59.485H426.025V67.18C426.025 67.41 426.055 67.605 426.115 67.765C426.185 67.915 426.275 68.04 426.385 68.14C426.505 68.23 426.635 68.295 426.775 68.335C426.925 68.375 427.075 68.395 427.225 68.395C427.395 68.395 427.575 68.38 427.765 68.35C427.955 68.31 428.165 68.245 428.395 68.155L428.89 69.775C428.69 69.835 428.505 69.89 428.335 69.94C428.165 69.99 427.995 70.03 427.825 70.06C427.655 70.1 427.475 70.13 427.285 70.15C427.095 70.17 426.885 70.18 426.655 70.18C425.715 70.18 425.005 69.905 424.525 69.355C424.055 68.795 423.82 68.04 423.82 67.09V61.225H421.66V59.485ZM430.55 66.28C430.55 65.67 430.655 65.125 430.865 64.645C431.085 64.165 431.375 63.76 431.735 63.43C432.095 63.09 432.505 62.83 432.965 62.65C433.435 62.47 433.92 62.38 434.42 62.38C434.99 62.38 435.495 62.47 435.935 62.65C436.375 62.83 436.74 63.08 437.03 63.4C437.32 63.72 437.54 64.1 437.69 64.54C437.84 64.97 437.915 65.44 437.915 65.95C437.915 66.15 437.905 66.34 437.885 66.52C437.865 66.7 437.845 66.835 437.825 66.925H432.815C432.895 67.485 433.135 67.89 433.535 68.14C433.945 68.38 434.425 68.5 434.975 68.5C435.315 68.5 435.635 68.46 435.935 68.38C436.245 68.29 436.565 68.16 436.895 67.99L437.615 69.31C437.195 69.58 436.725 69.795 436.205 69.955C435.685 70.105 435.175 70.18 434.675 70.18C434.095 70.18 433.555 70.095 433.055 69.925C432.555 69.745 432.12 69.49 431.75 69.16C431.38 68.82 431.085 68.41 430.865 67.93C430.655 67.45 430.55 66.9 430.55 66.28ZM435.92 65.47C435.92 65.05 435.805 64.71 435.575 64.45C435.345 64.19 434.975 64.06 434.465 64.06C434.065 64.06 433.71 64.175 433.4 64.405C433.09 64.635 432.885 64.99 432.785 65.47H435.92ZM439.799 62.56H441.599L441.764 63.55H441.824C442.144 63.23 442.509 62.955 442.919 62.725C443.339 62.495 443.829 62.38 444.389 62.38C445.229 62.38 445.844 62.65 446.234 63.19C446.624 63.73 446.819 64.47 446.819 65.41V70H444.614V65.695C444.614 65.195 444.534 64.83 444.374 64.6C444.214 64.37 443.929 64.255 443.519 64.255C443.219 64.255 442.954 64.32 442.724 64.45C442.504 64.58 442.264 64.775 442.004 65.035V70H439.799V62.56ZM450.293 70.93C450.293 71.21 450.458 71.42 450.788 71.56C451.128 71.71 451.593 71.785 452.183 71.785C452.783 71.785 453.268 71.695 453.638 71.515C454.008 71.345 454.193 71.13 454.193 70.87C454.193 70.63 454.083 70.47 453.863 70.39C453.643 70.32 453.318 70.285 452.888 70.285H451.958C451.688 70.285 451.463 70.275 451.283 70.255C451.113 70.245 450.958 70.225 450.818 70.195C450.628 70.315 450.493 70.43 450.413 70.54C450.333 70.66 450.293 70.79 450.293 70.93ZM448.493 71.26C448.493 70.65 448.878 70.155 449.648 69.775V69.715C449.448 69.585 449.273 69.42 449.123 69.22C448.973 69.02 448.898 68.76 448.898 68.44C448.898 68.19 448.978 67.94 449.138 67.69C449.308 67.44 449.523 67.225 449.783 67.045V66.985C449.513 66.805 449.283 66.555 449.093 66.235C448.903 65.905 448.808 65.52 448.808 65.08C448.808 64.63 448.893 64.24 449.063 63.91C449.243 63.57 449.478 63.29 449.768 63.07C450.058 62.84 450.393 62.67 450.773 62.56C451.163 62.44 451.568 62.38 451.988 62.38C452.448 62.38 452.858 62.44 453.218 62.56H456.233V64.165H454.718C454.808 64.275 454.888 64.42 454.958 64.6C455.028 64.77 455.063 64.955 455.063 65.155C455.063 65.585 454.983 65.955 454.823 66.265C454.663 66.575 454.443 66.835 454.163 67.045C453.893 67.245 453.568 67.395 453.188 67.495C452.818 67.595 452.418 67.645 451.988 67.645C451.668 67.645 451.328 67.595 450.968 67.495C450.858 67.575 450.773 67.655 450.713 67.735C450.663 67.815 450.638 67.915 450.638 68.035C450.638 68.235 450.738 68.38 450.938 68.47C451.138 68.56 451.458 68.605 451.898 68.605H453.278C454.258 68.605 455.003 68.75 455.513 69.04C456.033 69.33 456.293 69.81 456.293 70.48C456.293 70.87 456.188 71.23 455.978 71.56C455.768 71.89 455.473 72.17 455.093 72.4C454.713 72.64 454.248 72.825 453.698 72.955C453.148 73.095 452.538 73.165 451.868 73.165C451.388 73.165 450.938 73.125 450.518 73.045C450.108 72.975 449.753 72.86 449.453 72.7C449.153 72.55 448.918 72.355 448.748 72.115C448.578 71.875 448.493 71.59 448.493 71.26ZM451.988 66.31C452.298 66.31 452.563 66.21 452.783 66.01C453.013 65.8 453.128 65.49 453.128 65.08C453.128 64.68 453.013 64.38 452.783 64.18C452.563 63.97 452.298 63.865 451.988 63.865C451.678 63.865 451.413 63.97 451.193 64.18C450.983 64.38 450.878 64.68 450.878 65.08C450.878 65.49 450.983 65.8 451.193 66.01C451.413 66.21 451.678 66.31 451.988 66.31ZM459.317 64.285H457.442V62.65L459.422 62.56L459.707 60.58H461.522V62.56H464.672V64.285H461.522V66.895C461.522 67.465 461.647 67.87 461.897 68.11C462.147 68.34 462.542 68.455 463.082 68.455C463.372 68.455 463.637 68.43 463.877 68.38C464.117 68.33 464.347 68.265 464.567 68.185L464.957 69.775C464.627 69.875 464.257 69.965 463.847 70.045C463.447 70.135 463.007 70.18 462.527 70.18C461.937 70.18 461.437 70.1 461.027 69.94C460.617 69.78 460.282 69.56 460.022 69.28C459.772 68.99 459.592 68.645 459.482 68.245C459.372 67.845 459.317 67.4 459.317 66.91V64.285ZM466.781 59.485H468.986V62.065L468.866 63.49C469.016 63.35 469.176 63.215 469.346 63.085C469.526 62.945 469.716 62.825 469.916 62.725C470.126 62.615 470.351 62.53 470.591 62.47C470.841 62.41 471.106 62.38 471.386 62.38C472.226 62.38 472.836 62.65 473.216 63.19C473.606 63.73 473.801 64.47 473.801 65.41V70H471.596V65.695C471.596 65.195 471.516 64.83 471.356 64.6C471.196 64.37 470.911 64.255 470.501 64.255C470.201 64.255 469.936 64.32 469.706 64.45C469.486 64.58 469.246 64.775 468.986 65.035V70H466.781V59.485ZM480.575 72.685C479.595 71.815 478.82 70.81 478.25 69.67C477.69 68.53 477.41 67.25 477.41 65.83C477.41 64.41 477.69 63.13 478.25 61.99C478.82 60.85 479.595 59.845 480.575 58.975L481.805 59.95C480.915 60.82 480.265 61.725 479.855 62.665C479.455 63.595 479.255 64.65 479.255 65.83C479.255 66.42 479.305 66.98 479.405 67.51C479.505 68.03 479.655 68.53 479.855 69.01C480.065 69.49 480.33 69.95 480.65 70.39C480.97 70.84 481.355 71.28 481.805 71.71L480.575 72.685ZM484.604 67.93C484.604 67.51 484.694 67.145 484.874 66.835C485.054 66.515 485.339 66.245 485.729 66.025C486.129 65.805 486.639 65.63 487.259 65.5C487.879 65.36 488.629 65.265 489.509 65.215C489.469 64.875 489.319 64.61 489.059 64.42C488.809 64.23 488.429 64.135 487.919 64.135C487.559 64.135 487.194 64.2 486.824 64.33C486.464 64.45 486.074 64.615 485.654 64.825L484.874 63.385C485.384 63.095 485.929 62.855 486.509 62.665C487.099 62.475 487.714 62.38 488.354 62.38C489.394 62.38 490.214 62.655 490.814 63.205C491.414 63.755 491.714 64.6 491.714 65.74V70H489.914L489.749 69.16H489.689C489.309 69.45 488.894 69.695 488.444 69.895C487.994 70.085 487.529 70.18 487.049 70.18C486.669 70.18 486.329 70.12 486.029 70C485.729 69.89 485.474 69.735 485.264 69.535C485.054 69.325 484.889 69.085 484.769 68.815C484.659 68.545 484.604 68.25 484.604 67.93ZM486.719 67.765C486.719 68.005 486.809 68.185 486.989 68.305C487.179 68.415 487.434 68.47 487.754 68.47C488.084 68.47 488.394 68.405 488.684 68.275C488.974 68.135 489.249 67.965 489.509 67.765V66.535C488.959 66.565 488.504 66.615 488.144 66.685C487.784 66.755 487.499 66.845 487.289 66.955C487.079 67.055 486.929 67.175 486.839 67.315C486.759 67.455 486.719 67.605 486.719 67.765ZM500.784 70.81V72.46H493.584V70.81H500.784ZM502.608 59.485H506.973V67.18C506.973 67.41 507.003 67.605 507.063 67.765C507.133 67.915 507.223 68.04 507.333 68.14C507.453 68.23 507.583 68.295 507.723 68.335C507.873 68.375 508.023 68.395 508.173 68.395C508.343 68.395 508.523 68.38 508.713 68.35C508.903 68.31 509.113 68.245 509.343 68.155L509.838 69.775C509.638 69.835 509.453 69.89 509.283 69.94C509.113 69.99 508.943 70.03 508.773 70.06C508.603 70.1 508.423 70.13 508.233 70.15C508.043 70.17 507.833 70.18 507.603 70.18C506.663 70.18 505.953 69.905 505.473 69.355C505.003 68.795 504.768 68.04 504.768 67.09V61.225H502.608V59.485ZM511.857 62.56H517.047V70H514.842V64.285H511.857V62.56ZM515.847 61.465C515.417 61.465 515.062 61.345 514.782 61.105C514.512 60.865 514.377 60.54 514.377 60.13C514.377 59.72 514.512 59.39 514.782 59.14C515.062 58.88 515.417 58.75 515.847 58.75C516.277 58.75 516.627 58.88 516.897 59.14C517.177 59.39 517.317 59.72 517.317 60.13C517.317 60.54 517.177 60.865 516.897 61.105C516.627 61.345 516.277 61.465 515.847 61.465ZM521.451 67.66C521.881 67.93 522.311 68.145 522.741 68.305C523.181 68.465 523.651 68.545 524.151 68.545C524.661 68.545 525.026 68.49 525.246 68.38C525.466 68.27 525.576 68.115 525.576 67.915C525.576 67.685 525.391 67.5 525.021 67.36C524.661 67.21 524.181 67.05 523.581 66.88C523.251 66.79 522.926 66.685 522.606 66.565C522.296 66.435 522.016 66.285 521.766 66.115C521.516 65.935 521.311 65.73 521.151 65.5C521.001 65.27 520.926 65.005 520.926 64.705C520.926 64.365 521.006 64.05 521.166 63.76C521.326 63.47 521.551 63.225 521.841 63.025C522.141 62.825 522.501 62.67 522.921 62.56C523.351 62.44 523.831 62.38 524.361 62.38C525.021 62.38 525.621 62.49 526.161 62.71C526.711 62.92 527.181 63.15 527.571 63.4L526.581 64.72C526.241 64.52 525.891 64.355 525.531 64.225C525.171 64.085 524.796 64.015 524.406 64.015C523.936 64.015 523.601 64.065 523.401 64.165C523.211 64.265 523.116 64.41 523.116 64.6C523.116 64.71 523.166 64.81 523.266 64.9C523.366 64.99 523.501 65.07 523.671 65.14C523.841 65.21 524.041 65.28 524.271 65.35C524.511 65.41 524.761 65.475 525.021 65.545C525.391 65.645 525.741 65.76 526.071 65.89C526.401 66.01 526.691 66.155 526.941 66.325C527.191 66.495 527.391 66.7 527.541 66.94C527.691 67.18 527.766 67.46 527.766 67.78C527.766 68.12 527.686 68.435 527.526 68.725C527.366 69.015 527.131 69.27 526.821 69.49C526.521 69.7 526.141 69.87 525.681 70C525.231 70.12 524.706 70.18 524.106 70.18C523.436 70.18 522.781 70.07 522.141 69.85C521.501 69.63 520.941 69.36 520.461 69.04L521.451 67.66ZM531.27 64.285H529.395V62.65L531.375 62.56L531.66 60.58H533.475V62.56H536.625V64.285H533.475V66.895C533.475 67.465 533.6 67.87 533.85 68.11C534.1 68.34 534.495 68.455 535.035 68.455C535.325 68.455 535.59 68.43 535.83 68.38C536.07 68.33 536.3 68.265 536.52 68.185L536.91 69.775C536.58 69.875 536.21 69.965 535.8 70.045C535.4 70.135 534.96 70.18 534.48 70.18C533.89 70.18 533.39 70.1 532.98 69.94C532.57 69.78 532.235 69.56 531.975 69.28C531.725 68.99 531.545 68.645 531.435 68.245C531.325 67.845 531.27 67.4 531.27 66.91V64.285ZM545.754 70.81V72.46H538.554V70.81H545.754ZM547.353 66.28C547.353 65.66 547.458 65.11 547.668 64.63C547.878 64.14 548.158 63.73 548.508 63.4C548.868 63.07 549.273 62.82 549.723 62.65C550.183 62.47 550.658 62.38 551.148 62.38C551.638 62.38 552.108 62.47 552.558 62.65C553.018 62.82 553.423 63.07 553.773 63.4C554.133 63.73 554.418 64.14 554.628 64.63C554.838 65.11 554.943 65.66 554.943 66.28C554.943 66.9 554.838 67.455 554.628 67.945C554.418 68.425 554.133 68.83 553.773 69.16C553.423 69.49 553.018 69.745 552.558 69.925C552.108 70.095 551.638 70.18 551.148 70.18C550.658 70.18 550.183 70.095 549.723 69.925C549.273 69.745 548.868 69.49 548.508 69.16C548.158 68.83 547.878 68.425 547.668 67.945C547.458 67.455 547.353 66.9 547.353 66.28ZM549.618 66.28C549.618 66.93 549.743 67.445 549.993 67.825C550.253 68.205 550.638 68.395 551.148 68.395C551.658 68.395 552.038 68.205 552.288 67.825C552.548 67.445 552.678 66.93 552.678 66.28C552.678 65.63 552.548 65.115 552.288 64.735C552.038 64.355 551.658 64.165 551.148 64.165C550.638 64.165 550.253 64.355 549.993 64.735C549.743 65.115 549.618 65.63 549.618 66.28ZM563.998 61.33C563.508 61.14 562.988 61.045 562.438 61.045C561.958 61.045 561.603 61.15 561.373 61.36C561.153 61.57 561.043 61.9 561.043 62.35V62.56H563.608V64.285H561.043V70H558.838V64.285H556.873V62.65L558.838 62.56V62.365C558.838 61.935 558.903 61.535 559.033 61.165C559.163 60.795 559.363 60.475 559.633 60.205C559.903 59.925 560.248 59.705 560.668 59.545C561.088 59.385 561.588 59.305 562.168 59.305C562.598 59.305 562.998 59.345 563.368 59.425C563.748 59.505 564.098 59.6 564.418 59.71L563.998 61.33ZM572.737 70.81V72.46H565.537V70.81H572.737ZM574.711 62.56H576.511L576.676 63.55H576.736C577.056 63.23 577.421 62.955 577.831 62.725C578.251 62.495 578.741 62.38 579.301 62.38C580.141 62.38 580.756 62.65 581.146 63.19C581.536 63.73 581.731 64.47 581.731 65.41V70H579.526V65.695C579.526 65.195 579.446 64.83 579.286 64.6C579.126 64.37 578.841 64.255 578.431 64.255C578.131 64.255 577.866 64.32 577.636 64.45C577.416 64.58 577.176 64.775 576.916 65.035V70H574.711V62.56ZM590.5 70H588.7L588.535 68.935H588.475C588.145 69.315 587.78 69.62 587.38 69.85C586.98 70.07 586.51 70.18 585.97 70.18C585.12 70.18 584.505 69.91 584.125 69.37C583.745 68.83 583.555 68.09 583.555 67.15V62.56H585.76V66.865C585.76 67.365 585.835 67.73 585.985 67.96C586.135 68.19 586.42 68.305 586.84 68.305C587.12 68.305 587.365 68.245 587.575 68.125C587.795 68.005 588.035 67.78 588.295 67.45V62.56H590.5V70ZM592.159 62.56H593.809L593.974 63.49H594.034C594.174 63.18 594.364 62.92 594.604 62.71C594.854 62.49 595.194 62.38 595.624 62.38C595.954 62.38 596.229 62.485 596.449 62.695C596.679 62.895 596.839 63.195 596.929 63.595C597.069 63.255 597.269 62.97 597.529 62.74C597.799 62.5 598.144 62.38 598.564 62.38C599.084 62.38 599.489 62.595 599.779 63.025C600.069 63.445 600.214 64.03 600.214 64.78V70H598.144V64.945C598.144 64.485 598.004 64.255 597.724 64.255C597.454 64.255 597.224 64.495 597.034 64.975V70H595.339V64.945C595.339 64.485 595.194 64.255 594.904 64.255C594.764 64.255 594.644 64.315 594.544 64.435C594.444 64.555 594.339 64.735 594.229 64.975V70H592.159V62.56ZM601.693 59.485H603.898V62.065L603.838 63.235C604.128 62.965 604.453 62.755 604.813 62.605C605.183 62.455 605.548 62.38 605.908 62.38C606.368 62.38 606.783 62.47 607.153 62.65C607.533 62.83 607.848 63.085 608.098 63.415C608.358 63.735 608.558 64.13 608.698 64.6C608.838 65.06 608.908 65.575 608.908 66.145C608.908 66.785 608.818 67.355 608.638 67.855C608.458 68.355 608.218 68.78 607.918 69.13C607.618 69.47 607.273 69.73 606.883 69.91C606.503 70.09 606.103 70.18 605.683 70.18C605.333 70.18 604.983 70.095 604.633 69.925C604.293 69.755 603.968 69.51 603.658 69.19H603.598L603.418 70H601.693V59.485ZM603.898 67.885C604.108 68.065 604.323 68.195 604.543 68.275C604.773 68.345 604.988 68.38 605.188 68.38C605.598 68.38 605.943 68.21 606.223 67.87C606.503 67.52 606.643 66.96 606.643 66.19C606.643 64.85 606.188 64.18 605.278 64.18C604.808 64.18 604.348 64.41 603.898 64.87V67.885ZM610.432 66.28C610.432 65.67 610.537 65.125 610.747 64.645C610.967 64.165 611.257 63.76 611.617 63.43C611.977 63.09 612.387 62.83 612.847 62.65C613.317 62.47 613.802 62.38 614.302 62.38C614.872 62.38 615.377 62.47 615.817 62.65C616.257 62.83 616.622 63.08 616.912 63.4C617.202 63.72 617.422 64.1 617.572 64.54C617.722 64.97 617.797 65.44 617.797 65.95C617.797 66.15 617.787 66.34 617.767 66.52C617.747 66.7 617.727 66.835 617.707 66.925H612.697C612.777 67.485 613.017 67.89 613.417 68.14C613.827 68.38 614.307 68.5 614.857 68.5C615.197 68.5 615.517 68.46 615.817 68.38C616.127 68.29 616.447 68.16 616.777 67.99L617.497 69.31C617.077 69.58 616.607 69.795 616.087 69.955C615.567 70.105 615.057 70.18 614.557 70.18C613.977 70.18 613.437 70.095 612.937 69.925C612.437 69.745 612.002 69.49 611.632 69.16C611.262 68.82 610.967 68.41 610.747 67.93C610.537 67.45 610.432 66.9 610.432 66.28ZM615.802 65.47C615.802 65.05 615.687 64.71 615.457 64.45C615.227 64.19 614.857 64.06 614.347 64.06C613.947 64.06 613.592 64.175 613.282 64.405C612.972 64.635 612.767 64.99 612.667 65.47H615.802ZM620.342 62.56H622.142L622.322 64.18H622.367C622.737 63.57 623.182 63.12 623.702 62.83C624.222 62.53 624.782 62.38 625.382 62.38C625.712 62.38 625.977 62.405 626.177 62.455C626.387 62.505 626.602 62.58 626.822 62.68L626.372 64.525C626.142 64.455 625.932 64.405 625.742 64.375C625.562 64.335 625.332 64.315 625.052 64.315C624.592 64.315 624.137 64.45 623.687 64.72C623.247 64.99 622.867 65.46 622.547 66.13V70H620.342V62.56ZM629.381 67.66C629.811 67.93 630.241 68.145 630.671 68.305C631.111 68.465 631.581 68.545 632.081 68.545C632.591 68.545 632.956 68.49 633.176 68.38C633.396 68.27 633.506 68.115 633.506 67.915C633.506 67.685 633.321 67.5 632.951 67.36C632.591 67.21 632.111 67.05 631.511 66.88C631.181 66.79 630.856 66.685 630.536 66.565C630.226 66.435 629.946 66.285 629.696 66.115C629.446 65.935 629.241 65.73 629.081 65.5C628.931 65.27 628.856 65.005 628.856 64.705C628.856 64.365 628.936 64.05 629.096 63.76C629.256 63.47 629.481 63.225 629.771 63.025C630.071 62.825 630.431 62.67 630.851 62.56C631.281 62.44 631.761 62.38 632.291 62.38C632.951 62.38 633.551 62.49 634.091 62.71C634.641 62.92 635.111 63.15 635.501 63.4L634.511 64.72C634.171 64.52 633.821 64.355 633.461 64.225C633.101 64.085 632.726 64.015 632.336 64.015C631.866 64.015 631.531 64.065 631.331 64.165C631.141 64.265 631.046 64.41 631.046 64.6C631.046 64.71 631.096 64.81 631.196 64.9C631.296 64.99 631.431 65.07 631.601 65.14C631.771 65.21 631.971 65.28 632.201 65.35C632.441 65.41 632.691 65.475 632.951 65.545C633.321 65.645 633.671 65.76 634.001 65.89C634.331 66.01 634.621 66.155 634.871 66.325C635.121 66.495 635.321 66.7 635.471 66.94C635.621 67.18 635.696 67.46 635.696 67.78C635.696 68.12 635.616 68.435 635.456 68.725C635.296 69.015 635.061 69.27 634.751 69.49C634.451 69.7 634.071 69.87 633.611 70C633.161 70.12 632.636 70.18 632.036 70.18C631.366 70.18 630.711 70.07 630.071 69.85C629.431 69.63 628.871 69.36 628.391 69.04L629.381 67.66ZM638.48 71.71C638.93 71.28 639.315 70.84 639.635 70.39C639.955 69.95 640.215 69.49 640.415 69.01C640.625 68.53 640.78 68.03 640.88 67.51C640.98 66.98 641.03 66.42 641.03 65.83C641.03 64.65 640.825 63.595 640.415 62.665C640.015 61.725 639.37 60.82 638.48 59.95L639.71 58.975C640.69 59.845 641.46 60.85 642.02 61.99C642.59 63.13 642.875 64.41 642.875 65.83C642.875 67.25 642.59 68.53 642.02 69.67C641.46 70.81 640.69 71.815 639.71 72.685L638.48 71.71Z" fill="white"/>
<path d="M43.5166 43.56H45.1666L45.3316 44.49H45.3916C45.5316 44.18 45.7216 43.92 45.9616 43.71C46.2116 43.49 46.5516 43.38 46.9816 43.38C47.3116 43.38 47.5866 43.485 47.8066 43.695C48.0366 43.895 48.1966 44.195 48.2866 44.595C48.4266 44.255 48.6266 43.97 48.8866 43.74C49.1566 43.5 49.5016 43.38 49.9216 43.38C50.4416 43.38 50.8466 43.595 51.1366 44.025C51.4266 44.445 51.5716 45.03 51.5716 45.78V51H49.5016V45.945C49.5016 45.485 49.3616 45.255 49.0816 45.255C48.8116 45.255 48.5816 45.495 48.3916 45.975V51H46.6966V45.945C46.6966 45.485 46.5516 45.255 46.2616 45.255C46.1216 45.255 46.0016 45.315 45.9016 45.435C45.8016 45.555 45.6966 45.735 45.5866 45.975V51H43.5166V43.56ZM52.7957 47.28C52.7957 46.67 52.9007 46.125 53.1107 45.645C53.3307 45.165 53.6207 44.76 53.9807 44.43C54.3407 44.09 54.7507 43.83 55.2107 43.65C55.6807 43.47 56.1657 43.38 56.6657 43.38C57.2357 43.38 57.7407 43.47 58.1807 43.65C58.6207 43.83 58.9857 44.08 59.2757 44.4C59.5657 44.72 59.7857 45.1 59.9357 45.54C60.0857 45.97 60.1607 46.44 60.1607 46.95C60.1607 47.15 60.1507 47.34 60.1307 47.52C60.1107 47.7 60.0907 47.835 60.0707 47.925H55.0607C55.1407 48.485 55.3807 48.89 55.7807 49.14C56.1907 49.38 56.6707 49.5 57.2207 49.5C57.5607 49.5 57.8807 49.46 58.1807 49.38C58.4907 49.29 58.8107 49.16 59.1407 48.99L59.8607 50.31C59.4407 50.58 58.9707 50.795 58.4507 50.955C57.9307 51.105 57.4207 51.18 56.9207 51.18C56.3407 51.18 55.8007 51.095 55.3007 50.925C54.8007 50.745 54.3657 50.49 53.9957 50.16C53.6257 49.82 53.3307 49.41 53.1107 48.93C52.9007 48.45 52.7957 47.9 52.7957 47.28ZM58.1657 46.47C58.1657 46.05 58.0507 45.71 57.8207 45.45C57.5907 45.19 57.2207 45.06 56.7107 45.06C56.3107 45.06 55.9557 45.175 55.6457 45.405C55.3357 45.635 55.1307 45.99 55.0307 46.47H58.1657ZM61.8798 48.93C61.8798 48.51 61.9698 48.145 62.1498 47.835C62.3298 47.515 62.6148 47.245 63.0048 47.025C63.4048 46.805 63.9148 46.63 64.5348 46.5C65.1548 46.36 65.9048 46.265 66.7848 46.215C66.7448 45.875 66.5948 45.61 66.3348 45.42C66.0848 45.23 65.7048 45.135 65.1948 45.135C64.8348 45.135 64.4698 45.2 64.0998 45.33C63.7398 45.45 63.3498 45.615 62.9298 45.825L62.1498 44.385C62.6598 44.095 63.2048 43.855 63.7848 43.665C64.3748 43.475 64.9898 43.38 65.6298 43.38C66.6698 43.38 67.4898 43.655 68.0898 44.205C68.6898 44.755 68.9898 45.6 68.9898 46.74V51H67.1898L67.0248 50.16H66.9648C66.5848 50.45 66.1698 50.695 65.7198 50.895C65.2698 51.085 64.8048 51.18 64.3248 51.18C63.9448 51.18 63.6048 51.12 63.3048 51C63.0048 50.89 62.7498 50.735 62.5398 50.535C62.3298 50.325 62.1648 50.085 62.0448 49.815C61.9348 49.545 61.8798 49.25 61.8798 48.93ZM63.9948 48.765C63.9948 49.005 64.0848 49.185 64.2648 49.305C64.4548 49.415 64.7098 49.47 65.0298 49.47C65.3598 49.47 65.6698 49.405 65.9598 49.275C66.2498 49.135 66.5248 48.965 66.7848 48.765V47.535C66.2348 47.565 65.7798 47.615 65.4198 47.685C65.0598 47.755 64.7748 47.845 64.5648 47.955C64.3548 48.055 64.2048 48.175 64.1148 48.315C64.0348 48.455 63.9948 48.605 63.9948 48.765ZM71.039 43.56H72.839L73.004 44.55H73.064C73.384 44.23 73.749 43.955 74.159 43.725C74.579 43.495 75.069 43.38 75.629 43.38C76.469 43.38 77.084 43.65 77.474 44.19C77.864 44.73 78.059 45.47 78.059 46.41V51H75.854V46.695C75.854 46.195 75.774 45.83 75.614 45.6C75.454 45.37 75.169 45.255 74.759 45.255C74.459 45.255 74.194 45.32 73.964 45.45C73.744 45.58 73.504 45.775 73.244 46.035V51H71.039V43.56Z" fill="#56B4E9"/>
</svg>
