<svg width="491" height="360" viewBox="0 0 491 360" fill="none" xmlns="http://www.w3.org/2000/svg">
<rect width="491" height="360" fill="white"/>
<rect x="0.5" y="0.5" width="49" height="49" transform="translate(0 65)" stroke="#009E73"/>
<rect x="0.5" y="0.5" width="49" height="49" transform="translate(49 65)" stroke="#009E73"/>
<rect x="0.5" y="0.5" width="49" height="49" transform="translate(0 114)" stroke="#009E73"/>
<rect x="0.5" y="0.5" width="49" height="49" transform="translate(49 114)" stroke="#009E73"/>
<rect x="0.5" y="0.5" width="49" height="49" transform="translate(98 65)" stroke="#009E73"/>
<rect x="0.5" y="0.5" width="49" height="49" transform="translate(147 65)" stroke="#009E73"/>
<rect x="0.5" y="0.5" width="49" height="49" transform="translate(98 114)" stroke="#009E73"/>
<rect x="0.5" y="0.5" width="49" height="49" transform="translate(147 114)" stroke="#009E73"/>
<rect x="0.5" y="0.5" width="49" height="49" transform="translate(196 65)" stroke="#009E73"/>
<rect x="0.5" y="0.5" width="49" height="49" transform="translate(245 65)" stroke="#009E73"/>
<rect x="0.5" y="0.5" width="49" height="49" transform="translate(196 114)" stroke="#009E73"/>
<rect x="0.5" y="0.5" width="49" height="49" transform="translate(245 114)" stroke="#009E73"/>
<rect x="0.5" y="0.5" width="49" height="49" transform="translate(294 65)" stroke="#009E73"/>
<rect x="0.5" y="0.5" width="49" height="49" transform="translate(343 65)" stroke="#009E73"/>
<rect x="0.5" y="0.5" width="49" height="49" transform="translate(294 114)" stroke="#009E73"/>
<rect x="0.5" y="0.5" width="49" height="49" transform="translate(343 114)" stroke="#009E73"/>
<rect x="0.5" y="0.5" width="49" height="49" transform="translate(392 65)" stroke="#009E73"/>
<rect x="0.5" y="0.5" width="49" height="49" transform="translate(441 65)" stroke="#009E73"/>
<rect x="0.5" y="0.5" width="49" height="49" transform="translate(392 114)" stroke="#009E73"/>
<rect x="0.5" y="0.5" width="49" height="49" transform="translate(441 114)" stroke="#009E73"/>
<rect x="0.5" y="0.5" width="49" height="49" transform="translate(0 163)" stroke="#009E73"/>
<rect x="0.5" y="0.5" width="49" height="49" transform="translate(49 163)" stroke="#009E73"/>
<rect x="0.5" y="0.5" width="49" height="49" transform="translate(0 212)" stroke="#009E73"/>
<rect x="0.5" y="0.5" width="49" height="49" transform="translate(49 212)" stroke="#009E73"/>
<rect x="0.5" y="0.5" width="49" height="49" transform="translate(98 163)" stroke="#009E73"/>
<rect x="0.5" y="0.5" width="49" height="49" transform="translate(147 163)" stroke="#009E73"/>
<rect x="0.5" y="0.5" width="49" height="49" transform="translate(98 212)" stroke="#009E73"/>
<rect x="0.5" y="0.5" width="49" height="49" transform="translate(147 212)" stroke="#009E73"/>
<rect x="0.5" y="0.5" width="49" height="49" transform="translate(196 163)" stroke="#009E73"/>
<rect x="0.5" y="0.5" width="49" height="49" transform="translate(245 163)" stroke="#009E73"/>
<rect x="0.5" y="0.5" width="49" height="49" transform="translate(196 212)" stroke="#009E73"/>
<rect x="0.5" y="0.5" width="49" height="49" transform="translate(245 212)" stroke="#009E73"/>
<rect x="0.5" y="0.5" width="49" height="49" transform="translate(294 163)" stroke="#009E73"/>
<rect x="0.5" y="0.5" width="49" height="49" transform="translate(343 163)" stroke="#009E73"/>
<rect x="0.5" y="0.5" width="49" height="49" transform="translate(294 212)" stroke="#009E73"/>
<rect x="0.5" y="0.5" width="49" height="49" transform="translate(343 212)" stroke="#009E73"/>
<rect x="0.5" y="0.5" width="49" height="49" transform="translate(392 163)" stroke="#009E73"/>
<rect x="0.5" y="0.5" width="49" height="49" transform="translate(441 163)" stroke="#009E73"/>
<rect x="0.5" y="0.5" width="49" height="49" transform="translate(392 212)" stroke="#009E73"/>
<rect x="0.5" y="0.5" width="49" height="49" transform="translate(441 212)" stroke="#009E73"/>
<rect x="0.5" y="0.5" width="49" height="49" transform="translate(0 261)" stroke="#009E73"/>
<rect x="0.5" y="0.5" width="49" height="49" transform="translate(49 261)" stroke="#009E73"/>
<rect x="0.5" y="0.5" width="49" height="49" transform="translate(0 310)" stroke="#009E73"/>
<rect x="0.5" y="0.5" width="49" height="49" transform="translate(49 310)" stroke="#009E73"/>
<rect x="0.5" y="0.5" width="49" height="49" transform="translate(98 261)" stroke="#009E73"/>
<rect x="0.5" y="0.5" width="49" height="49" transform="translate(147 261)" stroke="#009E73"/>
<rect x="0.5" y="0.5" width="49" height="49" transform="translate(98 310)" stroke="#009E73"/>
<rect x="0.5" y="0.5" width="49" height="49" transform="translate(147 310)" stroke="#009E73"/>
<rect x="0.5" y="0.5" width="49" height="49" transform="translate(196 261)" stroke="#009E73"/>
<rect x="0.5" y="0.5" width="49" height="49" transform="translate(245 261)" stroke="#009E73"/>
<rect x="0.5" y="0.5" width="49" height="49" transform="translate(196 310)" stroke="#009E73"/>
<rect x="0.5" y="0.5" width="49" height="49" transform="translate(245 310)" stroke="#009E73"/>
<rect x="0.5" y="0.5" width="49" height="49" transform="translate(294 261)" stroke="#009E73"/>
<rect x="0.5" y="0.5" width="49" height="49" transform="translate(343 261)" stroke="#009E73"/>
<rect x="0.5" y="0.5" width="49" height="49" transform="translate(294 310)" stroke="#009E73"/>
<rect x="0.5" y="0.5" width="49" height="49" transform="translate(343 310)" stroke="#009E73"/>
<rect x="0.5" y="0.5" width="49" height="49" transform="translate(392 261)" stroke="#009E73"/>
<rect x="0.5" y="0.5" width="49" height="49" transform="translate(441 261)" stroke="#009E73"/>
<rect x="0.5" y="0.5" width="49" height="49" transform="translate(392 310)" stroke="#009E73"/>
<rect x="0.5" y="0.5" width="49" height="49" transform="translate(441 310)" stroke="#009E73"/>
<rect width="415" height="29" transform="translate(38 197)" fill="white"/>
<path d="M11.1562 18.4844H4.99219L3.82031 22H0.0820312L6.43359 4.9375H9.69141L16.0781 22H12.3398L11.1562 18.4844ZM5.94141 15.6367H10.207L8.0625 9.25L5.94141 15.6367ZM30.293 18.4961C30.293 18.082 30.0859 17.7578 29.6719 17.5234C29.2656 17.2812 28.6094 17.0664 27.7031 16.8789C24.6875 16.2461 23.1797 14.9648 23.1797 13.0352C23.1797 11.9102 23.6445 10.9727 24.5742 10.2227C25.5117 9.46484 26.7344 9.08594 28.2422 9.08594C29.8516 9.08594 31.1367 9.46484 32.0977 10.2227C33.0664 10.9805 33.5508 11.9648 33.5508 13.1758H30.1641C30.1641 12.6914 30.0078 12.293 29.6953 11.9805C29.3828 11.6602 28.8945 11.5 28.2305 11.5C27.6602 11.5 27.2188 11.6289 26.9062 11.8867C26.5938 12.1445 26.4375 12.4727 26.4375 12.8711C26.4375 13.2461 26.6133 13.5508 26.9648 13.7852C27.3242 14.0117 27.9258 14.2109 28.7695 14.3828C29.6133 14.5469 30.3242 14.7344 30.9023 14.9453C32.6914 15.6016 33.5859 16.7383 33.5859 18.3555C33.5859 19.5117 33.0898 20.4492 32.0977 21.168C31.1055 21.8789 29.8242 22.2344 28.2539 22.2344C27.1914 22.2344 26.2461 22.0469 25.418 21.6719C24.5977 21.2891 23.9531 20.7695 23.4844 20.1133C23.0156 19.4492 22.7812 18.7344 22.7812 17.9688H25.9922C26.0234 18.5703 26.2461 19.0312 26.6602 19.3516C27.0742 19.6719 27.6289 19.832 28.3242 19.832C28.9727 19.832 29.4609 19.7109 29.7891 19.4688C30.125 19.2188 30.293 18.8945 30.293 18.4961ZM38.9531 9.32031L39.0586 10.7383C39.957 9.63672 41.1719 9.08594 42.7031 9.08594C44.3359 9.08594 45.457 9.73047 46.0664 11.0195C46.957 9.73047 48.2266 9.08594 49.875 9.08594C51.25 9.08594 52.2734 9.48828 52.9453 10.293C53.6172 11.0898 53.9531 12.293 53.9531 13.9023V22H50.5547V13.9141C50.5547 13.1953 50.4141 12.6719 50.1328 12.3438C49.8516 12.0078 49.3555 11.8398 48.6445 11.8398C47.6289 11.8398 46.9258 12.3242 46.5352 13.293L46.5469 22H43.1602V13.9258C43.1602 13.1914 43.0156 12.6602 42.7266 12.332C42.4375 12.0039 41.9453 11.8398 41.25 11.8398C40.2891 11.8398 39.5938 12.2383 39.1641 13.0352V22H35.7773V9.32031H38.9531ZM63.9141 22C63.7578 21.6953 63.6445 21.3164 63.5742 20.8633C62.7539 21.7773 61.6875 22.2344 60.375 22.2344C59.1328 22.2344 58.1016 21.875 57.2812 21.1562C56.4688 20.4375 56.0625 19.5312 56.0625 18.4375C56.0625 17.0938 56.5586 16.0625 57.5508 15.3438C58.5508 14.625 59.9922 14.2617 61.875 14.2539H63.4336V13.5273C63.4336 12.9414 63.2812 12.4727 62.9766 12.1211C62.6797 11.7695 62.207 11.5938 61.5586 11.5938C60.9883 11.5938 60.5391 11.7305 60.2109 12.0039C59.8906 12.2773 59.7305 12.6523 59.7305 13.1289H56.3438C56.3438 12.3945 56.5703 11.7148 57.0234 11.0898C57.4766 10.4648 58.1172 9.97656 58.9453 9.625C59.7734 9.26562 60.7031 9.08594 61.7344 9.08594C63.2969 9.08594 64.5352 9.48047 65.4492 10.2695C66.3711 11.0508 66.832 12.1523 66.832 13.5742V19.0703C66.8398 20.2734 67.0078 21.1836 67.3359 21.8008V22H63.9141ZM61.1133 19.6445C61.6133 19.6445 62.0742 19.5352 62.4961 19.3164C62.918 19.0898 63.2305 18.7891 63.4336 18.4141V16.2344H62.168C60.4727 16.2344 59.5703 16.8203 59.4609 17.9922L59.4492 18.1914C59.4492 18.6133 59.5977 18.9609 59.8945 19.2344C60.1914 19.5078 60.5977 19.6445 61.1133 19.6445ZM73.0078 22H69.6094V4H73.0078V22ZM79.3828 22H75.9844V4H79.3828V22ZM99.5742 15.7773C99.5742 17.7305 99.1289 19.2969 98.2383 20.4766C97.3555 21.6484 96.1602 22.2344 94.6523 22.2344C93.3711 22.2344 92.3359 21.7891 91.5469 20.8984V26.875H88.1602V9.32031H91.3008L91.418 10.5625C92.2383 9.57812 93.3086 9.08594 94.6289 9.08594C96.1914 9.08594 97.4062 9.66406 98.2734 10.8203C99.1406 11.9766 99.5742 13.5703 99.5742 15.6016V15.7773ZM96.1875 15.5312C96.1875 14.3516 95.9766 13.4414 95.5547 12.8008C95.1406 12.1602 94.5352 11.8398 93.7383 11.8398C92.6758 11.8398 91.9453 12.2461 91.5469 13.0586V18.25C91.9609 19.0859 92.6992 19.5039 93.7617 19.5039C95.3789 19.5039 96.1875 18.1797 96.1875 15.5312ZM109.031 22C108.875 21.6953 108.762 21.3164 108.691 20.8633C107.871 21.7773 106.805 22.2344 105.492 22.2344C104.25 22.2344 103.219 21.875 102.398 21.1562C101.586 20.4375 101.18 19.5312 101.18 18.4375C101.18 17.0938 101.676 16.0625 102.668 15.3438C103.668 14.625 105.109 14.2617 106.992 14.2539H108.551V13.5273C108.551 12.9414 108.398 12.4727 108.094 12.1211C107.797 11.7695 107.324 11.5938 106.676 11.5938C106.105 11.5938 105.656 11.7305 105.328 12.0039C105.008 12.2773 104.848 12.6523 104.848 13.1289H101.461C101.461 12.3945 101.688 11.7148 102.141 11.0898C102.594 10.4648 103.234 9.97656 104.062 9.625C104.891 9.26562 105.82 9.08594 106.852 9.08594C108.414 9.08594 109.652 9.48047 110.566 10.2695C111.488 11.0508 111.949 12.1523 111.949 13.5742V19.0703C111.957 20.2734 112.125 21.1836 112.453 21.8008V22H109.031ZM106.23 19.6445C106.73 19.6445 107.191 19.5352 107.613 19.3164C108.035 19.0898 108.348 18.7891 108.551 18.4141V16.2344H107.285C105.59 16.2344 104.688 16.8203 104.578 17.9922L104.566 18.1914C104.566 18.6133 104.715 18.9609 105.012 19.2344C105.309 19.5078 105.715 19.6445 106.23 19.6445ZM121.676 12.4961C121.215 12.4336 120.809 12.4023 120.457 12.4023C119.176 12.4023 118.336 12.8359 117.938 13.7031V22H114.551V9.32031H117.75L117.844 10.832C118.523 9.66797 119.465 9.08594 120.668 9.08594C121.043 9.08594 121.395 9.13672 121.723 9.23828L121.676 12.4961ZM127.957 6.20312V9.32031H130.125V11.8047H127.957V18.1328C127.957 18.6016 128.047 18.9375 128.227 19.1406C128.406 19.3438 128.75 19.4453 129.258 19.4453C129.633 19.4453 129.965 19.418 130.254 19.3633V21.9297C129.59 22.1328 128.906 22.2344 128.203 22.2344C125.828 22.2344 124.617 21.0352 124.57 18.6367V11.8047H122.719V9.32031H124.57V6.20312H127.957ZM137.461 15.543C137.461 14.2852 137.703 13.1641 138.188 12.1797C138.672 11.1953 139.367 10.4336 140.273 9.89453C141.188 9.35547 142.246 9.08594 143.449 9.08594C145.16 9.08594 146.555 9.60938 147.633 10.6562C148.719 11.7031 149.324 13.125 149.449 14.9219L149.473 15.7891C149.473 17.7344 148.93 19.2969 147.844 20.4766C146.758 21.6484 145.301 22.2344 143.473 22.2344C141.645 22.2344 140.184 21.6484 139.09 20.4766C138.004 19.3047 137.461 17.7109 137.461 15.6953V15.543ZM140.848 15.7891C140.848 16.9922 141.074 17.9141 141.527 18.5547C141.98 19.1875 142.629 19.5039 143.473 19.5039C144.293 19.5039 144.934 19.1914 145.395 18.5664C145.855 17.9336 146.086 16.9258 146.086 15.543C146.086 14.3633 145.855 13.4492 145.395 12.8008C144.934 12.1523 144.285 11.8281 143.449 11.8281C142.621 11.8281 141.98 12.1523 141.527 12.8008C141.074 13.4414 140.848 14.4375 140.848 15.7891ZM152.484 22V11.8047H150.598V9.32031H152.484V8.24219C152.484 6.82031 152.891 5.71875 153.703 4.9375C154.523 4.14844 155.668 3.75391 157.137 3.75391C157.605 3.75391 158.18 3.83203 158.859 3.98828L158.824 6.61328C158.543 6.54297 158.199 6.50781 157.793 6.50781C156.52 6.50781 155.883 7.10547 155.883 8.30078V9.32031H158.402V11.8047H155.883V22H152.484ZM170.191 6.20312V9.32031H172.359V11.8047H170.191V18.1328C170.191 18.6016 170.281 18.9375 170.461 19.1406C170.641 19.3438 170.984 19.4453 171.492 19.4453C171.867 19.4453 172.199 19.418 172.488 19.3633V21.9297C171.824 22.1328 171.141 22.2344 170.438 22.2344C168.062 22.2344 166.852 21.0352 166.805 18.6367V11.8047H164.953V9.32031H166.805V6.20312H170.191ZM177.551 10.7031C178.449 9.625 179.578 9.08594 180.938 9.08594C183.688 9.08594 185.082 10.6836 185.121 13.8789V22H181.734V13.9727C181.734 13.2461 181.578 12.7109 181.266 12.3672C180.953 12.0156 180.434 11.8398 179.707 11.8398C178.715 11.8398 177.996 12.2227 177.551 12.9883V22H174.164V4H177.551V10.7031ZM193.512 22.2344C191.652 22.2344 190.137 21.6641 188.965 20.5234C187.801 19.3828 187.219 17.8633 187.219 15.9648V15.6367C187.219 14.3633 187.465 13.2266 187.957 12.2266C188.449 11.2188 189.145 10.4453 190.043 9.90625C190.949 9.35938 191.98 9.08594 193.137 9.08594C194.871 9.08594 196.234 9.63281 197.227 10.7266C198.227 11.8203 198.727 13.3711 198.727 15.3789V16.7617H190.652C190.762 17.5898 191.09 18.2539 191.637 18.7539C192.191 19.2539 192.891 19.5039 193.734 19.5039C195.039 19.5039 196.059 19.0312 196.793 18.0859L198.457 19.9492C197.949 20.668 197.262 21.2305 196.395 21.6367C195.527 22.0352 194.566 22.2344 193.512 22.2344ZM193.125 11.8281C192.453 11.8281 191.906 12.0547 191.484 12.5078C191.07 12.9609 190.805 13.6094 190.688 14.4531H195.398V14.1836C195.383 13.4336 195.18 12.8555 194.789 12.4492C194.398 12.0352 193.844 11.8281 193.125 11.8281ZM211.91 19.5039C212.535 19.5039 213.043 19.332 213.434 18.9883C213.824 18.6445 214.027 18.1875 214.043 17.6172H217.219C217.211 18.4766 216.977 19.2656 216.516 19.9844C216.055 20.6953 215.422 21.25 214.617 21.6484C213.82 22.0391 212.938 22.2344 211.969 22.2344C210.156 22.2344 208.727 21.6602 207.68 20.5117C206.633 19.3555 206.109 17.7617 206.109 15.7305V15.5078C206.109 13.5547 206.629 11.9961 207.668 10.832C208.707 9.66797 210.133 9.08594 211.945 9.08594C213.531 9.08594 214.801 9.53906 215.754 10.4453C216.715 11.3438 217.203 12.543 217.219 14.043H214.043C214.027 13.3867 213.824 12.8555 213.434 12.4492C213.043 12.0352 212.527 11.8281 211.887 11.8281C211.098 11.8281 210.5 12.1172 210.094 12.6953C209.695 13.2656 209.496 14.1953 209.496 15.4844V15.8359C209.496 17.1406 209.695 18.0781 210.094 18.6484C210.492 19.2188 211.098 19.5039 211.91 19.5039ZM218.625 15.543C218.625 14.2852 218.867 13.1641 219.352 12.1797C219.836 11.1953 220.531 10.4336 221.438 9.89453C222.352 9.35547 223.41 9.08594 224.613 9.08594C226.324 9.08594 227.719 9.60938 228.797 10.6562C229.883 11.7031 230.488 13.125 230.613 14.9219L230.637 15.7891C230.637 17.7344 230.094 19.2969 229.008 20.4766C227.922 21.6484 226.465 22.2344 224.637 22.2344C222.809 22.2344 221.348 21.6484 220.254 20.4766C219.168 19.3047 218.625 17.7109 218.625 15.6953V15.543ZM222.012 15.7891C222.012 16.9922 222.238 17.9141 222.691 18.5547C223.145 19.1875 223.793 19.5039 224.637 19.5039C225.457 19.5039 226.098 19.1914 226.559 18.5664C227.02 17.9336 227.25 16.9258 227.25 15.543C227.25 14.3633 227.02 13.4492 226.559 12.8008C226.098 12.1523 225.449 11.8281 224.613 11.8281C223.785 11.8281 223.145 12.1523 222.691 12.8008C222.238 13.4414 222.012 14.4375 222.012 15.7891ZM235.898 9.32031L236.004 10.7383C236.902 9.63672 238.117 9.08594 239.648 9.08594C241.281 9.08594 242.402 9.73047 243.012 11.0195C243.902 9.73047 245.172 9.08594 246.82 9.08594C248.195 9.08594 249.219 9.48828 249.891 10.293C250.562 11.0898 250.898 12.293 250.898 13.9023V22H247.5V13.9141C247.5 13.1953 247.359 12.6719 247.078 12.3438C246.797 12.0078 246.301 11.8398 245.59 11.8398C244.574 11.8398 243.871 12.3242 243.48 13.293L243.492 22H240.105V13.9258C240.105 13.1914 239.961 12.6602 239.672 12.332C239.383 12.0039 238.891 11.8398 238.195 11.8398C237.234 11.8398 236.539 12.2383 236.109 13.0352V22H232.723V9.32031H235.898ZM264.926 15.7773C264.926 17.7305 264.48 19.2969 263.59 20.4766C262.707 21.6484 261.512 22.2344 260.004 22.2344C258.723 22.2344 257.688 21.7891 256.898 20.8984V26.875H253.512V9.32031H256.652L256.77 10.5625C257.59 9.57812 258.66 9.08594 259.98 9.08594C261.543 9.08594 262.758 9.66406 263.625 10.8203C264.492 11.9766 264.926 13.5703 264.926 15.6016V15.7773ZM261.539 15.5312C261.539 14.3516 261.328 13.4414 260.906 12.8008C260.492 12.1602 259.887 11.8398 259.09 11.8398C258.027 11.8398 257.297 12.2461 256.898 13.0586V18.25C257.312 19.0859 258.051 19.5039 259.113 19.5039C260.73 19.5039 261.539 18.1797 261.539 15.5312ZM274.629 20.7109C273.793 21.7266 272.637 22.2344 271.16 22.2344C269.801 22.2344 268.762 21.8438 268.043 21.0625C267.332 20.2812 266.969 19.1367 266.953 17.6289V9.32031H270.34V17.5117C270.34 18.832 270.941 19.4922 272.145 19.4922C273.293 19.4922 274.082 19.0938 274.512 18.2969V9.32031H277.91V22H274.723L274.629 20.7109ZM284.52 6.20312V9.32031H286.688V11.8047H284.52V18.1328C284.52 18.6016 284.609 18.9375 284.789 19.1406C284.969 19.3438 285.312 19.4453 285.82 19.4453C286.195 19.4453 286.527 19.418 286.816 19.3633V21.9297C286.152 22.1328 285.469 22.2344 284.766 22.2344C282.391 22.2344 281.18 21.0352 281.133 18.6367V11.8047H279.281V9.32031H281.133V6.20312H284.52ZM294.41 22.2344C292.551 22.2344 291.035 21.6641 289.863 20.5234C288.699 19.3828 288.117 17.8633 288.117 15.9648V15.6367C288.117 14.3633 288.363 13.2266 288.855 12.2266C289.348 11.2188 290.043 10.4453 290.941 9.90625C291.848 9.35938 292.879 9.08594 294.035 9.08594C295.77 9.08594 297.133 9.63281 298.125 10.7266C299.125 11.8203 299.625 13.3711 299.625 15.3789V16.7617H291.551C291.66 17.5898 291.988 18.2539 292.535 18.7539C293.09 19.2539 293.789 19.5039 294.633 19.5039C295.938 19.5039 296.957 19.0312 297.691 18.0859L299.355 19.9492C298.848 20.668 298.16 21.2305 297.293 21.6367C296.426 22.0352 295.465 22.2344 294.41 22.2344ZM294.023 11.8281C293.352 11.8281 292.805 12.0547 292.383 12.5078C291.969 12.9609 291.703 13.6094 291.586 14.4531H296.297V14.1836C296.281 13.4336 296.078 12.8555 295.688 12.4492C295.297 12.0352 294.742 11.8281 294.023 11.8281ZM308.684 12.4961C308.223 12.4336 307.816 12.4023 307.465 12.4023C306.184 12.4023 305.344 12.8359 304.945 13.7031V22H301.559V9.32031H304.758L304.852 10.832C305.531 9.66797 306.473 9.08594 307.676 9.08594C308.051 9.08594 308.402 9.13672 308.73 9.23828L308.684 12.4961ZM319.477 9.32031L319.582 10.7383C320.48 9.63672 321.695 9.08594 323.227 9.08594C324.859 9.08594 325.98 9.73047 326.59 11.0195C327.48 9.73047 328.75 9.08594 330.398 9.08594C331.773 9.08594 332.797 9.48828 333.469 10.293C334.141 11.0898 334.477 12.293 334.477 13.9023V22H331.078V13.9141C331.078 13.1953 330.938 12.6719 330.656 12.3438C330.375 12.0078 329.879 11.8398 329.168 11.8398C328.152 11.8398 327.449 12.3242 327.059 13.293L327.07 22H323.684V13.9258C323.684 13.1914 323.539 12.6602 323.25 12.332C322.961 12.0039 322.469 11.8398 321.773 11.8398C320.812 11.8398 320.117 12.2383 319.688 13.0352V22H316.301V9.32031H319.477ZM342.926 22.2344C341.066 22.2344 339.551 21.6641 338.379 20.5234C337.215 19.3828 336.633 17.8633 336.633 15.9648V15.6367C336.633 14.3633 336.879 13.2266 337.371 12.2266C337.863 11.2188 338.559 10.4453 339.457 9.90625C340.363 9.35938 341.395 9.08594 342.551 9.08594C344.285 9.08594 345.648 9.63281 346.641 10.7266C347.641 11.8203 348.141 13.3711 348.141 15.3789V16.7617H340.066C340.176 17.5898 340.504 18.2539 341.051 18.7539C341.605 19.2539 342.305 19.5039 343.148 19.5039C344.453 19.5039 345.473 19.0312 346.207 18.0859L347.871 19.9492C347.363 20.668 346.676 21.2305 345.809 21.6367C344.941 22.0352 343.98 22.2344 342.926 22.2344ZM342.539 11.8281C341.867 11.8281 341.32 12.0547 340.898 12.5078C340.484 12.9609 340.219 13.6094 340.102 14.4531H344.812V14.1836C344.797 13.4336 344.594 12.8555 344.203 12.4492C343.812 12.0352 343.258 11.8281 342.539 11.8281ZM353.25 9.32031L353.355 10.7383C354.254 9.63672 355.469 9.08594 357 9.08594C358.633 9.08594 359.754 9.73047 360.363 11.0195C361.254 9.73047 362.523 9.08594 364.172 9.08594C365.547 9.08594 366.57 9.48828 367.242 10.293C367.914 11.0898 368.25 12.293 368.25 13.9023V22H364.852V13.9141C364.852 13.1953 364.711 12.6719 364.43 12.3438C364.148 12.0078 363.652 11.8398 362.941 11.8398C361.926 11.8398 361.223 12.3242 360.832 13.293L360.844 22H357.457V13.9258C357.457 13.1914 357.312 12.6602 357.023 12.332C356.734 12.0039 356.242 11.8398 355.547 11.8398C354.586 11.8398 353.891 12.2383 353.461 13.0352V22H350.074V9.32031H353.25ZM370.336 15.543C370.336 14.2852 370.578 13.1641 371.062 12.1797C371.547 11.1953 372.242 10.4336 373.148 9.89453C374.062 9.35547 375.121 9.08594 376.324 9.08594C378.035 9.08594 379.43 9.60938 380.508 10.6562C381.594 11.7031 382.199 13.125 382.324 14.9219L382.348 15.7891C382.348 17.7344 381.805 19.2969 380.719 20.4766C379.633 21.6484 378.176 22.2344 376.348 22.2344C374.52 22.2344 373.059 21.6484 371.965 20.4766C370.879 19.3047 370.336 17.7109 370.336 15.6953V15.543ZM373.723 15.7891C373.723 16.9922 373.949 17.9141 374.402 18.5547C374.855 19.1875 375.504 19.5039 376.348 19.5039C377.168 19.5039 377.809 19.1914 378.27 18.5664C378.73 17.9336 378.961 16.9258 378.961 15.543C378.961 14.3633 378.73 13.4492 378.27 12.8008C377.809 12.1523 377.16 11.8281 376.324 11.8281C375.496 11.8281 374.855 12.1523 374.402 12.8008C373.949 13.4414 373.723 14.4375 373.723 15.7891ZM391.559 12.4961C391.098 12.4336 390.691 12.4023 390.34 12.4023C389.059 12.4023 388.219 12.8359 387.82 13.7031V22H384.434V9.32031H387.633L387.727 10.832C388.406 9.66797 389.348 9.08594 390.551 9.08594C390.926 9.08594 391.277 9.13672 391.605 9.23828L391.559 12.4961ZM398.145 17.207L400.488 9.32031H404.121L399.023 23.9688L398.742 24.6367C397.984 26.293 396.734 27.1211 394.992 27.1211C394.5 27.1211 394 27.0469 393.492 26.8984V24.332L394.008 24.3438C394.648 24.3438 395.125 24.2461 395.438 24.0508C395.758 23.8555 396.008 23.5312 396.188 23.0781L396.586 22.0352L392.145 9.32031H395.789L398.145 17.207Z" transform="translate(44 197)" fill="black"/>
<path d="M80.4065 0.707107C80.7971 0.316583 80.7971 -0.316583 80.4065 -0.707107L74.0426 -7.07107C73.6521 -7.46159 73.0189 -7.46159 72.6284 -7.07107C72.2378 -6.68054 72.2378 -6.04738 72.6284 -5.65685L78.2852 0L72.6284 5.65685C72.2378 6.04738 72.2378 6.68054 72.6284 7.07107C73.0189 7.46159 73.6521 7.46159 74.0426 7.07107L80.4065 0.707107ZM0 1H79.6994V-1H0V1Z" transform="translate(343 23) rotate(107.526)" fill="#009E73"/>
<path d="M120.348 0.707107C120.739 0.316583 120.739 -0.316583 120.348 -0.707107L113.984 -7.07107C113.594 -7.46159 112.961 -7.46159 112.57 -7.07107C112.18 -6.68054 112.18 -6.04738 112.57 -5.65685L118.227 0L112.57 5.65685C112.18 6.04738 112.18 6.68054 112.57 7.07107C112.961 7.46159 113.594 7.46159 113.984 7.07107L120.348 0.707107ZM0 1H119.641V-1H0V1Z" transform="translate(343 22) rotate(77.9387)" fill="#009E73"/>
<path d="M145.293 0.707107C145.683 0.316583 145.683 -0.316583 145.293 -0.707107L138.929 -7.07107C138.538 -7.46159 137.905 -7.46159 137.515 -7.07107C137.124 -6.68054 137.124 -6.04738 137.515 -5.65685L143.171 0L137.515 5.65685C137.124 6.04738 137.124 6.68054 137.515 7.07107C137.905 7.46159 138.538 7.46159 138.929 7.07107L145.293 0.707107ZM0 1H144.586V-1H0V1Z" transform="translate(343 23) rotate(31.7113)" fill="#009E73"/>
<path d="M6.91406 12.0156C6.91406 11.5729 6.75781 11.2344 6.44531 11C6.13281 10.7604 5.57031 10.5104 4.75781 10.25C3.94531 9.98438 3.30208 9.72396 2.82812 9.46875C1.53646 8.77083 0.890625 7.83073 0.890625 6.64844C0.890625 6.03385 1.0625 5.48698 1.40625 5.00781C1.75521 4.52344 2.2526 4.14583 2.89844 3.875C3.54948 3.60417 4.27865 3.46875 5.08594 3.46875C5.89844 3.46875 6.6224 3.61719 7.25781 3.91406C7.89323 4.20573 8.38542 4.61979 8.73438 5.15625C9.08854 5.69271 9.26562 6.30208 9.26562 6.98438H6.92188C6.92188 6.46354 6.75781 6.0599 6.42969 5.77344C6.10156 5.48177 5.64062 5.33594 5.04688 5.33594C4.47396 5.33594 4.02865 5.45833 3.71094 5.70312C3.39323 5.94271 3.23438 6.26042 3.23438 6.65625C3.23438 7.02604 3.41927 7.33594 3.78906 7.58594C4.16406 7.83594 4.71354 8.07031 5.4375 8.28906C6.77083 8.6901 7.74219 9.1875 8.35156 9.78125C8.96094 10.375 9.26562 11.1146 9.26562 12C9.26562 12.9844 8.89323 13.7578 8.14844 14.3203C7.40365 14.8776 6.40104 15.1562 5.14062 15.1562C4.26562 15.1562 3.46875 14.9974 2.75 14.6797C2.03125 14.3568 1.48177 13.9167 1.10156 13.3594C0.726562 12.8021 0.539062 12.1562 0.539062 11.4219H2.89062C2.89062 12.6771 3.64062 13.3047 5.14062 13.3047C5.69792 13.3047 6.13281 13.1927 6.44531 12.9688C6.75781 12.7396 6.91406 12.4219 6.91406 12.0156ZM13.4141 4.46875V6.54688H14.8594V8.20312H13.4141V12.4219C13.4141 12.7344 13.474 12.9583 13.5938 13.0938C13.7135 13.2292 13.9427 13.2969 14.2812 13.2969C14.5312 13.2969 14.7526 13.2786 14.9453 13.2422V14.9531C14.5026 15.0885 14.0469 15.1562 13.5781 15.1562C11.9948 15.1562 11.1875 14.3568 11.1562 12.7578V8.20312H9.92188V6.54688H11.1562V4.46875H13.4141ZM15.5312 10.6953C15.5312 9.85677 15.6927 9.10938 16.0156 8.45312C16.3385 7.79688 16.8021 7.28906 17.4062 6.92969C18.0156 6.57031 18.7214 6.39062 19.5234 6.39062C20.6641 6.39062 21.5938 6.73958 22.3125 7.4375C23.0365 8.13542 23.4401 9.08333 23.5234 10.2812L23.5391 10.8594C23.5391 12.1562 23.1771 13.1979 22.4531 13.9844C21.7292 14.7656 20.7578 15.1562 19.5391 15.1562C18.3203 15.1562 17.3464 14.7656 16.6172 13.9844C15.8932 13.2031 15.5312 12.1406 15.5312 10.7969V10.6953ZM17.7891 10.8594C17.7891 11.6615 17.9401 12.276 18.2422 12.7031C18.5443 13.125 18.9766 13.3359 19.5391 13.3359C20.0859 13.3359 20.513 13.1276 20.8203 12.7109C21.1276 12.2891 21.2812 11.6172 21.2812 10.6953C21.2812 9.90885 21.1276 9.29948 20.8203 8.86719C20.513 8.4349 20.0807 8.21875 19.5234 8.21875C18.9714 8.21875 18.5443 8.4349 18.2422 8.86719C17.9401 9.29427 17.7891 9.95833 17.7891 10.8594ZM29.6797 8.66406C29.3724 8.6224 29.1016 8.60156 28.8672 8.60156C28.013 8.60156 27.4531 8.89062 27.1875 9.46875V15H24.9297V6.54688H27.0625L27.125 7.55469C27.5781 6.77865 28.2057 6.39062 29.0078 6.39062C29.2578 6.39062 29.4922 6.42448 29.7109 6.49219L29.6797 8.66406ZM35.4375 15C35.3333 14.7969 35.2578 14.5443 35.2109 14.2422C34.6641 14.8516 33.9531 15.1562 33.0781 15.1562C32.25 15.1562 31.5625 14.9167 31.0156 14.4375C30.474 13.9583 30.2031 13.3542 30.2031 12.625C30.2031 11.7292 30.5339 11.0417 31.1953 10.5625C31.862 10.0833 32.8229 9.84115 34.0781 9.83594H35.1172V9.35156C35.1172 8.96094 35.0156 8.64844 34.8125 8.41406C34.6146 8.17969 34.2995 8.0625 33.8672 8.0625C33.487 8.0625 33.1875 8.15365 32.9688 8.33594C32.7552 8.51823 32.6484 8.76823 32.6484 9.08594H30.3906C30.3906 8.59635 30.5417 8.14323 30.8438 7.72656C31.1458 7.3099 31.5729 6.98438 32.125 6.75C32.6771 6.51042 33.2969 6.39062 33.9844 6.39062C35.026 6.39062 35.8516 6.65365 36.4609 7.17969C37.0755 7.70052 37.3828 8.4349 37.3828 9.38281V13.0469C37.388 13.849 37.5 14.4557 37.7188 14.8672V15H35.4375ZM33.5703 13.4297C33.9036 13.4297 34.2109 13.3568 34.4922 13.2109C34.7734 13.0599 34.9818 12.8594 35.1172 12.6094V11.1562H34.2734C33.1432 11.1562 32.5417 11.5469 32.4688 12.3281L32.4609 12.4609C32.4609 12.7422 32.5599 12.974 32.7578 13.1562C32.9557 13.3385 33.2266 13.4297 33.5703 13.4297ZM38.7891 10.7109C38.7891 9.41406 39.0964 8.36979 39.7109 7.57812C40.3307 6.78646 41.1641 6.39062 42.2109 6.39062C43.138 6.39062 43.8594 6.70833 44.375 7.34375L44.4688 6.54688H46.5156V14.7188C46.5156 15.4583 46.3464 16.1016 46.0078 16.6484C45.6745 17.1953 45.2031 17.612 44.5938 17.8984C43.9844 18.1849 43.2708 18.3281 42.4531 18.3281C41.8333 18.3281 41.2292 18.2031 40.6406 17.9531C40.0521 17.7083 39.6068 17.3906 39.3047 17L40.3047 15.625C40.8672 16.2552 41.5495 16.5703 42.3516 16.5703C42.9505 16.5703 43.4167 16.4089 43.75 16.0859C44.0833 15.7682 44.25 15.3151 44.25 14.7266V14.2734C43.7292 14.862 43.0443 15.1562 42.1953 15.1562C41.1797 15.1562 40.3568 14.7604 39.7266 13.9688C39.1016 13.1719 38.7891 12.1172 38.7891 10.8047V10.7109ZM41.0469 10.875C41.0469 11.6406 41.2005 12.2422 41.5078 12.6797C41.8151 13.112 42.237 13.3281 42.7734 13.3281C43.4609 13.3281 43.9531 13.0703 44.25 12.5547V9C43.9479 8.48438 43.4609 8.22656 42.7891 8.22656C42.2474 8.22656 41.8203 8.44792 41.5078 8.89062C41.2005 9.33333 41.0469 9.99479 41.0469 10.875ZM52.1484 15.1562C50.9089 15.1562 49.8984 14.776 49.1172 14.0156C48.3411 13.2552 47.9531 12.2422 47.9531 10.9766V10.7578C47.9531 9.90885 48.1172 9.15104 48.4453 8.48438C48.7734 7.8125 49.237 7.29688 49.8359 6.9375C50.4401 6.57292 51.1276 6.39062 51.8984 6.39062C53.0547 6.39062 53.9635 6.75521 54.625 7.48438C55.2917 8.21354 55.625 9.2474 55.625 10.5859V11.5078H50.2422C50.3151 12.0599 50.5339 12.5026 50.8984 12.8359C51.2682 13.1693 51.7344 13.3359 52.2969 13.3359C53.1667 13.3359 53.8464 13.0208 54.3359 12.3906L55.4453 13.6328C55.1068 14.112 54.6484 14.487 54.0703 14.7578C53.4922 15.0234 52.8516 15.1562 52.1484 15.1562ZM51.8906 8.21875C51.4427 8.21875 51.0781 8.36979 50.7969 8.67188C50.5208 8.97396 50.3438 9.40625 50.2656 9.96875H53.4062V9.78906C53.3958 9.28906 53.2604 8.90365 53 8.63281C52.7396 8.35677 52.3698 8.21875 51.8906 8.21875ZM63.2812 15H61.0156V3H63.2812V15ZM64.7969 10.6953C64.7969 9.85677 64.9583 9.10938 65.2812 8.45312C65.6042 7.79688 66.0677 7.28906 66.6719 6.92969C67.2812 6.57031 67.987 6.39062 68.7891 6.39062C69.9297 6.39062 70.8594 6.73958 71.5781 7.4375C72.3021 8.13542 72.7057 9.08333 72.7891 10.2812L72.8047 10.8594C72.8047 12.1562 72.4427 13.1979 71.7188 13.9844C70.9948 14.7656 70.0234 15.1562 68.8047 15.1562C67.5859 15.1562 66.612 14.7656 65.8828 13.9844C65.1589 13.2031 64.7969 12.1406 64.7969 10.7969V10.6953ZM67.0547 10.8594C67.0547 11.6615 67.2057 12.276 67.5078 12.7031C67.8099 13.125 68.2422 13.3359 68.8047 13.3359C69.3516 13.3359 69.7786 13.1276 70.0859 12.7109C70.3932 12.2891 70.5469 11.6172 70.5469 10.6953C70.5469 9.90885 70.3932 9.29948 70.0859 8.86719C69.7786 8.4349 69.3464 8.21875 68.7891 8.21875C68.237 8.21875 67.8099 8.4349 67.5078 8.86719C67.2057 9.29427 67.0547 9.95833 67.0547 10.8594ZM77.7109 13.3359C78.1276 13.3359 78.4661 13.2214 78.7266 12.9922C78.987 12.763 79.1224 12.4583 79.1328 12.0781H81.25C81.2448 12.651 81.0885 13.1771 80.7812 13.6562C80.474 14.1302 80.0521 14.5 79.5156 14.7656C78.9844 15.026 78.3958 15.1562 77.75 15.1562C76.5417 15.1562 75.5885 14.7734 74.8906 14.0078C74.1927 13.237 73.8438 12.1745 73.8438 10.8203V10.6719C73.8438 9.36979 74.1901 8.33073 74.8828 7.55469C75.5755 6.77865 76.526 6.39062 77.7344 6.39062C78.7917 6.39062 79.638 6.69271 80.2734 7.29688C80.9141 7.89583 81.2396 8.69531 81.25 9.69531H79.1328C79.1224 9.25781 78.987 8.90365 78.7266 8.63281C78.4661 8.35677 78.1224 8.21875 77.6953 8.21875C77.1693 8.21875 76.7708 8.41146 76.5 8.79688C76.2344 9.17708 76.1016 9.79688 76.1016 10.6562V10.8906C76.1016 11.7604 76.2344 12.3854 76.5 12.7656C76.7656 13.1458 77.1693 13.3359 77.7109 13.3359ZM87.4375 15C87.3333 14.7969 87.2578 14.5443 87.2109 14.2422C86.6641 14.8516 85.9531 15.1562 85.0781 15.1562C84.25 15.1562 83.5625 14.9167 83.0156 14.4375C82.474 13.9583 82.2031 13.3542 82.2031 12.625C82.2031 11.7292 82.5339 11.0417 83.1953 10.5625C83.862 10.0833 84.8229 9.84115 86.0781 9.83594H87.1172V9.35156C87.1172 8.96094 87.0156 8.64844 86.8125 8.41406C86.6146 8.17969 86.2995 8.0625 85.8672 8.0625C85.487 8.0625 85.1875 8.15365 84.9688 8.33594C84.7552 8.51823 84.6484 8.76823 84.6484 9.08594H82.3906C82.3906 8.59635 82.5417 8.14323 82.8438 7.72656C83.1458 7.3099 83.5729 6.98438 84.125 6.75C84.6771 6.51042 85.2969 6.39062 85.9844 6.39062C87.026 6.39062 87.8516 6.65365 88.4609 7.17969C89.0755 7.70052 89.3828 8.4349 89.3828 9.38281V13.0469C89.388 13.849 89.5 14.4557 89.7188 14.8672V15H87.4375ZM85.5703 13.4297C85.9036 13.4297 86.2109 13.3568 86.4922 13.2109C86.7734 13.0599 86.9818 12.8594 87.1172 12.6094V11.1562H86.2734C85.1432 11.1562 84.5417 11.5469 84.4688 12.3281L84.4609 12.4609C84.4609 12.7422 84.5599 12.974 84.7578 13.1562C84.9557 13.3385 85.2266 13.4297 85.5703 13.4297ZM93.8203 4.46875V6.54688H95.2656V8.20312H93.8203V12.4219C93.8203 12.7344 93.8802 12.9583 94 13.0938C94.1198 13.2292 94.349 13.2969 94.6875 13.2969C94.9375 13.2969 95.1589 13.2786 95.3516 13.2422V14.9531C94.9089 15.0885 94.4531 15.1562 93.9844 15.1562C92.401 15.1562 91.5938 14.3568 91.5625 12.7578V8.20312H90.3281V6.54688H91.5625V4.46875H93.8203ZM98.9062 15H96.6406V6.54688H98.9062V15ZM96.5078 4.35938C96.5078 4.02083 96.6198 3.74219 96.8438 3.52344C97.0729 3.30469 97.3828 3.19531 97.7734 3.19531C98.1589 3.19531 98.4661 3.30469 98.6953 3.52344C98.9245 3.74219 99.0391 4.02083 99.0391 4.35938C99.0391 4.70312 98.9219 4.98438 98.6875 5.20312C98.4583 5.42188 98.1536 5.53125 97.7734 5.53125C97.3932 5.53125 97.0859 5.42188 96.8516 5.20312C96.6224 4.98438 96.5078 4.70312 96.5078 4.35938ZM100.422 10.6953C100.422 9.85677 100.583 9.10938 100.906 8.45312C101.229 7.79688 101.693 7.28906 102.297 6.92969C102.906 6.57031 103.612 6.39062 104.414 6.39062C105.555 6.39062 106.484 6.73958 107.203 7.4375C107.927 8.13542 108.331 9.08333 108.414 10.2812L108.43 10.8594C108.43 12.1562 108.068 13.1979 107.344 13.9844C106.62 14.7656 105.648 15.1562 104.43 15.1562C103.211 15.1562 102.237 14.7656 101.508 13.9844C100.784 13.2031 100.422 12.1406 100.422 10.7969V10.6953ZM102.68 10.8594C102.68 11.6615 102.831 12.276 103.133 12.7031C103.435 13.125 103.867 13.3359 104.43 13.3359C104.977 13.3359 105.404 13.1276 105.711 12.7109C106.018 12.2891 106.172 11.6172 106.172 10.6953C106.172 9.90885 106.018 9.29948 105.711 8.86719C105.404 8.4349 104.971 8.21875 104.414 8.21875C103.862 8.21875 103.435 8.4349 103.133 8.86719C102.831 9.29427 102.68 9.95833 102.68 10.8594ZM111.898 6.54688L111.969 7.52344C112.573 6.76823 113.383 6.39062 114.398 6.39062C115.294 6.39062 115.961 6.65365 116.398 7.17969C116.836 7.70573 117.06 8.49219 117.07 9.53906V15H114.812V9.59375C114.812 9.11458 114.708 8.76823 114.5 8.55469C114.292 8.33594 113.945 8.22656 113.461 8.22656C112.826 8.22656 112.349 8.4974 112.031 9.03906V15H109.773V6.54688H111.898ZM123.367 12.6641C123.367 12.388 123.229 12.1719 122.953 12.0156C122.682 11.8542 122.245 11.7109 121.641 11.5859C119.63 11.1641 118.625 10.3099 118.625 9.02344C118.625 8.27344 118.935 7.64844 119.555 7.14844C120.18 6.64323 120.995 6.39062 122 6.39062C123.073 6.39062 123.93 6.64323 124.57 7.14844C125.216 7.65365 125.539 8.3099 125.539 9.11719H123.281C123.281 8.79427 123.177 8.52865 122.969 8.32031C122.76 8.10677 122.435 8 121.992 8C121.612 8 121.318 8.08594 121.109 8.25781C120.901 8.42969 120.797 8.64844 120.797 8.91406C120.797 9.16406 120.914 9.36719 121.148 9.52344C121.388 9.67448 121.789 9.80729 122.352 9.92188C122.914 10.0312 123.388 10.1562 123.773 10.2969C124.966 10.7344 125.562 11.4922 125.562 12.5703C125.562 13.3411 125.232 13.9661 124.57 14.4453C123.909 14.9193 123.055 15.1562 122.008 15.1562C121.299 15.1562 120.669 15.0312 120.117 14.7812C119.57 14.526 119.141 14.1797 118.828 13.7422C118.516 13.2995 118.359 12.8229 118.359 12.3125H120.5C120.521 12.7135 120.669 13.0208 120.945 13.2344C121.221 13.4479 121.591 13.5547 122.055 13.5547C122.487 13.5547 122.812 13.474 123.031 13.3125C123.255 13.1458 123.367 12.9297 123.367 12.6641Z" transform="translate(281 -1)" fill="#009E73"/>
<path d="M4.91504 7.45605C4.64616 7.4196 4.40918 7.40137 4.2041 7.40137C3.45671 7.40137 2.9668 7.6543 2.73438 8.16016V13H0.758789V5.60352H2.625L2.67969 6.48535C3.07617 5.80632 3.62533 5.4668 4.32715 5.4668C4.5459 5.4668 4.75098 5.49642 4.94238 5.55566L4.91504 7.45605ZM9.13965 13.1367C8.05501 13.1367 7.1709 12.804 6.4873 12.1387C5.80827 11.4733 5.46875 10.5869 5.46875 9.47949V9.28809C5.46875 8.54525 5.6123 7.88216 5.89941 7.29883C6.18652 6.71094 6.59212 6.25977 7.11621 5.94531C7.64486 5.6263 8.24642 5.4668 8.9209 5.4668C9.93262 5.4668 10.7279 5.78581 11.3066 6.42383C11.89 7.06185 12.1816 7.96647 12.1816 9.1377V9.94434H7.47168C7.53548 10.4274 7.72689 10.8148 8.0459 11.1064C8.36947 11.3981 8.77734 11.5439 9.26953 11.5439C10.0306 11.5439 10.6253 11.2682 11.0537 10.7168L12.0244 11.8037C11.7282 12.223 11.3271 12.5511 10.8213 12.7881C10.3154 13.0205 9.75488 13.1367 9.13965 13.1367ZM8.91406 7.06641C8.52214 7.06641 8.20312 7.19857 7.95703 7.46289C7.71549 7.72721 7.56055 8.10547 7.49219 8.59766H10.2402V8.44043C10.2311 8.00293 10.1126 7.66569 9.88477 7.42871C9.6569 7.18717 9.33333 7.06641 8.91406 7.06641ZM17.3154 10.9561C17.3154 10.7145 17.1947 10.5254 16.9531 10.3887C16.7161 10.2474 16.3333 10.1221 15.8047 10.0127C14.0456 9.64355 13.166 8.89616 13.166 7.77051C13.166 7.11426 13.4372 6.56738 13.9795 6.12988C14.5264 5.68783 15.2396 5.4668 16.1191 5.4668C17.0579 5.4668 17.8076 5.68783 18.3682 6.12988C18.9333 6.57194 19.2158 7.14616 19.2158 7.85254H17.2402C17.2402 7.56999 17.1491 7.33757 16.9668 7.15527C16.7845 6.96842 16.4997 6.875 16.1123 6.875C15.7796 6.875 15.5221 6.9502 15.3398 7.10059C15.1576 7.25098 15.0664 7.44238 15.0664 7.6748C15.0664 7.89355 15.1689 8.07129 15.374 8.20801C15.5837 8.34017 15.9346 8.45638 16.4268 8.55664C16.9189 8.65234 17.3337 8.76172 17.6709 8.88477C18.7145 9.26758 19.2363 9.93066 19.2363 10.874C19.2363 11.5485 18.9469 12.0954 18.3682 12.5146C17.7894 12.9294 17.042 13.1367 16.126 13.1367C15.5062 13.1367 14.9548 13.0273 14.4717 12.8086C13.9932 12.5853 13.6172 12.2822 13.3438 11.8994C13.0703 11.512 12.9336 11.0951 12.9336 10.6484H14.8066C14.8249 10.9993 14.9548 11.2682 15.1963 11.4551C15.4378 11.6419 15.7614 11.7354 16.167 11.7354C16.5452 11.7354 16.8301 11.6647 17.0215 11.5234C17.2174 11.3776 17.3154 11.1885 17.3154 10.9561ZM24.9443 12.248C24.4567 12.8405 23.7822 13.1367 22.9209 13.1367C22.1279 13.1367 21.5218 12.9089 21.1025 12.4531C20.6878 11.9974 20.4759 11.3298 20.4668 10.4502V5.60352H22.4424V10.3818C22.4424 11.152 22.7933 11.5371 23.4951 11.5371C24.165 11.5371 24.6253 11.3047 24.876 10.8398V5.60352H26.8584V13H24.999L24.9443 12.248ZM30.4336 13H28.4512V2.5H30.4336V13ZM34.4326 3.78516V5.60352H35.6973V7.05273H34.4326V10.7441C34.4326 11.0176 34.485 11.2135 34.5898 11.332C34.6947 11.4505 34.8952 11.5098 35.1914 11.5098C35.4102 11.5098 35.6038 11.4938 35.7725 11.4619V12.959C35.3851 13.0775 34.9863 13.1367 34.5762 13.1367C33.1908 13.1367 32.4844 12.4372 32.457 11.0381V7.05273H31.377V5.60352H32.457V3.78516H34.4326Z" transform="translate(7 96)" fill="#0072B2"/>
<path d="M58.022 0.707107C58.4125 0.316583 58.4125 -0.316583 58.022 -0.707107L51.6581 -7.07107C51.2675 -7.46159 50.6344 -7.46159 50.2439 -7.07107C49.8533 -6.68054 49.8533 -6.04738 50.2439 -5.65685L55.9007 0L50.2439 5.65685C49.8533 6.04738 49.8533 6.68054 50.2439 7.07107C50.6344 7.46159 51.2675 7.46159 51.6581 7.07107L58.022 0.707107ZM0 1H57.3149V-1H0V1Z" transform="translate(74 35) rotate(132.879)" fill="black"/>
<rect width="20" height="17" transform="translate(64)" fill="#CC79A7" fill-opacity="0.3"/>
<rect width="20" height="17" transform="translate(15 78)" fill="#CC79A7" fill-opacity="0.3"/>
<path d="M9.03906 15H1.24219V13.4531L4.92188 9.53125C5.42708 8.97917 5.79948 8.4974 6.03906 8.08594C6.28385 7.67448 6.40625 7.28385 6.40625 6.91406C6.40625 6.40885 6.27865 6.01302 6.02344 5.72656C5.76823 5.4349 5.40365 5.28906 4.92969 5.28906C4.41927 5.28906 4.01562 5.46615 3.71875 5.82031C3.42708 6.16927 3.28125 6.63021 3.28125 7.20312H1.01562C1.01562 6.51042 1.17969 5.8776 1.50781 5.30469C1.84115 4.73177 2.3099 4.28385 2.91406 3.96094C3.51823 3.63281 4.20312 3.46875 4.96875 3.46875C6.14062 3.46875 7.04948 3.75 7.69531 4.3125C8.34635 4.875 8.67188 5.66927 8.67188 6.69531C8.67188 7.25781 8.52604 7.83073 8.23438 8.41406C7.94271 8.9974 7.44271 9.67708 6.73438 10.4531L4.14844 13.1797H9.03906V15ZM18.0859 10.2969C18.0859 11.8698 17.7604 13.0729 17.1094 13.9062C16.4583 14.7396 15.5052 15.1562 14.25 15.1562C13.0104 15.1562 12.0625 14.7474 11.4062 13.9297C10.75 13.112 10.4141 11.9401 10.3984 10.4141V8.32031C10.3984 6.73177 10.7266 5.52604 11.3828 4.70312C12.0443 3.88021 12.9948 3.46875 14.2344 3.46875C15.474 3.46875 16.4219 3.8776 17.0781 4.69531C17.7344 5.50781 18.0703 6.67708 18.0859 8.20312V10.2969ZM15.8281 8C15.8281 7.05729 15.6979 6.3724 15.4375 5.94531C15.1823 5.51302 14.7812 5.29688 14.2344 5.29688C13.7031 5.29688 13.3099 5.5026 13.0547 5.91406C12.8047 6.32031 12.6719 6.95833 12.6562 7.82812V10.5938C12.6562 11.5208 12.7812 12.2109 13.0312 12.6641C13.2865 13.112 13.6927 13.3359 14.25 13.3359C14.8021 13.3359 15.2005 13.1198 15.4453 12.6875C15.6901 12.2552 15.8177 11.5938 15.8281 10.7031V8Z" transform="translate(64 -1)" fill="#EB5757"/>
<path d="M31.0469 11.9297L32.1562 6.54688H34.3359L32.1797 15H30.2891L28.6875 9.67969L27.0859 15H25.2031L23.0469 6.54688H25.2266L26.3281 11.9219L27.875 6.54688H29.5078L31.0469 11.9297ZM40.3594 15C40.2552 14.7969 40.1797 14.5443 40.1328 14.2422C39.5859 14.8516 38.875 15.1562 38 15.1562C37.1719 15.1562 36.4844 14.9167 35.9375 14.4375C35.3958 13.9583 35.125 13.3542 35.125 12.625C35.125 11.7292 35.4557 11.0417 36.1172 10.5625C36.7839 10.0833 37.7448 9.84115 39 9.83594H40.0391V9.35156C40.0391 8.96094 39.9375 8.64844 39.7344 8.41406C39.5365 8.17969 39.2214 8.0625 38.7891 8.0625C38.4089 8.0625 38.1094 8.15365 37.8906 8.33594C37.6771 8.51823 37.5703 8.76823 37.5703 9.08594H35.3125C35.3125 8.59635 35.4635 8.14323 35.7656 7.72656C36.0677 7.3099 36.4948 6.98438 37.0469 6.75C37.599 6.51042 38.2188 6.39062 38.9062 6.39062C39.9479 6.39062 40.7734 6.65365 41.3828 7.17969C41.9974 7.70052 42.3047 8.4349 42.3047 9.38281V13.0469C42.3099 13.849 42.4219 14.4557 42.6406 14.8672V15H40.3594ZM38.4922 13.4297C38.8255 13.4297 39.1328 13.3568 39.4141 13.2109C39.6953 13.0599 39.9036 12.8594 40.0391 12.6094V11.1562H39.1953C38.0651 11.1562 37.4635 11.5469 37.3906 12.3281L37.3828 12.4609C37.3828 12.7422 37.4818 12.974 37.6797 13.1562C37.8776 13.3385 38.1484 13.4297 38.4922 13.4297ZM48.6172 12.6641C48.6172 12.388 48.4792 12.1719 48.2031 12.0156C47.9323 11.8542 47.4948 11.7109 46.8906 11.5859C44.8802 11.1641 43.875 10.3099 43.875 9.02344C43.875 8.27344 44.1849 7.64844 44.8047 7.14844C45.4297 6.64323 46.2448 6.39062 47.25 6.39062C48.3229 6.39062 49.1797 6.64323 49.8203 7.14844C50.4661 7.65365 50.7891 8.3099 50.7891 9.11719H48.5312C48.5312 8.79427 48.4271 8.52865 48.2188 8.32031C48.0104 8.10677 47.6849 8 47.2422 8C46.862 8 46.5677 8.08594 46.3594 8.25781C46.151 8.42969 46.0469 8.64844 46.0469 8.91406C46.0469 9.16406 46.1641 9.36719 46.3984 9.52344C46.638 9.67448 47.0391 9.80729 47.6016 9.92188C48.1641 10.0312 48.638 10.1562 49.0234 10.2969C50.2161 10.7344 50.8125 11.4922 50.8125 12.5703C50.8125 13.3411 50.4818 13.9661 49.8203 14.4453C49.1589 14.9193 48.3047 15.1562 47.2578 15.1562C46.5495 15.1562 45.9193 15.0312 45.3672 14.7812C44.8203 14.526 44.3906 14.1797 44.0781 13.7422C43.7656 13.2995 43.6094 12.8229 43.6094 12.3125H45.75C45.7708 12.7135 45.9193 13.0208 46.1953 13.2344C46.4714 13.4479 46.8411 13.5547 47.3047 13.5547C47.737 13.5547 48.0625 13.474 48.2812 13.3125C48.5052 13.1458 48.6172 12.9297 48.6172 12.6641ZM60.8359 12.6641C60.8359 12.388 60.6979 12.1719 60.4219 12.0156C60.151 11.8542 59.7135 11.7109 59.1094 11.5859C57.099 11.1641 56.0938 10.3099 56.0938 9.02344C56.0938 8.27344 56.4036 7.64844 57.0234 7.14844C57.6484 6.64323 58.4635 6.39062 59.4688 6.39062C60.5417 6.39062 61.3984 6.64323 62.0391 7.14844C62.6849 7.65365 63.0078 8.3099 63.0078 9.11719H60.75C60.75 8.79427 60.6458 8.52865 60.4375 8.32031C60.2292 8.10677 59.9036 8 59.4609 8C59.0807 8 58.7865 8.08594 58.5781 8.25781C58.3698 8.42969 58.2656 8.64844 58.2656 8.91406C58.2656 9.16406 58.3828 9.36719 58.6172 9.52344C58.8568 9.67448 59.2578 9.80729 59.8203 9.92188C60.3828 10.0312 60.8568 10.1562 61.2422 10.2969C62.4349 10.7344 63.0312 11.4922 63.0312 12.5703C63.0312 13.3411 62.7005 13.9661 62.0391 14.4453C61.3776 14.9193 60.5234 15.1562 59.4766 15.1562C58.7682 15.1562 58.138 15.0312 57.5859 14.7812C57.0391 14.526 56.6094 14.1797 56.2969 13.7422C55.9844 13.2995 55.8281 12.8229 55.8281 12.3125H57.9688C57.9896 12.7135 58.138 13.0208 58.4141 13.2344C58.6901 13.4479 59.0599 13.5547 59.5234 13.5547C59.9557 13.5547 60.2812 13.474 60.5 13.3125C60.724 13.1458 60.8359 12.9297 60.8359 12.6641ZM69.3906 15C69.2865 14.7969 69.2109 14.5443 69.1641 14.2422C68.6172 14.8516 67.9062 15.1562 67.0312 15.1562C66.2031 15.1562 65.5156 14.9167 64.9688 14.4375C64.4271 13.9583 64.1562 13.3542 64.1562 12.625C64.1562 11.7292 64.487 11.0417 65.1484 10.5625C65.8151 10.0833 66.776 9.84115 68.0312 9.83594H69.0703V9.35156C69.0703 8.96094 68.9688 8.64844 68.7656 8.41406C68.5677 8.17969 68.2526 8.0625 67.8203 8.0625C67.4401 8.0625 67.1406 8.15365 66.9219 8.33594C66.7083 8.51823 66.6016 8.76823 66.6016 9.08594H64.3438C64.3438 8.59635 64.4948 8.14323 64.7969 7.72656C65.099 7.3099 65.526 6.98438 66.0781 6.75C66.6302 6.51042 67.25 6.39062 67.9375 6.39062C68.9792 6.39062 69.8047 6.65365 70.4141 7.17969C71.0286 7.70052 71.3359 8.4349 71.3359 9.38281V13.0469C71.3411 13.849 71.4531 14.4557 71.6719 14.8672V15H69.3906ZM67.5234 13.4297C67.8568 13.4297 68.1641 13.3568 68.4453 13.2109C68.7266 13.0599 68.9349 12.8594 69.0703 12.6094V11.1562H68.2266C67.0964 11.1562 66.4948 11.5469 66.4219 12.3281L66.4141 12.4609C66.4141 12.7422 66.513 12.974 66.7109 13.1562C66.9089 13.3385 67.1797 13.4297 67.5234 13.4297ZM76.1094 12.2422L77.6797 6.54688H80.0391L77.1875 15H75.0312L72.1797 6.54688H74.5391L76.1094 12.2422ZM84.8203 15.1562C83.5807 15.1562 82.5703 14.776 81.7891 14.0156C81.013 13.2552 80.625 12.2422 80.625 10.9766V10.7578C80.625 9.90885 80.7891 9.15104 81.1172 8.48438C81.4453 7.8125 81.9089 7.29688 82.5078 6.9375C83.112 6.57292 83.7995 6.39062 84.5703 6.39062C85.7266 6.39062 86.6354 6.75521 87.2969 7.48438C87.9635 8.21354 88.2969 9.2474 88.2969 10.5859V11.5078H82.9141C82.987 12.0599 83.2057 12.5026 83.5703 12.8359C83.9401 13.1693 84.4062 13.3359 84.9688 13.3359C85.8385 13.3359 86.5182 13.0208 87.0078 12.3906L88.1172 13.6328C87.7786 14.112 87.3203 14.487 86.7422 14.7578C86.1641 15.0234 85.5234 15.1562 84.8203 15.1562ZM84.5625 8.21875C84.1146 8.21875 83.75 8.36979 83.4688 8.67188C83.1927 8.97396 83.0156 9.40625 82.9375 9.96875H86.0781V9.78906C86.0677 9.28906 85.9323 8.90365 85.6719 8.63281C85.4115 8.35677 85.0417 8.21875 84.5625 8.21875ZM89.2344 10.7109C89.2344 9.39323 89.5286 8.34375 90.1172 7.5625C90.7109 6.78125 91.5208 6.39062 92.5469 6.39062C93.3698 6.39062 94.0495 6.69792 94.5859 7.3125V3H96.8516V15H94.8125L94.7031 14.1016C94.1406 14.8047 93.4167 15.1562 92.5312 15.1562C91.5365 15.1562 90.737 14.7656 90.1328 13.9844C89.5339 13.1979 89.2344 12.1068 89.2344 10.7109ZM91.4922 10.875C91.4922 11.6667 91.6302 12.2734 91.9062 12.6953C92.1823 13.1172 92.5833 13.3281 93.1094 13.3281C93.8073 13.3281 94.2995 13.0339 94.5859 12.4453V9.10938C94.3047 8.52083 93.8177 8.22656 93.125 8.22656C92.0365 8.22656 91.4922 9.10938 91.4922 10.875ZM107.484 15C107.38 14.7969 107.305 14.5443 107.258 14.2422C106.711 14.8516 106 15.1562 105.125 15.1562C104.297 15.1562 103.609 14.9167 103.062 14.4375C102.521 13.9583 102.25 13.3542 102.25 12.625C102.25 11.7292 102.581 11.0417 103.242 10.5625C103.909 10.0833 104.87 9.84115 106.125 9.83594H107.164V9.35156C107.164 8.96094 107.062 8.64844 106.859 8.41406C106.661 8.17969 106.346 8.0625 105.914 8.0625C105.534 8.0625 105.234 8.15365 105.016 8.33594C104.802 8.51823 104.695 8.76823 104.695 9.08594H102.438C102.438 8.59635 102.589 8.14323 102.891 7.72656C103.193 7.3099 103.62 6.98438 104.172 6.75C104.724 6.51042 105.344 6.39062 106.031 6.39062C107.073 6.39062 107.898 6.65365 108.508 7.17969C109.122 7.70052 109.43 8.4349 109.43 9.38281V13.0469C109.435 13.849 109.547 14.4557 109.766 14.8672V15H107.484ZM105.617 13.4297C105.951 13.4297 106.258 13.3568 106.539 13.2109C106.82 13.0599 107.029 12.8594 107.164 12.6094V11.1562H106.32C105.19 11.1562 104.589 11.5469 104.516 12.3281L104.508 12.4609C104.508 12.7422 104.607 12.974 104.805 13.1562C105.003 13.3385 105.273 13.4297 105.617 13.4297ZM113.867 4.46875V6.54688H115.312V8.20312H113.867V12.4219C113.867 12.7344 113.927 12.9583 114.047 13.0938C114.167 13.2292 114.396 13.2969 114.734 13.2969C114.984 13.2969 115.206 13.2786 115.398 13.2422V14.9531C114.956 15.0885 114.5 15.1562 114.031 15.1562C112.448 15.1562 111.641 14.3568 111.609 12.7578V8.20312H110.375V6.54688H111.609V4.46875H113.867ZM123.258 4.46875V6.54688H124.703V8.20312H123.258V12.4219C123.258 12.7344 123.318 12.9583 123.438 13.0938C123.557 13.2292 123.786 13.2969 124.125 13.2969C124.375 13.2969 124.596 13.2786 124.789 13.2422V14.9531C124.346 15.0885 123.891 15.1562 123.422 15.1562C121.839 15.1562 121.031 14.3568 121 12.7578V8.20312H119.766V6.54688H121V4.46875H123.258ZM128.164 7.46875C128.763 6.75 129.516 6.39062 130.422 6.39062C132.255 6.39062 133.185 7.45573 133.211 9.58594V15H130.953V9.64844C130.953 9.16406 130.849 8.80729 130.641 8.57812C130.432 8.34375 130.086 8.22656 129.602 8.22656C128.94 8.22656 128.461 8.48177 128.164 8.99219V15H125.906V3H128.164V7.46875ZM137.297 15H135.031V6.54688H137.297V15ZM134.898 4.35938C134.898 4.02083 135.01 3.74219 135.234 3.52344C135.464 3.30469 135.773 3.19531 136.164 3.19531C136.549 3.19531 136.857 3.30469 137.086 3.52344C137.315 3.74219 137.43 4.02083 137.43 4.35938C137.43 4.70312 137.312 4.98438 137.078 5.20312C136.849 5.42188 136.544 5.53125 136.164 5.53125C135.784 5.53125 135.477 5.42188 135.242 5.20312C135.013 4.98438 134.898 4.70312 134.898 4.35938ZM143.742 12.6641C143.742 12.388 143.604 12.1719 143.328 12.0156C143.057 11.8542 142.62 11.7109 142.016 11.5859C140.005 11.1641 139 10.3099 139 9.02344C139 8.27344 139.31 7.64844 139.93 7.14844C140.555 6.64323 141.37 6.39062 142.375 6.39062C143.448 6.39062 144.305 6.64323 144.945 7.14844C145.591 7.65365 145.914 8.3099 145.914 9.11719H143.656C143.656 8.79427 143.552 8.52865 143.344 8.32031C143.135 8.10677 142.81 8 142.367 8C141.987 8 141.693 8.08594 141.484 8.25781C141.276 8.42969 141.172 8.64844 141.172 8.91406C141.172 9.16406 141.289 9.36719 141.523 9.52344C141.763 9.67448 142.164 9.80729 142.727 9.92188C143.289 10.0312 143.763 10.1562 144.148 10.2969C145.341 10.7344 145.938 11.4922 145.938 12.5703C145.938 13.3411 145.607 13.9661 144.945 14.4453C144.284 14.9193 143.43 15.1562 142.383 15.1562C141.674 15.1562 141.044 15.0312 140.492 14.7812C139.945 14.526 139.516 14.1797 139.203 13.7422C138.891 13.2995 138.734 12.8229 138.734 12.3125H140.875C140.896 12.7135 141.044 13.0208 141.32 13.2344C141.596 13.4479 141.966 13.5547 142.43 13.5547C142.862 13.5547 143.188 13.474 143.406 13.3125C143.63 13.1458 143.742 12.9297 143.742 12.6641ZM20.7891 31.6641C20.7891 31.388 20.651 31.1719 20.375 31.0156C20.1042 30.8542 19.6667 30.7109 19.0625 30.5859C17.0521 30.1641 16.0469 29.3099 16.0469 28.0234C16.0469 27.2734 16.3568 26.6484 16.9766 26.1484C17.6016 25.6432 18.4167 25.3906 19.4219 25.3906C20.4948 25.3906 21.3516 25.6432 21.9922 26.1484C22.638 26.6536 22.9609 27.3099 22.9609 28.1172H20.7031C20.7031 27.7943 20.599 27.5286 20.3906 27.3203C20.1823 27.1068 19.8568 27 19.4141 27C19.0339 27 18.7396 27.0859 18.5312 27.2578C18.3229 27.4297 18.2188 27.6484 18.2188 27.9141C18.2188 28.1641 18.3359 28.3672 18.5703 28.5234C18.8099 28.6745 19.2109 28.8073 19.7734 28.9219C20.3359 29.0312 20.8099 29.1562 21.1953 29.2969C22.388 29.7344 22.9844 30.4922 22.9844 31.5703C22.9844 32.3411 22.6536 32.9661 21.9922 33.4453C21.3307 33.9193 20.4766 34.1562 19.4297 34.1562C18.7214 34.1562 18.0911 34.0312 17.5391 33.7812C16.9922 33.526 16.5625 33.1797 16.25 32.7422C15.9375 32.2995 15.7812 31.8229 15.7812 31.3125H17.9219C17.9427 31.7135 18.0911 32.0208 18.3672 32.2344C18.6432 32.4479 19.013 32.5547 19.4766 32.5547C19.9089 32.5547 20.2344 32.474 20.4531 32.3125C20.6771 32.1458 20.7891 31.9297 20.7891 31.6641ZM27.1484 23.4688V25.5469H28.5938V27.2031H27.1484V31.4219C27.1484 31.7344 27.2083 31.9583 27.3281 32.0938C27.4479 32.2292 27.6771 32.2969 28.0156 32.2969C28.2656 32.2969 28.487 32.2786 28.6797 32.2422V33.9531C28.237 34.0885 27.7812 34.1562 27.3125 34.1562C25.7292 34.1562 24.9219 33.3568 24.8906 31.7578V27.2031H23.6562V25.5469H24.8906V23.4688H27.1484ZM29.2656 29.6953C29.2656 28.8568 29.4271 28.1094 29.75 27.4531C30.0729 26.7969 30.5365 26.2891 31.1406 25.9297C31.75 25.5703 32.4557 25.3906 33.2578 25.3906C34.3984 25.3906 35.3281 25.7396 36.0469 26.4375C36.7708 27.1354 37.1745 28.0833 37.2578 29.2812L37.2734 29.8594C37.2734 31.1562 36.9115 32.1979 36.1875 32.9844C35.4635 33.7656 34.4922 34.1562 33.2734 34.1562C32.0547 34.1562 31.0807 33.7656 30.3516 32.9844C29.6276 32.2031 29.2656 31.1406 29.2656 29.7969V29.6953ZM31.5234 29.8594C31.5234 30.6615 31.6745 31.276 31.9766 31.7031C32.2786 32.125 32.7109 32.3359 33.2734 32.3359C33.8203 32.3359 34.2474 32.1276 34.5547 31.7109C34.862 31.2891 35.0156 30.6172 35.0156 29.6953C35.0156 28.9089 34.862 28.2995 34.5547 27.8672C34.2474 27.4349 33.8151 27.2188 33.2578 27.2188C32.7057 27.2188 32.2786 27.4349 31.9766 27.8672C31.6745 28.2943 31.5234 28.9583 31.5234 29.8594ZM43.4141 27.6641C43.1068 27.6224 42.8359 27.6016 42.6016 27.6016C41.7474 27.6016 41.1875 27.8906 40.9219 28.4688V34H38.6641V25.5469H40.7969L40.8594 26.5547C41.3125 25.7786 41.9401 25.3906 42.7422 25.3906C42.9922 25.3906 43.2266 25.4245 43.4453 25.4922L43.4141 27.6641ZM49.1719 34C49.0677 33.7969 48.9922 33.5443 48.9453 33.2422C48.3984 33.8516 47.6875 34.1562 46.8125 34.1562C45.9844 34.1562 45.2969 33.9167 44.75 33.4375C44.2083 32.9583 43.9375 32.3542 43.9375 31.625C43.9375 30.7292 44.2682 30.0417 44.9297 29.5625C45.5964 29.0833 46.5573 28.8411 47.8125 28.8359H48.8516V28.3516C48.8516 27.9609 48.75 27.6484 48.5469 27.4141C48.349 27.1797 48.0339 27.0625 47.6016 27.0625C47.2214 27.0625 46.9219 27.1536 46.7031 27.3359C46.4896 27.5182 46.3828 27.7682 46.3828 28.0859H44.125C44.125 27.5964 44.276 27.1432 44.5781 26.7266C44.8802 26.3099 45.3073 25.9844 45.8594 25.75C46.4115 25.5104 47.0312 25.3906 47.7188 25.3906C48.7604 25.3906 49.5859 25.6536 50.1953 26.1797C50.8099 26.7005 51.1172 27.4349 51.1172 28.3828V32.0469C51.1224 32.849 51.2344 33.4557 51.4531 33.8672V34H49.1719ZM47.3047 32.4297C47.638 32.4297 47.9453 32.3568 48.2266 32.2109C48.5078 32.0599 48.7161 31.8594 48.8516 31.6094V30.1562H48.0078C46.8776 30.1562 46.276 30.5469 46.2031 31.3281L46.1953 31.4609C46.1953 31.7422 46.2943 31.974 46.4922 32.1562C46.6901 32.3385 46.9609 32.4297 47.3047 32.4297ZM52.5234 29.7109C52.5234 28.4141 52.8307 27.3698 53.4453 26.5781C54.0651 25.7865 54.8984 25.3906 55.9453 25.3906C56.8724 25.3906 57.5938 25.7083 58.1094 26.3438L58.2031 25.5469H60.25V33.7188C60.25 34.4583 60.0807 35.1016 59.7422 35.6484C59.4089 36.1953 58.9375 36.612 58.3281 36.8984C57.7188 37.1849 57.0052 37.3281 56.1875 37.3281C55.5677 37.3281 54.9635 37.2031 54.375 36.9531C53.7865 36.7083 53.3411 36.3906 53.0391 36L54.0391 34.625C54.6016 35.2552 55.2839 35.5703 56.0859 35.5703C56.6849 35.5703 57.151 35.4089 57.4844 35.0859C57.8177 34.7682 57.9844 34.3151 57.9844 33.7266V33.2734C57.4635 33.862 56.7786 34.1562 55.9297 34.1562C54.9141 34.1562 54.0911 33.7604 53.4609 32.9688C52.8359 32.1719 52.5234 31.1172 52.5234 29.8047V29.7109ZM54.7812 29.875C54.7812 30.6406 54.9349 31.2422 55.2422 31.6797C55.5495 32.112 55.9714 32.3281 56.5078 32.3281C57.1953 32.3281 57.6875 32.0703 57.9844 31.5547V28C57.6823 27.4844 57.1953 27.2266 56.5234 27.2266C55.9818 27.2266 55.5547 27.4479 55.2422 27.8906C54.9349 28.3333 54.7812 28.9948 54.7812 29.875ZM65.8828 34.1562C64.6432 34.1562 63.6328 33.776 62.8516 33.0156C62.0755 32.2552 61.6875 31.2422 61.6875 29.9766V29.7578C61.6875 28.9089 61.8516 28.151 62.1797 27.4844C62.5078 26.8125 62.9714 26.2969 63.5703 25.9375C64.1745 25.5729 64.862 25.3906 65.6328 25.3906C66.7891 25.3906 67.6979 25.7552 68.3594 26.4844C69.026 27.2135 69.3594 28.2474 69.3594 29.5859V30.5078H63.9766C64.0495 31.0599 64.2682 31.5026 64.6328 31.8359C65.0026 32.1693 65.4688 32.3359 66.0312 32.3359C66.901 32.3359 67.5807 32.0208 68.0703 31.3906L69.1797 32.6328C68.8411 33.112 68.3828 33.487 67.8047 33.7578C67.2266 34.0234 66.5859 34.1562 65.8828 34.1562ZM65.625 27.2188C65.1771 27.2188 64.8125 27.3698 64.5312 27.6719C64.2552 27.974 64.0781 28.4062 64 28.9688H67.1406V28.7891C67.1302 28.2891 66.9948 27.9036 66.7344 27.6328C66.474 27.3568 66.1042 27.2188 65.625 27.2188ZM77.0156 34H74.75V22H77.0156V34ZM78.5312 29.6953C78.5312 28.8568 78.6927 28.1094 79.0156 27.4531C79.3385 26.7969 79.8021 26.2891 80.4062 25.9297C81.0156 25.5703 81.7214 25.3906 82.5234 25.3906C83.6641 25.3906 84.5938 25.7396 85.3125 26.4375C86.0365 27.1354 86.4401 28.0833 86.5234 29.2812L86.5391 29.8594C86.5391 31.1562 86.1771 32.1979 85.4531 32.9844C84.7292 33.7656 83.7578 34.1562 82.5391 34.1562C81.3203 34.1562 80.3464 33.7656 79.6172 32.9844C78.8932 32.2031 78.5312 31.1406 78.5312 29.7969V29.6953ZM80.7891 29.8594C80.7891 30.6615 80.9401 31.276 81.2422 31.7031C81.5443 32.125 81.9766 32.3359 82.5391 32.3359C83.0859 32.3359 83.513 32.1276 83.8203 31.7109C84.1276 31.2891 84.2812 30.6172 84.2812 29.6953C84.2812 28.9089 84.1276 28.2995 83.8203 27.8672C83.513 27.4349 83.0807 27.2188 82.5234 27.2188C81.9714 27.2188 81.5443 27.4349 81.2422 27.8672C80.9401 28.2943 80.7891 28.9583 80.7891 29.8594ZM91.4453 32.3359C91.862 32.3359 92.2005 32.2214 92.4609 31.9922C92.7214 31.763 92.8568 31.4583 92.8672 31.0781H94.9844C94.9792 31.651 94.8229 32.1771 94.5156 32.6562C94.2083 33.1302 93.7865 33.5 93.25 33.7656C92.7188 34.026 92.1302 34.1562 91.4844 34.1562C90.276 34.1562 89.3229 33.7734 88.625 33.0078C87.9271 32.237 87.5781 31.1745 87.5781 29.8203V29.6719C87.5781 28.3698 87.9245 27.3307 88.6172 26.5547C89.3099 25.7786 90.2604 25.3906 91.4688 25.3906C92.526 25.3906 93.3724 25.6927 94.0078 26.2969C94.6484 26.8958 94.974 27.6953 94.9844 28.6953H92.8672C92.8568 28.2578 92.7214 27.9036 92.4609 27.6328C92.2005 27.3568 91.8568 27.2188 91.4297 27.2188C90.9036 27.2188 90.5052 27.4115 90.2344 27.7969C89.9688 28.1771 89.8359 28.7969 89.8359 29.6562V29.8906C89.8359 30.7604 89.9688 31.3854 90.2344 31.7656C90.5 32.1458 90.9036 32.3359 91.4453 32.3359ZM101.172 34C101.068 33.7969 100.992 33.5443 100.945 33.2422C100.398 33.8516 99.6875 34.1562 98.8125 34.1562C97.9844 34.1562 97.2969 33.9167 96.75 33.4375C96.2083 32.9583 95.9375 32.3542 95.9375 31.625C95.9375 30.7292 96.2682 30.0417 96.9297 29.5625C97.5964 29.0833 98.5573 28.8411 99.8125 28.8359H100.852V28.3516C100.852 27.9609 100.75 27.6484 100.547 27.4141C100.349 27.1797 100.034 27.0625 99.6016 27.0625C99.2214 27.0625 98.9219 27.1536 98.7031 27.3359C98.4896 27.5182 98.3828 27.7682 98.3828 28.0859H96.125C96.125 27.5964 96.276 27.1432 96.5781 26.7266C96.8802 26.3099 97.3073 25.9844 97.8594 25.75C98.4115 25.5104 99.0312 25.3906 99.7188 25.3906C100.76 25.3906 101.586 25.6536 102.195 26.1797C102.81 26.7005 103.117 27.4349 103.117 28.3828V32.0469C103.122 32.849 103.234 33.4557 103.453 33.8672V34H101.172ZM99.3047 32.4297C99.638 32.4297 99.9453 32.3568 100.227 32.2109C100.508 32.0599 100.716 31.8594 100.852 31.6094V30.1562H100.008C98.8776 30.1562 98.276 30.5469 98.2031 31.3281L98.1953 31.4609C98.1953 31.7422 98.2943 31.974 98.4922 32.1562C98.6901 32.3385 98.9609 32.4297 99.3047 32.4297ZM107.555 23.4688V25.5469H109V27.2031H107.555V31.4219C107.555 31.7344 107.615 31.9583 107.734 32.0938C107.854 32.2292 108.083 32.2969 108.422 32.2969C108.672 32.2969 108.893 32.2786 109.086 32.2422V33.9531C108.643 34.0885 108.188 34.1562 107.719 34.1562C106.135 34.1562 105.328 33.3568 105.297 31.7578V27.2031H104.062V25.5469H105.297V23.4688H107.555ZM112.641 34H110.375V25.5469H112.641V34ZM110.242 23.3594C110.242 23.0208 110.354 22.7422 110.578 22.5234C110.807 22.3047 111.117 22.1953 111.508 22.1953C111.893 22.1953 112.201 22.3047 112.43 22.5234C112.659 22.7422 112.773 23.0208 112.773 23.3594C112.773 23.7031 112.656 23.9844 112.422 24.2031C112.193 24.4219 111.888 24.5312 111.508 24.5312C111.128 24.5312 110.82 24.4219 110.586 24.2031C110.357 23.9844 110.242 23.7031 110.242 23.3594ZM114.156 29.6953C114.156 28.8568 114.318 28.1094 114.641 27.4531C114.964 26.7969 115.427 26.2891 116.031 25.9297C116.641 25.5703 117.346 25.3906 118.148 25.3906C119.289 25.3906 120.219 25.7396 120.938 26.4375C121.661 27.1354 122.065 28.0833 122.148 29.2812L122.164 29.8594C122.164 31.1562 121.802 32.1979 121.078 32.9844C120.354 33.7656 119.383 34.1562 118.164 34.1562C116.945 34.1562 115.971 33.7656 115.242 32.9844C114.518 32.2031 114.156 31.1406 114.156 29.7969V29.6953ZM116.414 29.8594C116.414 30.6615 116.565 31.276 116.867 31.7031C117.169 32.125 117.602 32.3359 118.164 32.3359C118.711 32.3359 119.138 32.1276 119.445 31.7109C119.753 31.2891 119.906 30.6172 119.906 29.6953C119.906 28.9089 119.753 28.2995 119.445 27.8672C119.138 27.4349 118.706 27.2188 118.148 27.2188C117.596 27.2188 117.169 27.4349 116.867 27.8672C116.565 28.2943 116.414 28.9583 116.414 29.8594ZM125.633 25.5469L125.703 26.5234C126.307 25.7682 127.117 25.3906 128.133 25.3906C129.029 25.3906 129.695 25.6536 130.133 26.1797C130.57 26.7057 130.794 27.4922 130.805 28.5391V34H128.547V28.5938C128.547 28.1146 128.443 27.7682 128.234 27.5547C128.026 27.3359 127.68 27.2266 127.195 27.2266C126.56 27.2266 126.083 27.4974 125.766 28.0391V34H123.508V25.5469H125.633Z" transform="translate(64 -1)" fill="black"/>
<path d="M8.57031 15H0.773438V13.4531L4.45312 9.53125C4.95833 8.97917 5.33073 8.4974 5.57031 8.08594C5.8151 7.67448 5.9375 7.28385 5.9375 6.91406C5.9375 6.40885 5.8099 6.01302 5.55469 5.72656C5.29948 5.4349 4.9349 5.28906 4.46094 5.28906C3.95052 5.28906 3.54688 5.46615 3.25 5.82031C2.95833 6.16927 2.8125 6.63021 2.8125 7.20312H0.546875C0.546875 6.51042 0.710938 5.8776 1.03906 5.30469C1.3724 4.73177 1.84115 4.28385 2.44531 3.96094C3.04948 3.63281 3.73438 3.46875 4.5 3.46875C5.67188 3.46875 6.58073 3.75 7.22656 4.3125C7.8776 4.875 8.20312 5.66927 8.20312 6.69531C8.20312 7.25781 8.05729 7.83073 7.76562 8.41406C7.47396 8.9974 6.97396 9.67708 6.26562 10.4531L3.67969 13.1797H8.57031V15ZM17.6172 10.2969C17.6172 11.8698 17.2917 13.0729 16.6406 13.9062C15.9896 14.7396 15.0365 15.1562 13.7812 15.1562C12.5417 15.1562 11.5938 14.7474 10.9375 13.9297C10.2812 13.112 9.94531 11.9401 9.92969 10.4141V8.32031C9.92969 6.73177 10.2578 5.52604 10.9141 4.70312C11.5755 3.88021 12.526 3.46875 13.7656 3.46875C15.0052 3.46875 15.9531 3.8776 16.6094 4.69531C17.2656 5.50781 17.6016 6.67708 17.6172 8.20312V10.2969ZM15.3594 8C15.3594 7.05729 15.2292 6.3724 14.9688 5.94531C14.7135 5.51302 14.3125 5.29688 13.7656 5.29688C13.2344 5.29688 12.8411 5.5026 12.5859 5.91406C12.3359 6.32031 12.2031 6.95833 12.1875 7.82812V10.5938C12.1875 11.5208 12.3125 12.2109 12.5625 12.6641C12.8177 13.112 13.224 13.3359 13.7812 13.3359C14.3333 13.3359 14.7318 13.1198 14.9766 12.6875C15.2214 12.2552 15.349 11.5938 15.3594 10.7031V8Z" transform="translate(16 77)" fill="#EB5757"/>
</svg>
