<svg width="242" height="250" viewBox="0 0 242 250" fill="none" xmlns="http://www.w3.org/2000/svg">
<rect width="242" height="250" fill="black"/>
<path d="M8.65021 197.665C8.97021 197.945 9.32521 198.175 9.71521 198.355C10.1152 198.535 10.5352 198.625 10.9752 198.625C11.4952 198.625 11.9202 198.53 12.2502 198.34C12.5902 198.14 12.7602 197.86 12.7602 197.5C12.7602 197.29 12.7152 197.1 12.6252 196.93C12.5352 196.76 12.3802 196.62 12.1602 196.51C11.9402 196.39 11.6452 196.3 11.2752 196.24C10.9052 196.17 10.4402 196.135 9.88021 196.135V194.575C10.8202 194.575 11.4802 194.46 11.8602 194.23C12.2502 193.99 12.4452 193.68 12.4452 193.3C12.4452 192.97 12.3202 192.715 12.0702 192.535C11.8202 192.345 11.4752 192.25 11.0352 192.25C10.6552 192.25 10.3052 192.325 9.98521 192.475C9.66521 192.625 9.34021 192.83 9.01021 193.09L7.90021 191.74C8.37021 191.36 8.87021 191.065 9.40021 190.855C9.94021 190.635 10.5202 190.525 11.1402 190.525C11.6602 190.525 12.1352 190.585 12.5652 190.705C12.9952 190.815 13.3652 190.985 13.6752 191.215C13.9852 191.435 14.2252 191.705 14.3952 192.025C14.5652 192.345 14.6502 192.715 14.6502 193.135C14.6502 193.635 14.4902 194.06 14.1702 194.41C13.8502 194.75 13.4052 195.03 12.8352 195.25V195.31C13.4352 195.47 13.9402 195.745 14.3502 196.135C14.7602 196.515 14.9652 197.015 14.9652 197.635C14.9652 198.075 14.8602 198.47 14.6502 198.82C14.4502 199.16 14.1752 199.45 13.8252 199.69C13.4852 199.92 13.0852 200.1 12.6252 200.23C12.1652 200.35 11.6852 200.41 11.1852 200.41C10.3652 200.41 9.66021 200.29 9.07021 200.05C8.48021 199.8 8.00021 199.47 7.63021 199.06L8.65021 197.665ZM20.4944 200.41C19.9444 200.41 19.4444 200.305 18.9944 200.095C18.5444 199.875 18.1594 199.555 17.8394 199.135C17.5194 198.715 17.2694 198.195 17.0894 197.575C16.9194 196.955 16.8344 196.24 16.8344 195.43C16.8344 194.62 16.9194 193.91 17.0894 193.3C17.2694 192.69 17.5194 192.18 17.8394 191.77C18.1594 191.35 18.5444 191.04 18.9944 190.84C19.4444 190.63 19.9444 190.525 20.4944 190.525C21.0444 190.525 21.5444 190.63 21.9944 190.84C22.4444 191.04 22.8294 191.35 23.1494 191.77C23.4694 192.18 23.7144 192.69 23.8844 193.3C24.0644 193.91 24.1544 194.62 24.1544 195.43C24.1544 196.24 24.0644 196.955 23.8844 197.575C23.7144 198.195 23.4694 198.715 23.1494 199.135C22.8294 199.555 22.4444 199.875 21.9944 200.095C21.5444 200.305 21.0444 200.41 20.4944 200.41ZM20.4944 192.235C20.2544 192.235 20.0294 192.285 19.8194 192.385C19.6194 192.485 19.4444 192.66 19.2944 192.91C19.1444 193.15 19.0244 193.475 18.9344 193.885C18.8444 194.295 18.7994 194.81 18.7994 195.43C18.7994 196.05 18.8444 196.57 18.9344 196.99C19.0244 197.4 19.1444 197.735 19.2944 197.995C19.4444 198.245 19.6194 198.425 19.8194 198.535C20.0294 198.645 20.2544 198.7 20.4944 198.7C20.7344 198.7 20.9544 198.645 21.1544 198.535C21.3644 198.425 21.5444 198.245 21.6944 197.995C21.8444 197.735 21.9644 197.4 22.0544 196.99C22.1444 196.57 22.1894 196.05 22.1894 195.43C22.1894 194.81 22.1444 194.295 22.0544 193.885C21.9644 193.475 21.8444 193.15 21.6944 192.91C21.5444 192.66 21.3644 192.485 21.1544 192.385C20.9544 192.285 20.7344 192.235 20.4944 192.235ZM20.4944 196.54C20.1744 196.54 19.9044 196.44 19.6844 196.24C19.4744 196.03 19.3694 195.75 19.3694 195.4C19.3694 195.05 19.4744 194.775 19.6844 194.575C19.9044 194.365 20.1744 194.26 20.4944 194.26C20.8144 194.26 21.0794 194.365 21.2894 194.575C21.5094 194.775 21.6194 195.05 21.6194 195.4C21.6194 195.75 21.5094 196.03 21.2894 196.24C21.0794 196.44 20.8144 196.54 20.4944 196.54ZM15.0552 217.445V219.23H8.23021V217.445H10.6902V211.94H8.72521V210.575C9.28521 210.475 9.76021 210.355 10.1502 210.215C10.5502 210.075 10.9252 209.905 11.2752 209.705H12.8952V217.445H15.0552ZM20.4944 219.41C19.9444 219.41 19.4444 219.305 18.9944 219.095C18.5444 218.875 18.1594 218.555 17.8394 218.135C17.5194 217.715 17.2694 217.195 17.0894 216.575C16.9194 215.955 16.8344 215.24 16.8344 214.43C16.8344 213.62 16.9194 212.91 17.0894 212.3C17.2694 211.69 17.5194 211.18 17.8394 210.77C18.1594 210.35 18.5444 210.04 18.9944 209.84C19.4444 209.63 19.9444 209.525 20.4944 209.525C21.0444 209.525 21.5444 209.63 21.9944 209.84C22.4444 210.04 22.8294 210.35 23.1494 210.77C23.4694 211.18 23.7144 211.69 23.8844 212.3C24.0644 212.91 24.1544 213.62 24.1544 214.43C24.1544 215.24 24.0644 215.955 23.8844 216.575C23.7144 217.195 23.4694 217.715 23.1494 218.135C22.8294 218.555 22.4444 218.875 21.9944 219.095C21.5444 219.305 21.0444 219.41 20.4944 219.41ZM20.4944 211.235C20.2544 211.235 20.0294 211.285 19.8194 211.385C19.6194 211.485 19.4444 211.66 19.2944 211.91C19.1444 212.15 19.0244 212.475 18.9344 212.885C18.8444 213.295 18.7994 213.81 18.7994 214.43C18.7994 215.05 18.8444 215.57 18.9344 215.99C19.0244 216.4 19.1444 216.735 19.2944 216.995C19.4444 217.245 19.6194 217.425 19.8194 217.535C20.0294 217.645 20.2544 217.7 20.4944 217.7C20.7344 217.7 20.9544 217.645 21.1544 217.535C21.3644 217.425 21.5444 217.245 21.6944 216.995C21.8444 216.735 21.9644 216.4 22.0544 215.99C22.1444 215.57 22.1894 215.05 22.1894 214.43C22.1894 213.81 22.1444 213.295 22.0544 212.885C21.9644 212.475 21.8444 212.15 21.6944 211.91C21.5444 211.66 21.3644 211.485 21.1544 211.385C20.9544 211.285 20.7344 211.235 20.4944 211.235ZM20.4944 215.54C20.1744 215.54 19.9044 215.44 19.6844 215.24C19.4744 215.03 19.3694 214.75 19.3694 214.4C19.3694 214.05 19.4744 213.775 19.6844 213.575C19.9044 213.365 20.1744 213.26 20.4944 213.26C20.8144 213.26 21.0794 213.365 21.2894 213.575C21.5094 213.775 21.6194 214.05 21.6194 214.4C21.6194 214.75 21.5094 215.03 21.2894 215.24C21.0794 215.44 20.8144 215.54 20.4944 215.54ZM29.4885 219.41C28.9385 219.41 28.4385 219.305 27.9885 219.095C27.5385 218.875 27.1535 218.555 26.8335 218.135C26.5135 217.715 26.2635 217.195 26.0835 216.575C25.9135 215.955 25.8285 215.24 25.8285 214.43C25.8285 213.62 25.9135 212.91 26.0835 212.3C26.2635 211.69 26.5135 211.18 26.8335 210.77C27.1535 210.35 27.5385 210.04 27.9885 209.84C28.4385 209.63 28.9385 209.525 29.4885 209.525C30.0385 209.525 30.5385 209.63 30.9885 209.84C31.4385 210.04 31.8235 210.35 32.1435 210.77C32.4635 211.18 32.7085 211.69 32.8785 212.3C33.0585 212.91 33.1485 213.62 33.1485 214.43C33.1485 215.24 33.0585 215.955 32.8785 216.575C32.7085 217.195 32.4635 217.715 32.1435 218.135C31.8235 218.555 31.4385 218.875 30.9885 219.095C30.5385 219.305 30.0385 219.41 29.4885 219.41ZM29.4885 211.235C29.2485 211.235 29.0235 211.285 28.8135 211.385C28.6135 211.485 28.4385 211.66 28.2885 211.91C28.1385 212.15 28.0185 212.475 27.9285 212.885C27.8385 213.295 27.7935 213.81 27.7935 214.43C27.7935 215.05 27.8385 215.57 27.9285 215.99C28.0185 216.4 28.1385 216.735 28.2885 216.995C28.4385 217.245 28.6135 217.425 28.8135 217.535C29.0235 217.645 29.2485 217.7 29.4885 217.7C29.7285 217.7 29.9485 217.645 30.1485 217.535C30.3585 217.425 30.5385 217.245 30.6885 216.995C30.8385 216.735 30.9585 216.4 31.0485 215.99C31.1385 215.57 31.1835 215.05 31.1835 214.43C31.1835 213.81 31.1385 213.295 31.0485 212.885C30.9585 212.475 30.8385 212.15 30.6885 211.91C30.5385 211.66 30.3585 211.485 30.1485 211.385C29.9485 211.285 29.7285 211.235 29.4885 211.235ZM29.4885 215.54C29.1685 215.54 28.8985 215.44 28.6785 215.24C28.4685 215.03 28.3635 214.75 28.3635 214.4C28.3635 214.05 28.4685 213.775 28.6785 213.575C28.8985 213.365 29.1685 213.26 29.4885 213.26C29.8085 213.26 30.0735 213.365 30.2835 213.575C30.5035 213.775 30.6135 214.05 30.6135 214.4C30.6135 214.75 30.5035 215.03 30.2835 215.24C30.0735 215.44 29.8085 215.54 29.4885 215.54ZM15.0552 235.445V237.23H8.23021V235.445H10.6902V229.94H8.72521V228.575C9.28521 228.475 9.76021 228.355 10.1502 228.215C10.5502 228.075 10.9252 227.905 11.2752 227.705H12.8952V235.445H15.0552ZM20.4944 237.41C19.9444 237.41 19.4444 237.305 18.9944 237.095C18.5444 236.875 18.1594 236.555 17.8394 236.135C17.5194 235.715 17.2694 235.195 17.0894 234.575C16.9194 233.955 16.8344 233.24 16.8344 232.43C16.8344 231.62 16.9194 230.91 17.0894 230.3C17.2694 229.69 17.5194 229.18 17.8394 228.77C18.1594 228.35 18.5444 228.04 18.9944 227.84C19.4444 227.63 19.9444 227.525 20.4944 227.525C21.0444 227.525 21.5444 227.63 21.9944 227.84C22.4444 228.04 22.8294 228.35 23.1494 228.77C23.4694 229.18 23.7144 229.69 23.8844 230.3C24.0644 230.91 24.1544 231.62 24.1544 232.43C24.1544 233.24 24.0644 233.955 23.8844 234.575C23.7144 235.195 23.4694 235.715 23.1494 236.135C22.8294 236.555 22.4444 236.875 21.9944 237.095C21.5444 237.305 21.0444 237.41 20.4944 237.41ZM20.4944 229.235C20.2544 229.235 20.0294 229.285 19.8194 229.385C19.6194 229.485 19.4444 229.66 19.2944 229.91C19.1444 230.15 19.0244 230.475 18.9344 230.885C18.8444 231.295 18.7994 231.81 18.7994 232.43C18.7994 233.05 18.8444 233.57 18.9344 233.99C19.0244 234.4 19.1444 234.735 19.2944 234.995C19.4444 235.245 19.6194 235.425 19.8194 235.535C20.0294 235.645 20.2544 235.7 20.4944 235.7C20.7344 235.7 20.9544 235.645 21.1544 235.535C21.3644 235.425 21.5444 235.245 21.6944 234.995C21.8444 234.735 21.9644 234.4 22.0544 233.99C22.1444 233.57 22.1894 233.05 22.1894 232.43C22.1894 231.81 22.1444 231.295 22.0544 230.885C21.9644 230.475 21.8444 230.15 21.6944 229.91C21.5444 229.66 21.3644 229.485 21.1544 229.385C20.9544 229.285 20.7344 229.235 20.4944 229.235ZM20.4944 233.54C20.1744 233.54 19.9044 233.44 19.6844 233.24C19.4744 233.03 19.3694 232.75 19.3694 232.4C19.3694 232.05 19.4744 231.775 19.6844 231.575C19.9044 231.365 20.1744 231.26 20.4944 231.26C20.8144 231.26 21.0794 231.365 21.2894 231.575C21.5094 231.775 21.6194 232.05 21.6194 232.4C21.6194 232.75 21.5094 233.03 21.2894 233.24C21.0794 233.44 20.8144 233.54 20.4944 233.54ZM29.4885 237.41C28.9385 237.41 28.4385 237.305 27.9885 237.095C27.5385 236.875 27.1535 236.555 26.8335 236.135C26.5135 235.715 26.2635 235.195 26.0835 234.575C25.9135 233.955 25.8285 233.24 25.8285 232.43C25.8285 231.62 25.9135 230.91 26.0835 230.3C26.2635 229.69 26.5135 229.18 26.8335 228.77C27.1535 228.35 27.5385 228.04 27.9885 227.84C28.4385 227.63 28.9385 227.525 29.4885 227.525C30.0385 227.525 30.5385 227.63 30.9885 227.84C31.4385 228.04 31.8235 228.35 32.1435 228.77C32.4635 229.18 32.7085 229.69 32.8785 230.3C33.0585 230.91 33.1485 231.62 33.1485 232.43C33.1485 233.24 33.0585 233.955 32.8785 234.575C32.7085 235.195 32.4635 235.715 32.1435 236.135C31.8235 236.555 31.4385 236.875 30.9885 237.095C30.5385 237.305 30.0385 237.41 29.4885 237.41ZM29.4885 229.235C29.2485 229.235 29.0235 229.285 28.8135 229.385C28.6135 229.485 28.4385 229.66 28.2885 229.91C28.1385 230.15 28.0185 230.475 27.9285 230.885C27.8385 231.295 27.7935 231.81 27.7935 232.43C27.7935 233.05 27.8385 233.57 27.9285 233.99C28.0185 234.4 28.1385 234.735 28.2885 234.995C28.4385 235.245 28.6135 235.425 28.8135 235.535C29.0235 235.645 29.2485 235.7 29.4885 235.7C29.7285 235.7 29.9485 235.645 30.1485 235.535C30.3585 235.425 30.5385 235.245 30.6885 234.995C30.8385 234.735 30.9585 234.4 31.0485 233.99C31.1385 233.57 31.1835 233.05 31.1835 232.43C31.1835 231.81 31.1385 231.295 31.0485 230.885C30.9585 230.475 30.8385 230.15 30.6885 229.91C30.5385 229.66 30.3585 229.485 30.1485 229.385C29.9485 229.285 29.7285 229.235 29.4885 229.235ZM29.4885 233.54C29.1685 233.54 28.8985 233.44 28.6785 233.24C28.4685 233.03 28.3635 232.75 28.3635 232.4C28.3635 232.05 28.4685 231.775 28.6785 231.575C28.8985 231.365 29.1685 231.26 29.4885 231.26C29.8085 231.26 30.0735 231.365 30.2835 231.575C30.5035 231.775 30.6135 232.05 30.6135 232.4C30.6135 232.75 30.5035 233.03 30.2835 233.24C30.0735 233.44 29.8085 233.54 29.4885 233.54Z" fill="white"/>
<path d="M11.5 181.18C10.92 181.18 10.385 181.065 9.895 180.835C9.415 180.595 9 180.255 8.65 179.815C8.31 179.375 8.045 178.84 7.855 178.21C7.665 177.58 7.57 176.865 7.57 176.065C7.57 175.265 7.665 174.555 7.855 173.935C8.045 173.305 8.31 172.78 8.65 172.36C9 171.93 9.415 171.605 9.895 171.385C10.385 171.155 10.92 171.04 11.5 171.04C12.08 171.04 12.61 171.155 13.09 171.385C13.58 171.605 13.995 171.93 14.335 172.36C14.685 172.79 14.955 173.32 15.145 173.95C15.335 174.57 15.43 175.275 15.43 176.065C15.43 176.865 15.335 177.58 15.145 178.21C14.955 178.84 14.685 179.375 14.335 179.815C13.995 180.255 13.58 180.595 13.09 180.835C12.61 181.065 12.08 181.18 11.5 181.18ZM11.5 179.275C12.01 179.275 12.415 178.99 12.715 178.42C13.015 177.84 13.165 177.055 13.165 176.065C13.165 175.085 13.015 174.32 12.715 173.77C12.415 173.22 12.01 172.945 11.5 172.945C10.99 172.945 10.585 173.22 10.285 173.77C9.985 174.32 9.835 175.085 9.835 176.065C9.835 177.055 9.985 177.84 10.285 178.42C10.585 178.99 10.99 179.275 11.5 179.275ZM23.8691 181H22.0691L21.9041 179.935H21.8441C21.5141 180.315 21.1491 180.62 20.7491 180.85C20.3491 181.07 19.8791 181.18 19.3391 181.18C18.4891 181.18 17.8741 180.91 17.4941 180.37C17.1141 179.83 16.9241 179.09 16.9241 178.15V173.56H19.1291V177.865C19.1291 178.365 19.2041 178.73 19.3541 178.96C19.5041 179.19 19.7891 179.305 20.2091 179.305C20.4891 179.305 20.7341 179.245 20.9441 179.125C21.1641 179.005 21.4041 178.78 21.6641 178.45V173.56H23.8691V181ZM27.5983 175.285H25.7233V173.65L27.7033 173.56L27.9883 171.58H29.8033V173.56H32.9533V175.285H29.8033V177.895C29.8033 178.465 29.9283 178.87 30.1783 179.11C30.4283 179.34 30.8233 179.455 31.3633 179.455C31.6533 179.455 31.9183 179.43 32.1583 179.38C32.3983 179.33 32.6283 179.265 32.8483 179.185L33.2383 180.775C32.9083 180.875 32.5383 180.965 32.1283 181.045C31.7283 181.135 31.2883 181.18 30.8083 181.18C30.2183 181.18 29.7183 181.1 29.3083 180.94C28.8983 180.78 28.5633 180.56 28.3033 180.28C28.0533 179.99 27.8733 179.645 27.7633 179.245C27.6533 178.845 27.5983 178.4 27.5983 177.91V175.285ZM37.2674 181.585V183.76H35.0624V173.56H36.8624L37.0274 174.31H37.0724C37.3724 174.04 37.7174 173.82 38.1074 173.65C38.4974 173.47 38.8924 173.38 39.2924 173.38C39.7524 173.38 40.1674 173.47 40.5374 173.65C40.9074 173.83 41.2224 174.085 41.4824 174.415C41.7424 174.745 41.9374 175.145 42.0674 175.615C42.2074 176.075 42.2774 176.59 42.2774 177.16C42.2774 177.8 42.1874 178.37 42.0074 178.87C41.8274 179.36 41.5874 179.78 41.2874 180.13C40.9874 180.47 40.6424 180.73 40.2524 180.91C39.8724 181.09 39.4724 181.18 39.0524 181.18C38.3724 181.18 37.7524 180.91 37.1924 180.37L37.2674 181.585ZM37.2674 178.885C37.4774 179.065 37.6924 179.195 37.9124 179.275C38.1424 179.345 38.3524 179.38 38.5424 179.38C38.9624 179.38 39.3124 179.21 39.5924 178.87C39.8724 178.52 40.0124 177.96 40.0124 177.19C40.0124 175.85 39.5574 175.18 38.6474 175.18C38.1774 175.18 37.7174 175.41 37.2674 175.87V178.885ZM50.8516 181H49.0516L48.8866 179.935H48.8266C48.4966 180.315 48.1316 180.62 47.7316 180.85C47.3316 181.07 46.8616 181.18 46.3216 181.18C45.4716 181.18 44.8566 180.91 44.4766 180.37C44.0966 179.83 43.9066 179.09 43.9066 178.15V173.56H46.1116V177.865C46.1116 178.365 46.1866 178.73 46.3366 178.96C46.4866 179.19 46.7716 179.305 47.1916 179.305C47.4716 179.305 47.7166 179.245 47.9266 179.125C48.1466 179.005 48.3866 178.78 48.6466 178.45V173.56H50.8516V181ZM54.5807 175.285H52.7057V173.65L54.6857 173.56L54.9707 171.58H56.7857V173.56H59.9357V175.285H56.7857V177.895C56.7857 178.465 56.9107 178.87 57.1607 179.11C57.4107 179.34 57.8057 179.455 58.3457 179.455C58.6357 179.455 58.9007 179.43 59.1407 179.38C59.3807 179.33 59.6107 179.265 59.8307 179.185L60.2207 180.775C59.8907 180.875 59.5207 180.965 59.1107 181.045C58.7107 181.135 58.2707 181.18 57.7907 181.18C57.2007 181.18 56.7007 181.1 56.2907 180.94C55.8807 180.78 55.5457 180.56 55.2857 180.28C55.0357 179.99 54.8557 179.645 54.7457 179.245C54.6357 178.845 54.5807 178.4 54.5807 177.91V175.285Z" fill="white"/>
<rect x="96.75" width="145.25" height="30.6018" fill="#333333"/>
<rect x="96.75" width="145.25" height="30.6018" fill="#333333"/>
<rect width="97.1974" height="30.6018" fill="#090808"/>
<path d="M18.105 17.8101C18.105 17.5513 17.9756 17.3486 17.7168 17.2021C17.4629 17.0508 17.0527 16.9165 16.4863 16.7993C14.6016 16.4038 13.6592 15.603 13.6592 14.397C13.6592 13.6938 13.9497 13.1079 14.5308 12.6392C15.1167 12.1655 15.8809 11.9287 16.8232 11.9287C17.8291 11.9287 18.6323 12.1655 19.2329 12.6392C19.8384 13.1128 20.1411 13.728 20.1411 14.4849H18.0244C18.0244 14.1821 17.9268 13.9331 17.7314 13.7378C17.5361 13.5376 17.231 13.4375 16.8159 13.4375C16.4595 13.4375 16.1836 13.5181 15.9883 13.6792C15.793 13.8403 15.6953 14.0454 15.6953 14.2944C15.6953 14.5288 15.8052 14.7192 16.0249 14.8657C16.2495 15.0073 16.6255 15.1318 17.1528 15.2393C17.6802 15.3418 18.1245 15.459 18.4858 15.5908C19.604 16.001 20.1631 16.7114 20.1631 17.7222C20.1631 18.4448 19.853 19.0308 19.2329 19.48C18.6128 19.9243 17.812 20.1465 16.8306 20.1465C16.1665 20.1465 15.5757 20.0293 15.0581 19.7949C14.5454 19.5557 14.1426 19.231 13.8496 18.8208C13.5566 18.4058 13.4102 17.959 13.4102 17.4805H15.417C15.4365 17.8564 15.5757 18.1445 15.8345 18.3447C16.0933 18.5449 16.4399 18.645 16.8745 18.645C17.2798 18.645 17.585 18.5693 17.79 18.418C18 18.2617 18.105 18.0591 18.105 17.8101ZM24.8286 18.4399C25.2192 18.4399 25.5366 18.3325 25.7808 18.1177C26.0249 17.9028 26.1519 17.6172 26.1616 17.2607H28.1465C28.1416 17.7979 27.9951 18.291 27.707 18.7402C27.4189 19.1846 27.0234 19.5312 26.5205 19.7803C26.0225 20.0244 25.4707 20.1465 24.8652 20.1465C23.7324 20.1465 22.8389 19.7876 22.1846 19.0698C21.5303 18.3472 21.2031 17.3511 21.2031 16.0815V15.9424C21.2031 14.7217 21.5278 13.7476 22.1772 13.02C22.8267 12.2925 23.7178 11.9287 24.8506 11.9287C25.8418 11.9287 26.6353 12.2119 27.231 12.7783C27.8315 13.3398 28.1367 14.0894 28.1465 15.0269H26.1616C26.1519 14.6167 26.0249 14.2847 25.7808 14.0308C25.5366 13.772 25.2144 13.6426 24.814 13.6426C24.3208 13.6426 23.9473 13.8232 23.6934 14.1846C23.4443 14.541 23.3198 15.1221 23.3198 15.9277V16.1475C23.3198 16.9629 23.4443 17.5488 23.6934 17.9053C23.9424 18.2617 24.3208 18.4399 24.8286 18.4399ZM33.8081 14.0601C33.52 14.021 33.2661 14.0015 33.0464 14.0015C32.2456 14.0015 31.7207 14.2725 31.4717 14.8145V20H29.355V12.0752H31.3545L31.4131 13.02C31.8379 12.2925 32.4263 11.9287 33.1782 11.9287C33.4126 11.9287 33.6323 11.9604 33.8374 12.0239L33.8081 14.0601ZM37.0674 20H34.9434V12.0752H37.0674V20ZM34.8188 10.0244C34.8188 9.70703 34.9238 9.4458 35.1338 9.24072C35.3486 9.03564 35.6392 8.93311 36.0054 8.93311C36.3667 8.93311 36.6548 9.03564 36.8696 9.24072C37.0845 9.4458 37.1919 9.70703 37.1919 10.0244C37.1919 10.3467 37.082 10.6104 36.8623 10.8154C36.6475 11.0205 36.3618 11.123 36.0054 11.123C35.6489 11.123 35.3608 11.0205 35.1411 10.8154C34.9263 10.6104 34.8188 10.3467 34.8188 10.0244ZM45.9517 16.1108C45.9517 17.3315 45.6733 18.3105 45.1167 19.0479C44.5649 19.7803 43.8179 20.1465 42.8755 20.1465C42.0747 20.1465 41.4277 19.8682 40.9346 19.3115V23.0469H38.8179V12.0752H40.7808L40.854 12.8516C41.3667 12.2363 42.0356 11.9287 42.8608 11.9287C43.8374 11.9287 44.5967 12.29 45.1387 13.0127C45.6807 13.7354 45.9517 14.7314 45.9517 16.001V16.1108ZM43.835 15.957C43.835 15.2197 43.7031 14.6509 43.4395 14.2505C43.1807 13.8501 42.8022 13.6499 42.3042 13.6499C41.6401 13.6499 41.1836 13.9038 40.9346 14.4116V17.6562C41.1934 18.1787 41.6548 18.4399 42.3188 18.4399C43.3296 18.4399 43.835 17.6123 43.835 15.957ZM49.8042 10.127V12.0752H51.1592V13.6279H49.8042V17.583C49.8042 17.876 49.8604 18.0859 49.9727 18.2129C50.085 18.3398 50.2998 18.4033 50.6172 18.4033C50.8516 18.4033 51.0591 18.3862 51.2397 18.3521V19.9561C50.8247 20.083 50.3975 20.1465 49.958 20.1465C48.4736 20.1465 47.7168 19.397 47.6875 17.8979V13.6279H46.5303V12.0752H47.6875V10.127H49.8042ZM52.4482 18.96C52.4482 18.623 52.5605 18.3496 52.7852 18.1396C53.0146 17.9297 53.3003 17.8247 53.6421 17.8247C53.9888 17.8247 54.2744 17.9297 54.499 18.1396C54.7285 18.3496 54.8433 18.623 54.8433 18.96C54.8433 19.292 54.731 19.563 54.5063 19.7729C54.2817 19.978 53.9937 20.0806 53.6421 20.0806C53.2954 20.0806 53.0098 19.978 52.7852 19.7729C52.5605 19.563 52.4482 19.292 52.4482 18.96ZM63.8374 16.1108C63.8374 17.3315 63.5591 18.3105 63.0024 19.0479C62.4507 19.7803 61.7036 20.1465 60.7612 20.1465C59.9604 20.1465 59.3135 19.8682 58.8203 19.3115V23.0469H56.7036V12.0752H58.6665L58.7397 12.8516C59.2524 12.2363 59.9214 11.9287 60.7466 11.9287C61.7231 11.9287 62.4824 12.29 63.0244 13.0127C63.5664 13.7354 63.8374 14.7314 63.8374 16.001V16.1108ZM61.7207 15.957C61.7207 15.2197 61.5889 14.6509 61.3252 14.2505C61.0664 13.8501 60.688 13.6499 60.1899 13.6499C59.5259 13.6499 59.0693 13.9038 58.8203 14.4116V17.6562C59.0791 18.1787 59.5405 18.4399 60.2046 18.4399C61.2153 18.4399 61.7207 17.6123 61.7207 15.957ZM68.0269 17.0044L69.4917 12.0752H71.7622L68.5762 21.2305L68.4004 21.6479C67.9268 22.6831 67.1455 23.2007 66.0566 23.2007C65.749 23.2007 65.4365 23.1543 65.1191 23.0615V21.4575L65.4414 21.4648C65.8418 21.4648 66.1396 21.4038 66.335 21.2817C66.5352 21.1597 66.6914 20.957 66.8037 20.6738L67.0527 20.022L64.2769 12.0752H66.5547L68.0269 17.0044Z" fill="white"/>
<line y1="160.5" x2="242" y2="160.5" stroke="white"/>
<path d="M10.135 47.13L7.72 43.56H10.09L10.855 44.76C10.965 44.97 11.09 45.185 11.23 45.405C11.37 45.615 11.505 45.825 11.635 46.035H11.695C11.795 45.825 11.895 45.61 11.995 45.39C12.105 45.17 12.21 44.96 12.31 44.76L12.97 43.56H15.28L12.85 47.385L15.43 51H13.06L12.205 49.77C12.065 49.56 11.92 49.345 11.77 49.125C11.63 48.905 11.49 48.69 11.35 48.48H11.29C11.18 48.69 11.065 48.905 10.945 49.125C10.825 49.335 10.71 49.55 10.6 49.77L9.865 51H7.555L10.135 47.13ZM57.8507 72.685C56.8707 71.815 56.0957 70.81 55.5257 69.67C54.9657 68.53 54.6857 67.25 54.6857 65.83C54.6857 64.41 54.9657 63.13 55.5257 61.99C56.0957 60.85 56.8707 59.845 57.8507 58.975L59.0807 59.95C58.1907 60.82 57.5407 61.725 57.1307 62.665C56.7307 63.595 56.5307 64.65 56.5307 65.83C56.5307 66.42 56.5807 66.98 56.6807 67.51C56.7807 68.03 56.9307 68.53 57.1307 69.01C57.3407 69.49 57.6057 69.95 57.9257 70.39C58.2457 70.84 58.6307 71.28 59.0807 71.71L57.8507 72.685ZM64.0998 66.13L61.6848 62.56H64.0548L64.8198 63.76C64.9298 63.97 65.0548 64.185 65.1948 64.405C65.3348 64.615 65.4698 64.825 65.5998 65.035H65.6598C65.7598 64.825 65.8598 64.61 65.9598 64.39C66.0698 64.17 66.1748 63.96 66.2748 63.76L66.9348 62.56H69.2448L66.8148 66.385L69.3948 70H67.0248L66.1698 68.77C66.0298 68.56 65.8848 68.345 65.7348 68.125C65.5948 67.905 65.4548 67.69 65.3148 67.48H65.2548C65.1448 67.69 65.0298 67.905 64.9098 68.125C64.7898 68.335 64.6748 68.55 64.5648 68.77L63.8298 70H61.5198L64.0998 66.13ZM71.849 71.71C72.299 71.28 72.684 70.84 73.004 70.39C73.324 69.95 73.584 69.49 73.784 69.01C73.994 68.53 74.149 68.03 74.249 67.51C74.349 66.98 74.399 66.42 74.399 65.83C74.399 64.65 74.194 63.595 73.784 62.665C73.384 61.725 72.739 60.82 71.849 59.95L73.079 58.975C74.059 59.845 74.829 60.85 75.389 61.99C75.959 63.13 76.244 64.41 76.244 65.83C76.244 67.25 75.959 68.53 75.389 69.67C74.829 70.81 74.059 71.815 73.079 72.685L71.849 71.71ZM57.8507 90.685C56.8707 89.815 56.0957 88.81 55.5257 87.67C54.9657 86.53 54.6857 85.25 54.6857 83.83C54.6857 82.41 54.9657 81.13 55.5257 79.99C56.0957 78.85 56.8707 77.845 57.8507 76.975L59.0807 77.95C58.1907 78.82 57.5407 79.725 57.1307 80.665C56.7307 81.595 56.5307 82.65 56.5307 83.83C56.5307 84.42 56.5807 84.98 56.6807 85.51C56.7807 86.03 56.9307 86.53 57.1307 87.01C57.3407 87.49 57.6057 87.95 57.9257 88.39C58.2457 88.84 58.6307 89.28 59.0807 89.71L57.8507 90.685ZM64.0998 84.13L61.6848 80.56H64.0548L64.8198 81.76C64.9298 81.97 65.0548 82.185 65.1948 82.405C65.3348 82.615 65.4698 82.825 65.5998 83.035H65.6598C65.7598 82.825 65.8598 82.61 65.9598 82.39C66.0698 82.17 66.1748 81.96 66.2748 81.76L66.9348 80.56H69.2448L66.8148 84.385L69.3948 88H67.0248L66.1698 86.77C66.0298 86.56 65.8848 86.345 65.7348 86.125C65.5948 85.905 65.4548 85.69 65.3148 85.48H65.2548C65.1448 85.69 65.0298 85.905 64.9098 86.125C64.7898 86.335 64.6748 86.55 64.5648 86.77L63.8298 88H61.5198L64.0998 84.13ZM116.82 89.71C117.27 89.28 117.655 88.84 117.975 88.39C118.295 87.95 118.555 87.49 118.755 87.01C118.965 86.53 119.12 86.03 119.22 85.51C119.32 84.98 119.37 84.42 119.37 83.83C119.37 82.65 119.165 81.595 118.755 80.665C118.355 79.725 117.71 78.82 116.82 77.95L118.05 76.975C119.03 77.845 119.8 78.85 120.36 79.99C120.93 81.13 121.215 82.41 121.215 83.83C121.215 85.25 120.93 86.53 120.36 87.67C119.8 88.81 119.03 89.815 118.05 90.685L116.82 89.71ZM10.135 122.13L7.72 118.56H10.09L10.855 119.76C10.965 119.97 11.09 120.185 11.23 120.405C11.37 120.615 11.505 120.825 11.635 121.035H11.695C11.795 120.825 11.895 120.61 11.995 120.39C12.105 120.17 12.21 119.96 12.31 119.76L12.97 118.56H15.28L12.85 122.385L15.43 126H13.06L12.205 124.77C12.065 124.56 11.92 124.345 11.77 124.125C11.63 123.905 11.49 123.69 11.35 123.48H11.29C11.18 123.69 11.065 123.905 10.945 124.125C10.825 124.335 10.71 124.55 10.6 124.77L9.865 126H7.555L10.135 122.13ZM46.1116 122.13L43.6966 118.56H46.0666L46.8316 119.76C46.9416 119.97 47.0666 120.185 47.2066 120.405C47.3466 120.615 47.4816 120.825 47.6116 121.035H47.6716C47.7716 120.825 47.8716 120.61 47.9716 120.39C48.0816 120.17 48.1866 119.96 48.2866 119.76L48.9466 118.56H51.2566L48.8266 122.385L51.4066 126H49.0366L48.1816 124.77C48.0416 124.56 47.8966 124.345 47.7466 124.125C47.6066 123.905 47.4666 123.69 47.3266 123.48H47.2666C47.1566 123.69 47.0416 123.905 46.9216 124.125C46.8016 124.335 46.6866 124.55 46.5766 124.77L45.8416 126H43.5316L46.1116 122.13ZM57.8507 147.685C56.8707 146.815 56.0957 145.81 55.5257 144.67C54.9657 143.53 54.6857 142.25 54.6857 140.83C54.6857 139.41 54.9657 138.13 55.5257 136.99C56.0957 135.85 56.8707 134.845 57.8507 133.975L59.0807 134.95C58.1907 135.82 57.5407 136.725 57.1307 137.665C56.7307 138.595 56.5307 139.65 56.5307 140.83C56.5307 141.42 56.5807 141.98 56.6807 142.51C56.7807 143.03 56.9307 143.53 57.1307 144.01C57.3407 144.49 57.6057 144.95 57.9257 145.39C58.2457 145.84 58.6307 146.28 59.0807 146.71L57.8507 147.685ZM64.0998 141.13L61.6848 137.56H64.0548L64.8198 138.76C64.9298 138.97 65.0548 139.185 65.1948 139.405C65.3348 139.615 65.4698 139.825 65.5998 140.035H65.6598C65.7598 139.825 65.8598 139.61 65.9598 139.39C66.0698 139.17 66.1748 138.96 66.2748 138.76L66.9348 137.56H69.2448L66.8148 141.385L69.3948 145H67.0248L66.1698 143.77C66.0298 143.56 65.8848 143.345 65.7348 143.125C65.5948 142.905 65.4548 142.69 65.3148 142.48H65.2548C65.1448 142.69 65.0298 142.905 64.9098 143.125C64.7898 143.335 64.6748 143.55 64.5648 143.77L63.8298 145H61.5198L64.0998 141.13ZM71.849 146.71C72.299 146.28 72.684 145.84 73.004 145.39C73.324 144.95 73.584 144.49 73.784 144.01C73.994 143.53 74.149 143.03 74.249 142.51C74.349 141.98 74.399 141.42 74.399 140.83C74.399 139.65 74.194 138.595 73.784 137.665C73.384 136.725 72.739 135.82 71.849 134.95L73.079 133.975C74.059 134.845 74.829 135.85 75.389 136.99C75.959 138.13 76.244 139.41 76.244 140.83C76.244 142.25 75.959 143.53 75.389 144.67C74.829 145.81 74.059 146.815 73.079 147.685L71.849 146.71Z" fill="white"/>
<path d="M10.285 70.585V72.76H8.08V62.56H9.88L10.045 63.31H10.09C10.39 63.04 10.735 62.82 11.125 62.65C11.515 62.47 11.91 62.38 12.31 62.38C12.77 62.38 13.185 62.47 13.555 62.65C13.925 62.83 14.24 63.085 14.5 63.415C14.76 63.745 14.955 64.145 15.085 64.615C15.225 65.075 15.295 65.59 15.295 66.16C15.295 66.8 15.205 67.37 15.025 67.87C14.845 68.36 14.605 68.78 14.305 69.13C14.005 69.47 13.66 69.73 13.27 69.91C12.89 70.09 12.49 70.18 12.07 70.18C11.39 70.18 10.77 69.91 10.21 69.37L10.285 70.585ZM10.285 67.885C10.495 68.065 10.71 68.195 10.93 68.275C11.16 68.345 11.37 68.38 11.56 68.38C11.98 68.38 12.33 68.21 12.61 67.87C12.89 67.52 13.03 66.96 13.03 66.19C13.03 64.85 12.575 64.18 11.665 64.18C11.195 64.18 10.735 64.41 10.285 64.87V67.885ZM17.7341 62.56H19.5341L19.7141 64.18H19.7591C20.1291 63.57 20.5741 63.12 21.0941 62.83C21.6141 62.53 22.1741 62.38 22.7741 62.38C23.1041 62.38 23.3691 62.405 23.5691 62.455C23.7791 62.505 23.9941 62.58 24.2141 62.68L23.7641 64.525C23.5341 64.455 23.3241 64.405 23.1341 64.375C22.9541 64.335 22.7241 64.315 22.4441 64.315C21.9841 64.315 21.5291 64.45 21.0791 64.72C20.6391 64.99 20.2591 65.46 19.9391 66.13V70H17.7341V62.56ZM26.1733 62.56H31.3633V70H29.1583V64.285H26.1733V62.56ZM30.1633 61.465C29.7333 61.465 29.3783 61.345 29.0983 61.105C28.8283 60.865 28.6933 60.54 28.6933 60.13C28.6933 59.72 28.8283 59.39 29.0983 59.14C29.3783 58.88 29.7333 58.75 30.1633 58.75C30.5933 58.75 30.9433 58.88 31.2133 59.14C31.4933 59.39 31.6333 59.72 31.6333 60.13C31.6333 60.54 31.4933 60.865 31.2133 61.105C30.9433 61.345 30.5933 61.465 30.1633 61.465ZM35.0624 62.56H36.8624L37.0274 63.55H37.0874C37.4074 63.23 37.7724 62.955 38.1824 62.725C38.6024 62.495 39.0924 62.38 39.6524 62.38C40.4924 62.38 41.1074 62.65 41.4974 63.19C41.8874 63.73 42.0824 64.47 42.0824 65.41V70H39.8774V65.695C39.8774 65.195 39.7974 64.83 39.6374 64.6C39.4774 64.37 39.1924 64.255 38.7824 64.255C38.4824 64.255 38.2174 64.32 37.9874 64.45C37.7674 64.58 37.5274 64.775 37.2674 65.035V70H35.0624V62.56ZM45.5866 64.285H43.7116V62.65L45.6916 62.56L45.9766 60.58H47.7916V62.56H50.9416V64.285H47.7916V66.895C47.7916 67.465 47.9166 67.87 48.1666 68.11C48.4166 68.34 48.8116 68.455 49.3516 68.455C49.6416 68.455 49.9066 68.43 50.1466 68.38C50.3866 68.33 50.6166 68.265 50.8366 68.185L51.2266 69.775C50.8966 69.875 50.5266 69.965 50.1166 70.045C49.7166 70.135 49.2766 70.18 48.7966 70.18C48.2066 70.18 47.7066 70.1 47.2966 69.94C46.8866 69.78 46.5516 69.56 46.2916 69.28C46.0416 68.99 45.8616 68.645 45.7516 68.245C45.6416 67.845 45.5866 67.4 45.5866 66.91V64.285ZM10.285 88.585V90.76H8.08V80.56H9.88L10.045 81.31H10.09C10.39 81.04 10.735 80.82 11.125 80.65C11.515 80.47 11.91 80.38 12.31 80.38C12.77 80.38 13.185 80.47 13.555 80.65C13.925 80.83 14.24 81.085 14.5 81.415C14.76 81.745 14.955 82.145 15.085 82.615C15.225 83.075 15.295 83.59 15.295 84.16C15.295 84.8 15.205 85.37 15.025 85.87C14.845 86.36 14.605 86.78 14.305 87.13C14.005 87.47 13.66 87.73 13.27 87.91C12.89 88.09 12.49 88.18 12.07 88.18C11.39 88.18 10.77 87.91 10.21 87.37L10.285 88.585ZM10.285 85.885C10.495 86.065 10.71 86.195 10.93 86.275C11.16 86.345 11.37 86.38 11.56 86.38C11.98 86.38 12.33 86.21 12.61 85.87C12.89 85.52 13.03 84.96 13.03 84.19C13.03 82.85 12.575 82.18 11.665 82.18C11.195 82.18 10.735 82.41 10.285 82.87V85.885ZM17.7341 80.56H19.5341L19.7141 82.18H19.7591C20.1291 81.57 20.5741 81.12 21.0941 80.83C21.6141 80.53 22.1741 80.38 22.7741 80.38C23.1041 80.38 23.3691 80.405 23.5691 80.455C23.7791 80.505 23.9941 80.58 24.2141 80.68L23.7641 82.525C23.5341 82.455 23.3241 82.405 23.1341 82.375C22.9541 82.335 22.7241 82.315 22.4441 82.315C21.9841 82.315 21.5291 82.45 21.0791 82.72C20.6391 82.99 20.2591 83.46 19.9391 84.13V88H17.7341V80.56ZM26.1733 80.56H31.3633V88H29.1583V82.285H26.1733V80.56ZM30.1633 79.465C29.7333 79.465 29.3783 79.345 29.0983 79.105C28.8283 78.865 28.6933 78.54 28.6933 78.13C28.6933 77.72 28.8283 77.39 29.0983 77.14C29.3783 76.88 29.7333 76.75 30.1633 76.75C30.5933 76.75 30.9433 76.88 31.2133 77.14C31.4933 77.39 31.6333 77.72 31.6333 78.13C31.6333 78.54 31.4933 78.865 31.2133 79.105C30.9433 79.345 30.5933 79.465 30.1633 79.465ZM35.0624 80.56H36.8624L37.0274 81.55H37.0874C37.4074 81.23 37.7724 80.955 38.1824 80.725C38.6024 80.495 39.0924 80.38 39.6524 80.38C40.4924 80.38 41.1074 80.65 41.4974 81.19C41.8874 81.73 42.0824 82.47 42.0824 83.41V88H39.8774V83.695C39.8774 83.195 39.7974 82.83 39.6374 82.6C39.4774 82.37 39.1924 82.255 38.7824 82.255C38.4824 82.255 38.2174 82.32 37.9874 82.45C37.7674 82.58 37.5274 82.775 37.2674 83.035V88H35.0624V80.56ZM45.5866 82.285H43.7116V80.65L45.6916 80.56L45.9766 78.58H47.7916V80.56H50.9416V82.285H47.7916V84.895C47.7916 85.465 47.9166 85.87 48.1666 86.11C48.4166 86.34 48.8116 86.455 49.3516 86.455C49.6416 86.455 49.9066 86.43 50.1466 86.38C50.3866 86.33 50.6166 86.265 50.8366 86.185L51.2266 87.775C50.8966 87.875 50.5266 87.965 50.1166 88.045C49.7166 88.135 49.2766 88.18 48.7966 88.18C48.2066 88.18 47.7066 88.1 47.2966 87.94C46.8866 87.78 46.5516 87.56 46.2916 87.28C46.0416 86.99 45.8616 86.645 45.7516 86.245C45.6416 85.845 45.5866 85.4 45.5866 84.91V82.285ZM10.285 145.585V147.76H8.08V137.56H9.88L10.045 138.31H10.09C10.39 138.04 10.735 137.82 11.125 137.65C11.515 137.47 11.91 137.38 12.31 137.38C12.77 137.38 13.185 137.47 13.555 137.65C13.925 137.83 14.24 138.085 14.5 138.415C14.76 138.745 14.955 139.145 15.085 139.615C15.225 140.075 15.295 140.59 15.295 141.16C15.295 141.8 15.205 142.37 15.025 142.87C14.845 143.36 14.605 143.78 14.305 144.13C14.005 144.47 13.66 144.73 13.27 144.91C12.89 145.09 12.49 145.18 12.07 145.18C11.39 145.18 10.77 144.91 10.21 144.37L10.285 145.585ZM10.285 142.885C10.495 143.065 10.71 143.195 10.93 143.275C11.16 143.345 11.37 143.38 11.56 143.38C11.98 143.38 12.33 143.21 12.61 142.87C12.89 142.52 13.03 141.96 13.03 141.19C13.03 139.85 12.575 139.18 11.665 139.18C11.195 139.18 10.735 139.41 10.285 139.87V142.885ZM17.7341 137.56H19.5341L19.7141 139.18H19.7591C20.1291 138.57 20.5741 138.12 21.0941 137.83C21.6141 137.53 22.1741 137.38 22.7741 137.38C23.1041 137.38 23.3691 137.405 23.5691 137.455C23.7791 137.505 23.9941 137.58 24.2141 137.68L23.7641 139.525C23.5341 139.455 23.3241 139.405 23.1341 139.375C22.9541 139.335 22.7241 139.315 22.4441 139.315C21.9841 139.315 21.5291 139.45 21.0791 139.72C20.6391 139.99 20.2591 140.46 19.9391 141.13V145H17.7341V137.56ZM26.1733 137.56H31.3633V145H29.1583V139.285H26.1733V137.56ZM30.1633 136.465C29.7333 136.465 29.3783 136.345 29.0983 136.105C28.8283 135.865 28.6933 135.54 28.6933 135.13C28.6933 134.72 28.8283 134.39 29.0983 134.14C29.3783 133.88 29.7333 133.75 30.1633 133.75C30.5933 133.75 30.9433 133.88 31.2133 134.14C31.4933 134.39 31.6333 134.72 31.6333 135.13C31.6333 135.54 31.4933 135.865 31.2133 136.105C30.9433 136.345 30.5933 136.465 30.1633 136.465ZM35.0624 137.56H36.8624L37.0274 138.55H37.0874C37.4074 138.23 37.7724 137.955 38.1824 137.725C38.6024 137.495 39.0924 137.38 39.6524 137.38C40.4924 137.38 41.1074 137.65 41.4974 138.19C41.8874 138.73 42.0824 139.47 42.0824 140.41V145H39.8774V140.695C39.8774 140.195 39.7974 139.83 39.6374 139.6C39.4774 139.37 39.1924 139.255 38.7824 139.255C38.4824 139.255 38.2174 139.32 37.9874 139.45C37.7674 139.58 37.5274 139.775 37.2674 140.035V145H35.0624V137.56ZM45.5866 139.285H43.7116V137.65L45.6916 137.56L45.9766 135.58H47.7916V137.56H50.9416V139.285H47.7916V141.895C47.7916 142.465 47.9166 142.87 48.1666 143.11C48.4166 143.34 48.8116 143.455 49.3516 143.455C49.6416 143.455 49.9066 143.43 50.1466 143.38C50.3866 143.33 50.6166 143.265 50.8366 143.185L51.2266 144.775C50.8966 144.875 50.5266 144.965 50.1166 145.045C49.7166 145.135 49.2766 145.18 48.7966 145.18C48.2066 145.18 47.7066 145.1 47.2966 144.94C46.8866 144.78 46.5516 144.56 46.2916 144.28C46.0416 143.99 45.8616 143.645 45.7516 143.245C45.6416 142.845 45.5866 142.4 45.5866 141.91V139.285Z" fill="#56B4E9"/>
<path d="M26.0383 43.53H32.9383V45.09H26.0383V43.53ZM26.0383 46.995H32.9383V48.555H26.0383V46.995ZM82.6431 83.83H80.0031V82.27H82.6431V79.51H84.2631V82.27H86.9031V83.83H84.2631V86.59H82.6431V83.83ZM26.0383 118.53H32.9383V120.09H26.0383V118.53ZM26.0383 121.995H32.9383V123.555H26.0383V121.995ZM64.6548 121.83H62.0148V120.27H64.6548V117.51H66.2748V120.27H68.9148V121.83H66.2748V124.59H64.6548V121.83Z" fill="#E0E0E0"/>
<path d="M44.6266 48.435C44.9466 48.715 45.3016 48.945 45.6916 49.125C46.0916 49.305 46.5116 49.395 46.9516 49.395C47.4716 49.395 47.8966 49.3 48.2266 49.11C48.5666 48.91 48.7366 48.63 48.7366 48.27C48.7366 48.06 48.6916 47.87 48.6016 47.7C48.5116 47.53 48.3566 47.39 48.1366 47.28C47.9166 47.16 47.6216 47.07 47.2516 47.01C46.8816 46.94 46.4166 46.905 45.8566 46.905V45.345C46.7966 45.345 47.4566 45.23 47.8366 45C48.2266 44.76 48.4216 44.45 48.4216 44.07C48.4216 43.74 48.2966 43.485 48.0466 43.305C47.7966 43.115 47.4516 43.02 47.0116 43.02C46.6316 43.02 46.2816 43.095 45.9616 43.245C45.6416 43.395 45.3166 43.6 44.9866 43.86L43.8766 42.51C44.3466 42.13 44.8466 41.835 45.3766 41.625C45.9166 41.405 46.4966 41.295 47.1166 41.295C47.6366 41.295 48.1116 41.355 48.5416 41.475C48.9716 41.585 49.3416 41.755 49.6516 41.985C49.9616 42.205 50.2016 42.475 50.3716 42.795C50.5416 43.115 50.6266 43.485 50.6266 43.905C50.6266 44.405 50.4666 44.83 50.1466 45.18C49.8266 45.52 49.3816 45.8 48.8116 46.02V46.08C49.4116 46.24 49.9166 46.515 50.3266 46.905C50.7366 47.285 50.9416 47.785 50.9416 48.405C50.9416 48.845 50.8366 49.24 50.6266 49.59C50.4266 49.93 50.1516 50.22 49.8016 50.46C49.4616 50.69 49.0616 50.87 48.6016 51C48.1416 51.12 47.6616 51.18 47.1616 51.18C46.3416 51.18 45.6366 51.06 45.0466 50.82C44.4566 50.57 43.9766 50.24 43.6066 49.83L44.6266 48.435ZM56.4707 51.18C55.9207 51.18 55.4207 51.075 54.9707 50.865C54.5207 50.645 54.1357 50.325 53.8157 49.905C53.4957 49.485 53.2457 48.965 53.0657 48.345C52.8957 47.725 52.8107 47.01 52.8107 46.2C52.8107 45.39 52.8957 44.68 53.0657 44.07C53.2457 43.46 53.4957 42.95 53.8157 42.54C54.1357 42.12 54.5207 41.81 54.9707 41.61C55.4207 41.4 55.9207 41.295 56.4707 41.295C57.0207 41.295 57.5207 41.4 57.9707 41.61C58.4207 41.81 58.8057 42.12 59.1257 42.54C59.4457 42.95 59.6907 43.46 59.8607 44.07C60.0407 44.68 60.1307 45.39 60.1307 46.2C60.1307 47.01 60.0407 47.725 59.8607 48.345C59.6907 48.965 59.4457 49.485 59.1257 49.905C58.8057 50.325 58.4207 50.645 57.9707 50.865C57.5207 51.075 57.0207 51.18 56.4707 51.18ZM56.4707 43.005C56.2307 43.005 56.0057 43.055 55.7957 43.155C55.5957 43.255 55.4207 43.43 55.2707 43.68C55.1207 43.92 55.0007 44.245 54.9107 44.655C54.8207 45.065 54.7757 45.58 54.7757 46.2C54.7757 46.82 54.8207 47.34 54.9107 47.76C55.0007 48.17 55.1207 48.505 55.2707 48.765C55.4207 49.015 55.5957 49.195 55.7957 49.305C56.0057 49.415 56.2307 49.47 56.4707 49.47C56.7107 49.47 56.9307 49.415 57.1307 49.305C57.3407 49.195 57.5207 49.015 57.6707 48.765C57.8207 48.505 57.9407 48.17 58.0307 47.76C58.1207 47.34 58.1657 46.82 58.1657 46.2C58.1657 45.58 58.1207 45.065 58.0307 44.655C57.9407 44.245 57.8207 43.92 57.6707 43.68C57.5207 43.43 57.3407 43.255 57.1307 43.155C56.9307 43.055 56.7107 43.005 56.4707 43.005ZM56.4707 47.31C56.1507 47.31 55.8807 47.21 55.6607 47.01C55.4507 46.8 55.3457 46.52 55.3457 46.17C55.3457 45.82 55.4507 45.545 55.6607 45.345C55.8807 45.135 56.1507 45.03 56.4707 45.03C56.7907 45.03 57.0557 45.135 57.2657 45.345C57.4857 45.545 57.5957 45.82 57.5957 46.17C57.5957 46.52 57.4857 46.8 57.2657 47.01C57.0557 47.21 56.7907 47.31 56.4707 47.31ZM99.8364 88C99.8764 87.21 99.9514 86.485 100.061 85.825C100.181 85.155 100.346 84.52 100.556 83.92C100.776 83.31 101.056 82.72 101.396 82.15C101.736 81.57 102.156 80.965 102.656 80.335H97.8714V78.475H105.026V79.825C104.426 80.495 103.941 81.125 103.571 81.715C103.201 82.295 102.911 82.9 102.701 83.53C102.491 84.15 102.341 84.82 102.251 85.54C102.161 86.25 102.096 87.07 102.056 88H99.8364ZM110.436 88.18C109.886 88.18 109.386 88.075 108.936 87.865C108.486 87.645 108.101 87.325 107.781 86.905C107.461 86.485 107.211 85.965 107.031 85.345C106.861 84.725 106.776 84.01 106.776 83.2C106.776 82.39 106.861 81.68 107.031 81.07C107.211 80.46 107.461 79.95 107.781 79.54C108.101 79.12 108.486 78.81 108.936 78.61C109.386 78.4 109.886 78.295 110.436 78.295C110.986 78.295 111.486 78.4 111.936 78.61C112.386 78.81 112.771 79.12 113.091 79.54C113.411 79.95 113.656 80.46 113.826 81.07C114.006 81.68 114.096 82.39 114.096 83.2C114.096 84.01 114.006 84.725 113.826 85.345C113.656 85.965 113.411 86.485 113.091 86.905C112.771 87.325 112.386 87.645 111.936 87.865C111.486 88.075 110.986 88.18 110.436 88.18ZM110.436 80.005C110.196 80.005 109.971 80.055 109.761 80.155C109.561 80.255 109.386 80.43 109.236 80.68C109.086 80.92 108.966 81.245 108.876 81.655C108.786 82.065 108.741 82.58 108.741 83.2C108.741 83.82 108.786 84.34 108.876 84.76C108.966 85.17 109.086 85.505 109.236 85.765C109.386 86.015 109.561 86.195 109.761 86.305C109.971 86.415 110.196 86.47 110.436 86.47C110.676 86.47 110.896 86.415 111.096 86.305C111.306 86.195 111.486 86.015 111.636 85.765C111.786 85.505 111.906 85.17 111.996 84.76C112.086 84.34 112.131 83.82 112.131 83.2C112.131 82.58 112.086 82.065 111.996 81.655C111.906 81.245 111.786 80.92 111.636 80.68C111.486 80.43 111.306 80.255 111.096 80.155C110.896 80.055 110.676 80.005 110.436 80.005ZM110.436 84.31C110.116 84.31 109.846 84.21 109.626 84.01C109.416 83.8 109.311 83.52 109.311 83.17C109.311 82.82 109.416 82.545 109.626 82.345C109.846 82.135 110.116 82.03 110.436 82.03C110.756 82.03 111.021 82.135 111.231 82.345C111.451 82.545 111.561 82.82 111.561 83.17C111.561 83.52 111.451 83.8 111.231 84.01C111.021 84.21 110.756 84.31 110.436 84.31ZM81.8481 126C81.8881 125.21 81.9631 124.485 82.0731 123.825C82.1931 123.155 82.3581 122.52 82.5681 121.92C82.7881 121.31 83.0681 120.72 83.4081 120.15C83.7481 119.57 84.1681 118.965 84.6681 118.335H79.8831V116.475H87.0381V117.825C86.4381 118.495 85.9531 119.125 85.5831 119.715C85.2131 120.295 84.9231 120.9 84.7131 121.53C84.5031 122.15 84.3531 122.82 84.2631 123.54C84.1731 124.25 84.1081 125.07 84.0681 126H81.8481ZM92.4473 126.18C91.8973 126.18 91.3973 126.075 90.9473 125.865C90.4973 125.645 90.1123 125.325 89.7923 124.905C89.4723 124.485 89.2223 123.965 89.0423 123.345C88.8723 122.725 88.7873 122.01 88.7873 121.2C88.7873 120.39 88.8723 119.68 89.0423 119.07C89.2223 118.46 89.4723 117.95 89.7923 117.54C90.1123 117.12 90.4973 116.81 90.9473 116.61C91.3973 116.4 91.8973 116.295 92.4473 116.295C92.9973 116.295 93.4973 116.4 93.9473 116.61C94.3973 116.81 94.7823 117.12 95.1023 117.54C95.4223 117.95 95.6673 118.46 95.8373 119.07C96.0173 119.68 96.1073 120.39 96.1073 121.2C96.1073 122.01 96.0173 122.725 95.8373 123.345C95.6673 123.965 95.4223 124.485 95.1023 124.905C94.7823 125.325 94.3973 125.645 93.9473 125.865C93.4973 126.075 92.9973 126.18 92.4473 126.18ZM92.4473 118.005C92.2073 118.005 91.9823 118.055 91.7723 118.155C91.5723 118.255 91.3973 118.43 91.2473 118.68C91.0973 118.92 90.9773 119.245 90.8873 119.655C90.7973 120.065 90.7523 120.58 90.7523 121.2C90.7523 121.82 90.7973 122.34 90.8873 122.76C90.9773 123.17 91.0973 123.505 91.2473 123.765C91.3973 124.015 91.5723 124.195 91.7723 124.305C91.9823 124.415 92.2073 124.47 92.4473 124.47C92.6873 124.47 92.9073 124.415 93.1073 124.305C93.3173 124.195 93.4973 124.015 93.6473 123.765C93.7973 123.505 93.9173 123.17 94.0073 122.76C94.0973 122.34 94.1423 121.82 94.1423 121.2C94.1423 120.58 94.0973 120.065 94.0073 119.655C93.9173 119.245 93.7973 118.92 93.6473 118.68C93.4973 118.43 93.3173 118.255 93.1073 118.155C92.9073 118.055 92.6873 118.005 92.4473 118.005ZM92.4473 122.31C92.1273 122.31 91.8573 122.21 91.6373 122.01C91.4273 121.8 91.3223 121.52 91.3223 121.17C91.3223 120.82 91.4273 120.545 91.6373 120.345C91.8573 120.135 92.1273 120.03 92.4473 120.03C92.7673 120.03 93.0323 120.135 93.2423 120.345C93.4623 120.545 93.5723 120.82 93.5723 121.17C93.5723 121.52 93.4623 121.8 93.2423 122.01C93.0323 122.21 92.7673 122.31 92.4473 122.31Z" fill="#F0E442"/>
</svg>
