<svg width="486" height="237" viewBox="0 0 486 237" fill="none" xmlns="http://www.w3.org/2000/svg">
<rect width="485" height="237" fill="black"/>
<rect x="79" width="406" height="31" fill="#333333"/>
<rect x="79" width="406" height="31" fill="#333333"/>
<rect width="79" height="31" fill="#090808"/>
<path d="M12.105 17.8101C12.105 17.5513 11.9756 17.3486 11.7168 17.2021C11.4629 17.0508 11.0527 16.9165 10.4863 16.7993C8.60156 16.4038 7.65918 15.603 7.65918 14.397C7.65918 13.6938 7.94971 13.1079 8.53076 12.6392C9.1167 12.1655 9.88086 11.9287 10.8232 11.9287C11.8291 11.9287 12.6323 12.1655 13.2329 12.6392C13.8384 13.1128 14.1411 13.728 14.1411 14.4849H12.0244C12.0244 14.1821 11.9268 13.9331 11.7314 13.7378C11.5361 13.5376 11.231 13.4375 10.8159 13.4375C10.4595 13.4375 10.1836 13.5181 9.98828 13.6792C9.79297 13.8403 9.69531 14.0454 9.69531 14.2944C9.69531 14.5288 9.80518 14.7192 10.0249 14.8657C10.2495 15.0073 10.6255 15.1318 11.1528 15.2393C11.6802 15.3418 12.1245 15.459 12.4858 15.5908C13.604 16.001 14.1631 16.7114 14.1631 17.7222C14.1631 18.4448 13.853 19.0308 13.2329 19.48C12.6128 19.9243 11.812 20.1465 10.8306 20.1465C10.1665 20.1465 9.57568 20.0293 9.05811 19.7949C8.54541 19.5557 8.14258 19.231 7.84961 18.8208C7.55664 18.4058 7.41016 17.959 7.41016 17.4805H9.41699C9.43652 17.8564 9.57568 18.1445 9.83447 18.3447C10.0933 18.5449 10.4399 18.645 10.8745 18.645C11.2798 18.645 11.585 18.5693 11.79 18.418C12 18.2617 12.105 18.0591 12.105 17.8101ZM18.8286 18.4399C19.2192 18.4399 19.5366 18.3325 19.7808 18.1177C20.0249 17.9028 20.1519 17.6172 20.1616 17.2607H22.1465C22.1416 17.7979 21.9951 18.291 21.707 18.7402C21.4189 19.1846 21.0234 19.5312 20.5205 19.7803C20.0225 20.0244 19.4707 20.1465 18.8652 20.1465C17.7324 20.1465 16.8389 19.7876 16.1846 19.0698C15.5303 18.3472 15.2031 17.3511 15.2031 16.0815V15.9424C15.2031 14.7217 15.5278 13.7476 16.1772 13.02C16.8267 12.2925 17.7178 11.9287 18.8506 11.9287C19.8418 11.9287 20.6353 12.2119 21.231 12.7783C21.8315 13.3398 22.1367 14.0894 22.1465 15.0269H20.1616C20.1519 14.6167 20.0249 14.2847 19.7808 14.0308C19.5366 13.772 19.2144 13.6426 18.814 13.6426C18.3208 13.6426 17.9473 13.8232 17.6934 14.1846C17.4443 14.541 17.3198 15.1221 17.3198 15.9277V16.1475C17.3198 16.9629 17.4443 17.5488 17.6934 17.9053C17.9424 18.2617 18.3208 18.4399 18.8286 18.4399ZM27.8081 14.0601C27.52 14.021 27.2661 14.0015 27.0464 14.0015C26.2456 14.0015 25.7207 14.2725 25.4717 14.8145V20H23.355V12.0752H25.3545L25.4131 13.02C25.8379 12.2925 26.4263 11.9287 27.1782 11.9287C27.4126 11.9287 27.6323 11.9604 27.8374 12.0239L27.8081 14.0601ZM31.0674 20H28.9434V12.0752H31.0674V20ZM28.8188 10.0244C28.8188 9.70703 28.9238 9.4458 29.1338 9.24072C29.3486 9.03564 29.6392 8.93311 30.0054 8.93311C30.3667 8.93311 30.6548 9.03564 30.8696 9.24072C31.0845 9.4458 31.1919 9.70703 31.1919 10.0244C31.1919 10.3467 31.082 10.6104 30.8623 10.8154C30.6475 11.0205 30.3618 11.123 30.0054 11.123C29.6489 11.123 29.3608 11.0205 29.1411 10.8154C28.9263 10.6104 28.8188 10.3467 28.8188 10.0244ZM39.9517 16.1108C39.9517 17.3315 39.6733 18.3105 39.1167 19.0479C38.5649 19.7803 37.8179 20.1465 36.8755 20.1465C36.0747 20.1465 35.4277 19.8682 34.9346 19.3115V23.0469H32.8179V12.0752H34.7808L34.854 12.8516C35.3667 12.2363 36.0356 11.9287 36.8608 11.9287C37.8374 11.9287 38.5967 12.29 39.1387 13.0127C39.6807 13.7354 39.9517 14.7314 39.9517 16.001V16.1108ZM37.835 15.957C37.835 15.2197 37.7031 14.6509 37.4395 14.2505C37.1807 13.8501 36.8022 13.6499 36.3042 13.6499C35.6401 13.6499 35.1836 13.9038 34.9346 14.4116V17.6562C35.1934 18.1787 35.6548 18.4399 36.3188 18.4399C37.3296 18.4399 37.835 17.6123 37.835 15.957ZM43.8042 10.127V12.0752H45.1592V13.6279H43.8042V17.583C43.8042 17.876 43.8604 18.0859 43.9727 18.2129C44.085 18.3398 44.2998 18.4033 44.6172 18.4033C44.8516 18.4033 45.0591 18.3862 45.2397 18.3521V19.9561C44.8247 20.083 44.3975 20.1465 43.958 20.1465C42.4736 20.1465 41.7168 19.397 41.6875 17.8979V13.6279H40.5303V12.0752H41.6875V10.127H43.8042ZM46.4482 18.96C46.4482 18.623 46.5605 18.3496 46.7852 18.1396C47.0146 17.9297 47.3003 17.8247 47.6421 17.8247C47.9888 17.8247 48.2744 17.9297 48.499 18.1396C48.7285 18.3496 48.8433 18.623 48.8433 18.96C48.8433 19.292 48.731 19.563 48.5063 19.7729C48.2817 19.978 47.9937 20.0806 47.6421 20.0806C47.2954 20.0806 47.0098 19.978 46.7852 19.7729C46.5605 19.563 46.4482 19.292 46.4482 18.96ZM57.8374 16.1108C57.8374 17.3315 57.5591 18.3105 57.0024 19.0479C56.4507 19.7803 55.7036 20.1465 54.7612 20.1465C53.9604 20.1465 53.3135 19.8682 52.8203 19.3115V23.0469H50.7036V12.0752H52.6665L52.7397 12.8516C53.2524 12.2363 53.9214 11.9287 54.7466 11.9287C55.7231 11.9287 56.4824 12.29 57.0244 13.0127C57.5664 13.7354 57.8374 14.7314 57.8374 16.001V16.1108ZM55.7207 15.957C55.7207 15.2197 55.5889 14.6509 55.3252 14.2505C55.0664 13.8501 54.688 13.6499 54.1899 13.6499C53.5259 13.6499 53.0693 13.9038 52.8203 14.4116V17.6562C53.0791 18.1787 53.5405 18.4399 54.2046 18.4399C55.2153 18.4399 55.7207 17.6123 55.7207 15.957ZM62.0269 17.0044L63.4917 12.0752H65.7622L62.5762 21.2305L62.4004 21.6479C61.9268 22.6831 61.1455 23.2007 60.0566 23.2007C59.749 23.2007 59.4365 23.1543 59.1191 23.0615V21.4575L59.4414 21.4648C59.8418 21.4648 60.1396 21.4038 60.335 21.2817C60.5352 21.1597 60.6914 20.957 60.8037 20.6738L61.0527 20.022L58.2769 12.0752H60.5547L62.0269 17.0044Z" fill="white"/>
<path d="M7.705 47.28C7.705 46.67 7.795 46.125 7.975 45.645C8.155 45.165 8.39 44.76 8.68 44.43C8.98 44.09 9.32 43.83 9.7 43.65C10.08 43.47 10.475 43.38 10.885 43.38C11.315 43.38 11.675 43.455 11.965 43.605C12.255 43.745 12.53 43.935 12.79 44.175L12.715 43.02V40.485H14.92V51H13.12L12.955 50.235H12.91C12.63 50.505 12.31 50.73 11.95 50.91C11.59 51.09 11.22 51.18 10.84 51.18C10.37 51.18 9.94 51.09 9.55 50.91C9.17 50.73 8.84 50.475 8.56 50.145C8.29 49.805 8.08 49.395 7.93 48.915C7.78 48.435 7.705 47.89 7.705 47.28ZM9.97 47.25C9.97 47.99 10.095 48.53 10.345 48.87C10.595 49.21 10.95 49.38 11.41 49.38C11.66 49.38 11.89 49.33 12.1 49.23C12.31 49.12 12.515 48.94 12.715 48.69V45.675C12.515 45.495 12.31 45.37 12.1 45.3C11.9 45.22 11.69 45.18 11.47 45.18C11.06 45.18 10.705 45.35 10.405 45.69C10.115 46.03 9.97 46.55 9.97 47.25ZM24.0941 51.81V53.46H16.8941V51.81H24.0941ZM33.0433 49.215V51H26.2183V49.215H28.6783V43.71H26.7133V42.345C27.2733 42.245 27.7483 42.125 28.1383 41.985C28.5383 41.845 28.9133 41.675 29.2633 41.475H30.8833V49.215H33.0433ZM44.0266 43.53H50.9266V45.09H44.0266V43.53ZM44.0266 46.995H50.9266V48.555H44.0266V46.995ZM64.4598 51.15C64.4598 50.88 64.4648 50.64 64.4748 50.43C64.4948 50.22 64.5148 50.02 64.5348 49.83C64.5548 49.63 64.5698 49.435 64.5798 49.245C64.5998 49.045 64.6098 48.825 64.6098 48.585C64.6098 48.455 64.5798 48.325 64.5198 48.195C64.4598 48.065 64.3498 47.95 64.1898 47.85C64.0298 47.74 63.8148 47.655 63.5448 47.595C63.2848 47.525 62.9548 47.485 62.5548 47.475V46.185C62.9548 46.175 63.2848 46.14 63.5448 46.08C63.8148 46.01 64.0298 45.925 64.1898 45.825C64.3498 45.715 64.4598 45.595 64.5198 45.465C64.5798 45.335 64.6098 45.205 64.6098 45.075C64.6098 44.845 64.5998 44.63 64.5798 44.43C64.5698 44.23 64.5548 44.035 64.5348 43.845C64.5148 43.645 64.4948 43.44 64.4748 43.23C64.4648 43.01 64.4598 42.77 64.4598 42.51C64.4598 41.7 64.6848 41.145 65.1348 40.845C65.5848 40.535 66.2898 40.38 67.2498 40.38H68.4048V41.55H67.7898C67.4798 41.55 67.2248 41.565 67.0248 41.595C66.8248 41.625 66.6698 41.68 66.5598 41.76C66.4498 41.84 66.3698 41.95 66.3198 42.09C66.2798 42.22 66.2598 42.39 66.2598 42.6C66.2598 43 66.2698 43.395 66.2898 43.785C66.3198 44.175 66.3348 44.595 66.3348 45.045C66.3348 45.615 66.2198 46.03 65.9898 46.29C65.7598 46.54 65.3748 46.71 64.8348 46.8V46.86C65.3748 46.95 65.7598 47.125 65.9898 47.385C66.2198 47.635 66.3348 48.045 66.3348 48.615C66.3348 49.075 66.3198 49.495 66.2898 49.875C66.2698 50.255 66.2598 50.65 66.2598 51.06C66.2598 51.27 66.2798 51.44 66.3198 51.57C66.3698 51.71 66.4498 51.82 66.5598 51.9C66.6698 51.98 66.8248 52.035 67.0248 52.065C67.2248 52.095 67.4798 52.11 67.7898 52.11H68.4048V53.28H67.2498C66.2898 53.28 65.5848 53.125 65.1348 52.815C64.6848 52.515 64.4598 51.96 64.4598 51.15ZM135.678 44.58C135.678 44.33 135.718 44.1 135.798 43.89C135.888 43.67 136.008 43.48 136.158 43.32C136.308 43.16 136.488 43.035 136.698 42.945C136.918 42.855 137.158 42.81 137.418 42.81C137.678 42.81 137.913 42.855 138.123 42.945C138.343 43.035 138.528 43.16 138.678 43.32C138.828 43.48 138.943 43.67 139.023 43.89C139.113 44.1 139.158 44.33 139.158 44.58C139.158 45.08 138.998 45.5 138.678 45.84C138.358 46.17 137.938 46.335 137.418 46.335C136.898 46.335 136.478 46.17 136.158 45.84C135.838 45.5 135.678 45.08 135.678 44.58ZM135.678 49.425C135.678 49.175 135.718 48.945 135.798 48.735C135.888 48.515 136.008 48.325 136.158 48.165C136.308 48.005 136.488 47.88 136.698 47.79C136.918 47.7 137.158 47.655 137.418 47.655C137.678 47.655 137.913 47.7 138.123 47.79C138.343 47.88 138.528 48.005 138.678 48.165C138.828 48.325 138.943 48.515 139.023 48.735C139.113 48.945 139.158 49.175 139.158 49.425C139.158 49.925 138.998 50.345 138.678 50.685C138.358 51.015 137.938 51.18 137.418 51.18C136.898 51.18 136.478 51.015 136.158 50.685C135.838 50.345 135.678 49.925 135.678 49.425ZM162.63 52.965C163.93 52.515 164.58 51.805 164.58 50.835C164.54 50.845 164.485 50.85 164.415 50.85C164.205 50.85 164 50.82 163.8 50.76C163.61 50.69 163.44 50.59 163.29 50.46C163.14 50.33 163.02 50.17 162.93 49.98C162.84 49.79 162.795 49.57 162.795 49.32C162.795 48.85 162.955 48.475 163.275 48.195C163.605 47.915 164.005 47.775 164.475 47.775C165.095 47.775 165.56 48.005 165.87 48.465C166.18 48.915 166.335 49.545 166.335 50.355C166.335 51.315 166.07 52.125 165.54 52.785C165.01 53.445 164.225 53.935 163.185 54.255L162.63 52.965ZM181.189 61.9L181.114 59.725H183.664L183.589 61.9L183.064 65.455H181.714L181.189 61.9ZM189.643 63.58C189.643 63.33 189.683 63.1 189.763 62.89C189.853 62.67 189.973 62.48 190.123 62.32C190.273 62.16 190.453 62.035 190.663 61.945C190.883 61.855 191.123 61.81 191.383 61.81C191.643 61.81 191.878 61.855 192.088 61.945C192.308 62.035 192.493 62.16 192.643 62.32C192.793 62.48 192.908 62.67 192.988 62.89C193.078 63.1 193.123 63.33 193.123 63.58C193.123 64.08 192.963 64.5 192.643 64.84C192.323 65.17 191.903 65.335 191.383 65.335C190.863 65.335 190.443 65.17 190.123 64.84C189.803 64.5 189.643 64.08 189.643 63.58ZM189.643 68.425C189.643 68.175 189.683 67.945 189.763 67.735C189.853 67.515 189.973 67.325 190.123 67.165C190.273 67.005 190.453 66.88 190.663 66.79C190.883 66.7 191.123 66.655 191.383 66.655C191.643 66.655 191.878 66.7 192.088 66.79C192.308 66.88 192.493 67.005 192.643 67.165C192.793 67.325 192.908 67.515 192.988 67.735C193.078 67.945 193.123 68.175 193.123 68.425C193.123 68.925 192.963 69.345 192.643 69.685C192.323 70.015 191.903 70.18 191.383 70.18C190.863 70.18 190.443 70.015 190.123 69.685C189.803 69.345 189.643 68.925 189.643 68.425ZM216.595 71.965C217.895 71.515 218.545 70.805 218.545 69.835C218.505 69.845 218.45 69.85 218.38 69.85C218.17 69.85 217.965 69.82 217.765 69.76C217.575 69.69 217.405 69.59 217.255 69.46C217.105 69.33 216.985 69.17 216.895 68.98C216.805 68.79 216.76 68.57 216.76 68.32C216.76 67.85 216.92 67.475 217.24 67.195C217.57 66.915 217.97 66.775 218.44 66.775C219.06 66.775 219.525 67.005 219.835 67.465C220.145 67.915 220.3 68.545 220.3 69.355C220.3 70.315 220.035 71.125 219.505 71.785C218.975 72.445 218.19 72.935 217.15 73.255L216.595 71.965ZM135.678 81.58C135.678 81.33 135.718 81.1 135.798 80.89C135.888 80.67 136.008 80.48 136.158 80.32C136.308 80.16 136.488 80.035 136.698 79.945C136.918 79.855 137.158 79.81 137.418 79.81C137.678 79.81 137.913 79.855 138.123 79.945C138.343 80.035 138.528 80.16 138.678 80.32C138.828 80.48 138.943 80.67 139.023 80.89C139.113 81.1 139.158 81.33 139.158 81.58C139.158 82.08 138.998 82.5 138.678 82.84C138.358 83.17 137.938 83.335 137.418 83.335C136.898 83.335 136.478 83.17 136.158 82.84C135.838 82.5 135.678 82.08 135.678 81.58ZM135.678 86.425C135.678 86.175 135.718 85.945 135.798 85.735C135.888 85.515 136.008 85.325 136.158 85.165C136.308 85.005 136.488 84.88 136.698 84.79C136.918 84.7 137.158 84.655 137.418 84.655C137.678 84.655 137.913 84.7 138.123 84.79C138.343 84.88 138.528 85.005 138.678 85.165C138.828 85.325 138.943 85.515 139.023 85.735C139.113 85.945 139.158 86.175 139.158 86.425C139.158 86.925 138.998 87.345 138.678 87.685C138.358 88.015 137.938 88.18 137.418 88.18C136.898 88.18 136.478 88.015 136.158 87.685C135.838 87.345 135.678 86.925 135.678 86.425ZM162.63 89.965C163.93 89.515 164.58 88.805 164.58 87.835C164.54 87.845 164.485 87.85 164.415 87.85C164.205 87.85 164 87.82 163.8 87.76C163.61 87.69 163.44 87.59 163.29 87.46C163.14 87.33 163.02 87.17 162.93 86.98C162.84 86.79 162.795 86.57 162.795 86.32C162.795 85.85 162.955 85.475 163.275 85.195C163.605 84.915 164.005 84.775 164.475 84.775C165.095 84.775 165.56 85.005 165.87 85.465C166.18 85.915 166.335 86.545 166.335 87.355C166.335 88.315 166.07 89.125 165.54 89.785C165.01 90.445 164.225 90.935 163.185 91.255L162.63 89.965ZM225.619 100.58C225.619 100.33 225.659 100.1 225.739 99.89C225.829 99.67 225.949 99.48 226.099 99.32C226.249 99.16 226.429 99.035 226.639 98.945C226.859 98.855 227.099 98.81 227.359 98.81C227.619 98.81 227.854 98.855 228.064 98.945C228.284 99.035 228.469 99.16 228.619 99.32C228.769 99.48 228.884 99.67 228.964 99.89C229.054 100.1 229.099 100.33 229.099 100.58C229.099 101.08 228.939 101.5 228.619 101.84C228.299 102.17 227.879 102.335 227.359 102.335C226.839 102.335 226.419 102.17 226.099 101.84C225.779 101.5 225.619 101.08 225.619 100.58ZM225.619 105.425C225.619 105.175 225.659 104.945 225.739 104.735C225.829 104.515 225.949 104.325 226.099 104.165C226.249 104.005 226.429 103.88 226.639 103.79C226.859 103.7 227.099 103.655 227.359 103.655C227.619 103.655 227.854 103.7 228.064 103.79C228.284 103.88 228.469 104.005 228.619 104.165C228.769 104.325 228.884 104.515 228.964 104.735C229.054 104.945 229.099 105.175 229.099 105.425C229.099 105.925 228.939 106.345 228.619 106.685C228.299 107.015 227.879 107.18 227.359 107.18C226.839 107.18 226.419 107.015 226.099 106.685C225.779 106.345 225.619 105.925 225.619 105.425ZM252.572 108.965C253.872 108.515 254.522 107.805 254.522 106.835C254.482 106.845 254.427 106.85 254.357 106.85C254.147 106.85 253.942 106.82 253.742 106.76C253.552 106.69 253.382 106.59 253.232 106.46C253.082 106.33 252.962 106.17 252.872 105.98C252.782 105.79 252.737 105.57 252.737 105.32C252.737 104.85 252.897 104.475 253.217 104.195C253.547 103.915 253.947 103.775 254.417 103.775C255.037 103.775 255.502 104.005 255.812 104.465C256.122 104.915 256.277 105.545 256.277 106.355C256.277 107.315 256.012 108.125 255.482 108.785C254.952 109.445 254.167 109.935 253.127 110.255L252.572 108.965ZM135.678 119.58C135.678 119.33 135.718 119.1 135.798 118.89C135.888 118.67 136.008 118.48 136.158 118.32C136.308 118.16 136.488 118.035 136.698 117.945C136.918 117.855 137.158 117.81 137.418 117.81C137.678 117.81 137.913 117.855 138.123 117.945C138.343 118.035 138.528 118.16 138.678 118.32C138.828 118.48 138.943 118.67 139.023 118.89C139.113 119.1 139.158 119.33 139.158 119.58C139.158 120.08 138.998 120.5 138.678 120.84C138.358 121.17 137.938 121.335 137.418 121.335C136.898 121.335 136.478 121.17 136.158 120.84C135.838 120.5 135.678 120.08 135.678 119.58ZM135.678 124.425C135.678 124.175 135.718 123.945 135.798 123.735C135.888 123.515 136.008 123.325 136.158 123.165C136.308 123.005 136.488 122.88 136.698 122.79C136.918 122.7 137.158 122.655 137.418 122.655C137.678 122.655 137.913 122.7 138.123 122.79C138.343 122.88 138.528 123.005 138.678 123.165C138.828 123.325 138.943 123.515 139.023 123.735C139.113 123.945 139.158 124.175 139.158 124.425C139.158 124.925 138.998 125.345 138.678 125.685C138.358 126.015 137.938 126.18 137.418 126.18C136.898 126.18 136.478 126.015 136.158 125.685C135.838 125.345 135.678 124.925 135.678 124.425ZM162.09 127.11C162.4 127.11 162.65 127.095 162.84 127.065C163.04 127.035 163.195 126.98 163.305 126.9C163.415 126.82 163.49 126.71 163.53 126.57C163.58 126.44 163.605 126.27 163.605 126.06C163.605 125.65 163.595 125.255 163.575 124.875C163.555 124.495 163.545 124.075 163.545 123.615C163.545 123.045 163.66 122.635 163.89 122.385C164.12 122.125 164.505 121.95 165.045 121.86V121.8C164.505 121.71 164.12 121.54 163.89 121.29C163.66 121.03 163.545 120.615 163.545 120.045C163.545 119.595 163.555 119.175 163.575 118.785C163.595 118.395 163.605 118 163.605 117.6C163.605 117.39 163.58 117.22 163.53 117.09C163.49 116.95 163.415 116.84 163.305 116.76C163.195 116.68 163.04 116.625 162.84 116.595C162.65 116.565 162.4 116.55 162.09 116.55H161.475V115.38H162.63C163.59 115.38 164.295 115.535 164.745 115.845C165.195 116.145 165.42 116.7 165.42 117.51C165.42 117.77 165.41 118.01 165.39 118.23C165.38 118.44 165.36 118.645 165.33 118.845C165.31 119.035 165.29 119.23 165.27 119.43C165.26 119.63 165.255 119.845 165.255 120.075C165.255 120.205 165.285 120.335 165.345 120.465C165.405 120.595 165.515 120.715 165.675 120.825C165.835 120.925 166.045 121.01 166.305 121.08C166.575 121.14 166.915 121.175 167.325 121.185V122.475C166.915 122.485 166.575 122.525 166.305 122.595C166.045 122.655 165.835 122.74 165.675 122.85C165.515 122.95 165.405 123.065 165.345 123.195C165.285 123.325 165.255 123.455 165.255 123.585C165.255 123.825 165.26 124.045 165.27 124.245C165.29 124.435 165.31 124.63 165.33 124.83C165.36 125.02 165.38 125.22 165.39 125.43C165.41 125.64 165.42 125.88 165.42 126.15C165.42 126.96 165.195 127.515 164.745 127.815C164.295 128.125 163.59 128.28 162.63 128.28H161.475V127.11H162.09ZM57.8507 166.685C56.8707 165.815 56.0957 164.81 55.5257 163.67C54.9657 162.53 54.6857 161.25 54.6857 159.83C54.6857 158.41 54.9657 157.13 55.5257 155.99C56.0957 154.85 56.8707 153.845 57.8507 152.975L59.0807 153.95C58.1907 154.82 57.5407 155.725 57.1307 156.665C56.7307 157.595 56.5307 158.65 56.5307 159.83C56.5307 160.42 56.5807 160.98 56.6807 161.51C56.7807 162.03 56.9307 162.53 57.1307 163.01C57.3407 163.49 57.6057 163.95 57.9257 164.39C58.2457 164.84 58.6307 165.28 59.0807 165.71L57.8507 166.685ZM61.6698 160.28C61.6698 159.67 61.7598 159.125 61.9398 158.645C62.1198 158.165 62.3548 157.76 62.6448 157.43C62.9448 157.09 63.2848 156.83 63.6648 156.65C64.0448 156.47 64.4398 156.38 64.8498 156.38C65.2798 156.38 65.6398 156.455 65.9298 156.605C66.2198 156.745 66.4948 156.935 66.7548 157.175L66.6798 156.02V153.485H68.8848V164H67.0848L66.9198 163.235H66.8748C66.5948 163.505 66.2748 163.73 65.9148 163.91C65.5548 164.09 65.1848 164.18 64.8048 164.18C64.3348 164.18 63.9048 164.09 63.5148 163.91C63.1348 163.73 62.8048 163.475 62.5248 163.145C62.2548 162.805 62.0448 162.395 61.8948 161.915C61.7448 161.435 61.6698 160.89 61.6698 160.28ZM63.9348 160.25C63.9348 160.99 64.0598 161.53 64.3098 161.87C64.5598 162.21 64.9148 162.38 65.3748 162.38C65.6248 162.38 65.8548 162.33 66.0648 162.23C66.2748 162.12 66.4798 161.94 66.6798 161.69V158.675C66.4798 158.495 66.2748 158.37 66.0648 158.3C65.8648 158.22 65.6548 158.18 65.4348 158.18C65.0248 158.18 64.6698 158.35 64.3698 158.69C64.0798 159.03 63.9348 159.55 63.9348 160.25ZM78.059 164.81V166.46H70.859V164.81H78.059ZM87.0081 162.215V164H80.1831V162.215H82.6431V156.71H80.6781V155.345C81.2381 155.245 81.7131 155.125 82.1031 154.985C82.5031 154.845 82.8781 154.675 83.2281 154.475H84.8481V162.215H87.0081ZM89.8373 165.71C90.2873 165.28 90.6723 164.84 90.9923 164.39C91.3123 163.95 91.5723 163.49 91.7723 163.01C91.9823 162.53 92.1373 162.03 92.2373 161.51C92.3373 160.98 92.3873 160.42 92.3873 159.83C92.3873 158.65 92.1823 157.595 91.7723 156.665C91.3723 155.725 90.7273 154.82 89.8373 153.95L91.0673 152.975C92.0473 153.845 92.8173 154.85 93.3773 155.99C93.9473 157.13 94.2323 158.41 94.2323 159.83C94.2323 161.25 93.9473 162.53 93.3773 163.67C92.8173 164.81 92.0473 165.815 91.0673 166.685L89.8373 165.71Z" fill="white"/>
<path d="M73.259 42.9L73.184 40.725H75.734L75.659 42.9L75.134 46.455H73.784L73.259 42.9ZM79.8681 48.93C79.8681 48.51 79.9581 48.145 80.1381 47.835C80.3181 47.515 80.6031 47.245 80.9931 47.025C81.3931 46.805 81.9031 46.63 82.5231 46.5C83.1431 46.36 83.8931 46.265 84.7731 46.215C84.7331 45.875 84.5831 45.61 84.3231 45.42C84.0731 45.23 83.6931 45.135 83.1831 45.135C82.8231 45.135 82.4581 45.2 82.0881 45.33C81.7281 45.45 81.3381 45.615 80.9181 45.825L80.1381 44.385C80.6481 44.095 81.1931 43.855 81.7731 43.665C82.3631 43.475 82.9781 43.38 83.6181 43.38C84.6581 43.38 85.4781 43.655 86.0781 44.205C86.6781 44.755 86.9781 45.6 86.9781 46.74V51H85.1781L85.0131 50.16H84.9531C84.5731 50.45 84.1581 50.695 83.7081 50.895C83.2581 51.085 82.7931 51.18 82.3131 51.18C81.9331 51.18 81.5931 51.12 81.2931 51C80.9931 50.89 80.7381 50.735 80.5281 50.535C80.3181 50.325 80.1531 50.085 80.0331 49.815C79.9231 49.545 79.8681 49.25 79.8681 48.93ZM81.9831 48.765C81.9831 49.005 82.0731 49.185 82.2531 49.305C82.4431 49.415 82.6981 49.47 83.0181 49.47C83.3481 49.47 83.6581 49.405 83.9481 49.275C84.2381 49.135 84.5131 48.965 84.7731 48.765V47.535C84.2231 47.565 83.7681 47.615 83.4081 47.685C83.0481 47.755 82.7631 47.845 82.5531 47.955C82.3431 48.055 82.1931 48.175 82.1031 48.315C82.0231 48.455 81.9831 48.605 81.9831 48.765ZM96.0473 51.81V53.46H88.8473V51.81H96.0473ZM98.0814 40.485H100.286V46.56H100.346L103.076 43.56H105.491L102.671 46.62L105.716 51H103.331L101.381 47.97L100.286 49.125V51H98.0814V40.485ZM106.761 47.28C106.761 46.67 106.866 46.125 107.076 45.645C107.296 45.165 107.586 44.76 107.946 44.43C108.306 44.09 108.716 43.83 109.176 43.65C109.646 43.47 110.131 43.38 110.631 43.38C111.201 43.38 111.706 43.47 112.146 43.65C112.586 43.83 112.951 44.08 113.241 44.4C113.531 44.72 113.751 45.1 113.901 45.54C114.051 45.97 114.126 46.44 114.126 46.95C114.126 47.15 114.116 47.34 114.096 47.52C114.076 47.7 114.056 47.835 114.036 47.925H109.026C109.106 48.485 109.346 48.89 109.746 49.14C110.156 49.38 110.636 49.5 111.186 49.5C111.526 49.5 111.846 49.46 112.146 49.38C112.456 49.29 112.776 49.16 113.106 48.99L113.826 50.31C113.406 50.58 112.936 50.795 112.416 50.955C111.896 51.105 111.386 51.18 110.886 51.18C110.306 51.18 109.766 51.095 109.266 50.925C108.766 50.745 108.331 50.49 107.961 50.16C107.591 49.82 107.296 49.41 107.076 48.93C106.866 48.45 106.761 47.9 106.761 47.28ZM112.131 46.47C112.131 46.05 112.016 45.71 111.786 45.45C111.556 45.19 111.186 45.06 110.676 45.06C110.276 45.06 109.921 45.175 109.611 45.405C109.301 45.635 109.096 45.99 108.996 46.47H112.131ZM116.325 52.08C116.515 52.14 116.71 52.17 116.91 52.17C117.34 52.17 117.675 52.08 117.915 51.9C118.165 51.72 118.35 51.485 118.47 51.195L118.62 50.805L115.395 43.56H117.585L118.83 46.755C118.97 47.105 119.1 47.47 119.22 47.85C119.34 48.22 119.46 48.6 119.58 48.99H119.64C119.74 48.62 119.85 48.25 119.97 47.88C120.09 47.5 120.205 47.125 120.315 46.755L121.41 43.56H123.495L120.555 51.075C120.375 51.545 120.18 51.955 119.97 52.305C119.76 52.665 119.52 52.96 119.25 53.19C118.98 53.43 118.665 53.61 118.305 53.73C117.955 53.85 117.545 53.91 117.075 53.91C116.855 53.91 116.65 53.895 116.46 53.865C116.27 53.845 116.095 53.81 115.935 53.76L116.325 52.08ZM127.224 42.9L127.149 40.725H129.699L129.624 42.9L129.099 46.455H127.749L127.224 42.9ZM73.259 79.9L73.184 77.725H75.734L75.659 79.9L75.134 83.455H73.784L73.259 79.9ZM79.8681 85.93C79.8681 85.51 79.9581 85.145 80.1381 84.835C80.3181 84.515 80.6031 84.245 80.9931 84.025C81.3931 83.805 81.9031 83.63 82.5231 83.5C83.1431 83.36 83.8931 83.265 84.7731 83.215C84.7331 82.875 84.5831 82.61 84.3231 82.42C84.0731 82.23 83.6931 82.135 83.1831 82.135C82.8231 82.135 82.4581 82.2 82.0881 82.33C81.7281 82.45 81.3381 82.615 80.9181 82.825L80.1381 81.385C80.6481 81.095 81.1931 80.855 81.7731 80.665C82.3631 80.475 82.9781 80.38 83.6181 80.38C84.6581 80.38 85.4781 80.655 86.0781 81.205C86.6781 81.755 86.9781 82.6 86.9781 83.74V88H85.1781L85.0131 87.16H84.9531C84.5731 87.45 84.1581 87.695 83.7081 87.895C83.2581 88.085 82.7931 88.18 82.3131 88.18C81.9331 88.18 81.5931 88.12 81.2931 88C80.9931 87.89 80.7381 87.735 80.5281 87.535C80.3181 87.325 80.1531 87.085 80.0331 86.815C79.9231 86.545 79.8681 86.25 79.8681 85.93ZM81.9831 85.765C81.9831 86.005 82.0731 86.185 82.2531 86.305C82.4431 86.415 82.6981 86.47 83.0181 86.47C83.3481 86.47 83.6581 86.405 83.9481 86.275C84.2381 86.135 84.5131 85.965 84.7731 85.765V84.535C84.2231 84.565 83.7681 84.615 83.4081 84.685C83.0481 84.755 82.7631 84.845 82.5531 84.955C82.3431 85.055 82.1931 85.175 82.1031 85.315C82.0231 85.455 81.9831 85.605 81.9831 85.765ZM96.0473 88.81V90.46H88.8473V88.81H96.0473ZM98.0814 77.485H100.286V83.56H100.346L103.076 80.56H105.491L102.671 83.62L105.716 88H103.331L101.381 84.97L100.286 86.125V88H98.0814V77.485ZM106.761 84.28C106.761 83.67 106.866 83.125 107.076 82.645C107.296 82.165 107.586 81.76 107.946 81.43C108.306 81.09 108.716 80.83 109.176 80.65C109.646 80.47 110.131 80.38 110.631 80.38C111.201 80.38 111.706 80.47 112.146 80.65C112.586 80.83 112.951 81.08 113.241 81.4C113.531 81.72 113.751 82.1 113.901 82.54C114.051 82.97 114.126 83.44 114.126 83.95C114.126 84.15 114.116 84.34 114.096 84.52C114.076 84.7 114.056 84.835 114.036 84.925H109.026C109.106 85.485 109.346 85.89 109.746 86.14C110.156 86.38 110.636 86.5 111.186 86.5C111.526 86.5 111.846 86.46 112.146 86.38C112.456 86.29 112.776 86.16 113.106 85.99L113.826 87.31C113.406 87.58 112.936 87.795 112.416 87.955C111.896 88.105 111.386 88.18 110.886 88.18C110.306 88.18 109.766 88.095 109.266 87.925C108.766 87.745 108.331 87.49 107.961 87.16C107.591 86.82 107.296 86.41 107.076 85.93C106.866 85.45 106.761 84.9 106.761 84.28ZM112.131 83.47C112.131 83.05 112.016 82.71 111.786 82.45C111.556 82.19 111.186 82.06 110.676 82.06C110.276 82.06 109.921 82.175 109.611 82.405C109.301 82.635 109.096 82.99 108.996 83.47H112.131ZM116.325 89.08C116.515 89.14 116.71 89.17 116.91 89.17C117.34 89.17 117.675 89.08 117.915 88.9C118.165 88.72 118.35 88.485 118.47 88.195L118.62 87.805L115.395 80.56H117.585L118.83 83.755C118.97 84.105 119.1 84.47 119.22 84.85C119.34 85.22 119.46 85.6 119.58 85.99H119.64C119.74 85.62 119.85 85.25 119.97 84.88C120.09 84.5 120.205 84.125 120.315 83.755L121.41 80.56H123.495L120.555 88.075C120.375 88.545 120.18 88.955 119.97 89.305C119.76 89.665 119.52 89.96 119.25 90.19C118.98 90.43 118.665 90.61 118.305 90.73C117.955 90.85 117.545 90.91 117.075 90.91C116.855 90.91 116.65 90.895 116.46 90.865C116.27 90.845 116.095 90.81 115.935 90.76L116.325 89.08ZM127.224 79.9L127.149 77.725H129.699L129.624 79.9L129.099 83.455H127.749L127.224 79.9ZM73.259 117.9L73.184 115.725H75.734L75.659 117.9L75.134 121.455H73.784L73.259 117.9ZM79.8681 123.93C79.8681 123.51 79.9581 123.145 80.1381 122.835C80.3181 122.515 80.6031 122.245 80.9931 122.025C81.3931 121.805 81.9031 121.63 82.5231 121.5C83.1431 121.36 83.8931 121.265 84.7731 121.215C84.7331 120.875 84.5831 120.61 84.3231 120.42C84.0731 120.23 83.6931 120.135 83.1831 120.135C82.8231 120.135 82.4581 120.2 82.0881 120.33C81.7281 120.45 81.3381 120.615 80.9181 120.825L80.1381 119.385C80.6481 119.095 81.1931 118.855 81.7731 118.665C82.3631 118.475 82.9781 118.38 83.6181 118.38C84.6581 118.38 85.4781 118.655 86.0781 119.205C86.6781 119.755 86.9781 120.6 86.9781 121.74V126H85.1781L85.0131 125.16H84.9531C84.5731 125.45 84.1581 125.695 83.7081 125.895C83.2581 126.085 82.7931 126.18 82.3131 126.18C81.9331 126.18 81.5931 126.12 81.2931 126C80.9931 125.89 80.7381 125.735 80.5281 125.535C80.3181 125.325 80.1531 125.085 80.0331 124.815C79.9231 124.545 79.8681 124.25 79.8681 123.93ZM81.9831 123.765C81.9831 124.005 82.0731 124.185 82.2531 124.305C82.4431 124.415 82.6981 124.47 83.0181 124.47C83.3481 124.47 83.6581 124.405 83.9481 124.275C84.2381 124.135 84.5131 123.965 84.7731 123.765V122.535C84.2231 122.565 83.7681 122.615 83.4081 122.685C83.0481 122.755 82.7631 122.845 82.5531 122.955C82.3431 123.055 82.1931 123.175 82.1031 123.315C82.0231 123.455 81.9831 123.605 81.9831 123.765ZM96.0473 126.81V128.46H88.8473V126.81H96.0473ZM98.0814 115.485H100.286V121.56H100.346L103.076 118.56H105.491L102.671 121.62L105.716 126H103.331L101.381 122.97L100.286 124.125V126H98.0814V115.485ZM106.761 122.28C106.761 121.67 106.866 121.125 107.076 120.645C107.296 120.165 107.586 119.76 107.946 119.43C108.306 119.09 108.716 118.83 109.176 118.65C109.646 118.47 110.131 118.38 110.631 118.38C111.201 118.38 111.706 118.47 112.146 118.65C112.586 118.83 112.951 119.08 113.241 119.4C113.531 119.72 113.751 120.1 113.901 120.54C114.051 120.97 114.126 121.44 114.126 121.95C114.126 122.15 114.116 122.34 114.096 122.52C114.076 122.7 114.056 122.835 114.036 122.925H109.026C109.106 123.485 109.346 123.89 109.746 124.14C110.156 124.38 110.636 124.5 111.186 124.5C111.526 124.5 111.846 124.46 112.146 124.38C112.456 124.29 112.776 124.16 113.106 123.99L113.826 125.31C113.406 125.58 112.936 125.795 112.416 125.955C111.896 126.105 111.386 126.18 110.886 126.18C110.306 126.18 109.766 126.095 109.266 125.925C108.766 125.745 108.331 125.49 107.961 125.16C107.591 124.82 107.296 124.41 107.076 123.93C106.866 123.45 106.761 122.9 106.761 122.28ZM112.131 121.47C112.131 121.05 112.016 120.71 111.786 120.45C111.556 120.19 111.186 120.06 110.676 120.06C110.276 120.06 109.921 120.175 109.611 120.405C109.301 120.635 109.096 120.99 108.996 121.47H112.131ZM116.325 127.08C116.515 127.14 116.71 127.17 116.91 127.17C117.34 127.17 117.675 127.08 117.915 126.9C118.165 126.72 118.35 126.485 118.47 126.195L118.62 125.805L115.395 118.56H117.585L118.83 121.755C118.97 122.105 119.1 122.47 119.22 122.85C119.34 123.22 119.46 123.6 119.58 123.99H119.64C119.74 123.62 119.85 123.25 119.97 122.88C120.09 122.5 120.205 122.125 120.315 121.755L121.41 118.56H123.495L120.555 126.075C120.375 126.545 120.18 126.955 119.97 127.305C119.76 127.665 119.52 127.96 119.25 128.19C118.98 128.43 118.665 128.61 118.305 128.73C117.955 128.85 117.545 128.91 117.075 128.91C116.855 128.91 116.65 128.895 116.46 128.865C116.27 128.845 116.095 128.81 115.935 128.76L116.325 127.08ZM127.224 117.9L127.149 115.725H129.699L129.624 117.9L129.099 121.455H127.749L127.224 117.9Z" fill="#CC79A7"/>
<path d="M158.961 49.215V51H152.136V49.215H154.596V43.71H152.631V42.345C153.191 42.245 153.666 42.125 154.056 41.985C154.456 41.845 154.831 41.675 155.181 41.475H156.801V49.215H158.961ZM205.741 68.74C206.421 68.17 207.041 67.64 207.601 67.15C208.161 66.65 208.641 66.185 209.041 65.755C209.441 65.325 209.751 64.92 209.971 64.54C210.191 64.16 210.301 63.8 210.301 63.46C210.301 62.99 210.166 62.635 209.896 62.395C209.626 62.145 209.241 62.02 208.741 62.02C208.361 62.02 208.011 62.12 207.691 62.32C207.381 62.51 207.091 62.735 206.821 62.995L205.636 61.81C205.886 61.56 206.131 61.34 206.371 61.15C206.621 60.96 206.881 60.805 207.151 60.685C207.431 60.555 207.721 60.46 208.021 60.4C208.331 60.33 208.671 60.295 209.041 60.295C209.541 60.295 209.996 60.37 210.406 60.52C210.816 60.66 211.166 60.865 211.456 61.135C211.756 61.395 211.986 61.71 212.146 62.08C212.316 62.45 212.401 62.865 212.401 63.325C212.401 63.725 212.306 64.135 212.116 64.555C211.926 64.965 211.666 65.38 211.336 65.8C211.016 66.21 210.646 66.625 210.226 67.045C209.806 67.455 209.366 67.86 208.906 68.26C209.176 68.23 209.466 68.205 209.776 68.185C210.096 68.155 210.381 68.14 210.631 68.14H212.896V70H205.741V68.74ZM152.556 85.435C152.876 85.715 153.231 85.945 153.621 86.125C154.021 86.305 154.441 86.395 154.881 86.395C155.401 86.395 155.826 86.3 156.156 86.11C156.496 85.91 156.666 85.63 156.666 85.27C156.666 85.06 156.621 84.87 156.531 84.7C156.441 84.53 156.286 84.39 156.066 84.28C155.846 84.16 155.551 84.07 155.181 84.01C154.811 83.94 154.346 83.905 153.786 83.905V82.345C154.726 82.345 155.386 82.23 155.766 82C156.156 81.76 156.351 81.45 156.351 81.07C156.351 80.74 156.226 80.485 155.976 80.305C155.726 80.115 155.381 80.02 154.941 80.02C154.561 80.02 154.211 80.095 153.891 80.245C153.571 80.395 153.246 80.6 152.916 80.86L151.806 79.51C152.276 79.13 152.776 78.835 153.306 78.625C153.846 78.405 154.426 78.295 155.046 78.295C155.566 78.295 156.041 78.355 156.471 78.475C156.901 78.585 157.271 78.755 157.581 78.985C157.891 79.205 158.131 79.475 158.301 79.795C158.471 80.115 158.556 80.485 158.556 80.905C158.556 81.405 158.396 81.83 158.076 82.18C157.756 82.52 157.311 82.8 156.741 83.02V83.08C157.341 83.24 157.846 83.515 158.256 83.905C158.666 84.285 158.871 84.785 158.871 85.405C158.871 85.845 158.766 86.24 158.556 86.59C158.356 86.93 158.081 87.22 157.731 87.46C157.391 87.69 156.991 87.87 156.531 88C156.071 88.12 155.591 88.18 155.091 88.18C154.271 88.18 153.566 88.06 152.976 87.82C152.386 87.57 151.906 87.24 151.536 86.83L152.556 85.435ZM245.963 103.04V101.435C245.963 101.135 245.968 100.79 245.978 100.4C245.998 100 246.018 99.65 246.038 99.35H245.978C245.818 99.62 245.648 99.89 245.468 100.16C245.288 100.43 245.113 100.7 244.943 100.97L243.503 103.04H245.963ZM249.218 104.72H248.018V107H245.963V104.72H241.373V103.205L245.348 97.475H248.018V103.04H249.218V104.72ZM152.586 123.45C152.906 123.71 153.246 123.935 153.606 124.125C153.976 124.305 154.386 124.395 154.836 124.395C155.376 124.395 155.816 124.27 156.156 124.02C156.506 123.77 156.681 123.4 156.681 122.91C156.681 122.43 156.516 122.065 156.186 121.815C155.866 121.565 155.451 121.44 154.941 121.44C154.781 121.44 154.636 121.45 154.506 121.47C154.386 121.48 154.266 121.505 154.146 121.545C154.026 121.585 153.901 121.635 153.771 121.695C153.641 121.755 153.496 121.83 153.336 121.92L152.361 121.29L152.616 116.475H158.451V118.335H154.521L154.356 120.12C154.576 120.04 154.781 119.985 154.971 119.955C155.161 119.915 155.376 119.895 155.616 119.895C156.056 119.895 156.471 119.955 156.861 120.075C157.261 120.195 157.611 120.375 157.911 120.615C158.211 120.855 158.446 121.16 158.616 121.53C158.796 121.9 158.886 122.34 158.886 122.85C158.886 123.38 158.781 123.85 158.571 124.26C158.371 124.67 158.096 125.02 157.746 125.31C157.406 125.59 157.011 125.805 156.561 125.955C156.111 126.105 155.641 126.18 155.151 126.18C154.321 126.18 153.616 126.055 153.036 125.805C152.466 125.545 151.986 125.225 151.596 124.845L152.586 123.45Z" fill="#F0E442"/>
<path d="M73.259 61.9L73.184 59.725H75.734L75.659 61.9L75.134 65.455H73.784L73.259 61.9ZM79.8681 67.93C79.8681 67.51 79.9581 67.145 80.1381 66.835C80.3181 66.515 80.6031 66.245 80.9931 66.025C81.3931 65.805 81.9031 65.63 82.5231 65.5C83.1431 65.36 83.8931 65.265 84.7731 65.215C84.7331 64.875 84.5831 64.61 84.3231 64.42C84.0731 64.23 83.6931 64.135 83.1831 64.135C82.8231 64.135 82.4581 64.2 82.0881 64.33C81.7281 64.45 81.3381 64.615 80.9181 64.825L80.1381 63.385C80.6481 63.095 81.1931 62.855 81.7731 62.665C82.3631 62.475 82.9781 62.38 83.6181 62.38C84.6581 62.38 85.4781 62.655 86.0781 63.205C86.6781 63.755 86.9781 64.6 86.9781 65.74V70H85.1781L85.0131 69.16H84.9531C84.5731 69.45 84.1581 69.695 83.7081 69.895C83.2581 70.085 82.7931 70.18 82.3131 70.18C81.9331 70.18 81.5931 70.12 81.2931 70C80.9931 69.89 80.7381 69.735 80.5281 69.535C80.3181 69.325 80.1531 69.085 80.0331 68.815C79.9231 68.545 79.8681 68.25 79.8681 67.93ZM81.9831 67.765C81.9831 68.005 82.0731 68.185 82.2531 68.305C82.4431 68.415 82.6981 68.47 83.0181 68.47C83.3481 68.47 83.6581 68.405 83.9481 68.275C84.2381 68.135 84.5131 67.965 84.7731 67.765V66.535C84.2231 66.565 83.7681 66.615 83.4081 66.685C83.0481 66.755 82.7631 66.845 82.5531 66.955C82.3431 67.055 82.1931 67.175 82.1031 67.315C82.0231 67.455 81.9831 67.605 81.9831 67.765ZM89.0273 62.56H90.8273L90.9923 63.55H91.0523C91.3723 63.23 91.7373 62.955 92.1473 62.725C92.5673 62.495 93.0573 62.38 93.6173 62.38C94.4573 62.38 95.0723 62.65 95.4623 63.19C95.8523 63.73 96.0473 64.47 96.0473 65.41V70H93.8423V65.695C93.8423 65.195 93.7623 64.83 93.6023 64.6C93.4423 64.37 93.1573 64.255 92.7473 64.255C92.4473 64.255 92.1823 64.32 91.9523 64.45C91.7323 64.58 91.4923 64.775 91.2323 65.035V70H89.0273V62.56ZM97.6464 66.28C97.6464 65.66 97.7514 65.11 97.9614 64.63C98.1714 64.14 98.4514 63.73 98.8014 63.4C99.1614 63.07 99.5664 62.82 100.016 62.65C100.476 62.47 100.951 62.38 101.441 62.38C101.931 62.38 102.401 62.47 102.851 62.65C103.311 62.82 103.716 63.07 104.066 63.4C104.426 63.73 104.711 64.14 104.921 64.63C105.131 65.11 105.236 65.66 105.236 66.28C105.236 66.9 105.131 67.455 104.921 67.945C104.711 68.425 104.426 68.83 104.066 69.16C103.716 69.49 103.311 69.745 102.851 69.925C102.401 70.095 101.931 70.18 101.441 70.18C100.951 70.18 100.476 70.095 100.016 69.925C99.5664 69.745 99.1614 69.49 98.8014 69.16C98.4514 68.83 98.1714 68.425 97.9614 67.945C97.7514 67.455 97.6464 66.9 97.6464 66.28ZM99.9114 66.28C99.9114 66.93 100.036 67.445 100.286 67.825C100.546 68.205 100.931 68.395 101.441 68.395C101.951 68.395 102.331 68.205 102.581 67.825C102.841 67.445 102.971 66.93 102.971 66.28C102.971 65.63 102.841 65.115 102.581 64.735C102.331 64.355 101.951 64.165 101.441 64.165C100.931 64.165 100.546 64.355 100.286 64.735C100.036 65.115 99.9114 65.63 99.9114 66.28ZM108.546 64.285H106.671V62.65L108.651 62.56L108.936 60.58H110.751V62.56H113.901V64.285H110.751V66.895C110.751 67.465 110.876 67.87 111.126 68.11C111.376 68.34 111.771 68.455 112.311 68.455C112.601 68.455 112.866 68.43 113.106 68.38C113.346 68.33 113.576 68.265 113.796 68.185L114.186 69.775C113.856 69.875 113.486 69.965 113.076 70.045C112.676 70.135 112.236 70.18 111.756 70.18C111.166 70.18 110.666 70.1 110.256 69.94C109.846 69.78 109.511 69.56 109.251 69.28C109.001 68.99 108.821 68.645 108.711 68.245C108.601 67.845 108.546 67.4 108.546 66.91V64.285ZM116.01 59.485H118.215V62.065L118.095 63.49C118.245 63.35 118.405 63.215 118.575 63.085C118.755 62.945 118.945 62.825 119.145 62.725C119.355 62.615 119.58 62.53 119.82 62.47C120.07 62.41 120.335 62.38 120.615 62.38C121.455 62.38 122.065 62.65 122.445 63.19C122.835 63.73 123.03 64.47 123.03 65.41V70H120.825V65.695C120.825 65.195 120.745 64.83 120.585 64.6C120.425 64.37 120.14 64.255 119.73 64.255C119.43 64.255 119.165 64.32 118.935 64.45C118.715 64.58 118.475 64.775 118.215 65.035V70H116.01V59.485ZM124.749 66.28C124.749 65.67 124.854 65.125 125.064 64.645C125.284 64.165 125.574 63.76 125.934 63.43C126.294 63.09 126.704 62.83 127.164 62.65C127.634 62.47 128.119 62.38 128.619 62.38C129.189 62.38 129.694 62.47 130.134 62.65C130.574 62.83 130.939 63.08 131.229 63.4C131.519 63.72 131.739 64.1 131.889 64.54C132.039 64.97 132.114 65.44 132.114 65.95C132.114 66.15 132.104 66.34 132.084 66.52C132.064 66.7 132.044 66.835 132.024 66.925H127.014C127.094 67.485 127.334 67.89 127.734 68.14C128.144 68.38 128.624 68.5 129.174 68.5C129.514 68.5 129.834 68.46 130.134 68.38C130.444 68.29 130.764 68.16 131.094 67.99L131.814 69.31C131.394 69.58 130.924 69.795 130.404 69.955C129.884 70.105 129.374 70.18 128.874 70.18C128.294 70.18 127.754 70.095 127.254 69.925C126.754 69.745 126.319 69.49 125.949 69.16C125.579 68.82 125.284 68.41 125.064 67.93C124.854 67.45 124.749 66.9 124.749 66.28ZM130.119 65.47C130.119 65.05 130.004 64.71 129.774 64.45C129.544 64.19 129.174 64.06 128.664 64.06C128.264 64.06 127.909 64.175 127.599 64.405C127.289 64.635 127.084 64.99 126.984 65.47H130.119ZM134.658 62.56H136.458L136.638 64.18H136.683C137.053 63.57 137.498 63.12 138.018 62.83C138.538 62.53 139.098 62.38 139.698 62.38C140.028 62.38 140.293 62.405 140.493 62.455C140.703 62.505 140.918 62.58 141.138 62.68L140.688 64.525C140.458 64.455 140.248 64.405 140.058 64.375C139.878 64.335 139.648 64.315 139.368 64.315C138.908 64.315 138.453 64.45 138.003 64.72C137.563 64.99 137.183 65.46 136.863 66.13V70H134.658V62.56ZM150.012 70.81V72.46H142.812V70.81H150.012ZM152.046 59.485H154.251V65.56H154.311L157.041 62.56H159.456L156.636 65.62L159.681 70H157.296L155.346 66.97L154.251 68.125V70H152.046V59.485ZM160.725 66.28C160.725 65.67 160.83 65.125 161.04 64.645C161.26 64.165 161.55 63.76 161.91 63.43C162.27 63.09 162.68 62.83 163.14 62.65C163.61 62.47 164.095 62.38 164.595 62.38C165.165 62.38 165.67 62.47 166.11 62.65C166.55 62.83 166.915 63.08 167.205 63.4C167.495 63.72 167.715 64.1 167.865 64.54C168.015 64.97 168.09 65.44 168.09 65.95C168.09 66.15 168.08 66.34 168.06 66.52C168.04 66.7 168.02 66.835 168 66.925H162.99C163.07 67.485 163.31 67.89 163.71 68.14C164.12 68.38 164.6 68.5 165.15 68.5C165.49 68.5 165.81 68.46 166.11 68.38C166.42 68.29 166.74 68.16 167.07 67.99L167.79 69.31C167.37 69.58 166.9 69.795 166.38 69.955C165.86 70.105 165.35 70.18 164.85 70.18C164.27 70.18 163.73 70.095 163.23 69.925C162.73 69.745 162.295 69.49 161.925 69.16C161.555 68.82 161.26 68.41 161.04 67.93C160.83 67.45 160.725 66.9 160.725 66.28ZM166.095 65.47C166.095 65.05 165.98 64.71 165.75 64.45C165.52 64.19 165.15 64.06 164.64 64.06C164.24 64.06 163.885 64.175 163.575 64.405C163.265 64.635 163.06 64.99 162.96 65.47H166.095ZM170.29 71.08C170.48 71.14 170.675 71.17 170.875 71.17C171.305 71.17 171.64 71.08 171.88 70.9C172.13 70.72 172.315 70.485 172.435 70.195L172.585 69.805L169.36 62.56H171.55L172.795 65.755C172.935 66.105 173.065 66.47 173.185 66.85C173.305 67.22 173.425 67.6 173.545 67.99H173.605C173.705 67.62 173.815 67.25 173.935 66.88C174.055 66.5 174.17 66.125 174.28 65.755L175.375 62.56H177.46L174.52 70.075C174.34 70.545 174.145 70.955 173.935 71.305C173.725 71.665 173.485 71.96 173.215 72.19C172.945 72.43 172.63 72.61 172.27 72.73C171.92 72.85 171.51 72.91 171.04 72.91C170.82 72.91 170.615 72.895 170.425 72.865C170.235 72.845 170.06 72.81 169.9 72.76L170.29 71.08ZM73.259 98.9L73.184 96.725H75.734L75.659 98.9L75.134 102.455H73.784L73.259 98.9ZM80.3481 108.08C80.5381 108.14 80.7331 108.17 80.9331 108.17C81.3631 108.17 81.6981 108.08 81.9381 107.9C82.1881 107.72 82.3731 107.485 82.4931 107.195L82.6431 106.805L79.4181 99.56H81.6081L82.8531 102.755C82.9931 103.105 83.1231 103.47 83.2431 103.85C83.3631 104.22 83.4831 104.6 83.6031 104.99H83.6631C83.7631 104.62 83.8731 104.25 83.9931 103.88C84.1131 103.5 84.2281 103.125 84.3381 102.755L85.4331 99.56H87.5181L84.5781 107.075C84.3981 107.545 84.2031 107.955 83.9931 108.305C83.7831 108.665 83.5431 108.96 83.2731 109.19C83.0031 109.43 82.6881 109.61 82.3281 109.73C81.9781 109.85 81.5681 109.91 81.0981 109.91C80.8781 109.91 80.6731 109.895 80.4831 109.865C80.2931 109.845 80.1181 109.81 79.9581 109.76L80.3481 108.08ZM88.7723 103.28C88.7723 102.67 88.8773 102.125 89.0873 101.645C89.3073 101.165 89.5973 100.76 89.9573 100.43C90.3173 100.09 90.7273 99.83 91.1873 99.65C91.6573 99.47 92.1423 99.38 92.6423 99.38C93.2123 99.38 93.7173 99.47 94.1573 99.65C94.5973 99.83 94.9623 100.08 95.2523 100.4C95.5423 100.72 95.7623 101.1 95.9123 101.54C96.0623 101.97 96.1373 102.44 96.1373 102.95C96.1373 103.15 96.1273 103.34 96.1073 103.52C96.0873 103.7 96.0673 103.835 96.0473 103.925H91.0373C91.1173 104.485 91.3573 104.89 91.7573 105.14C92.1673 105.38 92.6473 105.5 93.1973 105.5C93.5373 105.5 93.8573 105.46 94.1573 105.38C94.4673 105.29 94.7873 105.16 95.1173 104.99L95.8373 106.31C95.4173 106.58 94.9473 106.795 94.4273 106.955C93.9073 107.105 93.3973 107.18 92.8973 107.18C92.3173 107.18 91.7773 107.095 91.2773 106.925C90.7773 106.745 90.3423 106.49 89.9723 106.16C89.6023 105.82 89.3073 105.41 89.0873 104.93C88.8773 104.45 88.7723 103.9 88.7723 103.28ZM94.1423 102.47C94.1423 102.05 94.0273 101.71 93.7973 101.45C93.5673 101.19 93.1973 101.06 92.6873 101.06C92.2873 101.06 91.9323 101.175 91.6223 101.405C91.3123 101.635 91.1073 101.99 91.0073 102.47H94.1423ZM99.5514 101.285H97.6764V99.65L99.6564 99.56L99.9414 97.58H101.756V99.56H104.906V101.285H101.756V103.895C101.756 104.465 101.881 104.87 102.131 105.11C102.381 105.34 102.776 105.455 103.316 105.455C103.606 105.455 103.871 105.43 104.111 105.38C104.351 105.33 104.581 105.265 104.801 105.185L105.191 106.775C104.861 106.875 104.491 106.965 104.081 107.045C103.681 107.135 103.241 107.18 102.761 107.18C102.171 107.18 101.671 107.1 101.261 106.94C100.851 106.78 100.516 106.56 100.256 106.28C100.006 105.99 99.8264 105.645 99.7164 105.245C99.6064 104.845 99.5514 104.4 99.5514 103.91V101.285ZM114.036 107.81V109.46H106.836V107.81H114.036ZM115.845 104.93C115.845 104.51 115.935 104.145 116.115 103.835C116.295 103.515 116.58 103.245 116.97 103.025C117.37 102.805 117.88 102.63 118.5 102.5C119.12 102.36 119.87 102.265 120.75 102.215C120.71 101.875 120.56 101.61 120.3 101.42C120.05 101.23 119.67 101.135 119.16 101.135C118.8 101.135 118.435 101.2 118.065 101.33C117.705 101.45 117.315 101.615 116.895 101.825L116.115 100.385C116.625 100.095 117.17 99.855 117.75 99.665C118.34 99.475 118.955 99.38 119.595 99.38C120.635 99.38 121.455 99.655 122.055 100.205C122.655 100.755 122.955 101.6 122.955 102.74V107H121.155L120.99 106.16H120.93C120.55 106.45 120.135 106.695 119.685 106.895C119.235 107.085 118.77 107.18 118.29 107.18C117.91 107.18 117.57 107.12 117.27 107C116.97 106.89 116.715 106.735 116.505 106.535C116.295 106.325 116.13 106.085 116.01 105.815C115.9 105.545 115.845 105.25 115.845 104.93ZM117.96 104.765C117.96 105.005 118.05 105.185 118.23 105.305C118.42 105.415 118.675 105.47 118.995 105.47C119.325 105.47 119.635 105.405 119.925 105.275C120.215 105.135 120.49 104.965 120.75 104.765V103.535C120.2 103.565 119.745 103.615 119.385 103.685C119.025 103.755 118.74 103.845 118.53 103.955C118.32 104.055 118.17 104.175 118.08 104.315C118 104.455 117.96 104.605 117.96 104.765ZM125.004 99.56H126.804L126.969 100.55H127.029C127.349 100.23 127.714 99.955 128.124 99.725C128.544 99.495 129.034 99.38 129.594 99.38C130.434 99.38 131.049 99.65 131.439 100.19C131.829 100.73 132.024 101.47 132.024 102.41V107H129.819V102.695C129.819 102.195 129.739 101.83 129.579 101.6C129.419 101.37 129.134 101.255 128.724 101.255C128.424 101.255 128.159 101.32 127.929 101.45C127.709 101.58 127.469 101.775 127.209 102.035V107H125.004V99.56ZM133.623 103.28C133.623 102.66 133.728 102.11 133.938 101.63C134.148 101.14 134.428 100.73 134.778 100.4C135.138 100.07 135.543 99.82 135.993 99.65C136.453 99.47 136.928 99.38 137.418 99.38C137.908 99.38 138.378 99.47 138.828 99.65C139.288 99.82 139.693 100.07 140.043 100.4C140.403 100.73 140.688 101.14 140.898 101.63C141.108 102.11 141.213 102.66 141.213 103.28C141.213 103.9 141.108 104.455 140.898 104.945C140.688 105.425 140.403 105.83 140.043 106.16C139.693 106.49 139.288 106.745 138.828 106.925C138.378 107.095 137.908 107.18 137.418 107.18C136.928 107.18 136.453 107.095 135.993 106.925C135.543 106.745 135.138 106.49 134.778 106.16C134.428 105.83 134.148 105.425 133.938 104.945C133.728 104.455 133.623 103.9 133.623 103.28ZM135.888 103.28C135.888 103.93 136.013 104.445 136.263 104.825C136.523 105.205 136.908 105.395 137.418 105.395C137.928 105.395 138.308 105.205 138.558 104.825C138.818 104.445 138.948 103.93 138.948 103.28C138.948 102.63 138.818 102.115 138.558 101.735C138.308 101.355 137.928 101.165 137.418 101.165C136.908 101.165 136.523 101.355 136.263 101.735C136.013 102.115 135.888 102.63 135.888 103.28ZM144.522 101.285H142.647V99.65L144.627 99.56L144.912 97.58H146.727V99.56H149.877V101.285H146.727V103.895C146.727 104.465 146.852 104.87 147.102 105.11C147.352 105.34 147.747 105.455 148.287 105.455C148.577 105.455 148.842 105.43 149.082 105.38C149.322 105.33 149.552 105.265 149.772 105.185L150.162 106.775C149.832 106.875 149.462 106.965 149.052 107.045C148.652 107.135 148.212 107.18 147.732 107.18C147.142 107.18 146.642 107.1 146.232 106.94C145.822 106.78 145.487 106.56 145.227 106.28C144.977 105.99 144.797 105.645 144.687 105.245C144.577 104.845 144.522 104.4 144.522 103.91V101.285ZM151.986 96.485H154.191V99.065L154.071 100.49C154.221 100.35 154.381 100.215 154.551 100.085C154.731 99.945 154.921 99.825 155.121 99.725C155.331 99.615 155.556 99.53 155.796 99.47C156.046 99.41 156.311 99.38 156.591 99.38C157.431 99.38 158.041 99.65 158.421 100.19C158.811 100.73 159.006 101.47 159.006 102.41V107H156.801V102.695C156.801 102.195 156.721 101.83 156.561 101.6C156.401 101.37 156.116 101.255 155.706 101.255C155.406 101.255 155.141 101.32 154.911 101.45C154.691 101.58 154.451 101.775 154.191 102.035V107H151.986V96.485ZM160.725 103.28C160.725 102.67 160.83 102.125 161.04 101.645C161.26 101.165 161.55 100.76 161.91 100.43C162.27 100.09 162.68 99.83 163.14 99.65C163.61 99.47 164.095 99.38 164.595 99.38C165.165 99.38 165.67 99.47 166.11 99.65C166.55 99.83 166.915 100.08 167.205 100.4C167.495 100.72 167.715 101.1 167.865 101.54C168.015 101.97 168.09 102.44 168.09 102.95C168.09 103.15 168.08 103.34 168.06 103.52C168.04 103.7 168.02 103.835 168 103.925H162.99C163.07 104.485 163.31 104.89 163.71 105.14C164.12 105.38 164.6 105.5 165.15 105.5C165.49 105.5 165.81 105.46 166.11 105.38C166.42 105.29 166.74 105.16 167.07 104.99L167.79 106.31C167.37 106.58 166.9 106.795 166.38 106.955C165.86 107.105 165.35 107.18 164.85 107.18C164.27 107.18 163.73 107.095 163.23 106.925C162.73 106.745 162.295 106.49 161.925 106.16C161.555 105.82 161.26 105.41 161.04 104.93C160.83 104.45 160.725 103.9 160.725 103.28ZM166.095 102.47C166.095 102.05 165.98 101.71 165.75 101.45C165.52 101.19 165.15 101.06 164.64 101.06C164.24 101.06 163.885 101.175 163.575 101.405C163.265 101.635 163.06 101.99 162.96 102.47H166.095ZM170.635 99.56H172.435L172.615 101.18H172.66C173.03 100.57 173.475 100.12 173.995 99.83C174.515 99.53 175.075 99.38 175.675 99.38C176.005 99.38 176.27 99.405 176.47 99.455C176.68 99.505 176.895 99.58 177.115 99.68L176.665 101.525C176.435 101.455 176.225 101.405 176.035 101.375C175.855 101.335 175.625 101.315 175.345 101.315C174.885 101.315 174.43 101.45 173.98 101.72C173.54 101.99 173.16 102.46 172.84 103.13V107H170.635V99.56ZM185.989 107.81V109.46H178.789V107.81H185.989ZM188.023 96.485H190.228V102.56H190.288L193.018 99.56H195.433L192.613 102.62L195.658 107H193.273L191.323 103.97L190.228 105.125V107H188.023V96.485ZM196.702 103.28C196.702 102.67 196.807 102.125 197.017 101.645C197.237 101.165 197.527 100.76 197.887 100.43C198.247 100.09 198.657 99.83 199.117 99.65C199.587 99.47 200.072 99.38 200.572 99.38C201.142 99.38 201.647 99.47 202.087 99.65C202.527 99.83 202.892 100.08 203.182 100.4C203.472 100.72 203.692 101.1 203.842 101.54C203.992 101.97 204.067 102.44 204.067 102.95C204.067 103.15 204.057 103.34 204.037 103.52C204.017 103.7 203.997 103.835 203.977 103.925H198.967C199.047 104.485 199.287 104.89 199.687 105.14C200.097 105.38 200.577 105.5 201.127 105.5C201.467 105.5 201.787 105.46 202.087 105.38C202.397 105.29 202.717 105.16 203.047 104.99L203.767 106.31C203.347 106.58 202.877 106.795 202.357 106.955C201.837 107.105 201.327 107.18 200.827 107.18C200.247 107.18 199.707 107.095 199.207 106.925C198.707 106.745 198.272 106.49 197.902 106.16C197.532 105.82 197.237 105.41 197.017 104.93C196.807 104.45 196.702 103.9 196.702 103.28ZM202.072 102.47C202.072 102.05 201.957 101.71 201.727 101.45C201.497 101.19 201.127 101.06 200.617 101.06C200.217 101.06 199.862 101.175 199.552 101.405C199.242 101.635 199.037 101.99 198.937 102.47H202.072ZM206.266 108.08C206.456 108.14 206.651 108.17 206.851 108.17C207.281 108.17 207.616 108.08 207.856 107.9C208.106 107.72 208.291 107.485 208.411 107.195L208.561 106.805L205.336 99.56H207.526L208.771 102.755C208.911 103.105 209.041 103.47 209.161 103.85C209.281 104.22 209.401 104.6 209.521 104.99H209.581C209.681 104.62 209.791 104.25 209.911 103.88C210.031 103.5 210.146 103.125 210.256 102.755L211.351 99.56H213.436L210.496 107.075C210.316 107.545 210.121 107.955 209.911 108.305C209.701 108.665 209.461 108.96 209.191 109.19C208.921 109.43 208.606 109.61 208.246 109.73C207.896 109.85 207.486 109.91 207.016 109.91C206.796 109.91 206.591 109.895 206.401 109.865C206.211 109.845 206.036 109.81 205.876 109.76L206.266 108.08ZM217.165 98.9L217.09 96.725H219.64L219.565 98.9L219.04 102.455H217.69L217.165 98.9Z" fill="#009E73"/>
<path d="M10.285 164.585V166.76H8.08V156.56H9.88L10.045 157.31H10.09C10.39 157.04 10.735 156.82 11.125 156.65C11.515 156.47 11.91 156.38 12.31 156.38C12.77 156.38 13.185 156.47 13.555 156.65C13.925 156.83 14.24 157.085 14.5 157.415C14.76 157.745 14.955 158.145 15.085 158.615C15.225 159.075 15.295 159.59 15.295 160.16C15.295 160.8 15.205 161.37 15.025 161.87C14.845 162.36 14.605 162.78 14.305 163.13C14.005 163.47 13.66 163.73 13.27 163.91C12.89 164.09 12.49 164.18 12.07 164.18C11.39 164.18 10.77 163.91 10.21 163.37L10.285 164.585ZM10.285 161.885C10.495 162.065 10.71 162.195 10.93 162.275C11.16 162.345 11.37 162.38 11.56 162.38C11.98 162.38 12.33 162.21 12.61 161.87C12.89 161.52 13.03 160.96 13.03 160.19C13.03 158.85 12.575 158.18 11.665 158.18C11.195 158.18 10.735 158.41 10.285 158.87V161.885ZM17.7341 156.56H19.5341L19.7141 158.18H19.7591C20.1291 157.57 20.5741 157.12 21.0941 156.83C21.6141 156.53 22.1741 156.38 22.7741 156.38C23.1041 156.38 23.3691 156.405 23.5691 156.455C23.7791 156.505 23.9941 156.58 24.2141 156.68L23.7641 158.525C23.5341 158.455 23.3241 158.405 23.1341 158.375C22.9541 158.335 22.7241 158.315 22.4441 158.315C21.9841 158.315 21.5291 158.45 21.0791 158.72C20.6391 158.99 20.2591 159.46 19.9391 160.13V164H17.7341V156.56ZM26.1733 156.56H31.3633V164H29.1583V158.285H26.1733V156.56ZM30.1633 155.465C29.7333 155.465 29.3783 155.345 29.0983 155.105C28.8283 154.865 28.6933 154.54 28.6933 154.13C28.6933 153.72 28.8283 153.39 29.0983 153.14C29.3783 152.88 29.7333 152.75 30.1633 152.75C30.5933 152.75 30.9433 152.88 31.2133 153.14C31.4933 153.39 31.6333 153.72 31.6333 154.13C31.6333 154.54 31.4933 154.865 31.2133 155.105C30.9433 155.345 30.5933 155.465 30.1633 155.465ZM35.0624 156.56H36.8624L37.0274 157.55H37.0874C37.4074 157.23 37.7724 156.955 38.1824 156.725C38.6024 156.495 39.0924 156.38 39.6524 156.38C40.4924 156.38 41.1074 156.65 41.4974 157.19C41.8874 157.73 42.0824 158.47 42.0824 159.41V164H39.8774V159.695C39.8774 159.195 39.7974 158.83 39.6374 158.6C39.4774 158.37 39.1924 158.255 38.7824 158.255C38.4824 158.255 38.2174 158.32 37.9874 158.45C37.7674 158.58 37.5274 158.775 37.2674 159.035V164H35.0624V156.56ZM45.5866 158.285H43.7116V156.65L45.6916 156.56L45.9766 154.58H47.7916V156.56H50.9416V158.285H47.7916V160.895C47.7916 161.465 47.9166 161.87 48.1666 162.11C48.4166 162.34 48.8116 162.455 49.3516 162.455C49.6416 162.455 49.9066 162.43 50.1466 162.38C50.3866 162.33 50.6166 162.265 50.8366 162.185L51.2266 163.775C50.8966 163.875 50.5266 163.965 50.1166 164.045C49.7166 164.135 49.2766 164.18 48.7966 164.18C48.2066 164.18 47.7066 164.1 47.2966 163.94C46.8866 163.78 46.5516 163.56 46.2916 163.28C46.0416 162.99 45.8616 162.645 45.7516 162.245C45.6416 161.845 45.5866 161.4 45.5866 160.91V158.285Z" fill="#56B4E9"/>
<line y1="178.5" x2="485.001" y2="178.5" stroke="white"/>
<path d="M12.504 199.915C11.924 199.915 11.389 199.8 10.899 199.57C10.419 199.33 10.004 198.99 9.654 198.55C9.314 198.11 9.049 197.575 8.859 196.945C8.669 196.315 8.574 195.6 8.574 194.8C8.574 194 8.669 193.29 8.859 192.67C9.049 192.04 9.314 191.515 9.654 191.095C10.004 190.665 10.419 190.34 10.899 190.12C11.389 189.89 11.924 189.775 12.504 189.775C13.084 189.775 13.614 189.89 14.094 190.12C14.584 190.34 14.999 190.665 15.339 191.095C15.689 191.525 15.959 192.055 16.149 192.685C16.339 193.305 16.434 194.01 16.434 194.8C16.434 195.6 16.339 196.315 16.149 196.945C15.959 197.575 15.689 198.11 15.339 198.55C14.999 198.99 14.584 199.33 14.094 199.57C13.614 199.8 13.084 199.915 12.504 199.915ZM12.504 198.01C13.014 198.01 13.419 197.725 13.719 197.155C14.019 196.575 14.169 195.79 14.169 194.8C14.169 193.82 14.019 193.055 13.719 192.505C13.419 191.955 13.014 191.68 12.504 191.68C11.994 191.68 11.589 191.955 11.289 192.505C10.989 193.055 10.839 193.82 10.839 194.8C10.839 195.79 10.989 196.575 11.289 197.155C11.589 197.725 11.994 198.01 12.504 198.01ZM24.8731 199.735H23.0731L22.9081 198.67H22.8481C22.5181 199.05 22.1531 199.355 21.7531 199.585C21.3531 199.805 20.8831 199.915 20.3431 199.915C19.4931 199.915 18.8781 199.645 18.4981 199.105C18.1181 198.565 17.9281 197.825 17.9281 196.885V192.295H20.1331V196.6C20.1331 197.1 20.2081 197.465 20.3581 197.695C20.5081 197.925 20.7931 198.04 21.2131 198.04C21.4931 198.04 21.7381 197.98 21.9481 197.86C22.1681 197.74 22.4081 197.515 22.6681 197.185V192.295H24.8731V199.735ZM28.6023 194.02H26.7273V192.385L28.7073 192.295L28.9923 190.315H30.8073V192.295H33.9573V194.02H30.8073V196.63C30.8073 197.2 30.9323 197.605 31.1823 197.845C31.4323 198.075 31.8273 198.19 32.3673 198.19C32.6573 198.19 32.9223 198.165 33.1623 198.115C33.4023 198.065 33.6323 198 33.8523 197.92L34.2423 199.51C33.9123 199.61 33.5423 199.7 33.1323 199.78C32.7323 199.87 32.2923 199.915 31.8123 199.915C31.2223 199.915 30.7223 199.835 30.3123 199.675C29.9023 199.515 29.5673 199.295 29.3073 199.015C29.0573 198.725 28.8773 198.38 28.7673 197.98C28.6573 197.58 28.6023 197.135 28.6023 196.645V194.02ZM38.2714 200.32V202.495H36.0664V192.295H37.8664L38.0314 193.045H38.0764C38.3764 192.775 38.7214 192.555 39.1114 192.385C39.5014 192.205 39.8964 192.115 40.2964 192.115C40.7564 192.115 41.1714 192.205 41.5414 192.385C41.9114 192.565 42.2264 192.82 42.4864 193.15C42.7464 193.48 42.9414 193.88 43.0714 194.35C43.2114 194.81 43.2814 195.325 43.2814 195.895C43.2814 196.535 43.1914 197.105 43.0114 197.605C42.8314 198.095 42.5914 198.515 42.2914 198.865C41.9914 199.205 41.6464 199.465 41.2564 199.645C40.8764 199.825 40.4764 199.915 40.0564 199.915C39.3764 199.915 38.7564 199.645 38.1964 199.105L38.2714 200.32ZM38.2714 197.62C38.4814 197.8 38.6964 197.93 38.9164 198.01C39.1464 198.08 39.3564 198.115 39.5464 198.115C39.9664 198.115 40.3164 197.945 40.5964 197.605C40.8764 197.255 41.0164 196.695 41.0164 195.925C41.0164 194.585 40.5614 193.915 39.6514 193.915C39.1814 193.915 38.7214 194.145 38.2714 194.605V197.62ZM51.8556 199.735H50.0556L49.8906 198.67H49.8306C49.5006 199.05 49.1356 199.355 48.7356 199.585C48.3356 199.805 47.8656 199.915 47.3256 199.915C46.4756 199.915 45.8606 199.645 45.4806 199.105C45.1006 198.565 44.9106 197.825 44.9106 196.885V192.295H47.1156V196.6C47.1156 197.1 47.1906 197.465 47.3406 197.695C47.4906 197.925 47.7756 198.04 48.1956 198.04C48.4756 198.04 48.7206 197.98 48.9306 197.86C49.1506 197.74 49.3906 197.515 49.6506 197.185V192.295H51.8556V199.735ZM55.5847 194.02H53.7097V192.385L55.6897 192.295L55.9747 190.315H57.7897V192.295H60.9397V194.02H57.7897V196.63C57.7897 197.2 57.9147 197.605 58.1647 197.845C58.4147 198.075 58.8097 198.19 59.3497 198.19C59.6397 198.19 59.9047 198.165 60.1447 198.115C60.3847 198.065 60.6147 198 60.8347 197.92L61.2247 199.51C60.8947 199.61 60.5247 199.7 60.1147 199.78C59.7147 199.87 59.2747 199.915 58.7947 199.915C58.2047 199.915 57.7047 199.835 57.2947 199.675C56.8847 199.515 56.5497 199.295 56.2897 199.015C56.0397 198.725 55.8597 198.38 55.7497 197.98C55.6397 197.58 55.5847 197.135 55.5847 196.645V194.02Z" fill="white"/>
<path d="M11.499 223.885C11.499 223.615 11.504 223.375 11.514 223.165C11.534 222.955 11.554 222.755 11.574 222.565C11.594 222.365 11.609 222.17 11.619 221.98C11.639 221.78 11.649 221.56 11.649 221.32C11.649 221.19 11.619 221.06 11.559 220.93C11.499 220.8 11.389 220.685 11.229 220.585C11.069 220.475 10.854 220.39 10.584 220.33C10.324 220.26 9.994 220.22 9.594 220.21V218.92C9.994 218.91 10.324 218.875 10.584 218.815C10.854 218.745 11.069 218.66 11.229 218.56C11.389 218.45 11.499 218.33 11.559 218.2C11.619 218.07 11.649 217.94 11.649 217.81C11.649 217.58 11.639 217.365 11.619 217.165C11.609 216.965 11.594 216.77 11.574 216.58C11.554 216.38 11.534 216.175 11.514 215.965C11.504 215.745 11.499 215.505 11.499 215.245C11.499 214.435 11.724 213.88 12.174 213.58C12.624 213.27 13.329 213.115 14.289 213.115H15.444V214.285H14.829C14.519 214.285 14.264 214.3 14.064 214.33C13.864 214.36 13.709 214.415 13.599 214.495C13.489 214.575 13.409 214.685 13.359 214.825C13.319 214.955 13.299 215.125 13.299 215.335C13.299 215.735 13.309 216.13 13.329 216.52C13.359 216.91 13.374 217.33 13.374 217.78C13.374 218.35 13.259 218.765 13.029 219.025C12.799 219.275 12.414 219.445 11.874 219.535V219.595C12.414 219.685 12.799 219.86 13.029 220.12C13.259 220.37 13.374 220.78 13.374 221.35C13.374 221.81 13.359 222.23 13.329 222.61C13.309 222.99 13.299 223.385 13.299 223.795C13.299 224.005 13.319 224.175 13.359 224.305C13.409 224.445 13.489 224.555 13.599 224.635C13.709 224.715 13.864 224.77 14.064 224.8C14.264 224.83 14.519 224.845 14.829 224.845H15.444V226.015H14.289C13.329 226.015 12.624 225.86 12.174 225.55C11.724 225.25 11.499 224.695 11.499 223.885ZM20.2981 215.635L20.2231 213.46H22.7731L22.6981 215.635L22.1731 219.19H20.8231L20.2981 215.635ZM26.9073 221.665C26.9073 221.245 26.9973 220.88 27.1773 220.57C27.3573 220.25 27.6423 219.98 28.0323 219.76C28.4323 219.54 28.9423 219.365 29.5623 219.235C30.1823 219.095 30.9323 219 31.8123 218.95C31.7723 218.61 31.6223 218.345 31.3623 218.155C31.1123 217.965 30.7323 217.87 30.2223 217.87C29.8623 217.87 29.4973 217.935 29.1273 218.065C28.7673 218.185 28.3773 218.35 27.9573 218.56L27.1773 217.12C27.6873 216.83 28.2323 216.59 28.8123 216.4C29.4023 216.21 30.0173 216.115 30.6573 216.115C31.6973 216.115 32.5173 216.39 33.1173 216.94C33.7173 217.49 34.0173 218.335 34.0173 219.475V223.735H32.2173L32.0523 222.895H31.9923C31.6123 223.185 31.1973 223.43 30.7473 223.63C30.2973 223.82 29.8323 223.915 29.3523 223.915C28.9723 223.915 28.6323 223.855 28.3323 223.735C28.0323 223.625 27.7773 223.47 27.5673 223.27C27.3573 223.06 27.1923 222.82 27.0723 222.55C26.9623 222.28 26.9073 221.985 26.9073 221.665ZM29.0223 221.5C29.0223 221.74 29.1123 221.92 29.2923 222.04C29.4823 222.15 29.7373 222.205 30.0573 222.205C30.3873 222.205 30.6973 222.14 30.9873 222.01C31.2773 221.87 31.5523 221.7 31.8123 221.5V220.27C31.2623 220.3 30.8073 220.35 30.4473 220.42C30.0873 220.49 29.8023 220.58 29.5923 220.69C29.3823 220.79 29.2323 220.91 29.1423 221.05C29.0623 221.19 29.0223 221.34 29.0223 221.5ZM36.0664 216.295H37.8664L38.0314 217.285H38.0914C38.4114 216.965 38.7764 216.69 39.1864 216.46C39.6064 216.23 40.0964 216.115 40.6564 216.115C41.4964 216.115 42.1114 216.385 42.5014 216.925C42.8914 217.465 43.0864 218.205 43.0864 219.145V223.735H40.8814V219.43C40.8814 218.93 40.8014 218.565 40.6414 218.335C40.4814 218.105 40.1964 217.99 39.7864 217.99C39.4864 217.99 39.2214 218.055 38.9914 218.185C38.7714 218.315 38.5314 218.51 38.2714 218.77V223.735H36.0664V216.295ZM44.6856 220.015C44.6856 219.395 44.7906 218.845 45.0006 218.365C45.2106 217.875 45.4906 217.465 45.8406 217.135C46.2006 216.805 46.6056 216.555 47.0556 216.385C47.5156 216.205 47.9906 216.115 48.4806 216.115C48.9706 216.115 49.4406 216.205 49.8906 216.385C50.3506 216.555 50.7556 216.805 51.1056 217.135C51.4656 217.465 51.7506 217.875 51.9606 218.365C52.1706 218.845 52.2756 219.395 52.2756 220.015C52.2756 220.635 52.1706 221.19 51.9606 221.68C51.7506 222.16 51.4656 222.565 51.1056 222.895C50.7556 223.225 50.3506 223.48 49.8906 223.66C49.4406 223.83 48.9706 223.915 48.4806 223.915C47.9906 223.915 47.5156 223.83 47.0556 223.66C46.6056 223.48 46.2006 223.225 45.8406 222.895C45.4906 222.565 45.2106 222.16 45.0006 221.68C44.7906 221.19 44.6856 220.635 44.6856 220.015ZM46.9506 220.015C46.9506 220.665 47.0756 221.18 47.3256 221.56C47.5856 221.94 47.9706 222.13 48.4806 222.13C48.9906 222.13 49.3706 221.94 49.6206 221.56C49.8806 221.18 50.0106 220.665 50.0106 220.015C50.0106 219.365 49.8806 218.85 49.6206 218.47C49.3706 218.09 48.9906 217.9 48.4806 217.9C47.9706 217.9 47.5856 218.09 47.3256 218.47C47.0756 218.85 46.9506 219.365 46.9506 220.015ZM55.5847 218.02H53.7097V216.385L55.6897 216.295L55.9747 214.315H57.7897V216.295H60.9397V218.02H57.7897V220.63C57.7897 221.2 57.9147 221.605 58.1647 221.845C58.4147 222.075 58.8097 222.19 59.3497 222.19C59.6397 222.19 59.9047 222.165 60.1447 222.115C60.3847 222.065 60.6147 222 60.8347 221.92L61.2247 223.51C60.8947 223.61 60.5247 223.7 60.1147 223.78C59.7147 223.87 59.2747 223.915 58.7947 223.915C58.2047 223.915 57.7047 223.835 57.2947 223.675C56.8847 223.515 56.5497 223.295 56.2897 223.015C56.0397 222.725 55.8597 222.38 55.7497 221.98C55.6397 221.58 55.5847 221.135 55.5847 220.645V218.02ZM63.0488 213.22H65.2538V215.8L65.1338 217.225C65.2838 217.085 65.4438 216.95 65.6138 216.82C65.7938 216.68 65.9838 216.56 66.1838 216.46C66.3938 216.35 66.6188 216.265 66.8588 216.205C67.1088 216.145 67.3738 216.115 67.6538 216.115C68.4938 216.115 69.1038 216.385 69.4838 216.925C69.8738 217.465 70.0688 218.205 70.0688 219.145V223.735H67.8638V219.43C67.8638 218.93 67.7838 218.565 67.6238 218.335C67.4638 218.105 67.1788 217.99 66.7688 217.99C66.4688 217.99 66.2038 218.055 65.9738 218.185C65.7538 218.315 65.5138 218.51 65.2538 218.77V223.735H63.0488V213.22ZM71.788 220.015C71.788 219.405 71.893 218.86 72.103 218.38C72.323 217.9 72.613 217.495 72.973 217.165C73.333 216.825 73.743 216.565 74.203 216.385C74.673 216.205 75.158 216.115 75.658 216.115C76.228 216.115 76.733 216.205 77.173 216.385C77.613 216.565 77.978 216.815 78.268 217.135C78.558 217.455 78.778 217.835 78.928 218.275C79.078 218.705 79.153 219.175 79.153 219.685C79.153 219.885 79.143 220.075 79.123 220.255C79.103 220.435 79.083 220.57 79.063 220.66H74.053C74.133 221.22 74.373 221.625 74.773 221.875C75.183 222.115 75.663 222.235 76.213 222.235C76.553 222.235 76.873 222.195 77.173 222.115C77.483 222.025 77.803 221.895 78.133 221.725L78.853 223.045C78.433 223.315 77.963 223.53 77.443 223.69C76.923 223.84 76.413 223.915 75.913 223.915C75.333 223.915 74.793 223.83 74.293 223.66C73.793 223.48 73.358 223.225 72.988 222.895C72.618 222.555 72.323 222.145 72.103 221.665C71.893 221.185 71.788 220.635 71.788 220.015ZM77.158 219.205C77.158 218.785 77.043 218.445 76.813 218.185C76.583 217.925 76.213 217.795 75.703 217.795C75.303 217.795 74.948 217.91 74.638 218.14C74.328 218.37 74.123 218.725 74.023 219.205H77.158ZM81.6971 216.295H83.4971L83.6771 217.915H83.7221C84.0921 217.305 84.5371 216.855 85.0571 216.565C85.5771 216.265 86.1371 216.115 86.7371 216.115C87.0671 216.115 87.3321 216.14 87.5321 216.19C87.7421 216.24 87.9571 216.315 88.1771 216.415L87.7271 218.26C87.4971 218.19 87.2871 218.14 87.0971 218.11C86.9171 218.07 86.6871 218.05 86.4071 218.05C85.9471 218.05 85.4921 218.185 85.0421 218.455C84.6021 218.725 84.2221 219.195 83.9021 219.865V223.735H81.6971V216.295ZM97.0513 224.545V226.195H89.8513V224.545H97.0513ZM99.0854 213.22H101.29V219.295H101.35L104.08 216.295H106.495L103.675 219.355L106.72 223.735H104.335L102.385 220.705L101.29 221.86V223.735H99.0854V213.22ZM107.765 220.015C107.765 219.405 107.87 218.86 108.08 218.38C108.3 217.9 108.59 217.495 108.95 217.165C109.31 216.825 109.72 216.565 110.18 216.385C110.65 216.205 111.135 216.115 111.635 216.115C112.205 216.115 112.71 216.205 113.15 216.385C113.59 216.565 113.955 216.815 114.245 217.135C114.535 217.455 114.755 217.835 114.905 218.275C115.055 218.705 115.13 219.175 115.13 219.685C115.13 219.885 115.12 220.075 115.1 220.255C115.08 220.435 115.06 220.57 115.04 220.66H110.03C110.11 221.22 110.35 221.625 110.75 221.875C111.16 222.115 111.64 222.235 112.19 222.235C112.53 222.235 112.85 222.195 113.15 222.115C113.46 222.025 113.78 221.895 114.11 221.725L114.83 223.045C114.41 223.315 113.94 223.53 113.42 223.69C112.9 223.84 112.39 223.915 111.89 223.915C111.31 223.915 110.77 223.83 110.27 223.66C109.77 223.48 109.335 223.225 108.965 222.895C108.595 222.555 108.3 222.145 108.08 221.665C107.87 221.185 107.765 220.635 107.765 220.015ZM113.135 219.205C113.135 218.785 113.02 218.445 112.79 218.185C112.56 217.925 112.19 217.795 111.68 217.795C111.28 217.795 110.925 217.91 110.615 218.14C110.305 218.37 110.1 218.725 110 219.205H113.135ZM117.329 224.815C117.519 224.875 117.714 224.905 117.914 224.905C118.344 224.905 118.679 224.815 118.919 224.635C119.169 224.455 119.354 224.22 119.474 223.93L119.624 223.54L116.399 216.295H118.589L119.834 219.49C119.974 219.84 120.104 220.205 120.224 220.585C120.344 220.955 120.464 221.335 120.584 221.725H120.644C120.744 221.355 120.854 220.985 120.974 220.615C121.094 220.235 121.209 219.86 121.319 219.49L122.414 216.295H124.499L121.559 223.81C121.379 224.28 121.184 224.69 120.974 225.04C120.764 225.4 120.524 225.695 120.254 225.925C119.984 226.165 119.669 226.345 119.309 226.465C118.959 226.585 118.549 226.645 118.079 226.645C117.859 226.645 117.654 226.63 117.464 226.6C117.274 226.58 117.099 226.545 116.939 226.495L117.329 224.815ZM128.228 215.635L128.153 213.46H130.703L130.628 215.635L130.103 219.19H128.753L128.228 215.635ZM136.682 217.315C136.682 217.065 136.722 216.835 136.802 216.625C136.892 216.405 137.012 216.215 137.162 216.055C137.312 215.895 137.492 215.77 137.702 215.68C137.922 215.59 138.162 215.545 138.422 215.545C138.682 215.545 138.917 215.59 139.127 215.68C139.347 215.77 139.532 215.895 139.682 216.055C139.832 216.215 139.947 216.405 140.027 216.625C140.117 216.835 140.162 217.065 140.162 217.315C140.162 217.815 140.002 218.235 139.682 218.575C139.362 218.905 138.942 219.07 138.422 219.07C137.902 219.07 137.482 218.905 137.162 218.575C136.842 218.235 136.682 217.815 136.682 217.315ZM136.682 222.16C136.682 221.91 136.722 221.68 136.802 221.47C136.892 221.25 137.012 221.06 137.162 220.9C137.312 220.74 137.492 220.615 137.702 220.525C137.922 220.435 138.162 220.39 138.422 220.39C138.682 220.39 138.917 220.435 139.127 220.525C139.347 220.615 139.532 220.74 139.682 220.9C139.832 221.06 139.947 221.25 140.027 221.47C140.117 221.68 140.162 221.91 140.162 222.16C140.162 222.66 140.002 223.08 139.682 223.42C139.362 223.75 138.942 223.915 138.422 223.915C137.902 223.915 137.482 223.75 137.162 223.42C136.842 223.08 136.682 222.66 136.682 222.16ZM152.78 222.475C153.46 221.905 154.08 221.375 154.64 220.885C155.2 220.385 155.68 219.92 156.08 219.49C156.48 219.06 156.79 218.655 157.01 218.275C157.23 217.895 157.34 217.535 157.34 217.195C157.34 216.725 157.205 216.37 156.935 216.13C156.665 215.88 156.28 215.755 155.78 215.755C155.4 215.755 155.05 215.855 154.73 216.055C154.42 216.245 154.13 216.47 153.86 216.73L152.675 215.545C152.925 215.295 153.17 215.075 153.41 214.885C153.66 214.695 153.92 214.54 154.19 214.42C154.47 214.29 154.76 214.195 155.06 214.135C155.37 214.065 155.71 214.03 156.08 214.03C156.58 214.03 157.035 214.105 157.445 214.255C157.855 214.395 158.205 214.6 158.495 214.87C158.795 215.13 159.025 215.445 159.185 215.815C159.355 216.185 159.44 216.6 159.44 217.06C159.44 217.46 159.345 217.87 159.155 218.29C158.965 218.7 158.705 219.115 158.375 219.535C158.055 219.945 157.685 220.36 157.265 220.78C156.845 221.19 156.405 221.595 155.945 221.995C156.215 221.965 156.505 221.94 156.815 221.92C157.135 221.89 157.42 221.875 157.67 221.875H159.935V223.735H152.78V222.475ZM163.634 225.7C164.934 225.25 165.584 224.54 165.584 223.57C165.544 223.58 165.489 223.585 165.419 223.585C165.209 223.585 165.004 223.555 164.804 223.495C164.614 223.425 164.444 223.325 164.294 223.195C164.144 223.065 164.024 222.905 163.934 222.715C163.844 222.525 163.799 222.305 163.799 222.055C163.799 221.585 163.959 221.21 164.279 220.93C164.609 220.65 165.009 220.51 165.479 220.51C166.099 220.51 166.564 220.74 166.874 221.2C167.184 221.65 167.339 222.28 167.339 223.09C167.339 224.05 167.074 224.86 166.544 225.52C166.014 226.18 165.229 226.67 164.189 226.99L163.634 225.7ZM244.612 217.315C244.612 217.065 244.652 216.835 244.732 216.625C244.822 216.405 244.942 216.215 245.092 216.055C245.242 215.895 245.422 215.77 245.632 215.68C245.852 215.59 246.092 215.545 246.352 215.545C246.612 215.545 246.847 215.59 247.057 215.68C247.277 215.77 247.462 215.895 247.612 216.055C247.762 216.215 247.877 216.405 247.957 216.625C248.047 216.835 248.092 217.065 248.092 217.315C248.092 217.815 247.932 218.235 247.612 218.575C247.292 218.905 246.872 219.07 246.352 219.07C245.832 219.07 245.412 218.905 245.092 218.575C244.772 218.235 244.612 217.815 244.612 217.315ZM244.612 222.16C244.612 221.91 244.652 221.68 244.732 221.47C244.822 221.25 244.942 221.06 245.092 220.9C245.242 220.74 245.422 220.615 245.632 220.525C245.852 220.435 246.092 220.39 246.352 220.39C246.612 220.39 246.847 220.435 247.057 220.525C247.277 220.615 247.462 220.74 247.612 220.9C247.762 221.06 247.877 221.25 247.957 221.47C248.047 221.68 248.092 221.91 248.092 222.16C248.092 222.66 247.932 223.08 247.612 223.42C247.292 223.75 246.872 223.915 246.352 223.915C245.832 223.915 245.412 223.75 245.092 223.42C244.772 223.08 244.612 222.66 244.612 222.16ZM261.52 221.185C261.84 221.445 262.18 221.67 262.54 221.86C262.91 222.04 263.32 222.13 263.77 222.13C264.31 222.13 264.75 222.005 265.09 221.755C265.44 221.505 265.615 221.135 265.615 220.645C265.615 220.165 265.45 219.8 265.12 219.55C264.8 219.3 264.385 219.175 263.875 219.175C263.715 219.175 263.57 219.185 263.44 219.205C263.32 219.215 263.2 219.24 263.08 219.28C262.96 219.32 262.835 219.37 262.705 219.43C262.575 219.49 262.43 219.565 262.27 219.655L261.295 219.025L261.55 214.21H267.385V216.07H263.455L263.29 217.855C263.51 217.775 263.715 217.72 263.905 217.69C264.095 217.65 264.31 217.63 264.55 217.63C264.99 217.63 265.405 217.69 265.795 217.81C266.195 217.93 266.545 218.11 266.845 218.35C267.145 218.59 267.38 218.895 267.55 219.265C267.73 219.635 267.82 220.075 267.82 220.585C267.82 221.115 267.715 221.585 267.505 221.995C267.305 222.405 267.03 222.755 266.68 223.045C266.34 223.325 265.945 223.54 265.495 223.69C265.045 223.84 264.575 223.915 264.085 223.915C263.255 223.915 262.55 223.79 261.97 223.54C261.4 223.28 260.92 222.96 260.53 222.58L261.52 221.185ZM271.564 225.7C272.864 225.25 273.514 224.54 273.514 223.57C273.474 223.58 273.419 223.585 273.349 223.585C273.139 223.585 272.934 223.555 272.734 223.495C272.544 223.425 272.374 223.325 272.224 223.195C272.074 223.065 271.954 222.905 271.864 222.715C271.774 222.525 271.729 222.305 271.729 222.055C271.729 221.585 271.889 221.21 272.209 220.93C272.539 220.65 272.939 220.51 273.409 220.51C274.029 220.51 274.494 220.74 274.804 221.2C275.114 221.65 275.269 222.28 275.269 223.09C275.269 224.05 275.004 224.86 274.474 225.52C273.944 226.18 273.159 226.67 272.119 226.99L271.564 225.7ZM290.122 215.635L290.047 213.46H292.597L292.522 215.635L291.997 219.19H290.647L290.122 215.635ZM297.211 224.815C297.401 224.875 297.596 224.905 297.796 224.905C298.226 224.905 298.561 224.815 298.801 224.635C299.051 224.455 299.236 224.22 299.356 223.93L299.506 223.54L296.281 216.295H298.471L299.716 219.49C299.856 219.84 299.986 220.205 300.106 220.585C300.226 220.955 300.346 221.335 300.466 221.725H300.526C300.626 221.355 300.736 220.985 300.856 220.615C300.976 220.235 301.091 219.86 301.201 219.49L302.296 216.295H304.381L301.441 223.81C301.261 224.28 301.066 224.69 300.856 225.04C300.646 225.4 300.406 225.695 300.136 225.925C299.866 226.165 299.551 226.345 299.191 226.465C298.841 226.585 298.431 226.645 297.961 226.645C297.741 226.645 297.536 226.63 297.346 226.6C297.156 226.58 296.981 226.545 296.821 226.495L297.211 224.815ZM305.636 220.015C305.636 219.405 305.741 218.86 305.951 218.38C306.171 217.9 306.461 217.495 306.821 217.165C307.181 216.825 307.591 216.565 308.051 216.385C308.521 216.205 309.006 216.115 309.506 216.115C310.076 216.115 310.581 216.205 311.021 216.385C311.461 216.565 311.826 216.815 312.116 217.135C312.406 217.455 312.626 217.835 312.776 218.275C312.926 218.705 313.001 219.175 313.001 219.685C313.001 219.885 312.991 220.075 312.971 220.255C312.951 220.435 312.931 220.57 312.911 220.66H307.901C307.981 221.22 308.221 221.625 308.621 221.875C309.031 222.115 309.511 222.235 310.061 222.235C310.401 222.235 310.721 222.195 311.021 222.115C311.331 222.025 311.651 221.895 311.981 221.725L312.701 223.045C312.281 223.315 311.811 223.53 311.291 223.69C310.771 223.84 310.261 223.915 309.761 223.915C309.181 223.915 308.641 223.83 308.141 223.66C307.641 223.48 307.206 223.225 306.836 222.895C306.466 222.555 306.171 222.145 305.951 221.665C305.741 221.185 305.636 220.635 305.636 220.015ZM311.006 219.205C311.006 218.785 310.891 218.445 310.661 218.185C310.431 217.925 310.061 217.795 309.551 217.795C309.151 217.795 308.796 217.91 308.486 218.14C308.176 218.37 307.971 218.725 307.871 219.205H311.006ZM316.415 218.02H314.54V216.385L316.52 216.295L316.805 214.315H318.62V216.295H321.77V218.02H318.62V220.63C318.62 221.2 318.745 221.605 318.995 221.845C319.245 222.075 319.64 222.19 320.18 222.19C320.47 222.19 320.735 222.165 320.975 222.115C321.215 222.065 321.445 222 321.665 221.92L322.055 223.51C321.725 223.61 321.355 223.7 320.945 223.78C320.545 223.87 320.105 223.915 319.625 223.915C319.035 223.915 318.535 223.835 318.125 223.675C317.715 223.515 317.38 223.295 317.12 223.015C316.87 222.725 316.69 222.38 316.58 221.98C316.47 221.58 316.415 221.135 316.415 220.645V218.02ZM330.899 224.545V226.195H323.699V224.545H330.899ZM332.708 221.665C332.708 221.245 332.798 220.88 332.978 220.57C333.158 220.25 333.443 219.98 333.833 219.76C334.233 219.54 334.743 219.365 335.363 219.235C335.983 219.095 336.733 219 337.613 218.95C337.573 218.61 337.423 218.345 337.163 218.155C336.913 217.965 336.533 217.87 336.023 217.87C335.663 217.87 335.298 217.935 334.928 218.065C334.568 218.185 334.178 218.35 333.758 218.56L332.978 217.12C333.488 216.83 334.033 216.59 334.613 216.4C335.203 216.21 335.818 216.115 336.458 216.115C337.498 216.115 338.318 216.39 338.918 216.94C339.518 217.49 339.818 218.335 339.818 219.475V223.735H338.018L337.853 222.895H337.793C337.413 223.185 336.998 223.43 336.548 223.63C336.098 223.82 335.633 223.915 335.153 223.915C334.773 223.915 334.433 223.855 334.133 223.735C333.833 223.625 333.578 223.47 333.368 223.27C333.158 223.06 332.993 222.82 332.873 222.55C332.763 222.28 332.708 221.985 332.708 221.665ZM334.823 221.5C334.823 221.74 334.913 221.92 335.093 222.04C335.283 222.15 335.538 222.205 335.858 222.205C336.188 222.205 336.498 222.14 336.788 222.01C337.078 221.87 337.353 221.7 337.613 221.5V220.27C337.063 220.3 336.608 220.35 336.248 220.42C335.888 220.49 335.603 220.58 335.393 220.69C335.183 220.79 335.033 220.91 334.943 221.05C334.863 221.19 334.823 221.34 334.823 221.5ZM341.867 216.295H343.667L343.832 217.285H343.892C344.212 216.965 344.577 216.69 344.987 216.46C345.407 216.23 345.897 216.115 346.457 216.115C347.297 216.115 347.912 216.385 348.302 216.925C348.692 217.465 348.887 218.205 348.887 219.145V223.735H346.682V219.43C346.682 218.93 346.602 218.565 346.442 218.335C346.282 218.105 345.997 217.99 345.587 217.99C345.287 217.99 345.022 218.055 344.792 218.185C344.572 218.315 344.332 218.51 344.072 218.77V223.735H341.867V216.295ZM350.486 220.015C350.486 219.395 350.591 218.845 350.801 218.365C351.011 217.875 351.291 217.465 351.641 217.135C352.001 216.805 352.406 216.555 352.856 216.385C353.316 216.205 353.791 216.115 354.281 216.115C354.771 216.115 355.241 216.205 355.691 216.385C356.151 216.555 356.556 216.805 356.906 217.135C357.266 217.465 357.551 217.875 357.761 218.365C357.971 218.845 358.076 219.395 358.076 220.015C358.076 220.635 357.971 221.19 357.761 221.68C357.551 222.16 357.266 222.565 356.906 222.895C356.556 223.225 356.151 223.48 355.691 223.66C355.241 223.83 354.771 223.915 354.281 223.915C353.791 223.915 353.316 223.83 352.856 223.66C352.406 223.48 352.001 223.225 351.641 222.895C351.291 222.565 351.011 222.16 350.801 221.68C350.591 221.19 350.486 220.635 350.486 220.015ZM352.751 220.015C352.751 220.665 352.876 221.18 353.126 221.56C353.386 221.94 353.771 222.13 354.281 222.13C354.791 222.13 355.171 221.94 355.421 221.56C355.681 221.18 355.811 220.665 355.811 220.015C355.811 219.365 355.681 218.85 355.421 218.47C355.171 218.09 354.791 217.9 354.281 217.9C353.771 217.9 353.386 218.09 353.126 218.47C352.876 218.85 352.751 219.365 352.751 220.015ZM361.385 218.02H359.51V216.385L361.49 216.295L361.775 214.315H363.59V216.295H366.74V218.02H363.59V220.63C363.59 221.2 363.715 221.605 363.965 221.845C364.215 222.075 364.61 222.19 365.15 222.19C365.44 222.19 365.705 222.165 365.945 222.115C366.185 222.065 366.415 222 366.635 221.92L367.025 223.51C366.695 223.61 366.325 223.7 365.915 223.78C365.515 223.87 365.075 223.915 364.595 223.915C364.005 223.915 363.505 223.835 363.095 223.675C362.685 223.515 362.35 223.295 362.09 223.015C361.84 222.725 361.66 222.38 361.55 221.98C361.44 221.58 361.385 221.135 361.385 220.645V218.02ZM368.85 213.22H371.055V215.8L370.935 217.225C371.085 217.085 371.245 216.95 371.415 216.82C371.595 216.68 371.785 216.56 371.985 216.46C372.195 216.35 372.42 216.265 372.66 216.205C372.91 216.145 373.175 216.115 373.455 216.115C374.295 216.115 374.905 216.385 375.285 216.925C375.675 217.465 375.87 218.205 375.87 219.145V223.735H373.665V219.43C373.665 218.93 373.585 218.565 373.425 218.335C373.265 218.105 372.98 217.99 372.57 217.99C372.27 217.99 372.005 218.055 371.775 218.185C371.555 218.315 371.315 218.51 371.055 218.77V223.735H368.85V213.22ZM377.589 220.015C377.589 219.405 377.694 218.86 377.904 218.38C378.124 217.9 378.414 217.495 378.774 217.165C379.134 216.825 379.544 216.565 380.004 216.385C380.474 216.205 380.959 216.115 381.459 216.115C382.029 216.115 382.534 216.205 382.974 216.385C383.414 216.565 383.779 216.815 384.069 217.135C384.359 217.455 384.579 217.835 384.729 218.275C384.879 218.705 384.954 219.175 384.954 219.685C384.954 219.885 384.944 220.075 384.924 220.255C384.904 220.435 384.884 220.57 384.864 220.66H379.854C379.934 221.22 380.174 221.625 380.574 221.875C380.984 222.115 381.464 222.235 382.014 222.235C382.354 222.235 382.674 222.195 382.974 222.115C383.284 222.025 383.604 221.895 383.934 221.725L384.654 223.045C384.234 223.315 383.764 223.53 383.244 223.69C382.724 223.84 382.214 223.915 381.714 223.915C381.134 223.915 380.594 223.83 380.094 223.66C379.594 223.48 379.159 223.225 378.789 222.895C378.419 222.555 378.124 222.145 377.904 221.665C377.694 221.185 377.589 220.635 377.589 220.015ZM382.959 219.205C382.959 218.785 382.844 218.445 382.614 218.185C382.384 217.925 382.014 217.795 381.504 217.795C381.104 217.795 380.749 217.91 380.439 218.14C380.129 218.37 379.924 218.725 379.824 219.205H382.959ZM387.498 216.295H389.298L389.478 217.915H389.523C389.893 217.305 390.338 216.855 390.858 216.565C391.378 216.265 391.938 216.115 392.538 216.115C392.868 216.115 393.133 216.14 393.333 216.19C393.543 216.24 393.758 216.315 393.978 216.415L393.528 218.26C393.298 218.19 393.088 218.14 392.898 218.11C392.718 218.07 392.488 218.05 392.208 218.05C391.748 218.05 391.293 218.185 390.843 218.455C390.403 218.725 390.023 219.195 389.703 219.865V223.735H387.498V216.295ZM402.852 224.545V226.195H395.652V224.545H402.852ZM404.886 213.22H407.091V219.295H407.151L409.881 216.295H412.296L409.476 219.355L412.521 223.735H410.136L408.186 220.705L407.091 221.86V223.735H404.886V213.22ZM413.565 220.015C413.565 219.405 413.67 218.86 413.88 218.38C414.1 217.9 414.39 217.495 414.75 217.165C415.11 216.825 415.52 216.565 415.98 216.385C416.45 216.205 416.935 216.115 417.435 216.115C418.005 216.115 418.51 216.205 418.95 216.385C419.39 216.565 419.755 216.815 420.045 217.135C420.335 217.455 420.555 217.835 420.705 218.275C420.855 218.705 420.93 219.175 420.93 219.685C420.93 219.885 420.92 220.075 420.9 220.255C420.88 220.435 420.86 220.57 420.84 220.66H415.83C415.91 221.22 416.15 221.625 416.55 221.875C416.96 222.115 417.44 222.235 417.99 222.235C418.33 222.235 418.65 222.195 418.95 222.115C419.26 222.025 419.58 221.895 419.91 221.725L420.63 223.045C420.21 223.315 419.74 223.53 419.22 223.69C418.7 223.84 418.19 223.915 417.69 223.915C417.11 223.915 416.57 223.83 416.07 223.66C415.57 223.48 415.135 223.225 414.765 222.895C414.395 222.555 414.1 222.145 413.88 221.665C413.67 221.185 413.565 220.635 413.565 220.015ZM418.935 219.205C418.935 218.785 418.82 218.445 418.59 218.185C418.36 217.925 417.99 217.795 417.48 217.795C417.08 217.795 416.725 217.91 416.415 218.14C416.105 218.37 415.9 218.725 415.8 219.205H418.935ZM423.129 224.815C423.319 224.875 423.514 224.905 423.714 224.905C424.144 224.905 424.479 224.815 424.719 224.635C424.969 224.455 425.154 224.22 425.274 223.93L425.424 223.54L422.199 216.295H424.389L425.634 219.49C425.774 219.84 425.904 220.205 426.024 220.585C426.144 220.955 426.264 221.335 426.384 221.725H426.444C426.544 221.355 426.654 220.985 426.774 220.615C426.894 220.235 427.009 219.86 427.119 219.49L428.214 216.295H430.299L427.359 223.81C427.179 224.28 426.984 224.69 426.774 225.04C426.564 225.4 426.324 225.695 426.054 225.925C425.784 226.165 425.469 226.345 425.109 226.465C424.759 226.585 424.349 226.645 423.879 226.645C423.659 226.645 423.454 226.63 423.264 226.6C423.074 226.58 422.899 226.545 422.739 226.495L423.129 224.815ZM434.029 215.635L433.954 213.46H436.504L436.429 215.635L435.904 219.19H434.554L434.029 215.635ZM442.483 217.315C442.483 217.065 442.523 216.835 442.603 216.625C442.693 216.405 442.813 216.215 442.963 216.055C443.113 215.895 443.293 215.77 443.503 215.68C443.723 215.59 443.963 215.545 444.223 215.545C444.483 215.545 444.718 215.59 444.928 215.68C445.148 215.77 445.333 215.895 445.483 216.055C445.633 216.215 445.748 216.405 445.828 216.625C445.918 216.835 445.963 217.065 445.963 217.315C445.963 217.815 445.803 218.235 445.483 218.575C445.163 218.905 444.743 219.07 444.223 219.07C443.703 219.07 443.283 218.905 442.963 218.575C442.643 218.235 442.483 217.815 442.483 217.315ZM442.483 222.16C442.483 221.91 442.523 221.68 442.603 221.47C442.693 221.25 442.813 221.06 442.963 220.9C443.113 220.74 443.293 220.615 443.503 220.525C443.723 220.435 443.963 220.39 444.223 220.39C444.483 220.39 444.718 220.435 444.928 220.525C445.148 220.615 445.333 220.74 445.483 220.9C445.633 221.06 445.748 221.25 445.828 221.47C445.918 221.68 445.963 221.91 445.963 222.16C445.963 222.66 445.803 223.08 445.483 223.42C445.163 223.75 444.743 223.915 444.223 223.915C443.703 223.915 443.283 223.75 442.963 223.42C442.643 223.08 442.483 222.66 442.483 222.16ZM462.826 219.775V218.17C462.826 217.87 462.831 217.525 462.841 217.135C462.861 216.735 462.881 216.385 462.901 216.085H462.841C462.681 216.355 462.511 216.625 462.331 216.895C462.151 217.165 461.976 217.435 461.806 217.705L460.366 219.775H462.826ZM466.081 221.455H464.881V223.735H462.826V221.455H458.236V219.94L462.211 214.21H464.881V219.775H466.081V221.455ZM468.895 224.845C469.205 224.845 469.455 224.83 469.645 224.8C469.845 224.77 470 224.715 470.11 224.635C470.22 224.555 470.295 224.445 470.335 224.305C470.385 224.175 470.41 224.005 470.41 223.795C470.41 223.385 470.4 222.99 470.38 222.61C470.36 222.23 470.35 221.81 470.35 221.35C470.35 220.78 470.465 220.37 470.695 220.12C470.925 219.86 471.31 219.685 471.85 219.595V219.535C471.31 219.445 470.925 219.275 470.695 219.025C470.465 218.765 470.35 218.35 470.35 217.78C470.35 217.33 470.36 216.91 470.38 216.52C470.4 216.13 470.41 215.735 470.41 215.335C470.41 215.125 470.385 214.955 470.335 214.825C470.295 214.685 470.22 214.575 470.11 214.495C470 214.415 469.845 214.36 469.645 214.33C469.455 214.3 469.205 214.285 468.895 214.285H468.28V213.115H469.435C470.395 213.115 471.1 213.27 471.55 213.58C472 213.88 472.225 214.435 472.225 215.245C472.225 215.505 472.215 215.745 472.195 215.965C472.185 216.175 472.165 216.38 472.135 216.58C472.115 216.77 472.095 216.965 472.075 217.165C472.065 217.365 472.06 217.58 472.06 217.81C472.06 217.94 472.09 218.07 472.15 218.2C472.21 218.33 472.32 218.45 472.48 218.56C472.64 218.66 472.85 218.745 473.11 218.815C473.38 218.875 473.72 218.91 474.13 218.92V220.21C473.72 220.22 473.38 220.26 473.11 220.33C472.85 220.39 472.64 220.475 472.48 220.585C472.32 220.685 472.21 220.8 472.15 220.93C472.09 221.06 472.06 221.19 472.06 221.32C472.06 221.56 472.065 221.78 472.075 221.98C472.095 222.17 472.115 222.365 472.135 222.565C472.165 222.755 472.185 222.955 472.195 223.165C472.215 223.375 472.225 223.615 472.225 223.885C472.225 224.695 472 225.25 471.55 225.55C471.1 225.86 470.395 226.015 469.435 226.015H468.28V224.845H468.895Z" fill="white"/>
<path d="M182.193 215.635L182.118 213.46H184.668L184.593 215.635L184.068 219.19H182.718L182.193 215.635ZM188.802 221.665C188.802 221.245 188.892 220.88 189.072 220.57C189.252 220.25 189.537 219.98 189.927 219.76C190.327 219.54 190.837 219.365 191.457 219.235C192.077 219.095 192.827 219 193.707 218.95C193.667 218.61 193.517 218.345 193.257 218.155C193.007 217.965 192.627 217.87 192.117 217.87C191.757 217.87 191.392 217.935 191.022 218.065C190.662 218.185 190.272 218.35 189.852 218.56L189.072 217.12C189.582 216.83 190.127 216.59 190.707 216.4C191.297 216.21 191.912 216.115 192.552 216.115C193.592 216.115 194.412 216.39 195.012 216.94C195.612 217.49 195.912 218.335 195.912 219.475V223.735H194.112L193.947 222.895H193.887C193.507 223.185 193.092 223.43 192.642 223.63C192.192 223.82 191.727 223.915 191.247 223.915C190.867 223.915 190.527 223.855 190.227 223.735C189.927 223.625 189.672 223.47 189.462 223.27C189.252 223.06 189.087 222.82 188.967 222.55C188.857 222.28 188.802 221.985 188.802 221.665ZM190.917 221.5C190.917 221.74 191.007 221.92 191.187 222.04C191.377 222.15 191.632 222.205 191.952 222.205C192.282 222.205 192.592 222.14 192.882 222.01C193.172 221.87 193.447 221.7 193.707 221.5V220.27C193.157 220.3 192.702 220.35 192.342 220.42C191.982 220.49 191.697 220.58 191.487 220.69C191.277 220.79 191.127 220.91 191.037 221.05C190.957 221.19 190.917 221.34 190.917 221.5ZM204.981 224.545V226.195H197.781V224.545H204.981ZM207.015 213.22H209.22V219.295H209.28L212.01 216.295H214.425L211.605 219.355L214.65 223.735H212.265L210.315 220.705L209.22 221.86V223.735H207.015V213.22ZM215.694 220.015C215.694 219.405 215.799 218.86 216.009 218.38C216.229 217.9 216.519 217.495 216.879 217.165C217.239 216.825 217.649 216.565 218.109 216.385C218.579 216.205 219.064 216.115 219.564 216.115C220.134 216.115 220.639 216.205 221.079 216.385C221.519 216.565 221.884 216.815 222.174 217.135C222.464 217.455 222.684 217.835 222.834 218.275C222.984 218.705 223.059 219.175 223.059 219.685C223.059 219.885 223.049 220.075 223.029 220.255C223.009 220.435 222.989 220.57 222.969 220.66H217.959C218.039 221.22 218.279 221.625 218.679 221.875C219.089 222.115 219.569 222.235 220.119 222.235C220.459 222.235 220.779 222.195 221.079 222.115C221.389 222.025 221.709 221.895 222.039 221.725L222.759 223.045C222.339 223.315 221.869 223.53 221.349 223.69C220.829 223.84 220.319 223.915 219.819 223.915C219.239 223.915 218.699 223.83 218.199 223.66C217.699 223.48 217.264 223.225 216.894 222.895C216.524 222.555 216.229 222.145 216.009 221.665C215.799 221.185 215.694 220.635 215.694 220.015ZM221.064 219.205C221.064 218.785 220.949 218.445 220.719 218.185C220.489 217.925 220.119 217.795 219.609 217.795C219.209 217.795 218.854 217.91 218.544 218.14C218.234 218.37 218.029 218.725 217.929 219.205H221.064ZM225.258 224.815C225.448 224.875 225.643 224.905 225.843 224.905C226.273 224.905 226.608 224.815 226.848 224.635C227.098 224.455 227.283 224.22 227.403 223.93L227.553 223.54L224.328 216.295H226.518L227.763 219.49C227.903 219.84 228.033 220.205 228.153 220.585C228.273 220.955 228.393 221.335 228.513 221.725H228.573C228.673 221.355 228.783 220.985 228.903 220.615C229.023 220.235 229.138 219.86 229.248 219.49L230.343 216.295H232.428L229.488 223.81C229.308 224.28 229.113 224.69 228.903 225.04C228.693 225.4 228.453 225.695 228.183 225.925C227.913 226.165 227.598 226.345 227.238 226.465C226.888 226.585 226.478 226.645 226.008 226.645C225.788 226.645 225.583 226.63 225.393 226.6C225.203 226.58 225.028 226.545 224.868 226.495L225.258 224.815ZM236.158 215.635L236.083 213.46H238.633L238.558 215.635L238.033 219.19H236.683L236.158 215.635Z" fill="#CC79A7"/>
</svg>
