<svg width="307" height="264" viewBox="0 0 307 264" fill="none" xmlns="http://www.w3.org/2000/svg">
<rect width="307" height="264" fill="black"/>
<line y1="205.5" x2="307" y2="205.5" stroke="white"/>
<path d="M11.5004 226.68C10.9204 226.68 10.3854 226.565 9.8954 226.335C9.4154 226.095 9.0004 225.755 8.6504 225.315C8.3104 224.875 8.0454 224.34 7.8554 223.71C7.6654 223.08 7.5704 222.365 7.5704 221.565C7.5704 220.765 7.6654 220.055 7.8554 219.435C8.0454 218.805 8.3104 218.28 8.6504 217.86C9.0004 217.43 9.4154 217.105 9.8954 216.885C10.3854 216.655 10.9204 216.54 11.5004 216.54C12.0804 216.54 12.6104 216.655 13.0904 216.885C13.5804 217.105 13.9954 217.43 14.3354 217.86C14.6854 218.29 14.9554 218.82 15.1454 219.45C15.3354 220.07 15.4304 220.775 15.4304 221.565C15.4304 222.365 15.3354 223.08 15.1454 223.71C14.9554 224.34 14.6854 224.875 14.3354 225.315C13.9954 225.755 13.5804 226.095 13.0904 226.335C12.6104 226.565 12.0804 226.68 11.5004 226.68ZM11.5004 224.775C12.0104 224.775 12.4154 224.49 12.7154 223.92C13.0154 223.34 13.1654 222.555 13.1654 221.565C13.1654 220.585 13.0154 219.82 12.7154 219.27C12.4154 218.72 12.0104 218.445 11.5004 218.445C10.9904 218.445 10.5854 218.72 10.2854 219.27C9.9854 219.82 9.8354 220.585 9.8354 221.565C9.8354 222.555 9.9854 223.34 10.2854 223.92C10.5854 224.49 10.9904 224.775 11.5004 224.775ZM23.8695 226.5H22.0695L21.9045 225.435H21.8445C21.5145 225.815 21.1495 226.12 20.7495 226.35C20.3495 226.57 19.8795 226.68 19.3395 226.68C18.4895 226.68 17.8745 226.41 17.4945 225.87C17.1145 225.33 16.9245 224.59 16.9245 223.65V219.06H19.1295V223.365C19.1295 223.865 19.2045 224.23 19.3545 224.46C19.5045 224.69 19.7895 224.805 20.2095 224.805C20.4895 224.805 20.7345 224.745 20.9445 224.625C21.1645 224.505 21.4045 224.28 21.6645 223.95V219.06H23.8695V226.5ZM27.5987 220.785H25.7237V219.15L27.7037 219.06L27.9887 217.08H29.8037V219.06H32.9537V220.785H29.8037V223.395C29.8037 223.965 29.9287 224.37 30.1787 224.61C30.4287 224.84 30.8237 224.955 31.3637 224.955C31.6537 224.955 31.9187 224.93 32.1587 224.88C32.3987 224.83 32.6287 224.765 32.8487 224.685L33.2387 226.275C32.9087 226.375 32.5387 226.465 32.1287 226.545C31.7287 226.635 31.2887 226.68 30.8087 226.68C30.2187 226.68 29.7187 226.6 29.3087 226.44C28.8987 226.28 28.5637 226.06 28.3037 225.78C28.0537 225.49 27.8737 225.145 27.7637 224.745C27.6537 224.345 27.5987 223.9 27.5987 223.41V220.785ZM37.2678 227.085V229.26H35.0628V219.06H36.8628L37.0278 219.81H37.0728C37.3728 219.54 37.7178 219.32 38.1078 219.15C38.4978 218.97 38.8928 218.88 39.2928 218.88C39.7528 218.88 40.1678 218.97 40.5378 219.15C40.9078 219.33 41.2228 219.585 41.4828 219.915C41.7428 220.245 41.9378 220.645 42.0678 221.115C42.2078 221.575 42.2778 222.09 42.2778 222.66C42.2778 223.3 42.1878 223.87 42.0078 224.37C41.8278 224.86 41.5878 225.28 41.2878 225.63C40.9878 225.97 40.6428 226.23 40.2528 226.41C39.8728 226.59 39.4728 226.68 39.0528 226.68C38.3728 226.68 37.7528 226.41 37.1928 225.87L37.2678 227.085ZM37.2678 224.385C37.4778 224.565 37.6928 224.695 37.9128 224.775C38.1428 224.845 38.3528 224.88 38.5428 224.88C38.9628 224.88 39.3128 224.71 39.5928 224.37C39.8728 224.02 40.0128 223.46 40.0128 222.69C40.0128 221.35 39.5578 220.68 38.6478 220.68C38.1778 220.68 37.7178 220.91 37.2678 221.37V224.385ZM50.852 226.5H49.052L48.887 225.435H48.827C48.497 225.815 48.132 226.12 47.732 226.35C47.332 226.57 46.862 226.68 46.322 226.68C45.472 226.68 44.857 226.41 44.477 225.87C44.097 225.33 43.907 224.59 43.907 223.65V219.06H46.112V223.365C46.112 223.865 46.187 224.23 46.337 224.46C46.487 224.69 46.772 224.805 47.192 224.805C47.472 224.805 47.717 224.745 47.927 224.625C48.147 224.505 48.387 224.28 48.647 223.95V219.06H50.852V226.5ZM54.5811 220.785H52.7061V219.15L54.6861 219.06L54.9711 217.08H56.7861V219.06H59.9361V220.785H56.7861V223.395C56.7861 223.965 56.9111 224.37 57.1611 224.61C57.4111 224.84 57.8061 224.955 58.3461 224.955C58.6361 224.955 58.9011 224.93 59.1411 224.88C59.3811 224.83 59.6111 224.765 59.8311 224.685L60.2211 226.275C59.8911 226.375 59.5211 226.465 59.1111 226.545C58.7111 226.635 58.2711 226.68 57.7911 226.68C57.2011 226.68 56.7011 226.6 56.2911 226.44C55.8811 226.28 55.5461 226.06 55.2861 225.78C55.0361 225.49 54.8561 225.145 54.7461 224.745C54.6361 224.345 54.5811 223.9 54.5811 223.41V220.785Z" fill="white"/>
<path d="M8.65 248.435C8.97 248.715 9.325 248.945 9.715 249.125C10.115 249.305 10.535 249.395 10.975 249.395C11.495 249.395 11.92 249.3 12.25 249.11C12.59 248.91 12.76 248.63 12.76 248.27C12.76 248.06 12.715 247.87 12.625 247.7C12.535 247.53 12.38 247.39 12.16 247.28C11.94 247.16 11.645 247.07 11.275 247.01C10.905 246.94 10.44 246.905 9.88 246.905V245.345C10.82 245.345 11.48 245.23 11.86 245C12.25 244.76 12.445 244.45 12.445 244.07C12.445 243.74 12.32 243.485 12.07 243.305C11.82 243.115 11.475 243.02 11.035 243.02C10.655 243.02 10.305 243.095 9.985 243.245C9.665 243.395 9.34 243.6 9.01 243.86L7.9 242.51C8.37 242.13 8.87 241.835 9.4 241.625C9.94 241.405 10.52 241.295 11.14 241.295C11.66 241.295 12.135 241.355 12.565 241.475C12.995 241.585 13.365 241.755 13.675 241.985C13.985 242.205 14.225 242.475 14.395 242.795C14.565 243.115 14.65 243.485 14.65 243.905C14.65 244.405 14.49 244.83 14.17 245.18C13.85 245.52 13.405 245.8 12.835 246.02V246.08C13.435 246.24 13.94 246.515 14.35 246.905C14.76 247.285 14.965 247.785 14.965 248.405C14.965 248.845 14.86 249.24 14.65 249.59C14.45 249.93 14.175 250.22 13.825 250.46C13.485 250.69 13.085 250.87 12.625 251C12.165 251.12 11.685 251.18 11.185 251.18C10.365 251.18 9.66 251.06 9.07 250.82C8.48 250.57 8 250.24 7.63 249.83L8.65 248.435ZM20.4941 251.18C19.9441 251.18 19.4441 251.075 18.9941 250.865C18.5441 250.645 18.1591 250.325 17.8391 249.905C17.5191 249.485 17.2691 248.965 17.0891 248.345C16.9191 247.725 16.8341 247.01 16.8341 246.2C16.8341 245.39 16.9191 244.68 17.0891 244.07C17.2691 243.46 17.5191 242.95 17.8391 242.54C18.1591 242.12 18.5441 241.81 18.9941 241.61C19.4441 241.4 19.9441 241.295 20.4941 241.295C21.0441 241.295 21.5441 241.4 21.9941 241.61C22.4441 241.81 22.8291 242.12 23.1491 242.54C23.4691 242.95 23.7141 243.46 23.8841 244.07C24.0641 244.68 24.1541 245.39 24.1541 246.2C24.1541 247.01 24.0641 247.725 23.8841 248.345C23.7141 248.965 23.4691 249.485 23.1491 249.905C22.8291 250.325 22.4441 250.645 21.9941 250.865C21.5441 251.075 21.0441 251.18 20.4941 251.18ZM20.4941 243.005C20.2541 243.005 20.0291 243.055 19.8191 243.155C19.6191 243.255 19.4441 243.43 19.2941 243.68C19.1441 243.92 19.0241 244.245 18.9341 244.655C18.8441 245.065 18.7991 245.58 18.7991 246.2C18.7991 246.82 18.8441 247.34 18.9341 247.76C19.0241 248.17 19.1441 248.505 19.2941 248.765C19.4441 249.015 19.6191 249.195 19.8191 249.305C20.0291 249.415 20.2541 249.47 20.4941 249.47C20.7341 249.47 20.9541 249.415 21.1541 249.305C21.3641 249.195 21.5441 249.015 21.6941 248.765C21.8441 248.505 21.9641 248.17 22.0541 247.76C22.1441 247.34 22.1891 246.82 22.1891 246.2C22.1891 245.58 22.1441 245.065 22.0541 244.655C21.9641 244.245 21.8441 243.92 21.6941 243.68C21.5441 243.43 21.3641 243.255 21.1541 243.155C20.9541 243.055 20.7341 243.005 20.4941 243.005ZM20.4941 247.31C20.1741 247.31 19.9041 247.21 19.6841 247.01C19.4741 246.8 19.3691 246.52 19.3691 246.17C19.3691 245.82 19.4741 245.545 19.6841 245.345C19.9041 245.135 20.1741 245.03 20.4941 245.03C20.8141 245.03 21.0791 245.135 21.2891 245.345C21.5091 245.545 21.6191 245.82 21.6191 246.17C21.6191 246.52 21.5091 246.8 21.2891 247.01C21.0791 247.21 20.8141 247.31 20.4941 247.31Z" fill="white"/>
<rect x="79" width="228" height="31" fill="#333333"/>
<rect x="79" width="228" height="31" fill="#333333"/>
<rect width="79" height="31" fill="#090808"/>
<path d="M12.105 17.8101C12.105 17.5513 11.9756 17.3486 11.7168 17.2021C11.4629 17.0508 11.0527 16.9165 10.4863 16.7993C8.60156 16.4038 7.65918 15.603 7.65918 14.397C7.65918 13.6938 7.94971 13.1079 8.53076 12.6392C9.1167 12.1655 9.88086 11.9287 10.8232 11.9287C11.8291 11.9287 12.6323 12.1655 13.2329 12.6392C13.8384 13.1128 14.1411 13.728 14.1411 14.4849H12.0244C12.0244 14.1821 11.9268 13.9331 11.7314 13.7378C11.5361 13.5376 11.231 13.4375 10.8159 13.4375C10.4595 13.4375 10.1836 13.5181 9.98828 13.6792C9.79297 13.8403 9.69531 14.0454 9.69531 14.2944C9.69531 14.5288 9.80518 14.7192 10.0249 14.8657C10.2495 15.0073 10.6255 15.1318 11.1528 15.2393C11.6802 15.3418 12.1245 15.459 12.4858 15.5908C13.604 16.001 14.1631 16.7114 14.1631 17.7222C14.1631 18.4448 13.853 19.0308 13.2329 19.48C12.6128 19.9243 11.812 20.1465 10.8306 20.1465C10.1665 20.1465 9.57568 20.0293 9.05811 19.7949C8.54541 19.5557 8.14258 19.231 7.84961 18.8208C7.55664 18.4058 7.41016 17.959 7.41016 17.4805H9.41699C9.43652 17.8564 9.57568 18.1445 9.83447 18.3447C10.0933 18.5449 10.4399 18.645 10.8745 18.645C11.2798 18.645 11.585 18.5693 11.79 18.418C12 18.2617 12.105 18.0591 12.105 17.8101ZM18.8286 18.4399C19.2192 18.4399 19.5366 18.3325 19.7808 18.1177C20.0249 17.9028 20.1519 17.6172 20.1616 17.2607H22.1465C22.1416 17.7979 21.9951 18.291 21.707 18.7402C21.4189 19.1846 21.0234 19.5312 20.5205 19.7803C20.0225 20.0244 19.4707 20.1465 18.8652 20.1465C17.7324 20.1465 16.8389 19.7876 16.1846 19.0698C15.5303 18.3472 15.2031 17.3511 15.2031 16.0815V15.9424C15.2031 14.7217 15.5278 13.7476 16.1772 13.02C16.8267 12.2925 17.7178 11.9287 18.8506 11.9287C19.8418 11.9287 20.6353 12.2119 21.231 12.7783C21.8315 13.3398 22.1367 14.0894 22.1465 15.0269H20.1616C20.1519 14.6167 20.0249 14.2847 19.7808 14.0308C19.5366 13.772 19.2144 13.6426 18.814 13.6426C18.3208 13.6426 17.9473 13.8232 17.6934 14.1846C17.4443 14.541 17.3198 15.1221 17.3198 15.9277V16.1475C17.3198 16.9629 17.4443 17.5488 17.6934 17.9053C17.9424 18.2617 18.3208 18.4399 18.8286 18.4399ZM27.8081 14.0601C27.52 14.021 27.2661 14.0015 27.0464 14.0015C26.2456 14.0015 25.7207 14.2725 25.4717 14.8145V20H23.355V12.0752H25.3545L25.4131 13.02C25.8379 12.2925 26.4263 11.9287 27.1782 11.9287C27.4126 11.9287 27.6323 11.9604 27.8374 12.0239L27.8081 14.0601ZM31.0674 20H28.9434V12.0752H31.0674V20ZM28.8188 10.0244C28.8188 9.70703 28.9238 9.4458 29.1338 9.24072C29.3486 9.03564 29.6392 8.93311 30.0054 8.93311C30.3667 8.93311 30.6548 9.03564 30.8696 9.24072C31.0845 9.4458 31.1919 9.70703 31.1919 10.0244C31.1919 10.3467 31.082 10.6104 30.8623 10.8154C30.6475 11.0205 30.3618 11.123 30.0054 11.123C29.6489 11.123 29.3608 11.0205 29.1411 10.8154C28.9263 10.6104 28.8188 10.3467 28.8188 10.0244ZM39.9517 16.1108C39.9517 17.3315 39.6733 18.3105 39.1167 19.0479C38.5649 19.7803 37.8179 20.1465 36.8755 20.1465C36.0747 20.1465 35.4277 19.8682 34.9346 19.3115V23.0469H32.8179V12.0752H34.7808L34.854 12.8516C35.3667 12.2363 36.0356 11.9287 36.8608 11.9287C37.8374 11.9287 38.5967 12.29 39.1387 13.0127C39.6807 13.7354 39.9517 14.7314 39.9517 16.001V16.1108ZM37.835 15.957C37.835 15.2197 37.7031 14.6509 37.4395 14.2505C37.1807 13.8501 36.8022 13.6499 36.3042 13.6499C35.6401 13.6499 35.1836 13.9038 34.9346 14.4116V17.6562C35.1934 18.1787 35.6548 18.4399 36.3188 18.4399C37.3296 18.4399 37.835 17.6123 37.835 15.957ZM43.8042 10.127V12.0752H45.1592V13.6279H43.8042V17.583C43.8042 17.876 43.8604 18.0859 43.9727 18.2129C44.085 18.3398 44.2998 18.4033 44.6172 18.4033C44.8516 18.4033 45.0591 18.3862 45.2397 18.3521V19.9561C44.8247 20.083 44.3975 20.1465 43.958 20.1465C42.4736 20.1465 41.7168 19.397 41.6875 17.8979V13.6279H40.5303V12.0752H41.6875V10.127H43.8042ZM46.4482 18.96C46.4482 18.623 46.5605 18.3496 46.7852 18.1396C47.0146 17.9297 47.3003 17.8247 47.6421 17.8247C47.9888 17.8247 48.2744 17.9297 48.499 18.1396C48.7285 18.3496 48.8433 18.623 48.8433 18.96C48.8433 19.292 48.731 19.563 48.5063 19.7729C48.2817 19.978 47.9937 20.0806 47.6421 20.0806C47.2954 20.0806 47.0098 19.978 46.7852 19.7729C46.5605 19.563 46.4482 19.292 46.4482 18.96ZM57.8374 16.1108C57.8374 17.3315 57.5591 18.3105 57.0024 19.0479C56.4507 19.7803 55.7036 20.1465 54.7612 20.1465C53.9604 20.1465 53.3135 19.8682 52.8203 19.3115V23.0469H50.7036V12.0752H52.6665L52.7397 12.8516C53.2524 12.2363 53.9214 11.9287 54.7466 11.9287C55.7231 11.9287 56.4824 12.29 57.0244 13.0127C57.5664 13.7354 57.8374 14.7314 57.8374 16.001V16.1108ZM55.7207 15.957C55.7207 15.2197 55.5889 14.6509 55.3252 14.2505C55.0664 13.8501 54.688 13.6499 54.1899 13.6499C53.5259 13.6499 53.0693 13.9038 52.8203 14.4116V17.6562C53.0791 18.1787 53.5405 18.4399 54.2046 18.4399C55.2153 18.4399 55.7207 17.6123 55.7207 15.957ZM62.0269 17.0044L63.4917 12.0752H65.7622L62.5762 21.2305L62.4004 21.6479C61.9268 22.6831 61.1455 23.2007 60.0566 23.2007C59.749 23.2007 59.4365 23.1543 59.1191 23.0615V21.4575L59.4414 21.4648C59.8418 21.4648 60.1396 21.4038 60.335 21.2817C60.5352 21.1597 60.6914 20.957 60.8037 20.6738L61.0527 20.022L58.2769 12.0752H60.5547L62.0269 17.0044Z" fill="white"/>
<path d="M7.705 47.28C7.705 46.67 7.795 46.125 7.975 45.645C8.155 45.165 8.39 44.76 8.68 44.43C8.98 44.09 9.32 43.83 9.7 43.65C10.08 43.47 10.475 43.38 10.885 43.38C11.315 43.38 11.675 43.455 11.965 43.605C12.255 43.745 12.53 43.935 12.79 44.175L12.715 43.02V40.485H14.92V51H13.12L12.955 50.235H12.91C12.63 50.505 12.31 50.73 11.95 50.91C11.59 51.09 11.22 51.18 10.84 51.18C10.37 51.18 9.94 51.09 9.55 50.91C9.17 50.73 8.84 50.475 8.56 50.145C8.29 49.805 8.08 49.395 7.93 48.915C7.78 48.435 7.705 47.89 7.705 47.28ZM9.97 47.25C9.97 47.99 10.095 48.53 10.345 48.87C10.595 49.21 10.95 49.38 11.41 49.38C11.66 49.38 11.89 49.33 12.1 49.23C12.31 49.12 12.515 48.94 12.715 48.69V45.675C12.515 45.495 12.31 45.37 12.1 45.3C11.9 45.22 11.69 45.18 11.47 45.18C11.06 45.18 10.705 45.35 10.405 45.69C10.115 46.03 9.97 46.55 9.97 47.25ZM16.8191 47.28C16.8191 46.67 16.9241 46.125 17.1341 45.645C17.3541 45.165 17.6441 44.76 18.0041 44.43C18.3641 44.09 18.7741 43.83 19.2341 43.65C19.7041 43.47 20.1891 43.38 20.6891 43.38C21.2591 43.38 21.7641 43.47 22.2041 43.65C22.6441 43.83 23.0091 44.08 23.2991 44.4C23.5891 44.72 23.8091 45.1 23.9591 45.54C24.1091 45.97 24.1841 46.44 24.1841 46.95C24.1841 47.15 24.1741 47.34 24.1541 47.52C24.1341 47.7 24.1141 47.835 24.0941 47.925H19.0841C19.1641 48.485 19.4041 48.89 19.8041 49.14C20.2141 49.38 20.6941 49.5 21.2441 49.5C21.5841 49.5 21.9041 49.46 22.2041 49.38C22.5141 49.29 22.8341 49.16 23.1641 48.99L23.8841 50.31C23.4641 50.58 22.9941 50.795 22.4741 50.955C21.9541 51.105 21.4441 51.18 20.9441 51.18C20.3641 51.18 19.8241 51.095 19.3241 50.925C18.8241 50.745 18.3891 50.49 18.0191 50.16C17.6491 49.82 17.3541 49.41 17.1341 48.93C16.9241 48.45 16.8191 47.9 16.8191 47.28ZM22.1891 46.47C22.1891 46.05 22.0741 45.71 21.8441 45.45C21.6141 45.19 21.2441 45.06 20.7341 45.06C20.3341 45.06 19.9791 45.175 19.6691 45.405C19.3591 45.635 19.1541 45.99 19.0541 46.47H22.1891ZM33.3433 42.33C32.8533 42.14 32.3333 42.045 31.7833 42.045C31.3033 42.045 30.9483 42.15 30.7183 42.36C30.4983 42.57 30.3883 42.9 30.3883 43.35V43.56H32.9533V45.285H30.3883V51H28.1833V45.285H26.2183V43.65L28.1833 43.56V43.365C28.1833 42.935 28.2483 42.535 28.3783 42.165C28.5083 41.795 28.7083 41.475 28.9783 41.205C29.2483 40.925 29.5933 40.705 30.0133 40.545C30.4333 40.385 30.9333 40.305 31.5133 40.305C31.9433 40.305 32.3433 40.345 32.7133 40.425C33.0933 40.505 33.4433 40.6 33.7633 40.71L33.3433 42.33ZM51.3316 79.33C50.8416 79.14 50.3216 79.045 49.7716 79.045C49.2916 79.045 48.9366 79.15 48.7066 79.36C48.4866 79.57 48.3766 79.9 48.3766 80.35V80.56H50.9416V82.285H48.3766V88H46.1716V82.285H44.2066V80.65L46.1716 80.56V80.365C46.1716 79.935 46.2366 79.535 46.3666 79.165C46.4966 78.795 46.6966 78.475 46.9666 78.205C47.2366 77.925 47.5816 77.705 48.0016 77.545C48.4216 77.385 48.9216 77.305 49.5016 77.305C49.9316 77.305 50.3316 77.345 50.7016 77.425C51.0816 77.505 51.4316 77.6 51.7516 77.71L51.3316 79.33ZM52.6757 84.28C52.6757 83.66 52.7807 83.11 52.9907 82.63C53.2007 82.14 53.4807 81.73 53.8307 81.4C54.1907 81.07 54.5957 80.82 55.0457 80.65C55.5057 80.47 55.9807 80.38 56.4707 80.38C56.9607 80.38 57.4307 80.47 57.8807 80.65C58.3407 80.82 58.7457 81.07 59.0957 81.4C59.4557 81.73 59.7407 82.14 59.9507 82.63C60.1607 83.11 60.2657 83.66 60.2657 84.28C60.2657 84.9 60.1607 85.455 59.9507 85.945C59.7407 86.425 59.4557 86.83 59.0957 87.16C58.7457 87.49 58.3407 87.745 57.8807 87.925C57.4307 88.095 56.9607 88.18 56.4707 88.18C55.9807 88.18 55.5057 88.095 55.0457 87.925C54.5957 87.745 54.1907 87.49 53.8307 87.16C53.4807 86.83 53.2007 86.425 52.9907 85.945C52.7807 85.455 52.6757 84.9 52.6757 84.28ZM54.9407 84.28C54.9407 84.93 55.0657 85.445 55.3157 85.825C55.5757 86.205 55.9607 86.395 56.4707 86.395C56.9807 86.395 57.3607 86.205 57.6107 85.825C57.8707 85.445 58.0007 84.93 58.0007 84.28C58.0007 83.63 57.8707 83.115 57.6107 82.735C57.3607 82.355 56.9807 82.165 56.4707 82.165C55.9607 82.165 55.5757 82.355 55.3157 82.735C55.0657 83.115 54.9407 83.63 54.9407 84.28ZM62.7048 80.56H64.5048L64.6848 82.18H64.7298C65.0998 81.57 65.5448 81.12 66.0648 80.83C66.5848 80.53 67.1448 80.38 67.7448 80.38C68.0748 80.38 68.3398 80.405 68.5398 80.455C68.7498 80.505 68.9648 80.58 69.1848 80.68L68.7348 82.525C68.5048 82.455 68.2948 82.405 68.1048 82.375C67.9248 82.335 67.6948 82.315 67.4148 82.315C66.9548 82.315 66.4998 82.45 66.0498 82.72C65.6098 82.99 65.2298 83.46 64.9098 84.13V88H62.7048V80.56ZM152.091 80.56H157.281V88H155.076V82.285H152.091V80.56ZM156.081 79.465C155.651 79.465 155.296 79.345 155.016 79.105C154.746 78.865 154.611 78.54 154.611 78.13C154.611 77.72 154.746 77.39 155.016 77.14C155.296 76.88 155.651 76.75 156.081 76.75C156.511 76.75 156.861 76.88 157.131 77.14C157.411 77.39 157.551 77.72 157.551 78.13C157.551 78.54 157.411 78.865 157.131 79.105C156.861 79.345 156.511 79.465 156.081 79.465ZM160.98 80.56H162.78L162.945 81.55H163.005C163.325 81.23 163.69 80.955 164.1 80.725C164.52 80.495 165.01 80.38 165.57 80.38C166.41 80.38 167.025 80.65 167.415 81.19C167.805 81.73 168 82.47 168 83.41V88H165.795V83.695C165.795 83.195 165.715 82.83 165.555 82.6C165.395 82.37 165.11 82.255 164.7 82.255C164.4 82.255 164.135 82.32 163.905 82.45C163.685 82.58 163.445 82.775 163.185 83.035V88H160.98V80.56ZM44.7166 118.56H46.5166L46.6966 120.18H46.7416C47.1116 119.57 47.5566 119.12 48.0766 118.83C48.5966 118.53 49.1566 118.38 49.7566 118.38C50.0866 118.38 50.3516 118.405 50.5516 118.455C50.7616 118.505 50.9766 118.58 51.1966 118.68L50.7466 120.525C50.5166 120.455 50.3066 120.405 50.1166 120.375C49.9366 120.335 49.7066 120.315 49.4266 120.315C48.9666 120.315 48.5116 120.45 48.0616 120.72C47.6216 120.99 47.2416 121.46 46.9216 122.13V126H44.7166V118.56ZM52.7957 122.28C52.7957 121.67 52.9007 121.125 53.1107 120.645C53.3307 120.165 53.6207 119.76 53.9807 119.43C54.3407 119.09 54.7507 118.83 55.2107 118.65C55.6807 118.47 56.1657 118.38 56.6657 118.38C57.2357 118.38 57.7407 118.47 58.1807 118.65C58.6207 118.83 58.9857 119.08 59.2757 119.4C59.5657 119.72 59.7857 120.1 59.9357 120.54C60.0857 120.97 60.1607 121.44 60.1607 121.95C60.1607 122.15 60.1507 122.34 60.1307 122.52C60.1107 122.7 60.0907 122.835 60.0707 122.925H55.0607C55.1407 123.485 55.3807 123.89 55.7807 124.14C56.1907 124.38 56.6707 124.5 57.2207 124.5C57.5607 124.5 57.8807 124.46 58.1807 124.38C58.4907 124.29 58.8107 124.16 59.1407 123.99L59.8607 125.31C59.4407 125.58 58.9707 125.795 58.4507 125.955C57.9307 126.105 57.4207 126.18 56.9207 126.18C56.3407 126.18 55.8007 126.095 55.3007 125.925C54.8007 125.745 54.3657 125.49 53.9957 125.16C53.6257 124.82 53.3307 124.41 53.1107 123.93C52.9007 123.45 52.7957 122.9 52.7957 122.28ZM58.1657 121.47C58.1657 121.05 58.0507 120.71 57.8207 120.45C57.5907 120.19 57.2207 120.06 56.7107 120.06C56.3107 120.06 55.9557 120.175 55.6457 120.405C55.3357 120.635 55.1307 120.99 55.0307 121.47H58.1657ZM63.5748 120.285H61.6998V118.65L63.6798 118.56L63.9648 116.58H65.7798V118.56H68.9298V120.285H65.7798V122.895C65.7798 123.465 65.9048 123.87 66.1548 124.11C66.4048 124.34 66.7998 124.455 67.3398 124.455C67.6298 124.455 67.8948 124.43 68.1348 124.38C68.3748 124.33 68.6048 124.265 68.8248 124.185L69.2148 125.775C68.8848 125.875 68.5148 125.965 68.1048 126.045C67.7048 126.135 67.2648 126.18 66.7848 126.18C66.1948 126.18 65.6948 126.1 65.2848 125.94C64.8748 125.78 64.5398 125.56 64.2798 125.28C64.0298 124.99 63.8498 124.645 63.7398 124.245C63.6298 123.845 63.5748 123.4 63.5748 122.91V120.285ZM77.834 126H76.034L75.869 124.935H75.809C75.479 125.315 75.114 125.62 74.714 125.85C74.314 126.07 73.844 126.18 73.304 126.18C72.454 126.18 71.839 125.91 71.459 125.37C71.079 124.83 70.889 124.09 70.889 123.15V118.56H73.094V122.865C73.094 123.365 73.169 123.73 73.319 123.96C73.469 124.19 73.754 124.305 74.174 124.305C74.454 124.305 74.699 124.245 74.909 124.125C75.129 124.005 75.369 123.78 75.629 123.45V118.56H77.834V126ZM80.6931 118.56H82.4931L82.6731 120.18H82.7181C83.0881 119.57 83.5331 119.12 84.0531 118.83C84.5731 118.53 85.1331 118.38 85.7331 118.38C86.0631 118.38 86.3281 118.405 86.5281 118.455C86.7381 118.505 86.9531 118.58 87.1731 118.68L86.7231 120.525C86.4931 120.455 86.2831 120.405 86.0931 120.375C85.9131 120.335 85.6831 120.315 85.4031 120.315C84.9431 120.315 84.4881 120.45 84.0381 120.72C83.5981 120.99 83.2181 121.46 82.8981 122.13V126H80.6931V118.56ZM89.0273 118.56H90.8273L90.9923 119.55H91.0523C91.3723 119.23 91.7373 118.955 92.1473 118.725C92.5673 118.495 93.0573 118.38 93.6173 118.38C94.4573 118.38 95.0723 118.65 95.4623 119.19C95.8523 119.73 96.0473 120.47 96.0473 121.41V126H93.8423V121.695C93.8423 121.195 93.7623 120.83 93.6023 120.6C93.4423 120.37 93.1573 120.255 92.7473 120.255C92.4473 120.255 92.1823 120.32 91.9523 120.45C91.7323 120.58 91.4923 120.775 91.2323 121.035V126H89.0273V118.56Z" fill="#E69F00"/>
<path d="M120.81 53.685C119.83 52.815 119.055 51.81 118.485 50.67C117.925 49.53 117.645 48.25 117.645 46.83C117.645 45.41 117.925 44.13 118.485 42.99C119.055 41.85 119.83 40.845 120.81 39.975L122.04 40.95C121.15 41.82 120.5 42.725 120.09 43.665C119.69 44.595 119.49 45.65 119.49 46.83C119.49 47.42 119.54 47.98 119.64 48.51C119.74 49.03 119.89 49.53 120.09 50.01C120.3 50.49 120.565 50.95 120.885 51.39C121.205 51.84 121.59 52.28 122.04 52.71L120.81 53.685ZM124.839 48.93C124.839 48.51 124.929 48.145 125.109 47.835C125.289 47.515 125.574 47.245 125.964 47.025C126.364 46.805 126.874 46.63 127.494 46.5C128.114 46.36 128.864 46.265 129.744 46.215C129.704 45.875 129.554 45.61 129.294 45.42C129.044 45.23 128.664 45.135 128.154 45.135C127.794 45.135 127.429 45.2 127.059 45.33C126.699 45.45 126.309 45.615 125.889 45.825L125.109 44.385C125.619 44.095 126.164 43.855 126.744 43.665C127.334 43.475 127.949 43.38 128.589 43.38C129.629 43.38 130.449 43.655 131.049 44.205C131.649 44.755 131.949 45.6 131.949 46.74V51H130.149L129.984 50.16H129.924C129.544 50.45 129.129 50.695 128.679 50.895C128.229 51.085 127.764 51.18 127.284 51.18C126.904 51.18 126.564 51.12 126.264 51C125.964 50.89 125.709 50.735 125.499 50.535C125.289 50.325 125.124 50.085 125.004 49.815C124.894 49.545 124.839 49.25 124.839 48.93ZM126.954 48.765C126.954 49.005 127.044 49.185 127.224 49.305C127.414 49.415 127.669 49.47 127.989 49.47C128.319 49.47 128.629 49.405 128.919 49.275C129.209 49.135 129.484 48.965 129.744 48.765V47.535C129.194 47.565 128.739 47.615 128.379 47.685C128.019 47.755 127.734 47.845 127.524 47.955C127.314 48.055 127.164 48.175 127.074 48.315C126.994 48.455 126.954 48.605 126.954 48.765ZM141.018 51.81V53.46H133.818V51.81H141.018ZM142.842 40.485H147.207V48.18C147.207 48.41 147.237 48.605 147.297 48.765C147.367 48.915 147.457 49.04 147.567 49.14C147.687 49.23 147.817 49.295 147.957 49.335C148.107 49.375 148.257 49.395 148.407 49.395C148.577 49.395 148.757 49.38 148.947 49.35C149.137 49.31 149.347 49.245 149.577 49.155L150.072 50.775C149.872 50.835 149.687 50.89 149.517 50.94C149.347 50.99 149.177 51.03 149.007 51.06C148.837 51.1 148.657 51.13 148.467 51.15C148.277 51.17 148.067 51.18 147.837 51.18C146.897 51.18 146.187 50.905 145.707 50.355C145.237 49.795 145.002 49.04 145.002 48.09V42.225H142.842V40.485ZM152.091 43.56H157.281V51H155.076V45.285H152.091V43.56ZM156.081 42.465C155.651 42.465 155.296 42.345 155.016 42.105C154.746 41.865 154.611 41.54 154.611 41.13C154.611 40.72 154.746 40.39 155.016 40.14C155.296 39.88 155.651 39.75 156.081 39.75C156.511 39.75 156.861 39.88 157.131 40.14C157.411 40.39 157.551 40.72 157.551 41.13C157.551 41.54 157.411 41.865 157.131 42.105C156.861 42.345 156.511 42.465 156.081 42.465ZM161.685 48.66C162.115 48.93 162.545 49.145 162.975 49.305C163.415 49.465 163.885 49.545 164.385 49.545C164.895 49.545 165.26 49.49 165.48 49.38C165.7 49.27 165.81 49.115 165.81 48.915C165.81 48.685 165.625 48.5 165.255 48.36C164.895 48.21 164.415 48.05 163.815 47.88C163.485 47.79 163.16 47.685 162.84 47.565C162.53 47.435 162.25 47.285 162 47.115C161.75 46.935 161.545 46.73 161.385 46.5C161.235 46.27 161.16 46.005 161.16 45.705C161.16 45.365 161.24 45.05 161.4 44.76C161.56 44.47 161.785 44.225 162.075 44.025C162.375 43.825 162.735 43.67 163.155 43.56C163.585 43.44 164.065 43.38 164.595 43.38C165.255 43.38 165.855 43.49 166.395 43.71C166.945 43.92 167.415 44.15 167.805 44.4L166.815 45.72C166.475 45.52 166.125 45.355 165.765 45.225C165.405 45.085 165.03 45.015 164.64 45.015C164.17 45.015 163.835 45.065 163.635 45.165C163.445 45.265 163.35 45.41 163.35 45.6C163.35 45.71 163.4 45.81 163.5 45.9C163.6 45.99 163.735 46.07 163.905 46.14C164.075 46.21 164.275 46.28 164.505 46.35C164.745 46.41 164.995 46.475 165.255 46.545C165.625 46.645 165.975 46.76 166.305 46.89C166.635 47.01 166.925 47.155 167.175 47.325C167.425 47.495 167.625 47.7 167.775 47.94C167.925 48.18 168 48.46 168 48.78C168 49.12 167.92 49.435 167.76 49.725C167.6 50.015 167.365 50.27 167.055 50.49C166.755 50.7 166.375 50.87 165.915 51C165.465 51.12 164.94 51.18 164.34 51.18C163.67 51.18 163.015 51.07 162.375 50.85C161.735 50.63 161.175 50.36 160.695 50.04L161.685 48.66ZM171.505 45.285H169.63V43.65L171.61 43.56L171.895 41.58H173.71V43.56H176.86V45.285H173.71V47.895C173.71 48.465 173.835 48.87 174.085 49.11C174.335 49.34 174.73 49.455 175.27 49.455C175.56 49.455 175.825 49.43 176.065 49.38C176.305 49.33 176.535 49.265 176.755 49.185L177.145 50.775C176.815 50.875 176.445 50.965 176.035 51.045C175.635 51.135 175.195 51.18 174.715 51.18C174.125 51.18 173.625 51.1 173.215 50.94C172.805 50.78 172.47 50.56 172.21 50.28C171.96 49.99 171.78 49.645 171.67 49.245C171.56 48.845 171.505 48.4 171.505 47.91V45.285ZM179.779 52.71C180.229 52.28 180.614 51.84 180.934 51.39C181.254 50.95 181.514 50.49 181.714 50.01C181.924 49.53 182.079 49.03 182.179 48.51C182.279 47.98 182.329 47.42 182.329 46.83C182.329 45.65 182.124 44.595 181.714 43.665C181.314 42.725 180.669 41.82 179.779 40.95L181.009 39.975C181.989 40.845 182.759 41.85 183.319 42.99C183.889 44.13 184.174 45.41 184.174 46.83C184.174 48.25 183.889 49.53 183.319 50.67C182.759 51.81 181.989 52.815 181.009 53.685L179.779 52.71ZM189.643 44.58C189.643 44.33 189.683 44.1 189.763 43.89C189.853 43.67 189.973 43.48 190.123 43.32C190.273 43.16 190.453 43.035 190.663 42.945C190.883 42.855 191.123 42.81 191.383 42.81C191.643 42.81 191.878 42.855 192.088 42.945C192.308 43.035 192.493 43.16 192.643 43.32C192.793 43.48 192.908 43.67 192.988 43.89C193.078 44.1 193.123 44.33 193.123 44.58C193.123 45.08 192.963 45.5 192.643 45.84C192.323 46.17 191.903 46.335 191.383 46.335C190.863 46.335 190.443 46.17 190.123 45.84C189.803 45.5 189.643 45.08 189.643 44.58ZM189.643 49.425C189.643 49.175 189.683 48.945 189.763 48.735C189.853 48.515 189.973 48.325 190.123 48.165C190.273 48.005 190.453 47.88 190.663 47.79C190.883 47.7 191.123 47.655 191.383 47.655C191.643 47.655 191.878 47.7 192.088 47.79C192.308 47.88 192.493 48.005 192.643 48.165C192.793 48.325 192.908 48.515 192.988 48.735C193.078 48.945 193.123 49.175 193.123 49.425C193.123 49.925 192.963 50.345 192.643 50.685C192.323 51.015 191.903 51.18 191.383 51.18C190.863 51.18 190.443 51.015 190.123 50.685C189.803 50.345 189.643 49.925 189.643 49.425ZM43.8916 67.93C43.8916 67.51 43.9816 67.145 44.1616 66.835C44.3416 66.515 44.6266 66.245 45.0166 66.025C45.4166 65.805 45.9266 65.63 46.5466 65.5C47.1666 65.36 47.9166 65.265 48.7966 65.215C48.7566 64.875 48.6066 64.61 48.3466 64.42C48.0966 64.23 47.7166 64.135 47.2066 64.135C46.8466 64.135 46.4816 64.2 46.1116 64.33C45.7516 64.45 45.3616 64.615 44.9416 64.825L44.1616 63.385C44.6716 63.095 45.2166 62.855 45.7966 62.665C46.3866 62.475 47.0016 62.38 47.6416 62.38C48.6816 62.38 49.5016 62.655 50.1016 63.205C50.7016 63.755 51.0016 64.6 51.0016 65.74V70H49.2016L49.0366 69.16H48.9766C48.5966 69.45 48.1816 69.695 47.7316 69.895C47.2816 70.085 46.8166 70.18 46.3366 70.18C45.9566 70.18 45.6166 70.12 45.3166 70C45.0166 69.89 44.7616 69.735 44.5516 69.535C44.3416 69.325 44.1766 69.085 44.0566 68.815C43.9466 68.545 43.8916 68.25 43.8916 67.93ZM46.0066 67.765C46.0066 68.005 46.0966 68.185 46.2766 68.305C46.4666 68.415 46.7216 68.47 47.0416 68.47C47.3716 68.47 47.6816 68.405 47.9716 68.275C48.2616 68.135 48.5366 67.965 48.7966 67.765V66.535C48.2466 66.565 47.7916 66.615 47.4316 66.685C47.0716 66.755 46.7866 66.845 46.5766 66.955C46.3666 67.055 46.2166 67.175 46.1266 67.315C46.0466 67.455 46.0066 67.605 46.0066 67.765ZM60.0707 70.81V72.46H52.8707V70.81H60.0707ZM62.7498 67.66C63.1798 67.93 63.6098 68.145 64.0398 68.305C64.4798 68.465 64.9498 68.545 65.4498 68.545C65.9598 68.545 66.3248 68.49 66.5448 68.38C66.7648 68.27 66.8748 68.115 66.8748 67.915C66.8748 67.685 66.6898 67.5 66.3198 67.36C65.9598 67.21 65.4798 67.05 64.8798 66.88C64.5498 66.79 64.2248 66.685 63.9048 66.565C63.5948 66.435 63.3148 66.285 63.0648 66.115C62.8148 65.935 62.6098 65.73 62.4498 65.5C62.2998 65.27 62.2248 65.005 62.2248 64.705C62.2248 64.365 62.3048 64.05 62.4648 63.76C62.6248 63.47 62.8498 63.225 63.1398 63.025C63.4398 62.825 63.7998 62.67 64.2198 62.56C64.6498 62.44 65.1298 62.38 65.6598 62.38C66.3198 62.38 66.9198 62.49 67.4598 62.71C68.0098 62.92 68.4798 63.15 68.8698 63.4L67.8798 64.72C67.5398 64.52 67.1898 64.355 66.8298 64.225C66.4698 64.085 66.0948 64.015 65.7048 64.015C65.2348 64.015 64.8998 64.065 64.6998 64.165C64.5098 64.265 64.4148 64.41 64.4148 64.6C64.4148 64.71 64.4648 64.81 64.5648 64.9C64.6648 64.99 64.7998 65.07 64.9698 65.14C65.1398 65.21 65.3398 65.28 65.5698 65.35C65.8098 65.41 66.0598 65.475 66.3198 65.545C66.6898 65.645 67.0398 65.76 67.3698 65.89C67.6998 66.01 67.9898 66.155 68.2398 66.325C68.4898 66.495 68.6898 66.7 68.8398 66.94C68.9898 67.18 69.0648 67.46 69.0648 67.78C69.0648 68.12 68.9848 68.435 68.8248 68.725C68.6648 69.015 68.4298 69.27 68.1198 69.49C67.8198 69.7 67.4398 69.87 66.9798 70C66.5298 70.12 66.0048 70.18 65.4048 70.18C64.7348 70.18 64.0798 70.07 63.4398 69.85C62.7998 69.63 62.2398 69.36 61.7598 69.04L62.7498 67.66ZM77.834 70H76.034L75.869 68.935H75.809C75.479 69.315 75.114 69.62 74.714 69.85C74.314 70.07 73.844 70.18 73.304 70.18C72.454 70.18 71.839 69.91 71.459 69.37C71.079 68.83 70.889 68.09 70.889 67.15V62.56H73.094V66.865C73.094 67.365 73.169 67.73 73.319 67.96C73.469 68.19 73.754 68.305 74.174 68.305C74.454 68.305 74.699 68.245 74.909 68.125C75.129 68.005 75.369 67.78 75.629 67.45V62.56H77.834V70ZM79.4931 62.56H81.1431L81.3081 63.49H81.3681C81.5081 63.18 81.6981 62.92 81.9381 62.71C82.1881 62.49 82.5281 62.38 82.9581 62.38C83.2881 62.38 83.5631 62.485 83.7831 62.695C84.0131 62.895 84.1731 63.195 84.2631 63.595C84.4031 63.255 84.6031 62.97 84.8631 62.74C85.1331 62.5 85.4781 62.38 85.8981 62.38C86.4181 62.38 86.8231 62.595 87.1131 63.025C87.4031 63.445 87.5481 64.03 87.5481 64.78V70H85.4781V64.945C85.4781 64.485 85.3381 64.255 85.0581 64.255C84.7881 64.255 84.5581 64.495 84.3681 64.975V70H82.6731V64.945C82.6731 64.485 82.5281 64.255 82.2381 64.255C82.0981 64.255 81.9781 64.315 81.8781 64.435C81.7781 64.555 81.6731 64.735 81.5631 64.975V70H79.4931V62.56ZM97.9914 62.53H104.891V64.09H97.9914V62.53ZM97.9914 65.995H104.891V67.555H97.9914V65.995ZM79.7781 84.28C79.7781 83.67 79.8831 83.125 80.0931 82.645C80.3131 82.165 80.6031 81.76 80.9631 81.43C81.3231 81.09 81.7331 80.83 82.1931 80.65C82.6631 80.47 83.1481 80.38 83.6481 80.38C84.2181 80.38 84.7231 80.47 85.1631 80.65C85.6031 80.83 85.9681 81.08 86.2581 81.4C86.5481 81.72 86.7681 82.1 86.9181 82.54C87.0681 82.97 87.1431 83.44 87.1431 83.95C87.1431 84.15 87.1331 84.34 87.1131 84.52C87.0931 84.7 87.0731 84.835 87.0531 84.925H82.0431C82.1231 85.485 82.3631 85.89 82.7631 86.14C83.1731 86.38 83.6531 86.5 84.2031 86.5C84.5431 86.5 84.8631 86.46 85.1631 86.38C85.4731 86.29 85.7931 86.16 86.1231 85.99L86.8431 87.31C86.4231 87.58 85.9531 87.795 85.4331 87.955C84.9131 88.105 84.4031 88.18 83.9031 88.18C83.3231 88.18 82.7831 88.095 82.2831 87.925C81.7831 87.745 81.3481 87.49 80.9781 87.16C80.6081 86.82 80.3131 86.41 80.0931 85.93C79.8831 85.45 79.7781 84.9 79.7781 84.28ZM85.1481 83.47C85.1481 83.05 85.0331 82.71 84.8031 82.45C84.5731 82.19 84.2031 82.06 83.6931 82.06C83.2931 82.06 82.9381 82.175 82.6281 82.405C82.3181 82.635 82.1131 82.99 82.0131 83.47H85.1481ZM88.8773 77.485H93.2423V85.18C93.2423 85.41 93.2723 85.605 93.3323 85.765C93.4023 85.915 93.4923 86.04 93.6023 86.14C93.7223 86.23 93.8523 86.295 93.9923 86.335C94.1423 86.375 94.2923 86.395 94.4423 86.395C94.6123 86.395 94.7923 86.38 94.9823 86.35C95.1723 86.31 95.3823 86.245 95.6123 86.155L96.1073 87.775C95.9073 87.835 95.7223 87.89 95.5523 87.94C95.3823 87.99 95.2123 88.03 95.0423 88.06C94.8723 88.1 94.6923 88.13 94.5023 88.15C94.3123 88.17 94.1023 88.18 93.8723 88.18C92.9323 88.18 92.2223 87.905 91.7423 87.355C91.2723 86.795 91.0373 86.04 91.0373 85.09V79.225H88.8773V77.485ZM97.7664 84.28C97.7664 83.67 97.8714 83.125 98.0814 82.645C98.3014 82.165 98.5914 81.76 98.9514 81.43C99.3114 81.09 99.7214 80.83 100.181 80.65C100.651 80.47 101.136 80.38 101.636 80.38C102.206 80.38 102.711 80.47 103.151 80.65C103.591 80.83 103.956 81.08 104.246 81.4C104.536 81.72 104.756 82.1 104.906 82.54C105.056 82.97 105.131 83.44 105.131 83.95C105.131 84.15 105.121 84.34 105.101 84.52C105.081 84.7 105.061 84.835 105.041 84.925H100.031C100.111 85.485 100.351 85.89 100.751 86.14C101.161 86.38 101.641 86.5 102.191 86.5C102.531 86.5 102.851 86.46 103.151 86.38C103.461 86.29 103.781 86.16 104.111 85.99L104.831 87.31C104.411 87.58 103.941 87.795 103.421 87.955C102.901 88.105 102.391 88.18 101.891 88.18C101.311 88.18 100.771 88.095 100.271 87.925C99.7714 87.745 99.3364 87.49 98.9664 87.16C98.5964 86.82 98.3014 86.41 98.0814 85.93C97.8714 85.45 97.7664 84.9 97.7664 84.28ZM103.136 83.47C103.136 83.05 103.021 82.71 102.791 82.45C102.561 82.19 102.191 82.06 101.681 82.06C101.281 82.06 100.926 82.175 100.616 82.405C100.306 82.635 100.101 82.99 100.001 83.47H103.136ZM106.476 80.56H108.126L108.291 81.49H108.351C108.491 81.18 108.681 80.92 108.921 80.71C109.171 80.49 109.511 80.38 109.941 80.38C110.271 80.38 110.546 80.485 110.766 80.695C110.996 80.895 111.156 81.195 111.246 81.595C111.386 81.255 111.586 80.97 111.846 80.74C112.116 80.5 112.461 80.38 112.881 80.38C113.401 80.38 113.806 80.595 114.096 81.025C114.386 81.445 114.531 82.03 114.531 82.78V88H112.461V82.945C112.461 82.485 112.321 82.255 112.041 82.255C111.771 82.255 111.541 82.495 111.351 82.975V88H109.656V82.945C109.656 82.485 109.511 82.255 109.221 82.255C109.081 82.255 108.961 82.315 108.861 82.435C108.761 82.555 108.656 82.735 108.546 82.975V88H106.476V80.56ZM115.755 84.28C115.755 83.67 115.86 83.125 116.07 82.645C116.29 82.165 116.58 81.76 116.94 81.43C117.3 81.09 117.71 80.83 118.17 80.65C118.64 80.47 119.125 80.38 119.625 80.38C120.195 80.38 120.7 80.47 121.14 80.65C121.58 80.83 121.945 81.08 122.235 81.4C122.525 81.72 122.745 82.1 122.895 82.54C123.045 82.97 123.12 83.44 123.12 83.95C123.12 84.15 123.11 84.34 123.09 84.52C123.07 84.7 123.05 84.835 123.03 84.925H118.02C118.1 85.485 118.34 85.89 118.74 86.14C119.15 86.38 119.63 86.5 120.18 86.5C120.52 86.5 120.84 86.46 121.14 86.38C121.45 86.29 121.77 86.16 122.1 85.99L122.82 87.31C122.4 87.58 121.93 87.795 121.41 87.955C120.89 88.105 120.38 88.18 119.88 88.18C119.3 88.18 118.76 88.095 118.26 87.925C117.76 87.745 117.325 87.49 116.955 87.16C116.585 86.82 116.29 86.41 116.07 85.93C115.86 85.45 115.755 84.9 115.755 84.28ZM121.125 83.47C121.125 83.05 121.01 82.71 120.78 82.45C120.55 82.19 120.18 82.06 119.67 82.06C119.27 82.06 118.915 82.175 118.605 82.405C118.295 82.635 118.09 82.99 117.99 83.47H121.125ZM125.004 80.56H126.804L126.969 81.55H127.029C127.349 81.23 127.714 80.955 128.124 80.725C128.544 80.495 129.034 80.38 129.594 80.38C130.434 80.38 131.049 80.65 131.439 81.19C131.829 81.73 132.024 82.47 132.024 83.41V88H129.819V83.695C129.819 83.195 129.739 82.83 129.579 82.6C129.419 82.37 129.134 82.255 128.724 82.255C128.424 82.255 128.159 82.32 127.929 82.45C127.709 82.58 127.469 82.775 127.209 83.035V88H125.004V80.56ZM135.528 82.285H133.653V80.65L135.633 80.56L135.918 78.58H137.733V80.56H140.883V82.285H137.733V84.895C137.733 85.465 137.858 85.87 138.108 86.11C138.358 86.34 138.753 86.455 139.293 86.455C139.583 86.455 139.848 86.43 140.088 86.38C140.328 86.33 140.558 86.265 140.778 86.185L141.168 87.775C140.838 87.875 140.468 87.965 140.058 88.045C139.658 88.135 139.218 88.18 138.738 88.18C138.148 88.18 137.648 88.1 137.238 87.94C136.828 87.78 136.493 87.56 136.233 87.28C135.983 86.99 135.803 86.645 135.693 86.245C135.583 85.845 135.528 85.4 135.528 84.91V82.285ZM178.804 85.93C178.804 85.51 178.894 85.145 179.074 84.835C179.254 84.515 179.539 84.245 179.929 84.025C180.329 83.805 180.839 83.63 181.459 83.5C182.079 83.36 182.829 83.265 183.709 83.215C183.669 82.875 183.519 82.61 183.259 82.42C183.009 82.23 182.629 82.135 182.119 82.135C181.759 82.135 181.394 82.2 181.024 82.33C180.664 82.45 180.274 82.615 179.854 82.825L179.074 81.385C179.584 81.095 180.129 80.855 180.709 80.665C181.299 80.475 181.914 80.38 182.554 80.38C183.594 80.38 184.414 80.655 185.014 81.205C185.614 81.755 185.914 82.6 185.914 83.74V88H184.114L183.949 87.16H183.889C183.509 87.45 183.094 87.695 182.644 87.895C182.194 88.085 181.729 88.18 181.249 88.18C180.869 88.18 180.529 88.12 180.229 88C179.929 87.89 179.674 87.735 179.464 87.535C179.254 87.325 179.089 87.085 178.969 86.815C178.859 86.545 178.804 86.25 178.804 85.93ZM180.919 85.765C180.919 86.005 181.009 86.185 181.189 86.305C181.379 86.415 181.634 86.47 181.954 86.47C182.284 86.47 182.594 86.405 182.884 86.275C183.174 86.135 183.449 85.965 183.709 85.765V84.535C183.159 84.565 182.704 84.615 182.344 84.685C181.984 84.755 181.699 84.845 181.489 84.955C181.279 85.055 181.129 85.175 181.039 85.315C180.959 85.455 180.919 85.605 180.919 85.765ZM194.983 88.81V90.46H187.783V88.81H194.983ZM196.807 77.485H201.172V85.18C201.172 85.41 201.202 85.605 201.262 85.765C201.332 85.915 201.422 86.04 201.532 86.14C201.652 86.23 201.782 86.295 201.922 86.335C202.072 86.375 202.222 86.395 202.372 86.395C202.542 86.395 202.722 86.38 202.912 86.35C203.102 86.31 203.312 86.245 203.542 86.155L204.037 87.775C203.837 87.835 203.652 87.89 203.482 87.94C203.312 87.99 203.142 88.03 202.972 88.06C202.802 88.1 202.622 88.13 202.432 88.15C202.242 88.17 202.032 88.18 201.802 88.18C200.862 88.18 200.152 87.905 199.672 87.355C199.202 86.795 198.967 86.04 198.967 85.09V79.225H196.807V77.485ZM206.056 80.56H211.246V88H209.041V82.285H206.056V80.56ZM210.046 79.465C209.616 79.465 209.261 79.345 208.981 79.105C208.711 78.865 208.576 78.54 208.576 78.13C208.576 77.72 208.711 77.39 208.981 77.14C209.261 76.88 209.616 76.75 210.046 76.75C210.476 76.75 210.826 76.88 211.096 77.14C211.376 77.39 211.516 77.72 211.516 78.13C211.516 78.54 211.376 78.865 211.096 79.105C210.826 79.345 210.476 79.465 210.046 79.465ZM215.65 85.66C216.08 85.93 216.51 86.145 216.94 86.305C217.38 86.465 217.85 86.545 218.35 86.545C218.86 86.545 219.225 86.49 219.445 86.38C219.665 86.27 219.775 86.115 219.775 85.915C219.775 85.685 219.59 85.5 219.22 85.36C218.86 85.21 218.38 85.05 217.78 84.88C217.45 84.79 217.125 84.685 216.805 84.565C216.495 84.435 216.215 84.285 215.965 84.115C215.715 83.935 215.51 83.73 215.35 83.5C215.2 83.27 215.125 83.005 215.125 82.705C215.125 82.365 215.205 82.05 215.365 81.76C215.525 81.47 215.75 81.225 216.04 81.025C216.34 80.825 216.7 80.67 217.12 80.56C217.55 80.44 218.03 80.38 218.56 80.38C219.22 80.38 219.82 80.49 220.36 80.71C220.91 80.92 221.38 81.15 221.77 81.4L220.78 82.72C220.44 82.52 220.09 82.355 219.73 82.225C219.37 82.085 218.995 82.015 218.605 82.015C218.135 82.015 217.8 82.065 217.6 82.165C217.41 82.265 217.315 82.41 217.315 82.6C217.315 82.71 217.365 82.81 217.465 82.9C217.565 82.99 217.7 83.07 217.87 83.14C218.04 83.21 218.24 83.28 218.47 83.35C218.71 83.41 218.96 83.475 219.22 83.545C219.59 83.645 219.94 83.76 220.27 83.89C220.6 84.01 220.89 84.155 221.14 84.325C221.39 84.495 221.59 84.7 221.74 84.94C221.89 85.18 221.965 85.46 221.965 85.78C221.965 86.12 221.885 86.435 221.725 86.725C221.565 87.015 221.33 87.27 221.02 87.49C220.72 87.7 220.34 87.87 219.88 88C219.43 88.12 218.905 88.18 218.305 88.18C217.635 88.18 216.98 88.07 216.34 87.85C215.7 87.63 215.14 87.36 214.66 87.04L215.65 85.66ZM225.469 82.285H223.594V80.65L225.574 80.56L225.859 78.58H227.674V80.56H230.824V82.285H227.674V84.895C227.674 85.465 227.799 85.87 228.049 86.11C228.299 86.34 228.694 86.455 229.234 86.455C229.524 86.455 229.789 86.43 230.029 86.38C230.269 86.33 230.499 86.265 230.719 86.185L231.109 87.775C230.779 87.875 230.409 87.965 229.999 88.045C229.599 88.135 229.159 88.18 228.679 88.18C228.089 88.18 227.589 88.1 227.179 87.94C226.769 87.78 226.434 87.56 226.174 87.28C225.924 86.99 225.744 86.645 225.634 86.245C225.524 85.845 225.469 85.4 225.469 84.91V82.285ZM234.614 81.58C234.614 81.33 234.654 81.1 234.734 80.89C234.824 80.67 234.944 80.48 235.094 80.32C235.244 80.16 235.424 80.035 235.634 79.945C235.854 79.855 236.094 79.81 236.354 79.81C236.614 79.81 236.849 79.855 237.059 79.945C237.279 80.035 237.464 80.16 237.614 80.32C237.764 80.48 237.879 80.67 237.959 80.89C238.049 81.1 238.094 81.33 238.094 81.58C238.094 82.08 237.934 82.5 237.614 82.84C237.294 83.17 236.874 83.335 236.354 83.335C235.834 83.335 235.414 83.17 235.094 82.84C234.774 82.5 234.614 82.08 234.614 81.58ZM234.614 86.425C234.614 86.175 234.654 85.945 234.734 85.735C234.824 85.515 234.944 85.325 235.094 85.165C235.244 85.005 235.424 84.88 235.634 84.79C235.854 84.7 236.094 84.655 236.354 84.655C236.614 84.655 236.849 84.7 237.059 84.79C237.279 84.88 237.464 85.005 237.614 85.165C237.764 85.325 237.879 85.515 237.959 85.735C238.049 85.945 238.094 86.175 238.094 86.425C238.094 86.925 237.934 87.345 237.614 87.685C237.294 88.015 236.874 88.18 236.354 88.18C235.834 88.18 235.414 88.015 235.094 87.685C234.774 87.345 234.614 86.925 234.614 86.425ZM79.8681 104.93C79.8681 104.51 79.9581 104.145 80.1381 103.835C80.3181 103.515 80.6031 103.245 80.9931 103.025C81.3931 102.805 81.9031 102.63 82.5231 102.5C83.1431 102.36 83.8931 102.265 84.7731 102.215C84.7331 101.875 84.5831 101.61 84.3231 101.42C84.0731 101.23 83.6931 101.135 83.1831 101.135C82.8231 101.135 82.4581 101.2 82.0881 101.33C81.7281 101.45 81.3381 101.615 80.9181 101.825L80.1381 100.385C80.6481 100.095 81.1931 99.855 81.7731 99.665C82.3631 99.475 82.9781 99.38 83.6181 99.38C84.6581 99.38 85.4781 99.655 86.0781 100.205C86.6781 100.755 86.9781 101.6 86.9781 102.74V107H85.1781L85.0131 106.16H84.9531C84.5731 106.45 84.1581 106.695 83.7081 106.895C83.2581 107.085 82.7931 107.18 82.3131 107.18C81.9331 107.18 81.5931 107.12 81.2931 107C80.9931 106.89 80.7381 106.735 80.5281 106.535C80.3181 106.325 80.1531 106.085 80.0331 105.815C79.9231 105.545 79.8681 105.25 79.8681 104.93ZM81.9831 104.765C81.9831 105.005 82.0731 105.185 82.2531 105.305C82.4431 105.415 82.6981 105.47 83.0181 105.47C83.3481 105.47 83.6581 105.405 83.9481 105.275C84.2381 105.135 84.5131 104.965 84.7731 104.765V103.535C84.2231 103.565 83.7681 103.615 83.4081 103.685C83.0481 103.755 82.7631 103.845 82.5531 103.955C82.3431 104.055 82.1931 104.175 82.1031 104.315C82.0231 104.455 81.9831 104.605 81.9831 104.765ZM96.0473 107.81V109.46H88.8473V107.81H96.0473ZM98.7264 104.66C99.1564 104.93 99.5864 105.145 100.016 105.305C100.456 105.465 100.926 105.545 101.426 105.545C101.936 105.545 102.301 105.49 102.521 105.38C102.741 105.27 102.851 105.115 102.851 104.915C102.851 104.685 102.666 104.5 102.296 104.36C101.936 104.21 101.456 104.05 100.856 103.88C100.526 103.79 100.201 103.685 99.8814 103.565C99.5714 103.435 99.2914 103.285 99.0414 103.115C98.7914 102.935 98.5864 102.73 98.4264 102.5C98.2764 102.27 98.2014 102.005 98.2014 101.705C98.2014 101.365 98.2814 101.05 98.4414 100.76C98.6014 100.47 98.8264 100.225 99.1164 100.025C99.4164 99.825 99.7764 99.67 100.196 99.56C100.626 99.44 101.106 99.38 101.636 99.38C102.296 99.38 102.896 99.49 103.436 99.71C103.986 99.92 104.456 100.15 104.846 100.4L103.856 101.72C103.516 101.52 103.166 101.355 102.806 101.225C102.446 101.085 102.071 101.015 101.681 101.015C101.211 101.015 100.876 101.065 100.676 101.165C100.486 101.265 100.391 101.41 100.391 101.6C100.391 101.71 100.441 101.81 100.541 101.9C100.641 101.99 100.776 102.07 100.946 102.14C101.116 102.21 101.316 102.28 101.546 102.35C101.786 102.41 102.036 102.475 102.296 102.545C102.666 102.645 103.016 102.76 103.346 102.89C103.676 103.01 103.966 103.155 104.216 103.325C104.466 103.495 104.666 103.7 104.816 103.94C104.966 104.18 105.041 104.46 105.041 104.78C105.041 105.12 104.961 105.435 104.801 105.725C104.641 106.015 104.406 106.27 104.096 106.49C103.796 106.7 103.416 106.87 102.956 107C102.506 107.12 101.981 107.18 101.381 107.18C100.711 107.18 100.056 107.07 99.4164 106.85C98.7764 106.63 98.2164 106.36 97.7364 106.04L98.7264 104.66ZM113.811 107H112.011L111.846 105.935H111.786C111.456 106.315 111.091 106.62 110.691 106.85C110.291 107.07 109.821 107.18 109.281 107.18C108.431 107.18 107.816 106.91 107.436 106.37C107.056 105.83 106.866 105.09 106.866 104.15V99.56H109.071V103.865C109.071 104.365 109.146 104.73 109.296 104.96C109.446 105.19 109.731 105.305 110.151 105.305C110.431 105.305 110.676 105.245 110.886 105.125C111.106 105.005 111.346 104.78 111.606 104.45V99.56H113.811V107ZM115.47 99.56H117.12L117.285 100.49H117.345C117.485 100.18 117.675 99.92 117.915 99.71C118.165 99.49 118.505 99.38 118.935 99.38C119.265 99.38 119.54 99.485 119.76 99.695C119.99 99.895 120.15 100.195 120.24 100.595C120.38 100.255 120.58 99.97 120.84 99.74C121.11 99.5 121.455 99.38 121.875 99.38C122.395 99.38 122.8 99.595 123.09 100.025C123.38 100.445 123.525 101.03 123.525 101.78V107H121.455V101.945C121.455 101.485 121.315 101.255 121.035 101.255C120.765 101.255 120.535 101.495 120.345 101.975V107H118.65V101.945C118.65 101.485 118.505 101.255 118.215 101.255C118.075 101.255 117.955 101.315 117.855 101.435C117.755 101.555 117.65 101.735 117.54 101.975V107H115.47V99.56ZM136.608 102.83H133.968V101.27H136.608V98.51H138.228V101.27H140.868V102.83H138.228V105.59H136.608V102.83ZM142.962 99.53H149.862V101.09H142.962V99.53ZM142.962 102.995H149.862V104.555H142.962V102.995ZM160.725 103.28C160.725 102.67 160.83 102.125 161.04 101.645C161.26 101.165 161.55 100.76 161.91 100.43C162.27 100.09 162.68 99.83 163.14 99.65C163.61 99.47 164.095 99.38 164.595 99.38C165.165 99.38 165.67 99.47 166.11 99.65C166.55 99.83 166.915 100.08 167.205 100.4C167.495 100.72 167.715 101.1 167.865 101.54C168.015 101.97 168.09 102.44 168.09 102.95C168.09 103.15 168.08 103.34 168.06 103.52C168.04 103.7 168.02 103.835 168 103.925H162.99C163.07 104.485 163.31 104.89 163.71 105.14C164.12 105.38 164.6 105.5 165.15 105.5C165.49 105.5 165.81 105.46 166.11 105.38C166.42 105.29 166.74 105.16 167.07 104.99L167.79 106.31C167.37 106.58 166.9 106.795 166.38 106.955C165.86 107.105 165.35 107.18 164.85 107.18C164.27 107.18 163.73 107.095 163.23 106.925C162.73 106.745 162.295 106.49 161.925 106.16C161.555 105.82 161.26 105.41 161.04 104.93C160.83 104.45 160.725 103.9 160.725 103.28ZM166.095 102.47C166.095 102.05 165.98 101.71 165.75 101.45C165.52 101.19 165.15 101.06 164.64 101.06C164.24 101.06 163.885 101.175 163.575 101.405C163.265 101.635 163.06 101.99 162.96 102.47H166.095ZM169.825 96.485H174.19V104.18C174.19 104.41 174.22 104.605 174.28 104.765C174.35 104.915 174.44 105.04 174.55 105.14C174.67 105.23 174.8 105.295 174.94 105.335C175.09 105.375 175.24 105.395 175.39 105.395C175.56 105.395 175.74 105.38 175.93 105.35C176.12 105.31 176.33 105.245 176.56 105.155L177.055 106.775C176.855 106.835 176.67 106.89 176.5 106.94C176.33 106.99 176.16 107.03 175.99 107.06C175.82 107.1 175.64 107.13 175.45 107.15C175.26 107.17 175.05 107.18 174.82 107.18C173.88 107.18 173.17 106.905 172.69 106.355C172.22 105.795 171.985 105.04 171.985 104.09V98.225H169.825V96.485ZM178.714 103.28C178.714 102.67 178.819 102.125 179.029 101.645C179.249 101.165 179.539 100.76 179.899 100.43C180.259 100.09 180.669 99.83 181.129 99.65C181.599 99.47 182.084 99.38 182.584 99.38C183.154 99.38 183.659 99.47 184.099 99.65C184.539 99.83 184.904 100.08 185.194 100.4C185.484 100.72 185.704 101.1 185.854 101.54C186.004 101.97 186.079 102.44 186.079 102.95C186.079 103.15 186.069 103.34 186.049 103.52C186.029 103.7 186.009 103.835 185.989 103.925H180.979C181.059 104.485 181.299 104.89 181.699 105.14C182.109 105.38 182.589 105.5 183.139 105.5C183.479 105.5 183.799 105.46 184.099 105.38C184.409 105.29 184.729 105.16 185.059 104.99L185.779 106.31C185.359 106.58 184.889 106.795 184.369 106.955C183.849 107.105 183.339 107.18 182.839 107.18C182.259 107.18 181.719 107.095 181.219 106.925C180.719 106.745 180.284 106.49 179.914 106.16C179.544 105.82 179.249 105.41 179.029 104.93C178.819 104.45 178.714 103.9 178.714 103.28ZM184.084 102.47C184.084 102.05 183.969 101.71 183.739 101.45C183.509 101.19 183.139 101.06 182.629 101.06C182.229 101.06 181.874 101.175 181.564 101.405C181.254 101.635 181.049 101.99 180.949 102.47H184.084ZM187.423 99.56H189.073L189.238 100.49H189.298C189.438 100.18 189.628 99.92 189.868 99.71C190.118 99.49 190.458 99.38 190.888 99.38C191.218 99.38 191.493 99.485 191.713 99.695C191.943 99.895 192.103 100.195 192.193 100.595C192.333 100.255 192.533 99.97 192.793 99.74C193.063 99.5 193.408 99.38 193.828 99.38C194.348 99.38 194.753 99.595 195.043 100.025C195.333 100.445 195.478 101.03 195.478 101.78V107H193.408V101.945C193.408 101.485 193.268 101.255 192.988 101.255C192.718 101.255 192.488 101.495 192.298 101.975V107H190.603V101.945C190.603 101.485 190.458 101.255 190.168 101.255C190.028 101.255 189.908 101.315 189.808 101.435C189.708 101.555 189.603 101.735 189.493 101.975V107H187.423V99.56ZM196.702 103.28C196.702 102.67 196.807 102.125 197.017 101.645C197.237 101.165 197.527 100.76 197.887 100.43C198.247 100.09 198.657 99.83 199.117 99.65C199.587 99.47 200.072 99.38 200.572 99.38C201.142 99.38 201.647 99.47 202.087 99.65C202.527 99.83 202.892 100.08 203.182 100.4C203.472 100.72 203.692 101.1 203.842 101.54C203.992 101.97 204.067 102.44 204.067 102.95C204.067 103.15 204.057 103.34 204.037 103.52C204.017 103.7 203.997 103.835 203.977 103.925H198.967C199.047 104.485 199.287 104.89 199.687 105.14C200.097 105.38 200.577 105.5 201.127 105.5C201.467 105.5 201.787 105.46 202.087 105.38C202.397 105.29 202.717 105.16 203.047 104.99L203.767 106.31C203.347 106.58 202.877 106.795 202.357 106.955C201.837 107.105 201.327 107.18 200.827 107.18C200.247 107.18 199.707 107.095 199.207 106.925C198.707 106.745 198.272 106.49 197.902 106.16C197.532 105.82 197.237 105.41 197.017 104.93C196.807 104.45 196.702 103.9 196.702 103.28ZM202.072 102.47C202.072 102.05 201.957 101.71 201.727 101.45C201.497 101.19 201.127 101.06 200.617 101.06C200.217 101.06 199.862 101.175 199.552 101.405C199.242 101.635 199.037 101.99 198.937 102.47H202.072ZM205.951 99.56H207.751L207.916 100.55H207.976C208.296 100.23 208.661 99.955 209.071 99.725C209.491 99.495 209.981 99.38 210.541 99.38C211.381 99.38 211.996 99.65 212.386 100.19C212.776 100.73 212.971 101.47 212.971 102.41V107H210.766V102.695C210.766 102.195 210.686 101.83 210.526 101.6C210.366 101.37 210.081 101.255 209.671 101.255C209.371 101.255 209.106 101.32 208.876 101.45C208.656 101.58 208.416 101.775 208.156 102.035V107H205.951V99.56ZM216.475 101.285H214.6V99.65L216.58 99.56L216.865 97.58H218.68V99.56H221.83V101.285H218.68V103.895C218.68 104.465 218.805 104.87 219.055 105.11C219.305 105.34 219.7 105.455 220.24 105.455C220.53 105.455 220.795 105.43 221.035 105.38C221.275 105.33 221.505 105.265 221.725 105.185L222.115 106.775C221.785 106.875 221.415 106.965 221.005 107.045C220.605 107.135 220.165 107.18 219.685 107.18C219.095 107.18 218.595 107.1 218.185 106.94C217.775 106.78 217.44 106.56 217.18 106.28C216.93 105.99 216.75 105.645 216.64 105.245C216.53 104.845 216.475 104.4 216.475 103.91V101.285ZM106.851 123.93C106.851 123.51 106.941 123.145 107.121 122.835C107.301 122.515 107.586 122.245 107.976 122.025C108.376 121.805 108.886 121.63 109.506 121.5C110.126 121.36 110.876 121.265 111.756 121.215C111.716 120.875 111.566 120.61 111.306 120.42C111.056 120.23 110.676 120.135 110.166 120.135C109.806 120.135 109.441 120.2 109.071 120.33C108.711 120.45 108.321 120.615 107.901 120.825L107.121 119.385C107.631 119.095 108.176 118.855 108.756 118.665C109.346 118.475 109.961 118.38 110.601 118.38C111.641 118.38 112.461 118.655 113.061 119.205C113.661 119.755 113.961 120.6 113.961 121.74V126H112.161L111.996 125.16H111.936C111.556 125.45 111.141 125.695 110.691 125.895C110.241 126.085 109.776 126.18 109.296 126.18C108.916 126.18 108.576 126.12 108.276 126C107.976 125.89 107.721 125.735 107.511 125.535C107.301 125.325 107.136 125.085 107.016 124.815C106.906 124.545 106.851 124.25 106.851 123.93ZM108.966 123.765C108.966 124.005 109.056 124.185 109.236 124.305C109.426 124.415 109.681 124.47 110.001 124.47C110.331 124.47 110.641 124.405 110.931 124.275C111.221 124.135 111.496 123.965 111.756 123.765V122.535C111.206 122.565 110.751 122.615 110.391 122.685C110.031 122.755 109.746 122.845 109.536 122.955C109.326 123.055 109.176 123.175 109.086 123.315C109.006 123.455 108.966 123.605 108.966 123.765ZM123.03 126.81V128.46H115.83V126.81H123.03ZM125.709 123.66C126.139 123.93 126.569 124.145 126.999 124.305C127.439 124.465 127.909 124.545 128.409 124.545C128.919 124.545 129.284 124.49 129.504 124.38C129.724 124.27 129.834 124.115 129.834 123.915C129.834 123.685 129.649 123.5 129.279 123.36C128.919 123.21 128.439 123.05 127.839 122.88C127.509 122.79 127.184 122.685 126.864 122.565C126.554 122.435 126.274 122.285 126.024 122.115C125.774 121.935 125.569 121.73 125.409 121.5C125.259 121.27 125.184 121.005 125.184 120.705C125.184 120.365 125.264 120.05 125.424 119.76C125.584 119.47 125.809 119.225 126.099 119.025C126.399 118.825 126.759 118.67 127.179 118.56C127.609 118.44 128.089 118.38 128.619 118.38C129.279 118.38 129.879 118.49 130.419 118.71C130.969 118.92 131.439 119.15 131.829 119.4L130.839 120.72C130.499 120.52 130.149 120.355 129.789 120.225C129.429 120.085 129.054 120.015 128.664 120.015C128.194 120.015 127.859 120.065 127.659 120.165C127.469 120.265 127.374 120.41 127.374 120.6C127.374 120.71 127.424 120.81 127.524 120.9C127.624 120.99 127.759 121.07 127.929 121.14C128.099 121.21 128.299 121.28 128.529 121.35C128.769 121.41 129.019 121.475 129.279 121.545C129.649 121.645 129.999 121.76 130.329 121.89C130.659 122.01 130.949 122.155 131.199 122.325C131.449 122.495 131.649 122.7 131.799 122.94C131.949 123.18 132.024 123.46 132.024 123.78C132.024 124.12 131.944 124.435 131.784 124.725C131.624 125.015 131.389 125.27 131.079 125.49C130.779 125.7 130.399 125.87 129.939 126C129.489 126.12 128.964 126.18 128.364 126.18C127.694 126.18 127.039 126.07 126.399 125.85C125.759 125.63 125.199 125.36 124.719 125.04L125.709 123.66ZM140.793 126H138.993L138.828 124.935H138.768C138.438 125.315 138.073 125.62 137.673 125.85C137.273 126.07 136.803 126.18 136.263 126.18C135.413 126.18 134.798 125.91 134.418 125.37C134.038 124.83 133.848 124.09 133.848 123.15V118.56H136.053V122.865C136.053 123.365 136.128 123.73 136.278 123.96C136.428 124.19 136.713 124.305 137.133 124.305C137.413 124.305 137.658 124.245 137.868 124.125C138.088 124.005 138.328 123.78 138.588 123.45V118.56H140.793V126ZM142.452 118.56H144.102L144.267 119.49H144.327C144.467 119.18 144.657 118.92 144.897 118.71C145.147 118.49 145.487 118.38 145.917 118.38C146.247 118.38 146.522 118.485 146.742 118.695C146.972 118.895 147.132 119.195 147.222 119.595C147.362 119.255 147.562 118.97 147.822 118.74C148.092 118.5 148.437 118.38 148.857 118.38C149.377 118.38 149.782 118.595 150.072 119.025C150.362 119.445 150.507 120.03 150.507 120.78V126H148.437V120.945C148.437 120.485 148.297 120.255 148.017 120.255C147.747 120.255 147.517 120.495 147.327 120.975V126H145.632V120.945C145.632 120.485 145.487 120.255 145.197 120.255C145.057 120.255 144.937 120.315 144.837 120.435C144.737 120.555 144.632 120.735 144.522 120.975V126H142.452V118.56ZM7.93 153.485H12.295V161.18C12.295 161.41 12.325 161.605 12.385 161.765C12.455 161.915 12.545 162.04 12.655 162.14C12.775 162.23 12.905 162.295 13.045 162.335C13.195 162.375 13.345 162.395 13.495 162.395C13.665 162.395 13.845 162.38 14.035 162.35C14.225 162.31 14.435 162.245 14.665 162.155L15.16 163.775C14.96 163.835 14.775 163.89 14.605 163.94C14.435 163.99 14.265 164.03 14.095 164.06C13.925 164.1 13.745 164.13 13.555 164.15C13.365 164.17 13.155 164.18 12.925 164.18C11.985 164.18 11.275 163.905 10.795 163.355C10.325 162.795 10.09 162.04 10.09 161.09V155.225H7.93V153.485ZM17.1791 156.56H22.3691V164H20.1641V158.285H17.1791V156.56ZM21.1691 155.465C20.7391 155.465 20.3841 155.345 20.1041 155.105C19.8341 154.865 19.6991 154.54 19.6991 154.13C19.6991 153.72 19.8341 153.39 20.1041 153.14C20.3841 152.88 20.7391 152.75 21.1691 152.75C21.5991 152.75 21.9491 152.88 22.2191 153.14C22.4991 153.39 22.6391 153.72 22.6391 154.13C22.6391 154.54 22.4991 154.865 22.2191 155.105C21.9491 155.345 21.5991 155.465 21.1691 155.465ZM26.7733 161.66C27.2033 161.93 27.6333 162.145 28.0633 162.305C28.5033 162.465 28.9733 162.545 29.4733 162.545C29.9833 162.545 30.3483 162.49 30.5683 162.38C30.7883 162.27 30.8983 162.115 30.8983 161.915C30.8983 161.685 30.7133 161.5 30.3433 161.36C29.9833 161.21 29.5033 161.05 28.9033 160.88C28.5733 160.79 28.2483 160.685 27.9283 160.565C27.6183 160.435 27.3383 160.285 27.0883 160.115C26.8383 159.935 26.6333 159.73 26.4733 159.5C26.3233 159.27 26.2483 159.005 26.2483 158.705C26.2483 158.365 26.3283 158.05 26.4883 157.76C26.6483 157.47 26.8733 157.225 27.1633 157.025C27.4633 156.825 27.8233 156.67 28.2433 156.56C28.6733 156.44 29.1533 156.38 29.6833 156.38C30.3433 156.38 30.9433 156.49 31.4833 156.71C32.0333 156.92 32.5033 157.15 32.8933 157.4L31.9033 158.72C31.5633 158.52 31.2133 158.355 30.8533 158.225C30.4933 158.085 30.1183 158.015 29.7283 158.015C29.2583 158.015 28.9233 158.065 28.7233 158.165C28.5333 158.265 28.4383 158.41 28.4383 158.6C28.4383 158.71 28.4883 158.81 28.5883 158.9C28.6883 158.99 28.8233 159.07 28.9933 159.14C29.1633 159.21 29.3633 159.28 29.5933 159.35C29.8333 159.41 30.0833 159.475 30.3433 159.545C30.7133 159.645 31.0633 159.76 31.3933 159.89C31.7233 160.01 32.0133 160.155 32.2633 160.325C32.5133 160.495 32.7133 160.7 32.8633 160.94C33.0133 161.18 33.0883 161.46 33.0883 161.78C33.0883 162.12 33.0083 162.435 32.8483 162.725C32.6883 163.015 32.4533 163.27 32.1433 163.49C31.8433 163.7 31.4633 163.87 31.0033 164C30.5533 164.12 30.0283 164.18 29.4283 164.18C28.7583 164.18 28.1033 164.07 27.4633 163.85C26.8233 163.63 26.2633 163.36 25.7833 163.04L26.7733 161.66ZM36.5924 158.285H34.7174V156.65L36.6974 156.56L36.9824 154.58H38.7974V156.56H41.9474V158.285H38.7974V160.895C38.7974 161.465 38.9224 161.87 39.1724 162.11C39.4224 162.34 39.8174 162.455 40.3574 162.455C40.6474 162.455 40.9124 162.43 41.1524 162.38C41.3924 162.33 41.6224 162.265 41.8424 162.185L42.2324 163.775C41.9024 163.875 41.5324 163.965 41.1224 164.045C40.7224 164.135 40.2824 164.18 39.8024 164.18C39.2124 164.18 38.7124 164.1 38.3024 163.94C37.8924 163.78 37.5574 163.56 37.2974 163.28C37.0474 162.99 36.8674 162.645 36.7574 162.245C36.6474 161.845 36.5924 161.4 36.5924 160.91V158.285ZM51.0766 164.81V166.46H43.8766V164.81H51.0766ZM60.0257 162.215V164H53.2007V162.215H55.6607V156.71H53.6957V155.345C54.2557 155.245 54.7307 155.125 55.1207 154.985C55.5207 154.845 55.8957 154.675 56.2457 154.475H57.8657V162.215H60.0257ZM71.009 156.53H77.909V158.09H71.009V156.53ZM71.009 159.995H77.909V161.555H71.009V159.995ZM90.9623 153.38H95.3873V154.55H92.6423V165.11H95.3873V166.28H90.9623V153.38ZM108.666 165.965C109.966 165.515 110.616 164.805 110.616 163.835C110.576 163.845 110.521 163.85 110.451 163.85C110.241 163.85 110.036 163.82 109.836 163.76C109.646 163.69 109.476 163.59 109.326 163.46C109.176 163.33 109.056 163.17 108.966 162.98C108.876 162.79 108.831 162.57 108.831 162.32C108.831 161.85 108.991 161.475 109.311 161.195C109.641 160.915 110.041 160.775 110.511 160.775C111.131 160.775 111.596 161.005 111.906 161.465C112.216 161.915 112.371 162.545 112.371 163.355C112.371 164.315 112.106 165.125 111.576 165.785C111.046 166.445 110.261 166.935 109.221 167.255L108.666 165.965ZM144.642 165.965C145.942 165.515 146.592 164.805 146.592 163.835C146.552 163.845 146.497 163.85 146.427 163.85C146.217 163.85 146.012 163.82 145.812 163.76C145.622 163.69 145.452 163.59 145.302 163.46C145.152 163.33 145.032 163.17 144.942 162.98C144.852 162.79 144.807 162.57 144.807 162.32C144.807 161.85 144.967 161.475 145.287 161.195C145.617 160.915 146.017 160.775 146.487 160.775C147.107 160.775 147.572 161.005 147.882 161.465C148.192 161.915 148.347 162.545 148.347 163.355C148.347 164.315 148.082 165.125 147.552 165.785C147.022 166.445 146.237 166.935 145.197 167.255L144.642 165.965ZM182.194 165.11V154.55H179.464V153.38H183.889V166.28H179.464V165.11H182.194ZM15.355 174.33C14.865 174.14 14.345 174.045 13.795 174.045C13.315 174.045 12.96 174.15 12.73 174.36C12.51 174.57 12.4 174.9 12.4 175.35V175.56H14.965V177.285H12.4V183H10.195V177.285H8.23V175.65L10.195 175.56V175.365C10.195 174.935 10.26 174.535 10.39 174.165C10.52 173.795 10.72 173.475 10.99 173.205C11.26 172.925 11.605 172.705 12.025 172.545C12.445 172.385 12.945 172.305 13.525 172.305C13.955 172.305 14.355 172.345 14.725 172.425C15.105 172.505 15.455 172.6 15.775 172.71L15.355 174.33ZM17.1791 175.56H22.3691V183H20.1641V177.285H17.1791V175.56ZM21.1691 174.465C20.7391 174.465 20.3841 174.345 20.1041 174.105C19.8341 173.865 19.6991 173.54 19.6991 173.13C19.6991 172.72 19.8341 172.39 20.1041 172.14C20.3841 171.88 20.7391 171.75 21.1691 171.75C21.5991 171.75 21.9491 171.88 22.2191 172.14C22.4991 172.39 22.6391 172.72 22.6391 173.13C22.6391 173.54 22.4991 173.865 22.2191 174.105C21.9491 174.345 21.5991 174.465 21.1691 174.465ZM26.0683 175.56H27.8683L28.0333 176.55H28.0933C28.4133 176.23 28.7783 175.955 29.1883 175.725C29.6083 175.495 30.0983 175.38 30.6583 175.38C31.4983 175.38 32.1133 175.65 32.5033 176.19C32.8933 176.73 33.0883 177.47 33.0883 178.41V183H30.8833V178.695C30.8833 178.195 30.8033 177.83 30.6433 177.6C30.4833 177.37 30.1983 177.255 29.7883 177.255C29.4883 177.255 29.2233 177.32 28.9933 177.45C28.7733 177.58 28.5333 177.775 28.2733 178.035V183H26.0683V175.56ZM34.6874 179.28C34.6874 178.67 34.7774 178.125 34.9574 177.645C35.1374 177.165 35.3724 176.76 35.6624 176.43C35.9624 176.09 36.3024 175.83 36.6824 175.65C37.0624 175.47 37.4574 175.38 37.8674 175.38C38.2974 175.38 38.6574 175.455 38.9474 175.605C39.2374 175.745 39.5124 175.935 39.7724 176.175L39.6974 175.02V172.485H41.9024V183H40.1024L39.9374 182.235H39.8924C39.6124 182.505 39.2924 182.73 38.9324 182.91C38.5724 183.09 38.2024 183.18 37.8224 183.18C37.3524 183.18 36.9224 183.09 36.5324 182.91C36.1524 182.73 35.8224 182.475 35.5424 182.145C35.2724 181.805 35.0624 181.395 34.9124 180.915C34.7624 180.435 34.6874 179.89 34.6874 179.28ZM36.9524 179.25C36.9524 179.99 37.0774 180.53 37.3274 180.87C37.5774 181.21 37.9324 181.38 38.3924 181.38C38.6424 181.38 38.8724 181.33 39.0824 181.23C39.2924 181.12 39.4974 180.94 39.6974 180.69V177.675C39.4974 177.495 39.2924 177.37 39.0824 177.3C38.8824 177.22 38.6724 177.18 38.4524 177.18C38.0424 177.18 37.6874 177.35 37.3874 177.69C37.0974 178.03 36.9524 178.55 36.9524 179.25ZM51.0766 183.81V185.46H43.8766V183.81H51.0766ZM53.7557 180.66C54.1857 180.93 54.6157 181.145 55.0457 181.305C55.4857 181.465 55.9557 181.545 56.4557 181.545C56.9657 181.545 57.3307 181.49 57.5507 181.38C57.7707 181.27 57.8807 181.115 57.8807 180.915C57.8807 180.685 57.6957 180.5 57.3257 180.36C56.9657 180.21 56.4857 180.05 55.8857 179.88C55.5557 179.79 55.2307 179.685 54.9107 179.565C54.6007 179.435 54.3207 179.285 54.0707 179.115C53.8207 178.935 53.6157 178.73 53.4557 178.5C53.3057 178.27 53.2307 178.005 53.2307 177.705C53.2307 177.365 53.3107 177.05 53.4707 176.76C53.6307 176.47 53.8557 176.225 54.1457 176.025C54.4457 175.825 54.8057 175.67 55.2257 175.56C55.6557 175.44 56.1357 175.38 56.6657 175.38C57.3257 175.38 57.9257 175.49 58.4657 175.71C59.0157 175.92 59.4857 176.15 59.8757 176.4L58.8857 177.72C58.5457 177.52 58.1957 177.355 57.8357 177.225C57.4757 177.085 57.1007 177.015 56.7107 177.015C56.2407 177.015 55.9057 177.065 55.7057 177.165C55.5157 177.265 55.4207 177.41 55.4207 177.6C55.4207 177.71 55.4707 177.81 55.5707 177.9C55.6707 177.99 55.8057 178.07 55.9757 178.14C56.1457 178.21 56.3457 178.28 56.5757 178.35C56.8157 178.41 57.0657 178.475 57.3257 178.545C57.6957 178.645 58.0457 178.76 58.3757 178.89C58.7057 179.01 58.9957 179.155 59.2457 179.325C59.4957 179.495 59.6957 179.7 59.8457 179.94C59.9957 180.18 60.0707 180.46 60.0707 180.78C60.0707 181.12 59.9907 181.435 59.8307 181.725C59.6707 182.015 59.4357 182.27 59.1257 182.49C58.8257 182.7 58.4457 182.87 57.9857 183C57.5357 183.12 57.0107 183.18 56.4107 183.18C55.7407 183.18 55.0857 183.07 54.4457 182.85C53.8057 182.63 53.2457 182.36 52.7657 182.04L53.7557 180.66ZM68.8398 183H67.0398L66.8748 181.935H66.8148C66.4848 182.315 66.1198 182.62 65.7198 182.85C65.3198 183.07 64.8498 183.18 64.3098 183.18C63.4598 183.18 62.8448 182.91 62.4648 182.37C62.0848 181.83 61.8948 181.09 61.8948 180.15V175.56H64.0998V179.865C64.0998 180.365 64.1748 180.73 64.3248 180.96C64.4748 181.19 64.7598 181.305 65.1798 181.305C65.4598 181.305 65.7048 181.245 65.9148 181.125C66.1348 181.005 66.3748 180.78 66.6348 180.45V175.56H68.8398V183ZM70.499 175.56H72.149L72.314 176.49H72.374C72.514 176.18 72.704 175.92 72.944 175.71C73.194 175.49 73.534 175.38 73.964 175.38C74.294 175.38 74.569 175.485 74.789 175.695C75.019 175.895 75.179 176.195 75.269 176.595C75.409 176.255 75.609 175.97 75.869 175.74C76.139 175.5 76.484 175.38 76.904 175.38C77.424 175.38 77.829 175.595 78.119 176.025C78.409 176.445 78.554 177.03 78.554 177.78V183H76.484V177.945C76.484 177.485 76.344 177.255 76.064 177.255C75.794 177.255 75.564 177.495 75.374 177.975V183H73.679V177.945C73.679 177.485 73.534 177.255 73.244 177.255C73.104 177.255 72.984 177.315 72.884 177.435C72.784 177.555 72.679 177.735 72.569 177.975V183H70.499V175.56ZM84.8331 185.685C83.8531 184.815 83.0781 183.81 82.5081 182.67C81.9481 181.53 81.6681 180.25 81.6681 178.83C81.6681 177.41 81.9481 176.13 82.5081 174.99C83.0781 173.85 83.8531 172.845 84.8331 171.975L86.0631 172.95C85.1731 173.82 84.5231 174.725 84.1131 175.665C83.7131 176.595 83.5131 177.65 83.5131 178.83C83.5131 179.42 83.5631 179.98 83.6631 180.51C83.7631 181.03 83.9131 181.53 84.1131 182.01C84.3231 182.49 84.5881 182.95 84.9081 183.39C85.2281 183.84 85.6131 184.28 86.0631 184.71L84.8331 185.685ZM88.8773 172.485H93.2423V180.18C93.2423 180.41 93.2723 180.605 93.3323 180.765C93.4023 180.915 93.4923 181.04 93.6023 181.14C93.7223 181.23 93.8523 181.295 93.9923 181.335C94.1423 181.375 94.2923 181.395 94.4423 181.395C94.6123 181.395 94.7923 181.38 94.9823 181.35C95.1723 181.31 95.3823 181.245 95.6123 181.155L96.1073 182.775C95.9073 182.835 95.7223 182.89 95.5523 182.94C95.3823 182.99 95.2123 183.03 95.0423 183.06C94.8723 183.1 94.6923 183.13 94.5023 183.15C94.3123 183.17 94.1023 183.18 93.8723 183.18C92.9323 183.18 92.2223 182.905 91.7423 182.355C91.2723 181.795 91.0373 181.04 91.0373 180.09V174.225H88.8773V172.485ZM98.1264 175.56H103.316V183H101.111V177.285H98.1264V175.56ZM102.116 174.465C101.686 174.465 101.331 174.345 101.051 174.105C100.781 173.865 100.646 173.54 100.646 173.13C100.646 172.72 100.781 172.39 101.051 172.14C101.331 171.88 101.686 171.75 102.116 171.75C102.546 171.75 102.896 171.88 103.166 172.14C103.446 172.39 103.586 172.72 103.586 173.13C103.586 173.54 103.446 173.865 103.166 174.105C102.896 174.345 102.546 174.465 102.116 174.465ZM107.721 180.66C108.151 180.93 108.581 181.145 109.011 181.305C109.451 181.465 109.921 181.545 110.421 181.545C110.931 181.545 111.296 181.49 111.516 181.38C111.736 181.27 111.846 181.115 111.846 180.915C111.846 180.685 111.661 180.5 111.291 180.36C110.931 180.21 110.451 180.05 109.851 179.88C109.521 179.79 109.196 179.685 108.876 179.565C108.566 179.435 108.286 179.285 108.036 179.115C107.786 178.935 107.581 178.73 107.421 178.5C107.271 178.27 107.196 178.005 107.196 177.705C107.196 177.365 107.276 177.05 107.436 176.76C107.596 176.47 107.821 176.225 108.111 176.025C108.411 175.825 108.771 175.67 109.191 175.56C109.621 175.44 110.101 175.38 110.631 175.38C111.291 175.38 111.891 175.49 112.431 175.71C112.981 175.92 113.451 176.15 113.841 176.4L112.851 177.72C112.511 177.52 112.161 177.355 111.801 177.225C111.441 177.085 111.066 177.015 110.676 177.015C110.206 177.015 109.871 177.065 109.671 177.165C109.481 177.265 109.386 177.41 109.386 177.6C109.386 177.71 109.436 177.81 109.536 177.9C109.636 177.99 109.771 178.07 109.941 178.14C110.111 178.21 110.311 178.28 110.541 178.35C110.781 178.41 111.031 178.475 111.291 178.545C111.661 178.645 112.011 178.76 112.341 178.89C112.671 179.01 112.961 179.155 113.211 179.325C113.461 179.495 113.661 179.7 113.811 179.94C113.961 180.18 114.036 180.46 114.036 180.78C114.036 181.12 113.956 181.435 113.796 181.725C113.636 182.015 113.401 182.27 113.091 182.49C112.791 182.7 112.411 182.87 111.951 183C111.501 183.12 110.976 183.18 110.376 183.18C109.706 183.18 109.051 183.07 108.411 182.85C107.771 182.63 107.211 182.36 106.731 182.04L107.721 180.66ZM117.54 177.285H115.665V175.65L117.645 175.56L117.93 173.58H119.745V175.56H122.895V177.285H119.745V179.895C119.745 180.465 119.87 180.87 120.12 181.11C120.37 181.34 120.765 181.455 121.305 181.455C121.595 181.455 121.86 181.43 122.1 181.38C122.34 181.33 122.57 181.265 122.79 181.185L123.18 182.775C122.85 182.875 122.48 182.965 122.07 183.045C121.67 183.135 121.23 183.18 120.75 183.18C120.16 183.18 119.66 183.1 119.25 182.94C118.84 182.78 118.505 182.56 118.245 182.28C117.995 181.99 117.815 181.645 117.705 181.245C117.595 180.845 117.54 180.4 117.54 179.91V177.285ZM132.024 183.81V185.46H124.824V183.81H132.024ZM140.973 181.215V183H134.148V181.215H136.608V175.71H134.643V174.345C135.203 174.245 135.678 174.125 136.068 173.985C136.468 173.845 136.843 173.675 137.193 173.475H138.813V181.215H140.973ZM143.802 184.71C144.252 184.28 144.637 183.84 144.957 183.39C145.277 182.95 145.537 182.49 145.737 182.01C145.947 181.53 146.102 181.03 146.202 180.51C146.302 179.98 146.352 179.42 146.352 178.83C146.352 177.65 146.147 176.595 145.737 175.665C145.337 174.725 144.692 173.82 143.802 172.95L145.032 171.975C146.012 172.845 146.782 173.85 147.342 174.99C147.912 176.13 148.197 177.41 148.197 178.83C148.197 180.25 147.912 181.53 147.342 182.67C146.782 183.81 146.012 184.815 145.032 185.685L143.802 184.71Z" fill="white"/>
<path d="M51.3316 42.33C50.8416 42.14 50.3216 42.045 49.7716 42.045C49.2916 42.045 48.9366 42.15 48.7066 42.36C48.4866 42.57 48.3766 42.9 48.3766 43.35V43.56H50.9416V45.285H48.3766V51H46.1716V45.285H44.2066V43.65L46.1716 43.56V43.365C46.1716 42.935 46.2366 42.535 46.3666 42.165C46.4966 41.795 46.6966 41.475 46.9666 41.205C47.2366 40.925 47.5816 40.705 48.0016 40.545C48.4216 40.385 48.9216 40.305 49.5016 40.305C49.9316 40.305 50.3316 40.345 50.7016 40.425C51.0816 40.505 51.4316 40.6 51.7516 40.71L51.3316 42.33ZM53.1557 43.56H58.3457V51H56.1407V45.285H53.1557V43.56ZM57.1457 42.465C56.7157 42.465 56.3607 42.345 56.0807 42.105C55.8107 41.865 55.6757 41.54 55.6757 41.13C55.6757 40.72 55.8107 40.39 56.0807 40.14C56.3607 39.88 56.7157 39.75 57.1457 39.75C57.5757 39.75 57.9257 39.88 58.1957 40.14C58.4757 40.39 58.6157 40.72 58.6157 41.13C58.6157 41.54 58.4757 41.865 58.1957 42.105C57.9257 42.345 57.5757 42.465 57.1457 42.465ZM62.0448 43.56H63.8448L64.0098 44.55H64.0698C64.3898 44.23 64.7548 43.955 65.1648 43.725C65.5848 43.495 66.0748 43.38 66.6348 43.38C67.4748 43.38 68.0898 43.65 68.4798 44.19C68.8698 44.73 69.0648 45.47 69.0648 46.41V51H66.8598V46.695C66.8598 46.195 66.7798 45.83 66.6198 45.6C66.4598 45.37 66.1748 45.255 65.7648 45.255C65.4648 45.255 65.1998 45.32 64.9698 45.45C64.7498 45.58 64.5098 45.775 64.2498 46.035V51H62.0448V43.56ZM70.664 47.28C70.664 46.67 70.754 46.125 70.934 45.645C71.114 45.165 71.349 44.76 71.639 44.43C71.939 44.09 72.279 43.83 72.659 43.65C73.039 43.47 73.434 43.38 73.844 43.38C74.274 43.38 74.634 43.455 74.924 43.605C75.214 43.745 75.489 43.935 75.749 44.175L75.674 43.02V40.485H77.879V51H76.079L75.914 50.235H75.869C75.589 50.505 75.269 50.73 74.909 50.91C74.549 51.09 74.179 51.18 73.799 51.18C73.329 51.18 72.899 51.09 72.509 50.91C72.129 50.73 71.799 50.475 71.519 50.145C71.249 49.805 71.039 49.395 70.889 48.915C70.739 48.435 70.664 47.89 70.664 47.28ZM72.929 47.25C72.929 47.99 73.054 48.53 73.304 48.87C73.554 49.21 73.909 49.38 74.369 49.38C74.619 49.38 74.849 49.33 75.059 49.23C75.269 49.12 75.474 48.94 75.674 48.69V45.675C75.474 45.495 75.269 45.37 75.059 45.3C74.859 45.22 74.649 45.18 74.429 45.18C74.019 45.18 73.664 45.35 73.364 45.69C73.074 46.03 72.929 46.55 72.929 47.25ZM87.0531 51.81V53.46H79.8531V51.81H87.0531ZM89.7323 48.66C90.1623 48.93 90.5923 49.145 91.0223 49.305C91.4623 49.465 91.9323 49.545 92.4323 49.545C92.9423 49.545 93.3073 49.49 93.5273 49.38C93.7473 49.27 93.8573 49.115 93.8573 48.915C93.8573 48.685 93.6723 48.5 93.3023 48.36C92.9423 48.21 92.4623 48.05 91.8623 47.88C91.5323 47.79 91.2073 47.685 90.8873 47.565C90.5773 47.435 90.2973 47.285 90.0473 47.115C89.7973 46.935 89.5923 46.73 89.4323 46.5C89.2823 46.27 89.2073 46.005 89.2073 45.705C89.2073 45.365 89.2873 45.05 89.4473 44.76C89.6073 44.47 89.8323 44.225 90.1223 44.025C90.4223 43.825 90.7823 43.67 91.2023 43.56C91.6323 43.44 92.1123 43.38 92.6423 43.38C93.3023 43.38 93.9023 43.49 94.4423 43.71C94.9923 43.92 95.4623 44.15 95.8523 44.4L94.8623 45.72C94.5223 45.52 94.1723 45.355 93.8123 45.225C93.4523 45.085 93.0773 45.015 92.6873 45.015C92.2173 45.015 91.8823 45.065 91.6823 45.165C91.4923 45.265 91.3973 45.41 91.3973 45.6C91.3973 45.71 91.4473 45.81 91.5473 45.9C91.6473 45.99 91.7823 46.07 91.9523 46.14C92.1223 46.21 92.3223 46.28 92.5523 46.35C92.7923 46.41 93.0423 46.475 93.3023 46.545C93.6723 46.645 94.0223 46.76 94.3523 46.89C94.6823 47.01 94.9723 47.155 95.2223 47.325C95.4723 47.495 95.6723 47.7 95.8223 47.94C95.9723 48.18 96.0473 48.46 96.0473 48.78C96.0473 49.12 95.9673 49.435 95.8073 49.725C95.6473 50.015 95.4123 50.27 95.1023 50.49C94.8023 50.7 94.4223 50.87 93.9623 51C93.5123 51.12 92.9873 51.18 92.3873 51.18C91.7173 51.18 91.0623 51.07 90.4223 50.85C89.7823 50.63 89.2223 50.36 88.7423 50.04L89.7323 48.66ZM104.816 51H103.016L102.851 49.935H102.791C102.461 50.315 102.096 50.62 101.696 50.85C101.296 51.07 100.826 51.18 100.286 51.18C99.4364 51.18 98.8214 50.91 98.4414 50.37C98.0614 49.83 97.8714 49.09 97.8714 48.15V43.56H100.076V47.865C100.076 48.365 100.151 48.73 100.301 48.96C100.451 49.19 100.736 49.305 101.156 49.305C101.436 49.305 101.681 49.245 101.891 49.125C102.111 49.005 102.351 48.78 102.611 48.45V43.56H104.816V51ZM106.476 43.56H108.126L108.291 44.49H108.351C108.491 44.18 108.681 43.92 108.921 43.71C109.171 43.49 109.511 43.38 109.941 43.38C110.271 43.38 110.546 43.485 110.766 43.695C110.996 43.895 111.156 44.195 111.246 44.595C111.386 44.255 111.586 43.97 111.846 43.74C112.116 43.5 112.461 43.38 112.881 43.38C113.401 43.38 113.806 43.595 114.096 44.025C114.386 44.445 114.531 45.03 114.531 45.78V51H112.461V45.945C112.461 45.485 112.321 45.255 112.041 45.255C111.771 45.255 111.541 45.495 111.351 45.975V51H109.656V45.945C109.656 45.485 109.511 45.255 109.221 45.255C109.081 45.255 108.961 45.315 108.861 45.435C108.761 45.555 108.656 45.735 108.546 45.975V51H106.476V43.56Z" fill="#56B4E9"/>
<path d="M119.43 70.18C118.88 70.18 118.38 70.075 117.93 69.865C117.48 69.645 117.095 69.325 116.775 68.905C116.455 68.485 116.205 67.965 116.025 67.345C115.855 66.725 115.77 66.01 115.77 65.2C115.77 64.39 115.855 63.68 116.025 63.07C116.205 62.46 116.455 61.95 116.775 61.54C117.095 61.12 117.48 60.81 117.93 60.61C118.38 60.4 118.88 60.295 119.43 60.295C119.98 60.295 120.48 60.4 120.93 60.61C121.38 60.81 121.765 61.12 122.085 61.54C122.405 61.95 122.65 62.46 122.82 63.07C123 63.68 123.09 64.39 123.09 65.2C123.09 66.01 123 66.725 122.82 67.345C122.65 67.965 122.405 68.485 122.085 68.905C121.765 69.325 121.38 69.645 120.93 69.865C120.48 70.075 119.98 70.18 119.43 70.18ZM119.43 62.005C119.19 62.005 118.965 62.055 118.755 62.155C118.555 62.255 118.38 62.43 118.23 62.68C118.08 62.92 117.96 63.245 117.87 63.655C117.78 64.065 117.735 64.58 117.735 65.2C117.735 65.82 117.78 66.34 117.87 66.76C117.96 67.17 118.08 67.505 118.23 67.765C118.38 68.015 118.555 68.195 118.755 68.305C118.965 68.415 119.19 68.47 119.43 68.47C119.67 68.47 119.89 68.415 120.09 68.305C120.3 68.195 120.48 68.015 120.63 67.765C120.78 67.505 120.9 67.17 120.99 66.76C121.08 66.34 121.125 65.82 121.125 65.2C121.125 64.58 121.08 64.065 120.99 63.655C120.9 63.245 120.78 62.92 120.63 62.68C120.48 62.43 120.3 62.255 120.09 62.155C119.89 62.055 119.67 62.005 119.43 62.005ZM119.43 66.31C119.11 66.31 118.84 66.21 118.62 66.01C118.41 65.8 118.305 65.52 118.305 65.17C118.305 64.82 118.41 64.545 118.62 64.345C118.84 64.135 119.11 64.03 119.43 64.03C119.75 64.03 120.015 64.135 120.225 64.345C120.445 64.545 120.555 64.82 120.555 65.17C120.555 65.52 120.445 65.8 120.225 66.01C120.015 66.21 119.75 66.31 119.43 66.31ZM98.6214 161.45C98.9414 161.71 99.2814 161.935 99.6414 162.125C100.011 162.305 100.421 162.395 100.871 162.395C101.411 162.395 101.851 162.27 102.191 162.02C102.541 161.77 102.716 161.4 102.716 160.91C102.716 160.43 102.551 160.065 102.221 159.815C101.901 159.565 101.486 159.44 100.976 159.44C100.816 159.44 100.671 159.45 100.541 159.47C100.421 159.48 100.301 159.505 100.181 159.545C100.061 159.585 99.9364 159.635 99.8064 159.695C99.6764 159.755 99.5314 159.83 99.3714 159.92L98.3964 159.29L98.6514 154.475H104.486V156.335H100.556L100.391 158.12C100.611 158.04 100.816 157.985 101.006 157.955C101.196 157.915 101.411 157.895 101.651 157.895C102.091 157.895 102.506 157.955 102.896 158.075C103.296 158.195 103.646 158.375 103.946 158.615C104.246 158.855 104.481 159.16 104.651 159.53C104.831 159.9 104.921 160.34 104.921 160.85C104.921 161.38 104.816 161.85 104.606 162.26C104.406 162.67 104.131 163.02 103.781 163.31C103.441 163.59 103.046 163.805 102.596 163.955C102.146 164.105 101.676 164.18 101.186 164.18C100.356 164.18 99.6514 164.055 99.0714 163.805C98.5014 163.545 98.0214 163.225 97.6314 162.845L98.6214 161.45ZM131.979 162.215V164H125.154V162.215H127.614V156.71H125.649V155.345C126.209 155.245 126.684 155.125 127.074 154.985C127.474 154.845 127.849 154.675 128.199 154.475H129.819V162.215H131.979ZM137.418 164.18C136.868 164.18 136.368 164.075 135.918 163.865C135.468 163.645 135.083 163.325 134.763 162.905C134.443 162.485 134.193 161.965 134.013 161.345C133.843 160.725 133.758 160.01 133.758 159.2C133.758 158.39 133.843 157.68 134.013 157.07C134.193 156.46 134.443 155.95 134.763 155.54C135.083 155.12 135.468 154.81 135.918 154.61C136.368 154.4 136.868 154.295 137.418 154.295C137.968 154.295 138.468 154.4 138.918 154.61C139.368 154.81 139.753 155.12 140.073 155.54C140.393 155.95 140.638 156.46 140.808 157.07C140.988 157.68 141.078 158.39 141.078 159.2C141.078 160.01 140.988 160.725 140.808 161.345C140.638 161.965 140.393 162.485 140.073 162.905C139.753 163.325 139.368 163.645 138.918 163.865C138.468 164.075 137.968 164.18 137.418 164.18ZM137.418 156.005C137.178 156.005 136.953 156.055 136.743 156.155C136.543 156.255 136.368 156.43 136.218 156.68C136.068 156.92 135.948 157.245 135.858 157.655C135.768 158.065 135.723 158.58 135.723 159.2C135.723 159.82 135.768 160.34 135.858 160.76C135.948 161.17 136.068 161.505 136.218 161.765C136.368 162.015 136.543 162.195 136.743 162.305C136.953 162.415 137.178 162.47 137.418 162.47C137.658 162.47 137.878 162.415 138.078 162.305C138.288 162.195 138.468 162.015 138.618 161.765C138.768 161.505 138.888 161.17 138.978 160.76C139.068 160.34 139.113 159.82 139.113 159.2C139.113 158.58 139.068 158.065 138.978 157.655C138.888 157.245 138.768 156.92 138.618 156.68C138.468 156.43 138.288 156.255 138.078 156.155C137.878 156.055 137.658 156.005 137.418 156.005ZM137.418 160.31C137.098 160.31 136.828 160.21 136.608 160.01C136.398 159.8 136.293 159.52 136.293 159.17C136.293 158.82 136.398 158.545 136.608 158.345C136.828 158.135 137.098 158.03 137.418 158.03C137.738 158.03 138.003 158.135 138.213 158.345C138.433 158.545 138.543 158.82 138.543 159.17C138.543 159.52 138.433 159.8 138.213 160.01C138.003 160.21 137.738 160.31 137.418 160.31ZM167.955 162.215V164H161.13V162.215H163.59V156.71H161.625V155.345C162.185 155.245 162.66 155.125 163.05 154.985C163.45 154.845 163.825 154.675 164.175 154.475H165.795V162.215H167.955ZM170.575 161.45C170.895 161.71 171.235 161.935 171.595 162.125C171.965 162.305 172.375 162.395 172.825 162.395C173.365 162.395 173.805 162.27 174.145 162.02C174.495 161.77 174.67 161.4 174.67 160.91C174.67 160.43 174.505 160.065 174.175 159.815C173.855 159.565 173.44 159.44 172.93 159.44C172.77 159.44 172.625 159.45 172.495 159.47C172.375 159.48 172.255 159.505 172.135 159.545C172.015 159.585 171.89 159.635 171.76 159.695C171.63 159.755 171.485 159.83 171.325 159.92L170.35 159.29L170.605 154.475H176.44V156.335H172.51L172.345 158.12C172.565 158.04 172.77 157.985 172.96 157.955C173.15 157.915 173.365 157.895 173.605 157.895C174.045 157.895 174.46 157.955 174.85 158.075C175.25 158.195 175.6 158.375 175.9 158.615C176.2 158.855 176.435 159.16 176.605 159.53C176.785 159.9 176.875 160.34 176.875 160.85C176.875 161.38 176.77 161.85 176.56 162.26C176.36 162.67 176.085 163.02 175.735 163.31C175.395 163.59 175 163.805 174.55 163.955C174.1 164.105 173.63 164.18 173.14 164.18C172.31 164.18 171.605 164.055 171.025 163.805C170.455 163.545 169.975 163.225 169.585 162.845L170.575 161.45Z" fill="#F0E442"/>
</svg>
