<svg width="1200" height="278" viewBox="0 0 1200 278" fill="none" xmlns="http://www.w3.org/2000/svg">
<rect width="600" height="139" transform="scale(2)" fill="white"/>
<path d="M460.121 144.174C461.292 143.032 461.292 141.133 460.121 139.932L441.035 120.363C439.864 119.162 437.965 119.114 436.793 120.257C435.622 121.399 435.622 123.298 436.793 124.499L453.759 141.894L436.793 158.44C435.622 159.583 435.622 161.482 436.793 162.683C437.965 163.884 439.864 163.931 441.035 162.789L460.121 144.174ZM378 143L458 145L458 139L378 137L378 143Z" fill="black"/>
<path d="M824.121 142.121C825.293 140.95 825.293 139.05 824.121 137.879L805.029 118.787C803.858 117.615 801.958 117.615 800.787 118.787C799.615 119.958 799.615 121.858 800.787 123.029L817.757 140L800.787 156.971C799.615 158.142 799.615 160.042 800.787 161.213C801.958 162.385 803.858 162.385 805.029 161.213L824.121 142.121ZM742 143H822V137H742V143Z" fill="black"/>
<circle cx="601" cy="139" r="108.5" fill="#EB5757" stroke="black"/>
<path d="M582.258 111.547H575.109L573.504 116H571.184L577.699 98.9375H579.668L586.195 116H583.887L582.258 111.547ZM575.789 109.695H581.59L578.684 101.715L575.789 109.695ZM594.281 105.266C593.953 105.211 593.598 105.184 593.215 105.184C591.793 105.184 590.828 105.789 590.32 107V116H588.152V103.32H590.262L590.297 104.785C591.008 103.652 592.016 103.086 593.32 103.086C593.742 103.086 594.062 103.141 594.281 103.25V105.266ZM599.812 100.25V103.32H602.18V104.996H599.812V112.859C599.812 113.367 599.918 113.75 600.129 114.008C600.34 114.258 600.699 114.383 601.207 114.383C601.457 114.383 601.801 114.336 602.238 114.242V116C601.668 116.156 601.113 116.234 600.574 116.234C599.605 116.234 598.875 115.941 598.383 115.355C597.891 114.77 597.645 113.938 597.645 112.859V104.996H595.336V103.32H597.645V100.25H599.812ZM607.078 116H604.91V103.32H607.078V116ZM604.734 99.957C604.734 99.6055 604.84 99.3086 605.051 99.0664C605.27 98.8242 605.59 98.7031 606.012 98.7031C606.434 98.7031 606.754 98.8242 606.973 99.0664C607.191 99.3086 607.301 99.6055 607.301 99.957C607.301 100.309 607.191 100.602 606.973 100.836C606.754 101.07 606.434 101.188 606.012 101.188C605.59 101.188 605.27 101.07 605.051 100.836C604.84 100.602 604.734 100.309 604.734 99.957ZM617.941 112.637C617.941 112.051 617.719 111.598 617.273 111.277C616.836 110.949 616.066 110.668 614.965 110.434C613.871 110.199 613 109.918 612.352 109.59C611.711 109.262 611.234 108.871 610.922 108.418C610.617 107.965 610.465 107.426 610.465 106.801C610.465 105.762 610.902 104.883 611.777 104.164C612.66 103.445 613.785 103.086 615.152 103.086C616.59 103.086 617.754 103.457 618.645 104.199C619.543 104.941 619.992 105.891 619.992 107.047H617.812C617.812 106.453 617.559 105.941 617.051 105.512C616.551 105.082 615.918 104.867 615.152 104.867C614.363 104.867 613.746 105.039 613.301 105.383C612.855 105.727 612.633 106.176 612.633 106.73C612.633 107.254 612.84 107.648 613.254 107.914C613.668 108.18 614.414 108.434 615.492 108.676C616.578 108.918 617.457 109.207 618.129 109.543C618.801 109.879 619.297 110.285 619.617 110.762C619.945 111.23 620.109 111.805 620.109 112.484C620.109 113.617 619.656 114.527 618.75 115.215C617.844 115.895 616.668 116.234 615.223 116.234C614.207 116.234 613.309 116.055 612.527 115.695C611.746 115.336 611.133 114.836 610.688 114.195C610.25 113.547 610.031 112.848 610.031 112.098H612.199C612.238 112.824 612.527 113.402 613.066 113.832C613.613 114.254 614.332 114.465 615.223 114.465C616.043 114.465 616.699 114.301 617.191 113.973C617.691 113.637 617.941 113.191 617.941 112.637ZM625.875 100.25V103.32H628.242V104.996H625.875V112.859C625.875 113.367 625.98 113.75 626.191 114.008C626.402 114.258 626.762 114.383 627.27 114.383C627.52 114.383 627.863 114.336 628.301 114.242V116C627.73 116.156 627.176 116.234 626.637 116.234C625.668 116.234 624.938 115.941 624.445 115.355C623.953 114.77 623.707 113.938 623.707 112.859V104.996H621.398V103.32H623.707V100.25H625.875ZM555.832 136.395C553.902 135.84 552.496 135.16 551.613 134.355C550.738 133.543 550.301 132.543 550.301 131.355C550.301 130.012 550.836 128.902 551.906 128.027C552.984 127.145 554.383 126.703 556.102 126.703C557.273 126.703 558.316 126.93 559.23 127.383C560.152 127.836 560.863 128.461 561.363 129.258C561.871 130.055 562.125 130.926 562.125 131.871H559.863C559.863 130.84 559.535 130.031 558.879 129.445C558.223 128.852 557.297 128.555 556.102 128.555C554.992 128.555 554.125 128.801 553.5 129.293C552.883 129.777 552.574 130.453 552.574 131.32C552.574 132.016 552.867 132.605 553.453 133.09C554.047 133.566 555.051 134.004 556.465 134.402C557.887 134.801 558.996 135.242 559.793 135.727C560.598 136.203 561.191 136.762 561.574 137.402C561.965 138.043 562.16 138.797 562.16 139.664C562.16 141.047 561.621 142.156 560.543 142.992C559.465 143.82 558.023 144.234 556.219 144.234C555.047 144.234 553.953 144.012 552.938 143.566C551.922 143.113 551.137 142.496 550.582 141.715C550.035 140.934 549.762 140.047 549.762 139.055H552.023C552.023 140.086 552.402 140.902 553.16 141.504C553.926 142.098 554.945 142.395 556.219 142.395C557.406 142.395 558.316 142.152 558.949 141.668C559.582 141.184 559.898 140.523 559.898 139.688C559.898 138.852 559.605 138.207 559.02 137.754C558.434 137.293 557.371 136.84 555.832 136.395ZM572.543 142.746C571.699 143.738 570.461 144.234 568.828 144.234C567.477 144.234 566.445 143.844 565.734 143.062C565.031 142.273 564.676 141.109 564.668 139.57V131.32H566.836V139.512C566.836 141.434 567.617 142.395 569.18 142.395C570.836 142.395 571.938 141.777 572.484 140.543V131.32H574.652V144H572.59L572.543 142.746ZM579.996 131.32L580.055 132.727C580.984 131.633 582.238 131.086 583.816 131.086C585.59 131.086 586.797 131.766 587.438 133.125C587.859 132.516 588.406 132.023 589.078 131.648C589.758 131.273 590.559 131.086 591.48 131.086C594.262 131.086 595.676 132.559 595.723 135.504V144H593.555V135.633C593.555 134.727 593.348 134.051 592.934 133.605C592.52 133.152 591.824 132.926 590.848 132.926C590.043 132.926 589.375 133.168 588.844 133.652C588.312 134.129 588.004 134.773 587.918 135.586V144H585.738V135.691C585.738 133.848 584.836 132.926 583.031 132.926C581.609 132.926 580.637 133.531 580.113 134.742V144H577.945V131.32H579.996ZM601.043 131.32L601.102 132.727C602.031 131.633 603.285 131.086 604.863 131.086C606.637 131.086 607.844 131.766 608.484 133.125C608.906 132.516 609.453 132.023 610.125 131.648C610.805 131.273 611.605 131.086 612.527 131.086C615.309 131.086 616.723 132.559 616.77 135.504V144H614.602V135.633C614.602 134.727 614.395 134.051 613.98 133.605C613.566 133.152 612.871 132.926 611.895 132.926C611.09 132.926 610.422 133.168 609.891 133.652C609.359 134.129 609.051 134.773 608.965 135.586V144H606.785V135.691C606.785 133.848 605.883 132.926 604.078 132.926C602.656 132.926 601.684 133.531 601.16 134.742V144H598.992V131.32H601.043ZM627.879 144C627.754 143.75 627.652 143.305 627.574 142.664C626.566 143.711 625.363 144.234 623.965 144.234C622.715 144.234 621.688 143.883 620.883 143.18C620.086 142.469 619.688 141.57 619.688 140.484C619.688 139.164 620.188 138.141 621.188 137.414C622.195 136.68 623.609 136.312 625.43 136.312H627.539V135.316C627.539 134.559 627.312 133.957 626.859 133.512C626.406 133.059 625.738 132.832 624.855 132.832C624.082 132.832 623.434 133.027 622.91 133.418C622.387 133.809 622.125 134.281 622.125 134.836H619.945C619.945 134.203 620.168 133.594 620.613 133.008C621.066 132.414 621.676 131.945 622.441 131.602C623.215 131.258 624.062 131.086 624.984 131.086C626.445 131.086 627.59 131.453 628.418 132.188C629.246 132.914 629.676 133.918 629.707 135.199V141.035C629.707 142.199 629.855 143.125 630.152 143.812V144H627.879ZM624.281 142.348C624.961 142.348 625.605 142.172 626.215 141.82C626.824 141.469 627.266 141.012 627.539 140.449V137.848H625.84C623.184 137.848 621.855 138.625 621.855 140.18C621.855 140.859 622.082 141.391 622.535 141.773C622.988 142.156 623.57 142.348 624.281 142.348ZM639.234 133.266C638.906 133.211 638.551 133.184 638.168 133.184C636.746 133.184 635.781 133.789 635.273 135V144H633.105V131.32H635.215L635.25 132.785C635.961 131.652 636.969 131.086 638.273 131.086C638.695 131.086 639.016 131.141 639.234 131.25V133.266ZM645.598 140.824L648.551 131.32H650.871L645.773 145.957C644.984 148.066 643.73 149.121 642.012 149.121L641.602 149.086L640.793 148.934V147.176L641.379 147.223C642.113 147.223 642.684 147.074 643.09 146.777C643.504 146.48 643.844 145.938 644.109 145.148L644.59 143.859L640.066 131.32H642.434L645.598 140.824ZM565.055 164.465H557.895V172H555.645V154.938H566.215V156.789H557.895V162.625H565.055V164.465ZM576.141 170.746C575.297 171.738 574.059 172.234 572.426 172.234C571.074 172.234 570.043 171.844 569.332 171.062C568.629 170.273 568.273 169.109 568.266 167.57V159.32H570.434V167.512C570.434 169.434 571.215 170.395 572.777 170.395C574.434 170.395 575.535 169.777 576.082 168.543V159.32H578.25V172H576.188L576.141 170.746ZM583.605 159.32L583.676 160.914C584.645 159.695 585.91 159.086 587.473 159.086C590.152 159.086 591.504 160.598 591.527 163.621V172H589.359V163.609C589.352 162.695 589.141 162.02 588.727 161.582C588.32 161.145 587.684 160.926 586.816 160.926C586.113 160.926 585.496 161.113 584.965 161.488C584.434 161.863 584.02 162.355 583.723 162.965V172H581.555V159.32H583.605ZM599.883 170.465C600.656 170.465 601.332 170.23 601.91 169.762C602.488 169.293 602.809 168.707 602.871 168.004H604.922C604.883 168.73 604.633 169.422 604.172 170.078C603.711 170.734 603.094 171.258 602.32 171.648C601.555 172.039 600.742 172.234 599.883 172.234C598.156 172.234 596.781 171.66 595.758 170.512C594.742 169.355 594.234 167.777 594.234 165.777V165.414C594.234 164.18 594.461 163.082 594.914 162.121C595.367 161.16 596.016 160.414 596.859 159.883C597.711 159.352 598.715 159.086 599.871 159.086C601.293 159.086 602.473 159.512 603.41 160.363C604.355 161.215 604.859 162.32 604.922 163.68H602.871C602.809 162.859 602.496 162.188 601.934 161.664C601.379 161.133 600.691 160.867 599.871 160.867C598.77 160.867 597.914 161.266 597.305 162.062C596.703 162.852 596.402 163.996 596.402 165.496V165.906C596.402 167.367 596.703 168.492 597.305 169.281C597.906 170.07 598.766 170.465 599.883 170.465ZM610.301 156.25V159.32H612.668V160.996H610.301V168.859C610.301 169.367 610.406 169.75 610.617 170.008C610.828 170.258 611.188 170.383 611.695 170.383C611.945 170.383 612.289 170.336 612.727 170.242V172C612.156 172.156 611.602 172.234 611.062 172.234C610.094 172.234 609.363 171.941 608.871 171.355C608.379 170.77 608.133 169.938 608.133 168.859V160.996H605.824V159.32H608.133V156.25H610.301ZM617.566 172H615.398V159.32H617.566V172ZM615.223 155.957C615.223 155.605 615.328 155.309 615.539 155.066C615.758 154.824 616.078 154.703 616.5 154.703C616.922 154.703 617.242 154.824 617.461 155.066C617.68 155.309 617.789 155.605 617.789 155.957C617.789 156.309 617.68 156.602 617.461 156.836C617.242 157.07 616.922 157.188 616.5 157.188C616.078 157.188 615.758 157.07 615.539 156.836C615.328 156.602 615.223 156.309 615.223 155.957ZM620.473 165.543C620.473 164.301 620.715 163.184 621.199 162.191C621.691 161.199 622.371 160.434 623.238 159.895C624.113 159.355 625.109 159.086 626.227 159.086C627.953 159.086 629.348 159.684 630.41 160.879C631.48 162.074 632.016 163.664 632.016 165.648V165.801C632.016 167.035 631.777 168.145 631.301 169.129C630.832 170.105 630.156 170.867 629.273 171.414C628.398 171.961 627.391 172.234 626.25 172.234C624.531 172.234 623.137 171.637 622.066 170.441C621.004 169.246 620.473 167.664 620.473 165.695V165.543ZM622.652 165.801C622.652 167.207 622.977 168.336 623.625 169.188C624.281 170.039 625.156 170.465 626.25 170.465C627.352 170.465 628.227 170.035 628.875 169.176C629.523 168.309 629.848 167.098 629.848 165.543C629.848 164.152 629.516 163.027 628.852 162.168C628.195 161.301 627.32 160.867 626.227 160.867C625.156 160.867 624.293 161.293 623.637 162.145C622.98 162.996 622.652 164.215 622.652 165.801ZM636.785 159.32L636.855 160.914C637.824 159.695 639.09 159.086 640.652 159.086C643.332 159.086 644.684 160.598 644.707 163.621V172H642.539V163.609C642.531 162.695 642.32 162.02 641.906 161.582C641.5 161.145 640.863 160.926 639.996 160.926C639.293 160.926 638.676 161.113 638.145 161.488C637.613 161.863 637.199 162.355 636.902 162.965V172H634.734V159.32H636.785Z" fill="white"/>
<path d="M160.6 132.256H162.808L165.04 138.952L165.832 141.496H165.928L166.696 138.952L168.904 132.256H171.112V148H169.408V139.144C169.408 138.824 169.416 138.448 169.432 138.016C169.448 137.584 169.464 137.152 169.48 136.72C169.512 136.272 169.536 135.84 169.552 135.424C169.584 134.992 169.616 134.616 169.648 134.296H169.576L168.544 137.656L166.384 143.728H165.304L163.144 137.656L162.088 134.296H162.016C162.032 134.616 162.056 134.992 162.088 135.424C162.12 135.84 162.152 136.272 162.184 136.72C162.216 137.152 162.24 137.584 162.256 138.016C162.272 138.448 162.28 138.824 162.28 139.144V148H160.6V132.256ZM174.991 144.976C174.991 144.32 175.143 143.752 175.447 143.272C175.767 142.776 176.263 142.352 176.935 142C177.623 141.648 178.503 141.36 179.575 141.136C180.647 140.912 181.935 140.736 183.439 140.608C183.423 140.208 183.359 139.832 183.247 139.48C183.135 139.128 182.959 138.824 182.719 138.568C182.479 138.296 182.159 138.08 181.759 137.92C181.375 137.76 180.903 137.68 180.343 137.68C179.575 137.68 178.839 137.832 178.135 138.136C177.431 138.424 176.807 138.736 176.263 139.072L175.495 137.728C175.783 137.536 176.119 137.344 176.503 137.152C176.903 136.944 177.319 136.76 177.751 136.6C178.199 136.44 178.671 136.312 179.167 136.216C179.663 136.104 180.167 136.048 180.679 136.048C182.279 136.048 183.463 136.488 184.231 137.368C185.015 138.232 185.407 139.392 185.407 140.848V148H183.799L183.631 146.416H183.559C182.903 146.928 182.175 147.368 181.375 147.736C180.591 148.104 179.783 148.288 178.951 148.288C178.407 148.288 177.895 148.208 177.415 148.048C176.935 147.904 176.511 147.696 176.143 147.424C175.791 147.136 175.511 146.792 175.303 146.392C175.095 145.976 174.991 145.504 174.991 144.976ZM176.911 144.832C176.911 145.168 176.983 145.456 177.127 145.696C177.271 145.92 177.455 146.112 177.679 146.272C177.919 146.416 178.191 146.528 178.495 146.608C178.815 146.672 179.143 146.704 179.479 146.704C180.151 146.704 180.807 146.56 181.447 146.272C182.103 145.968 182.767 145.536 183.439 144.976V141.904C182.191 142 181.143 142.136 180.295 142.312C179.463 142.488 178.791 142.704 178.279 142.96C177.783 143.2 177.431 143.48 177.223 143.8C177.015 144.104 176.911 144.448 176.911 144.832ZM190.942 136.336H192.574L192.742 139.096H192.814C193.422 138.152 194.166 137.408 195.046 136.864C195.942 136.32 196.934 136.048 198.022 136.048C198.454 136.048 198.854 136.088 199.222 136.168C199.59 136.232 199.957 136.352 200.326 136.528L199.87 138.232C199.454 138.088 199.102 137.984 198.814 137.92C198.542 137.856 198.174 137.824 197.71 137.824C196.83 137.824 195.982 138.08 195.166 138.592C194.366 139.088 193.614 139.944 192.91 141.16V148H190.942V136.336ZM203.748 142.192C203.748 141.216 203.916 140.352 204.252 139.6C204.604 138.832 205.076 138.184 205.668 137.656C206.26 137.128 206.948 136.728 207.732 136.456C208.532 136.184 209.372 136.048 210.252 136.048C211.212 136.048 212.036 136.216 212.724 136.552C213.428 136.888 214.02 137.288 214.5 137.752L213.516 139.024C213.036 138.608 212.532 138.28 212.004 138.04C211.492 137.8 210.932 137.68 210.324 137.68C209.652 137.68 209.036 137.792 208.476 138.016C207.916 138.224 207.436 138.528 207.036 138.928C206.652 139.328 206.348 139.808 206.124 140.368C205.9 140.912 205.788 141.52 205.788 142.192C205.788 142.864 205.892 143.472 206.1 144.016C206.324 144.56 206.628 145.032 207.012 145.432C207.412 145.816 207.884 146.12 208.428 146.344C208.988 146.552 209.604 146.656 210.276 146.656C210.996 146.656 211.652 146.52 212.244 146.248C212.852 145.96 213.404 145.608 213.9 145.192L214.764 146.464C214.124 147.04 213.404 147.488 212.604 147.808C211.82 148.128 210.996 148.288 210.132 148.288C209.22 148.288 208.372 148.152 207.588 147.88C206.82 147.608 206.148 147.216 205.572 146.704C204.996 146.176 204.548 145.536 204.228 144.784C203.908 144.016 203.748 143.152 203.748 142.192ZM232.193 140.128C232.193 138.864 232.361 137.728 232.697 136.72C233.049 135.712 233.537 134.856 234.161 134.152C234.785 133.448 235.529 132.912 236.393 132.544C237.257 132.16 238.201 131.968 239.225 131.968C240.185 131.968 241.025 132.16 241.745 132.544C242.465 132.928 243.057 133.376 243.521 133.888L242.393 135.16C241.977 134.728 241.513 134.384 241.001 134.128C240.489 133.856 239.897 133.72 239.225 133.72C238.473 133.72 237.785 133.872 237.161 134.176C236.553 134.464 236.033 134.888 235.601 135.448C235.169 135.992 234.833 136.656 234.593 137.44C234.369 138.224 234.257 139.104 234.257 140.08C234.257 141.072 234.369 141.968 234.593 142.768C234.833 143.552 235.169 144.224 235.601 144.784C236.033 145.344 236.553 145.776 237.161 146.08C237.785 146.384 238.473 146.536 239.225 146.536C239.945 146.536 240.585 146.384 241.145 146.08C241.705 145.776 242.241 145.344 242.753 144.784L243.905 146.008C243.281 146.728 242.577 147.288 241.793 147.688C241.009 148.088 240.113 148.288 239.105 148.288C238.113 148.288 237.193 148.104 236.345 147.736C235.513 147.368 234.785 146.84 234.161 146.152C233.553 145.448 233.073 144.592 232.721 143.584C232.369 142.56 232.193 141.408 232.193 140.128ZM247.232 130.912H249.2V135.568L249.104 138.328C249.728 137.672 250.392 137.128 251.096 136.696C251.8 136.264 252.608 136.048 253.52 136.048C254.912 136.048 255.928 136.448 256.568 137.248C257.224 138.032 257.552 139.2 257.552 140.752V148H255.584V141.016C255.584 139.912 255.376 139.096 254.96 138.568C254.544 138.024 253.856 137.752 252.896 137.752C252.544 137.752 252.216 137.8 251.912 137.896C251.624 137.976 251.336 138.104 251.048 138.28C250.76 138.456 250.464 138.68 250.16 138.952C249.856 139.208 249.536 139.512 249.2 139.864V148H247.232V130.912ZM261.335 144.976C261.335 144.32 261.487 143.752 261.791 143.272C262.111 142.776 262.607 142.352 263.279 142C263.967 141.648 264.847 141.36 265.919 141.136C266.991 140.912 268.279 140.736 269.783 140.608C269.767 140.208 269.703 139.832 269.591 139.48C269.479 139.128 269.303 138.824 269.063 138.568C268.823 138.296 268.503 138.08 268.103 137.92C267.719 137.76 267.247 137.68 266.687 137.68C265.919 137.68 265.183 137.832 264.479 138.136C263.775 138.424 263.151 138.736 262.607 139.072L261.839 137.728C262.127 137.536 262.463 137.344 262.847 137.152C263.247 136.944 263.663 136.76 264.095 136.6C264.543 136.44 265.015 136.312 265.511 136.216C266.007 136.104 266.511 136.048 267.023 136.048C268.623 136.048 269.807 136.488 270.575 137.368C271.359 138.232 271.751 139.392 271.751 140.848V148H270.143L269.975 146.416H269.903C269.247 146.928 268.519 147.368 267.719 147.736C266.935 148.104 266.127 148.288 265.295 148.288C264.751 148.288 264.239 148.208 263.759 148.048C263.279 147.904 262.855 147.696 262.487 147.424C262.135 147.136 261.855 146.792 261.647 146.392C261.439 145.976 261.335 145.504 261.335 144.976ZM263.255 144.832C263.255 145.168 263.327 145.456 263.471 145.696C263.615 145.92 263.799 146.112 264.023 146.272C264.263 146.416 264.535 146.528 264.839 146.608C265.159 146.672 265.487 146.704 265.823 146.704C266.495 146.704 267.151 146.56 267.791 146.272C268.447 145.968 269.111 145.536 269.783 144.976V141.904C268.535 142 267.487 142.136 266.639 142.312C265.807 142.488 265.135 142.704 264.623 142.96C264.127 143.2 263.775 143.48 263.567 143.8C263.359 144.104 263.255 144.448 263.255 144.832ZM277.213 149.944C277.213 150.552 277.533 151.048 278.173 151.432C278.829 151.816 279.781 152.008 281.029 152.008C281.701 152.008 282.309 151.936 282.853 151.792C283.397 151.664 283.861 151.488 284.245 151.264C284.629 151.04 284.917 150.784 285.109 150.496C285.317 150.208 285.421 149.912 285.421 149.608C285.421 149.048 285.197 148.672 284.749 148.48C284.317 148.288 283.653 148.192 282.757 148.192H280.477C280.141 148.192 279.821 148.176 279.517 148.144C279.229 148.128 278.957 148.08 278.701 148C278.141 148.304 277.749 148.616 277.525 148.936C277.317 149.272 277.213 149.608 277.213 149.944ZM275.509 150.136C275.509 149.672 275.669 149.216 275.989 148.768C276.325 148.32 276.805 147.912 277.429 147.544V147.448C277.109 147.272 276.829 147.032 276.589 146.728C276.349 146.424 276.229 146.024 276.229 145.528C276.229 145.16 276.349 144.784 276.589 144.4C276.829 144 277.173 143.648 277.621 143.344V143.248C277.221 142.944 276.877 142.544 276.589 142.048C276.317 141.536 276.181 140.928 276.181 140.224C276.181 139.584 276.301 139.008 276.541 138.496C276.797 137.984 277.133 137.552 277.549 137.2C277.965 136.832 278.445 136.552 278.989 136.36C279.549 136.152 280.141 136.048 280.765 136.048C281.405 136.048 281.981 136.144 282.493 136.336H287.317V137.848H284.197C284.469 138.136 284.717 138.488 284.941 138.904C285.165 139.32 285.277 139.784 285.277 140.296C285.277 140.92 285.157 141.48 284.917 141.976C284.693 142.472 284.373 142.896 283.957 143.248C283.557 143.584 283.077 143.848 282.517 144.04C281.973 144.216 281.389 144.304 280.765 144.304C280.461 144.304 280.133 144.272 279.781 144.208C279.445 144.128 279.117 144.016 278.797 143.872C278.189 144.256 277.885 144.704 277.885 145.216C277.885 145.68 278.093 146.024 278.509 146.248C278.941 146.456 279.541 146.56 280.309 146.56H282.925C284.429 146.56 285.541 146.768 286.261 147.184C286.997 147.6 287.365 148.304 287.365 149.296C287.365 149.84 287.213 150.36 286.909 150.856C286.605 151.352 286.173 151.784 285.613 152.152C285.053 152.52 284.373 152.816 283.573 153.04C282.773 153.264 281.877 153.376 280.885 153.376C279.173 153.376 277.845 153.096 276.901 152.536C275.973 151.976 275.509 151.176 275.509 150.136ZM280.765 142.984C281.517 142.984 282.149 142.736 282.661 142.24C283.189 141.744 283.453 141.072 283.453 140.224C283.453 139.824 283.381 139.456 283.237 139.12C283.093 138.784 282.901 138.496 282.661 138.256C282.421 138.016 282.133 137.832 281.797 137.704C281.477 137.56 281.133 137.488 280.765 137.488C280.397 137.488 280.045 137.56 279.709 137.704C279.389 137.832 279.109 138.016 278.869 138.256C278.629 138.496 278.437 138.784 278.293 139.12C278.149 139.456 278.077 139.824 278.077 140.224C278.077 141.072 278.341 141.744 278.869 142.24C279.397 142.736 280.029 142.984 280.765 142.984ZM290.116 144.976C290.116 144.32 290.268 143.752 290.572 143.272C290.892 142.776 291.388 142.352 292.06 142C292.748 141.648 293.628 141.36 294.7 141.136C295.772 140.912 297.06 140.736 298.564 140.608C298.548 140.208 298.484 139.832 298.372 139.48C298.26 139.128 298.084 138.824 297.844 138.568C297.604 138.296 297.284 138.08 296.884 137.92C296.5 137.76 296.028 137.68 295.468 137.68C294.7 137.68 293.964 137.832 293.26 138.136C292.556 138.424 291.932 138.736 291.388 139.072L290.62 137.728C290.908 137.536 291.244 137.344 291.628 137.152C292.028 136.944 292.444 136.76 292.876 136.6C293.324 136.44 293.796 136.312 294.292 136.216C294.788 136.104 295.292 136.048 295.804 136.048C297.404 136.048 298.588 136.488 299.356 137.368C300.14 138.232 300.532 139.392 300.532 140.848V148H298.924L298.756 146.416H298.684C298.028 146.928 297.3 147.368 296.5 147.736C295.716 148.104 294.908 148.288 294.076 148.288C293.532 148.288 293.02 148.208 292.54 148.048C292.06 147.904 291.636 147.696 291.268 147.424C290.916 147.136 290.636 146.792 290.428 146.392C290.22 145.976 290.116 145.504 290.116 144.976ZM292.036 144.832C292.036 145.168 292.108 145.456 292.252 145.696C292.396 145.92 292.58 146.112 292.804 146.272C293.044 146.416 293.316 146.528 293.62 146.608C293.94 146.672 294.268 146.704 294.604 146.704C295.276 146.704 295.932 146.56 296.572 146.272C297.228 145.968 297.892 145.536 298.564 144.976V141.904C297.316 142 296.268 142.136 295.42 142.312C294.588 142.488 293.916 142.704 293.404 142.96C292.908 143.2 292.556 143.48 292.348 143.8C292.14 144.104 292.036 144.448 292.036 144.832ZM304.507 130.912H310.459V144.232C310.459 145.096 310.659 145.72 311.059 146.104C311.475 146.472 312.035 146.656 312.739 146.656C313.379 146.656 314.115 146.472 314.947 146.104L315.451 147.592C314.923 147.784 314.427 147.944 313.963 148.072C313.499 148.216 312.947 148.288 312.307 148.288C311.059 148.288 310.107 147.936 309.451 147.232C308.811 146.528 308.491 145.48 308.491 144.088V132.52H304.507V130.912ZM318.897 130.912H324.849V144.232C324.849 145.096 325.049 145.72 325.449 146.104C325.865 146.472 326.425 146.656 327.129 146.656C327.769 146.656 328.505 146.472 329.337 146.104L329.841 147.592C329.313 147.784 328.817 147.944 328.353 148.072C327.889 148.216 327.337 148.288 326.697 148.288C325.449 148.288 324.497 147.936 323.841 147.232C323.201 146.528 322.881 145.48 322.881 144.088V132.52H318.897V130.912Z" fill="black"/>
<path d="M883.653 91.936H878.469V90.256H890.853V91.936H885.669V106H883.653V91.936ZM894.084 88.912H896.052V93.568L895.956 96.328C896.58 95.672 897.244 95.128 897.948 94.696C898.652 94.264 899.46 94.048 900.372 94.048C901.764 94.048 902.78 94.448 903.42 95.248C904.076 96.032 904.404 97.2 904.404 98.752V106H902.436V99.016C902.436 97.912 902.228 97.096 901.812 96.568C901.396 96.024 900.708 95.752 899.748 95.752C899.396 95.752 899.068 95.8 898.764 95.896C898.476 95.976 898.188 96.104 897.9 96.28C897.612 96.456 897.316 96.68 897.012 96.952C896.708 97.208 896.388 97.512 896.052 97.864V106H894.084V88.912ZM907.898 100.192C907.898 99.232 908.066 98.376 908.402 97.624C908.738 96.856 909.178 96.208 909.722 95.68C910.282 95.152 910.914 94.752 911.618 94.48C912.338 94.192 913.074 94.048 913.826 94.048C914.658 94.048 915.402 94.184 916.058 94.456C916.714 94.712 917.266 95.08 917.714 95.56C918.178 96.04 918.53 96.616 918.77 97.288C919.01 97.96 919.13 98.704 919.13 99.52C919.13 99.728 919.122 99.936 919.106 100.144C919.106 100.336 919.09 100.504 919.058 100.648H909.938C909.954 101.272 910.074 101.832 910.298 102.328C910.538 102.824 910.85 103.248 911.234 103.6C911.634 103.952 912.098 104.224 912.626 104.416C913.17 104.608 913.762 104.704 914.402 104.704C915.09 104.704 915.714 104.608 916.274 104.416C916.85 104.224 917.41 103.96 917.954 103.624L918.65 104.92C918.074 105.288 917.418 105.608 916.682 105.88C915.946 106.152 915.106 106.288 914.162 106.288C913.298 106.288 912.482 106.152 911.714 105.88C910.962 105.592 910.298 105.192 909.722 104.68C909.162 104.152 908.714 103.512 908.378 102.76C908.058 102.008 907.898 101.152 907.898 100.192ZM917.306 99.232C917.306 98.064 917.002 97.168 916.394 96.544C915.786 95.92 914.938 95.608 913.85 95.608C913.37 95.608 912.906 95.688 912.458 95.848C912.026 96.008 911.634 96.248 911.282 96.568C910.93 96.872 910.634 97.248 910.394 97.696C910.154 98.144 909.994 98.656 909.914 99.232H917.306ZM924.137 94.336H925.769L925.937 97.096H926.009C926.617 96.152 927.361 95.408 928.241 94.864C929.137 94.32 930.129 94.048 931.217 94.048C931.649 94.048 932.049 94.088 932.417 94.168C932.785 94.232 933.153 94.352 933.521 94.528L933.065 96.232C932.649 96.088 932.297 95.984 932.009 95.92C931.737 95.856 931.369 95.824 930.905 95.824C930.025 95.824 929.177 96.08 928.361 96.592C927.561 97.088 926.809 97.944 926.105 99.16V106H924.137V94.336ZM936.679 100.192C936.679 99.232 936.847 98.376 937.183 97.624C937.519 96.856 937.959 96.208 938.503 95.68C939.063 95.152 939.695 94.752 940.399 94.48C941.119 94.192 941.855 94.048 942.607 94.048C943.439 94.048 944.183 94.184 944.839 94.456C945.495 94.712 946.047 95.08 946.495 95.56C946.959 96.04 947.311 96.616 947.551 97.288C947.791 97.96 947.911 98.704 947.911 99.52C947.911 99.728 947.903 99.936 947.887 100.144C947.887 100.336 947.871 100.504 947.839 100.648H938.719C938.735 101.272 938.855 101.832 939.079 102.328C939.319 102.824 939.631 103.248 940.015 103.6C940.415 103.952 940.879 104.224 941.407 104.416C941.951 104.608 942.543 104.704 943.183 104.704C943.871 104.704 944.495 104.608 945.055 104.416C945.631 104.224 946.191 103.96 946.735 103.624L947.431 104.92C946.855 105.288 946.199 105.608 945.463 105.88C944.727 106.152 943.887 106.288 942.943 106.288C942.079 106.288 941.263 106.152 940.495 105.88C939.743 105.592 939.079 105.192 938.503 104.68C937.943 104.152 937.495 103.512 937.159 102.76C936.839 102.008 936.679 101.152 936.679 100.192ZM946.087 99.232C946.087 98.064 945.783 97.168 945.175 96.544C944.567 95.92 943.719 95.608 942.631 95.608C942.151 95.608 941.687 95.688 941.239 95.848C940.807 96.008 940.415 96.248 940.063 96.568C939.711 96.872 939.415 97.248 939.175 97.696C938.935 98.144 938.775 98.656 938.695 99.232H946.087ZM965.749 102.976C965.749 102.32 965.901 101.752 966.205 101.272C966.525 100.776 967.021 100.352 967.693 100C968.381 99.648 969.261 99.36 970.333 99.136C971.405 98.912 972.693 98.736 974.197 98.608C974.181 98.208 974.117 97.832 974.005 97.48C973.893 97.128 973.717 96.824 973.477 96.568C973.237 96.296 972.917 96.08 972.517 95.92C972.133 95.76 971.661 95.68 971.101 95.68C970.333 95.68 969.597 95.832 968.893 96.136C968.189 96.424 967.565 96.736 967.021 97.072L966.253 95.728C966.541 95.536 966.877 95.344 967.261 95.152C967.661 94.944 968.077 94.76 968.509 94.6C968.957 94.44 969.429 94.312 969.925 94.216C970.421 94.104 970.925 94.048 971.437 94.048C973.037 94.048 974.221 94.488 974.989 95.368C975.773 96.232 976.165 97.392 976.165 98.848V106H974.557L974.389 104.416H974.317C973.661 104.928 972.933 105.368 972.133 105.736C971.349 106.104 970.541 106.288 969.709 106.288C969.165 106.288 968.653 106.208 968.173 106.048C967.693 105.904 967.269 105.696 966.901 105.424C966.549 105.136 966.269 104.792 966.061 104.392C965.853 103.976 965.749 103.504 965.749 102.976ZM967.669 102.832C967.669 103.168 967.741 103.456 967.885 103.696C968.029 103.92 968.213 104.112 968.437 104.272C968.677 104.416 968.949 104.528 969.253 104.608C969.573 104.672 969.901 104.704 970.237 104.704C970.909 104.704 971.565 104.56 972.205 104.272C972.861 103.968 973.525 103.536 974.197 102.976V99.904C972.949 100 971.901 100.136 971.053 100.312C970.221 100.488 969.549 100.704 969.037 100.96C968.541 101.2 968.189 101.48 967.981 101.8C967.773 102.104 967.669 102.448 967.669 102.832ZM981.699 94.336H983.331L983.499 97.096H983.571C984.179 96.152 984.923 95.408 985.803 94.864C986.699 94.32 987.691 94.048 988.779 94.048C989.211 94.048 989.611 94.088 989.979 94.168C990.347 94.232 990.715 94.352 991.083 94.528L990.627 96.232C990.211 96.088 989.859 95.984 989.571 95.92C989.299 95.856 988.931 95.824 988.467 95.824C987.587 95.824 986.739 96.08 985.923 96.592C985.123 97.088 984.371 97.944 983.667 99.16V106H981.699V94.336ZM994.242 100.192C994.242 99.232 994.41 98.376 994.746 97.624C995.082 96.856 995.522 96.208 996.066 95.68C996.626 95.152 997.258 94.752 997.962 94.48C998.682 94.192 999.418 94.048 1000.17 94.048C1001 94.048 1001.75 94.184 1002.4 94.456C1003.06 94.712 1003.61 95.08 1004.06 95.56C1004.52 96.04 1004.87 96.616 1005.11 97.288C1005.35 97.96 1005.47 98.704 1005.47 99.52C1005.47 99.728 1005.47 99.936 1005.45 100.144C1005.45 100.336 1005.43 100.504 1005.4 100.648H996.282C996.298 101.272 996.418 101.832 996.642 102.328C996.882 102.824 997.194 103.248 997.578 103.6C997.978 103.952 998.442 104.224 998.97 104.416C999.514 104.608 1000.11 104.704 1000.75 104.704C1001.43 104.704 1002.06 104.608 1002.62 104.416C1003.19 104.224 1003.75 103.96 1004.3 103.624L1004.99 104.92C1004.42 105.288 1003.76 105.608 1003.03 105.88C1002.29 106.152 1001.45 106.288 1000.51 106.288C999.642 106.288 998.826 106.152 998.058 105.88C997.306 105.592 996.642 105.192 996.066 104.68C995.506 104.152 995.058 103.512 994.722 102.76C994.402 102.008 994.242 101.152 994.242 100.192ZM1003.65 99.232C1003.65 98.064 1003.35 97.168 1002.74 96.544C1002.13 95.92 1001.28 95.608 1000.19 95.608C999.714 95.608 999.25 95.688 998.802 95.848C998.37 96.008 997.978 96.248 997.626 96.568C997.274 96.872 996.978 97.248 996.738 97.696C996.498 98.144 996.338 98.656 996.258 99.232H1003.65ZM1034.04 104.368V106H1023.72V104.368H1028.06V93.088H1024.8V91.816C1025.62 91.688 1026.33 91.536 1026.94 91.36C1027.54 91.168 1028.09 90.944 1028.57 90.688H1030.03V104.368H1034.04ZM1041.18 106C1041.25 104.544 1041.38 103.224 1041.59 102.04C1041.8 100.84 1042.1 99.704 1042.5 98.632C1042.9 97.56 1043.41 96.52 1044.01 95.512C1044.64 94.504 1045.39 93.464 1046.27 92.392H1037.44V90.688H1048.53V91.912C1047.52 93.064 1046.69 94.168 1046.03 95.224C1045.37 96.28 1044.85 97.36 1044.45 98.464C1044.05 99.552 1043.76 100.704 1043.58 101.92C1043.41 103.136 1043.29 104.496 1043.25 106H1041.18ZM1052.52 102.832C1053.04 103.312 1053.64 103.736 1054.35 104.104C1055.07 104.472 1055.92 104.656 1056.92 104.656C1057.44 104.656 1057.93 104.592 1058.38 104.464C1058.83 104.32 1059.21 104.128 1059.53 103.888C1059.87 103.648 1060.12 103.36 1060.3 103.024C1060.49 102.672 1060.59 102.28 1060.59 101.848C1060.59 101.4 1060.48 100.992 1060.28 100.624C1060.08 100.24 1059.76 99.912 1059.32 99.64C1058.87 99.368 1058.29 99.16 1057.59 99.016C1056.88 98.872 1056.03 98.8 1055.02 98.8V97.288C1055.93 97.288 1056.7 97.216 1057.32 97.072C1057.96 96.928 1058.48 96.728 1058.88 96.472C1059.28 96.216 1059.57 95.912 1059.75 95.56C1059.94 95.208 1060.04 94.832 1060.04 94.432C1060.04 93.68 1059.75 93.088 1059.17 92.656C1058.61 92.224 1057.86 92.008 1056.92 92.008C1056.2 92.008 1055.52 92.152 1054.88 92.44C1054.24 92.728 1053.66 93.104 1053.15 93.568L1052.09 92.32C1052.73 91.76 1053.46 91.304 1054.28 90.952C1055.09 90.584 1056 90.4 1056.99 90.4C1057.71 90.4 1058.37 90.488 1058.98 90.664C1059.6 90.84 1060.14 91.096 1060.59 91.432C1061.05 91.752 1061.41 92.152 1061.67 92.632C1061.92 93.112 1062.05 93.664 1062.05 94.288C1062.05 95.216 1061.75 95.976 1061.14 96.568C1060.53 97.16 1059.75 97.616 1058.79 97.936V98.032C1059.3 98.144 1059.78 98.312 1060.23 98.536C1060.69 98.744 1061.1 99.016 1061.45 99.352C1061.8 99.672 1062.08 100.048 1062.27 100.48C1062.48 100.912 1062.58 101.392 1062.58 101.92C1062.58 102.592 1062.44 103.2 1062.15 103.744C1061.86 104.288 1061.46 104.752 1060.95 105.136C1060.45 105.504 1059.87 105.792 1059.2 106C1058.52 106.192 1057.8 106.288 1057.04 106.288C1055.71 106.288 1054.6 106.072 1053.7 105.64C1052.8 105.192 1052.08 104.688 1051.52 104.128L1052.52 102.832ZM893.796 132.976C893.796 132.32 893.948 131.752 894.252 131.272C894.572 130.776 895.068 130.352 895.74 130C896.428 129.648 897.308 129.36 898.38 129.136C899.452 128.912 900.74 128.736 902.244 128.608C902.228 128.208 902.164 127.832 902.052 127.48C901.94 127.128 901.764 126.824 901.524 126.568C901.284 126.296 900.964 126.08 900.564 125.92C900.18 125.76 899.708 125.68 899.148 125.68C898.38 125.68 897.644 125.832 896.94 126.136C896.236 126.424 895.612 126.736 895.068 127.072L894.3 125.728C894.588 125.536 894.924 125.344 895.308 125.152C895.708 124.944 896.124 124.76 896.556 124.6C897.004 124.44 897.476 124.312 897.972 124.216C898.468 124.104 898.972 124.048 899.484 124.048C901.084 124.048 902.268 124.488 903.036 125.368C903.82 126.232 904.212 127.392 904.212 128.848V136H902.604L902.436 134.416H902.364C901.708 134.928 900.98 135.368 900.18 135.736C899.396 136.104 898.588 136.288 897.756 136.288C897.212 136.288 896.7 136.208 896.22 136.048C895.74 135.904 895.316 135.696 894.948 135.424C894.596 135.136 894.316 134.792 894.108 134.392C893.9 133.976 893.796 133.504 893.796 132.976ZM895.716 132.832C895.716 133.168 895.788 133.456 895.932 133.696C896.076 133.92 896.26 134.112 896.484 134.272C896.724 134.416 896.996 134.528 897.3 134.608C897.62 134.672 897.948 134.704 898.284 134.704C898.956 134.704 899.612 134.56 900.252 134.272C900.908 133.968 901.572 133.536 902.244 132.976V129.904C900.996 130 899.948 130.136 899.1 130.312C898.268 130.488 897.596 130.704 897.084 130.96C896.588 131.2 896.236 131.48 896.028 131.8C895.82 132.104 895.716 132.448 895.716 132.832ZM909.746 124.336H911.378L911.546 127.096H911.618C912.226 126.152 912.97 125.408 913.85 124.864C914.746 124.32 915.738 124.048 916.826 124.048C917.258 124.048 917.658 124.088 918.026 124.168C918.394 124.232 918.762 124.352 919.13 124.528L918.674 126.232C918.258 126.088 917.906 125.984 917.618 125.92C917.346 125.856 916.978 125.824 916.514 125.824C915.634 125.824 914.786 126.08 913.97 126.592C913.17 127.088 912.418 127.944 911.714 129.16V136H909.746V124.336ZM925.577 125.944H922.289V124.456L925.649 124.336L925.913 121.072H927.545V124.336H933.281V125.944H927.545V131.488C927.545 132.016 927.593 132.48 927.689 132.88C927.785 133.264 927.945 133.592 928.169 133.864C928.393 134.136 928.697 134.344 929.081 134.488C929.465 134.616 929.937 134.68 930.497 134.68C931.057 134.68 931.561 134.632 932.009 134.536C932.457 134.44 932.889 134.312 933.305 134.152L933.737 135.592C933.209 135.784 932.625 135.944 931.985 136.072C931.345 136.216 930.705 136.288 930.065 136.288C929.217 136.288 928.505 136.176 927.929 135.952C927.353 135.712 926.889 135.384 926.537 134.968C926.201 134.536 925.953 134.024 925.793 133.432C925.649 132.84 925.577 132.184 925.577 131.464V125.944ZM935.215 124.336H937.231L938.647 131.08C938.759 131.64 938.863 132.184 938.959 132.712C939.055 133.24 939.143 133.776 939.223 134.32H939.319C939.431 133.776 939.543 133.24 939.655 132.712C939.767 132.168 939.887 131.624 940.015 131.08L941.431 125.032H943.111L944.551 131.08C944.679 131.64 944.799 132.184 944.911 132.712C945.023 133.24 945.143 133.776 945.271 134.32H945.367C945.479 133.776 945.575 133.24 945.655 132.712C945.751 132.184 945.847 131.64 945.943 131.08L947.359 124.336H949.231L946.687 136H944.311L942.919 130.096C942.807 129.536 942.703 128.984 942.607 128.44C942.511 127.88 942.399 127.304 942.271 126.712H942.175C942.079 127.224 941.983 127.752 941.887 128.296C941.791 128.84 941.671 129.448 941.527 130.12L940.183 136H937.831L935.215 124.336ZM950.854 130.192C950.854 129.216 951.006 128.352 951.31 127.6C951.63 126.832 952.054 126.184 952.582 125.656C953.11 125.128 953.718 124.728 954.406 124.456C955.11 124.184 955.846 124.048 956.614 124.048C957.382 124.048 958.11 124.184 958.798 124.456C959.502 124.728 960.118 125.128 960.646 125.656C961.174 126.184 961.59 126.832 961.894 127.6C962.214 128.352 962.374 129.216 962.374 130.192C962.374 131.152 962.214 132.016 961.894 132.784C961.59 133.536 961.174 134.176 960.646 134.704C960.118 135.216 959.502 135.608 958.798 135.88C958.11 136.152 957.382 136.288 956.614 136.288C955.846 136.288 955.11 136.152 954.406 135.88C953.718 135.608 953.11 135.216 952.582 134.704C952.054 134.176 951.63 133.536 951.31 132.784C951.006 132.016 950.854 131.152 950.854 130.192ZM952.894 130.192C952.894 130.864 952.982 131.472 953.158 132.016C953.334 132.56 953.582 133.032 953.902 133.432C954.238 133.816 954.63 134.12 955.078 134.344C955.542 134.552 956.054 134.656 956.614 134.656C957.174 134.656 957.678 134.552 958.126 134.344C958.59 134.12 958.982 133.816 959.302 133.432C959.638 133.032 959.894 132.56 960.07 132.016C960.246 131.472 960.334 130.864 960.334 130.192C960.334 129.52 960.246 128.912 960.07 128.368C959.894 127.808 959.638 127.328 959.302 126.928C958.982 126.528 958.59 126.224 958.126 126.016C957.678 125.792 957.174 125.68 956.614 125.68C956.054 125.68 955.542 125.792 955.078 126.016C954.63 126.224 954.238 126.528 953.902 126.928C953.582 127.328 953.334 127.808 953.158 128.368C952.982 128.912 952.894 129.52 952.894 130.192ZM967.309 124.336H968.941L969.109 127.096H969.181C969.789 126.152 970.533 125.408 971.413 124.864C972.309 124.32 973.301 124.048 974.389 124.048C974.821 124.048 975.221 124.088 975.589 124.168C975.957 124.232 976.325 124.352 976.693 124.528L976.237 126.232C975.821 126.088 975.469 125.984 975.181 125.92C974.909 125.856 974.541 125.824 974.077 125.824C973.197 125.824 972.349 126.08 971.533 126.592C970.733 127.088 969.981 127.944 969.277 129.16V136H967.309V124.336ZM980.739 118.912H982.707V130.48H982.803L989.091 124.336H991.347L986.691 128.968L991.971 136H989.763L985.467 130.168L982.707 132.832V136H980.739V118.912ZM995.274 133.168C995.93 133.648 996.634 134.032 997.386 134.32C998.138 134.608 999.042 134.752 1000.1 134.752C1001.15 134.752 1001.94 134.576 1002.45 134.224C1002.96 133.872 1003.22 133.44 1003.22 132.928C1003.22 132.48 1002.94 132.08 1002.38 131.728C1001.83 131.376 1000.85 131.024 999.426 130.672C998.818 130.528 998.242 130.352 997.698 130.144C997.17 129.936 996.706 129.696 996.306 129.424C995.906 129.136 995.586 128.824 995.346 128.488C995.106 128.152 994.986 127.776 994.986 127.36C994.986 126.896 995.09 126.464 995.298 126.064C995.506 125.648 995.81 125.296 996.21 125.008C996.626 124.704 997.138 124.472 997.746 124.312C998.37 124.136 999.082 124.048 999.882 124.048C1000.76 124.048 1001.62 124.2 1002.45 124.504C1003.28 124.792 1003.99 125.136 1004.56 125.536L1003.6 126.808C1003.09 126.44 1002.52 126.144 1001.9 125.92C1001.27 125.696 1000.6 125.584 999.882 125.584C999.338 125.584 998.882 125.632 998.514 125.728C998.146 125.808 997.85 125.928 997.626 126.088C997.402 126.232 997.242 126.408 997.146 126.616C997.05 126.824 997.002 127.04 997.002 127.264C997.002 127.744 997.33 128.144 997.986 128.464C998.642 128.768 999.498 129.056 1000.55 129.328C1002.14 129.728 1003.31 130.184 1004.06 130.696C1004.83 131.208 1005.21 131.912 1005.21 132.808C1005.21 133.288 1005.1 133.736 1004.87 134.152C1004.65 134.568 1004.31 134.936 1003.87 135.256C1003.43 135.576 1002.89 135.824 1002.23 136C1001.59 136.192 1000.86 136.288 1000.03 136.288C998.874 136.288 997.81 136.112 996.834 135.76C995.874 135.392 995.034 134.96 994.314 134.464L995.274 133.168ZM1023.6 118.912H1025.57V123.568L1025.52 125.824C1026.08 125.28 1026.7 124.848 1027.39 124.528C1028.1 124.208 1028.79 124.048 1029.48 124.048C1030.26 124.048 1030.96 124.192 1031.57 124.48C1032.18 124.752 1032.68 125.152 1033.08 125.68C1033.5 126.192 1033.81 126.816 1034.02 127.552C1034.22 128.272 1034.33 129.08 1034.33 129.976C1034.33 130.968 1034.18 131.856 1033.9 132.64C1033.61 133.424 1033.22 134.088 1032.72 134.632C1032.24 135.176 1031.68 135.592 1031.04 135.88C1030.4 136.152 1029.74 136.288 1029.05 136.288C1028.49 136.288 1027.88 136.152 1027.22 135.88C1026.58 135.592 1025.98 135.2 1025.42 134.704H1025.35L1025.18 136H1023.6V118.912ZM1025.57 133.264C1026.13 133.76 1026.69 134.112 1027.25 134.32C1027.82 134.528 1028.32 134.632 1028.74 134.632C1029.25 134.632 1029.72 134.528 1030.15 134.32C1030.58 134.096 1030.96 133.792 1031.28 133.408C1031.6 133.008 1031.85 132.52 1032.02 131.944C1032.2 131.368 1032.29 130.72 1032.29 130C1032.29 129.36 1032.22 128.776 1032.1 128.248C1031.97 127.72 1031.77 127.272 1031.5 126.904C1031.24 126.52 1030.9 126.224 1030.49 126.016C1030.07 125.808 1029.58 125.704 1029 125.704C1028.49 125.704 1027.94 125.848 1027.34 126.136C1026.77 126.408 1026.18 126.848 1025.57 127.456V133.264ZM1037.77 139.216C1037.93 139.264 1038.1 139.304 1038.28 139.336C1038.47 139.368 1038.65 139.384 1038.83 139.384C1039.65 139.384 1040.31 139.144 1040.82 138.664C1041.33 138.2 1041.73 137.608 1042.02 136.888L1042.38 136.024L1036.93 124.336H1038.93L1041.78 130.792C1042.01 131.304 1042.24 131.856 1042.48 132.448C1042.73 133.04 1042.98 133.616 1043.22 134.176H1043.32C1043.53 133.616 1043.73 133.048 1043.94 132.472C1044.17 131.88 1044.37 131.32 1044.57 130.792L1047.11 124.336H1048.98L1043.85 136.96C1043.62 137.536 1043.37 138.072 1043.08 138.568C1042.79 139.064 1042.45 139.488 1042.05 139.84C1041.65 140.208 1041.18 140.496 1040.65 140.704C1040.14 140.912 1039.56 141.016 1038.9 141.016C1038.33 141.016 1037.81 140.936 1037.37 140.776L1037.77 139.216ZM865.014 150.256H867.222L869.454 156.952L870.246 159.496H870.342L871.11 156.952L873.318 150.256H875.526V166H873.822V157.144C873.822 156.824 873.83 156.448 873.846 156.016C873.862 155.584 873.878 155.152 873.894 154.72C873.926 154.272 873.95 153.84 873.966 153.424C873.998 152.992 874.03 152.616 874.062 152.296H873.99L872.958 155.656L870.798 161.728H869.718L867.558 155.656L866.502 152.296H866.43C866.446 152.616 866.47 152.992 866.502 153.424C866.534 153.84 866.566 154.272 866.598 154.72C866.63 155.152 866.654 155.584 866.67 156.016C866.686 156.448 866.694 156.824 866.694 157.144V166H865.014V150.256ZM879.405 162.976C879.405 162.32 879.557 161.752 879.861 161.272C880.181 160.776 880.677 160.352 881.349 160C882.037 159.648 882.917 159.36 883.989 159.136C885.061 158.912 886.349 158.736 887.853 158.608C887.837 158.208 887.773 157.832 887.661 157.48C887.549 157.128 887.373 156.824 887.133 156.568C886.893 156.296 886.573 156.08 886.173 155.92C885.789 155.76 885.317 155.68 884.757 155.68C883.989 155.68 883.253 155.832 882.549 156.136C881.845 156.424 881.221 156.736 880.677 157.072L879.909 155.728C880.197 155.536 880.533 155.344 880.917 155.152C881.317 154.944 881.733 154.76 882.165 154.6C882.613 154.44 883.085 154.312 883.581 154.216C884.077 154.104 884.581 154.048 885.093 154.048C886.693 154.048 887.877 154.488 888.645 155.368C889.429 156.232 889.821 157.392 889.821 158.848V166H888.213L888.045 164.416H887.973C887.317 164.928 886.589 165.368 885.789 165.736C885.005 166.104 884.197 166.288 883.365 166.288C882.821 166.288 882.309 166.208 881.829 166.048C881.349 165.904 880.925 165.696 880.557 165.424C880.205 165.136 879.925 164.792 879.717 164.392C879.509 163.976 879.405 163.504 879.405 162.976ZM881.325 162.832C881.325 163.168 881.397 163.456 881.541 163.696C881.685 163.92 881.869 164.112 882.093 164.272C882.333 164.416 882.605 164.528 882.909 164.608C883.229 164.672 883.557 164.704 883.893 164.704C884.565 164.704 885.221 164.56 885.861 164.272C886.517 163.968 887.181 163.536 887.853 162.976V159.904C886.605 160 885.557 160.136 884.709 160.312C883.877 160.488 883.205 160.704 882.693 160.96C882.197 161.2 881.845 161.48 881.637 161.8C881.429 162.104 881.325 162.448 881.325 162.832ZM895.356 154.336H896.988L897.156 157.096H897.228C897.836 156.152 898.58 155.408 899.46 154.864C900.356 154.32 901.348 154.048 902.436 154.048C902.868 154.048 903.268 154.088 903.636 154.168C904.004 154.232 904.372 154.352 904.74 154.528L904.284 156.232C903.868 156.088 903.516 155.984 903.228 155.92C902.956 155.856 902.588 155.824 902.124 155.824C901.244 155.824 900.396 156.08 899.58 156.592C898.78 157.088 898.028 157.944 897.324 159.16V166H895.356V154.336ZM908.162 160.192C908.162 159.216 908.33 158.352 908.666 157.6C909.018 156.832 909.49 156.184 910.082 155.656C910.674 155.128 911.362 154.728 912.146 154.456C912.946 154.184 913.786 154.048 914.666 154.048C915.626 154.048 916.45 154.216 917.138 154.552C917.842 154.888 918.434 155.288 918.914 155.752L917.93 157.024C917.45 156.608 916.946 156.28 916.418 156.04C915.906 155.8 915.346 155.68 914.738 155.68C914.066 155.68 913.45 155.792 912.89 156.016C912.33 156.224 911.85 156.528 911.45 156.928C911.066 157.328 910.762 157.808 910.538 158.368C910.314 158.912 910.202 159.52 910.202 160.192C910.202 160.864 910.306 161.472 910.514 162.016C910.738 162.56 911.042 163.032 911.426 163.432C911.826 163.816 912.298 164.12 912.842 164.344C913.402 164.552 914.018 164.656 914.69 164.656C915.41 164.656 916.066 164.52 916.658 164.248C917.266 163.96 917.818 163.608 918.314 163.192L919.178 164.464C918.538 165.04 917.818 165.488 917.018 165.808C916.234 166.128 915.41 166.288 914.546 166.288C913.634 166.288 912.786 166.152 912.002 165.88C911.234 165.608 910.562 165.216 909.986 164.704C909.41 164.176 908.962 163.536 908.642 162.784C908.322 162.016 908.162 161.152 908.162 160.192ZM936.607 158.128C936.607 156.864 936.775 155.728 937.111 154.72C937.463 153.712 937.951 152.856 938.575 152.152C939.199 151.448 939.943 150.912 940.807 150.544C941.671 150.16 942.615 149.968 943.639 149.968C944.599 149.968 945.439 150.16 946.159 150.544C946.879 150.928 947.471 151.376 947.935 151.888L946.807 153.16C946.391 152.728 945.927 152.384 945.415 152.128C944.903 151.856 944.311 151.72 943.639 151.72C942.887 151.72 942.199 151.872 941.575 152.176C940.967 152.464 940.447 152.888 940.015 153.448C939.583 153.992 939.247 154.656 939.007 155.44C938.783 156.224 938.671 157.104 938.671 158.08C938.671 159.072 938.783 159.968 939.007 160.768C939.247 161.552 939.583 162.224 940.015 162.784C940.447 163.344 940.967 163.776 941.575 164.08C942.199 164.384 942.887 164.536 943.639 164.536C944.359 164.536 944.999 164.384 945.559 164.08C946.119 163.776 946.655 163.344 947.167 162.784L948.319 164.008C947.695 164.728 946.991 165.288 946.207 165.688C945.423 166.088 944.527 166.288 943.519 166.288C942.527 166.288 941.607 166.104 940.759 165.736C939.927 165.368 939.199 164.84 938.575 164.152C937.967 163.448 937.487 162.592 937.135 161.584C936.783 160.56 936.607 159.408 936.607 158.128ZM951.646 148.912H953.614V153.568L953.518 156.328C954.142 155.672 954.806 155.128 955.51 154.696C956.214 154.264 957.022 154.048 957.934 154.048C959.326 154.048 960.342 154.448 960.982 155.248C961.638 156.032 961.966 157.2 961.966 158.752V166H959.998V159.016C959.998 157.912 959.79 157.096 959.374 156.568C958.958 156.024 958.27 155.752 957.31 155.752C956.958 155.752 956.63 155.8 956.326 155.896C956.038 155.976 955.75 156.104 955.462 156.28C955.174 156.456 954.878 156.68 954.574 156.952C954.27 157.208 953.95 157.512 953.614 157.864V166H951.646V148.912ZM965.749 162.976C965.749 162.32 965.901 161.752 966.205 161.272C966.525 160.776 967.021 160.352 967.693 160C968.381 159.648 969.261 159.36 970.333 159.136C971.405 158.912 972.693 158.736 974.197 158.608C974.181 158.208 974.117 157.832 974.005 157.48C973.893 157.128 973.717 156.824 973.477 156.568C973.237 156.296 972.917 156.08 972.517 155.92C972.133 155.76 971.661 155.68 971.101 155.68C970.333 155.68 969.597 155.832 968.893 156.136C968.189 156.424 967.565 156.736 967.021 157.072L966.253 155.728C966.541 155.536 966.877 155.344 967.261 155.152C967.661 154.944 968.077 154.76 968.509 154.6C968.957 154.44 969.429 154.312 969.925 154.216C970.421 154.104 970.925 154.048 971.437 154.048C973.037 154.048 974.221 154.488 974.989 155.368C975.773 156.232 976.165 157.392 976.165 158.848V166H974.557L974.389 164.416H974.317C973.661 164.928 972.933 165.368 972.133 165.736C971.349 166.104 970.541 166.288 969.709 166.288C969.165 166.288 968.653 166.208 968.173 166.048C967.693 165.904 967.269 165.696 966.901 165.424C966.549 165.136 966.269 164.792 966.061 164.392C965.853 163.976 965.749 163.504 965.749 162.976ZM967.669 162.832C967.669 163.168 967.741 163.456 967.885 163.696C968.029 163.92 968.213 164.112 968.437 164.272C968.677 164.416 968.949 164.528 969.253 164.608C969.573 164.672 969.901 164.704 970.237 164.704C970.909 164.704 971.565 164.56 972.205 164.272C972.861 163.968 973.525 163.536 974.197 162.976V159.904C972.949 160 971.901 160.136 971.053 160.312C970.221 160.488 969.549 160.704 969.037 160.96C968.541 161.2 968.189 161.48 967.981 161.8C967.773 162.104 967.669 162.448 967.669 162.832ZM981.627 167.944C981.627 168.552 981.947 169.048 982.587 169.432C983.243 169.816 984.195 170.008 985.443 170.008C986.115 170.008 986.723 169.936 987.267 169.792C987.811 169.664 988.275 169.488 988.659 169.264C989.043 169.04 989.331 168.784 989.523 168.496C989.731 168.208 989.835 167.912 989.835 167.608C989.835 167.048 989.611 166.672 989.163 166.48C988.731 166.288 988.067 166.192 987.171 166.192H984.891C984.555 166.192 984.235 166.176 983.931 166.144C983.643 166.128 983.371 166.08 983.115 166C982.555 166.304 982.163 166.616 981.939 166.936C981.731 167.272 981.627 167.608 981.627 167.944ZM979.923 168.136C979.923 167.672 980.083 167.216 980.403 166.768C980.739 166.32 981.219 165.912 981.843 165.544V165.448C981.523 165.272 981.243 165.032 981.003 164.728C980.763 164.424 980.643 164.024 980.643 163.528C980.643 163.16 980.763 162.784 981.003 162.4C981.243 162 981.587 161.648 982.035 161.344V161.248C981.635 160.944 981.291 160.544 981.003 160.048C980.731 159.536 980.595 158.928 980.595 158.224C980.595 157.584 980.715 157.008 980.955 156.496C981.211 155.984 981.547 155.552 981.963 155.2C982.379 154.832 982.859 154.552 983.403 154.36C983.963 154.152 984.555 154.048 985.179 154.048C985.819 154.048 986.395 154.144 986.907 154.336H991.731V155.848H988.611C988.883 156.136 989.131 156.488 989.355 156.904C989.579 157.32 989.691 157.784 989.691 158.296C989.691 158.92 989.571 159.48 989.331 159.976C989.107 160.472 988.787 160.896 988.371 161.248C987.971 161.584 987.491 161.848 986.931 162.04C986.387 162.216 985.803 162.304 985.179 162.304C984.875 162.304 984.547 162.272 984.195 162.208C983.859 162.128 983.531 162.016 983.211 161.872C982.603 162.256 982.299 162.704 982.299 163.216C982.299 163.68 982.507 164.024 982.923 164.248C983.355 164.456 983.955 164.56 984.723 164.56H987.339C988.843 164.56 989.955 164.768 990.675 165.184C991.411 165.6 991.779 166.304 991.779 167.296C991.779 167.84 991.627 168.36 991.323 168.856C991.019 169.352 990.587 169.784 990.027 170.152C989.467 170.52 988.787 170.816 987.987 171.04C987.187 171.264 986.291 171.376 985.299 171.376C983.587 171.376 982.259 171.096 981.315 170.536C980.387 169.976 979.923 169.176 979.923 168.136ZM985.179 160.984C985.931 160.984 986.563 160.736 987.075 160.24C987.603 159.744 987.867 159.072 987.867 158.224C987.867 157.824 987.795 157.456 987.651 157.12C987.507 156.784 987.315 156.496 987.075 156.256C986.835 156.016 986.547 155.832 986.211 155.704C985.891 155.56 985.547 155.488 985.179 155.488C984.811 155.488 984.459 155.56 984.123 155.704C983.803 155.832 983.523 156.016 983.283 156.256C983.043 156.496 982.851 156.784 982.707 157.12C982.563 157.456 982.491 157.824 982.491 158.224C982.491 159.072 982.755 159.744 983.283 160.24C983.811 160.736 984.443 160.984 985.179 160.984ZM994.53 162.976C994.53 162.32 994.682 161.752 994.986 161.272C995.306 160.776 995.802 160.352 996.474 160C997.162 159.648 998.042 159.36 999.114 159.136C1000.19 158.912 1001.47 158.736 1002.98 158.608C1002.96 158.208 1002.9 157.832 1002.79 157.48C1002.67 157.128 1002.5 156.824 1002.26 156.568C1002.02 156.296 1001.7 156.08 1001.3 155.92C1000.91 155.76 1000.44 155.68 999.882 155.68C999.114 155.68 998.378 155.832 997.674 156.136C996.97 156.424 996.346 156.736 995.802 157.072L995.034 155.728C995.322 155.536 995.658 155.344 996.042 155.152C996.442 154.944 996.858 154.76 997.29 154.6C997.738 154.44 998.21 154.312 998.706 154.216C999.202 154.104 999.706 154.048 1000.22 154.048C1001.82 154.048 1003 154.488 1003.77 155.368C1004.55 156.232 1004.95 157.392 1004.95 158.848V166H1003.34L1003.17 164.416H1003.1C1002.44 164.928 1001.71 165.368 1000.91 165.736C1000.13 166.104 999.322 166.288 998.49 166.288C997.946 166.288 997.434 166.208 996.954 166.048C996.474 165.904 996.05 165.696 995.682 165.424C995.33 165.136 995.05 164.792 994.842 164.392C994.634 163.976 994.53 163.504 994.53 162.976ZM996.45 162.832C996.45 163.168 996.522 163.456 996.666 163.696C996.81 163.92 996.994 164.112 997.218 164.272C997.458 164.416 997.73 164.528 998.034 164.608C998.354 164.672 998.682 164.704 999.018 164.704C999.69 164.704 1000.35 164.56 1000.99 164.272C1001.64 163.968 1002.31 163.536 1002.98 162.976V159.904C1001.73 160 1000.68 160.136 999.834 160.312C999.002 160.488 998.33 160.704 997.818 160.96C997.322 161.2 996.97 161.48 996.762 161.8C996.554 162.104 996.45 162.448 996.45 162.832ZM1008.92 148.912H1014.87V162.232C1014.87 163.096 1015.07 163.72 1015.47 164.104C1015.89 164.472 1016.45 164.656 1017.15 164.656C1017.79 164.656 1018.53 164.472 1019.36 164.104L1019.86 165.592C1019.34 165.784 1018.84 165.944 1018.38 166.072C1017.91 166.216 1017.36 166.288 1016.72 166.288C1015.47 166.288 1014.52 165.936 1013.86 165.232C1013.22 164.528 1012.9 163.48 1012.9 162.088V150.52H1008.92V148.912ZM1023.31 148.912H1029.26V162.232C1029.26 163.096 1029.46 163.72 1029.86 164.104C1030.28 164.472 1030.84 164.656 1031.54 164.656C1032.18 164.656 1032.92 164.472 1033.75 164.104L1034.26 165.592C1033.73 165.784 1033.23 165.944 1032.77 166.072C1032.3 166.216 1031.75 166.288 1031.11 166.288C1029.86 166.288 1028.91 165.936 1028.26 165.232C1027.62 164.528 1027.3 163.48 1027.3 162.088V150.52H1023.31V148.912ZM1052.31 154.336H1059.7V166H1057.73V155.944H1052.31V154.336ZM1058.5 151.936C1058.04 151.936 1057.65 151.8 1057.35 151.528C1057.06 151.256 1056.92 150.888 1056.92 150.424C1056.92 149.96 1057.06 149.592 1057.35 149.32C1057.65 149.032 1058.04 148.888 1058.5 148.888C1058.95 148.888 1059.32 149.032 1059.63 149.32C1059.93 149.592 1060.08 149.96 1060.08 150.424C1060.08 150.888 1059.93 151.256 1059.63 151.528C1059.32 151.8 1058.95 151.936 1058.5 151.936ZM1066.77 154.336H1068.4L1068.57 156.328H1068.67C1069.28 155.672 1069.93 155.128 1070.64 154.696C1071.34 154.264 1072.15 154.048 1073.06 154.048C1074.45 154.048 1075.47 154.448 1076.11 155.248C1076.76 156.032 1077.09 157.2 1077.09 158.752V166H1075.12V159.016C1075.12 157.912 1074.92 157.096 1074.5 156.568C1074.08 156.024 1073.4 155.752 1072.44 155.752C1072.08 155.752 1071.76 155.8 1071.45 155.896C1071.16 155.976 1070.88 156.104 1070.59 156.28C1070.3 156.456 1070 156.68 1069.7 156.952C1069.4 157.208 1069.08 157.512 1068.74 157.864V166H1066.77V154.336ZM889.6 185.944H886.312V184.456L889.672 184.336L889.936 181.072H891.568V184.336H897.304V185.944H891.568V191.488C891.568 192.016 891.616 192.48 891.712 192.88C891.808 193.264 891.968 193.592 892.192 193.864C892.416 194.136 892.72 194.344 893.104 194.488C893.488 194.616 893.96 194.68 894.52 194.68C895.08 194.68 895.584 194.632 896.032 194.536C896.48 194.44 896.912 194.312 897.328 194.152L897.76 195.592C897.232 195.784 896.648 195.944 896.008 196.072C895.368 196.216 894.728 196.288 894.088 196.288C893.24 196.288 892.528 196.176 891.952 195.952C891.376 195.712 890.912 195.384 890.56 194.968C890.224 194.536 889.976 194.024 889.816 193.432C889.672 192.84 889.6 192.184 889.6 191.464V185.944ZM901.279 178.912H903.247V183.568L903.151 186.328C903.775 185.672 904.439 185.128 905.143 184.696C905.847 184.264 906.655 184.048 907.567 184.048C908.959 184.048 909.975 184.448 910.615 185.248C911.271 186.032 911.599 187.2 911.599 188.752V196H909.631V189.016C909.631 187.912 909.423 187.096 909.007 186.568C908.591 186.024 907.903 185.752 906.943 185.752C906.591 185.752 906.263 185.8 905.959 185.896C905.671 185.976 905.383 186.104 905.095 186.28C904.807 186.456 904.511 186.68 904.207 186.952C903.903 187.208 903.583 187.512 903.247 187.864V196H901.279V178.912ZM915.094 190.192C915.094 189.232 915.262 188.376 915.598 187.624C915.934 186.856 916.374 186.208 916.918 185.68C917.478 185.152 918.11 184.752 918.814 184.48C919.534 184.192 920.27 184.048 921.022 184.048C921.854 184.048 922.598 184.184 923.254 184.456C923.91 184.712 924.462 185.08 924.91 185.56C925.374 186.04 925.726 186.616 925.966 187.288C926.206 187.96 926.326 188.704 926.326 189.52C926.326 189.728 926.318 189.936 926.302 190.144C926.302 190.336 926.286 190.504 926.254 190.648H917.134C917.15 191.272 917.27 191.832 917.494 192.328C917.734 192.824 918.046 193.248 918.43 193.6C918.83 193.952 919.294 194.224 919.822 194.416C920.366 194.608 920.958 194.704 921.598 194.704C922.286 194.704 922.91 194.608 923.47 194.416C924.046 194.224 924.606 193.96 925.15 193.624L925.846 194.92C925.27 195.288 924.614 195.608 923.878 195.88C923.142 196.152 922.302 196.288 921.358 196.288C920.494 196.288 919.678 196.152 918.91 195.88C918.158 195.592 917.494 195.192 916.918 194.68C916.358 194.152 915.91 193.512 915.574 192.76C915.254 192.008 915.094 191.152 915.094 190.192ZM924.502 189.232C924.502 188.064 924.198 187.168 923.59 186.544C922.982 185.92 922.134 185.608 921.046 185.608C920.566 185.608 920.102 185.688 919.654 185.848C919.222 186.008 918.83 186.248 918.478 186.568C918.126 186.872 917.83 187.248 917.59 187.696C917.35 188.144 917.19 188.656 917.11 189.232H924.502ZM943.659 190.192C943.659 189.248 943.803 188.4 944.091 187.648C944.395 186.88 944.787 186.232 945.267 185.704C945.763 185.176 946.331 184.768 946.971 184.48C947.611 184.192 948.275 184.048 948.963 184.048C949.683 184.048 950.315 184.184 950.859 184.456C951.403 184.728 951.947 185.096 952.491 185.56L952.419 183.4V178.912H954.387V196H952.755L952.587 194.464H952.515C952.035 194.96 951.459 195.392 950.787 195.76C950.131 196.112 949.443 196.288 948.723 196.288C947.955 196.288 947.259 196.152 946.635 195.88C946.027 195.608 945.499 195.216 945.051 194.704C944.603 194.176 944.259 193.536 944.019 192.784C943.779 192.032 943.659 191.168 943.659 190.192ZM945.699 190.168C945.699 191.576 945.995 192.672 946.587 193.456C947.195 194.24 948.043 194.632 949.131 194.632C950.283 194.632 951.379 194.048 952.419 192.88V187.072C951.891 186.576 951.371 186.224 950.859 186.016C950.363 185.808 949.859 185.704 949.347 185.704C948.835 185.704 948.355 185.816 947.907 186.04C947.475 186.248 947.091 186.552 946.755 186.952C946.435 187.336 946.179 187.8 945.987 188.344C945.795 188.888 945.699 189.496 945.699 190.168ZM958.553 192.976C958.553 192.32 958.705 191.752 959.009 191.272C959.329 190.776 959.825 190.352 960.497 190C961.185 189.648 962.065 189.36 963.137 189.136C964.209 188.912 965.497 188.736 967.001 188.608C966.985 188.208 966.921 187.832 966.809 187.48C966.697 187.128 966.521 186.824 966.281 186.568C966.041 186.296 965.721 186.08 965.321 185.92C964.937 185.76 964.465 185.68 963.905 185.68C963.137 185.68 962.401 185.832 961.697 186.136C960.993 186.424 960.369 186.736 959.825 187.072L959.057 185.728C959.345 185.536 959.681 185.344 960.065 185.152C960.465 184.944 960.881 184.76 961.313 184.6C961.761 184.44 962.233 184.312 962.729 184.216C963.225 184.104 963.729 184.048 964.241 184.048C965.841 184.048 967.025 184.488 967.793 185.368C968.577 186.232 968.969 187.392 968.969 188.848V196H967.361L967.193 194.416H967.121C966.465 194.928 965.737 195.368 964.937 195.736C964.153 196.104 963.345 196.288 962.513 196.288C961.969 196.288 961.457 196.208 960.977 196.048C960.497 195.904 960.073 195.696 959.705 195.424C959.353 195.136 959.073 194.792 958.865 194.392C958.657 193.976 958.553 193.504 958.553 192.976ZM960.473 192.832C960.473 193.168 960.545 193.456 960.689 193.696C960.833 193.92 961.017 194.112 961.241 194.272C961.481 194.416 961.753 194.528 962.057 194.608C962.377 194.672 962.705 194.704 963.041 194.704C963.713 194.704 964.369 194.56 965.009 194.272C965.665 193.968 966.329 193.536 967.001 192.976V189.904C965.753 190 964.705 190.136 963.857 190.312C963.025 190.488 962.353 190.704 961.841 190.96C961.345 191.2 960.993 191.48 960.785 191.8C960.577 192.104 960.473 192.448 960.473 192.832ZM975.944 185.944H972.656V184.456L976.016 184.336L976.28 181.072H977.912V184.336H983.648V185.944H977.912V191.488C977.912 192.016 977.96 192.48 978.056 192.88C978.152 193.264 978.312 193.592 978.536 193.864C978.76 194.136 979.064 194.344 979.448 194.488C979.832 194.616 980.304 194.68 980.864 194.68C981.424 194.68 981.928 194.632 982.376 194.536C982.824 194.44 983.256 194.312 983.672 194.152L984.104 195.592C983.576 195.784 982.992 195.944 982.352 196.072C981.712 196.216 981.072 196.288 980.432 196.288C979.584 196.288 978.872 196.176 978.296 195.952C977.72 195.712 977.256 195.384 976.904 194.968C976.568 194.536 976.32 194.024 976.16 193.432C976.016 192.84 975.944 192.184 975.944 191.464V185.944ZM987.335 192.976C987.335 192.32 987.487 191.752 987.791 191.272C988.111 190.776 988.607 190.352 989.279 190C989.967 189.648 990.847 189.36 991.919 189.136C992.991 188.912 994.279 188.736 995.783 188.608C995.767 188.208 995.703 187.832 995.591 187.48C995.479 187.128 995.303 186.824 995.063 186.568C994.823 186.296 994.503 186.08 994.103 185.92C993.719 185.76 993.247 185.68 992.687 185.68C991.919 185.68 991.183 185.832 990.479 186.136C989.775 186.424 989.151 186.736 988.607 187.072L987.839 185.728C988.127 185.536 988.463 185.344 988.847 185.152C989.247 184.944 989.663 184.76 990.095 184.6C990.543 184.44 991.015 184.312 991.511 184.216C992.007 184.104 992.511 184.048 993.023 184.048C994.623 184.048 995.807 184.488 996.575 185.368C997.359 186.232 997.751 187.392 997.751 188.848V196H996.143L995.975 194.416H995.903C995.247 194.928 994.519 195.368 993.719 195.736C992.935 196.104 992.127 196.288 991.295 196.288C990.751 196.288 990.239 196.208 989.759 196.048C989.279 195.904 988.855 195.696 988.487 195.424C988.135 195.136 987.855 194.792 987.647 194.392C987.439 193.976 987.335 193.504 987.335 192.976ZM989.255 192.832C989.255 193.168 989.327 193.456 989.471 193.696C989.615 193.92 989.799 194.112 990.023 194.272C990.263 194.416 990.535 194.528 990.839 194.608C991.159 194.672 991.487 194.704 991.823 194.704C992.495 194.704 993.151 194.56 993.791 194.272C994.447 193.968 995.111 193.536 995.783 192.976V189.904C994.535 190 993.487 190.136 992.639 190.312C991.807 190.488 991.135 190.704 990.623 190.96C990.127 191.2 989.775 191.48 989.567 191.8C989.359 192.104 989.255 192.448 989.255 192.832ZM1016.86 193.168C1017.52 193.648 1018.22 194.032 1018.97 194.32C1019.72 194.608 1020.63 194.752 1021.68 194.752C1022.74 194.752 1023.52 194.576 1024.04 194.224C1024.55 193.872 1024.8 193.44 1024.8 192.928C1024.8 192.48 1024.52 192.08 1023.96 191.728C1023.42 191.376 1022.44 191.024 1021.01 190.672C1020.4 190.528 1019.83 190.352 1019.28 190.144C1018.76 189.936 1018.29 189.696 1017.89 189.424C1017.49 189.136 1017.17 188.824 1016.93 188.488C1016.69 188.152 1016.57 187.776 1016.57 187.36C1016.57 186.896 1016.68 186.464 1016.88 186.064C1017.09 185.648 1017.4 185.296 1017.8 185.008C1018.21 184.704 1018.72 184.472 1019.33 184.312C1019.96 184.136 1020.67 184.048 1021.47 184.048C1022.35 184.048 1023.2 184.2 1024.04 184.504C1024.87 184.792 1025.57 185.136 1026.15 185.536L1025.19 186.808C1024.68 186.44 1024.11 186.144 1023.48 185.92C1022.86 185.696 1022.19 185.584 1021.47 185.584C1020.92 185.584 1020.47 185.632 1020.1 185.728C1019.73 185.808 1019.44 185.928 1019.21 186.088C1018.99 186.232 1018.83 186.408 1018.73 186.616C1018.64 186.824 1018.59 187.04 1018.59 187.264C1018.59 187.744 1018.92 188.144 1019.57 188.464C1020.23 188.768 1021.08 189.056 1022.14 189.328C1023.72 189.728 1024.89 190.184 1025.64 190.696C1026.41 191.208 1026.8 191.912 1026.8 192.808C1026.8 193.288 1026.68 193.736 1026.46 194.152C1026.24 194.568 1025.9 194.936 1025.45 195.256C1025.02 195.576 1024.48 195.824 1023.82 196C1023.18 196.192 1022.44 196.288 1021.61 196.288C1020.46 196.288 1019.4 196.112 1018.42 195.76C1017.46 195.392 1016.62 194.96 1015.9 194.464L1016.86 193.168ZM1030.22 190.192C1030.22 189.232 1030.39 188.376 1030.72 187.624C1031.06 186.856 1031.5 186.208 1032.04 185.68C1032.6 185.152 1033.23 184.752 1033.94 184.48C1034.66 184.192 1035.39 184.048 1036.15 184.048C1036.98 184.048 1037.72 184.184 1038.38 184.456C1039.03 184.712 1039.59 185.08 1040.03 185.56C1040.5 186.04 1040.85 186.616 1041.09 187.288C1041.33 187.96 1041.45 188.704 1041.45 189.52C1041.45 189.728 1041.44 189.936 1041.43 190.144C1041.43 190.336 1041.41 190.504 1041.38 190.648H1032.26C1032.27 191.272 1032.39 191.832 1032.62 192.328C1032.86 192.824 1033.17 193.248 1033.55 193.6C1033.95 193.952 1034.42 194.224 1034.95 194.416C1035.49 194.608 1036.08 194.704 1036.72 194.704C1037.41 194.704 1038.03 194.608 1038.59 194.416C1039.17 194.224 1039.73 193.96 1040.27 193.624L1040.97 194.92C1040.39 195.288 1039.74 195.608 1039 195.88C1038.27 196.152 1037.43 196.288 1036.48 196.288C1035.62 196.288 1034.8 196.152 1034.03 195.88C1033.28 195.592 1032.62 195.192 1032.04 194.68C1031.48 194.152 1031.03 193.512 1030.7 192.76C1030.38 192.008 1030.22 191.152 1030.22 190.192ZM1039.63 189.232C1039.63 188.064 1039.32 187.168 1038.71 186.544C1038.11 185.92 1037.26 185.608 1036.17 185.608C1035.69 185.608 1035.23 185.688 1034.78 185.848C1034.35 186.008 1033.95 186.248 1033.6 186.568C1033.25 186.872 1032.95 187.248 1032.71 187.696C1032.47 188.144 1032.31 188.656 1032.23 189.232H1039.63ZM1047.9 185.944H1044.61V184.456L1047.97 184.336L1048.23 181.072H1049.87V184.336H1055.6V185.944H1049.87V191.488C1049.87 192.016 1049.91 192.48 1050.01 192.88C1050.11 193.264 1050.27 193.592 1050.49 193.864C1050.71 194.136 1051.02 194.344 1051.4 194.488C1051.79 194.616 1052.26 194.68 1052.82 194.68C1053.38 194.68 1053.88 194.632 1054.33 194.536C1054.78 194.44 1055.21 194.312 1055.63 194.152L1056.06 195.592C1055.53 195.784 1054.95 195.944 1054.31 196.072C1053.67 196.216 1053.03 196.288 1052.39 196.288C1051.54 196.288 1050.83 196.176 1050.25 195.952C1049.67 195.712 1049.21 195.384 1048.86 194.968C1048.52 194.536 1048.27 194.024 1048.11 193.432C1047.97 192.84 1047.9 192.184 1047.9 191.464V185.944Z" fill="black"/>
</svg>
