<svg width="400" height="106" viewBox="0 0 400 106" fill="none" xmlns="http://www.w3.org/2000/svg">
<rect width="400" height="106" fill="white"/>
<path d="M293.061 59.0607C293.646 58.4749 293.646 57.5251 293.061 56.9394L283.515 47.3934C282.929 46.8076 281.979 46.8076 281.393 47.3934C280.808 47.9792 280.808 48.9289 281.393 49.5147L289.879 58L281.393 66.4853C280.808 67.0711 280.808 68.0208 281.393 68.6066C281.979 69.1924 282.929 69.1924 283.515 68.6066L293.061 59.0607ZM103 59.5L292 59.5L292 56.5L103 56.5L103 59.5Z" fill="#2E383C"/>
<path d="M17.0801 31H15.7676V21.0469H17.0801V31ZM19.377 23.8496L18.6592 23.3574C19.083 22.765 19.3018 22.1406 19.3154 21.4844V20.5H20.5664V21.3887C20.5618 21.8444 20.4479 22.3001 20.2246 22.7559C20.0059 23.207 19.7233 23.5716 19.377 23.8496ZM23.1436 23.6035L23.1777 24.4238C23.7201 23.7858 24.4515 23.4668 25.3721 23.4668C26.4066 23.4668 27.1107 23.8633 27.4844 24.6562C27.7305 24.3008 28.0495 24.0137 28.4414 23.7949C28.8379 23.5762 29.305 23.4668 29.8428 23.4668C31.4652 23.4668 32.29 24.3258 32.3174 26.0439V31H31.0527V26.1191C31.0527 25.5905 30.932 25.1963 30.6904 24.9365C30.4489 24.6722 30.0433 24.54 29.4736 24.54C29.0042 24.54 28.6146 24.6813 28.3047 24.9639C27.9948 25.2419 27.8148 25.6178 27.7646 26.0918V31H26.4932V26.1533C26.4932 25.0778 25.9668 24.54 24.9141 24.54C24.0846 24.54 23.5173 24.8932 23.2119 25.5996V31H21.9473V23.6035H23.1436ZM37.4033 27.2402C37.4033 26.0872 37.6699 25.1712 38.2031 24.4922C38.7363 23.8086 39.4427 23.4668 40.3223 23.4668C41.2246 23.4668 41.9287 23.7858 42.4346 24.4238L42.4961 23.6035H43.6514V30.8223C43.6514 31.7793 43.3665 32.5335 42.7969 33.085C42.2318 33.6364 41.4707 33.9121 40.5137 33.9121C39.9805 33.9121 39.4587 33.7982 38.9482 33.5703C38.4378 33.3424 38.0482 33.0303 37.7793 32.6338L38.4355 31.875C38.9779 32.5449 39.641 32.8799 40.4248 32.8799C41.04 32.8799 41.5186 32.7067 41.8604 32.3604C42.2067 32.014 42.3799 31.5264 42.3799 30.8975V30.2617C41.874 30.8451 41.1836 31.1367 40.3086 31.1367C39.4427 31.1367 38.7409 30.7881 38.2031 30.0908C37.6699 29.3936 37.4033 28.4434 37.4033 27.2402ZM38.6748 27.3838C38.6748 28.2178 38.8457 28.874 39.1875 29.3525C39.5293 29.8265 40.0078 30.0635 40.623 30.0635C41.4206 30.0635 42.0062 29.7012 42.3799 28.9766V25.5996C41.9925 24.8932 41.4115 24.54 40.6367 24.54C40.0215 24.54 39.5407 24.7793 39.1943 25.2578C38.848 25.7363 38.6748 26.445 38.6748 27.3838ZM45.2305 27.2334C45.2305 26.5088 45.3717 25.8571 45.6543 25.2783C45.9414 24.6995 46.3379 24.2529 46.8438 23.9385C47.3542 23.624 47.9352 23.4668 48.5869 23.4668C49.5941 23.4668 50.4076 23.8154 51.0273 24.5127C51.6517 25.21 51.9639 26.1374 51.9639 27.2949V27.3838C51.9639 28.1038 51.8249 28.751 51.5469 29.3252C51.2734 29.8949 50.8792 30.3392 50.3643 30.6582C49.8538 30.9772 49.266 31.1367 48.6006 31.1367C47.598 31.1367 46.7845 30.7881 46.1602 30.0908C45.5404 29.3936 45.2305 28.4707 45.2305 27.3223V27.2334ZM46.502 27.3838C46.502 28.2041 46.6911 28.8626 47.0693 29.3594C47.4521 29.8561 47.9626 30.1045 48.6006 30.1045C49.2432 30.1045 49.7536 29.8538 50.1318 29.3525C50.5101 28.8467 50.6992 28.1403 50.6992 27.2334C50.6992 26.4222 50.5055 25.766 50.1182 25.2646C49.7354 24.7588 49.2249 24.5059 48.5869 24.5059C47.9626 24.5059 47.459 24.7542 47.0762 25.251C46.6934 25.7477 46.502 26.4587 46.502 27.3838ZM54.9238 31H53.6592V23.6035H54.9238V31ZM53.5566 21.6416C53.5566 21.4365 53.6182 21.2633 53.7412 21.1221C53.8688 20.9808 54.0557 20.9102 54.3018 20.9102C54.5479 20.9102 54.7347 20.9808 54.8623 21.1221C54.9899 21.2633 55.0537 21.4365 55.0537 21.6416C55.0537 21.8467 54.9899 22.0176 54.8623 22.1543C54.7347 22.291 54.5479 22.3594 54.3018 22.3594C54.0557 22.3594 53.8688 22.291 53.7412 22.1543C53.6182 22.0176 53.5566 21.8467 53.5566 21.6416ZM58.1504 23.6035L58.1914 24.5332C58.7565 23.8223 59.4948 23.4668 60.4062 23.4668C61.9694 23.4668 62.7578 24.3486 62.7715 26.1123V31H61.5068V26.1055C61.5023 25.5723 61.3792 25.1781 61.1377 24.9229C60.9007 24.6676 60.5293 24.54 60.0234 24.54C59.6133 24.54 59.2533 24.6494 58.9434 24.8682C58.6335 25.0869 58.3919 25.374 58.2188 25.7295V31H56.9541V23.6035H58.1504ZM64.3779 27.2402C64.3779 26.0872 64.6445 25.1712 65.1777 24.4922C65.7109 23.8086 66.4173 23.4668 67.2969 23.4668C68.1992 23.4668 68.9033 23.7858 69.4092 24.4238L69.4707 23.6035H70.626V30.8223C70.626 31.7793 70.3411 32.5335 69.7715 33.085C69.2064 33.6364 68.4453 33.9121 67.4883 33.9121C66.9551 33.9121 66.4333 33.7982 65.9229 33.5703C65.4124 33.3424 65.0228 33.0303 64.7539 32.6338L65.4102 31.875C65.9525 32.5449 66.6156 32.8799 67.3994 32.8799C68.0146 32.8799 68.4932 32.7067 68.835 32.3604C69.1813 32.014 69.3545 31.5264 69.3545 30.8975V30.2617C68.8486 30.8451 68.1582 31.1367 67.2832 31.1367C66.4173 31.1367 65.7155 30.7881 65.1777 30.0908C64.6445 29.3936 64.3779 28.4434 64.3779 27.2402ZM65.6494 27.3838C65.6494 28.2178 65.8203 28.874 66.1621 29.3525C66.5039 29.8265 66.9824 30.0635 67.5977 30.0635C68.3952 30.0635 68.9808 29.7012 69.3545 28.9766V25.5996C68.9671 24.8932 68.3861 24.54 67.6113 24.54C66.9961 24.54 66.5153 24.7793 66.1689 25.2578C65.8226 25.7363 65.6494 26.445 65.6494 27.3838ZM77.7285 21.8125V23.6035H79.1094V24.5811H77.7285V29.168C77.7285 29.4642 77.79 29.6875 77.9131 29.8379C78.0361 29.9837 78.2458 30.0566 78.542 30.0566C78.6878 30.0566 78.8883 30.0293 79.1436 29.9746V31C78.8109 31.0911 78.4873 31.1367 78.1729 31.1367C77.6077 31.1367 77.1816 30.9658 76.8945 30.624C76.6074 30.2822 76.4639 29.7969 76.4639 29.168V24.5811H75.1172V23.6035H76.4639V21.8125H77.7285ZM80.1211 27.2334C80.1211 26.5088 80.2624 25.8571 80.5449 25.2783C80.832 24.6995 81.2285 24.2529 81.7344 23.9385C82.2448 23.624 82.8258 23.4668 83.4775 23.4668C84.4847 23.4668 85.2982 23.8154 85.918 24.5127C86.5423 25.21 86.8545 26.1374 86.8545 27.2949V27.3838C86.8545 28.1038 86.7155 28.751 86.4375 29.3252C86.1641 29.8949 85.7699 30.3392 85.2549 30.6582C84.7445 30.9772 84.1566 31.1367 83.4912 31.1367C82.4886 31.1367 81.6751 30.7881 81.0508 30.0908C80.431 29.3936 80.1211 28.4707 80.1211 27.3223V27.2334ZM81.3926 27.3838C81.3926 28.2041 81.5817 28.8626 81.96 29.3594C82.3428 29.8561 82.8532 30.1045 83.4912 30.1045C84.1338 30.1045 84.6442 29.8538 85.0225 29.3525C85.4007 28.8467 85.5898 28.1403 85.5898 27.2334C85.5898 26.4222 85.3962 25.766 85.0088 25.2646C84.626 24.7588 84.1156 24.5059 83.4775 24.5059C82.8532 24.5059 82.3496 24.7542 81.9668 25.251C81.584 25.7477 81.3926 26.4587 81.3926 27.3838ZM25.3584 37.8125V39.6035H26.7393V40.5811H25.3584V45.168C25.3584 45.4642 25.4199 45.6875 25.543 45.8379C25.666 45.9837 25.8757 46.0566 26.1719 46.0566C26.3177 46.0566 26.5182 46.0293 26.7734 45.9746V47C26.4408 47.0911 26.1172 47.1367 25.8027 47.1367C25.2376 47.1367 24.8115 46.9658 24.5244 46.624C24.2373 46.2822 24.0938 45.7969 24.0938 45.168V40.5811H22.7471V39.6035H24.0938V37.8125H25.3584ZM29.4873 40.499C30.0479 39.8109 30.777 39.4668 31.6748 39.4668C33.238 39.4668 34.0264 40.3486 34.04 42.1123V47H32.7754V42.1055C32.7708 41.5723 32.6478 41.1781 32.4062 40.9229C32.1693 40.6676 31.7979 40.54 31.292 40.54C30.8818 40.54 30.5218 40.6494 30.2119 40.8682C29.902 41.0869 29.6605 41.374 29.4873 41.7295V47H28.2227V36.5H29.4873V40.499ZM39.0029 47.1367C38.0003 47.1367 37.1846 46.8086 36.5557 46.1523C35.9268 45.4915 35.6123 44.6097 35.6123 43.5068V43.2744C35.6123 42.5407 35.7513 41.8867 36.0293 41.3125C36.3118 40.7337 36.7038 40.2826 37.2051 39.959C37.7109 39.6309 38.2578 39.4668 38.8457 39.4668C39.8073 39.4668 40.5547 39.7835 41.0879 40.417C41.6211 41.0505 41.8877 41.9574 41.8877 43.1377V43.6641H36.877C36.8952 44.3932 37.1071 44.9834 37.5127 45.4346C37.9229 45.8812 38.4424 46.1045 39.0713 46.1045C39.5179 46.1045 39.8962 46.0133 40.2061 45.8311C40.516 45.6488 40.7871 45.4072 41.0195 45.1064L41.792 45.708C41.1722 46.6605 40.2425 47.1367 39.0029 47.1367ZM38.8457 40.5059C38.3353 40.5059 37.9069 40.6927 37.5605 41.0664C37.2142 41.4355 37 41.9551 36.918 42.625H40.623V42.5293C40.5866 41.8867 40.4134 41.39 40.1035 41.0391C39.7936 40.6836 39.3743 40.5059 38.8457 40.5059ZM51.1367 45.0381C51.1367 44.6963 51.0068 44.432 50.7471 44.2451C50.4919 44.0537 50.043 43.8896 49.4004 43.7529C48.7624 43.6162 48.2542 43.4521 47.876 43.2607C47.5023 43.0693 47.2243 42.8415 47.042 42.5771C46.8643 42.3128 46.7754 41.9984 46.7754 41.6338C46.7754 41.0277 47.0306 40.515 47.541 40.0957C48.056 39.6764 48.7122 39.4668 49.5098 39.4668C50.3483 39.4668 51.0273 39.6833 51.5469 40.1162C52.071 40.5492 52.333 41.1029 52.333 41.7773H51.0615C51.0615 41.431 50.9134 41.1325 50.6172 40.8818C50.3255 40.6312 49.9564 40.5059 49.5098 40.5059C49.0495 40.5059 48.6895 40.6061 48.4297 40.8066C48.1699 41.0072 48.04 41.2692 48.04 41.5928C48.04 41.8981 48.1608 42.1283 48.4023 42.2832C48.6439 42.4382 49.0791 42.5863 49.708 42.7275C50.3415 42.8688 50.8542 43.0374 51.2461 43.2334C51.638 43.4294 51.9274 43.6663 52.1143 43.9443C52.3057 44.2178 52.4014 44.5527 52.4014 44.9492C52.4014 45.61 52.137 46.141 51.6084 46.542C51.0798 46.9385 50.3939 47.1367 49.5508 47.1367C48.9583 47.1367 48.4342 47.0319 47.9785 46.8223C47.5228 46.6126 47.165 46.321 46.9053 45.9473C46.6501 45.569 46.5225 45.1611 46.5225 44.7236H47.7871C47.8099 45.1475 47.9785 45.4847 48.293 45.7354C48.612 45.9814 49.0312 46.1045 49.5508 46.1045C50.0293 46.1045 50.4121 46.0088 50.6992 45.8174C50.9909 45.6214 51.1367 45.3617 51.1367 45.0381ZM55.3135 40.499C55.874 39.8109 56.6032 39.4668 57.501 39.4668C59.0641 39.4668 59.8525 40.3486 59.8662 42.1123V47H58.6016V42.1055C58.597 41.5723 58.474 41.1781 58.2324 40.9229C57.9954 40.6676 57.624 40.54 57.1182 40.54C56.708 40.54 56.348 40.6494 56.0381 40.8682C55.7282 41.0869 55.4867 41.374 55.3135 41.7295V47H54.0488V36.5H55.3135V40.499ZM61.4248 43.2334C61.4248 42.5088 61.5661 41.8571 61.8486 41.2783C62.1357 40.6995 62.5322 40.2529 63.0381 39.9385C63.5485 39.624 64.1296 39.4668 64.7812 39.4668C65.7884 39.4668 66.6019 39.8154 67.2217 40.5127C67.846 41.21 68.1582 42.1374 68.1582 43.2949V43.3838C68.1582 44.1038 68.0192 44.751 67.7412 45.3252C67.4678 45.8949 67.0736 46.3392 66.5586 46.6582C66.0482 46.9772 65.4603 47.1367 64.7949 47.1367C63.7923 47.1367 62.9788 46.7881 62.3545 46.0908C61.7347 45.3936 61.4248 44.4707 61.4248 43.3223V43.2334ZM62.6963 43.3838C62.6963 44.2041 62.8854 44.8626 63.2637 45.3594C63.6465 45.8561 64.1569 46.1045 64.7949 46.1045C65.4375 46.1045 65.9479 45.8538 66.3262 45.3525C66.7044 44.8467 66.8936 44.1403 66.8936 43.2334C66.8936 42.4222 66.6999 41.766 66.3125 41.2646C65.9297 40.7588 65.4193 40.5059 64.7812 40.5059C64.1569 40.5059 63.6533 40.7542 63.2705 41.251C62.8877 41.7477 62.6963 42.4587 62.6963 43.3838ZM76.293 45.2568L77.7148 39.6035H78.9795L76.8262 47H75.8008L74.0029 41.3945L72.2529 47H71.2275L69.0811 39.6035H70.3389L71.7949 45.1406L73.5176 39.6035H74.5361L76.293 45.2568ZM28.9746 62.2568L30.3965 56.6035H31.6611L29.5078 64H28.4824L26.6846 58.3945L24.9346 64H23.9092L21.7627 56.6035H23.0205L24.4766 62.1406L26.1992 56.6035H27.2178L28.9746 62.2568ZM34.3271 64H33.0625V56.6035H34.3271V64ZM32.96 54.6416C32.96 54.4365 33.0215 54.2633 33.1445 54.1221C33.2721 53.9808 33.459 53.9102 33.7051 53.9102C33.9512 53.9102 34.138 53.9808 34.2656 54.1221C34.3932 54.2633 34.457 54.4365 34.457 54.6416C34.457 54.8467 34.3932 55.0176 34.2656 55.1543C34.138 55.291 33.9512 55.3594 33.7051 55.3594C33.459 55.3594 33.2721 55.291 33.1445 55.1543C33.0215 55.0176 32.96 54.8467 32.96 54.6416ZM38.0732 54.8125V56.6035H39.4541V57.5811H38.0732V62.168C38.0732 62.4642 38.1348 62.6875 38.2578 62.8379C38.3809 62.9837 38.5905 63.0566 38.8867 63.0566C39.0326 63.0566 39.2331 63.0293 39.4883 62.9746V64C39.1556 64.0911 38.832 64.1367 38.5176 64.1367C37.9525 64.1367 37.5264 63.9658 37.2393 63.624C36.9521 63.2822 36.8086 62.7969 36.8086 62.168V57.5811H35.4619V56.6035H36.8086V54.8125H38.0732ZM42.2021 57.499C42.7627 56.8109 43.4919 56.4668 44.3896 56.4668C45.9528 56.4668 46.7412 57.3486 46.7549 59.1123V64H45.4902V59.1055C45.4857 58.5723 45.3626 58.1781 45.1211 57.9229C44.8841 57.6676 44.5127 57.54 44.0068 57.54C43.5967 57.54 43.2367 57.6494 42.9268 57.8682C42.6169 58.0869 42.3753 58.374 42.2021 58.7295V64H40.9375V53.5H42.2021V57.499ZM54.8486 59.3721L53.6318 60.6367V64H52.3193V54.0469H53.6318V58.9688L58.0547 54.0469H59.6406L55.7236 58.4424L59.9482 64H58.376L54.8486 59.3721ZM63.0449 62.1475L64.7676 56.6035H66.1211L63.1475 65.1416C62.6872 66.3721 61.9557 66.9873 60.9531 66.9873L60.7139 66.9668L60.2422 66.8779V65.8525L60.584 65.8799C61.0124 65.8799 61.3451 65.7933 61.582 65.6201C61.8236 65.4469 62.0218 65.1302 62.1768 64.6699L62.457 63.918L59.8184 56.6035H61.1992L63.0449 62.1475ZM68.6299 64H67.3652V53.5H68.6299V64ZM72.0342 64H70.7695V56.6035H72.0342V64ZM70.667 54.6416C70.667 54.4365 70.7285 54.2633 70.8516 54.1221C70.9792 53.9808 71.166 53.9102 71.4121 53.9102C71.6582 53.9102 71.8451 53.9808 71.9727 54.1221C72.1003 54.2633 72.1641 54.4365 72.1641 54.6416C72.1641 54.8467 72.1003 55.0176 71.9727 55.1543C71.8451 55.291 71.6582 55.3594 71.4121 55.3594C71.166 55.3594 70.9792 55.291 70.8516 55.1543C70.7285 55.0176 70.667 54.8467 70.667 54.6416ZM77.1338 64.1367C76.1312 64.1367 75.3154 63.8086 74.6865 63.1523C74.0576 62.4915 73.7432 61.6097 73.7432 60.5068V60.2744C73.7432 59.5407 73.8822 58.8867 74.1602 58.3125C74.4427 57.7337 74.8346 57.2826 75.3359 56.959C75.8418 56.6309 76.3887 56.4668 76.9766 56.4668C77.9382 56.4668 78.6855 56.7835 79.2188 57.417C79.752 58.0505 80.0186 58.9574 80.0186 60.1377V60.6641H75.0078C75.026 61.3932 75.238 61.9834 75.6436 62.4346C76.0537 62.8812 76.5732 63.1045 77.2021 63.1045C77.6488 63.1045 78.027 63.0133 78.3369 62.8311C78.6468 62.6488 78.918 62.4072 79.1504 62.1064L79.9229 62.708C79.3031 63.6605 78.3734 64.1367 77.1338 64.1367ZM76.9766 57.5059C76.4661 57.5059 76.0378 57.6927 75.6914 58.0664C75.3451 58.4355 75.1309 58.9551 75.0488 59.625H78.7539V59.5293C78.7174 58.8867 78.5443 58.39 78.2344 58.0391C77.9245 57.6836 77.5052 57.5059 76.9766 57.5059ZM75.4111 79.3369C75.4111 79.1182 75.4749 78.9359 75.6025 78.79C75.7347 78.6442 75.9307 78.5713 76.1904 78.5713C76.4502 78.5713 76.6462 78.6442 76.7783 78.79C76.915 78.9359 76.9834 79.1182 76.9834 79.3369C76.9834 79.5465 76.915 79.722 76.7783 79.8633C76.6462 80.0046 76.4502 80.0752 76.1904 80.0752C75.9307 80.0752 75.7347 80.0046 75.6025 79.8633C75.4749 79.722 75.4111 79.5465 75.4111 79.3369Z" fill="black"/>
<path d="M28.9268 80C28.8356 79.8223 28.7695 79.6012 28.7285 79.3369C28.25 79.8701 27.6279 80.1367 26.8623 80.1367C26.1377 80.1367 25.5361 79.9271 25.0576 79.5078C24.5837 79.0885 24.3467 78.5599 24.3467 77.9219C24.3467 77.138 24.6361 76.5365 25.2148 76.1172C25.7982 75.6979 26.639 75.486 27.7373 75.4814H28.6465V75.0576C28.6465 74.7158 28.5576 74.4424 28.3799 74.2373C28.2067 74.0322 27.931 73.9297 27.5527 73.9297C27.2201 73.9297 26.958 74.0094 26.7666 74.1689C26.5798 74.3285 26.4863 74.5472 26.4863 74.8252H24.5107C24.5107 74.3968 24.6429 74.0003 24.9072 73.6357C25.1715 73.2712 25.5452 72.9863 26.0283 72.7812C26.5114 72.5716 27.0537 72.4668 27.6553 72.4668C28.5667 72.4668 29.2891 72.6969 29.8223 73.1572C30.36 73.613 30.6289 74.2555 30.6289 75.085V78.291C30.6335 78.9928 30.7314 79.5238 30.9229 79.8838V80H28.9268ZM27.293 78.626C27.5846 78.626 27.8535 78.5622 28.0996 78.4346C28.3457 78.3024 28.528 78.127 28.6465 77.9082V76.6367H27.9082C26.9193 76.6367 26.3929 76.9785 26.3291 77.6621L26.3223 77.7783C26.3223 78.0244 26.4089 78.2272 26.582 78.3867C26.7552 78.5462 26.9922 78.626 27.293 78.626ZM33.9648 72.6035L34.0264 73.458C34.555 72.7972 35.2637 72.4668 36.1523 72.4668C36.9362 72.4668 37.5195 72.6969 37.9023 73.1572C38.2852 73.6175 38.4811 74.3057 38.4902 75.2217V80H36.5146V75.2695C36.5146 74.8503 36.4235 74.5472 36.2412 74.3604C36.0589 74.1689 35.7559 74.0732 35.332 74.0732C34.776 74.0732 34.359 74.3102 34.0811 74.7842V80H32.1055V72.6035H33.9648ZM39.6865 76.2471C39.6865 75.0941 39.944 74.1758 40.459 73.4922C40.9785 72.8086 41.6872 72.4668 42.585 72.4668C43.305 72.4668 43.8997 72.7357 44.3691 73.2734V69.5H46.3516V80H44.5674L44.4717 79.2139C43.9795 79.8291 43.346 80.1367 42.5713 80.1367C41.7008 80.1367 41.0013 79.7949 40.4727 79.1113C39.9486 78.4232 39.6865 77.4684 39.6865 76.2471ZM41.6621 76.3906C41.6621 77.0833 41.7829 77.6143 42.0244 77.9834C42.266 78.3525 42.6169 78.5371 43.0771 78.5371C43.6878 78.5371 44.1185 78.2796 44.3691 77.7646V74.8457C44.123 74.3307 43.6969 74.0732 43.0908 74.0732C42.1383 74.0732 41.6621 74.8457 41.6621 76.3906ZM51.499 80V70.0469H54.9854C56.193 70.0469 57.109 70.2793 57.7334 70.7441C58.3577 71.2044 58.6699 71.8812 58.6699 72.7744C58.6699 73.262 58.5446 73.6927 58.2939 74.0664C58.0433 74.4355 57.6947 74.7067 57.248 74.8799C57.7585 75.0075 58.1595 75.265 58.4512 75.6523C58.7474 76.0397 58.8955 76.5137 58.8955 77.0742C58.8955 78.0312 58.5902 78.7559 57.9795 79.248C57.3688 79.7402 56.4984 79.9909 55.3682 80H51.499ZM53.5498 75.666V78.3525H55.3066C55.7897 78.3525 56.1657 78.2386 56.4346 78.0107C56.708 77.7783 56.8447 77.4593 56.8447 77.0537C56.8447 76.1423 56.373 75.6797 55.4297 75.666H53.5498ZM53.5498 74.2168H55.0674C56.1019 74.1986 56.6191 73.7861 56.6191 72.9795C56.6191 72.5283 56.487 72.2048 56.2227 72.0088C55.9629 71.8083 55.5505 71.708 54.9854 71.708H53.5498V74.2168ZM63.7148 80.1367C62.6302 80.1367 61.7461 79.804 61.0625 79.1387C60.3835 78.4733 60.0439 77.5869 60.0439 76.4795V76.2881C60.0439 75.5452 60.1875 74.8822 60.4746 74.2988C60.7617 73.7109 61.1673 73.2598 61.6914 72.9453C62.2201 72.6263 62.8216 72.4668 63.4961 72.4668C64.5078 72.4668 65.3031 72.7858 65.8818 73.4238C66.4652 74.0618 66.7568 74.9665 66.7568 76.1377V76.9443H62.0469C62.1107 77.4274 62.3021 77.8148 62.6211 78.1064C62.9447 78.3981 63.3525 78.5439 63.8447 78.5439C64.6058 78.5439 65.2005 78.2682 65.6289 77.7168L66.5996 78.8037C66.3034 79.223 65.9023 79.5511 65.3965 79.7881C64.8906 80.0205 64.3301 80.1367 63.7148 80.1367ZM63.4893 74.0664C63.0973 74.0664 62.7783 74.1986 62.5322 74.4629C62.2907 74.7272 62.1357 75.1055 62.0674 75.5977H64.8154V75.4404C64.8063 75.0029 64.6878 74.6657 64.46 74.4287C64.2321 74.1872 63.9085 74.0664 63.4893 74.0664ZM70.9609 78.5439C71.3255 78.5439 71.6217 78.4437 71.8496 78.2432C72.0775 78.0426 72.196 77.776 72.2051 77.4434H74.0576C74.0531 77.9447 73.9163 78.4049 73.6475 78.8242C73.3786 79.2389 73.0094 79.5625 72.54 79.7949C72.0752 80.0228 71.5602 80.1367 70.9951 80.1367C69.9378 80.1367 69.1038 79.8018 68.4932 79.1318C67.8825 78.4574 67.5771 77.5277 67.5771 76.3428V76.2129C67.5771 75.0736 67.8802 74.1644 68.4863 73.4854C69.0924 72.8063 69.9242 72.4668 70.9814 72.4668C71.9066 72.4668 72.6471 72.7311 73.2031 73.2598C73.7637 73.7839 74.0485 74.4834 74.0576 75.3584H72.2051C72.196 74.9756 72.0775 74.6657 71.8496 74.4287C71.6217 74.1872 71.321 74.0664 70.9473 74.0664C70.487 74.0664 70.1383 74.235 69.9014 74.5723C69.6689 74.9049 69.5527 75.4473 69.5527 76.1992V76.4043C69.5527 77.1654 69.6689 77.7122 69.9014 78.0449C70.1338 78.3776 70.487 78.5439 70.9609 78.5439Z" fill="#EB5757"/>
<path d="M309.08 39H307.768V29.0469H309.08V39ZM311.377 31.8496L310.659 31.3574C311.083 30.765 311.302 30.1406 311.315 29.4844V28.5H312.566V29.3887C312.562 29.8444 312.448 30.3001 312.225 30.7559C312.006 31.207 311.723 31.5716 311.377 31.8496ZM315.144 31.6035L315.178 32.4238C315.72 31.7858 316.451 31.4668 317.372 31.4668C318.407 31.4668 319.111 31.8633 319.484 32.6562C319.73 32.3008 320.049 32.0137 320.441 31.7949C320.838 31.5762 321.305 31.4668 321.843 31.4668C323.465 31.4668 324.29 32.3258 324.317 34.0439V39H323.053V34.1191C323.053 33.5905 322.932 33.1963 322.69 32.9365C322.449 32.6722 322.043 32.54 321.474 32.54C321.004 32.54 320.615 32.6813 320.305 32.9639C319.995 33.2419 319.815 33.6178 319.765 34.0918V39H318.493V34.1533C318.493 33.0778 317.967 32.54 316.914 32.54C316.085 32.54 315.517 32.8932 315.212 33.5996V39H313.947V31.6035H315.144ZM329.403 35.2402C329.403 34.0872 329.67 33.1712 330.203 32.4922C330.736 31.8086 331.443 31.4668 332.322 31.4668C333.225 31.4668 333.929 31.7858 334.435 32.4238L334.496 31.6035H335.651V38.8223C335.651 39.7793 335.367 40.5335 334.797 41.085C334.232 41.6364 333.471 41.9121 332.514 41.9121C331.98 41.9121 331.459 41.7982 330.948 41.5703C330.438 41.3424 330.048 41.0303 329.779 40.6338L330.436 39.875C330.978 40.5449 331.641 40.8799 332.425 40.8799C333.04 40.8799 333.519 40.7067 333.86 40.3604C334.207 40.014 334.38 39.5264 334.38 38.8975V38.2617C333.874 38.8451 333.184 39.1367 332.309 39.1367C331.443 39.1367 330.741 38.7881 330.203 38.0908C329.67 37.3936 329.403 36.4434 329.403 35.2402ZM330.675 35.3838C330.675 36.2178 330.846 36.874 331.188 37.3525C331.529 37.8265 332.008 38.0635 332.623 38.0635C333.421 38.0635 334.006 37.7012 334.38 36.9766V33.5996C333.993 32.8932 333.411 32.54 332.637 32.54C332.021 32.54 331.541 32.7793 331.194 33.2578C330.848 33.7363 330.675 34.445 330.675 35.3838ZM337.23 35.2334C337.23 34.5088 337.372 33.8571 337.654 33.2783C337.941 32.6995 338.338 32.2529 338.844 31.9385C339.354 31.624 339.935 31.4668 340.587 31.4668C341.594 31.4668 342.408 31.8154 343.027 32.5127C343.652 33.21 343.964 34.1374 343.964 35.2949V35.3838C343.964 36.1038 343.825 36.751 343.547 37.3252C343.273 37.8949 342.879 38.3392 342.364 38.6582C341.854 38.9772 341.266 39.1367 340.601 39.1367C339.598 39.1367 338.785 38.7881 338.16 38.0908C337.54 37.3936 337.23 36.4707 337.23 35.3223V35.2334ZM338.502 35.3838C338.502 36.2041 338.691 36.8626 339.069 37.3594C339.452 37.8561 339.963 38.1045 340.601 38.1045C341.243 38.1045 341.754 37.8538 342.132 37.3525C342.51 36.8467 342.699 36.1403 342.699 35.2334C342.699 34.4222 342.506 33.766 342.118 33.2646C341.735 32.7588 341.225 32.5059 340.587 32.5059C339.963 32.5059 339.459 32.7542 339.076 33.251C338.693 33.7477 338.502 34.4587 338.502 35.3838ZM346.924 39H345.659V31.6035H346.924V39ZM345.557 29.6416C345.557 29.4365 345.618 29.2633 345.741 29.1221C345.869 28.9808 346.056 28.9102 346.302 28.9102C346.548 28.9102 346.735 28.9808 346.862 29.1221C346.99 29.2633 347.054 29.4365 347.054 29.6416C347.054 29.8467 346.99 30.0176 346.862 30.1543C346.735 30.291 346.548 30.3594 346.302 30.3594C346.056 30.3594 345.869 30.291 345.741 30.1543C345.618 30.0176 345.557 29.8467 345.557 29.6416ZM350.15 31.6035L350.191 32.5332C350.757 31.8223 351.495 31.4668 352.406 31.4668C353.969 31.4668 354.758 32.3486 354.771 34.1123V39H353.507V34.1055C353.502 33.5723 353.379 33.1781 353.138 32.9229C352.901 32.6676 352.529 32.54 352.023 32.54C351.613 32.54 351.253 32.6494 350.943 32.8682C350.633 33.0869 350.392 33.374 350.219 33.7295V39H348.954V31.6035H350.15ZM356.378 35.2402C356.378 34.0872 356.645 33.1712 357.178 32.4922C357.711 31.8086 358.417 31.4668 359.297 31.4668C360.199 31.4668 360.903 31.7858 361.409 32.4238L361.471 31.6035H362.626V38.8223C362.626 39.7793 362.341 40.5335 361.771 41.085C361.206 41.6364 360.445 41.9121 359.488 41.9121C358.955 41.9121 358.433 41.7982 357.923 41.5703C357.412 41.3424 357.023 41.0303 356.754 40.6338L357.41 39.875C357.952 40.5449 358.616 40.8799 359.399 40.8799C360.015 40.8799 360.493 40.7067 360.835 40.3604C361.181 40.014 361.354 39.5264 361.354 38.8975V38.2617C360.849 38.8451 360.158 39.1367 359.283 39.1367C358.417 39.1367 357.715 38.7881 357.178 38.0908C356.645 37.3936 356.378 36.4434 356.378 35.2402ZM357.649 35.3838C357.649 36.2178 357.82 36.874 358.162 37.3525C358.504 37.8265 358.982 38.0635 359.598 38.0635C360.395 38.0635 360.981 37.7012 361.354 36.9766V33.5996C360.967 32.8932 360.386 32.54 359.611 32.54C358.996 32.54 358.515 32.7793 358.169 33.2578C357.823 33.7363 357.649 34.445 357.649 35.3838ZM369.729 29.8125V31.6035H371.109V32.5811H369.729V37.168C369.729 37.4642 369.79 37.6875 369.913 37.8379C370.036 37.9837 370.246 38.0566 370.542 38.0566C370.688 38.0566 370.888 38.0293 371.144 37.9746V39C370.811 39.0911 370.487 39.1367 370.173 39.1367C369.608 39.1367 369.182 38.9658 368.895 38.624C368.607 38.2822 368.464 37.7969 368.464 37.168V32.5811H367.117V31.6035H368.464V29.8125H369.729ZM372.121 35.2334C372.121 34.5088 372.262 33.8571 372.545 33.2783C372.832 32.6995 373.229 32.2529 373.734 31.9385C374.245 31.624 374.826 31.4668 375.478 31.4668C376.485 31.4668 377.298 31.8154 377.918 32.5127C378.542 33.21 378.854 34.1374 378.854 35.2949V35.3838C378.854 36.1038 378.715 36.751 378.438 37.3252C378.164 37.8949 377.77 38.3392 377.255 38.6582C376.744 38.9772 376.157 39.1367 375.491 39.1367C374.489 39.1367 373.675 38.7881 373.051 38.0908C372.431 37.3936 372.121 36.4707 372.121 35.3223V35.2334ZM373.393 35.3838C373.393 36.2041 373.582 36.8626 373.96 37.3594C374.343 37.8561 374.853 38.1045 375.491 38.1045C376.134 38.1045 376.644 37.8538 377.022 37.3525C377.401 36.8467 377.59 36.1403 377.59 35.2334C377.59 34.4222 377.396 33.766 377.009 33.2646C376.626 32.7588 376.116 32.5059 375.478 32.5059C374.853 32.5059 374.35 32.7542 373.967 33.251C373.584 33.7477 373.393 34.4587 373.393 35.3838ZM317.358 45.8125V47.6035H318.739V48.5811H317.358V53.168C317.358 53.4642 317.42 53.6875 317.543 53.8379C317.666 53.9837 317.876 54.0566 318.172 54.0566C318.318 54.0566 318.518 54.0293 318.773 53.9746V55C318.441 55.0911 318.117 55.1367 317.803 55.1367C317.238 55.1367 316.812 54.9658 316.524 54.624C316.237 54.2822 316.094 53.7969 316.094 53.168V48.5811H314.747V47.6035H316.094V45.8125H317.358ZM321.487 48.499C322.048 47.8109 322.777 47.4668 323.675 47.4668C325.238 47.4668 326.026 48.3486 326.04 50.1123V55H324.775V50.1055C324.771 49.5723 324.648 49.1781 324.406 48.9229C324.169 48.6676 323.798 48.54 323.292 48.54C322.882 48.54 322.522 48.6494 322.212 48.8682C321.902 49.0869 321.66 49.374 321.487 49.7295V55H320.223V44.5H321.487V48.499ZM331.003 55.1367C330 55.1367 329.185 54.8086 328.556 54.1523C327.927 53.4915 327.612 52.6097 327.612 51.5068V51.2744C327.612 50.5407 327.751 49.8867 328.029 49.3125C328.312 48.7337 328.704 48.2826 329.205 47.959C329.711 47.6309 330.258 47.4668 330.846 47.4668C331.807 47.4668 332.555 47.7835 333.088 48.417C333.621 49.0505 333.888 49.9574 333.888 51.1377V51.6641H328.877C328.895 52.3932 329.107 52.9834 329.513 53.4346C329.923 53.8812 330.442 54.1045 331.071 54.1045C331.518 54.1045 331.896 54.0133 332.206 53.8311C332.516 53.6488 332.787 53.4072 333.02 53.1064L333.792 53.708C333.172 54.6605 332.243 55.1367 331.003 55.1367ZM330.846 48.5059C330.335 48.5059 329.907 48.6927 329.561 49.0664C329.214 49.4355 329 49.9551 328.918 50.625H332.623V50.5293C332.587 49.8867 332.413 49.39 332.104 49.0391C331.794 48.6836 331.374 48.5059 330.846 48.5059ZM343.137 53.0381C343.137 52.6963 343.007 52.432 342.747 52.2451C342.492 52.0537 342.043 51.8896 341.4 51.7529C340.762 51.6162 340.254 51.4521 339.876 51.2607C339.502 51.0693 339.224 50.8415 339.042 50.5771C338.864 50.3128 338.775 49.9984 338.775 49.6338C338.775 49.0277 339.031 48.515 339.541 48.0957C340.056 47.6764 340.712 47.4668 341.51 47.4668C342.348 47.4668 343.027 47.6833 343.547 48.1162C344.071 48.5492 344.333 49.1029 344.333 49.7773H343.062C343.062 49.431 342.913 49.1325 342.617 48.8818C342.326 48.6312 341.956 48.5059 341.51 48.5059C341.049 48.5059 340.689 48.6061 340.43 48.8066C340.17 49.0072 340.04 49.2692 340.04 49.5928C340.04 49.8981 340.161 50.1283 340.402 50.2832C340.644 50.4382 341.079 50.5863 341.708 50.7275C342.341 50.8688 342.854 51.0374 343.246 51.2334C343.638 51.4294 343.927 51.6663 344.114 51.9443C344.306 52.2178 344.401 52.5527 344.401 52.9492C344.401 53.61 344.137 54.141 343.608 54.542C343.08 54.9385 342.394 55.1367 341.551 55.1367C340.958 55.1367 340.434 55.0319 339.979 54.8223C339.523 54.6126 339.165 54.321 338.905 53.9473C338.65 53.569 338.522 53.1611 338.522 52.7236H339.787C339.81 53.1475 339.979 53.4847 340.293 53.7354C340.612 53.9814 341.031 54.1045 341.551 54.1045C342.029 54.1045 342.412 54.0088 342.699 53.8174C342.991 53.6214 343.137 53.3617 343.137 53.0381ZM347.313 48.499C347.874 47.8109 348.603 47.4668 349.501 47.4668C351.064 47.4668 351.853 48.3486 351.866 50.1123V55H350.602V50.1055C350.597 49.5723 350.474 49.1781 350.232 48.9229C349.995 48.6676 349.624 48.54 349.118 48.54C348.708 48.54 348.348 48.6494 348.038 48.8682C347.728 49.0869 347.487 49.374 347.313 49.7295V55H346.049V44.5H347.313V48.499ZM353.425 51.2334C353.425 50.5088 353.566 49.8571 353.849 49.2783C354.136 48.6995 354.532 48.2529 355.038 47.9385C355.549 47.624 356.13 47.4668 356.781 47.4668C357.788 47.4668 358.602 47.8154 359.222 48.5127C359.846 49.21 360.158 50.1374 360.158 51.2949V51.3838C360.158 52.1038 360.019 52.751 359.741 53.3252C359.468 53.8949 359.074 54.3392 358.559 54.6582C358.048 54.9772 357.46 55.1367 356.795 55.1367C355.792 55.1367 354.979 54.7881 354.354 54.0908C353.735 53.3936 353.425 52.4707 353.425 51.3223V51.2334ZM354.696 51.3838C354.696 52.2041 354.885 52.8626 355.264 53.3594C355.646 53.8561 356.157 54.1045 356.795 54.1045C357.438 54.1045 357.948 53.8538 358.326 53.3525C358.704 52.8467 358.894 52.1403 358.894 51.2334C358.894 50.4222 358.7 49.766 358.312 49.2646C357.93 48.7588 357.419 48.5059 356.781 48.5059C356.157 48.5059 355.653 48.7542 355.271 49.251C354.888 49.7477 354.696 50.4587 354.696 51.3838ZM368.293 53.2568L369.715 47.6035H370.979L368.826 55H367.801L366.003 49.3945L364.253 55H363.228L361.081 47.6035H362.339L363.795 53.1406L365.518 47.6035H366.536L368.293 53.2568ZM319.129 70.2568L320.551 64.6035H321.815L319.662 72H318.637L316.839 66.3945L315.089 72H314.063L311.917 64.6035H313.175L314.631 70.1406L316.354 64.6035H317.372L319.129 70.2568ZM324.481 72H323.217V64.6035H324.481V72ZM323.114 62.6416C323.114 62.4365 323.176 62.2633 323.299 62.1221C323.426 61.9808 323.613 61.9102 323.859 61.9102C324.105 61.9102 324.292 61.9808 324.42 62.1221C324.548 62.2633 324.611 62.4365 324.611 62.6416C324.611 62.8467 324.548 63.0176 324.42 63.1543C324.292 63.291 324.105 63.3594 323.859 63.3594C323.613 63.3594 323.426 63.291 323.299 63.1543C323.176 63.0176 323.114 62.8467 323.114 62.6416ZM328.228 62.8125V64.6035H329.608V65.5811H328.228V70.168C328.228 70.4642 328.289 70.6875 328.412 70.8379C328.535 70.9837 328.745 71.0566 329.041 71.0566C329.187 71.0566 329.387 71.0293 329.643 70.9746V72C329.31 72.0911 328.986 72.1367 328.672 72.1367C328.107 72.1367 327.681 71.9658 327.394 71.624C327.106 71.2822 326.963 70.7969 326.963 70.168V65.5811H325.616V64.6035H326.963V62.8125H328.228ZM332.356 65.499C332.917 64.8109 333.646 64.4668 334.544 64.4668C336.107 64.4668 336.896 65.3486 336.909 67.1123V72H335.645V67.1055C335.64 66.5723 335.517 66.1781 335.275 65.9229C335.038 65.6676 334.667 65.54 334.161 65.54C333.751 65.54 333.391 65.6494 333.081 65.8682C332.771 66.0869 332.53 66.374 332.356 66.7295V72H331.092V61.5H332.356V65.499ZM345.003 67.3721L343.786 68.6367V72H342.474V62.0469H343.786V66.9688L348.209 62.0469H349.795L345.878 66.4424L350.103 72H348.53L345.003 67.3721ZM353.199 70.1475L354.922 64.6035H356.275L353.302 73.1416C352.841 74.3721 352.11 74.9873 351.107 74.9873L350.868 74.9668L350.396 74.8779V73.8525L350.738 73.8799C351.167 73.8799 351.499 73.7933 351.736 73.6201C351.978 73.4469 352.176 73.1302 352.331 72.6699L352.611 71.918L349.973 64.6035H351.354L353.199 70.1475ZM358.784 72H357.52V61.5H358.784V72ZM362.188 72H360.924V64.6035H362.188V72ZM360.821 62.6416C360.821 62.4365 360.883 62.2633 361.006 62.1221C361.133 61.9808 361.32 61.9102 361.566 61.9102C361.812 61.9102 361.999 61.9808 362.127 62.1221C362.255 62.2633 362.318 62.4365 362.318 62.6416C362.318 62.8467 362.255 63.0176 362.127 63.1543C361.999 63.291 361.812 63.3594 361.566 63.3594C361.32 63.3594 361.133 63.291 361.006 63.1543C360.883 63.0176 360.821 62.8467 360.821 62.6416ZM367.288 72.1367C366.285 72.1367 365.47 71.8086 364.841 71.1523C364.212 70.4915 363.897 69.6097 363.897 68.5068V68.2744C363.897 67.5407 364.036 66.8867 364.314 66.3125C364.597 65.7337 364.989 65.2826 365.49 64.959C365.996 64.6309 366.543 64.4668 367.131 64.4668C368.092 64.4668 368.84 64.7835 369.373 65.417C369.906 66.0505 370.173 66.9574 370.173 68.1377V68.6641H365.162C365.18 69.3932 365.392 69.9834 365.798 70.4346C366.208 70.8812 366.728 71.1045 367.356 71.1045C367.803 71.1045 368.181 71.0133 368.491 70.8311C368.801 70.6488 369.072 70.4072 369.305 70.1064L370.077 70.708C369.457 71.6605 368.528 72.1367 367.288 72.1367ZM367.131 65.5059C366.62 65.5059 366.192 65.6927 365.846 66.0664C365.499 66.4355 365.285 66.9551 365.203 67.625H368.908V67.5293C368.872 66.8867 368.699 66.39 368.389 66.0391C368.079 65.6836 367.66 65.5059 367.131 65.5059ZM371.67 71.3369C371.67 71.1182 371.734 70.9359 371.861 70.79C371.993 70.6442 372.189 70.5713 372.449 70.5713C372.709 70.5713 372.905 70.6442 373.037 70.79C373.174 70.9359 373.242 71.1182 373.242 71.3369C373.242 71.5465 373.174 71.722 373.037 71.8633C372.905 72.0046 372.709 72.0752 372.449 72.0752C372.189 72.0752 371.993 72.0046 371.861 71.8633C371.734 71.722 371.67 71.5465 371.67 71.3369Z" fill="black"/>
<path d="M116.56 41.108H117.7L117.82 42.44H117.856C118.16 41.96 118.524 41.596 118.948 41.348C119.38 41.092 119.852 40.964 120.364 40.964C120.604 40.964 120.808 40.984 120.976 41.024C121.152 41.056 121.328 41.116 121.504 41.204L121.216 42.368C121.024 42.304 120.852 42.26 120.7 42.236C120.556 42.204 120.372 42.188 120.148 42.188C119.74 42.188 119.348 42.304 118.972 42.536C118.596 42.768 118.256 43.172 117.952 43.748V47H116.56V41.108ZM122.939 44.06C122.939 43.58 123.023 43.148 123.191 42.764C123.367 42.38 123.595 42.056 123.875 41.792C124.155 41.52 124.475 41.316 124.835 41.18C125.203 41.036 125.579 40.964 125.963 40.964C126.403 40.964 126.791 41.036 127.127 41.18C127.471 41.316 127.759 41.508 127.991 41.756C128.223 41.996 128.399 42.288 128.519 42.632C128.639 42.976 128.699 43.352 128.699 43.76C128.699 43.896 128.691 44.024 128.675 44.144C128.667 44.264 128.655 44.36 128.639 44.432H124.355C124.403 44.96 124.611 45.368 124.979 45.656C125.347 45.936 125.799 46.076 126.335 46.076C126.639 46.076 126.923 46.036 127.187 45.956C127.451 45.868 127.719 45.748 127.991 45.596L128.459 46.46C128.139 46.66 127.783 46.824 127.391 46.952C126.999 47.08 126.587 47.144 126.155 47.144C125.707 47.144 125.287 47.076 124.895 46.94C124.503 46.796 124.163 46.592 123.875 46.328C123.587 46.064 123.359 45.744 123.191 45.368C123.023 44.984 122.939 44.548 122.939 44.06ZM127.427 43.496C127.427 43.04 127.307 42.684 127.067 42.428C126.827 42.164 126.471 42.032 125.999 42.032C125.599 42.032 125.243 42.156 124.931 42.404C124.619 42.652 124.423 43.016 124.343 43.496H127.427ZM131.767 47.48V49.328H130.375V41.108H131.515L131.623 41.78H131.659C131.915 41.548 132.207 41.356 132.535 41.204C132.871 41.044 133.207 40.964 133.543 40.964C133.927 40.964 134.267 41.036 134.563 41.18C134.867 41.316 135.119 41.516 135.319 41.78C135.527 42.044 135.683 42.36 135.787 42.728C135.899 43.096 135.955 43.508 135.955 43.964C135.955 44.468 135.883 44.92 135.739 45.32C135.595 45.712 135.399 46.044 135.151 46.316C134.911 46.58 134.631 46.784 134.311 46.928C133.999 47.072 133.675 47.144 133.339 47.144C133.067 47.144 132.787 47.084 132.499 46.964C132.219 46.844 131.959 46.672 131.719 46.448L131.767 47.48ZM131.767 45.464C131.983 45.664 132.203 45.804 132.427 45.884C132.659 45.964 132.867 46.004 133.051 46.004C133.475 46.004 133.827 45.836 134.107 45.5C134.387 45.156 134.527 44.648 134.527 43.976C134.527 43.384 134.419 42.924 134.203 42.596C133.987 42.268 133.639 42.104 133.159 42.104C132.935 42.104 132.707 42.16 132.475 42.272C132.243 42.384 132.007 42.564 131.767 42.812V45.464ZM137.438 38.528H140.678V44.924C140.678 45.324 140.778 45.608 140.978 45.776C141.178 45.936 141.43 46.016 141.734 46.016C142.022 46.016 142.358 45.94 142.742 45.788L143.066 46.808C142.786 46.904 142.522 46.984 142.274 47.048C142.034 47.112 141.742 47.144 141.398 47.144C140.702 47.144 140.178 46.944 139.826 46.544C139.474 46.144 139.298 45.58 139.298 44.852V39.62H137.438V38.528ZM144.633 45.416C144.633 45.088 144.709 44.8 144.861 44.552C145.013 44.296 145.253 44.08 145.581 43.904C145.909 43.728 146.329 43.584 146.841 43.472C147.353 43.36 147.973 43.28 148.701 43.232C148.677 42.896 148.557 42.62 148.341 42.404C148.125 42.188 147.777 42.08 147.297 42.08C146.961 42.08 146.629 42.144 146.301 42.272C145.981 42.392 145.669 42.536 145.365 42.704L144.861 41.78C145.221 41.572 145.633 41.384 146.097 41.216C146.561 41.048 147.045 40.964 147.549 40.964C148.373 40.964 149.001 41.184 149.433 41.624C149.865 42.056 150.081 42.684 150.081 43.508V47H148.953L148.845 46.268H148.809C148.497 46.508 148.149 46.716 147.765 46.892C147.389 47.06 147.001 47.144 146.601 47.144C146.313 47.144 146.049 47.1 145.809 47.012C145.569 46.932 145.361 46.816 145.185 46.664C145.009 46.512 144.873 46.332 144.777 46.124C144.681 45.908 144.633 45.672 144.633 45.416ZM145.965 45.308C145.965 45.572 146.065 45.764 146.265 45.884C146.473 46.004 146.725 46.064 147.021 46.064C147.317 46.064 147.601 46 147.873 45.872C148.153 45.736 148.429 45.56 148.701 45.344V44.096C148.173 44.136 147.733 44.192 147.381 44.264C147.029 44.328 146.749 44.412 146.541 44.516C146.333 44.62 146.185 44.74 146.097 44.876C146.009 45.004 145.965 45.148 145.965 45.308ZM151.853 44.06C151.853 43.572 151.941 43.136 152.117 42.752C152.301 42.368 152.545 42.044 152.849 41.78C153.153 41.516 153.509 41.316 153.917 41.18C154.325 41.036 154.753 40.964 155.201 40.964C155.681 40.964 156.101 41.044 156.461 41.204C156.829 41.364 157.137 41.56 157.385 41.792L156.725 42.656C156.493 42.472 156.257 42.332 156.017 42.236C155.785 42.14 155.537 42.092 155.273 42.092C154.681 42.092 154.201 42.272 153.833 42.632C153.465 42.984 153.281 43.46 153.281 44.06C153.281 44.356 153.329 44.624 153.425 44.864C153.521 45.104 153.653 45.312 153.821 45.488C153.997 45.656 154.205 45.788 154.445 45.884C154.685 45.972 154.949 46.016 155.237 46.016C155.573 46.016 155.877 45.952 156.149 45.824C156.429 45.696 156.685 45.544 156.917 45.368L157.493 46.256C157.157 46.552 156.781 46.776 156.365 46.928C155.949 47.072 155.529 47.144 155.105 47.144C154.641 47.144 154.209 47.076 153.809 46.94C153.417 46.804 153.073 46.604 152.777 46.34C152.489 46.076 152.261 45.752 152.093 45.368C151.933 44.984 151.853 44.548 151.853 44.06ZM158.916 44.06C158.916 43.58 159 43.148 159.168 42.764C159.344 42.38 159.572 42.056 159.852 41.792C160.132 41.52 160.452 41.316 160.812 41.18C161.18 41.036 161.556 40.964 161.94 40.964C162.38 40.964 162.768 41.036 163.104 41.18C163.448 41.316 163.736 41.508 163.968 41.756C164.2 41.996 164.376 42.288 164.496 42.632C164.616 42.976 164.676 43.352 164.676 43.76C164.676 43.896 164.668 44.024 164.652 44.144C164.644 44.264 164.632 44.36 164.616 44.432H160.332C160.38 44.96 160.588 45.368 160.956 45.656C161.324 45.936 161.776 46.076 162.312 46.076C162.616 46.076 162.9 46.036 163.164 45.956C163.428 45.868 163.696 45.748 163.968 45.596L164.436 46.46C164.116 46.66 163.76 46.824 163.368 46.952C162.976 47.08 162.564 47.144 162.132 47.144C161.684 47.144 161.264 47.076 160.872 46.94C160.48 46.796 160.14 46.592 159.852 46.328C159.564 46.064 159.336 45.744 159.168 45.368C159 44.984 158.916 44.548 158.916 44.06ZM163.404 43.496C163.404 43.04 163.284 42.684 163.044 42.428C162.804 42.164 162.448 42.032 161.976 42.032C161.576 42.032 161.22 42.156 160.908 42.404C160.596 42.652 160.4 43.016 160.32 43.496H163.404ZM170.311 49.124C169.503 48.452 168.863 47.66 168.391 46.748C167.927 45.836 167.695 44.808 167.695 43.664C167.695 42.52 167.927 41.492 168.391 40.58C168.863 39.668 169.503 38.876 170.311 38.204L171.079 38.84C170.319 39.528 169.763 40.26 169.411 41.036C169.059 41.812 168.883 42.688 168.883 43.664C168.883 44.64 169.059 45.516 169.411 46.292C169.763 47.068 170.319 47.8 171.079 48.488L170.311 49.124ZM239.588 48.752C240.604 48.344 241.116 47.728 241.124 46.904C241.084 46.912 241.028 46.916 240.956 46.916C240.652 46.916 240.388 46.828 240.164 46.652C239.94 46.468 239.828 46.2 239.828 45.848C239.828 45.512 239.94 45.252 240.164 45.068C240.396 44.876 240.668 44.78 240.98 44.78C241.412 44.78 241.736 44.94 241.952 45.26C242.168 45.58 242.276 46.02 242.276 46.58C242.276 47.316 242.076 47.936 241.676 48.44C241.276 48.952 240.7 49.332 239.948 49.58L239.588 48.752ZM267.59 48.488C268.35 47.8 268.906 47.068 269.258 46.292C269.61 45.516 269.786 44.64 269.786 43.664C269.786 42.688 269.61 41.812 269.258 41.036C268.906 40.26 268.35 39.528 267.59 38.84L268.358 38.204C269.166 38.876 269.802 39.668 270.266 40.58C270.738 41.492 270.974 42.52 270.974 43.664C270.974 44.808 270.738 45.836 270.266 46.748C269.802 47.66 269.166 48.452 268.358 49.124L267.59 48.488Z" fill="#2E383C"/>
<path d="M173.883 40.304L173.847 38.768H175.527L175.491 40.304L175.131 43.076H174.243L173.883 40.304ZM176.847 40.304L176.811 38.768H178.491L178.455 40.304L178.095 43.076H177.207L176.847 40.304ZM180.61 45.416C180.61 45.088 180.686 44.8 180.838 44.552C180.99 44.296 181.23 44.08 181.558 43.904C181.886 43.728 182.306 43.584 182.818 43.472C183.33 43.36 183.95 43.28 184.678 43.232C184.654 42.896 184.534 42.62 184.318 42.404C184.102 42.188 183.754 42.08 183.274 42.08C182.938 42.08 182.606 42.144 182.278 42.272C181.958 42.392 181.646 42.536 181.342 42.704L180.838 41.78C181.198 41.572 181.61 41.384 182.074 41.216C182.538 41.048 183.022 40.964 183.526 40.964C184.35 40.964 184.978 41.184 185.41 41.624C185.842 42.056 186.058 42.684 186.058 43.508V47H184.93L184.822 46.268H184.786C184.474 46.508 184.126 46.716 183.742 46.892C183.366 47.06 182.978 47.144 182.578 47.144C182.29 47.144 182.026 47.1 181.786 47.012C181.546 46.932 181.338 46.816 181.162 46.664C180.986 46.512 180.85 46.332 180.754 46.124C180.658 45.908 180.61 45.672 180.61 45.416ZM181.942 45.308C181.942 45.572 182.042 45.764 182.242 45.884C182.45 46.004 182.702 46.064 182.998 46.064C183.294 46.064 183.578 46 183.85 45.872C184.13 45.736 184.406 45.56 184.678 45.344V44.096C184.15 44.136 183.71 44.192 183.358 44.264C183.006 44.328 182.726 44.412 182.518 44.516C182.31 44.62 182.162 44.74 182.074 44.876C181.986 45.004 181.942 45.148 181.942 45.308ZM187.937 41.108H189.077L189.185 41.996H189.233C189.513 41.716 189.821 41.476 190.157 41.276C190.501 41.068 190.901 40.964 191.357 40.964C192.037 40.964 192.537 41.172 192.857 41.588C193.177 41.996 193.337 42.584 193.337 43.352V47H191.945V43.532C191.945 43.052 191.861 42.704 191.693 42.488C191.533 42.264 191.249 42.152 190.841 42.152C190.553 42.152 190.297 42.22 190.073 42.356C189.849 42.492 189.601 42.7 189.329 42.98V47H187.937V41.108ZM194.784 44.06C194.784 43.58 194.856 43.148 195 42.764C195.144 42.38 195.336 42.056 195.576 41.792C195.824 41.528 196.104 41.324 196.416 41.18C196.728 41.036 197.052 40.964 197.388 40.964C197.74 40.964 198.04 41.028 198.288 41.156C198.544 41.276 198.792 41.444 199.032 41.66L198.972 40.664V38.528H200.364V47H199.224L199.116 46.316H199.08C198.848 46.548 198.576 46.744 198.264 46.904C197.96 47.064 197.64 47.144 197.304 47.144C196.928 47.144 196.584 47.076 196.272 46.94C195.96 46.796 195.692 46.592 195.468 46.328C195.252 46.064 195.084 45.744 194.964 45.368C194.844 44.984 194.784 44.548 194.784 44.06ZM196.212 44.048C196.212 44.688 196.336 45.176 196.584 45.512C196.832 45.84 197.184 46.004 197.64 46.004C198.128 46.004 198.572 45.768 198.972 45.296V42.644C198.764 42.444 198.556 42.304 198.348 42.224C198.14 42.144 197.928 42.104 197.712 42.104C197.504 42.104 197.308 42.148 197.124 42.236C196.948 42.324 196.792 42.452 196.656 42.62C196.52 42.78 196.412 42.98 196.332 43.22C196.252 43.46 196.212 43.736 196.212 44.048ZM209.655 39.152H211.971C212.371 39.152 212.739 39.188 213.075 39.26C213.419 39.324 213.715 39.432 213.963 39.584C214.211 39.728 214.403 39.924 214.539 40.172C214.683 40.42 214.755 40.724 214.755 41.084C214.755 41.46 214.643 41.808 214.419 42.128C214.195 42.448 213.851 42.668 213.387 42.788V42.836C213.963 42.932 214.399 43.136 214.695 43.448C214.999 43.752 215.151 44.168 215.151 44.696C215.151 45.088 215.075 45.428 214.923 45.716C214.779 46.004 214.571 46.244 214.299 46.436C214.035 46.628 213.719 46.772 213.351 46.868C212.991 46.956 212.595 47 212.163 47H209.655V39.152ZM211.839 42.404C212.391 42.404 212.787 42.304 213.027 42.104C213.267 41.904 213.387 41.62 213.387 41.252C213.387 40.892 213.259 40.632 213.003 40.472C212.755 40.312 212.379 40.232 211.875 40.232H211.047V42.404H211.839ZM212.019 45.92C212.595 45.92 213.035 45.812 213.339 45.596C213.643 45.38 213.795 45.048 213.795 44.6C213.795 43.8 213.203 43.4 212.019 43.4H211.047V45.92H212.019ZM216.478 44.06C216.478 43.58 216.562 43.148 216.73 42.764C216.906 42.38 217.134 42.056 217.414 41.792C217.694 41.52 218.014 41.316 218.374 41.18C218.742 41.036 219.118 40.964 219.502 40.964C219.942 40.964 220.33 41.036 220.666 41.18C221.01 41.316 221.298 41.508 221.53 41.756C221.762 41.996 221.938 42.288 222.058 42.632C222.178 42.976 222.238 43.352 222.238 43.76C222.238 43.896 222.23 44.024 222.214 44.144C222.206 44.264 222.194 44.36 222.178 44.432H217.894C217.942 44.96 218.15 45.368 218.518 45.656C218.886 45.936 219.338 46.076 219.874 46.076C220.178 46.076 220.462 46.036 220.726 45.956C220.99 45.868 221.258 45.748 221.53 45.596L221.998 46.46C221.678 46.66 221.322 46.824 220.93 46.952C220.538 47.08 220.126 47.144 219.694 47.144C219.246 47.144 218.826 47.076 218.434 46.94C218.042 46.796 217.702 46.592 217.414 46.328C217.126 46.064 216.898 45.744 216.73 45.368C216.562 44.984 216.478 44.548 216.478 44.06ZM220.966 43.496C220.966 43.04 220.846 42.684 220.606 42.428C220.366 42.164 220.01 42.032 219.538 42.032C219.138 42.032 218.782 42.156 218.47 42.404C218.158 42.652 217.962 43.016 217.882 43.496H220.966ZM223.806 44.06C223.806 43.572 223.894 43.136 224.07 42.752C224.254 42.368 224.498 42.044 224.802 41.78C225.106 41.516 225.462 41.316 225.87 41.18C226.278 41.036 226.706 40.964 227.154 40.964C227.634 40.964 228.054 41.044 228.414 41.204C228.782 41.364 229.09 41.56 229.338 41.792L228.678 42.656C228.446 42.472 228.21 42.332 227.97 42.236C227.738 42.14 227.49 42.092 227.226 42.092C226.634 42.092 226.154 42.272 225.786 42.632C225.418 42.984 225.234 43.46 225.234 44.06C225.234 44.356 225.282 44.624 225.378 44.864C225.474 45.104 225.606 45.312 225.774 45.488C225.95 45.656 226.158 45.788 226.398 45.884C226.638 45.972 226.902 46.016 227.19 46.016C227.526 46.016 227.83 45.952 228.102 45.824C228.382 45.696 228.638 45.544 228.87 45.368L229.446 46.256C229.11 46.552 228.734 46.776 228.318 46.928C227.902 47.072 227.482 47.144 227.058 47.144C226.594 47.144 226.162 47.076 225.762 46.94C225.37 46.804 225.026 46.604 224.73 46.34C224.442 46.076 224.214 45.752 224.046 45.368C223.886 44.984 223.806 44.548 223.806 44.06ZM231.445 40.304L231.409 38.768H233.089L233.053 40.304L232.693 43.076H231.805L231.445 40.304ZM234.409 40.304L234.373 38.768H236.053L236.017 40.304L235.657 43.076H234.769L234.409 40.304ZM253.031 40.304L252.995 38.768H254.675L254.639 40.304L254.279 43.076H253.391L253.031 40.304ZM255.995 40.304L255.959 38.768H257.639L257.603 40.304L257.243 43.076H256.355L255.995 40.304ZM260.226 40.304L260.19 38.768H261.87L261.834 40.304L261.474 43.076H260.586L260.226 40.304ZM263.19 40.304L263.154 38.768H264.834L264.798 40.304L264.438 43.076H263.55L263.19 40.304Z" fill="#B82629"/>
</svg>
