<svg width="1332" height="756" viewBox="0 0 1332 756" fill="none" xmlns="http://www.w3.org/2000/svg">
<rect width="666" height="378" transform="scale(2)" fill="white"/>
<path d="M708.121 126.121C709.293 124.95 709.293 123.05 708.121 121.879L689.029 102.787C687.858 101.615 685.958 101.615 684.787 102.787C683.615 103.958 683.615 105.858 684.787 107.029L701.757 124L684.787 140.971C683.615 142.142 683.615 144.042 684.787 145.213C685.958 146.385 687.858 146.385 689.029 145.213L708.121 126.121ZM610 127H706V121H610V127Z" fill="#333333"/>
<path d="M388.121 120.121C389.293 118.95 389.293 117.05 388.121 115.879L369.029 96.7868C367.858 95.6152 365.958 95.6152 364.787 96.7868C363.615 97.9584 363.615 99.8579 364.787 101.029L381.757 118L364.787 134.971C363.615 136.142 363.615 138.042 364.787 139.213C365.958 140.385 367.858 140.385 369.029 139.213L388.121 120.121ZM290 121H386V115H290V121Z" fill="#333333"/>
<rect x="400.5" y="48.5" width="193" height="151" fill="#0072B2" stroke="black"/>
<path d="M420.922 110.465H413.762V118H411.512V100.938H422.082V102.789H413.762V108.625H420.922V110.465ZM423.605 111.543C423.605 110.301 423.848 109.184 424.332 108.191C424.824 107.199 425.504 106.434 426.371 105.895C427.246 105.355 428.242 105.086 429.359 105.086C431.086 105.086 432.48 105.684 433.543 106.879C434.613 108.074 435.148 109.664 435.148 111.648V111.801C435.148 113.035 434.91 114.145 434.434 115.129C433.965 116.105 433.289 116.867 432.406 117.414C431.531 117.961 430.523 118.234 429.383 118.234C427.664 118.234 426.27 117.637 425.199 116.441C424.137 115.246 423.605 113.664 423.605 111.695V111.543ZM425.785 111.801C425.785 113.207 426.109 114.336 426.758 115.188C427.414 116.039 428.289 116.465 429.383 116.465C430.484 116.465 431.359 116.035 432.008 115.176C432.656 114.309 432.98 113.098 432.98 111.543C432.98 110.152 432.648 109.027 431.984 108.168C431.328 107.301 430.453 106.867 429.359 106.867C428.289 106.867 427.426 107.293 426.77 108.145C426.113 108.996 425.785 110.215 425.785 111.801ZM443.996 107.266C443.668 107.211 443.312 107.184 442.93 107.184C441.508 107.184 440.543 107.789 440.035 109V118H437.867V105.32H439.977L440.012 106.785C440.723 105.652 441.73 105.086 443.035 105.086C443.457 105.086 443.777 105.141 443.996 105.25V107.266ZM457.215 118.234C455.496 118.234 454.098 117.672 453.02 116.547C451.941 115.414 451.402 113.902 451.402 112.012V111.613C451.402 110.355 451.641 109.234 452.117 108.25C452.602 107.258 453.273 106.484 454.133 105.93C455 105.367 455.938 105.086 456.945 105.086C458.594 105.086 459.875 105.629 460.789 106.715C461.703 107.801 462.16 109.355 462.16 111.379V112.281H453.57C453.602 113.531 453.965 114.543 454.66 115.316C455.363 116.082 456.254 116.465 457.332 116.465C458.098 116.465 458.746 116.309 459.277 115.996C459.809 115.684 460.273 115.27 460.672 114.754L461.996 115.785C460.934 117.418 459.34 118.234 457.215 118.234ZM456.945 106.867C456.07 106.867 455.336 107.188 454.742 107.828C454.148 108.461 453.781 109.352 453.641 110.5H459.992V110.336C459.93 109.234 459.633 108.383 459.102 107.781C458.57 107.172 457.852 106.867 456.945 106.867ZM472.508 118C472.383 117.75 472.281 117.305 472.203 116.664C471.195 117.711 469.992 118.234 468.594 118.234C467.344 118.234 466.316 117.883 465.512 117.18C464.715 116.469 464.316 115.57 464.316 114.484C464.316 113.164 464.816 112.141 465.816 111.414C466.824 110.68 468.238 110.312 470.059 110.312H472.168V109.316C472.168 108.559 471.941 107.957 471.488 107.512C471.035 107.059 470.367 106.832 469.484 106.832C468.711 106.832 468.062 107.027 467.539 107.418C467.016 107.809 466.754 108.281 466.754 108.836H464.574C464.574 108.203 464.797 107.594 465.242 107.008C465.695 106.414 466.305 105.945 467.07 105.602C467.844 105.258 468.691 105.086 469.613 105.086C471.074 105.086 472.219 105.453 473.047 106.188C473.875 106.914 474.305 107.918 474.336 109.199V115.035C474.336 116.199 474.484 117.125 474.781 117.812V118H472.508ZM468.91 116.348C469.59 116.348 470.234 116.172 470.844 115.82C471.453 115.469 471.895 115.012 472.168 114.449V111.848H470.469C467.812 111.848 466.484 112.625 466.484 114.18C466.484 114.859 466.711 115.391 467.164 115.773C467.617 116.156 468.199 116.348 468.91 116.348ZM482.82 116.465C483.594 116.465 484.27 116.23 484.848 115.762C485.426 115.293 485.746 114.707 485.809 114.004H487.859C487.82 114.73 487.57 115.422 487.109 116.078C486.648 116.734 486.031 117.258 485.258 117.648C484.492 118.039 483.68 118.234 482.82 118.234C481.094 118.234 479.719 117.66 478.695 116.512C477.68 115.355 477.172 113.777 477.172 111.777V111.414C477.172 110.18 477.398 109.082 477.852 108.121C478.305 107.16 478.953 106.414 479.797 105.883C480.648 105.352 481.652 105.086 482.809 105.086C484.23 105.086 485.41 105.512 486.348 106.363C487.293 107.215 487.797 108.32 487.859 109.68H485.809C485.746 108.859 485.434 108.188 484.871 107.664C484.316 107.133 483.629 106.867 482.809 106.867C481.707 106.867 480.852 107.266 480.242 108.062C479.641 108.852 479.34 109.996 479.34 111.496V111.906C479.34 113.367 479.641 114.492 480.242 115.281C480.844 116.07 481.703 116.465 482.82 116.465ZM492.465 106.855C493.426 105.676 494.676 105.086 496.215 105.086C498.895 105.086 500.246 106.598 500.27 109.621V118H498.102V109.609C498.094 108.695 497.883 108.02 497.469 107.582C497.062 107.145 496.426 106.926 495.559 106.926C494.855 106.926 494.238 107.113 493.707 107.488C493.176 107.863 492.762 108.355 492.465 108.965V118H490.297V100H492.465V106.855ZM513.652 115.059L516.793 105.32H519.008L514.461 118H512.809L508.215 105.32H510.43L513.652 115.059ZM528.734 118C528.609 117.75 528.508 117.305 528.43 116.664C527.422 117.711 526.219 118.234 524.82 118.234C523.57 118.234 522.543 117.883 521.738 117.18C520.941 116.469 520.543 115.57 520.543 114.484C520.543 113.164 521.043 112.141 522.043 111.414C523.051 110.68 524.465 110.312 526.285 110.312H528.395V109.316C528.395 108.559 528.168 107.957 527.715 107.512C527.262 107.059 526.594 106.832 525.711 106.832C524.938 106.832 524.289 107.027 523.766 107.418C523.242 107.809 522.98 108.281 522.98 108.836H520.801C520.801 108.203 521.023 107.594 521.469 107.008C521.922 106.414 522.531 105.945 523.297 105.602C524.07 105.258 524.918 105.086 525.84 105.086C527.301 105.086 528.445 105.453 529.273 106.188C530.102 106.914 530.531 107.918 530.562 109.199V115.035C530.562 116.199 530.711 117.125 531.008 117.812V118H528.734ZM525.137 116.348C525.816 116.348 526.461 116.172 527.07 115.82C527.68 115.469 528.121 115.012 528.395 114.449V111.848H526.695C524.039 111.848 522.711 112.625 522.711 114.18C522.711 114.859 522.938 115.391 523.391 115.773C523.844 116.156 524.426 116.348 525.137 116.348ZM536.316 118H534.148V100H536.316V118ZM547.625 116.746C546.781 117.738 545.543 118.234 543.91 118.234C542.559 118.234 541.527 117.844 540.816 117.062C540.113 116.273 539.758 115.109 539.75 113.57V105.32H541.918V113.512C541.918 115.434 542.699 116.395 544.262 116.395C545.918 116.395 547.02 115.777 547.566 114.543V105.32H549.734V118H547.672L547.625 116.746ZM558.301 118.234C556.582 118.234 555.184 117.672 554.105 116.547C553.027 115.414 552.488 113.902 552.488 112.012V111.613C552.488 110.355 552.727 109.234 553.203 108.25C553.688 107.258 554.359 106.484 555.219 105.93C556.086 105.367 557.023 105.086 558.031 105.086C559.68 105.086 560.961 105.629 561.875 106.715C562.789 107.801 563.246 109.355 563.246 111.379V112.281H554.656C554.688 113.531 555.051 114.543 555.746 115.316C556.449 116.082 557.34 116.465 558.418 116.465C559.184 116.465 559.832 116.309 560.363 115.996C560.895 115.684 561.359 115.27 561.758 114.754L563.082 115.785C562.02 117.418 560.426 118.234 558.301 118.234ZM558.031 106.867C557.156 106.867 556.422 107.188 555.828 107.828C555.234 108.461 554.867 109.352 554.727 110.5H561.078V110.336C561.016 109.234 560.719 108.383 560.188 107.781C559.656 107.172 558.938 106.867 558.031 106.867ZM583.494 102.784C583.014 102.56 582.566 102.416 582.15 102.352C581.75 102.272 581.294 102.232 580.782 102.232C579.726 102.232 578.966 102.504 578.502 103.048C578.054 103.576 577.83 104.32 577.83 105.28V106.336H582.726V107.944H577.83V118H575.886V107.944H572.55V106.456L575.886 106.336V105.352C575.886 103.928 576.262 102.784 577.014 101.92C577.782 101.056 578.974 100.624 580.59 100.624C581.742 100.624 582.862 100.848 583.95 101.296L583.494 102.784ZM445.309 148H443.141V135.32H445.309V148ZM442.965 131.957C442.965 131.605 443.07 131.309 443.281 131.066C443.5 130.824 443.82 130.703 444.242 130.703C444.664 130.703 444.984 130.824 445.203 131.066C445.422 131.309 445.531 131.605 445.531 131.957C445.531 132.309 445.422 132.602 445.203 132.836C444.984 133.07 444.664 133.188 444.242 133.188C443.82 133.188 443.5 133.07 443.281 132.836C443.07 132.602 442.965 132.309 442.965 131.957ZM450.84 135.32L450.91 136.914C451.879 135.695 453.145 135.086 454.707 135.086C457.387 135.086 458.738 136.598 458.762 139.621V148H456.594V139.609C456.586 138.695 456.375 138.02 455.961 137.582C455.555 137.145 454.918 136.926 454.051 136.926C453.348 136.926 452.73 137.113 452.199 137.488C451.668 137.863 451.254 138.355 450.957 138.965V148H448.789V135.32H450.84ZM479.76 132.784C479.28 132.56 478.832 132.416 478.416 132.352C478.016 132.272 477.56 132.232 477.048 132.232C475.992 132.232 475.232 132.504 474.768 133.048C474.32 133.576 474.096 134.32 474.096 135.28V136.336H478.992V137.944H474.096V148H472.152V137.944H468.816V136.456L472.152 136.336V135.352C472.152 133.928 472.528 132.784 473.28 131.92C474.048 131.056 475.24 130.624 476.856 130.624C478.008 130.624 479.128 130.848 480.216 131.296L479.76 132.784ZM484.238 136.336H485.87L486.038 139.096H486.11C486.718 138.152 487.462 137.408 488.342 136.864C489.238 136.32 490.23 136.048 491.318 136.048C491.75 136.048 492.15 136.088 492.518 136.168C492.886 136.232 493.254 136.352 493.622 136.528L493.166 138.232C492.75 138.088 492.398 137.984 492.11 137.92C491.838 137.856 491.47 137.824 491.006 137.824C490.126 137.824 489.278 138.08 488.462 138.592C487.662 139.088 486.91 139.944 486.206 141.16V148H484.238V136.336ZM507.245 148H505.637L505.469 145.96H505.373C504.781 146.648 504.133 147.208 503.429 147.64C502.741 148.072 501.941 148.288 501.029 148.288C499.621 148.288 498.589 147.896 497.933 147.112C497.293 146.312 496.973 145.136 496.973 143.584V136.336H498.965V143.32C498.965 144.424 499.165 145.248 499.565 145.792C499.981 146.32 500.677 146.584 501.653 146.584C502.325 146.584 502.933 146.416 503.477 146.08C504.021 145.728 504.621 145.176 505.277 144.424V136.336H507.245V148ZM511.676 136.336H519.068V148H517.1V137.944H511.676V136.336ZM517.868 133.936C517.404 133.936 517.02 133.8 516.716 133.528C516.428 133.256 516.284 132.888 516.284 132.424C516.284 131.96 516.428 131.592 516.716 131.32C517.02 131.032 517.404 130.888 517.868 130.888C518.316 130.888 518.692 131.032 518.996 131.32C519.3 131.592 519.452 131.96 519.452 132.424C519.452 132.888 519.3 133.256 518.996 133.528C518.692 133.8 518.316 133.936 517.868 133.936ZM528.85 137.944H525.562V136.456L528.922 136.336L529.186 133.072H530.818V136.336H536.554V137.944H530.818V143.488C530.818 144.016 530.866 144.48 530.962 144.88C531.058 145.264 531.218 145.592 531.442 145.864C531.666 146.136 531.97 146.344 532.354 146.488C532.738 146.616 533.21 146.68 533.77 146.68C534.33 146.68 534.834 146.632 535.282 146.536C535.73 146.44 536.162 146.312 536.578 146.152L537.01 147.592C536.482 147.784 535.898 147.944 535.258 148.072C534.618 148.216 533.978 148.288 533.338 148.288C532.49 148.288 531.778 148.176 531.202 147.952C530.626 147.712 530.162 147.384 529.81 146.968C529.474 146.536 529.226 146.024 529.066 145.432C528.922 144.84 528.85 144.184 528.85 143.464V137.944ZM540.985 145.168C541.641 145.648 542.345 146.032 543.097 146.32C543.849 146.608 544.753 146.752 545.809 146.752C546.865 146.752 547.649 146.576 548.161 146.224C548.673 145.872 548.929 145.44 548.929 144.928C548.929 144.48 548.649 144.08 548.089 143.728C547.545 143.376 546.561 143.024 545.137 142.672C544.529 142.528 543.953 142.352 543.409 142.144C542.881 141.936 542.417 141.696 542.017 141.424C541.617 141.136 541.297 140.824 541.057 140.488C540.817 140.152 540.697 139.776 540.697 139.36C540.697 138.896 540.801 138.464 541.009 138.064C541.217 137.648 541.521 137.296 541.921 137.008C542.337 136.704 542.849 136.472 543.457 136.312C544.081 136.136 544.793 136.048 545.593 136.048C546.473 136.048 547.329 136.2 548.161 136.504C548.993 136.792 549.697 137.136 550.273 137.536L549.313 138.808C548.801 138.44 548.233 138.144 547.609 137.92C546.985 137.696 546.313 137.584 545.593 137.584C545.049 137.584 544.593 137.632 544.225 137.728C543.857 137.808 543.561 137.928 543.337 138.088C543.113 138.232 542.953 138.408 542.857 138.616C542.761 138.824 542.713 139.04 542.713 139.264C542.713 139.744 543.041 140.144 543.697 140.464C544.353 140.768 545.209 141.056 546.265 141.328C547.849 141.728 549.017 142.184 549.769 142.696C550.537 143.208 550.921 143.912 550.921 144.808C550.921 145.288 550.809 145.736 550.585 146.152C550.361 146.568 550.025 146.936 549.577 147.256C549.145 147.576 548.601 147.824 547.945 148C547.305 148.192 546.569 148.288 545.737 148.288C544.585 148.288 543.521 148.112 542.545 147.76C541.585 147.392 540.745 146.96 540.025 146.464L540.985 145.168Z" fill="black"/>
<rect x="82.5" y="48.5" width="193" height="151" fill="#27AE60" stroke="black"/>
<path d="M106.25 98.5859C106.039 100.391 105.371 101.785 104.246 102.77C103.129 103.746 101.641 104.234 99.7812 104.234C97.7656 104.234 96.1484 103.512 94.9297 102.066C93.7188 100.621 93.1133 98.6875 93.1133 96.2656V94.625C93.1133 93.0391 93.3945 91.6445 93.957 90.4414C94.5273 89.2383 95.332 88.3164 96.3711 87.6758C97.4102 87.0273 98.6133 86.7031 99.9805 86.7031C101.793 86.7031 103.246 87.2109 104.34 88.2266C105.434 89.2344 106.07 90.6328 106.25 92.4219H103.988C103.793 91.0625 103.367 90.0781 102.711 89.4688C102.062 88.8594 101.152 88.5547 99.9805 88.5547C98.543 88.5547 97.4141 89.0859 96.5938 90.1484C95.7812 91.2109 95.375 92.7227 95.375 94.6836V96.3359C95.375 98.1875 95.7617 99.6602 96.5352 100.754C97.3086 101.848 98.3906 102.395 99.7812 102.395C101.031 102.395 101.988 102.113 102.652 101.551C103.324 100.98 103.77 99.9922 103.988 98.5859H106.25ZM115.121 93.2656C114.793 93.2109 114.438 93.1836 114.055 93.1836C112.633 93.1836 111.668 93.7891 111.16 95V104H108.992V91.3203H111.102L111.137 92.7852C111.848 91.6523 112.855 91.0859 114.16 91.0859C114.582 91.0859 114.902 91.1406 115.121 91.25V93.2656ZM122.152 104.234C120.434 104.234 119.035 103.672 117.957 102.547C116.879 101.414 116.34 99.9023 116.34 98.0117V97.6133C116.34 96.3555 116.578 95.2344 117.055 94.25C117.539 93.2578 118.211 92.4844 119.07 91.9297C119.938 91.3672 120.875 91.0859 121.883 91.0859C123.531 91.0859 124.812 91.6289 125.727 92.7148C126.641 93.8008 127.098 95.3555 127.098 97.3789V98.2812H118.508C118.539 99.5312 118.902 100.543 119.598 101.316C120.301 102.082 121.191 102.465 122.27 102.465C123.035 102.465 123.684 102.309 124.215 101.996C124.746 101.684 125.211 101.27 125.609 100.754L126.934 101.785C125.871 103.418 124.277 104.234 122.152 104.234ZM121.883 92.8672C121.008 92.8672 120.273 93.1875 119.68 93.8281C119.086 94.4609 118.719 95.3516 118.578 96.5H124.93V96.3359C124.867 95.2344 124.57 94.3828 124.039 93.7812C123.508 93.1719 122.789 92.8672 121.883 92.8672ZM137.445 104C137.32 103.75 137.219 103.305 137.141 102.664C136.133 103.711 134.93 104.234 133.531 104.234C132.281 104.234 131.254 103.883 130.449 103.18C129.652 102.469 129.254 101.57 129.254 100.484C129.254 99.1641 129.754 98.1406 130.754 97.4141C131.762 96.6797 133.176 96.3125 134.996 96.3125H137.105V95.3164C137.105 94.5586 136.879 93.957 136.426 93.5117C135.973 93.0586 135.305 92.832 134.422 92.832C133.648 92.832 133 93.0273 132.477 93.418C131.953 93.8086 131.691 94.2812 131.691 94.8359H129.512C129.512 94.2031 129.734 93.5938 130.18 93.0078C130.633 92.4141 131.242 91.9453 132.008 91.6016C132.781 91.2578 133.629 91.0859 134.551 91.0859C136.012 91.0859 137.156 91.4531 137.984 92.1875C138.812 92.9141 139.242 93.918 139.273 95.1992V101.035C139.273 102.199 139.422 103.125 139.719 103.812V104H137.445ZM133.848 102.348C134.527 102.348 135.172 102.172 135.781 101.82C136.391 101.469 136.832 101.012 137.105 100.449V97.8477H135.406C132.75 97.8477 131.422 98.625 131.422 100.18C131.422 100.859 131.648 101.391 132.102 101.773C132.555 102.156 133.137 102.348 133.848 102.348ZM145.613 88.25V91.3203H147.98V92.9961H145.613V100.859C145.613 101.367 145.719 101.75 145.93 102.008C146.141 102.258 146.5 102.383 147.008 102.383C147.258 102.383 147.602 102.336 148.039 102.242V104C147.469 104.156 146.914 104.234 146.375 104.234C145.406 104.234 144.676 103.941 144.184 103.355C143.691 102.77 143.445 101.938 143.445 100.859V92.9961H141.137V91.3203H143.445V88.25H145.613ZM155.785 104.234C154.066 104.234 152.668 103.672 151.59 102.547C150.512 101.414 149.973 99.9023 149.973 98.0117V97.6133C149.973 96.3555 150.211 95.2344 150.688 94.25C151.172 93.2578 151.844 92.4844 152.703 91.9297C153.57 91.3672 154.508 91.0859 155.516 91.0859C157.164 91.0859 158.445 91.6289 159.359 92.7148C160.273 93.8008 160.73 95.3555 160.73 97.3789V98.2812H152.141C152.172 99.5312 152.535 100.543 153.23 101.316C153.934 102.082 154.824 102.465 155.902 102.465C156.668 102.465 157.316 102.309 157.848 101.996C158.379 101.684 158.844 101.27 159.242 100.754L160.566 101.785C159.504 103.418 157.91 104.234 155.785 104.234ZM155.516 92.8672C154.641 92.8672 153.906 93.1875 153.312 93.8281C152.719 94.4609 152.352 95.3516 152.211 96.5H158.562V96.3359C158.5 95.2344 158.203 94.3828 157.672 93.7812C157.141 93.1719 156.422 92.8672 155.516 92.8672ZM177.031 104C176.906 103.75 176.805 103.305 176.727 102.664C175.719 103.711 174.516 104.234 173.117 104.234C171.867 104.234 170.84 103.883 170.035 103.18C169.238 102.469 168.84 101.57 168.84 100.484C168.84 99.1641 169.34 98.1406 170.34 97.4141C171.348 96.6797 172.762 96.3125 174.582 96.3125H176.691V95.3164C176.691 94.5586 176.465 93.957 176.012 93.5117C175.559 93.0586 174.891 92.832 174.008 92.832C173.234 92.832 172.586 93.0273 172.062 93.418C171.539 93.8086 171.277 94.2812 171.277 94.8359H169.098C169.098 94.2031 169.32 93.5938 169.766 93.0078C170.219 92.4141 170.828 91.9453 171.594 91.6016C172.367 91.2578 173.215 91.0859 174.137 91.0859C175.598 91.0859 176.742 91.4531 177.57 92.1875C178.398 92.9141 178.828 93.918 178.859 95.1992V101.035C178.859 102.199 179.008 103.125 179.305 103.812V104H177.031ZM173.434 102.348C174.113 102.348 174.758 102.172 175.367 101.82C175.977 101.469 176.418 101.012 176.691 100.449V97.8477H174.992C172.336 97.8477 171.008 98.625 171.008 100.18C171.008 100.859 171.234 101.391 171.688 101.773C172.141 102.156 172.723 102.348 173.434 102.348ZM184.309 91.3203L184.379 92.9141C185.348 91.6953 186.613 91.0859 188.176 91.0859C190.855 91.0859 192.207 92.5977 192.23 95.6211V104H190.062V95.6094C190.055 94.6953 189.844 94.0195 189.43 93.582C189.023 93.1445 188.387 92.9258 187.52 92.9258C186.816 92.9258 186.199 93.1133 185.668 93.4883C185.137 93.8633 184.723 94.3555 184.426 94.9648V104H182.258V91.3203H184.309ZM206.715 104.234C204.996 104.234 203.598 103.672 202.52 102.547C201.441 101.414 200.902 99.9023 200.902 98.0117V97.6133C200.902 96.3555 201.141 95.2344 201.617 94.25C202.102 93.2578 202.773 92.4844 203.633 91.9297C204.5 91.3672 205.438 91.0859 206.445 91.0859C208.094 91.0859 209.375 91.6289 210.289 92.7148C211.203 93.8008 211.66 95.3555 211.66 97.3789V98.2812H203.07C203.102 99.5312 203.465 100.543 204.16 101.316C204.863 102.082 205.754 102.465 206.832 102.465C207.598 102.465 208.246 102.309 208.777 101.996C209.309 101.684 209.773 101.27 210.172 100.754L211.496 101.785C210.434 103.418 208.84 104.234 206.715 104.234ZM206.445 92.8672C205.57 92.8672 204.836 93.1875 204.242 93.8281C203.648 94.4609 203.281 95.3516 203.141 96.5H209.492V96.3359C209.43 95.2344 209.133 94.3828 208.602 93.7812C208.07 93.1719 207.352 92.8672 206.445 92.8672ZM216.219 91.3203L216.277 92.7266C217.207 91.6328 218.461 91.0859 220.039 91.0859C221.812 91.0859 223.02 91.7656 223.66 93.125C224.082 92.5156 224.629 92.0234 225.301 91.6484C225.98 91.2734 226.781 91.0859 227.703 91.0859C230.484 91.0859 231.898 92.5586 231.945 95.5039V104H229.777V95.6328C229.777 94.7266 229.57 94.0508 229.156 93.6055C228.742 93.1523 228.047 92.9258 227.07 92.9258C226.266 92.9258 225.598 93.168 225.066 93.6523C224.535 94.1289 224.227 94.7734 224.141 95.5859V104H221.961V95.6914C221.961 93.8477 221.059 92.9258 219.254 92.9258C217.832 92.9258 216.859 93.5312 216.336 94.7422V104H214.168V91.3203H216.219ZM245.938 97.8008C245.938 99.7305 245.496 101.285 244.613 102.465C243.73 103.645 242.535 104.234 241.027 104.234C239.488 104.234 238.277 103.746 237.395 102.77V108.875H235.227V91.3203H237.207L237.312 92.7266C238.195 91.6328 239.422 91.0859 240.992 91.0859C242.516 91.0859 243.719 91.6602 244.602 92.8086C245.492 93.957 245.938 95.5547 245.938 97.6016V97.8008ZM243.77 97.5547C243.77 96.125 243.465 94.9961 242.855 94.168C242.246 93.3398 241.41 92.9258 240.348 92.9258C239.035 92.9258 238.051 93.5078 237.395 94.6719V100.73C238.043 101.887 239.035 102.465 240.371 102.465C241.41 102.465 242.234 102.055 242.844 101.234C243.461 100.406 243.77 99.1797 243.77 97.5547ZM251.645 88.25V91.3203H254.012V92.9961H251.645V100.859C251.645 101.367 251.75 101.75 251.961 102.008C252.172 102.258 252.531 102.383 253.039 102.383C253.289 102.383 253.633 102.336 254.07 102.242V104C253.5 104.156 252.945 104.234 252.406 104.234C251.438 104.234 250.707 103.941 250.215 103.355C249.723 102.77 249.477 101.938 249.477 100.859V92.9961H247.168V91.3203H249.477V88.25H251.645ZM260.703 100.824L263.656 91.3203H265.977L260.879 105.957C260.09 108.066 258.836 109.121 257.117 109.121L256.707 109.086L255.898 108.934V107.176L256.484 107.223C257.219 107.223 257.789 107.074 258.195 106.777C258.609 106.48 258.949 105.938 259.215 105.148L259.695 103.859L255.172 91.3203H257.539L260.703 100.824ZM127.449 125.555C127.449 123.609 127.91 122.047 128.832 120.867C129.754 119.68 130.961 119.086 132.453 119.086C133.938 119.086 135.113 119.594 135.98 120.609V114H138.148V132H136.156L136.051 130.641C135.184 131.703 133.977 132.234 132.43 132.234C130.961 132.234 129.762 131.633 128.832 130.43C127.91 129.227 127.449 127.656 127.449 125.719V125.555ZM129.617 125.801C129.617 127.238 129.914 128.363 130.508 129.176C131.102 129.988 131.922 130.395 132.969 130.395C134.344 130.395 135.348 129.777 135.98 128.543V122.719C135.332 121.523 134.336 120.926 132.992 120.926C131.93 120.926 131.102 121.336 130.508 122.156C129.914 122.977 129.617 124.191 129.617 125.801ZM143.879 132H141.711V119.32H143.879V132ZM141.535 115.957C141.535 115.605 141.641 115.309 141.852 115.066C142.07 114.824 142.391 114.703 142.812 114.703C143.234 114.703 143.555 114.824 143.773 115.066C143.992 115.309 144.102 115.605 144.102 115.957C144.102 116.309 143.992 116.602 143.773 116.836C143.555 117.07 143.234 117.188 142.812 117.188C142.391 117.188 142.07 117.07 141.852 116.836C141.641 116.602 141.535 116.309 141.535 115.957ZM152.445 130.465C153.219 130.465 153.895 130.23 154.473 129.762C155.051 129.293 155.371 128.707 155.434 128.004H157.484C157.445 128.73 157.195 129.422 156.734 130.078C156.273 130.734 155.656 131.258 154.883 131.648C154.117 132.039 153.305 132.234 152.445 132.234C150.719 132.234 149.344 131.66 148.32 130.512C147.305 129.355 146.797 127.777 146.797 125.777V125.414C146.797 124.18 147.023 123.082 147.477 122.121C147.93 121.16 148.578 120.414 149.422 119.883C150.273 119.352 151.277 119.086 152.434 119.086C153.855 119.086 155.035 119.512 155.973 120.363C156.918 121.215 157.422 122.32 157.484 123.68H155.434C155.371 122.859 155.059 122.188 154.496 121.664C153.941 121.133 153.254 120.867 152.434 120.867C151.332 120.867 150.477 121.266 149.867 122.062C149.266 122.852 148.965 123.996 148.965 125.496V125.906C148.965 127.367 149.266 128.492 149.867 129.281C150.469 130.07 151.328 130.465 152.445 130.465ZM162.863 116.25V119.32H165.23V120.996H162.863V128.859C162.863 129.367 162.969 129.75 163.18 130.008C163.391 130.258 163.75 130.383 164.258 130.383C164.508 130.383 164.852 130.336 165.289 130.242V132C164.719 132.156 164.164 132.234 163.625 132.234C162.656 132.234 161.926 131.941 161.434 131.355C160.941 130.77 160.695 129.938 160.695 128.859V120.996H158.387V119.32H160.695V116.25H162.863ZM170.129 132H167.961V119.32H170.129V132ZM167.785 115.957C167.785 115.605 167.891 115.309 168.102 115.066C168.32 114.824 168.641 114.703 169.062 114.703C169.484 114.703 169.805 114.824 170.023 115.066C170.242 115.309 170.352 115.605 170.352 115.957C170.352 116.309 170.242 116.602 170.023 116.836C169.805 117.07 169.484 117.188 169.062 117.188C168.641 117.188 168.32 117.07 168.102 116.836C167.891 116.602 167.785 116.309 167.785 115.957ZM173.035 125.543C173.035 124.301 173.277 123.184 173.762 122.191C174.254 121.199 174.934 120.434 175.801 119.895C176.676 119.355 177.672 119.086 178.789 119.086C180.516 119.086 181.91 119.684 182.973 120.879C184.043 122.074 184.578 123.664 184.578 125.648V125.801C184.578 127.035 184.34 128.145 183.863 129.129C183.395 130.105 182.719 130.867 181.836 131.414C180.961 131.961 179.953 132.234 178.812 132.234C177.094 132.234 175.699 131.637 174.629 130.441C173.566 129.246 173.035 127.664 173.035 125.695V125.543ZM175.215 125.801C175.215 127.207 175.539 128.336 176.188 129.188C176.844 130.039 177.719 130.465 178.812 130.465C179.914 130.465 180.789 130.035 181.438 129.176C182.086 128.309 182.41 127.098 182.41 125.543C182.41 124.152 182.078 123.027 181.414 122.168C180.758 121.301 179.883 120.867 178.789 120.867C177.719 120.867 176.855 121.293 176.199 122.145C175.543 122.996 175.215 124.215 175.215 125.801ZM189.348 119.32L189.418 120.914C190.387 119.695 191.652 119.086 193.215 119.086C195.895 119.086 197.246 120.598 197.27 123.621V132H195.102V123.609C195.094 122.695 194.883 122.02 194.469 121.582C194.062 121.145 193.426 120.926 192.559 120.926C191.855 120.926 191.238 121.113 190.707 121.488C190.176 121.863 189.762 122.355 189.465 122.965V132H187.297V119.32H189.348ZM208.367 132C208.242 131.75 208.141 131.305 208.062 130.664C207.055 131.711 205.852 132.234 204.453 132.234C203.203 132.234 202.176 131.883 201.371 131.18C200.574 130.469 200.176 129.57 200.176 128.484C200.176 127.164 200.676 126.141 201.676 125.414C202.684 124.68 204.098 124.312 205.918 124.312H208.027V123.316C208.027 122.559 207.801 121.957 207.348 121.512C206.895 121.059 206.227 120.832 205.344 120.832C204.57 120.832 203.922 121.027 203.398 121.418C202.875 121.809 202.613 122.281 202.613 122.836H200.434C200.434 122.203 200.656 121.594 201.102 121.008C201.555 120.414 202.164 119.945 202.93 119.602C203.703 119.258 204.551 119.086 205.473 119.086C206.934 119.086 208.078 119.453 208.906 120.188C209.734 120.914 210.164 121.918 210.195 123.199V129.035C210.195 130.199 210.344 131.125 210.641 131.812V132H208.367ZM204.77 130.348C205.449 130.348 206.094 130.172 206.703 129.82C207.312 129.469 207.754 129.012 208.027 128.449V125.848H206.328C203.672 125.848 202.344 126.625 202.344 128.18C202.344 128.859 202.57 129.391 203.023 129.773C203.477 130.156 204.059 130.348 204.77 130.348ZM219.723 121.266C219.395 121.211 219.039 121.184 218.656 121.184C217.234 121.184 216.27 121.789 215.762 123V132H213.594V119.32H215.703L215.738 120.785C216.449 119.652 217.457 119.086 218.762 119.086C219.184 119.086 219.504 119.141 219.723 119.25V121.266ZM226.086 128.824L229.039 119.32H231.359L226.262 133.957C225.473 136.066 224.219 137.121 222.5 137.121L222.09 137.086L221.281 136.934V135.176L221.867 135.223C222.602 135.223 223.172 135.074 223.578 134.777C223.992 134.48 224.332 133.938 224.598 133.148L225.078 131.859L220.555 119.32H222.922L226.086 128.824ZM120.463 144.784C119.983 144.56 119.535 144.416 119.119 144.352C118.719 144.272 118.263 144.232 117.751 144.232C116.695 144.232 115.935 144.504 115.471 145.048C115.023 145.576 114.799 146.32 114.799 147.28V148.336H119.695V149.944H114.799V160H112.855V149.944H109.519V148.456L112.855 148.336V147.352C112.855 145.928 113.231 144.784 113.983 143.92C114.751 143.056 115.943 142.624 117.559 142.624C118.711 142.624 119.831 142.848 120.919 143.296L120.463 144.784ZM124.942 148.336H126.574L126.742 151.096H126.814C127.422 150.152 128.166 149.408 129.046 148.864C129.942 148.32 130.934 148.048 132.022 148.048C132.454 148.048 132.854 148.088 133.222 148.168C133.59 148.232 133.957 148.352 134.326 148.528L133.87 150.232C133.454 150.088 133.102 149.984 132.814 149.92C132.542 149.856 132.174 149.824 131.71 149.824C130.83 149.824 129.982 150.08 129.166 150.592C128.366 151.088 127.614 151.944 126.91 153.16V160H124.942V148.336ZM147.948 160H146.34L146.172 157.96H146.076C145.484 158.648 144.836 159.208 144.132 159.64C143.444 160.072 142.644 160.288 141.732 160.288C140.324 160.288 139.292 159.896 138.636 159.112C137.996 158.312 137.676 157.136 137.676 155.584V148.336H139.668V155.32C139.668 156.424 139.868 157.248 140.268 157.792C140.684 158.32 141.38 158.584 142.356 158.584C143.028 158.584 143.636 158.416 144.18 158.08C144.724 157.728 145.324 157.176 145.98 156.424V148.336H147.948V160ZM152.379 148.336H159.771V160H157.803V149.944H152.379V148.336ZM158.571 145.936C158.107 145.936 157.723 145.8 157.419 145.528C157.131 145.256 156.987 144.888 156.987 144.424C156.987 143.96 157.131 143.592 157.419 143.32C157.723 143.032 158.107 142.888 158.571 142.888C159.019 142.888 159.395 143.032 159.699 143.32C160.003 143.592 160.155 143.96 160.155 144.424C160.155 144.888 160.003 145.256 159.699 145.528C159.395 145.8 159.019 145.936 158.571 145.936ZM169.553 149.944H166.265V148.456L169.625 148.336L169.889 145.072H171.521V148.336H177.257V149.944H171.521V155.488C171.521 156.016 171.569 156.48 171.665 156.88C171.761 157.264 171.921 157.592 172.145 157.864C172.369 158.136 172.673 158.344 173.057 158.488C173.441 158.616 173.913 158.68 174.473 158.68C175.033 158.68 175.537 158.632 175.985 158.536C176.433 158.44 176.865 158.312 177.281 158.152L177.713 159.592C177.185 159.784 176.601 159.944 175.961 160.072C175.321 160.216 174.681 160.288 174.041 160.288C173.193 160.288 172.481 160.176 171.905 159.952C171.329 159.712 170.865 159.384 170.513 158.968C170.177 158.536 169.929 158.024 169.769 157.432C169.625 156.84 169.553 156.184 169.553 155.464V149.944ZM191.96 161.656V163.36H180.44V161.656H191.96ZM206.807 144.784C206.327 144.56 205.879 144.416 205.463 144.352C205.063 144.272 204.607 144.232 204.095 144.232C203.039 144.232 202.279 144.504 201.815 145.048C201.367 145.576 201.143 146.32 201.143 147.28V148.336H206.039V149.944H201.143V160H199.199V149.944H195.863V148.456L199.199 148.336V147.352C199.199 145.928 199.575 144.784 200.327 143.92C201.095 143.056 202.287 142.624 203.903 142.624C205.055 142.624 206.175 142.848 207.263 143.296L206.807 144.784ZM211.285 148.336H212.917L213.085 151.096H213.157C213.765 150.152 214.509 149.408 215.389 148.864C216.285 148.32 217.277 148.048 218.365 148.048C218.797 148.048 219.197 148.088 219.565 148.168C219.933 148.232 220.301 148.352 220.669 148.528L220.213 150.232C219.797 150.088 219.445 149.984 219.157 149.92C218.885 149.856 218.517 149.824 218.053 149.824C217.173 149.824 216.325 150.08 215.509 150.592C214.709 151.088 213.957 151.944 213.253 153.16V160H211.285V148.336ZM223.828 154.192C223.828 153.232 223.996 152.376 224.332 151.624C224.668 150.856 225.108 150.208 225.652 149.68C226.212 149.152 226.844 148.752 227.548 148.48C228.268 148.192 229.004 148.048 229.756 148.048C230.588 148.048 231.332 148.184 231.988 148.456C232.644 148.712 233.196 149.08 233.644 149.56C234.108 150.04 234.46 150.616 234.7 151.288C234.94 151.96 235.06 152.704 235.06 153.52C235.06 153.728 235.052 153.936 235.036 154.144C235.036 154.336 235.02 154.504 234.988 154.648H225.868C225.884 155.272 226.004 155.832 226.228 156.328C226.468 156.824 226.78 157.248 227.164 157.6C227.564 157.952 228.028 158.224 228.556 158.416C229.1 158.608 229.692 158.704 230.332 158.704C231.02 158.704 231.644 158.608 232.204 158.416C232.78 158.224 233.34 157.96 233.884 157.624L234.58 158.92C234.004 159.288 233.348 159.608 232.612 159.88C231.876 160.152 231.036 160.288 230.092 160.288C229.228 160.288 228.412 160.152 227.644 159.88C226.892 159.592 226.228 159.192 225.652 158.68C225.092 158.152 224.644 157.512 224.308 156.76C223.988 156.008 223.828 155.152 223.828 154.192ZM233.236 153.232C233.236 152.064 232.932 151.168 232.324 150.544C231.716 149.92 230.868 149.608 229.78 149.608C229.3 149.608 228.836 149.688 228.388 149.848C227.956 150.008 227.564 150.248 227.212 150.568C226.86 150.872 226.564 151.248 226.324 151.696C226.084 152.144 225.924 152.656 225.844 153.232H233.236ZM238.003 154.192C238.003 153.248 238.147 152.4 238.435 151.648C238.739 150.88 239.131 150.232 239.611 149.704C240.107 149.176 240.675 148.768 241.315 148.48C241.955 148.192 242.619 148.048 243.307 148.048C244.027 148.048 244.667 148.184 245.227 148.456C245.787 148.728 246.347 149.12 246.907 149.632H246.979L247.147 148.336H248.731V164.92H246.763V160.624L246.859 158.512C246.347 159.008 245.763 159.432 245.107 159.784C244.467 160.12 243.787 160.288 243.067 160.288C242.299 160.288 241.603 160.152 240.979 159.88C240.371 159.608 239.843 159.216 239.395 158.704C238.947 158.176 238.603 157.536 238.363 156.784C238.123 156.032 238.003 155.168 238.003 154.192ZM240.043 154.168C240.043 155.576 240.339 156.672 240.931 157.456C241.539 158.24 242.387 158.632 243.475 158.632C244.627 158.632 245.723 158.048 246.763 156.88V151.072C246.235 150.576 245.715 150.224 245.203 150.016C244.707 149.808 244.203 149.704 243.691 149.704C243.179 149.704 242.699 149.816 242.251 150.04C241.819 150.248 241.435 150.552 241.099 150.952C240.779 151.336 240.523 151.8 240.331 152.344C240.139 152.888 240.043 153.496 240.043 154.168Z" fill="black"/>
<rect x="990.5" y="278.5" width="195" height="151" fill="#0072B2" stroke="black"/>
<path d="M1057.25 327.547H1050.1L1048.5 332H1046.18L1052.69 314.938H1054.66L1061.19 332H1058.88L1057.25 327.547ZM1050.78 325.695H1056.58L1053.68 317.715L1050.78 325.695ZM1062.62 325.555C1062.62 323.609 1063.08 322.047 1064 320.867C1064.92 319.68 1066.13 319.086 1067.62 319.086C1069.11 319.086 1070.28 319.594 1071.15 320.609V314H1073.32V332H1071.32L1071.22 330.641C1070.35 331.703 1069.14 332.234 1067.6 332.234C1066.13 332.234 1064.93 331.633 1064 330.43C1063.08 329.227 1062.62 327.656 1062.62 325.719V325.555ZM1064.79 325.801C1064.79 327.238 1065.08 328.363 1065.68 329.176C1066.27 329.988 1067.09 330.395 1068.14 330.395C1069.51 330.395 1070.52 329.777 1071.15 328.543V322.719C1070.5 321.523 1069.5 320.926 1068.16 320.926C1067.1 320.926 1066.27 321.336 1065.68 322.156C1065.08 322.977 1064.79 324.191 1064.79 325.801ZM1076.16 325.555C1076.16 323.609 1076.62 322.047 1077.55 320.867C1078.47 319.68 1079.68 319.086 1081.17 319.086C1082.65 319.086 1083.83 319.594 1084.7 320.609V314H1086.86V332H1084.87L1084.77 330.641C1083.9 331.703 1082.69 332.234 1081.14 332.234C1079.68 332.234 1078.48 331.633 1077.55 330.43C1076.62 329.227 1076.16 327.656 1076.16 325.719V325.555ZM1078.33 325.801C1078.33 327.238 1078.63 328.363 1079.22 329.176C1079.82 329.988 1080.64 330.395 1081.68 330.395C1083.06 330.395 1084.06 329.777 1084.7 328.543V322.719C1084.05 321.523 1083.05 320.926 1081.71 320.926C1080.64 320.926 1079.82 321.336 1079.22 322.156C1078.63 322.977 1078.33 324.191 1078.33 325.801ZM1097.26 332V320.996H1095.25V319.32H1097.26V318.02C1097.26 316.66 1097.62 315.609 1098.35 314.867C1099.07 314.125 1100.1 313.754 1101.43 313.754C1101.93 313.754 1102.43 313.82 1102.92 313.953L1102.8 315.711C1102.43 315.641 1102.04 315.605 1101.63 315.605C1100.93 315.605 1100.38 315.812 1100 316.227C1099.62 316.633 1099.43 317.219 1099.43 317.984V319.32H1102.13V320.996H1099.43V332H1097.26ZM1113.43 316.25V319.32H1115.8V320.996H1113.43V328.859C1113.43 329.367 1113.54 329.75 1113.75 330.008C1113.96 330.258 1114.32 330.383 1114.82 330.383C1115.07 330.383 1115.42 330.336 1115.86 330.242V332C1115.29 332.156 1114.73 332.234 1114.19 332.234C1113.22 332.234 1112.49 331.941 1112 331.355C1111.51 330.77 1111.26 329.938 1111.26 328.859V320.996H1108.95V319.32H1111.26V316.25H1113.43ZM1117.53 325.543C1117.53 324.301 1117.77 323.184 1118.26 322.191C1118.75 321.199 1119.43 320.434 1120.3 319.895C1121.17 319.355 1122.17 319.086 1123.29 319.086C1125.01 319.086 1126.41 319.684 1127.47 320.879C1128.54 322.074 1129.07 323.664 1129.07 325.648V325.801C1129.07 327.035 1128.84 328.145 1128.36 329.129C1127.89 330.105 1127.21 330.867 1126.33 331.414C1125.46 331.961 1124.45 332.234 1123.31 332.234C1121.59 332.234 1120.2 331.637 1119.12 330.441C1118.06 329.246 1117.53 327.664 1117.53 325.695V325.543ZM1119.71 325.801C1119.71 327.207 1120.04 328.336 1120.68 329.188C1121.34 330.039 1122.21 330.465 1123.31 330.465C1124.41 330.465 1125.29 330.035 1125.93 329.176C1126.58 328.309 1126.91 327.098 1126.91 325.543C1126.91 324.152 1126.57 323.027 1125.91 322.168C1125.25 321.301 1124.38 320.867 1123.29 320.867C1122.21 320.867 1121.35 321.293 1120.7 322.145C1120.04 322.996 1119.71 324.215 1119.71 325.801ZM1004.01 346.784C1003.53 346.56 1003.08 346.416 1002.67 346.352C1002.27 346.272 1001.81 346.232 1001.3 346.232C1000.24 346.232 999.482 346.504 999.018 347.048C998.57 347.576 998.346 348.32 998.346 349.28V350.336H1003.24V351.944H998.346V362H996.402V351.944H993.066V350.456L996.402 350.336V349.352C996.402 347.928 996.778 346.784 997.53 345.92C998.298 345.056 999.49 344.624 1001.11 344.624C1002.26 344.624 1003.38 344.848 1004.47 345.296L1004.01 346.784ZM1008.49 350.336H1010.12L1010.29 353.096H1010.36C1010.97 352.152 1011.71 351.408 1012.59 350.864C1013.49 350.32 1014.48 350.048 1015.57 350.048C1016 350.048 1016.4 350.088 1016.77 350.168C1017.14 350.232 1017.5 350.352 1017.87 350.528L1017.42 352.232C1017 352.088 1016.65 351.984 1016.36 351.92C1016.09 351.856 1015.72 351.824 1015.26 351.824C1014.38 351.824 1013.53 352.08 1012.71 352.592C1011.91 353.088 1011.16 353.944 1010.46 355.16V362H1008.49V350.336ZM1031.49 362H1029.89L1029.72 359.96H1029.62C1029.03 360.648 1028.38 361.208 1027.68 361.64C1026.99 362.072 1026.19 362.288 1025.28 362.288C1023.87 362.288 1022.84 361.896 1022.18 361.112C1021.54 360.312 1021.22 359.136 1021.22 357.584V350.336H1023.22V357.32C1023.22 358.424 1023.42 359.248 1023.82 359.792C1024.23 360.32 1024.93 360.584 1025.9 360.584C1026.58 360.584 1027.18 360.416 1027.73 360.08C1028.27 359.728 1028.87 359.176 1029.53 358.424V350.336H1031.49V362ZM1035.93 350.336H1043.32V362H1041.35V351.944H1035.93V350.336ZM1042.12 347.936C1041.65 347.936 1041.27 347.8 1040.97 347.528C1040.68 347.256 1040.53 346.888 1040.53 346.424C1040.53 345.96 1040.68 345.592 1040.97 345.32C1041.27 345.032 1041.65 344.888 1042.12 344.888C1042.57 344.888 1042.94 345.032 1043.25 345.32C1043.55 345.592 1043.7 345.96 1043.7 346.424C1043.7 346.888 1043.55 347.256 1043.25 347.528C1042.94 347.8 1042.57 347.936 1042.12 347.936ZM1053.1 351.944H1049.81V350.456L1053.17 350.336L1053.44 347.072H1055.07V350.336H1060.8V351.944H1055.07V357.488C1055.07 358.016 1055.12 358.48 1055.21 358.88C1055.31 359.264 1055.47 359.592 1055.69 359.864C1055.92 360.136 1056.22 360.344 1056.6 360.488C1056.99 360.616 1057.46 360.68 1058.02 360.68C1058.58 360.68 1059.08 360.632 1059.53 360.536C1059.98 360.44 1060.41 360.312 1060.83 360.152L1061.26 361.592C1060.73 361.784 1060.15 361.944 1059.51 362.072C1058.87 362.216 1058.23 362.288 1057.59 362.288C1056.74 362.288 1056.03 362.176 1055.45 361.952C1054.88 361.712 1054.41 361.384 1054.06 360.968C1053.72 360.536 1053.48 360.024 1053.32 359.432C1053.17 358.84 1053.1 358.184 1053.1 357.464V351.944ZM1075.51 363.656V365.36H1063.99V363.656H1075.51ZM1090.35 346.784C1089.87 346.56 1089.43 346.416 1089.01 346.352C1088.61 346.272 1088.15 346.232 1087.64 346.232C1086.59 346.232 1085.83 346.504 1085.36 347.048C1084.91 347.576 1084.69 348.32 1084.69 349.28V350.336H1089.59V351.944H1084.69V362H1082.75V351.944H1079.41V350.456L1082.75 350.336V349.352C1082.75 347.928 1083.12 346.784 1083.87 345.92C1084.64 345.056 1085.83 344.624 1087.45 344.624C1088.6 344.624 1089.72 344.848 1090.81 345.296L1090.35 346.784ZM1094.83 350.336H1096.46L1096.63 353.096H1096.7C1097.31 352.152 1098.06 351.408 1098.94 350.864C1099.83 350.32 1100.82 350.048 1101.91 350.048C1102.34 350.048 1102.74 350.088 1103.11 350.168C1103.48 350.232 1103.85 350.352 1104.22 350.528L1103.76 352.232C1103.34 352.088 1102.99 351.984 1102.7 351.92C1102.43 351.856 1102.06 351.824 1101.6 351.824C1100.72 351.824 1099.87 352.08 1099.06 352.592C1098.26 353.088 1097.5 353.944 1096.8 355.16V362H1094.83V350.336ZM1107.37 356.192C1107.37 355.232 1107.54 354.376 1107.88 353.624C1108.21 352.856 1108.65 352.208 1109.2 351.68C1109.76 351.152 1110.39 350.752 1111.09 350.48C1111.81 350.192 1112.55 350.048 1113.3 350.048C1114.13 350.048 1114.88 350.184 1115.53 350.456C1116.19 350.712 1116.74 351.08 1117.19 351.56C1117.65 352.04 1118.01 352.616 1118.25 353.288C1118.49 353.96 1118.61 354.704 1118.61 355.52C1118.61 355.728 1118.6 355.936 1118.58 356.144C1118.58 356.336 1118.57 356.504 1118.53 356.648H1109.41C1109.43 357.272 1109.55 357.832 1109.77 358.328C1110.01 358.824 1110.33 359.248 1110.71 359.6C1111.11 359.952 1111.57 360.224 1112.1 360.416C1112.65 360.608 1113.24 360.704 1113.88 360.704C1114.57 360.704 1115.19 360.608 1115.75 360.416C1116.33 360.224 1116.89 359.96 1117.43 359.624L1118.13 360.92C1117.55 361.288 1116.89 361.608 1116.16 361.88C1115.42 362.152 1114.58 362.288 1113.64 362.288C1112.77 362.288 1111.96 362.152 1111.19 361.88C1110.44 361.592 1109.77 361.192 1109.2 360.68C1108.64 360.152 1108.19 359.512 1107.85 358.76C1107.53 358.008 1107.37 357.152 1107.37 356.192ZM1116.78 355.232C1116.78 354.064 1116.48 353.168 1115.87 352.544C1115.26 351.92 1114.41 351.608 1113.33 351.608C1112.85 351.608 1112.38 351.688 1111.93 351.848C1111.5 352.008 1111.11 352.248 1110.76 352.568C1110.41 352.872 1110.11 353.248 1109.87 353.696C1109.63 354.144 1109.47 354.656 1109.39 355.232H1116.78ZM1121.55 356.192C1121.55 355.248 1121.69 354.4 1121.98 353.648C1122.29 352.88 1122.68 352.232 1123.16 351.704C1123.65 351.176 1124.22 350.768 1124.86 350.48C1125.5 350.192 1126.17 350.048 1126.85 350.048C1127.57 350.048 1128.21 350.184 1128.77 350.456C1129.33 350.728 1129.89 351.12 1130.45 351.632H1130.53L1130.69 350.336H1132.28V366.92H1130.31V362.624L1130.41 360.512C1129.89 361.008 1129.31 361.432 1128.65 361.784C1128.01 362.12 1127.33 362.288 1126.61 362.288C1125.85 362.288 1125.15 362.152 1124.53 361.88C1123.92 361.608 1123.39 361.216 1122.94 360.704C1122.49 360.176 1122.15 359.536 1121.91 358.784C1121.67 358.032 1121.55 357.168 1121.55 356.192ZM1123.59 356.168C1123.59 357.576 1123.89 358.672 1124.48 359.456C1125.09 360.24 1125.93 360.632 1127.02 360.632C1128.17 360.632 1129.27 360.048 1130.31 358.88V353.072C1129.78 352.576 1129.26 352.224 1128.75 352.016C1128.25 351.808 1127.75 351.704 1127.24 351.704C1126.73 351.704 1126.25 351.816 1125.8 352.04C1125.37 352.248 1124.98 352.552 1124.65 352.952C1124.33 353.336 1124.07 353.8 1123.88 354.344C1123.69 354.888 1123.59 355.496 1123.59 356.168ZM1153.32 359.012L1155.76 349.32H1157.93L1154.23 362H1152.48L1149.39 352.391L1146.39 362H1144.64L1140.96 349.32H1143.11L1145.61 358.812L1148.56 349.32H1150.31L1153.32 359.012ZM1162.5 362H1160.33V349.32H1162.5V362ZM1160.15 345.957C1160.15 345.605 1160.26 345.309 1160.47 345.066C1160.69 344.824 1161.01 344.703 1161.43 344.703C1161.85 344.703 1162.17 344.824 1162.39 345.066C1162.61 345.309 1162.72 345.605 1162.72 345.957C1162.72 346.309 1162.61 346.602 1162.39 346.836C1162.17 347.07 1161.85 347.188 1161.43 347.188C1161.01 347.188 1160.69 347.07 1160.47 346.836C1160.26 346.602 1160.15 346.309 1160.15 345.957ZM1168.92 346.25V349.32H1171.29V350.996H1168.92V358.859C1168.92 359.367 1169.02 359.75 1169.23 360.008C1169.45 360.258 1169.8 360.383 1170.31 360.383C1170.56 360.383 1170.91 360.336 1171.34 360.242V362C1170.77 362.156 1170.22 362.234 1169.68 362.234C1168.71 362.234 1167.98 361.941 1167.49 361.355C1167 360.77 1166.75 359.938 1166.75 358.859V350.996H1164.44V349.32H1166.75V346.25H1168.92ZM1176 350.855C1176.96 349.676 1178.21 349.086 1179.75 349.086C1182.43 349.086 1183.78 350.598 1183.8 353.621V362H1181.63V353.609C1181.62 352.695 1181.41 352.02 1181 351.582C1180.59 351.145 1179.96 350.926 1179.09 350.926C1178.39 350.926 1177.77 351.113 1177.24 351.488C1176.71 351.863 1176.29 352.355 1176 352.965V362H1173.83V344H1176V350.855ZM1035.65 392C1035.53 391.75 1035.43 391.305 1035.35 390.664C1034.34 391.711 1033.14 392.234 1031.74 392.234C1030.49 392.234 1029.46 391.883 1028.66 391.18C1027.86 390.469 1027.46 389.57 1027.46 388.484C1027.46 387.164 1027.96 386.141 1028.96 385.414C1029.97 384.68 1031.38 384.312 1033.2 384.312H1035.31V383.316C1035.31 382.559 1035.09 381.957 1034.63 381.512C1034.18 381.059 1033.51 380.832 1032.63 380.832C1031.86 380.832 1031.21 381.027 1030.68 381.418C1030.16 381.809 1029.9 382.281 1029.9 382.836H1027.72C1027.72 382.203 1027.94 381.594 1028.39 381.008C1028.84 380.414 1029.45 379.945 1030.21 379.602C1030.99 379.258 1031.84 379.086 1032.76 379.086C1034.22 379.086 1035.36 379.453 1036.19 380.188C1037.02 380.914 1037.45 381.918 1037.48 383.199V389.035C1037.48 390.199 1037.63 391.125 1037.93 391.812V392H1035.65ZM1032.05 390.348C1032.73 390.348 1033.38 390.172 1033.99 389.82C1034.6 389.469 1035.04 389.012 1035.31 388.449V385.848H1033.61C1030.96 385.848 1029.63 386.625 1029.63 388.18C1029.63 388.859 1029.86 389.391 1030.31 389.773C1030.76 390.156 1031.34 390.348 1032.05 390.348ZM1051.02 389.059L1054.16 379.32H1056.37L1051.82 392H1050.17L1045.58 379.32H1047.79L1051.02 389.059ZM1066.1 392C1065.97 391.75 1065.87 391.305 1065.79 390.664C1064.79 391.711 1063.58 392.234 1062.18 392.234C1060.93 392.234 1059.91 391.883 1059.1 391.18C1058.3 390.469 1057.91 389.57 1057.91 388.484C1057.91 387.164 1058.41 386.141 1059.41 385.414C1060.41 384.68 1061.83 384.312 1063.65 384.312H1065.76V383.316C1065.76 382.559 1065.53 381.957 1065.08 381.512C1064.62 381.059 1063.96 380.832 1063.07 380.832C1062.3 380.832 1061.65 381.027 1061.13 381.418C1060.61 381.809 1060.34 382.281 1060.34 382.836H1058.16C1058.16 382.203 1058.39 381.594 1058.83 381.008C1059.29 380.414 1059.89 379.945 1060.66 379.602C1061.43 379.258 1062.28 379.086 1063.2 379.086C1064.66 379.086 1065.81 379.453 1066.64 380.188C1067.46 380.914 1067.89 381.918 1067.93 383.199V389.035C1067.93 390.199 1068.07 391.125 1068.37 391.812V392H1066.1ZM1062.5 390.348C1063.18 390.348 1063.82 390.172 1064.43 389.82C1065.04 389.469 1065.48 389.012 1065.76 388.449V385.848H1064.06C1061.4 385.848 1060.07 386.625 1060.07 388.18C1060.07 388.859 1060.3 389.391 1060.75 389.773C1061.21 390.156 1061.79 390.348 1062.5 390.348ZM1073.68 392H1071.51V374H1073.68V392ZM1084.99 390.746C1084.14 391.738 1082.91 392.234 1081.27 392.234C1079.92 392.234 1078.89 391.844 1078.18 391.062C1077.48 390.273 1077.12 389.109 1077.11 387.57V379.32H1079.28V387.512C1079.28 389.434 1080.06 390.395 1081.62 390.395C1083.28 390.395 1084.38 389.777 1084.93 388.543V379.32H1087.1V392H1085.04L1084.99 390.746ZM1095.66 392.234C1093.95 392.234 1092.55 391.672 1091.47 390.547C1090.39 389.414 1089.85 387.902 1089.85 386.012V385.613C1089.85 384.355 1090.09 383.234 1090.57 382.25C1091.05 381.258 1091.72 380.484 1092.58 379.93C1093.45 379.367 1094.39 379.086 1095.39 379.086C1097.04 379.086 1098.32 379.629 1099.24 380.715C1100.15 381.801 1100.61 383.355 1100.61 385.379V386.281H1092.02C1092.05 387.531 1092.41 388.543 1093.11 389.316C1093.81 390.082 1094.7 390.465 1095.78 390.465C1096.55 390.465 1097.2 390.309 1097.73 389.996C1098.26 389.684 1098.72 389.27 1099.12 388.754L1100.45 389.785C1099.38 391.418 1097.79 392.234 1095.66 392.234ZM1095.39 380.867C1094.52 380.867 1093.79 381.188 1093.19 381.828C1092.6 382.461 1092.23 383.352 1092.09 384.5H1098.44V384.336C1098.38 383.234 1098.08 382.383 1097.55 381.781C1097.02 381.172 1096.3 380.867 1095.39 380.867ZM1108.51 385.543C1108.51 384.301 1108.75 383.184 1109.23 382.191C1109.73 381.199 1110.41 380.434 1111.27 379.895C1112.15 379.355 1113.14 379.086 1114.26 379.086C1115.99 379.086 1117.38 379.684 1118.45 380.879C1119.52 382.074 1120.05 383.664 1120.05 385.648V385.801C1120.05 387.035 1119.81 388.145 1119.34 389.129C1118.87 390.105 1118.19 390.867 1117.31 391.414C1116.43 391.961 1115.43 392.234 1114.29 392.234C1112.57 392.234 1111.17 391.637 1110.1 390.441C1109.04 389.246 1108.51 387.664 1108.51 385.695V385.543ZM1110.69 385.801C1110.69 387.207 1111.01 388.336 1111.66 389.188C1112.32 390.039 1113.19 390.465 1114.29 390.465C1115.39 390.465 1116.26 390.035 1116.91 389.176C1117.56 388.309 1117.88 387.098 1117.88 385.543C1117.88 384.152 1117.55 383.027 1116.89 382.168C1116.23 381.301 1115.36 380.867 1114.26 380.867C1113.19 380.867 1112.33 381.293 1111.67 382.145C1111.02 382.996 1110.69 384.215 1110.69 385.801ZM1123.84 392V380.996H1121.83V379.32H1123.84V378.02C1123.84 376.66 1124.2 375.609 1124.93 374.867C1125.65 374.125 1126.68 373.754 1128.01 373.754C1128.51 373.754 1129 373.82 1129.5 373.953L1129.38 375.711C1129.01 375.641 1128.62 375.605 1128.21 375.605C1127.5 375.605 1126.96 375.812 1126.58 376.227C1126.2 376.633 1126 377.219 1126 377.984V379.32H1128.71V380.996H1126V392H1123.84ZM1148.1 390.368V392H1137.78V390.368H1142.12V379.088H1138.86V377.816C1139.67 377.688 1140.39 377.536 1140.99 377.36C1141.6 377.168 1142.15 376.944 1142.63 376.688H1144.09V390.368H1148.1Z" fill="white"/>
<rect x="742.5" y="586.5" width="195" height="151" fill="#0072B2" stroke="black"/>
<path d="M753.152 626H750.902V608.938H753.152V626ZM758.988 613.32L759.059 614.914C760.027 613.695 761.293 613.086 762.855 613.086C765.535 613.086 766.887 614.598 766.91 617.621V626H764.742V617.609C764.734 616.695 764.523 616.02 764.109 615.582C763.703 615.145 763.066 614.926 762.199 614.926C761.496 614.926 760.879 615.113 760.348 615.488C759.816 615.863 759.402 616.355 759.105 616.965V626H756.938V613.32H758.988ZM775.266 624.465C776.039 624.465 776.715 624.23 777.293 623.762C777.871 623.293 778.191 622.707 778.254 622.004H780.305C780.266 622.73 780.016 623.422 779.555 624.078C779.094 624.734 778.477 625.258 777.703 625.648C776.938 626.039 776.125 626.234 775.266 626.234C773.539 626.234 772.164 625.66 771.141 624.512C770.125 623.355 769.617 621.777 769.617 619.777V619.414C769.617 618.18 769.844 617.082 770.297 616.121C770.75 615.16 771.398 614.414 772.242 613.883C773.094 613.352 774.098 613.086 775.254 613.086C776.676 613.086 777.855 613.512 778.793 614.363C779.738 615.215 780.242 616.32 780.305 617.68H778.254C778.191 616.859 777.879 616.188 777.316 615.664C776.762 615.133 776.074 614.867 775.254 614.867C774.152 614.867 773.297 615.266 772.688 616.062C772.086 616.852 771.785 617.996 771.785 619.496V619.906C771.785 621.367 772.086 622.492 772.688 623.281C773.289 624.07 774.148 624.465 775.266 624.465ZM788.871 615.266C788.543 615.211 788.188 615.184 787.805 615.184C786.383 615.184 785.418 615.789 784.91 617V626H782.742V613.32H784.852L784.887 614.785C785.598 613.652 786.605 613.086 787.91 613.086C788.332 613.086 788.652 613.141 788.871 613.25V615.266ZM795.902 626.234C794.184 626.234 792.785 625.672 791.707 624.547C790.629 623.414 790.09 621.902 790.09 620.012V619.613C790.09 618.355 790.328 617.234 790.805 616.25C791.289 615.258 791.961 614.484 792.82 613.93C793.688 613.367 794.625 613.086 795.633 613.086C797.281 613.086 798.562 613.629 799.477 614.715C800.391 615.801 800.848 617.355 800.848 619.379V620.281H792.258C792.289 621.531 792.652 622.543 793.348 623.316C794.051 624.082 794.941 624.465 796.02 624.465C796.785 624.465 797.434 624.309 797.965 623.996C798.496 623.684 798.961 623.27 799.359 622.754L800.684 623.785C799.621 625.418 798.027 626.234 795.902 626.234ZM795.633 614.867C794.758 614.867 794.023 615.188 793.43 615.828C792.836 616.461 792.469 617.352 792.328 618.5H798.68V618.336C798.617 617.234 798.32 616.383 797.789 615.781C797.258 615.172 796.539 614.867 795.633 614.867ZM805.406 613.32L805.465 614.727C806.395 613.633 807.648 613.086 809.227 613.086C811 613.086 812.207 613.766 812.848 615.125C813.27 614.516 813.816 614.023 814.488 613.648C815.168 613.273 815.969 613.086 816.891 613.086C819.672 613.086 821.086 614.559 821.133 617.504V626H818.965V617.633C818.965 616.727 818.758 616.051 818.344 615.605C817.93 615.152 817.234 614.926 816.258 614.926C815.453 614.926 814.785 615.168 814.254 615.652C813.723 616.129 813.414 616.773 813.328 617.586V626H811.148V617.691C811.148 615.848 810.246 614.926 808.441 614.926C807.02 614.926 806.047 615.531 805.523 616.742V626H803.355V613.32H805.406ZM829.676 626.234C827.957 626.234 826.559 625.672 825.48 624.547C824.402 623.414 823.863 621.902 823.863 620.012V619.613C823.863 618.355 824.102 617.234 824.578 616.25C825.062 615.258 825.734 614.484 826.594 613.93C827.461 613.367 828.398 613.086 829.406 613.086C831.055 613.086 832.336 613.629 833.25 614.715C834.164 615.801 834.621 617.355 834.621 619.379V620.281H826.031C826.062 621.531 826.426 622.543 827.121 623.316C827.824 624.082 828.715 624.465 829.793 624.465C830.559 624.465 831.207 624.309 831.738 623.996C832.27 623.684 832.734 623.27 833.133 622.754L834.457 623.785C833.395 625.418 831.801 626.234 829.676 626.234ZM829.406 614.867C828.531 614.867 827.797 615.188 827.203 615.828C826.609 616.461 826.242 617.352 826.102 618.5H832.453V618.336C832.391 617.234 832.094 616.383 831.562 615.781C831.031 615.172 830.312 614.867 829.406 614.867ZM839.191 613.32L839.262 614.914C840.23 613.695 841.496 613.086 843.059 613.086C845.738 613.086 847.09 614.598 847.113 617.621V626H844.945V617.609C844.938 616.695 844.727 616.02 844.312 615.582C843.906 615.145 843.27 614.926 842.402 614.926C841.699 614.926 841.082 615.113 840.551 615.488C840.02 615.863 839.605 616.355 839.309 616.965V626H837.141V613.32H839.191ZM853.324 610.25V613.32H855.691V614.996H853.324V622.859C853.324 623.367 853.43 623.75 853.641 624.008C853.852 624.258 854.211 624.383 854.719 624.383C854.969 624.383 855.312 624.336 855.75 624.242V626C855.18 626.156 854.625 626.234 854.086 626.234C853.117 626.234 852.387 625.941 851.895 625.355C851.402 624.77 851.156 623.938 851.156 622.859V614.996H848.848V613.32H851.156V610.25H853.324ZM864.105 619.074C864.105 617.309 864.34 615.613 864.809 613.988C865.285 612.363 865.992 610.887 866.93 609.559C867.867 608.23 868.84 607.293 869.848 606.746L870.293 608.176C869.152 609.051 868.215 610.387 867.48 612.184C866.754 613.98 866.355 615.992 866.285 618.219L866.273 619.215C866.273 622.23 866.824 624.848 867.926 627.066C868.59 628.395 869.379 629.434 870.293 630.184L869.848 631.508C868.809 630.93 867.816 629.961 866.871 628.602C865.027 625.945 864.105 622.77 864.105 619.074ZM880.219 626C880.094 625.75 879.992 625.305 879.914 624.664C878.906 625.711 877.703 626.234 876.305 626.234C875.055 626.234 874.027 625.883 873.223 625.18C872.426 624.469 872.027 623.57 872.027 622.484C872.027 621.164 872.527 620.141 873.527 619.414C874.535 618.68 875.949 618.312 877.77 618.312H879.879V617.316C879.879 616.559 879.652 615.957 879.199 615.512C878.746 615.059 878.078 614.832 877.195 614.832C876.422 614.832 875.773 615.027 875.25 615.418C874.727 615.809 874.465 616.281 874.465 616.836H872.285C872.285 616.203 872.508 615.594 872.953 615.008C873.406 614.414 874.016 613.945 874.781 613.602C875.555 613.258 876.402 613.086 877.324 613.086C878.785 613.086 879.93 613.453 880.758 614.188C881.586 614.914 882.016 615.918 882.047 617.199V623.035C882.047 624.199 882.195 625.125 882.492 625.812V626H880.219ZM876.621 624.348C877.301 624.348 877.945 624.172 878.555 623.82C879.164 623.469 879.605 623.012 879.879 622.449V619.848H878.18C875.523 619.848 874.195 620.625 874.195 622.18C874.195 622.859 874.422 623.391 874.875 623.773C875.328 624.156 875.91 624.348 876.621 624.348ZM884.918 619.555C884.918 617.609 885.379 616.047 886.301 614.867C887.223 613.68 888.43 613.086 889.922 613.086C891.406 613.086 892.582 613.594 893.449 614.609V608H895.617V626H893.625L893.52 624.641C892.652 625.703 891.445 626.234 889.898 626.234C888.43 626.234 887.23 625.633 886.301 624.43C885.379 623.227 884.918 621.656 884.918 619.719V619.555ZM887.086 619.801C887.086 621.238 887.383 622.363 887.977 623.176C888.57 623.988 889.391 624.395 890.438 624.395C891.812 624.395 892.816 623.777 893.449 622.543V616.719C892.801 615.523 891.805 614.926 890.461 614.926C889.398 614.926 888.57 615.336 887.977 616.156C887.383 616.977 887.086 618.191 887.086 619.801ZM898.465 619.555C898.465 617.609 898.926 616.047 899.848 614.867C900.77 613.68 901.977 613.086 903.469 613.086C904.953 613.086 906.129 613.594 906.996 614.609V608H909.164V626H907.172L907.066 624.641C906.199 625.703 904.992 626.234 903.445 626.234C901.977 626.234 900.777 625.633 899.848 624.43C898.926 623.227 898.465 621.656 898.465 619.719V619.555ZM900.633 619.801C900.633 621.238 900.93 622.363 901.523 623.176C902.117 623.988 902.938 624.395 903.984 624.395C905.359 624.395 906.363 623.777 906.996 622.543V616.719C906.348 615.523 905.352 614.926 904.008 614.926C902.945 614.926 902.117 615.336 901.523 616.156C900.93 616.977 900.633 618.191 900.633 619.801ZM929.524 624.368V626H919.204V624.368H923.548V613.088H920.284V611.816C921.1 611.688 921.812 611.536 922.42 611.36C923.028 611.168 923.572 610.944 924.052 610.688H925.516V624.368H929.524ZM765.281 640.25V643.32H767.648V644.996H765.281V652.859C765.281 653.367 765.387 653.75 765.598 654.008C765.809 654.258 766.168 654.383 766.676 654.383C766.926 654.383 767.27 654.336 767.707 654.242V656C767.137 656.156 766.582 656.234 766.043 656.234C765.074 656.234 764.344 655.941 763.852 655.355C763.359 654.77 763.113 653.938 763.113 652.859V644.996H760.805V643.32H763.113V640.25H765.281ZM769.383 649.543C769.383 648.301 769.625 647.184 770.109 646.191C770.602 645.199 771.281 644.434 772.148 643.895C773.023 643.355 774.02 643.086 775.137 643.086C776.863 643.086 778.258 643.684 779.32 644.879C780.391 646.074 780.926 647.664 780.926 649.648V649.801C780.926 651.035 780.688 652.145 780.211 653.129C779.742 654.105 779.066 654.867 778.184 655.414C777.309 655.961 776.301 656.234 775.16 656.234C773.441 656.234 772.047 655.637 770.977 654.441C769.914 653.246 769.383 651.664 769.383 649.695V649.543ZM771.562 649.801C771.562 651.207 771.887 652.336 772.535 653.188C773.191 654.039 774.066 654.465 775.16 654.465C776.262 654.465 777.137 654.035 777.785 653.176C778.434 652.309 778.758 651.098 778.758 649.543C778.758 648.152 778.426 647.027 777.762 646.168C777.105 645.301 776.23 644.867 775.137 644.867C774.066 644.867 773.203 645.293 772.547 646.145C771.891 646.996 771.562 648.215 771.562 649.801ZM788.648 649.191C788.648 650.934 788.418 652.605 787.957 654.207C787.504 655.801 786.805 657.273 785.859 658.625C784.922 659.977 783.938 660.938 782.906 661.508L782.449 660.184C783.652 659.262 784.617 657.832 785.344 655.895C786.078 653.949 786.453 651.793 786.469 649.426V649.051C786.469 647.41 786.297 645.887 785.953 644.48C785.609 643.066 785.129 641.801 784.512 640.684C783.902 639.566 783.215 638.695 782.449 638.07L782.906 636.746C783.938 637.316 784.918 638.27 785.848 639.605C786.785 640.941 787.484 642.414 787.945 644.023C788.414 645.633 788.648 647.355 788.648 649.191ZM800.883 640.25V643.32H803.25V644.996H800.883V652.859C800.883 653.367 800.988 653.75 801.199 654.008C801.41 654.258 801.77 654.383 802.277 654.383C802.527 654.383 802.871 654.336 803.309 654.242V656C802.738 656.156 802.184 656.234 801.645 656.234C800.676 656.234 799.945 655.941 799.453 655.355C798.961 654.77 798.715 653.938 798.715 652.859V644.996H796.406V643.32H798.715V640.25H800.883ZM807.961 644.855C808.922 643.676 810.172 643.086 811.711 643.086C814.391 643.086 815.742 644.598 815.766 647.621V656H813.598V647.609C813.59 646.695 813.379 646.02 812.965 645.582C812.559 645.145 811.922 644.926 811.055 644.926C810.352 644.926 809.734 645.113 809.203 645.488C808.672 645.863 808.258 646.355 807.961 646.965V656H805.793V638H807.961V644.855ZM824.273 656.234C822.555 656.234 821.156 655.672 820.078 654.547C819 653.414 818.461 651.902 818.461 650.012V649.613C818.461 648.355 818.699 647.234 819.176 646.25C819.66 645.258 820.332 644.484 821.191 643.93C822.059 643.367 822.996 643.086 824.004 643.086C825.652 643.086 826.934 643.629 827.848 644.715C828.762 645.801 829.219 647.355 829.219 649.379V650.281H820.629C820.66 651.531 821.023 652.543 821.719 653.316C822.422 654.082 823.312 654.465 824.391 654.465C825.156 654.465 825.805 654.309 826.336 653.996C826.867 653.684 827.332 653.27 827.73 652.754L829.055 653.785C827.992 655.418 826.398 656.234 824.273 656.234ZM824.004 644.867C823.129 644.867 822.395 645.188 821.801 645.828C821.207 646.461 820.84 647.352 820.699 648.5H827.051V648.336C826.988 647.234 826.691 646.383 826.16 645.781C825.629 645.172 824.91 644.867 824.004 644.867ZM842.953 656.234C841.234 656.234 839.836 655.672 838.758 654.547C837.68 653.414 837.141 651.902 837.141 650.012V649.613C837.141 648.355 837.379 647.234 837.855 646.25C838.34 645.258 839.012 644.484 839.871 643.93C840.738 643.367 841.676 643.086 842.684 643.086C844.332 643.086 845.613 643.629 846.527 644.715C847.441 645.801 847.898 647.355 847.898 649.379V650.281H839.309C839.34 651.531 839.703 652.543 840.398 653.316C841.102 654.082 841.992 654.465 843.07 654.465C843.836 654.465 844.484 654.309 845.016 653.996C845.547 653.684 846.012 653.27 846.41 652.754L847.734 653.785C846.672 655.418 845.078 656.234 842.953 656.234ZM842.684 644.867C841.809 644.867 841.074 645.188 840.48 645.828C839.887 646.461 839.52 647.352 839.379 648.5H845.73V648.336C845.668 647.234 845.371 646.383 844.84 645.781C844.309 645.172 843.59 644.867 842.684 644.867ZM854.672 647.949L857.484 643.32H860.016L855.867 649.59L860.145 656H857.637L854.707 651.254L851.777 656H849.258L853.535 649.59L849.387 643.32H851.895L854.672 647.949ZM864.68 656H862.512V643.32H864.68V656ZM862.336 639.957C862.336 639.605 862.441 639.309 862.652 639.066C862.871 638.824 863.191 638.703 863.613 638.703C864.035 638.703 864.355 638.824 864.574 639.066C864.793 639.309 864.902 639.605 864.902 639.957C864.902 640.309 864.793 640.602 864.574 640.836C864.355 641.07 864.035 641.188 863.613 641.188C863.191 641.188 862.871 641.07 862.652 640.836C862.441 640.602 862.336 640.309 862.336 639.957ZM875.543 652.637C875.543 652.051 875.32 651.598 874.875 651.277C874.438 650.949 873.668 650.668 872.566 650.434C871.473 650.199 870.602 649.918 869.953 649.59C869.312 649.262 868.836 648.871 868.523 648.418C868.219 647.965 868.066 647.426 868.066 646.801C868.066 645.762 868.504 644.883 869.379 644.164C870.262 643.445 871.387 643.086 872.754 643.086C874.191 643.086 875.355 643.457 876.246 644.199C877.145 644.941 877.594 645.891 877.594 647.047H875.414C875.414 646.453 875.16 645.941 874.652 645.512C874.152 645.082 873.52 644.867 872.754 644.867C871.965 644.867 871.348 645.039 870.902 645.383C870.457 645.727 870.234 646.176 870.234 646.73C870.234 647.254 870.441 647.648 870.855 647.914C871.27 648.18 872.016 648.434 873.094 648.676C874.18 648.918 875.059 649.207 875.73 649.543C876.402 649.879 876.898 650.285 877.219 650.762C877.547 651.23 877.711 651.805 877.711 652.484C877.711 653.617 877.258 654.527 876.352 655.215C875.445 655.895 874.27 656.234 872.824 656.234C871.809 656.234 870.91 656.055 870.129 655.695C869.348 655.336 868.734 654.836 868.289 654.195C867.852 653.547 867.633 652.848 867.633 652.098H869.801C869.84 652.824 870.129 653.402 870.668 653.832C871.215 654.254 871.934 654.465 872.824 654.465C873.645 654.465 874.301 654.301 874.793 653.973C875.293 653.637 875.543 653.191 875.543 652.637ZM883.477 640.25V643.32H885.844V644.996H883.477V652.859C883.477 653.367 883.582 653.75 883.793 654.008C884.004 654.258 884.363 654.383 884.871 654.383C885.121 654.383 885.465 654.336 885.902 654.242V656C885.332 656.156 884.777 656.234 884.238 656.234C883.27 656.234 882.539 655.941 882.047 655.355C881.555 654.77 881.309 653.938 881.309 652.859V644.996H879V643.32H881.309V640.25H883.477ZM890.742 656H888.574V643.32H890.742V656ZM888.398 639.957C888.398 639.605 888.504 639.309 888.715 639.066C888.934 638.824 889.254 638.703 889.676 638.703C890.098 638.703 890.418 638.824 890.637 639.066C890.855 639.309 890.965 639.605 890.965 639.957C890.965 640.309 890.855 640.602 890.637 640.836C890.418 641.07 890.098 641.188 889.676 641.188C889.254 641.188 888.934 641.07 888.715 640.836C888.504 640.602 888.398 640.309 888.398 639.957ZM896.273 643.32L896.344 644.914C897.312 643.695 898.578 643.086 900.141 643.086C902.82 643.086 904.172 644.598 904.195 647.621V656H902.027V647.609C902.02 646.695 901.809 646.02 901.395 645.582C900.988 645.145 900.352 644.926 899.484 644.926C898.781 644.926 898.164 645.113 897.633 645.488C897.102 645.863 896.688 646.355 896.391 646.965V656H894.223V643.32H896.273ZM906.949 649.555C906.949 647.578 907.406 646.008 908.32 644.844C909.234 643.672 910.445 643.086 911.953 643.086C913.5 643.086 914.707 643.633 915.574 644.727L915.68 643.32H917.66V655.695C917.66 657.336 917.172 658.629 916.195 659.574C915.227 660.52 913.922 660.992 912.281 660.992C911.367 660.992 910.473 660.797 909.598 660.406C908.723 660.016 908.055 659.48 907.594 658.801L908.719 657.5C909.648 658.648 910.785 659.223 912.129 659.223C913.184 659.223 914.004 658.926 914.59 658.332C915.184 657.738 915.48 656.902 915.48 655.824V654.734C914.613 655.734 913.43 656.234 911.93 656.234C910.445 656.234 909.242 655.637 908.32 654.441C907.406 653.246 906.949 651.617 906.949 649.555ZM909.129 649.801C909.129 651.23 909.422 652.355 910.008 653.176C910.594 653.988 911.414 654.395 912.469 654.395C913.836 654.395 914.84 653.773 915.48 652.531V646.742C914.816 645.531 913.82 644.926 912.492 644.926C911.438 644.926 910.613 645.336 910.02 646.156C909.426 646.977 909.129 648.191 909.129 649.801ZM780.996 681.059L784.137 671.32H786.352L781.805 684H780.152L775.559 671.32H777.773L780.996 681.059ZM796.078 684C795.953 683.75 795.852 683.305 795.773 682.664C794.766 683.711 793.562 684.234 792.164 684.234C790.914 684.234 789.887 683.883 789.082 683.18C788.285 682.469 787.887 681.57 787.887 680.484C787.887 679.164 788.387 678.141 789.387 677.414C790.395 676.68 791.809 676.312 793.629 676.312H795.738V675.316C795.738 674.559 795.512 673.957 795.059 673.512C794.605 673.059 793.938 672.832 793.055 672.832C792.281 672.832 791.633 673.027 791.109 673.418C790.586 673.809 790.324 674.281 790.324 674.836H788.145C788.145 674.203 788.367 673.594 788.812 673.008C789.266 672.414 789.875 671.945 790.641 671.602C791.414 671.258 792.262 671.086 793.184 671.086C794.645 671.086 795.789 671.453 796.617 672.188C797.445 672.914 797.875 673.918 797.906 675.199V681.035C797.906 682.199 798.055 683.125 798.352 683.812V684H796.078ZM792.48 682.348C793.16 682.348 793.805 682.172 794.414 681.82C795.023 681.469 795.465 681.012 795.738 680.449V677.848H794.039C791.383 677.848 790.055 678.625 790.055 680.18C790.055 680.859 790.281 681.391 790.734 681.773C791.188 682.156 791.77 682.348 792.48 682.348ZM803.66 684H801.492V666H803.66V684ZM814.969 682.746C814.125 683.738 812.887 684.234 811.254 684.234C809.902 684.234 808.871 683.844 808.16 683.062C807.457 682.273 807.102 681.109 807.094 679.57V671.32H809.262V679.512C809.262 681.434 810.043 682.395 811.605 682.395C813.262 682.395 814.363 681.777 814.91 680.543V671.32H817.078V684H815.016L814.969 682.746ZM825.645 684.234C823.926 684.234 822.527 683.672 821.449 682.547C820.371 681.414 819.832 679.902 819.832 678.012V677.613C819.832 676.355 820.07 675.234 820.547 674.25C821.031 673.258 821.703 672.484 822.562 671.93C823.43 671.367 824.367 671.086 825.375 671.086C827.023 671.086 828.305 671.629 829.219 672.715C830.133 673.801 830.59 675.355 830.59 677.379V678.281H822C822.031 679.531 822.395 680.543 823.09 681.316C823.793 682.082 824.684 682.465 825.762 682.465C826.527 682.465 827.176 682.309 827.707 681.996C828.238 681.684 828.703 681.27 829.102 680.754L830.426 681.785C829.363 683.418 827.77 684.234 825.645 684.234ZM825.375 672.867C824.5 672.867 823.766 673.188 823.172 673.828C822.578 674.461 822.211 675.352 822.07 676.5H828.422V676.336C828.359 675.234 828.062 674.383 827.531 673.781C827 673.172 826.281 672.867 825.375 672.867ZM838.488 677.543C838.488 676.301 838.73 675.184 839.215 674.191C839.707 673.199 840.387 672.434 841.254 671.895C842.129 671.355 843.125 671.086 844.242 671.086C845.969 671.086 847.363 671.684 848.426 672.879C849.496 674.074 850.031 675.664 850.031 677.648V677.801C850.031 679.035 849.793 680.145 849.316 681.129C848.848 682.105 848.172 682.867 847.289 683.414C846.414 683.961 845.406 684.234 844.266 684.234C842.547 684.234 841.152 683.637 840.082 682.441C839.02 681.246 838.488 679.664 838.488 677.695V677.543ZM840.668 677.801C840.668 679.207 840.992 680.336 841.641 681.188C842.297 682.039 843.172 682.465 844.266 682.465C845.367 682.465 846.242 682.035 846.891 681.176C847.539 680.309 847.863 679.098 847.863 677.543C847.863 676.152 847.531 675.027 846.867 674.168C846.211 673.301 845.336 672.867 844.242 672.867C843.172 672.867 842.309 673.293 841.652 674.145C840.996 674.996 840.668 676.215 840.668 677.801ZM853.816 684V672.996H851.812V671.32H853.816V670.02C853.816 668.66 854.18 667.609 854.906 666.867C855.633 666.125 856.66 665.754 857.988 665.754C858.488 665.754 858.984 665.82 859.477 665.953L859.359 667.711C858.992 667.641 858.602 667.605 858.188 667.605C857.484 667.605 856.941 667.812 856.559 668.227C856.176 668.633 855.984 669.219 855.984 669.984V671.32H858.691V672.996H855.984V684H853.816ZM878.822 668.784C878.342 668.56 877.894 668.416 877.478 668.352C877.078 668.272 876.622 668.232 876.11 668.232C875.054 668.232 874.294 668.504 873.83 669.048C873.382 669.576 873.158 670.32 873.158 671.28V672.336H878.054V673.944H873.158V684H871.214V673.944H867.878V672.456L871.214 672.336V671.352C871.214 669.928 871.59 668.784 872.342 667.92C873.11 667.056 874.302 666.624 875.918 666.624C877.07 666.624 878.19 666.848 879.278 667.296L878.822 668.784ZM889.746 684H887.578V671.32H889.746V684ZM887.402 667.957C887.402 667.605 887.508 667.309 887.719 667.066C887.938 666.824 888.258 666.703 888.68 666.703C889.102 666.703 889.422 666.824 889.641 667.066C889.859 667.309 889.969 667.605 889.969 667.957C889.969 668.309 889.859 668.602 889.641 668.836C889.422 669.07 889.102 669.188 888.68 669.188C888.258 669.188 887.938 669.07 887.719 668.836C887.508 668.602 887.402 668.309 887.402 667.957ZM895.277 671.32L895.348 672.914C896.316 671.695 897.582 671.086 899.145 671.086C901.824 671.086 903.176 672.598 903.199 675.621V684H901.031V675.609C901.023 674.695 900.812 674.02 900.398 673.582C899.992 673.145 899.355 672.926 898.488 672.926C897.785 672.926 897.168 673.113 896.637 673.488C896.105 673.863 895.691 674.355 895.395 674.965V684H893.227V671.32H895.277ZM781.463 698.784C780.983 698.56 780.535 698.416 780.119 698.352C779.719 698.272 779.263 698.232 778.751 698.232C777.695 698.232 776.935 698.504 776.471 699.048C776.023 699.576 775.799 700.32 775.799 701.28V702.336H780.695V703.944H775.799V714H773.855V703.944H770.519V702.456L773.855 702.336V701.352C773.855 699.928 774.231 698.784 774.983 697.92C775.751 697.056 776.943 696.624 778.559 696.624C779.711 696.624 780.831 696.848 781.919 697.296L781.463 698.784ZM785.942 702.336H787.574L787.742 705.096H787.814C788.422 704.152 789.166 703.408 790.046 702.864C790.942 702.32 791.934 702.048 793.022 702.048C793.454 702.048 793.854 702.088 794.222 702.168C794.59 702.232 794.957 702.352 795.326 702.528L794.87 704.232C794.454 704.088 794.102 703.984 793.814 703.92C793.542 703.856 793.174 703.824 792.71 703.824C791.83 703.824 790.982 704.08 790.166 704.592C789.366 705.088 788.614 705.944 787.91 707.16V714H785.942V702.336ZM808.948 714H807.34L807.172 711.96H807.076C806.484 712.648 805.836 713.208 805.132 713.64C804.444 714.072 803.644 714.288 802.732 714.288C801.324 714.288 800.292 713.896 799.636 713.112C798.996 712.312 798.676 711.136 798.676 709.584V702.336H800.668V709.32C800.668 710.424 800.868 711.248 801.268 711.792C801.684 712.32 802.38 712.584 803.356 712.584C804.028 712.584 804.636 712.416 805.18 712.08C805.724 711.728 806.324 711.176 806.98 710.424V702.336H808.948V714ZM813.379 702.336H820.771V714H818.803V703.944H813.379V702.336ZM819.571 699.936C819.107 699.936 818.723 699.8 818.419 699.528C818.131 699.256 817.987 698.888 817.987 698.424C817.987 697.96 818.131 697.592 818.419 697.32C818.723 697.032 819.107 696.888 819.571 696.888C820.019 696.888 820.395 697.032 820.699 697.32C821.003 697.592 821.155 697.96 821.155 698.424C821.155 698.888 821.003 699.256 820.699 699.528C820.395 699.8 820.019 699.936 819.571 699.936ZM830.553 703.944H827.265V702.456L830.625 702.336L830.889 699.072H832.521V702.336H838.257V703.944H832.521V709.488C832.521 710.016 832.569 710.48 832.665 710.88C832.761 711.264 832.921 711.592 833.145 711.864C833.369 712.136 833.673 712.344 834.057 712.488C834.441 712.616 834.913 712.68 835.473 712.68C836.033 712.68 836.537 712.632 836.985 712.536C837.433 712.44 837.865 712.312 838.281 712.152L838.713 713.592C838.185 713.784 837.601 713.944 836.961 714.072C836.321 714.216 835.681 714.288 835.041 714.288C834.193 714.288 833.481 714.176 832.905 713.952C832.329 713.712 831.865 713.384 831.513 712.968C831.177 712.536 830.929 712.024 830.769 711.432C830.625 710.84 830.553 710.184 830.553 709.464V703.944ZM852.96 715.656V717.36H841.44V715.656H852.96ZM867.807 698.784C867.327 698.56 866.879 698.416 866.463 698.352C866.063 698.272 865.607 698.232 865.095 698.232C864.039 698.232 863.279 698.504 862.815 699.048C862.367 699.576 862.143 700.32 862.143 701.28V702.336H867.039V703.944H862.143V714H860.199V703.944H856.863V702.456L860.199 702.336V701.352C860.199 699.928 860.575 698.784 861.327 697.92C862.095 697.056 863.287 696.624 864.903 696.624C866.055 696.624 867.175 696.848 868.263 697.296L867.807 698.784ZM872.285 702.336H873.917L874.085 705.096H874.157C874.765 704.152 875.509 703.408 876.389 702.864C877.285 702.32 878.277 702.048 879.365 702.048C879.797 702.048 880.197 702.088 880.565 702.168C880.933 702.232 881.301 702.352 881.669 702.528L881.213 704.232C880.797 704.088 880.445 703.984 880.157 703.92C879.885 703.856 879.517 703.824 879.053 703.824C878.173 703.824 877.325 704.08 876.509 704.592C875.709 705.088 874.957 705.944 874.253 707.16V714H872.285V702.336ZM884.828 708.192C884.828 707.232 884.996 706.376 885.332 705.624C885.668 704.856 886.108 704.208 886.652 703.68C887.212 703.152 887.844 702.752 888.548 702.48C889.268 702.192 890.004 702.048 890.756 702.048C891.588 702.048 892.332 702.184 892.988 702.456C893.644 702.712 894.196 703.08 894.644 703.56C895.108 704.04 895.46 704.616 895.7 705.288C895.94 705.96 896.06 706.704 896.06 707.52C896.06 707.728 896.052 707.936 896.036 708.144C896.036 708.336 896.02 708.504 895.988 708.648H886.868C886.884 709.272 887.004 709.832 887.228 710.328C887.468 710.824 887.78 711.248 888.164 711.6C888.564 711.952 889.028 712.224 889.556 712.416C890.1 712.608 890.692 712.704 891.332 712.704C892.02 712.704 892.644 712.608 893.204 712.416C893.78 712.224 894.34 711.96 894.884 711.624L895.58 712.92C895.004 713.288 894.348 713.608 893.612 713.88C892.876 714.152 892.036 714.288 891.092 714.288C890.228 714.288 889.412 714.152 888.644 713.88C887.892 713.592 887.228 713.192 886.652 712.68C886.092 712.152 885.644 711.512 885.308 710.76C884.988 710.008 884.828 709.152 884.828 708.192ZM894.236 707.232C894.236 706.064 893.932 705.168 893.324 704.544C892.716 703.92 891.868 703.608 890.78 703.608C890.3 703.608 889.836 703.688 889.388 703.848C888.956 704.008 888.564 704.248 888.212 704.568C887.86 704.872 887.564 705.248 887.324 705.696C887.084 706.144 886.924 706.656 886.844 707.232H894.236ZM899.003 708.192C899.003 707.248 899.147 706.4 899.435 705.648C899.739 704.88 900.131 704.232 900.611 703.704C901.107 703.176 901.675 702.768 902.315 702.48C902.955 702.192 903.619 702.048 904.307 702.048C905.027 702.048 905.667 702.184 906.227 702.456C906.787 702.728 907.347 703.12 907.907 703.632H907.979L908.147 702.336H909.731V718.92H907.763V714.624L907.859 712.512C907.347 713.008 906.763 713.432 906.107 713.784C905.467 714.12 904.787 714.288 904.067 714.288C903.299 714.288 902.603 714.152 901.979 713.88C901.371 713.608 900.843 713.216 900.395 712.704C899.947 712.176 899.603 711.536 899.363 710.784C899.123 710.032 899.003 709.168 899.003 708.192ZM901.043 708.168C901.043 709.576 901.339 710.672 901.931 711.456C902.539 712.24 903.387 712.632 904.475 712.632C905.627 712.632 906.723 712.048 907.763 710.88V705.072C907.235 704.576 906.715 704.224 906.203 704.016C905.707 703.808 905.203 703.704 904.691 703.704C904.179 703.704 903.699 703.816 903.251 704.04C902.819 704.248 902.435 704.552 902.099 704.952C901.779 705.336 901.523 705.8 901.331 706.344C901.139 706.888 901.043 707.496 901.043 708.168Z" fill="white"/>
<rect x="834.506" y="18.7071" width="149.163" height="150.022" transform="rotate(45 834.506 18.7071)" fill="#E69F00" stroke="black"/>
<path d="M790.707 108H788.457V90.9375H790.707V108ZM801.875 104.637C801.875 104.051 801.652 103.598 801.207 103.277C800.77 102.949 800 102.668 798.898 102.434C797.805 102.199 796.934 101.918 796.285 101.59C795.645 101.262 795.168 100.871 794.855 100.418C794.551 99.9648 794.398 99.4258 794.398 98.8008C794.398 97.7617 794.836 96.8828 795.711 96.1641C796.594 95.4453 797.719 95.0859 799.086 95.0859C800.523 95.0859 801.688 95.457 802.578 96.1992C803.477 96.9414 803.926 97.8906 803.926 99.0469H801.746C801.746 98.4531 801.492 97.9414 800.984 97.5117C800.484 97.082 799.852 96.8672 799.086 96.8672C798.297 96.8672 797.68 97.0391 797.234 97.3828C796.789 97.7266 796.566 98.1758 796.566 98.7305C796.566 99.2539 796.773 99.6484 797.188 99.9141C797.602 100.18 798.348 100.434 799.426 100.676C800.512 100.918 801.391 101.207 802.062 101.543C802.734 101.879 803.23 102.285 803.551 102.762C803.879 103.23 804.043 103.805 804.043 104.484C804.043 105.617 803.59 106.527 802.684 107.215C801.777 107.895 800.602 108.234 799.156 108.234C798.141 108.234 797.242 108.055 796.461 107.695C795.68 107.336 795.066 106.836 794.621 106.195C794.184 105.547 793.965 104.848 793.965 104.098H796.133C796.172 104.824 796.461 105.402 797 105.832C797.547 106.254 798.266 106.465 799.156 106.465C799.977 106.465 800.633 106.301 801.125 105.973C801.625 105.637 801.875 105.191 801.875 104.637ZM824.596 92.784C824.116 92.56 823.668 92.416 823.252 92.352C822.852 92.272 822.396 92.232 821.884 92.232C820.828 92.232 820.068 92.504 819.604 93.048C819.156 93.576 818.932 94.32 818.932 95.28V96.336H823.828V97.944H818.932V108H816.988V97.944H813.652V96.456L816.988 96.336V95.352C816.988 93.928 817.364 92.784 818.116 91.92C818.884 91.056 820.076 90.624 821.692 90.624C822.844 90.624 823.964 90.848 825.052 91.296L824.596 92.784ZM835.941 95.3203L836.047 96.7852C836.953 95.6523 838.168 95.0859 839.691 95.0859C841.035 95.0859 842.035 95.4805 842.691 96.2695C843.348 97.0586 843.684 98.2383 843.699 99.8086V108H840.312V99.8906C840.312 99.1719 840.156 98.6523 839.844 98.332C839.531 98.0039 839.012 97.8398 838.285 97.8398C837.332 97.8398 836.617 98.2461 836.141 99.0586V108H832.754V95.3203H835.941ZM845.75 101.543C845.75 100.285 845.992 99.1641 846.477 98.1797C846.961 97.1953 847.656 96.4336 848.562 95.8945C849.477 95.3555 850.535 95.0859 851.738 95.0859C853.449 95.0859 854.844 95.6094 855.922 96.6562C857.008 97.7031 857.613 99.125 857.738 100.922L857.762 101.789C857.762 103.734 857.219 105.297 856.133 106.477C855.047 107.648 853.59 108.234 851.762 108.234C849.934 108.234 848.473 107.648 847.379 106.477C846.293 105.305 845.75 103.711 845.75 101.695V101.543ZM849.137 101.789C849.137 102.992 849.363 103.914 849.816 104.555C850.27 105.188 850.918 105.504 851.762 105.504C852.582 105.504 853.223 105.191 853.684 104.566C854.145 103.934 854.375 102.926 854.375 101.543C854.375 100.363 854.145 99.4492 853.684 98.8008C853.223 98.1523 852.574 97.8281 851.738 97.8281C850.91 97.8281 850.27 98.1523 849.816 98.8008C849.363 99.4414 849.137 100.438 849.137 101.789ZM863.902 92.2031V95.3203H866.07V97.8047H863.902V104.133C863.902 104.602 863.992 104.938 864.172 105.141C864.352 105.344 864.695 105.445 865.203 105.445C865.578 105.445 865.91 105.418 866.199 105.363V107.93C865.535 108.133 864.852 108.234 864.148 108.234C861.773 108.234 860.562 107.035 860.516 104.637V97.8047H858.664V95.3203H860.516V92.2031H863.902ZM876.605 108H874.438V95.3203H876.605V108ZM874.262 91.957C874.262 91.6055 874.367 91.3086 874.578 91.0664C874.797 90.8242 875.117 90.7031 875.539 90.7031C875.961 90.7031 876.281 90.8242 876.5 91.0664C876.719 91.3086 876.828 91.6055 876.828 91.957C876.828 92.3086 876.719 92.6016 876.5 92.8359C876.281 93.0703 875.961 93.1875 875.539 93.1875C875.117 93.1875 874.797 93.0703 874.578 92.8359C874.367 92.6016 874.262 92.3086 874.262 91.957ZM882.137 95.3203L882.207 96.9141C883.176 95.6953 884.441 95.0859 886.004 95.0859C888.684 95.0859 890.035 96.5977 890.059 99.6211V108H887.891V99.6094C887.883 98.6953 887.672 98.0195 887.258 97.582C886.852 97.1445 886.215 96.9258 885.348 96.9258C884.645 96.9258 884.027 97.1133 883.496 97.4883C882.965 97.8633 882.551 98.3555 882.254 98.9648V108H880.086V95.3203H882.137ZM774.791 122.784C774.311 122.56 773.863 122.416 773.447 122.352C773.047 122.272 772.591 122.232 772.079 122.232C771.023 122.232 770.263 122.504 769.799 123.048C769.351 123.576 769.127 124.32 769.127 125.28V126.336H774.023V127.944H769.127V138H767.183V127.944H763.847V126.456L767.183 126.336V125.352C767.183 123.928 767.559 122.784 768.311 121.92C769.079 121.056 770.271 120.624 771.887 120.624C773.039 120.624 774.159 120.848 775.247 121.296L774.791 122.784ZM779.27 126.336H780.902L781.07 129.096H781.142C781.75 128.152 782.494 127.408 783.374 126.864C784.27 126.32 785.262 126.048 786.35 126.048C786.782 126.048 787.182 126.088 787.55 126.168C787.918 126.232 788.286 126.352 788.654 126.528L788.198 128.232C787.782 128.088 787.43 127.984 787.142 127.92C786.87 127.856 786.502 127.824 786.038 127.824C785.158 127.824 784.31 128.08 783.494 128.592C782.694 129.088 781.942 129.944 781.238 131.16V138H779.27V126.336ZM802.276 138H800.668L800.5 135.96H800.404C799.812 136.648 799.164 137.208 798.46 137.64C797.772 138.072 796.972 138.288 796.06 138.288C794.652 138.288 793.62 137.896 792.964 137.112C792.324 136.312 792.004 135.136 792.004 133.584V126.336H793.996V133.32C793.996 134.424 794.196 135.248 794.596 135.792C795.012 136.32 795.708 136.584 796.684 136.584C797.356 136.584 797.964 136.416 798.508 136.08C799.052 135.728 799.652 135.176 800.308 134.424V126.336H802.276V138ZM806.707 126.336H814.099V138H812.131V127.944H806.707V126.336ZM812.899 123.936C812.435 123.936 812.051 123.8 811.747 123.528C811.459 123.256 811.315 122.888 811.315 122.424C811.315 121.96 811.459 121.592 811.747 121.32C812.051 121.032 812.435 120.888 812.899 120.888C813.347 120.888 813.723 121.032 814.027 121.32C814.331 121.592 814.483 121.96 814.483 122.424C814.483 122.888 814.331 123.256 814.027 123.528C813.723 123.8 813.347 123.936 812.899 123.936ZM823.882 127.944H820.594V126.456L823.954 126.336L824.218 123.072H825.85V126.336H831.586V127.944H825.85V133.488C825.85 134.016 825.898 134.48 825.993 134.88C826.09 135.264 826.25 135.592 826.474 135.864C826.698 136.136 827.002 136.344 827.386 136.488C827.77 136.616 828.242 136.68 828.802 136.68C829.362 136.68 829.866 136.632 830.314 136.536C830.762 136.44 831.194 136.312 831.609 136.152L832.042 137.592C831.514 137.784 830.93 137.944 830.29 138.072C829.65 138.216 829.01 138.288 828.37 138.288C827.522 138.288 826.81 138.176 826.234 137.952C825.658 137.712 825.194 137.384 824.842 136.968C824.506 136.536 824.258 136.024 824.098 135.432C823.954 134.84 823.882 134.184 823.882 133.464V127.944ZM846.288 139.656V141.36H834.768V139.656H846.288ZM861.135 122.784C860.655 122.56 860.207 122.416 859.791 122.352C859.391 122.272 858.935 122.232 858.423 122.232C857.367 122.232 856.607 122.504 856.143 123.048C855.695 123.576 855.471 124.32 855.471 125.28V126.336H860.367V127.944H855.471V138H853.527V127.944H850.191V126.456L853.527 126.336V125.352C853.527 123.928 853.903 122.784 854.655 121.92C855.423 121.056 856.615 120.624 858.231 120.624C859.383 120.624 860.503 120.848 861.591 121.296L861.135 122.784ZM865.613 126.336H867.245L867.413 129.096H867.485C868.093 128.152 868.837 127.408 869.717 126.864C870.613 126.32 871.605 126.048 872.693 126.048C873.125 126.048 873.525 126.088 873.893 126.168C874.261 126.232 874.629 126.352 874.997 126.528L874.541 128.232C874.125 128.088 873.773 127.984 873.485 127.92C873.213 127.856 872.845 127.824 872.381 127.824C871.501 127.824 870.653 128.08 869.837 128.592C869.037 129.088 868.285 129.944 867.581 131.16V138H865.613V126.336ZM878.156 132.192C878.156 131.232 878.324 130.376 878.66 129.624C878.996 128.856 879.436 128.208 879.98 127.68C880.54 127.152 881.172 126.752 881.876 126.48C882.596 126.192 883.332 126.048 884.084 126.048C884.916 126.048 885.66 126.184 886.316 126.456C886.972 126.712 887.524 127.08 887.972 127.56C888.436 128.04 888.788 128.616 889.028 129.288C889.268 129.96 889.388 130.704 889.388 131.52C889.388 131.728 889.38 131.936 889.364 132.144C889.364 132.336 889.348 132.504 889.316 132.648H880.196C880.212 133.272 880.332 133.832 880.556 134.328C880.796 134.824 881.108 135.248 881.492 135.6C881.892 135.952 882.356 136.224 882.884 136.416C883.428 136.608 884.02 136.704 884.66 136.704C885.348 136.704 885.972 136.608 886.532 136.416C887.108 136.224 887.668 135.96 888.212 135.624L888.908 136.92C888.332 137.288 887.676 137.608 886.94 137.88C886.204 138.152 885.364 138.288 884.42 138.288C883.556 138.288 882.74 138.152 881.972 137.88C881.22 137.592 880.556 137.192 879.98 136.68C879.42 136.152 878.972 135.512 878.636 134.76C878.316 134.008 878.156 133.152 878.156 132.192ZM887.564 131.232C887.564 130.064 887.26 129.168 886.652 128.544C886.044 127.92 885.196 127.608 884.108 127.608C883.628 127.608 883.164 127.688 882.716 127.848C882.284 128.008 881.892 128.248 881.54 128.568C881.188 128.872 880.892 129.248 880.652 129.696C880.412 130.144 880.252 130.656 880.172 131.232H887.564ZM892.331 132.192C892.331 131.248 892.475 130.4 892.763 129.648C893.067 128.88 893.459 128.232 893.939 127.704C894.435 127.176 895.003 126.768 895.643 126.48C896.283 126.192 896.947 126.048 897.635 126.048C898.355 126.048 898.995 126.184 899.555 126.456C900.115 126.728 900.675 127.12 901.235 127.632H901.307L901.475 126.336H903.059V142.92H901.091V138.624L901.187 136.512C900.675 137.008 900.091 137.432 899.435 137.784C898.795 138.12 898.115 138.288 897.395 138.288C896.627 138.288 895.931 138.152 895.307 137.88C894.699 137.608 894.171 137.216 893.723 136.704C893.275 136.176 892.931 135.536 892.691 134.784C892.451 134.032 892.331 133.168 892.331 132.192ZM894.371 132.168C894.371 133.576 894.667 134.672 895.259 135.456C895.867 136.24 896.715 136.632 897.803 136.632C898.955 136.632 900.051 136.048 901.091 134.88V129.072C900.563 128.576 900.043 128.224 899.531 128.016C899.035 127.808 898.531 127.704 898.019 127.704C897.507 127.704 897.027 127.816 896.579 128.04C896.147 128.248 895.763 128.552 895.427 128.952C895.107 129.336 894.851 129.8 894.659 130.344C894.467 130.888 894.371 131.496 894.371 132.168ZM909.465 133.195C909.48 132.266 909.586 131.531 909.781 130.992C909.977 130.453 910.375 129.855 910.977 129.199L912.512 127.617C913.168 126.875 913.496 126.078 913.496 125.227C913.496 124.406 913.281 123.766 912.852 123.305C912.422 122.836 911.797 122.602 910.977 122.602C910.18 122.602 909.539 122.812 909.055 123.234C908.57 123.656 908.328 124.223 908.328 124.934H906.16C906.176 123.668 906.625 122.648 907.508 121.875C908.398 121.094 909.555 120.703 910.977 120.703C912.453 120.703 913.602 121.102 914.422 121.898C915.25 122.688 915.664 123.773 915.664 125.156C915.664 126.523 915.031 127.871 913.766 129.199L912.488 130.465C911.918 131.098 911.633 132.008 911.633 133.195H909.465ZM909.371 136.91C909.371 136.559 909.477 136.266 909.688 136.031C909.906 135.789 910.227 135.668 910.648 135.668C911.07 135.668 911.391 135.789 911.609 136.031C911.828 136.266 911.938 136.559 911.938 136.91C911.938 137.262 911.828 137.555 911.609 137.789C911.391 138.016 911.07 138.129 910.648 138.129C910.227 138.129 909.906 138.016 909.688 137.789C909.477 137.555 909.371 137.262 909.371 136.91Z" fill="black"/>
<path d="M1028.21 99.4922L1034.01 90.9375H1036.64L1028.98 101.754L1027.89 108H1025.7L1026.83 101.508L1023.02 90.9375H1025.41L1028.21 99.4922ZM1040.23 108.234C1038.66 108.203 1037.42 107.621 1036.53 106.488C1035.64 105.355 1035.27 103.906 1035.41 102.141L1035.46 101.637C1035.6 100.379 1035.97 99.2305 1036.58 98.1914C1037.2 97.1523 1037.95 96.3711 1038.83 95.8477C1039.71 95.3164 1040.66 95.0625 1041.69 95.0859C1042.99 95.1172 1044.02 95.5508 1044.76 96.3867C1045.5 97.2227 1045.91 98.3555 1045.98 99.7852C1046 100.293 1045.98 100.801 1045.93 101.309L1045.8 102.281H1037.52C1037.38 103.43 1037.56 104.406 1038.08 105.211C1038.6 106.016 1039.38 106.434 1040.41 106.465C1041.66 106.496 1042.82 105.934 1043.88 104.777L1045.1 105.809C1044.57 106.574 1043.88 107.176 1043.04 107.613C1042.2 108.043 1041.27 108.25 1040.23 108.234ZM1041.58 96.8555C1040.71 96.832 1039.94 97.1289 1039.29 97.7461C1038.64 98.3633 1038.12 99.2812 1037.74 100.5L1043.9 100.512L1043.95 100.324C1044.07 99.3398 1043.91 98.5234 1043.47 97.875C1043.03 97.2188 1042.4 96.8789 1041.58 96.8555ZM1055.05 104.566C1055.16 103.691 1054.68 103.074 1053.61 102.715L1051.4 102.07C1049.54 101.43 1048.64 100.367 1048.71 98.8828C1048.76 97.7656 1049.27 96.8516 1050.23 96.1406C1051.2 95.4219 1052.34 95.0703 1053.64 95.0859C1054.92 95.1016 1055.96 95.4766 1056.76 96.2109C1057.56 96.9375 1057.95 97.8867 1057.92 99.0586L1055.81 99.0469C1055.82 98.4141 1055.62 97.8984 1055.21 97.5C1054.8 97.1016 1054.25 96.8945 1053.56 96.8789C1052.82 96.8633 1052.19 97.043 1051.66 97.418C1051.17 97.7695 1050.88 98.2305 1050.8 98.8008C1050.7 99.5352 1051.15 100.07 1052.15 100.406L1053.22 100.699C1054.67 101.074 1055.7 101.562 1056.31 102.164C1056.92 102.766 1057.2 103.512 1057.16 104.402C1057.11 105.191 1056.85 105.879 1056.38 106.465C1055.91 107.051 1055.29 107.5 1054.51 107.812C1053.73 108.117 1052.89 108.258 1052.01 108.234C1050.67 108.219 1049.56 107.828 1048.68 107.062C1047.81 106.289 1047.39 105.297 1047.42 104.086L1049.54 104.098C1049.54 104.809 1049.77 105.379 1050.22 105.809C1050.67 106.238 1051.29 106.453 1052.08 106.453C1052.86 106.469 1053.52 106.309 1054.09 105.973C1054.65 105.629 1054.97 105.16 1055.05 104.566Z" fill="#333333"/>
<path d="M802.371 282H800.238L794.145 268.758L791.848 282H789.633L792.598 264.938H794.73L800.836 278.238L803.145 264.938H805.336L802.371 282ZM813.059 269.086C814.121 269.102 815.031 269.391 815.789 269.953C816.547 270.516 817.105 271.293 817.465 272.285C817.832 273.27 817.957 274.348 817.84 275.52L817.816 275.777C817.668 277.012 817.301 278.129 816.715 279.129C816.129 280.121 815.371 280.895 814.441 281.449C813.512 282.004 812.492 282.266 811.383 282.234C810.328 282.219 809.418 281.93 808.652 281.367C807.895 280.805 807.34 280.039 806.988 279.07C806.637 278.102 806.512 277.035 806.613 275.871C806.73 274.559 807.086 273.379 807.68 272.332C808.273 271.285 809.035 270.477 809.965 269.906C810.902 269.328 811.934 269.055 813.059 269.086ZM808.746 275.883C808.691 276.375 808.691 276.887 808.746 277.418C808.824 278.34 809.098 279.074 809.566 279.621C810.043 280.168 810.676 280.453 811.465 280.477C812.168 280.5 812.816 280.328 813.41 279.961C814.004 279.586 814.504 279.023 814.91 278.273C815.316 277.523 815.578 276.691 815.695 275.777C815.758 275.059 815.77 274.453 815.73 273.961C815.637 273.016 815.352 272.27 814.875 271.723C814.398 271.176 813.766 270.887 812.977 270.855C811.883 270.832 810.953 271.262 810.188 272.145C809.422 273.027 808.949 274.184 808.77 275.613L808.746 275.883Z" fill="#333333"/>
<path d="M831.879 558.121C833.05 559.293 834.95 559.293 836.121 558.121L855.213 539.029C856.385 537.858 856.385 535.958 855.213 534.787C854.042 533.615 852.142 533.615 850.971 534.787L834 551.757L817.029 534.787C815.858 533.615 813.958 533.615 812.787 534.787C811.615 535.958 811.615 537.858 812.787 539.029L831.879 558.121ZM831 244V556H837V244H831Z" fill="#333333"/>
<path d="M1081.88 256.121C1083.05 257.293 1084.95 257.293 1086.12 256.121L1105.21 237.029C1106.38 235.858 1106.38 233.958 1105.21 232.787C1104.04 231.615 1102.14 231.615 1100.97 232.787L1084 249.757L1067.03 232.787C1065.86 231.615 1063.96 231.615 1062.79 232.787C1061.62 233.958 1061.62 235.858 1062.79 237.029L1081.88 256.121ZM1081 116L1081 254L1087 254L1087 116L1081 116Z" fill="#333333"/>
<line x1="962" y1="119" x2="1086" y2="119" stroke="#333333" stroke-width="3"/>
</svg>
