<svg width="1200" height="646" viewBox="0 0 1200 646" fill="none" xmlns="http://www.w3.org/2000/svg">
<rect width="600" height="323" transform="scale(2)" fill="white"/>
<path d="M504.121 204.121C505.293 202.95 505.293 201.05 504.121 199.879L485.029 180.787C483.858 179.615 481.958 179.615 480.787 180.787C479.615 181.958 479.615 183.858 480.787 185.029L497.757 202L480.787 218.971C479.615 220.142 479.615 222.042 480.787 223.213C481.958 224.385 483.858 224.385 485.029 223.213L504.121 204.121ZM356 205H502V199H356V205Z" fill="black"/>
<path d="M918.121 204.121C919.293 202.95 919.293 201.05 918.121 199.879L899.029 180.787C897.858 179.615 895.958 179.615 894.787 180.787C893.615 181.958 893.615 183.858 894.787 185.029L911.757 202L894.787 218.971C893.615 220.142 893.615 222.042 894.787 223.213C895.958 224.385 897.858 224.385 899.029 223.213L918.121 204.121ZM768 205H916V199H768V205Z" fill="black"/>
<path d="M765.879 489.879C764.707 491.05 764.707 492.95 765.879 494.121L784.971 513.213C786.142 514.385 788.042 514.385 789.213 513.213C790.385 512.042 790.385 510.142 789.213 508.971L772.243 492L789.213 475.029C790.385 473.858 790.385 471.958 789.213 470.787C788.042 469.615 786.142 469.615 784.971 470.787L765.879 489.879ZM1054 489L768 489V495L1054 495V489Z" fill="black"/>
<path d="M353.879 491.879C352.707 493.05 352.707 494.95 353.879 496.121L372.971 515.213C374.142 516.385 376.042 516.385 377.213 515.213C378.385 514.042 378.385 512.142 377.213 510.971L360.243 494L377.213 477.029C378.385 475.858 378.385 473.958 377.213 472.787C376.042 471.615 374.142 471.615 372.971 472.787L353.879 491.879ZM504 491L356 491L356 497L504 497L504 491Z" fill="black"/>
<rect x="100.5" y="126.5" width="193" height="151" fill="#56B4E9" stroke="black"/>
<path d="M138.008 210C137.883 209.75 137.781 209.305 137.703 208.664C136.695 209.711 135.492 210.234 134.094 210.234C132.844 210.234 131.816 209.883 131.012 209.18C130.215 208.469 129.816 207.57 129.816 206.484C129.816 205.164 130.316 204.141 131.316 203.414C132.324 202.68 133.738 202.312 135.559 202.312H137.668V201.316C137.668 200.559 137.441 199.957 136.988 199.512C136.535 199.059 135.867 198.832 134.984 198.832C134.211 198.832 133.562 199.027 133.039 199.418C132.516 199.809 132.254 200.281 132.254 200.836H130.074C130.074 200.203 130.297 199.594 130.742 199.008C131.195 198.414 131.805 197.945 132.57 197.602C133.344 197.258 134.191 197.086 135.113 197.086C136.574 197.086 137.719 197.453 138.547 198.188C139.375 198.914 139.805 199.918 139.836 201.199V207.035C139.836 208.199 139.984 209.125 140.281 209.812V210H138.008ZM134.41 208.348C135.09 208.348 135.734 208.172 136.344 207.82C136.953 207.469 137.395 207.012 137.668 206.449V203.848H135.969C133.312 203.848 131.984 204.625 131.984 206.18C131.984 206.859 132.211 207.391 132.664 207.773C133.117 208.156 133.699 208.348 134.41 208.348ZM149.363 199.266C149.035 199.211 148.68 199.184 148.297 199.184C146.875 199.184 145.91 199.789 145.402 201V210H143.234V197.32H145.344L145.379 198.785C146.09 197.652 147.098 197.086 148.402 197.086C148.824 197.086 149.145 197.141 149.363 197.25V199.266ZM154.895 194.25V197.32H157.262V198.996H154.895V206.859C154.895 207.367 155 207.75 155.211 208.008C155.422 208.258 155.781 208.383 156.289 208.383C156.539 208.383 156.883 208.336 157.32 208.242V210C156.75 210.156 156.195 210.234 155.656 210.234C154.688 210.234 153.957 209.941 153.465 209.355C152.973 208.77 152.727 207.938 152.727 206.859V198.996H150.418V197.32H152.727V194.25H154.895ZM171.031 207.012L173.469 197.32H175.637L171.945 210H170.188L167.105 200.391L164.105 210H162.348L158.668 197.32H160.824L163.32 206.812L166.273 197.32H168.02L171.031 207.012ZM177.277 203.543C177.277 202.301 177.52 201.184 178.004 200.191C178.496 199.199 179.176 198.434 180.043 197.895C180.918 197.355 181.914 197.086 183.031 197.086C184.758 197.086 186.152 197.684 187.215 198.879C188.285 200.074 188.82 201.664 188.82 203.648V203.801C188.82 205.035 188.582 206.145 188.105 207.129C187.637 208.105 186.961 208.867 186.078 209.414C185.203 209.961 184.195 210.234 183.055 210.234C181.336 210.234 179.941 209.637 178.871 208.441C177.809 207.246 177.277 205.664 177.277 203.695V203.543ZM179.457 203.801C179.457 205.207 179.781 206.336 180.43 207.188C181.086 208.039 181.961 208.465 183.055 208.465C184.156 208.465 185.031 208.035 185.68 207.176C186.328 206.309 186.652 205.098 186.652 203.543C186.652 202.152 186.32 201.027 185.656 200.168C185 199.301 184.125 198.867 183.031 198.867C181.961 198.867 181.098 199.293 180.441 200.145C179.785 200.996 179.457 202.215 179.457 203.801ZM197.668 199.266C197.34 199.211 196.984 199.184 196.602 199.184C195.18 199.184 194.215 199.789 193.707 201V210H191.539V197.32H193.648L193.684 198.785C194.395 197.652 195.402 197.086 196.707 197.086C197.129 197.086 197.449 197.141 197.668 197.25V199.266ZM203.211 204.129L201.852 205.547V210H199.684V192H201.852V202.887L203.012 201.492L206.961 197.32H209.598L204.664 202.617L210.172 210H207.629L203.211 204.129ZM219.219 206.637C219.219 206.051 218.996 205.598 218.551 205.277C218.113 204.949 217.344 204.668 216.242 204.434C215.148 204.199 214.277 203.918 213.629 203.59C212.988 203.262 212.512 202.871 212.199 202.418C211.895 201.965 211.742 201.426 211.742 200.801C211.742 199.762 212.18 198.883 213.055 198.164C213.938 197.445 215.062 197.086 216.43 197.086C217.867 197.086 219.031 197.457 219.922 198.199C220.82 198.941 221.27 199.891 221.27 201.047H219.09C219.09 200.453 218.836 199.941 218.328 199.512C217.828 199.082 217.195 198.867 216.43 198.867C215.641 198.867 215.023 199.039 214.578 199.383C214.133 199.727 213.91 200.176 213.91 200.73C213.91 201.254 214.117 201.648 214.531 201.914C214.945 202.18 215.691 202.434 216.77 202.676C217.855 202.918 218.734 203.207 219.406 203.543C220.078 203.879 220.574 204.285 220.895 204.762C221.223 205.23 221.387 205.805 221.387 206.484C221.387 207.617 220.934 208.527 220.027 209.215C219.121 209.895 217.945 210.234 216.5 210.234C215.484 210.234 214.586 210.055 213.805 209.695C213.023 209.336 212.41 208.836 211.965 208.195C211.527 207.547 211.309 206.848 211.309 206.098H213.477C213.516 206.824 213.805 207.402 214.344 207.832C214.891 208.254 215.609 208.465 216.5 208.465C217.32 208.465 217.977 208.301 218.469 207.973C218.969 207.637 219.219 207.191 219.219 206.637ZM224.258 208.863C224.258 208.488 224.367 208.176 224.586 207.926C224.812 207.676 225.148 207.551 225.594 207.551C226.039 207.551 226.375 207.676 226.602 207.926C226.836 208.176 226.953 208.488 226.953 208.863C226.953 209.223 226.836 209.523 226.602 209.766C226.375 210.008 226.039 210.129 225.594 210.129C225.148 210.129 224.812 210.008 224.586 209.766C224.367 209.523 224.258 209.223 224.258 208.863ZM235.625 208.465C236.398 208.465 237.074 208.23 237.652 207.762C238.23 207.293 238.551 206.707 238.613 206.004H240.664C240.625 206.73 240.375 207.422 239.914 208.078C239.453 208.734 238.836 209.258 238.062 209.648C237.297 210.039 236.484 210.234 235.625 210.234C233.898 210.234 232.523 209.66 231.5 208.512C230.484 207.355 229.977 205.777 229.977 203.777V203.414C229.977 202.18 230.203 201.082 230.656 200.121C231.109 199.16 231.758 198.414 232.602 197.883C233.453 197.352 234.457 197.086 235.613 197.086C237.035 197.086 238.215 197.512 239.152 198.363C240.098 199.215 240.602 200.32 240.664 201.68H238.613C238.551 200.859 238.238 200.188 237.676 199.664C237.121 199.133 236.434 198.867 235.613 198.867C234.512 198.867 233.656 199.266 233.047 200.062C232.445 200.852 232.145 201.996 232.145 203.496V203.906C232.145 205.367 232.445 206.492 233.047 207.281C233.648 208.07 234.508 208.465 235.625 208.465ZM250.484 206.637C250.484 206.051 250.262 205.598 249.816 205.277C249.379 204.949 248.609 204.668 247.508 204.434C246.414 204.199 245.543 203.918 244.895 203.59C244.254 203.262 243.777 202.871 243.465 202.418C243.16 201.965 243.008 201.426 243.008 200.801C243.008 199.762 243.445 198.883 244.32 198.164C245.203 197.445 246.328 197.086 247.695 197.086C249.133 197.086 250.297 197.457 251.188 198.199C252.086 198.941 252.535 199.891 252.535 201.047H250.355C250.355 200.453 250.102 199.941 249.594 199.512C249.094 199.082 248.461 198.867 247.695 198.867C246.906 198.867 246.289 199.039 245.844 199.383C245.398 199.727 245.176 200.176 245.176 200.73C245.176 201.254 245.383 201.648 245.797 201.914C246.211 202.18 246.957 202.434 248.035 202.676C249.121 202.918 250 203.207 250.672 203.543C251.344 203.879 251.84 204.285 252.16 204.762C252.488 205.23 252.652 205.805 252.652 206.484C252.652 207.617 252.199 208.527 251.293 209.215C250.387 209.895 249.211 210.234 247.766 210.234C246.75 210.234 245.852 210.055 245.07 209.695C244.289 209.336 243.676 208.836 243.23 208.195C242.793 207.547 242.574 206.848 242.574 206.098H244.742C244.781 206.824 245.07 207.402 245.609 207.832C246.156 208.254 246.875 208.465 247.766 208.465C248.586 208.465 249.242 208.301 249.734 207.973C250.234 207.637 250.484 207.191 250.484 206.637ZM259.66 207.059L262.801 197.32H265.016L260.469 210H258.816L254.223 197.32H256.438L259.66 207.059Z" fill="#333333"/>
<rect x="958.5" y="126.5" width="195" height="151" fill="#0072B2" stroke="black"/>
<path d="M1020.14 197.207L1020.21 198.848C1021.29 197.572 1022.75 196.934 1024.6 196.934C1026.66 196.934 1028.07 197.727 1028.82 199.312C1029.31 198.602 1029.95 198.027 1030.73 197.59C1031.53 197.152 1032.46 196.934 1033.54 196.934C1036.78 196.934 1038.43 198.652 1038.49 202.088V212H1035.96V202.238C1035.96 201.181 1035.72 200.393 1035.23 199.873C1034.75 199.344 1033.94 199.08 1032.8 199.08C1031.86 199.08 1031.08 199.363 1030.46 199.928C1029.84 200.484 1029.48 201.236 1029.38 202.184V212H1026.84V202.307C1026.84 200.156 1025.79 199.08 1023.68 199.08C1022.02 199.08 1020.89 199.786 1020.28 201.199V212H1017.75V197.207H1020.14ZM1041.64 204.467C1041.64 203.018 1041.93 201.714 1042.49 200.557C1043.07 199.399 1043.86 198.506 1044.87 197.877C1045.89 197.248 1047.05 196.934 1048.36 196.934C1050.37 196.934 1052 197.631 1053.24 199.025C1054.49 200.42 1055.11 202.275 1055.11 204.59V204.768C1055.11 206.208 1054.83 207.502 1054.28 208.65C1053.73 209.79 1052.94 210.678 1051.91 211.316C1050.89 211.954 1049.72 212.273 1048.38 212.273C1046.38 212.273 1044.75 211.576 1043.5 210.182C1042.26 208.787 1041.64 206.941 1041.64 204.645V204.467ZM1044.19 204.768C1044.19 206.408 1044.57 207.725 1045.32 208.719C1046.09 209.712 1047.11 210.209 1048.38 210.209C1049.67 210.209 1050.69 209.708 1051.45 208.705C1052.2 207.693 1052.58 206.281 1052.58 204.467C1052.58 202.844 1052.19 201.532 1051.42 200.529C1050.65 199.518 1049.63 199.012 1048.36 199.012C1047.11 199.012 1046.1 199.508 1045.34 200.502C1044.57 201.495 1044.19 202.917 1044.19 204.768ZM1060.66 197.207L1060.73 198.848C1061.82 197.572 1063.28 196.934 1065.12 196.934C1067.19 196.934 1068.6 197.727 1069.34 199.312C1069.84 198.602 1070.47 198.027 1071.26 197.59C1072.05 197.152 1072.99 196.934 1074.06 196.934C1077.31 196.934 1078.96 198.652 1079.01 202.088V212H1076.48V202.238C1076.48 201.181 1076.24 200.393 1075.76 199.873C1075.27 199.344 1074.46 199.08 1073.32 199.08C1072.38 199.08 1071.6 199.363 1070.98 199.928C1070.36 200.484 1070 201.236 1069.9 202.184V212H1067.36V202.307C1067.36 200.156 1066.31 199.08 1064.2 199.08C1062.54 199.08 1061.41 199.786 1060.8 201.199V212H1058.27V197.207H1060.66ZM1091.97 212C1091.82 211.708 1091.71 211.189 1091.62 210.441C1090.44 211.663 1089.04 212.273 1087.4 212.273C1085.95 212.273 1084.75 211.863 1083.81 211.043C1082.88 210.214 1082.41 209.165 1082.41 207.898C1082.41 206.358 1083 205.164 1084.16 204.316C1085.34 203.46 1086.99 203.031 1089.11 203.031H1091.57V201.869C1091.57 200.985 1091.31 200.283 1090.78 199.764C1090.25 199.235 1089.47 198.971 1088.44 198.971C1087.54 198.971 1086.78 199.199 1086.17 199.654C1085.56 200.11 1085.26 200.661 1085.26 201.309H1082.71C1082.71 200.57 1082.97 199.859 1083.49 199.176C1084.02 198.483 1084.73 197.936 1085.63 197.535C1086.53 197.134 1087.52 196.934 1088.59 196.934C1090.3 196.934 1091.63 197.362 1092.6 198.219C1093.57 199.066 1094.07 200.238 1094.1 201.732V208.541C1094.1 209.899 1094.28 210.979 1094.62 211.781V212H1091.97ZM1087.77 210.072C1088.57 210.072 1089.32 209.867 1090.03 209.457C1090.74 209.047 1091.26 208.514 1091.57 207.857V204.822H1089.59C1086.49 204.822 1084.94 205.729 1084.94 207.543C1084.94 208.336 1085.21 208.956 1085.74 209.402C1086.26 209.849 1086.94 210.072 1087.77 210.072Z" fill="white"/>
<rect x="56.5" y="428.5" width="281" height="151" fill="#56B4E9" stroke="black"/>
<path d="M103.883 512C103.758 511.75 103.656 511.305 103.578 510.664C102.57 511.711 101.367 512.234 99.9688 512.234C98.7188 512.234 97.6914 511.883 96.8867 511.18C96.0898 510.469 95.6914 509.57 95.6914 508.484C95.6914 507.164 96.1914 506.141 97.1914 505.414C98.1992 504.68 99.6133 504.312 101.434 504.312H103.543V503.316C103.543 502.559 103.316 501.957 102.863 501.512C102.41 501.059 101.742 500.832 100.859 500.832C100.086 500.832 99.4375 501.027 98.9141 501.418C98.3906 501.809 98.1289 502.281 98.1289 502.836H95.9492C95.9492 502.203 96.1719 501.594 96.6172 501.008C97.0703 500.414 97.6797 499.945 98.4453 499.602C99.2188 499.258 100.066 499.086 100.988 499.086C102.449 499.086 103.594 499.453 104.422 500.188C105.25 500.914 105.68 501.918 105.711 503.199V509.035C105.711 510.199 105.859 511.125 106.156 511.812V512H103.883ZM100.285 510.348C100.965 510.348 101.609 510.172 102.219 509.82C102.828 509.469 103.27 509.012 103.543 508.449V505.848H101.844C99.1875 505.848 97.8594 506.625 97.8594 508.18C97.8594 508.859 98.0859 509.391 98.5391 509.773C98.9922 510.156 99.5742 510.348 100.285 510.348ZM115.238 501.266C114.91 501.211 114.555 501.184 114.172 501.184C112.75 501.184 111.785 501.789 111.277 503V512H109.109V499.32H111.219L111.254 500.785C111.965 499.652 112.973 499.086 114.277 499.086C114.699 499.086 115.02 499.141 115.238 499.25V501.266ZM120.77 496.25V499.32H123.137V500.996H120.77V508.859C120.77 509.367 120.875 509.75 121.086 510.008C121.297 510.258 121.656 510.383 122.164 510.383C122.414 510.383 122.758 510.336 123.195 510.242V512C122.625 512.156 122.07 512.234 121.531 512.234C120.562 512.234 119.832 511.941 119.34 511.355C118.848 510.77 118.602 509.938 118.602 508.859V500.996H116.293V499.32H118.602V496.25H120.77ZM136.906 509.012L139.344 499.32H141.512L137.82 512H136.062L132.98 502.391L129.98 512H128.223L124.543 499.32H126.699L129.195 508.812L132.148 499.32H133.895L136.906 509.012ZM143.152 505.543C143.152 504.301 143.395 503.184 143.879 502.191C144.371 501.199 145.051 500.434 145.918 499.895C146.793 499.355 147.789 499.086 148.906 499.086C150.633 499.086 152.027 499.684 153.09 500.879C154.16 502.074 154.695 503.664 154.695 505.648V505.801C154.695 507.035 154.457 508.145 153.98 509.129C153.512 510.105 152.836 510.867 151.953 511.414C151.078 511.961 150.07 512.234 148.93 512.234C147.211 512.234 145.816 511.637 144.746 510.441C143.684 509.246 143.152 507.664 143.152 505.695V505.543ZM145.332 505.801C145.332 507.207 145.656 508.336 146.305 509.188C146.961 510.039 147.836 510.465 148.93 510.465C150.031 510.465 150.906 510.035 151.555 509.176C152.203 508.309 152.527 507.098 152.527 505.543C152.527 504.152 152.195 503.027 151.531 502.168C150.875 501.301 150 500.867 148.906 500.867C147.836 500.867 146.973 501.293 146.316 502.145C145.66 502.996 145.332 504.215 145.332 505.801ZM163.543 501.266C163.215 501.211 162.859 501.184 162.477 501.184C161.055 501.184 160.09 501.789 159.582 503V512H157.414V499.32H159.523L159.559 500.785C160.27 499.652 161.277 499.086 162.582 499.086C163.004 499.086 163.324 499.141 163.543 499.25V501.266ZM169.086 506.129L167.727 507.547V512H165.559V494H167.727V504.887L168.887 503.492L172.836 499.32H175.473L170.539 504.617L176.047 512H173.504L169.086 506.129ZM185.094 508.637C185.094 508.051 184.871 507.598 184.426 507.277C183.988 506.949 183.219 506.668 182.117 506.434C181.023 506.199 180.152 505.918 179.504 505.59C178.863 505.262 178.387 504.871 178.074 504.418C177.77 503.965 177.617 503.426 177.617 502.801C177.617 501.762 178.055 500.883 178.93 500.164C179.812 499.445 180.938 499.086 182.305 499.086C183.742 499.086 184.906 499.457 185.797 500.199C186.695 500.941 187.145 501.891 187.145 503.047H184.965C184.965 502.453 184.711 501.941 184.203 501.512C183.703 501.082 183.07 500.867 182.305 500.867C181.516 500.867 180.898 501.039 180.453 501.383C180.008 501.727 179.785 502.176 179.785 502.73C179.785 503.254 179.992 503.648 180.406 503.914C180.82 504.18 181.566 504.434 182.645 504.676C183.73 504.918 184.609 505.207 185.281 505.543C185.953 505.879 186.449 506.285 186.77 506.762C187.098 507.23 187.262 507.805 187.262 508.484C187.262 509.617 186.809 510.527 185.902 511.215C184.996 511.895 183.82 512.234 182.375 512.234C181.359 512.234 180.461 512.055 179.68 511.695C178.898 511.336 178.285 510.836 177.84 510.195C177.402 509.547 177.184 508.848 177.184 508.098H179.352C179.391 508.824 179.68 509.402 180.219 509.832C180.766 510.254 181.484 510.465 182.375 510.465C183.195 510.465 183.852 510.301 184.344 509.973C184.844 509.637 185.094 509.191 185.094 508.637ZM199.227 513.77H188.492V512H199.227V513.77ZM206 510.465C206.773 510.465 207.449 510.23 208.027 509.762C208.605 509.293 208.926 508.707 208.988 508.004H211.039C211 508.73 210.75 509.422 210.289 510.078C209.828 510.734 209.211 511.258 208.438 511.648C207.672 512.039 206.859 512.234 206 512.234C204.273 512.234 202.898 511.66 201.875 510.512C200.859 509.355 200.352 507.777 200.352 505.777V505.414C200.352 504.18 200.578 503.082 201.031 502.121C201.484 501.16 202.133 500.414 202.977 499.883C203.828 499.352 204.832 499.086 205.988 499.086C207.41 499.086 208.59 499.512 209.527 500.363C210.473 501.215 210.977 502.32 211.039 503.68H208.988C208.926 502.859 208.613 502.188 208.051 501.664C207.496 501.133 206.809 500.867 205.988 500.867C204.887 500.867 204.031 501.266 203.422 502.062C202.82 502.852 202.52 503.996 202.52 505.496V505.906C202.52 507.367 202.82 508.492 203.422 509.281C204.023 510.07 204.883 510.465 206 510.465ZM215.832 512H213.664V494H215.832V512ZM224.574 512.234C222.855 512.234 221.457 511.672 220.379 510.547C219.301 509.414 218.762 507.902 218.762 506.012V505.613C218.762 504.355 219 503.234 219.477 502.25C219.961 501.258 220.633 500.484 221.492 499.93C222.359 499.367 223.297 499.086 224.305 499.086C225.953 499.086 227.234 499.629 228.148 500.715C229.062 501.801 229.52 503.355 229.52 505.379V506.281H220.93C220.961 507.531 221.324 508.543 222.02 509.316C222.723 510.082 223.613 510.465 224.691 510.465C225.457 510.465 226.105 510.309 226.637 509.996C227.168 509.684 227.633 509.27 228.031 508.754L229.355 509.785C228.293 511.418 226.699 512.234 224.574 512.234ZM224.305 500.867C223.43 500.867 222.695 501.188 222.102 501.828C221.508 502.461 221.141 503.352 221 504.5H227.352V504.336C227.289 503.234 226.992 502.383 226.461 501.781C225.93 501.172 225.211 500.867 224.305 500.867ZM239.867 512C239.742 511.75 239.641 511.305 239.562 510.664C238.555 511.711 237.352 512.234 235.953 512.234C234.703 512.234 233.676 511.883 232.871 511.18C232.074 510.469 231.676 509.57 231.676 508.484C231.676 507.164 232.176 506.141 233.176 505.414C234.184 504.68 235.598 504.312 237.418 504.312H239.527V503.316C239.527 502.559 239.301 501.957 238.848 501.512C238.395 501.059 237.727 500.832 236.844 500.832C236.07 500.832 235.422 501.027 234.898 501.418C234.375 501.809 234.113 502.281 234.113 502.836H231.934C231.934 502.203 232.156 501.594 232.602 501.008C233.055 500.414 233.664 499.945 234.43 499.602C235.203 499.258 236.051 499.086 236.973 499.086C238.434 499.086 239.578 499.453 240.406 500.188C241.234 500.914 241.664 501.918 241.695 503.199V509.035C241.695 510.199 241.844 511.125 242.141 511.812V512H239.867ZM236.27 510.348C236.949 510.348 237.594 510.172 238.203 509.82C238.812 509.469 239.254 509.012 239.527 508.449V505.848H237.828C235.172 505.848 233.844 506.625 233.844 508.18C233.844 508.859 234.07 509.391 234.523 509.773C234.977 510.156 235.559 510.348 236.27 510.348ZM247.145 499.32L247.215 500.914C248.184 499.695 249.449 499.086 251.012 499.086C253.691 499.086 255.043 500.598 255.066 503.621V512H252.898V503.609C252.891 502.695 252.68 502.02 252.266 501.582C251.859 501.145 251.223 500.926 250.355 500.926C249.652 500.926 249.035 501.113 248.504 501.488C247.973 501.863 247.559 502.355 247.262 502.965V512H245.094V499.32H247.145ZM258.383 510.863C258.383 510.488 258.492 510.176 258.711 509.926C258.938 509.676 259.273 509.551 259.719 509.551C260.164 509.551 260.5 509.676 260.727 509.926C260.961 510.176 261.078 510.488 261.078 510.863C261.078 511.223 260.961 511.523 260.727 511.766C260.5 512.008 260.164 512.129 259.719 512.129C259.273 512.129 258.938 512.008 258.711 511.766C258.492 511.523 258.383 511.223 258.383 510.863ZM269.75 510.465C270.523 510.465 271.199 510.23 271.777 509.762C272.355 509.293 272.676 508.707 272.738 508.004H274.789C274.75 508.73 274.5 509.422 274.039 510.078C273.578 510.734 272.961 511.258 272.188 511.648C271.422 512.039 270.609 512.234 269.75 512.234C268.023 512.234 266.648 511.66 265.625 510.512C264.609 509.355 264.102 507.777 264.102 505.777V505.414C264.102 504.18 264.328 503.082 264.781 502.121C265.234 501.16 265.883 500.414 266.727 499.883C267.578 499.352 268.582 499.086 269.738 499.086C271.16 499.086 272.34 499.512 273.277 500.363C274.223 501.215 274.727 502.32 274.789 503.68H272.738C272.676 502.859 272.363 502.188 271.801 501.664C271.246 501.133 270.559 500.867 269.738 500.867C268.637 500.867 267.781 501.266 267.172 502.062C266.57 502.852 266.27 503.996 266.27 505.496V505.906C266.27 507.367 266.57 508.492 267.172 509.281C267.773 510.07 268.633 510.465 269.75 510.465ZM284.609 508.637C284.609 508.051 284.387 507.598 283.941 507.277C283.504 506.949 282.734 506.668 281.633 506.434C280.539 506.199 279.668 505.918 279.02 505.59C278.379 505.262 277.902 504.871 277.59 504.418C277.285 503.965 277.133 503.426 277.133 502.801C277.133 501.762 277.57 500.883 278.445 500.164C279.328 499.445 280.453 499.086 281.82 499.086C283.258 499.086 284.422 499.457 285.312 500.199C286.211 500.941 286.66 501.891 286.66 503.047H284.48C284.48 502.453 284.227 501.941 283.719 501.512C283.219 501.082 282.586 500.867 281.82 500.867C281.031 500.867 280.414 501.039 279.969 501.383C279.523 501.727 279.301 502.176 279.301 502.73C279.301 503.254 279.508 503.648 279.922 503.914C280.336 504.18 281.082 504.434 282.16 504.676C283.246 504.918 284.125 505.207 284.797 505.543C285.469 505.879 285.965 506.285 286.285 506.762C286.613 507.23 286.777 507.805 286.777 508.484C286.777 509.617 286.324 510.527 285.418 511.215C284.512 511.895 283.336 512.234 281.891 512.234C280.875 512.234 279.977 512.055 279.195 511.695C278.414 511.336 277.801 510.836 277.355 510.195C276.918 509.547 276.699 508.848 276.699 508.098H278.867C278.906 508.824 279.195 509.402 279.734 509.832C280.281 510.254 281 510.465 281.891 510.465C282.711 510.465 283.367 510.301 283.859 509.973C284.359 509.637 284.609 509.191 284.609 508.637ZM293.785 509.059L296.926 499.32H299.141L294.594 512H292.941L288.348 499.32H290.562L293.785 509.059Z" fill="#333333"/>
<rect x="644.506" y="96.7071" width="149.163" height="150.022" transform="rotate(45 644.506 96.7071)" fill="#6FCF97" stroke="black"/>
<path d="M621.125 198V180.938H625.941C627.426 180.938 628.738 181.266 629.879 181.922C631.02 182.578 631.898 183.512 632.516 184.723C633.141 185.934 633.457 187.324 633.465 188.895V189.984C633.465 191.594 633.152 193.004 632.527 194.215C631.91 195.426 631.023 196.355 629.867 197.004C628.719 197.652 627.379 197.984 625.848 198H621.125ZM623.375 182.789V196.16H625.742C627.477 196.16 628.824 195.621 629.785 194.543C630.754 193.465 631.238 191.93 631.238 189.938V188.941C631.238 187.004 630.781 185.5 629.867 184.43C628.961 183.352 627.672 182.805 626 182.789H623.375ZM644.363 198C644.238 197.75 644.137 197.305 644.059 196.664C643.051 197.711 641.848 198.234 640.449 198.234C639.199 198.234 638.172 197.883 637.367 197.18C636.57 196.469 636.172 195.57 636.172 194.484C636.172 193.164 636.672 192.141 637.672 191.414C638.68 190.68 640.094 190.312 641.914 190.312H644.023V189.316C644.023 188.559 643.797 187.957 643.344 187.512C642.891 187.059 642.223 186.832 641.34 186.832C640.566 186.832 639.918 187.027 639.395 187.418C638.871 187.809 638.609 188.281 638.609 188.836H636.43C636.43 188.203 636.652 187.594 637.098 187.008C637.551 186.414 638.16 185.945 638.926 185.602C639.699 185.258 640.547 185.086 641.469 185.086C642.93 185.086 644.074 185.453 644.902 186.188C645.73 186.914 646.16 187.918 646.191 189.199V195.035C646.191 196.199 646.34 197.125 646.637 197.812V198H644.363ZM640.766 196.348C641.445 196.348 642.09 196.172 642.699 195.82C643.309 195.469 643.75 195.012 644.023 194.449V191.848H642.324C639.668 191.848 638.34 192.625 638.34 194.18C638.34 194.859 638.566 195.391 639.02 195.773C639.473 196.156 640.055 196.348 640.766 196.348ZM652.531 182.25V185.32H654.898V186.996H652.531V194.859C652.531 195.367 652.637 195.75 652.848 196.008C653.059 196.258 653.418 196.383 653.926 196.383C654.176 196.383 654.52 196.336 654.957 196.242V198C654.387 198.156 653.832 198.234 653.293 198.234C652.324 198.234 651.594 197.941 651.102 197.355C650.609 196.77 650.363 195.938 650.363 194.859V186.996H648.055V185.32H650.363V182.25H652.531ZM665.27 198C665.145 197.75 665.043 197.305 664.965 196.664C663.957 197.711 662.754 198.234 661.355 198.234C660.105 198.234 659.078 197.883 658.273 197.18C657.477 196.469 657.078 195.57 657.078 194.484C657.078 193.164 657.578 192.141 658.578 191.414C659.586 190.68 661 190.312 662.82 190.312H664.93V189.316C664.93 188.559 664.703 187.957 664.25 187.512C663.797 187.059 663.129 186.832 662.246 186.832C661.473 186.832 660.824 187.027 660.301 187.418C659.777 187.809 659.516 188.281 659.516 188.836H657.336C657.336 188.203 657.559 187.594 658.004 187.008C658.457 186.414 659.066 185.945 659.832 185.602C660.605 185.258 661.453 185.086 662.375 185.086C663.836 185.086 664.98 185.453 665.809 186.188C666.637 186.914 667.066 187.918 667.098 189.199V195.035C667.098 196.199 667.246 197.125 667.543 197.812V198H665.27ZM661.672 196.348C662.352 196.348 662.996 196.172 663.605 195.82C664.215 195.469 664.656 195.012 664.93 194.449V191.848H663.23C660.574 191.848 659.246 192.625 659.246 194.18C659.246 194.859 659.473 195.391 659.926 195.773C660.379 196.156 660.961 196.348 661.672 196.348ZM605.738 224.465C606.512 224.465 607.188 224.23 607.766 223.762C608.344 223.293 608.664 222.707 608.727 222.004H610.777C610.738 222.73 610.488 223.422 610.027 224.078C609.566 224.734 608.949 225.258 608.176 225.648C607.41 226.039 606.598 226.234 605.738 226.234C604.012 226.234 602.637 225.66 601.613 224.512C600.598 223.355 600.09 221.777 600.09 219.777V219.414C600.09 218.18 600.316 217.082 600.77 216.121C601.223 215.16 601.871 214.414 602.715 213.883C603.566 213.352 604.57 213.086 605.727 213.086C607.148 213.086 608.328 213.512 609.266 214.363C610.211 215.215 610.715 216.32 610.777 217.68H608.727C608.664 216.859 608.352 216.188 607.789 215.664C607.234 215.133 606.547 214.867 605.727 214.867C604.625 214.867 603.77 215.266 603.16 216.062C602.559 216.852 602.258 217.996 602.258 219.496V219.906C602.258 221.367 602.559 222.492 603.16 223.281C603.762 224.07 604.621 224.465 605.738 224.465ZM615.57 226H613.402V208H615.57V226ZM624.312 226.234C622.594 226.234 621.195 225.672 620.117 224.547C619.039 223.414 618.5 221.902 618.5 220.012V219.613C618.5 218.355 618.738 217.234 619.215 216.25C619.699 215.258 620.371 214.484 621.23 213.93C622.098 213.367 623.035 213.086 624.043 213.086C625.691 213.086 626.973 213.629 627.887 214.715C628.801 215.801 629.258 217.355 629.258 219.379V220.281H620.668C620.699 221.531 621.062 222.543 621.758 223.316C622.461 224.082 623.352 224.465 624.43 224.465C625.195 224.465 625.844 224.309 626.375 223.996C626.906 223.684 627.371 223.27 627.77 222.754L629.094 223.785C628.031 225.418 626.438 226.234 624.312 226.234ZM624.043 214.867C623.168 214.867 622.434 215.188 621.84 215.828C621.246 216.461 620.879 217.352 620.738 218.5H627.09V218.336C627.027 217.234 626.73 216.383 626.199 215.781C625.668 215.172 624.949 214.867 624.043 214.867ZM639.605 226C639.48 225.75 639.379 225.305 639.301 224.664C638.293 225.711 637.09 226.234 635.691 226.234C634.441 226.234 633.414 225.883 632.609 225.18C631.812 224.469 631.414 223.57 631.414 222.484C631.414 221.164 631.914 220.141 632.914 219.414C633.922 218.68 635.336 218.312 637.156 218.312H639.266V217.316C639.266 216.559 639.039 215.957 638.586 215.512C638.133 215.059 637.465 214.832 636.582 214.832C635.809 214.832 635.16 215.027 634.637 215.418C634.113 215.809 633.852 216.281 633.852 216.836H631.672C631.672 216.203 631.895 215.594 632.34 215.008C632.793 214.414 633.402 213.945 634.168 213.602C634.941 213.258 635.789 213.086 636.711 213.086C638.172 213.086 639.316 213.453 640.145 214.188C640.973 214.914 641.402 215.918 641.434 217.199V223.035C641.434 224.199 641.582 225.125 641.879 225.812V226H639.605ZM636.008 224.348C636.688 224.348 637.332 224.172 637.941 223.82C638.551 223.469 638.992 223.012 639.266 222.449V219.848H637.566C634.91 219.848 633.582 220.625 633.582 222.18C633.582 222.859 633.809 223.391 634.262 223.773C634.715 224.156 635.297 224.348 636.008 224.348ZM646.883 213.32L646.953 214.914C647.922 213.695 649.188 213.086 650.75 213.086C653.43 213.086 654.781 214.598 654.805 217.621V226H652.637V217.609C652.629 216.695 652.418 216.02 652.004 215.582C651.598 215.145 650.961 214.926 650.094 214.926C649.391 214.926 648.773 215.113 648.242 215.488C647.711 215.863 647.297 216.355 647 216.965V226H644.832V213.32H646.883ZM660.43 226H658.262V213.32H660.43V226ZM658.086 209.957C658.086 209.605 658.191 209.309 658.402 209.066C658.621 208.824 658.941 208.703 659.363 208.703C659.785 208.703 660.105 208.824 660.324 209.066C660.543 209.309 660.652 209.605 660.652 209.957C660.652 210.309 660.543 210.602 660.324 210.836C660.105 211.07 659.785 211.188 659.363 211.188C658.941 211.188 658.621 211.07 658.402 210.836C658.191 210.602 658.086 210.309 658.086 209.957ZM665.961 213.32L666.031 214.914C667 213.695 668.266 213.086 669.828 213.086C672.508 213.086 673.859 214.598 673.883 217.621V226H671.715V217.609C671.707 216.695 671.496 216.02 671.082 215.582C670.676 215.145 670.039 214.926 669.172 214.926C668.469 214.926 667.852 215.113 667.32 215.488C666.789 215.863 666.375 216.355 666.078 216.965V226H663.91V213.32H665.961ZM676.637 219.555C676.637 217.578 677.094 216.008 678.008 214.844C678.922 213.672 680.133 213.086 681.641 213.086C683.188 213.086 684.395 213.633 685.262 214.727L685.367 213.32H687.348V225.695C687.348 227.336 686.859 228.629 685.883 229.574C684.914 230.52 683.609 230.992 681.969 230.992C681.055 230.992 680.16 230.797 679.285 230.406C678.41 230.016 677.742 229.48 677.281 228.801L678.406 227.5C679.336 228.648 680.473 229.223 681.816 229.223C682.871 229.223 683.691 228.926 684.277 228.332C684.871 227.738 685.168 226.902 685.168 225.824V224.734C684.301 225.734 683.117 226.234 681.617 226.234C680.133 226.234 678.93 225.637 678.008 224.441C677.094 223.246 676.637 221.617 676.637 219.555ZM678.816 219.801C678.816 221.23 679.109 222.355 679.695 223.176C680.281 223.988 681.102 224.395 682.156 224.395C683.523 224.395 684.527 223.773 685.168 222.531V216.742C684.504 215.531 683.508 214.926 682.18 214.926C681.125 214.926 680.301 215.336 679.707 216.156C679.113 216.977 678.816 218.191 678.816 219.801Z" fill="black"/>
<rect x="644.506" y="385.737" width="149.163" height="150.022" transform="rotate(45 644.506 385.737)" fill="#6FCF97" stroke="black"/>
<path d="M590.824 492.395C588.895 491.84 587.488 491.16 586.605 490.355C585.73 489.543 585.293 488.543 585.293 487.355C585.293 486.012 585.828 484.902 586.898 484.027C587.977 483.145 589.375 482.703 591.094 482.703C592.266 482.703 593.309 482.93 594.223 483.383C595.145 483.836 595.855 484.461 596.355 485.258C596.863 486.055 597.117 486.926 597.117 487.871H594.855C594.855 486.84 594.527 486.031 593.871 485.445C593.215 484.852 592.289 484.555 591.094 484.555C589.984 484.555 589.117 484.801 588.492 485.293C587.875 485.777 587.566 486.453 587.566 487.32C587.566 488.016 587.859 488.605 588.445 489.09C589.039 489.566 590.043 490.004 591.457 490.402C592.879 490.801 593.988 491.242 594.785 491.727C595.59 492.203 596.184 492.762 596.566 493.402C596.957 494.043 597.152 494.797 597.152 495.664C597.152 497.047 596.613 498.156 595.535 498.992C594.457 499.82 593.016 500.234 591.211 500.234C590.039 500.234 588.945 500.012 587.93 499.566C586.914 499.113 586.129 498.496 585.574 497.715C585.027 496.934 584.754 496.047 584.754 495.055H587.016C587.016 496.086 587.395 496.902 588.152 497.504C588.918 498.098 589.938 498.395 591.211 498.395C592.398 498.395 593.309 498.152 593.941 497.668C594.574 497.184 594.891 496.523 594.891 495.688C594.891 494.852 594.598 494.207 594.012 493.754C593.426 493.293 592.363 492.84 590.824 492.395ZM607.535 500C607.41 499.75 607.309 499.305 607.23 498.664C606.223 499.711 605.02 500.234 603.621 500.234C602.371 500.234 601.344 499.883 600.539 499.18C599.742 498.469 599.344 497.57 599.344 496.484C599.344 495.164 599.844 494.141 600.844 493.414C601.852 492.68 603.266 492.312 605.086 492.312H607.195V491.316C607.195 490.559 606.969 489.957 606.516 489.512C606.062 489.059 605.395 488.832 604.512 488.832C603.738 488.832 603.09 489.027 602.566 489.418C602.043 489.809 601.781 490.281 601.781 490.836H599.602C599.602 490.203 599.824 489.594 600.27 489.008C600.723 488.414 601.332 487.945 602.098 487.602C602.871 487.258 603.719 487.086 604.641 487.086C606.102 487.086 607.246 487.453 608.074 488.188C608.902 488.914 609.332 489.918 609.363 491.199V497.035C609.363 498.199 609.512 499.125 609.809 499.812V500H607.535ZM603.938 498.348C604.617 498.348 605.262 498.172 605.871 497.82C606.48 497.469 606.922 497.012 607.195 496.449V493.848H605.496C602.84 493.848 601.512 494.625 601.512 496.18C601.512 496.859 601.738 497.391 602.191 497.773C602.645 498.156 603.227 498.348 603.938 498.348ZM616.758 497.059L619.898 487.32H622.113L617.566 500H615.914L611.32 487.32H613.535L616.758 497.059ZM629.297 500.234C627.578 500.234 626.18 499.672 625.102 498.547C624.023 497.414 623.484 495.902 623.484 494.012V493.613C623.484 492.355 623.723 491.234 624.199 490.25C624.684 489.258 625.355 488.484 626.215 487.93C627.082 487.367 628.02 487.086 629.027 487.086C630.676 487.086 631.957 487.629 632.871 488.715C633.785 489.801 634.242 491.355 634.242 493.379V494.281H625.652C625.684 495.531 626.047 496.543 626.742 497.316C627.445 498.082 628.336 498.465 629.414 498.465C630.18 498.465 630.828 498.309 631.359 497.996C631.891 497.684 632.355 497.27 632.754 496.754L634.078 497.785C633.016 499.418 631.422 500.234 629.297 500.234ZM629.027 488.867C628.152 488.867 627.418 489.188 626.824 489.828C626.23 490.461 625.863 491.352 625.723 492.5H632.074V492.336C632.012 491.234 631.715 490.383 631.184 489.781C630.652 489.172 629.934 488.867 629.027 488.867ZM645.656 484.25V487.32H648.023V488.996H645.656V496.859C645.656 497.367 645.762 497.75 645.973 498.008C646.184 498.258 646.543 498.383 647.051 498.383C647.301 498.383 647.645 498.336 648.082 498.242V500C647.512 500.156 646.957 500.234 646.418 500.234C645.449 500.234 644.719 499.941 644.227 499.355C643.734 498.77 643.488 497.938 643.488 496.859V488.996H641.18V487.32H643.488V484.25H645.656ZM649.758 493.543C649.758 492.301 650 491.184 650.484 490.191C650.977 489.199 651.656 488.434 652.523 487.895C653.398 487.355 654.395 487.086 655.512 487.086C657.238 487.086 658.633 487.684 659.695 488.879C660.766 490.074 661.301 491.664 661.301 493.648V493.801C661.301 495.035 661.062 496.145 660.586 497.129C660.117 498.105 659.441 498.867 658.559 499.414C657.684 499.961 656.676 500.234 655.535 500.234C653.816 500.234 652.422 499.637 651.352 498.441C650.289 497.246 649.758 495.664 649.758 493.695V493.543ZM651.938 493.801C651.938 495.207 652.262 496.336 652.91 497.188C653.566 498.039 654.441 498.465 655.535 498.465C656.637 498.465 657.512 498.035 658.16 497.176C658.809 496.309 659.133 495.098 659.133 493.543C659.133 492.152 658.801 491.027 658.137 490.168C657.48 489.301 656.605 488.867 655.512 488.867C654.441 488.867 653.578 489.293 652.922 490.145C652.266 490.996 651.938 492.215 651.938 493.801ZM670.699 500V488.996H668.695V487.32H670.699V486.242C670.699 484.828 671.102 483.727 671.906 482.938C672.719 482.148 673.863 481.754 675.34 481.754C676.215 481.754 677.32 481.992 678.656 482.469L678.293 484.297C677.316 483.906 676.387 483.711 675.504 483.711C674.574 483.711 673.902 483.922 673.488 484.344C673.082 484.758 672.879 485.383 672.879 486.219V487.32H675.469V488.996H672.879V500H670.699ZM679.734 500H677.555V487.32H679.734V500ZM685.617 500H683.449V482H685.617V500ZM694.359 500.234C692.641 500.234 691.242 499.672 690.164 498.547C689.086 497.414 688.547 495.902 688.547 494.012V493.613C688.547 492.355 688.785 491.234 689.262 490.25C689.746 489.258 690.418 488.484 691.277 487.93C692.145 487.367 693.082 487.086 694.09 487.086C695.738 487.086 697.02 487.629 697.934 488.715C698.848 489.801 699.305 491.355 699.305 493.379V494.281H690.715C690.746 495.531 691.109 496.543 691.805 497.316C692.508 498.082 693.398 498.465 694.477 498.465C695.242 498.465 695.891 498.309 696.422 497.996C696.953 497.684 697.418 497.27 697.816 496.754L699.141 497.785C698.078 499.418 696.484 500.234 694.359 500.234ZM694.09 488.867C693.215 488.867 692.48 489.188 691.887 489.828C691.293 490.461 690.926 491.352 690.785 492.5H697.137V492.336C697.074 491.234 696.777 490.383 696.246 489.781C695.715 489.172 694.996 488.867 694.09 488.867Z" fill="black"/>
<line x1="1051" y1="344" x2="1051" y2="494" stroke="black" stroke-width="3"/>
<path d="M162.203 294.789H156.895L154.258 310H152.066L154.703 294.789H149.395L149.723 292.938H162.531L162.203 294.789ZM166.117 310.234C164.539 310.203 163.305 309.621 162.414 308.488C161.523 307.355 161.148 305.906 161.289 304.141L161.348 303.637C161.48 302.379 161.852 301.23 162.461 300.191C163.078 299.152 163.828 298.371 164.711 297.848C165.594 297.316 166.547 297.062 167.57 297.086C168.875 297.117 169.898 297.551 170.641 298.387C171.383 299.223 171.789 300.355 171.859 301.785C171.883 302.293 171.867 302.801 171.812 303.309L171.684 304.281H163.398C163.258 305.43 163.445 306.406 163.961 307.211C164.484 308.016 165.262 308.434 166.293 308.465C167.543 308.496 168.699 307.934 169.762 306.777L170.98 307.809C170.449 308.574 169.762 309.176 168.918 309.613C168.082 310.043 167.148 310.25 166.117 310.234ZM167.465 298.855C166.59 298.832 165.824 299.129 165.168 299.746C164.52 300.363 164.004 301.281 163.621 302.5L169.785 302.512L169.832 302.324C169.957 301.34 169.797 300.523 169.352 299.875C168.914 299.219 168.285 298.879 167.465 298.855ZM178.527 301.938L181.973 297.32H184.574L179.488 303.695L182.582 310H180.273L178.176 305.266L174.602 310H172.012L177.25 303.484L174.25 297.32H176.57L178.527 301.938ZM190.352 294.25L189.812 297.32H192.121L191.828 298.996H189.531L188.207 306.883C188.184 307.086 188.18 307.273 188.195 307.445C188.25 308.055 188.582 308.359 189.191 308.359C189.449 308.359 189.793 308.32 190.223 308.242L190.059 310.012C189.551 310.152 189.035 310.223 188.512 310.223C187.668 310.207 187.035 309.898 186.613 309.297C186.191 308.688 186.027 307.871 186.121 306.848L187.41 298.996H185.172L185.465 297.32H187.703L188.242 294.25H190.352ZM198.977 303.637C199.133 302.348 199.488 301.184 200.043 300.145C200.598 299.105 201.281 298.328 202.094 297.812C202.906 297.297 203.801 297.051 204.777 297.074C206.191 297.105 207.277 297.621 208.035 298.621L209.254 292H211.375L208.258 310H206.324L206.547 308.641C205.547 309.734 204.312 310.266 202.844 310.234C201.672 310.203 200.738 309.746 200.043 308.863C199.348 307.973 198.973 306.781 198.918 305.289C198.895 304.828 198.914 304.277 198.977 303.637ZM201.016 304.855C200.992 305.973 201.191 306.84 201.613 307.457C202.035 308.074 202.652 308.391 203.465 308.406C204.691 308.461 205.781 307.844 206.734 306.555L207.742 300.695C207.273 299.539 206.422 298.945 205.188 298.914C204.352 298.891 203.613 299.145 202.973 299.676C202.34 300.199 201.855 300.938 201.52 301.891C201.191 302.836 201.023 303.824 201.016 304.855ZM219.367 310C219.312 309.773 219.285 309.551 219.285 309.332L219.32 308.664C218.156 309.742 216.922 310.266 215.617 310.234C214.5 310.219 213.59 309.867 212.887 309.18C212.191 308.484 211.875 307.617 211.938 306.578C212.016 305.234 212.602 304.188 213.695 303.438C214.797 302.68 216.242 302.301 218.031 302.301L220.246 302.312L220.387 301.305C220.465 300.547 220.316 299.949 219.941 299.512C219.574 299.066 219.02 298.836 218.277 298.82C217.551 298.805 216.906 298.984 216.344 299.359C215.789 299.727 215.449 300.215 215.324 300.824L213.191 300.836C213.262 300.094 213.551 299.438 214.059 298.867C214.566 298.289 215.219 297.844 216.016 297.531C216.812 297.211 217.637 297.059 218.488 297.074C219.809 297.105 220.836 297.508 221.57 298.281C222.305 299.047 222.613 300.066 222.496 301.34L221.465 307.621L221.406 308.523C221.391 308.953 221.438 309.379 221.547 309.801L221.523 310H219.367ZM216.039 308.359C216.719 308.375 217.359 308.215 217.961 307.879C218.57 307.535 219.094 307.062 219.531 306.461L219.988 303.848L218.383 303.836C217.047 303.836 216.023 304.047 215.312 304.469C214.602 304.891 214.199 305.488 214.105 306.262C214.035 306.855 214.172 307.352 214.516 307.75C214.867 308.141 215.375 308.344 216.039 308.359ZM230.008 294.25L229.469 297.32H231.777L231.484 298.996H229.188L227.863 306.883C227.84 307.086 227.836 307.273 227.852 307.445C227.906 308.055 228.238 308.359 228.848 308.359C229.105 308.359 229.449 308.32 229.879 308.242L229.715 310.012C229.207 310.152 228.691 310.223 228.168 310.223C227.324 310.207 226.691 309.898 226.27 309.297C225.848 308.688 225.684 307.871 225.777 306.848L227.066 298.996H224.828L225.121 297.32H227.359L227.898 294.25H230.008ZM239.898 310C239.844 309.773 239.816 309.551 239.816 309.332L239.852 308.664C238.688 309.742 237.453 310.266 236.148 310.234C235.031 310.219 234.121 309.867 233.418 309.18C232.723 308.484 232.406 307.617 232.469 306.578C232.547 305.234 233.133 304.188 234.227 303.438C235.328 302.68 236.773 302.301 238.562 302.301L240.777 302.312L240.918 301.305C240.996 300.547 240.848 299.949 240.473 299.512C240.105 299.066 239.551 298.836 238.809 298.82C238.082 298.805 237.438 298.984 236.875 299.359C236.32 299.727 235.98 300.215 235.855 300.824L233.723 300.836C233.793 300.094 234.082 299.438 234.59 298.867C235.098 298.289 235.75 297.844 236.547 297.531C237.344 297.211 238.168 297.059 239.02 297.074C240.34 297.105 241.367 297.508 242.102 298.281C242.836 299.047 243.145 300.066 243.027 301.34L241.996 307.621L241.938 308.523C241.922 308.953 241.969 309.379 242.078 309.801L242.055 310H239.898ZM236.57 308.359C237.25 308.375 237.891 308.215 238.492 307.879C239.102 307.535 239.625 307.062 240.062 306.461L240.52 303.848L238.914 303.836C237.578 303.836 236.555 304.047 235.844 304.469C235.133 304.891 234.73 305.488 234.637 306.262C234.566 306.855 234.703 307.352 235.047 307.75C235.398 308.141 235.906 308.344 236.57 308.359Z" fill="black"/>
<path d="M990.848 310H988.715L982.621 296.758L980.324 310H978.109L981.074 292.938H983.207L989.312 306.238L991.621 292.938H993.812L990.848 310ZM1002.54 308.746C1001.55 309.77 1000.29 310.266 998.758 310.234C997.547 310.203 996.648 309.77 996.062 308.934C995.484 308.098 995.27 306.957 995.418 305.512L996.777 297.32H998.898L997.527 305.547C997.488 305.891 997.48 306.227 997.504 306.555C997.543 307.117 997.711 307.559 998.008 307.879C998.305 308.199 998.719 308.371 999.25 308.395C1000.77 308.441 1001.94 307.828 1002.77 306.555L1004.36 297.32H1006.48L1004.28 310H1002.27L1002.54 308.746ZM1011.64 297.309L1011.37 298.727C1012.43 297.602 1013.71 297.055 1015.22 297.086C1016.03 297.102 1016.71 297.285 1017.26 297.637C1017.82 297.988 1018.21 298.484 1018.42 299.125C1019.61 297.734 1021.01 297.055 1022.63 297.086C1023.89 297.117 1024.83 297.543 1025.43 298.363C1026.03 299.184 1026.25 300.285 1026.1 301.668L1024.7 310H1022.59L1023.98 301.645C1024.02 301.238 1024.02 300.867 1023.98 300.531C1023.83 299.469 1023.13 298.926 1021.89 298.902C1021.12 298.887 1020.41 299.129 1019.78 299.629C1019.16 300.121 1018.75 300.77 1018.57 301.574L1017.13 310H1015L1016.41 301.656C1016.51 300.789 1016.38 300.121 1016.01 299.652C1015.65 299.184 1015.09 298.941 1014.32 298.926C1013 298.895 1011.95 299.496 1011.17 300.73L1009.56 310H1007.44L1009.64 297.32L1011.64 297.309ZM1033.47 310.234C1031.89 310.203 1030.66 309.621 1029.77 308.488C1028.88 307.355 1028.5 305.906 1028.64 304.141L1028.7 303.637C1028.83 302.379 1029.2 301.23 1029.81 300.191C1030.43 299.152 1031.18 298.371 1032.06 297.848C1032.95 297.316 1033.9 297.062 1034.92 297.086C1036.23 297.117 1037.25 297.551 1037.99 298.387C1038.73 299.223 1039.14 300.355 1039.21 301.785C1039.23 302.293 1039.22 302.801 1039.16 303.309L1039.04 304.281H1030.75C1030.61 305.43 1030.8 306.406 1031.31 307.211C1031.84 308.016 1032.61 308.434 1033.64 308.465C1034.89 308.496 1036.05 307.934 1037.11 306.777L1038.33 307.809C1037.8 308.574 1037.11 309.176 1036.27 309.613C1035.43 310.043 1034.5 310.25 1033.47 310.234ZM1034.82 298.855C1033.94 298.832 1033.18 299.129 1032.52 299.746C1031.87 300.363 1031.36 301.281 1030.97 302.5L1037.14 302.512L1037.18 302.324C1037.31 301.34 1037.15 300.523 1036.7 299.875C1036.27 299.219 1035.64 298.879 1034.82 298.855ZM1048.32 299.254L1047.32 299.148C1045.96 299.148 1044.89 299.762 1044.11 300.988L1042.55 310H1040.43L1042.63 297.32L1044.68 297.309L1044.37 298.785C1045.27 297.605 1046.32 297.031 1047.54 297.062C1047.8 297.062 1048.14 297.121 1048.55 297.238L1048.32 299.254ZM1050.72 310H1048.61L1050.81 297.32H1052.92L1050.72 310ZM1052.46 292.691C1052.82 292.676 1053.12 292.785 1053.36 293.02C1053.6 293.246 1053.72 293.547 1053.72 293.922C1053.71 294.289 1053.59 294.59 1053.36 294.824C1053.13 295.059 1052.83 295.184 1052.46 295.199C1052.1 295.215 1051.8 295.109 1051.56 294.883C1051.33 294.656 1051.21 294.359 1051.22 293.992C1051.23 293.625 1051.35 293.32 1051.57 293.078C1051.8 292.836 1052.1 292.707 1052.46 292.691ZM1059.54 308.477C1060.3 308.492 1060.98 308.273 1061.59 307.82C1062.2 307.359 1062.6 306.758 1062.79 306.016L1064.79 306.004C1064.68 306.801 1064.36 307.527 1063.83 308.184C1063.32 308.84 1062.66 309.352 1061.88 309.719C1061.09 310.086 1060.28 310.258 1059.45 310.234C1058.39 310.219 1057.5 309.945 1056.77 309.414C1056.04 308.875 1055.5 308.129 1055.16 307.176C1054.82 306.215 1054.7 305.137 1054.81 303.941L1054.87 303.355C1055.02 302.137 1055.37 301.047 1055.93 300.086C1056.5 299.125 1057.23 298.379 1058.14 297.848C1059.04 297.309 1060.04 297.055 1061.14 297.086C1062.46 297.117 1063.53 297.562 1064.32 298.422C1065.12 299.281 1065.52 300.371 1065.52 301.691L1063.54 301.68C1063.52 300.852 1063.29 300.184 1062.85 299.676C1062.4 299.16 1061.8 298.887 1061.04 298.855C1059.94 298.832 1059.02 299.242 1058.29 300.086C1057.56 300.93 1057.11 302.109 1056.93 303.625L1056.89 303.93C1056.85 304.43 1056.84 304.945 1056.87 305.477C1056.93 306.391 1057.18 307.113 1057.64 307.645C1058.11 308.176 1058.74 308.453 1059.54 308.477ZM1072.98 303.637C1073.14 302.348 1073.5 301.184 1074.05 300.145C1074.61 299.105 1075.29 298.328 1076.1 297.812C1076.91 297.297 1077.81 297.051 1078.79 297.074C1080.2 297.105 1081.29 297.621 1082.04 298.621L1083.26 292H1085.38L1082.27 310H1080.33L1080.55 308.641C1079.55 309.734 1078.32 310.266 1076.85 310.234C1075.68 310.203 1074.75 309.746 1074.05 308.863C1073.36 307.973 1072.98 306.781 1072.93 305.289C1072.9 304.828 1072.92 304.277 1072.98 303.637ZM1075.02 304.855C1075 305.973 1075.2 306.84 1075.62 307.457C1076.04 308.074 1076.66 308.391 1077.47 308.406C1078.7 308.461 1079.79 307.844 1080.74 306.555L1081.75 300.695C1081.28 299.539 1080.43 298.945 1079.2 298.914C1078.36 298.891 1077.62 299.145 1076.98 299.676C1076.35 300.199 1075.86 300.938 1075.53 301.891C1075.2 302.836 1075.03 303.824 1075.02 304.855ZM1093.38 310C1093.32 309.773 1093.29 309.551 1093.29 309.332L1093.33 308.664C1092.16 309.742 1090.93 310.266 1089.62 310.234C1088.51 310.219 1087.6 309.867 1086.89 309.18C1086.2 308.484 1085.88 307.617 1085.95 306.578C1086.02 305.234 1086.61 304.188 1087.7 303.438C1088.8 302.68 1090.25 302.301 1092.04 302.301L1094.25 302.312L1094.39 301.305C1094.47 300.547 1094.32 299.949 1093.95 299.512C1093.58 299.066 1093.03 298.836 1092.29 298.82C1091.56 298.805 1090.91 298.984 1090.35 299.359C1089.8 299.727 1089.46 300.215 1089.33 300.824L1087.2 300.836C1087.27 300.094 1087.56 299.438 1088.07 298.867C1088.57 298.289 1089.23 297.844 1090.02 297.531C1090.82 297.211 1091.64 297.059 1092.5 297.074C1093.82 297.105 1094.84 297.508 1095.58 298.281C1096.31 299.047 1096.62 300.066 1096.5 301.34L1095.47 307.621L1095.41 308.523C1095.4 308.953 1095.45 309.379 1095.55 309.801L1095.53 310H1093.38ZM1090.05 308.359C1090.73 308.375 1091.37 308.215 1091.97 307.879C1092.58 307.535 1093.1 307.062 1093.54 306.461L1094 303.848L1092.39 303.836C1091.05 303.836 1090.03 304.047 1089.32 304.469C1088.61 304.891 1088.21 305.488 1088.11 306.262C1088.04 306.855 1088.18 307.352 1088.52 307.75C1088.88 308.141 1089.38 308.344 1090.05 308.359ZM1104.02 294.25L1103.48 297.32H1105.79L1105.49 298.996H1103.2L1101.87 306.883C1101.85 307.086 1101.84 307.273 1101.86 307.445C1101.91 308.055 1102.25 308.359 1102.86 308.359C1103.11 308.359 1103.46 308.32 1103.89 308.242L1103.72 310.012C1103.21 310.152 1102.7 310.223 1102.18 310.223C1101.33 310.207 1100.7 309.898 1100.28 309.297C1099.86 308.688 1099.69 307.871 1099.79 306.848L1101.07 298.996H1098.84L1099.13 297.32H1101.37L1101.91 294.25H1104.02ZM1113.91 310C1113.85 309.773 1113.82 309.551 1113.82 309.332L1113.86 308.664C1112.7 309.742 1111.46 310.266 1110.16 310.234C1109.04 310.219 1108.13 309.867 1107.43 309.18C1106.73 308.484 1106.41 307.617 1106.48 306.578C1106.55 305.234 1107.14 304.188 1108.23 303.438C1109.34 302.68 1110.78 302.301 1112.57 302.301L1114.79 302.312L1114.93 301.305C1115 300.547 1114.86 299.949 1114.48 299.512C1114.11 299.066 1113.56 298.836 1112.82 298.82C1112.09 298.805 1111.45 298.984 1110.88 299.359C1110.33 299.727 1109.99 300.215 1109.86 300.824L1107.73 300.836C1107.8 300.094 1108.09 299.438 1108.6 298.867C1109.11 298.289 1109.76 297.844 1110.55 297.531C1111.35 297.211 1112.18 297.059 1113.03 297.074C1114.35 297.105 1115.38 297.508 1116.11 298.281C1116.84 299.047 1117.15 300.066 1117.04 301.34L1116 307.621L1115.95 308.523C1115.93 308.953 1115.98 309.379 1116.09 309.801L1116.06 310H1113.91ZM1110.58 308.359C1111.26 308.375 1111.9 308.215 1112.5 307.879C1113.11 307.535 1113.63 307.062 1114.07 306.461L1114.53 303.848L1112.92 303.836C1111.59 303.836 1110.56 304.047 1109.85 304.469C1109.14 304.891 1108.74 305.488 1108.64 306.262C1108.57 306.855 1108.71 307.352 1109.05 307.75C1109.41 308.141 1109.91 308.344 1110.58 308.359Z" fill="black"/>
<path d="M163.203 596.789H157.895L155.258 612H153.066L155.703 596.789H150.395L150.723 594.938H163.531L163.203 596.789ZM167.117 612.234C165.539 612.203 164.305 611.621 163.414 610.488C162.523 609.355 162.148 607.906 162.289 606.141L162.348 605.637C162.48 604.379 162.852 603.23 163.461 602.191C164.078 601.152 164.828 600.371 165.711 599.848C166.594 599.316 167.547 599.062 168.57 599.086C169.875 599.117 170.898 599.551 171.641 600.387C172.383 601.223 172.789 602.355 172.859 603.785C172.883 604.293 172.867 604.801 172.812 605.309L172.684 606.281H164.398C164.258 607.43 164.445 608.406 164.961 609.211C165.484 610.016 166.262 610.434 167.293 610.465C168.543 610.496 169.699 609.934 170.762 608.777L171.98 609.809C171.449 610.574 170.762 611.176 169.918 611.613C169.082 612.043 168.148 612.25 167.117 612.234ZM168.465 600.855C167.59 600.832 166.824 601.129 166.168 601.746C165.52 602.363 165.004 603.281 164.621 604.5L170.785 604.512L170.832 604.324C170.957 603.34 170.797 602.523 170.352 601.875C169.914 601.219 169.285 600.879 168.465 600.855ZM179.527 603.938L182.973 599.32H185.574L180.488 605.695L183.582 612H181.273L179.176 607.266L175.602 612H173.012L178.25 605.484L175.25 599.32H177.57L179.527 603.938ZM191.352 596.25L190.812 599.32H193.121L192.828 600.996H190.531L189.207 608.883C189.184 609.086 189.18 609.273 189.195 609.445C189.25 610.055 189.582 610.359 190.191 610.359C190.449 610.359 190.793 610.32 191.223 610.242L191.059 612.012C190.551 612.152 190.035 612.223 189.512 612.223C188.668 612.207 188.035 611.898 187.613 611.297C187.191 610.688 187.027 609.871 187.121 608.848L188.41 600.996H186.172L186.465 599.32H188.703L189.242 596.25H191.352ZM199.977 605.637C200.133 604.348 200.488 603.184 201.043 602.145C201.598 601.105 202.281 600.328 203.094 599.812C203.906 599.297 204.801 599.051 205.777 599.074C207.191 599.105 208.277 599.621 209.035 600.621L210.254 594H212.375L209.258 612H207.324L207.547 610.641C206.547 611.734 205.312 612.266 203.844 612.234C202.672 612.203 201.738 611.746 201.043 610.863C200.348 609.973 199.973 608.781 199.918 607.289C199.895 606.828 199.914 606.277 199.977 605.637ZM202.016 606.855C201.992 607.973 202.191 608.84 202.613 609.457C203.035 610.074 203.652 610.391 204.465 610.406C205.691 610.461 206.781 609.844 207.734 608.555L208.742 602.695C208.273 601.539 207.422 600.945 206.188 600.914C205.352 600.891 204.613 601.145 203.973 601.676C203.34 602.199 202.855 602.938 202.52 603.891C202.191 604.836 202.023 605.824 202.016 606.855ZM220.367 612C220.312 611.773 220.285 611.551 220.285 611.332L220.32 610.664C219.156 611.742 217.922 612.266 216.617 612.234C215.5 612.219 214.59 611.867 213.887 611.18C213.191 610.484 212.875 609.617 212.938 608.578C213.016 607.234 213.602 606.188 214.695 605.438C215.797 604.68 217.242 604.301 219.031 604.301L221.246 604.312L221.387 603.305C221.465 602.547 221.316 601.949 220.941 601.512C220.574 601.066 220.02 600.836 219.277 600.82C218.551 600.805 217.906 600.984 217.344 601.359C216.789 601.727 216.449 602.215 216.324 602.824L214.191 602.836C214.262 602.094 214.551 601.438 215.059 600.867C215.566 600.289 216.219 599.844 217.016 599.531C217.812 599.211 218.637 599.059 219.488 599.074C220.809 599.105 221.836 599.508 222.57 600.281C223.305 601.047 223.613 602.066 223.496 603.34L222.465 609.621L222.406 610.523C222.391 610.953 222.438 611.379 222.547 611.801L222.523 612H220.367ZM217.039 610.359C217.719 610.375 218.359 610.215 218.961 609.879C219.57 609.535 220.094 609.062 220.531 608.461L220.988 605.848L219.383 605.836C218.047 605.836 217.023 606.047 216.312 606.469C215.602 606.891 215.199 607.488 215.105 608.262C215.035 608.855 215.172 609.352 215.516 609.75C215.867 610.141 216.375 610.344 217.039 610.359ZM231.008 596.25L230.469 599.32H232.777L232.484 600.996H230.188L228.863 608.883C228.84 609.086 228.836 609.273 228.852 609.445C228.906 610.055 229.238 610.359 229.848 610.359C230.105 610.359 230.449 610.32 230.879 610.242L230.715 612.012C230.207 612.152 229.691 612.223 229.168 612.223C228.324 612.207 227.691 611.898 227.27 611.297C226.848 610.688 226.684 609.871 226.777 608.848L228.066 600.996H225.828L226.121 599.32H228.359L228.898 596.25H231.008ZM240.898 612C240.844 611.773 240.816 611.551 240.816 611.332L240.852 610.664C239.688 611.742 238.453 612.266 237.148 612.234C236.031 612.219 235.121 611.867 234.418 611.18C233.723 610.484 233.406 609.617 233.469 608.578C233.547 607.234 234.133 606.188 235.227 605.438C236.328 604.68 237.773 604.301 239.562 604.301L241.777 604.312L241.918 603.305C241.996 602.547 241.848 601.949 241.473 601.512C241.105 601.066 240.551 600.836 239.809 600.82C239.082 600.805 238.438 600.984 237.875 601.359C237.32 601.727 236.98 602.215 236.855 602.824L234.723 602.836C234.793 602.094 235.082 601.438 235.59 600.867C236.098 600.289 236.75 599.844 237.547 599.531C238.344 599.211 239.168 599.059 240.02 599.074C241.34 599.105 242.367 599.508 243.102 600.281C243.836 601.047 244.145 602.066 244.027 603.34L242.996 609.621L242.938 610.523C242.922 610.953 242.969 611.379 243.078 611.801L243.055 612H240.898ZM237.57 610.359C238.25 610.375 238.891 610.215 239.492 609.879C240.102 609.535 240.625 609.062 241.062 608.461L241.52 605.848L239.914 605.836C238.578 605.836 237.555 606.047 236.844 606.469C236.133 606.891 235.73 607.488 235.637 608.262C235.566 608.855 235.703 609.352 236.047 609.75C236.398 610.141 236.906 610.344 237.57 610.359Z" fill="black"/>
</svg>
