<svg width="1332" height="726" viewBox="0 0 1332 726" fill="none" xmlns="http://www.w3.org/2000/svg">
<rect width="666" height="363" transform="scale(2)" fill="white"/>
<path d="M586.121 134.121C587.293 132.95 587.293 131.05 586.121 129.879L567.029 110.787C565.858 109.615 563.958 109.615 562.787 110.787C561.615 111.958 561.615 113.858 562.787 115.029L579.757 132L562.787 148.971C561.615 150.142 561.615 152.042 562.787 153.213C563.958 154.385 565.858 154.385 567.029 153.213L586.121 134.121ZM488 135H584V129H488V135Z" fill="#333333"/>
<rect x="864.5" y="368.5" width="195" height="151" fill="#0072B2" stroke="black"/>
<path d="M887.649 423.936H882.465V422.256H894.849V423.936H889.665V438H887.649V423.936ZM899.656 426.855C900.617 425.676 901.867 425.086 903.406 425.086C906.086 425.086 907.438 426.598 907.461 429.621V438H905.293V429.609C905.285 428.695 905.074 428.02 904.66 427.582C904.254 427.145 903.617 426.926 902.75 426.926C902.047 426.926 901.43 427.113 900.898 427.488C900.367 427.863 899.953 428.355 899.656 428.965V438H897.488V420H899.656V426.855ZM915.969 438.234C914.25 438.234 912.852 437.672 911.773 436.547C910.695 435.414 910.156 433.902 910.156 432.012V431.613C910.156 430.355 910.395 429.234 910.871 428.25C911.355 427.258 912.027 426.484 912.887 425.93C913.754 425.367 914.691 425.086 915.699 425.086C917.348 425.086 918.629 425.629 919.543 426.715C920.457 427.801 920.914 429.355 920.914 431.379V432.281H912.324C912.355 433.531 912.719 434.543 913.414 435.316C914.117 436.082 915.008 436.465 916.086 436.465C916.852 436.465 917.5 436.309 918.031 435.996C918.562 435.684 919.027 435.27 919.426 434.754L920.75 435.785C919.688 437.418 918.094 438.234 915.969 438.234ZM915.699 426.867C914.824 426.867 914.09 427.188 913.496 427.828C912.902 428.461 912.535 429.352 912.395 430.5H918.746V430.336C918.684 429.234 918.387 428.383 917.855 427.781C917.324 427.172 916.605 426.867 915.699 426.867ZM930.113 438V426.996H928.109V425.32H930.113V424.242C930.113 422.828 930.516 421.727 931.32 420.938C932.133 420.148 933.277 419.754 934.754 419.754C935.629 419.754 936.734 419.992 938.07 420.469L937.707 422.297C936.73 421.906 935.801 421.711 934.918 421.711C933.988 421.711 933.316 421.922 932.902 422.344C932.496 422.758 932.293 423.383 932.293 424.219V425.32H934.883V426.996H932.293V438H930.113ZM939.148 438H936.969V425.32H939.148V438ZM944.727 425.32L944.797 426.914C945.766 425.695 947.031 425.086 948.594 425.086C951.273 425.086 952.625 426.598 952.648 429.621V438H950.48V429.609C950.473 428.695 950.262 428.02 949.848 427.582C949.441 427.145 948.805 426.926 947.938 426.926C947.234 426.926 946.617 427.113 946.086 427.488C945.555 427.863 945.141 428.355 944.844 428.965V438H942.676V425.32H944.727ZM963.746 438C963.621 437.75 963.52 437.305 963.441 436.664C962.434 437.711 961.23 438.234 959.832 438.234C958.582 438.234 957.555 437.883 956.75 437.18C955.953 436.469 955.555 435.57 955.555 434.484C955.555 433.164 956.055 432.141 957.055 431.414C958.062 430.68 959.477 430.312 961.297 430.312H963.406V429.316C963.406 428.559 963.18 427.957 962.727 427.512C962.273 427.059 961.605 426.832 960.723 426.832C959.949 426.832 959.301 427.027 958.777 427.418C958.254 427.809 957.992 428.281 957.992 428.836H955.812C955.812 428.203 956.035 427.594 956.48 427.008C956.934 426.414 957.543 425.945 958.309 425.602C959.082 425.258 959.93 425.086 960.852 425.086C962.312 425.086 963.457 425.453 964.285 426.188C965.113 426.914 965.543 427.918 965.574 429.199V435.035C965.574 436.199 965.723 437.125 966.02 437.812V438H963.746ZM960.148 436.348C960.828 436.348 961.473 436.172 962.082 435.82C962.691 435.469 963.133 435.012 963.406 434.449V431.848H961.707C959.051 431.848 957.723 432.625 957.723 434.18C957.723 434.859 957.949 435.391 958.402 435.773C958.855 436.156 959.438 436.348 960.148 436.348ZM971.328 438H969.16V420H971.328V438ZM988.59 438C988.465 437.75 988.363 437.305 988.285 436.664C987.277 437.711 986.074 438.234 984.676 438.234C983.426 438.234 982.398 437.883 981.594 437.18C980.797 436.469 980.398 435.57 980.398 434.484C980.398 433.164 980.898 432.141 981.898 431.414C982.906 430.68 984.32 430.312 986.141 430.312H988.25V429.316C988.25 428.559 988.023 427.957 987.57 427.512C987.117 427.059 986.449 426.832 985.566 426.832C984.793 426.832 984.145 427.027 983.621 427.418C983.098 427.809 982.836 428.281 982.836 428.836H980.656C980.656 428.203 980.879 427.594 981.324 427.008C981.777 426.414 982.387 425.945 983.152 425.602C983.926 425.258 984.773 425.086 985.695 425.086C987.156 425.086 988.301 425.453 989.129 426.188C989.957 426.914 990.387 427.918 990.418 429.199V435.035C990.418 436.199 990.566 437.125 990.863 437.812V438H988.59ZM984.992 436.348C985.672 436.348 986.316 436.172 986.926 435.82C987.535 435.469 987.977 435.012 988.25 434.449V431.848H986.551C983.895 431.848 982.566 432.625 982.566 434.18C982.566 434.859 982.793 435.391 983.246 435.773C983.699 436.156 984.281 436.348 984.992 436.348ZM993.301 431.555C993.301 429.578 993.758 428.008 994.672 426.844C995.586 425.672 996.797 425.086 998.305 425.086C999.852 425.086 1001.06 425.633 1001.93 426.727L1002.03 425.32H1004.01V437.695C1004.01 439.336 1003.52 440.629 1002.55 441.574C1001.58 442.52 1000.27 442.992 998.633 442.992C997.719 442.992 996.824 442.797 995.949 442.406C995.074 442.016 994.406 441.48 993.945 440.801L995.07 439.5C996 440.648 997.137 441.223 998.48 441.223C999.535 441.223 1000.36 440.926 1000.94 440.332C1001.54 439.738 1001.83 438.902 1001.83 437.824V436.734C1000.96 437.734 999.781 438.234 998.281 438.234C996.797 438.234 995.594 437.637 994.672 436.441C993.758 435.246 993.301 433.617 993.301 431.555ZM995.48 431.801C995.48 433.23 995.773 434.355 996.359 435.176C996.945 435.988 997.766 436.395 998.82 436.395C1000.19 436.395 1001.19 435.773 1001.83 434.531V428.742C1001.17 427.531 1000.17 426.926 998.844 426.926C997.789 426.926 996.965 427.336 996.371 428.156C995.777 428.977 995.48 430.191 995.48 431.801ZM1012.55 438.234C1010.84 438.234 1009.44 437.672 1008.36 436.547C1007.28 435.414 1006.74 433.902 1006.74 432.012V431.613C1006.74 430.355 1006.98 429.234 1007.46 428.25C1007.94 427.258 1008.61 426.484 1009.47 425.93C1010.34 425.367 1011.28 425.086 1012.29 425.086C1013.93 425.086 1015.21 425.629 1016.13 426.715C1017.04 427.801 1017.5 429.355 1017.5 431.379V432.281H1008.91C1008.94 433.531 1009.3 434.543 1010 435.316C1010.7 436.082 1011.59 436.465 1012.67 436.465C1013.44 436.465 1014.09 436.309 1014.62 435.996C1015.15 435.684 1015.61 435.27 1016.01 434.754L1017.34 435.785C1016.27 437.418 1014.68 438.234 1012.55 438.234ZM1012.29 426.867C1011.41 426.867 1010.68 427.188 1010.08 427.828C1009.49 428.461 1009.12 429.352 1008.98 430.5H1015.33V430.336C1015.27 429.234 1014.97 428.383 1014.44 427.781C1013.91 427.172 1013.19 426.867 1012.29 426.867ZM1028.33 438H1026.16V425.32H1028.33V438ZM1025.98 421.957C1025.98 421.605 1026.09 421.309 1026.3 421.066C1026.52 420.824 1026.84 420.703 1027.26 420.703C1027.68 420.703 1028 420.824 1028.22 421.066C1028.44 421.309 1028.55 421.605 1028.55 421.957C1028.55 422.309 1028.44 422.602 1028.22 422.836C1028 423.07 1027.68 423.188 1027.26 423.188C1026.84 423.188 1026.52 423.07 1026.3 422.836C1026.09 422.602 1025.98 422.309 1025.98 421.957ZM1039.19 434.637C1039.19 434.051 1038.97 433.598 1038.52 433.277C1038.09 432.949 1037.32 432.668 1036.21 432.434C1035.12 432.199 1034.25 431.918 1033.6 431.59C1032.96 431.262 1032.48 430.871 1032.17 430.418C1031.87 429.965 1031.71 429.426 1031.71 428.801C1031.71 427.762 1032.15 426.883 1033.03 426.164C1033.91 425.445 1035.04 425.086 1036.4 425.086C1037.84 425.086 1039 425.457 1039.89 426.199C1040.79 426.941 1041.24 427.891 1041.24 429.047H1039.06C1039.06 428.453 1038.81 427.941 1038.3 427.512C1037.8 427.082 1037.17 426.867 1036.4 426.867C1035.61 426.867 1035 427.039 1034.55 427.383C1034.11 427.727 1033.88 428.176 1033.88 428.73C1033.88 429.254 1034.09 429.648 1034.5 429.914C1034.92 430.18 1035.66 430.434 1036.74 430.676C1037.83 430.918 1038.71 431.207 1039.38 431.543C1040.05 431.879 1040.55 432.285 1040.87 432.762C1041.2 433.23 1041.36 433.805 1041.36 434.484C1041.36 435.617 1040.91 436.527 1040 437.215C1039.09 437.895 1037.92 438.234 1036.47 438.234C1035.46 438.234 1034.56 438.055 1033.78 437.695C1033 437.336 1032.38 436.836 1031.94 436.195C1031.5 435.547 1031.28 434.848 1031.28 434.098H1033.45C1033.49 434.824 1033.78 435.402 1034.32 435.832C1034.86 436.254 1035.58 436.465 1036.47 436.465C1037.29 436.465 1037.95 436.301 1038.44 435.973C1038.94 435.637 1039.19 435.191 1039.19 434.637ZM890.07 452.25V455.32H892.438V456.996H890.07V464.859C890.07 465.367 890.176 465.75 890.387 466.008C890.598 466.258 890.957 466.383 891.465 466.383C891.715 466.383 892.059 466.336 892.496 466.242V468C891.926 468.156 891.371 468.234 890.832 468.234C889.863 468.234 889.133 467.941 888.641 467.355C888.148 466.77 887.902 465.938 887.902 464.859V456.996H885.594V455.32H887.902V452.25H890.07ZM897.148 456.855C898.109 455.676 899.359 455.086 900.898 455.086C903.578 455.086 904.93 456.598 904.953 459.621V468H902.785V459.609C902.777 458.695 902.566 458.02 902.152 457.582C901.746 457.145 901.109 456.926 900.242 456.926C899.539 456.926 898.922 457.113 898.391 457.488C897.859 457.863 897.445 458.355 897.148 458.965V468H894.98V450H897.148V456.855ZM913.461 468.234C911.742 468.234 910.344 467.672 909.266 466.547C908.188 465.414 907.648 463.902 907.648 462.012V461.613C907.648 460.355 907.887 459.234 908.363 458.25C908.848 457.258 909.52 456.484 910.379 455.93C911.246 455.367 912.184 455.086 913.191 455.086C914.84 455.086 916.121 455.629 917.035 456.715C917.949 457.801 918.406 459.355 918.406 461.379V462.281H909.816C909.848 463.531 910.211 464.543 910.906 465.316C911.609 466.082 912.5 466.465 913.578 466.465C914.344 466.465 914.992 466.309 915.523 465.996C916.055 465.684 916.52 465.27 916.918 464.754L918.242 465.785C917.18 467.418 915.586 468.234 913.461 468.234ZM913.191 456.867C912.316 456.867 911.582 457.188 910.988 457.828C910.395 458.461 910.027 459.352 909.887 460.5H916.238V460.336C916.176 459.234 915.879 458.383 915.348 457.781C914.816 457.172 914.098 456.867 913.191 456.867ZM934.707 468C934.582 467.75 934.48 467.305 934.402 466.664C933.395 467.711 932.191 468.234 930.793 468.234C929.543 468.234 928.516 467.883 927.711 467.18C926.914 466.469 926.516 465.57 926.516 464.484C926.516 463.164 927.016 462.141 928.016 461.414C929.023 460.68 930.438 460.312 932.258 460.312H934.367V459.316C934.367 458.559 934.141 457.957 933.688 457.512C933.234 457.059 932.566 456.832 931.684 456.832C930.91 456.832 930.262 457.027 929.738 457.418C929.215 457.809 928.953 458.281 928.953 458.836H926.773C926.773 458.203 926.996 457.594 927.441 457.008C927.895 456.414 928.504 455.945 929.27 455.602C930.043 455.258 930.891 455.086 931.812 455.086C933.273 455.086 934.418 455.453 935.246 456.188C936.074 456.914 936.504 457.918 936.535 459.199V465.035C936.535 466.199 936.684 467.125 936.98 467.812V468H934.707ZM931.109 466.348C931.789 466.348 932.434 466.172 933.043 465.82C933.652 465.469 934.094 465.012 934.367 464.449V461.848H932.668C930.012 461.848 928.684 462.625 928.684 464.18C928.684 464.859 928.91 465.391 929.363 465.773C929.816 466.156 930.398 466.348 931.109 466.348ZM946.062 457.266C945.734 457.211 945.379 457.184 944.996 457.184C943.574 457.184 942.609 457.789 942.102 459V468H939.934V455.32H942.043L942.078 456.785C942.789 455.652 943.797 455.086 945.102 455.086C945.523 455.086 945.844 455.141 946.062 455.25V457.266ZM951.594 452.25V455.32H953.961V456.996H951.594V464.859C951.594 465.367 951.699 465.75 951.91 466.008C952.121 466.258 952.48 466.383 952.988 466.383C953.238 466.383 953.582 466.336 954.02 466.242V468C953.449 468.156 952.895 468.234 952.355 468.234C951.387 468.234 950.656 467.941 950.164 467.355C949.672 466.77 949.426 465.938 949.426 464.859V456.996H947.117V455.32H949.426V452.25H951.594ZM958.859 468H956.691V455.32H958.859V468ZM956.516 451.957C956.516 451.605 956.621 451.309 956.832 451.066C957.051 450.824 957.371 450.703 957.793 450.703C958.215 450.703 958.535 450.824 958.754 451.066C958.973 451.309 959.082 451.605 959.082 451.957C959.082 452.309 958.973 452.602 958.754 452.836C958.535 453.07 958.215 453.188 957.793 453.188C957.371 453.188 957.051 453.07 956.832 452.836C956.621 452.602 956.516 452.309 956.516 451.957ZM969.723 464.637C969.723 464.051 969.5 463.598 969.055 463.277C968.617 462.949 967.848 462.668 966.746 462.434C965.652 462.199 964.781 461.918 964.133 461.59C963.492 461.262 963.016 460.871 962.703 460.418C962.398 459.965 962.246 459.426 962.246 458.801C962.246 457.762 962.684 456.883 963.559 456.164C964.441 455.445 965.566 455.086 966.934 455.086C968.371 455.086 969.535 455.457 970.426 456.199C971.324 456.941 971.773 457.891 971.773 459.047H969.594C969.594 458.453 969.34 457.941 968.832 457.512C968.332 457.082 967.699 456.867 966.934 456.867C966.145 456.867 965.527 457.039 965.082 457.383C964.637 457.727 964.414 458.176 964.414 458.73C964.414 459.254 964.621 459.648 965.035 459.914C965.449 460.18 966.195 460.434 967.273 460.676C968.359 460.918 969.238 461.207 969.91 461.543C970.582 461.879 971.078 462.285 971.398 462.762C971.727 463.23 971.891 463.805 971.891 464.484C971.891 465.617 971.438 466.527 970.531 467.215C969.625 467.895 968.449 468.234 967.004 468.234C965.988 468.234 965.09 468.055 964.309 467.695C963.527 467.336 962.914 466.836 962.469 466.195C962.031 465.547 961.812 464.848 961.812 464.098H963.98C964.02 464.824 964.309 465.402 964.848 465.832C965.395 466.254 966.113 466.465 967.004 466.465C967.824 466.465 968.48 466.301 968.973 465.973C969.473 465.637 969.723 465.191 969.723 464.637ZM977.656 452.25V455.32H980.023V456.996H977.656V464.859C977.656 465.367 977.762 465.75 977.973 466.008C978.184 466.258 978.543 466.383 979.051 466.383C979.301 466.383 979.645 466.336 980.082 466.242V468C979.512 468.156 978.957 468.234 978.418 468.234C977.449 468.234 976.719 467.941 976.227 467.355C975.734 466.77 975.488 465.938 975.488 464.859V456.996H973.18V455.32H975.488V452.25H977.656ZM989.949 464.637C989.949 464.051 989.727 463.598 989.281 463.277C988.844 462.949 988.074 462.668 986.973 462.434C985.879 462.199 985.008 461.918 984.359 461.59C983.719 461.262 983.242 460.871 982.93 460.418C982.625 459.965 982.473 459.426 982.473 458.801C982.473 457.762 982.91 456.883 983.785 456.164C984.668 455.445 985.793 455.086 987.16 455.086C988.598 455.086 989.762 455.457 990.652 456.199C991.551 456.941 992 457.891 992 459.047H989.82C989.82 458.453 989.566 457.941 989.059 457.512C988.559 457.082 987.926 456.867 987.16 456.867C986.371 456.867 985.754 457.039 985.309 457.383C984.863 457.727 984.641 458.176 984.641 458.73C984.641 459.254 984.848 459.648 985.262 459.914C985.676 460.18 986.422 460.434 987.5 460.676C988.586 460.918 989.465 461.207 990.137 461.543C990.809 461.879 991.305 462.285 991.625 462.762C991.953 463.23 992.117 463.805 992.117 464.484C992.117 465.617 991.664 466.527 990.758 467.215C989.852 467.895 988.676 468.234 987.23 468.234C986.215 468.234 985.316 468.055 984.535 467.695C983.754 467.336 983.141 466.836 982.695 466.195C982.258 465.547 982.039 464.848 982.039 464.098H984.207C984.246 464.824 984.535 465.402 985.074 465.832C985.621 466.254 986.34 466.465 987.23 466.465C988.051 466.465 988.707 466.301 989.199 465.973C989.699 465.637 989.949 465.191 989.949 464.637ZM1008.72 468C1008.6 467.75 1008.5 467.305 1008.42 466.664C1007.41 467.711 1006.21 468.234 1004.81 468.234C1003.56 468.234 1002.53 467.883 1001.73 467.18C1000.93 466.469 1000.53 465.57 1000.53 464.484C1000.53 463.164 1001.03 462.141 1002.03 461.414C1003.04 460.68 1004.45 460.312 1006.27 460.312H1008.38V459.316C1008.38 458.559 1008.16 457.957 1007.7 457.512C1007.25 457.059 1006.58 456.832 1005.7 456.832C1004.93 456.832 1004.28 457.027 1003.75 457.418C1003.23 457.809 1002.97 458.281 1002.97 458.836H1000.79C1000.79 458.203 1001.01 457.594 1001.46 457.008C1001.91 456.414 1002.52 455.945 1003.29 455.602C1004.06 455.258 1004.91 455.086 1005.83 455.086C1007.29 455.086 1008.43 455.453 1009.26 456.188C1010.09 456.914 1010.52 457.918 1010.55 459.199V465.035C1010.55 466.199 1010.7 467.125 1011 467.812V468H1008.72ZM1005.12 466.348C1005.8 466.348 1006.45 466.172 1007.06 465.82C1007.67 465.469 1008.11 465.012 1008.38 464.449V461.848H1006.68C1004.03 461.848 1002.7 462.625 1002.7 464.18C1002.7 464.859 1002.93 465.391 1003.38 465.773C1003.83 466.156 1004.41 466.348 1005.12 466.348ZM1013.43 461.555C1013.43 459.578 1013.89 458.008 1014.8 456.844C1015.72 455.672 1016.93 455.086 1018.44 455.086C1019.98 455.086 1021.19 455.633 1022.06 456.727L1022.16 455.32H1024.14V467.695C1024.14 469.336 1023.66 470.629 1022.68 471.574C1021.71 472.52 1020.41 472.992 1018.77 472.992C1017.85 472.992 1016.96 472.797 1016.08 472.406C1015.21 472.016 1014.54 471.48 1014.08 470.801L1015.2 469.5C1016.13 470.648 1017.27 471.223 1018.61 471.223C1019.67 471.223 1020.49 470.926 1021.07 470.332C1021.67 469.738 1021.96 468.902 1021.96 467.824V466.734C1021.1 467.734 1019.91 468.234 1018.41 468.234C1016.93 468.234 1015.73 467.637 1014.8 466.441C1013.89 465.246 1013.43 463.617 1013.43 461.555ZM1015.61 461.801C1015.61 463.23 1015.91 464.355 1016.49 465.176C1017.08 465.988 1017.9 466.395 1018.95 466.395C1020.32 466.395 1021.32 465.773 1021.96 464.531V458.742C1021.3 457.531 1020.3 456.926 1018.98 456.926C1017.92 456.926 1017.1 457.336 1016.5 458.156C1015.91 458.977 1015.61 460.191 1015.61 461.801ZM1032.69 468.234C1030.97 468.234 1029.57 467.672 1028.49 466.547C1027.41 465.414 1026.88 463.902 1026.88 462.012V461.613C1026.88 460.355 1027.11 459.234 1027.59 458.25C1028.07 457.258 1028.75 456.484 1029.61 455.93C1030.47 455.367 1031.41 455.086 1032.42 455.086C1034.07 455.086 1035.35 455.629 1036.26 456.715C1037.18 457.801 1037.63 459.355 1037.63 461.379V462.281H1029.04C1029.07 463.531 1029.44 464.543 1030.13 465.316C1030.84 466.082 1031.73 466.465 1032.8 466.465C1033.57 466.465 1034.22 466.309 1034.75 465.996C1035.28 465.684 1035.75 465.27 1036.14 464.754L1037.47 465.785C1036.41 467.418 1034.81 468.234 1032.69 468.234ZM1032.42 456.867C1031.54 456.867 1030.81 457.188 1030.21 457.828C1029.62 458.461 1029.25 459.352 1029.11 460.5H1035.46V460.336C1035.4 459.234 1035.11 458.383 1034.57 457.781C1034.04 457.172 1033.32 456.867 1032.42 456.867Z" fill="white"/>
<rect x="610.5" y="368.5" width="195" height="151" fill="#0072B2" stroke="black"/>
<path d="M633.649 423.936H628.465V422.256H640.849V423.936H635.665V438H633.649V423.936ZM645.656 426.855C646.617 425.676 647.867 425.086 649.406 425.086C652.086 425.086 653.438 426.598 653.461 429.621V438H651.293V429.609C651.285 428.695 651.074 428.02 650.66 427.582C650.254 427.145 649.617 426.926 648.75 426.926C648.047 426.926 647.43 427.113 646.898 427.488C646.367 427.863 645.953 428.355 645.656 428.965V438H643.488V420H645.656V426.855ZM661.969 438.234C660.25 438.234 658.852 437.672 657.773 436.547C656.695 435.414 656.156 433.902 656.156 432.012V431.613C656.156 430.355 656.395 429.234 656.871 428.25C657.355 427.258 658.027 426.484 658.887 425.93C659.754 425.367 660.691 425.086 661.699 425.086C663.348 425.086 664.629 425.629 665.543 426.715C666.457 427.801 666.914 429.355 666.914 431.379V432.281H658.324C658.355 433.531 658.719 434.543 659.414 435.316C660.117 436.082 661.008 436.465 662.086 436.465C662.852 436.465 663.5 436.309 664.031 435.996C664.562 435.684 665.027 435.27 665.426 434.754L666.75 435.785C665.688 437.418 664.094 438.234 661.969 438.234ZM661.699 426.867C660.824 426.867 660.09 427.188 659.496 427.828C658.902 428.461 658.535 429.352 658.395 430.5H664.746V430.336C664.684 429.234 664.387 428.383 663.855 427.781C663.324 427.172 662.605 426.867 661.699 426.867ZM676.113 438V426.996H674.109V425.32H676.113V424.242C676.113 422.828 676.516 421.727 677.32 420.938C678.133 420.148 679.277 419.754 680.754 419.754C681.629 419.754 682.734 419.992 684.07 420.469L683.707 422.297C682.73 421.906 681.801 421.711 680.918 421.711C679.988 421.711 679.316 421.922 678.902 422.344C678.496 422.758 678.293 423.383 678.293 424.219V425.32H680.883V426.996H678.293V438H676.113ZM685.148 438H682.969V425.32H685.148V438ZM690.727 425.32L690.797 426.914C691.766 425.695 693.031 425.086 694.594 425.086C697.273 425.086 698.625 426.598 698.648 429.621V438H696.48V429.609C696.473 428.695 696.262 428.02 695.848 427.582C695.441 427.145 694.805 426.926 693.938 426.926C693.234 426.926 692.617 427.113 692.086 427.488C691.555 427.863 691.141 428.355 690.844 428.965V438H688.676V425.32H690.727ZM709.746 438C709.621 437.75 709.52 437.305 709.441 436.664C708.434 437.711 707.23 438.234 705.832 438.234C704.582 438.234 703.555 437.883 702.75 437.18C701.953 436.469 701.555 435.57 701.555 434.484C701.555 433.164 702.055 432.141 703.055 431.414C704.062 430.68 705.477 430.312 707.297 430.312H709.406V429.316C709.406 428.559 709.18 427.957 708.727 427.512C708.273 427.059 707.605 426.832 706.723 426.832C705.949 426.832 705.301 427.027 704.777 427.418C704.254 427.809 703.992 428.281 703.992 428.836H701.812C701.812 428.203 702.035 427.594 702.48 427.008C702.934 426.414 703.543 425.945 704.309 425.602C705.082 425.258 705.93 425.086 706.852 425.086C708.312 425.086 709.457 425.453 710.285 426.188C711.113 426.914 711.543 427.918 711.574 429.199V435.035C711.574 436.199 711.723 437.125 712.02 437.812V438H709.746ZM706.148 436.348C706.828 436.348 707.473 436.172 708.082 435.82C708.691 435.469 709.133 435.012 709.406 434.449V431.848H707.707C705.051 431.848 703.723 432.625 703.723 434.18C703.723 434.859 703.949 435.391 704.402 435.773C704.855 436.156 705.438 436.348 706.148 436.348ZM717.328 438H715.16V420H717.328V438ZM734.59 438C734.465 437.75 734.363 437.305 734.285 436.664C733.277 437.711 732.074 438.234 730.676 438.234C729.426 438.234 728.398 437.883 727.594 437.18C726.797 436.469 726.398 435.57 726.398 434.484C726.398 433.164 726.898 432.141 727.898 431.414C728.906 430.68 730.32 430.312 732.141 430.312H734.25V429.316C734.25 428.559 734.023 427.957 733.57 427.512C733.117 427.059 732.449 426.832 731.566 426.832C730.793 426.832 730.145 427.027 729.621 427.418C729.098 427.809 728.836 428.281 728.836 428.836H726.656C726.656 428.203 726.879 427.594 727.324 427.008C727.777 426.414 728.387 425.945 729.152 425.602C729.926 425.258 730.773 425.086 731.695 425.086C733.156 425.086 734.301 425.453 735.129 426.188C735.957 426.914 736.387 427.918 736.418 429.199V435.035C736.418 436.199 736.566 437.125 736.863 437.812V438H734.59ZM730.992 436.348C731.672 436.348 732.316 436.172 732.926 435.82C733.535 435.469 733.977 435.012 734.25 434.449V431.848H732.551C729.895 431.848 728.566 432.625 728.566 434.18C728.566 434.859 728.793 435.391 729.246 435.773C729.699 436.156 730.281 436.348 730.992 436.348ZM739.301 431.555C739.301 429.578 739.758 428.008 740.672 426.844C741.586 425.672 742.797 425.086 744.305 425.086C745.852 425.086 747.059 425.633 747.926 426.727L748.031 425.32H750.012V437.695C750.012 439.336 749.523 440.629 748.547 441.574C747.578 442.52 746.273 442.992 744.633 442.992C743.719 442.992 742.824 442.797 741.949 442.406C741.074 442.016 740.406 441.48 739.945 440.801L741.07 439.5C742 440.648 743.137 441.223 744.48 441.223C745.535 441.223 746.355 440.926 746.941 440.332C747.535 439.738 747.832 438.902 747.832 437.824V436.734C746.965 437.734 745.781 438.234 744.281 438.234C742.797 438.234 741.594 437.637 740.672 436.441C739.758 435.246 739.301 433.617 739.301 431.555ZM741.48 431.801C741.48 433.23 741.773 434.355 742.359 435.176C742.945 435.988 743.766 436.395 744.82 436.395C746.188 436.395 747.191 435.773 747.832 434.531V428.742C747.168 427.531 746.172 426.926 744.844 426.926C743.789 426.926 742.965 427.336 742.371 428.156C741.777 428.977 741.48 430.191 741.48 431.801ZM758.555 438.234C756.836 438.234 755.438 437.672 754.359 436.547C753.281 435.414 752.742 433.902 752.742 432.012V431.613C752.742 430.355 752.98 429.234 753.457 428.25C753.941 427.258 754.613 426.484 755.473 425.93C756.34 425.367 757.277 425.086 758.285 425.086C759.934 425.086 761.215 425.629 762.129 426.715C763.043 427.801 763.5 429.355 763.5 431.379V432.281H754.91C754.941 433.531 755.305 434.543 756 435.316C756.703 436.082 757.594 436.465 758.672 436.465C759.438 436.465 760.086 436.309 760.617 435.996C761.148 435.684 761.613 435.27 762.012 434.754L763.336 435.785C762.273 437.418 760.68 438.234 758.555 438.234ZM758.285 426.867C757.41 426.867 756.676 427.188 756.082 427.828C755.488 428.461 755.121 429.352 754.98 430.5H761.332V430.336C761.27 429.234 760.973 428.383 760.441 427.781C759.91 427.172 759.191 426.867 758.285 426.867ZM774.328 438H772.16V425.32H774.328V438ZM771.984 421.957C771.984 421.605 772.09 421.309 772.301 421.066C772.52 420.824 772.84 420.703 773.262 420.703C773.684 420.703 774.004 420.824 774.223 421.066C774.441 421.309 774.551 421.605 774.551 421.957C774.551 422.309 774.441 422.602 774.223 422.836C774.004 423.07 773.684 423.188 773.262 423.188C772.84 423.188 772.52 423.07 772.301 422.836C772.09 422.602 771.984 422.309 771.984 421.957ZM785.191 434.637C785.191 434.051 784.969 433.598 784.523 433.277C784.086 432.949 783.316 432.668 782.215 432.434C781.121 432.199 780.25 431.918 779.602 431.59C778.961 431.262 778.484 430.871 778.172 430.418C777.867 429.965 777.715 429.426 777.715 428.801C777.715 427.762 778.152 426.883 779.027 426.164C779.91 425.445 781.035 425.086 782.402 425.086C783.84 425.086 785.004 425.457 785.895 426.199C786.793 426.941 787.242 427.891 787.242 429.047H785.062C785.062 428.453 784.809 427.941 784.301 427.512C783.801 427.082 783.168 426.867 782.402 426.867C781.613 426.867 780.996 427.039 780.551 427.383C780.105 427.727 779.883 428.176 779.883 428.73C779.883 429.254 780.09 429.648 780.504 429.914C780.918 430.18 781.664 430.434 782.742 430.676C783.828 430.918 784.707 431.207 785.379 431.543C786.051 431.879 786.547 432.285 786.867 432.762C787.195 433.23 787.359 433.805 787.359 434.484C787.359 435.617 786.906 436.527 786 437.215C785.094 437.895 783.918 438.234 782.473 438.234C781.457 438.234 780.559 438.055 779.777 437.695C778.996 437.336 778.383 436.836 777.938 436.195C777.5 435.547 777.281 434.848 777.281 434.098H779.449C779.488 434.824 779.777 435.402 780.316 435.832C780.863 436.254 781.582 436.465 782.473 436.465C783.293 436.465 783.949 436.301 784.441 435.973C784.941 435.637 785.191 435.191 785.191 434.637ZM646.434 454.152L646.386 451.512H649.026L648.978 454.152L648.378 459.552H647.034L646.434 454.152ZM651.93 454.152L651.882 451.512H654.522L654.474 454.152L653.874 459.552H652.53L651.93 454.152ZM659.529 452.256H661.545V462.096C661.545 462.912 661.625 463.608 661.785 464.184C661.961 464.744 662.193 465.2 662.481 465.552C662.785 465.888 663.137 466.136 663.537 466.296C663.937 466.456 664.377 466.536 664.857 466.536C665.337 466.536 665.777 466.456 666.177 466.296C666.577 466.136 666.929 465.888 667.233 465.552C667.537 465.2 667.769 464.744 667.929 464.184C668.105 463.608 668.193 462.912 668.193 462.096V452.256H670.137V462.048C670.137 463.184 670.001 464.144 669.729 464.928C669.473 465.712 669.113 466.36 668.649 466.872C668.185 467.368 667.625 467.728 666.969 467.952C666.329 468.176 665.625 468.288 664.857 468.288C664.089 468.288 663.377 468.176 662.721 467.952C662.065 467.728 661.497 467.368 661.017 466.872C660.553 466.36 660.185 465.712 659.913 464.928C659.657 464.144 659.529 463.184 659.529 462.048V452.256ZM674.255 456.336H675.887L676.055 458.328H676.151C676.759 457.672 677.415 457.128 678.119 456.696C678.823 456.264 679.631 456.048 680.543 456.048C681.935 456.048 682.951 456.448 683.591 457.248C684.247 458.032 684.575 459.2 684.575 460.752V468H682.607V461.016C682.607 459.912 682.399 459.096 681.983 458.568C681.567 458.024 680.879 457.752 679.919 457.752C679.567 457.752 679.239 457.8 678.935 457.896C678.647 457.976 678.359 458.104 678.071 458.28C677.783 458.456 677.487 458.68 677.183 458.952C676.879 459.208 676.559 459.512 676.223 459.864V468H674.255V456.336ZM688.958 450.912H690.926V462.48H691.022L697.31 456.336H699.566L694.91 460.968L700.19 468H697.982L693.686 462.168L690.926 464.832V468H688.958V450.912ZM703.037 456.336H704.669L704.837 458.328H704.933C705.541 457.672 706.197 457.128 706.901 456.696C707.605 456.264 708.413 456.048 709.325 456.048C710.717 456.048 711.733 456.448 712.373 457.248C713.029 458.032 713.357 459.2 713.357 460.752V468H711.389V461.016C711.389 459.912 711.181 459.096 710.765 458.568C710.349 458.024 709.661 457.752 708.701 457.752C708.349 457.752 708.021 457.8 707.717 457.896C707.429 457.976 707.141 458.104 706.853 458.28C706.565 458.456 706.269 458.68 705.965 458.952C705.661 459.208 705.341 459.512 705.005 459.864V468H703.037V456.336ZM716.635 462.192C716.635 461.216 716.787 460.352 717.091 459.6C717.411 458.832 717.835 458.184 718.363 457.656C718.891 457.128 719.499 456.728 720.187 456.456C720.891 456.184 721.627 456.048 722.395 456.048C723.163 456.048 723.891 456.184 724.579 456.456C725.283 456.728 725.899 457.128 726.427 457.656C726.955 458.184 727.371 458.832 727.675 459.6C727.995 460.352 728.155 461.216 728.155 462.192C728.155 463.152 727.995 464.016 727.675 464.784C727.371 465.536 726.955 466.176 726.427 466.704C725.899 467.216 725.283 467.608 724.579 467.88C723.891 468.152 723.163 468.288 722.395 468.288C721.627 468.288 720.891 468.152 720.187 467.88C719.499 467.608 718.891 467.216 718.363 466.704C717.835 466.176 717.411 465.536 717.091 464.784C716.787 464.016 716.635 463.152 716.635 462.192ZM718.675 462.192C718.675 462.864 718.763 463.472 718.939 464.016C719.115 464.56 719.363 465.032 719.683 465.432C720.019 465.816 720.411 466.12 720.859 466.344C721.323 466.552 721.835 466.656 722.395 466.656C722.955 466.656 723.459 466.552 723.907 466.344C724.371 466.12 724.763 465.816 725.083 465.432C725.419 465.032 725.675 464.56 725.851 464.016C726.027 463.472 726.115 462.864 726.115 462.192C726.115 461.52 726.027 460.912 725.851 460.368C725.675 459.808 725.419 459.328 725.083 458.928C724.763 458.528 724.371 458.224 723.907 458.016C723.459 457.792 722.955 457.68 722.395 457.68C721.835 457.68 721.323 457.792 720.859 458.016C720.411 458.224 720.019 458.528 719.683 458.928C719.363 459.328 719.115 459.808 718.939 460.368C718.763 460.912 718.675 461.52 718.675 462.192ZM729.778 456.336H731.794L733.21 463.08C733.322 463.64 733.426 464.184 733.522 464.712C733.618 465.24 733.706 465.776 733.786 466.32H733.882C733.994 465.776 734.106 465.24 734.218 464.712C734.33 464.168 734.45 463.624 734.578 463.08L735.994 457.032H737.674L739.114 463.08C739.242 463.64 739.362 464.184 739.474 464.712C739.586 465.24 739.706 465.776 739.834 466.32H739.93C740.042 465.776 740.138 465.24 740.218 464.712C740.314 464.184 740.41 463.64 740.506 463.08L741.922 456.336H743.794L741.25 468H738.874L737.482 462.096C737.37 461.536 737.266 460.984 737.17 460.44C737.074 459.88 736.962 459.304 736.834 458.712H736.738C736.642 459.224 736.546 459.752 736.45 460.296C736.354 460.84 736.234 461.448 736.09 462.12L734.746 468H732.394L729.778 456.336ZM746.209 456.336H747.841L748.009 458.328H748.105C748.713 457.672 749.369 457.128 750.073 456.696C750.777 456.264 751.585 456.048 752.497 456.048C753.889 456.048 754.905 456.448 755.545 457.248C756.201 458.032 756.529 459.2 756.529 460.752V468H754.561V461.016C754.561 459.912 754.353 459.096 753.937 458.568C753.521 458.024 752.833 457.752 751.873 457.752C751.521 457.752 751.193 457.8 750.889 457.896C750.601 457.976 750.313 458.104 750.025 458.28C749.737 458.456 749.441 458.68 749.137 458.952C748.833 459.208 748.513 459.512 748.177 459.864V468H746.209V456.336ZM761.559 454.152L761.511 451.512H764.151L764.103 454.152L763.503 459.552H762.159L761.559 454.152ZM767.055 454.152L767.007 451.512H769.647L769.599 454.152L768.999 459.552H767.655L767.055 454.152Z" fill="white"/>
<rect x="274.5" y="550.5" width="195" height="151" fill="#27AE60" stroke="black"/>
<path d="M296.777 601.547H289.629L288.023 606H285.703L292.219 588.938H294.188L300.715 606H298.406L296.777 601.547ZM290.309 599.695H296.109L293.203 591.715L290.309 599.695ZM313.383 599.801C313.383 601.73 312.941 603.285 312.059 604.465C311.176 605.645 309.98 606.234 308.473 606.234C306.934 606.234 305.723 605.746 304.84 604.77V610.875H302.672V593.32H304.652L304.758 594.727C305.641 593.633 306.867 593.086 308.438 593.086C309.961 593.086 311.164 593.66 312.047 594.809C312.938 595.957 313.383 597.555 313.383 599.602V599.801ZM311.215 599.555C311.215 598.125 310.91 596.996 310.301 596.168C309.691 595.34 308.855 594.926 307.793 594.926C306.48 594.926 305.496 595.508 304.84 596.672V602.73C305.488 603.887 306.48 604.465 307.816 604.465C308.855 604.465 309.68 604.055 310.289 603.234C310.906 602.406 311.215 601.18 311.215 599.555ZM326.859 599.801C326.859 601.73 326.418 603.285 325.535 604.465C324.652 605.645 323.457 606.234 321.949 606.234C320.41 606.234 319.199 605.746 318.316 604.77V610.875H316.148V593.32H318.129L318.234 594.727C319.117 593.633 320.344 593.086 321.914 593.086C323.438 593.086 324.641 593.66 325.523 594.809C326.414 595.957 326.859 597.555 326.859 599.602V599.801ZM324.691 599.555C324.691 598.125 324.387 596.996 323.777 596.168C323.168 595.34 322.332 594.926 321.27 594.926C319.957 594.926 318.973 595.508 318.316 596.672V602.73C318.965 603.887 319.957 604.465 321.293 604.465C322.332 604.465 323.156 604.055 323.766 603.234C324.383 602.406 324.691 601.18 324.691 599.555ZM334.887 606.234C333.168 606.234 331.77 605.672 330.691 604.547C329.613 603.414 329.074 601.902 329.074 600.012V599.613C329.074 598.355 329.312 597.234 329.789 596.25C330.273 595.258 330.945 594.484 331.805 593.93C332.672 593.367 333.609 593.086 334.617 593.086C336.266 593.086 337.547 593.629 338.461 594.715C339.375 595.801 339.832 597.355 339.832 599.379V600.281H331.242C331.273 601.531 331.637 602.543 332.332 603.316C333.035 604.082 333.926 604.465 335.004 604.465C335.77 604.465 336.418 604.309 336.949 603.996C337.48 603.684 337.945 603.27 338.344 602.754L339.668 603.785C338.605 605.418 337.012 606.234 334.887 606.234ZM334.617 594.867C333.742 594.867 333.008 595.188 332.414 595.828C331.82 596.461 331.453 597.352 331.312 598.5H337.664V598.336C337.602 597.234 337.305 596.383 336.773 595.781C336.242 595.172 335.523 594.867 334.617 594.867ZM344.402 593.32L344.473 594.914C345.441 593.695 346.707 593.086 348.27 593.086C350.949 593.086 352.301 594.598 352.324 597.621V606H350.156V597.609C350.148 596.695 349.938 596.02 349.523 595.582C349.117 595.145 348.48 594.926 347.613 594.926C346.91 594.926 346.293 595.113 345.762 595.488C345.23 595.863 344.816 596.355 344.52 596.965V606H342.352V593.32H344.402ZM355.066 599.555C355.066 597.609 355.527 596.047 356.449 594.867C357.371 593.68 358.578 593.086 360.07 593.086C361.555 593.086 362.73 593.594 363.598 594.609V588H365.766V606H363.773L363.668 604.641C362.801 605.703 361.594 606.234 360.047 606.234C358.578 606.234 357.379 605.633 356.449 604.43C355.527 603.227 355.066 601.656 355.066 599.719V599.555ZM357.234 599.801C357.234 601.238 357.531 602.363 358.125 603.176C358.719 603.988 359.539 604.395 360.586 604.395C361.961 604.395 362.965 603.777 363.598 602.543V596.719C362.949 595.523 361.953 594.926 360.609 594.926C359.547 594.926 358.719 595.336 358.125 596.156C357.531 596.977 357.234 598.191 357.234 599.801ZM378.035 590.25V593.32H380.402V594.996H378.035V602.859C378.035 603.367 378.141 603.75 378.352 604.008C378.562 604.258 378.922 604.383 379.43 604.383C379.68 604.383 380.023 604.336 380.461 604.242V606C379.891 606.156 379.336 606.234 378.797 606.234C377.828 606.234 377.098 605.941 376.605 605.355C376.113 604.77 375.867 603.938 375.867 602.859V594.996H373.559V593.32H375.867V590.25H378.035ZM385.113 594.855C386.074 593.676 387.324 593.086 388.863 593.086C391.543 593.086 392.895 594.598 392.918 597.621V606H390.75V597.609C390.742 596.695 390.531 596.02 390.117 595.582C389.711 595.145 389.074 594.926 388.207 594.926C387.504 594.926 386.887 595.113 386.355 595.488C385.824 595.863 385.41 596.355 385.113 596.965V606H382.945V588H385.113V594.855ZM401.426 606.234C399.707 606.234 398.309 605.672 397.23 604.547C396.152 603.414 395.613 601.902 395.613 600.012V599.613C395.613 598.355 395.852 597.234 396.328 596.25C396.812 595.258 397.484 594.484 398.344 593.93C399.211 593.367 400.148 593.086 401.156 593.086C402.805 593.086 404.086 593.629 405 594.715C405.914 595.801 406.371 597.355 406.371 599.379V600.281H397.781C397.812 601.531 398.176 602.543 398.871 603.316C399.574 604.082 400.465 604.465 401.543 604.465C402.309 604.465 402.957 604.309 403.488 603.996C404.02 603.684 404.484 603.27 404.883 602.754L406.207 603.785C405.145 605.418 403.551 606.234 401.426 606.234ZM401.156 594.867C400.281 594.867 399.547 595.188 398.953 595.828C398.359 596.461 397.992 597.352 397.852 598.5H404.203V598.336C404.141 597.234 403.844 596.383 403.312 595.781C402.781 595.172 402.062 594.867 401.156 594.867ZM415.57 606V594.996H413.566V593.32H415.57V592.242C415.57 590.828 415.973 589.727 416.777 588.938C417.59 588.148 418.734 587.754 420.211 587.754C421.086 587.754 422.191 587.992 423.527 588.469L423.164 590.297C422.188 589.906 421.258 589.711 420.375 589.711C419.445 589.711 418.773 589.922 418.359 590.344C417.953 590.758 417.75 591.383 417.75 592.219V593.32H420.34V594.996H417.75V606H415.57ZM424.605 606H422.426V593.32H424.605V606ZM430.184 593.32L430.254 594.914C431.223 593.695 432.488 593.086 434.051 593.086C436.73 593.086 438.082 594.598 438.105 597.621V606H435.938V597.609C435.93 596.695 435.719 596.02 435.305 595.582C434.898 595.145 434.262 594.926 433.395 594.926C432.691 594.926 432.074 595.113 431.543 595.488C431.012 595.863 430.598 596.355 430.301 596.965V606H428.133V593.32H430.184ZM449.203 606C449.078 605.75 448.977 605.305 448.898 604.664C447.891 605.711 446.688 606.234 445.289 606.234C444.039 606.234 443.012 605.883 442.207 605.18C441.41 604.469 441.012 603.57 441.012 602.484C441.012 601.164 441.512 600.141 442.512 599.414C443.52 598.68 444.934 598.312 446.754 598.312H448.863V597.316C448.863 596.559 448.637 595.957 448.184 595.512C447.73 595.059 447.062 594.832 446.18 594.832C445.406 594.832 444.758 595.027 444.234 595.418C443.711 595.809 443.449 596.281 443.449 596.836H441.27C441.27 596.203 441.492 595.594 441.938 595.008C442.391 594.414 443 593.945 443.766 593.602C444.539 593.258 445.387 593.086 446.309 593.086C447.77 593.086 448.914 593.453 449.742 594.188C450.57 594.914 451 595.918 451.031 597.199V603.035C451.031 604.199 451.18 605.125 451.477 605.812V606H449.203ZM445.605 604.348C446.285 604.348 446.93 604.172 447.539 603.82C448.148 603.469 448.59 603.012 448.863 602.449V599.848H447.164C444.508 599.848 443.18 600.625 443.18 602.18C443.18 602.859 443.406 603.391 443.859 603.773C444.312 604.156 444.895 604.348 445.605 604.348ZM456.785 606H454.617V588H456.785V606ZM296.578 634C296.453 633.75 296.352 633.305 296.273 632.664C295.266 633.711 294.062 634.234 292.664 634.234C291.414 634.234 290.387 633.883 289.582 633.18C288.785 632.469 288.387 631.57 288.387 630.484C288.387 629.164 288.887 628.141 289.887 627.414C290.895 626.68 292.309 626.312 294.129 626.312H296.238V625.316C296.238 624.559 296.012 623.957 295.559 623.512C295.105 623.059 294.438 622.832 293.555 622.832C292.781 622.832 292.133 623.027 291.609 623.418C291.086 623.809 290.824 624.281 290.824 624.836H288.645C288.645 624.203 288.867 623.594 289.312 623.008C289.766 622.414 290.375 621.945 291.141 621.602C291.914 621.258 292.762 621.086 293.684 621.086C295.145 621.086 296.289 621.453 297.117 622.188C297.945 622.914 298.375 623.918 298.406 625.199V631.035C298.406 632.199 298.555 633.125 298.852 633.812V634H296.578ZM292.98 632.348C293.66 632.348 294.305 632.172 294.914 631.82C295.523 631.469 295.965 631.012 296.238 630.449V627.848H294.539C291.883 627.848 290.555 628.625 290.555 630.18C290.555 630.859 290.781 631.391 291.234 631.773C291.688 632.156 292.27 632.348 292.98 632.348ZM301.289 627.555C301.289 625.578 301.746 624.008 302.66 622.844C303.574 621.672 304.785 621.086 306.293 621.086C307.84 621.086 309.047 621.633 309.914 622.727L310.02 621.32H312V633.695C312 635.336 311.512 636.629 310.535 637.574C309.566 638.52 308.262 638.992 306.621 638.992C305.707 638.992 304.812 638.797 303.938 638.406C303.062 638.016 302.395 637.48 301.934 636.801L303.059 635.5C303.988 636.648 305.125 637.223 306.469 637.223C307.523 637.223 308.344 636.926 308.93 636.332C309.523 635.738 309.82 634.902 309.82 633.824V632.734C308.953 633.734 307.77 634.234 306.27 634.234C304.785 634.234 303.582 633.637 302.66 632.441C301.746 631.246 301.289 629.617 301.289 627.555ZM303.469 627.801C303.469 629.23 303.762 630.355 304.348 631.176C304.934 631.988 305.754 632.395 306.809 632.395C308.176 632.395 309.18 631.773 309.82 630.531V624.742C309.156 623.531 308.16 622.926 306.832 622.926C305.777 622.926 304.953 623.336 304.359 624.156C303.766 624.977 303.469 626.191 303.469 627.801ZM320.543 634.234C318.824 634.234 317.426 633.672 316.348 632.547C315.27 631.414 314.73 629.902 314.73 628.012V627.613C314.73 626.355 314.969 625.234 315.445 624.25C315.93 623.258 316.602 622.484 317.461 621.93C318.328 621.367 319.266 621.086 320.273 621.086C321.922 621.086 323.203 621.629 324.117 622.715C325.031 623.801 325.488 625.355 325.488 627.379V628.281H316.898C316.93 629.531 317.293 630.543 317.988 631.316C318.691 632.082 319.582 632.465 320.66 632.465C321.426 632.465 322.074 632.309 322.605 631.996C323.137 631.684 323.602 631.27 324 630.754L325.324 631.785C324.262 633.418 322.668 634.234 320.543 634.234ZM320.273 622.867C319.398 622.867 318.664 623.188 318.07 623.828C317.477 624.461 317.109 625.352 316.969 626.5H323.32V626.336C323.258 625.234 322.961 624.383 322.43 623.781C321.898 623.172 321.18 622.867 320.273 622.867ZM336.902 618.25V621.32H339.27V622.996H336.902V630.859C336.902 631.367 337.008 631.75 337.219 632.008C337.43 632.258 337.789 632.383 338.297 632.383C338.547 632.383 338.891 632.336 339.328 632.242V634C338.758 634.156 338.203 634.234 337.664 634.234C336.695 634.234 335.965 633.941 335.473 633.355C334.98 632.77 334.734 631.938 334.734 630.859V622.996H332.426V621.32H334.734V618.25H336.902ZM341.004 627.543C341.004 626.301 341.246 625.184 341.73 624.191C342.223 623.199 342.902 622.434 343.77 621.895C344.645 621.355 345.641 621.086 346.758 621.086C348.484 621.086 349.879 621.684 350.941 622.879C352.012 624.074 352.547 625.664 352.547 627.648V627.801C352.547 629.035 352.309 630.145 351.832 631.129C351.363 632.105 350.688 632.867 349.805 633.414C348.93 633.961 347.922 634.234 346.781 634.234C345.062 634.234 343.668 633.637 342.598 632.441C341.535 631.246 341.004 629.664 341.004 627.695V627.543ZM343.184 627.801C343.184 629.207 343.508 630.336 344.156 631.188C344.812 632.039 345.688 632.465 346.781 632.465C347.883 632.465 348.758 632.035 349.406 631.176C350.055 630.309 350.379 629.098 350.379 627.543C350.379 626.152 350.047 625.027 349.383 624.168C348.727 623.301 347.852 622.867 346.758 622.867C345.688 622.867 344.824 623.293 344.168 624.145C343.512 624.996 343.184 626.215 343.184 627.801ZM364.16 618.25V621.32H366.527V622.996H364.16V630.859C364.16 631.367 364.266 631.75 364.477 632.008C364.688 632.258 365.047 632.383 365.555 632.383C365.805 632.383 366.148 632.336 366.586 632.242V634C366.016 634.156 365.461 634.234 364.922 634.234C363.953 634.234 363.223 633.941 362.73 633.355C362.238 632.77 361.992 631.938 361.992 630.859V622.996H359.684V621.32H361.992V618.25H364.16ZM371.238 622.855C372.199 621.676 373.449 621.086 374.988 621.086C377.668 621.086 379.02 622.598 379.043 625.621V634H376.875V625.609C376.867 624.695 376.656 624.02 376.242 623.582C375.836 623.145 375.199 622.926 374.332 622.926C373.629 622.926 373.012 623.113 372.48 623.488C371.949 623.863 371.535 624.355 371.238 624.965V634H369.07V616H371.238V622.855ZM387.551 634.234C385.832 634.234 384.434 633.672 383.355 632.547C382.277 631.414 381.738 629.902 381.738 628.012V627.613C381.738 626.355 381.977 625.234 382.453 624.25C382.938 623.258 383.609 622.484 384.469 621.93C385.336 621.367 386.273 621.086 387.281 621.086C388.93 621.086 390.211 621.629 391.125 622.715C392.039 623.801 392.496 625.355 392.496 627.379V628.281H383.906C383.938 629.531 384.301 630.543 384.996 631.316C385.699 632.082 386.59 632.465 387.668 632.465C388.434 632.465 389.082 632.309 389.613 631.996C390.145 631.684 390.609 631.27 391.008 630.754L392.332 631.785C391.27 633.418 389.676 634.234 387.551 634.234ZM387.281 622.867C386.406 622.867 385.672 623.188 385.078 623.828C384.484 624.461 384.117 625.352 383.977 626.5H390.328V626.336C390.266 625.234 389.969 624.383 389.438 623.781C388.906 623.172 388.188 622.867 387.281 622.867ZM401.272 630.976C401.272 630.32 401.424 629.752 401.728 629.272C402.048 628.776 402.544 628.352 403.216 628C403.904 627.648 404.784 627.36 405.856 627.136C406.928 626.912 408.216 626.736 409.72 626.608C409.704 626.208 409.64 625.832 409.528 625.48C409.416 625.128 409.24 624.824 409 624.568C408.76 624.296 408.44 624.08 408.04 623.92C407.656 623.76 407.184 623.68 406.624 623.68C405.856 623.68 405.12 623.832 404.416 624.136C403.712 624.424 403.088 624.736 402.544 625.072L401.776 623.728C402.064 623.536 402.4 623.344 402.784 623.152C403.184 622.944 403.6 622.76 404.032 622.6C404.48 622.44 404.952 622.312 405.448 622.216C405.944 622.104 406.448 622.048 406.96 622.048C408.56 622.048 409.744 622.488 410.512 623.368C411.296 624.232 411.688 625.392 411.688 626.848V634H410.08L409.912 632.416H409.84C409.184 632.928 408.456 633.368 407.656 633.736C406.872 634.104 406.064 634.288 405.232 634.288C404.688 634.288 404.176 634.208 403.696 634.048C403.216 633.904 402.792 633.696 402.424 633.424C402.072 633.136 401.792 632.792 401.584 632.392C401.376 631.976 401.272 631.504 401.272 630.976ZM403.192 630.832C403.192 631.168 403.264 631.456 403.408 631.696C403.552 631.92 403.736 632.112 403.96 632.272C404.2 632.416 404.472 632.528 404.776 632.608C405.096 632.672 405.424 632.704 405.76 632.704C406.432 632.704 407.088 632.56 407.728 632.272C408.384 631.968 409.048 631.536 409.72 630.976V627.904C408.472 628 407.424 628.136 406.576 628.312C405.744 628.488 405.072 628.704 404.56 628.96C404.064 629.2 403.712 629.48 403.504 629.8C403.296 630.104 403.192 630.448 403.192 630.832ZM417.151 635.944C417.151 636.552 417.471 637.048 418.111 637.432C418.767 637.816 419.719 638.008 420.967 638.008C421.639 638.008 422.247 637.936 422.791 637.792C423.335 637.664 423.799 637.488 424.183 637.264C424.567 637.04 424.855 636.784 425.047 636.496C425.255 636.208 425.359 635.912 425.359 635.608C425.359 635.048 425.135 634.672 424.687 634.48C424.255 634.288 423.591 634.192 422.695 634.192H420.415C420.079 634.192 419.759 634.176 419.455 634.144C419.167 634.128 418.895 634.08 418.639 634C418.079 634.304 417.687 634.616 417.463 634.936C417.255 635.272 417.151 635.608 417.151 635.944ZM415.447 636.136C415.447 635.672 415.607 635.216 415.927 634.768C416.263 634.32 416.743 633.912 417.367 633.544V633.448C417.047 633.272 416.767 633.032 416.527 632.728C416.287 632.424 416.167 632.024 416.167 631.528C416.167 631.16 416.287 630.784 416.527 630.4C416.767 630 417.111 629.648 417.559 629.344V629.248C417.159 628.944 416.815 628.544 416.527 628.048C416.255 627.536 416.119 626.928 416.119 626.224C416.119 625.584 416.239 625.008 416.479 624.496C416.735 623.984 417.071 623.552 417.487 623.2C417.903 622.832 418.383 622.552 418.927 622.36C419.487 622.152 420.079 622.048 420.703 622.048C421.343 622.048 421.919 622.144 422.431 622.336H427.255V623.848H424.135C424.407 624.136 424.655 624.488 424.879 624.904C425.103 625.32 425.215 625.784 425.215 626.296C425.215 626.92 425.095 627.48 424.855 627.976C424.631 628.472 424.311 628.896 423.895 629.248C423.495 629.584 423.015 629.848 422.455 630.04C421.911 630.216 421.327 630.304 420.703 630.304C420.399 630.304 420.071 630.272 419.719 630.208C419.383 630.128 419.055 630.016 418.735 629.872C418.127 630.256 417.823 630.704 417.823 631.216C417.823 631.68 418.031 632.024 418.447 632.248C418.879 632.456 419.479 632.56 420.247 632.56H422.863C424.367 632.56 425.479 632.768 426.199 633.184C426.935 633.6 427.303 634.304 427.303 635.296C427.303 635.84 427.151 636.36 426.847 636.856C426.543 637.352 426.111 637.784 425.551 638.152C424.991 638.52 424.311 638.816 423.511 639.04C422.711 639.264 421.815 639.376 420.823 639.376C419.111 639.376 417.783 639.096 416.839 638.536C415.911 637.976 415.447 637.176 415.447 636.136ZM420.703 628.984C421.455 628.984 422.087 628.736 422.599 628.24C423.127 627.744 423.391 627.072 423.391 626.224C423.391 625.824 423.319 625.456 423.175 625.12C423.031 624.784 422.839 624.496 422.599 624.256C422.359 624.016 422.071 623.832 421.735 623.704C421.415 623.56 421.071 623.488 420.703 623.488C420.335 623.488 419.983 623.56 419.647 623.704C419.327 623.832 419.047 624.016 418.807 624.256C418.567 624.496 418.375 624.784 418.231 625.12C418.087 625.456 418.015 625.824 418.015 626.224C418.015 627.072 418.279 627.744 418.807 628.24C419.335 628.736 419.967 628.984 420.703 628.984ZM429.765 628.192C429.765 627.232 429.933 626.376 430.269 625.624C430.605 624.856 431.045 624.208 431.589 623.68C432.149 623.152 432.781 622.752 433.485 622.48C434.205 622.192 434.941 622.048 435.693 622.048C436.525 622.048 437.269 622.184 437.925 622.456C438.581 622.712 439.133 623.08 439.581 623.56C440.045 624.04 440.397 624.616 440.637 625.288C440.877 625.96 440.997 626.704 440.997 627.52C440.997 627.728 440.989 627.936 440.973 628.144C440.973 628.336 440.957 628.504 440.925 628.648H431.805C431.821 629.272 431.941 629.832 432.165 630.328C432.405 630.824 432.717 631.248 433.101 631.6C433.501 631.952 433.965 632.224 434.493 632.416C435.037 632.608 435.629 632.704 436.269 632.704C436.957 632.704 437.581 632.608 438.141 632.416C438.717 632.224 439.277 631.96 439.821 631.624L440.517 632.92C439.941 633.288 439.285 633.608 438.549 633.88C437.813 634.152 436.973 634.288 436.029 634.288C435.165 634.288 434.349 634.152 433.581 633.88C432.829 633.592 432.165 633.192 431.589 632.68C431.029 632.152 430.581 631.512 430.245 630.76C429.925 630.008 429.765 629.152 429.765 628.192ZM439.173 627.232C439.173 626.064 438.869 625.168 438.261 624.544C437.653 623.92 436.805 623.608 435.717 623.608C435.237 623.608 434.773 623.688 434.325 623.848C433.893 624.008 433.501 624.248 433.149 624.568C432.797 624.872 432.501 625.248 432.261 625.696C432.021 626.144 431.861 626.656 431.781 627.232H439.173ZM445.188 631.168C445.844 631.648 446.548 632.032 447.3 632.32C448.052 632.608 448.956 632.752 450.012 632.752C451.068 632.752 451.852 632.576 452.364 632.224C452.876 631.872 453.132 631.44 453.132 630.928C453.132 630.48 452.852 630.08 452.292 629.728C451.748 629.376 450.764 629.024 449.34 628.672C448.732 628.528 448.156 628.352 447.612 628.144C447.084 627.936 446.62 627.696 446.22 627.424C445.82 627.136 445.5 626.824 445.26 626.488C445.02 626.152 444.9 625.776 444.9 625.36C444.9 624.896 445.004 624.464 445.212 624.064C445.42 623.648 445.724 623.296 446.124 623.008C446.54 622.704 447.052 622.472 447.66 622.312C448.284 622.136 448.996 622.048 449.796 622.048C450.676 622.048 451.532 622.2 452.364 622.504C453.196 622.792 453.9 623.136 454.476 623.536L453.516 624.808C453.004 624.44 452.436 624.144 451.812 623.92C451.188 623.696 450.516 623.584 449.796 623.584C449.252 623.584 448.796 623.632 448.428 623.728C448.06 623.808 447.764 623.928 447.54 624.088C447.316 624.232 447.156 624.408 447.06 624.616C446.964 624.824 446.916 625.04 446.916 625.264C446.916 625.744 447.244 626.144 447.9 626.464C448.556 626.768 449.412 627.056 450.468 627.328C452.052 627.728 453.22 628.184 453.972 628.696C454.74 629.208 455.124 629.912 455.124 630.808C455.124 631.288 455.012 631.736 454.788 632.152C454.564 632.568 454.228 632.936 453.78 633.256C453.348 633.576 452.804 633.824 452.148 634C451.508 634.192 450.772 634.288 449.94 634.288C448.788 634.288 447.724 634.112 446.748 633.76C445.788 633.392 444.948 632.96 444.228 632.464L445.188 631.168ZM360.047 664H357.879V646H360.047V664ZM365.883 664H363.715V651.32H365.883V664ZM363.539 647.957C363.539 647.605 363.645 647.309 363.855 647.066C364.074 646.824 364.395 646.703 364.816 646.703C365.238 646.703 365.559 646.824 365.777 647.066C365.996 647.309 366.105 647.605 366.105 647.957C366.105 648.309 365.996 648.602 365.777 648.836C365.559 649.07 365.238 649.188 364.816 649.188C364.395 649.188 364.074 649.07 363.855 648.836C363.645 648.602 363.539 648.309 363.539 647.957ZM376.746 660.637C376.746 660.051 376.523 659.598 376.078 659.277C375.641 658.949 374.871 658.668 373.77 658.434C372.676 658.199 371.805 657.918 371.156 657.59C370.516 657.262 370.039 656.871 369.727 656.418C369.422 655.965 369.27 655.426 369.27 654.801C369.27 653.762 369.707 652.883 370.582 652.164C371.465 651.445 372.59 651.086 373.957 651.086C375.395 651.086 376.559 651.457 377.449 652.199C378.348 652.941 378.797 653.891 378.797 655.047H376.617C376.617 654.453 376.363 653.941 375.855 653.512C375.355 653.082 374.723 652.867 373.957 652.867C373.168 652.867 372.551 653.039 372.105 653.383C371.66 653.727 371.438 654.176 371.438 654.73C371.438 655.254 371.645 655.648 372.059 655.914C372.473 656.18 373.219 656.434 374.297 656.676C375.383 656.918 376.262 657.207 376.934 657.543C377.605 657.879 378.102 658.285 378.422 658.762C378.75 659.23 378.914 659.805 378.914 660.484C378.914 661.617 378.461 662.527 377.555 663.215C376.648 663.895 375.473 664.234 374.027 664.234C373.012 664.234 372.113 664.055 371.332 663.695C370.551 663.336 369.938 662.836 369.492 662.195C369.055 661.547 368.836 660.848 368.836 660.098H371.004C371.043 660.824 371.332 661.402 371.871 661.832C372.418 662.254 373.137 662.465 374.027 662.465C374.848 662.465 375.504 662.301 375.996 661.973C376.496 661.637 376.746 661.191 376.746 660.637ZM384.68 648.25V651.32H387.047V652.996H384.68V660.859C384.68 661.367 384.785 661.75 384.996 662.008C385.207 662.258 385.566 662.383 386.074 662.383C386.324 662.383 386.668 662.336 387.105 662.242V664C386.535 664.156 385.98 664.234 385.441 664.234C384.473 664.234 383.742 663.941 383.25 663.355C382.758 662.77 382.512 661.938 382.512 660.859V652.996H380.203V651.32H382.512V648.25H384.68Z" fill="black"/>
<rect x="270.5" y="54.5" width="195" height="151" fill="#27AE60" stroke="black"/>
<path d="M298.098 116.465H290.938V124H288.688V106.938H299.258V108.789H290.938V114.625H298.098V116.465ZM300.781 117.543C300.781 116.301 301.023 115.184 301.508 114.191C302 113.199 302.68 112.434 303.547 111.895C304.422 111.355 305.418 111.086 306.535 111.086C308.262 111.086 309.656 111.684 310.719 112.879C311.789 114.074 312.324 115.664 312.324 117.648V117.801C312.324 119.035 312.086 120.145 311.609 121.129C311.141 122.105 310.465 122.867 309.582 123.414C308.707 123.961 307.699 124.234 306.559 124.234C304.84 124.234 303.445 123.637 302.375 122.441C301.312 121.246 300.781 119.664 300.781 117.695V117.543ZM302.961 117.801C302.961 119.207 303.285 120.336 303.934 121.188C304.59 122.039 305.465 122.465 306.559 122.465C307.66 122.465 308.535 122.035 309.184 121.176C309.832 120.309 310.156 119.098 310.156 117.543C310.156 116.152 309.824 115.027 309.16 114.168C308.504 113.301 307.629 112.867 306.535 112.867C305.465 112.867 304.602 113.293 303.945 114.145C303.289 114.996 302.961 116.215 302.961 117.801ZM321.172 113.266C320.844 113.211 320.488 113.184 320.105 113.184C318.684 113.184 317.719 113.789 317.211 115V124H315.043V111.32H317.152L317.188 112.785C317.898 111.652 318.906 111.086 320.211 111.086C320.633 111.086 320.953 111.141 321.172 111.25V113.266ZM334.391 124.234C332.672 124.234 331.273 123.672 330.195 122.547C329.117 121.414 328.578 119.902 328.578 118.012V117.613C328.578 116.355 328.816 115.234 329.293 114.25C329.777 113.258 330.449 112.484 331.309 111.93C332.176 111.367 333.113 111.086 334.121 111.086C335.77 111.086 337.051 111.629 337.965 112.715C338.879 113.801 339.336 115.355 339.336 117.379V118.281H330.746C330.777 119.531 331.141 120.543 331.836 121.316C332.539 122.082 333.43 122.465 334.508 122.465C335.273 122.465 335.922 122.309 336.453 121.996C336.984 121.684 337.449 121.27 337.848 120.754L339.172 121.785C338.109 123.418 336.516 124.234 334.391 124.234ZM334.121 112.867C333.246 112.867 332.512 113.188 331.918 113.828C331.324 114.461 330.957 115.352 330.816 116.5H337.168V116.336C337.105 115.234 336.809 114.383 336.277 113.781C335.746 113.172 335.027 112.867 334.121 112.867ZM349.684 124C349.559 123.75 349.457 123.305 349.379 122.664C348.371 123.711 347.168 124.234 345.77 124.234C344.52 124.234 343.492 123.883 342.688 123.18C341.891 122.469 341.492 121.57 341.492 120.484C341.492 119.164 341.992 118.141 342.992 117.414C344 116.68 345.414 116.312 347.234 116.312H349.344V115.316C349.344 114.559 349.117 113.957 348.664 113.512C348.211 113.059 347.543 112.832 346.66 112.832C345.887 112.832 345.238 113.027 344.715 113.418C344.191 113.809 343.93 114.281 343.93 114.836H341.75C341.75 114.203 341.973 113.594 342.418 113.008C342.871 112.414 343.48 111.945 344.246 111.602C345.02 111.258 345.867 111.086 346.789 111.086C348.25 111.086 349.395 111.453 350.223 112.188C351.051 112.914 351.48 113.918 351.512 115.199V121.035C351.512 122.199 351.66 123.125 351.957 123.812V124H349.684ZM346.086 122.348C346.766 122.348 347.41 122.172 348.02 121.82C348.629 121.469 349.07 121.012 349.344 120.449V117.848H347.645C344.988 117.848 343.66 118.625 343.66 120.18C343.66 120.859 343.887 121.391 344.34 121.773C344.793 122.156 345.375 122.348 346.086 122.348ZM359.996 122.465C360.77 122.465 361.445 122.23 362.023 121.762C362.602 121.293 362.922 120.707 362.984 120.004H365.035C364.996 120.73 364.746 121.422 364.285 122.078C363.824 122.734 363.207 123.258 362.434 123.648C361.668 124.039 360.855 124.234 359.996 124.234C358.27 124.234 356.895 123.66 355.871 122.512C354.855 121.355 354.348 119.777 354.348 117.777V117.414C354.348 116.18 354.574 115.082 355.027 114.121C355.48 113.16 356.129 112.414 356.973 111.883C357.824 111.352 358.828 111.086 359.984 111.086C361.406 111.086 362.586 111.512 363.523 112.363C364.469 113.215 364.973 114.32 365.035 115.68H362.984C362.922 114.859 362.609 114.188 362.047 113.664C361.492 113.133 360.805 112.867 359.984 112.867C358.883 112.867 358.027 113.266 357.418 114.062C356.816 114.852 356.516 115.996 356.516 117.496V117.906C356.516 119.367 356.816 120.492 357.418 121.281C358.02 122.07 358.879 122.465 359.996 122.465ZM369.641 112.855C370.602 111.676 371.852 111.086 373.391 111.086C376.07 111.086 377.422 112.598 377.445 115.621V124H375.277V115.609C375.27 114.695 375.059 114.02 374.645 113.582C374.238 113.145 373.602 112.926 372.734 112.926C372.031 112.926 371.414 113.113 370.883 113.488C370.352 113.863 369.938 114.355 369.641 114.965V124H367.473V106H369.641V112.855ZM394.473 124C394.348 123.75 394.246 123.305 394.168 122.664C393.16 123.711 391.957 124.234 390.559 124.234C389.309 124.234 388.281 123.883 387.477 123.18C386.68 122.469 386.281 121.57 386.281 120.484C386.281 119.164 386.781 118.141 387.781 117.414C388.789 116.68 390.203 116.312 392.023 116.312H394.133V115.316C394.133 114.559 393.906 113.957 393.453 113.512C393 113.059 392.332 112.832 391.449 112.832C390.676 112.832 390.027 113.027 389.504 113.418C388.98 113.809 388.719 114.281 388.719 114.836H386.539C386.539 114.203 386.762 113.594 387.207 113.008C387.66 112.414 388.27 111.945 389.035 111.602C389.809 111.258 390.656 111.086 391.578 111.086C393.039 111.086 394.184 111.453 395.012 112.188C395.84 112.914 396.27 113.918 396.301 115.199V121.035C396.301 122.199 396.449 123.125 396.746 123.812V124H394.473ZM390.875 122.348C391.555 122.348 392.199 122.172 392.809 121.82C393.418 121.469 393.859 121.012 394.133 120.449V117.848H392.434C389.777 117.848 388.449 118.625 388.449 120.18C388.449 120.859 388.676 121.391 389.129 121.773C389.582 122.156 390.164 122.348 390.875 122.348ZM399.184 117.555C399.184 115.578 399.641 114.008 400.555 112.844C401.469 111.672 402.68 111.086 404.188 111.086C405.734 111.086 406.941 111.633 407.809 112.727L407.914 111.32H409.895V123.695C409.895 125.336 409.406 126.629 408.43 127.574C407.461 128.52 406.156 128.992 404.516 128.992C403.602 128.992 402.707 128.797 401.832 128.406C400.957 128.016 400.289 127.48 399.828 126.801L400.953 125.5C401.883 126.648 403.02 127.223 404.363 127.223C405.418 127.223 406.238 126.926 406.824 126.332C407.418 125.738 407.715 124.902 407.715 123.824V122.734C406.848 123.734 405.664 124.234 404.164 124.234C402.68 124.234 401.477 123.637 400.555 122.441C399.641 121.246 399.184 119.617 399.184 117.555ZM401.363 117.801C401.363 119.23 401.656 120.355 402.242 121.176C402.828 121.988 403.648 122.395 404.703 122.395C406.07 122.395 407.074 121.773 407.715 120.531V114.742C407.051 113.531 406.055 112.926 404.727 112.926C403.672 112.926 402.848 113.336 402.254 114.156C401.66 114.977 401.363 116.191 401.363 117.801ZM418.438 124.234C416.719 124.234 415.32 123.672 414.242 122.547C413.164 121.414 412.625 119.902 412.625 118.012V117.613C412.625 116.355 412.863 115.234 413.34 114.25C413.824 113.258 414.496 112.484 415.355 111.93C416.223 111.367 417.16 111.086 418.168 111.086C419.816 111.086 421.098 111.629 422.012 112.715C422.926 113.801 423.383 115.355 423.383 117.379V118.281H414.793C414.824 119.531 415.188 120.543 415.883 121.316C416.586 122.082 417.477 122.465 418.555 122.465C419.32 122.465 419.969 122.309 420.5 121.996C421.031 121.684 421.496 121.27 421.895 120.754L423.219 121.785C422.156 123.418 420.562 124.234 418.438 124.234ZM418.168 112.867C417.293 112.867 416.559 113.188 415.965 113.828C415.371 114.461 415.004 115.352 414.863 116.5H421.215V116.336C421.152 115.234 420.855 114.383 420.324 113.781C419.793 113.172 419.074 112.867 418.168 112.867ZM434.211 124H432.043V111.32H434.211V124ZM431.867 107.957C431.867 107.605 431.973 107.309 432.184 107.066C432.402 106.824 432.723 106.703 433.145 106.703C433.566 106.703 433.887 106.824 434.105 107.066C434.324 107.309 434.434 107.605 434.434 107.957C434.434 108.309 434.324 108.602 434.105 108.836C433.887 109.07 433.566 109.188 433.145 109.188C432.723 109.188 432.402 109.07 432.184 108.836C431.973 108.602 431.867 108.309 431.867 107.957ZM439.742 111.32L439.812 112.914C440.781 111.695 442.047 111.086 443.609 111.086C446.289 111.086 447.641 112.598 447.664 115.621V124H445.496V115.609C445.488 114.695 445.277 114.02 444.863 113.582C444.457 113.145 443.82 112.926 442.953 112.926C442.25 112.926 441.633 113.113 441.102 113.488C440.57 113.863 440.156 114.355 439.859 114.965V124H437.691V111.32H439.742ZM305 136.25V139.32H307.367V140.996H305V148.859C305 149.367 305.105 149.75 305.316 150.008C305.527 150.258 305.887 150.383 306.395 150.383C306.645 150.383 306.988 150.336 307.426 150.242V152C306.855 152.156 306.301 152.234 305.762 152.234C304.793 152.234 304.062 151.941 303.57 151.355C303.078 150.77 302.832 149.938 302.832 148.859V140.996H300.523V139.32H302.832V136.25H305ZM312.078 140.855C313.039 139.676 314.289 139.086 315.828 139.086C318.508 139.086 319.859 140.598 319.883 143.621V152H317.715V143.609C317.707 142.695 317.496 142.02 317.082 141.582C316.676 141.145 316.039 140.926 315.172 140.926C314.469 140.926 313.852 141.113 313.32 141.488C312.789 141.863 312.375 142.355 312.078 142.965V152H309.91V134H312.078V140.855ZM328.391 152.234C326.672 152.234 325.273 151.672 324.195 150.547C323.117 149.414 322.578 147.902 322.578 146.012V145.613C322.578 144.355 322.816 143.234 323.293 142.25C323.777 141.258 324.449 140.484 325.309 139.93C326.176 139.367 327.113 139.086 328.121 139.086C329.77 139.086 331.051 139.629 331.965 140.715C332.879 141.801 333.336 143.355 333.336 145.379V146.281H324.746C324.777 147.531 325.141 148.543 325.836 149.316C326.539 150.082 327.43 150.465 328.508 150.465C329.273 150.465 329.922 150.309 330.453 149.996C330.984 149.684 331.449 149.27 331.848 148.754L333.172 149.785C332.109 151.418 330.516 152.234 328.391 152.234ZM328.121 140.867C327.246 140.867 326.512 141.188 325.918 141.828C325.324 142.461 324.957 143.352 324.816 144.5H331.168V144.336C331.105 143.234 330.809 142.383 330.277 141.781C329.746 141.172 329.027 140.867 328.121 140.867ZM342.112 148.976C342.112 148.32 342.264 147.752 342.568 147.272C342.888 146.776 343.384 146.352 344.056 146C344.744 145.648 345.624 145.36 346.696 145.136C347.768 144.912 349.056 144.736 350.56 144.608C350.544 144.208 350.48 143.832 350.368 143.48C350.256 143.128 350.08 142.824 349.84 142.568C349.6 142.296 349.28 142.08 348.88 141.92C348.496 141.76 348.024 141.68 347.464 141.68C346.696 141.68 345.96 141.832 345.256 142.136C344.552 142.424 343.928 142.736 343.384 143.072L342.616 141.728C342.904 141.536 343.24 141.344 343.624 141.152C344.024 140.944 344.44 140.76 344.872 140.6C345.32 140.44 345.792 140.312 346.288 140.216C346.784 140.104 347.288 140.048 347.8 140.048C349.4 140.048 350.584 140.488 351.352 141.368C352.136 142.232 352.528 143.392 352.528 144.848V152H350.92L350.752 150.416H350.68C350.024 150.928 349.296 151.368 348.496 151.736C347.712 152.104 346.904 152.288 346.072 152.288C345.528 152.288 345.016 152.208 344.536 152.048C344.056 151.904 343.632 151.696 343.264 151.424C342.912 151.136 342.632 150.792 342.424 150.392C342.216 149.976 342.112 149.504 342.112 148.976ZM344.032 148.832C344.032 149.168 344.104 149.456 344.248 149.696C344.392 149.92 344.576 150.112 344.8 150.272C345.04 150.416 345.312 150.528 345.616 150.608C345.936 150.672 346.264 150.704 346.6 150.704C347.272 150.704 347.928 150.56 348.568 150.272C349.224 149.968 349.888 149.536 350.56 148.976V145.904C349.312 146 348.264 146.136 347.416 146.312C346.584 146.488 345.912 146.704 345.4 146.96C344.904 147.2 344.552 147.48 344.344 147.8C344.136 148.104 344.032 148.448 344.032 148.832ZM357.991 153.944C357.991 154.552 358.311 155.048 358.951 155.432C359.607 155.816 360.559 156.008 361.807 156.008C362.479 156.008 363.087 155.936 363.631 155.792C364.175 155.664 364.639 155.488 365.023 155.264C365.407 155.04 365.695 154.784 365.887 154.496C366.095 154.208 366.199 153.912 366.199 153.608C366.199 153.048 365.975 152.672 365.527 152.48C365.095 152.288 364.431 152.192 363.535 152.192H361.255C360.919 152.192 360.599 152.176 360.295 152.144C360.007 152.128 359.735 152.08 359.479 152C358.919 152.304 358.527 152.616 358.303 152.936C358.095 153.272 357.991 153.608 357.991 153.944ZM356.287 154.136C356.287 153.672 356.447 153.216 356.767 152.768C357.103 152.32 357.583 151.912 358.207 151.544V151.448C357.887 151.272 357.607 151.032 357.367 150.728C357.127 150.424 357.007 150.024 357.007 149.528C357.007 149.16 357.127 148.784 357.367 148.4C357.607 148 357.951 147.648 358.399 147.344V147.248C357.999 146.944 357.655 146.544 357.367 146.048C357.095 145.536 356.959 144.928 356.959 144.224C356.959 143.584 357.079 143.008 357.319 142.496C357.575 141.984 357.911 141.552 358.327 141.2C358.743 140.832 359.223 140.552 359.767 140.36C360.327 140.152 360.919 140.048 361.543 140.048C362.183 140.048 362.759 140.144 363.271 140.336H368.095V141.848H364.975C365.247 142.136 365.495 142.488 365.719 142.904C365.943 143.32 366.055 143.784 366.055 144.296C366.055 144.92 365.935 145.48 365.695 145.976C365.471 146.472 365.151 146.896 364.735 147.248C364.335 147.584 363.855 147.848 363.295 148.04C362.751 148.216 362.167 148.304 361.543 148.304C361.239 148.304 360.911 148.272 360.559 148.208C360.223 148.128 359.895 148.016 359.575 147.872C358.967 148.256 358.663 148.704 358.663 149.216C358.663 149.68 358.871 150.024 359.287 150.248C359.719 150.456 360.319 150.56 361.087 150.56H363.703C365.207 150.56 366.319 150.768 367.039 151.184C367.775 151.6 368.143 152.304 368.143 153.296C368.143 153.84 367.991 154.36 367.687 154.856C367.383 155.352 366.951 155.784 366.391 156.152C365.831 156.52 365.151 156.816 364.351 157.04C363.551 157.264 362.655 157.376 361.663 157.376C359.951 157.376 358.623 157.096 357.679 156.536C356.751 155.976 356.287 155.176 356.287 154.136ZM361.543 146.984C362.295 146.984 362.927 146.736 363.439 146.24C363.967 145.744 364.231 145.072 364.231 144.224C364.231 143.824 364.159 143.456 364.015 143.12C363.871 142.784 363.679 142.496 363.439 142.256C363.199 142.016 362.911 141.832 362.575 141.704C362.255 141.56 361.911 141.488 361.543 141.488C361.175 141.488 360.823 141.56 360.487 141.704C360.167 141.832 359.887 142.016 359.647 142.256C359.407 142.496 359.215 142.784 359.071 143.12C358.927 143.456 358.855 143.824 358.855 144.224C358.855 145.072 359.119 145.744 359.647 146.24C360.175 146.736 360.807 146.984 361.543 146.984ZM370.605 146.192C370.605 145.232 370.773 144.376 371.109 143.624C371.445 142.856 371.885 142.208 372.429 141.68C372.989 141.152 373.621 140.752 374.325 140.48C375.045 140.192 375.781 140.048 376.533 140.048C377.365 140.048 378.109 140.184 378.765 140.456C379.421 140.712 379.973 141.08 380.421 141.56C380.885 142.04 381.237 142.616 381.477 143.288C381.717 143.96 381.837 144.704 381.837 145.52C381.837 145.728 381.829 145.936 381.813 146.144C381.813 146.336 381.797 146.504 381.765 146.648H372.645C372.661 147.272 372.781 147.832 373.005 148.328C373.245 148.824 373.557 149.248 373.941 149.6C374.341 149.952 374.805 150.224 375.333 150.416C375.877 150.608 376.469 150.704 377.109 150.704C377.797 150.704 378.421 150.608 378.981 150.416C379.557 150.224 380.117 149.96 380.661 149.624L381.357 150.92C380.781 151.288 380.125 151.608 379.389 151.88C378.653 152.152 377.813 152.288 376.869 152.288C376.005 152.288 375.189 152.152 374.421 151.88C373.669 151.592 373.005 151.192 372.429 150.68C371.869 150.152 371.421 149.512 371.085 148.76C370.765 148.008 370.605 147.152 370.605 146.192ZM380.013 145.232C380.013 144.064 379.709 143.168 379.101 142.544C378.493 141.92 377.645 141.608 376.557 141.608C376.077 141.608 375.613 141.688 375.165 141.848C374.733 142.008 374.341 142.248 373.989 142.568C373.637 142.872 373.341 143.248 373.101 143.696C372.861 144.144 372.701 144.656 372.621 145.232H380.013ZM386.028 149.168C386.684 149.648 387.388 150.032 388.14 150.32C388.892 150.608 389.796 150.752 390.852 150.752C391.908 150.752 392.692 150.576 393.204 150.224C393.716 149.872 393.972 149.44 393.972 148.928C393.972 148.48 393.692 148.08 393.132 147.728C392.588 147.376 391.604 147.024 390.18 146.672C389.572 146.528 388.996 146.352 388.452 146.144C387.924 145.936 387.46 145.696 387.06 145.424C386.66 145.136 386.34 144.824 386.1 144.488C385.86 144.152 385.74 143.776 385.74 143.36C385.74 142.896 385.844 142.464 386.052 142.064C386.26 141.648 386.564 141.296 386.964 141.008C387.38 140.704 387.892 140.472 388.5 140.312C389.124 140.136 389.836 140.048 390.636 140.048C391.516 140.048 392.372 140.2 393.204 140.504C394.036 140.792 394.74 141.136 395.316 141.536L394.356 142.808C393.844 142.44 393.276 142.144 392.652 141.92C392.028 141.696 391.356 141.584 390.636 141.584C390.092 141.584 389.636 141.632 389.268 141.728C388.9 141.808 388.604 141.928 388.38 142.088C388.156 142.232 387.996 142.408 387.9 142.616C387.804 142.824 387.756 143.04 387.756 143.264C387.756 143.744 388.084 144.144 388.74 144.464C389.396 144.768 390.252 145.056 391.308 145.328C392.892 145.728 394.06 146.184 394.812 146.696C395.58 147.208 395.964 147.912 395.964 148.808C395.964 149.288 395.852 149.736 395.628 150.152C395.404 150.568 395.068 150.936 394.62 151.256C394.188 151.576 393.644 151.824 392.988 152C392.348 152.192 391.612 152.288 390.78 152.288C389.628 152.288 388.564 152.112 387.588 151.76C386.628 151.392 385.788 150.96 385.068 150.464L386.028 149.168ZM407.68 152H405.512V134H407.68V152ZM413.516 152H411.348V139.32H413.516V152ZM411.172 135.957C411.172 135.605 411.277 135.309 411.488 135.066C411.707 134.824 412.027 134.703 412.449 134.703C412.871 134.703 413.191 134.824 413.41 135.066C413.629 135.309 413.738 135.605 413.738 135.957C413.738 136.309 413.629 136.602 413.41 136.836C413.191 137.07 412.871 137.188 412.449 137.188C412.027 137.188 411.707 137.07 411.488 136.836C411.277 136.602 411.172 136.309 411.172 135.957ZM424.379 148.637C424.379 148.051 424.156 147.598 423.711 147.277C423.273 146.949 422.504 146.668 421.402 146.434C420.309 146.199 419.438 145.918 418.789 145.59C418.148 145.262 417.672 144.871 417.359 144.418C417.055 143.965 416.902 143.426 416.902 142.801C416.902 141.762 417.34 140.883 418.215 140.164C419.098 139.445 420.223 139.086 421.59 139.086C423.027 139.086 424.191 139.457 425.082 140.199C425.98 140.941 426.43 141.891 426.43 143.047H424.25C424.25 142.453 423.996 141.941 423.488 141.512C422.988 141.082 422.355 140.867 421.59 140.867C420.801 140.867 420.184 141.039 419.738 141.383C419.293 141.727 419.07 142.176 419.07 142.73C419.07 143.254 419.277 143.648 419.691 143.914C420.105 144.18 420.852 144.434 421.93 144.676C423.016 144.918 423.895 145.207 424.566 145.543C425.238 145.879 425.734 146.285 426.055 146.762C426.383 147.23 426.547 147.805 426.547 148.484C426.547 149.617 426.094 150.527 425.188 151.215C424.281 151.895 423.105 152.234 421.66 152.234C420.645 152.234 419.746 152.055 418.965 151.695C418.184 151.336 417.57 150.836 417.125 150.195C416.688 149.547 416.469 148.848 416.469 148.098H418.637C418.676 148.824 418.965 149.402 419.504 149.832C420.051 150.254 420.77 150.465 421.66 150.465C422.48 150.465 423.137 150.301 423.629 149.973C424.129 149.637 424.379 149.191 424.379 148.637ZM432.312 136.25V139.32H434.68V140.996H432.312V148.859C432.312 149.367 432.418 149.75 432.629 150.008C432.84 150.258 433.199 150.383 433.707 150.383C433.957 150.383 434.301 150.336 434.738 150.242V152C434.168 152.156 433.613 152.234 433.074 152.234C432.105 152.234 431.375 151.941 430.883 151.355C430.391 150.77 430.145 149.938 430.145 148.859V140.996H427.836V139.32H430.145V136.25H432.312Z" fill="black"/>
<rect x="712.506" y="26.7071" width="149.163" height="150.022" transform="rotate(45 712.506 26.7071)" fill="#E69F00" stroke="black"/>
<path d="M666.457 120H664.207V102.938H666.457V120ZM677.625 116.637C677.625 116.051 677.402 115.598 676.957 115.277C676.52 114.949 675.75 114.668 674.648 114.434C673.555 114.199 672.684 113.918 672.035 113.59C671.395 113.262 670.918 112.871 670.605 112.418C670.301 111.965 670.148 111.426 670.148 110.801C670.148 109.762 670.586 108.883 671.461 108.164C672.344 107.445 673.469 107.086 674.836 107.086C676.273 107.086 677.438 107.457 678.328 108.199C679.227 108.941 679.676 109.891 679.676 111.047H677.496C677.496 110.453 677.242 109.941 676.734 109.512C676.234 109.082 675.602 108.867 674.836 108.867C674.047 108.867 673.43 109.039 672.984 109.383C672.539 109.727 672.316 110.176 672.316 110.73C672.316 111.254 672.523 111.648 672.938 111.914C673.352 112.18 674.098 112.434 675.176 112.676C676.262 112.918 677.141 113.207 677.812 113.543C678.484 113.879 678.98 114.285 679.301 114.762C679.629 115.23 679.793 115.805 679.793 116.484C679.793 117.617 679.34 118.527 678.434 119.215C677.527 119.895 676.352 120.234 674.906 120.234C673.891 120.234 672.992 120.055 672.211 119.695C671.43 119.336 670.816 118.836 670.371 118.195C669.934 117.547 669.715 116.848 669.715 116.098H671.883C671.922 116.824 672.211 117.402 672.75 117.832C673.297 118.254 674.016 118.465 674.906 118.465C675.727 118.465 676.383 118.301 676.875 117.973C677.375 117.637 677.625 117.191 677.625 116.637ZM691.512 104.25V107.32H693.879V108.996H691.512V116.859C691.512 117.367 691.617 117.75 691.828 118.008C692.039 118.258 692.398 118.383 692.906 118.383C693.156 118.383 693.5 118.336 693.938 118.242V120C693.367 120.156 692.812 120.234 692.273 120.234C691.305 120.234 690.574 119.941 690.082 119.355C689.59 118.77 689.344 117.938 689.344 116.859V108.996H687.035V107.32H689.344V104.25H691.512ZM698.59 108.855C699.551 107.676 700.801 107.086 702.34 107.086C705.02 107.086 706.371 108.598 706.395 111.621V120H704.227V111.609C704.219 110.695 704.008 110.02 703.594 109.582C703.188 109.145 702.551 108.926 701.684 108.926C700.98 108.926 700.363 109.113 699.832 109.488C699.301 109.863 698.887 110.355 698.59 110.965V120H696.422V102H698.59V108.855ZM714.902 120.234C713.184 120.234 711.785 119.672 710.707 118.547C709.629 117.414 709.09 115.902 709.09 114.012V113.613C709.09 112.355 709.328 111.234 709.805 110.25C710.289 109.258 710.961 108.484 711.82 107.93C712.688 107.367 713.625 107.086 714.633 107.086C716.281 107.086 717.562 107.629 718.477 108.715C719.391 109.801 719.848 111.355 719.848 113.379V114.281H711.258C711.289 115.531 711.652 116.543 712.348 117.316C713.051 118.082 713.941 118.465 715.02 118.465C715.785 118.465 716.434 118.309 716.965 117.996C717.496 117.684 717.961 117.27 718.359 116.754L719.684 117.785C718.621 119.418 717.027 120.234 714.902 120.234ZM714.633 108.867C713.758 108.867 713.023 109.188 712.43 109.828C711.836 110.461 711.469 111.352 711.328 112.5H717.68V112.336C717.617 111.234 717.32 110.383 716.789 109.781C716.258 109.172 715.539 108.867 714.633 108.867ZM736.148 120C736.023 119.75 735.922 119.305 735.844 118.664C734.836 119.711 733.633 120.234 732.234 120.234C730.984 120.234 729.957 119.883 729.152 119.18C728.355 118.469 727.957 117.57 727.957 116.484C727.957 115.164 728.457 114.141 729.457 113.414C730.465 112.68 731.879 112.312 733.699 112.312H735.809V111.316C735.809 110.559 735.582 109.957 735.129 109.512C734.676 109.059 734.008 108.832 733.125 108.832C732.352 108.832 731.703 109.027 731.18 109.418C730.656 109.809 730.395 110.281 730.395 110.836H728.215C728.215 110.203 728.438 109.594 728.883 109.008C729.336 108.414 729.945 107.945 730.711 107.602C731.484 107.258 732.332 107.086 733.254 107.086C734.715 107.086 735.859 107.453 736.688 108.188C737.516 108.914 737.945 109.918 737.977 111.199V117.035C737.977 118.199 738.125 119.125 738.422 119.812V120H736.148ZM732.551 118.348C733.23 118.348 733.875 118.172 734.484 117.82C735.094 117.469 735.535 117.012 735.809 116.449V113.848H734.109C731.453 113.848 730.125 114.625 730.125 116.18C730.125 116.859 730.352 117.391 730.805 117.773C731.258 118.156 731.84 118.348 732.551 118.348ZM740.859 113.555C740.859 111.578 741.316 110.008 742.23 108.844C743.145 107.672 744.355 107.086 745.863 107.086C747.41 107.086 748.617 107.633 749.484 108.727L749.59 107.32H751.57V119.695C751.57 121.336 751.082 122.629 750.105 123.574C749.137 124.52 747.832 124.992 746.191 124.992C745.277 124.992 744.383 124.797 743.508 124.406C742.633 124.016 741.965 123.48 741.504 122.801L742.629 121.5C743.559 122.648 744.695 123.223 746.039 123.223C747.094 123.223 747.914 122.926 748.5 122.332C749.094 121.738 749.391 120.902 749.391 119.824V118.734C748.523 119.734 747.34 120.234 745.84 120.234C744.355 120.234 743.152 119.637 742.23 118.441C741.316 117.246 740.859 115.617 740.859 113.555ZM743.039 113.801C743.039 115.23 743.332 116.355 743.918 117.176C744.504 117.988 745.324 118.395 746.379 118.395C747.746 118.395 748.75 117.773 749.391 116.531V110.742C748.727 109.531 747.73 108.926 746.402 108.926C745.348 108.926 744.523 109.336 743.93 110.156C743.336 110.977 743.039 112.191 743.039 113.801ZM760.113 120.234C758.395 120.234 756.996 119.672 755.918 118.547C754.84 117.414 754.301 115.902 754.301 114.012V113.613C754.301 112.355 754.539 111.234 755.016 110.25C755.5 109.258 756.172 108.484 757.031 107.93C757.898 107.367 758.836 107.086 759.844 107.086C761.492 107.086 762.773 107.629 763.688 108.715C764.602 109.801 765.059 111.355 765.059 113.379V114.281H756.469C756.5 115.531 756.863 116.543 757.559 117.316C758.262 118.082 759.152 118.465 760.23 118.465C760.996 118.465 761.645 118.309 762.176 117.996C762.707 117.684 763.172 117.27 763.57 116.754L764.895 117.785C763.832 119.418 762.238 120.234 760.113 120.234ZM759.844 108.867C758.969 108.867 758.234 109.188 757.641 109.828C757.047 110.461 756.68 111.352 756.539 112.5H762.891V112.336C762.828 111.234 762.531 110.383 762 109.781C761.469 109.172 760.75 108.867 759.844 108.867ZM650.531 141.555C650.531 139.578 650.988 138.008 651.902 136.844C652.816 135.672 654.027 135.086 655.535 135.086C657.082 135.086 658.289 135.633 659.156 136.727L659.262 135.32H661.242V147.695C661.242 149.336 660.754 150.629 659.777 151.574C658.809 152.52 657.504 152.992 655.863 152.992C654.949 152.992 654.055 152.797 653.18 152.406C652.305 152.016 651.637 151.48 651.176 150.801L652.301 149.5C653.23 150.648 654.367 151.223 655.711 151.223C656.766 151.223 657.586 150.926 658.172 150.332C658.766 149.738 659.062 148.902 659.062 147.824V146.734C658.195 147.734 657.012 148.234 655.512 148.234C654.027 148.234 652.824 147.637 651.902 146.441C650.988 145.246 650.531 143.617 650.531 141.555ZM652.711 141.801C652.711 143.23 653.004 144.355 653.59 145.176C654.176 145.988 654.996 146.395 656.051 146.395C657.418 146.395 658.422 145.773 659.062 144.531V138.742C658.398 137.531 657.402 136.926 656.074 136.926C655.02 136.926 654.195 137.336 653.602 138.156C653.008 138.977 652.711 140.191 652.711 141.801ZM670.652 137.266C670.324 137.211 669.969 137.184 669.586 137.184C668.164 137.184 667.199 137.789 666.691 139V148H664.523V135.32H666.633L666.668 136.785C667.379 135.652 668.387 135.086 669.691 135.086C670.113 135.086 670.434 135.141 670.652 135.25V137.266ZM677.684 148.234C675.965 148.234 674.566 147.672 673.488 146.547C672.41 145.414 671.871 143.902 671.871 142.012V141.613C671.871 140.355 672.109 139.234 672.586 138.25C673.07 137.258 673.742 136.484 674.602 135.93C675.469 135.367 676.406 135.086 677.414 135.086C679.062 135.086 680.344 135.629 681.258 136.715C682.172 137.801 682.629 139.355 682.629 141.379V142.281H674.039C674.07 143.531 674.434 144.543 675.129 145.316C675.832 146.082 676.723 146.465 677.801 146.465C678.566 146.465 679.215 146.309 679.746 145.996C680.277 145.684 680.742 145.27 681.141 144.754L682.465 145.785C681.402 147.418 679.809 148.234 677.684 148.234ZM677.414 136.867C676.539 136.867 675.805 137.188 675.211 137.828C674.617 138.461 674.25 139.352 674.109 140.5H680.461V140.336C680.398 139.234 680.102 138.383 679.57 137.781C679.039 137.172 678.32 136.867 677.414 136.867ZM692.977 148C692.852 147.75 692.75 147.305 692.672 146.664C691.664 147.711 690.461 148.234 689.062 148.234C687.812 148.234 686.785 147.883 685.98 147.18C685.184 146.469 684.785 145.57 684.785 144.484C684.785 143.164 685.285 142.141 686.285 141.414C687.293 140.68 688.707 140.312 690.527 140.312H692.637V139.316C692.637 138.559 692.41 137.957 691.957 137.512C691.504 137.059 690.836 136.832 689.953 136.832C689.18 136.832 688.531 137.027 688.008 137.418C687.484 137.809 687.223 138.281 687.223 138.836H685.043C685.043 138.203 685.266 137.594 685.711 137.008C686.164 136.414 686.773 135.945 687.539 135.602C688.312 135.258 689.16 135.086 690.082 135.086C691.543 135.086 692.688 135.453 693.516 136.188C694.344 136.914 694.773 137.918 694.805 139.199V145.035C694.805 146.199 694.953 147.125 695.25 147.812V148H692.977ZM689.379 146.348C690.059 146.348 690.703 146.172 691.312 145.82C691.922 145.469 692.363 145.012 692.637 144.449V141.848H690.938C688.281 141.848 686.953 142.625 686.953 144.18C686.953 144.859 687.18 145.391 687.633 145.773C688.086 146.156 688.668 146.348 689.379 146.348ZM701.145 132.25V135.32H703.512V136.996H701.145V144.859C701.145 145.367 701.25 145.75 701.461 146.008C701.672 146.258 702.031 146.383 702.539 146.383C702.789 146.383 703.133 146.336 703.57 146.242V148C703 148.156 702.445 148.234 701.906 148.234C700.938 148.234 700.207 147.941 699.715 147.355C699.223 146.77 698.977 145.938 698.977 144.859V136.996H696.668V135.32H698.977V132.25H701.145ZM711.316 148.234C709.598 148.234 708.199 147.672 707.121 146.547C706.043 145.414 705.504 143.902 705.504 142.012V141.613C705.504 140.355 705.742 139.234 706.219 138.25C706.703 137.258 707.375 136.484 708.234 135.93C709.102 135.367 710.039 135.086 711.047 135.086C712.695 135.086 713.977 135.629 714.891 136.715C715.805 137.801 716.262 139.355 716.262 141.379V142.281H707.672C707.703 143.531 708.066 144.543 708.762 145.316C709.465 146.082 710.355 146.465 711.434 146.465C712.199 146.465 712.848 146.309 713.379 145.996C713.91 145.684 714.375 145.27 714.773 144.754L716.098 145.785C715.035 147.418 713.441 148.234 711.316 148.234ZM711.047 136.867C710.172 136.867 709.438 137.188 708.844 137.828C708.25 138.461 707.883 139.352 707.742 140.5H714.094V140.336C714.031 139.234 713.734 138.383 713.203 137.781C712.672 137.172 711.953 136.867 711.047 136.867ZM724.91 137.266C724.582 137.211 724.227 137.184 723.844 137.184C722.422 137.184 721.457 137.789 720.949 139V148H718.781V135.32H720.891L720.926 136.785C721.637 135.652 722.645 135.086 723.949 135.086C724.371 135.086 724.691 135.141 724.91 135.25V137.266ZM735.809 132.25V135.32H738.176V136.996H735.809V144.859C735.809 145.367 735.914 145.75 736.125 146.008C736.336 146.258 736.695 146.383 737.203 146.383C737.453 146.383 737.797 146.336 738.234 146.242V148C737.664 148.156 737.109 148.234 736.57 148.234C735.602 148.234 734.871 147.941 734.379 147.355C733.887 146.77 733.641 145.938 733.641 144.859V136.996H731.332V135.32H733.641V132.25H735.809ZM742.887 136.855C743.848 135.676 745.098 135.086 746.637 135.086C749.316 135.086 750.668 136.598 750.691 139.621V148H748.523V139.609C748.516 138.695 748.305 138.02 747.891 137.582C747.484 137.145 746.848 136.926 745.98 136.926C745.277 136.926 744.66 137.113 744.129 137.488C743.598 137.863 743.184 138.355 742.887 138.965V148H740.719V130H742.887V136.855ZM761.766 148C761.641 147.75 761.539 147.305 761.461 146.664C760.453 147.711 759.25 148.234 757.852 148.234C756.602 148.234 755.574 147.883 754.77 147.18C753.973 146.469 753.574 145.57 753.574 144.484C753.574 143.164 754.074 142.141 755.074 141.414C756.082 140.68 757.496 140.312 759.316 140.312H761.426V139.316C761.426 138.559 761.199 137.957 760.746 137.512C760.293 137.059 759.625 136.832 758.742 136.832C757.969 136.832 757.32 137.027 756.797 137.418C756.273 137.809 756.012 138.281 756.012 138.836H753.832C753.832 138.203 754.055 137.594 754.5 137.008C754.953 136.414 755.562 135.945 756.328 135.602C757.102 135.258 757.949 135.086 758.871 135.086C760.332 135.086 761.477 135.453 762.305 136.188C763.133 136.914 763.562 137.918 763.594 139.199V145.035C763.594 146.199 763.742 147.125 764.039 147.812V148H761.766ZM758.168 146.348C758.848 146.348 759.492 146.172 760.102 145.82C760.711 145.469 761.152 145.012 761.426 144.449V141.848H759.727C757.07 141.848 755.742 142.625 755.742 144.18C755.742 144.859 755.969 145.391 756.422 145.773C756.875 146.156 757.457 146.348 758.168 146.348ZM769.043 135.32L769.113 136.914C770.082 135.695 771.348 135.086 772.91 135.086C775.59 135.086 776.941 136.598 776.965 139.621V148H774.797V139.609C774.789 138.695 774.578 138.02 774.164 137.582C773.758 137.145 773.121 136.926 772.254 136.926C771.551 136.926 770.934 137.113 770.402 137.488C769.871 137.863 769.457 138.355 769.16 138.965V148H766.992V135.32H769.043ZM707.449 176H696.27V174.441L702.176 167.879C703.051 166.887 703.652 166.082 703.98 165.465C704.316 164.84 704.484 164.195 704.484 163.531C704.484 162.641 704.215 161.91 703.676 161.34C703.137 160.77 702.418 160.484 701.52 160.484C700.441 160.484 699.602 160.793 699 161.41C698.406 162.02 698.109 162.871 698.109 163.965H695.941C695.941 162.395 696.445 161.125 697.453 160.156C698.469 159.188 699.824 158.703 701.52 158.703C703.105 158.703 704.359 159.121 705.281 159.957C706.203 160.785 706.664 161.891 706.664 163.273C706.664 164.953 705.594 166.953 703.453 169.273L698.883 174.23H707.449V176ZM720.445 168.723C720.445 171.262 720.012 173.148 719.145 174.383C718.277 175.617 716.922 176.234 715.078 176.234C713.258 176.234 711.91 175.633 711.035 174.43C710.16 173.219 709.707 171.414 709.676 169.016V166.121C709.676 163.613 710.109 161.75 710.977 160.531C711.844 159.312 713.203 158.703 715.055 158.703C716.891 158.703 718.242 159.293 719.109 160.473C719.977 161.645 720.422 163.457 720.445 165.91V168.723ZM718.277 165.758C718.277 163.922 718.02 162.586 717.504 161.75C716.988 160.906 716.172 160.484 715.055 160.484C713.945 160.484 713.137 160.902 712.629 161.738C712.121 162.574 711.859 163.859 711.844 165.594V169.062C711.844 170.906 712.109 172.27 712.641 173.152C713.18 174.027 713.992 174.465 715.078 174.465C716.148 174.465 716.941 174.051 717.457 173.223C717.98 172.395 718.254 171.09 718.277 169.309V165.758ZM725.988 171.195C726.004 170.266 726.109 169.531 726.305 168.992C726.5 168.453 726.898 167.855 727.5 167.199L729.035 165.617C729.691 164.875 730.02 164.078 730.02 163.227C730.02 162.406 729.805 161.766 729.375 161.305C728.945 160.836 728.32 160.602 727.5 160.602C726.703 160.602 726.062 160.812 725.578 161.234C725.094 161.656 724.852 162.223 724.852 162.934H722.684C722.699 161.668 723.148 160.648 724.031 159.875C724.922 159.094 726.078 158.703 727.5 158.703C728.977 158.703 730.125 159.102 730.945 159.898C731.773 160.688 732.188 161.773 732.188 163.156C732.188 164.523 731.555 165.871 730.289 167.199L729.012 168.465C728.441 169.098 728.156 170.008 728.156 171.195H725.988ZM725.895 174.91C725.895 174.559 726 174.266 726.211 174.031C726.43 173.789 726.75 173.668 727.172 173.668C727.594 173.668 727.914 173.789 728.133 174.031C728.352 174.266 728.461 174.559 728.461 174.91C728.461 175.262 728.352 175.555 728.133 175.789C727.914 176.016 727.594 176.129 727.172 176.129C726.75 176.129 726.43 176.016 726.211 175.789C726 175.555 725.895 175.262 725.895 174.91Z" fill="black"/>
<path d="M906.211 107.492L912.012 98.9375H914.637L906.984 109.754L905.895 116H903.703L904.828 109.508L901.02 98.9375H903.41L906.211 107.492ZM918.234 116.234C916.656 116.203 915.422 115.621 914.531 114.488C913.641 113.355 913.266 111.906 913.406 110.141L913.465 109.637C913.598 108.379 913.969 107.23 914.578 106.191C915.195 105.152 915.945 104.371 916.828 103.848C917.711 103.316 918.664 103.062 919.688 103.086C920.992 103.117 922.016 103.551 922.758 104.387C923.5 105.223 923.906 106.355 923.977 107.785C924 108.293 923.984 108.801 923.93 109.309L923.801 110.281H915.516C915.375 111.43 915.562 112.406 916.078 113.211C916.602 114.016 917.379 114.434 918.41 114.465C919.66 114.496 920.816 113.934 921.879 112.777L923.098 113.809C922.566 114.574 921.879 115.176 921.035 115.613C920.199 116.043 919.266 116.25 918.234 116.234ZM919.582 104.855C918.707 104.832 917.941 105.129 917.285 105.746C916.637 106.363 916.121 107.281 915.738 108.5L921.902 108.512L921.949 108.324C922.074 107.34 921.914 106.523 921.469 105.875C921.031 105.219 920.402 104.879 919.582 104.855ZM933.047 112.566C933.164 111.691 932.684 111.074 931.605 110.715L929.402 110.07C927.543 109.43 926.645 108.367 926.707 106.883C926.762 105.766 927.27 104.852 928.23 104.141C929.199 103.422 930.336 103.07 931.641 103.086C932.922 103.102 933.961 103.477 934.758 104.211C935.562 104.938 935.949 105.887 935.918 107.059L933.809 107.047C933.824 106.414 933.625 105.898 933.211 105.5C932.797 105.102 932.246 104.895 931.559 104.879C930.824 104.863 930.191 105.043 929.66 105.418C929.168 105.77 928.883 106.23 928.805 106.801C928.703 107.535 929.152 108.07 930.152 108.406L931.219 108.699C932.672 109.074 933.703 109.562 934.312 110.164C934.922 110.766 935.203 111.512 935.156 112.402C935.109 113.191 934.852 113.879 934.383 114.465C933.914 115.051 933.289 115.5 932.508 115.812C931.727 116.117 930.895 116.258 930.012 116.234C928.668 116.219 927.559 115.828 926.684 115.062C925.809 114.289 925.387 113.297 925.418 112.086L927.539 112.098C927.539 112.809 927.766 113.379 928.219 113.809C928.672 114.238 929.293 114.453 930.082 114.453C930.855 114.469 931.523 114.309 932.086 113.973C932.648 113.629 932.969 113.16 933.047 112.566Z" fill="#333333"/>
<path d="M680.371 290H678.238L672.145 276.758L669.848 290H667.633L670.598 272.938H672.73L678.836 286.238L681.145 272.938H683.336L680.371 290ZM691.059 277.086C692.121 277.102 693.031 277.391 693.789 277.953C694.547 278.516 695.105 279.293 695.465 280.285C695.832 281.27 695.957 282.348 695.84 283.52L695.816 283.777C695.668 285.012 695.301 286.129 694.715 287.129C694.129 288.121 693.371 288.895 692.441 289.449C691.512 290.004 690.492 290.266 689.383 290.234C688.328 290.219 687.418 289.93 686.652 289.367C685.895 288.805 685.34 288.039 684.988 287.07C684.637 286.102 684.512 285.035 684.613 283.871C684.73 282.559 685.086 281.379 685.68 280.332C686.273 279.285 687.035 278.477 687.965 277.906C688.902 277.328 689.934 277.055 691.059 277.086ZM686.746 283.883C686.691 284.375 686.691 284.887 686.746 285.418C686.824 286.34 687.098 287.074 687.566 287.621C688.043 288.168 688.676 288.453 689.465 288.477C690.168 288.5 690.816 288.328 691.41 287.961C692.004 287.586 692.504 287.023 692.91 286.273C693.316 285.523 693.578 284.691 693.695 283.777C693.758 283.059 693.77 282.453 693.73 281.961C693.637 281.016 693.352 280.27 692.875 279.723C692.398 279.176 691.766 278.887 690.977 278.855C689.883 278.832 688.953 279.262 688.188 280.145C687.422 281.027 686.949 282.184 686.77 283.613L686.746 283.883Z" fill="#333333"/>
<path d="M711.879 340.121C713.05 341.293 714.95 341.293 716.121 340.121L735.213 321.029C736.385 319.858 736.385 317.958 735.213 316.787C734.042 315.615 732.142 315.615 730.971 316.787L714 333.757L697.029 316.787C695.858 315.615 693.958 315.615 692.787 316.787C691.615 317.958 691.615 319.858 692.787 321.029L711.879 340.121ZM711 252V338H717V252H711Z" fill="#333333"/>
<path d="M966.311 340.106C965.139 341.289 963.24 341.307 962.068 340.147L942.977 321.238C941.806 320.078 941.806 318.178 942.977 316.996C944.149 315.813 946.048 315.795 947.22 316.955L964.189 333.762L981.159 316.628C982.331 315.446 984.23 315.427 985.402 316.588C986.573 317.748 986.573 319.648 985.402 320.83L966.311 340.106ZM967.189 129.966V337.976L961.189 338.034V130.024L967.189 129.966Z" fill="#333333"/>
<line x1="842" y1="133" x2="966" y2="133" stroke="#333333" stroke-width="3"/>
<path d="M481.879 635.879C480.707 637.05 480.707 638.95 481.879 640.121L500.971 659.213C502.142 660.385 504.042 660.385 505.213 659.213C506.385 658.042 506.385 656.142 505.213 654.971L488.243 638L505.213 621.029C506.385 619.858 506.385 617.958 505.213 616.787C504.042 615.615 502.142 615.615 500.971 616.787L481.879 635.879ZM962 635L484 635V641L962 641V635Z" fill="#333333"/>
<line y1="-1.5" x2="52.0096" y2="-1.5" transform="matrix(0 2 -1.99963 -0.0384544 956 534)" stroke="#333333" stroke-width="3"/>
<path d="M655.774 634.88C654.649 636.051 654.725 637.949 655.944 639.12L675.798 658.196C677.017 659.367 678.916 659.367 680.041 658.196C681.166 657.026 681.09 655.128 679.872 653.957L662.223 637L678.515 620.043C679.64 618.872 679.564 616.974 678.345 615.804C677.127 614.633 675.227 614.633 674.103 615.804L655.774 634.88ZM707.9 634.002H657.86L658.1 639.998H708.14L707.9 634.002Z" fill="#333333"/>
<line y1="-1.5" x2="53" y2="-1.5" transform="matrix(2.48445e-09 2 2 -3.07623e-06 708 530)" stroke="#333333" stroke-width="3"/>
</svg>
