<svg width="932" height="340" viewBox="0 0 932 340" fill="none" xmlns="http://www.w3.org/2000/svg">
<rect width="466" height="170" transform="scale(2)" fill="white"/>
<path d="M438.799 55.2832C440.24 53.5137 442.115 52.6289 444.424 52.6289C448.443 52.6289 450.471 54.8965 450.506 59.4316V72H447.254V59.4141C447.242 58.043 446.926 57.0293 446.305 56.373C445.695 55.7168 444.74 55.3887 443.439 55.3887C442.385 55.3887 441.459 55.6699 440.662 56.2324C439.865 56.7949 439.244 57.5332 438.799 58.4473V72H435.547V45H438.799V55.2832Z" fill="black"/>
<rect x="404" y="20" width="78" height="72" stroke="black"/>
<path d="M520.809 72.3516C518.23 72.3516 516.133 71.5078 514.516 69.8203C512.898 68.1211 512.09 65.8535 512.09 63.0176V62.4199C512.09 60.5332 512.447 58.8516 513.162 57.375C513.889 55.8867 514.896 54.7266 516.186 53.8945C517.486 53.0508 518.893 52.6289 520.404 52.6289C522.877 52.6289 524.799 53.4434 526.17 55.0723C527.541 56.7012 528.227 59.0332 528.227 62.0684V63.4219H515.342C515.389 65.2969 515.934 66.8145 516.977 67.9746C518.031 69.123 519.367 69.6973 520.984 69.6973C522.133 69.6973 523.105 69.4629 523.902 68.9941C524.699 68.5254 525.396 67.9043 525.994 67.1309L527.98 68.6777C526.387 71.127 523.996 72.3516 520.809 72.3516ZM520.404 55.3008C519.092 55.3008 517.99 55.7812 517.1 56.7422C516.209 57.6914 515.658 59.0273 515.447 60.75H524.975V60.5039C524.881 58.8516 524.436 57.5742 523.639 56.6719C522.842 55.7578 521.764 55.3008 520.404 55.3008Z" fill="black"/>
<rect x="482" y="20" width="78" height="72" stroke="black"/>
<path d="M599.617 72H596.365V45H599.617V72Z" fill="black"/>
<rect x="560" y="20" width="76" height="72" stroke="black"/>
<path d="M677.617 72H674.365V45H677.617V72Z" fill="black"/>
<rect x="636" y="20" width="78" height="72" stroke="black"/>
<path d="M744.334 62.3145C744.334 60.4512 744.697 58.7754 745.424 57.2871C746.162 55.7988 747.182 54.6504 748.482 53.8418C749.795 53.0332 751.289 52.6289 752.965 52.6289C755.555 52.6289 757.646 53.5254 759.24 55.3184C760.846 57.1113 761.648 59.4961 761.648 62.4727V62.7012C761.648 64.5527 761.291 66.2168 760.576 67.6934C759.873 69.1582 758.859 70.3008 757.535 71.1211C756.223 71.9414 754.711 72.3516 753 72.3516C750.422 72.3516 748.33 71.4551 746.725 69.6621C745.131 67.8691 744.334 65.4961 744.334 62.543V62.3145ZM747.604 62.7012C747.604 64.8105 748.09 66.5039 749.062 67.7812C750.047 69.0586 751.359 69.6973 753 69.6973C754.652 69.6973 755.965 69.0527 756.938 67.7637C757.91 66.4629 758.396 64.6465 758.396 62.3145C758.396 60.2285 757.898 58.541 756.902 57.252C755.918 55.9512 754.605 55.3008 752.965 55.3008C751.359 55.3008 750.064 55.9395 749.08 57.2168C748.096 58.4941 747.604 60.3223 747.604 62.7012Z" fill="black"/>
<rect x="714" y="20" width="78" height="72" stroke="black"/>
<path d="M126 38H354.167V84H126V38Z" fill="#F1F4F8"/>
<path d="M146.389 69.3468C147.061 69.8108 147.757 70.1788 148.477 70.4508C149.213 70.7068 150.037 70.8348 150.949 70.8348C151.877 70.8348 152.557 70.7068 152.989 70.4508C153.421 70.1788 153.637 69.8348 153.637 69.4188C153.637 69.0028 153.357 68.6588 152.797 68.3868C152.237 68.0988 151.357 67.7948 150.157 67.4748C149.597 67.3308 149.053 67.1548 148.525 66.9468C147.997 66.7388 147.533 66.4988 147.133 66.2268C146.733 65.9548 146.413 65.6428 146.173 65.2908C145.933 64.9388 145.813 64.5388 145.813 64.0908C145.813 63.0508 146.261 62.2028 147.157 61.5468C148.053 60.8908 149.341 60.5628 151.021 60.5628C151.981 60.5628 152.885 60.7228 153.733 61.0428C154.581 61.3628 155.309 61.7228 155.917 62.1228L154.645 63.8268C154.117 63.4748 153.549 63.1948 152.941 62.9868C152.349 62.7628 151.717 62.6508 151.045 62.6508C150.133 62.6508 149.493 62.7788 149.125 63.0348C148.757 63.2748 148.573 63.5788 148.573 63.9468C148.573 64.1548 148.653 64.3468 148.813 64.5228C148.989 64.6828 149.221 64.8348 149.509 64.9788C149.813 65.1068 150.165 65.2348 150.565 65.3628C150.965 65.4908 151.405 65.6108 151.885 65.7228C152.573 65.8988 153.189 66.0988 153.733 66.3228C154.293 66.5308 154.765 66.7708 155.149 67.0428C155.549 67.3148 155.853 67.6348 156.061 68.0028C156.285 68.3708 156.397 68.7948 156.397 69.2748C156.397 69.7868 156.277 70.2668 156.037 70.7148C155.797 71.1468 155.445 71.5308 154.981 71.8668C154.517 72.1868 153.941 72.4428 153.253 72.6348C152.565 72.8268 151.773 72.9228 150.877 72.9228C149.773 72.9228 148.717 72.7468 147.709 72.3948C146.701 72.0428 145.829 71.6108 145.093 71.0988L146.389 69.3468ZM174.259 61.0188H184.915V63.0348H174.259V61.0188ZM174.259 66.3708H184.915V68.3868H174.259V66.3708Z" fill="#2E383C"/>
<path d="M203.808 59.2428L203.736 56.1708H207.096L207.024 59.2428L206.304 64.7868H204.528L203.808 59.2428ZM209.736 59.2428L209.664 56.1708H213.024L212.952 59.2428L212.232 64.7868H210.456L209.736 59.2428ZM217.527 55.6908H220.311V60.0588L220.143 62.5788C220.687 62.0348 221.295 61.5628 221.967 61.1628C222.655 60.7628 223.455 60.5628 224.367 60.5628C225.727 60.5628 226.727 60.9788 227.367 61.8108C228.007 62.6268 228.327 63.8028 228.327 65.3388V72.6348H225.543V65.6988C225.543 64.7388 225.375 64.0428 225.039 63.6108C224.719 63.1628 224.151 62.9388 223.335 62.9388C222.759 62.9388 222.247 63.0748 221.799 63.3468C221.351 63.6188 220.855 64.0348 220.311 64.5948V72.6348H217.527V55.6908ZM231.437 66.7548C231.437 65.7948 231.605 64.9308 231.941 64.1628C232.293 63.3948 232.749 62.7468 233.309 62.2188C233.869 61.6748 234.509 61.2668 235.229 60.9948C235.965 60.7068 236.717 60.5628 237.485 60.5628C238.365 60.5628 239.141 60.7068 239.813 60.9948C240.501 61.2668 241.077 61.6508 241.541 62.1468C242.005 62.6268 242.357 63.2108 242.597 63.8988C242.837 64.5868 242.957 65.3388 242.957 66.1548C242.957 66.4268 242.941 66.6828 242.909 66.9228C242.893 67.1628 242.869 67.3548 242.837 67.4988H234.269C234.365 68.5548 234.781 69.3708 235.517 69.9468C236.253 70.5068 237.157 70.7868 238.229 70.7868C238.837 70.7868 239.405 70.7068 239.933 70.5468C240.461 70.3708 240.997 70.1308 241.541 69.8268L242.477 71.5548C241.837 71.9548 241.125 72.2828 240.341 72.5388C239.557 72.7948 238.733 72.9228 237.869 72.9228C236.973 72.9228 236.133 72.7868 235.349 72.5148C234.565 72.2268 233.885 71.8188 233.309 71.2908C232.733 70.7628 232.277 70.1228 231.941 69.3708C231.605 68.6028 231.437 67.7308 231.437 66.7548ZM240.413 65.6268C240.413 64.7148 240.173 64.0028 239.693 63.4908C239.213 62.9628 238.501 62.6988 237.557 62.6988C236.757 62.6988 236.045 62.9468 235.421 63.4428C234.797 63.9388 234.405 64.6668 234.245 65.6268H240.413ZM246.044 55.6908H252.524V68.4828C252.524 69.2828 252.724 69.8508 253.124 70.1868C253.524 70.5068 254.028 70.6668 254.636 70.6668C255.212 70.6668 255.884 70.5148 256.652 70.2108L257.3 72.2508C256.74 72.4428 256.212 72.6028 255.716 72.7308C255.236 72.8588 254.652 72.9228 253.964 72.9228C252.572 72.9228 251.524 72.5228 250.82 71.7228C250.116 70.9228 249.764 69.7948 249.764 68.3388V57.8748H246.044V55.6908ZM260.434 55.6908H266.914V68.4828C266.914 69.2828 267.114 69.8508 267.514 70.1868C267.914 70.5068 268.418 70.6668 269.026 70.6668C269.602 70.6668 270.274 70.5148 271.042 70.2108L271.69 72.2508C271.13 72.4428 270.602 72.6028 270.106 72.7308C269.626 72.8588 269.042 72.9228 268.354 72.9228C266.962 72.9228 265.914 72.5228 265.21 71.7228C264.506 70.9228 264.154 69.7948 264.154 68.3388V57.8748H260.434V55.6908ZM274.393 66.7548C274.393 65.7788 274.553 64.9068 274.873 64.1388C275.209 63.3708 275.649 62.7228 276.193 62.1948C276.737 61.6668 277.369 61.2668 278.089 60.9948C278.809 60.7068 279.553 60.5628 280.321 60.5628C281.089 60.5628 281.833 60.7068 282.553 60.9948C283.273 61.2668 283.905 61.6668 284.449 62.1948C284.993 62.7228 285.425 63.3708 285.745 64.1388C286.081 64.9068 286.249 65.7788 286.249 66.7548C286.249 67.7308 286.081 68.6028 285.745 69.3708C285.425 70.1388 284.993 70.7868 284.449 71.3148C283.905 71.8428 283.273 72.2428 282.553 72.5148C281.833 72.7868 281.089 72.9228 280.321 72.9228C279.553 72.9228 278.809 72.7868 278.089 72.5148C277.369 72.2428 276.737 71.8428 276.193 71.3148C275.649 70.7868 275.209 70.1388 274.873 69.3708C274.553 68.6028 274.393 67.7308 274.393 66.7548ZM277.249 66.7548C277.249 67.9388 277.521 68.8908 278.065 69.6108C278.609 70.3148 279.361 70.6668 280.321 70.6668C281.281 70.6668 282.033 70.3148 282.577 69.6108C283.121 68.8908 283.393 67.9388 283.393 66.7548C283.393 65.5548 283.121 64.6028 282.577 63.8988C282.033 63.1788 281.281 62.8188 280.321 62.8188C279.361 62.8188 278.609 63.1788 278.065 63.8988C277.521 64.6028 277.249 65.5548 277.249 66.7548ZM290.152 59.2428L290.08 56.1708H293.44L293.368 59.2428L292.648 64.7868H290.872L290.152 59.2428ZM296.08 59.2428L296.008 56.1708H299.368L299.296 59.2428L298.576 64.7868H296.8L296.08 59.2428Z" fill="#B82629"/>
<path d="M438.799 161.283C440.24 159.514 442.115 158.629 444.424 158.629C448.443 158.629 450.471 160.896 450.506 165.432V178H447.254V165.414C447.242 164.043 446.926 163.029 446.305 162.373C445.695 161.717 444.74 161.389 443.439 161.389C442.385 161.389 441.459 161.67 440.662 162.232C439.865 162.795 439.244 163.533 438.799 164.447V178H435.547V151H438.799V161.283Z" fill="#E0E0E0"/>
<rect x="404" y="126" width="78" height="72" stroke="#E0E0E0"/>
<path d="M744.334 168.314C744.334 166.451 744.697 164.775 745.424 163.287C746.162 161.799 747.182 160.65 748.482 159.842C749.795 159.033 751.289 158.629 752.965 158.629C755.555 158.629 757.646 159.525 759.24 161.318C760.846 163.111 761.648 165.496 761.648 168.473V168.701C761.648 170.553 761.291 172.217 760.576 173.693C759.873 175.158 758.859 176.301 757.535 177.121C756.223 177.941 754.711 178.352 753 178.352C750.422 178.352 748.33 177.455 746.725 175.662C745.131 173.869 744.334 171.496 744.334 168.543V168.314ZM747.604 168.701C747.604 170.811 748.09 172.504 749.062 173.781C750.047 175.059 751.359 175.697 753 175.697C754.652 175.697 755.965 175.053 756.938 173.764C757.91 172.463 758.396 170.646 758.396 168.314C758.396 166.229 757.898 164.541 756.902 163.252C755.918 161.951 754.605 161.301 752.965 161.301C751.359 161.301 750.064 161.939 749.08 163.217C748.096 164.494 747.604 166.322 747.604 168.701Z" fill="#E0E0E0"/>
<rect x="714" y="126" width="78" height="72" stroke="#E0E0E0"/>
<path d="M126 144H354.167V190H126V144Z" fill="#F1F4F8"/>
<path d="M146.389 175.347C147.061 175.811 147.757 176.179 148.477 176.451C149.213 176.707 150.037 176.835 150.949 176.835C151.877 176.835 152.557 176.707 152.989 176.451C153.421 176.179 153.637 175.835 153.637 175.419C153.637 175.003 153.357 174.659 152.797 174.387C152.237 174.099 151.357 173.795 150.157 173.475C149.597 173.331 149.053 173.155 148.525 172.947C147.997 172.739 147.533 172.499 147.133 172.227C146.733 171.955 146.413 171.643 146.173 171.291C145.933 170.939 145.813 170.539 145.813 170.091C145.813 169.051 146.261 168.203 147.157 167.547C148.053 166.891 149.341 166.563 151.021 166.563C151.981 166.563 152.885 166.723 153.733 167.043C154.581 167.363 155.309 167.723 155.917 168.123L154.645 169.827C154.117 169.475 153.549 169.195 152.941 168.987C152.349 168.763 151.717 168.651 151.045 168.651C150.133 168.651 149.493 168.779 149.125 169.035C148.757 169.275 148.573 169.579 148.573 169.947C148.573 170.155 148.653 170.347 148.813 170.523C148.989 170.683 149.221 170.835 149.509 170.979C149.813 171.107 150.165 171.235 150.565 171.363C150.965 171.491 151.405 171.611 151.885 171.723C152.573 171.899 153.189 172.099 153.733 172.323C154.293 172.531 154.765 172.771 155.149 173.043C155.549 173.315 155.853 173.635 156.061 174.003C156.285 174.371 156.397 174.795 156.397 175.275C156.397 175.787 156.277 176.267 156.037 176.715C155.797 177.147 155.445 177.531 154.981 177.867C154.517 178.187 153.941 178.443 153.253 178.635C152.565 178.827 151.773 178.923 150.877 178.923C149.773 178.923 148.717 178.747 147.709 178.395C146.701 178.043 145.829 177.611 145.093 177.099L146.389 175.347ZM163.108 161.643H169.972V163.155H165.244V180.771H169.972V182.283H163.108V161.643ZM193.929 180.771V163.155H189.225V161.643H196.089V182.283H189.225V180.771H193.929Z" fill="#2E383C"/>
<path d="M173.947 177.027C175.147 176.003 176.219 175.067 177.163 174.219C178.107 173.355 178.907 172.555 179.563 171.819C180.235 171.083 180.747 170.395 181.099 169.755C181.451 169.115 181.627 168.499 181.627 167.907C181.627 167.091 181.379 166.451 180.883 165.987C180.387 165.507 179.659 165.267 178.699 165.267C178.027 165.267 177.411 165.435 176.851 165.771C176.307 166.107 175.803 166.507 175.339 166.971L173.827 165.435C174.563 164.683 175.339 164.107 176.155 163.707C176.971 163.291 177.939 163.083 179.059 163.083C179.843 163.083 180.555 163.195 181.195 163.419C181.835 163.643 182.379 163.963 182.827 164.379C183.291 164.779 183.643 165.267 183.883 165.843C184.139 166.419 184.267 167.059 184.267 167.763C184.267 168.435 184.099 169.123 183.763 169.827C183.443 170.515 183.003 171.219 182.443 171.939C181.883 172.643 181.211 173.371 180.427 174.123C179.659 174.875 178.835 175.651 177.955 176.451C178.403 176.419 178.875 176.387 179.371 176.355C179.867 176.307 180.323 176.283 180.739 176.283H185.059V178.635H173.947V177.027Z" fill="#0C570A"/>
<path d="M438.799 275.283C440.24 273.514 442.115 272.629 444.424 272.629C448.443 272.629 450.471 274.896 450.506 279.432V292H447.254V279.414C447.242 278.043 446.926 277.029 446.305 276.373C445.695 275.717 444.74 275.389 443.439 275.389C442.385 275.389 441.459 275.67 440.662 276.232C439.865 276.795 439.244 277.533 438.799 278.447V292H435.547V265H438.799V275.283Z" fill="#E0E0E0"/>
<rect x="404" y="240" width="78" height="72" stroke="#E0E0E0"/>
<path d="M744.334 282.314C744.334 280.451 744.697 278.775 745.424 277.287C746.162 275.799 747.182 274.65 748.482 273.842C749.795 273.033 751.289 272.629 752.965 272.629C755.555 272.629 757.646 273.525 759.24 275.318C760.846 277.111 761.648 279.496 761.648 282.473V282.701C761.648 284.553 761.291 286.217 760.576 287.693C759.873 289.158 758.859 290.301 757.535 291.121C756.223 291.941 754.711 292.352 753 292.352C750.422 292.352 748.33 291.455 746.725 289.662C745.131 287.869 744.334 285.496 744.334 282.543V282.314ZM747.604 282.701C747.604 284.811 748.09 286.504 749.062 287.781C750.047 289.059 751.359 289.697 753 289.697C754.652 289.697 755.965 289.053 756.938 287.764C757.91 286.463 758.396 284.646 758.396 282.314C758.396 280.229 757.898 278.541 756.902 277.252C755.918 275.951 754.605 275.301 752.965 275.301C751.359 275.301 750.064 275.939 749.08 277.217C748.096 278.494 747.604 280.322 747.604 282.701Z" fill="#E0E0E0"/>
<rect x="714" y="240" width="78" height="72" stroke="#E0E0E0"/>
<path d="M126 258H354.167V304H126V258Z" fill="#F1F4F8"/>
<path d="M146.389 289.347C147.061 289.811 147.757 290.179 148.477 290.451C149.213 290.707 150.037 290.835 150.949 290.835C151.877 290.835 152.557 290.707 152.989 290.451C153.421 290.179 153.637 289.835 153.637 289.419C153.637 289.003 153.357 288.659 152.797 288.387C152.237 288.099 151.357 287.795 150.157 287.475C149.597 287.331 149.053 287.155 148.525 286.947C147.997 286.739 147.533 286.499 147.133 286.227C146.733 285.955 146.413 285.643 146.173 285.291C145.933 284.939 145.813 284.539 145.813 284.091C145.813 283.051 146.261 282.203 147.157 281.547C148.053 280.891 149.341 280.563 151.021 280.563C151.981 280.563 152.885 280.723 153.733 281.043C154.581 281.363 155.309 281.723 155.917 282.123L154.645 283.827C154.117 283.475 153.549 283.195 152.941 282.987C152.349 282.763 151.717 282.651 151.045 282.651C150.133 282.651 149.493 282.779 149.125 283.035C148.757 283.275 148.573 283.579 148.573 283.947C148.573 284.155 148.653 284.347 148.813 284.523C148.989 284.683 149.221 284.835 149.509 284.979C149.813 285.107 150.165 285.235 150.565 285.363C150.965 285.491 151.405 285.611 151.885 285.723C152.573 285.899 153.189 286.099 153.733 286.323C154.293 286.531 154.765 286.771 155.149 287.043C155.549 287.315 155.853 287.635 156.061 288.003C156.285 288.371 156.397 288.795 156.397 289.275C156.397 289.787 156.277 290.267 156.037 290.715C155.797 291.147 155.445 291.531 154.981 291.867C154.517 292.187 153.941 292.443 153.253 292.635C152.565 292.827 151.773 292.923 150.877 292.923C149.773 292.923 148.717 292.747 147.709 292.395C146.701 292.043 145.829 291.611 145.093 291.099L146.389 289.347ZM163.108 275.643H169.972V277.155H165.244V294.771H169.972V296.283H163.108V275.643ZM222.711 294.771V277.155H218.007V275.643H224.871V296.283H218.007V294.771H222.711Z" fill="#2E383C"/>
<path d="M185.179 290.379V292.635H174.547V290.379H178.675V280.347H175.483V278.619C176.347 278.475 177.083 278.307 177.691 278.115C178.315 277.907 178.891 277.659 179.419 277.371H181.435V290.379H185.179ZM191.601 282.339C191.601 281.635 191.825 281.059 192.273 280.611C192.721 280.147 193.289 279.915 193.977 279.915C194.665 279.915 195.233 280.147 195.681 280.611C196.129 281.059 196.353 281.635 196.353 282.339C196.353 283.043 196.129 283.627 195.681 284.091C195.233 284.539 194.665 284.763 193.977 284.763C193.289 284.763 192.721 284.539 192.273 284.091C191.825 283.627 191.601 283.043 191.601 282.339ZM191.601 290.499C191.601 289.795 191.825 289.219 192.273 288.771C192.721 288.307 193.289 288.075 193.977 288.075C194.665 288.075 195.233 288.307 195.681 288.771C196.129 289.219 196.353 289.795 196.353 290.499C196.353 291.203 196.129 291.787 195.681 292.251C195.233 292.699 194.665 292.923 193.977 292.923C193.289 292.923 192.721 292.699 192.273 292.251C191.825 291.787 191.601 291.203 191.601 290.499ZM209.664 286.563V282.915C209.68 282.451 209.696 281.947 209.712 281.403C209.744 280.859 209.776 280.355 209.808 279.891H209.688C209.432 280.291 209.168 280.691 208.896 281.091C208.624 281.491 208.352 281.899 208.08 282.315L204.864 286.563H209.664ZM214.416 288.699H212.256V292.635H209.664V288.699H202.056V286.827L209.064 277.347H212.256V286.563H214.416V288.699Z" fill="#0C570A"/>
<path d="M520.809 178.352C518.23 178.352 516.133 177.508 514.516 175.82C512.898 174.121 512.09 171.854 512.09 169.018V168.42C512.09 166.533 512.447 164.852 513.162 163.375C513.889 161.887 514.896 160.727 516.186 159.895C517.486 159.051 518.893 158.629 520.404 158.629C522.877 158.629 524.799 159.443 526.17 161.072C527.541 162.701 528.227 165.033 528.227 168.068V169.422H515.342C515.389 171.297 515.934 172.814 516.977 173.975C518.031 175.123 519.367 175.697 520.984 175.697C522.133 175.697 523.105 175.463 523.902 174.994C524.699 174.525 525.396 173.904 525.994 173.131L527.98 174.678C526.387 177.127 523.996 178.352 520.809 178.352ZM520.404 161.301C519.092 161.301 517.99 161.781 517.1 162.742C516.209 163.691 515.658 165.027 515.447 166.75H524.975V166.504C524.881 164.852 524.436 163.574 523.639 162.672C522.842 161.758 521.764 161.301 520.404 161.301Z" fill="#E0E0E0"/>
<rect x="482" y="126" width="78" height="72" stroke="#E0E0E0"/>
<path d="M599.617 178H596.365V151H599.617V178Z" fill="black"/>
<path d="M677.617 178H674.365V151H677.617V178Z" fill="#E0E0E0"/>
<rect x="636" y="126" width="78" height="72" stroke="#E0E0E0"/>
<rect x="560" y="126" width="76" height="72" stroke="black"/>
<path d="M520.809 292.352C518.23 292.352 516.133 291.508 514.516 289.82C512.898 288.121 512.09 285.854 512.09 283.018V282.42C512.09 280.533 512.447 278.852 513.162 277.375C513.889 275.887 514.896 274.727 516.186 273.895C517.486 273.051 518.893 272.629 520.404 272.629C522.877 272.629 524.799 273.443 526.17 275.072C527.541 276.701 528.227 279.033 528.227 282.068V283.422H515.342C515.389 285.297 515.934 286.814 516.977 287.975C518.031 289.123 519.367 289.697 520.984 289.697C522.133 289.697 523.105 289.463 523.902 288.994C524.699 288.525 525.396 287.904 525.994 287.131L527.98 288.678C526.387 291.127 523.996 292.352 520.809 292.352ZM520.404 275.301C519.092 275.301 517.99 275.781 517.1 276.742C516.209 277.691 515.658 279.027 515.447 280.75H524.975V280.504C524.881 278.852 524.436 277.574 523.639 276.672C522.842 275.758 521.764 275.301 520.404 275.301Z" fill="black"/>
<rect x="482" y="240" width="78" height="72" stroke="#333333"/>
<path d="M599.617 292H596.365V265H599.617V292Z" fill="black"/>
<path d="M677.617 292H674.365V265H677.617V292Z" fill="black"/>
<rect x="636" y="240" width="78" height="72" stroke="black"/>
<rect x="560" y="240" width="76" height="72" stroke="black"/>
</svg>
