<svg width="400" height="71" viewBox="0 0 400 71" fill="none" xmlns="http://www.w3.org/2000/svg">
<rect width="400" height="71" fill="white"/>
<path d="M293.061 47.0607C293.646 46.4749 293.646 45.5251 293.061 44.9394L283.515 35.3934C282.929 34.8076 281.979 34.8076 281.393 35.3934C280.808 35.9792 280.808 36.9289 281.393 37.5147L289.879 46L281.393 54.4853C280.808 55.0711 280.808 56.0208 281.393 56.6066C281.979 57.1924 282.929 57.1924 283.515 56.6066L293.061 47.0607ZM103 47.5L292 47.5L292 44.5L103 44.5L103 47.5Z" fill="#2E383C"/>
<path d="M320.678 27.3701C320.678 28.555 320.425 29.4801 319.919 30.1455C319.413 30.8063 318.707 31.1367 317.8 31.1367C316.998 31.1367 316.357 30.8291 315.879 30.2139L315.79 31H314.013V20.5H315.988V24.2666C316.444 23.7334 317.043 23.4668 317.786 23.4668C318.688 23.4668 319.395 23.7995 319.905 24.4648C320.42 25.1257 320.678 26.0576 320.678 27.2607V27.3701ZM318.702 27.2266C318.702 26.4792 318.584 25.9346 318.347 25.5928C318.11 25.2464 317.757 25.0732 317.287 25.0732C316.658 25.0732 316.225 25.3307 315.988 25.8457V28.7646C316.23 29.2842 316.667 29.5439 317.301 29.5439C317.939 29.5439 318.358 29.2295 318.559 28.6006C318.654 28.2998 318.702 27.8418 318.702 27.2266ZM323.986 31H322.004V20.5H323.986V31ZM330.05 30.248C329.562 30.8405 328.888 31.1367 328.026 31.1367C327.233 31.1367 326.627 30.9089 326.208 30.4531C325.793 29.9974 325.581 29.3298 325.572 28.4502V23.6035H327.548V28.3818C327.548 29.152 327.899 29.5371 328.601 29.5371C329.271 29.5371 329.731 29.3047 329.981 28.8398V23.6035H331.964V31H330.104L330.05 30.248ZM336.858 31.1367C335.774 31.1367 334.89 30.804 334.206 30.1387C333.527 29.4733 333.188 28.5869 333.188 27.4795V27.2881C333.188 26.5452 333.331 25.8822 333.618 25.2988C333.905 24.7109 334.311 24.2598 334.835 23.9453C335.364 23.6263 335.965 23.4668 336.64 23.4668C337.651 23.4668 338.447 23.7858 339.025 24.4238C339.609 25.0618 339.9 25.9665 339.9 27.1377V27.9443H335.19C335.254 28.4274 335.446 28.8148 335.765 29.1064C336.088 29.3981 336.496 29.5439 336.988 29.5439C337.749 29.5439 338.344 29.2682 338.772 28.7168L339.743 29.8037C339.447 30.223 339.046 30.5511 338.54 30.7881C338.034 31.0205 337.474 31.1367 336.858 31.1367ZM336.633 25.0664C336.241 25.0664 335.922 25.1986 335.676 25.4629C335.434 25.7272 335.279 26.1055 335.211 26.5977H337.959V26.4404C337.95 26.0029 337.831 25.6657 337.604 25.4287C337.376 25.1872 337.052 25.0664 336.633 25.0664Z" fill="#0072B2"/>
<path d="M346.073 31H344.809V23.6035H346.073V31ZM344.706 21.6416C344.706 21.4365 344.768 21.2633 344.891 21.1221C345.018 20.9808 345.205 20.9102 345.451 20.9102C345.697 20.9102 345.884 20.9808 346.012 21.1221C346.139 21.2633 346.203 21.4365 346.203 21.6416C346.203 21.8467 346.139 22.0176 346.012 22.1543C345.884 22.291 345.697 22.3594 345.451 22.3594C345.205 22.3594 345.018 22.291 344.891 22.1543C344.768 22.0176 344.706 21.8467 344.706 21.6416ZM352.41 29.0381C352.41 28.6963 352.28 28.432 352.021 28.2451C351.765 28.0537 351.316 27.8896 350.674 27.7529C350.036 27.6162 349.528 27.4521 349.149 27.2607C348.776 27.0693 348.498 26.8415 348.315 26.5771C348.138 26.3128 348.049 25.9984 348.049 25.6338C348.049 25.0277 348.304 24.515 348.814 24.0957C349.329 23.6764 349.986 23.4668 350.783 23.4668C351.622 23.4668 352.301 23.6833 352.82 24.1162C353.344 24.5492 353.606 25.1029 353.606 25.7773H352.335C352.335 25.431 352.187 25.1325 351.891 24.8818C351.599 24.6312 351.23 24.5059 350.783 24.5059C350.323 24.5059 349.963 24.6061 349.703 24.8066C349.443 25.0072 349.313 25.2692 349.313 25.5928C349.313 25.8981 349.434 26.1283 349.676 26.2832C349.917 26.4382 350.353 26.5863 350.981 26.7275C351.615 26.8688 352.128 27.0374 352.52 27.2334C352.911 27.4294 353.201 27.6663 353.388 27.9443C353.579 28.2178 353.675 28.5527 353.675 28.9492C353.675 29.61 353.41 30.141 352.882 30.542C352.353 30.9385 351.667 31.1367 350.824 31.1367C350.232 31.1367 349.708 31.0319 349.252 30.8223C348.796 30.6126 348.438 30.321 348.179 29.9473C347.924 29.569 347.796 29.1611 347.796 28.7236H349.061C349.083 29.1475 349.252 29.4847 349.566 29.7354C349.885 29.9814 350.305 30.1045 350.824 30.1045C351.303 30.1045 351.686 30.0088 351.973 29.8174C352.264 29.6214 352.41 29.3617 352.41 29.0381ZM359.984 23.6035L360.019 24.4238C360.561 23.7858 361.292 23.4668 362.213 23.4668C363.247 23.4668 363.951 23.8633 364.325 24.6562C364.571 24.3008 364.89 24.0137 365.282 23.7949C365.679 23.5762 366.146 23.4668 366.684 23.4668C368.306 23.4668 369.131 24.3258 369.158 26.0439V31H367.894V26.1191C367.894 25.5905 367.773 25.1963 367.531 24.9365C367.29 24.6722 366.884 24.54 366.314 24.54C365.845 24.54 365.455 24.6813 365.146 24.9639C364.836 25.2419 364.656 25.6178 364.605 26.0918V31H363.334V26.1533C363.334 25.0778 362.808 24.54 361.755 24.54C360.925 24.54 360.358 24.8932 360.053 25.5996V31H358.788V23.6035H359.984ZM373.492 29.1475L375.215 23.6035H376.568L373.595 32.1416C373.134 33.3721 372.403 33.9873 371.4 33.9873L371.161 33.9668L370.689 33.8779V32.8525L371.031 32.8799C371.46 32.8799 371.792 32.7933 372.029 32.6201C372.271 32.4469 372.469 32.1302 372.624 31.6699L372.904 30.918L370.266 23.6035H371.646L373.492 29.1475ZM305.529 47V40.5811H304.36V39.6035H305.529V38.8447C305.529 38.0518 305.741 37.4388 306.165 37.0059C306.589 36.5729 307.188 36.3564 307.963 36.3564C308.255 36.3564 308.544 36.3952 308.831 36.4727L308.763 37.498C308.549 37.457 308.321 37.4365 308.079 37.4365C307.669 37.4365 307.352 37.5573 307.129 37.7988C306.906 38.0358 306.794 38.3776 306.794 38.8242V39.6035H308.373V40.5811H306.794V47H305.529ZM314.341 47C314.268 46.8542 314.209 46.5944 314.163 46.2207C313.575 46.8314 312.873 47.1367 312.058 47.1367C311.328 47.1367 310.729 46.9316 310.26 46.5215C309.795 46.1068 309.562 45.5827 309.562 44.9492C309.562 44.179 309.854 43.582 310.438 43.1582C311.025 42.7298 311.85 42.5156 312.912 42.5156H314.143V41.9346C314.143 41.4925 314.01 41.1416 313.746 40.8818C313.482 40.6175 313.092 40.4854 312.577 40.4854C312.126 40.4854 311.748 40.5993 311.442 40.8271C311.137 41.055 310.984 41.3307 310.984 41.6543H309.713C309.713 41.2852 309.843 40.9297 310.103 40.5879C310.367 40.2415 310.722 39.9681 311.169 39.7676C311.62 39.5671 312.115 39.4668 312.652 39.4668C313.505 39.4668 314.172 39.681 314.655 40.1094C315.138 40.5332 315.389 41.1188 315.407 41.8662V45.2705C315.407 45.9495 315.494 46.4896 315.667 46.8906V47H314.341ZM312.242 46.0361C312.639 46.0361 313.015 45.9336 313.37 45.7285C313.726 45.5234 313.983 45.2568 314.143 44.9287V43.4111H313.151C311.602 43.4111 310.827 43.8646 310.827 44.7715C310.827 45.168 310.959 45.4779 311.224 45.7012C311.488 45.9245 311.827 46.0361 312.242 46.0361ZM319.721 45.2842L321.553 39.6035H322.845L320.192 47H319.229L316.549 39.6035H317.841L319.721 45.2842ZM323.617 43.2334C323.617 42.5088 323.758 41.8571 324.041 41.2783C324.328 40.6995 324.725 40.2529 325.23 39.9385C325.741 39.624 326.322 39.4668 326.974 39.4668C327.981 39.4668 328.794 39.8154 329.414 40.5127C330.038 41.21 330.351 42.1374 330.351 43.2949V43.3838C330.351 44.1038 330.212 44.751 329.934 45.3252C329.66 45.8949 329.266 46.3392 328.751 46.6582C328.241 46.9772 327.653 47.1367 326.987 47.1367C325.985 47.1367 325.171 46.7881 324.547 46.0908C323.927 45.3936 323.617 44.4707 323.617 43.3223V43.2334ZM324.889 43.3838C324.889 44.2041 325.078 44.8626 325.456 45.3594C325.839 45.8561 326.349 46.1045 326.987 46.1045C327.63 46.1045 328.14 45.8538 328.519 45.3525C328.897 44.8467 329.086 44.1403 329.086 43.2334C329.086 42.4222 328.892 41.766 328.505 41.2646C328.122 40.7588 327.612 40.5059 326.974 40.5059C326.349 40.5059 325.846 40.7542 325.463 41.251C325.08 41.7477 324.889 42.4587 324.889 43.3838ZM335.512 40.7383C335.32 40.7064 335.113 40.6904 334.89 40.6904C334.06 40.6904 333.497 41.0436 333.201 41.75V47H331.937V39.6035H333.167L333.188 40.458C333.602 39.7972 334.19 39.4668 334.951 39.4668C335.197 39.4668 335.384 39.4987 335.512 39.5625V40.7383ZM338.055 47H336.79V39.6035H338.055V47ZM336.688 37.6416C336.688 37.4365 336.749 37.2633 336.872 37.1221C337 36.9808 337.187 36.9102 337.433 36.9102C337.679 36.9102 337.866 36.9808 337.993 37.1221C338.121 37.2633 338.185 37.4365 338.185 37.6416C338.185 37.8467 338.121 38.0176 337.993 38.1543C337.866 38.291 337.679 38.3594 337.433 38.3594C337.187 38.3594 337 38.291 336.872 38.1543C336.749 38.0176 336.688 37.8467 336.688 37.6416ZM341.801 37.8125V39.6035H343.182V40.5811H341.801V45.168C341.801 45.4642 341.862 45.6875 341.985 45.8379C342.108 45.9837 342.318 46.0566 342.614 46.0566C342.76 46.0566 342.961 46.0293 343.216 45.9746V47C342.883 47.0911 342.56 47.1367 342.245 47.1367C341.68 47.1367 341.254 46.9658 340.967 46.624C340.68 46.2822 340.536 45.7969 340.536 45.168V40.5811H339.189V39.6035H340.536V37.8125H341.801ZM347.734 47.1367C346.732 47.1367 345.916 46.8086 345.287 46.1523C344.658 45.4915 344.344 44.6097 344.344 43.5068V43.2744C344.344 42.5407 344.483 41.8867 344.761 41.3125C345.043 40.7337 345.435 40.2826 345.937 39.959C346.442 39.6309 346.989 39.4668 347.577 39.4668C348.539 39.4668 349.286 39.7835 349.819 40.417C350.353 41.0505 350.619 41.9574 350.619 43.1377V43.6641H345.608C345.627 44.3932 345.839 44.9834 346.244 45.4346C346.654 45.8812 347.174 46.1045 347.803 46.1045C348.249 46.1045 348.628 46.0133 348.938 45.8311C349.247 45.6488 349.519 45.4072 349.751 45.1064L350.523 45.708C349.904 46.6605 348.974 47.1367 347.734 47.1367ZM347.577 40.5059C347.067 40.5059 346.638 40.6927 346.292 41.0664C345.946 41.4355 345.731 41.9551 345.649 42.625H349.354V42.5293C349.318 41.8867 349.145 41.39 348.835 41.0391C348.525 40.6836 348.106 40.5059 347.577 40.5059ZM358.528 46.1045C358.979 46.1045 359.374 45.9678 359.711 45.6943C360.048 45.4209 360.235 45.0791 360.271 44.6689H361.468C361.445 45.0928 361.299 45.4961 361.03 45.8789C360.761 46.2617 360.401 46.5671 359.95 46.7949C359.504 47.0228 359.03 47.1367 358.528 47.1367C357.521 47.1367 356.719 46.8018 356.122 46.1318C355.53 45.4574 355.233 44.5368 355.233 43.3701V43.1582C355.233 42.4382 355.366 41.7979 355.63 41.2373C355.894 40.6768 356.272 40.2415 356.765 39.9316C357.261 39.6217 357.847 39.4668 358.521 39.4668C359.351 39.4668 360.039 39.7152 360.586 40.2119C361.137 40.7087 361.431 41.3535 361.468 42.1465H360.271C360.235 41.668 360.053 41.276 359.725 40.9707C359.401 40.6608 359 40.5059 358.521 40.5059C357.879 40.5059 357.38 40.7383 357.024 41.2031C356.674 41.6634 356.498 42.3311 356.498 43.2061V43.4453C356.498 44.2975 356.674 44.9538 357.024 45.4141C357.375 45.8743 357.877 46.1045 358.528 46.1045ZM362.555 43.2334C362.555 42.5088 362.696 41.8571 362.979 41.2783C363.266 40.6995 363.662 40.2529 364.168 39.9385C364.678 39.624 365.259 39.4668 365.911 39.4668C366.918 39.4668 367.732 39.8154 368.352 40.5127C368.976 41.21 369.288 42.1374 369.288 43.2949V43.3838C369.288 44.1038 369.149 44.751 368.871 45.3252C368.598 45.8949 368.203 46.3392 367.688 46.6582C367.178 46.9772 366.59 47.1367 365.925 47.1367C364.922 47.1367 364.109 46.7881 363.484 46.0908C362.865 45.3936 362.555 44.4707 362.555 43.3223V43.2334ZM363.826 43.3838C363.826 44.2041 364.015 44.8626 364.394 45.3594C364.776 45.8561 365.287 46.1045 365.925 46.1045C366.567 46.1045 367.078 45.8538 367.456 45.3525C367.834 44.8467 368.023 44.1403 368.023 43.2334C368.023 42.4222 367.83 41.766 367.442 41.2646C367.06 40.7588 366.549 40.5059 365.911 40.5059C365.287 40.5059 364.783 40.7542 364.4 41.251C364.018 41.7477 363.826 42.4587 363.826 43.3838ZM372.248 47H370.983V36.5H372.248V47ZM373.943 43.2334C373.943 42.5088 374.085 41.8571 374.367 41.2783C374.654 40.6995 375.051 40.2529 375.557 39.9385C376.067 39.624 376.648 39.4668 377.3 39.4668C378.307 39.4668 379.12 39.8154 379.74 40.5127C380.365 41.21 380.677 42.1374 380.677 43.2949V43.3838C380.677 44.1038 380.538 44.751 380.26 45.3252C379.986 45.8949 379.592 46.3392 379.077 46.6582C378.567 46.9772 377.979 47.1367 377.313 47.1367C376.311 47.1367 375.497 46.7881 374.873 46.0908C374.253 45.3936 373.943 44.4707 373.943 43.3223V43.2334ZM375.215 43.3838C375.215 44.2041 375.404 44.8626 375.782 45.3594C376.165 45.8561 376.675 46.1045 377.313 46.1045C377.956 46.1045 378.466 45.8538 378.845 45.3525C379.223 44.8467 379.412 44.1403 379.412 43.2334C379.412 42.4222 379.218 41.766 378.831 41.2646C378.448 40.7588 377.938 40.5059 377.3 40.5059C376.675 40.5059 376.172 40.7542 375.789 41.251C375.406 41.7477 375.215 42.4587 375.215 43.3838ZM385.838 40.7383C385.646 40.7064 385.439 40.6904 385.216 40.6904C384.386 40.6904 383.824 41.0436 383.527 41.75V47H382.263V39.6035H383.493L383.514 40.458C383.928 39.7972 384.516 39.4668 385.277 39.4668C385.523 39.4668 385.71 39.4987 385.838 39.5625V40.7383Z" fill="black"/>
<path d="M31.457 25.4561C31.1882 25.4196 30.9512 25.4014 30.7461 25.4014C29.9987 25.4014 29.5088 25.6543 29.2764 26.1602V31H27.3008V23.6035H29.167L29.2217 24.4854C29.6182 23.8063 30.1673 23.4668 30.8691 23.4668C31.0879 23.4668 31.293 23.4964 31.4844 23.5557L31.457 25.4561ZM35.6816 31.1367C34.597 31.1367 33.7129 30.804 33.0293 30.1387C32.3503 29.4733 32.0107 28.5869 32.0107 27.4795V27.2881C32.0107 26.5452 32.1543 25.8822 32.4414 25.2988C32.7285 24.7109 33.1341 24.2598 33.6582 23.9453C34.1868 23.6263 34.7884 23.4668 35.4629 23.4668C36.4746 23.4668 37.2699 23.7858 37.8486 24.4238C38.432 25.0618 38.7236 25.9665 38.7236 27.1377V27.9443H34.0137C34.0775 28.4274 34.2689 28.8148 34.5879 29.1064C34.9115 29.3981 35.3193 29.5439 35.8115 29.5439C36.5726 29.5439 37.1673 29.2682 37.5957 28.7168L38.5664 29.8037C38.2702 30.223 37.8691 30.5511 37.3633 30.7881C36.8574 31.0205 36.2969 31.1367 35.6816 31.1367ZM35.4561 25.0664C35.0641 25.0664 34.7451 25.1986 34.499 25.4629C34.2575 25.7272 34.1025 26.1055 34.0342 26.5977H36.7822V26.4404C36.7731 26.0029 36.6546 25.6657 36.4268 25.4287C36.1989 25.1872 35.8753 25.0664 35.4561 25.0664ZM39.5439 27.2471C39.5439 26.0941 39.8014 25.1758 40.3164 24.4922C40.8359 23.8086 41.5446 23.4668 42.4424 23.4668C43.1624 23.4668 43.7572 23.7357 44.2266 24.2734V20.5H46.209V31H44.4248L44.3291 30.2139C43.8369 30.8291 43.2035 31.1367 42.4287 31.1367C41.5583 31.1367 40.8587 30.7949 40.3301 30.1113C39.806 29.4232 39.5439 28.4684 39.5439 27.2471ZM41.5195 27.3906C41.5195 28.0833 41.6403 28.6143 41.8818 28.9834C42.1234 29.3525 42.4743 29.5371 42.9346 29.5371C43.5452 29.5371 43.9759 29.2796 44.2266 28.7646V25.8457C43.9805 25.3307 43.5544 25.0732 42.9482 25.0732C41.9958 25.0732 41.5195 25.8457 41.5195 27.3906Z" fill="#EB5757"/>
<path d="M52.7852 31H51.5205V23.6035H52.7852V31ZM51.418 21.6416C51.418 21.4365 51.4795 21.2633 51.6025 21.1221C51.7301 20.9808 51.917 20.9102 52.1631 20.9102C52.4092 20.9102 52.596 20.9808 52.7236 21.1221C52.8512 21.2633 52.915 21.4365 52.915 21.6416C52.915 21.8467 52.8512 22.0176 52.7236 22.1543C52.596 22.291 52.4092 22.3594 52.1631 22.3594C51.917 22.3594 51.7301 22.291 51.6025 22.1543C51.4795 22.0176 51.418 21.8467 51.418 21.6416ZM59.1221 29.0381C59.1221 28.6963 58.9922 28.432 58.7324 28.2451C58.4772 28.0537 58.0283 27.8896 57.3857 27.7529C56.7477 27.6162 56.2396 27.4521 55.8613 27.2607C55.4876 27.0693 55.2096 26.8415 55.0273 26.5771C54.8496 26.3128 54.7607 25.9984 54.7607 25.6338C54.7607 25.0277 55.016 24.515 55.5264 24.0957C56.0413 23.6764 56.6976 23.4668 57.4951 23.4668C58.3337 23.4668 59.0127 23.6833 59.5322 24.1162C60.0563 24.5492 60.3184 25.1029 60.3184 25.7773H59.0469C59.0469 25.431 58.8988 25.1325 58.6025 24.8818C58.3109 24.6312 57.9417 24.5059 57.4951 24.5059C57.0348 24.5059 56.6748 24.6061 56.415 24.8066C56.1553 25.0072 56.0254 25.2692 56.0254 25.5928C56.0254 25.8981 56.1462 26.1283 56.3877 26.2832C56.6292 26.4382 57.0645 26.5863 57.6934 26.7275C58.3268 26.8688 58.8395 27.0374 59.2314 27.2334C59.6234 27.4294 59.9128 27.6663 60.0996 27.9443C60.291 28.2178 60.3867 28.5527 60.3867 28.9492C60.3867 29.61 60.1224 30.141 59.5938 30.542C59.0651 30.9385 58.3792 31.1367 57.5361 31.1367C56.9437 31.1367 56.4196 31.0319 55.9639 30.8223C55.5081 30.6126 55.1504 30.321 54.8906 29.9473C54.6354 29.569 54.5078 29.1611 54.5078 28.7236H55.7725C55.7952 29.1475 55.9639 29.4847 56.2783 29.7354C56.5973 29.9814 57.0166 30.1045 57.5361 30.1045C58.0146 30.1045 58.3975 30.0088 58.6846 29.8174C58.9762 29.6214 59.1221 29.3617 59.1221 29.0381ZM66.6963 23.6035L66.7305 24.4238C67.2728 23.7858 68.0042 23.4668 68.9248 23.4668C69.9593 23.4668 70.6634 23.8633 71.0371 24.6562C71.2832 24.3008 71.6022 24.0137 71.9941 23.7949C72.3906 23.5762 72.8577 23.4668 73.3955 23.4668C75.0179 23.4668 75.8428 24.3258 75.8701 26.0439V31H74.6055V26.1191C74.6055 25.5905 74.4847 25.1963 74.2432 24.9365C74.0016 24.6722 73.596 24.54 73.0264 24.54C72.557 24.54 72.1673 24.6813 71.8574 24.9639C71.5475 25.2419 71.3675 25.6178 71.3174 26.0918V31H70.0459V26.1533C70.0459 25.0778 69.5195 24.54 68.4668 24.54C67.6374 24.54 67.07 24.8932 66.7646 25.5996V31H65.5V23.6035H66.6963ZM80.2041 29.1475L81.9268 23.6035H83.2803L80.3066 32.1416C79.8464 33.3721 79.1149 33.9873 78.1123 33.9873L77.873 33.9668L77.4014 33.8779V32.8525L77.7432 32.8799C78.1715 32.8799 78.5042 32.7933 78.7412 32.6201C78.9827 32.4469 79.181 32.1302 79.3359 31.6699L79.6162 30.918L76.9775 23.6035H78.3584L80.2041 29.1475ZM15.5293 47V40.5811H14.3604V39.6035H15.5293V38.8447C15.5293 38.0518 15.7412 37.4388 16.165 37.0059C16.5889 36.5729 17.1882 36.3564 17.9629 36.3564C18.2546 36.3564 18.5439 36.3952 18.8311 36.4727L18.7627 37.498C18.5485 37.457 18.3206 37.4365 18.0791 37.4365C17.6689 37.4365 17.3522 37.5573 17.1289 37.7988C16.9056 38.0358 16.7939 38.3776 16.7939 38.8242V39.6035H18.373V40.5811H16.7939V47H15.5293ZM24.3408 47C24.2679 46.8542 24.2087 46.5944 24.1631 46.2207C23.5752 46.8314 22.8734 47.1367 22.0576 47.1367C21.3285 47.1367 20.7292 46.9316 20.2598 46.5215C19.7949 46.1068 19.5625 45.5827 19.5625 44.9492C19.5625 44.179 19.8542 43.582 20.4375 43.1582C21.0254 42.7298 21.8503 42.5156 22.9121 42.5156H24.1426V41.9346C24.1426 41.4925 24.0104 41.1416 23.7461 40.8818C23.4818 40.6175 23.0921 40.4854 22.5771 40.4854C22.126 40.4854 21.7477 40.5993 21.4424 40.8271C21.137 41.055 20.9844 41.3307 20.9844 41.6543H19.7129C19.7129 41.2852 19.8428 40.9297 20.1025 40.5879C20.3669 40.2415 20.7223 39.9681 21.1689 39.7676C21.6201 39.5671 22.1146 39.4668 22.6523 39.4668C23.5046 39.4668 24.1722 39.681 24.6553 40.1094C25.1383 40.5332 25.389 41.1188 25.4072 41.8662V45.2705C25.4072 45.9495 25.4938 46.4896 25.667 46.8906V47H24.3408ZM22.2422 46.0361C22.6387 46.0361 23.0146 45.9336 23.3701 45.7285C23.7256 45.5234 23.9831 45.2568 24.1426 44.9287V43.4111H23.1514C21.6019 43.4111 20.8271 43.8646 20.8271 44.7715C20.8271 45.168 20.9593 45.4779 21.2236 45.7012C21.488 45.9245 21.8275 46.0361 22.2422 46.0361ZM29.7207 45.2842L31.5527 39.6035H32.8447L30.1924 47H29.2285L26.5488 39.6035H27.8408L29.7207 45.2842ZM33.6172 43.2334C33.6172 42.5088 33.7585 41.8571 34.041 41.2783C34.3281 40.6995 34.7246 40.2529 35.2305 39.9385C35.7409 39.624 36.3219 39.4668 36.9736 39.4668C37.9808 39.4668 38.7943 39.8154 39.4141 40.5127C40.0384 41.21 40.3506 42.1374 40.3506 43.2949V43.3838C40.3506 44.1038 40.2116 44.751 39.9336 45.3252C39.6602 45.8949 39.266 46.3392 38.751 46.6582C38.2406 46.9772 37.6527 47.1367 36.9873 47.1367C35.9847 47.1367 35.1712 46.7881 34.5469 46.0908C33.9271 45.3936 33.6172 44.4707 33.6172 43.3223V43.2334ZM34.8887 43.3838C34.8887 44.2041 35.0778 44.8626 35.4561 45.3594C35.8389 45.8561 36.3493 46.1045 36.9873 46.1045C37.6299 46.1045 38.1403 45.8538 38.5186 45.3525C38.8968 44.8467 39.0859 44.1403 39.0859 43.2334C39.0859 42.4222 38.8923 41.766 38.5049 41.2646C38.1221 40.7588 37.6117 40.5059 36.9736 40.5059C36.3493 40.5059 35.8457 40.7542 35.4629 41.251C35.0801 41.7477 34.8887 42.4587 34.8887 43.3838ZM45.5117 40.7383C45.3203 40.7064 45.113 40.6904 44.8896 40.6904C44.0602 40.6904 43.4974 41.0436 43.2012 41.75V47H41.9365V39.6035H43.167L43.1875 40.458C43.6022 39.7972 44.1901 39.4668 44.9512 39.4668C45.1973 39.4668 45.3841 39.4987 45.5117 39.5625V40.7383ZM48.0547 47H46.79V39.6035H48.0547V47ZM46.6875 37.6416C46.6875 37.4365 46.749 37.2633 46.8721 37.1221C46.9997 36.9808 47.1865 36.9102 47.4326 36.9102C47.6787 36.9102 47.8656 36.9808 47.9932 37.1221C48.1208 37.2633 48.1846 37.4365 48.1846 37.6416C48.1846 37.8467 48.1208 38.0176 47.9932 38.1543C47.8656 38.291 47.6787 38.3594 47.4326 38.3594C47.1865 38.3594 46.9997 38.291 46.8721 38.1543C46.749 38.0176 46.6875 37.8467 46.6875 37.6416ZM51.8008 37.8125V39.6035H53.1816V40.5811H51.8008V45.168C51.8008 45.4642 51.8623 45.6875 51.9854 45.8379C52.1084 45.9837 52.318 46.0566 52.6143 46.0566C52.7601 46.0566 52.9606 46.0293 53.2158 45.9746V47C52.8831 47.0911 52.5596 47.1367 52.2451 47.1367C51.68 47.1367 51.2539 46.9658 50.9668 46.624C50.6797 46.2822 50.5361 45.7969 50.5361 45.168V40.5811H49.1895V39.6035H50.5361V37.8125H51.8008ZM57.7344 47.1367C56.7318 47.1367 55.916 46.8086 55.2871 46.1523C54.6582 45.4915 54.3438 44.6097 54.3438 43.5068V43.2744C54.3438 42.5407 54.4827 41.8867 54.7607 41.3125C55.0433 40.7337 55.4352 40.2826 55.9365 39.959C56.4424 39.6309 56.9893 39.4668 57.5771 39.4668C58.5387 39.4668 59.2861 39.7835 59.8193 40.417C60.3525 41.0505 60.6191 41.9574 60.6191 43.1377V43.6641H55.6084C55.6266 44.3932 55.8385 44.9834 56.2441 45.4346C56.6543 45.8812 57.1738 46.1045 57.8027 46.1045C58.2493 46.1045 58.6276 46.0133 58.9375 45.8311C59.2474 45.6488 59.5186 45.4072 59.751 45.1064L60.5234 45.708C59.9036 46.6605 58.974 47.1367 57.7344 47.1367ZM57.5771 40.5059C57.0667 40.5059 56.6383 40.6927 56.292 41.0664C55.9456 41.4355 55.7314 41.9551 55.6494 42.625H59.3545V42.5293C59.318 41.8867 59.1449 41.39 58.835 41.0391C58.5251 40.6836 58.1058 40.5059 57.5771 40.5059ZM68.5283 46.1045C68.9795 46.1045 69.3737 45.9678 69.7109 45.6943C70.0482 45.4209 70.235 45.0791 70.2715 44.6689H71.4678C71.445 45.0928 71.2992 45.4961 71.0303 45.8789C70.7614 46.2617 70.4014 46.5671 69.9502 46.7949C69.5036 47.0228 69.0296 47.1367 68.5283 47.1367C67.5212 47.1367 66.7191 46.8018 66.1221 46.1318C65.5296 45.4574 65.2334 44.5368 65.2334 43.3701V43.1582C65.2334 42.4382 65.3656 41.7979 65.6299 41.2373C65.8942 40.6768 66.2725 40.2415 66.7646 39.9316C67.2614 39.6217 67.847 39.4668 68.5215 39.4668C69.3509 39.4668 70.0391 39.7152 70.5859 40.2119C71.1374 40.7087 71.4313 41.3535 71.4678 42.1465H70.2715C70.235 41.668 70.0527 41.276 69.7246 40.9707C69.401 40.6608 69 40.5059 68.5215 40.5059C67.8789 40.5059 67.3799 40.7383 67.0244 41.2031C66.6735 41.6634 66.498 42.3311 66.498 43.2061V43.4453C66.498 44.2975 66.6735 44.9538 67.0244 45.4141C67.3753 45.8743 67.8766 46.1045 68.5283 46.1045ZM72.5547 43.2334C72.5547 42.5088 72.696 41.8571 72.9785 41.2783C73.2656 40.6995 73.6621 40.2529 74.168 39.9385C74.6784 39.624 75.2594 39.4668 75.9111 39.4668C76.9183 39.4668 77.7318 39.8154 78.3516 40.5127C78.9759 41.21 79.2881 42.1374 79.2881 43.2949V43.3838C79.2881 44.1038 79.1491 44.751 78.8711 45.3252C78.5977 45.8949 78.2035 46.3392 77.6885 46.6582C77.1781 46.9772 76.5902 47.1367 75.9248 47.1367C74.9222 47.1367 74.1087 46.7881 73.4844 46.0908C72.8646 45.3936 72.5547 44.4707 72.5547 43.3223V43.2334ZM73.8262 43.3838C73.8262 44.2041 74.0153 44.8626 74.3936 45.3594C74.7764 45.8561 75.2868 46.1045 75.9248 46.1045C76.5674 46.1045 77.0778 45.8538 77.4561 45.3525C77.8343 44.8467 78.0234 44.1403 78.0234 43.2334C78.0234 42.4222 77.8298 41.766 77.4424 41.2646C77.0596 40.7588 76.5492 40.5059 75.9111 40.5059C75.2868 40.5059 74.7832 40.7542 74.4004 41.251C74.0176 41.7477 73.8262 42.4587 73.8262 43.3838ZM82.248 47H80.9834V36.5H82.248V47ZM83.9434 43.2334C83.9434 42.5088 84.0846 41.8571 84.3672 41.2783C84.6543 40.6995 85.0508 40.2529 85.5566 39.9385C86.0671 39.624 86.6481 39.4668 87.2998 39.4668C88.307 39.4668 89.1204 39.8154 89.7402 40.5127C90.3646 41.21 90.6768 42.1374 90.6768 43.2949V43.3838C90.6768 44.1038 90.5378 44.751 90.2598 45.3252C89.9863 45.8949 89.5921 46.3392 89.0771 46.6582C88.5667 46.9772 87.9788 47.1367 87.3135 47.1367C86.3109 47.1367 85.4974 46.7881 84.873 46.0908C84.2533 45.3936 83.9434 44.4707 83.9434 43.3223V43.2334ZM85.2148 43.3838C85.2148 44.2041 85.404 44.8626 85.7822 45.3594C86.165 45.8561 86.6755 46.1045 87.3135 46.1045C87.9561 46.1045 88.4665 45.8538 88.8447 45.3525C89.223 44.8467 89.4121 44.1403 89.4121 43.2334C89.4121 42.4222 89.2184 41.766 88.8311 41.2646C88.4482 40.7588 87.9378 40.5059 87.2998 40.5059C86.6755 40.5059 86.1719 40.7542 85.7891 41.251C85.4062 41.7477 85.2148 42.4587 85.2148 43.3838ZM95.8379 40.7383C95.6465 40.7064 95.4391 40.6904 95.2158 40.6904C94.3864 40.6904 93.8236 41.0436 93.5273 41.75V47H92.2627V39.6035H93.4932L93.5137 40.458C93.9284 39.7972 94.5163 39.4668 95.2773 39.4668C95.5234 39.4668 95.7103 39.4987 95.8379 39.5625V40.7383Z" fill="black"/>
<path d="M115.56 27.108H116.7L116.82 28.44H116.856C117.16 27.96 117.524 27.596 117.948 27.348C118.38 27.092 118.852 26.964 119.364 26.964C119.604 26.964 119.808 26.984 119.976 27.024C120.152 27.056 120.328 27.116 120.504 27.204L120.216 28.368C120.024 28.304 119.852 28.26 119.7 28.236C119.556 28.204 119.372 28.188 119.148 28.188C118.74 28.188 118.348 28.304 117.972 28.536C117.596 28.768 117.256 29.172 116.952 29.748V33H115.56V27.108ZM121.939 30.06C121.939 29.58 122.023 29.148 122.191 28.764C122.367 28.38 122.595 28.056 122.875 27.792C123.155 27.52 123.475 27.316 123.835 27.18C124.203 27.036 124.579 26.964 124.963 26.964C125.403 26.964 125.791 27.036 126.127 27.18C126.471 27.316 126.759 27.508 126.991 27.756C127.223 27.996 127.399 28.288 127.519 28.632C127.639 28.976 127.699 29.352 127.699 29.76C127.699 29.896 127.691 30.024 127.675 30.144C127.667 30.264 127.655 30.36 127.639 30.432H123.355C123.403 30.96 123.611 31.368 123.979 31.656C124.347 31.936 124.799 32.076 125.335 32.076C125.639 32.076 125.923 32.036 126.187 31.956C126.451 31.868 126.719 31.748 126.991 31.596L127.459 32.46C127.139 32.66 126.783 32.824 126.391 32.952C125.999 33.08 125.587 33.144 125.155 33.144C124.707 33.144 124.287 33.076 123.895 32.94C123.503 32.796 123.163 32.592 122.875 32.328C122.587 32.064 122.359 31.744 122.191 31.368C122.023 30.984 121.939 30.548 121.939 30.06ZM126.427 29.496C126.427 29.04 126.307 28.684 126.067 28.428C125.827 28.164 125.471 28.032 124.999 28.032C124.599 28.032 124.243 28.156 123.931 28.404C123.619 28.652 123.423 29.016 123.343 29.496H126.427ZM130.767 33.48V35.328H129.375V27.108H130.515L130.623 27.78H130.659C130.915 27.548 131.207 27.356 131.535 27.204C131.871 27.044 132.207 26.964 132.543 26.964C132.927 26.964 133.267 27.036 133.563 27.18C133.867 27.316 134.119 27.516 134.319 27.78C134.527 28.044 134.683 28.36 134.787 28.728C134.899 29.096 134.955 29.508 134.955 29.964C134.955 30.468 134.883 30.92 134.739 31.32C134.595 31.712 134.399 32.044 134.151 32.316C133.911 32.58 133.631 32.784 133.311 32.928C132.999 33.072 132.675 33.144 132.339 33.144C132.067 33.144 131.787 33.084 131.499 32.964C131.219 32.844 130.959 32.672 130.719 32.448L130.767 33.48ZM130.767 31.464C130.983 31.664 131.203 31.804 131.427 31.884C131.659 31.964 131.867 32.004 132.051 32.004C132.475 32.004 132.827 31.836 133.107 31.5C133.387 31.156 133.527 30.648 133.527 29.976C133.527 29.384 133.419 28.924 133.203 28.596C132.987 28.268 132.639 28.104 132.159 28.104C131.935 28.104 131.707 28.16 131.475 28.272C131.243 28.384 131.007 28.564 130.767 28.812V31.464ZM136.438 24.528H139.678V30.924C139.678 31.324 139.778 31.608 139.978 31.776C140.178 31.936 140.43 32.016 140.734 32.016C141.022 32.016 141.358 31.94 141.742 31.788L142.066 32.808C141.786 32.904 141.522 32.984 141.274 33.048C141.034 33.112 140.742 33.144 140.398 33.144C139.702 33.144 139.178 32.944 138.826 32.544C138.474 32.144 138.298 31.58 138.298 30.852V25.62H136.438V24.528ZM143.633 31.416C143.633 31.088 143.709 30.8 143.861 30.552C144.013 30.296 144.253 30.08 144.581 29.904C144.909 29.728 145.329 29.584 145.841 29.472C146.353 29.36 146.973 29.28 147.701 29.232C147.677 28.896 147.557 28.62 147.341 28.404C147.125 28.188 146.777 28.08 146.297 28.08C145.961 28.08 145.629 28.144 145.301 28.272C144.981 28.392 144.669 28.536 144.365 28.704L143.861 27.78C144.221 27.572 144.633 27.384 145.097 27.216C145.561 27.048 146.045 26.964 146.549 26.964C147.373 26.964 148.001 27.184 148.433 27.624C148.865 28.056 149.081 28.684 149.081 29.508V33H147.953L147.845 32.268H147.809C147.497 32.508 147.149 32.716 146.765 32.892C146.389 33.06 146.001 33.144 145.601 33.144C145.313 33.144 145.049 33.1 144.809 33.012C144.569 32.932 144.361 32.816 144.185 32.664C144.009 32.512 143.873 32.332 143.777 32.124C143.681 31.908 143.633 31.672 143.633 31.416ZM144.965 31.308C144.965 31.572 145.065 31.764 145.265 31.884C145.473 32.004 145.725 32.064 146.021 32.064C146.317 32.064 146.601 32 146.873 31.872C147.153 31.736 147.429 31.56 147.701 31.344V30.096C147.173 30.136 146.733 30.192 146.381 30.264C146.029 30.328 145.749 30.412 145.541 30.516C145.333 30.62 145.185 30.74 145.097 30.876C145.009 31.004 144.965 31.148 144.965 31.308ZM150.853 30.06C150.853 29.572 150.941 29.136 151.117 28.752C151.301 28.368 151.545 28.044 151.849 27.78C152.153 27.516 152.509 27.316 152.917 27.18C153.325 27.036 153.753 26.964 154.201 26.964C154.681 26.964 155.101 27.044 155.461 27.204C155.829 27.364 156.137 27.56 156.385 27.792L155.725 28.656C155.493 28.472 155.257 28.332 155.017 28.236C154.785 28.14 154.537 28.092 154.273 28.092C153.681 28.092 153.201 28.272 152.833 28.632C152.465 28.984 152.281 29.46 152.281 30.06C152.281 30.356 152.329 30.624 152.425 30.864C152.521 31.104 152.653 31.312 152.821 31.488C152.997 31.656 153.205 31.788 153.445 31.884C153.685 31.972 153.949 32.016 154.237 32.016C154.573 32.016 154.877 31.952 155.149 31.824C155.429 31.696 155.685 31.544 155.917 31.368L156.493 32.256C156.157 32.552 155.781 32.776 155.365 32.928C154.949 33.072 154.529 33.144 154.105 33.144C153.641 33.144 153.209 33.076 152.809 32.94C152.417 32.804 152.073 32.604 151.777 32.34C151.489 32.076 151.261 31.752 151.093 31.368C150.933 30.984 150.853 30.548 150.853 30.06ZM157.916 30.06C157.916 29.58 158 29.148 158.168 28.764C158.344 28.38 158.572 28.056 158.852 27.792C159.132 27.52 159.452 27.316 159.812 27.18C160.18 27.036 160.556 26.964 160.94 26.964C161.38 26.964 161.768 27.036 162.104 27.18C162.448 27.316 162.736 27.508 162.968 27.756C163.2 27.996 163.376 28.288 163.496 28.632C163.616 28.976 163.676 29.352 163.676 29.76C163.676 29.896 163.668 30.024 163.652 30.144C163.644 30.264 163.632 30.36 163.616 30.432H159.332C159.38 30.96 159.588 31.368 159.956 31.656C160.324 31.936 160.776 32.076 161.312 32.076C161.616 32.076 161.9 32.036 162.164 31.956C162.428 31.868 162.696 31.748 162.968 31.596L163.436 32.46C163.116 32.66 162.76 32.824 162.368 32.952C161.976 33.08 161.564 33.144 161.132 33.144C160.684 33.144 160.264 33.076 159.872 32.94C159.48 32.796 159.14 32.592 158.852 32.328C158.564 32.064 158.336 31.744 158.168 31.368C158 30.984 157.916 30.548 157.916 30.06ZM162.404 29.496C162.404 29.04 162.284 28.684 162.044 28.428C161.804 28.164 161.448 28.032 160.976 28.032C160.576 28.032 160.22 28.156 159.908 28.404C159.596 28.652 159.4 29.016 159.32 29.496H162.404ZM169.311 35.124C168.503 34.452 167.863 33.66 167.391 32.748C166.927 31.836 166.695 30.808 166.695 29.664C166.695 28.52 166.927 27.492 167.391 26.58C167.863 25.668 168.503 24.876 169.311 24.204L170.079 24.84C169.319 25.528 168.763 26.26 168.411 27.036C168.059 27.812 167.883 28.688 167.883 29.664C167.883 30.64 168.059 31.516 168.411 32.292C168.763 33.068 169.319 33.8 170.079 34.488L169.311 35.124ZM209.807 34.752C210.823 34.344 211.335 33.728 211.343 32.904C211.303 32.912 211.247 32.916 211.175 32.916C210.871 32.916 210.607 32.828 210.383 32.652C210.159 32.468 210.047 32.2 210.047 31.848C210.047 31.512 210.159 31.252 210.383 31.068C210.615 30.876 210.887 30.78 211.199 30.78C211.631 30.78 211.955 30.94 212.171 31.26C212.387 31.58 212.495 32.02 212.495 32.58C212.495 33.316 212.295 33.936 211.895 34.44C211.495 34.952 210.919 35.332 210.167 35.58L209.807 34.752ZM266.59 34.488C267.35 33.8 267.906 33.068 268.258 32.292C268.61 31.516 268.786 30.64 268.786 29.664C268.786 28.688 268.61 27.812 268.258 27.036C267.906 26.26 267.35 25.528 266.59 24.84L267.358 24.204C268.166 24.876 268.802 25.668 269.266 26.58C269.738 27.492 269.974 28.52 269.974 29.664C269.974 30.808 269.738 31.836 269.266 32.748C268.802 33.66 268.166 34.452 267.358 35.124L266.59 34.488Z" fill="#2E383C"/>
<path d="M172.883 26.304L172.847 24.768H174.527L174.491 26.304L174.131 29.076H173.243L172.883 26.304ZM175.847 26.304L175.811 24.768H177.491L177.455 26.304L177.095 29.076H176.207L175.847 26.304ZM180.318 27.108H181.458L181.578 28.44H181.614C181.918 27.96 182.282 27.596 182.706 27.348C183.138 27.092 183.61 26.964 184.122 26.964C184.362 26.964 184.566 26.984 184.734 27.024C184.91 27.056 185.086 27.116 185.262 27.204L184.974 28.368C184.782 28.304 184.61 28.26 184.458 28.236C184.314 28.204 184.13 28.188 183.906 28.188C183.498 28.188 183.106 28.304 182.73 28.536C182.354 28.768 182.014 29.172 181.71 29.748V33H180.318V27.108ZM186.697 30.06C186.697 29.58 186.781 29.148 186.949 28.764C187.125 28.38 187.353 28.056 187.633 27.792C187.913 27.52 188.233 27.316 188.593 27.18C188.961 27.036 189.337 26.964 189.721 26.964C190.161 26.964 190.549 27.036 190.885 27.18C191.229 27.316 191.517 27.508 191.749 27.756C191.981 27.996 192.157 28.288 192.277 28.632C192.397 28.976 192.457 29.352 192.457 29.76C192.457 29.896 192.449 30.024 192.433 30.144C192.425 30.264 192.413 30.36 192.397 30.432H188.113C188.161 30.96 188.369 31.368 188.737 31.656C189.105 31.936 189.557 32.076 190.093 32.076C190.397 32.076 190.681 32.036 190.945 31.956C191.209 31.868 191.477 31.748 191.749 31.596L192.217 32.46C191.897 32.66 191.541 32.824 191.149 32.952C190.757 33.08 190.345 33.144 189.913 33.144C189.465 33.144 189.045 33.076 188.653 32.94C188.261 32.796 187.921 32.592 187.633 32.328C187.345 32.064 187.117 31.744 186.949 31.368C186.781 30.984 186.697 30.548 186.697 30.06ZM191.185 29.496C191.185 29.04 191.065 28.684 190.825 28.428C190.585 28.164 190.229 28.032 189.757 28.032C189.357 28.032 189.001 28.156 188.689 28.404C188.377 28.652 188.181 29.016 188.101 29.496H191.185ZM193.784 30.06C193.784 29.58 193.856 29.148 194 28.764C194.144 28.38 194.336 28.056 194.576 27.792C194.824 27.528 195.104 27.324 195.416 27.18C195.728 27.036 196.052 26.964 196.388 26.964C196.74 26.964 197.04 27.028 197.288 27.156C197.544 27.276 197.792 27.444 198.032 27.66L197.972 26.664V24.528H199.364V33H198.224L198.116 32.316H198.08C197.848 32.548 197.576 32.744 197.264 32.904C196.96 33.064 196.64 33.144 196.304 33.144C195.928 33.144 195.584 33.076 195.272 32.94C194.96 32.796 194.692 32.592 194.468 32.328C194.252 32.064 194.084 31.744 193.964 31.368C193.844 30.984 193.784 30.548 193.784 30.06ZM195.212 30.048C195.212 30.688 195.336 31.176 195.584 31.512C195.832 31.84 196.184 32.004 196.64 32.004C197.128 32.004 197.572 31.768 197.972 31.296V28.644C197.764 28.444 197.556 28.304 197.348 28.224C197.14 28.144 196.928 28.104 196.712 28.104C196.504 28.104 196.308 28.148 196.124 28.236C195.948 28.324 195.792 28.452 195.656 28.62C195.52 28.78 195.412 28.98 195.332 29.22C195.252 29.46 195.212 29.736 195.212 30.048ZM201.664 26.304L201.628 24.768H203.308L203.272 26.304L202.912 29.076H202.024L201.664 26.304ZM204.628 26.304L204.592 24.768H206.272L206.236 26.304L205.876 29.076H204.988L204.628 26.304ZM223.25 26.304L223.214 24.768H224.894L224.858 26.304L224.498 29.076H223.61L223.25 26.304ZM226.214 26.304L226.178 24.768H227.858L227.822 26.304L227.462 29.076H226.574L226.214 26.304ZM230.109 24.528H231.501V26.712L231.453 27.744C231.709 27.504 231.997 27.316 232.317 27.18C232.637 27.036 232.957 26.964 233.277 26.964C233.661 26.964 234.001 27.036 234.297 27.18C234.593 27.316 234.845 27.516 235.053 27.78C235.261 28.036 235.417 28.348 235.521 28.716C235.633 29.084 235.689 29.496 235.689 29.952C235.689 30.456 235.617 30.908 235.473 31.308C235.329 31.7 235.133 32.032 234.885 32.304C234.645 32.576 234.365 32.784 234.045 32.928C233.733 33.072 233.409 33.144 233.073 33.144C232.793 33.144 232.501 33.076 232.197 32.94C231.893 32.804 231.613 32.608 231.357 32.352H231.321L231.201 33H230.109V24.528ZM231.501 31.464C231.717 31.664 231.941 31.804 232.173 31.884C232.405 31.964 232.613 32.004 232.797 32.004C233.213 32.004 233.561 31.836 233.841 31.5C234.121 31.156 234.261 30.648 234.261 29.976C234.261 29.384 234.153 28.924 233.937 28.596C233.721 28.268 233.373 28.104 232.893 28.104C232.669 28.104 232.441 28.16 232.209 28.272C231.977 28.384 231.741 28.564 231.501 28.812V31.464ZM237.172 24.528H240.412V30.924C240.412 31.324 240.512 31.608 240.712 31.776C240.912 31.936 241.164 32.016 241.468 32.016C241.756 32.016 242.092 31.94 242.476 31.788L242.8 32.808C242.52 32.904 242.256 32.984 242.008 33.048C241.768 33.112 241.476 33.144 241.132 33.144C240.436 33.144 239.912 32.944 239.56 32.544C239.208 32.144 239.032 31.58 239.032 30.852V25.62H237.172V24.528ZM249.696 33H248.568L248.46 32.064H248.412C248.132 32.392 247.824 32.656 247.488 32.856C247.152 33.048 246.764 33.144 246.324 33.144C245.636 33.144 245.136 32.94 244.824 32.532C244.512 32.116 244.356 31.524 244.356 30.756V27.108H245.736V30.576C245.736 31.056 245.816 31.408 245.976 31.632C246.144 31.848 246.432 31.956 246.84 31.956C247.12 31.956 247.368 31.892 247.584 31.764C247.808 31.636 248.052 31.408 248.316 31.08V27.108H249.696V33ZM251.455 30.06C251.455 29.58 251.539 29.148 251.707 28.764C251.883 28.38 252.111 28.056 252.391 27.792C252.671 27.52 252.991 27.316 253.351 27.18C253.719 27.036 254.095 26.964 254.479 26.964C254.919 26.964 255.307 27.036 255.643 27.18C255.987 27.316 256.275 27.508 256.507 27.756C256.739 27.996 256.915 28.288 257.035 28.632C257.155 28.976 257.215 29.352 257.215 29.76C257.215 29.896 257.207 30.024 257.191 30.144C257.183 30.264 257.171 30.36 257.155 30.432H252.871C252.919 30.96 253.127 31.368 253.495 31.656C253.863 31.936 254.315 32.076 254.851 32.076C255.155 32.076 255.439 32.036 255.703 31.956C255.967 31.868 256.235 31.748 256.507 31.596L256.975 32.46C256.655 32.66 256.299 32.824 255.907 32.952C255.515 33.08 255.103 33.144 254.671 33.144C254.223 33.144 253.803 33.076 253.411 32.94C253.019 32.796 252.679 32.592 252.391 32.328C252.103 32.064 251.875 31.744 251.707 31.368C251.539 30.984 251.455 30.548 251.455 30.06ZM255.943 29.496C255.943 29.04 255.823 28.684 255.583 28.428C255.343 28.164 254.987 28.032 254.515 28.032C254.115 28.032 253.759 28.156 253.447 28.404C253.135 28.652 252.939 29.016 252.859 29.496H255.943ZM259.226 26.304L259.19 24.768H260.87L260.834 26.304L260.474 29.076H259.586L259.226 26.304ZM262.19 26.304L262.154 24.768H263.834L263.798 26.304L263.438 29.076H262.55L262.19 26.304Z" fill="#B82629"/>
</svg>
