<svg width="400" height="71" viewBox="0 0 400 71" fill="none" xmlns="http://www.w3.org/2000/svg">
<rect width="400" height="71" fill="white"/>
<path d="M293.061 47.0607C293.646 46.4749 293.646 45.5251 293.061 44.9394L283.515 35.3934C282.929 34.8076 281.979 34.8076 281.393 35.3934C280.808 35.9792 280.808 36.9289 281.393 37.5147L289.879 46L281.393 54.4853C280.808 55.0711 280.808 56.0208 281.393 56.6066C281.979 57.1924 282.929 57.1924 283.515 56.6066L293.061 47.0607ZM103 47.5L292 47.5L292 44.5L103 44.5L103 47.5Z" fill="#2E383C"/>
<path d="M319.201 27.3564H317.567V31H315.517V21.0469H319.215C320.391 21.0469 321.298 21.3089 321.936 21.833C322.574 22.3571 322.893 23.0977 322.893 24.0547C322.893 24.7337 322.744 25.3011 322.448 25.7568C322.157 26.208 321.712 26.568 321.115 26.8369L323.269 30.9043V31H321.067L319.201 27.3564ZM317.567 25.6953H319.222C319.737 25.6953 320.135 25.5654 320.418 25.3057C320.701 25.0413 320.842 24.679 320.842 24.2188C320.842 23.7493 320.707 23.3802 320.438 23.1113C320.174 22.8424 319.766 22.708 319.215 22.708H317.567V25.6953ZM331.355 43.3564H329.722V47H327.671V37.0469H331.369C332.545 37.0469 333.452 37.3089 334.09 37.833C334.728 38.3571 335.047 39.0977 335.047 40.0547C335.047 40.7337 334.899 41.3011 334.603 41.7568C334.311 42.208 333.867 42.568 333.27 42.8369L335.423 46.9043V47H333.222L331.355 43.3564ZM329.722 41.6953H331.376C331.891 41.6953 332.29 41.5654 332.572 41.3057C332.855 41.0413 332.996 40.679 332.996 40.2188C332.996 39.7493 332.862 39.3802 332.593 39.1113C332.328 38.8424 331.921 38.708 331.369 38.708H329.722V41.6953ZM385.879 43.3564H384.245V47H382.194V37.0469H385.893C387.068 37.0469 387.975 37.3089 388.613 37.833C389.251 38.3571 389.57 39.0977 389.57 40.0547C389.57 40.7337 389.422 41.3011 389.126 41.7568C388.834 42.208 388.39 42.568 387.793 42.8369L389.946 46.9043V47H387.745L385.879 43.3564ZM384.245 41.6953H385.899C386.414 41.6953 386.813 41.5654 387.096 41.3057C387.378 41.0413 387.52 40.679 387.52 40.2188C387.52 39.7493 387.385 39.3802 387.116 39.1113C386.852 38.8424 386.444 38.708 385.893 38.708H384.245V41.6953Z" fill="#0072B2"/>
<path d="M327.596 31.1367C326.593 31.1367 325.777 30.8086 325.148 30.1523C324.52 29.4915 324.205 28.6097 324.205 27.5068V27.2744C324.205 26.5407 324.344 25.8867 324.622 25.3125C324.905 24.7337 325.297 24.2826 325.798 23.959C326.304 23.6309 326.851 23.4668 327.438 23.4668C328.4 23.4668 329.147 23.7835 329.681 24.417C330.214 25.0505 330.48 25.9574 330.48 27.1377V27.6641H325.47C325.488 28.3932 325.7 28.9834 326.105 29.4346C326.516 29.8812 327.035 30.1045 327.664 30.1045C328.111 30.1045 328.489 30.0133 328.799 29.8311C329.109 29.6488 329.38 29.4072 329.612 29.1064L330.385 29.708C329.765 30.6605 328.835 31.1367 327.596 31.1367ZM327.438 24.5059C326.928 24.5059 326.5 24.6927 326.153 25.0664C325.807 25.4355 325.593 25.9551 325.511 26.625H329.216V26.5293C329.179 25.8867 329.006 25.39 328.696 25.0391C328.386 24.6836 327.967 24.5059 327.438 24.5059ZM331.643 27.2402C331.643 26.1055 331.911 25.194 332.449 24.5059C332.987 23.8132 333.691 23.4668 334.562 23.4668C335.427 23.4668 336.113 23.763 336.619 24.3555V20.5H337.884V31H336.722L336.66 30.207C336.154 30.8268 335.45 31.1367 334.548 31.1367C333.691 31.1367 332.992 30.7858 332.449 30.084C331.911 29.3822 331.643 28.4661 331.643 27.3359V27.2402ZM332.907 27.3838C332.907 28.2223 333.08 28.8786 333.427 29.3525C333.773 29.8265 334.252 30.0635 334.862 30.0635C335.664 30.0635 336.25 29.7035 336.619 28.9834V25.5859C336.241 24.8887 335.66 24.54 334.876 24.54C334.256 24.54 333.773 24.7793 333.427 25.2578C333.08 25.7363 332.907 26.445 332.907 27.3838ZM344.699 31H343.435V23.6035H344.699V31ZM343.332 21.6416C343.332 21.4365 343.394 21.2633 343.517 21.1221C343.644 20.9808 343.831 20.9102 344.077 20.9102C344.323 20.9102 344.51 20.9808 344.638 21.1221C344.765 21.2633 344.829 21.4365 344.829 21.6416C344.829 21.8467 344.765 22.0176 344.638 22.1543C344.51 22.291 344.323 22.3594 344.077 22.3594C343.831 22.3594 343.644 22.291 343.517 22.1543C343.394 22.0176 343.332 21.8467 343.332 21.6416ZM351.036 29.0381C351.036 28.6963 350.906 28.432 350.646 28.2451C350.391 28.0537 349.942 27.8896 349.3 27.7529C348.662 27.6162 348.154 27.4521 347.775 27.2607C347.402 27.0693 347.124 26.8415 346.941 26.5771C346.764 26.3128 346.675 25.9984 346.675 25.6338C346.675 25.0277 346.93 24.515 347.44 24.0957C347.955 23.6764 348.612 23.4668 349.409 23.4668C350.248 23.4668 350.927 23.6833 351.446 24.1162C351.97 24.5492 352.232 25.1029 352.232 25.7773H350.961C350.961 25.431 350.813 25.1325 350.517 24.8818C350.225 24.6312 349.856 24.5059 349.409 24.5059C348.949 24.5059 348.589 24.6061 348.329 24.8066C348.069 25.0072 347.939 25.2692 347.939 25.5928C347.939 25.8981 348.06 26.1283 348.302 26.2832C348.543 26.4382 348.979 26.5863 349.607 26.7275C350.241 26.8688 350.754 27.0374 351.146 27.2334C351.537 27.4294 351.827 27.6663 352.014 27.9443C352.205 28.2178 352.301 28.5527 352.301 28.9492C352.301 29.61 352.036 30.141 351.508 30.542C350.979 30.9385 350.293 31.1367 349.45 31.1367C348.858 31.1367 348.334 31.0319 347.878 30.8223C347.422 30.6126 347.064 30.321 346.805 29.9473C346.549 29.569 346.422 29.1611 346.422 28.7236H347.687C347.709 29.1475 347.878 29.4847 348.192 29.7354C348.511 29.9814 348.931 30.1045 349.45 30.1045C349.929 30.1045 350.312 30.0088 350.599 29.8174C350.89 29.6214 351.036 29.3617 351.036 29.0381ZM358.61 23.6035L358.645 24.4238C359.187 23.7858 359.918 23.4668 360.839 23.4668C361.873 23.4668 362.577 23.8633 362.951 24.6562C363.197 24.3008 363.516 24.0137 363.908 23.7949C364.305 23.5762 364.772 23.4668 365.31 23.4668C366.932 23.4668 367.757 24.3258 367.784 26.0439V31H366.52V26.1191C366.52 25.5905 366.399 25.1963 366.157 24.9365C365.916 24.6722 365.51 24.54 364.94 24.54C364.471 24.54 364.081 24.6813 363.771 24.9639C363.462 25.2419 363.282 25.6178 363.231 26.0918V31H361.96V26.1533C361.96 25.0778 361.434 24.54 360.381 24.54C359.551 24.54 358.984 24.8932 358.679 25.5996V31H357.414V23.6035H358.61ZM372.118 29.1475L373.841 23.6035H375.194L372.221 32.1416C371.76 33.3721 371.029 33.9873 370.026 33.9873L369.787 33.9668L369.315 33.8779V32.8525L369.657 32.8799C370.086 32.8799 370.418 32.7933 370.655 32.6201C370.897 32.4469 371.095 32.1302 371.25 31.6699L371.53 30.918L368.892 23.6035H370.272L372.118 29.1475ZM301.332 47V40.5811H300.163V39.6035H301.332V38.8447C301.332 38.0518 301.544 37.4388 301.968 37.0059C302.392 36.5729 302.991 36.3564 303.766 36.3564C304.057 36.3564 304.347 36.3952 304.634 36.4727L304.565 37.498C304.351 37.457 304.123 37.4365 303.882 37.4365C303.472 37.4365 303.155 37.5573 302.932 37.7988C302.708 38.0358 302.597 38.3776 302.597 38.8242V39.6035H304.176V40.5811H302.597V47H301.332ZM310.144 47C310.071 46.8542 310.011 46.5944 309.966 46.2207C309.378 46.8314 308.676 47.1367 307.86 47.1367C307.131 47.1367 306.532 46.9316 306.062 46.5215C305.598 46.1068 305.365 45.5827 305.365 44.9492C305.365 44.179 305.657 43.582 306.24 43.1582C306.828 42.7298 307.653 42.5156 308.715 42.5156H309.945V41.9346C309.945 41.4925 309.813 41.1416 309.549 40.8818C309.285 40.6175 308.895 40.4854 308.38 40.4854C307.929 40.4854 307.55 40.5993 307.245 40.8271C306.94 41.055 306.787 41.3307 306.787 41.6543H305.516C305.516 41.2852 305.646 40.9297 305.905 40.5879C306.17 40.2415 306.525 39.9681 306.972 39.7676C307.423 39.5671 307.917 39.4668 308.455 39.4668C309.307 39.4668 309.975 39.681 310.458 40.1094C310.941 40.5332 311.192 41.1188 311.21 41.8662V45.2705C311.21 45.9495 311.297 46.4896 311.47 46.8906V47H310.144ZM308.045 46.0361C308.441 46.0361 308.817 45.9336 309.173 45.7285C309.528 45.5234 309.786 45.2568 309.945 44.9287V43.4111H308.954C307.405 43.4111 306.63 43.8646 306.63 44.7715C306.63 45.168 306.762 45.4779 307.026 45.7012C307.291 45.9245 307.63 46.0361 308.045 46.0361ZM315.523 45.2842L317.355 39.6035H318.647L315.995 47H315.031L312.352 39.6035H313.644L315.523 45.2842ZM319.42 43.2334C319.42 42.5088 319.561 41.8571 319.844 41.2783C320.131 40.6995 320.527 40.2529 321.033 39.9385C321.544 39.624 322.125 39.4668 322.776 39.4668C323.784 39.4668 324.597 39.8154 325.217 40.5127C325.841 41.21 326.153 42.1374 326.153 43.2949V43.3838C326.153 44.1038 326.014 44.751 325.736 45.3252C325.463 45.8949 325.069 46.3392 324.554 46.6582C324.043 46.9772 323.455 47.1367 322.79 47.1367C321.787 47.1367 320.974 46.7881 320.35 46.0908C319.73 45.3936 319.42 44.4707 319.42 43.3223V43.2334ZM320.691 43.3838C320.691 44.2041 320.881 44.8626 321.259 45.3594C321.642 45.8561 322.152 46.1045 322.79 46.1045C323.433 46.1045 323.943 45.8538 324.321 45.3525C324.7 44.8467 324.889 44.1403 324.889 43.2334C324.889 42.4222 324.695 41.766 324.308 41.2646C323.925 40.7588 323.414 40.5059 322.776 40.5059C322.152 40.5059 321.648 40.7542 321.266 41.251C320.883 41.7477 320.691 42.4587 320.691 43.3838ZM338.055 47H336.79V39.6035H338.055V47ZM336.688 37.6416C336.688 37.4365 336.749 37.2633 336.872 37.1221C337 36.9808 337.187 36.9102 337.433 36.9102C337.679 36.9102 337.866 36.9808 337.993 37.1221C338.121 37.2633 338.185 37.4365 338.185 37.6416C338.185 37.8467 338.121 38.0176 337.993 38.1543C337.866 38.291 337.679 38.3594 337.433 38.3594C337.187 38.3594 337 38.291 336.872 38.1543C336.749 38.0176 336.688 37.8467 336.688 37.6416ZM341.801 37.8125V39.6035H343.182V40.5811H341.801V45.168C341.801 45.4642 341.862 45.6875 341.985 45.8379C342.108 45.9837 342.318 46.0566 342.614 46.0566C342.76 46.0566 342.961 46.0293 343.216 45.9746V47C342.883 47.0911 342.56 47.1367 342.245 47.1367C341.68 47.1367 341.254 46.9658 340.967 46.624C340.68 46.2822 340.536 45.7969 340.536 45.168V40.5811H339.189V39.6035H340.536V37.8125H341.801ZM347.734 47.1367C346.732 47.1367 345.916 46.8086 345.287 46.1523C344.658 45.4915 344.344 44.6097 344.344 43.5068V43.2744C344.344 42.5407 344.483 41.8867 344.761 41.3125C345.043 40.7337 345.435 40.2826 345.937 39.959C346.442 39.6309 346.989 39.4668 347.577 39.4668C348.539 39.4668 349.286 39.7835 349.819 40.417C350.353 41.0505 350.619 41.9574 350.619 43.1377V43.6641H345.608C345.627 44.3932 345.839 44.9834 346.244 45.4346C346.654 45.8812 347.174 46.1045 347.803 46.1045C348.249 46.1045 348.628 46.0133 348.938 45.8311C349.247 45.6488 349.519 45.4072 349.751 45.1064L350.523 45.708C349.904 46.6605 348.974 47.1367 347.734 47.1367ZM347.577 40.5059C347.067 40.5059 346.638 40.6927 346.292 41.0664C345.946 41.4355 345.731 41.9551 345.649 42.625H349.354V42.5293C349.318 41.8867 349.145 41.39 348.835 41.0391C348.525 40.6836 348.106 40.5059 347.577 40.5059ZM358.528 46.1045C358.979 46.1045 359.374 45.9678 359.711 45.6943C360.048 45.4209 360.235 45.0791 360.271 44.6689H361.468C361.445 45.0928 361.299 45.4961 361.03 45.8789C360.761 46.2617 360.401 46.5671 359.95 46.7949C359.504 47.0228 359.03 47.1367 358.528 47.1367C357.521 47.1367 356.719 46.8018 356.122 46.1318C355.53 45.4574 355.233 44.5368 355.233 43.3701V43.1582C355.233 42.4382 355.366 41.7979 355.63 41.2373C355.894 40.6768 356.272 40.2415 356.765 39.9316C357.261 39.6217 357.847 39.4668 358.521 39.4668C359.351 39.4668 360.039 39.7152 360.586 40.2119C361.137 40.7087 361.431 41.3535 361.468 42.1465H360.271C360.235 41.668 360.053 41.276 359.725 40.9707C359.401 40.6608 359 40.5059 358.521 40.5059C357.879 40.5059 357.38 40.7383 357.024 41.2031C356.674 41.6634 356.498 42.3311 356.498 43.2061V43.4453C356.498 44.2975 356.674 44.9538 357.024 45.4141C357.375 45.8743 357.877 46.1045 358.528 46.1045ZM362.555 43.2334C362.555 42.5088 362.696 41.8571 362.979 41.2783C363.266 40.6995 363.662 40.2529 364.168 39.9385C364.678 39.624 365.259 39.4668 365.911 39.4668C366.918 39.4668 367.732 39.8154 368.352 40.5127C368.976 41.21 369.288 42.1374 369.288 43.2949V43.3838C369.288 44.1038 369.149 44.751 368.871 45.3252C368.598 45.8949 368.203 46.3392 367.688 46.6582C367.178 46.9772 366.59 47.1367 365.925 47.1367C364.922 47.1367 364.109 46.7881 363.484 46.0908C362.865 45.3936 362.555 44.4707 362.555 43.3223V43.2334ZM363.826 43.3838C363.826 44.2041 364.015 44.8626 364.394 45.3594C364.776 45.8561 365.287 46.1045 365.925 46.1045C366.567 46.1045 367.078 45.8538 367.456 45.3525C367.834 44.8467 368.023 44.1403 368.023 43.2334C368.023 42.4222 367.83 41.766 367.442 41.2646C367.06 40.7588 366.549 40.5059 365.911 40.5059C365.287 40.5059 364.783 40.7542 364.4 41.251C364.018 41.7477 363.826 42.4587 363.826 43.3838ZM372.248 47H370.983V36.5H372.248V47ZM373.943 43.2334C373.943 42.5088 374.085 41.8571 374.367 41.2783C374.654 40.6995 375.051 40.2529 375.557 39.9385C376.067 39.624 376.648 39.4668 377.3 39.4668C378.307 39.4668 379.12 39.8154 379.74 40.5127C380.365 41.21 380.677 42.1374 380.677 43.2949V43.3838C380.677 44.1038 380.538 44.751 380.26 45.3252C379.986 45.8949 379.592 46.3392 379.077 46.6582C378.567 46.9772 377.979 47.1367 377.313 47.1367C376.311 47.1367 375.497 46.7881 374.873 46.0908C374.253 45.3936 373.943 44.4707 373.943 43.3223V43.2334ZM375.215 43.3838C375.215 44.2041 375.404 44.8626 375.782 45.3594C376.165 45.8561 376.675 46.1045 377.313 46.1045C377.956 46.1045 378.466 45.8538 378.845 45.3525C379.223 44.8467 379.412 44.1403 379.412 43.2334C379.412 42.4222 379.218 41.766 378.831 41.2646C378.448 40.7588 377.938 40.5059 377.3 40.5059C376.675 40.5059 376.172 40.7542 375.789 41.251C375.406 41.7477 375.215 42.4587 375.215 43.3838Z" fill="black"/>
<path d="M31.457 25.4561C31.1882 25.4196 30.9512 25.4014 30.7461 25.4014C29.9987 25.4014 29.5088 25.6543 29.2764 26.1602V31H27.3008V23.6035H29.167L29.2217 24.4854C29.6182 23.8063 30.1673 23.4668 30.8691 23.4668C31.0879 23.4668 31.293 23.4964 31.4844 23.5557L31.457 25.4561ZM45.5254 41.4561C45.2565 41.4196 45.0195 41.4014 44.8145 41.4014C44.0671 41.4014 43.5771 41.6543 43.3447 42.1602V47H41.3691V39.6035H43.2354L43.29 40.4854C43.6865 39.8063 44.2357 39.4668 44.9375 39.4668C45.1562 39.4668 45.3613 39.4964 45.5527 39.5557L45.5254 41.4561ZM96.2207 41.4561C95.9518 41.4196 95.7148 41.4014 95.5098 41.4014C94.7624 41.4014 94.2725 41.6543 94.04 42.1602V47H92.0645V39.6035H93.9307L93.9854 40.4854C94.3818 39.8063 94.931 39.4668 95.6328 39.4668C95.8516 39.4668 96.0566 39.4964 96.248 39.5557L96.2207 41.4561Z" fill="#EB5757"/>
<path d="M35.6816 31.1367C34.679 31.1367 33.8633 30.8086 33.2344 30.1523C32.6055 29.4915 32.291 28.6097 32.291 27.5068V27.2744C32.291 26.5407 32.43 25.8867 32.708 25.3125C32.9906 24.7337 33.3825 24.2826 33.8838 23.959C34.3896 23.6309 34.9365 23.4668 35.5244 23.4668C36.486 23.4668 37.2334 23.7835 37.7666 24.417C38.2998 25.0505 38.5664 25.9574 38.5664 27.1377V27.6641H33.5557C33.5739 28.3932 33.7858 28.9834 34.1914 29.4346C34.6016 29.8812 35.1211 30.1045 35.75 30.1045C36.1966 30.1045 36.5749 30.0133 36.8848 29.8311C37.1947 29.6488 37.4658 29.4072 37.6982 29.1064L38.4707 29.708C37.8509 30.6605 36.9212 31.1367 35.6816 31.1367ZM35.5244 24.5059C35.014 24.5059 34.5856 24.6927 34.2393 25.0664C33.8929 25.4355 33.6787 25.9551 33.5967 26.625H37.3018V26.5293C37.2653 25.8867 37.0921 25.39 36.7822 25.0391C36.4723 24.6836 36.0531 24.5059 35.5244 24.5059ZM39.7285 27.2402C39.7285 26.1055 39.9974 25.194 40.5352 24.5059C41.0729 23.8132 41.777 23.4668 42.6475 23.4668C43.5133 23.4668 44.1992 23.763 44.7051 24.3555V20.5H45.9697V31H44.8076L44.7461 30.207C44.2402 30.8268 43.5361 31.1367 42.6338 31.1367C41.777 31.1367 41.0775 30.7858 40.5352 30.084C39.9974 29.3822 39.7285 28.4661 39.7285 27.3359V27.2402ZM40.9932 27.3838C40.9932 28.2223 41.1663 28.8786 41.5127 29.3525C41.859 29.8265 42.3376 30.0635 42.9482 30.0635C43.7503 30.0635 44.3359 29.7035 44.7051 28.9834V25.5859C44.3268 24.8887 43.7458 24.54 42.9619 24.54C42.3421 24.54 41.859 24.7793 41.5127 25.2578C41.1663 25.7363 40.9932 26.445 40.9932 27.3838ZM52.7852 31H51.5205V23.6035H52.7852V31ZM51.418 21.6416C51.418 21.4365 51.4795 21.2633 51.6025 21.1221C51.7301 20.9808 51.917 20.9102 52.1631 20.9102C52.4092 20.9102 52.596 20.9808 52.7236 21.1221C52.8512 21.2633 52.915 21.4365 52.915 21.6416C52.915 21.8467 52.8512 22.0176 52.7236 22.1543C52.596 22.291 52.4092 22.3594 52.1631 22.3594C51.917 22.3594 51.7301 22.291 51.6025 22.1543C51.4795 22.0176 51.418 21.8467 51.418 21.6416ZM59.1221 29.0381C59.1221 28.6963 58.9922 28.432 58.7324 28.2451C58.4772 28.0537 58.0283 27.8896 57.3857 27.7529C56.7477 27.6162 56.2396 27.4521 55.8613 27.2607C55.4876 27.0693 55.2096 26.8415 55.0273 26.5771C54.8496 26.3128 54.7607 25.9984 54.7607 25.6338C54.7607 25.0277 55.016 24.515 55.5264 24.0957C56.0413 23.6764 56.6976 23.4668 57.4951 23.4668C58.3337 23.4668 59.0127 23.6833 59.5322 24.1162C60.0563 24.5492 60.3184 25.1029 60.3184 25.7773H59.0469C59.0469 25.431 58.8988 25.1325 58.6025 24.8818C58.3109 24.6312 57.9417 24.5059 57.4951 24.5059C57.0348 24.5059 56.6748 24.6061 56.415 24.8066C56.1553 25.0072 56.0254 25.2692 56.0254 25.5928C56.0254 25.8981 56.1462 26.1283 56.3877 26.2832C56.6292 26.4382 57.0645 26.5863 57.6934 26.7275C58.3268 26.8688 58.8395 27.0374 59.2314 27.2334C59.6234 27.4294 59.9128 27.6663 60.0996 27.9443C60.291 28.2178 60.3867 28.5527 60.3867 28.9492C60.3867 29.61 60.1224 30.141 59.5938 30.542C59.0651 30.9385 58.3792 31.1367 57.5361 31.1367C56.9437 31.1367 56.4196 31.0319 55.9639 30.8223C55.5081 30.6126 55.1504 30.321 54.8906 29.9473C54.6354 29.569 54.5078 29.1611 54.5078 28.7236H55.7725C55.7952 29.1475 55.9639 29.4847 56.2783 29.7354C56.5973 29.9814 57.0166 30.1045 57.5361 30.1045C58.0146 30.1045 58.3975 30.0088 58.6846 29.8174C58.9762 29.6214 59.1221 29.3617 59.1221 29.0381ZM66.6963 23.6035L66.7305 24.4238C67.2728 23.7858 68.0042 23.4668 68.9248 23.4668C69.9593 23.4668 70.6634 23.8633 71.0371 24.6562C71.2832 24.3008 71.6022 24.0137 71.9941 23.7949C72.3906 23.5762 72.8577 23.4668 73.3955 23.4668C75.0179 23.4668 75.8428 24.3258 75.8701 26.0439V31H74.6055V26.1191C74.6055 25.5905 74.4847 25.1963 74.2432 24.9365C74.0016 24.6722 73.596 24.54 73.0264 24.54C72.557 24.54 72.1673 24.6813 71.8574 24.9639C71.5475 25.2419 71.3675 25.6178 71.3174 26.0918V31H70.0459V26.1533C70.0459 25.0778 69.5195 24.54 68.4668 24.54C67.6374 24.54 67.07 24.8932 66.7646 25.5996V31H65.5V23.6035H66.6963ZM80.2041 29.1475L81.9268 23.6035H83.2803L80.3066 32.1416C79.8464 33.3721 79.1149 33.9873 78.1123 33.9873L77.873 33.9668L77.4014 33.8779V32.8525L77.7432 32.8799C78.1715 32.8799 78.5042 32.7933 78.7412 32.6201C78.9827 32.4469 79.181 32.1302 79.3359 31.6699L79.6162 30.918L76.9775 23.6035H78.3584L80.2041 29.1475ZM15.1602 47V40.5811H13.9912V39.6035H15.1602V38.8447C15.1602 38.0518 15.3721 37.4388 15.7959 37.0059C16.2197 36.5729 16.819 36.3564 17.5938 36.3564C17.8854 36.3564 18.1748 36.3952 18.4619 36.4727L18.3936 37.498C18.1794 37.457 17.9515 37.4365 17.71 37.4365C17.2998 37.4365 16.9831 37.5573 16.7598 37.7988C16.5365 38.0358 16.4248 38.3776 16.4248 38.8242V39.6035H18.0039V40.5811H16.4248V47H15.1602ZM23.9717 47C23.8988 46.8542 23.8395 46.5944 23.7939 46.2207C23.2061 46.8314 22.5042 47.1367 21.6885 47.1367C20.9593 47.1367 20.36 46.9316 19.8906 46.5215C19.4258 46.1068 19.1934 45.5827 19.1934 44.9492C19.1934 44.179 19.485 43.582 20.0684 43.1582C20.6562 42.7298 21.4811 42.5156 22.543 42.5156H23.7734V41.9346C23.7734 41.4925 23.6413 41.1416 23.377 40.8818C23.1126 40.6175 22.723 40.4854 22.208 40.4854C21.7568 40.4854 21.3786 40.5993 21.0732 40.8271C20.7679 41.055 20.6152 41.3307 20.6152 41.6543H19.3438C19.3438 41.2852 19.4736 40.9297 19.7334 40.5879C19.9977 40.2415 20.3532 39.9681 20.7998 39.7676C21.251 39.5671 21.7454 39.4668 22.2832 39.4668C23.1354 39.4668 23.8031 39.681 24.2861 40.1094C24.7692 40.5332 25.0199 41.1188 25.0381 41.8662V45.2705C25.0381 45.9495 25.1247 46.4896 25.2979 46.8906V47H23.9717ZM21.873 46.0361C22.2695 46.0361 22.6455 45.9336 23.001 45.7285C23.3564 45.5234 23.6139 45.2568 23.7734 44.9287V43.4111H22.7822C21.2327 43.4111 20.458 43.8646 20.458 44.7715C20.458 45.168 20.5902 45.4779 20.8545 45.7012C21.1188 45.9245 21.4583 46.0361 21.873 46.0361ZM29.3516 45.2842L31.1836 39.6035H32.4756L29.8232 47H28.8594L26.1797 39.6035H27.4717L29.3516 45.2842ZM33.248 43.2334C33.248 42.5088 33.3893 41.8571 33.6719 41.2783C33.959 40.6995 34.3555 40.2529 34.8613 39.9385C35.3717 39.624 35.9528 39.4668 36.6045 39.4668C37.6117 39.4668 38.4251 39.8154 39.0449 40.5127C39.6693 41.21 39.9814 42.1374 39.9814 43.2949V43.3838C39.9814 44.1038 39.8424 44.751 39.5645 45.3252C39.291 45.8949 38.8968 46.3392 38.3818 46.6582C37.8714 46.9772 37.2835 47.1367 36.6182 47.1367C35.6156 47.1367 34.8021 46.7881 34.1777 46.0908C33.5579 45.3936 33.248 44.4707 33.248 43.3223V43.2334ZM34.5195 43.3838C34.5195 44.2041 34.7087 44.8626 35.0869 45.3594C35.4697 45.8561 35.9801 46.1045 36.6182 46.1045C37.2607 46.1045 37.7712 45.8538 38.1494 45.3525C38.5277 44.8467 38.7168 44.1403 38.7168 43.2334C38.7168 42.4222 38.5231 41.766 38.1357 41.2646C37.7529 40.7588 37.2425 40.5059 36.6045 40.5059C35.9801 40.5059 35.4766 40.7542 35.0938 41.251C34.7109 41.7477 34.5195 42.4587 34.5195 43.3838ZM48.0547 47H46.79V39.6035H48.0547V47ZM46.6875 37.6416C46.6875 37.4365 46.749 37.2633 46.8721 37.1221C46.9997 36.9808 47.1865 36.9102 47.4326 36.9102C47.6787 36.9102 47.8656 36.9808 47.9932 37.1221C48.1208 37.2633 48.1846 37.4365 48.1846 37.6416C48.1846 37.8467 48.1208 38.0176 47.9932 38.1543C47.8656 38.291 47.6787 38.3594 47.4326 38.3594C47.1865 38.3594 46.9997 38.291 46.8721 38.1543C46.749 38.0176 46.6875 37.8467 46.6875 37.6416ZM51.8008 37.8125V39.6035H53.1816V40.5811H51.8008V45.168C51.8008 45.4642 51.8623 45.6875 51.9854 45.8379C52.1084 45.9837 52.318 46.0566 52.6143 46.0566C52.7601 46.0566 52.9606 46.0293 53.2158 45.9746V47C52.8831 47.0911 52.5596 47.1367 52.2451 47.1367C51.68 47.1367 51.2539 46.9658 50.9668 46.624C50.6797 46.2822 50.5361 45.7969 50.5361 45.168V40.5811H49.1895V39.6035H50.5361V37.8125H51.8008ZM57.7344 47.1367C56.7318 47.1367 55.916 46.8086 55.2871 46.1523C54.6582 45.4915 54.3438 44.6097 54.3438 43.5068V43.2744C54.3438 42.5407 54.4827 41.8867 54.7607 41.3125C55.0433 40.7337 55.4352 40.2826 55.9365 39.959C56.4424 39.6309 56.9893 39.4668 57.5771 39.4668C58.5387 39.4668 59.2861 39.7835 59.8193 40.417C60.3525 41.0505 60.6191 41.9574 60.6191 43.1377V43.6641H55.6084C55.6266 44.3932 55.8385 44.9834 56.2441 45.4346C56.6543 45.8812 57.1738 46.1045 57.8027 46.1045C58.2493 46.1045 58.6276 46.0133 58.9375 45.8311C59.2474 45.6488 59.5186 45.4072 59.751 45.1064L60.5234 45.708C59.9036 46.6605 58.974 47.1367 57.7344 47.1367ZM57.5771 40.5059C57.0667 40.5059 56.6383 40.6927 56.292 41.0664C55.9456 41.4355 55.7314 41.9551 55.6494 42.625H59.3545V42.5293C59.318 41.8867 59.1449 41.39 58.835 41.0391C58.5251 40.6836 58.1058 40.5059 57.5771 40.5059ZM68.5283 46.1045C68.9795 46.1045 69.3737 45.9678 69.7109 45.6943C70.0482 45.4209 70.235 45.0791 70.2715 44.6689H71.4678C71.445 45.0928 71.2992 45.4961 71.0303 45.8789C70.7614 46.2617 70.4014 46.5671 69.9502 46.7949C69.5036 47.0228 69.0296 47.1367 68.5283 47.1367C67.5212 47.1367 66.7191 46.8018 66.1221 46.1318C65.5296 45.4574 65.2334 44.5368 65.2334 43.3701V43.1582C65.2334 42.4382 65.3656 41.7979 65.6299 41.2373C65.8942 40.6768 66.2725 40.2415 66.7646 39.9316C67.2614 39.6217 67.847 39.4668 68.5215 39.4668C69.3509 39.4668 70.0391 39.7152 70.5859 40.2119C71.1374 40.7087 71.4313 41.3535 71.4678 42.1465H70.2715C70.235 41.668 70.0527 41.276 69.7246 40.9707C69.401 40.6608 69 40.5059 68.5215 40.5059C67.8789 40.5059 67.3799 40.7383 67.0244 41.2031C66.6735 41.6634 66.498 42.3311 66.498 43.2061V43.4453C66.498 44.2975 66.6735 44.9538 67.0244 45.4141C67.3753 45.8743 67.8766 46.1045 68.5283 46.1045ZM72.5547 43.2334C72.5547 42.5088 72.696 41.8571 72.9785 41.2783C73.2656 40.6995 73.6621 40.2529 74.168 39.9385C74.6784 39.624 75.2594 39.4668 75.9111 39.4668C76.9183 39.4668 77.7318 39.8154 78.3516 40.5127C78.9759 41.21 79.2881 42.1374 79.2881 43.2949V43.3838C79.2881 44.1038 79.1491 44.751 78.8711 45.3252C78.5977 45.8949 78.2035 46.3392 77.6885 46.6582C77.1781 46.9772 76.5902 47.1367 75.9248 47.1367C74.9222 47.1367 74.1087 46.7881 73.4844 46.0908C72.8646 45.3936 72.5547 44.4707 72.5547 43.3223V43.2334ZM73.8262 43.3838C73.8262 44.2041 74.0153 44.8626 74.3936 45.3594C74.7764 45.8561 75.2868 46.1045 75.9248 46.1045C76.5674 46.1045 77.0778 45.8538 77.4561 45.3525C77.8343 44.8467 78.0234 44.1403 78.0234 43.2334C78.0234 42.4222 77.8298 41.766 77.4424 41.2646C77.0596 40.7588 76.5492 40.5059 75.9111 40.5059C75.2868 40.5059 74.7832 40.7542 74.4004 41.251C74.0176 41.7477 73.8262 42.4587 73.8262 43.3838ZM82.248 47H80.9834V36.5H82.248V47ZM83.9434 43.2334C83.9434 42.5088 84.0846 41.8571 84.3672 41.2783C84.6543 40.6995 85.0508 40.2529 85.5566 39.9385C86.0671 39.624 86.6481 39.4668 87.2998 39.4668C88.307 39.4668 89.1204 39.8154 89.7402 40.5127C90.3646 41.21 90.6768 42.1374 90.6768 43.2949V43.3838C90.6768 44.1038 90.5378 44.751 90.2598 45.3252C89.9863 45.8949 89.5921 46.3392 89.0771 46.6582C88.5667 46.9772 87.9788 47.1367 87.3135 47.1367C86.3109 47.1367 85.4974 46.7881 84.873 46.0908C84.2533 45.3936 83.9434 44.4707 83.9434 43.3223V43.2334ZM85.2148 43.3838C85.2148 44.2041 85.404 44.8626 85.7822 45.3594C86.165 45.8561 86.6755 46.1045 87.3135 46.1045C87.9561 46.1045 88.4665 45.8538 88.8447 45.3525C89.223 44.8467 89.4121 44.1403 89.4121 43.2334C89.4121 42.4222 89.2184 41.766 88.8311 41.2646C88.4482 40.7588 87.9378 40.5059 87.2998 40.5059C86.6755 40.5059 86.1719 40.7542 85.7891 41.251C85.4062 41.7477 85.2148 42.4587 85.2148 43.3838Z" fill="black"/>
<path d="M137.9 27.108H139.04L139.16 28.44H139.196C139.5 27.96 139.864 27.596 140.288 27.348C140.72 27.092 141.192 26.964 141.704 26.964C141.944 26.964 142.148 26.984 142.316 27.024C142.492 27.056 142.668 27.116 142.844 27.204L142.556 28.368C142.364 28.304 142.192 28.26 142.04 28.236C141.896 28.204 141.712 28.188 141.488 28.188C141.08 28.188 140.688 28.304 140.312 28.536C139.936 28.768 139.596 29.172 139.292 29.748V33H137.9V27.108ZM144.279 30.06C144.279 29.58 144.363 29.148 144.531 28.764C144.707 28.38 144.935 28.056 145.215 27.792C145.495 27.52 145.815 27.316 146.175 27.18C146.543 27.036 146.919 26.964 147.303 26.964C147.743 26.964 148.131 27.036 148.467 27.18C148.811 27.316 149.099 27.508 149.331 27.756C149.563 27.996 149.739 28.288 149.859 28.632C149.979 28.976 150.039 29.352 150.039 29.76C150.039 29.896 150.031 30.024 150.015 30.144C150.007 30.264 149.995 30.36 149.979 30.432H145.695C145.743 30.96 145.951 31.368 146.319 31.656C146.687 31.936 147.139 32.076 147.675 32.076C147.979 32.076 148.263 32.036 148.527 31.956C148.791 31.868 149.059 31.748 149.331 31.596L149.799 32.46C149.479 32.66 149.123 32.824 148.731 32.952C148.339 33.08 147.927 33.144 147.495 33.144C147.047 33.144 146.627 33.076 146.235 32.94C145.843 32.796 145.503 32.592 145.215 32.328C144.927 32.064 144.699 31.744 144.531 31.368C144.363 30.984 144.279 30.548 144.279 30.06ZM148.767 29.496C148.767 29.04 148.647 28.684 148.407 28.428C148.167 28.164 147.811 28.032 147.339 28.032C146.939 28.032 146.583 28.156 146.271 28.404C145.959 28.652 145.763 29.016 145.683 29.496H148.767ZM153.106 33.48V35.328H151.714V27.108H152.854L152.962 27.78H152.998C153.254 27.548 153.546 27.356 153.874 27.204C154.21 27.044 154.546 26.964 154.882 26.964C155.266 26.964 155.606 27.036 155.902 27.18C156.206 27.316 156.458 27.516 156.658 27.78C156.866 28.044 157.022 28.36 157.126 28.728C157.238 29.096 157.294 29.508 157.294 29.964C157.294 30.468 157.222 30.92 157.078 31.32C156.934 31.712 156.738 32.044 156.49 32.316C156.25 32.58 155.97 32.784 155.65 32.928C155.338 33.072 155.014 33.144 154.678 33.144C154.406 33.144 154.126 33.084 153.838 32.964C153.558 32.844 153.298 32.672 153.058 32.448L153.106 33.48ZM153.106 31.464C153.322 31.664 153.542 31.804 153.766 31.884C153.998 31.964 154.206 32.004 154.39 32.004C154.814 32.004 155.166 31.836 155.446 31.5C155.726 31.156 155.866 30.648 155.866 29.976C155.866 29.384 155.758 28.924 155.542 28.596C155.326 28.268 154.978 28.104 154.498 28.104C154.274 28.104 154.046 28.16 153.814 28.272C153.582 28.384 153.346 28.564 153.106 28.812V31.464ZM158.778 24.528H162.018V30.924C162.018 31.324 162.118 31.608 162.318 31.776C162.518 31.936 162.77 32.016 163.074 32.016C163.362 32.016 163.698 31.94 164.082 31.788L164.406 32.808C164.126 32.904 163.862 32.984 163.614 33.048C163.374 33.112 163.082 33.144 162.738 33.144C162.042 33.144 161.518 32.944 161.166 32.544C160.814 32.144 160.638 31.58 160.638 30.852V25.62H158.778V24.528ZM165.973 31.416C165.973 31.088 166.049 30.8 166.201 30.552C166.353 30.296 166.593 30.08 166.921 29.904C167.249 29.728 167.669 29.584 168.181 29.472C168.693 29.36 169.313 29.28 170.041 29.232C170.017 28.896 169.897 28.62 169.681 28.404C169.465 28.188 169.117 28.08 168.637 28.08C168.301 28.08 167.969 28.144 167.641 28.272C167.321 28.392 167.009 28.536 166.705 28.704L166.201 27.78C166.561 27.572 166.973 27.384 167.437 27.216C167.901 27.048 168.385 26.964 168.889 26.964C169.713 26.964 170.341 27.184 170.773 27.624C171.205 28.056 171.421 28.684 171.421 29.508V33H170.293L170.185 32.268H170.149C169.837 32.508 169.489 32.716 169.105 32.892C168.729 33.06 168.341 33.144 167.941 33.144C167.653 33.144 167.389 33.1 167.149 33.012C166.909 32.932 166.701 32.816 166.525 32.664C166.349 32.512 166.213 32.332 166.117 32.124C166.021 31.908 165.973 31.672 165.973 31.416ZM167.305 31.308C167.305 31.572 167.405 31.764 167.605 31.884C167.813 32.004 168.065 32.064 168.361 32.064C168.657 32.064 168.941 32 169.213 31.872C169.493 31.736 169.769 31.56 170.041 31.344V30.096C169.513 30.136 169.073 30.192 168.721 30.264C168.369 30.328 168.089 30.412 167.881 30.516C167.673 30.62 167.525 30.74 167.437 30.876C167.349 31.004 167.305 31.148 167.305 31.308ZM173.192 30.06C173.192 29.572 173.28 29.136 173.456 28.752C173.64 28.368 173.884 28.044 174.188 27.78C174.492 27.516 174.848 27.316 175.256 27.18C175.664 27.036 176.092 26.964 176.54 26.964C177.02 26.964 177.44 27.044 177.8 27.204C178.168 27.364 178.476 27.56 178.724 27.792L178.064 28.656C177.832 28.472 177.596 28.332 177.356 28.236C177.124 28.14 176.876 28.092 176.612 28.092C176.02 28.092 175.54 28.272 175.172 28.632C174.804 28.984 174.62 29.46 174.62 30.06C174.62 30.356 174.668 30.624 174.764 30.864C174.86 31.104 174.992 31.312 175.16 31.488C175.336 31.656 175.544 31.788 175.784 31.884C176.024 31.972 176.288 32.016 176.576 32.016C176.912 32.016 177.216 31.952 177.488 31.824C177.768 31.696 178.024 31.544 178.256 31.368L178.832 32.256C178.496 32.552 178.12 32.776 177.704 32.928C177.288 33.072 176.868 33.144 176.444 33.144C175.98 33.144 175.548 33.076 175.148 32.94C174.756 32.804 174.412 32.604 174.116 32.34C173.828 32.076 173.6 31.752 173.432 31.368C173.272 30.984 173.192 30.548 173.192 30.06ZM180.256 30.06C180.256 29.58 180.34 29.148 180.508 28.764C180.684 28.38 180.912 28.056 181.192 27.792C181.472 27.52 181.792 27.316 182.152 27.18C182.52 27.036 182.896 26.964 183.28 26.964C183.72 26.964 184.108 27.036 184.444 27.18C184.788 27.316 185.076 27.508 185.308 27.756C185.54 27.996 185.716 28.288 185.836 28.632C185.956 28.976 186.016 29.352 186.016 29.76C186.016 29.896 186.008 30.024 185.992 30.144C185.984 30.264 185.972 30.36 185.956 30.432H181.672C181.72 30.96 181.928 31.368 182.296 31.656C182.664 31.936 183.116 32.076 183.652 32.076C183.956 32.076 184.24 32.036 184.504 31.956C184.768 31.868 185.036 31.748 185.308 31.596L185.776 32.46C185.456 32.66 185.1 32.824 184.708 32.952C184.316 33.08 183.904 33.144 183.472 33.144C183.024 33.144 182.604 33.076 182.212 32.94C181.82 32.796 181.48 32.592 181.192 32.328C180.904 32.064 180.676 31.744 180.508 31.368C180.34 30.984 180.256 30.548 180.256 30.06ZM184.744 29.496C184.744 29.04 184.624 28.684 184.384 28.428C184.144 28.164 183.788 28.032 183.316 28.032C182.916 28.032 182.56 28.156 182.248 28.404C181.936 28.652 181.74 29.016 181.66 29.496H184.744ZM191.651 35.124C190.843 34.452 190.203 33.66 189.731 32.748C189.267 31.836 189.035 30.808 189.035 29.664C189.035 28.52 189.267 27.492 189.731 26.58C190.203 25.668 190.843 24.876 191.651 24.204L192.419 24.84C191.659 25.528 191.103 26.26 190.751 27.036C190.399 27.812 190.223 28.688 190.223 29.664C190.223 30.64 190.399 31.516 190.751 32.292C191.103 33.068 191.659 33.8 192.419 34.488L191.651 35.124ZM217.756 34.752C218.772 34.344 219.284 33.728 219.292 32.904C219.252 32.912 219.196 32.916 219.124 32.916C218.82 32.916 218.556 32.828 218.332 32.652C218.108 32.468 217.996 32.2 217.996 31.848C217.996 31.512 218.108 31.252 218.332 31.068C218.564 30.876 218.836 30.78 219.148 30.78C219.58 30.78 219.904 30.94 220.12 31.26C220.336 31.58 220.444 32.02 220.444 32.58C220.444 33.316 220.244 33.936 219.844 34.44C219.444 34.952 218.868 35.332 218.116 35.58L217.756 34.752ZM252.953 34.488C253.713 33.8 254.269 33.068 254.621 32.292C254.973 31.516 255.149 30.64 255.149 29.664C255.149 28.688 254.973 27.812 254.621 27.036C254.269 26.26 253.713 25.528 252.953 24.84L253.721 24.204C254.529 24.876 255.165 25.668 255.629 26.58C256.101 27.492 256.337 28.52 256.337 29.664C256.337 30.808 256.101 31.836 255.629 32.748C255.165 33.66 254.529 34.452 253.721 35.124L252.953 34.488Z" fill="#2E383C"/>
<path d="M195.222 26.304L195.186 24.768H196.866L196.83 26.304L196.47 29.076H195.582L195.222 26.304ZM198.186 26.304L198.15 24.768H199.83L199.794 26.304L199.434 29.076H198.546L198.186 26.304ZM202.658 27.108H203.798L203.918 28.44H203.954C204.258 27.96 204.622 27.596 205.046 27.348C205.478 27.092 205.95 26.964 206.462 26.964C206.702 26.964 206.906 26.984 207.074 27.024C207.25 27.056 207.426 27.116 207.602 27.204L207.314 28.368C207.122 28.304 206.95 28.26 206.798 28.236C206.654 28.204 206.47 28.188 206.246 28.188C205.838 28.188 205.446 28.304 205.07 28.536C204.694 28.768 204.354 29.172 204.05 29.748V33H202.658V27.108ZM209.613 26.304L209.577 24.768H211.257L211.221 26.304L210.861 29.076H209.973L209.613 26.304ZM212.577 26.304L212.541 24.768H214.221L214.185 26.304L213.825 29.076H212.937L212.577 26.304ZM231.199 26.304L231.163 24.768H232.843L232.807 26.304L232.447 29.076H231.559L231.199 26.304ZM234.163 26.304L234.127 24.768H235.807L235.771 26.304L235.411 29.076H234.523L234.163 26.304ZM239.474 28.824H240.554C241.098 28.824 241.51 28.712 241.79 28.488C242.078 28.264 242.222 27.928 242.222 27.48C242.222 27.024 242.078 26.708 241.79 26.532C241.51 26.356 241.098 26.268 240.554 26.268H239.474V28.824ZM242.33 33L240.65 29.928H239.474V33H238.082V25.152H240.698C241.106 25.152 241.486 25.192 241.838 25.272C242.19 25.352 242.494 25.484 242.75 25.668C243.014 25.844 243.218 26.08 243.362 26.376C243.514 26.672 243.59 27.04 243.59 27.48C243.59 28.08 243.446 28.564 243.158 28.932C242.878 29.3 242.502 29.564 242.03 29.724L243.902 33H242.33ZM245.59 26.304L245.554 24.768H247.234L247.198 26.304L246.838 29.076H245.95L245.59 26.304ZM248.554 26.304L248.518 24.768H250.198L250.162 26.304L249.802 29.076H248.914L248.554 26.304Z" fill="#B82629"/>
</svg>
